<?xml version="1.0" encoding="UTF-8" standalone="no"?>
<svg
   xmlns:dc="http://purl.org/dc/elements/1.1/"
   xmlns:cc="http://creativecommons.org/ns#"
   xmlns:rdf="http://www.w3.org/1999/02/22-rdf-syntax-ns#"
   xmlns:svg="http://www.w3.org/2000/svg"
   xmlns="http://www.w3.org/2000/svg"
   xmlns:xlink="http://www.w3.org/1999/xlink"
   xmlns:sodipodi="http://sodipodi.sourceforge.net/DTD/sodipodi-0.dtd"
   xmlns:inkscape="http://www.inkscape.org/namespaces/inkscape"
   height="660"
   width="600"
   version="1.0"
   id="svg2"
   sodipodi:version="0.32"
   inkscape:version="0.46"
   sodipodi:docname="A.svg"
   sodipodi:docbase="H:\WIKIPEDIA\Blasons en cours"
   inkscape:export-filename="/Users/olivier/Desktop/Blason Rouge/Blason_Vide_3D.png"
   inkscape:export-xdpi="144"
   inkscape:export-ydpi="144"
   inkscape:output_extension="org.inkscape.output.svg.inkscape">
  <metadata
     id="metadata49">
    <rdf:RDF>
      <cc:Work
         rdf:about="">
        <dc:format>image/svg+xml</dc:format>
        <dc:type
           rdf:resource="http://purl.org/dc/dcmitype/StillImage" />
        <dc:title>Gabarit d'un blason en pointe pour le projet Blasons de Wikipédia</dc:title>
        <dc:date>03-AUG-2006</dc:date>
        <dc:creator>
          <cc:Agent>
            <dc:title>Jérôme BLUM (wagner51)</dc:title>
          </cc:Agent>
        </dc:creator>
        <cc:license
           rdf:resource="http://web.resource.org/cc/PublicDomain" />
        <dc:language>fr</dc:language>
        <dc:subject>
          <rdf:Bag>
            <rdf:li>gabarit modèle blason projet wikipédia</rdf:li>
          </rdf:Bag>
        </dc:subject>
      </cc:Work>
      <cc:License
         rdf:about="http://web.resource.org/cc/PublicDomain">
        <cc:permits
           rdf:resource="http://web.resource.org/cc/Reproduction" />
        <cc:permits
           rdf:resource="http://web.resource.org/cc/Distribution" />
        <cc:permits
           rdf:resource="http://web.resource.org/cc/DerivativeWorks" />
      </cc:License>
    </rdf:RDF>
  </metadata>
  <sodipodi:namedview
     inkscape:window-height="712"
     inkscape:window-width="1024"
     inkscape:pageshadow="2"
     inkscape:pageopacity="0.0"
     guidetolerance="10.0"
     gridtolerance="10.0"
     objecttolerance="10.0"
     borderopacity="1.0"
     bordercolor="#666666"
     pagecolor="#ffffff"
     id="base"
     showgrid="false"
     height="660px"
     inkscape:zoom="0.44547727"
     inkscape:cx="-192.47504"
     inkscape:cy="102.62215"
     inkscape:window-x="3001"
     inkscape:window-y="184"
     inkscape:current-layer="layer5" />
  <desc
     id="desc4">Flag of Canton of Valais (Wallis)</desc>
  <defs
     id="defs6">
    <linearGradient
       id="linearGradient2893">
      <stop
         style="stop-color:white;stop-opacity:0.3137255;"
         offset="0"
         id="stop2895" />
      <stop
         id="stop2897"
         offset="0.19"
         style="stop-color:white;stop-opacity:0.25098041;" />
      <stop
         style="stop-color:#6b6b6b;stop-opacity:0.1254902;"
         offset="0.60000002"
         id="stop2901" />
      <stop
         style="stop-color:black;stop-opacity:0.1254902;"
         offset="1"
         id="stop2899" />
    </linearGradient>
    <radialGradient
       inkscape:collect="always"
       xlink:href="#linearGradient2893"
       id="radialGradient3163"
       gradientUnits="userSpaceOnUse"
       gradientTransform="matrix(1.353218,0,0,1.348928,-79.874131,-87.991716)"
       cx="221.44487"
       cy="226.33101"
       fx="221.44487"
       fy="226.33101"
       r="300" />
  </defs>
  <g
     inkscape:groupmode="layer"
     id="layer3"
     inkscape:label="Fond écu"
     style="display:inline"
     sodipodi:insensitive="true">
    <path
       id="path2855"
       style="fill:#0000ff;fill-opacity:1;fill-rule:evenodd;stroke:none;stroke-width:1px;stroke-linecap:butt;stroke-linejoin:miter;stroke-opacity:1"
       d="M 297.75522,658.5 C 297.75522,658.5 596.25523,546.17969 596.25523,260.72817 C 596.25523,-24.723354 596.25523,2.1764765 596.25523,2.1764765 L -0.74478344,2.1764765 L -0.74478344,260.72817 C -0.74478344,546.17969 297.75522,658.5 297.75522,658.5 z "
       sodipodi:nodetypes="cccccc" />
  </g>
  <g
     inkscape:groupmode="layer"
     id="layer5"
     inkscape:label="Dragon">
    <path
       id="path2643"
       d="M 166.77803,617.64363 C 166.97293,617.64363 167.16782,617.64363 166.77803,617.64363 z"
       style="fill:none;fill-opacity:0.75;fill-rule:evenodd;stroke:#000000;stroke-width:0.80321747px;stroke-linecap:butt;stroke-linejoin:miter;stroke-opacity:1" />
    <g
       id="g2758"
       transform="translate(888.93424,-150.40049)"
       style="stroke:#000000;stroke-opacity:1;stroke-width:3;stroke-miterlimit:4;stroke-dasharray:none">
      <path
         style="fill:#008000;fill-rule:evenodd;stroke:#000000;stroke-width:3;stroke-linecap:butt;stroke-linejoin:miter;stroke-miterlimit:4;stroke-dasharray:none;stroke-opacity:1"
         d="M -708.99223,332.67123 L -786.46782,295.66216 L -786.62319,295.89006"
         id="path2328" />
      <path
         style="fill:#ffff00;fill-rule:evenodd;stroke:#000000;stroke-width:3;stroke-linecap:butt;stroke-linejoin:miter;stroke-miterlimit:4;stroke-dasharray:none;stroke-opacity:1"
         d="M -746.53992,226.14988 C -739.87121,238.8886 -732.80063,251.65143 -729.07617,264.90505 C -725.76322,274.33756 -720.43417,283.48935 -715.5839,292.59596 C -711.06863,299.22644 -706.89702,306.05802 -700.85015,311.74891 C -697.28582,315.84885 -693.63968,319.83877 -688.74776,322.359 C -682.41503,326.09928 -676.65749,330.63335 -671.39387,335.84904 C -667.95451,338.06941 -669.50832,341.82786 -668.55647,344.81445 C -670.67926,349.35477 -672.45974,354.16587 -676.82342,356.93344 C -683.76695,362.99796 -690.32637,369.52727 -695.98317,376.7539 C -700.70277,383.37495 -704.82147,390.73245 -706.05225,399.33871 C -705.82261,404.85392 -706.39057,410.29311 -703.81668,416.0084 C -702.93479,419.76832 -701.51592,423.38233 -698.49646,426.55772 C -695.07808,431.79502 -690.36067,436.28182 -685.42694,440.23897 C -680.39896,443.07336 -675.52263,446.57141 -670.0491,447.33296 C -665.00903,449.55081 -660.49763,448.43628 -655.86307,448.0939 C -651.04215,449.26414 -645.46971,450.08028 -641.6032,453.94211 C -639.91771,457.87838 -637.27686,461.87534 -638.47633,465.62823 C -638.77581,468.74121 -640.84852,471.35581 -642.8242,473.39741 C -645.94044,475.67052 -649.72983,477.15369 -653.10247,478.97776 C -655.41834,480.2975 -656.35562,485.65563 -659.73952,483.84668 C -671.02138,477.69811 -682.30324,471.54954 -693.5851,465.40098 C -693.55304,462.25058 -691.44126,459.05195 -694.82469,455.98828 C -697.87455,451.60426 -700.66539,447.00881 -705.39375,443.9595 C -711.15042,438.67057 -717.5711,434.41789 -724.22283,430.53146 C -729.92766,426.19687 -736.48721,424.608 -742.76851,422.12065 C -741.40122,419.63308 -740.32792,417.06448 -741.58974,413.7134 C -741.98464,410.45607 -742.40259,407.22093 -745.25005,404.40556 C -748.50056,398.60988 -754.51293,395.04884 -759.54361,390.73472 C -768.41605,385.82425 -777.45698,381.52911 -786.72542,378.06775 C -793.64729,375.33569 -800.76124,374.53758 -807.70874,371.67002 C -812.10738,368.89715 -816.04425,365.28577 -818.53955,360.79313 C -819.91671,359.13721 -819.12695,351.09949 -817.33342,355.66227 C -815.02239,357.65715 -811.57599,361.14205 -808.75343,360.73942 C -805.44398,360.60518 -802.50811,360.00665 -801.76648,356.75165 C -799.71134,354.09712 -802.1663,349.7193 -802.20042,346.2776 C -805.50422,341.45667 -808.15484,336.14955 -813.32724,332.70165 C -820.80892,326.2597 -828.29059,319.81775 -835.77227,313.37581 C -837.87055,309.70845 -836.94054,306.96166 -834.8435,304.56964 C -833.44734,302.22637 -827.73877,302.06099 -830.44246,306.03392 C -827.58098,309.87879 -823.57498,313.21326 -819.23628,315.03329 C -814.92199,314.64301 -809.52089,316.21875 -806.87275,312.8141 C -803.8633,310.46667 -799.98296,308.83569 -799.18681,304.65934 C -797.77081,301.44912 -795.34108,298.79116 -796.28847,294.58232 C -796.20787,289.12201 -800.88933,283.49258 -802.07386,278.03181 C -803.07179,272.9702 -799.70308,269.2973 -797.14705,266.00337 C -794.62669,264.26514 -791.94359,262.99834 -788.18719,264.84084 C -784.5723,265.63099 -790.26421,269.20055 -790.57368,271.16268 C -792.13428,273.449 -791.60528,276.99998 -788.72256,279.40207 C -786.20917,281.83231 -782.1817,281.51336 -779.05809,282.83485 C -774.03779,280.05129 -767.60615,278.86753 -764.52659,273.90792 C -761.0197,270.8368 -758.91244,266.75441 -757.33061,262.29886 C -754.36144,255.53174 -752.23868,248.20543 -752.22651,240.1866 C -752.34094,236.42307 -753.91964,232.41618 -754.56568,228.56223 C -758.22514,225.68857 -761.40834,221.53087 -766.03568,221.25435 C -771.5004,221.25593 -768.34732,217.56328 -765.65282,216.8304 C -762.7498,215.63666 -760.04614,213.32714 -756.37366,216.43985 C -751.39972,217.9761 -749.73574,222.45399 -746.53992,226.14988 z"
         id="path2320" />
      <g
         id="g2681"
         transform="matrix(0.5588269,0,0,0.6832312,-374.33602,132.28655)"
         style="stroke:#000000;stroke-opacity:1;stroke-width:4.85510647;stroke-miterlimit:4;stroke-dasharray:none">
        <g
           id="g2569"
           transform="translate(-700.35684,95.87589)"
           style="stroke:#000000;stroke-opacity:1;stroke-width:4.85510647;stroke-miterlimit:4;stroke-dasharray:none">
          <g
             id="g2392"
             transform="matrix(1.006116,0,0,1.006116,0.984547,-2.548333)"
             style="stroke:#000000;stroke-opacity:1;stroke-width:4.82559314;stroke-miterlimit:4;stroke-dasharray:none">
            <path
               sodipodi:nodetypes="cccc"
               id="path2382"
               d="M 584.27007,621.47472 C 574.1518,682.36117 522.67138,692.06808 489.88071,705.00931 C 551.01457,736.70242 652.76801,667.05213 622.49777,567.67279 C 612.59155,590.64915 581.83983,608.23973 584.27007,621.47472 z"
               style="fill:#ffff00;fill-opacity:1;fill-rule:evenodd;stroke:#000000;stroke-width:4.82559314;stroke-linecap:butt;stroke-linejoin:miter;stroke-miterlimit:4;stroke-dasharray:none;stroke-opacity:1" />
            <path
               sodipodi:nodetypes="cccccccccccccccccccccccccccccccccccccccccccccccccccccccccccccccccccscccccccccccccccccscccccccccccccccccccccccccccccc"
               d="M 422.70841,543.01181 L 437.73583,510.18876 L 459.48604,487.64763 C 474.6133,486.32241 490.0421,485.37413 509.3138,489.22946 L 491.12271,514.93426 L 479.25896,539.84814 L 481.63171,561.99381 L 504.56829,577.02122 L 533.43676,567.53022 L 555.58242,545.78001 L 553.41072,509.505 L 527.90034,491.99768 C 502.17063,485.1467 478.85437,483.93388 456.71783,486.46126 C 410.32087,506.5808 364.85178,513.71018 319.49378,519.2843 C 310.90911,554.49971 323.41261,588.71092 336.49849,622.8944 C 337.09274,634.823 344.07984,640.35874 356.27141,640.69002 C 366.18529,639.94024 377.57134,641.39872 383.55803,634.75815 C 393.65093,623.19573 408.30635,628.22713 410.05375,639.50365 C 403.87502,644.25475 404.82289,651.38138 408.07645,659.27657 C 399.37524,663.61648 390.15013,663.24127 380.39437,658.09019 C 369.53742,663.72312 356.95695,663.32369 343.93311,661.01659 C 335.34356,667.33322 331.96138,678.27126 334.83756,694.0769 C 342.12837,704.64163 340.25381,714.18798 336.26121,723.499 C 330.077,720.92662 323.13749,720.24251 314.43191,723.97355 C 308.76096,716.57257 305.55529,708.55526 314.90646,697.39875 C 313.2489,685.19115 314.70493,671.94568 316.80466,658.48565 C 310.75203,670.00923 293.09087,674.89936 278.84066,681.7386 C 274.13304,689.68564 267.67895,697.78442 254.63861,697.39875 C 254.81943,689.6854 249.18471,685.84908 241.82576,683.16225 C 236.6752,667.35649 250.9005,661.81167 265.55326,665.12935 C 286.95976,662.5452 295.31561,653.43572 307.31366,646.14735 C 287.10107,645.97173 272.80148,642.83961 262.70596,637.60545 C 249.51176,641.28043 239.94275,643.57085 233.75841,632.85995 C 236.53048,626.12333 236.6646,619.82637 231.86021,614.3525 C 235.23871,604.74257 242.61859,600.95284 259.85866,611.50519 C 276.69446,625.38543 292.62746,626.6264 308.20339,622.86844 C 299.998,589.77619 275.63329,557.63304 250.63208,524.54079 C 239.79068,519.04192 228.12861,511.08105 225.8129,531.15924 C 215.60945,573.07609 183.58863,569.52048 180.31105,599.82566 C 192.29238,602.73585 197.96392,611.95581 205.95755,618.8537 C 213.29056,625.38684 223.87621,628.01679 220.84906,646.98212 C 211.24851,643.77561 204.80343,646.88005 201.82101,656.90979 C 178.51522,650.11982 183.92133,636.15187 186.1022,622.99024 C 161.00724,600.4538 135.91229,605.03279 110.81733,610.58064 C 99.58282,622.35439 89.53318,628.20383 82.68891,618.0264 C 89.21798,612.53258 81.30622,598.71082 72.76124,599.82566 C 80.58913,570.8947 112.14284,600.83731 140.60035,589.07068 C 126.1766,579.69454 107.84565,570.31841 105.85349,560.94227 C 92.11261,566.90079 72.18345,553.69863 78.98395,535.76318 C 84.69673,537.49163 91.70262,525.27979 88.8758,518.24641 C 102.37341,514.70282 111.10813,521.19022 115.78116,541.91422 C 125.97241,566.55517 139.13787,567.40247 151.35533,575.83378 C 139.0397,557.90881 149.24167,539.15653 131.49998,524.54079 C 110.96903,527.02394 104.61473,517.90801 108.33541,500.54891 C 116.60847,499.99737 121.02078,498.34277 124.88154,488.96663 C 160.18741,488.51343 146.39408,543.28894 168.72876,575.83378 C 175.83432,554.30234 201.33339,533.09583 197.68448,516.80417 C 140.66212,489.26216 60.22868,427.13565 104.19888,337.15592 C 181.50367,214.00661 318.48782,247.65888 338.94703,168.48886 C 311.94748,159.16912 292.75488,202.87246 267.28162,200.34015 C 224.2378,197.29705 186.9574,253.09977 174.00284,245.842 C 157.2454,233.65244 189.24186,206.20341 201.3449,195.56301 C 140.80593,215.77853 57.491269,235.39842 53.42295,170.76395 C 110.46921,217.69929 159.59654,176.14365 217.11127,174.02363 C 204.64087,159.3871 191.15654,157.3822 182.9998,159.07826 C 155.18803,137.78152 143.64965,156.33641 146.70174,174.17659 C 137.04684,170.77604 133.20385,158.1058 135.04497,149.5294 C 132.31817,146.21553 128.63494,142.11875 129.02978,137.69501 C 129.80271,129.0353 132.86764,121.4759 137.60137,118.43683 C 164.55777,102.06235 188.61859,132.70786 230.05284,111.71496 C 240.17552,99.132017 259.86088,97.036369 274.1069,115.02419 C 349.92735,93.275393 467.07687,118.40168 432.22581,62.697073 C 452.69521,57.808342 465.32106,78.711234 458.38937,95.68591 C 438.17714,110.89343 425.44505,117.99781 331.06662,130.17008 C 361.63344,130.68122 492.23733,147.04362 465.21464,96.823456 C 486.40218,93.610314 496.34302,118.81557 481.14029,133.49555 C 455.94247,146.58002 421.33792,156.66894 393.42998,155.53025 C 410.38491,234.97002 343.49029,255.50681 294.37459,286.84674 C 294.37429,286.84693 294.37399,286.8471 294.37371,286.8473 C 284.54506,297.87784 271.33606,310.27838 259.8645,317.34915 C 258.73181,330.07487 259.48806,340.61841 248.15016,363.62973 C 256.09317,370.0157 258.9554,371.81618 266.20452,385.03835 C 275.39008,385.55798 283.46826,387.0477 294.47932,392.9991 C 301.75229,362.40115 269.86895,345.13803 290.34278,317.71423 C 300.28144,307.47454 312.95584,307.2245 325.08965,317.71423 C 349.0153,349.13807 393.53705,348.96721 421.50203,321.47691 C 445.20833,298.17301 447.08896,256.89148 434.29407,195.2729 C 425.8596,152.5182 446.39341,145.59019 474.00477,150.59836 C 569.16129,153.54332 594.34469,79.428256 654.35611,59.233382 C 677.43221,50.694928 687.13942,71.72445 684.26212,87.893309 C 667.02326,74.841523 659.35613,79.337942 651.86394,84.155058 C 624.15331,119.54291 622.14285,174.22105 640.64919,198.17173 C 652.66822,207.71314 668.05,205.80576 663.0787,178.23439 C 687.7416,178.36322 684.88217,223.79097 666.19391,229.32382 C 642.03909,236.41692 639.33247,287.66638 662.45566,299.72756 C 677.71426,307.04982 684.57795,301.95429 685.50821,293.49714 C 696.95457,292.89303 702.66406,320.95825 683.63908,322.78011 C 660.50418,327.76624 605.29565,316.74163 603.26668,355.80133 C 608.37654,369.51742 625.28552,368.51682 631.9266,357.04741 C 630.94034,392.05053 593.57358,389.42851 575.85283,375.11563 C 523.38312,349.22607 467.11588,346.22748 467.44316,388.32389 C 446.05315,373.42465 364.26194,365.25335 360.54969,400.44439 C 367.16198,414.18358 380.95662,411.23887 395.45223,397.38642 C 409.8308,408.07309 434.05908,401.36062 445.48398,389.10443 C 452.30796,393.62504 481.16445,398.09098 493.62465,383.24931 C 507.0915,399.56894 522.3019,393.22247 537.73377,383.99692 C 543.01787,412.66952 568.8028,416.11033 599.78557,413.1538 C 599.37873,439.354 613.40096,462.46227 640.90424,482.68173 C 620.75858,503.25103 624.09238,529.69019 635.67096,558.19055 C 620.25888,568.27399 610.23034,584.51005 608.75692,610.5234 C 590.38038,612.13051 575.56067,618.09693 561.58712,632.26192 C 544.22097,630.6218 528.23765,633.47589 514.47963,643.5622 L 475.69983,639.89911 L 446.04046,617.35798 L 422.70841,584.13948 L 422.70841,543.01181"
               style="fill:#ffff00;fill-opacity:1;fill-rule:evenodd;stroke:#000000;stroke-width:4.82559314;stroke-linecap:butt;stroke-linejoin:miter;stroke-miterlimit:4;stroke-dasharray:none;stroke-opacity:1"
               id="path1413" />
            <g
               id="g2372"
               style="stroke:#000000;stroke-opacity:1;stroke-width:4.82559314;stroke-miterlimit:4;stroke-dasharray:none">
              <path
                 style="fill:#ffff00;fill-opacity:1;fill-rule:evenodd;stroke:#000000;stroke-width:4.82559314;stroke-linecap:butt;stroke-linejoin:miter;stroke-miterlimit:4;stroke-dasharray:none;stroke-opacity:1"
                 d="M 125.0794,488.83419 C 122.42546,495.55605 117.5404,501.02522 108.26062,500.5084 C 106.62777,494.59761 100.15421,494.33431 92.23332,495.75957 C 97.40255,480.05327 110.28064,475.84973 125.0794,488.83419 z"
                 id="path1405"
                 sodipodi:nodetypes="cccc" />
              <path
                 style="fill:#ffff00;fill-opacity:1;fill-rule:evenodd;stroke:#000000;stroke-width:4.82559314;stroke-linecap:butt;stroke-linejoin:miter;stroke-miterlimit:4;stroke-dasharray:none;stroke-opacity:1"
                 d="M 88.47383,518.31652 C 90.92512,524.13099 86.15981,536.27514 79.3719,535.7289 C 72.70782,529.38057 64.88934,530.53581 57.21069,530.7822 C 60.12906,518.3132 66.24109,509.38312 88.47383,518.31652 z"
                 id="path1407"
                 sodipodi:nodetypes="cccc" />
              <path
                 style="fill:#ffff00;fill-opacity:1;fill-rule:evenodd;stroke:#000000;stroke-width:4.82559314;stroke-linecap:butt;stroke-linejoin:miter;stroke-miterlimit:4;stroke-dasharray:none;stroke-opacity:1"
                 d="M 82.33992,618.04198 C 89.43656,612.82571 81.30922,599.28551 72.64439,599.64026 C 48.21789,607.29882 59.62039,627.616 65.52114,633.07994 C 65.73592,626.76612 69.37331,617.45056 82.33992,618.04198 z"
                 id="path1409"
                 sodipodi:nodetypes="cccc" />
              <path
                 style="fill:#ffff00;fill-opacity:1;fill-rule:evenodd;stroke:#000000;stroke-width:4.82559314;stroke-linecap:butt;stroke-linejoin:miter;stroke-miterlimit:4;stroke-dasharray:none;stroke-opacity:1"
                 d="M 201.78996,656.12634 C 205.90481,647.13468 212.79178,644.61129 221.37789,646.05255 C 230.39771,660.12216 226.09793,675.4145 208.50582,681.31082 C 212.09416,669.70543 208.03387,660.28537 201.78996,656.12634 z"
                 id="path2714"
                 sodipodi:nodetypes="cccc" />
              <path
                 style="fill:#ffff00;fill-opacity:1;fill-rule:evenodd;stroke:#000000;stroke-width:4.82559314;stroke-linecap:butt;stroke-linejoin:miter;stroke-miterlimit:4;stroke-dasharray:none;stroke-opacity:1"
                 d="M 409.65829,638.71273 C 404.05,643.96155 403.40328,650.86423 407.28554,659.27657 C 420.24773,655.10235 425.11346,661.04871 429.82666,667.18573 C 441.44025,648.87679 427.43392,638.03511 409.65829,638.71273 z"
                 id="path1417"
                 sodipodi:nodetypes="cccc" />
              <path
                 sodipodi:nodetypes="cccc"
                 id="path1421"
                 d="M 315.24286,725.20867 C 320.31645,719.44137 327.19594,718.58235 335.72387,722.20366 C 331.95087,735.28827 336.62062,735.69759 342.8999,740.21953 C 324.95735,752.39154 315.11306,742.99673 315.24286,725.20867 z"
                 style="fill:#ffff00;fill-opacity:1;fill-rule:evenodd;stroke:#000000;stroke-width:4.82559314;stroke-linecap:butt;stroke-linejoin:miter;stroke-miterlimit:4;stroke-dasharray:none;stroke-opacity:1" />
              <path
                 style="fill:#ffff00;fill-opacity:1;fill-rule:evenodd;stroke:#000000;stroke-width:4.82559314;stroke-linecap:butt;stroke-linejoin:miter;stroke-miterlimit:4;stroke-dasharray:none;stroke-opacity:1"
                 d="M 241.65543,683.27878 C 249.06222,685.64522 255.10539,690.42885 254.62348,697.08616 C 245.63875,700.44621 245.48495,707.18904 247.89265,713.7807 C 226.96572,712.96662 227.89828,690.77938 241.65543,683.27878 z"
                 id="path1423"
                 sodipodi:nodetypes="cccc" />
              <path
                 sodipodi:nodetypes="cccc"
                 id="path1425"
                 d="M 231.68082,614.29933 C 237.2443,619.59562 237.43017,624.6268 233.47655,633.00585 C 220.55031,628.7216 219.9578,634.17599 215.19261,640.27272 C 203.73505,621.86574 213.91159,613.47065 231.68082,614.29933 z"
                 style="fill:#ffff00;fill-opacity:1;fill-rule:evenodd;stroke:#000000;stroke-width:4.82559314;stroke-linecap:butt;stroke-linejoin:miter;stroke-miterlimit:4;stroke-dasharray:none;stroke-opacity:1" />
            </g>
            <path
               sodipodi:nodetypes="ccccc"
               id="path2384"
               d="M 489.40876,704.53737 C 526.47079,694.43694 534.72236,685.03358 530.94009,667.72551 C 501.31893,655.25176 477.96014,693.87532 439.85434,696.98622 C 478.14082,710.75216 497.41637,768.46944 537.07539,736.62975 C 531.29488,708.51376 505.9925,716.06233 489.40876,704.53737 z"
               style="fill:#ffff00;fill-opacity:1;fill-rule:evenodd;stroke:#000000;stroke-width:4.82559314;stroke-linecap:butt;stroke-linejoin:miter;stroke-miterlimit:4;stroke-dasharray:none;stroke-opacity:1" />
          </g>
          <path
             style="fill:#ff0000;fill-opacity:1;fill-rule:evenodd;stroke:#000000;stroke-width:4.85510647;stroke-linecap:butt;stroke-linejoin:miter;stroke-opacity:1;stroke-miterlimit:4;stroke-dasharray:none"
             d="M 60.315016,179.29104 C 106.19136,206.58605 156.62685,185.51713 216.30192,174.05611 C 213.63349,195.02615 172.90493,197.00935 161.40478,202.79072 C 143.49848,211.7926 55.325452,218.50103 60.315016,179.29104 z"
             id="path2408"
             sodipodi:nodetypes="ccsc" />
          <path
             style="fill:none;fill-opacity:0.75000000000000000;fill-rule:evenodd;stroke:#000000;stroke-width:4.85510647;stroke-linecap:round;stroke-linejoin:miter;stroke-miterlimit:4;stroke-dasharray:none;stroke-opacity:1"
             d="M 603.15551,413.22387 C 588.04577,432.38513 574.77492,426.02987 562.31118,426.66908"
             id="path2453"
             sodipodi:nodetypes="cc" />
          <path
             style="fill:none;fill-opacity:0.75000000000000000;fill-rule:evenodd;stroke:#000000;stroke-width:4.85510647;stroke-linecap:round;stroke-linejoin:miter;stroke-miterlimit:4;stroke-dasharray:none;stroke-opacity:1"
             d="M 541.80892,383.83937 C 535.51785,398.93416 519.34726,408.61855 503.46548,410.01232"
             id="path2455"
             sodipodi:nodetypes="cc" />
          <path
             style="fill:none;fill-opacity:0.75000000000000000;fill-rule:evenodd;stroke:#000000;stroke-width:4.85510647;stroke-linecap:round;stroke-linejoin:miter;stroke-miterlimit:4;stroke-dasharray:none;stroke-opacity:1"
             d="M 496.9589,384.35489 C 490.42025,396.22883 477.89026,406.8263 461.88623,410.58706"
             id="path2457"
             sodipodi:nodetypes="cc" />
          <path
             style="fill:none;fill-opacity:0.75000000000000000;fill-rule:evenodd;stroke:#000000;stroke-width:4.85510647;stroke-linecap:round;stroke-linejoin:miter;stroke-miterlimit:4;stroke-dasharray:none;stroke-opacity:1"
             d="M 449.53129,388.47903 C 445.06077,404.73928 429.4539,409.1195 420.98268,414.7112"
             id="path2459"
             sodipodi:nodetypes="cc" />
          <path
             style="fill:none;fill-opacity:0.75000000000000000;fill-rule:evenodd;stroke:#000000;stroke-width:4.85510647;stroke-linecap:round;stroke-linejoin:miter;stroke-miterlimit:4;stroke-dasharray:none;stroke-opacity:1"
             d="M 399.01057,397.24283 C 393.30915,409.72814 379.94303,419.41518 367.42808,426.44966"
             id="path2461"
             sodipodi:nodetypes="cc" />
          <path
             style="fill:none;fill-opacity:0.75000000000000000;fill-rule:evenodd;stroke:#000000;stroke-width:4.85510647;stroke-linecap:round;stroke-linejoin:miter;stroke-miterlimit:4;stroke-dasharray:none;stroke-opacity:1"
             d="M 645.42795,481.27219 C 629.07616,478.38539 612.76804,475.8043 594.9247,462.47667"
             id="path2463"
             sodipodi:nodetypes="cc" />
          <path
             style="fill:none;fill-opacity:0.75000000000000000;fill-rule:evenodd;stroke:#000000;stroke-width:4.85510647;stroke-linecap:round;stroke-linejoin:miter;stroke-miterlimit:4;stroke-dasharray:none;stroke-opacity:1"
             d="M 637.17967,557.56878 C 622.84592,553.93052 615.08071,537.15517 608.31069,518.38945"
             id="path2465"
             sodipodi:nodetypes="cc" />
          <path
             style="fill:none;fill-opacity:0.75000000000000000;fill-rule:evenodd;stroke:#000000;stroke-width:4.85510647;stroke-linecap:round;stroke-linejoin:miter;stroke-miterlimit:4;stroke-dasharray:none;stroke-opacity:1"
             d="M 610.37276,609.12053 C 601.3608,595.45825 599.40493,581.01196 604.18654,565.81706"
             id="path2467"
             sodipodi:nodetypes="cc" />
          <path
             style="fill:none;fill-opacity:0.75000000000000000;fill-rule:evenodd;stroke:#000000;stroke-width:4.85510647;stroke-linecap:round;stroke-linejoin:round;stroke-miterlimit:4;stroke-dasharray:none;stroke-opacity:1"
             d="M 624.23796,91.8714 C 599.09666,112.32217 576.00222,141.20559 536.43082,150.62162"
             id="path2469"
             sodipodi:nodetypes="cc" />
          <path
             style="fill:none;fill-opacity:0.75000000000000000;fill-rule:evenodd;stroke:#000000;stroke-width:4.85510647;stroke-linecap:round;stroke-linejoin:round;stroke-miterlimit:4;stroke-dasharray:none;stroke-opacity:1"
             d="M 501.69972,172.12184 C 484.87242,179.13152 594.86732,197.48107 641.45112,210.16068 L 501.69972,172.12184 z"
             id="path2473"
             sodipodi:nodetypes="ccc" />
          <path
             style="fill:none;fill-opacity:0.75000000000000000;fill-rule:evenodd;stroke:#000000;stroke-width:4.85510647;stroke-linecap:round;stroke-linejoin:round;stroke-miterlimit:4;stroke-dasharray:none;stroke-opacity:1"
             d="M 491.77652,187.83354 C 490.15512,181.81579 590.02882,247.03539 639.79722,276.31519 C 590.45702,246.82131 483.58712,193.28879 491.77652,187.83354 z"
             id="path2475"
             sodipodi:nodetypes="ccc" />
          <path
             style="fill:#403e32;fill-opacity:0.75000000000000000;fill-rule:evenodd;stroke:#000000;stroke-width:4.85510647;stroke-linecap:round;stroke-linejoin:round;stroke-miterlimit:4;stroke-dasharray:none;stroke-opacity:1"
             d="M 484.22052,195.51574 C 476.91052,197.97745 552.02892,284.82433 585.93312,329.47862 C 552.02892,284.82433 485.09262,188.16848 484.22052,195.51574 z"
             id="path2477"
             sodipodi:nodetypes="ccc" />
          <path
             style="fill:none;fill-opacity:0.75000000000000000;fill-rule:evenodd;stroke:#000000;stroke-width:4.85510647;stroke-linecap:round;stroke-linejoin:round;stroke-miterlimit:4;stroke-dasharray:none;stroke-opacity:1"
             d="M 466.14172,325.93107 C 476.4049,294.10578 470.64471,242.25127 472.75712,200.23751"
             id="path2479"
             sodipodi:nodetypes="cc" />
          <g
             id="g2489"
             transform="translate(-784.5334,-26.1387)"
             style="stroke:#000000;stroke-opacity:1;stroke-width:4.85510647;stroke-miterlimit:4;stroke-dasharray:none">
            <path
               sodipodi:nodetypes="cc"
               id="path2481"
               d="M 1036.6214,549.70403 C 1014.8258,530.07234 1004.1401,509.30966 1002.6637,486.55194"
               style="fill:none;fill-opacity:0.75000000000000000;fill-rule:evenodd;stroke:#000000;stroke-width:4.85510647;stroke-linecap:round;stroke-linejoin:miter;stroke-miterlimit:4;stroke-dasharray:none;stroke-opacity:1" />
            <path
               id="path2483"
               d="M 1072.5214,511.79464 L 1093.6429,526.64005 L 1090.7196,552.88742"
               style="fill:none;fill-opacity:0.75000000000000000;fill-rule:evenodd;stroke:#000000;stroke-width:4.85510647;stroke-linecap:round;stroke-linejoin:miter;stroke-miterlimit:4;stroke-dasharray:none;stroke-opacity:1"
               sodipodi:nodetypes="ccc" />
            <path
               sodipodi:nodetypes="ccc"
               id="path2485"
               d="M 1092.0393,503.15847 L 1111.5022,518.08266 L 1107.1567,545.32277"
               style="fill:none;fill-opacity:0.75000000000000000;fill-rule:evenodd;stroke:#000000;stroke-width:4.85510647;stroke-linecap:round;stroke-linejoin:miter;stroke-miterlimit:4;stroke-dasharray:none;stroke-opacity:1" />
            <path
               sodipodi:nodetypes="cc"
               id="path2487"
               d="M 982.70433,511.79464 C 984.68232,526.00698 999.89076,542.76943 1020.905,545.34656"
               style="fill:none;fill-opacity:0.75000000000000000;fill-rule:evenodd;stroke:#000000;stroke-width:4.85510647;stroke-linecap:round;stroke-linejoin:miter;stroke-miterlimit:4;stroke-dasharray:none;stroke-opacity:1" />
          </g>
          <path
             style="fill:none;fill-opacity:0.75000000000000000;fill-rule:evenodd;stroke:#000000;stroke-width:4.85510647;stroke-linecap:butt;stroke-linejoin:miter;stroke-miterlimit:4;stroke-dasharray:none;stroke-opacity:1"
             d="M 131.79384,132.0298 C 129.43878,152.72008 153.4743,145.67619 165.77646,148.15959"
             id="path2495"
             sodipodi:nodetypes="cc" />
          <path
             style="fill:#ffffff;fill-opacity:1;fill-rule:evenodd;stroke:#000000;stroke-width:4.85510647;stroke-linecap:butt;stroke-linejoin:miter;stroke-opacity:1;stroke-miterlimit:4;stroke-dasharray:none"
             d="M 139.43171,148.94442 C 137.13627,155.78656 141.39569,164.71671 144.99251,168.09826 C 143.50083,160.6932 146.39581,155.48147 150.34735,150.79802 L 139.43171,148.94442 z"
             id="path2497"
             sodipodi:nodetypes="cccc" />
          <path
             sodipodi:nodetypes="cccc"
             id="path2499"
             d="M 170.33932,226.94397 C 158.74874,222.41277 152.16608,208.08782 152.01003,200.36352 C 159.87149,209.87677 170.05051,211.99911 180.7877,212.34131 L 170.33932,226.94397 z"
             style="fill:#ffffff;fill-opacity:1;fill-rule:evenodd;stroke:#000000;stroke-width:4.85510647;stroke-linecap:butt;stroke-linejoin:miter;stroke-miterlimit:4;stroke-dasharray:none;stroke-opacity:1" />
          <g
             id="g2536"
             style="stroke:#000000;stroke-opacity:1;stroke-width:4.85510647;stroke-miterlimit:4;stroke-dasharray:none">
            <path
               sodipodi:nodetypes="cc"
               id="path2501"
               d="M 303.2604,256.84633 C 299.9752,264.64508 303.4937,275.27918 297.7314,283.74507"
               style="fill:none;fill-opacity:0.75000000000000000;fill-rule:evenodd;stroke:#000000;stroke-width:4.85510647;stroke-linecap:round;stroke-linejoin:miter;stroke-miterlimit:4;stroke-dasharray:none;stroke-opacity:1" />
            <path
               sodipodi:nodetypes="cc"
               id="path2503"
               d="M 255.22993,285.09145 C 251.25633,291.40854 263.15951,308.04297 261.68661,317.27936"
               style="fill:none;fill-opacity:0.75000000000000000;fill-rule:evenodd;stroke:#000000;stroke-width:4.85510647;stroke-linecap:round;stroke-linejoin:miter;stroke-miterlimit:4;stroke-dasharray:none;stroke-opacity:1" />
            <path
               sodipodi:nodetypes="cc"
               id="path2505"
               d="M 218.47186,341.91396 C 226.69579,353.09464 238.57422,351.93198 251.08406,363.82814"
               style="fill:none;fill-opacity:0.75000000000000000;fill-rule:evenodd;stroke:#000000;stroke-width:4.85510647;stroke-linecap:round;stroke-linejoin:miter;stroke-miterlimit:4;stroke-dasharray:none;stroke-opacity:1" />
            <path
               sodipodi:nodetypes="cc"
               id="path2507"
               d="M 230.24451,392.24306 C 241.49105,395.70246 259.25912,384.35293 271.55073,384.99653"
               style="fill:none;fill-opacity:0.75000000000000000;fill-rule:evenodd;stroke:#000000;stroke-width:4.85510647;stroke-linecap:round;stroke-linejoin:miter;stroke-miterlimit:4;stroke-dasharray:none;stroke-opacity:1" />
            <path
               sodipodi:nodetypes="cc"
               id="path2509"
               d="M 297.26447,393.15573 C 291.34499,405.52772 295.12993,417.50274 286.70877,427.45817"
               style="fill:none;fill-opacity:0.75000000000000000;fill-rule:evenodd;stroke:#000000;stroke-width:4.85510647;stroke-linecap:round;stroke-linejoin:miter;stroke-miterlimit:4;stroke-dasharray:none;stroke-opacity:1" />
          </g>
          <g
             id="g2517"
             transform="translate(-784.6111,-17.4358)"
             style="stroke:#000000;stroke-opacity:1;stroke-width:4.85510647;stroke-miterlimit:4;stroke-dasharray:none">
            <path
               sodipodi:nodetypes="cccc"
               id="path2511"
               d="M 1106.5509,186.5944 C 1116.6282,160.52144 1076.9939,151.64961 1052.9256,145.32142 C 1038.0301,135.92905 1029.1819,137.64391 1019.7364,148.37614 C 1007.276,140.09244 992.247,136.3193 979.78654,134.82238"
               style="fill:none;fill-opacity:0.75000000000000000;fill-rule:evenodd;stroke:#000000;stroke-width:4.85510647;stroke-linecap:round;stroke-linejoin:miter;stroke-miterlimit:4;stroke-dasharray:none;stroke-opacity:1" />
            <path
               sodipodi:nodetypes="cccc"
               id="path2513"
               d="M 1052.5862,146.73412 C 1042.6017,158.69185 1029.509,158.20651 1018.6779,147.58188 C 1030.4509,161.84518 1032.8188,181.79537 1008.6837,191.53225 C 998.32646,198.6294 992.46971,210.55482 984.23657,214.37564"
               style="fill:none;fill-opacity:0.75000000000000000;fill-rule:evenodd;stroke:#000000;stroke-width:4.85510647;stroke-linecap:round;stroke-linejoin:miter;stroke-miterlimit:4;stroke-dasharray:none;stroke-opacity:1" />
            <path
               sodipodi:nodetypes="cc"
               id="path2515"
               d="M 1014.5719,143.65188 C 1025.2705,128.55419 1052.0113,132.75787 1063.8878,144.67929"
               style="fill:none;fill-opacity:0.75000000000000000;fill-rule:evenodd;stroke:#000000;stroke-width:4.85510647;stroke-linecap:round;stroke-linejoin:miter;stroke-miterlimit:4;stroke-dasharray:none;stroke-opacity:1" />
          </g>
          <path
             style="fill:none;fill-opacity:0.75000000000000000;fill-rule:evenodd;stroke:#000000;stroke-width:4.85510647;stroke-linecap:round;stroke-linejoin:miter;stroke-miterlimit:4;stroke-dasharray:none;stroke-opacity:1"
             d="M 395.1546,150.93182 C 402.79081,146.84683 409.10625,142.10146 401.47708,133.2289"
             id="path2543"
             sodipodi:nodetypes="cc" />
          <path
             sodipodi:nodetypes="cc"
             id="path2545"
             d="M 412.85753,150.29957 C 420.49374,146.21458 426.80918,141.46921 419.18001,132.59665"
             style="fill:none;fill-opacity:0.75000000000000000;fill-rule:evenodd;stroke:#000000;stroke-width:4.85510647;stroke-linecap:round;stroke-linejoin:miter;stroke-miterlimit:4;stroke-dasharray:none;stroke-opacity:1" />
          <path
             style="fill:none;fill-opacity:0.75000000000000000;fill-rule:evenodd;stroke:#000000;stroke-width:4.85510647;stroke-linecap:round;stroke-linejoin:miter;stroke-miterlimit:4;stroke-dasharray:none;stroke-opacity:1"
             d="M 431.20257,147.73055 C 438.1987,142.62632 443.79525,137.05121 435.00966,129.32204"
             id="path2547"
             sodipodi:nodetypes="cc" />
          <path
             sodipodi:nodetypes="cc"
             id="path2549"
             d="M 449.96437,143.22354 C 457.07042,138.27351 462.78754,132.82209 454.17305,124.90268"
             style="fill:none;fill-opacity:0.75000000000000000;fill-rule:evenodd;stroke:#000000;stroke-width:4.85510647;stroke-linecap:round;stroke-linejoin:miter;stroke-miterlimit:4;stroke-dasharray:none;stroke-opacity:1" />
          <path
             style="fill:none;fill-opacity:0.75000000000000000;fill-rule:evenodd;stroke:#000000;stroke-width:4.85510647;stroke-linecap:round;stroke-linejoin:miter;stroke-miterlimit:4;stroke-dasharray:none;stroke-opacity:1"
             d="M 467.99321,136.97182 C 473.3748,130.18674 477.28193,123.32106 466.75332,118.2147"
             id="path2551"
             sodipodi:nodetypes="cc" />
          <path
             style="fill:none;fill-opacity:0.75000000000000000;fill-rule:evenodd;stroke:#000000;stroke-width:4.85510647;stroke-linecap:round;stroke-linejoin:miter;stroke-miterlimit:4;stroke-dasharray:none;stroke-opacity:1"
             d="M 397.89434,154.56054 C 382.83597,153.81141 369.84869,155.56127 353.13122,152.75193"
             id="path2553"
             sodipodi:nodetypes="cc" />
          <path
             sodipodi:nodetypes="cc"
             id="path2555"
             d="M 327.78385,143.24522 C 336.32437,132.37794 338.57043,124.46751 321.44606,116.0471"
             style="fill:none;fill-opacity:0.75000000000000000;fill-rule:evenodd;stroke:#000000;stroke-width:4.85510647;stroke-linecap:round;stroke-linejoin:miter;stroke-miterlimit:4;stroke-dasharray:none;stroke-opacity:1" />
          <path
             sodipodi:nodetypes="cc"
             id="path2557"
             d="M 365.76468,119.73329 C 373.40089,115.6483 379.71633,110.90293 372.08716,102.03037"
             style="fill:none;fill-opacity:0.75000000000000000;fill-rule:evenodd;stroke:#000000;stroke-width:4.85510647;stroke-linecap:round;stroke-linejoin:miter;stroke-miterlimit:4;stroke-dasharray:none;stroke-opacity:1" />
          <path
             style="fill:none;fill-opacity:0.75000000000000000;fill-rule:evenodd;stroke:#000000;stroke-width:4.85510647;stroke-linecap:round;stroke-linejoin:miter;stroke-miterlimit:4;stroke-dasharray:none;stroke-opacity:1"
             d="M 383.46761,119.10104 C 391.10382,115.01605 397.41926,110.27068 389.79009,101.39812"
             id="path2559"
             sodipodi:nodetypes="cc" />
          <path
             sodipodi:nodetypes="cc"
             id="path2561"
             d="M 401.81265,116.53202 C 408.80878,111.42779 414.40533,105.85268 405.61974,98.123507"
             style="fill:none;fill-opacity:0.75000000000000000;fill-rule:evenodd;stroke:#000000;stroke-width:4.85510647;stroke-linecap:round;stroke-linejoin:miter;stroke-miterlimit:4;stroke-dasharray:none;stroke-opacity:1" />
          <path
             style="fill:none;fill-opacity:0.75000000000000000;fill-rule:evenodd;stroke:#000000;stroke-width:4.85510647;stroke-linecap:round;stroke-linejoin:miter;stroke-miterlimit:4;stroke-dasharray:none;stroke-opacity:1"
             d="M 420.57445,112.02501 C 427.6805,107.07498 433.39762,101.62356 424.78313,93.704147"
             id="path2563"
             sodipodi:nodetypes="cc" />
          <path
             sodipodi:nodetypes="cc"
             id="path2565"
             d="M 438.60329,105.77329 C 443.98488,98.988207 447.89201,92.122527 437.3634,87.016167"
             style="fill:none;fill-opacity:0.75000000000000000;fill-rule:evenodd;stroke:#000000;stroke-width:4.85510647;stroke-linecap:round;stroke-linejoin:miter;stroke-miterlimit:4;stroke-dasharray:none;stroke-opacity:1" />
          <path
             style="fill:none;fill-opacity:0.75000000000000000;fill-rule:evenodd;stroke:#000000;stroke-width:4.85510647;stroke-linecap:round;stroke-linejoin:miter;stroke-miterlimit:4;stroke-dasharray:none;stroke-opacity:1"
             d="M 197.0426,515.87185 C 214.25384,520.79282 217.98226,522.0488 235.43694,520.21838"
             id="path2567"
             sodipodi:nodetypes="cc" />
        </g>
        <g
           transform="translate(-1499.1952,75.01071)"
           id="g2655"
           style="stroke:#000000;stroke-opacity:1;stroke-width:4.85510647;stroke-miterlimit:4;stroke-dasharray:none">
          <g
             id="g2668"
             style="stroke:#000000;stroke-opacity:1;stroke-width:4.85510647;stroke-miterlimit:4;stroke-dasharray:none">
            <path
               id="path2631"
               d="M 1280.9731,514.90748 L 1286.9346,547.69562"
               style="fill:none;fill-opacity:0.75000000000000000;fill-rule:evenodd;stroke:#000000;stroke-width:4.85510647;stroke-linecap:round;stroke-linejoin:miter;stroke-miterlimit:4;stroke-dasharray:none;stroke-opacity:1"
               sodipodi:nodetypes="cc" />
            <path
               id="path2633"
               d="M 1252.6561,549.93117 L 1279.4827,564.08969"
               style="fill:none;fill-opacity:0.75000000000000000;fill-rule:evenodd;stroke:#000000;stroke-width:4.85510647;stroke-linecap:round;stroke-linejoin:miter;stroke-miterlimit:4;stroke-dasharray:none;stroke-opacity:1" />
            <path
               id="path2635"
               d="M 1259.3627,584.95487 L 1289.9153,586.44524"
               style="fill:none;fill-opacity:0.75000000000000000;fill-rule:evenodd;stroke:#000000;stroke-width:4.85510647;stroke-linecap:round;stroke-linejoin:miter;stroke-miterlimit:4;stroke-dasharray:none;stroke-opacity:1" />
            <path
               id="path2637"
               d="M 1279.4827,608.05561 L 1304.0738,597.62302"
               style="fill:none;fill-opacity:0.75000000000000000;fill-rule:evenodd;stroke:#000000;stroke-width:4.85510647;stroke-linecap:round;stroke-linejoin:miter;stroke-miterlimit:4;stroke-dasharray:none;stroke-opacity:1" />
            <path
               id="path2639"
               d="M 1313.7612,616.25264 L 1331.6457,593.15191"
               style="fill:none;fill-opacity:0.75000000000000000;fill-rule:evenodd;stroke:#000000;stroke-width:4.85510647;stroke-linecap:round;stroke-linejoin:miter;stroke-miterlimit:4;stroke-dasharray:none;stroke-opacity:1"
               sodipodi:nodetypes="cc" />
            <path
               id="path2641"
               d="M 1341.3331,606.56524 L 1346.5493,580.48375"
               style="fill:none;fill-opacity:0.75000000000000000;fill-rule:evenodd;stroke:#000000;stroke-width:4.85510647;stroke-linecap:round;stroke-linejoin:miter;stroke-miterlimit:4;stroke-dasharray:none;stroke-opacity:1"
               sodipodi:nodetypes="cc" />
            <path
               id="path2645"
               d="M 1358.4723,562.59932 L 1362.1983,590.17117"
               style="fill:none;fill-opacity:0.75000000000000000;fill-rule:evenodd;stroke:#000000;stroke-width:4.85510647;stroke-linecap:round;stroke-linejoin:miter;stroke-miterlimit:4;stroke-dasharray:none;stroke-opacity:1"
               sodipodi:nodetypes="cc" />
            <path
               id="path2647"
               d="M 1356.2368,546.95043 L 1376.3568,565.58006"
               style="fill:none;fill-opacity:0.75000000000000000;fill-rule:evenodd;stroke:#000000;stroke-width:4.85510647;stroke-linecap:round;stroke-linejoin:miter;stroke-miterlimit:4;stroke-dasharray:none;stroke-opacity:1"
               sodipodi:nodetypes="cc" />
            <path
               id="path2649"
               d="M 1354.7464,531.30154 L 1379.3375,544.71488"
               style="fill:none;fill-opacity:0.75000000000000000;fill-rule:evenodd;stroke:#000000;stroke-width:4.85510647;stroke-linecap:round;stroke-linejoin:miter;stroke-miterlimit:4;stroke-dasharray:none;stroke-opacity:1"
               sodipodi:nodetypes="cc" />
            <path
               id="path2651"
               d="M 1332.3909,513.41711 L 1364.4338,511.18155"
               style="fill:none;fill-opacity:0.75000000000000000;fill-rule:evenodd;stroke:#000000;stroke-width:4.85510647;stroke-linecap:round;stroke-linejoin:miter;stroke-miterlimit:4;stroke-dasharray:none;stroke-opacity:1"
               sodipodi:nodetypes="cc" />
            <path
               id="path2653"
               d="M 1315.9968,488.08081 L 1304.0738,522.35933"
               style="fill:#000000;fill-opacity:1;fill-rule:evenodd;stroke:#000000;stroke-width:4.85510647;stroke-linecap:round;stroke-linejoin:miter;stroke-miterlimit:4;stroke-dasharray:none;stroke-opacity:1"
               sodipodi:nodetypes="cc" />
          </g>
        </g>
      </g>
      <path
         style="fill:#403e32;fill-opacity:0.75000000000000000;fill-rule:evenodd;stroke:#000000;stroke-width:3;stroke-linecap:round;stroke-linejoin:round;stroke-miterlimit:4;stroke-dasharray:none;stroke-opacity:1"
         d="M -724.92747,343.81569 C -720.21335,343.24308 -765.85652,361.14148 -786.32104,369.80437 C -765.85652,361.14148 -725.66595,343.12837 -724.92747,343.81569 z"
         id="path8182"
         sodipodi:nodetypes="ccc" />
      <path
         style="fill:none;fill-opacity:0.75000000000000000;fill-rule:evenodd;stroke:#000000;stroke-width:3;stroke-linecap:round;stroke-linejoin:round;stroke-miterlimit:4;stroke-dasharray:none;stroke-opacity:1"
         d="M -719.68129,397.50054 C -714.19765,383.38111 -700.72324,369.03597 -691.17486,354.80173"
         id="path8184"
         sodipodi:nodetypes="cc" />
      <path
         style="fill:none;fill-opacity:0.75000000000000000;fill-rule:evenodd;stroke:#000000;stroke-width:3;stroke-linecap:round;stroke-linejoin:round;stroke-miterlimit:4;stroke-dasharray:none;stroke-opacity:1"
         d="M -737.37195,319.5311 C -735.03655,319.79551 -770.83933,300.7822 -787.54131,291.27885 C -770.81819,300.69627 -738.25761,321.18659 -737.37195,319.5311 z"
         id="path8186"
         sodipodi:nodetypes="ccc"
         inkscape:transform-center-y="-4.4269019"
         inkscape:transform-center-x="-22.492416" />
      <path
         style="fill:none;fill-opacity:0.75000000000000000;fill-rule:evenodd;stroke:#000000;stroke-width:3;stroke-linecap:round;stroke-linejoin:round;stroke-miterlimit:4;stroke-dasharray:none;stroke-opacity:1"
         d="M -743.17056,252.89619 C -735.49914,270.27046 -730.15111,292.61389 -714.24529,305.56353"
         id="path8188"
         sodipodi:nodetypes="cc" />
      <path
         style="fill:none;fill-opacity:0.75000000000000000;fill-rule:evenodd;stroke:#000000;stroke-width:3;stroke-linecap:round;stroke-linejoin:round;stroke-miterlimit:4;stroke-dasharray:none;stroke-opacity:1"
         d="M -733.03221,333.91928 C -730.69144,333.34091 -775.51713,333.24331 -796.80697,332.81812 C -775.54873,333.18516 -732.87063,335.1907 -733.03221,333.91928 z"
         id="path8190"
         sodipodi:nodetypes="ccc" />
    </g>
  </g>
  <g
     inkscape:groupmode="layer"
     id="layer4"
     inkscape:label="Meubles"
     sodipodi:insensitive="true" />
  <g
     inkscape:groupmode="layer"
     id="layer2"
     inkscape:label="Reflet final"
     sodipodi:insensitive="true">
    <path
       sodipodi:nodetypes="cccccc"
       d="M 297.75514,656.25521 C 297.75514,656.25521 596.25514,543.9349 596.25514,258.48339 C 596.25514,-26.968116 596.25514,-0.068295536 596.25514,-0.068295536 L -0.74478137,-0.068295536 L -0.74478137,258.48339 C -0.74478137,543.9349 297.75514,656.25521 297.75514,656.25521 z"
       style="opacity:1;fill:url(#radialGradient3163);fill-opacity:1;fill-rule:evenodd;stroke:none;stroke-width:1px;stroke-linecap:butt;stroke-linejoin:miter;stroke-opacity:1"
       id="path2875"
       inkscape:export-xdpi="144"
       inkscape:export-ydpi="144" />
  </g>
  <g
     inkscape:groupmode="layer"
     id="layer1"
     inkscape:label="Contour final"
     sodipodi:insensitive="true">
    <path
       sodipodi:nodetypes="cccccc"
       d="M 299.99999,658.50028 C 299.99999,658.50028 1.5,546.17992 1.5,260.72828 C 1.5,-24.723336 1.5,2.1764957 1.5,2.1764957 L 598.49999,2.1764957 L 598.49999,260.72828 C 598.49999,546.17992 299.99999,658.50028 299.99999,658.50028 z "
       style="opacity:1;fill:none;fill-opacity:1;fill-rule:evenodd;stroke:#000000;stroke-width:3.00000048;stroke-linecap:butt;stroke-linejoin:miter;stroke-miterlimit:4;stroke-dasharray:none;stroke-opacity:1"
       id="path1411"
       inkscape:export-xdpi="144"
       inkscape:export-ydpi="144" />
  </g>
</svg>
