<?xml version="1.0" encoding="UTF-8" standalone="no"?>
<svg
   xmlns:dc="http://purl.org/dc/elements/1.1/"
   xmlns:cc="http://creativecommons.org/ns#"
   xmlns:rdf="http://www.w3.org/1999/02/22-rdf-syntax-ns#"
   xmlns:svg="http://www.w3.org/2000/svg"
   xmlns="http://www.w3.org/2000/svg"
   xmlns:xlink="http://www.w3.org/1999/xlink"
   id="svg2"
   version="1.0"
   width="600"
   height="660">
  <metadata
     id="metadata49">
    <rdf:RDF>
      <cc:Work
         rdf:about="">
        <dc:format>image/svg+xml</dc:format>
        <dc:type
           rdf:resource="http://purl.org/dc/dcmitype/StillImage" />
        <dc:title></dc:title>
        <dc:date>03-AUG-2006</dc:date>
        <dc:creator>
          <cc:Agent>
            <dc:title>Jérôme BLUM (wagner51)</dc:title>
          </cc:Agent>
        </dc:creator>
        <cc:license
           rdf:resource="http://web.resource.org/cc/PublicDomain" />
        <dc:language>fr</dc:language>
        <dc:subject>
          <rdf:Bag>
            <rdf:li>gabarit modèle blason projet wikipédia</rdf:li>
          </rdf:Bag>
        </dc:subject>
      </cc:Work>
      <cc:License
         rdf:about="http://web.resource.org/cc/PublicDomain">
        <cc:permits
           rdf:resource="http://web.resource.org/cc/Reproduction" />
        <cc:permits
           rdf:resource="http://web.resource.org/cc/Distribution" />
        <cc:permits
           rdf:resource="http://web.resource.org/cc/DerivativeWorks" />
      </cc:License>
    </rdf:RDF>
  </metadata>
  <desc
     id="desc4">Flag of Canton of Valais (Wallis)</desc>
  <defs
     id="defs6">
    <linearGradient
       id="linearGradient2893">
      <stop
         id="stop2895"
         offset="0"
         style="stop-color:white;stop-opacity:0.3137255;" />
      <stop
         style="stop-color:white;stop-opacity:0.25098041;"
         offset="0.19"
         id="stop2897" />
      <stop
         id="stop2901"
         offset="0.60000002"
         style="stop-color:#6b6b6b;stop-opacity:0.1254902;" />
      <stop
         id="stop2899"
         offset="1"
         style="stop-color:black;stop-opacity:0.1254902;" />
    </linearGradient>
    <radialGradient
       r="300"
       fy="226.33101"
       fx="221.44487"
       cy="226.33101"
       cx="221.44487"
       gradientTransform="matrix(1.353218,0,0,1.348928,-77.62935,-85.74693)"
       gradientUnits="userSpaceOnUse"
       id="radialGradient3163"
       xlink:href="#linearGradient2893" />
    <clipPath
       id="clipPath4955"
       clipPathUnits="userSpaceOnUse">
      <path
         d="m 299.99999,658.50028 c 0,0 -298.49999,-112.32036 -298.49999,-397.772 0,-285.451616 0,-258.5517843 0,-258.5517843 H 598.49999 V 260.72828 c 0,285.45164 -298.5,397.772 -298.5,397.772 z"
         style="opacity:1;fill:none;fill-opacity:1;fill-rule:evenodd;stroke:#000000;stroke-width:3.00000048;stroke-linecap:butt;stroke-linejoin:miter;stroke-miterlimit:4;stroke-dasharray:none;stroke-opacity:1"
         id="path4957" />
    </clipPath>
  </defs>
  <g
     style="display:inline"
     id="layer3">
    <path
       d="m 300,658.5 c 0,0 298.50001,-112.32031 298.50001,-397.77183 0,-285.451524 0,-258.5516935 0,-258.5516935 H 1.5 V 260.72817 C 1.5,546.17969 300,658.5 300,658.5 Z"
       style="fill:#fcef3c;fill-opacity:1;fill-rule:evenodd;stroke:none;stroke-width:1px;stroke-linecap:butt;stroke-linejoin:miter;stroke-opacity:1"
       id="path2855" />
    <path
       clip-path="url(#clipPath4955)"
       d="M 299.34985,656.27206 C 433.38115,648.11481 719.37741,325.05098 595.32447,309.81378 H 4.4976205 C -3.4075018,419.30495 116.87968,657.31004 299.34985,656.27206 Z"
       style="display:inline;fill:#2b5df2;fill-opacity:1;fill-rule:evenodd;stroke:#000000;stroke-width:3;stroke-linecap:butt;stroke-linejoin:miter;stroke-miterlimit:4;stroke-dasharray:none;stroke-opacity:1"
       id="path11795" />
    <g
       style="stroke:#000000;stroke-width:3;stroke-miterlimit:4;stroke-dasharray:none;stroke-opacity:1"
       transform="translate(643.95987,17.525689)"
       id="g4949">
      <g
         style="stroke:#000000;stroke-width:3;stroke-miterlimit:4;stroke-dasharray:none;stroke-opacity:1"
         id="layer4-2">
        <g
           style="stroke:#000000;stroke-width:1.99963009;stroke-miterlimit:4;stroke-dasharray:none;stroke-opacity:1"
           transform="matrix(1.5002775,0,0,1.5002775,-785.63181,-251.18316)"
           id="g3700">
          <path
             d="m 172.96489,395.77717 c 3.13174,1.09273 5.93455,1.90243 7.29706,4.11674 2.91372,-1.08712 2.98935,-2.48268 1.83752,-4.73514 -3.06998,-0.37336 -6.1436,-0.14911 -9.13458,0.6184 z m -13.51636,14.34677 c 2.48952,0.37416 4.90447,-1.35645 7.56209,1.7315 2.62251,-1.16655 3.16528,-2.21173 1.89053,-5.22985 -3.57901,-0.19858 -6.63431,1.50756 -9.45262,3.49835 z m 9.36427,12.63293 c -4.19528,1.48155 -5.61091,4.73765 -7.13804,7.91546 2.41218,-1.40028 4.87996,-3.45206 7.0497,-1.94353 2.05936,-1.74127 1.94657,-4.32055 0.0883,-5.97193 z m 27.52743,12.3679 c 0.41681,5.28868 -1.10644,7.24904 -1.89053,10.47738 2.57823,-1.41232 4.89454,-3.2949 6.14862,-6.97903 -0.98017,-4.61594 -2.79872,-2.69294 -4.25809,-3.49835 z m 17.19138,10.12402 c 1.87778,2.95494 3.76717,4.03336 6.09561,6.94369 -0.57654,-3.1925 -3.70128,-4.50551 -2.24389,-7.42074 -1.59533,-1.04769 -2.58081,-0.84986 -3.85172,0.47705 z m 94.68514,43.0403 c -3.10406,1.67875 -5.62586,3.64741 -9.69997,4.84115 0.43427,1.13663 -0.47117,2.84817 1.89799,3.50109 4.23067,-0.78625 5.6443,-4.96477 7.80198,-8.34224 z m -58.16149,27.02972 c 1.98327,-0.11999 6.04716,-3.17091 9.71464,-4.29044 0.89321,-1.15402 -0.53007,-2.76291 -1.43114,-4.27576 -4.93911,0.51346 -7.1817,4.92374 -8.2835,8.5662 z m 57.68444,-4.57314 c -2.22218,2.02577 -1.57283,2.65647 -1.64689,3.96619 l 7.43841,1.71384 c -0.87594,-2.82223 -1.86977,-4.38069 -5.79152,-5.68003 z m -58.052,14.63295 c -2.26422,2.81553 -4.0677,5.18212 -1.14845,10.56572 2.45263,-4.46618 1.43379,-5.87365 5.09971,-7.63624 -0.23555,-2.5249 -1.83072,-2.28956 -3.95126,-2.92948 z m 12.24223,7.10097 c -4.83801,3.74666 -1.79911,5.98896 -2.58407,9.39786 1.49842,-3.20112 3.58713,-5.17521 8.12748,-6.85535 -1.10334,-2.19456 -2.68598,-1.65721 -5.54341,-2.54251 z"
             style="fill:#e20909;fill-rule:evenodd;stroke:#000000;stroke-width:1.99963009;stroke-linecap:round;stroke-linejoin:round;stroke-miterlimit:4;stroke-dasharray:none;stroke-opacity:1"
             id="path2424" />
          <path
             d="m 240.35136,430.36054 11.70816,1.42783 13.70712,6.85356 c -5.0773,7.07122 -8.237,15.35237 -13.42155,15.42051 -4.76933,0.66607 -7.50128,-2.72074 -10.04113,-4.64697 -10.55553,-8.0053 -13.59193,-11.37736 -24.22668,-14.77145 -0.42072,3.00789 -0.82312,4.93764 -0.91384,7.1492 1.05086,1.08643 0.19646,1.92337 0.0571,2.84557 -1.52739,0.39069 -1.80984,1.10711 -3.71234,0.14279 -1.69902,-0.99699 -1.43325,-2.32669 -0.90691,-3.63174 1.07096,-2.65542 -0.0214,-5.26992 0.39195,-8.84949 -4.54342,-3.64648 -4.08418,-2.29567 -8.24797,-2.14594 1.07423,3.50307 -2.06382,5.13387 -3.51637,7.77361 -1.66579,0.54186 -3.33159,0.69118 -4.99739,-0.71392 -0.63649,-4.2401 0.12526,-2.63165 2.23343,-9.11568 -4.87522,-0.70906 -13.59991,-0.57284 -18.05986,-3.45573 -2.01782,1.05849 -4.41704,2.30583 -6.74328,3.05054 -1.31614,1.7578 -2.60893,1.45447 -3.79606,0.65611 -1.86364,-1.60168 -1.80011,-3.39608 -1.94401,-5.16975 1.26837,-1.02914 2.4414,-1.41151 3.58218,-0.89427 2.52365,1.14425 4.40397,-1.99087 5.7881,-4.04467 3.63935,1.26219 10.37126,3.88035 14.58253,1.79056 -3.95625,-2.03348 -9.97177,-4.268 -12.74633,-7.21341 -3.13225,0.592 -6.58171,2.18769 -11.02485,-0.59063 -0.26626,-1.87251 -1.15808,-3.74502 0.58845,-5.61752 4.74406,-1.86772 6.4638,1.40813 8.88373,1.4931 5.11222,1.15597 9.75558,2.02229 14.80084,5.98059 -1.8038,-2.83226 -3.79494,-6.56958 -3.66769,-8.12802 -1.95299,-0.70521 -3.79142,-2.49348 -5.98675,-4.41924 -1.82148,-0.38228 -2.21973,-0.98445 -2.62485,-2.15934 -0.20624,-1.9117 0.63425,-3.30003 2.57009,-4.14069 1.627,0.45229 2.49759,1.35422 2.33066,2.93793 2.67185,0.15017 3.39741,0.0178 7.81341,4.17378 2.35083,3.81493 3.97676,6.1135 5.14083,11.06051 8.40886,9.30268 21.07759,13.40076 34.2678,16.56277 4.36329,3.93031 8.30958,7.0559 8.13143,0.3895 z"
             style="fill:#e20909;fill-rule:evenodd;stroke:#000000;stroke-width:1.99963009;stroke-linecap:round;stroke-linejoin:round;stroke-miterlimit:4;stroke-dasharray:none;stroke-opacity:1"
             id="path2426" />
          <path
             d="m 285.7562,449.63618 8.42416,8.56695 c -2.51139,11.66058 -3.19957,23.32114 -2.28452,34.98172 1.18434,0.26321 2.76366,1.11781 3.64547,0.23496 1.20994,-1.21138 2.27827,-0.92202 3.35131,-0.61047 1.7599,1.29293 1.4516,2.79267 1.51251,4.2555 -0.76175,1.41928 -2.01194,2.06685 -3.74809,1.97625 -1.67241,-0.0873 -3.32586,0.9891 -5.33232,1.1401 0.29731,2.42731 0.0242,4.8546 2.85564,7.28191 3.43212,1.29183 5.98147,1.35943 8.25211,0.85527 2.13811,-0.47474 3.89362,0.0871 5.88337,2.57151 -0.28671,1.52301 -0.52863,3.04603 -1.85618,4.56904 -1.32079,0.39107 -2.726,0.23334 -4.2253,-0.49796 -2.20407,-1.07507 -4.89339,-0.0745 -7.34008,0.49796 l -6.85356,5.14017 h -5.14017 c -3.05773,5.94454 -10.95476,6.52297 -10.85147,13.56434 -1.78621,0.60773 -3.65915,1.99611 -5.28296,1.14226 -3.45625,-0.24703 -3.90075,-1.99994 -4.99739,-3.42678 1.70681,-1.14943 1.81259,-3.20689 5.23804,-3.79297 5.34416,-0.91435 5.83747,-9.18641 11.6103,-11.77032 -6.04924,3.3079 -11.98039,6.02534 -17.27668,5.56852 -2.36662,2.66497 -2.10186,6.86491 -8.56695,7.13912 -5.73444,-0.82306 -4.5805,-7.65979 0.43393,-8.2443 1.67928,-2.02822 3.2332,-4.30717 5.42015,-5.32004 5.21382,-0.52979 9.96735,-2.21031 14.84938,-3.56956 l -5.42574,-2.85566 c -1.50956,1.1672 -3.92864,0.0824 -5.00876,1.38621 -1.59423,1.92436 -3.59525,2.13915 -5.09782,1.57199 -2.48274,-3.18596 -1.53475,-7.47409 2.8517,-7.52257 1.83682,0.14721 5.12216,-1.6171 6.68376,-2.28919 4.23012,1.77671 8.27408,5.60124 12.85042,3.56957 0.26139,-11.27591 1.66877,-22.36083 -0.14278,-33.98224 -0.5898,-0.81202 -1.15186,-1.62404 -1.68549,-2.43605 -0.84257,-1.28213 -1.61427,-2.56426 -2.31242,-3.84638 l -1.42782,-12.2793 z"
             style="fill:#e20909;fill-rule:evenodd;stroke:#000000;stroke-width:1.99963009;stroke-linecap:round;stroke-linejoin:round;stroke-miterlimit:4;stroke-dasharray:none;stroke-opacity:1"
             id="path2428" />
          <path
             d="m 240.26511,411.26269 c -0.41464,6.17522 -3.81313,12.95529 -0.75005,19.45028 3.90538,1.19635 7.81076,2.40557 11.71614,1.63195 3.90403,8.53669 8.73824,7.77165 13.11343,11.59681 l 4.77871,-12.8193"
             style="fill:#e20909;fill-opacity:0.94117647;fill-rule:evenodd;stroke:#000000;stroke-width:1.99963009;stroke-linecap:round;stroke-linejoin:round;stroke-miterlimit:4;stroke-dasharray:none;stroke-opacity:1"
             id="path2430" />
          <path
             d="m 272.64173,335.78829 c 20.65807,6.1365 44.74099,20.20143 53.38081,-1.48405 2.08488,1.05255 -3.17148,8.22281 7.04326,2.5005 -2.24059,-33.33452 4.34544,-73.07404 43.04127,-74.42533 41.75656,-1.45817 66.63279,30.39503 71.12592,71.11078 -8.68967,-20.10726 -54.8941,-87.44403 -91.9508,-38.45657 36.72269,-40.84884 81.64282,10.36501 75.29361,29.34738 -8.7133,-19.95434 -31.3468,-33.03034 -43.68117,-31.74015 14.53278,-2.52769 33.01529,15.49896 37.93986,31.28299 3.47915,11.1512 10.615,22.25004 24.91328,29.19248 -9.90176,10.14763 -26.59089,-4.61442 -37.11165,-24.1974 -9.25989,-17.23609 -25.72554,-29.10203 -40.87871,-26.26236 18.76187,-1.42855 35.49632,11.46996 41.17381,29.87537 3.66344,11.87616 9.93956,26.79143 21.24476,39.85633 -5.95895,3.94176 -22.95404,-12.16294 -36.78049,-40.91856 -6.78273,-14.1064 -26.93522,-15.05216 -43.46842,-8.9098 52.99322,-13.78162 43.94223,29.79907 63.31954,52.08484 -5.81111,0.56878 -11.59976,-0.0483 -18.33613,-17.34807 -9.48219,-24.35127 -29.25265,-33.57265 -48.05639,-17.56912 18.37461,-11.32877 33.47279,-10.15932 44.65838,9.67882 4.15734,7.37322 0.43536,19.35523 11.65585,30.83022 -6.51228,1.08701 -11.17785,-4.60556 -20.26877,-22.79597 -6.48905,-12.98423 -21.88985,-15.16641 -36.65997,-6.13317 28.63372,-13.14533 36.53009,4.72068 42.92832,24.82707 -12.63818,-14.94451 -26.83059,-21.93387 -43.84316,-14.48844 22.35397,-7.83365 32.95241,4.36061 41.32063,20.35449 -13.88905,-11.54 -28.05439,-15.86418 -43.43268,-7.36113 24.08389,-5.31946 44.08728,4.32024 40.94034,29.64403 -6.29832,-20.70143 -26.44058,-16.90216 -42.49784,-20.33245 14.20862,3.216 28.95606,5.94321 27.79477,23.10144 -9.13758,-8.25365 -19.93594,-9.29297 -30.74167,-10.30027 20.63909,6.4089 33.82015,10.93124 31.22031,24.76913 -8.04368,-7.01782 -20.40688,-11.95718 -32.73579,-16.91305 14.29194,5.8204 28.76573,11.59092 21.90873,23.21162 -8.59129,-9.46466 -19.93728,-11.06494 -30.67965,-14.38847 7.89426,4.24856 19.78484,5.12401 16.83348,18.52685 -5.93657,-6.03495 -12.36479,-9.9342 -19.01366,-12.87502 3.90831,6.41249 10.56829,7.05403 11.65416,19.38579 L 320.4417,424.73915 Z"
             style="fill:#e20909;fill-rule:evenodd;stroke:#000000;stroke-width:1.99963009;stroke-linecap:round;stroke-linejoin:round;stroke-miterlimit:4;stroke-dasharray:none;stroke-opacity:1"
             id="path2432" />
          <path
             d="m 240.13394,211.28662 -2.82501,-4.38004 c 2.54729,-11.19246 8.97142,-11.24484 15.05267,-12.28248 -3.76272,3.45186 -2.34762,5.04252 -2.14538,7.06916 15.28353,-11.3288 19.03993,-4.05802 25.56977,-1.26233 -4.66399,-0.37127 -9.04749,-0.1596 -10.59125,5.95369 7.25735,1.66944 13.42621,-1.67989 19.9991,-3.16633 -1.71175,1.78547 -3.82022,3.32879 -4.07564,6.00317 7.86523,2.18631 13.53186,0.17375 19.90215,-0.49497 -4.7591,4.55503 -10.882,8.16342 -20.66936,9.22823 16.92095,-2.05782 25.42863,1.72354 28.41325,9.33817 -12.73292,-3.13008 -16.50786,6.67519 -36.51145,2.88762 z"
             style="fill:#d40000;fill-rule:evenodd;stroke:#000000;stroke-width:1.99963009;stroke-linecap:round;stroke-linejoin:round;stroke-miterlimit:4;stroke-dasharray:none;stroke-opacity:1"
             id="path2434" />
          <path
             d="m 295.95577,345.25778 c 21.07644,6.4704 25.07107,-6.27103 35.52436,-11.74842 -6.56609,7.80729 -0.9741,16.32123 -25.82229,23.06594 12.23342,-0.67424 24.87226,-15.38909 37.35812,-24.80584 -8.41602,11.26047 -11.26974,25.74097 -32.06864,29.83296 13.84008,-2.78792 23.58722,-10.42496 33.89464,-17.39821 -3.75971,12.45995 -12.84555,20.80839 -33.14383,20.50139 11.99502,0.90974 23.99245,1.7608 36.23518,-3.37984 -3.61376,9.51165 -16.5371,12.21906 -36.53142,9.75838 12.04623,2.50678 24.05453,5.25641 36.90192,2.63434 -6.90737,9.02827 -26.1588,4.97838 -43.9411,2.48499 13.84686,2.64758 27.23395,7.29236 42.01921,5.8636 -5.08424,5.99633 -20.42712,3.98326 -35.14406,2.45887 10.71628,2.0523 21.27566,4.26747 33.47842,4.77658 -8.7965,3.57984 -19.85482,3.54507 -31.18399,3.07748 9.44769,2.23917 18.86911,4.59245 28.89772,4.30813 -5.2453,2.51337 -12.55967,3.54631 -21.83038,3.17948 8.3052,0.83744 15.61205,2.6172 21.92055,5.33926 -4.32254,0.69441 -7.96969,1.70461 -17.03749,0.18036 4.80202,1.60035 9.49983,3.2659 13.40182,5.42944 -4.23429,2.14915 -8.29004,4.45371 -17.27172,2.47071 l -19.89258,-15.42164 z"
             style="fill:#e20909;fill-opacity:1;fill-rule:evenodd;stroke:#000000;stroke-width:1.99963009;stroke-linecap:round;stroke-linejoin:round;stroke-miterlimit:4;stroke-dasharray:none;stroke-opacity:1"
             id="path2436" />
          <path
             d="m 240.27056,212.0433 c 7.477,-1.3738 16.53737,1.64872 23.86143,7.32233 11.44772,8.86801 14.29619,19.32575 17.10107,28.8518 l -2.28455,-0.45912 c 1.94881,8.59874 1.30882,18.79294 -0.77709,26.46921 -3.23256,11.89603 -22.46379,22.46716 -18.29575,32.67096 5.63948,15.27238 30.29137,15.44079 35.64398,30.58371 -2.51515,-1.25536 -4.88174,-3.40213 -7.87114,-1.81197 4.86685,3.93189 9.58494,6.31066 14.74856,13.3411 -5.71632,-3.48802 -11.46932,-6.79271 -17.68176,-7.80015 12.53568,6.72623 25.6622,13.28203 27.86056,22.99016 -9.34629,-5.87758 -18.69258,-13.20274 -28.03887,-16.81502 13.78806,10.29211 30.33604,19.18758 37.15875,33.0045 L 275.641,353.62666 c 20.77316,13.76104 45.26078,28.37715 48.02831,37.9932 l -45.14589,-25.31168 c 25.75964,15.79165 46.50666,30.97184 51.96676,44.28721 l -57.28957,-35.56664 c 31.76805,21.42294 57.68384,32.29982 65.10992,55.60109 L 275.17416,386.2578 c 46.56926,34.74206 60.5583,46.8759 62.81091,58.38715 L 273.06211,399.0328 c 22.45319,21.09396 56.66412,34.58518 60.6025,60.77965 l -38.70184,-31.70206 c 2.08176,4.07081 6.04596,8.57496 1.18644,11.04786 -2.14591,4.28989 3.30087,6.11278 6.72451,8.59302 -8.227,2.13415 -14.47426,-4.33156 -19.3212,-16.88021 3.4517,7.37533 3.82421,13.49874 12.78654,23.66416 -3.27255,-2.45377 -8.79325,-5.55431 -12.659,-11.61684 3.88794,7.28385 7.92321,7.43588 10.9161,16.06231 -0.1132,9.10807 -3.16984,8.8952 -6.24132,8.63538 -4.75751,2.30149 -8.81358,4.01539 -14.49927,-0.0225 1.6754,-4.38112 -0.38652,-9.29613 -2.12648,-14.16516 -5.9699,-7.5491 -10.34762,-15.00078 -9.81929,-22.15226 -9.95709,-4.06805 -19.8512,-8.63992 -29.31014,-16.69325 -9.31146,-11.38462 -18.86048,-14.54214 -28.31355,-21.02238 -11.29375,-12.68392 -9.18554,-22.28265 -10.70277,-32.71597 -16.48981,-20.94227 -15.97224,-32.61032 -12.76692,-43.55145 3.58539,-12.2385 13.73995,-22.80687 25.04565,-33.18917 11.61228,-6.89155 20.17836,-16.59494 25.41093,-29.37534 l -2.06414,-10.8355 c 2.0314,-3.6075 3.45803,-8.1258 10.80433,-3.72897 -6.88542,-11.90517 -4.06856,-21.25524 0.71037,-30.0886"
             style="fill:#e20909;fill-opacity:1;fill-rule:evenodd;stroke:#000000;stroke-width:1.99963009;stroke-linecap:round;stroke-linejoin:round;stroke-miterlimit:4;stroke-dasharray:none;stroke-opacity:1"
             id="path2438" />
          <path
             d="m 214.34074,222.44247 c 11.22191,-1.93896 16.57289,4.19218 23.92013,12.4441 l -5.57914,3.35295 c 0.18529,-5.33236 -7.198,-10.58461 -18.34099,-15.79705 z"
             style="fill:#d40000;fill-rule:evenodd;stroke:#000000;stroke-width:1.99963009;stroke-linecap:round;stroke-linejoin:round;stroke-miterlimit:4;stroke-dasharray:none;stroke-opacity:1"
             id="path2440" />
          <path
             d="m 211.80575,285.00775 c 6.21484,2.06444 11.07345,1.06925 13.43875,-5.55083"
             style="fill:none;fill-rule:evenodd;stroke:#000000;stroke-width:1.99963009;stroke-linecap:round;stroke-linejoin:round;stroke-miterlimit:4;stroke-dasharray:none;stroke-opacity:1"
             id="path2442" />
          <path
             d="m 267.4379,368.61517 a 8.20749,7.9549523 0 1 1 -16.41498,0 8.20749,7.9549523 0 1 1 16.41498,0 z"
             transform="matrix(0.550979,0.1268383,-0.1268383,0.550979,149.24605,-15.415814)"
             style="fill:none;fill-opacity:1;stroke:#000000;stroke-width:3.53672719;stroke-linecap:round;stroke-linejoin:round;stroke-miterlimit:4;stroke-dasharray:none;stroke-opacity:1"
             id="path2444" />
          <path
             d="m 229.3837,245.38379 c -5.00443,7.60469 -9.76603,11.54997 -22.92271,14.17533 -7.15982,1.42871 -9.5001,9.22642 -7.68579,14.22112 1.53874,4.2361 1.39696,5.81333 7.57482,6.73146 0,0 -0.91109,5.25427 4.01701,7.68589 7.39843,3.65053 12.60026,-1.385 13.69981,-5.19588 2.81262,-9.74806 5.52191,-19.13764 15.95769,-22.13948"
             style="fill:#d40000;fill-rule:evenodd;stroke:#000000;stroke-width:1.99963009;stroke-linecap:round;stroke-linejoin:round;stroke-miterlimit:4;stroke-dasharray:none;stroke-opacity:1"
             id="path2446" />
          <path
             d="m 218.69803,397.90961 a 15.657365,15.026019 0 1 1 -31.31473,0 15.657365,15.026019 0 1 1 31.31473,0 z"
             transform="matrix(0.3314115,0.07629269,-0.07629269,0.3314115,208.02075,72.896706)"
             style="fill:#e20909;fill-opacity:1;stroke:#000000;stroke-width:5.87988758;stroke-linecap:round;stroke-linejoin:round;stroke-miterlimit:4;stroke-dasharray:none;stroke-opacity:1"
             id="path2448" />
          <path
             d="m 218.69803,397.90961 a 15.657365,15.026019 0 1 1 -31.31473,0 15.657365,15.026019 0 1 1 31.31473,0 z"
             transform="matrix(0.129768,0.02987327,-0.02987327,0.129768,229.38287,161.72164)"
             style="fill:#000000;fill-opacity:1;stroke:#000000;stroke-width:15.01651001;stroke-linecap:round;stroke-linejoin:round;stroke-miterlimit:4;stroke-dasharray:none;stroke-opacity:1"
             id="path2450" />
          <path
             d="m 213.16842,211.62338 c 13.14503,2.03178 19.31947,12.37322 23.58947,24.1846 -7.97011,-1.87424 -16.3762,-5.99161 -23.70739,-4.57847 0.5825,0.82197 1.03817,1.95929 1.99177,2.20235 6.82879,1.74053 11.95027,5.20688 13.7465,9.62564 3.53377,0.13409 7.55663,-0.99976 12.05936,-3.37759 -3.57446,-8.83188 -7.60988,-17.7843 0.39314,-25.25694 0.24592,-3.48492 -0.94891,-6.8327 -3.88906,-7.92811 -1.63972,-0.6109 -3.95298,1.29957 -3.37943,4.49666 -5.52251,-3.4815 -15.30988,-9.18432 -20.80436,0.63186 z"
             style="fill:#e20909;fill-rule:evenodd;stroke:#000000;stroke-width:1.99963009;stroke-linecap:round;stroke-linejoin:round;stroke-miterlimit:4;stroke-dasharray:none;stroke-opacity:1"
             id="path2452" />
          <path
             d="m 239.69173,318.5329 c 1.09581,7.3141 3.32598,14.9702 -6.15414,19.09567 -11.4089,3.72201 -16.84397,10.38408 -16.32055,19.97867 3.80163,31.64693 51.84192,47.39198 78.01281,70.99814"
             style="fill:none;fill-rule:evenodd;stroke:#000000;stroke-width:1.99963009;stroke-linecap:round;stroke-linejoin:round;stroke-miterlimit:4;stroke-dasharray:none;stroke-opacity:1"
             id="path2454" />
          <path
             d="m 205.34621,293.33737 c -19.83618,22.06058 -18.3481,28.37959 -16.05615,34.10518 0.92237,-7.69602 6.50216,-15.00189 13.97759,-19.77873 2.64085,-4.82187 5.28171,-8.89773 7.92257,-12.98113 -16.61279,25.77962 -11.41558,25.91339 -9.03492,35.42847 4.6474,-25.81587 12.5941,-28.95262 19.56573,-35.34849 -13.08832,16.57148 -9.30799,24.03697 -6.79067,29.49835 1.18621,-13.58081 7.88552,-30.38854 16.44256,-31.96499"
             style="fill:none;fill-rule:evenodd;stroke:#000000;stroke-width:1.99963009;stroke-linecap:round;stroke-linejoin:round;stroke-miterlimit:4;stroke-dasharray:none;stroke-opacity:1"
             id="path2456" />
          <path
             d="m 422.44327,306.24543 c -9.3828,-13.11086 -20.47499,-17.10112 -32.49157,-20.51974"
             style="fill:none;fill-rule:evenodd;stroke:#000000;stroke-width:1.99963009;stroke-linecap:round;stroke-linejoin:round;stroke-miterlimit:4;stroke-dasharray:none;stroke-opacity:1"
             id="path2458" />
          <path
             d="m 385.24898,297.24357 c 17.04417,3.27925 22.66912,10.75019 29.91293,21.53782 5.59718,10.80919 9.51151,17.21107 13.45405,23.0235 v 0"
             style="fill:none;fill-rule:evenodd;stroke:#000000;stroke-width:1.99963009;stroke-linecap:round;stroke-linejoin:round;stroke-miterlimit:4;stroke-dasharray:none;stroke-opacity:1"
             id="path2460" />
          <path
             d="m 354.76992,317.23958 c 32.69855,-20.11366 47.75579,4.129 59.98823,32.04578"
             style="fill:none;fill-rule:evenodd;stroke:#000000;stroke-width:1.99963009;stroke-linecap:round;stroke-linejoin:round;stroke-miterlimit:4;stroke-dasharray:none;stroke-opacity:1"
             id="path2462" />
          <path
             d="m 336.62754,349.43846 c 30.7094,-42.86724 57.51436,-21.16926 66.61049,5.86455"
             style="fill:none;fill-rule:evenodd;stroke:#000000;stroke-width:1.99963009;stroke-linecap:round;stroke-linejoin:round;stroke-miterlimit:4;stroke-dasharray:none;stroke-opacity:1"
             id="path2464" />
          <path
             d="m 340.41651,353.88117 c 8.55656,-7.68341 23.35544,-15.91157 31.65937,-14.6894 13.6637,2.80886 16.90793,11.25486 20.41916,19.49882"
             style="fill:none;fill-rule:evenodd;stroke:#000000;stroke-width:1.99963009;stroke-linecap:round;stroke-linejoin:round;stroke-miterlimit:4;stroke-dasharray:none;stroke-opacity:1"
             id="path2466" />
          <path
             d="m 340.56076,363.43799 c 1.9837,-4.84049 18.27204,-12.14215 28.22439,-11.06992 8.42127,2.01834 10.99183,6.35157 15.62163,10.9073"
             style="fill:none;fill-rule:evenodd;stroke:#000000;stroke-width:1.99963009;stroke-linecap:round;stroke-linejoin:round;stroke-miterlimit:4;stroke-dasharray:none;stroke-opacity:1"
             id="path2468" />
          <path
             d="m 339.83607,369.13184 c 14.13567,-6.26622 27.36604,-4.37437 34.70664,0.0777"
             style="fill:none;fill-rule:evenodd;stroke:#000000;stroke-width:1.99963009;stroke-linecap:round;stroke-linejoin:round;stroke-miterlimit:4;stroke-dasharray:none;stroke-opacity:1"
             id="path2470" />
          <path
             d="m 344.30579,382.17519 c 16.47822,-6.88564 26.03841,-3.12246 37.58866,6.0158"
             style="fill:none;fill-rule:evenodd;stroke:#000000;stroke-width:1.99963009;stroke-linecap:round;stroke-linejoin:round;stroke-miterlimit:4;stroke-dasharray:none;stroke-opacity:1"
             id="path2472" />
          <path
             d="m 340.78682,390.7747 c 7.83869,-0.42757 16.90528,3.26188 23.66781,5.70898"
             style="fill:none;fill-rule:evenodd;stroke:#000000;stroke-width:1.99963009;stroke-linecap:round;stroke-linejoin:round;stroke-miterlimit:4;stroke-dasharray:none;stroke-opacity:1"
             id="path2474" />
          <path
             d="m 336.80375,398.76713 c 9.13281,1.96124 23.23275,7.99821 31.08457,14.62387"
             style="fill:none;fill-rule:evenodd;stroke:#000000;stroke-width:1.99963009;stroke-linecap:round;stroke-linejoin:round;stroke-miterlimit:4;stroke-dasharray:none;stroke-opacity:1"
             id="path2476" />
          <path
             d="m 336.67923,409.5764 c 7.01075,1.67936 13.8061,2.78558 18.60418,7.65267 v 0 l -0.34235,0.21422"
             style="fill:none;fill-rule:evenodd;stroke:#000000;stroke-width:1.99963009;stroke-linecap:round;stroke-linejoin:round;stroke-miterlimit:4;stroke-dasharray:none;stroke-opacity:1"
             id="path2478" />
          <path
             d="m 330.95743,416.61068 c 4.77702,0.78273 10.68122,3.20457 15.38389,9.54865"
             style="fill:none;fill-rule:evenodd;stroke:#000000;stroke-width:1.99963009;stroke-linecap:round;stroke-linejoin:round;stroke-miterlimit:4;stroke-dasharray:none;stroke-opacity:1"
             id="path2480" />
          <path
             d="m 340.44835,333.37612 c -3.45511,-71.48319 52.87993,-82.8899 90.45756,-32.06884 v 0"
             style="fill:none;fill-rule:evenodd;stroke:#000000;stroke-width:1.99963009;stroke-linecap:round;stroke-linejoin:round;stroke-miterlimit:4;stroke-dasharray:none;stroke-opacity:1"
             id="path2482" />
          <path
             d="m 342.30719,327.21079 c 5.87488,-13.89914 7.56248,-28.98216 30.15858,-39.35673 18.31426,-7.15736 36.84512,-6.77203 49.20242,-10.06481 23.31344,-10.242 21.18,-11.59814 26.97949,-20.45528 2.94387,23.3435 -14.31053,28.74497 -29.56201,34.21944 -14.2438,2.5015 -27.07123,2.92386 -43.87295,9.82653 -17.24215,9.11961 -21.66539,21.19022 -30.0125,32.35752"
             style="fill:#e20909;fill-opacity:1;fill-rule:evenodd;stroke:#000000;stroke-width:1.99963009;stroke-linecap:round;stroke-linejoin:round;stroke-miterlimit:4;stroke-dasharray:none;stroke-opacity:1"
             id="path2484" />
          <path
             d="m 344.66831,328.59253 c 3.99437,-6.90237 9.29166,-21.38867 18.33299,-28.62053 10.44441,-7.62839 21.95882,-9.98807 33.68428,-11.30869 25.3084,-4.00397 30.38178,-6.68688 33.62483,-9.2503"
             style="fill:none;fill-rule:evenodd;stroke:#000000;stroke-width:1.99963009;stroke-linecap:round;stroke-linejoin:round;stroke-miterlimit:4;stroke-dasharray:none;stroke-opacity:1"
             id="path2486" />
          <path
             d="m 321.84776,413.95447 c -8.81201,-9.81888 -30.12649,-21.7269 -40.76888,-28.23133"
             style="fill:none;fill-rule:evenodd;stroke:#000000;stroke-width:1.99963009;stroke-linecap:round;stroke-linejoin:round;stroke-miterlimit:4;stroke-dasharray:none;stroke-opacity:1"
             id="path2488" />
          <path
             d="M 323.3282,429.5125 C 309.03251,419.2337 290.3654,403.7529 272.88656,393.27932"
             style="fill:none;fill-rule:evenodd;stroke:#000000;stroke-width:1.99963009;stroke-linecap:round;stroke-linejoin:round;stroke-miterlimit:4;stroke-dasharray:none;stroke-opacity:1"
             id="path2490" />
          <path
             d="m 275.05209,371.14311 c 12.14328,5.66038 24.40301,13.62632 38.19264,24.05685"
             style="fill:none;fill-rule:evenodd;stroke:#000000;stroke-width:1.99963009;stroke-linecap:round;stroke-linejoin:round;stroke-miterlimit:4;stroke-dasharray:none;stroke-opacity:1"
             id="path2492" />
          <path
             d="m 276.46389,358.64572 c 6.19425,3.77452 20.81112,13.1135 28.85948,18.99269"
             style="fill:none;fill-rule:evenodd;stroke:#000000;stroke-width:1.99963009;stroke-linecap:round;stroke-linejoin:round;stroke-miterlimit:4;stroke-dasharray:none;stroke-opacity:1"
             id="path2494" />
          <path
             d="m 275.00227,347.17396 c 11.43691,6.97316 21.40523,13.60825 31.29868,20.22609"
             style="fill:none;fill-rule:evenodd;stroke:#000000;stroke-width:1.99963009;stroke-linecap:round;stroke-linejoin:round;stroke-miterlimit:4;stroke-dasharray:none;stroke-opacity:1"
             id="path2496" />
          <path
             d="M 318.06517,440.26649 C 304.87438,427.35933 290.83611,418.13351 276.95671,408.21761"
             style="fill:none;fill-rule:evenodd;stroke:#000000;stroke-width:1.99963009;stroke-linecap:round;stroke-linejoin:round;stroke-miterlimit:4;stroke-dasharray:none;stroke-opacity:1"
             id="path2498" />
          <path
             d="m 265.13559,237.24476 c 18.50813,32.78958 -9.78016,44.69882 -16.79482,65.75508 -2.41522,7.24992 -1.94451,15.08817 6.06492,20.45916"
             style="fill:none;fill-rule:evenodd;stroke:#000000;stroke-width:1.99963009;stroke-linecap:round;stroke-linejoin:round;stroke-miterlimit:4;stroke-dasharray:none;stroke-opacity:1"
             id="path2500" />
          <path
             d="m 206.05769,280.47861 c 0.77033,-14.95114 17.37837,-11.28588 24.61383,-30.67262"
             style="fill:none;fill-rule:evenodd;stroke:#000000;stroke-width:1.99963009;stroke-linecap:round;stroke-linejoin:round;stroke-miterlimit:4;stroke-dasharray:none;stroke-opacity:1"
             id="path3179" />
        </g>
      </g>
    </g>
  </g>
  <g
     id="layer4" />
  <g
     id="layer2">
    <path
       id="path2875"
       style="opacity:1;fill:url(#radialGradient3163);fill-opacity:1;fill-rule:evenodd;stroke:none;stroke-width:1px;stroke-linecap:butt;stroke-linejoin:miter;stroke-opacity:1"
       d="m 300.00001,658.5 c 0,0 298.5,-112.32031 298.5,-397.77183 0,-285.451504 0,-258.5516835 0,-258.5516835 H 1.5 V 260.72817 C 1.5,546.17969 300.00001,658.5 300.00001,658.5 Z" />
  </g>
  <g
     id="layer1">
    <path
       id="path1411"
       style="opacity:1;fill:none;fill-opacity:1;fill-rule:evenodd;stroke:#000000;stroke-width:3.00000048;stroke-linecap:butt;stroke-linejoin:miter;stroke-miterlimit:4;stroke-dasharray:none;stroke-opacity:1"
       d="m 299.99999,658.50028 c 0,0 -298.49999,-112.32036 -298.49999,-397.772 0,-285.451616 0,-258.5517843 0,-258.5517843 H 598.49999 V 260.72828 c 0,285.45164 -298.5,397.772 -298.5,397.772 z" />
  </g>
</svg>
