<?xml version="1.0" encoding="UTF-8" standalone="no"?>
<svg
   xmlns:dc="http://purl.org/dc/elements/1.1/"
   xmlns:cc="http://creativecommons.org/ns#"
   xmlns:rdf="http://www.w3.org/1999/02/22-rdf-syntax-ns#"
   xmlns:svg="http://www.w3.org/2000/svg"
   xmlns="http://www.w3.org/2000/svg"
   xmlns:xlink="http://www.w3.org/1999/xlink"
   xmlns:sodipodi="http://sodipodi.sourceforge.net/DTD/sodipodi-0.dtd"
   xmlns:inkscape="http://www.inkscape.org/namespaces/inkscape"
   height="660"
   width="600"
   version="1.0"
   id="svg2"
   sodipodi:version="0.32"
   inkscape:version="0.48.1 r9760"
   sodipodi:docname="Blason_ville_fr_Langrune-sur-Mer_(Calvados).svg"
   inkscape:export-filename="/Users/Augustin/Documents/temp/tyty.png"
   inkscape:export-xdpi="144"
   inkscape:export-ydpi="144"
   inkscape:output_extension="org.inkscape.output.svg.inkscape">
  <metadata
     id="metadata49">
    <rdf:RDF>
      <cc:Work
         rdf:about="">
        <dc:format>image/svg+xml</dc:format>
        <dc:type
           rdf:resource="http://purl.org/dc/dcmitype/StillImage" />
        <dc:title>Gabarit d'un blason en pointe pour le projet Blasons de Wikipédia</dc:title>
        <dc:date>03-AUG-2006</dc:date>
        <dc:creator>
          <cc:Agent>
            <dc:title>Jérôme BLUM (wagner51)</dc:title>
          </cc:Agent>
        </dc:creator>
        <cc:license
           rdf:resource="http://web.resource.org/cc/PublicDomain" />
        <dc:language>fr</dc:language>
        <dc:subject>
          <rdf:Bag>
            <rdf:li>gabarit modèle blason projet wikipédia</rdf:li>
          </rdf:Bag>
        </dc:subject>
      </cc:Work>
      <cc:License
         rdf:about="http://web.resource.org/cc/PublicDomain">
        <cc:permits
           rdf:resource="http://web.resource.org/cc/Reproduction" />
        <cc:permits
           rdf:resource="http://web.resource.org/cc/Distribution" />
        <cc:permits
           rdf:resource="http://web.resource.org/cc/DerivativeWorks" />
      </cc:License>
    </rdf:RDF>
  </metadata>
  <sodipodi:namedview
     inkscape:window-height="620"
     inkscape:window-width="968"
     inkscape:pageshadow="2"
     inkscape:pageopacity="0.0"
     guidetolerance="10.0"
     gridtolerance="10.0"
     objecttolerance="10.0"
     borderopacity="1.0"
     bordercolor="#666666"
     pagecolor="#ffffff"
     id="base"
     showgrid="false"
     height="660px"
     inkscape:zoom="0.6097156"
     inkscape:cx="300"
     inkscape:cy="329.66161"
     inkscape:window-x="-8"
     inkscape:window-y="0"
     inkscape:current-layer="layer3"
     showguides="true"
     inkscape:guide-bbox="true"
     inkscape:window-maximized="0">
    <sodipodi:guide
       orientation="1,0"
       position="298.1787,404.25017"
       id="guide10307" />
  </sodipodi:namedview>
  <desc
     id="desc4">Flag of Canton of Valais (Wallis)</desc>
  <defs
     id="defs6">
    <linearGradient
       id="linearGradient2893">
      <stop
         style="stop-color:white;stop-opacity:0.3137255;"
         offset="0"
         id="stop2895" />
      <stop
         id="stop2897"
         offset="0.19"
         style="stop-color:white;stop-opacity:0.25098041;" />
      <stop
         style="stop-color:#6b6b6b;stop-opacity:0.1254902;"
         offset="0.60000002"
         id="stop2901" />
      <stop
         style="stop-color:black;stop-opacity:0.1254902;"
         offset="1"
         id="stop2899" />
    </linearGradient>
    <radialGradient
       inkscape:collect="always"
       xlink:href="#linearGradient2893"
       id="radialGradient3163"
       gradientUnits="userSpaceOnUse"
       gradientTransform="matrix(1.353218,0,0,1.348928,-77.62935,-85.74693)"
       cx="221.44487"
       cy="226.33101"
       fx="221.44487"
       fy="226.33101"
       r="300" />
  </defs>
  <g
     inkscape:groupmode="layer"
     id="layer3"
     inkscape:label="Fond écu"
     style="display:inline">
    <path
       id="path2855"
       style="fill:#e20909;fill-opacity:1;fill-rule:evenodd;stroke:none;stroke-width:1px;stroke-linecap:butt;stroke-linejoin:miter;stroke-opacity:1"
       d="M 300,658.5 C 300,658.5 598.50001,546.17969 598.50001,260.72817 C 598.50001,-24.723354 598.50001,2.1764765 598.50001,2.1764765 L 1.5,2.1764765 L 1.5,260.72817 C 1.5,546.17969 300,658.5 300,658.5 z "
       sodipodi:nodetypes="cccccc" />
    <path
       sodipodi:nodetypes="cccccc"
       d="M 298.1787,552.01604 C 298.1787,552.01604 503.8687,474.61851 503.8687,277.91994 C 503.8687,81.221375 503.8687,99.75747 503.8687,99.75747 L 92.488694,99.75747 L 92.488694,277.91994 C 92.488694,474.61851 298.1787,552.01604 298.1787,552.01604 z"
       style="fill:#2b5df2;fill-opacity:1;fill-rule:evenodd;stroke:#000000;stroke-width:2;stroke-linecap:butt;stroke-linejoin:miter;stroke-opacity:1"
       id="path10305" />
    <path
       sodipodi:type="arc"
       style="opacity:1;fill:#ffffff;fill-rule:nonzero;stroke:#000000;stroke-width:1.72601485;stroke-linecap:round;stroke-miterlimit:4;stroke-dasharray:none;stroke-opacity:1"
       id="path10329"
       sodipodi:cx="63.053596"
       sodipodi:cy="52.446171"
       sodipodi:rx="32.410728"
       sodipodi:ry="32.410728"
       d="M 95.464325,52.446171 A 32.410728,32.410728 0 1 1 30.642868,52.446171 A 32.410728,32.410728 0 1 1 95.464325,52.446171 z"
       transform="matrix(1.1587386,0,0,1.1587386,-23.562621,-10.093091)" />
    <path
       sodipodi:type="arc"
       style="fill:#ffffff;fill-rule:nonzero;stroke:#000000;stroke-width:1.72601485;stroke-linecap:round;stroke-miterlimit:4;stroke-opacity:1;stroke-dasharray:none"
       id="path10331"
       sodipodi:cx="63.053596"
       sodipodi:cy="52.446171"
       sodipodi:rx="32.410728"
       sodipodi:ry="32.410728"
       d="m 95.464325,52.446171 a 32.410728,32.410728 0 1 1 -64.821457,0 32.410728,32.410728 0 1 1 64.821457,0 z"
       transform="matrix(1.1587386,0,0,1.1587386,225.02293,-10.093091)" />
    <path
       sodipodi:type="arc"
       style="opacity:1;fill:#ffffff;fill-rule:nonzero;stroke:#000000;stroke-width:1.72601485;stroke-linecap:round;stroke-miterlimit:4;stroke-dasharray:none;stroke-opacity:1"
       id="path10335"
       sodipodi:cx="63.053596"
       sodipodi:cy="52.446171"
       sodipodi:rx="32.410728"
       sodipodi:ry="32.410728"
       d="M 95.464325,52.446171 A 32.410728,32.410728 0 1 1 30.642868,52.446171 A 32.410728,32.410728 0 1 1 95.464325,52.446171 z"
       transform="matrix(1.1587386,0,0,1.1587386,473.79474,-10.093091)" />
    <path
       sodipodi:type="arc"
       style="opacity:1;fill:#ffffff;fill-rule:nonzero;stroke:#000000;stroke-width:1.72601485;stroke-linecap:round;stroke-miterlimit:4;stroke-dasharray:none;stroke-opacity:1"
       id="path10337"
       sodipodi:cx="63.053596"
       sodipodi:cy="52.446171"
       sodipodi:rx="32.410728"
       sodipodi:ry="32.410728"
       d="M 95.464325,52.446171 A 32.410728,32.410728 0 1 1 30.642868,52.446171 A 32.410728,32.410728 0 1 1 95.464325,52.446171 z"
       transform="matrix(1.1587386,0,0,1.1587386,479.6876,189.08557)" />
    <path
       sodipodi:type="arc"
       style="opacity:1;fill:#ffffff;fill-rule:nonzero;stroke:#000000;stroke-width:1.72601485;stroke-linecap:round;stroke-miterlimit:4;stroke-dasharray:none;stroke-opacity:1"
       id="path10339"
       sodipodi:cx="63.053596"
       sodipodi:cy="52.446171"
       sodipodi:rx="32.410728"
       sodipodi:ry="32.410728"
       d="M 95.464325,52.446171 A 32.410728,32.410728 0 1 1 30.642868,52.446171 A 32.410728,32.410728 0 1 1 95.464325,52.446171 z"
       transform="matrix(1.1587386,0,0,1.1587386,412.86614,401.22851)" />
    <path
       sodipodi:type="arc"
       style="opacity:1;fill:#ffffff;fill-rule:nonzero;stroke:#000000;stroke-width:1.72601485;stroke-linecap:round;stroke-miterlimit:4;stroke-dasharray:none;stroke-opacity:1"
       id="path10341"
       sodipodi:cx="63.053596"
       sodipodi:cy="52.446171"
       sodipodi:rx="32.410728"
       sodipodi:ry="32.410728"
       d="M 95.464325,52.446171 A 32.410728,32.410728 0 1 1 30.642868,52.446171 A 32.410728,32.410728 0 1 1 95.464325,52.446171 z"
       transform="matrix(1.1587386,0,0,1.1587386,225.11606,540.76428)" />
    <path
       sodipodi:type="arc"
       style="opacity:1;fill:#ffffff;fill-rule:nonzero;stroke:#000000;stroke-width:1.72601485;stroke-linecap:round;stroke-miterlimit:4;stroke-dasharray:none;stroke-opacity:1"
       id="path10343"
       sodipodi:cx="63.053596"
       sodipodi:cy="52.446171"
       sodipodi:rx="32.410728"
       sodipodi:ry="32.410728"
       d="M 95.464325,52.446171 A 32.410728,32.410728 0 1 1 30.642868,52.446171 A 32.410728,32.410728 0 1 1 95.464325,52.446171 z"
       transform="matrix(1.1587386,0,0,1.1587386,38.187405,401.22851)" />
    <path
       sodipodi:type="arc"
       style="opacity:1;fill:#ffffff;fill-rule:nonzero;stroke:#000000;stroke-width:1.72601485;stroke-linecap:round;stroke-miterlimit:4;stroke-dasharray:none;stroke-opacity:1"
       id="path10345"
       sodipodi:cx="63.053596"
       sodipodi:cy="52.446171"
       sodipodi:rx="32.410728"
       sodipodi:ry="32.410728"
       d="M 95.464325,52.446171 A 32.410728,32.410728 0 1 1 30.642868,52.446171 A 32.410728,32.410728 0 1 1 95.464325,52.446171 z"
       transform="matrix(1.1587386,0,0,1.1587386,-28.276908,189.08557)" />
    <g
       id="g10546"
       inkscape:label="Calque 1"
       transform="matrix(0.7672751,0,0,0.7672751,118.14269,147.18788)"
       style="stroke:#000000;stroke-width:2.60662699">
      <g
         transform="translate(-191.3618,-117.0945)"
         id="g7233"
         style="stroke:#000000;stroke-width:2.60662699">
        <path
           style="fill:#ffffff;fill-opacity:1;fill-rule:evenodd;stroke:#000000;stroke-width:2.60662699;stroke-linecap:butt;stroke-linejoin:miter;stroke-miterlimit:4;stroke-dasharray:none;stroke-opacity:1"
           d="M 210.61551,124.75033 L 278.92313,216.00528 L 347.25949,124.75033 L 278.92313,124.75033 L 210.61551,124.75033 z"
           id="path1900" />
        <path
           style="fill:#ffffff;fill-opacity:1;fill-rule:evenodd;stroke:#000000;stroke-width:2.60662699;stroke-linecap:butt;stroke-linejoin:miter;stroke-miterlimit:4;stroke-dasharray:none;stroke-opacity:1"
           d="M 272.5625,125.21875 C 257.19658,136.91298 242.73369,163.0608 240,170.9375 C 194.61121,176.569 180.98987,208.31114 208.5625,219.5 C 209.21616,215.9628 240.84674,185.42379 244.54099,184.2757 C 240.13735,185.90493 208.49552,216.30868 208.65625,219.5625 C 202.32508,242.82671 215.95091,252.17785 233.9375,250.625 C 236.83859,236.21456 251.45585,205.45338 258.347,197.83049 C 251.61004,206.012 236.69906,236.40682 233.875,251.1875 C 243.81155,272.71129 257.13805,278.74751 278.5625,265.21875 L 278.9375,203.22862 L 279.3125,265.21875 C 300.73695,278.74751 314.03219,272.71129 323.96875,251.1875 C 320.37709,237.94201 305.55099,207.43993 299.528,197.83049 C 304.28159,205.62089 318.75134,234.60829 323.9375,250.625 C 341.92409,252.17785 355.54994,242.82671 349.21875,219.5625 C 348.19525,212.5645 315.92094,183.16314 313.30276,183.65747 C 317.50127,183.19769 349.64716,213.85677 349.3125,219.5 C 376.88513,208.31114 363.2638,176.569 317.875,170.9375 C 315.14131,163.0608 301.23416,136.07938 285.86824,124.38515 C 285.86824,124.38515 281.22599,120.28731 278.9375,121.34375 L 272.5625,125.21875 z"
           id="path2792"
           sodipodi:nodetypes="ccccccccccccccccccccc" />
        <path
           style="fill:none;fill-rule:evenodd;stroke:#000000;stroke-width:2.60662699;stroke-linecap:butt;stroke-linejoin:miter;stroke-miterlimit:4;stroke-dasharray:none;stroke-opacity:1"
           d="M 246.70482,177.6338 C 269.83879,189.15241 290.99211,186.80647 311.17019,177.6338"
           id="path3686"
           sodipodi:nodetypes="cc" />
        <path
           style="fill:none;fill-rule:evenodd;stroke:#000000;stroke-width:2.60662699;stroke-linecap:butt;stroke-linejoin:miter;stroke-miterlimit:4;stroke-dasharray:none;stroke-opacity:1"
           d="M 223.36391,198.75177 C 258.93101,236.4434 295.98007,238.09807 334.5111,198.75177"
           id="path4573"
           sodipodi:nodetypes="cc" />
      </g>
    </g>
    <use
       x="0"
       y="0"
       xlink:href="#g10546"
       id="use10553"
       transform="translate(225.10724,-1.7480609e-7)"
       width="600"
       height="660" />
    <use
       height="660"
       width="600"
       transform="translate(112.55363,209.7858)"
       id="use10555"
       xlink:href="#g10546"
       y="0"
       x="0" />
  </g>
  <g
     inkscape:groupmode="layer"
     id="layer4"
     inkscape:label="Meubles"
     sodipodi:insensitive="true" />
  <g
     inkscape:groupmode="layer"
     id="layer2"
     inkscape:label="Reflet final"
     sodipodi:insensitive="true">
    <path
       sodipodi:nodetypes="cccccc"
       d="M 300.00001,658.5 C 300.00001,658.5 598.50001,546.17969 598.50001,260.72817 C 598.50001,-24.723334 598.50001,2.1764865 598.50001,2.1764865 L 1.5,2.1764865 L 1.5,260.72817 C 1.5,546.17969 300.00001,658.5 300.00001,658.5 z "
       style="opacity:1;fill:url(#radialGradient3163);fill-opacity:1;fill-rule:evenodd;stroke:none;stroke-width:1px;stroke-linecap:butt;stroke-linejoin:miter;stroke-opacity:1"
       id="path2875"
       inkscape:export-xdpi="144"
       inkscape:export-ydpi="144" />
  </g>
  <g
     inkscape:groupmode="layer"
     id="layer1"
     inkscape:label="Contour final"
     sodipodi:insensitive="true">
    <path
       sodipodi:nodetypes="cccccc"
       d="M 299.99999,658.50028 C 299.99999,658.50028 1.5,546.17992 1.5,260.72828 C 1.5,-24.723336 1.5,2.1764957 1.5,2.1764957 L 598.49999,2.1764957 L 598.49999,260.72828 C 598.49999,546.17992 299.99999,658.50028 299.99999,658.50028 z "
       style="opacity:1;fill:none;fill-opacity:1;fill-rule:evenodd;stroke:#000000;stroke-width:3.00000048;stroke-linecap:butt;stroke-linejoin:miter;stroke-miterlimit:4;stroke-dasharray:none;stroke-opacity:1"
       id="path1411"
       inkscape:export-xdpi="144"
       inkscape:export-ydpi="144" />
  </g>
</svg>
