<?xml version="1.0" encoding="UTF-8" standalone="no"?>
<svg
   xmlns:dc="http://purl.org/dc/elements/1.1/"
   xmlns:cc="http://creativecommons.org/ns#"
   xmlns:rdf="http://www.w3.org/1999/02/22-rdf-syntax-ns#"
   xmlns:svg="http://www.w3.org/2000/svg"
   xmlns="http://www.w3.org/2000/svg"
   xmlns:xlink="http://www.w3.org/1999/xlink"
   xmlns:sodipodi="http://sodipodi.sourceforge.net/DTD/sodipodi-0.dtd"
   xmlns:inkscape="http://www.inkscape.org/namespaces/inkscape"
   height="660"
   width="600"
   version="1.0"
   id="svg2"
   sodipodi:version="0.32"
   inkscape:version="0.46"
   sodipodi:docname="Blason de l'abbaye de Moyenmoutier (Vosges).svg"
   sodipodi:docbase="D:\Mes documents\Renaud-Notre Lapin"
   inkscape:export-filename="/Users/olivier/Desktop/Blason Rouge/Blason_Vide_3D.png"
   inkscape:export-xdpi="144"
   inkscape:export-ydpi="144"
   inkscape:output_extension="org.inkscape.output.svg.inkscape">
  <metadata
     id="metadata49">
    <rdf:RDF>
      <cc:Work
         rdf:about="">
        <dc:format>image/svg+xml</dc:format>
        <dc:type
           rdf:resource="http://purl.org/dc/dcmitype/StillImage" />
        <dc:title>Gabarit d'un blason en pointe pour le projet Blasons de Wikipédia</dc:title>
        <dc:date>03-AUG-2006</dc:date>
        <dc:creator>
          <cc:Agent>
            <dc:title>Jérôme BLUM (wagner51)</dc:title>
          </cc:Agent>
        </dc:creator>
        <cc:license
           rdf:resource="http://web.resource.org/cc/PublicDomain" />
        <dc:language>fr</dc:language>
        <dc:subject>
          <rdf:Bag>
            <rdf:li>gabarit modèle blason projet wikipédia</rdf:li>
          </rdf:Bag>
        </dc:subject>
      </cc:Work>
      <cc:License
         rdf:about="http://web.resource.org/cc/PublicDomain">
        <cc:permits
           rdf:resource="http://web.resource.org/cc/Reproduction" />
        <cc:permits
           rdf:resource="http://web.resource.org/cc/Distribution" />
        <cc:permits
           rdf:resource="http://web.resource.org/cc/DerivativeWorks" />
      </cc:License>
    </rdf:RDF>
  </metadata>
  <sodipodi:namedview
     inkscape:window-height="814"
     inkscape:window-width="1152"
     inkscape:pageshadow="2"
     inkscape:pageopacity="0.0"
     guidetolerance="10.0"
     gridtolerance="10.0"
     objecttolerance="10.0"
     borderopacity="1.0"
     bordercolor="#666666"
     pagecolor="#ffffff"
     id="base"
     showgrid="false"
     height="660px"
     inkscape:zoom="1.26"
     inkscape:cx="372.6819"
     inkscape:cy="260.17044"
     inkscape:window-x="-8"
     inkscape:window-y="-8"
     inkscape:current-layer="layer4"
     showguides="true"
     inkscape:guide-bbox="true" />
  <desc
     id="desc4">Flag of Canton of Valais (Wallis)</desc>
  <defs
     id="defs6">
    <linearGradient
       id="linearGradient2893">
      <stop
         style="stop-color:white;stop-opacity:0.3137255;"
         offset="0"
         id="stop2895" />
      <stop
         id="stop2897"
         offset="0.19"
         style="stop-color:white;stop-opacity:0.25098041;" />
      <stop
         style="stop-color:#6b6b6b;stop-opacity:0.1254902;"
         offset="0.60000002"
         id="stop2901" />
      <stop
         style="stop-color:black;stop-opacity:0.1254902;"
         offset="1"
         id="stop2899" />
    </linearGradient>
    <radialGradient
       inkscape:collect="always"
       xlink:href="#linearGradient2893"
       id="radialGradient3163"
       gradientUnits="userSpaceOnUse"
       gradientTransform="matrix(1.353218,0,0,1.348928,-77.62935,-85.74693)"
       cx="221.44487"
       cy="226.33101"
       fx="221.44487"
       fy="226.33101"
       r="300" />
  </defs>
  <g
     inkscape:groupmode="layer"
     id="layer3"
     inkscape:label="Fond écu"
     style="display:inline"
     sodipodi:insensitive="true">
    <path
       id="path2855"
       style="fill:#2b5df2;fill-opacity:1;fill-rule:evenodd;stroke:none;stroke-width:1px;stroke-linecap:butt;stroke-linejoin:miter;stroke-opacity:1"
       d="M 300,658.5 C 300,658.5 598.50001,546.17969 598.50001,260.72817 C 598.50001,-24.723354 598.50001,2.1764765 598.50001,2.1764765 L 1.5,2.1764765 L 1.5,260.72817 C 1.5,546.17969 300,658.5 300,658.5 z"
       sodipodi:nodetypes="cccccc" />
  </g>
  <g
     inkscape:groupmode="layer"
     id="layer4"
     inkscape:label="Meubles">
    <path
       style="fill:#ffffff;fill-rule:evenodd;stroke:#000000;stroke-width:2.29999995;stroke-linecap:butt;stroke-linejoin:miter;stroke-miterlimit:4;stroke-dasharray:none;stroke-opacity:1"
       d="M 385.71429,304.44444 C 415.0554,302.08324 422.50034,356.42373 417.93349,388.52329 C 415.5461,411.03451 390.10034,404.90396 382.53968,386.98413 C 376.00946,374.10018 374.10863,366.45578 374.60318,352.06349 C 376.08629,336.43619 367.27728,306.39728 385.71429,304.44444 z"
       id="path2856"
       sodipodi:nodetypes="ccccc" />
    <path
       style="fill:#ffffff;fill-rule:evenodd;stroke:#000000;stroke-width:2.20000005;stroke-linecap:butt;stroke-linejoin:miter;stroke-miterlimit:4;stroke-dasharray:none;stroke-opacity:1"
       d="M 308.37714,223.67022 C 297.42999,224.66877 283.2914,223.98107 275.2652,230.26737 C 249.14911,250.72212 237.57285,269.09613 218.30519,291.29432 C 186.69656,304.88419 180.84484,318.7945 161.59147,333.31251 C 143.54156,346.92305 121.6397,360.03075 108.92812,388.32508 C 104.37237,398.56076 101.53997,407.87204 95.717562,431.59343 C 106.49102,439.67482 147.45288,393.57611 147.03332,445.62318 C 172.52479,432.8865 185.65319,411.32901 186.22743,393.98527 C 187.15641,382.19966 198.17692,357.15882 208.87359,349.78201 C 227.33795,328.42906 242.50133,304.08462 254.68089,278.61839 C 273.03162,252.04916 278.97248,244.21082 308.53919,231.94996 C 309.06552,229.10141 309.61827,225.96727 308.37714,223.67022 z"
       id="path3719"
       sodipodi:nodetypes="cscscccccccc" />
    <path
       sodipodi:nodetypes="ccsssccccccc"
       id="path16951"
       d="M 286.93323,274.48479 C 282.41901,284.85931 282.11469,283.6508 279.02706,290.10937 C 279.85876,290.48519 277.41781,329.68376 279.20467,332.33489 C 282.54054,337.28426 286.82316,344.1288 289.37263,345.13999 C 296.64775,348.02548 306.66901,352.06098 307.70155,352.05615 C 320.4211,351.99664 337.82069,345.55113 346.76287,348.53065 C 385.49397,365.60874 439.38191,381.67474 484.58709,385.48044 L 461.41998,317.60729 C 427.57489,311.4339 380.78452,313.26666 359.85665,305.50255 C 337.05966,285.25418 337.51366,281.52093 328.08272,279.18619 C 317.28674,277.77262 312.74837,274.40086 305.98142,272.18825 C 301.93838,272.31195 294.43636,276.20726 286.93323,274.48479 z"
       style="fill:#f7d55d;fill-opacity:1;fill-rule:evenodd;stroke:#000000;stroke-width:2.29999995000000010;stroke-linecap:butt;stroke-linejoin:miter;stroke-miterlimit:4;stroke-dasharray:none;stroke-opacity:1;display:inline" />
    <g
       id="g3707"
       style="stroke:#000000;stroke-width:2.29999995;stroke-miterlimit:4;stroke-dasharray:none;stroke-opacity:1">
      <path
         id="path3704"
         d="M 289.25,240.25 L 289.25,654.03125 C 296.02684,656.99461 300,658.5 300,658.5 C 300,658.5 303.82896,657.05822 310.34375,654.21875 L 310.34375,240.25 L 289.25,240.25 z"
         style="fill:#fcef3c;fill-opacity:1;fill-rule:evenodd;stroke:#000000;stroke-width:2.29999995;stroke-linecap:butt;stroke-linejoin:miter;stroke-miterlimit:4;stroke-dasharray:none;stroke-opacity:1;display:inline" />
      <path
         d="M 284.4108,39.703879 C 247.62211,42.247037 218.55853,73.083531 218.55853,110.53657 C 218.55853,116.64824 219.31519,122.5897 220.77205,128.24474 L 241.24713,128.24474 C 239.23412,122.75788 238.1482,116.72463 238.1482,110.53657 C 238.14819,83.132285 259.68702,60.666939 286.73499,59.293544 C 287.6075,59.249241 288.50776,59.293544 289.39122,59.293544 C 317.66183,59.293544 340.52357,82.248275 340.52357,110.53657 C 340.52357,124.68071 334.80814,137.49147 325.55887,146.76619 C 316.30961,156.04091 305.34115,163.72721 298.34,168.81077 C 291.27229,173.94266 288.51018,181.04051 288.5431,188.40044 C 288.57601,195.76036 289.5019,240.24893 289.5019,240.24893 L 310.7517,240.24893 C 310.7517,240.24893 310.7517,224.69894 310.7517,209.14895 C 310.7517,193.59896 308.95481,184.50561 314.90649,179.64697 C 321.05196,174.63014 337.45046,164.55307 346.23584,152.7664 C 355.02121,140.97972 360.22391,126.3685 360.22391,110.53657 C 360.22391,71.421849 328.48148,39.703879 289.39122,39.703879 C 288.32235,39.703879 287.23898,39.656906 286.18161,39.703879 C 285.88777,39.716932 285.58911,39.687236 285.29621,39.703879 C 285.00559,39.720391 284.70047,39.683854 284.4108,39.703879 z"
         style="fill:#fcef3c;fill-opacity:1;fill-rule:nonzero;stroke:#000000;stroke-width:2.29999995;stroke-miterlimit:4;stroke-dasharray:none;stroke-opacity:1"
         id="path12604" />
      <g
         transform="matrix(3.5416345,0,0,3.5416345,564.3106,27.308158)"
         style="fill:#fcef3c;fill-opacity:1;stroke:#000000;stroke-width:0.64941764;stroke-miterlimit:4;stroke-dasharray:none;stroke-opacity:1"
         id="g17018">
        <path
           sodipodi:nodetypes="cccccccscccccccccccscccccccc"
           d="M -84.220228,41.896074 C -83.223985,42.7917 -82.713875,43.637394 -82.660315,44.349315 C -82.658225,45.880517 -84.421368,46.490354 -85.700583,46.091578 C -85.700583,46.091578 -83.248961,49.281972 -80.725389,49.065527 C -78.742882,48.794634 -77.533865,46.856428 -77.426166,44.980736 C -77.577343,43.21948 -79.305626,42.755533 -80.672637,42.204258 C -78.610314,40.675577 -76.014601,41.370953 -76.014601,41.370953 C -76.014601,41.370953 -76.779714,37.887643 -81.029372,36.857367 C -82.558052,36.486758 -86.98477,35.54514 -88.452613,34.030016 C -85.861828,35.311954 -82.768523,36.427906 -79.889634,35.55892 C -74.114535,33.763597 -73.011364,30.922347 -72.190557,27.859056 C -70.871394,24.9306 -65.606155,24.374331 -66.702213,19.624359 C -68.07898,20.94348 -69.659536,21.740398 -72.006024,21.770391 C -71.173925,20.990984 -70.376844,20.150437 -70.602428,19.559457 C -70.616895,17.570942 -69.750468,16.730686 -67.857425,15.411372 C -67.857425,15.411372 -70.678658,13.549605 -73.640706,16.577138 C -72.5587,10.533271 -75.011541,9.7164049 -80.120227,8.5486546 C -77.126948,11.601626 -76.533054,13.171126 -79.881343,16.079516 C -80.880403,15.152293 -80.529638,14.112585 -80.304934,13.083382 C -80.304934,13.083382 -84.776558,13.178911 -83.94461,17.238113 C -83.44585,19.671643 -81.010715,20.023734 -79.963198,22.146608 C -81.983868,21.020815 -87.328218,22.498716 -86.202249,22.483201 C -80.347548,23.836885 -78.236112,28.89593 -82.44727,30.575869 C -85.860279,32.1 -88.97247,31.055447 -90.514491,27.644668 C -90.514491,27.644668 -91.856551,25.9327 -90.514491,27.644668 C -87.567279,30.443741 -83.674291,27.853459 -84.254822,24.416585 C -93.618253,26.66956 -94.590699,16.528203 -95.965724,15.182302 C -103.54577,34.08034 -86.055834,40.245842 -84.220228,41.896074 z"
           style="fill:#fcef3c;fill-opacity:1;fill-rule:evenodd;stroke:#000000;stroke-width:0.64941764;stroke-linecap:butt;stroke-linejoin:miter;stroke-miterlimit:4;stroke-dasharray:none;stroke-opacity:1"
           id="path11679" />
        <g
           style="fill:#fcef3c;fill-opacity:1;stroke:#000000;stroke-width:0.64941764;stroke-miterlimit:4;stroke-dasharray:none;stroke-opacity:1"
           id="g17008">
          <path
             sodipodi:nodetypes="cscscccccccccccccccsccscc"
             d="M -89.879596,31.945283 C -83.733615,35.017595 -79.959383,34.650204 -77.536581,30.183575 C -77.04199,29.271756 -76.831498,28.18911 -76.417009,26.930025 C -76.025639,25.418153 -75.611553,23.716875 -75.683225,22.1707 C -75.749169,20.748109 -76.15668,19.421861 -76.519255,18.067485 C -76.586738,14.866914 -74.620715,14.094747 -76.614234,11.099714 M -81.306743,16.604388 C -81.050298,19.697101 -78.235836,21.160223 -75.683225,22.1707 M -70.568116,15.972704 C -73.668985,17.572488 -72.776919,20.867606 -75.683225,22.1707 M -68.609974,22.379784 C -69.777509,23.58786 -71.093706,24.064382 -72.177693,24.313091 C -73.872681,24.501806 -75.241738,25.113343 -76.316362,26.4868 M -82.209148,22.830987 C -79.241831,23.82803 -76.270644,26.801785 -77.556253,30.131603 M -93.579458,22.830987 C -92.535799,24.235913 -91.706404,25.105178 -91.003907,25.669111 C -89.686461,26.716129 -88.13577,27.227433 -86.540695,26.53085 M -78.960488,40.066933 C -80.85554,37.90116 -83.292035,38.623084 -84.555403,38.352363 C -85.81877,38.081641 -89.247912,35.735386 -89.247912,35.735386 M -83.201794,47.105697 C -80.758041,47.614952 -79.995984,46.419694 -80.323121,44.905984 C -80.568393,43.771079 -81.547351,42.439819 -82.221949,41.608982 C -83.626834,40.484942 -84.387284,38.837984 -85.880409,37.815354"
             style="fill:none;fill-opacity:1;fill-rule:evenodd;stroke:#000000;stroke-width:0.28235552;stroke-linecap:butt;stroke-linejoin:miter;stroke-miterlimit:4;stroke-dasharray:none;stroke-opacity:1"
             id="path15234" />
        </g>
      </g>
      <g
         transform="matrix(3.5416345,0,0,3.5416345,562.81709,27.627757)"
         style="fill:#fcef3c;fill-opacity:1;stroke:#000000;stroke-width:0.64941764;stroke-miterlimit:4;stroke-dasharray:none;stroke-opacity:1"
         id="g18799">
        <path
           d="M -68.384549,59.244157 C -68.320075,62.095593 -69.304823,62.059281 -74.267731,62.059281 C -79.147093,62.059281 -80.078183,61.951042 -80.150912,59.244157 C -80.227638,56.388473 -79.139577,56.429034 -74.267731,56.429034 C -69.666606,56.429034 -68.452387,56.243975 -68.384549,59.244157 z"
           style="fill:#fcef3c;fill-opacity:1;fill-rule:nonzero;stroke:#000000;stroke-width:0.64941764;stroke-miterlimit:4;stroke-dasharray:none;stroke-opacity:1"
           id="path17922" />
        <path
           d="M -67.335386,59.243743 C -67.259412,61.026133 -70.441137,61.003434 -74.267867,61.003434 C -78.094595,61.003434 -81.114646,60.935776 -81.200346,59.243743 C -81.290758,57.458698 -78.094595,57.484052 -74.267867,57.484052 C -70.441137,57.484052 -67.415324,57.368375 -67.335386,59.243743 z"
           style="fill:#fcef3c;fill-opacity:1;fill-rule:nonzero;stroke:#000000;stroke-width:0.64941764;stroke-miterlimit:4;stroke-dasharray:none;stroke-opacity:1"
           id="path17919" />
      </g>
    </g>
    <path
       sodipodi:nodetypes="cssscccccsscc"
       id="path3722"
       d="M 310.69481,219.3072 C 309.59333,219.59398 307.94462,220.83298 306.10837,221.25937 C 299.93961,222.69177 290.86253,221.68146 284.53483,223.9197 C 277.79904,226.30228 271.34319,229.1472 265.14929,233.51136 C 243.88357,248.49496 225.70562,273.63125 209.88725,291.85552 C 150.7758,316.09286 119.51372,330.75296 90.408661,389.44747 C 85.852907,399.68315 68.429416,409.55563 62.607006,433.27702 C 87.410361,429.57329 85.721335,465.40918 115.60635,438.88883 C 154.45506,381.31489 161.4639,355.58265 205.50641,322.84461 C 217.35932,308.74576 228.29133,292.60734 239.6719,277.2459 C 253.72329,258.27939 267.95541,229.60634 286.31474,227.83325 C 295.80435,226.91677 306.90779,227.82371 310.74477,227.50373 C 312.88041,227.07534 313.24265,218.6229 310.69481,219.3072 z"
       style="fill:#ffffff;fill-rule:evenodd;stroke:#000000;stroke-width:2.20000005;stroke-linecap:butt;stroke-linejoin:miter;stroke-miterlimit:4;stroke-dasharray:none;stroke-opacity:1" />
    <g
       id="g2826"
       transform="matrix(0.9943598,0.1060591,-0.1060591,0.9943598,38.426768,-34.720376)"
       style="stroke:#000000;stroke-width:2.29999995;stroke-miterlimit:4;stroke-dasharray:none;stroke-opacity:1">
      <g
         id="g2850"
         transform="matrix(0.9930402,-0.1177759,0.1177759,0.9930402,-34.330926,36.854564)"
         style="stroke:#000000;stroke-width:2.29999995;stroke-miterlimit:4;stroke-dasharray:none;stroke-opacity:1">
        <path
           sodipodi:nodetypes="cccccccsccccccc"
           id="path15830"
           d="M 286.42209,282.44362 C 279.74213,282.4009 276.05221,282.49573 267.94922,286.86102 C 267.56499,290.89053 265.5401,294.76287 270.50954,299.30525 C 259.01088,297.15205 258.52467,307.35673 265.891,313.31106 C 259.23098,311.18306 257.68227,325.09614 270.22714,332.72165 C 266.47404,331.06943 265.39531,341.15537 271.1856,344.42916 C 275.29742,346.10567 277.86131,347.61682 281.72319,348.86274 C 296.84876,351.00112 295.7005,344.99693 289.77318,340.58584 C 288.83448,339.88726 287.77593,339.22865 286.64317,338.64865 C 289.59804,339.57101 292.48263,339.79481 295.48029,339.1591 C 302.12016,337.23286 299.13758,328.51564 286.21133,324.20105 C 307.86401,330.87456 305.22586,310.75976 291.03307,308.77894 C 307.70839,313.05971 301.99299,297.85167 290.04214,294.6881 L 283.77426,290.50144 L 286.42209,282.44362 z"
           style="fill:#f7d55d;fill-opacity:1;fill-rule:evenodd;stroke:#000000;stroke-width:2.29999995000000010;stroke-linecap:butt;stroke-linejoin:miter;stroke-miterlimit:4;stroke-dasharray:none;stroke-opacity:1;display:inline" />
        <path
           sodipodi:nodetypes="cc"
           id="path22348"
           d="M 270.36613,299.29564 C 276.50085,304.66476 283.98645,307.19832 292.7496,309.12527"
           style="fill:none;fill-rule:evenodd;stroke:#000000;stroke-width:2.29999995;stroke-linecap:butt;stroke-linejoin:miter;stroke-miterlimit:4;stroke-dasharray:none;stroke-opacity:1" />
        <path
           sodipodi:nodetypes="cc"
           id="path22350"
           d="M 265.65075,313.22089 C 272.29577,319.32421 277.75249,321.84285 286.31313,324.18025"
           style="fill:none;fill-rule:evenodd;stroke:#000000;stroke-width:2.29999995;stroke-linecap:butt;stroke-linejoin:miter;stroke-miterlimit:4;stroke-dasharray:none;stroke-opacity:1" />
        <path
           sodipodi:nodetypes="cc"
           id="path22352"
           d="M 270.02051,332.61495 C 276.73733,336.04077 278.27502,335.73408 286.03656,338.45232"
           style="fill:none;fill-rule:evenodd;stroke:#000000;stroke-width:2.29999995;stroke-linecap:butt;stroke-linejoin:miter;stroke-miterlimit:4;stroke-dasharray:none;stroke-opacity:1" />
      </g>
    </g>
    <path
       style="fill:#f7d55d;fill-opacity:1;fill-rule:evenodd;stroke:#000000;stroke-width:2.29999995000000010;stroke-linecap:butt;stroke-linejoin:miter;stroke-miterlimit:4;stroke-dasharray:none;stroke-opacity:1;display:inline"
       d="M 359.85665,305.50255 C 337.05966,285.25418 337.51366,281.52093 328.08272,279.18619 C 317.28674,277.77262 312.74837,274.40086 305.98142,272.18825 C 301.93838,272.31195 294.43636,276.20726 286.93323,274.48479 C 277.85561,272.63013 273.04217,286.20724 289.53625,290.05411 C 294.86392,292.09124 299.98751,293.19357 305.76172,292.08132 C 307.62375,296.24677 312.85545,298.86021 318.76438,300.19915"
       id="path2832"
       sodipodi:nodetypes="ccccccc" />
    <path
       style="fill:#ffffff;fill-opacity:1;fill-rule:evenodd;stroke:#000000;stroke-width:2.29999995;stroke-linecap:butt;stroke-linejoin:miter;stroke-miterlimit:4;stroke-dasharray:none;stroke-opacity:1;display:inline"
       d="M 597.65625,287.0625 C 596.89219,287.67703 596.1985,288.20343 595.40625,288.84375 C 583.2859,296.98887 568.45467,308.33432 556.96875,317.34375 C 551.23778,321.64198 519.77994,315.5625 511.90625,315.5625 C 496.36015,314.69368 480.21548,313.2248 465.09375,309.21875 C 453.10936,307.4744 440.70566,308.40625 428.5625,308.40625 C 418.64617,306.33887 409.43812,307.81678 399.53125,306.03125 C 395.67888,305.06816 392.88234,303.92842 387.3125,303.65625 C 405.76088,308.6854 406.6198,330.16425 411.5,346.6875 C 413.77669,351.24088 417.46875,360.40802 417.46875,365.3125 C 415.91172,380.50181 418.4302,391.74149 406.34375,402.0625 C 443.24086,398.9301 448.47029,401.58795 461.90625,402.84375 C 474.09003,403.06852 486.38957,401.98366 498.40625,404.4375 C 503.19433,405.63453 508.42672,408.9348 512.6875,410 C 520.48281,413.49518 526.37848,411.89696 534.125,415.5625 C 543.87526,420.18899 552.79785,418.00652 560.3125,410.78125 C 561.34828,409.74548 564.80878,408.82579 569.0625,407.9375 C 584.28722,372.0186 594.70147,331.80756 597.65625,287.0625 z"
       id="path3634" />
    <path
       style="fill:#ffffff;fill-rule:evenodd;stroke:#000000;stroke-width:2.29999995;stroke-linecap:butt;stroke-linejoin:miter;stroke-miterlimit:4;stroke-dasharray:none;stroke-opacity:1"
       d="M 384.8725,304.26013 C 396.46835,303.8395 399.81987,322.86769 403.96826,338.57143 C 408.04966,347.39592 415.0222,355.34783 414.80703,364.99435 C 415.3681,378.66018 415.59573,402.0827 401.21711,403.1128 C 407.92981,405.27441 418.14409,403.81274 425.3088,404.43619 C 430.30309,405.05667 436.19939,404.16542 440.98948,403.4437 C 448.53193,401.74389 449.7535,386.61145 448.74343,373.16032 C 448.27929,366.64058 448.22535,364.12527 447.61905,357.61904 C 446.68279,352.00149 442.38852,345.42709 440.87301,339.36507 C 437.77295,328.8931 441.44321,316.86334 428.86431,305.1548 C 415.62424,300.97908 398.13615,301.01857 384.8725,304.26013 z"
       id="path2860"
       sodipodi:nodetypes="ccccccccccc" />
  </g>
  <g
     inkscape:groupmode="layer"
     id="layer2"
     inkscape:label="Reflet final"
     sodipodi:insensitive="true">
    <path
       sodipodi:nodetypes="cccccc"
       d="M 300.00001,658.5 C 300.00001,658.5 598.50001,546.17969 598.50001,260.72817 C 598.50001,-24.723334 598.50001,2.1764865 598.50001,2.1764865 L 1.5,2.1764865 L 1.5,260.72817 C 1.5,546.17969 300.00001,658.5 300.00001,658.5 z "
       style="opacity:1;fill:url(#radialGradient3163);fill-opacity:1;fill-rule:evenodd;stroke:none;stroke-width:1px;stroke-linecap:butt;stroke-linejoin:miter;stroke-opacity:1"
       id="path2875"
       inkscape:export-xdpi="144"
       inkscape:export-ydpi="144" />
  </g>
  <g
     inkscape:groupmode="layer"
     id="layer1"
     inkscape:label="Contour final"
     sodipodi:insensitive="true">
    <path
       sodipodi:nodetypes="cccccc"
       d="M 299.99999,658.50028 C 299.99999,658.50028 1.5,546.17992 1.5,260.72828 C 1.5,-24.723336 1.5,2.1764957 1.5,2.1764957 L 598.49999,2.1764957 L 598.49999,260.72828 C 598.49999,546.17992 299.99999,658.50028 299.99999,658.50028 z "
       style="opacity:1;fill:none;fill-opacity:1;fill-rule:evenodd;stroke:#000000;stroke-width:3.00000048;stroke-linecap:butt;stroke-linejoin:miter;stroke-miterlimit:4;stroke-dasharray:none;stroke-opacity:1"
       id="path1411"
       inkscape:export-xdpi="144"
       inkscape:export-ydpi="144" />
  </g>
</svg>
