<?xml version="1.0" encoding="UTF-8" standalone="no"?>
<svg
   xmlns:dc="http://purl.org/dc/elements/1.1/"
   xmlns:cc="http://creativecommons.org/ns#"
   xmlns:rdf="http://www.w3.org/1999/02/22-rdf-syntax-ns#"
   xmlns:svg="http://www.w3.org/2000/svg"
   xmlns="http://www.w3.org/2000/svg"
   xmlns:xlink="http://www.w3.org/1999/xlink"
   xmlns:sodipodi="http://sodipodi.sourceforge.net/DTD/sodipodi-0.dtd"
   xmlns:inkscape="http://www.inkscape.org/namespaces/inkscape"
   height="660"
   width="600"
   version="1.0"
   id="svg2"
   sodipodi:version="0.32"
   inkscape:version="0.46"
   sodipodi:docname="Blason_ville_fr_Cheust_A(65).svg"
   sodipodi:docbase="D:\Mes documents\Renaud-Notre Lapin"
   inkscape:export-filename="/Users/olivier/Desktop/Blason Rouge/Blason_Vide_3D.png"
   inkscape:export-xdpi="144"
   inkscape:export-ydpi="144"
   inkscape:output_extension="org.inkscape.output.svg.inkscape">
  <metadata
     id="metadata49">
    <rdf:RDF>
      <cc:Work
         rdf:about="">
        <dc:format>image/svg+xml</dc:format>
        <dc:type
           rdf:resource="http://purl.org/dc/dcmitype/StillImage" />
        <dc:title>Gabarit d'un blason en pointe pour le projet Blasons de Wikipédia</dc:title>
        <dc:date>03-AUG-2006</dc:date>
        <dc:creator>
          <cc:Agent>
            <dc:title>Jérôme BLUM (wagner51)</dc:title>
          </cc:Agent>
        </dc:creator>
        <cc:license
           rdf:resource="http://web.resource.org/cc/PublicDomain" />
        <dc:language>fr</dc:language>
        <dc:subject>
          <rdf:Bag>
            <rdf:li>gabarit modèle blason projet wikipédia</rdf:li>
          </rdf:Bag>
        </dc:subject>
      </cc:Work>
      <cc:License
         rdf:about="http://web.resource.org/cc/PublicDomain">
        <cc:permits
           rdf:resource="http://web.resource.org/cc/Reproduction" />
        <cc:permits
           rdf:resource="http://web.resource.org/cc/Distribution" />
        <cc:permits
           rdf:resource="http://web.resource.org/cc/DerivativeWorks" />
      </cc:License>
    </rdf:RDF>
  </metadata>
  <sodipodi:namedview
     inkscape:window-height="975"
     inkscape:window-width="1280"
     inkscape:pageshadow="2"
     inkscape:pageopacity="0.0"
     guidetolerance="10.0"
     gridtolerance="10.0"
     objecttolerance="10.0"
     borderopacity="1.0"
     bordercolor="#666666"
     pagecolor="#ffffff"
     id="base"
     showgrid="false"
     height="660px"
     inkscape:zoom="1.1590904"
     inkscape:cx="300.00013"
     inkscape:cy="330.00014"
     inkscape:window-x="-4"
     inkscape:window-y="-4"
     inkscape:current-layer="layer3"
     inkscape:object-nodes="true" />
  <desc
     id="desc4">Flag of Canton of Valais (Wallis)</desc>
  <defs
     id="defs6">
    <linearGradient
       id="linearGradient2893">
      <stop
         style="stop-color:white;stop-opacity:0.3137255;"
         offset="0"
         id="stop2895" />
      <stop
         id="stop2897"
         offset="0.19"
         style="stop-color:white;stop-opacity:0.25098041;" />
      <stop
         style="stop-color:#6b6b6b;stop-opacity:0.1254902;"
         offset="0.60000002"
         id="stop2901" />
      <stop
         style="stop-color:black;stop-opacity:0.1254902;"
         offset="1"
         id="stop2899" />
    </linearGradient>
    <radialGradient
       inkscape:collect="always"
       xlink:href="#linearGradient2893"
       id="radialGradient3163"
       gradientUnits="userSpaceOnUse"
       gradientTransform="matrix(1.353218,0,0,1.348928,-77.62935,-85.74693)"
       cx="221.44487"
       cy="226.33101"
       fx="221.44487"
       fy="226.33101"
       r="300" />
  </defs>
  <g
     inkscape:groupmode="layer"
     id="layer3"
     inkscape:label="Fond écu"
     style="display:inline">
    <path
       id="path2855"
       style="fill:#e20909;fill-opacity:1;fill-rule:evenodd;stroke:none;stroke-width:1px;stroke-linecap:butt;stroke-linejoin:miter;stroke-opacity:1"
       d="M 300,658.5 C 300,658.5 598.50001,546.17969 598.50001,260.72817 C 598.50001,-24.723354 598.50001,2.1764765 598.50001,2.1764765 L 1.5,2.1764765 L 1.5,260.72817 C 1.5,546.17969 300,658.5 300,658.5 z"
       sodipodi:nodetypes="cccccc" />
    <path
       style="fill:#5ab532;fill-opacity:1;stroke:#000000;stroke-width:2.5;stroke-linejoin:round;stroke-miterlimit:4;stroke-opacity:1;stroke-dasharray:none"
       d="M 300 480.53125 C 249.49921 480.53125 161.00889 495.83231 93.5 509.15625 C 181.20491 613.81424 300 658.5 300 658.5 C 300 658.5 418.79509 613.81425 506.5 509.15625 C 438.99112 495.83231 350.50079 480.53124 300 480.53125 z "
       id="rect3765" />
    <rect
       style="opacity:1;fill:#2b5df2;fill-opacity:1;stroke:#000000;stroke-width:3;stroke-linejoin:round;stroke-miterlimit:4;stroke-dasharray:none;stroke-opacity:1"
       id="rect3449"
       width="597"
       height="128"
       x="1.50001"
       y="2.1764765" />
    <g
       id="g3714"
       transform="translate(212.95033,-619.1589)" />
    <g
       id="layer9"
       inkscape:label="Fond d'écu"
       transform="translate(212.95033,-619.1589)">
      <g
         transform="matrix(2,0,0,2,-732.89186,-1853.1884)"
         inkscape:label="Meubles"
         id="g2807" />
      <g
         transform="matrix(2,0,0,2,1696.9763,-413.55025)"
         inkscape:label="Meubles"
         id="g4626" />
      <g
         id="g5271"
         inkscape:label="Meubles"
         transform="matrix(2,0,0,2,-732.89213,-453.18787)" />
      <g
         id="g5273"
         inkscape:label="Reflet final"
         transform="matrix(2,0,0,2,-732.89213,-453.18787)" />
      <g
         id="g5275"
         inkscape:label="Contour final"
         transform="matrix(2,0,0,2,-732.89213,-453.18787)" />
    </g>
    <g
       id="layer6"
       inkscape:label="Reflet final"
       transform="translate(212.95033,-619.1589)" />
    <g
       id="layer5"
       inkscape:label="Contour final"
       transform="translate(212.95033,-619.1589)" />
  </g>
  <g
     inkscape:groupmode="layer"
     id="layer4"
     inkscape:label="Meubles">
    <g
       id="g3892">
      <g
         id="g3441"
         style="display:inline">
        <path
           id="path2599"
           d="M 257.99048,246.99813 L 341.99044,246.99813 L 341.99044,499 L 257.99048,499 L 257.99048,246.99813 z"
           style="fill:#ffffff;fill-opacity:1;stroke:#000000;stroke-width:2;stroke-linejoin:round;stroke-miterlimit:4;stroke-opacity:1" />
        <path
           id="path2601"
           d="M 246,223 L 246,235.00009 L 258,247.00018 L 342.00004,247.00018 L 354.00004,235.00009 L 354.00004,223 L 338.55004,223 L 338.55004,235.00009 L 323.10004,235.00009 L 323.10004,223 L 307.68754,223 L 307.68754,235.00009 L 292.3125,235.00009 L 292.3125,223 L 276.8625,223 L 276.8625,235.00009 L 261.4125,235.00009 L 261.4125,223 L 246,223 z"
           style="fill:#ffffff;fill-opacity:1;stroke:#000000;stroke-width:2;stroke-linejoin:round;stroke-miterlimit:4;stroke-opacity:1" />
        <use
           style="fill:#000000;stroke:#313131;stroke-width:2.00802469;stroke-opacity:1"
           height="660"
           width="600"
           transform="matrix(0.9959999,0,0,0.9960074,-582.57256,-105.78017)"
           id="use2605"
           xlink:href="#path2572"
           y="0"
           x="0" />
        <use
           x="0"
           y="0"
           xlink:href="#use2605"
           id="use2614"
           transform="translate(-40,0)"
           width="600"
           height="660"
           style="stroke-width:2" />
      </g>
      <path
         sodipodi:nodetypes="ccccccccccccccccccccc"
         id="path3386"
         d="M 234.95511,346.93912 L 365.04411,346.93912 L 365.04371,322.87824 L 350.60241,322.87824 L 350.60241,334.90868 L 336.19041,334.90868 L 336.19041,322.87824 L 321.69061,322.87824 L 321.69061,334.90868 L 307.24931,334.90868 L 307.24931,322.87824 L 292.77889,322.87824 L 292.77889,334.90868 L 278.27903,334.90868 L 278.27903,322.87824 L 263.83777,322.87824 L 263.83777,334.90868 L 249.42579,334.90868 L 249.42579,322.87824 L 234.95522,322.87824 L 234.95511,346.93912 z"
         style="display:inline;opacity:1;fill:#ffffff;fill-opacity:1;stroke:#000000;stroke-width:2;stroke-linejoin:round;stroke-miterlimit:4;stroke-opacity:1" />
      <path
         style="display:inline;opacity:1;fill:#ffffff;fill-opacity:1;stroke:#000000;stroke-width:2;stroke-linejoin:round;stroke-miterlimit:4;stroke-opacity:1"
         d="M 234.955,499 L 365.04401,499 L 365.04361,346.93912 L 234.95511,346.93912 L 234.955,499 z"
         id="path3391"
         sodipodi:nodetypes="ccccc" />
      <path
         sodipodi:nodetypes="ccccc"
         id="path3393"
         d="M 296.74727,372.5726 L 303.25171,372.5726 L 303.25171,357.36652 L 296.74727,357.36652 L 296.74727,372.5726 z"
         style="display:inline;opacity:1;fill:#000000;fill-opacity:1;stroke:#313131;stroke-width:1.50000000000000000;stroke-linejoin:round;stroke-miterlimit:4;stroke-opacity:1" />
      <use
         style="display:inline;opacity:1"
         height="660"
         width="600"
         transform="translate(-34,10)"
         id="use3395"
         xlink:href="#path3393"
         y="0"
         x="0" />
      <use
         style="display:inline;opacity:1"
         height="660"
         width="600"
         transform="translate(34,10)"
         id="use3397"
         xlink:href="#path3393"
         y="0"
         x="0" />
      <use
         style="display:inline;opacity:1"
         height="660"
         width="600"
         transform="translate(0,44)"
         id="use3399"
         xlink:href="#use3395"
         y="0"
         x="0" />
      <use
         style="display:inline;opacity:1"
         height="660"
         width="600"
         transform="translate(0,44)"
         id="use3401"
         xlink:href="#use3397"
         y="0"
         x="0" />
      <path
         sodipodi:nodetypes="ccccc"
         id="path3403"
         d="M 282.955,499 L 317.04401,499 L 317.04361,458.93912 L 282.95511,458.93912 L 282.955,499 z"
         style="display:inline;opacity:1;fill:#ffffff;fill-opacity:1;stroke:#000000;stroke-width:2;stroke-linejoin:round;stroke-miterlimit:4;stroke-opacity:1" />
      <g
         transform="translate(-706.19578,0)"
         id="g2590"
         style="display:inline">
        <path
           style="fill:#ffffff;fill-opacity:1;stroke:#000000;stroke-width:2;stroke-linejoin:round;stroke-miterlimit:4;stroke-opacity:1"
           d="M 871.18785,294.9033 L 941.18785,294.9033 L 941.18785,504.9033 L 871.18785,504.9033 L 871.18785,294.9033 z"
           id="rect2567" />
        <path
           style="fill:#ffffff;fill-opacity:1;stroke:#000000;stroke-width:2;stroke-linejoin:round;stroke-miterlimit:4;stroke-opacity:1"
           d="M 861.19578,274.90501 L 861.19578,284.90501 L 871.19578,294.90501 L 941.19578,294.90501 L 951.19578,284.90501 L 951.19578,274.90501 L 938.32078,274.90501 L 938.32078,284.90501 L 925.44578,284.90501 L 925.44578,274.90501 L 912.60203,274.90501 L 912.60203,284.90501 L 899.78953,284.90501 L 899.78953,274.90501 L 886.91453,274.90501 L 886.91453,284.90501 L 874.03953,284.90501 L 874.03953,274.90501 L 861.19578,274.90501 z"
           id="path2570" />
        <path
           id="path2572"
           d="M 902.68785,371.4033 L 909.68785,371.4033 L 909.68785,392.4033 L 902.68785,392.4033 L 902.68785,371.4033 z"
           style="fill:#000000;fill-opacity:1;stroke:#313131;stroke-width:1.5;stroke-linejoin:round;stroke-miterlimit:4;stroke-opacity:1" />
        <use
           x="0"
           y="0"
           xlink:href="#path2572"
           id="use2574"
           transform="translate(-1.735748e-7,-64)"
           width="600"
           height="660"
           style="fill:#000000;stroke:#313131;stroke-width:1.5;stroke-opacity:1" />
        <use
           x="0"
           y="0"
           xlink:href="#path2572"
           id="use2576"
           transform="translate(-1.735748e-7,64)"
           width="600"
           height="660"
           style="fill:#000000;stroke:#313131;stroke-width:1.5;stroke-opacity:1" />
      </g>
      <use
         height="660"
         width="600"
         transform="translate(200,0)"
         id="use3447"
         xlink:href="#g2590"
         y="0"
         x="0"
         style="display:inline" />
    </g>
    <g
       style="display:inline"
       id="g3857"
       transform="translate(-799.4068,4)">
      <path
         sodipodi:nodetypes="ccccccccccccc"
         id="path3771"
         d="M 1086.0625,181.25 L 1064.3438,147.4375 L 1062.9688,182.6875 L 1032.3438,151.4375 L 1056.3438,196.09375 C 1070.6976,193.87034 1085.0524,193.17966 1099.4062,192.875 C 1113.7601,193.17966 1128.1149,193.87034 1142.4688,196.09375 L 1166.4688,151.4375 L 1135.8438,182.6875 L 1134.4688,147.4375 L 1112.75,181.25 L 1099.4062,143.28125 L 1086.0625,181.25 z"
         style="opacity:1;fill:#fcef3c;fill-opacity:1;stroke:#000000;stroke-width:2;stroke-linejoin:round;stroke-miterlimit:4;stroke-dasharray:none;stroke-opacity:1" />
      <path
         id="path3780"
         d="M 1089,183.9375 C 1088.7912,183.95779 1088.5889,184.02166 1088.4062,184.125 L 1077,190.71875 L 1066.2812,185.84375 C 1065.7297,185.58241 1065.0748,185.68126 1064.625,186.09375 L 1055.3125,195 L 1057.375,197.1875 L 1065.9688,189 L 1076.4688,193.75 C 1076.9014,193.94242 1077.3996,193.91925 1077.8125,193.6875 L 1089.1875,187.15625 L 1099.4062,192.5 L 1109.625,187.15625 L 1121,193.6875 C 1121.413,193.91925 1121.911,193.94242 1122.3438,193.75 L 1132.8438,189 L 1141.4375,197.1875 L 1143.5,195 L 1134.1875,186.09375 C 1133.7377,185.68126 1133.0828,185.58241 1132.5312,185.84375 L 1121.8125,190.71875 L 1110.4062,184.125 C 1110.2237,184.02166 1110.0213,183.95779 1109.8125,183.9375 C 1109.5086,183.90953 1109.2033,183.97494 1108.9375,184.125 L 1099.4062,189.09375 L 1089.875,184.125 C 1089.6092,183.97494 1089.3039,183.90953 1089,183.9375 z"
         style="opacity:1;fill:#fcef3c;fill-opacity:1;stroke:#000000;stroke-width:1;stroke-linejoin:round;stroke-miterlimit:4;stroke-dasharray:none;stroke-opacity:1" />
      <path
         sodipodi:nodetypes="ccccccc"
         id="path3786"
         d="M 1048.5938,183.65625 C 1046.2314,184.25457 1047.3166,186.99337 1049.2812,186.5625 C 1059.5047,184.16218 1074.9493,182.52511 1099.4062,182.3125 C 1123.8632,182.52511 1139.3078,184.16218 1149.5312,186.5625 C 1151.4959,186.99337 1152.5811,184.25457 1150.2188,183.65625 C 1133.5555,179.92626 1116.3893,179.71349 1099.4062,179.3125 C 1082.3553,179.34372 1065.3322,180.33793 1048.5938,183.65625 z"
         style="opacity:1;fill:#fcef3c;fill-opacity:1;stroke:#000000;stroke-width:1.5;stroke-linejoin:round;stroke-miterlimit:4;stroke-dasharray:none;stroke-opacity:1" />
      <path
         sodipodi:nodetypes="ccccccc"
         id="path3788"
         d="M 1098.7188,182.21875 C 1081.1487,182.32737 1064.2829,183.10056 1049.7812,186.15625 C 1047.7496,186.59667 1048.1438,188.52451 1050.1875,188.125 C 1064.4292,185.12409 1081.1912,184.3298 1098.6875,184.21875 C 1115.4492,183.97747 1132.1264,185.23376 1148.625,188.125 C 1150.6687,188.52451 1151.0629,186.59667 1149.0312,186.15625 C 1132.4881,182.86724 1115.5463,182.20496 1098.7188,182.21875 z"
         style="opacity:1;fill:#fcef3c;fill-opacity:1;stroke:#000000;stroke-width:1;stroke-linejoin:round;stroke-miterlimit:4;stroke-dasharray:none;stroke-opacity:1" />
      <path
         id="path3802"
         d="M 1096.1875,193.25 L 1096.1875,193.34375 C 1081.6018,193.53257 1070.2228,193.80251 1056.625,196.21875 C 1054.5747,195.85497 1054.211,197.78261 1056.25,198.1875 C 1070.2675,200.88656 1082.9669,201.42238 1099.4062,201.28125 C 1115.8456,201.42238 1128.5451,200.88656 1142.5625,198.1875 C 1144.6015,197.78261 1144.2378,195.85497 1142.1875,196.21875 C 1128.5897,193.80251 1117.2107,193.53257 1102.625,193.34375 L 1102.625,193.25 C 1101.4738,193.26516 1100.5139,193.29881 1099.4062,193.3125 C 1098.2986,193.29881 1097.3387,193.26516 1096.1875,193.25 z"
         style="opacity:1;fill:#fcef3c;fill-opacity:1;stroke:#000000;stroke-width:2;stroke-linejoin:round;stroke-miterlimit:4;stroke-dasharray:none;stroke-opacity:1" />
      <path
         sodipodi:nodetypes="ccccccc"
         id="path3800"
         d="M 1056.1562,196 C 1054.1173,196.40489 1054.4809,198.33253 1056.5312,197.96875 C 1070.6426,194.87459 1085.0725,195.17958 1099.4062,194.90625 C 1113.8028,194.36902 1128.0694,195.80702 1142.2812,197.96875 C 1144.3317,198.33253 1144.6952,196.40489 1142.6562,196 C 1128.6121,193.2958 1115.8914,192.76227 1099.4062,192.90625 C 1084.8908,192.44436 1070.4596,193.6042 1056.1562,196 z"
         style="opacity:1;fill:#fcef3c;fill-opacity:1;stroke:#000000;stroke-width:1;stroke-linejoin:round;stroke-miterlimit:4;stroke-dasharray:none;stroke-opacity:1" />
    </g>
    <g
       style="display:inline"
       id="g3914">
      <path
         id="path3451"
         d="M 299.96875,11.406252 L 291.65621,58.1875 L 244.906,66.5 L 291.65621,74.8125 L 299.96875,121.59375 L 308.3126,74.8125 L 355.094,66.5 L 308.3126,58.1875 L 299.96875,11.406252 z"
         style="opacity:1;fill:#fcef3c;fill-opacity:1;stroke:#000000;stroke-width:2.00000453;stroke-linejoin:round;stroke-miterlimit:4;stroke-dasharray:none;stroke-opacity:1" />
      <path
         id="path8078"
         d="M 99.99931,16.828125 L 88.63837,46.820313 L 56.979,41.664063 L 77.29462,66.5 L 56.979,91.335932 L 88.63837,86.1625 L 99.99931,116.17187 L 111.36025,86.1625 L 143.01962,91.335932 L 122.72119,66.5 L 143.01962,41.664063 L 111.36025,46.820313 L 99.99931,16.828125 z"
         style="fill:#fcef3c;fill-opacity:1;stroke:#000000;stroke-width:2;stroke-miterlimit:4;stroke-dasharray:none;stroke-opacity:1" />
      <use
         height="660"
         width="600"
         transform="translate(400,0)"
         id="use3763"
         xlink:href="#path8078"
         y="0"
         x="0" />
    </g>
  </g>
  <g
     inkscape:groupmode="layer"
     id="layer2"
     inkscape:label="Reflet final"
     sodipodi:insensitive="true">
    <path
       sodipodi:nodetypes="cccccc"
       d="M 300.00001,658.5 C 300.00001,658.5 598.50001,546.17969 598.50001,260.72817 C 598.50001,-24.723334 598.50001,2.1764865 598.50001,2.1764865 L 1.5,2.1764865 L 1.5,260.72817 C 1.5,546.17969 300.00001,658.5 300.00001,658.5 z "
       style="opacity:1;fill:url(#radialGradient3163);fill-opacity:1;fill-rule:evenodd;stroke:none;stroke-width:1px;stroke-linecap:butt;stroke-linejoin:miter;stroke-opacity:1"
       id="path2875"
       inkscape:export-xdpi="144"
       inkscape:export-ydpi="144" />
  </g>
  <g
     inkscape:groupmode="layer"
     id="layer1"
     inkscape:label="Contour final"
     sodipodi:insensitive="true">
    <path
       sodipodi:nodetypes="cccccc"
       d="M 299.99999,658.50028 C 299.99999,658.50028 1.5,546.17992 1.5,260.72828 C 1.5,-24.723336 1.5,2.1764957 1.5,2.1764957 L 598.49999,2.1764957 L 598.49999,260.72828 C 598.49999,546.17992 299.99999,658.50028 299.99999,658.50028 z "
       style="opacity:1;fill:none;fill-opacity:1;fill-rule:evenodd;stroke:#000000;stroke-width:3.00000048;stroke-linecap:butt;stroke-linejoin:miter;stroke-miterlimit:4;stroke-dasharray:none;stroke-opacity:1"
       id="path1411"
       inkscape:export-xdpi="144"
       inkscape:export-ydpi="144" />
  </g>
</svg>
