<?xml version="1.0" encoding="UTF-8" standalone="no"?>
<svg
   xmlns:dc="http://purl.org/dc/elements/1.1/"
   xmlns:cc="http://creativecommons.org/ns#"
   xmlns:rdf="http://www.w3.org/1999/02/22-rdf-syntax-ns#"
   xmlns:svg="http://www.w3.org/2000/svg"
   xmlns="http://www.w3.org/2000/svg"
   xmlns:xlink="http://www.w3.org/1999/xlink"
   xmlns:sodipodi="http://sodipodi.sourceforge.net/DTD/sodipodi-0.dtd"
   xmlns:inkscape="http://www.inkscape.org/namespaces/inkscape"
   height="660"
   width="600"
   version="1.0"
   id="svg2"
   sodipodi:version="0.32"
   inkscape:version="0.46"
   sodipodi:docname="Blason_cheverny41-A.svg"
   sodipodi:docbase="D:\Mes documents\Renaud-Notre Lapin"
   inkscape:export-filename="/Users/olivier/Desktop/Blason Rouge/Blason_Vide_3D.png"
   inkscape:export-xdpi="144"
   inkscape:export-ydpi="144"
   inkscape:output_extension="org.inkscape.output.svg.inkscape">
  <metadata
     id="metadata49">
    <rdf:RDF>
      <cc:Work
         rdf:about="">
        <dc:format>image/svg+xml</dc:format>
        <dc:type
           rdf:resource="http://purl.org/dc/dcmitype/StillImage" />
        <dc:title>Gabarit d'un blason en pointe pour le projet Blasons de Wikipédia</dc:title>
        <dc:date>03-AUG-2006</dc:date>
        <dc:creator>
          <cc:Agent>
            <dc:title>Jérôme BLUM (wagner51)</dc:title>
          </cc:Agent>
        </dc:creator>
        <cc:license
           rdf:resource="http://web.resource.org/cc/PublicDomain" />
        <dc:language>fr</dc:language>
        <dc:subject>
          <rdf:Bag>
            <rdf:li>gabarit modèle blason projet wikipédia</rdf:li>
          </rdf:Bag>
        </dc:subject>
      </cc:Work>
      <cc:License
         rdf:about="http://web.resource.org/cc/PublicDomain">
        <cc:permits
           rdf:resource="http://web.resource.org/cc/Reproduction" />
        <cc:permits
           rdf:resource="http://web.resource.org/cc/Distribution" />
        <cc:permits
           rdf:resource="http://web.resource.org/cc/DerivativeWorks" />
      </cc:License>
    </rdf:RDF>
  </metadata>
  <sodipodi:namedview
     inkscape:window-height="975"
     inkscape:window-width="1280"
     inkscape:pageshadow="2"
     inkscape:pageopacity="0.0"
     guidetolerance="10.0"
     gridtolerance="10.0"
     objecttolerance="10.0"
     borderopacity="1.0"
     bordercolor="#666666"
     pagecolor="#ffffff"
     id="base"
     showgrid="false"
     height="660px"
     inkscape:zoom="1.1590904"
     inkscape:cx="300.00013"
     inkscape:cy="330.00014"
     inkscape:window-x="-4"
     inkscape:window-y="-4"
     inkscape:current-layer="layer3"
     inkscape:object-nodes="true" />
  <desc
     id="desc4">Flag of Canton of Valais (Wallis)</desc>
  <defs
     id="defs6">
    <linearGradient
       id="linearGradient2893">
      <stop
         style="stop-color:white;stop-opacity:0.3137255;"
         offset="0"
         id="stop2895" />
      <stop
         id="stop2897"
         offset="0.19"
         style="stop-color:white;stop-opacity:0.25098041;" />
      <stop
         style="stop-color:#6b6b6b;stop-opacity:0.1254902;"
         offset="0.60000002"
         id="stop2901" />
      <stop
         style="stop-color:black;stop-opacity:0.1254902;"
         offset="1"
         id="stop2899" />
    </linearGradient>
    <radialGradient
       inkscape:collect="always"
       xlink:href="#linearGradient2893"
       id="radialGradient3163"
       gradientUnits="userSpaceOnUse"
       gradientTransform="matrix(1.353218,0,0,1.348928,-77.62935,-85.74693)"
       cx="221.44487"
       cy="226.33101"
       fx="221.44487"
       fy="226.33101"
       r="300" />
    <g
       id="s-4">
      <g
         id="c-6">
        <path
           transform="matrix(0.951057,0.309017,-0.309017,0.951057,0,-1)"
           d="M 0,0 L 0,1 L 0.5,1 L 0,0 z"
           id="t-0" />
        <use
           height="540"
           width="810"
           y="0"
           x="0"
           id="use2144-7"
           transform="scale(-1,1)"
           xlink:href="#t-0" />
      </g>
      <g
         id="a-1">
        <use
           height="540"
           width="810"
           y="0"
           x="0"
           id="use2147-7"
           transform="matrix(0.309017,0.951057,-0.951057,0.309017,0,0)"
           xlink:href="#c-6" />
        <use
           height="540"
           width="810"
           y="0"
           x="0"
           id="use2149-7"
           transform="matrix(-0.809017,0.587785,-0.587785,-0.809017,0,0)"
           xlink:href="#c-6" />
      </g>
      <use
         height="540"
         width="810"
         y="0"
         x="0"
         id="use2151-7"
         transform="scale(-1,1)"
         xlink:href="#a-1" />
    </g>
    <g
       id="f">
      <rect
         id="rect1964"
         style="fill:#28166f"
         y="-30"
         x="-50"
         height="60"
         width="100" />
      <g
         id="g1966"
         style="fill:#ffffff"
         transform="translate(0,-20)">
        <path
           id="path1968"
           d="M -1.2116,27.8178 C -1.2116,22.1752 -2.0914,20.4715 -4.5417,13.9804 C -5.709,10.8879 -5.0241,7.1025 -2.8585,3.6009 C -2.0824,2.346 -1.1136,1.2135 0,0 C 1.1136,1.2135 2.0824,2.346 2.8585,3.6009 C 5.0241,7.1025 5.709,10.8879 4.5417,13.9804 C 2.0914,20.4715 1.2116,22.1752 1.2116,27.8178 L -1.2116,27.8178 z" />
        <path
           id="rwi"
           d="M 2.9221,27.6725 C 2.9221,21.7209 5.2387,17.8293 8.5007,16.6604 C 9.9492,16.1414 11.8076,16.3869 13.5193,18.107 C 15.6379,20.236 16.2551,26.1004 10.0355,27.2283 C 10.6938,26.2724 10.6546,24.1467 9.3215,23.4409 C 8.3311,22.9165 7.209,23.1877 6.6462,23.5643 C 5.8225,24.1156 4.9171,25.6702 4.9672,27.6725 L 2.9221,27.6725 z" />
        <path
           id="path1971"
           d="M 1.7773,30.1835 C 1.7899,32.1913 2.7952,33.5181 4.5165,34.257 C 4.2948,34.9549 3.2566,36.3776 1.8314,36.2812 C 1.5499,37.787 1.2822,38.6324 0,40 C -1.2822,38.6324 -1.5499,37.787 -1.8314,36.2812 C -3.2566,36.3776 -4.2948,34.9549 -4.5165,34.257 C -2.7952,33.5181 -1.7899,32.1913 -1.7773,30.1835 L 1.7773,30.1835 z" />
        <use
           xlink:href="#rwi"
           height="400"
           width="800"
           y="0"
           x="0"
           id="use1973"
           transform="scale(-1,1)" />
        <rect
           id="rect1975"
           y="27.33077"
           x="-7.9229999"
           height="3.2179999"
           width="15.846" />
      </g>
    </g>
    <g
       id="s">
      <g
         id="c">
        <path
           transform="matrix(0.951057,0.309017,-0.309017,0.951057,0,-1)"
           d="M 0,0 L 0,1 L 0.5,1 L 0,0 z"
           id="t" />
        <use
           height="540"
           width="810"
           y="0"
           x="0"
           id="use2144"
           transform="scale(-1,1)"
           xlink:href="#t" />
      </g>
      <g
         id="a">
        <use
           height="540"
           width="810"
           y="0"
           x="0"
           id="use2147"
           transform="matrix(0.309017,0.951057,-0.951057,0.309017,0,0)"
           xlink:href="#c" />
        <use
           height="540"
           width="810"
           y="0"
           x="0"
           id="use2149"
           transform="matrix(-0.809017,0.587785,-0.587785,-0.809017,0,0)"
           xlink:href="#c" />
      </g>
      <use
         height="540"
         width="810"
         y="0"
         x="0"
         id="use2151"
         transform="scale(-1,1)"
         xlink:href="#a" />
    </g>
    <radialGradient
       inkscape:collect="always"
       xlink:href="#linearGradient2893"
       id="radialGradient5320"
       gradientUnits="userSpaceOnUse"
       gradientTransform="matrix(1.353218,0,0,1.348928,-751.04837,84.820059)"
       cx="221.44487"
       cy="226.33101"
       fx="221.44487"
       fy="226.33101"
       r="300" />
  </defs>
  <g
     inkscape:groupmode="layer"
     id="layer3"
     inkscape:label="Fond écu"
     style="display:inline">
    <g
       id="g3714"
       transform="translate(212.95033,-619.1589)" />
    <g
       id="layer9"
       inkscape:label="Fond d'écu"
       transform="translate(212.95033,-619.1589)">
      <g
         transform="matrix(2,0,0,2,-732.89186,-1853.1884)"
         inkscape:label="Meubles"
         id="g2807" />
      <g
         transform="matrix(2,0,0,2,1696.9763,-413.55025)"
         inkscape:label="Meubles"
         id="g4626" />
      <g
         id="g5271"
         inkscape:label="Meubles"
         transform="matrix(2,0,0,2,-732.89213,-453.18787)" />
      <g
         id="g5273"
         inkscape:label="Reflet final"
         transform="matrix(2,0,0,2,-732.89213,-453.18787)" />
      <g
         id="g5275"
         inkscape:label="Contour final"
         transform="matrix(2,0,0,2,-732.89213,-453.18787)" />
    </g>
    <g
       id="layer6"
       inkscape:label="Reflet final"
       transform="translate(212.95033,-619.1589)" />
    <g
       id="layer5"
       inkscape:label="Contour final"
       transform="translate(212.95033,-619.1589)" />
    <path
       id="path3289"
       d="M 300,2.1872198 L 300,287.99972 L 597.5625,287.99972 C 598.17292,279.08386 598.5,269.99818 598.5,260.71847 C 598.50001,-24.733064 598.5,2.1872198 598.5,2.1872198 L 300,2.1872198 z"
       style="fill:#000000;fill-opacity:1;fill-rule:evenodd;stroke:none;stroke-width:1px;stroke-linecap:butt;stroke-linejoin:miter;stroke-opacity:1" />
    <path
       id="rect13347"
       d="M 2.4375,287.99972 C 20.60396,553.34304 300,658.49972 300,658.49972 L 300,287.99972 L 2.4375,287.99972 z"
       style="fill:#000000;fill-opacity:1;stroke:none;stroke-width:2.5;stroke-miterlimit:4;stroke-dasharray:none;stroke-opacity:1" />
    <path
       style="fill:#2b5df2;fill-opacity:1;stroke:none;stroke-width:2.5;stroke-miterlimit:4;stroke-dasharray:none;stroke-opacity:1"
       d="M 597.5625,287.99972 C 579.39604,553.34304 300,658.49972 300,658.49972 L 300,287.99972 L 597.5625,287.99972 z"
       id="path13355" />
    <path
       style="fill:#2b5df2;fill-opacity:1;fill-rule:evenodd;stroke:none;stroke-width:1px;stroke-linecap:butt;stroke-linejoin:miter;stroke-opacity:1"
       d="M 300,2.1872198 L 300,287.99972 L 2.4375,287.99972 C 1.82708,279.08386 1.5,269.99818 1.5,260.71847 C 1.49999,-24.733064 1.5,2.1872198 1.5,2.1872198 L 300,2.1872198 z"
       id="path13364" />
    <rect
       y="1.4997197"
       x="298.5"
       height="657"
       width="3"
       id="rect13643"
       style="fill:#313131;fill-opacity:1;stroke:none;stroke-width:2.5;stroke-miterlimit:4;stroke-dasharray:none;stroke-opacity:1" />
    <rect
       transform="matrix(0,-1,1,0,0,0)"
       style="fill:#313131;fill-opacity:1;stroke:none;stroke-width:2.5;stroke-miterlimit:4;stroke-dasharray:none;stroke-opacity:1"
       id="rect13645"
       width="3"
       height="595.12598"
       x="-289.49973"
       y="2.4379883" />
    <g
       id="g3296"
       inkscape:label="Meubles"
       transform="translate(-700,-2.8023842e-4)" />
    <g
       transform="matrix(1.00209,0,0,1.00209,457.62808,165.71607)"
       inkscape:label="Meubles"
       id="g3710">
      <g
         id="g2119"
         transform="translate(29.9149,-1710.963)"
         style="opacity:1">
        <g
           id="g11024"
           transform="translate(-1361.835,-74.82611)" />
      </g>
    </g>
    <g
       id="g2137"
       style="display:inline"
       transform="matrix(0.403203,0,0,0.386407,375.67309,239.0773)" />
    <path
       style="fill:#fcef3c;fill-opacity:1;fill-rule:evenodd;stroke:none;stroke-width:3;stroke-linecap:butt;stroke-linejoin:miter;stroke-opacity:1"
       d="M 180.6,173.38 C 180.6,173.38 180.6,162.61188 180.6,276.7925 C 180.6,280.50438 180.73083,284.13865 180.975,287.705 C 188.24158,393.84232 300,435.905 300,435.905 C 300,435.905 411.7584,393.84232 419.025,287.705 C 419.26916,284.13865 419.4,280.50438 419.4,276.7925 C 419.4,162.61188 419.4,173.38 419.4,173.38 L 300,173.38 L 180.6,173.38 z"
       id="path5350" />
    <path
       style="fill:#2b5df2;fill-opacity:1;stroke:#313131;stroke-width:3;stroke-linecap:round;stroke-linejoin:round;stroke-miterlimit:4;stroke-dasharray:none;stroke-opacity:1"
       d="M 270.40625,173.375 L 270.40625,258.09375 L 180.59375,258.09375 C 180.59375,271.3679 180.59375,256.14661 180.59375,276.78125 C 180.59374,280.49312 180.72458,284.1524 180.96875,287.71875 C 181.68734,298.2146 183.44687,308.04855 186,317.3125 L 270.40625,317.3125 L 270.40625,420.84375 C 287.39248,431.13886 300,435.90625 300,435.90625 C 300,435.90625 312.60752,431.13886 329.59375,420.84375 L 329.59375,317.3125 L 414,317.3125 C 416.55313,308.04855 418.31266,298.21459 419.03125,287.71875 C 419.27542,284.15241 419.40625,280.49313 419.40625,276.78125 C 419.40625,256.14661 419.40625,271.3679 419.40625,258.09375 L 329.59375,258.09375 L 329.59375,173.375 L 270.40625,173.375 z"
       id="rect5503"
       sodipodi:nodetypes="cccsscccccccsscccc" />
    <path
       id="path2140"
       d="M 211.86131,185.65167 C 211.06735,188.75676 211.94249,191.31293 213.45996,193.72149 C 214.63335,195.58397 215.40434,197.56879 215.36766,199.70131 C 214.83389,200.0023 214.32491,200.32672 213.83359,200.67586 L 201.57018,192.53037 L 209.80319,204.65849 C 209.65528,204.86272 209.51115,205.07499 209.3724,205.28503 C 207.03723,204.23308 204.84513,204.0245 202.75628,204.42857 C 199.80338,204.99977 197.29638,204.38134 194.67853,202.8211 C 196.31275,205.57814 198.75091,206.76615 201.52703,207.39627 C 203.67802,207.8845 205.6223,208.7412 207.10605,210.28096 C 206.9446,210.86115 206.81128,211.44798 206.70988,212.04371 L 192.275,214.97087 L 206.67734,217.72511 C 206.71692,217.97289 206.76464,218.21995 206.81523,218.46731 C 204.41951,219.37373 202.71621,220.77279 201.52461,222.53597 C 199.8405,225.02789 197.64233,226.36392 194.68796,227.11176 C 197.79308,227.90573 200.34493,227.02023 202.75349,225.50277 C 204.61598,224.32937 206.60081,223.55838 208.73333,223.59507 C 209.03432,224.12884 209.35875,224.63784 209.70787,225.12915 L 201.56668,237.40291 L 213.70085,229.15525 C 213.9035,229.30192 214.10868,229.45267 214.31706,229.59032 C 213.2651,231.9255 213.06079,234.12794 213.46486,236.21678 C 214.03607,239.1697 213.41336,241.66638 211.85312,244.28421 C 214.61018,242.65 215.7982,240.21185 216.42827,237.43572 C 216.91652,235.28472 217.77323,233.34043 219.31298,231.85667 C 219.89435,232.01858 220.47875,232.15124 221.07572,232.25285 L 224.00288,246.68772 L 226.7571,232.28539 C 227.00492,232.2458 227.25196,232.19811 227.49932,232.1475 C 228.40524,234.54396 229.8052,236.2468 231.56797,237.43813 C 234.0599,239.12225 235.39596,241.32042 236.14379,244.27477 C 236.93776,241.16968 236.05226,238.6178 234.53479,236.20924 C 233.3591,234.34312 232.59673,232.36432 232.63741,230.22512 C 233.1677,229.92566 233.67284,229.60187 234.16118,229.25486 L 246.43492,237.39607 L 238.19759,225.25761 C 238.34234,225.05742 238.48641,224.85145 238.62237,224.64567 C 240.95819,225.70066 243.15889,225.90214 245.24881,225.49787 C 248.20173,224.92664 250.69837,225.54939 253.31621,227.10963 C 251.68199,224.35256 249.24814,223.17488 246.47202,222.54479 C 244.32344,222.05711 242.38138,221.1839 240.89903,219.64549 C 241.06009,219.06628 241.18366,218.48169 241.28486,217.88702 L 255.72403,214.97019 L 241.3174,212.20563 C 241.27782,211.95783 241.23011,211.71078 241.17952,211.4634 C 243.57745,210.55781 245.27839,209.15817 246.47014,207.39475 C 248.15426,204.90284 250.35673,203.57711 253.31105,202.82929 C 250.20596,202.03532 247.64981,202.91047 245.24124,204.42794 C 243.37515,205.60363 241.39633,206.36599 239.25714,206.32531 C 238.95769,205.79504 238.63388,205.2899 238.28687,204.80157 L 246.43237,192.53815 L 234.28964,200.76513 C 234.08942,200.6204 233.88347,200.47632 233.67771,200.34038 C 234.73128,198.00589 234.93824,195.81311 234.53417,193.72426 C 233.96295,190.77135 234.58141,188.26437 236.14164,185.64652 C 233.3846,187.28074 232.20691,189.71461 231.57679,192.49071 C 231.08805,194.64411 230.21637,196.59473 228.67144,198.07833 C 228.09403,197.91796 227.51182,197.77876 226.91906,197.67788 L 224.00222,183.23872 L 221.23763,197.64533 C 220.98985,197.6849 220.7428,197.73263 220.49541,197.7832 C 219.58915,195.38685 218.19022,193.68437 216.42676,192.49258 C 213.93484,190.80848 212.60914,188.60603 211.86131,185.65167 z"
       style="fill:#e20909;fill-opacity:1;fill-rule:nonzero;stroke:#000000;stroke-width:1.5;stroke-linecap:butt;stroke-linejoin:miter;marker:none;marker-start:none;marker-mid:none;marker-end:none;stroke-miterlimit:4;stroke-dasharray:none;stroke-dashoffset:0;stroke-opacity:1;visibility:visible;display:inline;overflow:visible" />
    <use
       x="0"
       y="0"
       xlink:href="#path2140"
       id="use6849"
       transform="translate(152,0)"
       width="600"
       height="660" />
    <path
       style="fill:#e20909;fill-opacity:1;fill-rule:nonzero;stroke:#000000;stroke-width:1.5;stroke-linecap:butt;stroke-linejoin:miter;marker:none;marker-start:none;marker-mid:none;marker-end:none;stroke-miterlimit:4;stroke-dasharray:none;stroke-dashoffset:0;stroke-opacity:1;visibility:visible;display:inline;overflow:visible"
       d="M 230,329.25 L 227.25,343.65625 C 227.00222,343.69583 226.74739,343.73068 226.5,343.78125 C 225.59374,341.3849 224.20096,339.69179 222.4375,338.5 C 219.94558,336.8159 218.62283,334.61061 217.875,331.65625 C 217.08104,334.76134 217.95128,337.31019 219.46875,339.71875 C 220.64214,341.58122 221.41168,343.55498 221.375,345.6875 C 220.84123,345.98848 220.33507,346.33836 219.84375,346.6875 L 207.5625,338.53125 L 215.8125,350.65625 C 215.66459,350.86049 215.51375,351.07121 215.375,351.28125 C 213.03982,350.2293 210.83885,350.03343 208.75,350.4375 C 205.79709,351.00871 203.30535,350.37274 200.6875,348.8125 C 202.32172,351.56953 204.75513,352.77613 207.53125,353.40625 C 209.68225,353.89448 211.61,354.74149 213.09375,356.28125 C 212.9323,356.86146 212.82015,357.43552 212.71875,358.03125 L 205.125,359.5625 C 205.80408,360.60758 206.49015,361.63468 207.1875,362.65625 L 212.6875,363.71875 C 212.72708,363.96654 212.76191,364.22139 212.8125,364.46875 C 211.58987,364.93133 210.54223,365.51663 209.65625,366.21875 C 210.55391,367.46315 211.48445,368.66698 212.40625,369.875 C 213.16574,369.68297 213.91906,369.57999 214.71875,369.59375 C 215.01973,370.12753 215.36963,370.63369 215.71875,371.125 L 214.65625,372.75 C 215.6626,374.01294 216.65862,375.27829 217.6875,376.5 L 219.6875,375.15625 C 219.89015,375.30293 220.10412,375.4561 220.3125,375.59375 C 219.85941,376.59952 219.56396,377.5732 219.40625,378.53125 C 220.50944,379.80294 221.65808,381.02415 222.78125,382.25 C 223.29937,380.57989 224.06602,379.0449 225.3125,377.84375 C 225.89388,378.00567 226.46553,378.14839 227.0625,378.25 L 229.25,389 C 229.65394,389.39986 230.06349,389.79317 230.46875,390.1875 L 232.75,378.28125 C 232.99782,378.24165 233.25264,378.20686 233.5,378.15625 C 234.40593,380.55272 235.79973,382.24617 237.5625,383.4375 C 240.05444,385.12161 241.40842,387.3269 242.15625,390.28125 C 242.95023,387.17615 242.04872,384.62731 240.53125,382.21875 C 239.35556,380.35264 238.58432,378.35795 238.625,376.21875 C 239.15529,375.91928 239.66791,375.59701 240.15625,375.25 L 252.4375,383.40625 L 244.1875,371.25 C 244.33225,371.04982 244.48904,370.86203 244.625,370.65625 C 246.96081,371.71125 249.16008,371.90427 251.25,371.5 C 254.20292,370.92878 256.69466,371.56476 259.3125,373.125 C 257.67827,370.36794 255.24487,369.16134 252.46875,368.53125 C 250.32017,368.04356 248.3886,367.19466 246.90625,365.65625 C 247.06731,365.07705 247.18005,364.46967 247.28125,363.875 L 261.71875,360.96875 L 247.3125,358.21875 C 247.27292,357.97095 247.23809,357.71613 247.1875,357.46875 C 249.58543,356.56315 251.277,355.16967 252.46875,353.40625 C 254.15287,350.91435 256.35818,349.59157 259.3125,348.84375 C 256.20742,348.04979 253.65857,348.92003 251.25,350.4375 C 249.38391,351.61318 247.38919,352.35318 245.25,352.3125 C 244.95055,351.78222 244.62826,351.30083 244.28125,350.8125 L 252.4375,338.53125 L 240.28125,346.75 C 240.08103,346.60526 239.89326,346.47969 239.6875,346.34375 C 240.74108,344.00925 240.93532,341.8076 240.53125,339.71875 C 239.96004,336.76583 240.59602,334.2741 242.15625,331.65625 C 239.3992,333.29048 238.19262,335.7239 237.5625,338.5 C 237.07375,340.65339 236.20118,342.61015 234.65625,344.09375 C 234.07885,343.93337 233.49901,343.78838 232.90625,343.6875 L 230,329.25 z"
       id="path6851" />
    <use
       x="0"
       y="0"
       xlink:href="#path6851"
       id="use6863"
       transform="matrix(-1,0,0,1,599.90625,0)"
       width="600"
       height="660" />
    <g
       id="g6997"
       transform="translate(9.388806e-2,-14)">
      <path
         sodipodi:nodetypes="csccccscccccccscccscccccccsccccscsccsssssccsc"
         id="path2983"
         d="M 110.53125,132.875 C 108.22829,143.47314 102.22495,154.05811 96.6875,164.65625 C 89.4276,178.55104 97.61224,195.74377 108.78125,211.28125 C 103.51104,237.02462 108.71398,264.06199 109.9375,291.09375 C 94.83133,269.84582 72.758568,253.86169 77.71875,211.28125 C 62.26788,258.80513 54.558198,216.60169 56.5625,193.09375 C 48.23061,209.55068 41.779808,233.0572 60.5,252.59375 C 72.3507,264.96127 88.863168,284.40917 108.53125,306.5 C 110.86145,324.16143 116.94948,342.89211 122.65625,361.09375 C 90.95071,348.21729 88.100668,326.93153 77.46875,307.90625 C 83.22493,333.31436 83.910978,359.9711 125.46875,376.5 C 139.59318,392.92569 144.21441,399.9056 153.46875,411.5 C 139.21632,415.8697 127.00751,403.92075 113.9375,398.90625 C 132.20338,415.48892 145.87278,435.96692 167.96875,427.21875 C 189.7423,449.48886 216.55016,471.73168 238.9375,492.8125 C 246.92045,500.32956 238.73576,511.94842 236.96875,523.5 C 255.4805,524.01868 287.191,534.66177 299.90625,541.78125 C 312.62152,534.66177 344.332,524.01868 362.84375,523.5 C 361.07676,511.94842 352.89205,500.32956 360.875,492.8125 C 383.26235,471.73168 410.0702,449.48886 431.84375,427.21875 C 453.93974,435.96692 467.60912,415.48892 485.875,398.90625 C 472.805,403.92075 460.59618,415.8697 446.34375,411.5 C 455.59811,399.9056 460.21932,392.92569 474.34375,376.5 C 515.90153,359.9711 516.58757,333.31436 522.34375,307.90625 C 511.71181,326.93153 508.86179,348.21729 477.15625,361.09375 C 482.86303,342.89211 488.95105,324.16143 491.28125,306.5 C 510.94934,284.40917 527.4618,264.96127 539.3125,252.59375 C 558.03267,233.0572 551.58189,209.55068 543.25,193.09375 C 545.25428,216.60169 537.54462,258.80513 522.09375,211.28125 C 527.05391,253.86169 504.98117,269.84582 489.875,291.09375 C 491.09853,264.06199 496.30146,237.02462 491.03125,211.28125 C 502.20027,195.74377 510.3849,178.55104 503.125,164.65625 C 497.58756,154.05811 491.58421,143.47314 489.28125,132.875 C 484.40731,144.99616 484.32568,156.71051 488.71875,167.1875 C 492.78749,176.89092 496.42703,188.91111 484,198.6875 C 477.52292,181.87002 470.48565,165.89639 452.9375,166.46875 C 497.36554,249.7129 480.03546,336.94222 437.25,391.25 C 426.62871,404.73167 412.66379,411.97653 400.375,428.375 C 369.21696,469.95309 333.75509,481.6875 299.90625,481.6875 C 266.05741,481.6875 230.59556,469.95309 199.4375,428.375 C 187.14871,411.97653 173.18381,404.73167 162.5625,391.25 C 119.77704,336.94222 102.44698,249.7129 146.875,166.46875 C 129.32685,165.89639 122.28959,181.87002 115.8125,198.6875 C 103.38547,188.91111 107.02502,176.89092 111.09375,167.1875 C 115.48682,156.71051 115.4052,144.99616 110.53125,132.875 z"
         style="fill:#ffffff;fill-opacity:1;fill-rule:evenodd;stroke:#313131;stroke-width:3;stroke-linecap:butt;stroke-linejoin:miter;stroke-miterlimit:4;stroke-dasharray:none;stroke-opacity:1" />
      <path
         sodipodi:nodetypes="czzzz"
         id="path6983"
         d="M 251.80273,512.74387 C 250.73889,514.92902 250.65696,516.45579 253.03004,517.60793 C 255.40311,518.76008 261.71898,517.03635 262.66054,514.54368 C 263.60209,512.05102 262.41747,510.98806 260.11998,510.11737 C 257.82249,509.24669 252.86657,510.55872 251.80273,512.74387 z"
         style="opacity:1;fill:#000000;fill-opacity:1;stroke:#313131;stroke-width:1.5;stroke-linecap:round;stroke-linejoin:round;stroke-miterlimit:4;stroke-dasharray:none;stroke-opacity:1" />
      <path
         sodipodi:nodetypes="cssscsssscsc"
         id="path6985"
         d="M 292.0937,512.28125 C 291.50019,512.34608 290.93504,512.58963 290.4687,513.03125 C 289.20053,514.23217 289.56496,515.64417 289.49995,517.34375 C 289.43493,519.04255 291.51203,521.13143 293.37495,522.5625 C 295.23784,523.99357 298.1693,524.4878 299.9999,524.5 C 301.8305,524.4878 304.7621,523.99357 306.6249,522.5625 C 308.4878,521.13143 310.5649,519.04255 310.4999,517.34375 C 310.4349,515.64417 310.7994,514.23217 309.5312,513.03125 C 308.2876,511.85361 306.3087,512.12268 305.1249,513.25 C 303.9542,514.36495 302.2891,515.2066 299.9999,515.156 C 297.7107,515.2066 296.0457,514.36495 294.87495,513.25 C 294.13512,512.54543 293.08288,512.1732 292.0937,512.28125 z"
         style="opacity:1;fill:#000000;fill-opacity:1;stroke:#313131;stroke-width:1.5;stroke-linecap:round;stroke-linejoin:round;stroke-miterlimit:4;stroke-dasharray:none;stroke-opacity:1" />
      <use
         height="660"
         width="600"
         transform="matrix(-1,0,0,1,600.07609,0)"
         id="use6995"
         xlink:href="#path6983"
         y="0"
         x="0" />
    </g>
  </g>
  <g
     inkscape:groupmode="layer"
     id="layer4"
     inkscape:label="Meubles">
    <path
       id="path6856"
       d="M 180.6,173.38 C 180.6,173.38 180.6,162.61188 180.6,276.7925 C 180.6,280.50438 180.73083,284.13865 180.975,287.705 C 188.24158,393.84232 300,435.905 300,435.905 C 300,435.905 411.7584,393.84232 419.025,287.705 C 419.26916,284.13865 419.4,280.50438 419.4,276.7925 C 419.4,162.61188 419.4,173.38 419.4,173.38 L 300,173.38 L 180.6,173.38 z"
       style="fill:none;fill-opacity:1;fill-rule:evenodd;stroke:#313131;stroke-width:3;stroke-linecap:butt;stroke-linejoin:miter;stroke-opacity:1;display:inline" />
  </g>
  <g
     inkscape:groupmode="layer"
     id="layer2"
     inkscape:label="Reflet final"
     sodipodi:insensitive="true">
    <path
       sodipodi:nodetypes="cccccc"
       d="M 300.00001,658.5 C 300.00001,658.5 598.50001,546.17969 598.50001,260.72817 C 598.50001,-24.723334 598.50001,2.1764865 598.50001,2.1764865 L 1.5,2.1764865 L 1.5,260.72817 C 1.5,546.17969 300.00001,658.5 300.00001,658.5 z"
       style="opacity:1;fill:url(#radialGradient3163);fill-opacity:1;fill-rule:evenodd;stroke:none;stroke-width:1px;stroke-linecap:butt;stroke-linejoin:miter;stroke-opacity:1"
       id="path2875"
       inkscape:export-xdpi="144"
       inkscape:export-ydpi="144" />
  </g>
  <g
     inkscape:groupmode="layer"
     id="layer1"
     inkscape:label="Contour final"
     sodipodi:insensitive="true">
    <path
       sodipodi:nodetypes="cccccc"
       d="M 299.99999,658.50028 C 299.99999,658.50028 1.5,546.17992 1.5,260.72828 C 1.5,-24.723336 1.5,2.1764957 1.5,2.1764957 L 598.49999,2.1764957 L 598.49999,260.72828 C 598.49999,546.17992 299.99999,658.50028 299.99999,658.50028 z"
       style="opacity:1;fill:none;fill-opacity:1;fill-rule:evenodd;stroke:#313131;stroke-width:3.00000048;stroke-linecap:butt;stroke-linejoin:miter;stroke-miterlimit:4;stroke-dasharray:none;stroke-opacity:1"
       id="path1411"
       inkscape:export-xdpi="144"
       inkscape:export-ydpi="144" />
  </g>
</svg>
