<?xml version="1.0" encoding="UTF-8" standalone="no"?>
<svg
   xmlns:dc="http://purl.org/dc/elements/1.1/"
   xmlns:cc="http://creativecommons.org/ns#"
   xmlns:rdf="http://www.w3.org/1999/02/22-rdf-syntax-ns#"
   xmlns:svg="http://www.w3.org/2000/svg"
   xmlns="http://www.w3.org/2000/svg"
   xmlns:xlink="http://www.w3.org/1999/xlink"
   xmlns:sodipodi="http://sodipodi.sourceforge.net/DTD/sodipodi-0.dtd"
   xmlns:inkscape="http://www.inkscape.org/namespaces/inkscape"
   height="660"
   width="600"
   version="1.0"
   id="svg2"
   sodipodi:version="0.32"
   inkscape:version="0.46"
   sodipodi:docname="Blason_Puy_Saint_Vincent.svg"
   sodipodi:docbase="C:\monAtelierGraphique\Blasons"
   inkscape:export-filename="/Users/olivier/Desktop/Blason Rouge/Blason_Vide_3D.png"
   inkscape:export-xdpi="144"
   inkscape:export-ydpi="144"
   inkscape:output_extension="org.inkscape.output.svg.inkscape">
  <metadata
     id="metadata49">
    <rdf:RDF>
      <cc:Work
         rdf:about="">
        <dc:format>image/svg+xml</dc:format>
        <dc:type
           rdf:resource="http://purl.org/dc/dcmitype/StillImage" />
        <dc:title>Blason de Puy-Saint-Vincent( Hautes-Alpes)</dc:title>
        <dc:date>2009-09-09</dc:date>
        <dc:creator>
          <cc:Agent>
            <dc:title>Aups alias MG05</dc:title>
          </cc:Agent>
        </dc:creator>
        <cc:license
           rdf:resource="http://creativecommons.org/licenses/publicdomain/" />
        <dc:language />
        <dc:subject>
          <rdf:Bag>
            <rdf:li>blason projet wikipédia</rdf:li>
          </rdf:Bag>
        </dc:subject>
        <dc:source>http://www.mairie-puy-saint-vincent.fr/
</dc:source>
      </cc:Work>
      <cc:License
         rdf:about="http://creativecommons.org/licenses/publicdomain/">
        <cc:permits
           rdf:resource="http://creativecommons.org/ns#Reproduction" />
        <cc:permits
           rdf:resource="http://creativecommons.org/ns#Distribution" />
        <cc:permits
           rdf:resource="http://creativecommons.org/ns#DerivativeWorks" />
      </cc:License>
    </rdf:RDF>
  </metadata>
  <sodipodi:namedview
     inkscape:window-height="750"
     inkscape:window-width="1280"
     inkscape:pageshadow="2"
     inkscape:pageopacity="0.0"
     guidetolerance="10.0"
     gridtolerance="10.0"
     objecttolerance="10.0"
     borderopacity="1.0"
     bordercolor="#666666"
     pagecolor="#ffffff"
     id="base"
     showgrid="false"
     height="660px"
     inkscape:zoom="0.22273864"
     inkscape:cx="-6.4407672"
     inkscape:cy="517.06339"
     inkscape:window-x="-8"
     inkscape:window-y="-8"
     inkscape:current-layer="layer4" />
  <desc
     id="desc4">Flag of Canton of Valais (Wallis)</desc>
  <defs
     id="defs6">
    <inkscape:perspective
       sodipodi:type="inkscape:persp3d"
       inkscape:vp_x="0 : 330 : 1"
       inkscape:vp_y="0 : 1000 : 0"
       inkscape:vp_z="600 : 330 : 1"
       inkscape:persp3d-origin="300 : 220 : 1"
       id="perspective2493" />
    <linearGradient
       id="linearGradient2893">
      <stop
         style="stop-color:white;stop-opacity:0.3137255;"
         offset="0"
         id="stop2895" />
      <stop
         id="stop2897"
         offset="0.19"
         style="stop-color:white;stop-opacity:0.25098041;" />
      <stop
         style="stop-color:#6b6b6b;stop-opacity:0.1254902;"
         offset="0.60000002"
         id="stop2901" />
      <stop
         style="stop-color:black;stop-opacity:0.1254902;"
         offset="1"
         id="stop2899" />
    </linearGradient>
    <linearGradient
       id="linearGradient2885">
      <stop
         id="stop2887"
         offset="0"
         style="stop-color:white;stop-opacity:1;" />
      <stop
         style="stop-color:white;stop-opacity:1;"
         offset="0.22857143"
         id="stop2891" />
      <stop
         id="stop2889"
         offset="1"
         style="stop-color:black;stop-opacity:1;" />
    </linearGradient>
    <linearGradient
       id="linearGradient2955">
      <stop
         id="stop2867"
         offset="0"
         style="stop-color:#fd0000;stop-opacity:1;" />
      <stop
         style="stop-color:#e77275;stop-opacity:0.65882355;"
         offset="0.5"
         id="stop2873" />
      <stop
         style="stop-color:black;stop-opacity:0.32291666;"
         offset="1"
         id="stop2959" />
    </linearGradient>
    <radialGradient
       inkscape:collect="always"
       xlink:href="#linearGradient2955"
       id="radialGradient2961"
       cx="225.52438"
       cy="218.90099"
       fx="225.52438"
       fy="218.90099"
       r="300"
       gradientTransform="matrix(-4.167939e-4,2.182867,-1.884232,-3.599562e-4,615.5972,-289.1214)"
       gradientUnits="userSpaceOnUse" />
    <polygon
       id="star"
       transform="scale(53,53)"
       points="0,-1 0.58778525,0.80901699 -0.95105652,-0.30901699 0.95105652,-0.30901699 -0.58778525,0.80901699 0,-1 " />
    <clipPath
       id="clip">
      <path
         d="M 0,-200 L 0,600 L 300,600 L 300,-200 L 0,-200 z "
         id="path10" />
    </clipPath>
    <radialGradient
       inkscape:collect="always"
       xlink:href="#linearGradient2955"
       id="radialGradient1911"
       gradientUnits="userSpaceOnUse"
       gradientTransform="matrix(-4.167939e-4,2.182867,-1.884232,-3.599562e-4,615.5972,-289.1214)"
       cx="225.52438"
       cy="218.90099"
       fx="225.52438"
       fy="218.90099"
       r="300" />
    <radialGradient
       inkscape:collect="always"
       xlink:href="#linearGradient2955"
       id="radialGradient2865"
       gradientUnits="userSpaceOnUse"
       gradientTransform="matrix(0,1.748721,-1.593162,-1.049767e-7,551.7876,-191.2898)"
       cx="225.52438"
       cy="218.90099"
       fx="225.52438"
       fy="218.90099"
       r="300" />
    <radialGradient
       inkscape:collect="always"
       xlink:href="#linearGradient2955"
       id="radialGradient2871"
       gradientUnits="userSpaceOnUse"
       gradientTransform="matrix(0,1.386237,-1.323286,-5.741131e-8,-158.0823,-109.5408)"
       cx="225.52438"
       cy="218.90099"
       fx="225.52438"
       fy="218.90099"
       r="300" />
    <radialGradient
       inkscape:collect="always"
       xlink:href="#linearGradient2893"
       id="radialGradient3163"
       gradientUnits="userSpaceOnUse"
       gradientTransform="matrix(1.353218,0,0,1.348928,-77.62935,-85.74693)"
       cx="221.44487"
       cy="226.33101"
       fx="221.44487"
       fy="226.33101"
       r="300" />
  </defs>
  <g
     inkscape:groupmode="layer"
     id="layer3"
     inkscape:label="Fond écu"
     style="display:inline"
     sodipodi:insensitive="true">
    <path
       id="path2855"
       style="fill:#ffffff;fill-opacity:1;fill-rule:evenodd;stroke:none;stroke-width:1px;stroke-linecap:butt;stroke-linejoin:miter;stroke-opacity:1"
       d="M 300,658.5 C 300,658.5 598.50001,546.17969 598.50001,260.72817 C 598.50001,-24.723354 598.50001,2.1764765 598.50001,2.1764765 L 1.5,2.1764765 L 1.5,260.72817 C 1.5,546.17969 300,658.5 300,658.5 z"
       sodipodi:nodetypes="cccccc" />
  </g>
  <g
     inkscape:groupmode="layer"
     id="layer4"
     inkscape:label="Meubles"
     style="display:inline"
     sodipodi:insensitive="true">
    <path
       style="fill:#5ab532;fill-opacity:1;fill-rule:evenodd;stroke:#000000;stroke-width:3;stroke-linecap:butt;stroke-linejoin:miter;stroke-miterlimit:4;stroke-dasharray:none;stroke-opacity:1;display:inline"
       d="M 285.71875,356.8125 C 239.8773,358.04103 149.42164,408.04432 117.46875,440.9375 C 103.94821,454.85591 88.63971,468.39694 72.125,481.4375 C 160.38915,605.9568 299.99999,658.49998 300,658.5 C 300,658.5 445.65055,603.69119 533.46875,473.34375 C 475.23643,433.89636 347.82427,355.14811 285.71875,356.8125 z"
       id="path3285" />
    <g
       transform="matrix(-1.2124535,0,0,1.2124535,639.15377,-113.42805)"
       id="layer8"
       style="fill:#000000;fill-opacity:1;stroke:#2d2d2d;stroke-width:0.9030357;stroke-opacity:1;display:inline">
      <g
         transform="translate(-852.02029,-3.6294794)"
         id="g5084"
         style="fill:#000000;fill-opacity:1;stroke:#2d2d2d;stroke-width:0.9030357;stroke-opacity:1">
        <g
           id="g5054"
           style="fill:#000000;fill-opacity:1;stroke:#2d2d2d;stroke-width:0.9030357;stroke-opacity:1">
          <path
             d="M 1117.9198,338.56141 C 1115.7738,343.77237 1110.6204,350.3414 1107.6182,355.02685 C 1103.8391,360.92491 1099.1006,366.40601 1094.1792,371.45328 C 1090.3111,375.42037 1085.9491,378.89957 1081.8341,382.62271 C 1083.4603,390.48638 1084.7145,398.44231 1086.5765,406.24747 C 1088.5964,412.64373 1090.3368,419.19393 1092.5304,425.49455 C 1096.3832,429.95573 1100.2361,434.41691 1104.089,438.87808 C 1108.1957,440.35308 1113.3638,441.73331 1115.4998,445.87073 C 1116.3709,448.36264 1117.242,450.85455 1118.113,453.34647 C 1111.8274,453.17567 1105.5417,453.00487 1099.256,452.83408 C 1097.8886,450.67127 1096.2147,448.63159 1096.1092,445.96195 C 1095.6273,444.43129 1096.1079,441.86502 1093.7299,442.3742 C 1091.001,442.03309 1088.2721,441.69197 1085.5432,441.35086 C 1082.6781,432.35857 1080.1077,423.25783 1077.0556,414.33432 C 1073.3412,405.67066 1072.9448,397.71786 1068.5033,389.39143 C 1066.7852,385.9554 1061.9154,381.73141 1060.1974,378.29538 C 1064.3025,373.8527 1069.8374,370.16241 1072.6365,365.03719 C 1074.9132,360.86843 1075.5711,355.66001 1076.3275,350.85623 C 1076.7735,348.0236 1076.4845,344.96065 1077.076,342.22397 C 1082.3712,336.11418 1087.6664,330.00439 1092.9615,323.89459 C 1096.8619,327.25037 1100.5688,330.87731 1104.588,334.06635 C 1107.7187,335.82735 1114.7891,336.8004 1117.9198,338.56141 z"
             id="path4524"
             style="fill:#000000;fill-opacity:1;fill-rule:evenodd;stroke:#2d2d2d;stroke-width:0.82477391px;stroke-linecap:butt;stroke-linejoin:miter;stroke-opacity:1" />
          <path
             d="M 1212.2724,335.08696 L 1211.036,381.45127 L 1210.4178,422.25187 L 1214.7451,436.47026 C 1219.8232,440.9084 1224.7131,445.44061 1227.1714,451.18866 C 1222.4977,451.23359 1224.8337,452.37807 1212.5236,451.22514 C 1210.4818,450.83853 1208.2967,449.87856 1206.0905,448.83408 L 1207.3268,440.17941 L 1198.6722,433.9975 L 1198.054,401.85157 L 1198.6722,383.30585 L 1191.8721,361.66917 L 1202.9995,340.65067 L 1212.2724,335.08696 z"
             id="path4526"
             style="fill:#000000;fill-opacity:1;fill-rule:evenodd;stroke:#2d2d2d;stroke-width:0.82477391px;stroke-linecap:butt;stroke-linejoin:miter;stroke-opacity:1" />
          <path
             d="M 1043.2215,277.67682 L 1030.0363,273.88517 C 1028.829,273.31906 1027.3282,268.18151 1030.0702,267.11635 C 1035.2302,265.13315 1043.5801,265.61529 1046.5972,265.84958 C 1049.07,266.0441 1051.5427,266.66999 1054.0155,267.08596 L 1043.2215,277.67682 z"
             id="path4528"
             style="fill:#000000;fill-opacity:1;fill-rule:evenodd;stroke:#2d2d2d;stroke-width:0.82477391px;stroke-linecap:butt;stroke-linejoin:miter;stroke-opacity:1" />
          <path
             d="M 1212.1531,136.49269 C 1212.1531,136.49269 1214.2603,133.41119 1215.4316,132.33999 C 1216.9347,130.96538 1219.1073,128.97256 1221.1142,128.62441 C 1222.7752,128.33627 1225.2084,128.95327 1226.5783,129.93579 C 1228.2783,131.1551 1229.7213,133.82484 1230.2939,135.837 C 1232.7169,144.351 1230.0753,165.34307 1230.0753,165.34307 L 1224.1741,165.7802 C 1224.1741,165.7802 1227.1352,144.74369 1223.737,136.71126 C 1223.3757,135.85724 1222.408,134.88048 1221.5513,134.52562 C 1220.5215,134.09907 1218.8839,134.14617 1217.8358,134.52562 C 1217.3543,134.69996 1216.9864,135.3975 1216.5244,135.61844 C 1215.3179,136.1954 1212.1531,136.49269 1212.1531,136.49269 z"
             id="path5045"
             style="fill:#000000;fill-opacity:1;fill-rule:evenodd;stroke:#2d2d2d;stroke-width:0.82477391px;stroke-linecap:butt;stroke-linejoin:miter;stroke-opacity:1" />
          <path
             d="M 1225.8196,134.78783 C 1224.99,133.4346 1227.9268,131.70633 1229.0981,130.63513 C 1230.6012,129.26052 1232.7738,127.2677 1234.7807,126.91955 C 1236.4417,126.63141 1238.8749,127.24841 1240.2448,128.23093 C 1241.9448,129.45024 1243.3878,132.11998 1243.9604,134.13214 C 1246.3834,142.64614 1243.7418,163.63821 1243.7418,163.63821 L 1237.8406,164.07534 C 1237.8406,164.07534 1240.8017,143.03883 1237.4035,135.0064 C 1237.0422,134.15238 1236.0745,133.17562 1235.2178,132.82076 C 1234.188,132.39421 1232.5504,132.44131 1231.5023,132.82076 C 1231.0208,132.9951 1230.6529,133.69264 1230.1909,133.91358 C 1228.9844,134.49054 1226.5186,135.928 1225.8196,134.78783 z"
             id="path5047"
             style="fill:#000000;fill-opacity:1;fill-rule:evenodd;stroke:#2d2d2d;stroke-width:0.82477391px;stroke-linecap:butt;stroke-linejoin:miter;stroke-opacity:1;display:inline" />
          <path
             d="M 1041.9106,344.66632 C 1045.7344,332.11559 1043.2726,318.54659 1042.1665,305.44402 C 1041.3285,295.51787 1038.7053,284.4294 1042.3949,275.36925 C 1047.1661,263.65323 1059.7975,256.03742 1071.2298,251.51422 C 1082.3604,247.11038 1096.2743,247.96808 1107.9482,250.80968 C 1122.8993,254.44902 1138.9418,256.39762 1153.1849,250.08312 C 1166.2035,244.31148 1179.9847,246.15689 1193.5868,247.44844 C 1207.785,247.12771 1206.5488,229.09742 1206.7956,218.96224 C 1208.1445,206.68334 1210.1682,194.53702 1213.7677,182.70032 C 1213.9472,174.88925 1212.2449,166.30256 1214.8599,159.14231 C 1216.9597,153.39256 1220.9389,149.3531 1222.2535,158.04448 C 1222.3181,160.24726 1222.4948,162.87035 1223.5494,162.54851 C 1227.1927,161.43654 1229.7202,162.08317 1233.139,161.20425 C 1236.4502,159.68471 1241.926,160.62314 1244.2791,160.24027 C 1244.2711,158.67307 1244.8214,157.46707 1244.4428,155.48121 C 1244.2497,146.44406 1250.5835,151.12839 1252.6011,156.03142 C 1253.3508,161.31197 1253.5785,166.87031 1257.5822,170.9789 C 1264.7299,182.73623 1273.065,193.70678 1283.8515,202.37183 C 1297.0336,211.65943 1294.0485,234.62046 1274.9686,226.59187 C 1261.6603,222.34829 1245.5484,226.87337 1243.931,242.86186 C 1241.7932,258.80035 1242.6113,275.27164 1237.8771,290.88372 C 1235.5665,305.67689 1232.3794,322.41992 1218.7132,331.06613 C 1203.454,337.01511 1198.922,353.50503 1193.5882,367.33611 C 1190.2316,375.6871 1186.5825,383.96815 1186.6987,393.14947 C 1185.848,408.89224 1181.3507,424.15573 1180.3853,439.86774 C 1185.384,446.21638 1190.9921,452.11426 1195.2219,459.03165 C 1191.1729,460.12121 1180.7961,462.4453 1177.2173,458.54359 C 1173.4434,454.42395 1173.9345,456.56586 1171.0253,452.02123 C 1169.7429,447.48213 1172.2018,440.55744 1166.3043,438.96102 C 1160.8362,436.65413 1167.8007,430.00797 1168.0819,425.69445 C 1172.9788,416.76306 1170.5533,406.50387 1171.1125,396.78592 C 1170.611,381.80732 1173.422,366.90249 1171.4418,351.95327 C 1172.6742,346.25129 1169.7211,342.08052 1165.1004,341.29671 C 1149.3939,338.63237 1130.5264,338.75073 1113.6207,339.1026 C 1107.3773,337.21218 1102.2749,333.63661 1098.166,328.59338 C 1093.9678,321.82236 1090.6819,328.66132 1087.1845,332.34489 C 1073.7089,348.47661 1057.919,362.50847 1043.9749,378.15654 C 1041.4627,382.93403 1037.2235,387.40472 1039.7531,393.07785 C 1042.4154,408.04292 1044.1905,423.31484 1047.2847,438.10931 C 1051.8765,446.25904 1055.8772,449.85591 1061.2972,457.44873 C 1056.8153,458.51481 1048.739,461.91422 1044.8141,458.46414 C 1041.0617,454.03364 1038.4917,458.41198 1039.829,451.56559 C 1040.114,446.22557 1039.761,441.19671 1034.3776,438.6214 C 1028.4214,435.66077 1031.2515,428.42014 1030.2283,423.05654 C 1030.3841,407.84026 1026.9429,393.00226 1024.6012,378.04865 C 1031.8629,367.65121 1038.2574,356.65731 1041.9106,344.66632 z"
             id="path4522"
             style="fill:#000000;fill-opacity:1;fill-rule:evenodd;stroke:#2d2d2d;stroke-width:0.82477391px;stroke-linecap:butt;stroke-linejoin:miter;stroke-opacity:1;display:inline" />
        </g>
        <path
           d="M 1226.3761,209.36304 C 1233.1141,221.39903 1248.4281,224.1443 1260.9612,225.4492"
           id="path4530"
           style="fill:#000000;fill-opacity:1;fill-rule:evenodd;stroke:#2d2d2d;stroke-width:0.82477391px;stroke-linecap:butt;stroke-linejoin:miter;stroke-opacity:1;display:inline" />
        <path
           d="M 1260.5636,192.87639 C 1260.5674,194.42795 1259.2873,195.86269 1257.2065,196.63917 C 1255.1258,197.41565 1252.561,197.41565 1250.4803,196.63917 C 1248.3995,195.86269 1247.1194,194.42795 1247.1232,192.87639 C 1247.1194,191.32483 1248.3995,189.89009 1250.4803,189.11361 C 1252.561,188.33713 1255.1258,188.33713 1257.2065,189.11361 C 1259.2873,189.89009 1260.5674,191.32483 1260.5636,192.87639 z"
           transform="matrix(0.7703616,0.6544365,-0.467858,0.5507331,382.07217,-737.32011)"
           id="path5082"
           style="fill:#000000;fill-opacity:1;fill-rule:evenodd;stroke:#2d2d2d;stroke-width:0.82477391;stroke-linecap:round;stroke-linejoin:round;stroke-miterlimit:4;stroke-dasharray:none;stroke-opacity:1" />
        <path
           d="M 1286.2095,209.35332 C 1284.4279,209.63696 1283.2682,213.51768 1284.2425,215.03597 C 1285.3454,216.75463 1290.0225,217.47476 1291.0179,215.69166 C 1292.1813,213.60763 1288.5666,208.97806 1286.2095,209.35332 z"
           id="path5051"
           style="fill:#000000;fill-opacity:1;fill-rule:evenodd;stroke:#2d2d2d;stroke-width:0.82477391px;stroke-linecap:butt;stroke-linejoin:miter;stroke-opacity:1;display:inline" />
        <path
           d="M 1222.6551,162.30693 L 1226.1583,171.43766"
           id="path5070"
           style="fill:#000000;fill-opacity:1;fill-rule:evenodd;stroke:#2d2d2d;stroke-width:0.82477391px;stroke-linecap:butt;stroke-linejoin:miter;stroke-opacity:1" />
        <path
           d="M 1242.1148,160.39855 C 1246.2607,161.57864 1250.8998,161.11458 1254.0244,165.69868"
           id="path5072"
           style="fill:#000000;fill-opacity:1;fill-rule:evenodd;stroke:#2d2d2d;stroke-width:0.82477391px;stroke-linecap:butt;stroke-linejoin:miter;stroke-opacity:1" />
        <path
           d="M 1038.261,441.86919 L 1047.2967,438.41681"
           id="path5074"
           style="fill:#000000;fill-opacity:1;fill-rule:evenodd;stroke:#2d2d2d;stroke-width:0.82477391px;stroke-linecap:butt;stroke-linejoin:miter;stroke-opacity:1" />
        <path
           d="M 1095.7193,442.84241 L 1104.4157,439.07455"
           id="path5076"
           style="fill:#000000;fill-opacity:1;fill-rule:evenodd;stroke:#2d2d2d;stroke-width:0.82477391px;stroke-linecap:butt;stroke-linejoin:miter;stroke-opacity:1" />
        <path
           d="M 1169.5109,440.89003 L 1180.5585,439.94955"
           id="path5078"
           style="fill:#000000;fill-opacity:1;fill-rule:evenodd;stroke:#2d2d2d;stroke-width:0.82477391px;stroke-linecap:butt;stroke-linejoin:miter;stroke-opacity:1" />
        <path
           d="M 1207.2965,440.35729 L 1214.5465,436.21444"
           id="path5080"
           style="fill:#000000;fill-opacity:1;fill-rule:evenodd;stroke:#2d2d2d;stroke-width:0.82477391px;stroke-linecap:butt;stroke-linejoin:miter;stroke-opacity:1" />
      </g>
      <path
         d="M 432.01609,224.63652 C 425.50278,222.68642 422.17828,220.87562 419.34046,218.78623"
         id="path2455"
         style="fill:#000000;fill-opacity:1;fill-rule:evenodd;stroke:#2d2d2d;stroke-width:0.82477391px;stroke-linecap:butt;stroke-linejoin:miter;stroke-opacity:1" />
      <path
         d="M 404.36651,181.10758 L 398.37692,180.13252"
         id="path2458"
         style="fill:#000000;fill-opacity:1;fill-rule:evenodd;stroke:#2d2d2d;stroke-width:0.82477391px;stroke-linecap:butt;stroke-linejoin:miter;stroke-opacity:1" />
      <path
         d="M 402.69501,185.42564 C 402.69501,187.27194 401.22947,188.76867 399.42163,188.76867 C 397.61379,188.76867 396.14825,187.27194 396.14825,185.42564 C 396.14825,183.57934 397.61379,182.08261 399.42163,182.08261 C 401.22947,182.08261 402.69501,183.57934 402.69501,185.42564 z"
         transform="matrix(0.8510638,0,0,0.8541667,67.358363,28.92169)"
         id="path2460"
         style="fill:#000000;fill-opacity:1;stroke:#2d2d2d;stroke-width:0.96734756;stroke-miterlimit:4;stroke-dasharray:none;stroke-opacity:1" />
    </g>
    <path
       style="fill:none;fill-rule:evenodd;stroke:#000000;stroke-width:3;stroke-linecap:butt;stroke-linejoin:miter;stroke-miterlimit:4;stroke-dasharray:none;stroke-opacity:1"
       d="M 285.0875,478.17254 C 285.0875,478.17254 274.42832,512.52983 282.84271,523.06821 C 291.37431,533.7534 316.51446,530.92495 327.73838,530.92495 C 338.9623,530.92495 367.39931,532.35684 372.63405,545.51604 C 375.75302,553.35657 363.35723,562.88541 359.16535,570.20866 C 358.18998,571.91264 355.79817,575.82062 355.79817,575.82062"
       id="path3708"
       sodipodi:nodetypes="csssss" />
    <path
       style="fill:none;fill-rule:evenodd;stroke:#000000;stroke-width:3;stroke-linecap:butt;stroke-linejoin:miter;stroke-miterlimit:4;stroke-dasharray:none;stroke-opacity:1"
       d="M 153.76767,457.96949 C 153.76767,457.96949 136.93179,500.62037 136.93179,506.23233 C 136.93179,511.84429 111.11678,514.08908 111.11678,514.08908 C 111.11678,514.08908 111.11678,514.08908 111.11678,514.08908"
       id="path3710"
       sodipodi:nodetypes="csss" />
    <path
       style="fill:none;fill-rule:evenodd;stroke:#000000;stroke-width:3;stroke-linecap:butt;stroke-linejoin:miter;stroke-miterlimit:4;stroke-dasharray:none;stroke-opacity:1"
       d="M 389.46993,463.58145 C 399.57145,463.58145 417.52972,455.72471 425.38646,461.33667 C 433.2432,466.94862 438.94703,492.26325 450.07908,500.62038 C 457.92063,506.50725 481.50605,509.59951 481.50605,509.59951"
       id="path3712"
       sodipodi:nodetypes="csss" />
  </g>
  <g
     inkscape:groupmode="layer"
     id="layer2"
     inkscape:label="Reflet final"
     style="display:inline"
     sodipodi:insensitive="true">
    <path
       sodipodi:nodetypes="cccccc"
       d="M 300.00001,658.5 C 300.00001,658.5 598.50001,546.17969 598.50001,260.72817 C 598.50001,-24.723334 598.50001,2.1764865 598.50001,2.1764865 L 1.5,2.1764865 L 1.5,260.72817 C 1.5,546.17969 300.00001,658.5 300.00001,658.5 z"
       style="opacity:1;fill:url(#radialGradient3163);fill-opacity:1;fill-rule:evenodd;stroke:none;stroke-width:1px;stroke-linecap:butt;stroke-linejoin:miter;stroke-opacity:1"
       id="path2875"
       inkscape:export-xdpi="144"
       inkscape:export-ydpi="144" />
  </g>
  <g
     inkscape:groupmode="layer"
     id="layer1"
     inkscape:label="Contour final"
     style="display:inline"
     sodipodi:insensitive="true">
    <path
       sodipodi:nodetypes="cccccc"
       d="M 299.99999,658.50028 C 299.99999,658.50028 1.5,546.17992 1.5,260.72828 C 1.5,-24.723336 1.5,2.1764957 1.5,2.1764957 L 598.49999,2.1764957 L 598.49999,260.72828 C 598.49999,546.17992 299.99999,658.50028 299.99999,658.50028 z"
       style="opacity:1;fill:none;fill-opacity:1;fill-rule:evenodd;stroke:#000000;stroke-width:3.00000048;stroke-linecap:butt;stroke-linejoin:miter;stroke-miterlimit:4;stroke-dasharray:none;stroke-opacity:1"
       id="path1411"
       inkscape:export-xdpi="144"
       inkscape:export-ydpi="144" />
    <path
       inkscape:export-ydpi="144"
       inkscape:export-xdpi="144"
       id="path7128"
       style="opacity:1;fill:none;fill-opacity:1;fill-rule:evenodd;stroke:#000000;stroke-width:3.00000048;stroke-linecap:butt;stroke-linejoin:miter;stroke-miterlimit:4;stroke-dasharray:none;stroke-opacity:1"
       d="M 299.99999,658.50028 C 299.99999,658.50028 1.5,546.17992 1.5,260.72828 C 1.5,-24.723336 1.5,2.1764957 1.5,2.1764957 L 598.49999,2.1764957 L 598.49999,260.72828 C 598.49999,546.17992 299.99999,658.50028 299.99999,658.50028 z"
       sodipodi:nodetypes="cccccc" />
  </g>
</svg>
