<?xml version="1.0" encoding="UTF-8" standalone="no"?>
<!-- Created with Inkscape (http://www.inkscape.org/) -->
<svg
   xmlns:svg="http://www.w3.org/2000/svg"
   xmlns="http://www.w3.org/2000/svg"
   xmlns:xlink="http://www.w3.org/1999/xlink"
   version="1.0"
   width="600"
   height="660"
   id="svg2">
  <defs
     id="defs6">
    <linearGradient
       id="linearGradient2893">
      <stop
         style="stop-color:#ffffff;stop-opacity:0.3137255"
         offset="0"
         id="stop2895" />
      <stop
         style="stop-color:#ffffff;stop-opacity:0.25098041"
         offset="0.19"
         id="stop2897" />
      <stop
         style="stop-color:#6b6b6b;stop-opacity:0.1254902"
         offset="0.60000002"
         id="stop2901" />
      <stop
         style="stop-color:#000000;stop-opacity:0.1254902"
         offset="1"
         id="stop2899" />
    </linearGradient>
    <radialGradient
       cx="221.44487"
       cy="226.33101"
       r="300"
       fx="221.44487"
       fy="226.33101"
       id="radialGradient3163"
       xlink:href="#linearGradient2893"
       gradientUnits="userSpaceOnUse"
       gradientTransform="matrix(1.353218,0,0,1.348928,-77.62935,-85.74693)" />
    <linearGradient
       id="linearGradient2295">
      <stop
         style="stop-color:#ffffff;stop-opacity:0.3137255"
         offset="0"
         id="stop2297" />
      <stop
         style="stop-color:#ffffff;stop-opacity:0.25098041"
         offset="0.19"
         id="stop2299" />
      <stop
         style="stop-color:#6b6b6b;stop-opacity:0.1254902"
         offset="0.60000002"
         id="stop2301" />
      <stop
         style="stop-color:#000000;stop-opacity:0.1254902"
         offset="1"
         id="stop2303" />
    </linearGradient>
  </defs>
  <g
     style="display:inline"
     id="layer3">
    <path
       d="M 300,658.5 C 300,658.5 598.50001,546.17969 598.50001,260.72817 C 598.50001,-24.723354 598.50001,2.1764765 598.50001,2.1764765 L 1.5,2.1764765 L 1.5,260.72817 C 1.5,546.17969 300,658.5 300,658.5 z "
       style="fill:#0169c9;fill-opacity:1;fill-rule:evenodd;stroke:none;stroke-width:1px;stroke-linecap:butt;stroke-linejoin:miter;stroke-opacity:1"
       id="path2855" />
  </g>
  <g
     id="layer4">
    <g
       id="g3864">
      <path
         d="M 58.230771,352.1144 C 76.665181,513.5463 207.46104,483.62584 237.3355,552.22264 L 251.91594,553.14234 C 220.77101,460.14589 102.86111,528.70501 71.412398,352.38936 L 58.230771,352.1144 z "
         style="fill:#f2d207;fill-rule:evenodd;stroke:#000000;stroke-width:3;stroke-linecap:butt;stroke-linejoin:miter;stroke-miterlimit:4;stroke-dasharray:none;stroke-opacity:1"
         id="path3555" />
      <use
         transform="translate(9,0)"
         id="use3262"
         x="0"
         y="0"
         width="600"
         height="660"
         xlink:href="#path5895" />
      <use
         transform="translate(18,0)"
         id="use3264"
         x="0"
         y="0"
         width="600"
         height="660"
         xlink:href="#path5895" />
      <path
         d="M 42.56256,92.664293 L 42.53131,168.13305 L 42.56256,92.664293 z M 69.218811,92.491782 C 69.313578,101.75218 69.479679,140.08386 69.781311,147.99935 L 69.218811,92.491782 z "
         style="fill:none;fill-opacity:0.75;fill-rule:evenodd;stroke:#000000;stroke-width:3.00000024;stroke-linecap:round;stroke-linejoin:round;stroke-miterlimit:4;stroke-dasharray:none;stroke-opacity:1"
         id="path5895" />
      <use
         transform="matrix(0.9784989,-0.2062521,0.2062521,0.9784989,-51.176148,-23.787103)"
         id="use3291"
         x="0"
         y="0"
         width="600"
         height="660"
         xlink:href="#use3271" />
      <use
         transform="translate(-2.3266756,-34.706245)"
         id="use3287"
         x="0"
         y="0"
         width="600"
         height="660"
         xlink:href="#use3271" />
      <path
         d="M 65.496762,222.24107 C 57.785396,220.57154 53.479412,210.64141 56.568712,202.32399 C 61.120513,190.06902 73.163664,194.18331 82.439657,180.21519 C 85.233009,176.00886 84.796508,168.44621 86.180041,164.88037 C 89.256017,167.05084 93.328363,179.58297 94.11527,185.90528 C 96.481581,204.91711 88.012629,227.11579 65.496762,222.24107 z "
         style="fill:#f2d207;fill-opacity:1;fill-rule:evenodd;stroke:#000000;stroke-width:3;stroke-linecap:round;stroke-linejoin:round;stroke-miterlimit:4;stroke-dasharray:none;stroke-opacity:1"
         id="use3271" />
      <use
         transform="translate(2.233384e-8,35.287914)"
         id="use3277"
         x="0"
         y="0"
         width="600"
         height="660"
         xlink:href="#use3271" />
      <use
         transform="translate(-1.439629e-8,68.830821)"
         id="use3279"
         x="0"
         y="0"
         width="600"
         height="660"
         xlink:href="#use3271" />
      <use
         transform="translate(0.7755586,104.11873)"
         id="use3281"
         x="0"
         y="0"
         width="600"
         height="660"
         xlink:href="#use3271" />
      <use
         transform="translate(3.8777927,139.11867)"
         id="use3283"
         x="0"
         y="0"
         width="600"
         height="660"
         xlink:href="#use3271" />
      <use
         transform="matrix(0.9923977,-0.1230725,0.1230725,0.9923977,-12.321864,182.49234)"
         id="use3285"
         x="0"
         y="0"
         width="600"
         height="660"
         xlink:href="#use3271" />
      <use
         transform="matrix(-0.9976342,-6.8746346e-2,-6.8746346e-2,0.9976342,144.01722,-12.414968)"
         id="use3289"
         x="0"
         y="0"
         width="600"
         height="660"
         xlink:href="#use3271" />
      <use
         transform="matrix(-1,0,0,1,131.44635,15.898949)"
         id="use3293"
         x="0"
         y="0"
         width="600"
         height="660"
         xlink:href="#use3271" />
      <use
         transform="matrix(-1,0,0,1,131.44636,47.115182)"
         id="use3295"
         x="0"
         y="0"
         width="600"
         height="660"
         xlink:href="#use3271" />
      <use
         transform="matrix(-1,0,0,1,132.02802,83.566434)"
         id="use3297"
         x="0"
         y="0"
         width="600"
         height="660"
         xlink:href="#use3271" />
      <use
         transform="matrix(-1,0,0,1,131.44636,117.49712)"
         id="use3396"
         x="0"
         y="0"
         width="600"
         height="660"
         xlink:href="#use3271" />
      <use
         transform="matrix(-0.993785,0.1113163,0.1113163,0.993785,110.94672,147.23023)"
         id="use3398"
         x="0"
         y="0"
         width="600"
         height="660"
         xlink:href="#use3271" />
      <use
         transform="matrix(-0.9591391,0.2829349,0.2829349,0.9591391,86.05103,172.86952)"
         id="use3400"
         x="0"
         y="0"
         width="600"
         height="660"
         xlink:href="#use3271" />
    </g>
    <g
       id="g3797">
      <path
         d="M 284.43563,108.33491 C 278.56592,139.021 254.74636,141.29957 235.01843,121.52226 L 226.8285,140.40097 C 251.68146,167.22609 268.64657,201.4224 274.02471,239.37546 C 231.45417,233.34564 193.58204,212.73452 165.57757,182.77399 L 156.17297,200.36869 C 177.13837,218.43084 171.28909,245.2208 142.88174,250.30708 L 142.98581,281.50556 C 172.96971,289.32463 176.17227,310.76102 156.17297,330.43761 L 165.9246,348.62226 C 193.86843,318.89185 231.54322,298.43198 273.8859,292.40247 C 267.67843,334.59292 247.14863,372.12094 217.38926,399.91409 L 235.05319,409.28405 C 253.08999,388.32171 279.80931,394.17917 284.9215,422.54079 L 316.11963,422.43663 C 316.11963,422.4363 316.15427,422.43697 316.15427,422.43663 C 323.98706,392.44819 345.36655,389.36889 365.05101,409.28405 L 383.27008,399.53229 C 353.76801,371.80411 333.39366,334.48088 327.18986,292.54129 C 369.1181,298.74874 406.4593,319.09404 434.17959,348.58751 L 443.89644,330.3682 C 421.59559,310.03883 429.04449,290.67733 457.11827,281.01972 L 457.11827,249.82123 C 426.43494,243.9684 424.05525,220.14207 443.89644,200.43809 L 424.98321,192.24806 C 398.41018,216.84421 364.57405,233.71022 327.05104,239.23665 C 333.0845,196.89406 353.5649,159.20697 383.30483,131.27394 L 365.08566,121.52226 C 347.33464,142.77991 320.7246,136.39015 315.63379,108.33491 L 284.43563,108.33491 z "
         style="fill:#f2d207;fill-opacity:1;fill-rule:evenodd;stroke:#000000;stroke-width:3;stroke-linecap:round;stroke-linejoin:round;stroke-miterlimit:4;stroke-dasharray:none;stroke-opacity:1"
         id="path14367" />
      <path
         d="M 299.94959,123.56259 C 293.85016,139.81937 278.68035,151.59355 260.58555,152.70744 C 281.22052,183.59726 293.57837,220.40497 294.60468,260.07614 C 254.96219,259.05059 218.17987,246.6432 187.30322,226.02339 C 186.38129,244.34513 174.50487,259.81467 158.09113,265.95889 C 174.20603,272.00531 185.98097,286.9987 187.2696,304.88593 C 218.15459,284.24994 254.94488,271.79207 294.60468,270.76594 C 293.57925,310.41143 281.22847,347.22474 260.61916,378.10102 C 278.92951,379.03252 294.34594,390.9066 300.48744,407.31311 C 306.53378,391.19778 321.52755,379.42329 339.41447,378.13464 C 318.77862,347.24883 306.32004,310.42481 305.29449,270.76594 C 344.96107,271.7856 381.84321,284.22097 412.73042,304.85231 C 413.83803,286.74606 425.64196,271.51034 441.90888,265.42104 C 425.65805,259.32375 413.85157,244.10985 412.73042,226.02339 C 381.8431,246.65475 344.96097,259.05675 305.29449,260.07614 C 306.32047,220.40728 318.76919,183.59814 339.41447,152.70744 C 321.30012,151.60685 306.04091,139.83544 299.94959,123.56259 z "
         style="fill:#d40000;fill-rule:evenodd;stroke:#000000;stroke-width:3;stroke-linecap:round;stroke-linejoin:round;stroke-miterlimit:4;stroke-dasharray:none;stroke-opacity:1"
         id="path2374" />
      <path
         d="M 299.9843,81.937851 C 290.19031,81.937852 282.26552,89.862526 282.26551,99.65665 C 282.26549,109.45076 290.19031,117.40686 299.9843,117.40686 C 309.77829,117.40686 317.73452,109.45076 317.73452,99.65665 C 317.7345,89.862526 309.7783,81.93785 299.9843,81.937851 z M 227.28697,114.35948 C 217.49298,114.35948 209.53677,122.31556 209.53676,132.10969 C 209.53677,141.90381 217.49298,149.8599 227.28697,149.8599 C 237.08096,149.8599 245.03718,141.90381 245.03718,132.10969 C 245.03718,122.31556 237.08097,114.35948 227.28697,114.35948 z M 372.71305,114.92497 C 362.91905,114.92497 354.96285,122.88107 354.96284,132.67518 C 354.96285,142.4693 362.91907,150.42539 372.71305,150.42539 C 382.50703,150.4254 390.46326,142.4693 390.46326,132.67518 C 390.46326,122.88106 382.50705,114.92497 372.71305,114.92497 z "
         style="fill:#f2d207;fill-opacity:1;fill-rule:evenodd;stroke:#000000;stroke-width:3;stroke-linecap:round;stroke-linejoin:round;stroke-miterlimit:4;stroke-dasharray:none;stroke-opacity:1"
         id="path2745" />
      <use
         transform="matrix(0,-1,1,0,34.562157,565.43786)"
         id="use3791"
         x="0"
         y="0"
         width="600"
         height="660"
         xlink:href="#path2745" />
      <use
         transform="matrix(0,1,-1,0,565.43786,-34.562159)"
         id="use3793"
         x="0"
         y="0"
         width="600"
         height="660"
         xlink:href="#path2745" />
      <use
         transform="matrix(-1,0,0,-1,600.00002,530.8757)"
         id="use3795"
         x="0"
         y="0"
         width="600"
         height="660"
         xlink:href="#path2745" />
    </g>
    <use
       transform="matrix(-1,0,0,1,600,0)"
       id="use3885"
       x="0"
       y="0"
       width="600"
       height="660"
       xlink:href="#g3864" />
  </g>
  <g
     id="layer2">
    <path
       d="M 300.00001,658.5 C 300.00001,658.5 598.50001,546.17969 598.50001,260.72817 C 598.50001,-24.723334 598.50001,2.1764865 598.50001,2.1764865 L 1.5,2.1764865 L 1.5,260.72817 C 1.5,546.17969 300.00001,658.5 300.00001,658.5 z "
       style="opacity:1;fill:url(#radialGradient3163);fill-opacity:1;fill-rule:evenodd;stroke:none;stroke-width:1px;stroke-linecap:butt;stroke-linejoin:miter;stroke-opacity:1"
       id="path2875" />
  </g>
  <g
     id="layer1">
    <path
       d="M 299.99999,658.50028 C 299.99999,658.50028 1.5,546.17992 1.5,260.72828 C 1.5,-24.723336 1.5,2.1764957 1.5,2.1764957 L 598.49999,2.1764957 L 598.49999,260.72828 C 598.49999,546.17992 299.99999,658.50028 299.99999,658.50028 z "
       style="opacity:1;fill:none;fill-opacity:1;fill-rule:evenodd;stroke:#000000;stroke-width:3.00000048;stroke-linecap:butt;stroke-linejoin:miter;stroke-miterlimit:4;stroke-dasharray:none;stroke-opacity:1"
       id="path1411" />
  </g>
</svg>
