<?xml version="1.0" encoding="UTF-8" standalone="no"?>
<!-- Created with Inkscape (http://www.inkscape.org/) -->
<svg
   xmlns:svg="http://www.w3.org/2000/svg"
   xmlns="http://www.w3.org/2000/svg"
   xmlns:xlink="http://www.w3.org/1999/xlink"
   version="1.0"
   width="600"
   height="660"
   id="svg2">
  <defs
     id="defs6">
    <linearGradient
       id="linearGradient2893">
      <stop
         style="stop-color:#ffffff;stop-opacity:0.3137255"
         offset="0"
         id="stop2895" />
      <stop
         style="stop-color:#ffffff;stop-opacity:0.25098041"
         offset="0.19"
         id="stop2897" />
      <stop
         style="stop-color:#6b6b6b;stop-opacity:0.1254902"
         offset="0.60000002"
         id="stop2901" />
      <stop
         style="stop-color:#000000;stop-opacity:0.1254902"
         offset="1"
         id="stop2899" />
    </linearGradient>
    <radialGradient
       cx="221.44487"
       cy="226.33101"
       r="300"
       fx="221.44487"
       fy="226.33101"
       id="radialGradient3163"
       xlink:href="#linearGradient2893"
       gradientUnits="userSpaceOnUse"
       gradientTransform="matrix(1.353218,0,0,1.348928,-77.62935,-85.74693)" />
  </defs>
  <g
     style="display:inline"
     id="layer3">
    <path
       d="M 300,658.5 C 300,658.5 598.50001,546.17969 598.50001,260.72817 C 598.50001,-24.723354 598.50001,2.1764765 598.50001,2.1764765 L 1.5,2.1764765 L 1.5,260.72817 C 1.5,546.17969 300,658.5 300,658.5 z "
       style="fill:#ffffff;fill-opacity:1;fill-rule:evenodd;stroke:none;stroke-width:1px;stroke-linecap:butt;stroke-linejoin:miter;stroke-opacity:1"
       id="path2855" />
  </g>
  <g
     id="layer4">
    <g
       transform="matrix(1,0,0,1.068768,4.1858394,-21.122064)"
       style="fill:#000000;fill-opacity:1;stroke:#bababa;stroke-width:2.1280458;stroke-miterlimit:4;stroke-dasharray:none;stroke-opacity:0.94117647"
       id="g2209">
      <path
         d="M 128.60923,230.96389 C 128.23233,215.91193 124.17731,201.92226 116.62679,188.6649 C 96.859298,150.47724 36.481946,151.38928 49.791373,198.09396 C 54.695745,215.3041 71.356431,225.41903 91.149278,227.15394 C 89.720687,222.61927 81.862654,206.58797 88.206033,203.45175 C 98.349313,203.80364 110.94467,219.90044 113.97364,227.57647 C 114.4109,228.67849 114.28859,229.95199 114.77684,231.03603"
         style="fill:#000000;fill-opacity:1;fill-rule:evenodd;stroke:#bababa;stroke-width:2.1280458;stroke-linecap:butt;stroke-linejoin:miter;stroke-miterlimit:4;stroke-dasharray:none;stroke-opacity:0.94117647"
         id="path1902" />
      <path
         d="M 140.01316,85.135052 C 119.1874,105.74888 105.20459,129.58484 111.23247,157.54055 C 114.55805,172.96371 122.62022,187.24792 128.30576,202.10596 C 131.86071,211.42776 132.76972,221.16549 132.34878,230.96339 L 150.01737,230.96339 C 149.17165,221.09342 151.02452,211.52814 154.06039,202.10596 C 159.47733,187.15547 167.71923,172.97539 171.13368,157.54055 C 177.51733,128.68362 162.5332,106.92044 142.44394,85.226157 L 141.2162,83.788337 L 140.01316,85.135052 z "
         style="fill:#000000;fill-opacity:1;fill-rule:nonzero;stroke:#bababa;stroke-width:2.1280458;stroke-linecap:butt;stroke-linejoin:miter;stroke-miterlimit:4;stroke-dasharray:none;stroke-opacity:0.94117647"
         id="path3734" />
      <path
         d="M 123.53516,242.38944 C 119.84127,251.89592 104.77999,269.30593 96.780117,274.26851 C 94.705282,275.5556 106.69804,273.52715 112.06753,272.44642 C 119.11023,271.02892 128.26408,264.13825 128.04946,266.57016 C 128.02944,277.70638 131.43892,296.28835 140.32734,304.82656 L 141.16924,305.64957 L 142.03881,304.82656 C 150.92259,295.31014 154.27208,278.5782 154.31669,266.57016 C 154.10207,264.13825 163.25592,271.02892 170.29862,272.44642 C 175.66811,273.52715 187.66087,275.5556 185.58603,274.26851 C 177.58616,269.30593 162.53315,251.89592 158.83926,242.38944 L 123.53516,242.38944 z "
         style="fill:#000000;fill-opacity:1;fill-rule:evenodd;stroke:#bababa;stroke-width:2.1280458;stroke-linecap:butt;stroke-linejoin:miter;stroke-miterlimit:4;stroke-dasharray:none;stroke-opacity:0.94117647"
         id="path6395" />
      <path
         d="M 153.75392,229.96877 C 154.13082,214.91681 158.18584,200.92714 165.73636,187.66978 C 185.50385,149.48212 245.8812,150.39416 232.57178,197.09884 C 227.66741,214.30898 211.00672,224.42391 191.21387,226.15883 C 192.64246,221.62415 200.5005,205.59285 194.15712,202.45663 C 184.01384,202.80852 171.41848,218.90532 168.38951,226.58135 C 167.95225,227.68337 168.07456,228.95688 167.5863,230.04092"
         style="fill:#000000;fill-opacity:1;fill-rule:evenodd;stroke:#bababa;stroke-width:2.1280458;stroke-linecap:butt;stroke-linejoin:miter;stroke-miterlimit:4;stroke-dasharray:none;stroke-opacity:0.94117647;display:inline"
         id="path1876" />
      <rect
         width="84.104828"
         height="12.512532"
         x="99.196327"
         y="230.47975"
         style="fill:#000000;fill-opacity:1;stroke:#bababa;stroke-width:2.1280458;stroke-miterlimit:4;stroke-dasharray:none;stroke-opacity:0.94117647"
         id="rect4623" />
    </g>
    <use
       transform="translate(309.26518,0)"
       id="use2216"
       x="0"
       y="0"
       width="600"
       height="660"
       xlink:href="#g2209" />
    <use
       transform="translate(154.63258,241.08626)"
       id="use2218"
       x="0"
       y="0"
       width="600"
       height="660"
       xlink:href="#g2209" />
  </g>
  <g
     id="layer2">
    <path
       d="M 300.00001,658.5 C 300.00001,658.5 598.50001,546.17969 598.50001,260.72817 C 598.50001,-24.723334 598.50001,2.1764865 598.50001,2.1764865 L 1.5,2.1764865 L 1.5,260.72817 C 1.5,546.17969 300.00001,658.5 300.00001,658.5 z "
       style="opacity:1;fill:url(#radialGradient3163);fill-opacity:1;fill-rule:evenodd;stroke:none;stroke-width:1px;stroke-linecap:butt;stroke-linejoin:miter;stroke-opacity:1"
       id="path2875" />
  </g>
  <g
     id="layer1">
    <path
       d="M 299.99999,658.50028 C 299.99999,658.50028 1.5,546.17992 1.5,260.72828 C 1.5,-24.723336 1.5,2.1764957 1.5,2.1764957 L 598.49999,2.1764957 L 598.49999,260.72828 C 598.49999,546.17992 299.99999,658.50028 299.99999,658.50028 z "
       style="opacity:1;fill:none;fill-opacity:1;fill-rule:evenodd;stroke:#000000;stroke-width:3.00000048;stroke-linecap:butt;stroke-linejoin:miter;stroke-miterlimit:4;stroke-dasharray:none;stroke-opacity:1"
       id="path1411" />
  </g>
</svg>
