<?xml version="1.0" encoding="UTF-8" standalone="no"?>
<svg
   xmlns:dc="http://purl.org/dc/elements/1.1/"
   xmlns:cc="http://creativecommons.org/ns#"
   xmlns:rdf="http://www.w3.org/1999/02/22-rdf-syntax-ns#"
   xmlns:svg="http://www.w3.org/2000/svg"
   xmlns="http://www.w3.org/2000/svg"
   xmlns:xlink="http://www.w3.org/1999/xlink"
   xmlns:sodipodi="http://sodipodi.sourceforge.net/DTD/sodipodi-0.dtd"
   xmlns:inkscape="http://www.inkscape.org/namespaces/inkscape"
   height="660"
   width="600"
   version="1.0"
   id="svg2"
   sodipodi:version="0.32"
   inkscape:version="0.46"
   sodipodi:docname="Blason_ville_fr_Noailly_(Loire).svg"
   sodipodi:docbase="L:\Héraldique"
   inkscape:export-filename="/Users/olivier/Desktop/Blason Rouge/Blason_Vide_3D.png"
   inkscape:export-xdpi="144"
   inkscape:export-ydpi="144"
   inkscape:output_extension="org.inkscape.output.svg.inkscape">
  <metadata
     id="metadata49">
    <rdf:RDF>
      <cc:Work
         rdf:about="">
        <dc:format>image/svg+xml</dc:format>
        <dc:type
           rdf:resource="http://purl.org/dc/dcmitype/StillImage" />
        <dc:title>Gabarit d'un blason en pointe pour le projet Blasons de Wikipédia</dc:title>
        <dc:date>03-AUG-2006</dc:date>
        <dc:creator>
          <cc:Agent>
            <dc:title>Jérôme BLUM (wagner51)</dc:title>
          </cc:Agent>
        </dc:creator>
        <cc:license
           rdf:resource="http://web.resource.org/cc/PublicDomain" />
        <dc:language>fr</dc:language>
        <dc:subject>
          <rdf:Bag>
            <rdf:li>gabarit modèle blason projet wikipédia</rdf:li>
          </rdf:Bag>
        </dc:subject>
        <dc:rights>
          <cc:Agent>
            <dc:title />
          </cc:Agent>
        </dc:rights>
        <dc:publisher>
          <cc:Agent>
            <dc:title />
          </cc:Agent>
        </dc:publisher>
        <dc:identifier />
        <dc:source />
        <dc:relation />
        <dc:coverage />
        <dc:description />
        <dc:contributor>
          <cc:Agent>
            <dc:title />
          </cc:Agent>
        </dc:contributor>
      </cc:Work>
      <cc:License
         rdf:about="http://web.resource.org/cc/PublicDomain">
        <cc:permits
           rdf:resource="http://web.resource.org/cc/Reproduction" />
        <cc:permits
           rdf:resource="http://web.resource.org/cc/Distribution" />
        <cc:permits
           rdf:resource="http://web.resource.org/cc/DerivativeWorks" />
      </cc:License>
    </rdf:RDF>
  </metadata>
  <sodipodi:namedview
     inkscape:window-height="977"
     inkscape:window-width="1280"
     inkscape:pageshadow="2"
     inkscape:pageopacity="0.0"
     guidetolerance="10.0"
     gridtolerance="10.0"
     objecttolerance="10.0"
     borderopacity="1.0"
     bordercolor="#666666"
     pagecolor="#ffffff"
     id="base"
     showgrid="false"
     height="660px"
     inkscape:zoom="1.1621212"
     inkscape:cx="300"
     inkscape:cy="329.99999"
     inkscape:window-x="0"
     inkscape:window-y="20"
     inkscape:current-layer="layer4"
     showguides="true"
     inkscape:guide-bbox="true"
     inkscape:object-nodes="true" />
  <desc
     id="desc4">Flag of Canton of Valais (Wallis)</desc>
  <defs
     id="defs6">
    <inkscape:perspective
       sodipodi:type="inkscape:persp3d"
       inkscape:vp_x="0 : 330 : 1"
       inkscape:vp_y="0 : 1000 : 0"
       inkscape:vp_z="600 : 330 : 1"
       inkscape:persp3d-origin="300 : 220 : 1"
       id="perspective16817" />
    <linearGradient
       id="linearGradient2893">
      <stop
         style="stop-color:white;stop-opacity:0.3137255;"
         offset="0"
         id="stop2895" />
      <stop
         id="stop2897"
         offset="0.19"
         style="stop-color:white;stop-opacity:0.25098041;" />
      <stop
         style="stop-color:#6b6b6b;stop-opacity:0.1254902;"
         offset="0.60000002"
         id="stop2901" />
      <stop
         style="stop-color:black;stop-opacity:0.1254902;"
         offset="1"
         id="stop2899" />
    </linearGradient>
    <radialGradient
       inkscape:collect="always"
       xlink:href="#linearGradient2893"
       id="radialGradient3163"
       gradientUnits="userSpaceOnUse"
       gradientTransform="matrix(1.353218,0,0,1.348928,-77.62935,-85.74693)"
       cx="221.44487"
       cy="226.33101"
       fx="221.44487"
       fy="226.33101"
       r="300" />
  </defs>
  <g
     inkscape:groupmode="layer"
     id="layer3"
     inkscape:label="Fond écu"
     style="display:inline">
    <path
       d="M 300,658.5 C 300,658.5 598.5,546.17969 598.5,260.72817 C 598.5,-24.723354 598.5,2.1764768 598.5,2.1764768 L 1.5,2.1764768 L 1.5,260.72817 C 1.5,546.17969 300,658.5 300,658.5 z"
       style="fill:#000000;fill-opacity:1;fill-rule:evenodd;stroke:none;stroke-width:1px;stroke-linecap:butt;stroke-linejoin:miter;stroke-opacity:1;display:inline"
       id="path11587" />
    <g
       id="g14787">
      <path
         id="path1948"
         d="M 15.03125 2.1875 C 14.098306 8.8629787 8.4169999 14.015815 1.5 14.0625 L 1.5 55.375 L 14.0625 24.9375 L 49.09375 27.84375 L 29.4375 2.1875 L 15.03125 2.1875 z "
         style="fill:#fcef3c;fill-opacity:1;fill-rule:evenodd;stroke:#313131;stroke-width:2.24999833;stroke-linecap:butt;stroke-linejoin:miter;stroke-miterlimit:4;stroke-dasharray:none;stroke-opacity:1;display:inline" />
      <path
         id="path13920"
         d="M 170.40625 2.1875 L 152.1875 27.75 L 185.0625 23.78125 L 200.09375 55.4375 L 212.65625 24.9375 L 247.71875 27.84375 L 228.0625 2.1875 L 213.65625 2.1875 C 212.72036 8.8949557 206.96067 14.0625 200 14.0625 C 193.03933 14.0625 187.28236 8.8949557 186.34375 2.1875 L 170.40625 2.1875 z "
         style="fill:#fcef3c;fill-opacity:1;fill-rule:evenodd;stroke:#313131;stroke-width:2.24999833;stroke-linecap:butt;stroke-linejoin:miter;stroke-miterlimit:4;stroke-dasharray:none;stroke-opacity:1;display:inline" />
      <path
         inkscape:tile-y0="55.431927"
         inkscape:tile-x0="52.381999"
         inkscape:tile-h="110.35049"
         inkscape:tile-w="95.611711"
         inkscape:tile-cy="110.60717"
         inkscape:tile-cx="100.18785"
         id="path13922"
         d="M 100.0844,55.431927 L 87.049009,86.280371 L 52.438439,83.005431 L 72.565229,109.76961 L 52.381999,138.09599 L 85.262029,134.14348 L 100.2725,165.78242 L 112.85645,135.29158 L 147.89965,138.20892 L 127.86691,112.04702 L 147.99371,83.156011 L 114.79388,87.428501 L 100.0844,55.431927 L 100.0844,55.431927 z M 100.19726,96.801601 C 107.81045,96.801601 113.98505,102.99877 113.98505,110.61658 C 113.98508,118.23439 107.81045,124.41274 100.19726,124.41274 C 92.584069,124.41274 86.390639,118.23439 86.390639,110.61658 C 86.390639,102.99877 92.584069,96.801601 100.19726,96.801601 z"
         style="fill:#fcef3c;fill-opacity:1;fill-rule:evenodd;stroke:#313131;stroke-width:2.24999833;stroke-linecap:butt;stroke-linejoin:miter;stroke-miterlimit:4;stroke-dasharray:none;stroke-opacity:1;display:inline" />
      <path
         id="path13928"
         d="M 1.5 166.25 L 1.5 207.15625 C 9.0695345 207.2075 15.1875 213.38262 15.1875 220.96875 C 15.18753 228.55488 9.0695348 234.69891 1.5 234.75 L 1.5 260.71875 C 1.5 265.65921 1.6055138 270.53795 1.78125 275.375 L 14.0625 245.65625 L 49.09375 248.5625 L 29.0625 222.40625 L 49.1875 193.5 L 16 197.78125 L 1.5 166.25 z "
         style="fill:#fcef3c;fill-opacity:1;fill-rule:evenodd;stroke:#313131;stroke-width:2.24999833;stroke-linecap:butt;stroke-linejoin:miter;stroke-miterlimit:4;stroke-dasharray:none;stroke-opacity:1;display:inline" />
      <path
         id="path14715"
         d="M 49.1875 414.21875 L 34.5 416.09375 C 36.246892 419.95603 38.051276 423.77085 39.90625 427.53125 L 49.1875 414.21875 z "
         style="fill:#fcef3c;fill-opacity:1;fill-rule:evenodd;stroke:#313131;stroke-width:2.24999833;stroke-linecap:butt;stroke-linejoin:miter;stroke-miterlimit:4;stroke-dasharray:none;stroke-opacity:1;display:inline" />
      <path
         id="path14717"
         d="M 100.09375 496.84375 L 94.4375 510.25 C 106.20675 524.20289 118.52662 537.06365 131.03125 548.90625 L 148 524.5625 L 114.78125 528.84375 L 100.09375 496.84375 z "
         style="fill:#fcef3c;fill-opacity:1;fill-rule:evenodd;stroke:#313131;stroke-width:2.24999833;stroke-linecap:butt;stroke-linejoin:miter;stroke-miterlimit:4;stroke-dasharray:none;stroke-opacity:1;display:inline" />
      <path
         id="path14719"
         d="M 300.0844,496.83398 L 287.04901,527.68242 L 252.43844,524.40748 L 272.56523,551.17166 L 252.382,579.49804 L 285.26203,575.54553 L 300.2725,607.18447 L 312.85645,576.69363 L 347.89965,579.61097 L 327.86691,553.44907 L 347.99371,524.55806 L 314.79388,528.83055 L 300.0844,496.83398 L 300.0844,496.83398 z M 300.19726,538.20365 C 307.81045,538.20365 313.98505,544.40082 313.98505,552.01863 C 313.98508,559.63644 307.81045,565.81479 300.19726,565.81479 C 292.58407,565.81479 286.39064,559.63644 286.39064,552.01863 C 286.39064,544.40082 292.58407,538.20365 300.19726,538.20365 z"
         style="fill:#fcef3c;fill-opacity:1;fill-rule:evenodd;stroke:#313131;stroke-width:2.24999833;stroke-linecap:butt;stroke-linejoin:miter;stroke-miterlimit:4;stroke-dasharray:none;stroke-opacity:1;display:inline" />
      <use
         height="660"
         width="600"
         transform="matrix(-1,0,0,1,599.99975,8.3446503e-7)"
         id="use14724"
         xlink:href="#path1948"
         y="0"
         x="0" />
      <use
         height="660"
         width="600"
         transform="translate(199.61641,-0.4909728)"
         id="use14730"
         xlink:href="#path13920"
         y="0"
         x="0" />
      <use
         height="660"
         width="600"
         transform="matrix(-1,0,0,1,600.0935,0)"
         id="use14735"
         xlink:href="#path13928"
         y="0"
         x="0" />
      <use
         height="660"
         width="600"
         transform="matrix(-1,0,0,1,600.0935,0)"
         id="use14740"
         xlink:href="#path14715"
         y="0"
         x="0" />
      <use
         height="660"
         width="600"
         transform="matrix(-1,0,0,1,600.382,0)"
         id="use14745"
         xlink:href="#path14717"
         y="0"
         x="0" />
      <use
         height="660"
         width="600"
         transform="translate(286.83513,110.35049)"
         id="use14749"
         xlink:href="#path13922"
         inkscape:tiled-clone-of="#path13922"
         y="0"
         x="0" />
      <use
         height="660"
         width="600"
         id="use14751"
         transform="translate(200,220.70107)"
         xlink:href="#path13922"
         inkscape:tiled-clone-of="#path13922"
         y="0"
         x="0" />
      <use
         height="660"
         width="600"
         id="use14753"
         transform="translate(200,0)"
         xlink:href="#path13922"
         inkscape:tiled-clone-of="#path13922"
         y="0"
         x="0" />
      <use
         height="660"
         width="600"
         id="use14757"
         transform="translate(400,-10e-7)"
         xlink:href="#path13922"
         inkscape:tiled-clone-of="#path13922"
         y="0"
         x="0" />
      <use
         height="660"
         width="600"
         id="use14759"
         transform="translate(100.0001,110.35058)"
         xlink:href="#path13922"
         inkscape:tiled-clone-of="#path13922"
         y="0"
         x="0" />
      <use
         height="660"
         width="600"
         id="use14761"
         transform="translate(100,331.05156)"
         xlink:href="#path13922"
         inkscape:tiled-clone-of="#path13922"
         y="0"
         x="0" />
      <use
         height="660"
         width="600"
         id="use14763"
         transform="translate(0,220.70107)"
         xlink:href="#path13922"
         inkscape:tiled-clone-of="#path13922"
         y="0"
         x="0" />
      <use
         height="660"
         width="600"
         id="use14765"
         transform="translate(286.83513,331.05158)"
         xlink:href="#path13922"
         inkscape:tiled-clone-of="#path13922"
         y="0"
         x="0" />
      <use
         height="660"
         width="600"
         id="use14767"
         transform="translate(400,220.70107)"
         xlink:href="#path13922"
         inkscape:tiled-clone-of="#path13922"
         y="0"
         x="0" />
    </g>
  </g>
  <g
     inkscape:groupmode="layer"
     id="layer4"
     inkscape:label="Meubles"
     style="display:inline">
    <g
       transform="matrix(2.85,0,0,2.85,-1305.7515,-2660.2731)"
       inkscape:label="Meubles"
       id="g2807" />
    <g
       transform="matrix(2.85,0,0,2.85,2156.8106,-608.78865)"
       inkscape:label="Meubles"
       id="g4626" />
    <path
       sodipodi:nodetypes="csscsscsssscsscsscsscscscscccc"
       id="path3098"
       d="M 380.31412,303.06141 C 414.12164,362.35492 491.54061,323.27227 433.05437,265.83299 C 371.70555,205.58239 397.85384,164.71982 414.95724,146.90891 C 442.43645,118.293 474.38281,97.457591 475.97046,64.696177 C 468.46029,34.225987 424.51787,42.166724 429.952,71.935034 C 438.07279,116.42091 432.1469,112.00141 424.26434,123.64116 C 414.92956,137.42531 403.64963,140.199 394.27479,139.15299 C 406.13537,121.67674 406.35314,105.97456 398.41128,81.759198 C 388.30763,50.952379 411.63624,35.310865 426.33258,30.053076 C 443.2245,24.009786 473.08965,26.919087 486.31169,45.564913 C 504.49637,71.209102 487.84177,103.94931 464.59512,125.7094 C 405.31389,181.19969 418.82309,165.94112 417.54253,198.61503 C 417.60514,184.64544 415.45462,178.60815 425.81551,167.0743 C 455.37012,134.17378 472.12747,147.73497 486.82874,133.46532 C 494.01723,126.48787 503.22316,121.59372 492.51642,96.753974 C 509.30777,101.23716 516.53286,115.93128 505.44294,141.7383 C 494.18165,167.94412 453.0712,172.96592 444.94679,181.55201 C 420.63421,207.24624 445.11482,214.70063 447.53208,231.70695 C 445.47615,221.19337 430.82244,210.60663 445.98091,200.16622 C 452.34316,195.78421 460.01457,191.47745 475.97046,187.23969 C 494.31811,182.36669 503.58218,173.5819 497.16996,157.7672 C 525.95869,176.62519 503.94452,197.74125 483.29405,206.15637 C 451.7264,219.02024 456.49935,238.16054 459.94155,264.79887 C 455.52439,243.9293 464.97516,231.08103 481.65812,225.50222 C 494.21046,221.30469 505.84057,230.39064 514.75004,249.8041 C 492.58941,230.09699 470.62041,238.72689 470.28278,269.45242 L 469.76573,316.505 C 466.36294,333.57137 453.05182,360.13132 411.33779,347.52868 L 364.28523,322.70974 L 380.31412,303.06141 z"
       style="fill:#fcef3c;fill-opacity:1;stroke:#000000;stroke-width:3.76200008000000000;stroke-miterlimit:4;stroke-dasharray:none;stroke-opacity:1" />
    <path
       style="fill:#e20909;fill-opacity:1;stroke:#000000;stroke-width:3.76200008;stroke-miterlimit:4;stroke-dasharray:none;stroke-opacity:1"
       d="M 231.59097,94.328151 C 231.3838,105.88861 233.56026,116.59777 244.32548,124.2395 C 255.61122,130.77321 267.39318,125.30643 278.97524,113.87419 C 291.21693,102.11501 301.00001,104.47814 310.29828,107.39338 C 311.82893,101.95615 309.95018,99.746457 310.36739,96.105069 C 296.4678,90.104964 280.89776,99.417225 265.49175,106.97505 C 250.0674,116.33571 239.9578,108.49231 231.59097,94.328151 z"
       id="path4241"
       sodipodi:nodetypes="ccccccc" />
    <path
       sodipodi:nodetypes="cscccsccccccccccccccccccccccccccccccccc"
       id="path4249"
       d="M 313.06021,308.43357 C 290.33485,317.15198 286.32468,334.64394 259.28029,341.14969 C 246.19645,344.29712 236.67468,340.94045 210.87839,370.72865 C 204.37994,372.25984 202.57392,376.13729 202.81141,381.03647 C 209.02273,398.98623 203.79307,411.55193 181.29944,415.99343 C 184.15178,425.49815 211.51166,426.0771 214.01553,411.95994 C 214.40692,409.75355 217.15267,389.99981 217.15267,389.99981 L 215.36007,414.20078 L 227.01236,427.19758 C 229.45843,438.10168 227.73341,445.61679 216.70448,445.57241 C 202.90347,446.01946 199.85838,456.02735 192.95172,462.60273 C 186.32108,463.16603 177.12311,468.86398 175.9214,458.56921 C 179.47875,449.15859 172.15251,451.71995 167.85442,450.95039 C 166.57383,456.65458 161.59671,460.77451 154.40941,463.94722 C 159.31494,470.6049 163.03932,478.34519 177.71411,476.04769 C 165.19004,479.77734 155.52746,474.20685 146.34242,467.08438 C 149.44243,475.84027 146.76402,483.31205 142.30893,490.389 C 153.00843,494.87456 164.90424,489.78916 176.36957,488.14819 L 149.92772,494.42249 C 154.46908,499.52169 160.46272,502.68459 160.2356,514.14182 C 163.65791,517.75448 167.18379,520.02211 171.43972,512.79733 L 173.68062,507.86748 C 177.67937,506.70018 182.43368,508.17748 184.88474,501.59318 C 187.60341,502.96038 192.35807,500.76466 192.05537,507.41932 C 188.30226,511.00465 188.5666,514.58998 190.71082,518.17531 C 198.29199,511.6359 206.49002,511.88159 214.91188,514.58998 C 215.34617,512.19977 216.36553,509.80956 213.56737,507.41932 C 208.10808,503.77286 207.32809,499.3465 206.8449,494.87069 C 221.17749,496.90724 238.66703,505.61464 244.93891,473.80688 C 245.24127,483.77957 245.67228,492.06312 251.71579,491.70166 C 255.9414,493.35411 253.08014,498.23597 279.9185,494.29125 C 272.4024,491.22006 262.9638,491.19629 273.62166,473.35871 L 272.27714,461.25821 C 281.26291,458.94122 284.65287,453.26676 281.68864,443.77973 C 287.6025,441.30944 289.2099,437.88211 284.37761,433.02375 C 246.03103,407.59419 301.23864,372.29558 331.88327,370.28048 L 354.29148,355.93917 L 339.95025,307.08906 L 313.06021,308.43357 z"
       style="fill:#fcef3c;fill-opacity:1;stroke:#000000;stroke-width:3.76200008000000000;stroke-miterlimit:4;stroke-dasharray:none;stroke-opacity:1" />
    <path
       sodipodi:nodetypes="cccccc"
       id="path4257"
       d="M 319.3346,316.88756 C 319.48648,330.47704 325.31205,334.91207 325.60888,345.63135 L 336.97576,347.48516 C 327.64423,345.89754 320.75176,346.72495 320.67903,354.59468 C 320.32415,362.03444 326.9563,363.86442 333.67586,362.2135 C 344.45688,330.07158 324.41946,315.15162 319.3346,316.88756 z"
       style="fill:#fcef3c;fill-opacity:1;stroke:#000000;stroke-width:3.76200008000000000;stroke-miterlimit:4;stroke-dasharray:none;stroke-opacity:1" />
    <path
       sodipodi:nodetypes="cccccccccccccccsscscsccccccccccccccccccccccccccccccccccccccccccccccccccccccccccccccccscccscccccsccccccccccccccc"
       id="path4245"
       d="M 130.1711,49.332237 C 124.55015,50.635457 123.91327,54.067227 124.13633,57.875112 C 125.84756,60.618579 123.7743,65.105249 131.1116,67.044987 C 130.24494,76.996247 139.10408,78.182987 142.82872,83.542925 L 126.99697,71.198862 C 128.51003,63.875901 123.92706,62.640255 120.64859,60.1088 C 118.05934,64.972325 118.80909,73.880598 109.24508,70.219174 C 102.8724,77.253944 106.57996,83.99237 111.75308,84.796925 C 118.06461,87.876207 119.99828,83.091143 122.21609,78.801237 C 121.65179,81.583065 118.63127,84.712793 123.50933,86.717112 C 130.29886,92.663694 140.30704,96.20328 134.28584,111.75792 C 127.92367,110.27336 117.28123,111.81715 122.21609,121.5548 C 127.18355,123.36603 136.94845,122.26696 133.3061,135.81905 C 136.45765,138.91768 138.5483,137.80507 140.90858,137.73924 C 146.00949,134.14567 145.78952,129.34775 145.2191,124.49386 C 147.36267,137.42896 155.56471,147.18756 149.17709,153.25749 C 139.68394,162.27842 143.98302,169.28438 146.94335,176.7308 C 153.99031,194.45692 148.71049,200.77354 131.7386,190.32886 C 133.06308,205.11156 157.34664,214.19374 162.4616,192.56255 C 165.37051,180.26132 163.25549,170.16913 166.92908,160.85986 C 162.95353,172.53398 168.77549,181.05892 176.09885,189.70186 C 187.60341,203.27938 179.51523,205.44358 173.23822,208.3943 C 178.50826,209.77333 185.17917,210.45995 184.01483,215.05617 C 190.53412,218.24438 196.72099,220.09782 202.70961,221.15731 L 213.13998,249.23577 C 203.74125,258.05638 191.06571,267.06377 175.47185,276.22786 C 168.80208,294.53609 128.70001,317.23557 122.21609,298.72149 C 120.90743,292.70457 118.72835,290.14028 110.81258,295.5473 C 110.04653,299.5878 111.44449,303.40854 103.5236,308.24405 L 105.44384,312.98574 C 112.48254,315.97157 118.16003,316.23961 124.44983,317.72742 C 115.27469,316.64043 106.80355,319.16078 96.861835,314.23974 L 94.667335,318.66792 C 104.03799,325.00595 98.166508,331.37502 97.527965,337.71305 C 101.43643,338.86559 105.33637,342.47144 109.24508,334.85236 L 119.70809,332.93217 C 109.75786,336.89604 107.30629,339.92804 103.8371,343.08174 C 111.62806,350.63238 108.34397,357.26978 106.38434,364.00786 C 113.24686,364.72167 119.71071,364.57054 121.58909,354.4853 C 125.70874,349.54944 129.85269,345.43749 133.97234,344.68842 C 138.24346,346.2547 147.43189,344.32257 137.77358,355.4258 C 130.25474,360.67801 132.46164,364.13965 138.40058,366.86855 C 144.73867,362.44347 151.06838,359.84393 157.40647,364.63486 C 166.89773,360.77904 165.66542,355.05769 159.6401,344.02224 C 170.7889,344.98947 172.80684,341.69775 177.35285,337.71305 C 177.34381,342.01991 177.79311,346.19117 174.53135,351.31111 C 180.85889,349.85596 194.26591,351.69683 193.34135,336.89011 L 194.16434,340.22105 L 201.13971,341.20074 C 205.35127,335.81341 201.74953,330.40363 201.45321,325.0163 C 202.37365,330.01506 202.98925,335.098 207.17459,339.28055 C 214.8078,338.79827 222.80935,336.05734 229.66822,340.22105 L 225.24008,325.9568 C 226.79291,321.3958 226.3796,318.44397 224.69135,316.2383 C 228.36782,317.42621 232.739,316.79376 236.95709,310.43855 C 242.55569,322.9588 248.13086,323.34896 253.72934,324.3893 L 253.25909,312.86817 C 257.9222,329.07652 276.87556,313.99119 276.5756,312.67224 C 252.53716,308.93403 267.79509,292.6564 278.22158,282.77217 C 297.17944,300.75414 319.77051,307.07982 334.33808,337.79142 C 334.03413,349.82227 332.90163,362.27178 331.24222,374.98036 C 330.89135,383.346 335.79059,385.84659 340.68635,388.38249 C 331.96651,390.46661 321.94606,390.55159 326.50058,412.83549 C 329.58682,426.57679 319.51318,431.86357 306.00547,434.93724 C 314.92454,441.00469 337.48087,451.22462 341.4701,408.87755 C 355.92872,437.73044 369.74352,415.56502 408.51997,464.09274 C 404.71083,472.90223 413.89273,486.5712 397.93934,496.46161 C 384.6122,505.22331 381.56848,489.53751 367.1771,495.52111 C 368.80929,503.67773 367.90279,509.39637 363.57185,516.95667 C 374.61545,519.22547 385.64188,519.43392 396.68534,512.21499 C 385.83961,519.56693 373.55066,522.70074 361.76933,520.67949 C 368.33015,524.71589 369.93678,537.028 372.23234,545.36761 C 377.28733,542.79745 382.84118,540.71621 383.28322,533.53299 L 403.81746,520.13086 C 399.15546,525.92862 392.78842,530.50603 391.98284,539.05842 C 400.18828,533.79921 406.13711,536.664 410.91035,543.76092 C 414.721,537.83201 411.29056,530.25024 417.21959,526.44005 C 418.65291,521.76642 419.4516,516.78154 424.31258,513.82167 C 418.72827,518.02779 419.40568,522.23393 418.80653,526.44005 C 423.53348,521.48256 432.43161,522.71926 440.10509,524.83336 L 439.2821,516.17292 C 444.86704,512.7179 453.00274,515.17876 449.66684,498.34261 C 458.9294,505.44122 463.706,503.18086 470.27947,500.18442 C 458.7759,497.20341 456.17949,491.70539 452.72347,484.62699 C 457.83252,484.02817 462.96326,483.56873 466.90934,478.3178 C 456.99735,475.14945 445.3966,465.42799 449.54933,467.26692 C 463.18946,473.30716 479.2788,468.39929 482.70185,462.52524 C 459.00173,474.54249 465.61496,455.49184 448.76558,442.81392 C 477.92222,465.5852 483.41725,422.61173 492.14609,449.90686 C 508.39365,447.85204 499.719,422.65334 487.5611,426.23761 C 452.19376,436.66431 464.48373,420.61861 454.29097,417.57717 C 489.94669,427.87297 482.06028,389.33017 493.08659,380.8193 C 482.52415,387.54484 474.47837,397.92149 461.69735,395.47542 C 453.03697,393.89695 444.18259,398.52213 444.06308,410.75855 C 442.18171,393.69492 433.31018,403.81703 428.27047,400.21711 C 422.67375,387.88397 411.19187,381.04656 409.96985,371.80617 C 408.43432,360.19277 406.64236,346.74065 404.60122,331.5998 C 394.4274,320.83954 384.83766,309.55858 381.71571,292.92174 C 355.23588,269.59443 356.78306,235.06765 346.21184,205.37686 L 230.13847,157.84242 C 208.58471,128.27749 192.17587,129.25787 173.23822,94.946487 C 168.49835,89.626905 163.13098,77.515289 177.35285,71.198862 L 174.21785,60.1088 C 169.6721,58.471902 165.12635,62.4114 160.5806,53.446925 L 156.15247,50.586237 C 152.83903,50.580908 150.99226,52.811631 151.05809,57.875112 C 158.35523,68.077542 151.54099,67.443446 158.34696,86.403612 C 154.16738,74.889527 153.55743,72.241449 147.25685,65.163987 C 148.75737,61.319109 151.17836,57.906206 149.49059,52.467237 C 146.80541,48.804018 145.3875,50.295509 143.45572,49.645737 C 136.72424,56.998566 133.64279,52.573941 130.1711,49.332237 z"
       style="fill:#fcef3c;fill-opacity:1;stroke:#000000;stroke-width:3.76200008000000000;stroke-miterlimit:4;stroke-dasharray:none;stroke-opacity:1" />
    <path
       sodipodi:nodetypes="ccc"
       id="path4247"
       d="M 424.42958,413.08036 C 430.65996,415.83999 440.08828,413.94816 440.33947,425.40493 C 434.58487,434.81893 439.15179,435.97566 438.77083,441.09073"
       style="fill:#fcef3c;fill-opacity:1;stroke:#000000;stroke-width:3.76200008000000000;stroke-miterlimit:4;stroke-dasharray:none;stroke-opacity:1" />
    <path
       sodipodi:nodetypes="cccc"
       id="path4261"
       d="M 133.62765,136.32386 C 119.68643,142.98294 106.14536,136.94255 108.85802,119.29467 C 115.48365,124.51269 121.65483,129.3625 125.62914,122.6489 C 131.36669,122.9073 134.75462,126.45518 133.62765,136.32386 z"
       style="fill:#e20909;fill-opacity:1;stroke:#000000;stroke-width:3.76200008;stroke-miterlimit:4;stroke-dasharray:none;stroke-opacity:1" />
    <path
       sodipodi:nodetypes="cccc"
       id="path4263"
       d="M 108.34199,70.529277 C 104.77349,62.345384 96.804567,68.463061 90.796779,68.207107 C 99.131991,51.894937 109.20939,49.170898 120.98482,59.69251 C 118.9334,66.332778 117.08839,73.261943 108.34199,70.529277 z"
       style="fill:#e20909;fill-opacity:1;stroke:#000000;stroke-width:3.76200008;stroke-miterlimit:4;stroke-dasharray:none;stroke-opacity:1" />
    <path
       sodipodi:nodetypes="cccc"
       id="path4265"
       d="M 113.76028,43.695398 C 120.219,44.396245 132.43033,36.878973 130.27345,49.887835 C 135.15929,56.032372 140.43888,55.090091 146.01253,48.855755 C 139.89853,20.860625 118.10764,32.850117 113.76028,43.695398 z"
       style="fill:#e20909;fill-opacity:1;stroke:#000000;stroke-width:3.76200008;stroke-miterlimit:4;stroke-dasharray:none;stroke-opacity:1" />
    <path
       sodipodi:nodetypes="ccccc"
       id="path4267"
       d="M 158.39741,52.468015 C 161.97871,43.577902 158.29822,41.362547 153.49502,38.277021 L 161.49366,38.793057 C 175.48178,39.285339 175.97887,48.209607 173.62047,58.918466 C 166.53662,62.294447 162.90654,56.172632 158.39741,52.468015 z"
       style="fill:#e20909;fill-opacity:1;stroke:#000000;stroke-width:3.76200008;stroke-miterlimit:4;stroke-dasharray:none;stroke-opacity:1" />
    <path
       sodipodi:nodetypes="cccc"
       id="path4269"
       d="M 104.98767,308.16386 C 99.084716,303.06788 92.312238,301.7401 84.346328,305.58368 C 84.28902,289.56384 98.086782,285.50404 112.21221,295.77899 C 110.78817,300.89137 109.11973,305.7594 104.98767,308.16386 z"
       style="fill:#e20909;fill-opacity:1;stroke:#000000;stroke-width:3.76200008;stroke-miterlimit:4;stroke-dasharray:none;stroke-opacity:1" />
    <path
       sodipodi:nodetypes="cccc"
       id="path4271"
       d="M 78.411899,339.12602 C 74.964026,325.3803 78.965038,317.02861 95.441093,317.71052 C 98.403292,321.97628 102.79656,324.94098 98.537219,335.77178 C 90.680157,329.99847 84.210645,332.54964 78.411899,339.12602 z"
       style="fill:#e20909;fill-opacity:1;stroke:#000000;stroke-width:3.76200008;stroke-miterlimit:4;stroke-dasharray:none;stroke-opacity:1" />
    <path
       sodipodi:nodetypes="cccc"
       id="path4273"
       d="M 103.43961,341.44818 C 108.42739,348.41466 111.70259,355.38115 107.82597,362.34763 C 99.755731,356.80426 96.569317,362.40975 99.311313,370.34619 C 80.690542,363.94327 86.305202,344.32677 103.43961,341.44818 z"
       style="fill:#e20909;fill-opacity:1;stroke:#000000;stroke-width:3.76200008;stroke-miterlimit:4;stroke-dasharray:none;stroke-opacity:1" />
    <path
       sodipodi:nodetypes="cccc"
       id="path4275"
       d="M 140.59425,365.44386 C 146.13655,361.95789 151.21914,362.15026 156.07525,364.15377 C 150.04452,386.60709 133.17157,380.39017 127.95129,374.21645 C 132.33327,370.39089 145.60498,371.77412 140.59425,365.44386 z"
       style="fill:#e20909;fill-opacity:1;stroke:#000000;stroke-width:3.76200008;stroke-miterlimit:4;stroke-dasharray:none;stroke-opacity:1" />
    <path
       sodipodi:nodetypes="cccc"
       id="path4277"
       d="M 169.75025,452.39591 C 160.31666,439.67876 141.25686,442.15732 136.46595,459.10439 C 143.34126,459.85251 155.75561,449.9841 155.30128,464.78078 L 169.75025,452.39591 z"
       style="fill:#e20909;fill-opacity:1;stroke:#000000;stroke-width:3.76200008;stroke-miterlimit:4;stroke-dasharray:none;stroke-opacity:1" />
    <path
       sodipodi:nodetypes="cccc"
       id="path4279"
       d="M 145.49651,487.74438 C 137.9527,478.89454 134.0051,483.83007 130.53152,490.58258 C 122.27306,474.09687 128.47296,467.25 147.0447,468.65105 C 149.25989,473.84496 148.07799,480.49477 145.49651,487.74438 z"
       style="fill:#e20909;fill-opacity:1;stroke:#000000;stroke-width:3.76200008;stroke-miterlimit:4;stroke-dasharray:none;stroke-opacity:1" />
    <path
       sodipodi:nodetypes="cccc"
       id="path4281"
       d="M 153.23708,497.03304 C 140.03233,500.12524 136.61204,508.39742 146.78662,523.8669 C 148.99241,517.40469 151.18114,510.91973 159.42945,512.51412 C 161.24963,507.35376 159.66759,502.1934 153.23708,497.03304 z"
       style="fill:#e20909;fill-opacity:1;stroke:#000000;stroke-width:3.76200008;stroke-miterlimit:4;stroke-dasharray:none;stroke-opacity:1" />
    <path
       sodipodi:nodetypes="cccc"
       id="path4283"
       d="M 194.00386,516.6424 C 196.58723,523.22423 193.91345,527.28225 189.1016,529.02727 C 199.08933,536.57991 212.05381,531.19294 210.51704,514.57825 C 205.30416,512.64317 199.90155,512.41416 194.00386,516.6424 z"
       style="fill:#e20909;fill-opacity:1;stroke:#000000;stroke-width:3.76200008;stroke-miterlimit:4;stroke-dasharray:none;stroke-opacity:1" />
    <path
       sodipodi:nodetypes="cccc"
       id="path4285"
       d="M 367.90808,496.517 L 365.0699,514.06222 C 358.92342,506.97601 353.78315,518.0031 348.04071,518.19051 C 340.61176,507.79123 352.92704,494.14467 367.90808,496.517 z"
       style="fill:#e20909;fill-opacity:1;stroke:#000000;stroke-width:3.76200008;stroke-miterlimit:4;stroke-dasharray:none;stroke-opacity:1" />
    <path
       sodipodi:nodetypes="cccc"
       id="path4287"
       d="M 371.26228,541.15411 C 371.36925,535.4896 370.32379,529.69704 364.29581,523.35087 C 352.86798,526.71706 345.86878,535.42235 356.81332,548.63663 C 360.6103,546.62254 362.51726,534.80876 371.26228,541.15411 z"
       style="fill:#e20909;fill-opacity:1;stroke:#000000;stroke-width:3.76200008;stroke-miterlimit:4;stroke-dasharray:none;stroke-opacity:1" />
    <path
       sodipodi:nodetypes="cccc"
       id="path4289"
       d="M 393.19386,539.08996 C 401.21181,531.96144 405.20254,537.58627 409.19089,543.21826 C 403.18925,547.78929 402.96641,554.51731 406.09476,563.08564 C 388.75633,560.2092 390.90218,546.69259 393.19386,539.08996 z"
       style="fill:#e20909;fill-opacity:1;stroke:#000000;stroke-width:3.76200008;stroke-miterlimit:4;stroke-dasharray:none;stroke-opacity:1" />
    <path
       sodipodi:nodetypes="cccc"
       id="path4291"
       d="M 435.50884,524.64096 C 434.05947,530.42169 434.20769,535.80299 435.50884,540.89609 C 424.35664,543.05275 418.4256,534.1986 417.9635,528.25321 C 422.61208,522.6152 426.7336,520.65004 435.50884,524.64096 z"
       style="fill:#e20909;fill-opacity:1;stroke:#000000;stroke-width:3.76200008;stroke-miterlimit:4;stroke-dasharray:none;stroke-opacity:1" />
    <path
       style="fill:#fcef3c;fill-opacity:1;stroke:#000000;stroke-width:3.76200008;stroke-miterlimit:4;stroke-dasharray:none;stroke-opacity:1"
       d="M 286.34403,123.11584 L 281.60567,113.04667 L 274.79419,117.48896 L 275.09026,123.11584 L 286.34403,123.11584 z"
       id="path4235" />
    <path
       id="path4239"
       d="M 266.2058,97.054462 L 274.79419,96.46216 L 273.90573,102.68135 L 266.50187,106.23517 L 266.2058,97.054462 z"
       style="fill:#fcef3c;fill-opacity:1;stroke:#000000;stroke-width:3.76200008;stroke-miterlimit:4;stroke-dasharray:none;stroke-opacity:1" />
    <path
       sodipodi:nodetypes="csccccccccccccccscccccccccccccscsscscscccccscccccc"
       id="path4227"
       d="M 309.08934,87.236682 C 309.90782,81.985821 291.36768,83.513293 284.25399,90.376774 C 280.68235,93.822816 261.71986,101.08259 254.56579,90.947707 L 253.4239,79.243699 C 249.36897,75.328811 245.25635,71.45824 250.56929,61.830429 L 269.98084,54.979313 L 269.98084,43.275311 C 276.96863,40.670999 285.07762,39.644493 291.39063,33.569554 C 296.55235,29.425984 303.64459,27.534516 313.37125,28.716676 C 326.42902,31.391769 348.13915,27.878832 354.60703,42.586474 C 348.43459,46.026957 337.13429,41.918207 336.56423,53.762055 C 340.11392,40.745786 360.08275,47.224163 373.20397,44.012633 C 376.52181,47.33997 364.35575,55.582274 350.19608,57.263023 C 373.62845,54.504147 365.19693,67.75588 368.46574,74.961753 C 372.51766,78.251509 373.76614,86.347082 387.87728,72.392583 C 383.34031,79.120819 388.65175,91.74179 369.89304,92.375023 C 380.69612,93.575376 381.13515,111.32225 380.74064,113.49932 C 379.5062,120.31078 394.83798,138.11553 400.15218,127.48702 C 390.83007,140.56743 384.18274,136.70723 377.02955,136.05093 C 400.25652,152.57399 360.95779,192.33321 386.73539,204.56215 C 379.82259,206.00577 374.3712,211.96481 364.46924,197.9965 C 368.22296,205.99735 376.22963,211.99687 367.89479,225.68645 C 356.66371,247.31594 375.42243,241.63641 382.45335,240.81602 C 380.95833,246.79387 345.98302,271.77402 349.91055,215.9807 C 346.93305,235.58061 353.04041,253.584 337.0647,265.9368 C 324.86879,275.11293 330.30451,280.76272 336.77929,286.2047 C 296.51422,280.21781 313.52875,252.5472 315.36949,232.53757 C 313.20283,248.14413 308.35763,262.58596 293.9597,267.07865 C 275.13879,276.615 287.22497,295.43801 293.10334,304.47436 C 285.37946,308.80257 248.19673,287.93128 272.2645,248.52352 C 254.59025,270.98308 251.37449,297.73227 227.25468,300.59372 C 199.91434,303.83722 182.12685,278.63039 211.4608,266.22226 C 203.31394,276.61322 206.45972,280.62024 213.45905,280.20996 C 222.91759,279.65553 232.89416,271.83573 232.87059,258.51474 C 232.81416,226.66094 248.45405,228.01805 257.13499,225.68645 C 216.21622,229.878 227.28628,270.57711 176.91974,251.94908 C 156.21796,244.29253 154.27476,224.76132 168.07039,204.84762 C 170.64887,216.8969 168.38326,243.19483 192.90574,223.68821 C 211.56751,208.84355 226.16846,198.7592 246.5728,198.85289 C 221.01991,198.97036 190.0421,203.36701 193.47656,169.45015 C 219.19296,174.57285 229.29782,170.1896 247.42915,169.45015 C 211.72012,171.40995 205.02991,133.39095 238.00885,126.34517 C 218.35328,152.34286 233.11562,162.29221 267.98259,148.0404 C 267.98259,148.0404 281.1536,147.52218 284.82494,150.89503 C 294.14442,159.45691 318.88747,129.21475 317.08233,125.20331 C 295.25859,152.38572 293.97023,141.20995 282.25574,143.75844 C 275.84379,139.31357 274.51957,133.71895 275.1191,124.06147 C 284.56022,127.28034 290.9017,125.84976 297.38525,124.63239 C 303.38201,119.53251 308.3091,114.2187 310.51664,108.36098 C 311.00357,101.31954 310.87478,94.278118 309.08934,87.236682 z"
       style="fill:#fcef3c;fill-opacity:1;stroke:#000000;stroke-width:3.76200008;stroke-miterlimit:4;stroke-dasharray:none;stroke-opacity:1" />
    <path
       id="path4237"
       style="fill:#000000;stroke:#000000;stroke-width:3.76200008"
       d="M 277.59897,55.190726 C 279.73077,51.115226 296.53437,52.206206 296.40897,52.808126 C 301.42497,54.438326 301.80117,57.899366 302.67897,61.159766 L 303.30597,65.034626 L 301.17417,62.652026 C 299.41857,64.332386 296.91057,64.382546 294.65337,64.733666 L 292.01997,65.034626 C 288.63417,62.639486 287.00397,59.291306 285.74997,55.792646 C 282.11337,55.792646 280.10697,55.441526 277.59897,55.190726 L 277.59897,55.190726 z" />
    <g
       id="g16073"
       inkscape:label="Meubles"
       transform="matrix(2.85,0,0,2.85,-1305.7519,-665.27226)" />
    <g
       id="g16075"
       inkscape:label="Reflet final"
       transform="matrix(2.85,0,0,2.85,-1305.7519,-665.27226)" />
    <g
       id="g16077"
       inkscape:label="Contour final"
       transform="matrix(2.85,0,0,2.85,-1305.7519,-665.27226)" />
  </g>
  <g
     inkscape:groupmode="layer"
     id="layer2"
     inkscape:label="Reflet final"
     sodipodi:insensitive="true"
     style="display:inline">
    <path
       sodipodi:nodetypes="cccccc"
       d="M 300.00001,658.5 C 300.00001,658.5 598.50001,546.17969 598.50001,260.72817 C 598.50001,-24.723334 598.50001,2.1764865 598.50001,2.1764865 L 1.5,2.1764865 L 1.5,260.72817 C 1.5,546.17969 300.00001,658.5 300.00001,658.5 z"
       style="opacity:1;fill:url(#radialGradient3163);fill-opacity:1;fill-rule:evenodd;stroke:none;stroke-width:1px;stroke-linecap:butt;stroke-linejoin:miter;stroke-opacity:1"
       id="path2875"
       inkscape:export-xdpi="144"
       inkscape:export-ydpi="144" />
  </g>
  <g
     inkscape:groupmode="layer"
     id="layer1"
     inkscape:label="Contour final"
     style="display:inline"
     sodipodi:insensitive="true">
    <path
       sodipodi:nodetypes="cccccc"
       d="M 299.99999,658.50028 C 299.99999,658.50028 1.5,546.17992 1.5,260.72828 C 1.5,-24.723336 1.5,2.1764957 1.5,2.1764957 L 598.49999,2.1764957 L 598.49999,260.72828 C 598.49999,546.17992 299.99999,658.50028 299.99999,658.50028 z"
       style="opacity:1;fill:none;fill-opacity:1;fill-rule:evenodd;stroke:#313131;stroke-width:3.00000048;stroke-linecap:butt;stroke-linejoin:miter;stroke-miterlimit:4;stroke-dasharray:none;stroke-opacity:1"
       id="path1411"
       inkscape:export-xdpi="144"
       inkscape:export-ydpi="144" />
  </g>
</svg>
