<?xml version="1.0" encoding="UTF-8" standalone="no"?>
<svg
   xmlns:dc="http://purl.org/dc/elements/1.1/"
   xmlns:cc="http://web.resource.org/cc/"
   xmlns:rdf="http://www.w3.org/1999/02/22-rdf-syntax-ns#"
   xmlns:svg="http://www.w3.org/2000/svg"
   xmlns="http://www.w3.org/2000/svg"
   xmlns:xlink="http://www.w3.org/1999/xlink"
   xmlns:sodipodi="http://sodipodi.sourceforge.net/DTD/sodipodi-0.dtd"
   xmlns:inkscape="http://www.inkscape.org/namespaces/inkscape"
   height="660"
   width="600"
   version="1.0"
   id="svg2"
   sodipodi:version="0.32"
   inkscape:version="0.44.1"
   sodipodi:docname="Blason_Laneuveville-derrière-Foug_54.svg"
   sodipodi:docbase="L:\blasons"
   inkscape:export-filename="/Users/olivier/Desktop/Blason Rouge/Blason_Vide_3D.png"
   inkscape:export-xdpi="144"
   inkscape:export-ydpi="144">
  <metadata
     id="metadata49">
    <rdf:RDF>
      <cc:Work
         rdf:about="">
        <dc:format>image/svg+xml</dc:format>
        <dc:type
           rdf:resource="http://purl.org/dc/dcmitype/StillImage" />
        <dc:title>Gabarit d'un blason en pointe pour le projet Blasons de Wikipédia</dc:title>
        <dc:date>03-AUG-2006</dc:date>
        <dc:creator>
          <cc:Agent>
            <dc:title>Jérôme BLUM (wagner51)</dc:title>
          </cc:Agent>
        </dc:creator>
        <cc:license
           rdf:resource="http://web.resource.org/cc/PublicDomain" />
        <dc:language>fr</dc:language>
        <dc:subject>
          <rdf:Bag>
            <rdf:li>gabarit modèle blason projet wikipédia</rdf:li>
          </rdf:Bag>
        </dc:subject>
      </cc:Work>
      <cc:License
         rdf:about="http://web.resource.org/cc/PublicDomain">
        <cc:permits
           rdf:resource="http://web.resource.org/cc/Reproduction" />
        <cc:permits
           rdf:resource="http://web.resource.org/cc/Distribution" />
        <cc:permits
           rdf:resource="http://web.resource.org/cc/DerivativeWorks" />
      </cc:License>
    </rdf:RDF>
  </metadata>
  <sodipodi:namedview
     inkscape:window-height="712"
     inkscape:window-width="1024"
     inkscape:pageshadow="2"
     inkscape:pageopacity="0.0"
     guidetolerance="10.0"
     gridtolerance="10.0"
     objecttolerance="10.0"
     borderopacity="1.0"
     bordercolor="#666666"
     pagecolor="#ffffff"
     id="base"
     showgrid="false"
     height="660px"
     inkscape:zoom="0.63"
     inkscape:cx="140.33876"
     inkscape:cy="332.30866"
     inkscape:window-x="-4"
     inkscape:window-y="-4"
     inkscape:current-layer="layer3" />
  <desc
     id="desc4">Flag of Canton of Valais (Wallis)</desc>
  <defs
     id="defs6">
    <linearGradient
       id="linearGradient2893">
      <stop
         style="stop-color:white;stop-opacity:0.3137255;"
         offset="0"
         id="stop2895" />
      <stop
         id="stop2897"
         offset="0.19"
         style="stop-color:white;stop-opacity:0.25098041;" />
      <stop
         style="stop-color:#6b6b6b;stop-opacity:0.1254902;"
         offset="0.60000002"
         id="stop2901" />
      <stop
         style="stop-color:black;stop-opacity:0.1254902;"
         offset="1"
         id="stop2899" />
    </linearGradient>
    <linearGradient
       id="linearGradient2885">
      <stop
         id="stop2887"
         offset="0"
         style="stop-color:white;stop-opacity:1;" />
      <stop
         style="stop-color:white;stop-opacity:1;"
         offset="0.22857143"
         id="stop2891" />
      <stop
         id="stop2889"
         offset="1"
         style="stop-color:black;stop-opacity:1;" />
    </linearGradient>
    <linearGradient
       id="linearGradient2955">
      <stop
         id="stop2867"
         offset="0"
         style="stop-color:#fd0000;stop-opacity:1;" />
      <stop
         style="stop-color:#e77275;stop-opacity:0.65882355;"
         offset="0.5"
         id="stop2873" />
      <stop
         style="stop-color:black;stop-opacity:0.32291666;"
         offset="1"
         id="stop2959" />
    </linearGradient>
    <radialGradient
       inkscape:collect="always"
       xlink:href="#linearGradient2955"
       id="radialGradient2961"
       cx="225.52438"
       cy="218.90099"
       fx="225.52438"
       fy="218.90099"
       r="300"
       gradientTransform="matrix(-4.167939e-4,2.182867,-1.884232,-3.599562e-4,615.5972,-289.1214)"
       gradientUnits="userSpaceOnUse" />
    <polygon
       id="star"
       transform="scale(53,53)"
       points="0,-1 0.58778525,0.80901699 -0.95105652,-0.30901699 0.95105652,-0.30901699 -0.58778525,0.80901699 0,-1 " />
    <clipPath
       id="clip">
      <path
         d="M 0,-200 L 0,600 L 300,600 L 300,-200 L 0,-200 z "
         id="path10" />
    </clipPath>
    <radialGradient
       inkscape:collect="always"
       xlink:href="#linearGradient2955"
       id="radialGradient1911"
       gradientUnits="userSpaceOnUse"
       gradientTransform="matrix(-4.167939e-4,2.182867,-1.884232,-3.599562e-4,615.5972,-289.1214)"
       cx="225.52438"
       cy="218.90099"
       fx="225.52438"
       fy="218.90099"
       r="300" />
    <radialGradient
       inkscape:collect="always"
       xlink:href="#linearGradient2955"
       id="radialGradient2865"
       gradientUnits="userSpaceOnUse"
       gradientTransform="matrix(0,1.748721,-1.593162,-1.049767e-7,551.7876,-191.2898)"
       cx="225.52438"
       cy="218.90099"
       fx="225.52438"
       fy="218.90099"
       r="300" />
    <radialGradient
       inkscape:collect="always"
       xlink:href="#linearGradient2955"
       id="radialGradient2871"
       gradientUnits="userSpaceOnUse"
       gradientTransform="matrix(0,1.386237,-1.323286,-5.741131e-8,-158.0823,-109.5408)"
       cx="225.52438"
       cy="218.90099"
       fx="225.52438"
       fy="218.90099"
       r="300" />
    <radialGradient
       inkscape:collect="always"
       xlink:href="#linearGradient2893"
       id="radialGradient3163"
       gradientUnits="userSpaceOnUse"
       gradientTransform="matrix(1.353218,0,0,1.348928,-77.62935,-85.74693)"
       cx="221.44487"
       cy="226.33101"
       fx="221.44487"
       fy="226.33101"
       r="300" />
  </defs>
  <g
     inkscape:groupmode="layer"
     id="layer3"
     inkscape:label="Fond écu"
     style="display:inline">
    <path
       id="path2855"
       style="fill:white;fill-opacity:1;fill-rule:evenodd;stroke:none;stroke-width:1px;stroke-linecap:butt;stroke-linejoin:miter;stroke-opacity:1"
       d="M 300.64161,659.04688 C 300.64161,659.04688 2.141596,546.72657 2.141596,261.27505 C 2.141596,-24.176479 2.141596,2.7233518 2.141596,2.7233518 L 599.14161,2.7233518 L 599.14161,261.27505 C 599.14161,546.72657 300.64161,659.04688 300.64161,659.04688 z "
       sodipodi:nodetypes="cccccc" />
    <path
       style="fill:#e20909;fill-opacity:1;fill-rule:evenodd;stroke:black;stroke-width:2.30862236;stroke-linecap:butt;stroke-linejoin:miter;stroke-miterlimit:4;stroke-dasharray:none;stroke-opacity:1;display:inline"
       d="M 185.78125 578.0625 C 185.78125 591.93817 185.78125 578.21903 185.78125 594.28125 C 239.49903 633.29108 286.54041 653.38344 297.75 657.90625 L 303.53125 657.90625 C 316.18852 652.79981 374.74288 627.75416 436.75 578.0625 L 185.78125 578.0625 z "
       id="path1972" />
    <path
       style="fill:#e20909;fill-opacity:1;fill-rule:evenodd;stroke:black;stroke-width:2.30862236;stroke-linecap:butt;stroke-linejoin:miter;stroke-miterlimit:4;stroke-dasharray:none;stroke-opacity:1;display:inline"
       d="M 185.78125 413.8125 C 185.78125 428.0892 185.78125 412.09079 185.78125 430.5 C 185.78125 453.40098 191.30861 474.43334 200.8125 493.65625 L 519.9375 493.65625 C 538.03254 469.89077 554.34999 443.33129 567.40625 413.8125 L 185.78125 413.8125 z "
       id="path1978" />
    <path
       style="fill:#e20909;fill-opacity:1;fill-rule:evenodd;stroke:black;stroke-width:2.30862236;stroke-linecap:butt;stroke-linejoin:miter;stroke-miterlimit:4;stroke-dasharray:none;stroke-opacity:1;display:inline"
       d="M 185.78125 85.3125 C 185.78125 99.589212 185.78125 83.59079 185.78125 102 C 185.78125 124.90098 191.30861 145.93334 200.8125 165.15625 L 599.15625 165.15625 L 599.15625 85.3125 L 185.78125 85.3125 z "
       id="path1956" />
    <path
       style="fill:#e20909;fill-opacity:1;fill-rule:evenodd;stroke:black;stroke-width:2.30862236;stroke-linecap:butt;stroke-linejoin:miter;stroke-miterlimit:4;stroke-dasharray:none;stroke-opacity:1;display:inline"
       d="M 185.78125 249.5625 C 185.78125 263.83921 185.78125 247.84079 185.78125 266.25 C 185.78125 289.15098 191.30861 310.18334 200.8125 329.40625 L 593.1875 329.40625 C 597.02809 307.88251 599.15625 285.2005 599.15625 261.28125 L 599.15625 249.5625 L 185.78125 249.5625 z "
       id="path2387" />
    <path
       style="fill:#2b5df2;fill-opacity:1;stroke:black;stroke-width:3;stroke-miterlimit:4;stroke-dasharray:none;stroke-opacity:1"
       d="M 3,2.1875 L 3,288.96875 C 21.41623,548.47156 289.10816,654.0887 299.5,658.09375 L 299.5,2.1875 L 3,2.1875 z "
       id="rect2045" />
    <path
       d="M 125.4411,41.304718 L 111.61052,41.304718 L 111.61052,49.406665 L 106.29107,49.406665 L 106.29107,41.304718 L 98.311901,41.304718 L 98.311901,35.903424 L 106.29107,35.903424 L 106.29107,27.801477 L 111.61052,27.801477 L 111.61052,35.903424 L 125.4411,35.903424 L 125.4411,21.860036 L 117.46191,21.860036 L 117.46191,16.458738 L 125.4411,16.458738 L 125.4411,8.356781 L 130.76054,8.356781 L 130.76054,16.458738 L 138.7397,16.458738 L 138.7397,21.860036 L 130.76054,21.860036 L 130.76054,35.903424 L 144.59111,35.903424 L 144.59111,27.801477 L 149.91055,27.801477 L 149.91055,35.903424 L 157.88973,35.903424 L 157.88973,41.304718 L 149.91055,41.304718 L 149.91055,49.406665 L 144.59111,49.406665 L 144.59111,41.304718 L 130.76054,41.304718 L 130.76054,57.562626 L 128.10081,101.90729 L 125.4411,57.562626 L 125.4411,41.304718 z "
       id="path3923"
       sodipodi:nodetypes="cccccccccccccccccccccccccccccccccccccc"
       style="fill:#fcef3c;fill-opacity:1;stroke:black;stroke-width:1.28320134;stroke-miterlimit:4;stroke-dasharray:none;stroke-opacity:1;display:inline" />
    <path
       style="fill:#fcef3c;fill-opacity:1;stroke:black;stroke-width:1.28320134;stroke-miterlimit:4;stroke-dasharray:none;stroke-opacity:1;display:inline"
       d="M 2.141601,123.7057 L 2.141601,215.67445 L 4.704101,172.8932 L 4.704101,156.6432 L 18.516601,156.6432 L 18.516601,164.73695 L 23.860351,164.73695 L 23.860351,156.6432 L 31.829101,156.6432 L 31.829101,151.23695 L 23.860351,151.23695 L 23.860351,143.1432 L 18.516601,143.1432 L 18.516601,151.23695 L 4.704101,151.23695 L 4.704101,137.2057 L 12.672851,137.2057 L 12.672851,131.79945 L 4.704101,131.79945 L 4.704101,123.7057 L 2.141601,123.7057 z "
       id="path4044" />
    <path
       style="fill:#fcef3c;fill-opacity:1;stroke:black;stroke-width:1.28320134;stroke-miterlimit:4;stroke-dasharray:none;stroke-opacity:1;display:inline"
       sodipodi:nodetypes="cccccccccccccccccccccccccccccccccccccc"
       id="path4046"
       d="M 85.503241,156.64162 L 71.672661,156.64162 L 71.672661,164.74356 L 66.353211,164.74356 L 66.353211,156.64162 L 58.374041,156.64162 L 58.374041,151.24031 L 66.353211,151.24031 L 66.353211,143.13838 L 71.672661,143.13838 L 71.672661,151.24031 L 85.503241,151.24031 L 85.503241,137.19694 L 77.524051,137.19694 L 77.524051,131.79564 L 85.503241,131.79564 L 85.503241,123.69368 L 90.822681,123.69368 L 90.822681,131.79564 L 98.801841,131.79564 L 98.801841,137.19694 L 90.822681,137.19694 L 90.822681,151.24031 L 104.65325,151.24031 L 104.65325,143.13838 L 109.97269,143.13838 L 109.97269,151.24031 L 117.95187,151.24031 L 117.95187,156.64162 L 109.97269,156.64162 L 109.97269,164.74356 L 104.65325,164.74356 L 104.65325,156.64162 L 90.822681,156.64162 L 90.822681,172.89952 L 88.162951,217.24418 L 85.503241,172.89952 L 85.503241,156.64162 z " />
    <path
       style="fill:#fcef3c;fill-opacity:1;stroke:black;stroke-width:1.28320134;stroke-miterlimit:4;stroke-dasharray:none;stroke-opacity:1;display:inline"
       sodipodi:nodetypes="cccccccccccccccccccccccccccccccccccccc"
       id="path4050"
       d="M 257.75786,156.64162 L 243.92729,156.64162 L 243.92729,164.74356 L 238.60783,164.74356 L 238.60783,156.64162 L 230.62867,156.64162 L 230.62867,151.24031 L 238.60783,151.24031 L 238.60783,143.13838 L 243.92729,143.13838 L 243.92729,151.24031 L 257.75786,151.24031 L 257.75786,137.19694 L 249.77868,137.19694 L 249.77868,131.79564 L 257.75786,131.79564 L 257.75786,123.69368 L 263.07731,123.69368 L 263.07731,131.79564 L 271.05647,131.79564 L 271.05647,137.19694 L 263.07731,137.19694 L 263.07731,151.24031 L 276.90788,151.24031 L 276.90788,143.13838 L 282.22731,143.13838 L 282.22731,151.24031 L 290.2065,151.24031 L 290.2065,156.64162 L 282.22731,156.64162 L 282.22731,164.74356 L 276.90788,164.74356 L 276.90788,156.64162 L 263.07731,156.64162 L 263.07731,172.89952 L 260.41757,217.24418 L 257.75786,172.89952 L 257.75786,156.64162 z " />
    <path
       d="M 39.313773,266.48626 L 25.483202,266.48626 L 25.483202,274.58821 L 20.163742,274.58821 L 20.163742,266.48626 L 12.184578,266.48626 L 12.184578,261.08496 L 20.163742,261.08496 L 20.163742,252.98302 L 25.483202,252.98302 L 25.483202,261.08496 L 39.313773,261.08496 L 39.313773,247.04158 L 31.334587,247.04158 L 31.334587,241.64028 L 39.313773,241.64028 L 39.313773,233.53832 L 44.633218,233.53832 L 44.633218,241.64028 L 52.612381,241.64028 L 52.612381,247.04158 L 44.633218,247.04158 L 44.633218,261.08496 L 58.463789,261.08496 L 58.463789,252.98302 L 63.783226,252.98302 L 63.783226,261.08496 L 71.762412,261.08496 L 71.762412,266.48626 L 63.783226,266.48626 L 63.783226,274.58821 L 58.463789,274.58821 L 58.463789,266.48626 L 44.633218,266.48626 L 44.633218,282.74417 L 41.973484,327.08883 L 39.313773,282.74417 L 39.313773,266.48626 z "
       id="path4095"
       sodipodi:nodetypes="cccccccccccccccccccccccccccccccccccccc"
       style="fill:#fcef3c;fill-opacity:1;stroke:black;stroke-width:1.28320134;stroke-miterlimit:4;stroke-dasharray:none;stroke-opacity:1;display:inline" />
    <path
       style="fill:#fcef3c;fill-opacity:1;stroke:black;stroke-width:1.28320134;stroke-miterlimit:4;stroke-dasharray:none;stroke-opacity:1;display:inline"
       sodipodi:nodetypes="cccccccccccccccccccccccccccccccccccccc"
       id="path4097"
       d="M 125.4411,266.48626 L 111.61052,266.48626 L 111.61052,274.58821 L 106.29107,274.58821 L 106.29107,266.48626 L 98.3119,266.48626 L 98.3119,261.08496 L 106.29107,261.08496 L 106.29107,252.98302 L 111.61052,252.98302 L 111.61052,261.08496 L 125.4411,261.08496 L 125.4411,247.04158 L 117.46191,247.04158 L 117.46191,241.64028 L 125.4411,241.64028 L 125.4411,233.53832 L 130.76054,233.53832 L 130.76054,241.64028 L 138.7397,241.64028 L 138.7397,247.04158 L 130.76054,247.04158 L 130.76054,261.08496 L 144.59111,261.08496 L 144.59111,252.98302 L 149.91055,252.98302 L 149.91055,261.08496 L 157.88973,261.08496 L 157.88973,266.48626 L 149.91055,266.48626 L 149.91055,274.58821 L 144.59111,274.58821 L 144.59111,266.48626 L 130.76054,266.48626 L 130.76054,282.74417 L 128.10081,327.08883 L 125.4411,282.74417 L 125.4411,266.48626 z " />
    <path
       d="M 211.5684,266.48626 L 197.73783,266.48626 L 197.73783,274.58821 L 192.41837,274.58821 L 192.41837,266.48626 L 184.43921,266.48626 L 184.43921,261.08496 L 192.41837,261.08496 L 192.41837,252.98302 L 197.73783,252.98302 L 197.73783,261.08496 L 211.5684,261.08496 L 211.5684,247.04158 L 203.58922,247.04158 L 203.58922,241.64028 L 211.5684,241.64028 L 211.5684,233.53832 L 216.88785,233.53832 L 216.88785,241.64028 L 224.86701,241.64028 L 224.86701,247.04158 L 216.88785,247.04158 L 216.88785,261.08496 L 230.71842,261.08496 L 230.71842,252.98302 L 236.03786,252.98302 L 236.03786,261.08496 L 244.01704,261.08496 L 244.01704,266.48626 L 236.03786,266.48626 L 236.03786,274.58821 L 230.71842,274.58821 L 230.71842,266.48626 L 216.88785,266.48626 L 216.88785,282.74417 L 214.22811,327.08883 L 211.5684,282.74417 L 211.5684,266.48626 z "
       id="path4099"
       sodipodi:nodetypes="cccccccccccccccccccccccccccccccccccccc"
       style="fill:#fcef3c;fill-opacity:1;stroke:black;stroke-width:1.28320134;stroke-miterlimit:4;stroke-dasharray:none;stroke-opacity:1;display:inline" />
    <path
       style="fill:#fcef3c;fill-opacity:1;stroke:black;stroke-width:1.28320134;stroke-miterlimit:4;stroke-dasharray:none;stroke-opacity:1;display:inline"
       d="M 297.6875 233.53125 L 297.6875 241.625 L 289.71875 241.625 L 289.71875 247.03125 L 297.6875 247.03125 L 297.6875 261.09375 L 283.875 261.09375 L 283.875 252.96875 L 278.53125 252.96875 L 278.53125 261.09375 L 270.5625 261.09375 L 270.5625 266.5 L 278.53125 266.5 L 278.53125 274.59375 L 283.875 274.59375 L 283.875 266.5 L 297.6875 266.5 L 297.6875 282.75 L 299.5 313 L 299.5 233.53125 L 297.6875 233.53125 z "
       id="path4101" />
    <path
       d="M 85.503241,381.82312 L 71.672661,381.82312 L 71.672661,389.92507 L 66.353211,389.92507 L 66.353211,381.82312 L 58.374041,381.82312 L 58.374041,376.42182 L 66.353211,376.42182 L 66.353211,368.31988 L 71.672661,368.31988 L 71.672661,376.42182 L 85.503241,376.42182 L 85.503241,362.37844 L 77.524051,362.37844 L 77.524051,356.97714 L 85.503241,356.97714 L 85.503241,348.87518 L 90.822681,348.87518 L 90.822681,356.97714 L 98.801841,356.97714 L 98.801841,362.37844 L 90.822681,362.37844 L 90.822681,376.42182 L 104.65325,376.42182 L 104.65325,368.31988 L 109.97269,368.31988 L 109.97269,376.42182 L 117.95187,376.42182 L 117.95187,381.82312 L 109.97269,381.82312 L 109.97269,389.92507 L 104.65325,389.92507 L 104.65325,381.82312 L 90.822681,381.82312 L 90.822681,398.08103 L 88.162951,442.42569 L 85.503241,398.08103 L 85.503241,381.82312 z "
       id="path4113"
       sodipodi:nodetypes="cccccccccccccccccccccccccccccccccccccc"
       style="fill:#fcef3c;fill-opacity:1;stroke:black;stroke-width:1.28320134;stroke-miterlimit:4;stroke-dasharray:none;stroke-opacity:1;display:inline" />
    <path
       style="fill:#fcef3c;fill-opacity:1;stroke:black;stroke-width:1.28320134;stroke-miterlimit:4;stroke-dasharray:none;stroke-opacity:1;display:inline"
       sodipodi:nodetypes="cccccccccccccccccccccccccccccccccccccc"
       id="path4115"
       d="M 171.63054,381.82312 L 157.79997,381.82312 L 157.79997,389.92507 L 152.48051,389.92507 L 152.48051,381.82312 L 144.50135,381.82312 L 144.50135,376.42182 L 152.48051,376.42182 L 152.48051,368.31988 L 157.79997,368.31988 L 157.79997,376.42182 L 171.63054,376.42182 L 171.63054,362.37844 L 163.65136,362.37844 L 163.65136,356.97714 L 171.63054,356.97714 L 171.63054,348.87518 L 176.94999,348.87518 L 176.94999,356.97714 L 184.92915,356.97714 L 184.92915,362.37844 L 176.94999,362.37844 L 176.94999,376.42182 L 190.78056,376.42182 L 190.78056,368.31988 L 196.1,368.31988 L 196.1,376.42182 L 204.07918,376.42182 L 204.07918,381.82312 L 196.1,381.82312 L 196.1,389.92507 L 190.78056,389.92507 L 190.78056,381.82312 L 176.94999,381.82312 L 176.94999,398.08103 L 174.29025,442.42569 L 171.63054,398.08103 L 171.63054,381.82312 z " />
    <path
       d="M 257.75786,381.82312 L 243.92729,381.82312 L 243.92729,389.92507 L 238.60783,389.92507 L 238.60783,381.82312 L 230.62867,381.82312 L 230.62867,376.42182 L 238.60783,376.42182 L 238.60783,368.31988 L 243.92729,368.31988 L 243.92729,376.42182 L 257.75786,376.42182 L 257.75786,362.37844 L 249.77868,362.37844 L 249.77868,356.97714 L 257.75786,356.97714 L 257.75786,348.87518 L 263.07731,348.87518 L 263.07731,356.97714 L 271.05647,356.97714 L 271.05647,362.37844 L 263.07731,362.37844 L 263.07731,376.42182 L 276.90788,376.42182 L 276.90788,368.31988 L 282.22731,368.31988 L 282.22731,376.42182 L 290.2065,376.42182 L 290.2065,381.82312 L 282.22731,381.82312 L 282.22731,389.92507 L 276.90788,389.92507 L 276.90788,381.82312 L 263.07731,381.82312 L 263.07731,398.08103 L 260.41757,442.42569 L 257.75786,398.08103 L 257.75786,381.82312 z "
       id="path4117"
       sodipodi:nodetypes="cccccccccccccccccccccccccccccccccccccc"
       style="fill:#fcef3c;fill-opacity:1;stroke:black;stroke-width:1.28320134;stroke-miterlimit:4;stroke-dasharray:none;stroke-opacity:1;display:inline" />
    <path
       style="fill:#fcef3c;fill-opacity:1;stroke:black;stroke-width:1.28320134;stroke-miterlimit:4;stroke-dasharray:none;stroke-opacity:1;display:inline"
       d="M 129.4541,477.01821 L 129.4541,485.14321 L 121.4541,485.14321 L 121.4541,490.51821 L 129.4541,490.51821 L 129.4541,504.58071 L 115.61035,504.58071 L 115.61035,496.48696 L 110.29785,496.48696 L 110.29785,504.58071 L 102.29785,504.58071 L 102.29785,509.98696 L 110.29785,509.98696 L 110.29785,518.0807 L 115.61035,518.0807 L 115.61035,509.98696 L 129.4541,509.98696 L 129.4541,526.23695 L 130.73535,547.5182 C 131.60446,548.34552 132.48946,549.13842 133.36035,549.9557 L 134.7666,526.23695 L 134.7666,509.98696 L 148.5791,509.98696 L 148.5791,518.0807 L 153.92285,518.0807 L 153.92285,509.98696 L 161.8916,509.98696 L 161.8916,504.58071 L 153.92285,504.58071 L 153.92285,496.48696 L 148.5791,496.48696 L 148.5791,504.58071 L 134.7666,504.58071 L 134.7666,490.51821 L 142.73535,490.51821 L 142.73535,485.14321 L 134.7666,485.14321 L 134.7666,477.01821 L 129.4541,477.01821 z "
       id="path4131" />
    <path
       style="fill:#fcef3c;fill-opacity:1;stroke:black;stroke-width:1.28320134;stroke-miterlimit:4;stroke-dasharray:none;stroke-opacity:1;display:inline"
       sodipodi:nodetypes="cccccccccccccccccccccccccccccccccccccc"
       id="path4133"
       d="M 215.5684,509.97522 L 201.73783,509.97522 L 201.73783,518.07715 L 196.41837,518.07715 L 196.41837,509.97522 L 188.43921,509.97522 L 188.43921,504.57392 L 196.41837,504.57392 L 196.41837,496.47198 L 201.73783,496.47198 L 201.73783,504.57392 L 215.5684,504.57392 L 215.5684,490.53054 L 207.58922,490.53054 L 207.58922,485.12924 L 215.5684,485.12924 L 215.5684,477.02728 L 220.88785,477.02728 L 220.88785,485.12924 L 228.86701,485.12924 L 228.86701,490.53054 L 220.88785,490.53054 L 220.88785,504.57392 L 234.71842,504.57392 L 234.71842,496.47198 L 240.03786,496.47198 L 240.03786,504.57392 L 248.01704,504.57392 L 248.01704,509.97522 L 240.03786,509.97522 L 240.03786,518.07715 L 234.71842,518.07715 L 234.71842,509.97522 L 220.88785,509.97522 L 220.88785,526.23312 L 218.22811,570.57778 L 215.5684,526.23312 L 215.5684,509.97522 z " />
    <path
       style="fill:#fcef3c;fill-opacity:1;stroke:black;stroke-width:1.28320134;stroke-miterlimit:4;stroke-dasharray:none;stroke-opacity:1;display:inline"
       d="M 297.6875 477.03125 L 297.6875 485.125 L 289.71875 485.125 L 289.71875 490.53125 L 297.6875 490.53125 L 297.6875 504.5625 L 283.875 504.5625 L 283.875 496.46875 L 278.53125 496.46875 L 278.53125 504.5625 L 270.5625 504.5625 L 270.5625 509.96875 L 278.53125 509.96875 L 278.53125 518.0625 L 283.875 518.0625 L 283.875 509.96875 L 297.6875 509.96875 L 297.6875 526.21875 L 299.5 556.46875 L 299.5 477.03125 L 297.6875 477.03125 z "
       id="path4135" />
    <path
       style="fill:#fcef3c;fill-opacity:1;stroke:black;stroke-width:1.28320134;stroke-miterlimit:4;stroke-dasharray:none;stroke-opacity:1;display:inline"
       d="M 257.7666,592.36195 L 257.7666,600.4557 L 249.7666,600.4557 L 249.7666,605.86195 L 257.7666,605.86195 L 257.7666,619.92445 L 243.92285,619.92445 L 243.92285,611.79945 L 238.61035,611.79945 L 238.61035,619.92445 L 230.6416,619.92445 L 230.6416,622.7682 C 232.0916,623.63189 233.50181,624.46904 234.92285,625.29945 L 238.61035,625.29945 L 238.61035,627.42445 C 240.40839,628.45803 242.1787,629.4769 243.92285,630.4557 L 243.92285,625.29945 L 257.7666,625.29945 L 257.7666,637.98695 C 259.57956,638.94071 261.35618,639.8538 263.0791,640.73695 L 263.0791,625.29945 L 276.92285,625.29945 L 276.92285,633.42445 L 282.23535,633.42445 L 282.23535,625.29945 L 290.2041,625.29945 L 290.2041,619.92445 L 282.23535,619.92445 L 282.23535,611.79945 L 276.92285,611.79945 L 276.92285,619.92445 L 263.0791,619.92445 L 263.0791,605.86195 L 271.04785,605.86195 L 271.04785,600.4557 L 263.0791,600.4557 L 263.0791,592.36195 L 257.7666,592.36195 z "
       id="path4151" />
    <g
       id="g13222">
      <path
         sodipodi:nodetypes="csssssssssccscccccsssscccssssssssssssssssssccsssc"
         style="fill:#fcef3c;fill-opacity:1"
         d="M 198.08772,519.48349 C 189.56081,517.31205 166.80409,498.4961 163.41422,490.81441 C 160.35148,483.87399 159.49462,483.51511 149.54173,485.00409 C 134.99766,487.1799 116.07131,478.3854 116.07131,469.45135 C 116.07131,464.54229 117.36646,463.37912 122.8324,463.37912 C 135.93081,463.37912 149.56474,454.18466 158.02892,439.64325 C 167.50166,423.36922 170.2671,414.91717 173.63084,391.95904 C 176.5327,372.15338 175.42167,366.87596 168.79316,368.97979 C 165.0357,370.17238 151.12131,365.19726 146.44855,360.99048 C 145.83947,360.44212 147.823,358.25509 150.85642,356.13046 C 153.88983,354.00575 158.09877,351.00682 158.09877,348.31473 C 167.91146,322.42673 175.37073,290.95843 167.42036,262.41434 C 165.84131,261.88799 161.40925,257.20693 161.40925,252.01195 C 161.40925,239.74207 159.28048,237.96366 152.36732,244.45825 L 146.88683,246.45727 L 139.01654,244.05169 L 136.1704,237.87797 L 140.05931,221.8593 C 149.55519,203.97633 150.4845,196.30537 146.06389,172.29355 C 142.25301,151.59363 137.19216,145.82025 132.41092,156.7183 C 131.04343,159.83529 127.37431,162.74774 124.25732,163.19044 C 120.61528,163.70767 118.59008,165.7329 118.59008,168.85769 C 118.59008,172.58111 116.82014,173.72003 111.03376,173.72003 L 103.47743,173.72003 L 103.47743,151.05106 C 103.47743,130.90086 102.97368,128.38208 98.94364,128.38208 C 89.325649,128.38208 85.304476,118.48871 92.142948,111.65025 C 97.854673,105.93849 96.781096,103.29663 87.105399,99.253872 C 73.813146,93.699999 75.39058,87.300268 91.986961,79.448927 C 109.76268,71.039671 138.85886,70.287638 153.32357,77.863578 C 165.65335,84.321342 214.25662,134.44165 220.63203,147.27289 C 223.38531,152.8142 229.15619,163.06189 233.4562,170.04549 C 251.15374,198.78793 254.27435,214.43232 242.63973,216.0847 C 238.32889,216.69692 236.97248,215.64193 236.97248,211.67685 C 236.97248,208.02582 235.35382,206.4641 231.56961,206.4641 C 226.38792,206.4641 226.23525,207.21157 227.84036,224.72521 C 228.76085,234.76883 230.62983,272.45601 231.99365,308.47449 C 233.35748,344.49296 235.5653,381.89676 236.89989,391.59404 C 240.87481,420.47605 240.35593,428.11628 234.41952,428.11628 C 231.63009,428.11628 227.37966,427.06557 224.97412,425.78138 C 222.56859,424.49717 218.50931,422.79127 215.95346,421.9905 C 213.39761,421.18973 210.70305,418.22701 209.96552,415.40669 C 208.20647,408.68011 203.20592,410.47997 202.09798,418.23848 C 201.61891,421.59328 200.10037,425.71029 198.72343,427.38739 C 191.53487,446.33895 186.8634,454.43271 186.59699,471.55342 C 186.59699,485.39046 187.60813,489.05571 193.52363,496.66133 C 197.33327,501.55946 204.13396,507.98637 208.63627,510.94336 C 213.13858,513.90035 216.82229,517.44272 216.82229,518.81531 C 216.82229,521.36376 206.86562,521.71887 198.08772,519.48349 z "
         id="path6142" />
      <path
         sodipodi:nodetypes="csssssssssccsccccccssssccsssccccssssssssscccssssssssssssssssssssssssssssssssssscccccccsssscccsssssssssssssssssccsssccscccssssccsssssssccsssccssssssssccsssccssssccssccsssccssssssc"
         style="fill:black;fill-opacity:1"
         d="M 198.08774,519.48349 C 189.56084,517.31205 166.80411,498.4961 163.41424,490.81441 C 160.35152,483.87399 159.49465,483.51511 149.54177,485.00409 C 134.99768,487.1799 116.07131,478.3854 116.07131,469.45135 C 116.07131,464.54232 117.36646,463.37912 122.8324,463.37912 C 135.93084,463.37912 149.56474,454.18466 158.02896,439.64325 C 167.50168,423.36922 170.26712,414.91717 173.63084,391.95904 C 176.53273,372.15338 175.4217,366.87598 168.79319,368.97979 C 165.03573,370.17238 151.12134,365.19729 146.44859,360.99048 C 145.83949,360.44214 147.82303,358.25511 150.85644,356.13046 C 153.88985,354.00577 157.47076,350.37879 157.47076,347.68669 C 174.3486,308.31246 163.19985,346.41711 159.94511,353.79749 C 156.95416,359.56249 156.85548,361.38792 159.4443,363.05913 C 164.94646,366.61103 169.44392,364.23439 174.55927,355.07182 L 179.48097,346.2561 L 178.32622,382.67008 C 177.47613,396.94244 178.71446,416.62701 171.46276,429.40171 C 169.07919,432.27372 169.90833,434.20634 175.63856,439.13534 C 187.8987,450.74661 190.67535,430.33484 194.74878,420.55996 C 202.67967,403.17578 206.74721,393.32067 206.74721,391.48927 C 206.74721,389.88929 216.52214,368.435 218.67276,365.31484 C 219.08651,364.71452 220.63266,365.43098 222.10864,366.90696 C 223.94951,368.74785 223.98893,371.06795 222.23418,374.29536 C 218.70683,380.78291 213.69152,409.97568 215.57954,413.0305 C 221.65577,415.64102 227.13916,421.3014 233.39537,422.45787 C 234.18165,421.67162 233.04123,403.91088 230.86118,382.98954 C 228.68111,362.06819 226.81323,328.80943 226.71031,309.08118 C 226.5132,271.29317 221.50733,209.62584 217.25574,192.61083 C 215.87112,187.06953 211.80682,174.20968 208.22397,164.03335 C 205.89227,149.83358 201.22157,139.05194 193.71808,124.65846 C 182.78788,110.15941 168.61025,91.646793 152.02843,82.715976 C 134.98982,75.026026 131.40344,73.254225 102.53707,79.755254 C 97.342102,80.666194 91.936812,85.323087 88.606362,87.417392 C 82.830561,91.04941 82.772427,91.342951 87.346976,93.775607 C 102.45882,101.81176 109.71044,118.30699 98.131486,118.30699 C 93.763125,118.30699 93.336193,118.97053 95.796859,121.93543 C 99.579757,126.49356 104.11408,124.86155 107.30879,117.79199 C 108.66488,114.79115 111.19118,111.88482 112.92284,111.33341 C 117.97515,109.72464 116.5703,119.59343 111.03376,124.60393 C 106.75617,128.47508 105.99621,132.36168 105.99621,150.36673 C 105.99621,169.20147 106.4887,171.47686 110.40406,170.73137 C 114.05032,170.03713 115.05725,166.19718 116.23175,148.5074 L 117.65156,127.12269 L 118.12083,144.29961 C 118.56502,160.55875 118.89289,161.43352 124.25732,160.67164 C 128.38449,160.0855 130.14919,157.90106 130.75118,152.6333 C 131.20582,148.6549 130.35573,144.17778 128.8621,142.68414 C 124.94135,138.76339 125.31649,122.62409 129.29487,124.06536 C 131.02653,124.69271 134.43383,123.47176 136.86664,121.35214 C 144.18314,114.97757 144.82856,120.00404 137.61922,127.21335 C 128.32696,136.50562 130.83241,140.54716 140.72497,132.22314 C 147.2115,126.76511 148.8154,123.5237 148.8154,115.87272 C 148.8154,102.92149 143.39681,98.53783 136.2375,105.69718 C 129.40222,112.53242 118.26806,111.62687 114.90378,103.96211 C 113.569,100.92107 109.8853,97.78248 106.71776,96.987502 C 103.55025,96.192502 100.95866,94.497088 100.95866,93.219921 C 100.95866,89.558556 105.68731,87.586131 109.14468,89.805345 C 115.04128,93.590254 134.94458,97.790339 135.8017,95.430625 C 137.16965,91.664773 147.93148,92.797441 151.48689,97.081431 C 157.14774,103.90232 154.55478,123.57125 146.94605,131.52614 C 140.59399,138.16719 137.35513,148.53228 141.63203,148.53228 C 142.75941,148.53228 144.39307,151.36591 145.26232,154.82922 C 146.13154,158.29253 147.81771,161.12616 149.00939,161.12616 C 150.20108,161.12616 150.52363,162.82633 149.72627,164.90432 C 148.9194,167.00696 149.65717,168.68248 151.38991,168.68248 C 153.75426,168.68248 154.07528,173.68252 152.72411,189.46237 C 151.36672,205.3146 149.20787,213.46793 143.62013,223.84488 C 136.77221,236.5621 136.57994,237.66353 140.66633,240.76651 C 146.84851,245.4609 147.82126,245.16013 153.85295,236.68939 C 156.81223,232.53341 160.25076,229.13306 161.49403,229.13306 C 162.73732,229.13306 164.58562,235.08368 165.6014,242.35666 C 166.61717,249.62962 167.87275,253.59669 168.39162,251.17237 C 168.91046,248.74805 170.3853,246.76451 171.66905,246.76451 C 174.76865,246.76451 174.66324,255.17201 171.52429,258.31093 C 168.58672,261.24852 173.6822,305.08736 177.24342,307.51524 C 179.39755,308.98383 175.26921,344.57027 172.63963,347.19985 C 169.77465,350.06479 168.19266,344.29403 170.72944,340.23201 C 172.28735,337.73741 173.77106,331.27162 174.02662,325.86361 C 174.67135,312.21923 174.33011,309.73388 171.81192,309.73388 C 169.80077,309.73388 167.34567,330.93103 164.75088,341.0532 C 155.39998,357.8528 158.89501,344.07621 162.38248,335.55131 C 167.57231,312.5143 169.08496,296.34583 167.56637,280.14032 C 168.46124,269.67085 161.77673,262.04821 161.40927,252.22184 C 161.40927,239.74137 157.26732,240.13556 150.32628,246.6563 C 144.92297,250.35697 142.62771,246.72079 139.01656,244.05169 C 131.57875,241.76911 134.3155,228.21323 140.05934,221.85927 C 149.55521,203.97633 150.48452,196.30535 146.06392,172.29355 C 142.25303,151.5936 137.19218,145.82021 132.41092,156.7183 C 131.04343,159.83529 127.37431,162.74774 124.25732,163.19041 C 120.61528,163.70767 118.59008,165.73287 118.59008,168.85766 C 118.59008,172.58111 116.82014,173.72003 111.03376,173.72003 L 103.47743,173.72003 L 103.47743,151.05106 C 103.47743,130.90086 102.97368,128.38208 98.94364,128.38208 C 89.325649,128.38208 85.304476,118.48871 92.142948,111.65025 C 97.854673,105.93849 96.781096,103.29663 87.105399,99.253872 C 73.813146,93.699999 75.39058,87.300268 91.986961,79.448895 C 109.76268,71.039671 138.85889,70.287606 153.3236,77.863578 C 165.65339,84.321342 214.25664,134.44165 220.63205,147.27289 C 223.38533,152.8142 229.15623,163.06186 233.45622,170.04549 C 251.15376,198.78791 254.27438,214.43232 242.63975,216.08468 C 238.32892,216.69692 236.9725,215.64193 236.9725,211.67683 C 236.9725,208.02578 235.35382,206.4641 231.56963,206.4641 C 226.38794,206.4641 226.23527,207.21157 227.84036,224.72521 C 228.76085,234.76883 230.62986,272.45601 231.99365,308.47449 C 233.35748,344.49296 235.56532,381.89676 236.89991,391.59404 C 240.87485,420.47605 240.35595,428.11628 234.41952,428.11628 C 231.63009,428.11628 227.37966,427.06557 224.97412,425.78138 C 222.56859,424.49717 218.50934,422.79129 215.95348,421.9905 C 213.39761,421.18973 210.70308,418.22701 209.96556,415.40669 C 208.20649,408.68011 203.20592,410.47997 202.09801,418.23848 C 197.46631,436.04445 190.25826,453.34954 186.59701,471.55342 C 186.59701,485.39046 187.60813,489.05571 193.52365,496.66133 C 197.33327,501.55946 204.13396,507.98637 208.63629,510.94336 C 213.1386,513.90035 216.82231,517.44272 216.82231,518.81531 C 216.82231,521.36376 206.86562,521.71887 198.08774,519.48349 z M 199.18172,510.57942 C 198.22378,507.46244 186.46561,492.93034 183.99047,490.56723 C 180.58402,487.31493 179.81731,483.83177 180.83607,476.2364 C 191.97334,439.14232 165.3674,438.47134 162.03896,446.11295 C 157.47837,454.86533 145.07066,464.47713 134.78764,467.02384 C 124.53517,468.9472 123.87923,471.85258 132.43226,477.45673 C 139.9581,482.38786 155.61607,480.39508 160.5745,473.87511 C 163.35195,470.2229 163.79918,470.82414 164.00852,478.49177 C 164.20602,485.72589 166.28471,489.00204 175.59516,496.75288 C 188.62914,507.60353 201.68062,518.71075 199.18172,510.57942 z M 244.52883,205.41354 C 244.52883,197.38348 236.27254,178.36512 230.82322,173.84257 C 228.44789,171.87122 223.6062,164.51985 220.0639,157.50622 C 213.41977,144.35111 204.1356,131.03574 204.3498,134.96903 C 204.41654,136.19487 209.81072,151.93263 216.33687,169.94187 C 227.08183,199.59326 228.73569,202.6115 233.84694,201.89791 C 238.12409,201.30079 239.49128,202.36845 239.49128,206.30577 C 239.49128,209.16352 240.62471,211.50165 242.01005,211.50165 C 243.39539,211.50165 244.52883,208.762 244.52883,205.41354 z M 126.1464,103.19434 C 126.1464,101.80902 125.01296,100.67557 123.62763,100.67557 C 122.2423,100.67557 121.10886,101.80902 121.10886,103.19434 C 121.10886,104.57967 122.2423,105.71312 123.62763,105.71312 C 125.01296,105.71312 126.1464,104.57967 126.1464,103.19434 z M 185.02606,404.28424 C 184.24899,402.25922 185.38803,397.0446 187.5573,392.69621 C 189.72657,388.3478 192.27021,380.69208 193.20981,375.68345 C 194.14946,370.67485 197.14353,361.54625 199.86333,355.39767 C 204.32291,345.31603 204.69524,339.99099 203.65554,301.15873 C 203.02144,277.47588 202.94369,266.59588 203.48266,276.98099 C 204.02167,287.3661 205.54344,296.94374 206.86431,298.26464 C 213.43066,304.83096 207.49673,361.88215 197.94304,384.03773 C 196.15096,388.1937 193.90837,395.27775 192.95949,399.78007 C 191.14605,408.38483 187.41293,410.5043 185.02606,404.28424 z M 183.0652,262.50685 C 180.44479,234.65977 179.31854,214.84451 180.73883,221.57675 C 181.46952,225.04006 182.94086,228.44041 184.00852,229.13306 C 187.02579,231.09056 190.02165,279.50859 187.12548,279.50859 C 185.77229,279.50859 183.94516,271.85781 183.0652,262.50685 z M 211.78476,239.62797 C 211.78476,235.2411 210.80766,231.65184 209.61337,231.65184 C 208.41915,231.65184 206.65958,223.01735 205.70331,212.4641 C 204.16192,195.45423 201.96205,189.27892 186.32207,158.05854 C 174.80686,135.07195 168.94797,120.52263 169.4523,116.16603 C 170.0895,110.66147 172.1017,113.34606 180.92977,131.47876 C 185.67675,142.85307 190.26458,153.40402 197.42525,163.01523 C 198.16263,165.43956 200.99859,173.28581 203.72741,180.45136 C 208.69498,193.49571 215.9116,243.47727 213.21648,246.17234 C 212.42906,246.95982 211.78476,244.01484 211.78476,239.62797 z M 147.09938,231.337 C 147.88726,229.43217 151.1459,219.66678 154.34087,209.63614 C 159.63462,193.01633 163.92805,186.30013 163.92805,194.63901 C 163.92805,201.69006 152.04711,232.67358 148.94706,233.70694 C 146.94546,234.37413 146.22529,233.45037 147.09938,231.337 z M 174.62002,203.31185 C 173.10804,200.19693 170.01656,189.14752 167.75004,178.75757 C 165.48352,168.36763 162.48436,157.77286 161.08528,155.21364 C 159.68618,152.65443 159.18668,149.91527 159.97536,149.12661 C 162.39235,146.70962 164.27191,150.17672 166.7155,161.55974 C 168.0026,167.55523 170.10274,174.72754 171.38251,177.49818 C 173.87605,182.89663 179.12087,207.22353 178.02702,208.31736 C 177.66516,208.67923 176.13204,206.42674 174.62002,203.31185 z "
         id="path6144" />
    </g>
    <path
       style="fill:#fcef3c;fill-opacity:1;stroke:black;stroke-width:1.28320134;stroke-miterlimit:4;stroke-dasharray:none;stroke-opacity:1;display:inline"
       sodipodi:nodetypes="cccccccccccccccccccccccccccccccccccccc"
       id="path1938"
       d="M 39.31378,41.304718 L 25.4832,41.304718 L 25.4832,49.406665 L 20.16375,49.406665 L 20.16375,41.304718 L 12.184581,41.304718 L 12.184581,35.903424 L 20.16375,35.903424 L 20.16375,27.801477 L 25.4832,27.801477 L 25.4832,35.903424 L 39.31378,35.903424 L 39.31378,21.860036 L 31.33459,21.860036 L 31.33459,16.458738 L 39.31378,16.458738 L 39.31378,8.356781 L 44.63322,8.356781 L 44.63322,16.458738 L 52.61238,16.458738 L 52.61238,21.860036 L 44.63322,21.860036 L 44.63322,35.903424 L 58.46379,35.903424 L 58.46379,27.801477 L 63.78323,27.801477 L 63.78323,35.903424 L 71.762409,35.903424 L 71.762409,41.304718 L 63.78323,41.304718 L 63.78323,49.406665 L 58.46379,49.406665 L 58.46379,41.304718 L 44.63322,41.304718 L 44.63322,57.562626 L 41.973489,101.90729 L 39.31378,57.562626 L 39.31378,41.304718 z " />
    <path
       style="fill:#fcef3c;fill-opacity:1;stroke:black;stroke-width:1.28320134;stroke-miterlimit:4;stroke-dasharray:none;stroke-opacity:1;display:inline"
       sodipodi:nodetypes="cccccccccccccccccccccccccccccccccccccc"
       id="path1940"
       d="M 211.56841,41.304718 L 197.73783,41.304718 L 197.73783,49.406665 L 192.41838,49.406665 L 192.41838,41.304718 L 184.43921,41.304718 L 184.43921,35.903424 L 192.41838,35.903424 L 192.41838,27.801477 L 197.73783,27.801477 L 197.73783,35.903424 L 211.56841,35.903424 L 211.56841,21.860036 L 203.58922,21.860036 L 203.58922,16.458738 L 211.56841,16.458738 L 211.56841,8.356781 L 216.88785,8.356781 L 216.88785,16.458738 L 224.86701,16.458738 L 224.86701,21.860036 L 216.88785,21.860036 L 216.88785,35.903424 L 230.71842,35.903424 L 230.71842,27.801477 L 236.03786,27.801477 L 236.03786,35.903424 L 244.01704,35.903424 L 244.01704,41.304718 L 236.03786,41.304718 L 236.03786,49.406665 L 230.71842,49.406665 L 230.71842,41.304718 L 216.88785,41.304718 L 216.88785,57.562626 L 214.22812,101.90729 L 211.56841,57.562626 L 211.56841,41.304718 z " />
    <path
       style="fill:#fcef3c;fill-opacity:1;stroke:black;stroke-width:1.28320134;stroke-miterlimit:4;stroke-dasharray:none;stroke-opacity:1;display:inline"
       d="M 296.625 8.34375 L 296.625 16.46875 L 288.65625 16.46875 L 288.65625 21.875 L 296.625 21.875 L 296.625 35.90625 L 282.78125 35.90625 L 282.78125 27.8125 L 277.46875 27.8125 L 277.46875 35.90625 L 269.5 35.90625 L 269.5 41.3125 L 277.46875 41.3125 L 277.46875 49.40625 L 282.78125 49.40625 L 282.78125 41.3125 L 296.625 41.3125 L 296.625 57.5625 L 299.28125 101.90625 L 299.5 98.25 L 299.5 8.34375 L 296.625 8.34375 z "
       id="path1942" />
  </g>
  <g
     inkscape:groupmode="layer"
     id="layer4"
     inkscape:label="Meubles" />
  <g
     inkscape:groupmode="layer"
     id="layer2"
     inkscape:label="Reflet final"
     sodipodi:insensitive="true">
    <path
       sodipodi:nodetypes="cccccc"
       d="M 300.00001,658.5 C 300.00001,658.5 598.50001,546.17969 598.50001,260.72817 C 598.50001,-24.723334 598.50001,2.1764865 598.50001,2.1764865 L 1.5,2.1764865 L 1.5,260.72817 C 1.5,546.17969 300.00001,658.5 300.00001,658.5 z "
       style="opacity:1;fill:url(#radialGradient3163);fill-opacity:1;fill-rule:evenodd;stroke:none;stroke-width:1px;stroke-linecap:butt;stroke-linejoin:miter;stroke-opacity:1"
       id="path2875"
       inkscape:export-xdpi="144"
       inkscape:export-ydpi="144" />
  </g>
  <g
     inkscape:groupmode="layer"
     id="layer1"
     inkscape:label="Contour final"
     sodipodi:insensitive="true">
    <path
       sodipodi:nodetypes="cccccc"
       d="M 299.99999,658.50028 C 299.99999,658.50028 1.5,546.17992 1.5,260.72828 C 1.5,-24.723336 1.5,2.1764957 1.5,2.1764957 L 598.49999,2.1764957 L 598.49999,260.72828 C 598.49999,546.17992 299.99999,658.50028 299.99999,658.50028 z "
       style="opacity:1;fill:none;fill-opacity:1;fill-rule:evenodd;stroke:#000000;stroke-width:3.00000048;stroke-linecap:butt;stroke-linejoin:miter;stroke-miterlimit:4;stroke-dasharray:none;stroke-opacity:1"
       id="path1411"
       inkscape:export-xdpi="144"
       inkscape:export-ydpi="144" />
  </g>
</svg>
