<?xml version="1.0" encoding="UTF-8" standalone="no"?>
<svg
   xmlns:dc="http://purl.org/dc/elements/1.1/"
   xmlns:cc="http://creativecommons.org/ns#"
   xmlns:rdf="http://www.w3.org/1999/02/22-rdf-syntax-ns#"
   xmlns:svg="http://www.w3.org/2000/svg"
   xmlns="http://www.w3.org/2000/svg"
   xmlns:xlink="http://www.w3.org/1999/xlink"
   xmlns:sodipodi="http://sodipodi.sourceforge.net/DTD/sodipodi-0.dtd"
   xmlns:inkscape="http://www.inkscape.org/namespaces/inkscape"
   height="660"
   width="600"
   version="1.0"
   id="svg2"
   sodipodi:version="0.32"
   inkscape:version="0.48.2 r9819"
   sodipodi:docname="Blason de la ville de Sainte-Colombe (Yonne).svg"
   inkscape:export-filename="/Users/olivier/Desktop/Blason Rouge/Blason_Vide_3D.png"
   inkscape:export-xdpi="144"
   inkscape:export-ydpi="144"
   inkscape:output_extension="org.inkscape.output.svg.inkscape">
  <metadata
     id="metadata49">
    <rdf:RDF>
      <cc:Work
         rdf:about="">
        <dc:format>image/svg+xml</dc:format>
        <dc:type
           rdf:resource="http://purl.org/dc/dcmitype/StillImage" />
        <dc:title />
        <dc:date>03-AUG-2006</dc:date>
        <dc:creator>
          <cc:Agent>
            <dc:title>Jérôme BLUM (wagner51)</dc:title>
          </cc:Agent>
        </dc:creator>
        <cc:license
           rdf:resource="http://web.resource.org/cc/PublicDomain" />
        <dc:language>fr</dc:language>
        <dc:subject>
          <rdf:Bag>
            <rdf:li>gabarit modèle blason projet wikipédia</rdf:li>
          </rdf:Bag>
        </dc:subject>
      </cc:Work>
      <cc:License
         rdf:about="http://web.resource.org/cc/PublicDomain">
        <cc:permits
           rdf:resource="http://web.resource.org/cc/Reproduction" />
        <cc:permits
           rdf:resource="http://web.resource.org/cc/Distribution" />
        <cc:permits
           rdf:resource="http://web.resource.org/cc/DerivativeWorks" />
      </cc:License>
    </rdf:RDF>
  </metadata>
  <sodipodi:namedview
     inkscape:window-height="1001"
     inkscape:window-width="1920"
     inkscape:pageshadow="2"
     inkscape:pageopacity="1"
     guidetolerance="10.0"
     gridtolerance="10.0"
     objecttolerance="10.0"
     borderopacity="1.0"
     bordercolor="#666666"
     pagecolor="#ffffff"
     id="base"
     showgrid="false"
     height="660px"
     inkscape:zoom="1"
     inkscape:cx="69"
     inkscape:cy="321"
     inkscape:window-x="-4"
     inkscape:window-y="-4"
     inkscape:current-layer="layer4"
     inkscape:window-maximized="1" />
  <desc
     id="desc4">Flag of Canton of Valais (Wallis)</desc>
  <defs
     id="defs6">
    <radialGradient
       r="300"
       fy="200.44757"
       fx="285.18573"
       cy="200.44757"
       cx="285.18573"
       gradientTransform="matrix(1.551284,0,0,1.350335,-147.42424,104.21103)"
       gradientUnits="userSpaceOnUse"
       id="radialGradient11919-6"
       xlink:href="#linearGradient2893-7"
       inkscape:collect="always" />
    <linearGradient
       id="linearGradient2893-7">
      <stop
         id="stop2895-1"
         offset="0"
         style="stop-color:white;stop-opacity:0.3137255;" />
      <stop
         style="stop-color:white;stop-opacity:0.25098041;"
         offset="0.19"
         id="stop2897-1" />
      <stop
         id="stop2901-52"
         offset="0.60000002"
         style="stop-color:#6b6b6b;stop-opacity:0.1254902;" />
      <stop
         id="stop2899-7"
         offset="1"
         style="stop-color:black;stop-opacity:0.1254902;" />
    </linearGradient>
  </defs>
  <g
     inkscape:groupmode="layer"
     id="layer3"
     inkscape:label="Fond écu"
     style="display:inline">
    <g
       id="layer1-1"
       inkscape:label="Calque 1"
       transform="translate(-74.999844,-202.36234)"
       style="fill:#fcef3c">
      <g
         style="fill:#fcef3c;stroke:none;display:inline"
         id="g4195"
         inkscape:label="Calque 1"
         transform="translate(2.5e-6,2.6171874e-6)">
        <path
           sodipodi:nodetypes="cssccccssc"
           d="m 374.99998,860.86234 c 0,-38.5041 31.20319,-69.75372 69.65,-69.75372 38.44681,0 120.75317,0 159.19998,0 38.4468,0 69.65009,-31.24962 69.65009,-69.75362 l 0,-517.49298 -597.000095,2e-5 -1e-5,517.49296 c 0,38.504 31.203215,69.75362 69.650015,69.75362 38.44683,0 120.75321,0 159.20002,0 38.4468,0 69.65,31.24962 69.65,69.75372 z"
           style="fill:#fcef3c;fill-opacity:1;fill-rule:nonzero;stroke:none;display:inline"
           id="path4197"
           inkscape:connector-curvature="0" />
      </g>
    </g>
    <rect
       style="fill:#ffffff;fill-opacity:1;fill-rule:evenodd;stroke:#000000;stroke-width:2;stroke-linecap:round;stroke-linejoin:round;stroke-miterlimit:4;stroke-opacity:1;stroke-dasharray:none;stroke-dashoffset:0"
       id="rect12745"
       width="2"
       height="0"
       x="284.78329"
       y="78.473526" />
  </g>
  <g
     inkscape:groupmode="layer"
     id="layer4"
     inkscape:label="Meubles">
    <text
       xml:space="preserve"
       style="font-size:22px;font-style:normal;font-variant:normal;font-weight:normal;font-stretch:normal;text-indent:0;text-align:start;text-decoration:none;line-height:125%;letter-spacing:0px;word-spacing:0px;text-transform:none;direction:ltr;block-progression:tb;writing-mode:lr-tb;text-anchor:start;baseline-shift:baseline;color:#000000;fill:#000000;fill-opacity:1;fill-rule:nonzero;stroke:none;stroke-width:1px;marker:none;visibility:visible;display:inline;overflow:visible;enable-background:accumulate;font-family:Constantia;-inkscape-font-specification:Constantia"
       x="-645"
       y="-289"
       id="text10211"
       sodipodi:linespacing="125%"><tspan
         sodipodi:role="line"
         x="-645"
         y="-289"
         id="tspan10253" /></text>
    <g
       id="g10363"
       transform="translate(-158.04687,0)">
      <g
         inkscape:label="Fond écu"
         id="layer1-11">
        <path
           id="path11252"
           d="M 756.45312,3.09375 C 641.6415,109.76616 344.69631,413.38842 187.54687,574.9375 c 11.60597,8.66503 25.98402,13.8125 41.5625,13.8125 38.44681,-3e-5 120.7407,0 159.1875,0 38.44679,-3e-5 69.65625,31.24594 69.65625,69.75 -1e-5,-38.50409 31.20946,-69.75 69.65625,-69.75 38.44679,-3e-5 120.74072,0 159.1875,0 38.44682,-3e-5 69.65625,-31.24603 69.65625,-69.75 l 0,-515.90625 z"
           style="fill:#2b5df2;fill-opacity:1;fill-rule:evenodd;stroke:#000000;stroke-width:3;stroke-linecap:butt;stroke-linejoin:miter;stroke-miterlimit:4;stroke-opacity:1;stroke-dasharray:none"
           inkscape:connector-curvature="0" />
      </g>
      <g
         inkscape:label="Meubles"
         id="layer2-3" />
      <g
         inkscape:label="Reflet final"
         id="layer3-8" />
      <g
         inkscape:label="Contour final"
         id="layer4-7" />
    </g>
    <g
       inkscape:label="meuble "
       id="layer5"
       transform="matrix(0.91588296,-0.91588296,0.91588296,0.91588296,-252.66417,317.76557)"
       style="fill:#ffffff">
      <g
         transform="matrix(1,0,0,1.3921719,19.866745,-114.81316)"
         id="g30226"
         style="fill:#ffffff;display:inline">
        <g
           id="g30228"
           inkscape:label="Fond écu"
           style="fill:#ffffff;display:inline">
          <g
             id="g34371"
             transform="matrix(1.363808,0,0,-1.048534,787.2507,1128.163)"
             style="fill:#ffffff;stroke:#000000;stroke-width:1.41375196;stroke-miterlimit:4;stroke-opacity:1;stroke-dasharray:none;display:inline">
            <g
               transform="matrix(0.39652,0,0,0.356132,-209.5406,559.9037)"
               id="g34279"
               style="fill:#ffffff;stroke:#000000;stroke-width:3.76214552;stroke-miterlimit:4;stroke-opacity:1;stroke-dasharray:none">
              <g
                 id="g34086"
                 transform="matrix(-1.121482,0,0,1,-767.1799,-2.414213)"
                 style="fill:#ffffff;stroke:#000000;stroke-width:3.55254412;stroke-miterlimit:4;stroke-opacity:1;stroke-dasharray:none">
                <path
                   style="fill:#ffffff;fill-opacity:1;fill-rule:evenodd;stroke:#000000;stroke-width:3.55254412;stroke-linecap:butt;stroke-linejoin:miter;stroke-miterlimit:4;stroke-opacity:1;stroke-dasharray:none"
                   d="m -337.36406,637.36339 c 31.26024,-2.81074 36.602,-37.63131 70.44355,-43.85511 45.62959,-4.98647 81.49611,16.97036 119.49304,35.95458 36.57192,19.6795 68.853118,4.83957 121.826626,23.75673 -2.053984,5.35904 33.8312888,14.26968 -15.395789,17.01456 3.517946,4.98992 2.139943,10.27357 -27.647228,6.81756 7.503647,1.80776 5.85311,12.53469 -27.647232,6.81916 2.170606,5.7961 -10.981057,10.91933 -27.647237,5.76246 3.35593,5.2704 8.39473,12.03567 -27.64723,2.42705 8.84899,6.12597 11.8701,13.95707 -27.64723,4.50031 11.36024,8.25846 14.52794,14.5903 -27.64723,4.88168 16.85014,11.01955 -1.46156,17.61103 -27.64723,9.44714 8.41732,18.27885 -5.80298,18.98191 -27.64724,17.171 4.57119,13.10912 -1.59365,20.70712 -27.64721,15.78622 -9.25261,2.2516 -18.52956,9.18856 -27.64722,2.02422 -6.49726,4.86207 -14.88855,4.70537 -20.59554,-7.21563 -6.62071,-11.52635 -3.02777,-25.18119 -3.95655,-37.68168 -0.0248,-16.514 -0.41454,-33.04304 1.55231,-49.47462 -0.42391,-4.92485 0.80169,-9.69346 3.10464,-14.13563 z"
                   id="path34088"
                   sodipodi:nodetypes="ccccccccccccccccccc"
                   inkscape:connector-curvature="0" />
                <path
                   style="fill:#ffffff;fill-rule:evenodd;stroke:#000000;stroke-width:3.55254412;stroke-linecap:butt;stroke-linejoin:miter;stroke-miterlimit:4;stroke-opacity:1;stroke-dasharray:none"
                   d="m -341.17579,664.57394 c 17.75595,28.42461 62.82128,-66.97987 145.27477,-26.29624 25.08098,12.83488 122.632856,26.11087 162.049783,18.89143 l 8.293131,-3.01587"
                   id="path34090"
                   sodipodi:nodetypes="cccc"
                   inkscape:connector-curvature="0" />
                <path
                   style="fill:#ffffff;fill-rule:evenodd;stroke:#000000;stroke-width:3.55254412;stroke-linecap:butt;stroke-linejoin:miter;stroke-miterlimit:4;stroke-opacity:1;stroke-dasharray:none"
                   d="m -301.22749,652.33851 96.01945,50.75635"
                   id="path34092"
                   transform="translate(0.144576,-0.847836)"
                   sodipodi:nodetypes="cc"
                   inkscape:connector-curvature="0" />
                <path
                   style="fill:#ffffff;fill-rule:evenodd;stroke:#000000;stroke-width:3.55254412;stroke-linecap:butt;stroke-linejoin:miter;stroke-miterlimit:4;stroke-opacity:1;stroke-dasharray:none"
                   d="m -283.90337,642.43902 105.65117,55.4561"
                   id="path34094"
                   transform="translate(0.144576,-0.847836)"
                   sodipodi:nodetypes="cc"
                   inkscape:connector-curvature="0" />
                <path
                   style="fill:#ffffff;fill-rule:evenodd;stroke:#000000;stroke-width:3.55254412;stroke-linecap:butt;stroke-linejoin:miter;stroke-miterlimit:4;stroke-opacity:1;stroke-dasharray:none"
                   d="m -263.57405,632.89307 112.48848,60.45763"
                   id="path34096"
                   transform="translate(0.144576,-0.847836)"
                   sodipodi:nodetypes="cc"
                   inkscape:connector-curvature="0" />
                <path
                   style="fill:#ffffff;fill-rule:evenodd;stroke:#000000;stroke-width:3.55254412;stroke-linecap:butt;stroke-linejoin:miter;stroke-miterlimit:4;stroke-opacity:1;stroke-dasharray:none"
                   d="m -241.47697,628.65043 c 39.16803,20.58228 79.11504,38.04867 117.5041,61.74685"
                   id="path34098"
                   transform="translate(0.144576,-0.847836)"
                   sodipodi:nodetypes="cc"
                   inkscape:connector-curvature="0" />
                <path
                   style="fill:#ffffff;fill-rule:evenodd;stroke:#000000;stroke-width:3.55254412;stroke-linecap:butt;stroke-linejoin:miter;stroke-miterlimit:4;stroke-opacity:1;stroke-dasharray:none"
                   d="m -172.17689,647.02823 c 26.69208,13.79091 47.61449,22.90008 76.576231,38.01917"
                   id="path34100"
                   transform="translate(0.144576,-0.847836)"
                   sodipodi:nodetypes="cc"
                   inkscape:connector-curvature="0" />
                <path
                   style="fill:#ffffff;fill-rule:evenodd;stroke:#000000;stroke-width:3.55254412;stroke-linecap:butt;stroke-linejoin:miter;stroke-miterlimit:4;stroke-opacity:1;stroke-dasharray:none"
                   d="m -134.28613,653.46578 c 20.57642,7.58276 43.057441,18.23075 67.479383,23.95536"
                   id="path34102"
                   sodipodi:nodetypes="cc"
                   inkscape:connector-curvature="0" />
                <path
                   style="fill:#ffffff;fill-rule:evenodd;stroke:#000000;stroke-width:3.55254412;stroke-linecap:butt;stroke-linejoin:miter;stroke-miterlimit:4;stroke-opacity:1;stroke-dasharray:none"
                   d="m -92.787842,659.11147 c 10.814577,1.01907 32.011357,10.61043 53.547727,11.6976"
                   id="path34104"
                   transform="translate(0.144576,-0.847836)"
                   sodipodi:nodetypes="cc"
                   inkscape:connector-curvature="0" />
                <path
                   style="fill:#ffffff;fill-rule:evenodd;stroke:#000000;stroke-width:3.55254412;stroke-linecap:butt;stroke-linejoin:miter;stroke-miterlimit:4;stroke-opacity:1;stroke-dasharray:none"
                   d="m -312.5412,660.82379 78.42388,51.13136"
                   id="path34106"
                   transform="translate(0.144576,-0.847836)"
                   sodipodi:nodetypes="cc"
                   inkscape:connector-curvature="0" />
                <path
                   style="fill:#ffffff;fill-rule:evenodd;stroke:#000000;stroke-width:3.55254412;stroke-linecap:butt;stroke-linejoin:miter;stroke-miterlimit:4;stroke-opacity:1;stroke-dasharray:none"
                   d="m -326.68333,669.30907 c 22.97933,25.46078 39.49033,39.32654 64.29799,59.30231"
                   id="path34108"
                   transform="translate(0.144576,-0.847836)"
                   sodipodi:nodetypes="cc"
                   inkscape:connector-curvature="0" />
                <path
                   style="fill:#ffffff;fill-rule:evenodd;stroke:#000000;stroke-width:3.55254412;stroke-linecap:butt;stroke-linejoin:miter;stroke-miterlimit:4;stroke-opacity:1;stroke-dasharray:none"
                   d="m -336.22927,670.36973 c 10.90123,21.97923 28.30806,49.92649 47.55293,74.42299"
                   id="path34110"
                   transform="translate(0.144576,-0.847836)"
                   sodipodi:nodetypes="cc"
                   inkscape:connector-curvature="0" />
                <path
                   style="fill:#ffffff;fill-rule:evenodd;stroke:#000000;stroke-width:3.55254412;stroke-linecap:butt;stroke-linejoin:miter;stroke-miterlimit:4;stroke-opacity:1;stroke-dasharray:none"
                   d="m -339.94159,667.71808 c 2.36684,21.39025 18.97068,55.32793 22.08255,78.51477"
                   id="path34112"
                   transform="translate(0.144576,-0.847836)"
                   sodipodi:nodetypes="cc"
                   inkscape:connector-curvature="0" />
              </g>
              <g
                 transform="matrix(1.121482,0,0,1,19.26519,-2.414213)"
                 id="g34251"
                 style="fill:#ffffff;stroke:#000000;stroke-width:3.55254412;stroke-miterlimit:4;stroke-opacity:1;stroke-dasharray:none">
                <path
                   sodipodi:nodetypes="ccccccccccccccccccc"
                   id="path34253"
                   d="m -337.36406,637.36339 c 31.26024,-2.81074 36.602,-37.63131 70.44355,-43.85511 45.62959,-4.98647 81.49611,16.97036 119.49304,35.95458 36.57192,19.6795 68.853118,4.83957 121.826626,23.75673 -2.053984,5.35904 33.8312888,14.26968 -15.395789,17.01456 3.517946,4.98992 2.139943,10.27357 -27.647228,6.81756 7.503647,1.80776 5.85311,12.53469 -27.647232,6.81916 2.170606,5.7961 -10.981057,10.91933 -27.647237,5.76246 3.35593,5.2704 8.39473,12.03567 -27.64723,2.42705 8.84899,6.12597 11.8701,13.95707 -27.64723,4.50031 11.36024,8.25846 14.52794,14.5903 -27.64723,4.88168 16.85014,11.01955 -1.46156,17.61103 -27.64723,9.44714 8.41732,18.27885 -5.80298,18.98191 -27.64724,17.171 4.57119,13.10912 -1.59365,20.70712 -27.64721,15.78622 -9.25261,2.2516 -18.52956,9.18856 -27.64722,2.02422 -6.49726,4.86207 -14.88855,4.70537 -20.59554,-7.21563 -6.62071,-11.52635 -3.02777,-25.18119 -3.95655,-37.68168 -0.0248,-16.514 -0.41454,-33.04304 1.55231,-49.47462 -0.42391,-4.92485 0.80169,-9.69346 3.10464,-14.13563 z"
                   style="fill:#ffffff;fill-opacity:1;fill-rule:evenodd;stroke:#000000;stroke-width:3.55254412;stroke-linecap:butt;stroke-linejoin:miter;stroke-miterlimit:4;stroke-opacity:1;stroke-dasharray:none"
                   inkscape:connector-curvature="0" />
                <path
                   sodipodi:nodetypes="cccc"
                   id="path34255"
                   d="m -341.17579,664.57394 c 17.75595,28.42461 62.82128,-66.97987 145.27477,-26.29624 25.08098,12.83488 122.632856,26.11087 162.049783,18.89143 l 8.293131,-3.01587"
                   style="fill:#ffffff;fill-rule:evenodd;stroke:#000000;stroke-width:3.55254412;stroke-linecap:butt;stroke-linejoin:miter;stroke-miterlimit:4;stroke-opacity:1;stroke-dasharray:none"
                   inkscape:connector-curvature="0" />
                <path
                   sodipodi:nodetypes="cc"
                   transform="translate(0.144576,-0.847836)"
                   id="path34257"
                   d="m -301.22749,652.33851 96.01945,50.75635"
                   style="fill:#ffffff;fill-rule:evenodd;stroke:#000000;stroke-width:3.55254412;stroke-linecap:butt;stroke-linejoin:miter;stroke-miterlimit:4;stroke-opacity:1;stroke-dasharray:none"
                   inkscape:connector-curvature="0" />
                <path
                   sodipodi:nodetypes="cc"
                   transform="translate(0.144576,-0.847836)"
                   id="path34259"
                   d="m -283.90337,642.43902 105.65117,55.4561"
                   style="fill:#ffffff;fill-rule:evenodd;stroke:#000000;stroke-width:3.55254412;stroke-linecap:butt;stroke-linejoin:miter;stroke-miterlimit:4;stroke-opacity:1;stroke-dasharray:none"
                   inkscape:connector-curvature="0" />
                <path
                   sodipodi:nodetypes="cc"
                   transform="translate(0.144576,-0.847836)"
                   id="path34261"
                   d="m -263.57405,632.89307 112.48848,60.45763"
                   style="fill:#ffffff;fill-rule:evenodd;stroke:#000000;stroke-width:3.55254412;stroke-linecap:butt;stroke-linejoin:miter;stroke-miterlimit:4;stroke-opacity:1;stroke-dasharray:none"
                   inkscape:connector-curvature="0" />
                <path
                   sodipodi:nodetypes="cc"
                   transform="translate(0.144576,-0.847836)"
                   id="path34263"
                   d="m -241.47697,628.65043 c 39.16803,20.58228 79.11504,38.04867 117.5041,61.74685"
                   style="fill:#ffffff;fill-rule:evenodd;stroke:#000000;stroke-width:3.55254412;stroke-linecap:butt;stroke-linejoin:miter;stroke-miterlimit:4;stroke-opacity:1;stroke-dasharray:none"
                   inkscape:connector-curvature="0" />
                <path
                   sodipodi:nodetypes="cc"
                   transform="translate(0.144576,-0.847836)"
                   id="path34265"
                   d="m -172.17689,647.02823 c 26.69208,13.79091 47.61449,22.90008 76.576231,38.01917"
                   style="fill:#ffffff;fill-rule:evenodd;stroke:#000000;stroke-width:3.55254412;stroke-linecap:butt;stroke-linejoin:miter;stroke-miterlimit:4;stroke-opacity:1;stroke-dasharray:none"
                   inkscape:connector-curvature="0" />
                <path
                   sodipodi:nodetypes="cc"
                   id="path34267"
                   d="m -134.28613,653.46578 c 20.57642,7.58276 43.057441,18.23075 67.479383,23.95536"
                   style="fill:#ffffff;fill-rule:evenodd;stroke:#000000;stroke-width:3.55254412;stroke-linecap:butt;stroke-linejoin:miter;stroke-miterlimit:4;stroke-opacity:1;stroke-dasharray:none"
                   inkscape:connector-curvature="0" />
                <path
                   sodipodi:nodetypes="cc"
                   transform="translate(0.144576,-0.847836)"
                   id="path34269"
                   d="m -92.787842,659.11147 c 10.814577,1.01907 32.011357,10.61043 53.547727,11.6976"
                   style="fill:#ffffff;fill-rule:evenodd;stroke:#000000;stroke-width:3.55254412;stroke-linecap:butt;stroke-linejoin:miter;stroke-miterlimit:4;stroke-opacity:1;stroke-dasharray:none"
                   inkscape:connector-curvature="0" />
                <path
                   sodipodi:nodetypes="cc"
                   transform="translate(0.144576,-0.847836)"
                   id="path34271"
                   d="m -312.5412,660.82379 78.42388,51.13136"
                   style="fill:#ffffff;fill-rule:evenodd;stroke:#000000;stroke-width:3.55254412;stroke-linecap:butt;stroke-linejoin:miter;stroke-miterlimit:4;stroke-opacity:1;stroke-dasharray:none"
                   inkscape:connector-curvature="0" />
                <path
                   sodipodi:nodetypes="cc"
                   transform="translate(0.144576,-0.847836)"
                   id="path34273"
                   d="m -326.68333,669.30907 c 22.97933,25.46078 39.49033,39.32654 64.29799,59.30231"
                   style="fill:#ffffff;fill-rule:evenodd;stroke:#000000;stroke-width:3.55254412;stroke-linecap:butt;stroke-linejoin:miter;stroke-miterlimit:4;stroke-opacity:1;stroke-dasharray:none"
                   inkscape:connector-curvature="0" />
                <path
                   sodipodi:nodetypes="cc"
                   transform="translate(0.144576,-0.847836)"
                   id="path34275"
                   d="m -336.22927,670.36973 c 10.90123,21.97923 28.30806,49.92649 47.55293,74.42299"
                   style="fill:#ffffff;fill-rule:evenodd;stroke:#000000;stroke-width:3.55254412;stroke-linecap:butt;stroke-linejoin:miter;stroke-miterlimit:4;stroke-opacity:1;stroke-dasharray:none"
                   inkscape:connector-curvature="0" />
                <path
                   sodipodi:nodetypes="cc"
                   transform="translate(0.144576,-0.847836)"
                   id="path34277"
                   d="m -339.94159,667.71808 c 2.36684,21.39025 18.97068,55.32793 22.08255,78.51477"
                   style="fill:#ffffff;fill-rule:evenodd;stroke:#000000;stroke-width:3.55254412;stroke-linecap:butt;stroke-linejoin:miter;stroke-miterlimit:4;stroke-opacity:1;stroke-dasharray:none"
                   inkscape:connector-curvature="0" />
              </g>
            </g>
            <path
               sodipodi:nodetypes="ccccccccccccccc"
               d="m -357.82211,869.44094 c 4.81258,-0.0939 6.08731,5.72662 12.91529,1.02397 4.29937,-2.73878 -5.37258,-7.30306 -5.2569,-23.12476 2.4685,-9.91945 4.20509,-24.3746 4.36067,-42.04659 -0.18039,-21.46828 -3.2188,-20.12175 -7.06628,-26.62083 1.57989,-2.42866 2.79016,-3.62829 3.50837,-7.66077 2.51065,-10.06197 -1.29854,-10.61379 -4.96775,-15.12957 -1.60065,-1.51565 -2.37173,-2.80992 -3.4934,-6.54696 -1.12169,3.73704 -1.89276,5.03131 -3.49342,6.54696 -3.66921,4.51578 -7.47839,5.0676 -4.96775,15.12957 0.71821,4.03248 1.92848,5.23211 3.50837,7.66077 -3.84748,6.49908 -6.88589,5.15255 -7.06628,26.62083 0.15559,17.67199 1.89217,32.12714 4.36068,42.04659 0.11568,15.8217 -9.55628,20.38598 -5.2569,23.12476 6.82798,4.70265 8.10271,-1.11784 12.9153,-1.02397 z"
               style="fill:#ffffff;fill-opacity:1;stroke:#000000;stroke-width:1.50984395;stroke-miterlimit:4;stroke-opacity:1;stroke-dasharray:none"
               id="rect34114"
               inkscape:connector-curvature="0" />
          </g>
        </g>
        <g
           id="g30261"
           inkscape:label="Meubles"
           style="fill:#ffffff" />
        <g
           id="g30263"
           inkscape:label="Reflet final"
           style="fill:#ffffff" />
        <g
           id="g30265"
           inkscape:label="Contour final"
           style="fill:#ffffff" />
      </g>
    </g>
  </g>
  <g
     inkscape:groupmode="layer"
     id="layer2"
     inkscape:label="Reflet final"
     sodipodi:insensitive="true">
    <g
       id="layer1-2"
       inkscape:label="Calque 1"
       transform="translate(-74.999965,-202.36231)">
      <path
         d="m 76.499965,203.86205 0,517.49133 c 0,38.50449 31.203105,69.75453 69.650005,69.75453 38.4468,0 120.7532,0 159.19999,0 38.44692,-10e-5 69.65004,31.24994 69.65004,69.7544 0,-38.50446 31.20314,-69.7544 69.64994,-69.7544 38.44689,-10e-5 120.75329,0 159.2001,0 38.44679,0 69.65,-31.25004 69.65,-69.75453 l 0,-517.49133 -597.000075,0 z"
         style="fill:url(#radialGradient11919-6);fill-opacity:1;fill-rule:evenodd;stroke:none;display:inline"
         id="path2875-3"
         inkscape:connector-curvature="0" />
    </g>
  </g>
  <g
     inkscape:groupmode="layer"
     id="layer1"
     inkscape:label="Contour final"
     sodipodi:insensitive="true">
    <g
       id="layer1-8"
       inkscape:label="Calque 1"
       transform="translate(-74.999939,-202.36234)">
      <path
         sodipodi:nodetypes="cssccccssc"
         d="m 374.99998,860.86234 c 0,-38.5041 31.20319,-69.75372 69.65,-69.75372 38.44681,0 120.75317,0 159.19998,0 38.4468,0 69.64998,-31.24962 69.64998,-69.75362 l 1.1e-4,-517.49298 -597.000095,2e-5 -1.5e-5,517.49296 c 0,38.504 31.20322,69.75362 69.65002,69.75362 38.44683,0 120.75321,0 159.20002,0 38.4468,0 69.65,31.24962 69.65,69.75372 z"
         style="fill:none;stroke:#000000;stroke-width:3.00000191;stroke-linecap:round;stroke-linejoin:round;stroke-miterlimit:4;stroke-opacity:1;stroke-dasharray:none;stroke-dashoffset:0;display:inline"
         id="path1572"
         inkscape:connector-curvature="0" />
    </g>
  </g>
</svg>
