<?xml version="1.0" encoding="UTF-8" standalone="no"?>
<!-- Created with Inkscape (http://www.inkscape.org/) -->
<svg
   xmlns:svg="http://www.w3.org/2000/svg"
   xmlns="http://www.w3.org/2000/svg"
   xmlns:xlink="http://www.w3.org/1999/xlink"
   version="1.0"
   width="600"
   height="660"
   id="svg2">
  <defs
     id="defs6">
    <linearGradient
       id="linearGradient2893">
      <stop
         style="stop-color:#ffffff;stop-opacity:0.3137255"
         offset="0"
         id="stop2895" />
      <stop
         style="stop-color:#ffffff;stop-opacity:0.25098041"
         offset="0.19"
         id="stop2897" />
      <stop
         style="stop-color:#6b6b6b;stop-opacity:0.1254902"
         offset="0.60000002"
         id="stop2901" />
      <stop
         style="stop-color:#000000;stop-opacity:0.1254902"
         offset="1"
         id="stop2899" />
    </linearGradient>
    <radialGradient
       cx="221.44487"
       cy="226.33101"
       r="300"
       fx="221.44487"
       fy="226.33101"
       id="radialGradient3163"
       xlink:href="#linearGradient2893"
       gradientUnits="userSpaceOnUse"
       gradientTransform="matrix(1.353218,0,0,1.348928,-77.62935,-85.74693)" />
  </defs>
  <g
     style="display:inline"
     id="layer3">
    <path
       d="M 300,658.5 C 300,658.5 598.50001,546.17969 598.50001,260.72817 C 598.50001,-24.723354 598.50001,2.1764765 598.50001,2.1764765 L 1.5,2.1764765 L 1.5,260.72817 C 1.5,546.17969 300,658.5 300,658.5 z "
       style="fill:#d40000;fill-opacity:1;fill-rule:evenodd;stroke:none;stroke-width:1px;stroke-linecap:butt;stroke-linejoin:miter;stroke-opacity:1"
       id="path2855" />
  </g>
  <g
     id="layer4">
    <path
       d="M 416.77882,286.76941 C 400.88034,297.70332 408.46742,291.2083 396.26903,311.81652 C 397.90526,331.01366 410.82294,340.59186 409.38551,364.76879 L 428.27968,367.45799 C 430.34813,348.97332 420.84931,339.85565 427.28779,321.59513 C 430.72046,320.5547 445.14312,315.7197 450.25571,309.24779 C 496.8754,259.35448 420.07003,229.53979 416.77882,286.76941 z "
       style="fill:#f2d207;fill-opacity:1;fill-rule:evenodd;stroke:#000000;stroke-width:2.99600005;stroke-linecap:round;stroke-linejoin:round;stroke-miterlimit:4;stroke-dasharray:none;stroke-opacity:1"
       id="path3563" />
    <g
       style="stroke-width:2.99600005;stroke-miterlimit:4;stroke-dasharray:none"
       id="g2482">
      <path
         d="M 264.58961,289.84004 C 246.01297,288.32115 250,288.10857 233.84375,299.40625 C 220.29565,311.70933 215.39605,326.17453 209.0625,340.28125 C 190.72917,337.70235 173.81366,333.8005 155.48033,340.67243 C 134.11299,352.07776 124.6101,374.05445 113.76967,388.96875 C 103.42414,403.2881 99.152189,407.36908 77.53125,418.6875 C 61.936057,434.66289 66.812893,420.22135 53.6875,453.03125 C 139.26034,598.02136 300,658.5 300,658.5 C 300,658.5 437.38881,606.81217 525.75,484.4375 C 521.77191,464.09493 510.58373,445.81239 493.375,429.25 C 483.38255,413.68464 461.60469,416.85351 453.65625,400.84375 C 450.20265,390.3125 453.97065,379.78125 438.59375,369.25 C 421.6875,363.87856 410.45257,358.8509 393.54632,344.45717 C 383.21969,337.77849 379.26207,335.37986 370.35574,337.49798 C 366.58014,324.16761 345.33948,328.83064 341.32978,320.23447 C 318.07428,310.40118 291.45729,304.55933 264.58961,289.84004 z "
         style="fill:#ffffff;fill-opacity:1;fill-rule:evenodd;stroke:#000000;stroke-width:2.99600005;stroke-linecap:butt;stroke-linejoin:miter;stroke-miterlimit:4;stroke-dasharray:none;stroke-opacity:1"
         id="path2234" />
      <path
         d="M 290.65533,471.42849 C 303.23047,449.68842 304.77541,427.94834 332.48134,406.20827 C 342.70433,398.03596 352.62756,388.81449 366.50929,393.44779 C 382.12793,429.27616 405.19404,435.31464 426.05818,450.16103 C 444.26646,465.52086 448.29954,476.62721 452.99697,491.98704"
         style="fill:none;fill-rule:evenodd;stroke:#000000;stroke-width:2.99600005;stroke-linecap:round;stroke-linejoin:round;stroke-miterlimit:4;stroke-dasharray:none;stroke-opacity:1"
         id="path3206" />
      <path
         d="M 209.48451,340.81082 C 227.63505,358.02306 233.30498,359.00358 251.66498,360.12877 C 255.7703,365.32748 250.83625,369.81728 260.88089,379.26949"
         style="fill:none;fill-rule:evenodd;stroke:#000000;stroke-width:2.99600005;stroke-linecap:round;stroke-linejoin:round;stroke-miterlimit:4;stroke-dasharray:none;stroke-opacity:1"
         id="path3214" />
      <path
         d="M 387.77675,340.98805 C 373.36213,329.53391 368.87234,342.36273 354.45772,345.24154"
         style="fill:none;fill-rule:evenodd;stroke:#000000;stroke-width:2.99600005;stroke-linecap:round;stroke-linejoin:round;stroke-miterlimit:4;stroke-dasharray:none;stroke-opacity:1"
         id="path3218" />
      <path
         d="M 157.37923,538.77546 C 171.85318,527.43594 187.17147,526.22841 199.91416,494.11379 C 231.424,482.05478 254.09537,496.51114 274.35028,518.21691 C 286.43766,546.96007 300.90363,554.29596 314.75846,567.13208 C 320.97328,575.74778 320.58875,583.05648 336.73484,586.98171"
         style="fill:none;fill-rule:evenodd;stroke:#000000;stroke-width:2.99600005;stroke-linecap:round;stroke-linejoin:round;stroke-miterlimit:4;stroke-dasharray:none;stroke-opacity:1"
         id="path3216" />
    </g>
    <g
       transform="matrix(1.0778513,0,0,1.1112604,-11.595296,-31.975773)"
       style="stroke:#000000;stroke-width:2.7375021;stroke-miterlimit:4;stroke-dasharray:none;stroke-opacity:1"
       id="g3710">
      <path
         d="M 142.78196,256.18359 L 183.31546,241.04573 L 243.30482,244.75863 L 214.90519,258.79012"
         style="fill:#ffffff;fill-rule:evenodd;stroke:#000000;stroke-width:2.7375021;stroke-linecap:butt;stroke-linejoin:round;stroke-miterlimit:4;stroke-dasharray:none;stroke-opacity:1"
         id="path2499" />
      <path
         d="M 214.27398,258.66697 L 243.19786,244.6894 L 243.05684,263.71552 L 242.62015,322.6333 L 214.98187,346.72594"
         style="fill:#ffffff;fill-rule:evenodd;stroke:#000000;stroke-width:2.7375021;stroke-linecap:round;stroke-linejoin:round;stroke-miterlimit:4;stroke-dasharray:none;stroke-opacity:1"
         id="path2503" />
      <path
         d="M 143.50189,256.23394 L 215.91823,258.50402 L 215.20826,346.71285 L 143.50189,346.71286 L 143.50189,256.23394 z "
         style="fill:#ffffff;fill-rule:evenodd;stroke:#000000;stroke-width:2.7375021;stroke-linecap:butt;stroke-linejoin:round;stroke-miterlimit:4;stroke-dasharray:none;stroke-opacity:1"
         id="path2497" />
    </g>
    <g
       transform="matrix(0.9607685,-0.1930638,0.1623291,1.1426762,-30.709742,1.485898)"
       style="stroke-width:2.8194139;stroke-miterlimit:4;stroke-dasharray:none"
       id="g3706">
      <path
         d="M 283.49937,239.63985 C 281.55324,247.239 282.0352,268.16142 274.21384,287.22376 C 271.2003,289.49095 273.88559,295.62143 273.22941,297.19786 C 274.24195,304.14895 272.39238,321.50362 270.00848,332.3035 C 267.36745,335.86959 264.71476,338.60716 264.05492,341.29797 C 271.2074,343.53802 276.94135,344.35902 280.31838,339.99202 C 280.6522,334.35651 278.66472,336.87456 283.8791,336.41038 C 283.97176,334.23876 283.50701,326.35114 283.50143,324.31978 C 283.47707,315.4569 289.38314,305.09056 290.50376,301.87258 C 300.55373,297.68038 300.56133,294.12564 306.79302,288.4359 C 390.93465,249.74431 331.13508,236.42832 283.49937,239.63985 z "
         style="fill:#f2d207;fill-opacity:1;fill-rule:evenodd;stroke:#000000;stroke-width:2.8194139;stroke-linecap:round;stroke-linejoin:round;stroke-miterlimit:4;stroke-dasharray:none;stroke-opacity:1"
         id="path3696" />
      <path
         d="M 263.44123,341.15176 C 259.00963,345.4753 255.04584,348.28453 258.26654,349.86403 C 259.6779,351.88859 274.14952,357.71004 280.37567,341.32183 C 275.13795,343.66391 270.69037,346.54872 263.44123,341.15176 z "
         style="fill:#f2d207;fill-opacity:1;fill-rule:evenodd;stroke:#000000;stroke-width:2.8194139;stroke-linecap:round;stroke-linejoin:round;stroke-miterlimit:4;stroke-dasharray:none;stroke-opacity:1"
         id="path3704" />
    </g>
    <path
       d="M 214.10187,224.77137 C 212.50717,227.82786 211.40236,232.19439 206.21959,235.118 C 201.03683,238.0416 201.50715,236.07656 201.07622,239.47279 C 200.90812,240.7977 200.23558,243.2566 209.0064,240.99746 C 217.77723,238.7383 222.27665,232.84157 226.76271,226.86537"
       style="fill:#f2d207;fill-rule:evenodd;stroke:#000000;stroke-width:2.99600005;stroke-linecap:butt;stroke-linejoin:miter;stroke-miterlimit:4;stroke-dasharray:none;stroke-opacity:1"
       id="path3692" />
    <path
       d="M 232.47408,138.2218 C 226.75317,130.31389 231.43953,126.50807 223.35091,127.89604 C 222.81747,136.29982 224.1852,142.76093 228.33811,147.35917 C 232.49101,151.95741 232.4074,139.27238 232.47408,138.2218 L 232.47408,138.2218 z "
       style="fill:#f2d207;fill-opacity:1;fill-rule:evenodd;stroke:#000000;stroke-width:2.55551958;stroke-linecap:round;stroke-linejoin:round;stroke-miterlimit:4;stroke-dasharray:none;stroke-opacity:1"
       id="path3573" />
    <path
       d="M 234.6965,137.58164 C 230.81063,138.03436 227.5832,144.05089 227.28409,148.28884 C 226.96506,152.80903 223.06551,162.72339 219.65457,165.85795 C 216.24335,168.9925 217.00369,173.60104 218.87921,177.16184 C 220.75447,180.72262 213.29149,196.05899 206.62857,200.06796 C 199.96566,204.07664 198.71477,206.22654 203.68221,211.17296 C 208.64964,216.11971 207.30395,220.57159 211.37376,223.17299 C 215.4436,225.77408 223.82008,227.57382 230.32349,225.82493 C 237.82159,219.82235 240.7787,213.03117 245.9857,214.58733 C 251.19241,216.14375 259.18494,208.84664 261.95806,214.75308 C 263.46071,217.95334 268.60994,222.00903 275.70873,230.98306 C 279.57004,240.28045 278.88459,244.42394 279.85676,247.60398 C 281.55447,287.03842 300.83777,274.70708 304.75715,295.45462 C 310.40409,307.79631 316.21142,324.35153 314.82582,350.89225 C 310.18045,355.30345 310.57957,357.18684 309.44782,359.84814 C 315.59626,360.38617 319.94603,370.51848 325.28397,367.04958 C 328.50403,361.40508 326.75728,358.90976 326.67222,355.79229 C 330.15924,356.16548 333.76106,356.1492 327.16721,349.10389 C 324.00111,339.15651 326.6121,323.415 327.33619,320.03508 C 328.77603,313.31545 332.38009,292.5311 332.38009,292.5311 C 332.38009,292.5311 362.67867,311.78175 368.79167,310.79317 C 374.90467,309.80457 408.00082,314.02233 413.02867,316.48812 C 423.30663,317.26008 430.26152,306.95645 440.53947,312.91749 C 444.25436,333.10279 463.28965,343.57827 467.48977,349.50476 C 472.49012,356.56038 476.85701,360.93846 474.84016,366.17883 C 472.82332,371.4192 473.30701,379.00404 475.21233,385.96893 C 477.11793,392.93391 471.54572,393.42806 465.59144,400.73584 C 467.80382,431.55638 480.25296,405.7868 486.25041,402.79939 C 488.07909,394.01624 486.52254,389.23499 491.89368,374.22601 C 493.15957,364.9791 498.36565,358.98571 493.69251,353.25466 C 489.01909,347.52352 488.35524,348.84334 490.65745,333.92461 C 515.71387,334.61057 524.26868,304.02337 520.46218,283.33887 C 516.76925,274.19281 513.774,263.68549 506.75386,256.45483 C 502.55655,247.79955 499.60153,242.27727 488.64152,235.00727 C 477.68115,227.73741 460.48468,227.74 452.29277,225.12879 C 444.24835,222.5646 398.68015,195.41277 377.28352,191.7343 C 360.11484,190.38527 335.7407,185.46515 314.89437,176.27088 C 298.27079,169.99157 281.46651,154.31386 267.13745,141.29436 C 265.27467,139.43934 260.93,138.47393 256.03434,138.01258 C 247.87489,137.24366 238.1152,137.79477 235.47186,137.58164 C 235.20753,137.56033 234.95556,137.55147 234.6965,137.58164 z M 493.97597,268.85265 C 497.01725,268.96796 499.39006,271.2853 501.26433,273.65929 C 513.61087,298.20042 506.91046,320.14067 491.2157,320.69806 C 491.40048,320.04273 483.85604,269.80253 493.97597,268.85265 z "
       style="fill:#f2d207;fill-opacity:1;fill-rule:evenodd;stroke:#000000;stroke-width:2.99600005;stroke-linecap:round;stroke-linejoin:round;stroke-miterlimit:4;stroke-dasharray:none;stroke-opacity:1"
       id="path1033" />
    <path
       d="M 377.78808,192.44293 C 368.79846,195.87117 359.39231,201.48412 369.38175,211.03136 C 370.53949,212.13826 371.09226,212.57317 370.31869,213.97584"
       style="fill:#f2d207;fill-opacity:1;fill-rule:evenodd;stroke:#000000;stroke-width:2.99600005;stroke-linecap:round;stroke-linejoin:round;stroke-miterlimit:4;stroke-dasharray:none;stroke-opacity:1"
       id="path1036" />
    <path
       d="M 488.75577,237.56935 C 493.76991,239.99806 506.52468,257.63358 498.31671,265.26551"
       style="fill:#f2d207;fill-opacity:1;fill-rule:evenodd;stroke:#000000;stroke-width:2.99600005;stroke-linecap:round;stroke-linejoin:round;stroke-miterlimit:4;stroke-dasharray:none;stroke-opacity:1"
       id="path1037" />
    <path
       d="M 448.09341,232.59592 C 450.81472,242.3223 453.00295,260.37337 450.36831,267.26752"
       style="fill:#f2d207;fill-opacity:1;fill-rule:evenodd;stroke:#000000;stroke-width:2.99600005;stroke-linecap:round;stroke-linejoin:round;stroke-miterlimit:4;stroke-dasharray:none;stroke-opacity:1"
       id="path1038" />
    <path
       d="M 302.4614,234.76007 C 303.69438,253.31112 294.6283,255.49583 302.18768,287.98683"
       style="fill:#f2d207;fill-opacity:1;fill-rule:evenodd;stroke:#000000;stroke-width:2.99600005;stroke-linecap:round;stroke-linejoin:round;stroke-miterlimit:4;stroke-dasharray:none;stroke-opacity:1"
       id="path1039" />
    <path
       d="M 435.4545,296.37612 C 438.46924,303.60451 435.4975,305.53461 439.5754,312.4067"
       style="fill:#f2d207;fill-opacity:1;fill-rule:evenodd;stroke:#000000;stroke-width:2.99600005;stroke-linecap:round;stroke-linejoin:round;stroke-miterlimit:4;stroke-dasharray:none;stroke-opacity:1"
       id="path1041" />
    <path
       d="M 315.8311,199.6901 C 311.62508,218.21879 289.7751,219.27282 288.66052,238.97904"
       style="fill:#f2d207;fill-opacity:1;fill-rule:evenodd;stroke:#000000;stroke-width:2.99600005;stroke-linecap:round;stroke-linejoin:round;stroke-miterlimit:4;stroke-dasharray:none;stroke-opacity:1"
       id="path1047" />
    <path
       d="M 332.10228,292.35022 C 337.49278,277.52265 340.65554,276.83865 339.88988,262.71999"
       style="fill:#f2d207;fill-opacity:1;fill-rule:evenodd;stroke:#000000;stroke-width:2.99600005;stroke-linecap:round;stroke-linejoin:round;stroke-miterlimit:4;stroke-dasharray:none;stroke-opacity:1"
       id="path1055" />
    <path
       d="M 492.62064,320.42404 C 463.3284,313.62593 463.32178,286.80432 438.90364,265.97949 C 432.97236,258.37862 417.51982,251.37727 412.89281,250.45327 C 418.40198,256.44707 420.66804,258.6676 426.9455,263.14087 C 423.54732,262.62484 408.40642,252.57837 404.43429,251.02469 C 409.61332,259.28023 416.96106,260.32191 421.53966,266.04079 C 413.77766,262.11916 419.9815,264.44801 405.21708,260.04787 C 416.68242,270.8897 422.22142,274.01628 428.7533,273.02814 C 435.28491,272.03989 438.83409,272.16983 445.86332,284.86159 C 456.43649,300.55794 473.45454,333.24611 491.74891,333.64409"
       style="fill:#f2d207;fill-opacity:1;fill-rule:evenodd;stroke:#000000;stroke-width:2.99600005;stroke-linecap:round;stroke-linejoin:round;stroke-miterlimit:4;stroke-dasharray:none;stroke-opacity:1"
       id="path1056" />
    <path
       d="M 465.85858,401.37093 C 462.41881,406.96308 458.71417,413.00366 462.43476,413.79539 C 465.31783,415.99499 467.01185,412.24936 469.01115,410.03011 C 469.04475,414.2335 466.27773,415.93364 471.23345,417.03945 C 479.73107,421.43082 484.36249,411.99695 483.61936,403.94672 C 478.66706,405.54401 474.46173,401.91985 465.85858,401.37093 z "
       style="fill:#f2d207;fill-opacity:1;fill-rule:evenodd;stroke:#000000;stroke-width:2.99600005;stroke-linecap:round;stroke-linejoin:round;stroke-miterlimit:4;stroke-dasharray:none;stroke-opacity:1"
       id="path2193" />
    <path
       d="M 309.37237,360.0975 C 303.40623,363.97608 299.86008,372.40623 303.13887,374.36307 C 306.09606,371.93111 307.30718,369.91674 309.51923,367.02921 C 306.815,370.31101 306.74394,372.36959 306.72217,375.85617 C 314.64662,378.33384 323.9506,373.40049 325.59145,366.7074 C 320.38869,366.61769 317.33595,363.39856 309.37237,360.0975 z "
       style="fill:#f2d207;fill-opacity:1;fill-rule:evenodd;stroke:#000000;stroke-width:2.99600005;stroke-linecap:round;stroke-linejoin:round;stroke-miterlimit:4;stroke-dasharray:none;stroke-opacity:1"
       id="path3565" />
    <path
       d="M 276.39961,199.64642 C 275.86313,206.75808 265.55871,210.67958 259.73287,212.51348"
       style="fill:#f2d207;fill-opacity:1;fill-rule:evenodd;stroke:#000000;stroke-width:2.99600005;stroke-linecap:round;stroke-linejoin:round;stroke-miterlimit:4;stroke-dasharray:none;stroke-opacity:1"
       id="path3591" />
    <path
       d="M 267.14796,171.68106 C 258.86851,185.52624 241.92509,168.77798 241.37001,182.27466 C 241.2782,184.50759 255.05652,186.64611 255.31602,178.61528"
       style="fill:#f2d207;fill-opacity:1;fill-rule:evenodd;stroke:#000000;stroke-width:2.99600005;stroke-linecap:round;stroke-linejoin:round;stroke-miterlimit:4;stroke-dasharray:none;stroke-opacity:1"
       id="path3593" />
    <path
       d="M 251.52444,182.99995 C 251.13735,188.13116 244.8791,187.18193 241.63026,191.41897"
       style="fill:#f2d207;fill-opacity:1;fill-rule:evenodd;stroke:#000000;stroke-width:2.99600005;stroke-linecap:round;stroke-linejoin:round;stroke-miterlimit:4;stroke-dasharray:none;stroke-opacity:1"
       id="path3595" />
    <path
       d="M 237.13533,147.83046 C 240.28322,149.71303 246.52596,147.94739 248.90006,149.8542 C 250.12914,150.84161 252.26737,153.87524 252.87373,152.41986"
       style="fill:#f2d207;fill-opacity:1;fill-rule:evenodd;stroke:#000000;stroke-width:2.99600005;stroke-linecap:round;stroke-linejoin:round;stroke-miterlimit:4;stroke-dasharray:none;stroke-opacity:1"
       id="path3597" />
    <path
       d="M 220.14826,177.22463 C 223.30585,177.46282 227.40991,177.77242 227.31348,177.76514"
       style="fill:#f2d207;fill-opacity:1;fill-rule:evenodd;stroke:#000000;stroke-width:2.99600005;stroke-linecap:round;stroke-linejoin:round;stroke-miterlimit:4;stroke-dasharray:none;stroke-opacity:1"
       id="path3599" />
    <path
       d="M 231.15455,225.86359 C 243.78132,224.70989 237.33959,209.57445 238.15093,208.13992"
       style="fill:#f2d207;fill-opacity:1;fill-rule:evenodd;stroke:#000000;stroke-width:2.99600005;stroke-linecap:round;stroke-linejoin:round;stroke-miterlimit:4;stroke-dasharray:none;stroke-opacity:1"
       id="path3601" />
    <path
       d="M 221.32135,206.85277 C 218.5214,211.53554 207.98022,213.67555 220.79006,217.08589 C 221.46877,217.26669 224.76323,213.61918 224.29556,212.70418"
       style="fill:#f2d207;fill-opacity:1;fill-rule:evenodd;stroke:#000000;stroke-width:2.99600005;stroke-linecap:round;stroke-linejoin:round;stroke-miterlimit:4;stroke-dasharray:none;stroke-opacity:1"
       id="path3603" />
    <path
       d="M 286.1033,156.59493 C 292.28345,162.87799 303.57206,157.45021 312.42438,152.89534 C 321.27669,148.34049 301.4879,178.15562 277.32014,162.31079 C 253.15236,146.46565 285.2796,156.69241 286.1033,156.59493 L 286.1033,156.59493 z "
       style="fill:#f2d207;fill-opacity:1;fill-rule:evenodd;stroke:#000000;stroke-width:2.5949316;stroke-linecap:round;stroke-linejoin:round;stroke-miterlimit:4;stroke-dasharray:none;stroke-opacity:1"
       id="path3623" />
    <path
       d="M 246.25914,177.49027 C 246.86245,181.57216 249.16257,183.44755 249.26787,183.44755"
       style="fill:#f2d207;fill-opacity:1;fill-rule:evenodd;stroke:#000000;stroke-width:2.99600005;stroke-linecap:round;stroke-linejoin:round;stroke-miterlimit:4;stroke-dasharray:none;stroke-opacity:1"
       id="path3625" />
    <path
       d="M 220.34836,226.81588 C 219.13421,230.27811 213.77553,234.51782 213.77058,234.52129"
       style="fill:none;fill-rule:evenodd;stroke:#000000;stroke-width:2.99600005;stroke-linecap:round;stroke-linejoin:round;stroke-miterlimit:4;stroke-dasharray:none;stroke-opacity:1"
       id="path3694" />
  </g>
  <g
     id="layer2">
    <path
       d="M 300.00001,658.5 C 300.00001,658.5 598.50001,546.17969 598.50001,260.72817 C 598.50001,-24.723334 598.50001,2.1764865 598.50001,2.1764865 L 1.5,2.1764865 L 1.5,260.72817 C 1.5,546.17969 300.00001,658.5 300.00001,658.5 z "
       style="opacity:1;fill:url(#radialGradient3163);fill-opacity:1;fill-rule:evenodd;stroke:none;stroke-width:1px;stroke-linecap:butt;stroke-linejoin:miter;stroke-opacity:1"
       id="path2875" />
  </g>
  <g
     id="layer1">
    <path
       d="M 299.99999,658.50028 C 299.99999,658.50028 1.5,546.17992 1.5,260.72828 C 1.5,-24.723336 1.5,2.1764957 1.5,2.1764957 L 598.49999,2.1764957 L 598.49999,260.72828 C 598.49999,546.17992 299.99999,658.50028 299.99999,658.50028 z "
       style="opacity:1;fill:none;fill-opacity:1;fill-rule:evenodd;stroke:#000000;stroke-width:3.00000048;stroke-linecap:butt;stroke-linejoin:miter;stroke-miterlimit:4;stroke-dasharray:none;stroke-opacity:1"
       id="path1411" />
  </g>
</svg>
