<?xml version="1.0" encoding="UTF-8" standalone="no"?>
<svg
   xmlns:dc="http://purl.org/dc/elements/1.1/"
   xmlns:cc="http://web.resource.org/cc/"
   xmlns:rdf="http://www.w3.org/1999/02/22-rdf-syntax-ns#"
   xmlns:svg="http://www.w3.org/2000/svg"
   xmlns="http://www.w3.org/2000/svg"
   xmlns:xlink="http://www.w3.org/1999/xlink"
   xmlns:sodipodi="http://sodipodi.sourceforge.net/DTD/sodipodi-0.dtd"
   xmlns:inkscape="http://www.inkscape.org/namespaces/inkscape"
   height="660"
   width="600"
   version="1.0"
   id="svg2"
   sodipodi:version="0.32"
   inkscape:version="0.45.1"
   sodipodi:docname="Blason_ville_fr_Caunes-Minervois_(Aude).svg"
   sodipodi:docbase="/home/aure/Desktop"
   inkscape:export-filename="/Users/olivier/Desktop/Blason Rouge/Blason_Vide_3D.png"
   inkscape:export-xdpi="144"
   inkscape:export-ydpi="144"
   inkscape:output_extension="org.inkscape.output.svg.inkscape">
  <metadata
     id="metadata49">
    <rdf:RDF>
      <cc:Work
         rdf:about="">
        <dc:format>image/svg+xml</dc:format>
        <dc:type
           rdf:resource="http://purl.org/dc/dcmitype/StillImage" />
        <dc:title>Gabarit d'un blason en pointe pour le projet Blasons de Wikipédia</dc:title>
        <dc:date>03-AUG-2006</dc:date>
        <dc:creator>
          <cc:Agent>
            <dc:title>Jérôme BLUM (wagner51)</dc:title>
          </cc:Agent>
        </dc:creator>
        <cc:license
           rdf:resource="http://web.resource.org/cc/PublicDomain" />
        <dc:language>fr</dc:language>
        <dc:subject>
          <rdf:Bag>
            <rdf:li>gabarit modèle blason projet wikipédia</rdf:li>
          </rdf:Bag>
        </dc:subject>
      </cc:Work>
      <cc:License
         rdf:about="http://web.resource.org/cc/PublicDomain">
        <cc:permits
           rdf:resource="http://web.resource.org/cc/Reproduction" />
        <cc:permits
           rdf:resource="http://web.resource.org/cc/Distribution" />
        <cc:permits
           rdf:resource="http://web.resource.org/cc/DerivativeWorks" />
      </cc:License>
    </rdf:RDF>
  </metadata>
  <sodipodi:namedview
     inkscape:window-height="796"
     inkscape:window-width="1012"
     inkscape:pageshadow="2"
     inkscape:pageopacity="0.0"
     guidetolerance="10.0"
     gridtolerance="10.0"
     objecttolerance="10.0"
     borderopacity="1.0"
     bordercolor="#666666"
     pagecolor="#ffffff"
     id="base"
     showgrid="false"
     height="660px"
     inkscape:zoom="0.44547727"
     inkscape:cx="396.46229"
     inkscape:cy="478.04383"
     inkscape:window-x="257"
     inkscape:window-y="45"
     inkscape:current-layer="layer3" />
  <desc
     id="desc4">Flag of Canton of Valais (Wallis)</desc>
  <defs
     id="defs6">
    <linearGradient
       id="linearGradient2893">
      <stop
         style="stop-color:white;stop-opacity:0.3137255;"
         offset="0"
         id="stop2895" />
      <stop
         id="stop2897"
         offset="0.19"
         style="stop-color:white;stop-opacity:0.25098041;" />
      <stop
         style="stop-color:#6b6b6b;stop-opacity:0.1254902;"
         offset="0.60000002"
         id="stop2901" />
      <stop
         style="stop-color:black;stop-opacity:0.1254902;"
         offset="1"
         id="stop2899" />
    </linearGradient>
    <linearGradient
       id="linearGradient2885">
      <stop
         id="stop2887"
         offset="0"
         style="stop-color:white;stop-opacity:1;" />
      <stop
         style="stop-color:white;stop-opacity:1;"
         offset="0.22857143"
         id="stop2891" />
      <stop
         id="stop2889"
         offset="1"
         style="stop-color:black;stop-opacity:1;" />
    </linearGradient>
    <linearGradient
       id="linearGradient2955">
      <stop
         id="stop2867"
         offset="0"
         style="stop-color:#fd0000;stop-opacity:1;" />
      <stop
         style="stop-color:#e77275;stop-opacity:0.65882355;"
         offset="0.5"
         id="stop2873" />
      <stop
         style="stop-color:black;stop-opacity:0.32291666;"
         offset="1"
         id="stop2959" />
    </linearGradient>
    <radialGradient
       inkscape:collect="always"
       xlink:href="#linearGradient2955"
       id="radialGradient2961"
       cx="225.52438"
       cy="218.90099"
       fx="225.52438"
       fy="218.90099"
       r="300"
       gradientTransform="matrix(-4.167939e-4,2.182867,-1.884232,-3.599562e-4,615.5972,-289.1214)"
       gradientUnits="userSpaceOnUse" />
    <polygon
       id="star"
       transform="scale(53,53)"
       points="0,-1 0.58778525,0.80901699 -0.95105652,-0.30901699 0.95105652,-0.30901699 -0.58778525,0.80901699 0,-1 " />
    <clipPath
       id="clip">
      <path
         d="M 0,-200 L 0,600 L 300,600 L 300,-200 L 0,-200 z "
         id="path10" />
    </clipPath>
    <radialGradient
       inkscape:collect="always"
       xlink:href="#linearGradient2955"
       id="radialGradient1911"
       gradientUnits="userSpaceOnUse"
       gradientTransform="matrix(-4.167939e-4,2.182867,-1.884232,-3.599562e-4,615.5972,-289.1214)"
       cx="225.52438"
       cy="218.90099"
       fx="225.52438"
       fy="218.90099"
       r="300" />
    <radialGradient
       inkscape:collect="always"
       xlink:href="#linearGradient2955"
       id="radialGradient2865"
       gradientUnits="userSpaceOnUse"
       gradientTransform="matrix(0,1.748721,-1.593162,-1.049767e-7,551.7876,-191.2898)"
       cx="225.52438"
       cy="218.90099"
       fx="225.52438"
       fy="218.90099"
       r="300" />
    <radialGradient
       inkscape:collect="always"
       xlink:href="#linearGradient2955"
       id="radialGradient2871"
       gradientUnits="userSpaceOnUse"
       gradientTransform="matrix(0,1.386237,-1.323286,-5.741131e-8,-158.0823,-109.5408)"
       cx="225.52438"
       cy="218.90099"
       fx="225.52438"
       fy="218.90099"
       r="300" />
    <radialGradient
       inkscape:collect="always"
       xlink:href="#linearGradient2893"
       id="radialGradient3163"
       gradientUnits="userSpaceOnUse"
       gradientTransform="matrix(1.353218,0,0,1.348928,-77.62935,-85.74693)"
       cx="221.44487"
       cy="226.33101"
       fx="221.44487"
       fy="226.33101"
       r="300" />
    <linearGradient
       gradientUnits="userSpaceOnUse"
       xlink:href="#linearGradient1732"
       id="linearGradient2433"
       y2="96.5"
       x2="180"
       y1="92.5"
       x1="171" />
    <linearGradient
       gradientTransform="translate(-1.428571e-5,-5.714286e-5)"
       gradientUnits="userSpaceOnUse"
       xlink:href="#linearGradient1732"
       id="linearGradient1561"
       y2="467.62207"
       x2="124.13653"
       y1="496.1308"
       x1="94.280907" />
    <linearGradient
       gradientTransform="translate(-1.428571e-5,-5.714286e-5)"
       gradientUnits="userSpaceOnUse"
       xlink:href="#linearGradient1732"
       id="linearGradient1559"
       y2="185.71556"
       x2="296.92871"
       y1="176.24918"
       x1="270.4964" />
    <linearGradient
       gradientTransform="translate(-1.428571e-5,-5.714286e-5)"
       gradientUnits="userSpaceOnUse"
       xlink:href="#linearGradient1732"
       id="linearGradient1557"
       y2="101.81393"
       x2="193.02094"
       y1="75.233917"
       x1="179.58267" />
    <linearGradient
       gradientTransform="translate(-1.428571e-5,-5.714286e-5)"
       gradientUnits="userSpaceOnUse"
       xlink:href="#linearGradient1732"
       id="linearGradient1555"
       y2="90.41172"
       x2="137.60522"
       y1="75.233917"
       x1="112.23917" />
    <linearGradient
       gradientTransform="translate(-1.428571e-5,-5.714286e-5)"
       gradientUnits="userSpaceOnUse"
       xlink:href="#linearGradient1732"
       id="linearGradient1553"
       y2="137.97067"
       x2="124.361"
       y1="139.21025"
       x1="87.546555" />
    <linearGradient
       gradientTransform="translate(-1.428571e-5,-5.714286e-5)"
       gradientUnits="userSpaceOnUse"
       xlink:href="#linearGradient1732"
       id="linearGradient1551"
       y2="137.97067"
       x2="157.20032"
       y1="115.64002"
       x1="124.58548" />
    <linearGradient
       gradientTransform="translate(-1.428571e-5,-5.714286e-5)"
       gradientUnits="userSpaceOnUse"
       xlink:href="#linearGradient1732"
       id="linearGradient1549"
       y2="213.55009"
       x2="211.82967"
       y1="217.77766"
       x1="177.33789" />
    <linearGradient
       id="linearGradient1732">
      <stop
         id="stop1734"
         offset="0"
         style="stop-color:#ffffff;stop-opacity:1" />
      <stop
         id="stop1736"
         offset="1"
         style="stop-color:#ffffff;stop-opacity:1" />
    </linearGradient>
    <linearGradient
       gradientTransform="translate(75.92347,47.10196)"
       gradientUnits="userSpaceOnUse"
       xlink:href="#linearGradient1732"
       id="linearGradient1397"
       y2="48.302807"
       x2="243.12413"
       y1="51.4207"
       x1="241.1429" />
    <linearGradient
       gradientTransform="translate(-1.428571e-5,-5.714286e-5)"
       gradientUnits="userSpaceOnUse"
       xlink:href="#linearGradient1732"
       id="linearGradient1682"
       y2="546.90479"
       x2="341.26984"
       y1="571.11108"
       x1="337.30157" />
    <linearGradient
       gradientTransform="translate(-1.428571e-5,-5.714286e-5)"
       gradientUnits="userSpaceOnUse"
       xlink:href="#linearGradient1732"
       id="linearGradient1674"
       y2="547.59521"
       x2="319.15079"
       y1="566.74603"
       x1="300" />
    <linearGradient
       gradientTransform="translate(-1.428571e-5,-5.714286e-5)"
       gradientUnits="userSpaceOnUse"
       xlink:href="#linearGradient1732"
       id="linearGradient1666"
       y2="534.60315"
       x2="312.30157"
       y1="534.20636"
       x1="266.26984" />
    <linearGradient
       gradientTransform="translate(-1.428571e-5,-5.714286e-5)"
       gradientUnits="userSpaceOnUse"
       xlink:href="#linearGradient1732"
       id="linearGradient1658"
       y2="513.17462"
       x2="321.82541"
       y1="493.73016"
       x1="292.85715" />
    <linearGradient
       gradientTransform="translate(-1.428571e-5,-5.714286e-5)"
       gradientUnits="userSpaceOnUse"
       xlink:href="#linearGradient1732"
       id="linearGradient1650"
       y2="458.41269"
       x2="186.50793"
       y1="491.74603"
       x1="186.50793" />
    <linearGradient
       gradientTransform="translate(-1.428571e-5,-5.714286e-5)"
       gradientUnits="userSpaceOnUse"
       xlink:href="#linearGradient1732"
       id="linearGradient1642"
       y2="454.04761"
       x2="163.88889"
       y1="488.96826"
       x1="143.65079" />
    <linearGradient
       gradientTransform="translate(-1.428571e-5,-5.714286e-5)"
       gradientUnits="userSpaceOnUse"
       xlink:href="#linearGradient1732"
       id="linearGradient1582"
       y2="242.34128"
       x2="130.35715"
       y1="225.27779"
       x1="107.14286" />
    <linearGradient
       gradientTransform="translate(-1.428571e-5,-5.714286e-5)"
       gradientUnits="userSpaceOnUse"
       xlink:href="#linearGradient1732"
       id="linearGradient1622"
       y2="415.35715"
       x2="166.66667"
       y1="395.31747"
       x1="131.15079" />
    <linearGradient
       gradientTransform="translate(-1.428571e-5,-5.714286e-5)"
       gradientUnits="userSpaceOnUse"
       xlink:href="#linearGradient1732"
       id="linearGradient1614"
       y2="294.72223"
       x2="136.32533"
       y1="312.77777"
       x1="118.45238" />
    <linearGradient
       gradientTransform="translate(-1.428571e-5,-5.714286e-5)"
       gradientUnits="userSpaceOnUse"
       xlink:href="#linearGradient1732"
       id="linearGradient1606"
       y2="280.63492"
       x2="118.05556"
       y1="297.10318"
       x1="88.492065" />
    <linearGradient
       gradientTransform="translate(-1.428571e-5,-5.714286e-5)"
       gradientUnits="userSpaceOnUse"
       xlink:href="#linearGradient1732"
       id="linearGradient1598"
       y2="257.61905"
       x2="115.67461"
       y1="260.59525"
       x1="84.126984" />
    <linearGradient
       gradientTransform="translate(-1.428571e-5,-5.714286e-5)"
       gradientUnits="userSpaceOnUse"
       xlink:href="#linearGradient1732"
       id="linearGradient1590"
       y2="258.41269"
       x2="113.69048"
       y1="264.16666"
       x1="82.14286" />
    <linearGradient
       gradientTransform="translate(-1.428571e-5,-5.714286e-5)"
       gradientUnits="userSpaceOnUse"
       xlink:href="#linearGradient1732"
       id="linearGradient1800"
       y2="166.38455"
       x2="139.39598"
       y1="191.96266"
       x1="107.7496" />
  </defs>
  <g
     inkscape:groupmode="layer"
     id="layer3"
     inkscape:label="Fond écu"
     style="display:inline">
    <path
       id="path2855"
       style="fill:#e20909;fill-opacity:1;fill-rule:evenodd;stroke:none;stroke-width:1px;stroke-linecap:butt;stroke-linejoin:miter;stroke-opacity:1"
       d="M 300,658.5 C 300,658.5 598.50001,546.17969 598.50001,260.72817 C 598.50001,-24.723354 598.50001,2.1764765 598.50001,2.1764765 L 1.5,2.1764765 L 1.5,260.72817 C 1.5,546.17969 300,658.5 300,658.5 z "
       sodipodi:nodetypes="cccccc" />
    <g
       id="g1975"
       transform="matrix(0.494378,0,0,0.543463,40.42649,47.4061)"
       style="fill:#fd5">
      <path
         id="path1738"
         style="fill:#fd5;fill-opacity:1;fill-rule:evenodd;stroke:black;stroke-width:3;stroke-linecap:butt;stroke-linejoin:miter;stroke-miterlimit:4;stroke-dasharray:none;stroke-opacity:1;display:inline"
         d="M 62.972456,131.11139 C 52.979226,138.64509 38.022016,139.9464 32.106666,132.51439 C 32.106666,132.51439 42.153846,134.86638 46.697766,129.42782 C 52.864296,122.04717 53.087966,118.56003 53.993326,120.16808 L 62.972456,131.11139 z " />
      <path
         id="path1748"
         style="fill:#fd5;fill-opacity:1;fill-rule:evenodd;stroke:black;stroke-width:3;stroke-linecap:butt;stroke-linejoin:miter;stroke-miterlimit:4;stroke-dasharray:none;stroke-opacity:1;display:inline"
         d="M 43.891786,99.403843 C 35.141186,92.568573 24.588306,93.350393 20.321566,104.45459 C 19.191386,104.03077 20.798976,90.546393 25.652926,85.654543 C 30.644046,80.624433 31.966376,78.850033 39.402226,78.639593 C 46.838066,78.429143 56.238096,82.848563 56.238096,82.848563 L 43.891786,99.403843 z " />
      <path
         id="path1750"
         style="fill:#fd5;fill-opacity:1;fill-rule:evenodd;stroke:black;stroke-width:3;stroke-linecap:butt;stroke-linejoin:miter;stroke-miterlimit:4;stroke-dasharray:none;stroke-opacity:1;display:inline"
         d="M 59.044086,68.538063 C 54.455156,55.983413 51.286836,42.838253 31.545486,44.967833 C 31.545486,44.967833 41.398716,38.748753 52.870926,40.478273 C 67.046856,42.615393 77.473386,59.831193 76.721746,60.120133 L 59.044086,68.538063 z " />
      <path
         id="path1752"
         style="fill:#fd5;fill-opacity:1;fill-rule:evenodd;stroke:black;stroke-width:3;stroke-linecap:butt;stroke-linejoin:miter;stroke-miterlimit:4;stroke-dasharray:none;stroke-opacity:1;display:inline"
         d="M 91.593436,60.961923 C 97.573076,55.249983 96.935946,42.921273 98.888986,33.182723 C 98.888986,33.182723 106.53529,39.846923 108.42932,49.176803 C 110.32336,58.506693 106.46513,70.502253 106.46513,70.502253 L 91.593436,60.961923 z " />
      <path
         id="path1727"
         style="fill:#fd5;fill-opacity:1;fill-rule:evenodd;stroke:black;stroke-width:3;stroke-linecap:butt;stroke-linejoin:miter;stroke-miterlimit:4;stroke-dasharray:none;stroke-opacity:1;display:inline"
         d="M 136.20851,171.7981 L 126.38758,166.95779 C 129.94908,163.16431 125.88365,160.13353 122.17862,157.06671 C 119.97917,153.42227 115.95239,153.38687 111.51589,154.96223 C 110.87643,148.00114 105.82664,146.71048 100.01138,146.40399 C 98.715746,135.78673 93.410876,136.39536 88.506866,135.88157 C 86.530616,130.45966 82.952326,129.43612 79.668026,130.26961 C 78.586496,128.30985 75.632546,127.75441 68.584406,130.26961 C 68.584406,130.26961 64.094846,137.98605 59.044086,135.88157 C 53.993326,133.77708 49.082856,127.74423 47.258966,123.53526 C 45.435076,119.32629 54.133616,120.16809 53.993316,115.11732 C 53.853016,110.06656 50.485836,106.41879 46.697766,103.33221 C 42.909696,100.24563 37.438036,103.6128 38.420126,96.317263 C 39.402226,89.021713 39.858186,82.357523 44.733576,78.499303 C 49.608966,74.641083 57.921686,80.884383 57.921686,80.884383 C 57.921686,80.884383 63.358266,79.902293 62.358636,76.710483 C 61.359006,73.518683 53.923166,68.117173 56.799296,64.329103 C 62.551546,56.752953 66.900816,53.175333 73.915766,53.105183 C 80.930716,53.035033 78.335186,63.978353 82.754606,64.890293 C 87.174016,65.802243 87.980736,54.858913 94.960616,57.594743 C 101.94049,60.330573 111.03771,65.799983 108.70991,73.308233 C 106.7322,79.687323 104.39126,77.471053 105.16014,79.746173 C 106.23439,82.924903 103.24477,80.115473 114.60247,90.565003 C 119.42813,95.004803 126.08507,101.31979 133.70231,107.29949 C 141.31956,113.27918 150.06084,121.47243 157.58218,127.49432 C 165.10352,133.51622 172.24671,135.96377 177.22897,139.99244 C 182.21123,144.0211 185.31315,146.54429 185.31315,146.54429 L 136.20851,171.7981 z " />
      <path
         id="path1572"
         style="fill:#fd5;fill-opacity:1;fill-rule:evenodd;stroke:black;stroke-width:3;stroke-linecap:butt;stroke-linejoin:miter;stroke-miterlimit:4;stroke-dasharray:none;stroke-opacity:1;display:inline"
         d="M 81.219326,377.77898 C 82.306176,362.97898 67.155216,354.48798 52.449486,354.56468 C 52.449486,354.56468 70.009016,347.76908 80.028856,351.39008 C 90.048696,355.01108 93.719336,360.71548 93.719336,360.71548 L 81.219326,377.77898 z " />
      <path
         id="path1574"
         style="fill:#fd5;fill-opacity:1;fill-rule:evenodd;stroke:black;stroke-width:3;stroke-linecap:butt;stroke-linejoin:miter;stroke-miterlimit:4;stroke-dasharray:none;stroke-opacity:1;display:inline"
         d="M 73.679646,400.00118 C 60.630006,388.59228 52.027396,400.10648 40.743146,405.15998 C 40.743146,405.15998 48.084416,387.74928 57.012986,382.34248 C 65.941556,376.93578 76.457426,383.53298 76.457426,383.53298 L 73.679646,400.00118 z " />
      <path
         id="path1624"
         style="fill:#fd5;fill-opacity:1;fill-rule:evenodd;stroke:black;stroke-width:3;stroke-linecap:butt;stroke-linejoin:miter;stroke-miterlimit:4;stroke-dasharray:none;stroke-opacity:1;display:inline"
         d="M 83.600286,420.04088 C 78.327906,422.49638 73.813586,427.98408 71.695526,443.05678 C 71.695526,443.05678 69.512986,429.06868 70.901876,421.62818 C 72.290766,414.18768 77.251076,413.29488 77.251076,413.29488 L 83.600286,420.04088 z " />
      <path
         id="path1626"
         style="fill:#fd5;fill-opacity:1;fill-rule:evenodd;stroke:black;stroke-width:3;stroke-linecap:butt;stroke-linejoin:miter;stroke-miterlimit:4;stroke-dasharray:none;stroke-opacity:1;display:inline"
         d="M 113.75902,422.42188 C 109.26956,426.99818 108.85869,433.32248 111.77489,441.07268 C 111.77489,441.07268 103.83839,430.85438 101.85426,425.59648 C 99.870126,420.33848 103.83838,420.04088 103.83838,420.04088 L 113.75902,422.42188 z " />
      <path
         id="path1760"
         style="fill:#fd5;fill-opacity:1;fill-rule:evenodd;stroke:black;stroke-width:3;stroke-linecap:butt;stroke-linejoin:miter;stroke-miterlimit:4;stroke-dasharray:none;stroke-opacity:1;display:inline"
         d="M 247.32529,302.55673 C 247.32529,302.55673 202.56992,293.1567 176.05342,297.50597 C 149.53692,301.85524 141.25928,319.9538 141.25928,319.9538 C 141.25928,319.9538 159.35784,346.47028 150.23841,358.67628 C 141.11898,370.88228 116.14026,377.15058 106.46514,368.77788 L 99.169586,362.46438 C 95.610236,359.38418 97.065096,354.60768 91.453136,357.41358 C 85.841176,360.21958 80.666976,368.13738 79.527726,371.02258 C 76.359466,379.04648 87.384466,379.44058 87.384466,379.44058 L 84.017296,382.24658 C 83.698186,382.96448 80.125776,377.11288 76.721746,379.44058 C 71.314456,383.13808 69.426196,392.62868 69.566496,398.66148 C 69.706796,404.69438 77.282946,403.57198 77.282946,403.57198 L 78.966536,409.74518 C 78.966536,409.74518 74.056066,410.72718 74.617256,414.79588 C 75.178456,418.86458 81.526986,423.07358 84.578496,424.05558 C 87.629996,425.03768 89.208356,419.28548 89.208356,419.28548 L 101.41437,417.04068 C 101.41437,417.04068 98.327786,420.96908 103.23825,422.65268 C 108.14872,424.33628 111.97186,425.31828 116.42635,423.91538 C 120.88084,422.51238 117.68904,416.05858 117.68904,416.05858 C 150.14581,406.49238 185.16373,400.66108 226.56105,404.13318 C 214.13128,388.34588 210.9772,369.20908 211.96995,348.57478 C 237.54443,343.57748 246.21046,355.48868 261.35519,360.92108 C 265.7376,339.45318 255.97032,321.12966 247.32529,302.55673 z " />
      <path
         id="path1564"
         style="fill:#fd5;fill-opacity:1;fill-rule:evenodd;stroke:black;stroke-width:3;stroke-linecap:butt;stroke-linejoin:miter;stroke-miterlimit:4;stroke-dasharray:none;stroke-opacity:1;display:inline"
         d="M 43.719336,194.44566 C 41.270936,188.01525 33.762656,182.36329 24.473296,176.98534 C 24.473296,176.98534 37.320516,178.37424 44.909806,180.9536 C 52.499096,183.53297 54.830446,187.3028 54.830446,187.3028 L 43.719336,194.44566 z " />
      <path
         id="path1566"
         style="fill:#fd5;fill-opacity:1;fill-rule:evenodd;stroke:black;stroke-width:3;stroke-linecap:butt;stroke-linejoin:miter;stroke-miterlimit:4;stroke-dasharray:none;stroke-opacity:1;display:inline"
         d="M 33.005046,218.05677 C 22.787246,210.98275 15.097846,219.07913 6.8145757,223.61233 C 6.8145757,223.61233 13.967406,210.46602 21.308676,205.80332 C 28.649936,201.14062 36.179646,204.96153 36.179646,204.96153 L 33.005046,218.05677 z " />
      <path
         id="path1568"
         style="fill:#fd5;fill-opacity:1;fill-rule:evenodd;stroke:black;stroke-width:3;stroke-linecap:butt;stroke-linejoin:miter;stroke-miterlimit:4;stroke-dasharray:none;stroke-opacity:1;display:inline"
         d="M 39.949496,242.06471 C 32.746826,242.13373 25.080666,243.87646 14.552666,255.9536 C 14.552666,255.9536 14.205446,246.28098 19.512986,239.68376 C 24.820526,233.08654 35.782826,229.56471 35.782826,229.56471 L 39.949496,242.06471 z " />
      <path
         id="path1570"
         style="fill:#fd5;fill-opacity:1;fill-rule:evenodd;stroke:black;stroke-width:3;stroke-linecap:butt;stroke-linejoin:miter;stroke-miterlimit:4;stroke-dasharray:none;stroke-opacity:1;display:inline"
         d="M 51.455366,251.61259 C 50.893296,255.5147 46.545296,259.55712 40.085666,261.9861 C 40.085666,261.9861 51.556116,262.40802 56.219336,260.12026 C 60.882556,257.8325 59.790766,254.16788 59.790766,254.16788 L 51.455366,251.61259 z " />
      <path
         id="path1634"
         style="fill:#fd5;fill-opacity:1;fill-rule:evenodd;stroke:black;stroke-width:3;stroke-linecap:butt;stroke-linejoin:miter;stroke-miterlimit:4;stroke-dasharray:none;stroke-opacity:1;display:inline"
         d="M 255.42568,506.15198 C 258.92629,508.39738 260.42661,512.04288 253.44156,521.62818 C 253.44156,521.62818 263.26299,516.96548 266.5368,512.89808 C 269.81061,508.83058 266.5368,505.35838 266.5368,505.35838 L 255.42568,506.15198 z " />
      <path
         id="path1632"
         style="fill:#fd5;fill-opacity:1;fill-rule:evenodd;stroke:black;stroke-width:3;stroke-linecap:butt;stroke-linejoin:miter;stroke-miterlimit:4;stroke-dasharray:none;stroke-opacity:1;display:inline"
         d="M 231.61616,500.99328 C 231.17415,511.28818 221.46566,510.79898 210.58442,515.27898 C 210.58442,515.27898 225.36617,519.24728 232.40982,514.88218 C 239.45347,510.51708 242.72727,506.54878 242.72727,506.54878 L 231.61616,500.99328 z " />
      <path
         id="path1630"
         style="fill:#fd5;fill-opacity:1;fill-rule:evenodd;stroke:black;stroke-width:3;stroke-linecap:butt;stroke-linejoin:miter;stroke-miterlimit:4;stroke-dasharray:none;stroke-opacity:1;display:inline"
         d="M 227.64791,495.83458 C 217.91529,484.86238 205.16836,494.99038 193.52092,497.42188 C 193.52092,497.42188 204.92965,485.51708 214.15584,482.73928 C 223.38203,479.96148 230.42568,486.31078 230.42568,486.31078 L 227.64791,495.83458 z " />
      <path
         id="path1628"
         style="fill:#fd5;fill-opacity:1;fill-rule:evenodd;stroke:black;stroke-width:3;stroke-linecap:butt;stroke-linejoin:miter;stroke-miterlimit:4;stroke-dasharray:none;stroke-opacity:1;display:inline"
         d="M 234.39394,472.42188 C 230.46465,455.07298 214.71694,457.42138 201.85426,454.96148 C 201.85426,454.96148 220.90187,448.71148 230.82251,448.61228 C 240.74314,448.51308 241.5368,454.56468 241.5368,454.56468 L 234.39394,472.42188 z " />
      <path
         id="path1756"
         style="fill:#fd5;fill-opacity:1;fill-rule:evenodd;stroke:black;stroke-width:3;stroke-linecap:butt;stroke-linejoin:miter;stroke-miterlimit:4;stroke-dasharray:none;stroke-opacity:1;display:inline"
         d="M 171.69553,169.24725 C 171.69553,169.24725 130.22728,186.50915 102.64791,192.26312 C 75.068546,198.01709 59.790766,190.27899 59.790766,190.27899 C 59.790766,190.27899 61.179656,181.74725 54.235206,182.73932 C 47.290766,183.73138 42.528856,188.49329 39.949496,193.4536 C 38.659806,195.93376 43.024886,197.42185 44.140966,199.87721 C 45.257036,202.33256 42.330446,204.96153 42.330446,204.96153 C 42.330446,204.96153 35.981246,196.82661 32.806636,201.78693 C 29.632026,206.74725 26.259006,212.89804 28.441546,219.64407 C 29.532816,223.01709 33.600286,219.34645 36.601276,220.78495 C 39.602266,222.22344 39.155846,227.58058 39.155846,227.58058 C 39.155846,227.58058 31.616156,224.90201 32.806636,230.35836 C 33.997116,235.81471 33.600286,241.46947 37.965366,245.0409 C 42.330446,248.61233 44.314576,240.67582 44.314576,240.67582 L 51.060606,246.23138 C 51.060606,246.23138 46.497116,250.19963 50.266956,253.37423 C 54.036796,256.54883 58.401876,258.92979 62.171716,258.92979 C 65.941556,258.92979 64.949486,251.3901 64.949486,251.3901 C 68.128916,247.56377 71.962416,245.04558 77.251076,245.43772 C 85.549896,248.53009 84.966546,254.28711 82.806636,260.51709 C 93.394776,260.79391 101.15019,255.40525 109.79076,251.78693 C 116.31495,252.77951 118.07834,255.5574 116.13997,259.72344 C 130.59924,264.34044 142.57964,257.80249 155.02886,253.37423 C 157.69415,255.5449 158.63187,258.7521 156.02092,264.08851 C 170.30664,242.92449 184.59235,234.72344 198.87806,239.48534 C 210.23708,256.40037 221.47748,267.12361 234.39394,279.3663 C 232.18436,301.94197 246.61018,321.89897 254.23521,336.50918 C 257.91627,343.56238 243.765,355.10348 243.1241,357.34248 C 238.78459,372.50258 241.92428,396.58588 242.98792,396.23138 C 246.36157,389.39578 251.8491,386.78808 258.20346,385.91388 C 257.60135,390.81948 254.14506,393.58438 258.99711,402.58058 C 265.48361,409.24788 272.44721,414.72248 280.42568,417.65998 C 271.07891,429.56518 264.95924,443.62998 256.61616,456.54878 C 254.43287,459.92958 252.25108,458.33458 248.67965,456.54878 C 245.10822,454.76308 245.27844,448.96928 242.33045,449.40598 C 235.18608,450.46428 225.76246,468.37368 229.31155,475.13158 C 231.93569,480.12818 234.49813,474.74058 236.16555,477.03928 C 237.83297,479.33808 238.20986,482.50478 235.98124,484.32658 C 233.75262,486.14838 230.42568,478.79098 227.25108,482.36238 C 224.07648,485.93388 224.53555,491.74388 225.52761,495.80638 C 226.51968,499.86878 230.23725,497.34968 230.23725,497.34968 L 231.82503,499.80568 C 230.34796,500.75258 229.38938,500.33708 230.00892,502.83508 C 230.94893,506.62508 239.17387,513.03048 242.59865,508.27648 C 243.91729,506.44598 244.32142,505.38558 244.37439,505.39478 L 251.31997,504.06578 C 252.94637,503.75458 250.97771,509.36968 252.03857,509.63958 C 256.79912,510.85028 267.97193,510.69868 270.94589,508.14028 C 275.01311,504.64138 269.06928,499.49018 275.81233,500.24778 C 275.81233,500.24778 277.55972,501.49938 278.94914,500.60018 C 304.14119,484.29578 321.54195,458.53228 323.28283,452.58058 C 325.0517,446.53318 322.29077,447.02498 325.46537,444.44568 C 328.63997,441.86628 335.98124,442.26308 335.98124,442.26308 C 335.98124,442.26308 349.57036,436.17278 337.56854,427.97738 C 327.88257,421.36338 318.48553,389.83718 321.69552,385.91388 C 320.94521,375.17968 314.64859,365.45398 308.20346,355.75518 C 306.33709,346.13348 309.31976,339.74448 313.75902,334.32658 C 316.29763,333.41268 352.88936,378.43018 365.34632,393.85038 C 381.18842,413.46108 402.64791,381.94568 402.64791,381.94568 C 402.64791,381.94568 416.93362,362.50118 415.94156,337.69958 C 414.94949,312.89804 398.67965,282.73931 398.67965,282.73931 C 395.12732,266.83396 405.14314,254.80522 416.13997,243.05677 C 405.64312,247.96174 394.70971,248.06469 385.18759,263.69169 C 385.18759,263.69169 382.60822,252.58058 384.79076,240.67582 C 386.9733,228.77106 399.07648,220.83455 399.07648,220.83455 C 384.86548,227.94577 372.93421,235.43694 371.2987,244.64407 C 366.87424,217.825 379.4486,194.2438 397.09235,171.6282 C 378.71918,183.46405 362.51005,197.03115 354.63203,217.26312 C 344.58327,169.34136 382.05263,146.64273 423.28283,109.72344 C 454.22733,82.014413 429.63203,57.342493 429.63203,57.342493 C 405.99081,50.446903 386.39136,58.391403 370.10822,67.263123 C 370.10822,67.263123 354.5115,50.994173 345.10822,66.469483 C 334.20278,84.416943 325.4809,93.516123 330.42568,114.08852 C 327.87553,110.68831 352.41813,93.610193 371.2987,93.453603 C 386.49845,93.327543 375.66378,75.199643 375.66378,75.199643 C 375.66378,75.199643 414.15584,58.731383 421.69552,66.072653 C 429.23521,73.413923 431.91841,82.494963 412.56854,100.59645 L 363.36219,146.6282 C 339.63057,168.82875 333.27103,192.42151 346.69552,230.35836 C 360.99846,270.77767 403.51535,302.33699 402.84632,329.16788 C 402.1773,355.99878 404.79373,357.63768 397.09236,369.64408 C 389.39099,381.65048 383.37277,394.04938 368.91775,376.19168 C 354.46273,358.33398 335.31667,328.55788 319.90981,306.74724 C 294.93969,271.39846 283.94751,259.57463 274.07648,231.15201 C 264.20545,202.72939 276.45743,207.73931 276.0606,191.07264 C 275.66378,174.40598 272.48918,164.48534 272.48918,164.48534 L 171.69553,169.24725 z " />
      <path
         id="path1401"
         style="fill:#fd5;fill-opacity:1;fill-rule:evenodd;stroke:black;stroke-width:3;stroke-linecap:butt;stroke-linejoin:miter;stroke-miterlimit:4;stroke-dasharray:none;stroke-opacity:1;display:inline"
         d="M 239.46855,93.230683 C 219.56032,96.070703 200.53839,102.60872 178.8594,101.08742 C 149.44301,99.023163 158.00588,84.955393 162.02352,80.323173 C 165.85217,75.908843 180.95148,90.669403 194.01169,95.475463 C 209.16489,101.05172 224.31809,93.985323 239.46855,93.230683 z " />
      <path
         id="path1723"
         style="fill:#fd5;fill-opacity:1;fill-rule:evenodd;stroke:black;stroke-width:3;stroke-linecap:butt;stroke-linejoin:miter;stroke-miterlimit:4;stroke-dasharray:none;stroke-opacity:1;display:inline"
         d="M 229.92823,80.323183 C 225.14682,75.240853 215.75393,74.983053 206.2177,76.254513 C 204.61986,74.074913 197.62913,69.993333 179.70119,70.782843 C 173.23978,62.588533 172.15491,49.654823 179.98179,44.687243 C 187.14233,40.142573 200.15806,42.244783 201.58783,41.320063 C 209.96428,35.902483 206.21769,28.693153 224.59686,25.606583 C 242.97602,22.520003 275.10449,28.973753 275.10449,28.973753 C 275.10449,28.973753 285.62691,23.922993 292.22096,23.361793 C 298.81501,22.800603 298.25381,22.800603 301.48069,26.728973 C 304.70757,30.657343 308.0046,32.411083 305.12847,39.075283 C 302.25234,45.739483 289.97618,53.385773 289.97618,53.385773 C 289.97618,53.385773 284.22392,70.432103 289.97618,82.287363 C 295.72844,94.142623 315.79119,102.49041 315.79119,102.49041 C 306.7139,102.96879 299.71335,104.63389 295.86873,108.10237 C 293.71748,109.78596 291.8573,113.0291 292.78216,115.67851 C 294.96726,121.93808 306.81205,132.51439 306.81205,132.51439 C 306.81205,132.51439 301.97173,130.26961 299.5165,136.16216 C 297.06127,142.05472 296.99113,156.08461 296.99113,156.08461 C 296.99113,156.08461 281.41739,156.28474 277.62987,166.74733 C 272.38556,181.23412 285.07244,203.09519 287.73139,199.2967 C 287.73139,199.2967 279.45375,202.45343 273.1403,200.13849 C 266.82685,197.82356 261.07459,190.03696 261.07459,190.03696 C 255.01299,191.13636 249.94299,194.0953 247.60589,198.1743 C 207.90585,185.13107 197.52927,201.41128 187.83853,218.37735 C 184.82932,221.42352 181.1202,222.71991 176.61461,222.02513 C 182.61614,214.42946 183.54051,205.56451 183.62956,196.49072 C 166.94916,197.54431 151.48454,211.62698 129.75476,208.55643 C 141.00325,200.97141 146.91186,191.25043 143.22346,177.69065 C 133.98025,172.02145 120.71845,171.17456 107.86812,169.83391 C 147.24994,161.45275 171.90991,151.46354 177.73701,136.16216 L 203.55202,133.91738 C 212.84986,128.35297 213.10528,123.61061 214.49533,118.76509 C 208.18494,112.07241 197.80013,117.64987 188.96093,115.11732 C 185.23475,114.04972 184.98361,109.2264 186.75321,107.90633 C 187.63801,107.2463 188.61168,104.84529 190.13062,104.52505 C 191.64957,104.20482 193.71379,105.96537 195.65733,105.77172 C 202.89981,105.05008 225.89279,104.61537 233.2954,103.3322 C 237.82533,95.036983 235.92243,86.694643 229.92823,80.323183 z " />
      <path
         id="path1387"
         style="fill:#fd5;fill-opacity:1;fill-rule:evenodd;stroke:black;stroke-width:3;stroke-linecap:butt;stroke-linejoin:miter;stroke-miterlimit:4;stroke-dasharray:none;stroke-opacity:1;display:inline"
         transform="translate(-83.06637,-57.02266)"
         d="M 326.58729,100.4762 C 326.59025,102.44963 323.21375,104.05016 319.04761,104.05016 C 314.88147,104.05016 311.50497,102.44963 311.50793,100.4762 C 311.50497,98.502765 314.88147,96.902237 319.04761,96.902237 C 323.21375,96.902237 326.59025,98.502765 326.58729,100.4762 z " />
    </g>
    <g
       style="fill:#fd5"
       transform="matrix(0.494378,0,0,0.543463,338.9827,47.4061)"
       id="g1999">
      <path
         d="M 62.972456,131.11139 C 52.979226,138.64509 38.022016,139.9464 32.106666,132.51439 C 32.106666,132.51439 42.153846,134.86638 46.697766,129.42782 C 52.864296,122.04717 53.087966,118.56003 53.993326,120.16808 L 62.972456,131.11139 z "
         style="fill:#fd5;fill-opacity:1;fill-rule:evenodd;stroke:black;stroke-width:3;stroke-linecap:butt;stroke-linejoin:miter;stroke-miterlimit:4;stroke-dasharray:none;stroke-opacity:1;display:inline"
         id="path2001" />
      <path
         d="M 43.891786,99.403843 C 35.141186,92.568573 24.588306,93.350393 20.321566,104.45459 C 19.191386,104.03077 20.798976,90.546393 25.652926,85.654543 C 30.644046,80.624433 31.966376,78.850033 39.402226,78.639593 C 46.838066,78.429143 56.238096,82.848563 56.238096,82.848563 L 43.891786,99.403843 z "
         style="fill:#fd5;fill-opacity:1;fill-rule:evenodd;stroke:black;stroke-width:3;stroke-linecap:butt;stroke-linejoin:miter;stroke-miterlimit:4;stroke-dasharray:none;stroke-opacity:1;display:inline"
         id="path2003" />
      <path
         d="M 59.044086,68.538063 C 54.455156,55.983413 51.286836,42.838253 31.545486,44.967833 C 31.545486,44.967833 41.398716,38.748753 52.870926,40.478273 C 67.046856,42.615393 77.473386,59.831193 76.721746,60.120133 L 59.044086,68.538063 z "
         style="fill:#fd5;fill-opacity:1;fill-rule:evenodd;stroke:black;stroke-width:3;stroke-linecap:butt;stroke-linejoin:miter;stroke-miterlimit:4;stroke-dasharray:none;stroke-opacity:1;display:inline"
         id="path2005" />
      <path
         d="M 91.593436,60.961923 C 97.573076,55.249983 96.935946,42.921273 98.888986,33.182723 C 98.888986,33.182723 106.53529,39.846923 108.42932,49.176803 C 110.32336,58.506693 106.46513,70.502253 106.46513,70.502253 L 91.593436,60.961923 z "
         style="fill:#fd5;fill-opacity:1;fill-rule:evenodd;stroke:black;stroke-width:3;stroke-linecap:butt;stroke-linejoin:miter;stroke-miterlimit:4;stroke-dasharray:none;stroke-opacity:1;display:inline"
         id="path2007" />
      <path
         d="M 136.20851,171.7981 L 126.38758,166.95779 C 129.94908,163.16431 125.88365,160.13353 122.17862,157.06671 C 119.97917,153.42227 115.95239,153.38687 111.51589,154.96223 C 110.87643,148.00114 105.82664,146.71048 100.01138,146.40399 C 98.715746,135.78673 93.410876,136.39536 88.506866,135.88157 C 86.530616,130.45966 82.952326,129.43612 79.668026,130.26961 C 78.586496,128.30985 75.632546,127.75441 68.584406,130.26961 C 68.584406,130.26961 64.094846,137.98605 59.044086,135.88157 C 53.993326,133.77708 49.082856,127.74423 47.258966,123.53526 C 45.435076,119.32629 54.133616,120.16809 53.993316,115.11732 C 53.853016,110.06656 50.485836,106.41879 46.697766,103.33221 C 42.909696,100.24563 37.438036,103.6128 38.420126,96.317263 C 39.402226,89.021713 39.858186,82.357523 44.733576,78.499303 C 49.608966,74.641083 57.921686,80.884383 57.921686,80.884383 C 57.921686,80.884383 63.358266,79.902293 62.358636,76.710483 C 61.359006,73.518683 53.923166,68.117173 56.799296,64.329103 C 62.551546,56.752953 66.900816,53.175333 73.915766,53.105183 C 80.930716,53.035033 78.335186,63.978353 82.754606,64.890293 C 87.174016,65.802243 87.980736,54.858913 94.960616,57.594743 C 101.94049,60.330573 111.03771,65.799983 108.70991,73.308233 C 106.7322,79.687323 104.39126,77.471053 105.16014,79.746173 C 106.23439,82.924903 103.24477,80.115473 114.60247,90.565003 C 119.42813,95.004803 126.08507,101.31979 133.70231,107.29949 C 141.31956,113.27918 150.06084,121.47243 157.58218,127.49432 C 165.10352,133.51622 172.24671,135.96377 177.22897,139.99244 C 182.21123,144.0211 185.31315,146.54429 185.31315,146.54429 L 136.20851,171.7981 z "
         style="fill:#fd5;fill-opacity:1;fill-rule:evenodd;stroke:black;stroke-width:3;stroke-linecap:butt;stroke-linejoin:miter;stroke-miterlimit:4;stroke-dasharray:none;stroke-opacity:1;display:inline"
         id="path2009" />
      <path
         d="M 81.219326,377.77898 C 82.306176,362.97898 67.155216,354.48798 52.449486,354.56468 C 52.449486,354.56468 70.009016,347.76908 80.028856,351.39008 C 90.048696,355.01108 93.719336,360.71548 93.719336,360.71548 L 81.219326,377.77898 z "
         style="fill:#fd5;fill-opacity:1;fill-rule:evenodd;stroke:black;stroke-width:3;stroke-linecap:butt;stroke-linejoin:miter;stroke-miterlimit:4;stroke-dasharray:none;stroke-opacity:1;display:inline"
         id="path2011" />
      <path
         d="M 73.679646,400.00118 C 60.630006,388.59228 52.027396,400.10648 40.743146,405.15998 C 40.743146,405.15998 48.084416,387.74928 57.012986,382.34248 C 65.941556,376.93578 76.457426,383.53298 76.457426,383.53298 L 73.679646,400.00118 z "
         style="fill:#fd5;fill-opacity:1;fill-rule:evenodd;stroke:black;stroke-width:3;stroke-linecap:butt;stroke-linejoin:miter;stroke-miterlimit:4;stroke-dasharray:none;stroke-opacity:1;display:inline"
         id="path2013" />
      <path
         d="M 83.600286,420.04088 C 78.327906,422.49638 73.813586,427.98408 71.695526,443.05678 C 71.695526,443.05678 69.512986,429.06868 70.901876,421.62818 C 72.290766,414.18768 77.251076,413.29488 77.251076,413.29488 L 83.600286,420.04088 z "
         style="fill:#fd5;fill-opacity:1;fill-rule:evenodd;stroke:black;stroke-width:3;stroke-linecap:butt;stroke-linejoin:miter;stroke-miterlimit:4;stroke-dasharray:none;stroke-opacity:1;display:inline"
         id="path2015" />
      <path
         d="M 113.75902,422.42188 C 109.26956,426.99818 108.85869,433.32248 111.77489,441.07268 C 111.77489,441.07268 103.83839,430.85438 101.85426,425.59648 C 99.870126,420.33848 103.83838,420.04088 103.83838,420.04088 L 113.75902,422.42188 z "
         style="fill:#fd5;fill-opacity:1;fill-rule:evenodd;stroke:black;stroke-width:3;stroke-linecap:butt;stroke-linejoin:miter;stroke-miterlimit:4;stroke-dasharray:none;stroke-opacity:1;display:inline"
         id="path2017" />
      <path
         d="M 247.32529,302.55673 C 247.32529,302.55673 202.56992,293.1567 176.05342,297.50597 C 149.53692,301.85524 141.25928,319.9538 141.25928,319.9538 C 141.25928,319.9538 159.35784,346.47028 150.23841,358.67628 C 141.11898,370.88228 116.14026,377.15058 106.46514,368.77788 L 99.169586,362.46438 C 95.610236,359.38418 97.065096,354.60768 91.453136,357.41358 C 85.841176,360.21958 80.666976,368.13738 79.527726,371.02258 C 76.359466,379.04648 87.384466,379.44058 87.384466,379.44058 L 84.017296,382.24658 C 83.698186,382.96448 80.125776,377.11288 76.721746,379.44058 C 71.314456,383.13808 69.426196,392.62868 69.566496,398.66148 C 69.706796,404.69438 77.282946,403.57198 77.282946,403.57198 L 78.966536,409.74518 C 78.966536,409.74518 74.056066,410.72718 74.617256,414.79588 C 75.178456,418.86458 81.526986,423.07358 84.578496,424.05558 C 87.629996,425.03768 89.208356,419.28548 89.208356,419.28548 L 101.41437,417.04068 C 101.41437,417.04068 98.327786,420.96908 103.23825,422.65268 C 108.14872,424.33628 111.97186,425.31828 116.42635,423.91538 C 120.88084,422.51238 117.68904,416.05858 117.68904,416.05858 C 150.14581,406.49238 185.16373,400.66108 226.56105,404.13318 C 214.13128,388.34588 210.9772,369.20908 211.96995,348.57478 C 237.54443,343.57748 246.21046,355.48868 261.35519,360.92108 C 265.7376,339.45318 255.97032,321.12966 247.32529,302.55673 z "
         style="fill:#fd5;fill-opacity:1;fill-rule:evenodd;stroke:black;stroke-width:3;stroke-linecap:butt;stroke-linejoin:miter;stroke-miterlimit:4;stroke-dasharray:none;stroke-opacity:1;display:inline"
         id="path2019" />
      <path
         d="M 43.719336,194.44566 C 41.270936,188.01525 33.762656,182.36329 24.473296,176.98534 C 24.473296,176.98534 37.320516,178.37424 44.909806,180.9536 C 52.499096,183.53297 54.830446,187.3028 54.830446,187.3028 L 43.719336,194.44566 z "
         style="fill:#fd5;fill-opacity:1;fill-rule:evenodd;stroke:black;stroke-width:3;stroke-linecap:butt;stroke-linejoin:miter;stroke-miterlimit:4;stroke-dasharray:none;stroke-opacity:1;display:inline"
         id="path2021" />
      <path
         d="M 33.005046,218.05677 C 22.787246,210.98275 15.097846,219.07913 6.8145757,223.61233 C 6.8145757,223.61233 13.967406,210.46602 21.308676,205.80332 C 28.649936,201.14062 36.179646,204.96153 36.179646,204.96153 L 33.005046,218.05677 z "
         style="fill:#fd5;fill-opacity:1;fill-rule:evenodd;stroke:black;stroke-width:3;stroke-linecap:butt;stroke-linejoin:miter;stroke-miterlimit:4;stroke-dasharray:none;stroke-opacity:1;display:inline"
         id="path2023" />
      <path
         d="M 39.949496,242.06471 C 32.746826,242.13373 25.080666,243.87646 14.552666,255.9536 C 14.552666,255.9536 14.205446,246.28098 19.512986,239.68376 C 24.820526,233.08654 35.782826,229.56471 35.782826,229.56471 L 39.949496,242.06471 z "
         style="fill:#fd5;fill-opacity:1;fill-rule:evenodd;stroke:black;stroke-width:3;stroke-linecap:butt;stroke-linejoin:miter;stroke-miterlimit:4;stroke-dasharray:none;stroke-opacity:1;display:inline"
         id="path2025" />
      <path
         d="M 51.455366,251.61259 C 50.893296,255.5147 46.545296,259.55712 40.085666,261.9861 C 40.085666,261.9861 51.556116,262.40802 56.219336,260.12026 C 60.882556,257.8325 59.790766,254.16788 59.790766,254.16788 L 51.455366,251.61259 z "
         style="fill:#fd5;fill-opacity:1;fill-rule:evenodd;stroke:black;stroke-width:3;stroke-linecap:butt;stroke-linejoin:miter;stroke-miterlimit:4;stroke-dasharray:none;stroke-opacity:1;display:inline"
         id="path2027" />
      <path
         d="M 255.42568,506.15198 C 258.92629,508.39738 260.42661,512.04288 253.44156,521.62818 C 253.44156,521.62818 263.26299,516.96548 266.5368,512.89808 C 269.81061,508.83058 266.5368,505.35838 266.5368,505.35838 L 255.42568,506.15198 z "
         style="fill:#fd5;fill-opacity:1;fill-rule:evenodd;stroke:black;stroke-width:3;stroke-linecap:butt;stroke-linejoin:miter;stroke-miterlimit:4;stroke-dasharray:none;stroke-opacity:1;display:inline"
         id="path2029" />
      <path
         d="M 231.61616,500.99328 C 231.17415,511.28818 221.46566,510.79898 210.58442,515.27898 C 210.58442,515.27898 225.36617,519.24728 232.40982,514.88218 C 239.45347,510.51708 242.72727,506.54878 242.72727,506.54878 L 231.61616,500.99328 z "
         style="fill:#fd5;fill-opacity:1;fill-rule:evenodd;stroke:black;stroke-width:3;stroke-linecap:butt;stroke-linejoin:miter;stroke-miterlimit:4;stroke-dasharray:none;stroke-opacity:1;display:inline"
         id="path2031" />
      <path
         d="M 227.64791,495.83458 C 217.91529,484.86238 205.16836,494.99038 193.52092,497.42188 C 193.52092,497.42188 204.92965,485.51708 214.15584,482.73928 C 223.38203,479.96148 230.42568,486.31078 230.42568,486.31078 L 227.64791,495.83458 z "
         style="fill:#fd5;fill-opacity:1;fill-rule:evenodd;stroke:black;stroke-width:3;stroke-linecap:butt;stroke-linejoin:miter;stroke-miterlimit:4;stroke-dasharray:none;stroke-opacity:1;display:inline"
         id="path2033" />
      <path
         d="M 234.39394,472.42188 C 230.46465,455.07298 214.71694,457.42138 201.85426,454.96148 C 201.85426,454.96148 220.90187,448.71148 230.82251,448.61228 C 240.74314,448.51308 241.5368,454.56468 241.5368,454.56468 L 234.39394,472.42188 z "
         style="fill:#fd5;fill-opacity:1;fill-rule:evenodd;stroke:black;stroke-width:3;stroke-linecap:butt;stroke-linejoin:miter;stroke-miterlimit:4;stroke-dasharray:none;stroke-opacity:1;display:inline"
         id="path2035" />
      <path
         d="M 171.69553,169.24725 C 171.69553,169.24725 130.22728,186.50915 102.64791,192.26312 C 75.068546,198.01709 59.790766,190.27899 59.790766,190.27899 C 59.790766,190.27899 61.179656,181.74725 54.235206,182.73932 C 47.290766,183.73138 42.528856,188.49329 39.949496,193.4536 C 38.659806,195.93376 43.024886,197.42185 44.140966,199.87721 C 45.257036,202.33256 42.330446,204.96153 42.330446,204.96153 C 42.330446,204.96153 35.981246,196.82661 32.806636,201.78693 C 29.632026,206.74725 26.259006,212.89804 28.441546,219.64407 C 29.532816,223.01709 33.600286,219.34645 36.601276,220.78495 C 39.602266,222.22344 39.155846,227.58058 39.155846,227.58058 C 39.155846,227.58058 31.616156,224.90201 32.806636,230.35836 C 33.997116,235.81471 33.600286,241.46947 37.965366,245.0409 C 42.330446,248.61233 44.314576,240.67582 44.314576,240.67582 L 51.060606,246.23138 C 51.060606,246.23138 46.497116,250.19963 50.266956,253.37423 C 54.036796,256.54883 58.401876,258.92979 62.171716,258.92979 C 65.941556,258.92979 64.949486,251.3901 64.949486,251.3901 C 68.128916,247.56377 71.962416,245.04558 77.251076,245.43772 C 85.549896,248.53009 84.966546,254.28711 82.806636,260.51709 C 93.394776,260.79391 101.15019,255.40525 109.79076,251.78693 C 116.31495,252.77951 118.07834,255.5574 116.13997,259.72344 C 130.59924,264.34044 142.57964,257.80249 155.02886,253.37423 C 157.69415,255.5449 158.63187,258.7521 156.02092,264.08851 C 170.30664,242.92449 184.59235,234.72344 198.87806,239.48534 C 210.23708,256.40037 221.47748,267.12361 234.39394,279.3663 C 232.18436,301.94197 246.61018,321.89897 254.23521,336.50918 C 257.91627,343.56238 243.765,355.10348 243.1241,357.34248 C 238.78459,372.50258 241.92428,396.58588 242.98792,396.23138 C 246.36157,389.39578 251.8491,386.78808 258.20346,385.91388 C 257.60135,390.81948 254.14506,393.58438 258.99711,402.58058 C 265.48361,409.24788 272.44721,414.72248 280.42568,417.65998 C 271.07891,429.56518 264.95924,443.62998 256.61616,456.54878 C 254.43287,459.92958 252.25108,458.33458 248.67965,456.54878 C 245.10822,454.76308 245.27844,448.96928 242.33045,449.40598 C 235.18608,450.46428 225.76246,468.37368 229.31155,475.13158 C 231.93569,480.12818 234.49813,474.74058 236.16555,477.03928 C 237.83297,479.33808 238.20986,482.50478 235.98124,484.32658 C 233.75262,486.14838 230.42568,478.79098 227.25108,482.36238 C 224.07648,485.93388 224.53555,491.74388 225.52761,495.80638 C 226.51968,499.86878 230.23725,497.34968 230.23725,497.34968 L 231.82503,499.80568 C 230.34796,500.75258 229.38938,500.33708 230.00892,502.83508 C 230.94893,506.62508 239.17387,513.03048 242.59865,508.27648 C 243.91729,506.44598 244.32142,505.38558 244.37439,505.39478 L 251.31997,504.06578 C 252.94637,503.75458 250.97771,509.36968 252.03857,509.63958 C 256.79912,510.85028 267.97193,510.69868 270.94589,508.14028 C 275.01311,504.64138 269.06928,499.49018 275.81233,500.24778 C 275.81233,500.24778 277.55972,501.49938 278.94914,500.60018 C 304.14119,484.29578 321.54195,458.53228 323.28283,452.58058 C 325.0517,446.53318 322.29077,447.02498 325.46537,444.44568 C 328.63997,441.86628 335.98124,442.26308 335.98124,442.26308 C 335.98124,442.26308 349.57036,436.17278 337.56854,427.97738 C 327.88257,421.36338 318.48553,389.83718 321.69552,385.91388 C 320.94521,375.17968 314.64859,365.45398 308.20346,355.75518 C 306.33709,346.13348 309.31976,339.74448 313.75902,334.32658 C 316.29763,333.41268 352.88936,378.43018 365.34632,393.85038 C 381.18842,413.46108 402.64791,381.94568 402.64791,381.94568 C 402.64791,381.94568 416.93362,362.50118 415.94156,337.69958 C 414.94949,312.89804 398.67965,282.73931 398.67965,282.73931 C 395.12732,266.83396 405.14314,254.80522 416.13997,243.05677 C 405.64312,247.96174 394.70971,248.06469 385.18759,263.69169 C 385.18759,263.69169 382.60822,252.58058 384.79076,240.67582 C 386.9733,228.77106 399.07648,220.83455 399.07648,220.83455 C 384.86548,227.94577 372.93421,235.43694 371.2987,244.64407 C 366.87424,217.825 379.4486,194.2438 397.09235,171.6282 C 378.71918,183.46405 362.51005,197.03115 354.63203,217.26312 C 344.58327,169.34136 382.05263,146.64273 423.28283,109.72344 C 454.22733,82.014413 429.63203,57.342493 429.63203,57.342493 C 405.99081,50.446903 386.39136,58.391403 370.10822,67.263123 C 370.10822,67.263123 354.5115,50.994173 345.10822,66.469483 C 334.20278,84.416943 325.4809,93.516123 330.42568,114.08852 C 327.87553,110.68831 352.41813,93.610193 371.2987,93.453603 C 386.49845,93.327543 375.66378,75.199643 375.66378,75.199643 C 375.66378,75.199643 414.15584,58.731383 421.69552,66.072653 C 429.23521,73.413923 431.91841,82.494963 412.56854,100.59645 L 363.36219,146.6282 C 339.63057,168.82875 333.27103,192.42151 346.69552,230.35836 C 360.99846,270.77767 403.51535,302.33699 402.84632,329.16788 C 402.1773,355.99878 404.79373,357.63768 397.09236,369.64408 C 389.39099,381.65048 383.37277,394.04938 368.91775,376.19168 C 354.46273,358.33398 335.31667,328.55788 319.90981,306.74724 C 294.93969,271.39846 283.94751,259.57463 274.07648,231.15201 C 264.20545,202.72939 276.45743,207.73931 276.0606,191.07264 C 275.66378,174.40598 272.48918,164.48534 272.48918,164.48534 L 171.69553,169.24725 z "
         style="fill:#fd5;fill-opacity:1;fill-rule:evenodd;stroke:black;stroke-width:3;stroke-linecap:butt;stroke-linejoin:miter;stroke-miterlimit:4;stroke-dasharray:none;stroke-opacity:1;display:inline"
         id="path2037" />
      <path
         d="M 239.46855,93.230683 C 219.56032,96.070703 200.53839,102.60872 178.8594,101.08742 C 149.44301,99.023163 158.00588,84.955393 162.02352,80.323173 C 165.85217,75.908843 180.95148,90.669403 194.01169,95.475463 C 209.16489,101.05172 224.31809,93.985323 239.46855,93.230683 z "
         style="fill:#fd5;fill-opacity:1;fill-rule:evenodd;stroke:black;stroke-width:3;stroke-linecap:butt;stroke-linejoin:miter;stroke-miterlimit:4;stroke-dasharray:none;stroke-opacity:1;display:inline"
         id="path2039" />
      <path
         d="M 229.92823,80.323183 C 225.14682,75.240853 215.75393,74.983053 206.2177,76.254513 C 204.61986,74.074913 197.62913,69.993333 179.70119,70.782843 C 173.23978,62.588533 172.15491,49.654823 179.98179,44.687243 C 187.14233,40.142573 200.15806,42.244783 201.58783,41.320063 C 209.96428,35.902483 206.21769,28.693153 224.59686,25.606583 C 242.97602,22.520003 275.10449,28.973753 275.10449,28.973753 C 275.10449,28.973753 285.62691,23.922993 292.22096,23.361793 C 298.81501,22.800603 298.25381,22.800603 301.48069,26.728973 C 304.70757,30.657343 308.0046,32.411083 305.12847,39.075283 C 302.25234,45.739483 289.97618,53.385773 289.97618,53.385773 C 289.97618,53.385773 284.22392,70.432103 289.97618,82.287363 C 295.72844,94.142623 315.79119,102.49041 315.79119,102.49041 C 306.7139,102.96879 299.71335,104.63389 295.86873,108.10237 C 293.71748,109.78596 291.8573,113.0291 292.78216,115.67851 C 294.96726,121.93808 306.81205,132.51439 306.81205,132.51439 C 306.81205,132.51439 301.97173,130.26961 299.5165,136.16216 C 297.06127,142.05472 296.99113,156.08461 296.99113,156.08461 C 296.99113,156.08461 281.41739,156.28474 277.62987,166.74733 C 272.38556,181.23412 285.07244,203.09519 287.73139,199.2967 C 287.73139,199.2967 279.45375,202.45343 273.1403,200.13849 C 266.82685,197.82356 261.07459,190.03696 261.07459,190.03696 C 255.01299,191.13636 249.94299,194.0953 247.60589,198.1743 C 207.90585,185.13107 197.52927,201.41128 187.83853,218.37735 C 184.82932,221.42352 181.1202,222.71991 176.61461,222.02513 C 182.61614,214.42946 183.54051,205.56451 183.62956,196.49072 C 166.94916,197.54431 151.48454,211.62698 129.75476,208.55643 C 141.00325,200.97141 146.91186,191.25043 143.22346,177.69065 C 133.98025,172.02145 120.71845,171.17456 107.86812,169.83391 C 147.24994,161.45275 171.90991,151.46354 177.73701,136.16216 L 203.55202,133.91738 C 212.84986,128.35297 213.10528,123.61061 214.49533,118.76509 C 208.18494,112.07241 197.80013,117.64987 188.96093,115.11732 C 185.23475,114.04972 184.98361,109.2264 186.75321,107.90633 C 187.63801,107.2463 188.61168,104.84529 190.13062,104.52505 C 191.64957,104.20482 193.71379,105.96537 195.65733,105.77172 C 202.89981,105.05008 225.89279,104.61537 233.2954,103.3322 C 237.82533,95.036983 235.92243,86.694643 229.92823,80.323183 z "
         style="fill:#fd5;fill-opacity:1;fill-rule:evenodd;stroke:black;stroke-width:3;stroke-linecap:butt;stroke-linejoin:miter;stroke-miterlimit:4;stroke-dasharray:none;stroke-opacity:1;display:inline"
         id="path2041" />
      <path
         d="M 326.58729,100.4762 C 326.59025,102.44963 323.21375,104.05016 319.04761,104.05016 C 314.88147,104.05016 311.50497,102.44963 311.50793,100.4762 C 311.50497,98.502765 314.88147,96.902237 319.04761,96.902237 C 323.21375,96.902237 326.59025,98.502765 326.58729,100.4762 z "
         transform="translate(-83.06637,-57.02266)"
         style="fill:#fd5;fill-opacity:1;fill-rule:evenodd;stroke:black;stroke-width:3;stroke-linecap:butt;stroke-linejoin:miter;stroke-miterlimit:4;stroke-dasharray:none;stroke-opacity:1;display:inline"
         id="path2043" />
    </g>
    <g
       style="fill:#fd5"
       transform="matrix(0.494378,0,0,0.543463,189.6328,305.3425)"
       id="g2139">
      <path
         d="M 62.972456,131.11139 C 52.979226,138.64509 38.022016,139.9464 32.106666,132.51439 C 32.106666,132.51439 42.153846,134.86638 46.697766,129.42782 C 52.864296,122.04717 53.087966,118.56003 53.993326,120.16808 L 62.972456,131.11139 z "
         style="fill:#fd5;fill-opacity:1;fill-rule:evenodd;stroke:black;stroke-width:3;stroke-linecap:butt;stroke-linejoin:miter;stroke-miterlimit:4;stroke-dasharray:none;stroke-opacity:1;display:inline"
         id="path2141" />
      <path
         d="M 43.891786,99.403843 C 35.141186,92.568573 24.588306,93.350393 20.321566,104.45459 C 19.191386,104.03077 20.798976,90.546393 25.652926,85.654543 C 30.644046,80.624433 31.966376,78.850033 39.402226,78.639593 C 46.838066,78.429143 56.238096,82.848563 56.238096,82.848563 L 43.891786,99.403843 z "
         style="fill:#fd5;fill-opacity:1;fill-rule:evenodd;stroke:black;stroke-width:3;stroke-linecap:butt;stroke-linejoin:miter;stroke-miterlimit:4;stroke-dasharray:none;stroke-opacity:1;display:inline"
         id="path2143" />
      <path
         d="M 59.044086,68.538063 C 54.455156,55.983413 51.286836,42.838253 31.545486,44.967833 C 31.545486,44.967833 41.398716,38.748753 52.870926,40.478273 C 67.046856,42.615393 77.473386,59.831193 76.721746,60.120133 L 59.044086,68.538063 z "
         style="fill:#fd5;fill-opacity:1;fill-rule:evenodd;stroke:black;stroke-width:3;stroke-linecap:butt;stroke-linejoin:miter;stroke-miterlimit:4;stroke-dasharray:none;stroke-opacity:1;display:inline"
         id="path2145" />
      <path
         d="M 91.593436,60.961923 C 97.573076,55.249983 96.935946,42.921273 98.888986,33.182723 C 98.888986,33.182723 106.53529,39.846923 108.42932,49.176803 C 110.32336,58.506693 106.46513,70.502253 106.46513,70.502253 L 91.593436,60.961923 z "
         style="fill:#fd5;fill-opacity:1;fill-rule:evenodd;stroke:black;stroke-width:3;stroke-linecap:butt;stroke-linejoin:miter;stroke-miterlimit:4;stroke-dasharray:none;stroke-opacity:1;display:inline"
         id="path2147" />
      <path
         d="M 136.20851,171.7981 L 126.38758,166.95779 C 129.94908,163.16431 125.88365,160.13353 122.17862,157.06671 C 119.97917,153.42227 115.95239,153.38687 111.51589,154.96223 C 110.87643,148.00114 105.82664,146.71048 100.01138,146.40399 C 98.715746,135.78673 93.410876,136.39536 88.506866,135.88157 C 86.530616,130.45966 82.952326,129.43612 79.668026,130.26961 C 78.586496,128.30985 75.632546,127.75441 68.584406,130.26961 C 68.584406,130.26961 64.094846,137.98605 59.044086,135.88157 C 53.993326,133.77708 49.082856,127.74423 47.258966,123.53526 C 45.435076,119.32629 54.133616,120.16809 53.993316,115.11732 C 53.853016,110.06656 50.485836,106.41879 46.697766,103.33221 C 42.909696,100.24563 37.438036,103.6128 38.420126,96.317263 C 39.402226,89.021713 39.858186,82.357523 44.733576,78.499303 C 49.608966,74.641083 57.921686,80.884383 57.921686,80.884383 C 57.921686,80.884383 63.358266,79.902293 62.358636,76.710483 C 61.359006,73.518683 53.923166,68.117173 56.799296,64.329103 C 62.551546,56.752953 66.900816,53.175333 73.915766,53.105183 C 80.930716,53.035033 78.335186,63.978353 82.754606,64.890293 C 87.174016,65.802243 87.980736,54.858913 94.960616,57.594743 C 101.94049,60.330573 111.03771,65.799983 108.70991,73.308233 C 106.7322,79.687323 104.39126,77.471053 105.16014,79.746173 C 106.23439,82.924903 103.24477,80.115473 114.60247,90.565003 C 119.42813,95.004803 126.08507,101.31979 133.70231,107.29949 C 141.31956,113.27918 150.06084,121.47243 157.58218,127.49432 C 165.10352,133.51622 172.24671,135.96377 177.22897,139.99244 C 182.21123,144.0211 185.31315,146.54429 185.31315,146.54429 L 136.20851,171.7981 z "
         style="fill:#fd5;fill-opacity:1;fill-rule:evenodd;stroke:black;stroke-width:3;stroke-linecap:butt;stroke-linejoin:miter;stroke-miterlimit:4;stroke-dasharray:none;stroke-opacity:1;display:inline"
         id="path2149" />
      <path
         d="M 81.219326,377.77898 C 82.306176,362.97898 67.155216,354.48798 52.449486,354.56468 C 52.449486,354.56468 70.009016,347.76908 80.028856,351.39008 C 90.048696,355.01108 93.719336,360.71548 93.719336,360.71548 L 81.219326,377.77898 z "
         style="fill:#fd5;fill-opacity:1;fill-rule:evenodd;stroke:black;stroke-width:3;stroke-linecap:butt;stroke-linejoin:miter;stroke-miterlimit:4;stroke-dasharray:none;stroke-opacity:1;display:inline"
         id="path2151" />
      <path
         d="M 73.679646,400.00118 C 60.630006,388.59228 52.027396,400.10648 40.743146,405.15998 C 40.743146,405.15998 48.084416,387.74928 57.012986,382.34248 C 65.941556,376.93578 76.457426,383.53298 76.457426,383.53298 L 73.679646,400.00118 z "
         style="fill:#fd5;fill-opacity:1;fill-rule:evenodd;stroke:black;stroke-width:3;stroke-linecap:butt;stroke-linejoin:miter;stroke-miterlimit:4;stroke-dasharray:none;stroke-opacity:1;display:inline"
         id="path2153" />
      <path
         d="M 83.600286,420.04088 C 78.327906,422.49638 73.813586,427.98408 71.695526,443.05678 C 71.695526,443.05678 69.512986,429.06868 70.901876,421.62818 C 72.290766,414.18768 77.251076,413.29488 77.251076,413.29488 L 83.600286,420.04088 z "
         style="fill:#fd5;fill-opacity:1;fill-rule:evenodd;stroke:black;stroke-width:3;stroke-linecap:butt;stroke-linejoin:miter;stroke-miterlimit:4;stroke-dasharray:none;stroke-opacity:1;display:inline"
         id="path2155" />
      <path
         d="M 113.75902,422.42188 C 109.26956,426.99818 108.85869,433.32248 111.77489,441.07268 C 111.77489,441.07268 103.83839,430.85438 101.85426,425.59648 C 99.870126,420.33848 103.83838,420.04088 103.83838,420.04088 L 113.75902,422.42188 z "
         style="fill:#fd5;fill-opacity:1;fill-rule:evenodd;stroke:black;stroke-width:3;stroke-linecap:butt;stroke-linejoin:miter;stroke-miterlimit:4;stroke-dasharray:none;stroke-opacity:1;display:inline"
         id="path2157" />
      <path
         d="M 247.32529,302.55673 C 247.32529,302.55673 202.56992,293.1567 176.05342,297.50597 C 149.53692,301.85524 141.25928,319.9538 141.25928,319.9538 C 141.25928,319.9538 159.35784,346.47028 150.23841,358.67628 C 141.11898,370.88228 116.14026,377.15058 106.46514,368.77788 L 99.169586,362.46438 C 95.610236,359.38418 97.065096,354.60768 91.453136,357.41358 C 85.841176,360.21958 80.666976,368.13738 79.527726,371.02258 C 76.359466,379.04648 87.384466,379.44058 87.384466,379.44058 L 84.017296,382.24658 C 83.698186,382.96448 80.125776,377.11288 76.721746,379.44058 C 71.314456,383.13808 69.426196,392.62868 69.566496,398.66148 C 69.706796,404.69438 77.282946,403.57198 77.282946,403.57198 L 78.966536,409.74518 C 78.966536,409.74518 74.056066,410.72718 74.617256,414.79588 C 75.178456,418.86458 81.526986,423.07358 84.578496,424.05558 C 87.629996,425.03768 89.208356,419.28548 89.208356,419.28548 L 101.41437,417.04068 C 101.41437,417.04068 98.327786,420.96908 103.23825,422.65268 C 108.14872,424.33628 111.97186,425.31828 116.42635,423.91538 C 120.88084,422.51238 117.68904,416.05858 117.68904,416.05858 C 150.14581,406.49238 185.16373,400.66108 226.56105,404.13318 C 214.13128,388.34588 210.9772,369.20908 211.96995,348.57478 C 237.54443,343.57748 246.21046,355.48868 261.35519,360.92108 C 265.7376,339.45318 255.97032,321.12966 247.32529,302.55673 z "
         style="fill:#fd5;fill-opacity:1;fill-rule:evenodd;stroke:black;stroke-width:3;stroke-linecap:butt;stroke-linejoin:miter;stroke-miterlimit:4;stroke-dasharray:none;stroke-opacity:1;display:inline"
         id="path2159" />
      <path
         d="M 43.719336,194.44566 C 41.270936,188.01525 33.762656,182.36329 24.473296,176.98534 C 24.473296,176.98534 37.320516,178.37424 44.909806,180.9536 C 52.499096,183.53297 54.830446,187.3028 54.830446,187.3028 L 43.719336,194.44566 z "
         style="fill:#fd5;fill-opacity:1;fill-rule:evenodd;stroke:black;stroke-width:3;stroke-linecap:butt;stroke-linejoin:miter;stroke-miterlimit:4;stroke-dasharray:none;stroke-opacity:1;display:inline"
         id="path2161" />
      <path
         d="M 33.005046,218.05677 C 22.787246,210.98275 15.097846,219.07913 6.8145757,223.61233 C 6.8145757,223.61233 13.967406,210.46602 21.308676,205.80332 C 28.649936,201.14062 36.179646,204.96153 36.179646,204.96153 L 33.005046,218.05677 z "
         style="fill:#fd5;fill-opacity:1;fill-rule:evenodd;stroke:black;stroke-width:3;stroke-linecap:butt;stroke-linejoin:miter;stroke-miterlimit:4;stroke-dasharray:none;stroke-opacity:1;display:inline"
         id="path2163" />
      <path
         d="M 39.949496,242.06471 C 32.746826,242.13373 25.080666,243.87646 14.552666,255.9536 C 14.552666,255.9536 14.205446,246.28098 19.512986,239.68376 C 24.820526,233.08654 35.782826,229.56471 35.782826,229.56471 L 39.949496,242.06471 z "
         style="fill:#fd5;fill-opacity:1;fill-rule:evenodd;stroke:black;stroke-width:3;stroke-linecap:butt;stroke-linejoin:miter;stroke-miterlimit:4;stroke-dasharray:none;stroke-opacity:1;display:inline"
         id="path2165" />
      <path
         d="M 51.455366,251.61259 C 50.893296,255.5147 46.545296,259.55712 40.085666,261.9861 C 40.085666,261.9861 51.556116,262.40802 56.219336,260.12026 C 60.882556,257.8325 59.790766,254.16788 59.790766,254.16788 L 51.455366,251.61259 z "
         style="fill:#fd5;fill-opacity:1;fill-rule:evenodd;stroke:black;stroke-width:3;stroke-linecap:butt;stroke-linejoin:miter;stroke-miterlimit:4;stroke-dasharray:none;stroke-opacity:1;display:inline"
         id="path2167" />
      <path
         d="M 255.42568,506.15198 C 258.92629,508.39738 260.42661,512.04288 253.44156,521.62818 C 253.44156,521.62818 263.26299,516.96548 266.5368,512.89808 C 269.81061,508.83058 266.5368,505.35838 266.5368,505.35838 L 255.42568,506.15198 z "
         style="fill:#fd5;fill-opacity:1;fill-rule:evenodd;stroke:black;stroke-width:3;stroke-linecap:butt;stroke-linejoin:miter;stroke-miterlimit:4;stroke-dasharray:none;stroke-opacity:1;display:inline"
         id="path2169" />
      <path
         d="M 231.61616,500.99328 C 231.17415,511.28818 221.46566,510.79898 210.58442,515.27898 C 210.58442,515.27898 225.36617,519.24728 232.40982,514.88218 C 239.45347,510.51708 242.72727,506.54878 242.72727,506.54878 L 231.61616,500.99328 z "
         style="fill:#fd5;fill-opacity:1;fill-rule:evenodd;stroke:black;stroke-width:3;stroke-linecap:butt;stroke-linejoin:miter;stroke-miterlimit:4;stroke-dasharray:none;stroke-opacity:1;display:inline"
         id="path2171" />
      <path
         d="M 227.64791,495.83458 C 217.91529,484.86238 205.16836,494.99038 193.52092,497.42188 C 193.52092,497.42188 204.92965,485.51708 214.15584,482.73928 C 223.38203,479.96148 230.42568,486.31078 230.42568,486.31078 L 227.64791,495.83458 z "
         style="fill:#fd5;fill-opacity:1;fill-rule:evenodd;stroke:black;stroke-width:3;stroke-linecap:butt;stroke-linejoin:miter;stroke-miterlimit:4;stroke-dasharray:none;stroke-opacity:1;display:inline"
         id="path2173" />
      <path
         d="M 234.39394,472.42188 C 230.46465,455.07298 214.71694,457.42138 201.85426,454.96148 C 201.85426,454.96148 220.90187,448.71148 230.82251,448.61228 C 240.74314,448.51308 241.5368,454.56468 241.5368,454.56468 L 234.39394,472.42188 z "
         style="fill:#fd5;fill-opacity:1;fill-rule:evenodd;stroke:black;stroke-width:3;stroke-linecap:butt;stroke-linejoin:miter;stroke-miterlimit:4;stroke-dasharray:none;stroke-opacity:1;display:inline"
         id="path2175" />
      <path
         d="M 171.69553,169.24725 C 171.69553,169.24725 130.22728,186.50915 102.64791,192.26312 C 75.068546,198.01709 59.790766,190.27899 59.790766,190.27899 C 59.790766,190.27899 61.179656,181.74725 54.235206,182.73932 C 47.290766,183.73138 42.528856,188.49329 39.949496,193.4536 C 38.659806,195.93376 43.024886,197.42185 44.140966,199.87721 C 45.257036,202.33256 42.330446,204.96153 42.330446,204.96153 C 42.330446,204.96153 35.981246,196.82661 32.806636,201.78693 C 29.632026,206.74725 26.259006,212.89804 28.441546,219.64407 C 29.532816,223.01709 33.600286,219.34645 36.601276,220.78495 C 39.602266,222.22344 39.155846,227.58058 39.155846,227.58058 C 39.155846,227.58058 31.616156,224.90201 32.806636,230.35836 C 33.997116,235.81471 33.600286,241.46947 37.965366,245.0409 C 42.330446,248.61233 44.314576,240.67582 44.314576,240.67582 L 51.060606,246.23138 C 51.060606,246.23138 46.497116,250.19963 50.266956,253.37423 C 54.036796,256.54883 58.401876,258.92979 62.171716,258.92979 C 65.941556,258.92979 64.949486,251.3901 64.949486,251.3901 C 68.128916,247.56377 71.962416,245.04558 77.251076,245.43772 C 85.549896,248.53009 84.966546,254.28711 82.806636,260.51709 C 93.394776,260.79391 101.15019,255.40525 109.79076,251.78693 C 116.31495,252.77951 118.07834,255.5574 116.13997,259.72344 C 130.59924,264.34044 142.57964,257.80249 155.02886,253.37423 C 157.69415,255.5449 158.63187,258.7521 156.02092,264.08851 C 170.30664,242.92449 184.59235,234.72344 198.87806,239.48534 C 210.23708,256.40037 221.47748,267.12361 234.39394,279.3663 C 232.18436,301.94197 246.61018,321.89897 254.23521,336.50918 C 257.91627,343.56238 243.765,355.10348 243.1241,357.34248 C 238.78459,372.50258 241.92428,396.58588 242.98792,396.23138 C 246.36157,389.39578 251.8491,386.78808 258.20346,385.91388 C 257.60135,390.81948 254.14506,393.58438 258.99711,402.58058 C 265.48361,409.24788 272.44721,414.72248 280.42568,417.65998 C 271.07891,429.56518 264.95924,443.62998 256.61616,456.54878 C 254.43287,459.92958 252.25108,458.33458 248.67965,456.54878 C 245.10822,454.76308 245.27844,448.96928 242.33045,449.40598 C 235.18608,450.46428 225.76246,468.37368 229.31155,475.13158 C 231.93569,480.12818 234.49813,474.74058 236.16555,477.03928 C 237.83297,479.33808 238.20986,482.50478 235.98124,484.32658 C 233.75262,486.14838 230.42568,478.79098 227.25108,482.36238 C 224.07648,485.93388 224.53555,491.74388 225.52761,495.80638 C 226.51968,499.86878 230.23725,497.34968 230.23725,497.34968 L 231.82503,499.80568 C 230.34796,500.75258 229.38938,500.33708 230.00892,502.83508 C 230.94893,506.62508 239.17387,513.03048 242.59865,508.27648 C 243.91729,506.44598 244.32142,505.38558 244.37439,505.39478 L 251.31997,504.06578 C 252.94637,503.75458 250.97771,509.36968 252.03857,509.63958 C 256.79912,510.85028 267.97193,510.69868 270.94589,508.14028 C 275.01311,504.64138 269.06928,499.49018 275.81233,500.24778 C 275.81233,500.24778 277.55972,501.49938 278.94914,500.60018 C 304.14119,484.29578 321.54195,458.53228 323.28283,452.58058 C 325.0517,446.53318 322.29077,447.02498 325.46537,444.44568 C 328.63997,441.86628 335.98124,442.26308 335.98124,442.26308 C 335.98124,442.26308 349.57036,436.17278 337.56854,427.97738 C 327.88257,421.36338 318.48553,389.83718 321.69552,385.91388 C 320.94521,375.17968 314.64859,365.45398 308.20346,355.75518 C 306.33709,346.13348 309.31976,339.74448 313.75902,334.32658 C 316.29763,333.41268 352.88936,378.43018 365.34632,393.85038 C 381.18842,413.46108 402.64791,381.94568 402.64791,381.94568 C 402.64791,381.94568 416.93362,362.50118 415.94156,337.69958 C 414.94949,312.89804 398.67965,282.73931 398.67965,282.73931 C 395.12732,266.83396 405.14314,254.80522 416.13997,243.05677 C 405.64312,247.96174 394.70971,248.06469 385.18759,263.69169 C 385.18759,263.69169 382.60822,252.58058 384.79076,240.67582 C 386.9733,228.77106 399.07648,220.83455 399.07648,220.83455 C 384.86548,227.94577 372.93421,235.43694 371.2987,244.64407 C 366.87424,217.825 379.4486,194.2438 397.09235,171.6282 C 378.71918,183.46405 362.51005,197.03115 354.63203,217.26312 C 344.58327,169.34136 382.05263,146.64273 423.28283,109.72344 C 454.22733,82.014413 429.63203,57.342493 429.63203,57.342493 C 405.99081,50.446903 386.39136,58.391403 370.10822,67.263123 C 370.10822,67.263123 354.5115,50.994173 345.10822,66.469483 C 334.20278,84.416943 325.4809,93.516123 330.42568,114.08852 C 327.87553,110.68831 352.41813,93.610193 371.2987,93.453603 C 386.49845,93.327543 375.66378,75.199643 375.66378,75.199643 C 375.66378,75.199643 414.15584,58.731383 421.69552,66.072653 C 429.23521,73.413923 431.91841,82.494963 412.56854,100.59645 L 363.36219,146.6282 C 339.63057,168.82875 333.27103,192.42151 346.69552,230.35836 C 360.99846,270.77767 403.51535,302.33699 402.84632,329.16788 C 402.1773,355.99878 404.79373,357.63768 397.09236,369.64408 C 389.39099,381.65048 383.37277,394.04938 368.91775,376.19168 C 354.46273,358.33398 335.31667,328.55788 319.90981,306.74724 C 294.93969,271.39846 283.94751,259.57463 274.07648,231.15201 C 264.20545,202.72939 276.45743,207.73931 276.0606,191.07264 C 275.66378,174.40598 272.48918,164.48534 272.48918,164.48534 L 171.69553,169.24725 z "
         style="fill:#fd5;fill-opacity:1;fill-rule:evenodd;stroke:black;stroke-width:3;stroke-linecap:butt;stroke-linejoin:miter;stroke-miterlimit:4;stroke-dasharray:none;stroke-opacity:1;display:inline"
         id="path2177" />
      <path
         d="M 239.46855,93.230683 C 219.56032,96.070703 200.53839,102.60872 178.8594,101.08742 C 149.44301,99.023163 158.00588,84.955393 162.02352,80.323173 C 165.85217,75.908843 180.95148,90.669403 194.01169,95.475463 C 209.16489,101.05172 224.31809,93.985323 239.46855,93.230683 z "
         style="fill:#fd5;fill-opacity:1;fill-rule:evenodd;stroke:black;stroke-width:3;stroke-linecap:butt;stroke-linejoin:miter;stroke-miterlimit:4;stroke-dasharray:none;stroke-opacity:1;display:inline"
         id="path2179" />
      <path
         d="M 229.92823,80.323183 C 225.14682,75.240853 215.75393,74.983053 206.2177,76.254513 C 204.61986,74.074913 197.62913,69.993333 179.70119,70.782843 C 173.23978,62.588533 172.15491,49.654823 179.98179,44.687243 C 187.14233,40.142573 200.15806,42.244783 201.58783,41.320063 C 209.96428,35.902483 206.21769,28.693153 224.59686,25.606583 C 242.97602,22.520003 275.10449,28.973753 275.10449,28.973753 C 275.10449,28.973753 285.62691,23.922993 292.22096,23.361793 C 298.81501,22.800603 298.25381,22.800603 301.48069,26.728973 C 304.70757,30.657343 308.0046,32.411083 305.12847,39.075283 C 302.25234,45.739483 289.97618,53.385773 289.97618,53.385773 C 289.97618,53.385773 284.22392,70.432103 289.97618,82.287363 C 295.72844,94.142623 315.79119,102.49041 315.79119,102.49041 C 306.7139,102.96879 299.71335,104.63389 295.86873,108.10237 C 293.71748,109.78596 291.8573,113.0291 292.78216,115.67851 C 294.96726,121.93808 306.81205,132.51439 306.81205,132.51439 C 306.81205,132.51439 301.97173,130.26961 299.5165,136.16216 C 297.06127,142.05472 296.99113,156.08461 296.99113,156.08461 C 296.99113,156.08461 281.41739,156.28474 277.62987,166.74733 C 272.38556,181.23412 285.07244,203.09519 287.73139,199.2967 C 287.73139,199.2967 279.45375,202.45343 273.1403,200.13849 C 266.82685,197.82356 261.07459,190.03696 261.07459,190.03696 C 255.01299,191.13636 249.94299,194.0953 247.60589,198.1743 C 207.90585,185.13107 197.52927,201.41128 187.83853,218.37735 C 184.82932,221.42352 181.1202,222.71991 176.61461,222.02513 C 182.61614,214.42946 183.54051,205.56451 183.62956,196.49072 C 166.94916,197.54431 151.48454,211.62698 129.75476,208.55643 C 141.00325,200.97141 146.91186,191.25043 143.22346,177.69065 C 133.98025,172.02145 120.71845,171.17456 107.86812,169.83391 C 147.24994,161.45275 171.90991,151.46354 177.73701,136.16216 L 203.55202,133.91738 C 212.84986,128.35297 213.10528,123.61061 214.49533,118.76509 C 208.18494,112.07241 197.80013,117.64987 188.96093,115.11732 C 185.23475,114.04972 184.98361,109.2264 186.75321,107.90633 C 187.63801,107.2463 188.61168,104.84529 190.13062,104.52505 C 191.64957,104.20482 193.71379,105.96537 195.65733,105.77172 C 202.89981,105.05008 225.89279,104.61537 233.2954,103.3322 C 237.82533,95.036983 235.92243,86.694643 229.92823,80.323183 z "
         style="fill:#fd5;fill-opacity:1;fill-rule:evenodd;stroke:black;stroke-width:3;stroke-linecap:butt;stroke-linejoin:miter;stroke-miterlimit:4;stroke-dasharray:none;stroke-opacity:1;display:inline"
         id="path2181" />
      <path
         d="M 326.58729,100.4762 C 326.59025,102.44963 323.21375,104.05016 319.04761,104.05016 C 314.88147,104.05016 311.50497,102.44963 311.50793,100.4762 C 311.50497,98.502765 314.88147,96.902237 319.04761,96.902237 C 323.21375,96.902237 326.59025,98.502765 326.58729,100.4762 z "
         transform="translate(-83.06637,-57.02266)"
         style="fill:#fd5;fill-opacity:1;fill-rule:evenodd;stroke:black;stroke-width:3;stroke-linecap:butt;stroke-linejoin:miter;stroke-miterlimit:4;stroke-dasharray:none;stroke-opacity:1;display:inline"
         id="path2183" />
    </g>
  </g>
  <g
     inkscape:groupmode="layer"
     id="layer4"
     inkscape:label="Meubles"
     sodipodi:insensitive="true" />
  <g
     inkscape:groupmode="layer"
     id="layer2"
     inkscape:label="Reflet final"
     sodipodi:insensitive="true">
    <path
       sodipodi:nodetypes="cccccc"
       d="M 300.00001,658.5 C 300.00001,658.5 598.50001,546.17969 598.50001,260.72817 C 598.50001,-24.723334 598.50001,2.1764865 598.50001,2.1764865 L 1.5,2.1764865 L 1.5,260.72817 C 1.5,546.17969 300.00001,658.5 300.00001,658.5 z "
       style="opacity:1;fill:url(#radialGradient3163);fill-opacity:1;fill-rule:evenodd;stroke:none;stroke-width:1px;stroke-linecap:butt;stroke-linejoin:miter;stroke-opacity:1"
       id="path2875"
       inkscape:export-xdpi="144"
       inkscape:export-ydpi="144" />
  </g>
  <g
     inkscape:groupmode="layer"
     id="layer1"
     inkscape:label="Contour final"
     sodipodi:insensitive="true">
    <path
       sodipodi:nodetypes="cccccc"
       d="M 299.99999,658.50028 C 299.99999,658.50028 1.5,546.17992 1.5,260.72828 C 1.5,-24.723336 1.5,2.1764957 1.5,2.1764957 L 598.49999,2.1764957 L 598.49999,260.72828 C 598.49999,546.17992 299.99999,658.50028 299.99999,658.50028 z "
       style="opacity:1;fill:none;fill-opacity:1;fill-rule:evenodd;stroke:#000000;stroke-width:3.00000048;stroke-linecap:butt;stroke-linejoin:miter;stroke-miterlimit:4;stroke-dasharray:none;stroke-opacity:1"
       id="path1411"
       inkscape:export-xdpi="144"
       inkscape:export-ydpi="144" />
  </g>
</svg>
