<?xml version="1.0" encoding="UTF-8" standalone="no"?>
<svg
   xmlns:dc="http://purl.org/dc/elements/1.1/"
   xmlns:cc="http://creativecommons.org/ns#"
   xmlns:rdf="http://www.w3.org/1999/02/22-rdf-syntax-ns#"
   xmlns:svg="http://www.w3.org/2000/svg"
   xmlns="http://www.w3.org/2000/svg"
   xmlns:xlink="http://www.w3.org/1999/xlink"
   xmlns:sodipodi="http://sodipodi.sourceforge.net/DTD/sodipodi-0.dtd"
   xmlns:inkscape="http://www.inkscape.org/namespaces/inkscape"
   height="660"
   width="600"
   version="1.0"
   id="svg2"
   sodipodi:version="0.32"
   inkscape:version="0.46"
   sodipodi:docname="0prov1.svg"
   sodipodi:docbase="E:\DIVERS\Héraldique"
   inkscape:output_extension="org.inkscape.output.svg.inkscape">
  <metadata
     id="metadata49">
    <rdf:RDF>
      <cc:Work
         rdf:about="">
        <dc:format>image/svg+xml</dc:format>
        <dc:type
           rdf:resource="http://purl.org/dc/dcmitype/StillImage" />
        <dc:title>Gabarit d'un blason écartelé en accolade pour le projet Blasons de Wikipédia</dc:title>
        <dc:date>1 XII 2007</dc:date>
        <dc:creator>
          <cc:Agent>
            <dc:title>Zigeuner (http://fr.wikipedia.org/wiki/Utilisateur:Zigeuner)</dc:title>
          </cc:Agent>
        </dc:creator>
        <cc:license
           rdf:resource="http://creativecommons.org/licenses/by-sa/2.5/" />
        <dc:language>fr</dc:language>
        <dc:subject>
          <rdf:Bag>
            <rdf:li>gabarit modèle blason projet wikipédia</rdf:li>
          </rdf:Bag>
        </dc:subject>
        <dc:description>Ecartelé de gueules et d'or</dc:description>
      </cc:Work>
      <cc:License
         rdf:about="http://creativecommons.org/licenses/by-sa/2.5/">
        <cc:permits
           rdf:resource="http://web.resource.org/cc/Reproduction" />
        <cc:permits
           rdf:resource="http://web.resource.org/cc/Distribution" />
        <cc:requires
           rdf:resource="http://web.resource.org/cc/Notice" />
        <cc:requires
           rdf:resource="http://web.resource.org/cc/Attribution" />
        <cc:permits
           rdf:resource="http://web.resource.org/cc/DerivativeWorks" />
        <cc:requires
           rdf:resource="http://web.resource.org/cc/ShareAlike" />
      </cc:License>
    </rdf:RDF>
  </metadata>
  <sodipodi:namedview
     inkscape:window-height="813"
     inkscape:window-width="1152"
     inkscape:pageshadow="2"
     inkscape:pageopacity="0.0"
     guidetolerance="10.0"
     gridtolerance="10.0"
     objecttolerance="10.0"
     borderopacity="1.0"
     bordercolor="#666666"
     pagecolor="#ffffff"
     id="base"
     showgrid="false"
     height="660px"
     inkscape:zoom="0.94393939"
     inkscape:cx="50.578453"
     inkscape:cy="330"
     inkscape:window-x="1039"
     inkscape:window-y="117"
     inkscape:current-layer="layer2" />
  <desc
     id="desc4">Flag of Canton of Valais (Wallis)</desc>
  <defs
     id="defs6">
    <linearGradient
       id="linearGradient2893">
      <stop
         style="stop-color:white;stop-opacity:0.3137255;"
         offset="0"
         id="stop2895" />
      <stop
         id="stop2897"
         offset="0.19"
         style="stop-color:white;stop-opacity:0.25098041;" />
      <stop
         style="stop-color:#6b6b6b;stop-opacity:0.1254902;"
         offset="0.60000002"
         id="stop2901" />
      <stop
         style="stop-color:black;stop-opacity:0.1254902;"
         offset="1"
         id="stop2899" />
    </linearGradient>
    <radialGradient
       inkscape:collect="always"
       xlink:href="#linearGradient2893"
       id="radialGradient11919"
       gradientUnits="userSpaceOnUse"
       gradientTransform="matrix(1.551284,0,0,1.350335,-227.8943,-51.2635)"
       cx="285.18573"
       cy="200.44757"
       fx="285.18573"
       fy="200.44757"
       r="300" />
  </defs>
  <g
     inkscape:groupmode="layer"
     id="layer1"
     inkscape:label="Fond écu"
     sodipodi:insensitive="true">
    <path
       style="fill:#2b5df2;fill-opacity:1;fill-rule:nonzero;stroke:#000000;stroke-width:3;stroke-linecap:round;stroke-linejoin:round;stroke-miterlimit:4;stroke-dashoffset:0;stroke-opacity:1"
       d="M 1.5,294.90625 L 1.5,519 C 1.5,557.50399 32.709455,588.75 71.15625,588.75 C 109.60306,588.74997 191.89695,588.75 230.34375,588.75 C 265.27198,588.74997 294.21245,614.53363 299.21875,648.125 L 299.21875,294.90625 L 1.5,294.90625 z"
       id="path2014" />
    <path
       style="fill:#fcef3c;fill-opacity:1;fill-rule:nonzero;stroke:#000000;stroke-width:3;stroke-linecap:round;stroke-linejoin:round;stroke-miterlimit:4;stroke-dasharray:none;stroke-dashoffset:0;stroke-opacity:1"
       d="M 299.21875,294.90625 L 299.21875,648.125 C 299.72307,651.5089 300,654.97619 300,658.5 C 299.99999,619.99591 331.20946,588.75 369.65625,588.75 C 408.10304,588.74997 490.39697,588.75 528.84375,588.75 C 567.29057,588.74997 598.5,557.50397 598.5,519 L 598.5,294.90625 L 299.21875,294.90625 z"
       id="path2420" />
    <path
       style="fill:#fcef3c;fill-opacity:1;fill-rule:nonzero;stroke:#000000;stroke-width:3;stroke-linecap:round;stroke-linejoin:round;stroke-miterlimit:4;stroke-dashoffset:0;stroke-opacity:1"
       d="M 1.5,1.5 L 1.5,294.90625 L 299.21875,294.90625 L 299.21875,1.5 L 1.5,1.5 z"
       id="path2187" />
    <path
       style="fill:#ffffff;fill-rule:evenodd;stroke:#000000;stroke-width:3;stroke-linecap:butt;stroke-linejoin:miter;stroke-opacity:1"
       d="M 299.21875,1.5 L 299.21875,294.90625 L 598.5,294.90625 L 598.5,1.5 L 299.21875,1.5 z"
       id="path2195" />
  </g>
  <g
     inkscape:groupmode="layer"
     id="layer2"
     inkscape:label="Meubles">
    <path
       style="fill:#2b5df2;fill-opacity:1;fill-rule:nonzero;stroke:#000000;stroke-width:2;stroke-linecap:butt;stroke-linejoin:miter;marker:none;marker-start:none;marker-mid:none;marker-end:none;stroke-miterlimit:4;stroke-dasharray:none;stroke-dashoffset:0;stroke-opacity:1;visibility:visible;display:inline;overflow:visible"
       id="path6398"
       d="M 1.4967083,1.4967083 L 1.4967083,70.192733 L 80.05465,147.92329 L 1.4967083,225.62588 L 1.4967083,294.90929 L 71.561058,294.90929 L 150.08789,217.2067 L 228.61472,294.90929 L 298.67907,294.90929 L 298.67907,225.62588 L 220.12113,147.92329 L 298.67907,70.192733 L 298.67907,1.4967083 L 228.02359,1.4967083 L 150.08789,78.611911 L 72.152187,1.4967083 L 1.4967083,1.4967083 z" />
    <g
       style="stroke:#000000;stroke-width:3.14366007;stroke-miterlimit:4;stroke-dasharray:none;stroke-opacity:1;display:inline"
       id="g3260"
       transform="matrix(0.4276701,0,0,0.4752296,320.55834,-8.6226518)">
      <path
         style="fill:#000000;fill-opacity:1;fill-rule:evenodd;stroke:#313131;stroke-width:3.14366007;stroke-linecap:butt;stroke-linejoin:miter;stroke-miterlimit:4;stroke-dasharray:none;stroke-opacity:1;display:inline"
         id="path1738"
         d="M 132.77278,204.66981 C 122.32062,212.54949 106.67651,213.91056 100.48951,206.13724 C 100.48951,206.13724 110.99809,208.59725 115.75069,202.90893 C 122.20041,195.18933 122.43435,191.54204 123.38129,193.22394 L 132.77278,204.66981 z" />
      <path
         style="fill:#000000;fill-opacity:1;fill-rule:evenodd;stroke:#313131;stroke-width:3.14366007;stroke-linecap:butt;stroke-linejoin:miter;stroke-miterlimit:4;stroke-dasharray:none;stroke-opacity:1;display:inline"
         id="path1748"
         d="M 112.81585,171.50613 C 103.66338,164.35695 92.625874,165.17468 88.163188,176.78883 C 86.981106,176.34554 88.662522,162.24191 93.739385,157.1254 C 98.959717,151.86429 100.34277,150.00841 108.12011,149.7883 C 115.89743,149.56819 125.72915,154.19056 125.72915,154.19056 L 112.81585,171.50613 z" />
      <path
         style="fill:#000000;fill-opacity:1;fill-rule:evenodd;stroke:#313131;stroke-width:3.14366007;stroke-linecap:butt;stroke-linejoin:miter;stroke-miterlimit:4;stroke-dasharray:none;stroke-opacity:1;display:inline"
         id="path1750"
         d="M 128.664,139.22287 C 123.86433,126.09166 120.55051,112.34282 99.902555,114.5702 C 99.902555,114.5702 110.20828,108.06551 122.20734,109.87446 C 137.03429,112.10973 147.93965,130.11614 147.15349,130.41835 L 128.664,139.22287 z" />
      <path
         style="fill:#000000;fill-opacity:1;fill-rule:evenodd;stroke:#313131;stroke-width:3.14366007;stroke-linecap:butt;stroke-linejoin:miter;stroke-miterlimit:4;stroke-dasharray:none;stroke-opacity:1;display:inline"
         id="path1752"
         d="M 162.70815,131.2988 C 168.9624,125.32455 168.29601,112.42965 170.33874,102.24387 C 170.33874,102.24387 178.33619,109.21412 180.3172,118.97246 C 182.29822,128.73082 178.2628,141.27726 178.2628,141.27726 L 162.70815,131.2988 z" />
      <path
         style="fill:#000000;fill-opacity:1;fill-rule:evenodd;stroke:#313131;stroke-width:3.14366007;stroke-linecap:butt;stroke-linejoin:miter;stroke-miterlimit:4;stroke-dasharray:none;stroke-opacity:1;display:inline"
         id="path1727"
         d="M 209.37212,247.22502 L 199.10017,242.16242 C 202.82523,238.19473 198.5731,235.02477 194.69792,231.8171 C 192.39746,228.0053 188.18576,227.96827 183.54552,229.61598 C 182.87669,222.33521 177.59499,220.98528 171.51267,220.66471 C 170.15754,209.55986 164.60905,210.19644 159.47983,209.65906 C 157.41282,203.98815 153.6702,202.91761 150.23507,203.78937 C 149.10388,201.73961 146.01427,201.15867 138.64245,203.78937 C 138.64245,203.78937 133.94671,211.86018 128.664,209.65906 C 123.38129,207.45792 118.24531,201.14802 116.33766,196.74576 C 114.43001,192.34349 123.52802,193.22395 123.38128,187.94123 C 123.23454,182.65852 119.71272,178.84323 115.75069,175.6149 C 111.78866,172.38657 106.06571,175.90838 107.09291,168.2778 C 108.12011,160.64721 108.59701,153.67697 113.6963,149.64157 C 118.79558,145.60616 127.49006,152.13618 127.49006,152.13618 C 127.49006,152.13618 133.17631,151.10899 132.13077,147.7706 C 131.08523,144.43222 123.30791,138.78265 126.31612,134.82062 C 132.33254,126.89654 136.88154,123.15462 144.21865,123.08125 C 151.55575,123.00788 148.84103,134.45376 153.4634,135.40758 C 158.08577,136.36141 158.92954,124.91552 166.22996,127.77699 C 173.53038,130.63846 183.04538,136.35904 180.61067,144.2121 C 178.54214,150.88415 176.09369,148.5661 176.89788,150.9457 C 178.02147,154.27041 174.89455,151.33196 186.77384,162.26137 C 191.82112,166.90506 198.78377,173.51006 206.75083,179.76438 C 214.71789,186.01868 223.8606,194.58819 231.72735,200.88663 C 239.5941,207.18508 247.06534,209.74503 252.2764,213.95872 C 257.48747,218.17239 260.73184,220.81145 260.73184,220.81145 L 209.37212,247.22502 z" />
      <path
         style="fill:#000000;fill-opacity:1;fill-rule:evenodd;stroke:#313131;stroke-width:3.14366007;stroke-linecap:butt;stroke-linejoin:miter;stroke-miterlimit:4;stroke-dasharray:none;stroke-opacity:1;display:inline"
         id="path3420"
         d="M 151.85762,462.66537 C 152.99438,447.18569 137.14763,438.30475 121.76655,438.38497 C 121.76655,438.38497 140.13248,431.27729 150.61248,435.06458 C 161.09247,438.85187 164.93168,444.81824 164.93168,444.81824 L 151.85762,462.66537 z" />
      <path
         style="fill:#000000;fill-opacity:1;fill-rule:evenodd;stroke:#313131;stroke-width:3.14366007;stroke-linecap:butt;stroke-linejoin:miter;stroke-miterlimit:4;stroke-dasharray:none;stroke-opacity:1;display:inline"
         id="path1574"
         d="M 143.97168,485.9081 C 130.32275,473.97526 121.32508,486.01823 109.52261,491.30381 C 109.52261,491.30381 117.20102,473.09354 126.53962,467.43844 C 135.87823,461.78344 146.87703,468.68361 146.87703,468.68361 L 143.97168,485.9081 z" />
      <path
         style="fill:#000000;fill-opacity:1;fill-rule:evenodd;stroke:#313131;stroke-width:3.14366007;stroke-linecap:butt;stroke-linejoin:miter;stroke-miterlimit:4;stroke-dasharray:none;stroke-opacity:1;display:inline"
         id="path1624"
         d="M 154.34792,506.8681 C 148.83341,509.43637 144.11178,515.17608 141.89645,530.94098 C 141.89645,530.94098 139.61367,516.31049 141.06635,508.5283 C 142.51902,500.7461 147.70713,499.8123 147.70713,499.8123 L 154.34792,506.8681 z" />
      <path
         style="fill:#000000;fill-opacity:1;fill-rule:evenodd;stroke:#313131;stroke-width:3.14366007;stroke-linecap:butt;stroke-linejoin:miter;stroke-miterlimit:4;stroke-dasharray:none;stroke-opacity:1;display:inline"
         id="path1626"
         d="M 185.89166,509.35845 C 181.19603,514.14491 180.76629,520.75964 183.81641,528.86577 C 183.81641,528.86577 175.51543,518.1782 173.44019,512.67884 C 171.36494,507.17937 175.51542,506.8681 175.51542,506.8681 L 185.89166,509.35845 z" />
      <path
         style="fill:#000000;fill-opacity:1;fill-rule:evenodd;stroke:#313131;stroke-width:3.14366007;stroke-linecap:butt;stroke-linejoin:miter;stroke-miterlimit:4;stroke-dasharray:none;stroke-opacity:1;display:inline"
         id="path1760"
         d="M 268.22991,377.50972 C 262.12274,377.51112 256.2377,377.86613 251.03754,378.71907 C 223.3033,383.26808 214.65899,402.18699 214.65899,402.18699 C 214.65899,402.18699 233.57786,429.91731 224.03962,442.68386 C 214.50139,455.45041 188.3672,461.99836 178.24776,453.24115 L 170.63213,446.63876 C 166.90932,443.41709 168.42859,438.44169 162.5589,441.37645 C 156.68921,444.31131 151.26476,452.57678 150.07319,455.59448 C 146.75943,463.98686 158.30984,464.41946 158.30984,464.41946 L 154.77984,467.32844 C 154.44609,468.0793 150.72457,461.98487 147.16421,464.41946 C 141.5086,468.28676 139.53257,478.21096 139.67932,484.52082 C 139.82606,490.83078 147.75254,489.65238 147.75254,489.65238 L 149.51754,496.09135 C 149.51754,496.09135 144.35466,497.13079 144.94162,501.38634 C 145.52861,505.6419 152.17653,510.03404 155.36818,511.06114 C 158.55981,512.08834 160.20558,506.093 160.20558,506.093 L 172.98546,503.73967 C 172.98546,503.73966 169.74523,507.82939 174.8812,509.59031 C 180.01716,511.35122 184.01526,512.39772 188.67432,510.9304 C 193.33338,509.46296 190.01441,502.69374 190.01441,502.69374 C 223.96171,492.68824 260.59093,486.60916 303.88938,490.24071 C 290.8888,473.7284 287.58709,453.70847 288.62543,432.12656 C 305.59784,428.81012 315.43447,432.61601 324.41564,437.29081 C 328.74647,432.49444 335.58382,424.81398 332.81572,419.5101 C 327.45314,409.23494 318.88726,396.4195 314.54474,381.95489 C 303.1777,380.0509 284.85136,377.50591 268.22991,377.50972 z" />
      <path
         style="fill:#000000;fill-opacity:1;fill-rule:evenodd;stroke:#313131;stroke-width:3.14366007;stroke-linecap:butt;stroke-linejoin:miter;stroke-miterlimit:4;stroke-dasharray:none;stroke-opacity:1;display:inline"
         id="path1564"
         d="M 112.63548,270.91265 C 110.07464,264.18693 102.22155,258.27541 92.505582,252.65048 C 92.505582,252.65048 105.9428,254.10316 113.88062,256.80098 C 121.81844,259.4988 124.25685,263.44176 124.25685,263.44176 L 112.63548,270.91265 z" />
      <path
         style="fill:#000000;fill-opacity:1;fill-rule:evenodd;stroke:#313131;stroke-width:3.14366007;stroke-linecap:butt;stroke-linejoin:miter;stroke-miterlimit:4;stroke-dasharray:none;stroke-opacity:1;display:inline"
         id="path1566"
         d="M 101.42914,295.60807 C 90.742102,288.20919 82.699574,296.67738 74.035903,301.41877 C 74.035903,301.41877 81.517219,287.66872 89.19563,282.79189 C 96.87403,277.91507 104.74953,281.91145 104.74953,281.91145 L 101.42914,295.60807 z" />
      <path
         style="fill:#000000;fill-opacity:1;fill-rule:evenodd;stroke:#313131;stroke-width:3.14366007;stroke-linecap:butt;stroke-linejoin:miter;stroke-miterlimit:4;stroke-dasharray:none;stroke-opacity:1;display:inline"
         id="path1568"
         d="M 108.69251,320.71855 C 101.15907,320.79074 93.140845,322.61351 82.129357,335.24528 C 82.129357,335.24528 81.766191,325.12845 87.317475,318.22826 C 92.868758,311.32807 104.33449,307.6445 104.33449,307.6445 L 108.69251,320.71855 z" />
      <path
         style="fill:#000000;fill-opacity:1;fill-rule:evenodd;stroke:#313131;stroke-width:3.14366007;stroke-linecap:butt;stroke-linejoin:miter;stroke-miterlimit:4;stroke-dasharray:none;stroke-opacity:1;display:inline"
         id="path1570"
         d="M 120.72678,330.70491 C 120.13889,334.78622 115.59122,339.01428 108.83493,341.55481 C 108.83493,341.55481 120.83215,341.99611 125.70953,339.60329 C 130.5869,337.21046 129.44497,333.37755 129.44497,333.37755 L 120.72678,330.70491 z" />
      <path
         style="fill:#000000;fill-opacity:1;fill-rule:evenodd;stroke:#313131;stroke-width:3.14366007;stroke-linecap:butt;stroke-linejoin:miter;stroke-miterlimit:4;stroke-dasharray:none;stroke-opacity:1;display:inline"
         id="path1634"
         d="M 334.06422,596.93377 C 337.72559,599.28228 339.29481,603.0952 331.98898,613.1207 C 331.98898,613.1207 342.26145,608.24387 345.68561,603.98967 C 349.10976,599.73538 345.68561,596.10372 345.68561,596.10372 L 334.06422,596.93377 z" />
      <path
         style="fill:#000000;fill-opacity:1;fill-rule:evenodd;stroke:#313131;stroke-width:3.14366007;stroke-linecap:butt;stroke-linejoin:miter;stroke-miterlimit:4;stroke-dasharray:none;stroke-opacity:1;display:inline"
         id="path1632"
         d="M 309.16127,591.53816 C 308.69896,602.30584 298.54462,601.79418 287.16367,606.47992 C 287.16367,606.47992 302.62426,610.63046 309.99138,606.06489 C 317.3585,601.49933 320.78265,597.34879 320.78265,597.34879 L 309.16127,591.53816 z" />
      <path
         style="fill:#000000;fill-opacity:1;fill-rule:evenodd;stroke:#313131;stroke-width:3.14366007;stroke-linecap:butt;stroke-linejoin:miter;stroke-miterlimit:4;stroke-dasharray:none;stroke-opacity:1;display:inline"
         id="path1630"
         d="M 305.01078,586.14255 C 294.8312,574.66646 281.49888,585.25958 269.31654,587.80275 C 269.31654,587.80275 281.24921,575.35123 290.8991,572.44586 C 300.549,569.54049 307.91612,576.18138 307.91612,576.18138 L 305.01078,586.14255 z" />
      <path
         style="fill:#000000;fill-opacity:1;fill-rule:evenodd;stroke:#313131;stroke-width:3.14366007;stroke-linecap:butt;stroke-linejoin:miter;stroke-miterlimit:4;stroke-dasharray:none;stroke-opacity:1;display:inline"
         id="path1628"
         d="M 312.06662,561.65465 C 307.95688,543.50901 291.48597,545.96526 278.03259,543.39239 C 278.03259,543.39239 297.95494,536.85537 308.33117,536.75161 C 318.7074,536.64786 319.53751,542.97737 319.53751,542.97737 L 312.06662,561.65465 z" />
      <path
         style="fill:#000000;fill-opacity:1;fill-rule:evenodd;stroke:#313131;stroke-width:3.14366007;stroke-linecap:butt;stroke-linejoin:miter;stroke-miterlimit:4;stroke-dasharray:none;stroke-opacity:1;display:inline"
         id="path1756"
         d="M 246.48885,244.55702 C 246.48885,244.55702 203.11621,262.61166 174.27028,268.62987 C 145.42437,274.64809 129.44497,266.55463 129.44497,266.55463 C 129.44497,266.55463 130.89764,257.63107 123.63428,258.6687 C 116.37092,259.70632 111.39033,264.68692 108.69251,269.87503 C 107.34359,272.46909 111.90914,274.02551 113.07647,276.59363 C 114.24379,279.16174 111.1828,281.91145 111.1828,281.91145 C 111.1828,281.91145 104.54202,273.40294 101.22162,278.59106 C 97.901221,283.77917 94.373299,290.21243 96.65607,297.26827 C 97.797455,300.79619 102.05172,296.95698 105.19053,298.46154 C 108.32933,299.96609 107.86241,305.56925 107.86241,305.56925 C 107.86241,305.56925 99.976471,302.76767 101.22162,308.4746 C 102.46677,314.18153 102.05172,320.09598 106.61726,323.83142 C 111.1828,327.56687 113.25805,319.26588 113.25805,319.26588 L 120.31389,325.07657 C 120.31389,325.07657 115.54082,329.22706 119.48379,332.54745 C 123.42676,335.86784 127.9923,338.35814 131.93526,338.35814 C 135.87823,338.35814 134.8406,330.4722 134.8406,330.4722 C 138.16604,326.47015 142.17559,323.83632 147.70713,324.24647 C 156.38706,327.48085 155.77692,333.50225 153.51782,340.01834 C 164.59221,340.30787 172.70378,334.67174 181.74116,330.88726 C 188.56497,331.92542 190.40934,334.83088 188.38195,339.18824 C 203.50525,344.01727 216.03584,337.17907 229.05678,332.54745 C 231.84447,334.81781 232.82525,338.17229 230.09439,343.75377 C 245.03617,321.61782 259.97794,313.04014 274.91971,318.02073 C 286.80038,335.71256 298.55698,346.92826 312.06662,359.73318 C 309.75556,383.34562 324.84388,404.21912 332.81908,419.50029 C 336.66919,426.8774 321.86803,438.94852 321.1977,441.29034 C 316.6589,457.14665 319.94278,482.33595 321.05527,481.96517 C 324.58385,474.81566 330.32339,472.0882 336.96957,471.17385 C 336.3398,476.30474 332.72479,479.19661 337.79966,488.60595 C 344.58405,495.57944 351.86745,501.30546 360.21232,504.37786 C 350.43631,516.82979 344.0356,531.54051 335.30937,545.05259 C 333.02582,548.58865 330.74383,546.9204 327.00838,545.05259 C 323.27294,543.18488 323.45098,537.12501 320.3676,537.58176 C 312.89514,538.68866 303.03875,557.42054 306.75082,564.48879 C 309.49547,569.71485 312.17559,564.07983 313.91959,566.4841 C 315.66358,568.88847 316.05778,572.20059 313.72681,574.10606 C 311.39585,576.01152 307.91612,568.31624 304.59573,572.05165 C 301.27534,575.78717 301.75549,581.86399 302.79311,586.11306 C 303.83074,590.36202 307.71904,587.72723 307.71904,587.72723 L 309.37973,590.29602 C 307.83483,591.2864 306.83223,590.85182 307.48022,593.46454 C 308.4634,597.42859 317.06606,604.12816 320.64812,599.15583 C 322.02732,597.24127 322.45001,596.13217 322.50541,596.14179 L 329.76996,594.75176 C 331.47105,594.42627 329.41198,600.29924 330.52156,600.58153 C 335.50073,601.84783 347.18664,601.68927 350.29718,599.01338 C 354.55118,595.35379 348.33439,589.96603 355.38711,590.75842 C 355.38711,590.75842 357.21474,592.0675 358.66797,591.12701 C 385.01694,574.07384 403.21681,547.12718 405.03764,540.90215 C 406.88774,534.57703 404.00002,535.09142 407.32041,532.39367 C 410.6408,529.69581 418.31921,530.11083 418.31921,530.11083 C 418.31921,530.11083 432.5324,523.74084 419.97941,515.16908 C 409.84862,508.25134 400.02003,475.27733 403.37744,471.17385 C 402.59267,459.94669 396.00688,449.77435 389.26577,439.63014 C 387.31368,429.56658 390.43333,422.88417 395.07646,417.21746 C 397.73165,416.26159 436.00382,463.34647 449.03285,479.47483 C 465.60249,499.98613 488.04748,467.02342 488.04748,467.02342 C 488.04748,467.02342 502.98925,446.68595 501.95163,420.74536 C 500.914,394.80483 483.89698,363.26109 483.89698,363.26109 C 480.18152,346.62531 490.6573,334.04416 502.15915,321.75617 C 491.18024,326.8864 479.74473,326.99408 469.78532,343.33873 C 469.78532,343.33873 467.08749,331.71735 469.37026,319.26588 C 471.65303,306.81441 484.31204,298.51342 484.31204,298.51342 C 469.44841,305.95121 456.96921,313.78641 455.25859,323.41637 C 450.63094,295.36566 463.78277,270.70152 482.23679,247.04732 C 463.01985,259.42672 446.06633,273.61687 437.82652,294.77797 C 427.31628,244.65546 466.50639,220.91441 509.63004,182.29964 C 541.99564,153.31811 516.27082,127.51315 516.27082,127.51315 C 491.5439,120.30089 471.04437,128.61023 454.01344,137.88938 C 454.01344,137.88938 437.70046,120.87329 427.86534,137.05929 C 416.45908,155.83097 407.33665,165.34802 412.50852,186.86518 C 409.84126,183.30882 435.51095,165.44641 455.25859,165.28263 C 471.15637,165.15078 459.82413,146.19037 459.82413,146.19037 C 459.82413,146.19037 500.0839,128.96583 507.96984,136.64424 C 515.85578,144.32265 518.6622,153.82072 498.42371,172.7535 L 446.95761,220.89922 C 422.13613,244.1193 415.48454,268.79554 429.52554,308.4746 C 444.48532,350.75013 488.95476,383.75878 488.255,411.82185 C 487.55526,439.88493 490.29185,441.5991 482.2368,454.15688 C 474.18175,466.71466 467.88715,479.68297 452.7683,461.00517 C 437.64945,442.32737 417.62412,411.18384 401.50972,388.37156 C 375.39287,351.39943 363.89589,339.0326 353.57154,309.3047 C 343.24719,279.5768 356.06183,284.81679 355.64678,267.38472 C 355.23173,249.95266 351.91134,239.57643 351.91134,239.57643 L 246.48885,244.55702 z" />
      <path
         style="fill:#e20909;fill-opacity:1;fill-rule:evenodd;stroke:#313131;stroke-width:3.14366007;stroke-linecap:butt;stroke-linejoin:miter;stroke-miterlimit:4;stroke-dasharray:none;stroke-opacity:1;display:inline"
         id="path1401"
         d="M 317.37427,165.04947 C 296.55178,168.01991 276.65629,174.85819 253.98171,173.26702 C 223.2144,171.10796 232.17051,156.39414 236.37266,151.5492 C 240.37714,146.93214 256.16987,162.37056 269.82985,167.39734 C 285.67895,173.22968 301.52804,165.83877 317.37427,165.04947 z" />
      <path
         style="fill:#000000;fill-opacity:1;fill-rule:evenodd;stroke:#313131;stroke-width:3.14366007;stroke-linecap:butt;stroke-linejoin:miter;stroke-miterlimit:4;stroke-dasharray:none;stroke-opacity:1;display:inline"
         id="path1723"
         d="M 307.39582,151.54921 C 302.39483,146.23348 292.57058,145.96384 282.59641,147.29369 C 280.92519,145.01399 273.61342,140.74497 254.86216,141.57074 C 248.10401,133.00011 246.96932,119.47243 255.15564,114.27672 C 262.64502,109.52334 276.25849,111.7221 277.75392,110.75491 C 286.51505,105.08853 282.5964,97.548121 301.81962,94.319803 C 321.04282,91.091475 354.64676,97.841607 354.64676,97.841607 C 354.64676,97.841607 365.65241,92.558896 372.54929,91.971923 C 379.44616,91.384961 378.85919,91.384961 382.23426,95.493738 C 385.60933,99.602514 389.05777,101.43679 386.04956,108.40704 C 383.04135,115.37729 370.20142,123.37472 370.20142,123.37472 C 370.20142,123.37472 364.18499,141.20389 370.20142,153.60359 C 376.21784,166.00329 397.20195,174.73444 397.20195,174.73444 C 387.7078,175.23479 380.38576,176.97636 376.36458,180.60413 C 374.11453,182.36503 372.16892,185.75711 373.13626,188.52819 C 375.42171,195.07523 387.81046,206.13724 387.81046,206.13724 C 387.81046,206.13724 382.74785,203.78937 380.17987,209.95253 C 377.61188,216.1157 377.53852,230.7899 377.53852,230.7899 C 377.53852,230.7899 361.24957,230.99922 357.28811,241.9423 C 351.80296,257.09438 365.07248,279.9594 367.85354,275.98646 C 367.85354,275.98646 359.19575,279.28816 352.59237,276.86691 C 345.98898,274.44567 339.97255,266.30148 339.97255,266.30148 C 333.63258,267.45137 328.32974,270.5462 325.88531,274.81252 C 284.36209,261.17029 273.50897,278.19815 263.3732,295.94337 C 260.22579,299.12944 256.34633,300.48536 251.63383,299.75868 C 257.91097,291.81418 258.87779,282.54212 258.97093,273.05162 C 241.5245,274.1536 225.34969,288.883 202.62199,285.67144 C 214.38705,277.73808 220.56701,267.57068 216.70922,253.38818 C 207.04153,247.45863 193.17069,246.57284 179.73023,245.17063 C 220.92062,236.40457 246.71307,225.95661 252.80777,209.95253 L 279.80831,207.60467 C 289.53315,201.78472 289.8003,196.82457 291.25418,191.75652 C 284.654,184.75649 273.79227,190.59009 264.54714,187.94123 C 260.64984,186.8246 260.38717,181.77978 262.23803,180.39908 C 263.16347,179.70874 264.18185,177.19747 265.77055,176.86252 C 267.35925,176.52759 269.51827,178.36899 271.55107,178.16644 C 279.12615,177.41166 303.17506,176.95699 310.91763,175.61489 C 315.65559,166.93872 313.6653,158.21327 307.39582,151.54921 z" />
      <path
         style="fill:#ffffff;fill-opacity:1;fill-rule:evenodd;stroke:#313131;stroke-width:3.14366007;stroke-linecap:butt;stroke-linejoin:miter;stroke-miterlimit:4;stroke-dasharray:none;stroke-opacity:1;display:inline"
         id="path1387"
         d="M 321.61274,112.98636 C 321.61584,115.05042 318.08428,116.72445 313.72681,116.72445 C 309.36935,116.72445 305.83778,115.05042 305.84088,112.98636 C 305.83778,110.9223 309.36935,109.24827 313.72681,109.24827 C 318.08428,109.24827 321.61584,110.9223 321.61274,112.98636 z" />
      <path
         style="fill:#000000;fill-opacity:1;fill-rule:evenodd;stroke:#313131;stroke-width:3.14366007;stroke-linecap:butt;stroke-linejoin:miter;stroke-miterlimit:4;stroke-dasharray:none;stroke-opacity:1"
         id="path3914"
         d="M 301.92828,383.09887 C 298.43962,383.03735 295.92986,384.6642 293.03792,385.61563 C 303.61421,394.00344 314.14987,402.40062 314.31594,413.43067 C 306.04848,430.69837 314.52054,434.36474 325.69036,435.85266 C 329.94885,431.05064 335.32272,424.3137 332.81572,419.5101 C 328.95938,412.12103 323.46656,403.40313 319.05528,393.72154 C 317.17682,391.74057 315.03839,389.66175 312.51826,387.41331 C 307.95034,384.21743 304.64168,383.14672 301.92828,383.09887 z" />
      <path
         style="fill:#fcef3c;fill-opacity:1;fill-rule:evenodd;stroke:#313131;stroke-width:3.14366007;stroke-linecap:butt;stroke-linejoin:miter;stroke-miterlimit:4;stroke-dasharray:none;stroke-opacity:1;display:inline"
         id="path7534"
         d="M 282.73423,46.879337 L 293.4269,95.301213 C 324.5945,92.770911 354.90926,95.643705 383.5135,109.35299 L 412.72861,66.831071 L 388.87326,72.855736 C 389.77943,81.055666 389.08234,88.289436 384.38404,91.711739 C 380.42148,94.597985 368.35209,89.701074 366.89013,80.426427 C 362.29114,88.355414 355.13598,85.769976 351.14435,82.913818 C 347.93291,80.615885 347.44228,73.816203 350.62599,70.93947 L 357.87524,64.389297 L 347.63233,51.317587 L 333.12664,59.531853 L 338.47552,69.763942 C 340.57356,73.77735 336.85705,79.48047 333.97522,81.256486 C 330.96875,83.10938 322.46936,84.477519 318.93697,74.614385 C 315.44162,81.407498 302.7293,84.02066 299.21412,81.35559 C 294.74589,77.967905 301.30131,60.756345 301.30131,60.756345 L 282.73423,46.879337 z" />
    </g>
    <g
       transform="translate(87.538983,-91.176473)"
       id="g3440" />
    <path
       id="path8347"
       style="fill:#fcef3c;fill-opacity:1;stroke:#313131;stroke-width:0.57512659;stroke-miterlimit:4;stroke-dasharray:none;stroke-dashoffset:0;stroke-opacity:1"
       d="M 461.94075,92.703528 L 457.21664,105.54101 L 468.10728,113.89311 L 454.21828,113.44672 L 449.49726,126.20197 L 445.63751,113.08861 L 431.82913,112.6197 L 443.33267,104.96155 L 439.51962,91.916505 L 450.48896,100.29689 L 461.94075,92.703528 z" />
    <g
       id="g5999"
       style="fill:#fcef3c;stroke:#000000;stroke-width:2;stroke-miterlimit:4;stroke-dasharray:none;stroke-opacity:1">
      <path
         id="path5987"
         d="M 150.375,514.875 L 76.46875,588.75 C 89.311707,588.74999 107.87533,588.75 126,588.75 L 150.375,564.375 L 174.75,588.75 C 192.90258,588.75 211.29091,588.75 224.25,588.75 L 150.375,514.875 z"
         style="fill:#fcef3c;fill-opacity:1;fill-rule:nonzero;stroke:#000000;stroke-width:2;stroke-linecap:round;stroke-linejoin:round;stroke-miterlimit:4;stroke-dasharray:none;stroke-dashoffset:0;stroke-opacity:1" />
      <path
         id="path5992"
         d="M 150.375,415.875 L 11.40625,554.8125 C 17.494327,564.96971 26.098576,573.43373 36.34375,579.375 L 150.375,465.375 L 299.21875,614.21875 L 299.21875,564.71875 L 150.375,415.875 z"
         style="fill:#fcef3c;fill-opacity:1;fill-rule:nonzero;stroke:#000000;stroke-width:2;stroke-linecap:round;stroke-linejoin:round;stroke-miterlimit:4;stroke-dasharray:none;stroke-dashoffset:0;stroke-opacity:1" />
      <path
         id="path5994"
         d="M 150.375,316.875 L 1.5,465.71875 L 1.5,515.21875 L 150.375,366.375 L 299.21875,515.21875 L 299.21875,465.71875 L 150.375,316.875 z"
         style="fill:#fcef3c;fill-opacity:1;fill-rule:nonzero;stroke:#000000;stroke-width:2;stroke-linecap:round;stroke-linejoin:round;stroke-miterlimit:4;stroke-dasharray:none;stroke-dashoffset:0;stroke-opacity:1" />
    </g>
    <g
       id="g3241"
       transform="matrix(0.2947631,0.3069946,-0.2913659,0.3105739,837.27368,538.91177)"
       inkscape:transform-center-x="14.865499"
       inkscape:transform-center-y="-10.84363">
      <g
         transform="matrix(-0.4115602,-0.7765874,-0.7765874,0.4115602,159.26267,1314.9774)"
         id="g4470">
        <path
           d="M 1040.7819,561.68408 C 1039.681,559.85811 1035.5738,562.0532 1038.5828,558.07555 C 1030.6584,560.44132 1037.5353,553.2375 1036.777,552.20035 C 1031.4865,555.88197 1030.0744,554.65705 1034.962,551.23633 C 1029.8728,550.09457 1020.5541,545.84807 1021.0319,541.5003 C 1024.1414,538.0369 1010.8235,537.87513 1017.1384,533.18126 C 1013.9051,531.39508 1005.4615,528.86173 1010.7417,525.27726 C 1007.3473,520.90963 1001.7474,517.1841 1006.2079,512.4289 C 1005.4998,506.37377 1000.3265,500.35782 1000.3365,495.16567 C 1003.4052,500.05645 1006.2665,498.6604 1002.4982,493.88489 C 1002.0112,491.14434 1007.1937,492.11556 1002.9517,488.20539 C 1000.7393,483.79612 1005.5178,484.09675 1006.9614,485.49984 C 1006.5223,482.10138 1000.9921,474.52795 1007.7771,478.58843 C 1006.7393,475.59798 997.86901,476.84911 999.04815,471.15648 C 1002.8219,472.4889 1014.889,478.93132 1006.2047,471.41623 C 1002.2419,469.41998 1000.8034,464.98877 1006.1463,464.41382 C 1001.5781,462.06246 1001.4758,455.80255 1005.8247,457.40126 C 1002.8087,453.71573 1000.9696,448.23139 1004.5085,447.26164 C 1003.1478,443.93296 998.35562,433.84695 1005.5412,438.82429 C 1006.862,433.116 999.37606,420.41287 1006.9138,419.49945 C 1007.8232,423.41941 1017.1559,430.41438 1012.2824,422.04189 C 1009.4047,416.97646 1013.0348,418.15024 1015.4849,419.64808 C 1015.1255,416.09025 1011.9948,408.33479 1018.6322,412.48838 C 1017.5273,408.87243 1013.9627,403.53547 1019.8963,405.40448 C 1018.6852,401.63385 1017.3121,398.34485 1020.7209,396.56136 C 1020.2314,392.02806 1017.3469,375.61521 1025.1256,384.6499 C 1028.0316,384.32394 1032.5633,382.81421 1032.2401,378.10416 C 1039.47,384.44646 1031.6747,369.30675 1038.5319,374.0003 C 1043.9014,375.55651 1036.4922,352.00273 1045.3445,360.81865 C 1051.9878,368.69177 1049.2576,358.28599 1052.1177,356.0003 C 1055.7145,355.11393 1052.4383,347.5628 1058.5485,350.79338 C 1057.9159,345.46083 1065.7411,346.10365 1064.1775,339.15926 C 1063.298,330.9504 1068.2491,339.69368 1068.9795,337.71512 C 1069.528,334.6459 1076.2305,340.97179 1074.2217,334.5003 C 1072.8926,326.76609 1079.4083,336.98222 1078.8667,329.91932 C 1079.5111,326.82466 1078.4198,320.76396 1079.3974,318.99503 C 1082.0978,321.91723 1085.992,325.07623 1085.0732,318.5382 C 1088.8847,320.54255 1090.9635,319.7169 1089.5105,314.7185 C 1088.1919,307.07994 1094.6476,316.65465 1094.0319,310.0003 C 1093.2475,303.17847 1099.8102,313.0268 1098.7396,305.79244 C 1099.9517,301.35969 1103.506,284.73541 1105.6391,297.09415 C 1106.6717,302.63186 1106.7137,307.71164 1111.9333,303.58343 C 1112.7602,308.38432 1113.7705,315.87889 1119.893,310.46311 C 1118.1261,314.35031 1115.0746,322.64856 1121.7482,316.58552 C 1125.3394,312.30808 1124.509,316.27355 1123.9938,319.65153 C 1123.9077,324.09947 1119.1029,338.34791 1127.1174,329.4683 C 1132.5693,326.3442 1123.0252,342.69023 1131.6611,336.33325 C 1132.2466,339.75913 1127.6088,349.39516 1134.3485,343.25806 C 1140.043,340.81062 1129.4242,353.91665 1138.2115,348.88373 C 1141.9894,346.36757 1146.8486,341.46139 1143.3324,349.28296 C 1143.252,353.5165 1136.8907,365.34197 1145.3457,358.61336 C 1146.9697,362.1944 1139.2421,372.94434 1147.8891,366.22898 C 1154.4878,364.5325 1141.9986,379.65601 1152.04,373.41225 C 1156.7199,374.18775 1148.6016,381.64342 1155.6936,376.83245 C 1159.1234,373.33467 1162.598,372.15322 1159.5147,378.34252 C 1159.5373,382.99551 1153.0695,392.20453 1161.896,387.47337 C 1159.108,393.73041 1166.7181,394.60396 1161.4475,400.09259 C 1160.6896,403.53052 1169.7209,401.04954 1164.0319,406.0003 C 1157.2288,414.1115 1172.9802,402.27276 1167.0277,411.09908 C 1165.67,416.5665 1174.7635,405.34328 1170.8238,413.66214 C 1169.1599,416.95362 1165.5894,424.1878 1171.896,422.68537 C 1170.1248,426.46519 1167.0439,431.90871 1174.2397,429.30043 C 1175.7635,430.68619 1167.1486,438.79897 1175.2613,434.51816 C 1178.8374,433.989 1167.6014,444.62201 1176.6065,438.87959 C 1184.3031,435.35669 1167.2742,451.00568 1177.4709,445.4483 C 1184.7166,442.93206 1165.797,459.4527 1176.7685,457.34643 C 1172.891,462.65414 1174.3088,468.69415 1169.4844,473.2735 C 1167.258,475.79465 1178.3984,470.52767 1172.5677,476.68102 C 1171.4417,479.55375 1162.3201,486.57364 1170.3782,482.79413 C 1173.8852,479.75272 1178.7299,479.52661 1173.4866,484.1811 C 1167.5261,488.40118 1167.3228,495.83899 1163.5638,500.83221 C 1169.2939,504.62437 1155.624,510.04846 1163.9925,511.2279 C 1162.3896,512.80507 1157.0833,516.23789 1162.2819,514.40717 C 1169.0709,514.49959 1156.6801,520.99352 1157.061,524.9425 C 1156.362,528.77588 1147.8109,532.8917 1156.0772,532.13207 C 1156.9764,534.50764 1148.84,538.85503 1151.9075,542.25081 C 1149.7619,544.2464 1142.0558,546.91093 1147.3707,548.93868 C 1144.6996,552.37703 1134.2843,553.1432 1140.7934,555.96386 C 1137.926,558.64471 1124.7905,559.16911 1130.822,561.94961 C 1123.6874,566.01379 1116.6186,568.41913 1108.9716,571.471 C 1101.1329,575.09568 1092.4512,575.61295 1084.2903,578.20078 C 1074.832,581.11183 1077.1651,591.21098 1078.3237,598.75931 C 1078.933,604.96725 1081.1511,610.95277 1079.7669,617.18937 C 1078.6673,621.49067 1079.8567,625.69706 1082.7004,628.42258 C 1077.3511,630.58452 1066.2767,632.76029 1071.8379,624.47494 C 1076.605,616.87679 1072.5714,607.64412 1072.5316,599.36333 C 1071.6193,590.07294 1073.5303,577.6978 1063.7897,572.35248 C 1060.4934,568.57245 1051.4514,571.08867 1050.4345,568.1507 C 1057.8763,562.74831 1036.956,572.38982 1045.6472,564.56719 C 1045.189,562.23334 1031.3256,564.85322 1040.7819,561.68409 L 1040.7819,561.68408 z"
           id="path4472"
           style="fill:#5ab532;stroke:#000000;stroke-width:3.08072472;stroke-miterlimit:4;stroke-dasharray:none" />
        <g
           transform="translate(-350.186,-42.605805)"
           id="g4474">
          <path
             d="M 1425.3968,619.52411 C 1425.1269,606.8241 1423.8246,593.98409 1425.7675,581.42407 C 1428.6457,562.81696 1429.5826,543.91875 1433.6433,525.60273 C 1447.1606,464.63199 1455.6602,405.39998 1453.1746,341.74634"
             transform="translate(-0.2943536,-1.2525328e-6)"
             id="path4476"
             style="fill:none;fill-rule:evenodd;stroke:#000000;stroke-width:0.90255231px;stroke-linecap:butt;stroke-linejoin:miter;stroke-opacity:1" />
          <path
             d="M 1474.5421,357.23514 C 1471.3573,372.10555 1464.0712,385.8574 1452.6555,398.48303"
             transform="translate(-0.2943536,-1.2525328e-6)"
             id="path4478"
             style="fill:none;fill-rule:evenodd;stroke:#000000;stroke-width:0.90255231px;stroke-linecap:butt;stroke-linejoin:miter;stroke-opacity:1" />
          <path
             d="M 1430.2076,361.72471 C 1435.3278,377.55182 1442.7652,391.44791 1452.3749,403.5338"
             transform="translate(-0.2943536,-1.2525328e-6)"
             id="path4480"
             style="fill:none;fill-rule:evenodd;stroke:#000000;stroke-width:0.90255231px;stroke-linecap:butt;stroke-linejoin:miter;stroke-opacity:1" />
          <path
             d="M 1416.1777,378.56058 C 1410.0157,383.32518 1443.0872,449.14495 1447.3241,447.02648"
             transform="translate(-0.2943536,-1.2525328e-6)"
             id="path4482"
             style="fill:none;fill-rule:evenodd;stroke:#000000;stroke-width:0.90255231px;stroke-linecap:butt;stroke-linejoin:miter;stroke-opacity:1" />
          <path
             d="M 1493.6228,389.5039 C 1482.044,405.12385 1466.042,420.74381 1449.2883,436.36376"
             transform="translate(-0.2943536,-1.2525328e-6)"
             id="path4484"
             style="fill:none;fill-rule:evenodd;stroke:#000000;stroke-width:0.90255231px;stroke-linecap:butt;stroke-linejoin:miter;stroke-opacity:1" />
          <path
             d="M 1509.3363,418.12489 C 1491.7822,442.62876 1467.8506,457.56639 1444.5181,473.40268"
             transform="translate(-0.2943536,-1.2525328e-6)"
             id="path4486"
             style="fill:none;fill-rule:evenodd;stroke:#000000;stroke-width:0.90255231px;stroke-linecap:butt;stroke-linejoin:miter;stroke-opacity:1" />
          <path
             d="M 1392.6075,402.9726 C 1404.2092,433.17302 1415.1763,463.50706 1440.5898,490.79975"
             transform="translate(-0.2943536,-1.2525328e-6)"
             id="path4488"
             style="fill:none;fill-rule:evenodd;stroke:#000000;stroke-width:0.90255231px;stroke-linecap:butt;stroke-linejoin:miter;stroke-opacity:1" />
          <path
             d="M 1520.8408,454.04142 C 1520.8408,454.04142 1487.1626,486.33058 1468.8902,493.17525 C 1454.291,498.64399 1434.8702,517.62955 1435.539,518.29835"
             transform="translate(-0.2943536,-1.2525328e-6)"
             id="path4490"
             style="fill:none;fill-rule:evenodd;stroke:#000000;stroke-width:0.90255231px;stroke-linecap:butt;stroke-linejoin:miter;stroke-opacity:1" />
          <path
             d="M 1371.5627,424.01745 C 1380.5539,458.94945 1402.3391,492.9991 1433.0136,526.43569"
             transform="translate(-0.2943536,-1.2525328e-6)"
             id="path4492"
             style="fill:none;fill-rule:evenodd;stroke:#000000;stroke-width:0.90255231px;stroke-linecap:butt;stroke-linejoin:miter;stroke-opacity:1" />
          <path
             d="M 1528.6975,482.38182 C 1517.9096,500.91289 1501.853,515.45662 1482.0714,524.95273 C 1465.2349,533.03498 1446.799,540.56599 1429.6465,552.8119"
             transform="translate(-0.2943536,-1.2525328e-6)"
             id="path4494"
             style="fill:none;fill-rule:evenodd;stroke:#000000;stroke-width:0.90255231px;stroke-linecap:butt;stroke-linejoin:miter;stroke-opacity:1" />
          <path
             d="M 1354.4462,463.86235 C 1383.2283,525.13159 1405.7894,542.85385 1427.9629,557.86266"
             transform="translate(-0.2943536,-1.2525328e-6)"
             id="path4496"
             style="fill:none;fill-rule:evenodd;stroke:#000000;stroke-width:0.90255231px;stroke-linecap:butt;stroke-linejoin:miter;stroke-opacity:1" />
          <path
             d="M 1524.7691,524.19091 C 1509.6649,539.24943 1493.5107,552.42607 1474.4444,558.78542 C 1458.0872,564.24117 1442.139,572.55348 1425.9987,579.7493"
             transform="translate(-0.2943536,-1.2525328e-6)"
             id="path4498"
             style="fill:none;fill-rule:evenodd;stroke:#000000;stroke-width:0.90255231px;stroke-linecap:butt;stroke-linejoin:miter;stroke-opacity:1" />
          <path
             d="M 1351.079,514.36998 C 1372.1046,541.93514 1393.6859,569.01869 1425.7181,587.04484"
             transform="translate(-0.2943536,-1.2525328e-6)"
             id="path4500"
             style="fill:none;fill-rule:evenodd;stroke:#000000;stroke-width:0.90255231px;stroke-linecap:butt;stroke-linejoin:miter;stroke-opacity:1" />
          <path
             d="M 1351.079,538.2208 C 1368.463,561.91376 1383.6272,585.27038 1424.8763,612.57926"
             transform="translate(-0.2943536,-1.2525328e-6)"
             id="path4502"
             style="fill:none;fill-rule:evenodd;stroke:#000000;stroke-width:0.90255231px;stroke-linecap:butt;stroke-linejoin:miter;stroke-opacity:1" />
          <path
             d="M 1513.8258,557.86266 C 1490.7182,579.86933 1457.0692,592.21312 1425.4375,606.4061"
             transform="translate(-0.2943536,-1.2525328e-6)"
             id="path4504"
             style="fill:none;fill-rule:evenodd;stroke:#000000;stroke-width:0.90255231px;stroke-linecap:butt;stroke-linejoin:miter;stroke-opacity:1" />
        </g>
      </g>
      <g
         transform="matrix(0.5450376,-0.3334826,0.3334826,0.5450376,-1609.4657,371.32378)"
         id="g4640"
         style="fill:#5ab532">
        <g
           id="g4642"
           style="fill:#5ab532">
          <path
             d="M 1040.7819,561.68408 C 1040.4582,559.7437 1034.9044,562.30993 1038.7368,558.51249 C 1036.9075,557.67654 1031.6096,558.84906 1035.6311,554.86191 C 1042.4402,547.87585 1026.7681,558.60711 1033.0357,552.84404 C 1037.6905,550.16514 1029.6484,551.21317 1028.3855,548.90636 C 1025.9739,545.61656 1016.6848,544.60235 1021.9616,539.86388 C 1018.8503,538.99092 1012.9046,536.46163 1017.1384,533.18126 C 1013.9057,531.44374 1005.5529,528.82643 1010.7417,525.27726 C 1009.0708,521.4114 1000.4377,517.52846 1006.4013,513.63504 C 1004.731,507.5969 1003.0441,501.65147 999.69053,496.32241 C 999.93757,493.01041 1006.6909,502.73479 1003.5926,496.11761 C 1001.9694,493.95129 1001.4537,491.4178 1004.7613,491.61967 C 1000.5557,486.91941 1004.0068,483.28009 1006.8451,484.89377 C 1006.3495,482.20462 1001.2594,474.29126 1007.3863,478.7592 C 1007.9773,475.3237 997.53076,477.10942 999.04815,471.15648 C 1001.8315,471.0556 1010.1806,477.81094 1009.0013,474.08928 C 1006.3048,471.5023 998.28525,465.96899 1005.8529,464.52236 C 1004.6281,463.32473 998.78033,456.5438 1004.788,457.48776 C 1007.8259,458.16132 1001.5561,452.47387 1002.2284,450.59556 C 1001.0087,446.78239 1007.3559,449.95565 1003.7569,445.42748 C 1002.3209,442.10149 999.13715,433.97808 1005.5412,438.82429 C 1005.807,432.50935 1002.7358,426.12329 1004.0057,419.91709 C 1008.1145,416.79743 1009.9399,427.5873 1013.8384,426.05047 C 1012.4253,423.16485 1008.9804,414.29436 1014.9336,419.99067 C 1016.1108,417.21247 1011.428,408.04327 1018.6322,412.48838 C 1017.625,408.99801 1013.9255,403.48763 1019.8963,405.40448 C 1018.9444,401.74554 1017.1736,398.289 1020.7209,396.56136 C 1020.6773,392.26416 1017.9644,383.16468 1021.5615,381.73442 C 1024.1247,383.90576 1026.2001,386.48413 1028.4403,383.18663 C 1033.2846,385.26049 1029.7984,374.45616 1034.9097,379.2503 C 1037.3611,380.28668 1032.7437,369.33826 1038.5319,374.0003 C 1042.1112,375.35971 1039.9383,365.50774 1040.7849,362.41183 C 1039.5946,351.02576 1050.7217,370.24087 1050.747,360.87689 C 1048.2772,355.54644 1055.6601,356.58533 1054.1051,351.37035 C 1056.0947,349.61875 1060.5068,352.16401 1059.0547,347.00389 C 1065.8669,347.90862 1062.3071,336.57313 1065.9547,335.52938 C 1068.1252,338.74842 1068.5047,339.01853 1069.9982,336.52306 C 1075.7092,340.90776 1073.4346,333.63869 1075.0879,330.92521 C 1079.641,336.38239 1079.065,326.95119 1079.0319,323.56928 C 1079.3609,322.06374 1078.0554,316.78017 1080.4025,319.93931 C 1082.3098,322.25117 1086.1699,324.59045 1084.4623,319.55861 C 1085.6226,315.63065 1090.7252,323.26934 1089.825,317.39965 C 1088.679,313.83944 1089.8326,309.1684 1093.2371,312.84531 C 1094.1072,309.75648 1094.132,304.57283 1098.0925,308.9503 C 1099.612,303.7965 1100.6443,294.59232 1104.0315,292.05264 C 1106.6866,295.25286 1105.252,305.54355 1108.8434,305.2013 C 1115.1798,297.9429 1110.5211,317.31757 1117.9171,311.36816 C 1123.7172,307.41015 1112.4496,322.74336 1119.8709,318.00739 C 1121.8038,317.11024 1125.743,311.77905 1124.3201,316.78663 C 1123.9105,322.08679 1122.6278,327.35545 1122.3239,332.59619 C 1125.1254,332.96462 1130.6143,324.11288 1128.7198,332.06759 C 1126.8633,335.5381 1127.0894,339.84851 1131.2919,336.18551 C 1133.8709,338.19978 1126.7279,348.75055 1133.2453,344.04706 C 1140.9762,338.57422 1129.8334,352.29067 1136.9426,349.41726 C 1139.9009,349.19147 1146.8831,340.05063 1143.7966,347.73248 C 1142.7789,352.02397 1141.4275,357.07117 1140.8217,360.92736 C 1143.7357,359.0587 1147.7289,357.26905 1145.193,362.51276 C 1144.0051,365.67362 1141.5761,371.08346 1146.5319,367.0003 C 1154.6764,361.81838 1144.7644,375.81646 1149.1951,374.42921 C 1152.9026,371.42461 1155.5755,375.55951 1152.0319,378.31531 C 1155.1654,378.92553 1163.2936,368.84401 1159.7598,377.04809 C 1161.1133,380.66289 1154.827,387.45148 1158.0716,388.85383 C 1163.7827,384.56255 1160.8601,390.80211 1161.7547,393.84152 C 1167.9869,393.9103 1156.3396,403.51695 1164.5188,402.03682 C 1168.9199,402.87787 1157.5364,412.56711 1165.1705,408.18714 C 1172.1414,402.98486 1163.1406,417.19545 1169.508,411.38125 C 1175.6805,408.3686 1164.9428,420.94845 1169.1671,422.67539 C 1176.4953,420.25238 1163.7403,433.22105 1173.2969,429.29561 C 1178.2086,428.79266 1166.8648,437.97102 1173.9909,435.00759 C 1181.3519,431.58713 1167.4534,443.64404 1175.6132,439.65996 C 1179.5995,435.68515 1179.7312,440.10237 1176.4766,442.1931 C 1173.4603,444.2614 1173.1588,449.0701 1177.4709,445.4483 C 1183.7619,443.1827 1173.5172,451.84198 1173.6871,454.93335 C 1170.3996,459.77436 1180.277,454.63737 1175.6433,459.78239 C 1172.3299,463.85054 1174.3851,468.73088 1170.2447,472.27673 C 1166.6795,475.91033 1172.0741,472.65227 1174.0319,473.61321 C 1173.5874,477.68388 1167.2425,481.7263 1167.076,484.00096 C 1169.794,483.59328 1179.2786,476.89598 1174.2893,483.27922 C 1169.1265,486.98727 1167.8238,492.54656 1165.3936,497.5476 C 1159.7173,500.46215 1169.8013,503.32476 1163.2819,506.0472 C 1159.2024,508.37584 1160.3761,510.59439 1164.3741,510.90256 C 1163.134,512.12478 1160.0479,514.272 1159.8987,514.94764 C 1162.7391,513.55882 1167.5909,514.6256 1162.536,517.40564 C 1158.7107,521.08848 1154.5148,529.2402 1152.66,531.80279 C 1162.7077,531.35899 1149.0731,536.77244 1151.6188,540.9154 C 1154.1007,543.74982 1140.4712,546.33268 1147.3707,548.93868 C 1144.7301,552.4582 1134.0769,553.11543 1140.7934,555.96386 C 1138.2146,558.26091 1128.3012,559.01485 1129.2819,560.93262 C 1133.3664,563.12697 1121.0421,564.83355 1119.5685,567.88895 C 1113.1359,568.65618 1107.5067,572.56436 1101.3535,574.07865 C 1094.3934,576.86096 1086.0607,575.61998 1080.0638,580.84261 C 1074.3327,585.37152 1078.5971,593.87015 1078.4893,600.01254 C 1078.7793,605.14706 1081.0575,610.05541 1079.9614,615.19304 C 1079.893,619.18653 1077.6619,624.50391 1082.1419,626.89375 C 1083.5454,630.54317 1072.2894,629.90861 1070.8019,630.32925 C 1068.8843,625.57833 1074.4008,622.75808 1074.1223,618.0003 C 1073.7076,607.25821 1071.9014,596.60525 1071.7506,585.84287 C 1071.2737,579.00916 1066.9486,572.51671 1060.1357,570.69341 C 1057.4208,568.18425 1045.6583,571.47531 1052.5909,566.42722 C 1050.6114,565.87606 1039.079,570.76141 1045.6472,564.56719 C 1046.1349,561.66299 1032.6592,565.6671 1039.3259,561.98836 L 1040.7819,561.68409 L 1040.7819,561.68408 z"
             id="path4644"
             style="fill:#5ab532;stroke:#000000;stroke-width:4.23756504;stroke-miterlimit:4;stroke-dasharray:none" />
          <g
             transform="translate(-350.186,-42.605805)"
             id="g4646"
             style="fill:#5ab532">
            <path
               d="M 1425.3968,619.52411 C 1425.1269,606.8241 1423.8246,593.98409 1425.7675,581.42407 C 1428.6457,562.81696 1429.5826,543.91875 1433.6433,525.60273 C 1447.1606,464.63199 1455.6602,405.39998 1453.1746,341.74634"
               transform="translate(-0.2943536,-1.2525328e-6)"
               id="path4648"
               style="fill:#5ab532;fill-rule:evenodd;stroke:#000000;stroke-width:0.90255231px;stroke-linecap:butt;stroke-linejoin:miter;stroke-opacity:1" />
            <path
               d="M 1474.5421,357.23514 C 1471.3573,372.10555 1464.0712,385.8574 1452.6555,398.48303"
               transform="translate(-0.2943536,-1.2525328e-6)"
               id="path4650"
               style="fill:#5ab532;fill-rule:evenodd;stroke:#000000;stroke-width:0.90255231px;stroke-linecap:butt;stroke-linejoin:miter;stroke-opacity:1" />
            <path
               d="M 1430.2076,361.72471 C 1435.3278,377.55182 1442.7652,391.44791 1452.3749,403.5338"
               transform="translate(-0.2943536,-1.2525328e-6)"
               id="path4652"
               style="fill:#5ab532;fill-rule:evenodd;stroke:#000000;stroke-width:0.90255231px;stroke-linecap:butt;stroke-linejoin:miter;stroke-opacity:1" />
            <path
               d="M 1416.1777,378.56058 C 1410.0157,383.32518 1443.0872,449.14495 1447.3241,447.02648"
               transform="translate(-0.2943536,-1.2525328e-6)"
               id="path4654"
               style="fill:#5ab532;fill-rule:evenodd;stroke:#000000;stroke-width:0.90255231px;stroke-linecap:butt;stroke-linejoin:miter;stroke-opacity:1" />
            <path
               d="M 1493.6228,389.5039 C 1482.044,405.12385 1466.042,420.74381 1449.2883,436.36376"
               transform="translate(-0.2943536,-1.2525328e-6)"
               id="path4656"
               style="fill:#5ab532;fill-rule:evenodd;stroke:#000000;stroke-width:0.90255231px;stroke-linecap:butt;stroke-linejoin:miter;stroke-opacity:1" />
            <path
               d="M 1509.3363,418.12489 C 1491.7822,442.62876 1467.8506,457.56639 1444.5181,473.40268"
               transform="translate(-0.2943536,-1.2525328e-6)"
               id="path4658"
               style="fill:#5ab532;fill-rule:evenodd;stroke:#000000;stroke-width:0.90255231px;stroke-linecap:butt;stroke-linejoin:miter;stroke-opacity:1" />
            <path
               d="M 1392.6075,402.9726 C 1404.2092,433.17302 1415.1763,463.50706 1440.5898,490.79975"
               transform="translate(-0.2943536,-1.2525328e-6)"
               id="path4660"
               style="fill:#5ab532;fill-rule:evenodd;stroke:#000000;stroke-width:0.90255231px;stroke-linecap:butt;stroke-linejoin:miter;stroke-opacity:1" />
            <path
               d="M 1520.8408,454.04142 C 1520.8408,454.04142 1487.1626,486.33058 1468.8902,493.17525 C 1454.291,498.64399 1434.8702,517.62955 1435.539,518.29835"
               transform="translate(-0.2943536,-1.2525328e-6)"
               id="path4662"
               style="fill:#5ab532;fill-rule:evenodd;stroke:#000000;stroke-width:0.90255231px;stroke-linecap:butt;stroke-linejoin:miter;stroke-opacity:1" />
            <path
               d="M 1371.5627,424.01745 C 1380.5539,458.94945 1402.3391,492.9991 1433.0136,526.43569"
               transform="translate(-0.2943536,-1.2525328e-6)"
               id="path4664"
               style="fill:#5ab532;fill-rule:evenodd;stroke:#000000;stroke-width:0.90255231px;stroke-linecap:butt;stroke-linejoin:miter;stroke-opacity:1" />
            <path
               d="M 1528.6975,482.38182 C 1517.9096,500.91289 1501.853,515.45662 1482.0714,524.95273 C 1465.2349,533.03498 1446.799,540.56599 1429.6465,552.8119"
               transform="translate(-0.2943536,-1.2525328e-6)"
               id="path4666"
               style="fill:#5ab532;fill-rule:evenodd;stroke:#000000;stroke-width:0.90255231px;stroke-linecap:butt;stroke-linejoin:miter;stroke-opacity:1" />
            <path
               d="M 1354.4462,463.86235 C 1383.2283,525.13159 1405.7894,542.85385 1427.9629,557.86266"
               transform="translate(-0.2943536,-1.2525328e-6)"
               id="path4668"
               style="fill:#5ab532;fill-rule:evenodd;stroke:#000000;stroke-width:0.90255231px;stroke-linecap:butt;stroke-linejoin:miter;stroke-opacity:1" />
            <path
               d="M 1524.7691,524.19091 C 1509.6649,539.24943 1493.5107,552.42607 1474.4444,558.78542 C 1458.0872,564.24117 1442.139,572.55348 1425.9987,579.7493"
               transform="translate(-0.2943536,-1.2525328e-6)"
               id="path4670"
               style="fill:#5ab532;fill-rule:evenodd;stroke:#000000;stroke-width:0.90255231px;stroke-linecap:butt;stroke-linejoin:miter;stroke-opacity:1" />
            <path
               d="M 1351.079,514.36998 C 1372.1046,541.93514 1393.6859,569.01869 1425.7181,587.04484"
               transform="translate(-0.2943536,-1.2525328e-6)"
               id="path4672"
               style="fill:#5ab532;fill-rule:evenodd;stroke:#000000;stroke-width:0.90255231px;stroke-linecap:butt;stroke-linejoin:miter;stroke-opacity:1" />
            <path
               d="M 1351.079,538.2208 C 1368.463,561.91376 1383.6272,585.27038 1424.8763,612.57926"
               transform="translate(-0.2943536,-1.2525328e-6)"
               id="path4674"
               style="fill:#5ab532;fill-rule:evenodd;stroke:#000000;stroke-width:0.90255231px;stroke-linecap:butt;stroke-linejoin:miter;stroke-opacity:1" />
            <path
               d="M 1513.8258,557.86266 C 1490.7182,579.86933 1457.0692,592.21312 1425.4375,606.4061"
               transform="translate(-0.2943536,-1.2525328e-6)"
               id="path4676"
               style="fill:#5ab532;fill-rule:evenodd;stroke:#000000;stroke-width:0.90255231px;stroke-linecap:butt;stroke-linejoin:miter;stroke-opacity:1" />
          </g>
        </g>
      </g>
      <g
         transform="matrix(-0.60793,-0.634737,-0.634737,0.60793,257.45232,790.32801)"
         id="g3641">
        <g
           id="g3611">
          <path
             d="M 1040.7819,561.68408 C 1039.681,559.85811 1035.5738,562.0532 1038.5828,558.07555 C 1030.6584,560.44132 1037.5353,553.2375 1036.777,552.20035 C 1032.1629,555.49914 1029.5451,555.03315 1034.623,551.5193 C 1031.4653,549.93006 1019.9238,546.14083 1021.0319,541.5003 C 1024.1414,538.0369 1010.8235,537.87513 1017.1384,533.18126 C 1013.7788,531.39623 1005.5802,528.82698 1010.7417,525.27726 C 1007.4626,520.93977 1001.7133,517.17521 1006.2079,512.4289 C 1005.4998,506.37377 1000.3265,500.35782 1000.3365,495.16567 C 1002.1517,498.83274 1006.9708,499.85072 1002.9536,494.85902 C 1000.3138,491.06418 1007.9046,492.5174 1002.9517,488.20539 C 1000.7393,483.79612 1005.5178,484.09675 1006.9614,485.49984 C 1006.4484,481.9806 1001.0738,474.63634 1007.7771,478.58843 C 1006.7393,475.59798 997.86901,476.84911 999.04815,471.15648 C 1002.0001,471.73302 1014.3842,479.18904 1007.0325,472.14418 C 1000.5244,469.34639 1003.626,465.31959 1005.4216,463.75795 C 1000.6972,461.22142 1002.2694,455.89459 1005.8314,457.41212 C 1002.6703,453.63387 1001.1677,448.33138 1004.5085,447.26164 C 1002.0197,442.18703 999.64781,435.39775 1005.6063,437.99756 C 1006.1819,432.93447 999.83841,418.69017 1007.0319,419.9916 C 1008.4359,423.76743 1016.9939,430.18422 1012.2824,422.04189 C 1009.4047,416.97646 1013.0348,418.15024 1015.4849,419.64808 C 1015.1255,416.09025 1011.9948,408.33479 1018.6322,412.48838 C 1017.5273,408.87243 1013.9627,403.53547 1019.8963,405.40448 C 1018.6852,401.63385 1017.3121,398.34485 1020.7209,396.56136 C 1020.2314,392.02806 1017.3469,375.61521 1025.1256,384.6499 C 1027.5733,384.17107 1032.8632,383.27522 1031.8132,378.42554 C 1035.584,379.37873 1036.7632,380.30978 1035.2235,374.89083 C 1035.3673,369.64536 1041.7632,378.7362 1040.4634,371.59158 C 1040.9653,367.04156 1038.9735,352.71487 1046.153,361.58375 C 1052.7512,368.56684 1048.7501,357.26709 1052.1177,356.0003 C 1055.7145,355.11393 1052.4383,347.5628 1058.5485,350.79338 C 1057.9159,345.46083 1065.7411,346.10365 1064.1775,339.15926 C 1063.298,330.9504 1068.2491,339.69368 1068.9795,337.71512 C 1069.528,334.6459 1076.2305,340.97179 1074.2217,334.5003 C 1072.8926,326.76609 1079.4083,336.98222 1078.8667,329.91932 C 1079.491,326.7832 1078.4478,320.83684 1079.3881,318.9863 C 1082.0953,321.91379 1085.9898,325.08284 1085.0732,318.5382 C 1088.8847,320.54255 1090.9635,319.7169 1089.5105,314.7185 C 1088.2169,306.89315 1094.6407,317.0219 1094.0319,310.0003 C 1093.3527,303.37803 1099.6406,312.70417 1098.7396,305.79244 C 1099.9517,301.35969 1103.506,284.73541 1105.6391,297.09415 C 1106.6717,302.63186 1106.7137,307.71164 1111.9333,303.58343 C 1112.8582,307.9805 1113.5695,316.22613 1119.7277,310.31691 C 1118.6715,314.02009 1114.4868,322.9825 1121.7482,316.58552 C 1125.2481,312.44172 1124.5605,316.10441 1124.0097,319.51212 C 1123.959,323.96196 1119.0539,338.37435 1127.1174,329.4683 C 1132.6785,325.66552 1123.301,342.53797 1130.7819,336.27071 C 1133.9402,337.84517 1126.6719,350.07337 1134.3485,343.25806 C 1140.043,340.81062 1129.4242,353.91665 1138.2115,348.88373 C 1141.9894,346.36757 1146.8486,341.46139 1143.3324,349.28296 C 1143.252,353.5165 1136.8907,365.34197 1145.3457,358.61336 C 1146.9697,362.1944 1139.2421,372.94434 1147.8891,366.22898 C 1154.1777,364.79993 1142.488,379.26047 1152.04,373.41225 C 1156.7199,374.18775 1148.6016,381.64342 1155.6936,376.83245 C 1160.6963,371.75053 1161.3012,374.02109 1159.3669,379.68167 C 1156.8529,386.38112 1155.8049,389.91212 1161.9454,388.41797 C 1159.439,394.08883 1166.699,394.82631 1161.4475,400.09259 C 1160.6896,403.53052 1169.7209,401.04954 1164.0319,406.0003 C 1157.2875,414.12487 1171.5108,402.81326 1167.5319,410.0003 C 1163.8616,417.60536 1175.049,405.22116 1170.8238,413.66214 C 1169.1599,416.95362 1165.5894,424.1878 1171.896,422.68537 C 1168.6866,428.05138 1168.7574,430.65653 1175.0319,429.92084 C 1172.6855,431.69366 1168.9585,438.64066 1175.2613,434.51816 C 1178.8374,433.989 1167.6014,444.62201 1176.6065,438.87959 C 1184.282,435.32545 1167.2542,450.9756 1177.4709,445.4483 C 1184.9092,442.6996 1165.7224,459.5558 1176.6973,457.07504 C 1173.1491,462.13541 1174.4548,467.98658 1170.1313,472.42533 C 1165.3655,476.82637 1178.6832,469.96563 1172.5677,476.68102 C 1171.4417,479.55375 1162.3201,486.57364 1170.3782,482.79413 C 1173.8852,479.75272 1178.7299,479.52661 1173.4866,484.1811 C 1167.5261,488.40118 1167.3228,495.83899 1163.5638,500.83221 C 1169.3118,504.61593 1155.603,510.0505 1164.0022,511.21962 C 1162.3776,512.80879 1157.121,516.21787 1162.2819,514.40717 C 1168.4471,514.94144 1154.9274,523.43327 1155.0941,528.31537 C 1150.3161,532.21793 1152.7398,531.55259 1157.0319,532.56486 C 1154.1476,535.34362 1149.8662,539.03861 1151.9075,542.25081 C 1149.7619,544.2464 1142.0558,546.91093 1147.3707,548.93868 C 1144.6133,552.38502 1134.3371,553.13818 1140.7934,555.96386 C 1137.926,558.64471 1124.7905,559.16911 1130.822,561.94961 C 1123.6874,566.01379 1116.6186,568.41913 1108.9716,571.471 C 1101.4602,574.74567 1093.4376,575.9348 1085.4344,577.65462 C 1076.0645,580.17517 1076.2894,589.63654 1078.1604,597.47694 C 1078.5411,603.91183 1081.2053,610.099 1079.8304,616.5379 C 1078.6318,621.07799 1079.8614,625.43984 1082.7004,628.42258 C 1078.2769,628.27696 1069.2503,634.4139 1070.3751,626.70805 C 1076.4219,620.0433 1073.4255,610.55536 1072.8246,602.53811 C 1071.2303,592.75458 1074.2856,580.31439 1065.3984,573.33771 C 1061.7518,568.95764 1052.0854,570.92446 1050.4345,568.1507 C 1057.8763,562.74831 1036.956,572.38982 1045.6472,564.56719 C 1045.189,562.23334 1031.3256,564.85322 1040.7819,561.68409 L 1040.7819,561.68408 z"
             id="path3199"
             style="fill:#5ab532;stroke:#000000;stroke-width:3.08072448;stroke-miterlimit:4;stroke-dasharray:none" />
          <g
             transform="translate(-350.186,-42.605805)"
             id="g3594">
            <path
               d="M 1425.3968,619.52411 C 1425.1269,606.8241 1423.8246,593.98409 1425.7675,581.42407 C 1428.6457,562.81696 1429.5826,543.91875 1433.6433,525.60273 C 1447.1606,464.63199 1455.6602,405.39998 1453.1746,341.74634"
               transform="translate(-0.2943536,-1.2525328e-6)"
               id="path3564"
               style="fill:none;fill-rule:evenodd;stroke:#000000;stroke-width:0.90255231px;stroke-linecap:butt;stroke-linejoin:miter;stroke-opacity:1" />
            <path
               d="M 1474.5421,357.23514 C 1471.3573,372.10555 1464.0712,385.8574 1452.6555,398.48303"
               transform="translate(-0.2943536,-1.2525328e-6)"
               id="path3566"
               style="fill:none;fill-rule:evenodd;stroke:#000000;stroke-width:0.90255231px;stroke-linecap:butt;stroke-linejoin:miter;stroke-opacity:1" />
            <path
               d="M 1430.2076,361.72471 C 1435.3278,377.55182 1442.7652,391.44791 1452.3749,403.5338"
               transform="translate(-0.2943536,-1.2525328e-6)"
               id="path3568"
               style="fill:none;fill-rule:evenodd;stroke:#000000;stroke-width:0.90255231px;stroke-linecap:butt;stroke-linejoin:miter;stroke-opacity:1" />
            <path
               d="M 1416.1777,378.56058 C 1410.0157,383.32518 1443.0872,449.14495 1447.3241,447.02648"
               transform="translate(-0.2943536,-1.2525328e-6)"
               id="path3570"
               style="fill:none;fill-rule:evenodd;stroke:#000000;stroke-width:0.90255231px;stroke-linecap:butt;stroke-linejoin:miter;stroke-opacity:1" />
            <path
               d="M 1493.6228,389.5039 C 1482.044,405.12385 1466.042,420.74381 1449.2883,436.36376"
               transform="translate(-0.2943536,-1.2525328e-6)"
               id="path3572"
               style="fill:none;fill-rule:evenodd;stroke:#000000;stroke-width:0.90255231px;stroke-linecap:butt;stroke-linejoin:miter;stroke-opacity:1" />
            <path
               d="M 1509.3363,418.12489 C 1491.7822,442.62876 1467.8506,457.56639 1444.5181,473.40268"
               transform="translate(-0.2943536,-1.2525328e-6)"
               id="path3574"
               style="fill:none;fill-rule:evenodd;stroke:#000000;stroke-width:0.90255231px;stroke-linecap:butt;stroke-linejoin:miter;stroke-opacity:1" />
            <path
               d="M 1392.6075,402.9726 C 1404.2092,433.17302 1415.1763,463.50706 1440.5898,490.79975"
               transform="translate(-0.2943536,-1.2525328e-6)"
               id="path3576"
               style="fill:none;fill-rule:evenodd;stroke:#000000;stroke-width:0.90255231px;stroke-linecap:butt;stroke-linejoin:miter;stroke-opacity:1" />
            <path
               d="M 1520.8408,454.04142 C 1520.8408,454.04142 1487.1626,486.33058 1468.8902,493.17525 C 1454.291,498.64399 1434.8702,517.62955 1435.539,518.29835"
               transform="translate(-0.2943536,-1.2525328e-6)"
               id="path3578"
               style="fill:none;fill-rule:evenodd;stroke:#000000;stroke-width:0.90255231px;stroke-linecap:butt;stroke-linejoin:miter;stroke-opacity:1" />
            <path
               d="M 1371.5627,424.01745 C 1380.5539,458.94945 1402.3391,492.9991 1433.0136,526.43569"
               transform="translate(-0.2943536,-1.2525328e-6)"
               id="path3580"
               style="fill:none;fill-rule:evenodd;stroke:#000000;stroke-width:0.90255231px;stroke-linecap:butt;stroke-linejoin:miter;stroke-opacity:1" />
            <path
               d="M 1528.6975,482.38182 C 1517.9096,500.91289 1501.853,515.45662 1482.0714,524.95273 C 1465.2349,533.03498 1446.799,540.56599 1429.6465,552.8119"
               transform="translate(-0.2943536,-1.2525328e-6)"
               id="path3582"
               style="fill:none;fill-rule:evenodd;stroke:#000000;stroke-width:0.90255231px;stroke-linecap:butt;stroke-linejoin:miter;stroke-opacity:1" />
            <path
               d="M 1354.4462,463.86235 C 1383.2283,525.13159 1405.7894,542.85385 1427.9629,557.86266"
               transform="translate(-0.2943536,-1.2525328e-6)"
               id="path3584"
               style="fill:none;fill-rule:evenodd;stroke:#000000;stroke-width:0.90255231px;stroke-linecap:butt;stroke-linejoin:miter;stroke-opacity:1" />
            <path
               d="M 1524.7691,524.19091 C 1509.6649,539.24943 1493.5107,552.42607 1474.4444,558.78542 C 1458.0872,564.24117 1442.139,572.55348 1425.9987,579.7493"
               transform="translate(-0.2943536,-1.2525328e-6)"
               id="path3586"
               style="fill:none;fill-rule:evenodd;stroke:#000000;stroke-width:0.90255231px;stroke-linecap:butt;stroke-linejoin:miter;stroke-opacity:1" />
            <path
               d="M 1351.079,514.36998 C 1372.1046,541.93514 1393.6859,569.01869 1425.7181,587.04484"
               transform="translate(-0.2943536,-1.2525328e-6)"
               id="path3588"
               style="fill:none;fill-rule:evenodd;stroke:#000000;stroke-width:0.90255231px;stroke-linecap:butt;stroke-linejoin:miter;stroke-opacity:1" />
            <path
               d="M 1351.079,538.2208 C 1368.463,561.91376 1383.6272,585.27038 1424.8763,612.57926"
               transform="translate(-0.2943536,-1.2525328e-6)"
               id="path3590"
               style="fill:none;fill-rule:evenodd;stroke:#000000;stroke-width:0.90255231px;stroke-linecap:butt;stroke-linejoin:miter;stroke-opacity:1" />
            <path
               d="M 1513.8258,557.86266 C 1490.7182,579.86933 1457.0692,592.21312 1425.4375,606.4061"
               transform="translate(-0.2943536,-1.2525328e-6)"
               id="path3592"
               style="fill:none;fill-rule:evenodd;stroke:#000000;stroke-width:0.90255231px;stroke-linecap:butt;stroke-linejoin:miter;stroke-opacity:1" />
          </g>
        </g>
      </g>
      <path
         d="M -815.6381,335.25 C -815.6381,335.25 -816.01748,339.9019 -816.2006,345.53125 C -816.38372,351.1606 -816.48145,357.56005 -815.5756,362.375 C -807.89777,403.18563 -798.52102,458.65429 -801.0756,501.4375 C -804.2377,554.39558 -786.88459,622.91364 -787.60685,673.40625 C -787.96298,698.30212 -780.79947,737.52017 -773.0756,771.03125 C -769.21367,787.78679 -765.20956,803.03011 -761.85685,814.1875 C -760.18049,819.76619 -758.67946,824.31286 -757.3881,827.625 C -756.74242,829.28107 -756.16047,830.60947 -755.5131,831.78125 C -755.18941,832.36714 -754.87124,832.90015 -754.29435,833.5625 C -753.71746,834.22485 -752.8128,835.59377 -750.04435,835.59375 L -750.04435,825.59375 C -747.54657,825.59373 -746.97664,826.75482 -746.7631,827 C -746.54956,827.24518 -746.63738,827.16505 -746.7631,826.9375 C -747.01453,826.4824 -747.5179,825.43043 -748.0756,824 C -749.19101,821.13915 -750.63169,816.74163 -752.2631,811.3125 C -755.52593,800.45424 -759.50632,785.35171 -763.3256,768.78125 C -770.96415,735.64033 -777.93251,696.29703 -777.60685,673.53125 C -776.85089,620.68247 -794.07362,552.24141 -791.0756,502.03125 C -788.40487,457.30285 -798.0261,401.49034 -805.73185,360.53125 C -806.25788,357.73521 -806.37545,351.21915 -806.2006,345.84375 C -806.02575,340.46835 -805.66935,336.03125 -805.66935,336.03125 L -815.6381,335.25 z"
         id="path3665"
         style="fill:#000000;fill-opacity:1;fill-rule:evenodd;stroke:#313131;stroke-width:2.70765686;stroke-linecap:butt;stroke-linejoin:miter;stroke-miterlimit:4;stroke-dasharray:none;stroke-opacity:1" />
      <g
         transform="matrix(-0.2962014,-0.647612,0.647612,-0.2962014,-819.35688,1641.9572)"
         id="g4786">
        <path
           d="M 1040.7819,561.68408 C 1040.4582,559.7437 1034.9044,562.30993 1038.7368,558.51249 C 1036.9075,557.67654 1031.6096,558.84906 1035.6311,554.86191 C 1042.4513,547.9131 1026.7375,558.52591 1033.0418,552.83889 C 1037.9716,549.92072 1028.0494,551.23212 1027.3077,548.05399 C 1024.7258,545.4198 1016.9657,544.11225 1021.9616,539.86388 C 1018.8503,538.99092 1012.9046,536.46163 1017.1384,533.18126 C 1013.9057,531.44374 1005.5529,528.82643 1010.7417,525.27726 C 1009.0468,521.39987 1000.4024,517.51138 1006.4013,513.63504 C 1004.731,507.5969 1003.0441,501.65147 999.69053,496.32241 C 999.79498,493.22246 1006.7847,502.61941 1003.5926,496.11761 C 1001.9694,493.95129 1001.4537,491.4178 1004.7613,491.61967 C 1001.7731,488.85427 1001.9648,481.13166 1006.9178,485.82757 C 1007.1629,482.99586 1000.8072,474.21784 1007.3863,478.7592 C 1007.9773,475.3237 997.53076,477.10942 999.04815,471.15648 C 1001.8315,471.0556 1010.1806,477.81094 1009.0013,474.08928 C 1006.2708,471.49482 998.28577,465.94005 1005.8906,464.50842 C 1004.4785,463.28887 998.85341,456.51742 1004.8035,457.49183 C 1007.8179,458.15119 1001.5494,452.46558 1002.2284,450.59556 C 1001.0087,446.78239 1007.3559,449.95565 1003.7569,445.42748 C 1002.3209,442.10149 999.13715,433.97808 1005.5412,438.82429 C 1005.807,432.50935 1002.7358,426.12329 1004.0057,419.91709 C 1008.1584,416.7386 1009.9628,427.55724 1013.8384,426.05047 C 1012.4253,423.16485 1008.9804,414.29436 1014.9336,419.99067 C 1016.1412,417.13338 1011.4195,408.06547 1018.6322,412.48838 C 1017.625,408.99801 1013.9255,403.48763 1019.8963,405.40448 C 1018.9444,401.74554 1017.1736,398.289 1020.7209,396.56136 C 1020.6773,392.26416 1017.9644,383.16468 1021.5615,381.73442 C 1024.1247,383.90576 1026.2001,386.48413 1028.4403,383.18663 C 1033.1586,384.88917 1030.1248,373.88897 1035.5165,379.71338 C 1035.473,377.27429 1034.4387,369.68415 1039.0362,374.68381 C 1042.3564,371.56556 1039.4231,363.19301 1041.3848,358.3141 C 1044.5426,358.99453 1051.552,368.4956 1050.6631,360.0003 C 1048.7251,355.21281 1055.9249,356.47748 1054.1051,351.37035 C 1056.0947,349.61875 1060.5068,352.16401 1059.0547,347.00389 C 1065.8669,347.90862 1062.3071,336.57313 1065.9547,335.52938 C 1068.1252,338.74842 1068.5047,339.01853 1069.9982,336.52306 C 1075.7092,340.90776 1073.4346,333.63869 1075.0879,330.92521 C 1079.6583,336.39034 1079.0595,326.90526 1079.0319,323.52105 C 1079.2324,321.59308 1078.1793,316.76756 1080.7118,320.22986 C 1082.6722,322.68482 1086.0839,324.19301 1084.4623,319.55861 C 1085.6226,315.63065 1090.7252,323.26934 1089.825,317.39965 C 1088.679,313.83944 1089.8326,309.1684 1093.2371,312.84531 C 1094.1072,309.75648 1094.132,304.57283 1098.0925,308.9503 C 1099.6045,303.79249 1100.6303,294.5465 1104.0315,292.05264 C 1106.6866,295.25286 1105.252,305.54355 1108.8434,305.2013 C 1115.147,297.90152 1110.5323,317.30269 1117.9171,311.36816 C 1123.7172,307.41015 1112.4496,322.74336 1119.8709,318.00739 C 1121.8341,317.0696 1125.7708,311.75581 1124.3137,316.84254 C 1123.906,322.1241 1122.6237,327.37377 1122.3239,332.59619 C 1125.1254,332.96462 1130.6143,324.11288 1128.7198,332.06759 C 1126.8633,335.5381 1127.0894,339.84851 1131.2919,336.18551 C 1133.8709,338.19978 1126.7279,348.75055 1133.2453,344.04706 C 1140.9762,338.57422 1129.8334,352.29067 1136.9426,349.41726 C 1139.9009,349.19147 1146.8831,340.05063 1143.7966,347.73248 C 1142.7789,352.02397 1141.4275,357.07117 1140.8217,360.92736 C 1143.7357,359.0587 1147.7289,357.26905 1145.193,362.51276 C 1144.0051,365.67362 1141.5761,371.08346 1146.5319,367.0003 C 1155.4468,361.43926 1142.5019,379.46369 1151.1577,373.52952 C 1157.608,372.0229 1148.6731,381.29939 1154.5842,377.53089 C 1157.089,375.70337 1163.1319,370.4631 1159.7598,377.04809 C 1161.1133,380.66289 1154.827,387.45148 1158.0716,388.85383 C 1163.0827,384.92566 1161.7317,389.92215 1161.3873,393.27645 C 1168.1275,394.01361 1156.0879,403.71485 1165.2361,402.16122 C 1166.8834,404.45723 1158.1404,412.67165 1165.7799,407.82768 C 1171.8597,403.98648 1163.1643,417.12907 1169.508,411.38125 C 1175.6805,408.3686 1164.9428,420.94845 1169.1671,422.67539 C 1176.4953,420.25238 1163.7403,433.22105 1173.2969,429.29561 C 1178.2086,428.79266 1166.8648,437.97102 1173.9909,435.00759 C 1181.4068,431.53233 1167.4503,443.64717 1175.6132,439.65996 C 1182.301,434.96505 1176.4282,442.89293 1174.3444,444.95381 C 1171.8156,450.11299 1183.6588,441.00958 1178.5973,446.94597 C 1176.483,449.70812 1169.3182,458.94868 1176.7685,457.34643 C 1172.9859,462.00755 1174.4647,467.48735 1170.6814,471.70418 C 1167.3001,475.0575 1170.2306,473.89676 1173.249,473.34993 C 1175.4721,476.44149 1166.701,481.96883 1167.076,484.00096 C 1169.786,483.58988 1179.3695,476.94144 1174.2893,483.27922 C 1169.1049,486.97479 1168.0112,492.61181 1165.3936,497.5476 C 1159.7173,500.46215 1169.8013,503.32476 1163.2819,506.0472 C 1159.2095,508.37339 1160.3661,510.59778 1164.3741,510.90256 C 1163.1566,512.11421 1160.0089,514.29297 1159.9065,514.94586 C 1162.7415,513.55387 1167.5892,514.63344 1162.536,517.40564 C 1158.7107,521.08848 1154.5148,529.2402 1152.66,531.80279 C 1163.4638,531.19796 1146.9031,537.91147 1152.4223,541.59939 C 1150.7587,544.26872 1141.7406,546.51014 1147.3707,548.93868 C 1144.7301,552.4582 1134.0769,553.11543 1140.7934,555.96386 C 1137.9816,558.29169 1128.6446,558.96748 1129.2819,560.93262 C 1133.3664,563.12697 1121.0421,564.83355 1119.5685,567.88895 C 1112.8232,568.90301 1106.7774,572.63365 1100.3622,574.56924 C 1093.5092,576.02717 1085.8597,576.96342 1080.0763,580.13827 C 1073.3911,577.063 1066.6997,573.9757 1060.1357,570.69341 C 1056.3149,568.50558 1046.3247,570.84351 1052.2545,566.19149 C 1049.1764,566.76825 1039.5384,570.21183 1045.6472,564.56719 C 1046.1349,561.66299 1032.6592,565.6671 1039.3259,561.98836 L 1040.7819,561.68409 L 1040.7819,561.68408 z"
           id="path4788"
           style="fill:#5ab532;stroke:#000000;stroke-width:3.80216694;stroke-miterlimit:4;stroke-dasharray:none" />
        <g
           transform="translate(-350.186,-42.605805)"
           id="g4790">
          <path
             d="M 1425.3968,619.52411 C 1425.1269,606.8241 1423.8246,593.98409 1425.7675,581.42407 C 1428.6457,562.81696 1429.5826,543.91875 1433.6433,525.60273 C 1447.1606,464.63199 1455.6602,405.39998 1453.1746,341.74634"
             transform="translate(-0.2943536,-1.2525328e-6)"
             id="path4792"
             style="fill:none;fill-rule:evenodd;stroke:#000000;stroke-width:0.90255231px;stroke-linecap:butt;stroke-linejoin:miter;stroke-opacity:1" />
          <path
             d="M 1474.5421,357.23514 C 1471.3573,372.10555 1464.0712,385.8574 1452.6555,398.48303"
             transform="translate(-0.2943536,-1.2525328e-6)"
             id="path4794"
             style="fill:none;fill-rule:evenodd;stroke:#000000;stroke-width:0.90255231px;stroke-linecap:butt;stroke-linejoin:miter;stroke-opacity:1" />
          <path
             d="M 1430.2076,361.72471 C 1435.3278,377.55182 1442.7652,391.44791 1452.3749,403.5338"
             transform="translate(-0.2943536,-1.2525328e-6)"
             id="path4796"
             style="fill:none;fill-rule:evenodd;stroke:#000000;stroke-width:0.90255231px;stroke-linecap:butt;stroke-linejoin:miter;stroke-opacity:1" />
          <path
             d="M 1416.1777,378.56058 C 1410.0157,383.32518 1443.0872,449.14495 1447.3241,447.02648"
             transform="translate(-0.2943536,-1.2525328e-6)"
             id="path4798"
             style="fill:none;fill-rule:evenodd;stroke:#000000;stroke-width:0.90255231px;stroke-linecap:butt;stroke-linejoin:miter;stroke-opacity:1" />
          <path
             d="M 1493.6228,389.5039 C 1482.044,405.12385 1466.042,420.74381 1449.2883,436.36376"
             transform="translate(-0.2943536,-1.2525328e-6)"
             id="path4800"
             style="fill:none;fill-rule:evenodd;stroke:#000000;stroke-width:0.90255231px;stroke-linecap:butt;stroke-linejoin:miter;stroke-opacity:1" />
          <path
             d="M 1509.3363,418.12489 C 1491.7822,442.62876 1467.8506,457.56639 1444.5181,473.40268"
             transform="translate(-0.2943536,-1.2525328e-6)"
             id="path4802"
             style="fill:none;fill-rule:evenodd;stroke:#000000;stroke-width:0.90255231px;stroke-linecap:butt;stroke-linejoin:miter;stroke-opacity:1" />
          <path
             d="M 1392.6075,402.9726 C 1404.2092,433.17302 1415.1763,463.50706 1440.5898,490.79975"
             transform="translate(-0.2943536,-1.2525328e-6)"
             id="path4804"
             style="fill:none;fill-rule:evenodd;stroke:#000000;stroke-width:0.90255231px;stroke-linecap:butt;stroke-linejoin:miter;stroke-opacity:1" />
          <path
             d="M 1520.8408,454.04142 C 1520.8408,454.04142 1487.1626,486.33058 1468.8902,493.17525 C 1454.291,498.64399 1434.8702,517.62955 1435.539,518.29835"
             transform="translate(-0.2943536,-1.2525328e-6)"
             id="path4806"
             style="fill:none;fill-rule:evenodd;stroke:#000000;stroke-width:0.90255231px;stroke-linecap:butt;stroke-linejoin:miter;stroke-opacity:1" />
          <path
             d="M 1371.5627,424.01745 C 1380.5539,458.94945 1402.3391,492.9991 1433.0136,526.43569"
             transform="translate(-0.2943536,-1.2525328e-6)"
             id="path4808"
             style="fill:none;fill-rule:evenodd;stroke:#000000;stroke-width:0.90255231px;stroke-linecap:butt;stroke-linejoin:miter;stroke-opacity:1" />
          <path
             d="M 1528.6975,482.38182 C 1517.9096,500.91289 1501.853,515.45662 1482.0714,524.95273 C 1465.2349,533.03498 1446.799,540.56599 1429.6465,552.8119"
             transform="translate(-0.2943536,-1.2525328e-6)"
             id="path4810"
             style="fill:none;fill-rule:evenodd;stroke:#000000;stroke-width:0.90255231px;stroke-linecap:butt;stroke-linejoin:miter;stroke-opacity:1" />
          <path
             d="M 1354.4462,463.86235 C 1383.2283,525.13159 1405.7894,542.85385 1427.9629,557.86266"
             transform="translate(-0.2943536,-1.2525328e-6)"
             id="path4812"
             style="fill:none;fill-rule:evenodd;stroke:#000000;stroke-width:0.90255231px;stroke-linecap:butt;stroke-linejoin:miter;stroke-opacity:1" />
          <path
             d="M 1524.7691,524.19091 C 1509.6649,539.24943 1493.5107,552.42607 1474.4444,558.78542 C 1458.0872,564.24117 1442.139,572.55348 1425.9987,579.7493"
             transform="translate(-0.2943536,-1.2525328e-6)"
             id="path4814"
             style="fill:none;fill-rule:evenodd;stroke:#000000;stroke-width:0.90255231px;stroke-linecap:butt;stroke-linejoin:miter;stroke-opacity:1" />
          <path
             d="M 1351.079,514.36998 C 1372.1046,541.93514 1393.6859,569.01869 1425.7181,587.04484"
             transform="translate(-0.2943536,-1.2525328e-6)"
             id="path4816"
             style="fill:none;fill-rule:evenodd;stroke:#000000;stroke-width:0.90255231px;stroke-linecap:butt;stroke-linejoin:miter;stroke-opacity:1" />
          <path
             d="M 1351.079,538.2208 C 1368.463,561.91376 1383.6272,585.27038 1424.8763,612.57926"
             transform="translate(-0.2943536,-1.2525328e-6)"
             id="path4818"
             style="fill:none;fill-rule:evenodd;stroke:#000000;stroke-width:0.90255231px;stroke-linecap:butt;stroke-linejoin:miter;stroke-opacity:1" />
          <path
             d="M 1513.8258,557.86266 C 1490.7182,579.86933 1457.0692,592.21312 1425.4375,606.4061"
             transform="translate(-0.2943536,-1.2525328e-6)"
             id="path4820"
             style="fill:none;fill-rule:evenodd;stroke:#000000;stroke-width:0.90255231px;stroke-linecap:butt;stroke-linejoin:miter;stroke-opacity:1" />
        </g>
      </g>
      <g
         transform="matrix(0.6955823,-0.5372477,0.5372477,0.6955823,-1909.9523,807.67104)"
         id="g4516">
        <g
           id="g4518"
           transform="translate(36.660385,25.990933)">
          <path
             d="M 1040.7819,561.68408 C 1039.681,559.85811 1035.5738,562.0532 1038.5828,558.07555 C 1028.2777,561.44915 1042.7764,547.8477 1034.0002,553.74019 C 1026.9476,556.8496 1039.7738,549.44514 1031.0173,550.30924 C 1026.5889,546.99925 1017.9681,544.61417 1021.3477,539.24602 C 1017.7554,539.35687 1013.3175,535.83496 1017.1384,533.18126 C 1013.9051,531.39508 1005.4615,528.86173 1010.7417,525.27726 C 1007.3473,520.90963 1001.7474,517.1841 1006.2079,512.4289 C 1006.0809,507.23478 998.87454,497.7587 1000.8021,495.81101 C 1005.8066,501.60836 1004.1173,496.30583 1002.1399,492.64616 C 1008.2672,493.37305 998.16224,481.67293 1005.8319,485.2003 C 1009.6618,486.50097 999.41315,472.92702 1007.7771,478.58843 C 1006.7393,475.59798 997.86901,476.84911 999.04815,471.15648 C 1002.8775,472.57576 1014.6912,478.66714 1006.2047,471.41623 C 999.31433,468.57516 1004.8494,465.24891 1005.3828,463.72284 C 1000.6489,461.14916 1002.3592,455.92561 1005.8177,457.38986 C 1002.8075,453.71181 1000.9732,448.22743 1004.5085,447.26164 C 1003.1478,443.93296 998.35562,433.84695 1005.5412,438.82429 C 1006.862,433.116 999.37606,420.41287 1006.9138,419.49945 C 1007.8232,423.41941 1017.1559,430.41438 1012.2824,422.04189 C 1009.4809,416.95598 1012.8588,418.20604 1015.4849,419.64808 C 1015.1255,416.09025 1011.9948,408.33479 1018.6322,412.48838 C 1017.5273,408.87243 1013.9627,403.53547 1019.8963,405.40448 C 1018.6852,401.63385 1017.3121,398.34485 1020.7209,396.56136 C 1019.9688,391.32029 1017.533,375.10897 1026.039,385.20847 C 1028.568,382.53113 1032.6671,383.45923 1032.2401,378.10416 C 1039.47,384.44646 1031.6747,369.30675 1038.5319,374.0003 C 1043.8124,375.45711 1036.5294,350.46619 1046.153,361.58375 C 1053.6523,369.05062 1047.5048,355.02733 1053.6234,355.356 C 1052.6302,350.05238 1056.3965,350.81507 1058.9864,349.87701 C 1058.343,345.32939 1066.0361,345.67279 1064.1775,339.15926 C 1063.5303,333.39195 1067.218,335.94697 1068.8962,338.55895 C 1068.8377,334.05852 1076.9464,340.93414 1074.1524,333.3444 C 1074.0158,327.23931 1079.4546,337.13029 1078.8667,329.91932 C 1079.7775,327.25361 1077.9385,319.30594 1079.7824,319.35675 C 1082.5147,322.40079 1085.8984,324.61268 1085.0732,318.5382 C 1088.8847,320.54255 1090.9635,319.7169 1089.5105,314.7185 C 1088.555,307.39678 1095.9384,316.93999 1094.1959,308.09731 C 1095.8153,305.43946 1099.3153,312.21745 1098.7396,305.79244 C 1099.9517,301.35969 1103.506,284.73541 1105.6391,297.09415 C 1106.6717,302.63186 1106.7137,307.71164 1111.9333,303.58343 C 1112.7602,308.38432 1113.7705,315.87889 1119.893,310.46311 C 1118.1261,314.35031 1115.0746,322.64856 1121.7482,316.58552 C 1125.4347,312.16886 1124.455,316.4513 1123.9771,319.79803 C 1123.8533,324.24427 1119.1554,338.3192 1127.1174,329.4683 C 1132.5693,326.3442 1123.0252,342.69023 1131.6611,336.33325 C 1132.2466,339.75913 1127.6088,349.39516 1134.3485,343.25806 C 1140.043,340.81062 1129.4242,353.91665 1138.2115,348.88373 C 1141.9894,346.36757 1146.8486,341.46139 1143.3324,349.28296 C 1143.0451,354.06061 1136.9128,365.15308 1145.7653,358.66454 C 1146.0587,363.09327 1139.7561,372.57884 1147.8891,366.22898 C 1154.4878,364.5325 1141.9986,379.65601 1152.04,373.41225 C 1157.0383,374.02262 1148.0441,381.93002 1155.6936,376.83245 C 1159.1234,373.33467 1162.598,372.15322 1159.5147,378.34252 C 1159.5373,382.99551 1153.0695,392.20453 1161.896,387.47337 C 1159.108,393.73041 1166.7181,394.60396 1161.4475,400.09259 C 1160.6896,403.53052 1169.7209,401.04954 1164.0319,406.0003 C 1157.2288,414.1115 1172.9802,402.27276 1167.0277,411.09908 C 1165.7076,416.36115 1174.7597,405.457 1170.8238,413.66214 C 1169.1599,416.95362 1165.5894,424.1878 1171.896,422.68537 C 1170.1248,426.46519 1167.0439,431.90871 1174.2397,429.30043 C 1175.7635,430.68619 1167.1486,438.79897 1175.2613,434.51816 C 1178.4421,434.17017 1167.847,444.52764 1176.6065,438.87959 C 1184.3031,435.35669 1167.2742,451.00568 1177.4709,445.4483 C 1184.7166,442.93206 1165.797,459.4527 1176.7685,457.34643 C 1172.8921,462.68616 1174.29,468.74887 1169.4275,473.34811 C 1167.472,475.63903 1178.2078,470.74606 1172.5677,476.68102 C 1169.8228,480.54782 1162.7965,487.06661 1171.806,481.99656 C 1182.8422,477.35005 1165.341,489.03415 1167.6075,493.91611 C 1166.3898,497.60773 1160.7345,500.14488 1165.8174,503.32883 C 1163.0284,506.38801 1157.1599,510.40488 1164.3741,510.90256 C 1163.074,512.35083 1156.8655,516.25854 1162.0425,514.46145 C 1168.5023,514.81725 1154.6115,524.17927 1154.4356,529.24619 C 1147.0038,533.43172 1162.5778,530.72353 1154.0319,535.65375 C 1149.6431,539.45703 1154.2375,543.91978 1146.5673,545.76155 C 1142.2357,548.0794 1151.4467,548.69531 1144.9138,550.7641 C 1141.1369,552.63439 1135.6469,553.81989 1140.7934,555.96386 C 1137.8294,558.66148 1124.7416,559.1776 1130.822,561.94961 C 1123.4032,566.19029 1115.8529,568.48846 1107.9643,571.89556 C 1100.0058,575.92105 1090.3384,574.93075 1082.6501,579.36863 C 1073.1216,583.09571 1078.7185,594.83076 1078.8225,602.40444 C 1079.8207,607.41203 1080.7957,612.28834 1079.75,617.3628 C 1078.6344,621.61351 1079.9459,625.72708 1082.7004,628.42258 C 1076.5062,631.26421 1065.7052,632.15284 1072.4671,623.41762 C 1076.2541,615.53892 1072.461,606.60213 1072.4447,598.29492 C 1071.7572,589.3192 1073.1686,577.43027 1063.7897,572.35248 C 1061.4039,567.57097 1044.97,572.32447 1052.7613,566.17301 C 1048.3381,566.85905 1040.0022,570.3792 1045.7393,563.62913 C 1042.5325,563.8259 1032.428,563.9476 1040.7819,561.68409 L 1040.7819,561.68408 z"
             id="path4520"
             style="fill:#5ab532;stroke:#000000;stroke-width:3.08072472;stroke-miterlimit:4;stroke-dasharray:none" />
          <g
             transform="translate(-350.186,-42.605805)"
             id="g4522">
            <path
               d="M 1425.3968,619.52411 C 1425.1269,606.8241 1423.8246,593.98409 1425.7675,581.42407 C 1428.6457,562.81696 1429.5826,543.91875 1433.6433,525.60273 C 1447.1606,464.63199 1455.6602,405.39998 1453.1746,341.74634"
               transform="translate(-0.2943536,-1.2525328e-6)"
               id="path4524"
               style="fill:none;fill-rule:evenodd;stroke:#000000;stroke-width:0.90255231px;stroke-linecap:butt;stroke-linejoin:miter;stroke-opacity:1" />
            <path
               d="M 1474.5421,357.23514 C 1471.3573,372.10555 1464.0712,385.8574 1452.6555,398.48303"
               transform="translate(-0.2943536,-1.2525328e-6)"
               id="path4526"
               style="fill:none;fill-rule:evenodd;stroke:#000000;stroke-width:0.90255231px;stroke-linecap:butt;stroke-linejoin:miter;stroke-opacity:1" />
            <path
               d="M 1430.2076,361.72471 C 1435.3278,377.55182 1442.7652,391.44791 1452.3749,403.5338"
               transform="translate(-0.2943536,-1.2525328e-6)"
               id="path4528"
               style="fill:none;fill-rule:evenodd;stroke:#000000;stroke-width:0.90255231px;stroke-linecap:butt;stroke-linejoin:miter;stroke-opacity:1" />
            <path
               d="M 1416.1777,378.56058 C 1410.0157,383.32518 1443.0872,449.14495 1447.3241,447.02648"
               transform="translate(-0.2943536,-1.2525328e-6)"
               id="path4530"
               style="fill:none;fill-rule:evenodd;stroke:#000000;stroke-width:0.90255231px;stroke-linecap:butt;stroke-linejoin:miter;stroke-opacity:1" />
            <path
               d="M 1493.6228,389.5039 C 1482.044,405.12385 1466.042,420.74381 1449.2883,436.36376"
               transform="translate(-0.2943536,-1.2525328e-6)"
               id="path4532"
               style="fill:none;fill-rule:evenodd;stroke:#000000;stroke-width:0.90255231px;stroke-linecap:butt;stroke-linejoin:miter;stroke-opacity:1" />
            <path
               d="M 1509.3363,418.12489 C 1491.7822,442.62876 1467.8506,457.56639 1444.5181,473.40268"
               transform="translate(-0.2943536,-1.2525328e-6)"
               id="path4534"
               style="fill:none;fill-rule:evenodd;stroke:#000000;stroke-width:0.90255231px;stroke-linecap:butt;stroke-linejoin:miter;stroke-opacity:1" />
            <path
               d="M 1392.6075,402.9726 C 1404.2092,433.17302 1415.1763,463.50706 1440.5898,490.79975"
               transform="translate(-0.2943536,-1.2525328e-6)"
               id="path4536"
               style="fill:none;fill-rule:evenodd;stroke:#000000;stroke-width:0.90255231px;stroke-linecap:butt;stroke-linejoin:miter;stroke-opacity:1" />
            <path
               d="M 1520.8408,454.04142 C 1520.8408,454.04142 1487.1626,486.33058 1468.8902,493.17525 C 1454.291,498.64399 1434.8702,517.62955 1435.539,518.29835"
               transform="translate(-0.2943536,-1.2525328e-6)"
               id="path4538"
               style="fill:none;fill-rule:evenodd;stroke:#000000;stroke-width:0.90255231px;stroke-linecap:butt;stroke-linejoin:miter;stroke-opacity:1" />
            <path
               d="M 1371.5627,424.01745 C 1380.5539,458.94945 1402.3391,492.9991 1433.0136,526.43569"
               transform="translate(-0.2943536,-1.2525328e-6)"
               id="path4540"
               style="fill:none;fill-rule:evenodd;stroke:#000000;stroke-width:0.90255231px;stroke-linecap:butt;stroke-linejoin:miter;stroke-opacity:1" />
            <path
               d="M 1528.6975,482.38182 C 1517.9096,500.91289 1501.853,515.45662 1482.0714,524.95273 C 1465.2349,533.03498 1446.799,540.56599 1429.6465,552.8119"
               transform="translate(-0.2943536,-1.2525328e-6)"
               id="path4542"
               style="fill:none;fill-rule:evenodd;stroke:#000000;stroke-width:0.90255231px;stroke-linecap:butt;stroke-linejoin:miter;stroke-opacity:1" />
            <path
               d="M 1354.4462,463.86235 C 1383.2283,525.13159 1405.7894,542.85385 1427.9629,557.86266"
               transform="translate(-0.2943536,-1.2525328e-6)"
               id="path4544"
               style="fill:none;fill-rule:evenodd;stroke:#000000;stroke-width:0.90255231px;stroke-linecap:butt;stroke-linejoin:miter;stroke-opacity:1" />
            <path
               d="M 1524.7691,524.19091 C 1509.6649,539.24943 1493.5107,552.42607 1474.4444,558.78542 C 1458.0872,564.24117 1442.139,572.55348 1425.9987,579.7493"
               transform="translate(-0.2943536,-1.2525328e-6)"
               id="path4546"
               style="fill:none;fill-rule:evenodd;stroke:#000000;stroke-width:0.90255231px;stroke-linecap:butt;stroke-linejoin:miter;stroke-opacity:1" />
            <path
               d="M 1351.079,514.36998 C 1372.1046,541.93514 1393.6859,569.01869 1425.7181,587.04484"
               transform="translate(-0.2943536,-1.2525328e-6)"
               id="path4548"
               style="fill:none;fill-rule:evenodd;stroke:#000000;stroke-width:0.90255231px;stroke-linecap:butt;stroke-linejoin:miter;stroke-opacity:1" />
            <path
               d="M 1351.079,538.2208 C 1368.463,561.91376 1383.6272,585.27038 1424.8763,612.57926"
               transform="translate(-0.2943536,-1.2525328e-6)"
               id="path4550"
               style="fill:none;fill-rule:evenodd;stroke:#000000;stroke-width:0.90255231px;stroke-linecap:butt;stroke-linejoin:miter;stroke-opacity:1" />
            <path
               d="M 1513.8258,557.86266 C 1490.7182,579.86933 1457.0692,592.21312 1425.4375,606.4061"
               transform="translate(-0.2943536,-1.2525328e-6)"
               id="path4552"
               style="fill:none;fill-rule:evenodd;stroke:#000000;stroke-width:0.90255231px;stroke-linecap:butt;stroke-linejoin:miter;stroke-opacity:1" />
          </g>
        </g>
      </g>
    </g>
    <path
       d="M 299.47518,421.69342 C 299.47518,408.27535 310.34879,397.38534 323.74665,397.38534 C 337.14451,397.38534 365.82645,397.38534 379.2243,397.38534 C 392.62216,397.38534 403.49582,386.49534 403.49582,373.07729 L 403.49582,192.73908 L 195.45455,192.73909 L 195.45455,373.07729 C 195.45455,386.49534 206.32818,397.38534 219.72604,397.38534 C 233.1239,397.38534 261.80584,397.38534 275.2037,397.38534 C 288.60156,397.38534 299.47518,408.27535 299.47518,421.69342 z"
       id="path8545"
       style="fill:#ffffff;fill-opacity:1;fill-rule:nonzero;stroke:none;stroke-width:5;stroke-linecap:round;stroke-linejoin:round;stroke-miterlimit:4;stroke-dashoffset:0;stroke-opacity:1" />
    <path
       id="path8734"
       d="M 195.96875,192.21875 L 195.96875,244.5625 L 351.40003,396.875 C 356.01793,396.875 376.49677,396.875 379.75,396.875 C 393.14785,396.87501 404.03125,385.98055 404.03125,372.5625 L 404.03125,345.125 L 249.125,192.21875 L 195.96875,192.21875 z"
       style="fill:#000000;fill-opacity:1;fill-rule:nonzero;stroke:#313131;stroke-width:1.99999988;stroke-linecap:round;stroke-linejoin:round;stroke-miterlimit:4;stroke-dasharray:none;stroke-dashoffset:0;stroke-opacity:1"
       sodipodi:nodetypes="cccscccc" />
    <path
       d="M 299.99793,421.17069 C 299.99793,407.75261 310.87155,396.86259 324.26942,396.86259 C 337.66728,396.86259 366.34923,396.86259 379.74709,396.86259 C 393.14495,396.86259 404.01861,385.97258 404.01861,372.55452 L 404.01861,192.21614 L 195.97727,192.21615 L 195.97727,372.55452 C 195.97727,385.97258 206.8509,396.86259 220.24876,396.86259 C 233.64663,396.86259 262.32858,396.86259 275.72644,396.86259 C 289.12431,396.86259 299.99793,407.75261 299.99793,421.17069 z"
       id="path8547"
       style="fill:none;fill-opacity:1;fill-rule:nonzero;stroke:#000000;stroke-width:1.99999988;stroke-linecap:round;stroke-linejoin:round;stroke-miterlimit:4;stroke-dasharray:none;stroke-dashoffset:0;stroke-opacity:1" />
  </g>
  <g
     inkscape:groupmode="layer"
     id="layer3"
     inkscape:label="Reflet final"
     sodipodi:insensitive="true"
     style="display:inline">
    <path
       id="path2875"
       style="fill:url(#radialGradient11919);fill-opacity:1;fill-rule:evenodd;stroke:none;stroke-width:3.00000024;stroke-linecap:butt;stroke-linejoin:miter;stroke-miterlimit:4;stroke-dasharray:none;stroke-opacity:1"
       d="M 1.5,1.49974 L 1.5,518.99107 C 1.5,557.49556 32.7031,588.7456 71.15,588.7456 C 109.5968,588.7456 191.9032,588.7456 230.35,588.7456 C 268.79691,588.7455 300.00003,619.99554 300.00003,658.5 C 300.00003,619.99554 331.20317,588.7456 369.64997,588.7456 C 408.09687,588.7455 490.40327,588.7456 528.85007,588.7456 C 567.29687,588.7456 598.50007,557.49556 598.50007,518.99107 L 598.50007,1.49974 L 1.5,1.49974 z" />
  </g>
  <g
     inkscape:groupmode="layer"
     id="layer4"
     inkscape:label="Contour final"
     sodipodi:insensitive="true"
     style="display:inline">
    <path
       id="path1572"
       style="fill:none;fill-opacity:1;fill-rule:nonzero;stroke:#000000;stroke-width:3.00000191;stroke-linecap:round;stroke-linejoin:round;stroke-miterlimit:4;stroke-dasharray:none;stroke-dashoffset:0;stroke-opacity:1"
       d="M 300.00003,658.5 C 300.00003,619.9959 331.20322,588.74628 369.65003,588.74628 C 408.09684,588.74628 490.40321,588.74628 528.85001,588.74628 C 567.29681,588.74628 598.50011,557.49666 598.50011,518.99266 L 598.50011,1.4996809 L 1.5000099,1.4997008 L 1.5,518.99266 C 1.5,557.49666 32.70321,588.74628 71.150019,588.74628 C 109.59684,588.74628 191.90322,588.74628 230.35003,588.74628 C 268.79684,588.74628 300.00003,619.9959 300.00003,658.5 z"
       sodipodi:nodetypes="cssccccssc" />
  </g>
</svg>
