<?xml version="1.0" encoding="UTF-8" standalone="no"?>
<svg
   xmlns:dc="http://purl.org/dc/elements/1.1/"
   xmlns:cc="http://web.resource.org/cc/"
   xmlns:rdf="http://www.w3.org/1999/02/22-rdf-syntax-ns#"
   xmlns:svg="http://www.w3.org/2000/svg"
   xmlns="http://www.w3.org/2000/svg"
   xmlns:xlink="http://www.w3.org/1999/xlink"
   xmlns:sodipodi="http://sodipodi.sourceforge.net/DTD/sodipodi-0.dtd"
   xmlns:inkscape="http://www.inkscape.org/namespaces/inkscape"
   height="660"
   width="600"
   version="1.0"
   id="svg2"
   sodipodi:version="0.32"
   inkscape:version="0.45.1"
   sodipodi:docname="Blason_Sarralbe_57.svg"
   sodipodi:docbase="C:\Documents and Settings\Alexandre\Bureau"
   inkscape:output_extension="org.inkscape.output.svg.inkscape">
  <metadata
     id="metadata49">
    <rdf:RDF>
      <cc:Work
         rdf:about="">
        <dc:format>image/svg+xml</dc:format>
        <dc:type
           rdf:resource="http://purl.org/dc/dcmitype/StillImage" />
        <dc:title>Gabarit d'un blason en pointe pour le projet Blasons de Wikipédia</dc:title>
        <dc:date>03-AUG-2006</dc:date>
        <dc:creator>
          <cc:Agent>
            <dc:title>Jérôme BLUM (wagner51)</dc:title>
          </cc:Agent>
        </dc:creator>
        <cc:license
           rdf:resource="http://web.resource.org/cc/PublicDomain" />
        <dc:language>fr</dc:language>
        <dc:subject>
          <rdf:Bag>
            <rdf:li>gabarit modèle blason projet wikipédia</rdf:li>
          </rdf:Bag>
        </dc:subject>
      </cc:Work>
      <cc:License
         rdf:about="http://web.resource.org/cc/PublicDomain">
        <cc:permits
           rdf:resource="http://web.resource.org/cc/Reproduction" />
        <cc:permits
           rdf:resource="http://web.resource.org/cc/Distribution" />
        <cc:permits
           rdf:resource="http://web.resource.org/cc/DerivativeWorks" />
      </cc:License>
    </rdf:RDF>
  </metadata>
  <sodipodi:namedview
     inkscape:window-height="994"
     inkscape:window-width="1680"
     inkscape:pageshadow="2"
     inkscape:pageopacity="0.0"
     guidetolerance="10.0"
     gridtolerance="10.0"
     objecttolerance="10.0"
     borderopacity="1.0"
     bordercolor="#666666"
     pagecolor="#ffffff"
     id="base"
     showgrid="false"
     height="660px"
     inkscape:zoom="0.89095454"
     inkscape:cx="350.95556"
     inkscape:cy="280.54558"
     inkscape:window-x="-4"
     inkscape:window-y="-4"
     inkscape:current-layer="layer1" />
  <desc
     id="desc4">Flag of Canton of Valais (Wallis)</desc>
  <defs
     id="defs6">
    <linearGradient
       id="linearGradient2893">
      <stop
         style="stop-color:white;stop-opacity:0.3137255;"
         offset="0"
         id="stop2895" />
      <stop
         id="stop2897"
         offset="0.19"
         style="stop-color:white;stop-opacity:0.25098041;" />
      <stop
         style="stop-color:#6b6b6b;stop-opacity:0.1254902;"
         offset="0.60000002"
         id="stop2901" />
      <stop
         style="stop-color:black;stop-opacity:0.1254902;"
         offset="1"
         id="stop2899" />
    </linearGradient>
    <radialGradient
       inkscape:collect="always"
       xlink:href="#linearGradient2893"
       id="radialGradient2883"
       cx="203.19754"
       cy="218.01039"
       fx="203.19754"
       fy="218.01039"
       r="300"
       gradientTransform="matrix(1.360018,0,0,1.355087,-79.5275,-87.64524)"
       gradientUnits="userSpaceOnUse" />
    <linearGradient
       id="linearGradient2955">
      <stop
         style="stop-color:white;stop-opacity:0;"
         offset="0"
         id="stop2965" />
      <stop
         style="stop-color:black;stop-opacity:0.64583331;"
         offset="1"
         id="stop2959" />
    </linearGradient>
    <radialGradient
       inkscape:collect="always"
       xlink:href="#linearGradient2955"
       id="radialGradient2961"
       cx="225.52438"
       cy="218.90099"
       fx="225.52438"
       fy="218.90099"
       r="300"
       gradientTransform="matrix(-4.167939e-4,2.182867,-1.884232,-3.599562e-4,615.5972,-289.1214)"
       gradientUnits="userSpaceOnUse" />
    <polygon
       id="star"
       transform="scale(53,53)"
       points="0,-1 0.58778525,0.80901699 -0.95105652,-0.30901699 0.95105652,-0.30901699 -0.58778525,0.80901699 0,-1 " />
    <clipPath
       id="clip">
      <path
         d="M 0,-200 L 0,600 L 300,600 L 300,-200 L 0,-200 z "
         id="path10" />
    </clipPath>
    <radialGradient
       inkscape:collect="always"
       xlink:href="#linearGradient2955"
       id="radialGradient1911"
       gradientUnits="userSpaceOnUse"
       gradientTransform="matrix(-4.167939e-4,2.182867,-1.884232,-3.599562e-4,1395.597,-309.1214)"
       cx="225.52438"
       cy="218.90099"
       fx="225.52438"
       fy="218.90099"
       r="300" />
    <radialGradient
       inkscape:collect="always"
       xlink:href="#linearGradient2955"
       id="radialGradient2928"
       cx="-483.50824"
       cy="153.9283"
       fx="-483.50824"
       fy="153.9283"
       r="300.00003"
       gradientTransform="matrix(0,2.342476,-2.291353,0,562.9126,1323.77)"
       gradientUnits="userSpaceOnUse" />
    <radialGradient
       inkscape:collect="always"
       xlink:href="#linearGradient2893"
       id="radialGradient11919"
       gradientUnits="userSpaceOnUse"
       gradientTransform="matrix(1.551284,0,0,1.350335,-227.8943,-51.2635)"
       cx="285.18573"
       cy="200.44757"
       fx="285.18573"
       fy="200.44757"
       r="300" />
  </defs>
  <g
     inkscape:groupmode="layer"
     id="layer1"
     inkscape:label="Fond écu">
    <path
       id="path2014"
       style="fill:#ffffff;fill-opacity:1;fill-rule:nonzero;stroke:none;stroke-width:5;stroke-linecap:round;stroke-linejoin:round;stroke-miterlimit:4;stroke-dashoffset:0;stroke-opacity:1"
       d="M 299.99993,658.49936 C 299.99993,619.9953 331.2031,588.7457 369.64989,588.7457 C 408.09669,588.7457 490.40303,588.7457 528.84981,588.7457 C 567.29661,588.7457 598.49989,557.49612 598.49989,518.99215 L 598.49989,1.4996597 L 1.5000104,1.4996796 L 1.5000005,518.99215 C 1.5000005,557.49612 32.703199,588.7457 71.149994,588.7457 C 109.5968,588.7457 191.90315,588.7457 230.34995,588.7457 C 268.79674,588.7457 299.99993,619.9953 299.99993,658.49936 z "
       sodipodi:nodetypes="cssccccssc" />
    <path
       style="fill:#2b5df2;fill-opacity:1;stroke:#000000;stroke-opacity:1;stroke-width:3;stroke-miterlimit:4;stroke-dasharray:none"
       d="M 58.879442,587.64339 C 47.295426,585.00713 28.514828,575.08698 19.043009,566.60124 C 11.782902,560.09698 5.8616553,548.43126 3.8425635,536.65419 C 2.0151548,525.99526 10.861458,495.99971 20.621315,479.76171 C 29.068077,465.70837 40.014087,458.41705 63.350651,451.29902 C 82.929809,445.32704 94.266052,440.46279 99.067131,435.97352 C 103.8657,431.48661 117.51391,402.9297 119.29343,393.65291 C 127.0951,352.98201 140.20129,340.03231 182.69744,331.00604 C 194.29233,328.54324 199.27288,326.21577 208.94783,318.73886 C 221.21124,309.26155 228.28145,300.31854 226.54161,296.48474 C 225.99968,295.29058 217.83565,291.61005 208.39929,288.30576 C 192.44258,282.71825 190.61233,281.49547 182.23799,270.8276 C 176.45166,263.45656 172.25829,255.40466 170.50439,248.29736 C 167.484,236.05787 159.21856,215.00791 154.38064,207.23424 C 148.11693,197.16955 134.58497,190.8516 105.6486,184.48174 C 86.203833,180.2013 72.366141,173.95846 66.285911,166.7234 C 61.720659,161.29105 54.762236,142.72315 50.573003,124.79501 C 45.236463,101.95692 34.976004,89.826389 14.056328,81.622755 L 2.6765735,77.160191 L 2.6765735,39.687255 L 2.6765735,2.2143012 L 53.121649,2.2143012 C 101.01603,2.2143012 104.06146,2.4232414 113.3513,6.3463581 C 131.61708,14.060039 139.97564,26.219823 146.62294,54.748884 C 148.04026,60.831853 150.2397,68.297294 151.51054,71.33877 C 155.02687,79.754276 167.74897,92.191865 176.7002,95.96512 C 181.10143,97.820384 191.73503,102.37023 200.33044,106.07589 C 208.92586,109.78153 216.57553,112.81344 217.32977,112.81344 C 218.08399,112.81344 223.99985,115.6796 230.47614,119.18268 C 246.06618,127.61549 253.28568,140.10178 261.22054,172.35588 C 265.01257,187.76997 272.20619,197.41669 291.17446,212.52447 C 302.98157,221.92852 308.21931,221.77289 322.91235,211.58145 C 335.73105,202.69005 344.15045,190.78964 346.25075,178.59376 C 348.18445,167.36518 353.76501,151.30392 357.57801,145.99318 C 367.89512,131.62336 373.27365,126.42755 385.41558,119.1012 C 392.8166,114.63548 405.39256,108.90638 413.36217,106.36984 C 428.79866,101.45681 443.77871,93.966631 450.24392,87.928638 C 456.15022,82.412581 464.10926,67.118971 467.04929,55.636386 C 468.48182,50.041546 473.71774,38.451827 478.68469,29.881446 C 485.73726,17.712354 489.78467,13.076259 497.1614,8.7174373 L 506.60728,3.1359606 L 552.20515,2.5416747 L 597.80299,1.9473887 L 597.80299,38.755052 L 597.80299,75.562735 L 587.15354,81.341207 C 569.327,91.013985 563.88528,100.00475 557.50578,130.32497 C 552.51365,154.05141 550.7286,157.73745 540.29102,165.87278 C 532.06733,172.28255 510.81759,181.01623 503.44581,181.01623 C 495.61133,181.01623 467.05714,190.91349 462.07597,195.35558 C 454.70572,201.92817 448.18577,218.80771 445.21875,238.99723 C 442.0123,260.81604 437.30239,267.86993 419.04707,278.19378 C 413.65169,281.24503 403.01175,285.65338 395.40274,287.9901 C 387.79373,290.32686 381.01803,293.45101 380.34563,294.93269 C 378.61143,298.75406 386.11899,309.71353 393.91383,314.73947 C 402.60623,320.34417 423.69703,329.01793 438.66662,333.14444 C 447.75841,335.65065 453.86412,339.16225 463.92791,347.67298 C 471.22725,353.84592 477.76556,360.97022 478.45747,363.50478 C 483.55062,382.16192 493.81115,414.13105 496.36446,419.29829 C 502.54904,431.81439 523.58983,444.05419 552.49488,451.95041 C 575.511,458.23794 586.24557,465.01953 592.71978,477.36268 C 598.0604,487.54462 598.22935,489.00113 597.36596,517.42189 C 596.60007,542.63354 593.78726,546.19779 589.7668,553.75184 C 582.23799,567.89765 576.83998,572.99554 561.91918,580.0512 C 549.41904,585.9622 547.67765,588.79441 529.47607,589.71264 L 509.05639,590.74278 L 507.535,579.88879 C 503.14929,548.59986 487.01709,533.21389 445.68829,520.90288 C 409.56315,510.14196 402.3752,501.9096 395.00211,462.85221 C 392.28827,448.47611 388.36848,434.77455 385.62032,430.05828 C 380.41024,421.11698 366.24002,410.9541 354.36086,407.63903 C 344.27613,404.82471 322.57296,394.39502 311.83005,387.20041 L 303.28236,381.47591 L 298.49115,385.15452 C 295.85599,387.17778 284.87113,392.65483 274.08038,397.32583 C 231.1252,415.91972 219.87199,430.24325 215.20827,472.26058 C 212.36133,497.90996 199.14422,513.85453 174.18331,521.75146 C 167.39351,523.89955 157.92812,527.74425 153.1491,530.29524 C 148.37009,532.84624 143.62669,534.93342 142.60822,534.93342 C 141.58972,534.93342 134.6824,539.58131 127.25855,545.26204 C 116.81003,553.25729 111.80131,559.01362 105.08757,570.7423 C 100.31733,579.0757 96.414437,586.8702 96.414437,588.06344 C 96.414437,590.981 72.362631,590.71186 58.879442,587.64339 z "
       id="path2196"
       sodipodi:nodetypes="csssssssssssssssscccccssssssssssssssssscccccccsssssssssssssssssscccsssscccssssssssc" />
    <path
       style="fill:#e20909;fill-opacity:1;stroke:#000000;stroke-width:3;stroke-miterlimit:4;stroke-dasharray:none;stroke-opacity:1"
       sodipodi:nodetypes="ccccccccccccccccccccc"
       id="path3152"
       d="M 25.09047,305.11116 L 67.24614,305.11116 L 67.24614,266.78976 L 46.19184,266.78976 L 46.19184,255.77614 L 67.24614,255.77614 L 67.24614,232.66099 L 78.25976,232.66099 L 78.25976,255.77614 L 99.31406,255.77614 L 99.31406,266.78976 L 78.25976,266.78976 L 78.25976,305.11116 L 120.00326,305.11116 L 120.00326,316.12478 L 78.25976,316.12478 L 78.25976,356.01352 L 67.24614,356.01352 L 67.24614,316.12478 L 25.09047,316.12478 L 25.09047,305.11116 z " />
    <path
       style="fill:#e20909;fill-opacity:1;stroke:#000000;stroke-width:3;stroke-miterlimit:4;stroke-dasharray:none;stroke-opacity:1"
       sodipodi:nodetypes="ccccccccccccccccccccc"
       id="path4147"
       d="M 256.71176,513.63907 L 298.86743,513.63907 L 298.86743,475.31767 L 277.81313,475.31767 L 277.81313,464.30405 L 298.86743,464.30405 L 298.86743,441.1889 L 309.88105,441.1889 L 309.88105,464.30405 L 330.93535,464.30405 L 330.93535,475.31767 L 309.88105,475.31767 L 309.88105,513.63907 L 351.62455,513.63907 L 351.62455,524.65269 L 309.88105,524.65269 L 309.88105,564.54143 L 298.86743,564.54143 L 298.86743,524.65269 L 256.71176,524.65269 L 256.71176,513.63907 z " />
    <path
       style="fill:#e20909;fill-opacity:1;stroke:#000000;stroke-width:3;stroke-miterlimit:4;stroke-dasharray:none;stroke-opacity:1"
       sodipodi:nodetypes="ccccccccccccccccccccc"
       id="path4149"
       d="M 480.06771,302.62942 L 522.22338,302.62942 L 522.22338,264.30802 L 501.16908,264.30802 L 501.16908,253.2944 L 522.22338,253.2944 L 522.22338,230.17925 L 533.237,230.17925 L 533.237,253.2944 L 554.2913,253.2944 L 554.2913,264.30802 L 533.237,264.30802 L 533.237,302.62942 L 574.9805,302.62942 L 574.9805,313.64304 L 533.237,313.64304 L 533.237,353.53178 L 522.22338,353.53178 L 522.22338,313.64304 L 480.06771,313.64304 L 480.06771,302.62942 z " />
    <path
       style="fill:#e20909;fill-opacity:1;stroke:#000000;stroke-width:3;stroke-miterlimit:4;stroke-dasharray:none;stroke-opacity:1"
       sodipodi:nodetypes="ccccccccccccccccccccc"
       id="path4151"
       d="M 258.95655,94.986958 L 301.11222,94.986958 L 301.11222,56.665558 L 280.05792,56.665558 L 280.05792,45.651938 L 301.11222,45.651938 L 301.11222,22.536788 L 312.12584,22.536788 L 312.12584,45.651938 L 333.18014,45.651938 L 333.18014,56.665558 L 312.12584,56.665558 L 312.12584,94.986958 L 353.86934,94.986958 L 353.86934,106.00058 L 312.12584,106.00058 L 312.12584,145.88932 L 301.11222,145.88932 L 301.11222,106.00058 L 258.95655,106.00058 L 258.95655,94.986958 z " />
  </g>
  <g
     inkscape:groupmode="layer"
     id="layer2"
     inkscape:label="Meubles"
     sodipodi:insensitive="true" />
  <g
     inkscape:groupmode="layer"
     id="layer3"
     inkscape:label="Reflet final"
     sodipodi:insensitive="true">
    <path
       id="path2875"
       style="fill:url(#radialGradient11919);fill-opacity:1;fill-rule:evenodd;stroke:none;stroke-width:3.00000024;stroke-linecap:butt;stroke-linejoin:miter;stroke-miterlimit:4;stroke-dasharray:none;stroke-opacity:1"
       d="M 1.5,1.49974 L 1.5,518.99107 C 1.5,557.49556 32.7031,588.7456 71.15,588.7456 C 109.5968,588.7456 191.9032,588.7456 230.35,588.7456 C 268.79691,588.7455 300.00003,619.99554 300.00003,658.5 C 300.00003,619.99554 331.20317,588.7456 369.64997,588.7456 C 408.09687,588.7455 490.40327,588.7456 528.85007,588.7456 C 567.29687,588.7456 598.50007,557.49556 598.50007,518.99107 L 598.50007,1.49974 L 1.5,1.49974 z " />
  </g>
  <g
     inkscape:groupmode="layer"
     id="layer4"
     inkscape:label="Contour final"
     sodipodi:insensitive="true">
    <path
       id="path1572"
       style="fill:none;fill-opacity:1;fill-rule:nonzero;stroke:black;stroke-width:3.00000191;stroke-linecap:round;stroke-linejoin:round;stroke-miterlimit:4;stroke-dasharray:none;stroke-dashoffset:0;stroke-opacity:1"
       d="M 300.00003,658.5 C 300.00003,619.9959 331.20322,588.74628 369.65003,588.74628 C 408.09684,588.74628 490.40321,588.74628 528.85001,588.74628 C 567.29681,588.74628 598.50011,557.49666 598.50011,518.99266 L 598.50011,1.4996809 L 1.5000099,1.4997008 L 1.5,518.99266 C 1.5,557.49666 32.70321,588.74628 71.150019,588.74628 C 109.59684,588.74628 191.90322,588.74628 230.35003,588.74628 C 268.79684,588.74628 300.00003,619.9959 300.00003,658.5 z "
       sodipodi:nodetypes="cssccccssc" />
  </g>
</svg>
