<?xml version="1.0" encoding="UTF-8" standalone="no"?>
<svg
   xmlns:dc="http://purl.org/dc/elements/1.1/"
   xmlns:cc="http://web.resource.org/cc/"
   xmlns:rdf="http://www.w3.org/1999/02/22-rdf-syntax-ns#"
   xmlns:svg="http://www.w3.org/2000/svg"
   xmlns="http://www.w3.org/2000/svg"
   xmlns:xlink="http://www.w3.org/1999/xlink"
   xmlns:sodipodi="http://sodipodi.sourceforge.net/DTD/sodipodi-0.dtd"
   xmlns:inkscape="http://www.inkscape.org/namespaces/inkscape"
   height="660"
   width="600"
   version="1.0"
   id="svg2"
   sodipodi:version="0.32"
   inkscape:version="0.44"
   sodipodi:docname="000_TUJ.svg"
   sodipodi:docbase="F:\__EN_COURS"
   inkscape:export-filename="/Users/olivier/Desktop/Blason Rouge/Blason_Vide_3D.png"
   inkscape:export-xdpi="144"
   inkscape:export-ydpi="144">
  <metadata
     id="metadata49">
    <rdf:RDF>
      <cc:Work
         rdf:about="">
        <dc:format>image/svg+xml</dc:format>
        <dc:type
           rdf:resource="http://purl.org/dc/dcmitype/StillImage" />
        <dc:title>Gabarit d'un blason en pointe pour le projet Blasons de Wikipédia</dc:title>
        <dc:date>03-AUG-2006</dc:date>
        <dc:creator>
          <cc:Agent>
            <dc:title>Jérôme BLUM (wagner51)</dc:title>
          </cc:Agent>
        </dc:creator>
        <cc:license
           rdf:resource="http://web.resource.org/cc/PublicDomain" />
        <dc:language>fr</dc:language>
        <dc:subject>
          <rdf:Bag>
            <rdf:li>gabarit modèle blason projet wikipédia</rdf:li>
          </rdf:Bag>
        </dc:subject>
      </cc:Work>
      <cc:License
         rdf:about="http://web.resource.org/cc/PublicDomain">
        <cc:permits
           rdf:resource="http://web.resource.org/cc/Reproduction" />
        <cc:permits
           rdf:resource="http://web.resource.org/cc/Distribution" />
        <cc:permits
           rdf:resource="http://web.resource.org/cc/DerivativeWorks" />
      </cc:License>
    </rdf:RDF>
  </metadata>
  <sodipodi:namedview
     inkscape:window-height="787"
     inkscape:window-width="1646"
     inkscape:pageshadow="2"
     inkscape:pageopacity="0.0"
     guidetolerance="10.0"
     gridtolerance="10.0"
     objecttolerance="10.0"
     borderopacity="1.0"
     bordercolor="#666666"
     pagecolor="#ffffff"
     id="base"
     showgrid="false"
     height="660px"
     inkscape:zoom="0.78181818"
     inkscape:cx="300"
     inkscape:cy="327.6231"
     inkscape:window-x="26"
     inkscape:window-y="250"
     inkscape:current-layer="layer3" />
  <desc
     id="desc4">Flag of Canton of Valais (Wallis)</desc>
  <defs
     id="defs6">
    <linearGradient
       id="linearGradient2893">
      <stop
         style="stop-color:white;stop-opacity:0.3137255;"
         offset="0"
         id="stop2895" />
      <stop
         id="stop2897"
         offset="0.19"
         style="stop-color:white;stop-opacity:0.25098041;" />
      <stop
         style="stop-color:#6b6b6b;stop-opacity:0.1254902;"
         offset="0.60000002"
         id="stop2901" />
      <stop
         style="stop-color:black;stop-opacity:0.1254902;"
         offset="1"
         id="stop2899" />
    </linearGradient>
    <linearGradient
       id="linearGradient2885">
      <stop
         id="stop2887"
         offset="0"
         style="stop-color:white;stop-opacity:1;" />
      <stop
         style="stop-color:white;stop-opacity:1;"
         offset="0.22857143"
         id="stop2891" />
      <stop
         id="stop2889"
         offset="1"
         style="stop-color:black;stop-opacity:1;" />
    </linearGradient>
    <linearGradient
       id="linearGradient2955">
      <stop
         id="stop2867"
         offset="0"
         style="stop-color:#fd0000;stop-opacity:1;" />
      <stop
         style="stop-color:#e77275;stop-opacity:0.65882355;"
         offset="0.5"
         id="stop2873" />
      <stop
         style="stop-color:black;stop-opacity:0.32291666;"
         offset="1"
         id="stop2959" />
    </linearGradient>
    <radialGradient
       inkscape:collect="always"
       xlink:href="#linearGradient2955"
       id="radialGradient2961"
       cx="225.52438"
       cy="218.90099"
       fx="225.52438"
       fy="218.90099"
       r="300"
       gradientTransform="matrix(-4.167939e-4,2.182867,-1.884232,-3.599562e-4,615.5972,-289.1214)"
       gradientUnits="userSpaceOnUse" />
    <polygon
       id="star"
       transform="scale(53,53)"
       points="0,-1 0.58778525,0.80901699 -0.95105652,-0.30901699 0.95105652,-0.30901699 -0.58778525,0.80901699 0,-1 " />
    <clipPath
       id="clip">
      <path
         d="M 0,-200 L 0,600 L 300,600 L 300,-200 L 0,-200 z "
         id="path10" />
    </clipPath>
    <radialGradient
       inkscape:collect="always"
       xlink:href="#linearGradient2955"
       id="radialGradient1911"
       gradientUnits="userSpaceOnUse"
       gradientTransform="matrix(-4.167939e-4,2.182867,-1.884232,-3.599562e-4,615.5972,-289.1214)"
       cx="225.52438"
       cy="218.90099"
       fx="225.52438"
       fy="218.90099"
       r="300" />
    <radialGradient
       inkscape:collect="always"
       xlink:href="#linearGradient2955"
       id="radialGradient2865"
       gradientUnits="userSpaceOnUse"
       gradientTransform="matrix(0,1.748721,-1.593162,-1.049767e-7,551.7876,-191.2898)"
       cx="225.52438"
       cy="218.90099"
       fx="225.52438"
       fy="218.90099"
       r="300" />
    <radialGradient
       inkscape:collect="always"
       xlink:href="#linearGradient2955"
       id="radialGradient2871"
       gradientUnits="userSpaceOnUse"
       gradientTransform="matrix(0,1.386237,-1.323286,-5.741131e-8,-158.0823,-109.5408)"
       cx="225.52438"
       cy="218.90099"
       fx="225.52438"
       fy="218.90099"
       r="300" />
    <radialGradient
       inkscape:collect="always"
       xlink:href="#linearGradient2893"
       id="radialGradient3163"
       gradientUnits="userSpaceOnUse"
       gradientTransform="matrix(1.353218,0,0,1.348928,-77.62935,-85.74693)"
       cx="221.44487"
       cy="226.33101"
       fx="221.44487"
       fy="226.33101"
       r="300" />
  </defs>
  <g
     inkscape:groupmode="layer"
     id="layer3"
     inkscape:label="Fond écu"
     style="display:inline">
    <g
       id="g2024"
       transform="translate(-112,5.674419)">
      <path
         id="path3655"
         style="fill:white;fill-opacity:1;fill-rule:evenodd;stroke:none;stroke-width:1px;stroke-linecap:butt;stroke-linejoin:miter;stroke-opacity:1"
         d="M 413.83721,653.38372 C 413.83721,653.38372 712.33721,541.06341 712.33721,255.61189 C 712.33721,-29.839628 712.33721,-2.9397975 712.33721,-2.9397975 L 413.83721,-2.9397975 L 115.33721,-2.9397975 L 115.33721,255.61189 C 115.33721,541.06341 413.83721,653.38372 413.83721,653.38372 z "
         sodipodi:nodetypes="ccccccc" />
      <path
         id="path3659"
         style="fill:#2b5df2;fill-opacity:1;fill-rule:evenodd;stroke:none;stroke-width:1px;stroke-linecap:butt;stroke-linejoin:miter;stroke-opacity:1"
         d="M 412.33721,281.05375 L 413.83721,-5.4979372 L 115.33721,-5.4979372 L 115.33721,281.05375 L 412.33721,281.05375 z "
         sodipodi:nodetypes="ccccc" />
      <path
         sodipodi:nodetypes="cccc"
         d="M 414.13954,652.5 C 413.81933,652.5 681.31262,566.17969 712.63951,280.72817 L 414.13954,280.93023 L 414.13954,652.5 z "
         style="fill:#2b5df2;fill-opacity:1;fill-rule:evenodd;stroke:none;stroke-width:1px;stroke-linecap:butt;stroke-linejoin:miter;stroke-opacity:1"
         id="path3663" />
      <path
         sodipodi:nodetypes="cc"
         id="path15229"
         d="M 115.36213,280.53488 L 712.19601,280.53488"
         style="fill:none;fill-rule:evenodd;stroke:black;stroke-width:3;stroke-linecap:butt;stroke-linejoin:miter;stroke-miterlimit:4;stroke-dasharray:none;stroke-opacity:1" />
      <path
         sodipodi:nodetypes="cc"
         style="fill:none;fill-rule:evenodd;stroke:black;stroke-width:3;stroke-linecap:butt;stroke-linejoin:miter;stroke-miterlimit:4;stroke-dasharray:none;stroke-opacity:1"
         d="M 413.77907,-2.9809395 L 413.77907,652.31228"
         id="path15231" />
    </g>
    <path
       id="path2855"
       style="fill:none;fill-opacity:1;fill-rule:evenodd;stroke:none;stroke-width:1px;stroke-linecap:butt;stroke-linejoin:miter;stroke-opacity:1"
       d="M 878.1395,664.89535 C 878.1395,664.89535 1176.6395,552.57504 1176.6395,267.12352 C 1176.6395,-18.328001 1176.6395,8.5718295 1176.6395,8.5718295 L 579.6395,8.5718295 L 579.6395,267.12352 C 579.6395,552.57504 878.1395,664.89535 878.1395,664.89535 z "
       sodipodi:nodetypes="cccccc" />
    <g
       style="opacity:0.9;fill:#e20909;fill-opacity:1;display:inline"
       transform="matrix(1.57706,0,0,1.530974,-259.5401,-465.9972)"
       id="g6995">
      <path
         style="fill:#e20909;fill-opacity:1;fill-rule:evenodd;stroke:black;stroke-width:3.21699595;stroke-linecap:butt;stroke-linejoin:round;stroke-miterlimit:4;stroke-dasharray:none;stroke-opacity:1"
         d="M 388.34754,407.46186 C 402.93863,410.53615 417.52972,411.96533 432.12081,426.54252 C 428.47316,441.6014 411.02102,440.611 415.28494,462.45906 C 447.8343,475.09726 469.15974,413.47007 496.09714,436.64405 C 501.07254,427.92734 504.21271,421.04587 506.19867,415.3186 L 499.46432,413.07382 C 508.23695,361.98688 482.07858,341.55567 452.32386,322.16009 C 434.76505,323.65661 413.12719,334.13227 409.67298,341.24075 L 414.16255,351.34228 L 424.26407,346.85271 C 412.67657,357.71304 402.94803,370.43234 397.32667,387.25881 L 395.08188,391.74838 L 388.34754,407.46186 z "
         id="path6096"
         sodipodi:nodetypes="ccccccccccccc" />
      <path
         style="fill:#e20909;fill-opacity:1;fill-rule:evenodd;stroke:black;stroke-width:1.07233202px;stroke-linecap:butt;stroke-linejoin:miter;stroke-opacity:1"
         d="M 447.8343,442.25601 C 439.91108,444.0478 436.32424,454.20599 428.75364,453.47992"
         id="path6983"
         sodipodi:nodetypes="cc" />
      <path
         style="fill:#e20909;fill-opacity:1;fill-rule:evenodd;stroke:black;stroke-width:3.21699595;stroke-linecap:butt;stroke-linejoin:miter;stroke-miterlimit:4;stroke-dasharray:none;stroke-opacity:1"
         d="M 422.58048,395.11555 C 413.41428,391.65088 405.37048,390.53914 396.20428,390.06479"
         id="path6985"
         sodipodi:nodetypes="cc" />
      <path
         style="fill:#e20909;fill-opacity:1;fill-rule:evenodd;stroke:black;stroke-width:3.21699595;stroke-linecap:butt;stroke-linejoin:miter;stroke-miterlimit:4;stroke-dasharray:none;stroke-opacity:1"
         d="M 498.34192,413.07382 C 486.36974,407.36911 474.39757,410.05415 462.42539,408.58425"
         id="path6987"
         sodipodi:nodetypes="cc" />
      <path
         style="fill:#e20909;fill-opacity:1;fill-rule:evenodd;stroke:black;stroke-width:1.07233202px;stroke-linecap:butt;stroke-linejoin:miter;stroke-opacity:1"
         d="M 481.50605,370.42293 C 483.98586,372.17127 484.82002,382.72805 488.2404,400.72751"
         id="path6989"
         sodipodi:nodetypes="cc" />
      <path
         style="fill:#e20909;fill-opacity:1;fill-rule:evenodd;stroke:black;stroke-width:3.21699595;stroke-linecap:butt;stroke-linejoin:miter;stroke-miterlimit:4;stroke-dasharray:none;stroke-opacity:1"
         d="M 444.46713,334.5064 C 436.64219,341.34349 433.85711,339.15804 424.26407,346.85271"
         id="path6991"
         sodipodi:nodetypes="cc" />
      <path
         style="fill:#e20909;fill-opacity:1;fill-rule:evenodd;stroke:black;stroke-width:1.07233202px;stroke-linecap:butt;stroke-linejoin:miter;stroke-opacity:1"
         d="M 465.79256,340.11836 C 469.31417,346.44594 471.89492,348.46549 473.64931,350.21988"
         id="path6993"
         sodipodi:nodetypes="cc" />
    </g>
    <path
       id="path17954"
       d="M 119.04953,194.93854 C 109.60749,203.15724 103.73402,214.667 103.73402,227.40943 C 103.73402,252.35845 126.24248,272.60303 153.9815,272.60303 C 181.72051,272.60303 204.237,252.35845 204.237,227.40943 C 204.237,214.667 198.35549,203.15724 188.91343,194.93854 C 191.73904,199.82111 193.34347,205.36491 193.34347,211.24656 C 193.34347,230.78847 175.70869,246.64955 153.9815,246.64955 C 132.25427,246.64955 114.61949,230.78847 114.61949,211.24656 C 114.61949,205.36491 116.22394,199.82111 119.04953,194.93854 z "
       style="fill:#ebebeb;fill-opacity:1;stroke:black;stroke-width:1.86779821;stroke-miterlimit:4;stroke-dasharray:none;stroke-opacity:1;display:inline" />
    <path
       id="path8347"
       style="fill:#e4dc63;fill-opacity:1;stroke:black;stroke-width:1.89162207;stroke-miterlimit:4;stroke-dasharray:none;stroke-dashoffset:0;stroke-opacity:1"
       d="M 242.52622,15.045683 L 252.33631,44.11936 L 283.61028,44.084011 L 258.21882,62.144721 L 267.91756,91.069004 L 242.4147,73.157466 L 217.13489,91.069004 L 226.7647,61.93835 L 201.44217,44.084004 L 232.8966,43.991812 L 242.52622,15.045683 z " />
    <path
       d="M 59.696527,15.045682 L 69.506607,44.119359 L 100.78058,44.084009 L 75.389117,62.144721 L 85.087867,91.069004 L 59.585007,73.157466 L 34.305187,91.069004 L 43.935007,61.93835 L 18.612467,44.084003 L 50.066897,43.99181 L 59.696527,15.045682 z "
       style="fill:#d8cf4d;fill-opacity:1;stroke:black;stroke-width:1.89162207;stroke-miterlimit:4;stroke-dasharray:none;stroke-dashoffset:0;stroke-opacity:1"
       id="path17950" />
    <path
       style="fill:#fcef3c;fill-opacity:1;fill-rule:evenodd;stroke:black;stroke-width:2.5005374;stroke-linecap:butt;stroke-linejoin:miter;stroke-miterlimit:4;stroke-dasharray:none;stroke-opacity:1;display:inline"
       d="M 302.33583,480.20481 C 313.49244,496.32261 329.30367,502.14048 346.79788,502.14047 C 375.34594,502.14045 384.85444,472.99569 413.4025,472.99569 C 441.95055,472.99569 451.47877,502.14048 480.02682,502.14047 C 504.2057,502.14047 512.79039,481.23412 532.78865,474.83476 C 536.40244,473.67837 577.4742,395.95923 574.51425,393.67323 C 568.85621,389.30349 559.43665,384.01472 546.63143,384.01472 C 518.08338,384.01472 508.57494,413.12515 480.02682,413.12514 C 451.47877,413.12514 441.95055,384.01471 413.4025,384.01472 C 384.85443,384.01472 375.34594,413.12515 346.79788,413.12514 C 327.27218,413.12514 300.51794,375.12643 300.80796,391.89016 L 302.33583,480.20481 z "
       id="path2965"
       sodipodi:nodetypes="csssssssssss" />
    <g
       id="g5921"
       transform="matrix(0.892949,0,0,0.877715,295.7906,24.65886)"
       style="fill:#e20909;fill-opacity:1">
      <g
         style="fill:#e20909;fill-opacity:1;stroke:black;stroke-width:2.13908625;stroke-miterlimit:4;stroke-dasharray:none;stroke-opacity:1"
         transform="matrix(1.402468,0,0,1.402468,-251.0844,86.72511)"
         id="g5923">
        <path
           sodipodi:nodetypes="cccccccc"
           id="path5925"
           d="M 35.655879,187.73374 C 46.289611,160.5332 104.32956,160.21248 101.01525,202.00778 L 93.419169,274.36216 L 72.490552,274.27413 L 72.723007,270.69444 L 68.369609,270.03696 C 68.91814,255.90851 69.072011,225.38808 71.901154,210.31775 C 73.802917,187.59666 47.349857,178.73738 35.655879,187.73374 z "
           style="opacity:1;color:black;fill:#e20909;fill-opacity:1;fill-rule:evenodd;stroke:black;stroke-width:2.13908625;stroke-linecap:butt;stroke-linejoin:miter;marker:none;marker-start:none;marker-mid:none;marker-end:none;stroke-miterlimit:4;stroke-dasharray:none;stroke-dashoffset:0;stroke-opacity:1;visibility:visible;display:inline;overflow:visible" />
        <path
           sodipodi:nodetypes="ccc"
           id="path5927"
           d="M 95.512643,194.03693 C 92.276589,203.5241 91.552199,208.44098 93.883974,216.14603 L 95.512643,194.03693 z "
           style="opacity:1;color:black;fill:#e20909;fill-opacity:1;fill-rule:evenodd;stroke:black;stroke-width:2.13908625;stroke-linecap:butt;stroke-linejoin:round;marker:none;marker-start:none;marker-mid:none;marker-end:none;stroke-miterlimit:4;stroke-dasharray:none;stroke-dashoffset:0;stroke-opacity:1;visibility:visible;display:inline;overflow:visible" />
      </g>
      <path
         style="color:black;fill:#e20909;fill-opacity:1;fill-rule:evenodd;stroke:black;stroke-width:3;stroke-linecap:butt;stroke-linejoin:miter;marker:none;marker-start:none;marker-mid:none;marker-end:none;stroke-miterlimit:4;stroke-dasharray:none;stroke-dashoffset:0;stroke-opacity:1;visibility:visible;display:inline;overflow:visible"
         d="M -149.33917,471.25076 L -118.25034,471.64429 C -108.65625,578.51001 -118.86046,606.17061 -88.997769,627.4555 L -134.69433,626.07581 C -159.4677,612.47457 -135.89636,525.74585 -149.33917,471.25076 z "
         id="path5929"
         sodipodi:nodetypes="ccccc" />
      <path
         sodipodi:type="arc"
         style="color:black;fill:#e20909;fill-opacity:1;fill-rule:evenodd;stroke:black;stroke-width:1.39589858;stroke-linecap:butt;stroke-linejoin:round;marker:none;marker-start:none;marker-mid:none;marker-end:none;stroke-miterlimit:4;stroke-dasharray:none;stroke-dashoffset:0;stroke-opacity:1;visibility:visible;display:inline;overflow:visible"
         id="path5931"
         sodipodi:cx="82.936508"
         sodipodi:cy="264.36508"
         sodipodi:rx="1.1904762"
         sodipodi:ry="1.1904762"
         d="M 84.126984 264.36508 A 1.1904762 1.1904762 0 1 1  81.746032,264.36508 A 1.1904762 1.1904762 0 1 1  84.126984 264.36508 z"
         transform="matrix(7.407282,0,0,7.407282,-754.1578,-1472.658)" />
    </g>
    <path
       style="fill:#e3d83b;fill-opacity:1;stroke:black;stroke-width:3;stroke-miterlimit:4;stroke-opacity:1"
       d="M 1.2790698,104.48837 L 300.58141,104.48837 L 300.58141,182.51163 L 1.2790698,182.51163 L 1.2790698,104.48837 z "
       id="rect2031" />
  </g>
  <g
     inkscape:groupmode="layer"
     id="layer4"
     inkscape:label="Meubles"
     sodipodi:insensitive="true" />
  <g
     inkscape:groupmode="layer"
     id="layer2"
     inkscape:label="Reflet final"
     sodipodi:insensitive="true">
    <path
       sodipodi:nodetypes="cccccc"
       d="M 300.00001,658.5 C 300.00001,658.5 598.50001,546.17969 598.50001,260.72817 C 598.50001,-24.723334 598.50001,2.1764865 598.50001,2.1764865 L 1.5,2.1764865 L 1.5,260.72817 C 1.5,546.17969 300.00001,658.5 300.00001,658.5 z "
       style="opacity:1;fill:url(#radialGradient3163);fill-opacity:1;fill-rule:evenodd;stroke:none;stroke-width:1px;stroke-linecap:butt;stroke-linejoin:miter;stroke-opacity:1"
       id="path2875"
       inkscape:export-xdpi="144"
       inkscape:export-ydpi="144" />
  </g>
  <g
     inkscape:groupmode="layer"
     id="layer1"
     inkscape:label="Contour final"
     sodipodi:insensitive="true">
    <path
       sodipodi:nodetypes="cccccc"
       d="M 299.99999,658.50028 C 299.99999,658.50028 1.5,546.17992 1.5,260.72828 C 1.5,-24.723336 1.5,2.1764957 1.5,2.1764957 L 598.49999,2.1764957 L 598.49999,260.72828 C 598.49999,546.17992 299.99999,658.50028 299.99999,658.50028 z "
       style="opacity:1;fill:none;fill-opacity:1;fill-rule:evenodd;stroke:#000000;stroke-width:3.00000048;stroke-linecap:butt;stroke-linejoin:miter;stroke-miterlimit:4;stroke-dasharray:none;stroke-opacity:1"
       id="path1411"
       inkscape:export-xdpi="144"
       inkscape:export-ydpi="144" />
  </g>
</svg>
