<?xml version="1.0" encoding="UTF-8" standalone="no"?>
<!-- Created with Inkscape (http://www.inkscape.org/) -->
<svg
   xmlns:dc="http://purl.org/dc/elements/1.1/"
   xmlns:cc="http://creativecommons.org/ns#"
   xmlns:rdf="http://www.w3.org/1999/02/22-rdf-syntax-ns#"
   xmlns:svg="http://www.w3.org/2000/svg"
   xmlns="http://www.w3.org/2000/svg"
   xmlns:xlink="http://www.w3.org/1999/xlink"
   xmlns:sodipodi="http://sodipodi.sourceforge.net/DTD/sodipodi-0.dtd"
   xmlns:inkscape="http://www.inkscape.org/namespaces/inkscape"
   version="1.0"
   width="600"
   height="660"
   id="svg2"
   sodipodi:version="0.32"
   inkscape:version="0.46"
   sodipodi:docname="GerbaisSonnaz.svg"
   inkscape:output_extension="org.inkscape.output.svg.inkscape">
  <metadata
     id="metadata50">
    <rdf:RDF>
      <cc:Work
         rdf:about="">
        <dc:format>image/svg+xml</dc:format>
        <dc:type
           rdf:resource="http://purl.org/dc/dcmitype/StillImage" />
      </cc:Work>
    </rdf:RDF>
  </metadata>
  <sodipodi:namedview
     inkscape:window-height="669"
     inkscape:window-width="1074"
     inkscape:pageshadow="2"
     inkscape:pageopacity="0.0"
     guidetolerance="10.0"
     gridtolerance="10.0"
     objecttolerance="10.0"
     borderopacity="1.0"
     bordercolor="#666666"
     pagecolor="#ffffff"
     id="base"
     showgrid="false"
     inkscape:zoom="0.7"
     inkscape:cx="346.07424"
     inkscape:cy="364.17219"
     inkscape:window-x="46"
     inkscape:window-y="46"
     inkscape:current-layer="svg2" />
  <desc
     id="desc4">Flag of Canton of Valais (Wallis)</desc>
  <defs
     id="defs6">
    <radialGradient
       inkscape:collect="always"
       xlink:href="#linearGradient2893"
       id="radialGradient72587"
       gradientUnits="userSpaceOnUse"
       gradientTransform="matrix(1.353218,0,0,1.348928,-74.204444,-87.795194)"
       cx="221.44487"
       cy="226.33101"
       fx="221.44487"
       fy="226.33101"
       r="300" />
    <inkscape:perspective
       sodipodi:type="inkscape:persp3d"
       inkscape:vp_x="0 : 330 : 1"
       inkscape:vp_y="0 : 1000 : 0"
       inkscape:vp_z="600 : 330 : 1"
       inkscape:persp3d-origin="300 : 220 : 1"
       id="perspective52" />
    <linearGradient
       id="linearGradient2893">
      <stop
         id="stop2895"
         style="stop-color:#ffffff;stop-opacity:0.3137255"
         offset="0" />
      <stop
         id="stop2897"
         style="stop-color:#ffffff;stop-opacity:0.25098041"
         offset="0.19" />
      <stop
         id="stop2901"
         style="stop-color:#6b6b6b;stop-opacity:0.1254902"
         offset="0.60000002" />
      <stop
         id="stop2899"
         style="stop-color:#000000;stop-opacity:0.1254902"
         offset="1" />
    </linearGradient>
    <linearGradient
       id="linearGradient2885">
      <stop
         id="stop2887"
         style="stop-color:#ffffff;stop-opacity:1"
         offset="0" />
      <stop
         id="stop2891"
         style="stop-color:#ffffff;stop-opacity:1"
         offset="0.22857143" />
      <stop
         id="stop2889"
         style="stop-color:#000000;stop-opacity:1"
         offset="1" />
    </linearGradient>
    <linearGradient
       id="linearGradient2955">
      <stop
         id="stop2867"
         style="stop-color:#fd0000;stop-opacity:1"
         offset="0" />
      <stop
         id="stop2873"
         style="stop-color:#e77275;stop-opacity:0.65882355"
         offset="0.5" />
      <stop
         id="stop2959"
         style="stop-color:#000000;stop-opacity:0.32291666"
         offset="1" />
    </linearGradient>
    <radialGradient
       cx="225.52438"
       cy="218.90099"
       r="300"
       fx="225.52438"
       fy="218.90099"
       id="radialGradient2961"
       xlink:href="#linearGradient2955"
       gradientUnits="userSpaceOnUse"
       gradientTransform="matrix(-4.167939e-4,2.182867,-1.884232,-3.599562e-4,615.5972,-289.1214)" />
    <polygon
       points="0,-1 0.58778525,0.80901699 -0.95105652,-0.30901699 0.95105652,-0.30901699 -0.58778525,0.80901699 0,-1 "
       transform="scale(53,53)"
       id="star" />
    <clipPath
       id="clip">
      <path
         d="M 0,-200 L 0,600 L 300,600 L 300,-200 L 0,-200 z"
         id="path10" />
    </clipPath>
    <radialGradient
       cx="225.52438"
       cy="218.90099"
       r="300"
       fx="225.52438"
       fy="218.90099"
       id="radialGradient1911"
       xlink:href="#linearGradient2955"
       gradientUnits="userSpaceOnUse"
       gradientTransform="matrix(-4.167939e-4,2.182867,-1.884232,-3.599562e-4,615.5972,-289.1214)" />
    <radialGradient
       cx="225.52438"
       cy="218.90099"
       r="300"
       fx="225.52438"
       fy="218.90099"
       id="radialGradient2865"
       xlink:href="#linearGradient2955"
       gradientUnits="userSpaceOnUse"
       gradientTransform="matrix(0,1.748721,-1.593162,-1.049767e-7,551.7876,-191.2898)" />
    <radialGradient
       cx="225.52438"
       cy="218.90099"
       r="300"
       fx="225.52438"
       fy="218.90099"
       id="radialGradient2871"
       xlink:href="#linearGradient2955"
       gradientUnits="userSpaceOnUse"
       gradientTransform="matrix(0,1.386237,-1.323286,-5.741131e-8,-158.0823,-109.5408)" />
    <radialGradient
       cx="221.44487"
       cy="226.33101"
       r="300"
       fx="221.44487"
       fy="226.33101"
       id="radialGradient3163"
       xlink:href="#linearGradient2893"
       gradientUnits="userSpaceOnUse"
       gradientTransform="matrix(1.353218,0,0,1.348928,-77.62935,-85.74693)" />
    <radialGradient
       inkscape:collect="always"
       xlink:href="#linearGradient2893"
       id="radialGradient2426"
       gradientUnits="userSpaceOnUse"
       gradientTransform="matrix(1.353218,0,0,1.348928,584.37064,-90.31836)"
       cx="221.44487"
       cy="226.33101"
       fx="221.44487"
       fy="226.33101"
       r="300" />
  </defs>
  <path
     style="fill:#ffffff;fill-opacity:1;fill-rule:evenodd;stroke:#000000;stroke-width:3.00706053;stroke-linecap:butt;stroke-linejoin:miter;stroke-miterlimit:4;stroke-dasharray:none;stroke-opacity:1;display:inline"
     id="path3979"
     d="M 599.00643,2.0847241 C 298.36512,0.93813788 298.43447,1.228212 298.43447,1.228212 L 298.20624,303.81165 C 298.20624,303.81165 597.12189,304.95843 597.12189,304.95843 C 601.38346,253.48593 599.32066,105.58415 599.00643,2.0847241 z" />
  <path
     style="fill:#ffffff;fill-rule:evenodd;stroke:#000000;stroke-width:1;stroke-linecap:butt;stroke-linejoin:miter;stroke-miterlimit:4;stroke-dasharray:none;stroke-opacity:1;fill-opacity:1"
     id="path3985"
     d="M 3.0901914,301.5378 C 299.74856,299.99271 300.52111,299.99271 300.52111,299.99271 L 300.52111,657.68236 C 217.06467,620.50388 23.863565,518.9357 3.0901914,301.5378 z" />
  <path
     style="fill:#2b5df2;fill-opacity:1;fill-rule:evenodd;stroke:#000000;stroke-width:2.5;stroke-linecap:butt;stroke-linejoin:miter;stroke-miterlimit:4;stroke-dasharray:none;stroke-opacity:1;display:inline"
     id="path3987"
     d="M 596.57395,300.25701 C 299.91558,298.71192 299.14303,298.71192 299.14303,298.71192 L 299.14303,656.40157 C 382.59947,619.22309 575.80058,517.65491 596.57395,300.25701 z" />
  <path
     style="fill:#ffffff;fill-opacity:1;fill-rule:evenodd;stroke:#000000;stroke-width:2.9889307;stroke-linecap:butt;stroke-linejoin:miter;stroke-miterlimit:4;stroke-dasharray:none;stroke-opacity:1"
     d="M 596.57697,300.84292 C 590.83488,375.63539 564.99539,415.14838 564.99539,415.14838 L 300.14082,415.14838 L 299.42304,300.13733 L 596.57697,300.84292 z"
     id="path3227"
     sodipodi:nodetypes="ccccc" />
  <path
     style="fill:#e20909;fill-rule:evenodd;stroke:#000000;stroke-width:2.99287701;stroke-linecap:butt;stroke-linejoin:miter;stroke-miterlimit:4;stroke-dasharray:none;stroke-opacity:1;display:inline"
     id="path7488"
     d="M 467.87137,115.53946 C 576.75433,115.53946 598.66078,115.16994 598.66078,115.16994 L 597.13265,171.0105 L 467.87137,171.04162 L 467.95004,299.34028 L 420.73301,299.05907 L 420.0691,171.70235 L 300.21927,171.99359 C 300.67162,151.96153 300.24535,135.47547 300.50269,116.86093 L 420.0691,116.2002 L 419.32651,2.5618127 L 468.04138,2.740273 L 467.87137,115.53946 z" />
  <path
     style="fill:#e20909;fill-rule:evenodd;stroke:#000000;stroke-width:3;stroke-linecap:butt;stroke-linejoin:miter;stroke-miterlimit:4;stroke-dasharray:none;stroke-opacity:1;display:inline"
     id="path2636"
     d="M 131.7415,413.42281 C 39.569045,413.42281 33.999742,413.42281 33.999742,413.42281 C 41.297662,432.687 53.025474,450.84372 64.116926,469.15953 L 131.7415,469.1908 L 132.4054,549.68353 C 147.19191,566.98678 163.15455,577.2333 178.87873,588.91051 L 179.54263,469.8547 L 299.38959,470.51861 C 299.30854,452.24705 299.7348,433.4543 299.47747,414.75061 L 179.54263,414.08671 L 179.17134,301.3892 L 131.57149,301.56851 L 131.7415,413.42281 z" />
  <g
     id="layer4" />
  <path
     style="fill:#2b5df2;fill-rule:evenodd;stroke:#000000;stroke-width:3;stroke-linecap:butt;stroke-linejoin:miter;stroke-miterlimit:4;stroke-dasharray:none;stroke-opacity:1;fill-opacity:1"
     id="path3953"
     d="M 1.5757851,2.0398779 C 299.87889,2.0398779 299.58338,1.4200074 299.58338,1.4200074 L 300.48994,300.2439 C 300.48994,300.2439 3.4470846,301.37728 3.4470846,301.37728 C -0.7845603,250.50576 1.2637563,104.33088 1.5757851,2.0398779 z" />
  <path
     style="fill:#ffffff;fill-opacity:1;fill-rule:evenodd;stroke:#000000;stroke-width:2;stroke-linecap:butt;stroke-linejoin:miter;stroke-miterlimit:4;stroke-dasharray:none;stroke-opacity:1"
     d="M 300.57261,1.1416743 L 300.57261,115.42975 L 1.9988186,115.42975 L 1.27095,1.85596 L 300.57261,1.1416743 z"
     id="path3229"
     sodipodi:nodetypes="ccccc" />
  <g
     id="layer1">
    <path
       d="M 299.99999,658.50028 C 299.99999,658.50028 1.5,546.17992 1.5,260.72828 C 1.5,-24.723336 1.5,2.1764957 1.5,2.1764957 L 598.49999,2.1764957 L 598.49999,260.72828 C 598.49999,546.17992 299.99999,658.50028 299.99999,658.50028 z"
       id="path1411"
       style="opacity:1;fill:none;fill-opacity:1;fill-rule:evenodd;stroke:#000000;stroke-width:3.00000048;stroke-linecap:butt;stroke-linejoin:miter;stroke-miterlimit:4;stroke-dasharray:none;stroke-opacity:1" />
  </g>
  <path
     d="M 356.42857,318.25292 L 365.61301,344.72038 L 394.89245,344.6882 L 371.12035,361.12991 L 380.20056,387.46136 L 356.32416,371.15545 L 332.65658,387.46136 L 341.67225,360.94204 L 317.96468,344.68819 L 347.41308,344.60426 L 356.42857,318.25292 z"
     style="fill:#e20909;fill-opacity:1;stroke:#000000;stroke-width:2.5;stroke-miterlimit:4;stroke-dasharray:none;stroke-dashoffset:0;stroke-opacity:1"
     id="path8347" />
  <path
     d="M 447.49999,318.25292 L 456.68443,344.72038 L 485.96387,344.6882 L 462.19177,361.12991 L 471.27198,387.46136 L 447.39558,371.15545 L 423.728,387.46136 L 432.74367,360.94204 L 409.0361,344.68819 L 438.4845,344.60426 L 447.49999,318.25292 z"
     style="fill:#e20909;fill-opacity:1;stroke:#000000;stroke-width:2.5;stroke-miterlimit:4;stroke-dasharray:none;stroke-dashoffset:0;stroke-opacity:1"
     id="path3346" />
  <path
     d="M 538.57144,318.25292 L 547.75588,344.72038 L 577.03532,344.6882 L 553.26322,361.12991 L 562.34343,387.46136 L 538.46703,371.15545 L 514.79945,387.46136 L 523.81512,360.94204 L 500.10755,344.68819 L 529.55595,344.60426 L 538.57144,318.25292 z"
     style="fill:#e20909;fill-opacity:1;stroke:#000000;stroke-width:2.5;stroke-miterlimit:4;stroke-dasharray:none;stroke-dashoffset:0;stroke-opacity:1"
     id="path3348" />
  <path
     d="M 58.928572,22.749991 L 68.113012,49.217451 L 97.392451,49.185271 L 73.620351,65.62698 L 82.700561,91.958431 L 58.824162,75.652521 L 35.156582,91.958431 L 44.172252,65.43911 L 20.464682,49.185261 L 49.913082,49.101331 L 58.928572,22.749991 z"
     style="fill:#e20909;fill-opacity:1;stroke:#000000;stroke-width:2.5;stroke-miterlimit:4;stroke-dasharray:none;stroke-dashoffset:0;stroke-opacity:1"
     id="path3350" />
  <path
     d="M 151.42858,22.749991 L 160.61302,49.217451 L 189.89246,49.185271 L 166.12036,65.62698 L 175.20057,91.958431 L 151.32417,75.652521 L 127.65659,91.958431 L 136.67226,65.43911 L 112.96469,49.185261 L 142.41309,49.101331 L 151.42858,22.749991 z"
     style="fill:#e20909;fill-opacity:1;stroke:#000000;stroke-width:2.5;stroke-miterlimit:4;stroke-dasharray:none;stroke-dashoffset:0;stroke-opacity:1"
     id="path3352" />
  <path
     d="M 243.92857,22.749991 L 253.11301,49.217451 L 282.39245,49.185271 L 258.62035,65.626981 L 267.70056,91.958431 L 243.82416,75.652521 L 220.15658,91.958431 L 229.17225,65.43911 L 205.46468,49.185261 L 234.91308,49.101331 L 243.92857,22.749991 z"
     style="fill:#e20909;fill-opacity:1;stroke:#000000;stroke-width:2.5;stroke-miterlimit:4;stroke-dasharray:none;stroke-dashoffset:0;stroke-opacity:1"
     id="path3354" />
  <path
     style="fill:none;fill-rule:evenodd;stroke:#000000;stroke-width:3;stroke-linecap:butt;stroke-linejoin:miter;stroke-miterlimit:4;stroke-dasharray:none;stroke-opacity:1"
     d="M 299.42857,2.0000005 L 299.42857,660 L 293.71428,652.85714"
     id="path3366" />
  <path
     id="path7230"
     style="font-size:12px;fill:url(#radialGradient72587);fill-rule:evenodd"
     d="M 300.85714,657.07143 C 300.85714,657.07143 599.35716,544.75112 599.35716,259.2996 C 599.35716,-26.1519 599.35716,0.7479197 599.35716,0.7479197 L 2.3571257,0.7479197 L 2.3571257,259.2996 C 2.3571257,544.75112 300.85714,657.07143 300.85714,657.07143 z" />
</svg>
