<?xml version="1.0" encoding="UTF-8" standalone="no"?>
<svg
   xmlns:dc="http://purl.org/dc/elements/1.1/"
   xmlns:cc="http://creativecommons.org/ns#"
   xmlns:rdf="http://www.w3.org/1999/02/22-rdf-syntax-ns#"
   xmlns:svg="http://www.w3.org/2000/svg"
   xmlns="http://www.w3.org/2000/svg"
   xmlns:xlink="http://www.w3.org/1999/xlink"
   xmlns:sodipodi="http://sodipodi.sourceforge.net/DTD/sodipodi-0.dtd"
   xmlns:inkscape="http://www.inkscape.org/namespaces/inkscape"
   height="660"
   width="600"
   version="1.0"
   id="svg2"
   sodipodi:version="0.32"
   inkscape:version="0.46"
   sodipodi:docname="Blason_couffy41-A.svg"
   sodipodi:docbase="D:\Mes documents\Renaud-Notre Lapin"
   inkscape:export-filename="/Users/olivier/Desktop/Blason Rouge/Blason_Vide_3D.png"
   inkscape:export-xdpi="144"
   inkscape:export-ydpi="144"
   inkscape:output_extension="org.inkscape.output.svg.inkscape">
  <metadata
     id="metadata49">
    <rdf:RDF>
      <cc:Work
         rdf:about="">
        <dc:format>image/svg+xml</dc:format>
        <dc:type
           rdf:resource="http://purl.org/dc/dcmitype/StillImage" />
        <dc:title>Gabarit d'un blason en pointe pour le projet Blasons de Wikipédia</dc:title>
        <dc:date>03-AUG-2006</dc:date>
        <dc:creator>
          <cc:Agent>
            <dc:title>Jérôme BLUM (wagner51)</dc:title>
          </cc:Agent>
        </dc:creator>
        <cc:license
           rdf:resource="http://web.resource.org/cc/PublicDomain" />
        <dc:language>fr</dc:language>
        <dc:subject>
          <rdf:Bag>
            <rdf:li>gabarit modèle blason projet wikipédia</rdf:li>
          </rdf:Bag>
        </dc:subject>
      </cc:Work>
      <cc:License
         rdf:about="http://web.resource.org/cc/PublicDomain">
        <cc:permits
           rdf:resource="http://web.resource.org/cc/Reproduction" />
        <cc:permits
           rdf:resource="http://web.resource.org/cc/Distribution" />
        <cc:permits
           rdf:resource="http://web.resource.org/cc/DerivativeWorks" />
      </cc:License>
    </rdf:RDF>
  </metadata>
  <sodipodi:namedview
     inkscape:window-height="975"
     inkscape:window-width="1280"
     inkscape:pageshadow="2"
     inkscape:pageopacity="0.0"
     guidetolerance="10.0"
     gridtolerance="10.0"
     objecttolerance="10.0"
     borderopacity="1.0"
     bordercolor="#666666"
     pagecolor="#ffffff"
     id="base"
     showgrid="false"
     height="660px"
     inkscape:zoom="1.4765208"
     inkscape:cx="136.08613"
     inkscape:cy="410.64961"
     inkscape:window-x="-4"
     inkscape:window-y="-4"
     inkscape:current-layer="layer4"
     inkscape:object-nodes="true" />
  <desc
     id="desc4">Flag of Canton of Valais (Wallis)</desc>
  <defs
     id="defs6">
    <linearGradient
       id="linearGradient2893">
      <stop
         style="stop-color:white;stop-opacity:0.3137255;"
         offset="0"
         id="stop2895" />
      <stop
         id="stop2897"
         offset="0.19"
         style="stop-color:white;stop-opacity:0.25098041;" />
      <stop
         style="stop-color:#6b6b6b;stop-opacity:0.1254902;"
         offset="0.60000002"
         id="stop2901" />
      <stop
         style="stop-color:black;stop-opacity:0.1254902;"
         offset="1"
         id="stop2899" />
    </linearGradient>
    <radialGradient
       inkscape:collect="always"
       xlink:href="#linearGradient2893"
       id="radialGradient3163"
       gradientUnits="userSpaceOnUse"
       gradientTransform="matrix(1.353218,0,0,1.348928,-77.62935,-85.74693)"
       cx="221.44487"
       cy="226.33101"
       fx="221.44487"
       fy="226.33101"
       r="300" />
    <g
       id="s-4">
      <g
         id="c-6">
        <path
           transform="matrix(0.951057,0.309017,-0.309017,0.951057,0,-1)"
           d="M 0,0 L 0,1 L 0.5,1 L 0,0 z"
           id="t-0" />
        <use
           height="540"
           width="810"
           y="0"
           x="0"
           id="use2144-7"
           transform="scale(-1,1)"
           xlink:href="#t-0" />
      </g>
      <g
         id="a-1">
        <use
           height="540"
           width="810"
           y="0"
           x="0"
           id="use2147-7"
           transform="matrix(0.309017,0.951057,-0.951057,0.309017,0,0)"
           xlink:href="#c-6" />
        <use
           height="540"
           width="810"
           y="0"
           x="0"
           id="use2149-7"
           transform="matrix(-0.809017,0.587785,-0.587785,-0.809017,0,0)"
           xlink:href="#c-6" />
      </g>
      <use
         height="540"
         width="810"
         y="0"
         x="0"
         id="use2151-7"
         transform="scale(-1,1)"
         xlink:href="#a-1" />
    </g>
    <g
       id="f">
      <rect
         id="rect1964"
         style="fill:#28166f"
         y="-30"
         x="-50"
         height="60"
         width="100" />
      <g
         id="g1966"
         style="fill:#ffffff"
         transform="translate(0,-20)">
        <path
           id="path1968"
           d="M -1.2116,27.8178 C -1.2116,22.1752 -2.0914,20.4715 -4.5417,13.9804 C -5.709,10.8879 -5.0241,7.1025 -2.8585,3.6009 C -2.0824,2.346 -1.1136,1.2135 0,0 C 1.1136,1.2135 2.0824,2.346 2.8585,3.6009 C 5.0241,7.1025 5.709,10.8879 4.5417,13.9804 C 2.0914,20.4715 1.2116,22.1752 1.2116,27.8178 L -1.2116,27.8178 z" />
        <path
           id="rwi"
           d="M 2.9221,27.6725 C 2.9221,21.7209 5.2387,17.8293 8.5007,16.6604 C 9.9492,16.1414 11.8076,16.3869 13.5193,18.107 C 15.6379,20.236 16.2551,26.1004 10.0355,27.2283 C 10.6938,26.2724 10.6546,24.1467 9.3215,23.4409 C 8.3311,22.9165 7.209,23.1877 6.6462,23.5643 C 5.8225,24.1156 4.9171,25.6702 4.9672,27.6725 L 2.9221,27.6725 z" />
        <path
           id="path1971"
           d="M 1.7773,30.1835 C 1.7899,32.1913 2.7952,33.5181 4.5165,34.257 C 4.2948,34.9549 3.2566,36.3776 1.8314,36.2812 C 1.5499,37.787 1.2822,38.6324 0,40 C -1.2822,38.6324 -1.5499,37.787 -1.8314,36.2812 C -3.2566,36.3776 -4.2948,34.9549 -4.5165,34.257 C -2.7952,33.5181 -1.7899,32.1913 -1.7773,30.1835 L 1.7773,30.1835 z" />
        <use
           xlink:href="#rwi"
           height="400"
           width="800"
           y="0"
           x="0"
           id="use1973"
           transform="scale(-1,1)" />
        <rect
           id="rect1975"
           y="27.33077"
           x="-7.9229999"
           height="3.2179999"
           width="15.846" />
      </g>
    </g>
    <g
       id="s">
      <g
         id="c">
        <path
           transform="matrix(0.951057,0.309017,-0.309017,0.951057,0,-1)"
           d="M 0,0 L 0,1 L 0.5,1 L 0,0 z"
           id="t" />
        <use
           height="540"
           width="810"
           y="0"
           x="0"
           id="use2144"
           transform="scale(-1,1)"
           xlink:href="#t" />
      </g>
      <g
         id="a">
        <use
           height="540"
           width="810"
           y="0"
           x="0"
           id="use2147"
           transform="matrix(0.309017,0.951057,-0.951057,0.309017,0,0)"
           xlink:href="#c" />
        <use
           height="540"
           width="810"
           y="0"
           x="0"
           id="use2149"
           transform="matrix(-0.809017,0.587785,-0.587785,-0.809017,0,0)"
           xlink:href="#c" />
      </g>
      <use
         height="540"
         width="810"
         y="0"
         x="0"
         id="use2151"
         transform="scale(-1,1)"
         xlink:href="#a" />
    </g>
  </defs>
  <g
     inkscape:groupmode="layer"
     id="layer3"
     inkscape:label="Fond écu"
     style="display:inline">
    <path
       id="path2855"
       style="fill:#2b5df2;fill-opacity:1;fill-rule:evenodd;stroke:none;stroke-width:1px;stroke-linecap:butt;stroke-linejoin:miter;stroke-opacity:1"
       d="M 300,658.5 C 300,658.5 598.50001,546.17969 598.50001,260.72817 C 598.50001,-24.723354 598.50001,2.1764765 598.50001,2.1764765 L 1.5,2.1764765 L 1.5,260.72817 C 1.5,546.17969 300,658.5 300,658.5 z"
       sodipodi:nodetypes="cccccc" />
    <g
       id="g3714"
       transform="translate(212.95033,-619.1589)" />
    <g
       id="layer9"
       inkscape:label="Fond d'écu"
       transform="translate(212.95033,-619.1589)">
      <g
         transform="matrix(2,0,0,2,-732.89186,-1853.1884)"
         inkscape:label="Meubles"
         id="g2807" />
      <g
         transform="matrix(2,0,0,2,1696.9763,-413.55025)"
         inkscape:label="Meubles"
         id="g4626" />
      <g
         id="g5271"
         inkscape:label="Meubles"
         transform="matrix(2,0,0,2,-732.89213,-453.18787)" />
      <g
         id="g5273"
         inkscape:label="Reflet final"
         transform="matrix(2,0,0,2,-732.89213,-453.18787)" />
      <g
         id="g5275"
         inkscape:label="Contour final"
         transform="matrix(2,0,0,2,-732.89213,-453.18787)" />
    </g>
    <g
       id="layer6"
       inkscape:label="Reflet final"
       transform="translate(212.95033,-619.1589)" />
    <g
       id="layer5"
       inkscape:label="Contour final"
       transform="translate(212.95033,-619.1589)" />
    <g
       transform="matrix(1.00209,0,0,1.00209,-1200.8102,-525.1856)"
       inkscape:label="Meubles"
       id="g3710">
      <g
         id="g2119"
         transform="translate(29.9149,-1710.96)"
         style="opacity:1">
        <g
           id="g11024"
           transform="translate(-1361.83,-74.8261)" />
      </g>
    </g>
    <g
       id="g2137"
       style="display:inline"
       transform="matrix(0.403203,0,0,0.386407,-1282.7652,-451.82439)" />
    <g
       id="g13226"
       inkscape:label="Meubles"
       transform="translate(-481.03171,-284.12494)" />
    <g
       transform="matrix(0.625,0,0,0.625,987.40305,782.84428)"
       style="stroke:#313131;stroke-width:2;display:inline"
       inkscape:label="Fond écu"
       id="g2898" />
    <g
       style="stroke:#313131;stroke-width:2"
       transform="matrix(0.625,0,0,0.625,987.40305,782.84428)"
       inkscape:label="Reflet final"
       id="g2930" />
    <g
       style="stroke:#313131;stroke-width:2"
       transform="matrix(0.625,0,0,0.625,987.40305,782.84428)"
       inkscape:label="Contour final"
       id="g2932" />
    <g
       id="g8012"
       inkscape:label="Fond écu"
       style="stroke:#313131;stroke-width:3.85096979;display:inline"
       transform="matrix(0.5193497,0,0,0.5193497,641.75777,740.97304)" />
    <g
       id="g8112"
       inkscape:label="Reflet final"
       style="stroke:#313131;stroke-width:3.85096979;display:inline"
       transform="matrix(0.5193497,0,0,0.5193497,641.75777,740.97304)" />
    <g
       style="stroke:#313131;stroke-width:3.85096979"
       id="g8114"
       inkscape:label="Contour final"
       transform="matrix(0.5193497,0,0,0.5193497,641.75777,740.97304)" />
  </g>
  <g
     inkscape:groupmode="layer"
     id="layer4"
     inkscape:label="Meubles">
    <g
       style="display:inline"
       id="g14998"
       transform="translate(-700,0)">
      <path
         sodipodi:nodetypes="cscsc"
         id="path14976"
         d="M 1180.3639,103.4135 C 1181.3894,93.591313 1186.3121,86.119141 1185.3641,79.66248 C 1184.2088,71.793682 1181.8749,69.076464 1180.9889,61.849212 C 1179.9878,69.39103 1175.7325,73.96477 1175.9887,79.974993 C 1176.2264,85.551646 1179.5962,90.977993 1180.3639,103.4135 z"
         style="opacity:1;fill:#e20909;fill-opacity:1;stroke:#000000;stroke-width:2.5;stroke-linecap:round;stroke-linejoin:round;stroke-miterlimit:4;stroke-dasharray:none;stroke-opacity:1" />
      <path
         sodipodi:nodetypes="ccccccccccccccccccc"
         id="path14978"
         d="M 1163.8002,176.22914 L 1152.2372,180.29182 C 1154.005,181.85593 1156.268,183.17244 1161.9251,182.79193 C 1153.8781,185.0388 1150.2143,191.37662 1136.924,188.72968 C 1140.6685,196.4235 1151.2791,193.0258 1159.7375,193.10487 C 1148.5815,195.09342 1147.5893,204.3004 1140.6742,209.04306 C 1156.5288,198.62128 1158.7183,201.65514 1168.4245,198.10509 C 1166.924,203.22985 1161.544,206.25704 1156.6124,210.29311 C 1163.463,209.04486 1170.4433,210.52227 1176.9257,201.54273 C 1180.1433,205.02382 1179.103,210.10166 1179.4258,214.6683 C 1183.8383,209.85349 1186.3027,204.87634 1185.9886,199.66765 C 1192.5952,207.74461 1202.756,204.65129 1211.9273,204.66787 C 1206.9269,202.08004 1201.9284,203.20633 1196.9266,196.85503 C 1208.3361,199.27212 1212.362,191.8521 1221.9277,193.10487 C 1216.5903,190.39036 1211.4433,196.41666 1202.2393,187.16711 C 1208.2797,189.55687 1213.3041,187.88258 1218.1775,185.60455 C 1206.1794,183.99828 1203.6843,179.85789 1196.9266,176.85417 L 1180.6825,159.42399 L 1163.8002,176.22914 z"
         style="opacity:1;fill:#e20909;fill-opacity:1;stroke:#000000;stroke-width:2.5;stroke-linecap:round;stroke-linejoin:round;stroke-miterlimit:4;stroke-dasharray:none;stroke-opacity:1" />
      <path
         sodipodi:nodetypes="cssscc"
         id="path14980"
         d="M 1162.528,187.59827 C 1166.0755,186.88512 1166.6118,193.60403 1173.1704,192.03258 C 1178.9306,190.65245 1185.9969,191.06882 1192.2379,192.62382 C 1194.4706,193.18012 1200.5353,187.52892 1196.82,186.41579 C 1194.8213,185.81695 1194.0155,184.65518 1191.2032,178.72965 C 1190.8201,181.88848 1190.7835,185.22051 1187.3602,186.85922"
         style="opacity:1;fill:#e20909;fill-opacity:1;stroke:#000000;stroke-width:2.5;stroke-linecap:round;stroke-linejoin:round;stroke-miterlimit:4;stroke-dasharray:none;stroke-opacity:1" />
      <path
         sodipodi:nodetypes="ccc"
         id="path14982"
         d="M 1171.8401,186.5636 C 1175.9927,183.9896 1175.6156,180.12016 1176.2744,174.14753 C 1178.0355,180.29829 1178.3127,185.47951 1180.7087,184.93768"
         style="opacity:1;fill:#e20909;fill-opacity:1;stroke:#000000;stroke-width:2.5;stroke-linecap:round;stroke-linejoin:round;stroke-miterlimit:4;stroke-dasharray:none;stroke-opacity:1" />
      <g
         id="g14988">
        <path
           style="opacity:1;fill:#fcef3c;fill-opacity:1;stroke:#000000;stroke-width:2.5;stroke-linecap:round;stroke-linejoin:round;stroke-miterlimit:4;stroke-dasharray:none;stroke-opacity:1"
           d="M 1180.4131,171.04351 L 1180.4131,124.07937 C 1180.4131,121.52107 1183.6426,122.58095 1186.4121,124.08315 C 1198.5852,130.6859 1230.5995,133.68369 1225.9349,105.86947 C 1224.2446,95.790518 1213.3251,97.141202 1206.8023,102.8813 C 1195.6303,112.71265 1181.8993,95.113537 1196.3766,84.426677 C 1220.4869,66.628966 1256.6948,87.72771 1238.3113,128.01154 C 1233.5329,138.48238 1230.9005,148.24351 1231.0969,158.50506 C 1231.4062,174.66297 1220.8068,176.76525 1212.3401,178.43403 C 1201.8182,180.50788 1191.0554,178.16413 1180.4131,171.04351 z"
           id="path14984"
           sodipodi:nodetypes="cssssssssc" />
        <path
           style="opacity:1;fill:none;fill-opacity:1;stroke:#000000;stroke-width:2.5;stroke-linecap:round;stroke-linejoin:round;stroke-miterlimit:4;stroke-dasharray:none;stroke-opacity:1"
           d="M 1201.3859,93.891554 C 1220.8824,77.410084 1249.1686,99.676729 1226.034,133.51758 C 1221.9758,139.45378 1220.6734,143.22437 1220.6734,148.45053 L 1220.6734,158.78873 C 1220.6734,167.19586 1215.8914,168.14185 1211.101,169.12693 C 1203.7568,170.73262 1194.9527,168.43846 1188.1272,164.53218 L 1188.1272,136.96365 C 1196.1578,142.26903 1218.1784,145.31602 1226.034,133.51758"
           id="path14986"
           sodipodi:nodetypes="cssscccs" />
      </g>
      <g
         transform="matrix(-1,0,0,1,2360.8262,0)"
         id="g14992">
        <path
           sodipodi:nodetypes="cssssssssc"
           id="path14994"
           d="M 1180.4131,171.04351 L 1180.4131,124.07937 C 1180.4131,121.52107 1183.6426,122.58095 1186.4121,124.08315 C 1198.5852,130.6859 1230.5995,133.68369 1225.9349,105.86947 C 1224.2446,95.790518 1213.3251,97.141202 1206.8023,102.8813 C 1195.6303,112.71265 1181.8993,95.113537 1196.3766,84.426677 C 1220.4869,66.628966 1256.6948,87.72771 1238.3113,128.01154 C 1233.5329,138.48238 1230.9005,148.24351 1231.0969,158.50506 C 1231.4062,174.66297 1220.8068,176.76525 1212.3401,178.43403 C 1201.8182,180.50788 1191.0554,178.16413 1180.4131,171.04351 z"
           style="opacity:1;fill:#fcef3c;fill-opacity:1;stroke:#000000;stroke-width:2.5;stroke-linecap:round;stroke-linejoin:round;stroke-miterlimit:4;stroke-dasharray:none;stroke-opacity:1" />
        <path
           sodipodi:nodetypes="cssscccs"
           id="path14996"
           d="M 1201.3859,93.891554 C 1220.8824,77.410084 1249.1686,99.676729 1226.034,133.51758 C 1221.9758,139.45378 1220.6734,143.22437 1220.6734,148.45053 L 1220.6734,158.78873 C 1220.6734,167.19586 1215.8914,168.14185 1211.101,169.12693 C 1203.7568,170.73262 1194.9527,168.43846 1188.1272,164.53218 L 1188.1272,136.96365 C 1196.1578,142.26903 1218.1784,145.31602 1226.034,133.51758"
           style="opacity:1;fill:none;fill-opacity:1;stroke:#000000;stroke-width:2.5;stroke-linecap:round;stroke-linejoin:round;stroke-miterlimit:4;stroke-dasharray:none;stroke-opacity:1" />
      </g>
    </g>
    <g
       id="g5570">
      <path
         sodipodi:nodetypes="ccc"
         d="M 143.15293,204.2304 C 121.96591,203.81718 124.00129,186.43243 116.67396,178.13494 C 134.49759,180.67696 134.55701,189.47478 146.35653,190.75977"
         id="path11367"
         style="fill:#fcef3c;fill-opacity:1;fill-rule:evenodd;stroke:#000000;stroke-width:2.5;stroke-linecap:butt;stroke-linejoin:miter;stroke-miterlimit:4;stroke-dasharray:none;stroke-opacity:1" />
      <path
         sodipodi:nodetypes="ccccss"
         d="M 145.99485,194.69758 C 139.56701,188.49217 135.76469,175.8452 139.91478,164.0311 C 141.36171,155.33315 139.66599,149.1887 131.32051,146.87335 C 128.22957,145.23249 130.55319,144.17303 131.94873,143.29531 C 151.37084,144.87425 152.68141,156.4353 151.97261,166.6196 C 151.64651,171.30495 154.41436,177.576 157.8521,183.29268"
         id="path11359"
         style="fill:#e20909;fill-opacity:1;fill-rule:evenodd;stroke:#000000;stroke-width:2.5;stroke-linecap:butt;stroke-linejoin:miter;stroke-miterlimit:4;stroke-dasharray:none;stroke-opacity:1;display:inline" />
      <path
         style="fill:#e20909;fill-opacity:1;fill-rule:evenodd;stroke:#000000;stroke-width:2.5;stroke-linecap:butt;stroke-linejoin:miter;stroke-miterlimit:4;stroke-dasharray:none;stroke-opacity:1;display:inline"
         id="path14909"
         d="M 128.6192,450.19676 L 117.26543,461.98071 C 122.08131,473.0323 122.50546,477.15874 135.37918,483.12409 C 137.05405,477.1881 136.76503,475.48944 136.77779,473.85411 C 140.69497,473.06143 144.74308,473.03266 143.43648,461.15272 C 141.97692,452.86872 127.83907,454.93027 128.6192,450.19676 z"
         sodipodi:nodetypes="cccccc" />
      <path
         sodipodi:nodetypes="ccccccscssc"
         d="M 174.51425,346.08494 C 165.84048,362.84976 160.59491,371.81208 127.80776,379.27897 C 117.25286,381.86805 118.38471,389.84823 116.89407,408.68695 C 114.21005,428.9403 107.90542,443.92639 117.26543,461.98071 C 121.54547,459.03789 130.71111,459.10159 129.36866,452.69878 C 126.84827,446.18 146.12919,449.23605 135.09876,438.59285 C 134.07688,437.31672 132.53338,438.02133 131.96796,436.46842 C 129.40056,429.4172 131.93722,417.23943 134.69035,402.68731 C 138.91707,397.77282 142.29049,395.10008 145.51476,395.9021 C 150.05065,397.03038 172.49485,392.97237 186.35726,395.85652 C 196.90834,398.05172 205.01553,390.96538 210.40266,386.27349"
         id="path11363"
         style="fill:#fcef3c;fill-opacity:1;fill-rule:evenodd;stroke:#000000;stroke-width:2.5;stroke-linecap:butt;stroke-linejoin:miter;stroke-miterlimit:4;stroke-dasharray:none;stroke-opacity:1;display:inline" />
      <path
         style="fill:#e20909;fill-opacity:1;fill-rule:evenodd;stroke:#000000;stroke-width:2.5;stroke-linecap:butt;stroke-linejoin:miter;stroke-miterlimit:4;stroke-dasharray:none;stroke-opacity:1;display:inline"
         id="path14913"
         d="M 338.4636,475.31286 C 328.9875,482.13651 319.1724,486.96438 321.6678,493.24609 C 324.7964,495.229 327.1459,497.52738 330.6039,492.31718 C 325.2539,505.30857 334.3548,503.72895 343.8728,501.0395 C 347.772,494.70824 349.2327,490.20013 351.027,485.3734 L 338.4636,475.31286 z"
         sodipodi:nodetypes="cccccc" />
      <path
         sodipodi:nodetypes="cccccscsscsccc"
         d="M 342.937,380.25068 C 330.1348,413.48551 349.6158,426.14317 365.1191,436.05906 C 373.7957,440.79641 359.6048,458.28504 353.1388,467.34402 C 349.2221,469.71735 343.3662,471.78255 338.4636,475.31286 C 339.1755,483.53258 345.8298,483.43304 351.027,485.3734 C 352.7872,484.07487 355.2616,482.72749 356.6969,483.53961 C 360.0964,485.463 361.6637,493.4792 364.7571,488.33328 C 373.0372,469.69308 380.1237,468.15565 382.0957,463.53624 C 386.2572,453.78775 391.1396,449.74313 395.6202,446.83639 C 404.0332,441.37847 401.7074,430.41794 399.0959,426.5874 C 395.6237,423.39999 393.4628,424.6412 388.904,416.2153 C 384.4446,407.97294 396.4882,401.36638 400.1943,397.28847 L 375.3997,368.17495 L 342.937,380.25068 z"
         id="path11365"
         style="fill:#fcef3c;fill-opacity:1;fill-rule:evenodd;stroke:#000000;stroke-width:2.5;stroke-linecap:butt;stroke-linejoin:miter;stroke-miterlimit:4;stroke-dasharray:none;stroke-opacity:1;display:inline" />
      <path
         style="fill:#e20909;fill-opacity:1;fill-rule:evenodd;stroke:#000000;stroke-width:2.5;stroke-linecap:butt;stroke-linejoin:miter;stroke-miterlimit:4;stroke-dasharray:none;stroke-opacity:1;display:inline"
         id="path14915"
         d="M 447.752,475.59723 C 442.2433,480.12234 437.2177,484.90371 436.2211,494.22401 C 439.9945,494.86189 446.8244,495.08999 448.4265,491.89678 C 446.9718,500.61299 457.6359,500.89519 466.1292,492.59645 C 461.4662,485.39641 466.4541,479.33965 468.8847,475.39525 L 447.752,475.59723 z"
         sodipodi:nodetypes="cccccc" />
      <path
         sodipodi:nodetypes="cscccsc"
         id="path14917"
         d="M 134.85949,259.25748 C 138.69578,261.3691 119.88512,279.42449 97.34038,279.68164 C 90.41446,279.76065 82.91423,283.40455 80.01741,290.04834 C 91.21281,282.96955 98.23133,285.98896 107.26949,284.12561 C 107.57147,288.07583 102.24832,293.67523 98.73711,298.74342 C 97.96869,300.14931 112.91041,292.57534 113.74235,285.71621 C 114.39538,280.3322 147.11133,264.34356 146.38063,266.3015"
         style="fill:#e20909;fill-opacity:1;stroke:#000000;stroke-width:2.5;stroke-linecap:round;stroke-linejoin:round;stroke-miterlimit:4;stroke-dasharray:none;stroke-opacity:1" />
      <path
         sodipodi:nodetypes="ccccsccccssssccssscsscccccccccccscsc"
         d="M 262.04974,399.74168 C 280.86261,399.96885 316.4064,393.83955 324.4462,400.63967 C 342.7988,381.69479 382.0845,379.15886 382.6015,383.72448 C 398.5105,413.24956 411.734,403.92602 434.8294,410.44185 C 441.2159,412.59068 452.0732,416.07494 454.6095,425.6899 C 458.4643,440.30302 463.1732,454.36836 461.5789,460.06193 C 458.5853,467.113 453.2722,471.09471 448.2649,475.17765 L 450.4628,482.22476 L 464.4795,484.09568 C 465.2503,480.6214 467.489,477.66009 468.8847,475.39525 C 472.6177,469.33743 479.804,487.08442 479.9165,475.16603 C 479.9735,469.24196 477.7457,458.39722 477.4292,453.2146 C 476.7443,441.99691 473.4399,423.8746 474.7322,418.84634 C 477.2796,408.93504 472.9152,398.55482 468.6082,396.83945 C 463.9473,396.13863 462.8068,395.80441 453.9415,392.17216 C 436.4034,385.38364 447.1759,363.17539 446.5446,345.01821 C 446.0498,330.78536 441.4768,298.61422 428.233,289.64171 C 405.3532,274.14088 405.6836,274.86172 393.8153,267.64725 C 375.9243,256.77173 371.7119,263.13758 341.0779,269.79006 C 329.8612,271.99667 271.52755,284.78563 249.89641,265.49039 C 241.3268,257.84618 229.52034,246.78817 222.07646,231.73022 C 215.60557,218.64048 216.44007,215.76743 208.07455,199.66725 C 201.66963,190.56843 203.6601,189.86164 194.85534,186.36244 C 181.72211,181.7302 182.42059,182.86734 177.45809,183.34877 C 168.99488,180.65994 165.10354,178.93617 157.8521,183.29268 C 152.81862,190.05106 149.0635,188.8857 146.35653,190.75977 C 138.44979,191.55125 142.09045,201.20392 141.32701,206.15336 C 136.65658,210.25267 130.82206,215.22181 133.69579,224.7098 C 130.61086,236.36942 124.98888,240.77005 118.71412,247.80855 C 115.05804,250.459 110.08341,273.46134 124.68507,270.3415 C 129.69971,276.37109 136.09085,277.55376 144.48981,273.43046 C 149.82456,270.15515 154.54019,266.58503 158.76636,266.6355 C 155.61181,279.16562 156.06246,280.99212 153.99255,292.16559 C 150.90992,308.80579 149.74621,332.69691 171.49112,363.92346 C 183.46931,378.77997 184.1037,388.46676 208.6927,398.35441 C 220.91903,403.27082 206.10025,405.63989 262.04974,399.74168 z"
         id="path11369"
         style="fill:#fcef3c;fill-opacity:1;fill-rule:evenodd;stroke:#000000;stroke-width:2.5;stroke-linecap:butt;stroke-linejoin:miter;stroke-miterlimit:4;stroke-dasharray:none;stroke-opacity:1;display:inline" />
      <path
         style="fill:#e20909;fill-opacity:1;fill-rule:evenodd;stroke:#000000;stroke-width:2.5;stroke-linecap:butt;stroke-linejoin:miter;stroke-miterlimit:4;stroke-dasharray:none;stroke-opacity:1;display:inline"
         id="path14911"
         d="M 235.51592,488.61543 C 230.35251,493.56179 226.00568,496.89059 224.29703,506.71951 C 237.87184,506.60982 236.6545,506.14995 238.62308,503.19007 C 240.20912,506.30266 243.86668,509.52793 255.49546,504.65655 C 259.39469,498.32529 258.50921,493.58795 255.94836,491.05343"
         sodipodi:nodetypes="ccccc" />
      <path
         sodipodi:nodetypes="csccccscscc"
         d="M 213.94595,333.24877 C 214.23745,349.4812 197.60801,355.5742 199.144,367.72052 C 203.94194,405.66172 221.03901,396.04636 224.64546,407.53618 C 233.84771,427.7069 258.16804,457.82292 239.54615,477.93247 C 236.747,480.16266 237.69608,486.52691 235.51592,488.61543 C 236.79127,496.19367 249.13307,490.24623 255.94836,491.05343 C 254.96303,480.05736 265.60148,482.60905 271.55227,486.64893 C 273.1076,487.70481 270.64212,484.33174 271.79547,481.54067 C 267.83212,471.32754 263.6718,467.26076 261.09369,447.51961 C 259.64526,436.42868 252.74975,414.60933 259.17165,391.69529 C 262.61782,379.05758 274.92368,387.30225 263.64544,356.58193"
         id="path11371"
         style="fill:#fcef3c;fill-opacity:1;fill-rule:evenodd;stroke:#000000;stroke-width:2.5;stroke-linecap:butt;stroke-linejoin:miter;stroke-miterlimit:4;stroke-dasharray:none;stroke-opacity:1;display:inline" />
      <path
         d="M 205.35958,199.02285 C 245.81425,193.11679 242.22188,203.86339 258.7469,211.27133 C 235.02478,223.63469 205.04838,208.85365 202.94222,208.96903"
         id="path11375"
         style="fill:#fcef3c;fill-opacity:1;fill-rule:evenodd;stroke:#000000;stroke-width:2.5;stroke-linecap:butt;stroke-linejoin:miter;stroke-miterlimit:4;stroke-dasharray:none;stroke-opacity:1"
         sodipodi:nodetypes="ccc" />
      <path
         sodipodi:nodetypes="csc"
         d="M 117.73589,251.385 C 116.77707,247.97304 118.7106,245.05199 120.83122,244.41061 C 122.84377,243.80192 125.02483,245.24644 125.06208,250.27314"
         id="path11381"
         style="fill:#fcef3c;stroke:#000000;stroke-width:2.5;stroke-linecap:butt;stroke-linejoin:miter;stroke-miterlimit:4;stroke-dasharray:none;stroke-opacity:1" />
      <path
         sodipodi:nodetypes="csc"
         d="M 131.50749,252.95063 C 133.98219,250.41505 137.20107,251.10666 138.54831,253.08744 C 139.82765,254.96838 139.41928,258.0118 135.08335,260.55819"
         id="path11383"
         style="fill:#fcef3c;stroke:#000000;stroke-width:2.5;stroke-linecap:butt;stroke-linejoin:miter;stroke-miterlimit:4;stroke-dasharray:none;stroke-opacity:1" />
      <g
         id="g11385"
         style="fill:#e20909;stroke:#000000;stroke-width:1.42866433;stroke-miterlimit:4;stroke-dasharray:none;stroke-opacity:1"
         transform="matrix(1.3166144,0,0,1.3166144,-102.31522,-46.186006)">
        <path
           sodipodi:nodetypes="cc"
           d="M 198.29768,237.59539 C 207.0055,234.23472 209.17617,239.06845 218.4047,232.06843"
           id="path11387"
           style="fill:none;stroke:#000000;stroke-width:1.42866433;stroke-linecap:butt;stroke-linejoin:miter;stroke-miterlimit:4;stroke-dasharray:none;stroke-opacity:1" />
      </g>
      <path
         sodipodi:nodetypes="ccscsccc"
         d="M 203.1275,200.03743 C 199.89592,202.32399 192.18715,193.39207 194.85534,186.36244 C 207.6772,186.00915 205.51645,176.49993 208.50598,170.80585 C 215.30686,157.85237 218.3122,153.09858 231.84608,157.86337 C 233.71596,158.70482 235.21087,162.65612 230.45672,162.60269 C 226.27556,162.5557 219.81935,167.3635 218.96209,176.24652 C 215.25004,197.82681 214.8383,200.25245 203.12747,200.03745 L 203.1275,200.03743 z"
         id="path11405"
         style="fill:#e20909;fill-opacity:1;fill-rule:evenodd;stroke:#000000;stroke-width:2.5;stroke-linecap:butt;stroke-linejoin:miter;stroke-miterlimit:4;stroke-dasharray:none;stroke-opacity:1;display:inline" />
      <path
         sodipodi:nodetypes="cc"
         id="path4343"
         d="M 136.77779,473.85411 C 137.8997,469.38061 131.90564,459.24116 130.90414,459.99229"
         style="fill:none;fill-opacity:1;stroke:#000000;stroke-width:2.5;stroke-linejoin:round;stroke-miterlimit:4;stroke-dasharray:none;stroke-opacity:1" />
      <path
         id="path4345"
         d="M 117.26543,461.98071 L 127.83318,457.68907 L 129.36866,452.69878"
         style="fill:none;fill-opacity:1;stroke:#000000;stroke-width:2.5;stroke-linejoin:round;stroke-miterlimit:4;stroke-dasharray:none;stroke-opacity:1" />
      <path
         id="path4347"
         d="M 238.62308,503.19007 L 238.1705,498.15037"
         style="fill:#e20909;fill-opacity:1;stroke:#000000;stroke-width:1.88100004;stroke-linejoin:round;stroke-miterlimit:4;stroke-dasharray:none;stroke-opacity:1" />
      <path
         id="path4353"
         d="M 330.6039,492.31718 L 336.2758,483.93885"
         style="fill:none;fill-opacity:1;stroke:#000000;stroke-width:2.5;stroke-linejoin:round;stroke-miterlimit:4;stroke-dasharray:none;stroke-opacity:1" />
      <path
         id="path4357"
         d="M 448.4265,491.89678 L 449.5095,488.06477"
         style="fill:#e20909;fill-opacity:1;stroke:#000000;stroke-width:1.88100004;stroke-linejoin:round;stroke-miterlimit:4;stroke-dasharray:none;stroke-opacity:1" />
      <path
         sodipodi:nodetypes="csssscssccccscsc"
         id="path4367"
         d="M 424.7256,287.5236 C 431.6854,289.93027 438.8893,294.16875 444.8046,292.56112 C 464.8428,287.11528 478.0177,300.09709 481.3577,313.58247 C 490.37,349.97056 487.5384,357.10231 492.8984,368.64242 C 494.9174,372.98948 500.6281,381.28373 504.153,384.53175 C 507.8808,387.9666 510.7894,390.00376 519.4151,388.33869 C 519.8498,390.94 514.3256,393.80653 511.9304,394.90994 C 507.332,397.02838 503.353,400.03998 514.3919,407.1454 C 522.6443,412.45731 540.491,412.52437 539.9268,431.78341 C 532.0899,420.85228 521.5758,418.32511 520.8266,431.74622 C 514.4407,432.06162 510.5426,430.3589 506.5319,425.55256 C 504.9259,429.22322 501.7228,433.66827 493.267,436.05307 C 493.8274,431.4665 503.7225,423.96694 496.7124,416.13608 C 492.4842,411.41262 487.1789,403.2864 490.8631,391.7957 C 485.3664,379.64898 478.2624,375.9842 478.756,358.5567 C 479.8707,318.533 462.7004,295.38075 435.0678,311.58742"
         style="fill:#fcef3c;fill-opacity:1;stroke:#000000;stroke-width:2.5;stroke-linejoin:round;stroke-miterlimit:4;stroke-dasharray:none;stroke-opacity:1" />
      <path
         sodipodi:nodetypes="cc"
         id="path4369"
         d="M 213.4012,207.23325 C 233.37288,201.48114 232.80803,206.93077 240.84117,207.69059"
         style="fill:none;fill-opacity:1;stroke:#000000;stroke-width:1.88100004;stroke-linejoin:round;stroke-miterlimit:4;stroke-dasharray:none;stroke-opacity:1" />
      <path
         sodipodi:nodetypes="ccc"
         id="path4371"
         d="M 181.47897,234.00709 C 181.94731,232.85819 176.63832,233.60304 171.55843,229.75231 C 176.31528,215.94765 187.1223,230.87737 196.02257,216.83723"
         style="fill:none;fill-opacity:1;stroke:#000000;stroke-width:2.50000000000000000;stroke-linejoin:round;stroke-miterlimit:4;stroke-dasharray:none;stroke-opacity:1" />
      <path
         style="fill:#e20909;fill-opacity:1;stroke:#000000;stroke-width:2.50000000000000000;stroke-linejoin:round;stroke-miterlimit:4;stroke-dasharray:none;stroke-opacity:1"
         d="M 181.47897,234.00709 C 181.94731,232.85819 176.63832,233.60304 171.55843,229.75231 C 174.22328,222.01876 178.78691,223.30317 183.85035,223.46018"
         id="path5600"
         sodipodi:nodetypes="ccs" />
      <path
         sodipodi:nodetypes="ccccc"
         id="path4375"
         d="M 171.55843,229.75231 L 176.26026,232.43827 C 181.95863,227.76429 179.46034,225.82254 178.28491,223.43984 L 173.56073,225.9144 L 171.55843,229.75231 z"
         style="fill:#000000;fill-opacity:1;stroke:none;stroke-width:2;stroke-linejoin:round;stroke-miterlimit:4;stroke-dasharray:none;stroke-opacity:1" />
      <path
         sodipodi:nodetypes="cc"
         id="path4373"
         d="M 183.85035,223.46018 C 185.86122,229.38146 184.21439,232.2388 181.47897,234.00709"
         style="fill:#e20909;fill-opacity:1;stroke:#000000;stroke-width:2.50000000000000000;stroke-linejoin:round;stroke-miterlimit:4;stroke-dasharray:none;stroke-opacity:1" />
      <path
         sodipodi:nodetypes="cssc"
         id="path5471"
         d="M 389.83547,394.69937 C 388.2446,397.38229 380.36012,402.90192 376.50271,390.98729 C 376.00012,389.4349 373.37719,389.07474 370.94485,389.85099 C 359.78044,393.41393 348.81651,390.07693 339.76628,391.33673"
         style="opacity:1;fill:none;fill-opacity:1;stroke:#000000;stroke-width:2.50000000000000000;stroke-linecap:round;stroke-linejoin:round;stroke-miterlimit:4;stroke-dasharray:none;stroke-opacity:1" />
    </g>
  </g>
  <g
     inkscape:groupmode="layer"
     id="layer2"
     inkscape:label="Reflet final"
     sodipodi:insensitive="true">
    <path
       sodipodi:nodetypes="cccccc"
       d="M 300.00001,658.5 C 300.00001,658.5 598.50001,546.17969 598.50001,260.72817 C 598.50001,-24.723334 598.50001,2.1764865 598.50001,2.1764865 L 1.5,2.1764865 L 1.5,260.72817 C 1.5,546.17969 300.00001,658.5 300.00001,658.5 z "
       style="opacity:1;fill:url(#radialGradient3163);fill-opacity:1;fill-rule:evenodd;stroke:none;stroke-width:1px;stroke-linecap:butt;stroke-linejoin:miter;stroke-opacity:1"
       id="path2875"
       inkscape:export-xdpi="144"
       inkscape:export-ydpi="144" />
  </g>
  <g
     inkscape:groupmode="layer"
     id="layer1"
     inkscape:label="Contour final"
     sodipodi:insensitive="true">
    <path
       sodipodi:nodetypes="cccccc"
       d="M 299.99999,658.50028 C 299.99999,658.50028 1.5,546.17992 1.5,260.72828 C 1.5,-24.723336 1.5,2.1764957 1.5,2.1764957 L 598.49999,2.1764957 L 598.49999,260.72828 C 598.49999,546.17992 299.99999,658.50028 299.99999,658.50028 z "
       style="opacity:1;fill:none;fill-opacity:1;fill-rule:evenodd;stroke:#000000;stroke-width:3.00000048;stroke-linecap:butt;stroke-linejoin:miter;stroke-miterlimit:4;stroke-dasharray:none;stroke-opacity:1"
       id="path1411"
       inkscape:export-xdpi="144"
       inkscape:export-ydpi="144" />
  </g>
</svg>
