<?xml version="1.0" encoding="UTF-8" standalone="no"?>
<svg
   xmlns:dc="http://purl.org/dc/elements/1.1/"
   xmlns:cc="http://creativecommons.org/ns#"
   xmlns:rdf="http://www.w3.org/1999/02/22-rdf-syntax-ns#"
   xmlns:svg="http://www.w3.org/2000/svg"
   xmlns="http://www.w3.org/2000/svg"
   xmlns:xlink="http://www.w3.org/1999/xlink"
   xmlns:sodipodi="http://sodipodi.sourceforge.net/DTD/sodipodi-0.dtd"
   xmlns:inkscape="http://www.inkscape.org/namespaces/inkscape"
   height="660"
   width="600"
   version="1.0"
   id="svg2"
   sodipodi:version="0.32"
   inkscape:version="0.46"
   sodipodi:docname="Blason ville fr Sauveterre-de-Rouergue (Aveyron).svg"
   sodipodi:docbase="D:\Mes documents\Renaud-Notre Lapin"
   inkscape:export-filename="/Users/olivier/Desktop/Blason Rouge/Blason_Vide_3D.png"
   inkscape:export-xdpi="144"
   inkscape:export-ydpi="144"
   inkscape:output_extension="org.inkscape.output.svg.inkscape">
  <metadata
     id="metadata49">
    <rdf:RDF>
      <cc:Work
         rdf:about="">
        <dc:format>image/svg+xml</dc:format>
        <dc:type
           rdf:resource="http://purl.org/dc/dcmitype/StillImage" />
        <dc:title>Gabarit d'un blason en pointe pour le projet Blasons de Wikipédia</dc:title>
        <dc:date>03-AUG-2006</dc:date>
        <dc:creator>
          <cc:Agent>
            <dc:title>Jérôme BLUM (wagner51)</dc:title>
          </cc:Agent>
        </dc:creator>
        <cc:license
           rdf:resource="http://web.resource.org/cc/PublicDomain" />
        <dc:language>fr</dc:language>
        <dc:subject>
          <rdf:Bag>
            <rdf:li>gabarit modèle blason projet wikipédia</rdf:li>
          </rdf:Bag>
        </dc:subject>
      </cc:Work>
      <cc:License
         rdf:about="http://web.resource.org/cc/PublicDomain">
        <cc:permits
           rdf:resource="http://web.resource.org/cc/Reproduction" />
        <cc:permits
           rdf:resource="http://web.resource.org/cc/Distribution" />
        <cc:permits
           rdf:resource="http://web.resource.org/cc/DerivativeWorks" />
      </cc:License>
    </rdf:RDF>
  </metadata>
  <sodipodi:namedview
     inkscape:window-height="814"
     inkscape:window-width="1152"
     inkscape:pageshadow="2"
     inkscape:pageopacity="1"
     guidetolerance="10.0"
     gridtolerance="10.0"
     objecttolerance="10.0"
     borderopacity="1.0"
     bordercolor="#666666"
     pagecolor="#f2efe7"
     id="base"
     showgrid="false"
     height="660px"
     inkscape:zoom="0.63"
     inkscape:cx="372.44908"
     inkscape:cy="248.32937"
     inkscape:window-x="-8"
     inkscape:window-y="-8"
     inkscape:current-layer="layer3"
     showguides="true"
     inkscape:guide-bbox="true" />
  <desc
     id="desc4">Flag of Canton of Valais (Wallis)</desc>
  <defs
     id="defs6">
    <linearGradient
       id="linearGradient2893">
      <stop
         style="stop-color:white;stop-opacity:0.3137255;"
         offset="0"
         id="stop2895" />
      <stop
         id="stop2897"
         offset="0.19"
         style="stop-color:white;stop-opacity:0.25098041;" />
      <stop
         style="stop-color:#6b6b6b;stop-opacity:0.1254902;"
         offset="0.60000002"
         id="stop2901" />
      <stop
         style="stop-color:black;stop-opacity:0.1254902;"
         offset="1"
         id="stop2899" />
    </linearGradient>
    <radialGradient
       inkscape:collect="always"
       xlink:href="#linearGradient2893"
       id="radialGradient3163"
       gradientUnits="userSpaceOnUse"
       gradientTransform="matrix(1.353218,0,0,1.348928,-77.62935,-85.74693)"
       cx="221.44487"
       cy="226.33101"
       fx="221.44487"
       fy="226.33101"
       r="300" />
  </defs>
  <g
     inkscape:groupmode="layer"
     id="layer3"
     inkscape:label="Fond écu"
     style="display:inline">
    <path
       id="path2855"
       style="fill:#fcef3c;fill-opacity:1;fill-rule:evenodd;stroke:none;stroke-width:1px;stroke-linecap:butt;stroke-linejoin:miter;stroke-opacity:1"
       d="M 300,658.5 C 300,658.5 598.50001,546.17969 598.50001,260.72817 C 598.50001,-24.723354 598.50001,2.1764765 598.50001,2.1764765 L 1.5,2.1764765 L 1.5,260.72817 C 1.5,546.17969 300,658.5 300,658.5 z"
       sodipodi:nodetypes="cccccc" />
    <path
       style="fill:#2b5df2;fill-opacity:1;fill-rule:evenodd;stroke:#000000;stroke-width:3;stroke-linecap:butt;stroke-linejoin:miter;stroke-miterlimit:4;stroke-dasharray:none;stroke-opacity:1;display:inline"
       d="M 1.5,2.1875 L 1.5,190.84375 L 598.5,190.84375 C 598.5,87.667443 598.5,2.1875 598.5,2.1875 L 1.5,2.1875 z"
       id="path3453" />
    <g
       id="g3633"
       transform="translate(-3.2572212,-0.1703188)">
      <g
         id="g3573"
         transform="matrix(0.6921531,0,0,0.6921531,29.094894,18.190134)">
        <g
           style="display:inline"
           transform="translate(-551.4445,-446.3059)"
           inkscape:label="Timbre"
           id="g3575" />
        <g
           style="display:inline"
           transform="translate(-551.4445,-446.3059)"
           id="g3577"
           inkscape:label="Escudo" />
        <g
           transform="translate(-495.01578,-522.94625)"
           style="display:inline"
           inkscape:label="Piezas"
           id="g3579" />
        <g
           transform="translate(-495.01578,-522.94625)"
           style="display:inline"
           inkscape:label="Muebles"
           id="g3581" />
        <g
           transform="translate(-495.01578,-522.94625)"
           inkscape:label="Ornamento"
           id="g3583" />
        <g
           transform="translate(-495.01578,-522.94625)"
           style="display:inline"
           inkscape:label="Borde 3px"
           id="g3585">
          <g
             style="display:inline"
             transform="translate(132.0638,371.22924)"
             inkscape:label="Timbre"
             id="g3587" />
          <g
             style="display:inline"
             transform="translate(132.0638,371.22924)"
             id="g3589"
             inkscape:label="Escudo" />
          <g
             transform="translate(188.49252,294.58889)"
             style="display:inline"
             inkscape:label="Piezas"
             id="g3591" />
          <g
             transform="translate(188.49252,294.58889)"
             style="display:inline"
             inkscape:label="Muebles"
             id="g3593" />
          <g
             transform="translate(188.49252,294.58889)"
             inkscape:label="Ornamento"
             id="g3595" />
          <g
             transform="matrix(0.5869493,0,0,0.5869493,610.3503,952.94676)"
             id="g3597"
             style="stroke:#000000;stroke-width:5.11117411;stroke-miterlimit:4;stroke-dasharray:none;stroke-opacity:1;display:inline">
            <path
               style="fill:#fcef3c;fill-opacity:1;fill-rule:evenodd;stroke:#000000;stroke-width:5.11117411;stroke-linecap:butt;stroke-linejoin:miter;stroke-miterlimit:4;stroke-dasharray:none;stroke-opacity:1"
               d="M -48.09683,-730.04688 C -18.63463,-698.20088 -1.311324,-680.63851 1.71567,-631.22551 C 4.516922,-585.49753 -25.91305,-547.26746 -32.47183,-503.03801 C -33.71586,-494.64886 -34.78343,-477.52504 -33.65933,-470.58029 C -32.82682,-465.43703 -30.2673,-449.72452 -27.47183,-469.16609 C -26.89689,-473.16463 -26.48464,-493.22641 -24.72183,-503.41301 C -21.50976,-521.97423 -11.22367,-554.61188 6.62192,-572.69426 C 24.45989,-590.7689 52.7264,-602.49289 77.93442,-593.03801 C 100.77409,-582.49963 102.93306,-552.73834 96.43442,-530.97551 C 88.29557,-503.71988 57.19325,-484.85525 29.30942,-483.00676 C 34.83452,-493.933 48.05897,-525.11969 33.71567,-523.88176 C 17.11291,-522.44882 -2.746744,-494.20056 -7.917294,-474.82293 C -9.864494,-467.52547 -9.07753,-456.19513 -19.50308,-456.66301 C -12.62837,-433.43496 6.77717,-418.06468 23.77817,-401.85051 C 6.05563,-400.37739 -11.47738,-408.7178 -26.94058,-416.66301 C -26.286749,-400.73784 -29.378446,-367.09562 -48.09683,-348.72551 C -65.471545,-367.64157 -67.052581,-390.71209 -67.37808,-416.66301 C -82.84128,-408.7178 -100.37429,-400.37739 -118.09683,-401.85051 C -101.09583,-418.06468 -81.690291,-433.43496 -74.81558,-456.66301 C -85.24113,-456.19513 -85.868385,-466.81836 -87.81558,-474.11582 C -92.98613,-493.49343 -111.43157,-522.44884 -128.03433,-523.88176 C -142.37763,-525.11969 -129.15318,-493.933 -123.62808,-483.00676 C -151.51191,-484.85525 -182.61422,-503.71988 -190.75308,-530.97551 C -197.25172,-552.73834 -195.09274,-582.49964 -172.25308,-593.03801 C -147.04505,-602.49289 -118.77855,-590.76891 -100.94058,-572.69426 C -83.094993,-554.61188 -72.808901,-521.97423 -69.59683,-503.41301 C -67.83402,-493.22641 -68.128878,-474.57884 -67.553937,-470.58029 C -64.758467,-451.13871 -61.491841,-465.43705 -60.65933,-470.58029 C -59.53523,-477.52504 -60.602801,-494.64887 -61.84683,-503.03801 C -68.40561,-547.26744 -95.955806,-587.0527 -96.03433,-631.22551 C -96.103977,-671.11179 -76.05061,-701.46041 -48.09683,-730.04688 z"
               id="path3599"
               sodipodi:nodetypes="csssssscscsscccccccsscscssssssc" />
            <rect
               rx="7.0119839"
               style="fill:#fcef3c;fill-opacity:1;fill-rule:evenodd;stroke:#000000;stroke-width:5.11117411;stroke-linejoin:round;stroke-miterlimit:4;stroke-dasharray:none;stroke-opacity:1"
               id="rect3601"
               width="136"
               height="22"
               x="-20.840672"
               y="-474.15433"
               ry="7.0119839"
               transform="scale(-1,1)" />
          </g>
        </g>
      </g>
      <g
         id="g3603"
         transform="matrix(0.6921531,0,0,0.6921531,456.07904,18.190134)">
        <g
           style="display:inline"
           transform="translate(-551.4445,-446.3059)"
           inkscape:label="Timbre"
           id="g3605" />
        <g
           style="display:inline"
           transform="translate(-551.4445,-446.3059)"
           id="g3607"
           inkscape:label="Escudo" />
        <g
           transform="translate(-495.01578,-522.94625)"
           style="display:inline"
           inkscape:label="Piezas"
           id="g3609" />
        <g
           transform="translate(-495.01578,-522.94625)"
           style="display:inline"
           inkscape:label="Muebles"
           id="g3611" />
        <g
           transform="translate(-495.01578,-522.94625)"
           inkscape:label="Ornamento"
           id="g3613" />
        <g
           transform="translate(-495.01578,-522.94625)"
           style="display:inline"
           inkscape:label="Borde 3px"
           id="g3615">
          <g
             style="display:inline"
             transform="translate(132.0638,371.22924)"
             inkscape:label="Timbre"
             id="g3617" />
          <g
             style="display:inline"
             transform="translate(132.0638,371.22924)"
             id="g3619"
             inkscape:label="Escudo" />
          <g
             transform="translate(188.49252,294.58889)"
             style="display:inline"
             inkscape:label="Piezas"
             id="g3621" />
          <g
             transform="translate(188.49252,294.58889)"
             style="display:inline"
             inkscape:label="Muebles"
             id="g3623" />
          <g
             transform="translate(188.49252,294.58889)"
             inkscape:label="Ornamento"
             id="g3625" />
          <g
             transform="matrix(0.5869493,0,0,0.5869493,610.3503,952.94676)"
             id="g3627"
             style="stroke:#000000;stroke-width:5.11117411;stroke-miterlimit:4;stroke-dasharray:none;stroke-opacity:1;display:inline">
            <path
               style="fill:#fcef3c;fill-opacity:1;fill-rule:evenodd;stroke:#000000;stroke-width:5.11117411;stroke-linecap:butt;stroke-linejoin:miter;stroke-miterlimit:4;stroke-dasharray:none;stroke-opacity:1"
               d="M -48.09683,-730.04688 C -18.63463,-698.20088 -1.311324,-680.63851 1.71567,-631.22551 C 4.516922,-585.49753 -25.91305,-547.26746 -32.47183,-503.03801 C -33.71586,-494.64886 -34.78343,-477.52504 -33.65933,-470.58029 C -32.82682,-465.43703 -30.2673,-449.72452 -27.47183,-469.16609 C -26.89689,-473.16463 -26.48464,-493.22641 -24.72183,-503.41301 C -21.50976,-521.97423 -11.22367,-554.61188 6.62192,-572.69426 C 24.45989,-590.7689 52.7264,-602.49289 77.93442,-593.03801 C 100.77409,-582.49963 102.93306,-552.73834 96.43442,-530.97551 C 88.29557,-503.71988 57.19325,-484.85525 29.30942,-483.00676 C 34.83452,-493.933 48.05897,-525.11969 33.71567,-523.88176 C 17.11291,-522.44882 -2.746744,-494.20056 -7.917294,-474.82293 C -9.864494,-467.52547 -9.07753,-456.19513 -19.50308,-456.66301 C -12.62837,-433.43496 6.77717,-418.06468 23.77817,-401.85051 C 6.05563,-400.37739 -11.47738,-408.7178 -26.94058,-416.66301 C -26.286749,-400.73784 -29.378446,-367.09562 -48.09683,-348.72551 C -65.471545,-367.64157 -67.052581,-390.71209 -67.37808,-416.66301 C -82.84128,-408.7178 -100.37429,-400.37739 -118.09683,-401.85051 C -101.09583,-418.06468 -81.690291,-433.43496 -74.81558,-456.66301 C -85.24113,-456.19513 -85.868385,-466.81836 -87.81558,-474.11582 C -92.98613,-493.49343 -111.43157,-522.44884 -128.03433,-523.88176 C -142.37763,-525.11969 -129.15318,-493.933 -123.62808,-483.00676 C -151.51191,-484.85525 -182.61422,-503.71988 -190.75308,-530.97551 C -197.25172,-552.73834 -195.09274,-582.49964 -172.25308,-593.03801 C -147.04505,-602.49289 -118.77855,-590.76891 -100.94058,-572.69426 C -83.094993,-554.61188 -72.808901,-521.97423 -69.59683,-503.41301 C -67.83402,-493.22641 -68.128878,-474.57884 -67.553937,-470.58029 C -64.758467,-451.13871 -61.491841,-465.43705 -60.65933,-470.58029 C -59.53523,-477.52504 -60.602801,-494.64887 -61.84683,-503.03801 C -68.40561,-547.26744 -95.955806,-587.0527 -96.03433,-631.22551 C -96.103977,-671.11179 -76.05061,-701.46041 -48.09683,-730.04688 z"
               id="path3629"
               sodipodi:nodetypes="csssssscscsscccccccsscscssssssc" />
            <rect
               rx="7.0119839"
               style="fill:#fcef3c;fill-opacity:1;fill-rule:evenodd;stroke:#000000;stroke-width:5.11117411;stroke-linejoin:round;stroke-miterlimit:4;stroke-dasharray:none;stroke-opacity:1"
               id="rect3631"
               width="136"
               height="22"
               x="-20.840672"
               y="-474.15433"
               ry="7.0119839"
               transform="scale(-1,1)" />
          </g>
        </g>
      </g>
      <g
         transform="matrix(0.6921531,0,0,0.6921531,242.58698,18.190134)"
         id="g3553">
        <g
           id="g3555"
           inkscape:label="Timbre"
           transform="translate(-551.4445,-446.3059)"
           style="display:inline" />
        <g
           inkscape:label="Escudo"
           id="g3557"
           transform="translate(-551.4445,-446.3059)"
           style="display:inline" />
        <g
           id="g3559"
           inkscape:label="Piezas"
           style="display:inline"
           transform="translate(-495.01578,-522.94625)" />
        <g
           id="layer5"
           inkscape:label="Muebles"
           style="display:inline"
           transform="translate(-495.01578,-522.94625)" />
        <g
           id="g3562"
           inkscape:label="Ornamento"
           transform="translate(-495.01578,-522.94625)" />
        <g
           id="layer6"
           inkscape:label="Borde 3px"
           style="display:inline"
           transform="translate(-495.01578,-522.94625)">
          <g
             id="g4474"
             inkscape:label="Timbre"
             transform="translate(132.0638,371.22924)"
             style="display:inline" />
          <g
             inkscape:label="Escudo"
             id="g4476"
             transform="translate(132.0638,371.22924)"
             style="display:inline" />
          <g
             id="g4478"
             inkscape:label="Piezas"
             style="display:inline"
             transform="translate(188.49252,294.58889)" />
          <g
             id="g4480"
             inkscape:label="Muebles"
             style="display:inline"
             transform="translate(188.49252,294.58889)" />
          <g
             id="g4482"
             inkscape:label="Ornamento"
             transform="translate(188.49252,294.58889)" />
          <g
             style="stroke:#000000;stroke-width:5.11117411;stroke-miterlimit:4;stroke-dasharray:none;stroke-opacity:1;display:inline"
             id="g3413"
             transform="matrix(0.5869493,0,0,0.5869493,610.3503,952.94676)">
            <path
               sodipodi:nodetypes="csssssscscsscccccccsscscssssssc"
               id="path3415"
               d="M -48.09683,-730.04688 C -18.63463,-698.20088 -1.311324,-680.63851 1.71567,-631.22551 C 4.516922,-585.49753 -25.91305,-547.26746 -32.47183,-503.03801 C -33.71586,-494.64886 -34.78343,-477.52504 -33.65933,-470.58029 C -32.82682,-465.43703 -30.2673,-449.72452 -27.47183,-469.16609 C -26.89689,-473.16463 -26.48464,-493.22641 -24.72183,-503.41301 C -21.50976,-521.97423 -11.22367,-554.61188 6.62192,-572.69426 C 24.45989,-590.7689 52.7264,-602.49289 77.93442,-593.03801 C 100.77409,-582.49963 102.93306,-552.73834 96.43442,-530.97551 C 88.29557,-503.71988 57.19325,-484.85525 29.30942,-483.00676 C 34.83452,-493.933 48.05897,-525.11969 33.71567,-523.88176 C 17.11291,-522.44882 -2.746744,-494.20056 -7.917294,-474.82293 C -9.864494,-467.52547 -9.07753,-456.19513 -19.50308,-456.66301 C -12.62837,-433.43496 6.77717,-418.06468 23.77817,-401.85051 C 6.05563,-400.37739 -11.47738,-408.7178 -26.94058,-416.66301 C -26.286749,-400.73784 -29.378446,-367.09562 -48.09683,-348.72551 C -65.471545,-367.64157 -67.052581,-390.71209 -67.37808,-416.66301 C -82.84128,-408.7178 -100.37429,-400.37739 -118.09683,-401.85051 C -101.09583,-418.06468 -81.690291,-433.43496 -74.81558,-456.66301 C -85.24113,-456.19513 -85.868385,-466.81836 -87.81558,-474.11582 C -92.98613,-493.49343 -111.43157,-522.44884 -128.03433,-523.88176 C -142.37763,-525.11969 -129.15318,-493.933 -123.62808,-483.00676 C -151.51191,-484.85525 -182.61422,-503.71988 -190.75308,-530.97551 C -197.25172,-552.73834 -195.09274,-582.49964 -172.25308,-593.03801 C -147.04505,-602.49289 -118.77855,-590.76891 -100.94058,-572.69426 C -83.094993,-554.61188 -72.808901,-521.97423 -69.59683,-503.41301 C -67.83402,-493.22641 -68.128878,-474.57884 -67.553937,-470.58029 C -64.758467,-451.13871 -61.491841,-465.43705 -60.65933,-470.58029 C -59.53523,-477.52504 -60.602801,-494.64887 -61.84683,-503.03801 C -68.40561,-547.26744 -95.955806,-587.0527 -96.03433,-631.22551 C -96.103977,-671.11179 -76.05061,-701.46041 -48.09683,-730.04688 z"
               style="fill:#fcef3c;fill-opacity:1;fill-rule:evenodd;stroke:#000000;stroke-width:5.11117411;stroke-linecap:butt;stroke-linejoin:miter;stroke-miterlimit:4;stroke-dasharray:none;stroke-opacity:1" />
            <rect
               transform="scale(-1,1)"
               ry="7.0119839"
               y="-474.15433"
               x="-20.840672"
               height="22"
               width="136"
               id="rect3417"
               style="fill:#fcef3c;fill-opacity:1;fill-rule:evenodd;stroke:#000000;stroke-width:5.11117411;stroke-linejoin:round;stroke-miterlimit:4;stroke-dasharray:none;stroke-opacity:1"
               rx="7.0119839" />
          </g>
        </g>
      </g>
    </g>
  </g>
  <g
     inkscape:groupmode="layer"
     id="layer4"
     inkscape:label="Meubles">
    <g
       id="g4648"
       transform="matrix(1.2748226,0,0,1.2748226,-829.35067,340.7252)">
      <g
         inkscape:transform-center-y="-23.950744"
         id="g3839"
         transform="matrix(-0.8432618,-0.5530285,-0.6307193,0.6576111,957.81963,-298.22474)"
         inkscape:transform-center-x="68.595872"
         style="stroke:#000000;stroke-width:1.46130311;stroke-miterlimit:4;stroke-dasharray:none;stroke-opacity:1">
        <path
           sodipodi:nodetypes="czzzccccccszzzzc"
           id="path3841"
           d="M -328.29959,315.98694 C -320.63015,319.01537 -317.07847,319.87255 -310.93194,326.90476 C -304.66235,334.07777 -291.98326,348.44787 -289.32392,365.64927 C -286.66458,382.85067 -285.57505,410.84565 -287.59543,423.84708 C -289.61581,436.84851 -294.56861,437.09343 -297.95365,442.92964 C -301.56744,458.49505 -304.65509,469.81536 -299.09257,484.62944 C -296.63097,490.80661 -294.23093,496.80852 -296.19925,504.06482 L -300.74726,501.546 C -301.75766,498.51277 -302.1499,493.67815 -303.41859,487.14163 C -308.53004,474.68078 -304.49497,461.89287 -303.3274,448.69247 C -302.73712,446.43799 -303.75737,445.38391 -304.38639,443.68791 C -305.937,439.50699 -310.06411,437.95434 -311.36341,431.00788 C -312.66271,424.06142 -314.84517,424.72522 -319.05477,414.27216 C -323.26438,403.8191 -330.51322,388.15823 -332.85914,374.92515 C -335.20506,361.69208 -334.02396,334.65797 -333.03928,328.34566 C -332.09736,322.30743 -331.79726,321.23536 -328.29959,315.98694 z"
           style="fill:#5ab532;fill-rule:evenodd;stroke:#000000;stroke-width:1.46130311;stroke-linecap:butt;stroke-linejoin:miter;stroke-miterlimit:4;stroke-dasharray:none;stroke-opacity:1" />
        <path
           sodipodi:nodetypes="cssssccccccccccccccccc"
           d="M -300.23979,443.65899 C -300.4385,437.8401 -300.99133,431.29561 -301.81856,424.32468 C -302.52053,418.40939 -303.42008,412.18703 -304.46851,405.84038 C -305.65049,398.68536 -307.02169,391.37237 -308.51232,384.16332 C -310.03331,376.8074 -311.67866,369.55969 -313.37421,362.69842 C -318.97207,340.04599 -325.11716,321.60571 -329.14138,317.38993 M -301.78307,424.36789 C -292.59132,421.32686 -287.87845,404.1673 -288.17407,380.52446 M -304.3786,406.62007 C -292.74372,402.4715 -290.3174,376.73015 -293.22484,357.23483 L -293.78603,357.23483 M -301.81815,424.33282 C -307.8456,425.89256 -312.44479,422.39383 -321.28463,401.56931 M -304.41368,406.62007 C -315.10716,407.08413 -321.09242,394.79284 -327.73838,381.08566 M -308.34205,384.66328 C -298.20616,369.98942 -297.14429,355.83022 -301.36218,344.32733 M -308.37713,384.66328 C -323.42371,381.68449 -326.26629,374.60346 -332.22795,358.63782 M -308.65772,333.9452 C -304.46951,343.26175 -304.4047,356.50845 -313.28759,363.16246 C -325.57176,361.6906 -327.3383,354.49531 -331.38616,337.31238"
           style="fill:none;fill-rule:evenodd;stroke:#000000;stroke-width:0.82532243;stroke-linecap:butt;stroke-linejoin:miter;stroke-miterlimit:4;stroke-dasharray:none;stroke-opacity:1"
           id="path3843" />
      </g>
      <g
         id="g3871"
         transform="matrix(-0.6776013,-5.4378109e-2,-6.1584742e-2,0.5983085,726.53523,-178.85649)"
         inkscape:transform-center-x="45.063138"
         inkscape:transform-center-y="11.786671"
         style="stroke:#000000;stroke-width:2.17235541;stroke-miterlimit:4;stroke-dasharray:none;stroke-opacity:1">
        <path
           sodipodi:nodetypes="czzzcsccssszzzzc"
           id="path3873"
           d="M -328.29959,315.98694 C -320.63015,319.01537 -317.07847,319.87255 -310.93194,326.90476 C -304.66235,334.07777 -291.98326,348.44787 -289.32392,365.64927 C -286.66458,382.85067 -285.57505,410.84565 -287.59543,423.84708 C -289.61581,436.84851 -294.56861,437.09343 -297.95365,442.92964 C -299.2782,447.24968 -299.09429,458.18751 -298.19031,469.63844 C -296.96835,485.11726 -289.78712,493.29968 -287.25646,502.98964 L -292.2411,502.00715 C -295.41721,492.53857 -302.65476,486.43954 -303.77434,471.18858 C -304.20599,465.30856 -304.55768,459.4081 -304.91694,454.14726 C -305.07471,451.83697 -303.75737,445.38391 -304.38639,443.68791 C -305.937,439.50699 -310.06411,437.95434 -311.36341,431.00788 C -312.66271,424.06142 -314.84517,424.72522 -319.05477,414.27216 C -323.26438,403.8191 -330.51322,388.15823 -332.85914,374.92515 C -335.20506,361.69208 -334.02396,334.65797 -333.03928,328.34566 C -332.09736,322.30743 -331.79726,321.23536 -328.29959,315.98694 z"
           style="fill:#5ab532;fill-rule:evenodd;stroke:#000000;stroke-width:2.17235541;stroke-linecap:butt;stroke-linejoin:miter;stroke-miterlimit:4;stroke-dasharray:none;stroke-opacity:1" />
        <path
           sodipodi:nodetypes="cssssccccccccccccccccc"
           d="M -300.23979,443.65899 C -300.4385,437.8401 -300.99133,431.29561 -301.81856,424.32468 C -302.52053,418.40939 -303.42008,412.18703 -304.46851,405.84038 C -305.65049,398.68536 -307.02169,391.37237 -308.51232,384.16332 C -310.03331,376.8074 -311.67866,369.55969 -313.37421,362.69842 C -318.97207,340.04599 -325.11716,321.60571 -329.14138,317.38993 M -301.78307,424.36789 C -292.59132,421.32686 -287.87845,404.1673 -288.17407,380.52446 M -304.3786,406.62007 C -292.74372,402.4715 -290.3174,376.73015 -293.22484,357.23483 L -293.78603,357.23483 M -301.81815,424.33282 C -307.8456,425.89256 -312.44479,422.39383 -321.28463,401.56931 M -304.41368,406.62007 C -315.10716,407.08413 -321.09242,394.79284 -327.73838,381.08566 M -308.34205,384.66328 C -298.20616,369.98942 -297.14429,355.83022 -301.36218,344.32733 M -308.37713,384.66328 C -323.42371,381.68449 -326.26629,374.60346 -332.22795,358.63782 M -308.65772,333.9452 C -304.46951,343.26175 -304.4047,356.50845 -313.28759,363.16246 C -325.57176,361.6906 -327.3383,354.49531 -331.38616,337.31238"
           style="fill:none;fill-rule:evenodd;stroke:#000000;stroke-width:1.22691423;stroke-linecap:butt;stroke-linejoin:miter;stroke-miterlimit:4;stroke-dasharray:none;stroke-opacity:1"
           id="path3875" />
      </g>
      <g
         inkscape:transform-center-y="-10.144558"
         id="g3857"
         transform="matrix(0.6302699,-0.3407477,0.3859063,0.5565158,887.6134,-203.24517)"
         inkscape:transform-center-x="-49.307438"
         style="stroke:#000000;stroke-width:1.99999988;stroke-miterlimit:4;stroke-dasharray:none;stroke-opacity:1">
        <path
           sodipodi:nodetypes="czzzccccccszzzzc"
           id="path3859"
           d="M -328.29959,315.98694 C -320.63015,319.01537 -317.07847,319.87255 -310.93194,326.90476 C -304.66235,334.07777 -291.98326,348.44787 -289.32392,365.64927 C -286.66458,382.85067 -285.57505,410.84565 -287.59543,423.84708 C -289.61581,436.84851 -294.56861,437.09343 -297.95365,442.92964 C -298.96587,448.75684 -298.2203,453.51059 -298.25379,457.03845 C -299.90386,478.4059 -290.80413,481.43273 -284.16438,488.96887 L -291.95966,493.21111 C -302.72064,483.62402 -302.97813,474.9012 -302.95607,462.97381 C -302.98184,458.03852 -303.4513,454.4184 -303.3274,448.69247 C -302.73712,446.43799 -303.75737,445.38391 -304.38639,443.68791 C -305.937,439.50699 -310.06411,437.95434 -311.36341,431.00788 C -312.66271,424.06142 -314.84517,424.72522 -319.05477,414.27216 C -323.26438,403.8191 -330.51322,388.15823 -332.85914,374.92515 C -335.20506,361.69208 -334.02396,334.65797 -333.03928,328.34566 C -332.09736,322.30743 -331.79726,321.23536 -328.29959,315.98694 z"
           style="fill:#5ab532;fill-rule:evenodd;stroke:#000000;stroke-width:1.99999988;stroke-linecap:butt;stroke-linejoin:miter;stroke-miterlimit:4;stroke-dasharray:none;stroke-opacity:1" />
        <path
           sodipodi:nodetypes="cssssccccccccccccccccc"
           d="M -300.23979,443.65899 C -300.4385,437.8401 -300.99133,431.29561 -301.81856,424.32468 C -302.52053,418.40939 -303.42008,412.18703 -304.46851,405.84038 C -305.65049,398.68536 -307.02169,391.37237 -308.51232,384.16332 C -310.03331,376.8074 -311.67866,369.55969 -313.37421,362.69842 C -318.97207,340.04599 -325.11716,321.60571 -329.14138,317.38993 M -301.78307,424.36789 C -292.59132,421.32686 -287.87845,404.1673 -288.17407,380.52446 M -304.3786,406.62007 C -292.74372,402.4715 -290.3174,376.73015 -293.22484,357.23483 L -293.78603,357.23483 M -301.81815,424.33282 C -307.8456,425.89256 -312.44479,422.39383 -321.28463,401.56931 M -304.41368,406.62007 C -315.10716,407.08413 -321.09242,394.79284 -327.73838,381.08566 M -308.34205,384.66328 C -298.20616,369.98942 -297.14429,355.83022 -301.36218,344.32733 M -308.37713,384.66328 C -323.42371,381.68449 -326.26629,374.60346 -332.22795,358.63782 M -308.65772,333.9452 C -304.46951,343.26175 -304.4047,356.50845 -313.28759,363.16246 C -325.57176,361.6906 -327.3383,354.49531 -331.38616,337.31238"
           style="fill:none;fill-rule:evenodd;stroke:#000000;stroke-width:1.12957039;stroke-linecap:butt;stroke-linejoin:miter;stroke-miterlimit:4;stroke-dasharray:none;stroke-opacity:1"
           id="path3861" />
      </g>
      <g
         inkscape:transform-center-x="49.941188"
         transform="matrix(-0.6924052,-0.2281078,-0.2583386,0.6113801,819.27605,-200.40044)"
         id="g4025"
         style="stroke:#000000;stroke-width:1.99999988;stroke-miterlimit:4;stroke-dasharray:none;stroke-opacity:1">
        <path
           style="fill:#5ab532;fill-rule:evenodd;stroke:#000000;stroke-width:1.99999988;stroke-linecap:butt;stroke-linejoin:miter;stroke-miterlimit:4;stroke-dasharray:none;stroke-opacity:1"
           d="M -295.66356,495.48425 C -302.16956,486.79926 -303.48239,475.87999 -302.69369,464.68751 C -302.07451,455.90079 -303.4976,456.55841 -303.3274,448.69247 C -302.73712,446.43799 -303.75737,445.38391 -304.38639,443.68791 C -305.937,439.50699 -310.06411,437.95434 -311.36341,431.00788 C -312.66271,424.06142 -314.84517,424.72522 -319.05477,414.27216 C -323.26438,403.8191 -330.51322,388.15823 -332.85914,374.92515 C -335.20506,361.69208 -334.02396,334.65797 -333.03928,328.34566 C -332.09736,322.30743 -331.79726,321.23536 -328.29959,315.98694 C -320.63015,319.01537 -317.07847,319.87255 -310.93194,326.90476 C -304.66235,334.07777 -291.98326,348.44787 -289.32392,365.64927 C -286.66458,382.85067 -285.57505,410.84565 -287.59543,423.84708 C -289.61581,436.84851 -294.56861,437.09343 -297.95365,442.92964 C -300.25984,456.20599 -297.93958,456.15947 -298.82366,464.71319 C -300.00911,476.18274 -298.2791,480.44042 -291.67162,489.65935"
           id="path4027"
           sodipodi:nodetypes="cscszzzzczzzcsc" />
        <path
           id="path4029"
           style="fill:none;fill-rule:evenodd;stroke:#000000;stroke-width:1.12957042;stroke-linecap:butt;stroke-linejoin:miter;stroke-miterlimit:4;stroke-dasharray:none;stroke-opacity:1"
           d="M -300.23979,443.65899 C -300.4385,437.8401 -300.99133,431.29561 -301.81856,424.32468 C -302.52053,418.40939 -303.42008,412.18703 -304.46851,405.84038 C -305.65049,398.68536 -307.02169,391.37237 -308.51232,384.16332 C -310.03331,376.8074 -311.67866,369.55969 -313.37421,362.69842 C -318.97207,340.04599 -325.11716,321.60571 -329.14138,317.38993 M -301.78307,424.36789 C -292.59132,421.32686 -287.87845,404.1673 -288.17407,380.52446 M -304.3786,406.62007 C -292.74372,402.4715 -290.3174,376.73015 -293.22484,357.23483 L -293.78603,357.23483 M -301.81815,424.33282 C -307.8456,425.89256 -312.44479,422.39383 -321.28463,401.56931 M -304.41368,406.62007 C -315.10716,407.08413 -321.09242,394.79284 -327.73838,381.08566 M -308.34205,384.66328 C -298.20616,369.98942 -297.14429,355.83022 -301.36218,344.32733 M -308.37713,384.66328 C -323.42371,381.68449 -326.26629,374.60346 -332.22795,358.63782 M -308.65772,333.9452 C -304.46951,343.26175 -304.4047,356.50845 -313.28759,363.16246 C -325.57176,361.6906 -327.3383,354.49531 -331.38616,337.31238"
           sodipodi:nodetypes="cssssccccccccccccccccc" />
      </g>
      <g
         inkscape:transform-center-y="-24.14418"
         id="g3845"
         transform="matrix(0.4791069,-0.3434591,0.3471909,0.4092757,864.45124,-180.31014)"
         inkscape:transform-center-x="44.679112"
         style="stroke:#000000;stroke-width:2.47333169;stroke-miterlimit:4;stroke-dasharray:none;stroke-opacity:1">
        <path
           sodipodi:nodetypes="czzzcsccscszzzzc"
           id="path3847"
           d="M -305.79429,262.08935 C -298.12485,265.11778 -294.57317,265.97496 -288.42664,273.00717 C -282.15705,280.18018 -269.47796,294.55028 -266.81862,311.75168 C -264.15928,328.95308 -263.06975,356.94806 -265.09013,369.94949 C -267.11051,382.95092 -272.06331,383.19584 -275.44835,389.03205 C -277.75454,402.3084 -279.33952,411.90282 -279.92498,420.48215 C -280.61751,430.63056 -279.68742,439.30261 -273.69395,450.16723 L -276.76488,451.25321 C -283.27088,442.56822 -284.58371,431.64895 -283.79501,420.45647 C -283.17583,411.66975 -280.9923,402.66082 -280.8221,394.79488 C -280.23182,392.5404 -281.25207,391.48632 -281.88109,389.79032 C -283.4317,385.6094 -287.55881,384.05675 -288.85811,377.11029 C -290.15741,370.16383 -292.33987,370.82763 -296.54947,360.37457 C -300.75908,349.92151 -308.00792,334.26064 -310.35384,321.02756 C -312.69976,307.79449 -311.51866,280.76038 -310.53398,274.44807 C -309.59206,268.40984 -309.29196,267.33777 -305.79429,262.08935 z"
           style="fill:#5ab532;fill-rule:evenodd;stroke:#000000;stroke-width:2.47333169;stroke-linecap:butt;stroke-linejoin:miter;stroke-miterlimit:4;stroke-dasharray:none;stroke-opacity:1" />
        <path
           sodipodi:nodetypes="cssssccccccccccccccccc"
           d="M -277.73449,389.7614 C -277.9332,383.94251 -278.48603,377.39802 -279.31326,370.42709 C -280.01523,364.5118 -280.91478,358.28944 -281.96321,351.94279 C -283.14519,344.78777 -284.51639,337.47478 -286.00702,330.26573 C -287.52801,322.90981 -289.17336,315.6621 -290.86891,308.80083 C -296.46677,286.1484 -302.61186,267.70812 -306.63608,263.49234 M -279.27777,370.4703 C -270.08602,367.42927 -265.37315,350.26971 -265.66877,326.62687 M -281.8733,352.72248 C -270.23842,348.57391 -267.8121,322.83256 -270.71954,303.33724 L -271.28073,303.33724 M -279.31285,370.43523 C -285.3403,371.99497 -289.93949,368.49624 -298.77933,347.67172 M -281.90838,352.72248 C -292.60186,353.18654 -298.58712,340.89525 -305.23308,327.18807 M -285.83675,330.76569 C -275.70086,316.09183 -274.63899,301.93263 -278.85688,290.42974 M -285.87183,330.76569 C -300.91841,327.7869 -303.76099,320.70587 -309.72265,304.74023 M -286.15242,280.04761 C -281.96421,289.36416 -281.8994,302.61086 -290.78229,309.26487 C -303.06646,307.79301 -304.833,300.59772 -308.88086,283.41479"
           style="fill:none;fill-rule:evenodd;stroke:#000000;stroke-width:1.39690139;stroke-linecap:butt;stroke-linejoin:miter;stroke-miterlimit:4;stroke-dasharray:none;stroke-opacity:1"
           id="path3849" />
      </g>
      <g
         id="g4037"
         transform="matrix(-0.52875,-0.2458853,-0.2784721,0.4668758,871.52375,-216.02998)"
         inkscape:transform-center-x="49.722301"
         inkscape:transform-center-y="-6.6154346"
         style="stroke:#000000;stroke-width:2.47333169;stroke-miterlimit:4;stroke-dasharray:none;stroke-opacity:1">
        <path
           sodipodi:nodetypes="czzzcsccscszzzzc"
           id="path4039"
           d="M -328.29959,315.98694 C -320.63015,319.01537 -317.07847,319.87255 -310.93194,326.90476 C -304.66235,334.07777 -291.98326,348.44787 -289.32392,365.64927 C -286.66458,382.85067 -285.57505,410.84565 -287.59543,423.84708 C -289.61581,436.84851 -294.56861,437.09343 -297.95365,442.92964 C -300.25984,456.20599 -301.84482,465.80041 -302.43028,474.37974 C -303.12281,484.52815 -302.19272,493.2002 -296.19925,504.06482 L -299.27018,505.1508 C -305.77618,496.46581 -307.08901,485.54654 -306.30031,474.35406 C -305.68113,465.56734 -303.4976,456.55841 -303.3274,448.69247 C -302.73712,446.43799 -303.75737,445.38391 -304.38639,443.68791 C -305.937,439.50699 -310.06411,437.95434 -311.36341,431.00788 C -312.66271,424.06142 -314.84517,424.72522 -319.05477,414.27216 C -323.26438,403.8191 -330.51322,388.15823 -332.85914,374.92515 C -335.20506,361.69208 -334.02396,334.65797 -333.03928,328.34566 C -332.09736,322.30743 -331.79726,321.23536 -328.29959,315.98694 z"
           style="fill:#5ab532;fill-rule:evenodd;stroke:#000000;stroke-width:2.47333169;stroke-linecap:butt;stroke-linejoin:miter;stroke-miterlimit:4;stroke-dasharray:none;stroke-opacity:1" />
        <path
           sodipodi:nodetypes="cssssccccccccccccccccc"
           d="M -300.23979,443.65899 C -300.4385,437.8401 -300.99133,431.29561 -301.81856,424.32468 C -302.52053,418.40939 -303.42008,412.18703 -304.46851,405.84038 C -305.65049,398.68536 -307.02169,391.37237 -308.51232,384.16332 C -310.03331,376.8074 -311.67866,369.55969 -313.37421,362.69842 C -318.97207,340.04599 -325.11716,321.60571 -329.14138,317.38993 M -301.78307,424.36789 C -292.59132,421.32686 -287.87845,404.1673 -288.17407,380.52446 M -304.3786,406.62007 C -292.74372,402.4715 -290.3174,376.73015 -293.22484,357.23483 L -293.78603,357.23483 M -301.81815,424.33282 C -307.8456,425.89256 -312.44479,422.39383 -321.28463,401.56931 M -304.41368,406.62007 C -315.10716,407.08413 -321.09242,394.79284 -327.73838,381.08566 M -308.34205,384.66328 C -298.20616,369.98942 -297.14429,355.83022 -301.36218,344.32733 M -308.37713,384.66328 C -323.42371,381.68449 -326.26629,374.60346 -332.22795,358.63782 M -308.65772,333.9452 C -304.46951,343.26175 -304.4047,356.50845 -313.28759,363.16246 C -325.57176,361.6906 -327.3383,354.49531 -331.38616,337.31238"
           style="fill:none;fill-rule:evenodd;stroke:#000000;stroke-width:1.3969012;stroke-linecap:butt;stroke-linejoin:miter;stroke-miterlimit:4;stroke-dasharray:none;stroke-opacity:1"
           id="path4041" />
      </g>
      <path
         style="fill:#5ab532;fill-rule:evenodd;stroke:#000000;stroke-width:1.01811993;stroke-linecap:butt;stroke-linejoin:miter;stroke-miterlimit:4;stroke-dasharray:none;stroke-opacity:1"
         d="M 873.5549,-18.887489 C 871.76759,-20.115243 869.71851,-20.324127 867.55715,-20.000314 C 864.79881,-19.154934 862.61031,-20.504216 860.92546,-22.257857 C 859.86027,-23.970626 860.39288,-26.616669 860.6789,-28.655223 C 863.43799,-33.751352 870.02559,-29.479681 872.48966,-26.32457 C 873.53674,-24.677061 875.46801,-23.937247 876.93353,-22.720692"
         id="path3959"
         sodipodi:nodetypes="cccccc" />
      <path
         style="fill:#5ab532;fill-rule:evenodd;stroke:#000000;stroke-width:1.01811993;stroke-linecap:butt;stroke-linejoin:miter;stroke-miterlimit:4;stroke-dasharray:none;stroke-opacity:1"
         d="M 876.54399,-20.966234 C 871.64564,-24.613378 866.99443,-30.029499 865.37782,-24.232761 C 862.5987,-18.734537 860.13532,-26.249402 861.74788,-19.209088 C 862.37726,-16.649521 858.39484,-14.455561 857.19681,-15.258373 C 856.01918,-16.367372 854.77075,-16.6037 853.65102,-16.463333 C 850.99139,-16.626054 850.38316,-18.97309 850.10865,-20.970252 C 849.82301,-24.814161 854.7729,-23.249114 856.2565,-24.61468 C 858.51438,-30.913626 861.95378,-26.439842 863.92703,-27.740917 C 867.49653,-30.379268 871.57607,-28.548417 874.77781,-26.055963 C 875.63585,-25.428102 876.3496,-24.598602 876.55266,-23.560916"
         id="path3961"
         sodipodi:nodetypes="cccccccccc" />
      <path
         style="fill:#5ab532;fill-rule:evenodd;stroke:#000000;stroke-width:1.01811993;stroke-linecap:butt;stroke-linejoin:miter;stroke-miterlimit:4;stroke-dasharray:none;stroke-opacity:1"
         d="M 873.39478,-28.388965 C 872.06119,-29.563377 870.49527,-30.119548 869.44801,-31.987164 C 867.06965,-37.786939 859.74701,-41.916728 856.70107,-36.176019 C 856.23905,-33.345205 857.5635,-31.604534 860.86611,-31.391955 C 863.91399,-31.829921 866.54333,-29.137685 869.11019,-26.906582 C 871.29862,-25.213438 873.05581,-23.957788 875.3829,-23.171292"
         id="path3963"
         sodipodi:nodetypes="cccccc" />
      <path
         sodipodi:nodetypes="cccccc"
         id="path3949"
         d="M 902.44167,-18.887489 C 904.22898,-20.115243 906.27807,-20.324127 908.4394,-20.000314 C 911.19774,-19.154934 913.38628,-20.504216 915.0711,-22.257857 C 916.13628,-23.970626 915.60369,-26.616669 915.31765,-28.655223 C 912.5586,-33.751352 905.97095,-29.479681 903.50689,-26.32457 C 902.45983,-24.677061 900.52855,-23.937247 899.06304,-22.720692"
         style="fill:#5ab532;fill-rule:evenodd;stroke:#000000;stroke-width:1.01811993;stroke-linecap:butt;stroke-linejoin:miter;stroke-miterlimit:4;stroke-dasharray:none;stroke-opacity:1" />
      <path
         sodipodi:nodetypes="cccccccccc"
         id="path3951"
         d="M 899.45257,-20.966234 C 904.35092,-24.613378 909.00211,-30.029499 910.61873,-24.232761 C 913.39788,-18.734537 915.86123,-26.249402 914.24868,-19.209088 C 913.61929,-16.649521 917.60175,-14.455561 918.79975,-15.258373 C 919.9774,-16.367372 921.22585,-16.6037 922.34552,-16.463333 C 925.00515,-16.626054 925.61342,-18.97309 925.88793,-20.970252 C 926.17353,-24.814161 921.22368,-23.249114 919.74006,-24.61468 C 917.48218,-30.913626 914.04277,-26.439842 912.06952,-27.740917 C 908.50003,-30.379268 904.42049,-28.548417 901.21876,-26.055963 C 900.36072,-25.428102 899.64696,-24.598602 899.44391,-23.560916"
         style="fill:#5ab532;fill-rule:evenodd;stroke:#000000;stroke-width:1.01811993;stroke-linecap:butt;stroke-linejoin:miter;stroke-miterlimit:4;stroke-dasharray:none;stroke-opacity:1" />
      <path
         sodipodi:nodetypes="cccccc"
         id="path3953"
         d="M 902.60179,-28.388965 C 903.93536,-29.563377 905.50131,-30.119548 906.54856,-31.987164 C 908.92692,-37.786939 916.24955,-41.916728 919.29551,-36.176019 C 919.7575,-33.345205 918.43305,-31.604534 915.13048,-31.391955 C 912.08258,-31.829921 909.45322,-29.137685 906.88639,-26.906582 C 904.69797,-25.213438 902.94075,-23.957788 900.61366,-23.171292"
         style="fill:#5ab532;fill-rule:evenodd;stroke:#000000;stroke-width:1.01811993;stroke-linecap:butt;stroke-linejoin:miter;stroke-miterlimit:4;stroke-dasharray:none;stroke-opacity:1" />
      <path
         style="fill:#5ab532;fill-rule:evenodd;stroke:#000000;stroke-width:1.01812017;stroke-linecap:butt;stroke-linejoin:miter;stroke-miterlimit:4;stroke-dasharray:none;stroke-opacity:1"
         d="M 876.40244,-47.975644 C 874.81342,-49.067183 872.99168,-49.252897 871.07009,-48.965007 C 868.61778,-48.213416 866.67208,-49.413005 865.17414,-50.972096 C 864.22714,-52.494841 864.70065,-54.847326 864.95495,-56.659717 C 867.40793,-61.190467 873.26469,-57.392705 875.45539,-54.587631 C 876.3863,-53.122904 878.10331,-52.465165 879.40624,-51.38358"
         id="path3981"
         sodipodi:nodetypes="cccccc" />
      <path
         sodipodi:nodetypes="cccccc"
         id="path3971"
         d="M 902.08438,-47.975644 C 903.67342,-49.067183 905.49514,-49.252897 907.4167,-48.965007 C 909.86907,-48.213416 911.81474,-49.413005 913.31266,-50.972096 C 914.25968,-52.494841 913.78614,-54.847326 913.53185,-56.659717 C 911.07889,-61.190467 905.22215,-57.392705 903.03143,-54.587631 C 902.10052,-53.122904 900.38351,-52.465165 899.08058,-51.38358"
         style="fill:#5ab532;fill-rule:evenodd;stroke:#000000;stroke-width:1.01812017;stroke-linecap:butt;stroke-linejoin:miter;stroke-miterlimit:4;stroke-dasharray:none;stroke-opacity:1" />
      <path
         sodipodi:nodetypes="cccccccccc"
         id="path3973"
         d="M 899.4269,-49.823768 C 903.78182,-53.066286 907.91701,-57.881524 909.35425,-52.727898 C 911.82509,-47.839659 914.01513,-54.520806 912.58152,-48.261562 C 912.02195,-45.985962 915.56251,-44.035405 916.62764,-44.749154 C 917.67461,-45.735117 918.78459,-45.945226 919.78004,-45.82043 C 922.14464,-45.965097 922.68535,-48.051749 922.92941,-49.827336 C 923.18338,-53.244792 918.78264,-51.853377 917.46366,-53.067444 C 915.45628,-58.667566 912.39841,-54.690117 910.64408,-55.846845 C 907.47061,-58.19249 903.84369,-56.56476 900.99714,-54.348825 C 900.23429,-53.790621 899.59972,-53.053151 899.41919,-52.130589"
         style="fill:#5ab532;fill-rule:evenodd;stroke:#000000;stroke-width:1.01812017;stroke-linecap:butt;stroke-linejoin:miter;stroke-miterlimit:4;stroke-dasharray:none;stroke-opacity:1" />
      <path
         sodipodi:nodetypes="cccccc"
         id="path3975"
         d="M 902.22674,-56.422997 C 903.41236,-57.467122 904.80458,-57.961586 905.73562,-59.622002 C 907.85015,-64.778331 914.36039,-68.449953 917.0684,-63.346132 C 917.47915,-60.829383 916.30167,-59.281823 913.36542,-59.092827 C 910.65568,-59.482203 908.31806,-57.088652 906.03596,-55.105075 C 904.09034,-53.599774 902.52809,-52.483429 900.45917,-51.784188"
         style="fill:#5ab532;fill-rule:evenodd;stroke:#000000;stroke-width:1.01812017;stroke-linecap:butt;stroke-linejoin:miter;stroke-miterlimit:4;stroke-dasharray:none;stroke-opacity:1" />
      <path
         style="fill:#5ab532;fill-rule:evenodd;stroke:#000000;stroke-width:1.01812017;stroke-linecap:butt;stroke-linejoin:miter;stroke-miterlimit:4;stroke-dasharray:none;stroke-opacity:1"
         d="M 879.05992,-49.823768 C 874.70501,-53.066286 870.56981,-57.881524 869.13255,-52.727898 C 866.66175,-47.839659 864.47167,-54.520806 865.90532,-48.261562 C 866.46488,-45.985962 862.92429,-44.035405 861.85917,-44.749154 C 860.81219,-45.735117 859.70226,-45.945226 858.70676,-45.82043 C 856.34219,-45.965097 855.80144,-48.051749 855.55739,-49.827336 C 855.30344,-53.244792 859.70418,-51.853377 861.02318,-53.067444 C 863.03056,-58.667566 866.08838,-54.690117 867.84271,-55.846845 C 871.0162,-58.19249 874.64315,-56.56476 877.48967,-54.348825 C 878.25253,-53.790621 878.8871,-53.053151 879.06762,-52.130589"
         id="path3983"
         sodipodi:nodetypes="cccccccccc" />
      <path
         style="fill:#5ab532;fill-rule:evenodd;stroke:#000000;stroke-width:1.01812017;stroke-linecap:butt;stroke-linejoin:miter;stroke-miterlimit:4;stroke-dasharray:none;stroke-opacity:1"
         d="M 876.26008,-56.422997 C 875.07445,-57.467122 873.68225,-57.961586 872.75118,-59.622002 C 870.63668,-64.778331 864.12644,-68.449953 861.41842,-63.346132 C 861.00767,-60.829383 862.18517,-59.281823 865.12138,-59.092827 C 867.83113,-59.482203 870.16876,-57.088652 872.45085,-55.105075 C 874.39648,-53.599774 875.95873,-52.483429 878.02765,-51.784188"
         id="path3985"
         sodipodi:nodetypes="cccccc" />
      <path
         sodipodi:nodetypes="csccccccccscscccccccsccccccccscccccccscsccsc"
         d="M 891.23458,33.134211 C 890.13283,15.467881 889.01747,-1.5866046 889.25427,-17.235206 C 889.25684,-17.40546 889.26827,-17.573576 889.2712,-17.743452 C 889.35794,-17.694263 889.46281,-17.667207 889.60979,-17.668709 C 891.37759,-17.764016 892.91954,-18.276341 894.5532,-18.849633 C 902.21533,-15.756583 901.11919,-20.494516 910.16215,-19.851175 C 907.6172,-21.929547 904.04473,-22.598704 901.66358,-22.392402 C 904.75989,-25.431273 904.29886,-27.617331 903.27188,-30.285152 C 901.62469,-25.575318 894.01743,-26.375342 892.53859,-20.299627 C 891.49011,-19.940167 890.47976,-19.172704 889.30506,-19.313033 C 889.47704,-26.599974 889.94613,-33.525519 890.45626,-39.986659 C 890.54115,-41.061776 890.5778,-43.670488 890.57477,-46.907764 C 890.60894,-46.903645 890.63694,-46.892414 890.67635,-46.892816 C 892.24803,-46.977551 893.62558,-47.429494 895.07801,-47.939203 C 901.89009,-45.189302 900.90358,-49.408068 908.94323,-48.836106 C 906.68074,-50.683891 903.5097,-51.276723 901.39271,-51.093314 C 904.14555,-53.795045 903.72781,-55.732262 902.81478,-58.10411 C 901.35035,-53.916799 894.59825,-54.626444 893.28349,-49.224765 C 892.40011,-48.921908 891.55034,-48.315147 890.57477,-48.357758 C 890.53683,-59.876531 890.20654,-78.789946 890.67635,-81.946792 C 890.33726,-82.433785 889.99966,-82.682559 889.66058,-82.679268 C 889.3215,-82.675969 888.98389,-82.427246 888.64482,-81.901952 C 888.14629,-78.552189 887.21706,-60.251397 886.59634,-48.641778 C 886.12746,-48.833968 885.67191,-49.065762 885.20813,-49.224765 C 883.89336,-54.626444 877.12434,-53.916799 875.65991,-58.10411 C 874.74685,-55.732262 874.34611,-53.795045 877.09891,-51.093314 C 874.98197,-51.276723 871.79406,-50.683891 869.53143,-48.836106 C 877.57119,-49.408068 876.60153,-45.189302 883.41361,-47.939203 C 884.45183,-47.574854 885.45174,-47.249544 886.5117,-47.057248 C 886.32467,-43.590594 886.16395,-40.812709 886.07153,-39.612949 C 885.5859,-33.308339 885.29983,-26.581476 885.15734,-19.567156 C 884.57859,-19.792348 884.01644,-20.104556 883.44747,-20.299627 C 881.96862,-26.375342 874.37828,-25.575318 872.7311,-30.285152 C 871.70414,-27.617331 871.22615,-25.431273 874.32248,-22.392402 C 871.94133,-22.598704 868.36885,-21.929547 865.82388,-19.851175 C 874.86689,-20.494516 873.77073,-15.756583 881.43285,-18.849633 C 882.6686,-18.415986 883.85373,-18.026461 885.12348,-17.818193 C 885.12013,-17.616747 885.10966,-17.422188 885.10655,-17.220258 C 884.86334,-1.4065308 885.34884,15.884549 885.40807,33.301384 C 885.1442,42.439368 885.59364,51.94364 886.04655,61.432614 C 888.76488,118.38536 891.91765,174.78489 886.9507,211.23317 L 893.99111,212.00801 C 899.10488,174.48245 894.47085,118.08481 891.75324,61.147124 C 891.30436,51.742375 891.81343,42.481656 891.23458,33.134211 z"
         style="fill:#5ab532;fill-opacity:1;fill-rule:evenodd;stroke:#000000;stroke-width:1.38888693;stroke-linecap:butt;stroke-linejoin:miter;stroke-miterlimit:4;stroke-dasharray:none;stroke-opacity:1"
         id="path3877" />
      <g
         id="g4643">
        <g
           style="stroke:#000000;stroke-width:1.46130311;stroke-miterlimit:4;stroke-dasharray:none;stroke-opacity:1"
           inkscape:transform-center-y="-31.334041"
           id="g4031"
           transform="matrix(0.779829,-0.6213786,0.698734,0.6016264,771.64064,-289.81565)"
           inkscape:transform-center-x="-66.039296">
          <path
             sodipodi:nodetypes="cccszzzzczzzcsc"
             id="path4033"
             d="M -299.43561,502.39746 C -299.15564,496.68083 -298.86044,493.13003 -299.06873,487.58044 C -302.32261,475.06891 -304.57906,462.10775 -303.3274,448.69247 C -302.73712,446.43799 -303.75737,445.38391 -304.38639,443.68791 C -305.937,439.50699 -310.06411,437.95434 -311.36341,431.00788 C -312.66271,424.06142 -314.84517,424.72522 -319.05477,414.27216 C -323.26438,403.8191 -330.51322,388.15823 -332.85914,374.92515 C -335.20506,361.69208 -334.02396,334.65797 -333.03928,328.34566 C -332.09736,322.30743 -331.79726,321.23536 -328.29959,315.98694 C -320.63015,319.01537 -317.07847,319.87255 -310.93194,326.90476 C -304.66235,334.07777 -291.98326,348.44787 -289.32392,365.64927 C -286.66458,382.85067 -285.57505,410.84565 -287.59543,423.84708 C -289.61581,436.84851 -294.56861,437.09343 -297.95365,442.92964 C -300.4877,453.44208 -299.26454,462.41428 -298.01605,470.73455 C -296.18226,482.9553 -288.46536,496.21065 -294.83205,505.47691"
             style="fill:#5ab532;fill-rule:evenodd;stroke:#000000;stroke-width:1.46130311;stroke-linecap:butt;stroke-linejoin:miter;stroke-miterlimit:4;stroke-dasharray:none;stroke-opacity:1" />
          <path
             sodipodi:nodetypes="cssssccccccccccccccccc"
             d="M -300.23979,443.65899 C -300.4385,437.8401 -300.99133,431.29561 -301.81856,424.32468 C -302.52053,418.40939 -303.42008,412.18703 -304.46851,405.84038 C -305.65049,398.68536 -307.02169,391.37237 -308.51232,384.16332 C -310.03331,376.8074 -311.67866,369.55969 -313.37421,362.69842 C -318.97207,340.04599 -325.11716,321.60571 -329.14138,317.38993 M -301.78307,424.36789 C -292.59132,421.32686 -287.87845,404.1673 -288.17407,380.52446 M -304.3786,406.62007 C -292.74372,402.4715 -290.3174,376.73015 -293.22484,357.23483 L -293.78603,357.23483 M -301.81815,424.33282 C -307.8456,425.89256 -312.44479,422.39383 -321.28463,401.56931 M -304.41368,406.62007 C -315.10716,407.08413 -321.09242,394.79284 -327.73838,381.08566 M -308.34205,384.66328 C -298.20616,369.98942 -297.14429,355.83022 -301.36218,344.32733 M -308.37713,384.66328 C -323.42371,381.68449 -326.26629,374.60346 -332.22795,358.63782 M -308.65772,333.9452 C -304.46951,343.26175 -304.4047,356.50845 -313.28759,363.16246 C -325.57176,361.6906 -327.3383,354.49531 -331.38616,337.31238"
             style="fill:none;fill-rule:evenodd;stroke:#000000;stroke-width:0.82532243;stroke-linecap:butt;stroke-linejoin:miter;stroke-miterlimit:4;stroke-dasharray:none;stroke-opacity:1"
             id="path4035" />
        </g>
      </g>
      <g
         inkscape:transform-center-y="16.381439"
         inkscape:transform-center-x="-45.76397"
         transform="matrix(0.6803279,8.3831426e-3,-9.4941454e-3,0.6007161,1093.3048,-161.90061)"
         id="g3835"
         style="stroke:#000000;stroke-width:2.17235518;stroke-miterlimit:4;stroke-dasharray:none;stroke-opacity:1">
        <path
           style="fill:#5ab532;fill-rule:evenodd;stroke:#000000;stroke-width:2.17235518;stroke-linecap:butt;stroke-linejoin:miter;stroke-miterlimit:4;stroke-dasharray:none;stroke-opacity:1"
           d="M -289.52336,504.47279 C -293.56997,500.84139 -293.81275,495.8721 -296.10319,491.6539 C -299.85779,484.73922 -303.35652,477.4458 -304.05706,467.18739 C -304.36611,462.66176 -304.63926,458.21345 -304.91694,454.14726 C -305.07471,451.83697 -303.75737,445.38391 -304.38639,443.68791 C -305.937,439.50699 -310.06411,437.95434 -311.36341,431.00788 C -312.66271,424.06142 -314.84517,424.72522 -319.05477,414.27216 C -323.26438,403.8191 -330.51322,388.15823 -332.85914,374.92515 C -335.20506,361.69208 -334.02396,334.65797 -333.03928,328.34566 C -332.09736,322.30743 -331.79726,321.23536 -328.29959,315.98694 C -320.63015,319.01537 -317.07847,319.87255 -310.93194,326.90476 C -304.66235,334.07777 -291.98326,348.44787 -289.32392,365.64927 C -286.66458,382.85067 -285.57505,410.84565 -287.59543,423.84708 C -289.61581,436.84851 -294.56861,437.09343 -297.95365,442.92964 C -299.14228,446.80638 -299.11615,456.01243 -298.445,466.13615 C -297.76493,476.39442 -290.25798,483.68807 -286.44971,490.9986 C -284.16698,495.38062 -285.13454,500.62408 -284.32989,504.12595"
           id="path3815"
           sodipodi:nodetypes="csssszzzzczzzcssc" />
        <path
           id="path3818"
           style="fill:none;fill-rule:evenodd;stroke:#000000;stroke-width:1.22691418;stroke-linecap:butt;stroke-linejoin:miter;stroke-miterlimit:4;stroke-dasharray:none;stroke-opacity:1"
           d="M -300.23979,443.65899 C -300.4385,437.8401 -300.99133,431.29561 -301.81856,424.32468 C -302.52053,418.40939 -303.42008,412.18703 -304.46851,405.84038 C -305.65049,398.68536 -307.02169,391.37237 -308.51232,384.16332 C -310.03331,376.8074 -311.67866,369.55969 -313.37421,362.69842 C -318.97207,340.04599 -325.11716,321.60571 -329.14138,317.38993 M -301.78307,424.36789 C -292.59132,421.32686 -287.87845,404.1673 -288.17407,380.52446 M -304.3786,406.62007 C -292.74372,402.4715 -290.3174,376.73015 -293.22484,357.23483 L -293.78603,357.23483 M -301.81815,424.33282 C -307.8456,425.89256 -312.44479,422.39383 -321.28463,401.56931 M -304.41368,406.62007 C -315.10716,407.08413 -321.09242,394.79284 -327.73838,381.08566 M -308.34205,384.66328 C -298.20616,369.98942 -297.14429,355.83022 -301.36218,344.32733 M -308.37713,384.66328 C -323.42371,381.68449 -326.26629,374.60346 -332.22795,358.63782 M -308.65772,333.9452 C -304.46951,343.26175 -304.4047,356.50845 -313.28759,363.16246 C -325.57176,361.6906 -327.3383,354.49531 -331.38616,337.31238"
           sodipodi:nodetypes="cssssccccccccccccccccc" />
      </g>
      <g
         style="stroke:#000000;stroke-width:2.57475591;stroke-miterlimit:4;stroke-dasharray:none;stroke-opacity:1"
         transform="matrix(0.4171921,4.862743e-2,-5.5071936e-2,0.3683724,468.71064,-288.55075)"
         id="g4049">
        <g
           style="stroke:#000000;stroke-width:2.57475591;stroke-miterlimit:4;stroke-dasharray:none;stroke-opacity:1"
           id="g4045"
           transform="translate(-34.52381,0)">
          <path
             sodipodi:nodetypes="czzzccccccc"
             id="path3853"
             d="M 1229.2608,608.41244 C 1223.1398,602.65508 1219.2658,593.60746 1215.5542,592.07385 C 1211.5013,590.39918 1197.6053,582.75944 1183.6473,584.45849 C 1169.6893,586.15755 1154.871,589.12692 1145.261,593.13455 C 1135.651,597.14218 1136.6162,594.66214 1132.8803,598.13563 C 1123.1238,602.39226 1126.1691,601.49556 1119.6533,603.63484 L 1120.5757,606.24466 C 1127.2445,604.04045 1123.6056,604.6517 1129.6651,602.93802 C 1139.9211,602.11249 1151.2947,603.00395 1161.6096,604.18873 C 1170.6965,604.90875 1183.7368,603.05256 1194.5447,601.94824 C 1206.81,597.59593 1217.5049,608.27856 1229.2608,608.41244 z"
             style="fill:#5ab532;fill-rule:evenodd;stroke:#000000;stroke-width:2.57475591;stroke-linecap:butt;stroke-linejoin:miter;stroke-miterlimit:4;stroke-dasharray:none;stroke-opacity:1" />
          <path
             sodipodi:nodetypes="csscccccccscscccs"
             d="M 1132.8249,601.1287 C 1137.3844,600.37883 1142.5894,599.69463 1148.1891,599.08106 C 1152.9408,598.56042 1157.9768,598.09063 1163.1439,597.67473 C 1168.9692,597.20586 1174.9611,596.80548 1180.9003,596.47794 C 1198.7862,593.15087 1209.9491,599.07725 1225.5981,606.66204 M 1148.1472,599.07019 C 1148.3617,594.18549 1160.5713,589.4131 1178.978,586.11894 M 1162.1214,598.53827 C 1162.6248,592.31174 1184.405,585.80963 1199.0136,586.76172 M 1148.1827,599.08205 C 1148.3044,601.02819 1149.8052,602.42666 1155.2655,603.50521 M 1162.5264,597.76157 C 1163.4012,599.90727 1165.753,601.35939 1169.0628,602.40998 M 1180.4728,596.46832 C 1189.4894,589.43619 1204.9857,592.81698 1214.8914,593.18337 M 1180.4809,596.48528 C 1182.7799,599.18663 1185.131,600.87476 1187.9832,601.96318"
             style="fill:none;fill-rule:evenodd;stroke:#000000;stroke-width:2.57475591;stroke-linecap:butt;stroke-linejoin:miter;stroke-miterlimit:4;stroke-dasharray:none;stroke-opacity:1"
             id="path3855" />
        </g>
      </g>
      <g
         style="stroke:#000000;stroke-width:2.57475591;stroke-miterlimit:4;stroke-dasharray:none;stroke-opacity:1"
         id="g4054"
         transform="matrix(-0.4171921,4.862743e-2,5.5071936e-2,0.3683724,1305.3998,-288.35139)">
        <g
           style="stroke:#000000;stroke-width:2.57475591;stroke-miterlimit:4;stroke-dasharray:none;stroke-opacity:1"
           transform="translate(-34.52381,0)"
           id="g4056">
          <path
             style="fill:#5ab532;fill-rule:evenodd;stroke:#000000;stroke-width:2.57475591;stroke-linecap:butt;stroke-linejoin:miter;stroke-miterlimit:4;stroke-dasharray:none;stroke-opacity:1"
             d="M 1229.2608,608.41244 C 1223.1398,602.65508 1219.2658,593.60746 1215.5542,592.07385 C 1211.5013,590.39918 1197.6053,582.75944 1183.6473,584.45849 C 1169.6893,586.15755 1154.871,589.12692 1145.261,593.13455 C 1135.651,597.14218 1136.6162,594.66214 1132.8803,598.13563 C 1123.1238,602.39226 1126.1691,601.49556 1119.6533,603.63484 L 1120.5757,606.24466 C 1127.2445,604.04045 1123.6056,604.6517 1129.6651,602.93802 C 1139.9211,602.11249 1151.2947,603.00395 1161.6096,604.18873 C 1170.6965,604.90875 1183.7368,603.05256 1194.5447,601.94824 C 1206.81,597.59593 1217.5049,608.27856 1229.2608,608.41244 z"
             id="path4058"
             sodipodi:nodetypes="czzzccccccc" />
          <path
             id="path4060"
             style="fill:none;fill-rule:evenodd;stroke:#000000;stroke-width:2.57475591;stroke-linecap:butt;stroke-linejoin:miter;stroke-miterlimit:4;stroke-dasharray:none;stroke-opacity:1"
             d="M 1132.8249,601.1287 C 1137.3844,600.37883 1142.5894,599.69463 1148.1891,599.08106 C 1152.9408,598.56042 1157.9768,598.09063 1163.1439,597.67473 C 1168.9692,597.20586 1174.9611,596.80548 1180.9003,596.47794 C 1198.7862,593.15087 1209.9491,599.07725 1225.5981,606.66204 M 1148.1472,599.07019 C 1148.3617,594.18549 1160.5713,589.4131 1178.978,586.11894 M 1162.1214,598.53827 C 1162.6248,592.31174 1184.405,585.80963 1199.0136,586.76172 M 1148.1827,599.08205 C 1148.3044,601.02819 1149.8052,602.42666 1155.2655,603.50521 M 1162.5264,597.76157 C 1163.4012,599.90727 1165.753,601.35939 1169.0628,602.40998 M 1180.4728,596.46832 C 1189.4894,589.43619 1204.9857,592.81698 1214.8914,593.18337 M 1180.4809,596.48528 C 1182.7799,599.18663 1185.131,600.87476 1187.9832,601.96318"
             sodipodi:nodetypes="csscccccccscscccs" />
        </g>
      </g>
      <g
         id="g4019"
         transform="matrix(0.2157977,0.1861331,-0.210801,0.1905451,1089.7219,-37.928201)"
         style="stroke:#000000;stroke-width:3.59161043;stroke-miterlimit:4;stroke-dasharray:none;stroke-opacity:1">
        <path
           style="fill:#5ab532;fill-rule:evenodd;stroke:#000000;stroke-width:3.59161043;stroke-linecap:butt;stroke-linejoin:miter;stroke-miterlimit:4;stroke-dasharray:none;stroke-opacity:1"
           d="M -554.74213,337.31238 C -551.39157,332.80824 -546.65246,330.88783 -541.24603,330.33452 C -534.02269,330.79766 -529.80464,325.69934 -527.09276,319.84001 C -525.83078,314.50111 -529.08522,307.6937 -531.29553,302.36695 C -541.70458,290.40263 -554.24388,306.31782 -557.76769,316.4846 C -559.0353,321.63494 -563.09529,324.91403 -565.68543,329.17504"
           id="path4001"
           sodipodi:nodetypes="cccccc" />
        <path
           style="fill:#5ab532;fill-rule:evenodd;stroke:#000000;stroke-width:3.59161043;stroke-linecap:butt;stroke-linejoin:miter;stroke-miterlimit:4;stroke-dasharray:none;stroke-opacity:1"
           d="M -563.44063,333.66462 C -554.46946,320.55653 -547.41375,302.82538 -539.20947,317.441 C -528.45136,330.48006 -528.19477,308.51711 -526.77405,328.6333 C -526.36058,335.97525 -515.20257,339.27779 -512.9416,336.31318 C -510.95872,332.5336 -508.15301,331.06845 -505.37266,330.7077 C -499.14023,328.5084 -499.44506,321.75551 -500.28515,316.17004 C -502.48189,305.58027 -513.13576,313.08871 -517.70318,310.37498 C -527.81571,294.82459 -532.68203,309.20451 -538.37099,306.98912 C -548.87533,302.21105 -557.25069,309.86308 -563.03326,318.72472 C -564.61298,320.99108 -565.69695,323.7076 -565.40483,326.64966"
           id="path4003"
           sodipodi:nodetypes="cccccccccc" />
        <path
           style="fill:#5ab532;fill-rule:evenodd;stroke:#000000;stroke-width:3.59161043;stroke-linecap:butt;stroke-linejoin:miter;stroke-miterlimit:4;stroke-dasharray:none;stroke-opacity:1"
           d="M -561.47644,311.49738 C -559.16995,307.43764 -555.84529,304.89709 -554.74211,299.15106 C -553.404,281.88503 -539.00231,265.86763 -527.42508,279.38633 C -524.2009,286.74038 -526.0614,292.32625 -533.79268,295.08571 C -541.40264,295.91647 -545.668,304.9401 -550.12951,312.67469 C -554.08983,318.70337 -557.34754,323.26308 -562.31825,326.93026"
           id="path4005"
           sodipodi:nodetypes="cccccc" />
        <path
           style="fill:#5ab532;fill-rule:evenodd;stroke:#000000;stroke-width:3.59161043;stroke-linecap:butt;stroke-linejoin:miter;stroke-miterlimit:4;stroke-dasharray:none;stroke-opacity:1"
           d="M -586.73029,344.88852 C -583.64408,344.64542 -581.75852,341.76994 -579.4475,340.04778 C -580.4652,322.63 -561.70649,319.77887 -561.29891,305.94559 C -556.84701,312.48499 -554.1008,318.05167 -559.22223,328.32209 C -553.68783,326.18904 -544.65029,325.64535 -537.01318,329.58582 C -559.10033,333.82592 -552.91927,345.94537 -573.54217,342.64374 C -577.01586,345.27545 -580.33331,347.67043 -584.48549,349.09749 C -586.72576,349.74567 -586.58825,346.28716 -586.73029,344.88852 z"
           id="path4007"
           sodipodi:nodetypes="cccccccc" />
      </g>
      <path
         style="fill:#5ab532;fill-rule:evenodd;stroke:#000000;stroke-width:1.01811993;stroke-linecap:butt;stroke-linejoin:miter;stroke-miterlimit:4;stroke-dasharray:none;stroke-opacity:1"
         d="M 897.83897,-87.320272 C 898.28495,-88.762806 899.40509,-89.699267 900.86302,-90.361422 C 902.94312,-90.947837 903.56745,-92.621978 903.68501,-94.338651 C 903.4525,-95.785474 901.78975,-97.158054 900.58313,-98.264735 C 896.34348,-100.22184 894.57092,-95.056722 894.6989,-92.192772 C 894.90912,-90.792182 894.12914,-89.584641 893.87004,-88.276239"
         id="path3925"
         sodipodi:nodetypes="cccccc" />
      <path
         style="fill:#5ab532;fill-rule:evenodd;stroke:#000000;stroke-width:1.01811993;stroke-linecap:butt;stroke-linejoin:miter;stroke-miterlimit:4;stroke-dasharray:none;stroke-opacity:1"
         d="M 894.9943,-87.380565 C 896.07317,-91.502967 896.10562,-96.586138 900.01742,-93.75733 C 904.4733,-91.567526 902.13043,-97.04026 904.74141,-92.188454 C 905.66486,-90.407457 909.16247,-90.671589 909.47164,-91.626463 C 909.61309,-92.756485 910.24016,-93.392309 910.98159,-93.751736 C 912.49056,-94.902357 911.6624,-96.547792 910.81224,-97.851685 C 909.03078,-100.26516 906.86348,-97.36835 905.28201,-97.598036 C 900.73135,-100.47344 900.94546,-96.434096 899.10373,-96.431281 C 895.62749,-96.596613 894.11607,-93.885408 893.46602,-91.125895 C 893.27144,-90.410367 893.26563,-89.631299 893.67119,-88.929897"
         id="path3927"
         sodipodi:nodetypes="cccccccccc" />
      <path
         style="fill:#5ab532;fill-rule:evenodd;stroke:#000000;stroke-width:1.01811993;stroke-linecap:butt;stroke-linejoin:miter;stroke-miterlimit:4;stroke-dasharray:none;stroke-opacity:1"
         d="M 893.10867,-93.06976 C 893.31021,-94.300694 893.96483,-95.253655 893.64293,-96.78604 C 892.12035,-101.19872 894.40485,-106.57001 899.14357,-104.34076 C 900.85792,-102.82965 900.94946,-101.26346 899.08102,-99.828377 C 897.03459,-98.883471 896.82856,-96.231079 896.42569,-93.879389 C 895.97605,-91.999497 895.56226,-90.55219 894.56912,-89.159964"
         id="path3929"
         sodipodi:nodetypes="cccccc" />
      <path
         style="fill:#5ab532;fill-rule:evenodd;stroke:#000000;stroke-width:1.01811993;stroke-linecap:butt;stroke-linejoin:miter;stroke-miterlimit:4;stroke-dasharray:none;stroke-opacity:1"
         d="M 889.68592,-82.335366 C 890.52616,-82.6953 890.73968,-83.591619 891.19953,-84.243166 C 888.99846,-88.464771 893.95464,-90.993235 892.5481,-94.464097 C 894.51776,-93.274244 895.90131,-92.160078 895.59189,-89.115314 C 896.91206,-90.18173 899.3911,-91.194031 901.96979,-90.958085 C 896.23131,-87.761948 899.30028,-85.355873 893.14389,-84.172588 C 892.45743,-83.182549 891.78883,-82.266401 890.77932,-81.509295 C 890.22126,-81.131013 889.8796,-82.002233 889.68592,-82.335366 z"
         id="path3931"
         sodipodi:nodetypes="cccccccc" />
      <path
         sodipodi:nodetypes="cccccc"
         id="path3913"
         d="M 879.38332,-78.43216 C 877.81167,-78.9891 876.28994,-78.76596 874.81195,-78.139447 C 873.02672,-77.029261 871.13829,-77.600474 869.51741,-78.554095 C 868.35152,-79.591233 868.11609,-81.590304 867.84536,-83.107778 C 868.63788,-87.27365 874.37136,-85.403162 876.87984,-83.584076 C 878.01746,-82.590555 879.57858,-82.410584 880.9163,-81.803078"
         style="fill:#5ab532;fill-rule:evenodd;stroke:#000000;stroke-width:1.01811993;stroke-linecap:butt;stroke-linejoin:miter;stroke-miterlimit:4;stroke-dasharray:none;stroke-opacity:1" />
      <path
         sodipodi:nodetypes="cccccccccc"
         id="path3909"
         d="M 881.04624,-80.470963 C 876.67297,-82.200266 872.06401,-85.24618 872.25643,-80.784824 C 871.54345,-76.326261 868.01677,-81.279382 870.82097,-76.51239 C 871.87146,-74.787155 869.52144,-72.48458 868.47267,-72.843414 C 867.36704,-73.426055 866.4144,-73.368496 865.64232,-73.063614 C 863.69248,-72.696057 862.70685,-74.272365 862.04287,-75.657971 C 860.93936,-78.369037 864.86317,-78.145795 865.61054,-79.397679 C 865.76174,-84.336857 869.27942,-81.74755 870.39383,-83.04228 C 872.3432,-85.589078 875.70349,-85.016201 878.58738,-83.807839 C 879.35087,-83.512831 880.05775,-83.046598 880.44619,-82.337675"
         style="fill:#5ab532;fill-rule:evenodd;stroke:#000000;stroke-width:1.01811993;stroke-linecap:butt;stroke-linejoin:miter;stroke-miterlimit:4;stroke-dasharray:none;stroke-opacity:1" />
      <path
         sodipodi:nodetypes="cccccc"
         id="path3905"
         d="M 877.04808,-85.232905 C 875.81504,-85.834165 874.55946,-85.948681 873.37028,-87.100387 C 870.30546,-90.836143 864.07678,-92.470736 863.22865,-87.789261 C 863.558,-85.670233 864.91677,-84.66027 867.34046,-85.109122 C 869.42903,-85.979191 871.94813,-84.522941 874.31458,-83.386783 C 876.28331,-82.568387 877.83983,-81.985908 879.69637,-81.844496"
         style="fill:#5ab532;fill-rule:evenodd;stroke:#000000;stroke-width:1.01811993;stroke-linecap:butt;stroke-linejoin:miter;stroke-miterlimit:4;stroke-dasharray:none;stroke-opacity:1" />
      <path
         sodipodi:nodetypes="cccccccc"
         id="path3903"
         d="M 888.80605,-81.161787 C 887.97381,-80.787625 887.03566,-81.178441 886.16979,-81.248088 C 883.6871,-85.34608 878.41216,-83.3838 876.12762,-86.469277 C 876.01277,-84.364485 876.18344,-82.717944 879.11923,-81.097594 C 877.3594,-80.812108 874.94883,-79.678216 873.60507,-77.720598 C 879.9551,-79.830463 880.27467,-76.217587 885.05969,-79.836811 C 886.36798,-79.722323 887.59876,-79.63987 888.89177,-79.893409 C 889.57021,-80.057869 888.98989,-80.824328 888.80605,-81.161787 z"
         style="fill:#5ab532;fill-rule:evenodd;stroke:#000000;stroke-width:1.01811993;stroke-linecap:butt;stroke-linejoin:miter;stroke-miterlimit:4;stroke-dasharray:none;stroke-opacity:1" />
      <path
         sodipodi:nodetypes="cccccc"
         id="path4011"
         d="M 881.62487,-87.320272 C 881.17888,-88.762806 880.05873,-89.699267 878.6008,-90.361422 C 876.52071,-90.947837 875.89637,-92.621978 875.77881,-94.338651 C 876.01134,-95.785474 877.67408,-97.158054 878.8807,-98.264735 C 883.12034,-100.22184 884.89291,-95.056722 884.76493,-92.192772 C 884.55472,-90.792182 885.33469,-89.584641 885.59379,-88.276239"
         style="fill:#5ab532;fill-rule:evenodd;stroke:#000000;stroke-width:1.01811993;stroke-linecap:butt;stroke-linejoin:miter;stroke-miterlimit:4;stroke-dasharray:none;stroke-opacity:1" />
      <path
         sodipodi:nodetypes="cccccccccc"
         id="path4013"
         d="M 884.46953,-87.380565 C 883.39066,-91.502967 883.35821,-96.586138 879.44641,-93.75733 C 874.99054,-91.567526 877.3334,-97.04026 874.72241,-92.188454 C 873.79897,-90.407457 870.30134,-90.671589 869.99217,-91.626463 C 869.85072,-92.756485 869.22365,-93.392309 868.48227,-93.751736 C 866.97327,-94.902357 867.80143,-96.547792 868.65157,-97.851685 C 870.43308,-100.26516 872.60036,-97.36835 874.18183,-97.598036 C 878.73247,-100.47344 878.51837,-96.434096 880.3601,-96.431281 C 883.83634,-96.596613 885.34777,-93.885408 885.99781,-91.125895 C 886.19239,-90.410367 886.1982,-89.631299 885.79264,-88.929897"
         style="fill:#5ab532;fill-rule:evenodd;stroke:#000000;stroke-width:1.01811993;stroke-linecap:butt;stroke-linejoin:miter;stroke-miterlimit:4;stroke-dasharray:none;stroke-opacity:1" />
      <path
         sodipodi:nodetypes="cccccc"
         id="path4015"
         d="M 886.35516,-93.06976 C 886.15361,-94.300694 885.49899,-95.253655 885.8209,-96.78604 C 887.34349,-101.19872 885.05897,-106.57001 880.32026,-104.34076 C 878.60591,-102.82965 878.51436,-101.26346 880.38281,-99.828377 C 882.42925,-98.883471 882.63527,-96.231079 883.03814,-93.879389 C 883.48778,-91.999497 883.90157,-90.55219 884.89471,-89.159964"
         style="fill:#5ab532;fill-rule:evenodd;stroke:#000000;stroke-width:1.01811993;stroke-linecap:butt;stroke-linejoin:miter;stroke-miterlimit:4;stroke-dasharray:none;stroke-opacity:1" />
      <path
         sodipodi:nodetypes="cccccccc"
         id="path4017"
         d="M 889.77791,-82.335366 C 888.93767,-82.6953 888.72415,-83.591619 888.2643,-84.243166 C 890.46537,-88.464771 885.50918,-90.993235 886.91573,-94.464097 C 884.94606,-93.274244 883.56252,-92.160078 883.87194,-89.115314 C 882.55176,-90.18173 880.07273,-91.194031 877.49404,-90.958085 C 883.23252,-87.761948 880.16354,-85.355873 886.31994,-84.172588 C 887.0064,-83.182549 887.67499,-82.266401 888.6845,-81.509295 C 889.24257,-81.131013 889.58422,-82.002233 889.77791,-82.335366 z"
         style="fill:#5ab532;fill-rule:evenodd;stroke:#000000;stroke-width:1.01811993;stroke-linecap:butt;stroke-linejoin:miter;stroke-miterlimit:4;stroke-dasharray:none;stroke-opacity:1" />
      <g
         inkscape:transform-center-y="-26.403625"
         inkscape:transform-center-x="-53.799009"
         transform="matrix(-0.2312559,-0.25463,-0.2883756,0.2041944,964.0448,-150.49191)"
         id="g4119"
         style="stroke:#000000;stroke-width:2.93112874;stroke-miterlimit:4;stroke-dasharray:none;stroke-opacity:1">
        <path
           style="fill:#5ab532;fill-rule:evenodd;stroke:#000000;stroke-width:2.93112874;stroke-linecap:butt;stroke-linejoin:miter;stroke-miterlimit:4;stroke-dasharray:none;stroke-opacity:1"
           d="M -303.19505,497.44862 C -307.32724,485.18564 -304.00917,467.44043 -304.91694,454.14726 C -305.07471,451.83697 -303.75737,445.38391 -304.38639,443.68791 C -305.937,439.50699 -310.06411,437.95434 -311.36341,431.00788 C -312.66271,424.06142 -314.84517,424.72522 -319.05477,414.27216 C -323.26438,403.8191 -330.51322,388.15823 -332.85914,374.92515 C -335.20506,361.69208 -334.02396,334.65797 -333.03928,328.34566 C -332.09736,322.30743 -331.79726,321.23536 -328.29959,315.98694 C -320.63015,319.01537 -317.07847,319.87255 -310.93194,326.90476 C -304.66235,334.07777 -291.98326,348.44787 -289.32392,365.64927 C -286.66458,382.85067 -285.57505,410.84565 -287.59543,423.84708 C -289.61581,436.84851 -294.56861,437.09343 -297.95365,442.92964 C -300.15354,450.10464 -298.19241,475.53453 -295.6822,491.25122"
           id="path4121"
           sodipodi:nodetypes="csszzzzczzzcc" />
        <path
           id="path4123"
           style="fill:none;fill-rule:evenodd;stroke:#000000;stroke-width:2.2583235;stroke-linecap:butt;stroke-linejoin:miter;stroke-miterlimit:4;stroke-dasharray:none;stroke-opacity:1"
           d="M -300.23979,443.65899 C -300.4385,437.8401 -300.99133,431.29561 -301.81856,424.32468 C -302.52053,418.40939 -303.42008,412.18703 -304.46851,405.84038 C -305.65049,398.68536 -307.02169,391.37237 -308.51232,384.16332 C -310.03331,376.8074 -311.67866,369.55969 -313.37421,362.69842 C -318.97207,340.04599 -325.11716,321.60571 -329.14138,317.38993 M -301.78307,424.36789 C -292.59132,421.32686 -287.87845,404.1673 -288.17407,380.52446 M -304.3786,406.62007 C -292.74372,402.4715 -290.3174,376.73015 -293.22484,357.23483 L -293.78603,357.23483 M -301.81815,424.33282 C -307.8456,425.89256 -312.44479,422.39383 -321.28463,401.56931 M -304.41368,406.62007 C -315.10716,407.08413 -321.09242,394.79284 -327.73838,381.08566 M -308.34205,384.66328 C -298.20616,369.98942 -297.14429,355.83022 -301.36218,344.32733 M -308.37713,384.66328 C -323.42371,381.68449 -326.26629,374.60346 -332.22795,358.63782 M -308.65772,333.9452 C -304.46951,343.26175 -304.4047,356.50845 -313.28759,363.16246 C -325.57176,361.6906 -327.3383,354.49531 -331.38616,337.31238"
           sodipodi:nodetypes="cssssccccccccccccccccc" />
      </g>
      <g
         id="g4125"
         transform="matrix(0.2104221,-0.2683481,0.3039117,0.1857986,798.63038,-144.72338)"
         inkscape:transform-center-x="56.473096"
         inkscape:transform-center-y="-21.91155"
         style="stroke:#000000;stroke-width:2.93112826;stroke-miterlimit:4;stroke-dasharray:none;stroke-opacity:1">
        <path
           sodipodi:nodetypes="csszzzzczzzcc"
           id="path4127"
           d="M -301.61567,496.69952 C -306.7731,491.90686 -303.6259,473.0531 -304.91694,454.14726 C -305.07471,451.83697 -303.75737,445.38391 -304.38639,443.68791 C -305.937,439.50699 -310.06411,437.95434 -311.36341,431.00788 C -312.66271,424.06142 -314.84517,424.72522 -319.05477,414.27216 C -323.26438,403.8191 -330.51322,388.15823 -332.85914,374.92515 C -335.20506,361.69208 -334.02396,334.65797 -333.03928,328.34566 C -332.09736,322.30743 -331.79726,321.23536 -328.29959,315.98694 C -320.63015,319.01537 -317.07847,319.87255 -310.93194,326.90476 C -304.66235,334.07777 -291.98326,348.44787 -289.32392,365.64927 C -286.66458,382.85067 -285.57505,410.84565 -287.59543,423.84708 C -289.61581,436.84851 -294.56861,437.09343 -297.95365,442.92964 C -301.06866,453.08931 -297.53341,486.16739 -294.21717,490.12645"
           style="fill:#5ab532;fill-rule:evenodd;stroke:#000000;stroke-width:2.93112826;stroke-linecap:butt;stroke-linejoin:miter;stroke-miterlimit:4;stroke-dasharray:none;stroke-opacity:1" />
        <path
           sodipodi:nodetypes="cssssccccccccccccccccc"
           d="M -300.23979,443.65899 C -300.4385,437.8401 -300.99133,431.29561 -301.81856,424.32468 C -302.52053,418.40939 -303.42008,412.18703 -304.46851,405.84038 C -305.65049,398.68536 -307.02169,391.37237 -308.51232,384.16332 C -310.03331,376.8074 -311.67866,369.55969 -313.37421,362.69842 C -318.97207,340.04599 -325.11716,321.60571 -329.14138,317.38993 M -301.78307,424.36789 C -292.59132,421.32686 -287.87845,404.1673 -288.17407,380.52446 M -304.3786,406.62007 C -292.74372,402.4715 -290.3174,376.73015 -293.22484,357.23483 L -293.78603,357.23483 M -301.81815,424.33282 C -307.8456,425.89256 -312.44479,422.39383 -321.28463,401.56931 M -304.41368,406.62007 C -315.10716,407.08413 -321.09242,394.79284 -327.73838,381.08566 M -308.34205,384.66328 C -298.20616,369.98942 -297.14429,355.83022 -301.36218,344.32733 M -308.37713,384.66328 C -323.42371,381.68449 -326.26629,374.60346 -332.22795,358.63782 M -308.65772,333.9452 C -304.46951,343.26175 -304.4047,356.50845 -313.28759,363.16246 C -325.57176,361.6906 -327.3383,354.49531 -331.38616,337.31238"
           style="fill:none;fill-rule:evenodd;stroke:#000000;stroke-width:2.25832331;stroke-linecap:butt;stroke-linejoin:miter;stroke-miterlimit:4;stroke-dasharray:none;stroke-opacity:1"
           id="path4129" />
      </g>
    </g>
  </g>
  <g
     inkscape:groupmode="layer"
     id="layer2"
     inkscape:label="Reflet final"
     sodipodi:insensitive="true">
    <path
       sodipodi:nodetypes="cccccc"
       d="M 300.00001,658.5 C 300.00001,658.5 598.50001,546.17969 598.50001,260.72817 C 598.50001,-24.723334 598.50001,2.1764865 598.50001,2.1764865 L 1.5,2.1764865 L 1.5,260.72817 C 1.5,546.17969 300.00001,658.5 300.00001,658.5 z"
       style="opacity:1;fill:url(#radialGradient3163);fill-opacity:1;fill-rule:evenodd;stroke:none;stroke-width:1px;stroke-linecap:butt;stroke-linejoin:miter;stroke-opacity:1"
       id="path2875"
       inkscape:export-xdpi="144"
       inkscape:export-ydpi="144" />
  </g>
  <g
     inkscape:groupmode="layer"
     id="layer1"
     inkscape:label="Contour final"
     sodipodi:insensitive="true">
    <path
       sodipodi:nodetypes="cccccc"
       d="M 299.99999,658.50028 C 299.99999,658.50028 1.5,546.17992 1.5,260.72828 C 1.5,-24.723336 1.5,2.1764957 1.5,2.1764957 L 598.49999,2.1764957 L 598.49999,260.72828 C 598.49999,546.17992 299.99999,658.50028 299.99999,658.50028 z"
       style="opacity:1;fill:none;fill-opacity:1;fill-rule:evenodd;stroke:#000000;stroke-width:3.00000048;stroke-linecap:butt;stroke-linejoin:miter;stroke-miterlimit:4;stroke-dasharray:none;stroke-opacity:1"
       id="path1411"
       inkscape:export-xdpi="144"
       inkscape:export-ydpi="144" />
  </g>
</svg>
