<?xml version="1.0" encoding="UTF-8" standalone="no"?>
<!-- Created with Inkscape (http://www.inkscape.org/) -->
<svg
   xmlns:dc="http://purl.org/dc/elements/1.1/"
   xmlns:cc="http://creativecommons.org/ns#"
   xmlns:rdf="http://www.w3.org/1999/02/22-rdf-syntax-ns#"
   xmlns:svg="http://www.w3.org/2000/svg"
   xmlns="http://www.w3.org/2000/svg"
   xmlns:xlink="http://www.w3.org/1999/xlink"
   xmlns:sodipodi="http://sodipodi.sourceforge.net/DTD/sodipodi-0.dtd"
   xmlns:inkscape="http://www.inkscape.org/namespaces/inkscape"
   version="1.0"
   width="600"
   height="660"
   id="svg2"
   sodipodi:version="0.32"
   inkscape:version="0.46"
   sodipodi:docname="000_TUJ.svg"
   inkscape:output_extension="org.inkscape.output.svg.inkscape">
  <metadata
     id="metadata2605">
    <rdf:RDF>
      <cc:Work
         rdf:about="">
        <dc:format>image/svg+xml</dc:format>
        <dc:type
           rdf:resource="http://purl.org/dc/dcmitype/StillImage" />
      </cc:Work>
    </rdf:RDF>
  </metadata>
  <sodipodi:namedview
     inkscape:window-height="941"
     inkscape:window-width="1515"
     inkscape:pageshadow="2"
     inkscape:pageopacity="0.0"
     guidetolerance="10.0"
     gridtolerance="10.0"
     objecttolerance="10.0"
     borderopacity="1.0"
     bordercolor="#666666"
     pagecolor="#ffffff"
     id="base"
     showgrid="false"
     inkscape:zoom="0.70201838"
     inkscape:cx="252.90755"
     inkscape:cy="347.91231"
     inkscape:window-x="46"
     inkscape:window-y="46"
     inkscape:current-layer="svg2" />
  <desc
     id="desc4">Flag of Canton of Valais (Wallis)</desc>
  <defs
     id="defs6">
    <inkscape:perspective
       sodipodi:type="inkscape:persp3d"
       inkscape:vp_x="0 : 330 : 1"
       inkscape:vp_y="0 : 1000 : 0"
       inkscape:vp_z="600 : 330 : 1"
       inkscape:persp3d-origin="300 : 220 : 1"
       id="perspective2607" />
    <linearGradient
       id="linearGradient2893">
      <stop
         id="stop2895"
         style="stop-color:#ffffff;stop-opacity:0.31372601"
         offset="0" />
      <stop
         id="stop2897"
         style="stop-color:#ffffff;stop-opacity:0.25097999"
         offset="0.19" />
      <stop
         id="stop2901"
         style="stop-color:#6b6b6b;stop-opacity:0.12548999"
         offset="0.60000002" />
      <stop
         id="stop2899"
         style="stop-color:#000000;stop-opacity:0.12548999"
         offset="1" />
    </linearGradient>
    <linearGradient
       id="linearGradient2885">
      <stop
         id="stop2887"
         style="stop-color:#ffffff;stop-opacity:1"
         offset="0" />
      <stop
         id="stop2891"
         style="stop-color:#ffffff;stop-opacity:1"
         offset="0.22857143" />
      <stop
         id="stop2889"
         style="stop-color:#000000;stop-opacity:1"
         offset="1" />
    </linearGradient>
    <linearGradient
       id="linearGradient2955">
      <stop
         id="stop2867"
         style="stop-color:#fd0000;stop-opacity:1"
         offset="0" />
      <stop
         id="stop2873"
         style="stop-color:#e77275;stop-opacity:0.65882403"
         offset="0.5" />
      <stop
         id="stop2959"
         style="stop-color:#000000;stop-opacity:0.32291701"
         offset="1" />
    </linearGradient>
    <radialGradient
       cx="225.52438"
       cy="218.90099"
       r="300"
       fx="225.52438"
       fy="218.90099"
       id="radialGradient2961"
       xlink:href="#linearGradient2955"
       gradientUnits="userSpaceOnUse"
       gradientTransform="matrix(-4.16794e-4,2.18287,-1.88423,-3.59956e-4,615.597,-289.121)" />
    <polygon
       points="0,-1 0.587785,0.809017 -0.951057,-0.309017 0.951057,-0.309017 -0.587785,0.809017 0,-1 "
       transform="scale(53,53)"
       id="star" />
    <clipPath
       id="clip">
      <path
         d="M 0,-200 L 0,600 L 300,600 L 300,-200 L 0,-200 z"
         id="path10" />
    </clipPath>
    <radialGradient
       cx="225.52438"
       cy="218.90099"
       r="300"
       fx="225.52438"
       fy="218.90099"
       id="radialGradient1911"
       xlink:href="#linearGradient2955"
       gradientUnits="userSpaceOnUse"
       gradientTransform="matrix(-4.16794e-4,2.18287,-1.88423,-3.59956e-4,615.597,-289.121)" />
    <radialGradient
       cx="225.52438"
       cy="218.90099"
       r="300"
       fx="225.52438"
       fy="218.90099"
       id="radialGradient2865"
       xlink:href="#linearGradient2955"
       gradientUnits="userSpaceOnUse"
       gradientTransform="matrix(0,1.74872,-1.59316,-1.04977e-7,551.788,-191.29)" />
    <radialGradient
       cx="225.52438"
       cy="218.90099"
       r="300"
       fx="225.52438"
       fy="218.90099"
       id="radialGradient2871"
       xlink:href="#linearGradient2955"
       gradientUnits="userSpaceOnUse"
       gradientTransform="matrix(0,1.38624,-1.32329,-5.74113e-8,-158.082,-109.541)" />
    <radialGradient
       cx="221.44487"
       cy="226.33101"
       r="300"
       fx="221.44487"
       fy="226.33101"
       id="radialGradient3163"
       xlink:href="#linearGradient2893"
       gradientUnits="userSpaceOnUse"
       gradientTransform="matrix(1.35322,0,0,1.34893,-77.6293,-85.7469)" />
  </defs>
  <path
     style="fill:#2b5df2;fill-opacity:1;fill-rule:evenodd;stroke:none;stroke-width:1px;stroke-linecap:butt;stroke-linejoin:miter;stroke-opacity:1"
     id="path2855"
     d="M 300,658.5 C 300,658.5 598.50001,546.17969 598.50001,260.72817 C 598.50001,-24.723354 598.50001,2.1764765 598.50001,2.1764765 L 1.5,2.1764765 L 1.5,260.72817 C 1.5,546.17969 300,658.5 300,658.5 z" />
  <g
     id="g2492"
     transform="matrix(1,0,0,1.2251237,2.7186521,-11.842294)">
    <path
       d="M 203.96035,505.55385 C 228.43258,517.28406 260.70315,532.19694 292.54652,546.93547 C 304.75055,551.09802 415.94507,495.53223 395.21059,503.40964 C 364.39025,489.14389 362.89324,498.01406 346.23554,477.87141 C 338.61731,453.63763 327.27118,403.67518 348.41171,373.68966 L 349.16337,357.15278 C 338.37717,356.24541 332.05258,366.49203 325.10972,375.19303 L 301.80778,351.89105 L 271.44691,360.70131 C 279.43091,366.54317 292.23881,378.06055 294.29101,397.74331 C 291.54386,415.28242 289.82554,462.12912 283.17364,479.66823 C 261.07913,496.79072 226.45528,494.5577 203.96035,505.55385 z"
       id="path2618"
       style="fill:#504416;fill-rule:evenodd;stroke:#000000;stroke-width:3;stroke-linecap:butt;stroke-linejoin:miter;stroke-miterlimit:4;stroke-dasharray:none;stroke-opacity:1;display:inline"
       sodipodi:nodetypes="cccccccccccc" />
    <path
       d="M 338.63989,345.12598 C 359.82091,350.22023 340.51264,391.08678 363.44521,390.22653 C 378.66464,371.91212 396.7815,388.36655 413.80742,391.7299 C 422.61972,388.92152 453.5399,395.26141 452.1431,370.68295 C 453.16029,356.51894 440.8683,349.00944 430.34437,340.61591 C 443.18341,338.22255 457.63217,345.48858 468.67966,332.34748 C 465.06966,322.82623 465.30947,313.30503 454.39798,303.78379 C 443.87443,292.66902 433.35126,293.91099 422.82771,300.77709 C 420.44288,294.26255 423.31794,287.74805 413.80742,281.23351 C 407.29204,272.96508 395.31976,264.69664 401.78062,256.42821 C 422.31438,244.67338 419.01919,225.7699 420.57245,208.32095 C 428.95477,199.91575 442.33556,196.50922 441.61954,179.00557 C 424.75301,151.08654 406.35592,159.89872 387.49885,179.75728 C 374.18484,182.12539 359.49336,178.98337 349.91504,196.29415 C 342.89939,198.79975 336.886,196.29415 331.87482,188.77737 C 327.40942,167.23259 315.24646,160.63259 307.82118,163.2204 C 299.80331,178.24936 291.78544,179.00841 283.76757,163.97207 C 251.09797,154.53978 259.20998,185.60698 256.70723,201.55585 C 241.67372,191.40899 226.64017,182.95218 211.60667,202.30754 C 202.81369,207.94097 194.37374,214.96149 216.1167,218.09272 C 210.5417,233.06277 203.38422,233.79099 195.82146,230.87123 C 187.55302,221.09704 179.28459,223.82839 171.01615,227.86453 C 164.25109,235.05269 157.48598,225.63714 150.72091,221.85112 C 137.42868,221.34158 135.47768,228.39287 140.19744,239.89133 C 148.24198,244.91489 158.74276,243.38863 161.24439,263.19331 C 144.20626,273.21564 144.20653,282.23575 161.24439,290.25362 C 172.26896,291.57333 183.29352,293.13216 194.31809,282.73689 C 204.27811,271.34165 214.6899,268.07862 226.64017,292.50866 C 214.59136,294.73433 199.84831,289.35883 190.55972,299.27376 C 184.64013,302.45265 180.59607,308.82433 178.53292,315.05894 C 181.4815,331.96499 166.84875,334.21991 158.98935,342.11928 C 157.75796,355.67086 148.47811,361.17396 139.44577,366.9246 C 142.5334,374.02702 137.90039,388.90103 157.48598,374.44136 C 166.75665,372.12401 176.02731,377.15339 185.29799,382.70979 C 190.93384,374.18731 199.74065,372.00683 209.35164,371.43463 C 226.65049,364.68122 231.61599,373.9611 228.89521,393.23323 C 237.16365,399.77365 245.43209,393.8306 253.70053,390.97819 C 256.60161,370.56075 267.83847,364.73092 278.50583,357.90449 C 286.69203,369.67686 296.38345,376.93363 308.57285,376.69636 C 321.76244,374.65541 316.77601,358.4021 327.36476,357.90449 C 325.13806,343.1711 333.45309,346.88575 338.63989,345.12598 z"
       id="path2620"
       style="fill:#5ab532;fill-rule:evenodd;stroke:#000000;stroke-width:3;stroke-linecap:butt;stroke-linejoin:miter;stroke-miterlimit:4;stroke-dasharray:none;stroke-opacity:1;display:inline" />
    <path
       d="M 374.34454,295.13954 C 385.58803,300.15071 418.67368,320.94709 379.98208,322.19989 C 379.11285,347.35453 363.47684,331.64839 363.44521,320.32067"
       id="path2622"
       style="fill:none;fill-rule:evenodd;stroke:#000000;stroke-width:3;stroke-linecap:butt;stroke-linejoin:miter;stroke-miterlimit:4;stroke-dasharray:none;stroke-opacity:1;display:inline" />
    <path
       d="M 265.87038,328.71502 C 271.2574,334.30632 288.15232,343.39253 293.53934,320.32067 C 303.75319,330.32373 313.99241,342.91354 323.23054,315.43479 C 335.24245,333.54254 352.06644,319.40423 356.18224,306.91448"
       id="path2624"
       style="fill:none;fill-rule:evenodd;stroke:#000000;stroke-width:3;stroke-linecap:butt;stroke-linejoin:miter;stroke-miterlimit:4;stroke-dasharray:none;stroke-opacity:1;display:inline" />
    <path
       d="M 236.78779,264.69664 C 235.61341,272.61006 235.81042,279.91404 243.55291,283.8644 C 245.64947,301.16041 252.73732,298.49125 259.71392,296.26703"
       id="path2626"
       style="fill:none;fill-rule:evenodd;stroke:#000000;stroke-width:3;stroke-linecap:butt;stroke-linejoin:miter;stroke-miterlimit:4;stroke-dasharray:none;stroke-opacity:1;display:inline" />
    <path
       d="M 279.2575,217.34106 C 288.2776,214.33769 297.29774,216.64508 306.31785,217.34106 C 318.79343,208.35054 303.41695,196.79851 292.41182,195.16663 C 282.12017,197.17651 263.97961,207.58698 279.2575,217.34106 z"
       id="path2628"
       style="fill:#445500;fill-rule:evenodd;stroke:#000000;stroke-width:1;stroke-linecap:butt;stroke-linejoin:miter;stroke-miterlimit:4;stroke-dasharray:none;stroke-opacity:1;display:inline" />
    <path
       d="M 289.78098,188.40152 L 292.78768,194.79078"
       id="path2630"
       style="fill:none;fill-rule:evenodd;stroke:#000000;stroke-width:1;stroke-linecap:butt;stroke-linejoin:miter;stroke-miterlimit:4;stroke-dasharray:none;stroke-opacity:1;display:inline" />
    <path
       d="M 281.5125,216.96521 C 287.90176,213.95111 297.67356,216.66307 304.06281,217.34106 C 307.90289,238.68407 299.77527,237.05375 292.78768,237.26048 C 280.53455,236.32694 278.14461,227.7983 281.5125,216.96521 z"
       id="path2632"
       style="fill:#96b532;fill-opacity:1;fill-rule:evenodd;stroke:#000000;stroke-width:1;stroke-linecap:butt;stroke-linejoin:miter;stroke-miterlimit:4;stroke-dasharray:none;stroke-opacity:1;display:inline" />
    <path
       d="M 357.29545,236.88463 C 366.31556,233.88127 375.3357,236.18865 384.35581,236.88463 C 396.83146,227.89412 381.45491,216.34208 370.44978,214.7102 C 360.15813,216.72009 342.01756,227.13055 357.29545,236.88463 z"
       id="path2634"
       style="fill:#445500;fill-rule:evenodd;stroke:#000000;stroke-width:1;stroke-linecap:butt;stroke-linejoin:miter;stroke-miterlimit:4;stroke-dasharray:none;stroke-opacity:1;display:inline" />
    <path
       d="M 367.81893,207.9451 L 370.82564,214.33435"
       id="path2636"
       style="fill:none;fill-rule:evenodd;stroke:#000000;stroke-width:1;stroke-linecap:butt;stroke-linejoin:miter;stroke-miterlimit:4;stroke-dasharray:none;stroke-opacity:1;display:inline" />
    <path
       d="M 359.55046,236.50877 C 365.93971,233.49469 375.71152,236.20665 382.10077,236.88463 C 385.94085,258.22764 377.81323,256.59733 370.82564,256.80406 C 358.57251,255.87051 356.18256,247.34188 359.55046,236.50877 z"
       id="path2638"
       style="fill:#96b532;fill-opacity:1;fill-rule:evenodd;stroke:#000000;stroke-width:1;stroke-linecap:butt;stroke-linejoin:miter;stroke-miterlimit:4;stroke-dasharray:none;stroke-opacity:1;display:inline" />
    <path
       d="M 279.55845,281.60937 C 288.57854,278.606 297.59868,280.91339 306.61879,281.60937 C 319.09438,272.61886 303.7179,261.06682 292.71276,259.43494 C 282.42111,261.44483 264.28055,271.8553 279.55845,281.60937 z"
       id="path2640"
       style="fill:#445500;fill-rule:evenodd;stroke:#000000;stroke-width:1;stroke-linecap:butt;stroke-linejoin:miter;stroke-miterlimit:4;stroke-dasharray:none;stroke-opacity:1;display:inline" />
    <path
       d="M 290.08192,252.66984 L 293.08862,259.05909"
       id="path2642"
       style="fill:none;fill-rule:evenodd;stroke:#000000;stroke-width:1;stroke-linecap:butt;stroke-linejoin:miter;stroke-miterlimit:4;stroke-dasharray:none;stroke-opacity:1;display:inline" />
    <path
       d="M 281.81344,281.23351 C 288.2027,278.21943 297.9745,280.93139 304.36375,281.60937 C 308.20383,302.95238 300.07622,301.32207 293.08862,301.5288 C 280.83549,300.59524 278.44555,292.06662 281.81344,281.23351 z"
       id="path2644"
       style="fill:#96b532;fill-opacity:1;fill-rule:evenodd;stroke:#000000;stroke-width:1;stroke-linecap:butt;stroke-linejoin:miter;stroke-miterlimit:4;stroke-dasharray:none;stroke-opacity:1;display:inline" />
    <path
       d="M 210.71863,332.72332 C 219.73872,329.71996 228.75886,332.02734 237.77897,332.72332 C 250.25456,323.73281 234.87808,312.18077 223.87294,310.54889 C 213.58129,312.55878 195.44073,322.96925 210.71863,332.72332 z"
       id="path2646"
       style="fill:#445500;fill-rule:evenodd;stroke:#000000;stroke-width:1;stroke-linecap:butt;stroke-linejoin:miter;stroke-miterlimit:4;stroke-dasharray:none;stroke-opacity:1;display:inline" />
    <path
       d="M 221.2421,303.78379 L 224.2488,310.17305"
       id="path2648"
       style="fill:none;fill-rule:evenodd;stroke:#000000;stroke-width:1;stroke-linecap:butt;stroke-linejoin:miter;stroke-miterlimit:4;stroke-dasharray:none;stroke-opacity:1;display:inline" />
    <path
       d="M 212.97362,332.34748 C 219.36288,329.33338 229.13468,332.04535 235.52393,332.72332 C 239.36401,354.06633 231.2364,352.43602 224.2488,352.64275 C 211.99567,351.7092 209.60573,343.18057 212.97362,332.34748 z"
       id="path2650"
       style="fill:#96b532;fill-opacity:1;fill-rule:evenodd;stroke:#000000;stroke-width:1;stroke-linecap:butt;stroke-linejoin:miter;stroke-miterlimit:4;stroke-dasharray:none;stroke-opacity:1;display:inline" />
    <path
       d="M 397.1342,362.41452 C 406.15438,359.41116 415.17429,361.71854 424.19458,362.41452 C 436.66993,353.42401 421.29377,341.87197 410.28833,340.24009 C 399.99675,342.24998 381.85638,352.66044 397.1342,362.41452 z"
       id="path2652"
       style="fill:#445500;fill-rule:evenodd;stroke:#000000;stroke-width:1;stroke-linecap:butt;stroke-linejoin:miter;stroke-miterlimit:4;stroke-dasharray:none;stroke-opacity:1;display:inline" />
    <path
       d="M 407.65763,333.47499 L 410.66414,339.86424"
       id="path2654"
       style="fill:none;fill-rule:evenodd;stroke:#000000;stroke-width:1;stroke-linecap:butt;stroke-linejoin:miter;stroke-miterlimit:4;stroke-dasharray:none;stroke-opacity:1;display:inline" />
    <path
       d="M 399.38908,362.03867 C 405.77856,359.02458 415.55011,361.73653 421.93932,362.41452 C 425.77967,383.75753 417.65194,382.12721 410.66414,382.33395 C 398.41128,381.4004 396.02153,372.87177 399.38908,362.03867 z"
       id="path2656"
       style="fill:#96b532;fill-opacity:1;fill-rule:evenodd;stroke:#000000;stroke-width:1;stroke-linecap:butt;stroke-linejoin:miter;stroke-miterlimit:4;stroke-dasharray:none;stroke-opacity:1;display:inline" />
    <path
       d="M 274.06977,109.78425 C 280.50115,107.11195 283.75305,98.93707 292.61259,99.03478 C 296.82308,109.40281 302.90571,113.88346 309.27431,119.05567 C 324.28814,128.07964 342.97169,128.90068 352.54098,150.09482 L 354.55651,161.78488 C 347.3335,157.3872 338.38602,155.86609 331.50831,155.6119 C 329.22879,163.35119 327.56383,164.22432 323.50939,168.23846 L 322.57679,165.41284 C 324.60235,163.79051 325.32118,161.40339 327.01096,159.23187 C 325.7208,156.46725 325.07296,154.93896 322.71118,153.58839 C 321.73165,156.9296 320.78641,160.29651 318.41135,162.59108 L 313.92587,162.2117 C 315.40404,158.41217 318.13651,155.65784 317.68819,150.25292 C 307.40294,149.96282 295.54581,145.14918 290.59709,131.01447 C 289.15797,125.98491 286.19808,121.50273 286.96913,114.89025 L 274.06977,109.78425 z"
       id="path3430"
       style="fill:#000000;fill-rule:evenodd;stroke:#000000;stroke-width:2.70886946px;stroke-linecap:butt;stroke-linejoin:miter;stroke-opacity:1;display:inline" />
    <path
       d="M 283.5,105.004 C 284.74525,106.31828 287.41304,106.84411 289.05178,105.004 C 287.64879,103.31842 284.76269,103.37871 283.5,105.004 z"
       id="path3432"
       style="fill:#2b5df2;fill-rule:evenodd;stroke:#000000;stroke-width:1px;stroke-linecap:butt;stroke-linejoin:miter;stroke-opacity:1;display:inline" />
    <path
       d="M 265.16464,105.28443 L 265.72584,113.35162"
       id="path3434"
       style="fill:none;fill-rule:evenodd;stroke:#ffffff;stroke-width:1px;stroke-linecap:butt;stroke-linejoin:miter;stroke-opacity:0;display:inline" />
  </g>
  <g
     id="layer4" />
  <g
     id="layer2"
     transform="translate(-0.4348324,1.0133298)">
    <path
       d="M 300.00001,658.5 C 300.00001,658.5 598.50001,546.17969 598.50001,260.72817 C 598.50001,-24.723334 598.50001,2.1764865 598.50001,2.1764865 L 1.5,2.1764865 L 1.5,260.72817 C 1.5,546.17969 300.00001,658.5 300.00001,658.5 z"
       id="path2875"
       style="opacity:1;fill:url(#radialGradient3163);fill-opacity:1;fill-rule:evenodd;stroke:none;stroke-width:1px;stroke-linecap:butt;stroke-linejoin:miter;stroke-opacity:1" />
  </g>
  <g
     id="layer1">
    <path
       d="M 299.99999,658.50028 C 299.99999,658.50028 1.5,546.17992 1.5,260.72828 C 1.5,-24.723336 1.5,2.1764957 1.5,2.1764957 L 598.49999,2.1764957 L 598.49999,260.72828 C 598.49999,546.17992 299.99999,658.50028 299.99999,658.50028 z"
       id="path1411"
       style="opacity:1;fill:none;fill-opacity:1;fill-rule:evenodd;stroke:#000000;stroke-width:3;stroke-linecap:butt;stroke-linejoin:miter;stroke-miterlimit:4;stroke-dasharray:none;stroke-opacity:1" />
  </g>
  <g
     style="stroke:#000000;stroke-width:6.7081399;stroke-miterlimit:4;stroke-dasharray:none;stroke-opacity:1;display:inline"
     id="g3705"
     transform="matrix(0.3001522,0,0,0.2960679,81.140947,235.0116)">
    <path
       style="fill:#fcef3c;fill-opacity:1;fill-rule:evenodd;stroke:#000000;stroke-width:6.7081399;stroke-linecap:butt;stroke-linejoin:miter;stroke-miterlimit:4;stroke-dasharray:none;stroke-opacity:1"
       id="path3707"
       d="M -48.09683,-730.04688 C -18.63463,-698.20088 -1.311324,-680.63851 1.71567,-631.22551 C 4.516922,-585.49753 -25.91305,-547.26746 -32.47183,-503.03801 C -33.71586,-494.64886 -34.78343,-477.52504 -33.65933,-470.58029 C -32.82682,-465.43703 -30.2673,-449.72452 -27.47183,-469.16609 C -26.89689,-473.16463 -26.48464,-493.22641 -24.72183,-503.41301 C -21.50976,-521.97423 -11.22367,-554.61188 6.62192,-572.69426 C 24.45989,-590.7689 52.7264,-602.49289 77.93442,-593.03801 C 100.77409,-582.49963 102.93306,-552.73834 96.43442,-530.97551 C 88.29557,-503.71988 57.19325,-484.85525 29.30942,-483.00676 C 34.83452,-493.933 48.05897,-525.11969 33.71567,-523.88176 C 17.11291,-522.44882 -2.746744,-494.20056 -7.917294,-474.82293 C -9.864494,-467.52547 -9.07753,-456.19513 -19.50308,-456.66301 C -12.62837,-433.43496 6.77717,-418.06468 23.77817,-401.85051 C 6.05563,-400.37739 -11.47738,-408.7178 -26.94058,-416.66301 C -26.286749,-400.73784 -29.378446,-367.09562 -48.09683,-348.72551 C -65.471545,-367.64157 -67.052581,-390.71209 -67.37808,-416.66301 C -82.84128,-408.7178 -100.37429,-400.37739 -118.09683,-401.85051 C -101.09583,-418.06468 -81.690291,-433.43496 -74.81558,-456.66301 C -85.24113,-456.19513 -85.868385,-466.81836 -87.81558,-474.11582 C -92.98613,-493.49343 -111.43157,-522.44884 -128.03433,-523.88176 C -142.37763,-525.11969 -129.15318,-493.933 -123.62808,-483.00676 C -151.51191,-484.85525 -182.61422,-503.71988 -190.75308,-530.97551 C -197.25172,-552.73834 -195.09274,-582.49964 -172.25308,-593.03801 C -147.04505,-602.49289 -118.77855,-590.76891 -100.94058,-572.69426 C -83.094993,-554.61188 -72.808901,-521.97423 -69.59683,-503.41301 C -67.83402,-493.22641 -68.128878,-474.57884 -67.553937,-470.58029 C -64.758467,-451.13871 -61.491841,-465.43705 -60.65933,-470.58029 C -59.53523,-477.52504 -60.602801,-494.64887 -61.84683,-503.03801 C -68.40561,-547.26744 -95.955806,-587.0527 -96.03433,-631.22551 C -96.103977,-671.11179 -76.05061,-701.46041 -48.09683,-730.04688 z" />
    <rect
       style="fill:#fcef3c;fill-opacity:1;fill-rule:evenodd;stroke:#000000;stroke-width:6.7081399;stroke-linejoin:round;stroke-miterlimit:4;stroke-dasharray:none;stroke-opacity:1"
       id="rect3709"
       transform="scale(-1,1)"
       y="-474.15433"
       x="-20.840672"
       ry="7.0119839"
       rx="7.0119839"
       height="22"
       width="136" />
  </g>
  <use
     x="0"
     y="0"
     xlink:href="#g3705"
     id="use2517"
     transform="translate(159.90857,1.4244641)"
     width="600"
     height="660" />
  <use
     x="0"
     y="0"
     xlink:href="#g3705"
     id="use2519"
     transform="translate(5.9909084,204.77452)"
     width="600"
     height="660" />
  <use
     x="0"
     y="0"
     xlink:href="#g3705"
     id="use2465"
     transform="translate(314.80657,4.2733924)"
     width="600"
     height="660" />
  <use
     x="0"
     y="0"
     xlink:href="#g3705"
     id="use2467"
     transform="translate(460.10191,7.1223206)"
     width="600"
     height="660" />
  <use
     x="0"
     y="0"
     xlink:href="#g3705"
     id="use2469"
     transform="translate(465.79977,206.38891)"
     width="600"
     height="660" />
</svg>
