<?xml version="1.0" encoding="UTF-8" standalone="no"?>
<svg
   xmlns:dc="http://purl.org/dc/elements/1.1/"
   xmlns:cc="http://creativecommons.org/ns#"
   xmlns:rdf="http://www.w3.org/1999/02/22-rdf-syntax-ns#"
   xmlns:svg="http://www.w3.org/2000/svg"
   xmlns="http://www.w3.org/2000/svg"
   xmlns:xlink="http://www.w3.org/1999/xlink"
   xmlns:sodipodi="http://sodipodi.sourceforge.net/DTD/sodipodi-0.dtd"
   xmlns:inkscape="http://www.inkscape.org/namespaces/inkscape"
   height="660"
   width="600"
   version="1.0"
   id="svg2"
   sodipodi:version="0.32"
   inkscape:version="0.46"
   sodipodi:docname="blason_ville_fr_ferté_imbault_(loir-et-cher).svg"
   sodipodi:docbase="C:\monAtelierGraphique\Blasons"
   inkscape:export-filename="/Users/olivier/Desktop/Blason Rouge/Blason_Vide_3D.png"
   inkscape:export-xdpi="144"
   inkscape:export-ydpi="144"
   inkscape:output_extension="org.inkscape.output.svg.inkscape">
  <metadata
     id="metadata49">
    <rdf:RDF>
      <cc:Work
         rdf:about="">
        <dc:format>image/svg+xml</dc:format>
        <dc:type
           rdf:resource="http://purl.org/dc/dcmitype/StillImage" />
        <dc:title>Blason_Rambaud( Hauts-Alpes)</dc:title>
        <dc:date>31 juillet 2008</dc:date>
        <dc:creator>
          <cc:Agent>
            <dc:title>Aups alias MG05</dc:title>
          </cc:Agent>
        </dc:creator>
        <cc:license
           rdf:resource="http://creativecommons.org/licenses/GPL/2.0/" />
        <dc:language>fr</dc:language>
        <dc:subject>
          <rdf:Bag>
            <rdf:li>blason projet wikipédia</rdf:li>
          </rdf:Bag>
        </dc:subject>
        <dc:source>BlasonRambaud.jpg</dc:source>
      </cc:Work>
      <cc:License
         rdf:about="http://creativecommons.org/licenses/GPL/2.0/">
        <cc:permits
           rdf:resource="http://web.resource.org/cc/Reproduction" />
        <cc:permits
           rdf:resource="http://web.resource.org/cc/Distribution" />
        <cc:requires
           rdf:resource="http://web.resource.org/cc/Notice" />
        <cc:permits
           rdf:resource="http://web.resource.org/cc/DerivativeWorks" />
        <cc:requires
           rdf:resource="http://web.resource.org/cc/ShareAlike" />
        <cc:requires
           rdf:resource="http://web.resource.org/cc/SourceCode" />
      </cc:License>
    </rdf:RDF>
  </metadata>
  <sodipodi:namedview
     inkscape:window-height="750"
     inkscape:window-width="1280"
     inkscape:pageshadow="2"
     inkscape:pageopacity="0.0"
     guidetolerance="10.0"
     gridtolerance="10.0"
     objecttolerance="10.0"
     borderopacity="1.0"
     bordercolor="#666666"
     pagecolor="#ffffff"
     id="base"
     showgrid="false"
     height="660px"
     inkscape:zoom="0.81818147"
     inkscape:cx="299.99999"
     inkscape:cy="329.99986"
     inkscape:window-x="0"
     inkscape:window-y="176"
     inkscape:current-layer="layer4" />
  <desc
     id="desc4">Flag of Canton of Valais (Wallis)</desc>
  <defs
     id="defs6">
    <inkscape:perspective
       sodipodi:type="inkscape:persp3d"
       inkscape:vp_x="0 : 330 : 1"
       inkscape:vp_y="0 : 1000 : 0"
       inkscape:vp_z="600 : 330 : 1"
       inkscape:persp3d-origin="300 : 220 : 1"
       id="perspective8333" />
    <linearGradient
       id="linearGradient2893">
      <stop
         style="stop-color:white;stop-opacity:0.3137255;"
         offset="0"
         id="stop2895" />
      <stop
         id="stop2897"
         offset="0.19"
         style="stop-color:white;stop-opacity:0.25098041;" />
      <stop
         style="stop-color:#6b6b6b;stop-opacity:0.1254902;"
         offset="0.60000002"
         id="stop2901" />
      <stop
         style="stop-color:black;stop-opacity:0.1254902;"
         offset="1"
         id="stop2899" />
    </linearGradient>
    <linearGradient
       id="linearGradient2885">
      <stop
         id="stop2887"
         offset="0"
         style="stop-color:white;stop-opacity:1;" />
      <stop
         style="stop-color:white;stop-opacity:1;"
         offset="0.22857143"
         id="stop2891" />
      <stop
         id="stop2889"
         offset="1"
         style="stop-color:black;stop-opacity:1;" />
    </linearGradient>
    <linearGradient
       id="linearGradient2955">
      <stop
         id="stop2867"
         offset="0"
         style="stop-color:#fd0000;stop-opacity:1;" />
      <stop
         style="stop-color:#e77275;stop-opacity:0.65882355;"
         offset="0.5"
         id="stop2873" />
      <stop
         style="stop-color:black;stop-opacity:0.32291666;"
         offset="1"
         id="stop2959" />
    </linearGradient>
    <radialGradient
       inkscape:collect="always"
       xlink:href="#linearGradient2955"
       id="radialGradient2961"
       cx="225.52438"
       cy="218.90099"
       fx="225.52438"
       fy="218.90099"
       r="300"
       gradientTransform="matrix(-4.167939e-4,2.182867,-1.884232,-3.599562e-4,615.5972,-289.1214)"
       gradientUnits="userSpaceOnUse" />
    <polygon
       id="star"
       transform="scale(53,53)"
       points="0,-1 0.58778525,0.80901699 -0.95105652,-0.30901699 0.95105652,-0.30901699 -0.58778525,0.80901699 0,-1 " />
    <clipPath
       id="clip">
      <path
         d="M 0,-200 L 0,600 L 300,600 L 300,-200 L 0,-200 z "
         id="path10" />
    </clipPath>
    <radialGradient
       inkscape:collect="always"
       xlink:href="#linearGradient2955"
       id="radialGradient1911"
       gradientUnits="userSpaceOnUse"
       gradientTransform="matrix(-4.167939e-4,2.182867,-1.884232,-3.599562e-4,615.5972,-289.1214)"
       cx="225.52438"
       cy="218.90099"
       fx="225.52438"
       fy="218.90099"
       r="300" />
    <radialGradient
       inkscape:collect="always"
       xlink:href="#linearGradient2955"
       id="radialGradient2865"
       gradientUnits="userSpaceOnUse"
       gradientTransform="matrix(0,1.748721,-1.593162,-1.049767e-7,551.7876,-191.2898)"
       cx="225.52438"
       cy="218.90099"
       fx="225.52438"
       fy="218.90099"
       r="300" />
    <radialGradient
       inkscape:collect="always"
       xlink:href="#linearGradient2955"
       id="radialGradient2871"
       gradientUnits="userSpaceOnUse"
       gradientTransform="matrix(0,1.386237,-1.323286,-5.741131e-8,-158.0823,-109.5408)"
       cx="225.52438"
       cy="218.90099"
       fx="225.52438"
       fy="218.90099"
       r="300" />
    <radialGradient
       inkscape:collect="always"
       xlink:href="#linearGradient2893"
       id="radialGradient3163"
       gradientUnits="userSpaceOnUse"
       gradientTransform="matrix(1.353218,0,0,1.348928,-77.62935,-85.74693)"
       cx="221.44487"
       cy="226.33101"
       fx="221.44487"
       fy="226.33101"
       r="300" />
  </defs>
  <g
     inkscape:groupmode="layer"
     id="layer3"
     inkscape:label="Fond écu"
     style="display:inline">
    <path
       id="path2855"
       style="fill:#e20909;fill-opacity:1;fill-rule:evenodd;stroke:none;stroke-width:1px;stroke-linecap:butt;stroke-linejoin:miter;stroke-opacity:1"
       d="M 300,658.5 C 300,658.5 598.50001,546.17969 598.50001,260.72817 C 598.50001,-24.723354 598.50001,2.1764765 598.50001,2.1764765 L 1.5,2.1764765 L 1.5,260.72817 C 1.5,546.17969 300,658.5 300,658.5 z "
       sodipodi:nodetypes="cccccc" />
  </g>
  <g
     inkscape:groupmode="layer"
     id="layer4"
     inkscape:label="Meubles">
    <g
       id="g8350">
      <path
         id="path5758"
         d="M 290.94846,49.512955 C 252.9047,49.512955 220.14111,83.1164 220.14113,122.25599 C 220.14113,139.23185 227.83675,154.82667 237.51905,167.03798 L 234.24912,169.61652 C 233.4023,185.02919 238.67928,194.90812 254.5885,195.22062 C 248.56172,199.76105 242.663,204.73631 235.3391,204.82971 C 234.39069,207.68107 232.35011,210.27573 233.87894,213.73373 L 192.83002,251.44488 L 186.31072,253.58023 L 176.85055,245.03882 C 182.75771,211.77919 174.60561,207.64349 172.14103,189.17716 L 165.60117,192.38019 C 160.73671,195.90611 169.11237,205.64893 168.50092,209.80548 L 156.16156,182.40849 C 152.04473,180.65291 150.77363,182.82169 149.97132,185.61152 L 150.71168,189.53977 C 146.72462,189.15553 142.62092,188.64056 144.52144,195.94583 L 153.98161,216.93676 L 149.97132,212.30344 C 147.87475,211.21195 143.29092,215.26802 147.07157,220.13979 C 142.60796,219.32155 141.73248,222.73428 143.80164,225.11556 L 149.97132,230.09134 C 150.32079,240.41631 153.16591,249.51698 161.24127,256.05804 L 169.5909,268.1651 L 167.04076,280.61461 L 169.22072,279.54693 L 185.57036,298.06004 C 185.45987,305.05748 187.52219,312.05354 190.30045,319.05097 C 192.60836,324.15079 191.0169,329.24109 190.65006,334.34091 C 184.74669,384.5535 193.77601,432.62501 220.79922,478.09451 L 209.92003,558.15012 L 211.7298,562.05822 L 218.61927,560.28547 L 203.38017,574.87034 C 212.12152,578.99577 216.11828,586.07504 234.6193,584.11683 L 252.40854,568.80674 L 262.93813,572.00977 L 263.30831,561.35315 L 271.65794,563.48851 L 271.65794,575.57541 L 310.89709,575.57541 L 310.52691,561.35315 L 320.70688,562.05822 L 321.79686,573.80267 C 323.89297,571.24533 326.9613,569.00743 331.95626,567.3966 L 349.7455,583.75422 C 364.93487,584.91834 372.24463,579.46359 380.98464,575.2128 L 370.10544,564.89864 L 380.63503,564.89864 L 367.55531,516.14812 L 387.5245,483.07029 L 394.43454,483.4329 L 390.44481,577.71076 L 409.32403,578.41583 L 411.50398,482.36522 C 415.74168,480.89442 419.9758,480.93417 424.21352,475.95916 L 422.03357,438.22787 C 429.62278,436.92528 435.98045,434.17253 438.75339,427.20864 L 429.6634,373.11973 C 432.64205,372.85929 435.28124,371.6077 437.29323,368.50656 L 423.49372,244.67621 C 426.64819,239.81041 427.34461,236.14934 422.77393,235.06712 C 427.18179,230.23335 429.22121,225.9256 424.95388,222.98021 C 427.61319,215.83035 424.70871,215.93766 421.68395,216.21154 L 427.48345,209.80548 L 420.94359,203.39942 L 421.31377,166.41349 L 426.04386,164.27814 L 425.67368,155.01151 L 429.31379,155.01151 L 428.94361,142.21953 L 424.95388,141.85692 C 425.75474,136.5928 430.49994,138.74564 435.48346,134.02058 C 435.07224,126.40248 438.34315,121.73652 448.56318,122.63874 C 446.30254,115.40411 453.44192,107.46141 450.37295,83.85992 L 456.54263,90.62858 L 457.26243,82.429633 C 438.81617,76.307252 430.35298,65.843552 420.22379,56.100319 L 414.05412,55.757857 C 411.69369,66.208144 396.6388,71.123488 386.43452,78.158926 L 390.07463,68.549833 L 384.99493,68.91244 C 380.4304,79.147755 380.85401,94.28713 380.98464,109.12155 L 374.09517,114.45994 L 374.09517,120.866 L 378.80469,120.866 L 378.80469,128.33973 L 381.725,127.97713 L 382.4448,120.14078 C 391.41544,125.22992 399.55506,131.14372 402.78417,141.85692 L 398.07465,141.85692 L 398.07465,152.87615 L 401.69419,152.87615 L 401.69419,165.34581 L 406.42428,166.05088 L 404.96412,204.82971 L 399.16463,200.92161 C 398.07844,211.40257 392.67324,216.26073 388.98466,223.34282 L 388.61448,237.56508 L 381.725,245.74388 L 343.57582,212.66605 C 344.80134,208.23349 343.79489,204.5266 339.21591,201.98928 C 329.17827,202.45406 326.81644,196.65958 322.14647,192.7428 C 334.76302,186.5403 342.78544,179.6223 340.8406,171.16767 C 352.63453,158.44158 360.80979,140.7509 360.80979,121.79266 C 360.80979,82.65306 328.99223,49.512962 290.94846,49.512955 z M 419.68909,78.34023 C 427.37448,80.875577 434.44193,87.79821 436.0593,95.74537 C 430.33811,93.50429 426.11084,94.18165 422.21866,95.52378 C 422.32936,89.64061 423.10703,83.64733 419.68909,78.34023 z M 412.30604,78.783416 C 409.33387,84.66794 406.79638,89.5968 408.60423,96.65189 C 403.1534,95.02661 398.51371,95.79745 394.29058,97.78 C 397.58703,84.98871 406.24449,81.055692 412.30604,78.783416 z M 428.16211,105.55592 C 428.4149,105.54518 428.66755,105.55204 428.92304,105.55592 C 430.96692,105.58689 433.09949,106.04421 435.15441,106.14012 C 433.10817,108.85288 431.27259,111.56587 426.84592,114.27863 C 422.77903,114.5047 421.51965,109.5244 423.14411,107.48982 C 424.69323,106.11066 426.39262,105.63111 428.16211,105.55592 z M 398.87671,107.1675 C 406.92055,107.4854 418.49439,118.21553 418.76364,123.54526 C 409.34323,131.80815 395.293,113.77399 395.68904,107.73156 C 396.65065,107.30618 397.72759,107.12209 398.87671,107.1675 z"
         style="fill:#000000;fill-opacity:1;fill-rule:nonzero;stroke:none;stroke-width:1.41499996;stroke-linecap:round;stroke-linejoin:miter;stroke-miterlimit:4;stroke-dasharray:none;stroke-dashoffset:0;stroke-opacity:1" />
      <path
         sodipodi:nodetypes="cccc"
         id="path6877"
         d="M 424.10284,222.41461 L 425.19902,223.66732 L 407.84289,233.68898 L 424.10284,222.41461 z"
         style="fill:#b89a8a;fill-opacity:1;fill-rule:evenodd;stroke:none;stroke-width:1px;stroke-linecap:butt;stroke-linejoin:miter;stroke-opacity:1" />
      <path
         sodipodi:nodetypes="cccccc"
         id="path6881"
         d="M 420.81431,216.33003 C 421.27727,216.56553 422.58105,215.87444 421.54509,217.7617 L 403.4582,228.67815 C 402.31989,229.17966 402.74886,230.88858 403.03749,232.58815 C 402.00912,231.52607 400.55581,231.21323 400.47974,228.47211 L 420.81431,216.33003 z"
         style="fill:#b89a8a;fill-opacity:1;fill-rule:evenodd;stroke:none;stroke-width:1px;stroke-linecap:butt;stroke-linejoin:miter;stroke-opacity:1" />
      <path
         d="M 186.83089,257.5492 C 184.55956,263.05551 180.64743,268.02608 177.37908,273.20685 L 163.20136,255.5069 C 167.71293,252.68161 171.98649,249.39006 176.1281,245.84001 L 186.83089,257.5492 z M 149.85763,214.66087 C 147.89881,213.76251 146.4433,215.60556 147.63368,218.0647 L 158.61446,230.18236 C 160.87084,231.077 162.73771,228.14569 161.95039,226.77852 L 149.85763,214.66087 z M 157.08549,229.36544 C 158.2837,231.47546 156.72404,232.80036 154.72254,232.36082 L 145.68772,224.73622 C 143.7958,222.59765 145.47936,220.30922 148.46766,221.33239 L 157.08549,229.36544 z M 161.5334,216.83932 L 157.64148,220.78778 L 145.82672,194.91862 C 144.05242,191.83601 148.18462,189.45069 150.96961,191.65094 L 161.5334,216.83932 z M 167.09329,211.39319 L 162.92337,215.47779 L 151.6646,188.65556 C 150.4771,184.64658 153.41944,183.2314 155.55652,184.84326 L 167.09329,211.39319 z M 159.30944,221.877 L 170.56821,210.57627 C 168.86489,200.52946 161.17676,195.76068 170.42922,192.19555 L 175.15512,210.16781 C 177.92292,219.42143 176.79248,231.105 175.57211,242.84463 C 172.83453,248.29341 163.70664,252.69123 156.94649,248.69923 C 152.87911,243.03518 152.05788,237.01783 151.2476,230.99928 L 154.72254,233.99466 C 156.8963,234.30731 158.77521,234.23487 158.75345,231.68005 C 161.48444,231.18895 164.99984,231.65831 163.47935,225.9616 L 159.30944,221.877 z M 265.44916,148.76583 C 267.64928,143.26077 269.58976,136.31838 277.6906,135.11455 C 285.44193,133.25649 295.03009,133.70735 302.73846,134.56113 C 308.43199,136.47235 308.20893,144.85047 309.14167,148.95031 C 307.64943,148.88303 306.0591,148.88778 304.56757,148.45878 C 300.96707,147.42318 291.77258,145.95615 290.12037,150.97955 C 289.87503,153.24234 291.84362,153.81151 294.26362,153.56223 C 296.91542,147.86233 302.62059,148.81753 310.08257,152.34483 L 310.19541,156.661 C 306.10448,154.49547 301.13838,152.86916 294.82861,155.96043 C 293.8208,157.03489 294.17578,158.77679 293.88696,160.20339 C 297.60404,160.47257 298.03998,156.25546 300.66683,159.64996 C 301.34432,161.3742 302.39966,161.24778 303.68011,160.01892 C 304.43489,158.33646 306.30337,157.33583 310.27165,157.62072 C 311.87487,166.16962 307.67908,173.23975 310.83664,181.04926 C 305.8512,185.51265 303.6375,194.02194 301.045,197.42815 C 298.35953,201.6984 294.04777,202.7826 289.36855,203.14693 C 280.50599,202.94292 277.68691,197.03575 274.15121,193.48241 L 265.18686,181.60122 C 265.04015,173.50135 265.20141,165.70315 264.50751,157.06729 C 266.44365,158.52603 269.58995,158.18604 270.53407,160.75682 C 271.38033,162.67853 272.79626,162.82297 273.77229,161.31025 C 274.02234,158.861 275.80434,158.18124 278.06726,159.28101 C 279.53848,159.95675 280.07301,159.4528 280.13889,158.35863 C 277.45694,153.91149 272.4045,153.65093 264.69735,156.29204 C 264.74885,151.90683 267.92415,150.89215 273.73718,150.57327 C 279.82315,150.82413 282.40103,154.01652 282.7755,158.35863 L 282.58717,175.14601 C 283.05971,176.57129 283.01915,178.03846 285.78878,179.27623 C 288.99038,180.41893 292.192,179.96372 295.3936,179.57345 C 297.52206,179.07763 298.12491,177.58554 297.84189,175.51496 C 297.55611,172.41385 295.26604,170.79938 292.94607,169.68712 C 291.83627,171.00148 294.79694,172.53583 294.45345,174.51938 C 295.22675,176.36161 293.006,176.31288 291.627,176.62183 C 287.54742,177.02757 285.61599,175.87801 286.16544,172.93229 L 285.22379,157.06729 C 284.34304,152.77384 282.30325,146.04243 272.04071,147.10554 C 269.68106,147.28438 268.45999,148.83757 265.44916,148.76583 z M 281.09308,187.49514 C 281.09127,186.27068 281.46964,185.2832 283.65947,185.42488 L 297.62371,185.72063 C 298.00999,188.83618 292.17704,193.36652 290.15096,193.18838 C 286.37789,193.32112 284.10746,189.40612 281.09308,187.49514 z M 284.94267,188.08665 L 294.52894,188.16059 C 295.2997,188.44552 294.77136,188.94254 294.37797,189.41753 L 285.32009,189.41753 C 284.2973,189.09943 284.58346,188.59814 284.94267,188.08665 z M 275.98138,198.66373 C 275.69913,201.74682 273.31043,205.34575 271.366,208.83588 C 275.25978,215.60008 279.63153,222.08337 285.70665,227.56555 C 283.38611,224.06761 284.56352,218.27848 290.32202,218.03926 C 295.57224,218.68789 297.00199,223.05632 295.43191,227.56555 C 300.87291,221.91578 305.31178,215.28437 309.44289,208.3515 C 306.84666,204.47639 304.95134,200.60129 303.67366,196.72618 C 301.27383,200.54122 298.98183,204.40556 290.15719,205.2837 C 281.91975,205.26634 279.68362,201.50809 275.98138,198.66373 z M 401.81393,205.41359 C 406.44404,214.39162 401.92112,214.29946 396.51574,224.2042 C 398.34271,230.12304 400.16966,234.02244 401.99662,242.10002 C 403.07619,248.99262 402.90814,253.8484 402.54471,258.38522 C 398.79019,256.39978 394.26761,256.10715 392.31374,250.15314 L 391.58295,229.21502 C 391.76389,225.8543 391.68261,222.45077 394.68878,219.55128 L 401.81393,205.41359 z M 408.39098,237.44711 C 406.60747,238.87877 403.96263,240.84731 409.12177,242.81586 L 422.45857,243.17377 C 425.80801,241.14557 425.2599,237.44711 422.45857,236.37335 L 408.39098,237.44711 z M 410.03525,234.94169 L 423.73745,226.53065 C 425.10583,226.05584 425.46997,226.8926 425.38171,228.32024 C 423.95851,230.52084 422.8533,233.65588 420.99701,234.58378 L 410.03525,234.94169 z M 404.91976,229.7519 C 403.79705,232.05311 405.06834,233.53509 407.8429,232.97316 L 423.92015,221.87774 C 424.29597,219.50356 424.71165,217.06109 423.18936,217.94066 L 404.91976,229.7519 z M 400.35236,222.0567 C 400.06775,223.73821 399.3293,225.61728 403.27549,225.45691 C 410.8115,220.31786 420.80308,214.69775 423.92015,210.42442 L 419.53544,206.84525 C 414.59495,212.98382 407.09526,217.24228 400.35236,222.0567 z M 420.33283,235.37554 L 405.75572,236.06962 C 402.9784,235.49801 403.01947,233.2726 402.1018,231.68229 C 401.78467,235.19646 402.63923,238.71063 404.38842,242.2248 C 404.03226,240.22281 404.02288,238.39066 405.30735,237.19221 C 407.422,235.95673 415.32434,235.98109 420.33283,235.37554 z"
         style="fill:#ffffff;fill-opacity:1;fill-rule:evenodd;stroke:none;stroke-width:1px;stroke-linecap:butt;stroke-linejoin:miter;stroke-opacity:1"
         id="path6821" />
      <path
         sodipodi:nodetypes="cccccccccccccccccccccccccccccccccccccccccccccccccccccccccccccccccccccccccccccccccccccccccccccccccccccccccccccccccccccccccccccccccccccccccccccccccccccccccccccccccccccccccccccccccccccccccccccccccccccccccccccccccccccccccccccccccccccccccccccccccccccccccccccccccccccccccccccccccccccccccccccccccccccccccccccccccccccccccccccccccccccccccccccccccccccccccccccccccccccccccccccccccccccccccccccccccccccccccccccccccccccccccccccccccccc"
         d="M 270.52107,205.7681 C 257.01881,181.43101 279.32958,188.69082 270.52107,205.7681 z M 311.03647,204.63786 C 322.94642,179.74161 300.27532,182.00234 311.03647,204.63786 z M 284.7428,229.98749 C 280.75635,228.15874 277.72289,229.01738 276.30898,231.60212 C 273.4386,232.10988 270.48953,233.07858 268.04053,231.11773 C 264.89852,226.59677 243.2318,209.14954 240.25855,211.74221 C 238.4822,210.0269 240.06212,208.85774 240.75466,207.54418 C 279.72385,189.81589 254.27431,195.3296 284.7428,229.98749 z M 337.66088,204.96078 C 340.45363,205.65282 338.61825,208.2815 338.65309,210.12758 C 334.50258,206.08122 309.32023,226.78306 308.55594,230.31042 C 305.04033,230.85458 302.06535,229.28722 298.96453,228.2114 C 321.52578,187.72185 308.42219,205.16674 337.66088,204.96078 z M 226.07924,560.26892 C 232.92448,560.91081 239.31925,563.65206 245.33389,566.52419 C 241.29028,570.5574 237.95955,574.59062 232.8276,578.62383 C 221.38535,580.76704 214.67933,577.69836 213.78759,574.6234 C 212.59771,572.30082 221.98203,565.05375 226.07924,560.26892 z M 339.11413,564.26935 C 346.1707,562.9887 352.12052,559.54678 360.80526,561.44551 L 372.61487,573.68212 C 370.81097,576.8913 360.5562,581.14157 353.81589,578.62383 L 339.11413,564.26935 z M 303.21069,499.09521 C 295.49831,504.75622 287.77376,509.40797 280.06135,511.32313 L 278.14256,569.21941 L 307.54346,568.97768 L 303.21069,499.09521 z M 289.22205,529.43335 L 293.55482,529.43335 L 293.55482,535.31564 L 297.66063,535.31564 L 297.66063,540.02953 L 293.55482,540.02953 L 293.55482,554.85614 L 289.22205,554.85614 L 289.22205,540.02953 L 285.61142,540.02953 L 285.61142,535.31564 L 289.22205,535.31564 L 289.22205,529.43335 z M 224.15113,482.84884 L 232.34557,493.20289 L 222.70507,544.03188 L 216.19772,544.50252 L 224.15113,482.84884 z M 235.47873,496.26205 L 226.80228,543.56124 C 238.42884,545.53121 246.80304,552.95529 259.21188,557.51771 L 260.54403,515.08759 C 247.10234,517.0254 243.11578,503.39227 235.47873,496.26205 z M 214.18778,553.36726 C 214.81093,550.28617 217.3715,549.67879 220.77696,550.15018 L 220.29494,553.20934 C 218.09631,552.30761 216.18955,553.11572 214.18778,553.36726 z M 226.1591,550.21726 L 225.02567,553.971 C 237.05761,556.6365 246.85846,563.78109 258.66281,568.05702 L 258.82963,560.06184 C 247.01542,557.41401 233.70426,549.50761 226.1591,550.21726 z M 264.73859,515.41036 L 275.21896,512.96338 L 274.30762,558.78852 L 263.37159,558.56607 L 264.73859,515.41036 z M 314.4064,476.25879 L 322.15276,559.67833 L 310.76106,559.67833 L 307.11571,495.16721 L 314.4064,476.25879 z M 326.02592,560.56813 L 326.70943,567.01924 C 338.06259,561.38246 349.31092,555.50005 363.61853,556.78645 L 359.74535,552.11495 C 344.78106,551.75073 336.56144,557.1487 326.02592,560.56813 z M 363.84637,551.22514 L 372.7319,551.00269 L 376.1494,559.90078 L 367.26388,559.45587 L 363.84637,551.22514 z M 325.57026,557.4538 C 334.69498,550.16193 346.19888,549.25825 357.69485,548.33327 L 335.72301,398.24633 C 330.11054,426.01453 323.30917,450.30029 316.22907,473.7696 L 325.57026,557.4538 z M 362.0237,548.55572 L 370.90922,548.55572 C 345.3546,473.44106 347.89218,398.3264 341.97431,323.21174 L 341.06297,323.43419 L 340.83514,401.73734 C 343.72694,450.36332 351.87289,496.24217 362.0237,548.55572 z M 422.86434,248.52699 L 431.02108,324.37321 L 420.29221,270.0511 L 419.80921,248.65359 L 422.86434,248.52699 z M 419.17853,281.17555 L 435.03627,357.98331 L 421.13418,365.70168 C 417.7011,367.50239 418.69385,368.58287 419.49863,369.69395 L 433.12814,365.16939 L 433.94591,370.22626 L 416.50014,376.08158 L 419.17853,281.17555 z M 416.50014,378.74309 L 416.50014,401.09977 L 431.76518,405.35819 L 428.4941,375.81543 L 416.50014,378.74309 z M 416.77273,403.76128 C 414.96159,411.75376 426.78512,411.07953 432.959,415.32212 C 433.98144,408.08578 424.10885,408.68266 416.77273,403.76128 z M 415.64631,412.21285 C 423.28692,413.16266 428.91395,417.48275 433.88022,422.90884 C 434.54331,425.20034 435.68865,428.20466 431.50187,427.76425 L 415.64631,427.69388 L 415.64631,412.21285 z M 415.76022,431.98634 C 416.06969,433.48754 415.9072,434.98872 415.25573,436.48992 C 426.09152,437.56986 430.85942,437.30127 432.0482,431.4234 C 425.34205,430.01254 422.94428,433.51198 415.76022,431.98634 z M 414.23515,452.88573 L 421.9467,452.81536 C 421.25319,444.64937 423.45397,440.64808 417.47832,440.21943 C 412.81268,439.94821 414.07136,440.20273 414.23515,452.88573 z M 414.30721,456.12267 C 416.17474,457.26089 418.00663,458.46869 420.43322,458.51519 C 422.48879,464.9986 411.64598,462.70091 414.30721,456.12267 z M 413.87479,465.62239 C 413.52793,470.23682 414.09725,478.13124 412.72166,479.06273 C 418.1751,479.75312 420.34529,476.77984 421.80257,473.01106 C 419.44479,466.51588 416.5894,467.06571 413.87479,465.62239 z M 401.07572,304.6631 C 401.6848,324.78727 400.67057,348.08135 400.23613,370.24327 C 396.20109,372.04393 391.97929,374.75643 388.48195,373.93215 C 392.67988,351.1499 396.87779,328.52433 401.07572,304.6631 z M 399.80917,373.67871 L 399.59346,379.36541 C 395.68947,379.54307 393.22443,383.37561 389.02348,382.10346 L 389.23919,377.25922 C 392.2886,377.45391 396.24979,374.97783 399.80917,373.67871 z M 398.94632,383.36717 L 398.73061,396.42552 C 395.40659,392.94724 391.94294,394.79646 390.10204,390.94943 C 388.75677,383.28248 395.05472,384.71015 398.94632,383.36717 z M 388.39886,393.61293 L 388.37633,398.74232 C 391.54595,401.85957 395.60207,402.38681 398.73061,406.32459 L 398.73061,400.84851 C 395.36458,396.67333 391.7649,396.77567 388.39886,393.61293 z M 392.42802,405.92185 L 393.54795,426.08412 L 398.22099,426.54038 L 398.27579,408.74603 L 392.42802,405.92185 z M 393.54795,429.73426 L 398.22099,429.73426 L 398.22099,434.75317 L 393.54795,434.75317 L 393.54795,429.73426 z M 392.40709,437.49077 L 397.75369,437.49077 L 397.62317,445.81056 L 391.49342,443.64403 L 392.40709,437.49077 z M 390.58769,445.81541 L 397.11402,448.61916 L 397.11402,455.62852 C 395.53689,453.39812 392.3307,453.58425 391.1098,451.4229 C 389.95321,449.07406 390.42093,447.5182 390.58769,445.81541 z M 396.0698,456.77551 L 396.0698,462.89277 C 395.07518,461.29723 393.88819,460.45297 392.54559,460.21647 C 394.66849,459.76381 395.28819,458.21038 396.0698,456.77551 z M 395.93927,464.54953 L 395.93927,477.29383 L 390.45717,477.67616 C 393.03475,474.27729 394.3463,469.23023 395.93927,464.54953 z M 239.94721,216.15685 C 241.94237,214.81645 243.93316,213.44197 246.42368,215.97086 C 252.66027,220.02122 258.21456,224.5712 262.42438,230.10572 C 262.71355,231.84576 264.08786,232.9501 262.04341,236.05723 L 234.61364,260.42125 C 228.90061,264.45628 221.25389,263.61447 214.04132,262.2811 C 208.5209,259.60374 207.18389,257.25803 203.75516,253.16784 C 200.50645,250.50206 201.8186,250.0681 203.1837,248.51822 C 214.72812,235.99781 227.43336,226.31092 239.94721,216.15685 z M 270.23425,235.49928 L 234.61364,264.14095 C 230.67364,267.08722 217.74426,268.34507 211.946,264.51292 L 194.8024,252.05193 C 197.14653,256.30157 205.30447,262.17307 210.80309,267.3027 C 218.98031,271.33241 232.03634,270.79129 238.04237,266.93072 C 248.9075,256.37478 261.62045,244.73633 270.23425,235.49928 z M 239.37576,269.90648 C 236.38272,272.51113 231.85858,275.26526 226.61331,278.08981 C 220.27692,280.77717 213.9564,280.3257 208.32679,274.92807 C 202.6759,269.86881 198.13232,264.26494 194.8024,258.93337 C 196.14046,258.9702 207.41837,267.45892 213.45621,271.86599 C 216.57911,274.46201 221.48859,274.87785 227.75621,274.18413 C 231.75064,272.28473 235.60698,270.92462 239.37576,269.90648 z M 232.82023,278.42477 C 223.42771,284.58621 216.18372,288.94673 208.13868,280.74255 C 203.86286,271.06622 195.35816,266.05038 188.74393,258.9834 C 186.31886,266.12615 180.03605,271.3856 174.85048,277.1807 L 191.09647,298.62804 C 193.51628,303.08278 198.56705,304.43314 206.18496,301.27492 C 215.76351,295.76053 224.70742,287.51696 232.82023,278.42477 z M 375.78914,246.75293 C 376.64711,247.94599 376.70152,249.13904 375.60585,250.3321 L 366.62474,259.63793 C 360.29631,261.65197 353.82805,262.43744 347.01294,260.1748 L 316.77045,234.58378 C 313.6737,231.50587 315.04341,229.39707 316.22059,227.24649 C 320.92068,222.84657 324.5196,218.31226 332.89978,214.36149 C 334.43492,213.68341 336.01563,213.22786 338.03184,214.89837 C 352.36109,224.05744 364.881,234.73075 375.78914,246.75293 z M 310.35538,234.58378 L 345.54663,262.3223 C 352.64391,263.65493 359.78007,264.60785 367.3579,261.24855 L 382.2042,245.85814 C 378.72573,251.5459 371.54944,260.12202 365.89159,267.51209 C 355.14915,269.30597 345.91713,267.41304 337.1154,264.4698 C 327.90035,254.37976 315.66866,242.98066 310.35538,234.58378 z M 389.90229,242.10002 L 389.90229,246.75293 C 382.26803,255.62912 377.42473,269.81259 365.70831,278.96541 C 362.94287,282.01436 360.66652,281.24295 358.37679,280.57604 C 351.06086,276.86996 344.67581,272.70944 339.31485,268.04896 C 348.10315,269.82909 355.62493,278.2868 366.62474,268.40688 C 378.96611,252.4796 381.16472,253.97427 389.90229,242.10002 z M 346.64636,279.14437 L 355.99404,284.33416 C 360.63734,285.86067 365.28063,285.9052 369.92392,283.61833 C 376.03628,276.52234 381.5235,268.816 385.68668,259.81689 C 388.30094,264.53259 392.18678,268.93791 398.70011,272.70188 C 401.43216,272.81155 401.17331,271.2525 400.53299,269.48063 C 394.32379,266.29585 390.37061,262.28504 388.06941,257.66939 C 387.42806,254.17984 389.49443,253.33407 390.63545,251.58481 C 391.23755,255.86211 396.739,259.77145 403.64888,263.575 L 403.64888,272.88083 C 397.52544,281.42655 392.05371,290.18438 384.58695,298.29291 C 379.33419,302.40418 375.81791,301.00527 372.48996,299.00873 C 362.74813,294.03828 354.4437,286.96267 346.64636,279.14437 z M 342.62142,276.74118 C 345.33673,286.11444 344.25503,293.63403 340.91611,300.05166 C 347.87894,304.39004 348.90187,312.74112 342.62142,319.75456 C 344.43983,353.26895 350.21014,435.10796 362.51679,496.24814 C 372.11413,484.09378 382.59211,473.65909 390.08608,457.39736 C 388.42604,456.98725 387.01131,455.85852 386.10701,453.23477 L 381.84372,434.08688 L 386.39123,434.36439 L 386.10701,404.94879 C 383.83325,404.76379 382.31741,403.09875 381.5595,399.95369 C 383.24135,369.63872 388.69016,338.50642 397.19156,306.71179 C 399.70078,297.61967 402.85511,288.14963 401.73907,281.18128 C 397.05764,287.3789 392.8825,293.57653 387.52811,299.77415 C 388.24224,320.30007 383.18673,355.82363 379.56996,371.37061 C 381.89336,348.80015 387.04416,326.2297 383.83325,303.65923 L 381.84372,303.93674 C 380.04803,310.33218 379.24261,319.62821 378.14885,328.07973 C 378.80253,339.30477 362.87301,426.42218 361.0957,427.98176 C 366.66695,387.19908 374.84231,346.77963 375.59089,305.32427 L 374.45401,305.32427 C 370.71443,331.15946 361.0668,361.37235 353.70598,382.19333 C 351.59699,376.81213 367.5882,337.79427 369.62229,304.21425 C 365.57512,303.02616 362.43698,299.17542 359.10615,295.88907 C 356.61312,314.23875 351.36412,331.09179 348.30581,344.45256 L 346.03206,340.28998 C 352.01846,325.96377 356.90894,305.8366 354.55864,291.17148 L 342.62142,276.74118 z M 378.43309,408.00135 L 383.54903,408.27886 C 378.65125,427.51925 372.05588,446.75964 363.36945,466.00003 L 360.24304,464.6125 C 373.3984,446.23672 375.56043,427.09426 378.43309,408.00135 z M 390.93873,462.11495 C 385.77239,471.08763 363.31947,498.9307 362.80102,497.35817 L 365.64321,509.84592 C 374.4685,494.10024 387.39343,480.9422 390.93873,462.11495 z M 331.30928,264.33642 L 340.65935,273.55649 C 341.65812,282.1925 342.00652,292.04158 338.19045,298.14606 C 333.21595,296.93378 328.46038,296.57649 324.00384,297.38707 C 329.58117,287.34439 330.81146,275.37101 331.30928,264.33642 z M 305.33925,238.64311 L 329.11408,261.64523 C 328.72356,271.58193 326.99541,286.15943 321.86612,297.38707 L 310.01155,305.35643 L 309.62288,259.62749 C 308.38843,261.78186 308.55578,268.53998 307.74429,287.5649 C 307.31416,297.54847 305.35068,305.548 307.09649,307.06415 L 290.57783,306.8744 C 284.37493,295.96988 281.38644,281.90449 281.63831,266.83786 C 279.00113,282.93116 282.82046,294.68125 287.8571,306.49491 L 278.91759,306.30516 C 273.00761,293.33914 271.30151,280.37312 269.97808,267.4071 C 269.48466,279.58491 270.77177,292.5305 276.00253,306.68466 L 269.5894,306.11542 C 264.64423,293.29735 262.90752,281.71077 260.45555,266.45837 C 261.15125,281.35517 262.62191,294.56506 267.64603,306.11542 L 258.90086,305.92567 C 252.06473,291.74802 249.66963,277.01136 248.62288,262.40421 L 275.77262,237.46989 C 277.11126,239.81587 281.2003,241.72114 286.10807,237.80663 C 281.41618,243.62302 285.66611,250.26651 290.82965,249.98516 C 296.74462,249.75978 298.77828,243.88341 294.85325,237.99638 C 296.55905,239.73228 301.82945,241.53809 305.33925,238.64311 z M 247.60208,264.11849 C 249.78217,277.46469 249.73392,297.72775 255.06042,304.92974 C 251.94172,308.70702 251.18396,315.22865 250.30715,320.64762 C 241.72088,312.11818 238.80231,299.40856 234.65605,288.16965 L 232.29311,291.0157 C 236.4622,302.45823 243.48752,313.81143 250.32541,323.69856 C 249.22563,327.7288 248.34685,332.83797 247.83017,339.71485 C 239.37958,330.04988 230.91106,320.94776 228.17848,309.04962 L 224.40597,311.57054 C 229.89629,321.47902 238.67761,331.81508 247.62034,341.72356 C 247.4998,345.31976 246.68561,348.52429 245.99182,352.68021 C 238.76937,357.52961 231.4447,361.38077 223.64418,360.58591 C 220.88888,344.78341 212.99414,333.47046 215.22333,311.25431 L 211.66066,312.20299 C 212.70407,327.98626 219.13198,345.46234 221.70091,360.90214 L 217.81436,359.95345 C 212.48711,342.1118 205.862,324.12935 205.50697,306.82711 C 215.11,305.43533 228.97222,279.42364 247.60208,264.11849 z M 201.62042,308.40825 C 195.48202,309.13119 193.44859,305.84612 189.96078,303.98106 C 194.88116,322.34195 201.03468,341.86006 213.92781,358.37231 L 216.51884,359.95345 C 210.74853,342.77172 203.89906,325.58999 201.62042,308.40825 z M 193.79581,329.70505 L 200.23018,344.99659 C 201.68397,355.49602 202.17936,368.96974 202.68367,381.32325 L 205.97711,381.86999 C 208.89207,453.34984 234.52699,475.85172 252.87516,509.88747 C 206.40311,466.41506 188.79143,403.1254 193.79581,329.70505 z M 204.37283,352.72945 C 205.18309,361.41642 205.89937,370.0116 206.28257,378.28159 C 218.84681,379.59571 229.21238,389.95048 244.98216,387.63056 C 255.86523,382.28421 267.3851,404.07692 268.92005,414.11932 L 274.04517,407.23338 C 266.50303,396.21056 257.84608,385.29685 248.17388,382.177 C 237.25116,388.67473 231.39047,383.49027 225.03391,379.45021 C 216.76031,371.44584 210.06788,362.41225 204.37283,352.72945 z M 259.9317,400.27691 L 247.99166,417.2913 C 254.95553,416.07661 259.71149,418.45486 264.12685,421.38735 C 269.18838,415.29578 263.62211,405.73832 259.9317,400.27691 z M 274.77608,444.38827 C 275.88705,446.94177 274.34538,448.29266 272.19445,447.53908 C 261.80564,440.93346 251.24711,434.54876 241.53757,427.05881 C 237.42757,423.00362 242.66566,419.02701 245.73273,421.07227 C 256.43759,428.34449 265.51651,436.27924 274.77608,444.38827 z M 259.30707,443.12858 L 249.54025,459.13876 C 255.41615,461.80645 268.95904,462.68475 269.61152,453.45208 C 270.0993,448.66569 262.24305,444.52013 259.30707,443.12858 z M 248.5546,467.97497 C 246.94842,467.22437 244.53109,468.77942 245.68583,471.47728 L 261.27835,488.44701 C 264.10024,489.93748 266.64369,488.12336 265.22093,484.94752 L 248.5546,467.97497 z M 305.14861,309.48258 L 295.41131,316.77151 L 255.48835,315.02851 C 254.77839,312.75568 256.27264,310.22862 258.24725,308.21495 L 305.14861,309.48258 z M 289.73121,321.20825 L 255.65063,319.46525 C 254.18064,329.14017 252.14174,339.37057 249.80825,349.88859 L 259.05869,343.39194 C 259.79841,335.98017 260.64757,328.67525 261.81759,321.68362 L 266.03709,321.52516 C 263.45984,328.65563 261.63673,335.7861 260.357,342.91657 L 289.73121,321.20825 z M 216.86821,364.06292 C 226.79068,365.39088 235.6943,365.03372 243.36124,358.98913 C 269.40249,341.00812 294.19581,322.81218 318.31187,304.45522 C 327.22256,297.18777 342.33749,300.60093 343.09901,312.52242 C 339.53489,323.03762 333.05449,312.83508 331.16447,317.00421 C 315.32715,360.94754 299.5215,403.30152 277.45899,443.83863 C 271.12779,435.41356 263.31389,429.07339 253.13088,421.87791 C 256.86468,421.87897 260.91148,423.93842 265.39426,425.76768 C 292.79691,389.49084 312.19376,346.08044 333.14785,306.71282 C 334.07487,304.53946 332.10264,305.11895 331.31176,306.39176 C 314.04265,340.12385 296.96545,373.51101 275.62291,404.84713 C 268.69495,395.47703 260.5941,387.2521 252.21283,379.30098 C 273.86508,368.99463 304.14817,330.38749 327.80402,303.99033 C 301.79693,328.58662 279.28319,355.88996 250.34252,377.06008 C 243.84223,381.57309 235.58718,383.42823 230.17982,378.40462 C 225.04128,373.89796 220.07451,369.32422 216.86821,364.06292 z M 209.98865,383.26772 C 221.67019,386.13347 233.35173,391.86177 245.03326,390.94252 C 248.75709,389.56674 252.56761,389.0374 257.15149,396.05905 L 242.08559,416.52517 C 235.59419,420.77764 235.25803,427.94212 239.79294,433.1539 L 256.49645,440.82869 L 239.46543,471.52787 L 263.37437,496.15118 C 279.3137,491.49661 287.8911,477.258 296.12635,462.57394 C 312.68327,428.76526 326.29242,370.17334 335.1012,320.91001 L 340.014,321.54958 C 340.76778,337.9702 339.80606,355.22832 337.06632,373.35444 C 328.59485,409.50864 323.41577,446.06467 308.5721,481.44115 C 305.18629,491.45993 300.72414,500.66134 289.57595,504.78532 C 280.07788,508.89308 270.5798,512.90842 261.08173,511.18099 C 227.33404,471.80203 212.41905,437.35139 209.98865,383.26772 z M 215.55649,390.62274 L 220.7968,389.66339 C 221.60089,408.424 227.36682,427.18461 234.22511,445.94522 C 225.46885,428.56449 218.8901,409.9071 215.55649,390.62274 z M 333.48666,319.26416 C 322.42063,374.48533 298.35699,481.28162 269.61029,485.21592 L 257.39047,472.2001 C 247.25611,467.14793 252.72094,462.10486 260.16771,463.52288 C 268.65995,464.39073 274.26354,461.02792 276.83111,453.21869 C 300.40194,409.5207 316.90687,364.88036 333.48666,319.26416 z"
         style="fill:#ffffff;fill-opacity:1;fill-rule:evenodd;stroke:none;stroke-width:1px;stroke-linecap:butt;stroke-linejoin:miter;stroke-opacity:1"
         id="path6741" />
      <path
         id="path10222"
         d="M 256.67995,140.33021 C 251.53371,148.19681 247.137,155.16767 237.70452,163.87399 C 225.30566,148.44486 220.17036,134.01844 222.12997,116.34113 C 224.46709,84.93079 251.78177,50.369437 290.41973,50.832471 C 325.41912,49.861735 355.93404,84.67558 356.82564,119.57042 C 356.47983,137.22439 353.04906,152.0793 340.27642,164.78062 C 329.83421,156.66861 323.62165,144.36621 316.61463,137.86669 L 321.97431,139.86888 C 315.6895,130.79816 324.50965,110.44417 329.03877,102.50127 C 323.34383,84.76137 315.37195,68.136634 300.30998,54.98443 L 295.60034,61.443028 L 286.53453,55.331656 C 262.03729,72.254763 255.09776,88.37006 248.03298,106.1919 C 252.72265,112.62812 259.11121,125.82844 256.67995,140.33021 z"
         style="fill:#ffffff;fill-opacity:1;fill-rule:evenodd;stroke:none;stroke-width:1px;stroke-linecap:butt;stroke-linejoin:miter;stroke-opacity:1" />
      <path
         d="M 293.72021,232.5696 C 293.72021,234.84737 291.84069,236.696 289.52484,236.696 C 287.20898,236.696 285.32946,234.84737 285.32946,232.5696 C 285.32946,230.29182 287.20898,228.44319 289.52484,228.44319 C 291.84069,228.44319 293.72021,230.29182 293.72021,232.5696 z M 293.64028,242.90444 C 293.64028,245.18221 291.76076,247.03084 289.44491,247.03084 C 287.12905,247.03084 285.24953,245.18221 285.24953,242.90444 C 285.24953,240.62665 287.12905,238.77803 289.44491,238.77803 C 291.76076,238.77803 293.64028,240.62665 293.64028,242.90444 z M 303.23182,232.80448 C 303.23182,235.08225 301.3523,236.93089 299.03645,236.93089 C 296.72059,236.93089 294.84107,235.08225 294.84107,232.80448 C 294.84107,230.5267 296.72059,228.67807 299.03645,228.67807 C 301.3523,228.67807 303.23182,230.5267 303.23182,232.80448 z M 284.36846,232.80448 C 284.36846,235.08225 282.48894,236.93089 280.17309,236.93089 C 277.85723,236.93089 275.97771,235.08225 275.97771,232.80448 C 275.97771,230.5267 277.85723,228.67807 280.17309,228.67807 C 282.48894,228.67807 284.36846,230.5267 284.36846,232.80448 z M 293.64028,222.78282 C 293.64028,225.06059 291.76076,226.90922 289.44491,226.90922 C 287.12905,226.90922 285.24953,225.06059 285.24953,222.78282 C 285.24953,220.50504 287.12905,218.65641 289.44491,218.65641 C 291.76076,218.65641 293.64028,220.50504 293.64028,222.78282 z"
         style="fill:#ffffff;fill-opacity:1;fill-rule:evenodd;stroke:none;stroke-width:1px;stroke-linecap:butt;stroke-linejoin:miter;stroke-opacity:1"
         id="path10220" />
      <path
         id="path10210"
         d="M 393.61086,560.03164 L 405.88927,560.03164 L 406.7663,575.06565 L 392.95309,574.63611 L 393.61086,560.03164 z"
         style="fill:#ffffff;fill-opacity:1;fill-rule:evenodd;stroke:none;stroke-width:1px;stroke-linecap:butt;stroke-linejoin:miter;stroke-opacity:1" />
      <path
         id="path10208"
         d="M 400.18858,143.37468 L 425.62243,143.37468 L 425.62243,150.0326 L 400.18858,150.0326 L 400.18858,143.37468 z"
         style="fill:#ffffff;fill-opacity:1;fill-rule:evenodd;stroke:none;stroke-width:1px;stroke-linecap:butt;stroke-linejoin:miter;stroke-opacity:1" />
      <path
         id="path10206"
         d="M 402.81969,151.536 L 424.08765,151.536 L 424.08765,161.84504 L 402.81969,161.84504 L 402.81969,151.536 z"
         style="fill:#ffffff;fill-opacity:1;fill-rule:evenodd;stroke:none;stroke-width:1px;stroke-linecap:butt;stroke-linejoin:miter;stroke-opacity:1" />
      <path
         id="path10204"
         d="M 408.08183,164.42229 L 417.44054,165.31536 L 417.44054,203.97424 C 413.20156,208.46259 410.78601,211.18968 406.54704,213.39021 L 408.08183,164.42229 z"
         style="fill:#ffffff;fill-opacity:1;fill-rule:evenodd;stroke:none;stroke-width:1px;stroke-linecap:butt;stroke-linejoin:miter;stroke-opacity:1" />
      <path
         id="path10202"
         d="M 405.01224,244.96165 L 416.19437,244.96165 L 406.32779,557.8839 L 394.04937,557.23958 L 405.01224,244.96165 z"
         style="fill:#ffffff;fill-opacity:1;fill-rule:evenodd;stroke:none;stroke-width:1px;stroke-linecap:butt;stroke-linejoin:miter;stroke-opacity:1" />
      <path
         id="path10200"
         d="M 413.99513,141.26238 C 413.95212,134.17649 415.28214,127.85915 419.53398,123.17727 L 432.91954,123.6294 C 433.02358,132.02252 429.35365,136.41084 422.07262,136.96717 L 421.61105,131.7677 C 420.29199,134.72429 418.22682,137.19364 418.61084,141.26238 L 413.99513,141.26238 z"
         style="fill:#ffffff;fill-opacity:1;fill-rule:evenodd;stroke:none;stroke-width:1px;stroke-linecap:butt;stroke-linejoin:miter;stroke-opacity:1" />
      <path
         id="path6739"
         d="M 410.07177,126.1161 L 412.37963,141.48845 L 405.91764,141.48845 C 399.35148,124.9362 387.20114,117.55032 375.45394,115.26503 C 376.78329,112.86424 378.8273,110.81348 382.60829,109.61343 C 383.00347,105.92622 382.72048,101.90685 384.22379,98.76236 C 380.43159,82.51228 388.56908,76.423622 398.76328,72.086812 C 405.40299,68.794575 411.50218,64.972875 416.30298,59.879356 C 421.58252,64.551342 428.85662,69.223334 435.2274,73.895324 C 447.3814,80.558443 447.57913,90.30358 448.38218,99.89268 C 446.19002,110.89901 440.64479,117.89098 432.91954,122.27301 L 419.99555,122.04695 C 414.50626,109.56026 405.32847,103.18794 391.83971,103.96183 C 393.45312,99.48059 401.46985,92.3611 410.30256,100.11874 C 408.77834,94.28578 406.90373,83.64691 415.37984,77.512347 C 422.48485,83.29179 419.73711,94.03794 417.6877,100.11874 C 424.92546,94.46447 433.9806,94.17031 437.07369,102.15332 C 430.70778,103.39121 421.81098,101.79583 419.3032,107.35279 C 419.33261,110.43513 419.79205,113.52519 425.53441,115.26503 C 432.90112,112.71405 436.85428,107.56241 438.68918,100.79694 C 437.88596,88.30506 429.28169,76.811481 416.53377,74.79958 C 404.34349,75.463992 390.91377,83.77724 390.68578,102.83151 C 393.08525,113.16796 397.31432,122.34476 410.07177,126.1161 z"
         style="fill:#ffffff;fill-opacity:1;fill-rule:evenodd;stroke:none;stroke-width:1px;stroke-linecap:butt;stroke-linejoin:miter;stroke-opacity:1" />
      <path
         sodipodi:nodetypes="cccccccccccccccccccccccccccccccccccccccccccccccccccccccccccccccccccccccccccccccccccccccccccccccccccccccccccccc"
         d="M 284.45902,63.948006 L 289.42372,59.793095 L 292.61522,63.25552 L 292.26062,119.00053 L 284.45902,119.00053 L 284.45902,63.948006 z M 280.20362,65.679212 L 280.55822,119.00053 C 272.47262,119.9853 265.24912,121.25064 259.99032,123.15543 C 258.13822,117.50014 256.24522,111.84485 252.54332,106.18956 C 259.52432,89.04242 267.59912,73.675254 280.20362,65.679212 z M 268.19162,89.09758 L 268.19162,95.36262 L 263.63182,95.36262 L 263.63182,99.10957 L 268.19162,99.10957 L 268.19162,114.33907 L 271.76092,114.33907 L 271.76092,99.10957 L 276.32062,99.10957 L 276.32062,95.36262 L 271.76092,95.36262 L 271.76092,89.09758 L 268.19162,89.09758 z M 305.27912,89.09758 L 305.27912,95.36262 L 300.71942,95.36262 L 300.71942,99.10957 L 305.27912,99.10957 L 305.27912,114.33907 L 308.84852,114.33907 L 308.84852,99.10957 L 313.40822,99.10957 L 313.40822,95.36262 L 308.84852,95.36262 L 308.84852,89.09758 L 305.27912,89.09758 z M 297.39692,65.960492 C 308.50882,76.470732 314.70162,91.18353 322.61642,104.42513 C 319.34692,109.36025 317.59712,116.07592 316.51762,123.57698 C 309.90492,120.96108 303.57082,119.70527 297.39692,119.2316 L 297.39692,65.960492 z M 319.31982,122.45039 C 320.36872,115.8356 323.54632,109.85996 327.23182,104.10324 C 321.05912,86.2998 312.89492,74.323062 303.16612,60.971353 L 299.53972,64.672969 C 307.34732,70.795153 318.66652,90.55814 325.25382,104.90795 C 321.93922,110.30255 320.01722,116.20402 319.31982,122.45039 z M 259.84272,126.21888 C 260.28662,129.60763 260.83172,133.13967 260.00342,137.35651 C 277.49352,130.75532 296.87112,130.62419 318.64552,136.57217 C 317.82422,132.83045 318.03252,129.75901 318.48492,126.84635 C 298.32542,121.85614 278.71752,121.17415 259.84272,126.21888 z M 266.91192,125.74827 L 263.37732,130.14058 L 267.39392,134.06229 L 270.92852,129.82684 L 266.91192,125.74827 z M 278.15842,124.02272 L 274.62382,128.41503 L 278.64032,132.33674 L 282.17492,128.10129 L 278.15842,124.02272 z M 289.40482,123.0815 L 285.87022,127.47382 L 289.88682,131.39552 L 293.42142,127.16008 L 289.40482,123.0815 z M 299.52662,123.23837 L 295.99202,127.63068 L 300.00862,131.55239 L 303.54322,127.31694 L 299.52662,123.23837 z M 310.45172,125.27765 L 306.91712,129.66996 L 310.93372,133.59167 L 314.46832,129.35623 L 310.45172,125.27765 z M 268.76572,136.95932 C 263.61752,138.63801 259.24012,141.92546 254.78422,148.2124 C 258.50282,157.62072 252.76762,166.66008 248.73812,175.88392 C 250.33602,182.78051 254.17232,186.39044 259.12982,189.90415 L 262.71972,186.39909 C 252.59692,179.53991 253.81612,169.0289 263.47542,161.12577 C 262.70622,151.4021 266.21532,144.95961 268.76572,136.95932 z M 254.02842,149.8727 C 248.79292,157.26694 243.01242,164.30643 236.26812,170.71857 C 235.76282,181.45982 238.92662,193.56056 256.86252,193.77816 L 257.99622,191.9334 C 250.54412,186.64487 245.15082,180.6025 245.71512,172.37886 C 249.45912,164.77126 254.54292,157.01831 254.02842,149.8727 z M 263.28652,163.15502 C 255.73802,170.59558 254.42112,178.03614 263.47542,185.47671 L 263.28652,163.15502 z M 306.93162,135.29903 C 313.13102,136.7741 316.51752,139.27391 321.85782,145.99868 C 319.30212,150.15672 320.70112,156.78634 324.69192,166.84456 C 330.84362,176.65916 326.13972,178.68921 317.51222,186.58357 L 313.54452,182.15613 C 321.35542,176.38806 322.66212,169.41213 314.86712,160.20339 C 310.17892,154.09199 312.94092,139.60452 306.93162,135.29903 z M 313.16662,161.12577 C 312.63022,167.76694 310.21312,174.4081 313.35552,181.04926 C 322.58602,172.31412 316.35942,167.06174 313.16662,161.12577 z M 322.61362,146.92107 C 326.90742,153.31844 330.34102,158.95751 339.42922,166.29112 C 321.83952,204.56841 334.58142,184.38686 327.90392,164.63083 C 322.86562,158.91206 322.66192,152.63984 322.61362,146.92107 z M 311.94602,183.40551 L 311.94602,183.40551 z"
         style="fill:#ffffff;fill-opacity:1;fill-rule:evenodd;stroke:none;stroke-width:1px;stroke-linecap:butt;stroke-linejoin:miter;stroke-opacity:1"
         id="path7281" />
    </g>
  </g>
  <g
     inkscape:groupmode="layer"
     id="layer2"
     inkscape:label="Reflet final"
     sodipodi:insensitive="true">
    <path
       sodipodi:nodetypes="cccccc"
       d="M 300.00001,658.5 C 300.00001,658.5 598.50001,546.17969 598.50001,260.72817 C 598.50001,-24.723334 598.50001,2.1764865 598.50001,2.1764865 L 1.5,2.1764865 L 1.5,260.72817 C 1.5,546.17969 300.00001,658.5 300.00001,658.5 z "
       style="opacity:1;fill:url(#radialGradient3163);fill-opacity:1;fill-rule:evenodd;stroke:none;stroke-width:1px;stroke-linecap:butt;stroke-linejoin:miter;stroke-opacity:1"
       id="path2875"
       inkscape:export-xdpi="144"
       inkscape:export-ydpi="144" />
  </g>
  <g
     inkscape:groupmode="layer"
     id="layer1"
     inkscape:label="Contour final"
     sodipodi:insensitive="true">
    <path
       sodipodi:nodetypes="cccccc"
       d="M 299.99999,658.50028 C 299.99999,658.50028 1.5,546.17992 1.5,260.72828 C 1.5,-24.723336 1.5,2.1764957 1.5,2.1764957 L 598.49999,2.1764957 L 598.49999,260.72828 C 598.49999,546.17992 299.99999,658.50028 299.99999,658.50028 z "
       style="opacity:1;fill:none;fill-opacity:1;fill-rule:evenodd;stroke:#000000;stroke-width:3.00000048;stroke-linecap:butt;stroke-linejoin:miter;stroke-miterlimit:4;stroke-dasharray:none;stroke-opacity:1"
       id="path1411"
       inkscape:export-xdpi="144"
       inkscape:export-ydpi="144" />
  </g>
</svg>
