<?xml version="1.0" encoding="UTF-8" standalone="no"?>
<svg
   xmlns:dc="http://purl.org/dc/elements/1.1/"
   xmlns:cc="http://web.resource.org/cc/"
   xmlns:rdf="http://www.w3.org/1999/02/22-rdf-syntax-ns#"
   xmlns:svg="http://www.w3.org/2000/svg"
   xmlns="http://www.w3.org/2000/svg"
   xmlns:xlink="http://www.w3.org/1999/xlink"
   xmlns:sodipodi="http://sodipodi.sourceforge.net/DTD/sodipodi-0.dtd"
   xmlns:inkscape="http://www.inkscape.org/namespaces/inkscape"
   height="660"
   width="600"
   version="1.0"
   id="svg2"
   sodipodi:version="0.32"
   inkscape:version="0.44.1"
   sodipodi:docname="Blason_Germonville_54.svg"
   sodipodi:docbase="L:\blasons"
   inkscape:export-filename="/Users/olivier/Desktop/Blason Rouge/Blason_Vide_3D.png"
   inkscape:export-xdpi="144"
   inkscape:export-ydpi="144">
  <metadata
     id="metadata49">
    <rdf:RDF>
      <cc:Work
         rdf:about="">
        <dc:format>image/svg+xml</dc:format>
        <dc:type
           rdf:resource="http://purl.org/dc/dcmitype/StillImage" />
        <dc:title>Blason de corcieux</dc:title>
        <dc:date>26-11-2006</dc:date>
        <dc:creator>
          <cc:Agent>
            <dc:title>Antoine Fabrice (Darkbob)</dc:title>
          </cc:Agent>
        </dc:creator>
        <cc:license
           rdf:resource="http://web.resource.org/cc/PublicDomain" />
        <dc:language />
        <dc:subject>
          <rdf:Bag>
            <rdf:li>blason corcieux</rdf:li>
          </rdf:Bag>
        </dc:subject>
      </cc:Work>
      <cc:License
         rdf:about="http://web.resource.org/cc/PublicDomain">
        <cc:permits
           rdf:resource="http://web.resource.org/cc/Reproduction" />
        <cc:permits
           rdf:resource="http://web.resource.org/cc/Distribution" />
        <cc:permits
           rdf:resource="http://web.resource.org/cc/DerivativeWorks" />
      </cc:License>
    </rdf:RDF>
  </metadata>
  <sodipodi:namedview
     inkscape:window-height="712"
     inkscape:window-width="1024"
     inkscape:pageshadow="2"
     inkscape:pageopacity="0.0"
     guidetolerance="10.0"
     gridtolerance="10.0"
     objecttolerance="10.0"
     borderopacity="1.0"
     bordercolor="#666666"
     pagecolor="#ffffff"
     id="base"
     showgrid="false"
     height="660px"
     inkscape:zoom="0.546226"
     inkscape:cx="271.0653"
     inkscape:cy="292.87566"
     inkscape:window-x="-4"
     inkscape:window-y="-4"
     inkscape:current-layer="layer3"
     showguides="true"
     inkscape:guide-bbox="true" />
  <desc
     id="desc4">Flag of Canton of Valais (Wallis)</desc>
  <defs
     id="defs6">
    <linearGradient
       id="linearGradient2893">
      <stop
         style="stop-color:white;stop-opacity:0.3137255;"
         offset="0"
         id="stop2895" />
      <stop
         id="stop2897"
         offset="0.19"
         style="stop-color:white;stop-opacity:0.25098041;" />
      <stop
         style="stop-color:#6b6b6b;stop-opacity:0.1254902;"
         offset="0.60000002"
         id="stop2901" />
      <stop
         style="stop-color:black;stop-opacity:0.1254902;"
         offset="1"
         id="stop2899" />
    </linearGradient>
    <linearGradient
       id="linearGradient2885">
      <stop
         id="stop2887"
         offset="0"
         style="stop-color:white;stop-opacity:1;" />
      <stop
         style="stop-color:white;stop-opacity:1;"
         offset="0.22857143"
         id="stop2891" />
      <stop
         id="stop2889"
         offset="1"
         style="stop-color:black;stop-opacity:1;" />
    </linearGradient>
    <linearGradient
       id="linearGradient2955">
      <stop
         id="stop2867"
         offset="0"
         style="stop-color:#fd0000;stop-opacity:1;" />
      <stop
         style="stop-color:#e77275;stop-opacity:0.65882355;"
         offset="0.5"
         id="stop2873" />
      <stop
         style="stop-color:black;stop-opacity:0.32291666;"
         offset="1"
         id="stop2959" />
    </linearGradient>
    <radialGradient
       inkscape:collect="always"
       xlink:href="#linearGradient2955"
       id="radialGradient2961"
       cx="225.52438"
       cy="218.90099"
       fx="225.52438"
       fy="218.90099"
       r="300"
       gradientTransform="matrix(-4.167939e-4,2.182867,-1.884232,-3.599562e-4,615.5972,-289.1214)"
       gradientUnits="userSpaceOnUse" />
    <polygon
       id="star"
       transform="scale(53,53)"
       points="0,-1 0.58778525,0.80901699 -0.95105652,-0.30901699 0.95105652,-0.30901699 -0.58778525,0.80901699 0,-1 " />
    <clipPath
       id="clip">
      <path
         d="M 0,-200 L 0,600 L 300,600 L 300,-200 L 0,-200 z "
         id="path10" />
    </clipPath>
    <radialGradient
       inkscape:collect="always"
       xlink:href="#linearGradient2955"
       id="radialGradient1911"
       gradientUnits="userSpaceOnUse"
       gradientTransform="matrix(-4.167939e-4,2.182867,-1.884232,-3.599562e-4,615.5972,-289.1214)"
       cx="225.52438"
       cy="218.90099"
       fx="225.52438"
       fy="218.90099"
       r="300" />
    <radialGradient
       inkscape:collect="always"
       xlink:href="#linearGradient2955"
       id="radialGradient2865"
       gradientUnits="userSpaceOnUse"
       gradientTransform="matrix(0,1.748721,-1.593162,-1.049767e-7,551.7876,-191.2898)"
       cx="225.52438"
       cy="218.90099"
       fx="225.52438"
       fy="218.90099"
       r="300" />
    <radialGradient
       inkscape:collect="always"
       xlink:href="#linearGradient2955"
       id="radialGradient2871"
       gradientUnits="userSpaceOnUse"
       gradientTransform="matrix(0,1.386237,-1.323286,-5.741131e-8,-158.0823,-109.5408)"
       cx="225.52438"
       cy="218.90099"
       fx="225.52438"
       fy="218.90099"
       r="300" />
    <radialGradient
       inkscape:collect="always"
       xlink:href="#linearGradient2893"
       id="radialGradient3163"
       gradientUnits="userSpaceOnUse"
       gradientTransform="matrix(1.353218,0,0,1.348928,-77.62935,-85.74693)"
       cx="221.44487"
       cy="226.33101"
       fx="221.44487"
       fy="226.33101"
       r="300" />
    <radialGradient
       gradientTransform="matrix(1.353218,0,0,1.348928,-77.62935,-85.74693)"
       gradientUnits="userSpaceOnUse"
       xlink:href="#linearGradient2893"
       id="radialGradient9547"
       fy="226.33101"
       fx="221.44487"
       r="300"
       cy="226.33101"
       cx="221.44487" />
    <radialGradient
       gradientTransform="matrix(0,1.386237,-1.323286,-5.741131e-8,-158.0823,-109.5408)"
       gradientUnits="userSpaceOnUse"
       xlink:href="#linearGradient2955"
       id="radialGradient9545"
       fy="218.90099"
       fx="225.52438"
       r="300"
       cy="218.90099"
       cx="225.52438" />
    <radialGradient
       gradientTransform="matrix(0,1.748721,-1.593162,-1.049767e-7,551.7876,-191.2898)"
       gradientUnits="userSpaceOnUse"
       xlink:href="#linearGradient2955"
       id="radialGradient9543"
       fy="218.90099"
       fx="225.52438"
       r="300"
       cy="218.90099"
       cx="225.52438" />
    <radialGradient
       gradientTransform="matrix(-4.167939e-4,2.182867,-1.884232,-3.599562e-4,615.5972,-289.1214)"
       gradientUnits="userSpaceOnUse"
       xlink:href="#linearGradient2955"
       id="radialGradient9541"
       fy="218.90099"
       fx="225.52438"
       r="300"
       cy="218.90099"
       cx="225.52438" />
    <clipPath
       id="clipPath9537">
      <path
         id="path9539"
         d="M 0,-200 L 0,600 L 300,600 L 300,-200 L 0,-200 z " />
    </clipPath>
    <polygon
       id="polygon9535"
       transform="scale(53,53)"
       points="0,-1 0.58778525,0.80901699 -0.95105652,-0.30901699 0.95105652,-0.30901699 -0.58778525,0.80901699 0,-1 " />
    <radialGradient
       gradientTransform="matrix(-4.167939e-4,2.182867,-1.884232,-3.599562e-4,615.5972,-289.1214)"
       gradientUnits="userSpaceOnUse"
       xlink:href="#linearGradient2955"
       id="radialGradient9533"
       fy="218.90099"
       fx="225.52438"
       r="300"
       cy="218.90099"
       cx="225.52438" />
    <linearGradient
       id="linearGradient9525">
      <stop
         id="stop9527"
         offset="0"
         style="stop-color:#fd0000;stop-opacity:1" />
      <stop
         id="stop9529"
         offset="0.5"
         style="stop-color:#e77275;stop-opacity:0.65882355" />
      <stop
         id="stop9531"
         offset="1"
         style="stop-color:black;stop-opacity:0.32291666" />
    </linearGradient>
    <linearGradient
       id="linearGradient9517">
      <stop
         id="stop9519"
         offset="0"
         style="stop-color:white;stop-opacity:1" />
      <stop
         id="stop9521"
         offset="0.22857143"
         style="stop-color:white;stop-opacity:1" />
      <stop
         id="stop9523"
         offset="1"
         style="stop-color:black;stop-opacity:1" />
    </linearGradient>
    <linearGradient
       id="linearGradient9507">
      <stop
         id="stop9509"
         offset="0"
         style="stop-color:white;stop-opacity:0.3137255" />
      <stop
         id="stop9511"
         offset="0.19"
         style="stop-color:white;stop-opacity:0.25098041" />
      <stop
         id="stop9513"
         offset="0.60000002"
         style="stop-color:#6b6b6b;stop-opacity:0.1254902" />
      <stop
         id="stop9515"
         offset="1"
         style="stop-color:black;stop-opacity:0.1254902" />
    </linearGradient>
  </defs>
  <g
     inkscape:groupmode="layer"
     id="layer3"
     inkscape:label="Fond écu"
     style="display:inline">
    <path
       id="path2855"
       style="fill:black;fill-opacity:1;fill-rule:evenodd;stroke:none;stroke-width:1px;stroke-linecap:butt;stroke-linejoin:miter;stroke-opacity:1"
       d="M 300,658.5 C 300,658.5 598.50001,546.17969 598.50001,260.72817 C 598.50001,-24.723354 598.50001,2.1764765 598.50001,2.1764765 L 1.5,2.1764765 L 1.5,260.72817 C 1.5,546.17969 300,658.5 300,658.5 z "
       sodipodi:nodetypes="cccccc" />
    <g
       id="g1923"
       transform="matrix(0.553887,0,0,0.553887,-32.57781,-1.757003)">
      <path
         id="rect10331"
         style="opacity:1;fill:white;fill-opacity:1;stroke:none;stroke-width:7;stroke-miterlimit:4;stroke-dasharray:none;stroke-opacity:1"
         d="M 283.34866,75.2469 C 277.37212,74.78958 272.80414,79.88172 272.30494,85.50318 C 271.0858,92.68722 272.10154,99.99648 272.39866,107.21568 C 265.37032,111.7416 256.70524,113.418 248.39866,113.7219 C 243.8878,113.92854 237.60442,112.07616 237.57994,106.6344 C 239.34772,100.99968 237.97402,93.06054 231.57994,91.0344 C 225.70486,89.08068 221.0422,93.83694 215.75614,95.4531 C 202.72954,101.1984 192.00148,114.6522 193.66744,129.5094 C 193.74088,136.37034 192.25246,143.4081 193.32922,150.35682 C 194.16292,160.76076 199.94014,171.0999 210.03616,174.82818 C 207.02968,243.12468 204.70876,311.4594 201.63616,379.7469 C 199.49182,391.33872 188.15458,397.33344 181.10494,405.6969 C 179.30776,408.43836 177.20458,410.63256 174.48616,412.46568 C 165.96256,420.35802 166.4977,433.10784 166.39228,443.83434 C 166.62718,449.7315 165.70246,455.57628 165.20494,461.36568 C 166.13824,475.07544 158.78992,489.03204 163.94866,502.3719 C 171.5782,516.32994 186.23032,524.68476 200.75734,529.89534 C 211.76122,533.60844 222.7933,537.6732 234.30376,539.53032 C 247.7356,542.44356 261.97354,547.07604 275.64244,542.77818 C 296.13466,543.26976 316.85104,541.23438 337.14244,544.72818 C 357.7876,545.1576 377.38282,537.65196 396.92176,532.10022 C 413.14828,526.62348 428.64934,516.79794 437.88616,502.01568 C 436.14766,475.09806 433.93276,448.21458 431.69866,421.3344 C 420.57424,409.23114 409.23376,397.3182 398.43616,384.9219 C 395.77948,320.48094 393.25834,256.03452 390.67366,191.59068 C 387.54664,185.89956 388.80694,178.58772 393.46744,174.11568 C 398.58202,168.33594 406.9138,163.35732 406.40494,154.54068 C 405.13744,140.13048 409.33174,124.32768 401.73616,111.1344 C 396.42802,103.26492 387.86788,98.16048 379.40494,94.24068 C 374.65816,92.26962 367.34512,90.30006 363.93616,95.29068 C 361.85368,97.9122 364.30426,101.37834 363.59866,104.47818 C 363.68056,110.2059 358.4587,114.47562 352.96744,114.45318 C 346.55248,114.93126 340.26574,113.38236 333.99244,112.2594 C 329.554,105.14058 332.40166,96.18342 332.56744,88.3344 C 332.54104,85.5654 333.71338,81.82272 330.33616,80.5719 C 320.1742,74.63568 307.81426,76.13406 296.51176,75.97908 C 291.99832,76.47594 287.77468,75.34494 283.34866,75.2469 z " />
      <path
         sodipodi:nodetypes="cccccccccccccccsscccccccccccccccccccccccccccsccccccccccccccccccscccccccccccccccccccccccccccccccccccccccccccccccccsccccccccccccccccccccccccccccccccscccccccccccsscccccsscccsccccccccccccccccccccccccccccsscccccccccccccccccccsscccccccccccccccccccccccccccccccsscccccccccccccccccccccccccccccccccccccccccccccccssscccccccccccccccccccccccccccccccccccccsccccccccccccccccccccccccccccccccccsccccscccsccccccccccscccscscccccccccscccccccccccccccccccccccccccccccccccccccccccccccccccccccccccccccccccccccccccc"
         id="path10736"
         style="opacity:1;fill:#313131;fill-opacity:1;stroke:none;stroke-opacity:1"
         d="M 328.0201,102.44712 C 327.95968,105.02214 327.8992,107.59716 327.83878,110.17212 C 310.73044,108.462 293.46298,108.4965 276.30652,109.5645 C 276.30652,102.56958 276.30652,95.57466 276.30652,88.5798 C 275.17216,72.91836 302.62774,81.65376 312.67588,80.63532 C 330.24886,77.58702 330.42568,88.71282 328.0201,102.44712 z M 201.60652,131.30562 C 192.8905,140.78484 199.03522,109.90374 204.3988,109.33044 C 211.4215,100.00548 238.9489,85.03806 233.65588,108.21228 C 234.7336,121.85514 208.32028,118.59582 201.60652,131.30562 z M 401.72878,122.02596 C 402.07042,125.13096 402.991,133.39674 401.5309,134.57328 C 391.42144,118.5348 358.53628,123.6468 366.78952,100.03182 C 375.56614,90.61002 399.93556,109.04772 401.72878,122.02596 z M 263.58676,135.68058 C 259.69258,125.56914 257.38054,117.71808 260.33218,116.56812 C 272.7598,111.72636 287.4772,114.20568 296.73052,114.11898 C 301.86556,114.07092 302.0224,122.75784 300.58264,131.01306 C 293.23666,137.0187 274.52056,131.5011 263.58676,135.68058 z M 340.32658,118.06176 C 344.36716,122.14494 343.52212,134.4057 339.10582,137.202 C 332.39518,137.58558 313.5352,134.97822 306.85234,132.4257 C 303.34324,128.01126 304.43944,116.43258 309.0862,113.94936 C 312.57304,112.54176 336.25792,116.06448 340.32658,118.06176 z M 230.85652,141.88092 C 219.70108,149.0895 223.46254,134.64864 220.95196,128.52876 C 222.13564,119.90202 254.19346,110.82408 255.32188,122.11806 C 263.9719,141.75744 243.08284,138.2682 230.85652,141.88092 z M 379.35952,126.63144 C 376.94944,128.7471 379.98064,144.4041 376.83412,145.335 C 370.90714,144.5337 351.12316,140.72496 346.62676,137.57652 C 344.62678,132.31824 346.71958,123.12318 349.54942,118.64754 C 353.99968,116.88156 377.36776,123.00834 379.35952,126.63144 z M 199.35652,156.67218 C 190.8379,148.57524 202.519,134.46312 212.857,129.75168 C 226.08112,137.406 213.1789,152.9613 199.35652,156.67218 z M 402.45034,142.94718 C 402.59656,146.81112 404.03386,153.507 401.4295,156.45084 C 398.00248,157.79892 387.78508,152.86122 383.99194,146.97606 C 382.51714,144.27972 381.57436,132.25902 383.33206,129.8682 C 386.68816,127.33302 397.1344,137.88258 402.45034,142.94718 z M 324.69664,140.07642 C 327.98626,140.95062 322.41658,153.82938 321.0316,159.92412 C 309.90814,157.92642 298.5811,158.82684 287.34364,158.66136 C 285.54832,153.99144 283.46572,141.92136 286.1371,140.0424 C 294.69268,134.02488 315.4042,137.60718 324.69664,140.07642 z M 279.70264,159.47616 C 276.63436,161.92398 261.61228,162.21276 256.92556,161.32824 C 255.05482,157.65816 249.9625,147.85746 250.54492,144.9315 C 254.06158,138.96 274.8031,139.32132 279.87574,140.05356 C 281.72752,148.98216 281.3203,156.6624 279.70264,159.47616 z M 344.40652,162.26682 C 338.91328,162.42258 332.05774,162.29958 327.17344,159.81714 C 325.29124,154.72104 329.2768,142.90026 335.5126,141.01092 C 337.612,140.63994 350.77834,143.8947 352.84204,145.407 C 354.57772,148.87338 346.4344,156.61644 344.40652,162.26682 z M 234.45652,166.06392 C 227.27962,169.78434 223.80838,162.11898 219.4126,158.07468 C 209.24542,150.14946 244.80016,139.20324 246.25618,149.77218 C 260.09818,163.11942 246.361,164.4108 234.45652,166.06392 z M 378.49102,170.18898 C 375.5983,170.55924 353.14564,166.91292 351.53968,163.76874 C 349.49212,157.85262 358.77754,145.37568 364.80508,147.4341 C 372.37432,148.65438 382.9246,151.641 385.57198,156.95934 C 387.31744,160.46574 384.91384,165.303 378.49102,170.18898 z M 215.27674,171.81546 C 212.43046,174.62934 201.72148,164.96226 206.00704,163.1346 C 209.96308,149.44398 230.84938,172.92138 215.27674,171.81546 z M 387.17152,173.49354 C 382.54636,174.7959 384.13078,170.53152 385.89682,169.00998 C 391.75744,154.36086 400.90864,170.46036 387.17152,173.49354 z M 301.81588,189.37218 C 296.40958,190.68666 295.9369,189.55518 296.35042,184.7775 C 297.3901,176.49438 290.63548,160.78938 304.2766,164.77218 C 302.99524,172.47204 306.20038,184.82808 301.81588,189.37218 z M 252.77596,193.46748 C 246.26686,195.3822 249.65908,183.3111 249.81322,183.02886 C 246.6823,168.18012 254.8228,164.2374 269.18992,165.37488 C 278.13778,167.04408 297.08926,158.70906 290.95774,176.13966 C 297.74206,199.21128 266.01802,186.82296 252.77596,193.46748 z M 350.29858,193.49718 L 350.29858,193.49718 L 350.21704,195.9363 L 347.70658,195.5139 C 336.35536,189.03162 305.66518,199.52778 309.0001,179.97756 C 303.14146,160.6449 320.61946,165.18552 333.09964,166.68108 C 353.77708,162.64488 350.40952,178.6143 350.29858,193.49718 z M 215.04904,202.89204 C 209.39746,202.19406 215.25268,184.9134 213.78496,178.96806 C 221.27236,176.51592 249.2059,160.37172 244.84678,178.40208 C 250.9651,204.684 229.21732,197.1312 215.04904,202.89204 z M 387.20002,202.79718 C 380.76322,204.6504 365.6869,197.64168 356.06788,196.77282 C 356.29366,186.52914 347.4358,162.04026 366.90658,172.96026 C 385.95682,172.8288 389.57308,186.54408 387.20002,202.79718 z M 302.7526,222.37218 C 296.14624,222.37404 289.53964,222.39126 282.93352,222.45828 C 270.5926,227.15502 275.8771,213.82212 274.8088,206.85642 C 271.84738,185.55726 303.86752,199.33092 317.27314,196.63974 C 331.36168,194.93718 323.1271,213.3573 325.20652,222.37218 C 317.72188,222.37218 310.23724,222.37218 302.7526,222.37218 z M 231.15652,226.57398 C 225.07408,230.07696 229.22254,218.59482 228.00652,215.77788 C 223.56328,201.456 237.68092,202.40802 248.31376,200.34348 C 258.54394,199.13076 274.46068,191.2281 269.70652,207.67038 C 276.77452,232.85994 245.37388,220.70178 231.15652,226.57398 z M 372.00652,216.97218 C 370.82194,220.16652 375.27088,232.64208 367.65658,227.52762 C 353.39854,222.38724 323.39824,233.50176 330.30652,208.95522 C 325.43308,192.3387 341.45314,200.3403 351.69934,201.54348 C 362.30278,203.631 376.61686,202.50906 372.00652,216.97218 z M 218.10652,229.60596 C 208.35556,234.13836 212.02546,229.20114 211.30252,222.19854 C 210.46048,217.97844 210.4801,211.71966 212.73892,209.21568 C 216.4306,205.12344 225.40516,204.5526 222.8584,213.723 C 221.54848,219.22074 226.35478,229.25874 218.10652,229.60596 z M 388.21084,230.69718 C 387.94336,235.13316 380.36626,229.4142 377.25652,229.37202 C 377.21182,223.03044 377.16712,216.68886 377.12242,210.34734 C 384.75364,199.7877 391.918,221.70132 388.21084,230.69718 z M 296.70652,248.92218 C 296.20624,247.18218 288.4204,251.71074 289.5373,248.02602 C 291.25564,241.57794 283.75546,226.2726 294.53776,228.67218 C 299.57416,230.15274 311.12146,225.29364 310.99048,231.80562 C 312.59932,244.00044 311.03764,252.54168 296.70652,248.92218 z M 253.50652,252.37944 C 247.20736,255.3933 252.31666,243.78444 250.50652,241.67076 C 244.64578,226.21902 258.6016,228.89454 269.20762,228.32484 C 282.433,225.32718 287.21902,231.13356 284.2966,244.40604 C 285.3814,257.23698 261.90844,247.83954 253.50652,252.37944 z M 349.50652,242.87076 C 349.50652,243.98022 349.50652,245.08962 349.50652,246.19908 C 352.51906,262.27314 328.09474,248.21274 318.96088,251.29302 C 311.39476,249.8001 317.75458,235.57134 316.27366,228.5991 C 328.0252,232.58868 356.5246,221.73534 349.50652,242.87076 z M 214.65652,257.3247 C 206.5852,262.37166 209.3443,232.82766 216.89848,235.57932 C 229.39948,232.52556 253.11076,221.61156 245.40652,244.19142 C 249.4153,261.35286 224.0869,250.8963 214.65652,257.3247 z M 389.29534,255.74718 C 387.9937,263.5377 366.13276,252.29718 358.18168,254.63364 C 349.88038,253.29942 357.32452,236.28216 354.60658,231.18468 C 370.28392,233.52402 396.29524,232.55952 389.29534,255.74718 z M 238.08826,282.61266 C 216.86878,286.27224 230.13022,270.93522 226.46008,260.17218 C 244.9705,258.48774 264.86068,256.79358 283.40662,255.52512 C 290.06926,254.63982 297.10198,253.67088 297.55564,255.55434 C 298.87162,261.01848 299.79868,271.11114 299.99404,281.47218 C 293.41408,281.47218 286.83406,281.47218 280.2541,281.47218 C 272.29246,281.99352 263.79766,283.01796 266.86456,272.23398 C 271.25914,260.23062 255.27496,263.74062 249.19366,266.12694 C 246.92968,273.69174 253.4851,285.6162 238.08826,282.61266 z M 373.90726,282.59718 L 373.90726,282.59718 L 373.67128,283.52658 L 370.61458,283.36956 C 358.45564,284.49804 347.6248,284.63148 351.60652,270.28218 C 351.1894,263.34204 335.10928,263.55636 332.70658,267.78882 C 333.55912,273.09558 335.12206,280.29984 331.75054,281.89956 C 325.79056,284.72754 309.53188,284.6583 305.6752,280.38564 C 301.54444,275.80926 303.87148,263.92554 304.3297,255.47094 C 321.77302,256.49622 339.17272,258.21816 356.57692,259.77324 C 374.71096,256.36854 374.87968,267.54714 373.90726,282.59718 z M 218.07946,281.81268 C 216.15412,282.7425 211.01176,283.78062 210.2803,283.02342 C 209.09374,279.58236 208.30642,268.53966 211.67908,263.7744 C 213.45106,261.27072 216.98602,260.03352 220.00072,262.29546 C 224.64574,265.78068 222.9013,283.32486 218.07946,281.81268 z M 390.19264,265.41036 C 392.88562,271.1298 390.66262,275.75394 390.2839,281.48568 C 387.28192,284.65626 381.19582,285.4401 378.44896,282.9783 C 375.00658,279.89304 375.69502,268.8726 377.76598,264.5652 C 380.9194,259.06602 387.3151,261.0963 390.19264,265.41036 z M 310.96438,311.99718 L 310.98064,312.80064 C 314.88856,325.5654 300.55078,318.64656 293.27482,319.27218 C 283.14802,319.26582 292.51816,300.08778 289.42906,293.25108 C 287.04394,284.03682 298.44076,288.97218 303.86158,287.77218 C 316.85734,284.98302 307.9324,304.61934 310.96438,311.99718 z M 261.2539,319.83318 C 254.69266,318.72342 246.79654,322.60524 238.6516,319.1517 C 235.6768,315.14826 238.04632,295.8801 237.23752,287.6952 C 236.9638,286.73052 250.99282,284.92566 248.40652,291.1941 C 249.33238,298.17408 244.24414,312.73854 256.94308,308.68956 C 271.58422,312.7152 266.8384,298.05036 267.2926,289.85988 C 267.1189,283.00386 279.2503,288.18444 284.4373,286.57218 C 284.2027,297.53478 283.97086,308.49744 283.74094,319.4601 C 276.24526,319.58448 268.74958,319.7088 261.2539,319.83318 z M 362.2165,313.34718 C 362.04418,316.05576 362.29534,318.83058 361.76386,321.5064 C 347.66854,321.16902 331.6606,322.1781 318.2425,320.37888 C 315.09838,317.96724 315.55042,311.94348 315.96274,305.95908 C 316.5952,300.18918 313.74922,291.01584 317.23948,288.04488 C 319.16668,286.83504 329.21104,286.76154 331.288,288.2472 C 333.49948,290.32344 333.05212,295.0005 332.52868,299.75202 C 326.48986,311.68032 352.49284,314.50656 351.60652,304.45188 C 353.11594,299.5647 348.3781,287.97108 354.35266,287.87724 C 369.84844,284.12286 359.63338,304.77234 362.2165,313.34718 z M 229.84642,319.80444 C 224.36272,323.14686 212.59768,323.38206 209.30554,320.14278 C 204.34966,315.26652 207.99952,297.22398 210.31702,290.70204 C 212.26828,285.21078 221.2171,286.13238 230.01628,287.23674 C 232.78468,292.00596 236.9485,315.47562 229.84642,319.80444 z M 391.68244,316.49718 C 396.05782,329.298 374.806,319.82976 368.96308,321.7323 C 368.97064,315.657 361.63342,288.83772 372.38158,288.53982 C 393.04258,283.65438 392.64478,300.71856 391.68244,316.49718 z M 259.56418,356.39166 C 254.47504,357.06876 249.31198,356.61834 244.19614,356.77218 C 238.99894,355.24758 226.54852,360.79722 228.97324,351.8388 C 231.51064,341.53542 222.5092,319.75152 241.32772,325.3836 C 264.8254,317.4159 258.0127,340.96542 259.56418,356.39166 z M 223.92088,348.44718 L 223.90066,349.40082 L 223.87744,350.49672 C 226.72894,360.32778 216.04066,356.32896 209.995,357.07218 C 204.20356,355.35642 205.33426,329.03886 210.86866,326.77116 C 229.00126,320.45706 224.55256,335.93892 223.92088,348.44718 z M 296.1337,326.23134 C 298.0678,329.13066 300.06718,355.06554 296.53624,356.23026 C 288.2467,357.89772 268.9111,359.56524 265.07362,355.23024 C 261.03712,350.67042 260.89936,329.31972 263.6794,325.9095 C 268.11292,320.47098 289.48996,323.11188 296.1337,326.23134 z M 370.98508,350.84718 C 371.04442,353.22216 371.10382,355.5972 371.16316,357.97218 C 361.86418,357.9504 352.56436,358.03026 343.2661,357.89688 C 341.24134,352.95678 337.15438,332.8815 343.82872,326.9001 C 346.89196,324.80874 364.33036,324.46242 367.7941,326.96388 C 372.65914,331.20372 371.30782,341.61666 370.98508,350.84718 z M 393.31348,357.29718 L 393.30652,358.27218 L 392.46394,358.27218 C 387.25066,356.64084 374.995,362.20278 376.1851,354.03084 C 378.91948,345.60978 368.46922,323.95092 383.2873,327.95394 C 400.00996,323.81382 389.85766,347.8563 393.31348,357.29718 z M 334.51672,357.08382 C 329.716,359.1579 311.0599,359.77866 305.63752,357.87402 C 298.8724,353.09718 305.03062,336.21798 304.00138,326.77218 C 313.56106,326.29716 329.48884,322.69242 335.28154,328.47432 C 339.76096,334.51116 338.11558,351.24468 334.51672,357.08382 z M 285.12574,377.24718 C 285.064,379.32222 285.00226,381.3972 284.94052,383.47218 C 270.21256,383.47224 255.48454,383.4723 240.75652,383.47242 C 240.81142,376.27236 240.86632,369.0723 240.92122,361.87218 C 252.18424,361.89204 263.4475,361.83768 274.70908,361.6458 C 287.20984,358.00308 287.05054,366.70854 285.12574,377.24718 z M 235.87426,372.6942 C 235.88212,373.72932 235.89004,374.76444 235.89796,375.79956 C 239.12872,385.85934 229.7266,383.38224 222.91132,383.4723 C 216.8278,381.77478 202.22026,388.14852 205.85662,377.2962 C 201.45448,360.8433 213.53386,361.18794 225.92716,362.02962 C 235.0609,359.6538 237.44776,364.15548 235.87426,372.6942 z M 309.44578,364.81596 C 311.27782,370.35108 311.00566,377.52924 309.63784,383.38986 C 309.1246,385.5891 294.9661,384.63048 292.23988,383.02944 C 288.19768,380.6556 289.24486,371.56062 290.90092,363.61176 C 296.4241,358.63944 307.49746,358.92936 309.44578,364.81596 z M 394.36558,382.49718 L 394.44814,383.57922 L 394.5316,384.67218 C 386.56558,384.67224 378.5995,384.67224 370.63348,384.67236 C 360.74134,387.7209 364.87822,376.84692 364.16254,370.78866 C 361.06252,360.87684 369.89614,363.12966 376.64668,363.25914 C 392.09698,359.81166 396.72064,367.56516 394.36558,382.49718 z M 359.17432,373.9209 C 359.20174,377.50476 359.22916,381.08856 359.25652,384.67242 C 349.09108,384.63906 338.92324,384.77322 328.75996,384.50886 C 311.99878,389.05032 314.1886,374.77506 314.51626,362.86248 C 326.08654,362.79174 337.657,362.9895 349.2271,363.07644 C 358.34398,360.90036 360.7582,365.41506 359.17432,373.9209 z M 261.60652,403.12218 C 261.59914,407.25426 261.6289,411.387 261.52906,415.51842 C 245.6968,420.16944 222.50332,415.74366 203.8495,416.87478 C 198.35938,414.8226 175.20166,420.19758 180.72442,413.23572 C 189.55948,406.09194 195.31558,392.04354 205.8076,388.58724 C 223.60294,384.24132 201.79372,417.46272 214.5616,419.67582 C 217.41004,410.77254 216.87784,397.8657 218.22826,388.57218 C 230.86072,388.57218 243.49324,388.57218 256.12576,388.57218 C 265.5103,385.86456 260.2858,397.76598 261.60652,403.12218 z M 417.66604,417.70848 C 412.01656,417.8835 406.36306,417.90906 400.71124,417.93606 C 386.6131,422.3787 388.53922,409.12026 387.91948,398.71062 C 380.63656,387.5544 397.28134,386.78418 400.82092,393.9519 C 402.86146,400.35414 428.15008,416.5581 417.66604,417.70848 z M 297.15688,403.79718 C 297.2299,408.52218 297.30292,413.24718 297.37588,417.97218 C 287.15296,417.85272 276.92974,417.75672 266.70652,417.66342 C 266.70652,408.69714 266.70652,399.7308 266.70652,390.76452 C 274.55524,387.24714 304.85158,384.3933 297.15688,403.79718 z M 364.01404,418.386 C 355.48,418.53066 346.93498,418.43184 338.40652,418.80582 C 338.40652,409.12794 338.40652,399.45006 338.40652,389.77218 C 352.86472,389.77218 367.32292,389.77218 381.78106,389.77218 C 382.74964,399.24696 383.53144,408.74412 384.67156,418.19928 C 377.78572,418.2615 370.89988,418.32378 364.01404,418.386 z M 333.30652,404.32218 C 333.30652,405.51834 333.30652,406.7145 333.30652,407.9106 C 337.03942,420.90624 326.85736,420.21732 316.44946,418.26798 C 297.30994,424.00188 303.14242,404.82708 302.09686,392.66484 C 303.57418,384.80136 320.23336,391.95042 327.82576,389.77218 C 337.2103,387.06456 331.9858,398.96598 333.30652,404.32218 z M 172.08772,422.22198 C 179.70598,421.80042 184.06726,422.19444 184.68784,424.54284 C 186.28474,430.58598 187.47166,442.15494 183.5701,442.69596 C 177.16822,443.58372 173.3947,442.63302 171.65842,440.43756 C 168.48706,436.42752 170.48872,428.65788 172.08772,422.22198 z M 429.48754,443.98782 C 412.3882,449.48334 416.50612,435.43374 414.49816,423.08016 C 430.77994,417.24564 429.34324,432.02544 429.48754,443.98782 z M 225.60844,444.14718 C 219.31174,441.8799 183.28288,449.481 188.97322,437.24718 C 184.64338,416.98062 203.27962,422.01246 216.3037,422.10396 C 232.504,417.5115 225.96832,433.57386 225.60844,444.14718 z M 243.34126,444.79068 C 224.72548,454.3659 226.52824,413.31744 244.52224,422.4687 C 254.19106,426.01866 275.51104,414.93468 274.74364,430.87218 C 264.03658,436.16196 257.3743,447.8355 243.34126,444.79068 z M 388.09072,445.28874 L 388.09072,445.28874 L 385.49788,445.35894 L 383.0629,445.43064 C 370.99714,452.93106 369.05788,423.56436 376.08844,423.4179 C 387.52876,425.79732 410.34442,415.21158 410.15434,431.75436 C 418.96726,449.82684 398.95894,444.22374 388.09072,445.28874 z M 366.55288,445.98384 C 363.2836,445.90656 359.8777,446.9454 356.66644,446.00394 C 342.69808,448.88976 335.92432,437.47848 325.2694,432.07218 C 324.68968,416.25666 345.7027,427.14612 355.4908,423.6687 C 370.60804,415.53336 372.11296,441.88986 366.55288,445.98384 z M 313.0663,452.69718 C 308.27524,454.91598 300.8788,451.31904 295.12354,452.49228 C 283.4458,456.16422 284.8369,441.45822 281.38474,434.14806 C 271.33048,416.8659 299.60716,427.2924 308.94472,424.20534 C 331.89034,417.62928 314.71186,441.28428 313.0663,452.69718 z M 276.03046,460.69332 C 273.91354,456.69414 254.66662,447.86508 266.67058,442.59942 C 276.27214,423.83928 289.11652,456.81366 276.03046,460.69332 z M 328.47046,458.39718 C 311.58514,470.8782 320.65192,443.4537 323.98216,436.51482 C 335.60206,442.47186 342.64852,450.67086 328.47046,458.39718 z M 196.10302,471.7236 C 187.70284,469.7643 178.9045,465.89706 171.58192,461.66958 C 167.683,457.16604 170.0707,448.73892 175.86808,446.89806 C 178.63264,446.02026 194.0023,447.64764 196.4368,449.24454 C 200.02186,453.36558 195.8881,463.7508 196.10302,471.7236 z M 406.5457,472.4568 C 402.63034,474.37512 404.76622,465.86622 403.4443,464.27418 C 393.04216,443.59476 417.40048,450.8583 429.86458,449.33022 C 437.24122,466.11888 417.4357,466.5285 406.5457,472.4568 z M 237.60988,471.14718 C 237.50476,473.95668 237.82534,477.26502 237.42748,479.76888 C 226.71592,476.26578 193.2385,481.8027 201.68188,464.74788 C 198.10144,444.6408 214.64182,448.99398 228.83662,449.82522 C 247.6891,445.19778 235.52944,460.81272 237.60988,471.14718 z M 372.00652,480.20238 C 368.80564,480.47682 365.6044,480.7497 362.40652,481.05894 C 362.5066,471.09906 363.03412,461.13816 359.18956,451.68918 C 371.01628,454.62534 397.6981,441.40248 397.29346,458.78064 C 408.81148,479.21874 385.5034,478.63866 372.00652,480.20238 z M 263.86072,481.34718 C 262.79248,484.44444 255.65056,480.6246 253.20652,481.85454 C 237.4222,485.94252 242.6476,465.90378 244.8586,456.60702 C 244.03078,447.07746 256.42336,446.02452 260.27014,453.34464 C 275.74978,461.71452 268.46206,469.13412 263.86072,481.34718 z M 355.39918,482.67816 C 353.18614,484.17834 340.34074,484.44174 337.34734,483.33492 C 334.1371,480.98688 335.99158,474.02814 330.40048,468.84204 C 326.61166,462.1107 340.47124,455.68188 344.56456,449.9592 C 356.10352,446.3451 355.45684,459.86844 357.30652,467.38152 C 357.42682,473.14986 358.45084,479.8569 355.39918,482.67816 z M 180.71524,473.5182 C 181.22218,475.4511 179.9518,487.17222 178.9543,488.96076 L 168.03556,482.62578 C 165.91204,481.39368 165.90244,470.55108 167.7589,468.68124 C 170.97334,465.61668 178.92982,468.43098 180.71524,473.5182 z M 430.87612,484.0137 C 429.54538,487.15086 424.4038,487.53258 421.92478,489.69174 C 420.51334,487.37724 415.91542,478.48764 418.56454,475.29168 C 421.89142,471.27822 424.82542,469.42644 430.55218,467.89452 C 432.13324,472.53264 432.78844,479.5056 430.87612,484.0137 z M 211.21576,484.17906 C 214.25812,487.46622 209.32696,494.68752 209.53468,499.93818 C 202.7041,500.08974 195.03946,496.24038 183.72046,490.60758 C 181.43164,489.4686 185.40556,480.44082 186.81082,474.93654 C 189.35764,477.16326 203.8096,476.17686 211.21576,484.17906 z M 392.84614,501.38622 C 389.9611,503.04264 386.7643,486.53466 388.33438,485.15094 C 395.8243,478.54986 409.28728,478.0698 414.39274,477.52542 C 422.89846,495.3618 406.75852,496.6338 392.84614,501.38622 z M 245.8192,505.49718 C 245.59732,506.09838 246.15118,507.57798 244.95172,507.07218 C 236.13142,506.63472 216.02164,507.7779 215.0545,499.77636 C 214.42714,492.45378 215.20048,486.88794 218.50966,484.34448 C 223.03408,481.8417 238.4605,484.10598 243.58126,486.37536 C 248.40514,489.6138 248.45134,496.5417 245.8192,505.49718 z M 385.0402,503.63988 C 379.27006,508.34358 361.21876,509.64798 354.26068,507.32826 C 352.9789,505.49652 349.28512,490.45752 352.27282,489.39528 C 361.57006,486.08988 379.2817,485.28816 383.61544,485.64786 C 385.95856,493.08912 387.4231,500.27886 385.0402,503.63988 z M 252.2779,487.85946 C 254.17396,485.9982 261.21436,487.58442 263.96728,489.92064 C 267.28426,492.73548 265.00504,503.31432 264.11206,506.96904 C 262.03132,509.17176 256.57906,508.24428 252.33706,507.6486 C 249.23278,507.21276 251.29408,492.28644 252.2779,487.85946 z M 347.36356,508.98312 L 347.36356,508.98312 L 340.83352,509.31042 C 331.93132,511.2447 337.2436,492.48954 337.68856,488.74098 C 351.49054,481.48026 349.30354,504.86748 347.36356,508.98312 z M 193.62316,518.62218 C 191.44774,525.70644 165.52708,506.32254 165.42724,497.95626 C 164.86258,494.64102 166.10482,489.50094 168.56752,487.72326 C 177.89974,494.32992 191.9581,495.88392 195.34534,503.33316 C 196.93198,506.82246 195.86266,511.6218 193.62316,518.62218 z M 409.05652,522.55008 C 403.7602,526.18812 406.5502,506.52066 404.4304,504.02832 C 412.94284,503.97516 430.83094,485.13258 433.23814,491.56614 C 437.39164,506.59212 419.2561,515.47422 409.05652,522.55008 z M 228.02176,513.86436 C 229.17034,516.67314 229.26298,531.46044 226.80106,533.31162 C 223.3477,533.51538 201.20368,527.88882 199.12666,523.44984 C 195.30322,515.03934 200.37538,498.9285 209.44612,506.64078 C 216.89278,508.47546 225.32956,508.84908 228.02176,513.86436 z M 375.56314,534.48732 C 368.20102,536.38494 373.46992,520.21134 372.00652,514.6917 C 375.67348,510.8124 397.30084,503.36808 399.66388,508.60326 C 409.87246,528.68508 389.87524,529.55886 375.56314,534.48732 z M 316.61182,531.14718 C 317.94604,539.5563 314.15956,537.5658 307.80652,537.67218 C 307.82914,515.39094 307.63318,493.1103 307.48966,470.82966 C 305.28664,460.86954 309.169,453.8946 318.2437,464.24652 C 318.32674,486.54666 317.1397,508.84878 316.61182,531.14718 z M 303.80602,508.82256 C 303.85486,515.88144 303.90364,522.94038 303.95242,529.99926 C 306.99142,539.21532 299.54536,538.01748 292.95652,537.67098 C 292.89382,514.65984 292.83112,491.6487 292.76836,468.63762 C 290.44684,459.43104 295.1011,457.18128 303.60652,458.77218 C 303.58372,475.4559 303.69658,492.13932 303.80602,508.82256 z M 289.09282,498.52242 C 289.17826,511.20708 289.2637,523.89174 289.34914,536.57646 C 276.37978,544.03986 281.44144,522.79914 280.66594,514.22166 C 283.45126,497.0853 274.17178,474.32928 284.6605,460.8882 C 294.54322,461.41878 286.11274,488.48916 289.09282,498.52242 z M 276.72862,513.74718 C 276.78466,520.62606 276.8407,527.50494 276.89674,534.38382 C 270.45268,546.50784 265.46896,526.14558 268.9153,518.13156 C 270.24832,501.4884 263.62048,481.5294 276.15652,467.92218 C 276.44512,483.19584 276.6025,498.47148 276.72862,513.74718 z M 330.90904,536.24718 C 331.22584,539.59494 329.8654,539.28324 326.56606,538.32678 C 315.0379,539.79732 322.6933,517.13778 320.18296,503.20422 C 322.6258,494.57742 316.72948,453.50448 329.41654,476.93622 C 333.73072,496.33386 330.05878,516.5223 330.90904,536.24718 z M 263.10652,538.67574 L 263.10652,538.6758 L 261.00652,539.82306 C 250.65862,539.51376 237.127,540.19398 232.72546,532.95042 C 231.13516,528.9768 231.63832,516.3306 234.49012,512.8482 C 239.1208,509.31576 252.57862,515.0109 258.42274,513.22026 C 267.9511,513.42672 262.97044,531.12486 263.10652,538.67574 z M 366.90652,515.05674 C 367.76038,529.9914 368.08666,540.48258 349.65658,539.95134 L 346.60024,540.43206 C 332.41342,545.50752 336.44224,530.05584 336.2368,521.9055 C 334.0297,509.74746 360.6886,512.57088 366.90652,515.05674 z M 336.3196,545.89998 C 353.22004,546.63798 370.97998,541.11936 387.16588,536.2389 C 407.72266,531.16182 427.68034,520.764 439.111,502.33068 C 437.38882,475.1493 435.1453,447.98214 432.86668,420.83748 C 422.13568,409.10694 410.36818,396.80754 399.62146,384.4593 C 396.9787,320.08152 394.4491,255.69894 391.8742,191.31828 C 383.57926,173.80872 407.48488,170.90556 407.68084,155.29974 C 406.04692,137.7282 412.47856,115.83756 396.2548,103.31676 C 388.53268,96.59298 366.48106,82.92852 361.69702,97.23198 C 366.10768,117.20868 349.9102,114.18396 334.72738,111.16788 C 330.46612,104.83992 334.70182,90.97218 333.74704,81.91296 C 325.2367,72.52224 303.53506,75.12444 289.93726,74.7855 C 267.00262,69.74286 270.40408,91.13556 271.16866,106.611 C 266.48728,110.4309 238.7284,117.88266 238.7752,106.37562 C 242.3557,93.53754 231.61864,84.17232 219.60652,92.68734 C 203.43388,97.95774 189.79996,113.48508 192.68704,131.28336 C 190.35766,148.1106 191.34226,167.91534 208.79998,175.57218 C 205.93018,242.96916 203.404,310.3821 200.62942,377.78364 C 200.00878,391.05546 183.88948,397.97892 177.37408,408.81954 C 159.82972,419.63916 167.77432,442.67574 163.88722,459.96102 C 165.57406,475.6128 154.83112,495.19902 166.13374,507.98688 C 180.38728,527.11158 204.31804,532.33716 225.75652,539.1906 C 242.09584,541.44912 259.35748,549.1902 275.61466,543.97218 C 295.85224,544.54326 316.42936,542.35062 336.3196,545.89998 z " />
    </g>
    <g
       transform="matrix(0.553887,0,0,0.553887,302.4484,-1.757003)"
       id="g1927">
      <path
         d="M 283.34866,75.2469 C 277.37212,74.78958 272.80414,79.88172 272.30494,85.50318 C 271.0858,92.68722 272.10154,99.99648 272.39866,107.21568 C 265.37032,111.7416 256.70524,113.418 248.39866,113.7219 C 243.8878,113.92854 237.60442,112.07616 237.57994,106.6344 C 239.34772,100.99968 237.97402,93.06054 231.57994,91.0344 C 225.70486,89.08068 221.0422,93.83694 215.75614,95.4531 C 202.72954,101.1984 192.00148,114.6522 193.66744,129.5094 C 193.74088,136.37034 192.25246,143.4081 193.32922,150.35682 C 194.16292,160.76076 199.94014,171.0999 210.03616,174.82818 C 207.02968,243.12468 204.70876,311.4594 201.63616,379.7469 C 199.49182,391.33872 188.15458,397.33344 181.10494,405.6969 C 179.30776,408.43836 177.20458,410.63256 174.48616,412.46568 C 165.96256,420.35802 166.4977,433.10784 166.39228,443.83434 C 166.62718,449.7315 165.70246,455.57628 165.20494,461.36568 C 166.13824,475.07544 158.78992,489.03204 163.94866,502.3719 C 171.5782,516.32994 186.23032,524.68476 200.75734,529.89534 C 211.76122,533.60844 222.7933,537.6732 234.30376,539.53032 C 247.7356,542.44356 261.97354,547.07604 275.64244,542.77818 C 296.13466,543.26976 316.85104,541.23438 337.14244,544.72818 C 357.7876,545.1576 377.38282,537.65196 396.92176,532.10022 C 413.14828,526.62348 428.64934,516.79794 437.88616,502.01568 C 436.14766,475.09806 433.93276,448.21458 431.69866,421.3344 C 420.57424,409.23114 409.23376,397.3182 398.43616,384.9219 C 395.77948,320.48094 393.25834,256.03452 390.67366,191.59068 C 387.54664,185.89956 388.80694,178.58772 393.46744,174.11568 C 398.58202,168.33594 406.9138,163.35732 406.40494,154.54068 C 405.13744,140.13048 409.33174,124.32768 401.73616,111.1344 C 396.42802,103.26492 387.86788,98.16048 379.40494,94.24068 C 374.65816,92.26962 367.34512,90.30006 363.93616,95.29068 C 361.85368,97.9122 364.30426,101.37834 363.59866,104.47818 C 363.68056,110.2059 358.4587,114.47562 352.96744,114.45318 C 346.55248,114.93126 340.26574,113.38236 333.99244,112.2594 C 329.554,105.14058 332.40166,96.18342 332.56744,88.3344 C 332.54104,85.5654 333.71338,81.82272 330.33616,80.5719 C 320.1742,74.63568 307.81426,76.13406 296.51176,75.97908 C 291.99832,76.47594 287.77468,75.34494 283.34866,75.2469 z "
         style="opacity:1;fill:white;fill-opacity:1;stroke:none;stroke-width:7;stroke-miterlimit:4;stroke-dasharray:none;stroke-opacity:1"
         id="path1929" />
      <path
         d="M 328.0201,102.44712 C 327.95968,105.02214 327.8992,107.59716 327.83878,110.17212 C 310.73044,108.462 293.46298,108.4965 276.30652,109.5645 C 276.30652,102.56958 276.30652,95.57466 276.30652,88.5798 C 275.17216,72.91836 302.62774,81.65376 312.67588,80.63532 C 330.24886,77.58702 330.42568,88.71282 328.0201,102.44712 z M 201.60652,131.30562 C 192.8905,140.78484 199.03522,109.90374 204.3988,109.33044 C 211.4215,100.00548 238.9489,85.03806 233.65588,108.21228 C 234.7336,121.85514 208.32028,118.59582 201.60652,131.30562 z M 401.72878,122.02596 C 402.07042,125.13096 402.991,133.39674 401.5309,134.57328 C 391.42144,118.5348 358.53628,123.6468 366.78952,100.03182 C 375.56614,90.61002 399.93556,109.04772 401.72878,122.02596 z M 263.58676,135.68058 C 259.69258,125.56914 257.38054,117.71808 260.33218,116.56812 C 272.7598,111.72636 287.4772,114.20568 296.73052,114.11898 C 301.86556,114.07092 302.0224,122.75784 300.58264,131.01306 C 293.23666,137.0187 274.52056,131.5011 263.58676,135.68058 z M 340.32658,118.06176 C 344.36716,122.14494 343.52212,134.4057 339.10582,137.202 C 332.39518,137.58558 313.5352,134.97822 306.85234,132.4257 C 303.34324,128.01126 304.43944,116.43258 309.0862,113.94936 C 312.57304,112.54176 336.25792,116.06448 340.32658,118.06176 z M 230.85652,141.88092 C 219.70108,149.0895 223.46254,134.64864 220.95196,128.52876 C 222.13564,119.90202 254.19346,110.82408 255.32188,122.11806 C 263.9719,141.75744 243.08284,138.2682 230.85652,141.88092 z M 379.35952,126.63144 C 376.94944,128.7471 379.98064,144.4041 376.83412,145.335 C 370.90714,144.5337 351.12316,140.72496 346.62676,137.57652 C 344.62678,132.31824 346.71958,123.12318 349.54942,118.64754 C 353.99968,116.88156 377.36776,123.00834 379.35952,126.63144 z M 199.35652,156.67218 C 190.8379,148.57524 202.519,134.46312 212.857,129.75168 C 226.08112,137.406 213.1789,152.9613 199.35652,156.67218 z M 402.45034,142.94718 C 402.59656,146.81112 404.03386,153.507 401.4295,156.45084 C 398.00248,157.79892 387.78508,152.86122 383.99194,146.97606 C 382.51714,144.27972 381.57436,132.25902 383.33206,129.8682 C 386.68816,127.33302 397.1344,137.88258 402.45034,142.94718 z M 324.69664,140.07642 C 327.98626,140.95062 322.41658,153.82938 321.0316,159.92412 C 309.90814,157.92642 298.5811,158.82684 287.34364,158.66136 C 285.54832,153.99144 283.46572,141.92136 286.1371,140.0424 C 294.69268,134.02488 315.4042,137.60718 324.69664,140.07642 z M 279.70264,159.47616 C 276.63436,161.92398 261.61228,162.21276 256.92556,161.32824 C 255.05482,157.65816 249.9625,147.85746 250.54492,144.9315 C 254.06158,138.96 274.8031,139.32132 279.87574,140.05356 C 281.72752,148.98216 281.3203,156.6624 279.70264,159.47616 z M 344.40652,162.26682 C 338.91328,162.42258 332.05774,162.29958 327.17344,159.81714 C 325.29124,154.72104 329.2768,142.90026 335.5126,141.01092 C 337.612,140.63994 350.77834,143.8947 352.84204,145.407 C 354.57772,148.87338 346.4344,156.61644 344.40652,162.26682 z M 234.45652,166.06392 C 227.27962,169.78434 223.80838,162.11898 219.4126,158.07468 C 209.24542,150.14946 244.80016,139.20324 246.25618,149.77218 C 260.09818,163.11942 246.361,164.4108 234.45652,166.06392 z M 378.49102,170.18898 C 375.5983,170.55924 353.14564,166.91292 351.53968,163.76874 C 349.49212,157.85262 358.77754,145.37568 364.80508,147.4341 C 372.37432,148.65438 382.9246,151.641 385.57198,156.95934 C 387.31744,160.46574 384.91384,165.303 378.49102,170.18898 z M 215.27674,171.81546 C 212.43046,174.62934 201.72148,164.96226 206.00704,163.1346 C 209.96308,149.44398 230.84938,172.92138 215.27674,171.81546 z M 387.17152,173.49354 C 382.54636,174.7959 384.13078,170.53152 385.89682,169.00998 C 391.75744,154.36086 400.90864,170.46036 387.17152,173.49354 z M 301.81588,189.37218 C 296.40958,190.68666 295.9369,189.55518 296.35042,184.7775 C 297.3901,176.49438 290.63548,160.78938 304.2766,164.77218 C 302.99524,172.47204 306.20038,184.82808 301.81588,189.37218 z M 252.77596,193.46748 C 246.26686,195.3822 249.65908,183.3111 249.81322,183.02886 C 246.6823,168.18012 254.8228,164.2374 269.18992,165.37488 C 278.13778,167.04408 297.08926,158.70906 290.95774,176.13966 C 297.74206,199.21128 266.01802,186.82296 252.77596,193.46748 z M 350.29858,193.49718 L 350.29858,193.49718 L 350.21704,195.9363 L 347.70658,195.5139 C 336.35536,189.03162 305.66518,199.52778 309.0001,179.97756 C 303.14146,160.6449 320.61946,165.18552 333.09964,166.68108 C 353.77708,162.64488 350.40952,178.6143 350.29858,193.49718 z M 215.04904,202.89204 C 209.39746,202.19406 215.25268,184.9134 213.78496,178.96806 C 221.27236,176.51592 249.2059,160.37172 244.84678,178.40208 C 250.9651,204.684 229.21732,197.1312 215.04904,202.89204 z M 387.20002,202.79718 C 380.76322,204.6504 365.6869,197.64168 356.06788,196.77282 C 356.29366,186.52914 347.4358,162.04026 366.90658,172.96026 C 385.95682,172.8288 389.57308,186.54408 387.20002,202.79718 z M 302.7526,222.37218 C 296.14624,222.37404 289.53964,222.39126 282.93352,222.45828 C 270.5926,227.15502 275.8771,213.82212 274.8088,206.85642 C 271.84738,185.55726 303.86752,199.33092 317.27314,196.63974 C 331.36168,194.93718 323.1271,213.3573 325.20652,222.37218 C 317.72188,222.37218 310.23724,222.37218 302.7526,222.37218 z M 231.15652,226.57398 C 225.07408,230.07696 229.22254,218.59482 228.00652,215.77788 C 223.56328,201.456 237.68092,202.40802 248.31376,200.34348 C 258.54394,199.13076 274.46068,191.2281 269.70652,207.67038 C 276.77452,232.85994 245.37388,220.70178 231.15652,226.57398 z M 372.00652,216.97218 C 370.82194,220.16652 375.27088,232.64208 367.65658,227.52762 C 353.39854,222.38724 323.39824,233.50176 330.30652,208.95522 C 325.43308,192.3387 341.45314,200.3403 351.69934,201.54348 C 362.30278,203.631 376.61686,202.50906 372.00652,216.97218 z M 218.10652,229.60596 C 208.35556,234.13836 212.02546,229.20114 211.30252,222.19854 C 210.46048,217.97844 210.4801,211.71966 212.73892,209.21568 C 216.4306,205.12344 225.40516,204.5526 222.8584,213.723 C 221.54848,219.22074 226.35478,229.25874 218.10652,229.60596 z M 388.21084,230.69718 C 387.94336,235.13316 380.36626,229.4142 377.25652,229.37202 C 377.21182,223.03044 377.16712,216.68886 377.12242,210.34734 C 384.75364,199.7877 391.918,221.70132 388.21084,230.69718 z M 296.70652,248.92218 C 296.20624,247.18218 288.4204,251.71074 289.5373,248.02602 C 291.25564,241.57794 283.75546,226.2726 294.53776,228.67218 C 299.57416,230.15274 311.12146,225.29364 310.99048,231.80562 C 312.59932,244.00044 311.03764,252.54168 296.70652,248.92218 z M 253.50652,252.37944 C 247.20736,255.3933 252.31666,243.78444 250.50652,241.67076 C 244.64578,226.21902 258.6016,228.89454 269.20762,228.32484 C 282.433,225.32718 287.21902,231.13356 284.2966,244.40604 C 285.3814,257.23698 261.90844,247.83954 253.50652,252.37944 z M 349.50652,242.87076 C 349.50652,243.98022 349.50652,245.08962 349.50652,246.19908 C 352.51906,262.27314 328.09474,248.21274 318.96088,251.29302 C 311.39476,249.8001 317.75458,235.57134 316.27366,228.5991 C 328.0252,232.58868 356.5246,221.73534 349.50652,242.87076 z M 214.65652,257.3247 C 206.5852,262.37166 209.3443,232.82766 216.89848,235.57932 C 229.39948,232.52556 253.11076,221.61156 245.40652,244.19142 C 249.4153,261.35286 224.0869,250.8963 214.65652,257.3247 z M 389.29534,255.74718 C 387.9937,263.5377 366.13276,252.29718 358.18168,254.63364 C 349.88038,253.29942 357.32452,236.28216 354.60658,231.18468 C 370.28392,233.52402 396.29524,232.55952 389.29534,255.74718 z M 238.08826,282.61266 C 216.86878,286.27224 230.13022,270.93522 226.46008,260.17218 C 244.9705,258.48774 264.86068,256.79358 283.40662,255.52512 C 290.06926,254.63982 297.10198,253.67088 297.55564,255.55434 C 298.87162,261.01848 299.79868,271.11114 299.99404,281.47218 C 293.41408,281.47218 286.83406,281.47218 280.2541,281.47218 C 272.29246,281.99352 263.79766,283.01796 266.86456,272.23398 C 271.25914,260.23062 255.27496,263.74062 249.19366,266.12694 C 246.92968,273.69174 253.4851,285.6162 238.08826,282.61266 z M 373.90726,282.59718 L 373.90726,282.59718 L 373.67128,283.52658 L 370.61458,283.36956 C 358.45564,284.49804 347.6248,284.63148 351.60652,270.28218 C 351.1894,263.34204 335.10928,263.55636 332.70658,267.78882 C 333.55912,273.09558 335.12206,280.29984 331.75054,281.89956 C 325.79056,284.72754 309.53188,284.6583 305.6752,280.38564 C 301.54444,275.80926 303.87148,263.92554 304.3297,255.47094 C 321.77302,256.49622 339.17272,258.21816 356.57692,259.77324 C 374.71096,256.36854 374.87968,267.54714 373.90726,282.59718 z M 218.07946,281.81268 C 216.15412,282.7425 211.01176,283.78062 210.2803,283.02342 C 209.09374,279.58236 208.30642,268.53966 211.67908,263.7744 C 213.45106,261.27072 216.98602,260.03352 220.00072,262.29546 C 224.64574,265.78068 222.9013,283.32486 218.07946,281.81268 z M 390.19264,265.41036 C 392.88562,271.1298 390.66262,275.75394 390.2839,281.48568 C 387.28192,284.65626 381.19582,285.4401 378.44896,282.9783 C 375.00658,279.89304 375.69502,268.8726 377.76598,264.5652 C 380.9194,259.06602 387.3151,261.0963 390.19264,265.41036 z M 310.96438,311.99718 L 310.98064,312.80064 C 314.88856,325.5654 300.55078,318.64656 293.27482,319.27218 C 283.14802,319.26582 292.51816,300.08778 289.42906,293.25108 C 287.04394,284.03682 298.44076,288.97218 303.86158,287.77218 C 316.85734,284.98302 307.9324,304.61934 310.96438,311.99718 z M 261.2539,319.83318 C 254.69266,318.72342 246.79654,322.60524 238.6516,319.1517 C 235.6768,315.14826 238.04632,295.8801 237.23752,287.6952 C 236.9638,286.73052 250.99282,284.92566 248.40652,291.1941 C 249.33238,298.17408 244.24414,312.73854 256.94308,308.68956 C 271.58422,312.7152 266.8384,298.05036 267.2926,289.85988 C 267.1189,283.00386 279.2503,288.18444 284.4373,286.57218 C 284.2027,297.53478 283.97086,308.49744 283.74094,319.4601 C 276.24526,319.58448 268.74958,319.7088 261.2539,319.83318 z M 362.2165,313.34718 C 362.04418,316.05576 362.29534,318.83058 361.76386,321.5064 C 347.66854,321.16902 331.6606,322.1781 318.2425,320.37888 C 315.09838,317.96724 315.55042,311.94348 315.96274,305.95908 C 316.5952,300.18918 313.74922,291.01584 317.23948,288.04488 C 319.16668,286.83504 329.21104,286.76154 331.288,288.2472 C 333.49948,290.32344 333.05212,295.0005 332.52868,299.75202 C 326.48986,311.68032 352.49284,314.50656 351.60652,304.45188 C 353.11594,299.5647 348.3781,287.97108 354.35266,287.87724 C 369.84844,284.12286 359.63338,304.77234 362.2165,313.34718 z M 229.84642,319.80444 C 224.36272,323.14686 212.59768,323.38206 209.30554,320.14278 C 204.34966,315.26652 207.99952,297.22398 210.31702,290.70204 C 212.26828,285.21078 221.2171,286.13238 230.01628,287.23674 C 232.78468,292.00596 236.9485,315.47562 229.84642,319.80444 z M 391.68244,316.49718 C 396.05782,329.298 374.806,319.82976 368.96308,321.7323 C 368.97064,315.657 361.63342,288.83772 372.38158,288.53982 C 393.04258,283.65438 392.64478,300.71856 391.68244,316.49718 z M 259.56418,356.39166 C 254.47504,357.06876 249.31198,356.61834 244.19614,356.77218 C 238.99894,355.24758 226.54852,360.79722 228.97324,351.8388 C 231.51064,341.53542 222.5092,319.75152 241.32772,325.3836 C 264.8254,317.4159 258.0127,340.96542 259.56418,356.39166 z M 223.92088,348.44718 L 223.90066,349.40082 L 223.87744,350.49672 C 226.72894,360.32778 216.04066,356.32896 209.995,357.07218 C 204.20356,355.35642 205.33426,329.03886 210.86866,326.77116 C 229.00126,320.45706 224.55256,335.93892 223.92088,348.44718 z M 296.1337,326.23134 C 298.0678,329.13066 300.06718,355.06554 296.53624,356.23026 C 288.2467,357.89772 268.9111,359.56524 265.07362,355.23024 C 261.03712,350.67042 260.89936,329.31972 263.6794,325.9095 C 268.11292,320.47098 289.48996,323.11188 296.1337,326.23134 z M 370.98508,350.84718 C 371.04442,353.22216 371.10382,355.5972 371.16316,357.97218 C 361.86418,357.9504 352.56436,358.03026 343.2661,357.89688 C 341.24134,352.95678 337.15438,332.8815 343.82872,326.9001 C 346.89196,324.80874 364.33036,324.46242 367.7941,326.96388 C 372.65914,331.20372 371.30782,341.61666 370.98508,350.84718 z M 393.31348,357.29718 L 393.30652,358.27218 L 392.46394,358.27218 C 387.25066,356.64084 374.995,362.20278 376.1851,354.03084 C 378.91948,345.60978 368.46922,323.95092 383.2873,327.95394 C 400.00996,323.81382 389.85766,347.8563 393.31348,357.29718 z M 334.51672,357.08382 C 329.716,359.1579 311.0599,359.77866 305.63752,357.87402 C 298.8724,353.09718 305.03062,336.21798 304.00138,326.77218 C 313.56106,326.29716 329.48884,322.69242 335.28154,328.47432 C 339.76096,334.51116 338.11558,351.24468 334.51672,357.08382 z M 285.12574,377.24718 C 285.064,379.32222 285.00226,381.3972 284.94052,383.47218 C 270.21256,383.47224 255.48454,383.4723 240.75652,383.47242 C 240.81142,376.27236 240.86632,369.0723 240.92122,361.87218 C 252.18424,361.89204 263.4475,361.83768 274.70908,361.6458 C 287.20984,358.00308 287.05054,366.70854 285.12574,377.24718 z M 235.87426,372.6942 C 235.88212,373.72932 235.89004,374.76444 235.89796,375.79956 C 239.12872,385.85934 229.7266,383.38224 222.91132,383.4723 C 216.8278,381.77478 202.22026,388.14852 205.85662,377.2962 C 201.45448,360.8433 213.53386,361.18794 225.92716,362.02962 C 235.0609,359.6538 237.44776,364.15548 235.87426,372.6942 z M 309.44578,364.81596 C 311.27782,370.35108 311.00566,377.52924 309.63784,383.38986 C 309.1246,385.5891 294.9661,384.63048 292.23988,383.02944 C 288.19768,380.6556 289.24486,371.56062 290.90092,363.61176 C 296.4241,358.63944 307.49746,358.92936 309.44578,364.81596 z M 394.36558,382.49718 L 394.44814,383.57922 L 394.5316,384.67218 C 386.56558,384.67224 378.5995,384.67224 370.63348,384.67236 C 360.74134,387.7209 364.87822,376.84692 364.16254,370.78866 C 361.06252,360.87684 369.89614,363.12966 376.64668,363.25914 C 392.09698,359.81166 396.72064,367.56516 394.36558,382.49718 z M 359.17432,373.9209 C 359.20174,377.50476 359.22916,381.08856 359.25652,384.67242 C 349.09108,384.63906 338.92324,384.77322 328.75996,384.50886 C 311.99878,389.05032 314.1886,374.77506 314.51626,362.86248 C 326.08654,362.79174 337.657,362.9895 349.2271,363.07644 C 358.34398,360.90036 360.7582,365.41506 359.17432,373.9209 z M 261.60652,403.12218 C 261.59914,407.25426 261.6289,411.387 261.52906,415.51842 C 245.6968,420.16944 222.50332,415.74366 203.8495,416.87478 C 198.35938,414.8226 175.20166,420.19758 180.72442,413.23572 C 189.55948,406.09194 195.31558,392.04354 205.8076,388.58724 C 223.60294,384.24132 201.79372,417.46272 214.5616,419.67582 C 217.41004,410.77254 216.87784,397.8657 218.22826,388.57218 C 230.86072,388.57218 243.49324,388.57218 256.12576,388.57218 C 265.5103,385.86456 260.2858,397.76598 261.60652,403.12218 z M 417.66604,417.70848 C 412.01656,417.8835 406.36306,417.90906 400.71124,417.93606 C 386.6131,422.3787 388.53922,409.12026 387.91948,398.71062 C 380.63656,387.5544 397.28134,386.78418 400.82092,393.9519 C 402.86146,400.35414 428.15008,416.5581 417.66604,417.70848 z M 297.15688,403.79718 C 297.2299,408.52218 297.30292,413.24718 297.37588,417.97218 C 287.15296,417.85272 276.92974,417.75672 266.70652,417.66342 C 266.70652,408.69714 266.70652,399.7308 266.70652,390.76452 C 274.55524,387.24714 304.85158,384.3933 297.15688,403.79718 z M 364.01404,418.386 C 355.48,418.53066 346.93498,418.43184 338.40652,418.80582 C 338.40652,409.12794 338.40652,399.45006 338.40652,389.77218 C 352.86472,389.77218 367.32292,389.77218 381.78106,389.77218 C 382.74964,399.24696 383.53144,408.74412 384.67156,418.19928 C 377.78572,418.2615 370.89988,418.32378 364.01404,418.386 z M 333.30652,404.32218 C 333.30652,405.51834 333.30652,406.7145 333.30652,407.9106 C 337.03942,420.90624 326.85736,420.21732 316.44946,418.26798 C 297.30994,424.00188 303.14242,404.82708 302.09686,392.66484 C 303.57418,384.80136 320.23336,391.95042 327.82576,389.77218 C 337.2103,387.06456 331.9858,398.96598 333.30652,404.32218 z M 172.08772,422.22198 C 179.70598,421.80042 184.06726,422.19444 184.68784,424.54284 C 186.28474,430.58598 187.47166,442.15494 183.5701,442.69596 C 177.16822,443.58372 173.3947,442.63302 171.65842,440.43756 C 168.48706,436.42752 170.48872,428.65788 172.08772,422.22198 z M 429.48754,443.98782 C 412.3882,449.48334 416.50612,435.43374 414.49816,423.08016 C 430.77994,417.24564 429.34324,432.02544 429.48754,443.98782 z M 225.60844,444.14718 C 219.31174,441.8799 183.28288,449.481 188.97322,437.24718 C 184.64338,416.98062 203.27962,422.01246 216.3037,422.10396 C 232.504,417.5115 225.96832,433.57386 225.60844,444.14718 z M 243.34126,444.79068 C 224.72548,454.3659 226.52824,413.31744 244.52224,422.4687 C 254.19106,426.01866 275.51104,414.93468 274.74364,430.87218 C 264.03658,436.16196 257.3743,447.8355 243.34126,444.79068 z M 388.09072,445.28874 L 388.09072,445.28874 L 385.49788,445.35894 L 383.0629,445.43064 C 370.99714,452.93106 369.05788,423.56436 376.08844,423.4179 C 387.52876,425.79732 410.34442,415.21158 410.15434,431.75436 C 418.96726,449.82684 398.95894,444.22374 388.09072,445.28874 z M 366.55288,445.98384 C 363.2836,445.90656 359.8777,446.9454 356.66644,446.00394 C 342.69808,448.88976 335.92432,437.47848 325.2694,432.07218 C 324.68968,416.25666 345.7027,427.14612 355.4908,423.6687 C 370.60804,415.53336 372.11296,441.88986 366.55288,445.98384 z M 313.0663,452.69718 C 308.27524,454.91598 300.8788,451.31904 295.12354,452.49228 C 283.4458,456.16422 284.8369,441.45822 281.38474,434.14806 C 271.33048,416.8659 299.60716,427.2924 308.94472,424.20534 C 331.89034,417.62928 314.71186,441.28428 313.0663,452.69718 z M 276.03046,460.69332 C 273.91354,456.69414 254.66662,447.86508 266.67058,442.59942 C 276.27214,423.83928 289.11652,456.81366 276.03046,460.69332 z M 328.47046,458.39718 C 311.58514,470.8782 320.65192,443.4537 323.98216,436.51482 C 335.60206,442.47186 342.64852,450.67086 328.47046,458.39718 z M 196.10302,471.7236 C 187.70284,469.7643 178.9045,465.89706 171.58192,461.66958 C 167.683,457.16604 170.0707,448.73892 175.86808,446.89806 C 178.63264,446.02026 194.0023,447.64764 196.4368,449.24454 C 200.02186,453.36558 195.8881,463.7508 196.10302,471.7236 z M 406.5457,472.4568 C 402.63034,474.37512 404.76622,465.86622 403.4443,464.27418 C 393.04216,443.59476 417.40048,450.8583 429.86458,449.33022 C 437.24122,466.11888 417.4357,466.5285 406.5457,472.4568 z M 237.60988,471.14718 C 237.50476,473.95668 237.82534,477.26502 237.42748,479.76888 C 226.71592,476.26578 193.2385,481.8027 201.68188,464.74788 C 198.10144,444.6408 214.64182,448.99398 228.83662,449.82522 C 247.6891,445.19778 235.52944,460.81272 237.60988,471.14718 z M 372.00652,480.20238 C 368.80564,480.47682 365.6044,480.7497 362.40652,481.05894 C 362.5066,471.09906 363.03412,461.13816 359.18956,451.68918 C 371.01628,454.62534 397.6981,441.40248 397.29346,458.78064 C 408.81148,479.21874 385.5034,478.63866 372.00652,480.20238 z M 263.86072,481.34718 C 262.79248,484.44444 255.65056,480.6246 253.20652,481.85454 C 237.4222,485.94252 242.6476,465.90378 244.8586,456.60702 C 244.03078,447.07746 256.42336,446.02452 260.27014,453.34464 C 275.74978,461.71452 268.46206,469.13412 263.86072,481.34718 z M 355.39918,482.67816 C 353.18614,484.17834 340.34074,484.44174 337.34734,483.33492 C 334.1371,480.98688 335.99158,474.02814 330.40048,468.84204 C 326.61166,462.1107 340.47124,455.68188 344.56456,449.9592 C 356.10352,446.3451 355.45684,459.86844 357.30652,467.38152 C 357.42682,473.14986 358.45084,479.8569 355.39918,482.67816 z M 180.71524,473.5182 C 181.22218,475.4511 179.9518,487.17222 178.9543,488.96076 L 168.03556,482.62578 C 165.91204,481.39368 165.90244,470.55108 167.7589,468.68124 C 170.97334,465.61668 178.92982,468.43098 180.71524,473.5182 z M 430.87612,484.0137 C 429.54538,487.15086 424.4038,487.53258 421.92478,489.69174 C 420.51334,487.37724 415.91542,478.48764 418.56454,475.29168 C 421.89142,471.27822 424.82542,469.42644 430.55218,467.89452 C 432.13324,472.53264 432.78844,479.5056 430.87612,484.0137 z M 211.21576,484.17906 C 214.25812,487.46622 209.32696,494.68752 209.53468,499.93818 C 202.7041,500.08974 195.03946,496.24038 183.72046,490.60758 C 181.43164,489.4686 185.40556,480.44082 186.81082,474.93654 C 189.35764,477.16326 203.8096,476.17686 211.21576,484.17906 z M 392.84614,501.38622 C 389.9611,503.04264 386.7643,486.53466 388.33438,485.15094 C 395.8243,478.54986 409.28728,478.0698 414.39274,477.52542 C 422.89846,495.3618 406.75852,496.6338 392.84614,501.38622 z M 245.8192,505.49718 C 245.59732,506.09838 246.15118,507.57798 244.95172,507.07218 C 236.13142,506.63472 216.02164,507.7779 215.0545,499.77636 C 214.42714,492.45378 215.20048,486.88794 218.50966,484.34448 C 223.03408,481.8417 238.4605,484.10598 243.58126,486.37536 C 248.40514,489.6138 248.45134,496.5417 245.8192,505.49718 z M 385.0402,503.63988 C 379.27006,508.34358 361.21876,509.64798 354.26068,507.32826 C 352.9789,505.49652 349.28512,490.45752 352.27282,489.39528 C 361.57006,486.08988 379.2817,485.28816 383.61544,485.64786 C 385.95856,493.08912 387.4231,500.27886 385.0402,503.63988 z M 252.2779,487.85946 C 254.17396,485.9982 261.21436,487.58442 263.96728,489.92064 C 267.28426,492.73548 265.00504,503.31432 264.11206,506.96904 C 262.03132,509.17176 256.57906,508.24428 252.33706,507.6486 C 249.23278,507.21276 251.29408,492.28644 252.2779,487.85946 z M 347.36356,508.98312 L 347.36356,508.98312 L 340.83352,509.31042 C 331.93132,511.2447 337.2436,492.48954 337.68856,488.74098 C 351.49054,481.48026 349.30354,504.86748 347.36356,508.98312 z M 193.62316,518.62218 C 191.44774,525.70644 165.52708,506.32254 165.42724,497.95626 C 164.86258,494.64102 166.10482,489.50094 168.56752,487.72326 C 177.89974,494.32992 191.9581,495.88392 195.34534,503.33316 C 196.93198,506.82246 195.86266,511.6218 193.62316,518.62218 z M 409.05652,522.55008 C 403.7602,526.18812 406.5502,506.52066 404.4304,504.02832 C 412.94284,503.97516 430.83094,485.13258 433.23814,491.56614 C 437.39164,506.59212 419.2561,515.47422 409.05652,522.55008 z M 228.02176,513.86436 C 229.17034,516.67314 229.26298,531.46044 226.80106,533.31162 C 223.3477,533.51538 201.20368,527.88882 199.12666,523.44984 C 195.30322,515.03934 200.37538,498.9285 209.44612,506.64078 C 216.89278,508.47546 225.32956,508.84908 228.02176,513.86436 z M 375.56314,534.48732 C 368.20102,536.38494 373.46992,520.21134 372.00652,514.6917 C 375.67348,510.8124 397.30084,503.36808 399.66388,508.60326 C 409.87246,528.68508 389.87524,529.55886 375.56314,534.48732 z M 316.61182,531.14718 C 317.94604,539.5563 314.15956,537.5658 307.80652,537.67218 C 307.82914,515.39094 307.63318,493.1103 307.48966,470.82966 C 305.28664,460.86954 309.169,453.8946 318.2437,464.24652 C 318.32674,486.54666 317.1397,508.84878 316.61182,531.14718 z M 303.80602,508.82256 C 303.85486,515.88144 303.90364,522.94038 303.95242,529.99926 C 306.99142,539.21532 299.54536,538.01748 292.95652,537.67098 C 292.89382,514.65984 292.83112,491.6487 292.76836,468.63762 C 290.44684,459.43104 295.1011,457.18128 303.60652,458.77218 C 303.58372,475.4559 303.69658,492.13932 303.80602,508.82256 z M 289.09282,498.52242 C 289.17826,511.20708 289.2637,523.89174 289.34914,536.57646 C 276.37978,544.03986 281.44144,522.79914 280.66594,514.22166 C 283.45126,497.0853 274.17178,474.32928 284.6605,460.8882 C 294.54322,461.41878 286.11274,488.48916 289.09282,498.52242 z M 276.72862,513.74718 C 276.78466,520.62606 276.8407,527.50494 276.89674,534.38382 C 270.45268,546.50784 265.46896,526.14558 268.9153,518.13156 C 270.24832,501.4884 263.62048,481.5294 276.15652,467.92218 C 276.44512,483.19584 276.6025,498.47148 276.72862,513.74718 z M 330.90904,536.24718 C 331.22584,539.59494 329.8654,539.28324 326.56606,538.32678 C 315.0379,539.79732 322.6933,517.13778 320.18296,503.20422 C 322.6258,494.57742 316.72948,453.50448 329.41654,476.93622 C 333.73072,496.33386 330.05878,516.5223 330.90904,536.24718 z M 263.10652,538.67574 L 263.10652,538.6758 L 261.00652,539.82306 C 250.65862,539.51376 237.127,540.19398 232.72546,532.95042 C 231.13516,528.9768 231.63832,516.3306 234.49012,512.8482 C 239.1208,509.31576 252.57862,515.0109 258.42274,513.22026 C 267.9511,513.42672 262.97044,531.12486 263.10652,538.67574 z M 366.90652,515.05674 C 367.76038,529.9914 368.08666,540.48258 349.65658,539.95134 L 346.60024,540.43206 C 332.41342,545.50752 336.44224,530.05584 336.2368,521.9055 C 334.0297,509.74746 360.6886,512.57088 366.90652,515.05674 z M 336.3196,545.89998 C 353.22004,546.63798 370.97998,541.11936 387.16588,536.2389 C 407.72266,531.16182 427.68034,520.764 439.111,502.33068 C 437.38882,475.1493 435.1453,447.98214 432.86668,420.83748 C 422.13568,409.10694 410.36818,396.80754 399.62146,384.4593 C 396.9787,320.08152 394.4491,255.69894 391.8742,191.31828 C 383.57926,173.80872 407.48488,170.90556 407.68084,155.29974 C 406.04692,137.7282 412.47856,115.83756 396.2548,103.31676 C 388.53268,96.59298 366.48106,82.92852 361.69702,97.23198 C 366.10768,117.20868 349.9102,114.18396 334.72738,111.16788 C 330.46612,104.83992 334.70182,90.97218 333.74704,81.91296 C 325.2367,72.52224 303.53506,75.12444 289.93726,74.7855 C 267.00262,69.74286 270.40408,91.13556 271.16866,106.611 C 266.48728,110.4309 238.7284,117.88266 238.7752,106.37562 C 242.3557,93.53754 231.61864,84.17232 219.60652,92.68734 C 203.43388,97.95774 189.79996,113.48508 192.68704,131.28336 C 190.35766,148.1106 191.34226,167.91534 208.79998,175.57218 C 205.93018,242.96916 203.404,310.3821 200.62942,377.78364 C 200.00878,391.05546 183.88948,397.97892 177.37408,408.81954 C 159.82972,419.63916 167.77432,442.67574 163.88722,459.96102 C 165.57406,475.6128 154.83112,495.19902 166.13374,507.98688 C 180.38728,527.11158 204.31804,532.33716 225.75652,539.1906 C 242.09584,541.44912 259.35748,549.1902 275.61466,543.97218 C 295.85224,544.54326 316.42936,542.35062 336.3196,545.89998 z "
         style="opacity:1;fill:#313131;fill-opacity:1;stroke:none;stroke-opacity:1"
         id="path1931"
         sodipodi:nodetypes="cccccccccccccccsscccccccccccccccccccccccccccsccccccccccccccccccscccccccccccccccccccccccccccccccccccccccccccccccccsccccccccccccccccccccccccccccccccscccccccccccsscccccsscccsccccccccccccccccccccccccccccsscccccccccccccccccccsscccccccccccccccccccccccccccccccsscccccccccccccccccccccccccccccccccccccccccccccccssscccccccccccccccccccccccccccccccccccccsccccccccccccccccccccccccccccccccccsccccscccsccccccccccscccscscccccccccscccccccccccccccccccccccccccccccccccccccccccccccccccccccccccccccccccccccccccc" />
    </g>
    <g
       id="g1933"
       transform="matrix(0.553887,0,0,0.553887,134.9353,305.808)">
      <path
         id="path1935"
         style="opacity:1;fill:white;fill-opacity:1;stroke:none;stroke-width:7;stroke-miterlimit:4;stroke-dasharray:none;stroke-opacity:1"
         d="M 283.34866,75.2469 C 277.37212,74.78958 272.80414,79.88172 272.30494,85.50318 C 271.0858,92.68722 272.10154,99.99648 272.39866,107.21568 C 265.37032,111.7416 256.70524,113.418 248.39866,113.7219 C 243.8878,113.92854 237.60442,112.07616 237.57994,106.6344 C 239.34772,100.99968 237.97402,93.06054 231.57994,91.0344 C 225.70486,89.08068 221.0422,93.83694 215.75614,95.4531 C 202.72954,101.1984 192.00148,114.6522 193.66744,129.5094 C 193.74088,136.37034 192.25246,143.4081 193.32922,150.35682 C 194.16292,160.76076 199.94014,171.0999 210.03616,174.82818 C 207.02968,243.12468 204.70876,311.4594 201.63616,379.7469 C 199.49182,391.33872 188.15458,397.33344 181.10494,405.6969 C 179.30776,408.43836 177.20458,410.63256 174.48616,412.46568 C 165.96256,420.35802 166.4977,433.10784 166.39228,443.83434 C 166.62718,449.7315 165.70246,455.57628 165.20494,461.36568 C 166.13824,475.07544 158.78992,489.03204 163.94866,502.3719 C 171.5782,516.32994 186.23032,524.68476 200.75734,529.89534 C 211.76122,533.60844 222.7933,537.6732 234.30376,539.53032 C 247.7356,542.44356 261.97354,547.07604 275.64244,542.77818 C 296.13466,543.26976 316.85104,541.23438 337.14244,544.72818 C 357.7876,545.1576 377.38282,537.65196 396.92176,532.10022 C 413.14828,526.62348 428.64934,516.79794 437.88616,502.01568 C 436.14766,475.09806 433.93276,448.21458 431.69866,421.3344 C 420.57424,409.23114 409.23376,397.3182 398.43616,384.9219 C 395.77948,320.48094 393.25834,256.03452 390.67366,191.59068 C 387.54664,185.89956 388.80694,178.58772 393.46744,174.11568 C 398.58202,168.33594 406.9138,163.35732 406.40494,154.54068 C 405.13744,140.13048 409.33174,124.32768 401.73616,111.1344 C 396.42802,103.26492 387.86788,98.16048 379.40494,94.24068 C 374.65816,92.26962 367.34512,90.30006 363.93616,95.29068 C 361.85368,97.9122 364.30426,101.37834 363.59866,104.47818 C 363.68056,110.2059 358.4587,114.47562 352.96744,114.45318 C 346.55248,114.93126 340.26574,113.38236 333.99244,112.2594 C 329.554,105.14058 332.40166,96.18342 332.56744,88.3344 C 332.54104,85.5654 333.71338,81.82272 330.33616,80.5719 C 320.1742,74.63568 307.81426,76.13406 296.51176,75.97908 C 291.99832,76.47594 287.77468,75.34494 283.34866,75.2469 z " />
      <path
         sodipodi:nodetypes="cccccccccccccccsscccccccccccccccccccccccccccsccccccccccccccccccscccccccccccccccccccccccccccccccccccccccccccccccccsccccccccccccccccccccccccccccccccscccccccccccsscccccsscccsccccccccccccccccccccccccccccsscccccccccccccccccccsscccccccccccccccccccccccccccccccsscccccccccccccccccccccccccccccccccccccccccccccccssscccccccccccccccccccccccccccccccccccccsccccccccccccccccccccccccccccccccccsccccscccsccccccccccscccscscccccccccscccccccccccccccccccccccccccccccccccccccccccccccccccccccccccccccccccccccccccc"
         id="path1937"
         style="opacity:1;fill:#313131;fill-opacity:1;stroke:none;stroke-opacity:1"
         d="M 328.0201,102.44712 C 327.95968,105.02214 327.8992,107.59716 327.83878,110.17212 C 310.73044,108.462 293.46298,108.4965 276.30652,109.5645 C 276.30652,102.56958 276.30652,95.57466 276.30652,88.5798 C 275.17216,72.91836 302.62774,81.65376 312.67588,80.63532 C 330.24886,77.58702 330.42568,88.71282 328.0201,102.44712 z M 201.60652,131.30562 C 192.8905,140.78484 199.03522,109.90374 204.3988,109.33044 C 211.4215,100.00548 238.9489,85.03806 233.65588,108.21228 C 234.7336,121.85514 208.32028,118.59582 201.60652,131.30562 z M 401.72878,122.02596 C 402.07042,125.13096 402.991,133.39674 401.5309,134.57328 C 391.42144,118.5348 358.53628,123.6468 366.78952,100.03182 C 375.56614,90.61002 399.93556,109.04772 401.72878,122.02596 z M 263.58676,135.68058 C 259.69258,125.56914 257.38054,117.71808 260.33218,116.56812 C 272.7598,111.72636 287.4772,114.20568 296.73052,114.11898 C 301.86556,114.07092 302.0224,122.75784 300.58264,131.01306 C 293.23666,137.0187 274.52056,131.5011 263.58676,135.68058 z M 340.32658,118.06176 C 344.36716,122.14494 343.52212,134.4057 339.10582,137.202 C 332.39518,137.58558 313.5352,134.97822 306.85234,132.4257 C 303.34324,128.01126 304.43944,116.43258 309.0862,113.94936 C 312.57304,112.54176 336.25792,116.06448 340.32658,118.06176 z M 230.85652,141.88092 C 219.70108,149.0895 223.46254,134.64864 220.95196,128.52876 C 222.13564,119.90202 254.19346,110.82408 255.32188,122.11806 C 263.9719,141.75744 243.08284,138.2682 230.85652,141.88092 z M 379.35952,126.63144 C 376.94944,128.7471 379.98064,144.4041 376.83412,145.335 C 370.90714,144.5337 351.12316,140.72496 346.62676,137.57652 C 344.62678,132.31824 346.71958,123.12318 349.54942,118.64754 C 353.99968,116.88156 377.36776,123.00834 379.35952,126.63144 z M 199.35652,156.67218 C 190.8379,148.57524 202.519,134.46312 212.857,129.75168 C 226.08112,137.406 213.1789,152.9613 199.35652,156.67218 z M 402.45034,142.94718 C 402.59656,146.81112 404.03386,153.507 401.4295,156.45084 C 398.00248,157.79892 387.78508,152.86122 383.99194,146.97606 C 382.51714,144.27972 381.57436,132.25902 383.33206,129.8682 C 386.68816,127.33302 397.1344,137.88258 402.45034,142.94718 z M 324.69664,140.07642 C 327.98626,140.95062 322.41658,153.82938 321.0316,159.92412 C 309.90814,157.92642 298.5811,158.82684 287.34364,158.66136 C 285.54832,153.99144 283.46572,141.92136 286.1371,140.0424 C 294.69268,134.02488 315.4042,137.60718 324.69664,140.07642 z M 279.70264,159.47616 C 276.63436,161.92398 261.61228,162.21276 256.92556,161.32824 C 255.05482,157.65816 249.9625,147.85746 250.54492,144.9315 C 254.06158,138.96 274.8031,139.32132 279.87574,140.05356 C 281.72752,148.98216 281.3203,156.6624 279.70264,159.47616 z M 344.40652,162.26682 C 338.91328,162.42258 332.05774,162.29958 327.17344,159.81714 C 325.29124,154.72104 329.2768,142.90026 335.5126,141.01092 C 337.612,140.63994 350.77834,143.8947 352.84204,145.407 C 354.57772,148.87338 346.4344,156.61644 344.40652,162.26682 z M 234.45652,166.06392 C 227.27962,169.78434 223.80838,162.11898 219.4126,158.07468 C 209.24542,150.14946 244.80016,139.20324 246.25618,149.77218 C 260.09818,163.11942 246.361,164.4108 234.45652,166.06392 z M 378.49102,170.18898 C 375.5983,170.55924 353.14564,166.91292 351.53968,163.76874 C 349.49212,157.85262 358.77754,145.37568 364.80508,147.4341 C 372.37432,148.65438 382.9246,151.641 385.57198,156.95934 C 387.31744,160.46574 384.91384,165.303 378.49102,170.18898 z M 215.27674,171.81546 C 212.43046,174.62934 201.72148,164.96226 206.00704,163.1346 C 209.96308,149.44398 230.84938,172.92138 215.27674,171.81546 z M 387.17152,173.49354 C 382.54636,174.7959 384.13078,170.53152 385.89682,169.00998 C 391.75744,154.36086 400.90864,170.46036 387.17152,173.49354 z M 301.81588,189.37218 C 296.40958,190.68666 295.9369,189.55518 296.35042,184.7775 C 297.3901,176.49438 290.63548,160.78938 304.2766,164.77218 C 302.99524,172.47204 306.20038,184.82808 301.81588,189.37218 z M 252.77596,193.46748 C 246.26686,195.3822 249.65908,183.3111 249.81322,183.02886 C 246.6823,168.18012 254.8228,164.2374 269.18992,165.37488 C 278.13778,167.04408 297.08926,158.70906 290.95774,176.13966 C 297.74206,199.21128 266.01802,186.82296 252.77596,193.46748 z M 350.29858,193.49718 L 350.29858,193.49718 L 350.21704,195.9363 L 347.70658,195.5139 C 336.35536,189.03162 305.66518,199.52778 309.0001,179.97756 C 303.14146,160.6449 320.61946,165.18552 333.09964,166.68108 C 353.77708,162.64488 350.40952,178.6143 350.29858,193.49718 z M 215.04904,202.89204 C 209.39746,202.19406 215.25268,184.9134 213.78496,178.96806 C 221.27236,176.51592 249.2059,160.37172 244.84678,178.40208 C 250.9651,204.684 229.21732,197.1312 215.04904,202.89204 z M 387.20002,202.79718 C 380.76322,204.6504 365.6869,197.64168 356.06788,196.77282 C 356.29366,186.52914 347.4358,162.04026 366.90658,172.96026 C 385.95682,172.8288 389.57308,186.54408 387.20002,202.79718 z M 302.7526,222.37218 C 296.14624,222.37404 289.53964,222.39126 282.93352,222.45828 C 270.5926,227.15502 275.8771,213.82212 274.8088,206.85642 C 271.84738,185.55726 303.86752,199.33092 317.27314,196.63974 C 331.36168,194.93718 323.1271,213.3573 325.20652,222.37218 C 317.72188,222.37218 310.23724,222.37218 302.7526,222.37218 z M 231.15652,226.57398 C 225.07408,230.07696 229.22254,218.59482 228.00652,215.77788 C 223.56328,201.456 237.68092,202.40802 248.31376,200.34348 C 258.54394,199.13076 274.46068,191.2281 269.70652,207.67038 C 276.77452,232.85994 245.37388,220.70178 231.15652,226.57398 z M 372.00652,216.97218 C 370.82194,220.16652 375.27088,232.64208 367.65658,227.52762 C 353.39854,222.38724 323.39824,233.50176 330.30652,208.95522 C 325.43308,192.3387 341.45314,200.3403 351.69934,201.54348 C 362.30278,203.631 376.61686,202.50906 372.00652,216.97218 z M 218.10652,229.60596 C 208.35556,234.13836 212.02546,229.20114 211.30252,222.19854 C 210.46048,217.97844 210.4801,211.71966 212.73892,209.21568 C 216.4306,205.12344 225.40516,204.5526 222.8584,213.723 C 221.54848,219.22074 226.35478,229.25874 218.10652,229.60596 z M 388.21084,230.69718 C 387.94336,235.13316 380.36626,229.4142 377.25652,229.37202 C 377.21182,223.03044 377.16712,216.68886 377.12242,210.34734 C 384.75364,199.7877 391.918,221.70132 388.21084,230.69718 z M 296.70652,248.92218 C 296.20624,247.18218 288.4204,251.71074 289.5373,248.02602 C 291.25564,241.57794 283.75546,226.2726 294.53776,228.67218 C 299.57416,230.15274 311.12146,225.29364 310.99048,231.80562 C 312.59932,244.00044 311.03764,252.54168 296.70652,248.92218 z M 253.50652,252.37944 C 247.20736,255.3933 252.31666,243.78444 250.50652,241.67076 C 244.64578,226.21902 258.6016,228.89454 269.20762,228.32484 C 282.433,225.32718 287.21902,231.13356 284.2966,244.40604 C 285.3814,257.23698 261.90844,247.83954 253.50652,252.37944 z M 349.50652,242.87076 C 349.50652,243.98022 349.50652,245.08962 349.50652,246.19908 C 352.51906,262.27314 328.09474,248.21274 318.96088,251.29302 C 311.39476,249.8001 317.75458,235.57134 316.27366,228.5991 C 328.0252,232.58868 356.5246,221.73534 349.50652,242.87076 z M 214.65652,257.3247 C 206.5852,262.37166 209.3443,232.82766 216.89848,235.57932 C 229.39948,232.52556 253.11076,221.61156 245.40652,244.19142 C 249.4153,261.35286 224.0869,250.8963 214.65652,257.3247 z M 389.29534,255.74718 C 387.9937,263.5377 366.13276,252.29718 358.18168,254.63364 C 349.88038,253.29942 357.32452,236.28216 354.60658,231.18468 C 370.28392,233.52402 396.29524,232.55952 389.29534,255.74718 z M 238.08826,282.61266 C 216.86878,286.27224 230.13022,270.93522 226.46008,260.17218 C 244.9705,258.48774 264.86068,256.79358 283.40662,255.52512 C 290.06926,254.63982 297.10198,253.67088 297.55564,255.55434 C 298.87162,261.01848 299.79868,271.11114 299.99404,281.47218 C 293.41408,281.47218 286.83406,281.47218 280.2541,281.47218 C 272.29246,281.99352 263.79766,283.01796 266.86456,272.23398 C 271.25914,260.23062 255.27496,263.74062 249.19366,266.12694 C 246.92968,273.69174 253.4851,285.6162 238.08826,282.61266 z M 373.90726,282.59718 L 373.90726,282.59718 L 373.67128,283.52658 L 370.61458,283.36956 C 358.45564,284.49804 347.6248,284.63148 351.60652,270.28218 C 351.1894,263.34204 335.10928,263.55636 332.70658,267.78882 C 333.55912,273.09558 335.12206,280.29984 331.75054,281.89956 C 325.79056,284.72754 309.53188,284.6583 305.6752,280.38564 C 301.54444,275.80926 303.87148,263.92554 304.3297,255.47094 C 321.77302,256.49622 339.17272,258.21816 356.57692,259.77324 C 374.71096,256.36854 374.87968,267.54714 373.90726,282.59718 z M 218.07946,281.81268 C 216.15412,282.7425 211.01176,283.78062 210.2803,283.02342 C 209.09374,279.58236 208.30642,268.53966 211.67908,263.7744 C 213.45106,261.27072 216.98602,260.03352 220.00072,262.29546 C 224.64574,265.78068 222.9013,283.32486 218.07946,281.81268 z M 390.19264,265.41036 C 392.88562,271.1298 390.66262,275.75394 390.2839,281.48568 C 387.28192,284.65626 381.19582,285.4401 378.44896,282.9783 C 375.00658,279.89304 375.69502,268.8726 377.76598,264.5652 C 380.9194,259.06602 387.3151,261.0963 390.19264,265.41036 z M 310.96438,311.99718 L 310.98064,312.80064 C 314.88856,325.5654 300.55078,318.64656 293.27482,319.27218 C 283.14802,319.26582 292.51816,300.08778 289.42906,293.25108 C 287.04394,284.03682 298.44076,288.97218 303.86158,287.77218 C 316.85734,284.98302 307.9324,304.61934 310.96438,311.99718 z M 261.2539,319.83318 C 254.69266,318.72342 246.79654,322.60524 238.6516,319.1517 C 235.6768,315.14826 238.04632,295.8801 237.23752,287.6952 C 236.9638,286.73052 250.99282,284.92566 248.40652,291.1941 C 249.33238,298.17408 244.24414,312.73854 256.94308,308.68956 C 271.58422,312.7152 266.8384,298.05036 267.2926,289.85988 C 267.1189,283.00386 279.2503,288.18444 284.4373,286.57218 C 284.2027,297.53478 283.97086,308.49744 283.74094,319.4601 C 276.24526,319.58448 268.74958,319.7088 261.2539,319.83318 z M 362.2165,313.34718 C 362.04418,316.05576 362.29534,318.83058 361.76386,321.5064 C 347.66854,321.16902 331.6606,322.1781 318.2425,320.37888 C 315.09838,317.96724 315.55042,311.94348 315.96274,305.95908 C 316.5952,300.18918 313.74922,291.01584 317.23948,288.04488 C 319.16668,286.83504 329.21104,286.76154 331.288,288.2472 C 333.49948,290.32344 333.05212,295.0005 332.52868,299.75202 C 326.48986,311.68032 352.49284,314.50656 351.60652,304.45188 C 353.11594,299.5647 348.3781,287.97108 354.35266,287.87724 C 369.84844,284.12286 359.63338,304.77234 362.2165,313.34718 z M 229.84642,319.80444 C 224.36272,323.14686 212.59768,323.38206 209.30554,320.14278 C 204.34966,315.26652 207.99952,297.22398 210.31702,290.70204 C 212.26828,285.21078 221.2171,286.13238 230.01628,287.23674 C 232.78468,292.00596 236.9485,315.47562 229.84642,319.80444 z M 391.68244,316.49718 C 396.05782,329.298 374.806,319.82976 368.96308,321.7323 C 368.97064,315.657 361.63342,288.83772 372.38158,288.53982 C 393.04258,283.65438 392.64478,300.71856 391.68244,316.49718 z M 259.56418,356.39166 C 254.47504,357.06876 249.31198,356.61834 244.19614,356.77218 C 238.99894,355.24758 226.54852,360.79722 228.97324,351.8388 C 231.51064,341.53542 222.5092,319.75152 241.32772,325.3836 C 264.8254,317.4159 258.0127,340.96542 259.56418,356.39166 z M 223.92088,348.44718 L 223.90066,349.40082 L 223.87744,350.49672 C 226.72894,360.32778 216.04066,356.32896 209.995,357.07218 C 204.20356,355.35642 205.33426,329.03886 210.86866,326.77116 C 229.00126,320.45706 224.55256,335.93892 223.92088,348.44718 z M 296.1337,326.23134 C 298.0678,329.13066 300.06718,355.06554 296.53624,356.23026 C 288.2467,357.89772 268.9111,359.56524 265.07362,355.23024 C 261.03712,350.67042 260.89936,329.31972 263.6794,325.9095 C 268.11292,320.47098 289.48996,323.11188 296.1337,326.23134 z M 370.98508,350.84718 C 371.04442,353.22216 371.10382,355.5972 371.16316,357.97218 C 361.86418,357.9504 352.56436,358.03026 343.2661,357.89688 C 341.24134,352.95678 337.15438,332.8815 343.82872,326.9001 C 346.89196,324.80874 364.33036,324.46242 367.7941,326.96388 C 372.65914,331.20372 371.30782,341.61666 370.98508,350.84718 z M 393.31348,357.29718 L 393.30652,358.27218 L 392.46394,358.27218 C 387.25066,356.64084 374.995,362.20278 376.1851,354.03084 C 378.91948,345.60978 368.46922,323.95092 383.2873,327.95394 C 400.00996,323.81382 389.85766,347.8563 393.31348,357.29718 z M 334.51672,357.08382 C 329.716,359.1579 311.0599,359.77866 305.63752,357.87402 C 298.8724,353.09718 305.03062,336.21798 304.00138,326.77218 C 313.56106,326.29716 329.48884,322.69242 335.28154,328.47432 C 339.76096,334.51116 338.11558,351.24468 334.51672,357.08382 z M 285.12574,377.24718 C 285.064,379.32222 285.00226,381.3972 284.94052,383.47218 C 270.21256,383.47224 255.48454,383.4723 240.75652,383.47242 C 240.81142,376.27236 240.86632,369.0723 240.92122,361.87218 C 252.18424,361.89204 263.4475,361.83768 274.70908,361.6458 C 287.20984,358.00308 287.05054,366.70854 285.12574,377.24718 z M 235.87426,372.6942 C 235.88212,373.72932 235.89004,374.76444 235.89796,375.79956 C 239.12872,385.85934 229.7266,383.38224 222.91132,383.4723 C 216.8278,381.77478 202.22026,388.14852 205.85662,377.2962 C 201.45448,360.8433 213.53386,361.18794 225.92716,362.02962 C 235.0609,359.6538 237.44776,364.15548 235.87426,372.6942 z M 309.44578,364.81596 C 311.27782,370.35108 311.00566,377.52924 309.63784,383.38986 C 309.1246,385.5891 294.9661,384.63048 292.23988,383.02944 C 288.19768,380.6556 289.24486,371.56062 290.90092,363.61176 C 296.4241,358.63944 307.49746,358.92936 309.44578,364.81596 z M 394.36558,382.49718 L 394.44814,383.57922 L 394.5316,384.67218 C 386.56558,384.67224 378.5995,384.67224 370.63348,384.67236 C 360.74134,387.7209 364.87822,376.84692 364.16254,370.78866 C 361.06252,360.87684 369.89614,363.12966 376.64668,363.25914 C 392.09698,359.81166 396.72064,367.56516 394.36558,382.49718 z M 359.17432,373.9209 C 359.20174,377.50476 359.22916,381.08856 359.25652,384.67242 C 349.09108,384.63906 338.92324,384.77322 328.75996,384.50886 C 311.99878,389.05032 314.1886,374.77506 314.51626,362.86248 C 326.08654,362.79174 337.657,362.9895 349.2271,363.07644 C 358.34398,360.90036 360.7582,365.41506 359.17432,373.9209 z M 261.60652,403.12218 C 261.59914,407.25426 261.6289,411.387 261.52906,415.51842 C 245.6968,420.16944 222.50332,415.74366 203.8495,416.87478 C 198.35938,414.8226 175.20166,420.19758 180.72442,413.23572 C 189.55948,406.09194 195.31558,392.04354 205.8076,388.58724 C 223.60294,384.24132 201.79372,417.46272 214.5616,419.67582 C 217.41004,410.77254 216.87784,397.8657 218.22826,388.57218 C 230.86072,388.57218 243.49324,388.57218 256.12576,388.57218 C 265.5103,385.86456 260.2858,397.76598 261.60652,403.12218 z M 417.66604,417.70848 C 412.01656,417.8835 406.36306,417.90906 400.71124,417.93606 C 386.6131,422.3787 388.53922,409.12026 387.91948,398.71062 C 380.63656,387.5544 397.28134,386.78418 400.82092,393.9519 C 402.86146,400.35414 428.15008,416.5581 417.66604,417.70848 z M 297.15688,403.79718 C 297.2299,408.52218 297.30292,413.24718 297.37588,417.97218 C 287.15296,417.85272 276.92974,417.75672 266.70652,417.66342 C 266.70652,408.69714 266.70652,399.7308 266.70652,390.76452 C 274.55524,387.24714 304.85158,384.3933 297.15688,403.79718 z M 364.01404,418.386 C 355.48,418.53066 346.93498,418.43184 338.40652,418.80582 C 338.40652,409.12794 338.40652,399.45006 338.40652,389.77218 C 352.86472,389.77218 367.32292,389.77218 381.78106,389.77218 C 382.74964,399.24696 383.53144,408.74412 384.67156,418.19928 C 377.78572,418.2615 370.89988,418.32378 364.01404,418.386 z M 333.30652,404.32218 C 333.30652,405.51834 333.30652,406.7145 333.30652,407.9106 C 337.03942,420.90624 326.85736,420.21732 316.44946,418.26798 C 297.30994,424.00188 303.14242,404.82708 302.09686,392.66484 C 303.57418,384.80136 320.23336,391.95042 327.82576,389.77218 C 337.2103,387.06456 331.9858,398.96598 333.30652,404.32218 z M 172.08772,422.22198 C 179.70598,421.80042 184.06726,422.19444 184.68784,424.54284 C 186.28474,430.58598 187.47166,442.15494 183.5701,442.69596 C 177.16822,443.58372 173.3947,442.63302 171.65842,440.43756 C 168.48706,436.42752 170.48872,428.65788 172.08772,422.22198 z M 429.48754,443.98782 C 412.3882,449.48334 416.50612,435.43374 414.49816,423.08016 C 430.77994,417.24564 429.34324,432.02544 429.48754,443.98782 z M 225.60844,444.14718 C 219.31174,441.8799 183.28288,449.481 188.97322,437.24718 C 184.64338,416.98062 203.27962,422.01246 216.3037,422.10396 C 232.504,417.5115 225.96832,433.57386 225.60844,444.14718 z M 243.34126,444.79068 C 224.72548,454.3659 226.52824,413.31744 244.52224,422.4687 C 254.19106,426.01866 275.51104,414.93468 274.74364,430.87218 C 264.03658,436.16196 257.3743,447.8355 243.34126,444.79068 z M 388.09072,445.28874 L 388.09072,445.28874 L 385.49788,445.35894 L 383.0629,445.43064 C 370.99714,452.93106 369.05788,423.56436 376.08844,423.4179 C 387.52876,425.79732 410.34442,415.21158 410.15434,431.75436 C 418.96726,449.82684 398.95894,444.22374 388.09072,445.28874 z M 366.55288,445.98384 C 363.2836,445.90656 359.8777,446.9454 356.66644,446.00394 C 342.69808,448.88976 335.92432,437.47848 325.2694,432.07218 C 324.68968,416.25666 345.7027,427.14612 355.4908,423.6687 C 370.60804,415.53336 372.11296,441.88986 366.55288,445.98384 z M 313.0663,452.69718 C 308.27524,454.91598 300.8788,451.31904 295.12354,452.49228 C 283.4458,456.16422 284.8369,441.45822 281.38474,434.14806 C 271.33048,416.8659 299.60716,427.2924 308.94472,424.20534 C 331.89034,417.62928 314.71186,441.28428 313.0663,452.69718 z M 276.03046,460.69332 C 273.91354,456.69414 254.66662,447.86508 266.67058,442.59942 C 276.27214,423.83928 289.11652,456.81366 276.03046,460.69332 z M 328.47046,458.39718 C 311.58514,470.8782 320.65192,443.4537 323.98216,436.51482 C 335.60206,442.47186 342.64852,450.67086 328.47046,458.39718 z M 196.10302,471.7236 C 187.70284,469.7643 178.9045,465.89706 171.58192,461.66958 C 167.683,457.16604 170.0707,448.73892 175.86808,446.89806 C 178.63264,446.02026 194.0023,447.64764 196.4368,449.24454 C 200.02186,453.36558 195.8881,463.7508 196.10302,471.7236 z M 406.5457,472.4568 C 402.63034,474.37512 404.76622,465.86622 403.4443,464.27418 C 393.04216,443.59476 417.40048,450.8583 429.86458,449.33022 C 437.24122,466.11888 417.4357,466.5285 406.5457,472.4568 z M 237.60988,471.14718 C 237.50476,473.95668 237.82534,477.26502 237.42748,479.76888 C 226.71592,476.26578 193.2385,481.8027 201.68188,464.74788 C 198.10144,444.6408 214.64182,448.99398 228.83662,449.82522 C 247.6891,445.19778 235.52944,460.81272 237.60988,471.14718 z M 372.00652,480.20238 C 368.80564,480.47682 365.6044,480.7497 362.40652,481.05894 C 362.5066,471.09906 363.03412,461.13816 359.18956,451.68918 C 371.01628,454.62534 397.6981,441.40248 397.29346,458.78064 C 408.81148,479.21874 385.5034,478.63866 372.00652,480.20238 z M 263.86072,481.34718 C 262.79248,484.44444 255.65056,480.6246 253.20652,481.85454 C 237.4222,485.94252 242.6476,465.90378 244.8586,456.60702 C 244.03078,447.07746 256.42336,446.02452 260.27014,453.34464 C 275.74978,461.71452 268.46206,469.13412 263.86072,481.34718 z M 355.39918,482.67816 C 353.18614,484.17834 340.34074,484.44174 337.34734,483.33492 C 334.1371,480.98688 335.99158,474.02814 330.40048,468.84204 C 326.61166,462.1107 340.47124,455.68188 344.56456,449.9592 C 356.10352,446.3451 355.45684,459.86844 357.30652,467.38152 C 357.42682,473.14986 358.45084,479.8569 355.39918,482.67816 z M 180.71524,473.5182 C 181.22218,475.4511 179.9518,487.17222 178.9543,488.96076 L 168.03556,482.62578 C 165.91204,481.39368 165.90244,470.55108 167.7589,468.68124 C 170.97334,465.61668 178.92982,468.43098 180.71524,473.5182 z M 430.87612,484.0137 C 429.54538,487.15086 424.4038,487.53258 421.92478,489.69174 C 420.51334,487.37724 415.91542,478.48764 418.56454,475.29168 C 421.89142,471.27822 424.82542,469.42644 430.55218,467.89452 C 432.13324,472.53264 432.78844,479.5056 430.87612,484.0137 z M 211.21576,484.17906 C 214.25812,487.46622 209.32696,494.68752 209.53468,499.93818 C 202.7041,500.08974 195.03946,496.24038 183.72046,490.60758 C 181.43164,489.4686 185.40556,480.44082 186.81082,474.93654 C 189.35764,477.16326 203.8096,476.17686 211.21576,484.17906 z M 392.84614,501.38622 C 389.9611,503.04264 386.7643,486.53466 388.33438,485.15094 C 395.8243,478.54986 409.28728,478.0698 414.39274,477.52542 C 422.89846,495.3618 406.75852,496.6338 392.84614,501.38622 z M 245.8192,505.49718 C 245.59732,506.09838 246.15118,507.57798 244.95172,507.07218 C 236.13142,506.63472 216.02164,507.7779 215.0545,499.77636 C 214.42714,492.45378 215.20048,486.88794 218.50966,484.34448 C 223.03408,481.8417 238.4605,484.10598 243.58126,486.37536 C 248.40514,489.6138 248.45134,496.5417 245.8192,505.49718 z M 385.0402,503.63988 C 379.27006,508.34358 361.21876,509.64798 354.26068,507.32826 C 352.9789,505.49652 349.28512,490.45752 352.27282,489.39528 C 361.57006,486.08988 379.2817,485.28816 383.61544,485.64786 C 385.95856,493.08912 387.4231,500.27886 385.0402,503.63988 z M 252.2779,487.85946 C 254.17396,485.9982 261.21436,487.58442 263.96728,489.92064 C 267.28426,492.73548 265.00504,503.31432 264.11206,506.96904 C 262.03132,509.17176 256.57906,508.24428 252.33706,507.6486 C 249.23278,507.21276 251.29408,492.28644 252.2779,487.85946 z M 347.36356,508.98312 L 347.36356,508.98312 L 340.83352,509.31042 C 331.93132,511.2447 337.2436,492.48954 337.68856,488.74098 C 351.49054,481.48026 349.30354,504.86748 347.36356,508.98312 z M 193.62316,518.62218 C 191.44774,525.70644 165.52708,506.32254 165.42724,497.95626 C 164.86258,494.64102 166.10482,489.50094 168.56752,487.72326 C 177.89974,494.32992 191.9581,495.88392 195.34534,503.33316 C 196.93198,506.82246 195.86266,511.6218 193.62316,518.62218 z M 409.05652,522.55008 C 403.7602,526.18812 406.5502,506.52066 404.4304,504.02832 C 412.94284,503.97516 430.83094,485.13258 433.23814,491.56614 C 437.39164,506.59212 419.2561,515.47422 409.05652,522.55008 z M 228.02176,513.86436 C 229.17034,516.67314 229.26298,531.46044 226.80106,533.31162 C 223.3477,533.51538 201.20368,527.88882 199.12666,523.44984 C 195.30322,515.03934 200.37538,498.9285 209.44612,506.64078 C 216.89278,508.47546 225.32956,508.84908 228.02176,513.86436 z M 375.56314,534.48732 C 368.20102,536.38494 373.46992,520.21134 372.00652,514.6917 C 375.67348,510.8124 397.30084,503.36808 399.66388,508.60326 C 409.87246,528.68508 389.87524,529.55886 375.56314,534.48732 z M 316.61182,531.14718 C 317.94604,539.5563 314.15956,537.5658 307.80652,537.67218 C 307.82914,515.39094 307.63318,493.1103 307.48966,470.82966 C 305.28664,460.86954 309.169,453.8946 318.2437,464.24652 C 318.32674,486.54666 317.1397,508.84878 316.61182,531.14718 z M 303.80602,508.82256 C 303.85486,515.88144 303.90364,522.94038 303.95242,529.99926 C 306.99142,539.21532 299.54536,538.01748 292.95652,537.67098 C 292.89382,514.65984 292.83112,491.6487 292.76836,468.63762 C 290.44684,459.43104 295.1011,457.18128 303.60652,458.77218 C 303.58372,475.4559 303.69658,492.13932 303.80602,508.82256 z M 289.09282,498.52242 C 289.17826,511.20708 289.2637,523.89174 289.34914,536.57646 C 276.37978,544.03986 281.44144,522.79914 280.66594,514.22166 C 283.45126,497.0853 274.17178,474.32928 284.6605,460.8882 C 294.54322,461.41878 286.11274,488.48916 289.09282,498.52242 z M 276.72862,513.74718 C 276.78466,520.62606 276.8407,527.50494 276.89674,534.38382 C 270.45268,546.50784 265.46896,526.14558 268.9153,518.13156 C 270.24832,501.4884 263.62048,481.5294 276.15652,467.92218 C 276.44512,483.19584 276.6025,498.47148 276.72862,513.74718 z M 330.90904,536.24718 C 331.22584,539.59494 329.8654,539.28324 326.56606,538.32678 C 315.0379,539.79732 322.6933,517.13778 320.18296,503.20422 C 322.6258,494.57742 316.72948,453.50448 329.41654,476.93622 C 333.73072,496.33386 330.05878,516.5223 330.90904,536.24718 z M 263.10652,538.67574 L 263.10652,538.6758 L 261.00652,539.82306 C 250.65862,539.51376 237.127,540.19398 232.72546,532.95042 C 231.13516,528.9768 231.63832,516.3306 234.49012,512.8482 C 239.1208,509.31576 252.57862,515.0109 258.42274,513.22026 C 267.9511,513.42672 262.97044,531.12486 263.10652,538.67574 z M 366.90652,515.05674 C 367.76038,529.9914 368.08666,540.48258 349.65658,539.95134 L 346.60024,540.43206 C 332.41342,545.50752 336.44224,530.05584 336.2368,521.9055 C 334.0297,509.74746 360.6886,512.57088 366.90652,515.05674 z M 336.3196,545.89998 C 353.22004,546.63798 370.97998,541.11936 387.16588,536.2389 C 407.72266,531.16182 427.68034,520.764 439.111,502.33068 C 437.38882,475.1493 435.1453,447.98214 432.86668,420.83748 C 422.13568,409.10694 410.36818,396.80754 399.62146,384.4593 C 396.9787,320.08152 394.4491,255.69894 391.8742,191.31828 C 383.57926,173.80872 407.48488,170.90556 407.68084,155.29974 C 406.04692,137.7282 412.47856,115.83756 396.2548,103.31676 C 388.53268,96.59298 366.48106,82.92852 361.69702,97.23198 C 366.10768,117.20868 349.9102,114.18396 334.72738,111.16788 C 330.46612,104.83992 334.70182,90.97218 333.74704,81.91296 C 325.2367,72.52224 303.53506,75.12444 289.93726,74.7855 C 267.00262,69.74286 270.40408,91.13556 271.16866,106.611 C 266.48728,110.4309 238.7284,117.88266 238.7752,106.37562 C 242.3557,93.53754 231.61864,84.17232 219.60652,92.68734 C 203.43388,97.95774 189.79996,113.48508 192.68704,131.28336 C 190.35766,148.1106 191.34226,167.91534 208.79998,175.57218 C 205.93018,242.96916 203.404,310.3821 200.62942,377.78364 C 200.00878,391.05546 183.88948,397.97892 177.37408,408.81954 C 159.82972,419.63916 167.77432,442.67574 163.88722,459.96102 C 165.57406,475.6128 154.83112,495.19902 166.13374,507.98688 C 180.38728,527.11158 204.31804,532.33716 225.75652,539.1906 C 242.09584,541.44912 259.35748,549.1902 275.61466,543.97218 C 295.85224,544.54326 316.42936,542.35062 336.3196,545.89998 z " />
    </g>
  </g>
  <g
     inkscape:groupmode="layer"
     id="layer4"
     inkscape:label="Meubles" />
  <g
     inkscape:groupmode="layer"
     id="layer2"
     inkscape:label="Reflet final"
     sodipodi:insensitive="true">
    <path
       sodipodi:nodetypes="cccccc"
       d="M 300.00001,658.5 C 300.00001,658.5 598.50001,546.17969 598.50001,260.72817 C 598.50001,-24.723334 598.50001,2.1764865 598.50001,2.1764865 L 1.5,2.1764865 L 1.5,260.72817 C 1.5,546.17969 300.00001,658.5 300.00001,658.5 z "
       style="opacity:1;fill:url(#radialGradient3163);fill-opacity:1;fill-rule:evenodd;stroke:none;stroke-width:1px;stroke-linecap:butt;stroke-linejoin:miter;stroke-opacity:1"
       id="path2875"
       inkscape:export-xdpi="144"
       inkscape:export-ydpi="144" />
  </g>
  <g
     inkscape:groupmode="layer"
     id="layer1"
     inkscape:label="Contour final"
     sodipodi:insensitive="true">
    <path
       sodipodi:nodetypes="cccccc"
       d="M 299.99999,658.50028 C 299.99999,658.50028 1.5,546.17992 1.5,260.72828 C 1.5,-24.723336 1.5,2.1764957 1.5,2.1764957 L 598.49999,2.1764957 L 598.49999,260.72828 C 598.49999,546.17992 299.99999,658.50028 299.99999,658.50028 z "
       style="opacity:1;fill:none;fill-opacity:1;fill-rule:evenodd;stroke:#000000;stroke-width:3.00000048;stroke-linecap:butt;stroke-linejoin:miter;stroke-miterlimit:4;stroke-dasharray:none;stroke-opacity:1"
       id="path1411"
       inkscape:export-xdpi="144"
       inkscape:export-ydpi="144" />
  </g>
</svg>
