<?xml version="1.0" encoding="UTF-8" standalone="no"?>
<svg
   xmlns:dc="http://purl.org/dc/elements/1.1/"
   xmlns:cc="http://creativecommons.org/ns#"
   xmlns:rdf="http://www.w3.org/1999/02/22-rdf-syntax-ns#"
   xmlns:svg="http://www.w3.org/2000/svg"
   xmlns="http://www.w3.org/2000/svg"
   xmlns:xlink="http://www.w3.org/1999/xlink"
   xmlns:sodipodi="http://sodipodi.sourceforge.net/DTD/sodipodi-0.dtd"
   xmlns:inkscape="http://www.inkscape.org/namespaces/inkscape"
   width="600"
   height="660"
   viewBox="0 0 600 660"
   id="svg2"
   sodipodi:version="0.32"
   inkscape:version="0.46"
   sodipodi:docname="Blason_Varangéville-A_54.svg"
   inkscape:output_extension="org.inkscape.output.svg.inkscape"
   version="1.0">
  <metadata
     id="metadata28">
    <rdf:RDF>
      <cc:Work
         rdf:about="">
        <dc:format>image/svg+xml</dc:format>
        <dc:type
           rdf:resource="http://purl.org/dc/dcmitype/StillImage" />
        <dc:title />
      </cc:Work>
    </rdf:RDF>
  </metadata>
  <sodipodi:namedview
     inkscape:window-height="977"
     inkscape:window-width="1280"
     inkscape:pageshadow="2"
     inkscape:pageopacity="0.0"
     guidetolerance="10.0"
     gridtolerance="10.0"
     objecttolerance="10.0"
     borderopacity="1.0"
     bordercolor="#666666"
     pagecolor="#ffffff"
     id="base"
     showgrid="false"
     inkscape:zoom="1.1621212"
     inkscape:cx="300"
     inkscape:cy="330"
     inkscape:window-x="-4"
     inkscape:window-y="-4"
     inkscape:current-layer="layer4"
     inkscape:object-nodes="true"
     inkscape:window-maximized="1" />
  <defs
     id="defs4">
    <radialGradient
       id="Gradient1"
       gradientUnits="userSpaceOnUse"
       cx="-80"
       cy="-80"
       r="405">
      <stop
         style="stop-color:#fff;stop-opacity:0.31"
         offset="0"
         id="stop7" />
      <stop
         style="stop-color:#fff;stop-opacity:0.25"
         offset="0.19"
         id="stop9" />
      <stop
         style="stop-color:#6b6b6b;stop-opacity:0.125"
         offset="0.6"
         id="stop11" />
      <stop
         style="stop-color:#000;stop-opacity:0.125"
         offset="1"
         id="stop13" />
    </radialGradient>
    <clipPath
       id="shield_cut">
      <path
         id="shield"
         d="M -298.5,-298.5 L 298.5,-298.5 L 298.5,-40 C 298.5,246.31 0,358.5 0,358.5 C 0,358.5 -298.5,246.31 -298.5,-40 L -298.5,-298.5 z" />
    </clipPath>
    <g
       id="s">
      <g
         id="c">
        <path
           id="t"
           d="M 0,0 L 0,1 L 0.5,1 L 0,0 z "
           transform="matrix(0.951057,0.309017,-0.309017,0.951057,0,-1)" />
        <use
           xlink:href="#t"
           transform="scale(-1,1)"
           id="use2144"
           x="0"
           y="0"
           width="810"
           height="540" />
      </g>
      <g
         id="a">
        <use
           xlink:href="#c"
           transform="matrix(0.309017,0.951057,-0.951057,0.309017,0,0)"
           id="use2147"
           x="0"
           y="0"
           width="810"
           height="540" />
        <use
           xlink:href="#c"
           transform="matrix(-0.809017,0.587785,-0.587785,-0.809017,0,0)"
           id="use2149"
           x="0"
           y="0"
           width="810"
           height="540" />
      </g>
      <use
         xlink:href="#a"
         transform="scale(-1,1)"
         id="use2151"
         x="0"
         y="0"
         width="810"
         height="540" />
    </g>
  </defs>
  <g
     id="layer4"
     inkscape:label="Fond écu"
     inkscape:groupmode="layer"
     transform="translate(300,300)">
    <use
       xlink:href="#shield"
       id="use18"
       style="fill:#e20909"
       x="0"
       y="0"
       width="600"
       height="660" />
    <path
       style="fill:#fcef3c"
       d="M 78.46875 490 C 166.91254 608.47475 300 658.5 300 658.5 C 300 658.5 433.08746 608.47475 521.53125 490 L 78.46875 490 z "
       transform="translate(-300,-300)"
       id="use2406" />
    <g
       transform="matrix(0.469067,0,0,0.469067,-182.52441,-388.02488)"
       id="layer1-6"
       inkscape:label="Fond écu"
       style="display:inline" />
    <g
       transform="matrix(0.469067,0,0,0.469067,-182.52441,-388.02488)"
       id="layer3-8"
       inkscape:label="Reflet final"
       style="display:inline" />
    <g
       transform="matrix(0.469067,0,0,0.469067,-182.52441,-388.02488)"
       id="layer4-1"
       inkscape:label="Contour final"
       style="display:inline" />
    <g
       transform="translate(-439.4775,-767.08107)"
       inkscape:label="Calque 1"
       id="layer1-24">
      <text
         xml:space="preserve"
         style="font-size:18.95129967px;font-style:normal;font-weight:normal;line-height:125%;letter-spacing:0px;word-spacing:0px;fill:#000000;fill-opacity:1;stroke:none;font-family:Sans"
         x="309.94751"
         y="454.7951"
         id="text4953"
         sodipodi:linespacing="125%"><tspan
           sodipodi:role="line"
           x="309.94751"
           y="454.7951"
           id="tspan4997" /></text>
    </g>
    <g
       transform="translate(-571.5778,-769.63994)"
       inkscape:label="Calque 1"
       id="layer1-9">
      <text
         xml:space="preserve"
         style="font-size:18.95129967px;font-style:normal;font-weight:normal;line-height:125%;letter-spacing:0px;word-spacing:0px;fill:#000000;fill-opacity:1;stroke:none;font-family:Sans"
         x="109.95897"
         y="214.7215"
         id="text4953-3"
         sodipodi:linespacing="125%"><tspan
           sodipodi:role="line"
           x="109.95897"
           y="214.7215"
           id="tspan4997-1" /></text>
    </g>
    <path
       style="opacity:1;fill:none;fill-opacity:1;fill-rule:nonzero;stroke:#000000;stroke-width:3;stroke-linecap:butt;stroke-linejoin:round;stroke-miterlimit:4;stroke-dasharray:none;stroke-dashoffset:0;stroke-opacity:1"
       d="M 78.46875,490 L 521.53125,490"
       id="path4697"
       transform="translate(-300,-300)" />
  </g>
  <g
     id="layer3"
     inkscape:label="Meubles"
     inkscape:groupmode="layer"
     transform="translate(300,300)">
    <g
       transform="matrix(1.5625156,0,0,1.5625,-21.77371,-96.94072)"
       id="g4244">
      <path
         id="path6787"
         d="M 19.850444,-106.82497 C 1.8976502,-106.82497 -12.870529,-92.05838 -12.870491,-73.672076 C -12.870491,-55.285772 1.8976502,-40.51918 19.850444,-40.51918 C 37.803237,-40.51918 52.535218,-55.285772 52.535192,-73.672076 C 52.535192,-92.05838 37.803237,-106.82497 19.850444,-106.82497 z M 19.850444,-102.78095 C 36.003404,-102.78095 48.915621,-89.659968 48.915621,-73.672076 C 48.915647,-57.684198 36.003404,-44.563187 19.850444,-44.563187 C 3.6974966,-44.563187 -9.214721,-57.684185 -9.214721,-73.672076 C -9.2147594,-89.659955 3.6974966,-102.78095 19.850444,-102.78095 z"
         style="fill:#fcef3c;fill-opacity:1;fill-rule:nonzero;stroke:#000000;stroke-width:1.27999997;stroke-linecap:butt;stroke-linejoin:round;stroke-miterlimit:4;stroke-dasharray:none;stroke-dashoffset:0;stroke-opacity:1" />
      <path
         style="fill:#2b5df2;fill-opacity:1;stroke:none;stroke-width:1.64999998;stroke-linecap:butt;stroke-linejoin:round;stroke-miterlimit:4;stroke-dasharray:none;stroke-opacity:1"
         d="M 100.64648,44.459213 C 118.92749,42.156532 115.43552,36.621722 125.78207,31.912039 C 166.7939,13.243674 169.6703,62.552218 162.83903,70.759616 C 157.03555,77.73216 155.17932,83.325095 156.78907,88.035098 C 158.63471,93.435354 162.80774,89.524148 161.07657,104.8116 C 160.01698,114.16877 156.84786,111.70997 154.70394,114.90909 C 158.18489,120.8119 155.02752,123.36506 152.02344,125.99556 C 151.89393,130.29773 154.04729,133.33638 156.54092,136.1867 C 151.49033,134.83474 143.16085,135.85078 145.78441,124.05769 C 143.86267,127.30533 141.48593,127.67254 141.35748,135.90089 C 132.4613,129.17318 137.03545,127.06876 139.48538,123.83772 C 143.08312,119.09295 143.57137,116.90925 139.28271,113.2239 C 137.99199,112.34217 136.09238,112.30813 136.8658,108.55282 L 131.17941,107.20758 C 133.33451,101.21307 131.13318,95.854464 138.40465,89.113114 C 133.11376,89.858381 131.76242,96.619162 128.22356,102.76206 C 129.26008,96.038708 123.47638,91.644493 133.43089,83.779392 C 136.23028,81.567578 137.72529,77.978868 130.23503,76.787751 C 122.96761,75.632103 125.52863,72.467661 126.1902,69.479808 C 124.62659,65.19945 127.56848,62.790503 129.95597,60.151271 L 126.25382,59.44864 C 132.85813,55.544013 130.4706,54.335271 134.67629,50.726311 C 137.17478,42.878874 128.65636,43.046183 123.64895,48.020404 C 120.48498,51.060391 115.4288,53.790772 104.13296,51.28434 C 102.54066,49.483456 100.49355,47.501824 100.64648,44.459213 z"
         id="path5453"
         sodipodi:nodetypes="csssscccccscccccssccccccc" />
      <path
         id="path5455"
         d="M -105.81006,-51.347366 C -106.9969,-51.266726 -107.8878,-50.54286 -108.2902,-48.751065 C -106.96675,-45.994803 -102.07872,-34.076083 -109.28802,-41.785177 C -119.22581,-47.548505 -119.92997,-40.089497 -113.98405,-33.355456 C -107.14186,-28.507443 -120.15055,-23.315148 -114.74461,-17.577971 C -115.88275,-12.5787 -112.87846,-11.327705 -111.7792,-4.0598524 C -101.26769,4.5298052 -103.5854,18.24288 -99.229794,29.118324 C -96.18781,35.515776 -83.931195,37.974068 -84.478037,28.040487 C -86.83508,19.664487 -77.698363,38.999207 -74.813909,26.198093 C -74.988424,17.588212 -60.200123,19.623168 -68.382613,28.099508 C -76.07019,38.826804 -78.688814,52.121524 -74.823611,64.890407 C -73.749883,67.096474 -72.43275,69.998848 -72.897749,71.267482 C -79.765115,72.672333 -93.140155,72.640077 -98.951867,70.377831 C -109.02662,75.443085 -108.82128,85.666509 -105.39046,95.095719 C -107.24883,105.03718 -103.37911,112.98189 -100.3449,121.43831 C -97.820795,132.81126 -88.573678,146.18198 -82.29565,139.94774 C -78.857378,128.93601 -83.46621,116.44604 -86.11691,114.04698 C -88.614638,114.07977 -89.834824,116.02888 -91.075618,117.94709 C -96.85213,108.34354 -91.998907,111.10807 -90.988974,108.42003 C -89.315234,103.96521 -90.858952,105.74342 -95.340949,100.23272 C -96.513979,93.271949 -97.208072,82.574874 -85.659963,89.49664 C -76.784456,93.775296 -66.506581,96.943386 -57.882286,98.347712 C -56.221666,107.61788 -54.753992,119.58479 -54.312354,129.36781 C -55.306082,140.96287 -50.788334,152.76442 -54.410056,164.57765 C -51.914658,176.09978 -72.625147,183.04757 -64.500219,193.0247 C -58.69515,191.23754 -41.310344,196.15448 -41.223982,187.92673 C -40.776981,182.51786 -50.295982,168.38394 -39.005832,173.62545 C -38.426875,164.68571 -45.059195,156.76965 -41.686933,147.1638 C -34.332744,136.20332 -37.557742,123.815 -35.13108,111.88604 C -32.781614,104.64901 -32.134984,95.447181 -19.700258,99.764903 C -10.921109,104.58927 -1.5728336,92.759488 5.0484656,101.71908 C 15.472005,111.16773 26.416043,119.63758 39.618693,124.93458 C 51.32277,135.10472 29.390904,142.25237 23.874834,149.62095 C 15.469995,159.23361 12.596037,172.09878 11.382302,184.43987 C 13.88899,199.01892 25.764024,177.4318 34.198507,178.11014 C 35.725419,173.00346 24.784555,153.16856 35.440504,164.15205 C 41.28035,167.8737 42.775288,164.70911 38.264901,160.10056 C 37.039326,147.49398 53.520722,143.23698 60.322808,134.6705 C 71.658322,128.30454 64.413125,120.06691 59.69557,113.0176 C 68.655915,125.24949 86.26211,124.99302 88.591467,136.66376 C 90.123448,145.75122 89.122629,156.73055 86.726226,166.06875 C 81.794142,173.19213 71.416709,185.16678 77.468523,193.29021 C 80.489054,194.5258 93.190686,195.96123 96.937771,192.84392 C 97.454302,186.78847 98.810898,182.94774 95.095058,178.58103 C 95.836818,170.96841 98.816069,161.64838 105.95189,172.52516 C 111.10782,165.32723 97.179627,149.3495 104.11079,140.98165 C 101.55582,130.91337 107.77932,123.2187 105.67144,120.5339 C 101.33388,115.0091 98.032901,115.95791 95.746245,111.84512 C 89.61484,98.928 108.8019,87.499239 107.08159,75.3509 C 110.0542,68.58354 107.7535,61.620596 107.17289,54.729178 C 107.09817,54.592986 107.00952,54.47858 106.93485,54.343578 C 114.09479,54.824128 120.08799,54.179661 122.61264,51.956621 C 128.39206,46.694196 134.38383,43.108916 131.51821,51.42921 C 126.6622,55.245351 130.82408,55.233024 123.1927,59.354893 L 127.43798,61.431488 C 124.68335,64.224525 122.54084,64.447527 124.36516,68.995636 C 123.60945,72.164506 120.79207,76.717095 129.20807,77.968077 C 137.88212,79.257434 132.15161,82.465767 129.49213,85.439847 C 122.19435,93.600922 128.08134,99.596762 126.90418,106.72895 L 129.84635,104.10685 L 129.85737,108.59273 L 135.67085,110.17912 C 134.78824,114.16211 137.0189,114.20111 138.51586,115.14126 C 143.49242,119.06702 140.2676,119.92717 136.11917,124.95081 C 133.29423,128.37174 132.15894,131.33343 142.47897,138.50363 C 142.59998,129.7711 142.38549,134.05311 144.59902,130.61276 C 143.78121,136.45786 152.81588,138.5818 159.9727,136.93466 C 157.07672,133.90116 153.21151,131.9625 153.34695,127.39692 C 156.81534,124.61521 160.1749,121.32008 156.12589,115.04356 C 158.59678,111.65546 161.20722,114.50044 162.40232,104.57301 C 164.35471,88.353856 160.88995,92.869389 158.73548,87.131776 C 156.85634,82.127501 159.25752,77.813735 165.61685,70.142733 C 173.68259,60.413312 165.25273,5.8572036 122.49021,31.45321 C 115.50987,40.605466 105.71825,42.97202 99.820357,43.195802 C 94.72515,36.479757 89.745029,32.557837 84.810078,31.269248 C 73.19436,27.78546 67.6318,26.033024 42.093291,32.601229 C 13.478866,20.297946 -4.241928,17.258509 -12.460232,14.942029 C -15.335022,14.131712 -15.886536,4.2816004 -17.091438,1.049306 C -21.224213,-4.1494396 -17.203579,-17.164096 -23.058568,-18.945561 C -24.866978,-23.360512 -30.250594,-25.110451 -31.52459,-29.805184 C -34.720546,-23.931379 -33.543112,-33.36096 -33.781934,-34.78871 C -40.209301,-30.62624 -41.12029,-38.770432 -43.019938,-36.746214 C -46.907106,-37.011136 -40.638766,-42.816243 -47.324117,-39.53751 C -45.803835,-43.9488 -49.598293,-41.707174 -52.453064,-41.519193 C -60.422818,-43.626803 -62.155221,-46.094988 -71.409173,-43.690304 C -76.618325,-46.621452 -83.214254,-46.458944 -90.296686,-44.224102 C -93.550357,-43.438912 -101.57141,-51.635417 -105.81006,-51.347366 z M -73.010581,-0.2327036 C -71.907976,-0.2136572 -70.864942,0.15305 -71.361198,1.753242 C -69.722299,1.0965508 -66.186018,6.5432452 -70.348885,11.178791 C -79.138158,21.325671 -83.725883,3.5487492 -74.103573,-0.1451132 C -73.778146,-0.18519 -73.37812,-0.2390652 -73.010581,-0.2327036 z"
         style="fill:#000000;fill-opacity:1;fill-rule:evenodd;stroke:none;stroke-width:1px;stroke-linecap:butt;stroke-linejoin:miter;stroke-opacity:1"
         sodipodi:nodetypes="ccccccccccccccccccscccccccccccccccccccccccccccscccccccccsscccccscccccsssccccsccccccccccccccc" />
      <path
         id="path5457"
         d="M -99.109794,72.437325 C -109.56241,77.637658 -104.50423,87.367514 -104.35436,96.345472 C -106.2685,108.99356 -101.35642,111.83784 -97.953096,123.12892 C -96.691118,126.80762 -93.352123,136.28433 -85.610555,137.78679 C -82.42452,138.33235 -84.15869,122.90394 -86.389128,116.58815 C -88.281672,116.75333 -89.369634,117.76406 -90.914734,121.47533 C -91.766805,116.21335 -101.62828,107.00929 -92.597794,107.95701 C -88.794645,103.53349 -100.36343,104.33267 -96.486382,96.476762 C -100.56652,85.839168 -92.393224,83.690061 -84.222894,88.434637 C -76.530696,91.240436 -64.847483,97.421248 -56.508898,95.442829 C -55.452782,95.18976 -39.762171,92.694183 -39.090389,89.295437 C -38.712955,87.38592 -30.800021,68.693658 -32.99581,69.215322 C -41.588795,71.25682 -52.270677,72.585037 -53.616136,72.2768 C -62.216469,74.16649 -90.795771,74.804378 -99.109794,72.437325 z"
         style="fill:#fcef3c;fill-opacity:1;fill-rule:evenodd;stroke:none;stroke-width:0.61094344px;stroke-linecap:butt;stroke-linejoin:miter;stroke-opacity:1"
         sodipodi:nodetypes="ccccccccccsscc" />
      <path
         id="path5459"
         d="M -54.16861,99.173876 C -53.558907,112.0651 -51.275272,124.8577 -52.453883,137.71228 C -49.078626,150.89475 -53.297634,164.01704 -55.080379,177.08691 C -60.344456,179.21088 -68.318523,195.32983 -56.144533,190.92813 C -44.890619,192.13507 -39.433467,186.49444 -46.178286,176.28936 C -49.717806,168.24332 -42.543637,170.92708 -40.097301,172.55777 C -44.318562,161.83561 -46.093397,149.98536 -41.170632,138.37349 C -38.187528,128.76026 -39.487829,114.30618 -37.381589,107.3894 C -46.16797,111.40886 -47.167048,99.36969 -54.16861,99.173876 z"
         style="fill:#fcef3c;fill-opacity:1;fill-rule:evenodd;stroke:none;stroke-width:0.61094344px;stroke-linecap:butt;stroke-linejoin:miter;stroke-opacity:1"
         sodipodi:nodetypes="ccccccccc" />
      <path
         id="path5461"
         d="M 24.754987,98.619277 C 28.041106,104.87315 4.5444272,99.106125 15.569221,108.65303 C 24.230392,113.86583 34.086802,117.68399 42.706078,123.22048 C 52.491282,133.23446 37.819755,142.18113 30.371691,147.36522 C 18.003051,154.78904 15.706693,170.10842 13.383557,183.07011 C 13.613586,195.13719 24.792939,174.76265 30.691934,176.01836 C 30.405534,170.68248 24.151365,153.62559 34.377746,158.93389 C 35.944517,164.75487 40.365778,166.8751 36.757432,159.42094 C 35.1518,149.56397 45.914808,144.43168 51.990686,138.76186 C 56.014405,134.35913 62.759006,131.31381 63.747038,125.04127 C 55.385938,117.75933 54.559416,103.2735 45.250334,97.221325 C 41.151902,96.159616 46.631275,104.3705 39.448837,102.43803 C 33.138552,96.54528 34.872645,106.94917 27.716152,101.54257 L 26.344018,100.17848 L 24.754987,98.619277 z"
         style="fill:#fcef3c;fill-opacity:1;fill-rule:evenodd;stroke:none;stroke-width:0.61094344px;stroke-linecap:butt;stroke-linejoin:miter;stroke-opacity:1"
         sodipodi:nodetypes="ccccccccccccccc" />
      <path
         id="path5463"
         d="M 71.522002,31.808679 C 66.100587,31.162906 46.119762,38.066842 42.208914,39.715252 C 54.438482,41.412852 41.599992,48.35488 38.118098,52.92617 C 31.867755,61.132045 37.163282,68.164071 44.285099,86.41202 C 48.691858,71.945152 50.24204,95.791642 55.070661,100.28095 C 61.40661,111.81829 71.475678,121.18537 83.222955,124.68475 C 94.882603,129.96297 91.537886,145.82362 91.093816,156.10692 C 91.171998,169.16388 73.141176,179.19325 78.539896,192.2309 C 80.65004,192.55525 91.470891,193.55633 94.989752,191.033 C 95.379435,188.17612 95.393566,185.46856 93.552632,179.82898 C 89.960568,181.62638 97.427192,168.60347 97.234053,166.42277 C 96.674386,157.82246 101.76511,167.30554 104.71015,168.67647 C 105.04584,159.04477 95.827896,150.20046 101.58939,139.36297 C 100.78069,132.19409 102.18051,127.61279 104.44025,122.4526 C 98.58211,117.07647 88.809771,114.05042 93.029714,103.07566 C 98.437778,93.446848 104.93001,83.636583 102.98504,72.720448 C 104.81428,64.260596 106.48086,69.039476 104.64154,60.087015 C 101.35812,49.450279 97.328914,39.119373 85.07381,33.747584 C 80.787013,31.365786 76.563192,30.981325 71.522002,31.808679 z M 92.440018,89.546637 C 92.76163,98.071732 81.985579,110.1632 90.346027,114.04083 C 79.312888,109.88448 83.339397,101.17493 90.162104,95.552589 C 91.316446,93.723815 90.629317,91.007028 92.440018,89.546637 z"
         style="fill:#fcef3c;fill-opacity:1;fill-rule:evenodd;stroke:none;stroke-width:0.61094344px;stroke-linecap:butt;stroke-linejoin:miter;stroke-opacity:1"
         sodipodi:nodetypes="ccccccccccccccccccccccc" />
      <path
         sodipodi:nodetypes="cccccccccccccccccccccccccccccccccccccccccccccccccccc"
         id="path5465"
         d="M -89.871035,-42.06144 C -89.337416,-36.984742 -88.804616,-31.89815 -88.271035,-26.82144 C -81.548245,-19.741952 -71.648635,-12.426227 -70.391035,-0.2614396 C -69.020296,-4.7688316 -70.180782,-18.485862 -67.831035,-6.5014396 C -68.734523,0.5962884 -64.928533,10.041357 -63.031035,14.45856 C -63.115387,15.038541 -63.200904,15.663194 -63.271035,16.33856 C -67.243592,16.353946 -70.495611,16.400909 -71.991035,16.45856 C -80.05716,20.41024 -70.378939,19.989914 -63.591035,19.37856 C -63.981013,23.26962 -64.528712,27.392384 -66.311035,28.89856 C -68.805102,34.485376 -73.172526,39.480704 -74.191035,45.57856 C -74.60372,49.329165 -74.364654,53.072205 -74.071035,56.81856 C -73.231342,61.43305 -71.951765,66.006144 -70.911035,70.57856 C -70.745378,73.374016 -67.7666,71.754932 -65.951035,71.97856 C -59.330261,71.531687 -59.353621,72.804263 -52.834376,71.450919 C -50.255957,78.10313 -37.036744,76.9856 -32.30493,74.563572 C -32.975906,83.939725 -33.861026,83.163111 -35.471035,92.41856 C -41.911035,94.01856 -48.351035,95.61856 -54.791035,97.21856 C -51.171131,100.16961 -45.932104,99.116493 -41.671035,99.33856 C -34.372501,96.933184 -26.217595,94.538048 -18.751035,97.69856 C -12.532859,99.623156 -6.81972,94.789952 -0.5910352,95.01856 C 9.447416,95.087296 19.79692,97.573069 29.608965,94.49856 C 35.233682,92.990247 36.33077,86.707021 35.528965,81.73856 C 35.036088,74.652839 32.782469,67.739162 32.888965,60.61856 C 36.395064,56.411572 27.095518,57.588749 24.608965,56.61856 C 9.6913584,54.840167 -5.3469008,54.341837 -20.191035,51.97856 C -22.182459,47.66025 -16.341819,39.916391 -14.951035,34.85856 C -10.983829,32.755264 -10.342958,25.173837 -12.231035,20.17856 C -3.6383568,18.922983 -6.1707728,18.096397 -13.711035,17.49856 C -14.404258,16.636928 -15.237397,16.036634 -16.191035,15.77856 C -17.546069,8.5633284 -16.460347,-5.7355644 -23.791035,6.5385604 C -27.827861,10.246055 -32.365883,19.240372 -31.591035,8.4985604 C -29.440315,2.9949828 -21.628744,-11.366771 -29.631035,-0.3414396 C -31.822101,9.3253124 -33.720392,4.0701316 -32.391035,-3.7814396 C -28.037077,-8.0162172 -31.382229,-15.862604 -34.391035,-6.9814396 C -39.297723,-3.2289148 -37.02868,15.82208 -40.271035,1.8585604 C -40.800072,-37.981363 -43.717781,2.9771908 -48.951035,-4.7014396 C -54.04541,-8.1576956 -55.247918,-16.354214 -58.071035,-23.34144 C -58.079419,-18.629747 -57.035515,-13.689676 -56.711035,-8.8614396 C -64.270318,-13.755609 -62.175035,-35.126464 -66.711035,-33.74144 C -65.491528,-26.945344 -61.532923,-4.6165884 -68.951035,-20.46144 C -68.610862,-25.61678 -74.471483,-41.858547 -73.231035,-29.46144 C -72.631701,-22.683404 -75.910792,-18.857817 -75.111035,-27.62144 C -77.280021,-34.589529 -82.310434,-40.9227 -89.871035,-42.06144 z M -80.351035,-40.62144 C -79.182523,-36.53239 -71.203861,-30.306547 -76.751035,-38.26144 C -77.241378,-39.654515 -78.84317,-40.820966 -80.351035,-40.62144 z M -68.151035,1.6585604 C -67.78781,2.572506 -67.377224,3.5838596 -67.031035,4.6585604 C -67.064942,3.6222852 -67.400994,2.6182788 -68.151035,1.6585604 z M -67.031035,4.6985604 C -66.870894,10.969741 -77.216238,17.765351 -67.111035,14.53856 C -65.365973,11.725517 -65.98379,7.9626628 -67.031035,4.6985604 z"
         style="fill:#fcef3c;fill-opacity:1;fill-rule:evenodd;stroke:none;stroke-width:0.61094344px;stroke-linecap:butt;stroke-linejoin:miter;stroke-opacity:1" />
      <path
         sodipodi:nodetypes="ccccccccccccc"
         style="fill:#fcef3c;fill-opacity:1;fill-rule:evenodd;stroke:none;stroke-width:0.61094344px;stroke-linecap:butt;stroke-linejoin:miter;stroke-opacity:1"
         d="M -50.958024,-38.08942 C -46.215778,-31.076083 -50.056085,-13.564736 -45.600571,-12.8976 C -40.6594,-18.211865 -43.466184,-38.243712 -38.047048,-22.921587 C -34.307963,-17.078476 -43.517128,-5.2047868 -38.567726,-3.1436924 C -35.263957,-7.7384444 -30.608904,-16.349504 -29.499963,-19.062758 C -27.804987,-13.48887 -31.032072,3.1327492 -25.092782,-9.4148732 C -21.866952,-14.426252 -24.90324,0.945498 -27.582242,3.8973572 C -30.074619,14.270144 -16.57652,-2.492582 -21.248226,-8.3039228 C -20.753634,-20.863577 -35.70027,-21.586508 -37.162478,-32.296396 C -45.875016,-30.25495 -44.737915,-38.988748 -50.958024,-38.08942 z M -52.266965,-32.920448 C -53.706709,-28.271692 -52.250619,-10.239782 -51.293512,-13.617792 C -48.826542,-19.808076 -49.859874,-27.100646 -52.266965,-32.920448 z"
         id="path5467" />
      <path
         id="path5469"
         d="M -95.448891,9.1601156 C -106.4619,13.64946 -100.31575,33.335629 -89.077576,33.481588 C -82.508027,33.309312 -88.057826,12.953255 -88.507592,23.386496 C -90.731515,21.345293 -86.878971,12.144282 -84.322466,18.250394 C -79.101781,25.535898 -80.649659,24.102157 -85.506478,19.587776 C -86.016763,28.184564 -73.039893,32.109031 -76.518024,19.88713 C -78.12093,13.467405 -83.437666,7.9858948 -89.067963,8.8488068 C -91.198178,8.859674 -93.33108,8.91913 -95.448891,9.1601156 z M -94.079202,11.144781 C -92.58123,10.869594 -88.760034,11.016717 -93.122286,12.127015 C -96.826005,11.160832 -94.811733,17.312986 -97.513659,16.343693 C -97.761634,14.069338 -96.540296,11.503872 -94.079202,11.144781 z M -96.092078,17.769997 C -94.955541,20.674074 -89.076731,23.666407 -94.015483,27.006349 C -97.60628,27.62642 -98.934421,19.606605 -96.092078,17.769997 z"
         style="fill:#fcef3c;fill-opacity:1;fill-rule:evenodd;stroke:none;stroke-width:0.61094344px;stroke-linecap:butt;stroke-linejoin:miter;stroke-opacity:1"
         sodipodi:nodetypes="ccccccccccccccc" />
      <path
         sodipodi:nodetypes="ccccccccccccccccc"
         style="fill:#fcef3c;fill-opacity:1;fill-rule:evenodd;stroke:none;stroke-width:0.61094344px;stroke-linecap:butt;stroke-linejoin:miter;stroke-opacity:1"
         d="M -102.94165,-21.623001 C -119.73786,-18.353843 -108.99983,-1.038566 -102.4897,6.9059844 C -100.6859,16.4869 -94.822856,2.8938756 -94.701179,3.9118596 C -91.477998,13.724365 -87.639522,2.2761732 -90.370466,-2.9531516 C -91.230024,-7.5343356 -90.772462,-13.259968 -92.43563,-17.142924 C -94.907694,-20.164672 -98.214984,-22.59936 -102.66823,-21.651737 C -102.75937,-21.642163 -102.8505,-21.632576 -102.94165,-21.623001 z M -85.833326,-3.9838076 C -84.486357,-0.7905404 -87.15252,7.7201028 -82.730056,6.8382596 C -74.261845,2.0259972 -81.263445,-14.503027 -81.979963,-14.4816 C -77.924501,-10.518976 -71.675566,7.3446532 -73.976123,-6.3323132 C -82.066811,-22.639488 -86.756565,-21.380032 -85.833326,-3.9838076 z M -106.88915,-11.836467 C -104.46978,-11.903385 -101.23002,-12.670041 -99.31531,-11.582003 C -99.283912,-7.2654204 -106.52186,-13.481497 -102.17689,-7.2450556 C -105.64897,-4.1931132 -107.47587,-11.884236 -108.75985,-11.266086 L -106.88915,-11.836467 z"
         id="path5471" />
      <path
         id="path5473"
         d="M -106.68459,-49.869862 C -105.71559,-43.8384 -101.39745,-37.061913 -100.93387,-32.505011 C -101.38963,-32.518592 -102.7547,-35.162624 -102.79738,-33.138496 C -103.0327,-27.944972 -106.98485,-40.17687 -106.74648,-30.886732 C -108.54113,-19.35904 -106.64981,-39.436953 -110.19224,-39.960064 C -123.04229,-46.08398 -105.61922,-31.03662 -111.54664,-26.164697 C -115.88659,-18.518886 -97.030715,-30.491417 -92.931272,-27.431398 C -94.180667,-33.156672 -93.673902,-39.72718 -96.019822,-44.892851 C -98.411771,-47.824384 -102.89761,-49.896512 -106.68459,-49.869862 z M -102.64414,-46.673062 C -93.006792,-47.265523 -98.016277,-26.782643 -99.7426,-39.845606 C -100.73912,-42.22158 -103.26462,-43.695616 -102.64414,-46.673062 z M -97.519931,-26.063142 C -103.57859,-25.506777 -113.3378,-24.323481 -113.31315,-16.940121 C -112.76279,-15.913113 -102.00485,-27.082214 -95.410926,-21.778713 C -95.200546,-24.342041 -93.302958,-26.868454 -97.519931,-26.063142 z M -90.907374,-26.011776 C -103.04512,-20.42926 -82.019502,-13.534323 -87.940398,-24.500288 C -88.857826,-25.259481 -89.507579,-26.2656 -90.907374,-26.011776 z M -90.864187,-16.921062 C -89.965627,-8.3718396 -89.067067,0.1773572 -88.168507,8.7266564 C -84.598523,7.8459524 -87.407893,2.4168964 -86.852693,-0.3794172 C -88.546594,-4.9675772 -86.21341,-15.90688 -90.864187,-16.921062 z"
         style="fill:#fcef3c;fill-opacity:1;fill-rule:evenodd;stroke:none;stroke-width:0.61094344px;stroke-linecap:butt;stroke-linejoin:miter;stroke-opacity:1"
         sodipodi:nodetypes="ccccccccccccccccccccccc" />
      <path
         style="fill:#fcef3c;fill-opacity:1;stroke:none;stroke-width:1.64999998;stroke-linecap:butt;stroke-linejoin:round;stroke-miterlimit:4;stroke-dasharray:none;stroke-opacity:1"
         d="M 100.64648,44.459213 C 118.92749,42.156532 115.43552,36.621722 125.78207,31.912039 C 166.7939,13.243674 169.6703,62.552218 162.83903,70.759616 C 157.03555,77.73216 155.17932,83.325095 156.78907,88.035098 C 158.63471,93.435354 162.80774,89.524148 161.07657,104.8116 C 160.01698,114.16877 156.84786,111.70997 154.70394,114.90909 C 158.18489,120.8119 155.02752,123.36506 152.02344,125.99556 C 151.89393,130.29773 154.04729,133.33638 156.54092,136.1867 C 151.49033,134.83474 143.16085,135.85078 145.78441,124.05769 C 143.86267,127.30533 141.48593,127.67254 141.35748,135.90089 C 132.4613,129.17318 137.03545,127.06876 139.48538,123.83772 C 143.08312,119.09295 143.57137,116.90925 139.28271,113.2239 C 137.99199,112.34217 136.09238,112.30813 136.8658,108.55282 L 131.17941,107.20758 C 133.33451,101.21307 131.13318,95.854464 138.40465,89.113114 C 133.11376,89.858381 131.76242,96.619162 128.22356,102.76206 C 129.26008,96.038708 123.47638,91.644493 133.43089,83.779392 C 136.23028,81.567578 137.72529,77.978868 130.23503,76.787751 C 122.96761,75.632103 125.52863,72.467661 126.1902,69.479808 C 124.62659,65.19945 127.56848,62.790503 129.95597,60.151271 L 126.25382,59.44864 C 132.85813,55.544013 130.4706,54.335271 134.67629,50.726311 C 137.17478,42.878874 128.65636,43.046183 123.64895,48.020404 C 120.48498,51.060391 115.4288,53.790772 104.13296,51.28434 C 102.54066,49.483456 100.49355,47.501824 100.64648,44.459213 z"
         id="path5525"
         sodipodi:nodetypes="csssscccccscccccssccccccc" />
      <path
         style="fill:#000000;fill-opacity:1;stroke:none;stroke-width:1.5;stroke-linecap:butt;stroke-linejoin:round;stroke-miterlimit:4;stroke-dasharray:none;stroke-opacity:1"
         d="M 115.05474,46.30034 C 123.71867,43.795175 129.41259,28.0032 141.78671,37.357338 C 149.04949,42.847616 143.64114,52.576525 144.91056,59.072653 C 143.87962,55.059354 144.92507,48.67858 143.34912,46.990541 C 141.74692,55.8917 139.40223,57.094772 138.10383,58.052992 C 141.15001,52.080474 142.04624,46.669824 139.85493,41.496999 C 134.89746,29.794317 123.37394,44.341351 115.05474,46.30034 z"
         id="path5527"
         sodipodi:nodetypes="cscccsc" />
      <path
         style="fill:#000000;fill-opacity:1;stroke:none;stroke-width:1.5;stroke-linecap:butt;stroke-linejoin:round;stroke-miterlimit:4;stroke-dasharray:none;stroke-opacity:1"
         d="M 144.48392,92.01984 C 137.99618,79.622695 131.1913,70.625037 144.64867,62.133236 C 138.22934,68.761511 137.74048,69.579226 139.6105,74.488986 C 140.65053,70.092493 144.11307,66.120807 147.2178,64.782234 C 137.11266,74.747226 142.4791,85.30688 144.48392,92.01984 z"
         id="path5529"
         sodipodi:nodetypes="ccccc" />
      <path
         style="fill:#000000;fill-opacity:1;stroke:none;stroke-width:1.5;stroke-linecap:butt;stroke-linejoin:round;stroke-miterlimit:4;stroke-dasharray:none;stroke-opacity:1"
         d="M 148.05443,118.76099 C 154.84891,114.43201 147.01086,113.82913 151.77307,103.15057 C 154.59477,96.823309 148.0425,95.786701 146.9583,85.656871 C 145.44399,95.980212 152.34098,95.915418 150.19217,101.51739 C 145.25192,114.39661 151.6069,112.54838 148.05443,118.76099 z"
         id="path5531"
         sodipodi:nodetypes="cscsc" />
      <path
         style="fill:#000000;fill-opacity:1;stroke:none;stroke-width:1.5;stroke-linecap:butt;stroke-linejoin:round;stroke-miterlimit:4;stroke-dasharray:none;stroke-opacity:1"
         d="M 141.63175,91.61312 C 144.00598,94.735194 145.3463,97.503847 143.51846,102.07845 C 141.6883,106.65885 150.06779,113.00865 144.56132,117.90486 C 147.34984,113.29324 140.20105,108.02186 141.91465,101.10111 C 142.83951,97.36585 142.91181,95.409716 141.63175,91.61312 z"
         id="path5533"
         sodipodi:nodetypes="cscsc" />
      <path
         style="fill:#000000;fill-opacity:1;stroke:none;stroke-width:1.5;stroke-linecap:butt;stroke-linejoin:round;stroke-miterlimit:4;stroke-dasharray:none;stroke-opacity:1"
         d="M 136.56552,98.909287 C 137.28342,100.82593 138.02372,102.10159 138.89219,99.707149 C 138.55629,102.98405 137.96584,106.27325 140.80597,109.39685 C 136.23096,106.83359 137.36459,102.58637 136.56552,98.909287 z"
         id="path5535"
         sodipodi:nodetypes="cccc" />
      <path
         style="fill:#000000;fill-opacity:1;stroke:none;stroke-width:1.5;stroke-linecap:butt;stroke-linejoin:round;stroke-miterlimit:4;stroke-dasharray:none;stroke-opacity:1"
         d="M 154.98078,37.677824 C 156.88094,40.159335 158.67551,44.618701 157.33339,48.24425 L 159.93192,48.334989 C 159.80761,44.718247 159.68893,39.967245 154.98078,37.677824 z"
         id="path5537"
         sodipodi:nodetypes="cccc" />
      <path
         style="fill:#000000;fill-opacity:1;stroke:none;stroke-width:1.5;stroke-linecap:butt;stroke-linejoin:round;stroke-miterlimit:4;stroke-dasharray:none;stroke-opacity:1"
         d="M 158.1658,63.731341 L 155.7226,63.338919 C 155.15157,65.337588 153.80744,66.915367 152.16995,68.333415 L 154.32068,68.306151 C 156.03518,67.14514 157.20382,66.755764 158.1658,63.731341 z"
         id="path5539"
         sodipodi:nodetypes="ccccc" />
      <path
         style="fill:#000000;fill-opacity:1;stroke:none;stroke-width:1.5;stroke-linecap:butt;stroke-linejoin:round;stroke-miterlimit:4;stroke-dasharray:none;stroke-opacity:1"
         d="M 152.7539,63.337613 L 151.0407,62.561191 C 142.7731,71.956493 144.33707,74.540455 144.24975,79.42002 C 145.38109,74.304128 145.14888,69.34249 152.7539,63.337613 z"
         id="path5541"
         sodipodi:nodetypes="cccc" />
      <path
         style="fill:#000000;fill-opacity:1;stroke:none;stroke-width:1.5;stroke-linecap:butt;stroke-linejoin:round;stroke-miterlimit:4;stroke-dasharray:none;stroke-opacity:1"
         d="M 144.47291,36.636698 C 149.73563,38.703488 150.85859,42.439706 151.19227,46.494221 L 148.63611,46.404954 C 149.71323,40.468493 146.5952,39.093991 144.47291,36.636698 z"
         id="path5543"
         sodipodi:nodetypes="cccc" />
      <path
         sodipodi:nodetypes="ccccccccccccccccccccccccccccccccccc"
         id="path5673"
         d="M 55.785157,29.502848 C 46.668587,40.093236 41.13676,52.399783 37.648965,66.01856 C 6.1920944,66.494784 -50.779784,56.267303 -74.649378,43.491226 C -77.453666,51.130343 -76.174702,54.993293 -74.882043,59.047552 L -73.031035,59.09856 C -70.071611,74.774298 -60.29661,67.137818 -61.231035,61.69856 L -55.231035,61.69856 C -55.26411,72.443956 -44.797051,72.287309 -45.631035,62.89856 L -39.431035,64.09856 C -38.979054,73.204493 -31.834402,74.707124 -28.991035,65.29856 C -3.1292624,68.824384 9.5332528,74.41961 47.768965,74.81856 L 47.848965,75.21856 L 61.248965,75.21856 C 63.696709,88.379943 73.747269,82.551181 73.088965,76.21856 L 79.888965,76.61856 C 78.867576,87.133351 92.479314,87.308186 91.688965,76.21856 L 98.888965,76.01856 C 100.09508,88.325607 110.73205,84.188634 109.48896,76.01856 L 109.28896,67.21856 L 108.36896,67.21856 C 107.91065,49.581415 100.53589,37.811456 84.288965,31.17856 C 72.368696,26.857114 64.015531,28.084468 55.785157,29.502848 z M 60.488965,34.49856 C 67.02549,41.680205 68.312568,55.144794 66.728965,67.09856 L 48.088965,67.01856 C 48.462814,55.310503 54.659934,44.312538 60.488965,34.49856 z M 72.728965,36.21856 C 86.776453,36.881562 88.559147,53.897191 89.968965,67.17856 L 75.608965,67.13856 C 76.457221,57.595968 75.037726,44.636084 72.728965,36.21856 z M 92.248965,40.53856 L 92.488965,40.57856 C 100.32273,47.962394 104.736,56.676634 104.44896,67.21856 L 98.448965,67.17856 C 97.14572,59.067136 95.276062,50.373824 92.248965,40.53856 z"
         style="fill:#fcef3c;fill-opacity:1;fill-rule:nonzero;stroke:#000000;stroke-width:1.27999997;stroke-linecap:butt;stroke-linejoin:round;stroke-miterlimit:4;stroke-dasharray:none;stroke-dashoffset:0;stroke-opacity:1" />
      <path
         sodipodi:nodetypes="cccccccccc"
         id="path5685"
         d="M -71.489915,13.5813 C -43.363694,32.051341 -24.992763,27.760346 5.999416,11.734541 L 10.578322,11.334388 C 3.9996976,21.831488 2.175096,37.541287 -9.8506832,33.26601 C -10.510997,39.096461 -14.784162,36.83986 -21.474069,31.588378 C -22.764296,37.668506 -29.336917,39.173594 -33.801928,33.189005 C -38.71517,41.019303 -43.153582,40.233472 -46.481992,33.989312 C -51.271061,39.262772 -56.230472,37.615399 -57.753173,30.788058 C -62.735688,33.994919 -68.499963,33.09289 -67.615458,23.985383 C -74.226568,29.570484 -81.449083,16.241549 -71.489915,13.5813 z"
         style="fill:#fcef3c;fill-opacity:1;fill-rule:nonzero;stroke:#000000;stroke-width:1.27999997;stroke-linecap:butt;stroke-linejoin:round;stroke-miterlimit:4;stroke-dasharray:none;stroke-dashoffset:0;stroke-opacity:1" />
      <g
         transform="matrix(1.28,0,0,1.28,-1264.7906,-1008.8596)"
         id="g6650">
        <path
           style="opacity:1;fill:#fcef3c;fill-opacity:1;fill-rule:nonzero;stroke:#000000;stroke-width:1;stroke-linecap:butt;stroke-linejoin:round;stroke-miterlimit:4;stroke-dasharray:none;stroke-dashoffset:0;stroke-opacity:1"
           d="M 993.76447,335.73511 C 992.78048,333.60403 993.77395,331.47296 988.39416,329.34188 C 988.39416,329.34188 994.75451,325.23284 997.85615,324.48302 C 1000.6898,323.79797 1004.7726,323.67572 1007.5739,324.48302 C 1010.6214,325.36127 1014.7493,327.48083 1016.5244,330.10907 C 1019.9742,335.21674 1015.7572,346.47575 1015.7572,346.47575 L 1008.5968,349.03304 L 1007.0624,338.80387 L 993.76447,335.73511 z"
           id="path6644"
           transform="translate(0,392.36218)"
           sodipodi:nodetypes="ccssscccc" />
        <path
           style="opacity:1;fill:#fcef3c;fill-opacity:1;fill-rule:nonzero;stroke:#000000;stroke-width:1;stroke-linecap:butt;stroke-linejoin:round;stroke-miterlimit:4;stroke-dasharray:none;stroke-dashoffset:0;stroke-opacity:1"
           d="M 996.27593,336.59397 L 990.95145,346.73148 L 994.0202,347.49866 L 992.74156,350.56742 L 993.58291,351.00618 L 993.79552,352.98783 C 995.45097,353.51494 997.34943,354.22507 998.10422,354.72375 L 1000.6157,360.22327 L 1004.5051,361.56378 L 1008.3411,336.12835 L 996.27593,336.59397 z"
           id="path6646"
           transform="translate(0,392.36218)"
           sodipodi:nodetypes="ccccccccccc" />
        <path
           style="opacity:1;fill:#fcef3c;fill-opacity:1;fill-rule:nonzero;stroke:#000000;stroke-width:1;stroke-linecap:butt;stroke-linejoin:round;stroke-miterlimit:4;stroke-dasharray:none;stroke-dashoffset:0;stroke-opacity:1"
           d="M 992.77584,734.39776 C 997.82117,727.89624 1004.8885,729.22656 1004.8804,737.30355 L 1002.3231,750.60148 L 1014.532,743.656 C 1008.2588,737.15146 1014.179,737.36206 1011.5294,728.35302 C 1010.1937,723.81156 1003.38,722.62391 999.37826,723.41671 C 990.55388,725.16493 989.00122,729.7687 992.77584,734.39776 z"
           id="path6642"
           sodipodi:nodetypes="ccccssc" />
      </g>
      <path
         id="path6858"
         d="M -9.693064,51.701952 L 32.023109,55.294733 L 41.803448,46.711975 L 46.194616,40.12521 L 55.785157,29.502848 L 37.412267,32.141261 L -3.4412752,35.486605 L -9.693064,51.701952 z"
         style="fill:#fcef3c;fill-opacity:1;fill-rule:nonzero;stroke:#000000;stroke-width:1.27999997;stroke-linecap:butt;stroke-linejoin:round;stroke-miterlimit:4;stroke-dasharray:none;stroke-dashoffset:0;stroke-opacity:1" />
      <g
         transform="matrix(1.28,0,0,1.28,-1217.911,-509.34144)"
         id="g6744">
        <path
           style="opacity:1;fill:#fcef3c;fill-opacity:1;fill-rule:nonzero;stroke:#000000;stroke-width:1;stroke-linecap:butt;stroke-linejoin:round;stroke-miterlimit:4;stroke-dasharray:none;stroke-dashoffset:0;stroke-opacity:1"
           d="M 956.70392,431.66839 C 951.59605,434.07209 945.6749,436.63176 941.38337,438.8672 C 939.87054,439.65522 940.59881,441.11569 941.93713,441.82056 C 952.53118,447.40026 950.86024,451.60383 953.75056,456.21819 C 954.84931,460.86781 955.38073,460.55251 957.07309,470.61582 C 957.72495,471.7904 958.03371,473.04123 960.76479,473.75376 C 962.6668,475.09049 964.28305,476.56259 961.68772,480.02965 C 957.71588,485.24519 954.75318,493.31997 948.02843,490.73558 C 945.04694,489.58625 945.73188,488.82286 947.29009,488.15139 C 950.4958,488.91055 951.50709,486.27834 952.0893,482.98301 C 952.68581,477.33067 951.10871,473.18313 948.58218,469.69289 L 941.75254,461.57115 L 943.78297,460.64823 L 934.18456,449.20396 C 932.63561,447.35713 931.40083,445.29798 930.49286,443.11265 C 929.4589,440.62408 926.75941,438.34109 930.67744,433.51424 C 936.45299,426.399 937.47543,424.98747 939.90669,421.88538 L 956.70392,431.66839 z"
           id="path6620"
           sodipodi:nodetypes="cssccccccccccssscc" />
        <path
           style="opacity:1;fill:none;fill-opacity:1;fill-rule:nonzero;stroke:#000000;stroke-width:1;stroke-linecap:butt;stroke-linejoin:round;stroke-miterlimit:4;stroke-dasharray:none;stroke-dashoffset:0;stroke-opacity:1"
           d="M 944.22312,460.94756 L 952.46789,456.23626"
           id="path6655" />
      </g>
      <g
         id="g6717"
         transform="matrix(1.28,0,0,1.28,-1217.911,-1011.565)">
        <path
           style="opacity:1;fill:#fcef3c;fill-opacity:1;fill-rule:nonzero;stroke:#000000;stroke-width:1;stroke-linecap:butt;stroke-linejoin:round;stroke-miterlimit:4;stroke-dasharray:none;stroke-dashoffset:0;stroke-opacity:1"
           d="M 937.05069,426.00857 L 938.49731,424.38112 L 941.75221,426.91271 L 943.37966,425.37567 L 942.2947,428.26892 L 944.64546,429.89637 L 947.35788,427.18395 L 945.45919,430.7101 L 946.27291,432.97045 L 948.53326,432.88003 L 950.34154,429.4443 L 949.25657,433.69376 L 950.25113,435.32121 L 953.68686,434.86914 L 956.58011,437.12949 L 962.18578,437.58156 L 963.99406,439.7515 L 967.88186,439.1186 L 969.4189,435.50204 L 973.21628,435.68287 L 973.03546,432.42796 L 974.93415,434.50749 L 978.64112,433.06086 L 976.19995,423.92904 L 954.95266,420.67415 L 945.73043,417.50965 C 941.15323,421.36449 933.98421,423.60901 937.05069,426.00857 z"
           id="path6634"
           transform="translate(0,392.36218)"
           sodipodi:nodetypes="ccccccccccccccccccccccccccc" />
        <path
           style="opacity:1;fill:#fcef3c;fill-opacity:1;fill-rule:nonzero;stroke:#000000;stroke-width:1;stroke-linecap:butt;stroke-linejoin:round;stroke-miterlimit:4;stroke-dasharray:none;stroke-dashoffset:0;stroke-opacity:1"
           d="M 939.03979,421.93994 L 942.11387,421.12621 L 944.01256,422.57284 L 946.90581,420.22207 L 944.73587,423.29615 L 947.80995,425.46609 L 950.52237,422.93449 L 948.8045,425.64691 L 952.24024,427.99768 L 954.41017,423.83863 L 953.50603,428.17851 L 956.39928,429.26347 L 958.11715,425.19484 L 957.57466,429.62513 L 961.28164,430.43886 L 961.91453,426.09898 L 962.45702,431.07175 L 965.71192,432.24714 L 966.25441,427.00312 L 966.61606,432.33755 L 969.50931,432.60879 L 970.32304,425.01402 L 970.59428,432.78962 L 973.84918,432.51838 L 972.76421,427.00312 L 975.20539,432.51838 L 977.37533,432.24714 L 976.92326,430.80051 L 978.36988,432.15672 L 981.0823,430.98134 L 984.87969,427.26347 L 987.68252,423.45519 L 988.67708,420.47153 C 978.99865,420.60662 983.00764,416.52925 980.81106,412.17523 L 955.13348,409.01074 C 951.63927,415.45354 945.44223,414.94368 939.03979,421.93994 z"
           id="path6636"
           transform="translate(0,392.36218)"
           sodipodi:nodetypes="cccccccccccccccccccccccccccccccccccc" />
        <path
           style="opacity:1;fill:#fcef3c;fill-opacity:1;fill-rule:nonzero;stroke:#000000;stroke-width:1;stroke-linecap:butt;stroke-linejoin:round;stroke-miterlimit:4;stroke-dasharray:none;stroke-dashoffset:0;stroke-opacity:1"
           d="M 953.41562,411.45192 L 952.96355,409.82446 C 955.76952,408.1012 957.07385,406.0776 958.75004,404.12838 L 981.53437,407.74494 L 982.16727,414.88765 L 979.72609,414.97806 L 979.45485,412.89854 L 978.64112,414.88765 L 975.38622,414.70682 L 975.47663,412.35606 L 973.9396,414.43558 L 971.49842,414.07392 L 971.408,411.81357 L 970.32304,413.98351 L 967.42979,413.62185 L 967.97227,411.27109 L 965.98316,413.53144 L 963.81323,413.35061 L 964.17488,410.09571 L 962.00495,412.71771 L 959.83501,410.90943 L 962.72826,407.11205 L 958.65963,410.81902 L 957.30342,409.73405 L 959.92543,406.47915 L 956.12804,410.18612 C 955.4932,409.71039 954.76439,409.5479 953.41562,411.45192 z"
           id="path6638"
           transform="translate(0,392.36218)"
           sodipodi:nodetypes="ccccccccccccccccccccccccccc" />
        <path
           style="opacity:1;fill:#fcef3c;fill-opacity:1;fill-rule:nonzero;stroke:#000000;stroke-width:1;stroke-linecap:butt;stroke-linejoin:round;stroke-miterlimit:4;stroke-dasharray:none;stroke-dashoffset:0;stroke-opacity:1"
           d="M 946.90581,420.22207 L 952.3917,416.41292"
           id="path6669"
           transform="translate(0,392.36218)" />
        <path
           style="opacity:1;fill:#fcef3c;fill-opacity:1;fill-rule:nonzero;stroke:#000000;stroke-width:1;stroke-linecap:butt;stroke-linejoin:round;stroke-miterlimit:4;stroke-dasharray:none;stroke-dashoffset:0;stroke-opacity:1"
           d="M 950.52237,422.93449 L 953.14236,419.6032"
           id="path6671"
           transform="translate(0,392.36218)" />
        <path
           style="opacity:1;fill:#fcef3c;fill-opacity:1;fill-rule:nonzero;stroke:#000000;stroke-width:1;stroke-linecap:butt;stroke-linejoin:round;stroke-miterlimit:4;stroke-dasharray:none;stroke-dashoffset:0;stroke-opacity:1"
           d="M 954.41017,423.83863 L 957.64628,416.22526"
           id="path6673"
           transform="translate(0,392.36218)" />
        <path
           style="opacity:1;fill:#fcef3c;fill-opacity:1;fill-rule:nonzero;stroke:#000000;stroke-width:1;stroke-linecap:butt;stroke-linejoin:round;stroke-miterlimit:4;stroke-dasharray:none;stroke-dashoffset:0;stroke-opacity:1"
           d="M 966.25441,427.00312 L 966.46646,422.04282"
           id="path6675"
           transform="translate(0,392.36218)" />
        <path
           style="opacity:1;fill:#fcef3c;fill-opacity:1;fill-rule:nonzero;stroke:#000000;stroke-width:1;stroke-linecap:butt;stroke-linejoin:round;stroke-miterlimit:4;stroke-dasharray:none;stroke-dashoffset:0;stroke-opacity:1"
           d="M 962.18578,437.58156 L 962.18578,437.58156 L 963.08852,433.49029"
           id="path6677"
           transform="translate(0,392.36218)" />
        <path
           style="opacity:1;fill:#fcef3c;fill-opacity:1;fill-rule:nonzero;stroke:#000000;stroke-width:1;stroke-linecap:butt;stroke-linejoin:round;stroke-miterlimit:4;stroke-dasharray:none;stroke-dashoffset:0;stroke-opacity:1"
           d="M 956.58011,437.12949 L 956.70392,431.66839"
           id="path6680"
           transform="translate(0,392.36218)" />
        <path
           style="opacity:1;fill:#fcef3c;fill-opacity:1;fill-rule:nonzero;stroke:#000000;stroke-width:1;stroke-linecap:butt;stroke-linejoin:round;stroke-miterlimit:4;stroke-dasharray:none;stroke-dashoffset:0;stroke-opacity:1"
           d="M 953.68686,434.86914 L 953.33002,431.23833"
           id="path6682"
           transform="translate(0,392.36218)" />
        <path
           style="opacity:1;fill:#fcef3c;fill-opacity:1;fill-rule:nonzero;stroke:#000000;stroke-width:1;stroke-linecap:butt;stroke-linejoin:round;stroke-miterlimit:4;stroke-dasharray:none;stroke-dashoffset:0;stroke-opacity:1"
           d="M 978.28925,416.97591 C 977.73129,422.49486 978.84814,425.78071 981.29187,427.2974"
           id="path6684"
           transform="translate(0,392.36218)"
           sodipodi:nodetypes="cc" />
      </g>
      <path
         sodipodi:nodetypes="cccccc"
         id="path6648"
         d="M 28.575467,-46.539801 L 29.230136,-53.413811 C 26.411858,-54.479577 23.749458,-56.246784 20.064798,-53.413811 C 17.274808,-50.59255 16.139307,-48.32279 9.5901232,-44.24846 L 10.244779,-35.737792 L 28.575467,-46.539801 z"
         style="fill:#fcef3c;fill-opacity:1;fill-rule:nonzero;stroke:#000000;stroke-width:1.27999997;stroke-linecap:butt;stroke-linejoin:round;stroke-miterlimit:4;stroke-dasharray:none;stroke-dashoffset:0;stroke-opacity:1" />
      <g
         transform="matrix(1.28,0,0,1.28,-1217.911,-1011.565)"
         id="g6686">
        <path
           style="opacity:0.98000004;fill:#fcef3c;fill-opacity:1;fill-rule:nonzero;stroke:#000000;stroke-width:1;stroke-linecap:butt;stroke-linejoin:round;stroke-miterlimit:4;stroke-dasharray:none;stroke-dashoffset:0;stroke-opacity:1"
           d="M 956.04439,407.97867 C 963.47251,401.20952 969.96886,408.76623 973.93974,409.85446 C 978.35711,409.29074 978.22643,406.99996 982.12879,407.59508 C 982.12879,407.59508 980.3409,399.53835 980.33869,395.95939 C 980.33663,392.623 980.6684,388.53126 981.66317,385.34662 C 982.39389,383.00729 984.03792,379.99706 984.0926,377.54687 C 984.19349,373.02614 983.49078,366.58775 980.46655,363.22602 C 978.2986,360.81613 973.59809,359.15305 970.36523,359.39008 C 966.99126,359.63746 963.75511,363.9 960.51965,364.88826 C 956.41151,366.14308 956.17242,370.35696 955.66079,373.19947 C 954.79165,378.02828 958.44117,384.40412 958.47382,389.31042 C 958.49631,392.69055 958.50174,396.696 956.68371,400.43465 C 955.69043,402.47726 956.04439,407.97867 956.04439,407.97867 z"
           id="path6640"
           transform="translate(0,392.36218)"
           sodipodi:nodetypes="cccsssssssssc" />
        <path
           style="opacity:1;fill:none;fill-opacity:1;fill-rule:nonzero;stroke:#000000;stroke-width:1;stroke-linecap:butt;stroke-linejoin:round;stroke-miterlimit:4;stroke-dasharray:none;stroke-dashoffset:0;stroke-opacity:1"
           d="M 963.18884,396.59436 C 963.18884,396.59436 963.1559,391.69382 962.5917,389.69406 C 962.27748,388.58032 960.81808,387.40011 960.86662,386.24391 C 960.90671,385.28891 961.86985,384.21926 962.52535,383.5236 C 963.12364,382.88866 964.36687,382.54446 964.91391,381.86487 C 965.53509,381.09317 966.17454,378.81282 966.17454,378.81282"
           id="path6657"
           transform="translate(0,392.36218)"
           sodipodi:nodetypes="cssssc" />
        <path
           style="opacity:1;fill:none;fill-opacity:1;fill-rule:nonzero;stroke:#000000;stroke-width:1;stroke-linecap:butt;stroke-linejoin:round;stroke-miterlimit:4;stroke-dasharray:none;stroke-dashoffset:0;stroke-opacity:1"
           d="M 958.21266,397.65594 C 958.21266,397.65594 958.42681,399.36801 958.87615,399.91181 C 959.34681,400.48141 960.34183,400.89136 961.06567,401.03974 C 961.61304,401.15195 962.41925,401.14786 962.92344,400.90705 C 963.6605,400.55501 964.13661,399.41826 964.78121,398.91658 C 965.4983,398.35849 966.54661,397.64694 967.43518,397.4569 C 968.39211,397.25224 970.68628,397.72229 970.68628,397.72229"
           id="path6659"
           transform="translate(0,392.36218)"
           sodipodi:nodetypes="cssssss" />
        <path
           style="opacity:1;fill:none;fill-opacity:1;fill-rule:nonzero;stroke:#000000;stroke-width:1;stroke-linecap:butt;stroke-linejoin:round;stroke-miterlimit:4;stroke-dasharray:none;stroke-dashoffset:0;stroke-opacity:1"
           d="M 956.88568,380.20615 C 956.88568,380.20615 959.52073,380.86718 960.66758,380.80329 C 961.71864,380.74473 964.05138,379.8744 964.05138,379.8744"
           id="path6661"
           transform="translate(0,392.36218)"
           sodipodi:nodetypes="csc" />
      </g>
      <g
         id="g3403"
         transform="matrix(0.9659259,-0.2588191,0.2588191,0.9659259,-675.96805,92.625499)">
        <path
           d="M 683.81435,107.32052 C 685.8439,99.053303 688.41276,99.053303 690.34296,107.32052 C 692.27316,115.58773 690.72944,113.62585 688.60055,121.89306 C 686.47165,130.16028 686.84579,130.46284 684.71689,122.19562 C 682.588,113.92841 681.7848,115.58773 683.81435,107.32052 z"
           style="fill:#fcef3c;fill-opacity:1;fill-rule:nonzero;stroke:#000000;stroke-width:0.99348485;stroke-miterlimit:4;stroke-dasharray:none;stroke-opacity:1"
           id="path4243"
           sodipodi:nodetypes="csssc" />
        <g
           style="fill:#fcef3c"
           transform="matrix(0.198697,0,0,0.198697,634.19247,50.172724)"
           id="g9496">
          <path
             d="M 244.45691,371.58029 L 285.87317,371.58029 L 279.87317,777.56938 L 265.16504,810.92477 L 250.45691,777.56938 L 244.45691,371.58029 z"
             style="fill:#fcef3c;fill-opacity:1;fill-rule:nonzero;stroke:#000000;stroke-width:6.03934574;stroke-miterlimit:4;stroke-dasharray:none;stroke-opacity:1"
             id="path4246"
             sodipodi:nodetypes="cccccc" />
        </g>
        <path
           sodipodi:nodetypes="ccccccc"
           id="rect4251"
           d="M 673.92494,120.19441 L 686.87996,121.88401 L 699.83499,120.19441 L 699.83499,126.69492 L 686.87996,125.00532 L 673.92494,126.69492 L 673.92494,120.19441 z"
           style="fill:#fcef3c;fill-opacity:1;fill-rule:nonzero;stroke:#000000;stroke-width:0.99348485;stroke-miterlimit:4;stroke-opacity:1" />
      </g>
      <g
         transform="matrix(1.28,0,0,1.28,-1226.8446,-512.44878)"
         id="g6774">
        <g
           id="g6762"
           transform="translate(100.16846,5.9797323)">
          <path
             sodipodi:nodetypes="cccccccccc"
             id="path5517"
             d="M 747.21121,314.06367 L 760.37636,320.12217 L 761.43765,325.40538 L 852.19333,404.37559 L 861.96111,409.6221 L 855.90013,416.25013 C 852.25895,416.91232 853.02738,412.07869 849.3672,408.51888 L 759.74737,327.20225 L 754.86094,325.63583 L 747.21121,314.06367 z"
             style="fill:#000000;fill-opacity:1;stroke:none;stroke-width:2;stroke-linecap:butt;stroke-linejoin:round;stroke-miterlimit:4;stroke-dasharray:none;stroke-opacity:1" />
          <g
             transform="translate(150,0)"
             id="g6756">
            <path
               sodipodi:nodetypes="cccc"
               style="fill:#fcef3c;fill-opacity:1;stroke:none;stroke-width:2.5;stroke-linecap:butt;stroke-linejoin:round;stroke-miterlimit:4;stroke-dasharray:none;stroke-opacity:1"
               d="M 703.52972,407.17643 L 700.06554,407.45858 L 610.19088,325.90224 L 703.52972,407.17643 z"
               id="path5519" />
            <path
               style="fill:#fcef3c;fill-opacity:1;stroke:#000000;stroke-width:1.04737496;stroke-linecap:butt;stroke-linejoin:round;stroke-miterlimit:4;stroke-dasharray:none;stroke-opacity:1"
               d="M 708.72646,410.87607 L 765.24753,462.94963 L 763.21809,465.78503 L 706.27245,413.14913 L 708.72646,410.87607 z"
               id="path5521"
               sodipodi:nodetypes="ccccc" />
            <path
               id="path5523"
               d="M 600.43349,316.73351 L 605.4177,324.21966 L 609.50678,325.47516 L 609.34449,321.01865 L 600.43349,316.73351 z"
               style="fill:#fcef3c;fill-opacity:1;fill-rule:nonzero;stroke:none;stroke-width:3;stroke-linecap:butt;stroke-linejoin:round;stroke-miterlimit:4;stroke-dasharray:none;stroke-opacity:1" />
            <path
               sodipodi:nodetypes="csssccssccccc"
               id="path5545"
               d="M 614.02808,327.87328 C 614.02808,327.87328 618.4135,326.6216 620.33688,326.70072 C 622.15865,326.77567 624.38111,328.4129 626.20079,328.29836 C 629.97775,328.06062 634.0936,323.85063 637.86013,323.48227 C 643.01888,322.97775 654.80479,326.85972 654.80479,326.85972 C 651.7308,328.70708 648.15599,325.76713 643.23047,329.24127 C 643.23047,329.24127 653.24946,330.16907 657.44138,331.13039 C 659.98539,331.71381 663.13404,333.39736 665.70346,333.85643 C 668.78665,334.4073 676.13723,334.22078 676.13723,334.22078 C 671.30624,337.68895 663.77536,337.56481 656.17948,337.35423 C 660.79346,341.01861 664.55438,338.70732 668.66348,338.83483 C 655.77317,348.32623 646.18511,335.70264 628.26389,340.55799 L 614.02808,327.87328 z"
               style="fill:#fcef3c;fill-opacity:1;fill-rule:nonzero;stroke:#000000;stroke-width:1.04737496;stroke-linecap:butt;stroke-linejoin:round;stroke-miterlimit:4;stroke-dasharray:none;stroke-opacity:1" />
          </g>
        </g>
        <g
           id="g6751"
           transform="matrix(0.9396927,0.3420202,-0.3420202,0.9396927,327.60423,-676.9059)">
          <path
             sodipodi:nodetypes="ccccccccccccccccc"
             id="path6622"
             d="M 971.26029,776.04656 L 975.73555,785.63641 C 974.03241,793.49769 972.57345,796.43703 970.55704,800.8523 C 968.08462,805.83674 964.28301,807.49065 961.92616,808.1406 L 961.15898,810.18643 L 957.70663,812.87159 C 957.14609,814.26558 958.56283,814.27546 959.6246,814.53383 C 959.09918,815.97754 958.99837,817.10839 961.67043,816.19607 C 961.2698,817.99419 961.86452,818.7384 964.35559,817.47472 C 965.30948,817.48056 964.45938,819.04986 967.68008,817.09113 L 971.51602,812.99946 L 972.28321,808.65206 L 976.11915,804.30466 C 979.63,801.05651 981.40582,797.23001 982.89598,793.30829 C 984.29057,790.62313 984.20257,786.64719 984.07044,783.96203 C 984.18035,779.68781 984.17764,777.05462 981.74519,771.82702 L 971.26029,776.04656 z"
             style="opacity:1;fill:#fcef3c;fill-opacity:1;fill-rule:nonzero;stroke:#000000;stroke-width:1;stroke-linecap:butt;stroke-linejoin:round;stroke-miterlimit:4;stroke-dasharray:none;stroke-dashoffset:0;stroke-opacity:1" />
          <path
             id="path6624"
             d="M 968.1276,773.87286 L 971.38815,778.41205 L 975.16016,776.55801 L 974.13724,773.74499 L 975.99128,776.36622 L 978.48464,775.59903 L 977.71746,771.89095 L 979.1879,775.40723 L 981.48946,775.08757 L 981.23373,771.44343 L 982.44845,775.1515 L 984.30249,775.59903 L 981.93699,768.24681 L 973.05039,768.88613 L 968.1276,773.87286 z"
             style="opacity:1;fill:#fcef3c;fill-opacity:1;fill-rule:nonzero;stroke:#000000;stroke-width:1;stroke-linecap:butt;stroke-linejoin:round;stroke-miterlimit:4;stroke-dasharray:none;stroke-dashoffset:0;stroke-opacity:1" />
          <path
             sodipodi:nodetypes="ccccccccccccccccccc"
             id="path6626"
             d="M 969.59972,774.97203 L 966.79689,775.15286 C 967.29776,774.00875 967.69816,772.82835 967.24896,771.44589 L 963.36116,765.84022 C 959.98651,758.82077 971.43422,751.02132 978.18905,759.42082 C 980.22691,763.57195 982.24674,767.99349 984.51803,768.64305 L 982.89058,770.72257 L 980.81106,770.81299 L 979.54526,769.18554 L 979.63568,770.63216 L 975.74788,770.72257 L 974.48208,769.72802 L 974.48208,771.26506 L 973.21628,772.71168 L 971.86007,770.08967 L 972.49297,773.25417 L 970.50386,774.42955 L 969.4189,770.72257 L 969.59972,774.97203 z"
             style="opacity:1;fill:#fcef3c;fill-opacity:1;fill-rule:nonzero;stroke:#000000;stroke-width:1;stroke-linecap:butt;stroke-linejoin:round;stroke-miterlimit:4;stroke-dasharray:none;stroke-dashoffset:0;stroke-opacity:1" />
        </g>
      </g>
      <path
         id="path6921"
         d="M 8.7015728,-68.806668 L 10.988229,-68.298521"
         style="fill:none;fill-opacity:1;fill-rule:nonzero;stroke:#000000;stroke-width:1.27999997;stroke-linecap:butt;stroke-linejoin:round;stroke-miterlimit:4;stroke-dasharray:none;stroke-dashoffset:0;stroke-opacity:1" />
      <path
         id="path6925"
         d="M 8.809336,-69.759449 L 8.1741488,-67.40928"
         style="fill:none;fill-opacity:1;fill-rule:nonzero;stroke:#000000;stroke-width:1.27999997;stroke-linecap:butt;stroke-linejoin:round;stroke-miterlimit:4;stroke-dasharray:none;stroke-dashoffset:0;stroke-opacity:1" />
      <path
         sodipodi:nodetypes="cc"
         id="path6927"
         d="M 6.9955248,-57.34807 L 9.0374704,-56.921036"
         style="fill:none;fill-opacity:1;fill-rule:nonzero;stroke:#000000;stroke-width:1.27999997;stroke-linecap:butt;stroke-linejoin:round;stroke-miterlimit:4;stroke-dasharray:none;stroke-dashoffset:0;stroke-opacity:1" />
    </g>
  </g>
  <g
     id="layer2"
     inkscape:label="Reflet final"
     inkscape:groupmode="layer"
     transform="translate(300,300)"
     sodipodi:insensitive="true">
    <use
       xlink:href="#shield"
       id="use22"
       style="fill:url(#Gradient1)"
       x="0"
       y="0"
       width="600"
       height="660" />
  </g>
  <g
     id="layer1"
     inkscape:label="Contour final"
     inkscape:groupmode="layer"
     transform="translate(300,300)"
     sodipodi:insensitive="true">
    <use
       xlink:href="#shield"
       style="fill:none;stroke:#000000;stroke-width:3"
       id="use25"
       x="0"
       y="0"
       width="600"
       height="660" />
  </g>
</svg>
