<?xml version="1.0" encoding="UTF-8" standalone="no"?>
<svg
   xmlns:dc="http://purl.org/dc/elements/1.1/"
   xmlns:cc="http://web.resource.org/cc/"
   xmlns:rdf="http://www.w3.org/1999/02/22-rdf-syntax-ns#"
   xmlns:svg="http://www.w3.org/2000/svg"
   xmlns="http://www.w3.org/2000/svg"
   xmlns:xlink="http://www.w3.org/1999/xlink"
   xmlns:sodipodi="http://sodipodi.sourceforge.net/DTD/sodipodi-0.dtd"
   xmlns:inkscape="http://www.inkscape.org/namespaces/inkscape"
   height="660"
   width="600"
   version="1.0"
   id="svg2"
   sodipodi:version="0.32"
   inkscape:version="0.45.1"
   sodipodi:docname="Blason Ville-sur-Yron 54.svg"
   sodipodi:docbase="C:\Users\Axel\Pictures\Wikipedia (Blasons)\Meubles"
   inkscape:export-filename="/Users/olivier/Desktop/Blason Rouge/Blason_Vide_3D.png"
   inkscape:export-xdpi="144"
   inkscape:export-ydpi="144"
   inkscape:output_extension="org.inkscape.output.svg.inkscape">
  <metadata
     id="metadata49">
    <rdf:RDF>
      <cc:Work
         rdf:about="">
        <dc:format>image/svg+xml</dc:format>
        <dc:type
           rdf:resource="http://purl.org/dc/dcmitype/StillImage" />
        <dc:title>Gabarit d'un blason en pointe pour le projet Blasons de Wikipédia</dc:title>
        <dc:date>03-AUG-2006</dc:date>
        <dc:creator>
          <cc:Agent>
            <dc:title>Jérôme BLUM (wagner51)</dc:title>
          </cc:Agent>
        </dc:creator>
        <cc:license
           rdf:resource="http://web.resource.org/cc/PublicDomain" />
        <dc:language>fr</dc:language>
        <dc:subject>
          <rdf:Bag>
            <rdf:li>gabarit modèle blason projet wikipédia</rdf:li>
          </rdf:Bag>
        </dc:subject>
      </cc:Work>
      <cc:License
         rdf:about="http://web.resource.org/cc/PublicDomain">
        <cc:permits
           rdf:resource="http://web.resource.org/cc/Reproduction" />
        <cc:permits
           rdf:resource="http://web.resource.org/cc/Distribution" />
        <cc:permits
           rdf:resource="http://web.resource.org/cc/DerivativeWorks" />
      </cc:License>
    </rdf:RDF>
  </metadata>
  <sodipodi:namedview
     inkscape:window-height="750"
     inkscape:window-width="1280"
     inkscape:pageshadow="2"
     inkscape:pageopacity="0.0"
     guidetolerance="10.0"
     gridtolerance="10.0"
     objecttolerance="10.0"
     borderopacity="1.0"
     bordercolor="#666666"
     pagecolor="#ffffff"
     id="base"
     showgrid="false"
     height="660px"
     inkscape:zoom="0.82121212"
     inkscape:cx="423.17216"
     inkscape:cy="340.53891"
     inkscape:window-x="-8"
     inkscape:window-y="-8"
     inkscape:current-layer="layer3" />
  <desc
     id="desc4">Flag of Canton of Valais (Wallis)</desc>
  <defs
     id="defs6">
    <linearGradient
       id="linearGradient2893">
      <stop
         style="stop-color:white;stop-opacity:0.3137255;"
         offset="0"
         id="stop2895" />
      <stop
         id="stop2897"
         offset="0.19"
         style="stop-color:white;stop-opacity:0.25098041;" />
      <stop
         style="stop-color:#6b6b6b;stop-opacity:0.1254902;"
         offset="0.60000002"
         id="stop2901" />
      <stop
         style="stop-color:black;stop-opacity:0.1254902;"
         offset="1"
         id="stop2899" />
    </linearGradient>
    <linearGradient
       id="linearGradient2885">
      <stop
         id="stop2887"
         offset="0"
         style="stop-color:white;stop-opacity:1;" />
      <stop
         style="stop-color:white;stop-opacity:1;"
         offset="0.22857143"
         id="stop2891" />
      <stop
         id="stop2889"
         offset="1"
         style="stop-color:black;stop-opacity:1;" />
    </linearGradient>
    <linearGradient
       id="linearGradient2955">
      <stop
         id="stop2867"
         offset="0"
         style="stop-color:#fd0000;stop-opacity:1;" />
      <stop
         style="stop-color:#e77275;stop-opacity:0.65882355;"
         offset="0.5"
         id="stop2873" />
      <stop
         style="stop-color:black;stop-opacity:0.32291666;"
         offset="1"
         id="stop2959" />
    </linearGradient>
    <radialGradient
       inkscape:collect="always"
       xlink:href="#linearGradient2955"
       id="radialGradient2961"
       cx="225.52438"
       cy="218.90099"
       fx="225.52438"
       fy="218.90099"
       r="300"
       gradientTransform="matrix(-4.167939e-4,2.182867,-1.884232,-3.599562e-4,615.5972,-289.1214)"
       gradientUnits="userSpaceOnUse" />
    <polygon
       id="star"
       transform="scale(53,53)"
       points="0,-1 0.58778525,0.80901699 -0.95105652,-0.30901699 0.95105652,-0.30901699 -0.58778525,0.80901699 0,-1 " />
    <clipPath
       id="clip">
      <path
         d="M 0,-200 L 0,600 L 300,600 L 300,-200 L 0,-200 z "
         id="path10" />
    </clipPath>
    <radialGradient
       inkscape:collect="always"
       xlink:href="#linearGradient2955"
       id="radialGradient1911"
       gradientUnits="userSpaceOnUse"
       gradientTransform="matrix(-4.167939e-4,2.182867,-1.884232,-3.599562e-4,615.5972,-289.1214)"
       cx="225.52438"
       cy="218.90099"
       fx="225.52438"
       fy="218.90099"
       r="300" />
    <radialGradient
       inkscape:collect="always"
       xlink:href="#linearGradient2955"
       id="radialGradient2865"
       gradientUnits="userSpaceOnUse"
       gradientTransform="matrix(0,1.748721,-1.593162,-1.049767e-7,551.7876,-191.2898)"
       cx="225.52438"
       cy="218.90099"
       fx="225.52438"
       fy="218.90099"
       r="300" />
    <radialGradient
       inkscape:collect="always"
       xlink:href="#linearGradient2955"
       id="radialGradient2871"
       gradientUnits="userSpaceOnUse"
       gradientTransform="matrix(0,1.386237,-1.323286,-5.741131e-8,-158.0823,-109.5408)"
       cx="225.52438"
       cy="218.90099"
       fx="225.52438"
       fy="218.90099"
       r="300" />
    <radialGradient
       inkscape:collect="always"
       xlink:href="#linearGradient2893"
       id="radialGradient3163"
       gradientUnits="userSpaceOnUse"
       gradientTransform="matrix(1.353218,0,0,1.348928,-77.62935,-85.74693)"
       cx="221.44487"
       cy="226.33101"
       fx="221.44487"
       fy="226.33101"
       r="300" />
    <radialGradient
       gradientTransform="matrix(1.353218,0,0,1.348928,-77.62935,-85.74693)"
       gradientUnits="userSpaceOnUse"
       xlink:href="#linearGradient2893"
       id="radialGradient2292"
       fy="226.33101"
       fx="221.44487"
       r="300"
       cy="226.33101"
       cx="221.44487" />
    <radialGradient
       gradientTransform="matrix(0,1.386237,-1.323286,-5.741131e-8,-158.0823,-109.5408)"
       gradientUnits="userSpaceOnUse"
       xlink:href="#linearGradient2955"
       id="radialGradient2290"
       fy="218.90099"
       fx="225.52438"
       r="300"
       cy="218.90099"
       cx="225.52438" />
    <radialGradient
       gradientTransform="matrix(0,1.748721,-1.593162,-1.049767e-7,551.7876,-191.2898)"
       gradientUnits="userSpaceOnUse"
       xlink:href="#linearGradient2955"
       id="radialGradient2288"
       fy="218.90099"
       fx="225.52438"
       r="300"
       cy="218.90099"
       cx="225.52438" />
    <radialGradient
       gradientTransform="matrix(-4.167939e-4,2.182867,-1.884232,-3.599562e-4,615.5972,-289.1214)"
       gradientUnits="userSpaceOnUse"
       xlink:href="#linearGradient2955"
       id="radialGradient2286"
       fy="218.90099"
       fx="225.52438"
       r="300"
       cy="218.90099"
       cx="225.52438" />
    <clipPath
       id="clipPath2282">
      <path
         id="path2284"
         d="M 0,-200 L 0,600 L 300,600 L 300,-200 L 0,-200 z " />
    </clipPath>
    <polygon
       id="polygon2280"
       transform="scale(53,53)"
       points="0,-1 0.58778525,0.80901699 -0.95105652,-0.30901699 0.95105652,-0.30901699 -0.58778525,0.80901699 0,-1 " />
    <radialGradient
       gradientTransform="matrix(-4.167939e-4,2.182867,-1.884232,-3.599562e-4,615.5972,-289.1214)"
       gradientUnits="userSpaceOnUse"
       xlink:href="#linearGradient2955"
       id="radialGradient2278"
       fy="218.90099"
       fx="225.52438"
       r="300"
       cy="218.90099"
       cx="225.52438" />
    <linearGradient
       id="linearGradient2270">
      <stop
         id="stop2272"
         offset="0"
         style="stop-color:#fd0000;stop-opacity:1" />
      <stop
         id="stop2274"
         offset="0.5"
         style="stop-color:#e77275;stop-opacity:0.65882355" />
      <stop
         id="stop2276"
         offset="1"
         style="stop-color:black;stop-opacity:0.32291666" />
    </linearGradient>
    <linearGradient
       id="linearGradient2262">
      <stop
         id="stop2264"
         offset="0"
         style="stop-color:white;stop-opacity:1" />
      <stop
         id="stop2266"
         offset="0.22857143"
         style="stop-color:white;stop-opacity:1" />
      <stop
         id="stop2268"
         offset="1"
         style="stop-color:black;stop-opacity:1" />
    </linearGradient>
    <linearGradient
       id="linearGradient2252">
      <stop
         id="stop2254"
         offset="0"
         style="stop-color:white;stop-opacity:0.3137255" />
      <stop
         id="stop2256"
         offset="0.19"
         style="stop-color:white;stop-opacity:0.25098041" />
      <stop
         id="stop2258"
         offset="0.60000002"
         style="stop-color:#6b6b6b;stop-opacity:0.1254902" />
      <stop
         id="stop2260"
         offset="1"
         style="stop-color:black;stop-opacity:0.1254902" />
    </linearGradient>
    <radialGradient
       gradientTransform="matrix(0,1.386237,-1.323286,-5.741131e-8,-158.0823,-109.5408)"
       gradientUnits="userSpaceOnUse"
       xlink:href="#linearGradient2955"
       id="radialGradient4408"
       fy="218.90099"
       fx="225.52438"
       r="300"
       cy="218.90099"
       cx="225.52438" />
    <radialGradient
       gradientTransform="matrix(0,1.748721,-1.593162,-1.049767e-7,551.7876,-191.2898)"
       gradientUnits="userSpaceOnUse"
       xlink:href="#linearGradient2955"
       id="radialGradient4406"
       fy="218.90099"
       fx="225.52438"
       r="300"
       cy="218.90099"
       cx="225.52438" />
    <radialGradient
       gradientTransform="matrix(-4.167939e-4,2.182867,-1.884232,-3.599562e-4,615.5972,-289.1214)"
       gradientUnits="userSpaceOnUse"
       xlink:href="#linearGradient2955"
       id="radialGradient4404"
       fy="218.90099"
       fx="225.52438"
       r="300"
       cy="218.90099"
       cx="225.52438" />
    <clipPath
       id="clipPath4400">
      <path
         id="path4402"
         d="M 0,-200 L 0,600 L 300,600 L 300,-200 L 0,-200 z " />
    </clipPath>
    <polygon
       id="polygon4398"
       transform="scale(53,53)"
       points="0,-1 0.58778525,0.80901699 -0.95105652,-0.30901699 0.95105652,-0.30901699 -0.58778525,0.80901699 0,-1 " />
    <radialGradient
       gradientTransform="matrix(-4.167939e-4,2.182867,-1.884232,-3.599562e-4,615.5972,-289.1214)"
       gradientUnits="userSpaceOnUse"
       xlink:href="#linearGradient2955"
       id="radialGradient4396"
       fy="218.90099"
       fx="225.52438"
       r="300"
       cy="218.90099"
       cx="225.52438" />
    <linearGradient
       id="linearGradient4388">
      <stop
         id="stop4390"
         offset="0"
         style="stop-color:#fd0000;stop-opacity:1" />
      <stop
         id="stop4392"
         offset="0.5"
         style="stop-color:#e77275;stop-opacity:0.65882355" />
      <stop
         id="stop4394"
         offset="1"
         style="stop-color:black;stop-opacity:0.32291666" />
    </linearGradient>
    <linearGradient
       id="linearGradient4380">
      <stop
         id="stop4382"
         offset="0"
         style="stop-color:white;stop-opacity:1" />
      <stop
         id="stop4384"
         offset="0.22857143"
         style="stop-color:white;stop-opacity:1" />
      <stop
         id="stop4386"
         offset="1"
         style="stop-color:black;stop-opacity:1" />
    </linearGradient>
    <linearGradient
       id="linearGradient4370">
      <stop
         id="stop4372"
         offset="0"
         style="stop-color:white;stop-opacity:0.3137255" />
      <stop
         id="stop4374"
         offset="0.19"
         style="stop-color:white;stop-opacity:0.25098041" />
      <stop
         id="stop4376"
         offset="0.60000002"
         style="stop-color:#6b6b6b;stop-opacity:0.1254902" />
      <stop
         id="stop4378"
         offset="1"
         style="stop-color:black;stop-opacity:0.1254902" />
    </linearGradient>
  </defs>
  <g
     inkscape:groupmode="layer"
     id="layer3"
     inkscape:label="Fond écu"
     style="display:inline">
    <rect
       id="rect2314"
       style="fill:none;fill-opacity:1;fill-rule:nonzero;stroke:none;stroke-width:6.20345545;stroke-linecap:round;stroke-linejoin:round;stroke-miterlimit:4;stroke-dasharray:none;stroke-opacity:1"
       y="26.789667"
       x="0.77490681"
       height="684.35419"
       width="600" />
    <g
       id="g4176">
      <path
         id="path4174"
         d="M 443.8125 571.09375 L 156.21875 571.09375 C 228.97095 631.69026 300 658.5 300 658.5 C 300 658.5 371.04851 631.70296 443.8125 571.09375 z "
         style="fill:#fcef3c;fill-opacity:1;fill-rule:evenodd;stroke:#000000;stroke-width:3;stroke-linecap:butt;stroke-linejoin:miter;stroke-opacity:1;stroke-miterlimit:4;stroke-dasharray:none" />
      <path
         id="path4169"
         d="M 583.34375 367.5 L 16.84375 368.09375 C 27.537746 404.42099 43.3087 436.86519 61.90625 465.8125 L 538.5625 465.125 C 557.06695 436.19368 572.73171 403.77722 583.34375 367.5 z "
         style="fill:#fcef3c;fill-opacity:1;fill-rule:evenodd;stroke:#000000;stroke-width:3;stroke-linecap:butt;stroke-linejoin:miter;stroke-opacity:1;stroke-miterlimit:4;stroke-dasharray:none" />
      <path
         id="path4172"
         d="M 538.5625 465.125 L 61.90625 465.8125 C 89.285301 508.42832 122.89651 543.33911 156.21875 571.09375 L 443.8125 571.09375 C 477.30988 543.1919 511.10936 508.04743 538.5625 465.125 z "
         style="fill:#2b5df2;fill-opacity:1;fill-rule:evenodd;stroke:#000000;stroke-width:3;stroke-linecap:butt;stroke-linejoin:miter;stroke-opacity:1;stroke-miterlimit:4;stroke-dasharray:none" />
      <path
         id="path4167"
         d="M 598.46875 261.96875 L 1.53125 261.96875 C 1.651129 300.48398 7.3228205 335.75138 16.84375 368.09375 L 583.34375 367.5 C 592.75709 335.32052 598.34961 300.24594 598.46875 261.96875 z "
         style="fill:#2b5df2;fill-opacity:1;fill-rule:evenodd;stroke:#000000;stroke-width:3;stroke-linecap:butt;stroke-linejoin:miter;stroke-opacity:1;stroke-miterlimit:4;stroke-dasharray:none" />
      <path
         id="path3195"
         d="M 1.5 175.375 L 1.5 260.71875 C 1.5 261.14343 1.5299306 261.54483 1.53125 261.96875 L 598.46875 261.96875 C 598.47007 261.54483 598.5 261.14343 598.5 260.71875 C 598.5 166.79888 598.5 214.03219 598.5 175.65625 L 1.5 175.375 z "
         style="fill:#fcef3c;fill-opacity:1;fill-rule:evenodd;stroke:#000000;stroke-width:3;stroke-linecap:butt;stroke-linejoin:miter;stroke-opacity:1;stroke-miterlimit:4;stroke-dasharray:none" />
      <path
         id="path2855"
         d="M 1.5 2.1875 L 1.5 69.8125 L 598.5 69.21875 C 598.5 66.922328 598.5 2.1875 598.5 2.1875 L 1.5 2.1875 z "
         style="fill:#fcef3c;fill-opacity:1;fill-rule:evenodd;stroke:#000000;stroke-width:3;stroke-linecap:butt;stroke-linejoin:miter;stroke-opacity:1;stroke-miterlimit:4;stroke-dasharray:none" />
      <path
         id="path3193"
         d="M 598.5 69.21875 L 1.5 69.8125 L 1.5 175.375 L 598.5 175.65625 C 598.5 127.63699 598.5 72.865189 598.5 69.21875 z "
         style="fill:#2b5df2;fill-opacity:1;fill-rule:evenodd;stroke:#000000;stroke-width:3;stroke-linecap:butt;stroke-linejoin:miter;stroke-opacity:1;stroke-miterlimit:4;stroke-dasharray:none" />
    </g>
    <path
       id="path4410"
       style="opacity:1;fill:#ffffff;fill-opacity:1;fill-rule:evenodd;stroke:#000000;stroke-width:3;stroke-linecap:butt;stroke-linejoin:miter;stroke-miterlimit:4;stroke-dasharray:none;stroke-opacity:1"
       d="M 1.5,100.78124 L 458.87499,558.15624 C 490.22392,530.02375 520.9135,495.48647 545.5625,454.03124 L 93.718753,2.1875 L 1.5,2.1875 L 1.5,100.78124 z " />
    <g
       id="Halmstads_kommunvapen"
       transform="matrix(1.0442773,-1.0442773,1.0442773,1.0442773,2.1221109,267.67165)">
      <path
         d="M 125.50004,134.29232 C 122.13797,128.68887 116.53452,124.76646 109.81038,124.76646 C 100.28453,124.76646 93.00004,132.05093 93.00004,141.5768 C 93.00004,160.06818 103.08625,162.8699 125.50004,184.16301 C 147.91383,162.8699 158.00004,160.06818 158.00004,141.5768 C 158.00004,132.05093 150.71556,124.76646 141.1897,124.76646 C 134.46556,124.76646 128.86211,128.68887 125.50004,134.29232 z "
         style="fill:#e60000;fill-opacity:1;stroke:#000000;stroke-width:2;stroke-miterlimit:4;stroke-dasharray:none;stroke-opacity:1"
         id="path4524" />
    </g>
    <g
       style="fill:#e20909;stroke:#000000;stroke-width:2.87007737;stroke-miterlimit:4;stroke-dasharray:none;stroke-opacity:1"
       id="g3865"
       transform="matrix(0.522634,0,0,-0.522634,93.704834,187.66462)">
      <g
         id="g10890"
         style="fill:#e20909;stroke:#000000;stroke-width:14.20802212;stroke-miterlimit:4;stroke-dasharray:none;stroke-opacity:1"
         transform="matrix(0.202004,0,0,0.202004,3.621935,3.232137)">
        <path
           id="path9102"
           style="fill:#e20909;fill-opacity:1;fill-rule:evenodd;stroke:#000000;stroke-width:14.20802212;stroke-linecap:butt;stroke-linejoin:miter;stroke-miterlimit:4;stroke-dasharray:none;stroke-opacity:1"
           d="M 958.88576,534.1952 C 918.34503,512.64668 854.11258,466.46773 815.85202,413.6085 L 640.73197,418.82365 L 622.9093,473.19325 L 784.13742,555.90986 C 863.50331,539.78935 912.55641,525.49956 958.88576,534.1952 z " />
        <path
           id="path9100"
           style="fill:#e20909;fill-opacity:1;fill-rule:evenodd;stroke:#000000;stroke-width:14.20802212;stroke-linecap:butt;stroke-linejoin:miter;stroke-miterlimit:4;stroke-dasharray:none;stroke-opacity:1"
           d="M 477.11695,861.46416 C 485.73574,816.36864 510.89231,741.36564 550.0993,689.20452 L 493.41445,523.43041 L 436.20651,522.45421 L 404.77784,700.91647 C 443.61161,771.98513 471.74678,814.63272 477.11695,861.46416 z " />
        <path
           id="path9098"
           style="fill:#e20909;fill-opacity:1;fill-rule:evenodd;stroke:#000000;stroke-width:14.20802212;stroke-linecap:butt;stroke-linejoin:miter;stroke-miterlimit:4;stroke-dasharray:none;stroke-opacity:1"
           d="M -6.4972249,543.54344 C 39.250725,539.66852 118.26022,543.64375 179.06884,567.314 L 323.38601,467.9823 L 308.88245,412.63478 L 128.56162,430.54955 C 70.614834,487.12681 37.145806,525.7303 -6.4972249,543.54344 z " />
        <path
           id="path9096"
           style="fill:#e20909;fill-opacity:1;fill-rule:evenodd;stroke:#000000;stroke-width:14.20802212;stroke-linecap:butt;stroke-linejoin:miter;stroke-miterlimit:4;stroke-dasharray:none;stroke-opacity:1"
           d="M 783.0214,-3.3986519 C 745.20742,22.639648 674.61359,58.344157 610.06725,67.922193 L 533.94945,225.72052 L 573.97683,266.60463 L 721.71593,161.67754 C 744.00586,83.818848 753.94344,33.702483 783.0214,-3.3986519 z " />
        <path
           id="path8209"
           style="fill:#e20909;fill-opacity:1;fill-rule:evenodd;stroke:#000000;stroke-width:14.20802212;stroke-linecap:butt;stroke-linejoin:miter;stroke-miterlimit:4;stroke-dasharray:none;stroke-opacity:1"
           d="M 173.93747,1.1991465 C 194.80056,42.096837 220.95473,116.75781 221.99914,182.00257 L 368.4728,278.12591 L 414.24582,243.79615 L 329.56574,83.590581 C 255.29577,51.298365 206.91199,34.884499 173.93747,1.1991465 z " />
      </g>
      <g
         style="fill:#e20909;stroke:#000000;stroke-width:14.20802212;stroke-miterlimit:4;stroke-dasharray:none;stroke-opacity:1"
         id="g14500"
         transform="matrix(0.202004,0,0,0.202004,3.621935,3.232137)">
        <path
           id="path2843"
           style="fill:#e20909;fill-opacity:1;fill-rule:evenodd;stroke:#000000;stroke-width:14.20802212;stroke-linecap:butt;stroke-linejoin:miter;stroke-miterlimit:4;stroke-dasharray:none;stroke-opacity:1"
           d="M 375.28848,14.554492 C 342.60293,14.256859 315.9355,29.037092 300.10098,70.866992 C 293.11244,107.63816 290.15926,142.4047 306.85098,167.33574 C 367.46669,264.19954 399.45476,299.40382 439.19473,351.30449 C 449.86602,295.00523 462.19673,248.64352 466.69473,155.30449 C 471.19272,248.64371 483.52343,295.00518 494.19473,351.30449 C 539.16262,290.40302 584.87863,229.87561 626.56973,167.33574 C 643.26142,142.4047 640.27702,107.63816 633.28848,70.866992 C 613.79981,19.384038 577.90903,8.8795886 534.56973,17.023242 C 510.874,23.402867 493.71837,33.478106 467.28848,32.741992 L 467.23513,32.745727 L 466.14138,32.745727 L 466.13223,32.741992 C 439.70234,33.478106 422.5155,23.402867 398.81973,17.023242 C 390.69361,15.496307 382.8313,14.623176 375.28848,14.554492 z " />
        <path
           id="path7288"
           style="fill:#e20909;fill-opacity:1;fill-rule:evenodd;stroke:#000000;stroke-width:14.20802212;stroke-linecap:butt;stroke-linejoin:miter;stroke-miterlimit:4;stroke-dasharray:none;stroke-opacity:1"
           d="M 466.69473,155.30449 C 462.19673,248.64352 449.86602,295.00523 439.19473,351.30449 C 439.03915,351.1013 438.88132,350.91342 438.72598,350.71074 L 438.78848,351.89824 L 493.75723,351.89824 L 493.88223,349.67949 C 483.28343,294.11178 471.1491,247.73847 466.69473,155.30449 z " />
        <path
           id="path8191"
           style="fill:#e20909;fill-opacity:1;fill-rule:evenodd;stroke:#000000;stroke-width:14.20802212;stroke-linecap:butt;stroke-linejoin:miter;stroke-miterlimit:4;stroke-dasharray:none;stroke-opacity:1"
           d="M 82.133441,367.21177 C 72.200069,398.3528 78.449194,428.19499 113.74044,455.67231 C 146.8098,473.20451 179.15514,486.2894 207.90261,477.70138 C 318.34376,448.38194 361.42223,428.212 422.74141,405.56453 C 372.10143,378.74888 331.44598,353.2814 243.59454,321.42952 C 334.10184,344.68638 382.03728,346.59143 438.9778,353.01566 C 394.0653,292.07327 349.73104,230.52652 302.28583,172.23122 C 283.39337,148.92359 249.29522,141.51166 212.09972,137.33365 C 157.15797,140.75566 136.52645,171.94594 131.51311,215.75784 C 130.61327,240.28086 135.17504,259.64621 126.66944,284.68092 L 126.65726,284.733 L 126.33438,285.778 L 126.32811,285.78564 C 119.22913,311.25497 104.52923,324.70158 91.438758,345.45801 C 87.580985,352.77122 84.425757,360.02538 82.133441,367.21177 z " />
        <path
           id="path8193"
           style="fill:#e20909;fill-opacity:1;fill-rule:evenodd;stroke:#000000;stroke-width:14.20802212;stroke-linecap:butt;stroke-linejoin:miter;stroke-miterlimit:4;stroke-dasharray:none;stroke-opacity:1"
           d="M 243.59454,321.42952 C 331.44598,353.2814 372.10143,378.74888 422.74141,405.56453 C 422.50135,405.65319 422.27525,405.74852 422.03575,405.83711 L 423.18877,406.12795 L 439.41593,353.60894 L 437.33297,352.83452 C 381.11285,346.557 333.22407,344.46082 243.59454,321.42952 z " />
        <path
           id="path8197"
           style="fill:#e20909;fill-opacity:1;fill-rule:evenodd;stroke:#000000;stroke-width:14.20802212;stroke-linecap:butt;stroke-linejoin:miter;stroke-miterlimit:4;stroke-dasharray:none;stroke-opacity:1"
           d="M 768.51025,631.01874 C 794.60301,611.33117 806.7342,583.35905 793.7895,540.54661 C 776.91573,507.13654 758.06487,477.77539 729.63584,468.18587 C 622.53955,428.34584 575.72233,419.93615 512.58252,403.01564 C 538.44017,454.15135 556.92488,498.42061 610.254,575.15651 C 549.79323,503.90397 511.75842,474.6673 468.98149,436.54094 C 470.45593,512.23056 471.10929,588.07967 476.18008,663.07075 C 478.14455,693.00917 501.7024,718.75106 529.65644,743.64139 C 576.48749,772.57495 611.34276,759.02505 640.73584,726.15169 C 655.63183,706.65051 663.09052,688.20618 684.49141,672.67936 L 684.53142,672.64388 L 685.39849,671.97718 L 685.40802,671.97457 C 705.91151,655.28065 725.67768,652.7915 748.35111,643.40514 C 755.72381,639.66233 762.48884,635.56202 768.51025,631.01874 z " />
        <path
           id="path8199"
           style="fill:#e20909;fill-opacity:1;fill-rule:evenodd;stroke:#000000;stroke-width:14.20802212;stroke-linecap:butt;stroke-linejoin:miter;stroke-miterlimit:4;stroke-dasharray:none;stroke-opacity:1"
           d="M 610.254,575.15651 C 556.92488,498.42061 538.44017,454.15135 512.58252,403.01564 C 512.82971,403.08188 513.06935,403.13462 513.31604,403.20061 L 512.54266,402.29732 L 468.9664,435.80357 L 470.21975,437.63867 C 512.49326,475.22924 550.3796,504.59501 610.254,575.15651 z " />
        <path
           id="path8203"
           style="fill:#e20909;fill-opacity:1;fill-rule:evenodd;stroke:#000000;stroke-width:14.20802212;stroke-linecap:butt;stroke-linejoin:miter;stroke-miterlimit:4;stroke-dasharray:none;stroke-opacity:1"
           d="M 333.06752,750.21685 C 360.0292,768.69666 390.40686,771.30539 426.88261,745.42112 C 453.19466,718.8009 475.03929,691.59341 475.09296,661.59061 C 478.8173,547.38463 471.90627,500.32277 467.87512,435.07938 C 427.6133,475.85281 391.51763,507.45281 335.71772,582.41138 C 384.05143,502.43448 399.67897,457.07794 422.22732,404.39906 C 350.93347,429.86068 279.22737,454.59452 209.73919,483.24381 C 181.97862,494.62455 165.06194,525.14416 150.35031,559.56114 C 137.8067,613.16118 161.73497,641.90019 202.24759,659.31698 C 225.4728,667.2402 245.3315,668.44797 266.85663,683.80215 L 266.90299,683.82881 L 267.81076,684.43893 L 267.81627,684.44713 C 290.16264,698.57941 298.80682,716.52869 314.91466,735.04159 C 320.80725,740.84183 326.8456,745.95228 333.06752,750.21685 z " />
        <path
           id="path8205"
           style="fill:#e20909;fill-opacity:1;fill-rule:evenodd;stroke:#000000;stroke-width:14.20802212;stroke-linecap:butt;stroke-linejoin:miter;stroke-miterlimit:4;stroke-dasharray:none;stroke-opacity:1"
           d="M 335.71772,582.41138 C 391.51763,507.45281 427.6133,475.85281 467.87512,435.07938 C 467.89091,435.33481 467.91709,435.57878 467.93296,435.83365 L 468.5435,434.81321 L 422.92164,404.15032 L 421.58022,405.92207 C 399.3798,457.95331 383.58266,503.21012 335.71772,582.41138 z " />
        <path
           id="path8185"
           style="fill:#e20909;fill-opacity:1;fill-rule:evenodd;stroke:#000000;stroke-width:14.20802212;stroke-linecap:butt;stroke-linejoin:miter;stroke-miterlimit:4;stroke-dasharray:none;stroke-opacity:1"
           d="M 795.29394,182.52692 C 785.11301,151.46601 762.57405,130.93309 717.87649,129.32186 C 680.80313,134.47181 646.92067,142.80307 628.64465,166.5971 C 556.2814,255.03009 533.1692,296.60412 496.72063,350.86679 C 553.47339,342.95471 601.3427,339.79583 691.21008,314.17857 C 604.22221,348.31851 564.24744,374.84105 514.32657,402.97269 C 586.41799,426.07932 658.3945,450.01445 730.98918,469.49225 C 759.95149,477.325 791.93329,463.36859 824.53247,444.97704 C 867.06791,410.03376 865.53069,372.66899 843.9423,334.21705 C 830.31318,313.81036 815.27644,300.78263 807.51341,275.50784 L 807.49279,275.45849 L 807.14267,274.4223 L 807.14328,274.41243 C 797.98548,249.60892 802.02892,230.10129 800.48764,205.61022 C 799.33299,197.42291 797.64339,189.69482 795.29394,182.52692 z " />
        <g
           id="g8183"
           style="fill:#e20909;fill-opacity:1;stroke:#000000;stroke-width:14.20803642;stroke-miterlimit:4;stroke-dasharray:none;stroke-opacity:1"
           transform="matrix(0.320108,0.94738,-0.94738,0.320108,688.9379,-180.564)">
          <path
             id="path8187"
             style="fill:#e20909;fill-opacity:1;fill-rule:evenodd;stroke:#000000;stroke-width:14.20803642;stroke-linecap:butt;stroke-linejoin:miter;stroke-miterlimit:4;stroke-dasharray:none;stroke-opacity:1"
             d="M 469.4375,156.21875 C 464.9395,249.55778 452.60879,295.91949 441.9375,352.21875 C 441.78192,352.01556 441.62409,351.82768 441.46875,351.625 L 441.53125,352.8125 L 496.5,352.8125 L 496.625,350.59375 C 486.0262,295.02604 473.89187,248.65273 469.4375,156.21875 z " />
        </g>
      </g>
      <path
         id="path1952"
         style="fill:#e20909;fill-opacity:1;fill-rule:evenodd;stroke:#000000;stroke-width:14.97921371;stroke-miterlimit:4;stroke-dasharray:none;stroke-opacity:1"
         transform="matrix(0.191604,0,0,0.191604,5.808093,3.468148)"
         d="M 614.68782,409.418 C 614.70792,480.67366 555.44254,538.44817 482.32804,538.44817 C 409.21353,538.44817 349.94815,480.67366 349.96825,409.418 C 349.94815,338.16234 409.21353,280.38783 482.32804,280.38783 C 555.44254,280.38783 614.70792,338.16234 614.68782,409.418 L 614.68782,409.418 z " />
    </g>
    <g
       transform="matrix(0.522634,0,0,-0.522634,380.28759,473.88233)"
       id="g5745"
       style="fill:#e20909;stroke:#000000;stroke-width:2.87007737;stroke-miterlimit:4;stroke-dasharray:none;stroke-opacity:1">
      <g
         transform="matrix(0.202004,0,0,0.202004,3.621935,3.232137)"
         style="fill:#e20909;stroke:#000000;stroke-width:14.20802212;stroke-miterlimit:4;stroke-dasharray:none;stroke-opacity:1"
         id="g5747">
        <path
           d="M 958.88576,534.1952 C 918.34503,512.64668 854.11258,466.46773 815.85202,413.6085 L 640.73197,418.82365 L 622.9093,473.19325 L 784.13742,555.90986 C 863.50331,539.78935 912.55641,525.49956 958.88576,534.1952 z "
           style="fill:#e20909;fill-opacity:1;fill-rule:evenodd;stroke:#000000;stroke-width:14.20802212;stroke-linecap:butt;stroke-linejoin:miter;stroke-miterlimit:4;stroke-dasharray:none;stroke-opacity:1"
           id="path5749" />
        <path
           d="M 477.11695,861.46416 C 485.73574,816.36864 510.89231,741.36564 550.0993,689.20452 L 493.41445,523.43041 L 436.20651,522.45421 L 404.77784,700.91647 C 443.61161,771.98513 471.74678,814.63272 477.11695,861.46416 z "
           style="fill:#e20909;fill-opacity:1;fill-rule:evenodd;stroke:#000000;stroke-width:14.20802212;stroke-linecap:butt;stroke-linejoin:miter;stroke-miterlimit:4;stroke-dasharray:none;stroke-opacity:1"
           id="path5751" />
        <path
           d="M -6.4972249,543.54344 C 39.250725,539.66852 118.26022,543.64375 179.06884,567.314 L 323.38601,467.9823 L 308.88245,412.63478 L 128.56162,430.54955 C 70.614834,487.12681 37.145806,525.7303 -6.4972249,543.54344 z "
           style="fill:#e20909;fill-opacity:1;fill-rule:evenodd;stroke:#000000;stroke-width:14.20802212;stroke-linecap:butt;stroke-linejoin:miter;stroke-miterlimit:4;stroke-dasharray:none;stroke-opacity:1"
           id="path5753" />
        <path
           d="M 783.0214,-3.3986519 C 745.20742,22.639648 674.61359,58.344157 610.06725,67.922193 L 533.94945,225.72052 L 573.97683,266.60463 L 721.71593,161.67754 C 744.00586,83.818848 753.94344,33.702483 783.0214,-3.3986519 z "
           style="fill:#e20909;fill-opacity:1;fill-rule:evenodd;stroke:#000000;stroke-width:14.20802212;stroke-linecap:butt;stroke-linejoin:miter;stroke-miterlimit:4;stroke-dasharray:none;stroke-opacity:1"
           id="path5755" />
        <path
           d="M 173.93747,1.1991465 C 194.80056,42.096837 220.95473,116.75781 221.99914,182.00257 L 368.4728,278.12591 L 414.24582,243.79615 L 329.56574,83.590581 C 255.29577,51.298365 206.91199,34.884499 173.93747,1.1991465 z "
           style="fill:#e20909;fill-opacity:1;fill-rule:evenodd;stroke:#000000;stroke-width:14.20802212;stroke-linecap:butt;stroke-linejoin:miter;stroke-miterlimit:4;stroke-dasharray:none;stroke-opacity:1"
           id="path5757" />
      </g>
      <g
         transform="matrix(0.202004,0,0,0.202004,3.621935,3.232137)"
         id="g5759"
         style="fill:#e20909;stroke:#000000;stroke-width:14.20802212;stroke-miterlimit:4;stroke-dasharray:none;stroke-opacity:1">
        <path
           d="M 375.28848,14.554492 C 342.60293,14.256859 315.9355,29.037092 300.10098,70.866992 C 293.11244,107.63816 290.15926,142.4047 306.85098,167.33574 C 367.46669,264.19954 399.45476,299.40382 439.19473,351.30449 C 449.86602,295.00523 462.19673,248.64352 466.69473,155.30449 C 471.19272,248.64371 483.52343,295.00518 494.19473,351.30449 C 539.16262,290.40302 584.87863,229.87561 626.56973,167.33574 C 643.26142,142.4047 640.27702,107.63816 633.28848,70.866992 C 613.79981,19.384038 577.90903,8.8795886 534.56973,17.023242 C 510.874,23.402867 493.71837,33.478106 467.28848,32.741992 L 467.23513,32.745727 L 466.14138,32.745727 L 466.13223,32.741992 C 439.70234,33.478106 422.5155,23.402867 398.81973,17.023242 C 390.69361,15.496307 382.8313,14.623176 375.28848,14.554492 z "
           style="fill:#e20909;fill-opacity:1;fill-rule:evenodd;stroke:#000000;stroke-width:14.20802212;stroke-linecap:butt;stroke-linejoin:miter;stroke-miterlimit:4;stroke-dasharray:none;stroke-opacity:1"
           id="path5761" />
        <path
           d="M 466.69473,155.30449 C 462.19673,248.64352 449.86602,295.00523 439.19473,351.30449 C 439.03915,351.1013 438.88132,350.91342 438.72598,350.71074 L 438.78848,351.89824 L 493.75723,351.89824 L 493.88223,349.67949 C 483.28343,294.11178 471.1491,247.73847 466.69473,155.30449 z "
           style="fill:#e20909;fill-opacity:1;fill-rule:evenodd;stroke:#000000;stroke-width:14.20802212;stroke-linecap:butt;stroke-linejoin:miter;stroke-miterlimit:4;stroke-dasharray:none;stroke-opacity:1"
           id="path5763" />
        <path
           d="M 82.133441,367.21177 C 72.200069,398.3528 78.449194,428.19499 113.74044,455.67231 C 146.8098,473.20451 179.15514,486.2894 207.90261,477.70138 C 318.34376,448.38194 361.42223,428.212 422.74141,405.56453 C 372.10143,378.74888 331.44598,353.2814 243.59454,321.42952 C 334.10184,344.68638 382.03728,346.59143 438.9778,353.01566 C 394.0653,292.07327 349.73104,230.52652 302.28583,172.23122 C 283.39337,148.92359 249.29522,141.51166 212.09972,137.33365 C 157.15797,140.75566 136.52645,171.94594 131.51311,215.75784 C 130.61327,240.28086 135.17504,259.64621 126.66944,284.68092 L 126.65726,284.733 L 126.33438,285.778 L 126.32811,285.78564 C 119.22913,311.25497 104.52923,324.70158 91.438758,345.45801 C 87.580985,352.77122 84.425757,360.02538 82.133441,367.21177 z "
           style="fill:#e20909;fill-opacity:1;fill-rule:evenodd;stroke:#000000;stroke-width:14.20802212;stroke-linecap:butt;stroke-linejoin:miter;stroke-miterlimit:4;stroke-dasharray:none;stroke-opacity:1"
           id="path5765" />
        <path
           d="M 243.59454,321.42952 C 331.44598,353.2814 372.10143,378.74888 422.74141,405.56453 C 422.50135,405.65319 422.27525,405.74852 422.03575,405.83711 L 423.18877,406.12795 L 439.41593,353.60894 L 437.33297,352.83452 C 381.11285,346.557 333.22407,344.46082 243.59454,321.42952 z "
           style="fill:#e20909;fill-opacity:1;fill-rule:evenodd;stroke:#000000;stroke-width:14.20802212;stroke-linecap:butt;stroke-linejoin:miter;stroke-miterlimit:4;stroke-dasharray:none;stroke-opacity:1"
           id="path5767" />
        <path
           d="M 768.51025,631.01874 C 794.60301,611.33117 806.7342,583.35905 793.7895,540.54661 C 776.91573,507.13654 758.06487,477.77539 729.63584,468.18587 C 622.53955,428.34584 575.72233,419.93615 512.58252,403.01564 C 538.44017,454.15135 556.92488,498.42061 610.254,575.15651 C 549.79323,503.90397 511.75842,474.6673 468.98149,436.54094 C 470.45593,512.23056 471.10929,588.07967 476.18008,663.07075 C 478.14455,693.00917 501.7024,718.75106 529.65644,743.64139 C 576.48749,772.57495 611.34276,759.02505 640.73584,726.15169 C 655.63183,706.65051 663.09052,688.20618 684.49141,672.67936 L 684.53142,672.64388 L 685.39849,671.97718 L 685.40802,671.97457 C 705.91151,655.28065 725.67768,652.7915 748.35111,643.40514 C 755.72381,639.66233 762.48884,635.56202 768.51025,631.01874 z "
           style="fill:#e20909;fill-opacity:1;fill-rule:evenodd;stroke:#000000;stroke-width:14.20802212;stroke-linecap:butt;stroke-linejoin:miter;stroke-miterlimit:4;stroke-dasharray:none;stroke-opacity:1"
           id="path5769" />
        <path
           d="M 610.254,575.15651 C 556.92488,498.42061 538.44017,454.15135 512.58252,403.01564 C 512.82971,403.08188 513.06935,403.13462 513.31604,403.20061 L 512.54266,402.29732 L 468.9664,435.80357 L 470.21975,437.63867 C 512.49326,475.22924 550.3796,504.59501 610.254,575.15651 z "
           style="fill:#e20909;fill-opacity:1;fill-rule:evenodd;stroke:#000000;stroke-width:14.20802212;stroke-linecap:butt;stroke-linejoin:miter;stroke-miterlimit:4;stroke-dasharray:none;stroke-opacity:1"
           id="path5771" />
        <path
           d="M 333.06752,750.21685 C 360.0292,768.69666 390.40686,771.30539 426.88261,745.42112 C 453.19466,718.8009 475.03929,691.59341 475.09296,661.59061 C 478.8173,547.38463 471.90627,500.32277 467.87512,435.07938 C 427.6133,475.85281 391.51763,507.45281 335.71772,582.41138 C 384.05143,502.43448 399.67897,457.07794 422.22732,404.39906 C 350.93347,429.86068 279.22737,454.59452 209.73919,483.24381 C 181.97862,494.62455 165.06194,525.14416 150.35031,559.56114 C 137.8067,613.16118 161.73497,641.90019 202.24759,659.31698 C 225.4728,667.2402 245.3315,668.44797 266.85663,683.80215 L 266.90299,683.82881 L 267.81076,684.43893 L 267.81627,684.44713 C 290.16264,698.57941 298.80682,716.52869 314.91466,735.04159 C 320.80725,740.84183 326.8456,745.95228 333.06752,750.21685 z "
           style="fill:#e20909;fill-opacity:1;fill-rule:evenodd;stroke:#000000;stroke-width:14.20802212;stroke-linecap:butt;stroke-linejoin:miter;stroke-miterlimit:4;stroke-dasharray:none;stroke-opacity:1"
           id="path5773" />
        <path
           d="M 335.71772,582.41138 C 391.51763,507.45281 427.6133,475.85281 467.87512,435.07938 C 467.89091,435.33481 467.91709,435.57878 467.93296,435.83365 L 468.5435,434.81321 L 422.92164,404.15032 L 421.58022,405.92207 C 399.3798,457.95331 383.58266,503.21012 335.71772,582.41138 z "
           style="fill:#e20909;fill-opacity:1;fill-rule:evenodd;stroke:#000000;stroke-width:14.20802212;stroke-linecap:butt;stroke-linejoin:miter;stroke-miterlimit:4;stroke-dasharray:none;stroke-opacity:1"
           id="path5775" />
        <path
           d="M 795.29394,182.52692 C 785.11301,151.46601 762.57405,130.93309 717.87649,129.32186 C 680.80313,134.47181 646.92067,142.80307 628.64465,166.5971 C 556.2814,255.03009 533.1692,296.60412 496.72063,350.86679 C 553.47339,342.95471 601.3427,339.79583 691.21008,314.17857 C 604.22221,348.31851 564.24744,374.84105 514.32657,402.97269 C 586.41799,426.07932 658.3945,450.01445 730.98918,469.49225 C 759.95149,477.325 791.93329,463.36859 824.53247,444.97704 C 867.06791,410.03376 865.53069,372.66899 843.9423,334.21705 C 830.31318,313.81036 815.27644,300.78263 807.51341,275.50784 L 807.49279,275.45849 L 807.14267,274.4223 L 807.14328,274.41243 C 797.98548,249.60892 802.02892,230.10129 800.48764,205.61022 C 799.33299,197.42291 797.64339,189.69482 795.29394,182.52692 z "
           style="fill:#e20909;fill-opacity:1;fill-rule:evenodd;stroke:#000000;stroke-width:14.20802212;stroke-linecap:butt;stroke-linejoin:miter;stroke-miterlimit:4;stroke-dasharray:none;stroke-opacity:1"
           id="path5777" />
        <g
           transform="matrix(0.320108,0.94738,-0.94738,0.320108,688.9379,-180.564)"
           style="fill:#e20909;fill-opacity:1;stroke:#000000;stroke-width:14.20803642;stroke-miterlimit:4;stroke-dasharray:none;stroke-opacity:1"
           id="g5779">
          <path
             d="M 469.4375,156.21875 C 464.9395,249.55778 452.60879,295.91949 441.9375,352.21875 C 441.78192,352.01556 441.62409,351.82768 441.46875,351.625 L 441.53125,352.8125 L 496.5,352.8125 L 496.625,350.59375 C 486.0262,295.02604 473.89187,248.65273 469.4375,156.21875 z "
             style="fill:#e20909;fill-opacity:1;fill-rule:evenodd;stroke:#000000;stroke-width:14.20803642;stroke-linecap:butt;stroke-linejoin:miter;stroke-miterlimit:4;stroke-dasharray:none;stroke-opacity:1"
             id="path5781" />
        </g>
      </g>
      <path
         d="M 614.68782,409.418 C 614.70792,480.67366 555.44254,538.44817 482.32804,538.44817 C 409.21353,538.44817 349.94815,480.67366 349.96825,409.418 C 349.94815,338.16234 409.21353,280.38783 482.32804,280.38783 C 555.44254,280.38783 614.70792,338.16234 614.68782,409.418 L 614.68782,409.418 z "
         transform="matrix(0.191604,0,0,0.191604,5.808093,3.468148)"
         style="fill:#e20909;fill-opacity:1;fill-rule:evenodd;stroke:#000000;stroke-width:14.97921371;stroke-miterlimit:4;stroke-dasharray:none;stroke-opacity:1"
         id="path5783" />
    </g>
  </g>
  <g
     inkscape:groupmode="layer"
     id="layer4"
     inkscape:label="Meubles"
     sodipodi:insensitive="true"
     style="display:inline" />
  <g
     inkscape:groupmode="layer"
     id="layer2"
     inkscape:label="Reflet final"
     sodipodi:insensitive="true"
     style="display:inline">
    <path
       sodipodi:nodetypes="cccccc"
       d="M 300.00001,658.5 C 300.00001,658.5 598.50001,546.17969 598.50001,260.72817 C 598.50001,-24.723334 598.50001,2.1764865 598.50001,2.1764865 L 1.5,2.1764865 L 1.5,260.72817 C 1.5,546.17969 300.00001,658.5 300.00001,658.5 z "
       style="opacity:1;fill:url(#radialGradient3163);fill-opacity:1;fill-rule:evenodd;stroke:none;stroke-width:1px;stroke-linecap:butt;stroke-linejoin:miter;stroke-opacity:1"
       id="path2875"
       inkscape:export-xdpi="144"
       inkscape:export-ydpi="144" />
  </g>
  <g
     inkscape:groupmode="layer"
     id="layer1"
     inkscape:label="Contour final"
     sodipodi:insensitive="true"
     style="display:inline">
    <path
       sodipodi:nodetypes="cccccc"
       d="M 299.99999,658.50028 C 299.99999,658.50028 1.5,546.17992 1.5,260.72828 C 1.5,-24.723336 1.5,2.1764957 1.5,2.1764957 L 598.49999,2.1764957 L 598.49999,260.72828 C 598.49999,546.17992 299.99999,658.50028 299.99999,658.50028 z "
       style="opacity:1;fill:none;fill-opacity:1;fill-rule:evenodd;stroke:#000000;stroke-width:3.00000048;stroke-linecap:butt;stroke-linejoin:miter;stroke-miterlimit:4;stroke-dasharray:none;stroke-opacity:1"
       id="path1411"
       inkscape:export-xdpi="144"
       inkscape:export-ydpi="144" />
  </g>
</svg>
