<?xml version="1.0" encoding="UTF-8" standalone="no"?>
<!-- Created with Inkscape (http://www.inkscape.org/) -->
<svg
   xmlns:svg="http://www.w3.org/2000/svg"
   xmlns="http://www.w3.org/2000/svg"
   xmlns:xlink="http://www.w3.org/1999/xlink"
   version="1.0"
   width="600"
   height="660"
   id="svg2">
  <defs
     id="defs6">
    <linearGradient
       id="linearGradient2893">
      <stop
         style="stop-color:#ffffff;stop-opacity:0.3137255"
         offset="0"
         id="stop2895" />
      <stop
         style="stop-color:#ffffff;stop-opacity:0.25098041"
         offset="0.19"
         id="stop2897" />
      <stop
         style="stop-color:#6b6b6b;stop-opacity:0.1254902"
         offset="0.60000002"
         id="stop2901" />
      <stop
         style="stop-color:#000000;stop-opacity:0.1254902"
         offset="1"
         id="stop2899" />
    </linearGradient>
    <radialGradient
       cx="221.44487"
       cy="226.33101"
       r="300"
       fx="221.44487"
       fy="226.33101"
       id="radialGradient3163"
       xlink:href="#linearGradient2893"
       gradientUnits="userSpaceOnUse"
       gradientTransform="matrix(1.353218,0,0,1.348928,-77.62935,-85.74693)" />
  </defs>
  <g
     style="display:inline"
     id="layer3">
    <path
       d="M 300,658.5 C 300,658.5 598.50001,546.17969 598.50001,260.72817 C 598.50001,-24.723354 598.50001,2.1764765 598.50001,2.1764765 L 1.5,2.1764765 L 1.5,260.72817 C 1.5,546.17969 300,658.5 300,658.5 z "
       style="fill:#d40000;fill-opacity:1;fill-rule:evenodd;stroke:none;stroke-width:1px;stroke-linecap:butt;stroke-linejoin:miter;stroke-opacity:1"
       id="path2855" />
    <path
       d="M 1.5,2.1875 L 1.5,190 L 598.5,190 C 598.5,88.328837 598.5,2.1875 598.5,2.1875 L 1.5,2.1875 z "
       style="opacity:1;fill:#ffffff;fill-opacity:1;fill-rule:evenodd;stroke:#000000;stroke-width:3;stroke-linecap:square;stroke-linejoin:miter;stroke-miterlimit:4;stroke-dasharray:none;stroke-dashoffset:0;stroke-opacity:1"
       id="rect3326" />
  </g>
  <g
     id="layer4">
    <path
       d="M 262.88257,501.45147 C 262.88257,521.95084 246.26282,538.56893 225.76345,538.56893 C 233.42029,551.83113 247.56889,560 262.88089,560 C 278.19456,560 292.34317,551.83113 300,538.56893 C 307.65683,551.83113 321.80544,560 337.11743,560 C 352.43111,560 366.57971,551.83113 374.23655,538.56893 C 353.73718,538.56893 337.11743,521.95084 337.11743,501.45147 L 337.11743,337.11743 L 501.45148,337.11743 C 521.95085,337.11743 538.56892,353.73718 538.56892,374.23654 C 551.83114,366.57971 560,352.43111 560,337.11911 C 560,321.80543 551.83114,307.65683 538.56892,300 C 551.83114,292.34317 560,278.19457 560,262.88257 C 560,247.56889 551.83114,233.42029 538.56892,225.76346 C 538.56892,246.26282 521.95085,262.88257 501.45148,262.88257 L 337.11743,262.88257 L 337.11743,98.548514 C 337.11743,78.048648 353.73718,61.430241 374.23655,61.430241 C 366.57971,48.169193 352.43111,40 337.11743,40 C 321.80544,40 307.65683,48.169193 300,61.430241 C 292.34317,48.169193 278.19456,40 262.88089,40 C 247.56889,40 233.42029,48.169193 225.76345,61.430241 C 246.26282,61.430241 262.88257,78.048648 262.88257,98.548514 L 262.88257,262.88257 L 98.548516,262.88257 C 78.048645,262.88257 61.430241,246.26282 61.430241,225.76346 C 48.169193,233.42029 40,247.56889 40,262.88257 C 40,278.19457 48.169193,292.34317 61.430241,300 C 48.169193,307.65683 40,321.80543 40,337.11911 C 40,352.43111 48.169193,366.57971 61.430241,374.23654 C 61.430241,353.73718 78.048645,337.11743 98.548516,337.11743 L 262.88257,337.11743 L 262.88257,501.45147 z "
       style="fill:#000000;stroke:none"
       id="path3285" />
  </g>
  <g
     id="layer2">
    <path
       d="M 300.00001,658.5 C 300.00001,658.5 598.50001,546.17969 598.50001,260.72817 C 598.50001,-24.723334 598.50001,2.1764865 598.50001,2.1764865 L 1.5,2.1764865 L 1.5,260.72817 C 1.5,546.17969 300.00001,658.5 300.00001,658.5 z "
       style="opacity:1;fill:url(#radialGradient3163);fill-opacity:1;fill-rule:evenodd;stroke:none;stroke-width:1px;stroke-linecap:butt;stroke-linejoin:miter;stroke-opacity:1"
       id="path2875" />
  </g>
  <g
     id="layer1">
    <path
       d="M 299.99999,658.50028 C 299.99999,658.50028 1.5,546.17992 1.5,260.72828 C 1.5,-24.723336 1.5,2.1764957 1.5,2.1764957 L 598.49999,2.1764957 L 598.49999,260.72828 C 598.49999,546.17992 299.99999,658.50028 299.99999,658.50028 z "
       style="opacity:1;fill:none;fill-opacity:1;fill-rule:evenodd;stroke:#000000;stroke-width:3.00000048;stroke-linecap:butt;stroke-linejoin:miter;stroke-miterlimit:4;stroke-dasharray:none;stroke-opacity:1"
       id="path1411" />
  </g>
</svg>
