<?xml version="1.0" encoding="UTF-8" standalone="no"?>
<svg
   xmlns:dc="http://purl.org/dc/elements/1.1/"
   xmlns:cc="http://creativecommons.org/ns#"
   xmlns:rdf="http://www.w3.org/1999/02/22-rdf-syntax-ns#"
   xmlns:svg="http://www.w3.org/2000/svg"
   xmlns="http://www.w3.org/2000/svg"
   xmlns:xlink="http://www.w3.org/1999/xlink"
   xmlns:sodipodi="http://sodipodi.sourceforge.net/DTD/sodipodi-0.dtd"
   xmlns:inkscape="http://www.inkscape.org/namespaces/inkscape"
   height="660"
   width="600"
   version="1.0"
   id="svg2"
   sodipodi:version="0.32"
   inkscape:version="0.46"
   sodipodi:docname="Blason ville fr Samer (Pas-de-Calais).svg"
   sodipodi:docbase="D:\Mes documents\Renaud-Notre Lapin"
   inkscape:export-filename="/Users/olivier/Desktop/Blason Rouge/Blason_Vide_3D.png"
   inkscape:export-xdpi="144"
   inkscape:export-ydpi="144"
   inkscape:output_extension="org.inkscape.output.svg.inkscape">
  <metadata
     id="metadata49">
    <rdf:RDF>
      <cc:Work
         rdf:about="">
        <dc:format>image/svg+xml</dc:format>
        <dc:type
           rdf:resource="http://purl.org/dc/dcmitype/StillImage" />
        <dc:title>Gabarit d'un blason en pointe pour le projet Blasons de Wikipédia</dc:title>
        <dc:date>03-AUG-2006</dc:date>
        <dc:creator>
          <cc:Agent>
            <dc:title>Jérôme BLUM (wagner51)</dc:title>
          </cc:Agent>
        </dc:creator>
        <cc:license
           rdf:resource="http://web.resource.org/cc/PublicDomain" />
        <dc:language>fr</dc:language>
        <dc:subject>
          <rdf:Bag>
            <rdf:li>gabarit modèle blason projet wikipédia</rdf:li>
          </rdf:Bag>
        </dc:subject>
      </cc:Work>
      <cc:License
         rdf:about="http://web.resource.org/cc/PublicDomain">
        <cc:permits
           rdf:resource="http://web.resource.org/cc/Reproduction" />
        <cc:permits
           rdf:resource="http://web.resource.org/cc/Distribution" />
        <cc:permits
           rdf:resource="http://web.resource.org/cc/DerivativeWorks" />
      </cc:License>
    </rdf:RDF>
  </metadata>
  <sodipodi:namedview
     inkscape:window-height="814"
     inkscape:window-width="1152"
     inkscape:pageshadow="2"
     inkscape:pageopacity="0.0"
     guidetolerance="10.0"
     gridtolerance="10.0"
     objecttolerance="10.0"
     borderopacity="1.0"
     bordercolor="#666666"
     pagecolor="#ffffff"
     id="base"
     showgrid="false"
     height="660px"
     inkscape:zoom="0.35355339"
     inkscape:cx="323.66525"
     inkscape:cy="20.516359"
     inkscape:window-x="-8"
     inkscape:window-y="-8"
     inkscape:current-layer="layer3"
     showguides="true"
     inkscape:guide-bbox="true" />
  <desc
     id="desc4">Flag of Canton of Valais (Wallis)</desc>
  <defs
     id="defs6">
    <linearGradient
       id="linearGradient2893">
      <stop
         style="stop-color:white;stop-opacity:0.3137255;"
         offset="0"
         id="stop2895" />
      <stop
         id="stop2897"
         offset="0.19"
         style="stop-color:white;stop-opacity:0.25098041;" />
      <stop
         style="stop-color:#6b6b6b;stop-opacity:0.1254902;"
         offset="0.60000002"
         id="stop2901" />
      <stop
         style="stop-color:black;stop-opacity:0.1254902;"
         offset="1"
         id="stop2899" />
    </linearGradient>
    <radialGradient
       inkscape:collect="always"
       xlink:href="#linearGradient2893"
       id="radialGradient3163"
       gradientUnits="userSpaceOnUse"
       gradientTransform="matrix(1.353218,0,0,1.348928,-77.62935,-85.74693)"
       cx="221.44487"
       cy="226.33101"
       fx="221.44487"
       fy="226.33101"
       r="300" />
    <g
       id="s">
      <g
         id="c">
        <path
           id="t"
           d="M 0,0 L 0,1 L 0.5,1 L 0,0 z "
           transform="matrix(0.951057,0.309017,-0.309017,0.951057,0,-1)" />
        <use
           xlink:href="#t"
           transform="scale(-1,1)"
           id="use2144"
           x="0"
           y="0"
           width="810"
           height="540" />
      </g>
      <g
         id="a">
        <use
           xlink:href="#c"
           transform="matrix(0.309017,0.951057,-0.951057,0.309017,0,0)"
           id="use2147"
           x="0"
           y="0"
           width="810"
           height="540" />
        <use
           xlink:href="#c"
           transform="matrix(-0.809017,0.587785,-0.587785,-0.809017,0,0)"
           id="use2149"
           x="0"
           y="0"
           width="810"
           height="540" />
      </g>
      <use
         xlink:href="#a"
         transform="scale(-1,1)"
         id="use2151"
         x="0"
         y="0"
         width="810"
         height="540" />
    </g>
  </defs>
  <g
     inkscape:groupmode="layer"
     id="layer3"
     inkscape:label="Fond écu"
     style="display:inline">
    <path
       id="path2855"
       style="fill:#fcef3c;fill-opacity:1;fill-rule:evenodd;stroke:none;stroke-width:1px;stroke-linecap:butt;stroke-linejoin:miter;stroke-opacity:1"
       d="M 299.99284,658.5 C 299.99284,658.5 598.49285,546.17969 598.49285,260.72817 C 598.49285,-24.723354 598.49285,2.1764765 598.49285,2.1764765 L 1.4929116,2.1764765 L 1.4929116,260.72817 C 1.4929116,546.17969 299.99284,658.5 299.99284,658.5 z"
       sodipodi:nodetypes="cccccc" />
    <g
       id="g4519"
       transform="translate(-37.780363,-6.3492064)">
      <g
         style="fill:#000000;stroke:#313131;stroke-width:0.95880574;stroke-miterlimit:4;stroke-dasharray:none;stroke-opacity:1"
         transform="matrix(1.9174662,1.9174662,-1.9174662,1.9174662,551.72182,56.113085)"
         id="g4459">
        <g
           style="fill:#000000;stroke:#313131;stroke-width:0.96725082;stroke-miterlimit:4;stroke-dasharray:none;stroke-opacity:1"
           transform="matrix(0.991269,0,0,0.991269,96.88623,-3.225443)"
           id="g21688">
          <path
             d="M -78.760528,3.4097594 C -89.148017,4.1278343 -97.354277,12.834688 -97.354278,23.409759 C -97.354278,25.135424 -97.140632,26.813027 -96.729278,28.409759 L -90.948028,28.409759 C -91.516411,26.860515 -91.823028,25.156993 -91.823028,23.409759 C -91.823031,15.672009 -85.741423,9.3287949 -78.104278,8.9410094 C -77.857922,8.9285 -77.603727,8.9410094 -77.354278,8.9410094 C -69.371916,8.9410093 -62.916778,15.422404 -62.916778,23.409759 C -62.916777,27.403436 -64.530562,31.020623 -67.142143,33.639392 C -69.753723,36.25816 -72.850727,38.42843 -74.827542,39.863802 C -76.823149,41.312818 -77.603044,43.316935 -77.59375,45.395051 C -77.584456,47.473167 -77.323028,60.034759 -77.323028,60.034759 L -71.323028,60.034759 C -71.323028,60.034759 -71.323028,55.644134 -71.323028,51.253509 C -71.323028,46.862884 -71.830391,44.295325 -70.149901,42.923462 C -68.414695,41.506933 -63.784486,38.661617 -61.303887,35.333584 C -58.823288,32.005551 -57.354278,27.879993 -57.354278,23.409759 C -57.354278,12.365503 -66.316928,3.4097594 -77.354278,3.4097594 C -77.65608,3.4097594 -77.961976,3.3964965 -78.260528,3.4097594 C -78.343496,3.4134452 -78.427824,3.4050602 -78.510528,3.4097594 C -78.592586,3.4144219 -78.678737,3.4041053 -78.760528,3.4097594 z"
             style="fill:#000000;fill-opacity:1;fill-rule:nonzero;stroke:#313131;stroke-width:0.96725082;stroke-miterlimit:4;stroke-dasharray:none;stroke-opacity:1"
             id="path12604" />
          <g
             transform="translate(0.270722,-9.024056e-2)"
             style="fill:#000000;fill-opacity:1;stroke:#313131;stroke-width:0.96725082;stroke-miterlimit:4;stroke-dasharray:none;stroke-opacity:1"
             id="g17018">
            <path
               sodipodi:nodetypes="ccccccsssccsccscccccccccccc"
               d="M -84.220228,41.896074 C -81.62296,43.420527 -82.812034,46.99204 -85.700583,46.091578 C -85.700583,46.091578 -81.826858,51.132611 -78.805805,48.111558 C -76.401104,45.694125 -77.727351,43.137704 -80.35893,41.853644 C -78.296607,40.324963 -76.014601,41.370953 -76.014601,41.370953 C -76.433336,35.422561 -84.462645,36.797288 -88.452613,34.030016 C -86.040119,35.492838 -81.930544,36.125535 -80.842839,35.834085 C -74.231664,34.062626 -73.054646,31.083879 -72.190557,27.859056 C -71.801663,26.407684 -71.064764,25.838386 -69.861717,25.437259 C -68.658663,25.036125 -65.776641,21.012461 -66.702213,19.624359 C -68.07898,20.94348 -69.659536,21.740398 -72.006024,21.770391 C -70.111206,19.99556 -70.657552,18.314526 -69.870986,17.589526 C -69.084406,16.864523 -67.857425,15.411372 -67.857425,15.411372 C -67.857425,15.411372 -70.678658,13.549605 -73.640706,16.577138 C -72.993133,13.739034 -73.688147,10.877162 -74.906716,10.152328 C -76.125285,9.4274936 -80.120227,8.5486546 -80.120227,8.5486546 C -77.318065,11.257711 -77.350549,13.426762 -79.881343,16.079516 L -80.304934,13.083382 C -82.108079,12.855459 -84.235111,13.859273 -84.251207,16.009903 C -83.933663,18.035392 -81.072831,20.569667 -79.963198,22.146608 C -81.983868,21.020815 -87.328218,22.498716 -86.202249,22.483201 C -82.926246,23.535777 -78.845778,26.213876 -81.394093,29.855034 C -84.555597,32.983862 -88.552357,30.99098 -90.514491,27.644668 C -90.514491,27.644668 -91.856551,25.9327 -90.514491,27.644668 C -87.809438,30.383202 -84.247415,27.710178 -84.254822,24.416585 C -93.618253,26.66956 -94.590699,16.528203 -95.965724,15.182302 C -103.54577,34.08034 -86.055834,40.245842 -84.220228,41.896074 z"
               style="fill:#000000;fill-opacity:1;fill-rule:evenodd;stroke:#313131;stroke-width:0.96725082;stroke-linecap:butt;stroke-linejoin:miter;stroke-miterlimit:4;stroke-dasharray:none;stroke-opacity:1"
               id="path11679" />
            <g
               style="fill:#000000;fill-opacity:1;stroke:#313131;stroke-width:0.96725082;stroke-miterlimit:4;stroke-dasharray:none;stroke-opacity:1"
               id="g17008">
              <path
                 sodipodi:nodetypes="cccccccsccccccccccccccccc"
                 d="M -89.953409,31.502403 C -85.5347,34.080603 -80.444891,34.896627 -77.728799,30.247541 C -77.252702,29.370248 -76.803603,28.326789 -76.481586,27.170149 C -76.102596,25.578917 -75.821367,23.928841 -75.802068,22.289543 C -75.860598,20.679283 -76.147931,19.24877 -76.3985,18.277128 C -76.772557,15.082473 -74.285666,13.638959 -76.614234,11.099714 M -82.247864,16.032334 C -81.911833,17.544264 -80.741352,18.43553 -79.534871,19.404548 C -78.222507,20.458609 -77.72089,21.742296 -75.802068,22.289543 M -70.568116,15.972704 C -73.622362,18.117147 -72.224449,20.84309 -75.802068,22.289543 M -68.609974,22.379784 C -70.042027,23.861563 -71.696758,24.245055 -72.873348,24.455091 C -74.230438,24.553324 -75.697416,25.198289 -76.427082,26.834208 M -82.209148,22.830987 C -78.832873,23.748824 -76.76024,26.407006 -77.535092,29.916787 M -93.579458,22.830987 C -91.959064,24.969381 -89.123424,27.624997 -86.153175,26.327863 M -78.960488,40.066933 C -80.299319,37.952108 -83.091626,38.875076 -86.006812,37.6461 C -87.100819,37.143203 -88.149662,36.472598 -89.247912,35.735386 M -83.201794,47.105697 C -80.465177,47.528841 -80.301323,45.813796 -80.92041,43.977076 C -81.429428,42.65226 -82.343168,41.704538 -83.345791,40.712213 C -84.585435,39.720108 -86.386772,37.489108 -86.386772,37.489108"
                 style="fill:none;fill-opacity:1;fill-rule:evenodd;stroke:#313131;stroke-width:0.55802929;stroke-linecap:butt;stroke-linejoin:miter;stroke-miterlimit:4;stroke-dasharray:none;stroke-opacity:1"
                 id="path15234" />
            </g>
          </g>
          <g
             transform="translate(0.46875,-2)"
             style="fill:#000000;fill-opacity:1;stroke:#313131;stroke-width:0.96725082;stroke-miterlimit:4;stroke-dasharray:none;stroke-opacity:1"
             id="g21648">
            <path
               d="M -79.37224,202.36688 C -80.635608,204.17169 -79.922712,209.23552 -84.43474,210.67938 C -76.52632,215.24531 -74.937212,231.92339 -74.90349,232.08563 C -74.859677,231.92212 -72.995283,215.09859 -65.34099,210.67938 C -69.853018,209.23552 -69.140117,204.17169 -70.40349,202.36688 C -70.597867,198.27332 -74.126146,198.96063 -75.24724,198.96063 C -76.368335,198.96063 -79.37224,198.76434 -79.37224,202.36688 z"
               style="fill:#000000;fill-opacity:1;fill-rule:evenodd;stroke:#313131;stroke-width:0.96725082;stroke-linecap:butt;stroke-linejoin:miter;stroke-miterlimit:4;stroke-dasharray:none;stroke-opacity:1"
               id="path19895" />
            <path
               d="M -74.887865,229.22198 L -74.887865,205.875"
               style="fill:#000000;fill-opacity:1;fill-rule:evenodd;stroke:#313131;stroke-width:0.96725082;stroke-linecap:butt;stroke-linejoin:miter;stroke-miterlimit:4;stroke-dasharray:none;stroke-opacity:1"
               id="path20773" />
          </g>
          <rect
             width="5.9558768"
             height="137.12163"
             x="-77.397057"
             y="60.032104"
             style="fill:#000000;fill-opacity:1;fill-rule:nonzero;stroke:#313131;stroke-width:0.96725082;stroke-miterlimit:4;stroke-dasharray:none;stroke-opacity:1"
             id="rect17044" />
          <g
             transform="translate(-0.150979,0)"
             style="fill:#000000;fill-opacity:1;stroke:#313131;stroke-width:0.96725082;stroke-miterlimit:4;stroke-dasharray:none;stroke-opacity:1"
             id="g18799">
            <path
               d="M -68.384549,59.244157 C -68.320075,62.095593 -69.304823,62.059281 -74.267731,62.059281 C -79.147093,62.059281 -80.078183,61.951042 -80.150912,59.244157 C -80.227638,56.388473 -79.139577,56.429034 -74.267731,56.429034 C -69.666606,56.429034 -68.452387,56.243975 -68.384549,59.244157 z"
               style="fill:#000000;fill-opacity:1;fill-rule:nonzero;stroke:#313131;stroke-width:0.96725082;stroke-miterlimit:4;stroke-dasharray:none;stroke-opacity:1"
               id="path17922" />
            <path
               d="M -67.335386,59.243743 C -67.259412,61.026133 -70.441137,61.003434 -74.267867,61.003434 C -78.094595,61.003434 -81.114646,60.935776 -81.200346,59.243743 C -81.290758,57.458698 -78.094595,57.484052 -74.267867,57.484052 C -70.441137,57.484052 -67.415324,57.368375 -67.335386,59.243743 z"
               style="fill:#000000;fill-opacity:1;fill-rule:nonzero;stroke:#313131;stroke-width:0.96725082;stroke-miterlimit:4;stroke-dasharray:none;stroke-opacity:1"
               id="path17919" />
          </g>
          <g
             transform="translate(-0.150979,138.7596)"
             style="fill:#000000;fill-opacity:1;stroke:#313131;stroke-width:0.96725082;stroke-miterlimit:4;stroke-dasharray:none;stroke-opacity:1"
             id="g19889">
            <path
               d="M -68.384549,59.244157 C -68.320075,62.095593 -69.304823,62.059281 -74.267731,62.059281 C -79.147093,62.059281 -80.078183,61.951042 -80.150912,59.244157 C -80.227638,56.388473 -79.139577,56.429034 -74.267731,56.429034 C -69.666606,56.429034 -68.452387,56.243975 -68.384549,59.244157 z"
               style="fill:#000000;fill-opacity:1;fill-rule:nonzero;stroke:#313131;stroke-width:0.96725082;stroke-miterlimit:4;stroke-dasharray:none;stroke-opacity:1"
               id="path19891" />
            <path
               d="M -67.335386,59.243743 C -67.259412,61.026133 -70.441137,61.003434 -74.267867,61.003434 C -78.094595,61.003434 -81.114646,60.935776 -81.200346,59.243743 C -81.290758,57.458698 -78.094595,57.484052 -74.267867,57.484052 C -70.441137,57.484052 -67.415324,57.368375 -67.335386,59.243743 z"
               style="fill:#000000;fill-opacity:1;fill-rule:nonzero;stroke:#313131;stroke-width:0.96725082;stroke-miterlimit:4;stroke-dasharray:none;stroke-opacity:1"
               id="path19893" />
          </g>
        </g>
      </g>
      <g
         id="g4485"
         transform="matrix(-1.9174662,1.9174662,1.9174662,1.9174662,123.82474,56.113085)"
         style="fill:#000000;stroke:#313131;stroke-width:0.95880574;stroke-miterlimit:4;stroke-dasharray:none;stroke-opacity:1">
        <g
           id="g4487"
           transform="matrix(0.991269,0,0,0.991269,96.88623,-3.225443)"
           style="fill:#000000;stroke:#313131;stroke-width:0.96725082;stroke-miterlimit:4;stroke-dasharray:none;stroke-opacity:1">
          <path
             id="path4489"
             style="fill:#000000;fill-opacity:1;fill-rule:nonzero;stroke:#313131;stroke-width:0.96725082;stroke-miterlimit:4;stroke-dasharray:none;stroke-opacity:1"
             d="M -78.760528,3.4097594 C -89.148017,4.1278343 -97.354277,12.834688 -97.354278,23.409759 C -97.354278,25.135424 -97.140632,26.813027 -96.729278,28.409759 L -90.948028,28.409759 C -91.516411,26.860515 -91.823028,25.156993 -91.823028,23.409759 C -91.823031,15.672009 -85.741423,9.3287949 -78.104278,8.9410094 C -77.857922,8.9285 -77.603727,8.9410094 -77.354278,8.9410094 C -69.371916,8.9410093 -62.916778,15.422404 -62.916778,23.409759 C -62.916777,27.403436 -64.530562,31.020623 -67.142143,33.639392 C -69.753723,36.25816 -72.850727,38.42843 -74.827542,39.863802 C -76.823149,41.312818 -77.603044,43.316935 -77.59375,45.395051 C -77.584456,47.473167 -77.323028,60.034759 -77.323028,60.034759 L -71.323028,60.034759 C -71.323028,60.034759 -71.323028,55.644134 -71.323028,51.253509 C -71.323028,46.862884 -71.830391,44.295325 -70.149901,42.923462 C -68.414695,41.506933 -63.784486,38.661617 -61.303887,35.333584 C -58.823288,32.005551 -57.354278,27.879993 -57.354278,23.409759 C -57.354278,12.365503 -66.316928,3.4097594 -77.354278,3.4097594 C -77.65608,3.4097594 -77.961976,3.3964965 -78.260528,3.4097594 C -78.343496,3.4134452 -78.427824,3.4050602 -78.510528,3.4097594 C -78.592586,3.4144219 -78.678737,3.4041053 -78.760528,3.4097594 z" />
          <g
             id="g4491"
             style="fill:#000000;fill-opacity:1;stroke:#313131;stroke-width:0.96725082;stroke-miterlimit:4;stroke-dasharray:none;stroke-opacity:1"
             transform="translate(0.270722,-9.024056e-2)">
            <path
               id="path4493"
               style="fill:#000000;fill-opacity:1;fill-rule:evenodd;stroke:#313131;stroke-width:0.96725082;stroke-linecap:butt;stroke-linejoin:miter;stroke-miterlimit:4;stroke-dasharray:none;stroke-opacity:1"
               d="M -84.220228,41.896074 C -81.62296,43.420527 -82.812034,46.99204 -85.700583,46.091578 C -85.700583,46.091578 -81.826858,51.132611 -78.805805,48.111558 C -76.401104,45.694125 -77.727351,43.137704 -80.35893,41.853644 C -78.296607,40.324963 -76.014601,41.370953 -76.014601,41.370953 C -76.433336,35.422561 -84.462645,36.797288 -88.452613,34.030016 C -86.040119,35.492838 -81.930544,36.125535 -80.842839,35.834085 C -74.231664,34.062626 -73.054646,31.083879 -72.190557,27.859056 C -71.801663,26.407684 -71.064764,25.838386 -69.861717,25.437259 C -68.658663,25.036125 -65.776641,21.012461 -66.702213,19.624359 C -68.07898,20.94348 -69.659536,21.740398 -72.006024,21.770391 C -70.111206,19.99556 -70.657552,18.314526 -69.870986,17.589526 C -69.084406,16.864523 -67.857425,15.411372 -67.857425,15.411372 C -67.857425,15.411372 -70.678658,13.549605 -73.640706,16.577138 C -72.993133,13.739034 -73.688147,10.877162 -74.906716,10.152328 C -76.125285,9.4274936 -80.120227,8.5486546 -80.120227,8.5486546 C -77.318065,11.257711 -77.350549,13.426762 -79.881343,16.079516 L -80.304934,13.083382 C -82.108079,12.855459 -84.235111,13.859273 -84.251207,16.009903 C -83.933663,18.035392 -81.072831,20.569667 -79.963198,22.146608 C -81.983868,21.020815 -87.328218,22.498716 -86.202249,22.483201 C -82.926246,23.535777 -78.845778,26.213876 -81.394093,29.855034 C -84.555597,32.983862 -88.552357,30.99098 -90.514491,27.644668 C -90.514491,27.644668 -91.856551,25.9327 -90.514491,27.644668 C -87.809438,30.383202 -84.247415,27.710178 -84.254822,24.416585 C -93.618253,26.66956 -94.590699,16.528203 -95.965724,15.182302 C -103.54577,34.08034 -86.055834,40.245842 -84.220228,41.896074 z"
               sodipodi:nodetypes="ccccccsssccsccscccccccccccc" />
            <g
               id="g4495"
               style="fill:#000000;fill-opacity:1;stroke:#313131;stroke-width:0.96725082;stroke-miterlimit:4;stroke-dasharray:none;stroke-opacity:1">
              <path
                 id="path4497"
                 style="fill:none;fill-opacity:1;fill-rule:evenodd;stroke:#313131;stroke-width:0.55802929;stroke-linecap:butt;stroke-linejoin:miter;stroke-miterlimit:4;stroke-dasharray:none;stroke-opacity:1"
                 d="M -89.953409,31.502403 C -85.5347,34.080603 -80.444891,34.896627 -77.728799,30.247541 C -77.252702,29.370248 -76.803603,28.326789 -76.481586,27.170149 C -76.102596,25.578917 -75.821367,23.928841 -75.802068,22.289543 C -75.860598,20.679283 -76.147931,19.24877 -76.3985,18.277128 C -76.772557,15.082473 -74.285666,13.638959 -76.614234,11.099714 M -82.247864,16.032334 C -81.911833,17.544264 -80.741352,18.43553 -79.534871,19.404548 C -78.222507,20.458609 -77.72089,21.742296 -75.802068,22.289543 M -70.568116,15.972704 C -73.622362,18.117147 -72.224449,20.84309 -75.802068,22.289543 M -68.609974,22.379784 C -70.042027,23.861563 -71.696758,24.245055 -72.873348,24.455091 C -74.230438,24.553324 -75.697416,25.198289 -76.427082,26.834208 M -82.209148,22.830987 C -78.832873,23.748824 -76.76024,26.407006 -77.535092,29.916787 M -93.579458,22.830987 C -91.959064,24.969381 -89.123424,27.624997 -86.153175,26.327863 M -78.960488,40.066933 C -80.299319,37.952108 -83.091626,38.875076 -86.006812,37.6461 C -87.100819,37.143203 -88.149662,36.472598 -89.247912,35.735386 M -83.201794,47.105697 C -80.465177,47.528841 -80.301323,45.813796 -80.92041,43.977076 C -81.429428,42.65226 -82.343168,41.704538 -83.345791,40.712213 C -84.585435,39.720108 -86.386772,37.489108 -86.386772,37.489108"
                 sodipodi:nodetypes="cccccccsccccccccccccccccc" />
            </g>
          </g>
          <g
             id="g4499"
             style="fill:#000000;fill-opacity:1;stroke:#313131;stroke-width:0.96725082;stroke-miterlimit:4;stroke-dasharray:none;stroke-opacity:1"
             transform="translate(0.46875,-2)">
            <path
               id="path4501"
               style="fill:#000000;fill-opacity:1;fill-rule:evenodd;stroke:#313131;stroke-width:0.96725082;stroke-linecap:butt;stroke-linejoin:miter;stroke-miterlimit:4;stroke-dasharray:none;stroke-opacity:1"
               d="M -79.37224,202.36688 C -80.635608,204.17169 -79.922712,209.23552 -84.43474,210.67938 C -76.52632,215.24531 -74.937212,231.92339 -74.90349,232.08563 C -74.859677,231.92212 -72.995283,215.09859 -65.34099,210.67938 C -69.853018,209.23552 -69.140117,204.17169 -70.40349,202.36688 C -70.597867,198.27332 -74.126146,198.96063 -75.24724,198.96063 C -76.368335,198.96063 -79.37224,198.76434 -79.37224,202.36688 z" />
            <path
               id="path4503"
               style="fill:#000000;fill-opacity:1;fill-rule:evenodd;stroke:#313131;stroke-width:0.96725082;stroke-linecap:butt;stroke-linejoin:miter;stroke-miterlimit:4;stroke-dasharray:none;stroke-opacity:1"
               d="M -74.887865,229.22198 L -74.887865,205.875" />
          </g>
          <rect
             id="rect4505"
             style="fill:#000000;fill-opacity:1;fill-rule:nonzero;stroke:#313131;stroke-width:0.96725082;stroke-miterlimit:4;stroke-dasharray:none;stroke-opacity:1"
             y="60.032104"
             x="-77.397057"
             height="137.12163"
             width="5.9558768" />
          <g
             id="g4507"
             style="fill:#000000;fill-opacity:1;stroke:#313131;stroke-width:0.96725082;stroke-miterlimit:4;stroke-dasharray:none;stroke-opacity:1"
             transform="translate(-0.150979,0)">
            <path
               id="path4509"
               style="fill:#000000;fill-opacity:1;fill-rule:nonzero;stroke:#313131;stroke-width:0.96725082;stroke-miterlimit:4;stroke-dasharray:none;stroke-opacity:1"
               d="M -68.384549,59.244157 C -68.320075,62.095593 -69.304823,62.059281 -74.267731,62.059281 C -79.147093,62.059281 -80.078183,61.951042 -80.150912,59.244157 C -80.227638,56.388473 -79.139577,56.429034 -74.267731,56.429034 C -69.666606,56.429034 -68.452387,56.243975 -68.384549,59.244157 z" />
            <path
               id="path4511"
               style="fill:#000000;fill-opacity:1;fill-rule:nonzero;stroke:#313131;stroke-width:0.96725082;stroke-miterlimit:4;stroke-dasharray:none;stroke-opacity:1"
               d="M -67.335386,59.243743 C -67.259412,61.026133 -70.441137,61.003434 -74.267867,61.003434 C -78.094595,61.003434 -81.114646,60.935776 -81.200346,59.243743 C -81.290758,57.458698 -78.094595,57.484052 -74.267867,57.484052 C -70.441137,57.484052 -67.415324,57.368375 -67.335386,59.243743 z" />
          </g>
          <g
             id="g4513"
             style="fill:#000000;fill-opacity:1;stroke:#313131;stroke-width:0.96725082;stroke-miterlimit:4;stroke-dasharray:none;stroke-opacity:1"
             transform="translate(-0.150979,138.7596)">
            <path
               id="path4515"
               style="fill:#000000;fill-opacity:1;fill-rule:nonzero;stroke:#313131;stroke-width:0.96725082;stroke-miterlimit:4;stroke-dasharray:none;stroke-opacity:1"
               d="M -68.384549,59.244157 C -68.320075,62.095593 -69.304823,62.059281 -74.267731,62.059281 C -79.147093,62.059281 -80.078183,61.951042 -80.150912,59.244157 C -80.227638,56.388473 -79.139577,56.429034 -74.267731,56.429034 C -69.666606,56.429034 -68.452387,56.243975 -68.384549,59.244157 z" />
            <path
               id="path4517"
               style="fill:#000000;fill-opacity:1;fill-rule:nonzero;stroke:#313131;stroke-width:0.96725082;stroke-miterlimit:4;stroke-dasharray:none;stroke-opacity:1"
               d="M -67.335386,59.243743 C -67.259412,61.026133 -70.441137,61.003434 -74.267867,61.003434 C -78.094595,61.003434 -81.114646,60.935776 -81.200346,59.243743 C -81.290758,57.458698 -78.094595,57.484052 -74.267867,57.484052 C -70.441137,57.484052 -67.415324,57.368375 -67.335386,59.243743 z" />
          </g>
        </g>
      </g>
    </g>
    <g
       id="g6729"
       transform="translate(149.42473,30.404364)"
       style="fill:#000000;stroke:#313131;stroke-width:2;stroke-miterlimit:4;stroke-dasharray:none;stroke-opacity:1">
      <g
         transform="matrix(0.469225,0,0,0.478106,-25.55671,-141.5733)"
         id="g1892"
         style="fill:#000000;stroke:#313131;stroke-width:4.22257471;stroke-miterlimit:4;stroke-dasharray:none;stroke-opacity:1">
        <path
           d="M 225.06956,598.83523 C 225.92092,596.01392 220.80615,585.25765 250.53276,543.7602 C 181.86054,474.12739 156.16135,378.62461 209.00027,310.29379 L 205.08641,302.46607 L 167.51333,336.90806 L 146.37847,336.90806 C 133.71869,329.41392 126.14291,314.29379 117.41588,300.90052 C 112.968,305.9135 107.68783,309.61861 117.41588,336.90806 C 160.94396,376.30761 155.85207,415.70717 159.6856,455.10672 C 136.10781,461.57809 114.70664,433.22359 93.149935,407.35759 C 84.460645,392.23884 72.309144,389.23782 59.490715,388.57105 C 84.661255,435.59503 106.35021,486.46706 169.86165,491.11426 L 228.56959,567.82597 C 182.91116,576.05225 129.12656,566.89728 102.54321,532.6012 C 97.090119,531.68496 93.447398,530.86812 96.281025,539.27444 C 142.50891,595.37675 158.74519,602.26409 219.0168,602.29291 C 228.0076,602.29721 224.31752,601.3274 225.06956,598.83523 z M 249.46387,594.72463 C 252.15295,594.12301 257.97354,592.72062 260.66326,592.09192 C 264.30697,596.52994 266.82896,601.24839 262.22881,607.74737 C 253.26955,612.41644 251.99126,604.28391 248.92167,599.13687 C 249.62977,587.15948 261.34777,572.43735 270.05653,556.86715 C 290.37362,519.14928 281.35825,505.87513 277.88426,487.98317 C 275.01496,484.85556 275.8766,480.9962 273.9704,481.72099 C 266.96486,519.25095 247.86991,548.45174 233.8533,570.17428 C 225.84599,585.00157 213.69372,615.6393 246.57336,632.79609 C 264.99536,634.51128 278.72721,632.87635 282.58089,624.18559 C 293.86453,620.14393 302.06296,622.27269 309.19516,626.53391 L 330.33002,602.26796 C 308.51909,591.18313 286.535,575.8794 268.70548,560.91605"
           style="fill:#000000;fill-opacity:1;fill-rule:evenodd;stroke:#313131;stroke-width:4.22257471;stroke-linecap:butt;stroke-linejoin:miter;stroke-miterlimit:4;stroke-dasharray:none;stroke-opacity:1"
           id="path9932" />
        <path
           d="M 525.63565,598.83523 C 524.78429,596.01392 529.89906,585.25765 500.17245,543.7602 C 568.84467,474.12739 594.54386,378.62461 541.70494,310.29379 L 545.6188,302.46607 L 583.19188,336.90806 L 604.32674,336.90806 C 616.98651,329.41392 624.56229,314.29379 633.28933,300.90052 C 637.73721,305.9135 643.01737,309.61861 633.28933,336.90806 C 589.76125,376.30761 594.85314,415.70717 591.01961,455.10672 C 614.5974,461.57809 635.99857,433.22359 657.55527,407.35759 C 666.24456,392.23884 678.39606,389.23782 691.21449,388.57105 C 666.04395,435.59503 644.355,486.46706 580.84356,491.11426 L 522.13562,567.82597 C 567.79405,576.05225 621.57864,566.89728 648.162,532.6012 C 653.61509,531.68496 657.25781,530.86812 654.42418,539.27444 C 608.1963,595.37675 591.96002,602.26409 531.68841,602.29291 C 522.69761,602.29721 526.38769,601.3274 525.63565,598.83523 z M 501.24134,594.72463 C 498.55226,594.12301 492.73167,592.72062 490.04195,592.09192 C 486.39824,596.52994 483.87625,601.24839 488.4764,607.74737 C 497.43566,612.41644 498.71395,604.28391 501.78354,599.13687 C 501.07544,587.15948 489.35743,572.43735 480.64868,556.86715 C 460.33159,519.14928 469.34696,505.87513 472.82095,487.98317 C 475.69025,484.85556 474.82861,480.9962 476.73481,481.72099 C 483.74035,519.25095 502.8353,548.45174 516.85191,570.17428 C 524.85922,585.00157 537.01149,615.6393 504.13185,632.79609 C 485.70985,634.51128 471.978,632.87635 468.12432,624.18559 C 456.84068,620.14393 448.64225,622.27269 441.51005,626.53391 L 420.37519,602.26796 C 442.18612,591.18313 464.1702,575.8794 481.99972,560.91605"
           style="fill:#000000;fill-opacity:1;fill-rule:evenodd;stroke:#313131;stroke-width:4.22257471;stroke-linecap:butt;stroke-linejoin:miter;stroke-miterlimit:4;stroke-dasharray:none;stroke-opacity:1"
           id="path1890" />
      </g>
      <g
         id="g6709"
         style="fill:#000000;stroke:#313131;stroke-width:2;stroke-miterlimit:4;stroke-dasharray:none;stroke-opacity:1">
        <path
           sodipodi:nodetypes="cssscc"
           id="path1974"
           d="M 117.9581,165.06156 C 110.36587,162.58625 106.53389,158.34334 100.23618,156.14406 C 93.938451,153.94479 88.359728,157.89408 84.650948,156.24683 C 80.942195,154.5996 86.612974,166.08631 92.736007,169.10481 C 98.859067,172.12329 113.602,173.70447 117.80214,172.88707 C 119.13177,168.6885 117.78342,165.88077 117.9581,165.06156 z"
           style="fill:#000000;fill-opacity:1;fill-rule:evenodd;stroke:#313131;stroke-width:2;stroke-linecap:butt;stroke-linejoin:miter;stroke-miterlimit:4;stroke-dasharray:none;stroke-opacity:1" />
        <path
           sodipodi:nodetypes="cssscc"
           id="path1976"
           d="M 182.72617,165.95296 C 190.22736,163.2142 193.90892,158.84012 200.12604,156.42239 C 206.34318,154.00466 212.05635,157.75684 215.70536,155.98116 C 219.35437,154.20549 214.08794,165.88312 208.074,169.11348 C 202.06001,172.34382 186.94801,174.39509 182.72189,173.72478 C 182.91809,169.57517 182.92932,166.76559 182.72617,165.95296 z"
           style="fill:#000000;fill-opacity:1;fill-rule:evenodd;stroke:#313131;stroke-width:2;stroke-linecap:butt;stroke-linejoin:miter;stroke-miterlimit:4;stroke-dasharray:none;stroke-opacity:1;display:inline" />
        <path
           sodipodi:nodetypes="ccccscccsccccc"
           id="path2114"
           style="fill:#000000;fill-opacity:1;fill-rule:evenodd;stroke:#313131;stroke-width:2;stroke-linecap:butt;stroke-linejoin:miter;stroke-miterlimit:4;stroke-dasharray:none;stroke-opacity:1"
           d="M 148.21373,142.88122 C 140.86185,142.83393 134.4087,146.03811 129.51742,147.70271 C 125.86345,148.52025 122.96072,151.866 119.24814,157.93538 C 118.20103,170.90408 117.56804,179.94312 119.71061,186.59109 C 122.12688,202.37263 127.37788,208.7313 131.9799,217.84156 C 135.44991,224.71085 135.50166,235.18476 137.05,242.49148 C 141.86069,251.70793 145.83828,250.13206 149.7959,248.40896 C 153.71408,250.21996 157.64072,251.88404 162.65592,242.77727 C 164.36696,235.50693 164.01003,224.91746 167.63249,218.12734 C 172.43671,209.12205 178.47073,203.00147 181.23862,187.27778 C 183.52902,180.6793 183.09795,171.62837 182.34053,158.63954 C 178.76434,152.4888 175.93699,149.07911 172.30219,148.18022 C 166.96047,146.22824 159.70442,142.93012 151.41614,142.93201 C 151.09604,142.92281 148.95423,142.88598 148.21373,142.88122 z" />
        <path
           id="path2116"
           style="fill:#000000;fill-opacity:1;fill-rule:evenodd;stroke:#313131;stroke-width:2;stroke-linecap:butt;stroke-linejoin:miter;stroke-miterlimit:4;stroke-dasharray:none;stroke-opacity:1"
           d="M 141.3775,231.00438 L 143.31383,238.69619 L 149.53565,244.61606 L 149.68756,248.19721 L 149.89418,248.1995 L 150.12598,244.62265 L 156.47836,238.84311 L 158.58586,231.19643 L 149.95551,233.44629 L 141.3775,231.00438 z" />
        <path
           sodipodi:nodetypes="cc"
           d="M 155.18314,189.10311 C 159.00499,173.36589 170.29079,172.00129 177.04152,169.32922"
           style="fill:#000000;fill-opacity:1;fill-rule:evenodd;stroke:#313131;stroke-width:2;stroke-linecap:butt;stroke-linejoin:miter;stroke-miterlimit:4;stroke-dasharray:none;stroke-opacity:1"
           id="path2118" />
        <path
           sodipodi:nodetypes="ccccc"
           id="path2126"
           style="fill:#000000;fill-opacity:1;fill-rule:evenodd;stroke:#313131;stroke-width:2;stroke-linecap:butt;stroke-linejoin:miter;stroke-miterlimit:4;stroke-dasharray:none;stroke-opacity:1"
           d="M 132.32814,149.43453 C 138.57438,151.93232 146.36096,174.12653 149.78223,180.57112 C 152.69891,173.75385 160.12152,152.64311 167.47827,149.77407 C 162.74026,151.32947 153.25901,161.39038 149.95278,166.99518 C 145.65409,162.55369 138.09858,151.3588 132.32814,149.43453 z" />
        <path
           sodipodi:nodetypes="cc"
           id="path2128"
           style="fill:#000000;fill-opacity:1;fill-rule:evenodd;stroke:#313131;stroke-width:2;stroke-linecap:butt;stroke-linejoin:miter;stroke-miterlimit:4;stroke-dasharray:none;stroke-opacity:1"
           d="M 157.69384,227.7461 C 154.11935,209.76053 155.21549,193.62657 155.21549,193.62657" />
        <path
           sodipodi:nodetypes="cc"
           d="M 144.27156,188.9155 C 140.4497,173.17829 129.1639,171.81368 122.41317,169.14161"
           style="fill:#000000;fill-opacity:1;fill-rule:evenodd;stroke:#313131;stroke-width:2;stroke-linecap:butt;stroke-linejoin:miter;stroke-miterlimit:4;stroke-dasharray:none;stroke-opacity:1;display:inline"
           id="path1958" />
        <path
           sodipodi:nodetypes="cc"
           id="path1960"
           style="fill:#000000;fill-opacity:1;fill-rule:evenodd;stroke:#313131;stroke-width:2;stroke-linecap:butt;stroke-linejoin:miter;stroke-miterlimit:4;stroke-dasharray:none;stroke-opacity:1;display:inline"
           d="M 141.76085,227.55849 C 145.33535,209.57293 144.23921,193.43897 144.23921,193.43897" />
        <path
           sodipodi:nodetypes="ccccccccc"
           id="path1980"
           d="M 132.30749,148.23751 L 127.95117,143.88991 L 127.60934,148.7988 L 120.52627,146.49427 L 123.67526,152.51343 L 116.10262,152.8893 L 120.28148,156.3251 L 113.32516,158.32183 L 120.33217,160.69806"
           style="fill:#000000;fill-opacity:1;fill-rule:evenodd;stroke:#313131;stroke-width:2;stroke-linecap:butt;stroke-linejoin:miter;stroke-miterlimit:4;stroke-dasharray:none;stroke-opacity:1" />
        <path
           sodipodi:nodetypes="ccccccccc"
           id="path1984"
           d="M 169.8514,148.68284 L 174.20771,144.33524 L 174.54954,149.24412 L 181.63261,146.9396 L 178.48363,152.95876 L 186.05627,153.33463 L 181.8774,156.77043 L 188.83372,158.76715 L 181.82671,161.14339"
           style="fill:#000000;fill-opacity:1;fill-rule:evenodd;stroke:#313131;stroke-width:2;stroke-linecap:butt;stroke-linejoin:miter;stroke-miterlimit:4;stroke-dasharray:none;stroke-opacity:1;display:inline" />
        <path
           sodipodi:nodetypes="ccccccccccccccc"
           id="path1986"
           d="M 136.65349,145.95236 L 132.51663,143.58845 L 140.49486,144.17943 L 137.83545,142.111 L 144.04074,142.40649 L 144.04074,140.33806 L 149.65506,141.52002 L 150.24603,142.70198 L 151.1325,141.52002 L 157.92878,140.92905 L 156.74682,142.99747 L 162.95211,142.111 L 162.06564,144.47492 L 169.1574,144.47492 L 168.56642,147.13433"
           style="fill:#000000;fill-opacity:1;fill-rule:evenodd;stroke:#313131;stroke-width:2;stroke-linecap:butt;stroke-linejoin:miter;stroke-miterlimit:4;stroke-dasharray:none;stroke-opacity:1" />
        <g
           id="g5816"
           style="fill:#000000;stroke:#313131;stroke-width:2;stroke-miterlimit:4;stroke-dasharray:none;stroke-opacity:1">
          <path
             id="path1970"
             style="fill:#000000;fill-opacity:1;fill-rule:evenodd;stroke:#313131;stroke-width:2;stroke-linecap:butt;stroke-linejoin:miter;stroke-miterlimit:4;stroke-dasharray:none;stroke-opacity:1"
             d="M 137.85604,186.62094 L 135.67689,183.19788 C 131.66494,176.97299 128.28514,174.88095 122.44907,174.42824 C 123.19614,178.23129 119.32275,191.7896 134.94349,186.73435 L 137.85604,186.62094 z"
             sodipodi:nodetypes="ccccc" />
          <path
             id="path1972"
             style="fill:#000000;fill-opacity:1;fill-rule:nonzero;stroke:#313131;stroke-width:2;stroke-linecap:butt;stroke-linejoin:miter;marker:none;marker-start:none;marker-mid:none;marker-end:none;stroke-miterlimit:4;stroke-dasharray:none;stroke-dashoffset:0;stroke-opacity:1;visibility:visible;display:inline;overflow:visible"
             d="M 125.31466,182.12085 C 125.88081,184.7093 127.94245,186.45724 129.918,186.02375 C 131.89355,185.59027 133.03393,183.13971 132.46432,180.55203 C 131.89816,177.96358 129.83652,176.21564 127.86097,176.64913 C 125.88542,177.08261 124.74504,179.53316 125.31466,182.12085 z" />
        </g>
        <g
           id="g5820"
           style="fill:#000000;stroke:#313131;stroke-width:2;stroke-miterlimit:4;stroke-dasharray:none;stroke-opacity:1">
          <path
             id="path4899"
             style="fill:#000000;fill-opacity:1;fill-rule:evenodd;stroke:#313131;stroke-width:2;stroke-linecap:butt;stroke-linejoin:miter;stroke-miterlimit:4;stroke-dasharray:none;stroke-opacity:1"
             d="M 161.7598,186.62094 L 163.93895,183.19788 C 167.9509,176.97299 171.3307,174.88095 177.16677,174.42824 C 176.4197,178.23129 180.29309,191.7896 164.67235,186.73435 L 161.7598,186.62094 z"
             sodipodi:nodetypes="ccccc" />
          <path
             id="path4901"
             style="fill:#000000;fill-opacity:1;fill-rule:nonzero;stroke:#313131;stroke-width:2;stroke-linecap:butt;stroke-linejoin:miter;marker:none;marker-start:none;marker-mid:none;marker-end:none;stroke-miterlimit:4;stroke-dasharray:none;stroke-dashoffset:0;stroke-opacity:1;visibility:visible;display:inline;overflow:visible"
             d="M 174.30118,182.12085 C 173.73503,184.7093 171.67339,186.45724 169.69784,186.02375 C 167.72229,185.59027 166.58191,183.13971 167.15152,180.55203 C 167.71768,177.96358 169.77932,176.21564 171.75487,176.64913 C 173.73042,177.08261 174.8708,179.53316 174.30118,182.12085 z" />
        </g>
      </g>
    </g>
    <path
       id="path4702"
       style="fill:#e20909;stroke:#000000;stroke-width:2.79999995;stroke-miterlimit:4;stroke-opacity:1"
       d="M 177.45705,404.84676 C 147.86088,414.41614 114.58941,398.68894 105.02003,369.09277 C 95.450712,339.4966 111.70427,307.71007 141.30043,298.14069 C 170.89661,288.57131 202.68314,304.82493 212.25252,334.4211 C 221.4812,362.96354 205.43901,394.03708 177.45705,404.84676 z M 460.29976,404.84676 C 430.7036,414.41614 397.43213,398.68894 387.86275,369.09277 C 378.29336,339.4966 394.54699,307.71007 424.14315,298.14069 C 453.73932,288.57131 485.52585,304.82493 495.09523,334.4211 C 504.32391,362.96354 488.28172,394.03708 460.29976,404.84676 z M 318.8784,550.19649 C 289.28223,559.76587 256.01076,544.03867 246.44138,514.4425 C 236.87199,484.84633 253.12562,453.0598 282.72178,443.49042 C 312.31795,433.92104 344.10449,450.17466 353.67387,479.77083 C 362.90255,508.31327 346.86036,539.38681 318.8784,550.19649 z" />
  </g>
  <g
     inkscape:groupmode="layer"
     id="layer4"
     inkscape:label="Meubles" />
  <g
     inkscape:groupmode="layer"
     id="layer2"
     inkscape:label="Reflet final"
     sodipodi:insensitive="true">
    <path
       sodipodi:nodetypes="cccccc"
       d="M 300.00001,658.5 C 300.00001,658.5 598.50001,546.17969 598.50001,260.72817 C 598.50001,-24.723334 598.50001,2.1764865 598.50001,2.1764865 L 1.5,2.1764865 L 1.5,260.72817 C 1.5,546.17969 300.00001,658.5 300.00001,658.5 z "
       style="opacity:1;fill:url(#radialGradient3163);fill-opacity:1;fill-rule:evenodd;stroke:none;stroke-width:1px;stroke-linecap:butt;stroke-linejoin:miter;stroke-opacity:1"
       id="path2875"
       inkscape:export-xdpi="144"
       inkscape:export-ydpi="144" />
  </g>
  <g
     inkscape:groupmode="layer"
     id="layer1"
     inkscape:label="Contour final"
     sodipodi:insensitive="true">
    <path
       sodipodi:nodetypes="cccccc"
       d="M 299.99999,658.50028 C 299.99999,658.50028 1.5,546.17992 1.5,260.72828 C 1.5,-24.723336 1.5,2.1764957 1.5,2.1764957 L 598.49999,2.1764957 L 598.49999,260.72828 C 598.49999,546.17992 299.99999,658.50028 299.99999,658.50028 z "
       style="opacity:1;fill:none;fill-opacity:1;fill-rule:evenodd;stroke:#000000;stroke-width:3.00000048;stroke-linecap:butt;stroke-linejoin:miter;stroke-miterlimit:4;stroke-dasharray:none;stroke-opacity:1"
       id="path1411"
       inkscape:export-xdpi="144"
       inkscape:export-ydpi="144" />
  </g>
</svg>
