<?xml version="1.0" encoding="UTF-8" standalone="no"?>
<svg
   xmlns:dc="http://purl.org/dc/elements/1.1/"
   xmlns:cc="http://creativecommons.org/ns#"
   xmlns:rdf="http://www.w3.org/1999/02/22-rdf-syntax-ns#"
   xmlns:svg="http://www.w3.org/2000/svg"
   xmlns="http://www.w3.org/2000/svg"
   xmlns:xlink="http://www.w3.org/1999/xlink"
   xmlns:sodipodi="http://sodipodi.sourceforge.net/DTD/sodipodi-0.dtd"
   xmlns:inkscape="http://www.inkscape.org/namespaces/inkscape"
   height="660"
   width="600"
   version="1.0"
   id="svg2"
   sodipodi:version="0.32"
   inkscape:version="0.46"
   sodipodi:docname="Blason_ville_fr_Manéglise_A(76).svg"
   sodipodi:docbase="D:\Mes documents\Renaud-Notre Lapin"
   inkscape:export-filename="/Users/olivier/Desktop/Blason Rouge/Blason_Vide_3D.png"
   inkscape:export-xdpi="144"
   inkscape:export-ydpi="144"
   inkscape:output_extension="org.inkscape.output.svg.inkscape">
  <metadata
     id="metadata49">
    <rdf:RDF>
      <cc:Work
         rdf:about="">
        <dc:format>image/svg+xml</dc:format>
        <dc:type
           rdf:resource="http://purl.org/dc/dcmitype/StillImage" />
        <dc:title>Gabarit d'un blason en pointe pour le projet Blasons de Wikipédia</dc:title>
        <dc:date>03-AUG-2006</dc:date>
        <dc:creator>
          <cc:Agent>
            <dc:title>Jérôme BLUM (wagner51)</dc:title>
          </cc:Agent>
        </dc:creator>
        <cc:license
           rdf:resource="http://web.resource.org/cc/PublicDomain" />
        <dc:language>fr</dc:language>
        <dc:subject>
          <rdf:Bag>
            <rdf:li>gabarit modèle blason projet wikipédia</rdf:li>
          </rdf:Bag>
        </dc:subject>
      </cc:Work>
      <cc:License
         rdf:about="http://web.resource.org/cc/PublicDomain">
        <cc:permits
           rdf:resource="http://web.resource.org/cc/Reproduction" />
        <cc:permits
           rdf:resource="http://web.resource.org/cc/Distribution" />
        <cc:permits
           rdf:resource="http://web.resource.org/cc/DerivativeWorks" />
      </cc:License>
    </rdf:RDF>
  </metadata>
  <sodipodi:namedview
     inkscape:window-height="977"
     inkscape:window-width="1280"
     inkscape:pageshadow="2"
     inkscape:pageopacity="0.0"
     guidetolerance="10.0"
     gridtolerance="10.0"
     objecttolerance="10.0"
     borderopacity="1.0"
     bordercolor="#666666"
     pagecolor="#ffffff"
     id="base"
     showgrid="false"
     height="660px"
     inkscape:zoom="1.1621207"
     inkscape:cx="300.00013"
     inkscape:cy="330.00014"
     inkscape:window-x="-4"
     inkscape:window-y="-4"
     inkscape:current-layer="layer3"
     inkscape:object-nodes="true"
     inkscape:object-paths="false"
     inkscape:snap-global="true" />
  <desc
     id="desc4">Flag of Canton of Valais (Wallis)</desc>
  <defs
     id="defs6">
    <linearGradient
       id="linearGradient2893">
      <stop
         style="stop-color:white;stop-opacity:0.3137255;"
         offset="0"
         id="stop2895" />
      <stop
         id="stop2897"
         offset="0.19"
         style="stop-color:white;stop-opacity:0.25098041;" />
      <stop
         style="stop-color:#6b6b6b;stop-opacity:0.1254902;"
         offset="0.60000002"
         id="stop2901" />
      <stop
         style="stop-color:black;stop-opacity:0.1254902;"
         offset="1"
         id="stop2899" />
    </linearGradient>
    <radialGradient
       inkscape:collect="always"
       xlink:href="#linearGradient2893"
       id="radialGradient3163"
       gradientUnits="userSpaceOnUse"
       gradientTransform="matrix(1.353218,0,0,1.348928,-77.62935,-85.74693)"
       cx="221.44487"
       cy="226.33101"
       fx="221.44487"
       fy="226.33101"
       r="300" />
    <g
       id="f">
      <rect
         id="rect1964"
         style="fill:#28166f"
         y="-30"
         x="-50"
         height="60"
         width="100" />
      <g
         id="g1966"
         style="fill:#ffffff"
         transform="translate(0,-20)">
        <path
           id="path1968"
           d="M -1.2116,27.8178 C -1.2116,22.1752 -2.0914,20.4715 -4.5417,13.9804 C -5.709,10.8879 -5.0241,7.1025 -2.8585,3.6009 C -2.0824,2.346 -1.1136,1.2135 0,0 C 1.1136,1.2135 2.0824,2.346 2.8585,3.6009 C 5.0241,7.1025 5.709,10.8879 4.5417,13.9804 C 2.0914,20.4715 1.2116,22.1752 1.2116,27.8178 L -1.2116,27.8178 z" />
        <path
           id="rwi"
           d="M 2.9221,27.6725 C 2.9221,21.7209 5.2387,17.8293 8.5007,16.6604 C 9.9492,16.1414 11.8076,16.3869 13.5193,18.107 C 15.6379,20.236 16.2551,26.1004 10.0355,27.2283 C 10.6938,26.2724 10.6546,24.1467 9.3215,23.4409 C 8.3311,22.9165 7.209,23.1877 6.6462,23.5643 C 5.8225,24.1156 4.9171,25.6702 4.9672,27.6725 L 2.9221,27.6725 z" />
        <path
           id="path1971"
           d="M 1.7773,30.1835 C 1.7899,32.1913 2.7952,33.5181 4.5165,34.257 C 4.2948,34.9549 3.2566,36.3776 1.8314,36.2812 C 1.5499,37.787 1.2822,38.6324 0,40 C -1.2822,38.6324 -1.5499,37.787 -1.8314,36.2812 C -3.2566,36.3776 -4.2948,34.9549 -4.5165,34.257 C -2.7952,33.5181 -1.7899,32.1913 -1.7773,30.1835 L 1.7773,30.1835 z" />
        <use
           xlink:href="#rwi"
           height="400"
           width="800"
           y="0"
           x="0"
           id="use1973"
           transform="scale(-1,1)" />
        <rect
           id="rect1975"
           y="27.33077"
           x="-7.9229999"
           height="3.2179999"
           width="15.846" />
      </g>
    </g>
    <g
       id="s">
      <g
         id="c">
        <path
           id="t"
           d="M 0,0 L 0,1 L 0.5,1 L 0,0 z"
           transform="matrix(0.951057,0.309017,-0.309017,0.951057,0,-1)" />
        <use
           xlink:href="#t"
           transform="scale(-1,1)"
           id="use2144"
           x="0"
           y="0"
           width="810"
           height="540" />
      </g>
      <g
         id="a">
        <use
           xlink:href="#c"
           transform="matrix(0.309017,0.951057,-0.951057,0.309017,0,0)"
           id="use2147"
           x="0"
           y="0"
           width="810"
           height="540" />
        <use
           xlink:href="#c"
           transform="matrix(-0.809017,0.587785,-0.587785,-0.809017,0,0)"
           id="use2149"
           x="0"
           y="0"
           width="810"
           height="540" />
      </g>
      <use
         xlink:href="#a"
         transform="scale(-1,1)"
         id="use2151"
         x="0"
         y="0"
         width="810"
         height="540" />
    </g>
    <g
       id="s-4">
      <g
         id="c-6">
        <path
           id="t-0"
           d="M 0,0 L 0,1 L 0.5,1 L 0,0 z"
           transform="matrix(0.951057,0.309017,-0.309017,0.951057,0,-1)" />
        <use
           xlink:href="#t-0"
           transform="scale(-1,1)"
           id="use2144-7"
           x="0"
           y="0"
           width="810"
           height="540" />
      </g>
      <g
         id="a-1">
        <use
           xlink:href="#c-6"
           transform="matrix(0.309017,0.951057,-0.951057,0.309017,0,0)"
           id="use2147-7"
           x="0"
           y="0"
           width="810"
           height="540" />
        <use
           xlink:href="#c-6"
           transform="matrix(-0.809017,0.587785,-0.587785,-0.809017,0,0)"
           id="use2149-7"
           x="0"
           y="0"
           width="810"
           height="540" />
      </g>
      <use
         xlink:href="#a-1"
         transform="scale(-1,1)"
         id="use2151-7"
         x="0"
         y="0"
         width="810"
         height="540" />
    </g>
  </defs>
  <g
     inkscape:groupmode="layer"
     id="layer3"
     inkscape:label="Fond écu"
     style="display:inline">
    <path
       id="path2855"
       style="fill:#e20909;fill-opacity:1;fill-rule:evenodd;stroke:none;stroke-width:1px;stroke-linecap:butt;stroke-linejoin:miter;stroke-opacity:1"
       d="M 300,658.5 C 300,658.5 598.50001,546.17969 598.50001,260.72817 C 598.50001,-24.723354 598.50001,2.1764765 598.50001,2.1764765 L 1.5,2.1764765 L 1.5,260.72817 C 1.5,546.17969 300,658.5 300,658.5 z"
       sodipodi:nodetypes="cccccc" />
    <g
       id="g3714"
       transform="translate(212.95033,-619.1589)" />
    <g
       id="layer9"
       inkscape:label="Fond d'écu"
       transform="translate(212.95033,-619.1589)">
      <g
         transform="matrix(2,0,0,2,-732.89186,-1853.1884)"
         inkscape:label="Meubles"
         id="g2807" />
      <g
         transform="matrix(2,0,0,2,1696.9763,-413.55025)"
         inkscape:label="Meubles"
         id="g4626" />
      <g
         id="g5271"
         inkscape:label="Meubles"
         transform="matrix(2,0,0,2,-732.89213,-453.18787)" />
      <g
         id="g5273"
         inkscape:label="Reflet final"
         transform="matrix(2,0,0,2,-732.89213,-453.18787)" />
      <g
         id="g5275"
         inkscape:label="Contour final"
         transform="matrix(2,0,0,2,-732.89213,-453.18787)" />
    </g>
    <g
       id="layer6"
       inkscape:label="Reflet final"
       transform="translate(212.95033,-619.1589)" />
    <g
       id="layer5"
       inkscape:label="Contour final"
       transform="translate(212.95033,-619.1589)" />
    <path
       style="opacity:1;fill:#2b5df2;fill-opacity:1;stroke:none;stroke-width:1.50000000000000000;stroke-linecap:butt;stroke-linejoin:round;stroke-miterlimit:4;stroke-dasharray:none;stroke-opacity:1"
       d="M 300 2.1875 L 78.21875 489.8125 C 166.66149 608.31391 300 658.5 300 658.5 C 300 658.5 433.3385 608.31391 521.78125 489.8125 L 300 2.1875 z "
       id="path3070" />
    <path
       style="opacity:1;fill:#ffffff;fill-opacity:1;stroke:#000000;stroke-width:3;stroke-linecap:butt;stroke-linejoin:round;stroke-miterlimit:4;stroke-dasharray:none;stroke-opacity:1"
       d="M 300 2.1875 L 78.21875 489.8125 C 83.4707 496.84941 88.874989 503.65993 94.40625 510.21875 L 300 58.1875 L 505.59375 510.21875 C 511.12501 503.65993 516.5293 496.84941 521.78125 489.8125 L 300 2.1875 z "
       id="path3603" />
  </g>
  <g
     inkscape:groupmode="layer"
     id="layer4"
     inkscape:label="Meubles">
    <g
       transform="matrix(0.605,0,0,0.605,216.42315,470.79128)"
       id="g8229"
       style="display:inline">
      <path
         style="opacity:1;fill:#fcef3c;fill-opacity:1;stroke:#000000;stroke-width:3;stroke-linecap:round;stroke-linejoin:round;stroke-miterlimit:4;stroke-dasharray:none;stroke-opacity:1"
         d="M 143,75.46875 C 95.549872,76.672245 57.437501,115.57404 57.4375,163.3125 C 57.4375,211.80872 96.785039,251.15625 145.28125,251.15625 C 193.77746,251.15625 233.12501,211.80872 233.125,163.3125 C 233.125,114.81628 193.77747,75.468746 145.28125,75.46875 C 144.5235,75.46875 143.75318,75.449647 143,75.46875 z M 145.28125,100.8125 C 179.78125,100.8125 207.78125,128.8125 207.78125,163.3125 C 207.78125,197.81251 179.78125,225.8125 145.28125,225.8125 C 110.78126,225.81249 82.78125,197.8125 82.78125,163.3125 C 82.781249,128.81251 110.78125,100.8125 145.28125,100.8125 z"
         id="path8197" />
      <path
         style="opacity:1;fill:none;fill-opacity:1;stroke:#000000;stroke-width:3;stroke-linecap:round;stroke-linejoin:round;stroke-miterlimit:4;stroke-dasharray:none;stroke-opacity:1"
         d="M 145.27739,75.745326 L 145.27739,100.83127"
         id="path8201"
         sodipodi:nodetypes="cc" />
      <use
         x="0"
         y="0"
         xlink:href="#path8201"
         id="use8203"
         transform="matrix(0.9659258,0.258819,-0.258819,0.9659258,47.094037,-32.052204)"
         width="600"
         height="660" />
      <use
         x="0"
         y="0"
         xlink:href="#path8201"
         id="use8205"
         transform="matrix(0.9659258,-0.258819,0.258819,0.9659258,-37.193616,43.148894)"
         width="600"
         height="660" />
      <path
         style="fill:#fcef3c;fill-opacity:1;stroke:#000000;stroke-width:3;stroke-linecap:round;stroke-linejoin:round;stroke-miterlimit:4;stroke-opacity:1"
         d="M 207.78125,150.78125 L 39.125,158.625 L 38.65625,163.3125 L 39.125,168 L 207.78125,175.84375 L 207.78125,163.3125 L 207.78125,150.78125 z"
         id="rect8216" />
      <rect
         style="opacity:1;fill:#fcef3c;fill-opacity:1;stroke:#000000;stroke-width:3;stroke-linecap:round;stroke-linejoin:round;stroke-miterlimit:4;stroke-dasharray:none;stroke-opacity:1"
         id="rect8212"
         width="33.854061"
         height="17.110001"
         x="203.77739"
         y="163.3091" />
      <rect
         y="146.1991"
         x="203.77739"
         height="17.110001"
         width="33.854061"
         id="rect8214"
         style="opacity:1;fill:#fcef3c;fill-opacity:1;stroke:#000000;stroke-width:3;stroke-linecap:round;stroke-linejoin:round;stroke-miterlimit:4;stroke-dasharray:none;stroke-opacity:1" />
      <use
         x="0"
         y="0"
         xlink:href="#path8201"
         id="use8222"
         transform="matrix(1,0,0,-1,0,326.95297)"
         width="600"
         height="660" />
      <use
         x="0"
         y="0"
         xlink:href="#use8203"
         id="use8224"
         transform="matrix(1,0,0,-1,0,326.95297)"
         width="600"
         height="660" />
      <use
         x="0"
         y="0"
         xlink:href="#use8205"
         id="use8226"
         transform="matrix(1,0,0,-1,0,326.95297)"
         width="600"
         height="660" />
    </g>
    <use
       x="0"
       y="0"
       xlink:href="#g8229"
       id="use3599"
       transform="translate(-120,-88)"
       width="600"
       height="660" />
    <use
       x="0"
       y="0"
       xlink:href="#g8229"
       id="use3601"
       transform="translate(120,-88)"
       width="600"
       height="660" />
    <g
       style="display:inline"
       transform="matrix(0.475,0,0,0.475,66.25414,-283.99156)"
       inkscape:label="Meubles"
       id="g3183">
      <g
         transform="matrix(0.6908087,0,0,0.589085,619.999,716.99951)"
         style="fill:#fcef3c;fill-opacity:1;stroke:#000000;stroke-width:2.35138297;stroke-linecap:round;stroke-linejoin:round;stroke-miterlimit:4;stroke-dasharray:none;stroke-opacity:1;display:inline"
         id="g31344">
        <g
           style="fill:#fcef3c;fill-opacity:1;stroke:#000000;stroke-width:2.35138297;stroke-linecap:round;stroke-linejoin:round;stroke-miterlimit:4;stroke-dasharray:none;stroke-opacity:1"
           id="g31346">
          <g
             style="fill:#fcef3c;fill-opacity:1;stroke:#000000;stroke-width:2.35138297;stroke-linecap:round;stroke-linejoin:round;stroke-miterlimit:4;stroke-dasharray:none;stroke-opacity:1"
             id="g31348">
            <path
               inkscape:connector-curvature="0"
               d="M 370.34823,418.67157 C 369.59061,418.2634 381.14253,411.22848 378.93815,408.11824 C 366.77198,397.72823 355.26008,391.91814 348.25987,417.68986 C 358.24624,408.39728 364.16766,414.00953 370.34823,418.67157 z"
               style="fill:#fcef3c;fill-opacity:1;fill-rule:nonzero;stroke:#000000;stroke-width:2.35138297;stroke-linecap:round;stroke-linejoin:round;marker:none;stroke-miterlimit:4;stroke-dasharray:none;stroke-dashoffset:0;stroke-opacity:1;visibility:visible;display:inline;overflow:visible"
               id="path31350" />
            <path
               inkscape:connector-curvature="0"
               d="M 363.96715,461.86659 C 365.59487,463.77168 361.50088,436.46906 353.1684,444.68675 C 337.81791,454.14291 338.34688,464.35524 350.46871,475.11961 C 352.82305,459.11816 358.42472,460.65234 363.96715,461.86659 L 363.96715,461.86659 z"
               style="fill:#fcef3c;fill-opacity:1;fill-rule:nonzero;stroke:#000000;stroke-width:2.35138297;stroke-linecap:round;stroke-linejoin:round;marker:none;stroke-miterlimit:4;stroke-dasharray:none;stroke-dashoffset:0;stroke-opacity:1;visibility:visible;display:inline;overflow:visible"
               id="path31352" />
            <path
               inkscape:connector-curvature="0"
               d="M 410.10729,474.87418 C 411.32197,472.07178 405.75519,469.78856 400.33657,469.50094 C 394.91796,469.21332 389.64752,470.9213 391.45489,476.10131 C 395.33051,486.87571 399.87551,491.41242 402.7443,493.86261 C 404.94246,492.26872 409.17652,485.49087 410.10729,474.87418 z"
               style="fill:#fcef3c;fill-opacity:1;fill-rule:nonzero;stroke:#000000;stroke-width:2.35138297;stroke-linecap:round;stroke-linejoin:round;marker:none;stroke-miterlimit:4;stroke-dasharray:none;stroke-dashoffset:0;stroke-opacity:1;visibility:visible;display:inline;overflow:visible"
               id="path31354" />
            <path
               inkscape:connector-curvature="0"
               d="M 439.31302,460.1486 C 439.9629,453.1393 419.27399,459.89988 423.60573,462.35744 C 427.93747,464.815 430.93148,468.34274 425.56914,478.55557 C 442.86792,475.24602 438.66314,467.1579 439.31302,460.1486 z"
               style="fill:#fcef3c;fill-opacity:1;fill-rule:nonzero;stroke:#000000;stroke-width:2.35138297;stroke-linecap:round;stroke-linejoin:round;marker:none;stroke-miterlimit:4;stroke-dasharray:none;stroke-dashoffset:0;stroke-opacity:1;visibility:visible;display:inline;overflow:visible"
               id="path31356" />
          </g>
          <path
             inkscape:connector-curvature="0"
             sodipodi:nodetypes="ccccscccccccccccccccccccccsccccccccc"
             d="M 492.85714,341.6479 L 469.39976,298.79075 L 462.97119,309.1479 C 444.55815,325.06367 415.41129,332.13125 394.90612,360.32392 C 386.06961,366.7366 383.18522,363.00011 376.30563,367.20992 C 367.39047,372.66535 368.81381,380.5261 368.71369,390.21801 C 373.28573,374.04248 389.35929,368.63445 404.84079,370.27465 C 406.79744,376.66269 410.79285,384.00587 417.50001,392.54075 C 422.26166,398.58979 427.94408,408.94912 404.64286,423.79075 C 402.03815,424.57549 397.48481,426.04689 391.07143,424.50504 C 389.07128,419.49543 388.92313,415.59702 389.28571,412.00504 C 386.23306,395.07185 360.28411,409.33806 369.28571,424.50504 C 380.70401,434.28885 377.22992,437.08235 365.35714,435.93361 C 359.35626,437.01561 353.32749,438.1311 345,442.00504 C 344.89665,444.01315 344.88037,445.93419 345.71429,447.00504 C 358.68917,445.48151 360.09367,460.75588 360,464.1479 C 361.74289,464.54786 363.40726,465.02635 366.07143,464.50504 C 379.30279,455.51486 380.64491,455.99569 384.13731,456.2807 C 389.37285,458.18199 381.80774,476.26439 392.14286,482.00504 C 398.66177,468.44913 409.68652,476.36143 411.26508,481.59761 C 413.91596,477.7344 413.75834,471.4639 413.21429,464.86218 C 415.1274,450.20397 421.79278,458.32779 424.64286,464.50504 C 431.35308,455.70293 434.92867,458.91633 439.40897,465.57647 C 442.60237,466.03178 442.94341,465.54367 444.28571,464.1479 L 446.07143,453.79075 C 446.64678,439.89275 456.45739,439.87401 458.59155,452.16853 C 460.29886,450.3222 462.51981,449.27464 462.5462,447.36142 C 462.80481,428.61052 463.94144,432.99921 472.3164,445.17909 C 476.36401,406.87162 479.58873,432.74995 483.21429,427.36218 C 487.19063,417.7949 472.97014,404.54718 495,407.00504 C 491.46171,401.67842 482.68931,400.93166 485.71429,389.86218 C 486.84876,382.78834 488.97262,379.74578 480.47119,377.71932 C 462.76312,371.41391 473.13764,365.75522 477.2569,361.29075 L 492.6241,351.31087 L 492.85714,341.6479 L 492.85714,341.6479 z"
             style="fill:#fcef3c;fill-opacity:1;fill-rule:nonzero;stroke:#000000;stroke-width:3.30018669;stroke-linecap:round;stroke-linejoin:round;marker:none;stroke-miterlimit:4;stroke-dasharray:none;stroke-dashoffset:0;stroke-opacity:1;visibility:visible;display:inline;overflow:visible"
             id="path31358" />
        </g>
      </g>
      <g
         transform="matrix(0.68818,6.0207945e-2,-5.1342141e-2,0.5868434,642.58452,705.36484)"
         style="fill:#fcef3c;fill-opacity:1;stroke:#000000;stroke-width:2.35138297;stroke-linecap:round;stroke-linejoin:round;stroke-miterlimit:4;stroke-dasharray:none;stroke-opacity:1;display:inline"
         id="g31360">
        <g
           style="fill:#fcef3c;fill-opacity:1;stroke:#000000;stroke-width:2.35138297;stroke-linecap:round;stroke-linejoin:round;stroke-miterlimit:4;stroke-dasharray:none;stroke-opacity:1"
           id="g31362">
          <path
             inkscape:connector-curvature="0"
             d="M 101.78001,203.34341 C 102.80795,206.16368 99.974163,206.67653 90.562292,208.58668 C 85.860501,202.6467 83.903404,194.62879 72.616399,192.8794 C 87.844706,182.06541 100.86232,186.07278 101.78001,203.34341 z"
             style="fill:#fcef3c;fill-opacity:1;fill-rule:nonzero;stroke:#000000;stroke-width:2.35138297;stroke-linecap:round;stroke-linejoin:round;marker:none;stroke-miterlimit:4;stroke-dasharray:none;stroke-dashoffset:0;stroke-opacity:1;visibility:visible;display:inline;overflow:visible"
             id="path31364" />
          <path
             inkscape:connector-curvature="0"
             d="M 137.92956,220.61257 C 137.96416,226.79869 126.31535,213.59792 125.78457,210.32933 C 133.42197,208.92575 139.58647,200.66551 133.08781,192.00658 C 152.51401,198.09168 147.00388,218.58599 137.92956,220.61257 L 137.92956,220.61257 z"
             style="fill:#fcef3c;fill-opacity:1;fill-rule:nonzero;stroke:#000000;stroke-width:2.35138297;stroke-linecap:round;stroke-linejoin:round;marker:none;stroke-miterlimit:4;stroke-dasharray:none;stroke-dashoffset:0;stroke-opacity:1;visibility:visible;display:inline;overflow:visible"
             id="path31366" />
          <path
             inkscape:connector-curvature="0"
             d="M 80.254389,254.23597 C 89.166116,255.98129 85.051138,232.60849 72.400748,234.60187 C 59.750358,236.59525 54.954069,246.44272 60.620288,266.75271 C 64.305986,255.43296 71.342662,252.49065 80.254389,254.23597 L 80.254389,254.23597 z"
             style="fill:#fcef3c;fill-opacity:1;fill-rule:nonzero;stroke:#000000;stroke-width:2.35138297;stroke-linecap:round;stroke-linejoin:round;marker:none;stroke-miterlimit:4;stroke-dasharray:none;stroke-dashoffset:0;stroke-opacity:1;visibility:visible;display:inline;overflow:visible"
             id="path31368" />
          <path
             inkscape:connector-curvature="0"
             d="M 106.76043,295.46758 C 106.30364,282.98072 91.676781,270.74767 90.807718,279.26945 C 86.697365,284.14478 83.400816,291.35816 71.173617,283.19627 C 71.377181,310.09722 100.28369,300.15422 106.76043,295.46758 L 106.76043,295.46758 z"
             style="fill:#fcef3c;fill-opacity:1;fill-rule:nonzero;stroke:#000000;stroke-width:2.35138297;stroke-linecap:round;stroke-linejoin:round;marker:none;stroke-miterlimit:4;stroke-dasharray:none;stroke-dashoffset:0;stroke-opacity:1;visibility:visible;display:inline;overflow:visible"
             id="path31370" />
        </g>
        <path
           inkscape:connector-curvature="0"
           d="M 201.2729,362.93307 L 217.94042,304.59676 L 207.58635,292.72747 C 186.45351,284.17372 163.05793,269.96313 137.88582,251.31121 C 122.01688,241.86483 133.82993,229.96532 141.42136,229.08786 C 143.56753,226.2748 142.28602,223.22717 140.4112,219.74395 C 135.26136,214.18308 132.26385,211.25237 129.8046,210.40004 C 126.72187,209.41727 122.82357,205.91355 124.24876,216.46095 C 125.34847,223.92068 117.35649,239.97331 108.5914,223.27948 C 107.75191,217.55759 107.68214,211.34272 108.08632,206.8645 C 106.6337,204.10815 107.01719,199.51569 102.53048,199.79343 C 95.392268,202.36214 90.140232,203.78993 86.368043,204.33912 C 84.893862,211.02627 83.310611,216.96412 95.459416,218.48126 C 96.183523,223.23874 97.727444,228.69891 93.944187,229.59293 C 84.795053,228.89733 72.982554,221.67422 67.175144,236.664 C 83.613726,238.9865 82.124202,250.37195 76.266517,254.34167 C 77.781748,259.22407 80.643843,260.40259 84.852814,257.87721 C 97.647042,251.80579 98.180646,254.67888 101.01525,256.36198 C 103.1061,264.83161 101.86238,271.23697 89.903577,271.00919 C 87.062362,272.05562 85.897151,276.38871 87.630733,281.36326 C 101.35968,284.49337 101.49893,289.05548 102.78302,295.75793 C 109.3816,298.73995 109.71534,304.14783 110.10663,287.42417 C 111.81547,278.5891 121.33115,286.94985 117.43024,292.47493 C 124.87961,296.82636 129.37043,292.76678 120.96577,302.82899 C 123.38802,306.67214 146.1126,304.18019 128.54192,314.44575 C 136.36618,317.56204 154.93218,316.65018 137.88582,329.09296 C 141.75708,333.2236 169.62324,331.48883 146.47212,342.22494 C 182.51056,347.53109 169.22772,351.34265 162.63456,355.35693 L 186.37314,361.92292 L 201.2729,362.93307 L 201.2729,362.93307 z"
           style="fill:#fcef3c;fill-opacity:1;fill-rule:nonzero;stroke:#000000;stroke-width:3.30018648;stroke-linecap:round;stroke-linejoin:round;marker:none;stroke-miterlimit:4;stroke-dasharray:none;stroke-dashoffset:0;stroke-opacity:1;visibility:visible;display:inline;overflow:visible"
           id="path31372" />
      </g>
      <path
         style="opacity:1;fill:#fcef3c;fill-opacity:1;stroke:#000000;stroke-width:2.10526316;stroke-miterlimit:4;stroke-dasharray:none;stroke-opacity:1;display:inline"
         d="M 950.90872,878.70389 C 974.02914,877.31838 1017.7189,900.36356 1051.5792,892.41935 C 1074.1276,887.12911 1064.3608,873.77025 1047.3885,869.37049 C 1017.3977,861.5959 912.96872,872.16147 890.52532,854.32206 C 886.79462,851.35669 872.37752,831.80598 906.90722,828.98735 C 908.43102,821.62188 914.82692,821.09519 926.71772,822.89179 C 936.59932,824.38481 947.88972,831.14606 956.62412,819.844 C 957.33102,823.83964 957.95532,834.19119 937.57552,829.55881 C 928.15182,827.39842 920.14092,827.59261 913.76472,830.51125 C 921.93252,827.59637 928.91412,826.53578 939.67082,832.1062 C 944.15992,834.43087 951.52732,838.73194 963.78352,827.64346 C 970.57802,821.49624 988.986,825.88721 982.29152,835.84487 C 975.49862,824.03814 964.65212,836.66626 959.10042,842.70238 C 943.65302,859.49779 930.52922,841.56613 918.71732,837.94022 C 937.03512,842.77166 917.90882,855.73035 910.90742,847.84552 C 928.88292,846.07546 910.61722,834.14426 898.38362,839.71269 C 891.17072,842.99584 895.59902,847.66152 899.03592,849.93114 C 919.51842,863.4571 1029.4562,846.46302 1064.5323,865.56076 C 1083.231,875.74159 1080.7537,890.55648 1067.0086,898.51492 C 1047.3972,909.87001 997.33372,901.31433 977.57682,903.27708 L 950.90872,878.70389 z"
         id="path4689"
         sodipodi:nodetypes="cssscscccsscsccsssscc" />
      <g
         style="fill:#fcef3c;fill-opacity:1;stroke:#000000;stroke-width:2.35138297;stroke-miterlimit:4;stroke-dasharray:none;stroke-opacity:1;display:inline"
         transform="matrix(0.6908087,0,0,0.589085,625.999,722.99951)"
         id="g31374">
        <g
           style="fill:#fcef3c;fill-opacity:1;stroke:#000000;stroke-width:2.35138297;stroke-linecap:round;stroke-linejoin:round;stroke-miterlimit:4;stroke-dasharray:none;stroke-opacity:1"
           id="g31376">
          <path
             inkscape:connector-curvature="0"
             d="M 80.499816,430.37029 C 66.431558,440.16593 64.511529,458.29349 82.217799,464.23911 C 78.561446,452.82191 81.786988,445.38897 90.562292,441.16904"
             style="fill:#fcef3c;fill-opacity:1;fill-rule:nonzero;stroke:#000000;stroke-width:2.35138297;stroke-linecap:round;stroke-linejoin:round;marker:none;stroke-miterlimit:4;stroke-dasharray:none;stroke-dashoffset:0;stroke-opacity:1;visibility:visible;display:inline;overflow:visible"
             id="path31378" />
          <path
             inkscape:connector-curvature="0"
             d="M 117.31376,450.98609 C 110.24259,470.94854 117.84067,481.66298 140.87468,482.64608 C 131.92917,474.77073 131.35558,466.05819 135.4753,456.87632"
             style="fill:#fcef3c;fill-opacity:1;fill-rule:nonzero;stroke:#000000;stroke-width:2.35138297;stroke-linecap:round;stroke-linejoin:round;marker:none;stroke-miterlimit:4;stroke-dasharray:none;stroke-dashoffset:0;stroke-opacity:1;visibility:visible;display:inline;overflow:visible"
             id="path31380" />
          <path
             inkscape:connector-curvature="0"
             d="M 178.4249,442.60073 C 184.20526,459.78601 175.9265,466.03643 164.19017,469.59762 C 169.21844,459.68359 167.97943,452.27647 163.20847,446.28213"
             style="fill:#fcef3c;fill-opacity:1;fill-rule:nonzero;stroke:#000000;stroke-width:2.35138297;stroke-linecap:round;stroke-linejoin:round;marker:none;stroke-miterlimit:4;stroke-dasharray:none;stroke-dashoffset:0;stroke-opacity:1;visibility:visible;display:inline;overflow:visible"
             id="path31382" />
          <path
             sodipodi:nodetypes="ccc"
             inkscape:connector-curvature="0"
             d="M 118.54089,377.35821 C 104.26003,362.08459 87.172907,364.32976 81.726947,381.77589 C 94.885891,377.81074 98.590566,380.8119 99.397638,385.94813"
             style="fill:#fcef3c;fill-opacity:1;fill-rule:nonzero;stroke:#000000;stroke-width:2.35138297;stroke-linecap:round;stroke-linejoin:round;marker:none;stroke-miterlimit:4;stroke-dasharray:none;stroke-dashoffset:0;stroke-opacity:1;visibility:visible;display:inline;overflow:visible"
             id="path31384" />
        </g>
        <g
           style="fill:#fcef3c;fill-opacity:1;stroke:#000000;stroke-width:2.35138297;stroke-linecap:round;stroke-linejoin:round;stroke-miterlimit:4;stroke-dasharray:none;stroke-opacity:1"
           id="g31386">
          <path
             inkscape:connector-curvature="0"
             d="M 572.97418,436.45957 C 561.77237,445.35775 554.10974,455.23903 567.59436,470.99455 C 568.47158,459.28224 574.29618,451.52785 584.42799,447.21921"
             style="fill:#fcef3c;fill-opacity:1;fill-rule:nonzero;stroke:#000000;stroke-width:2.35138297;stroke-linecap:round;stroke-linejoin:round;marker:none;stroke-miterlimit:4;stroke-dasharray:none;stroke-dashoffset:0;stroke-opacity:1;visibility:visible;display:inline;overflow:visible"
             id="path31388" />
          <path
             inkscape:connector-curvature="0"
             d="M 600.91453,457.28468 C 590.76235,467.0591 588.8865,476.31625 600.91453,484.70441 C 603.50068,478.1687 602.33049,469.89929 616.18628,468.56495"
             style="fill:#fcef3c;fill-opacity:1;fill-rule:nonzero;stroke:#000000;stroke-width:2.35138297;stroke-linecap:round;stroke-linejoin:round;marker:none;stroke-miterlimit:4;stroke-dasharray:none;stroke-dashoffset:0;stroke-opacity:1;visibility:visible;display:inline;overflow:visible"
             id="path31390" />
          <path
             inkscape:connector-curvature="0"
             d="M 641.87058,463.8793 C 651.7375,467.94238 653.44237,476.49459 654.1921,485.57212 C 669.8484,477.8396 665.37192,465.75404 664.7782,454.508"
             style="fill:#fcef3c;fill-opacity:1;fill-rule:nonzero;stroke:#000000;stroke-width:2.35138297;stroke-linecap:round;stroke-linejoin:round;marker:none;stroke-miterlimit:4;stroke-dasharray:none;stroke-dashoffset:0;stroke-opacity:1;visibility:visible;display:inline;overflow:visible"
             id="path31392" />
          <path
             inkscape:connector-curvature="0"
             d="M 656.10107,421.70846 C 664.54675,419.30003 671.30174,420.73409 674.67013,429.86496 C 680.84536,413.37558 671.08452,407.62572 656.10107,405.39545"
             style="fill:#fcef3c;fill-opacity:1;fill-rule:nonzero;stroke:#000000;stroke-width:2.35138297;stroke-linecap:round;stroke-linejoin:round;marker:none;stroke-miterlimit:4;stroke-dasharray:none;stroke-dashoffset:0;stroke-opacity:1;visibility:visible;display:inline;overflow:visible"
             id="path31394" />
        </g>
        <path
           inkscape:connector-curvature="0"
           sodipodi:nodetypes="ccccccccsscccccccccccccccccccccccccccssccccccccccccccccccccccccccccccccccccc"
           d="M 282.01179,397.2934 C 299.21751,381.22208 298.42179,394.05129 299.88157,400.88335 C 321.11944,364.7444 312.20646,377.38419 319.1448,382.66138 C 335.40287,351.63704 330.70635,369.95738 334.06946,369.2986 C 346.63577,341.65835 347.05222,351.10714 351.59726,347.95286 C 372.2101,323.65632 414.38825,316.91294 454.16092,308.21161 C 477.87897,315.12596 479.7248,353.49407 490.51946,371.02406 C 494.97145,372.44572 507.07013,377.09421 511.67224,392.80924 C 515.36099,377.09203 501.10528,368.50863 505.82054,369.91906 C 510.5358,371.3295 534.48902,379.50829 539.28693,380.39326 C 558.48574,383.93447 572.29594,385.01084 591.19614,390.12371 C 595.84069,396.61075 600.95887,402.78204 606.98852,408.34568 C 606.08104,413.02772 607.17546,417.30937 608.5504,421.53492 C 600.10146,423.73979 594.59562,419.8132 581.13067,432.4681 L 572.10646,433.33581 C 566.23129,432.866 566.34962,435.56921 568.28852,439.23626 C 571.37764,438.14743 576.77422,443.11569 583.56027,451.73132 C 605.45302,438.21967 606.53594,442.7751 609.24457,444.96316 C 599.68483,451.39659 594.80071,449.41322 597.79076,460.23491 C 606.66011,458.47743 610.15812,466.38837 614.62439,472.55643 C 618.85333,472.88614 623.34718,474.98189 626.25174,466.48244 C 628.62476,455.40385 638.17456,458.9135 639.78807,468.91204 C 658.41831,453.42407 660.70954,458.08754 666.16654,458.84657 C 671.44241,453.314 668.81355,449.36237 664.95174,445.65733 C 637.67809,433.44751 656.87264,426.04408 661.82797,424.83223 C 655.66903,421.05926 655.7247,412.81177 661.1338,400.70981 C 657.1445,400.53509 654.36694,399.7079 644.64726,402.61878 C 630.56318,396.21939 642.44545,395.28661 644.12663,392.20622 C 620.54566,375.02109 643.16038,383.0336 643.08537,378.6699 C 616.78863,361.96817 639.63682,367.97532 639.78807,363.39815 C 635.70169,357.94018 618.56194,370.26097 626.42529,348.99412 C 615.93837,350.32007 603.51387,354.39612 606.81498,336.15197 C 596.32431,341.20774 575.42019,343.75482 543.18826,304.89228 C 529.82548,286.67031 494.74963,255.60073 469.77976,256.4739 C 428.29276,261.40985 407.77911,255.05245 339.62282,274.34878 L 231.67934,285.13045 L 205.8215,287.38651 C 206.38169,335.37496 194.77299,366.19908 178.86787,377.812 C 178.08267,378.3853 167.75036,383.10642 166.93698,383.60749 C 151.08455,393.37313 137.05023,403.09811 130.50402,401.07892 C 123.06237,400.04282 121.06083,396.55867 122.86814,391.36054 C 123.73416,386.79092 124.28689,382.28396 122.86814,378.1713 C 121.63779,376.20169 121.95255,373.07324 117.31478,373.6592 C 112.88142,382.5327 105.54372,385.01667 96.489673,383.72466 C 94.233667,384.71482 92.806791,387.9985 94.754247,391.70762 C 108.25262,399.96544 105.45625,401.39194 106.55514,412.87982 C 98.921733,414.98127 91.307462,417.09155 89.54797,421.90403 C 85.351764,421.51017 81.051219,420.9598 77.747074,421.90403 C 76.095704,425.70516 75.351596,429.32483 76.011649,432.66367 C 90.806362,438.48461 86.368318,441.10009 88.506714,444.81165 C 96.837296,442.96214 103.56902,436.31608 111.06725,431.9695 C 122.80588,427.57471 122.05321,436.90585 119.39729,441.68789 C 116.7363,442.16395 114.07532,445.85801 111.41433,448.97667 C 109.80798,452.66553 110.40983,454.1462 111.06725,455.57129 C 132.10132,453.58562 129.40133,458.85202 135.36321,461.47174 C 145.49028,463.54578 140.61542,457.43695 141.61074,454.53004 C 139.13603,445.29678 143.39219,444.81364 145.08159,440.99371 C 148.23652,438.35779 153.67221,434.71459 153.41164,444.81165 C 155.10255,453.46339 160.0198,451.97524 164.86545,450.7121 C 163.34465,440.52375 168.47898,438.93161 178.05468,443.07623 C 179.92566,442.10663 181.38465,440.45039 181.87262,437.17578 C 176.0986,424.39289 189.98719,414.85896 197.49145,421.01429 L 196.4502,433.50935 C 203.83911,421.23368 210.22845,415.75686 214.84571,414.41967 C 213.33885,421.81085 213.1163,427.73426 214.84571,431.42684 C 225.39837,412.71451 230.92441,411.59533 236.0179,411.99008 C 235.21859,418.67401 235.60941,422.38261 235.67082,426.91474 C 242.45528,421.53725 246.30076,415.7399 249.90131,409.90756 C 257.63914,404.51739 258.5241,410.66888 257.53718,419.97303 C 259.62082,420.3924 262.48475,417.74509 267.25557,412.33716 C 272.7255,400.76602 276.59043,400.46055 281.48606,402.27169 C 281.98062,395.17423 284.21265,384.6062 281.13897,381.44658 C 282.35787,379.91357 286.42222,382.3642 289.8161,383.87618 C 290.85448,377.34752 289.64949,368.12683 288.42776,358.88605 C 292.08268,358.93335 294.06707,360.65122 296.41072,362.00981 C 295.49597,353.3316 294.52114,344.87372 292.2457,341.1847"
           style="fill:#fcef3c;fill-opacity:1;fill-rule:nonzero;stroke:#000000;stroke-width:3.30018669;stroke-linecap:round;stroke-linejoin:round;marker:none;stroke-miterlimit:4;stroke-dasharray:none;stroke-dashoffset:0;stroke-opacity:1;visibility:visible;display:inline;overflow:visible"
           id="path31396" />
      </g>
      <path
         inkscape:connector-curvature="0"
         sodipodi:nodetypes="cccc"
         id="path31398"
         d="M 945.79535,907.39183 C 943.51939,905.8568 944.72097,906.41556 939.94912,905.02139 C 932.25174,907.04105 922.49688,910.11932 914.20741,914.15864 C 929.01004,911.03726 935.13745,908.40167 945.79535,907.39183 z"
         style="fill:#fcef3c;fill-opacity:1;fill-rule:evenodd;stroke:#000000;stroke-width:1.91376734;stroke-linecap:butt;stroke-linejoin:miter;stroke-miterlimit:4;stroke-dasharray:none;stroke-opacity:1;display:inline" />
      <g
         transform="matrix(0.9961947,-8.7155743e-2,8.7155743e-2,0.9961947,-462.07539,65.3267)"
         id="g4755"
         style="display:inline">
        <path
           sodipodi:nodetypes="cscccccscccscscsscccsccsccscscccccsssccccccccccccccccsscsc"
           id="path4691"
           d="M 1158.9692,923.29639 C 1146.2385,926.68536 1143.4075,940.93017 1132.0304,942.69236 C 1128.2546,943.27718 1121.8035,939.04665 1128.5283,932.18621 C 1121.6334,931.259 1113.832,948.11397 1135.3901,950.02939 C 1128.2174,951.72452 1125.8367,949.24517 1122.3324,947.27197 C 1123.4834,954.42197 1128.5441,958.06329 1140.3814,955.62301 C 1144.7637,948.37976 1148.9741,940.85015 1158.1611,941.61481 C 1142.4293,941.23234 1140.8464,960.66905 1130.9528,968.28427 C 1126.2088,971.93583 1111.8714,974.94667 1114.853,959.34874 C 1101.7743,974.20209 1121.6089,986.41711 1133.6467,974.48021 C 1129.6907,979.98707 1122.3474,979.12454 1117.7528,978.25165 C 1122.0782,982.85157 1128.6662,989.38568 1142.8059,978.79043 C 1151.854,972.01051 1148.3319,975.56216 1155.8383,972.59191 C 1159.5199,969.91823 1160.9139,965.16225 1158.6896,960.77277 C 1156.83,957.10302 1159.8302,949.79942 1163.0101,947.00258 C 1158.7131,950.08989 1156.596,954.39935 1158.6998,960.74139 C 1160.625,966.54474 1158.6337,971.79078 1150.6182,976.90471 C 1137.2231,985.45077 1142.1357,999.81179 1147.1161,1000.3415 C 1147.9964,996.22634 1148.6994,992.07316 1153.3121,988.7578 C 1145.16,997.29803 1145.2153,1012.8507 1161.1243,1011.117 C 1154.2198,1008.4339 1151.0261,997.49982 1164.357,991.72108 C 1175.219,987.01255 1192.8627,989.36648 1190.4877,971.24755 L 1188.3326,964.64623 C 1192.5382,973.86595 1190.2425,981.29113 1186.5984,984.46754 C 1178.2196,991.77116 1173.4307,1008.9825 1186.7162,1016.5048 C 1182.9563,1007.4611 1184.9272,998.08036 1190.4877,988.48842 C 1182.2636,1003.5905 1183.8362,1017.2993 1192.9122,1022.4314 C 1198.0608,1025.3426 1203.0425,1024.6708 1207.4592,1019.7375 C 1198.4942,1021.6787 1196.4447,1017.877 1197.4918,1011.9252 C 1199.4025,1001.0642 1212.3044,1000.363 1213.6551,993.06802 C 1218.6941,1006.1523 1233.7282,1000.702 1232.7817,992.79863 C 1219.2452,996.81123 1222.0463,988.38726 1232.7817,979.3292 C 1236.886,972.79962 1239.0134,965.94057 1233.3205,957.77812 C 1237.9899,963.94405 1242.6593,964.98905 1247.3287,961.54956 C 1244.7169,959.59396 1240.3083,957.74922 1242.2103,952.12096 C 1247.5772,936.23971 1245.4361,934.09712 1243.0184,930.56988 C 1240.7191,927.21525 1233.2945,927.45464 1238.4388,916.83106 C 1239.118,915.42865 1239.8511,914.69496 1240.0552,912.79023 C 1245.4016,914.95248 1247.3281,910.27489 1249.4838,906.05552 C 1246.6983,905.25009 1240.8741,909.14096 1241.1327,903.63102 C 1240.5839,900.39668 1240.0708,897.1683 1241.1327,894.20242 C 1240.7406,891.66165 1243.0167,888.72063 1237.6307,886.92893 L 1231.9735,876.15339 C 1231.0078,874.2761 1229.6184,871.40448 1225.5565,872.67549 C 1223.5064,869.35802 1220.8388,870.22493 1217.9653,871.03501 C 1218.7051,868.31585 1215.9697,866.08713 1212.2116,868.38051 C 1210.7174,863.29691 1205.1482,864.93555 1202.6102,866.4554 C 1198.3816,863.47196 1194.9718,864.78671 1191.8346,867.53296 C 1189.565,862.93103 1182.5216,865.86023 1181.5979,868.07173 L 1171.3611,875.884 C 1164.2277,878.55777 1165.6954,898.00133 1155.4672,893.93303 C 1153.9005,897.1345 1157.1662,899.04732 1159.508,901.20653 C 1154.7199,907.00199 1160.0489,910.18193 1159.2386,916.83106 C 1155.1042,922.73297 1151.2028,918.90734 1146.308,918.71678 C 1139.9645,918.46983 1140.4324,922.07991 1137.718,920.97482 C 1135.7664,920.18026 1134.5341,916.44783 1137.1487,913.5984 C 1133.6488,912.63196 1123.6829,924.87099 1138.1932,929.56218 C 1143.5686,931.30002 1151.4091,925.21807 1158.9692,923.29639 z"
           style="opacity:1;fill:#fcef3c;fill-opacity:1;stroke:#000000;stroke-width:2.10526315;stroke-miterlimit:4;stroke-dasharray:none;stroke-opacity:1" />
        <path
           sodipodi:nodetypes="ccc"
           id="path4693"
           d="M 1175.5326,880.71908 C 1174.4315,875.68454 1169.2592,878.05192 1173.6396,863.05081 C 1186.2977,863.98522 1183.6416,870.56167 1186.6805,875.03999"
           style="opacity:1;fill:#fcef3c;fill-opacity:1;stroke:#000000;stroke-width:2.10526315;stroke-miterlimit:4;stroke-dasharray:none;stroke-opacity:1" />
        <path
           style="opacity:1;fill:#fcef3c;fill-opacity:1;stroke:#000000;stroke-width:2.10526315;stroke-miterlimit:4;stroke-dasharray:none;stroke-opacity:1"
           d="M 1224.1749,884.26072 C 1227.9844,880.7898 1223.348,877.49419 1238.5296,873.78719 C 1244.0494,885.21658 1237.026,886.2046 1234.6671,891.07549"
           id="path4695"
           sodipodi:nodetypes="ccc" />
        <path
           sodipodi:nodetypes="ccccccccccccc"
           id="path4697"
           d="M 1179.9497,927.41379 C 1179.6152,930.56884 1172.5646,933.72388 1179.3187,936.87893 C 1174.1866,942.08268 1181.9452,944.18947 1179.529,949.70946 C 1181.2704,951.1259 1182.8852,951.15005 1183.9461,945.08206 C 1182.8568,950.98997 1186.6472,952.93544 1185.8391,957.07124 C 1187.9382,956.35279 1191.1949,958.20677 1189.4149,948.86811 C 1190.1212,951.97389 1193.0406,953.67139 1191.4365,958.2474 C 1193.2924,958.10043 1196.5365,957.37956 1196.5663,955.17821 C 1199.3789,957.00165 1202.2043,958.29571 1205.2415,950.90835 C 1207.4115,950.93461 1209.9721,951.40999 1207.7141,946.34408 C 1211.8781,951.9535 1212.2563,948.14312 1212.1312,942.69111 C 1217.678,949.1208 1214.6896,938.15182 1214.981,934.76889 C 1215.499,931.54242 1216.781,928.17149 1218.4199,927.07898"
           style="opacity:1;fill:#fcef3c;fill-opacity:1;stroke:#000000;stroke-width:1.5;stroke-miterlimit:4;stroke-dasharray:none;stroke-opacity:1" />
        <path
           sodipodi:nodetypes="cccc"
           id="path4699"
           d="M 1208.4796,911.57763 C 1212.9288,907.95256 1211.4846,904.88482 1208.3938,901.53241 C 1210.473,899.17894 1207.4033,896.27625 1207.4494,893.71946 L 1209.7675,889.16907"
           style="opacity:1;fill:none;fill-opacity:1;stroke:#000000;stroke-width:1.5;stroke-miterlimit:4;stroke-dasharray:none;stroke-opacity:1" />
        <path
           sodipodi:nodetypes="cc"
           id="path4701"
           d="M 1178.0006,891.31548 C 1173.3419,897.26416 1174.7047,901.07615 1177.0561,904.53739"
           style="opacity:1;fill:none;fill-opacity:1;stroke:#000000;stroke-width:1.5;stroke-miterlimit:4;stroke-dasharray:none;stroke-opacity:1" />
        <path
           sodipodi:nodetypes="cc"
           id="path4703"
           d="M 1171.5613,900.33042 C 1168.9687,902.9153 1166.1316,903.70769 1164.1776,910.97664"
           style="opacity:1;fill:none;fill-opacity:1;stroke:#000000;stroke-width:1.5;stroke-miterlimit:4;stroke-dasharray:none;stroke-opacity:1" />
        <path
           sodipodi:nodetypes="cc"
           id="path4705"
           d="M 1171.9906,892.34576 C 1168.2287,893.43256 1166.1376,896.85837 1163.4049,899.386"
           style="opacity:1;fill:none;fill-opacity:1;stroke:#000000;stroke-width:1.5;stroke-miterlimit:4;stroke-dasharray:none;stroke-opacity:1" />
        <path
           sodipodi:nodetypes="cc"
           id="path4707"
           d="M 1176.6268,909.08779 C 1172.0351,931.31667 1159.7153,927.00801 1153.6173,934.07205"
           style="opacity:1;fill:none;fill-opacity:1;stroke:#000000;stroke-width:1.5;stroke-miterlimit:4;stroke-dasharray:none;stroke-opacity:1" />
        <path
           sodipodi:nodetypes="cc"
           id="path4709"
           d="M 1178.0006,915.87046 C 1178.7601,918.27822 1171.8891,930.00726 1170.0159,930.98122"
           style="opacity:1;fill:none;fill-opacity:1;stroke:#000000;stroke-width:1.5;stroke-miterlimit:4;stroke-dasharray:none;stroke-opacity:1" />
        <path
           sodipodi:nodetypes="cc"
           id="path4711"
           d="M 1170.2735,936.13261 C 1175.2062,933.33242 1177.3955,927.8073 1178.6874,921.36528"
           style="opacity:1;fill:none;fill-opacity:1;stroke:#000000;stroke-width:1.5;stroke-miterlimit:4;stroke-dasharray:none;stroke-opacity:1" />
        <path
           sodipodi:nodetypes="cc"
           id="path4713"
           d="M 1227.8832,898.95672 C 1228.5962,902.61993 1228.9871,906.28315 1226.7671,909.94636"
           style="opacity:1;fill:none;fill-opacity:1;stroke:#000000;stroke-width:1.5;stroke-miterlimit:4;stroke-dasharray:none;stroke-opacity:1" />
        <path
           sodipodi:nodetypes="cc"
           id="path4715"
           d="M 1227.2822,913.89576 C 1225.4827,915.46527 1225.1785,918.15622 1224.1914,920.335"
           style="opacity:1;fill:none;fill-opacity:1;stroke:#000000;stroke-width:1.5;stroke-miterlimit:4;stroke-dasharray:none;stroke-opacity:1" />
        <path
           sodipodi:nodetypes="cc"
           id="path4717"
           d="M 1221.8733,922.99656 C 1220.5934,925.57226 1220.2127,928.14795 1219.3834,930.72365"
           style="opacity:1;fill:none;fill-opacity:1;stroke:#000000;stroke-width:1.5;stroke-miterlimit:4;stroke-dasharray:none;stroke-opacity:1" />
        <path
           sodipodi:nodetypes="cc"
           id="path4719"
           d="M 1178.7733,907.2848 C 1180.6136,905.4421 1182.7041,903.67038 1185.8994,904.53739"
           style="opacity:1;fill:none;fill-opacity:1;stroke:#000000;stroke-width:1.5;stroke-miterlimit:4;stroke-dasharray:none;stroke-opacity:1" />
        <path
           sodipodi:nodetypes="cc"
           id="path4721"
           d="M 1218.1814,910.20393 C 1221.4709,910.1637 1222.6643,912.05823 1222.9894,914.75432"
           style="opacity:1;fill:none;fill-opacity:1;stroke:#000000;stroke-width:1.5;stroke-miterlimit:4;stroke-dasharray:none;stroke-opacity:1" />
        <path
           style="opacity:1;fill:none;fill-opacity:1;stroke:#000000;stroke-width:1.5;stroke-miterlimit:4;stroke-dasharray:none;stroke-opacity:1"
           d="M 1192.4702,909.49667 C 1189.0161,903.46808 1190.8554,901.54464 1195.9624,900.56681 C 1194.8135,897.64414 1198.7149,895.48619 1199.5462,893.06785 L 1198.9242,887.99904"
           id="path4723"
           sodipodi:nodetypes="cccc" />
        <path
           sodipodi:nodetypes="cccccc"
           id="path4725"
           d="M 1182.6368,897.23958 L 1184.1822,894.14875 L 1188.1316,895.17903 L 1191.5659,893.63361 L 1193.283,897.06787 C 1189.8655,900.51239 1186.2931,899.93157 1182.6368,897.23958 z"
           style="opacity:1;fill:none;fill-opacity:1;stroke:#000000;stroke-width:1.5;stroke-miterlimit:4;stroke-dasharray:none;stroke-opacity:1" />
        <path
           id="path4727"
           d="M 1184.9682,898.77281 L 1186.153,895.02087 L 1188.9176,895.02087 L 1191.2873,898.97028 L 1184.9682,898.77281 z"
           style="opacity:1;fill:#000000;fill-opacity:1;stroke:none;stroke-width:1.5;stroke-miterlimit:4;stroke-dasharray:none;stroke-opacity:1" />
        <path
           style="opacity:1;fill:none;fill-opacity:1;stroke:#000000;stroke-width:1.5;stroke-miterlimit:4;stroke-dasharray:none;stroke-opacity:1"
           d="M 1225.192,903.47649 L 1224.2068,900.16426 L 1220.1385,900.49308 L 1217.0247,898.37479 L 1214.7373,901.4587 C 1217.5048,905.44434 1221.1237,905.49267 1225.192,903.47649 z"
           id="path4729"
           sodipodi:nodetypes="cccccc" />
        <path
           style="opacity:1;fill:#000000;fill-opacity:1;stroke:none;stroke-width:1.5;stroke-miterlimit:4;stroke-dasharray:none;stroke-opacity:1"
           d="M 1222.3561,904.25547 L 1221.8408,900.3548 L 1219.1183,899.87475 L 1216.0987,903.35267 L 1222.3561,904.25547 z"
           id="path4731" />
        <path
           sodipodi:nodetypes="cccccc"
           id="path4733"
           d="M 1194.3133,907.54237 C 1196.4917,909.50073 1198.7203,911.44137 1199.9798,913.72405 C 1201.5828,911.54128 1204.1207,910.56044 1206.6766,909.60293 C 1205.455,909.08372 1204.2477,908.53962 1202.2121,909.43122 C 1200.5832,909.79936 1199.398,909.15708 1198.2627,908.40094 C 1196.381,907.12553 1195.518,907.47634 1194.3133,907.54237 z"
           style="opacity:1;fill:#000000;fill-opacity:1;stroke:none;stroke-width:1.5;stroke-miterlimit:4;stroke-dasharray:none;stroke-opacity:1" />
        <path
           sodipodi:nodetypes="csscscccccccc"
           id="path4735"
           d="M 1185.7845,907.28199 C 1186.4613,910.39291 1187.224,913.4923 1189.683,915.2563 C 1192.2759,917.11636 1194.0713,916.5679 1196.8894,915.84699 L 1199.4294,915.19723 C 1201.1169,915.8562 1202.4806,916.86396 1204.3912,917.67812 C 1209.4985,919.85448 1213.0011,916.75785 1217.1501,913.48423 C 1218.7542,913.89891 1220.2906,914.4489 1220.8123,917.02837 C 1214.6224,922.34762 1209.626,933.81106 1206.1042,944.37728 C 1203.1218,947.5545 1198.6745,943.7236 1196.2987,941.30569 C 1194.4676,940.79217 1192.6365,940.69719 1190.8053,941.12849 C 1188.4921,943.88152 1186.3288,943.80711 1184.0715,941.30569 C 1185.7041,930.50571 1185.5725,920.23912 1180.4683,911.47589 C 1181.017,909.01772 1182.8736,907.69298 1185.7845,907.28199 z"
           style="opacity:1;fill:#000000;fill-opacity:1;stroke:none;stroke-width:1.5;stroke-miterlimit:4;stroke-dasharray:none;stroke-opacity:1" />
        <path
           sodipodi:nodetypes="ccccccsc"
           id="path4737"
           d="M 1180.4227,888.33841 L 1180.4227,890.09266 C 1187.2095,891.46315 1191.3529,887.88307 1193.0366,892.01399 L 1194.7909,894.18593 L 1196.7122,892.68228 L 1193.4543,888.50548 C 1191.5464,886.1408 1188.6771,885.55708 1186.2702,887.25244 C 1184.5919,888.43462 1182.815,888.86273 1180.4227,888.33841 z"
           style="opacity:1;fill:#000000;fill-opacity:1;stroke:none;stroke-width:1.5;stroke-miterlimit:4;stroke-dasharray:none;stroke-opacity:1" />
        <path
           style="opacity:1;fill:#000000;fill-opacity:1;stroke:none;stroke-width:1.5;stroke-miterlimit:4;stroke-dasharray:none;stroke-opacity:1"
           d="M 1228.2237,894.93453 L 1227.7697,896.62899 C 1220.8594,896.19623 1217.7838,891.66575 1215.0883,895.22012 L 1212.8316,896.86402 L 1211.3649,894.91433 L 1215.5929,891.72307 C 1218.0479,889.93277 1220.9705,890.11157 1222.8565,892.37211 C 1224.1717,893.94838 1225.7772,894.82179 1228.2237,894.93453 z"
           id="path4739"
           sodipodi:nodetypes="ccccccsc" />
        <path
           sodipodi:nodetypes="cssscccccc"
           id="path4741"
           d="M 1196.4969,918.33109 C 1189.7231,920.23142 1191.3488,924.79364 1191.6238,929.51452 C 1191.7992,932.52561 1190.2354,937.1765 1192.475,938.52674 C 1194.4579,939.72224 1197.2369,940.07691 1198.5525,939.13172 C 1202.6267,936.20461 1204.084,932.22441 1206.0934,923.20597 C 1206.0643,921.77577 1205.9702,920.38555 1204.2409,920.00163 C 1202.4721,919.73488 1200.3652,920.411 1200.0644,921.61228 C 1199.7373,924.13908 1198.4198,926.49645 1197.6923,929.29014 L 1196.8412,929.24008 C 1196.9331,925.81299 1200.231,920.27969 1196.4969,918.33109 z"
           style="opacity:1;fill:#fcef3c;fill-opacity:1;stroke:none;stroke-width:1.5;stroke-miterlimit:4;stroke-dasharray:none;stroke-opacity:1" />
        <path
           sodipodi:nodetypes="cccccc"
           id="path4743"
           d="M 1186.617,915.19511 L 1187.8687,914.79457 L 1189.9215,917.09769 C 1190.2289,918.1125 1190.211,919.01889 1190.1218,919.90149 L 1188.8701,924.65794 C 1186.2447,924.98467 1186.5255,919.91409 1186.617,915.19511 z"
           style="opacity:1;fill:#fcef3c;fill-opacity:1;stroke:none;stroke-width:1.5;stroke-miterlimit:4;stroke-dasharray:none;stroke-opacity:1" />
        <path
           style="opacity:1;fill:#fcef3c;fill-opacity:1;stroke:none;stroke-width:1.5;stroke-miterlimit:4;stroke-dasharray:none;stroke-opacity:1"
           d="M 1214.9808,919.22231 L 1214.0156,918.33029 L 1211.1819,919.55009 C 1210.4744,920.33992 1210.1075,921.16892 1209.8154,922.00656 L 1208.9397,926.84635 C 1211.181,928.25203 1213.0694,923.53783 1214.9808,919.22231 z"
           id="path4745"
           sodipodi:nodetypes="cccccc" />
        <path
           sodipodi:nodetypes="cccccccc"
           id="path4747"
           d="M 1189.181,930.97023 C 1188.9897,931.04768 1188.1537,931.21571 1188.1537,931.21571 C 1185.4843,932.90333 1186.3613,937.04757 1185.4927,939.98264 L 1185.8661,940.84024 C 1186.8106,941.27718 1187.8789,941.04166 1188.975,940.65612 C 1190.0059,940.15913 1190.2394,939.51522 1190.0271,938.78922 C 1189.6533,936.78565 1188.784,934.85172 1189.3753,932.71251 L 1189.181,930.97023 z"
           style="opacity:0.98000004;fill:#fcef3c;fill-opacity:1;stroke:none;stroke-width:1.5;stroke-miterlimit:4;stroke-dasharray:none;stroke-opacity:1" />
        <path
           style="opacity:1;fill:#fcef3c;fill-opacity:1;stroke:none;stroke-width:1.5;stroke-miterlimit:4;stroke-dasharray:none;stroke-opacity:1"
           d="M 1206.4279,933.79173 C 1208.2708,936.35647 1205.1541,939.77024 1204.86,942.81696 L 1204.1926,943.47227 C 1203.1532,943.52358 1202.2508,942.90497 1201.3791,942.13696 C 1200.6093,941.28991 1200.634,940.60544 1201.1029,940.01183 C 1202.1999,938.29417 1203.9616,936.81556 1204.5181,934.70546 C 1204.8618,933.40249 1205.2984,932.98786 1206.4279,933.79173 z"
           id="path4749"
           sodipodi:nodetypes="cccccsc" />
        <path
           sodipodi:nodetypes="ccsccc"
           id="path4751"
           d="M 1183.9466,880.33607 L 1179.3241,880.33607 C 1179.2943,878.30244 1177.4505,876.66365 1176.7021,874.71756 C 1176.12,873.20398 1176.3524,870.60743 1177.0968,870.25297 C 1178.9073,870.33364 1180.4825,870.43154 1182.3206,872.84473 C 1183.5658,875.34185 1183.9139,877.76002 1183.9466,880.33607 z"
           style="opacity:1;fill:#000000;fill-opacity:1;stroke:none;stroke-width:1.5;stroke-miterlimit:4;stroke-dasharray:none;stroke-opacity:1" />
        <path
           style="opacity:1;fill:#000000;fill-opacity:1;stroke:none;stroke-width:1.5;stroke-miterlimit:4;stroke-dasharray:none;stroke-opacity:1"
           d="M 1226.6424,887.90233 L 1231.1074,889.09872 C 1231.6625,887.14208 1233.8676,886.03634 1235.0942,884.35027 C 1236.0482,883.03892 1236.4958,880.47071 1235.8685,879.93566 C 1234.0989,879.545 1232.552,879.23187 1230.1519,881.08708 C 1228.3028,883.17683 1227.3408,885.42252 1226.6424,887.90233 z"
           id="path4753"
           sodipodi:nodetypes="ccsccc" />
      </g>
    </g>
    <use
       style="display:inline"
       x="0"
       y="0"
       xlink:href="#g3183"
       id="use3247"
       transform="translate(0,-90)"
       width="600"
       height="660" />
    <path
       style="fill:#fcef3c;fill-opacity:1;stroke:#000000;stroke-width:1.5;stroke-linecap:butt;stroke-linejoin:round;stroke-miterlimit:4;stroke-dasharray:none;stroke-opacity:1"
       d="M 151.71875,193.46875 C 134.23202,221.5516 121.18419,245.03131 108.125,262.34375 C 95.06581,279.65619 82.21327,290.66371 64.75,294.75 L 66.125,300.59375 C 85.30108,296.10667 99.43727,283.82444 112.90625,265.96875 C 126.37523,248.11306 139.41268,224.56829 156.8125,196.625 L 151.71875,193.46875 z"
       id="path2685" />
    <path
       style="fill:#fcef3c;fill-opacity:1;stroke:#000000;stroke-width:1.5;stroke-linecap:butt;stroke-linejoin:round;stroke-miterlimit:4;stroke-dasharray:none;stroke-opacity:1"
       d="M 40.6875,162.96875 L 34.71875,163.40625 C 38.84142,220.55187 94.70709,271.77636 126.90625,300.59375 L 130.90625,296.125 C 98.80117,267.39181 44.54421,216.42781 40.6875,162.96875 z"
       id="path3568" />
    <path
       style="fill:#fcef3c;fill-opacity:1;stroke:#000000;stroke-width:1.5;stroke-linecap:butt;stroke-linejoin:round;stroke-miterlimit:4;stroke-dasharray:none;stroke-opacity:1"
       d="M 142.0625,187.59375 C 129.04789,210.32977 119.80638,231.99374 108.28125,249.5625 C 96.75612,267.13126 83.1599,280.59553 60.9375,287.875 L 62.8125,293.59375 C 86.45224,285.84999 101.32988,271.06225 113.28125,252.84375 C 125.23262,234.62525 134.44526,212.96314 147.25,190.59375 L 142.0625,187.59375 z"
       id="path2683" />
    <path
       style="fill:#fcef3c;fill-opacity:1;stroke:#000000;stroke-width:1.5;stroke-linecap:butt;stroke-linejoin:round;stroke-miterlimit:4;stroke-dasharray:none;stroke-opacity:1"
       d="M 53.125,154.75 C 51.21992,187.68896 60.50163,213.46343 75.59375,235.46875 C 90.68587,257.47407 111.46292,275.77437 132.6875,294.40625 L 136.65625,289.90625 C 115.44012,271.28179 95.07612,253.25556 80.5625,232.09375 C 66.04888,210.93194 57.26335,186.74149 59.09375,155.09375 L 53.125,154.75 z"
       id="path2681" />
    <g
       id="g3545"
       transform="translate(637.90849,-24.704591)">
      <path
         style="fill:#fcef3c;fill-opacity:1;fill-rule:evenodd;stroke:#000000;stroke-width:1.5;stroke-linecap:butt;stroke-linejoin:miter;stroke-miterlimit:4;stroke-dasharray:none;stroke-opacity:1;display:inline"
         d="M -599.70011,65.339067 C -599.91891,86.250756 -612.01966,91.019584 -599.76218,100.98587 C -588.24268,89.850175 -599.72732,85.701422 -599.70011,65.339067 z"
         id="path8769"
         sodipodi:nodetypes="ccc" />
      <path
         style="fill:#fcef3c;fill-opacity:1;fill-rule:evenodd;stroke:#000000;stroke-width:1.5;stroke-linecap:butt;stroke-linejoin:miter;stroke-miterlimit:4;stroke-dasharray:none;stroke-opacity:1;display:inline"
         d="M -586.63899,78.472835 C -592.60622,99.138137 -601.46156,89.133547 -599.44089,116.24018 C -597.23788,114.99833 -596.4215,109.79919 -594.91997,108.51962 C -584.93464,97.295736 -589.81511,89.019854 -586.63899,78.472835 z"
         id="path8773"
         sodipodi:nodetypes="cccc" />
      <path
         style="fill:#fcef3c;fill-opacity:1;fill-rule:evenodd;stroke:#000000;stroke-width:1.5;stroke-linecap:butt;stroke-linejoin:miter;stroke-miterlimit:4;stroke-dasharray:none;stroke-opacity:1;display:inline"
         d="M -580.41359,98.496736 C -586.74953,108.20986 -601.62023,105.29955 -599.34616,129.60036 C -597.87977,127.00831 -595.86627,123.18226 -594.35718,122.51612 C -587.49474,117.85899 -587.09687,106.25483 -580.41359,98.496736 z"
         id="path8775"
         sodipodi:nodetypes="cccc" />
      <path
         style="fill:#fcef3c;fill-opacity:1;fill-rule:evenodd;stroke:#000000;stroke-width:1.5;stroke-linecap:butt;stroke-linejoin:miter;stroke-miterlimit:4;stroke-dasharray:none;stroke-opacity:1;display:inline"
         d="M -580.34821,111.64082 C -586.68415,121.35394 -601.55485,118.44363 -599.28079,142.74444 C -597.81439,140.15239 -595.80089,136.32634 -594.2918,135.6602 C -587.42936,131.00307 -587.03149,119.39891 -580.34821,111.64082 z"
         id="path8777"
         sodipodi:nodetypes="cccc" />
      <path
         style="fill:#fcef3c;fill-opacity:1;fill-rule:evenodd;stroke:#000000;stroke-width:1.5;stroke-linecap:butt;stroke-linejoin:miter;stroke-miterlimit:4;stroke-dasharray:none;stroke-opacity:1;display:inline"
         d="M -580.48336,124.4145 C -586.8193,134.12763 -601.69,131.21732 -599.41594,155.51813 C -597.94954,152.92607 -595.93604,149.10003 -594.42695,148.43389 C -587.56451,143.77676 -587.16664,132.1726 -580.48336,124.4145 z"
         id="path8779"
         sodipodi:nodetypes="cccc" />
      <path
         style="fill:#fcef3c;fill-opacity:1;fill-rule:evenodd;stroke:#000000;stroke-width:1.5;stroke-linecap:butt;stroke-linejoin:miter;stroke-miterlimit:4;stroke-dasharray:none;stroke-opacity:1;display:inline"
         d="M -580.40925,137.3768 C -586.74519,147.08993 -601.6159,144.17961 -599.34183,168.48042 C -597.87543,165.88837 -595.86193,162.06232 -594.35284,161.39619 C -587.4904,156.73905 -587.09253,145.1349 -580.40925,137.3768 z"
         id="path8781"
         sodipodi:nodetypes="cccc" />
      <path
         style="fill:#fcef3c;fill-opacity:1;fill-rule:evenodd;stroke:#000000;stroke-width:1.5;stroke-linecap:butt;stroke-linejoin:miter;stroke-miterlimit:4;stroke-dasharray:none;stroke-opacity:1;display:inline"
         d="M -580.54446,150.15044 C -586.8804,159.86357 -601.7511,156.95326 -599.47703,181.25407 C -598.01064,178.66201 -595.99714,174.83597 -594.48805,174.16983 C -587.62561,169.5127 -587.22774,157.90854 -580.54446,150.15044 z"
         id="path8783"
         sodipodi:nodetypes="cccc" />
      <path
         style="fill:#fcef3c;fill-opacity:1;fill-rule:evenodd;stroke:#000000;stroke-width:1.5;stroke-linecap:butt;stroke-linejoin:miter;stroke-miterlimit:4;stroke-dasharray:none;stroke-opacity:1;display:inline"
         d="M -580.47036,163.11275 C -586.8063,172.82588 -601.677,169.91556 -599.40294,194.21637 C -597.93654,191.62432 -595.92304,187.79827 -594.41395,187.13214 C -587.55151,182.475 -587.15364,170.87084 -580.47036,163.11275 z"
         id="path8785"
         sodipodi:nodetypes="cccc" />
      <path
         style="fill:#fcef3c;fill-opacity:1;fill-rule:evenodd;stroke:#000000;stroke-width:1.5;stroke-linecap:butt;stroke-linejoin:miter;stroke-miterlimit:4;stroke-dasharray:none;stroke-opacity:1;display:inline"
         d="M -612.85228,78.138862 C -606.90666,98.810417 -598.04086,88.815082 -600.08987,115.91962 C -602.29158,114.67547 -603.10253,109.47546 -604.60272,108.19433 C -614.57632,96.959992 -609.68719,88.689209 -612.85228,78.138862 z"
         id="path8789"
         sodipodi:nodetypes="cccc" />
      <path
         style="fill:#fcef3c;fill-opacity:1;fill-rule:evenodd;stroke:#000000;stroke-width:1.5;stroke-linecap:butt;stroke-linejoin:miter;stroke-miterlimit:4;stroke-dasharray:none;stroke-opacity:1;display:inline"
         d="M -619.09863,98.156265 C -612.77285,107.87603 -597.89909,104.98126 -600.19857,129.27971 C -601.66226,126.68612 -603.67176,122.85796 -605.18015,122.19025 C -612.03772,117.52593 -612.42346,105.92136 -619.09863,98.156265 z"
         id="path8791"
         sodipodi:nodetypes="cccc" />
      <path
         style="fill:#fcef3c;fill-opacity:1;fill-rule:evenodd;stroke:#000000;stroke-width:1.5;stroke-linecap:butt;stroke-linejoin:miter;stroke-miterlimit:4;stroke-dasharray:none;stroke-opacity:1;display:inline"
         d="M -619.17776,111.30028 C -612.85197,121.02004 -597.97821,118.12528 -600.27769,142.42373 C -601.74138,139.83014 -603.75088,136.00198 -605.25927,135.33427 C -612.11685,130.66995 -612.50258,119.06538 -619.17776,111.30028 z"
         id="path8793"
         sodipodi:nodetypes="cccc" />
      <path
         style="fill:#fcef3c;fill-opacity:1;fill-rule:evenodd;stroke:#000000;stroke-width:1.5;stroke-linecap:butt;stroke-linejoin:miter;stroke-miterlimit:4;stroke-dasharray:none;stroke-opacity:1;display:inline"
         d="M -619.05596,124.07412 C -612.73018,133.79388 -597.85642,130.89912 -600.1559,155.19757 C -601.61959,152.60398 -603.62909,148.77582 -605.13748,148.10811 C -611.99506,143.44379 -612.38079,131.83921 -619.05596,124.07412 z"
         id="path8795"
         sodipodi:nodetypes="cccc" />
      <path
         style="fill:#fcef3c;fill-opacity:1;fill-rule:evenodd;stroke:#000000;stroke-width:1.5;stroke-linecap:butt;stroke-linejoin:miter;stroke-miterlimit:4;stroke-dasharray:none;stroke-opacity:1;display:inline"
         d="M -619.14363,137.03635 C -612.81784,146.75611 -597.94408,143.86134 -600.24357,168.15979 C -601.70725,165.5662 -603.71675,161.73804 -605.22514,161.07033 C -612.08272,156.40601 -612.46845,144.80144 -619.14363,137.03635 z"
         id="path8797"
         sodipodi:nodetypes="cccc" />
      <path
         style="fill:#fcef3c;fill-opacity:1;fill-rule:evenodd;stroke:#000000;stroke-width:1.5;stroke-linecap:butt;stroke-linejoin:miter;stroke-miterlimit:4;stroke-dasharray:none;stroke-opacity:1;display:inline"
         d="M -619.02178,149.81014 C -612.69599,159.5299 -597.82224,156.63514 -600.12172,180.93359 C -601.5854,178.33999 -603.59491,174.51184 -605.10329,173.84413 C -611.96087,169.17981 -612.3466,157.57523 -619.02178,149.81014 z"
         id="path8799"
         sodipodi:nodetypes="cccc" />
      <path
         style="fill:#fcef3c;fill-opacity:1;fill-rule:evenodd;stroke:#000000;stroke-width:1.5;stroke-linecap:butt;stroke-linejoin:miter;stroke-miterlimit:4;stroke-dasharray:none;stroke-opacity:1;display:inline"
         d="M -619.10943,162.77238 C -612.78365,172.49214 -597.90989,169.59737 -600.20937,193.89582 C -601.67306,191.30223 -603.68256,187.47407 -605.19095,186.80636 C -612.04852,182.14204 -612.43426,170.53747 -619.10943,162.77238 z"
         id="path8801"
         sodipodi:nodetypes="cccc" />
    </g>
    <use
       x="0"
       y="0"
       xlink:href="#g3545"
       id="use3562"
       transform="matrix(0.9848078,0.1736482,-0.1736482,0.9848078,47.826762,-15.021149)"
       width="600"
       height="660" />
    <use
       x="0"
       y="0"
       xlink:href="#g3545"
       id="use3564"
       transform="matrix(0.8660255,0.5000001,-0.5000001,0.8660255,203.66687,32.995507)"
       width="600"
       height="660" />
    <use
       x="0"
       y="0"
       xlink:href="#use3564"
       id="use3566"
       transform="matrix(0.9848078,-0.1736482,0.1736482,0.9848078,-42.995697,26.35638)"
       width="600"
       height="660" />
    <g
       id="g3030">
      <path
         style="fill:none;fill-opacity:1;stroke:#000000;stroke-width:3;stroke-linecap:butt;stroke-linejoin:round;stroke-miterlimit:4;stroke-dasharray:none;stroke-opacity:1"
         d="M 186.80653,388.20765 C 189.36361,388.47659 191.89031,388.86443 194.47551,389.22142 C 194.62353,390.14313 194.47299,390.11789 194.51408,391.04727 C 196.43986,391.15616 199.43696,391.00905 201.81665,390.63734 C 206.08811,391.32877 209.28388,391.25805 212.34502,391.5911 L 215.23199,391.19733 L 221.42875,392.263 L 221.41497,394.81333 L 224.54925,395.37132 L 228.6354,394.97852 L 243.1933,397.33501 L 328.38195,384.4553 L 341.87015,386.17935 L 342.58006,387.29492 L 347.90724,387.24617 L 347.90724,385.95537 L 374.00255,381.90943 L 377.32107,382.60911 L 380.61343,382.23456 L 380.64891,380.82976 L 400.89371,377.66049 L 407.68852,377.35624 L 407.48569,342.87512 L 402.61777,335.77607 L 402.64712,331.51217 L 403.35325,331.04763 L 402.08731,330.146 L 386.28994,301.19354 L 342.27581,301.70061 L 342.27581,287.5025 L 345.11543,287.40109 L 340.55175,285.16996 L 311.54705,247.0379 L 283.35366,285.87986 L 279.19565,288.21241 L 281.93385,288.21241 L 281.93385,302.51193 L 212.16029,303.93174 L 198.97634,329.08268 L 197.55653,331.11098 L 198.36785,331.21239 L 198.36785,332.83503 L 196.23813,335.06616 L 196.33955,347.94588 L 185.58955,354.43644 L 186.50229,354.43644 L 186.80653,388.20765 z"
         id="path2856"
         sodipodi:nodetypes="ccccccccccccccccccccccccccccccccccccccccccccccc" />
      <path
         sodipodi:nodetypes="ccccccccccccccccccccccccccccccccccccccccccccccc"
         id="path3610"
         d="M 186.80653,388.20765 C 189.36361,388.47659 191.89031,388.86443 194.47551,389.22142 C 194.62353,390.14313 194.47299,390.11789 194.51408,391.04727 C 196.43986,391.15616 199.43696,391.00905 201.81665,390.63734 C 206.08811,391.32877 209.28388,391.25805 212.34502,391.5911 L 215.23199,391.19733 L 221.42875,392.263 L 221.41497,394.81333 L 224.54925,395.37132 L 228.6354,394.97852 L 243.1933,397.33501 L 328.38195,384.4553 L 341.87015,386.17935 L 342.58006,387.29492 L 347.90724,387.24617 L 347.90724,385.95537 L 374.00255,381.90943 L 377.32107,382.60911 L 380.61343,382.23456 L 380.64891,380.82976 L 400.89371,377.66049 L 407.68852,377.35624 L 407.48569,342.87512 L 402.61777,335.77607 L 402.64712,331.51217 L 403.35325,331.04763 L 402.08731,330.146 L 386.28994,301.19354 L 342.27581,301.70061 L 342.27581,287.5025 L 345.11543,287.40109 L 340.55175,285.16996 L 311.54705,247.0379 L 283.35366,285.87986 L 279.19565,288.21241 L 281.93385,288.21241 L 281.93385,302.51193 L 212.16029,303.93174 L 198.97634,329.08268 L 197.55653,331.11098 L 198.36785,331.21239 L 198.36785,332.83503 L 196.23813,335.06616 L 196.33955,347.94588 L 185.58955,354.43644 L 186.50229,354.43644 L 186.80653,388.20765 z"
         style="fill:#fcef3c;fill-opacity:1;stroke:#000000;stroke-width:1;stroke-linecap:butt;stroke-linejoin:round;stroke-miterlimit:4;stroke-dasharray:none;stroke-opacity:1" />
      <path
         sodipodi:nodetypes="cccc"
         id="path2485"
         d="M 201.81665,390.63734 C 201.2936,390.82153 199.14762,391.02926 197.84108,391.19315 L 194.51408,391.04727 L 194.38896,349.1236"
         style="fill:none;fill-opacity:1;stroke:#000000;stroke-width:1;stroke-linecap:butt;stroke-linejoin:round;stroke-miterlimit:4;stroke-dasharray:none;stroke-opacity:1" />
      <path
         sodipodi:nodetypes="ccccccc"
         id="path2487"
         d="M 225.12504,333.75002 L 222.75383,336.12123 L 223.0328,349.79053 L 220.80108,351.88277 L 221.41497,394.81333 L 224.54925,395.37132 L 228.6354,394.97852"
         style="fill:none;fill-opacity:1;stroke:#000000;stroke-width:1;stroke-linecap:butt;stroke-linejoin:round;stroke-miterlimit:4;stroke-dasharray:none;stroke-opacity:1" />
      <path
         sodipodi:nodetypes="ccsc"
         id="path2489"
         d="M 213.58727,318.22847 C 213.27964,317.75697 212.85459,317.46876 212.375,317.46875 C 211.41257,317.46875 210.625,318.63086 210.625,320.09375 C 210.625,321.55664 211.41257,322.74999 212.375,322.75"
         style="fill:none;fill-opacity:1;stroke:#000000;stroke-width:1;stroke-linecap:butt;stroke-linejoin:round;stroke-miterlimit:4;stroke-dasharray:none;stroke-opacity:1" />
      <path
         id="path2495"
         d="M 201.3678,326.52048 L 223.73021,327.03235"
         style="fill:none;fill-opacity:1;stroke:#000000;stroke-width:1;stroke-linecap:butt;stroke-linejoin:round;stroke-miterlimit:4;stroke-dasharray:none;stroke-opacity:1"
         sodipodi:nodetypes="cc" />
      <path
         id="path2497"
         d="M 216.29372,347.44424 L 216.29372,338.76487 L 215.01154,336.4964"
         style="fill:none;fill-opacity:1;stroke:#000000;stroke-width:1;stroke-linecap:butt;stroke-linejoin:round;stroke-miterlimit:4;stroke-dasharray:none;stroke-opacity:1" />
      <path
         id="path2499"
         d="M 211.65815,347.44424 L 211.55952,338.37035 L 210.27734,336.4964"
         style="fill:none;fill-opacity:1;stroke:#000000;stroke-width:1;stroke-linecap:butt;stroke-linejoin:round;stroke-miterlimit:4;stroke-dasharray:none;stroke-opacity:1" />
      <path
         sodipodi:nodetypes="ccc"
         id="path2501"
         d="M 221.01136,368.33725 C 220.92752,361.7767 219.88227,352.49153 212.99005,350.76691 C 206.50667,352.10833 205.66417,357.88952 205.72844,365.91149"
         style="fill:none;fill-opacity:1;stroke:#000000;stroke-width:0.5;stroke-linecap:butt;stroke-linejoin:round;stroke-miterlimit:4;stroke-dasharray:none;stroke-opacity:1" />
      <path
         sodipodi:nodetypes="cscc"
         id="path2503"
         d="M 219.35099,392.05344 L 219.26677,370.57345 C 219.2543,367.3934 219.55607,363.66518 215.50073,361.78604 C 211.82182,363.34535 212.41656,366.2439 212.24992,369.04402"
         style="fill:none;fill-opacity:1;stroke:#000000;stroke-width:1;stroke-linecap:butt;stroke-linejoin:round;stroke-miterlimit:4;stroke-dasharray:none;stroke-opacity:1" />
      <path
         id="path2505"
         d="M 281.93385,288.21241 L 311.88326,287.02332 L 342.27581,287.5025"
         style="fill:none;fill-opacity:1;stroke:#000000;stroke-width:1;stroke-linecap:butt;stroke-linejoin:round;stroke-miterlimit:4;stroke-dasharray:none;stroke-opacity:1" />
      <path
         sodipodi:nodetypes="ccc"
         id="path2507"
         d="M 281.89449,329.28658 L 283.56828,332.63416 L 283.65238,344.83831"
         style="fill:none;fill-opacity:1;stroke:#000000;stroke-width:1;stroke-linecap:butt;stroke-linejoin:round;stroke-miterlimit:4;stroke-dasharray:none;stroke-opacity:1" />
      <path
         sodipodi:nodetypes="ccc"
         id="path2509"
         d="M 266.49595,330.08551 L 267.92608,333.83341 L 267.97539,346.6552"
         style="fill:none;fill-opacity:1;stroke:#000000;stroke-width:1;stroke-linecap:butt;stroke-linejoin:round;stroke-miterlimit:4;stroke-dasharray:none;stroke-opacity:1" />
      <path
         id="path2511"
         d="M 227.83333,332.55124 L 263.93159,330.38139"
         style="fill:none;fill-opacity:1;stroke:#000000;stroke-width:1;stroke-linecap:butt;stroke-linejoin:round;stroke-miterlimit:4;stroke-dasharray:none;stroke-opacity:1" />
      <path
         id="path2513"
         d="M 266.49595,330.08551 L 279.31774,329.3951"
         style="fill:none;fill-opacity:1;stroke:#000000;stroke-width:1;stroke-linecap:butt;stroke-linejoin:round;stroke-miterlimit:4;stroke-dasharray:none;stroke-opacity:1" />
      <path
         id="path2515"
         d="M 281.89449,329.28658 L 313.24617,327.81704"
         style="fill:none;fill-opacity:1;stroke:#000000;stroke-width:1;stroke-linecap:butt;stroke-linejoin:round;stroke-miterlimit:4;stroke-dasharray:none;stroke-opacity:1" />
      <path
         id="path2517"
         d="M 327.84328,351.29077 L 242.82496,359.1811 L 228.62236,348.72642"
         style="fill:none;fill-opacity:1;stroke:#000000;stroke-width:1;stroke-linecap:butt;stroke-linejoin:round;stroke-miterlimit:4;stroke-dasharray:none;stroke-opacity:1" />
      <path
         sodipodi:nodetypes="ccc"
         id="path2519"
         d="M 253.27965,379.89323 L 253.08239,363.71805 C 253.23543,361.60896 254.54208,361.10815 255.64675,360.36465"
         style="fill:none;fill-opacity:1;stroke:#000000;stroke-width:1;stroke-linecap:butt;stroke-linejoin:round;stroke-miterlimit:4;stroke-dasharray:none;stroke-opacity:1" />
      <path
         style="fill:none;fill-opacity:1;stroke:#000000;stroke-width:1;stroke-linecap:butt;stroke-linejoin:round;stroke-miterlimit:4;stroke-dasharray:none;stroke-opacity:1"
         d="M 270.29728,377.84351 L 270.10478,362.05864 C 270.25782,359.94955 271.56447,359.44874 272.66914,358.70524"
         id="path2521"
         sodipodi:nodetypes="ccc" />
      <path
         sodipodi:nodetypes="ccc"
         id="path2523"
         d="M 286.2452,375.70496 L 286.05658,360.23863 C 286.20962,358.12954 287.51627,357.62873 288.62094,356.88523"
         style="fill:none;fill-opacity:1;stroke:#000000;stroke-width:1;stroke-linecap:butt;stroke-linejoin:round;stroke-miterlimit:4;stroke-dasharray:none;stroke-opacity:1" />
      <path
         style="fill:none;fill-opacity:1;stroke:#000000;stroke-width:1;stroke-linecap:butt;stroke-linejoin:round;stroke-miterlimit:4;stroke-dasharray:none;stroke-opacity:1"
         d="M 301.75712,373.77673 L 301.57481,358.82745 C 301.72785,356.71836 303.0345,356.21755 304.13917,355.47405"
         id="path2525"
         sodipodi:nodetypes="ccc" />
      <path
         sodipodi:nodetypes="ccc"
         id="path2527"
         d="M 316.04951,372.43849 L 315.8672,357.48921 C 316.02024,355.38012 317.32689,354.87931 318.43156,354.13581"
         style="fill:none;fill-opacity:1;stroke:#000000;stroke-width:1;stroke-linecap:butt;stroke-linejoin:round;stroke-miterlimit:4;stroke-dasharray:none;stroke-opacity:1" />
      <path
         id="path2529"
         d="M 239.49118,343.85452 L 239.49118,338.18038 L 240.56177,337.00273"
         style="fill:none;fill-opacity:1;stroke:#000000;stroke-width:1;stroke-linecap:butt;stroke-linejoin:round;stroke-miterlimit:4;stroke-dasharray:none;stroke-opacity:1" />
      <path
         style="fill:none;fill-opacity:1;stroke:#000000;stroke-width:1;stroke-linecap:butt;stroke-linejoin:round;stroke-miterlimit:4;stroke-dasharray:none;stroke-opacity:1"
         d="M 256.34765,342.92511 L 256.34765,337.25097 L 257.41824,336.07332"
         id="path2531" />
      <path
         id="path2533"
         d="M 271.97828,341.786 L 271.97828,336.22534 L 273.04887,335.07125"
         style="fill:none;fill-opacity:1;stroke:#000000;stroke-width:0.98994946;stroke-linecap:butt;stroke-linejoin:round;stroke-miterlimit:4;stroke-dasharray:none;stroke-opacity:1" />
      <path
         style="fill:none;fill-opacity:1;stroke:#000000;stroke-width:0.97999996;stroke-linecap:butt;stroke-linejoin:round;stroke-miterlimit:4;stroke-dasharray:none;stroke-opacity:1"
         d="M 287.50185,340.75532 L 287.50185,335.30588 L 288.57244,334.17487"
         id="path2535" />
      <path
         id="path2537"
         d="M 301.41953,339.51187 L 301.41953,334.17141 L 302.49012,333.06302"
         style="fill:none;fill-opacity:1;stroke:#000000;stroke-width:0.97015047;stroke-linecap:butt;stroke-linejoin:round;stroke-miterlimit:4;stroke-dasharray:none;stroke-opacity:1" />
      <path
         style="fill:none;fill-opacity:1;stroke:#000000;stroke-width:1;stroke-linecap:butt;stroke-linejoin:round;stroke-miterlimit:4;stroke-dasharray:none;stroke-opacity:1"
         d="M 214.32701,352.02147 C 207.49739,353.9482 207.62253,359.44072 207.73695,367.4758 L 208.07828,391.44648"
         id="path2539"
         sodipodi:nodetypes="csc" />
      <path
         id="path2541"
         d="M 227.83333,332.55124 L 226.07051,330.32287 L 212.16029,303.93174"
         style="fill:none;fill-opacity:1;stroke:#000000;stroke-width:1;stroke-linecap:butt;stroke-linejoin:round;stroke-miterlimit:4;stroke-dasharray:none;stroke-opacity:1" />
      <path
         id="path2543"
         d="M 342.27581,301.70061 L 327.72637,302.14534"
         style="fill:none;fill-opacity:1;stroke:#000000;stroke-width:1;stroke-linecap:butt;stroke-linejoin:round;stroke-miterlimit:4;stroke-dasharray:none;stroke-opacity:1" />
      <path
         sodipodi:nodetypes="csc"
         id="path2545"
         d="M 357.63791,364.35266 L 357.74628,347.33777 C 357.76783,343.95456 359.3241,342.05183 361.97291,341.26876"
         style="fill:none;fill-opacity:1;stroke:#000000;stroke-width:1;stroke-linecap:butt;stroke-linejoin:round;stroke-miterlimit:4;stroke-dasharray:none;stroke-opacity:1" />
      <path
         style="fill:none;fill-opacity:1;stroke:#000000;stroke-width:0.94119203;stroke-linecap:butt;stroke-linejoin:round;stroke-miterlimit:4;stroke-dasharray:none;stroke-opacity:1"
         d="M 384.524,361.34877 L 384.626,345.33449 C 384.64629,342.15024 386.11103,340.35941 388.60408,339.62239"
         id="path2547"
         sodipodi:nodetypes="csc" />
      <path
         id="path2549"
         d="M 376.92868,337.80076 L 380.50506,345.60377 L 380.61343,382.23456 L 377.47056,382.55968 L 374.00255,381.90943"
         style="fill:none;fill-opacity:1;stroke:#000000;stroke-width:1;stroke-linecap:butt;stroke-linejoin:round;stroke-miterlimit:4;stroke-dasharray:none;stroke-opacity:1" />
      <path
         id="path2551"
         d="M 347.90724,385.95537 L 347.77577,348.42152 L 347.34227,340.29338"
         style="fill:none;fill-opacity:1;stroke:#000000;stroke-width:1;stroke-linecap:butt;stroke-linejoin:round;stroke-miterlimit:4;stroke-dasharray:none;stroke-opacity:1" />
      <path
         id="path2553"
         d="M 402.64712,331.51217 L 344.01846,335.51011 L 311.86536,333.73478"
         style="fill:none;fill-opacity:1;stroke:#000000;stroke-width:1;stroke-linecap:butt;stroke-linejoin:round;stroke-miterlimit:4;stroke-dasharray:none;stroke-opacity:1" />
      <path
         id="path2555"
         d="M 313.24617,341.62512 L 313.04891,333.53753"
         style="fill:none;fill-opacity:1;stroke:#000000;stroke-width:1;stroke-linecap:butt;stroke-linejoin:round;stroke-miterlimit:4;stroke-dasharray:none;stroke-opacity:1" />
      <path
         sodipodi:nodetypes="cccc"
         id="path2557"
         d="M 281.93385,302.51193 L 297.26825,302.17346 L 311.27358,325.25268 L 313.64068,328.21155"
         style="fill:none;fill-opacity:1;stroke:#000000;stroke-width:1;stroke-linecap:butt;stroke-linejoin:round;stroke-miterlimit:4;stroke-dasharray:none;stroke-opacity:1" />
      <path
         id="path2559"
         d="M 212.24992,369.04402 L 212.24992,391.33421 L 207.91024,391.33421"
         style="fill:none;fill-opacity:1;stroke:#000000;stroke-width:1;stroke-linecap:butt;stroke-linejoin:round;stroke-miterlimit:4;stroke-dasharray:none;stroke-opacity:1" />
      <path
         id="path2561"
         d="M 212.22289,391.21688 L 214.9428,391.14714 L 221.42875,392.263"
         style="fill:none;fill-opacity:1;stroke:#000000;stroke-width:1;stroke-linecap:butt;stroke-linejoin:round;stroke-miterlimit:4;stroke-dasharray:none;stroke-opacity:1" />
      <path
         id="path2563"
         d="M 311.86536,333.73478 L 327.72637,302.14534"
         style="fill:none;fill-opacity:1;stroke:#000000;stroke-width:1;stroke-linecap:butt;stroke-linejoin:round;stroke-miterlimit:4;stroke-dasharray:none;stroke-opacity:1" />
      <path
         sodipodi:nodetypes="ccc"
         id="path2567"
         d="M 306.73664,305.52685 L 306.73664,293.1982 C 306.73436,291.20958 307.47111,290.263 309.20238,290.23933"
         style="fill:none;fill-opacity:1;stroke:#000000;stroke-width:0.5;stroke-linecap:butt;stroke-linejoin:round;stroke-miterlimit:4;stroke-dasharray:none;stroke-opacity:1" />
      <path
         style="fill:none;fill-opacity:1;stroke:#000000;stroke-width:0.5;stroke-linecap:butt;stroke-linejoin:round;stroke-miterlimit:4;stroke-dasharray:none;stroke-opacity:1"
         d="M 300.86269,305.62548 L 300.86269,293.29683 C 300.86041,291.30821 301.59716,290.36163 303.32843,290.33796"
         id="path2569"
         sodipodi:nodetypes="ccc" />
      <path
         sodipodi:nodetypes="cc"
         id="path2571"
         d="M 297.21342,290.43659 C 295.48215,290.46026 294.7454,291.40684 294.74768,293.39546 L 294.70389,301.9762"
         style="fill:none;fill-opacity:1;stroke:#000000;stroke-width:0.5;stroke-linecap:butt;stroke-linejoin:round;stroke-miterlimit:4;stroke-dasharray:none;stroke-opacity:1" />
      <path
         style="fill:none;fill-opacity:1;stroke:#000000;stroke-width:0.5;stroke-linecap:butt;stroke-linejoin:round;stroke-miterlimit:4;stroke-dasharray:none;stroke-opacity:1"
         d="M 289.02719,302.07482 L 289.02719,293.39546 C 289.02491,291.40684 289.76166,290.46026 291.49293,290.43659"
         id="path2573"
         sodipodi:nodetypes="ccc" />
      <path
         sodipodi:nodetypes="ccc"
         id="path2575"
         d="M 283.40533,301.97619 L 283.40533,293.49409 C 283.40305,291.50547 284.1398,290.55889 285.87107,290.53522"
         style="fill:none;fill-opacity:1;stroke:#000000;stroke-width:0.5;stroke-linecap:butt;stroke-linejoin:round;stroke-miterlimit:4;stroke-dasharray:none;stroke-opacity:1" />
      <path
         style="fill:none;fill-opacity:1;stroke:#000000;stroke-width:0.5;stroke-linecap:butt;stroke-linejoin:round;stroke-miterlimit:4;stroke-dasharray:none;stroke-opacity:1"
         d="M 314.13383,305.52685 L 314.13383,293.1982 C 314.13155,291.20958 314.8683,290.263 316.59957,290.23933"
         id="path2577"
         sodipodi:nodetypes="ccc" />
      <path
         sodipodi:nodetypes="ccc"
         id="path2579"
         d="M 319.89812,305.13233 L 319.89812,292.80368 C 319.89584,290.81506 320.63259,289.86848 322.36386,289.84481"
         style="fill:none;fill-opacity:1;stroke:#000000;stroke-width:0.5;stroke-linecap:butt;stroke-linejoin:round;stroke-miterlimit:4;stroke-dasharray:none;stroke-opacity:1" />
      <path
         style="fill:none;fill-opacity:1;stroke:#000000;stroke-width:0.5;stroke-linecap:butt;stroke-linejoin:round;stroke-miterlimit:4;stroke-dasharray:none;stroke-opacity:1"
         d="M 328.08434,289.84482 C 326.35307,289.86849 325.61632,290.81507 325.6186,292.80369 L 325.67344,304.89128"
         id="path2581"
         sodipodi:nodetypes="ccc" />
      <path
         sodipodi:nodetypes="cc"
         id="path2583"
         d="M 333.68982,289.94345 C 331.95855,289.96712 331.2218,290.9137 331.22408,292.90232 L 331.18029,301.48306"
         style="fill:none;fill-opacity:1;stroke:#000000;stroke-width:0.5;stroke-linecap:butt;stroke-linejoin:round;stroke-miterlimit:4;stroke-dasharray:none;stroke-opacity:1" />
      <path
         style="fill:none;fill-opacity:1;stroke:#000000;stroke-width:0.5;stroke-linecap:butt;stroke-linejoin:round;stroke-miterlimit:4;stroke-dasharray:none;stroke-opacity:1"
         d="M 340.08434,289.84482 C 338.35307,289.86849 337.61632,290.81507 337.6186,292.80369 L 337.57481,301.38443"
         id="path2585"
         sodipodi:nodetypes="cc" />
      <path
         id="path2587"
         d="M 201.81665,390.63734 L 201.02506,332.50327"
         style="fill:none;fill-opacity:1;stroke:#000000;stroke-width:0.5;stroke-linecap:butt;stroke-linejoin:round;stroke-miterlimit:4;stroke-dasharray:none;stroke-opacity:1" />
      <path
         id="path2589"
         d="M 228.6354,394.97852 L 227.83333,332.55124"
         style="fill:none;fill-opacity:1;stroke:#000000;stroke-width:0.5;stroke-linecap:butt;stroke-linejoin:round;stroke-miterlimit:4;stroke-dasharray:none;stroke-opacity:1" />
      <path
         id="path2591"
         d="M 400.89371,377.66049 L 400.46724,335.98559 L 402.61777,335.77607"
         style="fill:none;fill-opacity:1;stroke:#000000;stroke-width:0.5;stroke-linecap:butt;stroke-linejoin:round;stroke-miterlimit:4;stroke-dasharray:none;stroke-opacity:1" />
      <path
         sodipodi:nodetypes="ccc"
         id="path2593"
         d="M 374.00255,381.90943 L 373.40009,338.20162 L 377.11223,345.69014"
         style="fill:none;fill-opacity:1;stroke:#000000;stroke-width:0.5;stroke-linecap:butt;stroke-linejoin:round;stroke-miterlimit:4;stroke-dasharray:none;stroke-opacity:1" />
      <path
         id="path2595"
         d="M 342.58006,387.29492 L 341.90089,340.41764 L 344.75006,340.73422 L 344.75006,335.98559"
         style="fill:none;fill-opacity:1;stroke:#000000;stroke-width:0.5;stroke-linecap:butt;stroke-linejoin:round;stroke-miterlimit:4;stroke-dasharray:none;stroke-opacity:1" />
      <path
         id="path2597"
         d="M 228.72536,348.4903 L 263.86518,345.48284"
         style="fill:none;fill-opacity:1;stroke:#000000;stroke-width:0.5;stroke-linecap:butt;stroke-linejoin:round;stroke-miterlimit:4;stroke-dasharray:none;stroke-opacity:1" />
      <path
         sodipodi:nodetypes="cc"
         id="path2599"
         d="M 268.20868,344.98917 L 279.27547,344.17894"
         style="fill:none;fill-opacity:1;stroke:#000000;stroke-width:0.5;stroke-linecap:butt;stroke-linejoin:round;stroke-miterlimit:4;stroke-dasharray:none;stroke-opacity:1" />
      <path
         id="path2601"
         d="M 284.12597,343.74168 L 312.776,341.20908"
         style="fill:none;fill-opacity:1;stroke:#000000;stroke-width:0.5;stroke-linecap:butt;stroke-linejoin:round;stroke-miterlimit:4;stroke-dasharray:none;stroke-opacity:1" />
      <path
         id="path2603"
         d="M 327.97159,384.10498 L 327.97159,351.18119"
         style="fill:none;fill-opacity:1;stroke:#000000;stroke-width:0.5;stroke-linecap:butt;stroke-linejoin:round;stroke-miterlimit:4;stroke-dasharray:none;stroke-opacity:1" />
      <path
         id="path2605"
         d="M 343.38936,300.94098 L 343.83234,335.49982"
         style="fill:none;fill-opacity:1;stroke:#000000;stroke-width:0.5;stroke-linecap:butt;stroke-linejoin:round;stroke-miterlimit:4;stroke-dasharray:none;stroke-opacity:1" />
      <path
         id="path2607"
         d="M 253.27965,379.89323 L 258.18243,379.22137 L 257.90347,363.45983"
         style="fill:none;fill-opacity:1;stroke:#000000;stroke-width:0.5;stroke-linecap:butt;stroke-linejoin:round;stroke-miterlimit:4;stroke-dasharray:none;stroke-opacity:1" />
      <path
         sodipodi:nodetypes="ccc"
         style="fill:none;fill-opacity:1;stroke:#000000;stroke-width:0.48020002;stroke-linecap:butt;stroke-linejoin:round;stroke-miterlimit:4;stroke-dasharray:none;stroke-opacity:1"
         d="M 270.29728,377.84351 L 275.0059,377.19825 L 274.87747,361.64242"
         id="path2609" />
      <path
         sodipodi:nodetypes="ccc"
         id="path2611"
         d="M 286.2452,375.70496 L 290.76736,375.08526 L 290.64954,359.84991"
         style="fill:none;fill-opacity:1;stroke:#000000;stroke-width:0.46118408;stroke-linecap:butt;stroke-linejoin:round;stroke-miterlimit:4;stroke-dasharray:none;stroke-opacity:1" />
      <path
         sodipodi:nodetypes="ccc"
         style="fill:none;fill-opacity:1;stroke:#000000;stroke-width:0.44292119;stroke-linecap:butt;stroke-linejoin:round;stroke-miterlimit:4;stroke-dasharray:none;stroke-opacity:1"
         d="M 301.75712,373.77673 L 306.1002,373.18157 L 305.85309,358.24295"
         id="path2613" />
      <path
         sodipodi:nodetypes="ccc"
         id="path2615"
         d="M 316.04951,372.43849 L 320.22061,371.86689 L 319.98328,357.34169"
         style="fill:none;fill-opacity:1;stroke:#000000;stroke-width:0.42538151;stroke-linecap:butt;stroke-linejoin:round;stroke-miterlimit:4;stroke-dasharray:none;stroke-opacity:1" />
      <path
         id="path2617"
         d="M 239.49118,343.85452 L 241.64141,343.79496 L 241.54278,338.46898"
         style="fill:none;fill-opacity:1;stroke:#000000;stroke-width:0.5;stroke-linecap:butt;stroke-linejoin:round;stroke-miterlimit:4;stroke-dasharray:none;stroke-opacity:1" />
      <path
         style="fill:none;fill-opacity:1;stroke:#000000;stroke-width:0.48020002;stroke-linecap:butt;stroke-linejoin:round;stroke-miterlimit:4;stroke-dasharray:none;stroke-opacity:1"
         d="M 256.34765,342.92511 L 258.41274,342.86792 L 258.31801,337.75285"
         id="path2619" />
      <path
         id="path2621"
         d="M 271.97828,341.786 L 274.04337,341.72881 L 273.94864,336.61374"
         style="fill:none;fill-opacity:1;stroke:#000000;stroke-width:0.48020002;stroke-linecap:butt;stroke-linejoin:round;stroke-miterlimit:4;stroke-dasharray:none;stroke-opacity:1" />
      <path
         style="fill:none;fill-opacity:1;stroke:#000000;stroke-width:0.47059602;stroke-linecap:butt;stroke-linejoin:round;stroke-miterlimit:4;stroke-dasharray:none;stroke-opacity:1"
         d="M 287.50185,340.75532 L 289.52564,340.69927 L 289.4328,335.6865"
         id="path2623" />
      <path
         id="path2625"
         d="M 301.43977,339.46118 L 303.42308,339.40625 L 303.3321,334.49374"
         style="fill:none;fill-opacity:1;stroke:#000000;stroke-width:0.46118408;stroke-linecap:butt;stroke-linejoin:round;stroke-miterlimit:4;stroke-dasharray:none;stroke-opacity:1" />
      <path
         sodipodi:nodetypes="cccc"
         id="path2627"
         d="M 263.93159,330.38139 L 263.93492,345.55258 L 265.57502,346.58243 L 267.76617,346.23675"
         style="fill:none;fill-opacity:1;stroke:#000000;stroke-width:0.5;stroke-linecap:butt;stroke-linejoin:round;stroke-miterlimit:4;stroke-dasharray:none;stroke-opacity:1" />
      <path
         style="fill:none;fill-opacity:1;stroke:#000000;stroke-width:0.5;stroke-linecap:butt;stroke-linejoin:round;stroke-miterlimit:4;stroke-dasharray:none;stroke-opacity:1"
         d="M 279.35116,329.0563 L 279.35449,344.22749 L 280.99459,345.25734 L 283.18574,344.91166"
         id="path2629"
         sodipodi:nodetypes="cccc" />
      <path
         id="path2631"
         d="M 243.41673,397.0547 L 242.6277,359.1811"
         style="fill:none;fill-opacity:1;stroke:#000000;stroke-width:0.5;stroke-linecap:butt;stroke-linejoin:round;stroke-miterlimit:4;stroke-dasharray:none;stroke-opacity:1" />
      <path
         id="path2633"
         d="M 328.2378,350.89626 L 312.85165,341.03334"
         style="fill:none;fill-opacity:1;stroke:#000000;stroke-width:0.5;stroke-linecap:butt;stroke-linejoin:round;stroke-miterlimit:4;stroke-dasharray:none;stroke-opacity:1" />
      <path
         id="path2635"
         d="M 357.63791,364.35266 L 365.61824,363.2249 L 365.61824,346.26069"
         style="fill:none;fill-opacity:1;stroke:#000000;stroke-width:0.5;stroke-linecap:butt;stroke-linejoin:round;stroke-miterlimit:4;stroke-dasharray:none;stroke-opacity:1" />
      <path
         id="path2637"
         d="M 384.524,361.34877 L 391.45908,360.06877 L 391.36045,343.89359"
         style="fill:none;fill-opacity:1;stroke:#000000;stroke-width:0.5;stroke-linecap:butt;stroke-linejoin:round;stroke-miterlimit:4;stroke-dasharray:none;stroke-opacity:1" />
      <path
         id="path2639"
         d="M 300.02724,306.82986 L 312.30171,306.82986 L 325.41308,306.5509"
         style="fill:none;fill-opacity:1;stroke:#000000;stroke-width:0.5;stroke-linecap:butt;stroke-linejoin:round;stroke-miterlimit:4;stroke-dasharray:none;stroke-opacity:1" />
      <path
         id="path2641"
         d="M 308.57651,251.13041 L 314.65997,251.13041"
         style="fill:none;fill-opacity:1;stroke:#000000;stroke-width:0.5;stroke-linecap:butt;stroke-linejoin:round;stroke-miterlimit:4;stroke-dasharray:none;stroke-opacity:1" />
      <path
         id="path2643"
         d="M 311.54706,247.0379 L 311.54706,236.48645"
         style="fill:none;fill-opacity:1;stroke:#000000;stroke-width:1.5;stroke-linecap:butt;stroke-linejoin:round;stroke-miterlimit:4;stroke-dasharray:none;stroke-opacity:1" />
      <path
         id="path2645"
         d="M 197.366,391.17232 L 196.74521,349.4671 L 198.77351,348.04729 L 198.77351,334.45767 L 201.02505,332.50327"
         style="fill:none;fill-opacity:1;stroke:#000000;stroke-width:0.5;stroke-linecap:butt;stroke-linejoin:round;stroke-miterlimit:4;stroke-dasharray:none;stroke-opacity:1" />
      <path
         id="path2647"
         d="M 224.39569,395.34397 L 223.92444,352.30672 L 225.95274,349.87276 L 225.54708,336.28315 L 227.57538,334.25484"
         style="fill:none;fill-opacity:1;stroke:#000000;stroke-width:0.5;stroke-linecap:butt;stroke-linejoin:round;stroke-miterlimit:4;stroke-dasharray:none;stroke-opacity:1" />
      <path
         sodipodi:nodetypes="cc"
         style="fill:none;fill-opacity:1;stroke:#000000;stroke-width:1;stroke-linecap:butt;stroke-linejoin:round;stroke-miterlimit:4;stroke-dasharray:none;stroke-opacity:1"
         d="M 201.38354,348.13042 L 223.71447,349.42241"
         id="path3022" />
      <path
         id="path3024"
         d="M 201.41288,365.74114 L 205.60717,366.13106"
         style="fill:none;fill-opacity:1;stroke:#000000;stroke-width:0.5;stroke-linecap:butt;stroke-linejoin:round;stroke-miterlimit:4;stroke-dasharray:none;stroke-opacity:1"
         sodipodi:nodetypes="cc" />
      <path
         sodipodi:nodetypes="cc"
         style="fill:none;fill-opacity:1;stroke:#000000;stroke-width:1;stroke-linecap:butt;stroke-linejoin:round;stroke-miterlimit:4;stroke-dasharray:none;stroke-opacity:1"
         d="M 201.41288,367.11008 L 205.60717,367.5"
         id="path3026" />
      <path
         id="path3028"
         d="M 205.60717,367.5 L 205.94649,391.27014"
         style="opacity:1;fill:none;fill-opacity:1;stroke:#000000;stroke-width:0.5;stroke-linecap:butt;stroke-linejoin:round;stroke-miterlimit:4;stroke-dasharray:none;stroke-opacity:1" />
    </g>
  </g>
  <g
     inkscape:groupmode="layer"
     id="layer2"
     inkscape:label="Reflet final"
     sodipodi:insensitive="true">
    <path
       sodipodi:nodetypes="cccccc"
       d="M 300.00001,658.5 C 300.00001,658.5 598.50001,546.17969 598.50001,260.72817 C 598.50001,-24.723334 598.50001,2.1764865 598.50001,2.1764865 L 1.5,2.1764865 L 1.5,260.72817 C 1.5,546.17969 300.00001,658.5 300.00001,658.5 z "
       style="opacity:1;fill:url(#radialGradient3163);fill-opacity:1;fill-rule:evenodd;stroke:none;stroke-width:1px;stroke-linecap:butt;stroke-linejoin:miter;stroke-opacity:1"
       id="path2875"
       inkscape:export-xdpi="144"
       inkscape:export-ydpi="144" />
  </g>
  <g
     inkscape:groupmode="layer"
     id="layer1"
     inkscape:label="Contour final"
     sodipodi:insensitive="true">
    <path
       sodipodi:nodetypes="cccccc"
       d="M 299.99999,658.50028 C 299.99999,658.50028 1.5,546.17992 1.5,260.72828 C 1.5,-24.723336 1.5,2.1764957 1.5,2.1764957 L 598.49999,2.1764957 L 598.49999,260.72828 C 598.49999,546.17992 299.99999,658.50028 299.99999,658.50028 z "
       style="opacity:1;fill:none;fill-opacity:1;fill-rule:evenodd;stroke:#000000;stroke-width:3.00000048;stroke-linecap:butt;stroke-linejoin:miter;stroke-miterlimit:4;stroke-dasharray:none;stroke-opacity:1"
       id="path1411"
       inkscape:export-xdpi="144"
       inkscape:export-ydpi="144" />
  </g>
</svg>
