<?xml version="1.0" encoding="UTF-8" standalone="no"?>
<svg
   xmlns:dc="http://purl.org/dc/elements/1.1/"
   xmlns:cc="http://creativecommons.org/ns#"
   xmlns:rdf="http://www.w3.org/1999/02/22-rdf-syntax-ns#"
   xmlns:svg="http://www.w3.org/2000/svg"
   xmlns="http://www.w3.org/2000/svg"
   xmlns:xlink="http://www.w3.org/1999/xlink"
   xmlns:sodipodi="http://sodipodi.sourceforge.net/DTD/sodipodi-0.dtd"
   xmlns:inkscape="http://www.inkscape.org/namespaces/inkscape"
   width="600"
   height="660"
   viewBox="0 0 600 660"
   id="svg2"
   sodipodi:version="0.32"
   inkscape:version="0.46"
   sodipodi:docname="Blason_ville_fr_Bavent-A_(14).svg"
   inkscape:output_extension="org.inkscape.output.svg.inkscape"
   version="1.0">
  <metadata
     id="metadata28">
    <rdf:RDF>
      <cc:Work
         rdf:about="">
        <dc:format>image/svg+xml</dc:format>
        <dc:type
           rdf:resource="http://purl.org/dc/dcmitype/StillImage" />
      </cc:Work>
    </rdf:RDF>
  </metadata>
  <sodipodi:namedview
     inkscape:window-height="977"
     inkscape:window-width="1280"
     inkscape:pageshadow="2"
     inkscape:pageopacity="0.0"
     guidetolerance="10.0"
     gridtolerance="10.0"
     objecttolerance="10.0"
     borderopacity="1.0"
     bordercolor="#666666"
     pagecolor="#ffffff"
     id="base"
     showgrid="false"
     inkscape:zoom="1.1863636"
     inkscape:cx="300"
     inkscape:cy="330"
     inkscape:window-x="-4"
     inkscape:window-y="-4"
     inkscape:current-layer="layer4"
     inkscape:object-nodes="true"
     inkscape:object-paths="false" />
  <defs
     id="defs4">
    <radialGradient
       id="Gradient1"
       gradientUnits="userSpaceOnUse"
       cx="-80"
       cy="-80"
       r="405">
      <stop
         style="stop-color:#fff;stop-opacity:0.31"
         offset="0"
         id="stop7" />
      <stop
         style="stop-color:#fff;stop-opacity:0.25"
         offset="0.19"
         id="stop9" />
      <stop
         style="stop-color:#6b6b6b;stop-opacity:0.125"
         offset="0.6"
         id="stop11" />
      <stop
         style="stop-color:#000;stop-opacity:0.125"
         offset="1"
         id="stop13" />
    </radialGradient>
    <clipPath
       id="shield_cut">
      <path
         id="shield"
         d="M -298.5,-298.5 L 298.5,-298.5 L 298.5,-40 C 298.5,246.31 0,358.5 0,358.5 C 0,358.5 -298.5,246.31 -298.5,-40 L -298.5,-298.5 z" />
    </clipPath>
    <g
       id="s-4">
      <g
         id="c-6">
        <path
           transform="matrix(0.951057,0.309017,-0.309017,0.951057,0,-1)"
           d="M 0,0 L 0,1 L 0.5,1 L 0,0 z"
           id="t-0" />
        <use
           height="540"
           width="810"
           y="0"
           x="0"
           id="use2144-7"
           transform="scale(-1,1)"
           xlink:href="#t-0" />
      </g>
      <g
         id="a-1">
        <use
           height="540"
           width="810"
           y="0"
           x="0"
           id="use2147-7"
           transform="matrix(0.309017,0.951057,-0.951057,0.309017,0,0)"
           xlink:href="#c-6" />
        <use
           height="540"
           width="810"
           y="0"
           x="0"
           id="use2149-7"
           transform="matrix(-0.809017,0.587785,-0.587785,-0.809017,0,0)"
           xlink:href="#c-6" />
      </g>
      <use
         height="540"
         width="810"
         y="0"
         x="0"
         id="use2151-7"
         transform="scale(-1,1)"
         xlink:href="#a-1" />
    </g>
    <g
       id="f">
      <rect
         id="rect1964"
         style="fill:#28166f"
         y="-30"
         x="-50"
         height="60"
         width="100" />
      <g
         id="g1966"
         style="fill:#ffffff"
         transform="translate(0,-20)">
        <path
           id="path1968"
           d="M -1.2116,27.8178 C -1.2116,22.1752 -2.0914,20.4715 -4.5417,13.9804 C -5.709,10.8879 -5.0241,7.1025 -2.8585,3.6009 C -2.0824,2.346 -1.1136,1.2135 0,0 C 1.1136,1.2135 2.0824,2.346 2.8585,3.6009 C 5.0241,7.1025 5.709,10.8879 4.5417,13.9804 C 2.0914,20.4715 1.2116,22.1752 1.2116,27.8178 L -1.2116,27.8178 z" />
        <path
           id="rwi"
           d="M 2.9221,27.6725 C 2.9221,21.7209 5.2387,17.8293 8.5007,16.6604 C 9.9492,16.1414 11.8076,16.3869 13.5193,18.107 C 15.6379,20.236 16.2551,26.1004 10.0355,27.2283 C 10.6938,26.2724 10.6546,24.1467 9.3215,23.4409 C 8.3311,22.9165 7.209,23.1877 6.6462,23.5643 C 5.8225,24.1156 4.9171,25.6702 4.9672,27.6725 L 2.9221,27.6725 z" />
        <path
           id="path1971"
           d="M 1.7773,30.1835 C 1.7899,32.1913 2.7952,33.5181 4.5165,34.257 C 4.2948,34.9549 3.2566,36.3776 1.8314,36.2812 C 1.5499,37.787 1.2822,38.6324 0,40 C -1.2822,38.6324 -1.5499,37.787 -1.8314,36.2812 C -3.2566,36.3776 -4.2948,34.9549 -4.5165,34.257 C -2.7952,33.5181 -1.7899,32.1913 -1.7773,30.1835 L 1.7773,30.1835 z" />
        <use
           xlink:href="#rwi"
           height="400"
           width="800"
           y="0"
           x="0"
           id="use1973"
           transform="scale(-1,1)" />
        <rect
           id="rect1975"
           y="27.33077"
           x="-7.9229999"
           height="3.2179999"
           width="15.846" />
      </g>
    </g>
    <g
       id="s">
      <g
         id="c">
        <path
           transform="matrix(0.951057,0.309017,-0.309017,0.951057,0,-1)"
           d="M 0,0 L 0,1 L 0.5,1 L 0,0 z"
           id="t" />
        <use
           height="540"
           width="810"
           y="0"
           x="0"
           id="use2144"
           transform="scale(-1,1)"
           xlink:href="#t" />
      </g>
      <g
         id="a">
        <use
           height="540"
           width="810"
           y="0"
           x="0"
           id="use2147"
           transform="matrix(0.309017,0.951057,-0.951057,0.309017,0,0)"
           xlink:href="#c" />
        <use
           height="540"
           width="810"
           y="0"
           x="0"
           id="use2149"
           transform="matrix(-0.809017,0.587785,-0.587785,-0.809017,0,0)"
           xlink:href="#c" />
      </g>
      <use
         height="540"
         width="810"
         y="0"
         x="0"
         id="use2151"
         transform="scale(-1,1)"
         xlink:href="#a" />
    </g>
  </defs>
  <g
     id="layer4"
     inkscape:label="Fond écu"
     inkscape:groupmode="layer"
     transform="translate(300,300)">
    <use
       xlink:href="#shield"
       id="use18"
       style="fill:#ffffff"
       x="0"
       y="0"
       width="600"
       height="660" />
    <rect
       style="opacity:1;fill:#fcef3c;fill-opacity:1;stroke:#000000;stroke-width:3;stroke-linecap:butt;stroke-linejoin:round;stroke-miterlimit:4;stroke-dasharray:none;stroke-opacity:1"
       id="rect4167"
       width="597"
       height="168"
       x="-298.5"
       y="-298.5"
       ry="0" />
    <path
       style="fill:#e20909;stroke:#000000;stroke-width:3;stroke-linecap:butt;stroke-linejoin:miter;stroke-opacity:1;display:inline"
       d="M 1.5 169.5 L 1.5 210.40625 L 474.6875 540.0625 C 474.71837 540.03899 474.7504 540.0235 474.78125 540 L 476.71875 541.34375 C 499.2052 519.07344 520.81251 493.34105 539.4375 463.96875 L 116.59375 169.5 L 1.5 169.5 z "
       transform="translate(-300,-300)"
       id="path3480" />
    <rect
       style="opacity:1;fill:#e20909;fill-opacity:1;stroke:#000000;stroke-width:3;stroke-linecap:butt;stroke-linejoin:round;stroke-miterlimit:4;stroke-dasharray:none;stroke-opacity:1"
       id="rect5435"
       width="192"
       height="168"
       x="106.5"
       y="-298.5" />
  </g>
  <g
     id="layer3"
     inkscape:label="Meubles"
     inkscape:groupmode="layer"
     transform="translate(300,300)">
    <g
       transform="matrix(0.44,0,0,0.4,-176.36661,-700.93274)"
       inkscape:label="Meubles"
       id="g5910">
      <g
         id="g4358"
         transform="translate(5.6489412,197.03664)">
        <path
           style="fill:#fcef3c;fill-opacity:1;stroke:#000000;stroke-width:2.33789063;stroke-miterlimit:4;stroke-dasharray:none;stroke-opacity:1;display:inline"
           d="M 950.05218,887.2267 C 966.11887,886.6357 985.07971,907.33 1004.586,902.9029 C 1024.2117,898.4488 1017.3356,884.3004 1000.4058,879.9116 C 970.48994,872.1565 912.20702,882.6956 889.81973,864.9008 C 886.09835,861.9429 871.7173,842.441 906.16068,839.6294 C 907.68067,832.2824 914.06058,831.757 925.92165,833.5491 C 935.77855,835.0384 945.04572,841.7828 953.75829,830.5089 C 954.46342,834.4945 957.08116,844.8203 936.75231,840.1994 C 927.35217,838.0444 919.36129,838.2382 913.00103,841.1496 C 921.14841,838.242 928.11256,837.184 938.84237,842.7405 C 943.32025,845.0594 950.66923,849.3496 962.89479,838.2889 C 969.6723,832.157 988.03427,836.537 981.35652,846.4698 C 974.5806,834.6925 963.76122,847.2892 958.2234,853.3102 C 942.81461,870.0636 929.72362,852.1767 917.94125,848.5599 C 936.21326,853.3793 917.13477,866.3056 910.15088,858.4404 C 928.08144,856.6749 909.8614,844.7735 897.65838,850.328 C 890.46352,853.6029 894.88074,858.2569 898.30905,860.5208 C 918.74035,874.013 982.51829,857.0614 1017.5067,876.1114 C 1036.1587,886.2668 1029.5137,903.2165 1019.9768,908.9832 C 1005.5544,917.7039 998.35612,913.7706 978.64861,915.7284 L 950.05218,887.2267 z"
           id="path4175"
           sodipodi:nodetypes="czsscscccsscsccsssscc" />
        <g
           id="g4177"
           transform="matrix(0.9975001,0,0,0.9975,1.5206328,-196.76046)">
          <path
             sodipodi:nodetypes="csccccccccccccsssssccsscc"
             transform="translate(668.92093,819.094)"
             id="path4179"
             d="M 285.64366,328.94814 C 262.73745,325.42728 244.4374,332.18248 244.22264,346.16207 C 244.13339,351.97153 249.00364,351.58501 243.53296,357.07252 C 232.28981,366.13233 240.22373,370.54239 243.53296,368.9071 C 243.2056,374.32637 231.42522,374.29719 233.46393,366.45187 C 224.59535,373.53522 231.01161,376.42762 234.65703,375.63129 C 229.1414,382.15047 221.91492,377.26166 223.7811,367.67948 C 222.88251,372.74468 226.08747,381.43899 217.32587,380.20374 C 218.68407,377.95993 218.57235,377.34864 218.67071,374.78987 C 215.78471,378.48345 211.83132,378.70805 207.64304,378.16922 C 211.7677,384.59119 194.78904,393.08794 193.11878,382.20374 C 187.45953,382.40391 181.47003,382.17323 181.28421,385.96928 C 172.8768,391.25542 166.04582,390.01088 165.14615,385.85206 C 162.75753,388.85803 153.32793,389.10544 151.85586,383.00536 C 152.84053,380.77887 153.63793,379.68073 155.58054,374.67264 C 156.77822,371.58501 161.81845,373.36077 164.87718,371.714 C 168.94808,369.52229 171.63226,365.89929 178.05659,366.33465 C 183.73843,366.71969 189.15516,364.90806 193.7626,359.2182 C 198.6049,353.23831 200.7274,355.74504 205.4913,350.46555 C 211.86097,343.40651 203.52551,336.06815 207.52581,328.7964 C 203.01705,337.3461 184.52546,340.74986 185.25762,328.85054 C 190.54962,334.85434 198.02062,332.17447 204.18323,326.29826 C 209.63686,321.09809 213.87773,317.65614 217.86381,314.69285 C 227.7042,307.37741 247.81348,300.38438 251.48477,294.78925 L 285.64366,328.94814 z"
             style="opacity:1;fill:#fcef3c;fill-opacity:1;stroke:#000000;stroke-width:2.34375;stroke-linecap:butt;stroke-linejoin:miter;stroke-miterlimit:4;stroke-dasharray:none;stroke-opacity:1" />
          <path
             sodipodi:nodetypes="csc"
             transform="translate(668.92093,819.094)"
             id="path4181"
             d="M 234.61933,353.56378 C 236.90296,352.53542 239.77798,351.56402 237.33169,347.52261 C 235.83452,345.0492 236.70735,342.91982 237.82485,340.61842"
             style="opacity:1;fill:none;fill-opacity:1;stroke:#000000;stroke-width:1.5;stroke-linecap:butt;stroke-linejoin:miter;stroke-miterlimit:4;stroke-dasharray:none;stroke-opacity:1" />
          <path
             sodipodi:nodetypes="cc"
             transform="translate(668.92093,819.094)"
             id="path4183"
             d="M 214.89306,329.89226 C 209.31459,337.27713 213.44234,340.77952 217.48213,344.31709"
             style="opacity:1;fill:none;fill-opacity:1;stroke:#000000;stroke-width:1.5;stroke-linecap:butt;stroke-linejoin:miter;stroke-miterlimit:4;stroke-dasharray:none;stroke-opacity:1" />
          <path
             sodipodi:nodetypes="csc"
             id="path4185"
             d="M 834.06708,1204.9461 C 832.93859,1202.125 832.99105,1199.3769 837.58055,1196.6992 C 841.78274,1194.2474 843.56184,1195.679 845.59434,1191.0279"
             style="fill:none;fill-opacity:1;stroke:#000000;stroke-width:1.5;stroke-linecap:butt;stroke-linejoin:miter;stroke-miterlimit:4;stroke-dasharray:none;stroke-opacity:1" />
          <path
             sodipodi:nodetypes="cc"
             id="path4187"
             d="M 850.20514,1205.0633 C 850.20514,1205.0633 853.13521,1200.6091 849.04644,1198.0554"
             style="fill:none;fill-opacity:1;stroke:#000000;stroke-width:1.5;stroke-linecap:butt;stroke-linejoin:miter;stroke-miterlimit:4;stroke-dasharray:none;stroke-opacity:1" />
          <path
             sodipodi:nodetypes="cc"
             id="path4189"
             d="M 827.35153,1199.0236 C 827.0648,1197.2125 828.36404,1195.7539 830.54487,1194.4911"
             style="fill:none;fill-opacity:1;stroke:#000000;stroke-width:1.5;stroke-linecap:butt;stroke-linejoin:miter;stroke-miterlimit:4;stroke-dasharray:none;stroke-opacity:1" />
        </g>
        <g
           id="g4191"
           transform="matrix(0.9975001,0,0,0.9975,1.5206328,-196.76046)"
           style="fill:#fcef3c">
          <path
             sodipodi:nodetypes="cccsc"
             id="path4193"
             d="M 824.38029,1194.0778 C 824.15001,1197.642 822.26978,1199.1437 821.05813,1201.4811 C 819.5177,1201.9835 819.64649,1204.489 819.40049,1206.5448 C 819.40049,1206.5448 812.74154,1202.1213 816.6417,1196.7636 C 818.03575,1194.8486 821.49919,1193.4604 824.38029,1194.0778 z"
             style="fill:#fcef3c;fill-opacity:1;stroke:#000000;stroke-width:1.5;stroke-linecap:butt;stroke-linejoin:miter;stroke-miterlimit:4;stroke-dasharray:none;stroke-opacity:1" />
          <path
             sodipodi:nodetypes="ccccc"
             id="path4195"
             d="M 827.35154,1199.0236 C 821.45076,1205.3051 824.60208,1207.4795 826.52746,1210.0457 C 830.83766,1207.9631 828.87207,1205.1689 831.57498,1204.5862 C 831.57493,1202.835 831.86534,1201.229 831.36896,1199.2296 C 830.02982,1200.163 828.69068,1200.0124 827.35154,1199.0236 z"
             style="fill:#fcef3c;fill-opacity:1;stroke:#000000;stroke-width:1.5;stroke-linecap:butt;stroke-linejoin:miter;stroke-miterlimit:4;stroke-dasharray:none;stroke-opacity:1" />
          <path
             sodipodi:nodetypes="cccc"
             id="path4197"
             d="M 842.28811,1197.8905 C 841.84028,1202.1168 842.85175,1203.4246 843.73026,1204.9982 C 839.52058,1205.6186 842.52109,1208.2993 837.03455,1210.2518 C 835.9033,1209.1045 831.65888,1201.673 842.28811,1197.8905 z"
             style="fill:#fcef3c;fill-opacity:1;stroke:#000000;stroke-width:1.5;stroke-linecap:butt;stroke-linejoin:miter;stroke-miterlimit:4;stroke-dasharray:none;stroke-opacity:1" />
          <path
             sodipodi:nodetypes="cscsc"
             id="path4199"
             d="M 870.10102,1197.8905 C 871.92461,1201.119 871.36264,1201.706 869.90328,1204.2678 C 868.76672,1206.2629 870.17509,1209.1898 872.05823,1209.4277 C 874.48342,1207.2162 878.32804,1204.8818 876.49416,1201.7792 C 875.40786,1199.9414 875.24972,1198.3245 870.10102,1197.8905 z"
             style="fill:#fcef3c;fill-opacity:1;stroke:#000000;stroke-width:1.5;stroke-linecap:butt;stroke-linejoin:miter;stroke-miterlimit:4;stroke-dasharray:none;stroke-opacity:1" />
        </g>
        <g
           id="g4201"
           transform="matrix(0.9975001,0,0,0.9975,1.5206328,-196.76046)">
          <path
             sodipodi:nodetypes="cccscscccccccscccsccscc"
             transform="translate(668.92093,819.094)"
             id="path4203"
             d="M 147.09942,333.67775 L 138.85856,304.01064 L 84.056812,313.89968 C 76.528766,327.45605 70.594244,332.40679 65.72089,334.29582 C 61.071067,336.09821 59.235438,338.84372 59.540242,342.53668 C 50.828124,345.63647 45.951763,352.57102 39.96819,358.40034 C 35.630059,362.62664 32.51964,363.08142 28.843024,364.99303 C 21.064406,362.62715 20.987127,367.52682 17.099793,368.90744 C 15.286276,369.28581 13.229099,369.96875 10.095058,371.99777 C 7.3969259,372.15497 5.4915697,371.51939 0.6180648,373.85196 C 3.4051542,377.42661 -6.0506834,389.5762 8.8960191,384.10909 C 11.811757,386.41603 14.928894,389.69608 19.778073,383.94702 C 24.456052,393.021 33.6304,385.97587 31.521305,382.91691 C 35.586761,383.12698 42.124913,377.56892 43.470557,384.35906 C 45.297707,393.57889 64.790244,377.83992 53.153573,374.47003 C 70.601862,373.21267 73.76704,364.75979 81.790575,358.60636 C 72.654976,366.85695 80.659278,372.18251 84.468856,369.58572 C 82.739113,365.64843 83.265111,360.68562 91.47359,358.19432 C 98.31802,356.11702 101.60776,354.36012 105.27704,351.80765 C 101.42392,358.19801 108.38835,363.80376 112.28177,359.69669 C 105.19843,355.52207 110.30682,350.56908 114.59196,348.68709 C 121.89774,345.47847 119.18484,349.77889 132.47189,342.94872 L 147.09942,333.67775 z"
             style="opacity:1;fill:#fcef3c;fill-opacity:1;stroke:#000000;stroke-width:2.34375;stroke-linecap:butt;stroke-linejoin:miter;stroke-miterlimit:4;stroke-dasharray:none;stroke-opacity:1" />
          <path
             sodipodi:nodetypes="cc"
             transform="translate(668.92093,819.094)"
             id="path4205"
             d="M 50.24367,368.80132 C 61.290045,366.18639 65.733623,360.54518 68.866323,354.30315"
             style="opacity:1;fill:none;fill-opacity:1;stroke:#000000;stroke-width:1.5;stroke-linecap:butt;stroke-linejoin:miter;stroke-miterlimit:4;stroke-dasharray:none;stroke-opacity:1" />
          <path
             sodipodi:nodetypes="csc"
             id="path4207"
             d="M 678.29475,1195.7693 C 679.15831,1194.8111 679.59656,1193.1097 682.79418,1192.8947 C 689.18704,1192.4649 692.1092,1190.7779 694.66769,1188.1453"
             style="fill:none;fill-opacity:1;stroke:#000000;stroke-width:1.5;stroke-linecap:butt;stroke-linejoin:miter;stroke-miterlimit:4;stroke-dasharray:none;stroke-opacity:1" />
          <path
             sodipodi:nodetypes="cc"
             id="path4209"
             d="M 688.66844,1198.769 C 689.7269,1191.6341 697.84916,1194.5063 702.54169,1192.5197"
             style="fill:none;fill-opacity:1;stroke:#000000;stroke-width:1.5;stroke-linecap:butt;stroke-linejoin:miter;stroke-miterlimit:4;stroke-dasharray:none;stroke-opacity:1" />
        </g>
        <g
           id="g4211"
           transform="matrix(0.9975001,0,0,0.9975,1.5206328,-196.76046)">
          <path
             sodipodi:nodetypes="cccsccsccccccccccccsscc"
             id="path4213"
             d="M 752.52577,1133.4559 C 743.22162,1128.9804 733.20205,1130.0946 727.95691,1116.5989 C 730.09971,1128.1795 714.28333,1128.4084 715.5841,1121.1388 C 725.93801,1123.2407 724.98664,1112.3984 720.00296,1110.766 C 715.70599,1109.3586 714.53583,1108.5779 714.70033,1103.8726 C 714.56694,1110.0699 714.2764,1113.6722 705.15559,1112.7103 C 707.16995,1110.2648 710.74302,1108.0028 708.51392,1103.6959 C 706.89262,1100.5632 706.62329,1097.7264 707.09989,1094.5046 C 700.00098,1089.9409 698.1643,1084.5241 697.7319,1076.4757 C 695.62938,1098.8949 676.90489,1068.5927 691.899,1070.8195 C 693.83777,1060.5715 688.91092,1054.9005 683.94506,1049.2555 C 661.3956,1049.257 680.18516,1026.1872 686.59637,1039.3572 C 687.8456,1041.3485 690.09579,1047.6415 693.8433,1049.7858 C 690.9411,1046.5918 689.67698,1043.6709 689.6012,1040.948 C 675.5119,1023.0859 709.85623,1026.7797 698.26216,1038.827 C 698.51236,1043.5122 699.33527,1044.7611 700.02971,1046.7809 L 701.09024,1043.4226 C 698.37398,1023.825 718.63029,1042.0418 711.51875,1045.8972 C 709.4866,1046.902 708.49704,1047.092 706.92313,1050.8463 C 711.29872,1055.4773 715.22093,1060.85 718.58892,1066.9309 C 722.81273,1074.557 731.88695,1075.0942 738.73893,1080.1875 C 754.64353,1092.0101 756.99141,1088.2285 764.54507,1090.2625 L 752.52577,1133.4559 z"
             style="opacity:1;fill:#fcef3c;fill-opacity:1;stroke:#000000;stroke-width:2.34375;stroke-linecap:butt;stroke-linejoin:miter;stroke-miterlimit:4;stroke-dasharray:none;stroke-opacity:1" />
          <path
             sodipodi:nodetypes="cc"
             transform="translate(668.92093,819.094)"
             id="path4215"
             d="M 43.51467,262.06836 C 43.548314,267.07156 43.867274,271.96064 47.533541,275.51079"
             style="opacity:1;fill:none;fill-opacity:1;stroke:#000000;stroke-width:1.5;stroke-linecap:butt;stroke-linejoin:miter;stroke-miterlimit:4;stroke-dasharray:none;stroke-opacity:1" />
          <path
             sodipodi:nodetypes="cc"
             transform="translate(668.92093,819.094)"
             id="path4217"
             d="M 41.990271,255.00069 C 40.413851,260.2206 39.88723,265.44052 41.990271,270.66043"
             style="opacity:1;fill:none;fill-opacity:1;stroke:#000000;stroke-width:1.5;stroke-linecap:butt;stroke-linejoin:miter;stroke-miterlimit:4;stroke-dasharray:none;stroke-opacity:1" />
          <path
             sodipodi:nodetypes="cc"
             transform="translate(668.92093,819.094)"
             id="path4219"
             d="M 32.42813,240.03386 C 35.359369,244.32229 34.710637,247.93947 31.735221,251.1204"
             style="opacity:1;fill:none;fill-opacity:1;stroke:#000000;stroke-width:1.5;stroke-linecap:butt;stroke-linejoin:miter;stroke-miterlimit:4;stroke-dasharray:none;stroke-opacity:1" />
          <path
             transform="translate(668.92093,819.094)"
             id="path4221"
             d="M 37.278491,249.18026 L 36.447001,255.13928"
             style="opacity:1;fill:none;fill-opacity:1;stroke:#000000;stroke-width:1.5;stroke-linecap:butt;stroke-linejoin:miter;stroke-miterlimit:4;stroke-dasharray:none;stroke-opacity:1" />
        </g>
        <g
           id="g4223"
           transform="matrix(0.9975001,0,0,0.9975,1.5206328,-196.76046)">
          <path
             sodipodi:nodetypes="cssccc"
             transform="translate(668.92093,819.094)"
             id="path4225"
             d="M 240.53721,311.1523 C 248.09895,311.91156 264.91876,313.60769 261.98953,320.52228 C 260.01644,325.17985 266.29564,326.13342 270.74306,326.44016 C 274.83883,326.72265 275.71267,325.27396 276.29108,324.34424 L 261.2498,308.22073 C 256.48331,308.34856 244.58661,306.79492 240.53721,311.1523 z"
             style="opacity:1;fill:#fcef3c;fill-opacity:1;stroke:#000000;stroke-width:1.5;stroke-linecap:butt;stroke-linejoin:miter;stroke-miterlimit:4;stroke-dasharray:none;stroke-opacity:1" />
          <path
             sodipodi:nodetypes="csssscsscccccccccccccccccscscssssssscc"
             transform="translate(668.92093,819.094)"
             id="path4227"
             d="M 172.85806,256.90126 C 189.13006,260.61227 205.34075,257.06631 218.06484,258.37071 C 224.49829,259.03023 234.52796,262.25959 249.22464,261.50646 C 265.16015,260.68984 273.46106,263.01288 283.39314,266.34866 C 299.46225,271.74561 306.03077,285.52674 315.53455,296.53023 C 325.34556,307.88942 334.1058,315.2412 353.19469,311.63494 C 356.45917,309.03095 359.05859,311.14264 360.83644,313.47181 C 364.71815,318.55724 367.75875,313.05992 369.8747,310.57198 C 374.89113,304.67364 381.51669,309.97373 379.714,313.89794 C 372.88867,309.57749 375.68144,320.31088 369.32037,322.21284 C 372.15084,321.15007 376.83518,313.42137 379.43684,317.50106 C 375.9678,318.4129 376.83571,323.37242 370.84477,326.09313 C 373.63662,326.56118 377.25399,319.16663 379.29826,325.60809 C 374.70777,324.58874 376.69602,334.69579 370.5676,330.66633 C 372.96078,335.26731 381.34875,335.87123 375.97229,344.94025 C 373.76324,340.73578 373.15457,342.839 370.77548,339.60486 C 372.90824,348.90483 370.74945,355.05766 367.38022,360.32283 C 384.38079,363.33341 370.98676,383.31672 363.98497,375.84398 C 363.39946,376.57095 362.46859,376.77989 361.14405,376.39831 C 362.85803,387.10181 349.90119,389.25093 344.65282,378.7542 C 342.86411,388.69413 330.67416,384.04632 330.93322,380.97151 C 329.78312,383.14553 321.65752,387.94202 319.7081,380.00143 C 319.36586,377.59024 320.39557,374.72174 321.09392,371.96369 C 323.17265,369.65682 325.25137,369.8948 327.3301,371.27078 C 329.1578,370.11533 329.70146,368.46601 336.06075,369.05348 C 346.8844,358.72911 341.6723,352.57308 339.456,348.75124 C 332.04644,335.97404 315.66774,344.03371 302.80113,339.67414 C 306.60065,350.39159 296.71614,352.43778 290.32877,352.56225 C 287.58001,352.61581 284.34317,352.48689 284.09259,358.52126 C 281.50179,357.55315 277.6575,350.26527 287.00281,348.82054 C 297.70705,347.16573 299.40973,340.3483 290.1209,335.5167 C 268.73021,324.3903 271.16915,322.75817 267.04704,316.94674 C 258.36974,304.71331 238.44773,306.21297 216.74186,310.01765 C 211.11044,311.00474 206.97887,312.88556 203.43801,315.00659 C 197.42446,318.60881 192.60176,319.26427 187.50111,319.30263 C 182.60901,319.33943 180.37992,321.45191 177.24606,323.18292 C 168.65292,327.92939 163.71326,328.17875 159.23043,328.44902 L 172.85806,256.90126 z"
             style="opacity:1;fill:#fcef3c;fill-opacity:1;stroke:#000000;stroke-width:2.34375;stroke-linecap:butt;stroke-linejoin:miter;stroke-miterlimit:4;stroke-dasharray:none;stroke-opacity:1" />
          <path
             sodipodi:nodetypes="csc"
             transform="translate(668.92093,819.094)"
             id="path4229"
             d="M 347.19185,318.06709 C 351.81819,318.87705 359.51164,314.96441 361.06677,320.50446 C 361.71809,322.82475 360.38614,325.65132 361.739,326.79538"
             style="opacity:1;fill:none;fill-opacity:1;stroke:#000000;stroke-width:1.5;stroke-linecap:butt;stroke-linejoin:miter;stroke-miterlimit:4;stroke-dasharray:none;stroke-opacity:1" />
          <path
             sodipodi:nodetypes="cc"
             transform="translate(668.92093,819.094)"
             id="path4231"
             d="M 360.7576,341.6274 C 366.02721,343.61741 365.6493,346.97651 366.28815,350.08913"
             style="opacity:1;fill:none;fill-opacity:1;stroke:#000000;stroke-width:1.5;stroke-linecap:butt;stroke-linejoin:miter;stroke-miterlimit:4;stroke-dasharray:none;stroke-opacity:1" />
          <path
             sodipodi:nodetypes="cc"
             transform="translate(668.92093,819.094)"
             id="path4233"
             d="M 358.7113,334.99074 C 361.27475,336.3286 363.81621,337.70677 365.51387,340.6319"
             style="opacity:1;fill:none;fill-opacity:1;stroke:#000000;stroke-width:1.5;stroke-linecap:butt;stroke-linejoin:miter;stroke-miterlimit:4;stroke-dasharray:none;stroke-opacity:1" />
          <path
             sodipodi:nodetypes="cc"
             transform="translate(668.92093,819.094)"
             id="path4235"
             d="M 357.05213,328.24347 C 359.01795,329.88735 360.8934,331.07935 363.13574,334.10585"
             style="opacity:1;fill:none;fill-opacity:1;stroke:#000000;stroke-width:1.5;stroke-linecap:butt;stroke-linejoin:miter;stroke-miterlimit:4;stroke-dasharray:none;stroke-opacity:1" />
          <path
             sodipodi:nodetypes="csc"
             id="path4237"
             d="M 1013.6399,1198.0526 C 1012.844,1194.5835 1013.8585,1191.9752 1016.6817,1190.5864 C 1019.3694,1189.2641 1021.8049,1187.8562 1021.6592,1183.7838"
             style="fill:none;fill-opacity:1;stroke:#000000;stroke-width:1.5;stroke-linecap:butt;stroke-linejoin:miter;stroke-miterlimit:4;stroke-dasharray:none;stroke-opacity:1" />
          <path
             sodipodi:nodetypes="csc"
             id="path4239"
             d="M 999.81357,1194.9555 C 1000.3349,1191.9627 1002.186,1189.0933 1006.229,1189.6462 C 1008.5106,1189.9582 1010.8844,1189.8755 1014.0271,1186.0513"
             style="fill:none;fill-opacity:1;stroke:#000000;stroke-width:1.5;stroke-linecap:butt;stroke-linejoin:miter;stroke-miterlimit:4;stroke-dasharray:none;stroke-opacity:1" />
          <path
             sodipodi:nodetypes="cc"
             id="path4241"
             d="M 1032.9969,1195.1214 C 1033.9339,1193.5643 1036.6504,1189.6996 1034.7666,1185.2217"
             style="fill:none;fill-opacity:1;stroke:#000000;stroke-width:1.5;stroke-linecap:butt;stroke-linejoin:miter;stroke-miterlimit:4;stroke-dasharray:none;stroke-opacity:1" />
          <path
             sodipodi:nodetypes="cc"
             transform="translate(668.92093,819.094)"
             id="path4243"
             d="M 302.21793,320.84644 C 309.26644,324.57708 326.3775,324.43751 323.17921,332.10922"
             style="opacity:1;fill:none;fill-opacity:1;stroke:#000000;stroke-width:1.5;stroke-linecap:butt;stroke-linejoin:miter;stroke-miterlimit:4;stroke-dasharray:none;stroke-opacity:1" />
          <path
             sodipodi:nodetypes="cc"
             transform="translate(668.92093,819.094)"
             id="path4246"
             d="M 271.55814,273.29248 C 287.81798,276.45336 301.63866,279.90721 314.60461,295.42018"
             style="opacity:1;fill:none;fill-opacity:1;stroke:#000000;stroke-width:1.5;stroke-linecap:butt;stroke-linejoin:miter;stroke-miterlimit:4;stroke-dasharray:none;stroke-opacity:1" />
          <path
             sodipodi:nodetypes="ccc"
             transform="translate(668.92093,819.094)"
             id="path4248"
             d="M 212.42854,299.5723 C 199.38675,301.32906 201.71188,313.30203 187.713,315.05862 C 190.3733,312.0901 193.47178,310.65521 195.37795,305.04726"
             style="opacity:1;fill:none;fill-opacity:1;stroke:#000000;stroke-width:1.5;stroke-linecap:butt;stroke-linejoin:miter;stroke-miterlimit:4;stroke-dasharray:none;stroke-opacity:1" />
          <path
             sodipodi:nodetypes="csc"
             transform="translate(668.92093,819.094)"
             id="path4250"
             d="M 188.64564,285.56647 C 188.47057,281.99223 190.30036,278.18591 184.23763,274.84374 C 182.13469,273.68446 180.51471,272.27152 179.41136,270.2273"
             style="opacity:1;fill:none;fill-opacity:1;stroke:#000000;stroke-width:1.5;stroke-linecap:butt;stroke-linejoin:miter;stroke-miterlimit:4;stroke-dasharray:none;stroke-opacity:1" />
          <path
             sodipodi:nodetypes="cc"
             transform="translate(668.92093,819.094)"
             id="path4252"
             d="M 174.44843,320.39125 C 175.53548,315.62402 178.65917,309.25617 173.74574,301.49314"
             style="opacity:1;fill:none;fill-opacity:1;stroke:#000000;stroke-width:1.5;stroke-linecap:butt;stroke-linejoin:miter;stroke-miterlimit:4;stroke-dasharray:none;stroke-opacity:1" />
          <path
             sodipodi:nodetypes="ccc"
             transform="translate(668.92093,819.094)"
             id="path4254"
             d="M 179.89162,317.09218 L 179.89162,317.09218 C 182.9126,315.12675 186.02667,314.18532 188.65156,307.86296"
             style="opacity:1;fill:none;fill-opacity:1;stroke:#000000;stroke-width:1.5;stroke-linecap:butt;stroke-linejoin:miter;stroke-miterlimit:4;stroke-dasharray:none;stroke-opacity:1" />
        </g>
        <g
           id="g4256"
           transform="matrix(0.9975001,0,0,0.9975,1.5206328,-196.76046)"
           style="fill:#fcef3c">
          <path
             sodipodi:nodetypes="cccc"
             id="path4258"
             d="M 984.05583,1205.3316 C 987.27568,1204.7406 984.9533,1198.3222 990.47917,1198.6311 C 991.33212,1196.6326 993.88781,1194.7313 991.53925,1191.3349 C 979.01746,1192.4381 982.84473,1203.2904 984.05583,1205.3316 z"
             style="fill:#fcef3c;fill-opacity:1;stroke:#000000;stroke-width:1.5;stroke-linecap:butt;stroke-linejoin:miter;stroke-miterlimit:4;stroke-dasharray:none;stroke-opacity:1" />
          <path
             sodipodi:nodetypes="cccc"
             id="path4260"
             d="M 998.19953,1205.9198 C 1001.1869,1206.1856 1000.5294,1199.4619 1004.6,1198.6051 C 1003.7023,1197.2797 1003.0325,1195.8688 1003.3427,1194.0905 C 994.97657,1194.2124 995.74673,1203.8323 998.19953,1205.9198 z"
             style="fill:#fcef3c;fill-opacity:1;stroke:#000000;stroke-width:1.5;stroke-linecap:butt;stroke-linejoin:miter;stroke-miterlimit:4;stroke-dasharray:none;stroke-opacity:1" />
          <path
             style="fill:#fcef3c;fill-opacity:1;stroke:#000000;stroke-width:1.5;stroke-linecap:butt;stroke-linejoin:miter;stroke-miterlimit:4;stroke-dasharray:none;stroke-opacity:1"
             d="M 1016.1995,1207.9198 C 1019.1869,1208.1856 1016.5294,1201.4619 1020.6,1200.6051 C 1019.7023,1199.2797 1019.0325,1197.8688 1019.3427,1196.0905 C 1010.9766,1196.2124 1013.7467,1205.8323 1016.1995,1207.9198 z"
             id="path4262"
             sodipodi:nodetypes="cccc" />
          <path
             sodipodi:nodetypes="ccsc"
             id="path4264"
             d="M 1044.6848,1196.8912 C 1041.6974,1197.157 1044.3549,1190.4333 1040.2843,1189.5765 C 1039.0214,1189.1855 1037.8413,1184.4852 1041.5416,1185.0619 C 1049.3937,1186.2857 1047.1376,1194.8037 1044.6848,1196.8912 z"
             style="fill:#fcef3c;fill-opacity:1;stroke:#000000;stroke-width:1.5;stroke-linecap:butt;stroke-linejoin:miter;stroke-miterlimit:4;stroke-dasharray:none;stroke-opacity:1" />
        </g>
        <g
           id="g4266"
           transform="matrix(0.9975001,0,0,0.9975,1.5206328,-196.76046)"
           style="fill:#fcef3c">
          <path
             sodipodi:nodetypes="cscc"
             id="path4268"
             d="M 672.67046,1199.6438 C 675.75644,1197.5693 674.11591,1190.8046 669.04591,1192.6447 C 661.13996,1195.5142 662.04314,1203.7265 663.92156,1205.0182 C 666.18546,1202.9549 666.73294,1200.1764 672.67046,1199.6438 z"
             style="fill:#fcef3c;fill-opacity:1;stroke:#000000;stroke-width:1.5;stroke-linecap:butt;stroke-linejoin:miter;stroke-miterlimit:4;stroke-dasharray:none;stroke-opacity:1" />
          <path
             sodipodi:nodetypes="cscc"
             id="path4270"
             d="M 674.79519,1209.5176 C 668.98683,1206.0558 676.44403,1196.5042 678.41973,1196.0193 C 682.93181,1194.912 683.7836,1197.8601 683.4191,1202.3935 C 679.05772,1200.9026 677.64178,1207.07 674.79519,1209.5176 z"
             style="fill:#fcef3c;fill-opacity:1;stroke:#000000;stroke-width:1.5;stroke-linecap:butt;stroke-linejoin:miter;stroke-miterlimit:4;stroke-dasharray:none;stroke-opacity:1" />
          <path
             sodipodi:nodetypes="cccc"
             id="path4272"
             d="M 692.79292,1198.519 C 683.42026,1197.2454 684.39276,1210.1069 689.66832,1211.2674 C 690.67223,1208.0165 691.71066,1205.1109 693.04289,1205.1432 C 692.19579,1203.5461 691.97591,1201.4473 692.79292,1198.519 z"
             style="fill:#fcef3c;fill-opacity:1;stroke:#000000;stroke-width:1.5;stroke-linecap:butt;stroke-linejoin:miter;stroke-miterlimit:4;stroke-dasharray:none;stroke-opacity:1" />
          <path
             style="fill:#fcef3c;fill-opacity:1;stroke:#000000;stroke-width:1.5;stroke-linecap:butt;stroke-linejoin:miter;stroke-miterlimit:4;stroke-dasharray:none;stroke-opacity:1"
             d="M 718.57845,1198.0191 C 727.70114,1197.3704 725.35381,1208.3571 720.82816,1210.3925 C 719.82425,1207.1416 718.78582,1204.236 717.45359,1204.2683 C 718.30069,1202.6712 719.39546,1200.9474 718.57845,1198.0191 z"
             id="path4274"
             sodipodi:nodetypes="cccc" />
        </g>
        <g
           id="g4276"
           transform="matrix(0.9975001,0,0,0.9975,1.5206328,-196.76046)"
           style="fill:#fcef3c">
          <path
             sodipodi:nodetypes="cccc"
             id="path4278"
             d="M 675.81435,1040.5945 C 675.48764,1033.4631 670.68133,1036.5708 667.33014,1036.3524 C 671.40821,1026.5539 684.26651,1031.2226 685.7126,1039.1805 C 682.01911,1044.3807 677.85266,1042.3534 675.81435,1040.5945 z"
             style="opacity:1;fill:#fcef3c;fill-opacity:1;stroke:#000000;stroke-width:1.5;stroke-linecap:butt;stroke-linejoin:miter;stroke-miterlimit:4;stroke-dasharray:none;stroke-opacity:1" />
          <path
             sodipodi:nodetypes="ccsss"
             id="path4280"
             d="M 688.71743,1076.2989 C 684.42255,1078.772 680.97514,1075.2341 679.34944,1077.1827 C 681.77853,1083.2631 686.19886,1085.4475 690.48497,1082.8388 C 693.17093,1081.2041 694.05046,1078.9527 693.31304,1077.3594 C 692.71231,1076.0615 690.83842,1075.0776 688.71743,1076.2989 z"
             style="opacity:1;fill:#fcef3c;fill-opacity:1;stroke:#000000;stroke-width:1.5;stroke-linecap:butt;stroke-linejoin:miter;stroke-miterlimit:4;stroke-dasharray:none;stroke-opacity:1" />
          <path
             style="opacity:1;fill:#fcef3c;fill-opacity:1;stroke:#000000;stroke-width:1.5;stroke-linecap:butt;stroke-linejoin:miter;stroke-miterlimit:4;stroke-dasharray:none;stroke-opacity:1"
             d="M 690.4611,1030.9726 C 693.74387,1024.6332 688.2044,1025.2749 685.41138,1023.4101 C 693.84232,1016.9635 700.46687,1027.0822 697.74027,1034.6971 C 691.94152,1037.3538 691.3469,1033.5149 690.4611,1030.9726 z"
             id="path4282"
             sodipodi:nodetypes="cccc" />
          <path
             sodipodi:nodetypes="cccc"
             id="path4284"
             d="M 704.56307,1034.8783 C 709.81606,1030.0441 704.39119,1028.7524 702.40442,1026.0448 C 712.53176,1022.8706 715.29601,1034.6447 710.12941,1040.8678 C 703.77171,1041.381 704.52593,1037.5703 704.56307,1034.8783 z"
             style="opacity:1;fill:#fcef3c;fill-opacity:1;stroke:#000000;stroke-width:1.5;stroke-linecap:butt;stroke-linejoin:miter;stroke-miterlimit:4;stroke-dasharray:none;stroke-opacity:1" />
        </g>
        <g
           id="g4286"
           transform="matrix(0.9975001,0,0,0.9975,-397.47941,-196.76046)">
          <path
             sodipodi:nodetypes="cscccccscccsscsscccscsccscscccccsssccccccccccccccccsscsc"
             id="path4288"
             d="M 1172.9541,1080.0988 C 1160.5673,1084.5845 1158.9885,1097.0218 1147.8083,1099.7689 C 1144.0979,1100.6806 1137.3026,1097.0284 1143.4039,1089.6079 C 1133.9363,1090.7541 1130.1517,1106.756 1151.7947,1106.7852 C 1144.797,1109.099 1140.2093,1106.8366 1136.5464,1105.1763 C 1138.3161,1112.1988 1141.688,1116.4344 1153.2676,1112.9717 C 1160.779,1100.9675 1168.304,1098.6668 1173.7457,1098.418 C 1157.6207,1098.9884 1153.1084,1117.217 1144.9654,1123.3573 C 1140.1854,1126.9617 1128.8907,1128.4105 1130.1481,1119.859 C 1114.8786,1132.6141 1139.2374,1142.2355 1150.189,1129.2949 C 1146.728,1135.1256 1139.3374,1136.9064 1134.6842,1136.4372 C 1139.3941,1140.6427 1147.3236,1144.904 1159.689,1132.7904 C 1163.7785,1128.7843 1169.0691,1130.6937 1170.9149,1128.7088 C 1176.0445,1123.1927 1164.2259,1115.4455 1177.0458,1105.3626 C 1173.0342,1108.8127 1169.3008,1115.2903 1171.9493,1121.4248 C 1174.373,1127.0383 1170.8465,1130.438 1163.3072,1136.231 C 1150.7079,1145.912 1156.8534,1159.7902 1161.861,1159.8839 C 1162.3793,1155.7076 1162.7177,1151.509 1167.0239,1147.8042 C 1159.6471,1157.0224 1159.0577,1170.5111 1174.7551,1167.3975 C 1167.643,1165.3264 1166.5334,1152.0269 1180.285,1147.7936 C 1207.8066,1139.3214 1208.7306,1134.1817 1199.8097,1120.7321 C 1207.1111,1128.2912 1208.6298,1136.7058 1199.8096,1142.6292 C 1188.6698,1150.1104 1186.8286,1168.1985 1200.7192,1174.5343 C 1195.189,1165.1053 1196.1099,1153.9198 1204.0346,1146.2958 C 1193.3859,1158.7566 1197.7187,1175.4012 1207.4081,1179.8983 C 1212.7732,1182.3883 1217.6951,1181.2463 1221.665,1175.9468 C 1212.9033,1178.662 1210.5303,1175.0534 1211.0547,1169.033 C 1212.0115,1158.0468 1226.8032,1158.2238 1227.513,1150.8388 C 1233.6732,1163.4341 1248.175,1156.6943 1246.5433,1148.9034 C 1233.408,1154.0805 1237.8709,1141.6805 1243.3694,1139.4853 C 1246.889,1132.6228 1254.4105,1123.6044 1248.0278,1115.9692 C 1253.2169,1121.7047 1257.9596,1122.3388 1262.3114,1118.5054 C 1259.5391,1116.7849 1254.9865,1115.3314 1256.3908,1109.5588 C 1260.3531,1093.2702 1260.0334,1093.3224 1257.3175,1090.0193 C 1254.7346,1086.8778 1247.3591,1085.7634 1251.5579,1074.7319 C 1252.1123,1073.2756 1252.7786,1072.4808 1252.816,1070.5656 C 1258.3305,1072.2536 1259.842,1067.4259 1261.6217,1063.0347 C 1258.7766,1062.4751 1255.3137,1066.8588 1255.0911,1061.3473 C 1254.2625,1058.1731 1253.47,1051.0017 1254.2693,1047.9546 C 1253.6573,1045.4576 1255.6684,1044.3294 1250.1467,1043.014 C 1248.2889,1037.7902 1250.5154,1027.8984 1241.5719,1030.7725 C 1240.4462,1028.9865 1238.8119,1026.2469 1234.8762,1027.8671 C 1232.5448,1024.7409 1229.9628,1025.8371 1227.1709,1026.8945 C 1227.6709,1024.1212 1224.7517,1022.1394 1221.2077,1024.7516 C 1219.2762,1019.8175 1213.871,1021.9353 1211.4751,1023.6706 C 1207.0026,1021.0671 1203.7203,1022.674 1200.8344,1025.6832 C 1198.1724,1021.2966 1191.4111,1024.8285 1190.6836,1027.1121 L 1183.1667,1035.7868 C 1176.2934,1039.0722 1179.4502,1054.3138 1168.9063,1051.1524 C 1167.6246,1054.4783 1171.0446,1056.0992 1173.5657,1058.0461 C 1169.3009,1064.2368 1172.8867,1066.9402 1172.659,1073.6346 C 1169.0548,1079.8744 1164.8348,1076.4034 1159.942,1076.6402 C 1153.6011,1076.947 1154.3819,1080.5026 1151.5815,1079.6383 C 1149.568,1079.0168 1148.0151,1075.406 1150.3714,1072.3395 C 1146.8006,1071.6818 1137.9394,1084.7429 1152.8033,1088.1515 C 1158.3097,1089.4143 1165.5903,1082.6721 1172.9541,1080.0988 z"
             style="opacity:1;fill:#fcef3c;fill-opacity:1;stroke:#000000;stroke-width:2.34375;stroke-miterlimit:4;stroke-dasharray:none;stroke-opacity:1" />
          <g
             transform="translate(400,0)"
             id="g4290">
            <path
               style="opacity:1;fill:none;fill-opacity:1;stroke:#000000;stroke-width:1.5;stroke-linecap:butt;stroke-linejoin:miter;stroke-miterlimit:4;stroke-dasharray:none;stroke-opacity:1"
               d="M 179.7179,297.64606 C 175.5947,293.72598 177.10783,288.39681 179.6212,282.81758"
               id="path4292"
               transform="translate(668.92093,819.094)"
               sodipodi:nodetypes="cc" />
            <path
               style="opacity:1;fill:none;fill-opacity:1;stroke:#000000;stroke-width:1.5;stroke-linecap:butt;stroke-linejoin:miter;stroke-miterlimit:4;stroke-dasharray:none;stroke-opacity:1"
               d="M 153.39147,331.91963 C 157.62635,325.61028 161.0511,319.38485 156.11936,312.40471 C 153.54565,308.76201 148.03128,307.07172 153.39147,298.13574"
               id="path4294"
               transform="translate(668.92093,819.094)"
               sodipodi:nodetypes="csc" />
            <path
               style="opacity:1;fill:#fcef3c;fill-opacity:1;stroke:#000000;stroke-width:1.5;stroke-miterlimit:4;stroke-dasharray:none;stroke-opacity:1"
               d="M 789.7437,1040.24 C 788.208,1035.3205 783.26172,1038.1297 786.31801,1022.8039 C 799.00939,1022.6315 796.93657,1029.4145 800.35422,1033.6109"
               id="path4296"
               sodipodi:nodetypes="ccc" />
            <path
               sodipodi:nodetypes="ccc"
               id="path4298"
               d="M 838.50959,1041.5287 C 842.00208,1037.7389 837.09609,1034.86 851.89684,1029.8439 C 858.39177,1040.7487 851.48121,1042.3451 849.55581,1047.403"
               style="opacity:1;fill:#fcef3c;fill-opacity:1;stroke:#000000;stroke-width:1.5;stroke-miterlimit:4;stroke-dasharray:none;stroke-opacity:1" />
            <path
               style="opacity:1;fill:#fcef3c;fill-opacity:1;stroke:#000000;stroke-width:1.5;stroke-miterlimit:4;stroke-dasharray:none;stroke-opacity:1"
               d="M 794.21369,1086.372 C 794.15544,1089.5442 787.40665,1093.3017 794.41003,1095.8561 C 789.75099,1101.4874 797.66369,1102.9099 795.73778,1108.6195 C 797.59601,1109.8788 799.20677,1109.7621 799.73477,1103.6247 C 799.16452,1109.6051 803.11006,1111.2128 802.66549,1115.4033 C 804.69399,1114.5046 808.09988,1116.0677 805.51273,1106.9197 C 806.48703,1109.9521 809.54327,1111.3887 808.3441,1116.0871 C 810.18013,1115.779 813.34906,1114.7781 813.18688,1112.5825 C 816.1477,1114.1539 819.07514,1115.1968 821.45693,1107.5728 C 823.62096,1107.4099 826.21325,1107.6603 823.52232,1102.8104 C 828.15936,1108.0356 828.20403,1104.2068 827.60423,1098.7864 C 833.69031,1104.7082 829.75727,1094.0414 829.75272,1090.6459 C 829.98754,1087.3866 830.97087,1083.9168 832.50831,1082.6856"
               id="path4300"
               sodipodi:nodetypes="ccccccccccccc" />
            <path
               style="opacity:1;fill:none;fill-opacity:1;stroke:#000000;stroke-width:1.5;stroke-miterlimit:4;stroke-dasharray:none;stroke-opacity:1"
               d="M 821.25481,1068.1096 C 825.37113,1064.1105 823.66506,1061.1803 820.29384,1058.11 C 822.16001,1055.5843 818.849,1052.9602 818.67209,1050.4091 L 820.58477,1045.674"
               id="path4302"
               sodipodi:nodetypes="cccc" />
            <path
               style="opacity:1;fill:none;fill-opacity:1;stroke:#000000;stroke-width:1.5;stroke-miterlimit:4;stroke-dasharray:none;stroke-opacity:1"
               d="M 789.12583,1050.5809 C 785.00332,1056.913 786.69317,1060.5917 789.33729,1063.8349"
               id="path4304"
               sodipodi:nodetypes="cc" />
            <path
               style="opacity:1;fill:none;fill-opacity:1;stroke:#000000;stroke-width:1.5;stroke-miterlimit:4;stroke-dasharray:none;stroke-opacity:1"
               d="M 783.49673,1060.1228 C 781.13929,1062.9238 778.38204,1063.9604 777.06901,1071.372"
               id="path4306"
               sodipodi:nodetypes="cc" />
            <path
               style="opacity:1;fill:none;fill-opacity:1;stroke:#000000;stroke-width:1.5;stroke-miterlimit:4;stroke-dasharray:none;stroke-opacity:1"
               d="M 783.22849,1052.1311 C 779.57563,1053.5416 777.79106,1057.1367 775.28906,1059.8928"
               id="path4308"
               sodipodi:nodetypes="cc" />
            <path
               style="opacity:1;fill:none;fill-opacity:1;stroke:#000000;stroke-width:1.5;stroke-miterlimit:4;stroke-dasharray:none;stroke-opacity:1"
               d="M 789.30621,1068.4054 C 786.66936,1090.9498 774.02089,1083.7313 768.56177,1091.3"
               id="path4310"
               sodipodi:nodetypes="cc" />
            <path
               style="opacity:1;fill:none;fill-opacity:1;stroke:#000000;stroke-width:1.5;stroke-miterlimit:4;stroke-dasharray:none;stroke-opacity:1"
               d="M 791.26593,1075.0425 C 792.23239,1077.3749 786.40979,1089.6581 784.62861,1090.7917"
               id="path4312"
               sodipodi:nodetypes="cc" />
            <path
               style="opacity:1;fill:none;fill-opacity:1;stroke:#000000;stroke-width:1.5;stroke-miterlimit:4;stroke-dasharray:none;stroke-opacity:1"
               d="M 785.3342,1095.901 C 790.00408,1092.6815 791.7035,1086.9866 792.42903,1080.4565"
               id="path4314"
               sodipodi:nodetypes="cc" />
            <path
               style="opacity:1;fill:none;fill-opacity:1;stroke:#000000;stroke-width:1.5;stroke-miterlimit:4;stroke-dasharray:none;stroke-opacity:1"
               d="M 839.48459,1053.8455 C 840.51414,1057.4327 841.22283,1061.0479 839.33054,1064.8906"
               id="path4316"
               sodipodi:nodetypes="cc" />
            <path
               style="opacity:1;fill:none;fill-opacity:1;stroke:#000000;stroke-width:1.5;stroke-miterlimit:4;stroke-dasharray:none;stroke-opacity:1"
               d="M 840.1879,1068.7801 C 838.53204,1070.5005 838.46353,1073.2077 837.67008,1075.4642"
               id="path4318"
               sodipodi:nodetypes="cc" />
            <path
               style="opacity:1;fill:none;fill-opacity:1;stroke:#000000;stroke-width:1.5;stroke-miterlimit:4;stroke-dasharray:none;stroke-opacity:1"
               d="M 835.59277,1078.3177 C 834.54222,1080.9952 834.38746,1083.5942 833.7858,1086.2324"
               id="path4320"
               sodipodi:nodetypes="cc" />
            <path
               style="opacity:1;fill:none;fill-opacity:1;stroke:#000000;stroke-width:1.5;stroke-miterlimit:4;stroke-dasharray:none;stroke-opacity:1"
               d="M 791.2874,1066.4221 C 792.9601,1064.4261 794.88823,1062.4789 798.14694,1063.0641"
               id="path4322"
               sodipodi:nodetypes="cc" />
            <path
               style="opacity:1;fill:none;fill-opacity:1;stroke:#000000;stroke-width:1.5;stroke-miterlimit:4;stroke-dasharray:none;stroke-opacity:1"
               d="M 830.79996,1065.8955 C 834.07344,1065.5688 835.42742,1067.3521 835.98626,1070.0096"
               id="path4324"
               sodipodi:nodetypes="cc" />
            <path
               sodipodi:nodetypes="cccc"
               id="path4326"
               d="M 805.12496,1067.4318 C 801.15858,1061.7272 802.82324,1059.6508 807.82558,1058.2316 C 806.42633,1055.4202 810.1248,1052.9304 810.74217,1050.4488 L 809.68076,1045.4535"
               style="opacity:1;fill:none;fill-opacity:1;stroke:#000000;stroke-width:1.5;stroke-miterlimit:4;stroke-dasharray:none;stroke-opacity:1" />
            <path
               style="opacity:1;fill:none;fill-opacity:1;stroke:#000000;stroke-width:1.5;stroke-miterlimit:4;stroke-dasharray:none;stroke-opacity:1"
               d="M 794.2607,1056.0784 L 795.53084,1052.8647 L 799.55501,1053.5468 L 802.84155,1051.708 L 804.85143,1054.9795 C 801.74714,1058.7088 798.13771,1058.4415 794.2607,1056.0784 z"
               id="path4328"
               sodipodi:nodetypes="cccccc" />
            <path
               style="opacity:1;fill:#000000;fill-opacity:1;stroke:none;stroke-width:1.5;stroke-miterlimit:4;stroke-dasharray:none;stroke-opacity:1"
               d="M 796.71686,1057.4026 L 797.57015,1053.5617 L 800.32423,1053.3208 L 803.02913,1057.0486 L 796.71686,1057.4026 z"
               id="path4330" />
            <path
               sodipodi:nodetypes="cccccc"
               id="path4332"
               d="M 837.19755,1058.5827 L 835.92742,1055.3689 L 831.90326,1056.0511 L 828.61669,1054.2122 L 826.60677,1057.4837 C 829.71111,1061.213 833.32045,1060.9458 837.19755,1058.5827 z"
               style="opacity:1;fill:none;fill-opacity:1;stroke:#000000;stroke-width:1.5;stroke-miterlimit:4;stroke-dasharray:none;stroke-opacity:1" />
            <path
               id="path4334"
               d="M 834.44034,1059.6059 L 833.58703,1055.7649 L 830.83305,1055.524 L 828.12806,1059.2519 L 834.44034,1059.6059 z"
               style="opacity:1;fill:#000000;fill-opacity:1;stroke:none;stroke-width:1.5;stroke-miterlimit:4;stroke-dasharray:none;stroke-opacity:1" />
            <path
               style="opacity:1;fill:#000000;fill-opacity:1;stroke:none;stroke-width:1.5;stroke-miterlimit:4;stroke-dasharray:none;stroke-opacity:1"
               d="M 806.79072,1065.3243 C 809.13151,1067.0854 811.52077,1068.8244 812.97443,1070.9886 C 814.38108,1068.6745 816.82384,1067.4762 819.28656,1066.2995 C 818.02436,1065.8888 816.77423,1065.452 814.82409,1066.5176 C 813.23347,1067.0263 811.9968,1066.4897 810.79992,1065.8354 C 808.81422,1064.7289 807.98508,1065.1536 806.79072,1065.3243 z"
               id="path4336"
               sodipodi:nodetypes="cccccc" />
            <path
               style="opacity:1;fill:#000000;fill-opacity:1;stroke:none;stroke-width:1.5;stroke-miterlimit:4;stroke-dasharray:none;stroke-opacity:1"
               d="M 798.27168,1065.8083 C 799.21704,1068.8484 800.24697,1071.8695 802.85035,1073.4125 C 805.5955,1075.0395 807.33627,1074.3366 810.08081,1073.3728 L 812.55452,1072.5042 C 814.29303,1073.0136 815.73937,1073.8986 817.71366,1074.5432 C 822.99121,1076.2661 826.21059,1072.876 830.05849,1069.2532 C 831.69262,1069.5265 833.27111,1069.9405 834.01564,1072.4647 C 828.3129,1078.3032 824.33462,1090.1585 821.74713,1100.9914 C 819.05299,1104.4165 814.28873,1100.9878 811.71123,1098.7861 C 809.84234,1098.4342 808.00993,1098.4991 806.22329,1099.0884 C 804.15884,1102.0326 801.99728,1102.147 799.53056,1099.8518 C 800.21567,1088.9506 799.18978,1078.7346 793.34123,1070.4496 C 793.6736,1067.9529 795.40768,1066.4714 798.27168,1065.8083 z"
               id="path4338"
               sodipodi:nodetypes="csscscccccccc" />
            <path
               style="opacity:1;fill:#000000;fill-opacity:1;stroke:none;stroke-width:1.5;stroke-miterlimit:4;stroke-dasharray:none;stroke-opacity:1"
               d="M 791.27924,1047.4041 L 791.43213,1049.1517 C 798.31255,1049.9254 802.12816,1045.9979 804.16549,1049.9663 L 806.10241,1051.9771 L 807.88535,1050.3117 L 804.27581,1046.4348 C 802.16908,1044.2454 799.25982,1043.9139 797.00984,1045.8126 C 795.44096,1047.1366 793.70814,1047.7179 791.27924,1047.4041 z"
               id="path4340"
               sodipodi:nodetypes="ccccccsc" />
            <path
               sodipodi:nodetypes="ccccccsc"
               id="path4342"
               d="M 839.47323,1049.809 L 839.16864,1051.5366 C 832.24692,1051.7077 828.78817,1047.4625 826.41271,1051.2383 L 824.30787,1053.0726 L 822.67683,1051.2582 L 826.6106,1047.7106 C 828.90022,1045.7131 831.82729,1045.6365 833.90313,1047.7241 C 835.3507,1049.1797 837.02622,1049.9099 839.47323,1049.809 z"
               style="opacity:1;fill:#000000;fill-opacity:1;stroke:none;stroke-width:1.5;stroke-miterlimit:4;stroke-dasharray:none;stroke-opacity:1" />
            <path
               style="opacity:1;fill:#fcef3c;fill-opacity:1;stroke:none;stroke-width:1.5;stroke-miterlimit:4;stroke-dasharray:none;stroke-opacity:1"
               d="M 809.90631,1075.8817 C 803.32391,1078.3652 805.34105,1082.7683 806.02645,1087.4473 C 806.46362,1090.4316 805.31112,1095.2011 807.65988,1096.351 C 809.73943,1097.3691 812.53877,1097.4803 813.76698,1096.424 C 817.57056,1093.1529 818.67542,1089.0609 819.89117,1079.9016 C 819.73753,1078.4794 819.52262,1077.1027 817.76644,1076.8709 C 815.98112,1076.7594 813.94116,1077.6165 813.74621,1078.8395 C 813.64058,1081.3852 812.53355,1083.8484 812.0523,1086.6948 L 811.20008,1086.7192 C 810.99294,1083.2971 813.79603,1077.4974 809.90631,1075.8817 z"
               id="path4344"
               sodipodi:nodetypes="cssscccccc" />
            <path
               style="opacity:1;fill:#fcef3c;fill-opacity:1;stroke:none;stroke-width:1.5;stroke-miterlimit:4;stroke-dasharray:none;stroke-opacity:1"
               d="M 799.79069,1073.6187 L 801.00271,1073.1106 L 803.24843,1075.2261 C 803.64311,1076.2102 803.70427,1077.1147 803.69234,1078.0017 L 802.85995,1082.8492 C 800.27302,1083.4035 800.11082,1078.3277 799.79069,1073.6187 z"
               id="path4346"
               sodipodi:nodetypes="cccccc" />
            <path
               sodipodi:nodetypes="cccccc"
               id="path4348"
               d="M 828.39755,1075.1585 L 827.35828,1074.354 L 824.64167,1075.8162 C 824.0057,1076.6647 823.71245,1077.5225 823.49447,1078.3824 L 823.04391,1083.2801 C 825.3992,1084.4851 826.86954,1079.6242 828.39755,1075.1585 z"
               style="opacity:1;fill:#fcef3c;fill-opacity:1;stroke:none;stroke-width:1.5;stroke-miterlimit:4;stroke-dasharray:none;stroke-opacity:1" />
            <path
               style="opacity:0.98000004;fill:#fcef3c;fill-opacity:1;stroke:none;stroke-width:1.5;stroke-miterlimit:4;stroke-dasharray:none;stroke-opacity:1"
               d="M 803.71982,1089.1104 C 803.536,1089.2042 802.71783,1089.4444 802.71783,1089.4444 C 800.20567,1091.3583 801.44053,1095.4103 800.83104,1098.4099 L 801.27776,1099.2317 C 802.25675,1099.5847 803.30046,1099.2569 804.35879,1098.7773 C 805.34245,1098.1924 805.51894,1097.5306 805.24417,1096.8258 C 804.69717,1094.8625 803.66263,1093.0117 804.06523,1090.8291 L 803.71982,1089.1104 z"
               id="path6000"
               sodipodi:nodetypes="cccccccc" />
            <path
               sodipodi:nodetypes="cccccsc"
               id="path6002"
               d="M 821.147,1090.418 C 823.20642,1092.8123 820.39911,1096.4847 820.37167,1099.5455 L 819.76392,1100.2565 C 818.73295,1100.3982 817.78007,1099.8606 816.84475,1099.1715 C 816.00405,1098.3947 815.969,1097.7107 816.38438,1097.0785 C 817.3275,1095.2718 818.95363,1093.6452 819.32411,1091.4947 C 819.55294,1090.1667 819.95174,1089.7156 821.147,1090.418 z"
               style="opacity:1;fill:#fcef3c;fill-opacity:1;stroke:none;stroke-width:1.5;stroke-miterlimit:4;stroke-dasharray:none;stroke-opacity:1" />
            <path
               style="opacity:1;fill:#000000;fill-opacity:1;stroke:none;stroke-width:1.5;stroke-miterlimit:4;stroke-dasharray:none;stroke-opacity:1"
               d="M 796.30208,1037.1251 L 791.69717,1037.528 C 791.49024,1035.5047 789.51063,1034.0328 788.59546,1032.1594 C 787.88366,1030.7023 787.88887,1028.0953 788.59955,1027.6774 C 790.41019,1027.5999 791.98793,1027.5602 794.02935,1029.804 C 795.48745,1032.1831 796.04499,1034.5617 796.30208,1037.1251 z"
               id="path4354"
               sodipodi:nodetypes="ccsccc" />
            <path
               sodipodi:nodetypes="ccsccc"
               id="path4356"
               d="M 841.28509,1044.9414 L 845.83737,1045.744 C 846.21982,1043.7465 848.32016,1042.4528 849.39514,1040.6662 C 850.23122,1039.2767 850.45328,1036.6792 849.78174,1036.2009 C 847.98482,1035.966 846.41652,1035.7888 844.18724,1037.8462 C 842.52731,1040.0891 841.7647,1042.4101 841.28509,1044.9414 z"
               style="opacity:1;fill:#000000;fill-opacity:1;stroke:none;stroke-width:1.5;stroke-miterlimit:4;stroke-dasharray:none;stroke-opacity:1" />
          </g>
        </g>
      </g>
    </g>
    <use
       x="0"
       y="0"
       xlink:href="#g5910"
       id="use6006"
       transform="translate(0,80)"
       width="600"
       height="660" />
    <path
       style="font-size:40px;font-style:normal;font-variant:normal;font-weight:normal;font-stretch:normal;text-align:start;line-height:100%;writing-mode:lr-tb;text-anchor:start;fill:#000000;fill-opacity:1;stroke:#555555;stroke-width:2;stroke-linecap:butt;stroke-linejoin:miter;stroke-opacity:1;font-family:Arial Black;-inkscape-font-specification:Arial Black"
       d="M -279.52986,-259.64356 L -246.40486,-259.64356 C -240.88406,-259.64347 -236.6458,-257.56417 -233.69002,-253.40561 C -230.73434,-249.2469 -229.25648,-244.09809 -229.25642,-237.95921 C -229.25648,-232.81034 -230.31116,-228.39427 -232.42048,-224.71096 C -233.82678,-222.25535 -235.88408,-220.31465 -238.59236,-218.88886 C -234.47782,-217.3838 -231.45048,-214.79951 -229.51032,-211.13595 C -227.57028,-207.47237 -226.60022,-202.86817 -226.60016,-197.32333 C -226.60022,-192.80821 -227.29034,-188.74858 -228.67048,-185.14446 C -230.05074,-181.54029 -231.93876,-178.68865 -234.33454,-176.58953 C -235.81896,-175.28252 -238.05854,-174.33198 -241.0533,-173.7379 C -245.0377,-172.94577 -247.68094,-172.54971 -248.98298,-172.54971 L -279.52986,-172.54971 L -279.52986,-259.64356 z M -261.6783,-225.48329 L -253.98298,-225.48329 C -251.2226,-225.48323 -249.30202,-226.20603 -248.22126,-227.65173 C -247.14058,-229.09728 -246.6002,-231.18652 -246.60016,-233.91939 C -246.6002,-236.45412 -247.14058,-238.43442 -248.22126,-239.8603 C -249.30202,-241.28606 -251.18354,-241.99898 -253.8658,-241.99905 L -261.6783,-241.99905 L -261.6783,-225.48329 z M -261.6783,-191.2636 L -252.65486,-191.2636 C -249.60802,-191.26358 -247.45958,-192.0854 -246.20954,-193.72907 C -244.95958,-195.3727 -244.33458,-197.58076 -244.33454,-200.35321 C -244.33458,-202.92757 -244.95308,-204.99698 -246.19002,-206.56146 C -247.42704,-208.12585 -249.595,-208.90808 -252.69392,-208.90813 L -261.6783,-208.90813 L -261.6783,-191.2636 z M -180.14704,-186.92672 L -200.3033,-186.92672 L -203.07674,-172.54971 L -221.16266,-172.54971 L -199.63924,-259.64356 L -180.34236,-259.64356 L -158.81892,-172.54971 L -177.33454,-172.54971 L -180.14704,-186.92672 z M -183.85798,-205.75944 L -190.1861,-237.06806 L -196.47516,-205.75944 L -183.85798,-205.75944 z M -160.85798,-259.64356 L -142.34236,-259.64356 L -129.45174,-196.96687 L -116.75642,-259.64356 L -98.787658,-259.64356 L -120.03766,-172.54971 L -139.21736,-172.54971 L -160.85798,-259.64356 z M -89.045478,-259.64356 L -41.623598,-259.64356 L -41.623598,-241.0485 L -71.311098,-241.0485 L -71.311098,-227.20616 L -43.772038,-227.20616 L -43.772038,-209.4428 L -71.311098,-209.4428 L -71.311098,-192.27355 L -40.764238,-192.27355 L -40.764238,-172.54971 L -89.045478,-172.54971 L -89.045478,-259.64356 z M -29.076738,-259.64356 L -12.553298,-259.64356 L 9.009202,-211.46272 L 9.009202,-259.64356 L 25.688902,-259.64356 L 25.688902,-172.54971 L 9.009202,-172.54971 L -12.436098,-220.37408 L -12.436098,-172.54971 L -29.076738,-172.54971 L -29.076738,-259.64356 z M 35.501402,-259.64356 L 89.290462,-259.64356 L 89.290462,-238.13745 L 71.243582,-238.13745 L 71.243582,-172.54971 L 53.548262,-172.54971 L 53.548262,-238.13745 L 35.501402,-238.13745 L 35.501402,-259.64356 z"
       id="text6102"
       sodipodi:nodetypes="ccssscssscscccccssscccccsssccccccccccccccccccccccccccccccccccccccccccccccccccccccccc" />
    <g
       id="g3156"
       transform="translate(130.93581,-2.4970823)">
      <path
         sodipodi:nodetypes="ccccc"
         style="fill:#fcef3c;fill-opacity:1;stroke:#000000;stroke-width:1.5;stroke-linecap:butt;stroke-linejoin:round;stroke-miterlimit:4;stroke-dasharray:none;stroke-opacity:1"
         d="M 79.828225,-32.976793 L 79.828225,-3.9267925 L 86.228222,-3.9267925 L 86.228222,-32.976793 L 79.828225,-32.976793 z"
         id="path2420" />
      <path
         sodipodi:nodetypes="csccsc"
         style="fill:#fcef3c;stroke:#000000;stroke-width:1.5;stroke-linecap:butt;stroke-linejoin:miter;stroke-opacity:1"
         id="path2424"
         d="M 84.3065,-55.759408 C 84.3065,-55.759408 93.86637,-74.106388 106.80312,-75.875763 C 119.03632,-77.548913 136.37265,-67.620675 136.37265,-67.620675 C 136.37265,-67.620675 123.78297,-70.463953 117.43632,-60.985555 C 111.08967,-51.50716 98.92862,-40.872152 84.7019,-52.108058 L 84.3065,-55.759408 z" />
      <path
         sodipodi:nodetypes="cscccc"
         style="fill:#fcef3c;stroke:#000000;stroke-width:1.5;stroke-linecap:butt;stroke-linejoin:miter;stroke-opacity:1"
         id="path2426"
         d="M 90.416595,-60.877072 C 90.416595,-60.877072 104.14244,-63.315213 111.90347,-57.193613 C 119.71835,-51.02955 123.33617,-58.26514 133.0834,-48.2919 C 133.0834,-48.2919 106.07132,-28.646753 93.793095,-49.21277 C 81.514875,-69.778788 90.416595,-60.877072 90.416595,-60.877072 L 90.416595,-60.877072 z" />
      <path
         d="M 81.753225,-55.759408 C 81.753225,-55.759408 72.193375,-74.106388 59.2566,-75.875763 C 47.0234,-77.548913 29.6871,-67.620675 29.6871,-67.620675 C 29.6871,-67.620675 42.276775,-70.463953 48.6234,-60.985555 C 54.970075,-51.50716 67.1311,-40.872152 81.357825,-52.108058 L 81.753225,-55.759408 z"
         id="path2428"
         style="fill:#fcef3c;stroke:#000000;stroke-width:1.5;stroke-linecap:butt;stroke-linejoin:miter;stroke-opacity:1"
         sodipodi:nodetypes="csccsc" />
      <path
         d="M 75.643125,-60.877072 C 75.643125,-60.877072 61.9173,-63.315213 54.15625,-57.193613 C 46.341375,-51.02955 42.72355,-58.26514 32.976325,-48.2919 C 32.976325,-48.2919 59.9884,-28.646753 72.266625,-49.21277 C 84.54485,-69.778788 75.643125,-60.877072 75.643125,-60.877072 L 75.643125,-60.877072 z"
         id="path2430"
         style="fill:#fcef3c;stroke:#000000;stroke-width:1.5;stroke-linecap:butt;stroke-linejoin:miter;stroke-opacity:1"
         sodipodi:nodetypes="cscccc" />
      <path
         sodipodi:nodetypes="ccccc"
         style="fill:#fcef3c;stroke:#000000;stroke-width:1.5;stroke-linecap:butt;stroke-linejoin:miter;stroke-opacity:1"
         d="M 83.02985,-58.420633 L 75.276725,-58.28626 C 75.276725,-58.28626 56.579,-53.597082 83.0299,-25.373752 C 109.4808,-53.597082 90.782995,-58.28626 90.782995,-58.28626 L 83.02985,-58.420633 z"
         id="path2432" />
      <path
         style="fill:#fcef3c;fill-opacity:1;stroke:#000000;stroke-width:1.5;stroke-linecap:butt;stroke-linejoin:round;stroke-miterlimit:4;stroke-dasharray:none;stroke-opacity:1"
         d="M 67.717375,-87.03001 C 69.700125,-76.536443 72.22235,-64.211293 77.80485,-56.91751 C 77.80485,-56.91751 81.23255,-54.986258 83.02985,-54.986258 C 84.827175,-54.986258 88.25487,-56.91751 88.25487,-56.91751 C 92.50157,-66.25466 96.275395,-76.900965 98.54237,-87.03001 L 88.09236,-80.520633 L 83.02985,-80.03001 L 77.96735,-80.520633 L 67.717375,-87.03001 z"
         id="path2434"
         sodipodi:nodetypes="cczcccccc" />
      <path
         style="fill:#fcef3c;fill-opacity:1;stroke:#000000;stroke-width:0.75;stroke-linecap:butt;stroke-linejoin:round;stroke-miterlimit:4;stroke-dasharray:none;stroke-opacity:1"
         d="M 114.51239,-98.50621 C 118.16914,-93.522998 113.26297,-93.08883 110.39527,-91.57173 L 97.41362,-84.818945 L 93.66272,-84.688655 L 103.86322,-100.71879 L 114.51239,-98.50621 z"
         id="path2440"
         sodipodi:nodetypes="cccccc" />
      <path
         sodipodi:nodetypes="cccccc"
         id="path2522"
         d="M 51.539545,-98.50621 C 47.882795,-93.522998 52.78897,-93.08883 55.65667,-91.57173 L 68.63832,-84.818945 L 72.38922,-84.688655 L 62.18872,-100.71879 L 51.539545,-98.50621 z"
         style="fill:#fcef3c;fill-opacity:1;stroke:#000000;stroke-width:0.75;stroke-linecap:butt;stroke-linejoin:round;stroke-miterlimit:4;stroke-dasharray:none;stroke-opacity:1" />
      <path
         id="path2442"
         d="M 78.424408,-115.58944 C 73.372097,-112.51133 73.444813,-111.13477 73.27597,-109.43319 L 73.268158,-109.44881 L 73.252533,-109.45662 C 71.905808,-112.34215 70.56022,-115.36249 69.21347,-115.566 C 67.63257,-115.34818 67.69806,-114.14006 67.596283,-113.03475 C 63.573808,-113.55627 64.94913,-111.56166 65.299408,-110.04256 C 64.315182,-109.31189 62.586635,-110.80169 60.690033,-112.80819 C 60.207857,-110.99141 61.26282,-109.01825 57.99472,-107.48006 C 57.69337,-107.70786 57.31542,-107.91256 56.74472,-108.02694 C 55.155645,-106.87746 53.23571,-106.33895 50.565033,-107.13631 C 49.383533,-103.48596 50.559805,-102.18588 51.705658,-100.86287 C 49.069308,-100.31084 49.409945,-99.488983 51.541595,-98.503498 C 58.27412,-100.24645 63.706795,-93.875173 68.71347,-84.831623 C 69.056345,-83.58638 70.15962,-82.663353 71.36972,-82.097248 L 71.971283,-80.464435 L 78.322845,-79.769123 C 78.32498,-79.701875 78.328503,-79.641253 78.330658,-79.57381 L 78.33847,-79.57381 L 83.02597,-79.57381 L 87.71347,-79.57381 L 87.721283,-79.57381 C 87.723437,-79.641253 87.72696,-79.701875 87.729095,-79.769123 L 94.08067,-80.464435 L 94.68222,-82.097248 C 95.89232,-82.663353 96.995595,-83.58638 97.33847,-84.831623 C 102.34514,-93.875173 107.77782,-100.24645 114.51035,-98.503498 C 116.64199,-99.488983 116.98265,-100.31084 114.34627,-100.86287 C 115.49212,-102.18588 116.6684,-103.48596 115.48692,-107.13631 C 112.81625,-106.33895 110.89629,-106.87746 109.30722,-108.02694 C 108.73652,-107.91256 108.35857,-107.70786 108.05722,-107.48006 C 104.78912,-109.01825 105.84407,-110.99141 105.36192,-112.80819 C 103.46532,-110.80169 101.73677,-109.31189 100.75252,-110.04256 C 101.10279,-111.56166 102.47812,-113.55627 98.45567,-113.03475 C 98.353895,-114.14006 98.41937,-115.34818 96.83847,-115.566 C 95.49172,-115.36249 94.14612,-112.34215 92.79942,-109.45662 L 92.78377,-109.44881 C 92.61357,-111.2919 92.697145,-112.50554 87.635345,-115.58944 C 87.56335,-113.46785 87.8529,-112.70917 83.02597,-112.37069 C 78.199035,-112.70916 78.496402,-113.46786 78.424408,-115.58944 z"
         style="fill:#fcef3c;fill-opacity:1;stroke:#000000;stroke-width:1.5;stroke-linecap:butt;stroke-linejoin:round;stroke-miterlimit:4;stroke-dasharray:none;stroke-opacity:1" />
      <path
         id="path2450"
         d="M 58.924408,-92.32381 C 56.990455,-92.270875 55.21989,-91.51498 53.736908,-90.206623 L 52.268158,-89.714435 C 53.780182,-84.57286 57.09482,-83.526995 60.979095,-83.776935 C 62.940245,-83.260033 63.600255,-83.801773 63.174408,-85.237873 L 64.721283,-84.019123 L 67.729095,-83.901935 C 63.331795,-82.784023 55.923645,-80.535373 61.572845,-79.737873 C 59.854295,-76.3866 68.101755,-78.480205 71.486908,-79.159748 C 74.005257,-72.542013 78.13504,-73.18311 83.033783,-77.276935 C 87.932523,-73.18311 92.046695,-72.542013 94.56502,-79.159748 C 97.95017,-78.480205 106.19764,-76.3866 104.4791,-79.737873 C 110.1283,-80.535373 102.72014,-82.784023 98.322845,-83.901935 L 101.33067,-84.019123 L 102.87752,-85.237873 C 102.45167,-83.801773 103.1117,-83.260033 105.07285,-83.776935 C 108.95712,-83.526995 112.27177,-84.57286 113.78377,-89.714435 L 112.31502,-90.206623 C 110.73317,-91.602203 108.82217,-92.367855 106.73692,-92.32381 C 103.26145,-92.250403 99.299645,-89.930083 95.58067,-84.54256 L 92.18222,-82.659748 L 92.197845,-82.63631 C 89.311295,-81.406655 85.915687,-81.005538 83.033783,-80.956623 C 80.151878,-81.005538 76.740645,-81.406655 73.854095,-82.63631 L 73.86972,-82.659748 L 70.471283,-84.54256 C 66.752283,-89.930083 62.79051,-92.250403 59.315033,-92.32381 C 59.184703,-92.326563 59.053337,-92.32734 58.924408,-92.32381 z"
         style="fill:#fcef3c;fill-opacity:1;stroke:#000000;stroke-width:1.5;stroke-linecap:butt;stroke-linejoin:round;stroke-miterlimit:4;stroke-dasharray:none;stroke-opacity:1" />
      <path
         sodipodi:type="arc"
         style="fill:#fcef3c;fill-opacity:1;stroke:#000000;stroke-width:3;stroke-linecap:butt;stroke-linejoin:round;stroke-miterlimit:4;stroke-dasharray:none;stroke-opacity:1"
         id="path2464"
         sodipodi:cx="209.65517"
         sodipodi:cy="663.29449"
         sodipodi:rx="7.7650065"
         sodipodi:ry="7.3563218"
         d="M 217.42017,663.29449 A 7.7650065,7.3563218 0 1 1 201.89016,663.29449 A 7.7650065,7.3563218 0 1 1 217.42017,663.29449 z"
         transform="matrix(0.25,0,0,0.25,31.358335,-252.48109)" />
      <path
         id="path2574"
         d="M 92.78377,-109.44881 L 91.04512,-103.21274"
         style="fill:none;fill-opacity:1;stroke:#000000;stroke-width:0.5;stroke-linecap:butt;stroke-linejoin:round;stroke-miterlimit:4;stroke-dasharray:none;stroke-opacity:1" />
      <path
         id="path2576"
         d="M 73.252533,-109.45662 L 74.929788,-105.00333"
         style="fill:none;fill-opacity:1;stroke:#000000;stroke-width:0.5;stroke-linecap:butt;stroke-linejoin:round;stroke-miterlimit:4;stroke-dasharray:none;stroke-opacity:1" />
      <path
         transform="matrix(0.25,0,0,0.25,28.990952,-249.05799)"
         d="M 217.42017,663.29449 A 7.7650065,7.3563218 0 1 1 201.89016,663.29449 A 7.7650065,7.3563218 0 1 1 217.42017,663.29449 z"
         sodipodi:ry="7.3563218"
         sodipodi:rx="7.7650065"
         sodipodi:cy="663.29449"
         sodipodi:cx="209.65517"
         id="path3069"
         style="fill:#fcef3c;fill-opacity:1;stroke:#000000;stroke-width:3;stroke-linecap:butt;stroke-linejoin:round;stroke-miterlimit:4;stroke-dasharray:none;stroke-opacity:1"
         sodipodi:type="arc" />
      <path
         transform="matrix(0.25,0,0,0.25,33.21385,-249.05799)"
         d="M 217.42017,663.29449 A 7.7650065,7.3563218 0 1 1 201.89016,663.29449 A 7.7650065,7.3563218 0 1 1 217.42017,663.29449 z"
         sodipodi:ry="7.3563218"
         sodipodi:rx="7.7650065"
         sodipodi:cy="663.29449"
         sodipodi:cx="209.65517"
         id="path3071"
         style="fill:#fcef3c;fill-opacity:1;stroke:#000000;stroke-width:3;stroke-linecap:butt;stroke-linejoin:round;stroke-miterlimit:4;stroke-dasharray:none;stroke-opacity:1"
         sodipodi:type="arc" />
    </g>
    <use
       x="0"
       y="0"
       xlink:href="#g3156"
       id="use3174"
       transform="translate(0,126)"
       width="600"
       height="660" />
    <use
       x="0"
       y="0"
       xlink:href="#g3156"
       id="use3176"
       transform="translate(-188,0)"
       width="600"
       height="660" />
    <g
       id="g3398"
       inkscape:label="Meubles"
       transform="matrix(-0.4,0,0,0.4,16.238113,50.767932)">
      <g
         style="display:inline"
         id="g33914"
         transform="translate(1.0867754,-2)">
        <path
           sodipodi:nodetypes="ccccssccssccsccsssscscccscccsscccssccsssccscsssccssscccsccsssccccc"
           id="path7687"
           style="fill:#010101;stroke:#313131;stroke-width:3;stroke-miterlimit:4;stroke-dasharray:none"
           d="M 308.54588,365.12067 C 309.20782,366.61528 321.87216,408.36714 322.50571,409.90304 C 323.21414,411.72317 326.29715,417.36956 326.84743,418.51191 C 328.83074,422.43954 328.91336,427.54387 327.07148,432.49791 C 325.97855,435.1751 324.67134,439.59788 324.2591,441.50235 C 323.84685,443.40809 323.89587,445.84519 323.66072,447.95377 C 323.25022,451.66674 319.41544,505.85944 319.48234,509.24617 C 318.93084,517.34475 318.10316,525.49864 317.30191,533.38594 C 317.30191,533.38594 315.5576,547.00806 316.23281,548.29651 C 316.47334,548.7592 317.49876,550.74669 320.05988,551.64543 C 324.655,553.25462 334.11209,555.21475 334.11209,555.21475 L 332.96371,558.38761 C 332.96371,558.38761 331.45707,558.50845 330.91143,558.55878 C 329.88084,558.64864 327.69413,558.7969 327.69413,558.7969 L 327.63178,558.78633 C 327.63178,558.78633 323.15792,557.66908 321.26443,557.21778 C 318.82476,556.63681 316.29989,556.03462 313.85656,555.2439 C 313.13329,555.02277 312.36351,554.91965 311.52004,554.93437 C 309.71721,554.96584 297.65714,558.68596 293.83475,559.72399 C 290.17805,560.7196 269.94141,566.80219 263.58201,568.2866 C 263.58201,568.2866 259.52109,569.68169 258.01031,570.56539 C 256.4746,571.46895 254.88558,572.39804 253.03035,572.76713 C 252.66339,572.81499 252.3297,572.83895 251.99307,572.84483 L 251.99307,572.84483 C 250.44919,572.87178 248.94509,572.54384 247.48782,572.22932 C 246.92562,572.10898 245.22729,571.78313 245.22729,571.78313 L 245.46066,568.71947 C 245.46066,568.71947 255.10876,566.15325 259.37929,565.56393 C 263.06815,565.03785 266.62882,563.69619 270.07296,562.3941 C 271.93527,561.69009 273.86126,560.96105 275.79797,560.36454 C 277.50851,559.83154 279.14252,559.18072 280.68528,558.42146 C 278.10675,558.9372 275.26607,559.38373 271.90579,559.81536 C 268.73709,560.50073 256.89873,562.41815 254.2479,562.94619 C 252.73796,563.17456 251.37959,563.29474 250.06551,563.31768 C 248.86469,563.33864 247.70385,563.27409 246.61339,563.12476 C 245.2516,562.93744 243.11036,560.0143 243.11036,560.0143 L 243.93334,559.71631 C 245.97188,558.9814 248.18314,558.49536 250.72535,558.23537 C 251.93988,558.11185 255.68142,558.00574 255.88984,558.0021 C 259.65149,557.93644 263.44462,557.29848 267.11384,556.68595 C 268.90939,556.38655 270.76816,556.07308 272.6068,555.83118 C 272.6068,555.83118 278.39695,555.34419 280.62004,554.38589 C 280.06822,554.45381 274.04595,555.0342 273.42647,555.04501 C 269.98653,555.10506 266.42749,555.16718 262.924,554.7388 C 262.23732,554.79613 261.54625,554.86128 260.85455,554.92775 C 258.79296,555.12174 256.66027,555.32343 254.54609,555.36033 C 251.90756,555.40639 248.19207,555.0743 247.41955,554.55486 C 246.64512,554.03612 244.49088,551.40784 244.49088,551.40784 L 245.50411,551.13825 C 246.40058,550.89599 247.349,550.77194 248.4074,550.75346 C 249.87747,550.7278 251.36421,550.91424 252.79777,551.09511 C 254.21962,551.27234 255.67005,551.45618 257.0696,551.43175 C 257.96354,551.41615 258.7661,551.31991 259.5231,551.13575 L 259.57724,551.12118 L 259.63156,551.11765 C 265.68989,550.7121 278.98272,549.28343 279.89158,549.26756 C 286.42445,549.15353 292.59904,547.43211 297.74447,544.28789 C 301.97078,541.49774 305.41736,537.47858 306.97107,532.30166 C 308.07705,528.55516 308.63567,524.64792 309.07989,520.97579 C 309.28807,519.21411 310.1408,458.44535 309.9459,452.32506 C 309.75166,446.20475 308.32293,431.27562 308.0752,428.84329 C 307.76555,425.75674 307.44164,422.55841 307.64689,419.36704 C 307.75624,417.95222 309.07339,413.2819 309.22267,412.26332 C 308.77798,409.19401 307.71545,406.19248 306.68824,403.28618 L 294.33524,362.60215 L 308.54588,365.12067 z" />
        <path
           d="M 315.48247,375.64637 L 311.60884,349.70256 L 274.24045,299.63953 C 275.43601,301.39611 296.10753,371.51672 298.57005,378.29082 C 299.17612,379.81165 308.36665,371.55302 304.68646,372.45094 L 315.48247,375.64637 z"
           style="fill:#fcef3c;stroke:#000000;stroke-width:4;stroke-miterlimit:4;stroke-dasharray:none;stroke-opacity:1"
           id="path7540"
           sodipodi:nodetypes="cccccc" />
        <path
           d="M 146.04565,130.52528 C 145.79674,130.54706 145.5567,130.40493 145.45804,130.16726 C 145.34516,129.89571 145.45171,129.58352 145.70804,129.43762 C 148.86592,127.64056 223.11447,85.388846 229.62275,82.663726 C 229.67914,82.639938 229.73898,82.625592 229.7964,82.620589 C 229.99696,82.603026 227.46922,83.205973 227.59202,83.376556 C 229.46048,85.96154 234.29649,88.082503 237.04293,89.8498 C 238.98312,91.077986 240.79334,93.279429 239.4866,95.436383 C 237.92842,98.492743 237.14573,101.66971 237.18091,104.84272 C 237.18406,105.1089 237.00629,105.34284 236.74845,105.41151 C 233.21637,106.3568 147.02095,130.26318 146.15112,130.50501 C 146.11756,130.51574 146.08109,130.52218 146.04565,130.52528 L 146.04565,130.52528 z"
           style="fill:#010101;stroke:#313131;stroke-width:3;stroke-miterlimit:4;stroke-dasharray:none"
           id="path7550"
           sodipodi:nodetypes="csssssccssscc" />
        <path
           d="M 336.28782,378.2465 C 336.94977,379.74112 345.92003,421.55746 346.55357,423.09335 C 347.262,424.91349 350.34502,430.55988 350.8953,431.70223 C 352.8786,435.62985 352.96122,440.73419 351.11935,445.68823 C 350.02642,448.36541 348.7192,452.7882 348.30695,454.69266 C 347.89472,456.59841 347.94374,459.0355 347.70858,461.14409 C 347.29808,464.85706 343.46331,519.04976 343.53021,522.43649 C 342.9787,530.53507 342.15102,538.68895 341.34977,546.57626 C 341.34977,546.57626 339.60547,560.19838 340.28067,561.48683 C 340.52121,561.94952 341.54663,563.93701 344.10774,564.83575 C 348.70287,566.44494 358.15995,568.40507 358.15995,568.40507 L 357.01157,571.57793 C 357.01157,571.57793 355.50494,571.69876 354.9593,571.74909 C 353.9287,571.83895 351.74199,571.98722 351.74199,571.98722 L 351.67964,571.97665 C 351.67964,571.97665 347.20578,570.8594 345.3123,570.40809 C 342.87263,569.82712 340.34775,569.22494 337.90442,568.43422 C 337.18115,568.21309 336.41137,568.10997 335.5679,568.12469 C 333.76508,568.15616 321.70501,571.87628 317.88262,572.91431 C 314.22592,573.90992 293.98927,579.9925 287.62987,581.47692 C 287.62987,581.47692 283.56896,582.872 282.05817,583.7557 C 280.52247,584.65926 278.93344,585.58836 277.07822,585.95745 C 276.71126,586.0053 276.37757,586.02927 276.04094,586.03515 L 276.04094,586.03515 C 274.49705,586.06209 272.99296,585.73415 271.53569,585.41964 C 270.97348,585.29929 269.27516,584.97344 269.27516,584.97344 L 269.50853,581.90978 C 269.50853,581.90978 279.15663,579.34357 283.42715,578.75425 C 287.11601,578.22817 290.67668,576.8865 294.12082,575.58442 C 295.98314,574.88041 297.90913,574.15136 299.84583,573.55485 C 301.55637,573.02186 303.19038,572.37104 304.73315,571.61178 C 302.15461,572.12752 299.31393,572.57405 295.95365,573.00568 C 292.78495,573.69104 280.94659,575.60846 278.29577,576.13651 C 276.78582,576.36487 275.42745,576.48506 274.11337,576.50799 C 272.91256,576.52896 271.75171,576.4644 270.66126,576.31507 C 269.29946,576.12775 267.15822,573.20462 267.15822,573.20462 L 267.98121,572.90663 C 270.01975,572.17172 272.231,571.68567 274.77321,571.42568 C 275.98774,571.30217 279.72928,571.19605 279.93771,571.19242 C 283.69936,571.12676 287.49248,570.4888 291.16171,569.87627 C 292.95726,569.57687 294.81603,569.2634 296.65467,569.02149 C 296.65467,569.02149 302.44481,568.53451 304.6679,567.5762 C 304.11609,567.64413 298.09382,568.22452 297.47433,568.23533 C 294.0344,568.29537 290.47536,568.3575 286.97187,567.92912 C 286.28518,567.98645 285.59412,568.0516 284.90241,568.11806 C 282.84082,568.31205 280.70814,568.51374 278.59396,568.55065 C 275.95542,568.5967 272.23994,568.26462 271.46742,567.74518 C 270.69299,567.22644 268.53875,564.59815 268.53875,564.59815 L 269.55198,564.32857 C 270.44845,564.0863 271.39687,563.96225 272.45526,563.94378 C 273.92534,563.91812 275.41208,564.10456 276.84564,564.28543 C 278.26748,564.46266 279.71791,564.6465 281.11746,564.62207 C 282.0114,564.60646 282.81397,564.51022 283.57097,564.32606 L 283.6251,564.31149 L 283.67943,564.30797 C 289.73775,563.90241 303.03059,562.47374 303.93945,562.45788 C 310.47231,562.34385 316.64691,560.62242 321.79234,557.4782 C 326.01865,554.68806 329.46523,550.6689 331.01894,545.49197 C 332.12492,541.74548 332.68353,537.83823 333.12775,534.1661 C 333.33594,532.40442 334.18867,471.63566 333.99376,465.51537 C 333.79952,459.39507 332.37079,444.46593 332.12307,442.0336 C 331.81341,438.94706 331.4895,435.74872 331.69476,432.55736 C 331.8041,431.14253 333.12125,426.47221 333.27054,425.45363 C 332.82585,422.38433 331.76332,419.38279 330.7361,416.4765 L 322.06633,375.10622 L 336.28782,378.2465 z"
           style="fill:#010101;stroke:#313131;stroke-width:3;stroke-miterlimit:4;stroke-dasharray:none"
           id="path7564"
           sodipodi:nodetypes="ccccssccssccsccscsscscccscccsscccssccsssccscsssccssscccsccsssccccc" />
        <path
           sodipodi:nodetypes="cssss"
           id="path7689"
           style="fill:#010101;stroke:#313131;stroke-width:3;stroke-miterlimit:4;stroke-dasharray:none"
           d="M 348.05411,104.52474 C 348.13833,104.35643 300.12465,73.050614 296.44067,70.43909 C 288.0287,64.475931 296.36817,70.409571 296.33172,70.403806 C 296.20445,70.383685 290.7892,82.237439 290.62508,84.261652 C 290.61119,84.43148 347.98051,104.67209 348.05411,104.52474 z" />
        <path
           d="M 409.6653,317.29223 C 430.60853,346.77763 435.45963,373.4306 452.40281,424.03017 C 448.69484,430.29726 450.38484,434.68051 440.33971,429.93268 C 440.33971,429.93268 393.70991,382.45303 382.84589,381.42854 L 339.99318,358.0355 C 340.05351,359.74783 340.54173,381.02793 340.44124,382.50411 C 340.40763,384.99381 328.58566,376.64742 327.94875,378.99936 L 321.05898,384.40492 L 309.26103,357.7359 C 305.24325,357.52241 302.10679,355.15799 299.07856,352.87391 C 298.75697,352.62763 287.86358,321.00603 287.45067,320.38642 C 286.13742,318.41754 257.44,285.43817 255.58621,283.07012 C 253.53674,280.28527 255.79457,286.65381 250.30493,289.8096 C 249.38208,291.361 249.59361,267.17591 247.81594,268.42624 C 245.49836,270.05444 241.39666,281.14279 241.39666,281.14279 C 241.39666,281.14279 243.55014,253.11456 240.97628,255.67969 C 238.24777,258.39708 234.71022,266.85407 234.71022,266.85407 C 234.71022,266.85407 237.24945,239.46042 237.23085,239.24902 C 236.56727,240.36981 229.33999,254.66214 229.33999,254.66214 C 229.33999,254.66214 229.14421,230.34865 228.8637,227.85603 C 228.13653,229.26545 223.52005,236.74068 223.52005,236.74068 C 227.62955,208.6456 200.49666,124.18653 269.32112,113.83572 C 282.787,112.0725 284.90746,85.65667 244.53411,104.75443 C 242.41787,103.41276 232.64722,107.59426 233.56507,105.6078 C 234.86753,102.98911 236.68757,96.490694 238.78063,94.613219 C 238.72112,94.615558 234.47569,96.752456 232.01573,94.488904 C 229.7354,92.391862 227.82126,89.940034 227.57857,89.242344 C 226.79925,88.155959 224.4352,75.727225 234.78049,67.88514 C 241.24198,61.789163 256.05587,56.980032 263.38107,56.852171 C 280.58589,56.551859 300.67489,71.477091 306.03802,78.500001 C 331.05377,125.97561 279.79221,136.50761 270.67913,145.08536 C 257.21086,157.76247 260.07913,179.7947 268.70318,192.59934 C 274.64965,201.42845 279.31773,161.07075 295.81096,163.5556 C 324.98736,149.06634 440.34415,312.9099 437.42079,329.6192 L 409.6653,317.29223 z"
           style="fill:#fcef3c;stroke:#010101;stroke-width:3;stroke-miterlimit:4;stroke-dasharray:none"
           id="path7566"
           sodipodi:nodetypes="cccscccccssccscscccccccccsccscssccc" />
        <path
           d="M 145.72135,130.56478 C 145.72135,130.56478 236.95623,95.204369 240.11829,94.338272"
           style="fill:#010101;stroke:#313131;stroke-width:3;stroke-miterlimit:4;stroke-dasharray:none"
           id="path7570"
           sodipodi:nodetypes="cs" />
        <path
           d="M 273.5728,70.350496 C 273.19468,69.685614 267.18537,70.821364 267.18537,70.821364 C 263.44935,71.613767 259.66658,72.399185 255.91269,72.46343 C 255.50681,72.470514 255.10208,72.469798 254.69849,72.45938 L 254.66676,72.458633 L 254.62984,72.459278 C 252.69476,72.518299 250.04429,72.696023 247.66044,73.940736 C 243.89848,75.76963 242.07349,79.242449 240.25264,82.544271 C 239.54039,83.844639 238.81989,85.155513 238.03715,86.31143 L 237.76444,86.714411 L 236.7272,88.240626 L 239.30584,89.623413 C 239.30584,89.623413 242.01442,86.356624 242.87848,85.629253 C 243.74454,84.905728 244.63217,84.451208 245.80471,84.369872 C 246.18762,84.420177 246.5882,84.480535 247.00046,84.541329 C 248.22937,84.721249 249.55583,84.92539 250.89843,84.904535 C 252.60821,84.883772 254.12014,84.435817 255.3266,83.477136 C 256.71567,82.333319 257.6303,80.905079 258.54833,79.522786 C 259.79017,77.624544 260.95897,75.919286 262.77471,74.957731 C 263.80769,74.595868 264.87868,74.260525 265.92711,73.932058 C 266.56339,73.731882 273.95158,71.016027 273.5728,70.350496 z"
           style="fill:#010101;stroke-width:2;stroke-miterlimit:4;stroke-dasharray:none"
           id="path7576" />
        <path
           d="M 248.59937,79.269061 C 248.14048,78.836104 249.07883,77.096643 249.4089,76.75287 C 250.18933,75.945386 252.25763,75.543428 252.6953,76.207271 C 253.13295,76.871114 253.03107,77.9711 252.00577,78.660499 C 251.41759,79.056684 249.21952,79.852027 248.59937,79.269061 z"
           style="fill:#fffdfd;stroke-width:2;stroke-miterlimit:4;stroke-dasharray:none"
           id="path7578" />
        <path
           d="M 412.89739,367.47424 C 412.79896,353.81206 314.12298,252.01265 293.37609,251.6533 C 284.57139,251.5008 276.56403,265.32927 275.29042,278.94963 C 274.01684,292.56997 280.29258,305.84295 291.0848,305.8702 C 301.8783,305.89743 300.70438,300.52204 300.70438,300.52204"
           style="fill:none;stroke:#010101;stroke-width:3;stroke-miterlimit:4;stroke-dasharray:none"
           id="path7580"
           sodipodi:nodetypes="csssc" />
        <path
           d="M 431.13284,401.50861 C 428.93512,403.33059 402.53164,370.00994 396.4679,369.30525 C 369.40203,366.15996 297.31742,280.11642 298.9694,280.02854"
           style="fill:none;stroke:#010101;stroke-width:3;stroke-miterlimit:4;stroke-dasharray:none"
           id="path7588"
           sodipodi:nodetypes="csc" />
        <path
           d="M 300.96536,313.65807 C 300.96536,313.65807 342.13963,338.85792 343.42482,345.33799 C 344.34115,349.95819 376.96659,376.20533 387.11093,377.86424 C 392.89682,378.81041 396.35461,375.76028 396.35461,375.76028"
           style="fill:none;stroke:#010101;stroke-width:3;stroke-miterlimit:4;stroke-dasharray:none"
           id="path7590"
           sodipodi:nodetypes="cssc" />
      </g>
    </g>
    <g
       id="g4804">
      <g
         transform="matrix(0.8191521,0.5735765,-0.5735765,0.8191521,-976.92049,169.05657)"
         id="g4780">
        <path
           sodipodi:nodetypes="cssccccccsc"
           id="path4125"
           d="M 617.88248,-687.06956 C 617.92047,-684.1186 620.65718,-679.68482 628.55448,-673.41836 C 632.55774,-670.2418 630.4424,-663.7988 627.53048,-659.16236 C 615.45312,-639.93247 615.26929,-623.2317 634.74648,-612.60716 L 649.08248,-612.60716 L 663.41848,-612.60716 C 682.89567,-623.2317 682.69584,-639.93247 670.61848,-659.16236 C 663.12679,-658.26051 661.54509,-678.3968 666.39962,-683.38316 C 663.72007,-685.6943 663.48727,-686.2709 661.94664,-688.18809 C 657.2704,-685.386 651.51075,-682.76441 649.08248,-682.70636 C 637.20259,-682.42236 625.34558,-688.91032 617.88248,-687.06956 z"
           style="fill:#fcef3c;fill-opacity:1;stroke:#000000;stroke-width:2;stroke-miterlimit:4;stroke-dasharray:none;stroke-opacity:1" />
        <path
           sodipodi:nodetypes="csscccssc"
           id="path4901"
           d="M 661.94664,-688.18809 C 670.3173,-693.32624 677.26798,-696.56961 685.24991,-691.71665 C 692.07012,-687.57001 694.799,-678.32232 690.35813,-670.99233 C 685.9955,-663.79146 681.2882,-662.43224 676.23091,-656.43462 C 674.98732,-655.2094 675.13013,-652.73642 675.1145,-650.40603 L 670.61848,-659.16236 C 675.73218,-665.66924 680.38772,-667.75709 683.97867,-671.56648 C 687.98907,-675.82085 689.06871,-682.29253 682.91986,-687.013 C 676.87074,-691.65691 671.9376,-687.77258 666.39962,-683.38316"
           style="fill:#fcef3c;fill-opacity:1;stroke:#000000;stroke-width:2;stroke-miterlimit:4;stroke-dasharray:none;stroke-opacity:1" />
      </g>
      <g
         transform="matrix(0.8191521,0.5735765,-0.5735765,0.8191521,-983.4737,164.46796)"
         style="stroke:#000000;stroke-width:2;stroke-opacity:1"
         id="g4770">
        <path
           style="fill:#fcef3c;fill-opacity:1;stroke:#000000;stroke-width:2;stroke-linecap:butt;stroke-linejoin:round;stroke-miterlimit:4;stroke-dasharray:none;stroke-opacity:1"
           d="M 505.53205,-686.02479 C 505.53205,-686.02479 506.68562,-684.57978 508.1258,-682.516 C 506.51821,-682.28989 504.10663,-681.81658 501.5008,-680.74457 C 499.33836,-679.85498 497.05653,-678.56625 495.1883,-676.48633 C 493.32007,-674.40641 491.92699,-671.38781 491.90705,-667.86765 C 491.88545,-664.05482 493.53092,-660.44667 495.0008,-657.17095 C 496.47068,-653.89522 497.9383,-651.24348 497.9383,-651.24348 L 498.3133,-650.59622 C 496.67442,-648.61797 495.55901,-646.53101 495.4383,-644.19183 C 494.85992,-632.9835 514.12583,-612.78302 514.1258,-612.78304 L 527.28205,-612.78304 L 531.28205,-612.78304 L 544.4383,-612.78304 C 544.43827,-612.78302 563.70418,-632.9835 563.1258,-644.19183 C 563.00509,-646.53101 561.88968,-648.61797 560.2508,-650.59622 L 560.6258,-651.24348 C 560.6258,-651.24348 562.09342,-653.89522 563.5633,-657.17095 C 565.03318,-660.44667 566.67865,-664.05482 566.65705,-667.86765 C 566.63711,-671.38781 565.24403,-674.40641 563.3758,-676.48633 C 561.50757,-678.56625 559.22574,-679.85498 557.0633,-680.74457 C 554.45747,-681.81658 552.04589,-682.28989 550.4383,-682.516 C 551.87848,-684.57978 553.03205,-686.02479 553.03205,-686.02479 L 531.28205,-686.02479 L 527.28205,-686.02479 L 505.53205,-686.02479 z M 511.9383,-676.316 C 513.30013,-673.68002 514.29901,-670.98067 514.1258,-668.95776 C 513.66048,-663.52291 507.86022,-659.3863 502.84455,-655.05886 C 502.5623,-655.58133 501.56572,-657.45032 500.40705,-660.03249 C 499.07303,-663.00545 497.90127,-666.81268 497.90705,-667.83359 C 497.91748,-669.67546 498.47981,-670.81961 499.46955,-671.9215 C 500.45929,-673.02338 501.96155,-673.94092 503.59455,-674.61271 C 506.86056,-675.9563 510.28205,-676.21381 510.28205,-676.21381 L 511.9383,-676.316 z M 546.6258,-676.316 L 548.28205,-676.21381 C 548.28205,-676.21381 551.70354,-675.9563 554.96955,-674.61271 C 556.60255,-673.94092 558.10481,-673.02338 559.09455,-671.9215 C 560.08429,-670.81961 560.64662,-669.67546 560.65705,-667.83359 C 560.66283,-666.81268 559.49107,-663.00545 558.15705,-660.03249 C 556.99838,-657.45032 556.0018,-655.58133 555.71955,-655.05886 C 550.70388,-659.3863 544.90362,-663.52291 544.4383,-668.95776 C 544.26509,-670.98067 545.26397,-673.68002 546.6258,-676.316 z"
           id="path3964" />
        <rect
           style="fill:#fcef3c;fill-opacity:1;stroke:#000000;stroke-width:2;stroke-linecap:square;stroke-linejoin:round;stroke-miterlimit:4;stroke-dasharray:none;stroke-opacity:1"
           id="rect4746"
           width="52.447285"
           height="5.7056098"
           x="503.11914"
           y="-691.14789"
           rx="0"
           ry="2.8528049" />
      </g>
      <path
         sodipodi:nodetypes="ccsccsccc"
         id="path4756"
         d="M 48.181865,43.009287 L 45.592257,51.553175 C 45.592257,51.553175 19.617509,51.677458 11.755732,61.00347 C 2.3278926,72.187199 5.1273031,108.63536 5.1273007,108.63535 L 24.031275,121.87206 C 24.031269,121.87206 59.26437,112.05455 66.549127,99.37022 C 72.623825,88.792883 63.856728,64.342095 63.856728,64.342095 L 70.999658,58.986479 L 48.181865,43.009287 z"
         style="fill:#fcef3c;fill-opacity:1;stroke:#000000;stroke-width:2.00000024;stroke-linecap:square;stroke-linejoin:round;stroke-miterlimit:4;stroke-dasharray:none;stroke-opacity:1" />
      <path
         sodipodi:nodetypes="cssccsscc"
         id="path4761"
         d="M 141.00559,108.05396 C 141.00559,108.05396 137.08268,134.95538 129.79535,143.74653 C 125.09253,149.41983 113.21992,148.73023 108.85415,154.67781 C 104.46311,160.65984 104.5853,178.22779 104.5853,178.2278 L 138.56215,202.01865 C 138.56216,202.01864 155.11242,196.12487 159.23186,189.95267 C 163.3276,183.816 158.6189,172.89525 162.3416,166.53566 C 168.11018,156.68106 192.07306,143.81179 192.07306,143.81179 L 141.00559,108.05396 z"
         style="fill:#fcef3c;fill-opacity:1;stroke:#000000;stroke-width:2.00000024;stroke-linecap:square;stroke-linejoin:round;stroke-miterlimit:4;stroke-dasharray:none;stroke-opacity:1" />
    </g>
  </g>
  <g
     id="layer2"
     inkscape:label="Reflet final"
     inkscape:groupmode="layer"
     transform="translate(300,300)"
     sodipodi:insensitive="true">
    <use
       xlink:href="#shield"
       id="use22"
       style="fill:url(#Gradient1)"
       x="0"
       y="0"
       width="600"
       height="660" />
  </g>
  <g
     id="layer1"
     inkscape:label="Contour final"
     inkscape:groupmode="layer"
     transform="translate(300,300)"
     sodipodi:insensitive="true">
    <use
       xlink:href="#shield"
       style="fill:none;stroke:#000000;stroke-width:3"
       id="use25"
       x="0"
       y="0"
       width="600"
       height="660" />
  </g>
</svg>
