<?xml version="1.0" encoding="UTF-8" standalone="no"?>
<svg
   xmlns:dc="http://purl.org/dc/elements/1.1/"
   xmlns:cc="http://web.resource.org/cc/"
   xmlns:rdf="http://www.w3.org/1999/02/22-rdf-syntax-ns#"
   xmlns:svg="http://www.w3.org/2000/svg"
   xmlns="http://www.w3.org/2000/svg"
   xmlns:xlink="http://www.w3.org/1999/xlink"
   xmlns:sodipodi="http://sodipodi.sourceforge.net/DTD/sodipodi-0.dtd"
   xmlns:inkscape="http://www.inkscape.org/namespaces/inkscape"
   height="660"
   width="600"
   version="1.0"
   id="svg2"
   sodipodi:version="0.32"
   inkscape:version="0.45.1"
   sodipodi:docname="Blason_ville_fr_Eppe-Sauvage_(Nord).svg"
   sodipodi:docbase="C:\Documents and Settings\Propiétaire\Mes documents\Mes images\Blasons\SVG"
   inkscape:export-filename="/Users/olivier/Desktop/Blason Rouge/Blason_Vide_3D.png"
   inkscape:export-xdpi="144"
   inkscape:export-ydpi="144"
   inkscape:output_extension="org.inkscape.output.svg.inkscape">
  <metadata
     id="metadata49">
    <rdf:RDF>
      <cc:Work
         rdf:about="">
        <dc:format>image/svg+xml</dc:format>
        <dc:type
           rdf:resource="http://purl.org/dc/dcmitype/StillImage" />
        <dc:title>Gabarit d'un blason en pointe pour le projet Blasons de Wikipédia</dc:title>
        <dc:date>03-AUG-2006</dc:date>
        <dc:creator>
          <cc:Agent>
            <dc:title>Jérôme BLUM (wagner51)</dc:title>
          </cc:Agent>
        </dc:creator>
        <cc:license
           rdf:resource="http://web.resource.org/cc/PublicDomain" />
        <dc:language>fr</dc:language>
        <dc:subject>
          <rdf:Bag>
            <rdf:li>gabarit modèle blason projet wikipédia</rdf:li>
          </rdf:Bag>
        </dc:subject>
      </cc:Work>
      <cc:License
         rdf:about="http://web.resource.org/cc/PublicDomain">
        <cc:permits
           rdf:resource="http://web.resource.org/cc/Reproduction" />
        <cc:permits
           rdf:resource="http://web.resource.org/cc/Distribution" />
        <cc:permits
           rdf:resource="http://web.resource.org/cc/DerivativeWorks" />
      </cc:License>
    </rdf:RDF>
  </metadata>
  <sodipodi:namedview
     inkscape:window-height="838"
     inkscape:window-width="1152"
     inkscape:pageshadow="2"
     inkscape:pageopacity="0.0"
     guidetolerance="10.0"
     gridtolerance="10.0"
     objecttolerance="10.0"
     borderopacity="1.0"
     bordercolor="#666666"
     pagecolor="#ffffff"
     id="base"
     showgrid="false"
     height="660px"
     inkscape:zoom="0.50606061"
     inkscape:cx="300"
     inkscape:cy="352.49312"
     inkscape:window-x="0"
     inkscape:window-y="0"
     inkscape:current-layer="g6187" />
  <desc
     id="desc4">Flag of Canton of Valais (Wallis)</desc>
  <defs
     id="defs6">
    <linearGradient
       id="linearGradient2893">
      <stop
         style="stop-color:white;stop-opacity:0.3137255;"
         offset="0"
         id="stop2895" />
      <stop
         id="stop2897"
         offset="0.19"
         style="stop-color:white;stop-opacity:0.25098041;" />
      <stop
         style="stop-color:#6b6b6b;stop-opacity:0.1254902;"
         offset="0.60000002"
         id="stop2901" />
      <stop
         style="stop-color:black;stop-opacity:0.1254902;"
         offset="1"
         id="stop2899" />
    </linearGradient>
    <linearGradient
       id="linearGradient2885">
      <stop
         id="stop2887"
         offset="0"
         style="stop-color:white;stop-opacity:1;" />
      <stop
         style="stop-color:white;stop-opacity:1;"
         offset="0.22857143"
         id="stop2891" />
      <stop
         id="stop2889"
         offset="1"
         style="stop-color:black;stop-opacity:1;" />
    </linearGradient>
    <linearGradient
       id="linearGradient2955">
      <stop
         id="stop2867"
         offset="0"
         style="stop-color:#fd0000;stop-opacity:1;" />
      <stop
         style="stop-color:#e77275;stop-opacity:0.65882355;"
         offset="0.5"
         id="stop2873" />
      <stop
         style="stop-color:black;stop-opacity:0.32291666;"
         offset="1"
         id="stop2959" />
    </linearGradient>
    <radialGradient
       inkscape:collect="always"
       xlink:href="#linearGradient2955"
       id="radialGradient2961"
       cx="225.52438"
       cy="218.90099"
       fx="225.52438"
       fy="218.90099"
       r="300"
       gradientTransform="matrix(-4.167939e-4,2.182867,-1.884232,-3.599562e-4,615.5972,-289.1214)"
       gradientUnits="userSpaceOnUse" />
    <polygon
       id="star"
       transform="scale(53,53)"
       points="0,-1 0.58778525,0.80901699 -0.95105652,-0.30901699 0.95105652,-0.30901699 -0.58778525,0.80901699 0,-1 " />
    <clipPath
       id="clip">
      <path
         d="M 0,-200 L 0,600 L 300,600 L 300,-200 L 0,-200 z "
         id="path10" />
    </clipPath>
    <radialGradient
       inkscape:collect="always"
       xlink:href="#linearGradient2955"
       id="radialGradient1911"
       gradientUnits="userSpaceOnUse"
       gradientTransform="matrix(-4.167939e-4,2.182867,-1.884232,-3.599562e-4,615.5972,-289.1214)"
       cx="225.52438"
       cy="218.90099"
       fx="225.52438"
       fy="218.90099"
       r="300" />
    <radialGradient
       inkscape:collect="always"
       xlink:href="#linearGradient2955"
       id="radialGradient2865"
       gradientUnits="userSpaceOnUse"
       gradientTransform="matrix(0,1.748721,-1.593162,-1.049767e-7,551.7876,-191.2898)"
       cx="225.52438"
       cy="218.90099"
       fx="225.52438"
       fy="218.90099"
       r="300" />
    <radialGradient
       inkscape:collect="always"
       xlink:href="#linearGradient2955"
       id="radialGradient2871"
       gradientUnits="userSpaceOnUse"
       gradientTransform="matrix(0,1.386237,-1.323286,-5.741131e-8,-158.0823,-109.5408)"
       cx="225.52438"
       cy="218.90099"
       fx="225.52438"
       fy="218.90099"
       r="300" />
    <radialGradient
       inkscape:collect="always"
       xlink:href="#linearGradient2893"
       id="radialGradient3163"
       gradientUnits="userSpaceOnUse"
       gradientTransform="matrix(1.353218,0,0,1.348928,-77.62935,-85.74693)"
       cx="221.44487"
       cy="226.33101"
       fx="221.44487"
       fy="226.33101"
       r="300" />
    <filter
       inkscape:collect="always"
       id="filter3156">
      <feGaussianBlur
         inkscape:collect="always"
         stdDeviation="3.1350001"
         id="feGaussianBlur3158" />
    </filter>
    <radialGradient
       r="300"
       fy="218.90099"
       fx="225.52438"
       cy="218.90099"
       cx="225.52438"
       gradientTransform="matrix(0,1.386237,-1.323286,-5.741131e-8,-158.0823,-109.5408)"
       gradientUnits="userSpaceOnUse"
       id="radialGradient6185"
       xlink:href="#linearGradient2955"
       inkscape:collect="always" />
    <radialGradient
       r="300"
       fy="218.90099"
       fx="225.52438"
       cy="218.90099"
       cx="225.52438"
       gradientTransform="matrix(0,1.748721,-1.593162,-1.049767e-7,551.7876,-191.2898)"
       gradientUnits="userSpaceOnUse"
       id="radialGradient6183"
       xlink:href="#linearGradient2955"
       inkscape:collect="always" />
    <radialGradient
       r="300"
       fy="218.90099"
       fx="225.52438"
       cy="218.90099"
       cx="225.52438"
       gradientTransform="matrix(-4.167939e-4,2.182867,-1.884232,-3.599562e-4,615.5972,-289.1214)"
       gradientUnits="userSpaceOnUse"
       id="radialGradient6181"
       xlink:href="#linearGradient2955"
       inkscape:collect="always" />
    <clipPath
       id="clipPath6177">
      <path
         id="path6179"
         d="M 0,-200 L 0,600 L 300,600 L 300,-200 L 0,-200 z " />
    </clipPath>
    <polygon
       points="0,-1 0.58778525,0.80901699 -0.95105652,-0.30901699 0.95105652,-0.30901699 -0.58778525,0.80901699 0,-1 "
       transform="scale(53,53)"
       id="polygon6175" />
    <radialGradient
       gradientUnits="userSpaceOnUse"
       gradientTransform="matrix(-4.167939e-4,2.182867,-1.884232,-3.599562e-4,615.5972,-289.1214)"
       r="300"
       fy="218.90099"
       fx="225.52438"
       cy="218.90099"
       cx="225.52438"
       id="radialGradient6173"
       xlink:href="#linearGradient2955"
       inkscape:collect="always" />
    <linearGradient
       id="linearGradient6165">
      <stop
         style="stop-color:#fd0000;stop-opacity:1;"
         offset="0"
         id="stop6167" />
      <stop
         id="stop6169"
         offset="0.5"
         style="stop-color:#e77275;stop-opacity:0.65882355;" />
      <stop
         id="stop6171"
         offset="1"
         style="stop-color:black;stop-opacity:0.32291666;" />
    </linearGradient>
    <linearGradient
       id="linearGradient6157">
      <stop
         style="stop-color:white;stop-opacity:1;"
         offset="0"
         id="stop6159" />
      <stop
         id="stop6161"
         offset="0.22857143"
         style="stop-color:white;stop-opacity:1;" />
      <stop
         style="stop-color:black;stop-opacity:1;"
         offset="1"
         id="stop6163" />
    </linearGradient>
    <linearGradient
       id="linearGradient6147">
      <stop
         id="stop6149"
         offset="0"
         style="stop-color:white;stop-opacity:0.3137255;" />
      <stop
         style="stop-color:white;stop-opacity:0.25098041;"
         offset="0.19"
         id="stop6151" />
      <stop
         id="stop6153"
         offset="0.60000002"
         style="stop-color:#6b6b6b;stop-opacity:0.1254902;" />
      <stop
         id="stop6155"
         offset="1"
         style="stop-color:black;stop-opacity:0.1254902;" />
    </linearGradient>
  </defs>
  <g
     inkscape:groupmode="layer"
     id="layer3"
     inkscape:label="Fond écu"
     style="display:inline">
    <path
       id="path2855"
       style="fill:#fcef3c;fill-opacity:1;fill-rule:evenodd;stroke:none;stroke-width:1px;stroke-linecap:butt;stroke-linejoin:miter;stroke-opacity:1;filter:url(#filter3156)"
       d="M 300,658.5 C 300,658.5 598.50001,546.17969 598.50001,260.72817 C 598.50001,-24.723354 598.50001,2.1764765 598.50001,2.1764765 L 1.5,2.1764765 L 1.5,260.72817 C 1.5,546.17969 300,658.5 300,658.5 z "
       sodipodi:nodetypes="cccccc" />
    <path
       style="fill:#e20909;fill-opacity:1;fill-rule:evenodd;stroke:#000000;stroke-width:0.99843222px;stroke-linecap:butt;stroke-linejoin:miter;stroke-opacity:1"
       d="M 62.244725,2.2222697 L 130.41994,2.2222697 L 130.41994,547.86007 C 114.81007,532.24934 124.1499,539.61142 103.24866,520.77515 C 86.204857,497.93766 110.412,530.87044 62.244725,466.85157 L 62.244725,2.2222697 z "
       id="path4149"
       sodipodi:nodetypes="cccccc" />
    <path
       id="path4151"
       d="M 196.15764,2.5049443 L 264.26152,2.5049443 L 264.26152,641.43966 C 264.26152,641.43966 249.24756,635.03328 232.22159,624.95394 C 215.19562,614.87461 231.97458,623.96972 196.15764,601.12231 L 196.15764,2.5049443 z "
       style="fill:#e20909;fill-opacity:1;fill-rule:evenodd;stroke:#000000;stroke-width:1.06976938px;stroke-linecap:butt;stroke-linejoin:miter;stroke-opacity:1"
       sodipodi:nodetypes="cccscc" />
    <path
       sodipodi:nodetypes="cccscc"
       style="fill:#e20909;fill-opacity:1;fill-rule:evenodd;stroke:#000000;stroke-width:1.0718174px;stroke-linecap:butt;stroke-linejoin:miter;stroke-opacity:1"
       d="M 399.39673,1.2709387 L 331.29489,1.2709387 L 331.29489,642.67367 C 331.29489,642.67367 346.3084,636.24254 363.33386,626.12427 C 380.35932,616.006 363.58086,625.13624 399.39673,602.20058 L 399.39673,1.2709387 z "
       id="path6095" />
    <path
       sodipodi:nodetypes="cccccc"
       id="path6097"
       d="M 538.63401,2.2222697 L 470.4588,2.2222697 L 470.4588,547.86007 C 486.06867,532.24934 476.72884,539.61142 497.63008,520.77515 C 514.67388,497.93766 490.46674,530.87044 538.63401,466.85157 L 538.63401,2.2222697 z "
       style="fill:#e20909;fill-opacity:1;fill-rule:evenodd;stroke:#000000;stroke-width:0.99843222px;stroke-linecap:butt;stroke-linejoin:miter;stroke-opacity:1" />
    <g
       id="g6187"
       transform="translate(147.57485,77.757017)">
      <g
         id="g8135"
         transform="translate(-148.44311,-77.377246)">
        <path
           id="path5919"
           d="M 1.125,1.1875 L 1.125,2.6875 L 1.125,260.75 C 1.1249999,546.7301 299.46875,659.21875 299.46875,659.21875 L 300,659.40625 L 300.53125,659.21875 C 300.53124,659.21874 598.875,546.7301 598.875,260.75 C 598.87499,118.28186 598.875,53.774112 598.875,24.875 C 598.87498,11.24761 598.875,6.4142837 598.875,4.1875 C 598.87498,4.0531529 598.875,3.0474811 598.875,2.9375 C 598.87498,2.4542739 598.875,2.2081231 598.875,2.09375 C 598.87498,2.0651617 598.875,2.0432583 598.875,2.03125 C 598.87498,2.0252509 598.875,2.0023557 598.875,2 C 598.87498,1.9998003 598.1222,1.9999301 597.375,2 L 597.375,1.1875 L 2.625,1.1875 L 1.125,1.1875 z M 149.5,33.90625 C 165.26891,34.314277 180.25381,59.244259 186.6875,74.46875 C 186.6875,74.468753 205.73731,33.90625 224.5,33.90625 C 243.26269,33.90625 261.75,74.46875 261.75,74.46875 C 261.75,74.468753 280.34179,34.04655 299.5,33.90625 C 318.65821,33.76595 338.375,73.90625 338.375,73.90625 C 338.37499,73.906248 356.2985,33.90625 374.5,33.90625 C 392.7015,33.90625 411.1875,73.90625 411.1875,73.90625 C 411.1875,73.906248 430.34179,33.90625 449.5,33.90625 C 468.65821,33.90625 485.15625,75.6875 485.15625,75.6875 C 490.46315,59.298632 517.34467,24.43737 543.46875,49.15625 C 568.20502,72.561941 529.84102,108.8337 520.75,109.1875 C 520.75,109.2406 520.75,109.47793 520.75,109.53125 C 526.62361,112.49007 553.98742,127.14794 554.5,143.90625 C 555.07389,162.66894 521.78125,183.96875 521.78125,183.96875 C 521.78127,183.96875 553.9375,204.23992 553.9375,222.875 C 553.93752,241.51008 521.78125,258.5 521.78125,258.5 C 521.78127,258.50001 551.51661,284.43911 549.4375,303.40625 C 547.35841,322.37338 511.21875,346.15625 511.21875,346.15625 C 511.21876,346.15626 537.77864,381.14812 527.90625,404.375 C 518.43833,426.65021 477.96129,427.26793 474.625,427.28125 C 474.46965,427.52249 474.31211,427.75944 474.15625,428 C 475.01724,431.81783 484.63995,476.10522 470.6875,492.71875 C 456.10839,510.07844 415.6875,496.71875 415.6875,496.71875 C 415.68749,496.71875 424.2653,539.29525 407.875,551.09375 C 391.73539,562.7118 351.57441,544.5606 350.34375,544 C 350.20569,544.0826 350.07516,544.16785 349.9375,544.25 C 348.94984,546.17087 324.447,593.37712 300.625,593.71875 C 276.31109,594.06745 252.84375,545.3125 252.84375,545.3125 C 252.84375,545.31252 211.58907,562.72433 194.5,548.90625 C 177.61505,535.25323 184.30583,491.27156 184.46875,490.21875 C 184.42566,490.17814 184.38684,490.1344 184.34375,490.09375 C 183.45116,490.44935 141.75934,506.92422 128.375,490.625 C 115.40446,474.82967 128.9996,428.66722 130.15625,424.84375 C 130.01133,424.614 129.86319,424.3866 129.71875,424.15625 C 126.21376,424.29459 83.108591,425.55018 74.5,403.90625 C 65.528928,381.35097 93.9375,345.125 93.9375,345.125 C 93.937499,345.12499 51.859702,323.22658 49.5,304.09375 C 47.140297,284.96092 85.0625,257.375 85.0625,257.375 C 85.062502,257.37499 44.640298,240.71679 44.5,222.375 C 44.359702,204.03322 84.5,184 84.5,184 C 84.5,183.99999 45.484702,162.16895 45.625,143.40625 C 45.752852,126.30815 78.531904,112.84157 84.40625,110.5625 C 76.161532,110.54651 35.179767,78.606676 60.71875,49.0625 C 88.050538,17.444364 113.73937,61.013873 115.46875,76.03125 C 121.74981,63.208218 133.74201,33.498506 149.5,33.90625 z M 84.40625,110.5625 C 84.939063,110.56353 85.329856,110.43114 85.5625,110.15625 L 85.5625,110.125 C 85.531007,110.13653 84.947693,110.35244 84.40625,110.5625 z "
           style="opacity:1;fill:#2b5df2;fill-opacity:1;fill-rule:evenodd;stroke:none;stroke-width:3;stroke-linecap:butt;stroke-linejoin:miter;stroke-miterlimit:4;stroke-opacity:1" />
        <path
           sodipodi:nodetypes="cczczczczczczczczczczcscscscscscscsczczcz"
           id="path2737"
           d="M 60.724277,49.259719 C 88.056057,17.641582 113.74632,61.204511 115.4757,76.221889 C 121.75676,63.398855 133.74237,33.699687 149.50036,34.107431 C 165.26927,34.515458 180.26069,59.444138 186.69438,74.66863 C 186.69438,74.66863 205.73767,34.107431 224.50036,34.107431 C 243.26305,34.107431 261.74514,74.66863 261.74514,74.66863 C 261.74514,74.66863 280.34215,34.247731 299.50036,34.107431 C 318.65857,33.967131 338.37797,74.10743 338.37797,74.10743 C 338.37797,74.10743 356.29886,34.107431 374.50036,34.107431 C 392.70186,34.107431 411.18395,74.10743 411.18395,74.10743 C 411.18395,74.10743 430.34215,34.107431 449.50036,34.107431 C 468.65857,34.107431 485.14112,75.893144 485.14112,75.893144 C 490.44801,59.504276 517.33345,24.642965 543.45753,49.361845 C 569.58162,74.080727 525.32516,113.15281 519.50035,109.10743 C 519.50035,109.10743 553.92646,125.34474 554.50035,144.10743 C 555.07424,162.87012 521.7959,184.1582 521.7959,184.1582 C 521.7959,184.1582 553.93915,204.45149 553.93915,223.08657 C 553.93915,241.72165 521.7959,258.69853 521.7959,258.69853 C 521.7959,258.69853 551.5287,284.62987 549.44959,303.59701 C 547.37048,322.56415 511.23471,346.35222 511.23471,346.35222 C 511.23471,346.35222 537.79068,381.34023 527.91829,404.56711 C 518.0459,427.79399 473.98993,427.47462 473.98993,427.47462 C 473.98993,427.47462 485.25261,475.57459 470.67351,492.93429 C 456.09441,510.29399 415.67351,496.91343 415.67351,496.91343 C 415.67351,496.91343 424.25783,539.50296 407.86753,551.30146 C 391.47723,563.09996 350.11232,544.10744 350.11232,544.10744 C 350.11232,544.10744 324.93667,593.55571 300.62275,593.90439 C 276.30883,594.25307 252.85665,545.50216 252.85665,545.50216 C 252.85665,545.50216 211.58943,562.92552 194.50036,549.10744 C 177.41129,535.28936 184.50036,490.22983 184.50036,490.22983 C 184.50036,490.22983 141.9069,507.31709 128.37797,490.84179 C 114.84904,474.36648 130.38465,424.32861 130.38465,424.32861 C 130.38465,424.32861 83.471427,426.66273 74.500357,404.10744 C 65.529287,381.55215 93.939167,345.33136 93.939167,345.33136 C 93.939167,345.33136 51.860057,323.44332 49.500357,304.31049 C 47.140657,285.17766 85.061547,257.57614 85.061547,257.57614 C 85.061547,257.57614 44.640657,240.91793 44.500367,222.57614 C 44.360067,204.23435 84.500357,184.20897 84.500357,184.20897 C 84.500357,184.20897 45.482457,162.35969 45.622757,143.59699 C 45.763057,124.83429 85.622747,110.28058 85.622747,110.28058 C 82.240417,115.24133 33.392487,80.877858 60.724277,49.259719 z "
           style="opacity:1;color:#000000;fill:none;fill-opacity:1;fill-rule:evenodd;stroke:#000000;stroke-width:3;stroke-linecap:butt;stroke-linejoin:miter;marker:none;marker-start:none;marker-mid:none;marker-end:none;stroke-miterlimit:4;stroke-dashoffset:0;stroke-opacity:1;visibility:visible;display:inline;overflow:visible" />
      </g>
      <g
         style="opacity:0.7"
         inkscape:label="gabarit"
         id="g6193" />
    </g>
  </g>
  <g
     inkscape:groupmode="layer"
     id="layer4"
     inkscape:label="Meubles"
     sodipodi:insensitive="true"
     style="display:inline" />
  <g
     inkscape:groupmode="layer"
     id="layer2"
     inkscape:label="Reflet final"
     sodipodi:insensitive="true"
     style="display:inline">
    <path
       sodipodi:nodetypes="cccccc"
       d="M 300.00001,658.5 C 300.00001,658.5 598.50001,546.17969 598.50001,260.72817 C 598.50001,-24.723334 598.50001,2.1764865 598.50001,2.1764865 L 1.5,2.1764865 L 1.5,260.72817 C 1.5,546.17969 300.00001,658.5 300.00001,658.5 z "
       style="opacity:1;fill:url(#radialGradient3163);fill-opacity:1;fill-rule:evenodd;stroke:none;stroke-width:1px;stroke-linecap:butt;stroke-linejoin:miter;stroke-opacity:1"
       id="path2875"
       inkscape:export-xdpi="144"
       inkscape:export-ydpi="144" />
  </g>
  <g
     inkscape:groupmode="layer"
     id="layer1"
     inkscape:label="Contour final"
     sodipodi:insensitive="true"
     style="display:inline">
    <path
       sodipodi:nodetypes="cccccc"
       d="M 299.99999,658.50028 C 299.99999,658.50028 1.5,546.17992 1.5,260.72828 C 1.5,-24.723336 1.5,2.1764957 1.5,2.1764957 L 598.49999,2.1764957 L 598.49999,260.72828 C 598.49999,546.17992 299.99999,658.50028 299.99999,658.50028 z "
       style="opacity:1;fill:none;fill-opacity:1;fill-rule:evenodd;stroke:#000000;stroke-width:3.00000048;stroke-linecap:butt;stroke-linejoin:miter;stroke-miterlimit:4;stroke-dasharray:none;stroke-opacity:1"
       id="path1411"
       inkscape:export-xdpi="144"
       inkscape:export-ydpi="144" />
  </g>
</svg>
