<?xml version="1.0" encoding="UTF-8" standalone="no"?>
<!-- Created with Inkscape (http://www.inkscape.org/) -->
<svg
   xmlns:dc="http://purl.org/dc/elements/1.1/"
   xmlns:cc="http://creativecommons.org/ns#"
   xmlns:rdf="http://www.w3.org/1999/02/22-rdf-syntax-ns#"
   xmlns:svg="http://www.w3.org/2000/svg"
   xmlns="http://www.w3.org/2000/svg"
   xmlns:xlink="http://www.w3.org/1999/xlink"
   xmlns:sodipodi="http://sodipodi.sourceforge.net/DTD/sodipodi-0.dtd"
   xmlns:inkscape="http://www.inkscape.org/namespaces/inkscape"
   version="1.0"
   width="600"
   height="660"
   id="svg2"
   style="display:inline"
   sodipodi:version="0.32"
   inkscape:version="0.46"
   sodipodi:docname="blason Labourse.svg"
   inkscape:output_extension="org.inkscape.output.svg.inkscape">
  <metadata
     id="metadata47">
    <rdf:RDF>
      <cc:Work
         rdf:about="">
        <dc:format>image/svg+xml</dc:format>
        <dc:type
           rdf:resource="http://purl.org/dc/dcmitype/StillImage" />
      </cc:Work>
    </rdf:RDF>
  </metadata>
  <sodipodi:namedview
     inkscape:window-height="756"
     inkscape:window-width="1280"
     inkscape:pageshadow="2"
     inkscape:pageopacity="0.0"
     guidetolerance="10.0"
     gridtolerance="10.0"
     objecttolerance="10.0"
     borderopacity="1.0"
     bordercolor="#666666"
     pagecolor="#ffffff"
     id="base"
     showgrid="false"
     inkscape:zoom="0.83428796"
     inkscape:cx="439.02632"
     inkscape:cy="377.72336"
     inkscape:window-x="0"
     inkscape:window-y="87"
     inkscape:current-layer="svg2"
     showguides="true"
     inkscape:guide-bbox="true">
    <sodipodi:guide
       orientation="1,0"
       position="449.48509,131.84896"
       id="guide5628" />
    <sodipodi:guide
       orientation="0,1"
       position="443.49196,198.97207"
       id="guide5630" />
  </sodipodi:namedview>
  <desc
     id="desc4">Blason Vide 3D</desc>
  <defs
     id="defs6">
    <inkscape:perspective
       sodipodi:type="inkscape:persp3d"
       inkscape:vp_x="0 : 330 : 1"
       inkscape:vp_y="0 : 1000 : 0"
       inkscape:vp_z="600 : 330 : 1"
       inkscape:persp3d-origin="300 : 220 : 1"
       id="perspective49" />
    <linearGradient
       id="linearGradient2893">
      <stop
         id="stop2895"
         style="stop-color:#ffffff;stop-opacity:0.3137255"
         offset="0" />
      <stop
         id="stop2897"
         style="stop-color:#ffffff;stop-opacity:0.25098041"
         offset="0.19" />
      <stop
         id="stop2901"
         style="stop-color:#6b6b6b;stop-opacity:0.1254902"
         offset="0.60000002" />
      <stop
         id="stop2899"
         style="stop-color:#000000;stop-opacity:0.1254902"
         offset="1" />
    </linearGradient>
    <radialGradient
       cx="221.44487"
       cy="226.33101"
       r="300"
       fx="221.44487"
       fy="226.33101"
       id="radialGradient3163"
       xlink:href="#linearGradient2893"
       gradientUnits="userSpaceOnUse"
       gradientTransform="matrix(1.353218,0,0,1.3445284,815.58494,-133.31951)" />
    <radialGradient
       r="300"
       fy="218.90099"
       fx="225.52438"
       cy="218.90099"
       cx="225.52438"
       gradientTransform="matrix(0,1.386237,-1.323286,-5.741131e-8,-158.0823,-109.5408)"
       gradientUnits="userSpaceOnUse"
       id="radialGradient2871"
       xlink:href="#linearGradient2955"
       inkscape:collect="always" />
    <radialGradient
       r="300"
       fy="218.90099"
       fx="225.52438"
       cy="218.90099"
       cx="225.52438"
       gradientTransform="matrix(0,1.748721,-1.593162,-1.049767e-7,551.7876,-191.2898)"
       gradientUnits="userSpaceOnUse"
       id="radialGradient2865"
       xlink:href="#linearGradient2955"
       inkscape:collect="always" />
    <radialGradient
       r="300"
       fy="218.90099"
       fx="225.52438"
       cy="218.90099"
       cx="225.52438"
       gradientTransform="matrix(-4.167939e-4,2.182867,-1.884232,-3.599562e-4,615.5972,-289.1214)"
       gradientUnits="userSpaceOnUse"
       id="radialGradient1911"
       xlink:href="#linearGradient2955"
       inkscape:collect="always" />
    <clipPath
       id="clip">
      <path
         id="path10"
         d="M 0,-200 L 0,600 L 300,600 L 300,-200 L 0,-200 z " />
    </clipPath>
    <polygon
       points="0,-1 0.58778525,0.80901699 -0.95105652,-0.30901699 0.95105652,-0.30901699 -0.58778525,0.80901699 0,-1 "
       transform="scale(53,53)"
       id="star" />
    <radialGradient
       gradientUnits="userSpaceOnUse"
       gradientTransform="matrix(-4.167939e-4,2.182867,-1.884232,-3.599562e-4,615.5972,-289.1214)"
       r="300"
       fy="218.90099"
       fx="225.52438"
       cy="218.90099"
       cx="225.52438"
       id="radialGradient2961"
       xlink:href="#linearGradient2955"
       inkscape:collect="always" />
    <linearGradient
       id="linearGradient2955">
      <stop
         style="stop-color:#fd0000;stop-opacity:1;"
         offset="0"
         id="stop2867" />
      <stop
         id="stop2873"
         offset="0.5"
         style="stop-color:#e77275;stop-opacity:0.65882355;" />
      <stop
         id="stop2959"
         offset="1"
         style="stop-color:black;stop-opacity:0.32291666;" />
    </linearGradient>
    <linearGradient
       id="linearGradient2885">
      <stop
         style="stop-color:white;stop-opacity:1;"
         offset="0"
         id="stop2887" />
      <stop
         id="stop2891"
         offset="0.22857143"
         style="stop-color:white;stop-opacity:1;" />
      <stop
         style="stop-color:black;stop-opacity:1;"
         offset="1"
         id="stop2889" />
    </linearGradient>
    <linearGradient
       id="linearGradient2529">
      <stop
         id="stop2531"
         offset="0"
         style="stop-color:white;stop-opacity:0.3137255;" />
      <stop
         style="stop-color:white;stop-opacity:0.25098041;"
         offset="0.19"
         id="stop2533" />
      <stop
         id="stop2535"
         offset="0.60000002"
         style="stop-color:#6b6b6b;stop-opacity:0.1254902;" />
      <stop
         id="stop2537"
         offset="1"
         style="stop-color:black;stop-opacity:0.1254902;" />
    </linearGradient>
    <inkscape:perspective
       id="perspective32"
       inkscape:persp3d-origin="300 : 219.80208 : 1"
       inkscape:vp_z="600 : 329.70312 : 1"
       inkscape:vp_y="0 : 1000 : 0"
       inkscape:vp_x="0 : 329.70312 : 1"
       sodipodi:type="inkscape:persp3d" />
    <inkscape:perspective
       id="perspective18"
       inkscape:persp3d-origin="220.7534 : 151.35528 : 1"
       inkscape:vp_z="441.50681 : 227.03291 : 1"
       inkscape:vp_y="0 : 1000 : 0"
       inkscape:vp_x="0 : 227.03291 : 1"
       sodipodi:type="inkscape:persp3d" />
  </defs>
  <g
     id="layer3"
     style="display:inline"
     transform="matrix(1.0095717,0,0,1.0155331,-2.8715154,1.4052735)">
    <path
       d="M 300,645.28571 C 300,645.28571 598.50001,535.22451 598.50001,255.5143 C 598.50001,-24.195922 598.50001,2.1628701 598.50001,2.1628701 L 1.5,2.1628701 L 1.5,255.5143 C 1.5,535.22451 300,645.28571 300,645.28571 z"
       id="path2855"
       style="fill:#2b5df2;fill-opacity:1;fill-rule:evenodd;stroke:none;stroke-width:1px;stroke-linecap:butt;stroke-linejoin:miter;stroke-opacity:1" />
  </g>
  <g
     id="layer137"
     style="display:inline"
     transform="matrix(1.0000013,0,0,1.0022372,-3.9359055e-4,1.4293679)">
    <path
       d="M 1.5,0.84 L 1.5,1.517 L 8.9470004,1.517 C 8.0100004,7.008 5.7130002,12.979 1.5,17.072 C 1.5,3.241 1.5,0.84 1.5,0.84 M 248.94701,1.517 L 231.09701,1.517 C 232.10501,7.409 234.67401,14.224 239.40601,17.861 L 240.00901,18.338 L 240.63901,17.861 C 245.40501,13.774 247.95201,7.372 248.94701,1.517 M 128.94801,1.517 L 111.09501,1.517 C 112.10001,7.409 114.67101,14.224 119.40901,17.861 L 120.01201,18.338 L 120.63301,17.861 C 125.39901,13.774 127.95101,7.372 128.94801,1.517 M 575.411,55.143 C 567.346,55.143 557.769,60.516 552.893,70.862 C 548.973,78.445 546.843,86.432 546.61,95.018 L 553.967,95.018 C 554.113,94.465 554.099,93.864 554.288,93.326 C 555.881,88.898 562.496,79.601 567.824,79.403 C 571.154,81.212 567.032,90.464 566.276,93.083 C 576.671,92.084 585.427,86.243 588.002,76.307 C 591.713,62.005 584.527,55.142 575.411,55.143 M 504.586,55.154 C 495.47099,55.154 488.28499,62.019 491.99099,76.325 C 494.57399,86.252 503.322,92.093 513.717,93.092 C 512.97,90.482 508.839,81.221 512.169,79.412 C 517.497,79.619 524.112,88.907 525.705,93.344 C 525.899,93.869 525.89,94.469 526.025,95.018 L 533.392,95.018 C 533.146,86.439 531.026,78.448 527.099,70.88 C 522.225,60.529 512.649,55.154 504.586,55.154 M 540.015,10.337 L 539.385,11.111 C 528.45,23.018 521.107,36.77 524.265,52.916 C 526.011,61.817 530.25,70.061 533.239,78.638 C 535.071,83.932 535.562,89.451 535.373,95.018 L 544.622,95.018 C 544.234,89.419 545.199,83.985 546.766,78.638 C 549.611,70.007 553.94,61.817 555.731,52.916 C 559.087,36.257 551.212,23.693 540.665,11.165 L 540.015,10.337 M 552.845,102.236 L 527.202,102.236 C 524.326,107.763 513.773,117.485 508.128,120.29 C 507.787,120.46 507.973,120.531 508.509,120.531 C 510.321,120.531 516.129,119.725 519.109,119.246 C 523.421,118.548 528.838,115.567 530.242,115.567 C 530.485,115.567 530.607,115.656 530.584,115.862 C 530.575,122.27 533.023,132.953 539.404,137.867 L 540.015,138.335 L 540.636,137.867 C 547.017,132.395 549.42,122.774 549.456,115.862 C 549.434,115.656 549.558,115.567 549.801,115.567 C 551.208,115.567 556.619,118.548 560.931,119.246 C 563.91,119.725 569.719,120.531 571.531,120.531 C 572.067,120.531 572.253,120.46 571.912,120.29 C 566.266,117.485 555.713,107.763 552.845,102.236 M 562.119,95.018 L 553.968,95.018 L 546.611,95.018 L 544.622,95.018 L 535.373,95.018 L 533.394,95.018 L 526.027,95.018 L 517.949,95.018 L 517.949,102.236 L 527.204,102.236 L 552.847,102.236 L 562.121,102.236 L 562.121,95.018 M 455.41099,55.143 C 447.34699,55.143 437.77199,60.516 432.89699,70.862 C 428.96699,78.445 426.84599,86.432 426.61299,95.018 L 433.96699,95.018 C 434.10799,94.465 434.09499,93.864 434.29199,93.326 C 435.88499,88.898 442.49999,79.601 447.82799,79.403 C 451.15799,81.212 447.02699,90.464 446.27999,93.083 C 456.67499,92.084 465.42299,86.243 468.00599,76.307 C 471.71199,62.005 464.52499,55.142 455.41099,55.143 M 384.58502,55.154 C 375.46902,55.154 368.28302,62.019 371.99402,76.325 C 374.56802,86.252 383.32502,92.093 393.72002,93.092 C 392.96402,90.482 388.84202,81.221 392.17202,79.412 C 397.50002,79.619 404.11499,88.907 405.70799,93.344 C 405.89599,93.869 405.88399,94.469 406.02499,95.018 L 413.38599,95.018 C 413.14899,86.439 411.01999,78.448 407.10199,70.88 C 402.22799,60.529 392.65002,55.154 384.58502,55.154 M 420.01799,10.337 L 419.38799,11.111 C 408.44499,23.018 401.09999,36.77 404.26799,52.916 C 406.01399,61.817 410.25299,70.061 413.23299,78.638 C 415.07399,83.932 415.56499,89.451 415.36699,95.018 L 424.62499,95.018 C 424.22799,89.419 425.19299,83.985 426.76899,78.638 C 429.61399,70.007 433.94299,61.817 435.73399,52.916 C 439.08999,36.257 431.21499,23.693 420.66799,11.165 L 420.01799,10.337 M 432.83999,102.236 L 407.20499,102.236 C 404.32899,107.763 393.77602,117.485 388.13102,120.29 C 387.79002,120.46 387.97602,120.531 388.51202,120.531 C 390.32402,120.531 396.13202,119.725 399.11199,119.246 C 403.42399,118.548 408.83399,115.567 410.24199,115.567 C 410.48499,115.567 410.60899,115.656 410.58699,115.862 C 410.57799,122.27 413.02599,132.953 419.40699,137.867 L 420.00999,138.335 L 420.63999,137.867 C 427.02199,132.395 429.42399,122.774 429.45199,115.862 C 429.42999,115.656 429.55399,115.567 429.79699,115.567 C 431.20599,115.567 436.62399,118.548 440.93599,119.246 C 443.90899,119.725 449.72099,120.531 451.53499,120.531 C 452.07099,120.531 452.25799,120.46 451.91699,120.29 C 446.26899,117.485 435.71599,107.763 432.83999,102.236 M 442.12199,95.018 L 433.96699,95.018 L 426.61299,95.018 L 424.62399,95.018 L 415.36599,95.018 L 413.38699,95.018 L 406.02599,95.018 L 397.95102,95.018 L 397.95102,102.236 L 407.20599,102.236 L 432.84099,102.236 L 442.12299,102.236 L 442.12299,95.018 M 335.40902,55.143 C 327.34502,55.143 317.77102,60.516 312.90002,70.862 C 308.97002,78.445 306.84002,86.432 306.60602,95.018 L 313.96902,95.018 C 314.11002,94.465 314.09602,93.864 314.28502,93.326 C 315.87802,88.898 322.49302,79.601 327.82102,79.403 C 331.16002,81.212 327.02902,90.464 326.28202,93.083 C 336.67702,92.084 345.42502,86.243 347.99902,76.307 C 351.71002,62.005 344.52402,55.142 335.40902,55.143 M 264.58701,55.154 C 255.47201,55.154 248.28701,62.019 251.99701,76.325 C 254.57101,86.252 263.31901,92.093 273.72301,93.092 C 272.96701,90.482 268.84501,81.221 272.17501,79.412 C 277.50301,79.619 284.11801,88.907 285.71101,93.344 C 285.89901,93.869 285.88701,94.469 286.02801,95.018 L 293.39001,95.018 C 293.15401,86.439 291.02401,78.448 287.09801,70.88 C 282.22601,60.529 272.65101,55.154 264.58701,55.154 M 300.02002,10.337 L 299.38101,11.111 C 288.44601,23.018 281.10201,36.77 284.27001,52.916 C 286.01601,61.817 290.24601,70.061 293.23401,78.638 C 295.07501,83.932 295.56601,89.451 295.36801,95.018 L 304.61702,95.018 C 304.22902,89.419 305.19402,83.985 306.76102,78.638 C 309.60602,70.007 313.93402,61.817 315.73502,52.916 C 319.08302,36.257 311.21602,23.693 300.66002,11.165 L 300.02002,10.337 M 312.84302,102.236 L 287.20901,102.236 C 284.33301,107.763 273.78001,117.485 268.12601,120.29 C 267.78701,120.46 267.97501,120.531 268.51201,120.531 C 270.32601,120.531 276.13401,119.725 279.10601,119.246 C 283.41801,118.548 288.83501,115.567 290.24501,115.567 C 290.48901,115.567 290.61301,115.656 290.59001,115.862 C 290.57201,122.27 293.02001,132.953 299.41001,137.867 L 300.01402,138.335 L 300.63402,137.867 C 307.01502,132.395 309.42702,122.774 309.45402,115.862 C 309.43202,115.656 309.55602,115.567 309.79902,115.567 C 311.20802,115.567 316.62602,118.548 320.93802,119.246 C 323.91102,119.725 329.71702,120.531 331.53302,120.531 C 332.07002,120.531 332.25802,120.46 331.91902,120.29 C 326.26302,117.485 315.71902,107.763 312.84302,102.236 M 322.12502,95.018 L 313.97002,95.018 L 306.60702,95.018 L 304.61902,95.018 L 295.37001,95.018 L 293.39101,95.018 L 286.02901,95.018 L 277.94501,95.018 L 277.94501,102.236 L 287.21001,102.236 L 312.84402,102.236 L 322.12602,102.236 L 322.12602,95.018 M 215.41101,55.143 C 207.34601,55.143 197.76901,60.516 192.89401,70.862 C 188.97401,78.445 186.84401,86.432 186.61001,95.018 L 193.96701,95.018 C 194.11301,94.465 194.09901,93.864 194.28901,93.326 C 195.88201,88.898 202.49701,79.601 207.82501,79.403 C 211.15501,81.212 207.03301,90.464 206.27701,93.083 C 216.67201,92.084 225.42901,86.243 228.00301,76.307 C 231.71301,62.005 224.52701,55.142 215.41101,55.143 M 144.58501,55.154 C 135.47001,55.154 128.28501,62.019 131.99101,76.325 C 134.57401,86.252 143.32201,92.093 153.71701,93.092 C 152.97001,90.482 148.83901,81.221 152.16901,79.412 C 157.49701,79.619 164.11201,88.907 165.70501,93.344 C 165.90001,93.869 165.88901,94.469 166.02601,95.018 L 173.38401,95.018 C 173.14701,86.439 171.02701,78.448 167.10001,70.88 C 162.22501,60.529 152.65001,55.154 144.58501,55.154 M 180.01501,10.337 L 179.38501,11.111 C 168.45001,23.018 161.10601,36.77 164.26501,52.916 C 166.01101,61.817 170.25001,70.061 173.23801,78.638 C 175.07101,83.932 175.56201,89.451 175.37201,95.018 L 184.62201,95.018 C 184.23301,89.419 185.19901,83.985 186.76601,78.638 C 189.61001,70.007 193.93901,61.817 195.73001,52.916 C 199.08701,36.257 191.21201,23.693 180.66401,11.165 L 180.01501,10.337 M 192.84501,102.236 L 167.20201,102.236 C 164.32601,107.763 153.77301,117.485 148.12701,120.29 C 147.78601,120.46 147.97201,120.531 148.50801,120.531 C 150.31901,120.531 156.12801,119.725 159.10701,119.246 C 163.41901,118.548 168.83601,115.567 170.24001,115.567 C 170.48301,115.567 170.60601,115.656 170.58201,115.862 C 170.57301,122.27 173.02101,132.953 179.40201,137.867 L 180.01401,138.335 L 180.63501,137.867 C 187.01601,132.395 189.41901,122.774 189.45501,115.862 C 189.43301,115.656 189.55601,115.567 189.80001,115.567 C 191.20701,115.567 196.61801,118.548 200.93001,119.246 C 203.90901,119.725 209.71801,120.531 211.52901,120.531 C 212.06501,120.531 212.25101,120.46 211.91001,120.29 C 206.26601,117.485 195.71301,107.763 192.84501,102.236 M 202.11901,95.018 L 193.96701,95.018 L 186.61001,95.018 L 184.62201,95.018 L 175.37201,95.018 L 173.38401,95.018 L 166.02601,95.018 L 157.94701,95.018 L 157.94701,102.236 L 167.20201,102.236 L 192.84501,102.236 L 202.11901,102.236 L 202.11901,95.018 M 95.411005,55.143 C 87.347004,55.143 77.772004,60.516 72.897004,70.862 C 68.968003,78.445 66.847003,86.432 66.613003,95.018 L 73.967004,95.018 C 74.108004,94.465 74.095004,93.864 74.292004,93.326 C 75.885004,88.898 82.500004,79.601 87.828004,79.403 C 91.158005,81.212 87.027004,90.464 86.280004,93.083 C 96.675005,92.084 105.42301,86.243 108.00601,76.307 C 111.71101,62.005 104.52601,55.142 95.411005,55.143 M 24.585001,55.154 C 15.469001,55.154 8.2830004,62.019 11.994001,76.325 C 14.568001,86.252 23.325001,92.093 33.720002,93.092 C 32.964002,90.482 28.842001,81.221 32.172002,79.412 C 37.500002,79.619 44.115002,88.907 45.708002,93.344 C 45.896002,93.869 45.884002,94.469 46.025002,95.018 L 53.387003,95.018 C 53.150003,86.439 51.021003,78.448 47.103002,70.88 C 42.228002,60.529 32.651002,55.154 24.585001,55.154 M 60.018003,10.337 L 59.388003,11.111 C 48.444002,23.018 41.100002,36.77 44.268002,52.916 C 46.014002,61.817 50.253002,70.061 53.232003,78.638 C 55.073003,83.932 55.565003,89.451 55.366003,95.018 L 64.624003,95.018 C 64.227003,89.419 65.192003,83.985 66.768003,78.638 C 69.612003,70.007 73.941004,61.817 75.732004,52.916 C 79.089004,36.257 71.214004,23.693 60.666003,11.165 L 60.018003,10.337 M 72.839004,102.236 L 47.206002,102.236 C 44.330002,107.763 33.777002,117.485 28.131001,120.29 C 27.790001,120.46 27.976001,120.531 28.512001,120.531 C 30.323001,120.531 36.132002,119.725 39.111002,119.246 C 43.423002,118.548 48.834002,115.567 50.241002,115.567 C 50.485002,115.567 50.608002,115.656 50.586002,115.862 C 50.577002,122.27 53.025003,132.953 59.406003,137.867 L 60.009003,138.335 L 60.639003,137.867 C 67.020003,132.395 69.423003,122.774 69.450003,115.862 C 69.427003,115.656 69.552003,115.567 69.795003,115.567 C 71.204004,115.567 76.622004,118.548 80.934004,119.246 C 83.906004,119.725 89.718004,120.531 91.532005,120.531 C 92.069005,120.531 92.255005,120.46 91.914005,120.29 C 86.269004,117.485 75.716004,107.763 72.839004,102.236 M 82.122004,95.018 L 73.967004,95.018 L 66.613003,95.018 L 64.624003,95.018 L 55.366003,95.018 L 53.387003,95.018 L 46.025002,95.018 L 37.950002,95.018 L 37.950002,102.236 L 47.205002,102.236 L 72.839004,102.236 L 82.122004,102.236 L 82.122004,95.018 M 35.414002,175.141 C 27.348001,175.141 17.770001,180.516 12.894001,190.869 C 8.9750004,198.439 6.8460003,206.425 6.6100003,215.015 L 13.968001,215.015 C 14.114001,214.467 14.100001,213.86 14.289001,213.323 C 15.882001,208.895 22.497001,199.607 27.825001,199.4 C 31.155002,201.209 27.033001,210.461 26.277001,213.08 C 36.672002,212.081 45.429002,206.24 48.003002,196.304 C 51.713003,182.004 44.528002,175.141 35.414002,175.141 M 1.5,132.172 C 1.5,155.461 1.5,182.834 1.5,215.015 L 4.6220002,215.015 C 4.2330002,209.417 5.1990002,203.991 6.7660003,198.635 C 9.61,190.004 13.939001,181.823 15.730001,172.913 C 18.997001,156.697 11.623001,144.363 1.5,132.172 M 12.845001,222.242 L 1.5,222.242 C 1.5,233.291 1.5,244.904 1.5,257.075 C 7.2350003,251.504 9.4220004,242.45 9.4560004,235.868 C 9.4340004,235.66 9.558,235.57 9.803,235.57 C 11.215001,235.57 16.621001,238.553 20.931001,239.243 C 23.918001,239.723 29.748001,240.532 31.544002,240.532 C 32.070002,240.532 32.250002,240.463 31.911002,240.296 C 26.266001,237.491 15.713001,227.76 12.845001,222.242 M 22.119001,215.015 L 13.968001,215.015 L 6.6100003,215.015 L 4.6220002,215.015 L 1.5,215.015 C 1.5,217.395 1.5,219.81 1.5,222.242 L 12.845001,222.242 L 22.119001,222.242 L 22.119001,215.015 M 564.583,175.154 C 555.469,175.154 548.284,182.017 551.994,196.321 C 554.568,206.257 563.325,212.098 573.72,213.097 C 572.964,210.478 568.842,201.226 572.172,199.417 C 577.5,199.615 584.115,208.912 585.708,213.34 C 585.896,213.872 585.884,214.466 586.024,215.014 L 593.386,215.014 C 593.149,206.435 591.02,198.444 587.102,190.876 C 582.227,180.529 572.649,175.154 564.583,175.154 M 598.497,132.099 C 588.05,143.77 581.186,157.218 584.268,172.913 C 586.014,181.814 590.253,190.058 593.233,198.635 C 595.074,203.928 595.565,209.457 595.367,215.015 L 598.498,215.015 L 598.498,132.099 M 598.497,222.242 L 587.205,222.242 C 584.329,227.761 573.776,237.491 568.131,240.296 C 567.793,240.463 567.973,240.532 568.498,240.532 C 570.293,240.532 576.124,239.723 579.111,239.243 C 583.42,238.553 588.826,235.57 590.238,235.57 C 590.484,235.57 590.608,235.66 590.586,235.868 C 590.577,241.953 592.791,251.922 598.497,257.102 L 598.497,222.242 M 598.497,215.015 L 595.366,215.015 L 593.387,215.015 L 586.025,215.015 L 577.951,215.015 L 577.951,222.242 L 587.206,222.242 L 598.498,222.242 L 598.498,215.015 M 515.412,175.141 C 507.348,175.141 497.77099,180.516 492.89999,190.869 C 488.97199,198.439 486.84199,206.425 486.60699,215.015 L 493.96999,215.015 C 494.10999,214.467 494.09599,213.86 494.28499,213.323 C 495.87799,208.895 502.493,199.607 507.821,199.4 C 511.16,201.209 507.029,210.461 506.282,213.08 C 516.677,212.081 525.425,206.24 527.999,196.304 C 531.71,182.004 524.525,175.141 515.412,175.141 M 444.58499,175.154 C 435.47199,175.154 428.28699,182.017 431.99699,196.321 C 434.57099,206.257 443.31899,212.098 453.72299,213.097 C 452.96699,210.478 448.84499,201.226 452.17499,199.417 C 457.50299,199.615 464.11799,208.912 465.71099,213.34 C 465.89899,213.872 465.88699,214.466 466.02799,215.014 L 473.38899,215.014 C 473.15199,206.435 471.02299,198.444 467.09599,190.876 C 462.22599,180.529 452.64899,175.154 444.58499,175.154 M 480.01999,130.334 L 479.38099,131.117 C 468.44599,143.015 461.10199,156.776 464.26999,172.913 C 466.01599,181.814 470.24699,190.058 473.23499,198.635 C 475.07599,203.928 475.56699,209.457 475.36899,215.015 L 484.61799,215.015 C 484.22999,209.417 485.19499,203.991 486.76199,198.635 C 489.60699,190.004 493.93499,181.823 495.73599,172.913 C 499.08399,156.254 491.21699,143.69 480.66099,131.171 L 480.01999,130.334 M 492.84299,222.242 L 467.20799,222.242 C 464.33199,227.761 453.77899,237.491 448.12499,240.296 C 447.78899,240.463 447.97099,240.532 448.49699,240.532 C 450.29599,240.532 456.12499,239.723 459.10499,239.243 C 463.41399,238.553 468.82699,235.57 470.24099,235.57 C 470.48599,235.57 470.61099,235.66 470.58899,235.868 C 470.57099,242.267 473.01899,252.959 479.40899,257.864 L 480.01199,258.341 L 480.63299,257.864 C 487.01399,252.392 489.42599,242.771 489.45299,235.868 C 489.43099,235.66 489.55599,235.57 489.80099,235.57 C 491.21499,235.57 496.62799,238.553 500.937,239.243 C 503.917,239.723 509.747,240.532 511.545,240.532 C 512.072,240.532 512.253,240.463 511.917,240.296 C 506.263,237.491 495.71899,227.76 492.84299,222.242 M 502.125,215.015 L 493.97099,215.015 L 486.60799,215.015 L 484.61899,215.015 L 475.36999,215.015 L 473.39099,215.015 L 466.02999,215.015 L 457.94599,215.015 L 457.94599,222.242 L 467.20999,222.242 L 492.84499,222.242 L 502.127,222.242 L 502.127,215.015 M 395.41402,175.141 C 387.34802,175.141 377.77002,180.516 372.89302,190.869 C 368.97502,198.439 366.84502,206.425 366.61002,215.015 L 373.96702,215.015 C 374.11302,214.467 374.09902,213.86 374.28802,213.323 C 375.88102,208.895 382.49602,199.607 387.82402,199.4 C 391.15402,201.209 387.03202,210.461 386.27602,213.08 C 396.67102,212.081 405.42699,206.24 408.00199,196.304 C 411.71299,182.004 404.52799,175.141 395.41402,175.141 M 324.58302,175.154 C 315.47002,175.154 308.28602,182.017 311.99102,196.321 C 314.57402,206.257 323.32202,212.098 333.71702,213.097 C 332.97002,210.478 328.83902,201.226 332.16902,199.417 C 337.49702,199.615 344.11202,208.912 345.70502,213.34 C 345.89902,213.872 345.89002,214.466 346.02502,215.014 L 353.38302,215.014 C 353.14602,206.435 351.02602,198.444 347.09902,190.876 C 342.22402,180.529 332.64802,175.154 324.58302,175.154 M 360.01502,130.334 L 359.38502,131.117 C 348.45002,143.015 341.10702,156.776 344.26502,172.913 C 346.01102,181.814 350.25002,190.058 353.23902,198.635 C 355.07102,203.928 355.56202,209.457 355.37302,215.015 L 364.62202,215.015 C 364.23402,209.417 365.19902,203.991 366.76602,198.635 C 369.61102,190.004 373.94002,181.823 375.73102,172.913 C 379.08702,156.254 371.21202,143.69 360.66502,131.171 L 360.01502,130.334 M 372.84602,222.242 L 347.20202,222.242 C 344.32602,227.761 333.77302,237.491 328.12802,240.296 C 327.79002,240.463 327.97002,240.532 328.49502,240.532 C 330.29002,240.532 336.12102,239.723 339.10802,239.243 C 343.41702,238.553 348.83002,235.57 350.23802,235.57 C 350.48302,235.57 350.60702,235.66 350.58302,235.868 C 350.57402,242.267 353.02202,252.959 359.40302,257.864 L 360.01402,258.341 L 360.63502,257.864 C 367.01602,252.392 369.41902,242.771 369.45502,235.868 C 369.43302,235.66 369.55802,235.57 369.80302,235.57 C 371.21402,235.57 376.62102,238.553 380.93002,239.243 C 383.91702,239.723 389.74702,240.532 391.54302,240.532 C 392.06802,240.532 392.24802,240.463 391.91002,240.296 C 386.26602,237.491 375.71302,227.76 372.84602,222.242 M 382.11902,215.015 L 373.96802,215.015 L 366.61102,215.015 L 364.62202,215.015 L 355.37302,215.015 L 353.38502,215.015 L 346.02702,215.015 L 337.94902,215.015 L 337.94902,222.242 L 347.20402,222.242 L 372.84802,222.242 L 382.12102,222.242 L 382.12102,215.015 M 275.41401,175.141 C 267.34901,175.141 257.77301,180.516 252.89701,190.869 C 248.96901,198.439 246.84901,206.425 246.61301,215.015 L 253.96701,215.015 C 254.10701,214.467 254.09401,213.86 254.29101,213.323 C 255.88401,208.895 262.49901,199.607 267.82701,199.4 C 271.15701,201.209 267.02601,210.461 266.27901,213.08 C 276.67401,212.081 285.42201,206.24 288.00501,196.304 C 291.71101,182.004 284.52701,175.141 275.41401,175.141 M 204.58301,175.154 C 195.46801,175.154 188.28401,182.017 191.99401,196.321 C 194.56801,206.257 203.32501,212.098 213.72001,213.097 C 212.96401,210.478 208.84201,201.226 212.17201,199.417 C 217.50001,199.615 224.11501,208.912 225.70801,213.34 C 225.89601,213.872 225.88401,214.466 226.02501,215.014 L 233.38701,215.014 C 233.15001,206.435 231.02101,198.444 227.10301,190.876 C 222.22701,180.529 212.64901,175.154 204.58301,175.154 M 240.01801,130.334 L 239.38801,131.117 C 228.44401,143.015 221.10001,156.776 224.26801,172.913 C 226.01401,181.814 230.25301,190.058 233.23201,198.635 C 235.07301,203.928 235.56501,209.457 235.36601,215.015 L 244.62401,215.015 C 244.22701,209.417 245.19201,203.991 246.76801,198.635 C 249.61201,190.004 253.94101,181.823 255.73201,172.913 C 259.08901,156.254 251.21401,143.69 240.66601,131.171 L 240.01801,130.334 M 252.84001,222.242 L 227.20501,222.242 C 224.32901,227.761 213.77701,237.491 208.13101,240.296 C 207.79301,240.463 207.97301,240.532 208.49801,240.532 C 210.29301,240.532 216.12401,239.723 219.11101,239.243 C 223.42001,238.553 228.82701,235.57 230.23901,235.57 C 230.48401,235.57 230.60901,235.66 230.58601,235.868 C 230.57701,242.267 233.02501,252.959 239.40601,257.864 L 240.00901,258.341 L 240.63901,257.864 C 247.02001,252.392 249.42301,242.771 249.45001,235.868 C 249.42701,235.66 249.55201,235.57 249.79801,235.57 C 251.21201,235.57 256.62501,238.553 260.93401,239.243 C 263.91301,239.723 269.74801,240.532 271.54601,240.532 C 272.07201,240.532 272.25301,240.463 271.91401,240.296 C 266.26901,237.491 255.71601,227.76 252.84001,222.242 M 262.12201,215.015 L 253.96801,215.015 L 246.61401,215.015 L 244.62501,215.015 L 235.36701,215.015 L 233.38801,215.015 L 226.02601,215.015 L 217.95101,215.015 L 217.95101,222.242 L 227.20601,222.242 L 252.84101,222.242 L 262.12301,222.242 L 262.12301,215.015 M 155.41201,175.141 C 147.34701,175.141 137.77201,180.516 132.90001,190.869 C 128.97201,198.439 126.84301,206.425 126.60701,215.015 L 133.97101,215.015 C 134.11101,214.467 134.09701,213.86 134.28601,213.323 C 135.87901,208.895 142.49401,199.607 147.82201,199.4 C 151.16101,201.209 147.03001,210.461 146.28301,213.08 C 156.67801,212.081 165.42601,206.24 168.00001,196.304 C 171.71001,182.004 164.52501,175.141 155.41201,175.141 M 84.585004,175.154 C 75.472004,175.154 68.287003,182.017 71.997004,196.321 C 74.571004,206.257 83.319004,212.098 93.723005,213.097 C 92.967005,210.478 88.845004,201.226 92.175005,199.417 C 97.503005,199.615 104.11801,208.912 105.71101,213.34 C 105.89901,213.872 105.88701,214.466 106.02301,215.014 L 113.39001,215.014 C 113.15301,206.435 111.02401,198.444 107.09801,190.876 C 102.22501,180.529 92.650005,175.154 84.585004,175.154 M 120.02101,130.334 L 119.38201,131.117 C 108.44701,143.015 101.10301,156.776 104.27101,172.913 C 106.01701,181.814 110.24701,190.058 113.23501,198.635 C 115.07601,203.928 115.56801,209.457 115.36901,215.015 L 124.61901,215.015 C 124.23001,209.417 125.19601,203.991 126.76301,198.635 C 129.60701,190.004 133.93601,181.823 135.73601,172.913 C 139.08401,156.254 131.21801,143.69 120.66101,131.171 L 120.02101,130.334 M 132.84301,222.242 L 107.20901,222.242 C 104.33301,227.761 93.780005,237.491 88.126004,240.296 C 87.790004,240.463 87.971004,240.532 88.498004,240.532 C 90.297004,240.532 96.126005,239.723 99.106005,239.243 C 103.41501,238.553 108.82801,235.57 110.24201,235.57 C 110.48801,235.57 110.61301,235.66 110.59001,235.868 C 110.57201,242.267 113.02001,252.959 119.41001,257.864 L 120.01301,258.341 L 120.63401,257.864 C 127.01501,252.392 129.42701,242.771 129.45401,235.868 C 129.43101,235.66 129.55601,235.57 129.80201,235.57 C 131.21601,235.57 136.62901,238.553 140.93801,239.243 C 143.91801,239.723 149.74701,240.532 151.54601,240.532 C 152.07301,240.532 152.25401,240.463 151.91801,240.296 C 146.26301,237.491 135.71901,227.76 132.84301,222.242 M 142.12501,215.015 L 133.97101,215.015 L 126.60701,215.015 L 124.61901,215.015 L 115.36901,215.015 L 113.39001,215.015 L 106.02301,215.015 L 97.944005,215.015 L 97.944005,222.242 L 107.20901,222.242 L 132.84301,222.242 L 142.12501,222.242 L 142.12501,215.015 M 575.414,295.143 C 567.348,295.143 557.77,300.518 552.893,310.866 C 548.975,318.436 546.845,326.43 546.61,335.012 L 553.969,335.012 C 554.113,334.46 554.1,333.857 554.288,333.329 C 555.881,328.892 562.496,319.603 567.824,319.396 C 571.154,321.214 567.032,330.466 566.276,333.085 C 576.671,332.077 585.427,326.245 588.002,316.31 C 591.713,302.005 584.528,295.142 575.414,295.143 M 504.583,295.156 C 495.46999,295.156 488.28599,302.019 491.99099,316.319 C 494.57399,326.256 503.322,332.096 513.717,333.095 C 512.97,330.476 508.839,321.225 512.169,319.415 C 517.497,319.613 524.112,328.91 525.705,333.338 C 525.899,333.869 525.89,334.468 526.024,335.012 L 533.392,335.012 C 533.146,326.434 531.026,318.451 527.099,310.883 C 522.224,300.531 512.648,295.156 504.583,295.156 M 540.015,250.34 L 539.385,251.114 C 528.45,263.012 521.107,276.773 524.265,292.91 C 526.011,301.811 530.25,310.064 533.239,318.64 C 535.071,323.933 535.562,329.453 535.373,335.011 L 544.622,335.011 C 544.234,329.413 545.199,323.988 546.766,318.64 C 549.611,310.009 553.94,301.819 555.731,292.91 C 559.087,276.251 551.212,263.696 540.665,251.168 L 540.015,250.34 M 552.845,342.239 L 527.202,342.239 C 524.326,347.765 513.773,357.488 508.128,360.293 C 507.788,360.461 507.972,360.53 508.503,360.53 C 510.308,360.53 516.126,359.728 519.108,359.249 C 523.42,358.551 528.837,355.57 530.241,355.57 C 530.484,355.57 530.606,355.659 530.583,355.865 C 530.574,362.272 533.022,372.956 539.403,377.861 L 540.014,378.338 L 540.635,377.861 C 547.016,372.388 549.419,362.767 549.455,355.865 C 549.433,355.659 549.557,355.57 549.8,355.57 C 551.207,355.57 556.618,358.55 560.93,359.249 C 563.912,359.728 569.73,360.53 571.535,360.53 C 572.066,360.53 572.25,360.461 571.91,360.293 C 566.266,357.488 555.713,347.766 552.845,342.239 M 562.119,335.012 L 553.97,335.012 L 546.611,335.012 L 544.622,335.012 L 535.373,335.012 L 533.394,335.012 L 526.026,335.012 L 517.949,335.012 L 517.949,342.24 L 527.204,342.24 L 552.847,342.24 L 562.121,342.24 L 562.121,335.012 M 455.41299,295.143 C 447.34899,295.143 437.77299,300.518 432.89699,310.866 C 428.96799,318.436 426.84799,326.43 426.61299,335.012 L 433.96799,335.012 C 434.10699,334.46 434.09499,333.857 434.29099,333.329 C 435.88399,328.892 442.49899,319.603 447.82699,319.396 C 451.15699,321.214 447.02599,330.466 446.27899,333.085 C 456.67399,332.077 465.42199,326.245 468.00499,316.31 C 471.71099,302.005 464.52599,295.142 455.41299,295.143 M 384.58302,295.156 C 375.46902,295.156 368.28402,302.019 371.99402,316.319 C 374.56802,326.256 383.32502,332.096 393.72002,333.095 C 392.96402,330.476 388.84202,321.225 392.17202,319.415 C 397.50002,319.613 404.11499,328.91 405.70799,333.338 C 405.89499,333.869 405.88399,334.468 406.02399,335.012 L 413.38599,335.012 C 413.14899,326.434 411.01999,318.451 407.10199,310.883 C 402.22699,300.531 392.64902,295.156 384.58302,295.156 M 420.01799,250.34 L 419.38799,251.114 C 408.44499,263.012 401.09999,276.773 404.26799,292.91 C 406.01399,301.811 410.25299,310.064 413.23299,318.64 C 415.07399,323.933 415.56499,329.453 415.36699,335.011 L 424.62499,335.011 C 424.22799,329.413 425.19299,323.988 426.76899,318.64 C 429.61399,310.009 433.94299,301.819 435.73399,292.91 C 439.08999,276.251 431.21499,263.696 420.66799,251.168 L 420.01799,250.34 M 432.83999,342.239 L 407.20499,342.239 C 404.32899,347.765 393.77602,357.488 388.13102,360.293 C 387.79102,360.461 387.97502,360.53 388.50602,360.53 C 390.31102,360.53 396.12902,359.728 399.11099,359.249 C 403.42299,358.551 408.83299,355.57 410.24099,355.57 C 410.48399,355.57 410.60799,355.659 410.58599,355.865 C 412.68671,386.05506 427.36779,385.09047 429.45099,355.865 C 429.42899,355.659 429.55299,355.57 429.79599,355.57 C 431.20499,355.57 436.62299,358.55 440.93499,359.249 C 443.91099,359.728 449.73199,360.53 451.53899,360.53 C 452.07099,360.53 452.25499,360.461 451.91499,360.293 C 446.26899,357.488 435.71599,347.766 432.83999,342.239 M 442.12199,335.012 L 433.96899,335.012 L 426.61399,335.012 L 424.62499,335.012 L 415.36699,335.012 L 413.38799,335.012 L 406.02599,335.012 L 397.95202,335.012 L 397.95202,342.24 L 407.20699,342.24 L 432.84199,342.24 L 442.12399,342.24 L 442.12399,335.012 M 335.41202,295.143 C 327.34802,295.143 317.77102,300.518 312.90002,310.866 C 308.97202,318.436 306.84202,326.43 306.60702,335.012 L 313.97102,335.012 C 314.11002,334.46 314.09702,333.857 314.28502,333.329 C 315.87802,328.892 322.49302,319.603 327.82102,319.396 C 331.16002,321.214 327.02902,330.466 326.28202,333.085 C 336.67702,332.077 345.42502,326.245 347.99902,316.31 C 351.71002,302.005 344.52502,295.142 335.41202,295.143 M 264.58501,295.156 C 255.47201,295.156 248.28701,302.019 251.99701,316.319 C 254.57101,326.256 263.31901,332.096 273.72301,333.095 C 272.96701,330.476 268.84501,321.225 272.17501,319.415 C 277.50301,319.613 284.11801,328.91 285.71101,333.338 C 285.89801,333.869 285.88701,334.468 286.02701,335.012 L 293.39001,335.012 C 293.15401,326.434 291.02401,318.451 287.09801,310.883 C 282.22501,300.531 272.65001,295.156 264.58501,295.156 M 300.02002,250.34 L 299.38101,251.114 C 288.44601,263.012 281.10201,276.773 284.27001,292.91 C 286.01601,301.811 290.24601,310.064 293.23401,318.64 C 295.07501,323.933 295.56601,329.453 295.36801,335.011 L 304.61702,335.011 C 304.22902,329.413 305.19402,323.988 306.76102,318.64 C 309.60602,310.009 313.93402,301.819 315.73502,292.91 C 319.08302,276.251 311.21602,263.696 300.66002,251.168 L 300.02002,250.34 M 312.84302,342.239 L 287.20901,342.239 C 284.33301,347.765 273.78001,357.488 268.12601,360.293 C 267.78801,360.461 267.97301,360.53 268.50601,360.53 C 270.31501,360.53 276.13101,359.728 279.10601,359.249 C 283.41801,358.551 288.83501,355.57 290.24501,355.57 C 290.48901,355.57 290.61301,355.659 290.59001,355.865 C 292.68109,386.0625 307.36779,385.08245 309.45402,355.865 C 309.43202,355.659 309.55602,355.57 309.79902,355.57 C 311.20802,355.57 316.62602,358.55 320.93802,359.249 C 323.91402,359.728 329.73002,360.53 331.53902,360.53 C 332.07202,360.53 332.25702,360.461 331.91902,360.293 C 326.26302,357.488 315.71902,347.766 312.84302,342.239 M 322.12502,335.012 L 313.97202,335.012 L 306.60802,335.012 L 304.61902,335.012 L 295.37001,335.012 L 293.39101,335.012 L 286.02801,335.012 L 277.94501,335.012 L 277.94501,342.24 L 287.21001,342.24 L 312.84402,342.24 L 322.12602,342.24 L 322.12602,335.012 M 215.41401,295.143 C 207.34801,295.143 197.77001,300.518 192.89401,310.866 C 188.97501,318.436 186.84601,326.43 186.61001,335.012 L 193.97001,335.012 C 194.11401,334.46 194.10101,333.857 194.28901,333.329 C 195.88201,328.892 202.49701,319.603 207.82501,319.396 C 211.15501,321.214 207.03301,330.466 206.27701,333.085 C 216.67201,332.077 225.42901,326.245 228.00301,316.31 C 231.71301,302.005 224.52801,295.142 215.41401,295.143 M 144.58301,295.156 C 135.47001,295.156 128.28601,302.019 131.99101,316.319 C 134.57401,326.256 143.32201,332.096 153.71701,333.095 C 152.97001,330.476 148.83901,321.225 152.16901,319.415 C 157.49701,319.613 164.11201,328.91 165.70501,333.338 C 165.89901,333.869 165.88901,334.468 166.02501,335.012 L 173.38401,335.012 C 173.14701,326.434 171.02701,318.451 167.10001,310.883 C 162.22401,300.531 152.64801,295.156 144.58301,295.156 M 180.01501,250.34 L 179.38501,251.114 C 168.45001,263.012 161.10601,276.773 164.26501,292.91 C 166.01101,301.811 170.25001,310.064 173.23801,318.64 C 175.07101,323.933 175.56201,329.453 175.37201,335.011 L 184.62201,335.011 C 184.23301,329.413 185.19901,323.988 186.76601,318.64 C 189.61001,310.009 193.93901,301.819 195.73001,292.91 C 199.08701,276.251 191.21201,263.696 180.66401,251.168 L 180.01501,250.34 M 192.84501,342.239 L 167.20201,342.239 C 164.32601,347.765 153.77301,357.488 148.12701,360.293 C 147.78701,360.461 147.97101,360.53 148.50201,360.53 C 150.30701,360.53 156.12501,359.728 159.10701,359.249 C 163.41901,358.551 168.83601,355.57 170.24001,355.57 C 170.48301,355.57 170.60601,355.659 170.58201,355.865 C 172.70085,386.0664 187.34591,385.08217 189.45501,355.865 C 189.43301,355.659 189.55601,355.57 189.80001,355.57 C 191.20701,355.57 196.61801,358.55 200.93001,359.249 C 203.91201,359.728 209.73001,360.53 211.53401,360.53 C 212.06601,360.53 212.24901,360.461 211.90901,360.293 C 206.26601,357.488 195.71301,347.766 192.84501,342.239 M 202.11901,335.012 L 193.97001,335.012 L 186.61001,335.012 L 184.62201,335.012 L 175.37201,335.012 L 173.38401,335.012 L 166.02501,335.012 L 157.94701,335.012 L 157.94701,342.24 L 167.20201,342.24 L 192.84501,342.24 L 202.11901,342.24 L 202.11901,335.012 M 95.414005,295.143 C 87.349004,295.143 77.773004,300.518 72.897004,310.866 C 68.969003,318.436 66.849003,326.43 66.613003,335.012 L 73.968004,335.012 C 74.107004,334.46 74.095004,333.857 74.291004,333.329 C 75.884004,328.892 82.499004,319.603 87.827004,319.396 C 91.157005,321.214 87.026004,330.466 86.279004,333.085 C 96.674005,332.077 105.42201,326.245 108.00501,316.31 C 111.71101,302.005 104.52701,295.142 95.414005,295.143 M 24.583001,295.156 C 15.468001,295.156 8.2840004,302.019 11.994001,316.319 C 14.568001,326.256 23.325001,332.096 33.720002,333.095 C 32.964002,330.476 28.842001,321.225 32.172002,319.415 C 37.500002,319.613 44.115002,328.91 45.708002,333.338 C 45.895002,333.869 45.884002,334.468 46.024002,335.012 L 53.387003,335.012 C 53.150003,326.434 51.021003,318.451 47.103002,310.883 C 42.227002,300.531 32.649002,295.156 24.583001,295.156 M 60.018003,250.34 L 59.388003,251.114 C 48.444002,263.012 41.100002,276.773 44.268002,292.91 C 46.014002,301.811 50.253002,310.064 53.232003,318.64 C 55.073003,323.933 55.565003,329.453 55.366003,335.011 L 64.624003,335.011 C 64.227003,329.413 65.192003,323.988 66.768003,318.64 C 69.612003,310.009 73.941004,301.819 75.732004,292.91 C 79.089004,276.251 71.214004,263.696 60.666003,251.168 L 60.018003,250.34 M 72.839004,342.239 L 47.206002,342.239 C 44.330002,347.765 33.777002,357.488 28.131001,360.293 C 27.791001,360.461 27.975001,360.53 28.506001,360.53 C 30.310001,360.53 36.128002,359.728 39.110002,359.249 C 43.422002,358.551 48.833002,355.57 50.240002,355.57 C 50.484002,355.57 50.607002,355.659 50.585002,355.865 C 52.684595,386.05333 67.369288,385.09198 69.450003,355.865 C 69.427003,355.659 69.552003,355.57 69.795003,355.57 C 71.204004,355.57 76.622004,358.55 80.934004,359.249 C 83.909004,359.728 89.730004,360.53 91.538005,360.53 C 92.071005,360.53 92.254005,360.461 91.914005,360.293 C 86.269004,357.488 75.716004,347.766 72.839004,342.239 M 82.122004,335.012 L 73.969004,335.012 L 66.614003,335.012 L 64.625003,335.012 L 55.367003,335.012 L 53.388003,335.012 L 46.025002,335.012 L 37.951002,335.012 L 37.951002,342.24 L 47.206002,342.24 L 72.839004,342.24 L 82.122004,342.24 L 82.122004,335.012 M 35.411002,415.143 C 35.068002,415.143 34.723002,415.154 34.375002,415.173 C 50.187282,462.22008 55.124677,418.30273 35.411002,415.143 M 564.585,415.153 C 555.469,415.153 548.284,422.018 551.994,436.325 C 552.329,437.619 552.77,438.844 553.307,439.998 C 557.655,431.977 561.775,423.697 565.619,415.184 C 565.27,415.164 564.927,415.153 564.585,415.153 M 480.01999,370.337 L 479.38099,371.111 C 406.71803,468.17569 553.60707,463.88444 480.66099,371.165 L 480.01999,370.337 M 360.01502,370.337 L 359.38502,371.111 C 286.73429,468.15576 433.58587,463.90893 360.66502,371.165 L 360.01502,370.337 M 240.01801,370.337 L 239.38801,371.111 C 166.7083,468.139 313.60449,463.92386 240.66601,371.165 L 240.01801,370.337 M 120.02101,370.337 L 119.38201,371.111 C 46.716962,468.17823 193.6097,463.88176 120.66101,371.165 L 120.02101,370.337 M 368.94702,1.517 L 351.09402,1.517 C 352.10202,7.409 354.67002,14.224 359.40302,17.861 L 360.01502,18.338 L 360.63602,17.861 C 365.40202,13.774 367.94802,7.372 368.94702,1.517 M 488.94799,1.517 L 471.09399,1.517 C 472.09999,7.409 474.66999,14.224 479.40799,17.861 L 480.01199,18.338 L 480.63299,17.861 C 485.39899,13.774 487.95099,7.372 488.94799,1.517 M 598.497,1.517 L 591.098,1.517 C 592.039,7.02 594.342,13.328 598.497,17.1 L 598.497,1.517"
       id="semé_de_fleurs_de_lis_1_"
       style="fill:#fcef3c;fill-opacity:1;stroke:#000000;stroke-width:2"
       sodipodi:nodetypes="cccccccccccccccccccccccccccccccccccccccccccccccsscscccccscsscccccccccccccccccccccccccccsccccccscccccccccsscscccccssssccccccccccccccccccccccccsccsccccccsccccccccccssscccccssscccccccccccccccccccccccccccccccccccccccccccccsscscccccscsscccccccccccccccccccccccccccsccccccscccccccccsscscccccsssscccccccccccccccccccccccccccccccccsssscccccccccccccccccccccccccccssssccccccccccccccccccccccccccccccccccccccccccsscscccccscssccccccccccccccccccccccccccccccccccccccccccccsssscccccssssccccccccccccccccccccccccccccccccccccccccccccsssscccccscssccccccccccccccccccccccccccccccccccccccccccccsscscccccscssccccccccccccccccccscccccccccccccccccccccccccsscscccccscssccccccccccccccccccccccccccccccccccccccccccccsscsccscssccccccccccccccccccscccccccccccccccccccccccccsscsccscssccccccccccccccccccscccccccccccccccccccccccccsscsccscssccccccccccccccccccccccccccccccccccccccccccccsscsccscssccccccccccccccccccscccccccccccccccccccccccccccccccccccc" />
  </g>
  <g
     id="layer1"
     style="display:inline"
     transform="translate(0.71429,4.2857141e-7)">
    <path
       d="M 299.99999,658.50028 C 299.99999,658.50028 1.5,546.17992 1.5,260.72828 C 1.5,-24.723336 1.5,2.1764957 1.5,2.1764957 L 598.49999,2.1764957 L 598.49999,260.72828 C 598.49999,546.17992 299.99999,658.50028 299.99999,658.50028 z"
       id="path1411"
       style="opacity:1;fill:none;fill-opacity:1;fill-rule:evenodd;stroke:#000000;stroke-width:3.00000048;stroke-linecap:butt;stroke-linejoin:miter;stroke-miterlimit:4;stroke-dasharray:none;stroke-opacity:1" />
  </g>
  <path
     id="path11795"
     style="fill:#ffffff;fill-opacity:1;fill-rule:evenodd;stroke:#000000;stroke-width:3;stroke-linecap:butt;stroke-linejoin:miter;stroke-opacity:1;display:inline;stroke-miterlimit:4;stroke-dasharray:none"
     d="M 300,658.94343 C 300,658.94343 544.77612,566.83847 591.01441,337.47224 C 595.83714,313.54901 597.09701,312.48515 595.97462,312.48515 L 5.14777,312.48515 C 5.14777,338.63168 4.00441,312.01209 8.55446,335.3002 C 53.67903,566.25718 300,658.94343 300,658.94343 z"
     sodipodi:nodetypes="csccsc" />
  <g
     transform="matrix(0.9126368,0,0,0.6004355,-13.296741,-136.44501)"
     id="g4837"
     inkscape:label="Calque 1">
    <g
       style="fill:#ffffff"
       id="g9557">
      <g
         id="g8660"
         transform="translate(28.28427,-6.060915)"
         style="fill:#ffffff;fill-opacity:1">
        <g
           id="g8650"
           style="fill:#ffffff;fill-opacity:1">
          <path
             style="opacity:1;fill:#ffffff;fill-opacity:1;fill-rule:evenodd;stroke:#000000;stroke-width:3;stroke-linecap:butt;stroke-linejoin:miter;marker:none;marker-start:none;marker-mid:none;marker-end:none;stroke-miterlimit:4;stroke-dasharray:none;stroke-dashoffset:0;stroke-opacity:0.9959183;visibility:visible;display:inline;overflow:visible"
             d="M 193.57143,324.1479 C 215.14061,326.15162 230.35201,315.41969 235.35714,308.79075 C 234.5281,305.03013 253.21191,308.55194 262.14286,306.29075 C 259.94911,286.78421 262.0955,284.17223 269.28571,275.21932 C 269.28099,281.14884 268.0118,287.33125 272.5,292.36218 C 273.5462,295.41405 273.42026,301.98235 273.57143,307.71932 C 276.99726,304.07213 280.1829,306.66059 283.57143,305.57646 C 290.33476,300.16506 290.41223,314.34718 297.5,318.43361 C 299.07796,336.76612 299.89081,357.85291 299.79287,364.87846 C 303.39826,370.24113 310.31621,375.1054 298.72613,372.47269 C 298.80171,374.37415 298.5638,379.8464 297.5,385.21932 C 296.62316,394.73756 286.75748,416.96786 280.71429,432.36218 C 276.94512,441.29204 285.62328,457.09701 290.35714,456.6479 C 337.96289,463.2659 386.73715,460.60022 425,458.79075 C 443.7783,459.45854 458.24471,462.4091 468.92857,467.36218 C 486.03071,475.67043 484.11518,491.15462 495.71429,505.21932 C 492.6714,505.7335 488.37956,502.50087 483.92857,498.79075 C 485.29142,516.70122 483.30895,531.26637 481.42857,545.93361 C 481.50716,550.8044 482.51407,555.18007 489.64286,556.29075 C 502.05189,557.93046 508.78701,554.70682 518.21429,553.79075 C 526.29453,552.81446 527.55962,556.00299 527.14286,560.21932 C 512.48251,596.04556 506.97299,630.4319 508.21429,655.93361 C 507.77846,657.7501 507.40943,661.98823 501.42857,656.6479 C 500.99663,655.85196 499.83432,655.42122 497.5,655.57647 C 492.61905,662.00495 487.73809,664.92416 482.85714,674.86218 C 481.02749,681.3444 479.67305,688.16606 474.64286,692.36218 C 472.33693,692.83755 472.58092,689.55587 471.07143,688.79075 C 468.45238,692.22741 465.83334,691.94058 463.21429,692.18361 C 454.80495,692.91225 496.16411,649.43032 495.89286,647.36218 C 501.01336,643.68332 501.7078,624.66306 502.85714,619.50504 C 504.75985,603.99111 510.4137,590.85417 506.78572,572.36218 C 496.62744,581.61202 472.73175,583.43382 447.14285,578.07647 C 433.10065,575.79542 434.27078,566.174 432.85714,563.43361 C 431.40988,537.3075 440.83062,543.8267 435.71429,513.43361 C 435.71761,510.76849 425.94908,500.9801 421.42857,502.71932 C 441.753,516.10973 436.41906,528.10177 433.39286,540.57647 C 423.54157,542.38692 409.72752,561.51066 436.78571,584.1479 C 444.91268,592.25778 435.94775,596.11921 433.21429,595.57647 C 392.70578,592.53906 349.90958,591.8008 341.07505,600.93709 C 338.36445,603.74027 333.44144,601.39829 332.62415,599.73608 C 332.0849,598.63933 333.5612,597.6726 332.93031,596.78726 C 331.10793,594.22989 309.90459,606.70847 304.83952,616.46735 C 303.10842,619.80265 299.5738,614.90365 300.48171,612.39135 C 300.15125,613.66042 290.00706,620.08941 291.40657,615.62601 C 308.87406,581.53758 378.44058,590.20055 411.59803,582.49275 C 400.24529,574.6888 384.10245,567.31601 376.95598,561.03058 C 365.94351,552.25538 379.37498,519.45578 406.44928,508.85214 C 399.02585,507.50123 382.99828,519.79748 379.49664,520.55295 C 371.51598,522.27474 390.96522,507.09197 401.78571,502.00504 C 379.64285,509.74313 364.04219,509.30348 335.35714,525.21932 C 318.19271,536.64865 297.99464,538.93552 277.85714,542.71932 C 278.44801,535.33182 281.58409,531.76213 283.92857,527.00504 C 266.96359,549.07712 286.83334,565.05595 290,579.50504 C 290.81153,581.19174 291.99758,583.28743 287.5,584.1479 C 280.37597,585.73107 276.40982,592.14819 273.57143,601.82647 C 267.97626,619.86218 263.17472,637.8979 255.35714,655.93361 C 251.56522,664.72136 256.32133,677.10113 250.65729,678.05047 C 249.25509,678.28549 250.28619,681.48685 249.28571,682.36218 C 246.73921,687.15674 244.75726,685.10089 243.92857,682.36218 C 243.3159,677.81712 241.29075,677.9803 239.28571,678.07647 C 228.17291,688.62933 217.67349,700.16357 208.92857,714.50504 C 203.72302,715.70683 209.40077,705.56826 208.21429,705.21932 C 206.63737,703.93894 198.71402,713.53169 197.85714,707.36218 L 240,668.79075 C 249.3704,647.1279 252.20718,627.48069 260.71429,606.29075 C 261.32993,603.6089 265.41672,585.52006 250.71429,557.36218 C 244.20609,545.31573 241.54808,532.71926 238.21429,520.21932 C 241.62052,534.12298 245.41879,547.73261 250.71429,560.21932 C 223.59095,556.81663 206.99107,501.92686 208.92857,478.07647 C 215.80567,436.36818 234.33395,407.8308 251.78571,378.07647 C 252.75573,375.57316 253.91095,369.77622 248.57143,360.57647 C 244.11098,361.92435 238.81922,354.95915 233.92857,352.00504 C 215.07043,343.94566 212.87847,349.65423 207.85714,351.29075 C 200.13958,355.42293 198.23395,353.16197 195,352.36218 C 192.15221,351.29075 191.53572,347.8979 195.35714,347.00504 C 201.61368,346.07153 203.45415,345.31937 206.68111,343.52027 C 191.81899,343.86681 188.55625,340.79266 181.78571,332.00504 C 175.9588,324.63279 189.30345,320.6017 193.57143,324.1479 z"
             id="path8636"
             sodipodi:nodetypes="ccccccccccccccccccccccccccccccccccccccsssccccccsccccccccsccccccccccccccccccccc" />
          <path
             style="opacity:1;fill:#ffffff;fill-opacity:1;fill-rule:evenodd;stroke:#000000;stroke-width:3;stroke-linecap:butt;stroke-linejoin:miter;marker:none;marker-start:none;marker-mid:none;marker-end:none;stroke-miterlimit:4;stroke-dasharray:none;stroke-dashoffset:0;stroke-opacity:0.9959183;visibility:visible;display:inline;overflow:visible"
             d="M 88.928572,543.79075 C 101.14058,533.72263 109.08837,524.02531 131.42857,513.07647 C 136.09278,511.30468 138.48413,508.05059 153.57143,513.07647 L 222.5,533.43361 L 237.5,555.21932 C 229.82143,554.56456 150.52589,517.81872 146.42857,520.57647 C 141.89802,523.56075 132.81454,532.00855 134.64286,527.36218 C 137.5335,520.54555 138.62846,515.38645 129.28571,519.86218 C 117.84117,527.72265 108.47309,537.36293 100.35714,548.07647 C 95.983565,554.64029 97.221579,544.14112 96.785714,544.1479 C 95.325822,546.00384 87.274469,547.45611 88.928572,543.79075 z"
             id="path8638"
             sodipodi:nodetypes="ccccccccccc" />
          <path
             style="opacity:1;fill:#ffffff;fill-opacity:1;fill-rule:evenodd;stroke:#000000;stroke-width:3;stroke-linecap:butt;stroke-linejoin:miter;marker:none;marker-start:none;marker-mid:none;marker-end:none;stroke-miterlimit:4;stroke-dasharray:none;stroke-dashoffset:0;stroke-opacity:0.9959183;visibility:visible;display:inline;overflow:visible"
             d="M 241.78571,324.32647 C 243.2999,323.86414 246.559,326.41965 246.96429,330.93361 C 246.43172,333.25923 246.76541,335.13272 243.75,335.75504 C 240.38366,335.69552 239.51078,325.10028 241.78571,324.32647 z"
             id="path8640"
             sodipodi:nodetypes="cccc" />
          <path
             style="opacity:1;fill:#ffffff;fill-opacity:1;fill-rule:evenodd;stroke:#000000;stroke-width:2;stroke-linecap:butt;stroke-linejoin:miter;marker:none;marker-start:none;marker-mid:none;marker-end:none;stroke-miterlimit:4;stroke-dasharray:none;stroke-dashoffset:0;stroke-opacity:0.9959183;visibility:visible;display:inline;overflow:visible"
             d="M 277.67857,332.71933 C 284.8259,340.05797 289.7603,341.63712 295.17857,357.00504 C 298.62295,364.55481 303.56813,368.35255 307.85714,373.79075 C 293.55872,373.55268 279.60991,363.11599 275.1405,356.07937 C 279.6054,364.17009 299.49437,375.80385 306.25,373.25504 C 303.15476,368.80836 298.45238,364.49199 295.35714,357.36217 C 288.36045,339.76177 272.65133,331.14134 277.67857,332.71933 z"
             id="path8642"
             sodipodi:nodetypes="ccccccc" />
          <path
             style="opacity:1;fill:#ffffff;fill-opacity:1;fill-rule:evenodd;stroke:#000000;stroke-width:3;stroke-linecap:butt;stroke-linejoin:miter;marker:none;marker-start:none;marker-mid:none;marker-end:none;stroke-miterlimit:4;stroke-dasharray:none;stroke-dashoffset:0;stroke-opacity:0.9959183;visibility:visible;display:inline;overflow:visible"
             d="M 295.17857,297.00504 C 288.46282,301.40806 287.58746,310.00399 302.5,304.1479 C 324.90781,290.57521 358.15476,288.79076 381.60714,289.86219 C 393.9789,291.97304 430.47619,299.44552 465.17857,295.75504 C 476.90518,290.94942 445.05959,293.96932 431.78572,292.00504 C 435.55952,287.99311 443.48264,287.00702 444.28572,284.68361 C 440.02755,284.3161 434.40045,285.20344 424.46429,290.04075 C 415.39711,292.43474 414.57072,289.33487 409.64286,288.96932 C 407.05924,285.64752 427.13124,279.45934 427.14286,278.61218 C 427.16801,276.77921 414.1253,277.90113 403.39286,286.29075 C 398.66837,286.30607 394.03695,286.50749 388.39286,284.68361 C 389.04654,275.20256 400.58495,273.56441 399.46429,272.18361 C 390.30532,271.42952 388.20601,274.88607 376.78572,282.8979 C 369.57713,282.03609 363.73621,284.33589 357.85714,281.82647 C 361.47255,271.98959 371.09073,268.29532 369.64286,267.36218 C 348.51191,272.89789 356.23895,277.36218 342.14286,282.36218 C 335.32055,284.31279 330.71415,286.05238 323.75,285.3979 C 323.72055,274.22547 337.76034,262.49458 334.28571,263.61218 C 316.1584,271.50387 318.66467,283.87892 313.92857,287.18361 L 295.17857,297.00504 z"
             id="path8644"
             sodipodi:nodetypes="ccccccccsccccccccccc" />
          <path
             style="opacity:1;fill:#ffffff;fill-opacity:1;fill-rule:evenodd;stroke:#000000;stroke-width:3;stroke-linecap:butt;stroke-linejoin:miter;marker:none;marker-start:none;marker-mid:none;marker-end:none;stroke-miterlimit:4;stroke-dasharray:none;stroke-dashoffset:0;stroke-opacity:0.9959183;visibility:visible;display:inline;overflow:visible"
             d="M 291.42857,319.50504 C 297.30317,326.52321 307.03333,328.85611 316.96429,332.71932 C 329.76083,322.25231 334.3091,321.98485 342.85714,320.57647 C 345.63684,322.22604 329.51169,324.54725 325,335.93361 C 337.18312,339.66421 344.68146,339.79114 350.71429,338.79075 C 359.00732,329.86405 367.79762,327.30266 370.71429,326.6479 C 374.26485,327.25732 357.17942,336.37287 358.21429,341.6479 C 364.76191,341.05266 374.89199,342.50454 377.85714,339.86218 C 384.81833,332.50601 391.85825,328.98425 398.21429,328.43361 C 401.42013,329.40305 389.84197,333.11671 387.5,339.50504 C 395.76718,339.65053 400.90817,338.23294 406.42857,337.00504 C 410.50637,331.14288 415.87022,327.46715 422.32142,326.82646 C 424.40875,327.19268 415.51026,331.37215 412.85714,337.00504 L 428.57143,334.50504 C 433.29488,331.35669 437.00189,326.30529 444.46429,326.46933 C 446.76718,327.13192 439.22385,329.43146 437.14286,334.1479 C 453.33334,332.06457 469.97305,329.41482 470.71429,330.57647 C 470.93615,334.10691 443.09781,337.5722 388.57143,346.6479 C 364.42695,350.64232 339.50133,348.12726 313.92857,340.21932 C 303.78738,335.60538 290.62791,331.3268 284.28571,326.29075 C 279.9154,323.44517 281.52739,313.59278 291.42857,319.50504 z"
             id="path8648"
             sodipodi:nodetypes="ccccccccccccccccccccc" />
        </g>
        <path
           id="path8658"
           d="M 184.85791,328.08281 C 183.1186,328.31091 184.85791,334.4775 184.85791,328.08281 z"
           style="opacity:1;fill:#ffffff;fill-opacity:1;fill-rule:evenodd;stroke:#000000;stroke-width:2;stroke-linecap:butt;stroke-linejoin:miter;marker:none;marker-start:none;marker-mid:none;marker-end:none;stroke-miterlimit:4;stroke-dasharray:none;stroke-dashoffset:0;stroke-opacity:1;visibility:visible;display:inline;overflow:visible" />
      </g>
      <path
         style="opacity:1;fill:#ffffff;fill-opacity:1;fill-rule:evenodd;stroke:#000000;stroke-width:1.16340446;stroke-linecap:butt;stroke-linejoin:miter;marker:none;marker-start:none;marker-mid:none;marker-end:none;stroke-miterlimit:4;stroke-dasharray:none;stroke-dashoffset:0;stroke-opacity:0.9959183;visibility:visible;display:inline;overflow:visible"
         d="M 270.15266,321.20949 C 272.2171,321.4276 272.98437,324.89869 270.91442,325.64151 C 266.66919,324.88349 267.90586,321.16843 270.15266,321.20949 z"
         id="path9555"
         sodipodi:nodetypes="ccc" />
    </g>
  </g>
  <path
     style="fill:none;fill-rule:evenodd;stroke:#000000;stroke-width:3;stroke-linecap:butt;stroke-linejoin:miter;stroke-opacity:1;stroke-miterlimit:4;stroke-dasharray:none"
     d="M 300,657.17189 C 300,327.38632 300,311.52007 300,311.52007"
     id="path5622"
     sodipodi:nodetypes="cc" />
  <path
     style="fill:#e20909;fill-opacity:1;fill-rule:evenodd;stroke:#000000;stroke-width:2.99805427;stroke-linecap:butt;stroke-linejoin:miter;stroke-miterlimit:4;stroke-dasharray:none;stroke-opacity:1"
     d="M 52.221445,449.08476 L 82.937431,495.04484 C 155.13619,495.02293 227.33496,495.0343 299.53373,495.0343 C 299.64408,408.2799 299.64408,408.2799 299.64408,408.2799 L 30.929991,408.01335"
     id="path5626"
     sodipodi:nodetypes="ccccc" />
  <path
     style="opacity:1;fill:#fcef3c;fill-opacity:1;fill-rule:nonzero;stroke:#000000;stroke-width:3.59588075000000010;stroke-linecap:round;stroke-linejoin:bevel;stroke-miterlimit:4;stroke-dasharray:none;stroke-dashoffset:0;stroke-opacity:1"
     d="M 302.62258,387.39622 L 302.62258,314.87929 L 375.73882,314.87929 L 448.85507,314.87929 L 448.85507,387.39622 L 448.85507,459.91315 L 375.73882,459.91315 L 302.62258,459.91315 L 302.62258,387.39622 z"
     id="path5638" />
  <path
     style="opacity:1;fill:#fcef3c;fill-opacity:1;fill-rule:nonzero;stroke:#000000;stroke-width:3.59588075000000010;stroke-linecap:round;stroke-linejoin:bevel;stroke-miterlimit:4;stroke-dasharray:none;stroke-dashoffset:0;stroke-opacity:1"
     d="M 450.05369,512.73972 L 450.05369,462.3104 L 493.93182,462.3104 C 532.07096,462.3104 537.72138,462.54117 537.13288,464.07476 C 536.02372,466.96524 523.32292,484.83028 513.24909,497.66989 C 496.23857,519.35072 467.70731,549.24613 452.82366,560.98446 L 450.05369,563.16903 L 450.05369,512.73972 z"
     id="path5640" />
  <path
     style="opacity:1;fill:#000000;fill-opacity:1;fill-rule:nonzero;stroke:#000000;stroke-width:3.59588075000000010;stroke-linecap:round;stroke-linejoin:bevel;stroke-miterlimit:4;stroke-dasharray:none;stroke-dashoffset:0;stroke-opacity:1"
     d="M 451.25232,387.39622 L 451.25232,314.87929 L 522.59344,314.87929 L 593.93458,314.87929 L 593.32143,317.5762 C 581.96775,367.51574 579.2138,377.16581 569.16695,402.21503 C 562.96014,417.69017 549.78988,444.27926 543.01769,455.00712 L 539.92064,459.91315 L 495.58652,459.91315 L 451.25232,459.91315 L 451.25232,387.39622 z"
     id="path5642" />
  <path
     style="opacity:1;fill:#000000;fill-opacity:1;fill-rule:nonzero;stroke:#000000;stroke-width:3.59588075;stroke-linecap:round;stroke-linejoin:bevel;stroke-miterlimit:4;stroke-dasharray:none;stroke-dashoffset:0;stroke-opacity:1"
     d="M 302.62258,558.79987 L 302.62258,462.3104 L 375.11441,462.3104 L 447.60632,462.3104 L 447.931,513.71952 L 448.25575,565.12865 L 437.48384,573.95052 C 402.79001,602.3639 357.4941,630.76802 318.21986,648.73849 C 310.34562,652.34143 303.61497,655.28933 303.26283,655.28933 C 302.91066,655.28933 302.62258,611.86907 302.62258,558.79987 z"
     id="path5644" />
</svg>
