<?xml version="1.0" encoding="UTF-8" standalone="no"?>
<svg
   xmlns:dc="http://purl.org/dc/elements/1.1/"
   xmlns:cc="http://creativecommons.org/ns#"
   xmlns:rdf="http://www.w3.org/1999/02/22-rdf-syntax-ns#"
   xmlns:svg="http://www.w3.org/2000/svg"
   xmlns="http://www.w3.org/2000/svg"
   xmlns:xlink="http://www.w3.org/1999/xlink"
   xmlns:sodipodi="http://sodipodi.sourceforge.net/DTD/sodipodi-0.dtd"
   xmlns:inkscape="http://www.inkscape.org/namespaces/inkscape"
   height="660"
   width="600"
   version="1.0"
   id="svg2"
   sodipodi:version="0.32"
   inkscape:version="0.46"
   sodipodi:docname="prov2.svg"
   sodipodi:docbase="C:\Users\Jany\Documents\aaaOuiqui\Blasons\Blasons Vaucluse"
   inkscape:export-filename="/Users/olivier/Desktop/Blason Rouge/Blason_Vide_3D.png"
   inkscape:export-xdpi="144"
   inkscape:export-ydpi="144"
   inkscape:output_extension="org.inkscape.output.svg.inkscape">
  <metadata
     id="metadata49">
    <rdf:RDF>
      <cc:Work
         rdf:about="">
        <dc:format>image/svg+xml</dc:format>
        <dc:type
           rdf:resource="http://purl.org/dc/dcmitype/StillImage" />
        <dc:title>Gabarit d'un blason en pointe pour le projet Blasons de Wikipédia</dc:title>
        <dc:date>03-AUG-2006</dc:date>
        <dc:creator>
          <cc:Agent>
            <dc:title>Jérôme BLUM (wagner51)</dc:title>
          </cc:Agent>
        </dc:creator>
        <cc:license
           rdf:resource="http://web.resource.org/cc/PublicDomain" />
        <dc:language>fr</dc:language>
        <dc:subject>
          <rdf:Bag>
            <rdf:li>gabarit modèle blason projet wikipédia</rdf:li>
          </rdf:Bag>
        </dc:subject>
      </cc:Work>
      <cc:License
         rdf:about="http://web.resource.org/cc/PublicDomain">
        <cc:permits
           rdf:resource="http://web.resource.org/cc/Reproduction" />
        <cc:permits
           rdf:resource="http://web.resource.org/cc/Distribution" />
        <cc:permits
           rdf:resource="http://web.resource.org/cc/DerivativeWorks" />
      </cc:License>
    </rdf:RDF>
  </metadata>
  <sodipodi:namedview
     inkscape:window-height="1246"
     inkscape:window-width="1577"
     inkscape:pageshadow="2"
     inkscape:pageopacity="0.0"
     guidetolerance="10.0"
     gridtolerance="10.0"
     objecttolerance="10.0"
     borderopacity="1.0"
     bordercolor="#666666"
     pagecolor="#ffffff"
     id="base"
     showgrid="false"
     height="660px"
     inkscape:zoom="1.6"
     inkscape:cx="299.99987"
     inkscape:cy="329.99972"
     inkscape:window-x="631"
     inkscape:window-y="223"
     inkscape:current-layer="layer4"
     showguides="true"
     inkscape:guide-bbox="true" />
  <desc
     id="desc4">Flag of Canton of Valais (Wallis)</desc>
  <defs
     id="defs6">
    <linearGradient
       id="linearGradient2893">
      <stop
         style="stop-color:white;stop-opacity:0.3137255;"
         offset="0"
         id="stop2895" />
      <stop
         id="stop2897"
         offset="0.19"
         style="stop-color:white;stop-opacity:0.25098041;" />
      <stop
         style="stop-color:#6b6b6b;stop-opacity:0.1254902;"
         offset="0.60000002"
         id="stop2901" />
      <stop
         style="stop-color:black;stop-opacity:0.1254902;"
         offset="1"
         id="stop2899" />
    </linearGradient>
    <radialGradient
       inkscape:collect="always"
       xlink:href="#linearGradient2893"
       id="radialGradient3163"
       gradientUnits="userSpaceOnUse"
       gradientTransform="matrix(1.353218,0,0,1.348928,-77.62935,-85.74693)"
       cx="221.44487"
       cy="226.33101"
       fx="221.44487"
       fy="226.33101"
       r="300" />
  </defs>
  <g
     inkscape:groupmode="layer"
     id="layer3"
     inkscape:label="Fond écu"
     style="display:inline"
     sodipodi:insensitive="true">
    <path
       id="path2855"
       style="fill:#e20909;fill-opacity:1;fill-rule:evenodd;stroke:none;stroke-width:1px;stroke-linecap:butt;stroke-linejoin:miter;stroke-opacity:1"
       d="M 300,658.5 C 300,658.5 598.50001,546.17969 598.50001,260.72817 C 598.50001,-24.723354 598.50001,2.1764765 598.50001,2.1764765 L 1.5,2.1764765 L 1.5,260.72817 C 1.5,546.17969 300,658.5 300,658.5 z"
       sodipodi:nodetypes="cccccc" />
    <path
       id="path19353"
       style="fill:#fcef3c;fill-opacity:1;fill-rule:evenodd;stroke:#000000;stroke-width:3;stroke-linecap:butt;stroke-linejoin:miter;stroke-miterlimit:4;stroke-opacity:1"
       d="M 300,295.25703 L 300,2.1764765 L 1.5,2.1764765 L 1.5,260.72817 C 1.5,272.53242 2.0104538,284.04061 2.9891439,295.25703 L 300,295.25703 z M 300,658.5 C 300,658.5 573.96751,555.41084 596.96646,295.76211 L 300,295.71428 L 300,658.5 z" />
  </g>
  <g
     inkscape:groupmode="layer"
     id="layer4"
     inkscape:label="Meubles">
    <path
       sodipodi:type="star"
       style="opacity:1;fill:#fcef3c;fill-opacity:1;stroke:#000000;stroke-width:4.60330343;stroke-miterlimit:4;stroke-dasharray:none;stroke-opacity:1;display:inline"
       id="path2269"
       sodipodi:sides="8"
       sodipodi:cx="793.65082"
       sodipodi:cy="148.88889"
       sodipodi:r1="94.307625"
       sodipodi:r2="36.997845"
       sodipodi:arg1="0.80920319"
       sodipodi:arg2="1.2030856"
       inkscape:flatsided="false"
       inkscape:rounded="-3.469447e-18"
       inkscape:randomized="0"
       d="M 858.73018,217.14285 L 806.95081,183.41353 L 791.40603,243.16979 L 778.64272,182.70601 L 725.39685,213.96825 L 759.12618,162.18888 L 699.36991,146.6441 L 759.8337,133.88079 L 728.57145,80.634917 L 780.35083,114.36425 L 795.8956,54.607981 L 808.65891,115.07177 L 861.90479,83.80952 L 828.17546,135.5889 L 887.93172,151.13367 L 827.46794,163.89698 L 858.73018,217.14285 z"
       transform="matrix(0.6516251,-1.0261132e-2,1.0261132e-2,0.6516251,-51.352748,46.658233)" />
    <g
       style="display:inline"
       id="g20358">
      <path
         sodipodi:nodetypes="ccccccccc"
         id="path6446"
         d="M 103.58813,166.39818 L 103.58813,196.55685 L 120.58831,196.55685 L 120.58831,187.67183 C 120.52055,174.30956 142.59792,173.97989 143.00477,188.35882 L 143.10851,196.55685 L 159.45528,196.55685 L 159.45528,166.39818 L 103.58813,166.39818 z"
         style="fill:#2b5df2;fill-opacity:1;fill-rule:evenodd;stroke:#000000;stroke-width:2;stroke-linecap:butt;stroke-linejoin:miter;stroke-miterlimit:4;stroke-dasharray:none;stroke-opacity:1;display:inline" />
      <path
         sodipodi:nodetypes="ccccccccccccccccccccccc"
         id="path6448"
         d="M 103.06578,162.82668 L 114.44218,152.62251 L 114.44218,99.381126 L 104.43949,93.885243 L 104.33575,74.466448 L 112.58757,74.466448 L 112.58757,81.194807 L 119.42871,81.194807 L 119.42871,74.466448 L 127.91802,74.466448 L 127.91802,81.194807 L 135.26741,81.194807 L 135.26741,74.466448 L 144.42166,74.466448 L 144.42166,81.194807 L 151.10611,81.194807 L 151.10611,74.466448 L 159.36107,74.466448 L 159.36107,93.885243 L 149.15088,99.381126 L 149.15088,152.62251 L 159.71524,162.58379 L 103.06578,162.82668 z"
         style="fill:#2b5df2;fill-opacity:1;fill-rule:evenodd;stroke:#000000;stroke-width:2;stroke-linecap:butt;stroke-linejoin:miter;stroke-miterlimit:4;stroke-dasharray:none;stroke-opacity:1;display:inline" />
      <path
         sodipodi:nodetypes="ccccc"
         id="path6450"
         d="M 101.91241,162.34316 L 160.86861,162.34316 L 160.86861,168.19924 L 101.91241,168.19924 L 101.91241,162.34316 z"
         style="opacity:0.93949046;fill:#2b5df2;fill-opacity:1;fill-rule:evenodd;stroke:#000000;stroke-width:2;stroke-linecap:round;stroke-linejoin:round;stroke-miterlimit:4;stroke-dasharray:none;stroke-dashoffset:0;stroke-opacity:1;display:inline" />
      <path
         sodipodi:nodetypes="cccccccccccccscccccccccccccccccccccccccccc"
         d="M 151.02426,81.394167 C 160.3985,81.429857 159.40538,81.394167 159.40538,81.394167 M 119.34927,81.394167 C 122.56124,81.380416 125.52188,81.402897 128.25086,81.394167 M 135.68551,81.394167 C 138.85982,81.388016 141.62639,81.393485 144.03762,81.394167 M 104.39981,81.394167 C 107.38468,81.377625 110.06896,81.407273 112.74485,81.394167 M 104.39989,85.445482 C 160.54037,85.134378 159.40538,85.445482 159.40538,85.445482 M 104.51064,90.04829 C 162.52663,89.719551 159.26349,90.04829 159.26349,90.04829 M 114.15143,99.014402 C 131.37361,98.938686 142.18233,98.976345 148.96593,99.011015 M 131.88707,90.04829 L 131.55869,99.032249 M 131.68805,81.394167 L 131.68805,85.445482 M 141.01254,90.04829 L 137.36111,98.87996 M 142.8451,81.394167 L 142.8451,85.445482 M 153.11738,90.04829 L 143.16352,98.87996 M 154.00213,81.394167 L 154.00213,85.445482 M 122.76159,90.04829 L 125.75627,99.032249 M 120.53103,81.394167 L 120.53103,85.445482 M 110.65675,90.04829 L 119.95386,99.184539 M 109.37398,81.394167 L 109.37398,85.445482 M 137.38525,85.445482 L 137.38525,90.04829 M 148.5423,85.445482 L 148.5423,90.04829 M 126.22822,85.445482 L 126.22822,90.04829 M 115.07117,85.445482 L 115.07117,90.04829"
         style="fill:#2b5df2;fill-opacity:1;fill-rule:evenodd;stroke:#000000;stroke-width:0.40000001;stroke-linecap:butt;stroke-linejoin:miter;stroke-miterlimit:4;stroke-dasharray:none;stroke-opacity:1;display:inline"
         id="path6452" />
      <path
         sodipodi:nodetypes="ccccc"
         id="path6454"
         d="M 102.27748,89.969133 L 160.50353,89.969133 L 160.50353,93.77759 L 102.27748,93.77759 L 102.27748,89.969133 z"
         style="fill:#2b5df2;fill-opacity:1;fill-rule:evenodd;stroke:#000000;stroke-width:2;stroke-linecap:round;stroke-linejoin:round;stroke-miterlimit:4;stroke-dasharray:none;stroke-dashoffset:0;stroke-opacity:1;display:inline" />
      <path
         sodipodi:nodetypes="ccccccccccccccccccccccccccccccccccccccccccccccccccccccccccccccccccccccccccccccccccccccccc"
         d="M 142.61677,196.06571 L 159.0924,196.06571 M 142.61677,191.23339 L 159.0924,191.23339 M 142.89113,185.62057 L 159.0924,185.71672 M 103.81339,191.23339 L 120.56803,191.23339 M 138.9935,180.10583 L 159.0924,180.10583 M 103.81339,185.75866 L 120.45698,185.67356 M 103.81339,196.06571 L 120.64753,196.06571 M 114.01368,152.81634 L 149.53551,152.81634 M 109.51841,156.93388 L 153.50958,156.93388 M 102.38088,162.37325 C 160.40012,162.04905 160.40013,162.37325 160.40013,162.37325 M 103.81339,168.25037 L 159.0924,168.25037 M 103.81339,174.62283 C 122.36388,175.12989 140.54937,173.88199 159.0924,174.62283 M 103.81339,180.10583 C 111.43052,180.06384 117.74366,180.12739 123.45697,180.10583 M 131.37212,156.93388 L 131.3905,162.37325 M 131.68807,168.25037 L 131.68807,174.62283 M 140.12273,156.93388 L 143.33037,162.37325 M 144.54824,168.25037 L 144.54824,174.62283 M 144.54824,180.10583 L 144.54824,185.7646 M 149.44083,156.93388 L 154.56087,162.37325 M 154.99652,168.25037 L 154.99652,174.62283 M 154.99652,180.10583 L 154.99652,185.7646 M 154.99652,191.23339 L 154.99652,196.06571 M 122.62152,156.93388 L 119.73438,162.37325 M 118.82793,168.25037 L 118.82793,174.62283 M 118.82793,180.10583 L 118.82793,185.7646 M 120.53042,191.23339 L 120.53042,196.06571 M 113.30341,156.93388 L 108.36201,162.37325 M 108.23775,168.25037 L 108.23775,174.62283 M 108.23775,180.10583 L 108.23775,185.7646 M 108.23775,191.23339 L 108.23775,196.06571 M 134.75928,152.81634 L 136.39246,157.04255 M 137.38559,162.37325 L 137.38559,168.25037 M 137.38559,174.62283 L 137.38559,178.48658 M 142.00552,152.81634 L 144.99639,157.04255 M 149.67826,162.37325 L 149.67826,168.25037 M 149.67826,174.62283 L 149.67826,180.10583 M 149.67826,185.7646 L 149.67826,191.23339 M 128.22241,152.81634 L 126.51168,157.04255 M 126.22793,162.37325 L 126.22793,168.25037 M 121.11805,152.81634 L 117.19838,157.04255 M 113.36776,162.37325 L 113.36776,168.25037 M 113.36776,174.62283 L 113.36776,180.10583 M 113.36776,185.7646 L 113.36776,191.23339 M 126.22793,174.62283 L 126.22793,174.62283 L 126.19749,178.56195"
         style="fill:#2b5df2;fill-opacity:1;fill-rule:evenodd;stroke:#000000;stroke-width:0.40000001;stroke-linecap:butt;stroke-linejoin:miter;stroke-miterlimit:4;stroke-dasharray:none;stroke-opacity:1;display:inline"
         id="path6456" />
      <path
         sodipodi:nodetypes="cscscccscscscscscscscccccccccccccccccccccccccccccccccccccccccccccccccccccccccccccccccccccccc"
         d="M 114.01465,99.294946 L 149.5345,99.21938 M 114.41593,102.85179 C 131.57635,102.77027 142.39694,102.75845 149.13322,102.77563 M 114.41593,108.47072 L 149.13322,108.47072 M 114.41593,113.74872 C 131.74023,113.66649 142.41776,113.65535 149.13322,113.67335 M 114.41593,119.36926 C 131.92013,119.28574 142.38274,119.27443 149.13322,119.2926 M 114.41593,124.83062 C 131.77062,124.7478 142.37001,124.73598 149.13322,124.75348 M 114.41593,130.45875 C 131.84268,130.376 142.4228,130.36517 149.13322,130.38358 M 114.41593,135.97694 C 131.89546,135.89341 142.3653,135.88178 149.13322,135.89964 M 114.41593,141.5215 C 131.795,141.43871 142.38753,141.42721 149.13322,141.44501 M 114.41593,147.15047 C 131.74401,147.06805 142.39887,147.05663 149.13322,147.07441 M 114.41593,152.81808 L 149.13322,152.81808 M 131.68805,102.78948 L 131.68805,108.42484 M 131.68805,113.81206 L 131.68805,119.43127 M 131.68805,124.89261 L 131.68805,130.522 M 131.68805,136.03854 L 131.68805,141.58391 M 131.68805,147.2133 L 131.68805,152.81808 M 143.44702,102.78948 L 143.44702,108.42484 M 143.44702,113.81206 L 143.44702,119.43127 M 143.44702,124.89261 L 143.44702,130.522 M 143.44702,136.03854 L 143.44702,141.58391 M 143.44702,147.2133 L 143.44702,152.81808 M 119.9291,102.78948 L 119.9291,108.42484 M 119.9291,113.81206 L 119.9291,119.43127 M 119.9291,124.89261 L 119.9291,130.522 M 119.9291,136.03854 L 119.9291,141.58391 M 119.9291,147.2133 L 119.9291,152.81808 M 137.98718,99.358473 L 137.98718,102.84015 M 137.98718,108.47376 L 137.98718,113.81206 M 137.98718,119.43127 L 137.98718,124.89261 M 137.98718,130.522 L 137.98718,136.03854 M 137.98718,141.58391 L 137.98718,147.2133 M 146.73653,99.358473 L 146.73653,102.84015 M 146.73653,108.47376 L 146.73653,113.81206 M 146.73653,119.43127 L 146.73653,124.89261 M 146.73653,130.522 L 146.73653,136.03854 M 146.73653,141.58391 L 146.73653,147.2133 M 125.22502,99.358473 L 125.22502,102.84015 M 125.22502,108.47376 L 125.22502,113.81206 M 125.22502,119.43127 L 125.22502,124.89261 M 125.22502,130.522 L 125.22502,136.03854 M 125.22502,141.58391 L 125.22502,147.2133 M 116.87694,99.358473 L 116.87694,102.84015 M 116.87694,108.47376 L 116.87694,113.81206 M 116.87694,119.43127 L 116.87694,124.89261 M 116.87694,130.522 L 116.87694,136.03854 M 116.87694,141.58391 L 116.87694,147.2133"
         style="fill:#2b5df2;fill-opacity:1;fill-rule:evenodd;stroke:#000000;stroke-width:0.40000001;stroke-linecap:butt;stroke-linejoin:miter;stroke-miterlimit:4;stroke-dasharray:none;stroke-opacity:1;display:inline"
         id="path6458" />
      <g
         transform="matrix(0.2528076,0,0,0.2713643,-50.290195,70.968802)"
         id="g6460"
         style="fill:#2b5df2;fill-opacity:1;stroke:#000000;stroke-width:3.81793547;stroke-miterlimit:4;stroke-dasharray:none;stroke-opacity:1">
        <rect
           style="fill:#2b5df2;fill-opacity:1;fill-rule:evenodd;stroke:#000000;stroke-width:3.81793547;stroke-linecap:round;stroke-linejoin:round;stroke-miterlimit:4;stroke-dasharray:none;stroke-dashoffset:0;stroke-opacity:1;display:inline"
           id="rect6462"
           width="27.056078"
           height="40.901386"
           x="705.12402"
           y="127.67141"
           ry="0"
           rx="0" />
        <rect
           rx="0"
           ry="0"
           y="133.74124"
           x="711.05139"
           height="28.761738"
           width="15.201328"
           id="rect6464"
           style="fill:#2b5df2;fill-opacity:1;fill-rule:evenodd;stroke:#000000;stroke-width:3.81793547;stroke-linecap:round;stroke-linejoin:round;stroke-miterlimit:4;stroke-dasharray:none;stroke-dashoffset:0;stroke-opacity:1;display:inline" />
      </g>
      <g
         id="g6466"
         transform="matrix(0.2528076,0,0,0.2713643,-50.290195,97.674489)"
         style="fill:#2b5df2;fill-opacity:1;stroke:#000000;stroke-width:3.81793547;stroke-miterlimit:4;stroke-dasharray:none;stroke-opacity:1">
        <rect
           rx="0"
           ry="0"
           y="127.67141"
           x="705.12402"
           height="40.901386"
           width="27.056078"
           id="rect6468"
           style="fill:#2b5df2;fill-opacity:1;fill-rule:evenodd;stroke:#000000;stroke-width:3.81793547;stroke-linecap:round;stroke-linejoin:round;stroke-miterlimit:4;stroke-dasharray:none;stroke-dashoffset:0;stroke-opacity:1;display:inline" />
        <rect
           style="fill:#2b5df2;fill-opacity:1;fill-rule:evenodd;stroke:#000000;stroke-width:3.81793547;stroke-linecap:round;stroke-linejoin:round;stroke-miterlimit:4;stroke-dasharray:none;stroke-dashoffset:0;stroke-opacity:1;display:inline"
           id="rect6470"
           width="15.201328"
           height="28.761738"
           x="711.05139"
           y="133.74124"
           ry="0"
           rx="0" />
      </g>
    </g>
    <g
       id="g3325">
      <g
         style="fill:#000000;display:inline;stroke:#3b3b39;stroke-opacity:1;stroke-width:3;stroke-miterlimit:4;stroke-dasharray:none"
         transform="translate(-529.5,-144.125)"
         id="g2289">
        <path
           sodipodi:nodetypes="ccccccccccccccccc"
           d="M 1008,490.97596 L 975.38636,441.3125 L 1008,391.64904 L 861.32017,411.64904 L 881.23864,248.5 L 828.625,278.16346 L 776.0929,248.5 L 796.0929,411.64904 L 649.25,391.64904 L 681.86364,441.3125 L 649.25,490.97596 L 796.0929,470.97596 L 776.0929,634.125 L 828.625,604.46154 L 881.32017,634.125 L 861.32017,470.97596 L 1008,490.97596 z"
           style="fill:#000000;stroke:#3b3b39;stroke-opacity:1;stroke-width:3;stroke-miterlimit:4;stroke-dasharray:none"
           id="path2291" />
      </g>
      <path
         sodipodi:type="arc"
         style="fill:#000000;fill-opacity:1;fill-rule:evenodd;stroke:#313131;stroke-width:3.62519026;stroke-linecap:butt;stroke-linejoin:miter;stroke-miterlimit:4;stroke-dasharray:none;stroke-opacity:1;display:inline"
         id="path14388"
         sodipodi:cx="1434.5"
         sodipodi:cy="387.86218"
         sodipodi:rx="20.5"
         sodipodi:ry="19.5"
         d="M 1455,387.86218 A 20.5,19.5 0 1 1 1414,387.86218 A 20.5,19.5 0 1 1 1455,387.86218 z"
         transform="matrix(0.8071012,0,0,0.8485021,-910.91167,-222.85188)" />
      <use
         height="660"
         width="600"
         transform="translate(105,377.375)"
         id="use3311"
         xlink:href="#path14388"
         y="0"
         x="0" />
      <use
         height="660"
         width="600"
         transform="translate(-101.875,0.125)"
         id="use3313"
         xlink:href="#use3311"
         y="0"
         x="0" />
      <use
         height="660"
         width="600"
         transform="translate(-126.625,-236.875)"
         id="use3315"
         xlink:href="#use3313"
         y="0"
         x="0" />
      <use
         height="660"
         width="600"
         transform="translate(0.375,98.125)"
         id="use3317"
         xlink:href="#use3315"
         y="0"
         x="0" />
      <use
         height="660"
         width="600"
         transform="translate(351.875,-1.25)"
         id="use3319"
         xlink:href="#use3317"
         y="0"
         x="0" />
      <use
         height="660"
         width="600"
         transform="translate(-0.625,-95)"
         id="use3321"
         xlink:href="#use3319"
         y="0"
         x="0" />
      <use
         height="660"
         width="600"
         transform="translate(-127.5,-143.75)"
         id="use3323"
         xlink:href="#use3321"
         y="0"
         x="0" />
    </g>
    <g
       id="g7593"
       transform="matrix(0.4464405,0,0,0.4464405,-83.259158,160.47837)"
       style="stroke-width:6.7198205;stroke-miterlimit:4;stroke-dasharray:none;display:inline">
      <path
         sodipodi:nodetypes="ccccsssscccsssscccc"
         d="M 860.11228,492.4913 L 864.3209,471.81823 C 865.60875,465.09051 865.86479,459.53904 874.29242,457.19743 C 887.791,449.40779 891.94487,427.11615 878.32183,417.56339 C 866.59219,408.34108 878.3494,393.48335 886.66269,384.68382 C 894.85829,376.00886 900.32178,363.92685 902.93291,352.23712 C 911.6055,313.41083 902.26933,285.17739 889.46497,250.5078 C 878.31477,220.31708 864.06263,196.74837 880.31902,168.81569 C 885.37664,160.12539 907.49598,132.3369 906.15693,118.85594 C 888.87423,124.1273 876.21253,131.21422 860.11228,132.03696 C 844.01203,131.21422 831.35033,124.1273 814.06763,118.85594 C 812.72858,132.3369 834.84792,160.12539 839.90554,168.81569 C 856.16193,196.74837 841.90979,220.31708 830.75959,250.5078 C 817.95523,285.17739 808.61906,313.41083 817.29165,352.23712 C 819.90278,363.92685 825.36627,376.00886 833.56187,384.68382 C 841.87516,393.48335 853.63237,408.34108 841.90273,417.56339 C 828.27969,427.11615 832.43356,449.40779 845.93214,457.19743 C 854.35977,459.53904 854.61581,465.09051 855.90366,471.81823 L 860.11228,492.4913 z"
         style="fill:#ffffff;fill-opacity:1;fill-rule:evenodd;stroke:#000000;stroke-width:6.7198205;stroke-linecap:butt;stroke-linejoin:miter;stroke-miterlimit:4;stroke-dasharray:none;stroke-opacity:1"
         id="path6610" />
      <path
         sodipodi:nodetypes="csscssccsscssc"
         d="M 826.21647,278.65915 C 814.6353,282.3936 795.80748,260.56048 777.19768,254.62367 C 752.40976,246.71595 726.06618,258.87791 702.08526,262.56092 C 677.86507,266.28067 660.71574,253.75401 642.00806,251.44942 C 643.49522,290.61115 662.65493,296.4127 686.90373,310.93618 C 713.98835,327.15813 726.30684,325.18467 753.93803,327.58267 C 788.33386,330.56774 793.4878,341.23282 819.38941,359.0658 M 894.00806,278.65915 C 905.58923,282.3936 924.41705,260.56048 943.02685,254.62367 C 967.81477,246.71595 994.1584,258.87791 1018.1393,262.56092 C 1042.3595,266.28067 1059.5088,253.75401 1078.2165,251.44942 C 1076.7293,290.61115 1057.5696,296.4127 1033.3208,310.93618 C 1006.2362,327.15813 993.9177,325.18467 966.2865,327.58267 C 931.89067,330.56774 926.45613,341.23282 900.55452,359.0658"
         style="fill:#ffffff;fill-opacity:1;fill-rule:evenodd;stroke:#000000;stroke-width:6.7198205;stroke-linecap:butt;stroke-linejoin:miter;stroke-miterlimit:4;stroke-dasharray:none;stroke-opacity:1"
         id="path6607" />
    </g>
    <use
       x="0"
       y="0"
       xlink:href="#path2269"
       id="use3337"
       transform="translate(-303.75,325.625)"
       width="600"
       height="660" />
    <use
       x="0"
       y="0"
       xlink:href="#g20358"
       id="use3339"
       transform="translate(310,315)"
       width="600"
       height="660" />
  </g>
  <g
     inkscape:groupmode="layer"
     id="layer2"
     inkscape:label="Reflet final"
     sodipodi:insensitive="true">
    <path
       sodipodi:nodetypes="cccccc"
       d="M 300.00001,658.5 C 300.00001,658.5 598.50001,546.17969 598.50001,260.72817 C 598.50001,-24.723334 598.50001,2.1764865 598.50001,2.1764865 L 1.5,2.1764865 L 1.5,260.72817 C 1.5,546.17969 300.00001,658.5 300.00001,658.5 z "
       style="opacity:1;fill:url(#radialGradient3163);fill-opacity:1;fill-rule:evenodd;stroke:none;stroke-width:1px;stroke-linecap:butt;stroke-linejoin:miter;stroke-opacity:1"
       id="path2875"
       inkscape:export-xdpi="144"
       inkscape:export-ydpi="144" />
  </g>
  <g
     inkscape:groupmode="layer"
     id="layer1"
     inkscape:label="Contour final"
     sodipodi:insensitive="true">
    <path
       sodipodi:nodetypes="cccccc"
       d="M 299.99999,658.50028 C 299.99999,658.50028 1.5,546.17992 1.5,260.72828 C 1.5,-24.723336 1.5,2.1764957 1.5,2.1764957 L 598.49999,2.1764957 L 598.49999,260.72828 C 598.49999,546.17992 299.99999,658.50028 299.99999,658.50028 z "
       style="opacity:1;fill:none;fill-opacity:1;fill-rule:evenodd;stroke:#000000;stroke-width:3.00000048;stroke-linecap:butt;stroke-linejoin:miter;stroke-miterlimit:4;stroke-dasharray:none;stroke-opacity:1"
       id="path1411"
       inkscape:export-xdpi="144"
       inkscape:export-ydpi="144" />
  </g>
</svg>
