<?xml version="1.0" encoding="UTF-8" standalone="no"?>
<svg
   xmlns:dc="http://purl.org/dc/elements/1.1/"
   xmlns:cc="http://creativecommons.org/ns#"
   xmlns:rdf="http://www.w3.org/1999/02/22-rdf-syntax-ns#"
   xmlns:svg="http://www.w3.org/2000/svg"
   xmlns="http://www.w3.org/2000/svg"
   xmlns:xlink="http://www.w3.org/1999/xlink"
   xmlns:sodipodi="http://sodipodi.sourceforge.net/DTD/sodipodi-0.dtd"
   xmlns:inkscape="http://www.inkscape.org/namespaces/inkscape"
   width="600"
   height="660"
   viewBox="0 0 600 660"
   id="svg2"
   sodipodi:version="0.32"
   inkscape:version="0.46"
   sodipodi:docname="Blason_de_la_ville_de_Monts-A_(37).svg"
   inkscape:output_extension="org.inkscape.output.svg.inkscape"
   version="1.0">
  <metadata
     id="metadata28">
    <rdf:RDF>
      <cc:Work
         rdf:about="">
        <dc:format>image/svg+xml</dc:format>
        <dc:type
           rdf:resource="http://purl.org/dc/dcmitype/StillImage" />
        <dc:title />
      </cc:Work>
    </rdf:RDF>
  </metadata>
  <sodipodi:namedview
     inkscape:window-height="977"
     inkscape:window-width="1280"
     inkscape:pageshadow="2"
     inkscape:pageopacity="0.0"
     guidetolerance="10.0"
     gridtolerance="10.0"
     objecttolerance="10.0"
     borderopacity="1.0"
     bordercolor="#666666"
     pagecolor="#ffffff"
     id="base"
     showgrid="false"
     inkscape:zoom="1.1863636"
     inkscape:cx="300"
     inkscape:cy="330"
     inkscape:window-x="-4"
     inkscape:window-y="-4"
     inkscape:current-layer="layer2"
     inkscape:object-nodes="true"
     inkscape:window-maximized="1"
     inkscape:object-paths="false" />
  <defs
     id="defs4">
    <radialGradient
       id="Gradient1"
       gradientUnits="userSpaceOnUse"
       cx="-80"
       cy="-80"
       r="405">
      <stop
         style="stop-color:#fff;stop-opacity:0.31"
         offset="0"
         id="stop7" />
      <stop
         style="stop-color:#fff;stop-opacity:0.25"
         offset="0.19"
         id="stop9" />
      <stop
         style="stop-color:#6b6b6b;stop-opacity:0.125"
         offset="0.6"
         id="stop11" />
      <stop
         style="stop-color:#000;stop-opacity:0.125"
         offset="1"
         id="stop13" />
    </radialGradient>
    <clipPath
       id="shield_cut">
      <path
         id="shield"
         d="M -298.5,-298.5 L 298.5,-298.5 L 298.5,-40 C 298.5,246.31 0,358.5 0,358.5 C 0,358.5 -298.5,246.31 -298.5,-40 L -298.5,-298.5 z" />
    </clipPath>
  </defs>
  <g
     id="layer4"
     inkscape:label="Fond écu"
     inkscape:groupmode="layer"
     transform="translate(300,300)">
    <use
       xlink:href="#shield"
       id="use18"
       style="fill:#2b5df2"
       x="0"
       y="0"
       width="600"
       height="660" />
    <rect
       style="fill:#ffffff;fill-opacity:1;fill-rule:nonzero;stroke:none;stroke-width:3;stroke-opacity:1"
       id="rect2842"
       width="597"
       height="192"
       x="-298.5"
       y="-298.5" />
    <path
       style="fill:#000000;fill-opacity:1;fill-rule:nonzero;stroke:#555555;stroke-width:3;stroke-linecap:butt;stroke-linejoin:round;stroke-miterlimit:4;stroke-dashoffset:0;stroke-opacity:1"
       d="M -298.5,-298.5 L -298.5,-106.5 L 298.5,-106.5 L 298.5,-298.5 L -298.5,-298.5 z M -237.59375,-262.09375 L -217.78125,-242.3125 L -198,-262.09375 L -178.1875,-242.3125 L -158.40625,-262.09375 L -138.59375,-242.3125 L -118.78125,-262.09375 L -99,-242.3125 L -79.1875,-262.09375 L -59.40625,-242.3125 L -39.59375,-262.09375 L -19.8125,-242.3125 L 0,-262.09375 L 19.8125,-242.3125 L 39.59375,-262.09375 L 59.40625,-242.3125 L 79.1875,-262.09375 L 99,-242.3125 L 118.78125,-262.09375 L 138.59375,-242.3125 L 158.40625,-262.09375 L 178.1875,-242.3125 L 198,-262.09375 L 217.78125,-242.3125 L 237.59375,-262.09375 L 257.59375,-242.09375 L 237.78125,-222.3125 L 257.59375,-202.5 L 237.78125,-182.6875 L 257.59375,-162.90625 L 237.59375,-142.90625 L 217.78125,-162.6875 L 198,-142.90625 L 178.1875,-162.6875 L 158.40625,-142.90625 L 138.59375,-162.6875 L 118.78125,-142.90625 L 99,-162.6875 L 79.1875,-142.90625 L 59.40625,-162.6875 L 39.59375,-142.90625 L 19.8125,-162.6875 L 0,-142.90625 L -19.8125,-162.6875 L -39.59375,-142.90625 L -59.40625,-162.6875 L -79.1875,-142.90625 L -99,-162.6875 L -118.78125,-142.90625 L -138.59375,-162.6875 L -158.40625,-142.90625 L -178.1875,-162.6875 L -198,-142.90625 L -217.78125,-162.6875 L -237.59375,-142.90625 L -257.59375,-162.90625 L -237.78125,-182.6875 L -257.59375,-202.5 L -237.78125,-222.3125 L -257.59375,-242.09375 L -237.59375,-262.09375 z"
       id="rect14474" />
  </g>
  <g
     id="layer3"
     inkscape:label="Meubles"
     inkscape:groupmode="layer"
     transform="translate(300,300)">
    <g
       id="g14371"
       transform="matrix(1.2,0,0,1.2,10.7028,90.52892)">
      <path
         d="M 1.534628,122.82615 C 1.84804,110.43495 5.219892,98.91825 11.49834,88.00443 C 27.935508,56.56727 78.140828,57.31809 67.073684,95.76669 C 62.995588,109.93457 49.141792,118.26147 32.683548,119.68969 C 33.87146,115.95661 40.405614,102.75921 35.130916,100.17739 C 26.696534,100.46705 16.22317,113.71841 13.7045,120.03753 C 13.340906,120.94475 13.442612,121.99313 13.036624,122.88553"
         style="fill:#fcef3c;fill-opacity:1;fill-rule:evenodd;stroke:#000000;stroke-width:2.5;stroke-linecap:butt;stroke-linejoin:miter;stroke-miterlimit:4;stroke-dasharray:none;stroke-opacity:1;display:inline"
         id="path1876"
         sodipodi:nodetypes="ccscscc" />
      <path
         d="M -19.373798,123.64535 C -19.68721,111.25415 -23.05904,99.73747 -29.33751,88.82363 C -45.774678,57.38647 -95.979976,58.13729 -84.912854,96.58589 C -80.834736,110.75377 -66.980962,119.08067 -50.522696,120.50891 C -51.710608,116.77583 -58.244762,103.57841 -52.970086,100.99659 C -44.535682,101.28627 -34.062318,114.53761 -31.54367,120.85673 C -31.180076,121.76395 -31.281782,122.81233 -30.875772,123.70475"
         style="fill:#fcef3c;fill-opacity:1;fill-rule:evenodd;stroke:#000000;stroke-width:2.5;stroke-linecap:butt;stroke-linejoin:miter;stroke-miterlimit:4;stroke-dasharray:none;stroke-opacity:1"
         id="path1902"
         sodipodi:nodetypes="ccscscc" />
      <path
         d="M -9.891138,3.59495 C -27.208284,20.56483 -38.83535,40.18725 -33.823002,63.20119 C -31.057712,75.89797 -24.353806,87.65713 -19.626138,99.88869 C -16.670108,107.56267 -15.914254,115.57905 -16.264274,123.64495 L -1.572388,123.64495 C -2.275618,115.51971 -0.734914,107.64529 1.789498,99.88869 C 6.2938,87.58103 13.147152,75.90759 15.986362,63.20119 C 21.294522,39.44535 8.834844,21.52929 -7.869888,3.66995 L -8.890776,2.48629 L -9.891138,3.59495 z"
         style="fill:#fcef3c;fill-opacity:1;fill-rule:nonzero;stroke:#000000;stroke-width:2.5;stroke-linecap:butt;stroke-linejoin:miter;stroke-miterlimit:4;stroke-dasharray:none;stroke-opacity:1"
         id="path3734"
         sodipodi:nodetypes="csccccsccc" />
      <path
         d="M -23.593024,133.05119 C -26.664576,140.87719 -39.188406,155.20961 -45.840502,159.29495 C -47.565786,160.35451 -37.593516,158.68463 -33.128638,157.79495 C -27.272458,156.62801 -19.66081,150.95543 -19.839274,152.95745 C -19.855906,162.12509 -17.020832,177.42229 -9.629888,184.45119 L -8.929826,185.12871 L -8.206752,184.45119 C -0.81968,176.61701 1.96552,162.84279 2.002612,152.95745 C 1.824148,150.95543 9.435796,156.62801 15.291976,157.79495 C 19.756854,158.68463 29.729146,160.35451 28.003862,159.29495 C 21.351766,155.20961 8.8348,140.87719 5.763226,133.05119 L -23.593024,133.05119 z"
         style="fill:#fcef3c;fill-opacity:1;fill-rule:evenodd;stroke:#000000;stroke-width:2.5;stroke-linecap:butt;stroke-linejoin:miter;stroke-miterlimit:4;stroke-dasharray:none;stroke-opacity:1"
         id="path6395"
         sodipodi:nodetypes="cssscccssscc" />
      <rect
         width="69.935303"
         height="10.300669"
         x="-43.831402"
         y="123.24682"
         style="fill:#fcef3c;fill-opacity:1;stroke:#000000;stroke-width:2.5;stroke-miterlimit:4;stroke-dasharray:none;stroke-opacity:1"
         id="rect4623" />
    </g>
    <use
       x="0"
       y="0"
       xlink:href="#g14371"
       id="use14384"
       transform="translate(-150,-170)"
       width="600"
       height="660" />
    <use
       x="0"
       y="0"
       xlink:href="#g14371"
       id="use14386"
       transform="translate(150,-170)"
       width="600"
       height="660" />
    <path
       d="M -215.84231,-172.6875 C -218.66294,-174.13013 -220.86625,-176.92498 -223.66543,-182.61091 C -228.97923,-193.40478 -229.16821,-204.43878 -224.2127,-214.56746 C -221.09044,-220.94912 -211.93115,-229.81066 -210.22294,-228.10244 C -209.86293,-227.74245 -210.15665,-227.06953 -210.87563,-226.60708 C -215.68722,-223.51226 -218.79511,-207.12454 -216.31093,-197.94707 C -214.33024,-190.62965 -208.37646,-182.08526 -202.24866,-177.76599 C -195.97824,-173.3462 -196.63596,-172.25634 -206.16733,-171.2726 C -210.12926,-170.86369 -213.13613,-171.30343 -215.84231,-172.6875 z M -182.10615,-176.01027 C -182.80335,-178.82339 -183.06064,-186.37518 -182.68943,-193.13077 C -181.94264,-206.72147 -183.59064,-218.17417 -186.95074,-222.74446 C -190.43365,-227.4818 -196.75825,-231.19662 -201.51825,-231.30084 L -205.87221,-231.39617 L -199.8286,-234.3071 C -192.87869,-237.65454 -188.4329,-237.98133 -183.63026,-235.49778 C -180.32322,-233.78764 -174.6163,-227.84115 -171.85975,-223.23318 C -170.5479,-221.04022 -170.29694,-221.10284 -166.55282,-224.55754 L -162.62285,-228.18371 L -165.92081,-222.45688 C -168.62642,-217.75868 -169.43517,-214.34113 -170.42357,-203.42979 C -171.26912,-194.09536 -171.23476,-188.29423 -170.30833,-183.97444 C -169.07672,-178.2317 -169.1711,-177.6676 -171.71687,-175.55393 C -173.21758,-174.30793 -175.88842,-172.76841 -177.65206,-172.13274 C -180.70308,-171.03306 -180.91923,-171.22124 -182.10615,-176.01027 z M -137.10169,-180.85295 C -132.13008,-191.20165 -130.58709,-203.27347 -133.13768,-211.86596 C -136.94204,-224.68215 -141.65307,-229.5675 -151.58197,-230.99269 L -157.27504,-231.80987 L -151.5225,-234.68185 C -144.06973,-238.40265 -135.21912,-237.70546 -130.31983,-233.01166 C -121.00134,-224.08397 -118.45721,-206.68758 -124.23208,-191.38446 C -127.21702,-183.47452 -133.86923,-175.33294 -138.29506,-174.17291 C -140.3735,-173.62815 -140.25567,-174.28772 -137.10169,-180.85295 z"
       style="fill:#000000;stroke:#555555;stroke-width:2.5;stroke-miterlimit:4;stroke-dasharray:none;stroke-opacity:1"
       id="path2506" />
    <path
       d="M 207.50784,-172.68621 C 203.67667,-174.61797 181.15582,-197.57722 182.5919,-198.08717 C 183.09543,-198.26599 185.49451,-199.56047 187.92321,-200.96382 L 192.33901,-203.51536 L 205.15097,-190.74277 C 214.14989,-181.77151 219.12823,-177.66477 221.87841,-176.94396 L 225.7939,-175.91772 L 219.17948,-173.43054 C 211.32957,-170.47876 211.82333,-170.51025 207.50784,-172.68621 z M 164.11121,-193.56809 C 164.55279,-204.06775 164.91554,-212.91553 164.91734,-213.22982 C 164.97504,-223.34613 164.39312,-228.18077 162.94326,-229.63062 C 161.42965,-231.14424 161.90337,-231.55873 167.13152,-233.29525 C 172.77374,-235.16929 173.09185,-235.16376 174.55256,-233.16611 C 175.85601,-231.38354 176.4229,-229.39588 176.32703,-226.94436 C 175.90285,-216.09724 173.55104,-181.28399 173.15328,-179.96413 C 172.84888,-178.95403 170.50923,-177.30639 167.95408,-176.30269 L 163.30835,-174.4778 L 164.11121,-193.56809 z M 197.29515,-209.52409 C 199.65005,-214.06305 200.07895,-216.06864 199.43211,-219.51664 C 198.30306,-225.53499 193.56528,-230.48109 188.01347,-231.43734 L 183.5074,-232.21348 L 188.3191,-234.72187 C 193.97572,-237.67073 197.79203,-237.88067 202.4023,-235.4966 C 212.70177,-230.17055 210.85648,-213.49792 199.21407,-206.69019 L 194.34892,-203.84536 L 197.29515,-209.52409 z"
       style="fill:#000000;stroke:#555555;stroke-width:2.5;stroke-miterlimit:4;stroke-dasharray:none;stroke-opacity:1"
       id="path2540" />
    <g
       id="g14411"
       transform="matrix(0.8,0,0,0.684,565.2972,-66.04991)">
      <path
         sodipodi:nodetypes="cccssccsssscsccssssc"
         id="path14388"
         transform="translate(-300,-300)"
         d="M -516.625,59.28125 C -525.01512,59.319606 -533.18363,60.080492 -541,61.71875 L -397.46875,112.71875 C -385.32796,107.62309 -381.46688,112.04218 -378.96875,117.21875 C -374.42906,126.62575 -364.04653,129.25132 -356.875,129.4375 C -352.09042,129.56171 -347.93069,129.04467 -343.15625,136 L -343,135.65625 C -339.75952,146.30166 -327.07038,155.3119 -311.03125,157.28125 C -291.3484,159.698 -274.049,150.60246 -272.375,136.96875 C -270.70098,123.33504 -285.28589,110.29175 -304.96875,107.875 C -319.73087,106.06244 -329.84236,107.80875 -339.6875,118.9375 C -345.5391,125.55203 -353.08898,117.86479 -357.5,110.9375 C -362.62582,101.88086 -368.85308,97.673001 -376.875,94.8125 C -419.19539,79.721659 -471.31835,59.074128 -516.625,59.28125 z M -308.96875,115.15625 C -307.30604,115.12481 -305.60709,115.22483 -303.875,115.4375 C -290.01828,117.13889 -279.75899,126.30812 -280.9375,135.90625 C -282.116,145.50437 -294.29952,151.92014 -308.15625,150.21875 C -322.01295,148.51736 -332.3035,139.34812 -331.125,129.75 C -330.09381,121.35162 -320.60775,115.37631 -308.96875,115.15625 z"
         style="opacity:1;fill:#000000;fill-opacity:1;fill-rule:nonzero;stroke:#555555;stroke-width:1.5;stroke-linecap:butt;stroke-linejoin:round;stroke-miterlimit:4;stroke-dasharray:none;stroke-dashoffset:0;stroke-opacity:1" />
      <path
         style="opacity:0.98999999;fill:#000000;fill-opacity:1;fill-rule:nonzero;stroke:#555555;stroke-width:1.5;stroke-linecap:butt;stroke-linejoin:round;stroke-miterlimit:4;stroke-dasharray:none;stroke-dashoffset:0;stroke-opacity:1"
         d="M -816.625,-158.33131 C -825.01512,-158.36967 -833.18363,-159.13055 -841,-160.76881 L -697.46875,-211.76881 C -685.32796,-206.67315 -681.46688,-211.09224 -678.96875,-216.26881 C -674.42906,-225.67581 -664.04653,-228.30138 -656.875,-228.48756 C -652.09042,-228.61177 -647.93069,-228.09473 -643.15625,-235.05006 L -643,-234.70631 C -639.75952,-245.35172 -627.07038,-254.36196 -611.03125,-256.33131 C -591.3484,-258.74806 -574.049,-249.65252 -572.375,-236.01881 C -570.70098,-222.3851 -585.28589,-209.34181 -604.96875,-206.92506 C -619.73087,-205.1125 -629.84236,-206.85881 -639.6875,-217.98756 C -645.5391,-224.60209 -653.08898,-216.91485 -657.5,-209.98756 C -662.62582,-200.93092 -668.85308,-196.72306 -676.875,-193.86256 C -719.19539,-178.77172 -771.31835,-158.12419 -816.625,-158.33131 z M -608.96875,-214.20631 C -607.30604,-214.17487 -605.60709,-214.27489 -603.875,-214.48756 C -590.01828,-216.18895 -579.75899,-225.35818 -580.9375,-234.95631 C -582.116,-244.55443 -594.29952,-250.9702 -608.15625,-249.26881 C -622.01295,-247.56742 -632.3035,-238.39818 -631.125,-228.80006 C -630.09381,-220.40168 -620.60775,-214.42637 -608.96875,-214.20631 z"
         id="path14400"
         sodipodi:nodetypes="cccssccsssscsccssssc" />
      <path
         id="path14402"
         d="M -695.256,-208.44143 C -699.67199,-208.44143 -703.25601,-204.24962 -703.256,-199.08471 C -703.256,-193.91979 -699.672,-189.72798 -695.256,-189.72798 C -690.84,-189.72798 -687.25601,-193.91979 -687.256,-199.08471 C -687.256,-204.24962 -690.84001,-208.44143 -695.256,-208.44143 z M -695.256,-203.76306 C -693.04799,-203.76306 -691.25599,-201.66716 -691.25599,-199.08471 C -691.25598,-196.50225 -693.048,-194.40635 -695.256,-194.40635 C -697.46398,-194.40635 -699.256,-196.50225 -699.256,-199.08471 C -699.25598,-201.66716 -697.46399,-203.76306 -695.256,-203.76306 z"
         style="opacity:1;fill:none;fill-opacity:1;fill-rule:nonzero;stroke:#555555;stroke-width:1.62221384;stroke-linecap:butt;stroke-linejoin:round;stroke-miterlimit:4;stroke-dasharray:none;stroke-dashoffset:0;stroke-opacity:1" />
      <path
         sodipodi:nodetypes="cc"
         transform="translate(-300,-300)"
         id="path14407"
         d="M -503.86788,141.21008 L -400.60166,111.60555"
         style="opacity:1;fill:none;fill-opacity:1;fill-rule:nonzero;stroke:#555555;stroke-width:1.5;stroke-linecap:butt;stroke-linejoin:round;stroke-miterlimit:4;stroke-dasharray:none;stroke-dashoffset:0;stroke-opacity:1" />
      <path
         sodipodi:nodetypes="cc"
         transform="translate(-300,-300)"
         id="path14409"
         d="M -401.11758,111.61771 L -396.37847,113.16157"
         style="opacity:1;fill:none;fill-opacity:1;fill-rule:nonzero;stroke:#555555;stroke-width:1.5;stroke-linecap:butt;stroke-linejoin:round;stroke-miterlimit:4;stroke-dasharray:none;stroke-dashoffset:0;stroke-opacity:1" />
    </g>
  </g>
  <g
     id="layer2"
     inkscape:label="Reflet final"
     inkscape:groupmode="layer"
     transform="translate(300,300)"
     sodipodi:insensitive="true">
    <use
       xlink:href="#shield"
       id="use22"
       style="fill:url(#Gradient1)"
       x="0"
       y="0"
       width="600"
       height="660" />
  </g>
  <g
     id="layer1"
     inkscape:label="Contour final"
     inkscape:groupmode="layer"
     transform="translate(300,300)"
     sodipodi:insensitive="true">
    <use
       xlink:href="#shield"
       style="fill:none;stroke:#313131;stroke-width:3;stroke-opacity:1"
       id="use25"
       x="0"
       y="0"
       width="600"
       height="660" />
  </g>
</svg>
