<?xml version="1.0" encoding="UTF-8" standalone="no"?>
<svg
   xmlns:dc="http://purl.org/dc/elements/1.1/"
   xmlns:cc="http://creativecommons.org/ns#"
   xmlns:rdf="http://www.w3.org/1999/02/22-rdf-syntax-ns#"
   xmlns:svg="http://www.w3.org/2000/svg"
   xmlns="http://www.w3.org/2000/svg"
   xmlns:xlink="http://www.w3.org/1999/xlink"
   xmlns:sodipodi="http://sodipodi.sourceforge.net/DTD/sodipodi-0.dtd"
   xmlns:inkscape="http://www.inkscape.org/namespaces/inkscape"
   height="660"
   width="600"
   version="1.0"
   id="svg2"
   sodipodi:version="0.32"
   inkscape:version="0.46"
   sodipodi:docname="Blason_ville_fr_Clasville_(Seine-Maritime).svg"
   sodipodi:docbase="D:\Mes documents\Renaud-Notre Lapin"
   inkscape:export-filename="/Users/olivier/Desktop/Blason Rouge/Blason_Vide_3D.png"
   inkscape:export-xdpi="144"
   inkscape:export-ydpi="144"
   inkscape:output_extension="org.inkscape.output.svg.inkscape">
  <metadata
     id="metadata49">
    <rdf:RDF>
      <cc:Work
         rdf:about="">
        <dc:format>image/svg+xml</dc:format>
        <dc:type
           rdf:resource="http://purl.org/dc/dcmitype/StillImage" />
        <dc:title>Gabarit d'un blason en pointe pour le projet Blasons de Wikipédia</dc:title>
        <dc:date>03-AUG-2006</dc:date>
        <dc:creator>
          <cc:Agent>
            <dc:title>Jérôme BLUM (wagner51)</dc:title>
          </cc:Agent>
        </dc:creator>
        <cc:license
           rdf:resource="http://web.resource.org/cc/PublicDomain" />
        <dc:language>fr</dc:language>
        <dc:subject>
          <rdf:Bag>
            <rdf:li>gabarit modèle blason projet wikipédia</rdf:li>
          </rdf:Bag>
        </dc:subject>
      </cc:Work>
      <cc:License
         rdf:about="http://web.resource.org/cc/PublicDomain">
        <cc:permits
           rdf:resource="http://web.resource.org/cc/Reproduction" />
        <cc:permits
           rdf:resource="http://web.resource.org/cc/Distribution" />
        <cc:permits
           rdf:resource="http://web.resource.org/cc/DerivativeWorks" />
      </cc:License>
    </rdf:RDF>
  </metadata>
  <sodipodi:namedview
     inkscape:window-height="975"
     inkscape:window-width="1280"
     inkscape:pageshadow="2"
     inkscape:pageopacity="0.0"
     guidetolerance="10.0"
     gridtolerance="10.0"
     objecttolerance="10.0"
     borderopacity="1.0"
     bordercolor="#666666"
     pagecolor="#ffffff"
     id="base"
     showgrid="false"
     height="660px"
     inkscape:zoom="1.1590904"
     inkscape:cx="300.00013"
     inkscape:cy="330.00014"
     inkscape:window-x="-4"
     inkscape:window-y="-4"
     inkscape:current-layer="layer4"
     inkscape:object-nodes="true" />
  <desc
     id="desc4">Flag of Canton of Valais (Wallis)</desc>
  <defs
     id="defs6">
    <linearGradient
       id="linearGradient2893">
      <stop
         style="stop-color:white;stop-opacity:0.3137255;"
         offset="0"
         id="stop2895" />
      <stop
         id="stop2897"
         offset="0.19"
         style="stop-color:white;stop-opacity:0.25098041;" />
      <stop
         style="stop-color:#6b6b6b;stop-opacity:0.1254902;"
         offset="0.60000002"
         id="stop2901" />
      <stop
         style="stop-color:black;stop-opacity:0.1254902;"
         offset="1"
         id="stop2899" />
    </linearGradient>
    <radialGradient
       inkscape:collect="always"
       xlink:href="#linearGradient2893"
       id="radialGradient3163"
       gradientUnits="userSpaceOnUse"
       gradientTransform="matrix(1.353218,0,0,1.348928,-77.62935,-85.74693)"
       cx="221.44487"
       cy="226.33101"
       fx="221.44487"
       fy="226.33101"
       r="300" />
    <g
       id="s-4">
      <g
         id="c-6">
        <path
           transform="matrix(0.951057,0.309017,-0.309017,0.951057,0,-1)"
           d="M 0,0 L 0,1 L 0.5,1 L 0,0 z"
           id="t-0" />
        <use
           height="540"
           width="810"
           y="0"
           x="0"
           id="use2144-7"
           transform="scale(-1,1)"
           xlink:href="#t-0" />
      </g>
      <g
         id="a-1">
        <use
           height="540"
           width="810"
           y="0"
           x="0"
           id="use2147-7"
           transform="matrix(0.309017,0.951057,-0.951057,0.309017,0,0)"
           xlink:href="#c-6" />
        <use
           height="540"
           width="810"
           y="0"
           x="0"
           id="use2149-7"
           transform="matrix(-0.809017,0.587785,-0.587785,-0.809017,0,0)"
           xlink:href="#c-6" />
      </g>
      <use
         height="540"
         width="810"
         y="0"
         x="0"
         id="use2151-7"
         transform="scale(-1,1)"
         xlink:href="#a-1" />
    </g>
    <g
       id="f">
      <rect
         id="rect1964"
         style="fill:#28166f"
         y="-30"
         x="-50"
         height="60"
         width="100" />
      <g
         id="g1966"
         style="fill:#ffffff"
         transform="translate(0,-20)">
        <path
           id="path1968"
           d="M -1.2116,27.8178 C -1.2116,22.1752 -2.0914,20.4715 -4.5417,13.9804 C -5.709,10.8879 -5.0241,7.1025 -2.8585,3.6009 C -2.0824,2.346 -1.1136,1.2135 0,0 C 1.1136,1.2135 2.0824,2.346 2.8585,3.6009 C 5.0241,7.1025 5.709,10.8879 4.5417,13.9804 C 2.0914,20.4715 1.2116,22.1752 1.2116,27.8178 L -1.2116,27.8178 z" />
        <path
           id="rwi"
           d="M 2.9221,27.6725 C 2.9221,21.7209 5.2387,17.8293 8.5007,16.6604 C 9.9492,16.1414 11.8076,16.3869 13.5193,18.107 C 15.6379,20.236 16.2551,26.1004 10.0355,27.2283 C 10.6938,26.2724 10.6546,24.1467 9.3215,23.4409 C 8.3311,22.9165 7.209,23.1877 6.6462,23.5643 C 5.8225,24.1156 4.9171,25.6702 4.9672,27.6725 L 2.9221,27.6725 z" />
        <path
           id="path1971"
           d="M 1.7773,30.1835 C 1.7899,32.1913 2.7952,33.5181 4.5165,34.257 C 4.2948,34.9549 3.2566,36.3776 1.8314,36.2812 C 1.5499,37.787 1.2822,38.6324 0,40 C -1.2822,38.6324 -1.5499,37.787 -1.8314,36.2812 C -3.2566,36.3776 -4.2948,34.9549 -4.5165,34.257 C -2.7952,33.5181 -1.7899,32.1913 -1.7773,30.1835 L 1.7773,30.1835 z" />
        <use
           xlink:href="#rwi"
           height="400"
           width="800"
           y="0"
           x="0"
           id="use1973"
           transform="scale(-1,1)" />
        <rect
           id="rect1975"
           y="27.33077"
           x="-7.9229999"
           height="3.2179999"
           width="15.846" />
      </g>
    </g>
    <g
       id="s">
      <g
         id="c">
        <path
           transform="matrix(0.951057,0.309017,-0.309017,0.951057,0,-1)"
           d="M 0,0 L 0,1 L 0.5,1 L 0,0 z"
           id="t" />
        <use
           height="540"
           width="810"
           y="0"
           x="0"
           id="use2144"
           transform="scale(-1,1)"
           xlink:href="#t" />
      </g>
      <g
         id="a">
        <use
           height="540"
           width="810"
           y="0"
           x="0"
           id="use2147"
           transform="matrix(0.309017,0.951057,-0.951057,0.309017,0,0)"
           xlink:href="#c" />
        <use
           height="540"
           width="810"
           y="0"
           x="0"
           id="use2149"
           transform="matrix(-0.809017,0.587785,-0.587785,-0.809017,0,0)"
           xlink:href="#c" />
      </g>
      <use
         height="540"
         width="810"
         y="0"
         x="0"
         id="use2151"
         transform="scale(-1,1)"
         xlink:href="#a" />
    </g>
    <radialGradient
       inkscape:collect="always"
       xlink:href="#linearGradient2893"
       id="radialGradient6554"
       gradientUnits="userSpaceOnUse"
       gradientTransform="matrix(1.353218,0,0,1.348928,-77.62935,-85.74693)"
       cx="221.44487"
       cy="226.33101"
       fx="221.44487"
       fy="226.33101"
       r="300" />
    <radialGradient
       inkscape:collect="always"
       xlink:href="#linearGradient2893"
       id="radialGradient6633"
       gradientUnits="userSpaceOnUse"
       gradientTransform="matrix(1.353218,0,0,1.348928,-77.62935,-85.74693)"
       cx="221.44487"
       cy="226.33101"
       fx="221.44487"
       fy="226.33101"
       r="300" />
  </defs>
  <g
     inkscape:groupmode="layer"
     id="layer3"
     inkscape:label="Fond écu"
     style="display:inline">
    <path
       id="path2855"
       style="fill:#5ab532;fill-opacity:1;fill-rule:evenodd;stroke:none;stroke-width:1px;stroke-linecap:butt;stroke-linejoin:miter;stroke-opacity:1"
       d="M 300,658.5 C 300,658.5 598.50001,546.17969 598.50001,260.72817 C 598.50001,-24.723354 598.50001,2.1764765 598.50001,2.1764765 L 1.5,2.1764765 L 1.5,260.72817 C 1.5,546.17969 300,658.5 300,658.5 z"
       sodipodi:nodetypes="cccccc" />
    <g
       id="g3714"
       transform="translate(212.95033,-619.1589)" />
    <g
       id="layer9"
       inkscape:label="Fond d'écu"
       transform="translate(212.95033,-619.1589)">
      <g
         transform="matrix(2,0,0,2,-732.89186,-1853.1884)"
         inkscape:label="Meubles"
         id="g2807" />
      <g
         transform="matrix(2,0,0,2,1696.9763,-413.55025)"
         inkscape:label="Meubles"
         id="g4626" />
      <g
         id="g5271"
         inkscape:label="Meubles"
         transform="matrix(2,0,0,2,-732.89213,-453.18787)" />
      <g
         id="g5273"
         inkscape:label="Reflet final"
         transform="matrix(2,0,0,2,-732.89213,-453.18787)" />
      <g
         id="g5275"
         inkscape:label="Contour final"
         transform="matrix(2,0,0,2,-732.89213,-453.18787)" />
    </g>
    <g
       id="layer6"
       inkscape:label="Reflet final"
       transform="translate(212.95033,-619.1589)" />
    <g
       id="layer5"
       inkscape:label="Contour final"
       transform="translate(212.95033,-619.1589)" />
    <rect
       y="2.1761963"
       x="-101.5"
       height="0"
       width="0"
       id="rect18271"
       style="fill:#000000;fill-opacity:1;stroke:#313131;stroke-width:3;stroke-miterlimit:4;stroke-dasharray:none;stroke-opacity:1" />
    <g
       id="g2845"
       inkscape:label="Contour final"
       style="display:inline"
       transform="translate(-700,-2.8023842e-4)" />
    <path
       style="fill:#fcef3c;fill-opacity:1;fill-rule:evenodd;stroke:#000000;stroke-width:3;stroke-linecap:butt;stroke-linejoin:miter;stroke-miterlimit:4;stroke-dasharray:none;stroke-opacity:1"
       d="M 300,211.25 L 51.6875,449.59375 C 75.633054,491.11815 105.79098,525.81922 136.75,554.25 L 300,397.5625 L 463.25,554.25 C 494.20902,525.81922 524.36694,491.11815 548.3125,449.59375 L 300,211.25 z"
       id="path4037" />
  </g>
  <g
     inkscape:groupmode="layer"
     id="layer4"
     inkscape:label="Meubles">
    <g
       style="display:inline"
       id="g6740"
       transform="translate(0,4)">
      <path
         style="fill:#ffffff;fill-opacity:1;fill-rule:evenodd;stroke:#000000;stroke-width:3;stroke-miterlimit:4;stroke-dasharray:none;stroke-opacity:1"
         d="M 459.17675,33.399295 C 448.65947,33.399295 440.1236,41.765961 440.12361,52.074776 C 440.12361,62.383591 448.65947,70.750257 459.17675,70.750257 C 469.69403,70.750257 478.2299,62.383591 478.22988,52.074776 C 478.22988,41.765961 469.69403,33.399295 459.17675,33.399295 z M 459.17675,41.186107 C 465.31183,41.186107 470.29874,46.061296 470.29874,52.074776 C 470.29875,58.088256 465.31183,62.976315 459.17675,62.976315 C 453.04167,62.976315 448.06789,58.088256 448.06789,52.074776 C 448.06789,46.061296 453.04167,41.186107 459.17675,41.186107 z"
         id="path6511" />
      <path
         id="path6513"
         d="M 458.94934,53.641385 C 454.19326,53.832411 452.80476,57.848335 452.79622,62.54451 C 452.71186,108.92966 454.52736,162.25783 445.95559,205.23514 C 444.2663,213.70495 393.1761,197.40617 377.23997,183.40701 C 376.20168,182.49493 383.55431,183.68823 396.55872,184.47264 C 387.46381,178.2054 365.27901,164.07515 356.82122,157.31639 C 356.47956,169.8119 357.67135,182.21551 356.30559,200.62889 C 359.91557,195.41163 364.65234,188.61086 365.89622,190.31639 C 398.88403,217.16325 431.53302,213.50584 459.01809,241.77576 C 486.50317,213.50584 519.15216,217.16325 552.13997,190.31639 C 553.38385,188.61086 558.12061,195.41163 561.73059,200.62889 C 560.36483,182.21551 561.55663,169.8119 561.21497,157.31639 C 552.75718,164.07515 530.57238,178.2054 521.47747,184.47264 C 534.48188,183.68823 541.83451,182.49493 540.79622,183.40701 C 524.86009,197.40617 473.76989,213.70495 472.08059,205.23514 C 463.50883,162.25783 465.32433,108.92966 465.23997,62.54451 C 465.23143,57.848335 463.84293,53.832411 459.08684,53.641385 C 459.03912,53.639471 458.99776,53.642529 458.94934,53.641385 z"
         style="fill:#ffffff;fill-opacity:1;fill-rule:evenodd;stroke:#000000;stroke-width:3;stroke-miterlimit:4;stroke-dasharray:none;stroke-opacity:1" />
      <g
         style="fill:#ffffff;fill-opacity:1;stroke:#000000;stroke-width:7.21139956;stroke-miterlimit:4;stroke-dasharray:none;stroke-opacity:1"
         id="g6515"
         transform="matrix(0.4201932,0,0,0.4118645,91.356647,-29.886257)">
        <path
           id="path6517"
           d="M 782.96875,249.65625 L 767.59375,280.4375 C 800.86774,293.57731 837.10262,300.8125 875.03125,300.8125 C 913.20798,300.8125 949.67261,293.49114 983.125,280.1875 L 966.71875,249.78125 C 937.87444,259.28866 907.04712,264.4375 875.03125,264.4375 C 842.87564,264.4375 811.92162,259.24339 782.96875,249.65625 z"
           style="opacity:1;fill:#ffffff;fill-opacity:1;fill-rule:evenodd;stroke:#000000;stroke-width:7.21139956;stroke-miterlimit:4;stroke-dasharray:none;stroke-opacity:1;display:inline" />
        <rect
           rx="5.2769198"
           ry="4.8969808"
           transform="matrix(-0.895595,0.44487,0.44487,0.895595,0,0)"
           y="638.88129"
           x="-736.60876"
           height="55.420628"
           width="7.5573497"
           id="rect6519"
           style="opacity:1;fill:#ffffff;fill-opacity:1;fill-rule:evenodd;stroke:#000000;stroke-width:7.21140051;stroke-miterlimit:4;stroke-dasharray:none;stroke-opacity:1;display:inline" />
        <rect
           rx="5.2769184"
           ry="4.8969798"
           transform="matrix(-0.895595,0.44487,0.44487,0.895595,0,0)"
           y="633.69897"
           x="-714.48407"
           height="55.420612"
           width="7.5573478"
           id="rect6521"
           style="opacity:1;fill:#ffffff;fill-opacity:1;fill-rule:evenodd;stroke:#000000;stroke-width:7.21140051;stroke-miterlimit:4;stroke-dasharray:none;stroke-opacity:1;display:inline" />
        <rect
           rx="5.2769217"
           ry="4.8969827"
           transform="matrix(0.895595,0.44487,-0.44487,0.895595,0,0)"
           y="-141.02827"
           x="830.74225"
           height="55.42065"
           width="7.5573525"
           id="rect6523"
           style="opacity:1;fill:#ffffff;fill-opacity:1;fill-rule:evenodd;stroke:#000000;stroke-width:7.21140051;stroke-miterlimit:4;stroke-dasharray:none;stroke-opacity:1" />
        <rect
           rx="5.2769203"
           ry="4.8969812"
           transform="matrix(0.895595,0.44487,-0.44487,0.895595,0,0)"
           y="-146.21059"
           x="852.86694"
           height="55.420635"
           width="7.5573506"
           id="rect6525"
           style="opacity:1;fill:#ffffff;fill-opacity:1;fill-rule:evenodd;stroke:#000000;stroke-width:7.21140051;stroke-miterlimit:4;stroke-dasharray:none;stroke-opacity:1;display:inline" />
      </g>
    </g>
    <path
       d="M 138.23606,33.569075 C 129.10659,33.569075 120.22617,34.715801 111.75444,36.845464 L 127.89591,55.091031 C 111.50096,57.026532 96.493641,63.493135 84.160655,73.216356 L 82.657727,48.898959 C 67.310819,58.091701 54.431593,70.977719 45.234776,86.32191 L 69.552173,87.824839 C 59.818501,100.1599 53.359375,115.1856 51.426847,131.59015 L 33.151222,115.44869 C 31.021816,123.91992 29.904892,132.77133 29.904892,141.90025 C 29.904892,151.02916 31.021816,159.91063 33.151222,168.38186 L 51.426847,152.21034 C 53.359442,168.61686 59.817941,183.66527 69.552173,196.00572 L 45.234776,197.50862 C 54.431593,212.85283 67.310819,225.73887 82.657727,234.93159 L 84.160655,210.58414 C 96.49365,220.31247 111.50096,226.80259 127.89591,228.73954 L 111.75444,246.9851 C 120.22568,249.11448 129.10715,250.26146 138.23606,250.26146 C 147.36262,250.26146 156.21838,249.11343 164.68762,246.9851 L 148.57622,228.73954 C 164.96656,226.80867 179.98246,220.3338 192.31148,210.61421 L 193.8144,234.90153 C 209.14249,225.71213 222.01792,212.83673 231.2073,197.50862 L 206.91995,196.00572 C 216.64318,183.67271 223.10978,168.63535 225.04528,152.2404 L 243.32091,168.38186 C 245.45031,159.91063 246.56724,151.02915 246.56724,141.90025 C 246.56724,132.76118 245.4549,123.89841 243.32091,115.41862 L 225.04528,131.56009 C 223.10985,115.16713 216.64262,100.15245 206.91995,87.824839 L 231.2073,86.32191 C 222.01792,70.993812 209.14249,58.118396 193.8144,48.929017 L 192.31148,73.186298 C 179.98246,63.471817 164.96656,57.020471 148.57622,55.091031 L 164.68762,36.845464 C 156.21788,34.716865 147.3632,33.569075 138.23606,33.569075 z M 127.23462,74.629111 L 127.23462,117.34237 L 113.64814,117.34237 L 113.64814,130.92885 L 70.964937,130.92885 C 75.643696,102.09413 98.399664,79.315774 127.23462,74.629111 z M 149.23752,74.629111 C 178.08196,79.305134 200.86123,102.0844 205.53725,130.92885 L 162.76387,130.92885 L 162.76387,117.34237 L 149.23752,117.34237 L 149.23752,74.629111 z M 126.39298,130.08722 L 150.07915,130.08722 L 150.07915,153.77339 L 126.39298,153.77339 L 126.39298,130.08722 z M 70.964937,152.90169 L 113.64814,152.90169 L 113.64814,166.45811 L 127.23462,166.45811 L 127.23462,209.20141 C 98.40942,204.51202 75.654336,181.72691 70.964937,152.90169 z M 162.76387,152.90169 L 205.5072,152.90169 C 200.82052,181.73663 178.07223,204.52266 149.23752,209.20141 L 149.23752,166.45811 L 162.76387,166.45811 L 162.76387,152.90169 z"
       style="display:inline;fill:#ffffff;fill-opacity:1;fill-rule:nonzero;stroke:#000000;stroke-width:3;stroke-linecap:square;stroke-linejoin:miter;stroke-miterlimit:1;stroke-dasharray:none;stroke-dashoffset:0;stroke-opacity:1"
       id="path2865" />
    <g
       style="display:inline"
       id="g6794">
      <path
         id="path3951"
         d="M 270.68184,273.91975 C 253.76636,290.17515 253.23065,317.09644 269.48604,334.01193 C 285.74145,350.92741 312.66275,351.46312 329.57822,335.20773 C 346.4937,318.95233 347.02942,292.03103 330.77402,275.11555 C 314.51862,258.20007 287.59733,257.66434 270.68184,273.91975 z M 278.04389,281.58075 C 290.73051,269.3892 310.92147,269.79099 323.11302,282.4776 C 335.30459,295.16422 334.90279,315.35518 322.21617,327.54673 C 309.52959,339.73829 289.33859,339.33649 277.14704,326.64988 C 264.9555,313.96327 265.35728,293.7723 278.04389,281.58075 z"
         style="fill:#5ab532;fill-opacity:1;stroke:#000000;stroke-width:2.5;stroke-linecap:round;stroke-linejoin:round;stroke-miterlimit:4;stroke-dasharray:none;stroke-opacity:1" />
      <path
         style="fill:#5ab532;fill-opacity:1;stroke:#000000;stroke-width:2.5;stroke-miterlimit:4;stroke-dasharray:none;stroke-opacity:1"
         d="M 254.43865,348.40594 C 262.86212,357.16229 262.59229,371.08932 253.83594,379.51281 L 226.16212,406.13461 C 217.40577,414.55809 203.47874,414.28823 195.05527,405.53189 C 186.6318,396.77556 186.90162,382.84852 195.65798,374.42504 L 223.33179,347.80323 C 232.08814,339.37975 246.01517,339.64961 254.43865,348.40594 z M 246.79953,355.75467 C 242.43277,351.21536 235.20245,351.05758 230.66316,355.42431 L 202.98935,382.04612 C 198.45005,386.41284 198.30963,393.66119 202.67638,398.2005 C 207.04313,402.73981 214.27411,402.86221 218.8134,398.49548 L 246.48721,371.87368 C 251.0265,367.50695 251.16628,360.29398 246.79953,355.75467 z"
         id="path3980" />
      <path
         style="fill:#5ab532;fill-opacity:1;stroke:#000000;stroke-width:2.5;stroke-miterlimit:4;stroke-dasharray:none;stroke-opacity:1"
         d="M 283.48173,320.46692 C 285.51148,322.57688 285.44649,325.9311 283.33654,327.96084 L 244.76256,365.06845 C 244.72692,365.10272 244.69035,365.13792 244.65446,365.17244 C 242.5445,367.20219 239.19028,367.13719 237.16053,365.02724 C 235.13079,362.91728 235.19578,359.56306 237.30573,357.53332 L 275.98781,320.32172 C 278.09777,318.29197 281.45199,318.35697 283.48173,320.46692 z"
         id="path3984"
         sodipodi:nodetypes="cccssccc" />
      <path
         id="path3986"
         d="M 184.10105,416.06969 C 192.52452,424.82603 192.25469,438.75306 183.49834,447.17655 L 155.82453,473.79835 C 147.06817,482.22184 133.14114,481.95198 124.71767,473.19564 C 116.2942,464.43929 116.56402,450.51226 125.32038,442.08877 L 152.99419,415.46698 C 161.75054,407.04349 175.67758,407.31334 184.10105,416.06969 z M 176.46192,423.41841 C 172.09517,418.8791 164.86485,418.72132 160.32556,423.08805 L 132.65175,449.70986 C 128.11246,454.07659 127.97202,461.32493 132.33878,465.86424 C 136.70553,470.40355 143.93651,470.52596 148.47581,466.15922 L 176.14961,439.53742 C 180.68891,435.17068 180.82868,427.95772 176.46192,423.41841 z"
         style="fill:#5ab532;fill-opacity:1;stroke:#000000;stroke-width:2.5;stroke-miterlimit:4;stroke-dasharray:none;stroke-opacity:1" />
      <path
         id="path3988"
         d="M 211.99106,389.23991 C 214.02081,391.34986 213.95582,394.70408 211.84586,396.73383 L 173.27189,433.84143 C 173.23626,433.87571 173.19968,433.91089 173.16379,433.94542 C 171.05383,435.97517 167.6996,435.91018 165.66986,433.80022 C 163.64011,431.69026 163.7051,428.33605 165.81506,426.3063 L 204.49714,389.09471 C 206.6071,387.06495 209.96131,387.12995 211.99106,389.23991 z"
         style="fill:#5ab532;fill-opacity:1;stroke:#000000;stroke-width:2.5;stroke-miterlimit:4;stroke-dasharray:none;stroke-opacity:1"
         sodipodi:nodetypes="cccssccc" />
      <path
         sodipodi:nodetypes="cccccsccccsc"
         id="path4013"
         d="M 97.28125,477 C 92.00385,477.1495 86.760788,479.1765 82.65625,483.125 L 77.125,488.46875 L 83.53125,496.96875 L 90,490.75 C 94.5393,486.38328 101.75825,486.55444 106.125,491.09375 C 110.49176,495.63306 110.3518,502.82075 105.8125,507.1875 L 98.0625,514.65625 L 105.21875,522.46875 L 113.15625,514.84375 C 121.9126,506.42027 122.17347,492.47509 113.75,483.71875 C 109.27503,479.06694 103.2623,476.83057 97.28125,477 z"
         style="fill:#5ab532;fill-opacity:1;stroke:#000000;stroke-width:2.5;stroke-miterlimit:4;stroke-dasharray:none;stroke-opacity:1" />
      <path
         sodipodi:nodetypes="cccssccc"
         style="fill:#5ab532;fill-opacity:1;stroke:#000000;stroke-width:2.5;stroke-miterlimit:4;stroke-dasharray:none;stroke-opacity:1"
         d="M 141.65346,456.90365 C 143.68321,459.0136 143.61822,462.36782 141.50826,464.39757 L 102.93429,501.50517 C 102.89866,501.53945 102.86208,501.57463 102.82619,501.60916 C 100.71622,503.63891 97.362,503.57392 95.33226,501.46396 C 93.30251,499.35401 93.3675,495.99979 95.47746,493.97004 L 134.15954,456.75845 C 136.2695,454.72869 139.62371,454.79369 141.65346,456.90365 z"
         id="path4015" />
      <path
         id="path4041"
         d="M 345.57416,348.40594 C 337.15069,357.16229 337.42053,371.08932 346.17687,379.51281 L 373.85069,406.13461 C 382.60705,414.55809 396.53408,414.28823 404.95755,405.53189 C 413.38102,396.77556 413.11119,382.84852 404.35484,374.42504 L 376.68103,347.80323 C 367.92467,339.37975 353.99764,339.64961 345.57416,348.40594 z M 353.21329,355.75467 C 357.58004,351.21536 364.81037,351.05758 369.34966,355.42431 L 397.02347,382.04612 C 401.56276,386.41284 401.70319,393.66119 397.33643,398.2005 C 392.96969,402.73981 385.73871,402.86221 381.19942,398.49548 L 353.5256,371.87368 C 348.98631,367.50695 348.84653,360.29398 353.21329,355.75467 z"
         style="fill:#5ab532;fill-opacity:1;stroke:#000000;stroke-width:2.5;stroke-miterlimit:4;stroke-dasharray:none;stroke-opacity:1" />
      <path
         sodipodi:nodetypes="cccssccc"
         id="path4043"
         d="M 316.53108,320.46692 C 314.50134,322.57688 314.56632,325.9311 316.67628,327.96084 L 355.25025,365.06845 C 355.28589,365.10272 355.32247,365.13792 355.35835,365.17244 C 357.46831,367.20219 360.82254,367.13719 362.85228,365.02724 C 364.88202,362.91728 364.81704,359.56306 362.70708,357.53332 L 324.02501,320.32172 C 321.91505,318.29197 318.56082,318.35697 316.53108,320.46692 z"
         style="fill:#5ab532;fill-opacity:1;stroke:#000000;stroke-width:2.5;stroke-miterlimit:4;stroke-dasharray:none;stroke-opacity:1" />
      <path
         style="fill:#5ab532;fill-opacity:1;stroke:#000000;stroke-width:2.5;stroke-miterlimit:4;stroke-dasharray:none;stroke-opacity:1"
         d="M 415.91176,416.06969 C 407.48829,424.82603 407.75812,438.75306 416.51448,447.17655 L 444.18828,473.79835 C 452.94464,482.22184 466.87167,481.95198 475.29514,473.19564 C 483.71861,464.43929 483.44879,450.51226 474.69243,442.08877 L 447.01862,415.46698 C 438.26227,407.04349 424.33523,407.31334 415.91176,416.06969 z M 423.55089,423.41841 C 427.91764,418.8791 435.14796,418.72132 439.68726,423.08805 L 467.36107,449.70986 C 471.90036,454.07659 472.04079,461.32493 467.67404,465.86424 C 463.30728,470.40355 456.0763,470.52596 451.53701,466.15922 L 423.8632,439.53742 C 419.32391,435.17068 419.18414,427.95772 423.55089,423.41841 z"
         id="path4045" />
      <path
         sodipodi:nodetypes="cccssccc"
         style="fill:#5ab532;fill-opacity:1;stroke:#000000;stroke-width:2.5;stroke-miterlimit:4;stroke-dasharray:none;stroke-opacity:1"
         d="M 388.02175,389.23991 C 385.992,391.34986 386.05699,394.70408 388.16695,396.73383 L 426.74092,433.84143 C 426.77655,433.87571 426.81314,433.91089 426.84902,433.94542 C 428.95899,435.97517 432.31321,435.91018 434.34296,433.80022 C 436.3727,431.69026 436.30771,428.33605 434.19775,426.3063 L 395.51567,389.09471 C 393.40572,387.06495 390.0515,387.12995 388.02175,389.23991 z"
         id="path4047" />
      <path
         sodipodi:nodetypes="ccccccccccc"
         id="path4049"
         d="M 501.8676,514.5765 L 494.20081,507.20116 C 489.66151,502.83442 489.52174,495.62146 493.88849,491.08215 C 498.25525,486.54284 505.48556,486.38507 510.02486,490.75179 L 516.37792,496.86334 M 486.24937,483.73343 C 477.8259,492.48977 478.09572,506.41681 486.85208,514.84029 L 494.60701,522.30042 C 505.30672,511.22685 514.73567,499.94148 522.87685,488.44149 L 517.35622,483.13072 C 508.59987,474.70723 494.67284,474.97708 486.24937,483.73343 z"
         style="fill:#5ab532;fill-opacity:1;stroke:#000000;stroke-width:2.5;stroke-miterlimit:4;stroke-dasharray:none;stroke-opacity:1" />
      <path
         id="path4051"
         d="M 458.35936,456.90365 C 456.32961,459.0136 456.39459,462.36782 458.50456,464.39757 L 497.07853,501.50517 C 497.11415,501.53945 497.15074,501.57463 497.18662,501.60916 C 499.29659,503.63891 502.65081,503.57392 504.68056,501.46396 C 506.7103,499.35401 506.64532,495.99979 504.53535,493.97004 L 465.85328,456.75845 C 463.74332,454.72869 460.3891,454.79369 458.35936,456.90365 z"
         style="fill:#5ab532;fill-opacity:1;stroke:#000000;stroke-width:2.5;stroke-miterlimit:4;stroke-dasharray:none;stroke-opacity:1"
         sodipodi:nodetypes="cccssccc" />
    </g>
  </g>
  <g
     inkscape:groupmode="layer"
     id="layer2"
     inkscape:label="Reflet final"
     sodipodi:insensitive="true">
    <path
       sodipodi:nodetypes="cccccc"
       d="M 300.00001,658.5 C 300.00001,658.5 598.50001,546.17969 598.50001,260.72817 C 598.50001,-24.723334 598.50001,2.1764865 598.50001,2.1764865 L 1.5,2.1764865 L 1.5,260.72817 C 1.5,546.17969 300.00001,658.5 300.00001,658.5 z "
       style="opacity:1;fill:url(#radialGradient3163);fill-opacity:1;fill-rule:evenodd;stroke:none;stroke-width:1px;stroke-linecap:butt;stroke-linejoin:miter;stroke-opacity:1"
       id="path2875"
       inkscape:export-xdpi="144"
       inkscape:export-ydpi="144" />
  </g>
  <g
     inkscape:groupmode="layer"
     id="layer1"
     inkscape:label="Contour final"
     sodipodi:insensitive="true">
    <path
       sodipodi:nodetypes="cccccc"
       d="M 299.99999,658.50028 C 299.99999,658.50028 1.5,546.17992 1.5,260.72828 C 1.5,-24.723336 1.5,2.1764957 1.5,2.1764957 L 598.49999,2.1764957 L 598.49999,260.72828 C 598.49999,546.17992 299.99999,658.50028 299.99999,658.50028 z "
       style="opacity:1;fill:none;fill-opacity:1;fill-rule:evenodd;stroke:#000000;stroke-width:3.00000048;stroke-linecap:butt;stroke-linejoin:miter;stroke-miterlimit:4;stroke-dasharray:none;stroke-opacity:1"
       id="path1411"
       inkscape:export-xdpi="144"
       inkscape:export-ydpi="144" />
  </g>
</svg>
