<?xml version="1.0" encoding="UTF-8" standalone="no"?>
<svg
   xmlns:dc="http://purl.org/dc/elements/1.1/"
   xmlns:cc="http://web.resource.org/cc/"
   xmlns:rdf="http://www.w3.org/1999/02/22-rdf-syntax-ns#"
   xmlns:svg="http://www.w3.org/2000/svg"
   xmlns="http://www.w3.org/2000/svg"
   xmlns:xlink="http://www.w3.org/1999/xlink"
   xmlns:sodipodi="http://sodipodi.sourceforge.net/DTD/sodipodi-0.dtd"
   xmlns:inkscape="http://www.inkscape.org/namespaces/inkscape"
   height="660"
   width="600"
   version="1.0"
   id="svg2"
   sodipodi:version="0.32"
   inkscape:version="0.44.1"
   sodipodi:docname="Blason_Pisy_89.svg"
   sodipodi:docbase="L:\blasons"
   inkscape:export-filename="/Users/olivier/Desktop/Blason Rouge/Blason_Vide_3D.png"
   inkscape:export-xdpi="144"
   inkscape:export-ydpi="144">
  <metadata
     id="metadata49">
    <rdf:RDF>
      <cc:Work
         rdf:about="">
        <dc:format>image/svg+xml</dc:format>
        <dc:type
           rdf:resource="http://purl.org/dc/dcmitype/StillImage" />
        <dc:title>Blason de corcieux</dc:title>
        <dc:date>26-11-2006</dc:date>
        <dc:creator>
          <cc:Agent>
            <dc:title>Antoine Fabrice (Darkbob)</dc:title>
          </cc:Agent>
        </dc:creator>
        <cc:license
           rdf:resource="http://web.resource.org/cc/PublicDomain" />
        <dc:language />
        <dc:subject>
          <rdf:Bag>
            <rdf:li>blason corcieux</rdf:li>
          </rdf:Bag>
        </dc:subject>
      </cc:Work>
      <cc:License
         rdf:about="http://web.resource.org/cc/PublicDomain">
        <cc:permits
           rdf:resource="http://web.resource.org/cc/Reproduction" />
        <cc:permits
           rdf:resource="http://web.resource.org/cc/Distribution" />
        <cc:permits
           rdf:resource="http://web.resource.org/cc/DerivativeWorks" />
      </cc:License>
    </rdf:RDF>
  </metadata>
  <sodipodi:namedview
     inkscape:window-height="712"
     inkscape:window-width="1024"
     inkscape:pageshadow="2"
     inkscape:pageopacity="0.0"
     guidetolerance="10.0"
     gridtolerance="10.0"
     objecttolerance="10.0"
     borderopacity="1.0"
     bordercolor="#666666"
     pagecolor="#ffffff"
     id="base"
     showgrid="false"
     height="660px"
     inkscape:zoom="0.546226"
     inkscape:cx="293.26301"
     inkscape:cy="333.84658"
     inkscape:window-x="-4"
     inkscape:window-y="-4"
     inkscape:current-layer="layer3"
     showguides="true"
     inkscape:guide-bbox="true" />
  <desc
     id="desc4">Flag of Canton of Valais (Wallis)</desc>
  <defs
     id="defs6">
    <linearGradient
       id="linearGradient2893">
      <stop
         style="stop-color:white;stop-opacity:0.3137255;"
         offset="0"
         id="stop2895" />
      <stop
         id="stop2897"
         offset="0.19"
         style="stop-color:white;stop-opacity:0.25098041;" />
      <stop
         style="stop-color:#6b6b6b;stop-opacity:0.1254902;"
         offset="0.60000002"
         id="stop2901" />
      <stop
         style="stop-color:black;stop-opacity:0.1254902;"
         offset="1"
         id="stop2899" />
    </linearGradient>
    <linearGradient
       id="linearGradient2885">
      <stop
         id="stop2887"
         offset="0"
         style="stop-color:white;stop-opacity:1;" />
      <stop
         style="stop-color:white;stop-opacity:1;"
         offset="0.22857143"
         id="stop2891" />
      <stop
         id="stop2889"
         offset="1"
         style="stop-color:black;stop-opacity:1;" />
    </linearGradient>
    <linearGradient
       id="linearGradient2955">
      <stop
         id="stop2867"
         offset="0"
         style="stop-color:#fd0000;stop-opacity:1;" />
      <stop
         style="stop-color:#e77275;stop-opacity:0.65882355;"
         offset="0.5"
         id="stop2873" />
      <stop
         style="stop-color:black;stop-opacity:0.32291666;"
         offset="1"
         id="stop2959" />
    </linearGradient>
    <radialGradient
       inkscape:collect="always"
       xlink:href="#linearGradient2955"
       id="radialGradient2961"
       cx="225.52438"
       cy="218.90099"
       fx="225.52438"
       fy="218.90099"
       r="300"
       gradientTransform="matrix(-4.167939e-4,2.182867,-1.884232,-3.599562e-4,615.5972,-289.1214)"
       gradientUnits="userSpaceOnUse" />
    <polygon
       id="star"
       transform="scale(53,53)"
       points="0,-1 0.58778525,0.80901699 -0.95105652,-0.30901699 0.95105652,-0.30901699 -0.58778525,0.80901699 0,-1 " />
    <clipPath
       id="clip">
      <path
         d="M 0,-200 L 0,600 L 300,600 L 300,-200 L 0,-200 z "
         id="path10" />
    </clipPath>
    <radialGradient
       inkscape:collect="always"
       xlink:href="#linearGradient2955"
       id="radialGradient1911"
       gradientUnits="userSpaceOnUse"
       gradientTransform="matrix(-4.167939e-4,2.182867,-1.884232,-3.599562e-4,615.5972,-289.1214)"
       cx="225.52438"
       cy="218.90099"
       fx="225.52438"
       fy="218.90099"
       r="300" />
    <radialGradient
       inkscape:collect="always"
       xlink:href="#linearGradient2955"
       id="radialGradient2865"
       gradientUnits="userSpaceOnUse"
       gradientTransform="matrix(0,1.748721,-1.593162,-1.049767e-7,551.7876,-191.2898)"
       cx="225.52438"
       cy="218.90099"
       fx="225.52438"
       fy="218.90099"
       r="300" />
    <radialGradient
       inkscape:collect="always"
       xlink:href="#linearGradient2955"
       id="radialGradient2871"
       gradientUnits="userSpaceOnUse"
       gradientTransform="matrix(0,1.386237,-1.323286,-5.741131e-8,-158.0823,-109.5408)"
       cx="225.52438"
       cy="218.90099"
       fx="225.52438"
       fy="218.90099"
       r="300" />
    <radialGradient
       inkscape:collect="always"
       xlink:href="#linearGradient2893"
       id="radialGradient3163"
       gradientUnits="userSpaceOnUse"
       gradientTransform="matrix(1.353218,0,0,1.348928,-77.62935,-85.74693)"
       cx="221.44487"
       cy="226.33101"
       fx="221.44487"
       fy="226.33101"
       r="300" />
    <radialGradient
       gradientTransform="matrix(1.353218,0,0,1.348928,-77.62935,-85.74693)"
       gradientUnits="userSpaceOnUse"
       xlink:href="#linearGradient2893"
       id="radialGradient9547"
       fy="226.33101"
       fx="221.44487"
       r="300"
       cy="226.33101"
       cx="221.44487" />
    <radialGradient
       gradientTransform="matrix(0,1.386237,-1.323286,-5.741131e-8,-158.0823,-109.5408)"
       gradientUnits="userSpaceOnUse"
       xlink:href="#linearGradient2955"
       id="radialGradient9545"
       fy="218.90099"
       fx="225.52438"
       r="300"
       cy="218.90099"
       cx="225.52438" />
    <radialGradient
       gradientTransform="matrix(0,1.748721,-1.593162,-1.049767e-7,551.7876,-191.2898)"
       gradientUnits="userSpaceOnUse"
       xlink:href="#linearGradient2955"
       id="radialGradient9543"
       fy="218.90099"
       fx="225.52438"
       r="300"
       cy="218.90099"
       cx="225.52438" />
    <radialGradient
       gradientTransform="matrix(-4.167939e-4,2.182867,-1.884232,-3.599562e-4,615.5972,-289.1214)"
       gradientUnits="userSpaceOnUse"
       xlink:href="#linearGradient2955"
       id="radialGradient9541"
       fy="218.90099"
       fx="225.52438"
       r="300"
       cy="218.90099"
       cx="225.52438" />
    <clipPath
       id="clipPath9537">
      <path
         id="path9539"
         d="M 0,-200 L 0,600 L 300,600 L 300,-200 L 0,-200 z " />
    </clipPath>
    <polygon
       id="polygon9535"
       transform="scale(53,53)"
       points="0,-1 0.58778525,0.80901699 -0.95105652,-0.30901699 0.95105652,-0.30901699 -0.58778525,0.80901699 0,-1 " />
    <radialGradient
       gradientTransform="matrix(-4.167939e-4,2.182867,-1.884232,-3.599562e-4,615.5972,-289.1214)"
       gradientUnits="userSpaceOnUse"
       xlink:href="#linearGradient2955"
       id="radialGradient9533"
       fy="218.90099"
       fx="225.52438"
       r="300"
       cy="218.90099"
       cx="225.52438" />
    <linearGradient
       id="linearGradient9525">
      <stop
         id="stop9527"
         offset="0"
         style="stop-color:#fd0000;stop-opacity:1" />
      <stop
         id="stop9529"
         offset="0.5"
         style="stop-color:#e77275;stop-opacity:0.65882355" />
      <stop
         id="stop9531"
         offset="1"
         style="stop-color:black;stop-opacity:0.32291666" />
    </linearGradient>
    <linearGradient
       id="linearGradient9517">
      <stop
         id="stop9519"
         offset="0"
         style="stop-color:white;stop-opacity:1" />
      <stop
         id="stop9521"
         offset="0.22857143"
         style="stop-color:white;stop-opacity:1" />
      <stop
         id="stop9523"
         offset="1"
         style="stop-color:black;stop-opacity:1" />
    </linearGradient>
    <linearGradient
       id="linearGradient9507">
      <stop
         id="stop9509"
         offset="0"
         style="stop-color:white;stop-opacity:0.3137255" />
      <stop
         id="stop9511"
         offset="0.19"
         style="stop-color:white;stop-opacity:0.25098041" />
      <stop
         id="stop9513"
         offset="0.60000002"
         style="stop-color:#6b6b6b;stop-opacity:0.1254902" />
      <stop
         id="stop9515"
         offset="1"
         style="stop-color:black;stop-opacity:0.1254902" />
    </linearGradient>
  </defs>
  <g
     inkscape:groupmode="layer"
     id="layer3"
     inkscape:label="Fond écu"
     style="display:inline">
    <path
       id="path2855"
       style="fill:white;fill-opacity:1;fill-rule:evenodd;stroke:none;stroke-width:1px;stroke-linecap:butt;stroke-linejoin:miter;stroke-opacity:1"
       d="M 300,658.5 C 300,658.5 598.50001,546.17969 598.50001,260.72817 C 598.50001,-24.723354 598.50001,2.1764765 598.50001,2.1764765 L 1.5,2.1764765 L 1.5,260.72817 C 1.5,546.17969 300,658.5 300,658.5 z "
       sodipodi:nodetypes="cccccc" />
    <path
       style="fill:#2b5df2;fill-opacity:1;fill-rule:evenodd;stroke:black;stroke-width:3;stroke-linecap:butt;stroke-linejoin:miter;stroke-miterlimit:4;stroke-dasharray:none;stroke-opacity:1"
       d="M 1.5,136.37013 L 1.5,271.30763 L 598.5,271.30763 C 598.50001,124.16604 598.5,162.61718 598.5,136.37013 L 1.5,136.37013 z "
       id="path1977" />
    <g
       id="g5534"
       transform="translate(-8.238349,0)">
      <g
         transform="translate(-179.4129,-521.7621)"
         id="g5498">
        <path
           style="fill:#fcef3c;fill-opacity:1;fill-rule:evenodd;stroke:black;stroke-width:1.97927892;stroke-linecap:butt;stroke-linejoin:miter;stroke-miterlimit:4;stroke-dasharray:none;stroke-opacity:1"
           d="M 254.92389,538.01918 L 299.99052,598.22554 L 345.07612,538.01918 L 299.99052,538.01918 L 254.92389,538.01918 z "
           id="path10970" />
        <path
           style="fill:#fcef3c;fill-opacity:1;fill-rule:evenodd;stroke:black;stroke-width:1.97927999;stroke-linecap:butt;stroke-linejoin:miter;stroke-miterlimit:4;stroke-dasharray:none;stroke-opacity:1"
           d="M 295.79404,538.32822 C 285.65622,546.04361 276.11418,563.29489 274.3106,568.49163 C 244.36489,572.20706 235.37808,593.14926 253.56939,600.53122 C 254.00065,598.19752 274.86925,578.0491 277.30656,577.29164 C 274.40122,578.36654 253.5252,598.42571 253.63125,600.57245 C 249.45419,615.92125 258.44397,622.09076 270.31081,621.06625 C 272.22483,611.55882 281.86871,591.26382 286.41522,586.23454 C 281.97044,591.63238 272.13277,611.68566 270.26957,621.43737 C 276.82531,635.6379 285.6176,639.62036 299.75259,630.69462 L 300,589.79601 L 300.24741,630.69462 C 314.38241,639.62036 323.15408,635.6379 329.70982,621.43737 C 327.34019,612.69852 317.55852,592.57447 313.58479,586.23454 C 316.72102,591.37434 326.26758,610.49907 329.68921,621.06625 C 341.55604,622.09076 350.54583,615.92125 346.36876,600.57245 C 345.6935,595.95545 324.4002,576.55761 322.67283,576.88375 C 325.44284,576.58041 346.65141,596.80804 346.43061,600.53122 C 364.62193,593.14926 355.63512,572.20706 325.68941,568.49163 C 323.88583,563.29489 314.71045,545.49363 304.57263,537.77825 C 304.57263,537.77825 301.50986,535.07466 300,535.77165 L 295.79404,538.32822 z "
           id="path10972"
           sodipodi:nodetypes="ccccccccccccccccccccc" />
        <path
           style="fill:none;fill-rule:evenodd;stroke:black;stroke-width:0.65976;stroke-linecap:butt;stroke-linejoin:miter;stroke-miterlimit:4;stroke-dasharray:none;stroke-opacity:1"
           d="M 278.73417,572.90958 C 293.99704,580.50909 307.95315,578.96134 321.26584,572.90958"
           id="path10974"
           sodipodi:nodetypes="cc" />
        <path
           style="fill:none;fill-rule:evenodd;stroke:black;stroke-width:0.65976;stroke-linecap:butt;stroke-linejoin:miter;stroke-miterlimit:4;stroke-dasharray:none;stroke-opacity:1"
           d="M 263.33477,586.84237 C 286.80052,611.7098 311.24401,612.80148 336.66524,586.84237"
           id="path10976"
           sodipodi:nodetypes="cc" />
      </g>
      <g
         id="g5504"
         transform="translate(195.8896,-521.7621)">
        <path
           id="path5506"
           d="M 254.92389,538.01918 L 299.99052,598.22554 L 345.07612,538.01918 L 299.99052,538.01918 L 254.92389,538.01918 z "
           style="fill:#fcef3c;fill-opacity:1;fill-rule:evenodd;stroke:black;stroke-width:1.97927892;stroke-linecap:butt;stroke-linejoin:miter;stroke-miterlimit:4;stroke-dasharray:none;stroke-opacity:1" />
        <path
           sodipodi:nodetypes="ccccccccccccccccccccc"
           id="path5508"
           d="M 295.79404,538.32822 C 285.65622,546.04361 276.11418,563.29489 274.3106,568.49163 C 244.36489,572.20706 235.37808,593.14926 253.56939,600.53122 C 254.00065,598.19752 274.86925,578.0491 277.30656,577.29164 C 274.40122,578.36654 253.5252,598.42571 253.63125,600.57245 C 249.45419,615.92125 258.44397,622.09076 270.31081,621.06625 C 272.22483,611.55882 281.86871,591.26382 286.41522,586.23454 C 281.97044,591.63238 272.13277,611.68566 270.26957,621.43737 C 276.82531,635.6379 285.6176,639.62036 299.75259,630.69462 L 300,589.79601 L 300.24741,630.69462 C 314.38241,639.62036 323.15408,635.6379 329.70982,621.43737 C 327.34019,612.69852 317.55852,592.57447 313.58479,586.23454 C 316.72102,591.37434 326.26758,610.49907 329.68921,621.06625 C 341.55604,622.09076 350.54583,615.92125 346.36876,600.57245 C 345.6935,595.95545 324.4002,576.55761 322.67283,576.88375 C 325.44284,576.58041 346.65141,596.80804 346.43061,600.53122 C 364.62193,593.14926 355.63512,572.20706 325.68941,568.49163 C 323.88583,563.29489 314.71045,545.49363 304.57263,537.77825 C 304.57263,537.77825 301.50986,535.07466 300,535.77165 L 295.79404,538.32822 z "
           style="fill:#fcef3c;fill-opacity:1;fill-rule:evenodd;stroke:black;stroke-width:1.97927999;stroke-linecap:butt;stroke-linejoin:miter;stroke-miterlimit:4;stroke-dasharray:none;stroke-opacity:1" />
        <path
           sodipodi:nodetypes="cc"
           id="path5510"
           d="M 278.73417,572.90958 C 293.99704,580.50909 307.95315,578.96134 321.26584,572.90958"
           style="fill:none;fill-rule:evenodd;stroke:black;stroke-width:0.65976;stroke-linecap:butt;stroke-linejoin:miter;stroke-miterlimit:4;stroke-dasharray:none;stroke-opacity:1" />
        <path
           sodipodi:nodetypes="cc"
           id="path5512"
           d="M 263.33477,586.84237 C 286.80052,611.7098 311.24401,612.80148 336.66524,586.84237"
           style="fill:none;fill-rule:evenodd;stroke:black;stroke-width:0.65976;stroke-linecap:butt;stroke-linejoin:miter;stroke-miterlimit:4;stroke-dasharray:none;stroke-opacity:1" />
      </g>
    </g>
    <g
       transform="translate(-187.6512,-241.6582)"
       id="g5548">
      <path
         style="fill:#fcef3c;fill-opacity:1;fill-rule:evenodd;stroke:black;stroke-width:1.97927892;stroke-linecap:butt;stroke-linejoin:miter;stroke-miterlimit:4;stroke-dasharray:none;stroke-opacity:1"
         d="M 254.92389,538.01918 L 299.99052,598.22554 L 345.07612,538.01918 L 299.99052,538.01918 L 254.92389,538.01918 z "
         id="path5550" />
      <path
         style="fill:#fcef3c;fill-opacity:1;fill-rule:evenodd;stroke:black;stroke-width:1.97927999;stroke-linecap:butt;stroke-linejoin:miter;stroke-miterlimit:4;stroke-dasharray:none;stroke-opacity:1"
         d="M 295.79404,538.32822 C 285.65622,546.04361 276.11418,563.29489 274.3106,568.49163 C 244.36489,572.20706 235.37808,593.14926 253.56939,600.53122 C 254.00065,598.19752 274.86925,578.0491 277.30656,577.29164 C 274.40122,578.36654 253.5252,598.42571 253.63125,600.57245 C 249.45419,615.92125 258.44397,622.09076 270.31081,621.06625 C 272.22483,611.55882 281.86871,591.26382 286.41522,586.23454 C 281.97044,591.63238 272.13277,611.68566 270.26957,621.43737 C 276.82531,635.6379 285.6176,639.62036 299.75259,630.69462 L 300,589.79601 L 300.24741,630.69462 C 314.38241,639.62036 323.15408,635.6379 329.70982,621.43737 C 327.34019,612.69852 317.55852,592.57447 313.58479,586.23454 C 316.72102,591.37434 326.26758,610.49907 329.68921,621.06625 C 341.55604,622.09076 350.54583,615.92125 346.36876,600.57245 C 345.6935,595.95545 324.4002,576.55761 322.67283,576.88375 C 325.44284,576.58041 346.65141,596.80804 346.43061,600.53122 C 364.62193,593.14926 355.63512,572.20706 325.68941,568.49163 C 323.88583,563.29489 314.71045,545.49363 304.57263,537.77825 C 304.57263,537.77825 301.50986,535.07466 300,535.77165 L 295.79404,538.32822 z "
         id="path5552"
         sodipodi:nodetypes="ccccccccccccccccccccc" />
      <path
         style="fill:none;fill-rule:evenodd;stroke:black;stroke-width:0.65976;stroke-linecap:butt;stroke-linejoin:miter;stroke-miterlimit:4;stroke-dasharray:none;stroke-opacity:1"
         d="M 278.73417,572.90958 C 293.99704,580.50909 307.95315,578.96134 321.26584,572.90958"
         id="path5554"
         sodipodi:nodetypes="cc" />
      <path
         style="fill:none;fill-rule:evenodd;stroke:black;stroke-width:0.65976;stroke-linecap:butt;stroke-linejoin:miter;stroke-miterlimit:4;stroke-dasharray:none;stroke-opacity:1"
         d="M 263.33477,586.84237 C 286.80052,611.7098 311.24401,612.80148 336.66524,586.84237"
         id="path5556"
         sodipodi:nodetypes="cc" />
    </g>
    <g
       id="g5558"
       transform="translate(187.6513,-241.6582)">
      <path
         id="path5560"
         d="M 254.92389,538.01918 L 299.99052,598.22554 L 345.07612,538.01918 L 299.99052,538.01918 L 254.92389,538.01918 z "
         style="fill:#fcef3c;fill-opacity:1;fill-rule:evenodd;stroke:black;stroke-width:1.97927892;stroke-linecap:butt;stroke-linejoin:miter;stroke-miterlimit:4;stroke-dasharray:none;stroke-opacity:1" />
      <path
         sodipodi:nodetypes="ccccccccccccccccccccc"
         id="path5562"
         d="M 295.79404,538.32822 C 285.65622,546.04361 276.11418,563.29489 274.3106,568.49163 C 244.36489,572.20706 235.37808,593.14926 253.56939,600.53122 C 254.00065,598.19752 274.86925,578.0491 277.30656,577.29164 C 274.40122,578.36654 253.5252,598.42571 253.63125,600.57245 C 249.45419,615.92125 258.44397,622.09076 270.31081,621.06625 C 272.22483,611.55882 281.86871,591.26382 286.41522,586.23454 C 281.97044,591.63238 272.13277,611.68566 270.26957,621.43737 C 276.82531,635.6379 285.6176,639.62036 299.75259,630.69462 L 300,589.79601 L 300.24741,630.69462 C 314.38241,639.62036 323.15408,635.6379 329.70982,621.43737 C 327.34019,612.69852 317.55852,592.57447 313.58479,586.23454 C 316.72102,591.37434 326.26758,610.49907 329.68921,621.06625 C 341.55604,622.09076 350.54583,615.92125 346.36876,600.57245 C 345.6935,595.95545 324.4002,576.55761 322.67283,576.88375 C 325.44284,576.58041 346.65141,596.80804 346.43061,600.53122 C 364.62193,593.14926 355.63512,572.20706 325.68941,568.49163 C 323.88583,563.29489 314.71045,545.49363 304.57263,537.77825 C 304.57263,537.77825 301.50986,535.07466 300,535.77165 L 295.79404,538.32822 z "
         style="fill:#fcef3c;fill-opacity:1;fill-rule:evenodd;stroke:black;stroke-width:1.97927999;stroke-linecap:butt;stroke-linejoin:miter;stroke-miterlimit:4;stroke-dasharray:none;stroke-opacity:1" />
      <path
         sodipodi:nodetypes="cc"
         id="path5564"
         d="M 278.73417,572.90958 C 293.99704,580.50909 307.95315,578.96134 321.26584,572.90958"
         style="fill:none;fill-rule:evenodd;stroke:black;stroke-width:0.65976;stroke-linecap:butt;stroke-linejoin:miter;stroke-miterlimit:4;stroke-dasharray:none;stroke-opacity:1" />
      <path
         sodipodi:nodetypes="cc"
         id="path5566"
         d="M 263.33477,586.84237 C 286.80052,611.7098 311.24401,612.80148 336.66524,586.84237"
         style="fill:none;fill-rule:evenodd;stroke:black;stroke-width:0.65976;stroke-linecap:butt;stroke-linejoin:miter;stroke-miterlimit:4;stroke-dasharray:none;stroke-opacity:1" />
    </g>
    <g
       id="g5578"
       transform="translate(1.382208e-6,-43.93784)">
      <path
         id="path5580"
         d="M 254.92389,538.01918 L 299.99052,598.22554 L 345.07612,538.01918 L 299.99052,538.01918 L 254.92389,538.01918 z "
         style="fill:#fcef3c;fill-opacity:1;fill-rule:evenodd;stroke:black;stroke-width:1.97927892;stroke-linecap:butt;stroke-linejoin:miter;stroke-miterlimit:4;stroke-dasharray:none;stroke-opacity:1" />
      <path
         sodipodi:nodetypes="ccccccccccccccccccccc"
         id="path5582"
         d="M 295.79404,538.32822 C 285.65622,546.04361 276.11418,563.29489 274.3106,568.49163 C 244.36489,572.20706 235.37808,593.14926 253.56939,600.53122 C 254.00065,598.19752 274.86925,578.0491 277.30656,577.29164 C 274.40122,578.36654 253.5252,598.42571 253.63125,600.57245 C 249.45419,615.92125 258.44397,622.09076 270.31081,621.06625 C 272.22483,611.55882 281.86871,591.26382 286.41522,586.23454 C 281.97044,591.63238 272.13277,611.68566 270.26957,621.43737 C 276.82531,635.6379 285.6176,639.62036 299.75259,630.69462 L 300,589.79601 L 300.24741,630.69462 C 314.38241,639.62036 323.15408,635.6379 329.70982,621.43737 C 327.34019,612.69852 317.55852,592.57447 313.58479,586.23454 C 316.72102,591.37434 326.26758,610.49907 329.68921,621.06625 C 341.55604,622.09076 350.54583,615.92125 346.36876,600.57245 C 345.6935,595.95545 324.4002,576.55761 322.67283,576.88375 C 325.44284,576.58041 346.65141,596.80804 346.43061,600.53122 C 364.62193,593.14926 355.63512,572.20706 325.68941,568.49163 C 323.88583,563.29489 314.71045,545.49363 304.57263,537.77825 C 304.57263,537.77825 301.50986,535.07466 300,535.77165 L 295.79404,538.32822 z "
         style="fill:#fcef3c;fill-opacity:1;fill-rule:evenodd;stroke:black;stroke-width:1.97927999;stroke-linecap:butt;stroke-linejoin:miter;stroke-miterlimit:4;stroke-dasharray:none;stroke-opacity:1" />
      <path
         sodipodi:nodetypes="cc"
         id="path5584"
         d="M 278.73417,572.90958 C 293.99704,580.50909 307.95315,578.96134 321.26584,572.90958"
         style="fill:none;fill-rule:evenodd;stroke:black;stroke-width:0.65976;stroke-linecap:butt;stroke-linejoin:miter;stroke-miterlimit:4;stroke-dasharray:none;stroke-opacity:1" />
      <path
         sodipodi:nodetypes="cc"
         id="path5586"
         d="M 263.33477,586.84237 C 286.80052,611.7098 311.24401,612.80148 336.66524,586.84237"
         style="fill:none;fill-rule:evenodd;stroke:black;stroke-width:0.65976;stroke-linecap:butt;stroke-linejoin:miter;stroke-miterlimit:4;stroke-dasharray:none;stroke-opacity:1" />
    </g>
  </g>
  <g
     inkscape:groupmode="layer"
     id="layer4"
     inkscape:label="Meubles" />
  <g
     inkscape:groupmode="layer"
     id="layer2"
     inkscape:label="Reflet final"
     sodipodi:insensitive="true">
    <path
       sodipodi:nodetypes="cccccc"
       d="M 300.00001,658.5 C 300.00001,658.5 598.50001,546.17969 598.50001,260.72817 C 598.50001,-24.723334 598.50001,2.1764865 598.50001,2.1764865 L 1.5,2.1764865 L 1.5,260.72817 C 1.5,546.17969 300.00001,658.5 300.00001,658.5 z "
       style="opacity:1;fill:url(#radialGradient3163);fill-opacity:1;fill-rule:evenodd;stroke:none;stroke-width:1px;stroke-linecap:butt;stroke-linejoin:miter;stroke-opacity:1"
       id="path2875"
       inkscape:export-xdpi="144"
       inkscape:export-ydpi="144" />
  </g>
  <g
     inkscape:groupmode="layer"
     id="layer1"
     inkscape:label="Contour final"
     sodipodi:insensitive="true">
    <path
       sodipodi:nodetypes="cccccc"
       d="M 299.99999,658.50028 C 299.99999,658.50028 1.5,546.17992 1.5,260.72828 C 1.5,-24.723336 1.5,2.1764957 1.5,2.1764957 L 598.49999,2.1764957 L 598.49999,260.72828 C 598.49999,546.17992 299.99999,658.50028 299.99999,658.50028 z "
       style="opacity:1;fill:none;fill-opacity:1;fill-rule:evenodd;stroke:#000000;stroke-width:3.00000048;stroke-linecap:butt;stroke-linejoin:miter;stroke-miterlimit:4;stroke-dasharray:none;stroke-opacity:1"
       id="path1411"
       inkscape:export-xdpi="144"
       inkscape:export-ydpi="144" />
  </g>
</svg>
