<?xml version="1.0" encoding="UTF-8" standalone="no"?>
<!-- Created with Inkscape (http://www.inkscape.org/) -->
<svg
   xmlns:dc="http://purl.org/dc/elements/1.1/"
   xmlns:cc="http://web.resource.org/cc/"
   xmlns:rdf="http://www.w3.org/1999/02/22-rdf-syntax-ns#"
   xmlns:svg="http://www.w3.org/2000/svg"
   xmlns="http://www.w3.org/2000/svg"
   xmlns:xlink="http://www.w3.org/1999/xlink"
   xmlns:sodipodi="http://sodipodi.sourceforge.net/DTD/sodipodi-0.dtd"
   xmlns:inkscape="http://www.inkscape.org/namespaces/inkscape"
   version="1.0"
   width="600"
   height="660"
   id="svg2"
   sodipodi:version="0.32"
   inkscape:version="0.44.1"
   sodipodi:docname="Vogelgrun (68).svg"
   sodipodi:docbase="C:\Documents and Settings\Propriétaire\Mes documents\image blason\Blason du 68 à envoyer">
  <metadata
     id="metadata63">
    <rdf:RDF>
      <cc:Work
         rdf:about="">
        <dc:format>image/svg+xml</dc:format>
        <dc:type
           rdf:resource="http://purl.org/dc/dcmitype/StillImage" />
      </cc:Work>
    </rdf:RDF>
  </metadata>
  <sodipodi:namedview
     inkscape:window-height="712"
     inkscape:window-width="1024"
     inkscape:pageshadow="2"
     inkscape:pageopacity="0.0"
     guidetolerance="10.0"
     gridtolerance="10.0"
     objecttolerance="10.0"
     borderopacity="1.0"
     bordercolor="#666666"
     pagecolor="#ffffff"
     id="base"
     inkscape:zoom="0.80781593"
     inkscape:cx="271.84146"
     inkscape:cy="336.3758"
     inkscape:window-x="-4"
     inkscape:window-y="-4"
     inkscape:current-layer="svg2" />
  <defs
     id="defs6">
    <linearGradient
       id="linearGradient2893">
      <stop
         style="stop-color:#ffffff;stop-opacity:0.3137255"
         offset="0"
         id="stop2895" />
      <stop
         style="stop-color:#ffffff;stop-opacity:0.25098041"
         offset="0.19"
         id="stop2897" />
      <stop
         style="stop-color:#6b6b6b;stop-opacity:0.1254902"
         offset="0.60000002"
         id="stop2901" />
      <stop
         style="stop-color:#000000;stop-opacity:0.1254902"
         offset="1"
         id="stop2899" />
    </linearGradient>
    <radialGradient
       cx="221.44487"
       cy="226.33101"
       r="300"
       fx="221.44487"
       fy="226.33101"
       id="radialGradient3163"
       xlink:href="#linearGradient2893"
       gradientUnits="userSpaceOnUse"
       gradientTransform="matrix(1.353218,0,0,1.348928,-77.62935,-85.74693)" />
    <radialGradient
       cx="221.44487"
       cy="226.33101"
       r="300"
       fx="221.44487"
       fy="226.33101"
       id="radialGradient3400"
       xlink:href="#linearGradient2893"
       gradientUnits="userSpaceOnUse"
       gradientTransform="matrix(1.353218,0,0,1.348928,-77.62935,-85.74693)" />
    <linearGradient
       id="linearGradient3390">
      <stop
         style="stop-color:#ffffff;stop-opacity:0.3137255"
         offset="0"
         id="stop3392" />
      <stop
         style="stop-color:#ffffff;stop-opacity:0.25098041"
         offset="0.19"
         id="stop3394" />
      <stop
         style="stop-color:#6b6b6b;stop-opacity:0.1254902"
         offset="0.60000002"
         id="stop3396" />
      <stop
         style="stop-color:#000000;stop-opacity:0.1254902"
         offset="1"
         id="stop3398" />
    </linearGradient>
  </defs>
  <path
     id="path2855"
     style="fill:#5ab532;fill-opacity:1;fill-rule:evenodd;stroke:none;stroke-width:1px;stroke-linecap:butt;stroke-linejoin:miter;stroke-opacity:1"
     d="M 299.99999,658.5 C 299.99999,658.5 598.5,546.17969 598.5,260.72817 C 598.5,-24.723354 598.5,2.1764765 598.5,2.1764765 L 1.49999,2.1764765 L 1.49999,260.72817 C 1.49999,546.17969 299.99999,658.5 299.99999,658.5 z " />
  <g
     transform="matrix(0.616905,0,0,0.616905,-348.8843,1.004686)"
     id="g1936">
    <path
       style="fill:white"
       d="M 1125.8655,637.05291 C 1110.1649,625.785 1088.9737,608.09768 1085.8733,603.67321 C 1084.2275,601.32466 1079.7047,595.57812 1075.8225,590.90312 C 1062.8491,575.2803 1044.8755,550.55475 1035.4782,535.40312 C 1029.5406,525.82979 1023.7674,517.93085 1019.5202,513.56945 C 1011.8423,505.68506 998.17872,495.81959 987.36552,490.35294 C 981.01272,487.14124 978.87132,486.55689 973.36552,486.53256 C 967.86932,486.50828 964.82182,485.51328 958.71492,488.56213 C 950.82112,492.50309 935.04862,505.3483 931.86552,508.90065 C 919.50622,519.18948 907.79562,530.60605 896.42902,542.09178 C 879.85112,559.07104 876.57462,561.91695 863.92902,570.32062 C 846.53282,581.88124 837.45282,586.48218 825.86552,589.60776 C 820.91552,590.94298 810.79052,593.99412 803.36552,596.38807 C 795.94052,598.78202 787.32792,601.46968 784.22642,602.36064 C 780.00562,603.57314 774.67222,606.84458 763.02172,615.36754 C 754.46072,621.63037 744.62332,628.34321 741.16092,630.28496 C 737.69842,632.22672 730.59052,637.33521 725.36552,641.63716 C 713.77902,651.1768 709.06082,653.84472 706.60052,652.24784 C 703.99842,650.55885 704.80372,646.30397 708.62212,641.56708 C 713.30012,635.76368 722.91132,619.49878 732.38242,599.90312 C 746.98072,581.33948 735.19072,564.12155 737.49252,544.95006 C 743.26632,519.77924 757.82692,499.75176 779.26832,485.51406 C 787.99842,480.93768 814.67272,458.76566 821.36552,450.52229 C 837.52082,431.28384 841.96982,405.06539 826.90732,384.23284 C 822.03722,376.0765 815.98552,365.88958 813.45902,361.59526 C 809.90832,355.55995 804.55202,349.43035 789.86512,334.59526 C 774.03812,318.60854 761.32772,304.41668 742.30372,281.49044 C 735.54482,273.34525 721.39992,244.85779 712.85172,222.17483 C 704.29062,195.26594 700.34662,173.59943 700.02192,151.81794 C 699.72602,131.96147 702.43792,112.00945 707.40192,87.903121 C 708.01992,83.228121 710.30512,74.003121 712.48042,67.403121 C 717.31182,52.743491 734.77422,17.225551 737.58952,16.332031 C 749.29742,19.827061 769.87502,47.722361 777.92702,57.785511 C 780.09322,61.295831 786.72612,70.070831 792.66682,77.285511 C 798.60752,84.500201 807.80532,97.378121 813.10632,105.90312 C 826.79532,125.28504 839.04082,144.55273 848.06092,166.55229 L 854.50752,181.70146 L 858.87222,182.8005 C 861.27292,183.40498 869.56172,187.05035 877.29202,190.90133 C 885.02232,194.75232 891.72942,197.90312 892.19662,197.90312 C 893.61972,197.90312 937.25092,222.65008 942.21902,226.27506 C 944.77462,228.13972 951.14052,231.80369 956.36552,234.41721 C 965.90672,239.18964 982.26152,251.4267 1010.1132,274.63258 C 1021.1691,283.84428 1022.5635,284.72113 1024.1281,283.44578 C 1036.2671,273.55072 1043.4121,267.29908 1057.3655,254.36403 C 1096.4391,216.65255 1138.4409,178.69698 1175.3263,138.62572 C 1191.8497,122.52728 1206.2196,104.9559 1219.9102,86.392631 C 1223.2089,81.861721 1226.7623,80.242331 1229.8177,81.877541 C 1242.4729,93.134831 1257.0332,102.54668 1267.5702,116.90312 C 1268.8775,119.37812 1271.1662,123.19508 1272.6563,125.38525 C 1274.1083,129.58883 1279.8989,126.59172 1284.517,132.03755 C 1285.8087,133.74216 1288.0099,136.54676 1289.4087,138.26998 C 1290.8074,139.99321 1295.0813,145.67812 1298.9061,150.90312 C 1302.731,156.12812 1310.9149,165.71995 1317.0925,172.21829 C 1327.044,182.68648 1335.6385,194.15315 1341.5906,204.90312 C 1342.6565,206.82812 1347.9345,215.58862 1353.3195,224.37089 C 1361.5462,237.78748 1362.9311,240.62993 1361.988,242.16167 C 1361.3706,243.16433 1355.2405,246.95957 1348.3655,250.59555 C 1314.0737,268.73144 1239.5701,307.13838 1204.9224,324.54108 C 1164.1312,345.02953 1154.7845,350.00927 1137.1196,360.66507 L 1126.3737,367.14722 L 1133.6196,375.15282 C 1159.3388,403.56852 1183.111,435.51471 1196.4564,459.5961 C 1200.4182,466.74485 1200.5085,466.82429 1211.1541,472.51331 C 1217.0454,475.66163 1227.7155,481.89164 1234.8655,486.35779 C 1242.0155,490.82393 1251.0155,496.22364 1254.8655,498.35713 C 1258.7155,500.49063 1263.2155,503.21972 1264.8655,504.42178 C 1266.5155,505.62385 1268.6131,506.86947 1269.5269,507.18983 C 1271.853,508.00538 1291.9933,521.43134 1299.3931,527.09927 C 1301.3291,528.58215 1307.1774,532.13771 1312.3893,535.00051 C 1317.6012,537.86332 1323.2155,541.26934 1324.8655,542.56944 C 1326.5155,543.86955 1328.3361,545.30834 1328.9112,545.76675 C 1329.4863,546.22517 1330.4334,546.78089 1331.0157,547.00168 C 1331.5981,547.22247 1335.1776,550.15411 1338.9701,553.51644 C 1342.7626,556.87877 1349.9155,563.16056 1354.8655,567.47598 C 1365.4866,576.73542 1365.7937,577.0537 1382.7823,596.40312 C 1399.4459,615.38232 1400.7969,617.24114 1402.6725,623.76855 C 1405.1772,632.48572 1403.1902,633.8749 1394.5088,629.47574 C 1390.6535,627.52208 1387.1082,626.83904 1376.3422,625.97574 C 1359.2763,624.60727 1337.4336,624.60007 1329.7992,625.96041 C 1316.4196,628.34445 1301.4517,632.37809 1294.8655,635.37457 C 1278.4148,640.55069 1263.6713,647.45971 1247.8627,653.63642 C 1239.7396,656.02717 1236.0018,658.9239 1213.6155,659.66889 C 1181.9429,661.78079 1152.7442,653.73716 1125.8655,637.05291 z "
       id="path1965"
       sodipodi:nodetypes="csssssssccssssssssscccccssscscsccsccccsssssscccccccsssssssscccsssssssssssssssssscccc" />
    <path
       sodipodi:nodetypes="cccccccsssssscccsssccssccssccccsccccsccccssssssssssssssssssscccssscccssssssssssccccccsssssssssssssssccscccssssssscccssssccssssssccccsssccsssssccssssssccsccsssssccsssssssssssssssssccssssssscccccccsssssssssssssssssssssssssccssssscccsssssccssssssssssscccsssssssssssssssssssssssssssssssssssssssssssssssssscccsssssssssssssssssssssssssscccssssscccccccssscccsssssssssssssssssccccccccccccccccsssssssccssssssssscccccssscscsccsccccsssssscccccccsssssssscccsssssssssssssssssscccccssssssscccsccscccccccccssssssccsssssccsssssssc"
       id="path1933"
       d="M 1232.0756,652.55428 C 1259.2216,644.30795 1276.364,637.6437 1296.5265,626.80008 C 1304.9491,623.15427 1314.3204,622.00084 1323.3655,620.81954 C 1346.6309,616.45746 1369.446,617.08578 1392.4306,621.90312 C 1394.2427,621.90312 1393.3339,618.89986 1390.6155,615.90474 L 1387.8655,612.87481 L 1379.6174,614.45247 C 1369.5205,616.38377 1365.0166,616.11344 1364.5299,613.5469 C 1363.9679,610.58309 1365.71,609.73827 1372.3181,609.76988 C 1379.1688,609.80264 1383.3734,608.62424 1383.3505,606.67787 C 1383.3423,605.97676 1380.978,602.86329 1378.0965,599.75906 C 1372.9721,594.23834 1372.709,594.0991 1366.0601,593.38706 C 1357.6785,592.48947 1352.0661,593.19256 1341.8122,596.4247 C 1324.1685,601.98616 1324.6334,601.95647 1325.7645,597.44969 C 1331.0694,592.23323 1343.0445,590.00749 1350.5146,589.03848 C 1354.8688,588.91364 1358.9164,587.26252 1363.2353,588.05066 C 1365.3963,588.85005 1365.5345,588.71241 1364.9418,586.35116 C 1364.3539,584.00866 1361.3119,580.79514 1354.9306,575.77563 C 1353.0345,574.28419 1350.8523,573.90425 1344.2078,573.9087 C 1339.6195,573.91176 1334.2905,574.30699 1332.3655,574.78697 C 1325.0202,575.9931 1318.0515,578.63548 1310.8655,580.40738 C 1306.228,581.1995 1295.3632,584.76195 1293.7917,586.00567 C 1292.4784,587.04514 1290.3655,585.12525 1290.3655,582.89237 C 1290.3655,581.19592 1291.1284,580.92367 1314.1752,574.39483 C 1323.614,571.31524 1333.5386,569.81316 1343.3655,568.53777 C 1346.0218,568.29933 1344.9811,566.26164 1339.8655,561.6843 C 1332.1473,554.77824 1331.8457,554.69299 1317.5566,555.37897 C 1303.0789,556.074 1303.6209,555.99596 1289.3655,559.43848 C 1282.1037,558.93939 1274.5812,566.16189 1267.8123,564.85892 C 1265.1865,561.70097 1267.1404,560.04003 1270.2769,558.95054 C 1289.0627,550.17676 1322.8043,552.51656 1321.8797,550.26211 C 1323.8368,548.82422 1323.8293,548.77485 1321.3655,546.85102 C 1318.1535,544.34294 1299.7306,534.4505 1298.8357,534.4505 C 1281.9891,538.30184 1264.8844,536.54196 1248.2122,545.27982 C 1244.9108,546.698 1244.5013,546.6994 1243.9622,545.29437 C 1243.8931,532.55643 1284.8937,533.94224 1294.1276,530.54236 C 1294.1276,529.65854 1280.1542,519.83692 1276.3655,517.88903 C 1274.9905,517.18211 1271.4742,515.96217 1271.1992,515.55633 C 1270.9829,514.30162 1247.2866,522.17686 1235.9713,528.42482 C 1234.2543,529.7813 1229.0734,528.69207 1232.5593,526.41289 C 1241.7232,519.01035 1267.5606,510.94498 1266.9836,512.40057 C 1264.0559,510.92067 1261.9046,509.43357 1257.6552,506.11866 C 1252.1535,501.82684 1246.8039,499.64984 1243.5119,500.3631 C 1242.0564,500.67846 1237.9405,501.15815 1234.3655,501.42908 C 1221.1614,502.42974 1206.1867,505.48607 1201.7964,508.07642 C 1197.7512,510.46311 1194.0901,509.77233 1194.5572,506.71053 C 1195.1298,502.95752 1209.8254,499.04759 1229.6089,497.38462 C 1233.8677,497.02663 1237.5885,496.3514 1237.8773,495.88411 C 1238.332,495.14836 1230.9334,489.50129 1225.3976,486.35892 C 1221.2269,483.99139 1192.2758,486.41913 1188.2688,489.47242 C 1185.2951,491.7384 1174.2128,496.02096 1172.1025,495.71963 C 1166.9584,494.98509 1169.8133,488.90792 1175.3067,488.89893 C 1176.714,488.89663 1180.0529,487.78501 1182.7263,486.42866 C 1185.3997,485.07231 1191.6997,483.25015 1196.7263,482.3794 C 1209.7567,480.12216 1210.3655,479.96823 1210.3655,478.93086 C 1210.3655,478.41708 1208.3986,477.12664 1205.9946,476.06323 C 1203.5906,474.99982 1201.3401,473.67093 1200.9935,473.11015 C 1199.8173,471.20709 1180.8872,462.72556 1176.9317,462.32942 C 1172.5576,461.89135 1170.8397,460.71576 1171.6163,458.69192 C 1172.2289,457.09559 1177.7048,456.49303 1180.1471,457.7532 C 1181.0922,458.24087 1183.5353,458.94116 1185.5761,459.3094 L 1189.2866,459.97894 L 1187.1855,455.22903 C 1186.0299,452.61658 1184.5068,449.90158 1183.801,449.1957 C 1183.0951,448.48983 1181.0208,445.38451 1179.1915,442.295 C 1177.3622,439.20549 1174.9655,435.16828 1173.8655,433.32343 C 1172.7655,431.47857 1170.3581,428.15072 1168.5157,425.9282 L 1165.1659,421.88724 L 1163.2021,424.38377 C 1160.7199,427.53941 1150.5644,432.2968 1138.5711,435.92235 C 1133.4591,437.46768 1128.6464,439.25508 1127.8761,439.89434 C 1125.528,441.84313 1121.8655,440.74009 1121.8655,438.08409 C 1121.8655,435.5592 1126.0273,433.70549 1139.3655,430.28936 C 1149.8981,427.59178 1161.3655,421.18666 1161.3655,418.00122 C 1161.3655,416.64261 1155.9998,408.78715 1153.5696,406.58777 C 1151.6754,404.87354 1151.4525,404.88906 1147.7328,406.99423 C 1135.1521,414.11438 1130.7933,416.04598 1120.9503,418.86283 C 1112.3133,421.33459 1109.8611,421.71695 1109.2016,420.69483 C 1107.7874,418.5034 1108.7661,416.41941 1111.3757,416.06491 C 1119.1123,415.01398 1140.3797,406.41824 1146.3089,401.94582 L 1148.6681,400.16632 L 1145.7668,396.35191 C 1144.1711,394.25399 1140.5104,390.1022 1137.6318,387.12572 L 1132.3981,381.71393 L 1128.1318,384.15461 C 1118.9991,389.37929 1101.9773,397.46049 1098.0049,398.45749 C 1096.0967,398.93643 1095.4082,398.61305 1094.8953,396.99681 C 1094.1275,394.57773 1094.9189,392.90312 1096.83,392.90312 C 1097.5706,392.90312 1099.9065,392.04526 1102.021,390.99675 C 1104.1355,389.94825 1107.6655,388.35524 1109.8655,387.45673 C 1114.5141,385.55819 1125.2938,380.0409 1127.1155,378.62783 C 1129.2036,377.00818 1128.492,375.56109 1123.8091,371.90312 C 1121.3447,369.97812 1117.6492,366.0599 1115.597,363.19597 C 1113.5447,360.33204 1111.1905,357.74113 1110.3655,357.4384 C 1109.5405,357.13566 1106.9683,355.17352 1104.6495,353.07808 C 1102.3307,350.98264 1097.9707,347.49855 1094.9604,345.33565 C 1089.1141,341.13494 1088.0935,339.7757 1089.0039,337.40312 C 1089.8428,335.2169 1092.5162,335.56315 1096.289,338.34669 C 1099.7852,340.92605 1115.4489,355.00561 1118.6022,358.40312 C 1119.6231,359.50312 1121.1912,361.19062 1122.0869,362.15312 C 1124.2282,364.45408 1125.3655,364.36736 1125.3655,361.90312 C 1143.5228,347.86474 1164.7419,338.89825 1185.3655,329.22294 C 1190.5905,326.7709 1195.9905,324.16702 1197.3655,323.43654 C 1198.7405,322.70606 1206.8794,318.53445 1215.452,314.16629 C 1233.6839,303.17778 1253.2112,294.72787 1271.8655,284.53406 C 1285.0835,275.58797 1300.6594,270.97979 1314.1053,262.57799 C 1322.5391,257.18213 1338.1016,248.77768 1351.3655,242.45581 C 1354.7952,240.82115 1354.3302,236.50839 1349.8072,228.0035 C 1344.8582,218.69739 1342.9285,216.55542 1340.6705,217.86179 C 1339.6778,218.43617 1335.2655,220.42657 1330.8655,222.28489 C 1326.4655,224.1432 1319.9405,227.31638 1316.3655,229.33639 C 1312.7905,231.3564 1306.1528,234.76479 1301.615,236.91059 C 1297.0772,239.05638 1287.6272,244.28397 1280.615,248.52744 C 1265.5466,257.64618 1251.9873,264.90312 1250.0179,264.90312 C 1241.7333,270.26331 1232.5283,274.12686 1224.3875,279.70393 C 1216.3912,284.82733 1208.116,289.25006 1199.8655,293.90312 C 1198.6535,295.86425 1196.3655,294.9205 1196.3655,292.45942 C 1196.3655,290.37759 1197.7353,289.3302 1205.6155,285.38638 C 1210.703,282.84024 1215.5405,280.19221 1216.3655,279.50186 C 1218.0895,278.05928 1222.7244,275.35731 1233.3655,269.59149 C 1237.4905,267.35639 1243.2383,264.01676 1246.1383,262.17009 C 1252.8185,257.76431 1260.4239,255.00939 1267.2074,250.82222 C 1271.0318,247.82831 1283.5509,240.85966 1301.3655,231.80841 C 1309.8905,227.47703 1320.5109,221.96703 1324.9664,219.56398 C 1329.4219,217.16092 1334.2787,214.89075 1335.7592,214.51916 C 1337.2398,214.14756 1338.6895,213.22249 1338.9807,212.46345 C 1339.4818,211.15784 1333.8358,201.24699 1328.5499,194.15312 C 1325.8004,190.46324 1324.5779,190.23117 1320.0659,192.54257 C 1314.1836,195.5559 1276.8701,219.09443 1276.5322,220.005 C 1264.0515,227.5836 1251.3282,234.78091 1238.4303,241.66215 C 1233.105,244.18712 1228.4694,247.89318 1223.1735,250.45386 C 1212.5234,254.137 1204.8705,263.2479 1194.8648,267.90312 C 1193.0901,267.90312 1192.2019,266.45365 1192.9283,264.74336 C 1193.5244,263.34026 1204.6896,256.04167 1222.2377,245.58423 C 1227.9425,242.18462 1233.7925,238.64607 1235.2377,237.72078 C 1236.683,236.79549 1241.8161,234.00539 1246.6445,231.52056 C 1252.5209,227.55521 1259.2596,224.85823 1265.156,221.0659 C 1270.6411,217.34669 1285.1031,208.02672 1293.3655,202.88649 C 1313.5935,190.3022 1316.9601,188.26875 1318.6155,187.63541 C 1319.578,187.26717 1320.3655,186.26033 1320.3655,185.39798 C 1320.3655,183.68169 1302.5661,163.34125 1301.2058,163.50312 C 1300.7437,163.55812 1299.7754,163.67062 1299.0541,163.75312 C 1298.3328,163.83562 1296.6653,164.91562 1295.3485,166.15312 C 1279.023,174.43055 1253.8126,197.91452 1236.0055,204.90312 C 1235.1066,204.90312 1231.6991,206.81562 1228.4333,209.15312 C 1215.6052,218.33472 1210.0959,222.06833 1208.515,222.65168 C 1207.6078,222.98645 1205.0047,224.64248 1202.7303,226.33174 C 1200.4559,228.021 1197.5781,230.07812 1196.3353,230.90312 C 1195.0924,231.72812 1190.2348,235.23302 1185.5405,238.69178 C 1177.1247,244.89262 1173.8655,246.00539 1173.8655,242.67793 C 1173.8655,241.24426 1180.4037,236.16138 1195.7313,225.67907 C 1201.2938,221.47884 1207.3473,218.1809 1213.1191,214.25433 C 1218.4379,210.59749 1225.0566,206.59138 1227.8275,205.35185 C 1230.5984,204.11233 1235.9905,201.03183 1239.81,198.5063 C 1248.7702,193.35708 1257.3099,187.2357 1265.7313,181.15312 C 1269.2827,178.54062 1275.4831,174.37812 1279.51,171.90312 C 1283.5369,169.42812 1288.3955,165.94062 1290.3069,164.15312 C 1292.2183,162.36562 1294.0903,160.90312 1294.4669,160.90312 C 1294.8434,160.90312 1295.4097,160.23042 1295.7252,159.40823 C 1296.7931,156.62537 1292.6459,149.44066 1284.8713,140.60437 C 1281.875,137.19897 1279.3441,134.15891 1278.1779,132.59579 C 1275.0194,131.13863 1273.5914,132.79609 1271.4785,134.94069 C 1266.694,139.70938 1258.4711,147.04543 1252.469,151.68532 C 1248.401,154.83011 1242.101,160.05283 1238.469,163.29136 C 1234.8371,166.52989 1228.0405,172.1415 1223.3655,175.76161 C 1218.6905,179.38173 1209.5157,186.85702 1202.9771,192.37338 C 1196.4385,197.88974 1189.6885,203.5212 1187.9771,204.88774 C 1186.2657,206.25428 1180.4591,211.09178 1175.0736,215.63774 C 1169.688,220.1837 1164.877,223.90312 1164.3826,223.90312 C 1160.4466,223.90312 1166.6379,216.25787 1178.4505,206.53153 C 1179.8722,205.36091 1189.219,197.54062 1199.2212,189.15312 C 1209.2234,180.76562 1217.7352,173.89783 1218.1363,173.89137 C 1218.5374,173.8849 1222.7347,170.6224 1227.4636,166.64137 C 1240.7999,155.41437 1248.4653,149.01326 1253.3259,145.04482 C 1255.7791,143.04188 1260.1572,138.92812 1263.0549,135.90312 C 1268.0682,130.66959 1269.4563,127.69529 1267.461,126.46211 C 1266.9635,126.15463 1265.1484,123.40816 1263.4274,120.35884 C 1261.7065,117.30952 1259.6213,114.55477 1258.7937,114.23717 C 1257.8386,113.87067 1255.0124,115.80472 1251.0573,119.53142 C 1236.7237,133.03723 1218.8358,148.39272 1191.254,170.86841 C 1179.3917,176.94836 1164.1082,198.83267 1153.8528,202.89255 C 1150.1745,199.83988 1151.5918,198.20381 1174.8655,178.63538 C 1180.9155,173.54857 1187.4405,168.21471 1189.3655,166.78236 C 1191.2905,165.35001 1194.2758,162.85947 1195.9994,161.24784 C 1197.7231,159.6362 1200.6481,157.15607 1202.4994,155.73643 C 1205.548,153.39878 1214.0232,146.06731 1221.8655,138.98393 C 1223.5155,137.4936 1228.6905,132.95097 1233.3655,128.88918 C 1245.2415,118.57096 1251.327,112.73111 1252.5801,110.45031 C 1253.5186,108.74203 1252.5393,107.45947 1244.7592,100.2077 C 1241.71,97.985581 1229.4401,86.016751 1227.5645,86.098001 C 1225.7146,86.317901 1224.7888,87.190261 1224.2499,89.221221 C 1212.2591,107.80921 1196.44,124.96067 1180.8655,140.73101 C 1177.5655,143.85067 1166.1955,155.26787 1155.5988,166.10256 C 1130.8933,188.6065 1109.0118,214.04186 1084.4914,236.68283 C 1065.1749,251.65467 1049.4945,270.60174 1031.1155,286.55973 C 1028.422,288.26094 1027.3655,289.629 1027.3655,291.41566 C 1027.3655,293.50641 1026.8926,293.90312 1024.4,293.90312 C 1022.061,293.90312 1019.9518,295.38586 1014.4163,300.92135 C 1010.5562,304.78138 1006.7042,309.28138 1005.8561,310.92135 C 1003.8726,314.757 1000.657,314.91273 999.72969,311.21806 C 999.12469,308.80755 999.99189,307.63865 1008.2107,299.78683 C 1013.2458,294.97643 1017.3653,290.67221 1017.365,290.22189 C 1017.3641,288.91543 1004.6466,277.90312 1003.1387,277.90312 C 1002.3875,277.90312 999.31869,279.4666 996.31919,281.37752 C 993.31969,283.28845 990.48629,284.86345 990.02289,284.87752 C 988.94319,284.91032 980.21749,291.43328 975.60849,295.65312 C 971.55049,299.36847 971.08969,299.48441 968.93699,297.33169 C 966.81819,295.21298 966.83509,295.16539 971.11549,291.19057 C 974.39329,288.14681 980.07569,284.46486 994.13249,276.27648 C 996.14039,275.10682 997.93719,273.68822 998.12519,273.12403 C 998.31329,272.55983 995.74059,270.00017 992.40809,267.43589 C 988.13779,264.14998 985.77629,262.95535 984.40899,263.38932 C 980.21979,264.71892 962.01989,275.30829 952.13429,282.16791 C 950.73569,283.13842 950.07609,283.04225 948.70109,281.6673 C 947.09859,280.06474 947.10609,279.84732 948.82929,277.94314 C 949.83589,276.83092 954.30579,273.80099 958.76249,271.20998 C 963.21909,268.61897 967.09049,266.23552 967.36549,265.91342 C 967.64049,265.59133 970.45199,263.99474 973.61309,262.36546 C 976.77429,260.73617 979.36179,258.9289 979.36309,258.34929 C 979.36649,256.85251 973.43199,251.41198 969.80639,249.58809 C 967.81619,248.58693 966.24379,248.36774 965.30639,248.96083 C 959.31259,249.87128 953.83979,252.15837 948.18839,254.40241 C 939.27282,257.43214 931.78202,261.46037 926.58072,266.02218 C 922.84302,269.30038 918.33652,269.92455 918.41532,267.15312 C 918.52412,263.32622 934.07932,253.24721 945.86549,249.36673 C 954.56609,246.50213 960.45209,243.66306 960.07229,242.51407 C 959.87039,241.90305 958.61629,240.87724 957.28529,240.23449 C 955.95439,239.59175 951.14809,237.24467 946.60459,235.01876 L 938.34362,230.97165 L 929.10462,236.07192 C 924.02312,238.87708 917.99902,242.15218 915.71772,243.34993 C 911.34552,245.64543 906.97932,248.97014 900.24162,255.1342 C 896.90842,258.18368 895.81642,258.67963 894.26442,257.84902 C 890.72842,255.95656 892.13552,253.34499 899.61552,247.9179 C 903.60302,245.02478 907.99052,241.82998 909.36552,240.81833 C 910.74052,239.80668 915.12802,237.30708 919.11552,235.26366 C 923.04912,233.18492 926.62152,230.70199 930.37042,228.39721 C 931.40822,227.14681 931.14182,226.51056 928.80032,224.64721 C 922.14842,219.35359 914.07712,215.94268 912.86062,217.91107 C 912.00422,219.29681 902.89922,225.02158 897.19142,227.76304 C 892.40552,230.06176 885.21182,235.39009 874.43582,244.618 C 867.87812,250.23363 865.36552,250.58258 865.36552,245.87769 C 865.36552,243.72599 866.21432,242.54168 868.98242,240.83089 C 870.97172,239.60145 874.50652,236.97725 876.83762,234.99933 C 879.16872,233.02141 882.09622,230.72812 883.34322,229.90312 C 884.59032,229.07812 886.12912,227.90983 886.76282,227.30691 C 887.39662,226.704 889.64922,225.38783 891.76862,224.3821 C 894.77872,222.95372 907.64522,214.84478 909.16562,213.41792 C 909.83432,212.7903 898.54892,206.32142 894.18052,204.82837 L 889.49562,203.22713 L 880.15712,208.81512 C 870.32192,214.70029 869.62892,215.16475 859.47422,222.67574 C 849.73582,229.87886 848.21082,230.78097 846.73172,230.2134 C 845.98032,229.92506 845.37132,228.72479 845.37832,227.54613 C 845.38752,226.02279 847.32942,224.10191 852.09432,220.90312 C 855.78102,218.42812 859.26282,216.22079 859.83152,215.99794 C 860.40022,215.77509 862.66552,214.14706 864.86552,212.3801 C 867.06552,210.61314 871.91402,207.22836 875.63992,204.85836 C 879.36582,202.48835 882.26462,200.10043 882.08182,199.55187 C 881.89892,199.0033 879.52552,197.79202 876.80742,196.86014 C 874.08942,195.92825 870.22472,194.18978 868.21922,192.99686 C 864.67272,190.88727 864.49392,190.87684 861.68572,192.61552 C 860.09782,193.5987 857.27032,195.30312 855.40252,196.40312 C 853.53462,197.50312 850.17472,200.00139 847.93602,201.95484 C 836.71332,211.74725 832.35982,213.82753 831.57862,209.77097 C 831.29492,208.2981 839.31192,201.01048 847.38432,195.40312 C 851.03872,192.86473 851.47642,191.76028 850.00312,188.79639 C 848.63812,186.05045 842.09862,183.9152 833.49352,183.40573 C 827.07302,183.0256 824.61102,181.18146 826.30312,178.01978 C 827.18742,176.36734 828.36022,175.91089 831.65072,175.93856 C 833.96882,175.95804 836.99052,176.6171 838.36552,177.40312 C 841.78832,179.35975 845.36552,179.30922 845.36552,177.30425 C 845.36552,176.42487 844.73412,174.28737 843.96232,172.55425 C 838.61272,160.5407 837.48952,157.74406 836.85652,154.86235 C 836.19532,151.85192 831.49732,143.97637 830.36552,143.98112 C 830.09052,143.98227 827.23672,147.82255 824.02372,152.51506 C 818.37502,160.76488 818.11852,160.98957 816.26522,159.31238 C 814.59812,157.80368 814.52312,157.30609 815.68902,155.49049 C 820.16542,148.51927 826.36552,137.80151 826.36552,137.03445 C 826.36552,134.29041 818.61012,123.63389 817.23272,124.48519 C 816.34952,125.03104 803.28462,144.39823 802.45052,146.39813 C 802.22222,146.94538 800.46792,149.62334 798.55202,152.34914 C 796.63612,155.07494 793.58492,160.56071 791.77162,164.53973 C 787.95872,172.90656 785.55212,174.87175 782.81822,171.85083 C 781.08432,169.93493 781.08882,169.76397 782.94232,167.13301 C 784.00012,165.63157 786.21552,161.78105 787.86552,158.5763 C 789.51552,155.37156 791.87802,151.63587 793.11552,150.27478 C 794.35302,148.91369 795.36552,147.44193 795.36552,147.00419 C 795.36552,146.56645 797.84052,142.26609 800.86552,137.44782 C 803.89052,132.62956 806.36552,128.51479 806.36552,128.30388 C 806.36552,128.09298 807.94052,125.85706 809.86552,123.33518 C 811.79052,120.81329 813.36552,118.08988 813.36552,117.28315 C 813.36552,115.07923 802.04202,98.856461 800.70792,99.149161 C 799.45372,99.424341 783.36552,118.659 783.36552,119.88337 C 783.36552,120.29298 782.04162,122.29406 780.42342,124.33023 C 778.80532,126.36639 776.48102,130.14077 775.25842,132.71773 C 774.03572,135.29469 772.26112,138.52812 771.31482,139.90312 C 770.36852,141.27812 768.38262,145.32812 766.90162,148.90312 C 764.21732,155.383 762.18482,157.90312 759.64302,157.90312 C 753.61072,157.90312 761.79952,141.53047 784.32912,108.54587 C 787.42872,104.00774 794.91232,94.369761 795.86332,93.690971 C 797.22052,92.722311 793.99852,86.909041 789.90612,82.942481 L 786.66352,79.799656 L 783.59662,83.292651 C 781.90992,85.213791 779.33232,89.174571 777.86862,92.094381 C 776.40502,95.014191 774.63182,98.078131 773.92812,98.903131 C 773.22442,99.728131 772.19742,101.75359 771.64592,103.40417 C 771.09442,105.05475 769.51792,108.06334 768.14262,110.08992 C 766.76732,112.1165 764.15742,117.51603 762.34292,122.08887 C 758.37832,132.07972 757.79972,132.90312 754.74312,132.90312 C 752.94352,132.90312 752.36552,132.35566 752.36552,130.65104 C 752.36552,127.32886 773.91512,85.098901 778.08922,80.241136 C 782.05342,75.627666 782.00282,73.474906 777.78632,67.352706 C 772.36412,59.479806 771.58062,58.983066 769.26922,61.952416 C 768.21992,63.300306 766.18032,66.774336 764.73662,69.672496 C 763.29302,72.570646 761.65832,75.222176 761.10392,75.564796 C 759.96972,76.265786 752.62752,91.765211 749.81162,99.403131 C 747.85702,104.70462 746.86022,105.86317 744.23212,105.88781 C 742.08842,105.9079 741.24972,101.42394 742.97262,99.154311 C 743.70372,98.191161 744.31622,96.641401 744.33372,95.710391 C 744.37042,93.753931 753.47782,74.568016 754.60582,74.070746 C 755.02052,73.887946 757.01342,70.737946 759.03452,67.070746 C 761.05562,63.403556 763.53192,59.208656 764.53742,57.748756 C 765.54282,56.288856 766.36552,54.680956 766.36552,54.175656 C 766.36552,53.670346 764.11552,50.847716 761.36552,47.903126 C 758.61552,44.958536 756.36552,42.178936 756.36552,41.726226 C 756.36552,37.458996 748.70112,49.436726 739.80342,67.609226 C 736.78562,73.772586 733.91822,79.061546 733.43132,79.362476 C 730.21742,81.348791 726.98012,75.091416 729.67892,72.109316 C 730.53162,71.167046 733.27332,66.347676 735.77152,61.399606 C 738.26972,56.451546 742.54502,48.703006 745.27232,44.180626 L 750.23102,35.958136 L 746.29822,31.198956 C 744.13522,28.581416 742.36552,26.142186 742.36552,25.778446 C 742.36552,25.414706 741.63352,24.836196 740.73872,24.492866 C 738.71772,23.717296 736.09522,25.756336 736.78892,27.563996 C 737.07182,28.301246 736.04032,30.366646 734.49672,32.153786 C 731.14442,36.035046 722.98112,53.501066 718.00732,67.434286 C 714.23882,77.991156 711.94522,87.108411 710.34242,97.903131 C 705.43582,118.40399 703.23322,138.77377 704.84072,159.86301 C 707.47892,180.23743 710.78032,199.86863 717.38632,219.40312 C 720.17102,230.35212 725.76632,239.94096 730.90412,249.90312 C 736.21692,261.58815 745.67202,277.61414 748.89852,280.40312 C 753.79352,287.41171 759.65252,293.58548 765.36552,299.94038 C 781.46722,320.07174 802.13582,335.82298 817.79162,356.23882 C 824.21002,365.81022 834.70692,383.68506 837.84062,390.37933 C 841.29292,397.75434 842.73532,408.82563 841.98852,422.21828 C 841.45332,431.81716 841.32892,432.22481 836.34182,440.71828 C 833.53712,445.49494 829.35752,451.94927 827.05392,455.06123 C 813.04752,474.72363 790.40162,483.45389 772.35682,498.22651 C 757.73832,512.78527 745.75282,529.96294 743.63372,550.83892 C 743.14372,557.76499 744.73672,568.16003 746.78512,571.40312 C 747.47982,572.50312 748.33172,575.18528 748.67822,577.36347 C 749.22472,580.79978 748.65022,582.61141 744.33682,591.05477 C 741.60262,596.4068 739.36552,601.28036 739.36552,601.88492 C 739.36552,602.48947 738.38502,604.31035 737.18652,605.93131 C 735.98812,607.55228 735.25172,609.12261 735.55002,609.42094 C 735.84832,609.71928 737.16642,608.54557 738.47902,606.8127 C 739.79162,605.07984 742.77652,601.35378 745.11222,598.53258 C 747.44782,595.71138 750.82282,591.27827 752.61222,588.68124 C 756.58542,582.91443 758.30222,582.10671 760.58742,584.92889 C 762.17722,586.8922 762.19492,587.33237 760.79252,590.04427 C 759.94862,591.67625 756.37282,596.47462 752.84642,600.70731 C 746.69842,608.08651 739.36552,619.15193 739.36552,621.04995 C 739.36552,622.49604 744.92452,619.22345 750.26572,614.63297 C 752.97262,612.30655 756.82932,609.27812 758.83622,607.90312 C 760.84302,606.52812 763.02062,604.92787 763.67522,604.34701 C 766.45922,601.8768 778.90912,595.90312 781.27332,595.90312 C 783.62322,595.90312 802.32982,590.1684 803.77752,589.00417 C 807.64082,587.40963 811.88732,587.17322 815.86552,585.87351 C 818.84142,584.51018 826.24112,581.95015 831.56552,580.44191 C 839.51532,577.41449 847.21422,573.62545 854.36552,568.97615 C 866.35992,561.25533 877.54652,551.87189 887.55882,541.65312 C 903.99182,523.46353 919.53162,510.60753 934.97282,497.48419 C 942.74972,489.38769 953.38089,483.7661 963.88239,479.89841 C 973.52459,477.97505 984.44179,481.54569 993.05049,485.87974 C 999.04149,488.28061 1003.9986,491.97335 1008.8655,496.25173 C 1018.4457,501.96593 1024.6918,510.66094 1031.9004,518.92018 C 1038.3949,526.64388 1042.8304,535.92192 1048.1356,544.47931 C 1065.8358,567.31962 1081.6773,592.95378 1103.9174,611.78699 C 1108.883,616.21282 1114.2048,620.20807 1119.2619,624.52562 C 1136.8327,638.41391 1157.4999,647.45974 1179.3655,651.62239 C 1196.7738,655.34088 1214.551,655.73681 1232.0756,652.55428 z M 1125.8655,637.05291 C 1110.1649,625.785 1088.9737,608.09768 1085.8733,603.67321 C 1084.2275,601.32466 1079.7047,595.57812 1075.8225,590.90312 C 1062.8491,575.2803 1044.8755,550.55475 1035.4782,535.40312 C 1029.5406,525.82979 1023.7674,517.93085 1019.5202,513.56945 C 1011.8423,505.68506 998.17869,495.81959 987.36549,490.35294 C 981.01269,487.14124 978.87129,486.55689 973.36549,486.53256 C 967.86929,486.50828 964.82179,485.51328 958.71489,488.56213 C 950.82109,492.50309 935.04862,505.3483 931.86552,508.90065 C 919.50622,519.18948 907.79562,530.60605 896.42902,542.09178 C 879.85112,559.07104 876.57462,561.91695 863.92902,570.32062 C 846.53282,581.88124 837.45282,586.48218 825.86552,589.60776 C 820.91552,590.94298 810.79052,593.99412 803.36552,596.38807 C 795.94052,598.78202 787.32792,601.46968 784.22642,602.36064 C 780.00562,603.57314 774.67222,606.84458 763.02172,615.36754 C 754.46072,621.63037 744.62332,628.34321 741.16092,630.28496 C 737.69842,632.22672 730.59052,637.33521 725.36552,641.63716 C 713.77902,651.1768 709.06082,653.84472 706.60052,652.24784 C 703.99842,650.55885 704.80372,646.30397 708.62212,641.56708 C 713.30012,635.76368 722.91132,619.49878 732.38242,599.90312 C 746.98072,581.33948 735.19072,564.12155 737.49252,544.95006 C 743.26632,519.77924 757.82692,499.75176 779.26832,485.51406 C 787.99842,480.93768 814.67272,458.76566 821.36552,450.52229 C 837.52082,431.28384 841.96982,405.06539 826.90732,384.23284 C 822.03722,376.0765 815.98552,365.88958 813.45902,361.59526 C 809.90832,355.55995 804.55202,349.43035 789.86512,334.59526 C 774.03812,318.60854 761.32772,304.41668 742.30372,281.49044 C 735.54482,273.34525 721.39992,244.85779 712.85172,222.17483 C 704.29062,195.26594 700.34662,173.59943 700.02192,151.81794 C 699.72602,131.96147 702.43792,112.00945 707.40192,87.903131 C 708.01992,83.228131 710.30512,74.003126 712.48042,67.403126 C 717.31182,52.743496 734.77422,17.225556 737.58952,16.332036 C 749.29742,19.827066 769.87502,47.722366 777.92702,57.785516 C 780.09322,61.295836 786.72612,70.070836 792.66682,77.285516 C 798.60752,84.500211 807.80532,97.378131 813.10632,105.90312 C 826.79532,125.28504 839.04082,144.55273 848.06092,166.55229 L 854.50752,181.70146 L 858.87222,182.8005 C 861.27292,183.40498 869.56172,187.05035 877.29202,190.90133 C 885.02232,194.75232 891.72942,197.90312 892.19662,197.90312 C 893.61972,197.90312 937.25092,222.65008 942.21902,226.27506 C 944.77462,228.13972 951.14049,231.80369 956.36549,234.41721 C 965.90669,239.18964 982.26149,251.4267 1010.1132,274.63258 C 1021.1691,283.84428 1022.5635,284.72113 1024.1281,283.44578 C 1036.2671,273.55072 1043.4121,267.29908 1057.3655,254.36403 C 1096.4391,216.65255 1138.4409,178.69698 1175.3263,138.62572 C 1191.8497,122.52728 1206.2196,104.9559 1219.9102,86.392641 C 1223.2089,81.861731 1226.7623,80.242336 1229.8177,81.877551 C 1242.4729,93.134841 1257.0332,102.54668 1267.5702,116.90312 C 1268.8775,119.37812 1271.1662,123.19508 1272.6563,125.38525 C 1274.1083,129.58883 1279.8989,126.59172 1284.517,132.03755 C 1285.8087,133.74216 1288.0099,136.54676 1289.4087,138.26998 C 1290.8074,139.99321 1295.0813,145.67812 1298.9061,150.90312 C 1302.731,156.12812 1310.9149,165.71995 1317.0925,172.21829 C 1327.044,182.68648 1335.6385,194.15315 1341.5906,204.90312 C 1342.6565,206.82812 1347.9345,215.58862 1353.3195,224.37089 C 1361.5462,237.78748 1362.9311,240.62993 1361.988,242.16167 C 1361.3706,243.16433 1355.2405,246.95957 1348.3655,250.59555 C 1314.0737,268.73144 1239.5701,307.13838 1204.9224,324.54108 C 1164.1312,345.02953 1154.7845,350.00927 1137.1196,360.66507 L 1126.3737,367.14722 L 1133.6196,375.15282 C 1159.3388,403.56852 1183.111,435.51471 1196.4564,459.5961 C 1200.4182,466.74485 1200.5085,466.82429 1211.1541,472.51331 C 1217.0454,475.66163 1227.7155,481.89164 1234.8655,486.35779 C 1242.0155,490.82393 1251.0155,496.22364 1254.8655,498.35713 C 1258.7155,500.49063 1263.2155,503.21972 1264.8655,504.42178 C 1266.5155,505.62385 1268.6131,506.86947 1269.5269,507.18983 C 1271.853,508.00538 1291.9933,521.43134 1299.3931,527.09927 C 1301.3291,528.58215 1307.1774,532.13771 1312.3893,535.00051 C 1317.6012,537.86332 1323.2155,541.26934 1324.8655,542.56944 C 1326.5155,543.86955 1328.3361,545.30834 1328.9112,545.76675 C 1329.4863,546.22517 1330.4334,546.78089 1331.0157,547.00168 C 1331.5981,547.22247 1335.1776,550.15411 1338.9701,553.51644 C 1342.7626,556.87877 1349.9155,563.16056 1354.8655,567.47598 C 1365.4866,576.73542 1365.7937,577.0537 1382.7823,596.40312 C 1399.4459,615.38232 1400.7969,617.24114 1402.6725,623.76855 C 1405.1772,632.48572 1403.1902,633.8749 1394.5088,629.47574 C 1390.6535,627.52208 1387.1082,626.83904 1376.3422,625.97574 C 1359.2763,624.60727 1337.4336,624.60007 1329.7992,625.96041 C 1316.4196,628.34445 1301.4517,632.37809 1294.8655,635.37457 C 1278.4148,640.55069 1263.6713,647.45971 1247.8627,653.63642 C 1239.7396,656.02717 1236.0018,658.9239 1213.6155,659.66889 C 1181.9429,661.78079 1152.7442,653.73716 1125.8655,637.05291 z M 781.36552,554.40312 C 779.99052,553.6171 778.09922,552.95804 777.16252,552.93856 C 773.73422,552.86722 770.18772,550.42969 767.31142,546.16781 C 764.88652,542.57488 764.36552,540.77211 764.36552,535.97511 C 764.36552,528.15674 766.30592,523.86361 771.03252,521.22462 C 776.22722,518.32421 779.86862,518.1395 786.28812,520.45078 C 797.53692,524.50076 804.66132,535.09292 801.77802,543.48004 C 800.17052,548.15586 795.51532,552.26346 789.43742,554.36907 C 784.16312,556.19624 784.49972,556.19482 781.36552,554.40312 z M 789.31032,528.38954 C 785.28322,525.95724 780.90372,525.02464 776.10712,526.97758 C 772.48422,529.03329 770.81182,532.14396 770.72552,535.41858 C 770.65062,538.26469 771.77382,541.23466 773.85622,543.74347 C 777.53492,548.53978 782.34802,548.67854 787.79252,547.09761 C 791.28702,545.89421 793.82342,543.60943 794.49542,540.24353 C 794.86172,538.40894 794.67422,536.25317 793.78602,533.77626 C 793.10462,531.11635 791.50592,529.80797 789.31032,528.38954 z M 775.93842,543.33319 C 772.01272,539.40746 773.22512,531.90312 777.78502,531.90312 C 781.79542,529.90711 783.98392,528.46529 787.80882,532.12563 C 788.66502,533.348 789.36552,535.54554 789.36552,537.00905 C 788.35692,542.28196 784.92172,543.80468 780.72432,544.14939 C 779.51542,545.124 777.64022,545.03503 775.93842,543.33319 z M 1132.3655,457.90312 C 1132.3655,455.61303 1132.8192,454.90312 1134.2826,454.90312 C 1135.337,454.90312 1138.3745,453.96462 1141.0326,452.81756 C 1153.8878,447.27014 1166.8467,442.92106 1168.7352,443.52045 C 1170.6936,444.14202 1170.6756,444.23962 1168.2128,446.35808 C 1166.81,447.56473 1162.783,449.73161 1159.2639,451.17337 C 1146.3818,456.45111 1134.5892,460.90312 1133.4915,460.90312 C 1132.8722,460.90312 1132.3655,459.55312 1132.3655,457.90312 z M 1077.7492,376.29579 C 1076.996,373.29453 1078.4619,371.94192 1082.4934,371.91843 C 1085.9071,371.89854 1090.552,369.87767 1097.3318,365.46272 C 1103.0256,361.75498 1105.7413,361.08413 1106.9752,363.0806 C 1108.5398,365.61221 1093.8796,374.96564 1086.0427,376.43586 C 1084.0081,376.81755 1082.0968,377.52883 1081.7955,378.01648 C 1080.6878,379.80869 1078.3851,378.82945 1077.7492,376.29579 z M 1068.7525,362.4693 C 1068.4038,361.56046 1068.2865,360.69123 1068.492,360.53768 C 1069.6596,359.66503 1080.4672,355.0016 1083.8655,353.90409 C 1086.0655,353.19358 1088.9387,351.77771 1090.2504,350.75769 C 1093.1493,348.50335 1096.2196,348.35939 1097.0182,350.44037 C 1097.9855,352.96107 1094.5464,355.68304 1087.4993,357.97429 C 1083.8507,359.16058 1079.9188,360.72213 1078.7617,361.44441 C 1077.6046,362.16669 1075.0219,363.06456 1073.0223,363.43969 C 1070.1469,363.97912 1069.2541,363.7762 1068.7525,362.4693 z "
       style="fill:black" />
  </g>
  <g
     id="g1942"
     transform="translate(0.249995,0)">
    <path
       id="rect3281"
       style="opacity:1;fill:white;fill-opacity:1;fill-rule:evenodd;stroke:none;stroke-width:3;stroke-linecap:round;stroke-linejoin:round;stroke-miterlimit:4;stroke-dasharray:none;stroke-dashoffset:0;stroke-opacity:1;display:inline"
       d="M 46.3125,440 C 129.63652,594.40952 300,658.5 300,658.5 C 300,658.5 470.36348,594.40952 553.6875,440 L 46.3125,440 z " />
    <path
       id="path3291"
       style="fill:white;fill-opacity:1;fill-rule:evenodd;stroke:black;stroke-width:2.5;stroke-linecap:butt;stroke-linejoin:miter;stroke-miterlimit:4;stroke-dasharray:none;stroke-opacity:1;display:inline"
       d="M 45,420 C 41.863799,420 39.269922,420.60337 37.03125,421.59375 C 41.9172,431.94953 47.227562,441.91995 52.84375,451.53125 C 63.650329,456.21172 66.201744,470 81.25,470 C 99.375,470 99.375,450 117.5,450 C 135.625,450 135.625,470 153.75,470 C 171.875,470 171.875,450 190,450 C 208.125,450 208.125,470 226.25,470 C 244.375,470 244.375,450 262.5,450 C 280.625,450 280.625,470 298.75,470 C 316.875,470 316.875,450 335,450 C 353.125,450 353.125,470 371.25,470 C 389.375,470 389.375,450 407.5,450 C 425.625,450 425.625,470 443.75,470 C 461.875,470 461.875,450 480,450 C 498.125,450 498.125,470 516.25,470 C 532.63657,470 534.20532,453.66713 547.75,450.53125 C 552.96236,441.55027 557.89069,432.25257 562.46875,422.625 C 559.79758,421.03057 556.61612,420 552.5,420 C 534.375,420 534.375,440 516.25,440 C 498.125,440 498.125,420 480,420 C 461.875,420 461.875,440 443.75,440 C 425.625,440 425.625,420 407.5,420 C 389.375,420 389.375,440 371.25,440 C 353.125,440 353.125,420 335,420 C 316.875,420 316.875,440 298.75,440 C 280.625,440 280.625,420 262.5,420 C 244.375,420 244.375,440 226.25,440 C 208.125,440 208.125,420 190,420 C 171.875,420 171.875,440 153.75,440 C 135.625,440 135.625,420 117.5,420 C 99.375,420 99.375,440 81.25,440 C 63.125,440 63.125,420 45,420 z M 117.5,480 C 100.99062,480 99.516021,496.57306 85.6875,499.53125 C 90.737341,505.912 95.921147,512.06699 101.1875,518.03125 C 105.19067,513.76431 109.62992,510 117.5,510 C 135.625,510 135.625,530 153.75,530 C 171.875,530 171.875,510 190,510 C 208.125,510 208.125,530 226.25,530 C 244.375,530 244.375,510 262.5,510 C 280.625,510 280.625,530 298.75,530 C 316.875,530 316.875,510 335,510 C 353.125,510 353.125,530 371.25,530 C 389.375,530 389.375,510 407.5,510 C 425.625,510 425.625,530 443.75,530 C 461.875,530 461.875,510 480,510 C 488.71795,510 493.22847,514.63455 497.59375,519.4375 C 503.18977,513.15107 508.67508,506.62881 514.03125,499.875 C 498.10064,498.30841 497.35034,480 480,480 C 461.875,480 461.875,500 443.75,500 C 425.625,500 425.625,480 407.5,480 C 389.375,480 389.375,500 371.25,500 C 353.125,500 353.125,480 335,480 C 316.875,480 316.875,500 298.75,500 C 280.625,500 280.625,480 262.5,480 C 244.375,480 244.375,500 226.25,500 C 208.125,500 208.125,480 190,480 C 171.875,480 171.875,500 153.75,500 C 135.625,500 135.625,480 117.5,480 z M 190,540 C 171.875,540 171.875,560 153.75,560 C 137.43859,560 135.81129,543.80401 122.4375,540.5625 C 138.0534,556.08141 154.08708,569.94271 169.84375,582.21875 C 175.1598,576.60436 179.5959,570 190,570 C 208.125,570 208.125,590 226.25,590 C 244.375,590 244.375,570 262.5,570 C 280.625,570 280.625,590 298.75,590 C 316.875,590 316.875,570 335,570 C 353.125,570 353.125,590 371.25,590 C 389.375,590 389.375,570 407.5,570 C 418.59947,570 422.91989,577.49804 428.75,583.3125 C 445.11653,570.64431 461.83326,556.26705 478.0625,540.09375 C 461.85172,541.46609 461.20446,560 443.75,560 C 425.625,560 425.625,540 407.5,540 C 389.375,540 389.375,560 371.25,560 C 353.125,560 353.125,540 335,540 C 316.875,540 316.875,560 298.75,560 C 280.625,560 280.625,540 262.5,540 C 244.375,540 244.375,560 226.25,560 C 208.125,560 208.125,540 190,540 z M 262.5,600 C 244.375,600 244.375,620 226.25,620 C 225.63783,620 225.04096,619.98159 224.46875,619.9375 C 233.4551,625.42244 241.93658,630.2898 249.78125,634.5625 C 252.99809,631.90625 256.87594,630 262.5,630 C 280.625,630 280.625,650 298.75,650 C 316.875,650 316.875,630 335,630 C 341.19159,630 345.28102,632.33302 348.6875,635.40625 C 357.22508,630.78963 366.54046,625.42859 376.46875,619.34375 C 374.90522,619.74948 373.18123,620 371.25,620 C 353.125,620 353.125,600 335,600 C 316.875,600 316.875,620 298.75,620 C 280.625,620 280.625,600 262.5,600 z M 405.84375,600.0625 C 396.09775,600.7556 391.90982,607.58465 386.5,613.0625 C 392.82437,609.01213 399.33574,604.6911 405.96875,600.0625 C 405.92846,600.06514 405.88385,600.05965 405.84375,600.0625 z M 194.6875,600.5 C 198.90465,603.43428 203.05706,606.26951 207.15625,608.96875 C 203.7794,605.27843 200.25941,601.76819 194.6875,600.5 z " />
    <g
       id="layer4">
      <path
         id="path3275"
         style="fill:none;fill-opacity:1;fill-rule:evenodd;stroke:black;stroke-width:2.5;stroke-linecap:round;stroke-linejoin:miter;stroke-miterlimit:4;stroke-dasharray:none;stroke-opacity:1;display:inline"
         d="M 512.5,453.75 C 494.375,453.75 494.375,433.75 476.25,433.75 M 440,453.75 C 421.875,453.75 421.875,433.75 403.75,433.75 M 367.5,453.75 C 349.375,453.75 349.375,433.75 331.25,433.75 M 295,453.75 C 276.875,453.75 276.875,433.75 258.75,433.75 M 222.5,453.75 C 204.375,453.75 204.375,433.75 186.25,433.75 M 150,453.75 C 131.875,453.75 131.875,433.75 113.75,433.75 M 77.5,453.75 C 62.265445,453.71119 57.687225,436.08676 43.599788,433.95427" />
      <path
         id="path3295"
         style="fill:none;fill-opacity:1;fill-rule:evenodd;stroke:black;stroke-width:2.5;stroke-linecap:round;stroke-linejoin:miter;stroke-miterlimit:4;stroke-dasharray:none;stroke-opacity:1;display:inline"
         d="M 515,483.75 C 496.875,483.75 496.875,463.75 478.75,463.75 M 442.5,483.75 C 424.375,483.75 424.375,463.75 406.25,463.75 M 370,483.75 C 351.875,483.75 351.875,463.75 333.75,463.75 M 297.5,483.75 C 279.375,483.75 279.375,463.75 261.25,463.75 M 225,483.75 C 206.875,483.75 206.875,463.75 188.75,463.75 M 152.5,483.75 C 134.375,483.75 134.375,463.75 116.25,463.75 M 79.999996,483.75 C 77.396037,483.75 75.16618,483.3372 73.202934,482.6302" />
      <path
         id="path3297"
         style="fill:none;fill-opacity:1;fill-rule:evenodd;stroke:black;stroke-width:2.5;stroke-linecap:round;stroke-linejoin:miter;stroke-miterlimit:4;stroke-dasharray:none;stroke-opacity:1;display:inline"
         d="M 504.68564,510.9129 C 495.85716,505.39416 492.57984,493.75 478.75,493.75 M 442.5,513.75 C 424.375,513.75 424.375,493.75 406.25,493.75 M 370,513.75 C 351.875,513.75 351.875,493.75 333.75,493.75 M 297.5,513.75 C 279.375,513.75 279.375,493.75 261.25,493.75 M 225,513.75 C 206.875,513.75 206.875,493.75 188.75,493.75 M 152.5,513.75 C 134.375,513.75 134.375,493.75 116.25,493.75" />
      <path
         id="path3299"
         style="fill:none;fill-opacity:1;fill-rule:evenodd;stroke:black;stroke-width:2.5;stroke-linecap:round;stroke-linejoin:miter;stroke-miterlimit:4;stroke-dasharray:none;stroke-opacity:1;display:inline"
         d="M 490.50071,527.57067 C 487.47333,525.31557 483.82106,523.75 478.75,523.75 M 442.5,543.75 C 424.375,543.75 424.375,523.75 406.25,523.75 M 370,543.75 C 351.875,543.75 351.875,523.75 333.75,523.75 M 297.5,543.75 C 279.375,543.75 279.375,523.75 261.25,523.75 M 225,543.75 C 206.875,543.75 206.875,523.75 188.75,523.75 M 152.5,543.75 C 134.375,543.75 134.375,523.75 116.25,523.75" />
      <path
         id="path3301"
         style="fill:none;fill-opacity:1;fill-rule:evenodd;stroke:black;stroke-width:2.5;stroke-linecap:round;stroke-linejoin:miter;stroke-miterlimit:4;stroke-dasharray:none;stroke-opacity:1;display:inline"
         d="M 440.5993,573.67312 C 424.3512,572.32679 423.71821,553.75 406.25,553.75 M 370,573.75 C 351.875,573.75 351.875,553.75 333.75,553.75 M 297.5,573.75 C 279.375,573.75 279.375,553.75 261.25,553.75 M 225,573.75 C 206.875,573.75 206.875,553.75 188.75,553.75" />
      <path
         id="path3303"
         style="fill:none;fill-opacity:1;fill-rule:evenodd;stroke:black;stroke-width:2.5;stroke-linecap:round;stroke-linejoin:miter;stroke-miterlimit:4;stroke-dasharray:none;stroke-opacity:1;display:inline"
         d="M 420.27747,589.48022 C 416.79897,586.24896 412.65683,583.75 406.25,583.75 M 370,603.75 C 351.875,603.75 351.875,583.75 333.75,583.75 M 297.5,603.75 C 279.375,603.75 279.375,583.75 261.25,583.75 M 225,603.75 C 206.875,603.75 206.875,583.75 188.75,583.75" />
      <path
         id="path3305"
         style="fill:none;fill-opacity:1;fill-rule:evenodd;stroke:black;stroke-width:2.5;stroke-linecap:round;stroke-linejoin:miter;stroke-miterlimit:4;stroke-dasharray:none;stroke-opacity:1;display:inline"
         d="M 357.80563,629.59059 C 350.31274,623.73036 346.55372,613.75 333.75,613.75 M 297.5,633.75 C 279.375,633.75 279.375,613.75 261.25,613.75" />
      <path
         id="path3320"
         style="fill:none;fill-opacity:1;fill-rule:evenodd;stroke:black;stroke-width:2.5;stroke-linecap:round;stroke-linejoin:miter;stroke-miterlimit:4;stroke-dasharray:none;stroke-opacity:1;display:inline"
         d="M 556.72259,434.45021 C 555.0928,434.0023 553.28572,433.75 551.25,433.75" />
    </g>
  </g>
  <g
     id="layer1">
    <path
       d="M 299.99999,658.50028 C 299.99999,658.50028 1.5,546.17992 1.5,260.72828 C 1.5,-24.723336 1.5,2.1764957 1.5,2.1764957 L 598.49999,2.1764957 L 598.49999,260.72828 C 598.49999,546.17992 299.99999,658.50028 299.99999,658.50028 z "
       style="opacity:1;fill:none;fill-opacity:1;fill-rule:evenodd;stroke:#000000;stroke-width:3.00000048;stroke-linecap:butt;stroke-linejoin:miter;stroke-miterlimit:4;stroke-dasharray:none;stroke-opacity:1"
       id="path1411" />
  </g>
  <g
     id="layer2">
    <path
       d="M 300.00001,658.5 C 300.00001,658.5 598.50001,546.17969 598.50001,260.72817 C 598.50001,-24.723334 598.50001,2.1764865 598.50001,2.1764865 L 1.5,2.1764865 L 1.5,260.72817 C 1.5,546.17969 300.00001,658.5 300.00001,658.5 z "
       style="opacity:1;fill:url(#radialGradient3163);fill-opacity:1;fill-rule:evenodd;stroke:none;stroke-width:1px;stroke-linecap:butt;stroke-linejoin:miter;stroke-opacity:1"
       id="path2875" />
  </g>
</svg>
