<?xml version="1.0" encoding="UTF-8" standalone="no"?>
<svg
   xmlns:dc="http://purl.org/dc/elements/1.1/"
   xmlns:cc="http://web.resource.org/cc/"
   xmlns:rdf="http://www.w3.org/1999/02/22-rdf-syntax-ns#"
   xmlns:svg="http://www.w3.org/2000/svg"
   xmlns="http://www.w3.org/2000/svg"
   xmlns:xlink="http://www.w3.org/1999/xlink"
   xmlns:sodipodi="http://sodipodi.sourceforge.net/DTD/sodipodi-0.dtd"
   xmlns:inkscape="http://www.inkscape.org/namespaces/inkscape"
   height="660"
   width="600"
   version="1.0"
   id="svg2"
   sodipodi:version="0.32"
   inkscape:version="0.45.1"
   sodipodi:docname="Blason_Heidolsheim_67.svg"
   sodipodi:docbase="C:\Documents and Settings\ffernandez\Escritorio"
   inkscape:export-filename="/Users/olivier/Desktop/Blason Rouge/Blason_Vide_3D.png"
   inkscape:export-xdpi="144"
   inkscape:export-ydpi="144"
   inkscape:output_extension="org.inkscape.output.svg.inkscape">
  <metadata
     id="metadata49">
    <rdf:RDF>
      <cc:Work
         rdf:about="">
        <dc:format>image/svg+xml</dc:format>
        <dc:type
           rdf:resource="http://purl.org/dc/dcmitype/StillImage" />
        <dc:title>Gabarit d'un blason en pointe pour le projet Blasons de Wikipédia</dc:title>
        <dc:date>03-AUG-2006</dc:date>
        <dc:creator>
          <cc:Agent>
            <dc:title>Jérôme BLUM (wagner51)</dc:title>
          </cc:Agent>
        </dc:creator>
        <cc:license
           rdf:resource="http://web.resource.org/cc/PublicDomain" />
        <dc:language>fr</dc:language>
        <dc:subject>
          <rdf:Bag>
            <rdf:li>gabarit modèle blason projet wikipédia</rdf:li>
          </rdf:Bag>
        </dc:subject>
      </cc:Work>
      <cc:License
         rdf:about="http://web.resource.org/cc/PublicDomain">
        <cc:permits
           rdf:resource="http://web.resource.org/cc/Reproduction" />
        <cc:permits
           rdf:resource="http://web.resource.org/cc/Distribution" />
        <cc:permits
           rdf:resource="http://web.resource.org/cc/DerivativeWorks" />
      </cc:License>
    </rdf:RDF>
  </metadata>
  <sodipodi:namedview
     inkscape:window-height="712"
     inkscape:window-width="1024"
     inkscape:pageshadow="2"
     inkscape:pageopacity="0.0"
     guidetolerance="10.0"
     gridtolerance="10.0"
     objecttolerance="10.0"
     borderopacity="1.0"
     bordercolor="#666666"
     pagecolor="#ffffff"
     id="base"
     showgrid="false"
     height="660px"
     inkscape:zoom="0.39090909"
     inkscape:cx="350.12439"
     inkscape:cy="553.56293"
     inkscape:window-x="-4"
     inkscape:window-y="-4"
     inkscape:current-layer="layer3" />
  <desc
     id="desc4">Flag of Canton of Valais (Wallis)</desc>
  <defs
     id="defs6">
    <linearGradient
       id="linearGradient2893">
      <stop
         style="stop-color:white;stop-opacity:0.3137255;"
         offset="0"
         id="stop2895" />
      <stop
         id="stop2897"
         offset="0.19"
         style="stop-color:white;stop-opacity:0.25098041;" />
      <stop
         style="stop-color:#6b6b6b;stop-opacity:0.1254902;"
         offset="0.60000002"
         id="stop2901" />
      <stop
         style="stop-color:black;stop-opacity:0.1254902;"
         offset="1"
         id="stop2899" />
    </linearGradient>
    <linearGradient
       id="linearGradient2885">
      <stop
         id="stop2887"
         offset="0"
         style="stop-color:white;stop-opacity:1;" />
      <stop
         style="stop-color:white;stop-opacity:1;"
         offset="0.22857143"
         id="stop2891" />
      <stop
         id="stop2889"
         offset="1"
         style="stop-color:black;stop-opacity:1;" />
    </linearGradient>
    <linearGradient
       id="linearGradient2955">
      <stop
         id="stop2867"
         offset="0"
         style="stop-color:#fd0000;stop-opacity:1;" />
      <stop
         style="stop-color:#e77275;stop-opacity:0.65882355;"
         offset="0.5"
         id="stop2873" />
      <stop
         style="stop-color:black;stop-opacity:0.32291666;"
         offset="1"
         id="stop2959" />
    </linearGradient>
    <radialGradient
       inkscape:collect="always"
       xlink:href="#linearGradient2955"
       id="radialGradient2961"
       cx="225.52438"
       cy="218.90099"
       fx="225.52438"
       fy="218.90099"
       r="300"
       gradientTransform="matrix(-4.167939e-4,2.182867,-1.884232,-3.599562e-4,615.5972,-289.1214)"
       gradientUnits="userSpaceOnUse" />
    <polygon
       id="star"
       transform="scale(53,53)"
       points="0,-1 0.58778525,0.80901699 -0.95105652,-0.30901699 0.95105652,-0.30901699 -0.58778525,0.80901699 0,-1 " />
    <clipPath
       id="clip">
      <path
         d="M 0,-200 L 0,600 L 300,600 L 300,-200 L 0,-200 z "
         id="path10" />
    </clipPath>
    <radialGradient
       inkscape:collect="always"
       xlink:href="#linearGradient2955"
       id="radialGradient1911"
       gradientUnits="userSpaceOnUse"
       gradientTransform="matrix(-4.167939e-4,2.182867,-1.884232,-3.599562e-4,615.5972,-289.1214)"
       cx="225.52438"
       cy="218.90099"
       fx="225.52438"
       fy="218.90099"
       r="300" />
    <radialGradient
       inkscape:collect="always"
       xlink:href="#linearGradient2955"
       id="radialGradient2865"
       gradientUnits="userSpaceOnUse"
       gradientTransform="matrix(0,1.748721,-1.593162,-1.049767e-7,551.7876,-191.2898)"
       cx="225.52438"
       cy="218.90099"
       fx="225.52438"
       fy="218.90099"
       r="300" />
    <radialGradient
       inkscape:collect="always"
       xlink:href="#linearGradient2955"
       id="radialGradient2871"
       gradientUnits="userSpaceOnUse"
       gradientTransform="matrix(0,1.386237,-1.323286,-5.741131e-8,-158.0823,-109.5408)"
       cx="225.52438"
       cy="218.90099"
       fx="225.52438"
       fy="218.90099"
       r="300" />
    <radialGradient
       inkscape:collect="always"
       xlink:href="#linearGradient2893"
       id="radialGradient3163"
       gradientUnits="userSpaceOnUse"
       gradientTransform="matrix(1.353218,0,0,1.348928,-77.62935,-85.74693)"
       cx="221.44487"
       cy="226.33101"
       fx="221.44487"
       fy="226.33101"
       r="300" />
    <radialGradient
       r="300"
       fy="226.33101"
       fx="221.44487"
       cy="226.33101"
       cx="221.44487"
       gradientTransform="matrix(1.353218,0,0,1.348928,-77.62935,-85.74693)"
       gradientUnits="userSpaceOnUse"
       id="radialGradient4530"
       xlink:href="#linearGradient2893"
       inkscape:collect="always" />
    <radialGradient
       r="300"
       fy="218.90099"
       fx="225.52438"
       cy="218.90099"
       cx="225.52438"
       gradientTransform="matrix(0,1.386237,-1.323286,-5.741131e-8,-158.0823,-109.5408)"
       gradientUnits="userSpaceOnUse"
       id="radialGradient4528"
       xlink:href="#linearGradient2955"
       inkscape:collect="always" />
    <radialGradient
       r="300"
       fy="218.90099"
       fx="225.52438"
       cy="218.90099"
       cx="225.52438"
       gradientTransform="matrix(0,1.748721,-1.593162,-1.049767e-7,551.7876,-191.2898)"
       gradientUnits="userSpaceOnUse"
       id="radialGradient4526"
       xlink:href="#linearGradient2955"
       inkscape:collect="always" />
    <radialGradient
       r="300"
       fy="218.90099"
       fx="225.52438"
       cy="218.90099"
       cx="225.52438"
       gradientTransform="matrix(-4.167939e-4,2.182867,-1.884232,-3.599562e-4,615.5972,-289.1214)"
       gradientUnits="userSpaceOnUse"
       id="radialGradient4524"
       xlink:href="#linearGradient2955"
       inkscape:collect="always" />
    <clipPath
       id="clipPath4520">
      <path
         id="path4522"
         d="M 0,-200 L 0,600 L 300,600 L 300,-200 L 0,-200 z " />
    </clipPath>
    <polygon
       points="0,-1 0.58778525,0.80901699 -0.95105652,-0.30901699 0.95105652,-0.30901699 -0.58778525,0.80901699 0,-1 "
       transform="scale(53,53)"
       id="polygon4518" />
    <radialGradient
       gradientUnits="userSpaceOnUse"
       gradientTransform="matrix(-4.167939e-4,2.182867,-1.884232,-3.599562e-4,615.5972,-289.1214)"
       r="300"
       fy="218.90099"
       fx="225.52438"
       cy="218.90099"
       cx="225.52438"
       id="radialGradient4516"
       xlink:href="#linearGradient2955"
       inkscape:collect="always" />
    <linearGradient
       id="linearGradient4508">
      <stop
         style="stop-color:#fd0000;stop-opacity:1;"
         offset="0"
         id="stop4510" />
      <stop
         id="stop4512"
         offset="0.5"
         style="stop-color:#e77275;stop-opacity:0.65882355;" />
      <stop
         id="stop4514"
         offset="1"
         style="stop-color:black;stop-opacity:0.32291666;" />
    </linearGradient>
    <linearGradient
       id="linearGradient4500">
      <stop
         style="stop-color:white;stop-opacity:1;"
         offset="0"
         id="stop4502" />
      <stop
         id="stop4504"
         offset="0.22857143"
         style="stop-color:white;stop-opacity:1;" />
      <stop
         style="stop-color:black;stop-opacity:1;"
         offset="1"
         id="stop4506" />
    </linearGradient>
    <linearGradient
       id="linearGradient4490">
      <stop
         id="stop4492"
         offset="0"
         style="stop-color:white;stop-opacity:0.3137255;" />
      <stop
         style="stop-color:white;stop-opacity:0.25098041;"
         offset="0.19"
         id="stop4494" />
      <stop
         id="stop4496"
         offset="0.60000002"
         style="stop-color:#6b6b6b;stop-opacity:0.1254902;" />
      <stop
         id="stop4498"
         offset="1"
         style="stop-color:black;stop-opacity:0.1254902;" />
    </linearGradient>
    <linearGradient
       gradientUnits="userSpaceOnUse"
       xlink:href="#linearGradient1732"
       id="linearGradient2433"
       y2="96.5"
       x2="180"
       y1="92.5"
       x1="171" />
    <linearGradient
       gradientTransform="translate(-1.428571e-5,-5.714286e-5)"
       gradientUnits="userSpaceOnUse"
       xlink:href="#linearGradient1732"
       id="linearGradient1561"
       y2="467.62207"
       x2="124.13653"
       y1="496.1308"
       x1="94.280907" />
    <linearGradient
       gradientTransform="translate(-1.428571e-5,-5.714286e-5)"
       gradientUnits="userSpaceOnUse"
       xlink:href="#linearGradient1732"
       id="linearGradient1559"
       y2="185.71556"
       x2="296.92871"
       y1="176.24918"
       x1="270.4964" />
    <linearGradient
       gradientTransform="translate(-1.428571e-5,-5.714286e-5)"
       gradientUnits="userSpaceOnUse"
       xlink:href="#linearGradient1732"
       id="linearGradient1557"
       y2="101.81393"
       x2="193.02094"
       y1="75.233917"
       x1="179.58267" />
    <linearGradient
       gradientTransform="translate(-1.428571e-5,-5.714286e-5)"
       gradientUnits="userSpaceOnUse"
       xlink:href="#linearGradient1732"
       id="linearGradient1555"
       y2="90.41172"
       x2="137.60522"
       y1="75.233917"
       x1="112.23917" />
    <linearGradient
       gradientTransform="translate(-1.428571e-5,-5.714286e-5)"
       gradientUnits="userSpaceOnUse"
       xlink:href="#linearGradient1732"
       id="linearGradient1553"
       y2="137.97067"
       x2="124.361"
       y1="139.21025"
       x1="87.546555" />
    <linearGradient
       gradientTransform="translate(-1.428571e-5,-5.714286e-5)"
       gradientUnits="userSpaceOnUse"
       xlink:href="#linearGradient1732"
       id="linearGradient1551"
       y2="137.97067"
       x2="157.20032"
       y1="115.64002"
       x1="124.58548" />
    <linearGradient
       gradientTransform="translate(-1.428571e-5,-5.714286e-5)"
       gradientUnits="userSpaceOnUse"
       xlink:href="#linearGradient1732"
       id="linearGradient1549"
       y2="213.55009"
       x2="211.82967"
       y1="217.77766"
       x1="177.33789" />
    <linearGradient
       id="linearGradient1732">
      <stop
         id="stop1734"
         offset="0"
         style="stop-color:#ffffff;stop-opacity:1" />
      <stop
         id="stop1736"
         offset="1"
         style="stop-color:#ffffff;stop-opacity:1" />
    </linearGradient>
    <linearGradient
       gradientTransform="translate(75.92347,47.10196)"
       gradientUnits="userSpaceOnUse"
       xlink:href="#linearGradient1732"
       id="linearGradient1397"
       y2="48.302807"
       x2="243.12413"
       y1="51.4207"
       x1="241.1429" />
    <linearGradient
       gradientTransform="translate(-1.428571e-5,-5.714286e-5)"
       gradientUnits="userSpaceOnUse"
       xlink:href="#linearGradient1732"
       id="linearGradient1682"
       y2="546.90479"
       x2="341.26984"
       y1="571.11108"
       x1="337.30157" />
    <linearGradient
       gradientTransform="translate(-1.428571e-5,-5.714286e-5)"
       gradientUnits="userSpaceOnUse"
       xlink:href="#linearGradient1732"
       id="linearGradient1674"
       y2="547.59521"
       x2="319.15079"
       y1="566.74603"
       x1="300" />
    <linearGradient
       gradientTransform="translate(-1.428571e-5,-5.714286e-5)"
       gradientUnits="userSpaceOnUse"
       xlink:href="#linearGradient1732"
       id="linearGradient1666"
       y2="534.60315"
       x2="312.30157"
       y1="534.20636"
       x1="266.26984" />
    <linearGradient
       gradientTransform="translate(-1.428571e-5,-5.714286e-5)"
       gradientUnits="userSpaceOnUse"
       xlink:href="#linearGradient1732"
       id="linearGradient1658"
       y2="513.17462"
       x2="321.82541"
       y1="493.73016"
       x1="292.85715" />
    <linearGradient
       gradientTransform="translate(-1.428571e-5,-5.714286e-5)"
       gradientUnits="userSpaceOnUse"
       xlink:href="#linearGradient1732"
       id="linearGradient1650"
       y2="458.41269"
       x2="186.50793"
       y1="491.74603"
       x1="186.50793" />
    <linearGradient
       gradientTransform="translate(-1.428571e-5,-5.714286e-5)"
       gradientUnits="userSpaceOnUse"
       xlink:href="#linearGradient1732"
       id="linearGradient1642"
       y2="454.04761"
       x2="163.88889"
       y1="488.96826"
       x1="143.65079" />
    <linearGradient
       gradientTransform="translate(-1.428571e-5,-5.714286e-5)"
       gradientUnits="userSpaceOnUse"
       xlink:href="#linearGradient1732"
       id="linearGradient1582"
       y2="242.34128"
       x2="130.35715"
       y1="225.27779"
       x1="107.14286" />
    <linearGradient
       gradientTransform="translate(-1.428571e-5,-5.714286e-5)"
       gradientUnits="userSpaceOnUse"
       xlink:href="#linearGradient1732"
       id="linearGradient1622"
       y2="415.35715"
       x2="166.66667"
       y1="395.31747"
       x1="131.15079" />
    <linearGradient
       gradientTransform="translate(-1.428571e-5,-5.714286e-5)"
       gradientUnits="userSpaceOnUse"
       xlink:href="#linearGradient1732"
       id="linearGradient1614"
       y2="294.72223"
       x2="136.32533"
       y1="312.77777"
       x1="118.45238" />
    <linearGradient
       gradientTransform="translate(-1.428571e-5,-5.714286e-5)"
       gradientUnits="userSpaceOnUse"
       xlink:href="#linearGradient1732"
       id="linearGradient1606"
       y2="280.63492"
       x2="118.05556"
       y1="297.10318"
       x1="88.492065" />
    <linearGradient
       gradientTransform="translate(-1.428571e-5,-5.714286e-5)"
       gradientUnits="userSpaceOnUse"
       xlink:href="#linearGradient1732"
       id="linearGradient1598"
       y2="257.61905"
       x2="115.67461"
       y1="260.59525"
       x1="84.126984" />
    <linearGradient
       gradientTransform="translate(-1.428571e-5,-5.714286e-5)"
       gradientUnits="userSpaceOnUse"
       xlink:href="#linearGradient1732"
       id="linearGradient1590"
       y2="258.41269"
       x2="113.69048"
       y1="264.16666"
       x1="82.14286" />
    <linearGradient
       gradientTransform="translate(-1.428571e-5,-5.714286e-5)"
       gradientUnits="userSpaceOnUse"
       xlink:href="#linearGradient1732"
       id="linearGradient1800"
       y2="166.38455"
       x2="139.39598"
       y1="191.96266"
       x1="107.7496" />
  </defs>
  <g
     inkscape:groupmode="layer"
     id="layer3"
     inkscape:label="Fond écu"
     style="display:inline">
    <path
       inkscape:export-ydpi="144"
       inkscape:export-xdpi="144"
       id="path4542"
       style="fill:#2b5df2;fill-opacity:1;fill-rule:evenodd;stroke:none;stroke-width:1px;stroke-linecap:butt;stroke-linejoin:miter;stroke-opacity:1"
       d="M 301.04024,660.21769 C 301.04024,660.21769 599.54019,547.89738 599.54019,262.44586 C 599.54019,-23.005638 599.54019,3.8941851 599.54019,3.8941851 L 2.5402313,3.8941851 L 2.5402313,262.44586 C 2.5402313,547.89738 301.04024,660.21769 301.04024,660.21769 z "
       sodipodi:nodetypes="cccccc" />
    <path
       style="fill:#fcef3c;fill-rule:evenodd;stroke:none;stroke-width:0.98838598px;stroke-linecap:butt;stroke-linejoin:miter;stroke-opacity:1;display:inline;fill-opacity:1"
       d="M 104.09021,1.2745369 L 234.27075,2.5536067 L 233.22276,625.46977 C 233.22276,625.46977 189.48594,596.62864 157.36589,571.47959 C 125.24584,546.33055 104.74256,524.87359 104.74256,524.87359 L 104.09021,1.2745369 z "
       id="path2294"
       sodipodi:nodetypes="cccscc" />
    <g
       style="fill:#000000;fill-opacity:1;stroke:#242424;stroke-width:5.87278696;stroke-miterlimit:4;stroke-dasharray:none;stroke-opacity:1"
       id="g5442"
       transform="matrix(0.4238207,0,0,0.4275721,142.27371,91.211429)">
      <path
         d="M 233.93921,227.5321 L 224.34276,220.96611 C 219.79708,223.23895 159.18792,216.9255 143.27802,211.36966 C 127.36812,205.81382 95.713418,182.99872 92.517854,180.05493 C 79.696606,168.24384 58.898753,140.52465 56.884596,137.12345 C 48.868976,123.58791 36.605028,95.411328 34.495359,80.006501 C 32.377299,64.540408 30.227592,39.618346 30.732669,38.355656 C 31.237745,37.092965 32.625283,32.503736 37.46454,31.057431 C 42.908558,29.430381 66.233038,22.380349 69.493555,19.00431 C 72.101837,16.303616 99.343768,-5.1975346 103.50698,-19.728116 C 107.07275,-32.173489 107.20839,-40.915938 107.20839,-50.007311 C 107.20839,-59.098684 107.16507,-72.952386 103.62953,-83.811526 C 100.094,-94.670666 90.035801,-104.34634 76.398742,-114.44786 C 62.761683,-124.54939 41.252613,-126.52637 41.252613,-126.52637 L -74.200644,-124.56734 C -74.317782,-124.54406 -150.83988,-126.01204 -208.80347,-150.09907 C -169.7828,-39.965783 -80.627095,-61.629084 -66.581172,-55.310614 C -188.6945,-17.366063 -245.58739,-14.683456 -257.5,-17.93497 C -257.31358,-14.61703 -242.5868,2.3152156 -225.74249,15.165694 C -212.11638,25.561014 -193.23468,32.636958 -184.26394,34.087887 C -165.45156,37.130605 -144.75207,35.976 -122.41312,34.546864 C -109.91474,33.747279 -70.388846,21.524159 -73.65224,26.511742 C -76.212846,30.425225 -93.771503,42.634931 -115.25771,60.705039 C -134.13534,76.581311 -156.00938,98.712135 -177.58706,116.45787 C -216.17844,148.19587 -256.21684,167.28033 -253.96447,169.44832 C -241.22637,181.70919 -205.7944,190.42557 -176.37483,181.76022 C -163.74558,178.04035 -155.88543,173.57557 -142.0865,164.03907 C -131.4239,156.67009 -116.5901,142.32297 -107.79491,134.38566 C -91.103548,119.32238 -75.423696,106.85823 -65.571018,98.232573 C -65.602439,105.00866 -70.819707,112.27354 -77.187774,123.99146 C -156.98983,272.98896 -247.90355,424.00677 -247.90355,424.00677 C -171.48969,428.21989 -128.32017,350.51653 -91.569842,302.61892 C -44.795436,241.65667 -55.478358,254.4149 -45.367968,240.66408 C -35.257578,226.91326 -47.784258,249.34268 -69.106553,301.27324 C -94.936102,357.62469 -94.273264,400.79874 -103.56044,460.13273 C -110.72094,504.41281 -121.35781,556.9172 -121.63449,550.78091 C -122.63297,565.5633 -159.30307,660.95883 -189.81978,741.19467 C -153.76307,738.28844 -127.88529,717.34326 -108.5025,697.75811 C -94.107916,676.43676 -82.157482,654.76407 -73.147164,632.0982 C -56.727048,593.86108 -44.836419,557.25498 -32.867672,522.29061 C -7.7930652,449.04002 9.709765,384.38351 27.363016,338.64888 L 26.801943,433.75067 C 28.929503,456.47083 21.460137,560.49684 16.831929,592.33548 C 5.5785803,669.75019 2.8610615,715.70675 -6.4770953,757.86218 C 112.19521,739.39901 142.73321,502.35295 139.99502,404.81387 C 149.75983,477.76568 159.52464,548.61396 169.28945,610.88499 C 193.00586,597.6466 206.40204,584.02731 212.22093,557.3469 C 217.44005,483.57079 223.66933,420.13447 228.88845,357.84177 L 277.88085,262.88744 L 233.93921,227.5321 z "
         style="color:#000000;fill:#000000;fill-opacity:1;fill-rule:nonzero;stroke:#242424;stroke-width:5.87278696;stroke-linecap:butt;stroke-linejoin:round;marker:none;marker-start:none;marker-mid:none;marker-end:none;stroke-miterlimit:4;stroke-dasharray:none;stroke-dashoffset:0;stroke-opacity:1;visibility:visible;display:inline;overflow:visible"
         id="path2764" />
      <path
         d="M 481.13209,227.5321 L 490.72854,220.96611 C 495.27422,223.23895 555.88338,216.9255 571.79328,211.36966 C 587.70318,205.81382 619.35788,182.99872 622.55345,180.05493 C 635.37469,168.24384 656.17255,140.52465 658.18671,137.12345 C 666.20233,123.58791 678.46628,95.411328 680.57595,80.006501 C 682.69401,64.540408 684.84371,39.618346 684.33864,38.355656 C 683.83356,37.092965 682.44602,32.503736 677.60676,31.057431 C 672.16275,29.430381 648.83827,22.380349 645.57775,19.00431 C 642.96946,16.303616 615.72753,-5.1975344 611.56432,-19.728116 C 607.99855,-32.173489 607.86291,-40.915938 607.86291,-50.007311 C 607.86291,-59.098684 607.90623,-72.952386 611.44177,-83.811526 C 614.9773,-94.670666 625.0355,-104.34634 638.67256,-114.44786 C 652.30962,-124.54939 673.81869,-126.52637 673.81869,-126.52637 L 789.27194,-124.56734 C 789.38908,-124.54406 865.91118,-126.01204 923.87477,-150.09907 C 884.8541,-39.965783 795.6984,-61.629084 781.65247,-55.310614 C 903.7658,-17.366063 960.65869,-14.683456 972.5713,-17.93497 C 972.38488,-14.61703 957.6581,2.3152158 940.81379,15.165694 C 927.18768,25.561014 908.30598,32.636958 899.33524,34.087887 C 880.52286,37.130605 859.82337,35.976 837.48442,34.546864 C 824.98604,33.747279 785.46015,21.524159 788.72354,26.511742 C 791.28415,30.425225 808.8428,42.634931 830.32901,60.705039 C 849.20664,76.581311 871.08068,98.712133 892.65836,116.45787 C 931.24974,148.19587 971.28814,167.28033 969.03577,169.44832 C 956.29767,181.70919 920.8657,190.42557 891.44613,181.76022 C 878.81688,178.04035 870.95673,173.57557 857.1578,164.03907 C 846.4952,156.67009 831.6614,142.32297 822.86621,134.38566 C 806.17485,119.32238 790.495,106.85823 780.64232,98.232573 C 780.67374,105.00866 785.89101,112.27354 792.25907,123.99146 C 872.06113,272.98896 962.97485,424.00677 962.97485,424.00677 C 886.56099,428.21989 843.39147,350.51653 806.64114,302.61892 C 759.86674,241.65667 770.54966,254.4149 760.43927,240.66408 C 750.32888,226.91326 762.85556,249.34268 784.17785,301.27324 C 810.0074,357.62469 809.34456,400.79874 818.63174,460.13273 C 825.79224,504.41281 836.42911,556.9172 836.70579,550.78091 C 837.70427,565.5633 874.37437,660.95883 904.89108,741.19467 C 868.83437,738.28844 842.95659,717.34326 823.5738,697.75811 C 809.17922,676.43676 797.22878,654.76407 788.21846,632.0982 C 771.79835,593.86108 759.90772,557.25498 747.93897,522.29061 C 722.86437,449.04002 705.36154,384.38351 687.70829,338.64888 L 688.26936,433.75067 C 686.1418,456.47083 693.61117,560.49684 698.23938,592.33548 C 709.49272,669.75019 712.21024,715.70675 721.5484,757.86218 C 602.87609,739.39901 572.33809,502.35295 575.07628,404.81387 C 565.31147,477.76568 555.54666,548.61396 545.78185,610.88499 C 522.06544,597.6466 508.66926,584.02731 502.85037,557.3469 C 497.63125,483.57079 491.40197,420.13447 486.18285,357.84177 L 437.19045,262.88744 L 481.13209,227.5321 z "
         style="color:#000000;fill:#000000;fill-opacity:1;fill-rule:nonzero;stroke:#242424;stroke-width:5.87278696;stroke-linecap:butt;stroke-linejoin:round;marker:none;marker-start:none;marker-mid:none;marker-end:none;stroke-miterlimit:4;stroke-dasharray:none;stroke-dashoffset:0;stroke-opacity:1;visibility:visible;display:inline;overflow:visible"
         id="path5440" />
    </g>
    <g
       style="fill:#e20909;fill-opacity:1;stroke:#000000;stroke-width:5.87278696;stroke-linecap:round;stroke-linejoin:round;stroke-miterlimit:4;stroke-dasharray:none;stroke-opacity:1"
       id="g12543"
       transform="matrix(0.4238207,0,0,0.4275721,142.27371,91.211429)">
      <path
         d="M -54.394146,887.55938 C -54.300237,886.98393 -53.49643,863.97911 -53.5109,864.17795 C -53.52537,864.37678 -83.42635,863.38675 -88.580084,864.48824 C -97.384081,866.36987 -102.4149,875.39377 -101.01525,891.24285 C -100.21008,896.4986 -99.675194,902.02462 -94.95434,903.36468 C -90.172402,881.35537 -84.363472,886.2716 -79.289977,886.34904 C -73.159213,886.44261 -54.488055,888.13483 -54.394146,887.55938 z "
         style="opacity:1;color:#000000;fill:#e20909;fill-opacity:1;fill-rule:nonzero;stroke:#000000;stroke-width:5.87278696;stroke-linecap:round;stroke-linejoin:round;marker:none;marker-start:none;marker-mid:none;marker-end:none;stroke-miterlimit:4;stroke-dasharray:none;stroke-dashoffset:0;stroke-opacity:1;visibility:visible;display:inline;overflow:visible"
         id="path6333" />
      <path
         d="M 10,792.00504 L -5.7142857,807.71932 L -21.785714,797.00504 C -27.043162,791.93823 -36.202744,790.72221 -48.214286,793.43361 C -35.924243,769.58429 -10.155701,770.84553 -3.9285715,779.50504 L 10,792.00504 z "
         style="opacity:1;color:#000000;fill:#e20909;fill-opacity:1;fill-rule:nonzero;stroke:#000000;stroke-width:5.87278696;stroke-linecap:round;stroke-linejoin:round;marker:none;marker-start:none;marker-mid:none;marker-end:none;stroke-miterlimit:4;stroke-dasharray:none;stroke-dashoffset:0;stroke-opacity:1;visibility:visible;display:inline;overflow:visible"
         id="path8112" />
      <path
         d="M 5.7142857,959.1479 C 18.717513,955.99352 10.534175,920.59187 -6.7857143,933.43361 C -24.105604,946.27535 -43.119976,955.38129 -22.5,985.21933 C -21.456816,963.66489 -7.2889414,962.30228 5.7142857,959.1479 z "
         style="opacity:1;color:#000000;fill:#e20909;fill-opacity:1;fill-rule:nonzero;stroke:#000000;stroke-width:5.87278696;stroke-linecap:round;stroke-linejoin:round;marker:none;marker-start:none;marker-mid:none;marker-end:none;stroke-miterlimit:4;stroke-dasharray:none;stroke-dashoffset:0;stroke-opacity:1;visibility:visible;display:inline;overflow:visible"
         id="path9884" />
      <path
         d="M 162.85714,879.50504 C 193.26442,862.0453 210.18788,865.77442 213.92857,890.21932 C 197.76847,882.4429 187.25206,887.20801 179.64286,898.43361"
         style="opacity:1;color:#000000;fill:#e20909;fill-opacity:1;fill-rule:nonzero;stroke:#000000;stroke-width:5.87278696;stroke-linecap:round;stroke-linejoin:round;marker:none;marker-start:none;marker-mid:none;marker-end:none;stroke-miterlimit:4;stroke-dasharray:none;stroke-dashoffset:0;stroke-opacity:1;visibility:visible;display:inline;overflow:visible"
         id="path11656" />
    </g>
    <path
       d="M 246.4125,389.07872 L 231.8815,381.74892 L 179.20666,454.7416 C 175.61777,449.51866 172.90293,441.65041 169.82205,434.89004 L 144.57014,425.90668 C 140.73003,428.57186 136.94966,433.16435 133.6719,438.73383 C 135.96883,441.21485 138.81314,442.03905 141.66824,442.83066 C 145.50282,440.72613 149.33738,439.91854 153.17196,440.6928 C 157.86198,446.97799 159.33251,451.63918 161.9511,456.87946 C 154.8449,455.00579 146.06427,451.38742 134.54337,446.72685 C 128.19157,450.50456 121.30754,455.40295 113.35232,456.4846 C 114.05639,457.90129 114.50026,459.28517 114.7497,460.64452 C 115.57788,465.15774 114.26288,469.4007 113.21171,473.67694 C 115.01803,477.54243 117.78727,476.20879 119.64249,476.90994 C 130.56637,467.91281 131.21898,466.13581 136.89803,465.91523 C 148.30776,466.21403 152.11778,467.36474 158.9238,468.17958 C 152.66058,474.99351 145.40732,482.75806 136.82458,485.28248 C 135.60788,487.28264 135.73726,489.7355 136.21913,492.30687 C 143.51672,497.22712 140.17521,500.0279 140.0292,503.87536 C 140.86441,505.01034 143.26367,505.09339 145.78106,505.09699 C 151.72448,495.80027 155.11814,495.93543 159.52925,492.30687 C 162.66957,488.73156 163.62094,484.32802 166.81048,481.91234 C 177.64881,473.70362 187.27901,470.97797 195.98214,472.14989 C 206.46283,476.41124 212.58385,478.57684 220.07507,478.8689 C 220.32985,477.34689 221.80093,477.84713 221.01998,474.23535 C 217.9927,473.76201 214.96541,467.69209 211.93811,463.54605 C 204.64632,463.49008 196.79513,464.5628 192.22401,459.01732 L 246.4125,389.07872 z "
       style="color:#000000;fill:#000000;fill-opacity:1;fill-rule:nonzero;stroke:#242424;stroke-width:2.5;stroke-linecap:round;stroke-linejoin:round;marker:none;marker-start:none;marker-mid:none;marker-end:none;stroke-miterlimit:4;stroke-dasharray:none;stroke-dashoffset:0;stroke-opacity:1;visibility:visible;display:inline;overflow:visible"
       id="path5446" />
    <path
       style="fill:#fcef3c;fill-rule:evenodd;stroke:none;stroke-width:0.98038667px;stroke-linecap:butt;stroke-linejoin:miter;stroke-opacity:1;display:inline;fill-opacity:1"
       d="M 492.87793,3.2705518 L 365.2477,3.2705518 L 362.45831,624.91557 C 362.45831,624.91557 401.08193,605.01961 433.20395,580.56623 C 465.32597,556.11286 490.94639,527.10207 490.94639,527.10207 L 492.87793,3.2705518 z "
       id="path2298"
       sodipodi:nodetypes="cccscc" />
    <g
       transform="matrix(-0.4238207,0,0,0.4275721,445.33569,91.211429)"
       style="fill:#000000;fill-opacity:1;stroke:#242424;stroke-width:5.87278696;stroke-miterlimit:4;stroke-dasharray:none;stroke-opacity:1"
       id="g14347">
      <path
         d="M 233.93921,227.5321 L 224.34276,220.96611 C 219.79708,223.23895 159.18792,216.9255 143.27802,211.36966 C 127.36812,205.81382 95.713418,182.99872 92.517854,180.05493 C 79.696606,168.24384 58.898753,140.52465 56.884596,137.12345 C 48.868976,123.58791 36.605028,95.411328 34.495359,80.006501 C 32.377299,64.540408 30.227592,39.618346 30.732669,38.355656 C 31.237745,37.092965 32.625283,32.503736 37.46454,31.057431 C 42.908558,29.430381 66.233038,22.380349 69.493555,19.00431 C 72.101837,16.303616 99.343768,-5.1975346 103.50698,-19.728116 C 107.07275,-32.173489 107.20839,-40.915938 107.20839,-50.007311 C 107.20839,-59.098684 107.16507,-72.952386 103.62953,-83.811526 C 100.094,-94.670666 90.035801,-104.34634 76.398742,-114.44786 C 62.761683,-124.54939 41.252613,-126.52637 41.252613,-126.52637 L -74.200644,-124.56734 C -74.317782,-124.54406 -150.83988,-126.01204 -208.80347,-150.09907 C -169.7828,-39.965783 -80.627095,-61.629084 -66.581172,-55.310614 C -188.6945,-17.366063 -245.58739,-14.683456 -257.5,-17.93497 C -257.31358,-14.61703 -242.5868,2.3152156 -225.74249,15.165694 C -212.11638,25.561014 -193.23468,32.636958 -184.26394,34.087887 C -165.45156,37.130605 -144.75207,35.976 -122.41312,34.546864 C -109.91474,33.747279 -70.388846,21.524159 -73.65224,26.511742 C -76.212846,30.425225 -93.771503,42.634931 -115.25771,60.705039 C -134.13534,76.581311 -156.00938,98.712135 -177.58706,116.45787 C -216.17844,148.19587 -256.21684,167.28033 -253.96447,169.44832 C -241.22637,181.70919 -205.7944,190.42557 -176.37483,181.76022 C -163.74558,178.04035 -155.88543,173.57557 -142.0865,164.03907 C -131.4239,156.67009 -116.5901,142.32297 -107.79491,134.38566 C -91.103548,119.32238 -75.423696,106.85823 -65.571018,98.232573 C -65.602439,105.00866 -70.819707,112.27354 -77.187774,123.99146 C -156.98983,272.98896 -247.90355,424.00677 -247.90355,424.00677 C -171.48969,428.21989 -128.32017,350.51653 -91.569842,302.61892 C -44.795436,241.65667 -55.478358,254.4149 -45.367968,240.66408 C -35.257578,226.91326 -47.784258,249.34268 -69.106553,301.27324 C -94.936102,357.62469 -94.273264,400.79874 -103.56044,460.13273 C -110.72094,504.41281 -121.35781,556.9172 -121.63449,550.78091 C -122.63297,565.5633 -159.30307,660.95883 -189.81978,741.19467 C -153.76307,738.28844 -127.88529,717.34326 -108.5025,697.75811 C -94.107916,676.43676 -82.157482,654.76407 -73.147164,632.0982 C -56.727048,593.86108 -44.836419,557.25498 -32.867672,522.29061 C -7.7930652,449.04002 9.709765,384.38351 27.363016,338.64888 L 26.801943,433.75067 C 28.929503,456.47083 21.460137,560.49684 16.831929,592.33548 C 5.5785803,669.75019 2.8610615,715.70675 -6.4770953,757.86218 C 112.19521,739.39901 142.73321,502.35295 139.99502,404.81387 C 149.75983,477.76568 159.52464,548.61396 169.28945,610.88499 C 193.00586,597.6466 206.40204,584.02731 212.22093,557.3469 C 217.44005,483.57079 223.66933,420.13447 228.88845,357.84177 L 277.88085,262.88744 L 233.93921,227.5321 z "
         style="color:#000000;fill:#000000;fill-opacity:1;fill-rule:nonzero;stroke:#242424;stroke-width:5.87278696;stroke-linecap:butt;stroke-linejoin:round;marker:none;marker-start:none;marker-mid:none;marker-end:none;stroke-miterlimit:4;stroke-dasharray:none;stroke-dashoffset:0;stroke-opacity:1;visibility:visible;display:inline;overflow:visible"
         id="path14349" />
      <path
         d="M 481.13209,227.5321 L 490.72854,220.96611 C 495.27422,223.23895 555.88338,216.9255 571.79328,211.36966 C 587.70318,205.81382 619.35788,182.99872 622.55345,180.05493 C 635.37469,168.24384 656.17255,140.52465 658.18671,137.12345 C 666.20233,123.58791 678.46628,95.411328 680.57595,80.006501 C 682.69401,64.540408 684.84371,39.618346 684.33864,38.355656 C 683.83356,37.092965 682.44602,32.503736 677.60676,31.057431 C 672.16275,29.430381 648.83827,22.380349 645.57775,19.00431 C 642.96946,16.303616 615.72753,-5.1975344 611.56432,-19.728116 C 607.99855,-32.173489 607.86291,-40.915938 607.86291,-50.007311 C 607.86291,-59.098684 607.90623,-72.952386 611.44177,-83.811526 C 614.9773,-94.670666 625.0355,-104.34634 638.67256,-114.44786 C 652.30962,-124.54939 673.81869,-126.52637 673.81869,-126.52637 L 789.27194,-124.56734 C 789.38908,-124.54406 865.91118,-126.01204 923.87477,-150.09907 C 884.8541,-39.965783 795.6984,-61.629084 781.65247,-55.310614 C 903.7658,-17.366063 960.65869,-14.683456 972.5713,-17.93497 C 972.38488,-14.61703 957.6581,2.3152158 940.81379,15.165694 C 927.18768,25.561014 908.30598,32.636958 899.33524,34.087887 C 880.52286,37.130605 859.82337,35.976 837.48442,34.546864 C 824.98604,33.747279 785.46015,21.524159 788.72354,26.511742 C 791.28415,30.425225 808.8428,42.634931 830.32901,60.705039 C 849.20664,76.581311 871.08068,98.712133 892.65836,116.45787 C 931.24974,148.19587 971.28814,167.28033 969.03577,169.44832 C 956.29767,181.70919 920.8657,190.42557 891.44613,181.76022 C 878.81688,178.04035 870.95673,173.57557 857.1578,164.03907 C 846.4952,156.67009 831.6614,142.32297 822.86621,134.38566 C 806.17485,119.32238 790.495,106.85823 780.64232,98.232573 C 780.67374,105.00866 785.89101,112.27354 792.25907,123.99146 C 872.06113,272.98896 962.97485,424.00677 962.97485,424.00677 C 886.56099,428.21989 843.39147,350.51653 806.64114,302.61892 C 759.86674,241.65667 770.54966,254.4149 760.43927,240.66408 C 750.32888,226.91326 762.85556,249.34268 784.17785,301.27324 C 810.0074,357.62469 809.34456,400.79874 818.63174,460.13273 C 825.79224,504.41281 836.42911,556.9172 836.70579,550.78091 C 837.70427,565.5633 874.37437,660.95883 904.89108,741.19467 C 868.83437,738.28844 842.95659,717.34326 823.5738,697.75811 C 809.17922,676.43676 797.22878,654.76407 788.21846,632.0982 C 771.79835,593.86108 759.90772,557.25498 747.93897,522.29061 C 722.86437,449.04002 705.36154,384.38351 687.70829,338.64888 L 688.26936,433.75067 C 686.1418,456.47083 693.61117,560.49684 698.23938,592.33548 C 709.49272,669.75019 712.21024,715.70675 721.5484,757.86218 C 602.87609,739.39901 572.33809,502.35295 575.07628,404.81387 C 565.31147,477.76568 555.54666,548.61396 545.78185,610.88499 C 522.06544,597.6466 508.66926,584.02731 502.85037,557.3469 C 497.63125,483.57079 491.40197,420.13447 486.18285,357.84177 L 437.19045,262.88744 L 481.13209,227.5321 z "
         style="color:#000000;fill:#000000;fill-opacity:1;fill-rule:nonzero;stroke:#242424;stroke-width:5.87278696;stroke-linecap:butt;stroke-linejoin:round;marker:none;marker-start:none;marker-mid:none;marker-end:none;stroke-miterlimit:4;stroke-dasharray:none;stroke-dashoffset:0;stroke-opacity:1;visibility:visible;display:inline;overflow:visible"
         id="path14351" />
      <g
         style="fill:#000000;fill-opacity:1;stroke:#242424;stroke-width:5.87278696;stroke-miterlimit:4;stroke-dasharray:none;stroke-opacity:1"
         id="g26880">
        <g
           style="fill:#000000;fill-opacity:1;stroke:#242424;stroke-width:5.87278696;stroke-linecap:round;stroke-linejoin:round;stroke-miterlimit:4;stroke-dasharray:none;stroke-opacity:1"
           id="g25943">
          <path
             d="M -190.71429,7.3621785 C -148.17927,11.430804 -102.74765,2.464709 -56.428572,-10.494964"
             transform="matrix(-1,0,0,1,715.0713,0)"
             style="opacity:1;color:#000000;fill:#000000;fill-opacity:1;fill-rule:nonzero;stroke:#242424;stroke-width:5.87278696;stroke-linecap:round;stroke-linejoin:round;marker:none;marker-start:none;marker-mid:none;marker-end:none;stroke-miterlimit:4;stroke-dasharray:none;stroke-dashoffset:0;stroke-opacity:1;visibility:visible;display:inline;overflow:visible"
             id="path23256" />
          <path
             d="M -67.857143,58.79075 C -158.71649,150.45107 -174.57811,156.64886 -185,156.64789"
             transform="matrix(-1,0,0,1,715.0713,0)"
             style="opacity:1;color:#000000;fill:#000000;fill-opacity:1;fill-rule:nonzero;stroke:#242424;stroke-width:5.87278696;stroke-linecap:round;stroke-linejoin:round;marker:none;marker-start:none;marker-mid:none;marker-end:none;stroke-miterlimit:4;stroke-dasharray:none;stroke-dashoffset:0;stroke-opacity:1;visibility:visible;display:inline;overflow:visible"
             id="path23258" />
          <path
             d="M -189.28572,376.64789 C -154.9708,325.54306 -136.44046,307.02573 -46.428572,140.93361"
             transform="matrix(-1,0,0,1,715.0713,0)"
             style="opacity:1;color:#000000;fill:#000000;fill-opacity:1;fill-rule:nonzero;stroke:#242424;stroke-width:5.87278696;stroke-linecap:round;stroke-linejoin:round;marker:none;marker-start:none;marker-mid:none;marker-end:none;stroke-miterlimit:4;stroke-dasharray:none;stroke-dashoffset:0;stroke-opacity:1;visibility:visible;display:inline;overflow:visible"
             id="path23260" />
          <path
             d="M -112.85714,629.50504 C -76.540512,538.33051 -43.197415,392.6589 -8.5714286,269.36218"
             transform="matrix(-1,0,0,1,715.0713,0)"
             style="opacity:1;color:#000000;fill:#000000;fill-opacity:1;fill-rule:nonzero;stroke:#242424;stroke-width:5.87278696;stroke-linecap:round;stroke-linejoin:round;marker:none;marker-start:none;marker-mid:none;marker-end:none;stroke-miterlimit:4;stroke-dasharray:none;stroke-dashoffset:0;stroke-opacity:1;visibility:visible;display:inline;overflow:visible"
             id="path23262" />
          <path
             d="M 50,649.50504 C 59.352802,607.60818 72.672253,468.5951 85.714286,328.93361"
             transform="matrix(-1,0,0,1,715.0713,0)"
             style="opacity:1;color:#000000;fill:#000000;fill-opacity:1;fill-rule:nonzero;stroke:#242424;stroke-width:5.87278696;stroke-linecap:round;stroke-linejoin:round;marker:none;marker-start:none;marker-mid:none;marker-end:none;stroke-miterlimit:4;stroke-dasharray:none;stroke-dashoffset:0;stroke-opacity:1;visibility:visible;display:inline;overflow:visible"
             id="path23264" />
          <path
             d="M 177.85714,541.64789 L 177.85714,371.64789"
             transform="matrix(-1,0,0,1,715.0713,0)"
             style="opacity:1;color:#000000;fill:#000000;fill-opacity:1;fill-rule:nonzero;stroke:#242424;stroke-width:5.87278696;stroke-linecap:round;stroke-linejoin:round;marker:none;marker-start:none;marker-mid:none;marker-end:none;stroke-miterlimit:4;stroke-dasharray:none;stroke-dashoffset:0;stroke-opacity:1;visibility:visible;display:inline;overflow:visible"
             id="path23266" />
          <path
             d="M 232.85714,253.07647 C 235.01678,267.13269 235.39088,265.12169 237.14286,278.07647 C 95.798353,266.70317 -8.9186586,208.50231 -0.71428572,5.933607 C -15.16068,13.159729 -29.836653,20.845007 -25.714286,-9.066393 C -44.174064,-30.856546 -30.617259,-33.436749 -11.428571,-32.637822 C -21.962937,-45.397215 -10.728497,-75.449852 8.5714286,-49.066393 C 31.56835,-63.729571 52.178435,-48.221162 29.285714,-27.637822 C 52.105236,-27.484646 64.900073,-21.762201 53.571429,-2.6378216 L 42.857143,-1.9235358 C 49.165433,17.884508 39.67366,18.732476 27.142857,15.933607 L 20,9.5050356 C 7.477443,176.25732 93.304802,242.20095 232.85714,253.07647 z "
             transform="matrix(-1,0,0,1,715.0713,0)"
             style="opacity:1;color:#000000;fill:#000000;fill-opacity:1;fill-rule:nonzero;stroke:#242424;stroke-width:5.87278696;stroke-linecap:round;stroke-linejoin:round;marker:none;marker-start:none;marker-mid:none;marker-end:none;stroke-miterlimit:4;stroke-dasharray:none;stroke-dashoffset:0;stroke-opacity:1;visibility:visible;display:inline;overflow:visible"
             id="path25038" />
          <path
             d="M -22.857143,62.362179 C -48.731824,74.595148 -82.895578,86.451342 -27.857143,102.36218 C -63.896888,121.8471 -67.544474,138.09281 -8.5714286,148.07646 C -18.271345,146.12545 -111.8105,190.85448 4.2857143,181.64789 C -66.847289,244.47298 -15.69542,238.10397 16.428571,221.64789 C -45.659203,267.27799 5.4053492,291.5113 47.142857,257.36218 C -7.6480499,342.8087 73.212279,335.08828 87.142857,285.21932 C 68.243789,339.58841 119.42359,393.71521 142.85714,299.50504 C 137.98222,403.23296 195.73064,373.09157 205.71429,313.07647"
             transform="matrix(-1,0,0,1,715.0713,0)"
             style="opacity:1;color:#000000;fill:#000000;fill-opacity:1;fill-rule:nonzero;stroke:#242424;stroke-width:5.87278696;stroke-linecap:round;stroke-linejoin:round;marker:none;marker-start:none;marker-mid:none;marker-end:none;stroke-miterlimit:4;stroke-dasharray:none;stroke-dashoffset:0;stroke-opacity:1;visibility:visible;display:inline;overflow:visible"
             id="path25925" />
          <path
             d="M -24.285714,84.505036 L -34.285714,84.505036"
             transform="matrix(-1,0,0,1,715.0713,0)"
             style="opacity:1;color:#000000;fill:#000000;fill-opacity:1;fill-rule:nonzero;stroke:#242424;stroke-width:5.87278696;stroke-linecap:round;stroke-linejoin:round;marker:none;marker-start:none;marker-mid:none;marker-end:none;stroke-miterlimit:4;stroke-dasharray:none;stroke-dashoffset:0;stroke-opacity:1;visibility:visible;display:inline;overflow:visible"
             id="path25927" />
          <path
             d="M -18.571429,120.93361 L -38.571429,126.64789"
             transform="matrix(-1,0,0,1,715.0713,0)"
             style="opacity:1;color:#000000;fill:#000000;fill-opacity:1;fill-rule:nonzero;stroke:#242424;stroke-width:5.87278696;stroke-linecap:round;stroke-linejoin:round;marker:none;marker-start:none;marker-mid:none;marker-end:none;stroke-miterlimit:4;stroke-dasharray:none;stroke-dashoffset:0;stroke-opacity:1;visibility:visible;display:inline;overflow:visible"
             id="path25929" />
          <path
             d="M -3.5714286,161.64789 L -26.428572,167.36218"
             transform="matrix(-1,0,0,1,715.0713,0)"
             style="opacity:1;color:#000000;fill:#000000;fill-opacity:1;fill-rule:nonzero;stroke:#242424;stroke-width:5.87278696;stroke-linecap:round;stroke-linejoin:round;marker:none;marker-start:none;marker-mid:none;marker-end:none;stroke-miterlimit:4;stroke-dasharray:none;stroke-dashoffset:0;stroke-opacity:1;visibility:visible;display:inline;overflow:visible"
             id="path25931" />
          <path
             d="M 11.428571,198.79075 L -7.8571429,210.93361"
             transform="matrix(-1,0,0,1,715.0713,0)"
             style="opacity:1;color:#000000;fill:#000000;fill-opacity:1;fill-rule:nonzero;stroke:#242424;stroke-width:5.87278696;stroke-linecap:round;stroke-linejoin:round;marker:none;marker-start:none;marker-mid:none;marker-end:none;stroke-miterlimit:4;stroke-dasharray:none;stroke-dashoffset:0;stroke-opacity:1;visibility:visible;display:inline;overflow:visible"
             id="path25933" />
          <path
             d="M 32.142857,231.64789 L 10,255.93361"
             transform="matrix(-1,0,0,1,715.0713,0)"
             style="opacity:1;color:#000000;fill:#000000;fill-opacity:1;fill-rule:nonzero;stroke:#242424;stroke-width:5.87278696;stroke-linecap:round;stroke-linejoin:round;marker:none;marker-start:none;marker-mid:none;marker-end:none;stroke-miterlimit:4;stroke-dasharray:none;stroke-dashoffset:0;stroke-opacity:1;visibility:visible;display:inline;overflow:visible"
             id="path25935" />
          <path
             d="M 67.857143,263.79075 L 50.714286,294.50504"
             transform="matrix(-1,0,0,1,715.0713,0)"
             style="opacity:1;color:#000000;fill:#000000;fill-opacity:1;fill-rule:nonzero;stroke:#242424;stroke-width:5.87278696;stroke-linecap:round;stroke-linejoin:round;marker:none;marker-start:none;marker-mid:none;marker-end:none;stroke-miterlimit:4;stroke-dasharray:none;stroke-dashoffset:0;stroke-opacity:1;visibility:visible;display:inline;overflow:visible"
             id="path25937" />
          <path
             d="M 119.28571,286.64789 L 105.71429,327.36218"
             transform="matrix(-1,0,0,1,715.0713,0)"
             style="opacity:1;color:#000000;fill:#000000;fill-opacity:1;fill-rule:nonzero;stroke:#242424;stroke-width:5.87278696;stroke-linecap:round;stroke-linejoin:round;marker:none;marker-start:none;marker-mid:none;marker-end:none;stroke-miterlimit:4;stroke-dasharray:none;stroke-dashoffset:0;stroke-opacity:1;visibility:visible;display:inline;overflow:visible"
             id="path25939" />
          <path
             d="M 175,308.07647 L 167.85714,340.93361"
             transform="matrix(-1,0,0,1,715.0713,0)"
             style="opacity:1;color:#000000;fill:#000000;fill-opacity:1;fill-rule:nonzero;stroke:#242424;stroke-width:5.87278696;stroke-linecap:round;stroke-linejoin:round;marker:none;marker-start:none;marker-mid:none;marker-end:none;stroke-miterlimit:4;stroke-dasharray:none;stroke-dashoffset:0;stroke-opacity:1;visibility:visible;display:inline;overflow:visible"
             id="path25941" />
          <path
             d="M -18.571429,-83.352108 C -64.781421,-89.951118 -121.15767,-92.31419 -146.42857,-107.63782"
             transform="matrix(-1,0,0,1,715.0713,0)"
             style="opacity:1;color:#000000;fill:#000000;fill-opacity:1;fill-rule:nonzero;stroke:#242424;stroke-width:5.87278696;stroke-linecap:round;stroke-linejoin:round;marker:none;marker-start:none;marker-mid:none;marker-end:none;stroke-miterlimit:4;stroke-dasharray:none;stroke-dashoffset:0;stroke-opacity:1;visibility:visible;display:inline;overflow:visible"
             id="path23254" />
        </g>
        <g
           transform="matrix(-1,0,0,1,713.714,0)"
           style="fill:#000000;fill-opacity:1;stroke:#242424;stroke-width:5.87278696;stroke-linecap:round;stroke-linejoin:round;stroke-miterlimit:4;stroke-dasharray:none;stroke-opacity:1"
           id="g26846">
          <path
             d="M -190.71429,7.3621785 C -148.17927,11.430804 -102.74765,2.464709 -56.428572,-10.494964"
             transform="matrix(-1,0,0,1,715.0713,0)"
             style="opacity:1;color:#000000;fill:#000000;fill-opacity:1;fill-rule:nonzero;stroke:#242424;stroke-width:5.87278696;stroke-linecap:round;stroke-linejoin:round;marker:none;marker-start:none;marker-mid:none;marker-end:none;stroke-miterlimit:4;stroke-dasharray:none;stroke-dashoffset:0;stroke-opacity:1;visibility:visible;display:inline;overflow:visible"
             id="path26848" />
          <path
             d="M -67.857143,58.79075 C -158.71649,150.45107 -174.57811,156.64886 -185,156.64789"
             transform="matrix(-1,0,0,1,715.0713,0)"
             style="opacity:1;color:#000000;fill:#000000;fill-opacity:1;fill-rule:nonzero;stroke:#242424;stroke-width:5.87278696;stroke-linecap:round;stroke-linejoin:round;marker:none;marker-start:none;marker-mid:none;marker-end:none;stroke-miterlimit:4;stroke-dasharray:none;stroke-dashoffset:0;stroke-opacity:1;visibility:visible;display:inline;overflow:visible"
             id="path26850" />
          <path
             d="M -189.28572,376.64789 C -154.9708,325.54306 -136.44046,307.02573 -46.428572,140.93361"
             transform="matrix(-1,0,0,1,715.0713,0)"
             style="opacity:1;color:#000000;fill:#000000;fill-opacity:1;fill-rule:nonzero;stroke:#242424;stroke-width:5.87278696;stroke-linecap:round;stroke-linejoin:round;marker:none;marker-start:none;marker-mid:none;marker-end:none;stroke-miterlimit:4;stroke-dasharray:none;stroke-dashoffset:0;stroke-opacity:1;visibility:visible;display:inline;overflow:visible"
             id="path26852" />
          <path
             d="M -112.85714,629.50504 C -76.540512,538.33051 -43.197415,392.6589 -8.5714286,269.36218"
             transform="matrix(-1,0,0,1,715.0713,0)"
             style="opacity:1;color:#000000;fill:#000000;fill-opacity:1;fill-rule:nonzero;stroke:#242424;stroke-width:5.87278696;stroke-linecap:round;stroke-linejoin:round;marker:none;marker-start:none;marker-mid:none;marker-end:none;stroke-miterlimit:4;stroke-dasharray:none;stroke-dashoffset:0;stroke-opacity:1;visibility:visible;display:inline;overflow:visible"
             id="path26854" />
          <path
             d="M 50,649.50504 C 59.352802,607.60818 72.672253,468.5951 85.714286,328.93361"
             transform="matrix(-1,0,0,1,715.0713,0)"
             style="opacity:1;color:#000000;fill:#000000;fill-opacity:1;fill-rule:nonzero;stroke:#242424;stroke-width:5.87278696;stroke-linecap:round;stroke-linejoin:round;marker:none;marker-start:none;marker-mid:none;marker-end:none;stroke-miterlimit:4;stroke-dasharray:none;stroke-dashoffset:0;stroke-opacity:1;visibility:visible;display:inline;overflow:visible"
             id="path26856" />
          <path
             d="M 177.85714,541.64789 L 177.85714,371.64789"
             transform="matrix(-1,0,0,1,715.0713,0)"
             style="opacity:1;color:#000000;fill:#000000;fill-opacity:1;fill-rule:nonzero;stroke:#242424;stroke-width:5.87278696;stroke-linecap:round;stroke-linejoin:round;marker:none;marker-start:none;marker-mid:none;marker-end:none;stroke-miterlimit:4;stroke-dasharray:none;stroke-dashoffset:0;stroke-opacity:1;visibility:visible;display:inline;overflow:visible"
             id="path26858" />
          <path
             d="M 232.85714,253.07647 C 235.01678,267.13269 235.39088,265.12169 237.14286,278.07647 C 95.798353,266.70317 -8.9186586,208.50231 -0.71428572,5.933607 C -15.16068,13.159729 -29.836653,20.845007 -25.714286,-9.066393 C -44.174064,-30.856546 -30.617259,-33.436749 -11.428571,-32.637822 C -21.962937,-45.397215 -10.728497,-75.449852 8.5714286,-49.066393 C 31.56835,-63.729571 52.178435,-48.221162 29.285714,-27.637822 C 52.105236,-27.484646 64.900073,-21.762201 53.571429,-2.6378216 L 42.857143,-1.9235358 C 49.165433,17.884508 39.67366,18.732476 27.142857,15.933607 L 20,9.5050356 C 7.477443,176.25732 93.304802,242.20095 232.85714,253.07647 z "
             transform="matrix(-1,0,0,1,715.0713,0)"
             style="opacity:1;color:#000000;fill:#000000;fill-opacity:1;fill-rule:nonzero;stroke:#242424;stroke-width:5.87278696;stroke-linecap:round;stroke-linejoin:round;marker:none;marker-start:none;marker-mid:none;marker-end:none;stroke-miterlimit:4;stroke-dasharray:none;stroke-dashoffset:0;stroke-opacity:1;visibility:visible;display:inline;overflow:visible"
             id="path26860" />
          <path
             d="M -22.857143,62.362179 C -48.731824,74.595148 -82.895578,86.451342 -27.857143,102.36218 C -63.896888,121.8471 -67.544474,138.09281 -8.5714286,148.07646 C -18.271345,146.12545 -111.8105,190.85448 4.2857143,181.64789 C -66.847289,244.47298 -15.69542,238.10397 16.428571,221.64789 C -45.659203,267.27799 5.4053492,291.5113 47.142857,257.36218 C -7.6480499,342.8087 73.212279,335.08828 87.142857,285.21932 C 68.243789,339.58841 119.42359,393.71521 142.85714,299.50504 C 137.98222,403.23296 195.73064,373.09157 205.71429,313.07647"
             transform="matrix(-1,0,0,1,715.0713,0)"
             style="opacity:1;color:#000000;fill:#000000;fill-opacity:1;fill-rule:nonzero;stroke:#242424;stroke-width:5.87278696;stroke-linecap:round;stroke-linejoin:round;marker:none;marker-start:none;marker-mid:none;marker-end:none;stroke-miterlimit:4;stroke-dasharray:none;stroke-dashoffset:0;stroke-opacity:1;visibility:visible;display:inline;overflow:visible"
             id="path26862" />
          <path
             d="M -24.285714,84.505036 L -34.285714,84.505036"
             transform="matrix(-1,0,0,1,715.0713,0)"
             style="opacity:1;color:#000000;fill:#000000;fill-opacity:1;fill-rule:nonzero;stroke:#242424;stroke-width:5.87278696;stroke-linecap:round;stroke-linejoin:round;marker:none;marker-start:none;marker-mid:none;marker-end:none;stroke-miterlimit:4;stroke-dasharray:none;stroke-dashoffset:0;stroke-opacity:1;visibility:visible;display:inline;overflow:visible"
             id="path26864" />
          <path
             d="M -18.571429,120.93361 L -38.571429,126.64789"
             transform="matrix(-1,0,0,1,715.0713,0)"
             style="opacity:1;color:#000000;fill:#000000;fill-opacity:1;fill-rule:nonzero;stroke:#242424;stroke-width:5.87278696;stroke-linecap:round;stroke-linejoin:round;marker:none;marker-start:none;marker-mid:none;marker-end:none;stroke-miterlimit:4;stroke-dasharray:none;stroke-dashoffset:0;stroke-opacity:1;visibility:visible;display:inline;overflow:visible"
             id="path26866" />
          <path
             d="M -3.5714286,161.64789 L -26.428572,167.36218"
             transform="matrix(-1,0,0,1,715.0713,0)"
             style="opacity:1;color:#000000;fill:#000000;fill-opacity:1;fill-rule:nonzero;stroke:#242424;stroke-width:5.87278696;stroke-linecap:round;stroke-linejoin:round;marker:none;marker-start:none;marker-mid:none;marker-end:none;stroke-miterlimit:4;stroke-dasharray:none;stroke-dashoffset:0;stroke-opacity:1;visibility:visible;display:inline;overflow:visible"
             id="path26868" />
          <path
             d="M 11.428571,198.79075 L -7.8571429,210.93361"
             transform="matrix(-1,0,0,1,715.0713,0)"
             style="opacity:1;color:#000000;fill:#000000;fill-opacity:1;fill-rule:nonzero;stroke:#242424;stroke-width:5.87278696;stroke-linecap:round;stroke-linejoin:round;marker:none;marker-start:none;marker-mid:none;marker-end:none;stroke-miterlimit:4;stroke-dasharray:none;stroke-dashoffset:0;stroke-opacity:1;visibility:visible;display:inline;overflow:visible"
             id="path26870" />
          <path
             d="M 32.142857,231.64789 L 10,255.93361"
             transform="matrix(-1,0,0,1,715.0713,0)"
             style="opacity:1;color:#000000;fill:#000000;fill-opacity:1;fill-rule:nonzero;stroke:#242424;stroke-width:5.87278696;stroke-linecap:round;stroke-linejoin:round;marker:none;marker-start:none;marker-mid:none;marker-end:none;stroke-miterlimit:4;stroke-dasharray:none;stroke-dashoffset:0;stroke-opacity:1;visibility:visible;display:inline;overflow:visible"
             id="path26872" />
          <path
             d="M 67.857143,263.79075 L 50.714286,294.50504"
             transform="matrix(-1,0,0,1,715.0713,0)"
             style="opacity:1;color:#000000;fill:#000000;fill-opacity:1;fill-rule:nonzero;stroke:#242424;stroke-width:5.87278696;stroke-linecap:round;stroke-linejoin:round;marker:none;marker-start:none;marker-mid:none;marker-end:none;stroke-miterlimit:4;stroke-dasharray:none;stroke-dashoffset:0;stroke-opacity:1;visibility:visible;display:inline;overflow:visible"
             id="path26874" />
          <path
             d="M 119.28571,286.64789 L 105.71429,327.36218"
             transform="matrix(-1,0,0,1,715.0713,0)"
             style="opacity:1;color:#000000;fill:#000000;fill-opacity:1;fill-rule:nonzero;stroke:#242424;stroke-width:5.87278696;stroke-linecap:round;stroke-linejoin:round;marker:none;marker-start:none;marker-mid:none;marker-end:none;stroke-miterlimit:4;stroke-dasharray:none;stroke-dashoffset:0;stroke-opacity:1;visibility:visible;display:inline;overflow:visible"
             id="path26876" />
          <path
             d="M 175,308.07647 L 167.85714,340.93361"
             transform="matrix(-1,0,0,1,715.0713,0)"
             style="opacity:1;color:#000000;fill:#000000;fill-opacity:1;fill-rule:nonzero;stroke:#242424;stroke-width:5.87278696;stroke-linecap:round;stroke-linejoin:round;marker:none;marker-start:none;marker-mid:none;marker-end:none;stroke-miterlimit:4;stroke-dasharray:none;stroke-dashoffset:0;stroke-opacity:1;visibility:visible;display:inline;overflow:visible"
             id="path26878" />
          <path
             d="M 732.21413,-83.352108 C 778.42412,-89.951118 834.80037,-92.31419 860.07127,-107.63782"
             style="opacity:1;color:#000000;fill:#000000;fill-opacity:1;fill-rule:nonzero;stroke:#242424;stroke-width:5.87278696;stroke-linecap:round;stroke-linejoin:round;marker:none;marker-start:none;marker-mid:none;marker-end:none;stroke-miterlimit:4;stroke-dasharray:none;stroke-dashoffset:0;stroke-opacity:1;visibility:visible;display:inline;overflow:visible"
             id="path28728" />
        </g>
      </g>
    </g>
    <g
       style="fill:#e20909;fill-opacity:1;stroke:#000000;stroke-width:5.87278696;stroke-linecap:round;stroke-linejoin:round;stroke-miterlimit:4;stroke-dasharray:none;stroke-opacity:1"
       id="g12559"
       transform="matrix(-0.4238207,0,0,0.4275721,445.07958,91.211429)">
      <path
         d="M -54.394146,887.55938 C -54.300237,886.98393 -53.49643,863.97911 -53.5109,864.17795 C -53.52537,864.37678 -83.42635,863.38675 -88.580084,864.48824 C -97.384081,866.36987 -102.4149,875.39377 -101.01525,891.24285 C -100.21008,896.4986 -99.675194,902.02462 -94.95434,903.36468 C -90.172402,881.35537 -84.363472,886.2716 -79.289977,886.34904 C -73.159213,886.44261 -54.488055,888.13483 -54.394146,887.55938 z "
         style="opacity:1;color:#000000;fill:#e20909;fill-opacity:1;fill-rule:nonzero;stroke:#000000;stroke-width:5.87278696;stroke-linecap:round;stroke-linejoin:round;marker:none;marker-start:none;marker-mid:none;marker-end:none;stroke-miterlimit:4;stroke-dasharray:none;stroke-dashoffset:0;stroke-opacity:1;visibility:visible;display:inline;overflow:visible"
         id="path12561" />
      <path
         d="M 10,792.00504 L -5.7142857,807.71932 L -21.785714,797.00504 C -27.043162,791.93823 -36.202744,790.72221 -48.214286,793.43361 C -35.924243,769.58429 -10.155701,770.84553 -3.9285715,779.50504 L 10,792.00504 z "
         style="opacity:1;color:#000000;fill:#e20909;fill-opacity:1;fill-rule:nonzero;stroke:#000000;stroke-width:5.87278696;stroke-linecap:round;stroke-linejoin:round;marker:none;marker-start:none;marker-mid:none;marker-end:none;stroke-miterlimit:4;stroke-dasharray:none;stroke-dashoffset:0;stroke-opacity:1;visibility:visible;display:inline;overflow:visible"
         id="path12563" />
      <path
         d="M 5.7142857,959.1479 C 18.717513,955.99352 10.534175,920.59187 -6.7857143,933.43361 C -24.105604,946.27535 -43.119976,955.38129 -22.5,985.21933 C -21.456816,963.66489 -7.2889414,962.30228 5.7142857,959.1479 z "
         style="opacity:1;color:#000000;fill:#e20909;fill-opacity:1;fill-rule:nonzero;stroke:#000000;stroke-width:5.87278696;stroke-linecap:round;stroke-linejoin:round;marker:none;marker-start:none;marker-mid:none;marker-end:none;stroke-miterlimit:4;stroke-dasharray:none;stroke-dashoffset:0;stroke-opacity:1;visibility:visible;display:inline;overflow:visible"
         id="path12565" />
      <path
         d="M 162.85714,879.50504 C 193.26442,862.0453 210.18788,865.77442 213.92857,890.21932 C 197.76847,882.4429 187.25206,887.20801 179.64286,898.43361"
         style="opacity:1;color:#000000;fill:#e20909;fill-opacity:1;fill-rule:nonzero;stroke:#000000;stroke-width:5.87278696;stroke-linecap:round;stroke-linejoin:round;marker:none;marker-start:none;marker-mid:none;marker-end:none;stroke-miterlimit:4;stroke-dasharray:none;stroke-dashoffset:0;stroke-opacity:1;visibility:visible;display:inline;overflow:visible"
         id="path12567" />
    </g>
    <path
       d="M 340.94078,389.07872 L 355.47178,381.74892 L 408.14663,454.7416 C 411.73551,449.51866 414.45036,441.65041 417.53124,434.89004 L 442.78315,425.90668 C 446.62327,428.57186 450.40364,433.16435 453.68139,438.73383 C 451.38447,441.21485 448.54015,442.03905 445.68504,442.83066 C 441.85048,440.72613 438.01592,439.91854 434.18134,440.6928 C 429.49131,446.97799 428.02077,451.63918 425.40221,456.87946 C 432.50838,455.00579 441.28902,451.38742 452.80994,446.72685 C 459.16173,450.50456 466.04575,455.40295 474.00096,456.4846 C 473.2969,457.90129 472.85303,459.28517 472.60359,460.64452 C 471.7754,465.15774 473.09041,469.4007 474.14157,473.67694 C 472.33526,477.54243 469.56602,476.20879 467.7108,476.90994 C 456.78691,467.91281 456.13431,466.13581 450.45525,465.91523 C 439.04553,466.21403 435.23551,467.36474 428.42949,468.17958 C 434.69271,474.99351 441.94597,482.75806 450.52871,485.28248 C 451.74541,487.28264 451.61603,489.7355 451.13416,492.30687 C 443.83656,497.22712 447.17807,500.0279 447.32408,503.87536 C 446.48889,505.01034 444.08962,505.09339 441.57223,505.09699 C 435.62881,495.80027 432.23515,495.93543 427.82403,492.30687 C 424.68371,488.73156 423.73235,484.32802 420.54281,481.91234 C 409.70448,473.70362 400.07427,470.97797 391.37115,472.14989 C 380.89046,476.41124 374.76944,478.57684 367.27821,478.8689 C 367.02344,477.34689 365.55236,477.84713 366.33331,474.23535 C 369.36059,473.76201 372.38789,467.69209 375.41518,463.54605 C 382.70696,463.49008 390.55816,464.5628 395.12929,459.01732 L 340.94078,389.07872 z "
       style="color:#000000;fill:#000000;fill-opacity:1;fill-rule:nonzero;stroke:#242424;stroke-width:2.5;stroke-linecap:round;stroke-linejoin:round;marker:none;marker-start:none;marker-mid:none;marker-end:none;stroke-miterlimit:4;stroke-dasharray:none;stroke-dashoffset:0;stroke-opacity:1;visibility:visible;display:inline;overflow:visible"
       id="path12569" />
    <path
       d="M 296.39818,74.490085 C 300.42443,75.819346 302.4694,61.250433 291.90287,64.124167 C 261.50112,74.251814 241.53213,79.366718 238.81557,60.020992 C 237.36409,54.731306 227.95914,51.693276 230.46716,62.180558 C 244.17117,94.836029 268.40752,67.596203 296.39818,74.490085 z "
       style="color:#000000;fill:#e20909;fill-opacity:1;fill-rule:nonzero;stroke:#000000;stroke-width:2.5;stroke-linecap:butt;stroke-linejoin:round;marker:none;marker-start:none;marker-mid:none;marker-end:none;stroke-miterlimit:4;stroke-dasharray:none;stroke-dashoffset:0;stroke-opacity:1;visibility:visible;display:inline;overflow:visible"
       id="path32275" />
    <path
       d="M 320.15903,51.598685 L 303.67627,98.245306 C 278.12796,86.168686 262.36811,83.041376 255.08426,87.663436 C 259.62439,81.755687 265.46878,70.56066 297.04037,83.560259 C 292.25518,69.258814 256.03532,54.026859 249.30458,69.739043 C 239.95029,47.491131 249.73964,37.349931 278.63105,39.289159 L 320.15903,51.598685 z "
       style="color:#000000;fill:#000000;fill-opacity:1;fill-rule:nonzero;stroke:#242424;stroke-width:2.5;stroke-linecap:round;stroke-linejoin:round;marker:none;marker-start:none;marker-mid:none;marker-end:none;stroke-miterlimit:4;stroke-dasharray:none;stroke-dashoffset:0;stroke-opacity:1;visibility:visible;display:inline;overflow:visible"
       id="path31388" />
    <path
       id="path13458"
       style="color:#000000;fill:#000000;fill-opacity:1;fill-rule:nonzero;stroke:#242424;stroke-width:2.5;stroke-linecap:butt;stroke-linejoin:round;marker:none;marker-start:none;marker-mid:none;marker-end:none;stroke-miterlimit:4;stroke-dasharray:none;stroke-dashoffset:0;stroke-opacity:1;visibility:visible;display:inline;overflow:visible"
       d="M 252.08739,172.75033 C 224.69003,181.57712 246.36176,177.34051 244.89885,179.26291 C 227.78635,184.79196 238.84221,247.55517 250.95343,334.10514 C 248.63251,343.92041 246.31159,348.90415 243.99066,353.95672 C 240.01864,359.22649 232.0776,369.75137 220.3778,379.00024 L 224.91874,381.4435 L 218.56144,388.1625 C 228.82859,395.18509 244.81445,391.24603 247.92615,411.98437 C 248.4511,394.99514 251.61004,404.79921 255.19165,408.62487 C 255.76907,384.03951 265.94864,375.18063 274.26358,364.64603 C 274.91221,377.17208 281.13343,399.98057 262.75986,420.53582 C 248.39423,427.48319 233.6969,425.39571 220.07507,452.60373 C 229.46195,450.1611 228.17758,444.70409 255.79709,447.41179 L 273.35538,437.02788 C 269.73221,449.92033 277.54773,461.46931 231.5788,482.83921 C 199.07837,490.33365 176.29361,504.36253 165.58383,526.51267 C 183.33084,517.61696 202.0942,511.93391 226.12965,507.2719 C 251.53591,493.05157 257.16452,484.01935 270.02536,470.92827 C 266.37107,480.86126 264.38054,489.45145 257.00802,502.38536 C 241.54266,517.98809 220.24373,525.81396 226.12965,569.88067 C 245.60567,538.37048 260.13178,542.92661 280.92361,468.48499 C 284.55891,484.76703 288.4134,500.49623 285.76727,532.62083 C 281.02517,547.93174 281.62858,561.08546 265.78716,580.87539 L 280.31816,577.2105 L 293.8047,618.25745 L 307.29124,577.2105 L 321.82225,580.87539 C 305.98084,561.08546 306.58424,547.93174 301.84213,532.62083 C 299.196,500.49623 303.0505,484.76703 306.6858,468.48499 C 327.47764,542.92661 342.00375,538.37048 361.47975,569.88067 C 367.36568,525.81396 346.06675,517.98809 330.60139,502.38536 C 323.22886,489.45145 321.23833,480.86126 317.58405,470.92827 C 330.44488,484.01935 336.07349,493.05157 361.47975,507.2719 C 385.5152,511.93391 404.27856,517.61696 422.02557,526.51267 C 411.31579,504.36253 388.53104,490.33365 356.03062,482.83921 C 310.06167,461.46931 317.8772,449.92033 314.25403,437.02788 L 331.81232,447.41179 C 359.43183,444.70409 358.14746,450.1611 367.53435,452.60373 C 353.91251,425.39571 339.21517,427.48319 324.84954,420.53582 C 306.47597,399.98057 312.69719,377.17208 313.34583,364.64603 C 321.66078,375.18063 331.84032,384.03951 332.41777,408.62487 C 335.99938,404.79921 339.1583,394.99514 339.68326,411.98437 C 342.79495,391.24603 358.78081,395.18509 369.04798,388.1625 L 362.69067,381.4435 L 367.23161,379.00024 C 355.53181,369.75137 347.59078,359.22649 343.61875,353.95672 C 341.29781,348.90415 338.97691,343.92041 336.65597,334.10514 C 348.76721,247.55517 359.82305,184.79196 342.71056,179.26291 C 338.9629,177.23951 346.42749,180.67547 337.53476,176.5481 C 357.26103,180.53829 348.37393,178.58199 342.2074,173.83012 C 323.92433,155.69992 338.58946,165.79236 343.79449,166.47675 C 330.61785,143.30163 337.38361,130.28745 340.06678,121.35266 L 344.13395,132.5824 L 348.9687,110.93436 L 358.04796,119.19309 C 356.21469,109.58854 354.58303,99.635322 350.01304,94.76381 C 357.63528,96.510159 363.04581,96.401311 363.98001,95.940652 C 365.96388,94.9624 355.95508,90.712004 355.57865,83.750008 C 362.07963,84.490475 365.20575,83.401068 370.15848,77.845809 C 371.67121,76.149044 363.09381,79.662058 363.4622,78.556214 C 344.54812,60.80863 361.99998,69.291962 362.70983,65.762372 C 335.90566,50.97809 356.67059,55.795442 355.34307,51.509232 C 335.42253,42.62391 342.86432,47.31926 350.99913,36.023611 C 346.43502,37.335099 339.92479,39.169643 331.50429,37.777464 C 331.56786,36.073589 316.51942,31.933933 293.03217,31.458378 C 284.82772,31.292258 279.38934,31.936018 278.8451,40.152987 C 308.99436,75.857479 308.74228,89.848389 293.40132,93.062354 C 297.03997,100.39054 299.61302,104.67033 298.51767,106.9669 C 296.67386,110.83265 286.80837,114.19952 265.29207,126.47237 C 275.42188,130.02136 297.48267,118.56227 265.38519,139.79843 C 244.40516,149.80419 260.75358,145.85259 267.71391,145.5398 C 262.56468,153.25426 256.70475,160.90354 247.16398,168.21525 L 252.08739,172.75033 z " />
    <path
       style="fill:#414141;fill-opacity:1;fill-rule:evenodd;stroke:none;stroke-width:2.5;stroke-linecap:butt;stroke-linejoin:miter;stroke-miterlimit:4;stroke-dasharray:none;stroke-opacity:1"
       d="M 303.60168,42.466956 L 296.32016,43.87296 L 296.9821,48.090974 L 301.35103,52.564626 L 307.30865,52.692445 L 310.61842,48.857887 L 312.07473,45.662422 L 309.42689,41.955682 L 303.60168,42.466956 z "
       id="path7324" />
    <g
       id="g17940"
       style="fill:#000000;fill-opacity:1;stroke:none;stroke-width:5.87278557;stroke-miterlimit:4;stroke-dasharray:none;stroke-opacity:1"
       transform="matrix(-0.354066,-0.2740055,-0.2434098,0.3234379,421.99599,182.75063)">
      <path
         id="path16160"
         style="color:#000000;fill:#000000;fill-opacity:1;fill-rule:nonzero;stroke:none;stroke-width:5.87278557;stroke-linecap:butt;stroke-linejoin:round;marker:none;stroke-miterlimit:4;stroke-dasharray:none;stroke-dashoffset:0;stroke-opacity:1;visibility:visible;display:inline;overflow:visible"
         d="M 381.08067,-98.797246 C 380.47779,-95.234676 378.86746,-88.645427 378.84604,-85.826141 C 378.79147,-78.6438 381.43178,-79.421963 385.73114,-74.550612 C 391.84879,-67.619056 395.15753,-70.73836 405.95141,-73.239123 C 410.27838,-74.241612 410.73599,-64.899245 411.15625,-64.763393 C 412.15671,-64.43998 414.31214,-62.362908 414.76513,-64.594451 C 414.93635,-65.437872 414.71094,-67.122935 415.34702,-68.247634 C 416.61615,-70.491638 415.58736,-72.030312 414.36688,-76.504033 C 413.24656,-80.610592 411.65134,-80.869092 409.8061,-83.876097 C 407.72644,-87.265115 404.70878,-90.582763 401.52059,-93.561444 C 396.39977,-98.345754 394.63078,-103.63254 386.56079,-104.42721 C 385.57478,-104.5243 383.66558,-109.29819 382.82106,-109.65204 C 379.47876,-108.07468 381.27019,-105.70023 381.08067,-98.797246 z M 385.08929,-96.830357 C 390.66244,-95.181981 394.40136,-93.862004 397.70001,-91.688477 C 398.53494,-91.138328 399.5088,-90.784192 400.28125,-90.0625 C 400.52191,-89.837653 400.15304,-89.379169 399.89169,-89.225593 C 399.27735,-88.864586 398.03509,-87.80424 395.28844,-88.818922 C 394.20881,-89.217764 396.17705,-92.03807 395.92952,-92.595357 C 394.99162,-94.706878 390.45165,-97.507888 389.13174,-95.191665 C 383.33822,-85.025012 389.56747,-80.078758 395.31254,-80.753465 C 397.38152,-80.996448 402.26728,-83.5168 403.74336,-82.702634 C 406.33267,-81.274438 404.67806,-78.188426 404.80804,-78.196429 C 395.5454,-75.21121 393.31211,-73.926428 388.12054,-78.049107 C 384.54018,-80.892298 380.73988,-81.97701 385.08929,-96.830357 z "
         sodipodi:nodetypes="csssssssssscccsssssssscsc" />
    </g>
  </g>
  <g
     inkscape:groupmode="layer"
     id="layer4"
     inkscape:label="Meubles"
     sodipodi:insensitive="true" />
  <g
     inkscape:groupmode="layer"
     id="layer2"
     inkscape:label="Reflet final"
     sodipodi:insensitive="true">
    <path
       sodipodi:nodetypes="cccccc"
       d="M 300.00001,658.5 C 300.00001,658.5 598.50001,546.17969 598.50001,260.72817 C 598.50001,-24.723334 598.50001,2.1764865 598.50001,2.1764865 L 1.5,2.1764865 L 1.5,260.72817 C 1.5,546.17969 300.00001,658.5 300.00001,658.5 z "
       style="opacity:1;fill:url(#radialGradient3163);fill-opacity:1;fill-rule:evenodd;stroke:none;stroke-width:1px;stroke-linecap:butt;stroke-linejoin:miter;stroke-opacity:1"
       id="path2875"
       inkscape:export-xdpi="144"
       inkscape:export-ydpi="144" />
  </g>
  <g
     inkscape:groupmode="layer"
     id="layer1"
     inkscape:label="Contour final"
     sodipodi:insensitive="true">
    <path
       sodipodi:nodetypes="cccccc"
       d="M 299.99999,658.50028 C 299.99999,658.50028 1.5,546.17992 1.5,260.72828 C 1.5,-24.723336 1.5,2.1764957 1.5,2.1764957 L 598.49999,2.1764957 L 598.49999,260.72828 C 598.49999,546.17992 299.99999,658.50028 299.99999,658.50028 z "
       style="opacity:1;fill:none;fill-opacity:1;fill-rule:evenodd;stroke:#000000;stroke-width:3.00000048;stroke-linecap:butt;stroke-linejoin:miter;stroke-miterlimit:4;stroke-dasharray:none;stroke-opacity:1"
       id="path1411"
       inkscape:export-xdpi="144"
       inkscape:export-ydpi="144" />
  </g>
</svg>
