<?xml version="1.0" encoding="UTF-8" standalone="no"?>
<svg
   xmlns:dc="http://purl.org/dc/elements/1.1/"
   xmlns:cc="http://creativecommons.org/ns#"
   xmlns:rdf="http://www.w3.org/1999/02/22-rdf-syntax-ns#"
   xmlns:svg="http://www.w3.org/2000/svg"
   xmlns="http://www.w3.org/2000/svg"
   xmlns:xlink="http://www.w3.org/1999/xlink"
   xmlns:sodipodi="http://sodipodi.sourceforge.net/DTD/sodipodi-0.dtd"
   xmlns:inkscape="http://www.inkscape.org/namespaces/inkscape"
   height="660"
   width="600"
   version="1.0"
   id="svg2"
   sodipodi:version="0.32"
   inkscape:version="0.46"
   sodipodi:docname="Reignac-sur-Indre (37).svg"
   sodipodi:docbase="C:\Documents and Settings\Bruno Vallette\Mes documents\Perso\Wikipédia Blasons\Communes BVA"
   inkscape:export-filename="/Users/olivier/Desktop/Blason Rouge/Blason_Vide_3D.png"
   inkscape:export-xdpi="144"
   inkscape:export-ydpi="144"
   inkscape:output_extension="org.inkscape.output.svg.inkscape">
  <metadata
     id="metadata49">
    <rdf:RDF>
      <cc:Work
         rdf:about="">
        <dc:format>image/svg+xml</dc:format>
        <dc:type
           rdf:resource="http://purl.org/dc/dcmitype/StillImage" />
        <dc:title>Gabarit d'un blason en pointe pour le projet Blasons de Wikipédia</dc:title>
        <dc:date>03-AUG-2006</dc:date>
        <dc:creator>
          <cc:Agent>
            <dc:title>Jérôme BLUM (wagner51)</dc:title>
          </cc:Agent>
        </dc:creator>
        <cc:license
           rdf:resource="http://web.resource.org/cc/PublicDomain" />
        <dc:language>fr</dc:language>
        <dc:subject>
          <rdf:Bag>
            <rdf:li>gabarit modèle blason projet wikipédia</rdf:li>
          </rdf:Bag>
        </dc:subject>
      </cc:Work>
      <cc:License
         rdf:about="http://web.resource.org/cc/PublicDomain">
        <cc:permits
           rdf:resource="http://web.resource.org/cc/Reproduction" />
        <cc:permits
           rdf:resource="http://web.resource.org/cc/Distribution" />
        <cc:permits
           rdf:resource="http://web.resource.org/cc/DerivativeWorks" />
      </cc:License>
    </rdf:RDF>
  </metadata>
  <sodipodi:namedview
     inkscape:window-height="712"
     inkscape:window-width="1024"
     inkscape:pageshadow="2"
     inkscape:pageopacity="0.0"
     guidetolerance="10.0"
     gridtolerance="10.0"
     objecttolerance="10.0"
     borderopacity="1.0"
     bordercolor="#666666"
     pagecolor="#ffffff"
     id="base"
     showgrid="false"
     height="660px"
     inkscape:zoom="0.8"
     inkscape:cx="299.99986"
     inkscape:cy="330"
     inkscape:window-x="0"
     inkscape:window-y="22"
     inkscape:current-layer="g4706" />
  <desc
     id="desc4">Flag of Canton of Valais (Wallis)</desc>
  <defs
     id="defs6">
    <inkscape:perspective
       sodipodi:type="inkscape:persp3d"
       inkscape:vp_x="0 : 330 : 1"
       inkscape:vp_y="0 : 1000 : 0"
       inkscape:vp_z="600 : 330 : 1"
       inkscape:persp3d-origin="300 : 220 : 1"
       id="perspective48" />
    <linearGradient
       id="linearGradient2214">
      <stop
         style="stop-color:black;stop-opacity:1;"
         offset="0"
         id="stop2216" />
      <stop
         style="stop-color:white;stop-opacity:0;"
         offset="1"
         id="stop2218" />
    </linearGradient>
    <linearGradient
       id="linearGradient2893">
      <stop
         style="stop-color:white;stop-opacity:0.3137255;"
         offset="0"
         id="stop2895" />
      <stop
         id="stop2897"
         offset="0.19"
         style="stop-color:white;stop-opacity:0.25098041;" />
      <stop
         style="stop-color:#6b6b6b;stop-opacity:0.1254902;"
         offset="0.60000002"
         id="stop2901" />
      <stop
         style="stop-color:black;stop-opacity:0.1254902;"
         offset="1"
         id="stop2899" />
    </linearGradient>
    <linearGradient
       id="linearGradient2885">
      <stop
         id="stop2887"
         offset="0"
         style="stop-color:white;stop-opacity:1;" />
      <stop
         style="stop-color:white;stop-opacity:1;"
         offset="0.22857143"
         id="stop2891" />
      <stop
         id="stop2889"
         offset="1"
         style="stop-color:black;stop-opacity:1;" />
    </linearGradient>
    <linearGradient
       id="linearGradient2955">
      <stop
         id="stop2867"
         offset="0"
         style="stop-color:#fd0000;stop-opacity:1;" />
      <stop
         style="stop-color:#e77275;stop-opacity:0.65882355;"
         offset="0.5"
         id="stop2873" />
      <stop
         style="stop-color:black;stop-opacity:0.32291666;"
         offset="1"
         id="stop2959" />
    </linearGradient>
    <radialGradient
       inkscape:collect="always"
       xlink:href="#linearGradient2955"
       id="radialGradient2961"
       cx="225.52438"
       cy="218.90099"
       fx="225.52438"
       fy="218.90099"
       r="300"
       gradientTransform="matrix(-4.167939e-4,2.182867,-1.884232,-3.599562e-4,615.5972,-289.1214)"
       gradientUnits="userSpaceOnUse" />
    <polygon
       id="star"
       transform="scale(53,53)"
       points="0,-1 0.58778525,0.80901699 -0.95105652,-0.30901699 0.95105652,-0.30901699 -0.58778525,0.80901699 0,-1 " />
    <clipPath
       id="clip">
      <path
         d="M 0,-200 L 0,600 L 300,600 L 300,-200 L 0,-200 z "
         id="path10" />
    </clipPath>
    <radialGradient
       inkscape:collect="always"
       xlink:href="#linearGradient2955"
       id="radialGradient1911"
       gradientUnits="userSpaceOnUse"
       gradientTransform="matrix(-4.167939e-4,2.182867,-1.884232,-3.599562e-4,615.5972,-289.1214)"
       cx="225.52438"
       cy="218.90099"
       fx="225.52438"
       fy="218.90099"
       r="300" />
    <radialGradient
       inkscape:collect="always"
       xlink:href="#linearGradient2955"
       id="radialGradient2865"
       gradientUnits="userSpaceOnUse"
       gradientTransform="matrix(0,1.748721,-1.593162,-1.049767e-7,551.7876,-191.2898)"
       cx="225.52438"
       cy="218.90099"
       fx="225.52438"
       fy="218.90099"
       r="300" />
    <radialGradient
       inkscape:collect="always"
       xlink:href="#linearGradient2955"
       id="radialGradient2871"
       gradientUnits="userSpaceOnUse"
       gradientTransform="matrix(0,1.386237,-1.323286,-5.741131e-8,-158.0823,-109.5408)"
       cx="225.52438"
       cy="218.90099"
       fx="225.52438"
       fy="218.90099"
       r="300" />
    <radialGradient
       inkscape:collect="always"
       xlink:href="#linearGradient2893"
       id="radialGradient3163"
       gradientUnits="userSpaceOnUse"
       gradientTransform="matrix(1.353218,0,0,1.348928,-77.62935,-85.74693)"
       cx="221.44487"
       cy="226.33101"
       fx="221.44487"
       fy="226.33101"
       r="300" />
    <linearGradient
       id="linearGradient3546">
      <stop
         id="stop3548"
         offset="0"
         style="stop-color:white;stop-opacity:0.3137255;" />
      <stop
         style="stop-color:white;stop-opacity:0.25098041;"
         offset="0.19"
         id="stop3550" />
      <stop
         id="stop3552"
         offset="0.60000002"
         style="stop-color:#6b6b6b;stop-opacity:0.1254902;" />
      <stop
         id="stop3554"
         offset="1"
         style="stop-color:black;stop-opacity:0.1254902;" />
    </linearGradient>
    <inkscape:perspective
       id="perspective3543"
       inkscape:persp3d-origin="300 : 220 : 1"
       inkscape:vp_z="600 : 330 : 1"
       inkscape:vp_y="0 : 1000 : 0"
       inkscape:vp_x="0 : 330 : 1"
       sodipodi:type="inkscape:persp3d" />
    <radialGradient
       gradientTransform="matrix(1.353218,0,0,1.348928,-77.62935,-85.74693)"
       gradientUnits="userSpaceOnUse"
       xlink:href="#linearGradient2893"
       id="radialGradient4431"
       fy="226.33101"
       fx="221.44487"
       r="300"
       cy="226.33101"
       cx="221.44487" />
    <linearGradient
       id="linearGradient4421">
      <stop
         id="stop4423"
         offset="0"
         style="stop-color:#ffffff;stop-opacity:0.3137255" />
      <stop
         id="stop4425"
         offset="0.19"
         style="stop-color:#ffffff;stop-opacity:0.25098041" />
      <stop
         id="stop4427"
         offset="0.60000002"
         style="stop-color:#6b6b6b;stop-opacity:0.1254902" />
      <stop
         id="stop4429"
         offset="1"
         style="stop-color:#000000;stop-opacity:0.1254902" />
    </linearGradient>
    <inkscape:perspective
       id="perspective4418"
       inkscape:persp3d-origin="300 : 220 : 1"
       inkscape:vp_z="600 : 330 : 1"
       inkscape:vp_y="0 : 1000 : 0"
       inkscape:vp_x="0 : 330 : 1"
       sodipodi:type="inkscape:persp3d" />
    <inkscape:perspective
       id="perspective27695"
       inkscape:persp3d-origin="372.04724 : 350.78739 : 1"
       inkscape:vp_z="744.09448 : 526.18109 : 1"
       inkscape:vp_y="0 : 1000 : 0"
       inkscape:vp_x="0 : 526.18109 : 1"
       sodipodi:type="inkscape:persp3d" />
  </defs>
  <g
     inkscape:groupmode="layer"
     id="layer3"
     inkscape:label="Fond écu"
     style="display:inline">
    <path
       id="path2855"
       style="fill:#e20909;fill-opacity:1;fill-rule:evenodd;stroke:black;stroke-width:3;stroke-linecap:butt;stroke-linejoin:miter;stroke-miterlimit:4;stroke-dasharray:none;stroke-opacity:1"
       d="M 300,658.5 C 300,658.5 598.50001,546.17969 598.50001,260.72817 C 598.50001,-24.723354 598.50001,2.1764765 598.50001,2.1764765 L 1.5,2.1764765 L 1.5,260.72817 C 1.5,546.17969 300,658.5 300,658.5 z "
       sodipodi:nodetypes="cccccc" />
    <path
       d="M 1.5,93.09375 L 1.5,187.09375 L 598.5,187.09375 C 598.5,137.98658 598.5,101.46652 598.5,93.09375 L 1.5,93.09375 z M 2.03125,281.65625 C 3.799167,315.51541 9.8399819,346.81851 19,375.65625 L 581,375.65625 C 590.16002,346.8185 596.20083,315.51541 597.96875,281.65625 L 2.03125,281.65625 z M 64.4375,470.1875 C 89.039556,507.44379 118.3865,538.60252 147.90625,564.1875 L 452.09375,564.1875 C 481.6135,538.60252 510.96044,507.4438 535.5625,470.1875 L 64.4375,470.1875 z "
       style="color:black;fill:#ffffff;fill-opacity:1;fill-rule:nonzero;stroke:black;stroke-width:3;stroke-linecap:butt;stroke-linejoin:miter;marker:none;marker-start:none;marker-mid:none;marker-end:none;stroke-miterlimit:4;stroke-dasharray:none;stroke-dashoffset:0;stroke-opacity:1;visibility:visible;display:inline;overflow:visible"
       id="rect5567" />
    <g
       id="g3556"
       transform="translate(-19.131462,-1.02907)"
       style="stroke:#000000;stroke-width:3;stroke-miterlimit:4;stroke-dasharray:none">
      <g
         style="opacity:1;stroke:#000000;stroke-width:3;stroke-miterlimit:4;stroke-dasharray:none;display:inline"
         inkscape:label="Fond écu"
         id="g3558" />
      <g
         style="stroke:#000000;stroke-width:3;stroke-miterlimit:4;stroke-dasharray:none;display:inline"
         inkscape:label="Demi-Azur"
         id="layer6">
        <path
           sodipodi:nodetypes="cccccc"
           id="path3332"
           d="M 319.22721,658.2669 L 318.93911,2.8767981 L 21.028293,3.2736235 L 20.631462,260.63484 C 20.631462,534.67004 295.82131,650.17991 317.83314,658.98096 L 319.22721,658.2669 z"
           style="opacity:1;fill:#2b5df2;fill-opacity:1;fill-rule:evenodd;stroke:#000000;stroke-width:3;stroke-linecap:butt;stroke-linejoin:miter;stroke-miterlimit:4;stroke-dasharray:none;stroke-opacity:1;display:inline" />
      </g>
      <g
         style="stroke:#000000;stroke-width:3;stroke-miterlimit:4;stroke-dasharray:none;display:inline"
         inkscape:label="Meubles"
         id="g3562" />
      <g
         style="stroke:#000000;stroke-width:3;stroke-miterlimit:4;stroke-dasharray:none;display:inline"
         inkscape:label="Reflet final"
         id="g3564" />
      <g
         inkscape:label="Contour final"
         id="g3566"
         style="stroke:#000000;stroke-width:3;stroke-miterlimit:4;stroke-dasharray:none" />
    </g>
  </g>
  <g
     inkscape:groupmode="layer"
     id="layer4"
     inkscape:label="Meubles"
     style="display:inline">
    <g
       id="g4553"
       transform="translate(1.5209274,-16.299868)">
      <g
         transform="translate(-7.0710678,-38.00699)"
         id="g4452">
        <g
           transform="matrix(1.4267902,0,0,1.4267902,-286.44972,-138.08432)"
           style="display:inline"
           id="g2596">
          <path
             d="M 246.47722,237.67415 L 245.08826,270.63038 C 246.55255,275.50447 248.10935,280.35544 250.89663,284.89878 C 251.77847,288.85658 255.00359,293.20099 257.08382,292.98001 C 260.72767,292.59292 263.59843,288.70204 264.1549,284.77252 C 267.83586,280.63397 269.36567,275.20473 271.4785,270.1253 L 268.82685,236.28519 L 268.32177,232.11831 L 247.10857,231.86578 L 246.47722,237.67415 z"
             style="fill:#fcef3c;fill-rule:evenodd;stroke:#000000;stroke-width:1px;stroke-linecap:round;stroke-linejoin:round;stroke-opacity:1"
             id="path2242" />
          <path
             d="M 247.61364,261.2812 C 254.78528,265.41031 259.92139,266.07531 268.44804,261.07192 L 267.18535,268.35754 C 261.33489,272.67117 253.96919,272.20415 248.11872,268.105 L 247.61364,261.2812 z"
             style="fill:#000000;fill-opacity:1;fill-rule:evenodd;stroke:none;stroke-width:1px;stroke-linecap:round;stroke-linejoin:round;stroke-opacity:1"
             id="path3232" />
          <path
             d="M 247.3611,241.08342 C 254.84825,242.2463 261.5818,241.91128 268.57431,241.33596 L 265.79638,247.27062 C 260.07219,245.63831 255.47387,245.3314 248.24498,247.2706 L 247.3611,241.08342 z"
             style="fill:#000000;fill-opacity:1;fill-rule:evenodd;stroke:none;stroke-width:1px;stroke-linecap:round;stroke-linejoin:round;stroke-opacity:1"
             id="path3236" />
          <path
             d="M 251.0229,251.81629 C 258.25751,253.52751 257.96326,253.48653 265.16505,251.69003 L 266.04892,256.99334 C 261.02983,259.25979 256.33658,260.64583 248.87633,256.36198 L 251.0229,251.81629 z"
             style="fill:#000000;fill-opacity:1;fill-rule:evenodd;stroke:none;stroke-width:1px;stroke-linecap:round;stroke-linejoin:round;stroke-opacity:1"
             id="path3234" />
          <path
             d="M 246.72975,275.0498 C 254.07718,277.77944 262.69271,277.4077 269.71073,274.79725 L 267.94296,278.71161 C 262.58483,281.9277 254.48688,282.14499 248.11872,279.34294 L 246.72975,275.0498 z"
             style="fill:#000000;fill-opacity:1;fill-rule:evenodd;stroke:none;stroke-width:1px;stroke-linecap:round;stroke-linejoin:round;stroke-opacity:1"
             id="path2244" />
          <path
             d="M 250.51783,284.26744 C 255.42013,285.59985 259.94001,285.18006 264.40743,284.51998 L 263.00193,288.43433 C 259.17128,289.70621 255.34061,289.72958 251.50995,288.30805 L 250.51783,284.26744 z"
             style="fill:#000000;fill-opacity:1;fill-rule:evenodd;stroke:none;stroke-width:1px;stroke-linecap:round;stroke-linejoin:round;stroke-opacity:1"
             id="path3220" />
          <path
             d="M 253.42202,211.72586 C 256.17529,210.45435 258.86541,210.89881 261.61868,211.59959 L 263.51272,210.40003 C 263.42082,204.69167 268.56415,194.42696 269.58446,195.12148 C 270.63009,195.83323 264.86868,204.3812 265.03877,210.14749 C 266.74075,214.73346 267.14551,219.05884 265.29131,222.26932 C 254.05725,223.25077 255.73695,222.33246 250.39156,222.33246 C 248.76612,219.03496 247.60721,214.52297 250.77037,210.58944 C 250.85543,205.18607 245.25116,195.68264 246.47722,194.99521 C 247.8388,194.2318 251.49842,205.06181 252.41187,210.65257 L 253.42202,211.72586 z"
             style="fill:#fcef3c;fill-rule:evenodd;stroke:#000000;stroke-width:1px;stroke-linecap:round;stroke-linejoin:round;stroke-opacity:1"
             id="path3292" />
          <g
             style="stroke-linecap:round;stroke-linejoin:round"
             id="g3302">
            <path
               d="M 241.87501,233.07646 C 238.26712,233.60361 234.91999,234.37379 231.78572,236.5586 C 227.87346,238.63654 226.9653,243.21465 221.875,244.59432 C 220.42816,246.94079 218.91202,247.76845 217.67858,249.23718 C 216.3084,250.51751 217.68266,249.79427 218.92858,249.76654 C 220.14036,249.21586 221.5068,249.02588 223.66072,246.82646 C 227.31697,246.1918 230.25029,241.58099 233.48215,238.61218 C 237.23676,239.68838 241.93818,237.55703 246.6135,237.48472 L 247.23215,231.82646 L 241.87501,233.07646 z"
               style="fill:#fcef3c;fill-rule:evenodd;stroke:#000000;stroke-width:1px;stroke-linecap:round;stroke-linejoin:round;stroke-opacity:1"
               id="path3300" />
            <path
               d="M 219.375,205.57647 C 219.95437,208.23892 221.99351,209.98901 224.46429,211.46932 C 225.76028,220.41954 233.44017,220.6339 238.83929,223.96932 C 240.55843,227.3065 243.60825,229.91785 247.94643,231.82647 L 249.56889,228.07122 C 246.83606,226.43858 245.43568,221.98997 240.80357,221.20147 C 237.15697,218.35701 233.50812,216.98415 230.53572,215.9336 L 224.65899,208.59667 C 222.70636,207.95981 221.29807,206.7786 220.53571,204.95147 C 219.88518,204.72042 219.32098,204.63327 219.375,205.57647 z"
               style="fill:#fcef3c;fill-rule:evenodd;stroke:#000000;stroke-width:1px;stroke-linecap:round;stroke-linejoin:round;stroke-opacity:1"
               id="path3298" />
            <path
               d="M 238.8234,273.01526 L 237.98547,284.00067 C 236.02694,287.27579 234.70018,289.97678 234.40398,292.58697 C 231.55998,293.88428 230.13773,296.24791 228.5956,298.52162 C 228.28827,299.07486 228.55189,299.1999 229.25432,298.99583 C 231.22341,296.81549 233.1925,295.82801 235.16159,295.06005 C 237.89292,291.36143 241.99063,289.58372 241.98013,283.74813 C 244.18241,279.77747 244.10991,274.66942 244.37923,269.73227 L 238.8234,273.01526 z"
               style="fill:#fcef3c;fill-rule:evenodd;stroke:#000000;stroke-width:1px;stroke-linecap:round;stroke-linejoin:round;stroke-opacity:1"
               id="path2608" />
            <g
               style="stroke-linecap:round;stroke-linejoin:round"
               id="g3238">
              <path
                 d="M 247.56397,232.97791 C 249.51955,234.99168 249.13548,240.66704 252.2856,239.69446 C 249.25409,249.59185 253.0988,257.5246 254.3059,266.21096 C 251.8647,269.7863 249.4235,272.87935 246.9823,273.78711 C 247.3904,274.70534 226.22511,292.78183 221.47595,288.68686 C 211.98979,280.50741 241.86596,240.73195 247.56397,232.97791 z"
                 style="fill:#fcef3c;fill-rule:evenodd;stroke:#000000;stroke-width:1px;stroke-linecap:round;stroke-linejoin:round;stroke-opacity:1"
                 id="path2240" />
              <path
                 d="M 247.99245,237.42162 C 242.79651,243.22999 238.7573,249.03837 235.23928,254.84674"
                 style="fill:none;fill-rule:evenodd;stroke:#000000;stroke-width:1px;stroke-linecap:round;stroke-linejoin:round;stroke-opacity:1"
                 id="path3224" />
              <path
                 d="M 246.9823,273.91338 C 244.05419,270.02391 245.03726,265.01696 244.20438,260.52885"
                 style="fill:none;fill-rule:evenodd;stroke:#000000;stroke-width:1px;stroke-linecap:round;stroke-linejoin:round;stroke-opacity:1"
                 id="path3226" />
            </g>
            <path
               d="M 253.9271,214.56691 C 253.9279,216.65982 252.74048,218.35706 251.27545,218.35706 C 249.81042,218.35706 248.623,216.65982 248.6238,214.56691 C 248.623,212.474 249.81042,210.77676 251.27545,210.77676 C 252.74048,210.77676 253.9279,212.474 253.9271,214.56691 L 253.9271,214.56691 z"
               transform="translate(-0.631345,0.631345)"
               style="opacity:1;fill:#000000;fill-opacity:1;fill-rule:evenodd;stroke:#000000;stroke-width:1;stroke-linecap:round;stroke-linejoin:round;stroke-miterlimit:4;stroke-dasharray:none;stroke-dashoffset:0;stroke-opacity:1"
               id="path3294" />
          </g>
          <use
             transform="matrix(-1,0,0,1,515.3773,0)"
             style="stroke-linecap:round;stroke-linejoin:round"
             id="use3312"
             x="0"
             y="0"
             width="744.09448"
             height="1052.3622"
             xlink:href="#g3302" />
          <path
             d="M 249.63395,220.43842 C 247.32998,222.39861 247.15793,223.89083 246.72976,226.68874 C 246.37722,228.99247 246.32282,231.30193 247.10857,234.01235 C 248.09814,237.42587 249.81791,239.40032 251.59112,240.19954 C 256.01447,239.33716 259.73038,239.12773 263.14474,239.947 C 265.21432,239.57362 267.79778,236.95115 268.95311,232.24458 C 269.60033,229.60797 269.75922,228.65211 269.33192,225.42606 C 269.03482,223.18298 268.60976,222.72597 265.95515,220.49522 C 262.41694,222.05977 257.46699,222.83832 249.63395,220.43842 z"
             style="fill:#fcef3c;fill-rule:evenodd;stroke:#000000;stroke-width:1px;stroke-linecap:round;stroke-linejoin:round;stroke-opacity:1"
             id="path3228" />
        </g>
      </g>
      <g
         transform="translate(143.18912,-38.00699)"
         id="g4473">
        <g
           id="g4475"
           style="display:inline"
           transform="matrix(1.4267902,0,0,1.4267902,-286.44972,-138.08432)">
          <path
             id="path4477"
             style="fill:#fcef3c;fill-rule:evenodd;stroke:#000000;stroke-width:1px;stroke-linecap:round;stroke-linejoin:round;stroke-opacity:1"
             d="M 246.47722,237.67415 L 245.08826,270.63038 C 246.55255,275.50447 248.10935,280.35544 250.89663,284.89878 C 251.77847,288.85658 255.00359,293.20099 257.08382,292.98001 C 260.72767,292.59292 263.59843,288.70204 264.1549,284.77252 C 267.83586,280.63397 269.36567,275.20473 271.4785,270.1253 L 268.82685,236.28519 L 268.32177,232.11831 L 247.10857,231.86578 L 246.47722,237.67415 z" />
          <path
             id="path4479"
             style="fill:#000000;fill-opacity:1;fill-rule:evenodd;stroke:none;stroke-width:1px;stroke-linecap:round;stroke-linejoin:round;stroke-opacity:1"
             d="M 247.61364,261.2812 C 254.78528,265.41031 259.92139,266.07531 268.44804,261.07192 L 267.18535,268.35754 C 261.33489,272.67117 253.96919,272.20415 248.11872,268.105 L 247.61364,261.2812 z" />
          <path
             id="path4481"
             style="fill:#000000;fill-opacity:1;fill-rule:evenodd;stroke:none;stroke-width:1px;stroke-linecap:round;stroke-linejoin:round;stroke-opacity:1"
             d="M 247.3611,241.08342 C 254.84825,242.2463 261.5818,241.91128 268.57431,241.33596 L 265.79638,247.27062 C 260.07219,245.63831 255.47387,245.3314 248.24498,247.2706 L 247.3611,241.08342 z" />
          <path
             id="path4483"
             style="fill:#000000;fill-opacity:1;fill-rule:evenodd;stroke:none;stroke-width:1px;stroke-linecap:round;stroke-linejoin:round;stroke-opacity:1"
             d="M 251.0229,251.81629 C 258.25751,253.52751 257.96326,253.48653 265.16505,251.69003 L 266.04892,256.99334 C 261.02983,259.25979 256.33658,260.64583 248.87633,256.36198 L 251.0229,251.81629 z" />
          <path
             id="path4485"
             style="fill:#000000;fill-opacity:1;fill-rule:evenodd;stroke:none;stroke-width:1px;stroke-linecap:round;stroke-linejoin:round;stroke-opacity:1"
             d="M 246.72975,275.0498 C 254.07718,277.77944 262.69271,277.4077 269.71073,274.79725 L 267.94296,278.71161 C 262.58483,281.9277 254.48688,282.14499 248.11872,279.34294 L 246.72975,275.0498 z" />
          <path
             id="path4487"
             style="fill:#000000;fill-opacity:1;fill-rule:evenodd;stroke:none;stroke-width:1px;stroke-linecap:round;stroke-linejoin:round;stroke-opacity:1"
             d="M 250.51783,284.26744 C 255.42013,285.59985 259.94001,285.18006 264.40743,284.51998 L 263.00193,288.43433 C 259.17128,289.70621 255.34061,289.72958 251.50995,288.30805 L 250.51783,284.26744 z" />
          <path
             id="path4489"
             style="fill:#fcef3c;fill-rule:evenodd;stroke:#000000;stroke-width:1px;stroke-linecap:round;stroke-linejoin:round;stroke-opacity:1"
             d="M 253.42202,211.72586 C 256.17529,210.45435 258.86541,210.89881 261.61868,211.59959 L 263.51272,210.40003 C 263.42082,204.69167 268.56415,194.42696 269.58446,195.12148 C 270.63009,195.83323 264.86868,204.3812 265.03877,210.14749 C 266.74075,214.73346 267.14551,219.05884 265.29131,222.26932 C 254.05725,223.25077 255.73695,222.33246 250.39156,222.33246 C 248.76612,219.03496 247.60721,214.52297 250.77037,210.58944 C 250.85543,205.18607 245.25116,195.68264 246.47722,194.99521 C 247.8388,194.2318 251.49842,205.06181 252.41187,210.65257 L 253.42202,211.72586 z" />
          <g
             id="g4491"
             style="stroke-linecap:round;stroke-linejoin:round">
            <path
               id="path4493"
               style="fill:#fcef3c;fill-rule:evenodd;stroke:#000000;stroke-width:1px;stroke-linecap:round;stroke-linejoin:round;stroke-opacity:1"
               d="M 241.87501,233.07646 C 238.26712,233.60361 234.91999,234.37379 231.78572,236.5586 C 227.87346,238.63654 226.9653,243.21465 221.875,244.59432 C 220.42816,246.94079 218.91202,247.76845 217.67858,249.23718 C 216.3084,250.51751 217.68266,249.79427 218.92858,249.76654 C 220.14036,249.21586 221.5068,249.02588 223.66072,246.82646 C 227.31697,246.1918 230.25029,241.58099 233.48215,238.61218 C 237.23676,239.68838 241.93818,237.55703 246.6135,237.48472 L 247.23215,231.82646 L 241.87501,233.07646 z" />
            <path
               id="path4495"
               style="fill:#fcef3c;fill-rule:evenodd;stroke:#000000;stroke-width:1px;stroke-linecap:round;stroke-linejoin:round;stroke-opacity:1"
               d="M 219.375,205.57647 C 219.95437,208.23892 221.99351,209.98901 224.46429,211.46932 C 225.76028,220.41954 233.44017,220.6339 238.83929,223.96932 C 240.55843,227.3065 243.60825,229.91785 247.94643,231.82647 L 249.56889,228.07122 C 246.83606,226.43858 245.43568,221.98997 240.80357,221.20147 C 237.15697,218.35701 233.50812,216.98415 230.53572,215.9336 L 224.65899,208.59667 C 222.70636,207.95981 221.29807,206.7786 220.53571,204.95147 C 219.88518,204.72042 219.32098,204.63327 219.375,205.57647 z" />
            <path
               id="path4497"
               style="fill:#fcef3c;fill-rule:evenodd;stroke:#000000;stroke-width:1px;stroke-linecap:round;stroke-linejoin:round;stroke-opacity:1"
               d="M 238.8234,273.01526 L 237.98547,284.00067 C 236.02694,287.27579 234.70018,289.97678 234.40398,292.58697 C 231.55998,293.88428 230.13773,296.24791 228.5956,298.52162 C 228.28827,299.07486 228.55189,299.1999 229.25432,298.99583 C 231.22341,296.81549 233.1925,295.82801 235.16159,295.06005 C 237.89292,291.36143 241.99063,289.58372 241.98013,283.74813 C 244.18241,279.77747 244.10991,274.66942 244.37923,269.73227 L 238.8234,273.01526 z" />
            <g
               id="g4499"
               style="stroke-linecap:round;stroke-linejoin:round">
              <path
                 id="path4501"
                 style="fill:#fcef3c;fill-rule:evenodd;stroke:#000000;stroke-width:1px;stroke-linecap:round;stroke-linejoin:round;stroke-opacity:1"
                 d="M 247.56397,232.97791 C 249.51955,234.99168 249.13548,240.66704 252.2856,239.69446 C 249.25409,249.59185 253.0988,257.5246 254.3059,266.21096 C 251.8647,269.7863 249.4235,272.87935 246.9823,273.78711 C 247.3904,274.70534 226.22511,292.78183 221.47595,288.68686 C 211.98979,280.50741 241.86596,240.73195 247.56397,232.97791 z" />
              <path
                 id="path4503"
                 style="fill:none;fill-rule:evenodd;stroke:#000000;stroke-width:1px;stroke-linecap:round;stroke-linejoin:round;stroke-opacity:1"
                 d="M 247.99245,237.42162 C 242.79651,243.22999 238.7573,249.03837 235.23928,254.84674" />
              <path
                 id="path4505"
                 style="fill:none;fill-rule:evenodd;stroke:#000000;stroke-width:1px;stroke-linecap:round;stroke-linejoin:round;stroke-opacity:1"
                 d="M 246.9823,273.91338 C 244.05419,270.02391 245.03726,265.01696 244.20438,260.52885" />
            </g>
            <path
               id="path4507"
               style="opacity:1;fill:#000000;fill-opacity:1;fill-rule:evenodd;stroke:#000000;stroke-width:1;stroke-linecap:round;stroke-linejoin:round;stroke-miterlimit:4;stroke-dasharray:none;stroke-dashoffset:0;stroke-opacity:1"
               transform="translate(-0.631345,0.631345)"
               d="M 253.9271,214.56691 C 253.9279,216.65982 252.74048,218.35706 251.27545,218.35706 C 249.81042,218.35706 248.623,216.65982 248.6238,214.56691 C 248.623,212.474 249.81042,210.77676 251.27545,210.77676 C 252.74048,210.77676 253.9279,212.474 253.9271,214.56691 L 253.9271,214.56691 z" />
          </g>
          <use
             xlink:href="#g3302"
             height="1052.3622"
             width="744.09448"
             y="0"
             x="0"
             id="use4509"
             style="stroke-linecap:round;stroke-linejoin:round"
             transform="matrix(-1,0,0,1,515.3773,0)" />
          <path
             id="path4511"
             style="fill:#fcef3c;fill-rule:evenodd;stroke:#000000;stroke-width:1px;stroke-linecap:round;stroke-linejoin:round;stroke-opacity:1"
             d="M 249.63395,220.43842 C 247.32998,222.39861 247.15793,223.89083 246.72976,226.68874 C 246.37722,228.99247 246.32282,231.30193 247.10857,234.01235 C 248.09814,237.42587 249.81791,239.40032 251.59112,240.19954 C 256.01447,239.33716 259.73038,239.12773 263.14474,239.947 C 265.21432,239.57362 267.79778,236.95115 268.95311,232.24458 C 269.60033,229.60797 269.75922,228.65211 269.33192,225.42606 C 269.03482,223.18298 268.60976,222.72597 265.95515,220.49522 C 262.41694,222.05977 257.46699,222.83832 249.63395,220.43842 z" />
        </g>
      </g>
    </g>
    <g
       transform="translate(69.579954,189.15106)"
       id="g4513">
      <g
         id="g4515"
         style="display:inline"
         transform="matrix(1.4267902,0,0,1.4267902,-286.44972,-138.08432)">
        <path
           id="path4517"
           style="fill:#fcef3c;fill-rule:evenodd;stroke:#000000;stroke-width:1px;stroke-linecap:round;stroke-linejoin:round;stroke-opacity:1"
           d="M 246.47722,237.67415 L 245.08826,270.63038 C 246.55255,275.50447 248.10935,280.35544 250.89663,284.89878 C 251.77847,288.85658 255.00359,293.20099 257.08382,292.98001 C 260.72767,292.59292 263.59843,288.70204 264.1549,284.77252 C 267.83586,280.63397 269.36567,275.20473 271.4785,270.1253 L 268.82685,236.28519 L 268.32177,232.11831 L 247.10857,231.86578 L 246.47722,237.67415 z" />
        <path
           id="path4519"
           style="fill:#000000;fill-opacity:1;fill-rule:evenodd;stroke:none;stroke-width:1px;stroke-linecap:round;stroke-linejoin:round;stroke-opacity:1"
           d="M 247.61364,261.2812 C 254.78528,265.41031 259.92139,266.07531 268.44804,261.07192 L 267.18535,268.35754 C 261.33489,272.67117 253.96919,272.20415 248.11872,268.105 L 247.61364,261.2812 z" />
        <path
           id="path4521"
           style="fill:#000000;fill-opacity:1;fill-rule:evenodd;stroke:none;stroke-width:1px;stroke-linecap:round;stroke-linejoin:round;stroke-opacity:1"
           d="M 247.3611,241.08342 C 254.84825,242.2463 261.5818,241.91128 268.57431,241.33596 L 265.79638,247.27062 C 260.07219,245.63831 255.47387,245.3314 248.24498,247.2706 L 247.3611,241.08342 z" />
        <path
           id="path4523"
           style="fill:#000000;fill-opacity:1;fill-rule:evenodd;stroke:none;stroke-width:1px;stroke-linecap:round;stroke-linejoin:round;stroke-opacity:1"
           d="M 251.0229,251.81629 C 258.25751,253.52751 257.96326,253.48653 265.16505,251.69003 L 266.04892,256.99334 C 261.02983,259.25979 256.33658,260.64583 248.87633,256.36198 L 251.0229,251.81629 z" />
        <path
           id="path4525"
           style="fill:#000000;fill-opacity:1;fill-rule:evenodd;stroke:none;stroke-width:1px;stroke-linecap:round;stroke-linejoin:round;stroke-opacity:1"
           d="M 246.72975,275.0498 C 254.07718,277.77944 262.69271,277.4077 269.71073,274.79725 L 267.94296,278.71161 C 262.58483,281.9277 254.48688,282.14499 248.11872,279.34294 L 246.72975,275.0498 z" />
        <path
           id="path4527"
           style="fill:#000000;fill-opacity:1;fill-rule:evenodd;stroke:none;stroke-width:1px;stroke-linecap:round;stroke-linejoin:round;stroke-opacity:1"
           d="M 250.51783,284.26744 C 255.42013,285.59985 259.94001,285.18006 264.40743,284.51998 L 263.00193,288.43433 C 259.17128,289.70621 255.34061,289.72958 251.50995,288.30805 L 250.51783,284.26744 z" />
        <path
           id="path4529"
           style="fill:#fcef3c;fill-rule:evenodd;stroke:#000000;stroke-width:1px;stroke-linecap:round;stroke-linejoin:round;stroke-opacity:1"
           d="M 253.42202,211.72586 C 256.17529,210.45435 258.86541,210.89881 261.61868,211.59959 L 263.51272,210.40003 C 263.42082,204.69167 268.56415,194.42696 269.58446,195.12148 C 270.63009,195.83323 264.86868,204.3812 265.03877,210.14749 C 266.74075,214.73346 267.14551,219.05884 265.29131,222.26932 C 254.05725,223.25077 255.73695,222.33246 250.39156,222.33246 C 248.76612,219.03496 247.60721,214.52297 250.77037,210.58944 C 250.85543,205.18607 245.25116,195.68264 246.47722,194.99521 C 247.8388,194.2318 251.49842,205.06181 252.41187,210.65257 L 253.42202,211.72586 z" />
        <g
           id="g4531"
           style="stroke-linecap:round;stroke-linejoin:round">
          <path
             id="path4533"
             style="fill:#fcef3c;fill-rule:evenodd;stroke:#000000;stroke-width:1px;stroke-linecap:round;stroke-linejoin:round;stroke-opacity:1"
             d="M 241.87501,233.07646 C 238.26712,233.60361 234.91999,234.37379 231.78572,236.5586 C 227.87346,238.63654 226.9653,243.21465 221.875,244.59432 C 220.42816,246.94079 218.91202,247.76845 217.67858,249.23718 C 216.3084,250.51751 217.68266,249.79427 218.92858,249.76654 C 220.14036,249.21586 221.5068,249.02588 223.66072,246.82646 C 227.31697,246.1918 230.25029,241.58099 233.48215,238.61218 C 237.23676,239.68838 241.93818,237.55703 246.6135,237.48472 L 247.23215,231.82646 L 241.87501,233.07646 z" />
          <path
             id="path4535"
             style="fill:#fcef3c;fill-rule:evenodd;stroke:#000000;stroke-width:1px;stroke-linecap:round;stroke-linejoin:round;stroke-opacity:1"
             d="M 219.375,205.57647 C 219.95437,208.23892 221.99351,209.98901 224.46429,211.46932 C 225.76028,220.41954 233.44017,220.6339 238.83929,223.96932 C 240.55843,227.3065 243.60825,229.91785 247.94643,231.82647 L 249.56889,228.07122 C 246.83606,226.43858 245.43568,221.98997 240.80357,221.20147 C 237.15697,218.35701 233.50812,216.98415 230.53572,215.9336 L 224.65899,208.59667 C 222.70636,207.95981 221.29807,206.7786 220.53571,204.95147 C 219.88518,204.72042 219.32098,204.63327 219.375,205.57647 z" />
          <path
             id="path4537"
             style="fill:#fcef3c;fill-rule:evenodd;stroke:#000000;stroke-width:1px;stroke-linecap:round;stroke-linejoin:round;stroke-opacity:1"
             d="M 238.8234,273.01526 L 237.98547,284.00067 C 236.02694,287.27579 234.70018,289.97678 234.40398,292.58697 C 231.55998,293.88428 230.13773,296.24791 228.5956,298.52162 C 228.28827,299.07486 228.55189,299.1999 229.25432,298.99583 C 231.22341,296.81549 233.1925,295.82801 235.16159,295.06005 C 237.89292,291.36143 241.99063,289.58372 241.98013,283.74813 C 244.18241,279.77747 244.10991,274.66942 244.37923,269.73227 L 238.8234,273.01526 z" />
          <g
             id="g4539"
             style="stroke-linecap:round;stroke-linejoin:round">
            <path
               id="path4541"
               style="fill:#fcef3c;fill-rule:evenodd;stroke:#000000;stroke-width:1px;stroke-linecap:round;stroke-linejoin:round;stroke-opacity:1"
               d="M 247.56397,232.97791 C 249.51955,234.99168 249.13548,240.66704 252.2856,239.69446 C 249.25409,249.59185 253.0988,257.5246 254.3059,266.21096 C 251.8647,269.7863 249.4235,272.87935 246.9823,273.78711 C 247.3904,274.70534 226.22511,292.78183 221.47595,288.68686 C 211.98979,280.50741 241.86596,240.73195 247.56397,232.97791 z" />
            <path
               id="path4543"
               style="fill:none;fill-rule:evenodd;stroke:#000000;stroke-width:1px;stroke-linecap:round;stroke-linejoin:round;stroke-opacity:1"
               d="M 247.99245,237.42162 C 242.79651,243.22999 238.7573,249.03837 235.23928,254.84674" />
            <path
               id="path4545"
               style="fill:none;fill-rule:evenodd;stroke:#000000;stroke-width:1px;stroke-linecap:round;stroke-linejoin:round;stroke-opacity:1"
               d="M 246.9823,273.91338 C 244.05419,270.02391 245.03726,265.01696 244.20438,260.52885" />
          </g>
          <path
             id="path4547"
             style="opacity:1;fill:#000000;fill-opacity:1;fill-rule:evenodd;stroke:#000000;stroke-width:1;stroke-linecap:round;stroke-linejoin:round;stroke-miterlimit:4;stroke-dasharray:none;stroke-dashoffset:0;stroke-opacity:1"
             transform="translate(-0.631345,0.631345)"
             d="M 253.9271,214.56691 C 253.9279,216.65982 252.74048,218.35706 251.27545,218.35706 C 249.81042,218.35706 248.623,216.65982 248.6238,214.56691 C 248.623,212.474 249.81042,210.77676 251.27545,210.77676 C 252.74048,210.77676 253.9279,212.474 253.9271,214.56691 L 253.9271,214.56691 z" />
        </g>
        <use
           xlink:href="#g3302"
           height="1052.3622"
           width="744.09448"
           y="0"
           x="0"
           id="use4549"
           style="stroke-linecap:round;stroke-linejoin:round"
           transform="matrix(-1,0,0,1,515.3773,0)" />
        <path
           id="path4551"
           style="fill:#fcef3c;fill-rule:evenodd;stroke:#000000;stroke-width:1px;stroke-linecap:round;stroke-linejoin:round;stroke-opacity:1"
           d="M 249.63395,220.43842 C 247.32998,222.39861 247.15793,223.89083 246.72976,226.68874 C 246.37722,228.99247 246.32282,231.30193 247.10857,234.01235 C 248.09814,237.42587 249.81791,239.40032 251.59112,240.19954 C 256.01447,239.33716 259.73038,239.12773 263.14474,239.947 C 265.21432,239.57362 267.79778,236.95115 268.95311,232.24458 C 269.60033,229.60797 269.75922,228.65211 269.33192,225.42606 C 269.03482,223.18298 268.60976,222.72597 265.95515,220.49522 C 262.41694,222.05977 257.46699,222.83832 249.63395,220.43842 z" />
      </g>
    </g>
    <g
       id="g4706"
       inkscape:label="Calque 1"
       transform="translate(-401.43512,-389.40463)" />
  </g>
  <g
     inkscape:groupmode="layer"
     id="layer2"
     inkscape:label="Reflet final"
     sodipodi:insensitive="true"
     style="display:inline">
    <path
       sodipodi:nodetypes="cccccc"
       d="M 300.00001,658.5 C 300.00001,658.5 598.50001,546.17969 598.50001,260.72817 C 598.50001,-24.723334 598.50001,2.1764865 598.50001,2.1764865 L 1.5,2.1764865 L 1.5,260.72817 C 1.5,546.17969 300.00001,658.5 300.00001,658.5 z"
       style="opacity:1;fill:url(#radialGradient3163);fill-opacity:1;fill-rule:evenodd;stroke:none;stroke-width:1px;stroke-linecap:butt;stroke-linejoin:miter;stroke-opacity:1"
       id="path2875"
       inkscape:export-xdpi="144"
       inkscape:export-ydpi="144" />
  </g>
  <g
     inkscape:groupmode="layer"
     id="layer1"
     inkscape:label="Contour final"
     sodipodi:insensitive="true">
    <path
       sodipodi:nodetypes="cccccc"
       d="M 299.99999,658.50028 C 299.99999,658.50028 1.5,546.17992 1.5,260.72828 C 1.5,-24.723336 1.5,2.1764957 1.5,2.1764957 L 598.49999,2.1764957 L 598.49999,260.72828 C 598.49999,546.17992 299.99999,658.50028 299.99999,658.50028 z "
       style="opacity:1;fill:none;fill-opacity:1;fill-rule:evenodd;stroke:#000000;stroke-width:3.00000048;stroke-linecap:butt;stroke-linejoin:miter;stroke-miterlimit:4;stroke-dasharray:none;stroke-opacity:1"
       id="path1411"
       inkscape:export-xdpi="144"
       inkscape:export-ydpi="144" />
  </g>
</svg>
