<?xml version="1.0" encoding="UTF-8" standalone="no"?>
<svg
   xmlns:dc="http://purl.org/dc/elements/1.1/"
   xmlns:cc="http://creativecommons.org/ns#"
   xmlns:rdf="http://www.w3.org/1999/02/22-rdf-syntax-ns#"
   xmlns:svg="http://www.w3.org/2000/svg"
   xmlns="http://www.w3.org/2000/svg"
   xmlns:xlink="http://www.w3.org/1999/xlink"
   xmlns:sodipodi="http://sodipodi.sourceforge.net/DTD/sodipodi-0.dtd"
   xmlns:inkscape="http://www.inkscape.org/namespaces/inkscape"
   height="660"
   width="600"
   version="1.0"
   id="svg2"
   sodipodi:version="0.32"
   inkscape:version="0.48.0 r9654"
   sodipodi:docname="Blason ville fr Guipavas (Finistère).svg"
   inkscape:export-filename=""
   inkscape:export-xdpi="144"
   inkscape:export-ydpi="144"
   inkscape:output_extension="org.inkscape.output.svg.inkscape">
  <title
     id="title3003">Blason de la ville de Guipavas (Finistère, France)</title>
  <metadata
     id="metadata49">
    <rdf:RDF>
      <cc:Work
         rdf:about="">
        <dc:format>image/svg+xml</dc:format>
        <dc:type
           rdf:resource="http://purl.org/dc/dcmitype/StillImage" />
        <dc:title>Blason de la ville de Guipavas (Finistère, France)</dc:title>
        <dc:date>29 janvier 2011</dc:date>
        <dc:creator>
          <cc:Agent>
            <dc:title />
          </cc:Agent>
        </dc:creator>
        <cc:license
           rdf:resource="http://creativecommons.org/licenses/by-sa/3.0/" />
        <dc:language />
        <dc:subject>
          <rdf:Bag />
        </dc:subject>
        <dc:description>Blason créé pour Wikipedia par F. MICHEL sous licence CC-BY-SA 3.0</dc:description>
      </cc:Work>
      <cc:License
         rdf:about="http://creativecommons.org/licenses/by-sa/3.0/">
        <cc:permits
           rdf:resource="http://creativecommons.org/ns#Reproduction" />
        <cc:permits
           rdf:resource="http://creativecommons.org/ns#Distribution" />
        <cc:requires
           rdf:resource="http://creativecommons.org/ns#Notice" />
        <cc:requires
           rdf:resource="http://creativecommons.org/ns#Attribution" />
        <cc:permits
           rdf:resource="http://creativecommons.org/ns#DerivativeWorks" />
        <cc:requires
           rdf:resource="http://creativecommons.org/ns#ShareAlike" />
      </cc:License>
    </rdf:RDF>
  </metadata>
  <sodipodi:namedview
     inkscape:window-height="988"
     inkscape:window-width="1264"
     inkscape:pageshadow="2"
     inkscape:pageopacity="0.0"
     guidetolerance="10.0"
     gridtolerance="10.0"
     objecttolerance="10.0"
     borderopacity="1.0"
     bordercolor="#666666"
     pagecolor="#ffffff"
     id="base"
     showgrid="false"
     height="660px"
     inkscape:zoom="0.45254834"
     inkscape:cx="226.21837"
     inkscape:cy="244.64087"
     inkscape:window-x="0"
     inkscape:window-y="0"
     inkscape:current-layer="layer2"
     showguides="true"
     inkscape:guide-bbox="true"
     inkscape:window-maximized="0" />
  <defs
     id="defs6">
    <linearGradient
       id="linearGradient2893">
      <stop
         style="stop-color:white;stop-opacity:0.3137255;"
         offset="0"
         id="stop2895" />
      <stop
         id="stop2897"
         offset="0.19"
         style="stop-color:white;stop-opacity:0.25098041;" />
      <stop
         style="stop-color:#6b6b6b;stop-opacity:0.1254902;"
         offset="0.60000002"
         id="stop2901" />
      <stop
         style="stop-color:black;stop-opacity:0.1254902;"
         offset="1"
         id="stop2899" />
    </linearGradient>
    <radialGradient
       inkscape:collect="always"
       xlink:href="#linearGradient2893"
       id="radialGradient3163"
       gradientUnits="userSpaceOnUse"
       gradientTransform="matrix(1.353218,0,0,1.348928,-77.62935,-85.74693)"
       cx="221.44487"
       cy="226.33101"
       fx="221.44487"
       fy="226.33101"
       r="300" />
  </defs>
  <g
     inkscape:groupmode="layer"
     id="layer3"
     inkscape:label="Fond écu"
     style="display:inline">
    <path
       id="path2855"
       style="fill:#2b5df2;fill-opacity:1;fill-rule:evenodd;stroke:none"
       d="m 300,658.5 c 0,0 298.50001,-112.32031 298.50001,-397.77183 0,-285.451524 0,-258.5516935 0,-258.5516935 l -597.00001,0 0,258.5516935 C 1.5,546.17969 300,658.5 300,658.5 z"
       sodipodi:nodetypes="cccccc"
       inkscape:connector-curvature="0" />
    <path
       inkscape:connector-curvature="0"
       d="m 236.30949,0.744612 c 0.0873,0 0.17453,0 0,0 z"
       id="path3049"
       style="fill:none;stroke:#000000;stroke-width:1px;stroke-linecap:butt;stroke-linejoin:miter;stroke-opacity:1" />
  </g>
  <g
     inkscape:groupmode="layer"
     id="layer5"
     inkscape:label="Pièces"
     style="display:inline" />
  <g
     inkscape:groupmode="layer"
     id="layer4"
     inkscape:label="Meubles"
     style="display:inline">
    <rect
       width="600"
       height="660"
       x="0"
       y="-7.1054274e-015"
       id="rect7092"
       style="fill:none;stroke:none" />
    <g
       style="fill:#ffffff;fill-opacity:1;stroke:#000000;display:inline"
       id="g2919"
       transform="matrix(-1.2039399,0.29790602,0.30003555,1.1953946,815.88649,-703.08895)">
      <g
         style="fill:#ffffff;stroke:#000000"
         id="g2921"
         transform="matrix(0.9839385,-0.176355,0.1741503,0.9851101,89.528952,509.79416)">
        <path
           style="fill:#ffffff;fill-opacity:1;fill-rule:evenodd;stroke:#000000;stroke-width:1.60915697;stroke-linecap:butt;stroke-linejoin:miter;stroke-miterlimit:4;stroke-opacity:1;stroke-dasharray:none"
           id="path2923"
           d="m 309.875,68.25 c -4.38742,22.67557 1.24116,41.98067 13.875,56.71875 -11.50384,-9.83794 -10.60377,-12.96743 -19.34375,-21.5 1.82641,15.83068 4.54635,19.90015 16.0625,39.59375 C 307.37842,130.75959 300.6989,114.69873 293.25,106.375 c 6.35648,35.48157 17.74351,39.51108 37.71875,68.1875 -8.95807,-3.78769 -21.80783,-26.92272 -29.46875,-31.21875 2.18577,15.0731 13.66905,24.62433 22.96875,35.71875 0.14208,1.26844 -33.14042,-30.89327 -39.375,-34.6875 9.1944,34.08277 27.72329,41.7762 46.90625,65.1875 -5.39419,-0.863 -54.2889,-53.64413 -42.53125,-35 7.77183,11.47169 26.86312,28.3974 38.28125,39.71875 -9.31907,3.25406 -35.58064,-30.55477 -45.03125,-37.75 3.78852,37.76009 23.46084,38.84377 50,55.625 -17.1862,0.66384 -30.90068,-12.52192 -45.40625,-20.1875 11.94026,17.75124 22.68651,18.57409 38.75,28.15625 -12.56795,-3.87699 -35.24966,-14.25237 -46.75,-13.25 4.47084,15.60434 15.58303,21.95152 29.53125,28.875 8.79752,1.73565 17.51399,0.52834 28.125,4.3125 -18.14215,3.96293 -35.55873,-2.43349 -53.3125,-6.3125 2.09057,14.36682 16.85942,20.63322 20.8125,22.8125 7.19714,3.42534 24.37665,1.48935 35.40625,-2.375 -13.93035,12.6446 -40.00131,6.29328 -55.375,-0.21875 2.22488,15.48009 7.38226,21.13895 24.8125,23.0625 12.54452,-0.17476 24.38413,-5.61427 38.46875,-13.78125 -3.75528,15.00889 -39.90714,18.07814 -56.28125,17.4375 -0.49806,4.44546 0.80783,6.16855 6.03125,11.59375 4.97942,5.17178 22.59452,2.0453 32.8125,-1.65625 1.02214,-0.75869 5.79805,-1.93179 16.1875,-8.0625 -6.97293,9.08428 -17.35524,14.10607 -26.5,17.21875 -4.52134,1.93025 -4.37186,0.6307 -15.5625,3.28125 5.65496,7.63024 3.73813,7.31663 14.15625,8.15625 10.41811,0.83961 26.16156,-11.89447 36.875,-21.40625 0.67625,9.21579 -25.99187,29.68883 -26.875,30.53125 5.0808,1.69811 13.06602,1.2101 18.34375,-4.28125 5.27773,-5.49134 11.61235,-10.94736 17.25,-18.34375 -0.0535,13.29105 -7.3876,19.51176 -13.9375,30.03125 6.6495,-0.0221 14.82507,-6.09752 18.875,-8.75 4.04994,-2.65247 6.78184,-12.48307 8.34375,-11.9375 0.495,11.23044 -7.30629,17.44362 -10,27.34375 11.76731,3.3498 16.93844,-12.95203 20.34375,-18.5625 2.48451,9.50397 -2.49151,19.42235 -2.36334,24.70901 5.98908,0.53232 8.96274,2.11514 17.05181,-17.20371 2.11915,11.65627 0.0666,19.49632 3.06361,21.80415 8.59958,-6.16806 10.09633,-14.56226 11.93542,-16.80945 1.44684,-5.56049 2.21847,-13.79162 -1.96875,-18.3125 -4.18723,-4.52088 -3.81942,-2.3994 -13.4375,-12.03125 -9.61807,-9.63186 -13.35822,-30.21462 -17.90625,-48.0625 -2.8257,-4.99388 -8.39306,-9.15474 -12.03125,-15.375 -3.85386,-6.58898 -2.96399,-5.79001 -4.34375,-11.5 0.0417,-0.002 0.0833,0.002 0.125,0 1.21204,-11.16455 1.33169,-11.81082 8.37768,-19.75433 6.93077,-7.81361 15.6059,2.71409 10.5625,-25.96875 C 381.86553,168.65658 349.22392,151.82596 331.40625,109.125 324.63677,94.883402 319.79024,81.454052 309.875,68.25 z"
           inkscape:connector-curvature="0" />
        <g
           style="fill:#ffffff;fill-opacity:1;stroke:#000000"
           id="g2925">
          <path
             style="fill:#ffffff;fill-opacity:0;fill-rule:evenodd;stroke:#000000;stroke-width:1.60915697;stroke-linecap:butt;stroke-linejoin:miter;stroke-miterlimit:4;stroke-opacity:1;stroke-dasharray:none"
             id="path2927"
             d="m 382.4827,292.55595 c -1.15112,5.83841 -0.91731,10.95711 -14.07451,18.68689 -3.85505,-10.5947 0.83444,-20.9166 1.70372,-30.17496 -4.11924,7.70285 -1.66256,9.63483 -14.84584,15.97773 -4.88146,-15.2691 10.32685,-35.01686 5.14617,-32.68648 -5.01123,4.72844 -7.97297,6.12664 -15.25822,4.56415 -0.87527,-5.28984 8.72796,-15.90319 12.32868,-19.86733 -7.82676,1.99378 -14.10005,0.041 -16.5,-5.5"
             inkscape:connector-curvature="0" />
          <path
             style="fill:#ffffff;fill-opacity:0;fill-rule:evenodd;stroke:#000000;stroke-width:1.60915697;stroke-linecap:butt;stroke-linejoin:miter;stroke-miterlimit:4;stroke-opacity:1;stroke-dasharray:none"
             id="path2929"
             d="m 341.9827,244.05595 c 0.95452,-2.8584 3.49605,-5.68546 6.12902,-6.87257 -2.78837,-5.29882 -9.11464,-7.64624 -7.48387,-12.87133 1.63076,-5.2251 4.05074,-4.76124 7.28978,-4.33934 -1.39603,-5.39682 -5.839,-5.23741 -6.49371,-13.51921 -0.6547,-8.2818 6.16707,-7.35761 11.59065,-10.88093 -8.59991,-12.07969 -11.5188,-16.82802 -5.37248,-30.14575 -4.60262,-2.13982 -6.24307,-6.6706 -9.15939,-10.37087"
             inkscape:connector-curvature="0" />
        </g>
      </g>
    </g>
    <use
       x="0"
       y="0"
       xlink:href="#g2919"
       id="use7076"
       transform="matrix(-1,0,0,1,602.01209,1.7546391e-7)"
       width="600"
       height="660" />
    <g
       id="g7064"
       transform="translate(-299.40431,-981.64306)">
      <path
         inkscape:tile-y0="1220.2549"
         inkscape:tile-x0="586.96221"
         inkscape:tile-h="71.5538"
         inkscape:tile-w="26.20661"
         inkscape:tile-cy="1309.6544"
         inkscape:tile-cx="600.06552"
         inkscape:transform-center-y="-53.62256"
         inkscape:connector-curvature="0"
         id="path6971"
         d="M 600,1220.2549 586.96221,1256.0318 600,1291.8087 613.16882,1256.0318 600,1220.2549 z"
         style="fill:#fcef3c;stroke:#000000;stroke-width:2;stroke-linecap:butt;stroke-linejoin:miter;stroke-miterlimit:4;stroke-opacity:1;stroke-dasharray:none" />
      <use
         inkscape:transform-center-x="37.963205"
         height="660"
         width="600"
         transform="matrix(0.70710678,-0.70710678,0.70710678,0.70710678,-750.31036,807.89928)"
         id="use7050"
         inkscape:transform-center-y="-37.870546"
         xlink:href="#path6971"
         y="0"
         x="0" />
      <use
         inkscape:transform-center-x="-37.870551"
         height="660"
         width="600"
         transform="matrix(0.70710678,0.70710678,-0.70710678,0.70710678,1101.8206,-40.721514)"
         id="use7052"
         inkscape:transform-center-y="-37.963204"
         xlink:href="#path6971"
         y="0"
         x="0" />
      <use
         inkscape:transform-center-x="-53.622585"
         height="660"
         width="600"
         transform="matrix(0,1,-1,0,1909.7199,709.58884)"
         id="use7054"
         xlink:href="#path6971"
         y="0"
         x="0" />
      <use
         inkscape:transform-center-x="53.622555"
         height="660"
         width="600"
         transform="matrix(0,-1,1,0,-709.58884,1909.7199)"
         id="use7056"
         inkscape:transform-center-y="2.5e-005"
         xlink:href="#path6971"
         y="0"
         x="0" />
      <use
         inkscape:transform-center-x="37.87055"
         height="660"
         width="600"
         transform="matrix(-0.70710678,-0.70710678,0.70710678,-0.70710678,98.310431,2660.0302)"
         id="use7058"
         inkscape:transform-center-y="37.96317"
         xlink:href="#path6971"
         y="0"
         x="0" />
      <use
         inkscape:transform-center-x="3e-005"
         height="660"
         width="600"
         transform="matrix(-1,0,0,-1,1200.131,2619.3087)"
         id="use7060"
         inkscape:transform-center-y="53.62254"
         xlink:href="#path6971"
         y="0"
         x="0" />
      <use
         inkscape:transform-center-x="-37.963215"
         height="660"
         width="600"
         transform="matrix(-0.70710678,0.70710678,-0.70710678,-0.70710678,1950.4414,1811.4094)"
         id="use7062"
         inkscape:transform-center-y="37.870506"
         xlink:href="#path6971"
         y="0"
         x="0" />
      <path
         d="m 497.32255,1338.3432 c -3.05508,-11.1942 11.70112,-2.9673 10.01762,-14.4481 -1.68352,-11.4808 -13.45653,0.6363 -13.74391,-10.9637 -0.28737,-11.6 12.0712,-0.081 13.18415,-11.6308 1.11295,-11.5501 -13.21778,-2.6026 -10.72073,-13.9343 2.49704,-11.3318 11.73976,2.8104 15.58449,-8.1377 3.84471,-10.9481 -12.21087,-5.6902 -7.07453,-16.095 5.13636,-10.4049 10.72606,5.5382 17.07912,-4.1717 6.35306,-9.7098 -10.4943,-8.447 -3.01716,-17.3203 7.47713,-8.8733 9.08897,7.9442 17.58116,0.037 8.49217,-7.9073 -8.16784,-10.7131 1.21555,-17.5391 9.38337,-6.8261 6.92367,9.8885 17.06143,4.2432 10.13777,-5.6452 -5.36668,-12.3564 5.37762,-16.7385 10.74432,-4.3822 4.35602,11.2581 15.55019,8.203 11.19418,-3.0551 -2.25366,-13.2817 9.22716,-14.9652 11.48081,-1.6835 1.53518,11.9735 13.13521,11.6861 11.60003,-0.2874 0.99035,-13.4351 12.54044,-12.3222 11.55009,1.113 -1.37487,11.9929 9.95686,14.49 11.33172,2.497 4.17681,-12.8077 15.12492,-8.963 10.94812,3.8447 -4.205,11.3154 6.19986,16.4518 10.40487,5.1363 7.12052,-11.436 16.8304,-5.0829 9.70989,6.353 -6.79076,9.9802 2.08254,17.4574 8.87331,7.4771 9.65042,-9.3996 17.55777,-0.9074 7.90734,8.4921 -8.98189,8.0651 -2.15582,17.4485 6.82608,9.3834 11.61946,-6.817 17.26473,3.3208 5.64525,10.1377 -10.651,5.6812 -6.26886,16.4256 4.38212,10.7443 12.91322,-3.8382 15.96831,7.356 3.05509,11.1941 -11.70112,2.9672 -10.01761,14.448 1.68352,11.4808 13.45653,-0.6363 13.7439,10.9637 0.28738,11.6001 -12.07119,0.081 -13.18414,11.6309 -1.11296,11.5501 13.21778,2.6025 10.72072,13.9343 -2.49704,11.3317 -11.73975,-2.8105 -15.58448,8.1377 -3.84472,10.9481 12.21087,5.6901 7.07453,16.095 -5.13636,10.4048 -10.72605,-5.5383 -17.07912,4.1716 -6.35306,9.7099 10.4943,8.447 3.01716,17.3204 -7.47714,8.8733 -9.08897,-7.9443 -17.58115,-0.037 -8.49219,7.9073 8.16783,10.713 -1.21556,17.5391 -9.38338,6.8261 -6.92368,-9.8886 -17.06144,-4.2433 -10.13776,5.6453 5.3667,12.3564 -5.37762,16.7386 -10.74431,4.3821 -4.356,-11.2582 -15.55017,-8.2031 -11.19419,3.0551 2.25365,13.2817 -9.22717,14.9653 -11.48081,1.6834 -1.53518,-11.9735 -13.1352,-11.6861 -11.60003,0.2873 -0.99036,13.4351 -12.54045,12.3221 -11.55009,-1.1129 1.37486,-11.9929 -9.95686,-14.4899 -11.33172,-2.4971 -4.1768,12.8077 -15.12492,8.9629 -10.94813,-3.8447 4.20499,-11.3154 -6.19986,-16.4517 -10.40487,-5.1364 -7.12051,11.436 -16.83041,5.0829 -9.70988,-6.3531 6.79077,-9.9803 -2.08254,-17.4574 -8.8733,-7.4772 -9.65041,9.3996 -17.55776,0.9074 -7.90734,-8.4922 8.98188,-8.0651 2.15582,-17.4485 -6.82607,-9.3834 -11.61947,6.8169 -17.26473,-3.3208 -5.64526,-10.1378 10.651,-5.6813 6.26887,-16.4256 -4.38213,-10.7443 -12.91324,3.8382 -15.96833,-7.356 z m 55.22152,37.917 c -36.41397,-26.2519 -44.66147,-77.1111 -18.4096,-113.5251 26.25187,-36.4139 77.11111,-44.6614 113.52509,-18.4096 36.41397,26.2519 44.66147,77.1111 18.4096,113.5251 -26.25188,36.414 -77.11111,44.6615 -113.52509,18.4096 z"
         style="fill:#fcef3c;fill-opacity:1;fill-rule:evenodd;stroke:#000000;stroke-width:2;stroke-linecap:round;stroke-linejoin:round;stroke-miterlimit:4;stroke-opacity:1;stroke-dasharray:none;stroke-dashoffset:0;display:inline"
         id="path3830"
         inkscape:connector-curvature="0" />
      <path
         inkscape:connector-curvature="0"
         id="path6190"
         d="m 600,1280.6884 c -15.99817,0 -28.96605,12.9678 -28.96605,28.966 0,15.9981 12.96788,28.966 28.96605,28.966 15.99819,0 28.96605,-12.9679 28.96605,-28.966 0,-15.9982 -12.96786,-28.966 -28.96605,-28.966 z m -0.42226,12.6615 c 0.13987,0 0.28154,0 0.42226,0 9.00612,0 16.30443,7.2984 16.30443,16.3045 0,9.0061 -7.29831,16.3044 -16.30443,16.3044 -9.00611,0 -16.30442,-7.2983 -16.30442,-16.3044 0,-8.8653 7.07057,-16.0812 15.88216,-16.3045 z"
         style="color:#000000;fill:#fcef3c;fill-opacity:1;fill-rule:nonzero;stroke:#000000;stroke-width:2;stroke-miterlimit:4;stroke-opacity:1;stroke-dasharray:none;marker:none;visibility:visible;display:inline;overflow:visible;enable-background:accumulate" />
    </g>
    <path
       style="fill:#ffffff;fill-opacity:1;fill-rule:evenodd;stroke:#000000;stroke-width:2;stroke-linecap:butt;stroke-linejoin:miter;stroke-miterlimit:4;stroke-opacity:1;stroke-dasharray:none;display:inline"
       d="m 175.71826,488.3211 c -32.25676,0 -35.63253,16.02148 -64.53125,14.5 -12.58539,-0.66261 -20.02211,-3.08862 -27.25,-5.8125 7.84933,9.98331 16.00149,19.4315 24.34375,28.40625 0.94945,0.0757 1.89291,0.1654 2.90625,0.21875 28.89872,1.52149 32.27449,-14.53122 64.53125,-14.53125 32.25675,-10e-6 32.2745,14.53123 64.53125,14.53125 32.25675,0 32.24324,-14.53122 64.5,-14.53125 32.25674,-10e-6 32.24324,14.53123 64.5,14.53125 32.25676,0 32.24327,-14.53122 64.5,-14.53125 29.29238,-10e-6 31.71078,12.00007 56.34378,14.1875 6.8585,-7.38408 13.5866,-15.09152 20.125,-23.15625 -3.5,0.44003 -7.4415,0.6843 -11.9375,0.6875 -32.6353,0.0232 -32.2745,-14.50002 -64.53128,-14.5 -32.25675,0 -32.24325,14.49998 -64.5,14.5 -32.25675,0 -32.24327,-14.50002 -64.5,-14.5 -32.25675,0 -32.24325,14.49998 -64.5,14.5 -32.25675,0 -32.2745,-14.50002 -64.53125,-14.5 z m 0,45.59375 c -23.98205,0 -32.0019,8.85633 -46.40625,12.78125 5.79234,5.51091 11.62798,10.7751 17.46875,15.84375 7.28344,-3.09557 15.6508,-5.84374 28.9375,-5.84375 32.25675,-10e-6 32.2745,14.53123 64.53125,14.53125 32.25675,-10e-6 32.24324,-14.53123 64.5,-14.53125 32.25674,-10e-6 32.24324,14.53123 64.5,14.53125 32.25676,-10e-6 32.24327,-14.53123 64.5,-14.53125 9.18059,0 15.71523,1.18962 21.125,2.875 5.70878,-5.04085 11.41258,-10.28482 17.06248,-15.75 -10.6488,-4.25187 -18.08561,-9.90626 -38.18748,-9.90625 -32.25675,0 -32.24325,14.50001 -64.5,14.5 -32.25675,0 -32.24327,-14.50001 -64.5,-14.5 -32.25675,0 -32.24325,14.50001 -64.5,14.5 -32.25675,0 -32.2745,-14.50001 -64.53125,-14.5 z m 0,45.59375 c -2.85623,0 -5.49675,0.11548 -7.9375,0.34375 15.33194,12.01187 30.40197,22.5452 44.5625,31.625 6.84559,2.89155 14.64325,5.34374 27.90625,5.34375 32.25675,0 32.24324,-14.53122 64.5,-14.53125 32.25674,-10e-6 32.24324,14.53123 64.5,14.53125 3.25689,0 6.17828,-0.17128 8.84375,-0.4375 16.48711,-10.2156 34.454,-22.45799 52.78125,-36.84375 -29.41541,0.83489 -30.35483,14.46876 -61.625,14.46875 -32.25675,0 -32.24327,-14.50002 -64.5,-14.5 -32.25675,0 -32.24325,14.50001 -64.5,14.5 -32.25675,0 -32.2745,-14.50002 -64.53125,-14.5 z"
       id="path8735"
       sodipodi:nodetypes="csccssssssccsssssccccsssssccssssccccsssccsssc"
       inkscape:connector-curvature="0" />
  </g>
  <g
     inkscape:groupmode="layer"
     id="layer2"
     inkscape:label="Reflet final"
     style="display:inline">
    <path
       sodipodi:nodetypes="cccccc"
       d="m 300.00001,658.5 c 0,0 298.5,-112.32031 298.5,-397.77183 0,-285.451504 0,-258.5516835 0,-258.5516835 l -597.00001,0 0,258.5516835 C 1.5,546.17969 300.00001,658.5 300.00001,658.5 z"
       style="fill:url(#radialGradient3163);fill-opacity:1;fill-rule:evenodd;stroke:none"
       id="path2875"
       inkscape:export-xdpi="144"
       inkscape:export-ydpi="144"
       inkscape:connector-curvature="0" />
  </g>
  <g
     inkscape:groupmode="layer"
     id="layer1"
     inkscape:label="Contour final"
     style="display:inline">
    <path
       sodipodi:nodetypes="cccccc"
       d="m 299.99999,658.50028 c 0,0 -298.49999,-112.32036 -298.49999,-397.772 0,-285.451616 0,-258.5517843 0,-258.5517843 l 596.99999,0 0,258.5517843 c 0,285.45164 -298.5,397.772 -298.5,397.772 z"
       style="fill:none;stroke:#000000;stroke-width:3.00000048;stroke-linecap:butt;stroke-linejoin:miter;stroke-miterlimit:4;stroke-opacity:1;stroke-dasharray:none"
       id="path1411"
       inkscape:export-xdpi="144"
       inkscape:export-ydpi="144"
       inkscape:connector-curvature="0" />
  </g>
</svg>
