<?xml version="1.0" encoding="UTF-8" standalone="no"?>
<svg
   xmlns:dc="http://purl.org/dc/elements/1.1/"
   xmlns:cc="http://creativecommons.org/ns#"
   xmlns:rdf="http://www.w3.org/1999/02/22-rdf-syntax-ns#"
   xmlns:svg="http://www.w3.org/2000/svg"
   xmlns="http://www.w3.org/2000/svg"
   xmlns:xlink="http://www.w3.org/1999/xlink"
   xmlns:sodipodi="http://sodipodi.sourceforge.net/DTD/sodipodi-0.dtd"
   xmlns:inkscape="http://www.inkscape.org/namespaces/inkscape"
   height="660"
   width="600"
   version="1.0"
   id="svg2"
   sodipodi:version="0.32"
   inkscape:version="0.46"
   sodipodi:docname="Blason Audembert.svg"
   sodipodi:docbase="D:\Mes documents\Renaud-Notre Lapin"
   inkscape:export-filename="/Users/olivier/Desktop/Blason Rouge/Blason_Vide_3D.png"
   inkscape:export-xdpi="144"
   inkscape:export-ydpi="144"
   inkscape:output_extension="org.inkscape.output.svg.inkscape">
  <metadata
     id="metadata49">
    <rdf:RDF>
      <cc:Work
         rdf:about="">
        <dc:format>image/svg+xml</dc:format>
        <dc:type
           rdf:resource="http://purl.org/dc/dcmitype/StillImage" />
        <dc:title>Gabarit d'un blason en pointe pour le projet Blasons de Wikipédia</dc:title>
        <dc:date>03-AUG-2006</dc:date>
        <dc:creator>
          <cc:Agent>
            <dc:title>Jérôme BLUM (wagner51)</dc:title>
          </cc:Agent>
        </dc:creator>
        <cc:license
           rdf:resource="http://web.resource.org/cc/PublicDomain" />
        <dc:language>fr</dc:language>
        <dc:subject>
          <rdf:Bag>
            <rdf:li>gabarit modèle blason projet wikipédia</rdf:li>
          </rdf:Bag>
        </dc:subject>
      </cc:Work>
      <cc:License
         rdf:about="http://web.resource.org/cc/PublicDomain">
        <cc:permits
           rdf:resource="http://web.resource.org/cc/Reproduction" />
        <cc:permits
           rdf:resource="http://web.resource.org/cc/Distribution" />
        <cc:permits
           rdf:resource="http://web.resource.org/cc/DerivativeWorks" />
      </cc:License>
    </rdf:RDF>
  </metadata>
  <sodipodi:namedview
     inkscape:window-height="712"
     inkscape:window-width="1024"
     inkscape:pageshadow="2"
     inkscape:pageopacity="0.0"
     guidetolerance="10.0"
     gridtolerance="10.0"
     objecttolerance="10.0"
     borderopacity="1.0"
     bordercolor="#666666"
     pagecolor="#ffffff"
     id="base"
     showgrid="false"
     height="660px"
     inkscape:zoom="0.63"
     inkscape:cx="222.97227"
     inkscape:cy="375.44384"
     inkscape:window-x="58"
     inkscape:window-y="207"
     inkscape:current-layer="g4146" />
  <desc
     id="desc4">Flag of Canton of Valais (Wallis)</desc>
  <defs
     id="defs6">
    <inkscape:perspective
       sodipodi:type="inkscape:persp3d"
       inkscape:vp_x="0 : 330 : 1"
       inkscape:vp_y="0 : 1000 : 0"
       inkscape:vp_z="600 : 330 : 1"
       inkscape:persp3d-origin="300 : 220 : 1"
       id="perspective35" />
    <linearGradient
       id="linearGradient2893">
      <stop
         style="stop-color:white;stop-opacity:0.3137255;"
         offset="0"
         id="stop2895" />
      <stop
         id="stop2897"
         offset="0.19"
         style="stop-color:white;stop-opacity:0.25098041;" />
      <stop
         style="stop-color:#6b6b6b;stop-opacity:0.1254902;"
         offset="0.60000002"
         id="stop2901" />
      <stop
         style="stop-color:black;stop-opacity:0.1254902;"
         offset="1"
         id="stop2899" />
    </linearGradient>
    <linearGradient
       id="linearGradient2885">
      <stop
         id="stop2887"
         offset="0"
         style="stop-color:white;stop-opacity:1;" />
      <stop
         style="stop-color:white;stop-opacity:1;"
         offset="0.22857143"
         id="stop2891" />
      <stop
         id="stop2889"
         offset="1"
         style="stop-color:black;stop-opacity:1;" />
    </linearGradient>
    <linearGradient
       id="linearGradient2955">
      <stop
         id="stop2867"
         offset="0"
         style="stop-color:#fd0000;stop-opacity:1;" />
      <stop
         style="stop-color:#e77275;stop-opacity:0.65882355;"
         offset="0.5"
         id="stop2873" />
      <stop
         style="stop-color:black;stop-opacity:0.32291666;"
         offset="1"
         id="stop2959" />
    </linearGradient>
    <radialGradient
       inkscape:collect="always"
       xlink:href="#linearGradient2955"
       id="radialGradient2961"
       cx="225.52438"
       cy="218.90099"
       fx="225.52438"
       fy="218.90099"
       r="300"
       gradientTransform="matrix(-4.167939e-4,2.182867,-1.884232,-3.599562e-4,615.5972,-289.1214)"
       gradientUnits="userSpaceOnUse" />
    <polygon
       id="star"
       transform="scale(53,53)"
       points="0,-1 0.58778525,0.80901699 -0.95105652,-0.30901699 0.95105652,-0.30901699 -0.58778525,0.80901699 0,-1 " />
    <clipPath
       id="clip">
      <path
         d="M 0,-200 L 0,600 L 300,600 L 300,-200 L 0,-200 z "
         id="path10" />
    </clipPath>
    <radialGradient
       inkscape:collect="always"
       xlink:href="#linearGradient2955"
       id="radialGradient1911"
       gradientUnits="userSpaceOnUse"
       gradientTransform="matrix(-4.167939e-4,2.182867,-1.884232,-3.599562e-4,615.5972,-289.1214)"
       cx="225.52438"
       cy="218.90099"
       fx="225.52438"
       fy="218.90099"
       r="300" />
    <radialGradient
       inkscape:collect="always"
       xlink:href="#linearGradient2955"
       id="radialGradient2865"
       gradientUnits="userSpaceOnUse"
       gradientTransform="matrix(0,1.748721,-1.593162,-1.049767e-7,551.7876,-191.2898)"
       cx="225.52438"
       cy="218.90099"
       fx="225.52438"
       fy="218.90099"
       r="300" />
    <radialGradient
       inkscape:collect="always"
       xlink:href="#linearGradient2955"
       id="radialGradient2871"
       gradientUnits="userSpaceOnUse"
       gradientTransform="matrix(0,1.386237,-1.323286,-5.741131e-8,-158.0823,-109.5408)"
       cx="225.52438"
       cy="218.90099"
       fx="225.52438"
       fy="218.90099"
       r="300" />
    <radialGradient
       inkscape:collect="always"
       xlink:href="#linearGradient2893"
       id="radialGradient3163"
       gradientUnits="userSpaceOnUse"
       gradientTransform="matrix(1.353218,0,0,1.348928,-77.62935,-85.74693)"
       cx="221.44487"
       cy="226.33101"
       fx="221.44487"
       fy="226.33101"
       r="300" />
    <inkscape:perspective
       id="perspective102"
       inkscape:persp3d-origin="216.87964 : 144.37009 : 1"
       inkscape:vp_z="433.75928 : 216.55513 : 1"
       inkscape:vp_y="0 : 1000 : 0"
       inkscape:vp_x="0 : 216.55513 : 1"
       sodipodi:type="inkscape:persp3d" />
    <radialGradient
       r="300"
       fy="200.44757"
       fx="285.18573"
       cy="200.44757"
       cx="285.18573"
       gradientTransform="matrix(1.551284,0,0,1.350335,-227.8943,-51.2635)"
       gradientUnits="userSpaceOnUse"
       id="radialGradient11919"
       xlink:href="#linearGradient2893"
       inkscape:collect="always" />
    <radialGradient
       gradientUnits="userSpaceOnUse"
       gradientTransform="matrix(0,2.342476,-2.291353,0,562.9126,1323.77)"
       r="300.00003"
       fy="153.9283"
       fx="-483.50824"
       cy="153.9283"
       cx="-483.50824"
       id="radialGradient2928"
       xlink:href="#linearGradient2955"
       inkscape:collect="always" />
    <radialGradient
       r="300"
       fy="218.90099"
       fx="225.52438"
       cy="218.90099"
       cx="225.52438"
       gradientTransform="matrix(-4.167939e-4,2.182867,-1.884232,-3.599562e-4,1395.597,-309.1214)"
       gradientUnits="userSpaceOnUse"
       id="radialGradient4138"
       xlink:href="#linearGradient2955"
       inkscape:collect="always" />
    <clipPath
       id="clipPath4134">
      <path
         id="path4136"
         d="M 0,-200 L 0,600 L 300,600 L 300,-200 L 0,-200 z " />
    </clipPath>
    <polygon
       points="0,-1 0.58778525,0.80901699 -0.95105652,-0.30901699 0.95105652,-0.30901699 -0.58778525,0.80901699 0,-1 "
       transform="scale(53,53)"
       id="polygon4132" />
    <radialGradient
       gradientUnits="userSpaceOnUse"
       gradientTransform="matrix(-4.167939e-4,2.182867,-1.884232,-3.599562e-4,615.5972,-289.1214)"
       r="300"
       fy="218.90099"
       fx="225.52438"
       cy="218.90099"
       cx="225.52438"
       id="radialGradient4130"
       xlink:href="#linearGradient2955"
       inkscape:collect="always" />
    <linearGradient
       id="linearGradient4125">
      <stop
         id="stop2965"
         offset="0"
         style="stop-color:white;stop-opacity:0;" />
      <stop
         id="stop4128"
         offset="1"
         style="stop-color:black;stop-opacity:0.64583331;" />
    </linearGradient>
    <radialGradient
       gradientUnits="userSpaceOnUse"
       gradientTransform="matrix(1.360018,0,0,1.355087,-79.5275,-87.64524)"
       r="300"
       fy="218.01039"
       fx="203.19754"
       cy="218.01039"
       cx="203.19754"
       id="radialGradient2883"
       xlink:href="#linearGradient2893"
       inkscape:collect="always" />
    <linearGradient
       id="linearGradient4114">
      <stop
         id="stop4116"
         offset="0"
         style="stop-color:white;stop-opacity:0.3137255;" />
      <stop
         style="stop-color:white;stop-opacity:0.25098041;"
         offset="0.19"
         id="stop4118" />
      <stop
         id="stop4120"
         offset="0.60000002"
         style="stop-color:#6b6b6b;stop-opacity:0.1254902;" />
      <stop
         id="stop4122"
         offset="1"
         style="stop-color:black;stop-opacity:0.1254902;" />
    </linearGradient>
    <inkscape:perspective
       id="perspective67"
       inkscape:persp3d-origin="300 : 220 : 1"
       inkscape:vp_z="600 : 330 : 1"
       inkscape:vp_y="0 : 1000 : 0"
       inkscape:vp_x="0 : 330 : 1"
       sodipodi:type="inkscape:persp3d" />
    <inkscape:perspective
       id="perspective16"
       inkscape:persp3d-origin="250 : 113.33332 : 1"
       inkscape:vp_z="500 : 169.99998 : 1"
       inkscape:vp_y="0 : 1000 : 0"
       inkscape:vp_x="0 : 169.99998 : 1"
       sodipodi:type="inkscape:persp3d" />
  </defs>
  <g
     inkscape:groupmode="layer"
     id="layer3"
     inkscape:label="Fond écu"
     style="display:inline">
    <path
       id="path2855"
       style="fill:#ffffff;fill-opacity:1;fill-rule:evenodd;stroke:none;stroke-width:1px;stroke-linecap:butt;stroke-linejoin:miter;stroke-opacity:1"
       d="M 300,658.5 C 300,658.5 598.50001,546.17969 598.50001,260.72817 C 598.50001,-24.723354 598.50001,2.1764765 598.50001,2.1764765 L 1.5,2.1764765 L 1.5,260.72817 C 1.5,546.17969 300,658.5 300,658.5 z "
       sodipodi:nodetypes="cccccc" />
    <g
       style="display:inline"
       id="g3921"
       transform="matrix(1.4279354,0,0,1.2611386,19.046727,38.119836)">
      <g
         transform="matrix(0,-1,-1,0,306.97734,402.35185)"
         id="g7148"
         style="fill:#fcef3c" />
      <g
         transform="matrix(0,-1,-1,0,653.25964,109.79015)"
         id="g7325" />
      <g
         transform="translate(-19.560058,-19.375254)"
         style="display:inline"
         inkscape:label="Meuble"
         id="g3925">
        <g
           id="g3057">
          <g
             id="g2765"
             style="stroke-width:2"
             transform="matrix(2.0732992,0,0,2.0686169,-232.77658,-231.88513)" />
        </g>
      </g>
    </g>
    <rect
       style="opacity:1;fill:#e20909;fill-opacity:1;fill-rule:nonzero;stroke:#000000;stroke-width:2;stroke-linecap:round;stroke-linejoin:bevel;stroke-miterlimit:4;stroke-dasharray:none;stroke-dashoffset:0;stroke-opacity:1"
       id="rect4017"
       width="598.41272"
       height="171.42857"
       x="1.5873016"
       y="1.269838" />
    <g
       id="g4142"
       transform="translate(-424.78927,112.63407)">
      <g
         style="display:inline"
         inkscape:label="Fond écu"
         id="g4144" />
      <g
         style="display:inline"
         inkscape:label="Meubles"
         id="g4146">
        <g
           style="fill:#e6e6e6;stroke:#000000;stroke-width:7.06746244;stroke-miterlimit:4;stroke-dasharray:none;stroke-opacity:1"
           transform="matrix(0.282987,0,0,0.282987,-2.361158,40.6995)"
           id="g1936" />
        <g
           id="g4936"
           transform="translate(-19.047619,0)">
          <path
             sodipodi:nodetypes="ccccscssccssccc"
             id="path1900"
             d="M 2404.8018,696.06883 C 2339.3267,619.03067 2336.5972,638.76135 2320.3497,558.9003 C 2304.1023,479.03927 2364.3471,364.08484 2331.852,300.19607 C 2278.3657,191.36892 2203.7131,127.02769 2076.9803,137.64629 C 1914.5039,153.61857 1907.853,238.80642 1862.4145,246.61539 C 1773.2057,261.94666 1662.8405,291.44072 1662.8405,291.44072 C 1662.8405,291.44072 1623.8186,326.53237 1634.4468,351.01341 C 1645.9946,377.61277 1646.2419,398.43898 1672.1618,421.11508 C 1711.1783,455.24882 1784.9279,465.39284 1979.2915,460.52307 C 1722.3286,474.48814 1756.2525,446.28562 1676.159,428.05904 C 1696.5085,480.32422 1736.1183,482.60981 1764.6876,487.07301 C 1810.9774,494.30459 1801.3729,496.21278 1920.0296,507.24606 C 2036.3817,518.06504 2039,514.28341 2062.8232,544.58193 C 2078.9075,592.48936 2109.3591,746.18692 2086.88,797.5457 C 2246.9428,838.35902 2358.5853,891.846 2404.8018,696.06883 z"
             style="fill:#000000;fill-rule:evenodd;stroke:#b4b4b4;stroke-width:10.60119343;stroke-linecap:butt;stroke-linejoin:miter;stroke-miterlimit:4;stroke-dasharray:none;stroke-opacity:1;display:inline"
             transform="matrix(0.282987,0,0,0.282987,-2.36116,40.6995)" />
          <path
             id="path1904"
             d="M 2159.0445,153.40189 C 2149.3607,220.61618 2021.789,407.64674 2122.3731,449.80741 C 2222.9572,491.96799 2305.733,276.90054 2305.733,276.90054 C 2305.733,276.90054 2238.3447,172.45091 2159.0445,153.40189 z"
             style="fill:#000000;fill-rule:evenodd;stroke:#b4b4b4;stroke-width:10.60119343;stroke-linecap:butt;stroke-linejoin:miter;stroke-miterlimit:4;stroke-dasharray:none;stroke-opacity:1;display:inline"
             sodipodi:nodetypes="cscc"
             transform="matrix(0.282987,0,0,0.282987,-2.36116,40.6995)" />
          <path
             id="path1906"
             d="M 1944.2307,215.39022 C 1910.9314,214.93787 1909.8148,269.91249 1946.7713,273.21448 C 1960.2309,274.41706 1972.6886,263.63826 2000.3934,246.57221 C 1980.0913,247.62617 1968.2484,215.73821 1944.2307,215.39022 z"
             style="fill:#000000;fill-rule:evenodd;stroke:#b4b4b4;stroke-width:10.60119343;stroke-linecap:butt;stroke-linejoin:miter;stroke-miterlimit:4;stroke-dasharray:none;stroke-opacity:1;display:inline"
             sodipodi:nodetypes="cscs"
             transform="matrix(0.282987,0,0,0.282987,-2.36116,40.6995)" />
          <g
             id="g1908"
             transform="matrix(0.8194045,0,0,0.8034279,352.31761,62.998536)"
             style="fill:#000000;fill-opacity:1;stroke:#b4b4b4;stroke-width:3.69741869;stroke-miterlimit:4;stroke-dasharray:none;stroke-opacity:1">
            <path
               transform="matrix(21.87157,0,0,22.28524,-1275.894,-3255.235)"
               d="M 69.563647,148.68111 A 0.29855642,0.29855642 0 1 1 68.966535,148.68111 A 0.29855642,0.29855642 0 1 1 69.563647,148.68111 z"
               sodipodi:ry="0.29855642"
               sodipodi:rx="0.29855642"
               sodipodi:cy="148.68111"
               sodipodi:cx="69.265091"
               id="path1910"
               style="fill:#000000;fill-opacity:1;fill-rule:evenodd;stroke:#b4b4b4;stroke-width:0.167475;stroke-miterlimit:4;stroke-dasharray:none;stroke-dashoffset:0;stroke-opacity:1"
               sodipodi:type="arc" />
            <path
               sodipodi:nodetypes="cscccc"
               id="path1912"
               d="M 155.29853,72.369444 C 156.84681,79.010982 156.84681,82.918055 150.21982,91.434716 C 146.66735,96.000158 132.61198,104.79572 132.61198,104.79572 L 129.58092,87.620932 C 129.58092,87.620932 130.18444,78.437385 135.30487,75.132412 C 139.69567,72.558886 155.29853,72.369444 155.29853,72.369444 z"
               style="fill:#000000;fill-opacity:1;fill-rule:evenodd;stroke:#b4b4b4;stroke-width:3.69741869;stroke-linecap:butt;stroke-linejoin:miter;stroke-miterlimit:4;stroke-dasharray:none;stroke-opacity:1" />
          </g>
        </g>
        <use
           x="0"
           y="0"
           xlink:href="#g4936"
           id="use4944"
           transform="translate(296.82539,6.3492064)"
           width="600"
           height="660" />
        <use
           x="0"
           y="0"
           xlink:href="#use4944"
           id="use4946"
           transform="translate(-134.92063,214.28572)"
           width="600"
           height="660" />
        <g
           transform="matrix(-0.5842085,0,0,0.4537006,873.54933,-100.88768)"
           style="opacity:1;fill:#fcef3c;display:inline"
           id="g2718"
           inkscape:label="Calque 1">
          <g
             transform="matrix(1.0634185,0,0,1.0650819,62.484689,-93.762511)"
             id="g4876"
             style="fill:#fcef3c">
            <path
               style="opacity:1;fill:#fcef3c;fill-opacity:1;fill-rule:evenodd;stroke:#000000;stroke-width:2.81888723;stroke-linecap:butt;stroke-linejoin:round;stroke-miterlimit:4;stroke-dasharray:none;stroke-opacity:1"
               d="M -19.639633,122.20787 C -148.60116,67.23504 311.48637,79.0228 177.74697,123.79518 C 106.18382,133.16078 42.26459,131.75236 -19.639633,122.20787 z"
               id="path4641"
               sodipodi:nodetypes="ccc" />
            <path
               style="opacity:1;fill:#fcef3c;fill-opacity:1;fill-rule:evenodd;stroke:#000000;stroke-width:2.81888723;stroke-linecap:butt;stroke-linejoin:round;stroke-miterlimit:4;stroke-dasharray:none;stroke-opacity:1"
               d="M -2.876681,96.01739 C -145.22017,125.52346 298.58253,126.27223 164.15861,98.63079 C 108.44376,91.35305 53.74709,88.38048 -2.876681,96.01739 z"
               id="path5528"
               sodipodi:nodetypes="ccc" />
            <path
               style="opacity:1;fill:#fcef3c;fill-opacity:1;fill-rule:evenodd;stroke:#000000;stroke-width:2.81888723;stroke-linecap:butt;stroke-linejoin:round;stroke-miterlimit:4;stroke-dasharray:none;stroke-opacity:1"
               d="M 396.27327,205.21245 L 316.53956,204.98 L 323.68242,217.67841 L 394.22105,218.47206 C 395.18591,212.08782 395.67725,211.78905 396.27327,205.21245 z"
               id="path1913"
               sodipodi:nodetypes="ccccc" />
            <g
               id="g2842"
               transform="translate(-69.96837,-155.02)"
               style="opacity:1;fill:#fcef3c;fill-opacity:1">
              <path
                 sodipodi:nodetypes="ccccccc"
                 id="path11817"
                 d="M 481.36737,328.54762 L 488.27778,324.57936 L 488.27778,304.27318 C 476.26878,305.24498 472.31275,305.32187 460.5,304.27319 L 460.5,323.78571 L 467.64286,328.54762 L 481.36737,328.54762 z"
                 style="fill:#fcef3c;fill-opacity:1;fill-rule:evenodd;stroke:#000000;stroke-width:2.81888723;stroke-linecap:butt;stroke-linejoin:round;stroke-miterlimit:4;stroke-dasharray:none;stroke-opacity:1" />
              <path
                 sodipodi:nodetypes="ccccc"
                 id="path1917"
                 d="M 454.7619,302.85714 L 454.7619,296.50794 C 474.11643,294.12211 476.52491,293.9539 493.65079,295.94675 L 493.88324,302.62469 C 481.57633,305.90206 468.56522,305.54802 454.7619,302.85714 z"
                 style="fill:#fcef3c;fill-opacity:1;fill-rule:evenodd;stroke:#000000;stroke-width:2.81888723;stroke-linecap:butt;stroke-linejoin:round;stroke-miterlimit:4;stroke-dasharray:none;stroke-opacity:1" />
              <path
                 sodipodi:nodetypes="cc"
                 id="path1919"
                 d="M 454.52944,296.83668 C 470.79888,299.06598 478.43704,299.52667 494.63017,296.75007"
                 style="fill:#fcef3c;fill-opacity:1;fill-rule:evenodd;stroke:#000000;stroke-width:2.81888723;stroke-linecap:butt;stroke-linejoin:round;stroke-miterlimit:4;stroke-dasharray:none;stroke-opacity:1" />
            </g>
            <path
               id="path2869"
               style="fill:#fcef3c;fill-opacity:1;fill-rule:evenodd;stroke:#000000;stroke-width:2.81888723;stroke-linecap:butt;stroke-linejoin:round;stroke-miterlimit:4;stroke-opacity:1"
               d="M 182.70143,121.64667 C 105.21484,133.05758 52.00576,132.23515 -19.968374,121.64667 C 30.6482,147.27909 45.68045,195.73356 52.25385,248.6308 C 72.33998,352.57208 129.68793,392.02174 204.6348,401.01175 C 348.46479,413.30348 411.4724,286.0963 411.83406,173.61628 L 398.8069,173.05508 C 394.28824,295.61824 337.73772,346.55817 292.2813,373.66072 C 275.83072,386.36075 262.94443,393.66222 232.27641,401.2442 C 379.40015,370.12175 365.4813,168.49411 230.03163,151.8054 C 183.80226,146.24321 131.76741,173.89152 109.38353,215.93271 C 103.36772,258.76365 119.40979,302.37785 126.85702,314.27136 C 98.74911,258.81302 91.68353,159.9119 182.70143,121.64667 z M 317.79367,274.97972 C 317.79367,331.83571 273.42745,377.97971 218.76191,377.97971 C 164.09638,377.97971 119.73015,331.83571 119.73015,274.97972 C 119.73015,218.12373 164.09638,171.97974 218.76191,171.97974 C 273.42745,171.97974 317.79367,218.12373 317.79367,274.97972 z" />
          </g>
        </g>
      </g>
      <g
         inkscape:label="Reflet final"
         id="g4159" />
      <g
         inkscape:label="Contour final"
         id="g4161" />
    </g>
  </g>
  <g
     inkscape:groupmode="layer"
     id="layer4"
     inkscape:label="Meubles"
     sodipodi:insensitive="true" />
  <g
     inkscape:groupmode="layer"
     id="layer2"
     inkscape:label="Reflet final"
     sodipodi:insensitive="true">
    <path
       sodipodi:nodetypes="cccccc"
       d="M 300.00001,658.5 C 300.00001,658.5 598.50001,546.17969 598.50001,260.72817 C 598.50001,-24.723334 598.50001,2.1764865 598.50001,2.1764865 L 1.5,2.1764865 L 1.5,260.72817 C 1.5,546.17969 300.00001,658.5 300.00001,658.5 z "
       style="opacity:1;fill:url(#radialGradient3163);fill-opacity:1;fill-rule:evenodd;stroke:none;stroke-width:1px;stroke-linecap:butt;stroke-linejoin:miter;stroke-opacity:1"
       id="path2875"
       inkscape:export-xdpi="144"
       inkscape:export-ydpi="144" />
  </g>
  <g
     inkscape:groupmode="layer"
     id="layer1"
     inkscape:label="Contour final"
     sodipodi:insensitive="true">
    <path
       sodipodi:nodetypes="cccccc"
       d="M 299.99999,658.50028 C 299.99999,658.50028 1.5,546.17992 1.5,260.72828 C 1.5,-24.723336 1.5,2.1764957 1.5,2.1764957 L 598.49999,2.1764957 L 598.49999,260.72828 C 598.49999,546.17992 299.99999,658.50028 299.99999,658.50028 z "
       style="opacity:1;fill:none;fill-opacity:1;fill-rule:evenodd;stroke:#000000;stroke-width:3.00000048;stroke-linecap:butt;stroke-linejoin:miter;stroke-miterlimit:4;stroke-dasharray:none;stroke-opacity:1"
       id="path1411"
       inkscape:export-xdpi="144"
       inkscape:export-ydpi="144" />
  </g>
</svg>
