<?xml version="1.0" encoding="UTF-8" standalone="no"?>
<!-- Created with Inkscape (http://www.inkscape.org/) -->
<svg
   xmlns:dc="http://purl.org/dc/elements/1.1/"
   xmlns:cc="http://creativecommons.org/ns#"
   xmlns:rdf="http://www.w3.org/1999/02/22-rdf-syntax-ns#"
   xmlns:svg="http://www.w3.org/2000/svg"
   xmlns="http://www.w3.org/2000/svg"
   xmlns:xlink="http://www.w3.org/1999/xlink"
   xmlns:sodipodi="http://sodipodi.sourceforge.net/DTD/sodipodi-0.dtd"
   xmlns:inkscape="http://www.inkscape.org/namespaces/inkscape"
   width="600"
   height="660"
   id="svg2383"
   sodipodi:version="0.32"
   inkscape:version="0.46"
   version="1.0"
   sodipodi:docname="Blason_Hagéville-A_54.svg"
   inkscape:output_extension="org.inkscape.output.svg.inkscape">
  <defs
     id="defs2385">
    <clipPath
       id="shield_cut">
      <path
         d="M -298.5,-298.5 L -298.5,183 C -298.5,312.05477 -66.85998,248.9482 0,358.5 C 66.85998,248.9482 298.5,312.05477 298.5,183 L 298.5,-298.5 L -298.5,-298.5 z"
         id="shield" />
    </clipPath>
    <radialGradient
       r="405"
       cy="-80"
       cx="-80"
       gradientUnits="userSpaceOnUse"
       id="Gradient1">
      <stop
         id="stop2521"
         offset="0"
         style="stop-color:#fff;stop-opacity:0.31" />
      <stop
         id="stop2523"
         offset="0.19"
         style="stop-color:#fff;stop-opacity:0.25" />
      <stop
         id="stop2525"
         offset="0.6"
         style="stop-color:#6b6b6b;stop-opacity:0.125" />
      <stop
         id="stop2527"
         offset="1"
         style="stop-color:#000;stop-opacity:0.125" />
    </radialGradient>
  </defs>
  <sodipodi:namedview
     id="base"
     pagecolor="#ffffff"
     bordercolor="#666666"
     borderopacity="1.0"
     inkscape:pageopacity="0.0"
     inkscape:pageshadow="2"
     inkscape:zoom="1.1621212"
     inkscape:cx="300"
     inkscape:cy="330"
     inkscape:document-units="px"
     inkscape:current-layer="layer1"
     showgrid="false"
     showborder="true"
     inkscape:showpageshadow="true"
     inkscape:window-width="1280"
     inkscape:window-height="977"
     inkscape:window-x="-4"
     inkscape:window-y="-4"
     inkscape:object-nodes="true"
     objecttolerance="9" />
  <metadata
     id="metadata2388">
    <rdf:RDF>
      <cc:Work
         rdf:about="">
        <dc:format>image/svg+xml</dc:format>
        <dc:type
           rdf:resource="http://purl.org/dc/dcmitype/StillImage" />
      </cc:Work>
    </rdf:RDF>
  </metadata>
  <g
     inkscape:label="Fond écu"
     inkscape:groupmode="layer"
     id="layer1"
     transform="translate(0,-392.36218)">
    <use
       id="use2532"
       xlink:href="#shield"
       style="fill:#e20909"
       x="0"
       y="0"
       width="744.09448"
       height="1052.3622"
       transform="translate(300,692.36218)" />
    <g
       id="layer3"
       inkscape:label="Meubles"
       transform="translate(300,692.36218)" />
    <g
       id="layer2"
       inkscape:label="Reflet final"
       transform="translate(300,692.36218)" />
    <g
       id="g2561"
       inkscape:label="Contour final"
       transform="translate(300,692.36218)" />
    <path
       style="fill:#fcef3c"
       d="M 300 288 L 300 658.5 C 366.85998 548.94813 598.5 612.05488 598.5 483 L 598.5 288 L 300 288 z "
       transform="translate(0,392.36218)"
       id="path2815" />
    <path
       style="opacity:1;fill:#fcef3c;fill-opacity:1;fill-rule:nonzero;stroke:none;stroke-width:1;stroke-linecap:butt;stroke-linejoin:round;stroke-miterlimit:4;stroke-dasharray:none;stroke-opacity:1"
       d="M 1.5,393.86218 L 1.5,680.36218 L 300,680.36218 L 300,393.86218 L 1.5,393.86218 z"
       id="rect2817" />
    <path
       style="opacity:1;fill:#e20909;fill-opacity:1;fill-rule:nonzero;stroke:#000000;stroke-width:3;stroke-linecap:butt;stroke-linejoin:round;stroke-miterlimit:4;stroke-dasharray:none;stroke-dashoffset:0;stroke-opacity:1"
       d="M 1.5 1.5 L 1.5 68.03125 L 266.75 322.625 L 520.90625 566.5625 C 558.02702 555.2708 587.0556 538.63193 595.78125 505.34375 L 333.25 253.34375 L 333.25 253.375 L 70.8125 1.5 L 1.5 1.5 z "
       transform="translate(0,392.36218)"
       id="path8379" />
    <g
       id="g9022"
       transform="matrix(0.5090609,-0.4885984,0.4885984,0.5090609,96.397647,545.46353)">
      <g
         transform="translate(-242.13712,-297.90656)"
         style="display:inline"
         inkscape:label="Fond écu"
         id="g9024" />
      <g
         transform="translate(-242.13712,-297.90656)"
         inkscape:label="Meubles"
         id="layer4">
        <g
           id="g13816">
          <path
             sodipodi:nodetypes="cccccc"
             id="path14673"
             d="M 258.13806,311.50745 C 252.02416,315.14463 254.36964,338.81664 244.86217,351.1386 C 243.54384,352.92678 240.80005,355.20569 244.48487,353.84266 C 256.63143,349.38945 266.51747,322.56015 265.16386,309.43821 C 264.11085,309.43878 262.18115,309.36653 261.1187,309.43995 C 259.3592,310.12912 259.89756,310.81828 258.13806,311.50745 z"
             style="fill:#ffffff;fill-opacity:1;fill-rule:evenodd;stroke:#000000;stroke-width:1;stroke-linecap:butt;stroke-linejoin:miter;stroke-miterlimit:4;stroke-dasharray:none;stroke-opacity:1"
             inkscape:transform-center-x="81.419103"
             inkscape:transform-center-y="-10.853584" />
          <path
             sodipodi:nodetypes="cscccccc"
             id="path14675"
             d="M 260.41115,318.41463 C 258.94078,320.96137 258.83544,325.01776 258.77938,327.99802 C 258.59865,337.60746 257.85734,347.46856 247.74953,357.62504 C 245.3999,360.00277 245.79253,360.64697 248.50894,359.8125 C 264.72109,354.35749 264.49735,333.95553 269.67485,322.54341 C 269.28495,320.10671 269.50996,317.74019 267.9312,316.19956 C 266.88455,316.31497 265.84029,316.30886 264.79219,316.49771 C 263.11834,317.37466 262.08499,317.53769 260.41115,318.41463 z"
             style="fill:#ffffff;fill-opacity:1;fill-rule:evenodd;stroke:#000000;stroke-width:1;stroke-linecap:butt;stroke-linejoin:miter;stroke-miterlimit:4;stroke-dasharray:none;stroke-opacity:1"
             inkscape:transform-center-x="32.50414"
             inkscape:transform-center-y="-7.1189567" />
          <path
             sodipodi:nodetypes="cscccccc"
             id="path14671"
             d="M 263.50648,324.38373 C 262.87466,328.81536 263.61135,332.29731 263.6853,335.94243 C 263.87397,345.24008 262.10013,354.42478 254.61598,363.98831 C 252.54169,366.48226 252.97479,367.0725 255.53181,366.04017 C 270.3005,359.47126 271.7422,338.77285 273.69087,327.31468 C 273.11159,324.99118 272.08535,322.77441 270.43105,321.41595 C 269.4287,321.61445 268.41857,321.69524 267.42091,321.96485 C 265.87539,322.95168 265.05201,323.39689 263.50648,324.38373 z"
             style="fill:#ffffff;fill-opacity:1;fill-rule:evenodd;stroke:#000000;stroke-width:1;stroke-linecap:butt;stroke-linejoin:miter;stroke-miterlimit:4;stroke-dasharray:none;stroke-opacity:1"
             inkscape:transform-center-x="-8.1813582"
             inkscape:transform-center-y="-7.6424899" />
          <path
             sodipodi:nodetypes="ccccccc"
             id="path14677"
             d="M 268.36723,332.31237 C 270.56258,345.40562 270.0973,356.80291 260.97632,370.07592 C 259.02062,372.5553 259.45699,373.11876 261.91935,372.04962 C 276.49347,367.27552 276.53142,345.56231 278.13871,334.36244 C 277.51635,332.1159 277.36441,329.9845 275.72021,328.70423 C 274.74976,328.92269 273.76878,329.02679 272.80469,329.31434 C 271.32554,330.31369 269.84638,331.31303 268.36723,332.31237 z"
             style="fill:#ffffff;fill-opacity:1;fill-rule:evenodd;stroke:#000000;stroke-width:1;stroke-linecap:butt;stroke-linejoin:miter;stroke-miterlimit:4;stroke-dasharray:none;stroke-opacity:1"
             inkscape:transform-center-x="16.400283"
             inkscape:transform-center-y="-1.6707981" />
          <path
             sodipodi:nodetypes="ccccccc"
             id="path14679"
             d="M 274.26437,337.55936 C 277.26674,348.67341 276.89192,357.77324 272.1581,370.09143 C 270.69696,372.89091 271.23039,373.36352 273.45133,371.85562 C 281.73436,366.07906 284.07403,348.16168 282.97288,337.37572 C 282.17875,334.35017 281.10806,333.8517 278.28744,332.6449 C 277.37445,333.03981 276.42988,333.32433 275.53597,333.78593 C 274.43769,335.37857 273.75273,335.09118 274.26437,337.55936 z"
             style="fill:#ffffff;fill-opacity:1;fill-rule:evenodd;stroke:#000000;stroke-width:1;stroke-linecap:butt;stroke-linejoin:miter;stroke-miterlimit:4;stroke-dasharray:none;stroke-opacity:1" />
          <path
             sodipodi:nodetypes="csccccc"
             id="path14681"
             d="M 280.76302,337.41508 C 282.48351,342.56316 282.08285,347.87716 282.06786,353.62423 C 282.05676,357.88641 282.0733,362.3845 281.08779,367.23204 C 279.92454,371.69889 282.10412,370.93721 283.0448,368.92041 C 289.06743,360.13247 289.33729,349.77687 288.31504,338.72055 C 288.24923,337.14947 289.25946,335.30313 284.6891,332.40679 C 281.14206,333.33969 279.70358,334.2268 280.76302,337.41508 z"
             style="fill:#ffffff;fill-opacity:1;fill-rule:evenodd;stroke:#000000;stroke-width:1;stroke-linecap:butt;stroke-linejoin:miter;stroke-miterlimit:4;stroke-dasharray:none;stroke-opacity:1"
             inkscape:transform-center-x="5.0521631"
             inkscape:transform-center-y="-1.5425572" />
          <path
             style="fill:#ffffff;fill-opacity:1;fill-rule:evenodd;stroke:#000000;stroke-width:1;stroke-linecap:butt;stroke-linejoin:miter;stroke-miterlimit:4;stroke-dasharray:none;stroke-opacity:1"
             d="M 286.77152,337.20667 C 288.91693,341.44554 288.68092,345.76045 289.22863,351.26324 C 289.65076,355.50448 289.04115,360.51919 288.55342,365.4418 C 287.85019,370.00374 289.39468,368.7449 290.6719,366.92252 C 298.64087,353.65288 291.89303,346.02877 293.60444,335.18219 C 292.72793,333.19371 292.02236,330.52792 287.77234,333.75632 L 286.77152,337.20667 z"
             id="path12997"
             sodipodi:nodetypes="csccccc"
             inkscape:transform-center-y="11.246663"
             inkscape:transform-center-x="-0.25406483" />
          <path
             sodipodi:nodetypes="csscccccccccccccccc"
             id="path3971"
             d="M 303.13128,323.53035 C 297.63117,333.93753 283.20083,329.30527 280.74266,318.44257 C 277.15145,302.57295 269.04706,302.91354 263.92908,304.89875 C 259.539,306.60161 256.34783,309.58504 255.53337,314.74531 C 258.28256,316.56151 259.27566,315.21296 261.17609,314.34456 C 259.65904,316.05452 258.14693,316.6205 258.10618,321.49873 C 263.79375,322.84275 262.24401,322.37679 264.23586,321.37186 C 262.60167,322.87836 262.02697,323.69452 262.6391,328.4761 C 266.86214,328.55099 268.10135,327.75534 269.02461,326.82999 C 267.37967,329.1975 267.2279,331.93318 267.87423,334.32324 C 271.21544,334.04833 272.96215,333.36302 274.50925,331.37151 C 273.53374,333.67468 273.47136,336.23253 274.55993,339.27054 C 277.32877,338.87495 279.45677,337.95374 280.45619,335.32328 C 280.25957,338.76942 280.64755,341.04636 282.19836,342.70441 C 284.20092,341.82509 286.53852,340.4039 287.10386,338.43674 C 286.88581,341.07024 289.32151,343.59853 290.8336,344.26729 C 292.78544,343.08225 295.00378,341.31884 295.60713,338.66647 C 299.74987,334.1282 298.77202,334.13395 306.76715,335.7613 C 306.10027,332.16024 304.78486,326.53311 303.13128,323.53035 z"
             style="fill:#ffffff;fill-opacity:1;fill-rule:evenodd;stroke:#000000;stroke-width:1;stroke-linecap:butt;stroke-linejoin:miter;stroke-miterlimit:4;stroke-dasharray:none;stroke-opacity:1" />
          <path
             inkscape:transform-center-y="-10.853584"
             inkscape:transform-center-x="81.419103"
             style="fill:#ffffff;fill-opacity:1;fill-rule:evenodd;stroke:#000000;stroke-width:1;stroke-linecap:butt;stroke-linejoin:miter;stroke-miterlimit:4;stroke-dasharray:none;stroke-opacity:1"
             d="M 354.83046,311.50745 C 360.94437,315.14463 358.59888,338.81664 368.10636,351.1386 C 369.42469,352.92678 372.16848,355.20569 368.48365,353.84266 C 355.31583,349.9001 346.45106,322.56015 347.80467,309.43821 C 348.85767,309.43878 350.78737,309.36653 351.84983,309.43995 C 353.60933,310.12912 353.07096,310.81828 354.83046,311.50745 z"
             id="path14890"
             sodipodi:nodetypes="cccccc" />
          <path
             inkscape:transform-center-y="-7.1189567"
             inkscape:transform-center-x="32.50414"
             style="fill:#ffffff;fill-opacity:1;fill-rule:evenodd;stroke:#000000;stroke-width:1;stroke-linecap:butt;stroke-linejoin:miter;stroke-miterlimit:4;stroke-dasharray:none;stroke-opacity:1"
             d="M 352.55738,318.41463 C 354.02774,320.96137 354.13309,325.01776 354.18914,327.99802 C 354.36988,337.60746 355.11118,347.46856 365.219,357.62504 C 367.56863,360.00277 367.176,360.64697 364.45959,359.8125 C 348.24743,354.35749 348.47118,333.95553 343.29368,322.54341 C 343.68358,320.10671 343.45857,317.74019 345.03733,316.19956 C 346.08398,316.31497 347.12824,316.30886 348.17634,316.49771 C 349.85019,317.37466 350.88353,317.53769 352.55738,318.41463 z"
             id="path14892"
             sodipodi:nodetypes="cscccccc" />
          <path
             inkscape:transform-center-y="-7.6424899"
             inkscape:transform-center-x="-8.1813582"
             style="fill:#ffffff;fill-opacity:1;fill-rule:evenodd;stroke:#000000;stroke-width:1;stroke-linecap:butt;stroke-linejoin:miter;stroke-miterlimit:4;stroke-dasharray:none;stroke-opacity:1"
             d="M 349.46204,324.38373 C 350.09386,328.81536 349.35718,332.29731 349.28322,335.94243 C 349.09456,345.24008 350.86839,354.42478 358.35254,363.98831 C 360.42683,366.48226 359.99374,367.0725 357.43671,366.04017 C 342.66803,359.47126 341.22632,338.77285 339.27765,327.31468 C 339.85694,324.99118 340.88317,322.77441 342.53747,321.41595 C 343.53983,321.61445 344.54996,321.69524 345.54762,321.96485 C 347.09313,322.95168 347.91652,323.39689 349.46204,324.38373 z"
             id="path14894"
             sodipodi:nodetypes="cscccccc" />
          <path
             inkscape:transform-center-y="-1.6707981"
             inkscape:transform-center-x="16.400283"
             style="fill:#ffffff;fill-opacity:1;fill-rule:evenodd;stroke:#000000;stroke-width:1;stroke-linecap:butt;stroke-linejoin:miter;stroke-miterlimit:4;stroke-dasharray:none;stroke-opacity:1"
             d="M 344.6013,332.31237 C 342.40594,345.40562 342.87123,356.80291 351.9922,370.07592 C 353.94791,372.5553 353.51153,373.11876 351.04917,372.04962 C 336.21973,366.25423 336.4371,345.56231 334.82982,334.36244 C 335.45218,332.1159 335.60412,329.9845 337.24831,328.70423 C 338.21876,328.92269 339.19975,329.02679 340.16384,329.31434 C 341.64299,330.31369 343.12215,331.31303 344.6013,332.31237 z"
             id="path14896"
             sodipodi:nodetypes="ccccccc" />
          <path
             style="fill:#ffffff;fill-opacity:1;fill-rule:evenodd;stroke:#000000;stroke-width:1;stroke-linecap:butt;stroke-linejoin:miter;stroke-miterlimit:4;stroke-dasharray:none;stroke-opacity:1"
             d="M 338.70415,337.55936 C 335.70178,348.67341 336.0766,357.77324 340.81042,370.09143 C 342.27157,372.89091 341.73813,373.36352 339.5172,371.85562 C 331.74481,364.29183 328.8945,348.16168 329.99565,337.37572 C 330.78977,334.35017 331.86047,333.8517 334.68108,332.6449 C 335.59407,333.03981 336.53865,333.32433 337.43255,333.78593 C 338.53084,335.37857 339.2158,335.09118 338.70415,337.55936 z"
             id="path14898"
             sodipodi:nodetypes="ccccccc" />
          <path
             inkscape:transform-center-y="-1.5425572"
             inkscape:transform-center-x="5.0521631"
             style="fill:#ffffff;fill-opacity:1;fill-rule:evenodd;stroke:#000000;stroke-width:1;stroke-linecap:butt;stroke-linejoin:miter;stroke-miterlimit:4;stroke-dasharray:none;stroke-opacity:1"
             d="M 332.20551,337.41508 C 330.48502,342.56316 330.88567,347.87716 330.90066,353.62423 C 330.91177,357.88641 330.89522,362.3845 331.88074,367.23204 C 333.04399,371.69889 330.86441,370.93721 329.92372,368.92041 C 323.9011,360.13247 323.63124,349.77687 324.65348,338.72055 C 324.71929,337.14947 323.70906,335.30313 328.27943,332.40679 C 331.82647,333.33969 333.26495,334.2268 332.20551,337.41508 z"
             id="path14900"
             sodipodi:nodetypes="csccccc" />
          <path
             inkscape:transform-center-x="-0.25406483"
             inkscape:transform-center-y="11.246663"
             sodipodi:nodetypes="csccccc"
             id="path14902"
             d="M 326.197,337.20667 C 324.05159,341.44554 324.28761,345.76045 323.73989,351.26324 C 323.31777,355.50448 323.92738,360.51919 324.41511,365.4418 C 325.11834,370.00374 323.57385,368.7449 322.29663,366.92252 C 314.32765,353.65288 321.07549,346.02877 319.36408,335.18219 C 320.24059,333.19371 320.94617,330.52792 325.19618,333.75632 L 326.197,337.20667 z"
             style="fill:#ffffff;fill-opacity:1;fill-rule:evenodd;stroke:#000000;stroke-width:1;stroke-linecap:butt;stroke-linejoin:miter;stroke-miterlimit:4;stroke-dasharray:none;stroke-opacity:1" />
          <path
             style="fill:#ffffff;fill-opacity:1;fill-rule:evenodd;stroke:#000000;stroke-width:1;stroke-linecap:butt;stroke-linejoin:miter;stroke-miterlimit:4;stroke-dasharray:none;stroke-opacity:1"
             d="M 309.83725,323.53035 C 315.33736,333.93753 329.7677,329.30527 332.22586,318.44257 C 335.81708,302.57295 343.92147,302.91354 349.03945,304.89875 C 353.42953,306.60161 356.6207,309.58504 357.43516,314.74531 C 354.68597,316.56151 353.69286,315.21296 351.79244,314.34456 C 353.30949,316.05452 354.8216,316.6205 354.86234,321.49873 C 349.17478,322.84275 350.72452,322.37679 348.73266,321.37186 C 350.36686,322.87836 350.94155,323.69452 350.32943,328.4761 C 346.10639,328.55099 344.86717,327.75534 343.94392,326.82999 C 345.58885,329.1975 345.74063,331.93318 345.0943,334.32324 C 341.75308,334.04833 340.00637,333.36302 338.45928,331.37151 C 339.43479,333.67468 339.49716,336.23253 338.40859,339.27054 C 335.63976,338.87495 333.51176,337.95374 332.51234,335.32328 C 332.70896,338.76942 332.32097,341.04636 330.77017,342.70441 C 328.76761,341.82509 326.43,340.4039 325.86467,338.43674 C 326.08271,341.07024 323.64702,343.59853 322.13493,344.26729 C 320.18309,343.08225 317.96475,341.31884 317.36139,338.66647 C 313.21866,334.1282 314.19651,334.13395 306.20137,335.7613 C 306.86825,332.16024 308.18367,326.53311 309.83725,323.53035 z"
             id="path14904"
             sodipodi:nodetypes="csscccccccccccccccc" />
          <path
             sodipodi:nodetypes="csccccccccccccccccccscsccccccccccccccccccsc"
             d="M 306.48426,298.40656 C 311.70504,298.40457 317.12122,302.29203 316.27191,309.30565 C 315.37885,316.68064 309.05436,319.56085 316.83312,322.42535 L 312.68922,323.15057 C 313.80097,324.53963 315.90307,326.91526 318.26204,327.91936 L 313.33564,327.54577 C 321.48116,337.40502 316.0414,349.59114 313.19813,361.10304 C 314.27242,372.52942 326.97213,373.22346 334.08876,374.86202 C 329.90123,376.02382 327.2933,375.9857 333.59461,380.57734 C 327.98113,380.54405 327.98672,381.12718 331.02225,386.62635 C 328.99271,385.72522 323.89135,379.92 326.8243,387.68696 C 320.36222,381.97424 310.74345,376.64257 310.51676,368.15482 C 310.51676,368.15482 306.47064,373.92196 309.9394,377.63202 C 312.60883,381.70319 316.56756,381.43525 318.74391,386.37358 C 307.82413,382.00652 309.7859,385.25911 316.93899,388.82441 C 314.2686,389.80439 310.10126,389.96047 309.9394,391.49587 C 314.70002,394.04908 319.88113,394.54931 327.25493,391.96179 C 326.36593,396.83727 318.17507,397.87761 313.54436,397.62784 C 316.1799,398.65707 318.54087,400.34779 319.77111,403.29389 C 315.97226,404.01509 312.27561,403.1383 309.9394,400.37502 C 311.19554,404.7421 311.10949,407.74899 309.89286,410.21644 C 309.15713,411.70858 307.57064,413.20191 306.48426,415.26441 C 305.3979,413.20191 303.81141,411.70858 303.07567,410.21644 C 301.85904,407.74899 301.77299,404.7421 303.02913,400.37502 C 300.69292,403.1383 296.99626,404.01509 293.19743,403.29389 C 294.42766,400.34779 296.78863,398.65707 299.42417,397.62784 C 294.79346,397.87761 286.60261,396.83727 285.71359,391.96179 C 293.0874,394.54931 298.26851,394.04908 303.02913,391.49587 C 302.86728,389.96047 298.69993,389.80439 296.02954,388.82441 C 303.18263,385.25911 305.1444,382.00652 294.22463,386.37358 C 296.40097,381.43525 300.3597,381.70319 303.02913,377.63202 C 306.49789,373.92196 302.45177,368.15482 302.45177,368.15482 C 302.22509,376.64257 292.60631,381.97424 286.14423,387.68696 C 289.07718,379.92 283.97582,385.72522 281.94628,386.62635 C 284.98181,381.12718 284.9874,380.54405 279.37392,380.57734 C 285.67524,375.9857 283.06731,376.02382 278.87977,374.86202 C 285.9964,373.22346 298.69611,372.52942 299.7704,361.10304 C 296.92712,349.59114 291.48738,337.40502 299.63289,327.54577 L 294.70649,327.91936 C 297.06546,326.91526 299.16755,324.53963 300.27931,323.15057 L 296.13541,322.42535 C 303.91417,319.56085 297.58969,316.68064 296.69662,309.30565 C 295.84731,302.29203 301.26349,298.40457 306.48426,298.40656 z"
             style="fill:#ffffff;fill-opacity:1;fill-rule:evenodd;stroke:#000000;stroke-width:1;stroke-linecap:butt;stroke-linejoin:miter;stroke-miterlimit:4;stroke-dasharray:none;stroke-opacity:1"
             id="path13584" />
          <path
             style="fill:#ffffff;fill-opacity:1;fill-rule:evenodd;stroke:#000000;stroke-width:1;stroke-linecap:butt;stroke-linejoin:miter;stroke-miterlimit:4;stroke-dasharray:none;stroke-opacity:1"
             d="M 302.20571,303.82639 C 303.30235,303.94356 303.76165,303.70609 304.69235,304.56985 C 306.3722,306.41094 307.51014,307.7278 308.69503,308.40765 C 309.44301,308.83682 310.01666,309.14938 310.59801,309.49255 C 310.35497,309.36059 309.21767,308.67462 308.66938,308.41861 C 307.7165,308.28745 305.55124,310.02077 304.19758,309.31451 C 302.01749,308.17708 301.23005,305.83765 304.62786,304.60018 C 304.58847,304.30925 303.59709,303.85167 302.20571,303.82639 z"
             id="path3979"
             sodipodi:nodetypes="ccsccscc" />
          <path
             style="fill:#000000;fill-opacity:1;fill-rule:evenodd;stroke:#000000;stroke-width:1;stroke-linecap:round;stroke-linejoin:round;stroke-miterlimit:4;stroke-dasharray:none;stroke-dashoffset:0;stroke-opacity:1"
             d="M 304.40978,308.08587 C 303.65659,307.78552 303.32317,307.00554 303.66557,306.34483 C 304.00797,305.68412 305.01136,305.19281 305.65036,305.69202 C 306.26174,306.16964 306.72792,306.78367 306.39457,307.43305 C 306.06299,308.07898 305.20946,308.37399 304.46235,308.10577"
             id="path3981"
             sodipodi:nodetypes="csssc" />
        </g>
      </g>
    </g>
    <use
       x="0"
       y="0"
       xlink:href="#g9022"
       id="use9047"
       transform="translate(80,76.8)"
       width="600"
       height="660" />
    <use
       x="0"
       y="0"
       xlink:href="#g9022"
       id="use9049"
       transform="translate(-80,-76.8)"
       width="600"
       height="660" />
    <use
       x="0"
       y="0"
       xlink:href="#g9022"
       id="use9051"
       transform="translate(300,286.5)"
       width="600"
       height="660" />
    <use
       x="0"
       y="0"
       xlink:href="#use9047"
       id="use9053"
       transform="translate(300,286.5)"
       width="600"
       height="660" />
    <use
       x="0"
       y="0"
       xlink:href="#use9049"
       id="use9055"
       transform="translate(300,286.5)"
       width="600"
       height="660" />
  </g>
  <g
     inkscape:groupmode="layer"
     id="layer6"
     inkscape:label="Meubles">
    <path
       style="opacity:1;fill:none;fill-opacity:1;fill-rule:nonzero;stroke:#000000;stroke-width:3;stroke-linecap:butt;stroke-linejoin:round;stroke-miterlimit:4;stroke-dasharray:none;stroke-dashoffset:0;stroke-opacity:1"
       d="M 1.5,288 L 598.5,288"
       id="path8374" />
    <path
       style="opacity:1;fill:none;fill-opacity:1;fill-rule:nonzero;stroke:#000000;stroke-width:3;stroke-linecap:butt;stroke-linejoin:round;stroke-miterlimit:4;stroke-dasharray:none;stroke-dashoffset:0;stroke-opacity:1"
       d="M 300,1.5 L 300,658.5"
       id="path8377" />
    <g
       transform="matrix(0.762847,0,0,0.762847,214.1977,-198.7511)"
       id="g3545"
       style="display:inline">
      <path
         d="M 311.15535,557.51279 C 306.74941,576.60884 301.17268,576.60884 296.98244,557.51279 C 292.7922,538.41672 291.49814,514.91136 296.11973,495.81531 C 300.74136,476.71924 308.25914,476.71924 312.88074,495.81531 C 317.50238,514.91136 315.56129,538.41672 311.15535,557.51279 z"
         style="fill:#fcef3c;fill-opacity:1;fill-rule:nonzero;stroke:#000000;stroke-width:1.6206044;stroke-miterlimit:4;stroke-dasharray:none;stroke-opacity:1"
         id="path3547" />
      <path
         d="M 309.23061,566.91524 C 309.38737,566.48222 309.54075,566.05504 309.68359,565.6244 L 297.06326,557.24837 C 297.18903,557.86229 297.32119,558.47245 297.45325,559.08421 L 309.23061,566.91524 z M 311.44513,559.19894 C 311.55154,558.74109 311.65678,558.28119 311.7597,557.82208 L 295.2513,546.85006 C 295.33702,547.44424 295.42386,548.03564 295.51554,548.62852 L 311.44513,559.19894 z M 313.11864,551.13846 C 313.20599,550.66543 313.29929,550.19257 313.38287,549.71855 L 294.10633,536.925 C 294.15442,537.49045 294.20341,538.05268 294.25725,538.6174 L 313.11864,551.13846 z M 314.45241,542.83415 C 314.51777,542.35161 314.57982,541.86878 314.64114,541.38555 L 293.56516,527.38723 C 293.57956,527.92683 293.59582,528.46848 293.61558,529.00792 L 314.45241,542.83415 z M 315.3835,534.27163 C 315.42537,533.77359 315.47199,533.27852 315.50932,532.78002 L 293.59038,518.22235 C 293.57339,518.74447 293.56432,519.26329 293.55265,519.78567 L 315.3835,534.27163 z M 315.89941,525.43664 C 315.91471,524.91706 315.92695,524.39299 315.93713,523.87331 L 294.14406,509.40171 C 294.09748,509.90195 294.05965,510.40682 294.01822,510.90766 L 315.89941,525.43664 z M 315.89941,516.25742 C 315.88331,515.7169 315.871,515.17699 315.84907,514.63673 L 295.21357,500.93962 C 295.1812,501.10563 295.14543,501.27651 295.11291,501.44159 C 295.0655,501.75349 295.01977,502.06164 294.97453,502.37387 L 315.89941,516.25742 z M 315.30802,506.69096 C 315.23249,506.11588 315.15895,505.53544 315.08153,504.95554 L 296.88699,492.86478 C 296.77276,493.32274 296.66459,493.78005 296.55997,494.2416 L 315.30802,506.69096 z"
         style="fill:#000000;fill-opacity:1;fill-rule:nonzero;stroke:none;stroke-width:5;stroke-miterlimit:4;stroke-opacity:1"
         id="path3549" />
      <g
         transform="matrix(-0.684626,0,0,-0.435177,486.0391,654.0575)"
         id="g3551">
        <path
           d="M 244.45691,371.58029 L 285.87317,371.58029 L 279.87317,757.43822 L 265.16504,790.79361 L 250.45691,757.43822 L 244.45691,371.58029 z"
           style="fill:#ffffff;fill-opacity:1;fill-rule:nonzero;stroke:#000000;stroke-width:2.96904898;stroke-miterlimit:4;stroke-dasharray:none;stroke-opacity:1"
           id="path3553" />
        <path
           d="M 263.40801,375.0625 L 264.28391,742.09375 L 266.92206,375.0625 L 263.40801,375.0625 z"
           style="fill:#000000;fill-opacity:1;fill-rule:evenodd;stroke:none;stroke-width:4;stroke-linecap:butt;stroke-linejoin:miter;stroke-miterlimit:4;stroke-dasharray:none;stroke-opacity:1"
           id="path3555" />
      </g>
      <rect
         width="69.822075"
         height="9.2176085"
         x="-339.41125"
         y="-496.48901"
         style="fill:#fcef3c;fill-opacity:1;fill-rule:nonzero;stroke:#000000;stroke-width:1.6206044;stroke-miterlimit:4;stroke-dasharray:none;stroke-opacity:1"
         id="rect3557"
         transform="scale(-1,-1)" />
      <path
         style="fill:#f7c5b4;fill-opacity:1;fill-rule:evenodd;stroke:#000000;stroke-width:1.6206044;stroke-linecap:butt;stroke-linejoin:miter;stroke-miterlimit:4;stroke-dasharray:none;stroke-opacity:1;display:inline"
         d="M 293.00931,501.9319 C 288.0113,502.37846 285.4444,502.69592 279.69808,506.54052 C 279.69942,509.58112 278.46269,512.62172 282.50398,515.66232 C 273.7516,514.87595 273.93357,522.55911 279.86829,526.4838 C 274.73581,525.36966 274.5744,535.88413 284.50109,540.6875 C 281.57635,539.72089 281.49222,547.33995 286.05644,549.37315 C 289.25115,550.33222 291.27655,551.27852 294.25353,551.93353 C 310.51399,552.66472 301.11646,543.49078 292.58266,542.83881 C 309.79916,548.2742 310.31423,536.50846 295.84294,533.1712 C 312.51183,536.61027 309.09825,521.75837 298.34367,521.29388 C 311.11933,523.30032 305.75622,512.3379 296.59332,510.82841 L 291.6066,508.14681 L 293.00931,501.9319 z"
         id="path3559"
         sodipodi:nodetypes="ccccccccccccc" />
      <path
         style="fill:#f7c5b4;fill-opacity:1;fill-rule:evenodd;stroke:#000000;stroke-width:1.6206044;stroke-linecap:butt;stroke-linejoin:miter;stroke-miterlimit:4;stroke-dasharray:none;stroke-opacity:1;display:inline"
         d="M 288.03566,501.39809 C 281.07591,501.39968 279.57735,512.11618 292.29505,512.46428 C 296.52254,513.16149 300.45912,513.20145 304.54115,511.51368 C 306.53853,514.29888 310.78215,515.43466 315.33231,515.53054 C 315.79745,527.82307 314.57117,543.02607 311.62428,555.81376 C 321.31853,555.36751 335.30592,545.93239 343.21304,546.88472 C 374.28755,553.62272 362.20866,554.02475 396.04973,550.02053 L 422.93842,506.86712 C 397.10124,507.41878 362.94237,515.81117 346.37199,513.24766 C 326.54675,501.77789 326.31887,498.96211 319.02683,498.66358 C 310.86887,499.24845 307.02135,497.45023 301.70823,496.84056 C 298.75142,497.54021 293.81679,501.53624 288.03566,501.39809 z"
         id="path3561"
         sodipodi:nodetypes="cccccccccccc" />
      <path
         id="path3563"
         style="fill:none;fill-opacity:1;fill-rule:nonzero;stroke:#000000;stroke-width:1.6206044;stroke-miterlimit:4;stroke-dasharray:none;stroke-opacity:1;display:inline"
         d="M 315.33344,516.79177 C 316.06466,531.96292 313.72112,547.17506 310.60032,559.76859"
         sodipodi:nodetypes="cc" />
      <path
         style="fill:none;fill-rule:evenodd;stroke:#000000;stroke-width:1.6206044;stroke-linecap:butt;stroke-linejoin:miter;stroke-miterlimit:4;stroke-dasharray:none;stroke-opacity:1"
         d="M 282.47223,516.06985 C 287.37035,520.43829 292.73877,520.63806 299.42947,521.45121"
         id="path3565"
         sodipodi:nodetypes="cc" />
      <path
         style="fill:none;fill-rule:evenodd;stroke:#000000;stroke-width:1.6206044;stroke-linecap:butt;stroke-linejoin:miter;stroke-miterlimit:4;stroke-dasharray:none;stroke-opacity:1"
         d="M 278.9206,525.90764 C 283.7616,530.34898 292.06252,532.98905 298.45596,533.46665"
         id="path3567"
         sodipodi:nodetypes="cc" />
      <path
         style="fill:none;fill-rule:evenodd;stroke:#000000;stroke-width:1.6206044;stroke-linecap:butt;stroke-linejoin:miter;stroke-miterlimit:4;stroke-dasharray:none;stroke-opacity:1"
         d="M 282.27675,539.02336 C 286.83527,542.29478 289.61288,541.98441 295.66616,543.64289"
         id="path3569"
         sodipodi:nodetypes="cc" />
      <path
         style="fill:#2b5df2;fill-rule:evenodd;stroke:#000000;stroke-width:1.6206044;stroke-linecap:butt;stroke-linejoin:miter;stroke-miterlimit:4;stroke-dasharray:none;stroke-opacity:1;display:inline"
         d="M 368.32627,508.43653 L 438.62019,500.42803 C 438.62019,500.42803 430.43419,516.4798 420.14214,530.42552 C 409.85009,544.37124 397.15114,556.21092 397.15114,556.21092 L 367.35413,555.09966 C 367.35413,555.09966 375.13131,548.29462 368.32627,508.43653 z"
         id="path3571"
         sodipodi:nodetypes="cczccc" />
    </g>
    <path
       id="path3573"
       d="M 598.5,132.65625 C 594.19416,133.35526 579.72193,129.242 572.46875,147.28125 C 563.50569,143.86906 556.68638,154.07946 554.53125,165.375 C 553.91087,160.6611 533.70909,169.27702 539.03125,186.75 C 521.55084,189.38486 513.98464,204.17373 512.65625,215.8125 C 510.72461,218.34644 509.13731,221.74719 508.1875,226.34375 C 498.76097,224.57747 493.86498,235.81378 493.75,247.3125 C 492.3024,242.7837 473.94078,254.87486 482.28125,271.125 C 472.81603,274.34737 467.19965,280.85507 464.21875,288 L 598.5,288 L 598.5,275.375 L 598.375,275.25 L 598.5,241.6875 L 598.5,132.65625 z"
       style="fill:#ffffff;fill-rule:evenodd;stroke:#000000;stroke-width:2.19292569;stroke-linecap:butt;stroke-linejoin:miter;stroke-miterlimit:4;stroke-dasharray:none;stroke-opacity:1;display:inline" />
    <path
       sodipodi:nodetypes="csssssssssssssssss"
       id="path3577"
       d="M 514.01121,23.139685 C 517.74763,21.91487 521.49663,20.945666 524.99731,21.988764 C 528.61935,23.068018 530.16398,27.997834 532.42599,27.952639 C 534.80683,27.905071 538.74272,27.645625 540.06395,29.103563 C 543.64322,33.053237 543.70811,38.828026 546.23709,42.810015 C 547.31359,44.505026 549.97454,45.620956 551.19283,47.965461 C 552.41112,50.309973 552.18675,53.883061 552.51486,57.981276 C 552.74912,60.907558 553.06881,64.186004 552.00608,66.231515 C 550.94335,68.277012 547.97507,70.972895 547.7019,72.734046 C 546.54622,80.184789 542.88199,79.700624 535.9834,80.476626 C 533.46199,80.760245 531.70363,83.883353 528.65314,84.710591 C 525.60263,85.53783 522.11743,84.653266 518.71954,85.289579 C 508.80569,87.146112 508.97716,82.034129 504.38531,80.476626 C 496.009,77.635472 496.06977,77.646291 493.60848,73.571078 C 490.34073,68.160639 493.60903,64.478066 491.93441,57.981276 C 490.19022,51.214626 489.09653,43.563355 495.17791,38.834097 C 498.73864,36.065064 505.04806,37.44562 506.68715,31.823928 C 508.02452,27.237118 510.44247,24.309544 514.01121,23.139685 z"
       style="fill:#fcef3c;fill-opacity:1;fill-rule:evenodd;stroke:#000000;stroke-width:1.62877047;stroke-linecap:butt;stroke-linejoin:miter;stroke-miterlimit:4;stroke-dasharray:none;stroke-opacity:1;display:inline" />
    <path
       style="fill:#fcef3c;fill-opacity:1;fill-rule:evenodd;stroke:#000000;stroke-width:1.62877047;stroke-linecap:butt;stroke-linejoin:miter;stroke-miterlimit:4;stroke-dasharray:none;stroke-opacity:1;display:inline"
       d="M 364.08629,23.139685 C 367.82271,21.91487 371.57171,20.945666 375.0724,21.988764 C 378.69443,23.068018 380.23907,27.997834 382.50108,27.952639 C 384.88191,27.905071 388.81781,27.645625 390.13903,29.103563 C 393.71831,33.053237 393.78319,38.828026 396.31217,42.810015 C 397.38867,44.505026 400.04962,45.620956 401.26791,47.965461 C 402.4862,50.309973 402.26184,53.883061 402.58994,57.981276 C 402.8242,60.907558 403.14389,64.186004 402.08116,66.231515 C 401.01843,68.277012 398.05015,70.972895 397.77698,72.734046 C 396.6213,80.184789 392.95708,79.700624 386.05849,80.476626 C 383.53707,80.760245 381.77872,83.883353 378.72823,84.710591 C 375.67771,85.53783 372.19251,84.653266 368.79463,85.289579 C 358.88077,87.146112 359.05225,82.034129 354.46039,80.476626 C 346.08409,77.635472 346.14486,77.646291 343.68357,73.571078 C 340.41582,68.160639 343.68411,64.478066 342.00949,57.981276 C 340.2653,51.214626 339.17161,43.563355 345.253,38.834097 C 348.81373,36.065064 355.12315,37.44562 356.76224,31.823928 C 358.0996,27.237118 360.51755,24.309544 364.08629,23.139685 z"
       id="path3579"
       sodipodi:nodetypes="csssssssssssssssss" />
    <g
       style="display:inline"
       id="g8315"
       transform="matrix(0.762847,0,0,0.762847,-85.8023,87.7489)">
      <path
         id="path8317"
         style="fill:#fcef3c;fill-opacity:1;fill-rule:nonzero;stroke:#000000;stroke-width:1.6206044;stroke-miterlimit:4;stroke-dasharray:none;stroke-opacity:1"
         d="M 311.15535,557.51279 C 306.74941,576.60884 301.17268,576.60884 296.98244,557.51279 C 292.7922,538.41672 291.49814,514.91136 296.11973,495.81531 C 300.74136,476.71924 308.25914,476.71924 312.88074,495.81531 C 317.50238,514.91136 315.56129,538.41672 311.15535,557.51279 z" />
      <path
         id="path8319"
         style="fill:#000000;fill-opacity:1;fill-rule:nonzero;stroke:none;stroke-width:5;stroke-miterlimit:4;stroke-opacity:1"
         d="M 309.23061,566.91524 C 309.38737,566.48222 309.54075,566.05504 309.68359,565.6244 L 297.06326,557.24837 C 297.18903,557.86229 297.32119,558.47245 297.45325,559.08421 L 309.23061,566.91524 z M 311.44513,559.19894 C 311.55154,558.74109 311.65678,558.28119 311.7597,557.82208 L 295.2513,546.85006 C 295.33702,547.44424 295.42386,548.03564 295.51554,548.62852 L 311.44513,559.19894 z M 313.11864,551.13846 C 313.20599,550.66543 313.29929,550.19257 313.38287,549.71855 L 294.10633,536.925 C 294.15442,537.49045 294.20341,538.05268 294.25725,538.6174 L 313.11864,551.13846 z M 314.45241,542.83415 C 314.51777,542.35161 314.57982,541.86878 314.64114,541.38555 L 293.56516,527.38723 C 293.57956,527.92683 293.59582,528.46848 293.61558,529.00792 L 314.45241,542.83415 z M 315.3835,534.27163 C 315.42537,533.77359 315.47199,533.27852 315.50932,532.78002 L 293.59038,518.22235 C 293.57339,518.74447 293.56432,519.26329 293.55265,519.78567 L 315.3835,534.27163 z M 315.89941,525.43664 C 315.91471,524.91706 315.92695,524.39299 315.93713,523.87331 L 294.14406,509.40171 C 294.09748,509.90195 294.05965,510.40682 294.01822,510.90766 L 315.89941,525.43664 z M 315.89941,516.25742 C 315.88331,515.7169 315.871,515.17699 315.84907,514.63673 L 295.21357,500.93962 C 295.1812,501.10563 295.14543,501.27651 295.11291,501.44159 C 295.0655,501.75349 295.01977,502.06164 294.97453,502.37387 L 315.89941,516.25742 z M 315.30802,506.69096 C 315.23249,506.11588 315.15895,505.53544 315.08153,504.95554 L 296.88699,492.86478 C 296.77276,493.32274 296.66459,493.78005 296.55997,494.2416 L 315.30802,506.69096 z" />
      <g
         id="g8321"
         transform="matrix(-0.684626,0,0,-0.435177,486.0391,654.0575)">
        <path
           id="path8323"
           style="fill:#ffffff;fill-opacity:1;fill-rule:nonzero;stroke:#000000;stroke-width:2.96904898;stroke-miterlimit:4;stroke-dasharray:none;stroke-opacity:1"
           d="M 244.45691,371.58029 L 285.87317,371.58029 L 279.87317,757.43822 L 265.16504,790.79361 L 250.45691,757.43822 L 244.45691,371.58029 z" />
        <path
           id="path8325"
           style="fill:#000000;fill-opacity:1;fill-rule:evenodd;stroke:none;stroke-width:4;stroke-linecap:butt;stroke-linejoin:miter;stroke-miterlimit:4;stroke-dasharray:none;stroke-opacity:1"
           d="M 263.40801,375.0625 L 264.28391,742.09375 L 266.92206,375.0625 L 263.40801,375.0625 z" />
      </g>
      <rect
         transform="scale(-1,-1)"
         id="rect8327"
         style="fill:#fcef3c;fill-opacity:1;fill-rule:nonzero;stroke:#000000;stroke-width:1.6206044;stroke-miterlimit:4;stroke-dasharray:none;stroke-opacity:1"
         y="-496.48901"
         x="-339.41125"
         height="9.2176085"
         width="69.822075" />
      <path
         sodipodi:nodetypes="ccccccccccccc"
         id="path8329"
         d="M 293.00931,501.9319 C 288.0113,502.37846 285.4444,502.69592 279.69808,506.54052 C 279.69942,509.58112 278.46269,512.62172 282.50398,515.66232 C 273.7516,514.87595 273.93357,522.55911 279.86829,526.4838 C 274.73581,525.36966 274.5744,535.88413 284.50109,540.6875 C 281.57635,539.72089 281.49222,547.33995 286.05644,549.37315 C 289.25115,550.33222 291.27655,551.27852 294.25353,551.93353 C 310.51399,552.66472 301.11646,543.49078 292.58266,542.83881 C 309.79916,548.2742 310.31423,536.50846 295.84294,533.1712 C 312.51183,536.61027 309.09825,521.75837 298.34367,521.29388 C 311.11933,523.30032 305.75622,512.3379 296.59332,510.82841 L 291.6066,508.14681 L 293.00931,501.9319 z"
         style="fill:#f7c5b4;fill-opacity:1;fill-rule:evenodd;stroke:#000000;stroke-width:1.6206044;stroke-linecap:butt;stroke-linejoin:miter;stroke-miterlimit:4;stroke-dasharray:none;stroke-opacity:1;display:inline" />
      <path
         sodipodi:nodetypes="cccccccccccc"
         id="path8331"
         d="M 288.03566,501.39809 C 281.07591,501.39968 279.57735,512.11618 292.29505,512.46428 C 296.52254,513.16149 300.45912,513.20145 304.54115,511.51368 C 306.53853,514.29888 310.78215,515.43466 315.33231,515.53054 C 315.79745,527.82307 314.57117,543.02607 311.62428,555.81376 C 321.31853,555.36751 335.30592,545.93239 343.21304,546.88472 C 374.28755,553.62272 362.20866,554.02475 396.04973,550.02053 L 422.93842,506.86712 C 397.10124,507.41878 362.94237,515.81117 346.37199,513.24766 C 326.54675,501.77789 326.31887,498.96211 319.02683,498.66358 C 310.86887,499.24845 307.02135,497.45023 301.70823,496.84056 C 298.75142,497.54021 293.81679,501.53624 288.03566,501.39809 z"
         style="fill:#f7c5b4;fill-opacity:1;fill-rule:evenodd;stroke:#000000;stroke-width:1.6206044;stroke-linecap:butt;stroke-linejoin:miter;stroke-miterlimit:4;stroke-dasharray:none;stroke-opacity:1;display:inline" />
      <path
         sodipodi:nodetypes="cc"
         d="M 315.33344,516.79177 C 316.06466,531.96292 313.72112,547.17506 310.60032,559.76859"
         style="fill:none;fill-opacity:1;fill-rule:nonzero;stroke:#000000;stroke-width:1.6206044;stroke-miterlimit:4;stroke-dasharray:none;stroke-opacity:1;display:inline"
         id="path8333" />
      <path
         sodipodi:nodetypes="cc"
         id="path8335"
         d="M 282.47223,516.06985 C 287.37035,520.43829 292.73877,520.63806 299.42947,521.45121"
         style="fill:none;fill-rule:evenodd;stroke:#000000;stroke-width:1.6206044;stroke-linecap:butt;stroke-linejoin:miter;stroke-miterlimit:4;stroke-dasharray:none;stroke-opacity:1" />
      <path
         sodipodi:nodetypes="cc"
         id="path8337"
         d="M 278.9206,525.90764 C 283.7616,530.34898 292.06252,532.98905 298.45596,533.46665"
         style="fill:none;fill-rule:evenodd;stroke:#000000;stroke-width:1.6206044;stroke-linecap:butt;stroke-linejoin:miter;stroke-miterlimit:4;stroke-dasharray:none;stroke-opacity:1" />
      <path
         sodipodi:nodetypes="cc"
         id="path8339"
         d="M 282.27675,539.02336 C 286.83527,542.29478 289.61288,541.98441 295.66616,543.64289"
         style="fill:none;fill-rule:evenodd;stroke:#000000;stroke-width:1.6206044;stroke-linecap:butt;stroke-linejoin:miter;stroke-miterlimit:4;stroke-dasharray:none;stroke-opacity:1" />
      <path
         sodipodi:nodetypes="cczccc"
         id="path8341"
         d="M 368.32627,508.43653 L 438.62019,500.42803 C 438.62019,500.42803 430.43419,516.4798 420.14214,530.42552 C 409.85009,544.37124 397.15114,556.21092 397.15114,556.21092 L 367.35413,555.09966 C 367.35413,555.09966 375.13131,548.29462 368.32627,508.43653 z"
         style="fill:#2b5df2;fill-rule:evenodd;stroke:#000000;stroke-width:1.6206044;stroke-linecap:butt;stroke-linejoin:miter;stroke-miterlimit:4;stroke-dasharray:none;stroke-opacity:1;display:inline" />
    </g>
    <path
       style="fill:#fcef3c;fill-opacity:1;fill-rule:evenodd;stroke:#000000;stroke-width:1.62877047;stroke-linecap:butt;stroke-linejoin:miter;stroke-miterlimit:4;stroke-dasharray:none;stroke-opacity:1;display:inline"
       d="M 214.01121,309.63969 C 217.74763,308.41487 221.49663,307.44567 224.99731,308.48877 C 228.61935,309.56802 230.16398,314.49783 232.42599,314.45264 C 234.80683,314.40507 238.74272,314.14563 240.06395,315.60357 C 243.64322,319.55324 243.70811,325.32803 246.23709,329.31002 C 247.31359,331.00503 249.97454,332.12096 251.19283,334.46547 C 252.41112,336.80998 252.18675,340.38307 252.51486,344.48128 C 252.74912,347.40756 253.06881,350.68601 252.00608,352.73152 C 250.94335,354.77702 247.97507,357.4729 247.7019,359.23405 C 246.54622,366.68479 242.88199,366.20063 235.9834,366.97663 C 233.46199,367.26025 231.70363,370.38335 228.65314,371.21059 C 225.60263,372.03783 222.11743,371.15327 218.71954,371.78959 C 208.80569,373.64611 208.97716,368.53413 204.38531,366.97663 C 196.009,364.13547 196.06977,364.1463 193.60848,360.07108 C 190.34073,354.66064 193.60903,350.97807 191.93441,344.48128 C 190.19022,337.71463 189.09653,330.06336 195.17791,325.3341 C 198.73864,322.56507 205.04806,323.94563 206.68715,318.32393 C 208.02452,313.73712 210.44247,310.80955 214.01121,309.63969 z"
       id="path8347"
       sodipodi:nodetypes="csssssssssssssssss" />
    <path
       sodipodi:nodetypes="csssssssssssssssss"
       id="path8349"
       d="M 64.086294,309.63969 C 67.822712,308.41487 71.571714,307.44567 75.0724,308.48877 C 78.694428,309.56802 80.239064,314.49783 82.501082,314.45264 C 84.881915,314.40507 88.81781,314.14563 90.139036,315.60357 C 93.718306,319.55324 93.783195,325.32803 96.312171,329.31002 C 97.388675,331.00503 100.04962,332.12096 101.26792,334.46547 C 102.4862,336.80998 102.26184,340.38307 102.58994,344.48128 C 102.8242,347.40756 103.14389,350.68601 102.08116,352.73152 C 101.01844,354.77702 98.050147,357.4729 97.776979,359.23405 C 96.621299,366.68479 92.957083,366.20063 86.058491,366.97663 C 83.537069,367.26025 81.778723,370.38335 78.728228,371.21059 C 75.677718,372.03783 72.192515,371.15327 68.794623,371.78959 C 58.880774,373.64611 59.052249,368.53413 54.460395,366.97663 C 46.08409,364.13547 46.144859,364.1463 43.683567,360.07108 C 40.415817,354.66064 43.684113,350.97807 42.009495,344.48128 C 40.265302,337.71463 39.171613,330.06336 45.253001,325.3341 C 48.81373,322.56507 55.123148,323.94563 56.762243,318.32393 C 58.099606,313.73712 60.517552,310.80955 64.086294,309.63969 z"
       style="fill:#fcef3c;fill-opacity:1;fill-rule:evenodd;stroke:#000000;stroke-width:1.62877047;stroke-linecap:butt;stroke-linejoin:miter;stroke-miterlimit:4;stroke-dasharray:none;stroke-opacity:1;display:inline" />
    <path
       style="fill:#ffffff;stroke:#000000;stroke-opacity:1;stroke-width:2"
       d="M 298.5 419.15625 C 294.19416 419.85526 279.72193 415.742 272.46875 433.78125 C 263.50569 430.36906 256.68638 440.57946 254.53125 451.875 C 253.91087 447.1611 233.70909 455.77702 239.03125 473.25 C 221.55084 475.88486 213.98464 490.67373 212.65625 502.3125 C 210.72461 504.84644 209.13731 508.24719 208.1875 512.84375 C 198.76097 511.07747 193.86498 522.31378 193.75 533.8125 C 192.3024 529.2837 173.94078 541.37486 182.28125 557.625 C 174.17727 560.38394 168.91021 577.21287 165.6875 586.5 C 218.9161 598.20739 271.24703 614.00474 298.5 656.125 L 298.5 561.875 L 298.375 561.75 L 298.5 528.1875 L 298.5 419.15625 z "
       id="use2811" />
    <g
       id="g7202"
       transform="translate(-700,0)">
      <path
         id="path7127"
         d="M 880.6,565.76218 L 880.6,758.36218 C 880.6,809.9841 973.25601,784.74146 1000,828.56218 C 1026.744,784.74146 1119.4,809.9841 1119.4,758.36218 L 1119.4,565.76218 L 880.6,565.76218 z"
         style="fill:#2b5df2;stroke:#000000;stroke-width:3;stroke-opacity:1"
         transform="translate(0,-392.36218)" />
      <path
         id="path7197"
         d="M 880.59375,366 C 880.59377,417.62192 973.25601,392.36678 1000,436.1875 C 1026.744,392.36677 1119.4062,417.62192 1119.4062,366 L 880.59375,366 z"
         style="fill:#fcef3c;stroke:#000000;stroke-opacity:1" />
      <g
         transform="matrix(0.8,0,0,0.8,629.89306,-66.43026)"
         id="g6929">
        <path
           style="fill:#fcef3c;fill-opacity:1;fill-rule:nonzero;stroke:#000000;stroke-width:1;stroke-linecap:butt;stroke-linejoin:round;stroke-miterlimit:4;stroke-dasharray:none;stroke-dashoffset:0;stroke-opacity:1"
           d="M 469.23252,312.06367 C 455.2069,312.06367 443.66926,323.60007 443.66929,337.96437 C 443.66929,352.32867 455.2069,363.86507 469.23252,363.86507 C 483.25814,363.86507 494.7675,352.32867 494.76748,337.96437 C 494.76748,323.60007 483.25814,312.06367 469.23252,312.06367 z M 469.23252,315.22306 C 481.85202,315.22306 491.93969,325.47383 491.93969,337.96437 C 491.93971,350.4549 481.85202,360.70569 469.23252,360.70569 C 456.61303,360.70569 446.52536,350.45491 446.52536,337.96437 C 446.52533,325.47384 456.61303,315.22306 469.23252,315.22306 z"
           id="path6787" />
        <path
           sodipodi:nodetypes="csssscccccscccccssccccccc"
           id="path5453"
           d="M 530.93397,433.37944 C 545.21601,431.58047 542.48791,427.2564 550.57115,423.57696 C 582.61164,408.9923 584.85883,447.5146 579.5219,453.92663 C 574.98793,459.37393 573.53775,463.74341 574.79537,467.4231 C 576.23727,471.64205 579.49745,468.58642 578.14498,480.52974 C 577.31717,487.84003 574.8413,485.91909 573.16636,488.41841 C 575.88585,493.02998 573.41916,495.02463 571.07222,497.07971 C 570.97104,500.44078 572.65335,502.81473 574.6015,505.04154 C 570.65573,503.98532 564.14832,504.7791 566.19798,495.56575 C 564.69662,498.10297 562.83979,498.38985 562.73944,504.81825 C 555.7893,499.56223 559.36285,497.91815 561.27686,495.3939 C 564.08759,491.68705 564.46904,489.98103 561.11852,487.10185 C 560.11015,486.413 558.62608,486.38641 559.23031,483.45257 L 554.78782,482.4016 C 556.47149,477.71839 554.7517,473.53198 560.43254,468.2653 C 556.29903,468.84754 555.2433,474.1294 552.47856,478.92854 C 553.28834,473.67592 548.76983,470.24294 556.54679,464.09833 C 558.73381,462.37035 559.90179,459.56667 554.05002,458.63611 C 548.37235,457.73326 550.37315,455.26104 550.89,452.92678 C 549.66843,449.58275 551.96678,447.70076 553.83201,445.63886 L 550.9397,445.08993 C 556.09932,442.03944 554.23406,441.09511 557.51976,438.27561 C 559.4717,432.1448 552.81669,432.27551 548.90465,436.16162 C 546.4328,438.53661 542.48266,440.66972 533.65778,438.71157 C 532.4138,437.30463 530.81449,435.75648 530.93397,433.37944 z"
           style="fill:#2b5df2;fill-opacity:1;stroke:none;stroke-width:1.64999998;stroke-linecap:butt;stroke-linejoin:round;stroke-miterlimit:4;stroke-dasharray:none;stroke-opacity:1" />
        <path
           sodipodi:nodetypes="ccccccccccccccccccscccccccccccccccccccccccccccscccccccccsscccccscccccsssccccsccccccccccccccc"
           style="fill:#000000;fill-opacity:1;fill-rule:evenodd;stroke:none;stroke-width:1px;stroke-linecap:butt;stroke-linejoin:miter;stroke-opacity:1"
           d="M 369.6398,358.53055 C 368.71258,358.59355 368.01656,359.15907 367.70219,360.55891 C 368.73613,362.71224 372.55491,372.02374 366.92264,366.00101 C 359.15874,361.49841 358.60862,367.32576 363.25387,372.58673 C 368.59933,376.37424 358.43629,380.43072 362.65968,384.91289 C 361.77051,388.81857 364.11761,389.79591 364.97641,395.47392 C 373.18852,402.18459 371.37781,412.89793 374.78063,421.39437 C 377.15718,426.39238 386.73266,428.31292 386.30544,420.55231 C 384.464,414.00856 391.60206,429.11381 393.85554,419.11294 C 393.7192,412.38647 405.27256,413.97628 398.87999,420.59842 C 392.87407,428.97912 390.82827,439.36562 393.84796,449.34131 C 394.68681,451.0648 395.71582,453.33228 395.35254,454.3234 C 389.98741,455.42094 379.53816,455.39574 374.99776,453.62836 C 367.12686,457.58559 367.28728,465.57264 369.96761,472.93921 C 368.51576,480.70598 371.53898,486.91278 373.90945,493.51936 C 375.88141,502.40448 383.10572,512.85035 388.01043,507.97985 C 390.69658,499.37694 387.09593,489.61915 385.02507,487.74488 C 383.07372,487.7705 382.12045,489.29324 381.15108,490.79184 C 376.63818,483.28907 380.42976,485.44886 381.21877,483.34883 C 382.52638,479.8685 381.32035,481.25773 377.81879,476.95249 C 376.90236,471.51439 376.3601,463.1573 385.38206,468.56493 C 392.31605,471.90763 400.34564,474.3827 407.08337,475.47983 C 408.38073,482.72215 409.52735,492.0713 409.87238,499.71428 C 409.09603,508.77292 412.62552,517.99288 409.79605,527.22197 C 411.74558,536.22363 395.56551,541.65159 401.91311,549.44623 C 406.44832,548.05001 420.0302,551.89137 420.09767,545.46344 C 420.44689,541.23776 413.01017,530.19563 421.8306,534.29056 C 422.28291,527.30639 417.10141,521.12197 419.73599,513.6174 C 425.48145,505.05452 422.96192,495.37615 424.85775,486.05665 C 426.69327,480.40272 427.19845,473.21379 436.91308,476.58701 C 443.77179,480.35605 451.07513,471.11403 456.24802,478.11371 C 464.39141,485.49547 472.94144,492.11254 483.25601,496.25082 C 492.39982,504.19624 475.26555,509.78034 470.95612,515.53705 C 464.38984,523.04694 462.14456,533.09785 461.19633,542.73933 C 463.15468,554.12921 472.43205,537.26427 479.02149,537.79423 C 480.21439,533.80463 471.66684,518.30862 479.9918,526.88947 C 484.55418,529.79701 485.7221,527.32467 482.19836,523.72424 C 481.24088,513.87535 494.11697,510.54957 499.4311,503.85701 C 508.28697,498.8836 502.62666,492.44795 498.94107,486.94068 C 505.94134,496.49684 519.69618,496.29648 521.51599,505.41424 C 522.71285,512.51382 521.93096,521.09142 520.05877,528.38689 C 516.20558,533.95203 508.09821,543.30723 512.82619,549.65366 C 515.18598,550.61896 525.10913,551.74039 528.03654,549.30499 C 528.44008,544.57417 529.49992,541.5736 526.59692,538.16211 C 527.17642,532.21475 529.50396,524.93348 535.07882,533.43096 C 539.10689,527.80758 528.22549,515.32498 533.64046,508.78759 C 531.64439,500.92175 536.5065,494.91029 534.85972,492.81279 C 531.471,488.49654 528.89211,489.2378 527.10566,486.02468 C 522.3155,475.93318 537.30539,467.00446 535.9614,457.51357 C 538.28375,452.22657 536.48633,446.78677 536.03273,441.40285 C 535.97435,441.29645 535.90509,441.20707 535.84676,441.1016 C 541.44046,441.47703 546.12265,440.97354 548.09503,439.23679 C 552.6102,435.12552 557.29127,432.32452 555.05251,438.82475 C 551.25875,441.80611 554.51022,441.79648 548.5482,445.01669 L 551.86483,446.63903 C 549.71277,448.82109 548.03894,448.99531 549.46419,452.54852 C 548.87379,455.0242 546.67271,458.58091 553.24771,459.55824 C 560.02431,460.56555 555.54735,463.07206 553.46963,465.39556 C 547.76824,471.7714 552.36745,476.45565 551.4478,482.02767 L 553.74637,479.97916 L 553.75498,483.48375 L 558.29676,484.72312 C 557.60722,487.83483 559.34992,487.8653 560.51942,488.59979 C 564.40736,491.66679 561.88797,492.33878 558.64701,496.2635 C 556.44002,498.9361 555.55308,501.24992 563.6156,506.85164 C 563.71014,500.02935 563.54257,503.37467 565.27189,500.6869 C 564.63298,505.25338 571.69131,506.91271 577.28258,505.62588 C 575.02009,503.25596 572.0004,501.74138 572.10621,498.17452 C 574.81589,496.00131 577.44055,493.42699 574.27726,488.52346 C 576.20764,485.87651 578.24705,488.09915 579.18072,480.34334 C 580.70602,467.67213 577.99918,471.19989 576.316,466.71738 C 574.84792,462.80779 576.72384,459.43766 581.69207,453.44469 C 587.99343,445.84358 581.4076,403.22162 547.99938,423.2185 C 542.54599,430.3687 534.89629,432.21757 530.28856,432.3924 C 526.30793,427.14549 522.41721,424.08149 518.56178,423.07478 C 509.487,420.35307 505.14125,418.98398 485.18929,424.11539 C 462.83427,414.50345 448.9899,412.12889 442.56935,410.31914 C 440.32342,409.68608 439.89255,401.99068 438.95122,399.46545 C 435.72249,395.40393 438.86361,385.23623 434.2894,383.84446 C 432.87658,380.39528 428.67063,379.02814 427.67532,375.36038 C 425.17848,379.94929 426.09835,372.58243 425.91177,371.467 C 420.89039,374.71893 420.17868,368.35628 418.69458,369.9377 C 415.65773,369.73073 420.55487,365.19549 415.33194,367.757 C 416.51966,364.31068 413.55524,366.06195 411.32495,366.20881 C 405.09858,364.56224 403.74514,362.63397 396.51549,364.51263 C 392.44584,362.22267 387.29277,362.34963 381.75962,364.0956 C 379.21769,364.70903 372.95124,358.30551 369.6398,358.53055 z M 395.26439,398.46388 C 396.1258,398.47876 396.94067,398.76525 396.55297,400.0154 C 397.83336,399.50236 400.59608,403.75759 397.34384,407.37911 C 390.47722,415.30636 386.89306,401.41814 394.41049,398.53231 C 394.66473,398.501 394.97725,398.45891 395.26439,398.46388 z"
           id="path5455" />
        <path
           sodipodi:nodetypes="ccccccccccsscc"
           style="fill:#fcef3c;fill-opacity:1;fill-rule:evenodd;stroke:none;stroke-width:0.61094344px;stroke-linecap:butt;stroke-linejoin:miter;stroke-opacity:1"
           d="M 374.87438,455.23734 C 366.70827,459.3001 370.65998,466.90155 370.77706,473.91558 C 369.28164,483.7969 373.1192,486.01899 375.77805,494.84015 C 376.76397,497.71413 379.37256,505.11781 385.42066,506.29161 C 387.90975,506.71783 386.55493,494.66438 384.8124,489.73017 C 383.33385,489.85922 382.48388,490.64885 381.27677,493.54828 C 380.61109,489.43736 372.90681,482.24669 379.96188,482.98709 C 382.93309,479.53122 373.89498,480.15558 376.92392,474.01815 C 373.73631,465.70753 380.1217,464.02854 386.50477,467.73524 C 392.5143,469.92727 401.64181,474.75603 408.15633,473.21039 C 408.98142,473.01268 421.23971,471.06301 421.76454,468.40774 C 422.05941,466.91593 428.24139,452.3126 426.52593,452.72015 C 419.81266,454.31507 411.46744,455.35274 410.4163,455.11193 C 403.69729,456.58825 381.36971,457.0866 374.87438,455.23734 z"
           id="path5457" />
        <path
           sodipodi:nodetypes="ccccccccc"
           style="fill:#fcef3c;fill-opacity:1;fill-rule:evenodd;stroke:none;stroke-width:0.61094344px;stroke-linecap:butt;stroke-linejoin:miter;stroke-opacity:1"
           d="M 409.98468,476.12527 C 410.46101,486.19654 412.2451,496.19076 411.32431,506.2334 C 413.96123,516.5322 410.66513,526.78399 409.27236,536.99483 C 405.1598,538.65418 398.93006,551.24711 408.44099,547.80828 C 417.23311,548.7512 421.49651,544.34446 416.22712,536.37174 C 413.46187,530.08577 419.06669,532.18246 420.97789,533.45644 C 417.68003,525.07975 416.29344,515.82174 420.13935,506.74997 C 422.4699,499.23963 421.45404,487.94738 423.09954,482.54365 C 416.23518,485.68385 415.45465,476.27825 409.98468,476.12527 z"
           id="path5459" />
        <path
           sodipodi:nodetypes="ccccccccccccccc"
           style="fill:#fcef3c;fill-opacity:1;fill-rule:evenodd;stroke:none;stroke-width:0.61094344px;stroke-linecap:butt;stroke-linejoin:miter;stroke-opacity:1"
           d="M 471.64374,475.69199 C 474.21102,480.57783 455.85424,476.07234 464.46736,483.53086 C 471.2339,487.60336 478.93422,490.5863 485.66803,494.91168 C 493.31272,502.7351 481.85059,509.72469 476.03179,513.77476 C 466.36879,519.57462 464.57476,531.54288 462.75981,541.6692 C 462.93952,551.09661 471.67339,535.179 476.28198,536.16002 C 476.05823,531.99137 471.17216,518.66567 479.16152,522.81278 C 480.38556,527.36042 483.83967,529.01685 481.02065,523.19329 C 479.76625,515.49253 488.17485,511.48293 492.92163,507.05338 C 496.06516,503.61375 501.33438,501.23459 502.10628,496.33417 C 495.57417,490.64516 494.92845,479.3281 487.65573,474.59984 C 484.45383,473.77038 488.73459,480.18513 483.12331,478.67539 C 478.1934,474.07168 479.54816,482.19972 473.95715,477.97581 L 472.88517,476.91012 L 471.64374,475.69199 z"
           id="path5461" />
        <path
           sodipodi:nodetypes="ccccccccccccccccccccccc"
           style="fill:#fcef3c;fill-opacity:1;fill-rule:evenodd;stroke:none;stroke-width:0.61094344px;stroke-linecap:butt;stroke-linejoin:miter;stroke-opacity:1"
           d="M 508.18047,423.49621 C 503.94499,422.9917 488.33497,428.3854 485.27962,429.67322 C 494.83397,430.99947 484.8039,436.42293 482.08367,439.99425 C 477.20059,446.40509 481.33772,451.89886 486.90164,466.15507 C 490.34442,454.85283 491.5555,473.4829 495.32786,476.99017 C 500.27782,486.00372 508.14428,493.32175 517.32184,496.05564 C 526.43094,500.17925 523.81788,512.57038 523.47095,520.60421 C 523.53203,530.80496 509.44545,538.64041 513.6632,548.82607 C 515.31175,549.07947 523.76554,549.86156 526.51465,547.89021 C 526.81909,545.65827 526.83013,543.54299 525.3919,539.13707 C 522.5856,540.54129 528.4189,530.36714 528.26801,528.66347 C 527.83077,521.94448 531.8079,529.35313 534.10871,530.42417 C 534.37097,522.89941 527.16945,515.98979 531.67062,507.523 C 531.03882,501.92231 532.13243,498.34317 533.89785,494.31177 C 529.32118,490.11167 521.68654,487.74757 524.98337,479.17354 C 529.20842,471.65103 534.28048,463.98676 532.76097,455.45853 C 534.19006,448.84927 535.49208,452.58277 534.05511,445.58866 C 531.48994,437.27871 528.34212,429.20769 518.76782,425.01098 C 515.41876,423.1502 512.1189,422.84984 508.18047,423.49621 z M 524.52267,468.60399 C 524.77393,475.26422 516.35514,484.71068 522.88674,487.74008 C 514.2671,484.49293 517.41281,477.68859 522.74305,473.29614 C 523.64488,471.86741 523.10806,469.74492 524.52267,468.60399 z"
           id="path5463" />
        <path
           style="fill:#fcef3c;fill-opacity:1;fill-rule:evenodd;stroke:none;stroke-width:0.61094344px;stroke-linecap:butt;stroke-linejoin:miter;stroke-opacity:1"
           d="M 382.09216,365.78518 C 382.50905,369.75135 382.9253,373.72525 383.34216,377.69143 C 388.59434,383.22228 396.32841,388.93769 397.31091,398.44143 C 398.3818,394.92003 397.47517,384.2036 399.31091,393.56643 C 398.60506,399.11153 401.57849,406.49049 403.06091,409.94143 C 402.99501,410.39454 402.9282,410.88255 402.87341,411.41018 C 399.76985,411.4222 397.22921,411.45889 396.06091,411.50393 C 389.75925,414.59118 397.32036,414.2628 402.62341,413.78518 C 402.31874,416.82507 401.89085,420.04598 400.49841,421.22268 C 398.54992,425.58738 395.13787,429.48998 394.34216,434.25393 C 394.01975,437.18409 394.20652,440.10834 394.43591,443.03518 C 395.09192,446.64025 396.09159,450.21298 396.90466,453.78518 C 397.03408,455.96913 399.36125,454.70422 400.77966,454.87893 C 405.95214,454.52981 405.93389,455.52401 411.02705,454.46671 C 413.04144,459.66375 423.36895,458.79068 427.06568,456.89847 C 426.54148,464.22359 425.84998,463.61686 424.59216,470.84768 C 419.56091,472.09768 414.52966,473.34768 409.49841,474.59768 C 412.32646,476.90319 416.41945,476.08044 419.74841,476.25393 C 425.45039,474.37473 431.82141,472.50353 437.65466,474.97268 C 442.51261,476.47627 446.976,472.70033 451.84216,472.87893 C 459.6847,472.93263 467.77025,474.87464 475.43591,472.47268 C 479.83022,471.29431 480.68732,466.38554 480.06091,462.50393 C 479.67585,456.96821 477.91521,451.5669 477.99841,446.00393 C 480.73755,442.71722 473.47228,443.63689 471.52966,442.87893 C 459.87528,441.48956 448.12664,441.10024 436.52966,439.25393 C 434.97386,435.88025 439.53686,429.83036 440.62341,425.87893 C 443.72279,424.23573 444.22347,418.31274 442.74841,414.41018 C 449.46144,413.42926 447.48299,412.78349 441.59216,412.31643 C 441.05058,411.64328 440.39969,411.1743 439.65466,410.97268 C 438.59604,405.33578 439.44426,394.16477 433.71716,403.75393 C 430.56339,406.65041 427.01806,413.67722 427.62341,405.28518 C 429.30366,400.98551 435.40645,389.76539 429.15466,398.37893 C 427.44289,405.93108 425.95985,401.82547 426.99841,395.69143 C 430.39994,392.38301 427.78654,386.25302 425.43591,393.19143 C 421.60256,396.12309 423.37525,411.00668 420.84216,400.09768 C 420.42885,368.97274 418.14939,400.97161 414.06091,394.97268 C 410.08093,392.27248 409.14147,385.86895 406.93591,380.41018 C 406.92936,384.09119 407.74491,387.95062 407.99841,391.72268 C 402.09272,387.89911 403.72966,371.20313 400.18591,372.28518 C 401.13865,377.59463 404.23131,395.03897 398.43591,382.66018 C 398.70167,378.63257 394.12306,365.94369 395.09216,375.62893 C 395.56039,380.92427 392.9986,383.91301 393.62341,377.06643 C 391.92889,371.62261 387.99888,366.67482 382.09216,365.78518 z M 389.52966,366.91018 C 390.44256,370.10475 396.67589,374.96869 392.34216,368.75393 C 391.95908,367.66559 390.70768,366.7543 389.52966,366.91018 z M 399.06091,399.94143 C 399.34468,400.65545 399.66545,401.44557 399.93591,402.28518 C 399.90942,401.47559 399.64688,400.69121 399.06091,399.94143 z M 399.93591,402.31643 C 400.06102,407.21579 391.97872,412.52486 399.87341,410.00393 C 401.23674,407.80624 400.75407,404.86651 399.93591,402.31643 z"
           id="path5465"
           sodipodi:nodetypes="cccccccccccccccccccccccccccccccccccccccccccccccccccc" />
        <path
           id="path5467"
           d="M 412.49295,368.88832 C 416.19783,374.36749 413.19759,388.04823 416.67846,388.56943 C 420.53875,384.41766 418.34595,368.76778 422.57965,380.73819 C 425.50081,385.30312 418.30615,394.57944 422.17287,396.18967 C 424.75394,392.60002 428.3907,385.87263 429.25706,383.7529 C 430.58126,388.1075 428.0601,401.09314 432.70017,391.29031 C 435.22035,387.37517 432.84825,399.38435 430.75528,401.69049 C 428.80811,409.79423 439.3535,396.69835 435.70373,392.15824 C 436.09013,382.34601 424.41307,381.78122 423.27072,373.41412 C 416.46405,375.009 417.35241,368.18572 412.49295,368.88832 z M 411.47034,372.92658 C 410.34554,376.55842 411.48311,390.64585 412.23085,388.00678 C 414.15817,383.17062 413.35088,377.4733 411.47034,372.92658 z"
           style="fill:#fcef3c;fill-opacity:1;fill-rule:evenodd;stroke:none;stroke-width:0.61094344px;stroke-linecap:butt;stroke-linejoin:miter;stroke-opacity:1"
           sodipodi:nodetypes="ccccccccccccc" />
        <path
           sodipodi:nodetypes="ccccccccccccccc"
           style="fill:#fcef3c;fill-opacity:1;fill-rule:evenodd;stroke:none;stroke-width:0.61094344px;stroke-linecap:butt;stroke-linejoin:miter;stroke-opacity:1"
           d="M 377.73446,405.80202 C 369.13055,409.30932 373.93223,424.68914 382.71205,424.80317 C 387.84451,424.66858 383.50873,408.76541 383.15735,416.91638 C 381.41991,415.32169 384.42971,408.1334 386.42698,412.9038 C 390.50564,418.5956 389.29636,417.47549 385.50197,413.94863 C 385.10331,420.66487 395.24149,423.73086 392.5242,414.1825 C 391.27193,409.16709 387.11823,404.88466 382.71956,405.55881 C 381.05533,405.5673 379.389,405.61375 377.73446,405.80202 z M 378.80453,407.35254 C 379.97482,407.13755 382.96013,407.25249 379.55212,408.11991 C 376.65859,407.36508 378.23224,412.17145 376.12136,411.41419 C 375.92763,409.63735 376.8818,407.63308 378.80453,407.35254 z M 377.23197,412.52849 C 378.11989,414.7973 382.71271,417.13506 378.85431,419.74439 C 376.049,420.22882 375.01139,413.96334 377.23197,412.52849 z"
           id="path5469" />
        <path
           id="path5471"
           d="M 371.88074,381.75271 C 358.7587,384.30674 367.14779,397.8343 372.23383,404.04098 C 373.64305,411.52607 378.22355,400.90652 378.31861,401.70182 C 380.83672,409.36784 383.83553,400.42394 381.70198,396.33853 C 381.03045,392.75948 381.38792,388.28633 380.08857,385.25277 C 378.15727,382.89203 375.57345,380.98993 372.09435,381.73026 C 372.02315,381.73774 371.95195,381.74523 371.88074,381.75271 z M 385.24662,395.53333 C 386.29894,398.02807 384.216,404.67701 387.67105,403.98807 C 394.28684,400.22849 388.81684,387.31519 388.25706,387.33193 C 391.42539,390.42773 396.30737,404.38369 394.51006,393.69856 C 388.18921,380.95858 384.52534,381.94253 385.24662,395.53333 z M 368.79676,389.39844 C 370.68689,389.34616 373.21795,388.74721 374.71382,389.59724 C 374.73835,392.96957 369.0837,388.11326 372.47821,392.98548 C 369.76565,395.36981 368.33838,389.36112 367.33527,389.84405 L 368.79676,389.39844 z"
           style="fill:#fcef3c;fill-opacity:1;fill-rule:evenodd;stroke:none;stroke-width:0.61094344px;stroke-linecap:butt;stroke-linejoin:miter;stroke-opacity:1"
           sodipodi:nodetypes="ccccccccccccccccc" />
        <path
           sodipodi:nodetypes="ccccccccccccccccccccccc"
           style="fill:#fcef3c;fill-opacity:1;fill-rule:evenodd;stroke:none;stroke-width:0.61094344px;stroke-linecap:butt;stroke-linejoin:miter;stroke-opacity:1"
           d="M 368.95657,359.68485 C 369.7136,364.39693 373.08715,369.69106 373.44932,373.25114 C 373.09326,373.24053 372.0268,371.17488 371.99345,372.75623 C 371.80961,376.81367 368.72199,367.2575 368.90822,374.51542 C 367.50615,383.52143 368.98374,367.83556 366.21622,367.42688 C 356.17712,362.64257 369.78889,374.39832 365.15809,378.20451 C 361.76751,384.1778 376.49866,374.82426 379.70135,377.2149 C 378.72526,372.74203 379.12117,367.60882 377.28842,363.57314 C 375.41971,361.28288 371.91515,359.66403 368.95657,359.68485 z M 372.11317,362.18235 C 379.64235,361.71949 375.72869,377.72174 374.38,367.5163 C 373.60147,365.66007 371.62842,364.50848 372.11317,362.18235 z M 376.11646,378.28385 C 371.38313,378.71851 363.75875,379.64296 363.77801,385.41121 C 364.20798,386.21356 372.61262,377.4877 377.76412,381.63106 C 377.92848,379.62846 379.41097,377.6547 376.11646,378.28385 z M 381.28252,378.32398 C 371.79991,382.68532 388.22617,388.07199 383.60047,379.50483 C 382.88373,378.91171 382.37611,378.12568 381.28252,378.32398 z M 381.31626,385.4261 C 382.01826,392.10518 382.72026,398.78424 383.42226,405.46338 C 386.21131,404.77533 384.01649,400.53388 384.45024,398.34926 C 383.12688,394.76476 384.94968,386.21843 381.31626,385.4261 z"
           id="path5473" />
        <path
           sodipodi:nodetypes="csssscccccscccccssccccccc"
           id="path5525"
           d="M 530.93397,433.37944 C 545.21601,431.58047 542.48791,427.2564 550.57115,423.57696 C 582.61164,408.9923 584.85883,447.5146 579.5219,453.92663 C 574.98793,459.37393 573.53775,463.74341 574.79537,467.4231 C 576.23727,471.64205 579.49745,468.58642 578.14498,480.52974 C 577.31717,487.84003 574.8413,485.91909 573.16636,488.41841 C 575.88585,493.02998 573.41916,495.02463 571.07222,497.07971 C 570.97104,500.44078 572.65335,502.81473 574.6015,505.04154 C 570.65573,503.98532 564.14832,504.7791 566.19798,495.56575 C 564.69662,498.10297 562.83979,498.38985 562.73944,504.81825 C 555.7893,499.56223 559.36285,497.91815 561.27686,495.3939 C 564.08759,491.68705 564.46904,489.98103 561.11852,487.10185 C 560.11015,486.413 558.62608,486.38641 559.23031,483.45257 L 554.78782,482.4016 C 556.47149,477.71839 554.7517,473.53198 560.43254,468.2653 C 556.29903,468.84754 555.2433,474.1294 552.47856,478.92854 C 553.28834,473.67592 548.76983,470.24294 556.54679,464.09833 C 558.73381,462.37035 559.90179,459.56667 554.05002,458.63611 C 548.37235,457.73326 550.37315,455.26104 550.89,452.92678 C 549.66843,449.58275 551.96678,447.70076 553.83201,445.63886 L 550.9397,445.08993 C 556.09932,442.03944 554.23406,441.09511 557.51976,438.27561 C 559.4717,432.1448 552.81669,432.27551 548.90465,436.16162 C 546.4328,438.53661 542.48266,440.66972 533.65778,438.71157 C 532.4138,437.30463 530.81449,435.75648 530.93397,433.37944 z"
           style="fill:#fcef3c;fill-opacity:1;stroke:none;stroke-width:1.64999998;stroke-linecap:butt;stroke-linejoin:round;stroke-miterlimit:4;stroke-dasharray:none;stroke-opacity:1" />
        <path
           sodipodi:nodetypes="cscccsc"
           id="path5527"
           d="M 542.19042,434.81782 C 548.95912,432.86066 553.40749,420.52318 563.07477,427.8311 C 568.74882,432.12038 564.52355,439.72109 565.51528,444.79619 C 564.70986,441.6608 565.52662,436.67582 564.29541,435.35704 C 563.04369,442.31107 561.2119,443.25097 560.19752,443.99958 C 562.57735,439.33355 563.27753,435.10648 561.56557,431.06521 C 557.69255,421.92249 548.6898,433.28736 542.19042,434.81782 z"
           style="fill:#000000;fill-opacity:1;stroke:none;stroke-width:1.5;stroke-linecap:butt;stroke-linejoin:round;stroke-miterlimit:4;stroke-dasharray:none;stroke-opacity:1" />
        <path
           sodipodi:nodetypes="ccccc"
           id="path5529"
           d="M 565.18197,470.53618 C 560.11342,460.85091 554.79711,453.82149 565.31068,447.18727 C 560.29558,452.36561 559.91366,453.00445 561.37461,456.8402 C 562.18713,453.40544 564.89224,450.30256 567.31781,449.2568 C 559.42317,457.04195 563.6157,465.29168 565.18197,470.53618 z"
           style="fill:#000000;fill-opacity:1;stroke:none;stroke-width:1.5;stroke-linecap:butt;stroke-linejoin:round;stroke-miterlimit:4;stroke-dasharray:none;stroke-opacity:1" />
        <path
           sodipodi:nodetypes="cscsc"
           id="path5531"
           d="M 567.97143,491.4277 C 573.27962,488.04569 567.15614,487.57469 570.87662,479.23206 C 573.08107,474.28889 567.96211,473.47904 567.11508,465.56511 C 565.93202,473.63022 571.3203,473.5796 569.64154,477.95614 C 565.78197,488.01803 570.7468,486.5741 567.97143,491.4277 z"
           style="fill:#000000;fill-opacity:1;stroke:none;stroke-width:1.5;stroke-linecap:butt;stroke-linejoin:round;stroke-miterlimit:4;stroke-dasharray:none;stroke-opacity:1" />
        <path
           sodipodi:nodetypes="cscsc"
           id="path5533"
           d="M 562.95371,470.21843 C 564.80858,472.65755 565.8557,474.82056 564.4277,478.39447 C 562.99789,481.97291 569.54437,486.93369 565.24244,490.75885 C 567.42097,487.15602 561.83598,483.03776 563.17473,477.63092 C 563.89727,474.71275 563.95376,473.18452 562.95371,470.21843 z"
           style="fill:#000000;fill-opacity:1;stroke:none;stroke-width:1.5;stroke-linecap:butt;stroke-linejoin:round;stroke-miterlimit:4;stroke-dasharray:none;stroke-opacity:1" />
        <path
           sodipodi:nodetypes="cccc"
           id="path5535"
           d="M 558.99572,475.91856 C 559.55658,477.41594 560.13494,478.41255 560.81343,476.54189 C 560.55101,479.10197 560.08972,481.67166 562.30857,484.11197 C 558.73434,482.10942 559.61999,478.79128 558.99572,475.91856 z"
           style="fill:#000000;fill-opacity:1;stroke:none;stroke-width:1.5;stroke-linecap:butt;stroke-linejoin:round;stroke-miterlimit:4;stroke-dasharray:none;stroke-opacity:1" />
        <path
           sodipodi:nodetypes="cccc"
           id="path5537"
           d="M 573.38264,428.08148 C 574.86714,430.02016 576.26915,433.50404 575.22062,436.3365 L 577.25072,436.40739 C 577.1536,433.58181 577.06088,429.87009 573.38264,428.08148 z"
           style="fill:#000000;fill-opacity:1;stroke:none;stroke-width:1.5;stroke-linecap:butt;stroke-linejoin:round;stroke-miterlimit:4;stroke-dasharray:none;stroke-opacity:1" />
        <path
           sodipodi:nodetypes="ccccc"
           id="path5539"
           d="M 575.87094,448.43579 L 573.96219,448.12921 C 573.51607,449.69067 572.46597,450.92331 571.18668,452.03116 L 572.86694,452.00986 C 574.20639,451.10282 575.11939,450.79862 575.87094,448.43579 z"
           style="fill:#000000;fill-opacity:1;stroke:none;stroke-width:1.5;stroke-linecap:butt;stroke-linejoin:round;stroke-miterlimit:4;stroke-dasharray:none;stroke-opacity:1" />
        <path
           sodipodi:nodetypes="cccc"
           id="path5541"
           d="M 571.64289,448.12819 L 570.30445,447.52161 C 563.84539,454.86169 565.06724,456.88041 564.99902,460.69257 C 565.88288,456.69578 565.70147,452.8195 571.64289,448.12819 z"
           style="fill:#000000;fill-opacity:1;stroke:none;stroke-width:1.5;stroke-linecap:butt;stroke-linejoin:round;stroke-miterlimit:4;stroke-dasharray:none;stroke-opacity:1" />
        <path
           sodipodi:nodetypes="cccc"
           id="path5543"
           d="M 565.17337,427.2681 C 569.28487,428.88278 570.16218,431.8017 570.42287,434.96929 L 568.42587,434.89955 C 569.26737,430.26169 566.83141,429.18786 565.17337,427.2681 z"
           style="fill:#000000;fill-opacity:1;stroke:none;stroke-width:1.5;stroke-linecap:butt;stroke-linejoin:round;stroke-miterlimit:4;stroke-dasharray:none;stroke-opacity:1" />
        <path
           style="fill:#fcef3c;fill-opacity:1;fill-rule:nonzero;stroke:#000000;stroke-width:1;stroke-linecap:butt;stroke-linejoin:round;stroke-miterlimit:4;stroke-dasharray:none;stroke-dashoffset:0;stroke-opacity:1"
           d="M 495.88606,421.69478 C 488.76374,429.96852 484.442,439.58301 481.71716,450.22268 C 457.14148,450.59473 412.6322,442.60451 393.98408,432.6232 C 391.79323,438.59126 392.79242,441.60919 393.80231,444.77658 L 395.24841,444.81643 C 397.56046,457.0631 405.19718,451.0971 404.46716,446.84768 L 409.15466,446.84768 C 409.12882,455.24252 417.30621,455.12014 416.65466,447.78518 L 421.49841,448.72268 C 421.85152,455.83669 427.43328,457.01062 429.65466,449.66018 C 449.85917,452.41473 459.75176,456.786 489.62341,457.09768 L 489.68591,457.41018 L 500.15466,457.41018 C 502.06696,467.69251 509.91896,463.13879 509.40466,458.19143 L 514.71716,458.50393 C 513.9192,466.71861 524.55337,466.8552 523.93591,458.19143 L 529.56091,458.03518 C 530.50319,467.65006 538.81332,464.41805 537.84216,458.03518 L 537.68591,451.16018 L 536.96716,451.16018 C 536.6091,437.38116 530.84757,428.18588 518.15466,423.00393 C 508.84195,419.6278 502.31604,420.58667 495.88606,421.69478 z M 499.56091,425.59768 C 504.66757,431.20834 505.6731,441.72755 504.43591,451.06643 L 489.87341,451.00393 C 490.16548,441.85701 495.00698,433.26485 499.56091,425.59768 z M 509.12341,426.94143 C 520.09801,427.4594 521.49074,440.75286 522.59216,451.12893 L 511.37341,451.09768 C 512.03611,443.64253 510.92713,433.51762 509.12341,426.94143 z M 524.37341,430.31643 L 524.56091,430.34768 C 530.68104,436.1163 534.12891,442.9243 533.90466,451.16018 L 529.21716,451.12893 C 528.199,444.79188 526.73833,438.00023 524.37341,430.31643 z"
           id="path5673"
           sodipodi:nodetypes="ccccccccccccccccccccccccccccccccccc" />
        <path
           style="fill:#fcef3c;fill-opacity:1;fill-rule:nonzero;stroke:#000000;stroke-width:1;stroke-linecap:butt;stroke-linejoin:round;stroke-miterlimit:4;stroke-dasharray:none;stroke-dashoffset:0;stroke-opacity:1"
           d="M 396.45241,409.25607 C 418.42602,423.68579 432.77831,420.33345 456.99095,407.81329 L 460.56822,407.50067 C 455.42867,415.70153 454.0032,427.97481 444.60806,424.63475 C 444.09219,429.18979 440.75378,427.42682 435.52729,423.3241 C 434.5193,428.0742 429.38444,429.25005 425.89615,424.57459 C 422.05768,430.69201 418.59017,430.07808 415.98985,425.19983 C 412.24839,429.31972 408.37385,428.03271 407.18424,422.69885 C 403.29165,425.20421 398.78831,424.4995 399.47933,417.38426 C 394.3144,421.74762 388.67181,411.33439 396.45241,409.25607 z"
           id="path5685"
           sodipodi:nodetypes="cccccccccc" />
        <g
           id="g6650"
           transform="translate(-535.81375,-389.52586)">
          <path
             sodipodi:nodetypes="ccssscccc"
             transform="translate(0,392.36218)"
             id="path6644"
             d="M 993.76447,335.73511 C 992.78048,333.60403 993.77395,331.47296 988.39416,329.34188 C 988.39416,329.34188 994.75451,325.23284 997.85615,324.48302 C 1000.6898,323.79797 1004.7726,323.67572 1007.5739,324.48302 C 1010.6214,325.36127 1014.7493,327.48083 1016.5244,330.10907 C 1019.9742,335.21674 1015.7572,346.47575 1015.7572,346.47575 L 1008.5968,349.03304 L 1007.0624,338.80387 L 993.76447,335.73511 z"
             style="opacity:1;fill:#fcef3c;fill-opacity:1;fill-rule:nonzero;stroke:#000000;stroke-width:1;stroke-linecap:butt;stroke-linejoin:round;stroke-miterlimit:4;stroke-dasharray:none;stroke-dashoffset:0;stroke-opacity:1" />
          <path
             sodipodi:nodetypes="ccccccccccc"
             transform="translate(0,392.36218)"
             id="path6646"
             d="M 996.27593,336.59397 L 990.95145,346.73148 L 994.0202,347.49866 L 992.74156,350.56742 L 993.58291,351.00618 L 993.79552,352.98783 C 995.45097,353.51494 997.34943,354.22507 998.10422,354.72375 L 1000.6157,360.22327 L 1004.5051,361.56378 L 1008.3411,336.12835 L 996.27593,336.59397 z"
             style="opacity:1;fill:#fcef3c;fill-opacity:1;fill-rule:nonzero;stroke:#000000;stroke-width:1;stroke-linecap:butt;stroke-linejoin:round;stroke-miterlimit:4;stroke-dasharray:none;stroke-dashoffset:0;stroke-opacity:1" />
          <path
             sodipodi:nodetypes="ccccssc"
             id="path6642"
             d="M 992.77584,734.39776 C 997.82117,727.89624 1004.8885,729.22656 1004.8804,737.30355 L 1002.3231,750.60148 L 1014.532,743.656 C 1008.2588,737.15146 1014.179,737.36206 1011.5294,728.35302 C 1010.1937,723.81156 1003.38,722.62391 999.37826,723.41671 C 990.55388,725.16493 989.00122,729.7687 992.77584,734.39776 z"
             style="opacity:1;fill:#fcef3c;fill-opacity:1;fill-rule:nonzero;stroke:#000000;stroke-width:1;stroke-linecap:butt;stroke-linejoin:round;stroke-miterlimit:4;stroke-dasharray:none;stroke-dashoffset:0;stroke-opacity:1" />
        </g>
        <path
           style="opacity:1;fill:#fcef3c;fill-opacity:1;fill-rule:nonzero;stroke:#000000;stroke-width:1;stroke-linecap:butt;stroke-linejoin:round;stroke-miterlimit:4;stroke-dasharray:none;stroke-dashoffset:0;stroke-opacity:1"
           d="M 444.7312,439.03783 L 477.32196,441.84469 L 484.96285,435.13941 L 488.39345,429.9935 L 495.88606,421.69478 L 481.53224,423.75604 L 449.61541,426.36959 L 444.7312,439.03783 z"
           id="path6858" />
        <g
           id="g6744"
           transform="translate(-499.18909,0.72268)">
          <path
             sodipodi:nodetypes="cssccccccccccssscc"
             id="path6620"
             d="M 956.70392,431.66839 C 951.59605,434.07209 945.6749,436.63176 941.38337,438.8672 C 939.87054,439.65522 940.59881,441.11569 941.93713,441.82056 C 952.53118,447.40026 950.86024,451.60383 953.75056,456.21819 C 954.84931,460.86781 955.38073,460.55251 957.07309,470.61582 C 957.72495,471.7904 958.03371,473.04123 960.76479,473.75376 C 962.6668,475.09049 964.28305,476.56259 961.68772,480.02965 C 957.71588,485.24519 954.75318,493.31997 948.02843,490.73558 C 945.04694,489.58625 945.73188,488.82286 947.29009,488.15139 C 950.4958,488.91055 951.50709,486.27834 952.0893,482.98301 C 952.68581,477.33067 951.10871,473.18313 948.58218,469.69289 L 941.75254,461.57115 L 943.78297,460.64823 L 934.18456,449.20396 C 932.63561,447.35713 931.40083,445.29798 930.49286,443.11265 C 929.4589,440.62408 926.75941,438.34109 930.67744,433.51424 C 936.45299,426.399 937.47543,424.98747 939.90669,421.88538 L 956.70392,431.66839 z"
             style="opacity:1;fill:#fcef3c;fill-opacity:1;fill-rule:nonzero;stroke:#000000;stroke-width:1;stroke-linecap:butt;stroke-linejoin:round;stroke-miterlimit:4;stroke-dasharray:none;stroke-dashoffset:0;stroke-opacity:1" />
          <path
             id="path6655"
             d="M 944.22312,460.94756 L 952.46789,456.23626"
             style="opacity:1;fill:none;fill-opacity:1;fill-rule:nonzero;stroke:#000000;stroke-width:1;stroke-linecap:butt;stroke-linejoin:round;stroke-miterlimit:4;stroke-dasharray:none;stroke-dashoffset:0;stroke-opacity:1" />
        </g>
        <g
           transform="translate(-499.18909,-391.6395)"
           id="g6717">
          <path
             sodipodi:nodetypes="ccccccccccccccccccccccccccc"
             transform="translate(0,392.36218)"
             id="path6634"
             d="M 937.05069,426.00857 L 938.49731,424.38112 L 941.75221,426.91271 L 943.37966,425.37567 L 942.2947,428.26892 L 944.64546,429.89637 L 947.35788,427.18395 L 945.45919,430.7101 L 946.27291,432.97045 L 948.53326,432.88003 L 950.34154,429.4443 L 949.25657,433.69376 L 950.25113,435.32121 L 953.68686,434.86914 L 956.58011,437.12949 L 962.18578,437.58156 L 963.99406,439.7515 L 967.88186,439.1186 L 969.4189,435.50204 L 973.21628,435.68287 L 973.03546,432.42796 L 974.93415,434.50749 L 978.64112,433.06086 L 976.19995,423.92904 L 954.95266,420.67415 L 945.73043,417.50965 C 941.15323,421.36449 933.98421,423.60901 937.05069,426.00857 z"
             style="opacity:1;fill:#fcef3c;fill-opacity:1;fill-rule:nonzero;stroke:#000000;stroke-width:1;stroke-linecap:butt;stroke-linejoin:round;stroke-miterlimit:4;stroke-dasharray:none;stroke-dashoffset:0;stroke-opacity:1" />
          <path
             sodipodi:nodetypes="cccccccccccccccccccccccccccccccccccc"
             transform="translate(0,392.36218)"
             id="path6636"
             d="M 939.03979,421.93994 L 942.11387,421.12621 L 944.01256,422.57284 L 946.90581,420.22207 L 944.73587,423.29615 L 947.80995,425.46609 L 950.52237,422.93449 L 948.8045,425.64691 L 952.24024,427.99768 L 954.41017,423.83863 L 953.50603,428.17851 L 956.39928,429.26347 L 958.11715,425.19484 L 957.57466,429.62513 L 961.28164,430.43886 L 961.91453,426.09898 L 962.45702,431.07175 L 965.71192,432.24714 L 966.25441,427.00312 L 966.61606,432.33755 L 969.50931,432.60879 L 970.32304,425.01402 L 970.59428,432.78962 L 973.84918,432.51838 L 972.76421,427.00312 L 975.20539,432.51838 L 977.37533,432.24714 L 976.92326,430.80051 L 978.36988,432.15672 L 981.0823,430.98134 L 984.87969,427.26347 L 987.68252,423.45519 L 988.67708,420.47153 C 978.99865,420.60662 983.00764,416.52925 980.81106,412.17523 L 955.13348,409.01074 C 951.63927,415.45354 945.44223,414.94368 939.03979,421.93994 z"
             style="opacity:1;fill:#fcef3c;fill-opacity:1;fill-rule:nonzero;stroke:#000000;stroke-width:1;stroke-linecap:butt;stroke-linejoin:round;stroke-miterlimit:4;stroke-dasharray:none;stroke-dashoffset:0;stroke-opacity:1" />
          <path
             sodipodi:nodetypes="ccccccccccccccccccccccccccc"
             transform="translate(0,392.36218)"
             id="path6638"
             d="M 953.41562,411.45192 L 952.96355,409.82446 C 955.76952,408.1012 957.07385,406.0776 958.75004,404.12838 L 981.53437,407.74494 L 982.16727,414.88765 L 979.72609,414.97806 L 979.45485,412.89854 L 978.64112,414.88765 L 975.38622,414.70682 L 975.47663,412.35606 L 973.9396,414.43558 L 971.49842,414.07392 L 971.408,411.81357 L 970.32304,413.98351 L 967.42979,413.62185 L 967.97227,411.27109 L 965.98316,413.53144 L 963.81323,413.35061 L 964.17488,410.09571 L 962.00495,412.71771 L 959.83501,410.90943 L 962.72826,407.11205 L 958.65963,410.81902 L 957.30342,409.73405 L 959.92543,406.47915 L 956.12804,410.18612 C 955.4932,409.71039 954.76439,409.5479 953.41562,411.45192 z"
             style="opacity:1;fill:#fcef3c;fill-opacity:1;fill-rule:nonzero;stroke:#000000;stroke-width:1;stroke-linecap:butt;stroke-linejoin:round;stroke-miterlimit:4;stroke-dasharray:none;stroke-dashoffset:0;stroke-opacity:1" />
          <path
             transform="translate(0,392.36218)"
             id="path6669"
             d="M 946.90581,420.22207 L 952.3917,416.41292"
             style="opacity:1;fill:#fcef3c;fill-opacity:1;fill-rule:nonzero;stroke:#000000;stroke-width:1;stroke-linecap:butt;stroke-linejoin:round;stroke-miterlimit:4;stroke-dasharray:none;stroke-dashoffset:0;stroke-opacity:1" />
          <path
             transform="translate(0,392.36218)"
             id="path6671"
             d="M 950.52237,422.93449 L 953.14236,419.6032"
             style="opacity:1;fill:#fcef3c;fill-opacity:1;fill-rule:nonzero;stroke:#000000;stroke-width:1;stroke-linecap:butt;stroke-linejoin:round;stroke-miterlimit:4;stroke-dasharray:none;stroke-dashoffset:0;stroke-opacity:1" />
          <path
             transform="translate(0,392.36218)"
             id="path6673"
             d="M 954.41017,423.83863 L 957.64628,416.22526"
             style="opacity:1;fill:#fcef3c;fill-opacity:1;fill-rule:nonzero;stroke:#000000;stroke-width:1;stroke-linecap:butt;stroke-linejoin:round;stroke-miterlimit:4;stroke-dasharray:none;stroke-dashoffset:0;stroke-opacity:1" />
          <path
             transform="translate(0,392.36218)"
             id="path6675"
             d="M 966.25441,427.00312 L 966.46646,422.04282"
             style="opacity:1;fill:#fcef3c;fill-opacity:1;fill-rule:nonzero;stroke:#000000;stroke-width:1;stroke-linecap:butt;stroke-linejoin:round;stroke-miterlimit:4;stroke-dasharray:none;stroke-dashoffset:0;stroke-opacity:1" />
          <path
             transform="translate(0,392.36218)"
             id="path6677"
             d="M 962.18578,437.58156 L 962.18578,437.58156 L 963.08852,433.49029"
             style="opacity:1;fill:#fcef3c;fill-opacity:1;fill-rule:nonzero;stroke:#000000;stroke-width:1;stroke-linecap:butt;stroke-linejoin:round;stroke-miterlimit:4;stroke-dasharray:none;stroke-dashoffset:0;stroke-opacity:1" />
          <path
             transform="translate(0,392.36218)"
             id="path6680"
             d="M 956.58011,437.12949 L 956.70392,431.66839"
             style="opacity:1;fill:#fcef3c;fill-opacity:1;fill-rule:nonzero;stroke:#000000;stroke-width:1;stroke-linecap:butt;stroke-linejoin:round;stroke-miterlimit:4;stroke-dasharray:none;stroke-dashoffset:0;stroke-opacity:1" />
          <path
             transform="translate(0,392.36218)"
             id="path6682"
             d="M 953.68686,434.86914 L 953.33002,431.23833"
             style="opacity:1;fill:#fcef3c;fill-opacity:1;fill-rule:nonzero;stroke:#000000;stroke-width:1;stroke-linecap:butt;stroke-linejoin:round;stroke-miterlimit:4;stroke-dasharray:none;stroke-dashoffset:0;stroke-opacity:1" />
          <path
             sodipodi:nodetypes="cc"
             transform="translate(0,392.36218)"
             id="path6684"
             d="M 978.28925,416.97591 C 977.73129,422.49486 978.84814,425.78071 981.29187,427.2974"
             style="opacity:1;fill:#fcef3c;fill-opacity:1;fill-rule:nonzero;stroke:#000000;stroke-width:1;stroke-linecap:butt;stroke-linejoin:round;stroke-miterlimit:4;stroke-dasharray:none;stroke-dashoffset:0;stroke-opacity:1" />
        </g>
        <path
           style="fill:#fcef3c;fill-opacity:1;fill-rule:nonzero;stroke:#000000;stroke-width:1;stroke-linecap:butt;stroke-linejoin:round;stroke-miterlimit:4;stroke-dasharray:none;stroke-dashoffset:0;stroke-opacity:1"
           d="M 474.62849,362.28646 L 475.13995,356.91614 C 472.93817,356.08351 470.85817,354.70288 467.97953,356.91614 C 465.79985,359.12025 464.91274,360.8935 459.79619,364.07657 L 460.30764,370.72553 L 474.62849,362.28646 z"
           id="path6648"
           sodipodi:nodetypes="cccccc" />
        <g
           id="g6686"
           transform="translate(-499.18909,-391.6395)">
          <path
             sodipodi:nodetypes="cccsssssssssc"
             transform="translate(0,392.36218)"
             id="path6640"
             d="M 956.04439,407.97867 C 963.47251,401.20952 969.96886,408.76623 973.93974,409.85446 C 978.35711,409.29074 978.22643,406.99996 982.12879,407.59508 C 982.12879,407.59508 980.3409,399.53835 980.33869,395.95939 C 980.33663,392.623 980.6684,388.53126 981.66317,385.34662 C 982.39389,383.00729 984.03792,379.99706 984.0926,377.54687 C 984.19349,373.02614 983.49078,366.58775 980.46655,363.22602 C 978.2986,360.81613 973.59809,359.15305 970.36523,359.39008 C 966.99126,359.63746 963.75511,363.9 960.51965,364.88826 C 956.41151,366.14308 956.17242,370.35696 955.66079,373.19947 C 954.79165,378.02828 958.44117,384.40412 958.47382,389.31042 C 958.49631,392.69055 958.50174,396.696 956.68371,400.43465 C 955.69043,402.47726 956.04439,407.97867 956.04439,407.97867 z"
             style="opacity:0.98000004;fill:#fcef3c;fill-opacity:1;fill-rule:nonzero;stroke:#000000;stroke-width:1;stroke-linecap:butt;stroke-linejoin:round;stroke-miterlimit:4;stroke-dasharray:none;stroke-dashoffset:0;stroke-opacity:1" />
          <path
             sodipodi:nodetypes="cssssc"
             transform="translate(0,392.36218)"
             id="path6657"
             d="M 963.18884,396.59436 C 963.18884,396.59436 963.1559,391.69382 962.5917,389.69406 C 962.27748,388.58032 960.81808,387.40011 960.86662,386.24391 C 960.90671,385.28891 961.86985,384.21926 962.52535,383.5236 C 963.12364,382.88866 964.36687,382.54446 964.91391,381.86487 C 965.53509,381.09317 966.17454,378.81282 966.17454,378.81282"
             style="opacity:1;fill:none;fill-opacity:1;fill-rule:nonzero;stroke:#000000;stroke-width:1;stroke-linecap:butt;stroke-linejoin:round;stroke-miterlimit:4;stroke-dasharray:none;stroke-dashoffset:0;stroke-opacity:1" />
          <path
             sodipodi:nodetypes="cssssss"
             transform="translate(0,392.36218)"
             id="path6659"
             d="M 958.21266,397.65594 C 958.21266,397.65594 958.42681,399.36801 958.87615,399.91181 C 959.34681,400.48141 960.34183,400.89136 961.06567,401.03974 C 961.61304,401.15195 962.41925,401.14786 962.92344,400.90705 C 963.6605,400.55501 964.13661,399.41826 964.78121,398.91658 C 965.4983,398.35849 966.54661,397.64694 967.43518,397.4569 C 968.39211,397.25224 970.68628,397.72229 970.68628,397.72229"
             style="opacity:1;fill:none;fill-opacity:1;fill-rule:nonzero;stroke:#000000;stroke-width:1;stroke-linecap:butt;stroke-linejoin:round;stroke-miterlimit:4;stroke-dasharray:none;stroke-dashoffset:0;stroke-opacity:1" />
          <path
             sodipodi:nodetypes="csc"
             transform="translate(0,392.36218)"
             id="path6661"
             d="M 956.88568,380.20615 C 956.88568,380.20615 959.52073,380.86718 960.66758,380.80329 C 961.71864,380.74473 964.05138,379.8744 964.05138,379.8744"
             style="opacity:1;fill:none;fill-opacity:1;fill-rule:nonzero;stroke:#000000;stroke-width:1;stroke-linecap:butt;stroke-linejoin:round;stroke-miterlimit:4;stroke-dasharray:none;stroke-dashoffset:0;stroke-opacity:1" />
        </g>
        <g
           id="g6774"
           transform="translate(-506.16846,-1.704928)">
          <g
             transform="translate(100.16846,5.9797323)"
             id="g6762">
            <path
               style="fill:#000000;fill-opacity:1;stroke:none;stroke-width:2;stroke-linecap:butt;stroke-linejoin:round;stroke-miterlimit:4;stroke-dasharray:none;stroke-opacity:1"
               d="M 747.21121,314.06367 L 760.37636,320.12217 L 761.43765,325.40538 L 852.19333,404.37559 L 861.96111,409.6221 L 855.90013,416.25013 C 852.25895,416.91232 853.02738,412.07869 849.3672,408.51888 L 759.74737,327.20225 L 754.86094,325.63583 L 747.21121,314.06367 z"
               id="path5517"
               sodipodi:nodetypes="cccccccccc" />
            <g
               id="g6756"
               transform="translate(150,0)">
              <path
                 id="path5519"
                 d="M 703.52972,407.17643 L 700.06554,407.45858 L 610.19088,325.90224 L 703.52972,407.17643 z"
                 style="fill:#fcef3c;fill-opacity:1;stroke:none;stroke-width:2.5;stroke-linecap:butt;stroke-linejoin:round;stroke-miterlimit:4;stroke-dasharray:none;stroke-opacity:1"
                 sodipodi:nodetypes="cccc" />
              <path
                 sodipodi:nodetypes="ccccc"
                 id="path5521"
                 d="M 708.72646,410.87607 L 765.24753,462.94963 L 763.21809,465.78503 L 706.27245,413.14913 L 708.72646,410.87607 z"
                 style="fill:#fcef3c;fill-opacity:1;stroke:#000000;stroke-width:1.04737496;stroke-linecap:butt;stroke-linejoin:round;stroke-miterlimit:4;stroke-dasharray:none;stroke-opacity:1" />
              <path
                 style="fill:#fcef3c;fill-opacity:1;fill-rule:nonzero;stroke:none;stroke-width:3;stroke-linecap:butt;stroke-linejoin:round;stroke-miterlimit:4;stroke-dasharray:none;stroke-opacity:1"
                 d="M 600.43349,316.73351 L 605.4177,324.21966 L 609.50678,325.47516 L 609.34449,321.01865 L 600.43349,316.73351 z"
                 id="path5523" />
              <path
                 style="fill:#fcef3c;fill-opacity:1;fill-rule:nonzero;stroke:#000000;stroke-width:1.04737496;stroke-linecap:butt;stroke-linejoin:round;stroke-miterlimit:4;stroke-dasharray:none;stroke-opacity:1"
                 d="M 614.02808,327.87328 C 614.02808,327.87328 618.4135,326.6216 620.33688,326.70072 C 622.15865,326.77567 624.38111,328.4129 626.20079,328.29836 C 629.97775,328.06062 634.0936,323.85063 637.86013,323.48227 C 643.01888,322.97775 654.80479,326.85972 654.80479,326.85972 C 651.7308,328.70708 648.15599,325.76713 643.23047,329.24127 C 643.23047,329.24127 653.24946,330.16907 657.44138,331.13039 C 659.98539,331.71381 663.13404,333.39736 665.70346,333.85643 C 668.78665,334.4073 676.13723,334.22078 676.13723,334.22078 C 671.30624,337.68895 663.77536,337.56481 656.17948,337.35423 C 660.79346,341.01861 664.55438,338.70732 668.66348,338.83483 C 655.77317,348.32623 646.18511,335.70264 628.26389,340.55799 L 614.02808,327.87328 z"
                 id="path5545"
                 sodipodi:nodetypes="csssccssccccc" />
            </g>
          </g>
          <g
             transform="matrix(0.9396927,0.3420202,-0.3420202,0.9396927,327.60423,-676.9059)"
             id="g6751">
            <path
               style="opacity:1;fill:#fcef3c;fill-opacity:1;fill-rule:nonzero;stroke:#000000;stroke-width:1;stroke-linecap:butt;stroke-linejoin:round;stroke-miterlimit:4;stroke-dasharray:none;stroke-dashoffset:0;stroke-opacity:1"
               d="M 971.26029,776.04656 L 975.73555,785.63641 C 974.03241,793.49769 972.57345,796.43703 970.55704,800.8523 C 968.08462,805.83674 964.28301,807.49065 961.92616,808.1406 L 961.15898,810.18643 L 957.70663,812.87159 C 957.14609,814.26558 958.56283,814.27546 959.6246,814.53383 C 959.09918,815.97754 958.99837,817.10839 961.67043,816.19607 C 961.2698,817.99419 961.86452,818.7384 964.35559,817.47472 C 965.30948,817.48056 964.45938,819.04986 967.68008,817.09113 L 971.51602,812.99946 L 972.28321,808.65206 L 976.11915,804.30466 C 979.63,801.05651 981.40582,797.23001 982.89598,793.30829 C 984.29057,790.62313 984.20257,786.64719 984.07044,783.96203 C 984.18035,779.68781 984.17764,777.05462 981.74519,771.82702 L 971.26029,776.04656 z"
               id="path6622"
               sodipodi:nodetypes="ccccccccccccccccc" />
            <path
               style="opacity:1;fill:#fcef3c;fill-opacity:1;fill-rule:nonzero;stroke:#000000;stroke-width:1;stroke-linecap:butt;stroke-linejoin:round;stroke-miterlimit:4;stroke-dasharray:none;stroke-dashoffset:0;stroke-opacity:1"
               d="M 968.1276,773.87286 L 971.38815,778.41205 L 975.16016,776.55801 L 974.13724,773.74499 L 975.99128,776.36622 L 978.48464,775.59903 L 977.71746,771.89095 L 979.1879,775.40723 L 981.48946,775.08757 L 981.23373,771.44343 L 982.44845,775.1515 L 984.30249,775.59903 L 981.93699,768.24681 L 973.05039,768.88613 L 968.1276,773.87286 z"
               id="path6624" />
            <path
               style="opacity:1;fill:#fcef3c;fill-opacity:1;fill-rule:nonzero;stroke:#000000;stroke-width:1;stroke-linecap:butt;stroke-linejoin:round;stroke-miterlimit:4;stroke-dasharray:none;stroke-dashoffset:0;stroke-opacity:1"
               d="M 969.59972,774.97203 L 966.79689,775.15286 C 967.29776,774.00875 967.69816,772.82835 967.24896,771.44589 L 963.36116,765.84022 C 959.98651,758.82077 971.43422,751.02132 978.18905,759.42082 C 980.22691,763.57195 982.24674,767.99349 984.51803,768.64305 L 982.89058,770.72257 L 980.81106,770.81299 L 979.54526,769.18554 L 979.63568,770.63216 L 975.74788,770.72257 L 974.48208,769.72802 L 974.48208,771.26506 L 973.21628,772.71168 L 971.86007,770.08967 L 972.49297,773.25417 L 970.50386,774.42955 L 969.4189,770.72257 L 969.59972,774.97203 z"
               id="path6626"
               sodipodi:nodetypes="ccccccccccccccccccc" />
          </g>
        </g>
        <path
           style="opacity:1;fill:none;fill-opacity:1;fill-rule:nonzero;stroke:#000000;stroke-width:1;stroke-linecap:butt;stroke-linejoin:round;stroke-miterlimit:4;stroke-dasharray:none;stroke-dashoffset:0;stroke-opacity:1"
           d="M 459.10201,344.89047 L 460.88846,345.28746"
           id="path6921" />
        <path
           style="opacity:1;fill:none;fill-opacity:1;fill-rule:nonzero;stroke:#000000;stroke-width:1;stroke-linecap:butt;stroke-linejoin:round;stroke-miterlimit:4;stroke-dasharray:none;stroke-dashoffset:0;stroke-opacity:1"
           d="M 459.1862,344.14611 L 458.68996,345.98218"
           id="path6925" />
        <path
           style="opacity:1;fill:none;fill-opacity:1;fill-rule:nonzero;stroke:#000000;stroke-width:1;stroke-linecap:butt;stroke-linejoin:round;stroke-miterlimit:4;stroke-dasharray:none;stroke-dashoffset:0;stroke-opacity:1"
           d="M 457.76916,353.8425 L 459.36443,354.17612"
           id="path6927"
           sodipodi:nodetypes="cc" />
      </g>
    </g>
  </g>
  <g
     inkscape:groupmode="layer"
     id="layer7"
     inkscape:label="Reflet final"
     sodipodi:insensitive="true">
    <use
       transform="translate(300,300)"
       id="use2536"
       xlink:href="#shield"
       style="fill:url(#Gradient1)"
       x="0"
       y="0"
       width="744.09448"
       height="1052.3622" />
  </g>
  <g
     inkscape:groupmode="layer"
     id="layer5"
     inkscape:label="Contour final"
     sodipodi:insensitive="true">
    <use
       transform="translate(300,300)"
       id="use2539"
       style="fill:none;stroke:#000000;stroke-width:3"
       xlink:href="#shield"
       x="0"
       y="0"
       width="744.09448"
       height="1052.3622" />
  </g>
</svg>
