<?xml version="1.0" encoding="UTF-8" standalone="no"?>
<svg
   xmlns:dc="http://purl.org/dc/elements/1.1/"
   xmlns:cc="http://creativecommons.org/ns#"
   xmlns:rdf="http://www.w3.org/1999/02/22-rdf-syntax-ns#"
   xmlns:svg="http://www.w3.org/2000/svg"
   xmlns="http://www.w3.org/2000/svg"
   xmlns:xlink="http://www.w3.org/1999/xlink"
   xmlns:sodipodi="http://sodipodi.sourceforge.net/DTD/sodipodi-0.dtd"
   xmlns:inkscape="http://www.inkscape.org/namespaces/inkscape"
   height="660"
   width="600"
   version="1.0"
   id="svg2"
   sodipodi:version="0.32"
   inkscape:version="0.46"
   sodipodi:docname="Blason de la ville de Sury-aux-Bois (Loiret).svg"
   sodipodi:docbase="E:\DIVERS\Héraldique"
   inkscape:output_extension="org.inkscape.output.svg.inkscape">
  <metadata
     id="metadata49">
    <rdf:RDF>
      <cc:Work
         rdf:about="">
        <dc:format>image/svg+xml</dc:format>
        <dc:type
           rdf:resource="http://purl.org/dc/dcmitype/StillImage" />
        <dc:title>Gabarit d'un blason écartelé en accolade pour le projet Blasons de Wikipédia</dc:title>
        <dc:date>1 XII 2007</dc:date>
        <dc:creator>
          <cc:Agent>
            <dc:title>Zigeuner (http://fr.wikipedia.org/wiki/Utilisateur:Zigeuner)</dc:title>
          </cc:Agent>
        </dc:creator>
        <cc:license
           rdf:resource="http://creativecommons.org/licenses/by-sa/2.5/" />
        <dc:language>fr</dc:language>
        <dc:subject>
          <rdf:Bag>
            <rdf:li>gabarit modèle blason projet wikipédia</rdf:li>
          </rdf:Bag>
        </dc:subject>
        <dc:description>Ecartelé de gueules et d'or</dc:description>
      </cc:Work>
      <cc:License
         rdf:about="http://creativecommons.org/licenses/by-sa/2.5/">
        <cc:permits
           rdf:resource="http://web.resource.org/cc/Reproduction" />
        <cc:permits
           rdf:resource="http://web.resource.org/cc/Distribution" />
        <cc:requires
           rdf:resource="http://web.resource.org/cc/Notice" />
        <cc:requires
           rdf:resource="http://web.resource.org/cc/Attribution" />
        <cc:permits
           rdf:resource="http://web.resource.org/cc/DerivativeWorks" />
        <cc:requires
           rdf:resource="http://web.resource.org/cc/ShareAlike" />
      </cc:License>
    </rdf:RDF>
  </metadata>
  <sodipodi:namedview
     inkscape:window-height="712"
     inkscape:window-width="1024"
     inkscape:pageshadow="2"
     inkscape:pageopacity="0.0"
     guidetolerance="10.0"
     gridtolerance="10.0"
     objecttolerance="10.0"
     borderopacity="1.0"
     bordercolor="#666666"
     pagecolor="#ffffff"
     id="base"
     showgrid="false"
     height="660px"
     inkscape:zoom="0.8"
     inkscape:cx="434.71724"
     inkscape:cy="325.75581"
     inkscape:window-x="0"
     inkscape:window-y="22"
     inkscape:current-layer="layer1" />
  <desc
     id="desc4">Flag of Canton of Valais (Wallis)</desc>
  <defs
     id="defs6">
    <inkscape:perspective
       sodipodi:type="inkscape:persp3d"
       inkscape:vp_x="0 : 330 : 1"
       inkscape:vp_y="0 : 1000 : 0"
       inkscape:vp_z="600 : 330 : 1"
       inkscape:persp3d-origin="300 : 220 : 1"
       id="perspective33" />
    <linearGradient
       id="linearGradient2893">
      <stop
         style="stop-color:white;stop-opacity:0.3137255;"
         offset="0"
         id="stop2895" />
      <stop
         id="stop2897"
         offset="0.19"
         style="stop-color:white;stop-opacity:0.25098041;" />
      <stop
         style="stop-color:#6b6b6b;stop-opacity:0.1254902;"
         offset="0.60000002"
         id="stop2901" />
      <stop
         style="stop-color:black;stop-opacity:0.1254902;"
         offset="1"
         id="stop2899" />
    </linearGradient>
    <radialGradient
       inkscape:collect="always"
       xlink:href="#linearGradient2893"
       id="radialGradient2883"
       cx="203.19754"
       cy="218.01039"
       fx="203.19754"
       fy="218.01039"
       r="300"
       gradientTransform="matrix(1.360018,0,0,1.355087,-79.5275,-87.64524)"
       gradientUnits="userSpaceOnUse" />
    <linearGradient
       id="linearGradient2955">
      <stop
         style="stop-color:white;stop-opacity:0;"
         offset="0"
         id="stop2965" />
      <stop
         style="stop-color:black;stop-opacity:0.64583331;"
         offset="1"
         id="stop2959" />
    </linearGradient>
    <radialGradient
       inkscape:collect="always"
       xlink:href="#linearGradient2955"
       id="radialGradient2961"
       cx="225.52438"
       cy="218.90099"
       fx="225.52438"
       fy="218.90099"
       r="300"
       gradientTransform="matrix(-4.167939e-4,2.182867,-1.884232,-3.599562e-4,615.5972,-289.1214)"
       gradientUnits="userSpaceOnUse" />
    <polygon
       id="star"
       transform="scale(53,53)"
       points="0,-1 0.58778525,0.80901699 -0.95105652,-0.30901699 0.95105652,-0.30901699 -0.58778525,0.80901699 0,-1 " />
    <clipPath
       id="clip">
      <path
         d="M 0,-200 L 0,600 L 300,600 L 300,-200 L 0,-200 z "
         id="path10" />
    </clipPath>
    <radialGradient
       inkscape:collect="always"
       xlink:href="#linearGradient2955"
       id="radialGradient1911"
       gradientUnits="userSpaceOnUse"
       gradientTransform="matrix(-4.167939e-4,2.182867,-1.884232,-3.599562e-4,1395.597,-309.1214)"
       cx="225.52438"
       cy="218.90099"
       fx="225.52438"
       fy="218.90099"
       r="300" />
    <radialGradient
       inkscape:collect="always"
       xlink:href="#linearGradient2955"
       id="radialGradient2928"
       cx="-483.50824"
       cy="153.9283"
       fx="-483.50824"
       fy="153.9283"
       r="300.00003"
       gradientTransform="matrix(0,2.342476,-2.291353,0,562.9126,1323.77)"
       gradientUnits="userSpaceOnUse" />
    <radialGradient
       inkscape:collect="always"
       xlink:href="#linearGradient2893"
       id="radialGradient11919"
       gradientUnits="userSpaceOnUse"
       gradientTransform="matrix(1.551284,0,0,1.350335,-227.8943,-51.2635)"
       cx="285.18573"
       cy="200.44757"
       fx="285.18573"
       fy="200.44757"
       r="300" />
    <radialGradient
       gradientTransform="matrix(1.35322,0,0,1.34893,-77.6293,-85.7469)"
       gradientUnits="userSpaceOnUse"
       xlink:href="#linearGradient2893"
       id="radialGradient3163"
       fy="226.33101"
       fx="221.44487"
       r="300"
       cy="226.33101"
       cx="221.44487" />
    <radialGradient
       gradientTransform="matrix(0,1.38624,-1.32329,-5.74113e-8,-158.082,-109.541)"
       gradientUnits="userSpaceOnUse"
       xlink:href="#linearGradient2955"
       id="radialGradient2871"
       fy="218.90099"
       fx="225.52438"
       r="300"
       cy="218.90099"
       cx="225.52438" />
    <radialGradient
       gradientTransform="matrix(0,1.74872,-1.59316,-1.04977e-7,551.788,-191.29)"
       gradientUnits="userSpaceOnUse"
       xlink:href="#linearGradient2955"
       id="radialGradient2865"
       fy="218.90099"
       fx="225.52438"
       r="300"
       cy="218.90099"
       cx="225.52438" />
    <radialGradient
       gradientTransform="matrix(-4.16794e-4,2.18287,-1.88423,-3.59956e-4,615.597,-289.121)"
       gradientUnits="userSpaceOnUse"
       xlink:href="#linearGradient2955"
       id="radialGradient3598"
       fy="218.90099"
       fx="225.52438"
       r="300"
       cy="218.90099"
       cx="225.52438" />
    <clipPath
       id="clipPath3594">
      <path
         id="path3596"
         d="M 0,-200 L 0,600 L 300,600 L 300,-200 L 0,-200 z" />
    </clipPath>
    <polygon
       id="polygon3592"
       transform="scale(53,53)"
       points="0,-1 0.587785,0.809017 -0.951057,-0.309017 0.951057,-0.309017 -0.587785,0.809017 0,-1 " />
    <radialGradient
       gradientTransform="matrix(-4.16794e-4,2.18287,-1.88423,-3.59956e-4,615.597,-289.121)"
       gradientUnits="userSpaceOnUse"
       xlink:href="#linearGradient2955"
       id="radialGradient3590"
       fy="218.90099"
       fx="225.52438"
       r="300"
       cy="218.90099"
       cx="225.52438" />
    <linearGradient
       id="linearGradient3584">
      <stop
         offset="0"
         style="stop-color:#fd0000;stop-opacity:1"
         id="stop2867" />
      <stop
         offset="0.5"
         style="stop-color:#e77275;stop-opacity:0.65882403"
         id="stop2873" />
      <stop
         offset="1"
         style="stop-color:#000000;stop-opacity:0.32291701"
         id="stop3588" />
    </linearGradient>
    <linearGradient
       id="linearGradient2885">
      <stop
         offset="0"
         style="stop-color:#ffffff;stop-opacity:1"
         id="stop2887" />
      <stop
         offset="0.22857143"
         style="stop-color:#ffffff;stop-opacity:1"
         id="stop2891" />
      <stop
         offset="1"
         style="stop-color:#000000;stop-opacity:1"
         id="stop2889" />
    </linearGradient>
    <linearGradient
       id="linearGradient3570">
      <stop
         offset="0"
         style="stop-color:#ffffff;stop-opacity:0.31372601"
         id="stop3572" />
      <stop
         offset="0.19"
         style="stop-color:#ffffff;stop-opacity:0.25097999"
         id="stop3574" />
      <stop
         offset="0.60000002"
         style="stop-color:#6b6b6b;stop-opacity:0.12548999"
         id="stop3576" />
      <stop
         offset="1"
         style="stop-color:#000000;stop-opacity:0.12548999"
         id="stop3578" />
    </linearGradient>
    <pattern
       patternUnits="userSpaceOnUse"
       width="154.25"
       height="556.49782"
       patternTransform="translate(-171.6728,-201.1015)"
       id="pattern3789">
      <path
         sodipodi:nodetypes="cccccccccccccccccccc"
         style="fill:#2b5df2;fill-opacity:1;fill-rule:evenodd;stroke:#000000;stroke-width:5;stroke-linecap:butt;stroke-linejoin:miter;stroke-miterlimit:4;stroke-dasharray:none;stroke-opacity:1;display:inline"
         d="M 77.0938,2.5 L 77.0938,2.5 z M 2.5,139.0625 L 2.5,139.0625 z M 2.5,139.0625 L 151.75,139.0625 L 114.4688,100.90625 L 114.4688,40.71875 L 77.0938,2.5 L 39.8438,40.71875 L 39.8438,100.90625 L 2.5,139.0625 z M 2.5,139.0625 L 2.5,139.0625 z M 151.75,139.0625 L 151.75,139.0625 z M 151.75,139.0625 L 151.75,139.0625 z M 77.0938,2.5 L 77.0938,2.5 z"
         id="path3011" />
      <path
         sodipodi:nodetypes="cccccccccccccccccccc"
         style="fill:none;fill-opacity:1;fill-rule:evenodd;stroke:none;stroke-width:5;stroke-linecap:butt;stroke-linejoin:miter;stroke-miterlimit:4;stroke-dasharray:none;stroke-opacity:1;display:inline"
         d="M 77.0938,141.96154 L 77.0938,141.96154 z M 2.5,278.52404 L 2.5,278.52404 z M 2.5,278.52404 L 151.75,278.52404 L 114.4688,240.36779 L 114.4688,180.18029 L 77.0938,141.96154 L 39.8438,180.18029 L 39.8438,240.36779 L 2.5,278.52404 z M 2.5,278.52404 L 2.5,278.52404 z M 151.75,278.52404 L 151.75,278.52404 z M 151.75,278.52404 L 151.75,278.52404 z M 77.0938,141.96154 L 77.0938,141.96154 z"
         id="path3783" />
      <path
         sodipodi:nodetypes="cccccccccccccccccccc"
         style="fill:#2b5df2;fill-opacity:1;fill-rule:evenodd;stroke:#000000;stroke-width:5;stroke-linecap:butt;stroke-linejoin:miter;stroke-miterlimit:4;stroke-dasharray:none;stroke-opacity:1;display:inline"
         d="M 77.0938,281.40116 L 77.0938,281.40116 z M 2.5,417.96366 L 2.5,417.96366 z M 2.5,417.96366 L 151.75,417.96366 L 114.4688,379.80741 L 114.4688,319.61991 L 77.0938,281.40116 L 39.8438,319.61991 L 39.8438,379.80741 L 2.5,417.96366 z M 2.5,417.96366 L 2.5,417.96366 z M 151.75,417.96366 L 151.75,417.96366 z M 151.75,417.96366 L 151.75,417.96366 z M 77.0938,281.40116 L 77.0938,281.40116 z"
         id="path3785" />
      <path
         sodipodi:nodetypes="cccccccccccccccccccc"
         style="fill:none;fill-opacity:1;fill-rule:evenodd;stroke:none;stroke-width:5;stroke-linecap:butt;stroke-linejoin:miter;stroke-miterlimit:4;stroke-dasharray:none;stroke-opacity:1;display:inline"
         d="M 77.0938,419.93532 L 77.0938,419.93532 z M 2.5,556.49782 L 2.5,556.49782 z M 2.5,556.49782 L 151.75,556.49782 L 114.4688,518.34157 L 114.4688,458.15407 L 77.0938,419.93532 L 39.8438,458.15407 L 39.8438,518.34157 L 2.5,556.49782 z M 2.5,556.49782 L 2.5,556.49782 z M 151.75,556.49782 L 151.75,556.49782 z M 151.75,556.49782 L 151.75,556.49782 z M 77.0938,419.93532 L 77.0938,419.93532 z"
         id="path3787" />
    </pattern>
    <pattern
       xlink:href="#pattern3789"
       id="pattern4341"
       patternTransform="matrix(0.5115456,0,0,0.5115456,-156.99723,-139.13796)" />
    <pattern
       xlink:href="#pattern4341"
       id="pattern4345"
       patternTransform="matrix(0.5115456,0,0,0.5115456,-118.00237,-209.25459)" />
    <inkscape:perspective
       id="perspective76"
       inkscape:persp3d-origin="300 : 220 : 1"
       inkscape:vp_z="600 : 330 : 1"
       inkscape:vp_y="0 : 1000 : 0"
       inkscape:vp_x="0 : 330 : 1"
       sodipodi:type="inkscape:persp3d" />
    <inkscape:perspective
       id="perspective6493"
       inkscape:persp3d-origin="355.59589 : 306.40403 : 1"
       inkscape:vp_z="711.19177 : 459.60605 : 1"
       inkscape:vp_y="0 : 1000 : 0"
       inkscape:vp_x="0 : 459.60605 : 1"
       sodipodi:type="inkscape:persp3d" />
    <inkscape:perspective
       id="perspective2445"
       inkscape:persp3d-origin="372.04724 : 350.78739 : 1"
       inkscape:vp_z="744.09448 : 526.18109 : 1"
       inkscape:vp_y="0 : 1000 : 0"
       inkscape:vp_x="0 : 526.18109 : 1"
       sodipodi:type="inkscape:persp3d" />
    <radialGradient
       r="300"
       fy="200.44757"
       fx="285.18573"
       cy="200.44757"
       cx="285.18573"
       gradientTransform="matrix(1.551284,0,0,1.350335,-152.89433,151.09881)"
       gradientUnits="userSpaceOnUse"
       id="radialGradient6718"
       xlink:href="#linearGradient2893"
       inkscape:collect="always" />
    <linearGradient
       id="linearGradient6708">
      <stop
         id="stop6710"
         offset="0"
         style="stop-color:white;stop-opacity:0.3137255;" />
      <stop
         style="stop-color:white;stop-opacity:0.25098041;"
         offset="0.19"
         id="stop6712" />
      <stop
         id="stop6714"
         offset="0.60000002"
         style="stop-color:#6b6b6b;stop-opacity:0.1254902;" />
      <stop
         id="stop6716"
         offset="1"
         style="stop-color:black;stop-opacity:0.1254902;" />
    </linearGradient>
    <inkscape:perspective
       id="perspective5181"
       inkscape:persp3d-origin="372.04724 : 350.78739 : 1"
       inkscape:vp_z="744.09448 : 526.18109 : 1"
       inkscape:vp_y="0 : 1000 : 0"
       inkscape:vp_x="0 : 526.18109 : 1"
       sodipodi:type="inkscape:persp3d" />
  </defs>
  <g
     inkscape:groupmode="layer"
     id="layer1"
     inkscape:label="Fond écu">
    <path
       style="fill:#ffffff;fill-opacity:1;fill-rule:nonzero;stroke:#000000;stroke-width:3;stroke-linecap:round;stroke-linejoin:round;stroke-miterlimit:4;stroke-dashoffset:0;stroke-opacity:1"
       d="M 1.5 294.90625 L 1.5 519 C 1.5 557.50399 32.709455 588.75 71.15625 588.75 C 109.60306 588.74997 191.89695 588.75 230.34375 588.75 C 265.27198 588.74997 294.21245 614.53363 299.21875 648.125 L 299.21875 294.90625 L 1.5 294.90625 z "
       id="path2014" />
    <path
       style="fill:#ffffff;fill-opacity:1;fill-rule:nonzero;stroke:#000000;stroke-width:3;stroke-linecap:round;stroke-linejoin:round;stroke-miterlimit:4;stroke-dashoffset:0;stroke-opacity:1;stroke-dasharray:none"
       d="M 299.21875 294.90625 L 299.21875 648.125 C 299.72307 651.5089 300 654.97619 300 658.5 C 299.99999 619.99591 331.20946 588.75 369.65625 588.75 C 408.10304 588.74997 490.39697 588.75 528.84375 588.75 C 567.29057 588.74997 598.5 557.50397 598.5 519 L 598.5 294.90625 L 299.21875 294.90625 z "
       id="path2420" />
    <path
       style="fill:#ffffff;fill-opacity:1;fill-rule:nonzero;stroke:#000000;stroke-width:3;stroke-linecap:round;stroke-linejoin:round;stroke-miterlimit:4;stroke-dashoffset:0;stroke-opacity:1"
       d="M 1.5 1.5 L 1.5 294.90625 L 299.21875 294.90625 L 299.21875 1.5 L 1.5 1.5 z "
       id="path2187" />
    <path
       style="fill:#ffffff;fill-rule:evenodd;stroke:#000000;stroke-width:3;stroke-linecap:butt;stroke-linejoin:miter;stroke-opacity:1"
       d="M 299.21875 1.5 L 299.21875 294.90625 L 598.5 294.90625 L 598.5 1.5 L 299.21875 1.5 z "
       id="path2195" />
    <path
       style="fill:#2b5df2;fill-rule:evenodd;stroke:#000000;stroke-width:3;stroke-linecap:butt;stroke-linejoin:miter;stroke-opacity:1"
       d="M 299.2186,294.9375 L 21.156,567.53125 C 33.8198,580.60973 51.5428,588.75 71.156,588.75 C 109.6029,588.74997 191.8967,588.75 230.3436,588.75 C 265.2718,588.74997 294.2121,614.53363 299.2186,648.125 L 299.2186,294.9375 z"
       id="path6360" />
    <path
       style="fill:#2b5df2;fill-opacity:1;fill-rule:nonzero;stroke:#000000;stroke-width:3;stroke-linecap:round;stroke-linejoin:round;stroke-miterlimit:4;stroke-dashoffset:0;stroke-opacity:1"
       d="M 299.219,294.90625 L 577.344,569.03125 C 590.384,556.35354 598.5002,538.62399 598.5002,519 L 598.5002,294.90625 L 299.219,294.90625 z"
       id="path6362" />
    <path
       id="path6368"
       d="M 299.21875,1.5 L 299.21875,294.90625 L 598.5,1.5 L 299.21875,1.5 z"
       style="fill:#2b5df2;fill-rule:evenodd;stroke:#000000;stroke-width:3;stroke-linecap:butt;stroke-linejoin:miter;stroke-opacity:1"
       sodipodi:nodetypes="cccc" />
    <path
       id="path6370"
       d="M 1.5,1.5 L 1.5,294.90625 L 299.21875,294.90625 L 1.5,1.5 z"
       style="fill:#2b5df2;fill-opacity:1;fill-rule:nonzero;stroke:#000000;stroke-width:3;stroke-linecap:round;stroke-linejoin:round;stroke-miterlimit:4;stroke-dashoffset:0;stroke-opacity:1"
       sodipodi:nodetypes="cccc" />
    <g
       id="g6919"
       inkscape:label="Calque 1"
       transform="translate(-82.262438,-231.37053)">
      <g
         transform="translate(59.505023,118.99771)"
         inkscape:label="Calque 1"
         id="g4703"
         style="display:inline">
        <g
           id="g3588"
           inkscape:label="Calque 1"
           transform="translate(-22.142848,-157.14286)" />
      </g>
    </g>
  </g>
  <g
     inkscape:groupmode="layer"
     id="layer2"
     inkscape:label="Meubles">
    <g
       transform="matrix(0.1576678,0,0,0.1576678,330.37587,29.623179)"
       id="g1878"
       style="fill:#ffffff;stroke:#000000;stroke-width:12.68489838;stroke-opacity:1">
      <path
         d="M 407.02914,608.69929 C 408.45371,546.74328 423.7803,489.15982 452.31871,434.59069 C 527.03313,277.40489 755.23905,281.15895 704.93393,473.402 C 686.39707,544.24137 623.42532,585.87586 548.61507,593.01701 C 554.01466,574.35164 583.71536,508.36456 559.73954,495.45545 C 521.40138,496.90385 473.7952,563.16055 462.34672,594.75617 C 460.69402,599.29227 461.15631,604.53418 459.31088,608.99624"
         style="opacity:1;fill:#ffffff;fill-opacity:1;fill-rule:evenodd;stroke:#000000;stroke-width:12.68489838;stroke-linecap:butt;stroke-linejoin:miter;stroke-miterlimit:4;stroke-dasharray:none;stroke-opacity:1;display:inline"
         id="path1876"
         sodipodi:nodetypes="ccscscc" />
      <g
         transform="translate(-38.53215,-48.5769)"
         style="opacity:1;fill:#ffffff;stroke:#000000;stroke-width:12.68489838;stroke-opacity:1;display:inline"
         id="g6498">
        <g
           transform="translate(0,4)"
           style="fill:#ffffff;fill-opacity:1;stroke:#000000;stroke-width:12.68489838;stroke-miterlimit:4;stroke-dasharray:none;stroke-opacity:1"
           id="g13018">
          <path
             d="M 350.52292,657.37224 C 349.09835,595.41623 333.77176,537.83277 305.23335,483.26364 C 230.51893,326.07784 2.3130139,329.8319 52.618133,522.07495 C 71.154997,592.91432 134.12674,634.54881 208.93699,641.68996 C 203.5374,623.02459 173.8367,557.03751 197.81252,544.1284 C 236.15068,545.5768 283.75686,611.8335 295.20534,643.42912 C 296.85804,647.96522 296.39575,653.20713 298.24118,657.66919"
             style="fill:#ffffff;fill-opacity:1;fill-rule:evenodd;stroke:#000000;stroke-width:12.68489838;stroke-linecap:butt;stroke-linejoin:miter;stroke-miterlimit:4;stroke-dasharray:none;stroke-opacity:1"
             id="path1902"
             sodipodi:nodetypes="ccscscc" />
          <path
             d="M 393.6259,57.12017 C 314.9116,141.96961 262.06129,240.08175 284.84465,355.15142 C 297.41422,418.63533 327.88647,477.43115 349.3759,538.58892 C 362.81238,576.95877 366.24813,617.04065 364.65715,657.37017 L 431.4384,657.37017 C 428.24189,616.744 435.24511,577.37193 446.71965,538.58892 C 467.19384,477.05062 498.34544,418.68339 511.2509,355.15142 C 535.37892,236.37223 478.74399,146.7919 402.8134,57.49517 L 398.17297,51.576902 L 393.6259,57.12017 z"
             style="fill:#ffffff;fill-opacity:1;fill-rule:nonzero;stroke:#000000;stroke-width:12.68489838;stroke-linecap:butt;stroke-linejoin:miter;stroke-miterlimit:4;stroke-dasharray:none;stroke-opacity:1"
             id="path3734"
             sodipodi:nodetypes="csccccsccc" />
          <path
             d="M 331.34465,704.40142 C 317.38299,743.53144 260.45647,815.19349 230.21965,835.62017 C 222.37748,840.91802 267.70602,832.5686 288.0009,828.12017 C 314.61991,822.28553 349.21835,793.92258 348.40715,803.93267 C 348.33151,849.77093 361.21819,926.25691 394.8134,961.40142 L 397.99548,964.78902 L 401.28215,961.40142 C 434.85984,922.23047 447.51976,853.35944 447.6884,803.93267 C 446.8772,793.92258 481.47565,822.28553 508.09465,828.12017 C 528.38953,832.5686 573.71807,840.91802 565.8759,835.62017 C 535.63908,815.19349 478.74383,743.53144 464.78215,704.40142 L 331.34465,704.40142 z"
             style="fill:#ffffff;fill-opacity:1;fill-rule:evenodd;stroke:#000000;stroke-width:12.68489838;stroke-linecap:butt;stroke-linejoin:miter;stroke-miterlimit:4;stroke-dasharray:none;stroke-opacity:1"
             id="path6395"
             sodipodi:nodetypes="cssscccssscc" />
          <rect
             width="317.88773"
             height="51.503345"
             x="239.3521"
             y="655.37946"
             style="fill:#ffffff;fill-opacity:1;stroke:#000000;stroke-width:12.68489838;stroke-miterlimit:4;stroke-dasharray:none;stroke-opacity:1"
             id="rect4623" />
        </g>
      </g>
    </g>
    <g
       style="fill:#ffffff;stroke:#000000;stroke-width:12.68489838;stroke-opacity:1"
       id="g6733"
       transform="matrix(0.1576678,0,0,0.1576678,33.175872,120.92318)">
      <path
         sodipodi:nodetypes="ccscscc"
         id="path6735"
         style="opacity:1;fill:#ffffff;fill-opacity:1;fill-rule:evenodd;stroke:#000000;stroke-width:12.68489838;stroke-linecap:butt;stroke-linejoin:miter;stroke-miterlimit:4;stroke-dasharray:none;stroke-opacity:1;display:inline"
         d="M 407.02914,608.69929 C 408.45371,546.74328 423.7803,489.15982 452.31871,434.59069 C 527.03313,277.40489 755.23905,281.15895 704.93393,473.402 C 686.39707,544.24137 623.42532,585.87586 548.61507,593.01701 C 554.01466,574.35164 583.71536,508.36456 559.73954,495.45545 C 521.40138,496.90385 473.7952,563.16055 462.34672,594.75617 C 460.69402,599.29227 461.15631,604.53418 459.31088,608.99624" />
      <g
         id="g6737"
         style="opacity:1;fill:#ffffff;stroke:#000000;stroke-width:12.68489838;stroke-opacity:1;display:inline"
         transform="translate(-38.53215,-48.5769)">
        <g
           id="g6739"
           style="fill:#ffffff;fill-opacity:1;stroke:#000000;stroke-width:12.68489838;stroke-miterlimit:4;stroke-dasharray:none;stroke-opacity:1"
           transform="translate(0,4)">
          <path
             sodipodi:nodetypes="ccscscc"
             id="path6741"
             style="fill:#ffffff;fill-opacity:1;fill-rule:evenodd;stroke:#000000;stroke-width:12.68489838;stroke-linecap:butt;stroke-linejoin:miter;stroke-miterlimit:4;stroke-dasharray:none;stroke-opacity:1"
             d="M 350.52292,657.37224 C 349.09835,595.41623 333.77176,537.83277 305.23335,483.26364 C 230.51893,326.07784 2.3130139,329.8319 52.618133,522.07495 C 71.154997,592.91432 134.12674,634.54881 208.93699,641.68996 C 203.5374,623.02459 173.8367,557.03751 197.81252,544.1284 C 236.15068,545.5768 283.75686,611.8335 295.20534,643.42912 C 296.85804,647.96522 296.39575,653.20713 298.24118,657.66919" />
          <path
             sodipodi:nodetypes="csccccsccc"
             id="path6743"
             style="fill:#ffffff;fill-opacity:1;fill-rule:nonzero;stroke:#000000;stroke-width:12.68489838;stroke-linecap:butt;stroke-linejoin:miter;stroke-miterlimit:4;stroke-dasharray:none;stroke-opacity:1"
             d="M 393.6259,57.12017 C 314.9116,141.96961 262.06129,240.08175 284.84465,355.15142 C 297.41422,418.63533 327.88647,477.43115 349.3759,538.58892 C 362.81238,576.95877 366.24813,617.04065 364.65715,657.37017 L 431.4384,657.37017 C 428.24189,616.744 435.24511,577.37193 446.71965,538.58892 C 467.19384,477.05062 498.34544,418.68339 511.2509,355.15142 C 535.37892,236.37223 478.74399,146.7919 402.8134,57.49517 L 398.17297,51.576902 L 393.6259,57.12017 z" />
          <path
             sodipodi:nodetypes="cssscccssscc"
             id="path6745"
             style="fill:#ffffff;fill-opacity:1;fill-rule:evenodd;stroke:#000000;stroke-width:12.68489838;stroke-linecap:butt;stroke-linejoin:miter;stroke-miterlimit:4;stroke-dasharray:none;stroke-opacity:1"
             d="M 331.34465,704.40142 C 317.38299,743.53144 260.45647,815.19349 230.21965,835.62017 C 222.37748,840.91802 267.70602,832.5686 288.0009,828.12017 C 314.61991,822.28553 349.21835,793.92258 348.40715,803.93267 C 348.33151,849.77093 361.21819,926.25691 394.8134,961.40142 L 397.99548,964.78902 L 401.28215,961.40142 C 434.85984,922.23047 447.51976,853.35944 447.6884,803.93267 C 446.8772,793.92258 481.47565,822.28553 508.09465,828.12017 C 528.38953,832.5686 573.71807,840.91802 565.8759,835.62017 C 535.63908,815.19349 478.74383,743.53144 464.78215,704.40142 L 331.34465,704.40142 z" />
          <rect
             id="rect6747"
             style="fill:#ffffff;fill-opacity:1;stroke:#000000;stroke-width:12.68489838;stroke-miterlimit:4;stroke-dasharray:none;stroke-opacity:1"
             y="655.37946"
             x="239.3521"
             height="51.503345"
             width="317.88773" />
        </g>
      </g>
    </g>
    <g
       transform="matrix(0.1576678,0,0,0.1576678,154.87587,414.22318)"
       id="g6749"
       style="fill:#ffffff;stroke:#000000;stroke-width:12.68489838;stroke-opacity:1">
      <path
         d="M 407.02914,608.69929 C 408.45371,546.74328 423.7803,489.15982 452.31871,434.59069 C 527.03313,277.40489 755.23905,281.15895 704.93393,473.402 C 686.39707,544.24137 623.42532,585.87586 548.61507,593.01701 C 554.01466,574.35164 583.71536,508.36456 559.73954,495.45545 C 521.40138,496.90385 473.7952,563.16055 462.34672,594.75617 C 460.69402,599.29227 461.15631,604.53418 459.31088,608.99624"
         style="opacity:1;fill:#ffffff;fill-opacity:1;fill-rule:evenodd;stroke:#000000;stroke-width:12.68489838;stroke-linecap:butt;stroke-linejoin:miter;stroke-miterlimit:4;stroke-dasharray:none;stroke-opacity:1;display:inline"
         id="path6751"
         sodipodi:nodetypes="ccscscc" />
      <g
         transform="translate(-38.53215,-48.5769)"
         style="opacity:1;fill:#ffffff;stroke:#000000;stroke-width:12.68489838;stroke-opacity:1;display:inline"
         id="g6753">
        <g
           transform="translate(0,4)"
           style="fill:#ffffff;fill-opacity:1;stroke:#000000;stroke-width:12.68489838;stroke-miterlimit:4;stroke-dasharray:none;stroke-opacity:1"
           id="g6755">
          <path
             d="M 350.52292,657.37224 C 349.09835,595.41623 333.77176,537.83277 305.23335,483.26364 C 230.51893,326.07784 2.3130139,329.8319 52.618133,522.07495 C 71.154997,592.91432 134.12674,634.54881 208.93699,641.68996 C 203.5374,623.02459 173.8367,557.03751 197.81252,544.1284 C 236.15068,545.5768 283.75686,611.8335 295.20534,643.42912 C 296.85804,647.96522 296.39575,653.20713 298.24118,657.66919"
             style="fill:#ffffff;fill-opacity:1;fill-rule:evenodd;stroke:#000000;stroke-width:12.68489838;stroke-linecap:butt;stroke-linejoin:miter;stroke-miterlimit:4;stroke-dasharray:none;stroke-opacity:1"
             id="path6757"
             sodipodi:nodetypes="ccscscc" />
          <path
             d="M 393.6259,57.12017 C 314.9116,141.96961 262.06129,240.08175 284.84465,355.15142 C 297.41422,418.63533 327.88647,477.43115 349.3759,538.58892 C 362.81238,576.95877 366.24813,617.04065 364.65715,657.37017 L 431.4384,657.37017 C 428.24189,616.744 435.24511,577.37193 446.71965,538.58892 C 467.19384,477.05062 498.34544,418.68339 511.2509,355.15142 C 535.37892,236.37223 478.74399,146.7919 402.8134,57.49517 L 398.17297,51.576902 L 393.6259,57.12017 z"
             style="fill:#ffffff;fill-opacity:1;fill-rule:nonzero;stroke:#000000;stroke-width:12.68489838;stroke-linecap:butt;stroke-linejoin:miter;stroke-miterlimit:4;stroke-dasharray:none;stroke-opacity:1"
             id="path6759"
             sodipodi:nodetypes="csccccsccc" />
          <path
             d="M 331.34465,704.40142 C 317.38299,743.53144 260.45647,815.19349 230.21965,835.62017 C 222.37748,840.91802 267.70602,832.5686 288.0009,828.12017 C 314.61991,822.28553 349.21835,793.92258 348.40715,803.93267 C 348.33151,849.77093 361.21819,926.25691 394.8134,961.40142 L 397.99548,964.78902 L 401.28215,961.40142 C 434.85984,922.23047 447.51976,853.35944 447.6884,803.93267 C 446.8772,793.92258 481.47565,822.28553 508.09465,828.12017 C 528.38953,832.5686 573.71807,840.91802 565.8759,835.62017 C 535.63908,815.19349 478.74383,743.53144 464.78215,704.40142 L 331.34465,704.40142 z"
             style="fill:#ffffff;fill-opacity:1;fill-rule:evenodd;stroke:#000000;stroke-width:12.68489838;stroke-linecap:butt;stroke-linejoin:miter;stroke-miterlimit:4;stroke-dasharray:none;stroke-opacity:1"
             id="path6761"
             sodipodi:nodetypes="cssscccssscc" />
          <rect
             width="317.88773"
             height="51.503345"
             x="239.3521"
             y="655.37946"
             style="fill:#ffffff;fill-opacity:1;stroke:#000000;stroke-width:12.68489838;stroke-miterlimit:4;stroke-dasharray:none;stroke-opacity:1"
             id="rect6763" />
        </g>
      </g>
    </g>
    <g
       style="fill:#ffffff;stroke:#000000;stroke-width:12.68489838;stroke-opacity:1"
       id="g6765"
       transform="matrix(0.1576678,0,0,0.1576678,453.37587,322.50218)">
      <path
         sodipodi:nodetypes="ccscscc"
         id="path6767"
         style="opacity:1;fill:#ffffff;fill-opacity:1;fill-rule:evenodd;stroke:#000000;stroke-width:12.68489838;stroke-linecap:butt;stroke-linejoin:miter;stroke-miterlimit:4;stroke-dasharray:none;stroke-opacity:1;display:inline"
         d="M 407.02914,608.69929 C 408.45371,546.74328 423.7803,489.15982 452.31871,434.59069 C 527.03313,277.40489 755.23905,281.15895 704.93393,473.402 C 686.39707,544.24137 623.42532,585.87586 548.61507,593.01701 C 554.01466,574.35164 583.71536,508.36456 559.73954,495.45545 C 521.40138,496.90385 473.7952,563.16055 462.34672,594.75617 C 460.69402,599.29227 461.15631,604.53418 459.31088,608.99624" />
      <g
         id="g6769"
         style="opacity:1;fill:#ffffff;stroke:#000000;stroke-width:12.68489838;stroke-opacity:1;display:inline"
         transform="translate(-38.53215,-48.5769)">
        <g
           id="g6771"
           style="fill:#ffffff;fill-opacity:1;stroke:#000000;stroke-width:12.68489838;stroke-miterlimit:4;stroke-dasharray:none;stroke-opacity:1"
           transform="translate(0,4)">
          <path
             sodipodi:nodetypes="ccscscc"
             id="path6773"
             style="fill:#ffffff;fill-opacity:1;fill-rule:evenodd;stroke:#000000;stroke-width:12.68489838;stroke-linecap:butt;stroke-linejoin:miter;stroke-miterlimit:4;stroke-dasharray:none;stroke-opacity:1"
             d="M 350.52292,657.37224 C 349.09835,595.41623 333.77176,537.83277 305.23335,483.26364 C 230.51893,326.07784 2.3130139,329.8319 52.618133,522.07495 C 71.154997,592.91432 134.12674,634.54881 208.93699,641.68996 C 203.5374,623.02459 173.8367,557.03751 197.81252,544.1284 C 236.15068,545.5768 283.75686,611.8335 295.20534,643.42912 C 296.85804,647.96522 296.39575,653.20713 298.24118,657.66919" />
          <path
             sodipodi:nodetypes="csccccsccc"
             id="path6775"
             style="fill:#ffffff;fill-opacity:1;fill-rule:nonzero;stroke:#000000;stroke-width:12.68489838;stroke-linecap:butt;stroke-linejoin:miter;stroke-miterlimit:4;stroke-dasharray:none;stroke-opacity:1"
             d="M 393.6259,57.12017 C 314.9116,141.96961 262.06129,240.08175 284.84465,355.15142 C 297.41422,418.63533 327.88647,477.43115 349.3759,538.58892 C 362.81238,576.95877 366.24813,617.04065 364.65715,657.37017 L 431.4384,657.37017 C 428.24189,616.744 435.24511,577.37193 446.71965,538.58892 C 467.19384,477.05062 498.34544,418.68339 511.2509,355.15142 C 535.37892,236.37223 478.74399,146.7919 402.8134,57.49517 L 398.17297,51.576902 L 393.6259,57.12017 z" />
          <path
             sodipodi:nodetypes="cssscccssscc"
             id="path6777"
             style="fill:#ffffff;fill-opacity:1;fill-rule:evenodd;stroke:#000000;stroke-width:12.68489838;stroke-linecap:butt;stroke-linejoin:miter;stroke-miterlimit:4;stroke-dasharray:none;stroke-opacity:1"
             d="M 331.34465,704.40142 C 317.38299,743.53144 260.45647,815.19349 230.21965,835.62017 C 222.37748,840.91802 267.70602,832.5686 288.0009,828.12017 C 314.61991,822.28553 349.21835,793.92258 348.40715,803.93267 C 348.33151,849.77093 361.21819,926.25691 394.8134,961.40142 L 397.99548,964.78902 L 401.28215,961.40142 C 434.85984,922.23047 447.51976,853.35944 447.6884,803.93267 C 446.8772,793.92258 481.47565,822.28553 508.09465,828.12017 C 528.38953,832.5686 573.71807,840.91802 565.8759,835.62017 C 535.63908,815.19349 478.74383,743.53144 464.78215,704.40142 L 331.34465,704.40142 z" />
          <rect
             id="rect6779"
             style="fill:#ffffff;fill-opacity:1;stroke:#000000;stroke-width:12.68489838;stroke-miterlimit:4;stroke-dasharray:none;stroke-opacity:1"
             y="655.37946"
             x="239.3521"
             height="51.503345"
             width="317.88773" />
        </g>
      </g>
    </g>
  </g>
  <g
     inkscape:groupmode="layer"
     id="layer3"
     inkscape:label="Reflet final"
     sodipodi:insensitive="true">
    <path
       id="path2875"
       style="fill:url(#radialGradient11919);fill-opacity:1;fill-rule:evenodd;stroke:none;stroke-width:3.00000024;stroke-linecap:butt;stroke-linejoin:miter;stroke-miterlimit:4;stroke-dasharray:none;stroke-opacity:1"
       d="M 1.5,1.49974 L 1.5,518.99107 C 1.5,557.49556 32.7031,588.7456 71.15,588.7456 C 109.5968,588.7456 191.9032,588.7456 230.35,588.7456 C 268.79691,588.7455 300.00003,619.99554 300.00003,658.5 C 300.00003,619.99554 331.20317,588.7456 369.64997,588.7456 C 408.09687,588.7455 490.40327,588.7456 528.85007,588.7456 C 567.29687,588.7456 598.50007,557.49556 598.50007,518.99107 L 598.50007,1.49974 L 1.5,1.49974 z " />
  </g>
  <g
     inkscape:groupmode="layer"
     id="layer4"
     inkscape:label="Contour final"
     sodipodi:insensitive="true">
    <path
       id="path1572"
       style="fill:none;fill-opacity:1;fill-rule:nonzero;stroke:black;stroke-width:3.00000191;stroke-linecap:round;stroke-linejoin:round;stroke-miterlimit:4;stroke-dasharray:none;stroke-dashoffset:0;stroke-opacity:1"
       d="M 300.00003,658.5 C 300.00003,619.9959 331.20322,588.74628 369.65003,588.74628 C 408.09684,588.74628 490.40321,588.74628 528.85001,588.74628 C 567.29681,588.74628 598.50011,557.49666 598.50011,518.99266 L 598.50011,1.4996809 L 1.5000099,1.4997008 L 1.5,518.99266 C 1.5,557.49666 32.70321,588.74628 71.150019,588.74628 C 109.59684,588.74628 191.90322,588.74628 230.35003,588.74628 C 268.79684,588.74628 300.00003,619.9959 300.00003,658.5 z "
       sodipodi:nodetypes="cssccccssc" />
  </g>
</svg>
