<?xml version="1.0" encoding="UTF-8" standalone="no"?>
<svg
   xmlns:dc="http://purl.org/dc/elements/1.1/"
   xmlns:cc="http://web.resource.org/cc/"
   xmlns:rdf="http://www.w3.org/1999/02/22-rdf-syntax-ns#"
   xmlns:svg="http://www.w3.org/2000/svg"
   xmlns="http://www.w3.org/2000/svg"
   xmlns:xlink="http://www.w3.org/1999/xlink"
   xmlns:sodipodi="http://sodipodi.sourceforge.net/DTD/sodipodi-0.dtd"
   xmlns:inkscape="http://www.inkscape.org/namespaces/inkscape"
   height="660"
   width="600"
   version="1.0"
   id="svg2"
   sodipodi:version="0.32"
   inkscape:version="0.44"
   sodipodi:docname="Blason_ville_fr_Montrésor_(Indre-et-Loire).svg"
   sodipodi:docbase="C:\Documents and Settings\Bruno Vallette\Mes documents\Perso\Wikipédia Blasons\Communes BVA"
   inkscape:export-filename="/Users/olivier/Desktop/Blason Rouge/Blason_Vide_3D.png"
   inkscape:export-xdpi="144"
   inkscape:export-ydpi="144">
  <metadata
     id="metadata49">
    <rdf:RDF>
      <cc:Work
         rdf:about="">
        <dc:format>image/svg+xml</dc:format>
        <dc:type
           rdf:resource="http://purl.org/dc/dcmitype/StillImage" />
        <dc:title>Gabarit d'un blason en pointe pour le projet Blasons de Wikipédia</dc:title>
        <dc:date>03-AUG-2006</dc:date>
        <dc:creator>
          <cc:Agent>
            <dc:title>Jérôme BLUM (wagner51)</dc:title>
          </cc:Agent>
        </dc:creator>
        <cc:license
           rdf:resource="http://web.resource.org/cc/PublicDomain" />
        <dc:language>fr</dc:language>
        <dc:subject>
          <rdf:Bag>
            <rdf:li>gabarit modèle blason projet wikipédia</rdf:li>
          </rdf:Bag>
        </dc:subject>
      </cc:Work>
      <cc:License
         rdf:about="http://web.resource.org/cc/PublicDomain">
        <cc:permits
           rdf:resource="http://web.resource.org/cc/Reproduction" />
        <cc:permits
           rdf:resource="http://web.resource.org/cc/Distribution" />
        <cc:permits
           rdf:resource="http://web.resource.org/cc/DerivativeWorks" />
      </cc:License>
    </rdf:RDF>
  </metadata>
  <sodipodi:namedview
     inkscape:window-height="719"
     inkscape:window-width="1024"
     inkscape:pageshadow="2"
     inkscape:pageopacity="0.0"
     guidetolerance="10.0"
     gridtolerance="10.0"
     objecttolerance="10.0"
     borderopacity="1.0"
     bordercolor="#666666"
     pagecolor="#ffffff"
     id="base"
     showgrid="false"
     height="660px"
     inkscape:zoom="0.70399969"
     inkscape:cx="299.99999"
     inkscape:cy="318.86516"
     inkscape:window-x="-4"
     inkscape:window-y="-4"
     inkscape:current-layer="layer3" />
  <desc
     id="desc4">Flag of Canton of Valais (Wallis)</desc>
  <defs
     id="defs6">
    <linearGradient
       id="linearGradient2893">
      <stop
         style="stop-color:white;stop-opacity:0.3137255;"
         offset="0"
         id="stop2895" />
      <stop
         id="stop2897"
         offset="0.19"
         style="stop-color:white;stop-opacity:0.25098041;" />
      <stop
         style="stop-color:#6b6b6b;stop-opacity:0.1254902;"
         offset="0.60000002"
         id="stop2901" />
      <stop
         style="stop-color:black;stop-opacity:0.1254902;"
         offset="1"
         id="stop2899" />
    </linearGradient>
    <linearGradient
       id="linearGradient2885">
      <stop
         id="stop2887"
         offset="0"
         style="stop-color:white;stop-opacity:1;" />
      <stop
         style="stop-color:white;stop-opacity:1;"
         offset="0.22857143"
         id="stop2891" />
      <stop
         id="stop2889"
         offset="1"
         style="stop-color:black;stop-opacity:1;" />
    </linearGradient>
    <linearGradient
       id="linearGradient2955">
      <stop
         id="stop2867"
         offset="0"
         style="stop-color:#fd0000;stop-opacity:1;" />
      <stop
         style="stop-color:#e77275;stop-opacity:0.65882355;"
         offset="0.5"
         id="stop2873" />
      <stop
         style="stop-color:black;stop-opacity:0.32291666;"
         offset="1"
         id="stop2959" />
    </linearGradient>
    <radialGradient
       inkscape:collect="always"
       xlink:href="#linearGradient2955"
       id="radialGradient2961"
       cx="225.52438"
       cy="218.90099"
       fx="225.52438"
       fy="218.90099"
       r="300"
       gradientTransform="matrix(-4.167939e-4,2.182867,-1.884232,-3.599562e-4,615.5972,-289.1214)"
       gradientUnits="userSpaceOnUse" />
    <polygon
       id="star"
       transform="scale(53,53)"
       points="0,-1 0.58778525,0.80901699 -0.95105652,-0.30901699 0.95105652,-0.30901699 -0.58778525,0.80901699 0,-1 " />
    <clipPath
       id="clip">
      <path
         d="M 0,-200 L 0,600 L 300,600 L 300,-200 L 0,-200 z "
         id="path10" />
    </clipPath>
    <radialGradient
       inkscape:collect="always"
       xlink:href="#linearGradient2955"
       id="radialGradient1911"
       gradientUnits="userSpaceOnUse"
       gradientTransform="matrix(-4.167939e-4,2.182867,-1.884232,-3.599562e-4,615.5972,-289.1214)"
       cx="225.52438"
       cy="218.90099"
       fx="225.52438"
       fy="218.90099"
       r="300" />
    <radialGradient
       inkscape:collect="always"
       xlink:href="#linearGradient2955"
       id="radialGradient2865"
       gradientUnits="userSpaceOnUse"
       gradientTransform="matrix(0,1.748721,-1.593162,-1.049767e-7,551.7876,-191.2898)"
       cx="225.52438"
       cy="218.90099"
       fx="225.52438"
       fy="218.90099"
       r="300" />
    <radialGradient
       inkscape:collect="always"
       xlink:href="#linearGradient2955"
       id="radialGradient2871"
       gradientUnits="userSpaceOnUse"
       gradientTransform="matrix(0,1.386237,-1.323286,-5.741131e-8,-158.0823,-109.5408)"
       cx="225.52438"
       cy="218.90099"
       fx="225.52438"
       fy="218.90099"
       r="300" />
    <radialGradient
       inkscape:collect="always"
       xlink:href="#linearGradient2893"
       id="radialGradient3163"
       gradientUnits="userSpaceOnUse"
       gradientTransform="matrix(1.353218,0,0,1.348928,-77.62935,-85.74693)"
       cx="221.44487"
       cy="226.33101"
       fx="221.44487"
       fy="226.33101"
       r="300" />
  </defs>
  <g
     inkscape:groupmode="layer"
     id="layer3"
     inkscape:label="Fond écu"
     style="display:inline">
    <path
       id="path2855"
       style="fill:#2b5df2;fill-opacity:1;fill-rule:evenodd;stroke:black;stroke-width:3;stroke-linecap:butt;stroke-linejoin:miter;stroke-miterlimit:4;stroke-dasharray:none;stroke-opacity:1"
       d="M 300,658.5 C 300,658.5 598.50001,546.17969 598.50001,260.72817 C 598.50001,-24.723354 598.50001,2.1764765 598.50001,2.1764765 L 1.5,2.1764765 L 1.5,260.72817 C 1.5,546.17969 300,658.5 300,658.5 z "
       sodipodi:nodetypes="cccccc" />
    <path
       style="color:black;fill:#fcef3c;fill-opacity:1;fill-rule:nonzero;stroke:black;stroke-width:2.94109464;stroke-linecap:butt;stroke-linejoin:miter;marker:none;marker-start:none;marker-mid:none;marker-end:none;stroke-miterlimit:4;stroke-dasharray:none;stroke-dashoffset:0;stroke-opacity:1;visibility:visible;display:inline;overflow:visible"
       d="M 38.9375,2.1875 C 38.909119,2.7760516 38.875,3.3732178 38.875,3.96875 C 38.875,24.027609 55.159891,40.312501 75.21875,40.3125 C 95.277609,40.3125 111.5625,24.027609 111.5625,3.96875 C 111.5625,3.3732178 111.52838,2.7760516 111.5,2.1875 L 38.9375,2.1875 z M 188.8125,2.1875 C 188.78417,2.7760516 188.75,3.3732178 188.75,3.96875 C 188.75,24.027609 205.00364,40.312501 225.0625,40.3125 C 245.12136,40.3125 261.40626,24.027609 261.40625,3.96875 C 261.40625,3.3732178 261.37213,2.7760516 261.34375,2.1875 L 188.8125,2.1875 z M 338.65625,2.1875 C 338.62787,2.7760516 338.59375,3.3732178 338.59375,3.96875 C 338.59375,24.027609 354.87863,40.312501 374.9375,40.3125 C 394.99636,40.3125 411.25,24.027609 411.25,3.96875 C 411.25,3.3732178 411.21583,2.7760516 411.1875,2.1875 L 338.65625,2.1875 z M 488.5,2.1875 C 488.47162,2.7760516 488.4375,3.3732178 488.4375,3.96875 C 488.4375,24.027609 504.72237,40.312501 524.78125,40.3125 C 544.84011,40.3125 561.12499,24.027609 561.125,3.96875 C 561.125,3.3732178 561.09088,2.7760516 561.0625,2.1875 L 488.5,2.1875 z M 150.15625,42.5625 C 130.09739,42.5625 113.8125,58.84739 113.8125,78.90625 C 113.8125,98.965109 130.09739,115.25 150.15625,115.25 C 170.21511,115.25 186.49999,98.965109 186.5,78.90625 C 186.5,58.847391 170.21511,42.562499 150.15625,42.5625 z M 300,42.5625 C 279.94114,42.5625 263.65626,58.84739 263.65625,78.90625 C 263.65625,98.965109 279.94113,115.25 300,115.25 C 320.05886,115.25 336.34375,98.965109 336.34375,78.90625 C 336.34375,58.847391 320.05885,42.562499 300,42.5625 z M 449.84375,42.5625 C 429.78489,42.5625 413.5,58.84739 413.5,78.90625 C 413.5,98.965109 429.7849,115.25 449.84375,115.25 C 469.90261,115.25 486.1875,98.965109 486.1875,78.90625 C 486.1875,58.847391 469.90262,42.562499 449.84375,42.5625 z M 1.5,42.59375 L 1.5,115.21875 C 21.009568,114.59184 36.624999,98.568204 36.625,78.90625 C 36.625,59.244296 21.009568,43.220655 1.5,42.59375 z M 598.5,42.59375 C 578.99043,43.220656 563.375,59.244296 563.375,78.90625 C 563.375,98.568204 578.99044,114.59184 598.5,115.21875 C 598.5,103.60974 598.5,42.559611 598.5,42.59375 z M 75.21875,117.46875 C 55.159891,117.46875 38.875,133.75364 38.875,153.8125 C 38.875,173.87136 55.159891,190.15626 75.21875,190.15625 C 95.277609,190.15625 111.5625,173.87135 111.5625,153.8125 C 111.5625,133.75364 95.277609,117.46875 75.21875,117.46875 z M 225.0625,117.46875 C 205.00364,117.46875 188.75,133.75364 188.75,153.8125 C 188.75,173.87136 205.00364,190.15626 225.0625,190.15625 C 245.12136,190.15625 261.40626,173.87135 261.40625,153.8125 C 261.40625,133.75364 245.12136,117.46875 225.0625,117.46875 z M 374.9375,117.46875 C 354.87864,117.46875 338.59376,133.75364 338.59375,153.8125 C 338.59375,173.87136 354.87863,190.15626 374.9375,190.15625 C 394.99636,190.15625 411.25,173.87135 411.25,153.8125 C 411.25,133.75364 394.99635,117.46875 374.9375,117.46875 z M 524.78125,117.46875 C 504.72239,117.46875 488.4375,133.75364 488.4375,153.8125 C 488.4375,173.87136 504.72237,190.15626 524.78125,190.15625 C 544.84011,190.15625 561.12499,173.87135 561.125,153.8125 C 561.125,133.75364 544.84009,117.46875 524.78125,117.46875 z M 150.15625,192.40625 C 130.09739,192.40625 113.8125,208.69115 113.8125,228.75 C 113.8125,248.80886 130.09739,265.09374 150.15625,265.09375 C 170.21511,265.09375 186.49999,248.80886 186.5,228.75 C 186.5,208.69114 170.21511,192.40624 150.15625,192.40625 z M 300,192.40625 C 279.94114,192.40625 263.65626,208.69115 263.65625,228.75 C 263.65625,248.80886 279.94113,265.09374 300,265.09375 C 320.05886,265.09375 336.34375,248.80886 336.34375,228.75 C 336.34375,208.69114 320.05885,192.40624 300,192.40625 z M 449.84375,192.40625 C 429.78489,192.40625 413.5,208.69115 413.5,228.75 C 413.5,248.80886 429.7849,265.09374 449.84375,265.09375 C 469.90261,265.09375 486.1875,248.80886 486.1875,228.75 C 486.1875,208.69114 469.90262,192.40624 449.84375,192.40625 z M 1.5,192.4375 L 1.5,260.71875 C 1.5,262.17404 1.5158121,263.6162 1.53125,265.0625 C 21.026329,264.41958 36.624999,248.40152 36.625,228.75 C 36.625,209.08805 21.009568,193.0644 1.5,192.4375 z M 598.5,192.4375 C 578.99043,193.06441 563.375,209.08806 563.375,228.75 C 563.375,248.40152 578.97368,264.41957 598.46875,265.0625 C 598.48419,263.6162 598.5,262.17404 598.5,260.71875 C 598.5,185.32753 598.5,230.50253 598.5,192.4375 z M 75.21875,267.34375 C 55.159891,267.34375 38.875,283.62864 38.875,303.6875 C 38.875,323.74636 55.159891,340.00001 75.21875,340 C 95.277609,340 111.5625,323.74636 111.5625,303.6875 C 111.5625,283.62864 95.277609,267.34374 75.21875,267.34375 z M 225.0625,267.34375 C 205.00364,267.34375 188.75,283.62864 188.75,303.6875 C 188.75,323.74636 205.00364,340.00001 225.0625,340 C 245.12136,340 261.40626,323.74636 261.40625,303.6875 C 261.40625,283.62864 245.12136,267.34374 225.0625,267.34375 z M 374.9375,267.34375 C 354.87864,267.34375 338.59376,283.62864 338.59375,303.6875 C 338.59375,323.74636 354.87863,340.00001 374.9375,340 C 394.99636,340 411.25,323.74636 411.25,303.6875 C 411.25,283.62864 394.99635,267.34374 374.9375,267.34375 z M 524.78125,267.34375 C 504.72239,267.34375 488.4375,283.62864 488.4375,303.6875 C 488.4375,323.74636 504.72237,340.00001 524.78125,340 C 544.84011,340 561.12499,323.74636 561.125,303.6875 C 561.125,283.62864 544.84009,267.34374 524.78125,267.34375 z M 150.15625,342.25 C 130.09739,342.25 113.8125,358.53489 113.8125,378.59375 C 113.8125,398.65261 130.09739,414.93751 150.15625,414.9375 C 170.21511,414.9375 186.49999,398.65261 186.5,378.59375 C 186.5,358.53489 170.21511,342.25001 150.15625,342.25 z M 300,342.25 C 279.94114,342.25 263.65626,358.53489 263.65625,378.59375 C 263.65625,398.65261 279.94113,414.93751 300,414.9375 C 320.05886,414.9375 336.34375,398.65261 336.34375,378.59375 C 336.34375,358.53489 320.05885,342.25001 300,342.25 z M 449.84375,342.25 C 429.78489,342.25 413.5,358.53489 413.5,378.59375 C 413.5,398.65261 429.7849,414.93751 449.84375,414.9375 C 469.90261,414.9375 486.1875,398.65261 486.1875,378.59375 C 486.1875,358.53489 469.90262,342.25001 449.84375,342.25 z M 10.40625,343.6875 C 14.918607,364.1195 21.000558,383.44533 28.34375,401.6875 C 33.513946,395.40693 36.625,387.36058 36.625,378.59375 C 36.625,362.03892 25.550351,348.06806 10.40625,343.6875 z M 589.59375,343.6875 C 574.44965,348.06806 563.375,362.03892 563.375,378.59375 C 563.375,387.36058 566.48605,395.40693 571.65625,401.6875 C 578.99944,383.44533 585.08139,364.1195 589.59375,343.6875 z M 75.21875,417.1875 C 61.826431,417.1875 50.116881,424.45515 43.8125,435.25 C 54.024358,454.8214 65.637458,472.96934 78.15625,489.75 C 96.844999,488.25386 111.5625,472.60225 111.5625,453.53125 C 111.5625,433.47239 95.277609,417.18751 75.21875,417.1875 z M 225.0625,417.1875 C 205.00364,417.1875 188.75,433.47238 188.75,453.53125 C 188.75,473.59011 205.00364,489.875 225.0625,489.875 C 245.12136,489.875 261.40626,473.5901 261.40625,453.53125 C 261.40625,433.47239 245.12136,417.18751 225.0625,417.1875 z M 374.9375,417.1875 C 354.87864,417.1875 338.59376,433.47238 338.59375,453.53125 C 338.59375,473.59011 354.87863,489.875 374.9375,489.875 C 394.99636,489.875 411.25,473.5901 411.25,453.53125 C 411.25,433.47239 394.99635,417.18751 374.9375,417.1875 z M 524.78125,417.1875 C 504.72239,417.1875 488.4375,433.47238 488.4375,453.53125 C 488.4375,472.60226 503.15498,488.25386 521.84375,489.75 C 534.36254,472.96934 545.97564,454.8214 556.1875,435.25 C 549.88312,424.45515 538.17356,417.18751 524.78125,417.1875 z M 150.15625,492.09375 C 130.09739,492.09375 113.8125,508.37866 113.8125,528.4375 C 113.8125,529.62772 113.88794,530.80771 114,531.96875 C 125.30962,543.7808 136.90328,554.67212 148.53125,564.71875 C 149.06882,564.7424 149.6129,564.78125 150.15625,564.78125 C 170.21511,564.78125 186.49999,548.49638 186.5,528.4375 C 186.5,508.37864 170.21511,492.09376 150.15625,492.09375 z M 300,492.09375 C 279.94114,492.09375 263.65626,508.37866 263.65625,528.4375 C 263.65625,548.49636 279.94113,564.78128 300,564.78125 C 320.05886,564.78125 336.34375,548.49638 336.34375,528.4375 C 336.34375,508.37864 320.05885,492.09376 300,492.09375 z M 449.84375,492.09375 C 429.78489,492.09375 413.5,508.37866 413.5,528.4375 C 413.5,548.49636 429.7849,564.78128 449.84375,564.78125 C 450.3871,564.78125 450.93118,564.7424 451.46875,564.71875 C 463.09672,554.67212 474.69038,543.7808 486,531.96875 C 486.11206,530.80771 486.1875,529.62773 486.1875,528.4375 C 486.1875,508.37864 469.90262,492.09376 449.84375,492.09375 z M 225.0625,567.03125 C 207.26956,567.03125 192.49142,579.85501 189.375,596.75 C 210.06189,611.4895 229.65162,623.4492 246.46875,632.75 C 255.52563,626.1377 261.40626,615.43707 261.40625,603.375 C 261.40625,583.31614 245.12136,567.03125 225.0625,567.03125 z M 374.9375,567.03125 C 354.87864,567.03125 338.59376,583.31615 338.59375,603.375 C 338.59375,615.43707 344.47437,626.1377 353.53125,632.75 C 370.34838,623.4492 389.9381,611.48951 410.625,596.75 C 407.50858,579.855 392.73043,567.03125 374.9375,567.03125 z M 300,641.96875 C 291.91543,641.96875 284.4456,644.62819 278.40625,649.09375 C 291.841,655.40986 300,658.5 300,658.5 C 300,658.5 308.159,655.40986 321.59375,649.09375 C 315.5544,644.62818 308.08456,641.96874 300,641.96875 z "
       id="use3928" />
  </g>
  <g
     inkscape:groupmode="layer"
     id="layer2"
     inkscape:label="Reflet final"
     sodipodi:insensitive="true">
    <path
       sodipodi:nodetypes="cccccc"
       d="M 300.00001,658.5 C 300.00001,658.5 598.50001,546.17969 598.50001,260.72817 C 598.50001,-24.723334 598.50001,2.1764865 598.50001,2.1764865 L 1.5,2.1764865 L 1.5,260.72817 C 1.5,546.17969 300.00001,658.5 300.00001,658.5 z "
       style="opacity:1;fill:url(#radialGradient3163);fill-opacity:1;fill-rule:evenodd;stroke:none;stroke-width:1px;stroke-linecap:butt;stroke-linejoin:miter;stroke-opacity:1"
       id="path2875"
       inkscape:export-xdpi="144"
       inkscape:export-ydpi="144" />
  </g>
  <g
     inkscape:groupmode="layer"
     id="layer1"
     inkscape:label="Contour final"
     sodipodi:insensitive="true">
    <path
       sodipodi:nodetypes="cccccc"
       d="M 299.99999,658.50028 C 299.99999,658.50028 1.5,546.17992 1.5,260.72828 C 1.5,-24.723336 1.5,2.1764957 1.5,2.1764957 L 598.49999,2.1764957 L 598.49999,260.72828 C 598.49999,546.17992 299.99999,658.50028 299.99999,658.50028 z "
       style="opacity:1;fill:none;fill-opacity:1;fill-rule:evenodd;stroke:black;stroke-width:3.00000048;stroke-linecap:butt;stroke-linejoin:miter;stroke-miterlimit:4;stroke-dasharray:none;stroke-opacity:1"
       id="path1411"
       inkscape:export-xdpi="144"
       inkscape:export-ydpi="144" />
  </g>
</svg>
