<?xml version="1.0" encoding="UTF-8" standalone="no"?>
<svg
   xmlns:dc="http://purl.org/dc/elements/1.1/"
   xmlns:cc="http://creativecommons.org/ns#"
   xmlns:rdf="http://www.w3.org/1999/02/22-rdf-syntax-ns#"
   xmlns:svg="http://www.w3.org/2000/svg"
   xmlns="http://www.w3.org/2000/svg"
   xmlns:xlink="http://www.w3.org/1999/xlink"
   xmlns:sodipodi="http://sodipodi.sourceforge.net/DTD/sodipodi-0.dtd"
   xmlns:inkscape="http://www.inkscape.org/namespaces/inkscape"
   height="660"
   width="600"
   version="1.0"
   id="svg2"
   sodipodi:version="0.32"
   inkscape:version="0.46"
   sodipodi:docname="Blason_ville_fr_Veauche_(Loire).svg"
   sodipodi:docbase="E:\DIVERS\Héraldique"
   inkscape:export-filename="/Users/olivier/Desktop/Blason Rouge/Blason_Vide_3D.png"
   inkscape:export-xdpi="144"
   inkscape:export-ydpi="144"
   inkscape:output_extension="org.inkscape.output.svg.inkscape">
  <metadata
     id="metadata49">
    <rdf:RDF>
      <cc:Work
         rdf:about="">
        <dc:format>image/svg+xml</dc:format>
        <dc:type
           rdf:resource="http://purl.org/dc/dcmitype/StillImage" />
        <dc:title />
        <dc:date />
        <dc:creator>
          <cc:Agent>
            <dc:title>Zigeuner (http://fr.wikipedia.org/wiki/Utilisateur:Zigeuner)</dc:title>
          </cc:Agent>
        </dc:creator>
        <cc:license
           rdf:resource="http://creativecommons.org/licenses/by-sa/2.5/" />
        <dc:language>fr</dc:language>
        <dc:subject>
          <rdf:Bag />
        </dc:subject>
      </cc:Work>
      <cc:License
         rdf:about="http://creativecommons.org/licenses/by-sa/2.5/">
        <cc:permits
           rdf:resource="http://web.resource.org/cc/Reproduction" />
        <cc:permits
           rdf:resource="http://web.resource.org/cc/Distribution" />
        <cc:requires
           rdf:resource="http://web.resource.org/cc/Notice" />
        <cc:requires
           rdf:resource="http://web.resource.org/cc/Attribution" />
        <cc:permits
           rdf:resource="http://web.resource.org/cc/DerivativeWorks" />
        <cc:requires
           rdf:resource="http://web.resource.org/cc/ShareAlike" />
      </cc:License>
    </rdf:RDF>
  </metadata>
  <sodipodi:namedview
     inkscape:window-height="977"
     inkscape:window-width="1280"
     inkscape:pageshadow="2"
     inkscape:pageopacity="0.0"
     guidetolerance="10.0"
     gridtolerance="10.0"
     objecttolerance="10.0"
     borderopacity="1.0"
     bordercolor="#666666"
     pagecolor="#ffffff"
     id="base"
     showgrid="false"
     height="660px"
     inkscape:zoom="1.1621207"
     inkscape:cx="300.00013"
     inkscape:cy="330.00014"
     inkscape:window-x="-4"
     inkscape:window-y="-4"
     inkscape:current-layer="layer3"
     inkscape:object-nodes="true"
     inkscape:snap-global="false"
     showguides="true"
     inkscape:guide-bbox="true" />
  <desc
     id="desc4">Flag of Canton of Valais (Wallis)</desc>
  <defs
     id="defs6">
    <linearGradient
       id="linearGradient2893">
      <stop
         style="stop-color:white;stop-opacity:0.3137255;"
         offset="0"
         id="stop2895" />
      <stop
         id="stop2897"
         offset="0.19"
         style="stop-color:white;stop-opacity:0.25098041;" />
      <stop
         style="stop-color:#6b6b6b;stop-opacity:0.1254902;"
         offset="0.60000002"
         id="stop2901" />
      <stop
         style="stop-color:black;stop-opacity:0.1254902;"
         offset="1"
         id="stop2899" />
    </linearGradient>
    <radialGradient
       inkscape:collect="always"
       xlink:href="#linearGradient2893"
       id="radialGradient3163"
       gradientUnits="userSpaceOnUse"
       gradientTransform="matrix(1.353218,0,0,1.348928,-77.62935,-85.74693)"
       cx="221.44487"
       cy="226.33101"
       fx="221.44487"
       fy="226.33101"
       r="300" />
  </defs>
  <g
     inkscape:groupmode="layer"
     id="layer3"
     inkscape:label="Fond écu"
     style="display:inline">
    <path
       style="fill:#2b5df2;fill-opacity:1;fill-rule:evenodd;stroke:none;stroke-width:1px;stroke-linecap:butt;stroke-linejoin:miter;stroke-opacity:1"
       d="M 1.5,2.1875 L 1.5,260.71875 C 1.5,546.17026 300,658.5 300,658.5 L 300,2.1875 L 1.5,2.1875 z"
       id="path2805" />
    <g
       id="g2807"
       inkscape:label="Meubles"
       transform="translate(1.3295043e-4,-700.00028)" />
    <path
       id="path3614"
       d="M 598.5,2.1875 L 598.5,260.71875 C 598.5,546.17026 300,658.5 300,658.5 L 300,2.1875 L 598.5,2.1875 z"
       style="fill:#fcef3c;fill-opacity:1;fill-rule:evenodd;stroke:none;stroke-width:1px;stroke-linecap:butt;stroke-linejoin:miter;stroke-opacity:1" />
    <rect
       style="opacity:1;fill:#000000;fill-opacity:1;stroke:none;stroke-width:3;stroke-miterlimit:4;stroke-dasharray:none;stroke-opacity:1"
       id="rect3616"
       width="3"
       height="656.30164"
       x="298.5"
       y="2.1983554" />
    <g
       id="g4626"
       inkscape:label="Meubles"
       transform="translate(1214.9342,19.818812)" />
    <path
       style="fill:#e20909;fill-opacity:1;fill-rule:evenodd"
       d="M 596.5625,300 C 570.96922,556.52035 300,658.5 300,658.5 L 300,300 L 596.5625,300 z"
       id="path3850" />
    <rect
       y="298.5"
       x="298.71283"
       height="3"
       width="297.2619"
       id="rect10614"
       style="fill:#000000;fill-opacity:1;stroke:none;stroke-width:3;stroke-miterlimit:4;stroke-dasharray:none;stroke-opacity:1" />
    <rect
       y="1.8498535"
       x="298.5"
       height="656.65015"
       width="3"
       id="rect10616"
       style="fill:#000000;fill-opacity:1;stroke:none;stroke-width:3;stroke-miterlimit:4;stroke-dasharray:none;stroke-opacity:1" />
    <path
       style="fill:#ffffff;stroke:#000000;stroke-width:1.484375"
       d=""
       id="path2291" />
    <path
       style="fill:#ffffff;stroke:#000000;stroke-width:1.484375"
       d=""
       id="path2293" />
    <path
       style="fill:#ffffff;stroke:#000000;stroke-width:1.484375"
       d=""
       id="path2295" />
    <path
       style="fill:#ffffff;stroke:#000000;stroke-width:1.484375"
       d=""
       id="path2297" />
    <path
       style="fill:#ffffff;stroke:#000000;stroke-width:1.484375"
       d=""
       id="path2299" />
    <path
       style="fill:#ffffff;stroke:#000000;stroke-width:1.484375"
       d=""
       id="path2301" />
    <path
       style="fill:#ffffff;stroke:#000000;stroke-width:1.484375"
       d=""
       id="path2305" />
    <path
       style="fill:#ffffff;stroke:#000000;stroke-width:1.484375"
       d=""
       id="path2307" />
    <path
       style="fill:#ffffff;stroke:#000000;stroke-width:1.484375"
       d=""
       id="path2309" />
    <path
       style="fill:none;stroke:#000000;stroke-width:2.5772965"
       d=""
       id="path2335" />
    <path
       style="fill:none;stroke:#000000;stroke-width:2.5772965"
       d=""
       id="path2337" />
  </g>
  <g
     inkscape:groupmode="layer"
     id="layer4"
     inkscape:label="Meubles">
    <g
       style="display:inline"
       id="g7462">
      <path
         sodipodi:nodetypes="ccccccc"
         id="path2325"
         d="M 237.99741,449.31538 C 201.32559,425.71713 221.04043,365.62442 220.39458,328.25031 C 215.47112,336.82394 209.25347,344.32064 202.62017,351.28464 C 200.63435,355.19445 155.06231,396.72408 166.13176,394.76839 C 186.80511,386.98072 187.46078,407.8077 193.82713,409.56947 C 221.33255,402.79109 208.69315,435.21703 231.58859,451.78278 C 232.79908,453.61377 245.5602,453.70783 237.99741,449.31538 z"
         style="fill:#fcef3c;fill-opacity:1;stroke:#000000;stroke-width:2.50000000000000000;stroke-miterlimit:4;stroke-dasharray:none" />
      <path
         sodipodi:nodetypes="cccccccccccccccccc"
         id="path2333"
         d="M 45.209524,172.09506 C 61.224033,171.25303 77.007672,175.11364 92.569578,178.79061 C 108.68999,191.03069 131.97728,188.85844 144.50436,207.32527 C 162.93608,228.67509 174.24192,258.83408 170.30791,288.60836 C 168.58812,304.28533 164.60542,319.58884 160.3043,334.54786 C 155.76301,352.27317 113.8672,377.6037 121.88204,379.15659 C 155.9341,375.62569 189.32919,341.23242 156.96952,396.04056 C 153.67033,402.40525 148.90312,411.31717 156.68137,401.71556 C 177.80966,379.06352 201.50499,358.81567 219.30281,332.71466 C 233.87589,307.1855 244.60801,278.40977 245.97348,247.95599 C 247.19966,217.13352 232.78815,191.91588 217.0395,168.22022 C 191.18925,136.05958 123.79719,84.826016 82.342533,98.294282 C 71.804675,101.58911 59.439015,111.42078 64.162334,125.25033 C 67.482941,143.45484 41.689915,136.52422 31.735947,134.00183 C 28.846889,150.25475 51.515193,152.78227 62.24438,153.52459 C 71.421775,153.5312 91.400375,160.90145 90.359186,166.9507 C 76.67135,166.55033 62.094904,161.3903 48.89398,165.37722 C 47.177595,167.24167 46.359958,169.81877 45.209524,172.09506 z"
         style="fill:#e20909;fill-opacity:1;stroke:#000000;stroke-width:2.5;stroke-miterlimit:4;stroke-dasharray:none" />
      <path
         sodipodi:nodetypes="cscccccccccc"
         id="path2323"
         d="M 170.54806,479.429 C 126.14358,481.04828 138.10141,424.31731 157.32006,404.54534 C 167.00393,394.58269 181.96422,341.98067 169.34064,354.8663 C 107.34696,413.53059 77.403743,328.01833 29.877305,321.26705 C 10.508795,330.11147 41.18271,324.3842 43.682621,336.56149 C 56.700633,349.37363 34.671624,371.89361 55.506287,376.85391 C 61.023396,408.03033 118.27061,399.63361 120.03932,401.64447 C 108.59973,412.80313 93.338987,414.29934 79.036746,417.09708 C 61.082722,424.35667 94.529653,422.56302 99.464283,431.53352 C 109.30781,438.0658 109.66534,461.3908 124.61102,449.79691 C 135.94846,460.71842 139.32703,481.06802 155.28433,486.35597 C 160.20364,493.32975 185.88665,481.91674 170.54806,479.429 z"
         style="fill:#fcef3c;fill-opacity:1;stroke:#000000;stroke-width:2.50000000000000000;stroke-miterlimit:4;stroke-dasharray:none" />
      <path
         id="path2327"
         d="M 273.94937,291.55955 C 265.8584,284.34358 258.72339,275.61203 254.18919,265.17944 C 251.82983,261.07811 248.71502,257.49263 247.50075,252.67134 C 246.69445,250.38708 245.83216,246.0115 245.83661,250.83402 C 244.55143,265.29877 242.32433,279.75352 237.77857,293.43575 C 236.85363,298.38125 234.05219,303.0407 232.61129,307.41741 C 236.91459,306.02213 241.45181,301.20908 244.71553,307.14711 C 247.60851,310.13299 250.70352,313.63577 251.87592,317.34213 C 254.78338,314.40639 254.81193,309.02341 255.37091,304.84841 C 254.91963,300.14545 256.79397,295.95494 261.11212,294.71064 C 265.24853,290.97678 270.32376,295.41275 274.93299,295.49888 C 279.13812,296.13509 274.93495,292.49972 273.94937,291.55955 z"
         style="fill:#fcef3c;fill-opacity:1;stroke:#000000;stroke-width:2.50000000000000000;stroke-miterlimit:4;stroke-dasharray:none" />
      <path
         sodipodi:nodetypes="ccccc"
         id="polygon2329"
         d="M 146.67122,349.85781 C 149.02515,359.38031 155.77622,348.37014 158.74257,344.84022 C 168.63401,336.83047 177.40888,292.36755 171.06757,267.0213 C 161.33359,312.81252 159.70944,315.67281 124.61347,335.16392 C 149.30631,337.17367 134.34859,338.95564 146.67122,349.85781 z"
         style="fill:#fcef3c;fill-opacity:1;stroke:#000000;stroke-width:2.50000000000000000;stroke-miterlimit:4;stroke-dasharray:none" />
      <path
         sodipodi:nodetypes="cccccs"
         id="path2331"
         d="M 135.89942,197.3788 C 125.62967,187.95889 110.33715,188.17011 98.085869,181.68713 C 110.72699,197.25031 121.11224,203.52923 113.72889,226.40725 C 129.29556,228.32917 121.039,203.16236 126.42959,200.19714 C 136.41841,213.08311 137.4189,229.57238 132.58134,245.09102 C 154.1218,239.27377 148.37059,208.81795 135.89942,197.3788 z"
         style="fill:#fcef3c;fill-opacity:1;stroke:#000000;stroke-width:2.50000000000000000;stroke-miterlimit:4;stroke-dasharray:none" />
      <path
         sodipodi:nodetypes="cccccccccccccccc"
         id="path2339"
         d="M 88.927948,96.282766 C 100.59252,95.125047 112.05437,92.224938 123.55772,89.914626 C 129.48704,89.960844 135.07298,82.658251 138.23787,81.407798 C 140.52445,86.909251 125.58958,94.707126 136.42785,95.269407 C 149.94899,96.662751 164.18697,91.638219 173.73571,80.754079 C 186.43961,87.256188 152.74166,98.637126 163.73249,103.85816 C 181.52831,110.92011 199.45701,116.69019 214.7384,100.68517 C 221.62882,115.19077 192.43677,120.49823 185.11624,122.79073 C 205.24078,142.2115 227.14379,182.26494 256.94167,160.44331 C 247.58273,184.31911 215.69924,171.98563 202.54488,158.92945 C 197.48521,153.51416 196.17635,161.45838 200.34325,164.67328 C 205.51229,172.69636 194.04469,166.32049 193.41987,161.93938 C 191.10612,148.29825 177.38093,166.11061 181.07493,157.46853 C 189.78606,140.65133 162.70732,123.71758 168.75672,137.12672 C 177.7232,148.436 149.39923,167.96464 144.59685,159.32536 C 182.96104,112.0038 116.4804,100.84925 88.927948,96.282766 z"
         style="fill:#fcef3c;fill-opacity:1;stroke:#000000;stroke-width:2.50000000000000000;stroke-miterlimit:4;stroke-dasharray:none" />
      <path
         sodipodi:nodetypes="ccc"
         id="path2349"
         d="M 152.41147,174.21127 C 171.37815,188.71513 187.66149,209.8182 192.357,235.37078 C 199.32676,266.80548 188.77153,296.30844 182.95076,326.46706"
         style="fill:#e20909;stroke:#000000;stroke-width:2.5;stroke-miterlimit:4;stroke-dasharray:none" />
      <path
         sodipodi:nodetypes="cc"
         id="path2367"
         d="M 245.39331,259.24295 C 254.44378,273.03525 250.35692,290.76741 250.48115,306.77102"
         style="fill:#fcef3c;stroke:#000000;stroke-width:2.50000000000000000;stroke-miterlimit:4;stroke-dasharray:none" />
      <path
         sodipodi:nodetypes="cc"
         id="path2369"
         d="M 46.918563,366.37983 C 68.439662,383.57075 100.26641,383.66419 126.16204,385.71225"
         style="fill:#fcef3c;stroke:#000000;stroke-width:2.50000000000000000;stroke-miterlimit:4;stroke-dasharray:none" />
      <path
         id="path2371"
         d="M 106.5354,436.46059 C 113.98961,422.61523 125.08782,411.91358 134.88824,400.21295"
         style="fill:#e20909;stroke:#000000;stroke-width:2.5;stroke-miterlimit:4;stroke-dasharray:none" />
      <path
         sodipodi:nodetypes="cc"
         id="path2373"
         d="M 113.80234,441.29777 C 123.29922,414.74442 157.15005,392.83178 165.42263,367.18827"
         style="fill:#e20909;stroke:#000000;stroke-width:2.5;stroke-miterlimit:4;stroke-dasharray:none" />
      <path
         sodipodi:nodetypes="cc"
         id="path2375"
         d="M 193.00343,405.14686 C 193.62903,385.89028 200.69821,365.85641 211.18058,350.3698"
         style="fill:#fcef3c;stroke:#000000;stroke-width:2.50000000000000000;stroke-miterlimit:4;stroke-dasharray:none" />
      <path
         sodipodi:nodetypes="cccc"
         id="path6368"
         d="M 130.24424,132.82391 C 136.80205,146.70267 134.79834,162.0022 119.50786,172.01914 C 126.40535,170.117 139.30094,160.52777 140.83516,149.69445 C 140.8816,141.33363 137.16406,137.12848 130.24424,132.82391 z"
         style="fill:#e20909;fill-opacity:1;fill-rule:evenodd;stroke:#000000;stroke-width:2.5;stroke-linecap:butt;stroke-linejoin:miter;stroke-opacity:1;stroke-miterlimit:4;stroke-dasharray:none" />
      <g
         style="fill:#e20909;stroke-width:1.68421056;stroke-miterlimit:4;stroke-dasharray:none"
         transform="matrix(1.4101562,0,0,1.5625,-335.84146,-225.60139)"
         id="g8308">
        <ellipse
           rx="2.97"
           cy="478.45001"
           ry="2.6719999"
           cx="471.716"
           sodipodi:cy="478.45001"
           sodipodi:cx="471.716"
           style="fill:#e20909;fill-opacity:1;stroke:#000000;stroke-width:0.97000868;stroke-miterlimit:4;stroke-dasharray:none"
           id="ellipse2343"
           transform="matrix(1.736284,0,0,1.736284,-510.482,-601.8842)"
           sodipodi:rx="2.97"
           sodipodi:ry="2.6719999" />
        <circle
           cy="477.70801"
           transform="matrix(1.736284,0,0,1.736284,-510.482,-601.8842)"
           r="1.039"
           cx="470.677"
           sodipodi:cy="477.70801"
           sodipodi:cx="470.677"
           style="fill:#e20909;fill-opacity:1;stroke:#000000;stroke-width:0.97000868;stroke-miterlimit:4;stroke-dasharray:none"
           id="circle2345"
           sodipodi:rx="1.039"
           sodipodi:ry="1.039" />
        <path
           style="fill:#e20909;fill-opacity:1;stroke:#000000;stroke-width:1.68421056;stroke-miterlimit:4;stroke-dasharray:none"
           d="M 293.71617,226.98727 C 305.12236,224.04577 322.51225,216.30547 329.3662,236.67392 C 319.98457,218.34773 308.3872,226.67944 293.71617,226.98727 z"
           id="polygon2341"
           sodipodi:nodetypes="ccc" />
      </g>
    </g>
  </g>
  <g
     inkscape:groupmode="layer"
     id="layer2"
     inkscape:label="Reflet final"
     sodipodi:insensitive="true">
    <path
       sodipodi:nodetypes="cccccc"
       d="M 300.00001,658.5 C 300.00001,658.5 598.50001,546.17969 598.50001,260.72817 C 598.50001,-24.723334 598.50001,2.1764865 598.50001,2.1764865 L 1.5,2.1764865 L 1.5,260.72817 C 1.5,546.17969 300.00001,658.5 300.00001,658.5 z"
       style="opacity:1;fill:url(#radialGradient3163);fill-opacity:1;fill-rule:evenodd;stroke:none;stroke-width:1px;stroke-linecap:butt;stroke-linejoin:miter;stroke-opacity:1"
       id="path2875"
       inkscape:export-xdpi="144"
       inkscape:export-ydpi="144" />
  </g>
  <g
     inkscape:groupmode="layer"
     id="layer1"
     inkscape:label="Contour final"
     sodipodi:insensitive="true">
    <path
       sodipodi:nodetypes="cccccc"
       d="M 299.99999,658.50028 C 299.99999,658.50028 1.5,546.17992 1.5,260.72828 C 1.5,-24.723336 1.5,2.1764957 1.5,2.1764957 L 598.49999,2.1764957 L 598.49999,260.72828 C 598.49999,546.17992 299.99999,658.50028 299.99999,658.50028 z"
       style="opacity:1;fill:none;fill-opacity:1;fill-rule:evenodd;stroke:#000000;stroke-width:3.00000048;stroke-linecap:butt;stroke-linejoin:miter;stroke-miterlimit:4;stroke-dasharray:none;stroke-opacity:1"
       id="path1411"
       inkscape:export-xdpi="144"
       inkscape:export-ydpi="144" />
  </g>
</svg>
