<?xml version="1.0" encoding="UTF-8" standalone="no"?>
<svg
   xmlns:dc="http://purl.org/dc/elements/1.1/"
   xmlns:cc="http://creativecommons.org/ns#"
   xmlns:rdf="http://www.w3.org/1999/02/22-rdf-syntax-ns#"
   xmlns:svg="http://www.w3.org/2000/svg"
   xmlns="http://www.w3.org/2000/svg"
   xmlns:xlink="http://www.w3.org/1999/xlink"
   xmlns:sodipodi="http://sodipodi.sourceforge.net/DTD/sodipodi-0.dtd"
   xmlns:inkscape="http://www.inkscape.org/namespaces/inkscape"
   height="660"
   width="600"
   version="1.0"
   id="svg2"
   sodipodi:version="0.32"
   inkscape:version="0.46"
   sodipodi:docname="Blason Ville-sous-la-Ferté.svg"
   sodipodi:docbase="D:\Mes documents\Renaud-Notre Lapin"
   inkscape:export-filename="/Users/olivier/Desktop/Blason Rouge/Blason_Vide_3D.png"
   inkscape:export-xdpi="144"
   inkscape:export-ydpi="144"
   inkscape:output_extension="org.inkscape.output.svg.inkscape">
  <metadata
     id="metadata49">
    <rdf:RDF>
      <cc:Work
         rdf:about="">
        <dc:format>image/svg+xml</dc:format>
        <dc:type
           rdf:resource="http://purl.org/dc/dcmitype/StillImage" />
        <dc:title>Gabarit d'un blason en pointe pour le projet Blasons de Wikipédia</dc:title>
        <dc:date>03-AUG-2006</dc:date>
        <dc:creator>
          <cc:Agent>
            <dc:title>Jérôme BLUM (wagner51)</dc:title>
          </cc:Agent>
        </dc:creator>
        <cc:license
           rdf:resource="http://web.resource.org/cc/PublicDomain" />
        <dc:language>fr</dc:language>
        <dc:subject>
          <rdf:Bag>
            <rdf:li>gabarit modèle blason projet wikipédia</rdf:li>
          </rdf:Bag>
        </dc:subject>
      </cc:Work>
      <cc:License
         rdf:about="http://web.resource.org/cc/PublicDomain">
        <cc:permits
           rdf:resource="http://web.resource.org/cc/Reproduction" />
        <cc:permits
           rdf:resource="http://web.resource.org/cc/Distribution" />
        <cc:permits
           rdf:resource="http://web.resource.org/cc/DerivativeWorks" />
      </cc:License>
    </rdf:RDF>
  </metadata>
  <sodipodi:namedview
     inkscape:window-height="968"
     inkscape:window-width="1280"
     inkscape:pageshadow="2"
     inkscape:pageopacity="0.0"
     guidetolerance="10.0"
     gridtolerance="10.0"
     objecttolerance="10.0"
     borderopacity="1.0"
     bordercolor="#666666"
     pagecolor="#ffffff"
     id="base"
     showgrid="false"
     height="660px"
     inkscape:zoom="0.89953385"
     inkscape:cx="544.31878"
     inkscape:cy="329.73054"
     inkscape:window-x="-4"
     inkscape:window-y="-4"
     inkscape:current-layer="g5444"
     showguides="true"
     inkscape:guide-bbox="true" />
  <desc
     id="desc4">Flag of Canton of Valais (Wallis)</desc>
  <defs
     id="defs6">
    <inkscape:perspective
       sodipodi:type="inkscape:persp3d"
       inkscape:vp_x="0 : 330 : 1"
       inkscape:vp_y="0 : 1000 : 0"
       inkscape:vp_z="600 : 330 : 1"
       inkscape:persp3d-origin="300 : 220 : 1"
       id="perspective35" />
    <linearGradient
       id="linearGradient2893">
      <stop
         style="stop-color:white;stop-opacity:0.3137255;"
         offset="0"
         id="stop2895" />
      <stop
         id="stop2897"
         offset="0.19"
         style="stop-color:white;stop-opacity:0.25098041;" />
      <stop
         style="stop-color:#6b6b6b;stop-opacity:0.1254902;"
         offset="0.60000002"
         id="stop2901" />
      <stop
         style="stop-color:black;stop-opacity:0.1254902;"
         offset="1"
         id="stop2899" />
    </linearGradient>
    <linearGradient
       id="linearGradient2885">
      <stop
         id="stop2887"
         offset="0"
         style="stop-color:white;stop-opacity:1;" />
      <stop
         style="stop-color:white;stop-opacity:1;"
         offset="0.22857143"
         id="stop2891" />
      <stop
         id="stop2889"
         offset="1"
         style="stop-color:black;stop-opacity:1;" />
    </linearGradient>
    <linearGradient
       id="linearGradient2955">
      <stop
         id="stop2867"
         offset="0"
         style="stop-color:#fd0000;stop-opacity:1;" />
      <stop
         style="stop-color:#e77275;stop-opacity:0.65882355;"
         offset="0.5"
         id="stop2873" />
      <stop
         style="stop-color:black;stop-opacity:0.32291666;"
         offset="1"
         id="stop2959" />
    </linearGradient>
    <radialGradient
       inkscape:collect="always"
       xlink:href="#linearGradient2955"
       id="radialGradient2961"
       cx="225.52438"
       cy="218.90099"
       fx="225.52438"
       fy="218.90099"
       r="300"
       gradientTransform="matrix(-4.167939e-4,2.182867,-1.884232,-3.599562e-4,615.5972,-289.1214)"
       gradientUnits="userSpaceOnUse" />
    <polygon
       id="star"
       transform="scale(53,53)"
       points="0,-1 0.58778525,0.80901699 -0.95105652,-0.30901699 0.95105652,-0.30901699 -0.58778525,0.80901699 0,-1 " />
    <clipPath
       id="clip">
      <path
         d="M 0,-200 L 0,600 L 300,600 L 300,-200 L 0,-200 z "
         id="path10" />
    </clipPath>
    <radialGradient
       inkscape:collect="always"
       xlink:href="#linearGradient2955"
       id="radialGradient1911"
       gradientUnits="userSpaceOnUse"
       gradientTransform="matrix(-4.167939e-4,2.182867,-1.884232,-3.599562e-4,615.5972,-289.1214)"
       cx="225.52438"
       cy="218.90099"
       fx="225.52438"
       fy="218.90099"
       r="300" />
    <radialGradient
       inkscape:collect="always"
       xlink:href="#linearGradient2955"
       id="radialGradient2865"
       gradientUnits="userSpaceOnUse"
       gradientTransform="matrix(0,1.748721,-1.593162,-1.049767e-7,551.7876,-191.2898)"
       cx="225.52438"
       cy="218.90099"
       fx="225.52438"
       fy="218.90099"
       r="300" />
    <radialGradient
       inkscape:collect="always"
       xlink:href="#linearGradient2955"
       id="radialGradient2871"
       gradientUnits="userSpaceOnUse"
       gradientTransform="matrix(0,1.386237,-1.323286,-5.741131e-8,-158.0823,-109.5408)"
       cx="225.52438"
       cy="218.90099"
       fx="225.52438"
       fy="218.90099"
       r="300" />
    <radialGradient
       inkscape:collect="always"
       xlink:href="#linearGradient2893"
       id="radialGradient3163"
       gradientUnits="userSpaceOnUse"
       gradientTransform="matrix(1.353218,0,0,1.348928,-77.62935,-85.74693)"
       cx="221.44487"
       cy="226.33101"
       fx="221.44487"
       fy="226.33101"
       r="300" />
    <inkscape:perspective
       sodipodi:type="inkscape:persp3d"
       inkscape:vp_x="0 : 330 : 1"
       inkscape:vp_y="0 : 1000 : 0"
       inkscape:vp_z="600 : 330 : 1"
       inkscape:persp3d-origin="300 : 220 : 1"
       id="perspective2876" />
    <linearGradient
       id="linearGradient2878">
      <stop
         style="stop-color:#ffffff;stop-opacity:0.3137255"
         offset="0"
         id="stop2880" />
      <stop
         style="stop-color:#ffffff;stop-opacity:0.25098041"
         offset="0.19"
         id="stop2882" />
      <stop
         style="stop-color:#6b6b6b;stop-opacity:0.1254902"
         offset="0.60000002"
         id="stop2884" />
      <stop
         style="stop-color:#000000;stop-opacity:0.1254902"
         offset="1"
         id="stop2886" />
    </linearGradient>
    <radialGradient
       cx="285.18573"
       cy="200.44757"
       r="300"
       fx="285.18573"
       fy="200.44757"
       id="radialGradient2888"
       xlink:href="#linearGradient2893"
       gradientUnits="userSpaceOnUse"
       gradientTransform="matrix(1.551284,0,0,1.350335,-227.8943,-51.2635)" />
    <inkscape:perspective
       sodipodi:type="inkscape:persp3d"
       inkscape:vp_x="0 : 330 : 1"
       inkscape:vp_y="0 : 1000 : 0"
       inkscape:vp_z="600 : 330 : 1"
       inkscape:persp3d-origin="300 : 220 : 1"
       id="perspective204" />
    <linearGradient
       id="linearGradient3353">
      <stop
         style="stop-color:#ffffff;stop-opacity:0.3137255"
         offset="0"
         id="stop3355" />
      <stop
         style="stop-color:#ffffff;stop-opacity:0.25098041"
         offset="0.19"
         id="stop3357" />
      <stop
         style="stop-color:#6b6b6b;stop-opacity:0.1254902"
         offset="0.60000002"
         id="stop3359" />
      <stop
         style="stop-color:#000000;stop-opacity:0.1254902"
         offset="1"
         id="stop3361" />
    </linearGradient>
    <radialGradient
       cx="285.18573"
       cy="200.44757"
       r="300"
       fx="285.18573"
       fy="200.44757"
       id="radialGradient11919"
       xlink:href="#linearGradient2893"
       gradientUnits="userSpaceOnUse"
       gradientTransform="matrix(1.551284,0,0,1.350335,-227.8943,-51.2635)" />
    <inkscape:perspective
       id="perspective28"
       inkscape:persp3d-origin="174.71129 : 121.64757 : 1"
       inkscape:vp_z="349.42258 : 182.47136 : 1"
       inkscape:vp_y="0 : 1000 : 0"
       inkscape:vp_x="0 : 182.47136 : 1"
       sodipodi:type="inkscape:persp3d" />
    <inkscape:perspective
       id="perspective14"
       inkscape:persp3d-origin="372.04724 : 350.78739 : 1"
       inkscape:vp_z="744.09448 : 526.18109 : 1"
       inkscape:vp_y="0 : 1000 : 0"
       inkscape:vp_x="0 : 526.18109 : 1"
       sodipodi:type="inkscape:persp3d" />
    <radialGradient
       r="300"
       fy="226.33101"
       fx="221.44487"
       cy="226.33101"
       cx="221.44487"
       gradientTransform="matrix(1.353218,0,0,1.348928,-77.62935,-85.74693)"
       gradientUnits="userSpaceOnUse"
       id="radialGradient4883"
       xlink:href="#linearGradient2893"
       inkscape:collect="always" />
    <radialGradient
       r="300"
       fy="218.90099"
       fx="225.52438"
       cy="218.90099"
       cx="225.52438"
       gradientTransform="matrix(0,1.386237,-1.323286,-5.741131e-8,-158.0823,-109.5408)"
       gradientUnits="userSpaceOnUse"
       id="radialGradient4881"
       xlink:href="#linearGradient2955"
       inkscape:collect="always" />
    <radialGradient
       r="300"
       fy="218.90099"
       fx="225.52438"
       cy="218.90099"
       cx="225.52438"
       gradientTransform="matrix(0,1.748721,-1.593162,-1.049767e-7,551.7876,-191.2898)"
       gradientUnits="userSpaceOnUse"
       id="radialGradient4879"
       xlink:href="#linearGradient2955"
       inkscape:collect="always" />
    <radialGradient
       r="300"
       fy="218.90099"
       fx="225.52438"
       cy="218.90099"
       cx="225.52438"
       gradientTransform="matrix(-4.167939e-4,2.182867,-1.884232,-3.599562e-4,615.5972,-289.1214)"
       gradientUnits="userSpaceOnUse"
       id="radialGradient4877"
       xlink:href="#linearGradient2955"
       inkscape:collect="always" />
    <clipPath
       id="clipPath4873">
      <path
         id="path4875"
         d="M 0,-200 L 0,600 L 300,600 L 300,-200 L 0,-200 z " />
    </clipPath>
    <polygon
       points="0,-1 0.58778525,0.80901699 -0.95105652,-0.30901699 0.95105652,-0.30901699 -0.58778525,0.80901699 0,-1 "
       transform="scale(53,53)"
       id="polygon4871" />
    <radialGradient
       gradientUnits="userSpaceOnUse"
       gradientTransform="matrix(-4.167939e-4,2.182867,-1.884232,-3.599562e-4,615.5972,-289.1214)"
       r="300"
       fy="218.90099"
       fx="225.52438"
       cy="218.90099"
       cx="225.52438"
       id="radialGradient4869"
       xlink:href="#linearGradient2955"
       inkscape:collect="always" />
    <linearGradient
       id="linearGradient4861">
      <stop
         style="stop-color:#fd0000;stop-opacity:1;"
         offset="0"
         id="stop4863" />
      <stop
         id="stop4865"
         offset="0.5"
         style="stop-color:#e77275;stop-opacity:0.65882355;" />
      <stop
         id="stop4867"
         offset="1"
         style="stop-color:black;stop-opacity:0.32291666;" />
    </linearGradient>
    <linearGradient
       id="linearGradient4853">
      <stop
         style="stop-color:white;stop-opacity:1;"
         offset="0"
         id="stop4855" />
      <stop
         id="stop4857"
         offset="0.22857143"
         style="stop-color:white;stop-opacity:1;" />
      <stop
         style="stop-color:black;stop-opacity:1;"
         offset="1"
         id="stop4859" />
    </linearGradient>
    <linearGradient
       id="linearGradient4843">
      <stop
         id="stop4845"
         offset="0"
         style="stop-color:white;stop-opacity:0.3137255;" />
      <stop
         style="stop-color:white;stop-opacity:0.25098041;"
         offset="0.19"
         id="stop4847" />
      <stop
         id="stop4849"
         offset="0.60000002"
         style="stop-color:#6b6b6b;stop-opacity:0.1254902;" />
      <stop
         id="stop4851"
         offset="1"
         style="stop-color:black;stop-opacity:0.1254902;" />
    </linearGradient>
    <inkscape:perspective
       id="perspective41"
       inkscape:persp3d-origin="300 : 220 : 1"
       inkscape:vp_z="600 : 330 : 1"
       inkscape:vp_y="0 : 1000 : 0"
       inkscape:vp_x="0 : 330 : 1"
       sodipodi:type="inkscape:persp3d" />
    <radialGradient
       r="300"
       fy="226.33101"
       fx="221.44487"
       cy="226.33101"
       cx="221.44487"
       gradientTransform="matrix(1.353218,0,0,1.348928,-77.62935,-85.74693)"
       gradientUnits="userSpaceOnUse"
       id="radialGradient5440"
       xlink:href="#linearGradient2893"
       inkscape:collect="always" />
    <radialGradient
       r="300"
       fy="218.90099"
       fx="225.52438"
       cy="218.90099"
       cx="225.52438"
       gradientTransform="matrix(0,1.386237,-1.323286,-5.741131e-8,-158.0823,-109.5408)"
       gradientUnits="userSpaceOnUse"
       id="radialGradient5438"
       xlink:href="#linearGradient2955"
       inkscape:collect="always" />
    <radialGradient
       r="300"
       fy="218.90099"
       fx="225.52438"
       cy="218.90099"
       cx="225.52438"
       gradientTransform="matrix(0,1.748721,-1.593162,-1.049767e-7,551.7876,-191.2898)"
       gradientUnits="userSpaceOnUse"
       id="radialGradient5436"
       xlink:href="#linearGradient2955"
       inkscape:collect="always" />
    <radialGradient
       r="300"
       fy="218.90099"
       fx="225.52438"
       cy="218.90099"
       cx="225.52438"
       gradientTransform="matrix(-4.167939e-4,2.182867,-1.884232,-3.599562e-4,615.5972,-289.1214)"
       gradientUnits="userSpaceOnUse"
       id="radialGradient5434"
       xlink:href="#linearGradient2955"
       inkscape:collect="always" />
    <clipPath
       id="clipPath5430">
      <path
         id="path5432"
         d="M 0,-200 L 0,600 L 300,600 L 300,-200 L 0,-200 z " />
    </clipPath>
    <polygon
       points="0,-1 0.58778525,0.80901699 -0.95105652,-0.30901699 0.95105652,-0.30901699 -0.58778525,0.80901699 0,-1 "
       transform="scale(53,53)"
       id="polygon5428" />
    <radialGradient
       gradientUnits="userSpaceOnUse"
       gradientTransform="matrix(-4.167939e-4,2.182867,-1.884232,-3.599562e-4,615.5972,-289.1214)"
       r="300"
       fy="218.90099"
       fx="225.52438"
       cy="218.90099"
       cx="225.52438"
       id="radialGradient5426"
       xlink:href="#linearGradient2955"
       inkscape:collect="always" />
    <linearGradient
       id="linearGradient5418">
      <stop
         style="stop-color:#fd0000;stop-opacity:1;"
         offset="0"
         id="stop5420" />
      <stop
         id="stop5422"
         offset="0.5"
         style="stop-color:#e77275;stop-opacity:0.65882355;" />
      <stop
         id="stop5424"
         offset="1"
         style="stop-color:black;stop-opacity:0.32291666;" />
    </linearGradient>
    <linearGradient
       id="linearGradient5410">
      <stop
         style="stop-color:white;stop-opacity:1;"
         offset="0"
         id="stop5412" />
      <stop
         id="stop5414"
         offset="0.22857143"
         style="stop-color:white;stop-opacity:1;" />
      <stop
         style="stop-color:black;stop-opacity:1;"
         offset="1"
         id="stop5416" />
    </linearGradient>
    <linearGradient
       id="linearGradient5400">
      <stop
         id="stop5402"
         offset="0"
         style="stop-color:white;stop-opacity:0.3137255;" />
      <stop
         style="stop-color:white;stop-opacity:0.25098041;"
         offset="0.19"
         id="stop5404" />
      <stop
         id="stop5406"
         offset="0.60000002"
         style="stop-color:#6b6b6b;stop-opacity:0.1254902;" />
      <stop
         id="stop5408"
         offset="1"
         style="stop-color:black;stop-opacity:0.1254902;" />
    </linearGradient>
    <inkscape:perspective
       id="perspective48"
       inkscape:persp3d-origin="300 : 220 : 1"
       inkscape:vp_z="600 : 330 : 1"
       inkscape:vp_y="0 : 1000 : 0"
       inkscape:vp_x="0 : 330 : 1"
       sodipodi:type="inkscape:persp3d" />
  </defs>
  <g
     inkscape:groupmode="layer"
     id="layer3"
     inkscape:label="Fond écu"
     style="display:inline">
    <path
       id="path2855"
       style="fill:#000000;fill-opacity:1;fill-rule:evenodd;stroke:#000000;stroke-width:1.50000000000000000;stroke-linecap:butt;stroke-linejoin:miter;stroke-opacity:1;stroke-miterlimit:4;stroke-dasharray:none"
       d="M 300,658.5 C 300,383.1063 300,330.70187 300,0.5891749 L 1.5,2.1764765 L 1.5,260.72817 C 1.5,546.17969 300,658.5 300,658.5 z"
       sodipodi:nodetypes="ccccc" />
    <g
       transform="matrix(1.4549867,0,0,1.3777228,-185.07294,-415.31182)"
       id="g3371"
       inkscape:label="Calque 1" />
    <path
       id="path4935"
       style="fill:#2b5df2;fill-opacity:1;fill-rule:evenodd;stroke:#000000;stroke-width:1.5;stroke-linecap:butt;stroke-linejoin:miter;stroke-miterlimit:4;stroke-dasharray:none;stroke-opacity:1;display:inline"
       d="M 300,659.25 C 300,383.8563 300,331.45187 300,1.3391738 L 598.5,2.9264758 L 598.5,261.47817 C 598.5,546.92969 300,659.25 300,659.25 z"
       sodipodi:nodetypes="ccccc" />
    <g
       id="g5442"
       transform="translate(-525.5926,-431.63598)">
      <g
         style="display:inline"
         inkscape:label="Fond écu"
         id="g5444">
        <g
           transform="matrix(0.4178109,0.9119434,-0.4178109,0.9119434,415.84305,680.11309)"
           id="g3723"
           style="fill:#e20909">
          <path
             d="M 71.21631,-201.5 L 611.94374,-201.50002 C 687.25744,-245.15103 671.18957,-235.81355 717.17997,-267.28465 L 645.60238,-336.42483 L 66.7085,-336.42481 L 1.5,-271.21631 L 71.21631,-201.5 z"
             style="opacity:1;fill:#e20909;fill-opacity:1;fill-rule:evenodd;stroke:#000000;stroke-width:3;stroke-linecap:butt;stroke-linejoin:miter;stroke-miterlimit:4;stroke-dasharray:none;stroke-opacity:1;display:inline"
             id="path2808"
             sodipodi:nodetypes="ccccccc" />
          <path
             style="opacity:1;fill:#ffffff;fill-opacity:1;fill-rule:evenodd;stroke:#000000;stroke-width:3;stroke-linecap:butt;stroke-linejoin:miter;stroke-miterlimit:4;stroke-dasharray:none;stroke-opacity:1;display:inline"
             d="M 673.5,-268.5 L 673.5,-236.92704 C 680.48482,-242.19069 696.23991,-252.15621 717.0625,-268.5 L 673.5,-268.5 z"
             id="path2835"
             sodipodi:nodetypes="cccc" />
          <path
             style="opacity:1;fill:#ffffff;fill-opacity:1;fill-rule:evenodd;stroke:#000000;stroke-width:3;stroke-linecap:butt;stroke-linejoin:miter;stroke-miterlimit:4;stroke-dasharray:none;stroke-opacity:1;display:inline"
             d="M 598.5,-336.4375 L 598.5,-268.5 L 673.5,-268.5 L 671.95488,-310.75637 L 645.95633,-336.4375 L 598.5,-336.4375 z"
             id="path2832"
             sodipodi:nodetypes="cccccc" />
          <path
             style="opacity:1;fill:#ffffff;fill-opacity:1;fill-rule:evenodd;stroke:#000000;stroke-width:3;stroke-linecap:butt;stroke-linejoin:miter;stroke-miterlimit:4;stroke-dasharray:none;stroke-opacity:1;display:inline"
             d="M 523.5,-268.5 L 523.5,-201.5 L 598.5,-201.5 L 598.5,-268.5 L 523.5,-268.5 z"
             id="path2829" />
          <path
             style="opacity:1;fill:#ffffff;fill-opacity:1;fill-rule:evenodd;stroke:#000000;stroke-width:3;stroke-linecap:butt;stroke-linejoin:miter;stroke-miterlimit:4;stroke-dasharray:none;stroke-opacity:1;display:inline"
             d="M 448.5,-336.4375 L 448.5,-268.5 L 523.5,-268.5 L 523.5,-336.4375 L 448.5,-336.4375 z"
             id="path2826" />
          <path
             style="opacity:1;fill:#ffffff;fill-opacity:1;fill-rule:evenodd;stroke:#000000;stroke-width:3;stroke-linecap:butt;stroke-linejoin:miter;stroke-miterlimit:4;stroke-dasharray:none;stroke-opacity:1;display:inline"
             d="M 373.5,-268.5 L 373.5,-201.5 L 448.5,-201.5 L 448.5,-268.5 L 373.5,-268.5 z"
             id="path2823" />
          <path
             style="opacity:1;fill:#ffffff;fill-opacity:1;fill-rule:evenodd;stroke:#000000;stroke-width:3;stroke-linecap:butt;stroke-linejoin:miter;stroke-miterlimit:4;stroke-dasharray:none;stroke-opacity:1;display:inline"
             d="M 298.5,-336.9375 L 298.5,-268.5 L 373.5,-268.5 L 373.5,-336.9375 L 298.5,-336.9375 z"
             id="path2820" />
          <path
             style="opacity:1;fill:#ffffff;fill-opacity:1;fill-rule:evenodd;stroke:#000000;stroke-width:3;stroke-linecap:butt;stroke-linejoin:miter;stroke-miterlimit:4;stroke-dasharray:none;stroke-opacity:1;display:inline"
             d="M 223.5,-268.5 L 223.5,-201.5 L 298.5,-201.5 L 298.5,-268.5 L 223.5,-268.5 z"
             id="path2817" />
          <path
             style="opacity:1;fill:#ffffff;fill-opacity:1;fill-rule:evenodd;stroke:#000000;stroke-width:3;stroke-linecap:butt;stroke-linejoin:miter;stroke-miterlimit:4;stroke-dasharray:none;stroke-opacity:1;display:inline"
             d="M 148.5,-336.9375 L 148.5,-268.5 L 223.5,-268.5 L 223.5,-336.9375 L 148.5,-336.9375 z"
             id="path2814" />
          <path
             style="opacity:1;fill:#ffffff;fill-opacity:1;fill-rule:evenodd;stroke:#000000;stroke-width:3;stroke-linecap:butt;stroke-linejoin:miter;stroke-miterlimit:4;stroke-dasharray:none;stroke-opacity:1;display:inline"
             d="M 73.5,-268.5 L 73.5,-201.5 L 148.5,-201.5 L 148.5,-268.5 L 73.5,-268.5 z"
             id="path2811" />
          <path
             style="opacity:1;fill:#ffffff;fill-opacity:1;fill-rule:evenodd;stroke:#000000;stroke-width:3;stroke-linecap:butt;stroke-linejoin:miter;stroke-miterlimit:4;stroke-dasharray:none;stroke-opacity:1"
             d="M 66.71875,-336.4375 L 1.5,-271.21875 L 6.09375,-266.625 L 75,-266.625 L 75,-336.4375 L 66.71875,-336.4375 z"
             id="path2834" />
        </g>
        <g
           style="opacity:1;display:inline"
           inkscape:label="Fond écu"
           id="g6768"
           transform="translate(619.04591,-106.44804)">
          <path
             id="path2990"
             d="M 205.38343,540.18577 L 205.38343,631.00385 L 419.81608,1038.9996 C 441.3584,1009.5271 461.13495,980.98935 469.53128,958.47645 L 249.7375,540.18577 L 205.38343,540.18577 z"
             style="opacity:1;fill:#ffffff;fill-opacity:1;fill-rule:evenodd;stroke:#000000;stroke-width:2.10512567;stroke-linecap:butt;stroke-linejoin:miter;stroke-miterlimit:4;stroke-dasharray:none;stroke-opacity:1;display:inline"
             sodipodi:nodetypes="cccccc" />
          <path
             id="path4770"
             d="M 258.7416,540.18577 L 395.92619,800.8495 L 473.62671,948.48276 L 478.49373,939.75288 L 477.04053,936.99906 L 475.59925,934.26862 L 476.90105,931.50716 L 483.67349,917.17236 L 484.99079,914.41089 L 486.41656,917.17236 L 489.5494,906.75521 L 483.82847,895.88735 L 478.62128,885.98952 L 474.56091,894.64625 L 479.7681,904.51305 L 481.20938,907.27452 L 479.90758,910.00496 L 473.11964,924.33976 L 471.81784,927.10122 L 470.37657,924.37078 L 463.71261,911.77354 L 457.06415,899.14526 L 450.41568,886.57904 L 448.97441,883.8486 L 450.2917,881.08714 L 457.06415,866.75234 L 458.36594,863.99087 L 459.80722,866.69028 L 465.0144,876.55709 L 469.10577,867.93139 L 463.89858,858.03356 L 457.26561,845.40528 L 452.04293,835.50744 L 447.92057,844.22623 L 453.15875,854.12407 L 454.60003,856.82348 L 453.28274,859.58494 L 446.51029,873.91974 L 445.2085,876.71223 L 443.76722,873.9818 L 437.10326,861.32249 L 430.4548,848.72524 L 423.79084,836.128 L 422.34956,833.39756 L 423.66686,830.63609 L 430.4393,816.3013 L 431.7411,813.53983 L 433.18237,816.27027 L 438.40506,826.13708 L 442.52741,817.41829 L 437.32023,807.52046 L 430.67176,794.89218 L 425.48007,785.02537 L 421.31122,793.77518 L 426.53391,803.64199 L 427.95969,806.40346 L 426.65789,809.16492 L 419.88545,823.46869 L 418.58365,826.23016 L 417.14238,823.53075 L 410.49391,810.9335 L 403.81446,798.30523 L 400.45148,791.94455 L 397.135,785.70798 L 395.69372,782.97754 L 396.99552,780.21608 L 403.76796,765.88128 L 405.08526,763.11981 L 406.52653,765.81922 L 411.73372,775.68603 L 415.91807,766.84314 L 410.71088,756.9453 L 404.06242,744.34805 L 398.85523,734.41919 L 394.63989,743.35517 L 399.86257,753.253 L 401.28835,755.95241 L 399.98655,758.71388 L 393.21411,773.04868 L 391.91231,775.81014 L 390.47104,773.07971 L 383.82258,760.45143 L 377.17411,747.85418 L 370.51015,735.22591 L 369.06888,732.5265 L 370.37067,729.76503 L 377.14312,715.43023 L 378.44491,712.66877 L 379.88619,715.39921 L 385.09338,725.26602 L 389.33971,716.33004 L 384.13253,706.4322 L 377.48406,693.80392 L 372.26138,683.90609 L 368.03054,692.87309 L 373.23773,702.77093 L 374.679,705.5324 L 373.37721,708.29386 L 366.60476,722.59763 L 365.28747,725.3591 L 363.86169,722.65969 L 357.19773,710.03141 L 350.53377,697.43417 L 343.88531,684.80589 L 342.44403,682.07545 L 343.74583,679.31399 L 350.53377,664.97919 L 351.83557,662.21772 L 353.27684,664.94816 L 358.48403,674.81497 L 362.74586,665.81694 L 357.53868,655.95013 L 350.90571,643.32185 L 345.69852,633.42401 L 341.40569,642.4841 L 346.62838,652.35091 L 348.06965,655.08135 L 346.75236,657.84282 L 339.97992,672.17762 L 338.67812,674.93908 L 337.23684,672.20864 L 330.58838,659.6114 L 323.92442,646.98312 L 317.27596,634.38587 L 315.81919,631.62441 L 317.13648,628.89397 L 323.89343,614.55917 L 325.19522,611.79771 L 326.652,614.52814 L 331.85918,624.39495 L 336.15201,615.30384 L 330.96032,605.406 L 324.21888,592.59156 L 319.01169,582.72475 L 314.68786,591.84689 L 319.89505,601.7137 L 321.35182,604.44414 L 320.01903,607.20561 L 313.26209,621.5404 L 311.94479,624.30187 L 310.50352,621.57143 L 303.85505,608.97418 L 297.20659,596.37694 L 290.55813,583.77969 L 289.10136,581.04925 L 290.41865,578.28779 L 297.19109,563.95299 L 298.49289,561.19152 L 299.94966,563.92196 L 305.15685,573.78877 L 309.48068,564.60457 L 304.27349,554.73776 L 297.62503,542.10948 L 296.61768,540.18577 L 288.65193,540.18577 L 288.06302,541.42688 L 293.27021,551.29368 L 294.71148,554.02412 L 293.40968,556.78559 L 286.63725,571.12039 L 285.33545,573.88185 L 283.89417,571.12039 L 277.24571,558.52314 L 270.59725,545.95692 L 267.54423,540.18577 L 258.7416,540.18577 z M 273.16985,540.18577 L 273.30933,540.46502 L 279.94229,553.09329 L 285.14948,562.99113 L 289.5043,553.83796 L 284.31261,543.94012 L 282.87133,541.20968 L 283.35176,540.18577 L 273.16985,540.18577 z M 302.15032,540.18577 L 307.00106,549.43202 L 313.61853,562.0603 L 315.05981,564.82176 L 313.74251,567.5522 L 306.95457,581.85597 L 305.63728,584.61744 L 304.196,581.887 L 299.00431,571.98916 L 294.68049,581.08028 L 299.88767,590.97812 L 306.62912,603.79256 L 311.83631,613.65937 L 316.14464,604.59928 L 310.95295,594.70144 L 309.51167,591.93998 L 310.81347,589.20954 L 317.60141,574.90577 L 318.9187,572.17533 L 320.35998,574.90577 L 326.99294,587.56507 L 333.64141,600.19334 L 340.27437,612.85265 L 341.70015,615.58309 L 340.39835,618.34455 L 333.61041,632.61729 L 332.29312,635.40979 L 330.85184,632.64832 L 325.66015,622.75048 L 321.36732,631.81057 L 326.57451,641.67738 L 333.22297,654.30566 L 338.41466,664.2035 L 342.69199,655.20546 L 337.48481,645.30762 L 336.05903,642.54616 L 337.36083,639.81572 L 344.14877,625.48092 L 345.46606,622.75048 L 346.90734,625.48092 L 353.5403,638.14023 L 360.17327,650.7685 L 366.82173,663.45883 L 368.24751,666.15824 L 366.94571,668.95073 L 360.15777,683.22348 L 358.84047,685.98494 L 357.3992,683.22348 L 352.19201,673.32564 L 347.94567,682.29265 L 353.15286,692.19048 L 359.80132,704.81876 L 365.00851,714.7166 L 369.23935,705.78062 L 364.03216,695.88278 L 362.60639,693.12131 L 363.90818,690.39088 L 370.71162,676.11813 L 372.02892,673.35667 L 373.45469,676.08711 L 380.08766,688.74641 L 386.72062,701.37468 L 393.36909,714.03399 L 394.79486,716.76442 L 393.49307,719.52589 L 386.70513,733.79863 L 385.38783,736.5601 L 383.96205,733.86069 L 378.75487,723.9008 L 374.52403,732.80575 L 379.73121,742.70358 L 386.37968,755.33186 L 391.58686,765.2297 L 395.78671,756.3868 L 390.57952,746.48896 L 389.15374,743.75853 L 390.47104,740.99706 L 397.25898,726.69329 L 398.57627,723.93182 L 400.01755,726.69329 L 403.30304,732.99191 L 406.63502,739.38362 L 413.28348,752.07395 L 419.93194,764.73325 L 421.35772,767.46369 L 420.04042,770.22516 L 413.25248,784.4979 L 411.95069,787.22834 L 410.49391,784.52893 L 405.30222,774.60006 L 401.14887,783.3809 L 406.35606,793.27874 L 412.98902,805.90701 L 418.19621,815.77382 L 422.33407,807.08607 L 417.14238,797.18823 L 415.7011,794.42676 L 417.0029,791.6653 L 423.82183,777.36153 L 425.12363,774.63109 L 426.54941,777.36153 L 433.18237,789.9898 L 439.83083,802.64911 L 446.4793,815.30841 L 447.92057,818.03885 L 446.58778,820.80031 L 439.79984,835.10408 L 438.48255,837.86555 L 437.05677,835.10408 L 431.84958,825.17522 L 427.71173,833.86298 L 432.93441,843.79184 L 439.58287,856.38909 L 444.77456,866.28692 L 448.88142,857.66122 L 443.68973,847.76339 L 442.26395,845.00192 L 443.56575,842.27148 L 450.35369,827.96771 L 451.67099,825.20625 L 453.11226,827.93668 L 459.72973,840.56496 L 466.37819,853.22426 L 473.01116,865.85254 L 474.45243,868.614 L 473.13514,871.37547 L 466.3472,885.67924 L 465.0299,888.4407 L 463.58863,885.67924 L 458.39694,875.7814 L 454.30558,884.37608 L 459.49727,894.27391 L 466.16123,906.93322 L 471.36841,916.80003 L 475.44428,908.26741 L 470.25259,898.33854 L 468.81131,895.6081 L 470.11311,892.84664 L 476.90105,878.54287 L 478.21834,875.81243 L 479.65962,878.54287 L 486.29258,891.20217 L 491.10556,900.3869 L 494.27297,888.39164 L 407.50288,723.49744 L 311.03043,540.18577 L 302.15032,540.18577 z M 205.38343,648.78273 L 205.38343,665.53769 L 209.86223,674.07031 L 216.47969,686.69858 L 223.11266,699.32686 L 224.55393,702.08832 L 223.25214,704.84979 L 216.4642,719.12253 L 215.1469,721.884 L 213.70563,719.12253 L 208.51394,709.22469 L 205.38343,715.83359 L 205.38343,720.79803 L 209.35081,728.33776 L 215.99927,740.96603 L 221.20646,750.83284 L 225.56128,741.7107 L 220.35409,731.81286 L 218.91281,729.05139 L 220.23011,726.32096 L 227.01805,711.98616 L 228.33534,709.25572 L 229.77662,711.98616 L 236.40958,724.64546 L 243.04255,737.27374 L 249.67551,749.90201 L 251.10129,752.66348 L 249.79949,755.42494 L 243.01155,769.69769 L 241.69426,772.49018 L 240.25298,769.72871 L 235.06129,759.83088 L 230.73747,768.95302 L 235.92916,778.81983 L 242.67061,791.63427 L 247.87779,801.53211 L 252.20162,792.44099 L 246.99443,782.54315 L 245.55316,779.81272 L 246.87045,777.05125 L 253.65839,762.77851 L 254.97569,760.01704 L 256.40146,762.77851 L 263.04993,775.40678 L 269.69839,788.06609 L 276.31586,800.69436 L 277.75713,803.45583 L 276.45534,806.18626 L 269.6519,820.49004 L 268.3501,823.2515 L 266.90882,820.52106 L 261.71714,810.62323 L 257.42431,819.65229 L 262.61599,829.55012 L 269.26446,842.1784 L 274.47164,852.04521 L 278.73348,843.04718 L 273.54179,833.14934 L 272.10051,830.4189 L 273.41781,827.65743 L 280.20575,813.35366 L 281.52304,810.5922 L 282.94882,813.35366 L 289.59728,825.98194 L 296.23024,838.64124 L 302.87871,851.30054 L 304.30448,854.03098 L 303.00269,856.79245 L 296.19925,871.09622 L 294.89745,873.82666 L 293.45618,871.09622 L 288.24899,861.19838 L 283.98716,870.13436 L 289.20984,880.0322 L 295.8428,892.66047 L 301.06549,902.55831 L 305.28083,893.62233 L 300.08914,883.72449 L 298.64787,880.99406 L 299.96516,878.23259 L 306.7686,863.95985 L 308.0704,861.19838 L 309.49617,863.95985 L 316.14464,876.58812 L 322.7776,889.24742 L 329.42606,901.8757 L 330.85184,904.63717 L 329.55004,907.3676 L 322.74661,921.67137 L 321.44481,924.40181 L 320.01903,921.7024 L 314.81184,911.77354 L 310.56551,920.64746 L 315.78819,930.57633 L 322.43665,943.17357 L 327.64384,953.07141 L 331.82819,944.22851 L 326.6365,934.33068 L 325.21072,931.60024 L 326.51252,928.83877 L 333.31596,914.535 L 334.61775,911.77354 L 336.05903,914.535 L 339.36001,920.86465 L 342.69199,927.25636 L 349.34046,939.91566 L 355.97342,952.57497 L 357.3992,955.3054 L 356.0974,958.06687 L 349.30946,972.33961 L 347.99217,975.10108 L 346.55089,972.37064 L 341.3592,962.44178 L 337.20585,971.25364 L 342.39754,981.12045 L 349.046,993.74873 L 354.25319,1003.6466 L 358.39104,994.92778 L 353.18386,985.02994 L 351.74258,982.26848 L 353.05988,979.53804 L 359.86331,965.23427 L 361.18061,962.4728 L 362.60639,965.20324 L 369.23935,977.86254 L 375.87232,990.49082 L 382.52078,1003.1502 L 383.96205,1005.8806 L 382.64476,1008.642 L 375.84132,1022.9458 L 374.53952,1025.7073 L 373.11375,1022.9768 L 367.90656,1013.017 L 363.7687,1021.7357 L 368.97589,1031.6336 L 375.62435,1044.2618 L 380.83154,1054.1286 L 384.9384,1045.5029 L 379.73121,1035.6051 L 378.30544,1032.8747 L 379.62273,1030.1132 L 386.41067,1015.8404 L 387.72797,1013.0479 L 389.16924,1015.7784 L 395.78671,1028.4377 L 402.41967,1041.066 L 408.46516,1052.5503 L 414.41405,1045.9553 L 343.55986,911.33915 L 205.38343,648.78273 z M 205.38343,676.18019 L 205.38343,704.69465 L 206.8402,701.62291 L 208.142,698.86144 L 209.58327,701.59188 L 214.79046,711.45869 L 219.11428,702.27449 L 213.92259,692.40768 L 207.27413,679.7794 L 205.38343,676.18019 z M 228.6453,720.39467 L 224.33697,729.51681 L 229.54416,739.38362 L 230.98543,742.11406 L 229.66814,744.87552 L 222.89569,759.21032 L 221.5939,761.97179 L 220.15262,759.24135 L 213.50416,746.6441 L 206.8402,734.04686 L 205.38343,731.28539 L 205.38343,748.13343 L 305.57529,938.51942 L 380.89827,1081.6524 L 386.68963,1074.669 L 385.23285,1071.9385 L 386.55015,1069.1771 L 393.30709,1054.8423 L 394.63989,1052.0808 L 396.06566,1054.8423 L 400.11339,1062.6529 L 405.33322,1056.1144 L 400.12603,1046.2166 L 393.47757,1033.5573 L 388.27038,1023.6594 L 384.19452,1032.3162 L 389.4017,1042.183 L 390.84298,1044.9444 L 389.54118,1047.6749 L 382.75324,1062.0097 L 381.45145,1064.7712 L 380.01017,1062.0407 L 373.36171,1049.4435 L 366.69775,1036.8152 L 360.04928,1024.249 L 358.60801,1021.5186 L 359.9253,1018.757 L 366.69775,1004.4222 L 367.99954,1001.6608 L 369.44082,1004.3602 L 374.64801,1014.227 L 378.75487,1005.6013 L 373.54768,995.70347 L 366.89922,983.0752 L 361.69203,973.17736 L 357.56967,981.89615 L 362.79236,991.79398 L 364.23363,994.49339 L 362.93184,997.2549 L 356.14389,1011.5897 L 354.8421,1014.3822 L 353.40082,1011.6518 L 346.73686,998.99245 L 340.0884,986.39516 L 333.43994,973.79792 L 331.99866,971.06748 L 333.30046,968.30601 L 340.0884,953.97121 L 341.3902,951.20975 L 342.83147,953.94019 L 348.03866,963.80699 L 352.16102,955.08821 L 346.96933,945.19037 L 340.32086,932.5621 L 335.11368,922.69529 L 330.94483,931.4451 L 336.18301,941.31191 L 337.60879,944.07338 L 336.30699,946.83484 L 329.53455,961.13861 L 328.23275,963.90008 L 326.79148,961.20067 L 320.12751,948.60342 L 313.46355,935.97515 L 310.10058,929.61447 L 306.7686,923.3779 L 305.32732,920.64746 L 306.62912,917.88599 L 313.41706,903.5512 L 314.71886,900.78973 L 316.16013,903.48914 L 321.36732,913.35595 L 325.55167,904.51305 L 320.35998,894.61522 L 313.71152,882.01797 L 308.48883,872.08911 L 304.28899,881.02508 L 309.51167,890.92292 L 310.93745,893.62233 L 309.63565,896.3838 L 302.86321,910.7186 L 301.56141,913.48006 L 300.12014,910.74962 L 293.45618,898.12135 L 286.80772,885.5241 L 280.15926,872.89583 L 278.71798,870.19642 L 280.01978,867.43495 L 286.77672,853.10015 L 288.09402,850.33869 L 289.53529,853.06912 L 294.74248,862.93593 L 298.97332,853.99995 L 293.76613,844.10212 L 287.11767,831.47384 L 281.91048,821.576 L 277.66415,830.54301 L 282.87133,840.44085 L 284.32811,843.20231 L 283.01081,845.93275 L 276.25387,860.26755 L 274.93657,863.02902 L 273.51079,860.32961 L 266.83134,847.70133 L 260.18287,835.10408 L 253.51891,822.47581 L 252.07764,819.74537 L 253.37944,816.9839 L 260.16738,802.64911 L 261.46917,799.88764 L 262.91045,802.61808 L 268.13313,812.48489 L 272.39497,803.48685 L 267.18778,793.62004 L 260.53932,780.99177 L 255.33213,771.09393 L 251.0548,780.15402 L 256.26199,790.02083 L 257.70326,792.75127 L 256.38597,795.51273 L 249.61352,809.84753 L 248.31173,812.609 L 246.87045,809.87856 L 240.22199,797.28131 L 233.55803,784.65304 L 226.90957,772.05579 L 225.46829,769.29433 L 226.77009,766.56389 L 233.54253,752.22909 L 234.84433,749.46762 L 236.2856,752.19806 L 241.49279,762.06487 L 245.80112,752.97375 L 240.59393,743.07592 L 233.85248,730.26148 L 228.6453,720.39467 z"
             style="opacity:1;fill:#fcef3c;fill-opacity:1;fill-rule:evenodd;stroke:#000000;stroke-width:1.40341711;stroke-linecap:butt;stroke-linejoin:miter;stroke-miterlimit:4;stroke-dasharray:none;stroke-opacity:1;display:inline"
             sodipodi:nodetypes="cccccccccccccccccccccccccccccccccccccccccccccccccccccccccccccccccccccccccccccccccccccccccccccccccccccccccccccccccccccccccccccccccccccccccccccccccccccccccccccccccccccccccccccccccccccccccccccccccccccccccccccccccccccccccccccccccccccccccccccccccccccccccccccccccccccccccccccccccccccccccccccccccccccccccccccccccccccccccccccccccccccccccccccccccccccccccccccccccccccccccccccccccccccccccccccccccccccccccccccccccccccccccccccccccccccccccccccccccccccccccccccccccccccccccccccccccccccccccccccccccccccccccccccccccccccccccccccccccccccccccccccccccccccccccccccccccccccccccccccccccccccccccccccccccccccccccccccccccccccccccccccccccccccccccccccccccccc" />
        </g>
      </g>
      <g
         sodipodi:insensitive="true"
         inkscape:label="Meubles"
         id="g5459" />
      <g
         inkscape:label="Reflet final"
         id="g5461" />
      <g
         inkscape:label="Contour final"
         id="g5463" />
    </g>
  </g>
  <g
     inkscape:groupmode="layer"
     id="layer4"
     inkscape:label="Meubles"
     sodipodi:insensitive="true" />
  <g
     inkscape:groupmode="layer"
     id="layer2"
     inkscape:label="Reflet final"
     sodipodi:insensitive="true">
    <path
       sodipodi:nodetypes="cccccc"
       d="M 300.00001,658.5 C 300.00001,658.5 598.50001,546.17969 598.50001,260.72817 C 598.50001,-24.723334 598.50001,2.1764865 598.50001,2.1764865 L 1.5,2.1764865 L 1.5,260.72817 C 1.5,546.17969 300.00001,658.5 300.00001,658.5 z "
       style="opacity:1;fill:url(#radialGradient3163);fill-opacity:1;fill-rule:evenodd;stroke:none;stroke-width:1px;stroke-linecap:butt;stroke-linejoin:miter;stroke-opacity:1"
       id="path2875"
       inkscape:export-xdpi="144"
       inkscape:export-ydpi="144" />
  </g>
  <g
     inkscape:groupmode="layer"
     id="layer1"
     inkscape:label="Contour final"
     sodipodi:insensitive="true">
    <path
       sodipodi:nodetypes="cccccc"
       d="M 299.99999,658.50028 C 299.99999,658.50028 1.5,546.17992 1.5,260.72828 C 1.5,-24.723336 1.5,2.1764957 1.5,2.1764957 L 598.49999,2.1764957 L 598.49999,260.72828 C 598.49999,546.17992 299.99999,658.50028 299.99999,658.50028 z "
       style="opacity:1;fill:none;fill-opacity:1;fill-rule:evenodd;stroke:#000000;stroke-width:3.00000048;stroke-linecap:butt;stroke-linejoin:miter;stroke-miterlimit:4;stroke-dasharray:none;stroke-opacity:1"
       id="path1411"
       inkscape:export-xdpi="144"
       inkscape:export-ydpi="144" />
  </g>
</svg>
