<?xml version="1.0" encoding="UTF-8" standalone="no"?>
<svg
   xmlns:dc="http://purl.org/dc/elements/1.1/"
   xmlns:cc="http://creativecommons.org/ns#"
   xmlns:rdf="http://www.w3.org/1999/02/22-rdf-syntax-ns#"
   xmlns:svg="http://www.w3.org/2000/svg"
   xmlns="http://www.w3.org/2000/svg"
   xmlns:xlink="http://www.w3.org/1999/xlink"
   xmlns:sodipodi="http://sodipodi.sourceforge.net/DTD/sodipodi-0.dtd"
   xmlns:inkscape="http://www.inkscape.org/namespaces/inkscape"
   width="600"
   height="660"
   viewBox="0 0 600 660"
   id="svg2"
   sodipodi:version="0.32"
   inkscape:version="0.46"
   sodipodi:docname="Blason_ville_fr_Sainte-Marie-de-Vaux-A_87.svg"
   inkscape:output_extension="org.inkscape.output.svg.inkscape"
   version="1.0">
  <metadata
     id="metadata28">
    <rdf:RDF>
      <cc:Work
         rdf:about="">
        <dc:format>image/svg+xml</dc:format>
        <dc:type
           rdf:resource="http://purl.org/dc/dcmitype/StillImage" />
        <dc:title />
      </cc:Work>
    </rdf:RDF>
  </metadata>
  <sodipodi:namedview
     inkscape:window-height="977"
     inkscape:window-width="1280"
     inkscape:pageshadow="2"
     inkscape:pageopacity="0.0"
     guidetolerance="10.0"
     gridtolerance="10.0"
     objecttolerance="10.0"
     borderopacity="1.0"
     bordercolor="#666666"
     pagecolor="#ffffff"
     id="base"
     showgrid="false"
     inkscape:zoom="1.1863636"
     inkscape:cx="300"
     inkscape:cy="330"
     inkscape:window-x="-4"
     inkscape:window-y="-4"
     inkscape:current-layer="layer3"
     inkscape:object-nodes="true"
     inkscape:window-maximized="1" />
  <defs
     id="defs4">
    <radialGradient
       id="Gradient1"
       gradientUnits="userSpaceOnUse"
       cx="-80"
       cy="-80"
       r="405">
      <stop
         style="stop-color:#fff;stop-opacity:0.31"
         offset="0"
         id="stop7" />
      <stop
         style="stop-color:#fff;stop-opacity:0.25"
         offset="0.19"
         id="stop9" />
      <stop
         style="stop-color:#6b6b6b;stop-opacity:0.125"
         offset="0.6"
         id="stop11" />
      <stop
         style="stop-color:#000;stop-opacity:0.125"
         offset="1"
         id="stop13" />
    </radialGradient>
    <clipPath
       id="shield_cut">
      <path
         id="shield"
         d="M -298.5,-298.5 L 298.5,-298.5 L 298.5,-40 C 298.5,246.31 0,358.5 0,358.5 C 0,358.5 -298.5,246.31 -298.5,-40 L -298.5,-298.5 z" />
    </clipPath>
  </defs>
  <g
     id="layer4"
     inkscape:label="Fond écu"
     inkscape:groupmode="layer"
     transform="translate(300,300)">
    <use
       xlink:href="#shield"
       id="use18"
       style="fill:#ffffff"
       x="0"
       y="0"
       width="600"
       height="660" />
  </g>
  <g
     id="layer3"
     inkscape:label="Meubles"
     inkscape:groupmode="layer"
     transform="translate(300,300)">
    <g
       id="g3700"
       transform="matrix(1.08,0,0,1.2,27.409195,106.72924)">
      <path
         style="fill:#000000;fill-opacity:1;fill-rule:nonzero;stroke:#313131;stroke-width:2.06249976;stroke-linecap:butt;stroke-linejoin:miter;stroke-miterlimit:4;stroke-dasharray:none;stroke-dashoffset:0;stroke-opacity:1"
         d="M -128.64559,58.18132 C -128.81257,60.2297 -126.80403,63.11993 -124.91357,63.92611 C -121.83415,65.23931 -116.83498,64.79632 -116.67536,61.4524 C -116.30809,53.7583 -104.72314,52.69157 -104.72314,52.69157 L -44.378029,59.35677 L -40.227334,39.51284 L -108.27108,44.02203 C -108.27108,44.02203 -117.76017,47.44425 -121.13102,49.93165 C -123.82475,51.91939 -128.37358,54.84465 -128.64559,58.18132 z"
         id="path23700"
         sodipodi:nodetypes="cssccccss" />
      <path
         sodipodi:nodetypes="cscsccc"
         id="path23742"
         d="M -49.16546,-44.24607 C -46.679995,-49.40598 -41.242396,-54.30251 -41.065486,-60.0646 C -40.899588,-65.46784 -43.023214,-70.98496 -36.08891,-71.8696 C -36.08891,-71.8696 -34.881309,-62.7623 -33.272589,-59.22457 C -31.285703,-54.85519 -30.627144,-51.75186 -30.233076,-48.22029 C -29.10369,-45.13976 -22.959626,-40.0527 -22.959626,-40.0527 C -36.650878,-21.96952 -67.67078,-17.39145 -49.16546,-44.24607 z"
         style="fill:#000000;fill-opacity:1;fill-rule:nonzero;stroke:#313131;stroke-width:2.06249976;stroke-linecap:butt;stroke-linejoin:miter;stroke-miterlimit:4;stroke-dasharray:none;stroke-dashoffset:0;stroke-opacity:1" />
      <path
         style="fill:#000000;fill-opacity:1;fill-rule:nonzero;stroke:#313131;stroke-width:2.74999976;stroke-linecap:butt;stroke-linejoin:miter;stroke-miterlimit:4;stroke-dasharray:none;stroke-dashoffset:0;stroke-opacity:1"
         d="M -100.01133,32.21846 C -103.97237,19.84902 -101.18277,5.68237 -101.85242,-4.39262 C -105.52369,-4.88133 -115.25243,16.27711 -111.54854,34.99502 L -100.01133,32.21846 z"
         id="path23523"
         sodipodi:nodetypes="cccc" />
      <path
         sodipodi:nodetypes="ccccccccccccccsssccccccccccccccccccsscscccccccccccc"
         id="path23745"
         d="M 30.904243,-56.4814 C 27.027566,-55.37937 22.880075,-52.56025 18.502932,-47.89722 L 23.210639,-56.69484 L 11.779941,-48.84208 L -16.442824,-49.94472 C -20.421608,-52.91132 -15.423964,-57.25887 -13.836885,-61.0771 L -28.755582,-47.85675 L -37.201989,-42.40499 L -47.183666,-38.68769 L -53.351664,-25.36568 C -80.918797,-9.57282 -87.567216,23.49983 -142.56575,16.63862 C -143.11514,21.16554 -142.73565,26.46633 -137.90497,35.34432 L -132.35615,35.69024 L -125.85948,41.33291 C -103.99569,46.02372 -94.671496,47.39364 -84.58542,47.1336 C -73.941143,46.85919 -60.6386,56.84832 -53.137782,51.23426 C -48.310992,47.62339 -43.054393,51.44492 -53.851023,54.44702 C -62.148725,56.75428 -70.349991,51.63092 -78.580959,50.10364 L -100.04807,50.94843 C -111.01631,53.90843 -114.31231,56.66617 -111.07856,58.42353 L -99.829112,61.74018 L -82.561627,63.29914 L -73.937431,69.24082 L -55.601353,73.07613 L -56.788398,69.48141 L -43.329536,74.36691 C -45.303624,71.5966 -49.09153,68.87631 -47.754104,66.02147 C -37.737762,74.45387 -29.510965,67.55759 -2.280415,69.4184 C -5.194025,76.36702 0.795047,77.89592 7.253974,76.8974 C 3.266585,69.20369 13.704011,70.20548 40.898534,68.45746 C 51.793072,75.40559 59.05196,73.49875 63.44367,71.36563 C 53.945628,63.45629 56.237876,59.46925 63.355353,56.55687 C 89.78235,47.21562 70.005234,46.28535 64.430163,37.48571 C 73.74237,46.99769 99.88344,35.67197 89.67117,23.37295 C 80.50527,31.32376 75.21278,20.90946 70.378821,17.68046 C 75.82081,17.0892 83.78301,15.56622 85.52882,10.85825 C 86.92977,7.08033 85.6513,-0.08135 85.57712,0.01728 C 78.93877,8.84309 73.3304,5.55873 67.405054,-1.04615 C 76.74253,-4.26107 85.26802,-7.82448 75.75484,-14.38046 C 73.49625,-15.93698 94.49376,-15.50591 79.41604,-23.75907 C 83.51,-28.39505 81.72167,-24.23136 83.89006,-28.42399 C 81.10876,-32.26735 79.78499,-34.32463 75.20997,-34.89421 L 81.63074,-38.59128 C 76.22712,-40.16718 72.665,-43.117 62.210426,-40.88671 L 69.704849,-45.43088 C 63.677402,-46.15124 57.803635,-47.2986 50.72292,-44.67073 L 56.030014,-49.0884 C 51.305222,-50.65117 45.076581,-50.65674 36.131292,-47.97979 L 42.085845,-53.60819 C 36.305288,-53.90678 31.095395,-53.24336 27.766079,-49.58935 L 30.904243,-56.4814 z"
         style="fill:#000000;fill-opacity:1;fill-rule:nonzero;stroke:#313131;stroke-width:2.74999976;stroke-linecap:butt;stroke-linejoin:miter;stroke-miterlimit:4;stroke-dasharray:none;stroke-dashoffset:0;stroke-opacity:1" />
      <path
         sodipodi:nodetypes="ccsc"
         id="path23747"
         d="M -69.95557,8.38436 C -63.218134,12.31396 -48.20426,10.41519 -43.491359,2.79514 C -48.139164,-1.3796 -54.68475,-0.68072 -58.19691,0.08644 C -61.765654,0.86597 -66.28682,3.29167 -69.95557,8.38436 z"
         style="fill:#ffffff;fill-opacity:1;fill-rule:nonzero;stroke:#313131;stroke-width:2.74999976;stroke-linecap:butt;stroke-linejoin:miter;stroke-miterlimit:4;stroke-dasharray:none;stroke-dashoffset:0;stroke-opacity:1" />
      <path
         sodipodi:nodetypes="ccccc"
         id="path23749"
         d="M -59.729258,1.94463 C -60.284603,4.76003 -59.42162,6.73485 -57.642336,8.79931 C -54.624321,8.42942 -51.27352,7.38166 -49.316646,6.23106 C -52.633179,6.61015 -56.67458,4.67102 -56.078191,1.09447 C -57.417151,1.19981 -58.110139,1.34669 -59.729258,1.94463 z"
         style="fill:#000000;fill-opacity:1;fill-rule:nonzero;stroke:none;stroke-width:1;stroke-linecap:butt;stroke-linejoin:miter;stroke-miterlimit:4;stroke-dasharray:none;stroke-dashoffset:0;stroke-opacity:1" />
      <path
         sodipodi:nodetypes="csccc"
         id="path23751"
         d="M -97.30873,51.34154 C -97.30873,51.34154 -89.552552,51.86052 -85.083783,51.53691 C -83.526784,51.42415 -80.227588,49.66748 -80.227588,49.66748 C -101.96188,36.22959 -94.823455,11.08823 -95.852424,-4.39262 C -100.69154,-5.03679 -116.05491,31.9288 -97.30873,51.34154 z"
         style="fill:#000000;fill-opacity:1;fill-rule:nonzero;stroke:#313131;stroke-width:2.74999976;stroke-linecap:butt;stroke-linejoin:miter;stroke-miterlimit:4;stroke-dasharray:none;stroke-dashoffset:0;stroke-opacity:1" />
      <path
         sodipodi:nodetypes="csssc"
         id="path23753"
         d="M -70.07278,2.83325 C -70.07278,2.83325 -64.096557,-1.50335 -61.150376,-2.54779 C -58.549359,-3.46986 -54.793981,-3.64369 -52.039954,-3.81932 C -49.675088,-3.97014 -46.504473,-3.90869 -44.141547,-3.73004 C -41.042082,-3.49569 -33.881316,-2.28806 -33.881316,-2.28806"
         style="fill:none;fill-opacity:1;fill-rule:nonzero;stroke:#000000;stroke-width:2.06249976;stroke-linecap:butt;stroke-linejoin:miter;stroke-miterlimit:4;stroke-dasharray:none;stroke-dashoffset:0;stroke-opacity:1" />
      <path
         sodipodi:nodetypes="ccc"
         id="path23755"
         d="M -19.764553,-33.73424 C -20.048581,-53.74302 0.673267,-57.94589 9.812218,-71.68419 C 20.643252,-48.73441 13.909256,-14.22828 -10.80968,-24.81996"
         style="fill:#000000;fill-opacity:1;fill-rule:nonzero;stroke:#313131;stroke-width:2.06249976;stroke-linecap:butt;stroke-linejoin:miter;stroke-miterlimit:4;stroke-dasharray:none;stroke-dashoffset:0;stroke-opacity:1" />
      <path
         sodipodi:nodetypes="ccc"
         id="path23757"
         d="M 3.131232,-55.0149 L 8.266051,-62.4692 C 10.319045,-49.48338 1.581989,-36.78485 -7.638955,-29.22299"
         style="fill:none;fill-opacity:1;fill-rule:nonzero;stroke:#313131;stroke-width:2.06249976;stroke-linecap:butt;stroke-linejoin:miter;stroke-miterlimit:4;stroke-dasharray:none;stroke-dashoffset:0;stroke-opacity:1" />
      <path
         sodipodi:nodetypes="cc"
         id="path23759"
         d="M -44.756357,-40.00965 C -37.476591,-51.3813 -37.330012,-58.62521 -38.612885,-66.92236"
         style="fill:none;fill-opacity:1;fill-rule:nonzero;stroke:#313131;stroke-width:2.06249976;stroke-linecap:butt;stroke-linejoin:miter;stroke-miterlimit:4;stroke-dasharray:none;stroke-dashoffset:0;stroke-opacity:1" />
      <path
         style="fill:none;stroke:#313131;stroke-width:2.4230113;stroke-linejoin:round;stroke-miterlimit:4;stroke-dasharray:none;stroke-opacity:1"
         id="path23761"
         d="M -39.392231,44.71089 C -32.486977,46.35163 -22.291416,50.27685 -26.773433,56.50127 C -26.773433,56.50127 -23.971248,57.46969 -24.011568,57.40664 C -23.314876,55.78967 -21.220112,53.99651 -20.280545,52.13692 C -18.101002,54.1968 -14.38253,55.62171 -12.003296,57.46634 C -12.727212,56.16933 -13.38424,53.23491 -14.213003,51.93011 C -11.557037,56.07622 -3.016184,60.12506 2.329567,62.84414 C 0.684103,59.95445 0.153387,56.86711 -1.082823,54.03351 C 1.78977,56.97998 6.482295,58.51824 11.194615,59.53645 C 8.87216,56.40822 8.497412,53.24246 8.565624,49.996 C 10.585268,51.41713 13.9196,51.92881 16.104489,53.52869 C 7.232853,47.03607 21.449168,36.80892 28.411863,37.04171"
         sodipodi:nodetypes="ccccccccccsc" />
    </g>
    <use
       x="0"
       y="0"
       xlink:href="#g3700"
       id="use3727"
       transform="translate(-143,-250)"
       width="600"
       height="660" />
    <use
       x="0"
       y="0"
       xlink:href="#g3700"
       id="use3729"
       transform="translate(143,-250)"
       width="600"
       height="660" />
  </g>
  <g
     id="layer2"
     inkscape:label="Reflet final"
     inkscape:groupmode="layer"
     transform="translate(300,300)"
     sodipodi:insensitive="true">
    <use
       xlink:href="#shield"
       id="use22"
       style="fill:url(#Gradient1)"
       x="0"
       y="0"
       width="600"
       height="660" />
  </g>
  <g
     id="layer1"
     inkscape:label="Contour final"
     inkscape:groupmode="layer"
     transform="translate(300,300)"
     sodipodi:insensitive="true">
    <use
       xlink:href="#shield"
       style="fill:none;stroke:#000000;stroke-width:3"
       id="use25"
       x="0"
       y="0"
       width="600"
       height="660" />
  </g>
</svg>
