<?xml version="1.0" encoding="UTF-8" standalone="no"?>
<svg
   xmlns:dc="http://purl.org/dc/elements/1.1/"
   xmlns:cc="http://creativecommons.org/ns#"
   xmlns:rdf="http://www.w3.org/1999/02/22-rdf-syntax-ns#"
   xmlns:svg="http://www.w3.org/2000/svg"
   xmlns="http://www.w3.org/2000/svg"
   xmlns:xlink="http://www.w3.org/1999/xlink"
   xmlns:sodipodi="http://sodipodi.sourceforge.net/DTD/sodipodi-0.dtd"
   xmlns:inkscape="http://www.inkscape.org/namespaces/inkscape"
   height="660"
   width="600"
   version="1.0"
   id="svg2"
   sodipodi:version="0.32"
   inkscape:version="0.48.1 "
   sodipodi:docname="Blason ville fr Le Verdon-sur-mer (Gironde).svg"
   inkscape:export-filename="C:\Users\Henry\Pictures\Mes images\Blas\Blasons miens png\Nouveaux\Blason 33 Le Verdon-sur-mer.png"
   inkscape:export-xdpi="144"
   inkscape:export-ydpi="144"
   style="display:inline">
  <metadata
     id="metadata49">
    <rdf:RDF>
      <cc:Work
         rdf:about="">
        <dc:format>image/svg+xml</dc:format>
        <dc:type
           rdf:resource="http://purl.org/dc/dcmitype/StillImage" />
        <dc:title></dc:title>
        <dc:date>03-AUG-2006</dc:date>
        <dc:creator>
          <cc:Agent>
            <dc:title>Jérôme BLUM (wagner51)</dc:title>
          </cc:Agent>
        </dc:creator>
        <cc:license
           rdf:resource="http://web.resource.org/cc/PublicDomain" />
        <dc:language>fr</dc:language>
        <dc:subject>
          <rdf:Bag>
            <rdf:li>gabarit modèle blason projet wikipédia</rdf:li>
          </rdf:Bag>
        </dc:subject>
      </cc:Work>
      <cc:License
         rdf:about="http://web.resource.org/cc/PublicDomain">
        <cc:permits
           rdf:resource="http://web.resource.org/cc/Reproduction" />
        <cc:permits
           rdf:resource="http://web.resource.org/cc/Distribution" />
        <cc:permits
           rdf:resource="http://web.resource.org/cc/DerivativeWorks" />
      </cc:License>
    </rdf:RDF>
  </metadata>
  <sodipodi:namedview
     inkscape:window-height="1002"
     inkscape:window-width="1280"
     inkscape:pageshadow="2"
     inkscape:pageopacity="0.0"
     guidetolerance="10.0"
     gridtolerance="10.0"
     objecttolerance="10.0"
     borderopacity="1.0"
     bordercolor="#666666"
     pagecolor="#ffffff"
     id="base"
     showgrid="false"
     height="660px"
     inkscape:zoom="1.2121212"
     inkscape:cx="300"
     inkscape:cy="330"
     inkscape:window-x="-8"
     inkscape:window-y="-8"
     inkscape:current-layer="layer4"
     inkscape:window-maximized="1"
     showguides="true"
     inkscape:guide-bbox="true">
    <inkscape:grid
       type="xygrid"
       id="grid4240"
       empspacing="5"
       visible="true"
       enabled="true"
       snapvisiblegridlinesonly="true" />
  </sodipodi:namedview>
  <desc
     id="desc4">Flag of Canton of Valais (Wallis)</desc>
  <defs
     id="defs6">
    <linearGradient
       id="linearGradient2893">
      <stop
         style="stop-color: white; stop-opacity: 0.313726;"
         offset="0"
         id="stop2895" />
      <stop
         id="stop2897"
         offset="0.19"
         style="stop-color: white; stop-opacity: 0.25098;" />
      <stop
         style="stop-color: rgb(107, 107, 107); stop-opacity: 0.12549;"
         offset="0.60000002"
         id="stop2901" />
      <stop
         style="stop-color: black; stop-opacity: 0.12549;"
         offset="1"
         id="stop2899" />
    </linearGradient>
    <radialGradient
       inkscape:collect="always"
       xlink:href="#linearGradient2893"
       id="radialGradient3163"
       gradientUnits="userSpaceOnUse"
       gradientTransform="matrix(1.35322,0,0,1.34893,-77.6293,-85.7469)"
       cx="221.44487"
       cy="226.33101"
       fx="221.44487"
       fy="226.33101"
       r="300" />
  </defs>
  <g
     inkscape:groupmode="layer"
     id="layer3"
     inkscape:label="Fond écu"
     style="display:inline"
     transform="translate(0,-2.8e-4)"
     sodipodi:insensitive="true">
    <g
       id="g5619">
      <path
         sodipodi:nodetypes="cccccc"
         d="m 300,658.5 c 0,0 298.50001,-112.43608 298.50001,-398.18182 0,-285.745736 0,-258.81818 0,-258.81818 L 1.5,1.5 1.5,260.31818 C 1.5,546.06392 300,658.5 300,658.5 z"
         style="fill:#2b5df2;fill-opacity:1;fill-rule:evenodd;stroke:none"
         id="path2855"
         inkscape:connector-curvature="0" />
      <path
         id="rect2837"
         d="m 1.5,1.50028 0,197 597,0 0,-197 -597,0 z"
         style="fill:#e20909;fill-opacity:1;stroke:#000000;stroke-width:3;stroke-linecap:round;stroke-linejoin:miter;stroke-miterlimit:4;stroke-opacity:1"
         inkscape:connector-curvature="0" />
      <g
         id="g5611">
        <path
           style="fill:#ffffff;fill-opacity:1;stroke:#000000;stroke-width:3;stroke-linecap:round;stroke-linejoin:miter;stroke-miterlimit:4;stroke-opacity:1;display:inline"
           d="m 117,534.93778 c 83.98172,86.24007 183,123.5625 183,123.5625 0,0 99.01828,-37.32243 183,-123.5625 l -366,0 z"
           id="rect2837-1-5"
           inkscape:connector-curvature="0" />
        <path
           inkscape:connector-curvature="0"
           style="fill:#ffffff;fill-opacity:1;stroke:#000000;stroke-width:3;stroke-linecap:butt;stroke-linejoin:miter;stroke-miterlimit:4;stroke-opacity:1"
           d="m 314.9795,651.06278 0,0.0937 c -3.34111,1.52812 -2.90143,1.23136 -5.34375,2.28125 1.71045,-0.74527 3.25771,-1.42808 5.34375,-2.375 z"
           id="path5147" />
        <path
           inkscape:connector-curvature="0"
           style="fill:none;stroke:#000000;stroke-width:3;stroke-linecap:butt;stroke-linejoin:miter;stroke-miterlimit:4;stroke-opacity:1;stroke-dasharray:none;display:inline"
           d="m 348.21875,635.62528 c -4.23311,0.22908 -8.96545,0.375 -14.53125,0.375 -40.00898,0 -40.02227,-6.875 -80.03125,-6.875 -4.9262,0 -9.23176,0.0985 -13.09375,0.28125"
           id="path1411-6"
           sodipodi:nodetypes="cscc" />
        <path
           inkscape:connector-curvature="0"
           style="fill:none;stroke:#000000;stroke-width:3;stroke-linecap:butt;stroke-linejoin:miter;stroke-miterlimit:4;stroke-opacity:1;stroke-dasharray:none;display:inline"
           d="m 441.875,572.75028 c -3.62532,-0.15687 -7.6176,-0.28125 -12.15625,-0.28125 -40.00898,0 -40.02227,6.875 -80.03125,6.875 -40.00898,0 -40.02227,-6.875 -80.03125,-6.875 -40.00898,0 -39.99104,6.875 -80,6.875 -10.63353,0 -18.42129,-0.47482 -24.90625,-1.1875"
           id="path1411-6-3"
           sodipodi:nodetypes="csscsc" />
        <path
           inkscape:connector-curvature="0"
           style="fill:none;stroke:#000000;stroke-width:3;stroke-linecap:butt;stroke-linejoin:miter;stroke-miterlimit:4;stroke-opacity:1;stroke-dasharray:none;display:inline"
           d="m 471.09375,546.75028 c -11.99085,1.9474 -21.76292,4.28125 -45.09375,4.28125 -40.00897,0 -39.99102,-6.875 -80,-6.875 -40.00898,0 -40.02227,6.875 -80.03125,6.875 -40.00898,0 -40.02227,-6.875 -80.03125,-6.875 -28.71232,0 -36.86635,3.53177 -53.9375,5.53125"
           id="path1411-6-2"
           sodipodi:nodetypes="cssscc" />
        <path
           inkscape:connector-curvature="0"
           style="fill:none;stroke:#000000;stroke-width:3;stroke-linecap:butt;stroke-linejoin:miter;stroke-miterlimit:4;stroke-opacity:1;stroke-dasharray:none;display:inline"
           d="m 402.96875,602.09403 c -2.05107,-0.0429 -4.16822,-0.0625 -6.46875,-0.0625 -40.00898,0 -40.02227,6.875 -80.03125,6.875 -40.00898,0 -40.02227,-6.875 -80.03125,-6.875 -17.06233,0 -26.85054,1.222 -35.5625,2.65625"
           id="path1411-6-5"
           sodipodi:nodetypes="csscc" />
      </g>
    </g>
  </g>
  <g
     inkscape:groupmode="layer"
     id="layer4"
     inkscape:label="Meubles"
     style="display:inline"
     transform="translate(0,-2.8e-4)"
     sodipodi:insensitive="true">
    <g
       id="g6138">
      <g
         transform="matrix(1,0,0,0.81745027,-200,191.82791)"
         id="g3204">
        <path
           style="fill:#ffffff;stroke:#000000;stroke-width:3.31810832;stroke-linecap:butt;stroke-linejoin:miter;stroke-miterlimit:4;stroke-opacity:1;stroke-dasharray:none"
           d="m 440,419.9 120,0 -10,-30 -100,0 z"
           id="path5346"
           inkscape:connector-curvature="0"
           sodipodi:nodetypes="ccccc" />
        <path
           style="fill:#ffffff;stroke:#000000;stroke-width:3.31810832;stroke-linecap:butt;stroke-linejoin:miter;stroke-miterlimit:4;stroke-opacity:1;stroke-dasharray:none"
           d="m 460,390 10,-40 10,-280 5,0 0,-35 c 5,-15 25,-15 30,0 l 0,35 5,0 10,280 10,40 z"
           id="path5350"
           inkscape:connector-curvature="0"
           sodipodi:nodetypes="ccccccccccc" />
        <path
           style="fill:#ffffff;stroke:#000000;stroke-width:3.31810832;stroke-linecap:butt;stroke-linejoin:miter;stroke-miterlimit:4;stroke-opacity:1;stroke-dasharray:none"
           d="m 490,390 0,-30 c 0,-15 20,-15 20,0 l 0,30 z"
           id="path5354"
           inkscape:connector-curvature="0"
           sodipodi:nodetypes="ccccc" />
        <path
           style="fill:#ffffff;fill-opacity:1;stroke:#000000;stroke-width:3.31810832;stroke-miterlimit:4;stroke-opacity:1;stroke-dasharray:none"
           d="m 472.84375,270 -0.34375,10 55,0 -0.34375,-10 -54.3125,0 z"
           id="rect5356"
           inkscape:connector-curvature="0" />
        <path
           style="fill:#ffffff;fill-opacity:1;stroke:#000000;stroke-width:3.31810832;stroke-miterlimit:4;stroke-opacity:1;stroke-dasharray:none"
           d="M 475.34375,200 475,210 l 50,0 -0.34375,-10 -49.3125,0 z"
           id="rect5356-5"
           inkscape:connector-curvature="0" />
        <path
           style="fill:#ffffff;fill-opacity:1;stroke:#000000;stroke-width:3.31810832;stroke-miterlimit:4;stroke-opacity:1;stroke-dasharray:none"
           d="m 477.84375,130 -0.34375,10 45,0 -0.34375,-10 -44.3125,0 z"
           id="rect5356-50"
           inkscape:connector-curvature="0" />
        <path
           style="fill:#ffffff;fill-opacity:1;stroke:#000000;stroke-width:3.31810832;stroke-miterlimit:4;stroke-opacity:1;stroke-dasharray:none"
           d="m 480,70 -0.34375,10 40.6875,0 L 520,70 480,70 z"
           id="rect5356-504"
           inkscape:connector-curvature="0" />
        <path
           style="fill:none;stroke:#000000;stroke-width:3.31810832;stroke-linecap:butt;stroke-linejoin:miter;stroke-miterlimit:4;stroke-opacity:1;stroke-dasharray:none"
           d="m 485,35 30,0"
           id="path5480"
           inkscape:connector-curvature="0"
           sodipodi:nodetypes="cc" />
        <path
           style="fill:none;stroke:#000000;stroke-width:3.31810832;stroke-linecap:butt;stroke-linejoin:miter;stroke-miterlimit:4;stroke-opacity:1;stroke-dasharray:none"
           d="m 495,35 0,35"
           id="path5480-8"
           inkscape:connector-curvature="0"
           sodipodi:nodetypes="cc" />
        <path
           style="fill:none;stroke:#000000;stroke-width:3.31810832;stroke-linecap:butt;stroke-linejoin:miter;stroke-miterlimit:4;stroke-opacity:1;stroke-dasharray:none"
           d="m 505,35 0,35"
           id="path5480-83"
           inkscape:connector-curvature="0"
           sodipodi:nodetypes="cc" />
        <path
           inkscape:connector-curvature="0"
           style="fill:#ffffff;fill-opacity:1;stroke:#000000;stroke-width:3.31810832;stroke-miterlimit:4;stroke-opacity:1;stroke-dasharray:none"
           d="m 505,230 -10,0 0,25 10,0 z"
           id="rect5356-9"
           sodipodi:nodetypes="ccccc" />
        <path
           inkscape:connector-curvature="0"
           style="fill:#ffffff;fill-opacity:1;stroke:#000000;stroke-width:3.31810832;stroke-miterlimit:4;stroke-opacity:1;stroke-dasharray:none"
           d="m 505,155 -10,0 0,25 10,0 z"
           id="rect5356-9-5"
           sodipodi:nodetypes="ccccc" />
        <path
           inkscape:connector-curvature="0"
           style="fill:#ffffff;fill-opacity:1;stroke:#000000;stroke-width:3.31810832;stroke-miterlimit:4;stroke-opacity:1;stroke-dasharray:none"
           d="m 505,90 -10,0 0,25 10,0 z"
           id="rect5356-9-59"
           sodipodi:nodetypes="ccccc" />
      </g>
      <g
         id="g6086">
        <path
           id="rect2837-9"
           d="m 1.5,120.00028 0,78.49999 597,0 0,-78.49999 -218.5,0 0,-40 -160,0 0.275,40 z"
           style="fill:#ffffff;fill-opacity:1;stroke:#000000;stroke-width:3;stroke-linecap:round;stroke-linejoin:miter;stroke-miterlimit:4;stroke-opacity:1;display:inline"
           inkscape:connector-curvature="0"
           sodipodi:nodetypes="ccccccccc" />
        <path
           style="fill:none;stroke:#000000;stroke-width:2;stroke-linecap:butt;stroke-linejoin:miter;stroke-miterlimit:4;stroke-opacity:1;stroke-dasharray:none"
           d="m 0,180 600,0"
           id="path5666"
           inkscape:connector-curvature="0"
           transform="translate(0,2.8e-4)"
           sodipodi:nodetypes="cc" />
        <path
           style="fill:none;stroke:#000000;stroke-width:2;stroke-linecap:butt;stroke-linejoin:miter;stroke-miterlimit:4;stroke-opacity:1;stroke-dasharray:none;display:inline"
           d="m 0,160.00028 600,0"
           id="path5666-5"
           inkscape:connector-curvature="0"
           sodipodi:nodetypes="cc" />
        <path
           style="fill:none;stroke:#000000;stroke-width:2;stroke-linecap:butt;stroke-linejoin:miter;stroke-miterlimit:4;stroke-opacity:1;stroke-dasharray:none;display:inline"
           d="m 0,140.00028 600,0"
           id="path5666-54"
           inkscape:connector-curvature="0"
           sodipodi:nodetypes="cc" />
        <path
           style="fill:none;stroke:#000000;stroke-width:2;stroke-linecap:butt;stroke-linejoin:miter;stroke-miterlimit:4;stroke-opacity:1;stroke-dasharray:none;display:inline"
           d="m 220,120.00028 160,0"
           id="path5666-546"
           inkscape:connector-curvature="0"
           sodipodi:nodetypes="cc" />
        <path
           style="fill:none;stroke:#000000;stroke-width:2;stroke-linecap:butt;stroke-linejoin:miter;stroke-miterlimit:4;stroke-opacity:1;stroke-dasharray:none;display:inline"
           d="m 220,80.00028 160,0"
           id="path5666-4"
           inkscape:connector-curvature="0"
           sodipodi:nodetypes="cc" />
        <path
           style="fill:none;stroke:#000000;stroke-width:2;stroke-linecap:butt;stroke-linejoin:miter;stroke-miterlimit:4;stroke-opacity:1;stroke-dasharray:none;display:inline"
           d="m 220,100.00028 160,0"
           id="path5666-4-1"
           inkscape:connector-curvature="0"
           sodipodi:nodetypes="cc" />
        <path
           style="fill:none;stroke:#000000;stroke-width:2;stroke-linecap:butt;stroke-linejoin:miter;stroke-miterlimit:4;stroke-opacity:1;stroke-dasharray:none"
           d="m 540,120 0,20"
           id="path5754"
           inkscape:connector-curvature="0"
           transform="translate(0,2.8e-4)"
           sodipodi:nodetypes="cc" />
        <path
           style="fill:none;stroke:#000000;stroke-width:2;stroke-linecap:butt;stroke-linejoin:miter;stroke-miterlimit:4;stroke-opacity:1;stroke-dasharray:none;display:inline"
           d="m 470,120.00028 0,20"
           id="path5754-1"
           inkscape:connector-curvature="0"
           sodipodi:nodetypes="cc" />
        <path
           style="fill:none;stroke:#000000;stroke-width:2;stroke-linecap:butt;stroke-linejoin:miter;stroke-miterlimit:4;stroke-opacity:1;stroke-dasharray:none;display:inline"
           d="m 400,120.00028 0,20"
           id="path5754-9"
           inkscape:connector-curvature="0"
           sodipodi:nodetypes="cc" />
        <path
           style="fill:none;stroke:#000000;stroke-width:2;stroke-linecap:butt;stroke-linejoin:miter;stroke-miterlimit:4;stroke-opacity:1;stroke-dasharray:none;display:inline"
           d="m 340,120.00028 0,20"
           id="path5754-2"
           inkscape:connector-curvature="0"
           sodipodi:nodetypes="cc" />
        <path
           style="fill:none;stroke:#000000;stroke-width:2;stroke-linecap:butt;stroke-linejoin:miter;stroke-miterlimit:4;stroke-opacity:1;stroke-dasharray:none;display:inline"
           d="m 270,120.00028 0,20"
           id="path5754-5"
           inkscape:connector-curvature="0"
           sodipodi:nodetypes="cc" />
        <path
           style="fill:none;stroke:#000000;stroke-width:2;stroke-linecap:butt;stroke-linejoin:miter;stroke-miterlimit:4;stroke-opacity:1;stroke-dasharray:none;display:inline"
           d="m 210,120.00028 0,20"
           id="path5754-6"
           inkscape:connector-curvature="0"
           sodipodi:nodetypes="cc" />
        <path
           style="fill:none;stroke:#000000;stroke-width:2;stroke-linecap:butt;stroke-linejoin:miter;stroke-miterlimit:4;stroke-opacity:1;stroke-dasharray:none;display:inline"
           d="m 250,100.00028 0,20"
           id="path5754-68"
           inkscape:connector-curvature="0"
           sodipodi:nodetypes="cc" />
        <path
           style="fill:none;stroke:#000000;stroke-width:2;stroke-linecap:butt;stroke-linejoin:miter;stroke-miterlimit:4;stroke-opacity:1;stroke-dasharray:none;display:inline"
           d="m 250,100.00028 0,20"
           id="path5754-4"
           inkscape:connector-curvature="0"
           sodipodi:nodetypes="cc" />
        <path
           style="fill:none;stroke:#000000;stroke-width:2;stroke-linecap:butt;stroke-linejoin:miter;stroke-miterlimit:4;stroke-opacity:1;stroke-dasharray:none;display:inline"
           d="m 250,100.00028 0,20"
           id="path5754-95"
           inkscape:connector-curvature="0"
           sodipodi:nodetypes="cc" />
        <path
           style="fill:none;stroke:#000000;stroke-width:2;stroke-linecap:butt;stroke-linejoin:miter;stroke-miterlimit:4;stroke-opacity:1;stroke-dasharray:none;display:inline"
           d="m 250,100.00028 0,20"
           id="path5754-8"
           inkscape:connector-curvature="0"
           sodipodi:nodetypes="cc" />
        <path
           style="fill:none;stroke:#000000;stroke-width:2;stroke-linecap:butt;stroke-linejoin:miter;stroke-miterlimit:4;stroke-opacity:1;stroke-dasharray:none;display:inline"
           d="m 250,100.00028 0,20"
           id="path5754-50"
           inkscape:connector-curvature="0"
           sodipodi:nodetypes="cc" />
        <path
           style="fill:none;stroke:#000000;stroke-width:2;stroke-linecap:butt;stroke-linejoin:miter;stroke-miterlimit:4;stroke-opacity:1;stroke-dasharray:none;display:inline"
           d="m 150,120.00028 0,20"
           id="path5754-56"
           inkscape:connector-curvature="0"
           sodipodi:nodetypes="cc" />
        <path
           style="fill:none;stroke:#000000;stroke-width:2;stroke-linecap:butt;stroke-linejoin:miter;stroke-miterlimit:4;stroke-opacity:1;stroke-dasharray:none;display:inline"
           d="m 320,100.00028 0,20"
           id="path5754-7"
           inkscape:connector-curvature="0"
           sodipodi:nodetypes="cc" />
        <path
           style="fill:none;stroke:#000000;stroke-width:2;stroke-linecap:butt;stroke-linejoin:miter;stroke-miterlimit:4;stroke-opacity:1;stroke-dasharray:none;display:inline"
           d="m 350,80.00028 0,20"
           id="path5754-93"
           inkscape:connector-curvature="0"
           sodipodi:nodetypes="cc" />
        <path
           style="fill:none;stroke:#000000;stroke-width:2;stroke-linecap:butt;stroke-linejoin:miter;stroke-miterlimit:4;stroke-opacity:1;stroke-dasharray:none;display:inline"
           d="m 280,80.00028 0,20"
           id="path5754-69"
           inkscape:connector-curvature="0"
           sodipodi:nodetypes="cc" />
        <path
           style="fill:none;stroke:#000000;stroke-width:2;stroke-linecap:butt;stroke-linejoin:miter;stroke-miterlimit:4;stroke-opacity:1;stroke-dasharray:none;display:inline"
           d="m 90,120.00028 0,20"
           id="path5754-56-5"
           inkscape:connector-curvature="0"
           sodipodi:nodetypes="cc" />
        <path
           style="fill:none;stroke:#000000;stroke-width:2;stroke-linecap:butt;stroke-linejoin:miter;stroke-miterlimit:4;stroke-opacity:1;stroke-dasharray:none;display:inline"
           d="m 30,120.00028 0,20"
           id="path5754-56-2"
           inkscape:connector-curvature="0"
           sodipodi:nodetypes="cc" />
        <path
           style="fill:none;stroke:#000000;stroke-width:2;stroke-linecap:butt;stroke-linejoin:miter;stroke-miterlimit:4;stroke-opacity:1;stroke-dasharray:none;display:inline"
           d="m 50,140.00028 0,20"
           id="path5754-56-0"
           inkscape:connector-curvature="0"
           sodipodi:nodetypes="cc" />
        <path
           style="fill:none;stroke:#000000;stroke-width:2;stroke-linecap:butt;stroke-linejoin:miter;stroke-miterlimit:4;stroke-opacity:1;stroke-dasharray:none;display:inline"
           d="m 110,140.00028 0,20"
           id="path5754-56-9"
           inkscape:connector-curvature="0"
           sodipodi:nodetypes="cc" />
        <path
           style="fill:none;stroke:#000000;stroke-width:2;stroke-linecap:butt;stroke-linejoin:miter;stroke-miterlimit:4;stroke-opacity:1;stroke-dasharray:none;display:inline"
           d="m 170,140.00028 0,20"
           id="path5754-56-3"
           inkscape:connector-curvature="0"
           sodipodi:nodetypes="cc" />
        <path
           style="fill:none;stroke:#000000;stroke-width:2;stroke-linecap:butt;stroke-linejoin:miter;stroke-miterlimit:4;stroke-opacity:1;stroke-dasharray:none;display:inline"
           d="m 230,140.00028 0,20"
           id="path5754-56-4"
           inkscape:connector-curvature="0"
           sodipodi:nodetypes="cc" />
        <path
           style="fill:none;stroke:#000000;stroke-width:2;stroke-linecap:butt;stroke-linejoin:miter;stroke-miterlimit:4;stroke-opacity:1;stroke-dasharray:none;display:inline"
           d="m 300,140.00028 0,20"
           id="path5754-56-7"
           inkscape:connector-curvature="0"
           sodipodi:nodetypes="cc" />
        <path
           style="fill:none;stroke:#000000;stroke-width:2;stroke-linecap:butt;stroke-linejoin:miter;stroke-miterlimit:4;stroke-opacity:1;stroke-dasharray:none;display:inline"
           d="m 380,140.00028 0,20"
           id="path5754-56-42"
           inkscape:connector-curvature="0"
           sodipodi:nodetypes="cc" />
        <path
           style="fill:none;stroke:#000000;stroke-width:2;stroke-linecap:butt;stroke-linejoin:miter;stroke-miterlimit:4;stroke-opacity:1;stroke-dasharray:none;display:inline"
           d="m 430,140.00028 0,20"
           id="path5754-56-8"
           inkscape:connector-curvature="0"
           sodipodi:nodetypes="cc" />
        <path
           style="fill:none;stroke:#000000;stroke-width:2;stroke-linecap:butt;stroke-linejoin:miter;stroke-miterlimit:4;stroke-opacity:1;stroke-dasharray:none;display:inline"
           d="m 500,140.00028 0,20"
           id="path5754-56-82"
           inkscape:connector-curvature="0"
           sodipodi:nodetypes="cc" />
        <path
           style="fill:none;stroke:#000000;stroke-width:2;stroke-linecap:butt;stroke-linejoin:miter;stroke-miterlimit:4;stroke-opacity:1;stroke-dasharray:none;display:inline"
           d="m 560,140.00028 0,20"
           id="path5754-56-04"
           inkscape:connector-curvature="0"
           sodipodi:nodetypes="cc" />
        <path
           style="fill:none;stroke:#000000;stroke-width:2;stroke-linecap:butt;stroke-linejoin:miter;stroke-miterlimit:4;stroke-opacity:1;stroke-dasharray:none;display:inline"
           d="m 530,160.00028 0,20"
           id="path5754-56-07"
           inkscape:connector-curvature="0"
           sodipodi:nodetypes="cc" />
        <path
           style="fill:none;stroke:#000000;stroke-width:2;stroke-linecap:butt;stroke-linejoin:miter;stroke-miterlimit:4;stroke-opacity:1;stroke-dasharray:none;display:inline"
           d="m 460,160.00028 0,20"
           id="path5754-56-44"
           inkscape:connector-curvature="0"
           sodipodi:nodetypes="cc" />
        <path
           style="fill:none;stroke:#000000;stroke-width:2;stroke-linecap:butt;stroke-linejoin:miter;stroke-miterlimit:4;stroke-opacity:1;stroke-dasharray:none;display:inline"
           d="m 390,160.00028 0,20"
           id="path5754-56-45"
           inkscape:connector-curvature="0"
           sodipodi:nodetypes="cc" />
        <path
           style="fill:none;stroke:#000000;stroke-width:2;stroke-linecap:butt;stroke-linejoin:miter;stroke-miterlimit:4;stroke-opacity:1;stroke-dasharray:none;display:inline"
           d="m 330,160.00028 0,20"
           id="path5754-56-56"
           inkscape:connector-curvature="0"
           sodipodi:nodetypes="cc" />
        <path
           style="fill:none;stroke:#000000;stroke-width:2;stroke-linecap:butt;stroke-linejoin:miter;stroke-miterlimit:4;stroke-opacity:1;stroke-dasharray:none;display:inline"
           d="m 260,160.00028 0,20"
           id="path5754-56-59"
           inkscape:connector-curvature="0"
           sodipodi:nodetypes="cc" />
        <path
           style="fill:none;stroke:#000000;stroke-width:2;stroke-linecap:butt;stroke-linejoin:miter;stroke-miterlimit:4;stroke-opacity:1;stroke-dasharray:none;display:inline"
           d="m 190,160.00028 0,20"
           id="path5754-56-76"
           inkscape:connector-curvature="0"
           sodipodi:nodetypes="cc" />
        <path
           style="fill:none;stroke:#000000;stroke-width:2;stroke-linecap:butt;stroke-linejoin:miter;stroke-miterlimit:4;stroke-opacity:1;stroke-dasharray:none;display:inline"
           d="m 120,160.00028 0,20"
           id="path5754-56-6"
           inkscape:connector-curvature="0"
           sodipodi:nodetypes="cc" />
        <path
           style="fill:none;stroke:#000000;stroke-width:2;stroke-linecap:butt;stroke-linejoin:miter;stroke-miterlimit:4;stroke-opacity:1;stroke-dasharray:none;display:inline"
           d="m 60,160.00028 0,20"
           id="path5754-56-58"
           inkscape:connector-curvature="0"
           sodipodi:nodetypes="cc" />
        <path
           style="fill:none;stroke:#000000;stroke-width:2;stroke-linecap:butt;stroke-linejoin:miter;stroke-miterlimit:4;stroke-opacity:1;stroke-dasharray:none;display:inline"
           d="m 20,180.00028 0,20"
           id="path5754-56-28"
           inkscape:connector-curvature="0"
           sodipodi:nodetypes="cc" />
        <path
           style="fill:none;stroke:#000000;stroke-width:2;stroke-linecap:butt;stroke-linejoin:miter;stroke-miterlimit:4;stroke-opacity:1;stroke-dasharray:none;display:inline"
           d="m 80,180.00028 0,20"
           id="path5754-56-25"
           inkscape:connector-curvature="0"
           sodipodi:nodetypes="cc" />
        <path
           style="fill:none;stroke:#000000;stroke-width:2;stroke-linecap:butt;stroke-linejoin:miter;stroke-miterlimit:4;stroke-opacity:1;stroke-dasharray:none;display:inline"
           d="m 160,180.00028 0,20"
           id="path5754-56-87"
           inkscape:connector-curvature="0"
           sodipodi:nodetypes="cc" />
        <path
           style="fill:none;stroke:#000000;stroke-width:2;stroke-linecap:butt;stroke-linejoin:miter;stroke-miterlimit:4;stroke-opacity:1;stroke-dasharray:none;display:inline"
           d="m 220,180.00028 0,20"
           id="path5754-56-86"
           inkscape:connector-curvature="0"
           sodipodi:nodetypes="cc" />
        <path
           style="fill:none;stroke:#000000;stroke-width:2;stroke-linecap:butt;stroke-linejoin:miter;stroke-miterlimit:4;stroke-opacity:1;stroke-dasharray:none;display:inline"
           d="m 290,180.00028 0,20"
           id="path5754-56-64"
           inkscape:connector-curvature="0"
           sodipodi:nodetypes="cc" />
        <path
           style="fill:none;stroke:#000000;stroke-width:2;stroke-linecap:butt;stroke-linejoin:miter;stroke-miterlimit:4;stroke-opacity:1;stroke-dasharray:none;display:inline"
           d="m 360,180.00028 0,20"
           id="path5754-56-98"
           inkscape:connector-curvature="0"
           sodipodi:nodetypes="cc" />
        <path
           style="fill:none;stroke:#000000;stroke-width:2;stroke-linecap:butt;stroke-linejoin:miter;stroke-miterlimit:4;stroke-opacity:1;stroke-dasharray:none;display:inline"
           d="m 440,180.00028 0,20"
           id="path5754-56-828"
           inkscape:connector-curvature="0"
           sodipodi:nodetypes="cc" />
        <path
           style="fill:none;stroke:#000000;stroke-width:2;stroke-linecap:butt;stroke-linejoin:miter;stroke-miterlimit:4;stroke-opacity:1;stroke-dasharray:none;display:inline"
           d="m 510,180.00028 0,20"
           id="path5754-56-22"
           inkscape:connector-curvature="0"
           sodipodi:nodetypes="cc" />
        <path
           style="fill:none;stroke:#000000;stroke-width:2;stroke-linecap:butt;stroke-linejoin:miter;stroke-miterlimit:4;stroke-opacity:1;stroke-dasharray:none;display:inline"
           d="m 570,180.00028 0,20"
           id="path5754-56-09"
           inkscape:connector-curvature="0"
           sodipodi:nodetypes="cc" />
      </g>
    </g>
  </g>
  <g
     inkscape:groupmode="layer"
     id="layer5"
     inkscape:label="Franc-quartier"
     sodipodi:insensitive="true">
    <g
       id="g6795">
      <path
         id="path6206"
         d="m 1.5,1.5 0,258.8125 C 1.5,281.12161 3.0957358,301.00561 6.03125,320 L 300,320 300,1.5 1.5,1.5 z"
         style="fill:#ffffff;stroke:#000000;stroke-width:3;stroke-linecap:butt;stroke-linejoin:miter;stroke-miterlimit:4;stroke-opacity:1;stroke-dasharray:none"
         inkscape:connector-curvature="0" />
      <path
         id="path6248"
         d="m 278.5,1.5 -8.5,8.5 0,20 -10,10 40,0 -10,-10 0,-20 -8.5,-8.5 -3,0 z"
         style="fill:#2b5df2;stroke:#000000;stroke-width:2;stroke-linecap:butt;stroke-linejoin:miter;stroke-miterlimit:4;stroke-opacity:1;stroke-dasharray:none;display:inline"
         inkscape:connector-curvature="0" />
      <path
         inkscape:transform-center-x="10"
         inkscape:connector-curvature="0"
         id="path6248-5"
         d="m 260,40 -10,10 0,20 -10,10 40,0 -10,-10 0,-20 z"
         style="fill:#2b5df2;stroke:#000000;stroke-width:2;stroke-linecap:butt;stroke-linejoin:miter;stroke-miterlimit:4;stroke-opacity:1;stroke-dasharray:none;display:inline" />
      <path
         inkscape:transform-center-x="10"
         inkscape:connector-curvature="0"
         id="path6248-6"
         d="m 280,80 -10,10 0,20 -10,10 40,0 -10,-10 0,-20 z"
         style="fill:#2b5df2;stroke:#000000;stroke-width:2;stroke-linecap:butt;stroke-linejoin:miter;stroke-miterlimit:4;stroke-opacity:1;stroke-dasharray:none;display:inline" />
      <path
         inkscape:transform-center-x="10"
         inkscape:connector-curvature="0"
         id="path6248-64"
         d="m 260,120 -10,10 0,20 -10,10 40,0 -10,-10 0,-20 z"
         style="fill:#2b5df2;stroke:#000000;stroke-width:2;stroke-linecap:butt;stroke-linejoin:miter;stroke-miterlimit:4;stroke-opacity:1;stroke-dasharray:none;display:inline" />
      <path
         inkscape:transform-center-x="10"
         inkscape:connector-curvature="0"
         id="path6248-0"
         d="m 280,160 -10,10 0,20 -10,10 40,0 -10,-10 0,-20 z"
         style="fill:#2b5df2;stroke:#000000;stroke-width:2;stroke-linecap:butt;stroke-linejoin:miter;stroke-miterlimit:4;stroke-opacity:1;stroke-dasharray:none;display:inline" />
      <path
         inkscape:transform-center-x="10"
         inkscape:connector-curvature="0"
         id="path6248-68"
         d="m 260,200 -10,10 0,20 -10,10 40,0 -10,-10 0,-20 z"
         style="fill:#2b5df2;stroke:#000000;stroke-width:2;stroke-linecap:butt;stroke-linejoin:miter;stroke-miterlimit:4;stroke-opacity:1;stroke-dasharray:none;display:inline" />
      <path
         inkscape:transform-center-x="10"
         inkscape:connector-curvature="0"
         id="path6248-1"
         d="m 280,240 -10,10 0,20 -10,10 40,0 -10,-10 0,-20 z"
         style="fill:#2b5df2;stroke:#000000;stroke-width:2;stroke-linecap:butt;stroke-linejoin:miter;stroke-miterlimit:4;stroke-opacity:1;stroke-dasharray:none;display:inline" />
      <path
         inkscape:transform-center-x="10"
         inkscape:connector-curvature="0"
         id="path6248-11"
         d="m 260,280 -10,10 0,20 -10,10 40,0 -10,-10 0,-20 z"
         style="fill:#2b5df2;stroke:#000000;stroke-width:2;stroke-linecap:butt;stroke-linejoin:miter;stroke-miterlimit:4;stroke-opacity:1;stroke-dasharray:none;display:inline" />
      <path
         id="path6248-5-4"
         d="m 300,40 -10,10 0,20 -10,10 20,0 0,-40 z"
         style="fill:#2b5df2;stroke:#000000;stroke-width:2;stroke-linecap:butt;stroke-linejoin:miter;stroke-miterlimit:4;stroke-opacity:1;stroke-dasharray:none;display:inline"
         inkscape:connector-curvature="0" />
      <path
         id="path6248-5-8"
         d="m 300,120 -10,10 0,20 -10,10 20,0 0,-40 z"
         style="fill:#2b5df2;stroke:#000000;stroke-width:2;stroke-linecap:butt;stroke-linejoin:miter;stroke-miterlimit:4;stroke-opacity:1;stroke-dasharray:none;display:inline"
         inkscape:connector-curvature="0" />
      <path
         id="path6248-5-0"
         d="m 300,200 -10,10 0,20 -10,10 20,0 0,-40 z"
         style="fill:#2b5df2;stroke:#000000;stroke-width:2;stroke-linecap:butt;stroke-linejoin:miter;stroke-miterlimit:4;stroke-opacity:1;stroke-dasharray:none;display:inline"
         inkscape:connector-curvature="0" />
      <path
         id="path6248-5-5"
         d="m 300,280 -10,10 0,20 -10,10 20,0 0,-40 z"
         style="fill:#2b5df2;stroke:#000000;stroke-width:2;stroke-linecap:butt;stroke-linejoin:miter;stroke-miterlimit:4;stroke-opacity:1;stroke-dasharray:none;display:inline"
         inkscape:connector-curvature="0" />
      <path
         inkscape:transform-center-x="10"
         inkscape:connector-curvature="0"
         id="path6248-11-5"
         d="m 220,280 -10,10 0,20 -10,10 40,0 -10,-10 0,-20 z"
         style="fill:#2b5df2;stroke:#000000;stroke-width:2;stroke-linecap:butt;stroke-linejoin:miter;stroke-miterlimit:4;stroke-opacity:1;stroke-dasharray:none;display:inline" />
      <path
         inkscape:transform-center-x="10"
         inkscape:connector-curvature="0"
         id="path6248-11-9"
         d="m 180,280 -10,10 0,20 -10,10 40,0 -10,-10 0,-20 z"
         style="fill:#2b5df2;stroke:#000000;stroke-width:2;stroke-linecap:butt;stroke-linejoin:miter;stroke-miterlimit:4;stroke-opacity:1;stroke-dasharray:none;display:inline" />
      <path
         inkscape:transform-center-x="10"
         inkscape:connector-curvature="0"
         id="path6248-11-4"
         d="m 140,280 -10,10 0,20 -10,10 40,0 -10,-10 0,-20 z"
         style="fill:#2b5df2;stroke:#000000;stroke-width:2;stroke-linecap:butt;stroke-linejoin:miter;stroke-miterlimit:4;stroke-opacity:1;stroke-dasharray:none;display:inline" />
      <path
         inkscape:transform-center-x="10"
         inkscape:connector-curvature="0"
         id="path6248-11-99"
         d="m 100,280 -10,10 0,20 -10,10 40,0 -10,-10 0,-20 z"
         style="fill:#2b5df2;stroke:#000000;stroke-width:2;stroke-linecap:butt;stroke-linejoin:miter;stroke-miterlimit:4;stroke-opacity:1;stroke-dasharray:none;display:inline" />
      <path
         inkscape:transform-center-x="10"
         inkscape:connector-curvature="0"
         id="path6248-11-42"
         d="m 60,280 -10,10 0,20 -10,10 40,0 -10,-10 0,-20 z"
         style="fill:#2b5df2;stroke:#000000;stroke-width:2;stroke-linecap:butt;stroke-linejoin:miter;stroke-miterlimit:4;stroke-opacity:1;stroke-dasharray:none;display:inline" />
      <path
         id="path6248-11-2"
         d="m 20,280 -10,10 0,20 -4.71875,4.71875 c 0.247728,1.76685 0.479282,3.52956 0.75,5.28125 L 40,320 30,310 30,290 20,280 z"
         style="fill:#2b5df2;stroke:#000000;stroke-width:2;stroke-linecap:butt;stroke-linejoin:miter;stroke-miterlimit:4;stroke-opacity:1;stroke-dasharray:none;display:inline"
         inkscape:connector-curvature="0" />
      <path
         inkscape:transform-center-x="10"
         inkscape:connector-curvature="0"
         id="path6248-11-6"
         d="m 40,240 -10,10 0,20 -10,10 40,0 -10,-10 0,-20 z"
         style="fill:#2b5df2;stroke:#000000;stroke-width:2;stroke-linecap:butt;stroke-linejoin:miter;stroke-miterlimit:4;stroke-opacity:1;stroke-dasharray:none;display:inline" />
      <path
         id="path6248-11-57"
         d="m 1.5,241.5 0,18.8125 C 1.5,266.97071 1.6816472,273.53005 2,280 l 18,0 -10,-10 0,-20 -8.5,-8.5 z"
         style="fill:#2b5df2;stroke:#000000;stroke-width:2;stroke-linecap:butt;stroke-linejoin:miter;stroke-miterlimit:4;stroke-opacity:1;stroke-dasharray:none;display:inline"
         inkscape:connector-curvature="0" />
      <path
         id="path6248-11-1"
         d="m 20,200 -10,10 0,20 -8.5,8.5 0,1.5 38.5,0 -10,-10 0,-20 -10,-10 z"
         style="fill:#2b5df2;stroke:#000000;stroke-width:2;stroke-linecap:butt;stroke-linejoin:miter;stroke-miterlimit:4;stroke-opacity:1;stroke-dasharray:none;display:inline"
         inkscape:connector-curvature="0" />
      <path
         id="path6248-11-7"
         d="m 1.5,161.5 0,38.5 18.5,0 -10,-10 0,-20 -8.5,-8.5 z"
         style="fill:#2b5df2;stroke:#000000;stroke-width:2;stroke-linecap:butt;stroke-linejoin:miter;stroke-miterlimit:4;stroke-opacity:1;stroke-dasharray:none;display:inline"
         inkscape:connector-curvature="0" />
      <path
         inkscape:transform-center-x="10"
         inkscape:connector-curvature="0"
         id="path6248-11-79"
         d="m 40,160 -10,10 0,20 -10,10 40,0 -10,-10 0,-20 z"
         style="fill:#2b5df2;stroke:#000000;stroke-width:2;stroke-linecap:butt;stroke-linejoin:miter;stroke-miterlimit:4;stroke-opacity:1;stroke-dasharray:none;display:inline" />
      <path
         id="path6248-11-8"
         d="m 20,120 -10,10 0,20 -8.5,8.5 0,1.5 38.5,0 -10,-10 0,-20 -10,-10 z"
         style="fill:#2b5df2;stroke:#000000;stroke-width:2;stroke-linecap:butt;stroke-linejoin:miter;stroke-miterlimit:4;stroke-opacity:1;stroke-dasharray:none;display:inline"
         inkscape:connector-curvature="0" />
      <path
         id="path6248-11-43"
         d="M 1.5,81.5 1.5,120 20,120 10,110 10,90 1.5,81.5 z"
         style="fill:#2b5df2;stroke:#000000;stroke-width:2;stroke-linecap:butt;stroke-linejoin:miter;stroke-miterlimit:4;stroke-opacity:1;stroke-dasharray:none;display:inline"
         inkscape:connector-curvature="0" />
      <path
         inkscape:transform-center-x="10"
         inkscape:connector-curvature="0"
         id="path6248-11-96"
         d="m 40,80 -10,10 0,20 -10,10 40,0 -10,-10 0,-20 z"
         style="fill:#2b5df2;stroke:#000000;stroke-width:2;stroke-linecap:butt;stroke-linejoin:miter;stroke-miterlimit:4;stroke-opacity:1;stroke-dasharray:none;display:inline" />
      <path
         id="path6248-11-18"
         d="M 20,40 10,50 10,70 1.5,78.5 1.5,80 40,80 30,70 30,50 20,40 z"
         style="fill:#2b5df2;stroke:#000000;stroke-width:2;stroke-linecap:butt;stroke-linejoin:miter;stroke-miterlimit:4;stroke-opacity:1;stroke-dasharray:none;display:inline"
         inkscape:connector-curvature="0" />
      <path
         id="path6248-11-90"
         d="M 1.5,1.5 1.5,40 20,40 10,30 10,10 1.5,1.5 z"
         style="fill:#2b5df2;stroke:#000000;stroke-width:2;stroke-linecap:butt;stroke-linejoin:miter;stroke-miterlimit:4;stroke-opacity:1;stroke-dasharray:none;display:inline"
         inkscape:connector-curvature="0" />
      <path
         id="path6248-11-21"
         d="M 38.5,1.5 30,10 30,30 20,40 60,40 50,30 50,10 41.5,1.5 l -3,0 z"
         style="fill:#2b5df2;stroke:#000000;stroke-width:2;stroke-linecap:butt;stroke-linejoin:miter;stroke-miterlimit:4;stroke-opacity:1;stroke-dasharray:none;display:inline"
         inkscape:connector-curvature="0" />
      <path
         id="path6248-11-0"
         d="M 78.5,1.5 70,10 70,30 60,40 100,40 90,30 90,10 81.5,1.5 l -3,0 z"
         style="fill:#2b5df2;stroke:#000000;stroke-width:2;stroke-linecap:butt;stroke-linejoin:miter;stroke-miterlimit:4;stroke-opacity:1;stroke-dasharray:none;display:inline"
         inkscape:connector-curvature="0" />
      <path
         id="path6248-11-3"
         d="m 118.5,1.5 -8.5,8.5 0,20 -10,10 40,0 -10,-10 0,-20 -8.5,-8.5 -3,0 z"
         style="fill:#2b5df2;stroke:#000000;stroke-width:2;stroke-linecap:butt;stroke-linejoin:miter;stroke-miterlimit:4;stroke-opacity:1;stroke-dasharray:none;display:inline"
         inkscape:connector-curvature="0" />
      <path
         id="path6248-11-427"
         d="m 158.5,1.5 -8.5,8.5 0,20 -10,10 40,0 -10,-10 0,-20 -8.5,-8.5 -3,0 z"
         style="fill:#2b5df2;stroke:#000000;stroke-width:2;stroke-linecap:butt;stroke-linejoin:miter;stroke-miterlimit:4;stroke-opacity:1;stroke-dasharray:none;display:inline"
         inkscape:connector-curvature="0" />
      <path
         id="path6248-11-23"
         d="m 198.5,1.5 -8.5,8.5 0,20 -10,10 40,0 -10,-10 0,-20 -8.5,-8.5 -3,0 z"
         style="fill:#2b5df2;stroke:#000000;stroke-width:2;stroke-linecap:butt;stroke-linejoin:miter;stroke-miterlimit:4;stroke-opacity:1;stroke-dasharray:none;display:inline"
         inkscape:connector-curvature="0" />
      <path
         id="path6248-11-10"
         d="m 238.5,1.5 -8.5,8.5 0,20 -10,10 40,0 -10,-10 0,-20 -8.5,-8.5 -3,0 z"
         style="fill:#2b5df2;stroke:#000000;stroke-width:2;stroke-linecap:butt;stroke-linejoin:miter;stroke-miterlimit:4;stroke-opacity:1;stroke-dasharray:none;display:inline"
         inkscape:connector-curvature="0" />
      <path
         sodipodi:nodetypes="ccccc"
         inkscape:connector-curvature="0"
         id="path6206-4"
         d="m 40,40 220,0 0,240 -220,0 z"
         style="fill:#e20909;stroke:#000000;stroke-width:2;stroke-linecap:butt;stroke-linejoin:miter;stroke-miterlimit:4;stroke-opacity:1;stroke-dasharray:none;display:inline" />
      <path
         inkscape:connector-curvature="0"
         id="path6793"
         d="m 70,40 190,210 0,30 -30,0 L 40,70 40,40 z"
         style="fill:#fcef3c;stroke:#000000;stroke-width:2;stroke-linecap:butt;stroke-linejoin:miter;stroke-miterlimit:4;stroke-opacity:1;stroke-dasharray:none" />
    </g>
  </g>
  <g
     inkscape:groupmode="layer"
     id="layer2"
     inkscape:label="Reflet final"
     sodipodi:insensitive="true"
     transform="translate(0,-2.8e-4)">
    <path
       sodipodi:nodetypes="cccccc"
       d="m 300.00001,658.5 c 0,0 298.5,-112.32031 298.5,-397.77183 0,-285.451504 0,-258.5516835 0,-258.5516835 l -597.00001,0 0,258.5516835 C 1.5,546.17969 300.00001,658.5 300.00001,658.5 z"
       style="fill:url(#radialGradient3163);fill-opacity:1;fill-rule:evenodd;stroke:none"
       id="path2875"
       inkscape:export-xdpi="144"
       inkscape:export-ydpi="144"
       inkscape:connector-curvature="0" />
  </g>
  <g
     inkscape:groupmode="layer"
     id="layer1"
     inkscape:label="Contour final"
     transform="translate(0,-2.8e-4)"
     sodipodi:insensitive="true">
    <path
       sodipodi:nodetypes="cccccc"
       d="M 299.99999,658.50027 C 299.99999,658.50027 1.5,546.06419 1.5,260.31845 1.5,-25.427267 1.5,1.50028 1.5,1.50028 l 596.99999,0 0,258.81817 c 0,285.74574 -298.5,398.18182 -298.5,398.18182 z"
       style="fill:none;stroke:#000000;stroke-width:3;stroke-linecap:butt;stroke-linejoin:miter;stroke-miterlimit:4;stroke-opacity:1;stroke-dasharray:none"
       id="path1411"
       inkscape:export-xdpi="144"
       inkscape:export-ydpi="144"
       inkscape:connector-curvature="0" />
  </g>
</svg>
