<?xml version="1.0" encoding="UTF-8" standalone="no"?>
<svg
   xmlns:dc="http://purl.org/dc/elements/1.1/"
   xmlns:cc="http://creativecommons.org/ns#"
   xmlns:rdf="http://www.w3.org/1999/02/22-rdf-syntax-ns#"
   xmlns:svg="http://www.w3.org/2000/svg"
   xmlns="http://www.w3.org/2000/svg"
   xmlns:xlink="http://www.w3.org/1999/xlink"
   xmlns:sodipodi="http://sodipodi.sourceforge.net/DTD/sodipodi-0.dtd"
   xmlns:inkscape="http://www.inkscape.org/namespaces/inkscape"
   height="660"
   width="600"
   version="1.0"
   id="svg2"
   sodipodi:version="0.32"
   inkscape:version="0.46"
   sodipodi:docname="Mirebeau-sur-Bèze (21).svg"
   sodipodi:docbase="C:\Documents and Settings\Propriétaire\Mes documents\image blason"
   inkscape:export-filename="/Users/olivier/Desktop/Blason Rouge/Blason_Vide_3D.png"
   inkscape:export-xdpi="144"
   inkscape:export-ydpi="144"
   inkscape:output_extension="org.inkscape.output.svg.inkscape">
  <metadata
     id="metadata49">
    <rdf:RDF>
      <cc:Work
         rdf:about="">
        <dc:format>image/svg+xml</dc:format>
        <dc:type
           rdf:resource="http://purl.org/dc/dcmitype/StillImage" />
        <dc:title>Gabarit d'un blason en pointe pour le projet Blasons de Wikipédia</dc:title>
        <dc:date>03-AUG-2006</dc:date>
        <dc:creator>
          <cc:Agent>
            <dc:title>Jérôme BLUM (wagner51)</dc:title>
          </cc:Agent>
        </dc:creator>
        <cc:license
           rdf:resource="http://web.resource.org/cc/PublicDomain" />
        <dc:language>fr</dc:language>
        <dc:subject>
          <rdf:Bag>
            <rdf:li>gabarit modèle blason projet wikipédia</rdf:li>
          </rdf:Bag>
        </dc:subject>
      </cc:Work>
      <cc:License
         rdf:about="http://web.resource.org/cc/PublicDomain">
        <cc:permits
           rdf:resource="http://web.resource.org/cc/Reproduction" />
        <cc:permits
           rdf:resource="http://web.resource.org/cc/Distribution" />
        <cc:permits
           rdf:resource="http://web.resource.org/cc/DerivativeWorks" />
      </cc:License>
    </rdf:RDF>
  </metadata>
  <sodipodi:namedview
     inkscape:window-height="712"
     inkscape:window-width="1024"
     inkscape:pageshadow="2"
     inkscape:pageopacity="0.0"
     guidetolerance="10.0"
     gridtolerance="10.0"
     objecttolerance="10.0"
     borderopacity="1.0"
     bordercolor="#666666"
     pagecolor="#ffffff"
     id="base"
     showgrid="false"
     height="660px"
     inkscape:zoom="0.8"
     inkscape:cx="296.84573"
     inkscape:cy="330"
     inkscape:window-x="-4"
     inkscape:window-y="-4"
     inkscape:current-layer="layer4"
     showguides="true"
     inkscape:guide-bbox="true" />
  <desc
     id="desc4">Flag of Canton of Valais (Wallis)</desc>
  <defs
     id="defs6">
    <inkscape:perspective
       sodipodi:type="inkscape:persp3d"
       inkscape:vp_x="0 : 330 : 1"
       inkscape:vp_y="0 : 1000 : 0"
       inkscape:vp_z="600 : 330 : 1"
       inkscape:persp3d-origin="300 : 220 : 1"
       id="perspective71" />
    <linearGradient
       id="linearGradient2893">
      <stop
         style="stop-color:white;stop-opacity:0.3137255;"
         offset="0"
         id="stop2895" />
      <stop
         id="stop2897"
         offset="0.19"
         style="stop-color:white;stop-opacity:0.25098041;" />
      <stop
         style="stop-color:#6b6b6b;stop-opacity:0.1254902;"
         offset="0.60000002"
         id="stop2901" />
      <stop
         style="stop-color:black;stop-opacity:0.1254902;"
         offset="1"
         id="stop2899" />
    </linearGradient>
    <radialGradient
       r="300"
       fy="226.33101"
       fx="221.44487"
       cy="226.33101"
       cx="221.44487"
       gradientTransform="matrix(1.353218,0,0,1.348928,-77.62935,-85.74693)"
       gradientUnits="userSpaceOnUse"
       id="radialGradient2279"
       xlink:href="#linearGradient2893"
       inkscape:collect="always" />
    <radialGradient
       r="300"
       fy="218.90099"
       fx="225.52438"
       cy="218.90099"
       cx="225.52438"
       gradientTransform="matrix(0,1.386237,-1.323286,-5.741131e-8,-158.0823,-109.5408)"
       gradientUnits="userSpaceOnUse"
       id="radialGradient2871"
       xlink:href="#linearGradient2955"
       inkscape:collect="always" />
    <radialGradient
       r="300"
       fy="218.90099"
       fx="225.52438"
       cy="218.90099"
       cx="225.52438"
       gradientTransform="matrix(0,1.748721,-1.593162,-1.049767e-7,551.7876,-191.2898)"
       gradientUnits="userSpaceOnUse"
       id="radialGradient2865"
       xlink:href="#linearGradient2955"
       inkscape:collect="always" />
    <radialGradient
       r="300"
       fy="218.90099"
       fx="225.52438"
       cy="218.90099"
       cx="225.52438"
       gradientTransform="matrix(-4.167939e-4,2.182867,-1.884232,-3.599562e-4,615.5972,-289.1214)"
       gradientUnits="userSpaceOnUse"
       id="radialGradient1911"
       xlink:href="#linearGradient2955"
       inkscape:collect="always" />
    <clipPath
       id="clip">
      <path
         id="path10"
         d="M 0,-200 L 0,600 L 300,600 L 300,-200 L 0,-200 z " />
    </clipPath>
    <polygon
       points="0,-1 0.58778525,0.80901699 -0.95105652,-0.30901699 0.95105652,-0.30901699 -0.58778525,0.80901699 0,-1 "
       transform="scale(53,53)"
       id="star" />
    <radialGradient
       gradientUnits="userSpaceOnUse"
       gradientTransform="matrix(-4.167939e-4,2.182867,-1.884232,-3.599562e-4,615.5972,-289.1214)"
       r="300"
       fy="218.90099"
       fx="225.52438"
       cy="218.90099"
       cx="225.52438"
       id="radialGradient2961"
       xlink:href="#linearGradient2955"
       inkscape:collect="always" />
    <linearGradient
       id="linearGradient2955">
      <stop
         style="stop-color:#fd0000;stop-opacity:1;"
         offset="0"
         id="stop2867" />
      <stop
         id="stop2873"
         offset="0.5"
         style="stop-color:#e77275;stop-opacity:0.65882355;" />
      <stop
         id="stop2959"
         offset="1"
         style="stop-color:black;stop-opacity:0.32291666;" />
    </linearGradient>
    <linearGradient
       id="linearGradient2885">
      <stop
         style="stop-color:white;stop-opacity:1;"
         offset="0"
         id="stop2887" />
      <stop
         id="stop2891"
         offset="0.22857143"
         style="stop-color:white;stop-opacity:1;" />
      <stop
         style="stop-color:black;stop-opacity:1;"
         offset="1"
         id="stop2889" />
    </linearGradient>
    <linearGradient
       id="linearGradient2254">
      <stop
         id="stop2256"
         offset="0"
         style="stop-color:white;stop-opacity:0.3137255;" />
      <stop
         style="stop-color:white;stop-opacity:0.25098041;"
         offset="0.19"
         id="stop2258" />
      <stop
         id="stop2260"
         offset="0.60000002"
         style="stop-color:#6b6b6b;stop-opacity:0.1254902;" />
      <stop
         id="stop2262"
         offset="1"
         style="stop-color:black;stop-opacity:0.1254902;" />
    </linearGradient>
    <radialGradient
       gradientTransform="matrix(1.353218,0,0,1.348928,-77.62935,-85.74693)"
       gradientUnits="userSpaceOnUse"
       xlink:href="#linearGradient2893"
       id="radialGradient2363"
       fy="226.33101"
       fx="221.44487"
       r="300"
       cy="226.33101"
       cx="221.44487" />
    <radialGradient
       gradientTransform="matrix(0,1.386237,-1.323286,-5.741131e-8,-158.0823,-109.5408)"
       gradientUnits="userSpaceOnUse"
       xlink:href="#linearGradient2955"
       id="radialGradient2361"
       fy="218.90099"
       fx="225.52438"
       r="300"
       cy="218.90099"
       cx="225.52438" />
    <radialGradient
       gradientTransform="matrix(0,1.748721,-1.593162,-1.049767e-7,551.7876,-191.2898)"
       gradientUnits="userSpaceOnUse"
       xlink:href="#linearGradient2955"
       id="radialGradient2359"
       fy="218.90099"
       fx="225.52438"
       r="300"
       cy="218.90099"
       cx="225.52438" />
    <radialGradient
       gradientTransform="matrix(-4.167939e-4,2.182867,-1.884232,-3.599562e-4,615.5972,-289.1214)"
       gradientUnits="userSpaceOnUse"
       xlink:href="#linearGradient2955"
       id="radialGradient2357"
       fy="218.90099"
       fx="225.52438"
       r="300"
       cy="218.90099"
       cx="225.52438" />
    <clipPath
       id="clipPath2353">
      <path
         id="path2355"
         d="M 0,-200 L 0,600 L 300,600 L 300,-200 L 0,-200 z " />
    </clipPath>
    <polygon
       id="polygon2351"
       transform="scale(53,53)"
       points="0,-1 0.58778525,0.80901699 -0.95105652,-0.30901699 0.95105652,-0.30901699 -0.58778525,0.80901699 0,-1 " />
    <radialGradient
       gradientTransform="matrix(-4.167939e-4,2.182867,-1.884232,-3.599562e-4,615.5972,-289.1214)"
       gradientUnits="userSpaceOnUse"
       xlink:href="#linearGradient2955"
       id="radialGradient2349"
       fy="218.90099"
       fx="225.52438"
       r="300"
       cy="218.90099"
       cx="225.52438" />
    <linearGradient
       id="linearGradient2341">
      <stop
         id="stop2343"
         offset="0"
         style="stop-color:#fd0000;stop-opacity:1" />
      <stop
         id="stop2345"
         offset="0.5"
         style="stop-color:#e77275;stop-opacity:0.65882355" />
      <stop
         id="stop2347"
         offset="1"
         style="stop-color:black;stop-opacity:0.32291666" />
    </linearGradient>
    <linearGradient
       id="linearGradient2333">
      <stop
         id="stop2335"
         offset="0"
         style="stop-color:white;stop-opacity:1" />
      <stop
         id="stop2337"
         offset="0.22857143"
         style="stop-color:white;stop-opacity:1" />
      <stop
         id="stop2339"
         offset="1"
         style="stop-color:black;stop-opacity:1" />
    </linearGradient>
    <linearGradient
       id="linearGradient2323">
      <stop
         id="stop2325"
         offset="0"
         style="stop-color:white;stop-opacity:0.3137255" />
      <stop
         id="stop2327"
         offset="0.19"
         style="stop-color:white;stop-opacity:0.25098041" />
      <stop
         id="stop2329"
         offset="0.60000002"
         style="stop-color:#6b6b6b;stop-opacity:0.1254902" />
      <stop
         id="stop2331"
         offset="1"
         style="stop-color:black;stop-opacity:0.1254902" />
    </linearGradient>
    <inkscape:perspective
       id="perspective2445"
       inkscape:persp3d-origin="372.04724 : 350.78739 : 1"
       inkscape:vp_z="744.09448 : 526.18109 : 1"
       inkscape:vp_y="0 : 1000 : 0"
       inkscape:vp_x="0 : 526.18109 : 1"
       sodipodi:type="inkscape:persp3d" />
    <radialGradient
       r="300"
       fy="200.44757"
       fx="285.18573"
       cy="200.44757"
       cx="285.18573"
       gradientTransform="matrix(1.551284,0,0,1.350335,-77.894363,353.46112)"
       gradientUnits="userSpaceOnUse"
       id="radialGradient11919"
       xlink:href="#linearGradient2893"
       inkscape:collect="always" />
    <linearGradient
       id="linearGradient2745">
      <stop
         id="stop2747"
         offset="0"
         style="stop-color:white;stop-opacity:0.3137255;" />
      <stop
         style="stop-color:white;stop-opacity:0.25098041;"
         offset="0.19"
         id="stop2749" />
      <stop
         id="stop2751"
         offset="0.60000002"
         style="stop-color:#6b6b6b;stop-opacity:0.1254902;" />
      <stop
         id="stop2753"
         offset="1"
         style="stop-color:black;stop-opacity:0.1254902;" />
    </linearGradient>
    <inkscape:perspective
       id="perspective7535"
       inkscape:persp3d-origin="372.04724 : 350.78739 : 1"
       inkscape:vp_z="744.09448 : 526.18109 : 1"
       inkscape:vp_y="0 : 1000 : 0"
       inkscape:vp_x="0 : 526.18109 : 1"
       sodipodi:type="inkscape:persp3d" />
    <inkscape:perspective
       id="perspective8511"
       inkscape:persp3d-origin="372.04724 : 350.78739 : 1"
       inkscape:vp_z="744.09448 : 526.18109 : 1"
       inkscape:vp_y="0 : 1000 : 0"
       inkscape:vp_x="0 : 526.18109 : 1"
       sodipodi:type="inkscape:persp3d" />
    <inkscape:perspective
       id="perspective2942"
       inkscape:persp3d-origin="372.04724 : 350.78739 : 1"
       inkscape:vp_z="744.09448 : 526.18109 : 1"
       inkscape:vp_y="0 : 1000 : 0"
       inkscape:vp_x="0 : 526.18109 : 1"
       sodipodi:type="inkscape:persp3d" />
    <inkscape:perspective
       id="perspective3220"
       inkscape:persp3d-origin="372.04724 : 350.78739 : 1"
       inkscape:vp_z="744.09448 : 526.18109 : 1"
       inkscape:vp_y="0 : 1000 : 0"
       inkscape:vp_x="0 : 526.18109 : 1"
       sodipodi:type="inkscape:persp3d" />
    <inkscape:perspective
       id="perspective3525"
       inkscape:persp3d-origin="372.04724 : 350.78739 : 1"
       inkscape:vp_z="744.09448 : 526.18109 : 1"
       inkscape:vp_y="0 : 1000 : 0"
       inkscape:vp_x="0 : 526.18109 : 1"
       sodipodi:type="inkscape:persp3d" />
    <radialGradient
       r="300"
       fy="200.44757"
       fx="285.18573"
       cy="200.44757"
       cx="285.18573"
       gradientTransform="matrix(1.551284,0,0,1.350335,-152.89433,151.09881)"
       gradientUnits="userSpaceOnUse"
       id="radialGradient3523"
       xlink:href="#linearGradient2893"
       inkscape:collect="always" />
    <linearGradient
       id="linearGradient3513">
      <stop
         id="stop3515"
         offset="0"
         style="stop-color:white;stop-opacity:0.3137255;" />
      <stop
         style="stop-color:white;stop-opacity:0.25098041;"
         offset="0.19"
         id="stop3517" />
      <stop
         id="stop3519"
         offset="0.60000002"
         style="stop-color:#6b6b6b;stop-opacity:0.1254902;" />
      <stop
         id="stop3521"
         offset="1"
         style="stop-color:black;stop-opacity:0.1254902;" />
    </linearGradient>
  </defs>
  <g
     inkscape:groupmode="layer"
     id="layer3"
     inkscape:label="Fond écu"
     style="display:inline">
    <g
       id="g3073"
       inkscape:label="Calque 1"
       transform="translate(-74.999948,-202.36234)"
       style="fill:#5ab532">
      <g
         style="fill:#5ab532;stroke:none;display:inline"
         id="g4195"
         inkscape:label="Calque 1"
         transform="translate(2.5e-6,2.6171874e-6)">
        <path
           sodipodi:nodetypes="cssccccssc"
           d="M 374.99998,860.86234 C 374.99998,822.35824 406.20317,791.10862 444.64998,791.10862 C 483.09679,791.10862 565.40315,791.10862 603.84996,791.10862 C 642.29676,791.10862 673.50005,759.859 673.50005,721.355 L 673.50005,203.86202 L 76.499955,203.86204 L 76.499945,721.355 C 76.499945,759.859 107.70316,791.10862 146.14996,791.10862 C 184.59679,791.10862 266.90317,791.10862 305.34998,791.10862 C 343.79678,791.10862 374.99998,822.35824 374.99998,860.86234 z"
           style="fill:#5ab532;fill-opacity:1;fill-rule:nonzero;stroke:none;stroke-width:3.00000190999999990;stroke-linecap:round;stroke-linejoin:round;stroke-miterlimit:4;stroke-dasharray:none;stroke-dashoffset:0;stroke-opacity:1;display:inline"
           id="path4197" />
      </g>
    </g>
  </g>
  <g
     inkscape:groupmode="layer"
     id="layer4"
     inkscape:label="Meubles"
     style="opacity:1;display:inline">
    <g
       id="g3267"
       inkscape:label="Calque 1"
       transform="translate(-86.428571,-187.32647)"
       style="fill:#e20909">
      <path
         id="path17287"
         d="M 87.928571,188.82647 L 87.928571,367.32647 L 684.92857,367.32647 L 684.92857,188.82647 L 87.928571,188.82647 z"
         style="fill:#e20909;fill-opacity:1;fill-rule:nonzero;stroke:#000000;stroke-width:3;stroke-linecap:round;stroke-linejoin:round;stroke-miterlimit:4;stroke-dasharray:none;stroke-dashoffset:0;stroke-opacity:1;display:inline" />
    </g>
    <path
       style="fill:#fcef3c;fill-opacity:1;fill-rule:nonzero;stroke:#000000;stroke-width:3.00000191;stroke-linecap:round;stroke-linejoin:round;stroke-miterlimit:4;stroke-dasharray:none;stroke-dashoffset:0;stroke-opacity:1;display:inline"
       d="M 1.500001,180.00004 L 1.500001,519.00004 C 1.500001,557.50394 32.709601,588.75 71.156201,588.75 C 109.6031,588.75 191.8969,588.75 230.3438,588.75 C 268.7905,588.75 300,619.9959 300,658.5 C 300,619.9959 331.2095,588.75 369.6562,588.75 C 408.1031,588.75 490.3969,588.75 528.8438,588.75 C 567.2906,588.75 598.5,557.50404 598.5,519.00004 L 598.5,221.18754 L 598.5,180.00004 L 1.500001,180.00004 z M 42.687501,220.81254 L 122.0625,220.84379 L 122.1562,240.90629 L 193.6875,240.65629 L 193.6875,220.90629 L 265.1562,220.96879 L 265.1562,240.65629 L 336.7812,240.65629 L 336.7812,221.03129 L 408.3125,221.06254 L 408.3125,240.71879 L 479.8438,240.68754 L 479.8438,221.12504 L 557.2188,221.15629 L 557.2812,276.59379 L 537.7188,276.59379 L 537.6875,348.12504 L 557.3125,348.12504 L 557.375,419.62504 L 537.75,419.62504 L 537.75,491.28129 L 557.4375,491.28129 L 557.5,547.59379 L 479.8438,547.62504 L 479.8438,528.06254 L 408.3125,528.03129 L 408.3125,547.68754 L 336.7812,547.71879 L 336.7812,528.09379 L 265.1562,528.09379 L 265.1562,547.78129 L 193.6875,547.84379 L 193.6875,528.09379 L 122.1562,527.84379 L 122.0625,547.90629 L 42.406201,547.93754 L 42.468801,491.28129 L 62.156201,491.28129 L 62.156201,419.62504 L 42.531201,419.62504 L 42.562501,348.12504 L 62.218801,348.12504 L 62.187501,276.59379 L 42.625001,276.59379 L 42.687501,220.81254 z"
       id="path3454" />
    <g
       id="g2869"
       inkscape:label="Calque 1"
       transform="translate(-74.999998,-147.9872)">
      <g
         transform="translate(45.218749,202.36205)"
         id="g7512"
         style="display:inline">
        <g
           style="fill:#2b5df2;display:inline"
           id="g7514"
           transform="translate(0,1.49743e-4)" />
        <g
           id="g7516" />
        <g
           id="g7518" />
        <g
           id="g2045"
           transform="translate(-2.364687,24.92524)">
          <g
             style="opacity:1;display:inline"
             inkscape:label="Fond écu"
             id="g2047">
            <path
               id="path5216"
               d="M 33.777426,234.33423 L 33.777426,346.19593 C 66.929676,346.19593 100.08135,375.81556 133.2336,375.81556 C 166.38586,375.81556 199.53751,346.19593 232.68977,346.19593 C 265.842,346.19593 298.99369,375.81556 332.14594,375.81556 C 365.29819,375.81556 398.44987,346.19593 431.60211,346.19593 C 464.75437,346.19593 497.90602,375.81556 531.05828,375.81556 C 564.21051,375.81556 597.36219,346.19593 630.51445,346.19593 L 630.51445,234.33423 C 597.36219,234.33423 564.21051,263.95386 531.05828,263.95386 C 497.90602,263.95386 464.75437,234.33423 431.60211,234.33423 C 398.44987,234.33423 365.29819,263.95386 332.14594,263.95386 C 298.99369,263.95386 265.842,234.33423 232.68977,234.33423 C 199.53751,234.33423 166.38586,263.95386 133.2336,263.95386 C 100.08135,263.95386 66.929676,234.33423 33.777426,234.33423 z"
               style="fill:#ffffff;fill-opacity:1;stroke:#000000;stroke-width:3.26297927;stroke-miterlimit:4;stroke-dasharray:none;stroke-dashoffset:0;stroke-opacity:1"
               sodipodi:nodetypes="ccsssssccsssssc" />
          </g>
          <g
             inkscape:label="Meubles"
             id="g7523" />
          <g
             inkscape:label="Reflet final"
             id="g2051" />
          <g
             inkscape:label="Contour final"
             id="g2053" />
        </g>
      </g>
    </g>
  </g>
  <g
     inkscape:groupmode="layer"
     id="layer2"
     inkscape:label="Reflet final"
     sodipodi:insensitive="true">
    <g
       id="g3289"
       transform="translate(1.4946528,0.2672458)">
      <path
         id="path14529"
         d="M 102.96517,16.70648 C 102.96477,16.670586 95.905414,29.763121 89.428524,34.525977 C 78.033684,42.905189 75.576244,52.96251 84.100474,62.517118 C 88.055414,66.950067 88.460124,69.807744 85.349664,72.918194 C 84.628814,73.638984 83.895674,74.102049 83.157244,74.345795 C 81.490694,74.895905 79.804354,74.37071 78.288104,73.402561 C 77.236254,72.526217 76.207454,71.175532 75.126994,69.323709 C 68.674154,58.264139 58.320224,57.506921 46.829934,65.754707 C 40.298704,70.442844 33.011464,71.643531 25.594404,73.096651 C 25.560134,73.085934 35.838054,83.845236 38.366314,91.476986 C 42.814224,104.90341 51.628184,110.34664 63.349294,105.19214 C 64.787834,104.55953 66.040024,104.13587 67.147734,103.91749 C 68.634144,103.81439 70.225034,103.78305 71.379544,104.47834 C 72.551344,105.18405 73.441294,106.00674 73.622914,107.23156 C 74.220994,111.26493 73.208374,113.41182 70.436314,115.10886 C 70.410374,115.12473 70.385854,115.14411 70.359824,115.15984 C 69.445104,115.52619 68.359574,115.82862 67.096744,116.10308 C 54.584434,118.8225 50.668764,128.39971 54.962154,141.87634 C 57.402584,149.5366 55.425094,164.28785 55.446514,164.25906 C 62.301164,161.07502 68.897484,157.75356 76.936984,157.70739 C 91.080774,157.62622 98.461954,150.97047 97.739184,138.20537 C 97.272814,129.97062 101.27204,129.21934 103.19465,129.02794 C 105.48607,129.10284 109.37004,130.78662 108.67557,138.20537 C 107.39538,150.9456 115.33398,157.62622 129.47772,157.70739 C 137.51723,157.75356 144.11356,161.07501 150.96824,164.25906 C 150.98961,164.28785 149.0121,149.53659 151.45256,141.87634 C 155.74596,128.39971 151.80481,118.8225 139.29252,116.10308 C 137.75169,115.76821 136.49483,115.38148 135.46859,114.90491 C 134.01088,113.96065 132.71658,112.7598 132.17997,111.28493 C 132.17818,111.27688 132.18168,111.2675 132.17997,111.25944 C 132.17377,111.24202 132.15933,111.22631 132.15452,111.20845 C 131.91558,110.32812 132.03468,108.70293 132.30748,107.89438 C 132.65924,106.85161 133.45983,105.24317 134.37236,104.83524 C 135.66193,104.01776 137.32463,103.82618 139.01205,103.91749 C 140.13211,104.13262 141.40087,104.54983 142.86151,105.19214 C 154.58259,110.34664 163.3965,104.90341 167.84449,91.476986 C 170.37273,83.845236 180.65063,73.085934 180.61637,73.096651 C 173.1993,71.643531 165.9121,70.442844 159.38088,65.754707 C 147.89058,57.506921 137.53664,58.264139 131.08382,69.323709 C 130.20482,70.830131 129.35862,71.984103 128.509,72.841716 C 127.00717,75.118725 122.14305,74.777401 120.58077,73.020164 C 119.59156,71.820238 119.17111,71.35817 118.84725,70.521868 C 118.50903,69.174603 118.74773,67.685405 119.25514,66.239075 C 119.80701,65.149797 120.67311,63.969765 121.85541,62.644581 C 130.37965,53.089973 127.89668,43.007151 116.50191,34.627947 C 110.02494,29.865091 106.63916,23.311493 102.96517,16.70648 z M 103.09268,87.958976 C 108.56055,87.958976 112.9839,92.407796 112.9839,97.875686 C 112.9839,103.34359 108.56055,107.76691 103.09268,107.76691 C 97.624724,107.76691 93.201454,103.34359 93.201454,97.875686 C 93.201454,92.407786 97.624724,87.958976 103.09268,87.958976 z"
         style="fill:#ffff00;fill-opacity:1;fill-rule:evenodd;stroke:#000000;stroke-width:2.44731283;stroke-linecap:butt;stroke-linejoin:miter;stroke-miterlimit:4;stroke-dasharray:none;stroke-opacity:1;display:inline" />
      <path
         id="path3281"
         d="M 493.76504,16.706498 C 493.76469,16.670604 486.70533,29.76314 480.22844,34.525987 C 468.8336,42.905199 466.37612,52.962511 474.90037,62.517119 C 478.85531,66.950068 479.26,69.807753 476.14954,72.918204 C 475.42877,73.638994 474.69558,74.102059 473.95713,74.345804 C 472.29058,74.895906 470.60426,74.370719 469.088,73.402562 C 468.03619,72.526227 467.00739,71.175533 465.92689,69.32371 C 459.47405,58.26414 449.12017,57.506931 437.62989,65.754717 C 431.09867,70.442854 423.81133,71.643532 416.39426,73.096652 C 416.36005,73.085944 426.638,83.845245 429.16626,91.476987 C 433.61416,104.90341 442.42816,110.34663 454.14922,105.19214 C 455.58771,104.55953 456.83994,104.13587 457.94765,103.91749 C 459.43399,103.81439 461.02495,103.78305 462.17938,104.47834 C 463.3513,105.18405 464.24118,106.00673 464.42279,107.23156 C 465.02092,111.26493 464.0083,113.41182 461.23622,115.10885 C 461.21024,115.12473 461.18575,115.1441 461.15968,115.15983 C 460.24495,115.52618 459.15955,115.82862 457.89665,116.10307 C 445.3843,118.8225 441.46873,128.3997 445.76205,141.87633 C 448.20248,149.53659 446.22501,164.28784 446.24644,164.25904 C 453.10109,161.07501 459.69731,157.75355 467.73683,157.70738 C 481.88065,157.62621 489.26185,150.97045 488.53907,138.20536 C 488.07269,129.97062 492.07198,129.21933 493.9946,129.02794 C 496.28595,129.10284 500.16993,130.78661 499.47549,138.20536 C 498.19527,150.94558 506.13392,157.62621 520.27765,157.70738 C 528.31716,157.75355 534.91347,161.07501 541.76812,164.25904 C 541.78946,164.28784 539.812,149.53658 542.25242,141.87633 C 546.54583,128.39971 542.60472,118.8225 530.09237,116.10307 C 528.55162,115.76821 527.29475,115.38148 526.26849,114.90491 C 524.81076,113.96064 523.51644,112.7598 522.97991,111.28492 C 522.97807,111.27688 522.98157,111.2675 522.97991,111.25943 C 522.9737,111.24201 522.95926,111.2263 522.95445,111.20844 C 522.71545,110.32811 522.8346,108.70293 523.10737,107.89438 C 523.45914,106.85161 524.2597,105.24317 525.17224,104.83524 C 526.46182,104.01776 528.12453,103.82618 529.81199,103.91749 C 530.93203,104.13262 532.2008,104.54983 533.66141,105.19214 C 545.38248,110.34663 554.19639,104.90341 558.64438,91.476987 C 561.17264,83.845245 571.4505,73.085944 571.41629,73.096652 C 563.99922,71.643532 556.71197,70.442854 550.18075,65.754717 C 538.69046,57.506931 528.33658,58.26414 521.88375,69.32371 C 521.00472,70.830141 520.1585,71.984104 519.30886,72.841726 C 517.80704,75.118726 512.94298,74.777411 511.38071,73.020174 C 510.39145,71.820239 509.97101,71.35818 509.64715,70.521877 C 509.30894,69.174604 509.54759,67.685406 510.05508,66.239076 C 510.60692,65.149807 511.473,63.969766 512.65534,62.64459 C 521.17951,53.089982 518.69657,43.007161 507.30181,34.627957 C 500.82483,29.86511 497.43906,23.311511 493.76504,16.706498 z M 493.89259,87.958977 C 499.36045,87.958977 503.78377,92.407797 503.78377,97.875687 C 503.78377,103.34358 499.36045,107.76691 493.89259,107.76691 C 488.42464,107.76691 484.00141,103.34358 484.00141,97.875687 C 484.00141,92.407787 488.42464,87.958977 493.89259,87.958977 z"
         style="fill:#ffff00;fill-opacity:1;fill-rule:evenodd;stroke:#000000;stroke-width:2.44731236;stroke-linecap:butt;stroke-linejoin:miter;stroke-miterlimit:4;stroke-dasharray:none;stroke-opacity:1;display:inline" />
      <path
         id="path3283"
         d="M 298.36513,16.706498 C 298.36472,16.670613 291.30536,29.76314 284.82843,34.525996 C 273.4336,42.905208 270.97615,52.96252 279.50038,62.517127 C 283.45532,66.950076 283.86003,69.807753 280.74958,72.918204 C 280.02873,73.638994 279.29559,74.102059 278.55715,74.345804 C 276.89062,74.895906 275.20427,74.370719 273.68802,73.402571 C 272.63618,72.526227 271.60738,71.175542 270.52691,69.323718 C 264.07407,58.264149 253.72014,57.506931 242.22986,65.754717 C 235.69863,70.442854 228.41139,71.643541 220.99433,73.096652 C 220.96006,73.085944 231.23798,83.845245 233.76624,91.476987 C 238.21415,104.90341 247.02811,110.34663 258.74922,105.19214 C 260.18775,104.55953 261.43994,104.13587 262.54765,103.91749 C 264.03407,103.81439 265.62495,103.78305 266.77946,104.47834 C 267.95127,105.18405 268.84121,106.00673 269.02283,107.23156 C 269.62092,111.26493 268.60829,113.41182 265.83622,115.10885 C 265.81029,115.12473 265.78577,115.1441 265.75975,115.15983 C 264.84502,115.52618 263.75948,115.82862 262.49666,116.10307 C 249.98436,118.8225 246.06868,128.3997 250.36208,141.87633 C 252.8025,149.53659 250.82501,164.28784 250.84644,164.25904 C 257.70108,161.07501 264.2974,157.75355 272.3369,157.70738 C 286.48069,157.62621 293.8619,150.97045 293.13914,138.20536 C 292.67276,129.97062 296.67199,129.21933 298.5946,129.02794 C 300.88602,129.10284 304.76994,130.78661 304.0755,138.20536 C 302.79536,150.94558 310.73392,157.62621 324.87766,157.70738 C 332.91717,157.75355 339.51348,161.07501 346.36812,164.25904 C 346.38947,164.28784 344.412,149.53658 346.85243,141.87633 C 351.14584,128.39971 347.20473,118.8225 334.69238,116.10307 C 333.15163,115.76821 331.89476,115.38148 330.86849,114.90491 C 329.41076,113.96064 328.11645,112.7598 327.57992,111.28492 C 327.57808,111.27688 327.58158,111.2675 327.57992,111.25943 C 327.57371,111.24201 327.55927,111.2263 327.55446,111.20844 C 327.31546,110.32811 327.43461,108.70293 327.70738,107.89438 C 328.05915,106.85161 328.85971,105.24317 329.77224,104.83524 C 331.06183,104.01776 332.72453,103.82618 334.41199,103.91749 C 335.53204,104.13262 336.80081,104.54983 338.26142,105.19214 C 349.98249,110.34663 358.7964,104.90341 363.24439,91.476987 C 365.77265,83.845245 376.0505,73.085944 376.0163,73.096652 C 368.59923,71.643541 361.31198,70.442854 354.78076,65.754717 C 343.29047,57.506931 332.93659,58.264149 326.48376,69.323718 C 325.60473,70.830141 324.7585,71.984104 323.90887,72.841726 C 322.40705,75.118726 317.54299,74.777411 315.98072,73.020174 C 314.99146,71.820239 314.57102,71.35818 314.24716,70.521877 C 313.90895,69.174612 314.1476,67.685406 314.65509,66.239084 C 315.20693,65.149807 316.07301,63.969774 317.25535,62.64459 C 325.77952,53.089982 323.29658,43.007161 311.90182,34.627966 C 305.42484,29.86511 302.03907,23.311511 298.36513,16.706498 z M 298.49263,87.958977 C 303.96046,87.958977 308.38378,92.407797 308.38378,97.875687 C 308.38378,103.34358 303.96046,107.76691 298.49263,107.76691 C 293.02468,107.76691 288.60141,103.34358 288.60141,97.875687 C 288.60141,92.407787 293.02468,87.958977 298.49263,87.958977 z"
         style="fill:#ffff00;fill-opacity:1;fill-rule:evenodd;stroke:#000000;stroke-width:2.44731236;stroke-linecap:butt;stroke-linejoin:miter;stroke-miterlimit:4;stroke-dasharray:none;stroke-opacity:1;display:inline" />
    </g>
    <g
       id="g3527"
       inkscape:label="Calque 1"
       transform="translate(-74.999965,-202.36231)">
      <path
         d="M 76.499965,203.86205 L 76.499965,721.35338 C 76.499965,759.85787 107.70307,791.10791 146.14997,791.10791 C 184.59677,791.10791 266.90317,791.10791 305.34996,791.10791 C 343.79688,791.10781 375,822.35785 375,860.86231 C 375,822.35785 406.20314,791.10791 444.64994,791.10791 C 483.09683,791.10781 565.40323,791.10791 603.85004,791.10791 C 642.29683,791.10791 673.50004,759.85787 673.50004,721.35338 L 673.50004,203.86205 L 76.499965,203.86205 z"
         style="fill:url(#radialGradient11919);fill-opacity:1;fill-rule:evenodd;stroke:none;stroke-width:3.00000024;stroke-linecap:butt;stroke-linejoin:miter;stroke-miterlimit:4;stroke-dasharray:none;stroke-opacity:1;display:inline"
         id="path2875" />
    </g>
  </g>
  <g
     inkscape:groupmode="layer"
     id="layer1"
     inkscape:label="Contour final"
     sodipodi:insensitive="true">
    <g
       id="g2757"
       inkscape:label="Calque 1"
       transform="translate(-74.999944,-202.36234)">
      <path
         sodipodi:nodetypes="cssccccssc"
         d="M 374.99998,860.86234 C 374.99998,822.35824 406.20317,791.10862 444.64998,791.10862 C 483.09679,791.10862 565.40315,791.10862 603.84996,791.10862 C 642.29676,791.10862 673.50005,759.859 673.50005,721.355 L 673.50005,203.86202 L 76.499955,203.86204 L 76.499945,721.355 C 76.499945,759.859 107.70316,791.10862 146.14996,791.10862 C 184.59679,791.10862 266.90317,791.10862 305.34998,791.10862 C 343.79678,791.10862 374.99998,822.35824 374.99998,860.86234 z"
         style="fill:none;fill-opacity:1;fill-rule:nonzero;stroke:#000000;stroke-width:3.00000191;stroke-linecap:round;stroke-linejoin:round;stroke-miterlimit:4;stroke-dasharray:none;stroke-dashoffset:0;stroke-opacity:1;display:inline"
         id="path1572" />
    </g>
  </g>
</svg>
