<?xml version="1.0" encoding="UTF-8" standalone="no"?>
<svg
   xmlns:dc="http://purl.org/dc/elements/1.1/"
   xmlns:cc="http://creativecommons.org/ns#"
   xmlns:rdf="http://www.w3.org/1999/02/22-rdf-syntax-ns#"
   xmlns:svg="http://www.w3.org/2000/svg"
   xmlns="http://www.w3.org/2000/svg"
   xmlns:xlink="http://www.w3.org/1999/xlink"
   xmlns:sodipodi="http://sodipodi.sourceforge.net/DTD/sodipodi-0.dtd"
   xmlns:inkscape="http://www.inkscape.org/namespaces/inkscape"
   height="660"
   width="600"
   version="1.0"
   id="svg2"
   sodipodi:version="0.32"
   inkscape:version="0.46"
   sodipodi:docname="Blason_ville_fr_Gayan_A(65).svg"
   sodipodi:docbase="D:\Mes documents\Renaud-Notre Lapin"
   inkscape:export-filename="/Users/olivier/Desktop/Blason Rouge/Blason_Vide_3D.png"
   inkscape:export-xdpi="144"
   inkscape:export-ydpi="144"
   inkscape:output_extension="org.inkscape.output.svg.inkscape">
  <metadata
     id="metadata49">
    <rdf:RDF>
      <cc:Work
         rdf:about="">
        <dc:format>image/svg+xml</dc:format>
        <dc:type
           rdf:resource="http://purl.org/dc/dcmitype/StillImage" />
        <dc:title>Gabarit d'un blason en pointe pour le projet Blasons de Wikipédia</dc:title>
        <dc:date>03-AUG-2006</dc:date>
        <dc:creator>
          <cc:Agent>
            <dc:title>Jérôme BLUM (wagner51)</dc:title>
          </cc:Agent>
        </dc:creator>
        <cc:license
           rdf:resource="http://web.resource.org/cc/PublicDomain" />
        <dc:language>fr</dc:language>
        <dc:subject>
          <rdf:Bag>
            <rdf:li>gabarit modèle blason projet wikipédia</rdf:li>
          </rdf:Bag>
        </dc:subject>
      </cc:Work>
      <cc:License
         rdf:about="http://web.resource.org/cc/PublicDomain">
        <cc:permits
           rdf:resource="http://web.resource.org/cc/Reproduction" />
        <cc:permits
           rdf:resource="http://web.resource.org/cc/Distribution" />
        <cc:permits
           rdf:resource="http://web.resource.org/cc/DerivativeWorks" />
      </cc:License>
    </rdf:RDF>
  </metadata>
  <sodipodi:namedview
     inkscape:window-height="975"
     inkscape:window-width="1280"
     inkscape:pageshadow="2"
     inkscape:pageopacity="0.0"
     guidetolerance="10.0"
     gridtolerance="10.0"
     objecttolerance="10.0"
     borderopacity="1.0"
     bordercolor="#666666"
     pagecolor="#ffffff"
     id="base"
     showgrid="false"
     height="660px"
     inkscape:zoom="1.1590904"
     inkscape:cx="300.00013"
     inkscape:cy="330.00014"
     inkscape:window-x="-4"
     inkscape:window-y="-4"
     inkscape:current-layer="layer3"
     inkscape:object-nodes="true" />
  <desc
     id="desc4">Flag of Canton of Valais (Wallis)</desc>
  <defs
     id="defs6">
    <linearGradient
       id="linearGradient2893">
      <stop
         style="stop-color:white;stop-opacity:0.3137255;"
         offset="0"
         id="stop2895" />
      <stop
         id="stop2897"
         offset="0.19"
         style="stop-color:white;stop-opacity:0.25098041;" />
      <stop
         style="stop-color:#6b6b6b;stop-opacity:0.1254902;"
         offset="0.60000002"
         id="stop2901" />
      <stop
         style="stop-color:black;stop-opacity:0.1254902;"
         offset="1"
         id="stop2899" />
    </linearGradient>
    <radialGradient
       inkscape:collect="always"
       xlink:href="#linearGradient2893"
       id="radialGradient3163"
       gradientUnits="userSpaceOnUse"
       gradientTransform="matrix(1.353218,0,0,1.348928,-77.62935,-85.74693)"
       cx="221.44487"
       cy="226.33101"
       fx="221.44487"
       fy="226.33101"
       r="300" />
    <g
       id="s-4">
      <g
         id="c-6">
        <path
           transform="matrix(0.951057,0.309017,-0.309017,0.951057,0,-1)"
           d="M 0,0 L 0,1 L 0.5,1 L 0,0 z"
           id="t-0" />
        <use
           height="540"
           width="810"
           y="0"
           x="0"
           id="use2144-7"
           transform="scale(-1,1)"
           xlink:href="#t-0" />
      </g>
      <g
         id="a-1">
        <use
           height="540"
           width="810"
           y="0"
           x="0"
           id="use2147-7"
           transform="matrix(0.309017,0.951057,-0.951057,0.309017,0,0)"
           xlink:href="#c-6" />
        <use
           height="540"
           width="810"
           y="0"
           x="0"
           id="use2149-7"
           transform="matrix(-0.809017,0.587785,-0.587785,-0.809017,0,0)"
           xlink:href="#c-6" />
      </g>
      <use
         height="540"
         width="810"
         y="0"
         x="0"
         id="use2151-7"
         transform="scale(-1,1)"
         xlink:href="#a-1" />
    </g>
    <g
       id="f">
      <rect
         id="rect1964"
         style="fill:#28166f"
         y="-30"
         x="-50"
         height="60"
         width="100" />
      <g
         id="g1966"
         style="fill:#ffffff"
         transform="translate(0,-20)">
        <path
           id="path1968"
           d="M -1.2116,27.8178 C -1.2116,22.1752 -2.0914,20.4715 -4.5417,13.9804 C -5.709,10.8879 -5.0241,7.1025 -2.8585,3.6009 C -2.0824,2.346 -1.1136,1.2135 0,0 C 1.1136,1.2135 2.0824,2.346 2.8585,3.6009 C 5.0241,7.1025 5.709,10.8879 4.5417,13.9804 C 2.0914,20.4715 1.2116,22.1752 1.2116,27.8178 L -1.2116,27.8178 z" />
        <path
           id="rwi"
           d="M 2.9221,27.6725 C 2.9221,21.7209 5.2387,17.8293 8.5007,16.6604 C 9.9492,16.1414 11.8076,16.3869 13.5193,18.107 C 15.6379,20.236 16.2551,26.1004 10.0355,27.2283 C 10.6938,26.2724 10.6546,24.1467 9.3215,23.4409 C 8.3311,22.9165 7.209,23.1877 6.6462,23.5643 C 5.8225,24.1156 4.9171,25.6702 4.9672,27.6725 L 2.9221,27.6725 z" />
        <path
           id="path1971"
           d="M 1.7773,30.1835 C 1.7899,32.1913 2.7952,33.5181 4.5165,34.257 C 4.2948,34.9549 3.2566,36.3776 1.8314,36.2812 C 1.5499,37.787 1.2822,38.6324 0,40 C -1.2822,38.6324 -1.5499,37.787 -1.8314,36.2812 C -3.2566,36.3776 -4.2948,34.9549 -4.5165,34.257 C -2.7952,33.5181 -1.7899,32.1913 -1.7773,30.1835 L 1.7773,30.1835 z" />
        <use
           xlink:href="#rwi"
           height="400"
           width="800"
           y="0"
           x="0"
           id="use1973"
           transform="scale(-1,1)" />
        <rect
           id="rect1975"
           y="27.33077"
           x="-7.9229999"
           height="3.2179999"
           width="15.846" />
      </g>
    </g>
    <g
       id="s">
      <g
         id="c">
        <path
           transform="matrix(0.951057,0.309017,-0.309017,0.951057,0,-1)"
           d="M 0,0 L 0,1 L 0.5,1 L 0,0 z"
           id="t" />
        <use
           height="540"
           width="810"
           y="0"
           x="0"
           id="use2144"
           transform="scale(-1,1)"
           xlink:href="#t" />
      </g>
      <g
         id="a">
        <use
           height="540"
           width="810"
           y="0"
           x="0"
           id="use2147"
           transform="matrix(0.309017,0.951057,-0.951057,0.309017,0,0)"
           xlink:href="#c" />
        <use
           height="540"
           width="810"
           y="0"
           x="0"
           id="use2149"
           transform="matrix(-0.809017,0.587785,-0.587785,-0.809017,0,0)"
           xlink:href="#c" />
      </g>
      <use
         height="540"
         width="810"
         y="0"
         x="0"
         id="use2151"
         transform="scale(-1,1)"
         xlink:href="#a" />
    </g>
    <radialGradient
       inkscape:collect="always"
       xlink:href="#linearGradient2893"
       id="radialGradient21318"
       gradientUnits="userSpaceOnUse"
       gradientTransform="matrix(1.353218,0,0,1.348928,-77.62935,-85.74693)"
       cx="221.44487"
       cy="226.33101"
       fx="221.44487"
       fy="226.33101"
       r="300" />
    <radialGradient
       inkscape:collect="always"
       xlink:href="#linearGradient2893"
       id="radialGradient21365"
       gradientUnits="userSpaceOnUse"
       gradientTransform="matrix(1.353218,0,0,1.348928,-77.62935,-85.74693)"
       cx="221.44487"
       cy="226.33101"
       fx="221.44487"
       fy="226.33101"
       r="300" />
  </defs>
  <g
     inkscape:groupmode="layer"
     id="layer3"
     inkscape:label="Fond écu"
     style="display:inline">
    <path
       id="path2855"
       style="fill:#e20909;fill-opacity:1;fill-rule:evenodd;stroke:none;stroke-width:1px;stroke-linecap:butt;stroke-linejoin:miter;stroke-opacity:1"
       d="M 300,658.5 C 300,658.5 598.50001,546.17969 598.50001,260.72817 C 598.50001,-24.723354 598.50001,2.1764765 598.50001,2.1764765 L 1.5,2.1764765 L 1.5,260.72817 C 1.5,546.17969 300,658.5 300,658.5 z"
       sodipodi:nodetypes="cccccc" />
    <g
       id="g3714"
       transform="translate(212.95033,-619.1589)" />
    <g
       id="layer9"
       inkscape:label="Fond d'écu"
       transform="translate(212.95033,-619.1589)">
      <g
         transform="matrix(2,0,0,2,-732.89186,-1853.1884)"
         inkscape:label="Meubles"
         id="g2807" />
      <g
         transform="matrix(2,0,0,2,1696.9763,-413.55025)"
         inkscape:label="Meubles"
         id="g4626" />
      <g
         id="g5271"
         inkscape:label="Meubles"
         transform="matrix(2,0,0,2,-732.89213,-453.18787)" />
      <g
         id="g5273"
         inkscape:label="Reflet final"
         transform="matrix(2,0,0,2,-732.89213,-453.18787)" />
      <g
         id="g5275"
         inkscape:label="Contour final"
         transform="matrix(2,0,0,2,-732.89213,-453.18787)" />
    </g>
    <g
       id="layer6"
       inkscape:label="Reflet final"
       transform="translate(212.95033,-619.1589)" />
    <g
       id="layer5"
       inkscape:label="Contour final"
       transform="translate(212.95033,-619.1589)" />
    <g
       transform="translate(912.95033,-619.15918)"
       id="g20110" />
    <g
       transform="translate(912.95033,-619.15918)"
       inkscape:label="Fond d'écu"
       id="g20112">
      <g
         id="g20114"
         inkscape:label="Meubles"
         transform="matrix(2,0,0,2,-732.89186,-1853.1884)" />
      <g
         id="g20116"
         inkscape:label="Meubles"
         transform="matrix(2,0,0,2,1696.9763,-413.55025)" />
      <g
         transform="matrix(2,0,0,2,-732.89213,-453.18787)"
         inkscape:label="Meubles"
         id="g20118" />
      <g
         transform="matrix(2,0,0,2,-732.89213,-453.18787)"
         inkscape:label="Reflet final"
         id="g20120" />
      <g
         transform="matrix(2,0,0,2,-732.89213,-453.18787)"
         inkscape:label="Contour final"
         id="g20122" />
    </g>
    <g
       transform="translate(912.95033,-619.15918)"
       inkscape:label="Reflet final"
       id="g20124" />
    <g
       transform="translate(912.95033,-619.15918)"
       inkscape:label="Contour final"
       id="g20126" />
  </g>
  <g
     inkscape:groupmode="layer"
     id="layer4"
     inkscape:label="Meubles">
    <g
       style="display:inline"
       id="g22015">
      <path
         style="fill:#ffffff;fill-opacity:1;stroke:#000000;stroke-width:2.8;stroke-miterlimit:4;stroke-dasharray:none;stroke-opacity:1"
         d="M 357.31208,323.58332 C 382.70175,364.78786 440.84391,337.62836 396.92035,297.71236 C 350.84699,255.84272 370.48453,227.4463 383.32929,215.06905 C 403.96636,195.18314 427.95826,180.70409 429.15065,157.93737 C 423.51043,136.76287 390.50939,142.28109 394.59045,162.96783 C 400.68923,193.88218 396.23884,190.81096 390.31898,198.8997 C 383.3085,208.47867 374.83721,210.40617 367.79663,209.67927 C 376.70402,197.53459 376.86756,186.62274 370.90316,169.79489 C 363.31526,148.38645 380.8352,137.51678 391.87225,133.86301 C 404.5582,129.66338 426.98715,131.68512 436.91699,144.64258 C 450.57379,162.46336 438.06609,185.21535 420.60767,200.33698 C 376.08708,238.89857 386.23257,228.29501 385.27086,251.00093 C 385.31788,241.29311 383.70282,237.09764 391.48392,229.08249 C 413.67963,206.21909 426.2645,215.6431 437.3053,205.72676 C 442.70384,200.87796 449.61763,197.47689 441.57676,180.21513 C 454.1872,183.33061 459.61323,193.54192 451.28463,211.47587 C 442.82736,229.68693 411.95313,233.17672 405.85164,239.1434 C 387.59273,256.99896 405.97784,262.17921 407.79321,273.99733 C 406.2492,266.69118 395.24417,259.33419 406.62828,252.07888 C 411.40637,249.03372 417.16765,246.04085 429.15065,243.09592 C 442.92987,239.70954 449.88724,233.60477 445.07156,222.61475 C 466.69209,235.71963 450.15934,250.39371 434.65069,256.24159 C 410.94317,265.18102 414.52769,278.48209 417.11281,296.99373 C 413.7955,282.49094 420.89308,273.56235 433.42211,269.68551 C 442.84901,266.76853 451.58327,273.08259 458.27437,286.57348 C 441.63156,272.87852 425.13271,278.87565 424.87914,300.2276 L 424.49083,332.92562 C 421.93532,344.78547 411.93858,363.24264 380.61107,354.48474 L 345.27427,337.23743 L 357.31208,323.58332 z"
         id="path3098"
         sodipodi:nodetypes="csscsscsssscsscsscsscscscscccc" />
      <path
         sodipodi:nodetypes="ccccccc"
         id="path4241"
         d="M 245.62,178.52936 C 245.46443,186.56301 247.09896,194.00508 255.18371,199.31551 C 263.65937,203.85595 272.50771,200.05694 281.2059,192.1124 C 290.3995,183.94065 297.74666,185.58284 304.72972,187.60871 C 305.87924,183.83025 304.46829,182.29468 304.78162,179.76419 C 294.34293,175.59456 282.64973,182.06589 271.07971,187.31802 C 259.49592,193.82297 251.90355,188.37239 245.62,178.52936 z"
         style="fill:#ffffff;fill-opacity:1;stroke:#000000;stroke-width:2.8;stroke-miterlimit:4;stroke-dasharray:none;stroke-opacity:1" />
      <path
         style="fill:#ffffff;fill-opacity:1;stroke:#000000;stroke-width:2.8;stroke-miterlimit:4;stroke-dasharray:none;stroke-opacity:1"
         d="M 306.80395,327.31658 C 289.73706,333.37522 286.72538,345.53082 266.41486,350.05183 C 256.58882,352.23905 249.4379,349.90642 230.06472,370.60698 C 225.18434,371.67104 223.82801,374.36559 224.00637,377.77014 C 228.67111,390.24388 224.74359,398.9761 207.85073,402.0626 C 209.99286,408.66768 230.54031,409.07 232.42073,399.25964 C 232.71466,397.72636 234.77675,383.999 234.77675,383.999 L 233.43049,400.81685 L 242.18143,409.84865 C 244.01845,417.42618 242.72295,422.64862 234.44014,422.61779 C 224.07549,422.92845 221.78861,429.88319 216.60168,434.45258 C 211.62202,434.84404 204.71427,438.80368 203.81179,431.64958 C 206.48338,425.10991 200.98132,426.88986 197.75343,426.35507 C 196.7917,430.31907 193.05385,433.1821 187.65614,435.3869 C 191.34022,440.01349 194.13726,445.39241 205.15813,443.79582 C 195.75247,446.38764 188.4958,442.51657 181.59778,437.56699 C 183.92589,443.65167 181.9144,448.84401 178.5686,453.76195 C 186.604,456.87908 195.53783,453.34511 204.14836,452.20476 L 184.29036,456.56493 C 187.70095,460.10848 192.20221,462.30647 192.03164,470.26838 C 194.60182,472.77891 197.24978,474.35474 200.44601,469.33405 L 202.12895,465.90819 C 205.13204,465.09699 208.70256,466.12361 210.54332,461.54802 C 212.58506,462.49812 216.15583,460.97225 215.92851,465.59675 C 213.1099,468.08829 213.30842,470.57981 214.91875,473.07135 C 220.61225,468.52695 226.76903,468.69769 233.0939,470.57981 C 233.42004,468.9188 234.18559,467.25779 232.08416,465.59675 C 227.9842,463.06273 227.39843,459.98674 227.03554,456.87639 C 237.79942,458.29164 250.93418,464.34263 255.6444,442.23862 C 255.87147,449.16889 256.19516,454.92534 260.73388,454.67415 C 263.90734,455.82249 261.75852,459.21501 281.91431,456.47373 C 276.26966,454.33948 269.1812,454.32296 277.18533,441.92718 L 276.17559,433.51824 C 282.92397,431.9081 285.46985,427.96478 283.24369,421.37201 C 287.68504,419.65533 288.89221,417.2736 285.26313,413.8974 C 256.46459,396.22577 297.92587,371.69588 320.94019,370.29554 L 337.7689,360.3294 L 326.99855,326.38224 L 306.80395,327.31658 z"
         id="path4249"
         sodipodi:nodetypes="cscccsccccccccccccccccccccccccccccccccc" />
      <path
         style="fill:#ffffff;fill-opacity:1;stroke:#000000;stroke-width:2.8;stroke-miterlimit:4;stroke-dasharray:none;stroke-opacity:1"
         d="M 169.453,147.26059 C 165.23164,148.16623 164.75334,150.55105 164.92086,153.19724 C 166.206,155.10375 164.64897,158.22164 170.15932,159.56962 C 169.50846,166.48499 176.16174,167.30969 178.95896,171.03444 L 167.06922,162.45624 C 168.20554,157.36734 164.7637,156.50866 162.30153,154.74948 C 160.357,158.12927 160.92006,164.31985 153.73743,161.77544 C 148.95151,166.66407 151.73591,171.34677 155.62095,171.90588 C 160.36095,174.04576 161.81315,170.72049 163.47874,167.73933 C 163.05495,169.67249 160.78652,171.84741 164.44998,173.24026 C 169.54895,177.3727 177.06515,179.83244 172.5432,190.64175 C 167.76517,189.61009 159.77262,190.68291 163.47874,197.44984 C 167.20935,198.70851 174.54285,197.94474 171.8074,207.36242 C 174.17425,209.51575 175.74433,208.74257 177.51693,208.69682 C 181.34774,206.19956 181.18254,202.86537 180.75415,199.49227 C 182.36399,208.48119 188.52378,215.26269 183.72663,219.48084 C 176.59721,225.7497 179.82585,230.61832 182.04907,235.79302 C 187.34139,248.11135 183.37621,252.50093 170.63021,245.24266 C 171.6249,255.51552 189.86202,261.82695 193.70338,246.79491 C 195.88799,238.24648 194.2996,231.23316 197.0585,224.76391 C 194.07284,232.87655 198.44516,238.80074 203.94505,244.80694 C 212.58506,254.24229 206.51078,255.74626 201.79669,257.79678 C 205.75454,258.75511 210.76444,259.23226 209.89002,262.42629 C 214.78605,264.64186 219.43242,265.92986 223.92991,266.66612 L 231.76319,286.17854 C 224.70468,292.3082 215.18526,298.56767 203.47417,304.93602 C 198.46513,317.65887 168.34821,333.43331 163.47874,320.56741 C 162.49593,316.3861 160.85942,314.60411 154.91464,318.36158 C 154.33933,321.16942 155.38919,323.82456 149.44055,327.18487 L 150.88267,330.47999 C 156.16878,332.55492 160.43262,332.74119 165.1563,333.77511 C 158.26571,333.01973 151.90381,334.77118 144.43753,331.35143 L 142.78944,334.42868 C 149.82686,338.83313 145.41734,343.25916 144.9378,347.66361 C 147.87308,348.46455 150.80196,350.97034 153.73743,345.67566 L 161.59522,344.34127 C 154.12252,347.09586 152.28138,349.20288 149.67599,351.39445 C 155.52706,356.64159 153.06068,361.25407 151.589,365.93654 C 156.74278,366.43258 161.59718,366.32756 163.00786,359.31907 C 166.10174,355.88902 169.21388,353.03152 172.30777,352.51098 C 175.51541,353.59943 182.41598,352.25674 175.16253,359.97264 C 169.51582,363.62254 171.17322,366.02812 175.63341,367.9245 C 180.39335,364.8494 185.14701,363.04292 189.90695,366.37225 C 197.03495,363.69275 196.10948,359.71684 191.58441,352.04803 C 199.95725,352.72018 201.47273,350.43268 204.88681,347.66361 C 204.88002,350.65656 205.21746,353.55528 202.76784,357.11325 C 207.51987,356.10203 217.58864,357.3813 216.89428,347.09174 L 217.51236,349.40648 L 222.7509,350.0873 C 225.91382,346.34351 223.20888,342.58411 222.98635,338.84033 C 223.6776,342.31409 224.13993,345.84636 227.28314,348.75291 C 233.01574,348.41776 239.02495,346.51303 244.17601,349.40648 L 240.85045,339.4939 C 242.01663,336.32435 241.70623,334.27305 240.43834,332.74027 C 243.19939,333.56579 246.48219,333.12629 249.65,328.70989 C 253.85458,337.41052 258.04157,337.68165 262.24607,338.40461 L 261.89291,330.39829 C 265.39494,341.66187 279.62903,331.17871 279.40376,330.26214 C 261.35073,327.66436 272.80954,316.35263 280.63991,309.48383 C 294.87739,321.97994 311.84343,326.37583 322.78377,347.71809 C 322.55551,356.07862 321.70498,364.7301 320.45876,373.56161 C 320.19526,379.37509 323.87461,381.11281 327.55136,382.87508 C 321.00271,384.32338 313.47728,384.38244 316.89776,399.86807 C 319.21554,409.41725 311.65018,413.09117 301.50579,415.22714 C 308.20407,419.44355 325.14402,426.54564 328.13996,397.11761 C 338.99848,417.1682 349.37349,401.76489 378.49487,435.48802 C 375.63417,441.60996 382.52984,451.10886 370.54874,457.98197 C 360.53997,464.07069 358.25412,453.17023 347.44608,457.32838 C 348.67188,462.99662 347.99109,466.97064 344.73852,472.22449 C 353.03234,473.80114 361.31326,473.94599 369.60698,468.92937 C 361.46177,474.03842 352.23268,476.21619 343.38483,474.81158 C 348.31204,477.61656 349.51864,486.17256 351.24262,491.96797 C 355.03894,490.18189 359.20992,488.73559 359.5419,483.74379 L 374.96325,474.43031 C 371.46206,478.45932 366.68037,481.64028 366.07537,487.58356 C 372.23771,483.92879 376.70532,485.9196 380.29005,490.85144 C 383.15188,486.73129 380.5756,481.46253 385.02833,478.81472 C 386.10477,475.5669 386.70459,472.10279 390.35523,470.0459 C 386.16136,472.96883 386.67011,475.89179 386.22014,478.81472 C 389.77011,475.36965 396.45266,476.22906 402.2155,477.6982 L 401.59742,471.67985 C 405.79176,469.27886 411.90172,470.98897 409.39644,459.28912 C 416.35268,464.22212 419.93994,462.65133 424.87666,460.56904 C 416.2374,458.49745 414.28748,454.67674 411.69198,449.75778 C 415.52891,449.34165 419.38213,449.02237 422.34567,445.37337 C 414.9017,443.17161 406.18945,436.41593 409.30819,437.69384 C 419.55202,441.89135 431.63518,438.48075 434.20596,434.39873 C 416.407,442.74981 421.37358,429.51104 408.71959,420.70084 C 430.61645,436.52517 434.74323,406.66183 441.29867,425.6299 C 453.50065,424.20196 446.98591,406.69075 437.85525,409.18155 C 411.29417,416.42732 420.52402,405.27677 412.86919,403.1632 C 439.64685,410.318 433.7241,383.53364 442.005,377.61923 C 434.07248,382.29297 428.03002,389.50397 418.43142,387.80414 C 411.92743,386.70722 405.27773,389.92136 405.18798,398.42476 C 403.77505,386.56681 397.11248,393.60093 393.32762,391.09925 C 389.12445,382.52864 380.50148,377.77716 379.58373,371.35578 C 378.43054,363.28533 377.08477,353.93713 375.55186,343.41536 C 367.91125,335.93779 360.70929,328.09837 358.36468,316.53701 C 338.47816,300.32628 339.6401,276.33277 331.70104,255.69989 L 244.52916,222.66703 C 228.34215,202.12161 216.019,202.8029 201.79669,178.95907 C 198.23703,175.26235 194.2061,166.84569 204.88681,162.45624 L 202.53241,154.74948 C 199.11851,153.61196 195.70463,156.34962 192.29074,150.11998 L 188.96519,148.13202 C 186.47677,148.12831 185.08984,149.67851 185.13928,153.19724 C 190.61947,160.28716 185.50194,159.84651 190.61326,173.02241 C 187.47438,165.02098 187.01629,163.18077 182.28452,158.26246 C 183.41143,155.59056 185.2296,153.21884 183.96207,149.43918 C 181.94548,146.89351 180.88063,147.92998 179.42984,147.47844 C 174.37447,152.5881 172.06027,149.51332 169.453,147.26059 z"
         id="path4245"
         sodipodi:nodetypes="cccccccccccccccsscscsccccccccccccccccccccccccccccccccccccccccccccccccccccccccccccccccscccscccccsccccccccccccccc" />
      <path
         style="fill:#ffffff;fill-opacity:1;stroke:#000000;stroke-width:2.8;stroke-miterlimit:4;stroke-dasharray:none;stroke-opacity:1"
         d="M 309.36005,333.19146 C 309.47412,342.63514 313.84916,345.71714 314.07208,353.16624 L 322.60868,354.4545 C 315.60065,353.35123 310.42435,353.92622 310.36973,359.39509 C 310.10321,364.56515 315.08401,365.83686 320.13044,364.68959 C 326.28834,344.14732 313.17881,331.98512 309.36005,333.19146 z"
         id="path4257"
         sodipodi:nodetypes="cccccc" />
      <path
         style="fill:#ffffff;fill-opacity:1;stroke:#000000;stroke-width:2.8;stroke-miterlimit:4;stroke-dasharray:none;stroke-opacity:1"
         d="M 390.44308,400.03825 C 395.12214,401.95597 402.20288,400.6413 402.39153,408.60289 C 398.06977,415.14492 401.49957,415.94876 401.21347,419.50335"
         id="path4247"
         sodipodi:nodetypes="ccc" />
      <g
         style="fill:#ffffff;stroke-width:3.09079097;stroke-miterlimit:4;stroke-dasharray:none"
         id="g4293"
         transform="matrix(0.9417624,0,0,0.8714359,1988.6731,57.693303)">
        <path
           sodipodi:nodetypes="cccc"
           id="path4261"
           d="M -1928.9624,172.15256 C -1940.0798,177.46283 -1950.8781,172.64593 -1948.7149,158.57266 C -1943.4313,162.73376 -1938.5101,166.60124 -1935.3408,161.24749 C -1930.7654,161.45355 -1928.0637,164.2828 -1928.9624,172.15256 z"
           style="opacity:1;fill:#ffffff;fill-opacity:1;stroke:#000000;stroke-width:3.09079097;stroke-miterlimit:4;stroke-dasharray:none;stroke-opacity:1" />
        <path
           sodipodi:nodetypes="cccc"
           id="path4263"
           d="M -1949.1264,119.68479 C -1951.9721,113.15856 -1958.3269,118.03709 -1963.1178,117.83298 C -1956.4709,104.82487 -1948.4347,102.65259 -1939.0444,111.04303 C -1940.6803,116.3383 -1942.1516,121.86395 -1949.1264,119.68479 z"
           style="opacity:1;fill:#ffffff;fill-opacity:1;stroke:#000000;stroke-width:3.09079097;stroke-miterlimit:4;stroke-dasharray:none;stroke-opacity:1" />
        <path
           sodipodi:nodetypes="cccc"
           id="path4265"
           d="M -1944.8056,98.286163 C -1939.6551,98.845052 -1929.9172,92.850417 -1931.6372,103.22431 C -1927.741,108.12426 -1923.5308,107.37284 -1919.0861,102.40128 C -1923.9617,80.076615 -1941.3388,89.637613 -1944.8056,98.286163 z"
           style="opacity:1;fill:#ffffff;fill-opacity:1;stroke:#000000;stroke-width:3.09079097;stroke-miterlimit:4;stroke-dasharray:none;stroke-opacity:1" />
        <path
           sodipodi:nodetypes="ccccc"
           id="path4267"
           d="M -1909.2098,105.28187 C -1906.3539,98.192466 -1909.2889,96.425835 -1913.1192,93.965288 L -1906.7407,94.3768 C -1895.5859,94.769369 -1895.1895,101.88601 -1897.0702,110.42577 C -1902.7192,113.11794 -1905.614,108.23611 -1909.2098,105.28187 z"
           style="opacity:1;fill:#ffffff;fill-opacity:1;stroke:#000000;stroke-width:3.09079097;stroke-miterlimit:4;stroke-dasharray:none;stroke-opacity:1" />
      </g>
      <g
         style="fill:#ffffff;stroke-width:3.09079097;stroke-miterlimit:4;stroke-dasharray:none"
         id="g4299"
         transform="matrix(0.9417624,0,0,0.8714359,1988.6731,57.693303)">
        <path
           sodipodi:nodetypes="cccc"
           id="path4269"
           d="M -1951.8013,309.18605 C -1956.5086,305.12227 -1961.9093,304.06344 -1968.2617,307.12849 C -1968.3074,294.3535 -1957.3044,291.11602 -1946.0401,299.30976 C -1947.1757,303.38662 -1948.5062,307.26862 -1951.8013,309.18605 z"
           style="opacity:1;fill:#ffffff;fill-opacity:1;stroke:#000000;stroke-width:3.09079097;stroke-miterlimit:4;stroke-dasharray:none;stroke-opacity:1" />
        <path
           sodipodi:nodetypes="cccc"
           id="path4271"
           d="M -1972.9941,333.87677 C -1975.7436,322.91527 -1972.553,316.25523 -1959.4142,316.79902 C -1957.052,320.20074 -1953.5486,322.56494 -1956.9452,331.20194 C -1963.2108,326.59802 -1968.3699,328.63245 -1972.9941,333.87677 z"
           style="opacity:1;fill:#ffffff;fill-opacity:1;stroke:#000000;stroke-width:3.09079097;stroke-miterlimit:4;stroke-dasharray:none;stroke-opacity:1" />
        <path
           sodipodi:nodetypes="cccc"
           id="path4273"
           d="M -1953.0358,335.72857 C -1949.0583,341.28398 -1946.4465,346.83939 -1949.5379,352.3948 C -1955.9735,347.97425 -1958.5145,352.44434 -1956.3279,358.77324 C -1971.177,353.66724 -1966.6996,338.0241 -1953.0358,335.72857 z"
           style="opacity:1;fill:#ffffff;fill-opacity:1;stroke:#000000;stroke-width:3.09079097;stroke-miterlimit:4;stroke-dasharray:none;stroke-opacity:1" />
        <path
           sodipodi:nodetypes="cccc"
           id="path4275"
           d="M -1923.4069,354.86388 C -1918.9872,352.084 -1914.9341,352.23741 -1911.0616,353.8351 C -1915.8708,371.74046 -1929.3261,366.78279 -1933.489,361.85957 C -1929.9946,358.80888 -1919.4111,359.91194 -1923.4069,354.86388 z"
           style="opacity:1;fill:#ffffff;fill-opacity:1;stroke:#000000;stroke-width:3.09079097;stroke-miterlimit:4;stroke-dasharray:none;stroke-opacity:1" />
      </g>
      <g
         style="fill:#ffffff;stroke-width:3.09079097;stroke-miterlimit:4;stroke-dasharray:none"
         id="g4305"
         transform="matrix(0.9417624,0,0,0.8714359,1988.6731,57.693303)">
        <path
           sodipodi:nodetypes="cccc"
           id="path4277"
           d="M -1900.1565,424.20364 C -1907.6793,414.06237 -1922.8785,416.03889 -1926.699,429.5533 C -1921.2163,430.14989 -1911.3165,422.28034 -1911.6788,434.07993 L -1900.1565,424.20364 z"
           style="opacity:1;fill:#ffffff;fill-opacity:1;stroke:#000000;stroke-width:3.09079097;stroke-miterlimit:4;stroke-dasharray:none;stroke-opacity:1" />
        <path
           sodipodi:nodetypes="cccc"
           id="path4279"
           d="M -1919.4976,452.39221 C -1925.5134,445.33492 -1928.6614,449.27075 -1931.4314,454.65553 C -1938.0171,441.50903 -1933.073,436.049 -1918.263,437.16627 C -1916.4965,441.30814 -1917.439,446.61102 -1919.4976,452.39221 z"
           style="opacity:1;fill:#ffffff;fill-opacity:1;stroke:#000000;stroke-width:3.09079097;stroke-miterlimit:4;stroke-dasharray:none;stroke-opacity:1" />
        <path
           sodipodi:nodetypes="cccc"
           id="path4281"
           d="M -1913.3249,459.79943 C -1923.855,462.2653 -1926.5825,468.86194 -1918.4688,481.19805 C -1916.7098,476.04477 -1914.9644,470.87335 -1908.3868,472.14479 C -1906.9353,468.02967 -1908.1969,463.91455 -1913.3249,459.79943 z"
           style="opacity:1;fill:#ffffff;fill-opacity:1;stroke:#000000;stroke-width:3.09079097;stroke-miterlimit:4;stroke-dasharray:none;stroke-opacity:1" />
        <path
           sodipodi:nodetypes="cccc"
           id="path4283"
           d="M -1880.8155,475.43688 C -1878.7554,480.68555 -1880.8876,483.92161 -1884.7248,485.31317 C -1876.7601,491.33601 -1866.4216,487.04018 -1867.6471,473.79083 C -1871.8041,472.2477 -1876.1124,472.06508 -1880.8155,475.43688 z"
           style="opacity:1;fill:#ffffff;fill-opacity:1;stroke:#000000;stroke-width:3.09079097;stroke-miterlimit:4;stroke-dasharray:none;stroke-opacity:1" />
      </g>
      <g
         style="fill:#ffffff;stroke-width:3.09079097;stroke-miterlimit:4;stroke-dasharray:none"
         id="g4311"
         transform="matrix(0.9417624,0,0,0.8714359,1988.6731,57.693303)">
        <path
           sodipodi:nodetypes="cccc"
           id="path4285"
           d="M -1742.1359,459.38792 L -1744.3992,473.37932 C -1749.3007,467.72844 -1753.3998,476.52197 -1757.9791,476.67142 C -1763.9033,468.37853 -1754.0825,457.49611 -1742.1359,459.38792 z"
           style="opacity:1;fill:#ffffff;fill-opacity:1;stroke:#000000;stroke-width:3.09079097;stroke-miterlimit:4;stroke-dasharray:none;stroke-opacity:1" />
        <path
           sodipodi:nodetypes="cccc"
           id="path4287"
           d="M -1739.4611,494.9837 C -1739.3758,490.46655 -1740.2095,485.84728 -1745.0165,480.78654 C -1754.1296,483.4709 -1759.7111,490.41292 -1750.9834,500.95062 C -1747.9555,499.34449 -1746.4348,489.92361 -1739.4611,494.9837 z"
           style="opacity:1;fill:#ffffff;fill-opacity:1;stroke:#000000;stroke-width:3.09079097;stroke-miterlimit:4;stroke-dasharray:none;stroke-opacity:1" />
        <path
           sodipodi:nodetypes="cccc"
           id="path4289"
           d="M -1721.9718,493.33765 C -1715.5779,487.65302 -1712.3955,492.13853 -1709.215,496.62975 C -1714.001,500.27491 -1714.1787,505.64016 -1711.684,512.47296 C -1725.5105,510.17915 -1723.7993,499.40035 -1721.9718,493.33765 z"
           style="opacity:1;fill:#ffffff;fill-opacity:1;stroke:#000000;stroke-width:3.09079097;stroke-miterlimit:4;stroke-dasharray:none;stroke-opacity:1" />
        <path
           sodipodi:nodetypes="cccc"
           id="path4291"
           d="M -1688.2278,481.81532 C -1689.3836,486.42515 -1689.2654,490.71646 -1688.2278,494.77794 C -1697.1211,496.49777 -1701.8508,489.43704 -1702.2193,484.6959 C -1698.5123,480.19988 -1695.2256,478.63277 -1688.2278,481.81532 z"
           style="opacity:1;fill:#ffffff;fill-opacity:1;stroke:#000000;stroke-width:3.09079097;stroke-miterlimit:4;stroke-dasharray:none;stroke-opacity:1" />
      </g>
      <g
         style="fill:#5ab532;stroke-width:3.09079097;stroke-miterlimit:4;stroke-dasharray:none"
         id="g4317"
         transform="matrix(0.9417624,0,0,0.8714359,1988.6731,57.693303)">
        <path
           style="opacity:1;fill:#ffffff;fill-opacity:1;stroke:#000000;stroke-width:3.09079097;stroke-miterlimit:4;stroke-dasharray:none;stroke-opacity:1"
           d="M -1807.179,161.61985 L -1810.9576,153.59021 L -1816.3894,157.1327 L -1816.1533,161.61985 L -1807.179,161.61985 z"
           id="path4235" />
        <path
           id="path4239"
           d="M -1823.2382,140.83725 L -1816.3894,140.36492 L -1817.0979,145.3244 L -1823.0021,148.15839 L -1823.2382,140.83725 z"
           style="opacity:1;fill:#ffffff;fill-opacity:1;stroke:#000000;stroke-width:3.09079097;stroke-miterlimit:4;stroke-dasharray:none;stroke-opacity:1" />
        <path
           sodipodi:nodetypes="csccccccccccccccscccccccccccccscsscscscccccscccccc"
           id="path4227"
           d="M -1789.0408,133.00808 C -1788.3881,128.82079 -1803.1729,130.03887 -1808.8457,135.51214 C -1811.6939,138.26018 -1826.8155,144.04947 -1832.5205,135.96743 L -1833.4311,126.63409 C -1836.6647,123.51217 -1839.9443,120.42559 -1835.7075,112.74791 L -1820.2278,107.2845 L -1820.2278,97.951165 C -1814.6554,95.874361 -1808.1889,95.055776 -1803.1546,90.211327 C -1799.0384,86.907045 -1793.3827,85.398697 -1785.6262,86.341408 C -1775.2133,88.474656 -1757.9006,85.673271 -1752.7428,97.401853 C -1757.665,100.14546 -1766.6764,96.868945 -1767.131,106.3138 C -1764.3003,95.934 -1748.3762,101.10017 -1737.9127,98.539141 C -1735.2669,101.19252 -1744.9687,107.76533 -1756.2603,109.10564 C -1737.5742,106.90558 -1744.2979,117.47315 -1741.6912,123.21946 C -1738.46,125.84287 -1737.4644,132.29867 -1726.2115,121.17068 C -1729.8295,126.5361 -1725.5939,136.60067 -1740.553,137.10564 C -1731.9381,138.06286 -1731.588,152.21507 -1731.9026,153.95117 C -1732.887,159.38296 -1720.6607,173.58132 -1716.4229,165.10564 C -1723.8568,175.53659 -1729.1577,172.45828 -1734.862,171.93491 C -1716.3397,185.1112 -1747.6784,216.81711 -1727.1221,226.56906 C -1732.6347,227.72027 -1736.9819,232.4723 -1744.8782,221.33329 C -1741.8848,227.71356 -1735.4999,232.49786 -1742.1465,243.41459 C -1751.1027,260.66299 -1736.1436,256.13386 -1730.5368,255.47964 C -1731.729,260.24667 -1759.62,280.16704 -1756.488,235.67476 C -1758.8624,251.30467 -1753.9921,265.66144 -1766.7319,275.51216 C -1776.4575,282.82965 -1772.1228,287.33506 -1766.9595,291.67476 C -1799.0688,286.90053 -1785.5006,264.83465 -1784.0327,248.87801 C -1785.7605,261.32343 -1789.6243,272.84004 -1801.1059,276.42273 C -1816.1146,284.02747 -1806.4765,299.03785 -1801.7888,306.24387 C -1807.9482,309.69539 -1837.5995,293.05162 -1818.4067,261.62597 C -1832.501,279.53631 -1835.0654,300.8674 -1854.2997,303.14926 C -1876.1022,305.73578 -1890.2868,285.63464 -1866.8945,275.7398 C -1873.3912,284.02605 -1870.8826,287.22144 -1865.301,286.89427 C -1857.7583,286.45214 -1849.8025,280.21625 -1849.8213,269.59345 C -1849.8663,244.1917 -1837.3943,245.27392 -1830.4717,243.41459 C -1863.1023,246.75714 -1854.2745,279.21257 -1894.4392,264.35768 C -1910.9478,258.25198 -1912.4974,242.67685 -1901.4961,226.79671 C -1899.4399,236.40538 -1901.2466,257.37662 -1881.6912,241.8211 C -1866.8094,229.98325 -1855.1659,221.94151 -1838.8945,222.01622 C -1859.2716,222.1099 -1883.9748,225.616 -1881.236,198.56906 C -1860.7285,202.65415 -1852.6704,199.15873 -1838.2116,198.56906 C -1866.6877,200.1319 -1872.0228,169.81372 -1845.7238,164.19507 C -1861.3981,184.92688 -1849.6259,192.86097 -1821.8213,181.49589 C -1821.8213,181.49589 -1811.3181,181.08264 -1808.3904,183.77231 C -1800.9586,190.59997 -1781.2273,166.48341 -1782.6668,163.2845 C -1800.0701,184.96106 -1801.0975,176.04896 -1810.4392,178.08125 C -1815.5524,174.5367 -1816.6084,170.07528 -1816.1303,162.37394 C -1808.6015,164.94082 -1803.5445,163.80001 -1798.3742,162.82922 C -1793.5921,158.76233 -1789.663,154.52484 -1787.9026,149.85361 C -1787.5143,144.23843 -1787.617,138.62326 -1789.0408,133.00808 z"
           style="opacity:1;fill:#ffffff;fill-opacity:1;stroke:#000000;stroke-width:3.09079097;stroke-miterlimit:4;stroke-dasharray:none;stroke-opacity:1" />
      </g>
      <path
         d="M 280.17232,151.33179 C 281.77332,148.49962 294.39293,149.25777 294.29875,149.67606 C 298.0658,150.80892 298.34834,153.21409 299.00757,155.47983 L 299.47845,158.17256 L 297.87746,156.51683 C 296.55899,157.68456 294.67546,157.71941 292.98028,157.96341 L 291.00259,158.17256 C 288.45983,156.50812 287.23554,154.18138 286.29377,151.75007 C 283.56266,151.75007 282.05584,151.50608 280.17232,151.33179 L 280.17232,151.33179 z"
         style="fill:#313131;stroke:#000000;stroke-width:2.8;stroke-miterlimit:4;stroke-dasharray:none"
         id="path4237" />
      <g
         style="fill:#fcef3c;stroke-width:4.15539671;stroke-miterlimit:4;stroke-dasharray:none"
         transform="matrix(0.7004844,0,0,0.6481755,-312.555,192.4306)"
         id="g7974">
        <path
           d="M 831.48787,-144.65208 L 846.9486,-94.80867 C 878.82512,-100.27103 910.31972,-99.990099 941.04722,-88.183776 L 967.24152,-135.43444 L 943.21822,-126.96181 C 944.90472,-118.44025 944.84982,-110.78676 940.32452,-106.77287 C 936.50732,-103.38668 923.62312,-107.43758 921.26502,-117.0376 C 917.25602,-108.30232 909.64742,-110.37139 905.27152,-113.0079 C 901.75362,-115.12988 900.62302,-122.22045 903.63892,-125.52631 L 910.50672,-133.05135 L 898.75352,-145.84421 L 884.56375,-135.9178 L 891.01317,-125.66323 C 893.54197,-121.64063 890.23864,-115.32316 887.43236,-113.19891 C 884.5047,-110.98469 875.87404,-108.78286 871.32977,-118.81294 C 868.35155,-111.37082 855.49424,-107.48173 851.62875,-109.96106 C 846.71325,-113.11498 851.88802,-131.76309 851.88802,-131.76309 L 831.48787,-144.65208 z"
           id="path3727"
           style="fill:#fcef3c;fill-opacity:1;stroke:#000000;stroke-width:4.15539671;stroke-miterlimit:4;stroke-dasharray:none" />
        <path
           style="opacity:1;fill:#fcef3c;fill-opacity:1;stroke:#000000;stroke-width:4.15539671;stroke-miterlimit:4;stroke-dasharray:none;stroke-opacity:1"
           d="M 846.9486,-94.80867 L 845.43498,-81.093029 C 877.35386,-84.598528 908.60625,-82.105563 939.28018,-74.406476 L 941.04722,-88.183776 C 906.22893,-100.46703 876.36678,-99.174954 846.9486,-94.80867 z"
           id="path7972"
           sodipodi:nodetypes="ccccc" />
      </g>
    </g>
    <g
       id="g22094">
      <path
         inkscape:tile-y0="8.0771523"
         inkscape:tile-x0="260.5"
         inkscape:tile-h="79"
         inkscape:tile-w="79"
         inkscape:tile-cy="47.577152"
         inkscape:tile-cx="300"
         transform="matrix(0.8335763,0,0,0.8335713,535.1816,-73.224803)"
         sodipodi:open="true"
         sodipodi:end="8.1662395"
         sodipodi:start="1.884771"
         d="M -296.76734,196.65033 A 47.376156,47.376156 0 1 1 -296.68996,196.67538"
         sodipodi:ry="47.376156"
         sodipodi:rx="47.376156"
         sodipodi:cy="151.59023"
         sodipodi:cx="-282.13562"
         id="path19827"
         style="display:inline;fill:#ffffff;fill-opacity:1;fill-rule:evenodd;stroke:#000000;stroke-width:3.59896159000000000;stroke-linecap:round;stroke-linejoin:round;stroke-miterlimit:4;stroke-dasharray:none;stroke-dashoffset:0;stroke-opacity:1"
         sodipodi:type="arc" />
      <use
         height="660"
         width="600"
         id="use10089"
         transform="translate(248.5,-1.0000004e-7)"
         xlink:href="#path19827"
         inkscape:tiled-clone-of="#path19827"
         y="0"
         x="0"
         style="display:inline" />
      <use
         height="660"
         width="600"
         id="use10091"
         transform="translate(-248.5,-1e-7)"
         xlink:href="#path19827"
         inkscape:tiled-clone-of="#path19827"
         y="0"
         x="0"
         style="display:inline" />
      <use
         height="660"
         width="600"
         id="use10093"
         transform="translate(248.5,227.5)"
         xlink:href="#path19827"
         inkscape:tiled-clone-of="#path19827"
         y="0"
         x="0"
         style="display:inline" />
      <use
         height="660"
         width="600"
         id="use10095"
         transform="translate(172.5,420)"
         xlink:href="#path19827"
         inkscape:tiled-clone-of="#path19827"
         y="0"
         x="0"
         style="display:inline" />
      <use
         height="660"
         width="600"
         id="use10097"
         transform="translate(0,547.18526)"
         xlink:href="#path19827"
         inkscape:tiled-clone-of="#path19827"
         y="0"
         x="0"
         style="display:inline" />
      <use
         height="660"
         width="600"
         id="use10099"
         transform="translate(-172.5,420)"
         xlink:href="#path19827"
         inkscape:tiled-clone-of="#path19827"
         y="0"
         x="0"
         style="display:inline" />
      <use
         height="660"
         width="600"
         id="use10101"
         transform="translate(-248.5,227.5)"
         xlink:href="#path19827"
         inkscape:tiled-clone-of="#path19827"
         y="0"
         x="0"
         style="display:inline" />
    </g>
  </g>
  <g
     inkscape:groupmode="layer"
     id="layer2"
     inkscape:label="Reflet final"
     sodipodi:insensitive="true">
    <path
       sodipodi:nodetypes="cccccc"
       d="M 300.00001,658.5 C 300.00001,658.5 598.50001,546.17969 598.50001,260.72817 C 598.50001,-24.723334 598.50001,2.1764865 598.50001,2.1764865 L 1.5,2.1764865 L 1.5,260.72817 C 1.5,546.17969 300.00001,658.5 300.00001,658.5 z "
       style="opacity:1;fill:url(#radialGradient3163);fill-opacity:1;fill-rule:evenodd;stroke:none;stroke-width:1px;stroke-linecap:butt;stroke-linejoin:miter;stroke-opacity:1"
       id="path2875"
       inkscape:export-xdpi="144"
       inkscape:export-ydpi="144" />
  </g>
  <g
     inkscape:groupmode="layer"
     id="layer1"
     inkscape:label="Contour final"
     sodipodi:insensitive="true">
    <path
       sodipodi:nodetypes="cccccc"
       d="M 299.99999,658.50028 C 299.99999,658.50028 1.5,546.17992 1.5,260.72828 C 1.5,-24.723336 1.5,2.1764957 1.5,2.1764957 L 598.49999,2.1764957 L 598.49999,260.72828 C 598.49999,546.17992 299.99999,658.50028 299.99999,658.50028 z "
       style="opacity:1;fill:none;fill-opacity:1;fill-rule:evenodd;stroke:#000000;stroke-width:3.00000048;stroke-linecap:butt;stroke-linejoin:miter;stroke-miterlimit:4;stroke-dasharray:none;stroke-opacity:1"
       id="path1411"
       inkscape:export-xdpi="144"
       inkscape:export-ydpi="144" />
  </g>
</svg>
