<?xml version="1.0" encoding="UTF-8" standalone="no"?>
<svg
   xmlns:dc="http://purl.org/dc/elements/1.1/"
   xmlns:cc="http://creativecommons.org/ns#"
   xmlns:rdf="http://www.w3.org/1999/02/22-rdf-syntax-ns#"
   xmlns:svg="http://www.w3.org/2000/svg"
   xmlns="http://www.w3.org/2000/svg"
   xmlns:xlink="http://www.w3.org/1999/xlink"
   xmlns:sodipodi="http://sodipodi.sourceforge.net/DTD/sodipodi-0.dtd"
   xmlns:inkscape="http://www.inkscape.org/namespaces/inkscape"
   height="660"
   width="600"
   version="1.0"
   id="svg2"
   sodipodi:version="0.32"
   inkscape:version="0.46"
   sodipodi:docname="Blason_ville_fr_Nespouls_(Corrèze).svg"
   sodipodi:docbase="D:\Mes documents\Renaud-Notre Lapin"
   inkscape:export-filename="/Users/olivier/Desktop/Blason Rouge/Blason_Vide_3D.png"
   inkscape:export-xdpi="144"
   inkscape:export-ydpi="144"
   inkscape:output_extension="org.inkscape.output.svg.inkscape">
  <metadata
     id="metadata49">
    <rdf:RDF>
      <cc:Work
         rdf:about="">
        <dc:format>image/svg+xml</dc:format>
        <dc:type
           rdf:resource="http://purl.org/dc/dcmitype/StillImage" />
        <dc:title>Gabarit d'un blason en pointe pour le projet Blasons de Wikipédia</dc:title>
        <dc:date>03-AUG-2006</dc:date>
        <dc:creator>
          <cc:Agent>
            <dc:title>Jérôme BLUM (wagner51)</dc:title>
          </cc:Agent>
        </dc:creator>
        <cc:license
           rdf:resource="http://web.resource.org/cc/PublicDomain" />
        <dc:language>fr</dc:language>
        <dc:subject>
          <rdf:Bag>
            <rdf:li>gabarit modèle blason projet wikipédia</rdf:li>
          </rdf:Bag>
        </dc:subject>
      </cc:Work>
      <cc:License
         rdf:about="http://web.resource.org/cc/PublicDomain">
        <cc:permits
           rdf:resource="http://web.resource.org/cc/Reproduction" />
        <cc:permits
           rdf:resource="http://web.resource.org/cc/Distribution" />
        <cc:permits
           rdf:resource="http://web.resource.org/cc/DerivativeWorks" />
      </cc:License>
    </rdf:RDF>
  </metadata>
  <sodipodi:namedview
     inkscape:window-height="740"
     inkscape:window-width="1280"
     inkscape:pageshadow="2"
     inkscape:pageopacity="0.0"
     guidetolerance="10.0"
     gridtolerance="10.0"
     objecttolerance="10.0"
     borderopacity="1.0"
     bordercolor="#666666"
     pagecolor="#ffffff"
     id="base"
     showgrid="false"
     height="660px"
     inkscape:zoom="0.81060606"
     inkscape:cx="502.31776"
     inkscape:cy="330"
     inkscape:window-x="-4"
     inkscape:window-y="-4"
     inkscape:current-layer="layer4"
     showguides="true"
     inkscape:guide-bbox="true" />
  <desc
     id="desc4">Flag of Canton of Valais (Wallis)</desc>
  <defs
     id="defs6">
    <inkscape:perspective
       sodipodi:type="inkscape:persp3d"
       inkscape:vp_x="0 : 330 : 1"
       inkscape:vp_y="0 : 1000 : 0"
       inkscape:vp_z="600 : 330 : 1"
       inkscape:persp3d-origin="300 : 220 : 1"
       id="perspective2491" />
    <linearGradient
       id="linearGradient2893">
      <stop
         style="stop-color:white;stop-opacity:0.3137255;"
         offset="0"
         id="stop2895" />
      <stop
         id="stop2897"
         offset="0.19"
         style="stop-color:white;stop-opacity:0.25098041;" />
      <stop
         style="stop-color:#6b6b6b;stop-opacity:0.1254902;"
         offset="0.60000002"
         id="stop2901" />
      <stop
         style="stop-color:black;stop-opacity:0.1254902;"
         offset="1"
         id="stop2899" />
    </linearGradient>
    <linearGradient
       id="linearGradient2885">
      <stop
         id="stop2887"
         offset="0"
         style="stop-color:white;stop-opacity:1;" />
      <stop
         style="stop-color:white;stop-opacity:1;"
         offset="0.22857143"
         id="stop2891" />
      <stop
         id="stop2889"
         offset="1"
         style="stop-color:black;stop-opacity:1;" />
    </linearGradient>
    <linearGradient
       id="linearGradient2955">
      <stop
         id="stop2867"
         offset="0"
         style="stop-color:#fd0000;stop-opacity:1;" />
      <stop
         style="stop-color:#e77275;stop-opacity:0.65882355;"
         offset="0.5"
         id="stop2873" />
      <stop
         style="stop-color:black;stop-opacity:0.32291666;"
         offset="1"
         id="stop2959" />
    </linearGradient>
    <radialGradient
       inkscape:collect="always"
       xlink:href="#linearGradient2955"
       id="radialGradient2961"
       cx="225.52438"
       cy="218.90099"
       fx="225.52438"
       fy="218.90099"
       r="300"
       gradientTransform="matrix(-4.167939e-4,2.182867,-1.884232,-3.599562e-4,615.5972,-289.1214)"
       gradientUnits="userSpaceOnUse" />
    <polygon
       id="star"
       transform="scale(53,53)"
       points="0,-1 0.58778525,0.80901699 -0.95105652,-0.30901699 0.95105652,-0.30901699 -0.58778525,0.80901699 0,-1 " />
    <clipPath
       id="clip">
      <path
         d="M 0,-200 L 0,600 L 300,600 L 300,-200 L 0,-200 z "
         id="path10" />
    </clipPath>
    <radialGradient
       inkscape:collect="always"
       xlink:href="#linearGradient2955"
       id="radialGradient1911"
       gradientUnits="userSpaceOnUse"
       gradientTransform="matrix(-4.167939e-4,2.182867,-1.884232,-3.599562e-4,615.5972,-289.1214)"
       cx="225.52438"
       cy="218.90099"
       fx="225.52438"
       fy="218.90099"
       r="300" />
    <radialGradient
       inkscape:collect="always"
       xlink:href="#linearGradient2955"
       id="radialGradient2865"
       gradientUnits="userSpaceOnUse"
       gradientTransform="matrix(0,1.748721,-1.593162,-1.049767e-7,551.7876,-191.2898)"
       cx="225.52438"
       cy="218.90099"
       fx="225.52438"
       fy="218.90099"
       r="300" />
    <radialGradient
       inkscape:collect="always"
       xlink:href="#linearGradient2955"
       id="radialGradient2871"
       gradientUnits="userSpaceOnUse"
       gradientTransform="matrix(0,1.386237,-1.323286,-5.741131e-8,-158.0823,-109.5408)"
       cx="225.52438"
       cy="218.90099"
       fx="225.52438"
       fy="218.90099"
       r="300" />
    <radialGradient
       inkscape:collect="always"
       xlink:href="#linearGradient2893"
       id="radialGradient3163"
       gradientUnits="userSpaceOnUse"
       gradientTransform="matrix(1.353218,0,0,1.348928,-77.62935,-85.74693)"
       cx="221.44487"
       cy="226.33101"
       fx="221.44487"
       fy="226.33101"
       r="300" />
    <inkscape:perspective
       id="perspective2654"
       inkscape:persp3d-origin="372.04724 : 350.78739 : 1"
       inkscape:vp_z="744.09448 : 526.18109 : 1"
       inkscape:vp_y="0 : 1000 : 0"
       inkscape:vp_x="0 : 526.18109 : 1"
       sodipodi:type="inkscape:persp3d" />
    <radialGradient
       gradientTransform="matrix(0,2.342476,-2.291353,0,562.9128,1323.77)"
       gradientUnits="userSpaceOnUse"
       xlink:href="#linearGradient2955"
       id="radialGradient14758"
       fy="153.9283"
       fx="-483.50824"
       r="300.00003"
       cy="153.9283"
       cx="-483.50824" />
    <radialGradient
       gradientTransform="matrix(0,2.342476,-2.291353,0,562.9128,1323.77)"
       gradientUnits="userSpaceOnUse"
       xlink:href="#linearGradient2955"
       id="radialGradient13767"
       fy="153.9283"
       fx="-483.50824"
       r="300.00003"
       cy="153.9283"
       cx="-483.50824" />
    <radialGradient
       gradientTransform="matrix(0,2.342476,-2.291353,0,562.9128,1323.77)"
       gradientUnits="userSpaceOnUse"
       xlink:href="#linearGradient2955"
       id="radialGradient1357"
       fy="153.9283"
       fx="-483.50824"
       r="300.00003"
       cy="153.9283"
       cx="-483.50824" />
    <radialGradient
       gradientTransform="matrix(-4.167939e-4,2.182867,-1.884232,-3.599562e-4,1395.597,-309.1214)"
       gradientUnits="userSpaceOnUse"
       xlink:href="#linearGradient2955"
       id="radialGradient42693"
       fy="218.90099"
       fx="225.52438"
       r="300"
       cy="218.90099"
       cx="225.52438" />
    <clipPath
       id="clipPath42689">
      <path
         id="path42691"
         d="M 0,-200 L 0,600 L 300,600 L 300,-200 L 0,-200 z " />
    </clipPath>
    <polygon
       id="polygon42687"
       transform="scale(53,53)"
       points="0,-1 0.58778525,0.80901699 -0.95105652,-0.30901699 0.95105652,-0.30901699 -0.58778525,0.80901699 0,-1 " />
    <radialGradient
       gradientTransform="matrix(-4.167939e-4,2.182867,-1.884232,-3.599562e-4,615.5972,-289.1214)"
       gradientUnits="userSpaceOnUse"
       xlink:href="#linearGradient2955"
       id="radialGradient42685"
       fy="218.90099"
       fx="225.52438"
       r="300"
       cy="218.90099"
       cx="225.52438" />
    <linearGradient
       id="linearGradient42680">
      <stop
         id="stop2965"
         offset="0"
         style="stop-color:#ffffff;stop-opacity:0" />
      <stop
         id="stop42683"
         offset="1"
         style="stop-color:#000000;stop-opacity:0.64583331" />
    </linearGradient>
    <inkscape:perspective
       id="perspective42677"
       inkscape:persp3d-origin="75 : 50 : 1"
       inkscape:vp_z="150 : 75 : 1"
       inkscape:vp_y="0 : 1000 : 0"
       inkscape:vp_x="0 : 75 : 1"
       sodipodi:type="inkscape:persp3d" />
    <inkscape:perspective
       id="perspective3936"
       inkscape:persp3d-origin="83.434425 : 201.59334 : 1"
       inkscape:vp_z="166.86885 : 302.39001 : 1"
       inkscape:vp_y="0 : 1000 : 0"
       inkscape:vp_x="0 : 302.39001 : 1"
       sodipodi:type="inkscape:persp3d" />
  </defs>
  <g
     inkscape:groupmode="layer"
     id="layer3"
     inkscape:label="Fond écu"
     style="display:inline"
     sodipodi:insensitive="true">
    <path
       id="path2855"
       style="fill:#2b5df2;fill-opacity:1;fill-rule:evenodd;stroke:#000000;stroke-width:3;stroke-linecap:butt;stroke-linejoin:miter;stroke-miterlimit:4;stroke-dasharray:none;stroke-opacity:1"
       d="M 300,658.5 C 300,658.5 598.50001,546.17969 598.50001,260.72817 C 598.50001,-24.72335 598.50001,2.17648 598.50001,2.17648 L 1.5,2.17648 L 1.5,260.72817 C 1.5,546.17969 300,658.5 300,658.5 z"
       sodipodi:nodetypes="cccccc" />
  </g>
  <g
     inkscape:groupmode="layer"
     id="layer4"
     inkscape:label="Meubles"
     style="display:inline">
    <g
       id="g4032"
       transform="translate(-76.785047,14.803738)">
      <path
         sodipodi:nodetypes="ccccccsccccsccscsccscccc"
         id="path2030"
         style="fill:#fcef3c;fill-opacity:1;fill-rule:evenodd;stroke:#000000;stroke-width:2.38841414;stroke-linecap:butt;stroke-linejoin:miter;stroke-miterlimit:4;stroke-dasharray:none;stroke-opacity:1;display:inline"
         d="M 425.86433,380.18799 C 427.70094,379.9096 436.48313,376.4997 447.40911,416.93766 C 464.11512,438.1935 485.32827,399.79853 488.86261,387.10602 C 491.36066,371.11078 484.19336,349.84129 484.19336,349.84129 C 483.81981,339.23127 492.14265,332.74131 501.09426,326.54923 C 493.35609,328.42119 485.93598,327.16666 477.48769,336.01948 C 477.48769,336.01948 477.16047,328.59577 480.16073,321.23913 C 483.16098,313.8825 492.37486,310.26405 492.37486,310.26405 C 481.8385,313.09966 472.79801,316.45382 470.51317,322.14976 C 470.94377,304.44856 482.47657,290.87288 497.32023,278.52751 C 483.36027,283.88467 470.64508,290.61138 462.72196,302.61039 C 462.0397,270.72215 490.32505,260.71798 522.97593,242.06539 C 547.48139,228.06607 533.97259,209.3032 533.97259,209.3032 C 518.83799,202.03417 504.54466,204.75241 492.37951,208.46465 C 492.37951,208.46465 483.89282,196.1673 475.54442,204.93739 C 465.86236,215.10848 458.79057,219.8795 459.5109,233.64504 C 458.21789,231.16059 477.02746,223.19293 489.83833,225.37293 C 500.15166,227.12792 495.12873,214.21576 495.12873,214.21576 C 517.40317,207.58609 547.76364,213.31401 516.88403,234.92924 C 479.79581,258.55964 450.23905,261.1626 455.67148,310.03414 C 458.75686,337.79112 484.96438,362.96975 481.08161,380.06337 C 482.36082,391.78316 462.58571,430.0287 452.08576,406.06566 C 445.02139,375.19867 436.18791,370.99745 424.97189,369.91791 L 425.86433,380.18799 z" />
      <path
         id="path3245"
         style="fill:#e20909;fill-opacity:1;fill-rule:evenodd;stroke:#000000;stroke-width:2.43899989;stroke-linecap:round;stroke-linejoin:round;stroke-miterlimit:4;stroke-dasharray:none;stroke-opacity:1"
         d="M 250.26599,192.85825 C 243.84171,189.776 236.37358,190.84525 229.12279,191.04999 C 238.81169,193.34167 241.37321,195.17254 246.59365,198.63419 L 250.26599,192.85825 z" />
      <path
         id="path3243"
         style="fill:#fcef3c;fill-opacity:1;fill-rule:evenodd;stroke:#000000;stroke-width:2.38841414;stroke-linecap:round;stroke-linejoin:round;stroke-miterlimit:4;stroke-dasharray:none;stroke-opacity:1"
         d="M 270.24196,208.17367 C 277.76654,221.33193 285.10697,219.49951 294.15411,226.52552 C 305.95885,235.6931 310.92244,246.9855 342.04356,246.98516 L 333.52269,291.16046 L 308.90055,278.0156 C 303.91555,274.37925 290.46631,270.78488 283.33337,257.89744 C 277.27563,258.643 275.87447,263.69579 275.31204,269.52437 C 272.36268,262.72821 268.1711,255.89853 272.05762,249.28662 L 262.96447,239.43104 C 257.26959,246.19342 248.61751,243.98107 241.09833,245.20694 C 250.7667,241.71903 258.44005,236.00391 259.67893,229.70428 L 255.97229,224.39907 C 246.54649,224.39001 249.99753,227.47276 241.86583,228.0361 L 235.50486,225.21906 C 241.34165,219.55674 246.39847,221.58043 252.0611,219.0198 C 243.09583,215.46126 239.87502,220.69057 232.68422,218.64499 C 231.00947,215.97748 231.09401,214.0681 232.8733,212.1322 C 237.84327,211.04208 243.7424,210.46774 249.3455,211.05074 C 241.41818,205.69108 241.38897,208.18557 234.91107,207.2224 C 232.80891,204.0394 231.70922,202.07135 235.97841,200.34496 C 240.25231,201.19518 248.82704,200.91241 254.005,204.71392 C 253.32424,201.02278 251.06565,199.80763 245.94807,198.49193 C 246.95906,194.40461 244.64205,195.89194 249.87855,193.80373 C 260.41411,196.952 268.49635,200.49959 270.24196,208.17367 z" />
      <path
         id="path3534"
         style="fill:#e20909;fill-opacity:1;fill-rule:evenodd;stroke:#000000;stroke-width:2.43919396;stroke-linecap:round;stroke-linejoin:round;stroke-miterlimit:4;stroke-dasharray:none;stroke-opacity:1"
         d="M 253.50389,492.99752 C 250.45452,497.51562 243.78538,501.45379 238.9647,503.92815 C 248.27549,503.58416 256.35826,499.36496 262.19806,496.2131 L 253.50389,492.99752 z" />
      <path
         id="path3532"
         style="fill:#e20909;fill-opacity:1;fill-rule:evenodd;stroke:#000000;stroke-width:2.43919396;stroke-linecap:round;stroke-linejoin:round;stroke-miterlimit:4;stroke-dasharray:none;stroke-opacity:1"
         d="M 238.37861,484.99161 C 231.37728,488.9682 229.80963,495.46647 227.57787,499.57157 C 233.50442,495.4739 238.35032,494.23666 244.3926,490.8472 L 238.37861,484.99161 z" />
      <path
         id="path3530"
         style="fill:#e20909;fill-opacity:1;fill-rule:evenodd;stroke:#000000;stroke-width:2.43919396;stroke-linecap:round;stroke-linejoin:round;stroke-miterlimit:4;stroke-dasharray:none;stroke-opacity:1"
         d="M 242.97986,470.185 C 233.54963,470.89975 226.84191,476.5224 221.67707,481.67282 C 229.4543,479.00773 236.25038,477.12058 243.62041,476.69272 C 248.65542,474.40836 242.74758,470.82003 242.97986,470.185 z" />
      <path
         id="path3528"
         style="fill:#e20909;fill-opacity:1;fill-rule:evenodd;stroke:#000000;stroke-width:2.43919396;stroke-linecap:round;stroke-linejoin:round;stroke-miterlimit:4;stroke-dasharray:none;stroke-opacity:1"
         d="M 258.21353,460.51913 C 249.54489,457.59274 241.13462,459.54655 232.07739,459.6804 C 241.68823,461.34042 249.25281,464.32754 256.33542,467.62733 L 258.21353,460.51913 z" />
      <path
         id="path3524"
         style="fill:#fcef3c;fill-opacity:1;fill-rule:evenodd;stroke:#000000;stroke-width:2.38841414;stroke-linecap:round;stroke-linejoin:round;stroke-miterlimit:4;stroke-dasharray:none;stroke-opacity:1"
         d="M 390.98013,371.69099 C 361.5969,376.03003 319.71764,371.05172 299.92427,391.65304 C 287.10236,399.92895 243.50188,412.35422 259.86877,392.35795 C 233.16688,405.4431 277.63331,415.19222 306.02432,394.26901 C 270.74439,418.5564 310.53199,421.96034 314.98726,445.38459 C 307.42818,458.76477 298.71379,453.348 287.06929,465.71505 C 281.70937,468.34922 275.84547,467.41641 266.54212,466.10029 C 265.00377,462.44001 261.6123,460.78387 257.99055,460.1295 C 254.25974,461.29602 249.95596,463.86687 250.49938,466.76889 C 256.17079,467.74181 256.08707,470.55245 260.6974,473.25103 C 252.473,470.87776 252.4106,467.02587 242.82058,469.33737 C 239.07472,471.93385 239.35883,475.40656 239.98538,476.94618 C 248.15686,477.64825 250.93529,477.60006 257.63002,479.49328 C 250.02393,479.61976 249.03955,477.99758 238.91252,484.16935 C 239.79723,487.32446 241.5734,488.55226 244.68568,490.49486 C 250.79517,489.24837 253.1802,484.39682 260.76445,486.93235 C 253.67297,491.03376 253.86401,492.11185 253.13633,493.57134 C 254.49864,495.20083 256.83145,496.42742 260.53431,497.08524 C 267.19164,496.33524 269.81834,493.36938 272.25977,490.3017 C 307.05323,492.22161 296.40901,483.24713 305.48136,481.07508 C 317.55086,486.27891 317.64749,480.32547 321.53661,475.35202 C 334.28521,482.89411 331.77573,475.19608 334.05994,472.78701 C 330.97779,461.77456 343.28938,459.98671 347.38666,450.61189 C 352.93508,446.44539 361.07525,443.02547 340.31059,431.27965 C 333.86392,420.21092 336.49398,411.56839 348.76072,405.50173 C 369.0658,410.84076 385.19806,406.41861 403.41676,406.87705 L 390.98013,371.69099 z" />
      <path
         id="path3526"
         style="fill:#fcef3c;fill-opacity:1;fill-rule:evenodd;stroke:#000000;stroke-width:2.43919396;stroke-linecap:round;stroke-linejoin:round;stroke-miterlimit:4;stroke-dasharray:none;stroke-opacity:1"
         d="M 372.58814,369.50853 C 379.06468,375.6196 386.21404,381.66103 383.76152,388.69625 C 376.98442,393.25584 373.29492,397.54682 390.52111,400.01818 L 397.14663,383.97753 L 383.62867,369.35508 C 375.72473,367.4881 372.79427,367.87972 372.58814,369.50853 z" />
      <path
         id="path3536"
         style="fill:#e20909;fill-opacity:1;fill-rule:evenodd;stroke:#000000;stroke-width:2.43919396;stroke-linecap:round;stroke-linejoin:round;stroke-miterlimit:4;stroke-dasharray:none;stroke-opacity:1"
         d="M 366.46999,509.44102 C 357.54642,508.97714 351.55096,511.44097 344.85595,516.19021 C 355.1422,514.80453 359.25646,513.47054 366.2643,513.91807 L 366.46999,509.44102 z" />
      <path
         id="path3538"
         style="fill:#e20909;fill-opacity:1;fill-rule:evenodd;stroke:#000000;stroke-width:2.43919396;stroke-linecap:round;stroke-linejoin:round;stroke-miterlimit:4;stroke-dasharray:none;stroke-opacity:1"
         d="M 358.02886,522.55669 C 352.26401,525.71954 345.6731,530.8832 343.46676,537.24168 C 349.35057,533.07227 355.42556,530.52338 360.89925,528.18143 L 358.02886,522.55669 z" />
      <path
         id="path3540"
         style="fill:#e20909;fill-opacity:1;fill-rule:evenodd;stroke:#000000;stroke-width:2.43919396;stroke-linecap:round;stroke-linejoin:round;stroke-miterlimit:4;stroke-dasharray:none;stroke-opacity:1"
         d="M 365.32559,533.68659 C 359.74969,538.12106 355.58123,543.83212 353.96059,549.96836 C 359.83781,544.91683 365.0154,542.11622 371.46879,539.54613 L 365.32559,533.68659 z" />
      <path
         id="path3542"
         style="fill:#e20909;fill-opacity:1;fill-rule:evenodd;stroke:#000000;stroke-width:2.43919396;stroke-linecap:round;stroke-linejoin:round;stroke-miterlimit:4;stroke-dasharray:none;stroke-opacity:1"
         d="M 392.11118,537.51537 C 392.78769,541.47865 395.93569,547.13282 398.91545,551.01487 L 401.37745,536.70365 L 392.11118,537.51537 z" />
      <path
         sodipodi:nodetypes="cscsccccccccccccccccccccccccc"
         id="path3453"
         style="fill:#fcef3c;fill-opacity:1;fill-rule:evenodd;stroke:#000000;stroke-width:2.38841414;stroke-linecap:round;stroke-linejoin:round;stroke-miterlimit:4;stroke-dasharray:none;stroke-opacity:1"
         d="M 327.63608,289.03252 C 337.34546,326.56358 367.16734,339.12857 379.6015,361.6034 C 393.80748,387.28083 388.74343,389.6411 388.74343,389.6411 C 382.81056,404.7841 367.96932,417.60718 372.37535,427.25336 C 391.61168,469.36774 346.73297,452.60722 369.001,477.41966 C 356.84883,464.68572 377.70931,461.19188 385.93507,454.13431 C 390.77676,460.66081 396.13598,466.71086 406.57201,468.08701 C 403.50259,477.51043 395.77954,487.09799 401.0967,496.22566 C 394.77779,502.06899 391.64819,510.86239 380.64798,512.37562 C 376.28863,509.9638 375.89021,507.72925 367.5673,508.51442 C 363.07714,510.3736 364.77798,512.75819 364.47433,514.46971 C 375.26565,516.02341 366.6887,514.82903 375.44331,518.05253 C 364.08547,519.48076 367.87278,515.23123 357.81874,521.70097 C 357.17187,524.31655 360.90724,526.58572 361.41127,528.54645 C 371.71195,526.52803 367.26977,524.46898 377.64732,526.35647 C 372.01999,528.89758 370.6635,528.85818 366.20837,532.75101 C 365.15978,536.43662 370.93466,537.41826 371.17367,539.6185 C 381.64141,536.62851 378.39304,532.7331 390.37377,529.85417 C 390.22129,531.93826 390.02535,534.03206 391.92218,535.65751 C 395.09634,536.26985 398.07191,536.54066 401.14716,534.64898 C 401.98602,531.95867 403.54976,529.24282 400.85238,526.67722 C 410.51846,519.32091 426.12019,516.07093 423.92132,500.50632 C 426.80905,503.92141 430.14683,506.88334 436.2324,507.07876 C 432.29062,498.2147 446.9555,495.92541 434.48538,485.45323 C 437.81906,481.76821 440.01051,476.7007 446.64989,477.01665 L 446.90953,460.99236 C 412.80318,434.58115 450.06152,397.77211 421.6974,365.12347 C 422.69831,308.56996 418.27013,279.13049 408.41285,254.8207 L 327.63608,289.03252 z" />
      <path
         id="path2264"
         style="fill:#e20909;fill-opacity:1;fill-rule:evenodd;stroke:#000000;stroke-width:2.43919396;stroke-linecap:round;stroke-linejoin:round;stroke-miterlimit:4;stroke-dasharray:none;stroke-opacity:1"
         d="M 273.13731,302.34612 C 268.92808,296.33208 263.81152,297.46465 258.96242,296.4906 L 268.25368,307.85692 L 273.13731,302.34612 z" />
      <path
         id="path2266"
         style="fill:#e20909;fill-opacity:1;fill-rule:evenodd;stroke:#000000;stroke-width:2.43919396;stroke-linecap:round;stroke-linejoin:round;stroke-miterlimit:4;stroke-dasharray:none;stroke-opacity:1"
         d="M 260.01528,309.84671 C 254.22501,307.0512 250.85822,302.87469 238.74173,307.43085 C 247.99899,309.66742 250.60245,312.13868 254.2048,315.93165 L 260.01528,309.84671 z" />
      <path
         id="path2268"
         style="fill:#e20909;fill-opacity:1;fill-rule:evenodd;stroke:#000000;stroke-width:2.43919396;stroke-linecap:round;stroke-linejoin:round;stroke-miterlimit:4;stroke-dasharray:none;stroke-opacity:1"
         d="M 252.70208,325.36556 C 245.66699,324.51622 237.83598,325.37957 233.35721,330.92269 C 238.48982,329.82953 243.65134,329.4694 248.88125,330.83941 L 252.70208,325.36556 z" />
      <path
         id="path2270"
         style="fill:#e20909;fill-opacity:1;fill-rule:evenodd;stroke:#000000;stroke-width:2.43919396;stroke-linecap:round;stroke-linejoin:round;stroke-miterlimit:4;stroke-dasharray:none;stroke-opacity:1"
         d="M 258.75734,342.96941 C 253.73436,345.55708 248.8147,348.20317 248.21233,353.28937 C 254.09004,349.70304 260.65873,347.55722 267.4931,345.96517 L 258.75734,342.96941 z" />
      <path
         id="path2262"
         style="fill:#fcef3c;fill-opacity:1;fill-rule:evenodd;stroke:#000000;stroke-width:2.38841414;stroke-linecap:round;stroke-linejoin:round;stroke-miterlimit:4;stroke-dasharray:none;stroke-opacity:1"
         d="M 275.54689,303.71509 C 270.92622,304.42058 270.69313,306.58956 269.48438,308.43315 C 270.718,312.0164 275.43645,315.03982 280.13104,318.06712 C 273.96392,316.37114 267.83912,315.74574 261.54027,310.71522 L 256.19151,310.90386 C 253.21236,312.84398 253.42814,314.67147 253.9572,316.48785 C 260.52533,322.57312 266.05015,322.66607 271.91229,324.6963 C 265.25214,324.76672 259.11079,327.07151 251.81501,324.40417 C 246.64671,327.03804 249.58427,328.77748 249.83647,330.81325 C 256.71398,333.12187 264.4286,331.72525 271.75612,332.04207 C 270.99728,334.86523 267.33264,337.51997 261.80713,340.06686 C 260.25781,343.51539 264.29358,344.40559 267.82535,345.52665 C 272.54876,344.62341 276.62709,342.91757 278.24641,338.15249 C 285.76633,337.95352 293.69599,338.03801 300.07396,337.04903 C 304.63806,339.89089 297.65113,343.14017 294.63487,346.24937 C 313.17035,346.05362 312.79542,337.29853 327.538,331.74298 C 324.68765,336.85973 327.35117,340.95162 330.29314,344.99176 C 331.82226,336.75938 340.49848,334.76769 348.05465,331.35306 L 353.21913,326.49983 C 358.0602,328.5562 363.86985,328.19186 369.7769,327.58412 C 366.75208,324.46552 369.47777,321.14413 374.74392,317.73313 C 382.60677,322.15348 387.24351,321.41613 391.34116,319.81695 C 374.22331,314.61447 386.50076,298.62263 386.03969,287.30639 L 360.28913,268.19563 L 313.61153,306.87687 C 309.09599,310.26834 302.74706,313.53352 293.37785,314.43027 C 284.30311,312.83476 279.445,308.57789 275.54689,303.71509 z" />
      <path
         id="path2476"
         style="fill:#000000;fill-opacity:1;fill-rule:evenodd;stroke:#364236;stroke-width:2.43919396;stroke-linecap:round;stroke-linejoin:round;stroke-miterlimit:4;stroke-dasharray:none;stroke-opacity:1"
         d="M 343.89714,231.7164 C 343.86683,228.83774 342.98196,226.94237 343.83876,223.04289 C 346.4513,226.50037 350.37895,227.60693 353.75965,229.69127" />
      <path
         id="path3447"
         style="fill:#e20909;fill-opacity:1;fill-rule:evenodd;stroke:#000000;stroke-width:2.43919396;stroke-linecap:round;stroke-linejoin:round;stroke-miterlimit:4;stroke-dasharray:none;stroke-opacity:1"
         d="M 371.98037,204.05967 C 346.9829,208.09449 331.46649,233.44618 305.76635,217.82638 C 323.19464,243.79106 345.53622,214.48697 374.73244,213.04812 L 371.98037,204.05967 z" />
      <path
         id="path2474"
         style="fill:#000000;fill-opacity:1;fill-rule:evenodd;stroke:#000000;stroke-width:2.43919396;stroke-linecap:round;stroke-linejoin:round;stroke-miterlimit:4;stroke-dasharray:none;stroke-opacity:1"
         d="M 332.52065,207.51338 C 333.35677,210.98697 335.88076,213.39119 339.72071,214.96171 C 337.41624,210.7212 340.86206,207.74823 342.78759,204.44013" />
      <path
         id="path2462"
         style="fill:#fcef3c;fill-opacity:1;fill-rule:evenodd;stroke:#000000;stroke-width:2.38841414;stroke-linecap:round;stroke-linejoin:round;stroke-miterlimit:4;stroke-dasharray:none;stroke-opacity:1"
         d="M 360.00056,293.30983 L 358.52768,303.74533 L 366.81997,297.69989 C 355.64251,321.93842 372.06455,324.0117 389.33071,325.407 C 382.89903,312.87056 397.63581,302.76214 401.5312,288.64232 C 397.62324,302.56968 401.30635,310.3955 424.15658,302.8151 C 400.59144,297.9412 424.9167,285.35933 415.29326,269.89304 C 420.28043,278.5631 427.94268,273.70964 434.75873,273.134 C 412.97534,267.1567 424.3802,253.49364 425.08652,242.30816 L 414.87579,223.17356 C 419.90143,235.58353 428.06257,230.56671 435.59354,229.05255 C 420.1625,226.11271 430.45922,206.78665 411.72452,198.24663 C 418.53999,200.80599 425.45111,204.38638 431.70042,200.90026 C 416.87472,199.15127 421.46088,184.92343 407.90928,181.65904 C 415.55306,182.0528 420.15902,179.53115 425.78506,177.9885 C 419.31165,176.97376 413.43849,178.56879 406.2136,174.28677 L 394.93444,164.53957 L 367.10424,164.2225 C 360.1995,166.1139 353.62474,168.63206 348.23681,173.40446 C 343.21952,176.02418 336.79023,177.99067 337.24316,183.14107 C 326.54179,185.20011 306.32893,196.45821 321.9444,195.2092 C 322.67037,205.75626 325.44634,208.63907 331.4468,208.45765 C 344.91517,210.55609 347.74688,201.30712 357.61485,198.74166 C 379.81906,204.25385 371.05919,217.93251 364.62352,223.6003 C 357.62843,229.76079 344.73955,226.95941 344.73955,226.95941 C 340.69795,232.77542 341.23439,236.04297 346.34874,236.76207 C 352.63071,241.60344 354.44797,237.03953 357.65599,235.40536 C 379.69317,234.95335 376.31517,224.47767 384.0836,218.39815 C 378.31535,227.17543 387.10913,238.23249 363.47401,243.86125 C 351.2689,246.77322 352.48196,242.37873 340.95569,245.58991 C 329.42945,248.80109 326.53303,256.04597 317.36899,256.70597 C 309.17727,257.29594 297.85573,258.17948 305.4345,241.30301 C 289.1617,257.36933 306.81002,270.77276 328.6287,263.56197 C 309.02346,270.24466 296.86186,278.8606 279.5952,269.28756 C 303.7458,296.34344 314.74765,277.02811 340.78921,274.33454 C 314.98463,278.53559 318.67948,298.39151 290.58673,297.42987 C 298.68522,307.10799 307.34239,305.06515 318.70136,301.79004 C 314.53733,305.75526 311.23934,314.60162 302.22278,314.34172 C 307.42807,321.42132 321.14984,317.8659 332.98577,314.78036 C 346.45232,311.26971 352.96506,301.84544 360.00056,293.30983 z" />
      <path
         id="path2472"
         style="fill:#fcef3c;fill-opacity:1;fill-rule:evenodd;stroke:#000000;stroke-width:2.38841414;stroke-linecap:round;stroke-linejoin:round;stroke-miterlimit:4;stroke-dasharray:none;stroke-opacity:1"
         d="M 378.42665,172.75449 C 375.83181,163.03112 385.36286,160.90353 392.26118,157.12677 C 392.07426,163.59002 393.7027,171.79543 389.44518,174.35222" />
      <path
         id="path3449"
         style="fill:#000000;fill-opacity:1;fill-rule:evenodd;stroke:#000000;stroke-width:2.43919396;stroke-linecap:round;stroke-linejoin:round;stroke-miterlimit:4;stroke-dasharray:none;stroke-opacity:1"
         d="M 338.67567,183.85952 C 342.41792,187.5612 344.59041,184.43791 347.10698,182.81068 C 353.09149,174.90505 358.3486,179.67408 363.75854,181.7799"
         sodipodi:nodetypes="ccc" />
      <path
         id="path3451"
         style="fill:#ffffff;fill-opacity:1;fill-rule:evenodd;stroke:#000000;stroke-width:2.43899989;stroke-linecap:round;stroke-linejoin:round;stroke-miterlimit:4;stroke-dasharray:none;stroke-opacity:1"
         d="M 343.52096,186.12922 C 346.82072,187.57634 348.75371,188.04219 351.45523,186.8884 C 355.86812,185.1518 356.95134,182.49102 359.0997,182.41853 C 358.70418,180.70304 358.12754,179.08566 355.07444,178.80947 C 348.28081,180.95564 348.8608,183.16491 343.52096,186.12922 z" />
      <path
         id="path3518"
         style="fill:#000000;fill-opacity:1;fill-rule:evenodd;stroke:#000000;stroke-width:2.43919396;stroke-linecap:round;stroke-linejoin:round;stroke-miterlimit:4;stroke-dasharray:none;stroke-opacity:1"
         d="M 386.03378,454.20328 C 390.01036,445.96295 385.83034,438.01029 384.44477,429.95905" />
      <path
         d="M 338.32703,129.17773 L 351.01458,162.6142 C 372.45482,157.34446 393.88538,156.03285 415.2965,162.65969 L 431.05029,129.01108 C 425.59632,130.08241 420.63824,132.69546 417.09394,139.70393 C 413.38376,135.08871 409.45759,136.08491 405.33422,142.20303 C 412.40252,140.19821 414.23243,146.29193 410.25875,149.52537 C 408.01946,151.34748 402.7052,151.94982 400.68939,142.78535 C 398.34309,148.96552 394.63648,148.75663 391.4987,148.49248 C 384.59185,148.11662 388.57474,134.12561 395.17686,142.17228 C 398.1981,138.54798 395.27497,131.36737 388.95884,133.35664 C 389.11221,128.59842 387.63177,124.63718 384.63488,121.41566 C 381.66655,124.05192 378.7075,126.70026 378.80151,133.3259 C 373.84705,129.45518 367.99801,135.05141 370.94468,141.94983 C 377.91451,134.45767 381.3758,144.88984 377.7446,148.06967 C 375.85048,149.72833 370.47876,152.68777 366.45282,142.91662 C 367.2797,147.1314 360.56379,152.35142 357.38002,150.03953 C 353.07797,146.91562 354.74964,140.2271 361.36702,142.21904 C 358.87631,135.97507 354.98986,134.36401 349.52621,139.51908 C 346.22409,131.91485 342.32669,129.11192 338.32703,129.17773 z"
         style="fill:#e20909;fill-opacity:1;fill-rule:evenodd;stroke:#000000;stroke-width:2.43919373;stroke-linecap:butt;stroke-linejoin:miter;stroke-miterlimit:4;stroke-dasharray:none;stroke-opacity:1;display:inline"
         id="path7534" />
      <g
         transform="matrix(0.4116508,0,0,0.4116508,305.56938,4.9896136)"
         id="g3983"
         style="display:inline">
        <path
           id="path3985"
           style="fill:#ffffff;fill-opacity:1;fill-rule:nonzero;stroke:#000000;stroke-width:5;stroke-miterlimit:4;stroke-dasharray:none;stroke-opacity:1"
           d="M -158.92392,588.78259 C -148.70963,630.38973 -135.78107,630.38973 -126.06678,588.78259 C -116.35249,547.17545 -113.35249,495.96116 -124.06678,454.35402 C -134.78107,412.74688 -152.20963,412.74688 -162.92392,454.35402 C -173.63821,495.96116 -169.13821,547.17545 -158.92392,588.78259 z" />
        <path
           d="M -164.20348,444.42163 L -122.78722,444.42163 L -128.78722,58.5637 L -143.49535,25.20831 L -158.20348,58.5637 L -164.20348,444.42163 z"
           style="fill:#ffffff;fill-opacity:1;fill-rule:nonzero;stroke:#000000;stroke-width:5;stroke-miterlimit:4;stroke-opacity:1"
           id="path3987" />
        <path
           d="M -145.50414,440.93942 L -144.0086,73.90817 L -139.50414,440.93942 L -145.50414,440.93942 z"
           style="fill:#000000;fill-opacity:1;fill-rule:evenodd;stroke:none;stroke-width:4;stroke-linecap:butt;stroke-linejoin:miter;stroke-miterlimit:4;stroke-dasharray:none;stroke-opacity:1"
           id="path3989" />
        <path
           id="path3991"
           style="fill:#000000;fill-opacity:1;fill-rule:nonzero;stroke:none;stroke-width:5;stroke-miterlimit:4;stroke-opacity:1"
           d="M -154.91959,605.56824 C -155.30895,604.62472 -155.68985,603.69401 -156.04459,602.75574 L -124.70084,584.50574 C -125.01348,585.84336 -125.34168,587.17281 -125.66959,588.50574 L -154.91959,605.56824 z M -160.41959,588.75574 C -160.68383,587.75813 -160.94519,586.75604 -161.20084,585.75574 L -120.20084,561.84949 C -120.41362,563.14415 -120.6294,564.43274 -120.85709,565.72449 L -160.41959,588.75574 z M -164.57584,571.19324 C -164.79283,570.16257 -165.02452,569.13233 -165.23209,568.09949 L -117.35709,540.22449 C -117.47666,541.45643 -117.59837,542.6815 -117.73209,543.91199 L -164.57584,571.19324 z M -167.88834,553.09949 C -168.05074,552.04814 -168.2048,550.99617 -168.35709,549.94324 L -116.01334,519.44324 C -116.04893,520.61895 -116.08919,521.79911 -116.13834,522.97449 L -167.88834,553.09949 z M -170.20084,534.44324 C -170.30483,533.35807 -170.42054,532.27938 -170.51334,531.19324 L -116.07584,499.47449 C -116.03352,500.61208 -116.01099,501.74257 -115.98209,502.88074 L -170.20084,534.44324 z M -171.48209,515.19324 C -171.52012,514.06119 -171.55052,512.91933 -171.57584,511.78699 L -117.45084,480.25574 C -117.33503,481.34572 -117.24108,482.44569 -117.13834,483.53699 L -171.48209,515.19324 z M -171.48209,495.19324 C -171.4421,494.01552 -171.41154,492.83917 -171.35709,491.66199 L -120.10709,461.81824 C -120.02686,462.17997 -119.938,462.55228 -119.85709,462.91199 C -119.73942,463.59151 -119.62562,464.26291 -119.51334,464.94324 L -171.48209,495.19324 z M -170.01334,474.34949 C -169.82575,473.09644 -169.64315,471.8318 -169.45084,470.56824 L -124.26334,444.22449 C -123.97968,445.22231 -123.71075,446.21878 -123.45084,447.22449 L -170.01334,474.34949 z" />
        <rect
           id="rect3993"
           style="fill:#ffffff;fill-opacity:1;fill-rule:nonzero;stroke:#000000;stroke-width:5;stroke-miterlimit:4;stroke-dasharray:none;stroke-opacity:1"
           y="-457.92856"
           x="-224.42975"
           height="21.377804"
           width="161.86885"
           transform="scale(1,-1)" />
        <path
           d="M -114.706,582.87853 C -114.70007,566.97442 -127.59124,554.07845 -143.49534,554.07845 C -159.39945,554.07845 -172.29062,566.97442 -172.28469,582.87853 C -172.29062,598.78264 -159.39945,611.67861 -143.49534,611.67861 C -127.59124,611.67861 -114.70007,598.78264 -114.706,582.87853 L -114.706,582.87853 z"
           style="fill:#ffffff;fill-opacity:1;fill-rule:nonzero;stroke:#000000;stroke-width:5;stroke-miterlimit:4;stroke-dasharray:none;stroke-opacity:1"
           id="path3995" />
        <path
           d="M -131.34449,582.8785 C -131.34196,576.16597 -136.78284,570.72304 -143.49539,570.72304 C -150.20792,570.72304 -155.6488,576.16597 -155.64628,582.8785 C -155.6488,589.59104 -150.20792,595.03397 -143.49539,595.03397 C -136.78284,595.03397 -131.34196,589.59104 -131.34449,582.8785 L -131.34449,582.8785 z"
           style="fill:#ffffff;fill-opacity:1;fill-rule:nonzero;stroke:#000000;stroke-width:4;stroke-miterlimit:4;stroke-dasharray:none;stroke-opacity:1"
           id="path3997" />
      </g>
      <path
         sodipodi:nodetypes="cccc"
         id="path3247"
         style="fill:#e20909;fill-opacity:1;fill-rule:evenodd;stroke:#000000;stroke-width:2.43899989;stroke-linecap:round;stroke-linejoin:round;stroke-miterlimit:4;stroke-dasharray:none;stroke-opacity:1"
         d="M 233.77285,206.66606 C 233.70221,209.55604 244.38789,207.06461 255.19279,203.48262 C 246.91414,202.18829 235.0845,198.59206 233.45307,199.54612 C 233.08095,201.91944 231.62057,204.29275 233.77285,206.66606 z" />
      <path
         sodipodi:nodetypes="cccc"
         inkscape:transform-center-y="4.5432185"
         inkscape:transform-center-x="4.2237996"
         id="path3249"
         style="fill:#e20909;fill-opacity:1;fill-rule:evenodd;stroke:#000000;stroke-width:2.53352237;stroke-linecap:round;stroke-linejoin:round;stroke-miterlimit:4;stroke-dasharray:none;stroke-opacity:1"
         d="M 233.10645,218.30229 C 239.81371,219.67293 250.47244,220.56029 256.47402,215.29498 C 247.60772,213.7299 240.54124,212.59701 234.49657,210.91047 C 234.03286,213.3739 230.73859,211.5915 233.10645,218.30229 z" />
      <path
         sodipodi:nodetypes="cccc"
         inkscape:transform-center-y="6.4492477"
         inkscape:transform-center-x="0.7497692"
         id="path4220"
         style="fill:#e20909;fill-opacity:1;fill-rule:evenodd;stroke:#000000;stroke-width:2.43899989;stroke-linecap:round;stroke-linejoin:round;stroke-miterlimit:4;stroke-dasharray:none;stroke-opacity:1"
         d="M 235.49697,232.04009 C 244.7605,235.39227 249.16279,231.99899 255.05672,228.03686 C 244.33263,227.41331 239.81166,224.2045 234.59519,224.85509 C 234.23988,227.14077 232.0909,229.12751 235.49697,232.04009 z" />
    </g>
  </g>
  <g
     inkscape:groupmode="layer"
     id="layer2"
     inkscape:label="Reflet final"
     sodipodi:insensitive="true">
    <path
       sodipodi:nodetypes="cccccc"
       d="M 300.00001,658.5 C 300.00001,658.5 598.50001,546.17969 598.50001,260.72817 C 598.50001,-24.723334 598.50001,2.1764865 598.50001,2.1764865 L 1.5,2.1764865 L 1.5,260.72817 C 1.5,546.17969 300.00001,658.5 300.00001,658.5 z"
       style="opacity:1;fill:url(#radialGradient3163);fill-opacity:1;fill-rule:evenodd;stroke:none;stroke-width:1px;stroke-linecap:butt;stroke-linejoin:miter;stroke-opacity:1"
       id="path2875"
       inkscape:export-xdpi="144"
       inkscape:export-ydpi="144" />
  </g>
  <g
     inkscape:groupmode="layer"
     id="layer1"
     inkscape:label="Contour final"
     sodipodi:insensitive="true">
    <path
       sodipodi:nodetypes="cccccc"
       d="M 299.99999,658.50028 C 299.99999,658.50028 1.5,546.17992 1.5,260.72828 C 1.5,-24.723336 1.5,2.1764957 1.5,2.1764957 L 598.49999,2.1764957 L 598.49999,260.72828 C 598.49999,546.17992 299.99999,658.50028 299.99999,658.50028 z "
       style="opacity:1;fill:none;fill-opacity:1;fill-rule:evenodd;stroke:#000000;stroke-width:3.00000048;stroke-linecap:butt;stroke-linejoin:miter;stroke-miterlimit:4;stroke-dasharray:none;stroke-opacity:1"
       id="path1411"
       inkscape:export-xdpi="144"
       inkscape:export-ydpi="144" />
  </g>
</svg>
