<?xml version="1.0" encoding="UTF-8" standalone="no"?>
<svg
   xmlns:dc="http://purl.org/dc/elements/1.1/"
   xmlns:cc="http://web.resource.org/cc/"
   xmlns:rdf="http://www.w3.org/1999/02/22-rdf-syntax-ns#"
   xmlns:svg="http://www.w3.org/2000/svg"
   xmlns="http://www.w3.org/2000/svg"
   xmlns:xlink="http://www.w3.org/1999/xlink"
   xmlns:sodipodi="http://sodipodi.sourceforge.net/DTD/sodipodi-0.dtd"
   xmlns:inkscape="http://www.inkscape.org/namespaces/inkscape"
   height="660"
   width="600"
   version="1.0"
   id="svg2"
   sodipodi:version="0.32"
   inkscape:version="0.45.1"
   sodipodi:docname="Blason ville fr Sainte-Luce-sur-Loire (Loire-Atlantique).svg"
   sodipodi:docbase="L:\Héraldique\Réalisations Perso\à charger"
   inkscape:export-filename="/Users/olivier/Desktop/Blason Rouge/Blason_Vide_3D.png"
   inkscape:export-xdpi="144"
   inkscape:export-ydpi="144"
   inkscape:output_extension="org.inkscape.output.svg.inkscape">
  <metadata
     id="metadata49">
    <rdf:RDF>
      <cc:Work
         rdf:about="">
        <dc:format>image/svg+xml</dc:format>
        <dc:type
           rdf:resource="http://purl.org/dc/dcmitype/StillImage" />
        <dc:title>Gabarit d'un blason en pointe pour le projet Blasons de Wikipédia</dc:title>
        <dc:date>03-AUG-2006</dc:date>
        <dc:creator>
          <cc:Agent>
            <dc:title>Jérôme BLUM (wagner51)</dc:title>
          </cc:Agent>
        </dc:creator>
        <cc:license
           rdf:resource="http://web.resource.org/cc/PublicDomain" />
        <dc:language>fr</dc:language>
        <dc:subject>
          <rdf:Bag>
            <rdf:li>gabarit modèle blason projet wikipédia</rdf:li>
          </rdf:Bag>
        </dc:subject>
      </cc:Work>
      <cc:License
         rdf:about="http://web.resource.org/cc/PublicDomain">
        <cc:permits
           rdf:resource="http://web.resource.org/cc/Reproduction" />
        <cc:permits
           rdf:resource="http://web.resource.org/cc/Distribution" />
        <cc:permits
           rdf:resource="http://web.resource.org/cc/DerivativeWorks" />
      </cc:License>
    </rdf:RDF>
  </metadata>
  <sodipodi:namedview
     inkscape:window-height="578"
     inkscape:window-width="800"
     inkscape:pageshadow="2"
     inkscape:pageopacity="0.0"
     guidetolerance="10.0"
     gridtolerance="10.0"
     objecttolerance="10.0"
     borderopacity="1.0"
     bordercolor="#666666"
     pagecolor="#ffffff"
     id="base"
     showgrid="false"
     height="660px"
     inkscape:zoom="0.44547727"
     inkscape:cx="396.46229"
     inkscape:cy="478.04383"
     inkscape:window-x="0"
     inkscape:window-y="0"
     inkscape:current-layer="layer4" />
  <desc
     id="desc4">Flag of Canton of Valais (Wallis)</desc>
  <defs
     id="defs6">
    <linearGradient
       id="linearGradient2893">
      <stop
         style="stop-color:white;stop-opacity:0.3137255;"
         offset="0"
         id="stop2895" />
      <stop
         id="stop2897"
         offset="0.19"
         style="stop-color:white;stop-opacity:0.25098041;" />
      <stop
         style="stop-color:#6b6b6b;stop-opacity:0.1254902;"
         offset="0.60000002"
         id="stop2901" />
      <stop
         style="stop-color:black;stop-opacity:0.1254902;"
         offset="1"
         id="stop2899" />
    </linearGradient>
    <linearGradient
       id="linearGradient2885">
      <stop
         id="stop2887"
         offset="0"
         style="stop-color:white;stop-opacity:1;" />
      <stop
         style="stop-color:white;stop-opacity:1;"
         offset="0.22857143"
         id="stop2891" />
      <stop
         id="stop2889"
         offset="1"
         style="stop-color:black;stop-opacity:1;" />
    </linearGradient>
    <linearGradient
       id="linearGradient2955">
      <stop
         id="stop2867"
         offset="0"
         style="stop-color:#fd0000;stop-opacity:1;" />
      <stop
         style="stop-color:#e77275;stop-opacity:0.65882355;"
         offset="0.5"
         id="stop2873" />
      <stop
         style="stop-color:black;stop-opacity:0.32291666;"
         offset="1"
         id="stop2959" />
    </linearGradient>
    <radialGradient
       inkscape:collect="always"
       xlink:href="#linearGradient2955"
       id="radialGradient2961"
       cx="225.52438"
       cy="218.90099"
       fx="225.52438"
       fy="218.90099"
       r="300"
       gradientTransform="matrix(-4.167939e-4,2.182867,-1.884232,-3.599562e-4,615.5972,-289.1214)"
       gradientUnits="userSpaceOnUse" />
    <polygon
       id="star"
       transform="scale(53,53)"
       points="0,-1 0.58778525,0.80901699 -0.95105652,-0.30901699 0.95105652,-0.30901699 -0.58778525,0.80901699 0,-1 " />
    <clipPath
       id="clip">
      <path
         d="M 0,-200 L 0,600 L 300,600 L 300,-200 L 0,-200 z "
         id="path10" />
    </clipPath>
    <radialGradient
       inkscape:collect="always"
       xlink:href="#linearGradient2955"
       id="radialGradient1911"
       gradientUnits="userSpaceOnUse"
       gradientTransform="matrix(-4.167939e-4,2.182867,-1.884232,-3.599562e-4,615.5972,-289.1214)"
       cx="225.52438"
       cy="218.90099"
       fx="225.52438"
       fy="218.90099"
       r="300" />
    <radialGradient
       inkscape:collect="always"
       xlink:href="#linearGradient2955"
       id="radialGradient2865"
       gradientUnits="userSpaceOnUse"
       gradientTransform="matrix(0,1.748721,-1.593162,-1.049767e-7,551.7876,-191.2898)"
       cx="225.52438"
       cy="218.90099"
       fx="225.52438"
       fy="218.90099"
       r="300" />
    <radialGradient
       inkscape:collect="always"
       xlink:href="#linearGradient2955"
       id="radialGradient2871"
       gradientUnits="userSpaceOnUse"
       gradientTransform="matrix(0,1.386237,-1.323286,-5.741131e-8,-158.0823,-109.5408)"
       cx="225.52438"
       cy="218.90099"
       fx="225.52438"
       fy="218.90099"
       r="300" />
    <radialGradient
       inkscape:collect="always"
       xlink:href="#linearGradient2893"
       id="radialGradient3163"
       gradientUnits="userSpaceOnUse"
       gradientTransform="matrix(1.353218,0,0,1.348928,-77.62935,-85.74693)"
       cx="221.44487"
       cy="226.33101"
       fx="221.44487"
       fy="226.33101"
       r="300" />
    <radialGradient
       r="300"
       fy="226.33101"
       fx="221.44487"
       cy="226.33101"
       cx="221.44487"
       gradientTransform="matrix(1.353218,0,0,1.348928,-77.62935,-85.74693)"
       gradientUnits="userSpaceOnUse"
       id="radialGradient2609"
       xlink:href="#linearGradient2893"
       inkscape:collect="always" />
    <radialGradient
       r="300"
       fy="218.90099"
       fx="225.52438"
       cy="218.90099"
       cx="225.52438"
       gradientTransform="matrix(0,1.386237,-1.323286,-5.741131e-8,-158.0823,-109.5408)"
       gradientUnits="userSpaceOnUse"
       id="radialGradient2607"
       xlink:href="#linearGradient2955"
       inkscape:collect="always" />
    <radialGradient
       r="300"
       fy="218.90099"
       fx="225.52438"
       cy="218.90099"
       cx="225.52438"
       gradientTransform="matrix(0,1.748721,-1.593162,-1.049767e-7,551.7876,-191.2898)"
       gradientUnits="userSpaceOnUse"
       id="radialGradient2605"
       xlink:href="#linearGradient2955"
       inkscape:collect="always" />
    <radialGradient
       r="300"
       fy="218.90099"
       fx="225.52438"
       cy="218.90099"
       cx="225.52438"
       gradientTransform="matrix(-4.167939e-4,2.182867,-1.884232,-3.599562e-4,615.5972,-289.1214)"
       gradientUnits="userSpaceOnUse"
       id="radialGradient2603"
       xlink:href="#linearGradient2955"
       inkscape:collect="always" />
    <clipPath
       id="clipPath2599">
      <path
         id="path2601"
         d="M 0,-200 L 0,600 L 300,600 L 300,-200 L 0,-200 z " />
    </clipPath>
    <polygon
       points="0,-1 0.58778525,0.80901699 -0.95105652,-0.30901699 0.95105652,-0.30901699 -0.58778525,0.80901699 0,-1 "
       transform="scale(53,53)"
       id="polygon2597" />
    <radialGradient
       gradientUnits="userSpaceOnUse"
       gradientTransform="matrix(-4.167939e-4,2.182867,-1.884232,-3.599562e-4,615.5972,-289.1214)"
       r="300"
       fy="218.90099"
       fx="225.52438"
       cy="218.90099"
       cx="225.52438"
       id="radialGradient2595"
       xlink:href="#linearGradient2955"
       inkscape:collect="always" />
    <linearGradient
       id="linearGradient2587">
      <stop
         style="stop-color:#fd0000;stop-opacity:1;"
         offset="0"
         id="stop2589" />
      <stop
         id="stop2591"
         offset="0.5"
         style="stop-color:#e77275;stop-opacity:0.65882355;" />
      <stop
         id="stop2593"
         offset="1"
         style="stop-color:black;stop-opacity:0.32291666;" />
    </linearGradient>
    <linearGradient
       id="linearGradient2579">
      <stop
         style="stop-color:white;stop-opacity:1;"
         offset="0"
         id="stop2581" />
      <stop
         id="stop2583"
         offset="0.22857143"
         style="stop-color:white;stop-opacity:1;" />
      <stop
         style="stop-color:black;stop-opacity:1;"
         offset="1"
         id="stop2585" />
    </linearGradient>
    <linearGradient
       id="linearGradient2569">
      <stop
         id="stop2571"
         offset="0"
         style="stop-color:white;stop-opacity:0.3137255;" />
      <stop
         style="stop-color:white;stop-opacity:0.25098041;"
         offset="0.19"
         id="stop2573" />
      <stop
         id="stop2575"
         offset="0.60000002"
         style="stop-color:#6b6b6b;stop-opacity:0.1254902;" />
      <stop
         id="stop2577"
         offset="1"
         style="stop-color:black;stop-opacity:0.1254902;" />
    </linearGradient>
  </defs>
  <g
     inkscape:groupmode="layer"
     id="layer3"
     inkscape:label="Fond écu"
     style="display:inline"
     sodipodi:insensitive="true">
    <path
       id="path2855"
       style="fill:#ffffff;fill-opacity:1;fill-rule:evenodd;stroke:none;stroke-width:1px;stroke-linecap:butt;stroke-linejoin:miter;stroke-opacity:1"
       d="M 300,658.5 C 300,658.5 598.50001,546.17969 598.50001,260.72817 C 598.50001,-24.723354 598.50001,2.1764765 598.50001,2.1764765 L 1.5,2.1764765 L 1.5,260.72817 C 1.5,546.17969 300,658.5 300,658.5 z "
       sodipodi:nodetypes="cccccc" />
    <g
       id="g2611"
       transform="translate(-0.7499999,0.7499999)">
      <g
         sodipodi:insensitive="true"
         style="display:inline"
         inkscape:label="Fond écu"
         id="g2613">
        <path
           id="path1883"
           d="M 1.5,2.1875 L 1.5,18.15625 C 5.16809,16.917925 8.099969,12.503553 2.25,7.40625 C 1.5246489,6.9874786 3.4604464,4.9017979 2.625,2.1875 L 1.5,2.1875 z M 100.25,2.1875 C 99.607914,7.84334 89.309008,11.298466 97.0625,17.84375 C 101.11745,20.56901 110.57146,14.657061 102.25,7.40625 C 101.52465,6.9874786 103.46045,4.9017979 102.625,2.1875 L 100.25,2.1875 z M 200.25,2.1875 C 199.60791,7.84334 189.30901,11.298466 197.0625,17.84375 C 201.11744,20.56901 210.57146,14.657061 202.25,7.40625 C 201.52465,6.9874786 203.46045,4.9017979 202.625,2.1875 L 200.25,2.1875 z M 300.25,2.1875 C 299.60791,7.84334 289.30901,11.298466 297.0625,17.84375 C 301.11744,20.56901 310.57146,14.657061 302.25,7.40625 C 301.52466,6.9874786 303.46045,4.9017979 302.625,2.1875 L 300.25,2.1875 z M 400.25,2.1875 C 399.60791,7.84334 389.30901,11.298466 397.0625,17.84375 C 401.11743,20.56901 410.57146,14.657061 402.25,7.40625 C 401.52466,6.9874786 403.46045,4.9017979 402.625,2.1875 L 400.25,2.1875 z M 500.25,2.1875 C 499.60791,7.84334 489.30901,11.298466 497.0625,17.84375 C 501.11744,20.56901 510.57146,14.657061 502.25,7.40625 C 501.52466,6.9874786 503.46045,4.9017979 502.625,2.1875 L 500.25,2.1875 z M 598.5,5.9375 C 595.70469,9.670907 591.16685,12.866803 597.0625,17.84375 C 597.49356,18.133458 597.97476,18.334237 598.5,18.4375 C 598.5,18.536196 598.5,5.9032204 598.5,5.9375 z M 9.40625,18.0625 C 7.828735,18.22365 6.310204,19.27545 4.875,21.96875 C 3.0751122,26.48402 10.985618,34.28406 16.3125,24.65625 C 16.689384,23.48127 21.981371,27.259 24.90625,19.375 C 19.891351,25.08755 14.750776,18.28816 10.09375,18.0625 C 9.8659579,18.05146 9.631603,18.03948 9.40625,18.0625 z M 109.40625,18.0625 C 107.82873,18.22365 106.31021,19.27545 104.875,21.96875 C 103.07511,26.48402 110.98562,34.28406 116.3125,24.65625 C 116.68939,23.48127 121.98137,27.259 124.90625,19.375 C 119.89135,25.08755 114.75078,18.28816 110.09375,18.0625 C 109.86596,18.05146 109.6316,18.03948 109.40625,18.0625 z M 209.40625,18.0625 C 207.82873,18.22365 206.31021,19.27545 204.875,21.96875 C 203.07512,26.48402 210.98562,34.28406 216.3125,24.65625 C 216.68939,23.48127 221.98137,27.259 224.90625,19.375 C 219.89134,25.08755 214.75078,18.28816 210.09375,18.0625 C 209.86595,18.05146 209.6316,18.03948 209.40625,18.0625 z M 309.40625,18.0625 C 307.82873,18.22365 306.31021,19.27545 304.875,21.96875 C 303.07512,26.48402 310.98562,34.28406 316.3125,24.65625 C 316.68938,23.48127 321.98137,27.259 324.90625,19.375 C 319.89134,25.08755 314.75078,18.28816 310.09375,18.0625 C 309.86597,18.05146 309.6316,18.03948 309.40625,18.0625 z M 409.40625,18.0625 C 407.82873,18.22365 406.31021,19.27545 404.875,21.96875 C 403.07512,26.48402 410.98562,34.28406 416.3125,24.65625 C 416.68938,23.48127 421.98137,27.259 424.90625,19.375 C 419.89134,25.08755 414.75078,18.28816 410.09375,18.0625 C 409.86597,18.05146 409.6316,18.03948 409.40625,18.0625 z M 509.40625,18.0625 C 507.82873,18.22365 506.31021,19.27545 504.875,21.96875 C 503.07512,26.48402 510.98562,34.28406 516.3125,24.65625 C 516.68941,23.48127 521.98137,27.259 524.90625,19.375 C 519.89134,25.08755 514.75078,18.28816 510.09375,18.0625 C 509.86597,18.05146 509.6316,18.03948 509.40625,18.0625 z M 89.90625,18.125 C 85.249171,18.35068 80.10861,25.21255 75.09375,19.5 C 78.018578,27.38401 83.3419,23.60626 83.71875,24.78125 C 89.045652,34.40906 96.92488,26.60902 95.125,22.09375 C 93.484761,19.01572 91.72855,18.03671 89.90625,18.125 z M 189.90625,18.125 C 185.24917,18.35068 180.10861,25.21255 175.09375,19.5 C 178.01859,27.38401 183.3419,23.60626 183.71875,24.78125 C 189.04564,34.40906 196.92488,26.60902 195.125,22.09375 C 193.48475,19.01572 191.72855,18.03671 189.90625,18.125 z M 289.90625,18.125 C 285.24917,18.35068 280.10861,25.21255 275.09375,19.5 C 278.01859,27.38401 283.3419,23.60626 283.71875,24.78125 C 289.04566,34.40906 296.92488,26.60902 295.125,22.09375 C 293.48475,19.01572 291.72855,18.03671 289.90625,18.125 z M 389.90625,18.125 C 385.24917,18.35068 380.10861,25.21255 375.09375,19.5 C 378.01859,27.38401 383.3419,23.60626 383.71875,24.78125 C 389.04566,34.40906 396.92488,26.60902 395.125,22.09375 C 393.48475,19.01572 391.72856,18.03671 389.90625,18.125 z M 489.90625,18.125 C 485.24917,18.35068 480.10861,25.21255 475.09375,19.5 C 478.01859,27.38401 483.3419,23.60626 483.71875,24.78125 C 489.04566,34.40906 496.92488,26.60902 495.125,22.09375 C 493.48475,19.01572 491.72855,18.03671 489.90625,18.125 z M 589.90625,18.125 C 585.24917,18.35068 580.10861,25.21255 575.09375,19.5 C 578.01859,27.38401 583.3419,23.60626 583.71875,24.78125 C 589.04566,34.40906 596.92488,26.60902 595.125,22.09375 C 593.48475,19.01572 591.72856,18.03671 589.90625,18.125 z M 100.40625,23.625 C 96.305217,43.82656 88.64859,58.12355 80.34375,68.40625 C 83.795971,67.379874 87.71647,64.45922 91.46875,61.90625 C 89.174021,67.20364 86.85721,71.79437 84.5625,76.46875 C 85.932613,75.965234 90.28251,71.26584 96.1875,64.34375 C 97.113253,73.859964 98.38005,78.35994 100.25,84.8125 C 101.73868,78.370274 102.81851,73.94657 104,64.15625 C 107.55996,68.534294 110.99578,72.932 115.8125,76.6875 L 109.0625,61.65625 C 112.55431,64.07602 116.42214,67.24356 120.125,68.59375 C 111.34549,57.797934 103.951,43.82873 100.40625,23.625 z M 200.40625,23.625 C 196.30522,43.82656 188.64859,58.12355 180.34375,68.40625 C 183.79597,67.379874 187.71647,64.45922 191.46875,61.90625 C 189.17402,67.20364 186.85721,71.79437 184.5625,76.46875 C 185.93261,75.965234 190.28251,71.26584 196.1875,64.34375 C 197.11325,73.859964 198.38005,78.35994 200.25,84.8125 C 201.73868,78.370274 202.81851,73.94657 204,64.15625 C 207.55996,68.534294 210.99578,72.932 215.8125,76.6875 L 209.0625,61.65625 C 212.55431,64.07602 216.42214,67.24356 220.125,68.59375 C 211.3455,57.797934 203.951,43.82873 200.40625,23.625 z M 300.40625,23.625 C 296.30522,43.82656 288.64859,58.12355 280.34375,68.40625 C 283.79596,67.379874 287.71647,64.45922 291.46875,61.90625 C 289.17402,67.20364 286.85721,71.79437 284.5625,76.46875 C 285.93261,75.965234 290.28251,71.26584 296.1875,64.34375 C 297.11325,73.859964 298.38005,78.35994 300.25,84.8125 C 301.73869,78.370274 302.81851,73.94657 304,64.15625 C 307.55997,68.534294 310.99578,72.932 315.8125,76.6875 L 309.0625,61.65625 C 312.55429,64.07602 316.42214,67.24356 320.125,68.59375 C 311.34548,57.797934 303.951,43.82873 300.40625,23.625 z M 400.40625,23.625 C 396.30522,43.82656 388.64859,58.12355 380.34375,68.40625 C 383.79596,67.379874 387.71647,64.45922 391.46875,61.90625 C 389.17402,67.20364 386.8572,71.79437 384.5625,76.46875 C 385.93261,75.965234 390.28251,71.26584 396.1875,64.34375 C 397.11325,73.859964 398.38005,78.35994 400.25,84.8125 C 401.73869,78.370274 402.81851,73.94657 404,64.15625 C 407.55997,68.534294 410.99578,72.932 415.8125,76.6875 L 409.0625,61.65625 C 412.55429,64.07602 416.42214,67.24356 420.125,68.59375 C 411.34548,57.797934 403.951,43.82873 400.40625,23.625 z M 500.40625,23.625 C 496.30522,43.82656 488.64859,58.12355 480.34375,68.40625 C 483.79596,67.379874 487.71647,64.45922 491.46875,61.90625 C 489.17402,67.20364 486.85721,71.79437 484.5625,76.46875 C 485.93261,75.965234 490.28251,71.26584 496.1875,64.34375 C 497.11325,73.859964 498.38005,78.35994 500.25,84.8125 C 501.73869,78.370274 502.81851,73.94657 504,64.15625 C 507.55997,68.534294 510.99578,72.932 515.8125,76.6875 L 509.0625,61.65625 C 512.55429,64.07602 516.42214,67.24356 520.125,68.59375 C 511.34551,57.797934 503.951,43.82873 500.40625,23.625 z M 1.5,29.0625 L 1.5,79.34375 C 2.4019731,75.218577 3.1733495,71.006216 4,64.15625 C 7.5599549,68.534294 10.995783,72.932 15.8125,76.6875 L 9.0625,61.65625 C 12.554304,64.07602 16.422134,67.24356 20.125,68.59375 C 12.158875,58.798128 5.3443901,46.370079 1.5,29.0625 z M 598.5,31.71875 C 594.16623,47.724833 587.49257,59.554879 580.34375,68.40625 C 583.79596,67.379874 587.71647,64.45922 591.46875,61.90625 C 589.17399,67.20364 586.85721,71.79437 584.5625,76.46875 C 585.93261,75.965234 590.28251,71.26584 596.1875,64.34375 C 596.79024,70.539371 597.53583,74.602492 598.5,78.46875 C 598.5,75.998504 598.5,31.407924 598.5,31.71875 z M 48.875,97.9375 C 55.181723,106.41762 37.554497,109.81735 47.0625,117.84375 C 51.117449,120.56901 60.571462,114.65706 52.25,107.40625 C 51.174819,106.78551 56.00281,102.48542 48.875,97.9375 z M 148.875,97.9375 C 155.18173,106.41762 137.55449,109.81735 147.0625,117.84375 C 151.11745,120.56901 160.57146,114.65706 152.25,107.40625 C 151.17482,106.78551 156.00281,102.48542 148.875,97.9375 z M 248.875,97.9375 C 255.18173,106.41762 237.55449,109.81735 247.0625,117.84375 C 251.11744,120.56901 260.57146,114.65706 252.25,107.40625 C 251.17482,106.78551 256.00281,102.48542 248.875,97.9375 z M 348.875,97.9375 C 355.18173,106.41762 337.55449,109.81735 347.0625,117.84375 C 351.11744,120.56901 360.57146,114.65706 352.25,107.40625 C 351.17483,106.78551 356.00281,102.48542 348.875,97.9375 z M 448.875,97.9375 C 455.18172,106.41762 437.55449,109.81735 447.0625,117.84375 C 451.11743,120.56901 460.57146,114.65706 452.25,107.40625 C 451.17483,106.78551 456.00281,102.48542 448.875,97.9375 z M 548.875,97.9375 C 555.1817,106.41762 537.55449,109.81735 547.0625,117.84375 C 551.11744,120.56901 560.57146,114.65706 552.25,107.40625 C 551.17483,106.78551 556.00281,102.48542 548.875,97.9375 z M 59.40625,118.0625 C 57.828734,118.22365 56.310204,119.27545 54.875,121.96875 C 53.075113,126.48402 60.985618,134.28406 66.3125,124.65625 C 66.689384,123.48128 71.981371,127.259 74.90625,119.375 C 69.891351,125.08754 64.750776,118.28816 60.09375,118.0625 C 59.865959,118.05146 59.631603,118.03948 59.40625,118.0625 z M 159.40625,118.0625 C 157.82873,118.22365 156.31021,119.27545 154.875,121.96875 C 153.07512,126.48402 160.98562,134.28406 166.3125,124.65625 C 166.68939,123.48128 171.98137,127.259 174.90625,119.375 C 169.89134,125.08754 164.75078,118.28816 160.09375,118.0625 C 159.86595,118.05146 159.6316,118.03948 159.40625,118.0625 z M 259.40625,118.0625 C 257.82873,118.22365 256.31021,119.27545 254.875,121.96875 C 253.07512,126.48402 260.98562,134.28406 266.3125,124.65625 C 266.68938,123.48128 271.98137,127.259 274.90625,119.375 C 269.89134,125.08754 264.75078,118.28816 260.09375,118.0625 C 259.86597,118.05146 259.6316,118.03948 259.40625,118.0625 z M 359.40625,118.0625 C 357.82873,118.22365 356.31021,119.27545 354.875,121.96875 C 353.07512,126.48402 360.98562,134.28406 366.3125,124.65625 C 366.68938,123.48128 371.98137,127.259 374.90625,119.375 C 369.89134,125.08754 364.75078,118.28816 360.09375,118.0625 C 359.86597,118.05146 359.6316,118.03948 359.40625,118.0625 z M 459.40625,118.0625 C 457.82873,118.22365 456.31021,119.27545 454.875,121.96875 C 453.07512,126.48402 460.98562,134.28406 466.3125,124.65625 C 466.68938,123.48128 471.98137,127.259 474.90625,119.375 C 469.89134,125.08754 464.75078,118.28816 460.09375,118.0625 C 459.86597,118.05146 459.6316,118.03948 459.40625,118.0625 z M 559.40625,118.0625 C 557.82873,118.22365 556.31021,119.27545 554.875,121.96875 C 553.07512,126.48402 560.98562,134.28406 566.3125,124.65625 C 566.68941,123.48128 571.98137,127.259 574.90625,119.375 C 569.89134,125.08754 564.75078,118.28816 560.09375,118.0625 C 559.86597,118.05146 559.6316,118.03948 559.40625,118.0625 z M 39.90625,118.125 C 35.249174,118.35068 30.108609,125.21255 25.09375,119.5 C 28.018579,127.38402 33.341896,123.60626 33.71875,124.78125 C 39.045641,134.40906 46.924888,126.60902 45.125,122.09375 C 43.484765,119.01572 41.728558,118.03671 39.90625,118.125 z M 139.90625,118.125 C 135.24917,118.35068 130.10861,125.21255 125.09375,119.5 C 128.01858,127.38402 133.3419,123.60626 133.71875,124.78125 C 139.04564,134.40906 146.92488,126.60902 145.125,122.09375 C 143.48475,119.01572 141.72855,118.03671 139.90625,118.125 z M 239.90625,118.125 C 235.24917,118.35068 230.10861,125.21255 225.09375,119.5 C 228.01859,127.38402 233.3419,123.60626 233.71875,124.78125 C 239.04564,134.40906 246.92488,126.60902 245.125,122.09375 C 243.48475,119.01572 241.72855,118.03671 239.90625,118.125 z M 339.90625,118.125 C 335.24917,118.35068 330.10861,125.21255 325.09375,119.5 C 328.01859,127.38402 333.3419,123.60626 333.71875,124.78125 C 339.04566,134.40906 346.92488,126.60902 345.125,122.09375 C 343.48475,119.01572 341.72855,118.03671 339.90625,118.125 z M 439.90625,118.125 C 435.24917,118.35068 430.10861,125.21255 425.09375,119.5 C 428.01859,127.38402 433.3419,123.60626 433.71875,124.78125 C 439.04566,134.40906 446.92488,126.60902 445.125,122.09375 C 443.48475,119.01572 441.72856,118.03671 439.90625,118.125 z M 539.90625,118.125 C 535.24917,118.35068 530.10861,125.21255 525.09375,119.5 C 528.01859,127.38402 533.3419,123.60626 533.71875,124.78125 C 539.04566,134.40906 546.92488,126.60902 545.125,122.09375 C 543.48475,119.01572 541.72855,118.03671 539.90625,118.125 z M 50.40625,123.625 C 46.305219,143.82656 38.648591,158.12355 30.34375,168.40625 C 33.795962,167.37987 37.716474,164.45922 41.46875,161.90625 C 39.174019,167.20364 36.857202,171.79437 34.5625,176.46875 C 35.932601,175.96523 40.282512,171.26584 46.1875,164.34375 C 47.113249,173.85996 48.380052,178.35994 50.25,184.8125 C 51.738684,178.37025 52.818509,173.94657 54,164.15625 C 57.559955,168.53429 60.995783,172.932 65.8125,176.6875 L 59.0625,161.65625 C 62.554303,164.07602 66.422134,167.24356 70.125,168.59375 C 61.345484,157.79793 53.951005,143.82873 50.40625,123.625 z M 150.40625,123.625 C 146.30522,143.82656 138.64859,158.12355 130.34375,168.40625 C 133.79597,167.37987 137.71647,164.45922 141.46875,161.90625 C 139.17402,167.20364 136.85721,171.79437 134.5625,176.46875 C 135.93261,175.96523 140.28251,171.26584 146.1875,164.34375 C 147.11325,173.85996 148.38005,178.35994 150.25,184.8125 C 151.73868,178.37025 152.81851,173.94657 154,164.15625 C 157.55996,168.53429 160.99578,172.932 165.8125,176.6875 L 159.0625,161.65625 C 162.55431,164.07602 166.42214,167.24356 170.125,168.59375 C 161.3455,157.79793 153.951,143.82873 150.40625,123.625 z M 250.40625,123.625 C 246.30522,143.82656 238.64859,158.12355 230.34375,168.40625 C 233.79597,167.37987 237.71647,164.45922 241.46875,161.90625 C 239.17402,167.20364 236.85721,171.79437 234.5625,176.46875 C 235.93261,175.96523 240.28251,171.26584 246.1875,164.34375 C 247.11325,173.85996 248.38005,178.35994 250.25,184.8125 C 251.73868,178.37025 252.81851,173.94657 254,164.15625 C 257.55996,168.53429 260.99578,172.932 265.8125,176.6875 L 259.0625,161.65625 C 262.55429,164.07602 266.42214,167.24356 270.125,168.59375 C 261.34548,157.79793 253.951,143.82873 250.40625,123.625 z M 350.40625,123.625 C 346.30522,143.82656 338.64859,158.12355 330.34375,168.40625 C 333.79596,167.37987 337.71647,164.45922 341.46875,161.90625 C 339.17402,167.20364 336.85721,171.79437 334.5625,176.46875 C 335.93261,175.96523 340.28251,171.26584 346.1875,164.34375 C 347.11325,173.85996 348.38005,178.35994 350.25,184.8125 C 351.73869,178.37025 352.81851,173.94657 354,164.15625 C 357.55997,168.53429 360.99578,172.932 365.8125,176.6875 L 359.0625,161.65625 C 362.55429,164.07602 366.42214,167.24356 370.125,168.59375 C 361.34548,157.79793 353.951,143.82873 350.40625,123.625 z M 450.40625,123.625 C 446.30522,143.82656 438.64859,158.12355 430.34375,168.40625 C 433.79596,167.37987 437.71647,164.45922 441.46875,161.90625 C 439.17402,167.20364 436.8572,171.79437 434.5625,176.46875 C 435.93261,175.96523 440.28251,171.26584 446.1875,164.34375 C 447.11325,173.85996 448.38005,178.35994 450.25,184.8125 C 451.73869,178.37025 452.81851,173.94657 454,164.15625 C 457.55997,168.53429 460.99578,172.932 465.8125,176.6875 L 459.0625,161.65625 C 462.55429,164.07602 466.42214,167.24356 470.125,168.59375 C 461.34548,157.79793 453.951,143.82873 450.40625,123.625 z M 550.40625,123.625 C 546.30519,143.82656 538.64859,158.12355 530.34375,168.40625 C 533.79596,167.37987 537.71647,164.45922 541.46875,161.90625 C 539.17399,167.20364 536.85721,171.79437 534.5625,176.46875 C 535.93261,175.96523 540.28251,171.26584 546.1875,164.34375 C 547.11328,173.85996 548.38005,178.35994 550.25,184.8125 C 551.73869,178.37025 552.81851,173.94657 554,164.15625 C 557.55994,168.53429 560.99578,172.932 565.8125,176.6875 L 559.0625,161.65625 C 562.55433,164.07602 566.42214,167.24356 570.125,168.59375 C 561.34551,157.79793 553.951,143.82873 550.40625,123.625 z M 98.875,197.9375 C 105.18173,206.41762 87.55449,209.81735 97.0625,217.84375 C 101.11745,220.569 110.57146,214.65706 102.25,207.40625 C 101.17482,206.78552 106.00281,202.48542 98.875,197.9375 z M 198.875,197.9375 C 205.18173,206.41762 187.55449,209.81735 197.0625,217.84375 C 201.11744,220.569 210.57146,214.65706 202.25,207.40625 C 201.17482,206.78552 206.00281,202.48542 198.875,197.9375 z M 298.875,197.9375 C 305.18173,206.41762 287.55449,209.81735 297.0625,217.84375 C 301.11744,220.569 310.57146,214.65706 302.25,207.40625 C 301.17483,206.78552 306.00281,202.48542 298.875,197.9375 z M 398.875,197.9375 C 405.18172,206.41762 387.55449,209.81735 397.0625,217.84375 C 401.11743,220.569 410.57146,214.65706 402.25,207.40625 C 401.17483,206.78552 406.00281,202.48542 398.875,197.9375 z M 498.875,197.9375 C 505.18173,206.41762 487.55449,209.81735 497.0625,217.84375 C 501.11744,220.569 510.57146,214.65706 502.25,207.40625 C 501.17483,206.78552 506.00281,202.48542 498.875,197.9375 z M 1.5,200.15625 L 1.5,218.15625 C 5.16809,216.91792 8.099969,212.50355 2.25,207.40625 C 1.3531059,206.88845 4.5479726,203.80277 1.5,200.15625 z M 598.5,205.9375 C 595.70469,209.67091 591.16685,212.8668 597.0625,217.84375 C 597.49356,218.13346 597.97476,218.33424 598.5,218.4375 C 598.5,209.13693 598.5,214.07543 598.5,205.9375 z M 9.40625,218.0625 C 7.828735,218.22364 6.310204,219.27545 4.875,221.96875 C 3.0751122,226.48402 10.985618,234.28406 16.3125,224.65625 C 16.689384,223.48126 21.981371,227.259 24.90625,219.375 C 19.891351,225.08754 14.750776,218.28816 10.09375,218.0625 C 9.8659579,218.05145 9.631603,218.03948 9.40625,218.0625 z M 109.40625,218.0625 C 107.82873,218.22364 106.31021,219.27545 104.875,221.96875 C 103.07511,226.48402 110.98562,234.28406 116.3125,224.65625 C 116.68939,223.48126 121.98137,227.259 124.90625,219.375 C 119.89135,225.08754 114.75078,218.28816 110.09375,218.0625 C 109.86596,218.05145 109.6316,218.03948 109.40625,218.0625 z M 209.40625,218.0625 C 207.82873,218.22364 206.31021,219.27545 204.875,221.96875 C 203.07512,226.48402 210.98562,234.28406 216.3125,224.65625 C 216.68939,223.48126 221.98137,227.259 224.90625,219.375 C 219.89134,225.08754 214.75078,218.28816 210.09375,218.0625 C 209.86595,218.05145 209.6316,218.03948 209.40625,218.0625 z M 309.40625,218.0625 C 307.82873,218.22364 306.31021,219.27545 304.875,221.96875 C 303.07512,226.48402 310.98562,234.28406 316.3125,224.65625 C 316.68938,223.48126 321.98137,227.259 324.90625,219.375 C 319.89134,225.08754 314.75078,218.28816 310.09375,218.0625 C 309.86597,218.05145 309.6316,218.03948 309.40625,218.0625 z M 409.40625,218.0625 C 407.82873,218.22364 406.31021,219.27545 404.875,221.96875 C 403.07512,226.48402 410.98562,234.28406 416.3125,224.65625 C 416.68938,223.48126 421.98137,227.259 424.90625,219.375 C 419.89134,225.08754 414.75078,218.28816 410.09375,218.0625 C 409.86597,218.05145 409.6316,218.03948 409.40625,218.0625 z M 509.40625,218.0625 C 507.82873,218.22364 506.31021,219.27545 504.875,221.96875 C 503.07512,226.48402 510.98562,234.28406 516.3125,224.65625 C 516.68941,223.48126 521.98137,227.259 524.90625,219.375 C 519.89134,225.08754 514.75078,218.28816 510.09375,218.0625 C 509.86597,218.05145 509.6316,218.03948 509.40625,218.0625 z M 89.90625,218.125 C 85.249171,218.35068 80.10861,225.21255 75.09375,219.5 C 78.018578,227.38402 83.3419,223.60626 83.71875,224.78125 C 89.045652,234.40907 96.92488,226.60902 95.125,222.09375 C 93.484761,219.01573 91.72855,218.03671 89.90625,218.125 z M 189.90625,218.125 C 185.24917,218.35068 180.10861,225.21255 175.09375,219.5 C 178.01859,227.38402 183.3419,223.60626 183.71875,224.78125 C 189.04564,234.40907 196.92488,226.60902 195.125,222.09375 C 193.48475,219.01573 191.72855,218.03671 189.90625,218.125 z M 289.90625,218.125 C 285.24917,218.35068 280.10861,225.21255 275.09375,219.5 C 278.01859,227.38402 283.3419,223.60626 283.71875,224.78125 C 289.04566,234.40907 296.92488,226.60902 295.125,222.09375 C 293.48475,219.01573 291.72855,218.03671 289.90625,218.125 z M 389.90625,218.125 C 385.24917,218.35068 380.10861,225.21255 375.09375,219.5 C 378.01859,227.38402 383.3419,223.60626 383.71875,224.78125 C 389.04566,234.40907 396.92488,226.60902 395.125,222.09375 C 393.48475,219.01573 391.72856,218.03671 389.90625,218.125 z M 489.90625,218.125 C 485.24917,218.35068 480.10861,225.21255 475.09375,219.5 C 478.01859,227.38402 483.3419,223.60626 483.71875,224.78125 C 489.04566,234.40907 496.92488,226.60902 495.125,222.09375 C 493.48475,219.01573 491.72855,218.03671 489.90625,218.125 z M 589.90625,218.125 C 585.24917,218.35068 580.10861,225.21255 575.09375,219.5 C 578.01859,227.38402 583.3419,223.60626 583.71875,224.78125 C 589.04566,234.40907 596.92488,226.60902 595.125,222.09375 C 593.48475,219.01573 591.72856,218.03671 589.90625,218.125 z M 100.40625,223.625 C 96.305217,243.82655 88.64859,258.12355 80.34375,268.40625 C 83.795971,267.37986 87.71647,264.45922 91.46875,261.90625 C 89.174021,267.20363 86.85721,271.79437 84.5625,276.46875 C 85.932613,275.96522 90.28251,271.26584 96.1875,264.34375 C 97.113253,273.85993 98.38005,278.35994 100.25,284.8125 C 101.73868,278.37024 102.81851,273.94657 104,264.15625 C 107.55996,268.53428 110.99578,272.932 115.8125,276.6875 L 109.0625,261.65625 C 112.55431,264.07601 116.42214,267.24356 120.125,268.59375 C 111.34549,257.79792 103.951,243.82873 100.40625,223.625 z M 200.40625,223.625 C 196.30522,243.82655 188.64859,258.12355 180.34375,268.40625 C 183.79597,267.37986 187.71647,264.45922 191.46875,261.90625 C 189.17402,267.20363 186.85721,271.79437 184.5625,276.46875 C 185.93261,275.96522 190.28251,271.26584 196.1875,264.34375 C 197.11325,273.85993 198.38005,278.35994 200.25,284.8125 C 201.73868,278.37024 202.81851,273.94657 204,264.15625 C 207.55996,268.53428 210.99578,272.932 215.8125,276.6875 L 209.0625,261.65625 C 212.55431,264.07601 216.42214,267.24356 220.125,268.59375 C 211.3455,257.79792 203.951,243.82873 200.40625,223.625 z M 300.40625,223.625 C 296.30522,243.82655 288.64859,258.12355 280.34375,268.40625 C 283.79596,267.37986 287.71647,264.45922 291.46875,261.90625 C 289.17402,267.20363 286.85721,271.79437 284.5625,276.46875 C 285.93261,275.96522 290.28251,271.26584 296.1875,264.34375 C 297.11325,273.85993 298.38005,278.35994 300.25,284.8125 C 301.73869,278.37024 302.81851,273.94657 304,264.15625 C 307.55997,268.53428 310.99578,272.932 315.8125,276.6875 L 309.0625,261.65625 C 312.55429,264.07601 316.42214,267.24356 320.125,268.59375 C 311.34548,257.79792 303.951,243.82873 300.40625,223.625 z M 400.40625,223.625 C 396.30522,243.82655 388.64859,258.12355 380.34375,268.40625 C 383.79596,267.37986 387.71647,264.45922 391.46875,261.90625 C 389.17402,267.20363 386.8572,271.79437 384.5625,276.46875 C 385.93261,275.96522 390.28251,271.26584 396.1875,264.34375 C 397.11325,273.85993 398.38005,278.35994 400.25,284.8125 C 401.73869,278.37024 402.81851,273.94657 404,264.15625 C 407.55997,268.53428 410.99578,272.932 415.8125,276.6875 L 409.0625,261.65625 C 412.55429,264.07601 416.42214,267.24356 420.125,268.59375 C 411.34548,257.79792 403.951,243.82873 400.40625,223.625 z M 500.40625,223.625 C 496.30522,243.82655 488.64859,258.12355 480.34375,268.40625 C 483.79596,267.37986 487.71647,264.45922 491.46875,261.90625 C 489.17402,267.20363 486.85721,271.79437 484.5625,276.46875 C 485.93261,275.96522 490.28251,271.26584 496.1875,264.34375 C 497.11325,273.85993 498.38005,278.35994 500.25,284.8125 C 501.73869,278.37024 502.81851,273.94657 504,264.15625 C 507.55997,268.53428 510.99578,272.932 515.8125,276.6875 L 509.0625,261.65625 C 512.55429,264.07601 516.42214,267.24356 520.125,268.59375 C 511.34551,257.79792 503.951,243.82873 500.40625,223.625 z M 1.5,229.0625 L 1.5,260.71875 C 1.5,266.42716 1.6097765,272.05458 1.84375,277.625 C 2.5961936,273.99833 3.2859777,270.07293 4,264.15625 C 7.5599549,268.53428 10.995783,272.932 15.8125,276.6875 L 9.0625,261.65625 C 12.554304,264.07601 16.422134,267.24356 20.125,268.59375 C 12.158875,258.79811 5.3443901,246.37008 1.5,229.0625 z M 598.5,231.71875 C 594.16623,247.72483 587.49257,259.55488 580.34375,268.40625 C 583.79596,267.37986 587.71647,264.45922 591.46875,261.90625 C 589.17399,267.20363 586.85721,271.79437 584.5625,276.46875 C 585.93261,275.96522 590.28251,271.26584 596.1875,264.34375 C 596.7169,269.78552 597.35481,273.56698 598.15625,277.03125 C 598.37408,271.65367 598.5,266.22472 598.5,260.71875 C 598.5,228.69904 598.5,256.3569 598.5,231.71875 z M 48.875,297.9375 C 55.181723,306.41761 37.554497,309.81735 47.0625,317.84375 C 51.117449,320.56899 60.571462,314.65706 52.25,307.40625 C 51.174819,306.78551 56.00281,302.48542 48.875,297.9375 z M 148.875,297.9375 C 155.18173,306.41761 137.55449,309.81735 147.0625,317.84375 C 151.11745,320.56899 160.57146,314.65706 152.25,307.40625 C 151.17482,306.78551 156.00281,302.48542 148.875,297.9375 z M 248.875,297.9375 C 255.18173,306.41761 237.55449,309.81735 247.0625,317.84375 C 251.11744,320.56899 260.57146,314.65706 252.25,307.40625 C 251.17482,306.78551 256.00281,302.48542 248.875,297.9375 z M 348.875,297.9375 C 355.18173,306.41761 337.55449,309.81735 347.0625,317.84375 C 351.11744,320.56899 360.57146,314.65706 352.25,307.40625 C 351.17483,306.78551 356.00281,302.48542 348.875,297.9375 z M 448.875,297.9375 C 455.18172,306.41761 437.55449,309.81735 447.0625,317.84375 C 451.11743,320.56899 460.57146,314.65706 452.25,307.40625 C 451.17483,306.78551 456.00281,302.48542 448.875,297.9375 z M 548.875,297.9375 C 555.1817,306.41761 537.55449,309.81735 547.0625,317.84375 C 551.11744,320.56899 560.57146,314.65706 552.25,307.40625 C 551.17483,306.78551 556.00281,302.48542 548.875,297.9375 z M 59.40625,318.0625 C 57.828734,318.22363 56.310204,319.27545 54.875,321.96875 C 53.075113,326.48401 60.985618,334.28406 66.3125,324.65625 C 66.689384,323.48125 71.981371,327.259 74.90625,319.375 C 69.891351,325.08753 64.750776,318.28816 60.09375,318.0625 C 59.865959,318.05144 59.631603,318.03948 59.40625,318.0625 z M 159.40625,318.0625 C 157.82873,318.22363 156.31021,319.27545 154.875,321.96875 C 153.07512,326.48401 160.98562,334.28406 166.3125,324.65625 C 166.68939,323.48125 171.98137,327.259 174.90625,319.375 C 169.89134,325.08753 164.75078,318.28816 160.09375,318.0625 C 159.86595,318.05144 159.6316,318.03948 159.40625,318.0625 z M 259.40625,318.0625 C 257.82873,318.22363 256.31021,319.27545 254.875,321.96875 C 253.07512,326.48401 260.98562,334.28406 266.3125,324.65625 C 266.68938,323.48125 271.98137,327.259 274.90625,319.375 C 269.89134,325.08753 264.75078,318.28816 260.09375,318.0625 C 259.86597,318.05144 259.6316,318.03948 259.40625,318.0625 z M 359.40625,318.0625 C 357.82873,318.22363 356.31021,319.27545 354.875,321.96875 C 353.07512,326.48401 360.98562,334.28406 366.3125,324.65625 C 366.68938,323.48125 371.98137,327.259 374.90625,319.375 C 369.89134,325.08753 364.75078,318.28816 360.09375,318.0625 C 359.86597,318.05144 359.6316,318.03948 359.40625,318.0625 z M 459.40625,318.0625 C 457.82873,318.22363 456.31021,319.27545 454.875,321.96875 C 453.07512,326.48401 460.98562,334.28406 466.3125,324.65625 C 466.68938,323.48125 471.98137,327.259 474.90625,319.375 C 469.89134,325.08753 464.75078,318.28816 460.09375,318.0625 C 459.86597,318.05144 459.6316,318.03948 459.40625,318.0625 z M 559.40625,318.0625 C 557.82873,318.22363 556.31021,319.27545 554.875,321.96875 C 553.07512,326.48401 560.98562,334.28406 566.3125,324.65625 C 566.68941,323.48125 571.98137,327.259 574.90625,319.375 C 569.89134,325.08753 564.75078,318.28816 560.09375,318.0625 C 559.86597,318.05144 559.6316,318.03948 559.40625,318.0625 z M 39.90625,318.125 C 35.249174,318.35067 30.108609,325.21255 25.09375,319.5 C 28.018579,327.38401 33.341896,323.60626 33.71875,324.78125 C 39.045641,334.40906 46.924888,326.60902 45.125,322.09375 C 43.484765,319.01572 41.728558,318.03671 39.90625,318.125 z M 139.90625,318.125 C 135.24917,318.35067 130.10861,325.21255 125.09375,319.5 C 128.01858,327.38401 133.3419,323.60626 133.71875,324.78125 C 139.04564,334.40906 146.92488,326.60902 145.125,322.09375 C 143.48475,319.01572 141.72855,318.03671 139.90625,318.125 z M 239.90625,318.125 C 235.24917,318.35067 230.10861,325.21255 225.09375,319.5 C 228.01859,327.38401 233.3419,323.60626 233.71875,324.78125 C 239.04564,334.40906 246.92488,326.60902 245.125,322.09375 C 243.48475,319.01572 241.72855,318.03671 239.90625,318.125 z M 339.90625,318.125 C 335.24917,318.35067 330.10861,325.21255 325.09375,319.5 C 328.01859,327.38401 333.3419,323.60626 333.71875,324.78125 C 339.04566,334.40906 346.92488,326.60902 345.125,322.09375 C 343.48475,319.01572 341.72855,318.03671 339.90625,318.125 z M 439.90625,318.125 C 435.24917,318.35067 430.10861,325.21255 425.09375,319.5 C 428.01859,327.38401 433.3419,323.60626 433.71875,324.78125 C 439.04566,334.40906 446.92488,326.60902 445.125,322.09375 C 443.48475,319.01572 441.72856,318.03671 439.90625,318.125 z M 539.90625,318.125 C 535.24917,318.35067 530.10861,325.21255 525.09375,319.5 C 528.01859,327.38401 533.3419,323.60626 533.71875,324.78125 C 539.04566,334.40906 546.92488,326.60902 545.125,322.09375 C 543.48475,319.01572 541.72855,318.03671 539.90625,318.125 z M 50.40625,323.625 C 46.305219,343.82654 38.648591,358.12355 30.34375,368.40625 C 33.795962,367.37986 37.716474,364.45922 41.46875,361.90625 C 39.174019,367.20363 36.857202,371.79437 34.5625,376.46875 C 35.932601,375.96522 40.282512,371.26584 46.1875,364.34375 C 47.113249,373.85993 48.380052,378.35994 50.25,384.8125 C 51.738684,378.37024 52.818509,373.94657 54,364.15625 C 57.559955,368.53428 60.995783,372.932 65.8125,376.6875 L 59.0625,361.65625 C 62.554303,364.07601 66.422134,367.24356 70.125,368.59375 C 61.345484,357.79792 53.951005,343.82873 50.40625,323.625 z M 150.40625,323.625 C 146.30522,343.82654 138.64859,358.12355 130.34375,368.40625 C 133.79597,367.37986 137.71647,364.45922 141.46875,361.90625 C 139.17402,367.20363 136.85721,371.79437 134.5625,376.46875 C 135.93261,375.96522 140.28251,371.26584 146.1875,364.34375 C 147.11325,373.85993 148.38005,378.35994 150.25,384.8125 C 151.73868,378.37024 152.81851,373.94657 154,364.15625 C 157.55996,368.53428 160.99578,372.932 165.8125,376.6875 L 159.0625,361.65625 C 162.55431,364.07601 166.42214,367.24356 170.125,368.59375 C 161.3455,357.79792 153.951,343.82873 150.40625,323.625 z M 250.40625,323.625 C 246.30522,343.82654 238.64859,358.12355 230.34375,368.40625 C 233.79597,367.37986 237.71647,364.45922 241.46875,361.90625 C 239.17402,367.20363 236.85721,371.79437 234.5625,376.46875 C 235.93261,375.96522 240.28251,371.26584 246.1875,364.34375 C 247.11325,373.85993 248.38005,378.35994 250.25,384.8125 C 251.73868,378.37024 252.81851,373.94657 254,364.15625 C 257.55996,368.53428 260.99578,372.932 265.8125,376.6875 L 259.0625,361.65625 C 262.55429,364.07601 266.42214,367.24356 270.125,368.59375 C 261.34548,357.79792 253.951,343.82873 250.40625,323.625 z M 350.40625,323.625 C 346.30522,343.82654 338.64859,358.12355 330.34375,368.40625 C 333.79596,367.37986 337.71647,364.45922 341.46875,361.90625 C 339.17402,367.20363 336.85721,371.79437 334.5625,376.46875 C 335.93261,375.96522 340.28251,371.26584 346.1875,364.34375 C 347.11325,373.85993 348.38005,378.35994 350.25,384.8125 C 351.73869,378.37024 352.81851,373.94657 354,364.15625 C 357.55997,368.53428 360.99578,372.932 365.8125,376.6875 L 359.0625,361.65625 C 362.55429,364.07601 366.42214,367.24356 370.125,368.59375 C 361.34548,357.79792 353.951,343.82873 350.40625,323.625 z M 450.40625,323.625 C 446.30522,343.82654 438.64859,358.12355 430.34375,368.40625 C 433.79596,367.37986 437.71647,364.45922 441.46875,361.90625 C 439.17402,367.20363 436.8572,371.79437 434.5625,376.46875 C 435.93261,375.96522 440.28251,371.26584 446.1875,364.34375 C 447.11325,373.85993 448.38005,378.35994 450.25,384.8125 C 451.73869,378.37024 452.81851,373.94657 454,364.15625 C 457.55997,368.53428 460.99578,372.932 465.8125,376.6875 L 459.0625,361.65625 C 462.55429,364.07601 466.42214,367.24356 470.125,368.59375 C 461.34548,357.79792 453.951,343.82873 450.40625,323.625 z M 550.40625,323.625 C 546.30519,343.82654 538.64859,358.12355 530.34375,368.40625 C 533.79596,367.37986 537.71647,364.45922 541.46875,361.90625 C 539.17399,367.20363 536.85721,371.79437 534.5625,376.46875 C 535.93261,375.96522 540.28251,371.26584 546.1875,364.34375 C 547.11328,373.85993 548.38005,378.35994 550.25,384.8125 C 551.73869,378.37024 552.81851,373.94657 554,364.15625 C 557.55994,368.53428 560.99578,372.932 565.8125,376.6875 L 559.0625,361.65625 C 562.55433,364.07601 566.42214,367.24356 570.125,368.59375 C 561.34551,357.79792 553.951,343.82873 550.40625,323.625 z M 98.875,397.9375 C 105.18173,406.41761 87.55449,409.81735 97.0625,417.84375 C 101.11745,420.56899 110.57146,414.65706 102.25,407.40625 C 101.17482,406.78551 106.00281,402.48542 98.875,397.9375 z M 198.875,397.9375 C 205.18173,406.41761 187.55449,409.81735 197.0625,417.84375 C 201.11744,420.56899 210.57146,414.65706 202.25,407.40625 C 201.17482,406.78551 206.00281,402.48542 198.875,397.9375 z M 298.875,397.9375 C 305.18173,406.41761 287.55449,409.81735 297.0625,417.84375 C 301.11744,420.56899 310.57146,414.65706 302.25,407.40625 C 301.17483,406.78551 306.00281,402.48542 298.875,397.9375 z M 398.875,397.9375 C 405.18172,406.41761 387.55449,409.81735 397.0625,417.84375 C 401.11743,420.56899 410.57146,414.65706 402.25,407.40625 C 401.17483,406.78551 406.00281,402.48542 398.875,397.9375 z M 498.875,397.9375 C 505.18173,406.41761 487.55449,409.81735 497.0625,417.84375 C 501.11744,420.56899 510.57146,414.65706 502.25,407.40625 C 501.17483,406.78551 506.00281,402.48542 498.875,397.9375 z M 109.40625,418.0625 C 107.82873,418.22363 106.31021,419.27545 104.875,421.96875 C 103.07511,426.48401 110.98562,434.28406 116.3125,424.65625 C 116.68939,423.48125 121.98137,427.259 124.90625,419.375 C 119.89135,425.08753 114.75078,418.28816 110.09375,418.0625 C 109.86596,418.05144 109.6316,418.03948 109.40625,418.0625 z M 209.40625,418.0625 C 207.82873,418.22363 206.31021,419.27545 204.875,421.96875 C 203.07512,426.48401 210.98562,434.28406 216.3125,424.65625 C 216.68939,423.48125 221.98137,427.259 224.90625,419.375 C 219.89134,425.08753 214.75078,418.28816 210.09375,418.0625 C 209.86595,418.05144 209.6316,418.03948 209.40625,418.0625 z M 309.40625,418.0625 C 307.82873,418.22363 306.31021,419.27545 304.875,421.96875 C 303.07512,426.48401 310.98562,434.28406 316.3125,424.65625 C 316.68938,423.48125 321.98137,427.259 324.90625,419.375 C 319.89134,425.08753 314.75078,418.28816 310.09375,418.0625 C 309.86597,418.05144 309.6316,418.03948 309.40625,418.0625 z M 409.40625,418.0625 C 407.82873,418.22363 406.31021,419.27545 404.875,421.96875 C 403.07512,426.48401 410.98562,434.28406 416.3125,424.65625 C 416.68938,423.48125 421.98137,427.259 424.90625,419.375 C 419.89134,425.08753 414.75078,418.28816 410.09375,418.0625 C 409.86597,418.05144 409.6316,418.03948 409.40625,418.0625 z M 509.40625,418.0625 C 507.82873,418.22363 506.31021,419.27545 504.875,421.96875 C 503.07512,426.48401 510.98562,434.28406 516.3125,424.65625 C 516.68941,423.48125 521.98137,427.259 524.90625,419.375 C 519.89134,425.08753 514.75078,418.28816 510.09375,418.0625 C 509.86597,418.05144 509.6316,418.03948 509.40625,418.0625 z M 89.90625,418.125 C 85.249171,418.35067 80.10861,425.21255 75.09375,419.5 C 78.018578,427.38401 83.3419,423.60626 83.71875,424.78125 C 89.045652,434.40906 96.92488,426.60902 95.125,422.09375 C 93.484761,419.01572 91.72855,418.03671 89.90625,418.125 z M 189.90625,418.125 C 185.24917,418.35067 180.10861,425.21255 175.09375,419.5 C 178.01859,427.38401 183.3419,423.60626 183.71875,424.78125 C 189.04564,434.40906 196.92488,426.60902 195.125,422.09375 C 193.48475,419.01572 191.72855,418.03671 189.90625,418.125 z M 289.90625,418.125 C 285.24917,418.35067 280.10861,425.21255 275.09375,419.5 C 278.01859,427.38401 283.3419,423.60626 283.71875,424.78125 C 289.04566,434.40906 296.92488,426.60902 295.125,422.09375 C 293.48475,419.01572 291.72855,418.03671 289.90625,418.125 z M 389.90625,418.125 C 385.24917,418.35067 380.10861,425.21255 375.09375,419.5 C 378.01859,427.38401 383.3419,423.60626 383.71875,424.78125 C 389.04566,434.40906 396.92488,426.60902 395.125,422.09375 C 393.48475,419.01572 391.72856,418.03671 389.90625,418.125 z M 489.90625,418.125 C 485.24917,418.35067 480.10861,425.21255 475.09375,419.5 C 478.01859,427.38401 483.3419,423.60626 483.71875,424.78125 C 489.04566,434.40906 496.92488,426.60902 495.125,422.09375 C 493.48475,419.01572 491.72855,418.03671 489.90625,418.125 z M 100.40625,423.625 C 96.305217,443.82654 88.64859,458.12355 80.34375,468.40625 C 83.795971,467.37989 87.71647,464.45922 91.46875,461.90625 C 89.174021,467.2036 86.85721,471.79437 84.5625,476.46875 C 85.932613,475.96525 90.28251,471.26584 96.1875,464.34375 C 97.113253,473.85996 98.38005,478.35994 100.25,484.8125 C 101.73868,478.37024 102.81851,473.94657 104,464.15625 C 107.55996,468.53428 110.99578,472.932 115.8125,476.6875 L 109.0625,461.65625 C 112.55431,464.07601 116.42214,467.24356 120.125,468.59375 C 111.34549,457.79792 103.951,443.82873 100.40625,423.625 z M 200.40625,423.625 C 196.30522,443.82654 188.64859,458.12355 180.34375,468.40625 C 183.79597,467.37989 187.71647,464.45922 191.46875,461.90625 C 189.17402,467.2036 186.85721,471.79437 184.5625,476.46875 C 185.93261,475.96525 190.28251,471.26584 196.1875,464.34375 C 197.11325,473.85996 198.38005,478.35994 200.25,484.8125 C 201.73868,478.37024 202.81851,473.94657 204,464.15625 C 207.55996,468.53428 210.99578,472.932 215.8125,476.6875 L 209.0625,461.65625 C 212.55431,464.07601 216.42214,467.24356 220.125,468.59375 C 211.3455,457.79792 203.951,443.82873 200.40625,423.625 z M 300.40625,423.625 C 296.30522,443.82654 288.64859,458.12355 280.34375,468.40625 C 283.79596,467.37989 287.71647,464.45922 291.46875,461.90625 C 289.17402,467.2036 286.85721,471.79437 284.5625,476.46875 C 285.93261,475.96525 290.28251,471.26584 296.1875,464.34375 C 297.11325,473.85996 298.38005,478.35994 300.25,484.8125 C 301.73869,478.37024 302.81851,473.94657 304,464.15625 C 307.55997,468.53428 310.99578,472.932 315.8125,476.6875 L 309.0625,461.65625 C 312.55429,464.07601 316.42214,467.24356 320.125,468.59375 C 311.34548,457.79792 303.951,443.82873 300.40625,423.625 z M 400.40625,423.625 C 396.30522,443.82654 388.64859,458.12355 380.34375,468.40625 C 383.79596,467.37989 387.71647,464.45922 391.46875,461.90625 C 389.17402,467.2036 386.8572,471.79437 384.5625,476.46875 C 385.93261,475.96525 390.28251,471.26584 396.1875,464.34375 C 397.11325,473.85996 398.38005,478.35994 400.25,484.8125 C 401.73869,478.37024 402.81851,473.94657 404,464.15625 C 407.55997,468.53428 410.99578,472.932 415.8125,476.6875 L 409.0625,461.65625 C 412.55429,464.07601 416.42214,467.24356 420.125,468.59375 C 411.34548,457.79792 403.951,443.82873 400.40625,423.625 z M 500.40625,423.625 C 496.30522,443.82654 488.64859,458.12355 480.34375,468.40625 C 483.79596,467.37989 487.71647,464.45922 491.46875,461.90625 C 489.17402,467.2036 486.85721,471.79437 484.5625,476.46875 C 485.93261,475.96525 490.28251,471.26584 496.1875,464.34375 C 497.11325,473.85996 498.38005,478.35994 500.25,484.8125 C 501.73869,478.37024 502.81851,473.94657 504,464.15625 C 507.55997,468.53428 510.99578,472.932 515.8125,476.6875 L 509.0625,461.65625 C 512.55429,464.07601 516.42214,467.24356 520.125,468.59375 C 511.34551,457.79792 503.951,443.82873 500.40625,423.625 z M 148.875,497.9375 C 155.18173,506.41761 137.55449,509.81735 147.0625,517.84375 C 151.11745,520.56902 160.57146,514.65706 152.25,507.40625 C 151.17482,506.78548 156.00281,502.48542 148.875,497.9375 z M 248.875,497.9375 C 255.18173,506.41761 237.55449,509.81735 247.0625,517.84375 C 251.11744,520.56902 260.57146,514.65706 252.25,507.40625 C 251.17482,506.78548 256.00281,502.48542 248.875,497.9375 z M 348.875,497.9375 C 355.18173,506.41761 337.55449,509.81735 347.0625,517.84375 C 351.11744,520.56902 360.57146,514.65706 352.25,507.40625 C 351.17483,506.78548 356.00281,502.48542 348.875,497.9375 z M 448.875,497.9375 C 455.18172,506.41761 437.55449,509.81735 447.0625,517.84375 C 451.11743,520.56902 460.57146,514.65706 452.25,507.40625 C 451.17483,506.78548 456.00281,502.48542 448.875,497.9375 z M 159.40625,518.0625 C 157.82873,518.22363 156.31021,519.27545 154.875,521.96875 C 153.07512,526.48398 160.98562,534.28406 166.3125,524.65625 C 166.68939,523.48125 171.98137,527.259 174.90625,519.375 C 169.89134,525.08757 164.75078,518.28816 160.09375,518.0625 C 159.86595,518.05144 159.6316,518.03948 159.40625,518.0625 z M 259.40625,518.0625 C 257.82873,518.22363 256.31021,519.27545 254.875,521.96875 C 253.07512,526.48398 260.98562,534.28406 266.3125,524.65625 C 266.68938,523.48125 271.98137,527.259 274.90625,519.375 C 269.89134,525.08757 264.75078,518.28816 260.09375,518.0625 C 259.86597,518.05144 259.6316,518.03948 259.40625,518.0625 z M 359.40625,518.0625 C 357.82873,518.22363 356.31021,519.27545 354.875,521.96875 C 353.07512,526.48398 360.98562,534.28406 366.3125,524.65625 C 366.68938,523.48125 371.98137,527.259 374.90625,519.375 C 369.89134,525.08757 364.75078,518.28816 360.09375,518.0625 C 359.86597,518.05144 359.6316,518.03948 359.40625,518.0625 z M 459.40625,518.0625 C 457.82873,518.22363 456.31021,519.27545 454.875,521.96875 C 453.07512,526.48398 460.98562,534.28406 466.3125,524.65625 C 466.68938,523.48125 471.98137,527.259 474.90625,519.375 C 469.89134,525.08757 464.75078,518.28816 460.09375,518.0625 C 459.86597,518.05144 459.6316,518.03948 459.40625,518.0625 z M 139.90625,518.125 C 135.24917,518.35067 130.10861,525.21255 125.09375,519.5 C 128.01858,527.38397 133.3419,523.60626 133.71875,524.78125 C 139.04564,534.40906 146.92488,526.60902 145.125,522.09375 C 143.48475,519.01569 141.72855,518.03671 139.90625,518.125 z M 239.90625,518.125 C 235.24917,518.35067 230.10861,525.21255 225.09375,519.5 C 228.01859,527.38397 233.3419,523.60626 233.71875,524.78125 C 239.04564,534.40906 246.92488,526.60902 245.125,522.09375 C 243.48475,519.01569 241.72855,518.03671 239.90625,518.125 z M 339.90625,518.125 C 335.24917,518.35067 330.10861,525.21255 325.09375,519.5 C 328.01859,527.38397 333.3419,523.60626 333.71875,524.78125 C 339.04566,534.40906 346.92488,526.60902 345.125,522.09375 C 343.48475,519.01569 341.72855,518.03671 339.90625,518.125 z M 439.90625,518.125 C 435.24917,518.35067 430.10861,525.21255 425.09375,519.5 C 428.01859,527.38397 433.3419,523.60626 433.71875,524.78125 C 439.04566,534.40906 446.92488,526.60902 445.125,522.09375 C 443.48475,519.01569 441.72856,518.03671 439.90625,518.125 z M 150.40625,523.625 C 147.74345,536.74188 143.58371,547.37554 138.71875,556.03125 C 143.59675,560.46439 148.48351,564.74993 153.375,568.875 C 153.58157,567.43175 153.78987,565.89746 154,564.15625 C 157.55996,568.53428 160.99578,572.932 165.8125,576.6875 L 159.0625,561.65625 C 162.55431,564.07601 166.42214,567.24356 170.125,568.59375 C 161.3455,557.79792 153.951,543.82873 150.40625,523.625 z M 250.40625,523.625 C 246.30522,543.82654 238.64859,558.12355 230.34375,568.40625 C 233.79597,567.37989 237.71647,564.45922 241.46875,561.90625 C 239.17402,567.2036 236.85721,571.79437 234.5625,576.46875 C 235.93261,575.96525 240.28251,571.26584 246.1875,564.34375 C 247.11325,573.85996 248.38005,578.35994 250.25,584.8125 C 251.73868,578.37024 252.81851,573.94657 254,564.15625 C 257.55996,568.53428 260.99578,572.932 265.8125,576.6875 L 259.0625,561.65625 C 262.55429,564.07601 266.42214,567.24356 270.125,568.59375 C 261.34548,557.79792 253.951,543.82873 250.40625,523.625 z M 350.40625,523.625 C 346.30522,543.82654 338.64859,558.12355 330.34375,568.40625 C 333.79596,567.37989 337.71647,564.45922 341.46875,561.90625 C 339.17402,567.2036 336.85721,571.79437 334.5625,576.46875 C 335.93261,575.96525 340.28251,571.26584 346.1875,564.34375 C 347.11325,573.85996 348.38005,578.35994 350.25,584.8125 C 351.73869,578.37024 352.81851,573.94657 354,564.15625 C 357.55997,568.53428 360.99578,572.932 365.8125,576.6875 L 359.0625,561.65625 C 362.55429,564.07601 366.42214,567.24356 370.125,568.59375 C 361.34548,557.79792 353.951,543.82873 350.40625,523.625 z M 450.40625,523.625 C 446.30522,543.82654 438.64859,558.12355 430.34375,568.40625 C 433.79596,567.37989 437.71647,564.45922 441.46875,561.90625 C 439.17402,567.2036 436.8572,571.79437 434.5625,576.46875 C 435.93261,575.96525 440.28251,571.26584 446.1875,564.34375 C 446.34579,565.97087 446.50796,567.4126 446.6875,568.78125 C 451.61725,564.6222 456.5531,560.31574 461.46875,555.84375 C 456.61623,547.15983 452.70091,536.70369 450.40625,523.625 z M 198.875,597.9375 C 200.6061,600.26516 200.53799,602.20587 199.71875,603.96875 C 200.63195,604.59014 201.52996,605.20237 202.4375,605.8125 C 203.03498,604.03336 203.76235,601.05589 198.875,597.9375 z M 298.875,597.9375 C 305.18173,606.41761 287.55449,609.81735 297.0625,617.84375 C 301.11744,620.56902 310.57146,614.65706 302.25,607.40625 C 301.17483,606.78548 306.00281,602.48542 298.875,597.9375 z M 398.875,597.9375 C 400.81293,600.54327 400.50635,602.66573 399.40625,604.59375 C 400.4983,603.85359 401.58767,603.1001 402.6875,602.34375 C 402.32292,600.99312 401.29024,599.47855 398.875,597.9375 z M 309.40625,618.0625 C 307.82873,618.22363 306.31021,619.27545 304.875,621.96875 C 303.07512,626.48398 310.98562,634.28406 316.3125,624.65625 C 316.68938,623.48125 321.98137,627.259 324.90625,619.375 C 319.89134,625.08757 314.75078,618.28816 310.09375,618.0625 C 309.86597,618.05144 309.6316,618.03948 309.40625,618.0625 z M 289.90625,618.125 C 285.24917,618.35067 280.10861,625.21255 275.09375,619.5 C 278.01859,627.38397 283.3419,623.60626 283.71875,624.78125 C 289.04566,634.40906 296.92488,626.60902 295.125,622.09375 C 293.48475,619.01569 291.72855,618.03671 289.90625,618.125 z M 224.90625,619.375 C 224.73874,619.56581 224.57402,619.74264 224.40625,619.90625 C 224.4769,619.94938 224.55441,619.98819 224.625,620.03125 C 224.71883,619.81116 224.81666,619.6165 224.90625,619.375 z M 375.09375,619.5 C 375.16946,619.70408 375.2337,619.87376 375.3125,620.0625 C 375.37562,620.02401 375.43684,619.97605 375.5,619.9375 C 375.36331,619.80024 375.23026,619.65551 375.09375,619.5 z M 300.40625,623.625 C 297.92531,635.84601 294.12724,645.90102 289.6875,654.21875 C 296.18567,657.05038 300,658.5 300,658.5 C 300,658.5 303.89437,657.02211 310.53125,654.125 C 306.11068,645.78485 302.55208,635.85541 300.40625,623.625 z "
           style="fill:#000000;fill-opacity:1;fill-rule:evenodd;stroke:#000000;stroke-width:1.50000012;stroke-linecap:round;stroke-linejoin:round;stroke-miterlimit:4;stroke-dasharray:none;stroke-opacity:1;display:inline" />
      </g>
      <g
         sodipodi:insensitive="true"
         inkscape:label="Meubles"
         id="g2616" />
      <g
         sodipodi:insensitive="true"
         inkscape:label="Reflet final"
         id="g2618" />
      <g
         sodipodi:insensitive="true"
         inkscape:label="Contour final"
         id="g2620" />
    </g>
  </g>
  <g
     inkscape:groupmode="layer"
     id="layer4"
     inkscape:label="Meubles"
     sodipodi:insensitive="true">
    <g
       id="g2622">
      <g
         transform="matrix(0.8204173,0,0,0.7449111,54.675794,87.563455)"
         id="g4327">
        <g
           style="display:inline"
           id="g4329">
          <path
             d="M 298.5,660 C 298.5,660 596.99999,547.67969 596.99999,262.22817 C 596.99999,-23.223356 596.99999,3.676475 596.99999,3.676475 L 1.110223e-015,3.676475 L 1.110223e-015,262.22817 C 1.110223e-015,547.67969 298.5,660 298.5,660 z "
             style="fill:#2b5df2;fill-opacity:1;fill-rule:evenodd;stroke:none;stroke-width:1px;stroke-linecap:butt;stroke-linejoin:miter;stroke-opacity:1"
             id="path4331" />
        </g>
        <g
           id="g4333" />
        <g
           transform="translate(2.3841858e-7,-2.8023842e-4)"
           id="g4335">
          <path
             d="M 299.99999,658.50028 C 299.99999,658.50028 1.5,546.17992 1.5,260.72828 C 1.5,-24.723336 1.5,2.1764957 1.5,2.1764957 L 598.49999,2.1764957 L 598.49999,260.72828 C 598.49999,546.17992 299.99999,658.50028 299.99999,658.50028 z "
             style="opacity:1;fill:none;fill-opacity:1;fill-rule:evenodd;stroke:#000000;stroke-width:3.00000048;stroke-linecap:butt;stroke-linejoin:miter;stroke-miterlimit:4;stroke-dasharray:none;stroke-opacity:1"
             id="path4337" />
        </g>
        <g
           transform="matrix(3.3352252,0,0,2.9362858,-40.68435,-31.063021)"
           id="g3733">
          <g
             id="g19422">
            <g
               transform="matrix(0.7071068,-0.8031781,0.622527,0.7071068,8.756535,33.331661)"
               id="g3754">
              <g
                 transform="matrix(0.545578,0,0,1.851074,11.60662,-34.30086)"
                 style="fill:#fcef3c;fill-opacity:1"
                 id="g14761">
                <path
                   d="M 34.910713,132.14285 C 34.911871,132.93199 31.633617,133.57183 27.589285,133.57183 C 23.544953,133.57183 20.266699,132.93199 20.267857,132.14285 C 20.266699,131.35371 23.544953,130.71387 27.589285,130.71387 C 31.633617,130.71387 34.911871,131.35371 34.910713,132.14285 z "
                   transform="matrix(0.49027,-8.644779e-2,7.798314e-2,0.442264,1.15971,78.26062)"
                   style="opacity:1;fill:#fcef3c;fill-opacity:1;fill-rule:evenodd;stroke:#000000;stroke-width:0.52872872;stroke-linecap:butt;stroke-linejoin:miter;stroke-miterlimit:4;stroke-dasharray:none;stroke-opacity:1"
                   id="path13003" />
                <path
                   d="M 34.910713,132.14285 C 34.911871,132.93199 31.633617,133.57183 27.589285,133.57183 C 23.544953,133.57183 20.266699,132.93199 20.267857,132.14285 C 20.266699,131.35371 23.544953,130.71387 27.589285,130.71387 C 31.633617,130.71387 34.911871,131.35371 34.910713,132.14285 z "
                   transform="matrix(0.656188,-0.115704,0.106069,0.601549,-7.129195,56.62028)"
                   style="opacity:1;fill:#fcef3c;fill-opacity:1;fill-rule:evenodd;stroke:#000000;stroke-width:0.39186972;stroke-linecap:butt;stroke-linejoin:miter;stroke-miterlimit:4;stroke-dasharray:none;stroke-opacity:1"
                   id="path13001" />
                <path
                   d="M 34.910713,132.14285 C 34.911871,132.93199 31.633617,133.57183 27.589285,133.57183 C 23.544953,133.57183 20.266699,132.93199 20.267857,132.14285 C 20.266699,131.35371 23.544953,130.71387 27.589285,130.71387 C 31.633617,130.71387 34.911871,131.35371 34.910713,132.14285 z "
                   transform="matrix(0.822371,-0.145006,0.134402,0.762232,-15.45807,34.73154)"
                   style="opacity:1;fill:#fcef3c;fill-opacity:1;fill-rule:evenodd;stroke:#000000;stroke-width:0.31096679;stroke-linecap:butt;stroke-linejoin:miter;stroke-miterlimit:4;stroke-dasharray:none;stroke-opacity:1"
                   id="path12999" />
                <path
                   d="M 34.910713,132.14285 C 34.911871,132.93199 31.633617,133.57183 27.589285,133.57183 C 23.544953,133.57183 20.266699,132.93199 20.267857,132.14285 C 20.266699,131.35371 23.544953,130.71387 27.589285,130.71387 C 31.633617,130.71387 34.911871,131.35371 34.910713,132.14285 z "
                   transform="matrix(0.988741,-0.174342,0.16291,0.92391,-23.81523,12.26102)"
                   style="opacity:1;fill:#fcef3c;fill-opacity:1;fill-rule:evenodd;stroke:#000000;stroke-width:0.25759375;stroke-linecap:butt;stroke-linejoin:miter;stroke-miterlimit:4;stroke-dasharray:none;stroke-opacity:1"
                   id="path12997" />
                <path
                   d="M 34.910713,132.14285 C 34.911871,132.93199 31.633617,133.57183 27.589285,133.57183 C 23.544953,133.57183 20.266699,132.93199 20.267857,132.14285 C 20.266699,131.35371 23.544953,130.71387 27.589285,130.71387 C 31.633617,130.71387 34.911871,131.35371 34.910713,132.14285 z "
                   transform="matrix(1.153667,-0.203423,0.191278,1.084793,-32.11405,-10.50938)"
                   style="opacity:1;fill:#fcef3c;fill-opacity:1;fill-rule:evenodd;stroke:#000000;stroke-width:0.22007857;stroke-linecap:butt;stroke-linejoin:miter;stroke-miterlimit:4;stroke-dasharray:none;stroke-opacity:1"
                   id="path12995" />
                <path
                   d="M 34.910713,132.14285 C 34.911871,132.93199 31.633617,133.57183 27.589285,133.57183 C 23.544953,133.57183 20.266699,132.93199 20.267857,132.14285 C 20.266699,131.35371 23.544953,130.71387 27.589285,130.71387 C 31.633617,130.71387 34.911871,131.35371 34.910713,132.14285 z "
                   transform="matrix(1.262798,-0.222665,0.21053,1.193974,-38.11078,-26.61037)"
                   style="opacity:1;fill:#fcef3c;fill-opacity:1;fill-rule:evenodd;stroke:#000000;stroke-width:0.1913871;stroke-linecap:butt;stroke-linejoin:miter;stroke-miterlimit:4;stroke-dasharray:none;stroke-opacity:1"
                   id="path12993" />
                <path
                   d="M 34.910713,132.14285 C 34.911871,132.93199 31.633617,133.57183 27.589285,133.57183 C 23.544953,133.57183 20.266699,132.93199 20.267857,132.14285 C 20.266699,131.35371 23.544953,130.71387 27.589285,130.71387 C 31.633617,130.71387 34.911871,131.35371 34.910713,132.14285 z "
                   transform="matrix(1.395165,-0.246005,0.232598,1.319126,-44.67879,-45.25639)"
                   style="opacity:1;fill:#fcef3c;fill-opacity:1;fill-rule:evenodd;stroke:#000000;stroke-width:0.1913871;stroke-linecap:butt;stroke-linejoin:miter;stroke-miterlimit:4;stroke-dasharray:none;stroke-opacity:1"
                   id="path13007" />
                <path
                   d="M 34.910713,132.14285 C 34.911871,132.93199 31.633617,133.57183 27.589285,133.57183 C 23.544953,133.57183 20.266699,132.93199 20.267857,132.14285 C 20.266699,131.35371 23.544953,130.71387 27.589285,130.71387 C 31.633617,130.71387 34.911871,131.35371 34.910713,132.14285 z "
                   transform="matrix(1.455332,-0.256614,0.242629,1.376014,-47.66425,-54.81489)"
                   style="opacity:1;fill:#fcef3c;fill-opacity:1;fill-rule:evenodd;stroke:#000000;stroke-width:0.1913871;stroke-linecap:butt;stroke-linejoin:miter;stroke-miterlimit:4;stroke-dasharray:none;stroke-opacity:1"
                   id="path14755" />
                <path
                   d="M 34.910713,132.14285 C 34.911871,132.93199 31.633617,133.57183 27.589285,133.57183 C 23.544953,133.57183 20.266699,132.93199 20.267857,132.14285 C 20.266699,131.35371 23.544953,130.71387 27.589285,130.71387 C 31.633617,130.71387 34.911871,131.35371 34.910713,132.14285 z "
                   transform="matrix(1.467365,-0.258736,0.244635,1.387391,-48.26134,-58.59372)"
                   style="opacity:1;fill:#fcef3c;fill-opacity:1;fill-rule:evenodd;stroke:#000000;stroke-width:0.1913871;stroke-linecap:butt;stroke-linejoin:miter;stroke-miterlimit:4;stroke-dasharray:none;stroke-opacity:1"
                   id="path14757" />
                <path
                   d="M 34.910713,132.14285 C 34.911871,132.93199 31.633617,133.57183 27.589285,133.57183 C 23.544953,133.57183 20.266699,132.93199 20.267857,132.14285 C 20.266699,131.35371 23.544953,130.71387 27.589285,130.71387 C 31.633617,130.71387 34.911871,131.35371 34.910713,132.14285 z "
                   transform="matrix(1.395165,-0.246005,0.232598,1.319126,-44.67879,-52.25813)"
                   style="opacity:1;fill:#fcef3c;fill-opacity:1;fill-rule:evenodd;stroke:#000000;stroke-width:0.1913871;stroke-linecap:butt;stroke-linejoin:miter;stroke-miterlimit:4;stroke-dasharray:none;stroke-opacity:1"
                   id="path14759" />
              </g>
              <g
                 transform="matrix(0.76036,0,0,0.764936,5.991,110.1513)"
                 style="fill:#fcef3c;fill-opacity:1"
                 id="g19146">
                <path
                   d="M 32.5,142.5 C 32.5,146.64214 29.142136,150 25,150 C 20.857864,150 17.5,146.64214 17.5,142.5 C 17.5,138.35786 20.857864,135 25,135 C 29.142136,135 32.5,138.35786 32.5,142.5 z "
                   style="opacity:1;fill:#fcef3c;fill-opacity:1;fill-rule:evenodd;stroke:#000000;stroke-width:0.28400001;stroke-linecap:butt;stroke-linejoin:miter;stroke-miterlimit:4;stroke-dasharray:none;stroke-opacity:1"
                   id="path12871" />
                <path
                   d="M 28.5,142.5 C 28.5,144.433 26.932997,146 25,146 C 23.067003,146 21.5,144.433 21.5,142.5 C 21.5,140.567 23.067003,139 25,139 C 26.932997,139 28.5,140.567 28.5,142.5 z "
                   style="opacity:1;fill:#000000;fill-opacity:1;fill-rule:evenodd;stroke:#000000;stroke-width:0.28400001;stroke-linecap:butt;stroke-linejoin:miter;stroke-miterlimit:4;stroke-dasharray:none;stroke-opacity:1"
                   id="path12873" />
              </g>
              <g
                 transform="matrix(0.616282,0,0,1.576317,9.592946,0.141586)"
                 id="g19142">
                <path
                   d="M 15,114 L 25,114 L 25,0 L 20,5 L 15,114 L 15,114 L 15,114 L 15,114 z "
                   style="fill:#ffffff;fill-opacity:1;fill-rule:evenodd;stroke:#000000;stroke-width:0.30000001;stroke-linecap:butt;stroke-linejoin:miter;stroke-miterlimit:4;stroke-dasharray:none;stroke-opacity:1"
                   id="path14773" />
                <path
                   d="M 35,114 L 25,114 L 25,0 L 30,5 L 35,114 L 35,114 L 35,114 L 35,114 z "
                   style="fill:#9d9d9d;fill-opacity:1;fill-rule:evenodd;stroke:#000000;stroke-width:0.30000001;stroke-linecap:butt;stroke-linejoin:miter;stroke-miterlimit:4;stroke-dasharray:none;stroke-opacity:1"
                   id="path19140" />
              </g>
              <path
                 d="M 3.3179821,174.71341 C 1.543357,174.87213 0.14954934,176.38707 0.14954934,178.21341 C 0.14954934,180.05485 1.5534602,181.57582 3.3490451,181.71341 C 3.3637631,181.71454 3.3964029,181.71247 3.4111712,181.71341 L 3.9392433,181.71341 L 46.060761,181.71341 L 46.091823,181.71341 C 46.180132,181.72018 46.281371,181.71341 46.371391,181.71341 C 48.291835,181.71341 49.850455,180.14541 49.850455,178.21341 C 49.850455,176.28141 48.291835,174.71341 46.371391,174.71341 C 44.450948,174.71341 42.892328,176.28141 42.892328,178.21341 C 42.892328,178.84735 43.064933,179.45039 43.358274,179.96341 L 6.6417301,179.96341 C 6.9350706,179.45039 7.1076761,178.84735 7.1076761,178.21341 C 7.1076761,176.28141 5.5490557,174.71341 3.6286127,174.71341 C 3.5235885,174.71341 3.4206464,174.70423 3.3179821,174.71341 z "
                 style="fill:#fcef3c;fill-opacity:1;fill-rule:evenodd;stroke:#000000;stroke-width:0.29910138;stroke-linecap:butt;stroke-linejoin:miter;stroke-miterlimit:4;stroke-dasharray:none;stroke-opacity:1"
                 id="path12875" />
            </g>
          </g>
        </g>
        <g
           transform="matrix(-0.9678645,0,0,0.7567967,182.52501,-102.1696)"
           id="g3672">
          <g
             transform="translate(-20.92547,7.12607)"
             style="opacity:1;fill:#fcef3c;fill-opacity:1;stroke:#000000;stroke-width:3;stroke-miterlimit:4;stroke-dasharray:none;stroke-opacity:1;display:inline"
             id="g1912">
            <g
               transform="matrix(0.5071644,-0.6210936,0.5071644,0.6210936,-608.48025,370.93588)"
               style="fill:#fcef3c;fill-opacity:1;stroke:#000000;stroke-width:3;stroke-miterlimit:4;stroke-dasharray:none;stroke-opacity:1"
               id="g2277">
              <g
                 transform="matrix(0.999988,-4.798284e-3,4.798284e-3,0.999988,232.9667,9.002819)"
                 style="fill:#fcef3c;fill-opacity:1;stroke:#000000;stroke-width:3.00000143;stroke-miterlimit:4;stroke-dasharray:none;stroke-opacity:1"
                 id="g2294">
                <path
                   d="M 202.34375,807.6875 L 163.25,808.0625 C 163.24999,808.06252 150.24246,828.76323 130.5,846.875 C 108.88805,866.70179 92.6875,875.625 92.6875,875.625 L 92.375,915.125 C 92.374999,915.12503 117.57986,935.38631 129.6875,949.125 C 141.79514,962.86368 163.53125,986.5 163.53125,986.5 L 205.1875,987.53125 C 205.1875,987.53124 221.56253,968.08721 236.90625,952.6875 C 252.24997,937.28778 274.5,920.25 274.5,920.25 L 273.6875,876.28125 C 273.68749,876.28125 253.35002,859.72563 236.84375,845.03125 C 219.44348,829.54102 202.34375,807.6875 202.34375,807.6875 z M 183.15625,828.25 C 226.31906,828.28373 204.06251,877.59374 204.0625,877.59375 C 204.0625,877.59375 251.98641,853.33316 250.0625,894.9375 C 249.88186,947.86667 203.6875,918.34375 203.6875,918.34375 C 203.6875,918.34375 232.47153,964.14861 182.9375,964.09375 C 142.37536,964.04882 164.53126,917.31253 164.53125,917.3125 C 164.53125,917.3125 114.80738,944.96556 115.5,899.03125 C 116.19862,852.69861 163.09375,877.0625 163.09375,877.0625 C 163.09375,877.0625 142.12038,829.61944 181.0625,828.28125 C 181.78095,828.25656 182.47113,828.24946 183.15625,828.25 z "
                   style="fill:#fcef3c;fill-opacity:1;fill-rule:evenodd;stroke:#000000;stroke-width:3.00000143;stroke-linecap:butt;stroke-linejoin:miter;stroke-miterlimit:4;stroke-dasharray:none;stroke-opacity:1"
                   id="path2872" />
                <path
                   d="M 257.18207,992.8739 C 256.37226,993.94244 255.3908,994.90912 254.47177,995.89516 C 253.27728,997.43712 251.83483,998.73868 250.42248,1000.0696 C 248.97961,1001.0914 247.42811,1001.9449 245.91143,1002.8493 C 244.68367,1004.044 243.8705,1003.2193 242.61988,1003.1915 C 241.45754,1002.542 240.43595,1001.681 239.37401,1000.886 L 242.36641,1010.865 C 243.51289,1011.6749 244.58798,1012.6187 245.92331,1013.1154 C 247.46656,1013.1102 248.67219,1013.5796 250.0375,1012.3545 C 251.60004,1011.4009 253.19253,1010.4982 254.69903,1009.4564 C 256.15285,1008.1068 257.65066,1006.8013 258.85477,1005.2073 C 259.80761,1004.2644 260.70995,1003.268 261.81284,1002.4964 L 257.18207,992.8739 z "
                   style="opacity:0.01000001;fill:#fcef3c;fill-opacity:1;stroke:#000000;stroke-width:3.00000143;stroke-miterlimit:4;stroke-dasharray:none;stroke-opacity:1;display:inline"
                   id="path1952" />
                <g
                   transform="matrix(-0.795463,-0.606002,-0.606002,0.795463,811.8474,412.0752)"
                   style="fill:#fcef3c;fill-opacity:1;stroke:#000000;stroke-width:3.00000167;stroke-miterlimit:4;stroke-dasharray:none;stroke-opacity:1"
                   id="g7438">
                  <path
                     d="M 133.93996,681.40468 L 104.57912,719.53344 C 104.57912,719.53344 98.33157,725.62423 106.80463,732.14885 C 115.27768,738.67348 119.49498,730.50019 119.49498,730.50019 L 149.10677,692.04554 C 149.10677,692.04554 153.79983,685.27686 146.63032,679.75602 C 139.4608,674.23518 133.93996,681.40468 133.93996,681.40468 z "
                     style="fill:#fcef3c;fill-opacity:1;fill-rule:evenodd;stroke:#000000;stroke-width:3.00000167;stroke-linecap:butt;stroke-linejoin:miter;stroke-miterlimit:4;stroke-dasharray:none;stroke-opacity:1"
                     id="path1964" />
                  <path
                     d="M 104.22095,719.8715 C 104.22095,719.8715 88.59008,698.32809 99.17019,683.50601 C 109.98601,668.35372 134.52553,680.47556 134.52553,680.47556 L 104.22095,719.8715 z "
                     style="fill:#fcef3c;fill-opacity:1;fill-rule:evenodd;stroke:#000000;stroke-width:3.00000167;stroke-linecap:butt;stroke-linejoin:miter;stroke-miterlimit:4;stroke-dasharray:none;stroke-opacity:1"
                     id="path1966" />
                </g>
                <g
                   transform="matrix(-0.795463,-0.606002,-0.606002,0.795463,742.6738,519.8756)"
                   style="fill:#fcef3c;fill-opacity:1;stroke:#000000;stroke-width:3.00000167;stroke-miterlimit:4;stroke-dasharray:none;stroke-opacity:1;display:inline"
                   id="g7442">
                  <g
                     transform="matrix(-3.191847e-2,-0.99949,0.99949,-3.191847e-2,-545.3843,867.0029)"
                     style="fill:#fcef3c;fill-opacity:1;stroke:#000000;stroke-width:3.0000031;stroke-miterlimit:4;stroke-dasharray:none;stroke-opacity:1"
                     id="g7454">
                    <path
                       d="M 133.93996,681.40468 L 104.57912,719.53344 C 104.57912,719.53344 98.33157,725.62423 106.80463,732.14885 C 115.27768,738.67348 119.49498,730.50019 119.49498,730.50019 L 149.10677,692.04554 C 149.10677,692.04554 153.79983,685.27686 146.63032,679.75602 C 139.4608,674.23518 133.93996,681.40468 133.93996,681.40468 z "
                       style="fill:#fcef3c;fill-opacity:1;fill-rule:evenodd;stroke:#000000;stroke-width:3.0000031;stroke-linecap:butt;stroke-linejoin:miter;stroke-miterlimit:4;stroke-dasharray:none;stroke-opacity:1"
                       id="path7444" />
                    <path
                       d="M 104.22095,719.8715 C 104.22095,719.8715 88.59008,698.32809 99.17019,683.50601 C 109.98601,668.35372 134.52553,680.47556 134.52553,680.47556 L 104.22095,719.8715 z "
                       style="fill:#fcef3c;fill-opacity:1;fill-rule:evenodd;stroke:#000000;stroke-width:3.0000031;stroke-linecap:butt;stroke-linejoin:miter;stroke-miterlimit:4;stroke-dasharray:none;stroke-opacity:1"
                       id="path7446" />
                  </g>
                </g>
                <g
                   transform="matrix(0.779176,0.626804,0.626804,-0.779176,-458.3038,1366.039)"
                   style="fill:#fcef3c;fill-opacity:1;stroke:#000000;stroke-width:3.00000381;stroke-miterlimit:4;stroke-dasharray:none;stroke-opacity:1;display:inline"
                   id="g7448">
                  <path
                     d="M 133.93996,681.40468 L 104.57912,719.53344 C 104.57912,719.53344 98.33157,725.62423 106.80463,732.14885 C 115.27768,738.67348 119.49498,730.50019 119.49498,730.50019 L 149.10677,692.04554 C 149.10677,692.04554 153.79983,685.27686 146.63032,679.75602 C 139.4608,674.23518 133.93996,681.40468 133.93996,681.40468 z "
                     style="fill:#fcef3c;fill-opacity:1;fill-rule:evenodd;stroke:#000000;stroke-width:3.00000381;stroke-linecap:butt;stroke-linejoin:miter;stroke-miterlimit:4;stroke-dasharray:none;stroke-opacity:1"
                     id="path7450" />
                  <path
                     d="M 104.22095,719.8715 C 104.22095,719.8715 88.59008,698.32809 99.17019,683.50601 C 109.98601,668.35372 134.52553,680.47556 134.52553,680.47556 L 104.22095,719.8715 z "
                     style="fill:#fcef3c;fill-opacity:1;fill-rule:evenodd;stroke:#000000;stroke-width:3.00000381;stroke-linecap:butt;stroke-linejoin:miter;stroke-miterlimit:4;stroke-dasharray:none;stroke-opacity:1"
                     id="path7452" />
                </g>
                <path
                   d="M 206.74065,807.30474 L 158.62732,808.28875 C 158.62732,808.28875 150.01682,809.69903 149.79816,799.00718 C 149.57949,788.31533 158.66008,789.7752 158.66008,789.7752 L 207.18464,788.7828 C 207.18464,788.7828 215.41756,789.02581 215.60258,798.07275 C 215.7876,807.11972 206.74065,807.30474 206.74065,807.30474 z "
                   style="fill:#fcef3c;fill-opacity:1;fill-rule:evenodd;stroke:#000000;stroke-width:3.00000143;stroke-linecap:butt;stroke-linejoin:miter;stroke-miterlimit:4;stroke-dasharray:none;stroke-opacity:1;display:inline"
                   id="path7472" />
                <path
                   d="M 205.25524,111.39015 C 205.25524,111.39015 202.89769,93.951067 185.42959,93.413311 C 167.96149,92.875556 166.62561,115.1628 166.62561,115.1628 L 163.98772,789.50315 L 204.07694,788.94496 L 205.25524,111.39015 z "
                   style="fill:#fcef3c;fill-opacity:1;fill-rule:evenodd;stroke:#000000;stroke-width:3.00000143;stroke-linecap:butt;stroke-linejoin:miter;stroke-miterlimit:4;stroke-dasharray:none;stroke-opacity:1"
                   id="path7552" />
                <path
                   d="M 166.01232,234.8604 L 149.63058,234.77623 L 150.55122,280.41772 L 151.35925,281.0333 L 70.09807,280.42188 L 69.51933,249.33336 L 97.45285,249.54353 L 97.25971,234.71107 L 69.32617,234.50091 L 69.17123,214.58962 L 116.70827,215.04887 L 117.54911,235.59224 L 129.15625,234.7479 L 129.09755,215.54842 L 146.7772,214.97037 L 146.29537,198.0025 L 128.9235,198.17655 L 128.78768,175.72585 L 117.61044,176.14967 L 116.84201,197.273 L 69.80523,197.83332 L 68.9576,175.47886 L 97.29514,175.99682 L 97.10199,161.16437 L 69.57248,161.26198 L 69.5902,131.90484 L 149.52401,133.42051 L 150.21878,176.09027 L 166.16705,176.10868 L 166.01232,234.8604 z "
                   style="fill:#fcef3c;fill-opacity:1;fill-rule:evenodd;stroke:#000000;stroke-width:3.00000143;stroke-linecap:butt;stroke-linejoin:miter;stroke-miterlimit:4;stroke-dasharray:none;stroke-opacity:1"
                   id="path7554" />
              </g>
            </g>
          </g>
        </g>
      </g>
    </g>
  </g>
  <g
     inkscape:groupmode="layer"
     id="layer2"
     inkscape:label="Reflet final"
     sodipodi:insensitive="true">
    <path
       sodipodi:nodetypes="cccccc"
       d="M 300.00001,658.5 C 300.00001,658.5 598.50001,546.17969 598.50001,260.72817 C 598.50001,-24.723334 598.50001,2.1764865 598.50001,2.1764865 L 1.5,2.1764865 L 1.5,260.72817 C 1.5,546.17969 300.00001,658.5 300.00001,658.5 z "
       style="opacity:1;fill:url(#radialGradient3163);fill-opacity:1;fill-rule:evenodd;stroke:none;stroke-width:1px;stroke-linecap:butt;stroke-linejoin:miter;stroke-opacity:1"
       id="path2875"
       inkscape:export-xdpi="144"
       inkscape:export-ydpi="144" />
  </g>
  <g
     inkscape:groupmode="layer"
     id="layer1"
     inkscape:label="Contour final"
     sodipodi:insensitive="true">
    <path
       sodipodi:nodetypes="cccccc"
       d="M 299.99999,658.50028 C 299.99999,658.50028 1.5,546.17992 1.5,260.72828 C 1.5,-24.723336 1.5,2.1764957 1.5,2.1764957 L 598.49999,2.1764957 L 598.49999,260.72828 C 598.49999,546.17992 299.99999,658.50028 299.99999,658.50028 z "
       style="opacity:1;fill:none;fill-opacity:1;fill-rule:evenodd;stroke:#000000;stroke-width:3.00000048;stroke-linecap:butt;stroke-linejoin:miter;stroke-miterlimit:4;stroke-dasharray:none;stroke-opacity:1"
       id="path1411"
       inkscape:export-xdpi="144"
       inkscape:export-ydpi="144" />
  </g>
</svg>
