<?xml version="1.0" encoding="UTF-8" standalone="no"?>
<svg
   xmlns:dc="http://purl.org/dc/elements/1.1/"
   xmlns:cc="http://creativecommons.org/ns#"
   xmlns:rdf="http://www.w3.org/1999/02/22-rdf-syntax-ns#"
   xmlns:svg="http://www.w3.org/2000/svg"
   xmlns="http://www.w3.org/2000/svg"
   xmlns:xlink="http://www.w3.org/1999/xlink"
   xmlns:sodipodi="http://sodipodi.sourceforge.net/DTD/sodipodi-0.dtd"
   xmlns:inkscape="http://www.inkscape.org/namespaces/inkscape"
   height="660"
   width="600"
   version="1.0"
   id="svg2"
   sodipodi:version="0.32"
   inkscape:version="0.46"
   sodipodi:docname="Blason_ville_fr_Bibiche_(Moselle).svg"
   sodipodi:docbase="C:\Users\Augustin\Documents\heral"
   inkscape:export-filename="/Users/Augustin/Documents/temp/tyty.png"
   inkscape:export-xdpi="144"
   inkscape:export-ydpi="144"
   inkscape:output_extension="org.inkscape.output.svg.inkscape">
  <metadata
     id="metadata49">
    <rdf:RDF>
      <cc:Work
         rdf:about="">
        <dc:format>image/svg+xml</dc:format>
        <dc:type
           rdf:resource="http://purl.org/dc/dcmitype/StillImage" />
        <dc:title>Gabarit d'un blason en pointe pour le projet Blasons de Wikipédia</dc:title>
        <dc:date>03-AUG-2006</dc:date>
        <dc:creator>
          <cc:Agent>
            <dc:title>Jérôme BLUM (wagner51)</dc:title>
          </cc:Agent>
        </dc:creator>
        <cc:license
           rdf:resource="http://web.resource.org/cc/PublicDomain" />
        <dc:language>fr</dc:language>
        <dc:subject>
          <rdf:Bag>
            <rdf:li>gabarit modèle blason projet wikipédia</rdf:li>
          </rdf:Bag>
        </dc:subject>
      </cc:Work>
      <cc:License
         rdf:about="http://web.resource.org/cc/PublicDomain">
        <cc:permits
           rdf:resource="http://web.resource.org/cc/Reproduction" />
        <cc:permits
           rdf:resource="http://web.resource.org/cc/Distribution" />
        <cc:permits
           rdf:resource="http://web.resource.org/cc/DerivativeWorks" />
      </cc:License>
    </rdf:RDF>
  </metadata>
  <sodipodi:namedview
     inkscape:window-height="750"
     inkscape:window-width="1280"
     inkscape:pageshadow="2"
     inkscape:pageopacity="0.0"
     guidetolerance="10.0"
     gridtolerance="10.0"
     objecttolerance="10.0"
     borderopacity="1.0"
     bordercolor="#666666"
     pagecolor="#ffffff"
     id="base"
     showgrid="false"
     height="660px"
     inkscape:zoom="0.84848449"
     inkscape:cx="199.23209"
     inkscape:cy="329.99986"
     inkscape:window-x="-8"
     inkscape:window-y="-8"
     inkscape:current-layer="layer4" />
  <desc
     id="desc4">Flag of Canton of Valais (Wallis)</desc>
  <defs
     id="defs6">
    <inkscape:perspective
       sodipodi:type="inkscape:persp3d"
       inkscape:vp_x="0 : 330 : 1"
       inkscape:vp_y="0 : 1000 : 0"
       inkscape:vp_z="600 : 330 : 1"
       inkscape:persp3d-origin="300 : 220 : 1"
       id="perspective6278" />
    <linearGradient
       id="linearGradient2893">
      <stop
         style="stop-color:white;stop-opacity:0.3137255;"
         offset="0"
         id="stop2895" />
      <stop
         id="stop2897"
         offset="0.19"
         style="stop-color:white;stop-opacity:0.25098041;" />
      <stop
         style="stop-color:#6b6b6b;stop-opacity:0.1254902;"
         offset="0.60000002"
         id="stop2901" />
      <stop
         style="stop-color:black;stop-opacity:0.1254902;"
         offset="1"
         id="stop2899" />
    </linearGradient>
    <radialGradient
       inkscape:collect="always"
       xlink:href="#linearGradient2893"
       id="radialGradient3163"
       gradientUnits="userSpaceOnUse"
       gradientTransform="matrix(1.353218,0,0,1.348928,-77.62935,-85.74693)"
       cx="221.44487"
       cy="226.33101"
       fx="221.44487"
       fy="226.33101"
       r="300" />
    <inkscape:perspective
       id="perspective6801"
       inkscape:persp3d-origin="87.5 : 52.666667 : 1"
       inkscape:vp_z="175 : 79 : 1"
       inkscape:vp_y="0 : 1000 : 0"
       inkscape:vp_x="0 : 79 : 1"
       sodipodi:type="inkscape:persp3d" />
  </defs>
  <g
     inkscape:groupmode="layer"
     id="layer3"
     inkscape:label="Fond écu"
     style="display:inline"
     sodipodi:insensitive="true">
    <path
       id="path2855"
       style="fill:#e20909;fill-opacity:1;fill-rule:evenodd;stroke:none;stroke-width:1px;stroke-linecap:butt;stroke-linejoin:miter;stroke-opacity:1"
       d="M 300,658.5 C 300,658.5 598.50001,546.17969 598.50001,260.72817 C 598.50001,-24.723354 598.50001,2.1764765 598.50001,2.1764765 L 1.5,2.1764765 L 1.5,260.72817 C 1.5,546.17969 300,658.5 300,658.5 z"
       sodipodi:nodetypes="cccccc" />
  </g>
  <g
     inkscape:groupmode="layer"
     id="layer4"
     inkscape:label="Meubles">
    <g
       id="g12149"
       style="fill:#ffffff;fill-opacity:1;stroke:#000000;stroke-width:2.31229472;stroke-miterlimit:4;stroke-dasharray:none;stroke-opacity:1;display:inline"
       transform="matrix(0.8627858,-0.2387979,0.2393986,0.8008432,379.07832,-554.51552)"
       inkscape:transform-center-x="89.224341"
       inkscape:transform-center-y="-0.00042750859">
      <path
         sodipodi:nodetypes="ccczcccscccccscc"
         id="path11243"
         d="M -546.62969,922.58758 C -527.59793,922.81168 -516.79408,925.05831 -499.18728,923.58533 C -460.33012,912.99615 -448.28072,884.28656 -403.95355,883.867 C -346.26865,882.48628 -323.34291,912.08979 -305.11689,943.46596 C -285.64848,976.98093 -308.75449,1010.0605 -282.00198,1050.8987 C -272.82713,1062.5692 -254.54859,1074.3633 -237.84174,1078.2366 C -208.03199,1089.4148 -144.57864,1087.1672 -140.96671,1104.2653 C -145.50374,1137.375 -233.11753,1124.8064 -255.46113,1116.7609 C -290.468,1104.1555 -326.32935,1084.5185 -362.19829,1081.7362 C -367.71423,1063.2437 -379.67553,1064.377 -396.71258,1062.1478 C -430.14034,1063.1942 -464.05352,1050.6485 -498.33195,1027.8761 C -513.45379,1014.3381 -532.39458,1013.0994 -549.75743,1002.9311 C -567.0025,997.31839 -598.0732,985.2979 -599.37993,977.92982 C -610.45129,975.23455 -615.02878,963.99355 -613.04941,956.40824 C -611.57214,950.74707 -605.8428,948.52174 -599.66906,945.85892 C -582.80719,939.0491 -565.66145,922.36348 -546.62969,922.58758 z"
         style="fill:#ffffff;fill-opacity:1;fill-rule:evenodd;stroke:#000000;stroke-width:2.31229472;stroke-linecap:butt;stroke-linejoin:miter;stroke-miterlimit:4;stroke-dasharray:none;stroke-opacity:1" />
      <path
         sodipodi:nodetypes="czzsc"
         id="path11248"
         d="M -536.57216,941.50009 C -537.03515,936.07779 -537.87491,935.10416 -531.60845,932.62496 C -525.34198,930.14575 -522.99876,936.5143 -524.16286,941.50009 C -525.32695,946.48588 -528.35718,943.86673 -529.12658,946.92378 C -529.34268,947.78243 -527.47201,947.5812 -526.64472,947.9099"
         style="fill:#ffffff;fill-opacity:1;fill-rule:evenodd;stroke:#000000;stroke-width:2.31229472;stroke-linecap:butt;stroke-linejoin:miter;stroke-miterlimit:4;stroke-dasharray:none;stroke-opacity:1" />
      <path
         sodipodi:nodetypes="czc"
         id="path11250"
         d="M -531.87299,944.23771 C -531.99497,944.81907 -527.03565,942.76139 -527.98303,939.0235 C -528.94834,935.21488 -532.26006,938.4146 -534.30421,939.0235"
         style="fill:#ffffff;fill-opacity:1;fill-rule:evenodd;stroke:#000000;stroke-width:2.31229472;stroke-linecap:butt;stroke-linejoin:miter;stroke-miterlimit:4;stroke-dasharray:none;stroke-opacity:1" />
      <path
         sodipodi:nodetypes="ccccccccscsccscscccc"
         id="path11252"
         d="M -397.65958,955.53192 C -411.79394,972.02702 -422.14886,991.59106 -429.80159,1011.9358 C -438.64755,1035.4175 -438.92658,1053.079 -415.50414,1065.9014 C -405.67492,1070.6723 -394.11023,1072.7442 -383.18918,1076.0825 C -378.06043,1076.7166 -392.29642,1074.2145 -394.78724,1073.2979 C -405.29874,1069.4442 -416.16315,1065.6038 -420.16563,1069.7705 C -430.59084,1071.0121 -448.56745,1071.9507 -445.5654,1081.0098 C -444.22612,1079.8896 -443.91615,1079.8277 -441.40923,1079.0511 C -440.24562,1079.5896 -438.90621,1079.7906 -437.46528,1079.6518 C -432.27201,1079.1518 -426.96788,1076.5942 -422.23404,1076.8085 C -426.06592,1076.9788 -435.35873,1078.9306 -437.37993,1080.7475 C -439.02676,1082.2279 -439.74145,1084.4427 -442.15811,1088.3694 C -440.26909,1086.7825 -437.16237,1086.0193 -434.00059,1084.9735 C -430.9493,1085.7446 -428.53584,1086.3556 -426.62842,1085.9967 C -421.22602,1084.9803 -419.9973,1083.8861 -417.36117,1081.5015 C -420.20871,1084.3279 -423.86381,1085.2737 -426.56475,1087.1843 C -429.2748,1089.1013 -430.91063,1091.5352 -429.3507,1095.9925 C -426.16832,1092.2391 -412.28547,1090.7817 -406.12719,1083.9434 C -397.17093,1086.1434 -364.55481,1088.2828 -359.78335,1081.0544 C -359.414,1074.0288 -363.30188,1065.6044 -363.82979,1061.4894"
         style="fill:#ffffff;fill-opacity:1;fill-rule:evenodd;stroke:#000000;stroke-width:2.31229472;stroke-linecap:butt;stroke-linejoin:miter;stroke-miterlimit:4;stroke-dasharray:none;stroke-opacity:1" />
      <path
         sodipodi:nodetypes="ccsccssssscscscssssc"
         id="path11255"
         d="M -495.95745,1004.6809 C -502.6776,1019.7008 -501.36923,1028.331 -492.12766,1050.9575 C -490.70145,1056.722 -501.9066,1058.1321 -505.53192,1060.8511 C -509.95457,1064.1681 -513.97039,1060.7266 -519.57447,1062.1277 C -532.50513,1066.1255 -531.94456,1066.049 -534.48432,1071.2087 C -533.16262,1071.7798 -530.90282,1071.4849 -529.15496,1070.2639 C -525.5388,1067.7379 -524.57349,1067.817 -524.08128,1067.911 C -522.37991,1068.2359 -512.46594,1067.9851 -514.46809,1067.8723 C -517.65451,1067.6927 -520.85106,1067.8723 -524.04255,1067.8723 C -526.47924,1067.8723 -526.85192,1068.8473 -529.71216,1071.3618 C -531.15526,1072.6305 -532.11476,1076.9073 -532.11476,1079.2135 C -531.1618,1078.0873 -527.18287,1078.2219 -524.66647,1076.2006 C -523.4167,1075.1967 -521.3442,1073.4863 -520.24485,1072.9367 C -522.09103,1073.764 -523.1052,1074.9238 -523.56394,1076.1385 C -524.72677,1079.2177 -522.32086,1082.6498 -520.85106,1081.9149 C -521.48755,1080.8791 -516.42796,1076.9989 -512.81426,1077.1857 C -508.21243,1077.4236 -504.71564,1076.4729 -501.06383,1077.4468 C -495.98598,1078.801 -495.32129,1075.0187 -490.85106,1074.2553 C -481.9048,1072.7276 -476.31701,1065.4897 -466.27659,1064.3617 C -447.33066,1062.2331 -451.0833,1049.8082 -452.87234,1042.0212"
         style="fill:#ffffff;fill-opacity:1;fill-rule:evenodd;stroke:#000000;stroke-width:2.31229472;stroke-linecap:butt;stroke-linejoin:miter;stroke-miterlimit:4;stroke-dasharray:none;stroke-opacity:1" />
      <path
         sodipodi:nodetypes="cccc"
         id="path11257"
         d="M -607.84653,952.07603 C -607.84653,953.50827 -609.6519,958.0161 -609.6519,961.38611 C -609.53628,967.55253 -612.28369,964.95242 -612.39205,958.94907 C -612.39205,955.52977 -610.58194,955.4953 -607.84653,952.07603 z"
         style="fill:#ffffff;fill-opacity:1;fill-rule:evenodd;stroke:#000000;stroke-width:2.31229472;stroke-linecap:butt;stroke-linejoin:miter;stroke-miterlimit:4;stroke-dasharray:none;stroke-opacity:1" />
      <path
         sodipodi:nodetypes="cssssc"
         id="path11259"
         d="M -598.08511,979.14894 C -592.58027,979.79685 -587.07302,979.78723 -581.48936,979.78723 C -576.45156,979.78723 -576.60729,978.62279 -572.55319,976.59574 C -568.93695,974.78762 -575.73197,979.21102 -577.39518,979.22637 C -581.74811,979.26657 -580.54993,979.67554 -589.11021,979.03942 C -593.50213,978.71305 -591.46045,979.09073 -598.08511,979.14894 z"
         style="fill:#ffffff;fill-opacity:1;fill-rule:evenodd;stroke:#000000;stroke-width:2.31229472;stroke-linecap:butt;stroke-linejoin:miter;stroke-miterlimit:4;stroke-dasharray:none;stroke-opacity:1" />
      <path
         sodipodi:nodetypes="cssssc"
         id="path11261"
         d="M -581.01064,949.94681 C -579.24835,947.801 -576.96599,941.39163 -573.35106,939.57446 C -567.63334,936.70026 -557.4371,940.1131 -554.04255,939.57447 C -552.94651,939.40056 -560.43119,940.08736 -561.22341,941.48936 C -562.24718,943.30116 -559.99569,948.37817 -566.32978,950.10639 C -570.41249,951.22033 -579.5043,949.043 -581.01064,949.94681 z"
         style="fill:#ffffff;fill-opacity:1;fill-rule:evenodd;stroke:#000000;stroke-width:2.31229472;stroke-linecap:butt;stroke-linejoin:miter;stroke-miterlimit:4;stroke-dasharray:none;stroke-opacity:1" />
      <path
         sodipodi:nodetypes="csssc"
         id="path11246"
         d="M -563.11871,943.70887 C -563.11871,946.69858 -566.42826,949.12501 -569.91626,949.12501 C -573.40425,949.12501 -575.11806,947.17731 -575.11806,944.1876 C -575.11806,941.19789 -572.60638,939.40975 -569.11839,939.40975 C -565.63039,939.40975 -563.11871,940.71916 -563.11871,943.70887 z"
         style="fill:#ffffff;fill-opacity:1;stroke:#000000;stroke-width:2.31229472;stroke-miterlimit:4;stroke-dasharray:none;stroke-opacity:1" />
    </g>
    <g
       id="g6804"
       inkscape:label="Calque 1"
       transform="matrix(0.7809648,0,0,0.7809648,27.070787,30.474008)">
      <g
         transform="translate(-191.3618,-117.0945)"
         id="g7233">
        <path
           style="fill:#ffffff;fill-opacity:1;fill-rule:evenodd;stroke:#000000;stroke-width:2.99999833;stroke-linecap:butt;stroke-linejoin:miter;stroke-miterlimit:4;stroke-dasharray:none;stroke-opacity:1"
           d="M 210.61551,124.75033 L 278.92313,216.00528 L 347.25949,124.75033 L 278.92313,124.75033 L 210.61551,124.75033 z"
           id="path1900" />
        <path
           style="fill:#ffffff;fill-opacity:1;fill-rule:evenodd;stroke:#000000;stroke-width:3;stroke-linecap:butt;stroke-linejoin:miter;stroke-miterlimit:4;stroke-dasharray:none;stroke-opacity:1"
           d="M 272.5625,125.21875 C 257.19658,136.91298 242.73369,163.0608 240,170.9375 C 194.61121,176.569 180.98987,208.31114 208.5625,219.5 C 209.21616,215.9628 240.84674,185.42379 244.54099,184.2757 C 240.13735,185.90493 208.49552,216.30868 208.65625,219.5625 C 202.32508,242.82671 215.95091,252.17785 233.9375,250.625 C 236.83859,236.21456 251.45585,205.45338 258.347,197.83049 C 251.61004,206.012 236.69906,236.40682 233.875,251.1875 C 243.81155,272.71129 257.13805,278.74751 278.5625,265.21875 L 278.9375,203.22862 L 279.3125,265.21875 C 300.73695,278.74751 314.03219,272.71129 323.96875,251.1875 C 320.37709,237.94201 305.55099,207.43993 299.528,197.83049 C 304.28159,205.62089 318.75134,234.60829 323.9375,250.625 C 341.92409,252.17785 355.54994,242.82671 349.21875,219.5625 C 348.19525,212.5645 315.92094,183.16314 313.30276,183.65747 C 317.50127,183.19769 349.64716,213.85677 349.3125,219.5 C 376.88513,208.31114 363.2638,176.569 317.875,170.9375 C 315.14131,163.0608 301.23416,136.07938 285.86824,124.38515 C 285.86824,124.38515 281.22599,120.28731 278.9375,121.34375 L 272.5625,125.21875 z"
           id="path2792"
           sodipodi:nodetypes="ccccccccccccccccccccc" />
        <path
           style="fill:none;fill-rule:evenodd;stroke:#000000;stroke-width:1;stroke-linecap:butt;stroke-linejoin:miter;stroke-miterlimit:4;stroke-dasharray:none;stroke-opacity:1"
           d="M 246.70482,177.6338 C 269.83879,189.15241 290.99211,186.80647 311.17019,177.6338"
           id="path3686"
           sodipodi:nodetypes="cc" />
        <path
           style="fill:none;fill-rule:evenodd;stroke:#000000;stroke-width:1;stroke-linecap:butt;stroke-linejoin:miter;stroke-miterlimit:4;stroke-dasharray:none;stroke-opacity:1"
           d="M 223.36391,198.75177 C 258.93101,236.4434 295.98007,238.09807 334.5111,198.75177"
           id="path4573"
           sodipodi:nodetypes="cc" />
      </g>
    </g>
    <use
       x="0"
       y="0"
       xlink:href="#g6804"
       id="use6811"
       transform="translate(196.23222,0)"
       width="600"
       height="660" />
    <use
       height="660"
       width="600"
       transform="translate(392.46446,0)"
       id="use6813"
       xlink:href="#g6804"
       y="0"
       x="0" />
  </g>
  <g
     inkscape:groupmode="layer"
     id="layer2"
     inkscape:label="Reflet final"
     sodipodi:insensitive="true">
    <path
       sodipodi:nodetypes="cccccc"
       d="M 300.00001,658.5 C 300.00001,658.5 598.50001,546.17969 598.50001,260.72817 C 598.50001,-24.723334 598.50001,2.1764865 598.50001,2.1764865 L 1.5,2.1764865 L 1.5,260.72817 C 1.5,546.17969 300.00001,658.5 300.00001,658.5 z "
       style="opacity:1;fill:url(#radialGradient3163);fill-opacity:1;fill-rule:evenodd;stroke:none;stroke-width:1px;stroke-linecap:butt;stroke-linejoin:miter;stroke-opacity:1"
       id="path2875"
       inkscape:export-xdpi="144"
       inkscape:export-ydpi="144" />
  </g>
  <g
     inkscape:groupmode="layer"
     id="layer1"
     inkscape:label="Contour final"
     sodipodi:insensitive="true">
    <path
       sodipodi:nodetypes="cccccc"
       d="M 299.99999,658.50028 C 299.99999,658.50028 1.5,546.17992 1.5,260.72828 C 1.5,-24.723336 1.5,2.1764957 1.5,2.1764957 L 598.49999,2.1764957 L 598.49999,260.72828 C 598.49999,546.17992 299.99999,658.50028 299.99999,658.50028 z "
       style="opacity:1;fill:none;fill-opacity:1;fill-rule:evenodd;stroke:#000000;stroke-width:3.00000048;stroke-linecap:butt;stroke-linejoin:miter;stroke-miterlimit:4;stroke-dasharray:none;stroke-opacity:1"
       id="path1411"
       inkscape:export-xdpi="144"
       inkscape:export-ydpi="144" />
  </g>
</svg>
