<?xml version="1.0" encoding="UTF-8" standalone="no"?>
<svg
   xmlns:dc="http://purl.org/dc/elements/1.1/"
   xmlns:cc="http://creativecommons.org/ns#"
   xmlns:rdf="http://www.w3.org/1999/02/22-rdf-syntax-ns#"
   xmlns:svg="http://www.w3.org/2000/svg"
   xmlns="http://www.w3.org/2000/svg"
   xmlns:xlink="http://www.w3.org/1999/xlink"
   xmlns:sodipodi="http://sodipodi.sourceforge.net/DTD/sodipodi-0.dtd"
   xmlns:inkscape="http://www.inkscape.org/namespaces/inkscape"
   height="660"
   width="600"
   version="1.0"
   id="svg2"
   sodipodi:version="0.32"
   inkscape:version="0.46"
   sodipodi:docname="Blason_ville_fr_Veauville-lès-Quelles_(Seine-Maritime).svg"
   sodipodi:docbase="D:\Mes documents\Renaud-Notre Lapin"
   inkscape:export-filename="/Users/olivier/Desktop/Blason Rouge/Blason_Vide_3D.png"
   inkscape:export-xdpi="144"
   inkscape:export-ydpi="144"
   inkscape:output_extension="org.inkscape.output.svg.inkscape">
  <metadata
     id="metadata49">
    <rdf:RDF>
      <cc:Work
         rdf:about="">
        <dc:format>image/svg+xml</dc:format>
        <dc:type
           rdf:resource="http://purl.org/dc/dcmitype/StillImage" />
        <dc:title>Gabarit d'un blason en pointe pour le projet Blasons de Wikipédia</dc:title>
        <dc:date>03-AUG-2006</dc:date>
        <dc:creator>
          <cc:Agent>
            <dc:title>Jérôme BLUM (wagner51)</dc:title>
          </cc:Agent>
        </dc:creator>
        <cc:license
           rdf:resource="http://web.resource.org/cc/PublicDomain" />
        <dc:language>fr</dc:language>
        <dc:subject>
          <rdf:Bag>
            <rdf:li>gabarit modèle blason projet wikipédia</rdf:li>
          </rdf:Bag>
        </dc:subject>
      </cc:Work>
      <cc:License
         rdf:about="http://web.resource.org/cc/PublicDomain">
        <cc:permits
           rdf:resource="http://web.resource.org/cc/Reproduction" />
        <cc:permits
           rdf:resource="http://web.resource.org/cc/Distribution" />
        <cc:permits
           rdf:resource="http://web.resource.org/cc/DerivativeWorks" />
      </cc:License>
    </rdf:RDF>
  </metadata>
  <sodipodi:namedview
     inkscape:window-height="975"
     inkscape:window-width="1280"
     inkscape:pageshadow="2"
     inkscape:pageopacity="0.0"
     guidetolerance="10.0"
     gridtolerance="10.0"
     objecttolerance="10.0"
     borderopacity="1.0"
     bordercolor="#666666"
     pagecolor="#ffffff"
     id="base"
     showgrid="false"
     height="660px"
     inkscape:zoom="1.1590904"
     inkscape:cx="300.00013"
     inkscape:cy="330.00014"
     inkscape:window-x="-4"
     inkscape:window-y="-4"
     inkscape:current-layer="layer4"
     inkscape:object-nodes="false"
     inkscape:object-paths="true" />
  <desc
     id="desc4">Flag of Canton of Valais (Wallis)</desc>
  <defs
     id="defs6">
    <linearGradient
       id="linearGradient2893">
      <stop
         style="stop-color:white;stop-opacity:0.3137255;"
         offset="0"
         id="stop2895" />
      <stop
         id="stop2897"
         offset="0.19"
         style="stop-color:white;stop-opacity:0.25098041;" />
      <stop
         style="stop-color:#6b6b6b;stop-opacity:0.1254902;"
         offset="0.60000002"
         id="stop2901" />
      <stop
         style="stop-color:black;stop-opacity:0.1254902;"
         offset="1"
         id="stop2899" />
    </linearGradient>
    <radialGradient
       inkscape:collect="always"
       xlink:href="#linearGradient2893"
       id="radialGradient3163"
       gradientUnits="userSpaceOnUse"
       gradientTransform="matrix(1.353218,0,0,1.348928,-77.62935,-85.74693)"
       cx="221.44487"
       cy="226.33101"
       fx="221.44487"
       fy="226.33101"
       r="300" />
    <g
       id="s-4">
      <g
         id="c-6">
        <path
           transform="matrix(0.951057,0.309017,-0.309017,0.951057,0,-1)"
           d="M 0,0 L 0,1 L 0.5,1 L 0,0 z"
           id="t-0" />
        <use
           height="540"
           width="810"
           y="0"
           x="0"
           id="use2144-7"
           transform="scale(-1,1)"
           xlink:href="#t-0" />
      </g>
      <g
         id="a-1">
        <use
           height="540"
           width="810"
           y="0"
           x="0"
           id="use2147-7"
           transform="matrix(0.309017,0.951057,-0.951057,0.309017,0,0)"
           xlink:href="#c-6" />
        <use
           height="540"
           width="810"
           y="0"
           x="0"
           id="use2149-7"
           transform="matrix(-0.809017,0.587785,-0.587785,-0.809017,0,0)"
           xlink:href="#c-6" />
      </g>
      <use
         height="540"
         width="810"
         y="0"
         x="0"
         id="use2151-7"
         transform="scale(-1,1)"
         xlink:href="#a-1" />
    </g>
    <g
       id="f">
      <rect
         id="rect1964"
         style="fill:#28166f"
         y="-30"
         x="-50"
         height="60"
         width="100" />
      <g
         id="g1966"
         style="fill:#ffffff"
         transform="translate(0,-20)">
        <path
           id="path1968"
           d="M -1.2116,27.8178 C -1.2116,22.1752 -2.0914,20.4715 -4.5417,13.9804 C -5.709,10.8879 -5.0241,7.1025 -2.8585,3.6009 C -2.0824,2.346 -1.1136,1.2135 0,0 C 1.1136,1.2135 2.0824,2.346 2.8585,3.6009 C 5.0241,7.1025 5.709,10.8879 4.5417,13.9804 C 2.0914,20.4715 1.2116,22.1752 1.2116,27.8178 L -1.2116,27.8178 z" />
        <path
           id="rwi"
           d="M 2.9221,27.6725 C 2.9221,21.7209 5.2387,17.8293 8.5007,16.6604 C 9.9492,16.1414 11.8076,16.3869 13.5193,18.107 C 15.6379,20.236 16.2551,26.1004 10.0355,27.2283 C 10.6938,26.2724 10.6546,24.1467 9.3215,23.4409 C 8.3311,22.9165 7.209,23.1877 6.6462,23.5643 C 5.8225,24.1156 4.9171,25.6702 4.9672,27.6725 L 2.9221,27.6725 z" />
        <path
           id="path1971"
           d="M 1.7773,30.1835 C 1.7899,32.1913 2.7952,33.5181 4.5165,34.257 C 4.2948,34.9549 3.2566,36.3776 1.8314,36.2812 C 1.5499,37.787 1.2822,38.6324 0,40 C -1.2822,38.6324 -1.5499,37.787 -1.8314,36.2812 C -3.2566,36.3776 -4.2948,34.9549 -4.5165,34.257 C -2.7952,33.5181 -1.7899,32.1913 -1.7773,30.1835 L 1.7773,30.1835 z" />
        <use
           xlink:href="#rwi"
           height="400"
           width="800"
           y="0"
           x="0"
           id="use1973"
           transform="scale(-1,1)" />
        <rect
           id="rect1975"
           y="27.33077"
           x="-7.9229999"
           height="3.2179999"
           width="15.846" />
      </g>
    </g>
    <g
       id="s">
      <g
         id="c">
        <path
           transform="matrix(0.951057,0.309017,-0.309017,0.951057,0,-1)"
           d="M 0,0 L 0,1 L 0.5,1 L 0,0 z"
           id="t" />
        <use
           height="540"
           width="810"
           y="0"
           x="0"
           id="use2144"
           transform="scale(-1,1)"
           xlink:href="#t" />
      </g>
      <g
         id="a">
        <use
           height="540"
           width="810"
           y="0"
           x="0"
           id="use2147"
           transform="matrix(0.309017,0.951057,-0.951057,0.309017,0,0)"
           xlink:href="#c" />
        <use
           height="540"
           width="810"
           y="0"
           x="0"
           id="use2149"
           transform="matrix(-0.809017,0.587785,-0.587785,-0.809017,0,0)"
           xlink:href="#c" />
      </g>
      <use
         height="540"
         width="810"
         y="0"
         x="0"
         id="use2151"
         transform="scale(-1,1)"
         xlink:href="#a" />
    </g>
  </defs>
  <g
     inkscape:groupmode="layer"
     id="layer3"
     inkscape:label="Fond écu"
     style="display:inline">
    <path
       id="path2855"
       style="fill:#5ab532;fill-opacity:1;fill-rule:evenodd;stroke:none;stroke-width:1px;stroke-linecap:butt;stroke-linejoin:miter;stroke-opacity:1"
       d="M 300,658.5 C 300,658.5 598.50001,546.17969 598.50001,260.72817 C 598.50001,-24.723354 598.50001,2.1764765 598.50001,2.1764765 L 1.5,2.1764765 L 1.5,260.72817 C 1.5,546.17969 300,658.5 300,658.5 z"
       sodipodi:nodetypes="cccccc" />
    <g
       id="g3714"
       transform="translate(212.95033,-619.1589)" />
    <g
       id="layer9"
       inkscape:label="Fond d'écu"
       transform="translate(212.95033,-619.1589)">
      <g
         transform="matrix(2,0,0,2,-732.89186,-1853.1884)"
         inkscape:label="Meubles"
         id="g2807" />
      <g
         transform="matrix(2,0,0,2,1696.9763,-413.55025)"
         inkscape:label="Meubles"
         id="g4626" />
      <g
         id="g5271"
         inkscape:label="Meubles"
         transform="matrix(2,0,0,2,-732.89213,-453.18787)" />
      <g
         id="g5273"
         inkscape:label="Reflet final"
         transform="matrix(2,0,0,2,-732.89213,-453.18787)" />
      <g
         id="g5275"
         inkscape:label="Contour final"
         transform="matrix(2,0,0,2,-732.89213,-453.18787)" />
    </g>
    <g
       id="layer6"
       inkscape:label="Reflet final"
       transform="translate(212.95033,-619.1589)" />
    <g
       id="layer5"
       inkscape:label="Contour final"
       transform="translate(212.95033,-619.1589)" />
  </g>
  <g
     inkscape:groupmode="layer"
     id="layer4"
     inkscape:label="Meubles">
    <g
       id="g4788"
       transform="translate(5.009903,2.974294)">
      <path
         d="M 300.61346,300.5984 C 300.75592,294.4028 302.28858,288.64445 305.14242,283.18754 C 312.61386,267.46896 335.43446,267.84437 330.40394,287.06867 C 328.55026,294.15261 322.25308,298.31606 314.77206,299.03017 C 315.31202,297.16363 318.28209,290.56493 315.8845,289.27402 C 312.05069,289.41885 307.29007,296.04453 306.14522,299.20409 C 305.97995,299.6577 306.02618,300.18189 305.84164,300.62809"
         style="fill:#fcef3c;fill-opacity:1;fill-rule:evenodd;stroke:#000000;stroke-width:2;stroke-linecap:butt;stroke-linejoin:miter;stroke-miterlimit:4;stroke-dasharray:none;stroke-opacity:1;display:inline"
         id="path1876"
         sodipodi:nodetypes="ccscscc" />
      <path
         d="M 291.10963,301.008 C 290.96717,294.8124 289.43452,289.05406 286.58067,283.59714 C 279.10923,267.87856 256.28864,268.25397 261.31915,287.47827 C 263.17284,294.56221 269.47001,298.72566 276.95104,299.43978 C 276.41108,297.57324 273.44101,290.97453 275.83859,289.68362 C 279.67241,289.82846 284.43303,296.45413 285.57787,299.61369 C 285.74314,300.0673 285.69691,300.59149 285.88146,301.0377"
         style="fill:#fcef3c;fill-opacity:1;fill-rule:evenodd;stroke:#000000;stroke-width:2;stroke-linecap:butt;stroke-linejoin:miter;stroke-miterlimit:4;stroke-dasharray:none;stroke-opacity:1"
         id="path1902"
         sodipodi:nodetypes="ccscscc" />
      <path
         d="M 295.41993,240.9828 C 287.5485,249.46774 282.26347,259.27895 284.54181,270.78592 C 285.79876,277.13431 288.84599,283.01389 290.99493,289.12967 C 292.33858,292.96666 292.68215,296.97485 292.52305,301.0078 L 299.20118,301.0078 C 298.88153,296.94518 299.58185,293.00797 300.72931,289.12967 C 302.77672,282.97584 305.89188,277.13912 307.18243,270.78592 C 309.59523,258.908 303.93174,249.94997 296.33868,241.0203 L 295.87464,240.42847 L 295.41993,240.9828 z"
         style="fill:#fcef3c;fill-opacity:1;fill-rule:nonzero;stroke:#000000;stroke-width:2;stroke-linecap:butt;stroke-linejoin:miter;stroke-miterlimit:4;stroke-dasharray:none;stroke-opacity:1"
         id="path3734"
         sodipodi:nodetypes="csccccsccc" />
      <path
         d="M 289.1918,305.71092 C 287.79564,309.62392 282.10299,316.79013 279.07931,318.8328 C 278.29509,319.36258 282.82794,318.52764 284.85743,318.0828 C 287.51933,317.49933 290.97917,314.66304 290.89805,315.66405 C 290.89049,320.24787 292.17916,327.89647 295.53868,331.41092 L 295.85689,331.74968 L 296.18556,331.41092 C 299.54332,327.49383 300.80932,320.60672 300.82618,315.66405 C 300.74506,314.66304 304.2049,317.49933 306.8668,318.0828 C 308.89629,318.52764 313.42915,319.36258 312.64493,318.8328 C 309.62125,316.79013 303.93172,309.62392 302.53555,305.71092 L 289.1918,305.71092 z"
         style="fill:#fcef3c;fill-opacity:1;fill-rule:evenodd;stroke:#000000;stroke-width:2;stroke-linecap:butt;stroke-linejoin:miter;stroke-miterlimit:4;stroke-dasharray:none;stroke-opacity:1"
         id="path6395"
         sodipodi:nodetypes="cssscccssscc" />
      <rect
         width="31.788773"
         height="5.1503344"
         x="279.99255"
         y="300.80875"
         style="fill:#fcef3c;fill-opacity:1;stroke:#000000;stroke-width:2;stroke-miterlimit:4;stroke-dasharray:none;stroke-opacity:1"
         id="rect4623" />
    </g>
    <g
       transform="matrix(-0.5184,0,0,0.9,688.24751,-52.23259)"
       id="g3248"
       style="fill:#fcef3c;stroke:#000000;stroke-width:3.66004348;stroke-miterlimit:4;stroke-dasharray:none;stroke-opacity:1;display:inline">
      <path
         style="opacity:1;fill:#fcef3c;fill-opacity:1;stroke:#000000;stroke-width:2.5;stroke-linecap:butt;stroke-linejoin:round;stroke-miterlimit:4;stroke-dasharray:none;stroke-opacity:1"
         d="M 113.875,28.46875 C 91.991677,28.46875 46.822109,40.130002 46.40625,51.90625 C 46.82211,63.682498 91.991677,75.375001 113.875,75.375 L 179.875,75.375 L 245.90625,75.375 C 267.78956,75.375 312.92789,63.682498 313.34375,51.90625 C 312.92789,40.130002 267.78955,28.46875 245.90625,28.46875 L 179.875,28.46875 L 113.875,28.46875 z M 118.5625,37.5 L 179.875,37.5 L 241.1875,37.5 C 253.17958,37.499999 273.25278,42.233761 273.375,51.90625 C 273.2528,61.578739 253.17958,66.34375 241.1875,66.34375 L 179.875,66.34375 L 118.5625,66.34375 C 106.57041,66.343748 86.497187,61.578739 86.375,51.90625 C 86.497184,42.233761 106.5704,37.5 118.5625,37.5 z"
         transform="matrix(-1.9290123,0,0,1.1111111,1327.3973,142.56732)"
         id="rect2449" />
      <path
         style="opacity:1;fill:#fcef3c;fill-opacity:1;stroke:#000000;stroke-width:3.66004348;stroke-linecap:butt;stroke-linejoin:round;stroke-miterlimit:4;stroke-dasharray:none;stroke-opacity:1"
         d="M 1123.3715,185.78183 L 1123.2188,197.75 L 1105.625,197.90625 L 1100.5625,191.03125 L 824.53125,200.25 L 1100.5625,209.46875 L 1105.625,202.59375 L 1123.2188,202.75 L 1123.2861,214.72845 L 1131.8165,213.51551 C 1146.2213,210.43873 1158.4124,207.22569 1158.4124,202.8125 L 1158.4124,197.6875 C 1158.4124,192.11694 1143.3338,188.96956 1131.7052,186.96606 L 1123.3715,185.78183 z"
         id="path3225"
         sodipodi:nodetypes="ccccccccccsscc" />
      <path
         style="opacity:1;fill:#fcef3c;fill-opacity:1;stroke:#000000;stroke-width:3.66004348;stroke-linecap:butt;stroke-linejoin:round;stroke-miterlimit:4;stroke-dasharray:none;stroke-opacity:1"
         d="M 775.00515,182.05408 L 775.00515,218.51146 L 782.84405,219.62092 L 782.84405,180.80325 L 775.00515,182.05408 z"
         id="path3242"
         sodipodi:nodetypes="ccccc" />
      <path
         sodipodi:nodetypes="ccccc"
         id="path3246"
         d="M 1185.8386,182.05408 L 1185.8386,218.51146 L 1177.9997,219.62092 L 1177.9997,180.80325 L 1185.8386,182.05408 z"
         style="opacity:1;fill:#fcef3c;fill-opacity:1;stroke:#000000;stroke-width:3.66004348;stroke-linecap:butt;stroke-linejoin:round;stroke-miterlimit:4;stroke-dasharray:none;stroke-opacity:1" />
    </g>
    <use
       x="0"
       y="0"
       xlink:href="#g3248"
       id="use5736"
       transform="translate(230,320)"
       width="600"
       height="660" />
    <g
       id="g5746">
      <rect
         transform="matrix(-0.6883546,-0.7253743,0.7253743,-0.6883546,0,0)"
         style="fill:#ffffff;fill-opacity:1;stroke:#000000;stroke-width:2.50000009;stroke-linecap:butt;stroke-linejoin:round;stroke-miterlimit:4;stroke-dasharray:none;stroke-opacity:1;display:inline"
         id="rect4815"
         width="106.00001"
         height="15.000001"
         x="-469.51288"
         y="60.741501" />
      <rect
         y="-39.258503"
         x="-469.51288"
         height="15.000001"
         width="106.00001"
         id="rect4817"
         style="fill:#ffffff;fill-opacity:1;stroke:#000000;stroke-width:2.50000009;stroke-linecap:butt;stroke-linejoin:round;stroke-miterlimit:4;stroke-dasharray:none;stroke-opacity:1;display:inline"
         transform="matrix(-0.6883546,-0.7253743,0.7253743,-0.6883546,0,0)" />
      <rect
         y="160.74152"
         x="-469.51288"
         height="15.000001"
         width="106.00001"
         id="rect4821"
         style="fill:#ffffff;fill-opacity:1;stroke:#000000;stroke-width:2.50000009;stroke-linecap:butt;stroke-linejoin:round;stroke-miterlimit:4;stroke-dasharray:none;stroke-opacity:1;display:inline"
         transform="matrix(-0.6883546,-0.7253743,0.7253743,-0.6883546,0,0)" />
      <rect
         transform="matrix(-0.6883546,-0.7253743,0.7253743,-0.6883546,0,0)"
         style="fill:#ffffff;fill-opacity:1;stroke:#000000;stroke-width:2.50000009;stroke-linecap:butt;stroke-linejoin:round;stroke-miterlimit:4;stroke-dasharray:none;stroke-opacity:1;display:inline"
         id="rect4823"
         width="106.00001"
         height="15.000001"
         x="-469.51288"
         y="260.74152" />
      <rect
         y="360.74152"
         x="-469.51288"
         height="15.000001"
         width="106.00001"
         id="rect4825"
         style="fill:#ffffff;fill-opacity:1;stroke:#000000;stroke-width:2.50000009;stroke-linecap:butt;stroke-linejoin:round;stroke-miterlimit:4;stroke-dasharray:none;stroke-opacity:1;display:inline"
         transform="matrix(-0.6883546,-0.7253743,0.7253743,-0.6883546,0,0)" />
      <rect
         transform="matrix(-0.6883546,-0.7253743,0.7253743,-0.6883546,0,0)"
         style="fill:#ffffff;fill-opacity:1;stroke:#000000;stroke-width:2.50000009;stroke-linecap:butt;stroke-linejoin:round;stroke-miterlimit:4;stroke-dasharray:none;stroke-opacity:1;display:inline"
         id="rect4827"
         width="106.00001"
         height="15.000001"
         x="-469.51288"
         y="-139.25851" />
      <rect
         y="-239.25851"
         x="-469.51288"
         height="15.000001"
         width="106.00001"
         id="rect4829"
         style="fill:#ffffff;fill-opacity:1;stroke:#000000;stroke-width:2.50000009;stroke-linecap:butt;stroke-linejoin:round;stroke-miterlimit:4;stroke-dasharray:none;stroke-opacity:1;display:inline"
         transform="matrix(-0.6883546,-0.7253743,0.7253743,-0.6883546,0,0)" />
      <path
         id="path5738"
         d="M 598.5 79.3125 L 117.59375 535.6875 C 121.83776 540.0256 126.10157 544.25328 130.40625 548.34375 L 598.5 104.125 C 598.5 101.09892 598.5 80.669782 598.5 79.3125 z "
         style="display:inline;fill:#ffffff;fill-opacity:1;fill-rule:evenodd;stroke:#000000;stroke-width:2.5;stroke-linecap:butt;stroke-linejoin:miter;stroke-opacity:1;stroke-miterlimit:4;stroke-dasharray:none" />
      <path
         id="path5742"
         d="M 499.65625 2.1875 L 43.65625 434.90625 C 46.539209 440.44482 49.528131 445.87506 52.625 451.1875 L 525.8125 2.1875 L 499.65625 2.1875 z "
         style="display:inline;fill:#ffffff;fill-opacity:1;fill-rule:evenodd;stroke:#000000;stroke-width:2.5;stroke-linecap:butt;stroke-linejoin:miter;stroke-opacity:1;stroke-miterlimit:4;stroke-dasharray:none" />
    </g>
  </g>
  <g
     inkscape:groupmode="layer"
     id="layer2"
     inkscape:label="Reflet final"
     sodipodi:insensitive="true">
    <path
       sodipodi:nodetypes="cccccc"
       d="M 300.00001,658.5 C 300.00001,658.5 598.50001,546.17969 598.50001,260.72817 C 598.50001,-24.723334 598.50001,2.1764865 598.50001,2.1764865 L 1.5,2.1764865 L 1.5,260.72817 C 1.5,546.17969 300.00001,658.5 300.00001,658.5 z "
       style="opacity:1;fill:url(#radialGradient3163);fill-opacity:1;fill-rule:evenodd;stroke:none;stroke-width:1px;stroke-linecap:butt;stroke-linejoin:miter;stroke-opacity:1"
       id="path2875"
       inkscape:export-xdpi="144"
       inkscape:export-ydpi="144" />
  </g>
  <g
     inkscape:groupmode="layer"
     id="layer1"
     inkscape:label="Contour final"
     sodipodi:insensitive="true">
    <path
       sodipodi:nodetypes="cccccc"
       d="M 299.99999,658.50028 C 299.99999,658.50028 1.5,546.17992 1.5,260.72828 C 1.5,-24.723336 1.5,2.1764957 1.5,2.1764957 L 598.49999,2.1764957 L 598.49999,260.72828 C 598.49999,546.17992 299.99999,658.50028 299.99999,658.50028 z "
       style="opacity:1;fill:none;fill-opacity:1;fill-rule:evenodd;stroke:#000000;stroke-width:3.00000048;stroke-linecap:butt;stroke-linejoin:miter;stroke-miterlimit:4;stroke-dasharray:none;stroke-opacity:1"
       id="path1411"
       inkscape:export-xdpi="144"
       inkscape:export-ydpi="144" />
  </g>
</svg>
