<?xml version="1.0" encoding="UTF-8" standalone="no"?>
<!-- Created with Inkscape (http://www.inkscape.org/) -->
<svg
   xmlns:dc="http://purl.org/dc/elements/1.1/"
   xmlns:cc="http://web.resource.org/cc/"
   xmlns:rdf="http://www.w3.org/1999/02/22-rdf-syntax-ns#"
   xmlns:svg="http://www.w3.org/2000/svg"
   xmlns="http://www.w3.org/2000/svg"
   xmlns:xlink="http://www.w3.org/1999/xlink"
   xmlns:sodipodi="http://sodipodi.sourceforge.net/DTD/sodipodi-0.dtd"
   xmlns:inkscape="http://www.inkscape.org/namespaces/inkscape"
   version="1.0"
   width="600"
   height="660"
   id="svg2"
   style="display:inline"
   sodipodi:version="0.32"
   inkscape:version="0.44.1"
   sodipodi:docname="Oberhergheim (68).svg"
   sodipodi:docbase="C:\Documents and Settings\Propriétaire\Mes documents\image blason\Blason du 68 à envoyer">
  <metadata
     id="metadata25">
    <rdf:RDF>
      <cc:Work
         rdf:about="">
        <dc:format>image/svg+xml</dc:format>
        <dc:type
           rdf:resource="http://purl.org/dc/dcmitype/StillImage" />
      </cc:Work>
    </rdf:RDF>
  </metadata>
  <sodipodi:namedview
     inkscape:window-height="712"
     inkscape:window-width="1024"
     inkscape:pageshadow="2"
     inkscape:pageopacity="0.0"
     guidetolerance="10.0"
     gridtolerance="10.0"
     objecttolerance="10.0"
     borderopacity="1.0"
     bordercolor="#666666"
     pagecolor="#ffffff"
     id="base"
     inkscape:zoom="0.57121212"
     inkscape:cx="300"
     inkscape:cy="330"
     inkscape:window-x="-4"
     inkscape:window-y="-4"
     inkscape:current-layer="layer7" />
  <desc
     id="desc4">Blason Vide 3D</desc>
  <defs
     id="defs6">
    <linearGradient
       id="linearGradient2893">
      <stop
         id="stop2895"
         style="stop-color:#ffffff;stop-opacity:0.3137255"
         offset="0" />
      <stop
         id="stop2897"
         style="stop-color:#ffffff;stop-opacity:0.25098041"
         offset="0.19" />
      <stop
         id="stop2901"
         style="stop-color:#6b6b6b;stop-opacity:0.1254902"
         offset="0.60000002" />
      <stop
         id="stop2899"
         style="stop-color:#000000;stop-opacity:0.1254902"
         offset="1" />
    </linearGradient>
    <radialGradient
       cx="221.44487"
       cy="226.33101"
       r="300"
       fx="221.44487"
       fy="226.33101"
       id="radialGradient3163"
       xlink:href="#linearGradient2893"
       gradientUnits="userSpaceOnUse"
       gradientTransform="matrix(1.353218,0,0,1.348928,-77.62935,-85.74693)" />
    <radialGradient
       inkscape:collect="always"
       xlink:href="#linearGradient2893"
       id="radialGradient1893"
       gradientUnits="userSpaceOnUse"
       gradientTransform="matrix(1.353218,0,0,1.348928,-77.62935,-85.74693)"
       cx="221.44487"
       cy="226.33101"
       fx="221.44487"
       fy="226.33101"
       r="300" />
  </defs>
  <g
     id="layer3"
     style="display:inline" />
  <g
     inkscape:groupmode="layer"
     id="layer6"
     inkscape:label="Font d'écu"
     sodipodi:insensitive="true">
    <path
       d="M 299.99999,658.50001 C 299.99999,658.50001 598.5,546.1797 598.5,260.72818 C 598.5,-24.723344 598.5,2.1764868 598.5,2.1764868 L 1.499995,2.1764868 L 1.499995,260.72818 C 1.499995,546.1797 299.99999,658.50001 299.99999,658.50001 z "
       id="path2855"
       style="fill:white;fill-opacity:1;fill-rule:evenodd;stroke:none;stroke-width:1px;stroke-linecap:butt;stroke-linejoin:miter;stroke-opacity:1;display:inline" />
  </g>
  <g
     id="layer1"
     style="display:inline" />
  <g
     inkscape:groupmode="layer"
     id="layer4"
     inkscape:label="Fasce"
     sodipodi:insensitive="true">
    <g
       id="layer94"
       style="fill:#e20909;display:inline">
      <g
         id="layer20"
         style="fill:#e20909;display:inline">
        <path
           d="M 598.497,223.5 L 1.5,223.5 C 1.5,234.824 1.5,246.738 1.5,259.23 C 1.5,300.958 7.879,338.985 18.771,373.503 L 581.227,373.503 C 592.119,338.985 598.498,300.958 598.498,259.23 L 598.498,223.5"
           id="fasce"
           style="fill:#e20909;fill-opacity:1;stroke:#313131;stroke-width:3;stroke-opacity:1" />
      </g>
    </g>
  </g>
  <g
     inkscape:groupmode="layer"
     id="layer7"
     inkscape:label="Tourteaux"
     style="opacity:1"
     sodipodi:insensitive="true">
    <g
       id="layer123"
       style="display:inline">
      <path
         d="M 220,60 C 220,82.09139 202.09139,100 180,100 C 157.90861,100 140,82.09139 140,60 C 140,37.90861 157.90861,20 180,20 C 202.09139,20 220,37.90861 220,60 L 220,60 z "
         transform="matrix(1.975,0,0,1.975,-55.5,369)"
         id="path3022"
         style="fill:#e20909;fill-opacity:1;fill-rule:nonzero;stroke:black;stroke-width:1.01265824;stroke-linecap:round;stroke-linejoin:round;stroke-miterlimit:4;stroke-dasharray:none;stroke-opacity:1" />
      <path
         d="M 220,60 C 220,82.09139 202.09139,100 180,100 C 157.90861,100 140,82.09139 140,60 C 140,37.90861 157.90861,20 180,20 C 202.09139,20 220,37.90861 220,60 L 220,60 z "
         transform="matrix(1.975,0,0,1.975,-205.5,-6)"
         id="path5237"
         style="fill:#e20909;fill-opacity:1;fill-rule:nonzero;stroke:black;stroke-width:1.01265824;stroke-linecap:round;stroke-linejoin:round;stroke-miterlimit:4;stroke-dasharray:none;stroke-opacity:1" />
      <path
         d="M 220,60 C 220,82.09139 202.09139,100 180,100 C 157.90861,100 140,82.09139 140,60 C 140,37.90861 157.90861,20 180,20 C 202.09139,20 220,37.90861 220,60 L 220,60 z "
         transform="matrix(1.975,0,0,1.975,94.5,-6)"
         id="path5239"
         style="fill:#e20909;fill-opacity:1;fill-rule:nonzero;stroke:black;stroke-width:1.01265824;stroke-linecap:round;stroke-linejoin:round;stroke-miterlimit:4;stroke-dasharray:none;stroke-opacity:1" />
    </g>
  </g>
  <g
     inkscape:groupmode="layer"
     id="layer2"
     inkscape:label="Reflet Final"
     sodipodi:insensitive="true"
     style="display:inline">
    <g
       id="g1890"
       style="display:inline">
      <path
         d="M 300.00001,658.5 C 300.00001,658.5 598.50001,546.17969 598.50001,260.72817 C 598.50001,-24.723334 598.50001,2.1764865 598.50001,2.1764865 L 1.5,2.1764865 L 1.5,260.72817 C 1.5,546.17969 300.00001,658.5 300.00001,658.5 z "
         id="path2875"
         style="opacity:1;fill:url(#radialGradient1893);fill-opacity:1;fill-rule:evenodd;stroke:none;stroke-width:1px;stroke-linecap:butt;stroke-linejoin:miter;stroke-opacity:1" />
    </g>
  </g>
  <g
     inkscape:groupmode="layer"
     id="layer5"
     inkscape:label="Contour Final"
     sodipodi:insensitive="true">
    <path
       d="M 299.99999,658.50014 C 299.99999,658.50014 1.500005,546.17978 1.500005,260.72814 C 1.500005,-24.723475 1.500005,2.1763562 1.500005,2.1763562 L 598.49999,2.1763562 L 598.49999,260.72814 C 598.49999,546.17978 299.99999,658.50014 299.99999,658.50014 z "
       id="path1411"
       style="opacity:1;fill:none;fill-opacity:1;fill-rule:evenodd;stroke:black;stroke-width:3.00000048;stroke-linecap:butt;stroke-linejoin:miter;stroke-miterlimit:4;stroke-dasharray:none;stroke-opacity:1;display:inline" />
  </g>
</svg>
