<?xml version="1.0" encoding="UTF-8" standalone="no"?>
<svg
   xmlns:dc="http://purl.org/dc/elements/1.1/"
   xmlns:cc="http://creativecommons.org/ns#"
   xmlns:rdf="http://www.w3.org/1999/02/22-rdf-syntax-ns#"
   xmlns:svg="http://www.w3.org/2000/svg"
   xmlns="http://www.w3.org/2000/svg"
   xmlns:xlink="http://www.w3.org/1999/xlink"
   xmlns:sodipodi="http://sodipodi.sourceforge.net/DTD/sodipodi-0.dtd"
   xmlns:inkscape="http://www.inkscape.org/namespaces/inkscape"
   height="660.00031"
   width="600.00299"
   version="1.0"
   id="svg2"
   sodipodi:version="0.32"
   inkscape:version="0.48.2 r9819"
   sodipodi:docname="Saint-Quentin-la-Poterie (30).svg"
   inkscape:export-filename="/Users/olivier/Desktop/Blason Rouge/Blason_Vide_3D.png"
   inkscape:export-xdpi="144"
   inkscape:export-ydpi="144"
   inkscape:output_extension="org.inkscape.output.svg.inkscape">
  <metadata
     id="metadata49">
    <rdf:RDF>
      <cc:Work
         rdf:about="">
        <dc:format>image/svg+xml</dc:format>
        <dc:type
           rdf:resource="http://purl.org/dc/dcmitype/StillImage" />
        <dc:title />
        <dc:date />
        <dc:creator>
          <cc:Agent>
            <dc:title />
          </cc:Agent>
        </dc:creator>
        <cc:license
           rdf:resource="http://web.resource.org/cc/PublicDomain" />
        <dc:language>fr</dc:language>
        <dc:subject>
          <rdf:Bag />
        </dc:subject>
      </cc:Work>
      <cc:License
         rdf:about="http://web.resource.org/cc/PublicDomain">
        <cc:permits
           rdf:resource="http://web.resource.org/cc/Reproduction" />
        <cc:permits
           rdf:resource="http://web.resource.org/cc/Distribution" />
        <cc:permits
           rdf:resource="http://web.resource.org/cc/DerivativeWorks" />
      </cc:License>
    </rdf:RDF>
  </metadata>
  <sodipodi:namedview
     inkscape:window-height="712"
     inkscape:window-width="1024"
     inkscape:pageshadow="2"
     inkscape:pageopacity="0.0"
     guidetolerance="10.0"
     gridtolerance="10.0"
     objecttolerance="10.0"
     borderopacity="1.0"
     bordercolor="#666666"
     pagecolor="#ffffff"
     id="base"
     showgrid="false"
     height="660px"
     inkscape:zoom="0.80000001"
     inkscape:cx="343.36237"
     inkscape:cy="334.24434"
     inkscape:window-x="0"
     inkscape:window-y="22"
     inkscape:current-layer="layer4"
     showguides="true"
     inkscape:guide-bbox="true"
     inkscape:window-maximized="0">
    <inkscape:grid
       type="xygrid"
       id="grid2399" />
  </sodipodi:namedview>
  <desc
     id="desc4">Flag of Canton of Valais (Wallis)</desc>
  <defs
     id="defs6">
    <linearGradient
       id="linearGradient2893">
      <stop
         style="stop-color:white;stop-opacity:0.3137255;"
         offset="0"
         id="stop2895" />
      <stop
         id="stop2897"
         offset="0.19"
         style="stop-color:white;stop-opacity:0.25098041;" />
      <stop
         style="stop-color:#6b6b6b;stop-opacity:0.1254902;"
         offset="0.60000002"
         id="stop2901" />
      <stop
         style="stop-color:black;stop-opacity:0.1254902;"
         offset="1"
         id="stop2899" />
    </linearGradient>
    <radialGradient
       r="300"
       fy="200.44757"
       fx="285.18573"
       cy="200.44757"
       cx="285.18573"
       gradientTransform="matrix(1.551284,0,0,1.350335,-152.89433,151.09881)"
       gradientUnits="userSpaceOnUse"
       id="radialGradient11919"
       xlink:href="#linearGradient2893"
       inkscape:collect="always" />
  </defs>
  <g
     inkscape:groupmode="layer"
     id="layer3"
     inkscape:label="Fond écu"
     style="display:inline"
     transform="translate(-2.0595148,1.2525328e-6)">
    <g
       id="g18530"
       inkscape:label="Calque 1"
       transform="translate(-72.94043,-202.36204)"
       style="fill:#fcef3c">
      <g
         style="fill:#fcef3c;stroke:none;display:inline"
         id="g4195"
         inkscape:label="Calque 1"
         transform="translate(2.5e-6,2.6171874e-6)">
        <path
           sodipodi:nodetypes="cssccccssc"
           d="M 374.99998,860.86234 C 374.99998,822.35824 406.20317,791.10862 444.64998,791.10862 C 483.09679,791.10862 565.40315,791.10862 603.84996,791.10862 C 642.29676,791.10862 673.50005,759.859 673.50005,721.355 L 673.50005,203.86202 L 76.499955,203.86204 L 76.499945,721.355 C 76.499945,759.859 107.70316,791.10862 146.14996,791.10862 C 184.59679,791.10862 266.90317,791.10862 305.34998,791.10862 C 343.79678,791.10862 374.99998,822.35824 374.99998,860.86234 z"
           style="fill:#fcef3c;fill-opacity:1;fill-rule:nonzero;stroke:none;stroke-width:3.00000190999999990;stroke-linecap:round;stroke-linejoin:round;stroke-miterlimit:4;stroke-dasharray:none;stroke-dashoffset:0;stroke-opacity:1;display:inline"
           id="path4197" />
      </g>
    </g>
    <g
       id="g6940"
       transform="translate(2.0595148,3.0392325e-4)"
       style="fill:#ffffff">
      <g
         style="opacity:1;fill:#ffffff;display:inline"
         inkscape:label="Fond écu"
         id="g6942" />
      <g
         inkscape:label="Meubles"
         id="g6946"
         style="fill:#ffffff" />
      <g
         inkscape:label="Reflet final"
         id="g6948"
         style="fill:#ffffff" />
      <g
         inkscape:label="Contour final"
         id="g6950"
         style="fill:#ffffff" />
    </g>
    <g
       transform="translate(927.05957,-202.36204)"
       inkscape:label="Calque 1"
       id="g8763">
      <g
         transform="translate(2.5e-6,2.6171874e-6)"
         inkscape:label="Calque 1"
         id="g8765"
         style="fill:#fcef3c;stroke:none;display:inline" />
    </g>
    <g
       style="fill:#e20909;stroke:#5ab532;display:none"
       id="g8775"
       transform="translate(1001.5585,-0.8866961)">
      <g
         style="fill:#e20909;stroke:#5ab532;display:inline"
         id="g8777"
         transform="matrix(0.4322873,0,0,0.4332117,137.58128,209.86369)">
        <g
           style="fill:#e20909;fill-opacity:1;stroke:#5ab532"
           id="g8779">
          <path
             style="fill:#e20909;fill-opacity:1;fill-rule:evenodd;stroke:#5ab532;stroke-width:3;stroke-linecap:round;stroke-linejoin:round;stroke-miterlimit:4;stroke-dasharray:none;stroke-opacity:1"
             id="path8781"
             d="M 377.12803,135.62208 C 363.02661,205.73306 336.73998,255.37403 308.18363,291.06095 C 320.05424,287.49883 333.39868,277.37136 346.30099,268.51112 C 338.41058,286.89606 330.52017,302.95607 322.62976,319.17879 C 327.34089,317.4313 342.29073,301.0571 362.59516,277.03346 C 365.77841,310.06027 370.08215,347.25496 376.51201,369.64909 C 381.63098,347.29082 385.41835,310.2849 389.48097,276.30682 C 401.72195,291.50121 413.61062,306.87175 430.17301,319.90544 L 406.92042,267.5871 C 418.92697,275.98511 432.19471,287.10163 444.92715,291.7876 C 414.7385,254.31996 389.31682,205.74061 377.12803,135.62208 z" />
          <path
             style="fill:#e20909;fill-opacity:1;fill-rule:evenodd;stroke:#5ab532;stroke-width:3;stroke-linecap:round;stroke-linejoin:round;stroke-miterlimit:4;stroke-dasharray:none;stroke-opacity:1"
             id="path8783"
             d="M 319.72318,139.69782 C 318.42725,135.61998 300.18538,148.67252 290.12817,121.31047 C 314.11958,148.89422 338.90845,92.268711 358.96194,130.25146 C 365.15076,145.92197 338.0398,173.11186 319.72318,139.69782 z" />
          <path
             style="fill:#e20909;fill-opacity:1;fill-rule:evenodd;stroke:#5ab532;stroke-width:3;stroke-linecap:round;stroke-linejoin:round;stroke-miterlimit:4;stroke-dasharray:none;stroke-opacity:1;display:inline"
             id="path8785"
             d="M 431.71563,139.34811 C 433.01156,135.27027 451.25343,148.32281 461.31064,120.96076 C 437.31923,148.54451 412.53036,91.919 392.47687,129.90175 C 386.28805,145.57226 413.39901,172.76215 431.71563,139.34811 z" />
          <path
             style="fill:#e20909;fill-opacity:1;fill-rule:evenodd;stroke:#5ab532;stroke-width:3;stroke-linecap:round;stroke-linejoin:round;stroke-miterlimit:4;stroke-dasharray:none;stroke-opacity:1;display:inline"
             id="path8787"
             d="M 383.38239,79.374824 C 379.68544,77.220552 396.40299,62.265328 371.89381,46.481478 C 393.57969,75.912309 332.91037,87.751712 365.60384,115.60792 C 379.5469,125.06613 411.99605,104.53936 383.38239,79.374824 z" />
        </g>
      </g>
    </g>
    <g
       id="g8799"
       style="fill:#e20909;fill-opacity:1;stroke:#e20909;display:none"
       transform="matrix(0.4322873,0,0,0.4332117,1139.1398,448.97699)">
      <path
         d="M 377.12803,135.62208 C 363.02661,205.73306 336.73998,255.37403 308.18363,291.06095 C 320.05424,287.49883 333.39868,277.37136 346.30099,268.51112 C 338.41058,286.89606 330.52017,302.95607 322.62976,319.17879 C 327.34089,317.4313 342.29073,301.0571 362.59516,277.03346 C 365.77841,310.06027 370.08215,347.25496 376.51201,369.64909 C 381.63098,347.29082 385.41835,310.2849 389.48097,276.30682 C 401.72195,291.50121 413.61062,306.87175 430.17301,319.90544 L 406.92042,267.5871 C 418.92697,275.98511 432.19471,287.10163 444.92715,291.7876 C 414.7385,254.31996 389.31682,205.74061 377.12803,135.62208 z"
         id="path8801"
         style="fill:#e20909;fill-opacity:1;fill-rule:evenodd;stroke:#e20909;stroke-width:3;stroke-linecap:round;stroke-linejoin:round;stroke-miterlimit:4;stroke-dasharray:none;stroke-opacity:1" />
      <path
         d="M 319.72318,139.69782 C 318.42725,135.61998 300.18538,148.67252 290.12817,121.31047 C 314.11958,148.89422 338.90845,92.268711 358.96194,130.25146 C 365.15076,145.92197 338.0398,173.11186 319.72318,139.69782 z"
         id="path8803"
         style="fill:#e20909;fill-opacity:1;fill-rule:evenodd;stroke:#e20909;stroke-width:3;stroke-linecap:round;stroke-linejoin:round;stroke-miterlimit:4;stroke-dasharray:none;stroke-opacity:1" />
      <path
         d="M 431.71563,139.34811 C 433.01156,135.27027 451.25343,148.32281 461.31064,120.96076 C 437.31923,148.54451 412.53036,91.919 392.47687,129.90175 C 386.28805,145.57226 413.39901,172.76215 431.71563,139.34811 z"
         id="path8805"
         style="fill:#e20909;fill-opacity:1;fill-rule:evenodd;stroke:#e20909;stroke-width:3;stroke-linecap:round;stroke-linejoin:round;stroke-miterlimit:4;stroke-dasharray:none;stroke-opacity:1;display:inline" />
      <path
         d="M 383.38239,79.374824 C 379.68544,77.220552 396.40299,62.265328 371.89381,46.481478 C 393.57969,75.912309 332.91037,87.751712 365.60384,115.60792 C 379.5469,125.06613 411.99605,104.53936 383.38239,79.374824 z"
         id="path8807"
         style="fill:#e20909;fill-opacity:1;fill-rule:evenodd;stroke:#e20909;stroke-width:3;stroke-linecap:round;stroke-linejoin:round;stroke-miterlimit:4;stroke-dasharray:none;stroke-opacity:1;display:inline" />
    </g>
  </g>
  <g
     inkscape:groupmode="layer"
     id="layer4"
     inkscape:label="Meubles"
     transform="translate(-2.0595148,1.2525328e-6)"
     style="display:inline">
    <g
       id="g8323"
       transform="matrix(1.4769883,0,0,1.2316083,409.1489,-68.131765)"
       style="fill:#552200;stroke:#000000;stroke-width:1.48287714;stroke-opacity:1">
      <path
         id="path8319"
         style="fill:#552200;stroke:#000000;stroke-width:1.48287714;stroke-opacity:1"
         d="M -76.011401,313.55521 C -74.487291,314.86628 -70.740371,315.08725 -69.216261,313.77618 C -67.692151,312.46511 -67.195091,310.02121 -68.109281,308.33342 C -68.358521,292.76057 -69.195711,258.78946 -67.702761,243.11485 L -67.128701,204.70794 C -66.866911,201.92373 -66.586791,197.69106 -66.506231,195.30203 C -66.425681,192.913 -66.240011,188.88343 -66.093641,186.34743 C -65.947281,183.81143 -65.882561,180.78332 -65.949841,179.61832 C -66.017121,178.45332 -65.920441,175.44323 -65.734991,172.92924 C -65.549541,170.41525 -65.384591,166.54972 -65.368411,164.33917 C -65.032471,156.76534 -65.205301,154.54023 -61.114031,151.78974 C -58.063891,151.24108 -55.025811,144.85518 -54.359321,136.66097 C -53.536401,126.54357 -56.186691,113.89641 -59.618191,111.56558 C -62.588431,107.17665 -78.670361,102.49071 -85.830451,111.56558 C -89.261951,113.89641 -91.912241,126.54357 -91.089321,136.66097 C -90.422831,144.85518 -87.384751,151.24108 -84.334611,151.78974 C -80.243341,154.54023 -80.416171,156.76534 -80.080231,164.33917 C -80.064051,166.54972 -79.899101,170.41525 -79.713651,172.92924 C -79.528201,175.44323 -79.431521,178.45332 -79.498801,179.61832 C -79.566081,180.78332 -79.501361,183.81143 -79.355001,186.34743 C -79.208631,188.88343 -79.022961,192.913 -78.942411,195.30203 C -78.861851,197.69106 -78.581731,201.92373 -78.319941,204.70794 L -77.745881,243.11485 C -76.252931,258.78946 -76.869141,292.5396 -77.118381,308.11245 C -78.032571,309.80024 -77.535511,312.24414 -76.011401,313.55521 z"
         sodipodi:nodetypes="cccccssssccsccsccsssscccc" />
      <path
         sodipodi:nodetypes="ccccssc"
         d="M -60.240701,135.85899 C -59.681321,128.98167 -61.482851,120.38476 -63.815421,118.80038 C -65.834441,115.817 -76.766151,112.63172 -81.633221,118.80038 C -83.965791,120.38476 -85.767321,128.98167 -85.207941,135.85899 C -84.162491,141.89534 -81.909401,146.05129 -79.141711,148.38117 C -75.473911,151.46876 -70.902381,151.34939 -67.040111,148.14947 C -64.152471,145.75703 -61.661291,141.64259 -60.240701,135.85899 z"
         style="fill:#552200;stroke:#000000;stroke-width:1.48287714;stroke-opacity:1"
         id="path8321" />
      <path
         sodipodi:nodetypes="ccccccc"
         d="M -76.011401,313.55521 C -74.487291,314.86628 -70.740371,315.08725 -69.216261,313.77618 C -67.692151,312.46511 -67.195091,310.02121 -68.109281,308.33342 C -68.358521,292.76057 -69.195711,258.78946 -67.702761,243.11485 L -77.745881,243.11485 C -76.252931,258.78946 -76.869141,292.5396 -77.118381,308.11245 C -78.032571,309.80024 -77.535511,312.24414 -76.011401,313.55521 z"
         style="fill:#2b1100;stroke:#000000;stroke-width:1.48287714;stroke-opacity:1"
         id="path8331" />
    </g>
    <g
       id="g8283"
       transform="translate(-7.1232515,-7.6998038)"
       style="fill:#552200">
      <g
         id="g8205"
         style="fill:#552200">
        <g
           id="g8184"
           transform="matrix(-0.3902498,0.4297104,-0.4297104,-0.3902498,123.63531,729.93026)"
           inkscape:transform-center-x="-44.653936"
           inkscape:transform-center-y="-91.125664"
           style="fill:#552200;stroke:#000000;stroke-width:3.4454813">
          <path
             sodipodi:nodetypes="csccsssccssssssssccsssscccc"
             d="M -935.18743,112.86536 C -938.75196,108.89063 -950.86244,110.21606 -963.47754,116.65445 C -979.05344,124.60395 -995.19462,139.93417 -995.50603,147.07374 L -995.23641,150.08252 C -995.23641,152.23774 -986.81231,173.41535 -982.73211,181.51767 C -978.37921,190.16126 -968.58511,205.01048 -963.59031,210.53907 C -959.01151,215.60731 -951.54001,220.30853 -944.47441,222.56721 C -934.60881,225.721 -924.11091,224.87929 -917.73641,220.4234 L -793.63447,138.34971 C -793.14396,139.0289 -763.35844,118.41591 -751.22641,109.00131 C -744.38646,103.69343 -733.67646,95.722958 -727.4264,91.289148 C -714.2823,81.964678 -685.90391,64.729788 -682.23641,63.844158 C -679.19307,63.109238 -676.23641,60.667398 -676.23641,58.888878 C -676.23641,57.042968 -681.96703,50.729338 -684.32047,49.982388 C -687.62162,48.934638 -691.65398,50.417628 -693.30082,53.285118 C -694.2903,55.007988 -697.78163,57.468248 -702.80082,59.979528 C -707.16539,62.163288 -711.41141,64.488588 -712.23641,65.146868 C -715.01328,67.362578 -745.57113,81.201298 -766.23641,89.601818 L -825.88491,118.93595 C -830.20321,121.07177 -836.66141,124.49153 -840.23641,126.53541 C -843.81141,128.57929 -849.88641,131.95371 -853.73641,134.03412 C -857.58641,136.11453 -862.08391,138.75998 -863.73081,139.91288 C -865.37771,141.06578 -869.87771,143.64805 -873.73081,145.65126 C -877.58391,147.65446 -883.39971,150.91079 -886.65481,152.88753 C -892.98619,156.26716 -903.46517,164.70432 -907.54211,154.67714 C -911.19071,146.40757 -924.82121,125.14989 -930.84271,118.33857 L -935.18743,112.86536 z"
             style="fill:#552200;stroke:#000000;stroke-width:3.4454813"
             id="path8179" />
          <path
             style="fill:#552200;stroke:#000000;stroke-width:3.4454813"
             d="M -994.92326,150.50252 C -971.9138,147.24011 -951.08035,137.51532 -935.96426,118.28393 L -933.77436,115.08807 L -930.52956,118.75857"
             id="path8175"
             sodipodi:nodetypes="cccc" />
          <path
             style="fill:#552200;stroke:#000000;stroke-width:3.4454813"
             d="M -986.9239,139.82354 C -986.9239,135.25875 -975.83671,125.02648 -964.92391,119.51995 C -954.27751,114.14786 -943.92391,113.53042 -943.92391,118.26761 C -943.92391,119.19611 -946.66741,122.56639 -950.02051,125.75714 C -958.00761,133.35738 -972.72121,140.72212 -981.13401,141.33065 C -986.328,141.70635 -986.9239,141.55122 -986.9239,139.82354 z"
             id="path8181" />
        </g>
        <g
           inkscape:transform-center-y="-92.95273"
           inkscape:transform-center-x="-37.815652"
           transform="matrix(-0.3529814,0.4608146,-0.4608146,-0.3529814,136.52034,693.93879)"
           id="g8189"
           style="fill:#552200;stroke:#000000;stroke-width:3.44548106">
          <path
             id="path8191"
             style="fill:#552200;stroke:#000000;stroke-width:3.44548106"
             d="M -935.18743,112.86536 C -938.75196,108.89063 -950.86244,110.21606 -963.47754,116.65445 C -979.05344,124.60395 -995.19462,139.93417 -995.50603,147.07374 L -995.23641,150.08252 C -995.23641,152.23774 -986.81231,173.41535 -982.73211,181.51767 C -978.37921,190.16126 -968.58511,205.01048 -963.59031,210.53907 C -959.01151,215.60731 -951.54001,220.30853 -944.47441,222.56721 C -934.60881,225.721 -924.11091,224.87929 -917.73641,220.4234 L -793.63447,138.34971 C -793.14396,139.0289 -763.35844,118.41591 -751.22641,109.00131 C -744.38646,103.69343 -733.67646,95.722958 -727.4264,91.289148 C -714.2823,81.964678 -685.90391,64.729788 -682.23641,63.844158 C -679.19307,63.109238 -676.23641,60.667398 -676.23641,58.888878 C -676.23641,57.042968 -681.96703,50.729338 -684.32047,49.982388 C -687.62162,48.934638 -691.65398,50.417628 -693.30082,53.285118 C -694.2903,55.007988 -697.78163,57.468248 -702.80082,59.979528 C -707.16539,62.163288 -711.41141,64.488588 -712.23641,65.146868 C -715.01328,67.362578 -745.57113,81.201298 -766.23641,89.601818 L -825.88491,118.93595 C -830.20321,121.07177 -836.66141,124.49153 -840.23641,126.53541 C -843.81141,128.57929 -849.88641,131.95371 -853.73641,134.03412 C -857.58641,136.11453 -862.08391,138.75998 -863.73081,139.91288 C -865.37771,141.06578 -869.87771,143.64805 -873.73081,145.65126 C -877.58391,147.65446 -883.39971,150.91079 -886.65481,152.88753 C -892.98619,156.26716 -903.46517,164.70432 -907.54211,154.67714 C -911.19071,146.40757 -924.82121,125.14989 -930.84271,118.33857 L -935.18743,112.86536 z"
             sodipodi:nodetypes="csccsssccssssssssccsssscccc" />
          <path
             sodipodi:nodetypes="cccc"
             id="path8193"
             d="M -994.92326,150.50252 C -971.9138,147.24011 -951.08035,137.51532 -935.96426,118.28393 L -933.77436,115.08807 L -930.52956,118.75857"
             style="fill:#552200;stroke:#000000;stroke-width:3.44548106" />
          <path
             id="path8195"
             d="M -986.9239,139.82354 C -986.9239,135.25875 -975.83671,125.02648 -964.92391,119.51995 C -954.27751,114.14786 -943.92391,113.53042 -943.92391,118.26761 C -943.92391,119.19611 -946.66741,122.56639 -950.02051,125.75714 C -958.00761,133.35738 -972.72121,140.72212 -981.13401,141.33065 C -986.328,141.70635 -986.9239,141.55122 -986.9239,139.82354 z"
             style="fill:#552200;stroke:#000000;stroke-width:3.44548106" />
        </g>
        <g
           id="g8197"
           transform="matrix(-0.3529814,0.4608146,-0.4608146,-0.3529814,113.53937,639.13802)"
           inkscape:transform-center-x="-37.815652"
           inkscape:transform-center-y="-92.95273"
           style="fill:#552200;stroke:#000000;stroke-width:3.44548106">
          <path
             sodipodi:nodetypes="csccsssccssssssssccsssscccc"
             d="M -935.18743,112.86536 C -938.75196,108.89063 -950.86244,110.21606 -963.47754,116.65445 C -979.05344,124.60395 -995.19462,139.93417 -995.50603,147.07374 L -995.23641,150.08252 C -995.23641,152.23774 -986.81231,173.41535 -982.73211,181.51767 C -978.37921,190.16126 -968.58511,205.01048 -963.59031,210.53907 C -959.01151,215.60731 -951.54001,220.30853 -944.47441,222.56721 C -934.60881,225.721 -924.11091,224.87929 -917.73641,220.4234 L -793.63447,138.34971 C -793.14396,139.0289 -763.35844,118.41591 -751.22641,109.00131 C -744.38646,103.69343 -733.67646,95.722958 -727.4264,91.289148 C -714.2823,81.964678 -685.90391,64.729788 -682.23641,63.844158 C -679.19307,63.109238 -676.23641,60.667398 -676.23641,58.888878 C -676.23641,57.042968 -681.96703,50.729338 -684.32047,49.982388 C -687.62162,48.934638 -691.65398,50.417628 -693.30082,53.285118 C -694.2903,55.007988 -697.78163,57.468248 -702.80082,59.979528 C -707.16539,62.163288 -711.41141,64.488588 -712.23641,65.146868 C -715.01328,67.362578 -745.57113,81.201298 -766.23641,89.601818 L -825.88491,118.93595 C -830.20321,121.07177 -836.66141,124.49153 -840.23641,126.53541 C -843.81141,128.57929 -849.88641,131.95371 -853.73641,134.03412 C -857.58641,136.11453 -862.08391,138.75998 -863.73081,139.91288 C -865.37771,141.06578 -869.87771,143.64805 -873.73081,145.65126 C -877.58391,147.65446 -883.39971,150.91079 -886.65481,152.88753 C -892.98619,156.26716 -903.46517,164.70432 -907.54211,154.67714 C -911.19071,146.40757 -924.82121,125.14989 -930.84271,118.33857 L -935.18743,112.86536 z"
             style="fill:#552200;stroke:#000000;stroke-width:3.44548106"
             id="path8199" />
          <path
             style="fill:#552200;stroke:#000000;stroke-width:3.44548106"
             d="M -994.92326,150.50252 C -971.9138,147.24011 -951.08035,137.51532 -935.96426,118.28393 L -933.77436,115.08807 L -930.52956,118.75857"
             id="path8201"
             sodipodi:nodetypes="cccc" />
          <path
             style="fill:#552200;stroke:#000000;stroke-width:3.44548106"
             d="M -986.9239,139.82354 C -986.9239,135.25875 -975.83671,125.02648 -964.92391,119.51995 C -954.27751,114.14786 -943.92391,113.53042 -943.92391,118.26761 C -943.92391,119.19611 -946.66741,122.56639 -950.02051,125.75714 C -958.00761,133.35738 -972.72121,140.72212 -981.13401,141.33065 C -986.328,141.70635 -986.9239,141.55122 -986.9239,139.82354 z"
             id="path8203" />
          <path
             id="path8329"
             style="fill:#2b1100;stroke:#000000;stroke-width:3.44548106"
             d="M -751.22641,109.00131 C -744.38646,103.69343 -733.67646,95.722958 -727.4264,91.289148 C -714.2823,81.964678 -685.90391,64.729788 -682.23641,63.844158 C -679.19307,63.109238 -676.23641,60.667398 -676.23641,58.888878 C -676.23641,57.042968 -681.96703,50.729338 -684.32047,49.982388 C -687.62162,48.934638 -691.65398,50.417628 -693.30082,53.285118 C -694.2903,55.007988 -697.78163,57.468248 -702.80082,59.979528 C -707.16539,62.163288 -711.41141,64.488588 -712.23641,65.146868 C -715.01328,67.362578 -745.57113,81.201298 -766.23641,89.601818 L -751.22641,109.00131 z"
             sodipodi:nodetypes="cssssssscc" />
        </g>
      </g>
      <g
         transform="translate(-10.399997,0)"
         id="g8269"
         style="fill:#552200">
        <g
           style="fill:#552200;stroke:#000000;stroke-width:3.4454813"
           inkscape:transform-center-y="-91.125664"
           inkscape:transform-center-x="-44.653936"
           transform="matrix(0.3902498,0.4297104,0.4297104,-0.3902498,505.13033,729.93026)"
           id="g8221">
          <path
             id="path8223"
             style="fill:#552200;stroke:#000000;stroke-width:3.4454813"
             d="M -935.18743,112.86536 C -938.75196,108.89063 -950.86244,110.21606 -963.47754,116.65445 C -979.05344,124.60395 -995.19462,139.93417 -995.50603,147.07374 L -995.23641,150.08252 C -995.23641,152.23774 -986.81231,173.41535 -982.73211,181.51767 C -978.37921,190.16126 -968.58511,205.01048 -963.59031,210.53907 C -959.01151,215.60731 -951.54001,220.30853 -944.47441,222.56721 C -934.60881,225.721 -924.11091,224.87929 -917.73641,220.4234 L -793.63447,138.34971 C -793.14396,139.0289 -763.35844,118.41591 -751.22641,109.00131 C -744.38646,103.69343 -733.67646,95.722958 -727.4264,91.289148 C -714.2823,81.964678 -685.90391,64.729788 -682.23641,63.844158 C -679.19307,63.109238 -676.23641,60.667398 -676.23641,58.888878 C -676.23641,57.042968 -681.96703,50.729338 -684.32047,49.982388 C -687.62162,48.934638 -691.65398,50.417628 -693.30082,53.285118 C -694.2903,55.007988 -697.78163,57.468248 -702.80082,59.979528 C -707.16539,62.163288 -711.41141,64.488588 -712.23641,65.146868 C -715.01328,67.362578 -745.57113,81.201298 -766.23641,89.601818 L -825.88491,118.93595 C -830.20321,121.07177 -836.66141,124.49153 -840.23641,126.53541 C -843.81141,128.57929 -849.88641,131.95371 -853.73641,134.03412 C -857.58641,136.11453 -862.08391,138.75998 -863.73081,139.91288 C -865.37771,141.06578 -869.87771,143.64805 -873.73081,145.65126 C -877.58391,147.65446 -883.39971,150.91079 -886.65481,152.88753 C -892.98619,156.26716 -903.46517,164.70432 -907.54211,154.67714 C -911.19071,146.40757 -924.82121,125.14989 -930.84271,118.33857 L -935.18743,112.86536 z"
             sodipodi:nodetypes="csccsssccssssssssccsssscccc" />
          <path
             sodipodi:nodetypes="cccc"
             id="path8225"
             d="M -994.92326,150.50252 C -971.9138,147.24011 -951.08035,137.51532 -935.96426,118.28393 L -933.77436,115.08807 L -930.52956,118.75857"
             style="fill:#552200;stroke:#000000;stroke-width:3.4454813" />
          <path
             id="path8227"
             d="M -986.9239,139.82354 C -986.9239,135.25875 -975.83671,125.02648 -964.92391,119.51995 C -954.27751,114.14786 -943.92391,113.53042 -943.92391,118.26761 C -943.92391,119.19611 -946.66741,122.56639 -950.02051,125.75714 C -958.00761,133.35738 -972.72121,140.72212 -981.13401,141.33065 C -986.328,141.70635 -986.9239,141.55122 -986.9239,139.82354 z"
             style="fill:#552200;stroke:#000000;stroke-width:3.4454813" />
        </g>
        <g
           style="fill:#552200;stroke:#000000;stroke-width:3.44548106"
           id="g8229"
           transform="matrix(0.3529814,0.4608146,0.4608146,-0.3529814,492.2453,693.93879)"
           inkscape:transform-center-x="-37.815652"
           inkscape:transform-center-y="-92.95273">
          <path
             sodipodi:nodetypes="csccsssccssssssssccsssscccc"
             d="M -935.18743,112.86536 C -938.75196,108.89063 -950.86244,110.21606 -963.47754,116.65445 C -979.05344,124.60395 -995.19462,139.93417 -995.50603,147.07374 L -995.23641,150.08252 C -995.23641,152.23774 -986.81231,173.41535 -982.73211,181.51767 C -978.37921,190.16126 -968.58511,205.01048 -963.59031,210.53907 C -959.01151,215.60731 -951.54001,220.30853 -944.47441,222.56721 C -934.60881,225.721 -924.11091,224.87929 -917.73641,220.4234 L -793.63447,138.34971 C -793.14396,139.0289 -763.35844,118.41591 -751.22641,109.00131 C -744.38646,103.69343 -733.67646,95.722958 -727.4264,91.289148 C -714.2823,81.964678 -685.90391,64.729788 -682.23641,63.844158 C -679.19307,63.109238 -676.23641,60.667398 -676.23641,58.888878 C -676.23641,57.042968 -681.96703,50.729338 -684.32047,49.982388 C -687.62162,48.934638 -691.65398,50.417628 -693.30082,53.285118 C -694.2903,55.007988 -697.78163,57.468248 -702.80082,59.979528 C -707.16539,62.163288 -711.41141,64.488588 -712.23641,65.146868 C -715.01328,67.362578 -745.57113,81.201298 -766.23641,89.601818 L -825.88491,118.93595 C -830.20321,121.07177 -836.66141,124.49153 -840.23641,126.53541 C -843.81141,128.57929 -849.88641,131.95371 -853.73641,134.03412 C -857.58641,136.11453 -862.08391,138.75998 -863.73081,139.91288 C -865.37771,141.06578 -869.87771,143.64805 -873.73081,145.65126 C -877.58391,147.65446 -883.39971,150.91079 -886.65481,152.88753 C -892.98619,156.26716 -903.46517,164.70432 -907.54211,154.67714 C -911.19071,146.40757 -924.82121,125.14989 -930.84271,118.33857 L -935.18743,112.86536 z"
             style="fill:#552200;stroke:#000000;stroke-width:3.44548106"
             id="path8231" />
          <path
             style="fill:#552200;stroke:#000000;stroke-width:3.44548106"
             d="M -994.92326,150.50252 C -971.9138,147.24011 -951.08035,137.51532 -935.96426,118.28393 L -933.77436,115.08807 L -930.52956,118.75857"
             id="path8233"
             sodipodi:nodetypes="cccc" />
          <path
             style="fill:#552200;stroke:#000000;stroke-width:3.44548106"
             d="M -986.9239,139.82354 C -986.9239,135.25875 -975.83671,125.02648 -964.92391,119.51995 C -954.27751,114.14786 -943.92391,113.53042 -943.92391,118.26761 C -943.92391,119.19611 -946.66741,122.56639 -950.02051,125.75714 C -958.00761,133.35738 -972.72121,140.72212 -981.13401,141.33065 C -986.328,141.70635 -986.9239,141.55122 -986.9239,139.82354 z"
             id="path8235" />
          <path
             id="path8826"
             style="fill:#2b1100;fill-opacity:1;stroke:#000000;stroke-width:3.44548106"
             d="M -781.43972,130.65019 C -771.63889,123.97423 -758.37125,114.54579 -751.22641,109.00131 C -744.38646,103.69343 -733.67646,95.722958 -727.4264,91.289148 C -714.2823,81.964678 -685.90391,64.729788 -682.23641,63.844158 C -679.19307,63.109238 -676.23641,60.667398 -676.23641,58.888878 C -676.23641,57.042968 -681.96703,50.729338 -684.32047,49.982388 C -687.62162,48.934638 -691.65398,50.417628 -693.30082,53.285118 C -694.2903,55.007988 -697.78163,57.468248 -702.80082,59.979528 C -707.16539,62.163288 -711.41141,64.488588 -712.23641,65.146868 C -715.01328,67.362578 -745.57113,81.201298 -766.23641,89.601818 L -799.90908,106.16147 L -781.43972,130.65019 z"
             sodipodi:nodetypes="cssssssssccc" />
          <path
             sodipodi:nodetypes="cssssssssccc"
             d="M -691.41874,248.17188 C -682.42064,240.44796 -669.86215,230.09374 -662.64821,224.63948 C -655.7421,219.41797 -645.25738,211.15338 -639.34881,206.27373 C -626.92288,196.0117 -602.8919,173.10131 -601.08167,169.79103 C -599.5795,167.04411 -596.4519,164.82544 -594.73475,165.28863 C -592.95254,165.76938 -588.34928,172.94657 -588.24104,175.41334 C -588.0892,178.87345 -590.5712,182.38043 -593.76863,183.22362 C -595.68975,183.73025 -598.97439,186.46034 -602.7062,190.65227 C -605.95131,194.29747 -609.3022,197.79135 -610.15262,198.41644 C -613.01508,200.52042 -634.33471,226.41959 -647.82739,244.18387 L -672.58529,272.3817 L -691.41874,248.17188 z"
             style="fill:#2b1100;fill-opacity:1;stroke:#000000;stroke-width:3.44548106"
             id="path8828" />
        </g>
        <g
           style="fill:#552200;stroke:#000000;stroke-width:3.44548106"
           inkscape:transform-center-y="-92.95273"
           inkscape:transform-center-x="-37.815652"
           transform="matrix(0.3529814,0.4608146,0.4608146,-0.3529814,515.22627,639.13802)"
           id="g8237">
          <path
             id="path8239"
             style="fill:#552200;stroke:#000000;stroke-width:3.44548106"
             d="M -935.18743,112.86536 C -938.75196,108.89063 -950.86244,110.21606 -963.47754,116.65445 C -979.05344,124.60395 -995.19462,139.93417 -995.50603,147.07374 L -995.23641,150.08252 C -995.23641,152.23774 -986.81231,173.41535 -982.73211,181.51767 C -978.37921,190.16126 -968.58511,205.01048 -963.59031,210.53907 C -959.01151,215.60731 -951.54001,220.30853 -944.47441,222.56721 C -934.60881,225.721 -924.11091,224.87929 -917.73641,220.4234 L -793.63447,138.34971 C -793.14396,139.0289 -763.35844,118.41591 -751.22641,109.00131 C -744.38646,103.69343 -733.67646,95.722958 -727.4264,91.289148 C -714.2823,81.964678 -685.90391,64.729788 -682.23641,63.844158 C -679.19307,63.109238 -676.23641,60.667398 -676.23641,58.888878 C -676.23641,57.042968 -681.96703,50.729338 -684.32047,49.982388 C -687.62162,48.934638 -691.65398,50.417628 -693.30082,53.285118 C -694.2903,55.007988 -697.78163,57.468248 -702.80082,59.979528 C -707.16539,62.163288 -711.41141,64.488588 -712.23641,65.146868 C -715.01328,67.362578 -745.57113,81.201298 -766.23641,89.601818 L -825.88491,118.93595 C -830.20321,121.07177 -836.66141,124.49153 -840.23641,126.53541 C -843.81141,128.57929 -849.88641,131.95371 -853.73641,134.03412 C -857.58641,136.11453 -862.08391,138.75998 -863.73081,139.91288 C -865.37771,141.06578 -869.87771,143.64805 -873.73081,145.65126 C -877.58391,147.65446 -883.39971,150.91079 -886.65481,152.88753 C -892.98619,156.26716 -903.46517,164.70432 -907.54211,154.67714 C -911.19071,146.40757 -924.82121,125.14989 -930.84271,118.33857 L -935.18743,112.86536 z"
             sodipodi:nodetypes="csccsssccssssssssccsssscccc" />
          <path
             sodipodi:nodetypes="cccc"
             id="path8241"
             d="M -994.92326,150.50252 C -971.9138,147.24011 -951.08035,137.51532 -935.96426,118.28393 L -933.77436,115.08807 L -930.52956,118.75857"
             style="fill:#552200;stroke:#000000;stroke-width:3.44548106" />
          <path
             id="path8243"
             d="M -986.9239,139.82354 C -986.9239,135.25875 -975.83671,125.02648 -964.92391,119.51995 C -954.27751,114.14786 -943.92391,113.53042 -943.92391,118.26761 C -943.92391,119.19611 -946.66741,122.56639 -950.02051,125.75714 C -958.00761,133.35738 -972.72121,140.72212 -981.13401,141.33065 C -986.328,141.70635 -986.9239,141.55122 -986.9239,139.82354 z"
             style="fill:#552200;stroke:#000000;stroke-width:3.44548106" />
          <path
             sodipodi:nodetypes="cssssssscc"
             d="M -751.22641,109.00131 C -744.38646,103.69343 -733.67646,95.722958 -727.4264,91.289148 C -714.2823,81.964678 -685.90391,64.729788 -682.23641,63.844158 C -679.19307,63.109238 -676.23641,60.667398 -676.23641,58.888878 C -676.23641,57.042968 -681.96703,50.729338 -684.32047,49.982388 C -687.62162,48.934638 -691.65398,50.417628 -693.30082,53.285118 C -694.2903,55.007988 -697.78163,57.468248 -702.80082,59.979528 C -707.16539,62.163288 -711.41141,64.488588 -712.23641,65.146868 C -715.01328,67.362578 -745.57113,81.201298 -766.23641,89.601818 L -751.22641,109.00131 z"
             style="fill:#2b1100;stroke:#000000;stroke-width:3.44548106"
             id="path8327" />
        </g>
      </g>
    </g>
    <path
       id="path3119"
       style="fill:#784421;fill-rule:evenodd;stroke:#000000;stroke-width:3;stroke-linecap:butt;stroke-linejoin:miter;stroke-miterlimit:4;stroke-dasharray:none;stroke-opacity:1;display:inline"
       d="M 396.97659,526.22816 L 396.97659,516.9963 C 373.46044,511.00683 332.77241,507.24097 358.08113,475.19487 C 367.87813,463.39721 381.61079,454.74833 391.31154,439.92114 C 413.38366,404.07687 415.23982,353.07675 385.11196,323.12695 L 420.70585,286.19947 L 183.41329,286.19947 L 219.00718,323.12695 C 188.87932,353.07675 190.73548,404.07687 212.8076,439.92114 C 222.50835,454.74833 236.24101,463.39721 246.03801,475.19487 C 271.34673,507.24097 230.6587,511.00683 207.14255,516.9963 L 207.14255,526.22816 L 396.97659,526.22816 z"
       sodipodi:nodetypes="ccccccccccccc" />
  </g>
  <g
     inkscape:groupmode="layer"
     id="layer2"
     inkscape:label="Reflet final"
     transform="translate(-2.0595148,1.2525328e-6)"
     style="display:inline"
     sodipodi:insensitive="true">
    <g
       id="g8710"
       inkscape:label="Calque 1"
       transform="translate(-72.94045,-202.36201)">
      <path
         d="M 76.499965,203.86205 L 76.499965,721.35338 C 76.499965,759.85787 107.70307,791.10791 146.14997,791.10791 C 184.59677,791.10791 266.90317,791.10791 305.34996,791.10791 C 343.79688,791.10781 375,822.35785 375,860.86231 C 375,822.35785 406.20314,791.10791 444.64994,791.10791 C 483.09683,791.10781 565.40323,791.10791 603.85004,791.10791 C 642.29683,791.10791 673.50004,759.85787 673.50004,721.35338 L 673.50004,203.86205 L 76.499965,203.86205 z"
         style="fill:url(#radialGradient11919);fill-opacity:1;fill-rule:evenodd;stroke:none;stroke-width:3.00000024;stroke-linecap:butt;stroke-linejoin:miter;stroke-miterlimit:4;stroke-dasharray:none;stroke-opacity:1;display:inline"
         id="path2875" />
    </g>
  </g>
  <g
     inkscape:groupmode="layer"
     id="layer1"
     inkscape:label="Contour final"
     transform="translate(-2.0595148,1.2525328e-6)"
     style="display:inline"
     sodipodi:insensitive="true">
    <path
       id="path1572"
       style="fill:none;fill-opacity:1;fill-rule:nonzero;stroke:#000000;stroke-width:3.00000191;stroke-linecap:round;stroke-linejoin:round;stroke-miterlimit:4;stroke-dasharray:none;stroke-dashoffset:0;stroke-opacity:1;display:inline"
       d="M 302.05955,658.5003 C 302.05955,619.9962 333.26274,588.74658 371.70955,588.74658 C 410.15636,588.74658 492.46272,588.74658 530.90953,588.74658 C 569.35633,588.74658 600.55962,557.49696 600.55962,518.99296 L 600.55962,1.49998 L 3.559526,1.5 L 3.559516,518.99296 C 3.559516,557.49696 34.762731,588.74658 73.209531,588.74658 C 111.65636,588.74658 193.96274,588.74658 232.40955,588.74658 C 270.85635,588.74658 302.05955,619.9962 302.05955,658.5003 z"
       sodipodi:nodetypes="cssccccssc" />
  </g>
</svg>
