<?xml version="1.0" encoding="UTF-8" standalone="no"?>
<svg
   xmlns:dc="http://purl.org/dc/elements/1.1/"
   xmlns:cc="http://creativecommons.org/ns#"
   xmlns:rdf="http://www.w3.org/1999/02/22-rdf-syntax-ns#"
   xmlns:svg="http://www.w3.org/2000/svg"
   xmlns="http://www.w3.org/2000/svg"
   xmlns:xlink="http://www.w3.org/1999/xlink"
   xmlns:sodipodi="http://sodipodi.sourceforge.net/DTD/sodipodi-0.dtd"
   xmlns:inkscape="http://www.inkscape.org/namespaces/inkscape"
   height="660"
   width="600"
   version="1.0"
   id="svg2"
   sodipodi:version="0.32"
   inkscape:version="0.48.2 r9819"
   sodipodi:docname="Blason_Vide_3D.svg"
   inkscape:export-filename="/Users/olivier/Desktop/Blason Rouge/Blason_Vide_3D.png"
   inkscape:export-xdpi="144"
   inkscape:export-ydpi="144">
  <metadata
     id="metadata49">
    <rdf:RDF>
      <cc:Work
         rdf:about="">
        <dc:format>image/svg+xml</dc:format>
        <dc:type
           rdf:resource="http://purl.org/dc/dcmitype/StillImage" />
        <dc:title></dc:title>
        <dc:date />
        <dc:creator>
          <cc:Agent>
            <dc:title />
          </cc:Agent>
        </dc:creator>
        <cc:license
           rdf:resource="" />
        <dc:language />
        <dc:subject>
          <rdf:Bag />
        </dc:subject>
      </cc:Work>
    </rdf:RDF>
  </metadata>
  <sodipodi:namedview
     inkscape:window-height="738"
     inkscape:window-width="1280"
     inkscape:pageshadow="2"
     inkscape:pageopacity="0.0"
     guidetolerance="10.0"
     gridtolerance="10.0"
     objecttolerance="10.0"
     borderopacity="1.0"
     bordercolor="#666666"
     pagecolor="#ffffff"
     id="base"
     showgrid="false"
     height="660px"
     inkscape:zoom="0.40338992"
     inkscape:cx="515.05631"
     inkscape:cy="7.0023113"
     inkscape:window-x="-8"
     inkscape:window-y="-8"
     inkscape:current-layer="layer4"
     inkscape:window-maximized="1"
     inkscape:snap-bbox="true"
     inkscape:bbox-paths="true"
     inkscape:bbox-nodes="true"
     inkscape:snap-bbox-edge-midpoints="true"
     inkscape:snap-bbox-midpoints="true"
     inkscape:object-paths="true"
     inkscape:object-nodes="true"
     inkscape:snap-intersection-paths="true"
     inkscape:snap-smooth-nodes="true"
     inkscape:snap-midpoints="true"
     inkscape:snap-object-midpoints="true"
     inkscape:snap-center="true"
     inkscape:snap-page="true"
     inkscape:snap-global="false" />
  <desc
     id="desc4">Flag of Canton of Valais (Wallis)</desc>
  <defs
     id="defs6">
    <linearGradient
       id="linearGradient2893">
      <stop
         style="stop-color:white;stop-opacity:0.3137255;"
         offset="0"
         id="stop2895" />
      <stop
         id="stop2897"
         offset="0.19"
         style="stop-color:white;stop-opacity:0.25098041;" />
      <stop
         style="stop-color:#6b6b6b;stop-opacity:0.1254902;"
         offset="0.60000002"
         id="stop2901" />
      <stop
         style="stop-color:black;stop-opacity:0.1254902;"
         offset="1"
         id="stop2899" />
    </linearGradient>
    <radialGradient
       inkscape:collect="always"
       xlink:href="#linearGradient2893"
       id="radialGradient3163"
       gradientUnits="userSpaceOnUse"
       gradientTransform="matrix(1.353218,0,0,1.348928,-77.62935,-85.74693)"
       cx="221.44487"
       cy="226.33101"
       fx="221.44487"
       fy="226.33101"
       r="300" />
  </defs>
  <g
     inkscape:groupmode="layer"
     id="layer3"
     inkscape:label="Fond écu"
     style="display:inline"
     sodipodi:insensitive="true">
    <path
       id="path2855"
       style="fill:#fcef3c;fill-opacity:1;fill-rule:evenodd;stroke:none"
       d="m 300,658.5 c 0,0 298.50001,-112.32031 298.50001,-397.77183 0,-285.451524 0,-258.5516935 0,-258.5516935 l -597.00001,0 0,258.5516935 C 1.5,546.17969 300,658.5 300,658.5 z"
       sodipodi:nodetypes="cccccc"
       inkscape:connector-curvature="0" />
    <path
       inkscape:connector-curvature="0"
       style="fill:#2b5df2;fill-opacity:1;fill-rule:evenodd;stroke:#000000;stroke-width:2.99695683;stroke-linecap:butt;stroke-linejoin:miter;stroke-miterlimit:4;stroke-opacity:1"
       d="m 38.125,226.0625 c -18.317595,-0.0706 -26.427868,6.32675 -36.625,11.875 0,20.53486 0,-2.37217 0,22.78125 0,37.45382 5.1332115,71.9325 14.0625,103.5625 5.863655,-2.65908 12.777933,-4.50672 22.625,-4.46875 30.80529,0.1169 35.4257,18.76867 65,18.6875 29.5743,-0.0812 31.98547,-19.07741 64.96875,-18.6875 32.46299,0.38381 32.37548,18.67011 65,18.6875 32.6245,0.0174 34.00321,-18.65073 65,-18.6875 30.99679,-0.0368 32.89926,18.16877 65,18.6875 32.10074,0.51873 33.03484,-18.42734 65.03125,-18.6875 32.00666,-0.2602 33.54092,18.6361 64.9375,18.6875 31.39652,0.0514 32.41051,-18.68748 65.03125,-18.6875 11.49198,0 19.37787,2.30427 26.03125,5.28125 9.07192,-31.85299 14.3125,-66.59866 14.3125,-104.375 l 0,-22.15625 c -11.00276,-5.48006 -20.34167,-12.5 -40.90625,-12.5 -32.58768,1e-5 -33.60408,18.70761 -64.96875,18.65625 -31.36473,-0.0513 -32.90081,-18.91618 -64.875,-18.65625 -31.96395,0.25989 -32.86932,19.17445 -64.9375,18.65625 -32.06817,-0.5182 -34.00339,-18.69298 -64.96875,-18.65625 -30.96536,0.0367 -32.34609,18.67364 -64.9375,18.65625 -32.59144,-0.0174 -32.50744,-18.27282 -64.9375,-18.65625 -32.94981,-0.38952 -35.3307,18.57517 -64.875,18.65625 C 73.549452,244.79983 68.899038,226.17929 38.125,226.0625 z"
       id="path2855-5"
       sodipodi:nodetypes="ccccczsszzssscccssszzsszc" />
    <g
       style="fill:#2b5df2;display:inline"
       inkscape:label="chef"
       id="layer5"
       transform="translate(0.23513067,-0.66272795)" />
    <path
       style="fill:#2b5df2;fill-opacity:1;fill-rule:nonzero;stroke:#000000;stroke-width:2.90240884;stroke-miterlimit:4;stroke-opacity:1;display:inline"
       d="m 1.78125,1.4375 0,118.28125 66.25,0 0,-53.28125 66.28125,0 0,53.28125 66.28125,0 0,-53.28125 66.28125,0 0,53.28125 66.25,0 0,-53.28125 66.28125,0 0,53.28125 66.28125,0 0,-53.28125 66.28125,0 0,53.28125 66.25,0 0,-118.28125 z"
       id="rect2230-5"
       inkscape:connector-curvature="0"
       sodipodi:nodetypes="ccccccccccccccccccccc" />
    <path
       style="fill:#ffffff;stroke:#000000;stroke-width:3"
       d="m 275.34375,235.875 -39.46875,39.5 101.0625,91.0625 38.46875,-40.5 z"
       id="path3147"
       inkscape:connector-curvature="0"
       sodipodi:nodetypes="ccccc" />
    <path
       style="fill:#2b5df2;stroke:#000000;stroke-width:3;stroke-linecap:butt;stroke-linejoin:miter;stroke-opacity:1;display:inline"
       d="m 299.78125,360.15625 c -43.70944,95.09448 -98.50245,158.17385 -153.25,202.5 76.00389,66.33527 153.46875,95.5 153.46875,95.5 0,0 77.52661,-29.19684 153.5625,-95.59375 C 399.04863,517.33166 341.89476,454.59199 299.78125,360.15625 z"
       id="path3233-2"
       inkscape:connector-curvature="0"
       sodipodi:nodetypes="ccccc" />
  </g>
  <g
     inkscape:groupmode="layer"
     id="layer4"
     inkscape:label="Meubles"
     sodipodi:insensitive="true">
    <g
       id="g3344"
       transform="matrix(0.60701835,0,0,0.60701835,96.184105,-13.457534)"
       style="stroke-width:4.11849165;stroke-miterlimit:4;stroke-dasharray:none">
      <path
         id="path2999"
         d="m 339.30004,645.25264 -6.96927,48.4199 -1.65936,372.75686 -58.04413,-167.36227 -51.50629,83.96322 48.32033,-64.71473 61.13053,165.53698 -0.16593,11.8218 11.15084,-1.0288 -0.4978,-11.1249 61.03097,-165.20508 48.32033,64.71473 -51.50629,-83.96322 -58.04413,167.39547 -4.613,-372.79006 z"
         style="fill:#fcef3c;stroke:#000000;stroke-width:4.37377787;stroke-linecap:butt;stroke-linejoin:miter;stroke-miterlimit:4;stroke-opacity:1;stroke-dasharray:none"
         inkscape:connector-curvature="0"
         sodipodi:nodetypes="cccccccccccccccc" />
      <path
         inkscape:connector-curvature="0"
         d="m 323.23479,696.74793 c 0,-12.9309 0.58331,-26.04419 3.66416,-38.63338 0.92276,-3.77064 3.93628,-8.25112 7.93902,-8.78031 3.91544,-0.51766 8.7415,2.78118 9.77111,6.43889 4.51462,16.03832 1.76251,29.1719 2.44277,42.73086 1.59437,31.77843 2.49306,56.81253 0.61069,82.53495 -0.46132,6.30405 -0.67732,12.83648 -3.05346,18.73134 -1.24504,3.08873 -3.88191,7.25207 -7.32833,7.02425 -4.47242,-0.29565 -9.8374,-3.92973 -10.3818,-8.19496 -4.30381,-33.71932 -3.66416,-67.88092 -3.66416,-101.85164 z"
         id="path2991"
         style="fill:#fcef3c;stroke:#000000;stroke-width:4.11849165;stroke-linecap:butt;stroke-linejoin:miter;stroke-miterlimit:4;stroke-opacity:1;stroke-dasharray:none" />
    </g>
  </g>
  <g
     inkscape:groupmode="layer"
     id="layer2"
     inkscape:label="Reflet final"
     sodipodi:insensitive="true">
    <path
       sodipodi:nodetypes="cccccc"
       d="M 300.00001,658.5 C 300.00001,658.5 598.50001,546.17969 598.50001,260.72817 C 598.50001,-24.723334 598.50001,2.1764865 598.50001,2.1764865 L 1.5,2.1764865 L 1.5,260.72817 C 1.5,546.17969 300.00001,658.5 300.00001,658.5 z "
       style="opacity:1;fill:url(#radialGradient3163);fill-opacity:1;fill-rule:evenodd;stroke:none;stroke-width:1px;stroke-linecap:butt;stroke-linejoin:miter;stroke-opacity:1"
       id="path2875"
       inkscape:export-xdpi="144"
       inkscape:export-ydpi="144" />
  </g>
  <g
     inkscape:groupmode="layer"
     id="layer1"
     inkscape:label="Contour final"
     sodipodi:insensitive="true">
    <path
       sodipodi:nodetypes="cccccc"
       d="m 299.99999,658.50028 c 0,0 -298.49999,-112.32036 -298.49999,-397.772 0,-285.451616 0,-258.5517843 0,-258.5517843 l 596.99999,0 0,258.5517843 c 0,285.45164 -298.5,397.772 -298.5,397.772 z"
       style="fill:none;stroke:#000000;stroke-width:3.00000048;stroke-linecap:butt;stroke-linejoin:miter;stroke-miterlimit:4;stroke-opacity:1;stroke-dasharray:none"
       id="path1411"
       inkscape:export-xdpi="144"
       inkscape:export-ydpi="144"
       inkscape:connector-curvature="0" />
  </g>
</svg>
