<?xml version="1.0" encoding="UTF-8" standalone="no"?>
<svg
   xmlns:dc="http://purl.org/dc/elements/1.1/"
   xmlns:cc="http://creativecommons.org/ns#"
   xmlns:rdf="http://www.w3.org/1999/02/22-rdf-syntax-ns#"
   xmlns:svg="http://www.w3.org/2000/svg"
   xmlns="http://www.w3.org/2000/svg"
   xmlns:xlink="http://www.w3.org/1999/xlink"
   xmlns:sodipodi="http://sodipodi.sourceforge.net/DTD/sodipodi-0.dtd"
   xmlns:inkscape="http://www.inkscape.org/namespaces/inkscape"
   height="660"
   width="600"
   version="1.0"
   id="svg2"
   sodipodi:version="0.32"
   inkscape:version="0.46"
   sodipodi:docname="Blason ville fr Parentis-en-Born (Landes).svg"
   sodipodi:docbase="D:\Mes documents\Renaud-Notre Lapin"
   inkscape:export-filename="/Users/olivier/Desktop/Blason Rouge/Blason_Vide_3D.png"
   inkscape:export-xdpi="144"
   inkscape:export-ydpi="144"
   inkscape:output_extension="org.inkscape.output.svg.inkscape">
  <metadata
     id="metadata49">
    <rdf:RDF>
      <cc:Work
         rdf:about="">
        <dc:format>image/svg+xml</dc:format>
        <dc:type
           rdf:resource="http://purl.org/dc/dcmitype/StillImage" />
        <dc:title>Gabarit d'un blason en pointe pour le projet Blasons de Wikipédia</dc:title>
        <dc:date>03-AUG-2006</dc:date>
        <dc:creator>
          <cc:Agent>
            <dc:title>Jérôme BLUM (wagner51)</dc:title>
          </cc:Agent>
        </dc:creator>
        <cc:license
           rdf:resource="http://web.resource.org/cc/PublicDomain" />
        <dc:language>fr</dc:language>
        <dc:subject>
          <rdf:Bag>
            <rdf:li>gabarit modèle blason projet wikipédia</rdf:li>
          </rdf:Bag>
        </dc:subject>
      </cc:Work>
      <cc:License
         rdf:about="http://web.resource.org/cc/PublicDomain">
        <cc:permits
           rdf:resource="http://web.resource.org/cc/Reproduction" />
        <cc:permits
           rdf:resource="http://web.resource.org/cc/Distribution" />
        <cc:permits
           rdf:resource="http://web.resource.org/cc/DerivativeWorks" />
      </cc:License>
    </rdf:RDF>
  </metadata>
  <sodipodi:namedview
     inkscape:window-height="814"
     inkscape:window-width="1152"
     inkscape:pageshadow="2"
     inkscape:pageopacity="1"
     guidetolerance="10.0"
     gridtolerance="10.0"
     objecttolerance="10.0"
     borderopacity="1.0"
     bordercolor="#666666"
     pagecolor="#e8e1b2"
     id="base"
     showgrid="false"
     height="660px"
     inkscape:zoom="0.44547727"
     inkscape:cx="289.7012"
     inkscape:cy="224.81872"
     inkscape:window-x="-8"
     inkscape:window-y="-8"
     inkscape:current-layer="layer3"
     showguides="true"
     inkscape:guide-bbox="true" />
  <desc
     id="desc4">Flag of Canton of Valais (Wallis)</desc>
  <defs
     id="defs6">
    <linearGradient
       id="linearGradient2893">
      <stop
         style="stop-color:white;stop-opacity:0.3137255;"
         offset="0"
         id="stop2895" />
      <stop
         id="stop2897"
         offset="0.19"
         style="stop-color:white;stop-opacity:0.25098041;" />
      <stop
         style="stop-color:#6b6b6b;stop-opacity:0.1254902;"
         offset="0.60000002"
         id="stop2901" />
      <stop
         style="stop-color:black;stop-opacity:0.1254902;"
         offset="1"
         id="stop2899" />
    </linearGradient>
    <radialGradient
       inkscape:collect="always"
       xlink:href="#linearGradient2893"
       id="radialGradient3163"
       gradientUnits="userSpaceOnUse"
       gradientTransform="matrix(1.353218,0,0,1.348928,-77.62935,-85.74693)"
       cx="221.44487"
       cy="226.33101"
       fx="221.44487"
       fy="226.33101"
       r="300" />
    <g
       id="s">
      <g
         id="c">
        <path
           id="t"
           d="M 0,0 L 0,1 L 0.5,1 L 0,0 z"
           transform="matrix(0.951057,0.309017,-0.309017,0.951057,0,-1)" />
        <use
           xlink:href="#t"
           transform="scale(-1,1)"
           id="use2144"
           x="0"
           y="0"
           width="810"
           height="540" />
      </g>
      <g
         id="a">
        <use
           xlink:href="#c"
           transform="matrix(0.309017,0.951057,-0.951057,0.309017,0,0)"
           id="use2147"
           x="0"
           y="0"
           width="810"
           height="540" />
        <use
           xlink:href="#c"
           transform="matrix(-0.809017,0.587785,-0.587785,-0.809017,0,0)"
           id="use2149"
           x="0"
           y="0"
           width="810"
           height="540" />
      </g>
      <use
         xlink:href="#a"
         transform="scale(-1,1)"
         id="use2151"
         x="0"
         y="0"
         width="810"
         height="540" />
    </g>
  </defs>
  <g
     inkscape:groupmode="layer"
     id="layer3"
     inkscape:label="Fond écu"
     style="display:inline">
    <path
       id="path2855"
       style="fill:#5ab532;fill-opacity:1;fill-rule:evenodd;stroke:none;stroke-width:1px;stroke-linecap:butt;stroke-linejoin:miter;stroke-opacity:1"
       d="M 300,658.5 C 300,658.5 598.50001,546.17969 598.50001,260.72817 C 598.50001,-24.723354 598.50001,2.1764765 598.50001,2.1764765 L 1.5,2.1764765 L 1.5,260.72817 C 1.5,546.17969 300,658.5 300,658.5 z"
       sodipodi:nodetypes="cccccc" />
    <g
       id="g3777"
       inkscape:label="Timbre"
       transform="matrix(0.8419469,0,0,0.8419469,52.172734,-36.768042)"
       style="stroke:#000000;stroke-width:4.52715254;stroke-miterlimit:4;stroke-dasharray:none;stroke-opacity:1;display:inline" />
    <g
       inkscape:label="Escudo"
       id="g3779"
       transform="matrix(0.8419469,0,0,0.8419469,52.172734,-36.768042)"
       style="stroke:#000000;stroke-width:4.52715254;stroke-miterlimit:4;stroke-dasharray:none;stroke-opacity:1;display:inline" />
    <g
       id="g3781"
       inkscape:label="Piezas"
       style="stroke:#000000;stroke-width:4.52715254;stroke-miterlimit:4;stroke-dasharray:none;stroke-opacity:1;display:inline"
       transform="matrix(0.8419469,0,0,0.8419469,99.68272,-101.29515)" />
    <g
       id="g3783"
       inkscape:label="Muebles"
       style="stroke:#000000;stroke-width:4.52715254;stroke-miterlimit:4;stroke-dasharray:none;stroke-opacity:1;display:inline"
       transform="matrix(0.8419469,0,0,0.8419469,99.68272,-101.29515)" />
    <g
       style="stroke:#000000;stroke-width:4.52715254;stroke-miterlimit:4;stroke-dasharray:none;stroke-opacity:1"
       id="g3785"
       inkscape:label="Ornamento"
       transform="matrix(0.8419469,0,0,0.8419469,99.68272,-101.29515)" />
    <g
       id="g5873"
       style="fill:#fcef3c;stroke:#000000;stroke-width:2.41211462;stroke-miterlimit:4;stroke-dasharray:none;stroke-opacity:1"
       transform="matrix(0.6614354,0,0,0.5846544,-368.41139,-184.02715)">
      <path
         sodipodi:nodetypes="cccscscscsccc"
         d="M 1009.8333,549.81871 L 1096.9853,558.30416 L 1113.6917,503.50224 C 1113.6917,503.50224 1100.605,520.38477 1088.4464,519.76604 C 1076.2878,519.14731 1065.0574,501.0273 1065.0574,501.0273 C 1065.0574,501.0273 1052.2027,511.72253 1038.327,511.63414 C 1024.4514,511.54575 1010.1117,500.67375 1009.8333,500.67375 C 1009.5548,500.67375 995.2151,511.54575 981.33946,511.63414 C 967.46381,511.72253 954.60912,501.0273 954.60912,501.0273 C 954.60912,501.0273 943.37866,519.14731 931.22008,519.76604 C 919.06148,520.38477 905.97476,503.50224 905.97476,503.50224 L 922.68122,558.30416 L 1009.8333,549.81871 z"
         style="fill:#fcef3c;fill-opacity:1;fill-rule:evenodd;stroke:#000000;stroke-width:2.41211462;stroke-linecap:butt;stroke-linejoin:miter;stroke-miterlimit:4;stroke-dasharray:none;stroke-opacity:1"
         id="path7496" />
      <path
         transform="matrix(0.9943569,-0.1062772,0.1062772,0.9943569,616.54669,247.95678)"
         d="M 321.25,323.86218 A 10.5,6 0 1 1 300.25,323.86218 A 10.5,6 0 1 1 321.25,323.86218 z"
         sodipodi:ry="6"
         sodipodi:rx="10.5"
         sodipodi:cy="323.86218"
         sodipodi:cx="310.75"
         id="path7526"
         style="fill:#fcef3c;fill-opacity:1;fill-rule:nonzero;stroke:#000000;stroke-width:2.41206574;stroke-linecap:square;stroke-linejoin:miter;stroke-miterlimit:4;stroke-dasharray:none;stroke-dashoffset:0;stroke-opacity:1"
         sodipodi:type="arc" />
      <path
         sodipodi:type="arc"
         style="fill:#fcef3c;fill-opacity:1;fill-rule:nonzero;stroke:#000000;stroke-width:2.41206431;stroke-linecap:square;stroke-linejoin:miter;stroke-miterlimit:4;stroke-dasharray:none;stroke-dashoffset:0;stroke-opacity:1"
         id="path7554"
         sodipodi:cx="310.75"
         sodipodi:cy="323.86218"
         sodipodi:rx="10.5"
         sodipodi:ry="6"
         d="M 321.25,323.86218 A 10.5,6 0 1 1 300.25,323.86218 A 10.5,6 0 1 1 321.25,323.86218 z"
         transform="matrix(0.9936629,0.1125864,-0.1125864,0.9936629,786.28732,179.99332)" />
      <rect
         ry="1.5000002"
         y="528.70123"
         x="994.90387"
         height="13.000273"
         width="30.000629"
         id="rect7562"
         style="fill:#fcef3c;fill-opacity:1;fill-rule:nonzero;stroke:#000000;stroke-width:2.41211462;stroke-linecap:square;stroke-linejoin:miter;stroke-miterlimit:4;stroke-dasharray:none;stroke-dashoffset:0;stroke-opacity:1"
         rx="1.5000002" />
      <path
         sodipodi:nodetypes="cczzccszc"
         d="M 901.52044,495.01677 L 906.66411,495.01677 C 915.8567,468.85327 923.89178,459.69996 928.97464,452.94304 C 933.92691,446.35973 951.50444,430.97778 960.24575,424.20645 C 969.54615,417.00202 999.21723,403.09095 1007.7882,403.09095 L 1007.7882,397.78754 C 983.82199,397.78754 967.30691,409.12358 954.78836,417.62009 C 942.08825,426.23984 930.56576,437.78411 922.93926,447.28606 C 915.48407,456.57457 901.52044,477.33873 901.52044,495.01677 z"
         style="fill:#fcef3c;fill-opacity:1;fill-rule:evenodd;stroke:#000000;stroke-width:2.41211462;stroke-linecap:butt;stroke-linejoin:miter;stroke-miterlimit:4;stroke-dasharray:none;stroke-opacity:1"
         id="path3353" />
      <path
         id="path3492"
         style="fill:#fcef3c;fill-opacity:1;fill-rule:evenodd;stroke:#000000;stroke-width:2.41211462;stroke-linecap:butt;stroke-linejoin:miter;stroke-miterlimit:4;stroke-dasharray:none;stroke-opacity:1"
         d="M 1119.573,495.01677 L 1114.4293,495.01677 C 1105.2368,468.85327 1097.2017,459.69996 1092.1188,452.94304 C 1087.1665,446.35973 1069.589,430.97778 1060.8477,424.20645 C 1051.5473,417.00202 1021.8762,403.09095 1013.3053,403.09095 L 1013.3053,397.78754 C 1037.2715,397.78754 1053.7865,409.12358 1066.3051,417.62009 C 1079.0052,426.23984 1090.5277,437.78411 1098.1542,447.28606 C 1105.6094,456.57457 1119.573,477.33873 1119.573,495.01677 z"
         sodipodi:nodetypes="cczzccszc" />
      <path
         id="path7640"
         style="fill:#fcef3c;fill-opacity:1;fill-rule:evenodd;stroke:#000000;stroke-width:2.41211462;stroke-linecap:butt;stroke-linejoin:miter;stroke-miterlimit:4;stroke-dasharray:none;stroke-opacity:1"
         d="M 1009.5279,515.87687 L 1020.1518,515.87687 C 1020.1518,515.87687 1023.6497,446.85222 1025.1378,434.91144 C 1026.5952,423.21791 1030.3882,415.35163 1033.0324,409.10149 C 1026.2201,406.49785 1019.3574,400.30749 1011.0266,400.30749 C 1002.6958,400.30749 993.58827,406.49785 986.77597,409.10149 C 989.42022,415.35163 993.21323,423.21791 994.67055,434.91144 C 996.15869,446.85222 999.65662,515.87687 999.65662,515.87687 L 1009.5279,515.87687 z"
         sodipodi:nodetypes="ccscccscc" />
      <path
         transform="matrix(1.1579003,0,0,1.1579003,679.03058,153.4874)"
         d="M 259.15464,213.73354 A 6.3639612,6.3639612 0 1 1 246.42672,213.73354 A 6.3639612,6.3639612 0 1 1 259.15464,213.73354 z"
         sodipodi:ry="6.3639612"
         sodipodi:rx="6.3639612"
         sodipodi:cy="213.73354"
         sodipodi:cx="252.79068"
         id="path3367"
         style="fill:#fcef3c;fill-opacity:1;fill-rule:nonzero;stroke:#000000;stroke-width:2.08317995;stroke-linecap:square;stroke-linejoin:miter;stroke-miterlimit:4;stroke-dasharray:none;stroke-dashoffset:0;stroke-opacity:1"
         sodipodi:type="arc" />
      <path
         sodipodi:type="arc"
         style="fill:#fcef3c;fill-opacity:1;fill-rule:nonzero;stroke:#000000;stroke-width:2.08317995;stroke-linecap:square;stroke-linejoin:miter;stroke-miterlimit:4;stroke-dasharray:none;stroke-dashoffset:0;stroke-opacity:1"
         id="path3383"
         sodipodi:cx="252.79068"
         sodipodi:cy="213.73354"
         sodipodi:rx="6.3639612"
         sodipodi:ry="6.3639612"
         d="M 259.15464,213.73354 A 6.3639612,6.3639612 0 1 1 246.42672,213.73354 A 6.3639612,6.3639612 0 1 1 259.15464,213.73354 z"
         transform="matrix(1.1579003,0,0,1.1579003,667.00951,160.20505)" />
      <path
         transform="matrix(1.1579003,0,0,1.1579003,654.98844,168.33695)"
         d="M 259.15464,213.73354 A 6.3639612,6.3639612 0 1 1 246.42672,213.73354 A 6.3639612,6.3639612 0 1 1 259.15464,213.73354 z"
         sodipodi:ry="6.3639612"
         sodipodi:rx="6.3639612"
         sodipodi:cy="213.73354"
         sodipodi:cx="252.79068"
         id="path3387"
         style="fill:#fcef3c;fill-opacity:1;fill-rule:nonzero;stroke:#000000;stroke-width:2.08317995;stroke-linecap:square;stroke-linejoin:miter;stroke-miterlimit:4;stroke-dasharray:none;stroke-dashoffset:0;stroke-opacity:1"
         sodipodi:type="arc" />
      <path
         sodipodi:type="arc"
         style="fill:#fcef3c;fill-opacity:1;fill-rule:nonzero;stroke:#000000;stroke-width:2.08317995;stroke-linecap:square;stroke-linejoin:miter;stroke-miterlimit:4;stroke-dasharray:none;stroke-dashoffset:0;stroke-opacity:1"
         id="path3391"
         sodipodi:cx="252.79068"
         sodipodi:cy="213.73354"
         sodipodi:rx="6.3639612"
         sodipodi:ry="6.3639612"
         d="M 259.15464,213.73354 A 6.3639612,6.3639612 0 1 1 246.42672,213.73354 A 6.3639612,6.3639612 0 1 1 259.15464,213.73354 z"
         transform="matrix(1.1579003,0,0,1.1579003,644.02805,177.52953)" />
      <path
         transform="matrix(1.1579003,0,0,1.1579003,633.77479,187.42924)"
         d="M 259.15464,213.73354 A 6.3639612,6.3639612 0 1 1 246.42672,213.73354 A 6.3639612,6.3639612 0 1 1 259.15464,213.73354 z"
         sodipodi:ry="6.3639612"
         sodipodi:rx="6.3639612"
         sodipodi:cy="213.73354"
         sodipodi:cx="252.79068"
         id="path3395"
         style="fill:#fcef3c;fill-opacity:1;fill-rule:nonzero;stroke:#000000;stroke-width:2.08317995;stroke-linecap:square;stroke-linejoin:miter;stroke-miterlimit:4;stroke-dasharray:none;stroke-dashoffset:0;stroke-opacity:1"
         sodipodi:type="arc" />
      <path
         sodipodi:type="arc"
         style="fill:#fcef3c;fill-opacity:1;fill-rule:nonzero;stroke:#000000;stroke-width:2.08317995;stroke-linecap:square;stroke-linejoin:miter;stroke-miterlimit:4;stroke-dasharray:none;stroke-dashoffset:0;stroke-opacity:1"
         id="path3399"
         sodipodi:cx="252.79068"
         sodipodi:cy="213.73354"
         sodipodi:rx="6.3639612"
         sodipodi:ry="6.3639612"
         d="M 259.15464,213.73354 A 6.3639612,6.3639612 0 1 1 246.42672,213.73354 A 6.3639612,6.3639612 0 1 1 259.15464,213.73354 z"
         transform="matrix(1.1579003,0,0,1.1579003,624.22865,198.03606)" />
      <path
         transform="matrix(1.1579003,0,0,1.1579003,616.45032,208.99645)"
         d="M 259.15464,213.73354 A 6.3639612,6.3639612 0 1 1 246.42672,213.73354 A 6.3639612,6.3639612 0 1 1 259.15464,213.73354 z"
         sodipodi:ry="6.3639612"
         sodipodi:rx="6.3639612"
         sodipodi:cy="213.73354"
         sodipodi:cx="252.79068"
         id="path3403"
         style="fill:#fcef3c;fill-opacity:1;fill-rule:nonzero;stroke:#000000;stroke-width:2.08317995;stroke-linecap:square;stroke-linejoin:miter;stroke-miterlimit:4;stroke-dasharray:none;stroke-dashoffset:0;stroke-opacity:1"
         sodipodi:type="arc" />
      <path
         sodipodi:type="arc"
         style="fill:#fcef3c;fill-opacity:1;fill-rule:nonzero;stroke:#000000;stroke-width:2.08317995;stroke-linecap:square;stroke-linejoin:miter;stroke-miterlimit:4;stroke-dasharray:none;stroke-dashoffset:0;stroke-opacity:1"
         id="path3407"
         sodipodi:cx="252.79068"
         sodipodi:cy="213.73354"
         sodipodi:rx="6.3639612"
         sodipodi:ry="6.3639612"
         d="M 259.15464,213.73354 A 6.3639612,6.3639612 0 1 1 246.42672,213.73354 A 6.3639612,6.3639612 0 1 1 259.15464,213.73354 z"
         transform="matrix(1.1579003,0,0,1.1579003,609.3791,221.01751)" />
      <path
         id="path7692"
         style="fill:#fcef3c;fill-opacity:1;fill-rule:evenodd;stroke:#000000;stroke-width:2.41211462;stroke-linecap:butt;stroke-linejoin:miter;stroke-miterlimit:4;stroke-dasharray:none;stroke-opacity:1"
         d="M 1061.6461,517.63031 C 1061.7666,517.65049 1063.7631,516.7268 1064.6818,515.26339 C 1065.6006,513.79996 1066.1698,512.27801 1066.1698,512.27801 C 1066.1698,512.27801 1067.8733,513.64127 1070.1312,513.83947 C 1072.389,514.0377 1073.6724,512.00638 1073.6724,512.00638 C 1073.6724,512.00638 1071.0767,510.47133 1069.7924,508.6167 C 1068.5081,506.76208 1068.0834,504.60212 1068.5351,504.58785 L 1079.4596,506.41632 L 1080.2203,501.8717 L 1073.2285,500.70148 C 1073.2285,500.70148 1074.4838,495.42351 1075.6523,492.66174 C 1076.8415,489.85097 1078.5031,488.24709 1079.7925,488.32338 C 1081.038,488.39708 1081.4958,489.95613 1081.1887,491.79147 C 1080.8742,493.6705 1079.0289,497.18006 1079.0289,497.18006 C 1079.0289,497.18006 1082.6776,497.92552 1085.7896,495.43656 C 1088.9015,492.94762 1090.3242,489.54701 1090.7484,487.01252 C 1091.1726,484.47802 1090.6301,479.85734 1087.6585,478.63392 C 1084.7166,477.42278 1081.5767,478.2 1077.8669,481.57719 C 1074.1571,484.95436 1073.3751,488.82157 1072.6816,491.08638 C 1072.0138,493.26721 1071.131,500.35041 1071.131,500.35041 L 1067.8099,499.79456 L 1068.7754,494.02638 C 1069.5607,490.47308 1071.2491,485.47964 1072.8623,482.49152 C 1074.4472,479.55562 1077.0979,476.50964 1077.6761,473.0549 C 1078.2957,469.35297 1078.1534,467.66835 1076.7652,463.34805 C 1075.3769,459.02775 1072.1231,455.77371 1072.0628,455.76362 C 1072.0025,455.75353 1067.8664,457.77071 1065.147,461.4035 C 1062.4277,465.03629 1061.7446,466.58277 1061.125,470.2847 C 1060.5468,473.73944 1062.0611,477.48254 1062.6037,480.77452 C 1063.1559,484.12506 1063.1264,489.39616 1062.7118,493.01152 L 1061.7464,498.77969 L 1058.4253,498.22384 C 1058.4253,498.22384 1059.8972,491.23923 1059.9759,488.9598 C 1060.0576,486.59259 1060.5775,482.68151 1058.1695,478.28039 C 1055.7616,473.87925 1053.0459,472.12199 1049.87,472.30919 C 1046.6619,472.49829 1044.6444,476.6905 1044.2202,479.225 C 1043.796,481.7595 1044.0339,485.43803 1046.1657,488.80464 C 1048.2976,492.17127 1051.9902,492.65454 1051.9902,492.65454 C 1051.9902,492.65454 1051.3883,488.7354 1051.7028,486.85637 C 1052.01,485.02103 1052.9505,483.69601 1054.1522,484.0319 C 1055.3962,484.37965 1056.4449,486.43715 1056.6541,489.48196 C 1056.8596,492.4737 1056.3278,497.87277 1056.3278,497.87277 L 1049.3361,496.70255 L 1048.5755,501.24717 L 1059.5,503.07564 C 1059.9224,503.23618 1058.8176,505.14016 1056.9993,506.4755 C 1055.1811,507.81085 1052.227,508.41702 1052.227,508.41702 C 1052.227,508.41702 1052.779,510.75553 1054.9784,511.30332 C 1057.1777,511.85113 1059.2323,511.11687 1059.2323,511.11687 C 1059.2323,511.11687 1059.2749,512.74121 1059.667,514.42406 C 1060.0592,516.10689 1061.6461,517.63031 1061.6461,517.63031 z"
         sodipodi:nodetypes="cscscsccccssscssssscccssscssscccssssscsssccccscscsc" />
      <path
         sodipodi:nodetypes="cscscsccccssscssssscccssscssscccssssscsssccccscscsc"
         d="M 958.72095,517.63031 C 958.60037,517.65049 956.60396,516.7268 955.68518,515.26339 C 954.76641,513.79996 954.19722,512.27801 954.19722,512.27801 C 954.19722,512.27801 952.49373,513.64127 950.23586,513.83947 C 947.97799,514.0377 946.69463,512.00638 946.69463,512.00638 C 946.69463,512.00638 949.29029,510.47133 950.57463,508.6167 C 951.85895,506.76208 952.28358,504.60212 951.83196,504.58785 L 940.90739,506.41632 L 940.14675,501.8717 L 947.13847,500.70148 C 947.13847,500.70148 945.88319,495.42351 944.71471,492.66174 C 943.5255,489.85097 941.86396,488.24709 940.57449,488.32338 C 939.32899,488.39708 938.87118,489.95613 939.17836,491.79147 C 939.49286,493.6705 941.33808,497.18006 941.33808,497.18006 C 941.33808,497.18006 937.68937,497.92552 934.57744,495.43656 C 931.46551,492.94762 930.04282,489.54701 929.61862,487.01252 C 929.19442,484.47802 929.73687,479.85734 932.70852,478.63392 C 935.65039,477.42278 938.79027,478.2 942.50009,481.57719 C 946.20989,484.95436 946.99193,488.82157 947.68545,491.08638 C 948.35326,493.26721 949.236,500.35041 949.236,500.35041 L 952.55707,499.79456 L 951.59163,494.02638 C 950.80632,490.47308 949.11788,485.47964 947.50474,482.49152 C 945.9198,479.55562 943.26912,476.50964 942.6909,473.0549 C 942.0713,469.35297 942.21358,467.66835 943.60184,463.34805 C 944.99009,459.02775 948.24393,455.77371 948.30422,455.76362 C 948.3645,455.75353 952.5006,457.77071 955.21998,461.4035 C 957.93936,465.03629 958.62243,466.58277 959.24204,470.2847 C 959.82026,473.73944 958.30589,477.48254 957.76333,480.77452 C 957.21109,484.12506 957.24066,489.39616 957.65517,493.01152 L 958.6206,498.77969 L 961.94167,498.22384 C 961.94167,498.22384 960.46985,491.23923 960.39113,488.9598 C 960.30939,486.59259 959.78955,482.68151 962.1975,478.28039 C 964.60544,473.87925 967.32113,472.12199 970.49702,472.30919 C 973.7051,472.49829 975.72258,476.6905 976.14678,479.225 C 976.57099,481.7595 976.33315,485.43803 974.20127,488.80464 C 972.06941,492.17127 968.37681,492.65454 968.37681,492.65454 C 968.37681,492.65454 968.97868,488.7354 968.66419,486.85637 C 968.357,485.02103 967.41648,483.69601 966.21486,484.0319 C 964.97082,484.37965 963.9221,486.43715 963.71294,489.48196 C 963.50745,492.4737 964.0392,497.87277 964.0392,497.87277 L 971.03091,496.70255 L 971.79156,501.24717 L 960.86699,503.07564 C 960.44463,503.23618 961.54945,505.14016 963.36769,506.4755 C 965.18594,507.81085 968.13997,508.41702 968.13997,508.41702 C 968.13997,508.41702 967.588,510.75553 965.38865,511.30332 C 963.18929,511.85113 961.13473,511.11687 961.13473,511.11687 C 961.13473,511.11687 961.09215,512.74121 960.69997,514.42406 C 960.30779,516.10689 958.72095,517.63031 958.72095,517.63031 z"
         style="fill:#fcef3c;fill-opacity:1;fill-rule:evenodd;stroke:#000000;stroke-width:2.41211462;stroke-linecap:butt;stroke-linejoin:miter;stroke-miterlimit:4;stroke-dasharray:none;stroke-opacity:1"
         id="path7720" />
      <path
         sodipodi:nodetypes="cszzzsc"
         id="path1439"
         d="M 931.68141,543.32173 C 932.38978,546.55716 928.48,550.90651 922.70746,551.42878 C 920.00146,551.67361 918.85595,551.20358 918.07964,550.48667 C 917.33373,549.79782 916.2788,549.01459 915.72951,547.18825 C 915.1975,545.4193 915.58662,543.52829 916.20256,542.57381 C 916.82683,541.60645 918.12239,540.51355 920.14087,539.70621 C 925.52248,537.55372 930.97303,540.0863 931.68141,543.32173 z"
         style="fill:#fcef3c;fill-opacity:1;fill-rule:nonzero;stroke:#000000;stroke-width:2.41211462;stroke-linecap:square;stroke-linejoin:miter;stroke-miterlimit:4;stroke-dasharray:none;stroke-dashoffset:0;stroke-opacity:1" />
      <path
         style="fill:#fcef3c;fill-opacity:1;fill-rule:nonzero;stroke:#000000;stroke-width:2.41211462;stroke-linecap:square;stroke-linejoin:miter;stroke-miterlimit:4;stroke-dasharray:none;stroke-dashoffset:0;stroke-opacity:1"
         d="M 1088.9832,543.82173 C 1088.2748,547.05716 1092.1846,551.40651 1097.9571,551.92878 C 1100.6631,552.17361 1101.8086,551.70358 1102.5849,550.98667 C 1103.3309,550.29782 1104.3858,549.51459 1104.9351,547.68825 C 1105.4671,545.9193 1105.078,544.02829 1104.462,543.07381 C 1103.8378,542.10645 1102.5422,541.01355 1100.5237,540.20621 C 1095.1421,538.05372 1089.6916,540.5863 1088.9832,543.82173 z"
         id="path2351"
         sodipodi:nodetypes="cszzzsc" />
      <rect
         ry="1.5000018"
         rx="1.5000018"
         y="745.59106"
         x="761.23541"
         height="4.5962963"
         width="26.870644"
         id="rect3310"
         style="fill:#fcef3c;fill-opacity:1;fill-rule:nonzero;stroke:#000000;stroke-width:2.41211462;stroke-linecap:square;stroke-linejoin:miter;stroke-miterlimit:4;stroke-dasharray:none;stroke-dashoffset:0;stroke-opacity:1"
         transform="matrix(0.9677608,-0.251871,0.251871,0.9677608,0,0)" />
      <rect
         transform="matrix(0.9964156,-8.4592449e-2,8.4592449e-2,0.9964156,0,0)"
         style="fill:#fcef3c;fill-opacity:1;fill-rule:nonzero;stroke:#000000;stroke-width:2.41211462;stroke-linecap:square;stroke-linejoin:miter;stroke-miterlimit:4;stroke-dasharray:none;stroke-dashoffset:0;stroke-opacity:1"
         id="rect3312"
         width="26.870718"
         height="4.5963101"
         x="904.6239"
         y="601.1875"
         rx="1.5000063"
         ry="1.5000063" />
      <rect
         ry="1.5000049"
         rx="1.5000049"
         y="506.35217"
         x="987.745"
         height="4.5963039"
         width="26.870695"
         id="rect3314"
         style="fill:#fcef3c;fill-opacity:1;fill-rule:nonzero;stroke:#000000;stroke-width:2.41211438;stroke-linecap:square;stroke-linejoin:miter;stroke-miterlimit:4;stroke-dasharray:none;stroke-dashoffset:0;stroke-opacity:1"
         transform="matrix(0.9999049,1.3793028e-2,-1.3793028e-2,0.9999049,0,0)" />
      <rect
         transform="matrix(-0.9677608,-0.251871,-0.251871,0.9677608,0,0)"
         style="fill:#fcef3c;fill-opacity:1;fill-rule:nonzero;stroke:#000000;stroke-width:2.41211462;stroke-linecap:square;stroke-linejoin:miter;stroke-miterlimit:4;stroke-dasharray:none;stroke-dashoffset:0;stroke-opacity:1"
         id="rect3323"
         width="26.870644"
         height="4.5962963"
         x="-1192.5106"
         y="237.10602"
         rx="1.5000018"
         ry="1.5000018" />
      <rect
         ry="1.5000063"
         rx="1.5000063"
         y="430.40939"
         x="-1106.9722"
         height="4.5963101"
         width="26.870718"
         id="rect3325"
         style="fill:#fcef3c;fill-opacity:1;fill-rule:nonzero;stroke:#000000;stroke-width:2.41211462;stroke-linecap:square;stroke-linejoin:miter;stroke-miterlimit:4;stroke-dasharray:none;stroke-dashoffset:0;stroke-opacity:1"
         transform="matrix(-0.9964156,-8.4592449e-2,-8.4592449e-2,0.9964156,0,0)" />
      <rect
         transform="matrix(-0.9999049,1.3793028e-2,1.3793028e-2,0.9999049,0,0)"
         style="fill:#fcef3c;fill-opacity:1;fill-rule:nonzero;stroke:#000000;stroke-width:2.41211438;stroke-linecap:square;stroke-linejoin:miter;stroke-miterlimit:4;stroke-dasharray:none;stroke-dashoffset:0;stroke-opacity:1"
         id="rect3327"
         width="26.870695"
         height="4.5963039"
         x="-1030.8947"
         y="534.198"
         rx="1.5000049"
         ry="1.5000049" />
      <path
         sodipodi:type="arc"
         style="fill:#fcef3c;fill-opacity:1;fill-rule:nonzero;stroke:#000000;stroke-width:2.08318043;stroke-linecap:square;stroke-linejoin:miter;stroke-miterlimit:4;stroke-dasharray:none;stroke-dashoffset:0;stroke-opacity:1"
         id="path3423"
         sodipodi:cx="252.79068"
         sodipodi:cy="213.73354"
         sodipodi:rx="6.3639612"
         sodipodi:ry="6.3639612"
         d="M 259.15464,213.73354 A 6.3639612,6.3639612 0 1 1 246.42672,213.73354 A 6.3639612,6.3639612 0 1 1 259.15464,213.73354 z"
         transform="matrix(1.1579,0,0,1.1579,679.03058,153.48735)" />
      <path
         transform="matrix(1.1579,0,0,1.1579,667.00951,160.20505)"
         d="M 259.15464,213.73354 A 6.3639612,6.3639612 0 1 1 246.42672,213.73354 A 6.3639612,6.3639612 0 1 1 259.15464,213.73354 z"
         sodipodi:ry="6.3639612"
         sodipodi:rx="6.3639612"
         sodipodi:cy="213.73354"
         sodipodi:cx="252.79068"
         id="path3425"
         style="fill:#fcef3c;fill-opacity:1;fill-rule:nonzero;stroke:#000000;stroke-width:2.08318043;stroke-linecap:square;stroke-linejoin:miter;stroke-miterlimit:4;stroke-dasharray:none;stroke-dashoffset:0;stroke-opacity:1"
         sodipodi:type="arc" />
      <path
         sodipodi:type="arc"
         style="fill:#fcef3c;fill-opacity:1;fill-rule:nonzero;stroke:#000000;stroke-width:2.08318043;stroke-linecap:square;stroke-linejoin:miter;stroke-miterlimit:4;stroke-dasharray:none;stroke-dashoffset:0;stroke-opacity:1"
         id="path3427"
         sodipodi:cx="252.79068"
         sodipodi:cy="213.73354"
         sodipodi:rx="6.3639612"
         sodipodi:ry="6.3639612"
         d="M 259.15464,213.73354 A 6.3639612,6.3639612 0 1 1 246.42672,213.73354 A 6.3639612,6.3639612 0 1 1 259.15464,213.73354 z"
         transform="matrix(1.1579,0,0,1.1579,654.98844,168.33695)" />
      <path
         transform="matrix(1.1579,0,0,1.1579,644.02805,177.52955)"
         d="M 259.15464,213.73354 A 6.3639612,6.3639612 0 1 1 246.42672,213.73354 A 6.3639612,6.3639612 0 1 1 259.15464,213.73354 z"
         sodipodi:ry="6.3639612"
         sodipodi:rx="6.3639612"
         sodipodi:cy="213.73354"
         sodipodi:cx="252.79068"
         id="path3429"
         style="fill:#fcef3c;fill-opacity:1;fill-rule:nonzero;stroke:#000000;stroke-width:2.08318043;stroke-linecap:square;stroke-linejoin:miter;stroke-miterlimit:4;stroke-dasharray:none;stroke-dashoffset:0;stroke-opacity:1"
         sodipodi:type="arc" />
      <path
         sodipodi:type="arc"
         style="fill:#fcef3c;fill-opacity:1;fill-rule:nonzero;stroke:#000000;stroke-width:2.08318043;stroke-linecap:square;stroke-linejoin:miter;stroke-miterlimit:4;stroke-dasharray:none;stroke-dashoffset:0;stroke-opacity:1"
         id="path3431"
         sodipodi:cx="252.79068"
         sodipodi:cy="213.73354"
         sodipodi:rx="6.3639612"
         sodipodi:ry="6.3639612"
         d="M 259.15464,213.73354 A 6.3639612,6.3639612 0 1 1 246.42672,213.73354 A 6.3639612,6.3639612 0 1 1 259.15464,213.73354 z"
         transform="matrix(1.1579,0,0,1.1579,633.77479,187.42925)" />
      <path
         transform="matrix(1.1579,0,0,1.1579,624.22865,198.03605)"
         d="M 259.15464,213.73354 A 6.3639612,6.3639612 0 1 1 246.42672,213.73354 A 6.3639612,6.3639612 0 1 1 259.15464,213.73354 z"
         sodipodi:ry="6.3639612"
         sodipodi:rx="6.3639612"
         sodipodi:cy="213.73354"
         sodipodi:cx="252.79068"
         id="path3433"
         style="fill:#fcef3c;fill-opacity:1;fill-rule:nonzero;stroke:#000000;stroke-width:2.08318043;stroke-linecap:square;stroke-linejoin:miter;stroke-miterlimit:4;stroke-dasharray:none;stroke-dashoffset:0;stroke-opacity:1"
         sodipodi:type="arc" />
      <path
         sodipodi:type="arc"
         style="fill:#fcef3c;fill-opacity:1;fill-rule:nonzero;stroke:#000000;stroke-width:2.08318043;stroke-linecap:square;stroke-linejoin:miter;stroke-miterlimit:4;stroke-dasharray:none;stroke-dashoffset:0;stroke-opacity:1"
         id="path3435"
         sodipodi:cx="252.79068"
         sodipodi:cy="213.73354"
         sodipodi:rx="6.3639612"
         sodipodi:ry="6.3639612"
         d="M 259.15464,213.73354 A 6.3639612,6.3639612 0 1 1 246.42672,213.73354 A 6.3639612,6.3639612 0 1 1 259.15464,213.73354 z"
         transform="matrix(1.1579,0,0,1.1579,616.45032,208.99645)" />
      <path
         transform="matrix(1.1579,0,0,1.1579,609.3791,221.01755)"
         d="M 259.15464,213.73354 A 6.3639612,6.3639612 0 1 1 246.42672,213.73354 A 6.3639612,6.3639612 0 1 1 259.15464,213.73354 z"
         sodipodi:ry="6.3639612"
         sodipodi:rx="6.3639612"
         sodipodi:cy="213.73354"
         sodipodi:cx="252.79068"
         id="path3437"
         style="fill:#fcef3c;fill-opacity:1;fill-rule:nonzero;stroke:#000000;stroke-width:2.08318043;stroke-linecap:square;stroke-linejoin:miter;stroke-miterlimit:4;stroke-dasharray:none;stroke-dashoffset:0;stroke-opacity:1"
         sodipodi:type="arc" />
      <path
         id="path7658"
         style="fill:#fcef3c;fill-opacity:1;fill-rule:nonzero;stroke:#000000;stroke-width:2.41211462;stroke-linecap:square;stroke-linejoin:miter;stroke-miterlimit:4;stroke-dasharray:none;stroke-dashoffset:0;stroke-opacity:1"
         d="M 911.22246,504.43483 C 914.87658,503.88342 928.68394,508.00591 928.68394,508.00591 L 921.24214,476.4148 C 921.24214,476.4148 911.49543,487.28665 907.14138,488.92076 C 908.20888,483.04612 912.33138,469.23876 912.33138,469.23876 L 896.53582,472.95966 C 896.53582,472.95966 897.0265,485.94609 899.95063,498.35928 C 902.87476,510.77246 908.23233,522.61242 908.23233,522.61242 L 924.02789,518.89152 C 924.02789,518.89152 914.17578,508.37611 911.22246,504.43483 z"
         sodipodi:nodetypes="cccccczccc" />
      <path
         transform="matrix(-1.1579,0,0,1.1579,1342.0629,153.48735)"
         d="M 259.15464,213.73354 A 6.3639612,6.3639612 0 1 1 246.42672,213.73354 A 6.3639612,6.3639612 0 1 1 259.15464,213.73354 z"
         sodipodi:ry="6.3639612"
         sodipodi:rx="6.3639612"
         sodipodi:cy="213.73354"
         sodipodi:cx="252.79068"
         id="path3494"
         style="fill:#fcef3c;fill-opacity:1;fill-rule:nonzero;stroke:#000000;stroke-width:2.08318043;stroke-linecap:square;stroke-linejoin:miter;stroke-miterlimit:4;stroke-dasharray:none;stroke-dashoffset:0;stroke-opacity:1"
         sodipodi:type="arc" />
      <path
         sodipodi:type="arc"
         style="fill:#fcef3c;fill-opacity:1;fill-rule:nonzero;stroke:#000000;stroke-width:2.08318043;stroke-linecap:square;stroke-linejoin:miter;stroke-miterlimit:4;stroke-dasharray:none;stroke-dashoffset:0;stroke-opacity:1"
         id="path3496"
         sodipodi:cx="252.79068"
         sodipodi:cy="213.73354"
         sodipodi:rx="6.3639612"
         sodipodi:ry="6.3639612"
         d="M 259.15464,213.73354 A 6.3639612,6.3639612 0 1 1 246.42672,213.73354 A 6.3639612,6.3639612 0 1 1 259.15464,213.73354 z"
         transform="matrix(-1.1579,0,0,1.1579,1354.084,160.20505)" />
      <path
         transform="matrix(-1.1579,0,0,1.1579,1366.105,168.33695)"
         d="M 259.15464,213.73354 A 6.3639612,6.3639612 0 1 1 246.42672,213.73354 A 6.3639612,6.3639612 0 1 1 259.15464,213.73354 z"
         sodipodi:ry="6.3639612"
         sodipodi:rx="6.3639612"
         sodipodi:cy="213.73354"
         sodipodi:cx="252.79068"
         id="path3498"
         style="fill:#fcef3c;fill-opacity:1;fill-rule:nonzero;stroke:#000000;stroke-width:2.08318043;stroke-linecap:square;stroke-linejoin:miter;stroke-miterlimit:4;stroke-dasharray:none;stroke-dashoffset:0;stroke-opacity:1"
         sodipodi:type="arc" />
      <path
         sodipodi:type="arc"
         style="fill:#fcef3c;fill-opacity:1;fill-rule:nonzero;stroke:#000000;stroke-width:2.08318043;stroke-linecap:square;stroke-linejoin:miter;stroke-miterlimit:4;stroke-dasharray:none;stroke-dashoffset:0;stroke-opacity:1"
         id="path3500"
         sodipodi:cx="252.79068"
         sodipodi:cy="213.73354"
         sodipodi:rx="6.3639612"
         sodipodi:ry="6.3639612"
         d="M 259.15464,213.73354 A 6.3639612,6.3639612 0 1 1 246.42672,213.73354 A 6.3639612,6.3639612 0 1 1 259.15464,213.73354 z"
         transform="matrix(-1.1579,0,0,1.1579,1377.0654,177.52955)" />
      <path
         transform="matrix(-1.1579,0,0,1.1579,1387.3187,187.42925)"
         d="M 259.15464,213.73354 A 6.3639612,6.3639612 0 1 1 246.42672,213.73354 A 6.3639612,6.3639612 0 1 1 259.15464,213.73354 z"
         sodipodi:ry="6.3639612"
         sodipodi:rx="6.3639612"
         sodipodi:cy="213.73354"
         sodipodi:cx="252.79068"
         id="path3502"
         style="fill:#fcef3c;fill-opacity:1;fill-rule:nonzero;stroke:#000000;stroke-width:2.08318043;stroke-linecap:square;stroke-linejoin:miter;stroke-miterlimit:4;stroke-dasharray:none;stroke-dashoffset:0;stroke-opacity:1"
         sodipodi:type="arc" />
      <path
         sodipodi:type="arc"
         style="fill:#fcef3c;fill-opacity:1;fill-rule:nonzero;stroke:#000000;stroke-width:2.08318043;stroke-linecap:square;stroke-linejoin:miter;stroke-miterlimit:4;stroke-dasharray:none;stroke-dashoffset:0;stroke-opacity:1"
         id="path3504"
         sodipodi:cx="252.79068"
         sodipodi:cy="213.73354"
         sodipodi:rx="6.3639612"
         sodipodi:ry="6.3639612"
         d="M 259.15464,213.73354 A 6.3639612,6.3639612 0 1 1 246.42672,213.73354 A 6.3639612,6.3639612 0 1 1 259.15464,213.73354 z"
         transform="matrix(-1.1579,0,0,1.1579,1396.8649,198.03605)" />
      <path
         transform="matrix(-1.1579,0,0,1.1579,1404.6431,208.99645)"
         d="M 259.15464,213.73354 A 6.3639612,6.3639612 0 1 1 246.42672,213.73354 A 6.3639612,6.3639612 0 1 1 259.15464,213.73354 z"
         sodipodi:ry="6.3639612"
         sodipodi:rx="6.3639612"
         sodipodi:cy="213.73354"
         sodipodi:cx="252.79068"
         id="path3506"
         style="fill:#fcef3c;fill-opacity:1;fill-rule:nonzero;stroke:#000000;stroke-width:2.08318043;stroke-linecap:square;stroke-linejoin:miter;stroke-miterlimit:4;stroke-dasharray:none;stroke-dashoffset:0;stroke-opacity:1"
         sodipodi:type="arc" />
      <path
         sodipodi:type="arc"
         style="fill:#fcef3c;fill-opacity:1;fill-rule:nonzero;stroke:#000000;stroke-width:2.08318043;stroke-linecap:square;stroke-linejoin:miter;stroke-miterlimit:4;stroke-dasharray:none;stroke-dashoffset:0;stroke-opacity:1"
         id="path3508"
         sodipodi:cx="252.79068"
         sodipodi:cy="213.73354"
         sodipodi:rx="6.3639612"
         sodipodi:ry="6.3639612"
         d="M 259.15464,213.73354 A 6.3639612,6.3639612 0 1 1 246.42672,213.73354 A 6.3639612,6.3639612 0 1 1 259.15464,213.73354 z"
         transform="matrix(-1.1579,0,0,1.1579,1411.7144,221.01755)" />
      <path
         sodipodi:nodetypes="cccccczccc"
         d="M 1108.456,504.43483 C 1104.8019,503.88342 1090.9945,508.00591 1090.9945,508.00591 L 1098.4363,476.4148 C 1098.4363,476.4148 1108.183,487.28665 1112.5371,488.92076 C 1111.4696,483.04612 1107.3471,469.23876 1107.3471,469.23876 L 1123.1426,472.95966 C 1123.1426,472.95966 1122.6519,485.94609 1119.7278,498.35928 C 1116.8037,510.77246 1111.4461,522.61242 1111.4461,522.61242 L 1095.6505,518.89152 C 1095.6505,518.89152 1105.5027,508.37611 1108.456,504.43483 z"
         style="fill:#fcef3c;fill-opacity:1;fill-rule:nonzero;stroke:#000000;stroke-width:2.41211462;stroke-linecap:square;stroke-linejoin:miter;stroke-miterlimit:4;stroke-dasharray:none;stroke-dashoffset:0;stroke-opacity:1"
         id="path7682" />
      <path
         transform="matrix(2.907158,0,0,2.907158,275.00177,-235.94427)"
         d="M 259.15464,213.73354 A 6.3639612,6.3639612 0 1 1 246.42672,213.73354 A 6.3639612,6.3639612 0 1 1 259.15464,213.73354 z"
         sodipodi:ry="6.3639612"
         sodipodi:rx="6.3639612"
         sodipodi:cy="213.73354"
         sodipodi:cx="252.79068"
         id="path3578"
         style="fill:#fcef3c;fill-opacity:1;fill-rule:nonzero;stroke:#000000;stroke-width:0.82971567;stroke-linecap:square;stroke-linejoin:miter;stroke-miterlimit:4;stroke-dasharray:none;stroke-dashoffset:0;stroke-opacity:1"
         sodipodi:type="arc" />
      <path
         sodipodi:nodetypes="ccccczcccccccccc"
         d="M 1015.3324,379.16182 C 1021.156,379.16182 1027.0338,381.10563 1027.0338,381.10563 C 1027.9137,381.10563 1028.6221,381.81399 1028.6221,382.69389 L 1028.6221,389.62502 C 1028.6221,390.50491 1027.9137,391.21328 1027.0338,391.21328 C 1027.0338,391.21328 1018.469,389.62502 1009.9042,389.62502 C 1001.3394,389.62502 992.77459,391.21328 992.77459,391.21328 C 991.89469,391.21328 991.18632,390.50491 991.18632,389.62502 L 991.18632,382.69389 C 991.18632,381.81399 991.89469,381.10563 992.77459,381.10563 C 993.65448,381.10563 998.63887,379.16182 1004.476,379.16182 L 1004.476,367.71959 C 1004.476,366.83969 1005.1844,366.13131 1006.0643,366.13131 L 1013.7441,366.13131 C 1014.624,366.13131 1015.3324,366.83969 1015.3324,367.71959 L 1015.3324,379.16182 z"
         style="fill:#fcef3c;fill-opacity:1;fill-rule:nonzero;stroke:#000000;stroke-width:2.41211462;stroke-linecap:square;stroke-linejoin:miter;stroke-miterlimit:4;stroke-dasharray:none;stroke-dashoffset:0;stroke-opacity:1"
         id="rect3596" />
      <path
         id="path3570"
         style="fill:#fcef3c;fill-opacity:1;fill-rule:nonzero;stroke:#000000;stroke-width:2.41211462;stroke-linecap:square;stroke-linejoin:miter;stroke-miterlimit:4;stroke-dasharray:none;stroke-dashoffset:0;stroke-opacity:1"
         d="M 1015.1645,362.2343 C 1017.8542,362.4542 1026.9782,367.69638 1026.9782,367.69638 L 1026.9782,343.99533 C 1026.9782,343.99533 1018.2299,350.09106 1014.8614,350.52354 C 1016.6038,346.52658 1021.846,337.40258 1021.846,337.40258 L 998.14495,337.40258 C 998.14495,337.40258 1004.2407,346.15093 1005.3121,350.52354 C 1001.5785,350.09106 992.83017,343.99533 992.83017,343.99533 L 992.83017,367.69638 C 992.83017,367.69638 1001.9542,362.4542 1005.3121,361.6246 C 1004.2407,365.90592 998.14495,374.65428 998.14495,374.65428 L 1021.846,374.65428 C 1021.846,374.65428 1016.6038,365.53027 1015.1645,362.2343 z"
         sodipodi:nodetypes="ccccccccccccc" />
      <path
         sodipodi:type="arc"
         style="fill:#fcef3c;fill-opacity:1;fill-rule:nonzero;stroke:#000000;stroke-width:2.08318043;stroke-linecap:square;stroke-linejoin:miter;stroke-miterlimit:4;stroke-dasharray:none;stroke-dashoffset:0;stroke-opacity:1"
         id="path3634"
         sodipodi:cx="252.79068"
         sodipodi:cy="213.73354"
         sodipodi:rx="6.3639612"
         sodipodi:ry="6.3639612"
         d="M 259.15464,213.73354 A 6.3639612,6.3639612 0 1 1 246.42672,213.73354 A 6.3639612,6.3639612 0 1 1 259.15464,213.73354 z"
         transform="matrix(1.1579,0,0,1.1579,716.50803,151.85835)" />
      <path
         transform="matrix(1.1579,0,0,1.1579,716.50803,161.78875)"
         d="M 259.15464,213.73354 A 6.3639612,6.3639612 0 1 1 246.42672,213.73354 A 6.3639612,6.3639612 0 1 1 259.15464,213.73354 z"
         sodipodi:ry="6.3639612"
         sodipodi:rx="6.3639612"
         sodipodi:cy="213.73354"
         sodipodi:cx="252.79068"
         id="path3638"
         style="fill:#fcef3c;fill-opacity:1;fill-rule:nonzero;stroke:#000000;stroke-width:2.08318043;stroke-linecap:square;stroke-linejoin:miter;stroke-miterlimit:4;stroke-dasharray:none;stroke-dashoffset:0;stroke-opacity:1"
         sodipodi:type="arc" />
      <path
         sodipodi:type="arc"
         style="fill:#fcef3c;fill-opacity:1;fill-rule:nonzero;stroke:#000000;stroke-width:2.08318043;stroke-linecap:square;stroke-linejoin:miter;stroke-miterlimit:4;stroke-dasharray:none;stroke-dashoffset:0;stroke-opacity:1"
         id="path3642"
         sodipodi:cx="252.79068"
         sodipodi:cy="213.73354"
         sodipodi:rx="6.3639612"
         sodipodi:ry="6.3639612"
         d="M 259.15464,213.73354 A 6.3639612,6.3639612 0 1 1 246.42672,213.73354 A 6.3639612,6.3639612 0 1 1 259.15464,213.73354 z"
         transform="matrix(1.1579,0,0,1.1579,716.50803,171.71915)" />
      <path
         transform="matrix(1.1579,0,0,1.1579,716.50803,181.64955)"
         d="M 259.15464,213.73354 A 6.3639612,6.3639612 0 1 1 246.42672,213.73354 A 6.3639612,6.3639612 0 1 1 259.15464,213.73354 z"
         sodipodi:ry="6.3639612"
         sodipodi:rx="6.3639612"
         sodipodi:cy="213.73354"
         sodipodi:cx="252.79068"
         id="path3646"
         style="fill:#fcef3c;fill-opacity:1;fill-rule:nonzero;stroke:#000000;stroke-width:2.08318043;stroke-linecap:square;stroke-linejoin:miter;stroke-miterlimit:4;stroke-dasharray:none;stroke-dashoffset:0;stroke-opacity:1"
         sodipodi:type="arc" />
      <path
         sodipodi:type="arc"
         style="fill:#fcef3c;fill-opacity:1;fill-rule:nonzero;stroke:#000000;stroke-width:2.08318043;stroke-linecap:square;stroke-linejoin:miter;stroke-miterlimit:4;stroke-dasharray:none;stroke-dashoffset:0;stroke-opacity:1"
         id="path3650"
         sodipodi:cx="252.79068"
         sodipodi:cy="213.73354"
         sodipodi:rx="6.3639612"
         sodipodi:ry="6.3639612"
         d="M 259.15464,213.73354 A 6.3639612,6.3639612 0 1 1 246.42672,213.73354 A 6.3639612,6.3639612 0 1 1 259.15464,213.73354 z"
         transform="matrix(1.1579,0,0,1.1579,716.50803,191.57995)" />
      <path
         transform="matrix(1.1579,0,0,1.1579,716.50803,201.51025)"
         d="M 259.15464,213.73354 A 6.3639612,6.3639612 0 1 1 246.42672,213.73354 A 6.3639612,6.3639612 0 1 1 259.15464,213.73354 z"
         sodipodi:ry="6.3639612"
         sodipodi:rx="6.3639612"
         sodipodi:cy="213.73354"
         sodipodi:cx="252.79068"
         id="path3654"
         style="fill:#fcef3c;fill-opacity:1;fill-rule:nonzero;stroke:#000000;stroke-width:2.08318043;stroke-linecap:square;stroke-linejoin:miter;stroke-miterlimit:4;stroke-dasharray:none;stroke-dashoffset:0;stroke-opacity:1"
         sodipodi:type="arc" />
      <path
         sodipodi:type="arc"
         style="fill:#fcef3c;fill-opacity:1;fill-rule:nonzero;stroke:#000000;stroke-width:2.08318043;stroke-linecap:square;stroke-linejoin:miter;stroke-miterlimit:4;stroke-dasharray:none;stroke-dashoffset:0;stroke-opacity:1"
         id="path3658"
         sodipodi:cx="252.79068"
         sodipodi:cy="213.73354"
         sodipodi:rx="6.3639612"
         sodipodi:ry="6.3639612"
         d="M 259.15464,213.73354 A 6.3639612,6.3639612 0 1 1 246.42672,213.73354 A 6.3639612,6.3639612 0 1 1 259.15464,213.73354 z"
         transform="matrix(1.1579,0,0,1.1579,716.50803,211.44065)" />
      <path
         transform="matrix(1.1579,0,0,1.1579,716.50803,221.37105)"
         d="M 259.15464,213.73354 A 6.3639612,6.3639612 0 1 1 246.42672,213.73354 A 6.3639612,6.3639612 0 1 1 259.15464,213.73354 z"
         sodipodi:ry="6.3639612"
         sodipodi:rx="6.3639612"
         sodipodi:cy="213.73354"
         sodipodi:cx="252.79068"
         id="path3662"
         style="fill:#fcef3c;fill-opacity:1;fill-rule:nonzero;stroke:#000000;stroke-width:2.08318043;stroke-linecap:square;stroke-linejoin:miter;stroke-miterlimit:4;stroke-dasharray:none;stroke-dashoffset:0;stroke-opacity:1"
         sodipodi:type="arc" />
      <path
         sodipodi:nodetypes="ccccccccccccc"
         d="M 1017.1076,498.46559 C 1020.7908,498.76672 1033.2851,505.94528 1033.2851,505.94528 L 1033.2851,473.48947 C 1033.2851,473.48947 1021.3052,481.83685 1016.6925,482.42908 C 1019.0785,476.95572 1026.2571,464.46146 1026.2571,464.46146 L 993.8013,464.46146 C 993.8013,464.46146 1002.1487,476.44131 1003.6159,482.42908 C 998.50318,481.83685 986.52333,473.48947 986.52333,473.48947 L 986.52333,505.94528 C 986.52333,505.94528 999.01759,498.76672 1003.6159,497.63068 C 1002.1487,503.49345 993.8013,515.4733 993.8013,515.4733 L 1026.2571,515.4733 C 1026.2571,515.4733 1019.0785,502.97904 1017.1076,498.46559 z"
         style="fill:#fcef3c;fill-opacity:1;fill-rule:nonzero;stroke:#000000;stroke-width:2.41211462;stroke-linecap:square;stroke-linejoin:miter;stroke-miterlimit:4;stroke-dasharray:none;stroke-dashoffset:0;stroke-opacity:1"
         id="path7434" />
      <path
         sodipodi:nodetypes="ccccccccc"
         id="rect2993"
         d="M 915.04401,533.69285 L 922.06865,531.16669 C 922.85281,530.89161 923.70556,531.30147 923.98064,532.08565 L 924.509,533.5919 C 924.78406,534.37607 924.37422,535.22881 923.59004,535.50389 L 916.5654,538.03005 C 915.78123,538.30512 914.92849,537.89527 914.65341,537.11109 L 914.12505,535.60484 C 913.84997,534.82067 914.25983,533.96793 915.04401,533.69285 z"
         style="fill:#fcef3c;fill-opacity:1;fill-rule:nonzero;stroke:#000000;stroke-width:2.41211462;stroke-linecap:square;stroke-linejoin:miter;stroke-miterlimit:4;stroke-dasharray:none;stroke-dashoffset:0;stroke-opacity:1" />
      <path
         style="fill:#fcef3c;fill-opacity:1;fill-rule:nonzero;stroke:#000000;stroke-width:2.41211462;stroke-linecap:square;stroke-linejoin:miter;stroke-miterlimit:4;stroke-dasharray:none;stroke-dashoffset:0;stroke-opacity:1"
         d="M 1104.119,533.86963 L 1097.0943,531.34347 C 1096.3102,531.0684 1095.4574,531.47825 1095.1823,532.26243 L 1094.654,533.76868 C 1094.3789,534.55285 1094.7888,535.4056 1095.5729,535.68067 L 1102.5976,538.20684 C 1103.3817,538.4819 1104.2345,538.07205 1104.5096,537.28788 L 1105.0379,535.78162 C 1105.313,534.99746 1104.9031,534.14471 1104.119,533.86963 z"
         id="path2996"
         sodipodi:nodetypes="ccccccccc" />
      <path
         transform="matrix(0.8269404,0,0,0.8269404,713.39866,271.6957)"
         d="M 395.62625,318.56213 A 4.5961943,4.5961943 0 1 1 386.43387,318.56213 A 4.5961943,4.5961943 0 1 1 395.62625,318.56213 z"
         sodipodi:ry="4.5961943"
         sodipodi:rx="4.5961943"
         sodipodi:cy="318.56213"
         sodipodi:cx="391.03006"
         id="path2998"
         style="fill:#fcef3c;fill-opacity:1;fill-rule:nonzero;stroke:#000000;stroke-width:2.9169147;stroke-linecap:square;stroke-linejoin:miter;stroke-miterlimit:4;stroke-dasharray:none;stroke-dashoffset:0;stroke-opacity:1"
         sodipodi:type="arc" />
      <path
         sodipodi:type="arc"
         style="fill:#fcef3c;fill-opacity:1;fill-rule:nonzero;stroke:#000000;stroke-width:2.9169147;stroke-linecap:square;stroke-linejoin:miter;stroke-miterlimit:4;stroke-dasharray:none;stroke-dashoffset:0;stroke-opacity:1"
         id="path3903"
         sodipodi:cx="391.03006"
         sodipodi:cy="318.56213"
         sodipodi:rx="4.5961943"
         sodipodi:ry="4.5961943"
         d="M 395.62625,318.56213 A 4.5961943,4.5961943 0 1 1 386.43387,318.56213 A 4.5961943,4.5961943 0 1 1 395.62625,318.56213 z"
         transform="matrix(0.8269404,0,0,0.8269404,755.32641,276.99912)" />
      <path
         sodipodi:type="arc"
         style="fill:#fcef3c;fill-opacity:1;fill-rule:nonzero;stroke:#000000;stroke-width:2.9169147;stroke-linecap:square;stroke-linejoin:miter;stroke-miterlimit:4;stroke-dasharray:none;stroke-dashoffset:0;stroke-opacity:1"
         id="path3923"
         sodipodi:cx="391.03006"
         sodipodi:cy="318.56213"
         sodipodi:rx="4.5961943"
         sodipodi:ry="4.5961943"
         d="M 395.62625,318.56213 A 4.5961943,4.5961943 0 1 1 386.43387,318.56213 A 4.5961943,4.5961943 0 1 1 395.62625,318.56213 z"
         transform="matrix(-0.8269404,0,0,0.8269404,1305.4063,271.6957)" />
      <path
         transform="matrix(-0.8269404,0,0,0.8269404,1264.3092,277.56031)"
         d="M 395.62625,318.56213 A 4.5961943,4.5961943 0 1 1 386.43387,318.56213 A 4.5961943,4.5961943 0 1 1 395.62625,318.56213 z"
         sodipodi:ry="4.5961943"
         sodipodi:rx="4.5961943"
         sodipodi:cy="318.56213"
         sodipodi:cx="391.03006"
         id="path3933"
         style="fill:#fcef3c;fill-opacity:1;fill-rule:nonzero;stroke:#000000;stroke-width:2.9169147;stroke-linecap:square;stroke-linejoin:miter;stroke-miterlimit:4;stroke-dasharray:none;stroke-dashoffset:0;stroke-opacity:1"
         sodipodi:type="arc" />
    </g>
    <path
       style="fill:#2b5df2;fill-opacity:1;fill-rule:evenodd;stroke:#000000;stroke-width:1.79999995;stroke-linecap:butt;stroke-linejoin:miter;stroke-miterlimit:4;stroke-dasharray:none;stroke-opacity:1"
       d="M 216.42188,460.86456 C 193.70999,460.86455 192.36253,472.23317 175.07813,472.08331 C 163.29455,471.98112 158.51352,466.8185 148.95313,463.52081 C 149.09222,465.04184 149.26206,466.55707 149.45313,468.05206 C 154.72227,474.28584 160.13424,480.24154 165.64063,485.89581 C 168.34141,486.71905 171.35114,487.26975 175.07813,487.30206 C 192.36252,487.45196 193.70998,476.11456 216.42188,476.11456 C 238.52372,476.11456 241.09555,487.30206 257.76563,487.30206 C 276.87598,487.30207 278.74765,476.11456 299.07813,476.11456 C 321.23877,476.11456 321.31152,487.30206 340.42188,487.30206 C 358.31208,487.30207 359.60729,476.11443 381.76563,476.11456 C 403.3139,476.1147 405.09963,487.51041 423.07813,487.30206 C 428.45671,487.23974 432.1472,486.25668 435.32813,484.89581 C 440.46616,479.57798 445.52522,474.00169 450.45313,468.17706 C 450.68852,466.33332 450.88836,464.46674 451.04688,462.58331 C 439.57576,465.69213 436.87924,471.92338 423.07813,472.08331 C 405.09967,472.29164 403.31391,460.86469 381.76563,460.86456 C 359.60728,460.86441 358.31209,472.08331 340.42188,472.08331 C 321.31151,472.0833 321.23877,460.86456 299.07813,460.86456 C 278.74765,460.86455 276.87597,472.08331 257.76563,472.08331 C 241.09556,472.0833 238.52371,460.86456 216.42188,460.86456 z M 218.14063,491.58331 C 198.33769,491.58332 194.77698,500.2194 182.73438,502.33331 C 186.76253,505.96705 190.79367,509.45373 194.82813,512.80206 C 200.32361,509.87479 206.33846,506.8333 218.14063,506.83331 C 240.24247,506.8333 242.81434,518.05208 259.48438,518.05206 C 278.59471,518.05205 280.49768,506.83329 300.82813,506.83331 C 322.98881,506.8333 323.0303,518.05208 342.14063,518.05206 C 360.03078,518.05205 361.32604,506.83316 383.48438,506.83331 C 394.25853,506.83337 400.09188,509.69104 405.48438,512.52081 C 409.47723,509.19948 413.46744,505.74674 417.45313,502.14581 C 405.80804,499.72959 401.66576,491.58342 383.48438,491.58331 C 361.32603,491.58318 360.03077,502.80205 342.14063,502.80206 C 323.03031,502.80206 322.9888,491.58331 300.82813,491.58331 C 280.49769,491.58332 278.59474,502.80205 259.48438,502.80206 C 242.81432,502.80206 240.24249,491.58331 218.14063,491.58331 z M 218.14063,520.92706 C 213.48981,520.92706 209.75682,521.42126 206.57813,522.17706 C 213.46506,527.473 220.25805,532.35311 226.85938,536.83331 C 241.32288,539.2573 245.30837,547.36456 259.48438,547.36456 C 278.59471,547.36454 280.49768,536.17704 300.82813,536.17706 C 322.98881,536.17706 323.0303,547.36456 342.14063,547.36456 C 356.43271,547.36454 360.15395,540.24026 372.35938,537.36456 C 379.28513,532.68582 386.42707,527.57012 393.67188,521.98956 C 390.79868,521.34903 387.49204,520.92708 383.48438,520.92706 C 361.32603,520.92694 360.03077,532.1458 342.14063,532.14581 C 323.03031,532.14581 322.9888,520.92706 300.82813,520.92706 C 280.49769,520.92708 278.59474,532.1458 259.48438,532.14581 C 242.81432,532.14581 240.24249,520.92706 218.14063,520.92706 z"
       id="path6080" />
    <g
       id="g6160"
       transform="translate(0,5.6119585)">
      <path
         id="path4584"
         d="M 152.58252,358.38703 L 294.7351,300.47302 L 236.82109,442.62559 L 300,400.5063 L 363.17894,442.62559 L 305.26493,300.47302 L 447.41749,358.38703 L 405.29823,295.20811 L 447.41749,232.02919 L 305.26493,289.9432 L 363.17894,147.79063 L 300,189.9099 L 236.82109,147.79063 L 294.7351,289.9432 L 152.58252,232.02919 L 194.7018,295.20811 L 152.58252,358.38703 z"
         style="fill:#ffffff;stroke:#000000;stroke-width:2.5;stroke-miterlimit:4;stroke-dasharray:none;stroke-opacity:1" />
      <path
         transform="matrix(0.7498269,0,0,0.7498269,70.291125,375.61523)"
         d="M 342.85715,-103.49207 A 36.507938,36.507938 0 1 1 269.84127,-103.49207 A 36.507938,36.507938 0 1 1 342.85715,-103.49207 z"
         sodipodi:ry="36.507938"
         sodipodi:rx="36.507938"
         sodipodi:cy="-103.49207"
         sodipodi:cx="306.34921"
         id="path5939"
         style="fill:#fcef3c;stroke:#000000;stroke-width:3.33410287;stroke-linejoin:bevel;stroke-miterlimit:4;stroke-dasharray:none;stroke-opacity:1"
         sodipodi:type="arc" />
    </g>
    <path
       id="path6046"
       style="fill:#5ab532;fill-opacity:1;fill-rule:evenodd;stroke:none;stroke-width:1px;stroke-linecap:butt;stroke-linejoin:miter;stroke-opacity:1"
       d="M 233.35298,-478.00794 C 233.35298,-478.00794 531.85308,-590.32825 531.85308,-875.77977 C 531.85308,-1161.2313 531.85308,-1134.3315 531.85308,-1134.3315 L -65.147019,-1134.3315 L -65.147019,-875.77977 C -65.147019,-590.32825 233.35298,-478.00794 233.35298,-478.00794 z"
       sodipodi:nodetypes="cccccc" />
    <g
       id="g6048"
       inkscape:label="Fond écu"
       style="display:inline"
       transform="matrix(0.5352397,0,0,0.5352397,76.489981,-643.54487)">
      <path
         sodipodi:nodetypes="ccsssssssccsssssssc"
         d="M 898.24749,-390.95886 L 898.24748,-321.70728 C 809.03193,-319.44151 812.30918,-271.72798 746.15961,-270.7812 C 680.00474,-269.83434 673.36221,-321.70666 594.07179,-321.70728 C 512.53654,-321.7079 507.81386,-270.7812 441.98396,-270.7812 C 371.66437,-270.7812 371.4399,-321.70728 289.89611,-321.70728 C 215.08685,-321.70728 208.12786,-270.7812 137.80827,-270.7812 C 76.468057,-270.7812 67.047752,-321.70728 -14.279559,-321.70728 C -97.851718,-321.70728 -102.76665,-270.10011 -166.36742,-270.7812 C -227.70764,-271.43808 -237.64105,-318.02313 -318.45525,-321.70728 L -318.45525,-390.95886 C -237.64105,-387.27471 -227.70764,-340.68965 -166.36742,-340.03277 C -102.76665,-339.35169 -97.851718,-390.95886 -14.279563,-390.95886 C 67.047748,-390.95886 76.468053,-340.03277 137.80827,-340.03277 C 208.12786,-340.03277 215.08685,-390.95886 289.89611,-390.95886 C 371.43989,-390.95886 371.66437,-340.03277 441.98396,-340.03277 C 507.81386,-340.03277 512.53654,-390.95948 594.07179,-390.95886 C 673.36221,-390.95824 680.00474,-339.08591 746.15962,-340.03277 C 812.30918,-340.97956 809.03193,-388.69309 898.24749,-390.95886 z"
         style="fill:#2b5df2;fill-rule:evenodd;stroke:#000000;stroke-width:2.96987557;stroke-linecap:butt;stroke-linejoin:miter;stroke-miterlimit:4;stroke-dasharray:none;stroke-opacity:1"
         id="path6050" />
      <path
         sodipodi:nodetypes="ccsssssssccsssssssc"
         d="M 904.5967,-251.27632 L 904.59669,-182.02474 C 815.38114,-179.75897 818.65839,-132.04544 752.50882,-131.09866 C 686.35395,-130.1518 679.71142,-182.02412 600.421,-182.02474 C 518.88575,-182.02536 514.16307,-131.09866 448.33317,-131.09866 C 378.01358,-131.09866 377.78911,-182.02474 296.24532,-182.02474 C 221.43606,-182.02474 214.47707,-131.09866 144.15748,-131.09866 C 82.817263,-131.09866 73.396958,-182.02474 -7.9303529,-182.02474 C -91.502512,-182.02474 -96.417442,-130.41757 -160.01821,-131.09866 C -221.35843,-131.75554 -231.29184,-178.34059 -312.10604,-182.02474 L -312.10604,-251.27632 C -231.29184,-247.59217 -221.35843,-201.00711 -160.01821,-200.35023 C -96.417442,-199.66915 -91.502512,-251.27632 -7.9303569,-251.27632 C 73.396954,-251.27632 82.817259,-200.35023 144.15748,-200.35023 C 214.47707,-200.35023 221.43606,-251.27632 296.24532,-251.27632 C 377.7891,-251.27632 378.01358,-200.35023 448.33317,-200.35023 C 514.16307,-200.35023 518.88575,-251.27694 600.421,-251.27632 C 679.71142,-251.2757 686.35395,-199.40337 752.50883,-200.35023 C 818.65839,-201.29702 815.38114,-249.01055 904.5967,-251.27632 z"
         style="fill:#2b5df2;fill-rule:evenodd;stroke:#000000;stroke-width:2.96987557;stroke-linecap:butt;stroke-linejoin:miter;stroke-miterlimit:4;stroke-dasharray:none;stroke-opacity:1"
         id="path6052" />
      <path
         id="path6054"
         style="fill:#2b5df2;fill-rule:evenodd;stroke:#000000;stroke-width:2.96987557;stroke-linecap:butt;stroke-linejoin:miter;stroke-miterlimit:4;stroke-dasharray:none;stroke-opacity:1"
         d="M 904.5967,-117.94299 L 904.59669,-48.691411 C 815.38114,-46.425641 818.65839,1.2878891 752.50882,2.2346691 C 686.35395,3.1815291 679.71142,-48.690791 600.421,-48.691411 C 518.88575,-48.692031 514.16307,2.2346691 448.33317,2.2346691 C 378.01358,2.2346691 377.78911,-48.691411 296.24532,-48.691411 C 221.43606,-48.691411 214.47707,2.2346691 144.15748,2.2346691 C 82.817263,2.2346691 73.396958,-48.691411 -7.9303529,-48.691411 C -91.502512,-48.691411 -96.417442,2.9157591 -160.01821,2.2346691 C -221.35843,1.5777891 -231.29184,-45.007261 -312.10604,-48.691411 L -312.10604,-117.94299 C -231.29184,-114.25884 -221.35843,-67.673781 -160.01821,-67.016901 C -96.417442,-66.335821 -91.502512,-117.94299 -7.9303569,-117.94299 C 73.396954,-117.94299 82.817259,-67.016901 144.15748,-67.016901 C 214.47707,-67.016901 221.43606,-117.94299 296.24532,-117.94299 C 377.7891,-117.94299 378.01358,-67.016901 448.33317,-67.016901 C 514.16307,-67.016901 518.88575,-117.94361 600.421,-117.94299 C 679.71142,-117.94237 686.35395,-66.070041 752.50883,-67.016901 C 818.65839,-67.963691 815.38114,-115.67722 904.5967,-117.94299 z"
         sodipodi:nodetypes="ccsssssssccsssssssc" />
    </g>
    <path
       style="font-size:46.25594711px;font-style:normal;font-variant:normal;font-weight:bold;font-stretch:normal;text-align:start;line-height:125%;writing-mode:lr-tb;text-anchor:start;fill:#000000;fill-opacity:1;stroke:none;stroke-width:1px;stroke-linecap:butt;stroke-linejoin:miter;stroke-opacity:1;display:inline;font-family:Bitstream Vera Sans;-inkscape-font-specification:Bitstream Vera Sans Bold"
       d="M 101.88842,445.11675 L 106.99315,452.15627 L 79.69445,471.952 L 74.58972,464.91248 L 101.88842,445.11675 z M 110.89458,457.49869 L 116.3977,464.23135 L 95.37781,481.41252 L 105.04043,493.23402 L 99.95159,497.39352 L 84.78585,478.83936 L 110.89458,457.49869 z M 128.24676,478.36397 L 134.19929,484.70276 L 114.40908,503.28705 L 124.86081,514.41699 L 120.06967,518.91618 L 103.6654,501.44745 L 128.24676,478.36397 z M 147.46937,498.33971 L 153.73876,504.3653 L 130.37199,528.67752 L 124.1026,522.65193 L 147.46937,498.33971 z M 158.48991,509.05248 L 165.08805,514.71619 L 151.92177,530.05472 C 150.1074,532.16841 149.15601,533.97608 149.06758,535.47774 C 148.97912,536.97939 149.71753,538.40202 151.28282,539.74562 C 152.8595,541.09902 154.3833,541.61823 155.85424,541.30327 C 157.32513,540.98828 158.96776,539.77395 160.78213,537.66027 L 173.94841,522.32174 L 180.54655,527.98545 L 167.38027,543.32398 C 164.27133,546.9458 161.0485,548.8625 157.71176,549.07409 C 154.37498,549.28564 150.84427,547.79284 147.11963,544.59568 C 143.40638,541.4083 141.40151,538.14948 141.10502,534.8192 C 140.80851,531.48891 142.21471,528.01285 145.32363,524.39101 L 158.48991,509.05248 z M 203.63774,546.69416 L 199.36835,552.41352 C 198.37956,550.64201 197.30542,549.0604 196.14592,547.6687 C 194.98634,546.27702 193.77913,545.11281 192.52428,544.17605 C 190.85912,542.93307 189.45724,542.2436 188.31863,542.10763 C 187.17996,541.97168 186.25036,542.38635 185.52981,543.35163 C 184.98935,544.07561 184.83674,544.84012 185.07197,545.64514 C 185.30715,546.45018 186.02254,547.52441 187.21813,548.86783 L 189.74055,551.68087 C 192.29464,554.52697 193.74581,557.03826 194.09405,559.21476 C 194.44224,561.39126 193.76967,563.61373 192.07636,565.88218 C 189.85156,568.86251 187.31265,570.41989 184.45962,570.55433 C 181.60654,570.68874 178.36406,569.40037 174.73215,566.68923 C 173.01875,565.4102 171.42092,563.96379 169.93866,562.34998 C 168.45638,560.73617 167.09121,558.9655 165.84313,557.03797 L 170.23412,551.15571 C 171.27503,553.36077 172.42752,555.29679 173.69159,556.9638 C 174.95563,558.6308 176.33576,560.02274 177.83198,561.13964 C 179.3523,562.27453 180.70584,562.89034 181.89259,562.98704 C 183.0793,563.08374 184.02395,562.66151 184.72653,561.72035 C 185.35701,560.87572 185.56889,560.01923 185.36217,559.15089 C 185.15541,558.28255 184.36665,557.0549 182.99589,555.46794 L 180.74496,552.85757 C 178.47446,550.26079 177.18768,547.86281 176.8846,545.66361 C 176.58149,543.46443 177.23157,541.29095 178.83487,539.14316 C 180.84344,536.45242 183.25694,535.03159 186.07535,534.88066 C 188.89371,534.72977 191.93183,535.87029 195.18973,538.3022 C 196.67383,539.4101 198.11688,540.66112 199.51889,542.05526 C 200.92082,543.44943 202.29377,544.99573 203.63774,546.69416 L 203.63774,546.69416 z M 223.25133,558.79605 L 235.53396,566.37437 C 239.18604,568.62772 241.48912,571.16777 242.44319,573.99451 C 243.39719,576.82128 242.94915,579.73394 241.09909,582.73252 C 239.24104,585.74391 236.83485,587.45725 233.88052,587.87255 C 230.92613,588.28784 227.62289,587.36882 223.9708,585.11549 L 219.0885,582.10313 L 212.9452,592.05995 L 205.54486,587.49398 L 223.25133,558.79605 z M 227.34282,568.72486 L 222.39734,576.74029 L 226.49156,579.2664 C 227.92675,580.15192 229.25065,580.48664 230.46325,580.27054 C 231.67581,580.05445 232.67742,579.30568 233.46809,578.02423 C 234.2587,576.7428 234.47666,575.51494 234.12196,574.34066 C 233.76719,573.1664 232.87222,572.1365 231.43703,571.25097 L 227.34282,568.72486 z M 255.43419,609.35699 L 243.45313,602.92855 L 238.65788,607.32746 L 230.95577,603.19488 L 257.90461,579.38626 L 267.03967,584.28769 L 262.10255,619.90672 L 254.40044,615.77414 L 255.43419,609.35699 z M 248.32167,598.4408 L 256.46163,602.8083 L 258.74462,588.80805 L 248.32167,598.4408 z M 285.12304,609.79204 C 286.7841,610.54053 288.11418,610.76827 289.11329,610.47526 C 290.11234,610.18227 290.93045,609.32878 291.56762,607.91479 C 292.19854,606.51455 292.28975,605.35003 291.84124,604.42123 C 291.39266,603.49246 290.33785,602.65382 288.6768,601.90532 L 285.3409,600.40216 L 281.78714,608.28888 L 285.12304,609.79204 z M 279.319,613.76634 L 274.07651,625.40079 L 266.14861,621.82847 L 280.00177,591.08469 L 292.10984,596.5406 C 296.15955,598.36544 298.82202,600.38265 300.09726,602.59225 C 301.37242,604.80189 301.34813,607.37559 300.02441,610.31336 C 299.10887,612.34511 297.86651,613.79191 296.29735,614.65377 C 294.72811,615.51565 292.81592,615.81008 290.56076,615.53708 C 291.53389,616.27287 292.25307,617.26993 292.7183,618.52826 C 293.18347,619.7866 293.45638,621.49917 293.53703,623.66598 L 293.90656,634.33622 L 285.46386,630.53193 L 285.15854,621.20359 C 285.09629,619.32584 284.80417,617.93079 284.28218,617.01844 C 283.76015,616.1061 282.85393,615.35919 281.56352,614.77772 L 279.319,613.76634 z M 299.30535,598.43549 L 320.52454,588.41377 L 323.33139,594.35678 L 309.97494,600.66497 L 312.65641,606.34248 L 325.21637,600.41047 L 328.02322,606.35348 L 315.46326,612.28549 L 318.76203,619.27005 L 332.56778,612.74966 L 335.37464,618.69267 L 313.70615,628.92659 L 299.30535,598.43549 z M 325.88144,585.74194 L 334.37766,581.03703 L 356.31085,595.32854 L 345.10659,575.09571 L 352.31849,571.102 L 368.65439,600.60163 L 360.15818,605.30655 L 338.22498,591.01503 L 349.42925,611.24787 L 342.21735,615.24158 L 325.88144,585.74194 z M 354.45471,569.84834 L 380.67747,553.16835 L 384.205,558.71401 L 374.77167,564.71444 L 389.34241,587.62125 L 382.00537,592.28825 L 367.43463,569.38144 L 357.98223,575.394 L 354.45471,569.84834 z M 383.06658,551.29237 L 390.19643,546.3146 L 409.49985,573.96362 L 402.37,578.94139 L 383.06658,551.29237 z M 415.19513,528.86482 L 419.54839,534.52061 C 417.57562,534.99403 415.76263,535.60094 414.10943,536.34134 C 412.45623,537.08182 411.00916,537.92961 409.76822,538.88472 C 408.1216,540.15216 407.07903,541.31564 406.6405,542.37518 C 406.20199,543.43478 406.35009,544.44184 407.08481,545.39638 C 407.63586,546.11233 408.33071,546.46581 409.16935,546.45681 C 410.00799,546.44787 411.23555,546.0493 412.85201,545.26111 L 416.24191,543.59246 C 419.67219,541.90226 422.48216,541.18351 424.67181,541.43622 C 426.86144,541.68899 428.81956,542.93697 430.54619,545.18017 C 432.81464,548.12742 433.62819,550.99266 432.98684,553.77592 C 432.34546,556.55922 430.229,559.33307 426.63747,562.09746 C 424.94311,563.40161 423.1188,564.54926 421.16456,565.54041 C 419.2103,566.53157 417.13665,567.36762 414.94362,568.04854 L 410.46637,562.23166 C 412.87065,561.82518 415.04604,561.23859 416.99256,560.47189 C 418.93907,559.70521 420.65212,558.75245 422.1317,557.61361 C 423.63513,556.45643 424.59371,555.3196 425.00744,554.2031 C 425.42114,553.08664 425.26982,552.06305 424.55347,551.13233 C 423.91058,550.2971 423.14318,549.86171 422.25129,549.82615 C 421.35938,549.79063 419.96428,550.21839 418.06601,551.10944 L 414.94458,552.57145 C 411.83096,554.05596 409.17451,554.64706 406.97521,554.34473 C 404.77592,554.04243 402.85889,552.82932 401.22411,550.70539 C 399.17607,548.04457 398.46011,545.33697 399.07622,542.58259 C 399.69236,539.82826 401.61125,537.21124 404.8329,534.7315 C 406.30055,533.60189 407.8949,532.55048 409.61597,531.57725 C 411.33705,530.60411 413.19677,529.69996 415.19513,528.86482 L 415.19513,528.86482 z M 446.87235,507.15482 C 444.95219,508.98129 444.13751,511.10697 444.42831,513.53187 C 444.71912,515.95681 446.08906,518.45666 448.53815,521.0314 C 450.97687,523.59528 453.3999,525.08305 455.80725,525.49472 C 458.21459,525.90642 460.37834,525.19904 462.29849,523.37258 C 464.22959,521.53578 465.04969,519.40491 464.75889,516.97997 C 464.46809,514.55507 463.10339,512.06069 460.66465,509.4968 C 458.21555,506.92207 455.78733,505.42884 453.37999,505.01712 C 450.97264,504.60547 448.80343,505.31804 446.87235,507.15482 L 446.87235,507.15482 z M 442.52936,502.58897 C 446.45698,498.85311 450.60249,497.05039 454.9659,497.1808 C 459.32931,497.3113 463.39449,499.35669 467.16159,503.31699 C 470.91819,507.26646 472.75259,511.42341 472.66479,515.78786 C 472.57689,520.15236 470.56909,524.20254 466.64149,527.93843 C 462.72479,531.66397 458.58201,533.46409 454.21315,533.33882 C 449.84429,533.21356 445.78153,531.17622 442.02486,527.22678 C 438.25784,523.26645 436.42099,519.10145 436.51431,514.73176 C 436.60766,510.36213 438.61267,506.31453 442.52936,502.58897 L 442.52936,502.58897 z M 477.43699,488.99738 C 478.64859,487.6368 479.26439,486.43602 479.28409,485.39502 C 479.30379,484.35408 478.73459,483.31787 477.57639,482.2864 C 476.42939,481.265 475.34569,480.82916 474.32519,480.97885 C 473.30469,481.12861 472.18859,481.88377 470.97689,483.24434 L 468.54349,485.97678 L 475.00359,491.72982 L 477.43699,488.99738 z M 479.49019,495.7254 L 489.01999,504.21226 L 483.23689,510.70603 L 458.05455,488.2797 L 466.88689,478.36194 C 469.84099,475.04482 472.56319,473.10886 475.05329,472.55407 C 477.54339,471.99936 479.99169,472.79348 482.39799,474.93643 C 484.06219,476.41854 485.07049,478.03723 485.42269,479.79252 C 485.77489,481.54787 485.48309,483.46045 484.54709,485.53028 C 485.54059,484.82223 486.70729,484.43475 488.04719,484.36782 C 489.38709,484.30095 491.10279,484.55357 493.19419,485.12569 L 503.48519,487.9694 L 497.32659,494.88484 L 488.33509,492.38184 C 486.52499,491.87875 485.10649,491.73957 484.07959,491.96429 C 483.05279,492.18906 482.06879,492.82993 481.12739,493.8869 L 479.49019,495.7254 z M 513.98809,463.82577 L 505.85339,474.72065 L 509.49229,480.11539 L 504.26289,487.11925 L 484.71539,456.93673 L 490.91769,448.62983 L 525.41029,458.79617 L 520.18089,465.80002 L 513.98809,463.82577 z M 502.13749,469.24025 L 507.66419,461.83824 L 494.15749,457.50367 L 502.13749,469.24025 z"
       id="text6128" />
  </g>
  <g
     inkscape:groupmode="layer"
     id="layer4"
     inkscape:label="Meubles"
     sodipodi:insensitive="true" />
  <g
     inkscape:groupmode="layer"
     id="layer2"
     inkscape:label="Reflet final"
     sodipodi:insensitive="true">
    <path
       sodipodi:nodetypes="cccccc"
       d="M 300.00001,658.5 C 300.00001,658.5 598.50001,546.17969 598.50001,260.72817 C 598.50001,-24.723334 598.50001,2.1764865 598.50001,2.1764865 L 1.5,2.1764865 L 1.5,260.72817 C 1.5,546.17969 300.00001,658.5 300.00001,658.5 z"
       style="opacity:1;fill:url(#radialGradient3163);fill-opacity:1;fill-rule:evenodd;stroke:none;stroke-width:1px;stroke-linecap:butt;stroke-linejoin:miter;stroke-opacity:1"
       id="path2875"
       inkscape:export-xdpi="144"
       inkscape:export-ydpi="144" />
  </g>
  <g
     inkscape:groupmode="layer"
     id="layer1"
     inkscape:label="Contour final"
     sodipodi:insensitive="true">
    <path
       sodipodi:nodetypes="cccccc"
       d="M 299.99999,658.50028 C 299.99999,658.50028 1.5,546.17992 1.5,260.72828 C 1.5,-24.723336 1.5,2.1764957 1.5,2.1764957 L 598.49999,2.1764957 L 598.49999,260.72828 C 598.49999,546.17992 299.99999,658.50028 299.99999,658.50028 z"
       style="opacity:1;fill:none;fill-opacity:1;fill-rule:evenodd;stroke:#000000;stroke-width:3.00000048;stroke-linecap:butt;stroke-linejoin:miter;stroke-miterlimit:4;stroke-dasharray:none;stroke-opacity:1"
       id="path1411"
       inkscape:export-xdpi="144"
       inkscape:export-ydpi="144" />
  </g>
</svg>
