<?xml version="1.0" encoding="UTF-8" standalone="no"?>
<svg
   xmlns:dc="http://purl.org/dc/elements/1.1/"
   xmlns:cc="http://creativecommons.org/ns#"
   xmlns:rdf="http://www.w3.org/1999/02/22-rdf-syntax-ns#"
   xmlns:svg="http://www.w3.org/2000/svg"
   xmlns="http://www.w3.org/2000/svg"
   xmlns:xlink="http://www.w3.org/1999/xlink"
   xmlns:sodipodi="http://sodipodi.sourceforge.net/DTD/sodipodi-0.dtd"
   xmlns:inkscape="http://www.inkscape.org/namespaces/inkscape"
   height="660"
   width="600"
   version="1.0"
   id="svg2"
   sodipodi:version="0.32"
   inkscape:version="0.46"
   sodipodi:docname="Blason ville fr Faverolles-sur-Cher (Loir-et-Cher).svg"
   sodipodi:docbase="D:\Mes documents\Renaud-Notre Lapin"
   inkscape:export-filename="/Users/olivier/Desktop/Blason Rouge/Blason_Vide_3D.png"
   inkscape:export-xdpi="144"
   inkscape:export-ydpi="144"
   inkscape:output_extension="org.inkscape.output.svg.inkscape">
  <metadata
     id="metadata49">
    <rdf:RDF>
      <cc:Work
         rdf:about="">
        <dc:format>image/svg+xml</dc:format>
        <dc:type
           rdf:resource="http://purl.org/dc/dcmitype/StillImage" />
        <dc:title>Gabarit d'un blason en pointe pour le projet Blasons de Wikipédia</dc:title>
        <dc:date>03-AUG-2006</dc:date>
        <dc:creator>
          <cc:Agent>
            <dc:title>Jérôme BLUM (wagner51)</dc:title>
          </cc:Agent>
        </dc:creator>
        <cc:license
           rdf:resource="http://web.resource.org/cc/PublicDomain" />
        <dc:language>fr</dc:language>
        <dc:subject>
          <rdf:Bag>
            <rdf:li>gabarit modèle blason projet wikipédia</rdf:li>
          </rdf:Bag>
        </dc:subject>
      </cc:Work>
      <cc:License
         rdf:about="http://web.resource.org/cc/PublicDomain">
        <cc:permits
           rdf:resource="http://web.resource.org/cc/Reproduction" />
        <cc:permits
           rdf:resource="http://web.resource.org/cc/Distribution" />
        <cc:permits
           rdf:resource="http://web.resource.org/cc/DerivativeWorks" />
      </cc:License>
    </rdf:RDF>
  </metadata>
  <sodipodi:namedview
     inkscape:window-height="814"
     inkscape:window-width="1152"
     inkscape:pageshadow="2"
     inkscape:pageopacity="1"
     guidetolerance="10.0"
     gridtolerance="10.0"
     objecttolerance="10.0"
     borderopacity="1.0"
     bordercolor="#666666"
     pagecolor="#f2efe7"
     id="base"
     showgrid="false"
     height="660px"
     inkscape:zoom="0.63"
     inkscape:cx="89.009806"
     inkscape:cy="367.12302"
     inkscape:window-x="-8"
     inkscape:window-y="-8"
     inkscape:current-layer="layer4" />
  <desc
     id="desc4">Flag of Canton of Valais (Wallis)</desc>
  <defs
     id="defs6">
    <linearGradient
       id="linearGradient2893">
      <stop
         style="stop-color:white;stop-opacity:0.3137255;"
         offset="0"
         id="stop2895" />
      <stop
         id="stop2897"
         offset="0.19"
         style="stop-color:white;stop-opacity:0.25098041;" />
      <stop
         style="stop-color:#6b6b6b;stop-opacity:0.1254902;"
         offset="0.60000002"
         id="stop2901" />
      <stop
         style="stop-color:black;stop-opacity:0.1254902;"
         offset="1"
         id="stop2899" />
    </linearGradient>
    <radialGradient
       inkscape:collect="always"
       xlink:href="#linearGradient2893"
       id="radialGradient3163"
       gradientUnits="userSpaceOnUse"
       gradientTransform="matrix(1.353218,0,0,1.348928,-77.62935,-85.74693)"
       cx="221.44487"
       cy="226.33101"
       fx="221.44487"
       fy="226.33101"
       r="300" />
  </defs>
  <g
     inkscape:groupmode="layer"
     id="layer3"
     inkscape:label="Fond écu"
     style="display:inline">
    <path
       id="path2855"
       style="fill:#2b5df2;fill-opacity:1;fill-rule:evenodd;stroke:none;stroke-width:1px;stroke-linecap:butt;stroke-linejoin:miter;stroke-opacity:1"
       d="M 300,658.5 C 300,658.5 598.50001,546.17969 598.50001,260.72817 C 598.50001,-24.723354 598.50001,2.1764765 598.50001,2.1764765 L 1.5,2.1764765 L 1.5,260.72817 C 1.5,546.17969 300,658.5 300,658.5 z"
       sodipodi:nodetypes="cccccc" />
    <path
       sodipodi:type="arc"
       style="opacity:0.61494254;fill:#fcef3c;fill-opacity:0.990625;fill-rule:evenodd;stroke:#000000;stroke-width:2.5;stroke-linecap:round;stroke-linejoin:round;stroke-miterlimit:4;stroke-dasharray:none;stroke-dashoffset:0;stroke-opacity:1"
       id="path13306"
       sodipodi:cx="-95.744682"
       sodipodi:cy="276.70212"
       sodipodi:rx="0"
       sodipodi:ry="4.7872343"
       d="M -95.744682,281.38131 A 0,4.7872343 0 1 1 -95.744682,276.70212 L -95.744682,276.70212 z"
       sodipodi:start="1.357941"
       sodipodi:end="6.2831853"
       transform="translate(-794.7812,-164.99669)" />
  </g>
  <g
     inkscape:groupmode="layer"
     id="layer4"
     inkscape:label="Meubles">
    <g
       id="g3724"
       transform="translate(-3.2635316,0)">
      <path
         sodipodi:type="star"
         style="fill:#fcef3c;stroke:#000000;stroke-width:3.36984563;stroke-miterlimit:4;stroke-dasharray:none;stroke-opacity:1"
         id="path3722"
         sodipodi:sides="5"
         sodipodi:cx="-1079.3651"
         sodipodi:cy="333.01587"
         sodipodi:r1="111.83438"
         sodipodi:r2="41.378719"
         sodipodi:arg1="0.60374933"
         sodipodi:arg2="1.2320679"
         inkscape:flatsided="false"
         inkscape:rounded="0"
         inkscape:randomized="0"
         d="M -987.30162,396.50793 L -1065.6155,372.04337 L -1111.3005,440.19358 L -1112.2336,358.15273 L -1191.1657,335.76327 L -1113.4286,309.52381 L -1116.5263,227.53615 L -1067.549,293.36012 L -990.53139,265.07841 L -1037.9989,331.99933 L -987.30162,396.50793 z"
         transform="matrix(0.5610105,0.1936706,-0.1936706,0.5610105,751.19014,108.70274)" />
      <path
         transform="matrix(0.5610105,0.1936706,-0.1936706,0.5610105,1195.6573,108.70274)"
         d="M -987.30162,396.50793 L -1065.6155,372.04337 L -1111.3005,440.19358 L -1112.2336,358.15273 L -1191.1657,335.76327 L -1113.4286,309.52381 L -1116.5263,227.53615 L -1067.549,293.36012 L -990.53139,265.07841 L -1037.9989,331.99933 L -987.30162,396.50793 z"
         inkscape:randomized="0"
         inkscape:rounded="0"
         inkscape:flatsided="false"
         sodipodi:arg2="1.2320679"
         sodipodi:arg1="0.60374933"
         sodipodi:r2="41.378719"
         sodipodi:r1="111.83438"
         sodipodi:cy="333.01587"
         sodipodi:cx="-1079.3651"
         sodipodi:sides="5"
         id="path3720"
         style="fill:#fcef3c;stroke:#000000;stroke-width:3.36984563;stroke-miterlimit:4;stroke-dasharray:none;stroke-opacity:1"
         sodipodi:type="star" />
    </g>
    <path
       style="fill:#fcef3c;stroke:#000000;stroke-width:2.6;stroke-miterlimit:4;stroke-dasharray:none;stroke-opacity:1"
       d="M 241.20467,482.41498 C 236.6667,489.37772 233.30052,497.28118 231.44112,505.88436 C 223.26265,543.72494 247.33692,581.06453 285.1775,589.24299 C 323.01809,597.42146 360.3761,573.3472 368.55456,535.50661 C 372.66921,516.46869 368.64513,497.5542 358.79101,482.41498 C 358.82278,487.07313 358.38414,491.80222 357.44622,496.5445 C 350.59219,531.19956 319.28497,553.25752 287.57234,545.76755 C 259.84683,539.21927 240.94033,512.25099 241.20467,482.41498 z"
       id="path3730" />
    <g
       transform="matrix(0.2674261,0,0,0.2346055,-289.00709,195.93375)"
       id="g4567"
       style="fill:#fcef3c;stroke:#000000;stroke-opacity:1;stroke-width:6.78700128;stroke-miterlimit:4;stroke-dasharray:none">
      <g
         transform="matrix(0.9940923,-0.1085384,0.1085384,0.9940923,-20.190514,237.08616)"
         id="g4461"
         style="fill:#fcef3c;stroke:#000000;stroke-opacity:1;stroke-width:6.78700099;stroke-miterlimit:4;stroke-dasharray:none">
        <path
           style="fill:#fcef3c;fill-rule:evenodd;stroke:#000000;stroke-width:6.78700099;stroke-linecap:butt;stroke-linejoin:miter;stroke-miterlimit:4;stroke-dasharray:none;stroke-opacity:1"
           d="M 2439.9671,-663.37212 C 2414.9666,-648.12348 2380.7082,-631.59718 2369.1227,-621.68752 C 2343.3125,-599.26495 2330.3399,-573.87362 2300.8596,-542.73175 C 2292.6501,-529.90961 2286.024,-507.88529 2287.1256,-491.86249 C 2284.9152,-488.07104 2283.0643,-483.83196 2277.6,-484.09205 C 2276.3405,-488.7964 2284.1168,-513.11007 2286.3183,-526.71123 C 2289.2681,-544.93591 2292.0851,-563.48982 2295.0646,-580.75051 C 2294.8586,-590.17348 2300.8342,-601.0267 2298.3259,-610.14216 C 2304.1596,-619.80498 2305.5061,-631.41909 2310.7104,-641.22379 C 2316.5834,-650.02285 2328.7121,-643.80512 2336.6594,-641.23233 C 2344.6264,-638.11011 2351.8983,-636.35757 2359.7522,-640.50031 C 2370.1361,-647.99242 2376.9866,-659.91574 2390.1659,-663.46105 C 2383.8825,-670.10817 2364.3318,-649.22645 2357.5832,-644.91147 C 2340.5658,-636.84895 2319.9326,-661.23539 2307.0214,-644.13829 C 2298.7605,-633.6617 2300.0413,-611.29187 2289.4023,-617.60882 C 2281.8898,-620.92647 2277.483,-628.06685 2272.363,-634.13803 C 2270.9091,-637.29179 2270.8012,-640.86655 2270.5924,-644.28244 C 2273.2159,-668.83845 2262.2938,-678.34257 2245.3599,-681.1664 C 2254.4942,-675.55512 2262.9278,-667.47973 2265.6712,-656.80959 C 2265.9644,-649.98807 2265.7688,-643.12496 2266.8661,-636.36498 C 2267.6945,-630.96357 2270.5644,-626.96338 2273.8383,-622.83264 C 2277.9768,-616.20739 2287.1929,-614.16061 2292.8623,-609.26476 C 2293.5946,-604.20296 2290.7768,-595.62949 2289.3714,-588.50091 C 2285.1843,-567.26327 2283.0682,-546.92295 2278.4898,-525.1188 C 2276.7213,-516.69651 2272.8171,-496.82196 2269.3131,-493.7669 C 2263.848,-499.89073 2264.6943,-505.32547 2263.59,-510.97318 C 2274.5802,-525.24982 2277.5632,-553.81951 2273.3448,-570.67947 C 2254.548,-608.00757 2250.8408,-635.7416 2232.4867,-663.72385 C 2224.1871,-676.13372 2194.6275,-700.42491 2174.314,-721.25065 C 2172.004,-697.6866 2169.5477,-661.07393 2174.4435,-621.72486 C 2171.2764,-602.28282 2190.2945,-576.85516 2206.8797,-545.72226 C 2215.4729,-524.99268 2235.1658,-504.75183 2252.1168,-502.81632 C 2253.3029,-503.11468 2254.4371,-503.55697 2255.5292,-504.09406 C 2255.4949,-495.12174 2261.0882,-488.23491 2266.9238,-481.43785 C 2264.2372,-468.56168 2261.3596,-457.05814 2258.1764,-447.91435 L 2258.1446,-447.79435 L 2258.1127,-447.67435 C 2248.5107,-416.39875 2242.2691,-373.65985 2234.0649,-329.85417 C 2231.1722,-332.62619 2228.8051,-338.27797 2228.1862,-344.57864 C 2238.9303,-368.0941 2228.1844,-410.48928 2213.5611,-430.57132 C 2172.1427,-465.77617 2154.0829,-498.00208 2117.7485,-521.88055 C 2101.4366,-532.37631 2052.9886,-545.05183 2017.6975,-558.90295 C 2026.2682,-528.32664 2040.9954,-481.50006 2066.1595,-435.59874 C 2071.6672,-409.6279 2107.5775,-389.30944 2143.2475,-360.4824 C 2163.9607,-339.84465 2198.2076,-326.35433 2220.1629,-333.94256 C 2220.5981,-334.29343 2221.0177,-334.65529 2221.4275,-335.03308 C 2223.6771,-326.44557 2227.758,-321.84591 2231.138,-315.71994 C 2226.7764,-293.75427 2221.6981,-271.09154 2215.1884,-248.37055 C 2206.015,-217.92018 2200.378,-186.74988 2196.3028,-155.391 C 2195.3136,-147.7797 2194.4165,-140.1573 2193.5832,-132.53138 C 2189.9295,-137.87317 2185.3312,-141.15793 2184.0074,-151.57314 C 2196.0696,-173.72353 2191.3377,-215.01203 2180.1534,-236.50522 C 2144.1853,-278.35646 2130.8583,-313.28344 2098.3202,-343.07707 C 2083.681,-356.23107 2037.6147,-377.04358 2004.6975,-396.75281 C 2008.8653,-365.08243 2016.8433,-316.29253 2035.2494,-266.64919 C 2037.0389,-240.05164 2069.6553,-213.84927 2100.8412,-179.28027 C 2118.4025,-155.35532 2150.3264,-136.16976 2173.0835,-139.91773 C 2174.4424,-140.68974 2175.7165,-141.61363 2176.9052,-142.6267 C 2178.9608,-131.27889 2189.7073,-124.69439 2191.7485,-115.03109 C 2189.996,-97.821367 2189.3327,-77.464551 2186.8556,-55.820808 C 2184.7957,-37.821759 2181.9232,-18.895962 2179.4382,0.23451671 C 2174.3336,39.530915 2167.2031,89.851895 2152.7457,101.85114 L 2162.6526,115.08064 C 2173.5386,111.10069 2185.5235,45.090852 2191.2467,5.0445652 C 2194.1658,-15.381106 2196.5751,-35.67116 2198.4995,-54.557415 C 2200.8306,-77.435631 2201.2677,-98.382991 2202.8897,-114.81385 C 2207.8592,-112.1066 2210.9863,-116.01151 2214.6889,-117.85077 C 2215.5932,-114.40757 2217.0688,-111.39828 2219.2446,-108.95832 C 2237.7349,-100.50031 2272.2588,-111.65268 2295.9528,-130.41994 C 2335.2466,-156.27942 2372.8636,-173.9472 2383.7696,-198.64696 C 2417.238,-241.48914 2441.3113,-285.79033 2456.0702,-314.76034 C 2420.4921,-303.29127 2373.0814,-293.61459 2355.7164,-284.3744 C 2316.9241,-263.31163 2293.0553,-233.26479 2247.0397,-201.57121 C 2231.3127,-185.33109 2214.5005,-152.49526 2213.6291,-129.00359 C 2210.6396,-127.55067 2208.6876,-119.32281 2203.8099,-124.05865 C 2204.7222,-132.72606 2205.7173,-141.48505 2206.8318,-150.27484 C 2210.8943,-182.31263 2216.5437,-214.75955 2225.5551,-244.67229 L 2225.5631,-244.7023 L 2225.579,-244.76229 C 2232.1311,-267.63151 2237.2697,-290.35986 2241.666,-312.29538 C 2249.1646,-315.43915 2248.1852,-316.22055 2251.2521,-318.12944 C 2251.7843,-316.15033 2252.5341,-314.32142 2253.5475,-312.6355 C 2269.9902,-300.72892 2304.546,-306.02889 2329.8281,-321.01377 C 2371.0068,-340.48739 2409.3953,-351.89724 2423.3172,-375.20159 C 2461.3527,-413.05236 2490.64,-454.04274 2508.8465,-481.02843 C 2473.2613,-475.59819 2426.6268,-474.09521 2408.7402,-467.72417 C 2368.7225,-453.06179 2341.6956,-426.56231 2293.2721,-402.31662 C 2275.0419,-387.77929 2253.0229,-354.69682 2250.5221,-330.41346 C 2249.0734,-327.54317 2248.2513,-324.08642 2243.481,-324.32452 C 2247.4701,-345.30904 2249.2442,-365.37916 2252.912,-384.45743 C 2257.1917,-406.71903 2263.3801,-427.4435 2268.4123,-443.83488 C 2271.4202,-452.47461 2274.0999,-462.66739 2276.579,-473.83313 L 2277.0028,-472.98017 C 2284.4877,-474.72363 2288.7594,-477.28976 2289.7204,-480.70355 C 2291.0701,-477.86938 2292.9721,-475.61555 2295.4892,-474.15563 C 2310.9234,-472.31433 2335.1739,-487.14688 2349.9392,-504.84018 C 2375.3171,-530.61714 2400.814,-550.46765 2404.8906,-569.49059 C 2422.9818,-605.54575 2433.6955,-640.64675 2439.9671,-663.37212 z"
           id="path3834"
           sodipodi:nodetypes="cccccsccccccccccccccccssccccccccccccccccccccccccsccccccccccssccssccccccccccscccccccccccccscccccccc" />
        <g
           id="g4415"
           transform="matrix(0.8736297,-0.2019795,0.2252541,0.9743001,1704.7657,117.53224)"
           style="fill:#fcef3c;stroke:#000000;stroke-width:7.16738234;stroke-miterlimit:4;stroke-dasharray:none;stroke-opacity:1">
          <path
             sodipodi:nodetypes="ccccccccccccccccccccccccccccccccc"
             id="path4377"
             d="M 215.3125,-345.34375 C 213.48343,-321.61353 211.70005,-284.34368 217,-241.6875 C 214.28698,-222.54493 232.86143,-189.49308 249.1875,-151.34375 C 257.71978,-126.79032 276.82147,-98.913191 293.03125,-91.03125 C 296.09085,-90.759855 298.81161,-91.570097 301.1875,-93.21875 L 304.44655,-76.475375 L 314.10207,-82.150446 L 307.78125,-101.375 C 314.64124,-114.70725 315.89381,-138.04566 312.21875,-154.3125 C 293.68304,-199.67643 289.71426,-229.8619 271.75,-265.34375 C 263.63062,-281.13488 235.03296,-316.63345 215.3125,-345.34375 z M 40.03125,-194.125 C 55.372315,-161.71297 80.468281,-111.80352 115.84375,-61.28125 C 127.09521,-34.019976 167.62098,-7.898674 209.78125,26.84375 C 235.12214,50.984753 272.47505,69.891054 292.84375,65.5 C 294.62112,64.061886 296.02452,62.244268 297.0625,60.09375 L 313.875,76.375 L 321.03125,69.3125 L 299.46875,48.40625 C 300.04093,24.684607 282.06387,-13.469429 264.90625,-33.8125 C 215.57012,-75.91632 190.33067,-111.44209 148.59375,-141.25 C 129.9059,-154.40376 78.511372,-174.67838 40.03125,-194.125 z M 56.46875,86.0625 C 69.76231,115.16597 91.888406,159.51998 125.28125,201.46875 C 134.63646,226.43949 176.47893,241.49972 219.15625,265.03125 C 244.43944,282.56087 283.58071,291.07045 306.59375,280.4375 C 307.11541,279.94122 307.61799,279.43628 308.09375,278.90625 L 325.28125,295.875 L 333.125,287.96875 L 313.90625,268.96875 C 322.79128,244.14969 305.57819,203.48417 286.96875,185.59375 C 237.19129,156.55252 213.29855,127.15578 170.53125,108.625 C 151.36016,100.52812 96.807419,94.798676 56.46875,86.0625 z"
             style="fill:#fcef3c;fill-rule:evenodd;stroke:#000000;stroke-width:7.16738234;stroke-linecap:butt;stroke-linejoin:miter;stroke-miterlimit:4;stroke-dasharray:none;stroke-opacity:1" />
          <path
             id="path4403"
             d="M 356.1875,-282.15625 C 349.25659,-273.01147 343.4771,-261.10463 336.71875,-252.1875 C 333.64752,-247.42994 329.2753,-247.28667 323.75,-247.21875 C 313.33239,-247.80727 307.12685,-244.91007 303.46875,-236.125 C 300.16612,-225.97767 297.80937,-215.6007 296.03125,-205.15625 C 294.19273,-206.35488 292.03643,-206.95876 289.875,-207.5 C 285.87866,-209.56471 283.89868,-213.55208 280.90625,-216.5625 C 277.46021,-225.70172 283.43167,-237.06475 277.91871,-245.61958 C 274.67171,-250.44003 269.12033,-253.12125 263.375,-255.46875 C 260.77552,-249.24881 268.33841,-250.05589 269.8125,-246.03125 C 276.60257,-239.51541 274.50614,-231.75732 274.98483,-223.50193 C 274.26049,-217.23141 277.59572,-207.3915 288.59375,-202.875 C 290.96527,-202.45385 293.04525,-201.55722 295,-200.3125 C 292.31033,-189.14273 292.78362,-178.46218 294.48886,-166.63137 C 296.35791,-147.78119 301.0069,-128.54024 302.9553,-109.50588 C 303.71451,-102.089 309.86137,-84.263982 302.6875,-87.125 C 298.53973,-86.573071 295.22351,-91.36787 292.125,-97.5625 C 299.72415,-114.66365 289.0246,-144.80778 279.83784,-159.67536 C 249.48734,-189.68514 243.63511,-213.35324 216.375,-234.53125 C 204.11653,-243.87412 166.04286,-258.01422 138.71875,-271.71875 C 142.88785,-248.39158 150.56347,-212.4972 166.78125,-176.25 C 168.88738,-156.61344 196.13275,-138.0922 222.40625,-113.34375 C 237.3096,-96.107759 263.81335,-82.772623 282.28125,-86.15625 C 283.45191,-86.809318 284.52718,-87.58444 285.53125,-88.4375 C 286.79139,-80.255902 295.17186,-75.154027 303.9375,-70.21875 C 304.70936,-57.031625 304.89424,-45.102702 304.09375,-35.34375 L 304.09375,-35.21875 L 304.09375,-35.09375 C 302.85729,-5.5018318 306.73233,30.110741 310.15625,69.3125 L 291.1875,60.875 L 290.40625,62.625 C 286.71885,38.165626 264.11369,9.8276177 244.625,-1.4375 C 189.34512,-17.726208 159.14621,-40.551835 113.1875,-48.3125 C 109.33409,-48.926581 104.29502,-49.155408 98.375,-49.125 C 72.72159,-48.993231 30.552797,-43.886866 -2.96875,-42.9375 C 16.901676,-17.859684 48.978306,19.946124 91.4375,52.6875 C 106.4952,74.69487 150.74475,79.299807 197.8125,91.9375 C 226.55535,102.90912 266.60543,101.79872 286.40625,85.96875 C 288.93527,82.012104 290.32733,77.60264 290.78125,72.875 L 311.25,82 C 313.52071,109.81044 315.27016,139.21701 314.625,169.4375 C 313.18337,209.39739 317.8696,248.72117 324.34375,287.625 L 306.40625,285.21875 C 300.1163,262.78276 272.93396,232.73599 250.78125,218.46875 C 189.4933,191.8777 154.68293,165.02907 104.28125,148.03125 C 81.761688,140.60282 23.750264,135.22558 -20.71875,127.15625 C 3.1465897,153.70298 41.432179,194.19703 90.4375,232.5 C 108.80933,255.27135 157.02808,269.07235 209.09375,290.625 C 241.19936,306.66249 284.39684,314.55915 304.28125,304.9375 C 306.30198,302.41577 307.36437,299.38196 307.65625,296 L 326.1875,298.5 C 332.72138,335.96308 328.6142,367.0163 333.77586,410.21343 C 336.62156,434.02864 344.7375,449.81942 356.55401,484.12594 C 368.18774,452.80336 358.68121,444.48995 353.49063,408.90716 C 348.60614,375.42274 343.21498,337.53937 338.38059,299.68824 C 332.48904,253.56004 325.28098,207.03537 326.625,169.78125 L 326.625,169.75 L 326.625,169.6875 C 327.36419,135.06253 326.58362,102.06082 323.93044,71.120237 C 320.46344,30.689372 314.8631,-5.888825 316.0625,-34.59375 C 317.95607,-46.93306 317.69321,-66.082732 316.20333,-81.631067 C 313.29819,-111.94897 305.9283,-141.2316 302.18865,-168.30026 C 300.44633,-180.91167 306.67672,-194.26349 303.66996,-199.66071 C 305.2618,-211.14933 304.33465,-223.11276 308.18875,-234.19738 C 310.34139,-241.83367 315.49939,-242.37436 323.03125,-242.5 C 326.18279,-242.55835 330.3525,-241.58206 332.73716,-242.27255 C 346.80703,-249.78614 353.15505,-268.49347 356.1875,-282.15625 z"
             style="fill:#fcef3c;fill-opacity:1;fill-rule:evenodd;stroke:#000000;stroke-width:7.16738234;stroke-linecap:butt;stroke-linejoin:miter;stroke-miterlimit:4;stroke-dasharray:none;stroke-opacity:1"
             sodipodi:nodetypes="ccccccccccccccsccccccccccccccccccscccccccccccccccccsccssccscssccccc" />
        </g>
        <g
           transform="matrix(-0.8449032,-0.3002719,-0.334873,0.9422633,2662.9144,594.95432)"
           id="g4419"
           style="fill:#fcef3c;stroke:#000000;stroke-width:7.16738228;stroke-miterlimit:4;stroke-dasharray:none;stroke-opacity:1">
          <path
             sodipodi:nodetypes="ccccccccccccccccccccccccccccccccc"
             style="fill:#fcef3c;fill-rule:evenodd;stroke:#000000;stroke-width:7.16738228;stroke-linecap:butt;stroke-linejoin:miter;stroke-miterlimit:4;stroke-dasharray:none;stroke-opacity:1"
             d="M 215.3125,-345.34375 C 213.48343,-321.61353 211.70005,-284.34368 217,-241.6875 C 214.28698,-222.54493 232.86143,-189.49308 249.1875,-151.34375 C 257.71978,-126.79032 276.82147,-98.913191 293.03125,-91.03125 C 296.09085,-90.759855 298.81161,-91.570097 301.1875,-93.21875 L 302.89069,-75.470388 L 311.29694,-81.001638 L 307.78125,-101.375 C 314.64124,-114.70725 315.89381,-138.04566 312.21875,-154.3125 C 293.68304,-199.67643 289.71426,-229.8619 271.75,-265.34375 C 263.63062,-281.13488 235.03296,-316.63345 215.3125,-345.34375 z M 40.03125,-194.125 C 55.372315,-161.71297 80.468281,-111.80352 115.84375,-61.28125 C 127.09521,-34.019976 167.62098,-7.898674 209.78125,26.84375 C 235.12214,50.984753 272.47505,69.891054 292.84375,65.5 C 294.62112,64.061886 296.02452,62.244268 297.0625,60.09375 C 306.01943,62.439853 308.27083,70.947917 313.875,76.375 L 318.81664,72.215791 C 312.40563,64.232929 309.0184,52.590224 299.46875,48.40625 C 300.04093,24.684607 282.06387,-13.469429 264.90625,-33.8125 C 215.57012,-75.91632 190.33067,-111.44209 148.59375,-141.25 C 129.9059,-154.40376 78.511372,-174.67838 40.03125,-194.125 z M 56.46875,86.0625 C 69.76231,115.16597 91.888406,159.51998 125.28125,201.46875 C 134.63646,226.43949 176.47893,241.49972 219.15625,265.03125 C 244.43944,282.56087 283.58071,291.07045 306.59375,280.4375 C 307.11541,279.94122 307.61799,279.43628 308.09375,278.90625 L 325.28125,295.875 L 333.125,287.96875 L 313.90625,268.96875 C 322.79128,244.14969 305.57819,203.48417 286.96875,185.59375 C 237.19129,156.55252 213.29855,127.15578 170.53125,108.625 C 151.36016,100.52812 96.807419,94.798676 56.46875,86.0625 z"
             id="path4421" />
          <path
             style="fill:#fcef3c;fill-opacity:1;fill-rule:evenodd;stroke:#000000;stroke-width:7.16738228;stroke-linecap:butt;stroke-linejoin:miter;stroke-miterlimit:4;stroke-dasharray:none;stroke-opacity:1"
             d="M 357.57197,-280.82388 C 346.57949,-269.70311 342.30856,-248.61144 323.18767,-248.3764 C 313.26144,-248.21602 305.30584,-244.92484 301.88942,-236.72018 C 300.31472,-232.42976 300.85342,-226.92497 299.5,-222 C 296.16589,-214.9682 300.40941,-203.87553 292.5,-206.78125 C 289.22489,-207.34774 287.272,-209.12593 285.25,-211.4375 C 283.09817,-214.001 280.87665,-216.05508 280.125,-219.1875 C 278.2352,-227.61873 281.10258,-237.11972 276.125,-244.84375 C 269.26384,-252.03178 266.23954,-249.94718 261.96875,-250.875 C 267.63055,-249.15866 270.61696,-245.14406 273.84375,-240.96875 C 276.66643,-229.57651 269.38231,-218.63352 283.09375,-207.40625 C 284.72876,-205.45945 286.50748,-203.54965 288.59375,-202.875 C 290.96527,-202.45385 293.04525,-201.55722 295,-200.3125 C 294.95373,-187.39006 296.27444,-176.90831 297.72621,-167.18456 C 299.0887,-158.05875 297.68254,-149.28204 299.5623,-138.57599 C 301.78875,-120.85365 301.27311,-103.56521 302.6875,-87.125 L 292.125,-97.5625 C 299.72415,-114.66365 294.87426,-142.97617 285.6875,-157.84375 C 255.337,-187.85353 243.63511,-213.35324 216.375,-234.53125 C 204.11653,-243.87412 166.04286,-258.01422 138.71875,-271.71875 C 142.88785,-248.39158 150.56347,-212.4972 166.78125,-176.25 C 168.88738,-156.61344 196.13275,-138.0922 222.40625,-113.34375 C 237.3096,-96.107759 263.81335,-82.772623 282.28125,-86.15625 C 283.45191,-86.809318 284.52718,-87.58444 285.53125,-88.4375 L 303.9375,-70.21875 C 304.70936,-57.031625 304.89424,-45.102702 304.09375,-35.34375 L 304.09375,-35.21875 L 304.09375,-35.09375 C 302.85729,-5.5018318 306.73233,30.110741 310.15625,69.3125 L 291.1875,60.875 L 290.40625,62.625 C 286.71885,38.165626 264.11369,9.8276177 244.625,-1.4375 C 189.34512,-17.726208 159.14621,-40.551835 113.1875,-48.3125 C 109.33409,-48.926581 104.29502,-49.155408 98.375,-49.125 C 72.72159,-48.993231 30.552797,-43.886866 -2.96875,-42.9375 C 16.901676,-17.859684 48.978306,19.946124 91.4375,52.6875 C 106.4952,74.69487 150.74475,79.299807 197.8125,91.9375 C 226.55535,102.90912 266.60543,101.79872 286.40625,85.96875 C 288.93527,82.012104 290.32733,77.60264 290.78125,72.875 L 311.25,82 C 313.52071,109.81044 315.27016,139.21701 314.625,169.4375 C 313.18337,209.39739 317.8696,248.72117 324.34375,287.625 L 306.40625,285.21875 C 300.1163,262.78276 272.93396,232.73599 250.78125,218.46875 C 189.4933,191.8777 154.68293,165.02907 104.28125,148.03125 C 81.761688,140.60282 23.750264,135.22558 -20.71875,127.15625 C 3.1465897,153.70298 41.432179,194.19703 90.4375,232.5 C 108.80933,255.27135 157.02808,269.07235 209.09375,290.625 C 241.19936,306.66249 284.39684,314.55915 304.28125,304.9375 C 306.30198,302.41577 307.36437,299.38196 307.65625,296 L 326.1875,298.5 C 336.32361,356.61703 349.581,413.80858 351.4375,470.65625 L 369.81955,454.0689 C 369.1047,432.17949 363.78701,417.999 360.65915,396.2652 C 349.34257,317.63226 323.78981,248.36863 326.625,169.78125 L 326.625,169.75 L 326.625,169.6875 C 328.3301,89.817167 313.94523,16.07823 316.0625,-34.59375 C 317.13484,-47.66701 315.02082,-63.875042 313.7688,-81.063507 C 311.63916,-110.30037 308.89047,-143.03546 305.97341,-172.80497 C 306.03266,-185.44044 301.44425,-191.10783 300.75487,-202.28407 C 301.74698,-208.58947 302.6701,-215.49279 304.10583,-220.71731 C 307.42851,-233.92682 305.3326,-241.96761 323.03125,-242.5 C 329.1818,-242.37332 335.3989,-243.18579 339.63447,-247.51138 C 345.66223,-258.58856 355.25788,-267.68456 357.57197,-280.82388 z"
             id="path4423"
             sodipodi:nodetypes="cccccccccccccscccccccccccccccccccscccccccccccccccccccsccccscccccc" />
        </g>
        <path
           style="fill:#fcef3c;fill-rule:evenodd;stroke:#000000;stroke-width:6.78700099;stroke-linecap:butt;stroke-linejoin:miter;stroke-miterlimit:4;stroke-dasharray:none;stroke-opacity:1"
           d="M 2725.0625,738.03125 C 2666.7349,737.3867 2610.6972,766.93827 2532.0625,803.59375 C 2491.6367,812.89517 2380.3551,859.50633 2338.9062,864.25 C 2297.4576,868.99378 2261.6053,860.88685 2245.7812,901.09375 C 2241.4331,906.69213 2240.8284,910.74903 2241.7188,914.875 C 2238.8243,916.54995 2235.98,918.08742 2233.0625,919.28125 C 2226.2694,922.06098 2219.2324,923.37308 2209.4688,921.25 L 2206.9062,932.96875 C 2218.9827,935.59469 2229.1395,933.86572 2237.5938,930.40625 C 2240.5307,929.20445 2243.2588,927.82718 2245.875,926.375 C 2246.4613,928.02536 2247.0075,929.81823 2247.4688,931.78125 C 2258.9453,957.00051 2269.5523,969.46412 2297.375,963.09375 C 2323.7827,971.3362 2371.6557,961.51968 2392.4375,937.25 C 2413.0703,943.63904 2462.7566,931.74081 2482.7188,907.15625 C 2506.2814,898.33525 2531.3744,908.4783 2567.3125,880.8125 C 2606.0964,879.93374 2649.1665,844.2525 2658.0625,824.375 C 2678.7226,826.53262 2716.3647,824.54282 2742.2188,811.09375 C 2774.9763,818.6189 2800.2758,784.24002 2846.625,831.875 C 2860.4788,804.18064 2835.4809,775.03813 2815.0625,763.25 C 2782.5781,745.85756 2753.5481,738.34603 2725.0625,738.03125 z"
           id="path4436" />
        <path
           style="fill:#fcef3c;fill-rule:evenodd;stroke:#000000;stroke-width:6.78700099;stroke-linecap:butt;stroke-linejoin:miter;stroke-miterlimit:4;stroke-dasharray:none;stroke-opacity:1"
           d="M 2587.75,-226.71875 C 2504.1892,-225.63757 2468.4013,-173.94268 2403.7812,-95.28125 C 2376.952,-73.892997 2310.5965,0.67693478 2281.375,19.03125 C 2252.8037,36.9774 2223.842,43.851897 2224.9688,77.46875 C 2216.683,83.264091 2210.1908,89.949872 2202.8438,94.59375 C 2192.5369,101.10843 2180.6864,104.93376 2157.125,99.03125 L 2154.2188,110.65625 C 2180.0766,117.13405 2196.8938,112.57984 2209.2812,104.75 C 2216.0102,100.49679 2221.4635,95.687605 2226.8438,91.34375 C 2229.2901,94.60011 2233.3398,97.126193 2237.3125,102.0625 C 2254.8975,116.78304 2267.2674,122.29588 2285.75,107.59375 C 2308.3941,104.30236 2340.5802,79.875249 2347.4062,54.34375 C 2365.0804,51.734141 2397.8978,25.09837 2404,-0.375 C 2418.4225,-15.377207 2440.77,-16.798904 2457.6875,-50.28125 C 2486.3028,-64.800146 2505.6571,-106.80577 2505.1875,-124.8125 C 2521.3692,-130.58811 2548.7413,-145.53915 2563.2188,-164.8125 C 2590.3427,-170.90869 2596.9316,-205.58882 2648.5312,-186.625 C 2648.9656,-212.23463 2619.8814,-225.00573 2600.4375,-226.5 C 2596.0879,-226.69451 2591.8595,-226.77192 2587.75,-226.71875 z"
           id="path4434" />
        <path
           style="fill:#fcef3c;fill-rule:evenodd;stroke:#000000;stroke-width:6.78700099;stroke-linecap:butt;stroke-linejoin:miter;stroke-miterlimit:4;stroke-dasharray:none;stroke-opacity:1"
           d="M 1604.2188,353.125 C 1575.6317,353.30689 1547.1294,361.6585 1515.3438,381.84375 C 1497.1401,394.26871 1475.4996,423.90716 1489.4375,450.53125 C 1529.8317,401.82383 1554.5392,434.53173 1584.25,425.78125 C 1608.5612,437.91657 1643.1775,438.32046 1662.0312,435.34375 C 1671.074,454.49661 1712.1695,487.74695 1747.7812,487 C 1781.9735,512.67929 1804.5275,501.68985 1826.5312,509.375 C 1845.9334,532.69134 1892.047,542.31882 1910.6875,535.1875 C 1930.8273,558.16058 1975.1762,565.81636 1999.0312,556.625 C 2024.8424,561.72824 2033.9976,549.04356 2043.4062,523.78125 C 2044.0919,519.80552 2045.1678,516.59193 2046.125,513.6875 C 2072.4104,511.12212 2098.3219,510.69936 2124,516.75 L 2126.75,505.09375 C 2111.0663,501.39814 2095.4432,499.96226 2079.9375,499.90625 C 2069.1782,499.86738 2058.4657,500.49235 2047.8125,501.46875 C 2047.2502,499.08885 2045.9556,496.55803 2043.5938,493.59375 C 2027.2926,454.76259 1994.7901,464.21962 1956.5625,461.28125 C 1918.3348,458.34303 1814.1794,417.17565 1776.6875,409.71875 C 1706.3646,378.50557 1655.1782,352.80077 1604.2188,353.125 z"
           id="path4425" />
        <path
           style="fill:#fcef3c;fill-opacity:1;fill-rule:evenodd;stroke:#000000;stroke-width:6.78700099;stroke-linecap:butt;stroke-linejoin:miter;stroke-miterlimit:4;stroke-dasharray:none;stroke-opacity:1"
           d="M 2101.5312,-88.1875 L 2101.1124,-68.520305 C 2142.8469,11.139836 2152.9141,54.310858 2147.3109,149.5625 C 2064.5908,548.02108 2188.7014,707.23054 2189.625,910.40625 C 2175.1606,1039.1055 2147.1671,1140.9545 2122.8438,1210.5312 C 2110.6549,1245.3975 2099.3738,1272.1472 2091.1875,1290.125 C 2087.5342,1298.1479 2084.7632,1303.7883 2082.5312,1308.25 L 2078.6562,1307.1562 L 2076.625,1321.3125 C 2076.625,1321.3126 2082.5023,1323.3197 2088.375,1325.3438 C 2094.1076,1327.3195 2099.8258,1329.3128 2099.8438,1329.2812 C 2099.8802,1329.2174 2099.8914,1329.1828 2099.9062,1329.1562 C 2099.936,1329.1031 2099.9716,1329.0515 2100,1329 C 2100.0568,1328.897 2100.128,1328.792 2100.2188,1328.625 C 2100.4003,1328.291 2100.6697,1327.8102 2101,1327.1875 C 2101.6606,1325.9421 2102.5984,1324.1202 2103.8125,1321.7188 C 2106.2408,1316.9158 2109.6985,1309.8092 2113.9375,1300.5 C 2122.4156,1281.8815 2133.9796,1254.4169 2146.4375,1218.7812 C 2171.3532,1147.5099 2199.8909,1043.5585 2214.5625,912.34375 L 2214.625,911.625 L 2214.625,910.90625 C 2213.906,696.96098 2084.0605,546.86756 2165.875,153.84375 L 2166,153.28125 L 2166.0625,152.71875 C 2175.2763,71.602061 2159.6552,11.508627 2141.4062,-28.21875 C 2131.1826,-50.006664 2118.5705,-71.021654 2101.5312,-88.1875 z M 2089.625,1320.8438 C 2095.494,1322.8691 2101.375,1324.8751 2101.375,1324.875 L 2089,1323.0938 L 2089.625,1320.8438 z"
           id="path4428"
           sodipodi:nodetypes="ccccsscccssssssssscccccccccccc" />
      </g>
    </g>
  </g>
  <g
     inkscape:groupmode="layer"
     id="layer2"
     inkscape:label="Reflet final"
     sodipodi:insensitive="true">
    <path
       sodipodi:nodetypes="cccccc"
       d="M 300.00001,658.5 C 300.00001,658.5 598.50001,546.17969 598.50001,260.72817 C 598.50001,-24.723334 598.50001,2.1764865 598.50001,2.1764865 L 1.5,2.1764865 L 1.5,260.72817 C 1.5,546.17969 300.00001,658.5 300.00001,658.5 z "
       style="opacity:1;fill:url(#radialGradient3163);fill-opacity:1;fill-rule:evenodd;stroke:none;stroke-width:1px;stroke-linecap:butt;stroke-linejoin:miter;stroke-opacity:1"
       id="path2875"
       inkscape:export-xdpi="144"
       inkscape:export-ydpi="144" />
  </g>
  <g
     inkscape:groupmode="layer"
     id="layer1"
     inkscape:label="Contour final"
     sodipodi:insensitive="true">
    <path
       sodipodi:nodetypes="cccccc"
       d="M 299.99999,658.50028 C 299.99999,658.50028 1.5,546.17992 1.5,260.72828 C 1.5,-24.723336 1.5,2.1764957 1.5,2.1764957 L 598.49999,2.1764957 L 598.49999,260.72828 C 598.49999,546.17992 299.99999,658.50028 299.99999,658.50028 z "
       style="opacity:1;fill:none;fill-opacity:1;fill-rule:evenodd;stroke:#000000;stroke-width:3.00000048;stroke-linecap:butt;stroke-linejoin:miter;stroke-miterlimit:4;stroke-dasharray:none;stroke-opacity:1"
       id="path1411"
       inkscape:export-xdpi="144"
       inkscape:export-ydpi="144" />
  </g>
</svg>
