<?xml version="1.0" encoding="UTF-8" standalone="no"?>
<svg
   xmlns:dc="http://purl.org/dc/elements/1.1/"
   xmlns:cc="http://creativecommons.org/ns#"
   xmlns:rdf="http://www.w3.org/1999/02/22-rdf-syntax-ns#"
   xmlns:svg="http://www.w3.org/2000/svg"
   xmlns="http://www.w3.org/2000/svg"
   xmlns:xlink="http://www.w3.org/1999/xlink"
   xmlns:sodipodi="http://sodipodi.sourceforge.net/DTD/sodipodi-0.dtd"
   xmlns:inkscape="http://www.inkscape.org/namespaces/inkscape"
   height="660"
   width="600"
   version="1.0"
   id="svg2"
   sodipodi:version="0.32"
   inkscape:version="0.46"
   sodipodi:docname="Blason Le Pin.svg"
   sodipodi:docbase="D:\Mes documents\Renaud-Notre Lapin"
   inkscape:export-filename="/Users/olivier/Desktop/Blason Rouge/Blason_Vide_3D.png"
   inkscape:export-xdpi="144"
   inkscape:export-ydpi="144"
   inkscape:output_extension="org.inkscape.output.svg.inkscape">
  <metadata
     id="metadata49">
    <rdf:RDF>
      <cc:Work
         rdf:about="">
        <dc:format>image/svg+xml</dc:format>
        <dc:type
           rdf:resource="http://purl.org/dc/dcmitype/StillImage" />
        <dc:title>Gabarit d'un blason en pointe pour le projet Blasons de Wikipédia</dc:title>
        <dc:date>03-AUG-2006</dc:date>
        <dc:creator>
          <cc:Agent>
            <dc:title>Jérôme BLUM (wagner51)</dc:title>
          </cc:Agent>
        </dc:creator>
        <cc:license
           rdf:resource="http://web.resource.org/cc/PublicDomain" />
        <dc:language>fr</dc:language>
        <dc:subject>
          <rdf:Bag>
            <rdf:li>gabarit modèle blason projet wikipédia</rdf:li>
          </rdf:Bag>
        </dc:subject>
      </cc:Work>
      <cc:License
         rdf:about="http://web.resource.org/cc/PublicDomain">
        <cc:permits
           rdf:resource="http://web.resource.org/cc/Reproduction" />
        <cc:permits
           rdf:resource="http://web.resource.org/cc/Distribution" />
        <cc:permits
           rdf:resource="http://web.resource.org/cc/DerivativeWorks" />
      </cc:License>
    </rdf:RDF>
  </metadata>
  <sodipodi:namedview
     inkscape:window-height="712"
     inkscape:window-width="1024"
     inkscape:pageshadow="2"
     inkscape:pageopacity="0.0"
     guidetolerance="10.0"
     gridtolerance="10.0"
     objecttolerance="10.0"
     borderopacity="1.0"
     bordercolor="#666666"
     pagecolor="#ffffff"
     id="base"
     showgrid="false"
     height="660px"
     inkscape:zoom="0.50632599"
     inkscape:cx="192.51926"
     inkscape:cy="159.33441"
     inkscape:window-x="103"
     inkscape:window-y="253"
     inkscape:current-layer="layer3"
     showguides="true"
     inkscape:guide-bbox="true">
    <sodipodi:guide
       orientation="1,0"
       position="300,305.91729"
       id="guide3626" />
  </sodipodi:namedview>
  <desc
     id="desc4">Flag of Canton of Valais (Wallis)</desc>
  <defs
     id="defs6">
    <inkscape:perspective
       sodipodi:type="inkscape:persp3d"
       inkscape:vp_x="0 : 330 : 1"
       inkscape:vp_y="0 : 1000 : 0"
       inkscape:vp_z="600 : 330 : 1"
       inkscape:persp3d-origin="300 : 220 : 1"
       id="perspective35" />
    <linearGradient
       id="linearGradient2893">
      <stop
         style="stop-color:white;stop-opacity:0.3137255;"
         offset="0"
         id="stop2895" />
      <stop
         id="stop2897"
         offset="0.19"
         style="stop-color:white;stop-opacity:0.25098041;" />
      <stop
         style="stop-color:#6b6b6b;stop-opacity:0.1254902;"
         offset="0.60000002"
         id="stop2901" />
      <stop
         style="stop-color:black;stop-opacity:0.1254902;"
         offset="1"
         id="stop2899" />
    </linearGradient>
    <linearGradient
       id="linearGradient2885">
      <stop
         id="stop2887"
         offset="0"
         style="stop-color:white;stop-opacity:1;" />
      <stop
         style="stop-color:white;stop-opacity:1;"
         offset="0.22857143"
         id="stop2891" />
      <stop
         id="stop2889"
         offset="1"
         style="stop-color:black;stop-opacity:1;" />
    </linearGradient>
    <linearGradient
       id="linearGradient2955">
      <stop
         id="stop2867"
         offset="0"
         style="stop-color:#fd0000;stop-opacity:1;" />
      <stop
         style="stop-color:#e77275;stop-opacity:0.65882355;"
         offset="0.5"
         id="stop2873" />
      <stop
         style="stop-color:black;stop-opacity:0.32291666;"
         offset="1"
         id="stop2959" />
    </linearGradient>
    <radialGradient
       inkscape:collect="always"
       xlink:href="#linearGradient2955"
       id="radialGradient2961"
       cx="225.52438"
       cy="218.90099"
       fx="225.52438"
       fy="218.90099"
       r="300"
       gradientTransform="matrix(-4.167939e-4,2.182867,-1.884232,-3.599562e-4,615.5972,-289.1214)"
       gradientUnits="userSpaceOnUse" />
    <polygon
       id="star"
       transform="scale(53,53)"
       points="0,-1 0.58778525,0.80901699 -0.95105652,-0.30901699 0.95105652,-0.30901699 -0.58778525,0.80901699 0,-1 " />
    <clipPath
       id="clip">
      <path
         d="M 0,-200 L 0,600 L 300,600 L 300,-200 L 0,-200 z "
         id="path10" />
    </clipPath>
    <radialGradient
       inkscape:collect="always"
       xlink:href="#linearGradient2955"
       id="radialGradient1911"
       gradientUnits="userSpaceOnUse"
       gradientTransform="matrix(-4.167939e-4,2.182867,-1.884232,-3.599562e-4,615.5972,-289.1214)"
       cx="225.52438"
       cy="218.90099"
       fx="225.52438"
       fy="218.90099"
       r="300" />
    <radialGradient
       inkscape:collect="always"
       xlink:href="#linearGradient2955"
       id="radialGradient2865"
       gradientUnits="userSpaceOnUse"
       gradientTransform="matrix(0,1.748721,-1.593162,-1.049767e-7,551.7876,-191.2898)"
       cx="225.52438"
       cy="218.90099"
       fx="225.52438"
       fy="218.90099"
       r="300" />
    <radialGradient
       inkscape:collect="always"
       xlink:href="#linearGradient2955"
       id="radialGradient2871"
       gradientUnits="userSpaceOnUse"
       gradientTransform="matrix(0,1.386237,-1.323286,-5.741131e-8,-158.0823,-109.5408)"
       cx="225.52438"
       cy="218.90099"
       fx="225.52438"
       fy="218.90099"
       r="300" />
    <radialGradient
       inkscape:collect="always"
       xlink:href="#linearGradient2893"
       id="radialGradient3163"
       gradientUnits="userSpaceOnUse"
       gradientTransform="matrix(1.353218,0,0,1.348928,-77.62935,-85.74693)"
       cx="221.44487"
       cy="226.33101"
       fx="221.44487"
       fy="226.33101"
       r="300" />
    <linearGradient
       id="linearGradient9507">
      <stop
         style="stop-color:white;stop-opacity:0.3137255"
         offset="0"
         id="stop9509" />
      <stop
         style="stop-color:white;stop-opacity:0.25098041"
         offset="0.19"
         id="stop9511" />
      <stop
         style="stop-color:#6b6b6b;stop-opacity:0.1254902"
         offset="0.60000002"
         id="stop9513" />
      <stop
         style="stop-color:black;stop-opacity:0.1254902"
         offset="1"
         id="stop9515" />
    </linearGradient>
    <linearGradient
       id="linearGradient9517">
      <stop
         style="stop-color:white;stop-opacity:1"
         offset="0"
         id="stop9519" />
      <stop
         style="stop-color:white;stop-opacity:1"
         offset="0.22857143"
         id="stop9521" />
      <stop
         style="stop-color:black;stop-opacity:1"
         offset="1"
         id="stop9523" />
    </linearGradient>
    <linearGradient
       id="linearGradient9525">
      <stop
         style="stop-color:#fd0000;stop-opacity:1"
         offset="0"
         id="stop9527" />
      <stop
         style="stop-color:#e77275;stop-opacity:0.65882355"
         offset="0.5"
         id="stop9529" />
      <stop
         style="stop-color:black;stop-opacity:0.32291666"
         offset="1"
         id="stop9531" />
    </linearGradient>
    <radialGradient
       cx="225.52438"
       cy="218.90099"
       r="300"
       fx="225.52438"
       fy="218.90099"
       id="radialGradient9533"
       xlink:href="#linearGradient2955"
       gradientUnits="userSpaceOnUse"
       gradientTransform="matrix(-4.167939e-4,2.182867,-1.884232,-3.599562e-4,615.5972,-289.1214)" />
    <polygon
       points="0,-1 0.58778525,0.80901699 -0.95105652,-0.30901699 0.95105652,-0.30901699 -0.58778525,0.80901699 0,-1 "
       transform="scale(53,53)"
       id="polygon9535" />
    <clipPath
       id="clipPath9537">
      <path
         d="M 0,-200 L 0,600 L 300,600 L 300,-200 L 0,-200 z "
         id="path9539" />
    </clipPath>
    <radialGradient
       cx="225.52438"
       cy="218.90099"
       r="300"
       fx="225.52438"
       fy="218.90099"
       id="radialGradient9541"
       xlink:href="#linearGradient2955"
       gradientUnits="userSpaceOnUse"
       gradientTransform="matrix(-4.167939e-4,2.182867,-1.884232,-3.599562e-4,615.5972,-289.1214)" />
    <radialGradient
       cx="225.52438"
       cy="218.90099"
       r="300"
       fx="225.52438"
       fy="218.90099"
       id="radialGradient9543"
       xlink:href="#linearGradient2955"
       gradientUnits="userSpaceOnUse"
       gradientTransform="matrix(0,1.748721,-1.593162,-1.049767e-7,551.7876,-191.2898)" />
    <radialGradient
       cx="225.52438"
       cy="218.90099"
       r="300"
       fx="225.52438"
       fy="218.90099"
       id="radialGradient9545"
       xlink:href="#linearGradient2955"
       gradientUnits="userSpaceOnUse"
       gradientTransform="matrix(0,1.386237,-1.323286,-5.741131e-8,-158.0823,-109.5408)" />
    <radialGradient
       cx="221.44487"
       cy="226.33101"
       r="300"
       fx="221.44487"
       fy="226.33101"
       id="radialGradient9547"
       xlink:href="#linearGradient2893"
       gradientUnits="userSpaceOnUse"
       gradientTransform="matrix(1.353218,0,0,1.348928,-77.62935,-85.74693)" />
    <radialGradient
       r="300"
       fy="226.33101"
       fx="221.44487"
       cy="226.33101"
       cx="221.44487"
       gradientTransform="matrix(1.353218,0,0,1.348928,-77.62935,-85.74693)"
       gradientUnits="userSpaceOnUse"
       id="radialGradient3567"
       xlink:href="#linearGradient2893"
       inkscape:collect="always" />
    <radialGradient
       r="300"
       fy="218.90099"
       fx="225.52438"
       cy="218.90099"
       cx="225.52438"
       gradientTransform="matrix(0,1.386237,-1.323286,-5.741131e-8,-158.0823,-109.5408)"
       gradientUnits="userSpaceOnUse"
       id="radialGradient3565"
       xlink:href="#linearGradient2955"
       inkscape:collect="always" />
    <radialGradient
       r="300"
       fy="218.90099"
       fx="225.52438"
       cy="218.90099"
       cx="225.52438"
       gradientTransform="matrix(0,1.748721,-1.593162,-1.049767e-7,551.7876,-191.2898)"
       gradientUnits="userSpaceOnUse"
       id="radialGradient3563"
       xlink:href="#linearGradient2955"
       inkscape:collect="always" />
    <radialGradient
       r="300"
       fy="218.90099"
       fx="225.52438"
       cy="218.90099"
       cx="225.52438"
       gradientTransform="matrix(-4.167939e-4,2.182867,-1.884232,-3.599562e-4,615.5972,-289.1214)"
       gradientUnits="userSpaceOnUse"
       id="radialGradient3561"
       xlink:href="#linearGradient2955"
       inkscape:collect="always" />
    <clipPath
       id="clipPath3557">
      <path
         id="path3559"
         d="M 0,-200 L 0,600 L 300,600 L 300,-200 L 0,-200 z " />
    </clipPath>
    <polygon
       points="0,-1 0.58778525,0.80901699 -0.95105652,-0.30901699 0.95105652,-0.30901699 -0.58778525,0.80901699 0,-1 "
       transform="scale(53,53)"
       id="polygon3555" />
    <radialGradient
       gradientUnits="userSpaceOnUse"
       gradientTransform="matrix(-4.167939e-4,2.182867,-1.884232,-3.599562e-4,615.5972,-289.1214)"
       r="300"
       fy="218.90099"
       fx="225.52438"
       cy="218.90099"
       cx="225.52438"
       id="radialGradient3553"
       xlink:href="#linearGradient2955"
       inkscape:collect="always" />
    <linearGradient
       id="linearGradient3545">
      <stop
         style="stop-color:#fd0000;stop-opacity:1;"
         offset="0"
         id="stop3547" />
      <stop
         id="stop3549"
         offset="0.5"
         style="stop-color:#e77275;stop-opacity:0.65882355;" />
      <stop
         id="stop3551"
         offset="1"
         style="stop-color:black;stop-opacity:0.32291666;" />
    </linearGradient>
    <linearGradient
       id="linearGradient3537">
      <stop
         style="stop-color:white;stop-opacity:1;"
         offset="0"
         id="stop3539" />
      <stop
         id="stop3541"
         offset="0.22857143"
         style="stop-color:white;stop-opacity:1;" />
      <stop
         style="stop-color:black;stop-opacity:1;"
         offset="1"
         id="stop3543" />
    </linearGradient>
    <linearGradient
       id="linearGradient3527">
      <stop
         id="stop3529"
         offset="0"
         style="stop-color:white;stop-opacity:0.3137255;" />
      <stop
         style="stop-color:white;stop-opacity:0.25098041;"
         offset="0.19"
         id="stop3531" />
      <stop
         id="stop3533"
         offset="0.60000002"
         style="stop-color:#6b6b6b;stop-opacity:0.1254902;" />
      <stop
         id="stop3535"
         offset="1"
         style="stop-color:black;stop-opacity:0.1254902;" />
    </linearGradient>
    <inkscape:perspective
       id="perspective118"
       inkscape:persp3d-origin="300 : 220 : 1"
       inkscape:vp_z="600 : 330 : 1"
       inkscape:vp_y="0 : 1000 : 0"
       inkscape:vp_x="0 : 330 : 1"
       sodipodi:type="inkscape:persp3d" />
    <inkscape:perspective
       id="perspective181"
       inkscape:persp3d-origin="210 : 173.66667 : 1"
       inkscape:vp_z="420 : 260.5 : 1"
       inkscape:vp_y="0 : 1000 : 0"
       inkscape:vp_x="0 : 260.5 : 1"
       sodipodi:type="inkscape:persp3d" />
    <inkscape:perspective
       id="perspective3245"
       inkscape:persp3d-origin="63.930553 : 47.184703 : 1"
       inkscape:vp_z="127.86111 : 70.777054 : 1"
       inkscape:vp_y="0 : 1000 : 0"
       inkscape:vp_x="0 : 70.777054 : 1"
       sodipodi:type="inkscape:persp3d" />
    <inkscape:perspective
       id="perspective16"
       inkscape:persp3d-origin="138.39273 : 97.22407 : 1"
       inkscape:vp_z="276.78546 : 145.83611 : 1"
       inkscape:vp_y="0 : 1000 : 0"
       inkscape:vp_x="0 : 145.83611 : 1"
       sodipodi:type="inkscape:persp3d" />
    <inkscape:perspective
       id="perspective2567"
       inkscape:persp3d-origin="372.04724 : 350.78739 : 1"
       inkscape:vp_z="744.09448 : 526.18109 : 1"
       inkscape:vp_y="0 : 1000 : 0"
       inkscape:vp_x="0 : 526.18109 : 1"
       sodipodi:type="inkscape:persp3d" />
    <inkscape:perspective
       id="perspective7071"
       inkscape:persp3d-origin="148.57094 : 221.64585 : 1"
       inkscape:vp_z="297.14188 : 332.46878 : 1"
       inkscape:vp_y="0 : 1000 : 0"
       inkscape:vp_x="0 : 332.46878 : 1"
       sodipodi:type="inkscape:persp3d" />
    <radialGradient
       gradientTransform="matrix(1.353218,0,0,1.348928,-77.62935,-85.74693)"
       gradientUnits="userSpaceOnUse"
       xlink:href="#linearGradient2893"
       id="radialGradient7553"
       fy="226.33101"
       fx="221.44487"
       r="300"
       cy="226.33101"
       cx="221.44487" />
    <radialGradient
       gradientTransform="matrix(0,1.386237,-1.323286,-5.741131e-8,-158.0823,-109.5408)"
       gradientUnits="userSpaceOnUse"
       xlink:href="#linearGradient2955"
       id="radialGradient7551"
       fy="218.90099"
       fx="225.52438"
       r="300"
       cy="218.90099"
       cx="225.52438" />
    <radialGradient
       gradientTransform="matrix(0,1.748721,-1.593162,-1.049767e-7,551.7876,-191.2898)"
       gradientUnits="userSpaceOnUse"
       xlink:href="#linearGradient2955"
       id="radialGradient7549"
       fy="218.90099"
       fx="225.52438"
       r="300"
       cy="218.90099"
       cx="225.52438" />
    <radialGradient
       gradientTransform="matrix(-4.167939e-4,2.182867,-1.884232,-3.599562e-4,615.5972,-289.1214)"
       gradientUnits="userSpaceOnUse"
       xlink:href="#linearGradient2955"
       id="radialGradient7547"
       fy="218.90099"
       fx="225.52438"
       r="300"
       cy="218.90099"
       cx="225.52438" />
    <clipPath
       id="clipPath7543">
      <path
         id="path7545"
         d="M 0,-200 L 0,600 L 300,600 L 300,-200 L 0,-200 z " />
    </clipPath>
    <polygon
       id="polygon7541"
       transform="scale(53,53)"
       points="0,-1 0.58778525,0.80901699 -0.95105652,-0.30901699 0.95105652,-0.30901699 -0.58778525,0.80901699 0,-1 " />
    <radialGradient
       gradientTransform="matrix(-4.167939e-4,2.182867,-1.884232,-3.599562e-4,615.5972,-289.1214)"
       gradientUnits="userSpaceOnUse"
       xlink:href="#linearGradient2955"
       id="radialGradient7539"
       fy="218.90099"
       fx="225.52438"
       r="300"
       cy="218.90099"
       cx="225.52438" />
    <linearGradient
       id="linearGradient7531">
      <stop
         id="stop7533"
         offset="0"
         style="stop-color:#fd0000;stop-opacity:1" />
      <stop
         id="stop7535"
         offset="0.5"
         style="stop-color:#e77275;stop-opacity:0.65882355" />
      <stop
         id="stop7537"
         offset="1"
         style="stop-color:#000000;stop-opacity:0.32291666" />
    </linearGradient>
    <linearGradient
       id="linearGradient7523">
      <stop
         id="stop7525"
         offset="0"
         style="stop-color:#ffffff;stop-opacity:1" />
      <stop
         id="stop7527"
         offset="0.22857143"
         style="stop-color:#ffffff;stop-opacity:1" />
      <stop
         id="stop7529"
         offset="1"
         style="stop-color:#000000;stop-opacity:1" />
    </linearGradient>
    <linearGradient
       id="linearGradient7513">
      <stop
         id="stop7515"
         offset="0"
         style="stop-color:#ffffff;stop-opacity:0.3137255" />
      <stop
         id="stop7517"
         offset="0.19"
         style="stop-color:#ffffff;stop-opacity:0.25098041" />
      <stop
         id="stop7519"
         offset="0.60000002"
         style="stop-color:#6b6b6b;stop-opacity:0.1254902" />
      <stop
         id="stop7521"
         offset="1"
         style="stop-color:#000000;stop-opacity:0.1254902" />
    </linearGradient>
    <inkscape:perspective
       id="perspective85"
       inkscape:persp3d-origin="300 : 220 : 1"
       inkscape:vp_z="600 : 330 : 1"
       inkscape:vp_y="0 : 1000 : 0"
       inkscape:vp_x="0 : 330 : 1"
       sodipodi:type="inkscape:persp3d" />
  </defs>
  <g
     inkscape:groupmode="layer"
     id="layer3"
     inkscape:label="Fond écu"
     style="display:inline">
    <path
       id="path2855"
       style="fill:#2b5df2;fill-opacity:1;fill-rule:evenodd;stroke:none;stroke-width:1px;stroke-linecap:butt;stroke-linejoin:miter;stroke-opacity:1"
       d="M 300,658.5 C 300,658.5 598.50001,546.17969 598.50001,260.72817 C 598.50001,-24.723354 598.50001,2.1764765 598.50001,2.1764765 L 1.5,2.1764765 L 1.5,260.72817 C 1.5,546.17969 300,658.5 300,658.5 z "
       sodipodi:nodetypes="cccccc" />
    <rect
       style="fill:#ffffff;stroke:#000000;stroke-width:2.91895794999999980;stroke-miterlimit:4;stroke-dasharray:none;stroke-opacity:1"
       id="rect5714"
       width="597.08105"
       height="147.08104"
       x="1.459479"
       y="1.459481" />
    <g
       id="g1932"
       transform="matrix(0.4544624,0,0,0.4733165,297.08135,8.865186)">
      <path
         sodipodi:nodetypes="ccccccccccccsscccccscccccccscccssccccccccccccscccccccccccccccccccccccccccccccccccccccccccccscccccccccccccccccccccccccccccccccccccccccccccsccccccccccccsscccscccccccscccccssccccccccccccccccc"
         id="path1308"
         style="fill:#000000;fill-opacity:1;fill-rule:evenodd;stroke:#000000;stroke-width:2.00000048;stroke-linecap:butt;stroke-linejoin:miter;stroke-miterlimit:4;stroke-dasharray:none;stroke-opacity:1"
         d="M -23.384532,0.17771881 C -24.839968,0.16827547 -26.430701,0.38125701 -28.259532,0.92771881 C -38.145539,-0.94044056 -41.880914,5.1145731 -50.509532,6.3027188 C -67.729395,6.6231341 -72.017148,18.867432 -71.259532,20.771469 C -70.234101,23.102746 -68.295176,24.806192 -63.665782,24.615219 C -70.222342,18.604833 -66.265454,17.895482 -63.009532,16.833969 C -51.57469,16.08673 -46.753374,18.366639 -44.447032,21.833969 C -39.978024,23.158038 -32.633426,22.862619 -32.228282,26.490219 C -40.450197,25.032504 -49.627172,23.350267 -55.603282,23.490219 C -57.003335,24.208671 -52.080333,27.355786 -45.165782,27.865219 C -12.133431,36.869113 -5.3099442,70.232999 -17.572032,84.552719 C -19.291492,85.440612 -20.886287,86.863346 -23.165782,85.552719 C -28.831656,57.953146 -51.635394,72.050875 -56.103282,75.271469 C -65.724979,82.207089 -77.695565,67.948551 -72.790782,65.927719 C -32.173212,49.192753 -71.866282,22.832962 -74.665782,23.052719 C -77.763253,21.353115 -78.708178,3.907205 -77.228282,0.64646881 C -80.838336,6.1207013 -84.193363,11.889615 -83.884532,21.771469 C -90.123702,21.618724 -91.712662,18.590242 -94.040782,15.990219 C -97.643262,20.69129 -95.076212,25.508537 -92.228282,30.333969 C -92.228282,30.333969 -103.33768,30.027424 -106.22828,32.271469 C -110.14917,35.315347 -112.54397,42.453711 -103.75953,39.365219 C -98.214342,38.320955 -97.764842,40.857046 -95.509532,42.115219 C -103.55579,50.261895 -113.52696,51.430356 -122.60328,55.865219 C -125.35813,57.675568 -119.67966,61.464775 -113.19703,60.990219 L -98.915782,57.427719 C -106.63438,72.421693 -116.01931,82.234549 -126.54078,88.458969 L -131.10328,89.052719 C -128.56135,93.384698 -129.09301,100.20225 -118.66578,97.927719 C -108.23856,95.653192 -106.79103,88.337842 -101.10328,83.271469 C -95.721382,93.093863 -113.65069,121.25395 -120.69703,139.92772 C -123.72771,137.62013 -121.88821,135.07236 -121.44703,132.58397 C -128.12736,131.38222 -132.54426,136.08669 -132.25953,140.89647 C -131.29796,157.13964 -110.94524,155.08036 -107.25953,148.02147 C -99.582152,133.31773 -84.665782,94.396469 -84.665782,94.396469 L -80.040782,95.552719 C -89.442862,124.86098 -95.964912,160.74716 -115.41578,167.11522 C -122.72251,172.21386 -110.62466,186.35709 -101.72828,179.45897 C -78.50803,160.73015 -71.944729,129.06913 -62.197032,99.896469 L -56.822032,102.08397 C -62.932137,128.83328 -63.550843,157.02697 -81.947032,180.52147 C -85.412002,186.54987 -91.848782,189.88979 -97.072032,194.33397 C -99.464322,200.47577 -86.058758,207.89468 -82.384532,206.27147 C -72.325526,205.1211 -67.794785,194.63939 -62.697032,185.14647 C -51.052972,160.22829 -44.899481,131.0914 -36.290782,103.83397 L -31.322032,104.89647 C -38.626854,153.64426 -53.048385,180.4741 -53.790782,183.99022 C -54.830831,188.91606 -35.121138,158.43105 -28.853282,105.42772 L -25.603282,106.08397 C -20.371429,110.8783 -24.845578,136.5489 -27.853282,150.95897 C -36.139884,157.79409 -33.590875,163.61892 -30.415782,169.39647 L -46.572032,197.36522 C -49.494731,188.63885 -56.192156,187.01101 -61.415782,182.61522 C -61.281438,187.39762 -61.930763,192.3835 -59.634532,196.61522 C -58.513454,190.12888 -56.557164,191.20911 -54.572032,192.49022 L -50.978282,200.39647 C -57.036902,199.06471 -63.062583,197.80034 -67.603282,199.14647 C -69.916832,203.36453 -69.367062,206.77538 -65.665782,209.27147 C -66.631259,206.10645 -67.110159,203.19407 -64.259532,202.14647 L -52.509532,205.05272 L -57.072032,211.99022 C -70.062413,209.67449 -67.584365,216.11044 -64.978282,222.61522 C -64.3171,218.69593 -63.677708,214.72805 -58.572032,216.99022 L -46.509532,205.08397 C -43.048792,205.98665 -39.392195,202.92177 -36.134532,208.08397 C -37.469381,209.50414 -38.929659,208.84354 -40.384532,207.95897 C -38.286987,210.55169 -37.078606,214.53927 -31.697032,212.08397 C -29.860576,208.78147 -31.008899,205.13561 -31.915782,201.52147 C -35.834185,199.29345 -39.224438,199.68105 -42.509532,200.67772 L -22.103282,173.17772 C -13.859641,178.22896 -9.0071362,169.50529 -3.6032822,163.05272 L -1.9782822,174.24022 C -8.9330572,186.09078 -14.00924,200.81196 -30.697032,197.92772 C -8.9233952,206.79499 -6.3074222,194.3787 1.5529678,187.80272 C 2.6181038,207.40296 -3.4406342,243.16774 -29.134532,221.08397 C -30.40047,217.66447 -26.243682,214.94252 -21.665782,215.61522 C -22.206032,211.77448 -36.388437,209.73074 -37.478282,223.30272 C -35.267153,227.68793 -33.163753,232.23175 -28.822032,233.77147 C -34.116721,234.70324 -39.13252,232.6501 -44.134532,230.33397 C -56.912494,222.14378 -64.42219,225.56706 -71.634532,229.99022 C -73.969196,237.11499 -71.763679,245.90579 -60.572032,245.99022 C -55.587828,245.71057 -49.017404,242.12799 -50.478282,237.36522 C -59.12519,242.08019 -61.307654,237.18455 -65.040782,234.58397 C -64.646284,233.22983 -65.452039,231.18409 -60.947032,232.27147 C -51.841505,235.90328 -33.750653,242.41118 -16.134532,240.49022 C -10.430406,239.5587 -4.9207962,235.07629 0.64671783,231.52147 C -9.8742712,257.81743 -26.222489,257.64591 -42.759532,256.67772 C -30.05195,260.08372 -20.248311,269.9382 2.3654678,251.14647 C 0.57165283,262.95408 -1.8709652,274.05545 -11.009532,277.92772 L -15.665782,276.74022 C -15.190925,279.25734 -15.791214,283.86159 -5.2282822,280.77147 C -0.19755517,279.12024 2.1102508,272.70594 5.7404678,268.58397 C -2.3862377,280.30734 5.3648652,293.10901 6.6061012,289.09839 C 9.3585602,280.20479 5.1312117,279.53596 6.9355936,273.31209 C 10.565811,277.43406 10.438024,279.94252 15.46875,281.59375 C 26.031682,284.68387 25.400143,280.07962 25.875,277.5625 L 21.25,278.75 C 12.111433,274.87773 9.6375643,263.77636 7.84375,251.96875 C 30.457529,270.76048 40.29242,260.906 53,257.5 C 36.462957,258.46819 20.083489,258.63971 9.5625,232.34375 C 15.130014,235.89857 20.670874,240.38098 26.375,241.3125 C 43.991121,243.23346 62.050721,236.72556 71.15625,233.09375 C 75.661257,232.00637 74.88675,234.05211 75.28125,235.40625 C 71.548122,238.00683 69.334406,242.90247 60.6875,238.1875 C 59.226622,242.95027 65.828294,246.53285 70.8125,246.8125 C 82.004147,246.72807 84.178412,237.93727 81.84375,230.8125 C 74.631408,226.38934 67.15296,222.96606 54.375,231.15625 C 49.372988,233.47238 44.32594,235.52552 39.03125,234.59375 C 43.372971,233.05403 45.476373,228.51021 47.6875,224.125 C 46.597655,210.55302 32.415252,212.59676 31.875,216.4375 C 36.4529,215.7648 40.609687,218.48675 39.34375,221.90625 C 13.649852,243.99002 7.6223641,208.22524 8.6875,188.625 C 16.54789,195.20098 19.132611,207.61727 40.90625,198.75 C 24.218458,201.63424 19.173525,186.91306 12.21875,175.0625 L 13.84375,163.875 C 19.247604,170.32757 24.100111,179.05124 32.34375,174 L 52.75,201.5 C 49.464906,200.50333 46.043405,200.11573 42.125,202.34375 C 41.218117,205.95789 40.101042,209.60375 41.9375,212.90625 C 47.319074,215.36155 48.496203,211.37397 50.59375,208.78125 C 49.138877,209.66582 47.709851,210.32642 46.375,208.90625 C 49.632663,203.74405 53.289262,206.80893 56.75,205.90625 L 68.78125,217.8125 C 73.886926,215.55033 74.526316,219.51821 75.1875,223.4375 C 77.793583,216.93272 80.271637,210.49677 67.28125,212.8125 L 62.71875,205.875 L 74.5,202.96875 C 77.350627,204.01635 76.840475,206.92873 75.875,210.09375 C 79.57628,207.59766 80.126048,204.18681 77.8125,199.96875 C 73.271801,198.62262 67.277369,199.88699 61.21875,201.21875 L 64.78125,193.3125 C 66.766382,192.03139 68.722671,190.95116 69.84375,197.4375 C 72.139981,193.20578 71.521904,188.2199 71.65625,183.4375 C 66.432624,187.83329 59.703947,189.46113 56.78125,198.1875 L 40.625,170.21875 C 43.800093,164.4412 46.3491,158.61637 38.0625,151.78125 C 35.054796,137.37118 30.580645,111.70058 35.8125,106.90625 L 39.0625,106.25 C 45.330356,159.25333 65.040047,189.73834 64,184.8125 C 63.257603,181.29638 48.83607,154.46654 41.53125,105.71875 L 46.5,104.65625 C 55.108699,131.91368 61.262188,161.05057 72.90625,185.96875 C 78.004003,195.46167 82.534742,205.94338 92.59375,207.09375 C 96.267976,208.71696 109.70479,201.29805 107.3125,195.15625 C 102.08925,190.71207 95.652468,187.37215 92.1875,181.34375 C 73.791311,157.84925 73.141353,129.65556 67.03125,102.90625 L 72.4375,100.71875 C 82.185197,129.89141 88.748496,161.55243 111.96875,180.28125 C 120.86513,187.17937 132.93173,173.03614 125.625,167.9375 C 106.17413,161.56944 99.652077,125.68326 90.25,96.375 L 94.90625,95.21875 C 94.90625,95.21875 109.79137,134.14001 117.46875,148.84375 C 121.15446,155.90264 141.53844,157.96192 142.5,141.71875 C 142.78473,136.90897 138.33659,132.2045 131.65625,133.40625 C 132.09743,135.89464 133.93692,138.44241 130.90625,140.75 C 123.85991,122.07623 105.96185,93.916144 111.34375,84.09375 C 117.0315,89.160123 118.44777,96.475473 128.875,98.75 C 139.30223,101.02453 138.77056,94.206979 141.3125,89.875 L 136.78125,89.28125 C 126.25978,83.05683 116.87485,73.243974 109.15625,58.25 L 123.40625,61.8125 C 129.88888,62.287056 135.5986,58.497849 132.84375,56.6875 C 123.76743,52.252637 113.76501,51.084176 105.71875,42.9375 C 107.97406,41.679327 108.42356,39.143236 113.96875,40.1875 C 122.75319,43.275992 120.35839,36.137628 116.4375,33.09375 C 113.5469,30.849705 102.46875,31.15625 102.46875,31.15625 C 105.31668,26.330818 107.88373,21.513571 104.28125,16.8125 C 101.95313,19.412523 100.33293,22.441005 94.09375,22.59375 C 94.402581,12.711896 91.078802,6.9429825 87.46875,1.46875 C 88.948646,4.7294862 87.972469,22.175396 84.875,23.875 C 82.0755,23.655243 42.382429,50.015034 83,66.75 C 87.904783,68.770832 75.934202,83.02937 66.3125,76.09375 C 61.844612,72.873156 39.040876,58.775427 33.375,86.375 C 31.095505,87.685627 29.50071,86.262893 27.78125,85.375 C 15.519162,71.05528 22.373897,37.691394 55.40625,28.6875 C 62.320801,28.178067 67.243801,25.030952 65.84375,24.3125 C 59.86764,24.172548 50.659417,25.854785 42.4375,27.3125 C 42.842644,23.6849 50.187241,23.980319 54.65625,22.65625 C 56.962592,19.18892 61.783906,16.909011 73.21875,17.65625 C 76.474672,18.717763 80.431558,19.427114 73.875,25.4375 C 78.504394,25.628473 80.443325,23.925027 81.46875,21.59375 C 82.226366,19.689713 77.969861,7.4454153 60.75,7.125 C 52.121382,5.9368543 48.386005,-0.11815937 38.5,1.75 C 31.184676,-0.43584718 27.455889,2.7203905 22.53125,4.09375 L 19.09375,9.1875 C 9.0084066,20.281265 8.5332818,35.646239 8.0812337,51.021469 C 4.9056721,32.024455 1.3272858,17.606108 -8.8532822,8.3652188 L -12.290782,3.2714688 C -15.984261,2.2414492 -19.018225,0.20604881 -23.384532,0.17771881 z" />
      <path
         id="path2185"
         style="fill:#ffffff;fill-opacity:1;fill-rule:evenodd;stroke:#000000;stroke-width:2.00000048;stroke-linecap:butt;stroke-linejoin:miter;stroke-miterlimit:4;stroke-dasharray:none;stroke-opacity:1"
         d="M 28.544445,23.597319 C 23.671264,14.312099 33.415089,14.148702 36.156624,16.069187 C 42.342252,19.204299 35.747287,28.470954 28.544445,23.597319 z" />
      <path
         id="path1310"
         style="fill:#000000;fill-opacity:1;stroke:#000000;stroke-width:2;stroke-miterlimit:4;stroke-dasharray:none;stroke-opacity:1"
         transform="matrix(0.530267,2.761428e-2,-3.495718e-2,0.67127,-125.9402,-235.4596)"
         d="M 329.39076,363.24432 C 329.39297,364.95192 326.40034,366.33675 322.70798,366.33675 C 319.01562,366.33675 316.02299,364.95192 316.0252,363.24432 C 316.02299,361.53672 319.01562,360.15189 322.70798,360.15189 C 326.40034,360.15189 329.39297,361.53672 329.39076,363.24432 L 329.39076,363.24432 z" />
      <path
         id="path2189"
         style="fill:none;fill-opacity:0.75;fill-rule:evenodd;stroke:#000000;stroke-width:1.00000024px;stroke-linecap:butt;stroke-linejoin:miter;stroke-opacity:1"
         d="M 69.563907,102.1674 C 73.530551,121.33268 75.593518,140.31664 96.598045,176.04716 C 75.658312,139.99637 73.08384,120.97995 69.563907,102.1674 z" />
      <path
         id="path2191"
         style="fill:none;fill-opacity:0.75;fill-rule:evenodd;stroke:#000000;stroke-width:1.00000024px;stroke-linecap:butt;stroke-linejoin:miter;stroke-opacity:1"
         d="M 92.566616,95.644921 C 98.146821,113.81228 104.36664,129.27163 110.64629,145.39915 C 102.97232,129.13627 97.591052,112.42546 92.566616,95.644921 z" />
      <path
         id="path1878"
         style="fill:#ffffff;fill-opacity:1;fill-rule:evenodd;stroke:#000000;stroke-width:2.00000048;stroke-linecap:butt;stroke-linejoin:miter;stroke-miterlimit:4;stroke-dasharray:none;stroke-opacity:1"
         d="M -30.654745,23.597319 C -25.781564,14.312099 -35.525389,14.148702 -38.266924,16.069187 C -44.452552,19.204299 -37.857587,28.470954 -30.654745,23.597319 z" />
      <path
         id="path1880"
         style="fill:#000000;fill-opacity:1;stroke:#000000;stroke-width:2;stroke-miterlimit:4;stroke-dasharray:none;stroke-opacity:1"
         transform="matrix(-0.530267,2.761428e-2,3.495718e-2,0.67127,123.8299,-235.4596)"
         d="M 329.39076,363.24432 C 329.39297,364.95192 326.40034,366.33675 322.70798,366.33675 C 319.01562,366.33675 316.02299,364.95192 316.0252,363.24432 C 316.02299,361.53672 319.01562,360.15189 322.70798,360.15189 C 326.40034,360.15189 329.39297,361.53672 329.39076,363.24432 L 329.39076,363.24432 z" />
      <path
         id="path1882"
         style="fill:none;fill-opacity:0.75;fill-rule:evenodd;stroke:#000000;stroke-width:1.00000024px;stroke-linecap:butt;stroke-linejoin:miter;stroke-opacity:1"
         d="M -71.674207,102.1674 C -75.640851,121.33268 -77.703818,140.31664 -98.708345,176.04716 C -77.768612,139.99637 -75.19414,120.97995 -71.674207,102.1674 z" />
      <path
         id="path1884"
         style="fill:none;fill-opacity:0.75;fill-rule:evenodd;stroke:#000000;stroke-width:1.00000024px;stroke-linecap:butt;stroke-linejoin:miter;stroke-opacity:1"
         d="M -94.676916,95.644921 C -100.25712,113.81228 -106.47694,129.27163 -112.75659,145.39915 C -105.08262,129.13627 -99.701352,112.42546 -94.676916,95.644921 z" />
    </g>
    <g
       id="g6836"
       inkscape:label="Calque 1"
       transform="matrix(0.5589445,0,0,0.6254744,-59.21881,-266.08652)">
      <g
         style="stroke:#000000;stroke-width:6.63322878;stroke-miterlimit:4;stroke-dasharray:none;stroke-opacity:1;display:inline"
         transform="matrix(0.3010013,-1.7546418e-2,1.7546418e-2,0.3010013,399.25443,434.50837)"
         id="g9145">
        <path
           style="fill:#e20909;fill-opacity:1;fill-rule:evenodd;stroke:#000000;stroke-width:6.63322878;stroke-linecap:butt;stroke-linejoin:miter;stroke-miterlimit:4;stroke-dasharray:none;stroke-opacity:1"
           d="M -547.22868,154.49419 C -605.44613,154.7409 -645.0415,168.46476 -675.93999,220.68842 C -682.52994,246.00542 -692.72496,271.17134 -689.89584,297.84731 C -691.55976,348.87952 -667.50601,386.5713 -655.19186,434.39441 C -641.57571,483.17582 -591.59113,500.52774 -563.47712,539.03991 C -552.38934,549.60652 -545.77787,564.31151 -537.44288,575.78463 C -507.70256,631.8593 -462.88757,580.8765 -440.71135,557.0937 C -405.66435,532.85927 -389.71711,514.58854 -356.96619,487.18555 C -326.86842,457.30671 -303.16112,420.73164 -291.34536,379.7797 C -270.34373,298.31358 -291.31734,206.45146 -372.98769,170.03195 C -422.60524,149.53587 -461.87165,143.52401 -515.13381,151.92644 C -528.4288,154.07018 -533.89905,152.7668 -547.22868,154.49419 z"
           id="path9147"
           sodipodi:nodetypes="cccccccccccc" />
        <path
           transform="matrix(0.8021607,0,0,0.6870519,-166.54973,305.36542)"
           d="M -204.00782,-25.141022 A 11.734963,18.95648 0 1 1 -227.47775,-25.141022 A 11.734963,18.95648 0 1 1 -204.00782,-25.141022 z"
           sodipodi:ry="18.95648"
           sodipodi:rx="11.734963"
           sodipodi:cy="-25.141022"
           sodipodi:cx="-215.74278"
           id="path9149"
           style="fill:#fcef3c;fill-opacity:1;stroke:#000000;stroke-width:8.93510151;stroke-miterlimit:4;stroke-dasharray:none;stroke-opacity:1"
           sodipodi:type="arc" />
        <path
           transform="matrix(0.8021607,0,0,0.6870519,-144.88518,364.94293)"
           d="M -204.00782,-25.141022 A 11.734963,18.95648 0 1 1 -227.47775,-25.141022 A 11.734963,18.95648 0 1 1 -204.00782,-25.141022 z"
           sodipodi:ry="18.95648"
           sodipodi:rx="11.734963"
           sodipodi:cy="-25.141022"
           sodipodi:cx="-215.74278"
           id="path9151"
           style="fill:#fcef3c;fill-opacity:1;stroke:#000000;stroke-width:8.93510151;stroke-miterlimit:4;stroke-dasharray:none;stroke-opacity:1"
           sodipodi:type="arc" />
        <path
           transform="matrix(0.8021607,0,0,0.6870519,-190.01966,372.16444)"
           d="M -204.00782,-25.141022 A 11.734963,18.95648 0 1 1 -227.47775,-25.141022 A 11.734963,18.95648 0 1 1 -204.00782,-25.141022 z"
           sodipodi:ry="18.95648"
           sodipodi:rx="11.734963"
           sodipodi:cy="-25.141022"
           sodipodi:cx="-215.74278"
           id="path9153"
           style="fill:#fcef3c;fill-opacity:1;stroke:#000000;stroke-width:8.93510151;stroke-miterlimit:4;stroke-dasharray:none;stroke-opacity:1"
           sodipodi:type="arc" />
        <path
           sodipodi:type="arc"
           style="fill:#fcef3c;fill-opacity:1;stroke:#000000;stroke-width:8.93510151;stroke-miterlimit:4;stroke-dasharray:none;stroke-opacity:1"
           id="path9155"
           sodipodi:cx="-215.74278"
           sodipodi:cy="-25.141022"
           sodipodi:rx="11.734963"
           sodipodi:ry="18.95648"
           d="M -204.00782,-25.141022 A 11.734963,18.95648 0 1 1 -227.47775,-25.141022 A 11.734963,18.95648 0 1 1 -204.00782,-25.141022 z"
           transform="matrix(0.8021607,0,0,0.6870519,-385.00059,262.03632)" />
        <path
           sodipodi:type="arc"
           style="fill:#fcef3c;fill-opacity:1;stroke:#000000;stroke-width:8.93510151;stroke-miterlimit:4;stroke-dasharray:none;stroke-opacity:1"
           id="path9157"
           sodipodi:cx="-215.74278"
           sodipodi:cy="-25.141022"
           sodipodi:rx="11.734963"
           sodipodi:ry="18.95648"
           d="M -204.00782,-25.141022 A 11.734963,18.95648 0 1 1 -227.47775,-25.141022 A 11.734963,18.95648 0 1 1 -204.00782,-25.141022 z"
           transform="matrix(0.8021607,0,0,0.6870519,-338.06074,278.28473)" />
        <path
           sodipodi:type="arc"
           style="fill:#fcef3c;fill-opacity:1;stroke:#000000;stroke-width:8.93510151;stroke-miterlimit:4;stroke-dasharray:none;stroke-opacity:1"
           id="path9159"
           sodipodi:cx="-215.74278"
           sodipodi:cy="-25.141022"
           sodipodi:rx="11.734963"
           sodipodi:ry="18.95648"
           d="M -204.00782,-25.141022 A 11.734963,18.95648 0 1 1 -227.47775,-25.141022 A 11.734963,18.95648 0 1 1 -204.00782,-25.141022 z"
           transform="matrix(0.8021607,0,0,0.6870519,-274.87247,283.70087)" />
        <path
           sodipodi:type="arc"
           style="fill:#fcef3c;fill-opacity:1;stroke:#000000;stroke-width:8.93510151;stroke-miterlimit:4;stroke-dasharray:none;stroke-opacity:1"
           id="path9161"
           sodipodi:cx="-215.74278"
           sodipodi:cy="-25.141022"
           sodipodi:rx="11.734963"
           sodipodi:ry="18.95648"
           d="M -204.00782,-25.141022 A 11.734963,18.95648 0 1 1 -227.47775,-25.141022 A 11.734963,18.95648 0 1 1 -204.00782,-25.141022 z"
           transform="matrix(0.8021607,0,0,0.6870519,-215.29496,278.28473)" />
        <path
           sodipodi:type="arc"
           style="fill:#fcef3c;fill-opacity:1;stroke:#000000;stroke-width:8.93510151;stroke-miterlimit:4;stroke-dasharray:none;stroke-opacity:1"
           id="path9163"
           sodipodi:cx="-215.74278"
           sodipodi:cy="-25.141022"
           sodipodi:rx="11.734963"
           sodipodi:ry="18.95648"
           d="M -204.00782,-25.141022 A 11.734963,18.95648 0 1 1 -227.47775,-25.141022 A 11.734963,18.95648 0 1 1 -204.00782,-25.141022 z"
           transform="matrix(0.8021607,0,0,0.6870519,-437.35658,267.45246)" />
        <path
           sodipodi:type="arc"
           style="fill:#fcef3c;fill-opacity:1;stroke:#000000;stroke-width:8.93510151;stroke-miterlimit:4;stroke-dasharray:none;stroke-opacity:1"
           id="path9165"
           sodipodi:cx="-215.74278"
           sodipodi:cy="-25.141022"
           sodipodi:rx="11.734963"
           sodipodi:ry="18.95648"
           d="M -204.00782,-25.141022 A 11.734963,18.95648 0 1 1 -227.47775,-25.141022 A 11.734963,18.95648 0 1 1 -204.00782,-25.141022 z"
           transform="matrix(0.8021607,0,0,0.6870519,-444.5781,325.22459)" />
        <path
           sodipodi:type="arc"
           style="fill:#fcef3c;fill-opacity:1;stroke:#000000;stroke-width:8.93510151;stroke-miterlimit:4;stroke-dasharray:none;stroke-opacity:1"
           id="path9167"
           sodipodi:cx="-215.74278"
           sodipodi:cy="-25.141022"
           sodipodi:rx="11.734963"
           sodipodi:ry="18.95648"
           d="M -204.00782,-25.141022 A 11.734963,18.95648 0 1 1 -227.47775,-25.141022 A 11.734963,18.95648 0 1 1 -204.00782,-25.141022 z"
           transform="matrix(0.8021607,0,0,0.6870519,-453.60499,373.96982)" />
        <path
           sodipodi:type="arc"
           style="fill:#fcef3c;fill-opacity:1;stroke:#000000;stroke-width:8.93510151;stroke-miterlimit:4;stroke-dasharray:none;stroke-opacity:1"
           id="path9169"
           sodipodi:cx="-215.74278"
           sodipodi:cy="-25.141022"
           sodipodi:rx="11.734963"
           sodipodi:ry="18.95648"
           d="M -204.00782,-25.141022 A 11.734963,18.95648 0 1 1 -227.47775,-25.141022 A 11.734963,18.95648 0 1 1 -204.00782,-25.141022 z"
           transform="matrix(0.8021607,0,0,0.6870519,-336.25536,354.11065)" />
        <path
           sodipodi:type="arc"
           style="fill:#fcef3c;fill-opacity:1;stroke:#000000;stroke-width:8.93510151;stroke-miterlimit:4;stroke-dasharray:none;stroke-opacity:1"
           id="path9171"
           sodipodi:cx="-215.74278"
           sodipodi:cy="-25.141022"
           sodipodi:rx="11.734963"
           sodipodi:ry="18.95648"
           d="M -204.00782,-25.141022 A 11.734963,18.95648 0 1 1 -227.47775,-25.141022 A 11.734963,18.95648 0 1 1 -204.00782,-25.141022 z"
           transform="matrix(0.8021607,0,0,0.6870519,-310.98005,390.21823)" />
        <path
           sodipodi:type="arc"
           style="fill:#fcef3c;fill-opacity:1;stroke:#000000;stroke-width:8.93510151;stroke-miterlimit:4;stroke-dasharray:none;stroke-opacity:1"
           id="path9173"
           sodipodi:cx="-215.74278"
           sodipodi:cy="-25.141022"
           sodipodi:rx="11.734963"
           sodipodi:ry="18.95648"
           d="M -204.00782,-25.141022 A 11.734963,18.95648 0 1 1 -227.47775,-25.141022 A 11.734963,18.95648 0 1 1 -204.00782,-25.141022 z"
           transform="matrix(0.8021607,0,0,0.6870519,-325.42308,466.04415)" />
        <path
           sodipodi:type="arc"
           style="fill:#fcef3c;fill-opacity:1;stroke:#000000;stroke-width:8.93510151;stroke-miterlimit:4;stroke-dasharray:none;stroke-opacity:1"
           id="path9175"
           sodipodi:cx="-215.74278"
           sodipodi:cy="-25.141022"
           sodipodi:rx="11.734963"
           sodipodi:ry="18.95648"
           d="M -204.00782,-25.141022 A 11.734963,18.95648 0 1 1 -227.47775,-25.141022 A 11.734963,18.95648 0 1 1 -204.00782,-25.141022 z"
           transform="matrix(0.8021607,0,0,0.6870519,-312.78543,516.59476)" />
        <path
           sodipodi:type="arc"
           style="fill:#fcef3c;fill-opacity:1;stroke:#000000;stroke-width:8.93510151;stroke-miterlimit:4;stroke-dasharray:none;stroke-opacity:1"
           id="path9177"
           sodipodi:cx="-215.74278"
           sodipodi:cy="-25.141022"
           sodipodi:rx="11.734963"
           sodipodi:ry="18.95648"
           d="M -204.00782,-25.141022 A 11.734963,18.95648 0 1 1 -227.47775,-25.141022 A 11.734963,18.95648 0 1 1 -204.00782,-25.141022 z"
           transform="matrix(0.8021607,0,0,0.6870519,-329.03384,567.14537)" />
        <path
           sodipodi:type="arc"
           style="fill:#fcef3c;fill-opacity:1;stroke:#000000;stroke-width:8.93510151;stroke-miterlimit:4;stroke-dasharray:none;stroke-opacity:1"
           id="path9179"
           sodipodi:cx="-215.74278"
           sodipodi:cy="-25.141022"
           sodipodi:rx="11.734963"
           sodipodi:ry="18.95648"
           d="M -204.00782,-25.141022 A 11.734963,18.95648 0 1 1 -227.47775,-25.141022 A 11.734963,18.95648 0 1 1 -204.00782,-25.141022 z"
           transform="matrix(0.6250029,0.5028252,-0.4306706,0.535316,-271.5645,586.95867)" />
        <path
           sodipodi:type="arc"
           style="fill:#fcef3c;fill-opacity:1;stroke:#000000;stroke-width:8.93510151;stroke-miterlimit:4;stroke-dasharray:none;stroke-opacity:1"
           id="path9181"
           sodipodi:cx="-215.74278"
           sodipodi:cy="-25.141022"
           sodipodi:rx="11.734963"
           sodipodi:ry="18.95648"
           d="M -204.00782,-25.141022 A 11.734963,18.95648 0 1 1 -227.47775,-25.141022 A 11.734963,18.95648 0 1 1 -204.00782,-25.141022 z"
           transform="matrix(0.8021607,0,0,0.6870519,-227.93262,408.27202)" />
        <path
           sodipodi:type="arc"
           style="fill:#fcef3c;fill-opacity:1;stroke:#000000;stroke-width:8.93510151;stroke-miterlimit:4;stroke-dasharray:none;stroke-opacity:1"
           id="path9183"
           sodipodi:cx="-215.74278"
           sodipodi:cy="-25.141022"
           sodipodi:rx="11.734963"
           sodipodi:ry="18.95648"
           d="M -204.00782,-25.141022 A 11.734963,18.95648 0 1 1 -227.47775,-25.141022 A 11.734963,18.95648 0 1 1 -204.00782,-25.141022 z"
           transform="matrix(0.8021607,0,0,0.6870519,-229.73799,337.86224)" />
        <path
           sodipodi:type="arc"
           style="fill:#fcef3c;fill-opacity:1;stroke:#000000;stroke-width:8.93510151;stroke-miterlimit:4;stroke-dasharray:none;stroke-opacity:1"
           id="path9185"
           sodipodi:cx="-215.74278"
           sodipodi:cy="-25.141022"
           sodipodi:rx="11.734963"
           sodipodi:ry="18.95648"
           d="M -204.00782,-25.141022 A 11.734963,18.95648 0 1 1 -227.47775,-25.141022 A 11.734963,18.95648 0 1 1 -204.00782,-25.141022 z"
           transform="matrix(0.8021607,0,0,0.6870519,-278.48323,339.66762)" />
        <path
           sodipodi:type="arc"
           style="fill:#fcef3c;fill-opacity:1;stroke:#000000;stroke-width:8.93510151;stroke-miterlimit:4;stroke-dasharray:none;stroke-opacity:1"
           id="path9187"
           sodipodi:cx="-215.74278"
           sodipodi:cy="-25.141022"
           sodipodi:rx="11.734963"
           sodipodi:ry="18.95648"
           d="M -204.00782,-25.141022 A 11.734963,18.95648 0 1 1 -227.47775,-25.141022 A 11.734963,18.95648 0 1 1 -204.00782,-25.141022 z"
           transform="matrix(0.8021607,0,0,0.6870519,-273.06709,419.1043)" />
        <path
           sodipodi:type="arc"
           style="fill:#fcef3c;fill-opacity:1;stroke:#000000;stroke-width:8.93510151;stroke-miterlimit:4;stroke-dasharray:none;stroke-opacity:1"
           id="path9189"
           sodipodi:cx="-215.74278"
           sodipodi:cy="-25.141022"
           sodipodi:rx="11.734963"
           sodipodi:ry="18.95648"
           d="M -204.00782,-25.141022 A 11.734963,18.95648 0 1 1 -227.47775,-25.141022 A 11.734963,18.95648 0 1 1 -204.00782,-25.141022 z"
           transform="matrix(0.8021607,0,0,0.6870519,-354.30915,417.29892)" />
        <path
           sodipodi:type="arc"
           style="fill:#fcef3c;fill-opacity:1;stroke:#000000;stroke-width:8.93510151;stroke-miterlimit:4;stroke-dasharray:none;stroke-opacity:1"
           id="path9191"
           sodipodi:cx="-215.74278"
           sodipodi:cy="-25.141022"
           sodipodi:rx="11.734963"
           sodipodi:ry="18.95648"
           d="M -204.00782,-25.141022 A 11.734963,18.95648 0 1 1 -227.47775,-25.141022 A 11.734963,18.95648 0 1 1 -204.00782,-25.141022 z"
           transform="matrix(0.8021607,0,0,0.6870519,-390.41673,334.25148)" />
        <path
           sodipodi:type="arc"
           style="fill:#fcef3c;fill-opacity:1;stroke:#000000;stroke-width:8.93510151;stroke-miterlimit:4;stroke-dasharray:none;stroke-opacity:1"
           id="path9193"
           sodipodi:cx="-215.74278"
           sodipodi:cy="-25.141022"
           sodipodi:rx="11.734963"
           sodipodi:ry="18.95648"
           d="M -204.00782,-25.141022 A 11.734963,18.95648 0 1 1 -227.47775,-25.141022 A 11.734963,18.95648 0 1 1 -204.00782,-25.141022 z"
           transform="matrix(0.8021607,0,0,0.6870519,-406.66514,390.21823)" />
        <path
           transform="matrix(0.6867398,-0.4145482,0.3550611,0.5881938,-406.39135,359.67995)"
           d="M -204.00782,-25.141022 A 11.734963,18.95648 0 1 1 -227.47775,-25.141022 A 11.734963,18.95648 0 1 1 -204.00782,-25.141022 z"
           sodipodi:ry="18.95648"
           sodipodi:rx="11.734963"
           sodipodi:cy="-25.141022"
           sodipodi:cx="-215.74278"
           id="path9195"
           style="fill:#fcef3c;fill-opacity:1;stroke:#000000;stroke-width:8.93510151;stroke-miterlimit:4;stroke-dasharray:none;stroke-opacity:1"
           sodipodi:type="arc" />
        <path
           inkscape:transform-center-x="-30.691443"
           inkscape:transform-center-y="-54.16137"
           transform="matrix(0.6867398,-0.4145482,0.3550611,0.5881938,-444.30431,350.65305)"
           d="M -204.00782,-25.141022 A 11.734963,18.95648 0 1 1 -227.47775,-25.141022 A 11.734963,18.95648 0 1 1 -204.00782,-25.141022 z"
           sodipodi:ry="18.95648"
           sodipodi:rx="11.734963"
           sodipodi:cy="-25.141022"
           sodipodi:cx="-215.74278"
           id="path9197"
           style="fill:#fcef3c;fill-opacity:1;stroke:#000000;stroke-width:8.93510151;stroke-miterlimit:4;stroke-dasharray:none;stroke-opacity:1"
           sodipodi:type="arc" />
        <path
           inkscape:transform-center-x="-30.691443"
           inkscape:transform-center-y="-54.16137"
           transform="matrix(0.6867398,-0.4145482,0.3550611,0.5881938,-397.36445,412.03594)"
           d="M -204.00782,-25.141022 A 11.734963,18.95648 0 1 1 -227.47775,-25.141022 A 11.734963,18.95648 0 1 1 -204.00782,-25.141022 z"
           sodipodi:ry="18.95648"
           sodipodi:rx="11.734963"
           sodipodi:cy="-25.141022"
           sodipodi:cx="-215.74278"
           id="path9199"
           style="fill:#fcef3c;fill-opacity:1;stroke:#000000;stroke-width:8.93510151;stroke-miterlimit:4;stroke-dasharray:none;stroke-opacity:1"
           sodipodi:type="arc" />
        <path
           inkscape:transform-center-x="-30.691443"
           inkscape:transform-center-y="-54.16137"
           transform="matrix(0.6867398,-0.4145482,0.3550611,0.5881938,-502.07644,254.96797)"
           d="M -204.00782,-25.141022 A 11.734963,18.95648 0 1 1 -227.47775,-25.141022 A 11.734963,18.95648 0 1 1 -204.00782,-25.141022 z"
           sodipodi:ry="18.95648"
           sodipodi:rx="11.734963"
           sodipodi:cy="-25.141022"
           sodipodi:cx="-215.74278"
           id="path9201"
           style="fill:#fcef3c;fill-opacity:1;stroke:#000000;stroke-width:8.93510151;stroke-miterlimit:4;stroke-dasharray:none;stroke-opacity:1"
           sodipodi:type="arc" />
        <path
           inkscape:transform-center-x="-30.691443"
           inkscape:transform-center-y="-54.16137"
           transform="matrix(0.6867398,-0.4145482,0.3550611,0.5881938,-187.94049,153.86674)"
           d="M -204.00782,-25.141022 A 11.734963,18.95648 0 1 1 -227.47775,-25.141022 A 11.734963,18.95648 0 1 1 -204.00782,-25.141022 z"
           sodipodi:ry="18.95648"
           sodipodi:rx="11.734963"
           sodipodi:cy="-25.141022"
           sodipodi:cx="-215.74278"
           id="path9203"
           style="fill:#fcef3c;fill-opacity:1;stroke:#000000;stroke-width:8.93510151;stroke-miterlimit:4;stroke-dasharray:none;stroke-opacity:1"
           sodipodi:type="arc" />
        <path
           inkscape:transform-center-x="-30.691443"
           inkscape:transform-center-y="-54.16137"
           transform="matrix(0.6867398,-0.4145482,0.3550611,0.5881938,-233.07497,115.95378)"
           d="M -204.00782,-25.141022 A 11.734963,18.95648 0 1 1 -227.47775,-25.141022 A 11.734963,18.95648 0 1 1 -204.00782,-25.141022 z"
           sodipodi:ry="18.95648"
           sodipodi:rx="11.734963"
           sodipodi:cy="-25.141022"
           sodipodi:cx="-215.74278"
           id="path9205"
           style="fill:#fcef3c;fill-opacity:1;stroke:#000000;stroke-width:8.93510151;stroke-miterlimit:4;stroke-dasharray:none;stroke-opacity:1"
           sodipodi:type="arc" />
        <path
           inkscape:transform-center-x="-30.691443"
           inkscape:transform-center-y="-54.16137"
           transform="matrix(0.6867398,-0.4145482,0.3550611,0.5881938,-289.04171,128.59144)"
           d="M -204.00782,-25.141022 A 11.734963,18.95648 0 1 1 -227.47775,-25.141022 A 11.734963,18.95648 0 1 1 -204.00782,-25.141022 z"
           sodipodi:ry="18.95648"
           sodipodi:rx="11.734963"
           sodipodi:cy="-25.141022"
           sodipodi:cx="-215.74278"
           id="path9207"
           style="fill:#fcef3c;fill-opacity:1;stroke:#000000;stroke-width:8.93510151;stroke-miterlimit:4;stroke-dasharray:none;stroke-opacity:1"
           sodipodi:type="arc" />
        <path
           inkscape:transform-center-x="30.691445"
           inkscape:transform-center-y="-54.16137"
           transform="matrix(-0.6867398,-0.4145482,-0.3550611,0.5881938,-749.44892,119.56454)"
           d="M -204.00782,-25.141022 A 11.734963,18.95648 0 1 1 -227.47775,-25.141022 A 11.734963,18.95648 0 1 1 -204.00782,-25.141022 z"
           sodipodi:ry="18.95648"
           sodipodi:rx="11.734963"
           sodipodi:cy="-25.141022"
           sodipodi:cx="-215.74278"
           id="path9209"
           style="fill:#fcef3c;fill-opacity:1;stroke:#000000;stroke-width:8.93510151;stroke-miterlimit:4;stroke-dasharray:none;stroke-opacity:1"
           sodipodi:type="arc" />
        <path
           inkscape:transform-center-x="-30.691443"
           inkscape:transform-center-y="-54.16137"
           transform="matrix(0.6867398,-0.4145482,0.3550611,0.5881938,-484.02264,325.37774)"
           d="M -204.00782,-25.141022 A 11.734963,18.95648 0 1 1 -227.47775,-25.141022 A 11.734963,18.95648 0 1 1 -204.00782,-25.141022 z"
           sodipodi:ry="18.95648"
           sodipodi:rx="11.734963"
           sodipodi:cy="-25.141022"
           sodipodi:cx="-215.74278"
           id="path9211"
           style="fill:#fcef3c;fill-opacity:1;stroke:#000000;stroke-width:8.93510151;stroke-miterlimit:4;stroke-dasharray:none;stroke-opacity:1"
           sodipodi:type="arc" />
        <path
           inkscape:transform-center-x="-30.691443"
           inkscape:transform-center-y="-54.16137"
           transform="matrix(0.6867398,-0.4145482,0.3550611,0.5881938,-446.10968,395.78753)"
           d="M -204.00782,-25.141022 A 11.734963,18.95648 0 1 1 -227.47775,-25.141022 A 11.734963,18.95648 0 1 1 -204.00782,-25.141022 z"
           sodipodi:ry="18.95648"
           sodipodi:rx="11.734963"
           sodipodi:cy="-25.141022"
           sodipodi:cx="-215.74278"
           id="path9213"
           style="fill:#fcef3c;fill-opacity:1;stroke:#000000;stroke-width:8.93510151;stroke-miterlimit:4;stroke-dasharray:none;stroke-opacity:1"
           sodipodi:type="arc" />
        <path
           inkscape:transform-center-x="30.691445"
           inkscape:transform-center-y="-54.16137"
           transform="matrix(-0.6867398,-0.4145482,-0.3550611,0.5881938,-498.50124,348.84767)"
           d="M -204.00782,-25.141022 A 11.734963,18.95648 0 1 1 -227.47775,-25.141022 A 11.734963,18.95648 0 1 1 -204.00782,-25.141022 z"
           sodipodi:ry="18.95648"
           sodipodi:rx="11.734963"
           sodipodi:cy="-25.141022"
           sodipodi:cx="-215.74278"
           id="path9215"
           style="fill:#fcef3c;fill-opacity:1;stroke:#000000;stroke-width:8.93510151;stroke-miterlimit:4;stroke-dasharray:none;stroke-opacity:1"
           sodipodi:type="arc" />
        <path
           inkscape:transform-center-x="30.691445"
           inkscape:transform-center-y="-54.16137"
           transform="matrix(-0.6867398,-0.4145482,-0.3550611,0.5881938,-586.96481,448.14352)"
           d="M -204.00782,-25.141022 A 11.734963,18.95648 0 1 1 -227.47775,-25.141022 A 11.734963,18.95648 0 1 1 -204.00782,-25.141022 z"
           sodipodi:ry="18.95648"
           sodipodi:rx="11.734963"
           sodipodi:cy="-25.141022"
           sodipodi:cx="-215.74278"
           id="path9217"
           style="fill:#fcef3c;fill-opacity:1;stroke:#000000;stroke-width:8.93510151;stroke-miterlimit:4;stroke-dasharray:none;stroke-opacity:1"
           sodipodi:type="arc" />
        <path
           inkscape:transform-center-x="30.691445"
           inkscape:transform-center-y="-54.16137"
           transform="matrix(-0.6867398,-0.4145482,-0.3550611,0.5881938,-612.24012,383.14987)"
           d="M -204.00782,-25.141022 A 11.734963,18.95648 0 1 1 -227.47775,-25.141022 A 11.734963,18.95648 0 1 1 -204.00782,-25.141022 z"
           sodipodi:ry="18.95648"
           sodipodi:rx="11.734963"
           sodipodi:cy="-25.141022"
           sodipodi:cx="-215.74278"
           id="path9219"
           style="fill:#fcef3c;fill-opacity:1;stroke:#000000;stroke-width:8.93510151;stroke-miterlimit:4;stroke-dasharray:none;stroke-opacity:1"
           sodipodi:type="arc" />
        <path
           inkscape:transform-center-x="30.691445"
           inkscape:transform-center-y="-54.16137"
           transform="matrix(-0.6867398,-0.4145482,-0.3550611,0.5881938,-810.83181,146.64522)"
           d="M -204.00782,-25.141022 A 11.734963,18.95648 0 1 1 -227.47775,-25.141022 A 11.734963,18.95648 0 1 1 -204.00782,-25.141022 z"
           sodipodi:ry="18.95648"
           sodipodi:rx="11.734963"
           sodipodi:cy="-25.141022"
           sodipodi:cx="-215.74278"
           id="path9221"
           style="fill:#fcef3c;fill-opacity:1;stroke:#000000;stroke-width:8.93510151;stroke-miterlimit:4;stroke-dasharray:none;stroke-opacity:1"
           sodipodi:type="arc" />
        <path
           inkscape:transform-center-x="30.691445"
           inkscape:transform-center-y="-54.16137"
           transform="matrix(-0.6867398,-0.4145482,-0.3550611,0.5881938,-691.67679,115.95378)"
           d="M -204.00782,-25.141022 A 11.734963,18.95648 0 1 1 -227.47775,-25.141022 A 11.734963,18.95648 0 1 1 -204.00782,-25.141022 z"
           sodipodi:ry="18.95648"
           sodipodi:rx="11.734963"
           sodipodi:cy="-25.141022"
           sodipodi:cx="-215.74278"
           id="path9223"
           style="fill:#fcef3c;fill-opacity:1;stroke:#000000;stroke-width:8.93510151;stroke-miterlimit:4;stroke-dasharray:none;stroke-opacity:1"
           sodipodi:type="arc" />
        <path
           style="fill:#5ab532;fill-opacity:1;fill-rule:evenodd;stroke:#000000;stroke-width:6.63322878;stroke-linecap:butt;stroke-linejoin:miter;stroke-miterlimit:4;stroke-dasharray:none;stroke-opacity:1"
           d="M -586.68773,76.869492 C -585.35283,115.65884 -563.74832,118.8547 -532.75221,130.07768 C -550.70854,125.38491 -621.88907,127.74138 -656.34869,140.42118 C -635.61532,150.76309 -606.93038,149.32433 -583.68549,147.87545 C -563.11299,147.33876 -542.54722,149.52112 -522.03099,149.34813 C -560.47753,159.4787 -592.4551,174.49349 -619.21863,199.43667 C -584.95721,192.64401 -576.3679,191.29465 -556.0548,183.68 C -538.19725,179.96961 -511.80077,163.15609 -494.51066,158.65696 C -498.90728,169.80876 -501.16251,182.24057 -495.32662,193.16014 C -493.26368,207.00716 -481.10137,219.23223 -469.46388,238.42704 C -456.38826,213.92418 -464.26519,183.66461 -471.44445,165.52918 C -452.00017,176.91861 -448.43258,176.37174 -437.04484,181.77222 C -412.93902,195.01846 -395.3383,215.78918 -359.85007,221.9754 C -382.43836,180.97329 -422.79847,169.5878 -438.50006,149.10658 C -389.87075,174.99836 -350.81199,155.78841 -303.83872,150.39373 C -346.97993,108.47266 -393.91997,141.86911 -457.76268,135.17332 C -433.06697,131.21442 -421.63377,100.59212 -386.9552,83.557549 C -430.76949,76.259339 -458.54407,113.3596 -489.85165,131.08718 C -503.96298,125.11247 -493.96937,113.83298 -512.4757,107.53745 C -541.48276,99.174875 -550.69966,88.845782 -586.68773,76.869492 z"
           id="path9225"
           sodipodi:nodetypes="cccccccccccccccccccc" />
        <path
           inkscape:transform-center-x="30.691445"
           inkscape:transform-center-y="-54.16137"
           transform="matrix(-0.6867398,-0.4145482,-0.3550611,0.5881938,-819.8587,193.58508)"
           d="M -204.00782,-25.141022 A 11.734963,18.95648 0 1 1 -227.47775,-25.141022 A 11.734963,18.95648 0 1 1 -204.00782,-25.141022 z"
           sodipodi:ry="18.95648"
           sodipodi:rx="11.734963"
           sodipodi:cy="-25.141022"
           sodipodi:cx="-215.74278"
           id="path9227"
           style="fill:#fcef3c;fill-opacity:1;stroke:#000000;stroke-width:8.93510151;stroke-miterlimit:4;stroke-dasharray:none;stroke-opacity:1"
           sodipodi:type="arc" />
      </g>
    </g>
    <use
       x="0"
       y="0"
       xlink:href="#g6836"
       id="use6880"
       transform="translate(419.99887,0)"
       width="600"
       height="660" />
    <g
       id="g7555"
       transform="translate(1.8727616,1.2171119)"
       style="fill:#fcef3c;stroke:#000000;stroke-opacity:1;stroke-width:3;stroke-miterlimit:4;stroke-dasharray:none">
      <g
         id="g7557"
         style="fill:#fcef3c;stroke:#000000;stroke-opacity:1;stroke-width:3;stroke-miterlimit:4;stroke-dasharray:none">
        <g
           id="g2402"
           transform="translate(-372.84992,-47.850969)"
           style="fill:#fcef3c;stroke:#000000;stroke-opacity:1;stroke-width:3;stroke-miterlimit:4;stroke-dasharray:none">
          <g
             id="g2813"
             style="fill:#fcef3c;stroke:#000000;stroke-opacity:1;stroke-width:3;stroke-miterlimit:4;stroke-dasharray:none">
            <g
               id="g3444"
               style="fill:#fcef3c;fill-opacity:1;stroke:#000000;stroke-width:6.05912176;stroke-miterlimit:4;stroke-dasharray:none;stroke-opacity:1"
               transform="matrix(0.5894568,0,0,0.415883,447.98804,373.38746)">
              <g
                 id="g18923"
                 style="fill:#fcef3c;fill-opacity:1;stroke:#000000;stroke-width:2.8806302;stroke-miterlimit:4;stroke-dasharray:none;stroke-opacity:1;display:inline"
                 transform="matrix(1.8212741,0,0,2.4292322,-160.10689,-810.33188)">
                <path
                   sodipodi:nodetypes="cscc"
                   id="path12658"
                   style="fill:#fcef3c;fill-opacity:1;fill-rule:evenodd;stroke:#000000;stroke-width:2.8806302;stroke-linecap:butt;stroke-linejoin:miter;stroke-miterlimit:4;stroke-dasharray:none;stroke-opacity:1;display:inline"
                   d="M 114.23289,526.05204 C 190.00022,616.22834 297.19952,662.20971 297.19979,662.20975 C 320.34748,651.28122 415.93158,597.20847 480.75288,525.4925 C 313.9251,494.12138 301.20555,478.16471 114.23289,526.05204 z" />
              </g>
            </g>
          </g>
        </g>
      </g>
      <g
         id="g7564"
         style="fill:#fcef3c;stroke:#000000;stroke-opacity:1;stroke-width:3;stroke-miterlimit:4;stroke-dasharray:none" />
    </g>
    <g
       style="fill:#fcef3c;display:inline"
       id="g7074"
       transform="matrix(0.6610184,0,0,0.6195254,191.13116,165.83025)">
      <g
         id="g7076"
         transform="translate(-217.59658,-244.77003)"
         style="fill:#fcef3c">
        <path
           id="path7078"
           style="fill:#fcef3c;fill-rule:evenodd;stroke:#000000;stroke-width:2;stroke-linecap:butt;stroke-linejoin:miter;stroke-miterlimit:4;stroke-dasharray:none;stroke-opacity:1"
           d="M 272.85714,330.21932 C 237.97672,284.29973 303.78388,239.46301 335.71429,263.79075 C 365.09434,233.92892 429.91433,243.05607 434.28571,277.36218 C 510.37611,266.94438 545.61634,362.43264 477.14286,353.79075 C 481.03844,376.21473 475.06435,393.70388 448.57143,400.93361 C 482.58303,435.17575 462.86929,476.44703 405.71429,465.21932 C 388.42348,477.84554 357.71134,476.34404 304.28571,450.93361 C 281.73346,492.13039 220.45106,473.90404 239.28571,420.21932 C 214.67265,399.14492 208.35589,378.68039 240.71429,359.50504 C 237.61042,336.78862 245.5384,324.41455 272.85714,330.21932 z" />
      </g>
      <g
         id="g7080"
         style="fill:#fcef3c;display:inline"
         transform="translate(-217.59658,-244.77003)">
        <g
           id="g1892"
           style="fill:#fcef3c;fill-opacity:1;stroke-width:2;stroke-miterlimit:4;stroke-dasharray:none">
          <path
             id="path1890"
             style="fill:#fcef3c;fill-opacity:1;fill-rule:evenodd;stroke:#000000;stroke-width:2;stroke-linecap:butt;stroke-linejoin:miter;stroke-miterlimit:4;stroke-dasharray:none;stroke-opacity:1"
             d="M 395.67782,585.29822 L 395.9798,595.52069 C 403.51385,590.13321 409.91649,583.61432 418.58196,579.35825 C 423.9751,577.37275 434.07097,576.3278 441.81547,574.81257 C 442.88635,572.21997 417.41101,575.16401 419.84465,572.79226 C 421.26689,569.41698 423.6833,565.2283 421.61242,564.71104 C 412.64514,576.05168 404.15181,579.09757 395.67782,585.29822 z" />
          <path
             id="path1886"
             style="fill:#fcef3c;fill-opacity:1;fill-rule:evenodd;stroke:#000000;stroke-width:2;stroke-linecap:butt;stroke-linejoin:miter;stroke-miterlimit:4;stroke-dasharray:none;stroke-opacity:1"
             transform="translate(217.59658,244.77003)"
             d="M 161.125,81.3125 C 169.52082,90.669921 191.18531,130.79385 195.96875,155.4375 C 188.63702,172.39148 182.3743,190.40109 173.84375,206.15625 C 160.28792,194.2281 149.54905,178.07895 137.40625,164.03125 C 123.04136,142.41912 118.98312,117.04906 109.90625,97.25 C 108.68418,95.765562 106.93022,95.31814 105.25,94.75 C 110.49309,110.61136 119.81033,137.33571 118.125,149.03125 C 117.05342,149.77091 114.63973,149.35893 100.4375,138.84375 C 99.649117,141.27695 98.42808,143.48041 96.6875,145.4375 L 126.6875,173.3125 C 140.40634,189.26488 149.42671,204.51907 156.6875,221.15625 C 157.61491,224.14494 156.24602,228.28398 155.96875,231.875 C 130.64072,207.1538 93.12974,199.19802 68.125,174.75 C 68.120654,178.35711 68.60347,178.39213 69.4375,179.96875 C 75.397508,191.23528 142.4124,221.30525 155.96875,242.59375 L 157.40625,354.75 L 144.5625,344.53125 C 144.40494,344.11162 140.18919,346.24417 142.03125,347.90625 C 144.98962,350.57559 152.24397,358.00836 155.96875,361.875 L 154.71875,593.84375 L 148.09375,606.15625 L 124.90625,618 C 111.92588,625.81498 110.14518,630.55485 105.96875,635.96875 L 123.46875,625.5625 L 122.0625,631.25 C 128.32627,625.16739 134.60085,619.11837 146.65625,618 L 153.78125,614.21875 C 150.764,616.60994 146.41797,616.71635 143.84375,624.625 L 135.78125,629.8125 L 133.40625,636.9375 C 136.24659,633.10261 139.09715,630.87995 141.9375,630.78125 C 144.95927,637.18167 136.5426,646.3583 123.46875,653.5 C 127.23164,653.71608 131.37711,654.0057 131.53125,653.5 C 140.6631,650.69238 145.62802,643.5876 148.5625,638.8125 C 149.10444,634.86759 148.2927,630.94488 147.15625,627 C 148.68247,621.49603 153.14829,619.28962 157.09375,619.40625 C 158.25243,619.75457 160.40208,624.12916 158.5,632.1875 C 159.64984,638.2737 163.15141,640.0273 166.5625,643.5625 C 169.38177,648.99441 164.41781,658.0232 158.5,663.4375 C 166.74719,658.9623 180.65024,653.801 165.59375,634.5625 L 174.59375,636.9375 C 172.87985,634.57061 169.75682,632.1794 164.65625,629.8125 C 163.06065,621.40231 168.75643,621.52483 171.75,618.46875 L 170.34375,621.78125 C 175.99634,621.49378 176.22179,626.6319 176.96875,631.25 L 183.59375,639.28125 L 181.21875,652.5625 C 182.6471,650.1383 183.75759,650.0289 185.96875,642.125 C 189.91368,649.03207 193.83633,651.05585 197.78125,654.90625 L 190.6875,644.5 L 185.5,632.65625 L 192.125,634.5625 C 184.92289,630.29809 179.73371,627.21022 181.6875,618 L 183.125,620.34375 L 187.375,619.875 L 197.3125,628.40625 L 210.09375,632.1875 L 216.25,637.40625 L 214.84375,633.125 L 223.34375,633.125 L 209.625,628.875 L 196.84375,621.78125 L 187.375,609.9375 L 191.65625,613.71875 L 208.21875,618 L 226.1875,623.6875 L 213.875,615.15625 L 238.03125,618.46875 L 223.84375,613.25 L 201.09375,610.40625 L 186.3125,601.625 C 186.35283,601.87542 186.39635,602.12458 186.4375,602.375 L 181.21875,598.59375 L 186.3125,601.625 L 178.5,284.09375 C 184.41867,277.71859 210.04288,258.2698 218.8125,253.625 C 226.93959,249.32052 221.54539,250.94429 220.96875,248.90625 C 206.92113,256.48652 192.89137,263.73332 178.84375,273.90625 C 179.08185,256.3293 178.28184,238.73321 179.53125,221.15625 C 186.25818,200.07601 199.58185,170.3497 209.34375,147.96875 C 207.42478,151.48686 228.46406,161.38457 225.25,158.3125 C 223.41522,157.97781 207.88422,142.4503 208.8125,140.59375 C 222.17002,127.11816 231.50513,107.91933 248.125,106.875 L 244.875,105.125 C 229.41564,102.66979 206.90095,140.78491 204.09375,137.65625 C 204.37884,127.73161 204.20045,118.82521 202.125,114.09375 C 201.26748,124.3809 199.33159,131.99178 197.5625,140 C 191.92482,125.94964 175.11677,94.50969 168.8125,84.5 C 167.38309,82.230438 162.20144,82.003022 161.125,81.3125 z" />
          <path
             id="path1888"
             style="fill:#fcef3c;fill-opacity:1;fill-rule:evenodd;stroke:#000000;stroke-width:2;stroke-linecap:butt;stroke-linejoin:miter;stroke-miterlimit:4;stroke-dasharray:none;stroke-opacity:1"
             d="M 374.13525,535.79543 L 374.00898,525.6939 C 362.79542,519.67035 340.84053,511.39696 339.53753,508.01623 C 335.44514,504.49707 330.10944,488.36034 324.00643,484.40391 C 328.84787,494.15294 332.27422,502.58121 332.08765,507.63742 L 307.21264,500.81889 C 306.76638,501.40815 306.412,501.9974 305.31861,502.58666 C 317.18916,505.8684 326.96919,511.24066 337.64349,515.71864 C 348.81368,520.75469 361.96981,529.10063 374.13525,535.79543 z" />
        </g>
      </g>
    </g>
  </g>
  <g
     inkscape:groupmode="layer"
     id="layer4"
     inkscape:label="Meubles"
     sodipodi:insensitive="true" />
  <g
     inkscape:groupmode="layer"
     id="layer2"
     inkscape:label="Reflet final"
     sodipodi:insensitive="true">
    <path
       sodipodi:nodetypes="cccccc"
       d="M 300.00001,658.5 C 300.00001,658.5 598.50001,546.17969 598.50001,260.72817 C 598.50001,-24.723334 598.50001,2.1764865 598.50001,2.1764865 L 1.5,2.1764865 L 1.5,260.72817 C 1.5,546.17969 300.00001,658.5 300.00001,658.5 z "
       style="opacity:1;fill:url(#radialGradient3163);fill-opacity:1;fill-rule:evenodd;stroke:none;stroke-width:1px;stroke-linecap:butt;stroke-linejoin:miter;stroke-opacity:1"
       id="path2875"
       inkscape:export-xdpi="144"
       inkscape:export-ydpi="144" />
  </g>
  <g
     inkscape:groupmode="layer"
     id="layer1"
     inkscape:label="Contour final"
     sodipodi:insensitive="true">
    <path
       sodipodi:nodetypes="cccccc"
       d="M 299.99999,658.50028 C 299.99999,658.50028 1.5,546.17992 1.5,260.72828 C 1.5,-24.723336 1.5,2.1764957 1.5,2.1764957 L 598.49999,2.1764957 L 598.49999,260.72828 C 598.49999,546.17992 299.99999,658.50028 299.99999,658.50028 z "
       style="opacity:1;fill:none;fill-opacity:1;fill-rule:evenodd;stroke:#000000;stroke-width:3.00000048;stroke-linecap:butt;stroke-linejoin:miter;stroke-miterlimit:4;stroke-dasharray:none;stroke-opacity:1"
       id="path1411"
       inkscape:export-xdpi="144"
       inkscape:export-ydpi="144" />
  </g>
</svg>
