<?xml version="1.0" encoding="UTF-8" standalone="no"?>
<svg
   xmlns:dc="http://purl.org/dc/elements/1.1/"
   xmlns:cc="http://web.resource.org/cc/"
   xmlns:rdf="http://www.w3.org/1999/02/22-rdf-syntax-ns#"
   xmlns:svg="http://www.w3.org/2000/svg"
   xmlns="http://www.w3.org/2000/svg"
   xmlns:xlink="http://www.w3.org/1999/xlink"
   xmlns:sodipodi="http://sodipodi.sourceforge.net/DTD/sodipodi-0.dtd"
   xmlns:inkscape="http://www.inkscape.org/namespaces/inkscape"
   height="660"
   width="600"
   version="1.0"
   id="svg2"
   sodipodi:version="0.32"
   inkscape:version="0.45.1"
   sodipodi:docname="Blason ville fr Auenheim (Bas-Rhin).svg"
   sodipodi:docbase="C:\Users\Jany\Documents\aaaOuiqui\Blasons\Blasons autres"
   inkscape:export-filename="/Users/olivier/Desktop/Blason Rouge/Blason_Vide_3D.png"
   inkscape:export-xdpi="144"
   inkscape:export-ydpi="144"
   inkscape:output_extension="org.inkscape.output.svg.inkscape">
  <metadata
     id="metadata49">
    <rdf:RDF>
      <cc:Work
         rdf:about="">
        <dc:format>image/svg+xml</dc:format>
        <dc:type
           rdf:resource="http://purl.org/dc/dcmitype/StillImage" />
        <dc:title>Gabarit d'un blason en pointe pour le projet Blasons de Wikipédia</dc:title>
        <dc:date>03-AUG-2006</dc:date>
        <dc:creator>
          <cc:Agent>
            <dc:title>Jérôme BLUM (wagner51)</dc:title>
          </cc:Agent>
        </dc:creator>
        <cc:license
           rdf:resource="http://web.resource.org/cc/PublicDomain" />
        <dc:language>fr</dc:language>
        <dc:subject>
          <rdf:Bag>
            <rdf:li>gabarit modèle blason projet wikipédia</rdf:li>
          </rdf:Bag>
        </dc:subject>
      </cc:Work>
      <cc:License
         rdf:about="http://web.resource.org/cc/PublicDomain">
        <cc:permits
           rdf:resource="http://web.resource.org/cc/Reproduction" />
        <cc:permits
           rdf:resource="http://web.resource.org/cc/Distribution" />
        <cc:permits
           rdf:resource="http://web.resource.org/cc/DerivativeWorks" />
      </cc:License>
    </rdf:RDF>
  </metadata>
  <sodipodi:namedview
     inkscape:window-height="814"
     inkscape:window-width="1152"
     inkscape:pageshadow="2"
     inkscape:pageopacity="0.0"
     guidetolerance="10.0"
     gridtolerance="10.0"
     objecttolerance="10.0"
     borderopacity="1.0"
     bordercolor="#666666"
     pagecolor="#ffffff"
     id="base"
     showgrid="false"
     height="660px"
     inkscape:zoom="0.63"
     inkscape:cx="415.89526"
     inkscape:cy="497.46824"
     inkscape:window-x="-8"
     inkscape:window-y="-8"
     inkscape:current-layer="layer3" />
  <desc
     id="desc4">Flag of Canton of Valais (Wallis)</desc>
  <defs
     id="defs6">
    <linearGradient
       id="linearGradient2893">
      <stop
         style="stop-color:white;stop-opacity:0.3137255;"
         offset="0"
         id="stop2895" />
      <stop
         id="stop2897"
         offset="0.19"
         style="stop-color:white;stop-opacity:0.25098041;" />
      <stop
         style="stop-color:#6b6b6b;stop-opacity:0.1254902;"
         offset="0.60000002"
         id="stop2901" />
      <stop
         style="stop-color:black;stop-opacity:0.1254902;"
         offset="1"
         id="stop2899" />
    </linearGradient>
    <radialGradient
       inkscape:collect="always"
       xlink:href="#linearGradient2893"
       id="radialGradient3163"
       gradientUnits="userSpaceOnUse"
       gradientTransform="matrix(1.353218,0,0,1.348928,-77.62935,-85.74693)"
       cx="221.44487"
       cy="226.33101"
       fx="221.44487"
       fy="226.33101"
       r="300" />
  </defs>
  <g
     inkscape:groupmode="layer"
     id="layer3"
     inkscape:label="Fond écu"
     style="display:inline">
    <path
       id="path2855"
       style="fill:#ffffff;fill-opacity:1;fill-rule:evenodd;stroke:none;stroke-width:1px;stroke-linecap:butt;stroke-linejoin:miter;stroke-opacity:1"
       d="M 300,658.5 C 300,658.5 598.50001,546.17969 598.50001,260.72817 C 598.50001,-24.723354 598.50001,2.1764765 598.50001,2.1764765 L 1.5,2.1764765 L 1.5,260.72817 C 1.5,546.17969 300,658.5 300,658.5 z "
       sodipodi:nodetypes="cccccc" />
    <path
       style="font-size:12px;font-style:normal;font-variant:normal;font-weight:normal;font-stretch:normal;text-align:start;line-height:125%;writing-mode:lr-tb;text-anchor:start;font-family:Times New Roman;fill:#000000;fill-opacity:1;stroke:#313131;stroke-opacity:1;stroke-width:3;stroke-miterlimit:4;stroke-dasharray:none"
       d="M 289.26488,405.76196 L 206.54063,216.28549 L 206.54063,366.73755 C 206.54063,380.57599 207.96161,389.21127 210.80332,392.6431 C 214.69741,397.29276 220.85421,399.61758 229.27396,399.61758 L 236.85173,399.61758 L 236.85173,405.76196 L 162.33708,405.76196 L 162.33708,399.61758 L 169.91485,399.61758 C 178.96614,399.61758 185.38617,396.73925 189.17493,390.98259 C 191.49042,387.43994 192.64817,379.35817 192.64817,366.73755 L 192.64817,219.60679 C 192.64817,209.64316 191.59551,202.44733 189.4907,198.01874 C 188.01718,194.80853 185.30723,192.12377 181.36032,189.96474 C 177.41368,187.80627 171.07259,186.72675 162.33708,186.72647 L 162.33708,180.58238 L 222.95927,180.58238 L 300.63141,356.77363 L 377.04072,180.58238 L 437.66293,180.58238 L 437.66293,186.72647 L 430.24304,186.72647 C 421.08613,186.72675 414.61356,189.60509 410.82507,195.36175 C 408.50932,198.90468 407.35156,206.98617 407.35182,219.60679 L 407.35182,366.73755 C 407.35156,380.57599 408.82508,389.21127 411.77213,392.6431 C 415.66597,397.29276 421.82303,399.61758 430.24304,399.61758 L 437.66293,399.61758 L 437.66293,405.76196 L 346.72961,405.76196 L 346.72961,399.61758 L 354.3074,399.61758 C 363.4635,399.61758 369.8838,396.73925 373.56747,390.98259 C 375.8827,387.43994 377.04045,379.35817 377.04072,366.73755 L 377.04072,216.28549 L 294.47464,405.76196 L 289.26488,405.76196 z "
       id="flowRoot3348" />
    <g
       transform="matrix(0.648838,0,0,0.648838,106.05268,-231.84119)"
       style="opacity:1;display:inline;fill:#000000;fill-opacity:1;stroke:#313131;stroke-opacity:1;stroke-width:4.62365028;stroke-miterlimit:4;stroke-dasharray:none"
       inkscape:label="Fond écu"
       id="g3477">
      <g
         transform="matrix(0.1,0,0,0.1,216.5747,83.14893)"
         style="fill:#000000;fill-opacity:1;stroke:#313131;stroke-width:46.23650279;stroke-miterlimit:4;stroke-dasharray:none;stroke-opacity:1"
         id="g8444">
        <path
           id="path8446"
           style="stroke-width:46.23650279;stroke-miterlimit:4;stroke-dasharray:none;fill:#000000;fill-opacity:1;stroke:#313131;stroke-opacity:1"
           d="M 936.04361,3978.5403 C 948.94232,3714.9766 1007.9734,3455.8527 1109.17,3211.5447 L 537.63512,3211.5447 C 638.8571,3455.9139 697.04822,3715.6534 708.38647,3978.5403 C 444.70847,3964.4912 186.48326,3906.3849 -56.540428,3805.7203 L -56.540428,4377.2552 C 186.54833,4276.5635 444.64199,4218.4531 708.38647,4202.3556 C 697.45271,4464.5971 639.38792,4725.7797 537.63512,4971.4291 L 1109.17,4971.4291 C 1007.9481,4727.0613 949.75696,4465.3606 936.04361,4202.3556 C 1198.9769,4215.8225 1458.8538,4275.9826 1703.3439,4377.2552 L 1703.3439,3805.7203 C 1458.915,3906.9676 1199.7431,3965.6805 936.04361,3978.5403 z "
           sodipodi:nodetypes="ccccccccccccc" />
      </g>
    </g>
    <g
       id="g3597"
       transform="translate(-0.5239448,23.897738)"
       style="fill:#000000;fill-opacity:1;stroke:#313131;stroke-opacity:1;stroke-width:3;stroke-miterlimit:4;stroke-dasharray:none">
      <g
         id="g3589"
         inkscape:label="Meubles"
         style="display:inline;fill:#000000;fill-opacity:1;stroke:#313131;stroke-opacity:1;stroke-width:3.51431015;stroke-miterlimit:4;stroke-dasharray:none"
         transform="matrix(0.8536526,0,0,-0.8536526,256.33287,502.54816)">
        <path
           id="path3591"
           style="fill:#000000;fill-opacity:1;stroke:#313131;stroke-width:3.51431015;stroke-miterlimit:4;stroke-dasharray:none;stroke-opacity:1"
           d="M 285.71152,287.96454 L 285.70214,341.37069 L 314.18654,341.37069 L 314.07135,288.28389 L 368.79266,288.11835 L 368.79266,259.11469 L 314.23104,258.93195 L 314.30817,205.16013 L 285.69199,205.16013 L 285.71152,258.77225 L 231.20748,259.11469 L 231.20748,288.11835 L 285.71152,287.96454 z "
           sodipodi:nodetypes="ccccccccccccc" />
      </g>
      <g
         id="g3593"
         inkscape:label="Meubles"
         style="display:inline;fill:#000000;fill-opacity:1;stroke:#313131;stroke-opacity:1;stroke-width:3.51431015;stroke-miterlimit:4;stroke-dasharray:none"
         transform="matrix(0.8536526,0,0,-0.8536526,-167.47665,502.54816)">
        <path
           id="path3595"
           style="fill:#000000;fill-opacity:1;stroke:#313131;stroke-width:3.51431015;stroke-miterlimit:4;stroke-dasharray:none;stroke-opacity:1"
           d="M 285.71152,287.96454 L 285.70214,341.37069 L 314.18654,341.37069 L 314.07135,288.28389 L 368.79266,288.11835 L 368.79266,259.11469 L 314.23104,258.93195 L 314.30817,205.16013 L 285.69199,205.16013 L 285.71152,258.77225 L 231.20748,259.11469 L 231.20748,288.11835 L 285.71152,287.96454 z "
           sodipodi:nodetypes="ccccccccccccc" />
      </g>
    </g>
    <g
       id="g3585"
       inkscape:label="Meubles"
       style="display:inline;fill:#000000;fill-opacity:1;stroke:#313131;stroke-opacity:1;stroke-width:3.51431015;stroke-miterlimit:4;stroke-dasharray:none"
       transform="matrix(0.8536526,0,0,-0.8536526,43.904165,771.59578)">
      <path
         id="path3587"
         style="fill:#000000;fill-opacity:1;stroke:#313131;stroke-width:3.51431015;stroke-miterlimit:4;stroke-dasharray:none;stroke-opacity:1"
         d="M 285.71152,287.96454 L 285.70214,341.37069 L 314.18654,341.37069 L 314.07135,288.28389 L 368.79266,288.11835 L 368.79266,259.11469 L 314.23104,258.93195 L 314.30817,205.16013 L 285.69199,205.16013 L 285.71152,258.77225 L 231.20748,259.11469 L 231.20748,288.11835 L 285.71152,287.96454 z "
         sodipodi:nodetypes="ccccccccccccc" />
    </g>
  </g>
  <g
     inkscape:groupmode="layer"
     id="layer4"
     inkscape:label="Meubles"
     sodipodi:insensitive="true" />
  <g
     inkscape:groupmode="layer"
     id="layer2"
     inkscape:label="Reflet final"
     sodipodi:insensitive="true">
    <path
       sodipodi:nodetypes="cccccc"
       d="M 300.00001,658.5 C 300.00001,658.5 598.50001,546.17969 598.50001,260.72817 C 598.50001,-24.723334 598.50001,2.1764865 598.50001,2.1764865 L 1.5,2.1764865 L 1.5,260.72817 C 1.5,546.17969 300.00001,658.5 300.00001,658.5 z "
       style="opacity:1;fill:url(#radialGradient3163);fill-opacity:1;fill-rule:evenodd;stroke:none;stroke-width:1px;stroke-linecap:butt;stroke-linejoin:miter;stroke-opacity:1"
       id="path2875"
       inkscape:export-xdpi="144"
       inkscape:export-ydpi="144" />
  </g>
  <g
     inkscape:groupmode="layer"
     id="layer1"
     inkscape:label="Contour final"
     sodipodi:insensitive="true">
    <path
       sodipodi:nodetypes="cccccc"
       d="M 299.99999,658.50028 C 299.99999,658.50028 1.5,546.17992 1.5,260.72828 C 1.5,-24.723336 1.5,2.1764957 1.5,2.1764957 L 598.49999,2.1764957 L 598.49999,260.72828 C 598.49999,546.17992 299.99999,658.50028 299.99999,658.50028 z "
       style="opacity:1;fill:none;fill-opacity:1;fill-rule:evenodd;stroke:#000000;stroke-width:3.00000048;stroke-linecap:butt;stroke-linejoin:miter;stroke-miterlimit:4;stroke-dasharray:none;stroke-opacity:1"
       id="path1411"
       inkscape:export-xdpi="144"
       inkscape:export-ydpi="144" />
  </g>
</svg>
