<?xml version="1.0" encoding="UTF-8" standalone="no"?>
<svg
   xmlns:dc="http://purl.org/dc/elements/1.1/"
   xmlns:cc="http://creativecommons.org/ns#"
   xmlns:rdf="http://www.w3.org/1999/02/22-rdf-syntax-ns#"
   xmlns:svg="http://www.w3.org/2000/svg"
   xmlns="http://www.w3.org/2000/svg"
   xmlns:xlink="http://www.w3.org/1999/xlink"
   xmlns:sodipodi="http://sodipodi.sourceforge.net/DTD/sodipodi-0.dtd"
   xmlns:inkscape="http://www.inkscape.org/namespaces/inkscape"
   height="660"
   width="600"
   version="1.0"
   id="svg2"
   sodipodi:version="0.32"
   inkscape:version="0.46"
   sodipodi:docname="Blason ville fr Cavalaire-sur-Mer (Var).svg"
   sodipodi:docbase="D:\Mes documents\Renaud-Notre Lapin"
   inkscape:export-filename="/Users/olivier/Desktop/Blason Rouge/Blason_Vide_3D.png"
   inkscape:export-xdpi="144"
   inkscape:export-ydpi="144"
   inkscape:output_extension="org.inkscape.output.svg.inkscape">
  <metadata
     id="metadata49">
    <rdf:RDF>
      <cc:Work
         rdf:about="">
        <dc:format>image/svg+xml</dc:format>
        <dc:type
           rdf:resource="http://purl.org/dc/dcmitype/StillImage" />
        <dc:title>Gabarit d'un blason en pointe pour le projet Blasons de Wikipédia</dc:title>
        <dc:date>03-AUG-2006</dc:date>
        <dc:creator>
          <cc:Agent>
            <dc:title>Jérôme BLUM (wagner51)</dc:title>
          </cc:Agent>
        </dc:creator>
        <cc:license
           rdf:resource="http://web.resource.org/cc/PublicDomain" />
        <dc:language>fr</dc:language>
        <dc:subject>
          <rdf:Bag>
            <rdf:li>gabarit modèle blason projet wikipédia</rdf:li>
          </rdf:Bag>
        </dc:subject>
      </cc:Work>
      <cc:License
         rdf:about="http://web.resource.org/cc/PublicDomain">
        <cc:permits
           rdf:resource="http://web.resource.org/cc/Reproduction" />
        <cc:permits
           rdf:resource="http://web.resource.org/cc/Distribution" />
        <cc:permits
           rdf:resource="http://web.resource.org/cc/DerivativeWorks" />
      </cc:License>
    </rdf:RDF>
  </metadata>
  <sodipodi:namedview
     inkscape:window-height="814"
     inkscape:window-width="1152"
     inkscape:pageshadow="2"
     inkscape:pageopacity="0.0"
     guidetolerance="10.0"
     gridtolerance="10.0"
     objecttolerance="10.0"
     borderopacity="1.0"
     bordercolor="#666666"
     pagecolor="#ffffff"
     id="base"
     showgrid="false"
     height="660px"
     inkscape:zoom="0.89095454"
     inkscape:cx="320.89252"
     inkscape:cy="299.28912"
     inkscape:window-x="-8"
     inkscape:window-y="-8"
     inkscape:current-layer="layer3" />
  <desc
     id="desc4">Flag of Canton of Valais (Wallis)</desc>
  <defs
     id="defs6">
    <inkscape:perspective
       sodipodi:type="inkscape:persp3d"
       inkscape:vp_x="0 : 330 : 1"
       inkscape:vp_y="0 : 1000 : 0"
       inkscape:vp_z="600 : 330 : 1"
       inkscape:persp3d-origin="300 : 220 : 1"
       id="perspective3328" />
    <linearGradient
       id="linearGradient2893">
      <stop
         style="stop-color:white;stop-opacity:0.3137255;"
         offset="0"
         id="stop2895" />
      <stop
         id="stop2897"
         offset="0.19"
         style="stop-color:white;stop-opacity:0.25098041;" />
      <stop
         style="stop-color:#6b6b6b;stop-opacity:0.1254902;"
         offset="0.60000002"
         id="stop2901" />
      <stop
         style="stop-color:black;stop-opacity:0.1254902;"
         offset="1"
         id="stop2899" />
    </linearGradient>
    <radialGradient
       inkscape:collect="always"
       xlink:href="#linearGradient2893"
       id="radialGradient3163"
       gradientUnits="userSpaceOnUse"
       gradientTransform="matrix(1.353218,0,0,1.348928,-77.62935,-85.74693)"
       cx="221.44487"
       cy="226.33101"
       fx="221.44487"
       fy="226.33101"
       r="300" />
  </defs>
  <g
     inkscape:groupmode="layer"
     id="layer3"
     inkscape:label="Fond écu"
     style="display:inline">
    <path
       id="path2855"
       style="fill:#e20909;fill-opacity:1;fill-rule:evenodd;stroke:none;stroke-width:1px;stroke-linecap:butt;stroke-linejoin:miter;stroke-opacity:1"
       d="M 300,658.5 C 300,658.5 598.50001,546.17969 598.50001,260.72817 C 598.50001,-24.723354 598.50001,2.1764765 598.50001,2.1764765 L 1.5,2.1764765 L 1.5,260.72817 C 1.5,546.17969 300,658.5 300,658.5 z"
       sodipodi:nodetypes="cccccc" />
    <g
       transform="matrix(0.6784573,0,0,0.6784573,-84.51974,-134.59349)"
       style="display:inline"
       inkscape:label="Fond écu"
       id="g5190">
      <g
         id="g2584">
        <path
           style="fill:#fcef3c;fill-opacity:1;fill-rule:evenodd;stroke:#000000;stroke-width:2.70000005;stroke-linecap:butt;stroke-linejoin:miter;stroke-miterlimit:4;stroke-dasharray:none;stroke-opacity:1"
           d="M 848.71132,432.73288 C 846.59697,428.46117 836.67411,441.78136 832.91621,453.39085 C 828.89647,465.80921 825.05357,481.12463 823.77737,486.09758 C 823.55496,490.22824 821.521,496.2906 822.53186,500.34121 C 821.39593,503.83168 829.45426,512.79106 832.69191,515.86553 C 829.30528,518.2654 819.48044,510.81929 814.95426,503.81921 C 811.79335,499.95064 808.40852,504.48449 801.7907,504.76065 C 786.03963,507.11465 781.39228,509.07784 776.59303,505.89202 C 786.17762,501.67712 806.21311,500.48057 807.23464,495.51199 C 801.79367,490.55592 777.82763,487.38672 778.07217,479.62826 C 781.18911,478.87684 788.13801,482.46485 794.69015,485.04791 C 799.44392,486.922 804.6729,488.91194 808.50357,490.16257 C 813.59459,492.5995 816.18909,486.16529 818.10996,477.80346 C 820.34779,468.06185 824.53561,456.22572 825.46689,451.97361 C 827.51293,440.29627 825.96788,427.49348 823.83345,425.49997 C 832.49101,421.42243 840.65469,429.66465 848.71132,432.73288 z"
           id="path13773"
           sodipodi:nodetypes="csccccccccscsccc" />
        <path
           style="fill:#fcef3c;fill-opacity:1;fill-rule:evenodd;stroke:#000000;stroke-width:2.70000005;stroke-linecap:butt;stroke-linejoin:miter;stroke-miterlimit:4;stroke-dasharray:none;stroke-opacity:1"
           d="M 867.2891,486.03843 C 867.56206,487.85889 869.26943,491.17732 870.65804,493.05952 C 873.84332,497.37702 878.36484,499.10375 881.54534,501.91262 C 884.26033,503.34316 889.79329,505.27521 889.0736,508.7265 C 885.17469,509.23677 883.94676,507.63902 880.43041,506.39685 C 867.89463,500.0347 864.90845,496.21671 861.62146,496.03178 C 859.39857,495.90671 859.86653,498.01876 855.19671,499.92728 C 848.1345,502.46955 843.92922,510.04982 836.39874,509.67713 C 841.72251,504.74319 848.8019,499.1483 853.96355,493.92976 C 860.97695,489.31315 830.50429,496.22926 829.14026,492.0087 C 834.40159,489.13923 840.35396,488.36588 847.20803,487.54766 C 849.53924,487.26936 855.86385,486.98588 858.41197,486.61296 C 861.72105,487.46039 863.18156,471.97711 862.72755,458.10674 C 862.44549,449.48942 857.18182,434.77715 855.40601,431.70787 C 867.46227,417.553 874.8721,440.33938 869.97108,459.55628 C 867.39613,469.65267 867.45051,480.63777 867.2891,486.03843 z"
           id="path13776"
           sodipodi:nodetypes="cscccsccccscscsc" />
        <path
           style="fill:#fcef3c;fill-opacity:1;fill-rule:evenodd;stroke:#000000;stroke-width:2.70000005;stroke-linecap:butt;stroke-linejoin:miter;stroke-miterlimit:4;stroke-dasharray:none;stroke-opacity:1"
           d="M 978.08425,497.61575 C 983.31767,475.27636 929.66891,450.74956 922.70304,430.02119 C 904.5859,385.73232 889.30806,324.75325 843.37655,304.94587 C 835.2247,301.43049 822.48399,294.89234 817.09108,290.29554 C 807.07635,278.54738 802.61664,266.27541 799.24467,251.14338 C 792.18865,227.71885 757.10371,225.79846 752.09339,250.7251 C 748.12149,253.32032 735.91048,258.33156 729.68294,263.93349 C 733.32427,267.66806 745.0363,266.27943 751.1465,268.61501 C 754.58314,269.92863 757.9916,274.19606 759.04783,277.32379 C 764.14833,293.33211 754.26897,307.92504 749.93761,322.80367 C 727.55753,399.68143 840.79896,442.43734 883.43031,458.37056 C 894.86406,464.33606 934.99765,485.78928 940.62341,490.04836 C 946.37193,494.40036 968.40722,499.57433 978.08425,497.61575 z"
           id="path10859"
           sodipodi:nodetypes="ccsccccccscsc" />
        <path
           sodipodi:type="arc"
           style="fill:#fcef3c;fill-opacity:1;stroke:#000000;stroke-width:2.12632179;stroke-miterlimit:4;stroke-dasharray:none;stroke-opacity:1"
           id="path13769"
           sodipodi:cx="954.5"
           sodipodi:cy="211"
           sodipodi:rx="4.25"
           sodipodi:ry="4.25"
           d="M 958.75,211 A 4.25,4.25 0 1 1 950.25,211 A 4.25,4.25 0 1 1 958.75,211 z"
           transform="matrix(-1.266358,-9.3409693e-2,-9.3409693e-2,1.266358,2003.723,80.278023)" />
        <path
           sodipodi:nodetypes="cc"
           style="fill:none;fill-rule:evenodd;stroke:#000000;stroke-width:2.70000005;stroke-linecap:butt;stroke-linejoin:miter;stroke-miterlimit:4;stroke-dasharray:none;stroke-opacity:1"
           d="M 731.4207,263.99795 L 750.95278,259.88258"
           id="path13771" />
        <g
           id="g2579"
           transform="matrix(1.0652091,-9.8625773e-2,9.8625773e-2,1.0652091,-79.516995,56.256357)">
          <path
             sodipodi:nodetypes="ccccssc"
             id="path15719"
             d="M 793.08078,351.56358 C 807.3042,393.19678 867.95044,437.72743 907.72454,454.27117 C 939.39133,466.44372 907.73191,443.84677 893.37261,433.9774 C 916.24524,443.44773 896.70058,424.73992 878.55853,414.72098 C 899.42581,424.4479 886.56031,411.36775 869.14527,394.01495 C 853.49108,378.41669 852.49383,343.63983 837.59877,326.26818 C 819.22796,304.84286 788.87062,324.37957 793.08078,351.56358 z"
             style="fill:#fcef3c;fill-opacity:1;fill-rule:evenodd;stroke:#000000;stroke-width:2.70000005;stroke-linecap:butt;stroke-linejoin:miter;stroke-miterlimit:4;stroke-dasharray:none;stroke-opacity:1" />
          <path
             sodipodi:nodetypes="csc"
             id="path15722"
             d="M 894.07736,434.27092 C 883.09642,428.95212 878.0141,425.33613 870.30671,419.7146 C 851.07563,405.68806 833.05436,388.17754 815.86654,368.267"
             style="fill:none;fill-rule:evenodd;stroke:#000000;stroke-width:2.70000005;stroke-linecap:butt;stroke-linejoin:miter;stroke-miterlimit:4;stroke-dasharray:none;stroke-opacity:1" />
          <path
             sodipodi:nodetypes="csc"
             id="path15724"
             d="M 878.95264,414.91826 C 871.84129,410.55127 864.93986,402.85676 858.03724,395.67036 C 850.27864,387.5928 842.49181,378.59121 834.32214,368.35508"
             style="fill:none;fill-rule:evenodd;stroke:#000000;stroke-width:2.70000005;stroke-linecap:butt;stroke-linejoin:miter;stroke-miterlimit:4;stroke-dasharray:none;stroke-opacity:1" />
        </g>
      </g>
    </g>
    <path
       style="display:inline;fill:#fcef3c;fill-opacity:1;fill-rule:evenodd;stroke:#000000;stroke-width:2;stroke-linecap:butt;stroke-linejoin:miter;stroke-opacity:1;stroke-miterlimit:4;stroke-dasharray:none"
       d="M 1.5 2.1875 L 1.5 132.8125 C 3.3290082 133.22807 5.20096 133.58941 7.0625 133.90625 L 24.6875 220.875 L 41.28125 134.09375 C 42.774192 133.85527 44.259567 133.58612 45.75 133.28125 C 51.20818 147.72004 59.629173 157.97841 70.25 165.15625 C 85.264045 175.30316 93.33796 188.54361 97.84375 206.34375 C 102.62749 187.63534 97.29907 172.26177 88.15625 157.75 C 81.072589 146.50647 76.47363 134.57637 76.71875 121.6875 C 79.913688 119.88322 82.93272 117.93448 85.875 115.84375 L 159.84375 164.90625 L 110.21875 91.75 C 111.09079 90.543774 111.96224 89.302207 112.78125 88.0625 C 126.85485 94.418874 140.0955 95.654532 152.6875 93.21875 C 170.47895 89.777024 185.53983 93.505744 201.3125 102.90625 C 191.4662 86.294761 176.78886 79.202703 160.0625 75.40625 C 147.11716 72.468011 135.43118 67.206618 126.5 57.9375 C 127.47036 54.447773 128.20273 50.926628 128.8125 47.34375 L 215.8125 29.78125 L 129 13.125 C 128.7615 11.632074 128.49235 10.146699 128.1875 8.65625 C 133.02656 6.8287568 137.37312 4.653373 141.3125 2.1875 L 1.5 2.1875 z "
       id="path5203" />
    <path
       style="display:inline;fill:#2b5df2;fill-opacity:1;fill-rule:evenodd;stroke:#000000;stroke-width:2;stroke-linecap:butt;stroke-linejoin:miter;stroke-opacity:1;stroke-miterlimit:4;stroke-dasharray:none"
       d="M 163.3125 460.78125 C 125.75497 460.78125 123.55109 476.74211 94.96875 476.53125 C 80.907746 476.42752 72.832852 472.63441 63.5 468.78125 C 150.95197 602.41404 300 658.5 300 658.5 C 300 658.5 449.54722 602.21738 536.9375 468.09375 C 527.84571 472.14168 520.82413 476.37552 505.03125 476.53125 C 475.30109 476.8244 472.32081 460.78145 436.6875 460.78125 C 400.04536 460.78106 397.92788 476.53124 368.34375 476.53125 C 336.74196 476.53125 336.64597 460.78126 300 460.78125 C 266.38053 460.78125 263.25803 476.53124 231.65625 476.53125 C 204.0898 476.53125 199.86119 460.78126 163.3125 460.78125 z "
       id="path5314" />
    <path
       id="path5320"
       style="fill:none;fill-rule:evenodd;stroke:#ffffff;stroke-width:2;stroke-linecap:butt;stroke-linejoin:miter;stroke-miterlimit:4;stroke-dasharray:none;stroke-opacity:1"
       d="M 85.789685,500.57868 C 88.566755,500.97744 91.588206,501.21426 94.954079,501.23909 C 123.53642,501.44996 125.7452,485.47226 163.30273,485.47226 C 199.85142,485.47226 204.08492,501.23909 231.65137,501.23909 C 263.25316,501.23909 266.38054,485.47226 300.00001,485.47226 C 336.64598,485.47226 336.74686,501.23909 368.34865,501.23909 C 397.93277,501.23909 400.05515,485.47207 436.69729,485.47226 C 472.33059,485.47245 475.31576,501.53224 505.04592,501.23909 C 508.04798,501.20949 510.73186,501.03223 513.1725,500.73671 M 109.50865,527.87264 C 125.85695,523.8772 133.30329,513.68315 163.30273,513.68315 C 199.85142,513.68315 204.08492,529.44998 231.65137,529.44998 C 263.25316,529.44998 266.38054,513.68315 300.00001,513.68315 C 336.64598,513.68315 336.74686,529.44998 368.34865,529.44998 C 397.93277,529.44998 400.05515,513.68296 436.69729,513.68315 C 464.52782,513.6833 472.44294,523.47983 488.73914,527.63053 M 129.77951,548.10512 C 137.72038,544.79308 147.30465,541.89403 163.30273,541.89403 C 199.85142,541.89403 204.08492,557.66086 231.65137,557.66086 C 263.25316,557.66086 266.38054,541.89403 300.00001,541.89403 C 336.64598,541.89403 336.74686,557.66086 368.34865,557.66086 C 397.93277,557.66086 400.05515,541.89384 436.69729,541.89403 C 451.25885,541.89411 460.36833,544.57606 468.07888,547.72797 M 156.01843,570.32222 C 158.29199,570.18087 160.71335,570.10492 163.30273,570.10492 C 199.85142,570.10492 204.08492,585.87175 231.65137,585.87175 C 263.25316,585.87175 266.38054,570.10492 300.00001,570.10492 C 336.64598,570.10492 336.74686,585.87175 368.34865,585.87175 C 397.93277,585.87175 400.05515,570.10473 436.69729,570.10492 C 439.32606,570.10493 441.77714,570.19235 444.07438,570.35416 M 205.46556,608.21432 C 212.82746,611.38096 220.24035,614.08263 231.65137,614.08263 C 263.25316,614.08263 266.38054,598.3158 300.00001,598.3158 C 336.64598,598.3158 336.74686,614.08263 368.34865,614.08263 C 377.36302,614.08263 383.82774,612.61876 389.49624,610.58311 M 256.30445,638.07367 C 268.8936,633.40325 277.79738,626.52668 300.00001,626.52668 C 323.9324,626.52668 332.27829,633.25124 343.99085,637.91715"
       sodipodi:nodetypes="csssssssscsssssscsssssscsssssscsssccss" />
    <g
       transform="matrix(-0.7949238,0,0,0.7949238,1059.4408,117.53759)"
       id="g4865">
      <g
         transform="matrix(0.2982314,0,0,0.5824236,500.06952,-599.57466)"
         id="g6671">
        <path
           sodipodi:nodetypes="cccccc"
           id="rect2908"
           transform="matrix(3.353101,0,0,1.7169634,-1676.7836,1029.4477)"
           d="M 971.70545,67.84375 C 965.01065,67.563933 965.993,79.486515 968.44215,83.8125 L 966.9375,404.90625 L 977.5,404.90625 L 975.08245,84.5 C 978.0658,80.52231 978.70254,68.081143 971.70545,67.84375 z"
           style="fill:#fcef3c;fill-opacity:1;fill-rule:evenodd;stroke:#000000;stroke-width:4.39055634;stroke-linecap:round;stroke-linejoin:round;stroke-miterlimit:4;stroke-dashoffset:0;stroke-opacity:1" />
      </g>
      <path
         d="M 816.93399,336.83716 L 768.18876,383.77701 M 968.58583,90.402929 L 766.38338,382.87432 M 768.18876,381.06895 L 1151.8318,289.89731 C 1148.221,280.87041 972.19659,88.59755 972.19659,88.59755 M 1098.5731,326.90758 L 1164.4694,364.82054 M 1008.3042,404.53887 L 972.19659,123.80244 C 973.09928,130.12127 1021.8445,405.44156 1021.8445,405.44156 M 892.75991,404.53887 L 971.2939,123.80244 C 971.2939,131.92665 910.8137,405.44156 910.8137,405.44156"
         style="fill:none;fill-rule:evenodd;stroke:#000000;stroke-width:1.5;stroke-linecap:butt;stroke-linejoin:miter;stroke-miterlimit:4;stroke-dasharray:none;stroke-opacity:1"
         id="path3730" />
      <path
         sodipodi:nodetypes="ccccc"
         id="path3715"
         d="M 1072.3951,399.12274 C 1079.945,386.21165 1086.9353,372.74101 1096.7677,362.11247 C 1129.1972,356.76363 1154.393,358.64852 1182.5232,357.59902 L 1155.4426,400.02543 L 1072.3951,399.12274 z"
         style="fill:#fcef3c;fill-opacity:1;fill-rule:evenodd;stroke:#000000;stroke-width:3;stroke-linecap:butt;stroke-linejoin:miter;stroke-miterlimit:4;stroke-dasharray:none;stroke-opacity:1" />
      <path
         sodipodi:nodetypes="ccccccccccccccscccccccc"
         d="M 711.51821,457.18348 C 724.75966,434.88661 761.30378,425.50228 749.521,402.65944 C 741.0668,389.99837 730.57582,380.15546 721.90294,364.475 C 706.62999,335.03076 701.54193,291.97138 726.25428,267.85546 C 737.89163,257.08891 754.2913,248.76376 769.54291,256.71518 C 787.3506,268.45368 785.13214,304.69096 755.95747,295.99209 C 745.29393,288.271 755.52878,281.03319 759.62991,287.89258 C 768.35544,283.69509 767.0606,276.35399 762.58645,272.03821 C 752.47317,263.65533 741.50648,275.73853 735.87345,284.22873 C 724.10988,304.0481 738.0691,332.69122 749.45048,352.28283 C 754.66832,360.7596 762.29523,368.86789 770.95346,376.41989 C 789.85403,396.27387 801.6448,393.2754 820.76108,395.68343 C 858.42562,399.66127 916.25209,400.08112 970.40179,401.14981 C 1021.1982,397.69074 1126.215,411.81501 1150.6656,378.00787 C 1156.2353,371.49148 1162.2162,363.3652 1165.8037,355.50353 C 1169.2237,348.00881 1169.5473,336.83035 1168.9005,327.75288 C 1169.6141,311.46987 1157.27,302.41703 1150.4776,288.8231 C 1159.6881,277.83083 1180.8029,283.24604 1195.2497,262.23125 C 1210.8753,283.58687 1194.6134,295.30421 1181.0801,302.97152 C 1183.0204,307.88615 1195.6536,343.63632 1196.473,347.14968 C 1196.7725,346.3549 1201.7565,365.50631 1197.6305,376.6985 C 1191.8557,420.23876 1149.0956,447.32167 1111.4562,453.09997 L 711.51821,457.18348 z"
         style="fill:#fcef3c;fill-opacity:1;fill-rule:evenodd;stroke:#000000;stroke-width:3;stroke-linecap:butt;stroke-linejoin:miter;stroke-miterlimit:4;stroke-dasharray:none;stroke-opacity:1"
         id="path2238" />
      <path
         d="M 861.87822,406.17417 L 829.37609,448.81834 L 823.8883,450.68653 L 807.63268,470.36422 C 805.87221,480.41688 811.10833,479.87159 816.99011,478.34829 L 831.12505,456.29573 L 831.11606,450.26207 L 861.87822,406.17417 z M 884.32237,406.17417 L 851.82024,448.81834 L 846.33245,450.68653 L 830.07683,470.36422 C 828.31636,480.41688 833.55248,479.87159 839.43426,478.34829 L 853.5692,456.29573 L 853.56021,450.26207 L 884.32237,406.17417 z M 906.76654,406.17417 L 874.26441,448.81834 L 868.77662,450.68653 L 852.521,470.36422 C 850.76053,480.41688 855.99665,479.87159 861.87843,478.34829 L 876.01337,456.29573 L 876.00438,450.26207 L 906.76654,406.17417 z M 929.21064,406.17417 L 896.70851,448.81834 L 891.22072,450.68653 L 874.9651,470.36422 C 873.20463,480.41688 878.44075,479.87159 884.32253,478.34829 L 898.45747,456.29573 L 898.44848,450.26207 L 929.21064,406.17417 z M 951.65481,406.17417 L 919.15268,448.81834 L 913.66489,450.68653 L 897.40927,470.36422 C 895.6488,480.41688 900.88492,479.87159 906.7667,478.34829 L 920.90164,456.29573 L 920.89265,450.26207 L 951.65481,406.17417 z M 974.09897,406.17417 L 941.59684,448.81834 L 936.10905,450.68653 L 919.85343,470.36422 C 918.09296,480.41688 923.32908,479.87159 929.21086,478.34829 L 943.3458,456.29573 L 943.33681,450.26207 L 974.09897,406.17417 z M 996.54309,406.17417 L 964.04096,448.81834 L 958.55317,450.68653 L 942.29755,470.36422 C 940.53708,480.41688 945.7732,479.87159 951.65498,478.34829 L 965.78992,456.29573 L 965.78093,450.26207 L 996.54309,406.17417 z M 1018.9873,406.17417 L 986.48512,448.81834 L 980.99733,450.68653 L 964.74171,470.36422 C 962.98124,480.41688 968.21736,479.87159 974.09914,478.34829 L 988.23408,456.29573 L 988.22509,450.26207 L 1018.9873,406.17417 z M 1041.4314,406.17417 L 1008.9293,448.81834 L 1003.4415,450.68653 L 987.18588,470.36422 C 985.42541,480.41688 990.66153,479.87159 996.54331,478.34829 L 1010.6782,456.29573 L 1010.6692,450.26207 L 1041.4314,406.17417 z M 1063.8755,406.17417 L 1031.3734,448.81834 L 1025.8856,450.68653 L 1009.63,470.36422 C 1007.8695,480.41688 1013.1057,479.87159 1018.9874,478.34829 L 1033.1224,456.29573 L 1033.1134,450.26207 L 1063.8755,406.17417 z M 1086.3197,406.17417 L 1053.8176,448.81834 L 1048.3298,450.68653 L 1032.0742,470.36422 C 1030.3137,480.41688 1035.5498,479.87159 1041.4316,478.34829 L 1055.5665,456.29573 L 1055.5575,450.26207 L 1086.3197,406.17417 z M 1108.7638,406.17417 L 1076.2617,448.81834 L 1070.7739,450.68653 L 1054.5183,470.36422 C 1052.7578,480.41688 1057.9939,479.87159 1063.8757,478.34829 L 1078.0106,456.29573 L 1078.0016,450.26207 L 1108.7638,406.17417 z"
         style="fill:#fcef3c;fill-opacity:1;fill-rule:evenodd;stroke:#000000;stroke-width:3;stroke-linecap:butt;stroke-linejoin:miter;stroke-miterlimit:4;stroke-dasharray:none;stroke-opacity:1"
         id="path3668" />
      <path
         sodipodi:nodetypes="cccccc"
         id="path5082"
         d="M 1101.0914,136.66528 C 1018.0883,125.78601 932.68488,131.86363 850.4532,120.50222 C 912.7097,187.39614 849.61902,293.0979 814.57618,338.55002 C 877.48095,308.86164 1035.7959,286.54301 1102.5881,329.59262 C 1099.426,289.64774 1137.0269,247.19025 1137.2771,202.38917 C 1136.0463,176.69131 1123.3288,149.33832 1101.0914,136.66528 z"
         style="fill:#ffffff;fill-opacity:1;fill-rule:evenodd;stroke:#000000;stroke-width:3.21377921;stroke-linecap:butt;stroke-linejoin:miter;stroke-miterlimit:4;stroke-dasharray:none;stroke-opacity:1" />
      <g
         transform="matrix(0.9975353,-7.0166194e-2,7.0166194e-2,0.9975353,-6.482378,69.098121)"
         id="g3724">
        <path
           sodipodi:nodetypes="cc"
           style="fill:none;fill-rule:evenodd;stroke:#000000;stroke-width:2;stroke-linecap:butt;stroke-linejoin:miter;stroke-miterlimit:4;stroke-dasharray:none;stroke-opacity:1"
           d="M 975.93365,110.92743 L 1110.2639,144.55527"
           id="path8520" />
        <path
           style="fill:#000000;fill-opacity:1;fill-rule:evenodd;stroke:#000000;stroke-width:2;stroke-linecap:butt;stroke-linejoin:miter;stroke-miterlimit:4;stroke-dasharray:none;stroke-opacity:1"
           d="M 836.27784,107.29127 L 967.83306,110.39993"
           id="path11433"
           sodipodi:nodetypes="cc" />
        <g
           id="g6666"
           transform="matrix(0.5515005,0.1861526,-9.4737702e-2,0.4644028,219.64957,-747.05829)">
          <path
             sodipodi:nodetypes="ccccc"
             style="opacity:1;fill:#fcef3c;fill-opacity:1;fill-rule:evenodd;stroke:#000000;stroke-width:3.21408892;stroke-linecap:round;stroke-linejoin:round;stroke-miterlimit:4;stroke-dasharray:none;stroke-dashoffset:0;stroke-opacity:1"
             d="M 840.625,87.84375 L 1108.2209,122.73752 C 1117.234,132.45981 1124.4529,110.76723 1107.7002,116.95785 L 841.03125,80 C 831.27568,69.77666 825.90142,94.2246 840.625,87.84375 z"
             transform="matrix(1.6964235,-0.6799994,0.3460687,2.0145839,-105.65061,1703.4739)"
             id="rect4834" />
        </g>
      </g>
      <path
         sodipodi:nodetypes="cccccsccccccc"
         id="path2896"
         d="M 785.7912,389.19315 C 785.0016,397.88785 779.58763,403.49813 775.41027,411.30905 L 886.00789,411.30905 L 1046.6761,411.30905 C 1082.7508,410.07546 1116.1041,413.85104 1147.7671,394.15371 C 1162.2037,384.65979 1171.8426,373.00913 1176.1713,356.6012 C 1181.0115,338.25435 1175.366,322.58015 1169.8856,302.9863 L 1162.2127,306.59706 C 1169.444,316.69565 1171.3594,336.26157 1167.3726,352.24225 C 1154.2239,381.28911 1143.0079,389.31282 1105.4578,397.72041 C 1085.4193,400.38699 1065.0999,399.79391 1044.863,400.47677 L 888.24645,399.57408 C 854.08633,396.41886 829.93752,400.44428 785.7912,389.19315 z"
         style="fill:#fcef3c;fill-opacity:1;fill-rule:evenodd;stroke:#000000;stroke-width:3;stroke-linecap:butt;stroke-linejoin:miter;stroke-miterlimit:4;stroke-dasharray:none;stroke-opacity:1" />
      <path
         sodipodi:nodetypes="ccccccccccc"
         id="path2447"
         d="M 812.68978,381.12457 C 809.88217,386.64025 815.44948,391.46103 815.44948,391.46103 L 769.73495,450.31313 C 765.98511,450.06318 763.53212,450.2741 761.90146,450.77732 L 741.42282,477.06444 C 739.35927,494.33103 746.50416,497.61751 758.27468,493.88137 L 776.81508,464.73984 C 777.31951,462.39265 776.81978,459.6886 775.2027,456.58744 L 818.65944,395.13626 L 825.14941,390.82196 C 823.93674,385.38409 818.65894,382.99507 812.68978,381.12457 z"
         style="fill:#fcef3c;fill-opacity:1;fill-rule:evenodd;stroke:#000000;stroke-width:2.99999976;stroke-linecap:butt;stroke-linejoin:miter;stroke-miterlimit:4;stroke-dasharray:none;stroke-opacity:1" />
      <path
         sodipodi:nodetypes="cc"
         id="path3691"
         d="M 775.14589,411.12209 L 742.5943,456.63047"
         style="fill:none;fill-rule:evenodd;stroke:#000000;stroke-width:3;stroke-linecap:butt;stroke-linejoin:miter;stroke-miterlimit:4;stroke-dasharray:none;stroke-opacity:1" />
      <path
         sodipodi:nodetypes="cccccc"
         d="M 1087.8957,372.94476 L 1159.1176,366.93625 M 1082.7987,382.2908 L 1149.6081,379.04006 M 1077.0634,390.99854 L 1130.1673,390.99854"
         style="fill:none;fill-rule:evenodd;stroke:#000000;stroke-width:1px;stroke-linecap:butt;stroke-linejoin:miter;stroke-opacity:1"
         id="path3717" />
    </g>
  </g>
  <g
     inkscape:groupmode="layer"
     id="layer4"
     inkscape:label="Meubles">
    <path
       sodipodi:type="arc"
       style="opacity:0.61494254;fill:#fcef3c;fill-opacity:0.990625;fill-rule:evenodd;stroke:#000000;stroke-width:2.5;stroke-linecap:round;stroke-linejoin:round;stroke-miterlimit:4;stroke-dasharray:none;stroke-dashoffset:0;stroke-opacity:1"
       id="path13306"
       sodipodi:cx="-95.744682"
       sodipodi:cy="276.70212"
       sodipodi:rx="0"
       sodipodi:ry="4.7872343"
       d="M -95.744682,281.38131 A 0,4.7872343 0 1 1 -95.744682,276.70212 L -95.744682,276.70212 z"
       sodipodi:start="1.357941"
       sodipodi:end="6.2831853"
       transform="translate(-690.74149,-220.86577)" />
  </g>
  <g
     inkscape:groupmode="layer"
     id="layer2"
     inkscape:label="Reflet final"
     sodipodi:insensitive="true">
    <path
       sodipodi:nodetypes="cccccc"
       d="M 300.00001,658.5 C 300.00001,658.5 598.50001,546.17969 598.50001,260.72817 C 598.50001,-24.723334 598.50001,2.1764865 598.50001,2.1764865 L 1.5,2.1764865 L 1.5,260.72817 C 1.5,546.17969 300.00001,658.5 300.00001,658.5 z "
       style="opacity:1;fill:url(#radialGradient3163);fill-opacity:1;fill-rule:evenodd;stroke:none;stroke-width:1px;stroke-linecap:butt;stroke-linejoin:miter;stroke-opacity:1"
       id="path2875"
       inkscape:export-xdpi="144"
       inkscape:export-ydpi="144" />
  </g>
  <g
     inkscape:groupmode="layer"
     id="layer1"
     inkscape:label="Contour final"
     sodipodi:insensitive="true">
    <path
       sodipodi:nodetypes="cccccc"
       d="M 299.99999,658.50028 C 299.99999,658.50028 1.5,546.17992 1.5,260.72828 C 1.5,-24.723336 1.5,2.1764957 1.5,2.1764957 L 598.49999,2.1764957 L 598.49999,260.72828 C 598.49999,546.17992 299.99999,658.50028 299.99999,658.50028 z "
       style="opacity:1;fill:none;fill-opacity:1;fill-rule:evenodd;stroke:#000000;stroke-width:3.00000048;stroke-linecap:butt;stroke-linejoin:miter;stroke-miterlimit:4;stroke-dasharray:none;stroke-opacity:1"
       id="path1411"
       inkscape:export-xdpi="144"
       inkscape:export-ydpi="144" />
  </g>
</svg>
