<?xml version="1.0" encoding="UTF-8" standalone="no"?>
<svg
   xmlns:dc="http://purl.org/dc/elements/1.1/"
   xmlns:cc="http://web.resource.org/cc/"
   xmlns:rdf="http://www.w3.org/1999/02/22-rdf-syntax-ns#"
   xmlns:svg="http://www.w3.org/2000/svg"
   xmlns="http://www.w3.org/2000/svg"
   xmlns:xlink="http://www.w3.org/1999/xlink"
   xmlns:sodipodi="http://inkscape.sourceforge.net/DTD/sodipodi-0.dtd"
   xmlns:inkscape="http://www.inkscape.org/namespaces/inkscape"
   height="660"
   width="600"
   version="1.0"
   id="svg2"
   sodipodi:version="0.32"
   inkscape:version="0.43"
   sodipodi:docname="Blason_Durlinsdorf_68.svg"
   sodipodi:docbase="/Users/fabriceantoine/Desktop/Alsace/blason-fait"
   inkscape:export-filename="/Users/fabriceantoine/Desktop/Alsace/blason-fait/Blason_Hoenheim.png"
   inkscape:export-xdpi="72"
   inkscape:export-ydpi="72">
  <metadata
     id="metadata49">
    <rdf:RDF>
      <cc:Work
         rdf:about="">
        <dc:format>image/svg+xml</dc:format>
        <dc:type
           rdf:resource="http://purl.org/dc/dcmitype/StillImage" />
        <dc:title>Blason de Durlinsdorf</dc:title>
        <dc:date>11-07-07</dc:date>
        <dc:creator>
          <cc:Agent>
            <dc:title>Antoine Fabrice (Darkbob)</dc:title>
          </cc:Agent>
        </dc:creator>
        <cc:license
           rdf:resource="http://web.resource.org/cc/PublicDomain" />
        <dc:language>fr</dc:language>
        <dc:subject>
          <rdf:Bag>
            <rdf:li>blason durlinsdorf</rdf:li>
          </rdf:Bag>
        </dc:subject>
      </cc:Work>
      <cc:License
         rdf:about="http://web.resource.org/cc/PublicDomain">
        <cc:permits
           rdf:resource="http://web.resource.org/cc/Reproduction" />
        <cc:permits
           rdf:resource="http://web.resource.org/cc/Distribution" />
        <cc:permits
           rdf:resource="http://web.resource.org/cc/DerivativeWorks" />
      </cc:License>
    </rdf:RDF>
  </metadata>
  <sodipodi:namedview
     inkscape:window-height="954"
     inkscape:window-width="1242"
     inkscape:pageshadow="2"
     inkscape:pageopacity="0.0"
     guidetolerance="10.0"
     gridtolerance="10.0"
     objecttolerance="10.0"
     borderopacity="1.0"
     bordercolor="#666666"
     pagecolor="#ffffff"
     id="base"
     showgrid="true"
     height="660px"
     inkscape:zoom="1.2227273"
     inkscape:cx="300"
     inkscape:cy="330"
     inkscape:window-x="-4"
     inkscape:window-y="22"
     inkscape:current-layer="layer3" />
  <desc
     id="desc4">Flag of Canton of Valais (Wallis)</desc>
  <defs
     id="defs6">
    <linearGradient
       id="linearGradient2893">
      <stop
         style="stop-color:white;stop-opacity:0.3137255;"
         offset="0"
         id="stop2895" />
      <stop
         id="stop2897"
         offset="0.19"
         style="stop-color:white;stop-opacity:0.25098041;" />
      <stop
         style="stop-color:#6b6b6b;stop-opacity:0.1254902;"
         offset="0.60000002"
         id="stop2901" />
      <stop
         style="stop-color:black;stop-opacity:0.1254902;"
         offset="1"
         id="stop2899" />
    </linearGradient>
    <linearGradient
       id="linearGradient2885">
      <stop
         id="stop2887"
         offset="0"
         style="stop-color:white;stop-opacity:1;" />
      <stop
         style="stop-color:white;stop-opacity:1;"
         offset="0.22857143"
         id="stop2891" />
      <stop
         id="stop2889"
         offset="1"
         style="stop-color:black;stop-opacity:1;" />
    </linearGradient>
    <linearGradient
       id="linearGradient2955">
      <stop
         id="stop2867"
         offset="0"
         style="stop-color:#fd0000;stop-opacity:1;" />
      <stop
         style="stop-color:#e77275;stop-opacity:0.65882355;"
         offset="0.5"
         id="stop2873" />
      <stop
         style="stop-color:black;stop-opacity:0.32291666;"
         offset="1"
         id="stop2959" />
    </linearGradient>
    <radialGradient
       inkscape:collect="always"
       xlink:href="#linearGradient2955"
       id="radialGradient2961"
       cx="225.52438"
       cy="218.90099"
       fx="225.52438"
       fy="218.90099"
       r="300"
       gradientTransform="matrix(-4.167939e-4,2.182867,-1.884232,-3.599562e-4,615.5972,-289.1214)"
       gradientUnits="userSpaceOnUse" />
    <polygon
       id="star"
       transform="scale(53,53)"
       points="0,-1 0.58778525,0.80901699 -0.95105652,-0.30901699 0.95105652,-0.30901699 -0.58778525,0.80901699 0,-1 " />
    <clipPath
       id="clip">
      <path
         d="M 0,-200 L 0,600 L 300,600 L 300,-200 L 0,-200 z "
         id="path10" />
    </clipPath>
    <radialGradient
       inkscape:collect="always"
       xlink:href="#linearGradient2955"
       id="radialGradient1911"
       gradientUnits="userSpaceOnUse"
       gradientTransform="matrix(-4.167939e-4,2.182867,-1.884232,-3.599562e-4,615.5972,-289.1214)"
       cx="225.52438"
       cy="218.90099"
       fx="225.52438"
       fy="218.90099"
       r="300" />
    <radialGradient
       inkscape:collect="always"
       xlink:href="#linearGradient2955"
       id="radialGradient2865"
       gradientUnits="userSpaceOnUse"
       gradientTransform="matrix(0,1.748721,-1.593162,-1.049767e-7,551.7876,-191.2898)"
       cx="225.52438"
       cy="218.90099"
       fx="225.52438"
       fy="218.90099"
       r="300" />
    <radialGradient
       inkscape:collect="always"
       xlink:href="#linearGradient2955"
       id="radialGradient2871"
       gradientUnits="userSpaceOnUse"
       gradientTransform="matrix(0,1.386237,-1.323286,-5.741131e-8,-158.0823,-109.5408)"
       cx="225.52438"
       cy="218.90099"
       fx="225.52438"
       fy="218.90099"
       r="300" />
    <radialGradient
       inkscape:collect="always"
       xlink:href="#linearGradient2893"
       id="radialGradient3163"
       gradientUnits="userSpaceOnUse"
       gradientTransform="matrix(1.353218,0,0,1.348928,-77.62935,-85.74693)"
       cx="221.44487"
       cy="226.33101"
       fx="221.44487"
       fy="226.33101"
       r="300" />
    <radialGradient
       gradientTransform="matrix(1.353218,0,0,1.348928,-77.62935,-85.74693)"
       gradientUnits="userSpaceOnUse"
       xlink:href="#linearGradient2893"
       id="radialGradient1784"
       fy="226.33101"
       fx="221.44487"
       r="300"
       cy="226.33101"
       cx="221.44487" />
    <radialGradient
       gradientTransform="matrix(0,1.386237,-1.323286,-5.741131e-8,-158.0823,-109.5408)"
       gradientUnits="userSpaceOnUse"
       xlink:href="#linearGradient2955"
       id="radialGradient1782"
       fy="218.90099"
       fx="225.52438"
       r="300"
       cy="218.90099"
       cx="225.52438" />
    <radialGradient
       gradientTransform="matrix(0,1.748721,-1.593162,-1.049767e-7,551.7876,-191.2898)"
       gradientUnits="userSpaceOnUse"
       xlink:href="#linearGradient2955"
       id="radialGradient1780"
       fy="218.90099"
       fx="225.52438"
       r="300"
       cy="218.90099"
       cx="225.52438" />
    <radialGradient
       gradientTransform="matrix(-4.167939e-4,2.182867,-1.884232,-3.599562e-4,615.5972,-289.1214)"
       gradientUnits="userSpaceOnUse"
       xlink:href="#linearGradient2955"
       id="radialGradient1778"
       fy="218.90099"
       fx="225.52438"
       r="300"
       cy="218.90099"
       cx="225.52438" />
    <clipPath
       id="clipPath1774">
      <path
         id="path1776"
         d="M 0,-200 L 0,600 L 300,600 L 300,-200 L 0,-200 z " />
    </clipPath>
    <polygon
       id="polygon1772"
       transform="scale(53,53)"
       points="0,-1 0.58778525,0.80901699 -0.95105652,-0.30901699 0.95105652,-0.30901699 -0.58778525,0.80901699 0,-1 " />
    <radialGradient
       gradientTransform="matrix(-4.167939e-4,2.182867,-1.884232,-3.599562e-4,615.5972,-289.1214)"
       gradientUnits="userSpaceOnUse"
       xlink:href="#linearGradient2955"
       id="radialGradient1770"
       fy="218.90099"
       fx="225.52438"
       r="300"
       cy="218.90099"
       cx="225.52438" />
    <linearGradient
       id="linearGradient1762">
      <stop
         id="stop1764"
         offset="0"
         style="stop-color:#fd0000;stop-opacity:1" />
      <stop
         id="stop1766"
         offset="0.5"
         style="stop-color:#e77275;stop-opacity:0.65882355" />
      <stop
         id="stop1768"
         offset="1"
         style="stop-color:black;stop-opacity:0.32291666" />
    </linearGradient>
    <linearGradient
       id="linearGradient1754">
      <stop
         id="stop1756"
         offset="0"
         style="stop-color:white;stop-opacity:1" />
      <stop
         id="stop1758"
         offset="0.22857143"
         style="stop-color:white;stop-opacity:1" />
      <stop
         id="stop1760"
         offset="1"
         style="stop-color:black;stop-opacity:1" />
    </linearGradient>
    <linearGradient
       id="linearGradient1744">
      <stop
         id="stop1746"
         offset="0"
         style="stop-color:white;stop-opacity:0.3137255" />
      <stop
         id="stop1748"
         offset="0.19"
         style="stop-color:white;stop-opacity:0.25098041" />
      <stop
         id="stop1750"
         offset="0.60000002"
         style="stop-color:#6b6b6b;stop-opacity:0.1254902" />
      <stop
         id="stop1752"
         offset="1"
         style="stop-color:black;stop-opacity:0.1254902" />
    </linearGradient>
    <linearGradient
       gradientUnits="userSpaceOnUse"
       xlink:href="#linearGradient1732"
       id="linearGradient2433"
       y2="96.5"
       x2="180"
       y1="92.5"
       x1="171" />
    <linearGradient
       gradientTransform="translate(-1.428571e-5,-5.714286e-5)"
       gradientUnits="userSpaceOnUse"
       xlink:href="#linearGradient1732"
       id="linearGradient1561"
       y2="467.62207"
       x2="124.13653"
       y1="496.1308"
       x1="94.280907" />
    <linearGradient
       gradientTransform="translate(-1.428571e-5,-5.714286e-5)"
       gradientUnits="userSpaceOnUse"
       xlink:href="#linearGradient1732"
       id="linearGradient1559"
       y2="185.71556"
       x2="296.92871"
       y1="176.24918"
       x1="270.4964" />
    <linearGradient
       gradientTransform="translate(-1.428571e-5,-5.714286e-5)"
       gradientUnits="userSpaceOnUse"
       xlink:href="#linearGradient1732"
       id="linearGradient1557"
       y2="101.81393"
       x2="193.02094"
       y1="75.233917"
       x1="179.58267" />
    <linearGradient
       gradientTransform="translate(-1.428571e-5,-5.714286e-5)"
       gradientUnits="userSpaceOnUse"
       xlink:href="#linearGradient1732"
       id="linearGradient1555"
       y2="90.41172"
       x2="137.60522"
       y1="75.233917"
       x1="112.23917" />
    <linearGradient
       gradientTransform="translate(-1.428571e-5,-5.714286e-5)"
       gradientUnits="userSpaceOnUse"
       xlink:href="#linearGradient1732"
       id="linearGradient1553"
       y2="137.97067"
       x2="124.361"
       y1="139.21025"
       x1="87.546555" />
    <linearGradient
       gradientTransform="translate(-1.428571e-5,-5.714286e-5)"
       gradientUnits="userSpaceOnUse"
       xlink:href="#linearGradient1732"
       id="linearGradient1551"
       y2="137.97067"
       x2="157.20032"
       y1="115.64002"
       x1="124.58548" />
    <linearGradient
       gradientTransform="translate(-1.428571e-5,-5.714286e-5)"
       gradientUnits="userSpaceOnUse"
       xlink:href="#linearGradient1732"
       id="linearGradient1549"
       y2="213.55009"
       x2="211.82967"
       y1="217.77766"
       x1="177.33789" />
    <linearGradient
       id="linearGradient1732">
      <stop
         id="stop1734"
         offset="0"
         style="stop-color:#ffffff;stop-opacity:1" />
      <stop
         id="stop1736"
         offset="1"
         style="stop-color:#ffffff;stop-opacity:1" />
    </linearGradient>
    <linearGradient
       gradientTransform="translate(75.92347,47.10196)"
       gradientUnits="userSpaceOnUse"
       xlink:href="#linearGradient1732"
       id="linearGradient1397"
       y2="48.302807"
       x2="243.12413"
       y1="51.4207"
       x1="241.1429" />
    <linearGradient
       gradientTransform="translate(-1.428571e-5,-5.714286e-5)"
       gradientUnits="userSpaceOnUse"
       xlink:href="#linearGradient1732"
       id="linearGradient1682"
       y2="546.90479"
       x2="341.26984"
       y1="571.11108"
       x1="337.30157" />
    <linearGradient
       gradientTransform="translate(-1.428571e-5,-5.714286e-5)"
       gradientUnits="userSpaceOnUse"
       xlink:href="#linearGradient1732"
       id="linearGradient1674"
       y2="547.59521"
       x2="319.15079"
       y1="566.74603"
       x1="300" />
    <linearGradient
       gradientTransform="translate(-1.428571e-5,-5.714286e-5)"
       gradientUnits="userSpaceOnUse"
       xlink:href="#linearGradient1732"
       id="linearGradient1666"
       y2="534.60315"
       x2="312.30157"
       y1="534.20636"
       x1="266.26984" />
    <linearGradient
       gradientTransform="translate(-1.428571e-5,-5.714286e-5)"
       gradientUnits="userSpaceOnUse"
       xlink:href="#linearGradient1732"
       id="linearGradient1658"
       y2="513.17462"
       x2="321.82541"
       y1="493.73016"
       x1="292.85715" />
    <linearGradient
       gradientTransform="translate(-1.428571e-5,-5.714286e-5)"
       gradientUnits="userSpaceOnUse"
       xlink:href="#linearGradient1732"
       id="linearGradient1650"
       y2="458.41269"
       x2="186.50793"
       y1="491.74603"
       x1="186.50793" />
    <linearGradient
       gradientTransform="translate(-1.428571e-5,-5.714286e-5)"
       gradientUnits="userSpaceOnUse"
       xlink:href="#linearGradient1732"
       id="linearGradient1642"
       y2="454.04761"
       x2="163.88889"
       y1="488.96826"
       x1="143.65079" />
    <linearGradient
       gradientTransform="translate(-1.428571e-5,-5.714286e-5)"
       gradientUnits="userSpaceOnUse"
       xlink:href="#linearGradient1732"
       id="linearGradient1582"
       y2="242.34128"
       x2="130.35715"
       y1="225.27779"
       x1="107.14286" />
    <linearGradient
       gradientTransform="translate(-1.428571e-5,-5.714286e-5)"
       gradientUnits="userSpaceOnUse"
       xlink:href="#linearGradient1732"
       id="linearGradient1622"
       y2="415.35715"
       x2="166.66667"
       y1="395.31747"
       x1="131.15079" />
    <linearGradient
       gradientTransform="translate(-1.428571e-5,-5.714286e-5)"
       gradientUnits="userSpaceOnUse"
       xlink:href="#linearGradient1732"
       id="linearGradient1614"
       y2="294.72223"
       x2="136.32533"
       y1="312.77777"
       x1="118.45238" />
    <linearGradient
       gradientTransform="translate(-1.428571e-5,-5.714286e-5)"
       gradientUnits="userSpaceOnUse"
       xlink:href="#linearGradient1732"
       id="linearGradient1606"
       y2="280.63492"
       x2="118.05556"
       y1="297.10318"
       x1="88.492065" />
    <linearGradient
       gradientTransform="translate(-1.428571e-5,-5.714286e-5)"
       gradientUnits="userSpaceOnUse"
       xlink:href="#linearGradient1732"
       id="linearGradient1598"
       y2="257.61905"
       x2="115.67461"
       y1="260.59525"
       x1="84.126984" />
    <linearGradient
       gradientTransform="translate(-1.428571e-5,-5.714286e-5)"
       gradientUnits="userSpaceOnUse"
       xlink:href="#linearGradient1732"
       id="linearGradient1590"
       y2="258.41269"
       x2="113.69048"
       y1="264.16666"
       x1="82.14286" />
    <linearGradient
       gradientTransform="translate(-1.428571e-5,-5.714286e-5)"
       gradientUnits="userSpaceOnUse"
       xlink:href="#linearGradient1732"
       id="linearGradient1800"
       y2="166.38455"
       x2="139.39598"
       y1="191.96266"
       x1="107.7496" />
  </defs>
  <g
     inkscape:groupmode="layer"
     id="layer3"
     inkscape:label="Fond écu"
     style="display:inline">
    <path
       id="path2855"
       style="fill:#fcef3c;fill-opacity:1;fill-rule:evenodd;stroke:none;stroke-width:1px;stroke-linecap:butt;stroke-linejoin:miter;stroke-opacity:1"
       d="M 300,658.5 C 300,658.5 598.50001,546.17969 598.50001,260.72817 C 598.50001,-24.723354 598.50001,2.1764765 598.50001,2.1764765 L 1.5,2.1764765 L 1.5,260.72817 C 1.5,546.17969 300,658.5 300,658.5 z "
       sodipodi:nodetypes="cccccc" />
    <g
       id="g5315"
       transform="translate(574.0938,-85.66912)"
       style="fill:#000000;fill-opacity:1;stroke:#313131;stroke-opacity:1">
      <path
         id="path1952"
         style="opacity:0.01000001;fill:#000000;fill-opacity:1;stroke:#313131;stroke-width:2.99999762;stroke-miterlimit:4;stroke-dasharray:none;stroke-opacity:1;display:inline"
         d="M -226.73619,659.0809 C -227.23621,659.74381 -227.84269,660.34387 -228.41047,660.95583 C -229.14807,661.91248 -230.03957,662.72058 -230.91239,663.54681 C -231.80454,664.18169 -232.76421,664.71242 -233.70224,665.27466 C -234.46093,666.01631 -234.9657,665.50672 -235.74027,665.49123 C -236.46104,665.09063 -237.09494,664.55883 -237.75373,664.06796 L -235.88644,670.2439 C -235.17527,670.74391 -234.50812,671.3269 -233.68043,671.63261 C -232.72468,671.62722 -231.97735,671.91625 -231.13352,671.15561 C -230.16716,670.56282 -229.18217,670.00156 -228.25064,669.35419 C -227.35216,668.51632 -226.42638,667.70571 -225.6829,666.71682 C -225.09412,666.13155 -224.53669,665.51318 -223.85474,665.03372 L -226.73619,659.0809 z " />
      <g
         id="g7438"
         style="fill:#000000;fill-opacity:1;stroke:#313131;stroke-width:4.84403801;stroke-miterlimit:4;stroke-dasharray:none;stroke-opacity:1"
         transform="matrix(-0.493496,-0.374187,-0.374187,0.493496,115.9593,298.6022)">
        <path
           id="path1964"
           style="fill:#000000;fill-opacity:1;fill-rule:evenodd;stroke:#313131;stroke-width:4.84403801;stroke-linecap:butt;stroke-linejoin:miter;stroke-miterlimit:4;stroke-dasharray:none;stroke-opacity:1"
           d="M 133.93996,681.40468 L 104.57912,719.53344 C 104.57912,719.53344 98.33157,725.62423 106.80463,732.14885 C 115.27768,738.67348 119.49498,730.50019 119.49498,730.50019 L 149.10677,692.04554 C 149.10677,692.04554 153.79983,685.27686 146.63032,679.75602 C 139.4608,674.23518 133.93996,681.40468 133.93996,681.40468 z " />
        <path
           id="path1966"
           style="fill:#000000;fill-opacity:1;fill-rule:evenodd;stroke:#313131;stroke-width:4.84403801;stroke-linecap:butt;stroke-linejoin:miter;stroke-miterlimit:4;stroke-dasharray:none;stroke-opacity:1"
           d="M 104.22095,719.8715 C 104.22095,719.8715 88.59008,698.32809 99.17019,683.50601 C 109.98601,668.35372 134.52553,680.47556 134.52553,680.47556 L 104.22095,719.8715 z " />
      </g>
      <path
         d="M -258.95019,655.83964 C -258.95019,655.83964 -248.82812,643.78403 -239.34719,634.22514 C -229.86626,624.66625 -216.1146,614.07109 -216.1146,614.07109 L -216.68338,586.84352 C -216.68338,586.84352 -229.30546,576.62127 -239.54874,567.54404 C -250.34681,557.97519 -260.95179,544.46449 -260.95179,544.46449 L -285.17451,544.75162 C -285.17451,544.75162 -293.18777,557.60086 -305.38911,568.84555 C -318.74582,581.15504 -328.78386,586.69973 -328.78386,586.69973 L -328.91233,611.16559 C -328.91233,611.16559 -313.27626,623.67548 -305.75846,632.16703 C -298.24067,640.65858 -284.74822,655.25932 -284.74822,655.25932 L -258.95019,655.83964 z M -231.28306,598.43078 C -230.15012,572.66183 -259.80294,587.75627 -259.80294,587.75627 C -259.80294,587.75627 -245.64213,556.20879 -274.11638,557.25209 C -298.23198,558.13569 -285.16734,587.48832 -285.16734,587.48832 C -285.16734,587.48832 -314.25462,572.45843 -314.62206,601.15396 C -314.98635,629.60281 -284.22431,612.42316 -284.22431,612.42316 C -284.22431,612.42316 -297.88686,641.38967 -272.76601,641.3604 C -242.08872,641.32465 -259.97866,612.99904 -259.97866,612.99904 C -259.97866,612.99904 -231.32044,631.21091 -231.28306,598.43078 z "
         style="fill:#000000;fill-opacity:1;fill-rule:evenodd;stroke:#313131;stroke-width:2.99999762;stroke-linecap:butt;stroke-linejoin:miter;stroke-miterlimit:4;stroke-opacity:1"
         id="path2870" />
      <g
         id="g7442"
         style="fill:#000000;fill-opacity:1;stroke:#313131;stroke-width:4.84403801;stroke-miterlimit:4;stroke-dasharray:none;stroke-opacity:1;display:inline"
         transform="matrix(-0.493496,-0.374187,-0.374187,0.493496,73.27081,365.462)">
        <g
           id="g7454"
           style="fill:#000000;fill-opacity:1;stroke:#313131;stroke-width:4.84404039;stroke-miterlimit:4;stroke-dasharray:none;stroke-opacity:1"
           transform="matrix(-3.191847e-2,-0.99949,0.99949,-3.191847e-2,-545.3843,867.0029)">
          <path
             id="path7444"
             style="fill:#000000;fill-opacity:1;fill-rule:evenodd;stroke:#313131;stroke-width:4.84404039;stroke-linecap:butt;stroke-linejoin:miter;stroke-miterlimit:4;stroke-dasharray:none;stroke-opacity:1"
             d="M 133.93996,681.40468 L 104.57912,719.53344 C 104.57912,719.53344 98.33157,725.62423 106.80463,732.14885 C 115.27768,738.67348 119.49498,730.50019 119.49498,730.50019 L 149.10677,692.04554 C 149.10677,692.04554 153.79983,685.27686 146.63032,679.75602 C 139.4608,674.23518 133.93996,681.40468 133.93996,681.40468 z " />
          <path
             id="path7446"
             style="fill:#000000;fill-opacity:1;fill-rule:evenodd;stroke:#313131;stroke-width:4.84404039;stroke-linecap:butt;stroke-linejoin:miter;stroke-miterlimit:4;stroke-dasharray:none;stroke-opacity:1"
             d="M 104.22095,719.8715 C 104.22095,719.8715 88.59008,698.32809 99.17019,683.50601 C 109.98601,668.35372 134.52553,680.47556 134.52553,680.47556 L 104.22095,719.8715 z " />
        </g>
      </g>
      <g
         id="g7448"
         style="fill:#000000;fill-opacity:1;stroke:#313131;stroke-width:4.84404039;stroke-miterlimit:4;stroke-dasharray:none;stroke-opacity:1;display:inline"
         transform="matrix(0.478389,0.393316,0.393316,-0.478389,-673.0754,886.9436)">
        <path
           id="path7450"
           style="fill:#000000;fill-opacity:1;fill-rule:evenodd;stroke:#313131;stroke-width:4.84404039;stroke-linecap:butt;stroke-linejoin:miter;stroke-miterlimit:4;stroke-dasharray:none;stroke-opacity:1"
           d="M 133.93996,681.40468 L 104.57912,719.53344 C 104.57912,719.53344 98.33157,725.62423 106.80463,732.14885 C 115.27768,738.67348 119.49498,730.50019 119.49498,730.50019 L 149.10677,692.04554 C 149.10677,692.04554 153.79983,685.27686 146.63032,679.75602 C 139.4608,674.23518 133.93996,681.40468 133.93996,681.40468 z " />
        <path
           id="path7452"
           style="fill:#000000;fill-opacity:1;fill-rule:evenodd;stroke:#313131;stroke-width:4.84404039;stroke-linecap:butt;stroke-linejoin:miter;stroke-miterlimit:4;stroke-dasharray:none;stroke-opacity:1"
           d="M 104.22095,719.8715 C 104.22095,719.8715 88.59008,698.32809 99.17019,683.50601 C 109.98601,668.35372 134.52553,680.47556 134.52553,680.47556 L 104.22095,719.8715 z " />
      </g>
      <path
         d="M -258.23659,544.22596 L -288.03256,544.9031 C -288.03256,544.9031 -293.36319,545.78863 -293.51366,539.1673 C -293.66414,532.54598 -288.03833,533.43732 -288.03833,533.43732 L -257.98769,532.7544 C -257.98769,532.7544 -252.88857,532.89331 -252.76125,538.49597 C -252.63393,544.09864 -258.23659,544.22596 -258.23659,544.22596 z "
         style="fill:#000000;fill-opacity:1;fill-rule:evenodd;stroke:#313131;stroke-width:2.99999762;stroke-linecap:butt;stroke-linejoin:miter;stroke-miterlimit:4;stroke-dasharray:none;stroke-opacity:1;display:inline"
         id="path7472" />
      <path
         id="path7552"
         style="fill:#000000;fill-opacity:1;fill-rule:evenodd;stroke:#313131;stroke-width:2.99999762;stroke-linecap:butt;stroke-linejoin:miter;stroke-miterlimit:4;stroke-dasharray:none;stroke-opacity:1;display:inline"
         d="M -260.13614,113.23701 C -260.13614,113.23701 -261.62076,102.44002 -272.43979,102.13157 C -283.25882,101.82312 -284.05478,115.62784 -284.05478,115.62784 L -284.73923,533.26133 L -259.91212,532.85919 L -260.13614,113.23701 z " />
      <path
         id="path7554"
         style="fill:#000000;fill-opacity:1;fill-rule:evenodd;stroke:#313131;stroke-width:2.99999762;stroke-linecap:butt;stroke-linejoin:miter;stroke-miterlimit:4;stroke-dasharray:none;stroke-opacity:1;display:inline"
         d="M -284.26611,189.75935 L -294.4117,189.73028 L -293.77728,217.99549 L -293.27599,218.37559 L -343.6032,218.11131 L -344.00539,198.85851 L -326.70542,198.94935 L -326.84591,189.76365 L -344.14589,189.67281 L -344.26988,177.34165 L -314.82878,177.55915 L -314.27912,190.28081 L -307.09182,189.74155 L -307.1552,177.85109 L -296.20672,177.46821 L -296.52901,166.96042 L -307.28745,167.09266 L -307.40316,153.18877 L -314.32481,153.46698 L -314.77098,166.55008 L -343.90082,166.96331 L -344.45724,153.12003 L -326.90662,153.40092 L -327.04712,144.21522 L -344.09645,144.31442 L -344.1268,126.13305 L -294.62037,126.95921 L -294.13003,153.3843 L -284.25298,153.37325 L -284.26611,189.75935 z " />
    </g>
    <g
       style="display:inline"
       id="g4820"
       transform="matrix(0,-1,1,0,195.2643,160.0766)">
      <path
         d="M -117.63995,318.23214 C -125.81139,351.51785 -136.15423,351.51785 -143.92567,318.23214 C -151.6971,284.94642 -154.0971,243.97499 -145.52567,210.68928 C -136.95423,177.40357 -123.01139,177.40357 -114.43995,210.68928 C -105.86852,243.97499 -109.46852,284.94642 -117.63995,318.23214 z "
         style="fill:#e20909;fill-opacity:1;fill-rule:nonzero;stroke:#000000;stroke-width:4;stroke-miterlimit:4;stroke-dasharray:none;stroke-opacity:1"
         id="rect4549" />
      <g
         transform="matrix(-0.8,0,0,-0.8,82.14922,500.0076)"
         id="g4551">
        <path
           d="M 244.45691,371.58029 L 285.87317,371.58029 L 279.87317,757.43822 L 265.16504,790.79361 L 250.45691,757.43822 L 244.45691,371.58029 z "
           style="fill:#e20909;fill-opacity:1;fill-rule:nonzero;stroke:#000000;stroke-width:5;stroke-miterlimit:4;stroke-opacity:1"
           id="rect2770" />
        <path
           d="M 263.15625,375.0625 L 264.65179,742.09375 L 269.15625,375.0625 L 263.15625,375.0625 z "
           style="fill:#000000;fill-opacity:1;fill-rule:evenodd;stroke:none;stroke-width:4;stroke-linecap:butt;stroke-linejoin:miter;stroke-miterlimit:4;stroke-dasharray:none;stroke-opacity:1"
           id="path2773" />
      </g>
      <path
         d="M -121.21725,334.6214 C -120.90576,333.86658 -120.60104,333.12202 -120.31725,332.3714 L -145.39225,317.7714 C -145.14214,318.8415 -144.87958,319.90506 -144.61725,320.9714 L -121.21725,334.6214 z M -116.81725,321.1714 C -116.60586,320.37331 -116.39677,319.57164 -116.19225,318.7714 L -148.99225,299.6464 C -148.82203,300.68213 -148.6494,301.713 -148.46725,302.7464 L -116.81725,321.1714 z M -113.49225,307.1214 C -113.31866,306.29686 -113.13331,305.47267 -112.96725,304.6464 L -151.26725,282.3464 C -151.17159,283.33195 -151.07423,284.31201 -150.96725,285.2964 L -113.49225,307.1214 z M -110.84225,292.6464 C -110.71233,291.80532 -110.58908,290.96374 -110.46725,290.1214 L -152.34225,265.7214 C -152.31378,266.66197 -152.28157,267.6061 -152.24225,268.5464 L -110.84225,292.6464 z M -108.99225,277.7214 C -108.90906,276.85326 -108.81649,275.99031 -108.74225,275.1214 L -152.29225,249.7464 C -152.32611,250.65647 -152.34413,251.56086 -152.36725,252.4714 L -108.99225,277.7214 z M -107.96725,262.3214 C -107.93683,261.41576 -107.91251,260.50227 -107.89225,259.5964 L -151.19225,234.3714 C -151.2849,235.24338 -151.36006,236.12336 -151.44225,236.9964 L -107.96725,262.3214 z M -107.96725,246.3214 C -107.99924,245.37922 -108.02369,244.43814 -108.06725,243.4964 L -149.06725,219.6214 C -149.13143,219.91078 -149.20252,220.20863 -149.26725,220.4964 C -149.36139,221.04002 -149.45243,221.57714 -149.54225,222.1214 L -107.96725,246.3214 z M -109.14225,229.6464 C -109.29232,228.64396 -109.4384,227.63225 -109.59225,226.6214 L -145.74225,205.5464 C -145.96918,206.34466 -146.18432,207.14183 -146.39225,207.9464 L -109.14225,229.6464 z "
         style="fill:#000000;fill-opacity:1;fill-rule:nonzero;stroke:none;stroke-width:5;stroke-miterlimit:4;stroke-opacity:1"
         id="path16111" />
      <rect
         transform="scale(-1,-1)"
         width="129.49509"
         height="17.102243"
         x="65.235291"
         y="-213.5489"
         style="fill:#e20909;fill-opacity:1;fill-rule:nonzero;stroke:#000000;stroke-width:4;stroke-miterlimit:4;stroke-dasharray:none;stroke-opacity:1"
         id="rect1882" />
      <path
         id="path5443"
         style="fill:#e20909;fill-opacity:1;fill-rule:nonzero;stroke:#000000;stroke-width:4;stroke-miterlimit:4;stroke-dasharray:none;stroke-opacity:1"
         d="M -153.01428,313.50889 C -153.01902,300.7856 -142.70608,290.46883 -129.9828,290.46883 C -117.25952,290.46883 -106.94658,300.7856 -106.95132,313.50889 C -106.94658,326.23217 -117.25952,336.54895 -129.9828,336.54895 C -142.70608,336.54895 -153.01902,326.23217 -153.01428,313.50889 L -153.01428,313.50889 z " />
      <path
         id="path5441"
         style="fill:#e20909;fill-opacity:1;fill-rule:nonzero;stroke:#000000;stroke-width:3.19999814;stroke-miterlimit:4;stroke-dasharray:none;stroke-opacity:1"
         d="M -139.70343,313.50884 C -139.70546,308.13881 -135.35275,303.78448 -129.98272,303.78448 C -124.6127,303.78448 -120.25999,308.13881 -120.26202,313.50884 C -120.25999,318.87887 -124.6127,323.23321 -129.98272,323.23321 C -135.35275,323.23321 -139.70546,318.87887 -139.70343,313.50884 L -139.70343,313.50884 z " />
    </g>
  </g>
  <g
     inkscape:groupmode="layer"
     id="layer4"
     inkscape:label="Meubles">
    <g
       id="g1786"
       style="display:inline"
       transform="translate(0.148741,0.408888)">
      <g
         id="g7979">
        <rect
           id="rect7092"
           style="fill:none;fill-opacity:1;fill-rule:nonzero;stroke:none;stroke-width:6.20345545;stroke-linecap:round;stroke-linejoin:round;stroke-miterlimit:4;stroke-dasharray:none;stroke-opacity:1"
           y="-7.1054274e-15"
           x="0"
           height="660"
           width="600" />
      </g>
    </g>
  </g>
  <g
     inkscape:groupmode="layer"
     id="layer2"
     inkscape:label="Reflet final"
     sodipodi:insensitive="true">
    <path
       sodipodi:nodetypes="cccccc"
       d="M 300.00001,658.5 C 300.00001,658.5 598.50001,546.17969 598.50001,260.72817 C 598.50001,-24.723334 598.50001,2.1764865 598.50001,2.1764865 L 1.5,2.1764865 L 1.5,260.72817 C 1.5,546.17969 300.00001,658.5 300.00001,658.5 z "
       style="opacity:1;fill:url(#radialGradient3163);fill-opacity:1;fill-rule:evenodd;stroke:none;stroke-width:1px;stroke-linecap:butt;stroke-linejoin:miter;stroke-opacity:1"
       id="path2875"
       inkscape:export-xdpi="144"
       inkscape:export-ydpi="144" />
  </g>
  <g
     inkscape:groupmode="layer"
     id="layer1"
     inkscape:label="Contour final"
     sodipodi:insensitive="true">
    <path
       sodipodi:nodetypes="cccccc"
       d="M 299.99999,658.50028 C 299.99999,658.50028 1.5,546.17992 1.5,260.72828 C 1.5,-24.723336 1.5,2.1764957 1.5,2.1764957 L 598.49999,2.1764957 L 598.49999,260.72828 C 598.49999,546.17992 299.99999,658.50028 299.99999,658.50028 z "
       style="opacity:1;fill:none;fill-opacity:1;fill-rule:evenodd;stroke:#000000;stroke-width:3.00000048;stroke-linecap:butt;stroke-linejoin:miter;stroke-miterlimit:4;stroke-dasharray:none;stroke-opacity:1"
       id="path1411"
       inkscape:export-xdpi="144"
       inkscape:export-ydpi="144" />
  </g>
</svg>
