<?xml version="1.0" encoding="UTF-8" standalone="no"?>
<svg
   xmlns:dc="http://purl.org/dc/elements/1.1/"
   xmlns:cc="http://creativecommons.org/ns#"
   xmlns:rdf="http://www.w3.org/1999/02/22-rdf-syntax-ns#"
   xmlns:svg="http://www.w3.org/2000/svg"
   xmlns="http://www.w3.org/2000/svg"
   xmlns:xlink="http://www.w3.org/1999/xlink"
   xmlns:sodipodi="http://sodipodi.sourceforge.net/DTD/sodipodi-0.dtd"
   xmlns:inkscape="http://www.inkscape.org/namespaces/inkscape"
   height="660"
   width="600"
   version="1.0"
   id="svg2"
   sodipodi:version="0.32"
   inkscape:version="0.46"
   sodipodi:docname="Blason_ville_fr_Lécussan_(Haute-Garonne).svg"
   sodipodi:docbase="D:\Mes documents\Renaud-Notre Lapin"
   inkscape:export-filename="/Users/olivier/Desktop/Blason Rouge/Blason_Vide_3D.png"
   inkscape:export-xdpi="144"
   inkscape:export-ydpi="144"
   inkscape:output_extension="org.inkscape.output.svg.inkscape">
  <metadata
     id="metadata49">
    <rdf:RDF>
      <cc:Work
         rdf:about="">
        <dc:format>image/svg+xml</dc:format>
        <dc:type
           rdf:resource="http://purl.org/dc/dcmitype/StillImage" />
        <dc:title>Gabarit d'un blason en pointe pour le projet Blasons de Wikipédia</dc:title>
        <dc:date>03-AUG-2006</dc:date>
        <dc:creator>
          <cc:Agent>
            <dc:title>Jérôme BLUM (wagner51)</dc:title>
          </cc:Agent>
        </dc:creator>
        <cc:license
           rdf:resource="http://web.resource.org/cc/PublicDomain" />
        <dc:language>fr</dc:language>
        <dc:subject>
          <rdf:Bag>
            <rdf:li>gabarit modèle blason projet wikipédia</rdf:li>
          </rdf:Bag>
        </dc:subject>
      </cc:Work>
      <cc:License
         rdf:about="http://web.resource.org/cc/PublicDomain">
        <cc:permits
           rdf:resource="http://web.resource.org/cc/Reproduction" />
        <cc:permits
           rdf:resource="http://web.resource.org/cc/Distribution" />
        <cc:permits
           rdf:resource="http://web.resource.org/cc/DerivativeWorks" />
      </cc:License>
    </rdf:RDF>
  </metadata>
  <sodipodi:namedview
     inkscape:window-height="975"
     inkscape:window-width="1280"
     inkscape:pageshadow="2"
     inkscape:pageopacity="0.0"
     guidetolerance="10.0"
     gridtolerance="10.0"
     objecttolerance="10.0"
     borderopacity="1.0"
     bordercolor="#666666"
     pagecolor="#ffffff"
     id="base"
     showgrid="false"
     height="660px"
     inkscape:zoom="1.1590904"
     inkscape:cx="300.00013"
     inkscape:cy="339.79429"
     inkscape:window-x="-4"
     inkscape:window-y="-4"
     inkscape:current-layer="layer3"
     inkscape:object-paths="false"
     inkscape:object-nodes="true" />
  <desc
     id="desc4">Flag of Canton of Valais (Wallis)</desc>
  <defs
     id="defs6">
    <linearGradient
       id="linearGradient2893">
      <stop
         style="stop-color:white;stop-opacity:0.3137255;"
         offset="0"
         id="stop2895" />
      <stop
         id="stop2897"
         offset="0.19"
         style="stop-color:white;stop-opacity:0.25098041;" />
      <stop
         style="stop-color:#6b6b6b;stop-opacity:0.1254902;"
         offset="0.60000002"
         id="stop2901" />
      <stop
         style="stop-color:black;stop-opacity:0.1254902;"
         offset="1"
         id="stop2899" />
    </linearGradient>
    <radialGradient
       inkscape:collect="always"
       xlink:href="#linearGradient2893"
       id="radialGradient3163"
       gradientUnits="userSpaceOnUse"
       gradientTransform="matrix(1.353218,0,0,1.348928,-77.62935,-85.74693)"
       cx="221.44487"
       cy="226.33101"
       fx="221.44487"
       fy="226.33101"
       r="300" />
    <g
       id="s">
      <g
         id="c">
        <path
           id="t"
           d="M 0,0 L 0,1 L 0.5,1 L 0,0 z "
           transform="matrix(0.951057,0.309017,-0.309017,0.951057,0,-1)" />
        <use
           xlink:href="#t"
           transform="scale(-1,1)"
           id="use2144"
           x="0"
           y="0"
           width="810"
           height="540" />
      </g>
      <g
         id="a">
        <use
           xlink:href="#c"
           transform="matrix(0.309017,0.951057,-0.951057,0.309017,0,0)"
           id="use2147"
           x="0"
           y="0"
           width="810"
           height="540" />
        <use
           xlink:href="#c"
           transform="matrix(-0.809017,0.587785,-0.587785,-0.809017,0,0)"
           id="use2149"
           x="0"
           y="0"
           width="810"
           height="540" />
      </g>
      <use
         xlink:href="#a"
         transform="scale(-1,1)"
         id="use2151"
         x="0"
         y="0"
         width="810"
         height="540" />
    </g>
    <g
       id="s-4">
      <g
         id="c-8">
        <path
           transform="matrix(0.951057,0.309017,-0.309017,0.951057,0,-1)"
           d="M 0,0 L 0,1 L 0.5,1 L 0,0 z "
           id="t-8" />
        <use
           height="540"
           width="810"
           y="0"
           x="0"
           id="use2144-2"
           transform="scale(-1,1)"
           xlink:href="#t-8" />
      </g>
      <g
         id="a-4">
        <use
           height="540"
           width="810"
           y="0"
           x="0"
           id="use2147-5"
           transform="matrix(0.309017,0.951057,-0.951057,0.309017,0,0)"
           xlink:href="#c-8" />
        <use
           height="540"
           width="810"
           y="0"
           x="0"
           id="use2149-5"
           transform="matrix(-0.809017,0.587785,-0.587785,-0.809017,0,0)"
           xlink:href="#c-8" />
      </g>
      <use
         height="540"
         width="810"
         y="0"
         x="0"
         id="use2151-1"
         transform="scale(-1,1)"
         xlink:href="#a-4" />
    </g>
  </defs>
  <g
     inkscape:groupmode="layer"
     id="layer3"
     inkscape:label="Fond écu"
     style="display:inline">
    <path
       style="fill:#2b5df2;fill-opacity:1;fill-rule:evenodd;stroke:none;stroke-width:1px;stroke-linecap:butt;stroke-linejoin:miter;stroke-opacity:1"
       d="M 300,2.1875 L 300,288 L 597.5625,288 C 598.17292,279.08414 598.5,269.99846 598.5,260.71875 C 598.50001,-24.732784 598.5,2.1875 598.5,2.1875 L 300,2.1875 z"
       id="path2855" />
    <path
       style="opacity:1;fill:#2b5df2;fill-opacity:1;stroke:none;stroke-width:2.5;stroke-miterlimit:4;stroke-dasharray:none;stroke-opacity:1"
       d="M 2.4375,288 C 20.603959,553.34332 300,658.5 300,658.5 L 300,288 L 2.4375,288 z"
       id="rect13347" />
    <path
       id="path13355"
       d="M 597.5625,288 C 579.39604,553.34332 300,658.5 300,658.5 L 300,288 L 597.5625,288 z"
       style="opacity:1;fill:#ffffff;fill-opacity:1;stroke:none;stroke-width:2.5;stroke-miterlimit:4;stroke-dasharray:none;stroke-opacity:1" />
    <path
       id="path13364"
       d="M 300,2.1875 L 300,288 L 2.4375,288 C 1.82708,279.08414 1.5,269.99846 1.5,260.71875 C 1.49999,-24.732784 1.5,2.1875 1.5,2.1875 L 300,2.1875 z"
       style="fill:#e20909;fill-opacity:1;fill-rule:evenodd;stroke:none;stroke-width:1px;stroke-linecap:butt;stroke-linejoin:miter;stroke-opacity:1" />
    <rect
       style="opacity:1;fill:#000000;fill-opacity:1;stroke:none;stroke-width:2.5;stroke-miterlimit:4;stroke-dasharray:none;stroke-opacity:1"
       id="rect13643"
       width="3"
       height="657"
       x="298.5"
       y="1.5" />
    <rect
       y="2.438"
       x="-289.5"
       height="595.12598"
       width="3"
       id="rect13645"
       style="opacity:1;fill:#000000;fill-opacity:1;stroke:none;stroke-width:2.5;stroke-miterlimit:4;stroke-dasharray:none;stroke-opacity:1"
       transform="matrix(0,-1,1,0,0,0)" />
  </g>
  <g
     inkscape:groupmode="layer"
     id="layer4"
     inkscape:label="Meubles">
    <g
       style="display:inline"
       id="g6974"
       transform="translate(-469.18354,-497.36636)">
      <path
         id="path6966"
         d="M 525.06112,545.88518 C 523.30785,565.05776 530.57333,594.63821 550.2739,614.27566 C 558.29832,622.27437 587.93336,646.04206 606.53309,627.35714 C 625.21801,608.75741 601.47239,579.1003 593.47371,571.07586 C 573.83626,551.37529 544.23373,544.13188 525.06112,545.88518 z"
         style="fill:#ffffff;fill-opacity:1;stroke:#000000;stroke-width:2.5;stroke-miterlimit:4;stroke-dasharray:none;stroke-opacity:1;display:inline" />
      <use
         height="660"
         width="600"
         transform="matrix(-1,0,0,1,1238.342,0)"
         id="use6968"
         xlink:href="#path6966"
         y="0"
         x="0" />
      <use
         height="660"
         width="600"
         transform="matrix(1,0,0,-1,0,1279.9855)"
         id="use6970"
         xlink:href="#path6966"
         y="0"
         x="0" />
      <use
         height="660"
         width="600"
         transform="matrix(-1,0,0,-1,1238.342,1279.9855)"
         id="use6972"
         xlink:href="#path6966"
         y="0"
         x="0" />
    </g>
    <g
       style="display:inline"
       id="g7819"
       transform="matrix(1,0,0,0.9,-635.36587,-586.44328)">
      <path
         style="fill:#5ab532;fill-opacity:1;stroke:#000000;stroke-width:1.3499999;stroke-miterlimit:4;stroke-dasharray:none;stroke-opacity:1;display:inline"
         d="M 1083.0542,682.78379 C 1086.3077,683.61279 1088.1295,683.38697 1089.1568,686.37977 L 1087.2883,688.45954 C 1090.3832,691.21108 1090.9476,688.49666 1092.7515,688.45954 C 1094.3176,690.44861 1093.4537,692.04403 1092.7515,693.66564 C 1092.9,686.34702 1106.7078,689.1673 1099.1788,694.18626 L 1102.0678,695.18186 L 1099.1788,698.09085 L 1100.4643,699.13207 C 1087.9192,706.47929 1101.8387,701.13699 1103.9993,704.59848 C 1108.0675,703.06495 1110.9165,703.64763 1111.712,707.7946 C 1114.3901,706.93695 1117.5949,707.36223 1119.7462,706.68092 C 1122.3319,703.78036 1127.627,703.82854 1125.2094,709.02368 C 1123.311,710.07698 1124.0184,712.18559 1125.8521,714.75039 L 1131.3153,716.57253 L 1125.5307,720.21681 L 1121.9957,719.43589 C 1117.8814,719.05713 1113.5099,722.62451 1118.1095,725.49538 L 1125.1828,727.551 C 1125.4357,728.64481 1130.8627,729.45923 1124.888,730.88934 C 1129.3131,729.32216 1137.429,734.01301 1127.4589,735.57484 C 1117.9071,736.6145 1122.8159,738.90914 1125.8521,741.04125 C 1128.2161,741.52503 1129.7115,742.94696 1130.6726,744.94584 C 1131.4481,745.50547 1133.4272,749.96603 1125.8521,748.85041 L 1122.6384,747.80919 C 1121.8038,749.92464 1120.3959,753.83676 1130.0298,752.49469 C 1135.2706,755.73915 1136.4884,754.36714 1136.1358,751.19317 C 1138.6291,749.78843 1138.7773,747.84098 1138.0076,745.68113 C 1140.0528,745.44238 1141.3196,744.47362 1138.3853,741.30156 C 1137.9544,739.57886 1134.164,738.2449 1139.6708,735.83514 C 1142.1598,734.03851 1145.7453,732.59717 1146.0981,730.10843 C 1144.9775,727.32917 1152.6527,725.05512 1150.9185,732.45117 C 1152.9674,732.84453 1159.4096,734.5994 1152.8467,738.4382 C 1154.5607,739.98961 1156.2746,741.31997 1157.9886,740.26034 C 1158.4334,738.79827 1156.9545,734.86486 1163.1304,737.13667 C 1165.6737,735.05759 1173.1437,738.21683 1164.0945,741.82216 L 1166.0227,743.64431 C 1170.5873,744.23958 1169.4021,748.60647 1166.6654,748.85041 C 1168.5865,752.38868 1167.066,753.60385 1166.3441,755.35805 C 1169.405,758.01191 1171.2155,756.10764 1173.4141,755.61836 C 1176.3186,755.45746 1179.4328,754.02226 1181.4482,759.26264 C 1180.9573,761.7608 1183.3966,763.07223 1185.6259,764.46874 C 1187.6849,765.67154 1192.5285,773.17629 1180.8055,772.79852 L 1179.1986,777.22372 C 1183.8838,784.21347 1174.8718,783.46028 1173.4141,779.82678 L 1172.45,776.1825 C 1168.1485,776.51266 1165.6777,777.70129 1170.2004,782.16952 C 1169.0794,785.64728 1163.161,784.7879 1160.5595,781.90922 L 1158.9527,783.99165 C 1156.4889,782.97968 1154.0251,781.86204 1151.5613,782.69013 C 1144.5146,786.59921 1150.3998,787.73061 1153.1681,787.11533 C 1157.8251,786.11978 1158.439,788.39911 1157.0245,792.32144 C 1158.5242,793.17362 1160.0239,793.81884 1161.5236,792.06112 C 1165.1676,788.47133 1166.6617,794.97768 1164.7372,795.1848 C 1166.7214,795.89097 1169.6799,796.11972 1168.0105,799.04107 C 1171.709,798.37928 1173.5442,799.56872 1172.1286,804.55579 C 1170.3105,808.41039 1166.5514,807.02455 1163.4518,807.41916 C 1160.799,809.92532 1157.5414,808.5123 1154.4536,808.20007 C 1155.7287,812.30093 1159.525,812.14652 1153.8108,816.95504 C 1151.2456,819.25332 1149.8447,818.40816 1148.669,816.95504 C 1147.8242,813.04955 1144.4315,807.3881 1143.8485,811.65351 C 1145.9981,814.28698 1139.6011,817.18906 1139.3494,812.69473 C 1137.362,809.2593 1136.6165,812.36261 1135.493,813.47565 C 1131.4584,816.09748 1128.3696,824.93147 1127.1375,822.25657 C 1128.7025,820.23444 1130.5562,818.09542 1123.9239,819.39321 C 1120.006,821.45718 1117.9877,822.75185 1115.8898,824.07871 C 1121.1321,827.18037 1110.4457,842.24313 1109.7886,839.14546 C 1095.2504,833.7347 1086.274,856.53795 1087.9358,860.70729 L 1075.0765,847.71001 L 1064.7928,816.79015 L 1062.2219,814.96801 C 1065.7011,820.7305 1060.871,819.22628 1058.3655,817.57107 C 1061.4913,820.74791 1054.9246,823.92498 1053.8664,818.35199 L 1052.5809,813.92679 L 1046.475,817.05046 C 1045.0349,816.21702 1041.2283,819.0045 1042.7346,813.73894 C 1040.3099,816.03696 1040.4246,815.91554 1031.6922,813.05046 C 1035.0882,809.0591 1033.9791,809.06776 1028.4786,805.0764 C 1032.4479,804.94437 1031.5028,803.58752 1029.4426,801.95274 C 1029.5524,800.13276 1030.5003,798.99162 1032.0136,798.30846 C 1036.2001,795.29383 1028.9761,793.46498 1027.8358,797.78785 L 1027.1931,802.47335 C 1026.0148,802.44838 1024.8364,801.64494 1023.6581,802.99396 L 1022.0512,806.63823 L 1020.1231,806.63823 L 1018.2247,808.55163 C 1011.4029,807.0975 1010.6907,808.88446 1008.5539,810.54282 C 1005.5262,810.97992 1001.5671,813.42891 1001.1625,808.20007 C 1000.0512,807.14078 1000.7557,805.59118 1002.448,803.77488 C 995.48572,802.98567 1002.7671,796.25578 1003.0907,797.78785 C 1005.6138,796.65998 1007.3216,795.35528 1005.6617,793.10235 C 1007.405,789.95187 1004.9315,790.64406 1003.0907,790.75961 C 1000.6269,792.72041 998.16314,793.61579 995.69934,791.80083 C 995.26175,790.84637 994.40575,789.89193 996.66343,788.93747 C 997.04604,787.72271 1000.114,786.50794 995.37797,785.29319 C 993.15937,783.09366 992.16114,780.83922 998.27026,778.26494 C 997.52901,777.11542 996.79666,775.96156 993.77115,775.9222 L 986.37976,775.9222 C 981.23865,775.11108 981.4183,770.3572 986.05839,770.19547 C 982.25876,765.59607 978.78599,761.19185 989.59341,760.30386 C 993.23554,764.36065 996.87768,760.99472 1000.5198,758.48172 C 1000.4355,754.79897 1003.736,756.14268 1006.3044,756.39927 C 1011.1201,756.03664 1015.2052,756.3568 1014.0171,761.60538 C 1016.9889,764.58977 1019.6474,766.24221 1020.7658,761.34509 C 1016.0383,759.35585 1016.1211,752.05295 1025.9076,753.01531 C 1026.2103,751.9078 1028.4861,751.68826 1024.9435,748.85041 C 1021.6602,746.32702 1023.8886,744.039 1027.8358,743.64431 C 1023.412,742.08248 1025.9256,740.52064 1027.8358,738.95881 C 1025.2238,739.31949 1022.1981,738.50748 1020.4444,741.30156 C 1018.4223,742.11816 1016.1652,743.45832 1015.9453,740.26034 C 1015.7745,737.95383 1014.5224,736.42579 1010.1608,737.13667 C 1004.5245,738.24156 1005.4295,735.67833 1005.6617,733.49239 C 996.93972,736.74279 1001.8279,725.57628 1005.0189,728.28628 C 1007.108,725.51016 1010.2086,725.46541 1013.6958,726.46415 C 1012.5024,723.16554 1016.8727,719.40387 1020.4444,722.29925 C 1022.4268,718.1602 1025.254,719.83801 1028.1572,722.03895 C 1028.448,724.96782 1028.8358,727.80682 1032.3349,727.76566 C 1033.7755,726.90842 1034.607,724.81775 1037.7981,727.50537 C 1039.8398,722.77341 1044.8481,722.62405 1044.5468,720.73742 C 1034.5886,714.96217 1045.9432,710.23569 1049.0459,714.75039 C 1049.662,715.73717 1049.306,717.90509 1051.6168,716.83284 C 1051.2706,719.49123 1049.8627,722.39533 1055.7946,723.60079 C 1058.3177,722.3368 1061.1601,723.14176 1064.15,724.90231 C 1065.4978,723.72093 1063.6698,720.4349 1069.6133,722.29925 C 1072.103,721.22753 1076.0941,720.39904 1069.6133,717.87406 C 1070.3313,715.49472 1068.2105,714.49503 1066.721,713.18857 C 1067.4683,711.93354 1071.3013,712.39358 1073.1483,711.36642 C 1076.1592,714.58494 1082.3122,707.12883 1074.4337,705.6397 C 1068.9077,704.62542 1063.8092,703.45241 1069.2919,698.35115 C 1075.6638,698.12984 1075.5039,697.22585 1067.3637,695.48779 C 1062.8341,695.00965 1061.3469,689.47615 1067.6851,689.76107 C 1070.2783,688.65553 1072.4908,686.87142 1077.326,689.76107 C 1081.2332,690.5793 1084.2541,690.51393 1082.1465,685.33587 L 1083.0542,682.78379 z"
         id="path5408"
         sodipodi:nodetypes="cccccccccccccccccccccccccccccccccccccccccccccccccccccccccccccccccccccccccccccccccccccccccccccccccccccccccccccccccccccccccccccccccccccc" />
      <g
         id="g5400"
         transform="translate(87.66647,474.28408)">
        <path
           sodipodi:nodetypes="cccccccccccccccccccccccccccccccscccccccccscccccccccccccccccccccccccccccccc"
           id="path5388"
           d="M 965.76676,466.02358 C 971.00089,465.38519 974.71064,459.41148 979.01129,455.50592 C 981.86844,455.21626 982.47462,452.42414 981.67351,449.20787 C 982.35453,443.7166 985.028,443.22911 981.67351,439.7556 L 985.76382,437.02873 C 985.78822,433.67149 984.65496,431.4719 986.67277,426.12125 C 984.75702,420.66751 984.4599,425.21376 986.21829,419.76002 C 989.59361,419.81665 988.99839,416.57924 988.03621,410.85254 C 985.15001,406.00477 987.14469,401.157 988.49069,396.30923 C 993.12603,392.41539 987.1065,392.47641 987.58173,390.76666 C 987.24939,387.21093 987.04188,383.82996 990.3086,385.31291 C 990.52517,382.06666 990.75925,378.82333 986.67277,374.85991 C 980.89629,369.96321 983.77211,367.5386 982.58247,363.95243 C 982.17178,356.46419 977.75821,348.31023 975.31081,341.50089 C 985.35432,355.75954 986.65262,354.09231 986.76129,363.10567 C 987.44995,371.16213 993.54649,372.04558 996.21682,373.49647 C 998.18621,368.95169 997.06378,363.37629 1002.125,359.86212 C 1003.1151,353.9539 1002.4157,348.04568 1001.2161,342.13746 L 997.12578,335.32028 C 993.56686,333.26929 988.15399,340.48809 984.40038,339.41059 L 985.76382,336.22924 C 990.91807,336.25238 990.68661,333.96736 992.58099,332.59341 C 988.72366,323.85015 986.1821,320.69889 984.40038,320.77697 L 977.12872,321.68593 L 977.12872,319.86801 L 983.9459,319.41353 L 978.94664,313.50531 C 977.37283,312.45743 975.36134,312.06608 975.76529,308.05157 C 975.29614,303.82444 970.92897,303.49534 968.49363,301.2344 L 975.31081,301.68887 C 979.11258,302.35151 979.63143,304.89011 979.8556,307.59709 C 980.13852,310.38036 982.229,313.96382 986.15658,316.73127 C 991.01169,320.15227 993.75097,326.02175 995.43716,330.84015 C 994.68217,326.61326 993.56633,322.09769 995.30786,319.86801 C 996.21682,316.61706 997.12577,315.47363 998.03473,308.96053 C 995.03993,303.15723 996.79881,299.2554 996.21682,294.41722 L 999.65679,292.79421 C 999.50315,295.79219 998.20057,296.77951 999.91826,303.05231 C 1002.3709,295.93364 1005.565,295.48727 1008.4877,292.5993 L 1011.2146,294.8717 L 1006.6698,297.59857 C 1004.3855,303.08928 1005.0253,303.63538 1003.3546,308.01554 C 1000.4185,315.71315 996.40286,325.73233 1003.943,338.04715 C 1006.7101,342.44044 1009.4345,346.83374 1007.1243,351.22703 C 1011.7835,347.96197 1016.2303,344.70422 1019.8497,339.41059 C 1020.2567,334.90591 1021.4566,330.99601 1023.94,328.04863 C 1028.7767,326.18627 1033.1491,322.46707 1038.9378,324.4128 L 1043.4826,326.23071 C 1046.0309,329.08163 1034.7237,328.96352 1030.3027,330.32102 C 1024.6068,332.04815 1024.2643,336.15454 1023.0311,339.86507 C 1022.7108,343.79116 1017.1832,349.2488 1008.0333,355.77181 L 1005.7609,366.22482 C 1007.7483,364.90502 1009.2854,366.28658 1010.7601,368.04273 C 1013.3607,364.8462 1016.9266,363.38711 1022.1221,364.86138 C 1022.193,367.137 1025.0881,370.93334 1018.9407,369.86065 L 1015.7594,373.95095 C 1012.9468,372.9162 1010.3269,372.84532 1008.0333,374.40543 L 1006.2153,377.1323 C 1008.4682,390.15402 1010.0547,389.41804 1006.6698,404.48984 C 999.31078,413.57667 1003.0346,413.27122 1003.943,424.30334 C 1006.3313,429.18666 1003.9483,438.84128 1011.2146,438.84665 C 1006.6418,446.05915 1009.2643,444.50423 1011.2146,449.20787 C 1014.0135,459.76021 1022.2993,463.45389 1028.9393,469.20493 C 1024.0915,467.15584 1019.2438,468.73688 1014.396,464.3731 C 1009.6719,458.92222 1008.678,460.4572 1006.0742,458.62065 C 1003.8301,461.32851 1005.6029,462.80934 1005.7609,466.47805 C 1003.7287,463.15999 1002.236,465.85102 997.41282,462.06781 L 994.85339,457.11609 C 993.53105,463.92843 989.4571,460.1075 986.67277,462.38775 C 984.46062,464.72393 982.5356,464.47602 979.8556,471.02284 L 978.03768,468.29597 L 981.21903,461.47879 C 979.09813,461.2034 976.97723,461.44961 974.85633,463.75118 C 971.82647,467.05713 968.79662,468.42149 965.76676,466.02358 z"
           style="opacity:0.98000004;fill:#aa4400;fill-opacity:1;stroke:#000000;stroke-width:1.5;stroke-miterlimit:4;stroke-dasharray:none;stroke-opacity:1" />
        <path
           id="path5390"
           d="M 992.89179,381.85776 L 995.62058,385.36621 L 993.0867,387.31535 L 994.06127,388.67975 L 992.69688,392.57803"
           style="opacity:1;fill:#aa4400;fill-opacity:1;stroke:#000000;stroke-width:1.5;stroke-miterlimit:4;stroke-dasharray:none;stroke-opacity:1" />
        <path
           id="path5392"
           d="M 1002.0527,395.11191 L 1000.1036,397.8407 L 992.89179,398.03562 L 997.56972,400.37459 L 996.98498,402.71355 L 1000.1036,403.49321 L 1000.4934,408.36606 L 995.8155,408.9508 L 998.54429,411.09485 L 997.56972,413.82365 L 998.15447,416.74736 L 995.03584,416.94227 L 993.47653,418.50158 L 993.67144,421.42529"
           style="opacity:1;fill:#aa4400;fill-opacity:1;stroke:#000000;stroke-width:1.5;stroke-miterlimit:4;stroke-dasharray:none;stroke-opacity:1" />
        <path
           id="path5394"
           d="M 993.28162,423.95918 L 990.94265,427.66254 L 993.86636,428.05237 L 993.28162,431.17099"
           style="opacity:1;fill:#aa4400;fill-opacity:1;stroke:#000000;stroke-width:1.5;stroke-miterlimit:4;stroke-dasharray:none;stroke-opacity:1" />
        <path
           id="path5396"
           d="M 994.4511,435.4591 L 993.86636,437.01841 L 995.8155,439.55229 L 994.25619,442.08618 L 996.98498,443.06075 L 995.8155,446.37428 L 997.37481,448.32342 L 994.84093,450.8573"
           style="opacity:1;fill:#aa4400;fill-opacity:1;stroke:#000000;stroke-width:1.5;stroke-miterlimit:4;stroke-dasharray:none;stroke-opacity:1"
           sodipodi:nodetypes="cccccccc" />
      </g>
    </g>
    <use
       style="display:inline"
       x="0"
       y="0"
       xlink:href="#g7819"
       id="use7845"
       transform="translate(-290,284)"
       width="600"
       height="660" />
    <g
       style="display:inline"
       id="g8683"
       transform="matrix(1.25,0,0,1.25,332.173,318.34655)">
      <g
         transform="translate(-484.61116,-242.31771)"
         style="display:inline"
         inkscape:label="Fond écu"
         id="g8685">
        <g
           transform="translate(1.3295043e-4,-700.00028)"
           inkscape:label="Meubles"
           id="g2807" />
        <g
           transform="translate(1214.9342,19.818812)"
           inkscape:label="Meubles"
           id="g4626" />
        <path
           sodipodi:nodetypes="csscsscsssscsscsscsscscscscccc"
           transform="translate(244.89896,237.7291)"
           id="path3098"
           d="M 346.70315,102.0371 C 358.56544,122.84184 385.72999,109.12863 365.2085,88.974497 C 343.6826,67.833936 352.85744,53.49619 358.85863,47.24675 C 368.50046,37.20608 379.70971,29.895409 380.26678,18.400176 C 377.63163,7.7088815 362.21324,10.495105 364.11995,20.940126 C 366.96935,36.549206 364.89009,34.998503 362.12428,39.082625 C 358.84892,43.919171 354.89105,44.892395 351.60163,44.525375 C 355.76324,38.393357 355.83965,32.88382 353.05303,24.387201 C 349.50789,13.577791 357.69337,8.0895402 362.84998,6.244702 C 368.77697,4.1242494 379.25597,5.1450567 383.89528,11.687452 C 390.27587,20.685413 384.43215,32.173206 376.27543,39.808325 C 355.475,59.278601 360.21507,53.924718 359.76575,65.389249 C 359.78772,60.487636 359.03315,58.369289 362.66855,54.322324 C 373.03859,42.778283 378.91836,47.536593 384.0767,42.5297 C 386.59898,40.081471 389.82913,38.364227 386.07238,29.648526 C 391.96408,31.221572 394.4992,36.377404 390.608,45.4325 C 386.65667,54.627523 372.23195,56.38956 369.38128,59.402224 C 360.85055,68.417741 369.44024,71.033317 370.2884,77.000448 C 369.56702,73.311473 364.42537,69.596826 369.74413,65.933524 C 371.9765,64.395977 374.66822,62.884835 380.26678,61.397899 C 386.70455,59.688076 389.9551,56.605692 387.7052,51.056674 C 397.80651,57.673513 390.08224,65.082658 382.83646,68.03533 C 371.76009,72.548971 373.43481,79.264865 374.6426,88.611647 C 373.09272,81.288991 376.40878,76.780825 382.26245,74.823348 C 386.66678,73.35053 390.74752,76.538583 393.87365,83.350323 C 386.09799,76.435549 378.38957,79.463583 378.2711,90.244472 L 378.08968,106.75415 C 376.89572,112.74235 372.22515,122.06163 357.58865,117.63965 L 341.07898,108.93125 L 346.70315,102.0371 z"
           style="opacity:1;fill:#e20909;fill-opacity:1;stroke:#000000;stroke-width:1.32000005;stroke-miterlimit:4;stroke-dasharray:none;stroke-opacity:1" />
        <path
           style="fill:#e20909;fill-opacity:1;stroke:#000000;stroke-width:1.32000005;stroke-miterlimit:4;stroke-dasharray:none;stroke-opacity:1"
           d="M 539.41855,266.52646 C 539.34586,270.58276 540.10953,274.34036 543.8868,277.02167 C 547.84671,279.3142 551.98073,277.39603 556.04461,273.38472 C 560.33994,269.25869 563.7726,270.08786 567.03515,271.11075 C 567.57222,269.20295 566.91301,268.42762 567.0594,267.14994 C 562.18235,265.04464 556.71918,268.3121 551.31356,270.96397 C 545.90151,274.24841 542.35428,271.49634 539.41855,266.52646 z"
           id="path4241"
           sodipodi:nodetypes="ccccccc" />
        <path
           sodipodi:nodetypes="cscccsccccccccccccccccccccccccccccccccc"
           id="path4249"
           d="M 568.00425,341.65117 C 560.03044,344.71026 558.62336,350.84779 549.1341,353.13051 C 544.54328,354.23487 541.20231,353.05709 532.15098,363.50909 C 529.87082,364.04635 529.23713,365.40686 529.32046,367.12587 C 531.49987,373.42403 529.6649,377.83305 521.7724,379.39147 C 522.77322,382.72646 532.37318,382.9296 533.25173,377.97621 C 533.38906,377.20204 534.35248,370.2709 534.35248,370.2709 L 533.7235,378.76247 L 537.81202,383.32275 C 538.67029,387.14875 538.06502,389.78563 534.19522,389.77006 C 529.35276,389.92692 528.28431,393.43846 525.86092,395.74561 C 523.53438,395.94326 520.30702,397.94254 519.88537,394.33034 C 521.13356,391.02837 518.56295,391.92709 517.05485,391.65707 C 516.60552,393.65854 514.85916,395.10413 512.3373,396.21736 C 514.05854,398.55339 515.36534,401.26928 520.51439,400.46314 C 516.11998,401.77179 512.7296,399.81723 509.50678,397.31812 C 510.5945,400.39036 509.65471,403.01204 508.09152,405.49518 C 511.84573,407.06906 516.0197,405.28471 520.04262,404.70893 L 510.76478,406.91044 C 512.35824,408.69963 514.46127,409.80942 514.38158,413.8295 C 515.58239,415.0971 516.81954,415.89276 518.31285,413.35775 L 519.09913,411.62798 C 520.5022,411.2184 522.17038,411.73675 523.0304,409.42647 C 523.98432,409.90619 525.65262,409.13576 525.54641,411.47073 C 524.22953,412.72874 524.32228,413.98675 525.07464,415.24476 C 527.7347,412.95023 530.6112,413.03644 533.56624,413.98675 C 533.71862,413.14808 534.07629,412.30941 533.09448,411.47073 C 531.17894,410.19127 530.90526,408.63816 530.73572,407.0677 C 535.7647,407.78228 541.90138,410.83751 544.10204,399.67689 C 544.20813,403.17608 544.35936,406.08259 546.47989,405.95576 C 547.96256,406.53557 546.95861,408.2485 556.37558,406.86439 C 553.73835,405.78678 550.42656,405.77844 554.16616,399.51964 L 553.6944,395.27385 C 556.8473,394.46087 558.03676,392.46983 556.99668,389.14105 C 559.07172,388.27428 559.63572,387.07171 557.94018,385.36702 C 544.48524,376.44437 563.85633,364.05889 574.60883,363.35184 L 582.47136,358.3198 L 577.43935,341.17941 L 568.00425,341.65117 z"
           style="fill:#e20909;fill-opacity:1;stroke:#000000;stroke-width:1.32000005;stroke-miterlimit:4;stroke-dasharray:none;stroke-opacity:1" />
        <path
           sodipodi:nodetypes="cccccccccccccccsscscsccccccccccccccccccccccccccccccccccccccccccccccccccccccccscccccscccccscccccccccccccccccc"
           id="path4245"
           d="M 503.83263,250.73842 C 501.86037,251.19569 501.6369,252.39982 501.71517,253.73592 C 502.3156,254.69854 501.58814,256.27281 504.16263,256.95342 C 503.85854,260.44509 506.96701,260.86149 508.2739,262.74217 L 502.7189,258.41092 C 503.2498,255.84146 501.64174,255.4079 500.4914,254.51967 C 499.58289,256.22617 499.84596,259.35188 496.49017,258.06717 C 494.25414,260.53551 495.55504,262.89987 497.37017,263.18217 C 499.58474,264.26262 500.26322,262.58365 501.0414,261.07842 C 500.8434,262.0545 499.78357,263.15265 501.49517,263.85592 C 503.87746,265.94244 507.3891,267.1844 505.2764,272.64217 C 503.04406,272.12127 499.30987,272.66295 501.0414,276.07967 C 502.78437,276.71519 506.21065,276.32955 504.93263,281.08467 C 506.03844,282.17191 506.772,281.78152 507.60017,281.75842 C 509.38996,280.49752 509.31278,278.81404 509.11263,277.11092 C 509.86476,281.64955 512.74267,285.07362 510.5014,287.20342 C 507.17047,290.36866 508.67892,292.82689 509.71763,295.43967 C 512.19025,301.65936 510.33768,303.87572 504.38263,300.21092 C 504.84736,305.39783 513.36791,308.58456 515.16263,300.99467 C 516.1833,296.67845 515.44119,293.13733 516.73017,289.87092 C 515.33524,293.9671 517.37803,296.95831 519.94763,299.99092 C 523.98432,304.75496 521.14636,305.51433 518.9439,306.54967 C 520.79304,307.03354 523.13371,307.27446 522.72517,308.88717 C 525.01264,310.00584 527.18347,310.65617 529.28474,311.02792 L 532.94452,320.88001 C 529.64672,323.97496 525.19916,327.13545 519.72763,330.35092 C 517.38736,336.77486 503.31646,344.73959 501.0414,338.24342 C 500.58222,336.13222 499.81763,335.23247 497.04017,337.12967 C 496.77138,338.54739 497.26189,339.888 494.48263,341.58467 L 495.1564,343.24842 C 497.62612,344.29608 499.61822,344.39013 501.82517,344.91217 C 498.60582,344.53077 495.63349,345.4151 492.14517,343.68842 L 491.37517,345.24217 C 494.66312,347.46604 492.60295,349.7008 492.3789,351.92467 C 493.75029,352.32907 495.11869,353.59428 496.49017,350.92092 L 500.1614,350.24717 C 496.67009,351.638 495.80989,352.70186 494.59263,353.80842 C 497.3263,356.45777 496.17399,358.78668 495.4864,361.15092 C 497.8943,361.40138 500.16232,361.34835 500.8214,357.80967 C 502.26689,356.07779 503.72091,354.635 505.1664,354.37217 C 506.66504,354.92174 509.88905,354.2438 506.50017,358.13967 C 503.86198,359.98255 504.63633,361.19716 506.72017,362.15467 C 508.94406,360.60201 511.16501,359.68989 513.3889,361.37092 C 516.71917,360.018 516.28678,358.01051 514.17263,354.13842 C 518.08449,354.4778 518.79254,353.32281 520.38763,351.92467 C 520.38446,353.43585 520.54211,354.89945 519.39763,356.69592 C 521.61782,356.18534 526.32204,356.83126 525.99763,351.63592 L 526.2864,352.80467 L 528.7339,353.14842 C 530.21164,351.25813 528.94787,349.35996 528.8439,347.46967 C 529.16686,349.22362 529.38286,351.00711 530.8514,352.47467 C 533.52972,352.30545 536.33728,351.34372 538.7439,352.80467 L 537.19017,347.79967 C 537.73502,346.19932 537.59,345.16359 536.99763,344.38967 C 538.28762,344.80648 539.82137,344.58457 541.3014,342.35467 C 543.26582,346.74774 545.22202,346.88464 547.1864,347.24967 L 547.0214,343.20717 C 548.65758,348.89431 555.30788,343.60121 555.20263,343.13842 C 546.76809,341.82677 552.12175,336.11532 555.78017,332.64717 C 562.43205,338.95663 570.35874,341.17617 575.47017,351.95217 C 575.36352,356.17352 574.96615,360.54177 574.3839,365.00092 C 574.26079,367.93623 575.97982,368.81363 577.69763,369.70342 C 574.63804,370.43469 571.12209,370.46451 572.72017,378.28342 C 573.80306,383.10493 570.26845,384.95994 565.5289,386.03842 C 568.6584,388.16735 576.5729,391.75329 577.97263,376.89467 C 583.04583,387.01849 587.89313,379.24115 601.4989,396.26842 C 600.16236,399.35947 603.38408,404.1556 597.7864,407.62592 C 593.11021,410.7002 592.04224,405.19641 586.99263,407.29592 C 587.56533,410.15789 587.24726,412.16443 585.72763,414.81717 C 589.60258,415.61324 593.4715,415.68638 597.3464,413.15342 C 593.54088,415.73305 589.22897,416.83263 585.09517,416.12342 C 587.39721,417.5397 587.96094,421.85974 588.7664,424.78592 C 590.54008,423.88411 592.4888,423.15385 592.6439,420.63342 L 599.8489,415.93092 C 598.21311,417.96522 596.10281,420.06635 595.82015,423.06719 C 597.16973,422.20219 598.22158,421.4685 599.26227,421.71552 C 605.03811,415.88989 612.49433,407.78897 619.38755,400.6409 C 615.90966,399.5292 614.43807,396.73693 615.89517,397.38217 C 617.59519,398.13498 619.40363,398.40312 621.08281,398.34355 L 622.29616,396.88769 C 619.85923,396.0032 619.69834,391.87069 615.62017,388.80217 C 624.12552,395.44483 626.89237,386.14283 629.34362,388.32045 L 632.72135,384.30308 C 631.85234,383.22271 630.60581,382.58109 629.23263,382.98592 C 616.82304,386.64441 621.13531,381.01434 617.5589,379.94717 C 630.06968,383.55973 627.30252,370.03594 631.1714,367.04967 C 627.46528,369.40951 624.6422,373.05044 620.15763,372.19217 C 617.1189,371.63832 614.0121,373.26119 613.97017,377.55467 C 613.31004,371.56743 610.19722,375.11905 608.4289,373.85592 C 606.46514,369.5285 602.43641,367.12941 602.00763,363.88717 C 601.46885,359.81229 600.84009,355.09225 600.1239,349.77967 C 596.55414,346.00414 593.18932,342.04591 592.0939,336.20842 C 582.80273,328.0234 583.3456,315.90874 579.6364,305.49092 L 538.9089,288.81217 C 531.34618,278.43851 525.58869,278.7825 518.9439,266.74342 C 517.28079,264.8769 515.3975,260.62721 520.38763,258.41092 L 519.28763,254.51967 C 517.69263,253.94532 516.09763,255.3276 514.50263,252.18217 L 512.9489,251.17842 C 511.78629,251.17655 511.1383,251.95926 511.1614,253.73592 C 513.7218,257.31572 511.33084,257.09323 513.7189,263.74592 C 512.25238,259.70589 512.03836,258.77674 509.82763,256.29342 C 510.35413,254.94434 511.2036,253.74683 510.6114,251.83842 C 509.66923,250.55308 509.17172,251.07641 508.4939,250.84842 C 506.13198,253.42836 505.05077,251.87586 503.83263,250.73842 z M 575.4839,348.39092 C 575.49882,349.2753 575.4978,350.17338 575.4839,351.07217 L 575.4839,348.39092 z"
           style="fill:#e20909;fill-opacity:1;stroke:#000000;stroke-width:1.32000005;stroke-miterlimit:4;stroke-dasharray:none;stroke-opacity:1" />
        <path
           sodipodi:nodetypes="cccccc"
           id="path4257"
           d="M 570.20579,344.61748 C 570.25908,349.38572 572.30314,350.94187 572.40729,354.70302 L 576.39567,355.35348 C 573.12145,354.79642 570.70304,355.08674 570.67752,357.84805 C 570.553,360.45849 572.88007,361.10059 575.23781,360.52132 C 578.11484,350.14924 571.98995,344.00838 570.20579,344.61748 z"
           style="fill:#e20909;fill-opacity:1;stroke:#000000;stroke-width:1.32000005;stroke-miterlimit:4;stroke-dasharray:none;stroke-opacity:1" />
        <path
           sodipodi:nodetypes="ccc"
           id="path4247"
           d="M 607.08122,378.36934 C 609.26732,379.33763 612.5755,378.67383 612.66364,382.69375 C 610.64448,385.99691 612.24691,386.40278 612.11324,388.19754"
           style="fill:#e20909;fill-opacity:1;stroke:#000000;stroke-width:1.32000005;stroke-miterlimit:4;stroke-dasharray:none;stroke-opacity:1" />
        <g
           transform="matrix(0.44,0,0,0.44,1353.7889,205.51467)"
           id="g4293">
          <path
             style="opacity:1;fill:#e20909;fill-opacity:1;stroke:#000000;stroke-width:3;stroke-miterlimit:4;stroke-dasharray:none;stroke-opacity:1"
             d="M -1928.9624,172.15256 C -1940.0798,177.46283 -1950.8781,172.64593 -1948.7149,158.57266 C -1943.4313,162.73376 -1938.5101,166.60124 -1935.3408,161.24749 C -1930.7654,161.45355 -1928.0637,164.2828 -1928.9624,172.15256 z"
             id="path4261"
             sodipodi:nodetypes="cccc" />
          <path
             style="opacity:1;fill:#e20909;fill-opacity:1;stroke:#000000;stroke-width:3;stroke-miterlimit:4;stroke-dasharray:none;stroke-opacity:1"
             d="M -1949.1264,119.68479 C -1951.9721,113.15856 -1958.3269,118.03709 -1963.1178,117.83298 C -1956.4709,104.82487 -1948.4347,102.65259 -1939.0444,111.04303 C -1940.6803,116.3383 -1942.1516,121.86395 -1949.1264,119.68479 z"
             id="path4263"
             sodipodi:nodetypes="cccc" />
          <path
             style="opacity:1;fill:#e20909;fill-opacity:1;stroke:#000000;stroke-width:3;stroke-miterlimit:4;stroke-dasharray:none;stroke-opacity:1"
             d="M -1944.8056,98.286163 C -1939.6551,98.845052 -1929.9172,92.850417 -1931.6372,103.22431 C -1927.741,108.12426 -1923.5308,107.37284 -1919.0861,102.40128 C -1923.9617,80.076615 -1941.3388,89.637613 -1944.8056,98.286163 z"
             id="path4265"
             sodipodi:nodetypes="cccc" />
          <path
             style="opacity:1;fill:#e20909;fill-opacity:1;stroke:#000000;stroke-width:3;stroke-miterlimit:4;stroke-dasharray:none;stroke-opacity:1"
             d="M -1909.2098,105.28187 C -1906.3539,98.192466 -1909.2889,96.425835 -1913.1192,93.965288 L -1906.7407,94.3768 C -1895.5859,94.769369 -1895.1895,101.88601 -1897.0702,110.42577 C -1902.7192,113.11794 -1905.614,108.23611 -1909.2098,105.28187 z"
             id="path4267"
             sodipodi:nodetypes="ccccc" />
        </g>
        <g
           transform="matrix(0.44,0,0,0.44,1353.7889,205.51467)"
           id="g4299">
          <path
             style="opacity:1;fill:#e20909;fill-opacity:1;stroke:#000000;stroke-width:3;stroke-miterlimit:4;stroke-dasharray:none;stroke-opacity:1"
             d="M -1951.8013,309.18605 C -1956.5086,305.12227 -1961.9093,304.06344 -1968.2617,307.12849 C -1968.3074,294.3535 -1957.3044,291.11602 -1946.0401,299.30976 C -1947.1757,303.38662 -1948.5062,307.26862 -1951.8013,309.18605 z"
             id="path4269"
             sodipodi:nodetypes="cccc" />
          <path
             style="opacity:1;fill:#e20909;fill-opacity:1;stroke:#000000;stroke-width:3;stroke-miterlimit:4;stroke-dasharray:none;stroke-opacity:1"
             d="M -1972.9941,333.87677 C -1975.7436,322.91527 -1972.553,316.25523 -1959.4142,316.79902 C -1957.052,320.20074 -1953.5486,322.56494 -1956.9452,331.20194 C -1963.2108,326.59802 -1968.3699,328.63245 -1972.9941,333.87677 z"
             id="path4271"
             sodipodi:nodetypes="cccc" />
          <path
             style="opacity:1;fill:#e20909;fill-opacity:1;stroke:#000000;stroke-width:3;stroke-miterlimit:4;stroke-dasharray:none;stroke-opacity:1"
             d="M -1953.0358,335.72857 C -1949.0583,341.28398 -1946.4465,346.83939 -1949.5379,352.3948 C -1955.9735,347.97425 -1958.5145,352.44434 -1956.3279,358.77324 C -1971.177,353.66724 -1966.6996,338.0241 -1953.0358,335.72857 z"
             id="path4273"
             sodipodi:nodetypes="cccc" />
          <path
             style="opacity:1;fill:#e20909;fill-opacity:1;stroke:#000000;stroke-width:3;stroke-miterlimit:4;stroke-dasharray:none;stroke-opacity:1"
             d="M -1923.4069,354.86388 C -1918.9872,352.084 -1914.9341,352.23741 -1911.0616,353.8351 C -1915.8708,371.74046 -1929.3261,366.78279 -1933.489,361.85957 C -1929.9946,358.80888 -1919.4111,359.91194 -1923.4069,354.86388 z"
             id="path4275"
             sodipodi:nodetypes="cccc" />
        </g>
        <g
           transform="matrix(0.44,0,0,0.44,1353.7889,205.51467)"
           id="g4305">
          <path
             style="opacity:1;fill:#e20909;fill-opacity:1;stroke:#000000;stroke-width:3;stroke-miterlimit:4;stroke-dasharray:none;stroke-opacity:1"
             d="M -1900.1565,424.20364 C -1907.6793,414.06237 -1922.8785,416.03889 -1926.699,429.5533 C -1921.2163,430.14989 -1911.3165,422.28034 -1911.6788,434.07993 L -1900.1565,424.20364 z"
             id="path4277"
             sodipodi:nodetypes="cccc" />
          <path
             style="opacity:1;fill:#e20909;fill-opacity:1;stroke:#000000;stroke-width:3;stroke-miterlimit:4;stroke-dasharray:none;stroke-opacity:1"
             d="M -1919.4976,452.39221 C -1925.5134,445.33492 -1928.6614,449.27075 -1931.4314,454.65553 C -1938.0171,441.50903 -1933.073,436.049 -1918.263,437.16627 C -1916.4965,441.30814 -1917.439,446.61102 -1919.4976,452.39221 z"
             id="path4279"
             sodipodi:nodetypes="cccc" />
          <path
             style="opacity:1;fill:#e20909;fill-opacity:1;stroke:#000000;stroke-width:3;stroke-miterlimit:4;stroke-dasharray:none;stroke-opacity:1"
             d="M -1913.3249,459.79943 C -1923.855,462.2653 -1926.5825,468.86194 -1918.4688,481.19805 C -1916.7098,476.04477 -1914.9644,470.87335 -1908.3868,472.14479 C -1906.9353,468.02967 -1908.1969,463.91455 -1913.3249,459.79943 z"
             id="path4281"
             sodipodi:nodetypes="cccc" />
          <path
             style="opacity:1;fill:#e20909;fill-opacity:1;stroke:#000000;stroke-width:3;stroke-miterlimit:4;stroke-dasharray:none;stroke-opacity:1"
             d="M -1880.8155,475.43688 C -1878.7554,480.68555 -1880.8876,483.92161 -1884.7248,485.31317 C -1876.7601,491.33601 -1866.4216,487.04018 -1867.6471,473.79083 C -1871.8041,472.2477 -1876.1124,472.06508 -1880.8155,475.43688 z"
             id="path4283"
             sodipodi:nodetypes="cccc" />
        </g>
        <g
           transform="matrix(0.44,0,0,0.44,1353.7889,205.51467)"
           id="g4311">
          <path
             style="opacity:1;fill:#e20909;fill-opacity:1;stroke:#000000;stroke-width:3;stroke-miterlimit:4;stroke-dasharray:none;stroke-opacity:1"
             d="M -1742.1359,459.38792 L -1744.3992,473.37932 C -1749.3007,467.72844 -1753.3998,476.52197 -1757.9791,476.67142 C -1763.9033,468.37853 -1754.0825,457.49611 -1742.1359,459.38792 z"
             id="path4285"
             sodipodi:nodetypes="cccc" />
          <path
             style="opacity:1;fill:#e20909;fill-opacity:1;stroke:#000000;stroke-width:3;stroke-miterlimit:4;stroke-dasharray:none;stroke-opacity:1"
             d="M -1739.4611,494.9837 C -1739.3758,490.46655 -1740.2095,485.84728 -1745.0165,480.78654 C -1754.1296,483.4709 -1759.7111,490.41292 -1750.9834,500.95062 C -1747.9555,499.34449 -1746.4348,489.92361 -1739.4611,494.9837 z"
             id="path4287"
             sodipodi:nodetypes="cccc" />
        </g>
        <g
           transform="matrix(0.44,0,0,0.44,1353.7889,205.51467)"
           id="g4317">
          <path
             id="path4235"
             d="M -1807.179,161.61985 L -1810.9576,153.59021 L -1816.3894,157.1327 L -1816.1533,161.61985 L -1807.179,161.61985 z"
             style="opacity:1;fill:#e20909;fill-opacity:1;stroke:#000000;stroke-width:3;stroke-miterlimit:4;stroke-dasharray:none;stroke-opacity:1" />
          <path
             style="opacity:1;fill:#e20909;fill-opacity:1;stroke:#000000;stroke-width:3;stroke-miterlimit:4;stroke-dasharray:none;stroke-opacity:1"
             d="M -1823.2382,140.83725 L -1816.3894,140.36492 L -1817.0979,145.3244 L -1823.0021,148.15839 L -1823.2382,140.83725 z"
             id="path4239" />
          <path
             style="opacity:1;fill:#e20909;fill-opacity:1;stroke:#000000;stroke-width:3;stroke-miterlimit:4;stroke-dasharray:none;stroke-opacity:1"
             d="M -1789.0408,133.00808 C -1788.3881,128.82079 -1803.1729,130.03887 -1808.8457,135.51214 C -1811.6939,138.26018 -1826.8155,144.04947 -1832.5205,135.96743 L -1833.4311,126.63409 C -1836.6647,123.51217 -1839.9443,120.42559 -1835.7075,112.74791 L -1820.2278,107.2845 L -1820.2278,97.951165 C -1814.6554,95.874361 -1808.1889,95.055776 -1803.1546,90.211327 C -1799.0384,86.907045 -1793.3827,85.398697 -1785.6262,86.341408 C -1775.2133,88.474656 -1757.9006,85.673271 -1752.7428,97.401853 C -1757.665,100.14546 -1766.6764,96.868945 -1767.131,106.3138 C -1764.3003,95.934 -1748.3762,101.10017 -1737.9127,98.539141 C -1735.2669,101.19252 -1744.9687,107.76533 -1756.2603,109.10564 C -1737.5742,106.90558 -1744.2979,117.47315 -1741.6912,123.21946 C -1738.46,125.84287 -1737.4644,132.29867 -1726.2115,121.17068 C -1729.8295,126.5361 -1725.5939,136.60067 -1740.553,137.10564 C -1731.9381,138.06286 -1731.588,152.21507 -1731.9026,153.95117 C -1732.887,159.38296 -1720.6607,173.58132 -1716.4229,165.10564 C -1723.8568,175.53659 -1729.1577,172.45828 -1734.862,171.93491 C -1716.3397,185.1112 -1747.6784,216.81711 -1727.1221,226.56906 C -1732.6347,227.72027 -1736.9819,232.4723 -1744.8782,221.33329 C -1741.8848,227.71356 -1735.4999,232.49786 -1742.1465,243.41459 C -1751.1027,260.66299 -1736.1436,256.13386 -1730.5368,255.47964 C -1731.729,260.24667 -1759.62,280.16704 -1756.488,235.67476 C -1758.8624,251.30467 -1753.9921,265.66144 -1766.7319,275.51216 C -1776.4575,282.82965 -1772.1228,287.33506 -1766.9595,291.67476 C -1799.0688,286.90053 -1785.5006,264.83465 -1784.0327,248.87801 C -1785.7605,261.32343 -1789.6243,272.84004 -1801.1059,276.42273 C -1816.1146,284.02747 -1806.4765,299.03785 -1801.7888,306.24387 C -1807.9482,309.69539 -1837.5995,293.05162 -1818.4067,261.62597 C -1832.501,279.53631 -1835.0654,300.8674 -1854.2997,303.14926 C -1876.1022,305.73578 -1890.2868,285.63464 -1866.8945,275.7398 C -1873.3912,284.02605 -1870.8826,287.22144 -1865.301,286.89427 C -1857.7583,286.45214 -1849.8025,280.21625 -1849.8213,269.59345 C -1849.8663,244.1917 -1837.3943,245.27392 -1830.4717,243.41459 C -1863.1023,246.75714 -1854.2745,279.21257 -1894.4392,264.35768 C -1910.9478,258.25198 -1912.4974,242.67685 -1901.4961,226.79671 C -1899.4399,236.40538 -1901.2466,257.37662 -1881.6912,241.8211 C -1866.8094,229.98325 -1855.1659,221.94151 -1838.8945,222.01622 C -1859.2716,222.1099 -1883.9748,225.616 -1881.236,198.56906 C -1860.7285,202.65415 -1852.6704,199.15873 -1838.2116,198.56906 C -1866.6877,200.1319 -1872.0228,169.81372 -1845.7238,164.19507 C -1861.3981,184.92688 -1849.6259,192.86097 -1821.8213,181.49589 C -1821.8213,181.49589 -1811.3181,181.08264 -1808.3904,183.77231 C -1800.9586,190.59997 -1781.2273,166.48341 -1782.6668,163.2845 C -1800.0701,184.96106 -1801.0975,176.04896 -1810.4392,178.08125 C -1815.5524,174.5367 -1816.6084,170.07528 -1816.1303,162.37394 C -1808.6015,164.94082 -1803.5445,163.80001 -1798.3742,162.82922 C -1793.5921,158.76233 -1789.663,154.52484 -1787.9026,149.85361 C -1787.5143,144.23843 -1787.617,138.62326 -1789.0408,133.00808 z"
             id="path4227"
             sodipodi:nodetypes="csccccccccccccccscccccccccccccscsscscscccccscccccc" />
        </g>
        <path
           id="path4237"
           style="fill:#000000;stroke:#000000;stroke-width:1.32000005"
           d="M 555.56171,252.79403 C 556.30971,251.36403 562.20571,251.74683 562.16171,251.95803 C 563.92171,252.53003 564.05371,253.74443 564.36171,254.88843 L 564.58171,256.24803 L 563.83371,255.41203 C 563.21771,256.00163 562.33771,256.01923 561.54571,256.14243 L 560.62171,256.24803 C 559.43371,255.40763 558.86171,254.23283 558.42171,253.00523 C 557.14571,253.00523 556.44171,252.88203 555.56171,252.79403 L 555.56171,252.79403 z" />
      </g>
      <g
         transform="translate(-484.61116,-242.31771)"
         inkscape:label="Meubles"
         id="g8720" />
      <g
         transform="translate(-484.61116,-242.31771)"
         inkscape:label="Reflet final"
         id="g8722" />
      <g
         transform="translate(-484.61116,-242.31771)"
         inkscape:label="Contour final"
         id="g8724" />
    </g>
  </g>
  <g
     inkscape:groupmode="layer"
     id="layer2"
     inkscape:label="Reflet final"
     sodipodi:insensitive="true">
    <path
       sodipodi:nodetypes="cccccc"
       d="M 300.00001,658.5 C 300.00001,658.5 598.50001,546.17969 598.50001,260.72817 C 598.50001,-24.723334 598.50001,2.1764865 598.50001,2.1764865 L 1.5,2.1764865 L 1.5,260.72817 C 1.5,546.17969 300.00001,658.5 300.00001,658.5 z "
       style="opacity:1;fill:url(#radialGradient3163);fill-opacity:1;fill-rule:evenodd;stroke:none;stroke-width:1px;stroke-linecap:butt;stroke-linejoin:miter;stroke-opacity:1"
       id="path2875"
       inkscape:export-xdpi="144"
       inkscape:export-ydpi="144" />
  </g>
  <g
     inkscape:groupmode="layer"
     id="layer1"
     inkscape:label="Contour final"
     sodipodi:insensitive="true">
    <path
       sodipodi:nodetypes="cccccc"
       d="M 299.99999,658.50028 C 299.99999,658.50028 1.5,546.17992 1.5,260.72828 C 1.5,-24.723336 1.5,2.1764957 1.5,2.1764957 L 598.49999,2.1764957 L 598.49999,260.72828 C 598.49999,546.17992 299.99999,658.50028 299.99999,658.50028 z "
       style="opacity:1;fill:none;fill-opacity:1;fill-rule:evenodd;stroke:#000000;stroke-width:3.00000048;stroke-linecap:butt;stroke-linejoin:miter;stroke-miterlimit:4;stroke-dasharray:none;stroke-opacity:1"
       id="path1411"
       inkscape:export-xdpi="144"
       inkscape:export-ydpi="144" />
  </g>
</svg>
