<?xml version="1.0" encoding="UTF-8" standalone="no"?>
<svg
   xmlns:dc="http://purl.org/dc/elements/1.1/"
   xmlns:cc="http://web.resource.org/cc/"
   xmlns:rdf="http://www.w3.org/1999/02/22-rdf-syntax-ns#"
   xmlns:svg="http://www.w3.org/2000/svg"
   xmlns="http://www.w3.org/2000/svg"
   xmlns:xlink="http://www.w3.org/1999/xlink"
   xmlns:sodipodi="http://sodipodi.sourceforge.net/DTD/sodipodi-0.dtd"
   xmlns:inkscape="http://www.inkscape.org/namespaces/inkscape"
   height="660"
   width="600"
   version="1.0"
   id="svg2"
   sodipodi:version="0.32"
   inkscape:version="0.45.1"
   sodipodi:docname="Blason_ville_fr_Bellignies_(Nord).svg"
   sodipodi:docbase="C:\Documents and Settings\Propiétaire\Mes documents\Mes images\Blasons\SVG\Arrondissement d'Avesnes"
   inkscape:export-filename="/Users/olivier/Desktop/Blason Rouge/Blason_Vide_3D.png"
   inkscape:export-xdpi="144"
   inkscape:export-ydpi="144"
   inkscape:output_extension="org.inkscape.output.svg.inkscape">
  <metadata
     id="metadata49">
    <rdf:RDF>
      <cc:Work
         rdf:about="">
        <dc:format>image/svg+xml</dc:format>
        <dc:type
           rdf:resource="http://purl.org/dc/dcmitype/StillImage" />
        <dc:title>Gabarit d'un blason en pointe pour le projet Blasons de Wikipédia</dc:title>
        <dc:date>03-AUG-2006</dc:date>
        <dc:creator>
          <cc:Agent>
            <dc:title>Jérôme BLUM (wagner51)</dc:title>
          </cc:Agent>
        </dc:creator>
        <cc:license
           rdf:resource="http://web.resource.org/cc/PublicDomain" />
        <dc:language>fr</dc:language>
        <dc:subject>
          <rdf:Bag>
            <rdf:li>gabarit modèle blason projet wikipédia</rdf:li>
          </rdf:Bag>
        </dc:subject>
      </cc:Work>
      <cc:License
         rdf:about="http://web.resource.org/cc/PublicDomain">
        <cc:permits
           rdf:resource="http://web.resource.org/cc/Reproduction" />
        <cc:permits
           rdf:resource="http://web.resource.org/cc/Distribution" />
        <cc:permits
           rdf:resource="http://web.resource.org/cc/DerivativeWorks" />
      </cc:License>
    </rdf:RDF>
  </metadata>
  <sodipodi:namedview
     inkscape:window-height="998"
     inkscape:window-width="1280"
     inkscape:pageshadow="2"
     inkscape:pageopacity="0.0"
     guidetolerance="10.0"
     gridtolerance="10.0"
     objecttolerance="10.0"
     borderopacity="1.0"
     bordercolor="#666666"
     pagecolor="#ffffff"
     id="base"
     showgrid="false"
     height="660px"
     inkscape:zoom="0.41060606"
     inkscape:cx="505.66592"
     inkscape:cy="319.37621"
     inkscape:window-x="-4"
     inkscape:window-y="-4"
     inkscape:current-layer="layer3" />
  <desc
     id="desc4">Flag of Canton of Valais (Wallis)</desc>
  <defs
     id="defs6">
    <linearGradient
       id="linearGradient2893">
      <stop
         style="stop-color:white;stop-opacity:0.3137255;"
         offset="0"
         id="stop2895" />
      <stop
         id="stop2897"
         offset="0.19"
         style="stop-color:white;stop-opacity:0.25098041;" />
      <stop
         style="stop-color:#6b6b6b;stop-opacity:0.1254902;"
         offset="0.60000002"
         id="stop2901" />
      <stop
         style="stop-color:black;stop-opacity:0.1254902;"
         offset="1"
         id="stop2899" />
    </linearGradient>
    <linearGradient
       id="linearGradient2885">
      <stop
         id="stop2887"
         offset="0"
         style="stop-color:white;stop-opacity:1;" />
      <stop
         style="stop-color:white;stop-opacity:1;"
         offset="0.22857143"
         id="stop2891" />
      <stop
         id="stop2889"
         offset="1"
         style="stop-color:black;stop-opacity:1;" />
    </linearGradient>
    <linearGradient
       id="linearGradient2955">
      <stop
         id="stop2867"
         offset="0"
         style="stop-color:#fd0000;stop-opacity:1;" />
      <stop
         style="stop-color:#e77275;stop-opacity:0.65882355;"
         offset="0.5"
         id="stop2873" />
      <stop
         style="stop-color:black;stop-opacity:0.32291666;"
         offset="1"
         id="stop2959" />
    </linearGradient>
    <radialGradient
       inkscape:collect="always"
       xlink:href="#linearGradient2955"
       id="radialGradient2961"
       cx="225.52438"
       cy="218.90099"
       fx="225.52438"
       fy="218.90099"
       r="300"
       gradientTransform="matrix(-4.167939e-4,2.182867,-1.884232,-3.599562e-4,615.5972,-289.1214)"
       gradientUnits="userSpaceOnUse" />
    <polygon
       id="star"
       transform="scale(53,53)"
       points="0,-1 0.58778525,0.80901699 -0.95105652,-0.30901699 0.95105652,-0.30901699 -0.58778525,0.80901699 0,-1 " />
    <clipPath
       id="clip">
      <path
         d="M 0,-200 L 0,600 L 300,600 L 300,-200 L 0,-200 z "
         id="path10" />
    </clipPath>
    <radialGradient
       inkscape:collect="always"
       xlink:href="#linearGradient2955"
       id="radialGradient1911"
       gradientUnits="userSpaceOnUse"
       gradientTransform="matrix(-4.167939e-4,2.182867,-1.884232,-3.599562e-4,615.5972,-289.1214)"
       cx="225.52438"
       cy="218.90099"
       fx="225.52438"
       fy="218.90099"
       r="300" />
    <radialGradient
       inkscape:collect="always"
       xlink:href="#linearGradient2955"
       id="radialGradient2865"
       gradientUnits="userSpaceOnUse"
       gradientTransform="matrix(0,1.748721,-1.593162,-1.049767e-7,551.7876,-191.2898)"
       cx="225.52438"
       cy="218.90099"
       fx="225.52438"
       fy="218.90099"
       r="300" />
    <radialGradient
       inkscape:collect="always"
       xlink:href="#linearGradient2955"
       id="radialGradient2871"
       gradientUnits="userSpaceOnUse"
       gradientTransform="matrix(0,1.386237,-1.323286,-5.741131e-8,-158.0823,-109.5408)"
       cx="225.52438"
       cy="218.90099"
       fx="225.52438"
       fy="218.90099"
       r="300" />
    <radialGradient
       inkscape:collect="always"
       xlink:href="#linearGradient2893"
       id="radialGradient3163"
       gradientUnits="userSpaceOnUse"
       gradientTransform="matrix(1.353218,0,0,1.348928,-77.62935,-85.74693)"
       cx="221.44487"
       cy="226.33101"
       fx="221.44487"
       fy="226.33101"
       r="300" />
    <radialGradient
       gradientTransform="matrix(0,1.386237,-1.323286,-5.741131e-8,-158.0823,-109.5408)"
       gradientUnits="userSpaceOnUse"
       xlink:href="#linearGradient2955"
       id="radialGradient4241"
       fy="218.90099"
       fx="225.52438"
       r="300"
       cy="218.90099"
       cx="225.52438" />
    <radialGradient
       gradientTransform="matrix(0,1.748721,-1.593162,-1.049767e-7,551.7876,-191.2898)"
       gradientUnits="userSpaceOnUse"
       xlink:href="#linearGradient2955"
       id="radialGradient4239"
       fy="218.90099"
       fx="225.52438"
       r="300"
       cy="218.90099"
       cx="225.52438" />
    <radialGradient
       gradientTransform="matrix(-4.167939e-4,2.182867,-1.884232,-3.599562e-4,615.5972,-289.1214)"
       gradientUnits="userSpaceOnUse"
       xlink:href="#linearGradient2955"
       id="radialGradient4237"
       fy="218.90099"
       fx="225.52438"
       r="300"
       cy="218.90099"
       cx="225.52438" />
    <clipPath
       id="clipPath4233">
      <path
         id="path4235"
         d="M 0,-200 L 0,600 L 300,600 L 300,-200 L 0,-200 z " />
    </clipPath>
    <polygon
       id="polygon4231"
       transform="scale(53,53)"
       points="0,-1 0.58778525,0.80901699 -0.95105652,-0.30901699 0.95105652,-0.30901699 -0.58778525,0.80901699 0,-1 " />
    <radialGradient
       gradientTransform="matrix(-4.167939e-4,2.182867,-1.884232,-3.599562e-4,615.5972,-289.1214)"
       gradientUnits="userSpaceOnUse"
       xlink:href="#linearGradient2955"
       id="radialGradient4229"
       fy="218.90099"
       fx="225.52438"
       r="300"
       cy="218.90099"
       cx="225.52438" />
    <linearGradient
       id="linearGradient4221">
      <stop
         id="stop4223"
         offset="0"
         style="stop-color:#fd0000;stop-opacity:1" />
      <stop
         id="stop4225"
         offset="0.5"
         style="stop-color:#e77275;stop-opacity:0.65882355" />
      <stop
         id="stop4227"
         offset="1"
         style="stop-color:black;stop-opacity:0.32291666" />
    </linearGradient>
    <linearGradient
       id="linearGradient4213">
      <stop
         id="stop4215"
         offset="0"
         style="stop-color:white;stop-opacity:1" />
      <stop
         id="stop4217"
         offset="0.22857143"
         style="stop-color:white;stop-opacity:1" />
      <stop
         id="stop4219"
         offset="1"
         style="stop-color:black;stop-opacity:1" />
    </linearGradient>
    <linearGradient
       id="linearGradient4203">
      <stop
         id="stop4205"
         offset="0"
         style="stop-color:white;stop-opacity:0.3137255" />
      <stop
         id="stop4207"
         offset="0.19"
         style="stop-color:white;stop-opacity:0.25098041" />
      <stop
         id="stop4209"
         offset="0.60000002"
         style="stop-color:#6b6b6b;stop-opacity:0.1254902" />
      <stop
         id="stop4211"
         offset="1"
         style="stop-color:black;stop-opacity:0.1254902" />
    </linearGradient>
    <radialGradient
       gradientTransform="matrix(0,2.342476,-2.291353,0,562.9128,1323.77)"
       gradientUnits="userSpaceOnUse"
       xlink:href="#linearGradient2955"
       id="radialGradient14758"
       fy="153.9283"
       fx="-483.50824"
       r="300.00003"
       cy="153.9283"
       cx="-483.50824" />
    <radialGradient
       gradientTransform="matrix(0,2.342476,-2.291353,0,562.9128,1323.77)"
       gradientUnits="userSpaceOnUse"
       xlink:href="#linearGradient2955"
       id="radialGradient13767"
       fy="153.9283"
       fx="-483.50824"
       r="300.00003"
       cy="153.9283"
       cx="-483.50824" />
    <radialGradient
       gradientTransform="matrix(0,2.342476,-2.291353,0,562.9128,1323.77)"
       gradientUnits="userSpaceOnUse"
       xlink:href="#linearGradient2955"
       id="radialGradient1357"
       fy="153.9283"
       fx="-483.50824"
       r="300.00003"
       cy="153.9283"
       cx="-483.50824" />
    <radialGradient
       gradientTransform="matrix(-4.167939e-4,2.182867,-1.884232,-3.599562e-4,1395.597,-309.1214)"
       gradientUnits="userSpaceOnUse"
       xlink:href="#linearGradient2955"
       id="radialGradient4376"
       fy="218.90099"
       fx="225.52438"
       r="300"
       cy="218.90099"
       cx="225.52438" />
    <clipPath
       id="clipPath4372">
      <path
         id="path4374"
         d="M 0,-200 L 0,600 L 300,600 L 300,-200 L 0,-200 z " />
    </clipPath>
    <polygon
       id="polygon4370"
       transform="scale(53,53)"
       points="0,-1 0.58778525,0.80901699 -0.95105652,-0.30901699 0.95105652,-0.30901699 -0.58778525,0.80901699 0,-1 " />
    <radialGradient
       gradientTransform="matrix(-4.167939e-4,2.182867,-1.884232,-3.599562e-4,615.5972,-289.1214)"
       gradientUnits="userSpaceOnUse"
       xlink:href="#linearGradient2955"
       id="radialGradient4368"
       fy="218.90099"
       fx="225.52438"
       r="300"
       cy="218.90099"
       cx="225.52438" />
    <linearGradient
       id="linearGradient4363">
      <stop
         id="stop2965"
         offset="0"
         style="stop-color:#ffffff;stop-opacity:0" />
      <stop
         id="stop4366"
         offset="1"
         style="stop-color:#000000;stop-opacity:0.64583331" />
    </linearGradient>
  </defs>
  <g
     inkscape:groupmode="layer"
     id="layer3"
     inkscape:label="Fond écu"
     style="display:inline">
    <path
       id="path2855"
       style="fill:#fcef3c;fill-opacity:1;fill-rule:evenodd;stroke:none;stroke-width:1px;stroke-linecap:butt;stroke-linejoin:miter;stroke-opacity:1"
       d="M 300,658.93053 C 300,658.93053 598.50001,546.61022 598.50001,261.1587 C 598.50001,-24.292828 598.50001,2.6070027 598.50001,2.6070027 L 1.5,2.6070027 L 1.5,261.1587 C 1.5,546.61022 300,658.93053 300,658.93053 z "
       sodipodi:nodetypes="cccccc" />
    <path
       id="path4149"
       d="M 1.324509,2.0441626 L 1.7550353,273.38742 L 1.9702984,288.24056 L 4.7687192,309.90542 L 302.20555,309.29657 L 302.09365,1.8288995 L 1.324509,2.0441626 z "
       style="fill:none;fill-rule:evenodd;stroke:#000000;stroke-width:2.30466318;stroke-linecap:butt;stroke-linejoin:miter;stroke-miterlimit:4;stroke-dasharray:none;stroke-opacity:1"
       sodipodi:nodetypes="ccccccc" />
    <path
       id="path4153"
       d="M 302.22487,309.01116 L 301.54214,657.90009 L 331.91372,643.08935 L 369.74425,622.94834 L 403.35935,601.41138 L 428.76948,583.40142 L 451.6252,563.26086 L 475.24036,542.35669 L 500.77394,516.0056 L 523.44107,487.94217 L 546.24558,452.84812 L 562.71691,422.24924 L 580.16977,379.21584 C 581.84035,371.06401 584.81782,362.45163 587.63518,352.00911 L 593.09321,325.13608 L 595.41885,308.80158 L 302.22487,309.01116 z "
       style="fill:none;fill-rule:evenodd;stroke:#000000;stroke-width:2.1466856;stroke-linecap:butt;stroke-linejoin:miter;stroke-miterlimit:4;stroke-dasharray:none;stroke-opacity:1"
       sodipodi:nodetypes="ccccccccccccccccc" />
    <g
       id="g4243"
       style="opacity:1;display:inline"
       transform="matrix(0.5472152,0,0,0.5516605,2.1136379,-5.5350563e-7)">
      <g
         id="g5810">
        <path
           id="path4246"
           style="fill:#ff0000;fill-opacity:1;fill-rule:evenodd;stroke:#000000;stroke-width:3;stroke-linecap:butt;stroke-linejoin:miter;stroke-miterlimit:4;stroke-dasharray:none;stroke-opacity:1"
           d="M -0.72528939,46.700981 L 504.49343,560.36361 C 522.37485,560.12708 539.38748,559.78539 547.26057,560.228 C 549.42925,560.34992 548.48957,558.66755 548.4963,555.99293 C 548.51649,547.96764 547.84548,522.01176 548.64204,497.46494 L 59.226764,2.1875 L 1.5,2.1875 L -0.72528939,46.700981 z "
           sodipodi:nodetypes="ccsscccc" />
        <rect
           id="rect4923"
           style="fill:none;fill-opacity:1;fill-rule:nonzero;stroke:none;stroke-width:7.56018829;stroke-linecap:round;stroke-linejoin:round;stroke-miterlimit:4;stroke-dasharray:none;stroke-opacity:1"
           y="3.375078e-014"
           x="0"
           height="660"
           width="600" />
        <path
           sodipodi:nodetypes="ccsscccc"
           d="M -0.72528939,46.700981 L 504.49343,560.36361 C 522.37485,560.12708 539.38748,559.78539 547.26057,560.228 C 549.42925,560.34992 548.48957,558.66755 548.4963,555.99293 C 548.51649,547.96764 547.84548,522.01176 548.64204,497.46494 L 59.226764,2.1875 L 1.5,2.1875 L -0.72528939,46.700981 z "
           style="fill:#e20909;fill-opacity:1;fill-rule:evenodd;stroke:#000000;stroke-width:3.90948224;stroke-linecap:butt;stroke-linejoin:miter;stroke-miterlimit:4;stroke-dasharray:none;stroke-opacity:1"
           id="path4249" />
      </g>
    </g>
    <g
       transform="matrix(0.5472152,0,0,0.5516605,2.1136379,109.5941)"
       style="opacity:1;display:inline"
       id="g4251">
      <g
         id="g4253">
        <rect
           width="600"
           height="660"
           x="0"
           y="3.375078e-014"
           style="fill:none;fill-opacity:1;fill-rule:nonzero;stroke:none;stroke-width:7.56018829;stroke-linecap:round;stroke-linejoin:round;stroke-miterlimit:4;stroke-dasharray:none;stroke-opacity:1"
           id="rect4257" />
        <path
           id="path4259"
           style="fill:#e20909;fill-opacity:1;fill-rule:evenodd;stroke:#000000;stroke-width:3.90948224;stroke-linecap:butt;stroke-linejoin:miter;stroke-miterlimit:4;stroke-dasharray:none;stroke-opacity:1"
           d="M -0.72528939,46.700981 L 309.55517,362.16727 L 415.22745,361.94714 L -1.9686942,-61.82588 L 1.5,2.1875 L -0.72528939,46.700981 z "
           sodipodi:nodetypes="cccccc" />
      </g>
    </g>
    <g
       id="g4261"
       style="opacity:1;display:inline"
       transform="matrix(0.5472152,0,0,0.5516605,2.1136379,224.05904)">
      <g
         id="g4263">
        <rect
           id="rect4267"
           style="fill:none;fill-opacity:1;fill-rule:nonzero;stroke:none;stroke-width:7.56018829;stroke-linecap:round;stroke-linejoin:round;stroke-miterlimit:4;stroke-dasharray:none;stroke-opacity:1"
           y="3.375078e-014"
           x="0"
           height="660"
           width="600" />
        <path
           sodipodi:nodetypes="ccccc"
           d="M -0.72528939,46.700981 L 105.79766,155.00428 L 211.49921,154.99097 L -0.85604949,-60.722201 L -0.72528939,46.700981 z "
           style="fill:#e20909;fill-opacity:1;fill-rule:evenodd;stroke:#000000;stroke-width:3.90948224;stroke-linecap:butt;stroke-linejoin:miter;stroke-miterlimit:4;stroke-dasharray:none;stroke-opacity:1"
           id="path4269" />
      </g>
    </g>
    <g
       transform="matrix(0.5472152,0,0,0.5516605,109.27231,1.2177116)"
       style="opacity:1;display:inline"
       id="g4271">
      <g
         id="g4273">
        <rect
           width="600"
           height="660"
           x="0"
           y="3.375078e-014"
           style="fill:none;fill-opacity:1;fill-rule:nonzero;stroke:none;stroke-width:7.56018829;stroke-linecap:round;stroke-linejoin:round;stroke-miterlimit:4;stroke-dasharray:none;stroke-opacity:1"
           id="rect4277" />
        <path
           id="path4279"
           style="fill:#e20909;fill-opacity:1;fill-rule:evenodd;stroke:#000000;stroke-width:3.90948224;stroke-linecap:butt;stroke-linejoin:miter;stroke-miterlimit:4;stroke-dasharray:none;stroke-opacity:1"
           d="M -45.231077,2.5538225 L 351.79896,405.42333 L 352.97483,298.31692 L 59.226764,2.1875 L 1.5,2.1875 L -45.231077,2.5538225 z "
           sodipodi:nodetypes="cccccc" />
      </g>
    </g>
    <g
       id="g4281"
       style="opacity:1;display:inline"
       transform="matrix(0.5472152,0,0,0.5516605,218.86641,1.2177116)">
      <g
         id="g4283">
        <rect
           id="rect4287"
           style="fill:none;fill-opacity:1;fill-rule:nonzero;stroke:none;stroke-width:7.56018829;stroke-linecap:round;stroke-linejoin:round;stroke-miterlimit:4;stroke-dasharray:none;stroke-opacity:1"
           y="3.375078e-014"
           x="0"
           height="660"
           width="600" />
        <path
           sodipodi:nodetypes="cccccc"
           d="M -47.456367,1.4501435 L 151.98614,203.40891 L 152.03371,97.220899 L 59.226764,2.1875 L 1.5,2.1875 L -47.456367,1.4501435 z "
           style="fill:#e20909;fill-opacity:1;fill-rule:evenodd;stroke:#000000;stroke-width:3.90948224;stroke-linecap:butt;stroke-linejoin:miter;stroke-miterlimit:4;stroke-dasharray:none;stroke-opacity:1"
           id="path4289" />
      </g>
    </g>
    <g
       transform="matrix(0.5472152,0,0,0.5516605,301.67084,308.08118)"
       style="opacity:1;display:inline"
       id="g4301">
      <g
         id="g4303">
        <rect
           width="600"
           height="660"
           x="0"
           y="3.375078e-014"
           style="fill:none;fill-opacity:1;fill-rule:nonzero;stroke:none;stroke-width:7.56018829;stroke-linecap:round;stroke-linejoin:round;stroke-miterlimit:4;stroke-dasharray:none;stroke-opacity:1"
           id="rect4307" />
        <path
           id="path4309"
           style="fill:#e20909;fill-opacity:1;fill-rule:evenodd;stroke:#000000;stroke-width:3.90948224;stroke-linecap:butt;stroke-linejoin:miter;stroke-miterlimit:4;stroke-dasharray:none;stroke-opacity:1"
           d="M -0.72528939,46.700981 L 345.36035,398.57087 L 352.06111,388.74153 C 362.71033,379.12373 358.0264,381.54123 363.6742,376.46545 C 365.28392,375.01876 366.01584,373.24949 376.03637,361.1936 C 381.18308,355.00149 374.27291,363.08199 387.86488,347.36461 L 393.43754,340.40141 L 59.226764,2.1875 L 1.5,2.1875 L -0.72528939,46.700981 z "
           sodipodi:nodetypes="cccssccccc" />
      </g>
    </g>
    <g
       id="g4311"
       style="opacity:1;display:inline"
       transform="matrix(0.5472152,0,0,0.5516605,302.27969,417.06642)">
      <g
         id="g4313">
        <rect
           id="rect4315"
           style="fill:none;fill-opacity:1;fill-rule:nonzero;stroke:none;stroke-width:7.56018829;stroke-linecap:round;stroke-linejoin:round;stroke-miterlimit:4;stroke-dasharray:none;stroke-opacity:1"
           y="3.375078e-014"
           x="0"
           height="660"
           width="600" />
        <path
           sodipodi:nodetypes="ccccssccccc"
           d="M -0.72528939,46.700981 L 241.79244,293.272 L 251.14132,285.46158 L 262.11025,275.54436 C 273.87212,265.92656 268.13144,269.92789 274.89189,265.40394 C 276.6926,264.19894 280.72491,261.72866 281.44404,260.48313 C 286.74181,251.30732 295.35164,251.62271 291.14129,251.35683 L 294.5055,248.26821 L 300.00326,244.9065 L -0.57788833,-61.274041 L -0.72528939,46.700981 z "
           style="fill:#e20909;fill-opacity:1;fill-rule:evenodd;stroke:#000000;stroke-width:3.90948224;stroke-linecap:butt;stroke-linejoin:miter;stroke-miterlimit:4;stroke-dasharray:none;stroke-opacity:1"
           id="path4317" />
      </g>
    </g>
    <g
       transform="matrix(0.5472152,0,0,0.5516605,304.10626,533.35793)"
       style="opacity:1;display:inline"
       id="g4319">
      <g
         id="g4321">
        <rect
           width="600"
           height="660"
           x="0"
           y="3.375078e-014"
           style="fill:none;fill-opacity:1;fill-rule:nonzero;stroke:none;stroke-width:7.56018829;stroke-linecap:round;stroke-linejoin:round;stroke-miterlimit:4;stroke-dasharray:none;stroke-opacity:1"
           id="rect4323" />
        <path
           id="path4325"
           style="fill:#e20909;fill-opacity:1;fill-rule:evenodd;stroke:#000000;stroke-width:3.90948224;stroke-linecap:butt;stroke-linejoin:miter;stroke-miterlimit:4;stroke-dasharray:none;stroke-opacity:1"
           d="M -4.4566028,45.483013 L 117.48043,164.38555 L 132.11709,155.27996 C 127.09285,158.38794 141.54802,148.92466 146.15216,145.79655 C 153.34609,140.90889 154.31628,141.28149 160.73963,138.25045 C 165.15508,136.16689 157.25608,138.92801 167.56123,134.9064 L 170.88768,130.71003 L 180.99798,124.00744 L -3.8680975,-61.82588 L -4.4566028,45.483013 z "
           sodipodi:nodetypes="cccssccccc" />
      </g>
    </g>
    <g
       id="g4327"
       style="opacity:1;display:inline"
       transform="matrix(0.5472152,0,0,0.5516605,407.6118,307.47232)">
      <g
         id="g4329">
        <rect
           id="rect4331"
           style="fill:none;fill-opacity:1;fill-rule:nonzero;stroke:none;stroke-width:7.56018829;stroke-linecap:round;stroke-linejoin:round;stroke-miterlimit:4;stroke-dasharray:none;stroke-opacity:1"
           y="3.375078e-014"
           x="0"
           height="660"
           width="600" />
        <path
           sodipodi:nodetypes="ccccsscccccc"
           d="M -45.231077,2.5538225 L 236.84904,288.78274 L 245.54139,276.84473 L 250.25411,270.09604 C 257.56542,255.51168 250.65618,268.96598 257.41663,257.26812 C 258.49693,255.39883 251.41343,268.39999 265.32823,243.65178 C 269.26903,236.64286 263.00844,252.16225 269.92455,235.89302 L 273.42073,228.23331 L 276.81843,221.54314 L 59.226764,2.1875 L 1.5,2.1875 L -45.231077,2.5538225 z "
           style="fill:#e20909;fill-opacity:1;fill-rule:evenodd;stroke:#000000;stroke-width:3.90948224;stroke-linecap:butt;stroke-linejoin:miter;stroke-miterlimit:4;stroke-dasharray:none;stroke-opacity:1"
           id="path4333" />
      </g>
    </g>
    <g
       transform="matrix(0.5472152,0,0,0.5516605,519.03246,308.08118)"
       style="opacity:1;display:inline"
       id="g4335">
      <g
         id="g4337">
        <rect
           width="600"
           height="660"
           x="0"
           y="3.375078e-014"
           style="fill:none;fill-opacity:1;fill-rule:nonzero;stroke:none;stroke-width:7.56018829;stroke-linecap:round;stroke-linejoin:round;stroke-miterlimit:4;stroke-dasharray:none;stroke-opacity:1"
           id="rect4339" />
        <path
           id="path4341"
           style="fill:#e20909;fill-opacity:1;fill-rule:evenodd;stroke:#000000;stroke-width:3.90948224;stroke-linecap:butt;stroke-linejoin:miter;stroke-miterlimit:4;stroke-dasharray:none;stroke-opacity:1"
           d="M -47.456367,1.4501435 L 102.77792,153.57986 L 106.36771,143.25841 L 109.36328,137.33457 C 114.17112,122.47429 111.73355,128.12271 115.21546,114.08529 C 116.87517,107.39413 119.60887,105.15455 119.69367,102.17993 C 119.77293,99.399504 120.41868,98.18606 120.93708,95.98874 L 124.21759,85.63227 L 127.41951,71.197053 L 59.226764,2.1875 L 1.5,2.1875 L -47.456367,1.4501435 z "
           sodipodi:nodetypes="ccccsscccccc" />
      </g>
    </g>
    <rect
       style="opacity:1;fill:#e20909;fill-opacity:1;fill-rule:nonzero;stroke:#000000;stroke-width:2.148;stroke-miterlimit:4;stroke-dasharray:none;stroke-opacity:1"
       id="rect4343"
       width="155.86716"
       height="171.69742"
       x="2.4354243"
       y="2.4354243"
       ry="0.069449104" />
    <path
       id="path8347"
       style="fill:#fcef3c;fill-opacity:1;stroke:#000000;stroke-width:2.148;stroke-miterlimit:4;stroke-dasharray:none;stroke-dashoffset:0;stroke-opacity:1"
       d="M 77.933577,21.684179 L 93.278977,68.432739 L 142.19921,68.375899 L 102.48068,97.416329 L 117.65192,143.92468 L 77.759127,115.1241 L 38.215237,143.92467 L 53.278657,97.084499 L 13.667947,68.375889 L 62.870457,68.227649 L 77.933577,21.684179 z " />
    <rect
       ry="0.069362573"
       y="308.9173"
       x="301.99411"
       height="171.48349"
       width="155.86848"
       id="rect4382"
       style="opacity:1;fill:#e20909;fill-opacity:1;fill-rule:nonzero;stroke:#000000;stroke-width:2.14667058;stroke-miterlimit:4;stroke-dasharray:none;stroke-opacity:1" />
    <path
       d="M 383.95083,324.07673 L 399.29623,370.82529 L 448.21647,370.76845 L 408.49794,399.80888 L 423.66918,446.31723 L 383.77638,417.51665 L 344.23249,446.31722 L 359.29591,399.47705 L 319.6852,370.76844 L 368.88771,370.6202 L 383.95083,324.07673 z "
       style="fill:#fcef3c;fill-opacity:1;stroke:#000000;stroke-width:2.148;stroke-miterlimit:4;stroke-dasharray:none;stroke-dashoffset:0;stroke-opacity:1"
       id="path4384" />
    <rect
       style="opacity:1;fill:#e20909;fill-opacity:1;fill-rule:nonzero;stroke:#000000;stroke-width:2.68027616;stroke-miterlimit:4;stroke-dasharray:none;stroke-opacity:1"
       id="rect3290"
       width="74.205193"
       height="76.499756"
       x="376.3779"
       y="1.756399"
       ry="0.096954845" />
    <rect
       ry="0.096954845"
       y="1.756399"
       x="523.91614"
       height="76.499756"
       width="74.205193"
       id="rect3292"
       style="opacity:1;fill:#e20909;fill-opacity:1;fill-rule:nonzero;stroke:#000000;stroke-width:2.68027616;stroke-miterlimit:4;stroke-dasharray:none;stroke-opacity:1" />
    <rect
       ry="0.096954845"
       y="78.651237"
       x="450.33813"
       height="76.499756"
       width="74.205193"
       id="rect3296"
       style="opacity:1;fill:#e20909;fill-opacity:1;fill-rule:nonzero;stroke:#000000;stroke-width:2.68027616;stroke-miterlimit:4;stroke-dasharray:none;stroke-opacity:1" />
    <rect
       ry="0.096954845"
       y="78.651237"
       x="302.20004"
       height="76.499756"
       width="74.205193"
       id="rect3298"
       style="opacity:1;fill:#e20909;fill-opacity:1;fill-rule:nonzero;stroke:#000000;stroke-width:2.68027616;stroke-miterlimit:4;stroke-dasharray:none;stroke-opacity:1" />
    <rect
       ry="0.096954845"
       y="155.42482"
       x="375.99573"
       height="76.499756"
       width="74.205193"
       id="rect3300"
       style="opacity:1;fill:#e20909;fill-opacity:1;fill-rule:nonzero;stroke:#000000;stroke-width:2.68027616;stroke-miterlimit:4;stroke-dasharray:none;stroke-opacity:1" />
    <rect
       style="opacity:1;fill:#e20909;fill-opacity:1;fill-rule:nonzero;stroke:#000000;stroke-width:2.68027616;stroke-miterlimit:4;stroke-dasharray:none;stroke-opacity:1"
       id="rect3302"
       width="74.205193"
       height="76.499756"
       x="523.534"
       y="155.42482"
       ry="0.096954845" />
    <rect
       style="opacity:1;fill:#e20909;fill-opacity:1;fill-rule:nonzero;stroke:#000000;stroke-width:2.68027616;stroke-miterlimit:4;stroke-dasharray:none;stroke-opacity:1"
       id="rect3306"
       width="74.205193"
       height="76.499756"
       x="449.95596"
       y="232.31969"
       ry="0.096954845" />
    <rect
       style="opacity:1;fill:#e20909;fill-opacity:1;fill-rule:nonzero;stroke:#000000;stroke-width:2.69876838;stroke-miterlimit:4;stroke-dasharray:none;stroke-opacity:1"
       id="rect3308"
       width="73.722855"
       height="76.937904"
       x="302.29089"
       y="232.32893"
       ry="0.097510144" />
    <path
       style="opacity:1;fill:none;fill-opacity:1;fill-rule:nonzero;stroke:#000000;stroke-width:2.5;stroke-linecap:round;stroke-linejoin:round;stroke-miterlimit:4;stroke-dasharray:none;stroke-dashoffset:0;stroke-opacity:1"
       d="M 302.22944,0.4337559 C 302.22944,658.27789 302.22944,658.27789 302.22944,658.27789"
       id="path4296" />
    <path
       style="opacity:1;fill:none;fill-opacity:1;fill-rule:nonzero;stroke:#000000;stroke-width:2.5;stroke-linecap:round;stroke-linejoin:round;stroke-miterlimit:4;stroke-dasharray:none;stroke-dashoffset:0;stroke-opacity:1"
       d="M 3.5009225,309.4511 L 595.30904,308.84225 L 594.70019,308.23339"
       id="path3325" />
    <rect
       ry="0.096575551"
       y="309.35715"
       x="80.035835"
       height="76.200485"
       width="74.21035"
       id="rect9143"
       style="opacity:1;fill:#e20909;fill-opacity:1;fill-rule:nonzero;stroke:#000000;stroke-width:2.67512131;stroke-miterlimit:4;stroke-dasharray:none;stroke-opacity:1" />
    <rect
       style="opacity:1;fill:#e20909;fill-opacity:1;fill-rule:nonzero;stroke:#000000;stroke-width:2.68557978;stroke-miterlimit:4;stroke-dasharray:none;stroke-opacity:1"
       id="rect9145"
       width="74.504318"
       height="76.494453"
       x="227.57932"
       y="309.05795"
       ry="0.096948124" />
    <rect
       style="opacity:1;fill:#e20909;fill-opacity:1;fill-rule:nonzero;stroke:#000000;stroke-width:2.68027616;stroke-miterlimit:4;stroke-dasharray:none;stroke-opacity:1"
       id="rect9147"
       width="74.205193"
       height="76.499756"
       x="153.99866"
       y="385.95013"
       ry="0.096954845" />
    <path
       style="fill:#e20909;fill-opacity:1;fill-rule:nonzero;stroke:#000000;stroke-width:2.68027616;stroke-miterlimit:4;stroke-opacity:1"
       d="M 22.817893,385.95013 C 22.708985,385.62062 79.968797,385.95013 79.968797,385.95013 C 80.02251,385.95013 80.065752,385.99338 80.065752,386.04709 L 80.065752,462.35294 C 80.065752,462.40665 80.02251,462.44989 79.968797,462.44989 C 79.968797,462.44989 60.069144,462.79169 59.843151,462.44989 C 41.755521,435.09343 30.296992,408.57885 22.817893,385.95013 z "
       id="rect9149"
       sodipodi:nodetypes="cccccss" />
    <path
       style="fill:#e20909;fill-opacity:1;fill-rule:nonzero;stroke:#000000;stroke-width:2.68027616;stroke-miterlimit:4;stroke-opacity:1"
       d="M 79.753197,462.72372 L 153.76448,462.72372 C 153.81819,462.72372 153.86143,462.76697 153.86143,462.82068 L 153.86143,539.12653 C 153.86143,539.18024 153.81819,539.22348 153.76448,539.22348 C 153.76448,539.22348 121.73496,539.88649 121.38229,539.52791 C 115.93055,533.98482 91.016718,509.04536 79.656242,491.612 C 79.493165,491.36174 79.656242,462.82068 79.656242,462.82068 C 79.656242,462.76697 79.699484,462.72372 79.753197,462.72372 z "
       id="rect9151"
       sodipodi:nodetypes="cccccsscc" />
    <rect
       ry="0.096940599"
       y="462.72934"
       x="227.20013"
       height="76.488518"
       width="74.839745"
       id="rect9153"
       style="opacity:1;fill:#e20909;fill-opacity:1;fill-rule:nonzero;stroke:#000000;stroke-width:2.69151402;stroke-miterlimit:4;stroke-dasharray:none;stroke-opacity:1" />
    <path
       style="fill:#e20909;fill-opacity:1;fill-rule:nonzero;stroke:#000000;stroke-width:2.68027616;stroke-miterlimit:4;stroke-opacity:1"
       d="M 153.71344,539.61859 L 227.72472,539.61859 C 227.77844,539.61859 227.82168,539.66183 227.82168,539.71555 L 227.82168,616.02139 C 227.82168,616.07511 227.77844,616.11835 227.72472,616.11835 C 227.72472,616.11835 218.89649,616.35914 218.49208,616.11835 C 195.41612,602.37865 184.39314,593.25234 153.61649,569.3742 C 153.40394,569.20929 153.61649,539.71555 153.61649,539.71555 C 153.61649,539.66183 153.65973,539.61859 153.71344,539.61859 z "
       id="rect9155"
       sodipodi:nodetypes="cccccsscc" />
    <path
       style="fill:#e20909;fill-opacity:1;fill-rule:nonzero;stroke:#000000;stroke-width:2.67657161;stroke-miterlimit:4;stroke-opacity:1"
       d="M 227.71126,615.61674 L 301.51178,615.61674 C 301.56535,615.61674 301.60847,615.65998 301.60847,615.71371 C 301.60847,615.71371 301.33498,657.89156 301.17794,657.84923 C 274.02538,650.52982 227.63228,621.71737 227.61459,621.89708 C 227.57603,622.28877 227.61459,615.71371 227.61459,615.71371 C 227.61459,615.65998 227.65771,615.61674 227.71126,615.61674 z "
       id="rect9159"
       sodipodi:nodetypes="cccszcc" />
  </g>
  <g
     inkscape:groupmode="layer"
     id="layer4"
     inkscape:label="Meubles"
     sodipodi:insensitive="true"
     style="display:none" />
  <g
     inkscape:groupmode="layer"
     id="layer2"
     inkscape:label="Reflet final"
     sodipodi:insensitive="true"
     style="display:inline">
    <path
       sodipodi:nodetypes="cccccc"
       d="M 300.00001,658.5 C 300.00001,658.5 598.50001,546.17969 598.50001,260.72817 C 598.50001,-24.723334 598.50001,2.1764865 598.50001,2.1764865 L 1.5,2.1764865 L 1.5,260.72817 C 1.5,546.17969 300.00001,658.5 300.00001,658.5 z "
       style="opacity:1;fill:url(#radialGradient3163);fill-opacity:1;fill-rule:evenodd;stroke:none;stroke-width:1px;stroke-linecap:butt;stroke-linejoin:miter;stroke-opacity:1"
       id="path2875"
       inkscape:export-xdpi="144"
       inkscape:export-ydpi="144" />
  </g>
  <g
     inkscape:groupmode="layer"
     id="layer1"
     inkscape:label="Contour final"
     sodipodi:insensitive="true"
     style="display:inline">
    <path
       sodipodi:nodetypes="cccccc"
       d="M 299.99999,658.50028 C 299.99999,658.50028 1.5,546.17992 1.5,260.72828 C 1.5,-24.723336 1.5,2.1764957 1.5,2.1764957 L 598.49999,2.1764957 L 598.49999,260.72828 C 598.49999,546.17992 299.99999,658.50028 299.99999,658.50028 z "
       style="opacity:1;fill:none;fill-opacity:1;fill-rule:evenodd;stroke:#000000;stroke-width:3.00000048;stroke-linecap:butt;stroke-linejoin:miter;stroke-miterlimit:4;stroke-dasharray:none;stroke-opacity:1"
       id="path1411"
       inkscape:export-xdpi="144"
       inkscape:export-ydpi="144" />
  </g>
</svg>
