<?xml version="1.0" encoding="UTF-8" standalone="no"?>
<svg
   xmlns:dc="http://purl.org/dc/elements/1.1/"
   xmlns:cc="http://creativecommons.org/ns#"
   xmlns:rdf="http://www.w3.org/1999/02/22-rdf-syntax-ns#"
   xmlns:svg="http://www.w3.org/2000/svg"
   xmlns="http://www.w3.org/2000/svg"
   xmlns:xlink="http://www.w3.org/1999/xlink"
   xmlns:sodipodi="http://sodipodi.sourceforge.net/DTD/sodipodi-0.dtd"
   xmlns:inkscape="http://www.inkscape.org/namespaces/inkscape"
   height="660"
   width="600"
   version="1.0"
   id="svg2"
   sodipodi:version="0.32"
   inkscape:version="0.48.2 r9819"
   sodipodi:docname="Corcelles-les-Monts (21).svg"
   inkscape:export-filename="/Users/olivier/Desktop/Blason Rouge/Blason_Vide_3D.png"
   inkscape:export-xdpi="144"
   inkscape:export-ydpi="144"
   inkscape:output_extension="org.inkscape.output.svg.inkscape">
  <metadata
     id="metadata49">
    <rdf:RDF>
      <cc:Work
         rdf:about="">
        <dc:format>image/svg+xml</dc:format>
        <dc:type
           rdf:resource="http://purl.org/dc/dcmitype/StillImage" />
        <dc:title>Gabarit d'un blason en pointe pour le projet Blasons de Wikipédia</dc:title>
        <dc:date>03-AUG-2006</dc:date>
        <dc:creator>
          <cc:Agent>
            <dc:title>Jérôme BLUM (wagner51)</dc:title>
          </cc:Agent>
        </dc:creator>
        <cc:license
           rdf:resource="http://web.resource.org/cc/PublicDomain" />
        <dc:language>fr</dc:language>
        <dc:subject>
          <rdf:Bag>
            <rdf:li>gabarit modèle blason projet wikipédia</rdf:li>
          </rdf:Bag>
        </dc:subject>
      </cc:Work>
      <cc:License
         rdf:about="http://web.resource.org/cc/PublicDomain">
        <cc:permits
           rdf:resource="http://web.resource.org/cc/Reproduction" />
        <cc:permits
           rdf:resource="http://web.resource.org/cc/Distribution" />
        <cc:permits
           rdf:resource="http://web.resource.org/cc/DerivativeWorks" />
      </cc:License>
    </rdf:RDF>
  </metadata>
  <sodipodi:namedview
     inkscape:window-height="1001"
     inkscape:window-width="1920"
     inkscape:pageshadow="2"
     inkscape:pageopacity="0.0"
     guidetolerance="10.0"
     gridtolerance="10.0"
     objecttolerance="10.0"
     borderopacity="1.0"
     bordercolor="#666666"
     pagecolor="#ffffff"
     id="base"
     showgrid="false"
     height="660px"
     inkscape:zoom="0.8"
     inkscape:cx="248.99195"
     inkscape:cy="259.28932"
     inkscape:window-x="-4"
     inkscape:window-y="-4"
     inkscape:current-layer="layer4"
     showguides="true"
     inkscape:guide-bbox="true"
     inkscape:window-maximized="1" />
  <desc
     id="desc4">Flag of Canton of Valais (Wallis)</desc>
  <defs
     id="defs6">
    <inkscape:perspective
       sodipodi:type="inkscape:persp3d"
       inkscape:vp_x="0 : 330 : 1"
       inkscape:vp_y="0 : 1000 : 0"
       inkscape:vp_z="600 : 330 : 1"
       inkscape:persp3d-origin="300 : 220 : 1"
       id="perspective151" />
    <linearGradient
       id="linearGradient2893">
      <stop
         style="stop-color:white;stop-opacity:0.3137255;"
         offset="0"
         id="stop2895" />
      <stop
         id="stop2897"
         offset="0.19"
         style="stop-color:white;stop-opacity:0.25098041;" />
      <stop
         style="stop-color:#6b6b6b;stop-opacity:0.1254902;"
         offset="0.60000002"
         id="stop2901" />
      <stop
         style="stop-color:black;stop-opacity:0.1254902;"
         offset="1"
         id="stop2899" />
    </linearGradient>
    <linearGradient
       id="linearGradient12565">
      <stop
         id="stop12567"
         offset="0"
         style="stop-color:#ffffff;stop-opacity:0.3137255" />
      <stop
         id="stop12569"
         offset="0.19"
         style="stop-color:#ffffff;stop-opacity:0.25098041" />
      <stop
         id="stop12571"
         offset="0.60000002"
         style="stop-color:#6b6b6b;stop-opacity:0.1254902" />
      <stop
         id="stop12573"
         offset="1"
         style="stop-color:#000000;stop-opacity:0.1254902" />
    </linearGradient>
    <linearGradient
       id="linearGradient12575">
      <stop
         id="stop12577"
         offset="0"
         style="stop-color:#ffffff;stop-opacity:1" />
      <stop
         id="stop12579"
         offset="0.22857143"
         style="stop-color:#ffffff;stop-opacity:1" />
      <stop
         id="stop12581"
         offset="1"
         style="stop-color:#000000;stop-opacity:1" />
    </linearGradient>
    <linearGradient
       id="linearGradient12583">
      <stop
         id="stop12585"
         offset="0"
         style="stop-color:#fd0000;stop-opacity:1" />
      <stop
         id="stop12587"
         offset="0.5"
         style="stop-color:#e77275;stop-opacity:0.65882355" />
      <stop
         id="stop12589"
         offset="1"
         style="stop-color:#000000;stop-opacity:0.32291666" />
    </linearGradient>
    <radialGradient
       gradientTransform="matrix(-4.167939e-4,2.182867,-1.884232,-3.599562e-4,615.5972,-289.1214)"
       gradientUnits="userSpaceOnUse"
       xlink:href="#linearGradient2955"
       id="radialGradient12591"
       fy="218.90099"
       fx="225.52438"
       r="300"
       cy="218.90099"
       cx="225.52438" />
    <polygon
       id="polygon12593"
       transform="scale(53,53)"
       points="0,-1 0.58778525,0.80901699 -0.95105652,-0.30901699 0.95105652,-0.30901699 -0.58778525,0.80901699 0,-1 " />
    <clipPath
       id="clipPath12595">
      <path
         id="path12597"
         d="M 0,-200 L 0,600 L 300,600 L 300,-200 L 0,-200 z " />
    </clipPath>
    <radialGradient
       gradientTransform="matrix(-4.167939e-4,2.182867,-1.884232,-3.599562e-4,615.5972,-289.1214)"
       gradientUnits="userSpaceOnUse"
       xlink:href="#linearGradient2955"
       id="radialGradient12599"
       fy="218.90099"
       fx="225.52438"
       r="300"
       cy="218.90099"
       cx="225.52438" />
    <radialGradient
       gradientTransform="matrix(0,1.748721,-1.593162,-1.049767e-7,551.7876,-191.2898)"
       gradientUnits="userSpaceOnUse"
       xlink:href="#linearGradient2955"
       id="radialGradient12601"
       fy="218.90099"
       fx="225.52438"
       r="300"
       cy="218.90099"
       cx="225.52438" />
    <radialGradient
       gradientTransform="matrix(0,1.386237,-1.323286,-5.741131e-8,-158.0823,-109.5408)"
       gradientUnits="userSpaceOnUse"
       xlink:href="#linearGradient2955"
       id="radialGradient12603"
       fy="218.90099"
       fx="225.52438"
       r="300"
       cy="218.90099"
       cx="225.52438" />
    <radialGradient
       gradientTransform="matrix(1.353218,0,0,1.348928,-77.62935,-85.74693)"
       gradientUnits="userSpaceOnUse"
       xlink:href="#linearGradient2893"
       id="radialGradient12605"
       fy="226.33101"
       fx="221.44487"
       r="300"
       cy="226.33101"
       cx="221.44487" />
    <radialGradient
       gradientTransform="matrix(0,1.386237,-1.323286,-5.741131e-8,-158.0823,-109.5408)"
       gradientUnits="userSpaceOnUse"
       xlink:href="#linearGradient2955"
       id="radialGradient6435"
       fy="218.90099"
       fx="225.52438"
       r="300"
       cy="218.90099"
       cx="225.52438" />
    <radialGradient
       gradientTransform="matrix(0,1.748721,-1.593162,-1.049767e-7,551.7876,-191.2898)"
       gradientUnits="userSpaceOnUse"
       xlink:href="#linearGradient2955"
       id="radialGradient6437"
       fy="218.90099"
       fx="225.52438"
       r="300"
       cy="218.90099"
       cx="225.52438" />
    <radialGradient
       gradientTransform="matrix(-4.167939e-4,2.182867,-1.884232,-3.599562e-4,615.5972,-289.1214)"
       gradientUnits="userSpaceOnUse"
       xlink:href="#linearGradient2955"
       id="radialGradient6439"
       fy="218.90099"
       fx="225.52438"
       r="300"
       cy="218.90099"
       cx="225.52438" />
    <clipPath
       id="clipPath6441">
      <path
         id="path6443"
         d="M 0,-200 L 0,600 L 300,600 L 300,-200 L 0,-200 z " />
    </clipPath>
    <polygon
       id="polygon6445"
       transform="scale(53,53)"
       points="0,-1 0.58778525,0.80901699 -0.95105652,-0.30901699 0.95105652,-0.30901699 -0.58778525,0.80901699 0,-1 " />
    <radialGradient
       gradientTransform="matrix(-4.167939e-4,2.182867,-1.884232,-3.599562e-4,615.5972,-289.1214)"
       gradientUnits="userSpaceOnUse"
       xlink:href="#linearGradient2955"
       id="radialGradient6447"
       fy="218.90099"
       fx="225.52438"
       r="300"
       cy="218.90099"
       cx="225.52438" />
    <linearGradient
       id="linearGradient6449">
      <stop
         id="stop6451"
         offset="0"
         style="stop-color:#fd0000;stop-opacity:1" />
      <stop
         id="stop6453"
         offset="0.5"
         style="stop-color:#e77275;stop-opacity:0.65882355" />
      <stop
         id="stop6455"
         offset="1"
         style="stop-color:#000000;stop-opacity:0.32291666" />
    </linearGradient>
    <linearGradient
       id="linearGradient6457">
      <stop
         id="stop6459"
         offset="0"
         style="stop-color:#ffffff;stop-opacity:1" />
      <stop
         id="stop6461"
         offset="0.22857143"
         style="stop-color:#ffffff;stop-opacity:1" />
      <stop
         id="stop6463"
         offset="1"
         style="stop-color:#000000;stop-opacity:1" />
    </linearGradient>
    <linearGradient
       id="linearGradient6465">
      <stop
         id="stop6467"
         offset="0"
         style="stop-color:#ffffff;stop-opacity:0.3137255" />
      <stop
         id="stop6469"
         offset="0.19"
         style="stop-color:#ffffff;stop-opacity:0.25098041" />
      <stop
         id="stop6471"
         offset="0.60000002"
         style="stop-color:#6b6b6b;stop-opacity:0.1254902" />
      <stop
         id="stop6473"
         offset="1"
         style="stop-color:#000000;stop-opacity:0.1254902" />
    </linearGradient>
    <linearGradient
       id="linearGradient6359">
      <stop
         id="stop6361"
         offset="0"
         style="stop-color:#ffffff;stop-opacity:0.3137255" />
      <stop
         id="stop6363"
         offset="0.19"
         style="stop-color:#ffffff;stop-opacity:0.25098041" />
      <stop
         id="stop6365"
         offset="0.60000002"
         style="stop-color:#6b6b6b;stop-opacity:0.1254902" />
      <stop
         id="stop6367"
         offset="1"
         style="stop-color:#000000;stop-opacity:0.1254902" />
    </linearGradient>
    <linearGradient
       id="linearGradient6369">
      <stop
         id="stop6371"
         offset="0"
         style="stop-color:#ffffff;stop-opacity:1" />
      <stop
         id="stop6373"
         offset="0.22857143"
         style="stop-color:#ffffff;stop-opacity:1" />
      <stop
         id="stop6375"
         offset="1"
         style="stop-color:#000000;stop-opacity:1" />
    </linearGradient>
    <linearGradient
       id="linearGradient6377">
      <stop
         id="stop6379"
         offset="0"
         style="stop-color:#fd0000;stop-opacity:1" />
      <stop
         id="stop6381"
         offset="0.5"
         style="stop-color:#e77275;stop-opacity:0.65882355" />
      <stop
         id="stop6383"
         offset="1"
         style="stop-color:#000000;stop-opacity:0.32291666" />
    </linearGradient>
    <radialGradient
       gradientTransform="matrix(-4.167939e-4,2.182867,-1.884232,-3.599562e-4,615.5972,-289.1214)"
       gradientUnits="userSpaceOnUse"
       xlink:href="#linearGradient2955"
       id="radialGradient6385"
       fy="218.90099"
       fx="225.52438"
       r="300"
       cy="218.90099"
       cx="225.52438" />
    <polygon
       id="polygon6387"
       transform="scale(53,53)"
       points="0,-1 0.58778525,0.80901699 -0.95105652,-0.30901699 0.95105652,-0.30901699 -0.58778525,0.80901699 0,-1 " />
    <clipPath
       id="clipPath6389">
      <path
         id="path6391"
         d="M 0,-200 L 0,600 L 300,600 L 300,-200 L 0,-200 z " />
    </clipPath>
    <radialGradient
       gradientTransform="matrix(-4.167939e-4,2.182867,-1.884232,-3.599562e-4,615.5972,-289.1214)"
       gradientUnits="userSpaceOnUse"
       xlink:href="#linearGradient2955"
       id="radialGradient6393"
       fy="218.90099"
       fx="225.52438"
       r="300"
       cy="218.90099"
       cx="225.52438" />
    <radialGradient
       gradientTransform="matrix(0,1.748721,-1.593162,-1.049767e-7,551.7876,-191.2898)"
       gradientUnits="userSpaceOnUse"
       xlink:href="#linearGradient2955"
       id="radialGradient6395"
       fy="218.90099"
       fx="225.52438"
       r="300"
       cy="218.90099"
       cx="225.52438" />
    <radialGradient
       gradientTransform="matrix(0,1.386237,-1.323286,-5.741131e-8,-158.0823,-109.5408)"
       gradientUnits="userSpaceOnUse"
       xlink:href="#linearGradient2955"
       id="radialGradient6397"
       fy="218.90099"
       fx="225.52438"
       r="300"
       cy="218.90099"
       cx="225.52438" />
    <radialGradient
       gradientTransform="matrix(1.353218,0,0,1.348928,-77.62935,-85.74693)"
       gradientUnits="userSpaceOnUse"
       xlink:href="#linearGradient2893"
       id="radialGradient2027"
       fy="226.33101"
       fx="221.44487"
       r="300"
       cy="226.33101"
       cx="221.44487" />
    <radialGradient
       gradientTransform="matrix(0,1.386237,-1.323286,-5.741131e-8,-158.0823,-109.5408)"
       gradientUnits="userSpaceOnUse"
       xlink:href="#linearGradient2955"
       id="radialGradient2871"
       fy="218.90099"
       fx="225.52438"
       r="300"
       cy="218.90099"
       cx="225.52438" />
    <radialGradient
       gradientTransform="matrix(0,1.748721,-1.593162,-1.049767e-7,551.7876,-191.2898)"
       gradientUnits="userSpaceOnUse"
       xlink:href="#linearGradient2955"
       id="radialGradient2865"
       fy="218.90099"
       fx="225.52438"
       r="300"
       cy="218.90099"
       cx="225.52438" />
    <radialGradient
       gradientTransform="matrix(-4.167939e-4,2.182867,-1.884232,-3.599562e-4,615.5972,-289.1214)"
       gradientUnits="userSpaceOnUse"
       xlink:href="#linearGradient2955"
       id="radialGradient1911"
       fy="218.90099"
       fx="225.52438"
       r="300"
       cy="218.90099"
       cx="225.52438" />
    <clipPath
       id="clip">
      <path
         id="path10"
         d="M 0,-200 L 0,600 L 300,600 L 300,-200 L 0,-200 z " />
    </clipPath>
    <polygon
       id="star"
       transform="scale(53,53)"
       points="0,-1 0.58778525,0.80901699 -0.95105652,-0.30901699 0.95105652,-0.30901699 -0.58778525,0.80901699 0,-1 " />
    <radialGradient
       gradientTransform="matrix(-4.167939e-4,2.182867,-1.884232,-3.599562e-4,615.5972,-289.1214)"
       gradientUnits="userSpaceOnUse"
       xlink:href="#linearGradient2955"
       id="radialGradient2961"
       fy="218.90099"
       fx="225.52438"
       r="300"
       cy="218.90099"
       cx="225.52438" />
    <linearGradient
       id="linearGradient2955">
      <stop
         id="stop2867"
         offset="0"
         style="stop-color:#fd0000;stop-opacity:1" />
      <stop
         id="stop2873"
         offset="0.5"
         style="stop-color:#e77275;stop-opacity:0.65882355" />
      <stop
         id="stop2959"
         offset="1"
         style="stop-color:#000000;stop-opacity:0.32291666" />
    </linearGradient>
    <linearGradient
       id="linearGradient2885">
      <stop
         id="stop2887"
         offset="0"
         style="stop-color:#ffffff;stop-opacity:1" />
      <stop
         id="stop2891"
         offset="0.22857143"
         style="stop-color:#ffffff;stop-opacity:1" />
      <stop
         id="stop2889"
         offset="1"
         style="stop-color:#000000;stop-opacity:1" />
    </linearGradient>
    <linearGradient
       id="linearGradient2002">
      <stop
         id="stop2004"
         offset="0"
         style="stop-color:#ffffff;stop-opacity:0.3137255" />
      <stop
         id="stop2006"
         offset="0.19"
         style="stop-color:#ffffff;stop-opacity:0.25098041" />
      <stop
         id="stop2008"
         offset="0.60000002"
         style="stop-color:#6b6b6b;stop-opacity:0.1254902" />
      <stop
         id="stop2010"
         offset="1"
         style="stop-color:#000000;stop-opacity:0.1254902" />
    </linearGradient>
    <radialGradient
       gradientTransform="matrix(1.353218,0,0,1.348928,-77.62935,-85.74693)"
       gradientUnits="userSpaceOnUse"
       xlink:href="#linearGradient2893"
       id="radialGradient2962"
       fy="226.33101"
       fx="221.44487"
       r="300"
       cy="226.33101"
       cx="221.44487" />
    <linearGradient
       id="linearGradient2951">
      <stop
         id="stop2953"
         offset="0"
         style="stop-color:#ffffff;stop-opacity:0.3137255" />
      <stop
         id="stop2955"
         offset="0.19"
         style="stop-color:#ffffff;stop-opacity:0.25098041" />
      <stop
         id="stop2957"
         offset="0.60000002"
         style="stop-color:#6b6b6b;stop-opacity:0.1254902" />
      <stop
         id="stop2960"
         offset="1"
         style="stop-color:#000000;stop-opacity:0.1254902" />
    </linearGradient>
    <inkscape:perspective
       id="perspective8511"
       inkscape:persp3d-origin="372.04724 : 350.78739 : 1"
       inkscape:vp_z="744.09448 : 526.18109 : 1"
       inkscape:vp_y="0 : 1000 : 0"
       inkscape:vp_x="0 : 526.18109 : 1"
       sodipodi:type="inkscape:persp3d" />
    <inkscape:perspective
       id="perspective2445"
       inkscape:persp3d-origin="372.04724 : 350.78739 : 1"
       inkscape:vp_z="744.09448 : 526.18109 : 1"
       inkscape:vp_y="0 : 1000 : 0"
       inkscape:vp_x="0 : 526.18109 : 1"
       sodipodi:type="inkscape:persp3d" />
    <radialGradient
       r="300"
       fy="200.44757"
       fx="285.18573"
       cy="200.44757"
       cx="285.18573"
       gradientTransform="matrix(1.551284,0,0,1.350335,-77.894365,353.46112)"
       gradientUnits="userSpaceOnUse"
       id="radialGradient11919"
       xlink:href="#linearGradient2893"
       inkscape:collect="always" />
    <linearGradient
       id="linearGradient3034">
      <stop
         id="stop3036"
         offset="0"
         style="stop-color:white;stop-opacity:0.3137255;" />
      <stop
         style="stop-color:white;stop-opacity:0.25098041;"
         offset="0.19"
         id="stop3038" />
      <stop
         id="stop3040"
         offset="0.60000002"
         style="stop-color:#6b6b6b;stop-opacity:0.1254902;" />
      <stop
         id="stop3042"
         offset="1"
         style="stop-color:black;stop-opacity:0.1254902;" />
    </linearGradient>
    <inkscape:perspective
       id="perspective3207"
       inkscape:persp3d-origin="372.04724 : 350.78739 : 1"
       inkscape:vp_z="744.09448 : 526.18109 : 1"
       inkscape:vp_y="0 : 1000 : 0"
       inkscape:vp_x="0 : 526.18109 : 1"
       sodipodi:type="inkscape:persp3d" />
    <radialGradient
       r="300"
       fy="200.44757"
       fx="285.18573"
       cy="200.44757"
       cx="285.18573"
       gradientTransform="matrix(1.551284,0,0,1.350335,-152.89433,151.09881)"
       gradientUnits="userSpaceOnUse"
       id="radialGradient3205"
       xlink:href="#linearGradient2893"
       inkscape:collect="always" />
    <linearGradient
       id="linearGradient3195">
      <stop
         id="stop3197"
         offset="0"
         style="stop-color:white;stop-opacity:0.3137255;" />
      <stop
         style="stop-color:white;stop-opacity:0.25098041;"
         offset="0.19"
         id="stop3199" />
      <stop
         id="stop3201"
         offset="0.60000002"
         style="stop-color:#6b6b6b;stop-opacity:0.1254902;" />
      <stop
         id="stop3203"
         offset="1"
         style="stop-color:black;stop-opacity:0.1254902;" />
    </linearGradient>
  </defs>
  <g
     inkscape:groupmode="layer"
     id="layer3"
     inkscape:label="Fond écu"
     style="opacity:1;display:inline"
     sodipodi:insensitive="true">
    <g
       id="g2934"
       inkscape:label="Calque 1"
       transform="translate(-74.999947,-202.36234)"
       style="fill:#5ab532">
      <g
         style="fill:#5ab532;stroke:none;display:inline"
         id="g4195"
         inkscape:label="Calque 1"
         transform="translate(2.5e-6,2.6171874e-6)">
        <path
           sodipodi:nodetypes="cssccccssc"
           d="M 374.99998,860.86234 C 374.99998,822.35824 406.20317,791.10862 444.64998,791.10862 C 483.09679,791.10862 565.40315,791.10862 603.84996,791.10862 C 642.29676,791.10862 673.50005,759.859 673.50005,721.355 L 673.50005,203.86202 L 76.499955,203.86204 L 76.499945,721.355 C 76.499945,759.859 107.70316,791.10862 146.14996,791.10862 C 184.59679,791.10862 266.90317,791.10862 305.34998,791.10862 C 343.79678,791.10862 374.99998,822.35824 374.99998,860.86234 z"
           style="fill:#5ab532;fill-opacity:1;fill-rule:nonzero;stroke:none;stroke-width:3.00000191;stroke-linecap:round;stroke-linejoin:round;stroke-miterlimit:4;stroke-dasharray:none;stroke-dashoffset:0;stroke-opacity:1;display:inline"
           id="path4197" />
      </g>
    </g>
  </g>
  <g
     inkscape:groupmode="layer"
     id="layer4"
     inkscape:label="Meubles"
     style="opacity:1;display:inline">
    <path
       sodipodi:nodetypes="ccsssscccc"
       id="path4702"
       style="fill:#ffffff;fill-opacity:1;fill-rule:evenodd;stroke:#000000;stroke-width:3;stroke-linecap:butt;stroke-linejoin:miter;stroke-miterlimit:4;stroke-dasharray:none;stroke-opacity:1;display:inline"
       d="M 598.3626,131.74227 C 588.51684,127.62833 576.93738,124.83495 562.20877,124.52 C 498.93384,123.14485 496.34538,171.39566 432.75649,172.08533 C 369.14716,172.77523 367.31931,126.67841 304.92236,126.5421 C 242.52543,126.40581 239.69317,171.02615 174.86326,171.02615 C 110.03337,171.02618 106.84859,124.52 46.017815,124.52 C 26.841745,124.52 13.187989,128.78984 1.6373926,134.7421 L 1.6373926,2.5180889 L 598.3626,1.8458589 L 598.3626,131.74227 z" />
    <g
       transform="matrix(1.11114,0,0,1.11114,-733.0417,-38.073256)"
       id="g2964">
      <g
         transform="translate(645.9947,15.75597)"
         id="g3700">
        <path
           id="path2424"
           style="fill:#e20909;fill-rule:evenodd;stroke:#000000;stroke-width:2.09596896;stroke-linecap:round;stroke-linejoin:round;stroke-miterlimit:4;stroke-dasharray:none;stroke-opacity:1"
           d="M 172.96489,395.77717 C 176.09663,396.8699 178.89944,397.6796 180.26195,399.89391 C 183.17567,398.80679 183.2513,397.41123 182.09947,395.15877 C 179.02949,394.78541 175.95587,395.00966 172.96489,395.77717 z M 159.44853,410.12394 C 161.93805,410.4981 164.353,408.76749 167.01062,411.85544 C 169.63313,410.68889 170.1759,409.64371 168.90115,406.62559 C 165.32214,406.42701 162.26684,408.13315 159.44853,410.12394 z M 168.8128,422.75687 C 164.61752,424.23842 163.20189,427.49452 161.67476,430.67233 C 164.08694,429.27205 166.55472,427.22027 168.72446,428.7288 C 170.78382,426.98753 170.67103,424.40825 168.8128,422.75687 z M 196.34023,435.12477 C 196.75704,440.41345 195.23379,442.37381 194.4497,445.60215 C 197.02793,444.18983 199.34424,442.30725 200.59832,438.62312 C 199.61815,434.00718 197.7996,435.93018 196.34023,435.12477 z M 213.53161,445.24879 C 215.40939,448.20373 217.29878,449.28215 219.62722,452.19248 C 219.05068,448.99998 215.92594,447.68697 217.38333,444.77174 C 215.788,443.72405 214.80252,443.92188 213.53161,445.24879 z M 308.21675,488.28909 C 305.11269,489.96784 302.59089,491.9365 298.51678,493.13024 C 298.95105,494.26687 298.04561,495.97841 300.41477,496.63133 C 304.64544,495.84508 306.05907,491.66656 308.21675,488.28909 z M 250.05526,515.31881 C 252.03853,515.19882 256.10242,512.1479 259.7699,511.02837 C 260.66311,509.87435 259.23983,508.26546 258.33876,506.75261 C 253.39965,507.26607 251.15706,511.67635 250.05526,515.31881 z M 307.7397,510.74567 C 305.51752,512.77144 306.16687,513.40214 306.09281,514.71186 L 313.53122,516.4257 C 312.65528,513.60347 311.66145,512.04501 307.7397,510.74567 z M 249.6877,525.37862 C 247.42348,528.19415 245.62,530.56074 248.53925,535.94434 C 250.99188,531.47816 249.97304,530.07069 253.63896,528.3081 C 253.40341,525.7832 251.80824,526.01854 249.6877,525.37862 z M 261.92993,532.47959 C 257.09192,536.22625 260.13082,538.46855 259.34586,541.87745 C 260.84428,538.67633 262.93299,536.70224 267.47334,535.0221 C 266.37,532.82754 264.78736,533.36489 261.92993,532.47959 z" />
        <path
           id="path2426"
           style="fill:#e20909;fill-rule:evenodd;stroke:#000000;stroke-width:2.09596896;stroke-linecap:round;stroke-linejoin:round;stroke-miterlimit:4;stroke-dasharray:none;stroke-opacity:1"
           d="M 240.35136,430.36054 L 252.05952,431.78837 L 265.76664,438.64193 C 260.68934,445.71315 257.52964,453.9943 252.34509,454.06244 C 247.57576,454.72851 244.84381,451.3417 242.30396,449.41547 C 231.74843,441.41017 228.71203,438.03811 218.07728,434.64402 C 217.65656,437.65191 217.25416,439.58166 217.16344,441.79322 C 218.2143,442.87965 217.3599,443.71659 217.22059,444.63879 C 215.6932,445.02948 215.41075,445.7459 213.50825,444.78158 C 211.80923,443.78459 212.075,442.45489 212.60134,441.14984 C 213.6723,438.49442 212.57992,435.87992 212.99329,432.30035 C 208.44987,428.65387 208.90911,430.00468 204.74532,430.15441 C 205.81955,433.65748 202.6815,435.28828 201.22895,437.92802 C 199.56316,438.46988 197.89736,438.6192 196.23156,437.2141 C 195.59507,432.974 196.35682,434.58245 198.46499,428.09842 C 193.58977,427.38936 184.86508,427.52558 180.40513,424.64269 C 178.38731,425.70118 175.98809,426.94852 173.66185,427.69323 C 172.34571,429.45103 171.05292,429.1477 169.86579,428.34934 C 168.00215,426.74766 168.06568,424.95326 167.92178,423.17959 C 169.19015,422.15045 170.36318,421.76808 171.50396,422.28532 C 174.02761,423.42957 175.90793,420.29445 177.29206,418.24065 C 180.93141,419.50284 187.66332,422.121 191.87459,420.03121 C 187.91834,417.99773 181.90282,415.76321 179.12826,412.8178 C 175.99601,413.4098 172.54655,415.00549 168.10341,412.22717 C 167.83715,410.35466 166.94533,408.48215 168.69186,406.60965 C 173.43592,404.74193 175.15566,408.01778 177.57559,408.10275 C 182.68781,409.25872 187.33117,410.12504 192.37643,414.08334 C 190.57263,411.25108 188.58149,407.51376 188.70874,405.95532 C 186.75575,405.25011 184.91732,403.46184 182.72199,401.53608 C 180.90051,401.1538 180.50226,400.55163 180.09714,399.37674 C 179.8909,397.46504 180.73139,396.07671 182.66723,395.23605 C 184.29423,395.68834 185.16482,396.59027 184.99789,398.17398 C 187.66974,398.32415 188.3953,398.1918 192.8113,402.34776 C 195.16213,406.16269 196.78806,408.46126 197.95213,413.40827 C 206.36099,422.71095 219.02972,426.80903 232.21993,429.97104 C 236.58322,433.90135 240.52951,437.02694 240.35136,430.36054 z" />
        <path
           id="path2428"
           style="fill:#e20909;fill-rule:evenodd;stroke:#000000;stroke-width:2.09596896;stroke-linecap:round;stroke-linejoin:round;stroke-miterlimit:4;stroke-dasharray:none;stroke-opacity:1"
           d="M 285.7562,449.63618 L 294.18036,458.20313 C 291.66897,469.86371 290.98079,481.52427 291.89584,493.18485 C 293.08018,493.44806 294.6595,494.30266 295.54131,493.41981 C 296.75125,492.20843 297.81958,492.49779 298.89262,492.80934 C 300.65252,494.10227 300.34422,495.60201 300.40513,497.06484 C 299.64338,498.48412 298.39319,499.13169 296.65704,499.04109 C 294.98463,498.95381 293.33118,500.03019 291.32472,500.18119 C 291.62203,502.6085 291.34894,505.03579 294.18036,507.4631 C 297.61248,508.75493 300.16183,508.82253 302.43247,508.31837 C 304.57058,507.84363 306.32609,508.40543 308.31584,510.88988 C 308.02913,512.41289 307.78721,513.93591 306.45966,515.45892 C 305.13887,515.84999 303.73366,515.69226 302.23436,514.96096 C 300.03029,513.88589 297.34097,514.88644 294.89428,515.45892 L 288.04072,520.59909 L 282.90055,520.59909 C 279.84282,526.54363 271.94579,527.12206 272.04908,534.16343 C 270.26287,534.77116 268.38993,536.15954 266.76612,535.30569 C 263.30987,535.05866 262.86537,533.30575 261.76873,531.87891 C 263.47554,530.72948 263.58132,528.67202 267.00677,528.08594 C 272.35093,527.17159 272.84424,518.89953 278.61707,516.31562 C 272.56783,519.62352 266.63668,522.34096 261.34039,521.88414 C 258.97377,524.54911 259.23853,528.74905 252.77344,529.02326 C 247.039,528.2002 248.19294,521.36347 253.20737,520.77896 C 254.88665,518.75074 256.44057,516.47179 258.62752,515.45892 C 263.84134,514.92913 268.59487,513.24861 273.4769,511.88936 L 268.05116,509.0337 C 266.5416,510.2009 264.12252,509.11612 263.0424,510.41991 C 261.44817,512.34427 259.44715,512.55906 257.94458,511.9919 C 255.46184,508.80594 256.40983,504.51781 260.79628,504.46933 C 262.6331,504.61654 265.91844,502.85223 267.48004,502.18014 C 271.71016,503.95685 275.75412,507.78138 280.33046,505.74971 C 280.59185,494.4738 281.99923,483.38888 280.18768,471.76747 C 279.59788,470.95545 279.03582,470.14343 278.50219,469.33142 C 277.65962,468.04929 276.88792,466.76716 276.18977,465.48504 L 274.76195,453.20574 L 285.7562,449.63618 z" />
        <path
           id="path2430"
           style="fill:#fcef3c;fill-opacity:0.94117647000000004;fill-rule:evenodd;stroke:#000000;stroke-width:2.09596896000000000;stroke-linecap:round;stroke-linejoin:round;stroke-miterlimit:4;stroke-dasharray:none;stroke-opacity:1"
           d="M 240.26511,411.26269 C 239.85047,417.43791 236.45198,424.21798 239.51506,430.71297 C 243.42044,431.90932 247.32582,433.11854 251.2312,432.34492 C 255.13523,440.88161 259.96944,440.11657 264.34463,443.94173 L 269.12334,431.12243" />
        <path
           id="path2432"
           style="fill:#fcef3c;fill-rule:evenodd;stroke:#000000;stroke-width:2.09596896000000000;stroke-linecap:round;stroke-linejoin:round;stroke-miterlimit:4;stroke-dasharray:none;stroke-opacity:1"
           d="M 272.64173,335.78829 C 293.2998,341.92479 317.38272,355.98972 326.02254,334.30424 C 328.10742,335.35679 322.85106,342.52705 333.0658,336.80474 C 330.82521,303.47022 337.41124,263.7307 376.10707,262.37941 C 417.86363,260.92124 442.73986,292.77444 447.23299,333.49019 C 438.54332,313.38293 392.33889,246.04616 355.28219,295.03362 C 392.00488,254.18478 436.92501,305.39863 430.5758,324.381 C 421.8625,304.42666 399.229,291.35066 386.89463,292.64085 C 401.42741,290.11316 419.90992,308.13981 424.83449,323.92384 C 428.31364,335.07504 435.44949,346.17388 449.74777,353.11632 C 439.84601,363.26395 423.15688,348.5019 412.63612,328.91892 C 403.37623,311.68283 386.91058,299.81689 371.75741,302.65656 C 390.51928,301.22801 407.25373,314.12652 412.93122,332.53193 C 416.59466,344.40809 422.87078,359.32336 434.17598,372.38826 C 428.21703,376.33002 411.22194,360.22532 397.39549,331.4697 C 390.61276,317.3633 370.46027,316.41754 353.92707,322.5599 C 406.92029,308.77828 397.8693,352.35897 417.24661,374.64474 C 411.4355,375.21352 405.64685,374.5964 398.91048,357.29667 C 389.42829,332.9454 369.65783,323.72402 350.85409,339.72755 C 369.2287,328.39878 384.32688,329.56823 395.51247,349.40637 C 399.66981,356.77959 395.94783,368.7616 407.16832,380.23659 C 400.65604,381.3236 395.99047,375.63103 386.89955,357.44062 C 380.4105,344.45639 365.0097,342.27421 350.23958,351.30745 C 378.8733,338.16212 386.76967,356.02813 393.1679,376.13452 C 380.52972,361.19001 366.33731,354.20065 349.32474,361.64608 C 371.67871,353.81243 382.27715,366.00669 390.64537,382.00057 C 376.75632,370.46057 362.59098,366.13639 347.21269,374.63944 C 371.29658,369.31998 391.29997,378.95968 388.15303,404.28347 C 381.85471,383.58204 361.71245,387.38131 345.65519,383.95102 C 359.86381,387.16702 374.61125,389.89423 373.44996,407.05246 C 364.31238,398.79881 353.51402,397.75949 342.70829,396.75219 C 363.34738,403.16109 376.52844,407.68343 373.9286,421.52132 C 365.88492,414.5035 353.52172,409.56414 341.19281,404.60827 C 355.48475,410.42867 369.95854,416.19919 363.10154,427.81989 C 354.51025,418.35523 343.16426,416.75495 332.42189,413.43142 C 340.31615,417.67998 352.20673,418.55543 349.25537,431.95827 C 343.3188,425.92332 336.89058,422.02407 330.24171,419.08325 C 334.15002,425.49574 340.81,426.13728 341.89587,438.46904 L 320.4417,424.73915 L 272.64173,335.78829 z" />
        <path
           id="path2434"
           style="fill:#d40000;fill-rule:evenodd;stroke:#000000;stroke-width:2.09596896;stroke-linecap:round;stroke-linejoin:round;stroke-miterlimit:4;stroke-dasharray:none;stroke-opacity:1"
           d="M 240.13394,211.28662 L 237.30893,206.90658 C 239.85622,195.71412 246.28035,195.66174 252.3616,194.6241 C 248.59888,198.07596 250.01398,199.66662 250.21622,201.69326 C 265.49975,190.36446 269.25615,197.63524 275.78599,200.43093 C 271.122,200.05966 266.7385,200.27133 265.19474,206.38462 C 272.45209,208.05406 278.62095,204.70473 285.19384,203.21829 C 283.48209,205.00376 281.37362,206.54708 281.1182,209.22146 C 288.98343,211.40777 294.65006,209.39521 301.02035,208.72649 C 296.26125,213.28152 290.13835,216.88991 280.35099,217.95472 C 297.27194,215.8969 305.77962,219.67826 308.76424,227.29289 C 296.03132,224.16281 292.25638,233.96808 272.25279,230.18051 L 240.13394,211.28662 z" />
        <path
           id="path2436"
           style="fill:#fcef3c;fill-opacity:1;fill-rule:evenodd;stroke:#000000;stroke-width:2.09596896000000000;stroke-linecap:round;stroke-linejoin:round;stroke-miterlimit:4;stroke-dasharray:none;stroke-opacity:1"
           d="M 295.95577,345.25778 C 317.03221,351.72818 321.02684,338.98675 331.48013,333.50936 C 324.91404,341.31665 330.50603,349.83059 305.65784,356.5753 C 317.89126,355.90106 330.5301,341.18621 343.01596,331.76946 C 334.59994,343.02993 331.74622,357.51043 310.94732,361.60242 C 324.7874,358.8145 334.53454,351.17746 344.84196,344.20421 C 341.08225,356.66416 331.99641,365.0126 311.69813,364.7056 C 323.69315,365.61534 335.69058,366.4664 347.93331,361.32576 C 344.31955,370.83741 331.39621,373.54482 311.40189,371.08414 C 323.44812,373.59092 335.45642,376.34055 348.30381,373.71848 C 341.39644,382.74675 322.14501,378.69686 304.36271,376.20347 C 318.20957,378.85105 331.59666,383.49583 346.38192,382.06707 C 341.29768,388.0634 325.9548,386.05033 311.23786,384.52594 C 321.95414,386.57824 332.51352,388.79341 344.71628,389.30252 C 335.91978,392.88236 324.86146,392.84759 313.53229,392.38 C 322.97998,394.61917 332.4014,396.97245 342.43001,396.68813 C 337.18471,399.2015 329.87034,400.23444 320.59963,399.86761 C 328.90483,400.70505 336.21168,402.48481 342.52018,405.20687 C 338.19764,405.90128 334.55049,406.91148 325.48269,405.38723 C 330.28471,406.98758 334.98252,408.65313 338.88451,410.81667 C 334.65022,412.96582 330.59447,415.27038 321.61279,413.28738 L 301.72021,397.86574 L 295.95577,345.25778 z" />
        <path
           id="path2438"
           style="fill:#fcef3c;fill-opacity:1;fill-rule:evenodd;stroke:#000000;stroke-width:2.09596896000000000;stroke-linecap:round;stroke-linejoin:round;stroke-miterlimit:4;stroke-dasharray:none;stroke-opacity:1"
           d="M 240.27056,212.0433 C 247.74756,210.6695 256.80793,213.69202 264.13199,219.36563 C 275.57971,228.23364 278.42818,238.69138 281.23306,248.21743 L 278.94851,247.75831 C 280.89732,256.35705 280.25733,266.55125 278.17142,274.22752 C 274.93886,286.12355 255.70763,296.69468 259.87567,306.89848 C 265.51515,322.17086 290.16704,322.33927 295.51965,337.48219 C 293.0045,336.22683 290.63791,334.08006 287.64851,335.67022 C 292.51536,339.60211 297.23345,341.98088 302.39707,349.01132 C 296.68075,345.5233 290.92775,342.21861 284.71531,341.21117 C 297.25099,347.9374 310.37751,354.4932 312.57587,364.20133 C 303.22958,358.32375 293.88329,350.99859 284.537,347.38631 C 298.32506,357.67842 314.87304,366.57389 321.69575,380.39081 L 275.641,353.62666 C 296.41416,367.3877 320.90178,382.00381 323.66931,391.61986 L 278.52342,366.30818 C 304.28306,382.09983 325.03008,397.28002 330.49018,410.59539 L 273.20061,375.02875 C 304.96866,396.45169 330.88445,407.32857 338.31053,430.62984 L 275.17416,386.2578 C 321.74342,420.99986 335.73246,433.1337 337.98507,444.64495 L 273.06211,399.0328 C 295.5153,420.12676 329.72623,433.61798 333.66461,459.81245 L 294.96277,428.11039 C 297.04453,432.1812 301.00873,436.68535 296.14921,439.15825 C 294.0033,443.44814 299.45008,445.27103 302.87372,447.75127 C 294.64672,449.88542 288.39946,443.41971 283.55252,430.87106 C 287.00422,438.24639 287.37673,444.3698 296.33906,454.53522 C 293.06651,452.08145 287.54581,448.98091 283.68006,442.91838 C 287.568,450.20223 291.60327,450.35426 294.59616,458.98069 C 294.48296,468.08876 291.42632,467.87589 288.35484,467.61607 C 283.59733,469.91756 279.54126,471.63146 273.85557,467.59357 C 275.53097,463.21245 273.46905,458.29744 271.72909,453.42841 C 265.75919,445.87931 261.38147,438.42763 261.9098,431.27615 C 251.95271,427.2081 242.0586,422.63623 232.59966,414.5829 C 223.2882,403.19828 213.73918,400.04076 204.28611,393.56052 C 192.99236,380.8766 195.10057,371.27787 193.58334,360.84455 C 177.09353,339.90228 177.6111,328.23423 180.81642,317.2931 C 184.40181,305.0546 194.55637,294.48623 205.86207,284.10393 C 217.47435,277.21238 226.04043,267.50899 231.273,254.72859 L 229.20886,243.89309 C 231.24026,240.28559 232.66689,235.76729 240.01319,240.16412 C 233.12777,228.25895 235.94463,218.90888 240.72356,210.07552" />
        <path
           id="path2440"
           style="fill:#d40000;fill-rule:evenodd;stroke:#000000;stroke-width:2.09596896;stroke-linecap:round;stroke-linejoin:round;stroke-miterlimit:4;stroke-dasharray:none;stroke-opacity:1"
           d="M 214.34074,222.44247 C 225.56265,220.50351 230.91363,226.63465 238.26087,234.88657 L 232.68173,238.23952 C 232.86702,232.90716 225.48373,227.65491 214.34074,222.44247 z" />
        <path
           id="path2442"
           style="fill:none;fill-rule:evenodd;stroke:#000000;stroke-width:2.09596896;stroke-linecap:round;stroke-linejoin:round;stroke-miterlimit:4;stroke-dasharray:none;stroke-opacity:1"
           d="M 211.80575,285.00775 C 218.02059,287.07219 222.8792,286.077 225.2445,279.45692" />
        <path
           id="path2444"
           style="fill:none;fill-opacity:1;stroke:#000000;stroke-width:3.7071209;stroke-linecap:round;stroke-linejoin:round;stroke-miterlimit:4;stroke-dasharray:none;stroke-opacity:1"
           transform="matrix(0.550979,0.126838,-0.126838,0.550979,149.246,-15.41581)"
           d="M 267.4379,368.61517 C 267.4379,373.00857 263.76328,376.57012 259.23041,376.57012 C 254.69754,376.57012 251.02292,373.00857 251.02292,368.61517 C 251.02292,364.22177 254.69754,360.66022 259.23041,360.66022 C 263.76328,360.66022 267.4379,364.22177 267.4379,368.61517 z" />
        <path
           id="path2446"
           style="fill:#d40000;fill-rule:evenodd;stroke:#000000;stroke-width:2.09596896;stroke-linecap:round;stroke-linejoin:round;stroke-miterlimit:4;stroke-dasharray:none;stroke-opacity:1"
           d="M 229.3837,245.38379 C 224.37927,252.98848 219.61767,256.93376 206.46099,259.55912 C 199.30117,260.98783 196.96089,268.78554 198.7752,273.78024 C 200.31394,278.01634 200.17216,279.59357 206.35002,280.5117 C 206.35002,280.5117 205.43893,285.76597 210.36703,288.19759 C 217.76546,291.84812 222.96729,286.81259 224.06684,283.00171 C 226.87946,273.25365 229.58875,263.86407 240.02453,260.86223" />
        <path
           id="path2448"
           style="fill:#fcef3c;fill-opacity:1;stroke:#000000;stroke-width:6.16316986000000000;stroke-linecap:round;stroke-linejoin:round;stroke-miterlimit:4;stroke-dasharray:none;stroke-opacity:1"
           transform="matrix(0.331412,7.629269e-2,-7.629269e-2,0.331412,208.0207,72.89671)"
           d="M 218.69803,397.90961 C 218.69803,406.20825 211.68799,412.93563 203.04066,412.93563 C 194.39334,412.93563 187.3833,406.20825 187.3833,397.90961 C 187.3833,389.61097 194.39334,382.88359 203.04066,382.88359 C 211.68799,382.88359 218.69803,389.61097 218.69803,397.90961 z" />
        <path
           id="path2450"
           style="fill:#000000;fill-opacity:1;stroke:#000000;stroke-width:15.73998547;stroke-linecap:round;stroke-linejoin:round;stroke-miterlimit:4;stroke-dasharray:none;stroke-opacity:1"
           transform="matrix(0.129768,2.987327e-2,-2.987327e-2,0.129768,229.3829,161.7216)"
           d="M 218.69803,397.90961 C 218.69803,406.20825 211.68799,412.93563 203.04066,412.93563 C 194.39334,412.93563 187.3833,406.20825 187.3833,397.90961 C 187.3833,389.61097 194.39334,382.88359 203.04066,382.88359 C 211.68799,382.88359 218.69803,389.61097 218.69803,397.90961 z" />
        <path
           id="path2452"
           style="fill:#e20909;fill-rule:evenodd;stroke:#000000;stroke-width:2.09596896;stroke-linecap:round;stroke-linejoin:round;stroke-miterlimit:4;stroke-dasharray:none;stroke-opacity:1"
           d="M 213.16842,211.62338 C 226.31345,213.65516 232.48789,223.9966 236.75789,235.80798 C 228.78778,233.93374 220.38169,229.81637 213.0505,231.22951 C 213.633,232.05148 214.08867,233.1888 215.04227,233.43186 C 221.87106,235.17239 226.99254,238.63874 228.78877,243.0575 C 232.32254,243.19159 236.3454,242.05774 240.84813,239.67991 C 237.27367,230.84803 233.23825,221.89561 241.24127,214.42297 C 241.48719,210.93805 240.29236,207.59027 237.35221,206.49486 C 235.71249,205.88396 233.39923,207.79443 233.97278,210.99152 C 228.45027,207.51002 218.6629,201.8072 213.16842,211.62338 z" />
        <path
           id="path2454"
           style="fill:none;fill-rule:evenodd;stroke:#000000;stroke-width:2.09596896;stroke-linecap:round;stroke-linejoin:round;stroke-miterlimit:4;stroke-dasharray:none;stroke-opacity:1"
           d="M 239.69173,318.5329 C 240.78754,325.847 243.01771,333.5031 233.53759,337.62857 C 222.12869,341.35058 216.69362,348.01265 217.21704,357.60724 C 221.01867,389.25417 269.05896,404.99922 295.22985,428.60538" />
        <path
           id="path2456"
           style="fill:none;fill-rule:evenodd;stroke:#000000;stroke-width:2.09596896;stroke-linecap:round;stroke-linejoin:round;stroke-miterlimit:4;stroke-dasharray:none;stroke-opacity:1"
           d="M 205.34621,293.33737 C 185.51003,315.39795 186.99811,321.71696 189.29006,327.44255 C 190.21243,319.74653 195.79222,312.44066 203.26765,307.66382 C 205.9085,302.84195 208.54936,298.76609 211.19022,294.68269 C 194.57743,320.46231 199.77464,320.59608 202.1553,330.11116 C 206.8027,304.29529 214.7494,301.15854 221.72103,294.76267 C 208.63271,311.33415 212.41304,318.79964 214.93036,324.26102 C 216.11657,310.68021 222.81588,293.87248 231.37292,292.29603" />
        <path
           id="path2458"
           style="fill:none;fill-rule:evenodd;stroke:#000000;stroke-width:2.09596896;stroke-linecap:round;stroke-linejoin:round;stroke-miterlimit:4;stroke-dasharray:none;stroke-opacity:1"
           d="M 422.44327,306.24543 C 413.06047,293.13457 401.96828,289.14431 389.9517,285.72569" />
        <path
           id="path2460"
           style="fill:none;fill-rule:evenodd;stroke:#000000;stroke-width:2.09596896;stroke-linecap:round;stroke-linejoin:round;stroke-miterlimit:4;stroke-dasharray:none;stroke-opacity:1"
           d="M 385.24898,297.24357 C 402.29315,300.52282 407.9181,307.99376 415.16191,318.78139 C 420.75909,329.59058 424.67342,335.99246 428.61596,341.80489 L 428.61596,341.80489" />
        <path
           id="path2462"
           style="fill:none;fill-rule:evenodd;stroke:#000000;stroke-width:2.09596896;stroke-linecap:round;stroke-linejoin:round;stroke-miterlimit:4;stroke-dasharray:none;stroke-opacity:1"
           d="M 354.76992,317.23958 C 387.46847,297.12592 402.52571,321.36858 414.75815,349.28536" />
        <path
           id="path2464"
           style="fill:none;fill-rule:evenodd;stroke:#000000;stroke-width:2.09596896;stroke-linecap:round;stroke-linejoin:round;stroke-miterlimit:4;stroke-dasharray:none;stroke-opacity:1"
           d="M 336.62754,349.43846 C 367.33694,306.57122 394.1419,328.2692 403.23803,355.30301" />
        <path
           id="path2466"
           style="fill:none;fill-rule:evenodd;stroke:#000000;stroke-width:2.09596896;stroke-linecap:round;stroke-linejoin:round;stroke-miterlimit:4;stroke-dasharray:none;stroke-opacity:1"
           d="M 340.41651,353.88117 C 348.97307,346.19776 363.77195,337.9696 372.07588,339.19177 C 385.73958,342.00063 388.98381,350.44663 392.49504,358.69059" />
        <path
           id="path2468"
           style="fill:none;fill-rule:evenodd;stroke:#000000;stroke-width:2.09596896;stroke-linecap:round;stroke-linejoin:round;stroke-miterlimit:4;stroke-dasharray:none;stroke-opacity:1"
           d="M 340.56076,363.43799 C 342.54446,358.5975 358.8328,351.29584 368.78515,352.36807 C 377.20642,354.38641 379.77698,358.71964 384.40678,363.27537" />
        <path
           id="path2470"
           style="fill:none;fill-rule:evenodd;stroke:#000000;stroke-width:2.09596896;stroke-linecap:round;stroke-linejoin:round;stroke-miterlimit:4;stroke-dasharray:none;stroke-opacity:1"
           d="M 339.83607,369.13184 C 353.97174,362.86562 367.20211,364.75747 374.54271,369.20957" />
        <path
           id="path2472"
           style="fill:none;fill-rule:evenodd;stroke:#000000;stroke-width:2.09596896;stroke-linecap:round;stroke-linejoin:round;stroke-miterlimit:4;stroke-dasharray:none;stroke-opacity:1"
           d="M 344.30579,382.17519 C 360.78401,375.28955 370.3442,379.05273 381.89445,388.19099" />
        <path
           id="path2474"
           style="fill:none;fill-rule:evenodd;stroke:#000000;stroke-width:2.09596896;stroke-linecap:round;stroke-linejoin:round;stroke-miterlimit:4;stroke-dasharray:none;stroke-opacity:1"
           d="M 340.78682,390.7747 C 348.62551,390.34713 357.6921,394.03658 364.45463,396.48368" />
        <path
           id="path2476"
           style="fill:none;fill-rule:evenodd;stroke:#000000;stroke-width:2.09596896;stroke-linecap:round;stroke-linejoin:round;stroke-miterlimit:4;stroke-dasharray:none;stroke-opacity:1"
           d="M 336.80375,398.76713 C 345.93656,400.72837 360.0365,406.76534 367.88832,413.391" />
        <path
           id="path2478"
           style="fill:none;fill-rule:evenodd;stroke:#000000;stroke-width:2.09596896;stroke-linecap:round;stroke-linejoin:round;stroke-miterlimit:4;stroke-dasharray:none;stroke-opacity:1"
           d="M 336.67923,409.5764 C 343.68998,411.25576 350.48533,412.36198 355.28341,417.22907 L 355.28341,417.22907 L 354.94106,417.44329" />
        <path
           id="path2480"
           style="fill:none;fill-rule:evenodd;stroke:#000000;stroke-width:2.09596896;stroke-linecap:round;stroke-linejoin:round;stroke-miterlimit:4;stroke-dasharray:none;stroke-opacity:1"
           d="M 330.95743,416.61068 C 335.73445,417.39341 341.63865,419.81525 346.34132,426.15933" />
        <path
           id="path2482"
           style="fill:none;fill-rule:evenodd;stroke:#000000;stroke-width:2.09596896;stroke-linecap:round;stroke-linejoin:round;stroke-miterlimit:4;stroke-dasharray:none;stroke-opacity:1"
           d="M 340.44835,333.37612 C 336.99324,261.89293 393.32828,250.48622 430.90591,301.30728 L 430.90591,301.30728" />
        <path
           id="path2484"
           style="fill:#fcef3c;fill-opacity:1;fill-rule:evenodd;stroke:#000000;stroke-width:2.09596896000000000;stroke-linecap:round;stroke-linejoin:round;stroke-miterlimit:4;stroke-dasharray:none;stroke-opacity:1"
           d="M 342.30719,327.21079 C 348.18207,313.31165 349.86967,298.22863 372.46577,287.85406 C 390.78003,280.6967 409.31089,281.08203 421.66819,277.78925 C 444.98163,267.54725 442.84819,266.19111 448.64768,257.33397 C 451.59155,280.67747 434.33715,286.07894 419.08567,291.55341 C 404.84187,294.05491 392.01444,294.47727 375.21272,301.37994 C 357.97057,310.49955 353.54733,322.57016 345.20022,333.73746" />
        <path
           id="path2486"
           style="fill:none;fill-rule:evenodd;stroke:#000000;stroke-width:2.09596896;stroke-linecap:round;stroke-linejoin:round;stroke-miterlimit:4;stroke-dasharray:none;stroke-opacity:1"
           d="M 344.66831,328.59253 C 348.66268,321.69016 353.95997,307.20386 363.0013,299.972 C 373.44571,292.34361 384.96012,289.98393 396.68558,288.66331 C 421.99398,284.65934 427.06736,281.97643 430.31041,279.41301" />
        <path
           id="path2488"
           style="fill:none;fill-rule:evenodd;stroke:#000000;stroke-width:2.09596896;stroke-linecap:round;stroke-linejoin:round;stroke-miterlimit:4;stroke-dasharray:none;stroke-opacity:1"
           d="M 321.84776,413.95447 C 313.03575,404.13559 291.72127,392.22757 281.07888,385.72314" />
        <path
           id="path2490"
           style="fill:none;fill-rule:evenodd;stroke:#000000;stroke-width:2.09596896;stroke-linecap:round;stroke-linejoin:round;stroke-miterlimit:4;stroke-dasharray:none;stroke-opacity:1"
           d="M 323.3282,429.5125 C 309.03251,419.2337 290.3654,403.7529 272.88656,393.27932" />
        <path
           id="path2492"
           style="fill:none;fill-rule:evenodd;stroke:#000000;stroke-width:2.09596896;stroke-linecap:round;stroke-linejoin:round;stroke-miterlimit:4;stroke-dasharray:none;stroke-opacity:1"
           d="M 275.05209,371.14311 C 287.19537,376.80349 299.4551,384.76943 313.24473,395.19996" />
        <path
           id="path2494"
           style="fill:none;fill-rule:evenodd;stroke:#000000;stroke-width:2.09596896;stroke-linecap:round;stroke-linejoin:round;stroke-miterlimit:4;stroke-dasharray:none;stroke-opacity:1"
           d="M 276.46389,358.64572 C 282.65814,362.42024 297.27501,371.75922 305.32337,377.63841" />
        <path
           id="path2496"
           style="fill:none;fill-rule:evenodd;stroke:#000000;stroke-width:2.09596896;stroke-linecap:round;stroke-linejoin:round;stroke-miterlimit:4;stroke-dasharray:none;stroke-opacity:1"
           d="M 275.00227,347.17396 C 286.43918,354.14712 296.4075,360.78221 306.30095,367.40005" />
        <path
           id="path2498"
           style="fill:none;fill-rule:evenodd;stroke:#000000;stroke-width:2.09596896;stroke-linecap:round;stroke-linejoin:round;stroke-miterlimit:4;stroke-dasharray:none;stroke-opacity:1"
           d="M 318.06517,440.26649 C 304.87438,427.35933 290.83611,418.13351 276.95671,408.21761" />
        <path
           id="path2500"
           style="fill:none;fill-rule:evenodd;stroke:#000000;stroke-width:2.09596896;stroke-linecap:round;stroke-linejoin:round;stroke-miterlimit:4;stroke-dasharray:none;stroke-opacity:1"
           d="M 265.13559,237.24476 C 283.64372,270.03434 255.35543,281.94358 248.34077,302.99984 C 245.92555,310.24976 246.39626,318.08801 254.40569,323.459" />
        <path
           id="path3179"
           style="fill:none;fill-rule:evenodd;stroke:#000000;stroke-width:2.09596896;stroke-linecap:round;stroke-linejoin:round;stroke-miterlimit:4;stroke-dasharray:none;stroke-opacity:1"
           d="M 206.05769,280.47861 C 206.82802,265.52747 223.43606,269.19273 230.67152,249.80599" />
      </g>
    </g>
  </g>
  <g
     inkscape:groupmode="layer"
     id="layer2"
     inkscape:label="Reflet final"
     style="display:inline"
     sodipodi:insensitive="true">
    <g
       id="g3046"
       inkscape:label="Calque 1"
       transform="translate(-74.999965,-202.36231)">
      <path
         d="M 76.499965,203.86205 L 76.499965,721.35338 C 76.499965,759.85787 107.70307,791.10791 146.14997,791.10791 C 184.59677,791.10791 266.90317,791.10791 305.34996,791.10791 C 343.79688,791.10781 375,822.35785 375,860.86231 C 375,822.35785 406.20314,791.10791 444.64994,791.10791 C 483.09683,791.10781 565.40323,791.10791 603.85004,791.10791 C 642.29683,791.10791 673.50004,759.85787 673.50004,721.35338 L 673.50004,203.86205 L 76.499965,203.86205 z"
         style="fill:url(#radialGradient11919);fill-opacity:1;fill-rule:evenodd;stroke:none;stroke-width:3.00000024;stroke-linecap:butt;stroke-linejoin:miter;stroke-miterlimit:4;stroke-dasharray:none;stroke-opacity:1;display:inline"
         id="path2875" />
    </g>
  </g>
  <g
     inkscape:groupmode="layer"
     id="layer1"
     inkscape:label="Contour final"
     sodipodi:insensitive="true">
    <g
       id="g3209"
       inkscape:label="Calque 1"
       transform="translate(-74.999944,-202.36234)">
      <path
         sodipodi:nodetypes="cssccccssc"
         d="M 374.99998,860.86234 C 374.99998,822.35824 406.20317,791.10862 444.64998,791.10862 C 483.09679,791.10862 565.40315,791.10862 603.84996,791.10862 C 642.29676,791.10862 673.50005,759.859 673.50005,721.355 L 673.50005,203.86202 L 76.499955,203.86204 L 76.499945,721.355 C 76.499945,759.859 107.70316,791.10862 146.14996,791.10862 C 184.59679,791.10862 266.90317,791.10862 305.34998,791.10862 C 343.79678,791.10862 374.99998,822.35824 374.99998,860.86234 z"
         style="fill:none;fill-opacity:1;fill-rule:nonzero;stroke:#000000;stroke-width:3.00000191;stroke-linecap:round;stroke-linejoin:round;stroke-miterlimit:4;stroke-dasharray:none;stroke-dashoffset:0;stroke-opacity:1;display:inline"
         id="path1572" />
    </g>
  </g>
</svg>
