<?xml version="1.0" encoding="UTF-8" standalone="no"?>
<svg
   xmlns:dc="http://purl.org/dc/elements/1.1/"
   xmlns:cc="http://creativecommons.org/ns#"
   xmlns:rdf="http://www.w3.org/1999/02/22-rdf-syntax-ns#"
   xmlns:svg="http://www.w3.org/2000/svg"
   xmlns="http://www.w3.org/2000/svg"
   xmlns:xlink="http://www.w3.org/1999/xlink"
   xmlns:sodipodi="http://sodipodi.sourceforge.net/DTD/sodipodi-0.dtd"
   xmlns:inkscape="http://www.inkscape.org/namespaces/inkscape"
   height="660"
   width="600"
   version="1.0"
   id="svg2"
   sodipodi:version="0.32"
   inkscape:version="0.91 r13725"
   sodipodi:docname="Blason de la ville de Harricourt (Ardennes).svg"
   inkscape:output_extension="org.inkscape.output.svg.inkscape">
  <metadata
     id="metadata49">
    <rdf:RDF>
      <cc:Work
         rdf:about="">
        <dc:format>image/svg+xml</dc:format>
        <dc:type
           rdf:resource="http://purl.org/dc/dcmitype/StillImage" />
        <dc:title />
        <dc:date>03-AUG-2006</dc:date>
        <dc:creator>
          <cc:Agent>
            <dc:title>Jérôme BLUM (wagner51)</dc:title>
          </cc:Agent>
        </dc:creator>
        <cc:license
           rdf:resource="http://web.resource.org/cc/PublicDomain" />
        <dc:language>fr</dc:language>
        <dc:subject>
          <rdf:Bag>
            <rdf:li>gabarit modèle blason projet wikipédia</rdf:li>
          </rdf:Bag>
        </dc:subject>
        <dc:rights>
          <cc:Agent>
            <dc:title />
          </cc:Agent>
        </dc:rights>
        <dc:publisher>
          <cc:Agent>
            <dc:title />
          </cc:Agent>
        </dc:publisher>
        <dc:identifier />
        <dc:source />
        <dc:relation />
        <dc:coverage />
        <dc:description />
        <dc:contributor>
          <cc:Agent>
            <dc:title />
          </cc:Agent>
        </dc:contributor>
      </cc:Work>
      <cc:License
         rdf:about="http://web.resource.org/cc/PublicDomain">
        <cc:permits
           rdf:resource="http://web.resource.org/cc/Reproduction" />
        <cc:permits
           rdf:resource="http://web.resource.org/cc/Distribution" />
        <cc:permits
           rdf:resource="http://web.resource.org/cc/DerivativeWorks" />
      </cc:License>
    </rdf:RDF>
  </metadata>
  <sodipodi:namedview
     inkscape:window-height="1001"
     inkscape:window-width="1920"
     inkscape:pageshadow="2"
     inkscape:pageopacity="0.0"
     guidetolerance="10.0"
     gridtolerance="10.0"
     objecttolerance="10.0"
     borderopacity="1.0"
     bordercolor="#666666"
     pagecolor="#ffffff"
     id="base"
     showgrid="false"
     height="660px"
     inkscape:zoom="0.81638692"
     inkscape:cx="-249.44654"
     inkscape:cy="489.71905"
     inkscape:window-x="-4"
     inkscape:window-y="-4"
     inkscape:current-layer="layer2"
     inkscape:window-maximized="1" />
  <desc
     id="desc4">Flag of Canton of Valais (Wallis)</desc>
  <defs
     id="defs6">
    <linearGradient
       id="linearGradient2893">
      <stop
         style="stop-color:white;stop-opacity:0.3137255;"
         offset="0"
         id="stop2895" />
      <stop
         id="stop2897"
         offset="0.19"
         style="stop-color:white;stop-opacity:0.25098041;" />
      <stop
         style="stop-color:#6b6b6b;stop-opacity:0.1254902;"
         offset="0.60000002"
         id="stop2901" />
      <stop
         style="stop-color:black;stop-opacity:0.1254902;"
         offset="1"
         id="stop2899" />
    </linearGradient>
    <radialGradient
       inkscape:collect="always"
       xlink:href="#linearGradient2893"
       id="radialGradient11919"
       gradientUnits="userSpaceOnUse"
       gradientTransform="matrix(1.551284,0,0,1.350335,-227.8943,-51.2635)"
       cx="285.18573"
       cy="200.44757"
       fx="285.18573"
       fy="200.44757"
       r="300" />
  </defs>
  <g
     inkscape:groupmode="layer"
     id="layer1"
     inkscape:label="Fond écu"
     style="display:inline">
    <path
       id="path2014"
       style="fill:#2b5df2;fill-opacity:1;fill-rule:nonzero;stroke:none"
       d="m 300.00004,658.49936 c 0,-38.50406 31.20317,-69.75366 69.64996,-69.75366 38.4468,0 120.75314,0 159.19992,0 38.4468,0 69.65008,-31.24958 69.65008,-69.75355 l 0,-517.4924903 -596.9998799,1.99e-5 -9.9e-6,517.4924704 c 0,38.50397 31.2031988,69.75355 69.6499938,69.75355 38.446806,0 120.753156,0 159.199956,0 38.44679,0 69.64998,31.2496 69.64998,69.75366 z"
       sodipodi:nodetypes="cssccccssc"
       inkscape:connector-curvature="0" />
    <path
       id="path7346"
       style="fill:none;stroke:#000000;stroke-width:3.00000191;stroke-linecap:round;stroke-linejoin:round;stroke-miterlimit:4;stroke-opacity:1;stroke-dasharray:none;stroke-dashoffset:0"
       d="m 300.00003,658.5 c 0,-38.5041 31.20319,-69.75372 69.65,-69.75372 38.44681,0 120.75318,0 159.19998,0 38.4468,0 69.6501,-31.24962 69.6501,-69.75362 l 0,-517.4929791 L 1.5000099,1.4997008 1.5,518.99266 c 0,38.504 31.20321,69.75362 69.650019,69.75362 38.446821,0 120.753201,0 159.200011,0 38.44681,0 69.65,31.24962 69.65,69.75372 z"
       sodipodi:nodetypes="cssccccssc" />
  </g>
  <g
     inkscape:groupmode="layer"
     id="layer2"
     inkscape:label="Meubles"
     style="display:inline">
    <text
       sodipodi:linespacing="125%"
       id="text3390-8"
       y="-277.89795"
       x="-864.9635"
       style="color:#000000;font-style:normal;font-variant:normal;font-weight:normal;font-stretch:normal;font-size:22px;line-height:125%;font-family:Constantia;-inkscape-font-specification:Constantia;text-indent:0;text-align:start;text-decoration:none;text-decoration-line:none;letter-spacing:0px;word-spacing:0px;text-transform:none;direction:ltr;block-progression:tb;writing-mode:lr-tb;baseline-shift:baseline;text-anchor:start;display:inline;overflow:visible;visibility:visible;fill:#000000;fill-opacity:1;fill-rule:nonzero;stroke:none;stroke-width:1px;stroke-miterlimit:4;stroke-dasharray:none;stroke-opacity:1;marker:none;enable-background:accumulate"
       xml:space="preserve"><tspan
         id="tspan3438-6"
         y="-277.89795"
         x="-864.9635"
         sodipodi:role="line" /></text>
    <flowRoot
       xml:space="preserve"
       id="flowRoot4915"
       style="fill:black;stroke:none;stroke-opacity:1;stroke-width:1px;stroke-linejoin:miter;stroke-linecap:butt;fill-opacity:1;font-family:sans-serif;font-style:normal;font-weight:normal;font-size:40px;line-height:125%;letter-spacing:0px;word-spacing:0px"><flowRegion
         id="flowRegion4917"><rect
           id="rect4919"
           width="214.80315"
           height="50.236221"
           x="711.96851"
           y="459.05511" /></flowRegion><flowPara
         id="flowPara4921" /></flowRoot>    <g
       id="layer1-7"
       inkscape:label="Calque 1"
       transform="translate(5.5063718e-5,-392.36219)"
       style="fill:#ffffff">
      <g
         transform="matrix(1.0025063,0,0,1.0025063,998.49248,390.8586)"
         inkscape:label="Fond écu"
         id="g3483"
         style="fill:#ffffff;stroke:#000000;stroke-width:2.99249983;stroke-linejoin:round">
        <g
           id="g13643"
           style="fill:#ffffff">
          <path
             style="display:inline;fill:#ffffff;stroke:#000000;stroke-width:2.99250174;stroke-linecap:round;stroke-linejoin:round;stroke-miterlimit:4;stroke-dasharray:none;stroke-dashoffset:0;stroke-opacity:1"
             d="m -994.49996,2.9960776 0,110.0990624 c 161.18582,158.55599 322.35228,317.12681 483.5381,475.68279 l 42.48732,0 c 38.35068,0 69.48205,-31.16788 69.48205,-69.57562 l 0,-43.51593 -480.5456,-472.6903024 -114.96187,0 z"
             id="path13437"
             inkscape:connector-curvature="0" />
        </g>
      </g>
      <g
         transform="matrix(1.0025063,0,0,1.0025063,998.49248,390.8586)"
         inkscape:label="Meubles"
         id="g3486"
         style="fill:#ffffff;stroke:#000000;stroke-width:2.99249983;stroke-linejoin:round" />
      <g
         transform="matrix(1.0025063,0,0,1.0025063,998.49248,390.8586)"
         inkscape:label="Reflet final"
         id="g3488"
         style="fill:#ffffff;stroke:#000000;stroke-width:2.99249983;stroke-linejoin:round" />
      <g
         transform="matrix(1.0025063,0,0,1.0025063,998.49248,390.8586)"
         inkscape:label="Contour final"
         id="g3490"
         style="fill:#ffffff;stroke:#000000;stroke-width:2.99249983;stroke-linejoin:round" />
    </g>
    <g
       id="g5229"
       transform="translate(0.70498817,11.127135)">
      <g
         transform="matrix(0.88037728,-0.27255037,0.27255037,0.88037728,-875.04703,203.5397)"
         id="g5217">
        <path
           style="fill:#000000;stroke:none;stroke-opacity:1"
           d="m 1166.7503,427.04296 c 2.389,-0.46376 6.5377,-2.01197 7.8418,-2.10547 2.225,-0.15951 4.5692,1.02225 6.7031,1.16602 1.9651,0.13241 3.9862,-2.22528 5.9571,-3.26954 2.0189,-1.06966 2.2805,-0.0614 4.1542,-1.18554 0,2.17519 -3.8476,2.11262 -5.5468,2.90234 -10.1563,4.72002 -19.1295,7.47962 -14.4512,17.78906 1.5149,-5.03656 6.6905,-8.10529 14.0781,-9.13281 3.1988,-0.44489 5.5154,-1.40052 8.0059,-1.85156 3.0915,2.39177 5.7057,4.82471 5.3972,8.85595 -2.6272,7.76555 -7.1855,15.50245 -10.9896,17.88473 l -0.3965,0.34375 c 1.0231,1.00837 1.9708,1.48919 2.79,1.07076 -2.5115,3.54489 -7.8844,7.98445 -12.641,8.46787 -3.4557,0.34288 -6.8237,2.81707 -9.068,6.37899 l 1.1972,0.0879 c 2.039,-0.5894 6.7319,-0.50581 8.694,0.37534 -3.1964,1.5309 -9.2678,3.83952 -13.111,4.32294 -4.3548,1.72683 -8.058,3.43147 -10.4395,5.16216 -1.8315,1.42089 -5.0099,6.16483 -8.2216,8.99243 -3.0885,2.71954 -6.1787,3.64092 -9.9257,5.17978 5.176,1.0552 11.8866,1.21946 13.458,-0.70081 0.6325,-0.77296 6.4715,-3.05131 9.3775,-4.04325 0.9174,-0.31313 2.3846,-0.0387 2.4613,-0.008 0.5687,-0.36099 -3.3463,0.8998 -6.7656,2.21781 -2.5994,0.77157 -4.4509,1.88843 -5.8159,3.92002 -2.3473,3.53784 -4.7357,7.55877 -6.9251,11.21623 -4.2779,4.38609 -7.5699,4.50568 -13,3.21848 3.2786,5.1844 9.495,6.32849 14.4239,4.07801 l -0.5678,1.34051 c -0.1249,0.29487 1.5411,-0.41909 2.1126,-0.86158 2.9226,-1.63248 7.4954,-7.02281 10.1104,-9.16378 -0.2109,2.06778 -0.6832,4.0229 -0.5583,5.90831 0.6787,10.2505 -0.4389,16.94887 -4.1907,24.99875 l 5.2258,-4.98931 c 2.6545,-2.39878 4.0623,-4.90552 4.4922,-7.31836 0.1398,-0.78504 0.1205,-1.46919 0.1367,-2.17578 0.593,-0.9092 1.6749,-4.2472 2.0496,-5.11468 4.9618,4.41866 8.9586,6.74832 11.4791,10.32195 3.1934,3.67368 2.8363,3.3999 5.1981,7.69995 l 0.6198,-5.80768 c 0.023,-1.90091 -2.7286,-6.41304 -3.973,-8.74762 -0.2335,-0.43802 -2.8638,-7.6895 -2.9629,-7.94258 0.5426,-0.94084 3.0049,7.16175 3.5464,7.80549 1.3416,1.59517 4.3267,3.74463 4.4792,3.81555 3.9141,1.83407 8.4008,4.73092 10.8598,6.80697 3.914,3.77959 3.8618,4.68282 5.866,9.75446 l 1.7587,-4.30632 c 1.5857,-3.56331 -0.3703,-6.62919 -1.6257,-9.53284 0.4062,0.21594 0.1986,-2.16581 0.6098,-1.74618 1.3981,1.42671 6.5288,4.02356 8.4912,5.00008 4.053,2.01682 7.6655,3.21956 11.0188,7.9966 l 4.3153,4.41855 c 2.1698,-10.3041 -5.1933,-17.98114 -9.2474,-20.70212 5.9224,0.89001 12.3599,4.54055 20.7272,1.69594 -3.3488,-1.06127 -5.7979,-2.68434 -8.3509,-3.53097 -10.1178,-3.35526 -12.6497,-7.78826 -15.105,-9.37949 6.2176,3.56446 16.4518,8.30914 16.4348,6.63684 l -7.3569,-7.2628 c 4.4988,1.46362 9.415,5.84583 14.0605,9.18095 -0.4703,-2.50033 0.087,-7.24781 -5.758,-10.7325 -3.0644,-4.05897 -5.7253,-9.01829 -6.4631,-13.48709 3.3356,1.57944 0.8875,-13.04729 2.3055,-19.93241 0.6469,1.1279 2.3967,0.99074 4.4516,1.03095 -2.6235,-7.81639 -3.51,-15.29182 -0.695,-24.91891 0.9894,0.68484 2.3985,0.84658 3.5782,0.68554 -1.7757,-3.66685 -3.5966,-7.94073 -3.8633,-12.01953 -0.547,-1.61544 -0.1936,-2.87434 0.2029,-3.9619 1.8505,-9.02718 7.34,-17.60434 3.8704,-27.40524 11.2635,-3.18243 17.8312,-8.66856 22.1692,-17.85325 -5.8221,5.76062 -11.4539,5.03557 -18.0371,3.0214 -5.5556,-1.6517 -8.2758,-2.15802 -12.1572,-0.7885 2.4734,-1.20849 5.9744,-5.01513 9.6655,-10.73539 -6.3548,3.06146 -12.8434,5.40648 -16.9531,4.84262 -4.6804,-0.68485 -3.8718,-0.24809 -9.5705,-0.81767 -5.7558,-1.97686 -11.9482,-1.81521 -14.626,0.76317 -0.3186,0.40302 -2.3741,1.40163 -2.9449,2.633 -2.3242,-0.9692 -7.0668,0.95679 -8.7324,3.0957 -0.038,0.36244 -1.2943,0.96627 -1.5606,1.04688 -4.2287,1.11296 -12.4117,-3.70013 -16.1972,1.0332 -2.8718,3.59082 -1.5122,9.50465 0.9433,16.50586 0.7241,-3.27483 2.0204,-5.39209 4.8145,-6.14844 5.4497,-1.47521 9.5531,4.67939 12.8379,4.92383 1.7886,0.12081 3.0483,1.15457 5.3554,1.3125 1.8461,0.12636 -0.016,-1.32972 2.2286,0.73633 -6.0632,0.27219 -5.8333,1.91914 -9.2403,2.95312 -1.4896,0.45204 -6.0522,-0.57904 -7.7754,0.20313 -7.112,3.2282 -9.4476,3.92263 -15.4959,1.40282 -1.477,-0.79899 -3.0778,-1.08518 -4.6152,-1.24838 -4.3302,-0.45052 -8.9954,0.22081 -12.4444,5.76692 7.3061,-2.6184 10.4378,-3.56455 15.6371,-0.14029 3.4897,2.23959 7.3295,3.04031 12.1743,2.09979 z"
           id="path5200"
           inkscape:connector-curvature="0"
           sodipodi:nodetypes="cssccccscccccccccccccssccccccsccsccccccccscscccccssccccscccccccccccccccccccccccscscsccsccccsc" />
        <g
           id="g5190"
           transform="translate(-1000,0)">
          <path
             style="fill:#e20909;fill-opacity:1"
             d="m 2228.8262,390.17578 c -7.9434,2.88876 -12.2633,2.0047 -17.8399,1.92383 3.4628,0.80566 8.3858,1.99314 11.002,3.01172 2.5495,-0.64446 3.3371,-1.9425 6.8379,-4.93555 z m -32.2715,0.48047 c -1.7953,0.0768 -3.3029,0.74072 -4.5586,2.59375 -0.9894,1.40992 -2.5414,1.7847 -2.8457,4.12109 -0.3807,2.94063 0.3054,6.10527 1.0664,8.24024 0.6469,1.85313 1.1672,3.71927 3.6406,5.25 2.5876,1.61132 3.5841,3.01598 5.291,5.14453 1.628,2.03005 2.0168,4.09009 3.9102,7.11133 1.0561,2.19544 -0.077,0.11268 -2.0078,3.38867 -1.4642,2.48413 -3.3295,2.31909 -4.8516,3.32617 -0.8749,1.6084 5.6301,4.5371 5.6465,9.59961 -3.1164,9.92899 -7.9064,15.81913 -11.293,18.75977 0.9894,0.40283 1.9715,0.43463 2.8848,0.27343 -3.9956,2.6184 -6.1611,8.78679 -12.8203,9.95508 -3.4628,0.56402 -6.4252,1.00954 -9.2031,4.4336 3.8052,0.28201 7.6117,0.53164 11.3789,0.77343 -3.8433,2.37661 -9.3651,5.55373 -14.5782,6.35938 -6.1265,0.96689 -11.4171,4.18583 -12.8632,5.91797 -3.9193,4.75338 -9.1387,10.55991 -13.5528,12.13086 6.2787,0.36261 7.456,-2.29884 10.7285,-5.52149 2.9682,-2.90043 7.5529,-4.66887 12.1954,-4.83008 4.6043,-0.16102 9.3138,-0.97586 12.9668,-3.51367 -2.1689,3.90733 -8.4168,3.862 -12.7168,4.22461 -6.2406,0.56386 -10.6432,3.54394 -12.5079,5.96094 4.1098,-1.0473 7.8058,-3.66231 12.2579,-3.13867 -0.7611,3.66571 -4.9273,5.11045 -7.7813,5.27148 -2.5876,0.12081 -5.9339,3.03146 -7.3418,5.73047 -4.1479,7.89561 -9.1906,14.94074 -14.9746,14.57813 7.0778,3.54488 12.4719,-2.53707 16.125,-7.04883 3.7672,-4.59235 9.0639,-7.37525 13.9727,-5.5625 -10.7309,-0.24181 -13.9829,7.04852 -18.9297,13.05078 3.7477,-3.04639 7.5984,-9.9714 12.3281,-9.49024 -1.4146,3.37115 -1.9729,6.45856 -1.8301,7.92774 0.6336,6.12811 1.1031,13.92169 -0.8769,18.16797 4.6661,-4.2166 3.599,-6.92472 3.6015,-11.51758 0.018,-4.14996 1.9748,-8.65489 5.1192,-12.07422 -1.4086,3.76878 -5.0014,9.60331 -3.8536,13.41211 1.0474,-1.79262 1.7606,-3.7775 2.6231,-5.66602 1.123,1.87011 2.258,3.26933 3.0625,3.88086 4.9272,3.69836 10.9656,8.64658 12.7363,12.98438 0.076,-6.28869 -2.6372,-7.34279 -6.0058,-10.46485 -3.0328,-2.83276 -5.01,-7.33061 -5.3828,-11.96093 1.8085,3.59401 3.65,10.19417 7.2246,11.93945 -1.2337,-4.05772 -4.0134,-7.63019 -3.6934,-12.10156 3.6966,0.59305 5.33,4.6895 5.6211,7.5332 0.2388,2.57937 3.2981,5.78901 6.0586,7.07227 8.0766,3.78336 15.3445,8.49845 15.2461,14.29297 3.2183,-7.23217 -3.1016,-12.34369 -7.7754,-15.78711 -4.7596,-3.55373 -7.7822,-8.71673 -6.1953,-13.70313 0.2481,10.73078 7.6786,13.64668 13.9004,18.31445 -3.6553,-4.09948 -12.3319,-8.10279 -9.4922,-13.9082 2.2978,3.51371 8.7739,9.66294 10.4668,11.41406 3.9755,4.0467 15.2472,5.24911 22.709,15.87891 0.4381,-7.18135 -3.1864,-11.3992 -7.8536,-13.81445 -6.7328,-3.50177 -15.2556,-5.63449 -15.166,-11.61914 1.6657,4.68551 10.8391,8.43559 15.9805,10.63867 -2.2839,-3.20976 -16.5439,-8.73235 -11.9668,-14.46485 4.6547,7.44398 8.4647,11.37844 26.8086,13.05469 -7.4469,-3.2406 -12.427,-4.52696 -14.4785,-6.18555 -3.7974,-1.63432 -9.1052,-9.51632 -9.4688,-13.96289 2.699,4.27603 7.5991,7.93802 18.4825,12.51758 -6.1185,-5.34058 -10.4757,-8.07218 -11.9297,-10.27344 -1.4708,-2.20506 -1.8255,-3.55769 -1.5235,-5.30664 0.1057,-0.10959 0.2081,-0.22293 0.3164,-0.33007 2.3321,3.81369 5.2185,6.58941 6.7598,7.35937 5.528,2.7196 12.3808,6.4627 14.9258,10.39648 -1.0925,-6.19353 -3.9543,-6.72733 -7.8438,-9.16992 -3.5059,-2.22065 -6.282,-6.27323 -7.5078,-10.7539 2.4442,3.1959 5.478,9.33912 9.3145,10.39062 -1.9654,-3.75824 -5.3596,-6.75201 -5.875,-11.20508 l -0.6446,-4.00586 -0.6113,0.17579 c -0.689,-3.38363 -1.115,-7.10086 0,-10.70899 -0.038,3.74631 0.7608,11.42309 3.1582,10.41602 -0.8753,-6.72733 -1.54,-13.84937 0.8574,-20.4961 0.7229,0.80565 1.7508,1.56459 2.7402,2.00782 -1.3319,-6.7677 -2.8059,-13.72098 -0.9414,-20.28711 0.685,-2.53781 -0.5344,-3.79035 -0.6484,-8.26172 0.723,1.2085 1.6748,1.88323 2.7402,2.44726 -1.1415,-3.70608 -4.2248,-8.69239 -2.7812,-12.15234 3.8811,-9.30173 7.7869,-19.48312 4.8925,-27.06445 -3.6531,0.68484 -12.1269,2.08993 -14.4101,-1.77735 -1.1036,-1.93356 -2.7666,-2.62973 -4.9356,-2.99219 1.7123,-1.16827 4.8237,-0.80106 6.4219,2.30079 0.4185,0.76544 0.471,1.25665 2.9063,1.29687 15.982,0.28201 23.0565,-6.29757 29.4492,-11.8164 -4.7946,1.40991 -8.1219,0.2012 -13.4492,-1.0879 -5.9742,-1.40991 -11.8683,-0.2004 -17.6524,2.74024 -1.6743,0.80567 -3.733,0.39648 -5.5215,0.39648 0.723,-1.89333 7.0091,-2.76753 9.5586,-4.05664 -5.1149,-3.0738 -10.6481,-3.7957 -14.3476,-4.93554 -0.9515,0.0404 -3.6451,-0.95236 -4.3301,-1.23438 -2.393,-0.47543 -4.4586,-0.97721 -6.2539,-0.90039 z m 1.4648,4.53906 c 0.6487,-0.0151 1.4538,0.012 2.5098,0.125 3.653,0.56987 6.3761,1.95708 9.4102,2.63672 -2.5495,0.63295 -5.148,-0.0202 -9.1817,-0.71094 -6.6211,-0.79844 -6.7368,1.57353 -8.4492,2.92774 -0.278,-2.74866 -0.09,-3.4244 1.5488,-4.20508 1.4579,-0.69452 2.2161,-0.7281 4.1621,-0.77344 z m 0.25,2.48828 c 4.1354,0.9827 5.2495,1.27806 10.0821,1.67383 -1.2937,0.72506 -3.1449,1.16283 -4.4356,1.56836 -1.2582,1.19854 -2.0847,3.26578 -3.5332,4.03711 -2.5646,1.36576 -5.6396,-0.32888 -6.1699,-3.66016 0.1963,-2.80582 1.0884,-3.49833 4.0566,-3.61914 z m 41.7461,3.95313 c 0.2859,-0.0152 0.5651,-0.0125 0.8574,0 0.3342,0.0143 0.6615,0.0451 1.004,0.10547 -3.9956,1.97377 -7.9554,1.86767 -12.6739,1.46484 -3.0442,2.90042 -7.1364,1.60304 -6.7558,5.22852 -7.9911,-0.80567 -7.0911,-5.46634 5.9609,-6.19141 1.7885,-0.0806 4.1638,0.27069 6.0664,0.23047 1.6898,-0.0308 3.54,-0.73172 5.541,-0.83789 z m -12.2773,21.79492 c 1.9025,3.94789 -5.0082,8.13662 -5.541,12.00391 -0.4566,3.42407 -1.8151,7.32032 -0.293,10.54297 -2.7017,-2.699 -1.1489,-7.20368 -0.502,-10.66797 0.7229,-3.94789 7.0208,-7.76999 6.336,-11.87891 z m -7.4238,34.11133 c 1.8646,5.59925 0.61,9.67805 2.5507,16.56641 -2.9301,-6.56613 -2.2082,-10.68514 -2.5507,-16.56641 z m -19.2637,8.42969 c 0.2663,1.24889 -5.1279,4.1489 -5.166,14.70312 2.4734,0.52365 3.6826,-3.39581 4.748,-3.0332 -2.169,5.15622 -4.7488,3.37878 -7.7168,5.3125 3.6531,-3.18243 0.9048,-11.10098 8.1348,-16.98242 z m -6.8809,0.96289 c -4.1858,4.39092 -5.8636,4.90288 -11.8379,5.14453 4.1858,-1.0473 8.223,-2.72754 11.8379,-5.14453 z m 11.541,18.92773 c -1.7412,4.4915 -1.8099,4.87584 -3.8261,11.85938 4.0336,3.14206 8.1853,-1.82767 8.9082,-0.94141 -1.7123,1.89336 -7.0493,4.49885 -11.92,2.92773 2.7778,-1.49035 2.5579,-9.82596 6.8379,-13.8457 z m -27.289,5.60547 c 0.1522,1.49052 -6.0118,4.26845 -6.3164,9.78711 6.5452,1.85314 11.7929,-5.43788 12.8203,-4.91406 -5.1752,7.85521 -12.3298,6.19521 -16.4395,6.83984 3.1964,-2.86021 2.9719,-7.48315 9.9356,-11.71289 z"
             id="path5192"
             inkscape:connector-curvature="0" />
          <path
             inkscape:connector-curvature="0"
             sodipodi:nodetypes="cssscccscc"
             d="m 2198.9208,399.24635 c 0.723,0 1.332,0.68485 1.332,1.53073 0,0.84605 -0.609,1.49051 -1.332,1.49051 -0.7229,0 -1.3319,-0.64446 -1.3319,-1.49051 0,-0.84588 0.609,-1.53073 1.3319,-1.53073 z m -2.9263,2.1431 c 0.6088,1.53073 1.6423,1.69418 2.9361,2.66086 -0.9132,0.1612 -1.8792,0.34048 -2.6022,-0.50557 -0.7231,-0.84588 -0.9108,-2.23365 -0.6064,-3.24073 z"
             id="path5194"
             style="fill:#e20909;fill-opacity:1" />
          <path
             inkscape:connector-curvature="0"
             id="path5196"
             d="m 2183.3111,395.91507 c -1.6363,1.2085 -2.1508,2.49985 -1.3516,3.90975 1.2938,2.25579 4.5648,8.40494 4.5269,10.98313 -0.038,1.65155 0.1802,2.54337 1.5501,2.90599 2.3974,0.60425 1.7142,1.4735 4.5681,3.08482 1.3222,2.24445 0.5937,1.51547 2.4966,4.2174 -3.2065,3.7528 -7.3967,5.22028 -11.0155,6.6167 -5.9919,2.3122 -14.3612,4.31664 -12.0453,10.96195 1.7043,-4.75826 9.5976,-6.40893 12.7587,-6.80416 1.6216,-0.20275 5.584,-2.21431 8.2033,-3.09971 2.6062,-0.88099 4.097,-1.97989 4.6503,-2.50362 1.5574,-1.47387 2.068,-1.0456 3.2512,-3.20403 -1.5604,-2.97244 -1.8304,-3.66234 -3.0042,-5.36489 -1.1342,-1.64509 -3.6624,-5.31364 -4.4995,-5.79707 -1.9787,-1.16829 -3.3389,-2.69503 -3.9096,-4.70919 -0.7231,-2.53781 -1.9447,-6.96456 -1.9068,-10.2678 0,-1.04731 0.3447,-2.10529 -0.6447,-2.54834 -1.2811,0.30428 -2.5473,0.76148 -3.628,1.61907 z m -2.779,3.14801 c -7.4584,1.57094 -22.0772,-7.34863 -17.4977,11.30522 4.2328,-9.08956 13.4491,0.56422 20.0637,2.17524 2.8496,0.69405 3.5267,-0.28519 2.8798,-2.21875 -0.9572,-3.65793 -2.8685,-8.44188 -5.4458,-11.26171 z"
             style="fill:#e20909;fill-opacity:1"
             sodipodi:nodetypes="ccccccscssscscccccccscc" />
          <path
             inkscape:connector-curvature="0"
             sodipodi:nodetypes="cssssscssssssscsc"
             id="path5198"
             d="m 2187.7301,417.3938 c -2.8969,0 -4.3661,0.80703 -6.9411,2.24313 -2.575,1.4361 -6.3153,-0.1856 -9.8559,0.96329 -3.5407,1.14887 -7.4032,3.1594 -9.3345,2.87218 -1.9312,-0.28721 -7.0884,-2.69247 -9.0126,-2.87218 -2.1129,-0.19736 -4.6623,-0.87928 -7.725,0.28721 -1.5986,0.60888 -4.1844,2.87219 -4.1844,2.87219 0,0 2.575,-1.25636 4.5063,-1.83079 1.9312,-0.57445 3.5406,-0.75418 5.7938,0.10749 2.2531,0.86165 4.6465,1.93828 6.5777,3.08716 1.9313,1.14887 4.688,1.22113 7.263,1.22113 2.575,0 5.4719,-1.14889 8.0469,-2.29777 2.5751,-1.14887 6.9591,1.33449 9.2122,0.47283 2.2532,-0.86167 3.4661,-2.20099 5.2903,-2.88981 1.5679,-0.59207 4.9898,-1.09248 4.9898,-1.09248 0,0 -0.6716,-2.63377 -1.6683,-3.47297 -0.9967,-0.83919 -2.9582,0.32939 -2.9582,0.32939 z"
             style="fill:#e20909;fill-rule:evenodd;stroke:#000000;stroke-width:0.00190409px;stroke-linecap:butt;stroke-linejoin:miter;stroke-opacity:1" />
        </g>
      </g>
      <circle
         r="63.445801"
         cy="462.98486"
         cx="136.99455"
         id="path5225"
         style="fill:#ffffff;fill-opacity:1;stroke:#000000;stroke-width:3.10840106;stroke-linejoin:round;stroke-miterlimit:4;stroke-dasharray:none;stroke-opacity:1" />
      <circle
         style="fill:#ffffff;fill-opacity:1;stroke:#000000;stroke-width:3.10840106;stroke-linejoin:round;stroke-miterlimit:4;stroke-dasharray:none;stroke-opacity:1"
         id="circle5227"
         cx="461.59558"
         cy="110.21097"
         r="63.445801" />
    </g>
  </g>
  <g
     inkscape:groupmode="layer"
     id="layer3"
     inkscape:label="Reflet final"
     sodipodi:insensitive="true">
    <path
       id="path2875"
       style="fill:url(#radialGradient11919);fill-opacity:1;fill-rule:evenodd;stroke:none;stroke-width:3.00000024;stroke-linecap:butt;stroke-linejoin:miter;stroke-miterlimit:4;stroke-dasharray:none;stroke-opacity:1"
       d="M 1.5,1.49974 L 1.5,518.99107 C 1.5,557.49556 32.7031,588.7456 71.15,588.7456 C 109.5968,588.7456 191.9032,588.7456 230.35,588.7456 C 268.79691,588.7455 300.00003,619.99554 300.00003,658.5 C 300.00003,619.99554 331.20317,588.7456 369.64997,588.7456 C 408.09687,588.7455 490.40327,588.7456 528.85007,588.7456 C 567.29687,588.7456 598.50007,557.49556 598.50007,518.99107 L 598.50007,1.49974 L 1.5,1.49974 z " />
  </g>
  <g
     inkscape:groupmode="layer"
     id="layer4"
     inkscape:label="Contour final"
     sodipodi:insensitive="true">
    <path
       id="path1572"
       style="fill:none;fill-opacity:1;fill-rule:nonzero;stroke:#000000;stroke-width:3.00000191;stroke-linecap:round;stroke-linejoin:round;stroke-miterlimit:4;stroke-dasharray:none;stroke-dashoffset:0;stroke-opacity:1"
       d="M 300.00003,658.5 C 300.00003,619.9959 331.20322,588.74628 369.65003,588.74628 C 408.09684,588.74628 490.40321,588.74628 528.85001,588.74628 C 567.29681,588.74628 598.50011,557.49666 598.50011,518.99266 L 598.50011,1.4996809 L 1.5000099,1.4997008 L 1.5,518.99266 C 1.5,557.49666 32.70321,588.74628 71.150019,588.74628 C 109.59684,588.74628 191.90322,588.74628 230.35003,588.74628 C 268.79684,588.74628 300.00003,619.9959 300.00003,658.5 z"
       sodipodi:nodetypes="cssccccssc" />
  </g>
</svg>
