<?xml version="1.0" encoding="UTF-8" standalone="no"?>
<svg
   xmlns:dc="http://purl.org/dc/elements/1.1/"
   xmlns:cc="http://web.resource.org/cc/"
   xmlns:rdf="http://www.w3.org/1999/02/22-rdf-syntax-ns#"
   xmlns:svg="http://www.w3.org/2000/svg"
   xmlns="http://www.w3.org/2000/svg"
   xmlns:xlink="http://www.w3.org/1999/xlink"
   xmlns:sodipodi="http://sodipodi.sourceforge.net/DTD/sodipodi-0.dtd"
   xmlns:inkscape="http://www.inkscape.org/namespaces/inkscape"
   height="660"
   width="600"
   version="1.0"
   id="svg2"
   sodipodi:version="0.32"
   inkscape:version="0.44.1"
   sodipodi:docname="Saint-Rémy-de-Provence (13).svg"
   sodipodi:docbase="C:\Documents and Settings\Propriétaire\Mes documents\image blason\Blason du 13 a envoyer"
   inkscape:export-filename="/Users/olivier/Desktop/Blason Rouge/Blason_Vide_3D.png"
   inkscape:export-xdpi="144"
   inkscape:export-ydpi="144">
  <metadata
     id="metadata49">
    <rdf:RDF>
      <cc:Work
         rdf:about="">
        <dc:format>image/svg+xml</dc:format>
        <dc:type
           rdf:resource="http://purl.org/dc/dcmitype/StillImage" />
        <dc:title>Gabarit d'un blason en pointe pour le projet Blasons de Wikipédia</dc:title>
        <dc:date>03-AUG-2006</dc:date>
        <dc:creator>
          <cc:Agent>
            <dc:title>Jérôme BLUM (wagner51)</dc:title>
          </cc:Agent>
        </dc:creator>
        <cc:license
           rdf:resource="http://web.resource.org/cc/PublicDomain" />
        <dc:language>fr</dc:language>
        <dc:subject>
          <rdf:Bag>
            <rdf:li>gabarit modèle blason projet wikipédia</rdf:li>
          </rdf:Bag>
        </dc:subject>
      </cc:Work>
      <cc:License
         rdf:about="http://web.resource.org/cc/PublicDomain">
        <cc:permits
           rdf:resource="http://web.resource.org/cc/Reproduction" />
        <cc:permits
           rdf:resource="http://web.resource.org/cc/Distribution" />
        <cc:permits
           rdf:resource="http://web.resource.org/cc/DerivativeWorks" />
      </cc:License>
    </rdf:RDF>
  </metadata>
  <sodipodi:namedview
     inkscape:window-height="712"
     inkscape:window-width="1024"
     inkscape:pageshadow="2"
     inkscape:pageopacity="0.0"
     guidetolerance="10.0"
     gridtolerance="10.0"
     objecttolerance="10.0"
     borderopacity="1.0"
     bordercolor="#666666"
     pagecolor="#ffffff"
     id="base"
     showgrid="false"
     height="660px"
     inkscape:zoom="0.53178818"
     inkscape:cx="301.56991"
     inkscape:cy="364.35921"
     inkscape:window-x="-4"
     inkscape:window-y="-4"
     inkscape:current-layer="layer3"
     showguides="true"
     inkscape:guide-bbox="true" />
  <desc
     id="desc4">Flag of Canton of Valais (Wallis)</desc>
  <defs
     id="defs6">
    <linearGradient
       id="linearGradient2893">
      <stop
         style="stop-color:white;stop-opacity:0.3137255;"
         offset="0"
         id="stop2895" />
      <stop
         id="stop2897"
         offset="0.19"
         style="stop-color:white;stop-opacity:0.25098041;" />
      <stop
         style="stop-color:#6b6b6b;stop-opacity:0.1254902;"
         offset="0.60000002"
         id="stop2901" />
      <stop
         style="stop-color:black;stop-opacity:0.1254902;"
         offset="1"
         id="stop2899" />
    </linearGradient>
    <linearGradient
       id="linearGradient2885">
      <stop
         id="stop2887"
         offset="0"
         style="stop-color:white;stop-opacity:1;" />
      <stop
         style="stop-color:white;stop-opacity:1;"
         offset="0.22857143"
         id="stop2891" />
      <stop
         id="stop2889"
         offset="1"
         style="stop-color:black;stop-opacity:1;" />
    </linearGradient>
    <linearGradient
       id="linearGradient2955">
      <stop
         id="stop2867"
         offset="0"
         style="stop-color:#fd0000;stop-opacity:1;" />
      <stop
         style="stop-color:#e77275;stop-opacity:0.65882355;"
         offset="0.5"
         id="stop2873" />
      <stop
         style="stop-color:black;stop-opacity:0.32291666;"
         offset="1"
         id="stop2959" />
    </linearGradient>
    <radialGradient
       inkscape:collect="always"
       xlink:href="#linearGradient2955"
       id="radialGradient2961"
       cx="225.52438"
       cy="218.90099"
       fx="225.52438"
       fy="218.90099"
       r="300"
       gradientTransform="matrix(-4.167939e-4,2.182867,-1.884232,-3.599562e-4,615.5972,-289.1214)"
       gradientUnits="userSpaceOnUse" />
    <polygon
       id="star"
       transform="scale(53,53)"
       points="0,-1 0.58778525,0.80901699 -0.95105652,-0.30901699 0.95105652,-0.30901699 -0.58778525,0.80901699 0,-1 " />
    <clipPath
       id="clip">
      <path
         d="M 0,-200 L 0,600 L 300,600 L 300,-200 L 0,-200 z "
         id="path10" />
    </clipPath>
    <radialGradient
       inkscape:collect="always"
       xlink:href="#linearGradient2955"
       id="radialGradient1911"
       gradientUnits="userSpaceOnUse"
       gradientTransform="matrix(-4.167939e-4,2.182867,-1.884232,-3.599562e-4,615.5972,-289.1214)"
       cx="225.52438"
       cy="218.90099"
       fx="225.52438"
       fy="218.90099"
       r="300" />
    <radialGradient
       inkscape:collect="always"
       xlink:href="#linearGradient2955"
       id="radialGradient2865"
       gradientUnits="userSpaceOnUse"
       gradientTransform="matrix(0,1.748721,-1.593162,-1.049767e-7,551.7876,-191.2898)"
       cx="225.52438"
       cy="218.90099"
       fx="225.52438"
       fy="218.90099"
       r="300" />
    <radialGradient
       inkscape:collect="always"
       xlink:href="#linearGradient2955"
       id="radialGradient2871"
       gradientUnits="userSpaceOnUse"
       gradientTransform="matrix(0,1.386237,-1.323286,-5.741131e-8,-158.0823,-109.5408)"
       cx="225.52438"
       cy="218.90099"
       fx="225.52438"
       fy="218.90099"
       r="300" />
    <radialGradient
       inkscape:collect="always"
       xlink:href="#linearGradient2893"
       id="radialGradient3163"
       gradientUnits="userSpaceOnUse"
       gradientTransform="matrix(1.353218,0,0,1.348928,-77.62935,-85.74693)"
       cx="221.44487"
       cy="226.33101"
       fx="221.44487"
       fy="226.33101"
       r="300" />
  </defs>
  <g
     inkscape:groupmode="layer"
     id="layer3"
     inkscape:label="Fond écu"
     style="display:inline">
    <path
       id="path2855"
       style="fill:#fcef3c;fill-opacity:1;fill-rule:evenodd;stroke:black;stroke-width:3;stroke-linecap:butt;stroke-linejoin:miter;stroke-opacity:1;stroke-miterlimit:4;stroke-dasharray:none"
       d="M 300,658.5 C 300,658.5 598.50001,546.17969 598.50001,260.72817 C 598.50001,-24.723354 598.50001,2.1764765 598.50001,2.1764765 L 1.5,2.1764765 L 1.5,260.72817 C 1.5,546.17969 300,658.5 300,658.5 z "
       sodipodi:nodetypes="cccccc" />
    <g
       style="display:inline"
       id="g2660"
       transform="translate(-2.089566,-0.555559)">
      <path
         id="path2667"
         d="M 68.4375,2.1875 L 68.4375,473.9375 C 87.760959,502.51099 109.84538,527.42689 132.5625,548.9375 L 132.5625,2.1875 L 68.4375,2.1875 z "
         style="fill:#e20909;fill-opacity:1;fill-rule:evenodd;stroke:black;stroke-width:3;stroke-linejoin:miter;stroke-miterlimit:4;stroke-dasharray:none;stroke-opacity:1;display:inline" />
      <path
         id="path2669"
         d="M 336.4375,2.1875 L 336.4375,642.59375 C 353.73364,633.84486 376.12567,621.35017 400.5625,604.8125 L 400.5625,2.1875 L 336.4375,2.1875 z "
         style="fill:#e20909;fill-opacity:1;fill-rule:evenodd;stroke:black;stroke-width:3;stroke-linejoin:miter;stroke-miterlimit:4;stroke-dasharray:none;stroke-opacity:1;display:inline" />
      <path
         id="path2671"
         d="M 202.4375,2.1875 L 202.4375,604.8125 C 226.87433,621.35017 249.26636,633.84486 266.5625,642.59375 L 266.5625,2.1875 L 202.4375,2.1875 z "
         style="fill:#e20909;fill-opacity:1;fill-rule:evenodd;stroke:black;stroke-width:3;stroke-linejoin:miter;stroke-miterlimit:4;stroke-dasharray:none;stroke-opacity:1;display:inline" />
      <path
         id="path2673"
         d="M 470.4375,2.1875 L 470.4375,548.9375 C 493.15462,527.42689 515.23904,502.51099 534.5625,473.9375 L 534.5625,2.1875 L 470.4375,2.1875 z "
         style="fill:#e20909;fill-opacity:1;fill-rule:evenodd;stroke:black;stroke-width:3;stroke-linejoin:miter;stroke-miterlimit:4;stroke-dasharray:none;stroke-opacity:1;display:inline" />
    </g>
    <path
       style="opacity:1;fill:#2b5df2;fill-opacity:1;fill-rule:evenodd;stroke:black;stroke-width:3;stroke-linejoin:miter;stroke-miterlimit:4;stroke-dasharray:none;stroke-opacity:1"
       d="M 1.500005,2.1875 L 1.500005,218.71875 L 598.5,218.71875 C 598.5,57.141278 598.5,2.1875 598.5,2.1875 L 1.500005,2.1875 z "
       id="rect2830" />
    <g
       id="g12119"
       transform="translate(919.8414,-52.72194)">
      <path
         id="path1902"
         style="opacity:1;fill:#fcef3c;fill-opacity:1;fill-rule:evenodd;stroke:black;stroke-width:3;stroke-linecap:butt;stroke-linejoin:miter;stroke-miterlimit:4;stroke-dasharray:none;stroke-opacity:1"
         d="M -829.3374,187.17037 C -830.04438,181.46662 -830.09806,176.06101 -832.13388,170.54804 C -833.87208,165.84101 -834.44656,164.37955 -837.6306,159.16709 C -838.6372,158.06965 -840.50895,154.91165 -841.98062,153.25818 C -844.36407,150.58028 -845.14068,149.30985 -847.69887,147.10296 C -849.79481,145.29483 -852.076,143.13204 -855.56718,140.95833 C -860.19824,138.76263 -863.98441,138.23543 -867.77454,138.66549 C -875.30717,140.48602 -882.59693,144.93889 -885.30008,151.59821 C -886.56631,156.17309 -885.78461,160.9585 -883.88823,165.40942 C -879.14968,173.89781 -874.71174,177.97516 -868.3039,181.26907 C -864.58427,182.7508 -859.39608,184.62817 -855.2639,184.64806 C -857.13069,180.31122 -858.2261,176.62611 -859.03801,172.61206 C -859.19668,171.15817 -858.55667,169.16496 -857.30096,168.95645 C -855.37474,168.63661 -853.13847,169.92787 -850.70699,171.911 C -846.00113,175.59416 -840.9578,179.39077 -839.46687,184.92778 C -839.16424,185.65736 -839.24889,186.50046 -838.91097,187.21813" />
      <path
         id="path3734"
         style="opacity:1;fill:#fcef3c;fill-opacity:1;fill-rule:nonzero;stroke:black;stroke-width:3;stroke-linecap:butt;stroke-linejoin:miter;stroke-miterlimit:4;stroke-dasharray:none;stroke-opacity:1"
         d="M -821.44459,90.627024 C -826.64037,95.546908 -830.76038,100.09751 -834.11958,105.12255 C -837.98454,110.75595 -840.35796,118.29065 -841.27251,123.0007 C -841.98042,127.01816 -843.02606,131.21379 -841.36407,138.56177 C -839.59336,144.80253 -837.39826,149.16456 -835.38995,153.93186 C -833.06894,159.43662 -831.39686,163.38916 -829.54743,168.06549 C -827.54873,173.53311 -827.05721,177.08119 -826.93804,178.70593 C -826.59345,182.07671 -826.61294,184.80644 -826.74921,187.17003 L -814.52056,187.17003 C -814.65682,184.80644 -814.67632,182.07671 -814.33172,178.70593 C -814.21255,177.08119 -813.72104,173.53311 -811.72233,168.06549 C -809.8729,163.38916 -808.20083,159.43662 -805.87982,153.93186 C -803.8715,149.16456 -801.6764,144.80253 -799.90569,138.56177 C -798.2437,131.21379 -799.28935,127.01816 -799.99725,123.0007 C -800.91181,118.29065 -803.28522,110.75595 -807.15018,105.12255 C -810.49563,100.11808 -814.59651,95.584094 -819.76222,90.687338 L -820.61196,89.735456 L -821.44459,90.627024 z " />
      <path
         id="path6395"
         style="opacity:1;fill:#fcef3c;fill-opacity:1;fill-rule:evenodd;stroke:black;stroke-width:3;stroke-linecap:butt;stroke-linejoin:miter;stroke-miterlimit:4;stroke-dasharray:none;stroke-opacity:1"
         d="M -832.84922,194.73445 C -835.40581,201.02804 -845.82991,212.55402 -851.36673,215.83941 C -852.80275,216.6915 -844.50241,215.3486 -840.78612,214.63312 C -835.91178,213.69469 -829.57628,209.13285 -829.72482,210.74285 C -830.03307,214.08386 -829.9817,214.02863 -829.5646,216.90496 C -828.26253,222.1616 -827.87586,223.66918 -826.2342,227.661 C -825.45942,229.54493 -824.79686,231.00134 -824.36299,231.81263 C -823.60175,233.23604 -822.72662,234.88365 -821.22714,236.06981 L -820.64446,236.61467 L -820.04262,236.06981 C -818.57369,234.87519 -817.67826,233.30109 -816.90677,231.81263 C -816.48395,230.99686 -815.81034,229.54493 -815.03557,227.661 C -813.39391,223.66918 -813.00151,222.1616 -811.69944,216.90496 C -811.28234,214.02863 -811.23669,214.08386 -811.54494,210.74285 C -811.69348,209.13285 -805.35799,213.69469 -800.48365,214.63312 C -796.76735,215.3486 -788.46702,216.6915 -789.90303,215.83941 C -795.43985,212.55402 -805.85822,201.02804 -808.41482,194.73445 L -832.84922,194.73445 z " />
      <path
         id="path7291"
         style="opacity:1;fill:#fcef3c;fill-opacity:1;fill-rule:evenodd;stroke:black;stroke-width:3;stroke-linecap:butt;stroke-linejoin:miter;stroke-miterlimit:4;stroke-dasharray:none;stroke-opacity:1"
         d="M -811.93187,187.17037 C -811.22489,181.46662 -811.17121,176.06101 -809.13539,170.54804 C -807.39719,165.84101 -806.82271,164.37955 -803.63867,159.16709 C -802.63207,158.06965 -800.76032,154.91165 -799.28865,153.25818 C -796.90519,150.58028 -796.12859,149.30985 -793.5704,147.10296 C -791.47446,145.29483 -789.19326,143.13204 -785.70209,140.95833 C -781.07103,138.76263 -777.28486,138.23543 -773.49473,138.66549 C -765.96209,140.48602 -758.67234,144.93889 -755.96919,151.59821 C -754.70296,156.17309 -755.48466,160.9585 -757.38104,165.40942 C -762.11959,173.89781 -766.55753,177.97516 -772.96537,181.26907 C -776.685,182.7508 -781.87319,184.62817 -786.00537,184.64806 C -784.13858,180.31122 -783.04317,176.62611 -782.23126,172.61206 C -782.07259,171.15817 -782.7126,169.16496 -783.96831,168.95645 C -785.89452,168.63661 -788.1308,169.92787 -790.56228,171.911 C -795.26814,175.59416 -800.31147,179.39077 -801.80239,184.92778 C -802.10503,185.65736 -802.02038,186.50046 -802.3583,187.21813" />
      <rect
         id="rect4623"
         style="opacity:1;fill:#fcef3c;fill-opacity:1;stroke:black;stroke-width:3;stroke-miterlimit:4;stroke-dasharray:none;stroke-opacity:1"
         y="186.84985"
         x="-849.69446"
         height="8.2836952"
         width="58.210011" />
    </g>
    <g
       id="g12126"
       transform="translate(1120.635,-52.72194)">
      <path
         id="path12128"
         style="opacity:1;fill:#fcef3c;fill-opacity:1;fill-rule:evenodd;stroke:black;stroke-width:3;stroke-linecap:butt;stroke-linejoin:miter;stroke-miterlimit:4;stroke-dasharray:none;stroke-opacity:1"
         d="M -829.3374,187.17037 C -830.04438,181.46662 -830.09806,176.06101 -832.13388,170.54804 C -833.87208,165.84101 -834.44656,164.37955 -837.6306,159.16709 C -838.6372,158.06965 -840.50895,154.91165 -841.98062,153.25818 C -844.36407,150.58028 -845.14068,149.30985 -847.69887,147.10296 C -849.79481,145.29483 -852.076,143.13204 -855.56718,140.95833 C -860.19824,138.76263 -863.98441,138.23543 -867.77454,138.66549 C -875.30717,140.48602 -882.59693,144.93889 -885.30008,151.59821 C -886.56631,156.17309 -885.78461,160.9585 -883.88823,165.40942 C -879.14968,173.89781 -874.71174,177.97516 -868.3039,181.26907 C -864.58427,182.7508 -859.39608,184.62817 -855.2639,184.64806 C -857.13069,180.31122 -858.2261,176.62611 -859.03801,172.61206 C -859.19668,171.15817 -858.55667,169.16496 -857.30096,168.95645 C -855.37474,168.63661 -853.13847,169.92787 -850.70699,171.911 C -846.00113,175.59416 -840.9578,179.39077 -839.46687,184.92778 C -839.16424,185.65736 -839.24889,186.50046 -838.91097,187.21813" />
      <path
         id="path12130"
         style="opacity:1;fill:#fcef3c;fill-opacity:1;fill-rule:nonzero;stroke:black;stroke-width:3;stroke-linecap:butt;stroke-linejoin:miter;stroke-miterlimit:4;stroke-dasharray:none;stroke-opacity:1"
         d="M -821.44459,90.627024 C -826.64037,95.546908 -830.76038,100.09751 -834.11958,105.12255 C -837.98454,110.75595 -840.35796,118.29065 -841.27251,123.0007 C -841.98042,127.01816 -843.02606,131.21379 -841.36407,138.56177 C -839.59336,144.80253 -837.39826,149.16456 -835.38995,153.93186 C -833.06894,159.43662 -831.39686,163.38916 -829.54743,168.06549 C -827.54873,173.53311 -827.05721,177.08119 -826.93804,178.70593 C -826.59345,182.07671 -826.61294,184.80644 -826.74921,187.17003 L -814.52056,187.17003 C -814.65682,184.80644 -814.67632,182.07671 -814.33172,178.70593 C -814.21255,177.08119 -813.72104,173.53311 -811.72233,168.06549 C -809.8729,163.38916 -808.20083,159.43662 -805.87982,153.93186 C -803.8715,149.16456 -801.6764,144.80253 -799.90569,138.56177 C -798.2437,131.21379 -799.28935,127.01816 -799.99725,123.0007 C -800.91181,118.29065 -803.28522,110.75595 -807.15018,105.12255 C -810.49563,100.11808 -814.59651,95.584094 -819.76222,90.687338 L -820.61196,89.735456 L -821.44459,90.627024 z " />
      <path
         id="path12132"
         style="opacity:1;fill:#fcef3c;fill-opacity:1;fill-rule:evenodd;stroke:black;stroke-width:3;stroke-linecap:butt;stroke-linejoin:miter;stroke-miterlimit:4;stroke-dasharray:none;stroke-opacity:1"
         d="M -832.84922,194.73445 C -835.40581,201.02804 -845.82991,212.55402 -851.36673,215.83941 C -852.80275,216.6915 -844.50241,215.3486 -840.78612,214.63312 C -835.91178,213.69469 -829.57628,209.13285 -829.72482,210.74285 C -830.03307,214.08386 -829.9817,214.02863 -829.5646,216.90496 C -828.26253,222.1616 -827.87586,223.66918 -826.2342,227.661 C -825.45942,229.54493 -824.79686,231.00134 -824.36299,231.81263 C -823.60175,233.23604 -822.72662,234.88365 -821.22714,236.06981 L -820.64446,236.61467 L -820.04262,236.06981 C -818.57369,234.87519 -817.67826,233.30109 -816.90677,231.81263 C -816.48395,230.99686 -815.81034,229.54493 -815.03557,227.661 C -813.39391,223.66918 -813.00151,222.1616 -811.69944,216.90496 C -811.28234,214.02863 -811.23669,214.08386 -811.54494,210.74285 C -811.69348,209.13285 -805.35799,213.69469 -800.48365,214.63312 C -796.76735,215.3486 -788.46702,216.6915 -789.90303,215.83941 C -795.43985,212.55402 -805.85822,201.02804 -808.41482,194.73445 L -832.84922,194.73445 z " />
      <path
         id="path12134"
         style="opacity:1;fill:#fcef3c;fill-opacity:1;fill-rule:evenodd;stroke:black;stroke-width:3;stroke-linecap:butt;stroke-linejoin:miter;stroke-miterlimit:4;stroke-dasharray:none;stroke-opacity:1"
         d="M -811.93187,187.17037 C -811.22489,181.46662 -811.17121,176.06101 -809.13539,170.54804 C -807.39719,165.84101 -806.82271,164.37955 -803.63867,159.16709 C -802.63207,158.06965 -800.76032,154.91165 -799.28865,153.25818 C -796.90519,150.58028 -796.12859,149.30985 -793.5704,147.10296 C -791.47446,145.29483 -789.19326,143.13204 -785.70209,140.95833 C -781.07103,138.76263 -777.28486,138.23543 -773.49473,138.66549 C -765.96209,140.48602 -758.67234,144.93889 -755.96919,151.59821 C -754.70296,156.17309 -755.48466,160.9585 -757.38104,165.40942 C -762.11959,173.89781 -766.55753,177.97516 -772.96537,181.26907 C -776.685,182.7508 -781.87319,184.62817 -786.00537,184.64806 C -784.13858,180.31122 -783.04317,176.62611 -782.23126,172.61206 C -782.07259,171.15817 -782.7126,169.16496 -783.96831,168.95645 C -785.89452,168.63661 -788.1308,169.92787 -790.56228,171.911 C -795.26814,175.59416 -800.31147,179.39077 -801.80239,184.92778 C -802.10503,185.65736 -802.02038,186.50046 -802.3583,187.21813" />
      <rect
         id="rect12136"
         style="opacity:1;fill:#fcef3c;fill-opacity:1;stroke:black;stroke-width:3;stroke-miterlimit:4;stroke-dasharray:none;stroke-opacity:1"
         y="186.84985"
         x="-849.69446"
         height="8.2836952"
         width="58.210011" />
    </g>
    <g
       id="g12138"
       transform="translate(1321.428,-52.72194)">
      <path
         id="path12140"
         style="opacity:1;fill:#fcef3c;fill-opacity:1;fill-rule:evenodd;stroke:black;stroke-width:3;stroke-linecap:butt;stroke-linejoin:miter;stroke-miterlimit:4;stroke-dasharray:none;stroke-opacity:1"
         d="M -829.3374,187.17037 C -830.04438,181.46662 -830.09806,176.06101 -832.13388,170.54804 C -833.87208,165.84101 -834.44656,164.37955 -837.6306,159.16709 C -838.6372,158.06965 -840.50895,154.91165 -841.98062,153.25818 C -844.36407,150.58028 -845.14068,149.30985 -847.69887,147.10296 C -849.79481,145.29483 -852.076,143.13204 -855.56718,140.95833 C -860.19824,138.76263 -863.98441,138.23543 -867.77454,138.66549 C -875.30717,140.48602 -882.59693,144.93889 -885.30008,151.59821 C -886.56631,156.17309 -885.78461,160.9585 -883.88823,165.40942 C -879.14968,173.89781 -874.71174,177.97516 -868.3039,181.26907 C -864.58427,182.7508 -859.39608,184.62817 -855.2639,184.64806 C -857.13069,180.31122 -858.2261,176.62611 -859.03801,172.61206 C -859.19668,171.15817 -858.55667,169.16496 -857.30096,168.95645 C -855.37474,168.63661 -853.13847,169.92787 -850.70699,171.911 C -846.00113,175.59416 -840.9578,179.39077 -839.46687,184.92778 C -839.16424,185.65736 -839.24889,186.50046 -838.91097,187.21813" />
      <path
         id="path12142"
         style="opacity:1;fill:#fcef3c;fill-opacity:1;fill-rule:nonzero;stroke:black;stroke-width:3;stroke-linecap:butt;stroke-linejoin:miter;stroke-miterlimit:4;stroke-dasharray:none;stroke-opacity:1"
         d="M -821.44459,90.627024 C -826.64037,95.546908 -830.76038,100.09751 -834.11958,105.12255 C -837.98454,110.75595 -840.35796,118.29065 -841.27251,123.0007 C -841.98042,127.01816 -843.02606,131.21379 -841.36407,138.56177 C -839.59336,144.80253 -837.39826,149.16456 -835.38995,153.93186 C -833.06894,159.43662 -831.39686,163.38916 -829.54743,168.06549 C -827.54873,173.53311 -827.05721,177.08119 -826.93804,178.70593 C -826.59345,182.07671 -826.61294,184.80644 -826.74921,187.17003 L -814.52056,187.17003 C -814.65682,184.80644 -814.67632,182.07671 -814.33172,178.70593 C -814.21255,177.08119 -813.72104,173.53311 -811.72233,168.06549 C -809.8729,163.38916 -808.20083,159.43662 -805.87982,153.93186 C -803.8715,149.16456 -801.6764,144.80253 -799.90569,138.56177 C -798.2437,131.21379 -799.28935,127.01816 -799.99725,123.0007 C -800.91181,118.29065 -803.28522,110.75595 -807.15018,105.12255 C -810.49563,100.11808 -814.59651,95.584094 -819.76222,90.687338 L -820.61196,89.735456 L -821.44459,90.627024 z " />
      <path
         id="path12144"
         style="opacity:1;fill:#fcef3c;fill-opacity:1;fill-rule:evenodd;stroke:black;stroke-width:3;stroke-linecap:butt;stroke-linejoin:miter;stroke-miterlimit:4;stroke-dasharray:none;stroke-opacity:1"
         d="M -832.84922,194.73445 C -835.40581,201.02804 -845.82991,212.55402 -851.36673,215.83941 C -852.80275,216.6915 -844.50241,215.3486 -840.78612,214.63312 C -835.91178,213.69469 -829.57628,209.13285 -829.72482,210.74285 C -830.03307,214.08386 -829.9817,214.02863 -829.5646,216.90496 C -828.26253,222.1616 -827.87586,223.66918 -826.2342,227.661 C -825.45942,229.54493 -824.79686,231.00134 -824.36299,231.81263 C -823.60175,233.23604 -822.72662,234.88365 -821.22714,236.06981 L -820.64446,236.61467 L -820.04262,236.06981 C -818.57369,234.87519 -817.67826,233.30109 -816.90677,231.81263 C -816.48395,230.99686 -815.81034,229.54493 -815.03557,227.661 C -813.39391,223.66918 -813.00151,222.1616 -811.69944,216.90496 C -811.28234,214.02863 -811.23669,214.08386 -811.54494,210.74285 C -811.69348,209.13285 -805.35799,213.69469 -800.48365,214.63312 C -796.76735,215.3486 -788.46702,216.6915 -789.90303,215.83941 C -795.43985,212.55402 -805.85822,201.02804 -808.41482,194.73445 L -832.84922,194.73445 z " />
      <path
         id="path12146"
         style="opacity:1;fill:#fcef3c;fill-opacity:1;fill-rule:evenodd;stroke:black;stroke-width:3;stroke-linecap:butt;stroke-linejoin:miter;stroke-miterlimit:4;stroke-dasharray:none;stroke-opacity:1"
         d="M -811.93187,187.17037 C -811.22489,181.46662 -811.17121,176.06101 -809.13539,170.54804 C -807.39719,165.84101 -806.82271,164.37955 -803.63867,159.16709 C -802.63207,158.06965 -800.76032,154.91165 -799.28865,153.25818 C -796.90519,150.58028 -796.12859,149.30985 -793.5704,147.10296 C -791.47446,145.29483 -789.19326,143.13204 -785.70209,140.95833 C -781.07103,138.76263 -777.28486,138.23543 -773.49473,138.66549 C -765.96209,140.48602 -758.67234,144.93889 -755.96919,151.59821 C -754.70296,156.17309 -755.48466,160.9585 -757.38104,165.40942 C -762.11959,173.89781 -766.55753,177.97516 -772.96537,181.26907 C -776.685,182.7508 -781.87319,184.62817 -786.00537,184.64806 C -784.13858,180.31122 -783.04317,176.62611 -782.23126,172.61206 C -782.07259,171.15817 -782.7126,169.16496 -783.96831,168.95645 C -785.89452,168.63661 -788.1308,169.92787 -790.56228,171.911 C -795.26814,175.59416 -800.31147,179.39077 -801.80239,184.92778 C -802.10503,185.65736 -802.02038,186.50046 -802.3583,187.21813" />
      <rect
         id="rect12148"
         style="opacity:1;fill:#fcef3c;fill-opacity:1;stroke:black;stroke-width:3;stroke-miterlimit:4;stroke-dasharray:none;stroke-opacity:1"
         y="186.84985"
         x="-849.69446"
         height="8.2836952"
         width="58.210011" />
    </g>
  </g>
  <g
     inkscape:groupmode="layer"
     id="layer4"
     inkscape:label="Meubles"
     sodipodi:insensitive="true" />
  <g
     inkscape:groupmode="layer"
     id="layer2"
     inkscape:label="Reflet final"
     sodipodi:insensitive="true">
    <path
       sodipodi:nodetypes="cccccc"
       d="M 300.00001,658.5 C 300.00001,658.5 598.50001,546.17969 598.50001,260.72817 C 598.50001,-24.723334 598.50001,2.1764865 598.50001,2.1764865 L 1.5,2.1764865 L 1.5,260.72817 C 1.5,546.17969 300.00001,658.5 300.00001,658.5 z "
       style="opacity:1;fill:url(#radialGradient3163);fill-opacity:1;fill-rule:evenodd;stroke:none;stroke-width:1px;stroke-linecap:butt;stroke-linejoin:miter;stroke-opacity:1"
       id="path2875"
       inkscape:export-xdpi="144"
       inkscape:export-ydpi="144" />
  </g>
  <g
     inkscape:groupmode="layer"
     id="layer1"
     inkscape:label="Contour final"
     sodipodi:insensitive="true">
    <path
       sodipodi:nodetypes="cccccc"
       d="M 299.99999,658.50028 C 299.99999,658.50028 1.5,546.17992 1.5,260.72828 C 1.5,-24.723336 1.5,2.1764957 1.5,2.1764957 L 598.49999,2.1764957 L 598.49999,260.72828 C 598.49999,546.17992 299.99999,658.50028 299.99999,658.50028 z "
       style="opacity:1;fill:none;fill-opacity:1;fill-rule:evenodd;stroke:#000000;stroke-width:3.00000048;stroke-linecap:butt;stroke-linejoin:miter;stroke-miterlimit:4;stroke-dasharray:none;stroke-opacity:1"
       id="path1411"
       inkscape:export-xdpi="144"
       inkscape:export-ydpi="144" />
  </g>
</svg>
