<?xml version="1.0" encoding="UTF-8" standalone="no"?>
<svg
   xmlns:dc="http://purl.org/dc/elements/1.1/"
   xmlns:cc="http://web.resource.org/cc/"
   xmlns:rdf="http://www.w3.org/1999/02/22-rdf-syntax-ns#"
   xmlns:svg="http://www.w3.org/2000/svg"
   xmlns="http://www.w3.org/2000/svg"
   xmlns:xlink="http://www.w3.org/1999/xlink"
   xmlns:sodipodi="http://sodipodi.sourceforge.net/DTD/sodipodi-0.dtd"
   xmlns:inkscape="http://www.inkscape.org/namespaces/inkscape"
   height="660"
   width="600"
   version="1.0"
   id="svg2"
   sodipodi:version="0.32"
   inkscape:version="0.45.1"
   sodipodi:docname="Blason ville fr Villebout (Loir-et-Cher).svg"
   sodipodi:docbase="C:\Users\Jany\Documents\aaaOuiqui\Blasons\Blasons autres"
   inkscape:export-filename="/Users/olivier/Desktop/Blason Rouge/Blason_Vide_3D.png"
   inkscape:export-xdpi="144"
   inkscape:export-ydpi="144"
   inkscape:output_extension="org.inkscape.output.svg.inkscape">
  <metadata
     id="metadata49">
    <rdf:RDF>
      <cc:Work
         rdf:about="">
        <dc:format>image/svg+xml</dc:format>
        <dc:type
           rdf:resource="http://purl.org/dc/dcmitype/StillImage" />
        <dc:title>Gabarit d'un blason en pointe pour le projet Blasons de Wikipédia</dc:title>
        <dc:date>03-AUG-2006</dc:date>
        <dc:creator>
          <cc:Agent>
            <dc:title>Jérôme BLUM (wagner51)</dc:title>
          </cc:Agent>
        </dc:creator>
        <cc:license
           rdf:resource="http://web.resource.org/cc/PublicDomain" />
        <dc:language>fr</dc:language>
        <dc:subject>
          <rdf:Bag>
            <rdf:li>gabarit modèle blason projet wikipédia</rdf:li>
          </rdf:Bag>
        </dc:subject>
      </cc:Work>
      <cc:License
         rdf:about="http://web.resource.org/cc/PublicDomain">
        <cc:permits
           rdf:resource="http://web.resource.org/cc/Reproduction" />
        <cc:permits
           rdf:resource="http://web.resource.org/cc/Distribution" />
        <cc:permits
           rdf:resource="http://web.resource.org/cc/DerivativeWorks" />
      </cc:License>
    </rdf:RDF>
  </metadata>
  <sodipodi:namedview
     inkscape:window-height="814"
     inkscape:window-width="1152"
     inkscape:pageshadow="2"
     inkscape:pageopacity="0.0"
     guidetolerance="10.0"
     gridtolerance="10.0"
     objecttolerance="10.0"
     borderopacity="1.0"
     bordercolor="#666666"
     pagecolor="#ffffff"
     id="base"
     showgrid="false"
     height="660px"
     inkscape:zoom="0.16"
     inkscape:cx="1239.2268"
     inkscape:cy="500.74671"
     inkscape:window-x="-8"
     inkscape:window-y="-8"
     inkscape:current-layer="layer3"
     showguides="true"
     inkscape:guide-bbox="true" />
  <desc
     id="desc4">Flag of Canton of Valais (Wallis)</desc>
  <defs
     id="defs6">
    <linearGradient
       id="linearGradient2893">
      <stop
         style="stop-color:white;stop-opacity:0.3137255;"
         offset="0"
         id="stop2895" />
      <stop
         id="stop2897"
         offset="0.19"
         style="stop-color:white;stop-opacity:0.25098041;" />
      <stop
         style="stop-color:#6b6b6b;stop-opacity:0.1254902;"
         offset="0.60000002"
         id="stop2901" />
      <stop
         style="stop-color:black;stop-opacity:0.1254902;"
         offset="1"
         id="stop2899" />
    </linearGradient>
    <radialGradient
       inkscape:collect="always"
       xlink:href="#linearGradient2893"
       id="radialGradient3163"
       gradientUnits="userSpaceOnUse"
       gradientTransform="matrix(1.353218,0,0,1.348928,-77.62935,-85.74693)"
       cx="221.44487"
       cy="226.33101"
       fx="221.44487"
       fy="226.33101"
       r="300" />
  </defs>
  <g
     inkscape:groupmode="layer"
     id="layer3"
     inkscape:label="Fond écu"
     style="display:inline">
    <path
       id="path2855"
       style="fill:#ffffff;fill-opacity:1;fill-rule:evenodd;stroke:none;stroke-width:1px;stroke-linecap:butt;stroke-linejoin:miter;stroke-opacity:1"
       d="M 300,658.5 C 300,658.5 598.50001,546.17969 598.50001,260.72817 C 598.50001,-24.723354 598.50001,2.1764765 598.50001,2.1764765 L 1.5,2.1764765 L 1.5,260.72817 C 1.5,546.17969 300,658.5 300,658.5 z "
       sodipodi:nodetypes="cccccc" />
    <path
       style="fill:#ffffff;fill-opacity:1;fill-rule:evenodd;stroke:#000000;stroke-width:3;stroke-linecap:butt;stroke-linejoin:miter;stroke-opacity:1;display:inline;stroke-miterlimit:4;stroke-dasharray:none"
       d="M 1.5 2.1875 L 1.5 123.90625 L 446.53125 568.9375 C 486.86681 534.93626 527.48689 490.56557 556.5625 434.5625 L 124.1875 2.1875 L 1.5 2.1875 z "
       id="path43138" />
    <path
       style="fill:#2b5df2;fill-opacity:1;fill-rule:evenodd;stroke:#000000;stroke-width:3;stroke-linecap:butt;stroke-linejoin:miter;stroke-opacity:1;display:inline;stroke-miterlimit:4;stroke-dasharray:none"
       d="M 2.75 3.0625 L 1.5 4.3125 L 1.5 124.03125 L 2.75 125.28125 L 63.84375 64.1875 L 2.75 3.0625 z M 63.84375 64.1875 L 124.96875 125.28125 L 186.0625 64.1875 L 124.96875 3.0625 L 63.84375 64.1875 z M 124.96875 125.28125 L 63.84375 186.40625 L 124.96875 247.5 L 186.0625 186.40625 L 124.96875 125.28125 z M 186.0625 186.40625 L 247.1875 247.5 L 308.28125 186.40625 L 247.1875 125.28125 L 186.0625 186.40625 z M 247.1875 247.5 L 186.0625 308.59375 L 247.1875 369.71875 L 308.28125 308.59375 L 247.1875 247.5 z M 308.28125 308.59375 L 369.375 369.71875 L 430.5 308.59375 L 369.375 247.5 L 308.28125 308.59375 z M 369.375 369.71875 L 308.28125 430.8125 L 369.375 491.9375 L 430.5 430.8125 L 369.375 369.71875 z M 430.5 430.8125 L 491.59375 491.9375 L 552.71875 430.8125 L 491.59375 369.71875 L 430.5 430.8125 z M 491.59375 491.9375 L 430.5 553.03125 L 446.46875 569 C 467.29726 551.44827 488.18143 531.13837 507.53125 507.875 L 491.59375 491.9375 z "
       id="path46050" />
    <g
       transform="translate(73.392889,324.2113)"
       id="g49709"
       style="fill:#000000;fill-opacity:1;stroke:#313131;stroke-width:3;stroke-miterlimit:4;stroke-dasharray:none;stroke-opacity:1">
      <g
         transform="matrix(1.053226,0,0,1.053226,202.7331,-149.8915)"
         style="fill:#000000;fill-opacity:1;stroke:#313131;stroke-width:2.84839153;stroke-miterlimit:4;stroke-dasharray:none;stroke-opacity:1;display:inline"
         id="g49711">
        <path
           d="M -143.97657,278.60684 C -147.5441,288.26602 -153.14466,294.36738 -159.50604,299.13732 C -149.13033,301.65408 -144.12183,305.51264 -139.23877,309.40256 C -133.40503,302.5252 -127.30576,295.97975 -118.70829,292.55704 L -118.44508,278.87006 L -143.97657,278.60684 z "
           style="fill:#000000;fill-opacity:1;fill-rule:evenodd;stroke:#313131;stroke-width:2.84839153;stroke-linecap:butt;stroke-linejoin:miter;stroke-miterlimit:4;stroke-dasharray:none;stroke-opacity:1"
           id="path49713" />
        <path
           d="M -178.4833,155.6809 C -174.56313,151.79863 -170.64295,149.43631 -166.72278,147.37935 C -159.86401,144.78972 -154.20935,145.81245 -148.73609,147.37935 C -130.85884,160.87548 -129.49662,177.46817 -141.12633,196.49685 C -156.48941,213.93912 -156.68318,221.90058 -157.72943,230.39484 C -120.39289,230.40165 -82.238344,230.13579 -39.432358,228.31945 C -45.275734,234.9676 -46.123337,241.34646 -45.65852,249.76512 C -67.15803,261.49873 -82.897119,278.87972 -82.323695,301.6498 C -93.970525,303.32084 -96.29173,303.77443 -104.46116,310.64315 C -113.76789,294.08145 -130.67964,281.32225 -158.42123,273.97797 C -174.56803,266.9214 -189.00987,255.2022 -188.16844,231.77843 C -187.65431,217.46599 -179.67648,204.8936 -169.48996,194.42146 L -178.4833,187.5035 L -178.4833,155.6809 z "
           style="fill:#000000;fill-opacity:1;fill-rule:evenodd;stroke:#313131;stroke-width:2.84839153;stroke-linecap:butt;stroke-linejoin:miter;stroke-miterlimit:4;stroke-dasharray:none;stroke-opacity:1"
           id="path49715" />
        <path
           d="M -155.65405,164.67424 C -155.65093,168.49712 -158.74912,171.59784 -162.572,171.59784 C -166.39489,171.59784 -169.49308,168.49712 -169.48996,164.67424 C -169.49308,160.85136 -166.39489,157.75064 -162.57201,157.75064 C -158.74912,157.75064 -155.65093,160.85136 -155.65405,164.67424 z "
           transform="translate(2,0)"
           style="color:#000000;fill:#000000;fill-opacity:1;fill-rule:nonzero;stroke:#313131;stroke-width:2.84839153;stroke-linecap:butt;stroke-linejoin:miter;marker:none;marker-start:none;marker-mid:none;marker-end:none;stroke-miterlimit:4;stroke-dasharray:none;stroke-dashoffset:0;stroke-opacity:1;visibility:visible;display:inline;overflow:visible"
           id="path49717" />
        <path
           d="M -158.23512,232.12258 C -148.56213,221.1794 -137.59427,208.50609 -107.92014,206.87378 C -88.319467,205.92413 -68.193918,205.29866 -60.18623,197.18864 C -58.688535,207.89267 -62.216927,215.29834 -71.946758,218.63431 C -85.103076,222.89369 -98.568893,224.05808 -112.07091,224.86047 C -99.888029,223.67766 -89.398953,224.06767 -72.638554,218.63431 C -62.890391,218.35704 -65.950863,227.09798 -69.871371,231.08663 C -78.931095,237.87813 -91.049984,236.71579 -101.69398,239.38818 L -78.17292,235.33524 C -70.513142,237.45072 -73.388437,240.90473 -76.823096,244.19699 C -83.477205,249.03982 -94.528083,249.95324 -103.76936,252.5323 L -84.530688,247.88887 C -77.636282,250.59352 -82.10939,254.51178 -87.200032,257.90129 C -102.03477,266.42414 -119.19075,265.14917 -134.90017,265.67642"
           style="fill:#000000;fill-opacity:1;fill-rule:evenodd;stroke:#313131;stroke-width:2.84839153;stroke-linecap:butt;stroke-linejoin:miter;stroke-miterlimit:4;stroke-dasharray:none;stroke-opacity:1"
           id="path49719" />
      </g>
    </g>
    <g
       id="g49702"
       transform="translate(389.01789,42.961299)"
       style="fill:#000000;fill-opacity:1;stroke:#313131;stroke-width:3;stroke-miterlimit:4;stroke-dasharray:none;stroke-opacity:1">
      <g
         id="g5507"
         style="fill:#000000;fill-opacity:1;stroke:#313131;stroke-width:2.84839153;stroke-miterlimit:4;stroke-dasharray:none;stroke-opacity:1;display:inline"
         transform="matrix(1.053226,0,0,1.053226,202.7331,-149.8915)">
        <path
           id="path4610"
           style="fill:#000000;fill-opacity:1;fill-rule:evenodd;stroke:#313131;stroke-width:2.84839153;stroke-linecap:butt;stroke-linejoin:miter;stroke-miterlimit:4;stroke-dasharray:none;stroke-opacity:1"
           d="M -143.97657,278.60684 C -147.5441,288.26602 -153.14466,294.36738 -159.50604,299.13732 C -149.13033,301.65408 -144.12183,305.51264 -139.23877,309.40256 C -133.40503,302.5252 -127.30576,295.97975 -118.70829,292.55704 L -118.44508,278.87006 L -143.97657,278.60684 z " />
        <path
           id="path1946"
           style="fill:#000000;fill-opacity:1;fill-rule:evenodd;stroke:#313131;stroke-width:2.84839153;stroke-linecap:butt;stroke-linejoin:miter;stroke-miterlimit:4;stroke-dasharray:none;stroke-opacity:1"
           d="M -178.4833,155.6809 C -174.56313,151.79863 -170.64295,149.43631 -166.72278,147.37935 C -159.86401,144.78972 -154.20935,145.81245 -148.73609,147.37935 C -130.85884,160.87548 -129.49662,177.46817 -141.12633,196.49685 C -156.48941,213.93912 -156.68318,221.90058 -157.72943,230.39484 C -120.39289,230.40165 -82.238344,230.13579 -39.432358,228.31945 C -45.275734,234.9676 -46.123337,241.34646 -45.65852,249.76512 C -67.15803,261.49873 -82.897119,278.87972 -82.323695,301.6498 C -93.970525,303.32084 -96.29173,303.77443 -104.46116,310.64315 C -113.76789,294.08145 -130.67964,281.32225 -158.42123,273.97797 C -174.56803,266.9214 -189.00987,255.2022 -188.16844,231.77843 C -187.65431,217.46599 -179.67648,204.8936 -169.48996,194.42146 L -178.4833,187.5035 L -178.4833,155.6809 z " />
        <path
           id="path1948"
           style="color:#000000;fill:#000000;fill-opacity:1;fill-rule:nonzero;stroke:#313131;stroke-width:2.84839153;stroke-linecap:butt;stroke-linejoin:miter;marker:none;marker-start:none;marker-mid:none;marker-end:none;stroke-miterlimit:4;stroke-dasharray:none;stroke-dashoffset:0;stroke-opacity:1;visibility:visible;display:inline;overflow:visible"
           transform="translate(2,0)"
           d="M -155.65405,164.67424 C -155.65093,168.49712 -158.74912,171.59784 -162.572,171.59784 C -166.39489,171.59784 -169.49308,168.49712 -169.48996,164.67424 C -169.49308,160.85136 -166.39489,157.75064 -162.57201,157.75064 C -158.74912,157.75064 -155.65093,160.85136 -155.65405,164.67424 z " />
        <path
           id="path3722"
           style="fill:#000000;fill-opacity:1;fill-rule:evenodd;stroke:#313131;stroke-width:2.84839153;stroke-linecap:butt;stroke-linejoin:miter;stroke-miterlimit:4;stroke-dasharray:none;stroke-opacity:1"
           d="M -158.23512,232.12258 C -148.56213,221.1794 -137.59427,208.50609 -107.92014,206.87378 C -88.319467,205.92413 -68.193918,205.29866 -60.18623,197.18864 C -58.688535,207.89267 -62.216927,215.29834 -71.946758,218.63431 C -85.103076,222.89369 -98.568893,224.05808 -112.07091,224.86047 C -99.888029,223.67766 -89.398953,224.06767 -72.638554,218.63431 C -62.890391,218.35704 -65.950863,227.09798 -69.871371,231.08663 C -78.931095,237.87813 -91.049984,236.71579 -101.69398,239.38818 L -78.17292,235.33524 C -70.513142,237.45072 -73.388437,240.90473 -76.823096,244.19699 C -83.477205,249.03982 -94.528083,249.95324 -103.76936,252.5323 L -84.530688,247.88887 C -77.636282,250.59352 -82.10939,254.51178 -87.200032,257.90129 C -102.03477,266.42414 -119.19075,265.14917 -134.90017,265.67642" />
      </g>
    </g>
  </g>
  <g
     inkscape:groupmode="layer"
     id="layer4"
     inkscape:label="Meubles"
     sodipodi:insensitive="true" />
  <g
     inkscape:groupmode="layer"
     id="layer2"
     inkscape:label="Reflet final"
     sodipodi:insensitive="true">
    <path
       sodipodi:nodetypes="cccccc"
       d="M 300.00001,658.5 C 300.00001,658.5 598.50001,546.17969 598.50001,260.72817 C 598.50001,-24.723334 598.50001,2.1764865 598.50001,2.1764865 L 1.5,2.1764865 L 1.5,260.72817 C 1.5,546.17969 300.00001,658.5 300.00001,658.5 z "
       style="opacity:1;fill:url(#radialGradient3163);fill-opacity:1;fill-rule:evenodd;stroke:none;stroke-width:1px;stroke-linecap:butt;stroke-linejoin:miter;stroke-opacity:1"
       id="path2875"
       inkscape:export-xdpi="144"
       inkscape:export-ydpi="144" />
  </g>
  <g
     inkscape:groupmode="layer"
     id="layer1"
     inkscape:label="Contour final"
     sodipodi:insensitive="true">
    <path
       sodipodi:nodetypes="cccccc"
       d="M 299.99999,658.50028 C 299.99999,658.50028 1.5,546.17992 1.5,260.72828 C 1.5,-24.723336 1.5,2.1764957 1.5,2.1764957 L 598.49999,2.1764957 L 598.49999,260.72828 C 598.49999,546.17992 299.99999,658.50028 299.99999,658.50028 z "
       style="opacity:1;fill:none;fill-opacity:1;fill-rule:evenodd;stroke:#000000;stroke-width:3.00000048;stroke-linecap:butt;stroke-linejoin:miter;stroke-miterlimit:4;stroke-dasharray:none;stroke-opacity:1"
       id="path1411"
       inkscape:export-xdpi="144"
       inkscape:export-ydpi="144" />
  </g>
</svg>
