<?xml version="1.0" encoding="UTF-8" standalone="no"?>
<!-- Created with Inkscape (http://www.inkscape.org/) -->
<svg
   xmlns:dc="http://purl.org/dc/elements/1.1/"
   xmlns:cc="http://creativecommons.org/ns#"
   xmlns:rdf="http://www.w3.org/1999/02/22-rdf-syntax-ns#"
   xmlns:svg="http://www.w3.org/2000/svg"
   xmlns="http://www.w3.org/2000/svg"
   xmlns:xlink="http://www.w3.org/1999/xlink"
   xmlns:sodipodi="http://sodipodi.sourceforge.net/DTD/sodipodi-0.dtd"
   xmlns:inkscape="http://www.inkscape.org/namespaces/inkscape"
   width="600"
   height="660"
   id="svg2383"
   sodipodi:version="0.32"
   inkscape:version="0.46"
   version="1.0"
   sodipodi:docname="Blason_Le_Mesnil-Réaume-A.svg"
   inkscape:output_extension="org.inkscape.output.svg.inkscape">
  <defs
     id="defs2385">
    <clipPath
       id="shield_cut">
      <path
         d="M -298.5,-298.5 L -298.5,183 C -298.5,312.05477 -66.85998,248.9482 0,358.5 C 66.85998,248.9482 298.5,312.05477 298.5,183 L 298.5,-298.5 L -298.5,-298.5 z"
         id="shield" />
    </clipPath>
    <radialGradient
       r="405"
       cy="-80"
       cx="-80"
       gradientUnits="userSpaceOnUse"
       id="Gradient1">
      <stop
         id="stop2521"
         offset="0"
         style="stop-color:#fff;stop-opacity:0.31" />
      <stop
         id="stop2523"
         offset="0.19"
         style="stop-color:#fff;stop-opacity:0.25" />
      <stop
         id="stop2525"
         offset="0.6"
         style="stop-color:#6b6b6b;stop-opacity:0.125" />
      <stop
         id="stop2527"
         offset="1"
         style="stop-color:#000;stop-opacity:0.125" />
    </radialGradient>
    <g
       id="s-4">
      <g
         id="c-6">
        <path
           transform="matrix(0.951057,0.309017,-0.309017,0.951057,0,-1)"
           d="M 0,0 L 0,1 L 0.5,1 L 0,0 z"
           id="t-0" />
        <use
           height="540"
           width="810"
           y="0"
           x="0"
           id="use2144-7"
           transform="scale(-1,1)"
           xlink:href="#t-0" />
      </g>
      <g
         id="a-1">
        <use
           height="540"
           width="810"
           y="0"
           x="0"
           id="use2147-7"
           transform="matrix(0.309017,0.951057,-0.951057,0.309017,0,0)"
           xlink:href="#c-6" />
        <use
           height="540"
           width="810"
           y="0"
           x="0"
           id="use2149-7"
           transform="matrix(-0.809017,0.587785,-0.587785,-0.809017,0,0)"
           xlink:href="#c-6" />
      </g>
      <use
         height="540"
         width="810"
         y="0"
         x="0"
         id="use2151-7"
         transform="scale(-1,1)"
         xlink:href="#a-1" />
    </g>
    <g
       id="f">
      <rect
         id="rect1964"
         style="fill:#28166f"
         y="-30"
         x="-50"
         height="60"
         width="100" />
      <g
         id="g1966"
         style="fill:#ffffff"
         transform="translate(0,-20)">
        <path
           id="path1968"
           d="M -1.2116,27.8178 C -1.2116,22.1752 -2.0914,20.4715 -4.5417,13.9804 C -5.709,10.8879 -5.0241,7.1025 -2.8585,3.6009 C -2.0824,2.346 -1.1136,1.2135 0,0 C 1.1136,1.2135 2.0824,2.346 2.8585,3.6009 C 5.0241,7.1025 5.709,10.8879 4.5417,13.9804 C 2.0914,20.4715 1.2116,22.1752 1.2116,27.8178 L -1.2116,27.8178 z" />
        <path
           id="rwi"
           d="M 2.9221,27.6725 C 2.9221,21.7209 5.2387,17.8293 8.5007,16.6604 C 9.9492,16.1414 11.8076,16.3869 13.5193,18.107 C 15.6379,20.236 16.2551,26.1004 10.0355,27.2283 C 10.6938,26.2724 10.6546,24.1467 9.3215,23.4409 C 8.3311,22.9165 7.209,23.1877 6.6462,23.5643 C 5.8225,24.1156 4.9171,25.6702 4.9672,27.6725 L 2.9221,27.6725 z" />
        <path
           id="path1971"
           d="M 1.7773,30.1835 C 1.7899,32.1913 2.7952,33.5181 4.5165,34.257 C 4.2948,34.9549 3.2566,36.3776 1.8314,36.2812 C 1.5499,37.787 1.2822,38.6324 0,40 C -1.2822,38.6324 -1.5499,37.787 -1.8314,36.2812 C -3.2566,36.3776 -4.2948,34.9549 -4.5165,34.257 C -2.7952,33.5181 -1.7899,32.1913 -1.7773,30.1835 L 1.7773,30.1835 z" />
        <use
           xlink:href="#rwi"
           height="400"
           width="800"
           y="0"
           x="0"
           id="use1973"
           transform="scale(-1,1)" />
        <rect
           id="rect1975"
           y="27.33077"
           x="-7.9229999"
           height="3.2179999"
           width="15.846" />
      </g>
    </g>
    <g
       id="s">
      <g
         id="c">
        <path
           transform="matrix(0.951057,0.309017,-0.309017,0.951057,0,-1)"
           d="M 0,0 L 0,1 L 0.5,1 L 0,0 z"
           id="t" />
        <use
           height="540"
           width="810"
           y="0"
           x="0"
           id="use2144"
           transform="scale(-1,1)"
           xlink:href="#t" />
      </g>
      <g
         id="a">
        <use
           height="540"
           width="810"
           y="0"
           x="0"
           id="use2147"
           transform="matrix(0.309017,0.951057,-0.951057,0.309017,0,0)"
           xlink:href="#c" />
        <use
           height="540"
           width="810"
           y="0"
           x="0"
           id="use2149"
           transform="matrix(-0.809017,0.587785,-0.587785,-0.809017,0,0)"
           xlink:href="#c" />
      </g>
      <use
         height="540"
         width="810"
         y="0"
         x="0"
         id="use2151"
         transform="scale(-1,1)"
         xlink:href="#a" />
    </g>
    <radialGradient
       r="300"
       fy="226.33101"
       fx="221.44487"
       cy="226.33101"
       cx="221.44487"
       gradientTransform="matrix(1.353218,0,0,1.348928,-77.62935,-85.74693)"
       gradientUnits="userSpaceOnUse"
       id="radialGradient3163"
       xlink:href="#linearGradient2893"
       inkscape:collect="always" />
    <linearGradient
       id="linearGradient2893">
      <stop
         id="stop2895"
         offset="0"
         style="stop-color:white;stop-opacity:0.3137255;" />
      <stop
         style="stop-color:white;stop-opacity:0.25098041;"
         offset="0.19"
         id="stop2897" />
      <stop
         id="stop2901"
         offset="0.60000002"
         style="stop-color:#6b6b6b;stop-opacity:0.1254902;" />
      <stop
         id="stop2899"
         offset="1"
         style="stop-color:black;stop-opacity:0.1254902;" />
    </linearGradient>
  </defs>
  <sodipodi:namedview
     id="base"
     pagecolor="#ffffff"
     bordercolor="#666666"
     borderopacity="1.0"
     inkscape:pageopacity="0.0"
     inkscape:pageshadow="2"
     inkscape:zoom="1.1863636"
     inkscape:cx="300"
     inkscape:cy="330"
     inkscape:document-units="px"
     inkscape:current-layer="layer1"
     showgrid="false"
     showborder="true"
     inkscape:showpageshadow="true"
     inkscape:window-width="1280"
     inkscape:window-height="977"
     inkscape:window-x="-4"
     inkscape:window-y="-4"
     inkscape:object-nodes="true"
     objecttolerance="9" />
  <metadata
     id="metadata2388">
    <rdf:RDF>
      <cc:Work
         rdf:about="">
        <dc:format>image/svg+xml</dc:format>
        <dc:type
           rdf:resource="http://purl.org/dc/dcmitype/StillImage" />
      </cc:Work>
    </rdf:RDF>
  </metadata>
  <g
     inkscape:label="Fond écu"
     inkscape:groupmode="layer"
     id="layer1"
     transform="translate(0,-392.36218)">
    <use
       id="use2532"
       xlink:href="#shield"
       style="fill:#fcef3c"
       x="0"
       y="0"
       width="744.09448"
       height="1052.3622"
       transform="translate(300,692.36218)" />
    <g
       id="layer3"
       inkscape:label="Meubles"
       transform="translate(300,692.36218)" />
    <g
       id="layer2"
       inkscape:label="Reflet final"
       transform="translate(300,692.36218)" />
    <g
       id="g2561"
       inkscape:label="Contour final"
       transform="translate(300,692.36218)" />
    <path
       style="fill:#e20909;stroke:#000000;stroke-opacity:1;stroke-width:3"
       d="M 300 288 L 300 658.5 C 366.85998 548.94818 598.5 612.05482 598.5 483 L 598.5 288 L 300 288 z "
       transform="translate(0,392.36218)"
       id="path2815" />
    <path
       style="opacity:1;fill:#e20909;fill-opacity:1;fill-rule:nonzero;stroke:#000000;stroke-width:3;stroke-linecap:butt;stroke-linejoin:round;stroke-miterlimit:4;stroke-dasharray:none;stroke-opacity:1"
       d="M 1.5,393.86218 L 1.5,680.36218 L 300,680.36218 L 300,393.86218 L 1.5,393.86218 z"
       id="rect2817" />
    <path
       style="fill:#ffffff;stroke:#000000;stroke-opacity:1;stroke-width:3"
       d="M 333.9375,321.9375 L 333.9375,579.625 C 414.64166,529.44702 565.0625,559.15948 565.0625,461.15625 L 565.0625,321.9375 L 333.9375,321.9375 z"
       transform="translate(0,392.36218)"
       id="path2500"
       sodipodi:nodetypes="ccccc" />
    <rect
       style="opacity:1;fill:#ffffff;fill-opacity:1;fill-rule:nonzero;stroke:#000000;stroke-width:3;stroke-linecap:butt;stroke-linejoin:round;stroke-miterlimit:4;stroke-dasharray:none;stroke-opacity:1.0"
       id="rect2513"
       width="231.13049"
       height="220.47052"
       x="34.931999"
       y="33.59198"
       transform="translate(0,392.36218)" />
    <g
       id="g3377">
      <path
         sodipodi:nodetypes="czsscscccsscsccsssscc"
         id="path4175"
         d="M 219.26519,787.85312 C 230.57614,787.43705 243.92458,802.00584 257.657,798.88916 C 271.4735,795.75348 266.63272,785.793 254.71414,782.70329 C 233.65338,777.2437 192.6222,784.66322 176.86155,772.13568 C 174.2417,770.05332 164.11744,756.32398 188.36558,754.34462 C 189.43565,749.17233 193.92711,748.80245 202.2773,750.06409 C 209.21656,751.11255 215.74065,755.86061 221.8743,747.92379 C 222.37071,750.72965 224.2136,757.99901 209.90209,754.7459 C 203.28439,753.22878 197.65881,753.36521 193.18119,755.41484 C 198.91694,753.36789 203.8197,752.62306 211.37349,756.53483 C 214.52592,758.16734 219.6996,761.18764 228.30639,753.40091 C 233.07776,749.08405 246.00459,752.16757 241.30345,759.16026 C 236.5332,750.86904 228.91636,759.73712 225.01773,763.9759 C 214.16995,775.77029 204.95389,763.17792 196.6591,760.63169 C 209.5226,764.02455 196.09134,773.12466 191.17468,767.58756 C 203.79779,766.34465 190.97089,757.96606 182.37996,761.87643 C 177.31478,764.18196 180.4245,767.45838 182.83803,769.05216 C 197.22167,778.55067 242.12134,766.61675 266.75318,780.02795 C 279.88418,787.17735 275.2061,799.10994 268.49213,803.16969 C 258.33876,809.30907 253.27117,806.54002 239.39708,807.91831 L 219.26519,787.85312 z"
         style="fill:#e20909;fill-opacity:1;stroke:#000000;stroke-width:1.64587498000000010;stroke-miterlimit:4;stroke-dasharray:none;stroke-opacity:1;display:inline" />
      <g
         style="fill:#e20909"
         transform="matrix(0.7022401,0,0,0.70224,-448.50101,24.726156)"
         id="g4177">
        <path
           style="opacity:1;fill:#e20909;fill-opacity:1;stroke:#000000;stroke-width:2.34375000000000000;stroke-linecap:butt;stroke-linejoin:miter;stroke-miterlimit:4;stroke-dasharray:none;stroke-opacity:1"
           d="M 285.64366,328.94814 C 262.73745,325.42728 244.4374,332.18248 244.22264,346.16207 C 244.13339,351.97153 249.00364,351.58501 243.53296,357.07252 C 232.28981,366.13233 240.22373,370.54239 243.53296,368.9071 C 243.2056,374.32637 231.42522,374.29719 233.46393,366.45187 C 224.59535,373.53522 231.01161,376.42762 234.65703,375.63129 C 229.1414,382.15047 221.91492,377.26166 223.7811,367.67948 C 222.88251,372.74468 226.08747,381.43899 217.32587,380.20374 C 218.68407,377.95993 218.57235,377.34864 218.67071,374.78987 C 215.78471,378.48345 211.83132,378.70805 207.64304,378.16922 C 211.7677,384.59119 194.78904,393.08794 193.11878,382.20374 C 187.45953,382.40391 181.47003,382.17323 181.28421,385.96928 C 172.8768,391.25542 166.04582,390.01088 165.14615,385.85206 C 162.75753,388.85803 153.32793,389.10544 151.85586,383.00536 C 152.84053,380.77887 153.63793,379.68073 155.58054,374.67264 C 156.77822,371.58501 161.81845,373.36077 164.87718,371.714 C 168.94808,369.52229 171.63226,365.89929 178.05659,366.33465 C 183.73843,366.71969 189.15516,364.90806 193.7626,359.2182 C 198.6049,353.23831 200.7274,355.74504 205.4913,350.46555 C 211.86097,343.40651 203.52551,336.06815 207.52581,328.7964 C 203.01705,337.3461 184.52546,340.74986 185.25762,328.85054 C 190.54962,334.85434 198.02062,332.17447 204.18323,326.29826 C 209.63686,321.09809 213.87773,317.65614 217.86381,314.69285 C 227.7042,307.37741 247.81348,300.38438 251.48477,294.78925 L 285.64366,328.94814 z"
           id="path4179"
           transform="translate(668.92093,819.094)"
           sodipodi:nodetypes="csccccccccccccsssssccsscc" />
        <path
           style="opacity:1;fill:#e20909;fill-opacity:1;stroke:#000000;stroke-width:1.50000000000000000;stroke-linecap:butt;stroke-linejoin:miter;stroke-miterlimit:4;stroke-dasharray:none;stroke-opacity:1"
           d="M 234.61933,353.56378 C 236.90296,352.53542 239.77798,351.56402 237.33169,347.52261 C 235.83452,345.0492 236.70735,342.91982 237.82485,340.61842"
           id="path4181"
           transform="translate(668.92093,819.094)"
           sodipodi:nodetypes="csc" />
        <path
           style="opacity:1;fill:#e20909;fill-opacity:1;stroke:#000000;stroke-width:1.50000000000000000;stroke-linecap:butt;stroke-linejoin:miter;stroke-miterlimit:4;stroke-dasharray:none;stroke-opacity:1"
           d="M 214.89306,329.89226 C 209.31459,337.27713 213.44234,340.77952 217.48213,344.31709"
           id="path4183"
           transform="translate(668.92093,819.094)"
           sodipodi:nodetypes="cc" />
        <path
           style="fill:#e20909;fill-opacity:1;stroke:#000000;stroke-width:1.50000000000000000;stroke-linecap:butt;stroke-linejoin:miter;stroke-miterlimit:4;stroke-dasharray:none;stroke-opacity:1"
           d="M 834.06708,1204.9461 C 832.93859,1202.125 832.99105,1199.3769 837.58055,1196.6992 C 841.78274,1194.2474 843.56184,1195.679 845.59434,1191.0279"
           id="path4185"
           sodipodi:nodetypes="csc" />
        <path
           style="fill:#e20909;fill-opacity:1;stroke:#000000;stroke-width:1.50000000000000000;stroke-linecap:butt;stroke-linejoin:miter;stroke-miterlimit:4;stroke-dasharray:none;stroke-opacity:1"
           d="M 850.20514,1205.0633 C 850.20514,1205.0633 853.13521,1200.6091 849.04644,1198.0554"
           id="path4187"
           sodipodi:nodetypes="cc" />
        <path
           style="fill:#e20909;fill-opacity:1;stroke:#000000;stroke-width:1.50000000000000000;stroke-linecap:butt;stroke-linejoin:miter;stroke-miterlimit:4;stroke-dasharray:none;stroke-opacity:1"
           d="M 827.35153,1199.0236 C 827.0648,1197.2125 828.36404,1195.7539 830.54487,1194.4911"
           id="path4189"
           sodipodi:nodetypes="cc" />
      </g>
      <g
         style="fill:#e20909"
         transform="matrix(0.7022401,0,0,0.70224,-448.50101,24.726156)"
         id="g4191">
        <path
           style="fill:#e20909;fill-opacity:1;stroke:#000000;stroke-width:1.50000000000000000;stroke-linecap:butt;stroke-linejoin:miter;stroke-miterlimit:4;stroke-dasharray:none;stroke-opacity:1"
           d="M 824.38029,1194.0778 C 824.15001,1197.642 822.26978,1199.1437 821.05813,1201.4811 C 819.5177,1201.9835 819.64649,1204.489 819.40049,1206.5448 C 819.40049,1206.5448 812.74154,1202.1213 816.6417,1196.7636 C 818.03575,1194.8486 821.49919,1193.4604 824.38029,1194.0778 z"
           id="path4193"
           sodipodi:nodetypes="cccsc" />
        <path
           style="fill:#e20909;fill-opacity:1;stroke:#000000;stroke-width:1.50000000000000000;stroke-linecap:butt;stroke-linejoin:miter;stroke-miterlimit:4;stroke-dasharray:none;stroke-opacity:1"
           d="M 827.35154,1199.0236 C 821.45076,1205.3051 824.60208,1207.4795 826.52746,1210.0457 C 830.83766,1207.9631 828.87207,1205.1689 831.57498,1204.5862 C 831.57493,1202.835 831.86534,1201.229 831.36896,1199.2296 C 830.02982,1200.163 828.69068,1200.0124 827.35154,1199.0236 z"
           id="path4195"
           sodipodi:nodetypes="ccccc" />
        <path
           style="fill:#e20909;fill-opacity:1;stroke:#000000;stroke-width:1.50000000000000000;stroke-linecap:butt;stroke-linejoin:miter;stroke-miterlimit:4;stroke-dasharray:none;stroke-opacity:1"
           d="M 842.28811,1197.8905 C 841.84028,1202.1168 842.85175,1203.4246 843.73026,1204.9982 C 839.52058,1205.6186 842.52109,1208.2993 837.03455,1210.2518 C 835.9033,1209.1045 831.65888,1201.673 842.28811,1197.8905 z"
           id="path4197"
           sodipodi:nodetypes="cccc" />
        <path
           style="fill:#e20909;fill-opacity:1;stroke:#000000;stroke-width:1.50000000000000000;stroke-linecap:butt;stroke-linejoin:miter;stroke-miterlimit:4;stroke-dasharray:none;stroke-opacity:1"
           d="M 870.10102,1197.8905 C 871.92461,1201.119 871.36264,1201.706 869.90328,1204.2678 C 868.76672,1206.2629 870.17509,1209.1898 872.05823,1209.4277 C 874.48342,1207.2162 878.32804,1204.8818 876.49416,1201.7792 C 875.40786,1199.9414 875.24972,1198.3245 870.10102,1197.8905 z"
           id="path4199"
           sodipodi:nodetypes="cscsc" />
      </g>
      <g
         style="fill:#e20909"
         transform="matrix(0.7022401,0,0,0.70224,-448.50101,24.726156)"
         id="g4201">
        <path
           style="opacity:1;fill:#e20909;fill-opacity:1;stroke:#000000;stroke-width:2.34375000000000000;stroke-linecap:butt;stroke-linejoin:miter;stroke-miterlimit:4;stroke-dasharray:none;stroke-opacity:1"
           d="M 147.09942,333.67775 L 138.85856,304.01064 L 84.056812,313.89968 C 76.528766,327.45605 70.594244,332.40679 65.72089,334.29582 C 61.071067,336.09821 59.235438,338.84372 59.540242,342.53668 C 50.828124,345.63647 45.951763,352.57102 39.96819,358.40034 C 35.630059,362.62664 32.51964,363.08142 28.843024,364.99303 C 21.064406,362.62715 20.987127,367.52682 17.099793,368.90744 C 15.286276,369.28581 13.229099,369.96875 10.095058,371.99777 C 7.3969259,372.15497 5.4915697,371.51939 0.6180648,373.85196 C 3.4051542,377.42661 -6.0506834,389.5762 8.8960191,384.10909 C 11.811757,386.41603 14.928894,389.69608 19.778073,383.94702 C 24.456052,393.021 33.6304,385.97587 31.521305,382.91691 C 35.586761,383.12698 42.124913,377.56892 43.470557,384.35906 C 45.297707,393.57889 64.790244,377.83992 53.153573,374.47003 C 70.601862,373.21267 73.76704,364.75979 81.790575,358.60636 C 72.654976,366.85695 80.659278,372.18251 84.468856,369.58572 C 82.739113,365.64843 83.265111,360.68562 91.47359,358.19432 C 98.31802,356.11702 101.60776,354.36012 105.27704,351.80765 C 101.42392,358.19801 108.38835,363.80376 112.28177,359.69669 C 105.19843,355.52207 110.30682,350.56908 114.59196,348.68709 C 121.89774,345.47847 119.18484,349.77889 132.47189,342.94872 L 147.09942,333.67775 z"
           id="path4203"
           transform="translate(668.92093,819.094)"
           sodipodi:nodetypes="cccscscccccccscccsccscc" />
        <path
           style="opacity:1;fill:#e20909;fill-opacity:1;stroke:#000000;stroke-width:1.50000000000000000;stroke-linecap:butt;stroke-linejoin:miter;stroke-miterlimit:4;stroke-dasharray:none;stroke-opacity:1"
           d="M 50.24367,368.80132 C 61.290045,366.18639 65.733623,360.54518 68.866323,354.30315"
           id="path4205"
           transform="translate(668.92093,819.094)"
           sodipodi:nodetypes="cc" />
        <path
           style="fill:#e20909;fill-opacity:1;stroke:#000000;stroke-width:1.50000000000000000;stroke-linecap:butt;stroke-linejoin:miter;stroke-miterlimit:4;stroke-dasharray:none;stroke-opacity:1"
           d="M 678.29475,1195.7693 C 679.15831,1194.8111 679.59656,1193.1097 682.79418,1192.8947 C 689.18704,1192.4649 692.1092,1190.7779 694.66769,1188.1453"
           id="path4207"
           sodipodi:nodetypes="csc" />
        <path
           style="fill:#e20909;fill-opacity:1;stroke:#000000;stroke-width:1.50000000000000000;stroke-linecap:butt;stroke-linejoin:miter;stroke-miterlimit:4;stroke-dasharray:none;stroke-opacity:1"
           d="M 688.66844,1198.769 C 689.7269,1191.6341 697.84916,1194.5063 702.54169,1192.5197"
           id="path4209"
           sodipodi:nodetypes="cc" />
      </g>
      <g
         style="fill:#e20909"
         transform="matrix(0.7022401,0,0,0.70224,-448.50101,24.726156)"
         id="g4211">
        <path
           style="opacity:1;fill:#e20909;fill-opacity:1;stroke:#000000;stroke-width:2.34375000000000000;stroke-linecap:butt;stroke-linejoin:miter;stroke-miterlimit:4;stroke-dasharray:none;stroke-opacity:1"
           d="M 752.52577,1133.4559 C 743.22162,1128.9804 733.20205,1130.0946 727.95691,1116.5989 C 730.09971,1128.1795 714.28333,1128.4084 715.5841,1121.1388 C 725.93801,1123.2407 724.98664,1112.3984 720.00296,1110.766 C 715.70599,1109.3586 714.53583,1108.5779 714.70033,1103.8726 C 714.56694,1110.0699 714.2764,1113.6722 705.15559,1112.7103 C 707.16995,1110.2648 710.74302,1108.0028 708.51392,1103.6959 C 706.89262,1100.5632 706.62329,1097.7264 707.09989,1094.5046 C 700.00098,1089.9409 698.1643,1084.5241 697.7319,1076.4757 C 695.62938,1098.8949 676.90489,1068.5927 691.899,1070.8195 C 693.83777,1060.5715 688.91092,1054.9005 683.94506,1049.2555 C 661.3956,1049.257 680.18516,1026.1872 686.59637,1039.3572 C 687.8456,1041.3485 690.09579,1047.6415 693.8433,1049.7858 C 690.9411,1046.5918 689.67698,1043.6709 689.6012,1040.948 C 675.5119,1023.0859 709.85623,1026.7797 698.26216,1038.827 C 698.51236,1043.5122 699.33527,1044.7611 700.02971,1046.7809 L 701.09024,1043.4226 C 698.37398,1023.825 718.63029,1042.0418 711.51875,1045.8972 C 709.4866,1046.902 708.49704,1047.092 706.92313,1050.8463 C 711.29872,1055.4773 715.22093,1060.85 718.58892,1066.9309 C 722.81273,1074.557 731.88695,1075.0942 738.73893,1080.1875 C 754.64353,1092.0101 756.99141,1088.2285 764.54507,1090.2625 L 752.52577,1133.4559 z"
           id="path4213"
           sodipodi:nodetypes="cccsccsccccccccccccsscc" />
        <path
           style="opacity:1;fill:#e20909;fill-opacity:1;stroke:#000000;stroke-width:1.50000000000000000;stroke-linecap:butt;stroke-linejoin:miter;stroke-miterlimit:4;stroke-dasharray:none;stroke-opacity:1"
           d="M 43.51467,262.06836 C 43.548314,267.07156 43.867274,271.96064 47.533541,275.51079"
           id="path4215"
           transform="translate(668.92093,819.094)"
           sodipodi:nodetypes="cc" />
        <path
           style="opacity:1;fill:#e20909;fill-opacity:1;stroke:#000000;stroke-width:1.50000000000000000;stroke-linecap:butt;stroke-linejoin:miter;stroke-miterlimit:4;stroke-dasharray:none;stroke-opacity:1"
           d="M 41.990271,255.00069 C 40.413851,260.2206 39.88723,265.44052 41.990271,270.66043"
           id="path4217"
           transform="translate(668.92093,819.094)"
           sodipodi:nodetypes="cc" />
        <path
           style="opacity:1;fill:#e20909;fill-opacity:1;stroke:#000000;stroke-width:1.50000000000000000;stroke-linecap:butt;stroke-linejoin:miter;stroke-miterlimit:4;stroke-dasharray:none;stroke-opacity:1"
           d="M 32.42813,240.03386 C 35.359369,244.32229 34.710637,247.93947 31.735221,251.1204"
           id="path4219"
           transform="translate(668.92093,819.094)"
           sodipodi:nodetypes="cc" />
        <path
           style="opacity:1;fill:#e20909;fill-opacity:1;stroke:#000000;stroke-width:1.50000000000000000;stroke-linecap:butt;stroke-linejoin:miter;stroke-miterlimit:4;stroke-dasharray:none;stroke-opacity:1"
           d="M 37.278491,249.18026 L 36.447001,255.13928"
           id="path4221"
           transform="translate(668.92093,819.094)" />
      </g>
      <g
         transform="matrix(0.7022401,0,0,0.70224,-448.50101,24.726156)"
         id="g4223">
        <path
           style="opacity:1;fill:#e20909;fill-opacity:1;stroke:#000000;stroke-width:1.50000000000000000;stroke-linecap:butt;stroke-linejoin:miter;stroke-miterlimit:4;stroke-dasharray:none;stroke-opacity:1"
           d="M 240.53721,311.1523 C 248.09895,311.91156 264.91876,313.60769 261.98953,320.52228 C 260.01644,325.17985 266.29564,326.13342 270.74306,326.44016 C 274.83883,326.72265 275.71267,325.27396 276.29108,324.34424 L 261.2498,308.22073 C 256.48331,308.34856 244.58661,306.79492 240.53721,311.1523 z"
           id="path4225"
           transform="translate(668.92093,819.094)"
           sodipodi:nodetypes="cssccc" />
        <path
           style="opacity:1;fill:#e20909;fill-opacity:1;stroke:#000000;stroke-width:2.34375000000000000;stroke-linecap:butt;stroke-linejoin:miter;stroke-miterlimit:4;stroke-dasharray:none;stroke-opacity:1"
           d="M 172.85806,256.90126 C 189.13006,260.61227 205.34075,257.06631 218.06484,258.37071 C 224.49829,259.03023 234.52796,262.25959 249.22464,261.50646 C 265.16015,260.68984 273.46106,263.01288 283.39314,266.34866 C 299.46225,271.74561 306.03077,285.52674 315.53455,296.53023 C 325.34556,307.88942 334.1058,315.2412 353.19469,311.63494 C 356.45917,309.03095 359.05859,311.14264 360.83644,313.47181 C 364.71815,318.55724 367.75875,313.05992 369.8747,310.57198 C 374.89113,304.67364 381.51669,309.97373 379.714,313.89794 C 372.88867,309.57749 375.68144,320.31088 369.32037,322.21284 C 372.15084,321.15007 376.83518,313.42137 379.43684,317.50106 C 375.9678,318.4129 376.83571,323.37242 370.84477,326.09313 C 373.63662,326.56118 377.25399,319.16663 379.29826,325.60809 C 374.70777,324.58874 376.69602,334.69579 370.5676,330.66633 C 372.96078,335.26731 381.34875,335.87123 375.97229,344.94025 C 373.76324,340.73578 373.15457,342.839 370.77548,339.60486 C 372.90824,348.90483 370.74945,355.05766 367.38022,360.32283 C 384.38079,363.33341 370.98676,383.31672 363.98497,375.84398 C 363.39946,376.57095 362.46859,376.77989 361.14405,376.39831 C 362.85803,387.10181 349.90119,389.25093 344.65282,378.7542 C 342.86411,388.69413 330.67416,384.04632 330.93322,380.97151 C 329.78312,383.14553 321.65752,387.94202 319.7081,380.00143 C 319.36586,377.59024 320.39557,374.72174 321.09392,371.96369 C 323.17265,369.65682 325.25137,369.8948 327.3301,371.27078 C 329.1578,370.11533 329.70146,368.46601 336.06075,369.05348 C 346.8844,358.72911 341.6723,352.57308 339.456,348.75124 C 332.04644,335.97404 315.66774,344.03371 302.80113,339.67414 C 306.60065,350.39159 296.71614,352.43778 290.32877,352.56225 C 287.58001,352.61581 284.34317,352.48689 284.09259,358.52126 C 281.50179,357.55315 277.6575,350.26527 287.00281,348.82054 C 297.70705,347.16573 299.40973,340.3483 290.1209,335.5167 C 268.73021,324.3903 271.16915,322.75817 267.04704,316.94674 C 258.36974,304.71331 238.44773,306.21297 216.74186,310.01765 C 211.11044,311.00474 206.97887,312.88556 203.43801,315.00659 C 197.42446,318.60881 192.60176,319.26427 187.50111,319.30263 C 182.60901,319.33943 180.37992,321.45191 177.24606,323.18292 C 168.65292,327.92939 163.71326,328.17875 159.23043,328.44902 L 172.85806,256.90126 z"
           id="path4227"
           transform="translate(668.92093,819.094)"
           sodipodi:nodetypes="csssscsscccccccccccccccccscscssssssscc" />
        <path
           style="opacity:1;fill:none;fill-opacity:1;stroke:#000000;stroke-width:1.5;stroke-linecap:butt;stroke-linejoin:miter;stroke-miterlimit:4;stroke-dasharray:none;stroke-opacity:1"
           d="M 347.19185,318.06709 C 351.81819,318.87705 359.51164,314.96441 361.06677,320.50446 C 361.71809,322.82475 360.38614,325.65132 361.739,326.79538"
           id="path4229"
           transform="translate(668.92093,819.094)"
           sodipodi:nodetypes="csc" />
        <path
           style="opacity:1;fill:none;fill-opacity:1;stroke:#000000;stroke-width:1.5;stroke-linecap:butt;stroke-linejoin:miter;stroke-miterlimit:4;stroke-dasharray:none;stroke-opacity:1"
           d="M 360.7576,341.6274 C 366.02721,343.61741 365.6493,346.97651 366.28815,350.08913"
           id="path4231"
           transform="translate(668.92093,819.094)"
           sodipodi:nodetypes="cc" />
        <path
           style="opacity:1;fill:none;fill-opacity:1;stroke:#000000;stroke-width:1.5;stroke-linecap:butt;stroke-linejoin:miter;stroke-miterlimit:4;stroke-dasharray:none;stroke-opacity:1"
           d="M 358.7113,334.99074 C 361.27475,336.3286 363.81621,337.70677 365.51387,340.6319"
           id="path4233"
           transform="translate(668.92093,819.094)"
           sodipodi:nodetypes="cc" />
        <path
           style="opacity:1;fill:none;fill-opacity:1;stroke:#000000;stroke-width:1.5;stroke-linecap:butt;stroke-linejoin:miter;stroke-miterlimit:4;stroke-dasharray:none;stroke-opacity:1"
           d="M 357.05213,328.24347 C 359.01795,329.88735 360.8934,331.07935 363.13574,334.10585"
           id="path4235"
           transform="translate(668.92093,819.094)"
           sodipodi:nodetypes="cc" />
        <path
           style="fill:none;fill-opacity:1;stroke:#000000;stroke-width:1.5;stroke-linecap:butt;stroke-linejoin:miter;stroke-miterlimit:4;stroke-dasharray:none;stroke-opacity:1"
           d="M 1013.6399,1198.0526 C 1012.844,1194.5835 1013.8585,1191.9752 1016.6817,1190.5864 C 1019.3694,1189.2641 1021.8049,1187.8562 1021.6592,1183.7838"
           id="path4237"
           sodipodi:nodetypes="csc" />
        <path
           style="fill:none;fill-opacity:1;stroke:#000000;stroke-width:1.5;stroke-linecap:butt;stroke-linejoin:miter;stroke-miterlimit:4;stroke-dasharray:none;stroke-opacity:1"
           d="M 999.81357,1194.9555 C 1000.3349,1191.9627 1002.186,1189.0933 1006.229,1189.6462 C 1008.5106,1189.9582 1010.8844,1189.8755 1014.0271,1186.0513"
           id="path4239"
           sodipodi:nodetypes="csc" />
        <path
           style="fill:none;fill-opacity:1;stroke:#000000;stroke-width:1.5;stroke-linecap:butt;stroke-linejoin:miter;stroke-miterlimit:4;stroke-dasharray:none;stroke-opacity:1"
           d="M 1032.9969,1195.1214 C 1033.9339,1193.5643 1036.6504,1189.6996 1034.7666,1185.2217"
           id="path4241"
           sodipodi:nodetypes="cc" />
        <path
           style="opacity:1;fill:none;fill-opacity:1;stroke:#000000;stroke-width:1.5;stroke-linecap:butt;stroke-linejoin:miter;stroke-miterlimit:4;stroke-dasharray:none;stroke-opacity:1"
           d="M 302.21793,320.84644 C 309.26644,324.57708 326.3775,324.43751 323.17921,332.10922"
           id="path4243"
           transform="translate(668.92093,819.094)"
           sodipodi:nodetypes="cc" />
        <path
           style="opacity:1;fill:none;fill-opacity:1;stroke:#000000;stroke-width:1.5;stroke-linecap:butt;stroke-linejoin:miter;stroke-miterlimit:4;stroke-dasharray:none;stroke-opacity:1"
           d="M 271.55814,273.29248 C 287.81798,276.45336 301.63866,279.90721 314.60461,295.42018"
           id="path4246"
           transform="translate(668.92093,819.094)"
           sodipodi:nodetypes="cc" />
        <path
           style="opacity:1;fill:none;fill-opacity:1;stroke:#000000;stroke-width:1.5;stroke-linecap:butt;stroke-linejoin:miter;stroke-miterlimit:4;stroke-dasharray:none;stroke-opacity:1"
           d="M 212.42854,299.5723 C 199.38675,301.32906 201.71188,313.30203 187.713,315.05862 C 190.3733,312.0901 193.47178,310.65521 195.37795,305.04726"
           id="path4248"
           transform="translate(668.92093,819.094)"
           sodipodi:nodetypes="ccc" />
        <path
           style="opacity:1;fill:none;fill-opacity:1;stroke:#000000;stroke-width:1.5;stroke-linecap:butt;stroke-linejoin:miter;stroke-miterlimit:4;stroke-dasharray:none;stroke-opacity:1"
           d="M 188.64564,285.56647 C 188.47057,281.99223 190.30036,278.18591 184.23763,274.84374 C 182.13469,273.68446 180.51471,272.27152 179.41136,270.2273"
           id="path4250"
           transform="translate(668.92093,819.094)"
           sodipodi:nodetypes="csc" />
        <path
           style="opacity:1;fill:none;fill-opacity:1;stroke:#000000;stroke-width:1.5;stroke-linecap:butt;stroke-linejoin:miter;stroke-miterlimit:4;stroke-dasharray:none;stroke-opacity:1"
           d="M 174.44843,320.39125 C 175.53548,315.62402 178.65917,309.25617 173.74574,301.49314"
           id="path4252"
           transform="translate(668.92093,819.094)"
           sodipodi:nodetypes="cc" />
        <path
           style="opacity:1;fill:none;fill-opacity:1;stroke:#000000;stroke-width:1.5;stroke-linecap:butt;stroke-linejoin:miter;stroke-miterlimit:4;stroke-dasharray:none;stroke-opacity:1"
           d="M 179.89162,317.09218 L 179.89162,317.09218 C 182.9126,315.12675 186.02667,314.18532 188.65156,307.86296"
           id="path4254"
           transform="translate(668.92093,819.094)"
           sodipodi:nodetypes="ccc" />
      </g>
      <g
         style="fill:#e20909"
         transform="matrix(0.7022401,0,0,0.70224,-448.50101,24.726156)"
         id="g4256">
        <path
           style="fill:#e20909;fill-opacity:1;stroke:#000000;stroke-width:1.50000000000000000;stroke-linecap:butt;stroke-linejoin:miter;stroke-miterlimit:4;stroke-dasharray:none;stroke-opacity:1"
           d="M 984.05583,1205.3316 C 987.27568,1204.7406 984.9533,1198.3222 990.47917,1198.6311 C 991.33212,1196.6326 993.88781,1194.7313 991.53925,1191.3349 C 979.01746,1192.4381 982.84473,1203.2904 984.05583,1205.3316 z"
           id="path4258"
           sodipodi:nodetypes="cccc" />
        <path
           style="fill:#e20909;fill-opacity:1;stroke:#000000;stroke-width:1.50000000000000000;stroke-linecap:butt;stroke-linejoin:miter;stroke-miterlimit:4;stroke-dasharray:none;stroke-opacity:1"
           d="M 998.19953,1205.9198 C 1001.1869,1206.1856 1000.5294,1199.4619 1004.6,1198.6051 C 1003.7023,1197.2797 1003.0325,1195.8688 1003.3427,1194.0905 C 994.97657,1194.2124 995.74673,1203.8323 998.19953,1205.9198 z"
           id="path4260"
           sodipodi:nodetypes="cccc" />
        <path
           sodipodi:nodetypes="cccc"
           id="path4262"
           d="M 1016.1995,1207.9198 C 1019.1869,1208.1856 1016.5294,1201.4619 1020.6,1200.6051 C 1019.7023,1199.2797 1019.0325,1197.8688 1019.3427,1196.0905 C 1010.9766,1196.2124 1013.7467,1205.8323 1016.1995,1207.9198 z"
           style="fill:#e20909;fill-opacity:1;stroke:#000000;stroke-width:1.50000000000000000;stroke-linecap:butt;stroke-linejoin:miter;stroke-miterlimit:4;stroke-dasharray:none;stroke-opacity:1" />
        <path
           style="fill:#e20909;fill-opacity:1;stroke:#000000;stroke-width:1.50000000000000000;stroke-linecap:butt;stroke-linejoin:miter;stroke-miterlimit:4;stroke-dasharray:none;stroke-opacity:1"
           d="M 1044.6848,1196.8912 C 1041.6974,1197.157 1044.3549,1190.4333 1040.2843,1189.5765 C 1039.0214,1189.1855 1037.8413,1184.4852 1041.5416,1185.0619 C 1049.3937,1186.2857 1047.1376,1194.8037 1044.6848,1196.8912 z"
           id="path4264"
           sodipodi:nodetypes="ccsc" />
      </g>
      <g
         style="fill:#e20909"
         transform="matrix(0.7022401,0,0,0.70224,-448.50101,24.726156)"
         id="g4266">
        <path
           style="fill:#e20909;fill-opacity:1;stroke:#000000;stroke-width:1.50000000000000000;stroke-linecap:butt;stroke-linejoin:miter;stroke-miterlimit:4;stroke-dasharray:none;stroke-opacity:1"
           d="M 672.67046,1199.6438 C 675.75644,1197.5693 674.11591,1190.8046 669.04591,1192.6447 C 661.13996,1195.5142 662.04314,1203.7265 663.92156,1205.0182 C 666.18546,1202.9549 666.73294,1200.1764 672.67046,1199.6438 z"
           id="path4268"
           sodipodi:nodetypes="cscc" />
        <path
           style="fill:#e20909;fill-opacity:1;stroke:#000000;stroke-width:1.50000000000000000;stroke-linecap:butt;stroke-linejoin:miter;stroke-miterlimit:4;stroke-dasharray:none;stroke-opacity:1"
           d="M 674.79519,1209.5176 C 668.98683,1206.0558 676.44403,1196.5042 678.41973,1196.0193 C 682.93181,1194.912 683.7836,1197.8601 683.4191,1202.3935 C 679.05772,1200.9026 677.64178,1207.07 674.79519,1209.5176 z"
           id="path4270"
           sodipodi:nodetypes="cscc" />
        <path
           style="fill:#e20909;fill-opacity:1;stroke:#000000;stroke-width:1.50000000000000000;stroke-linecap:butt;stroke-linejoin:miter;stroke-miterlimit:4;stroke-dasharray:none;stroke-opacity:1"
           d="M 692.79292,1198.519 C 683.42026,1197.2454 684.39276,1210.1069 689.66832,1211.2674 C 690.67223,1208.0165 691.71066,1205.1109 693.04289,1205.1432 C 692.19579,1203.5461 691.97591,1201.4473 692.79292,1198.519 z"
           id="path4272"
           sodipodi:nodetypes="cccc" />
        <path
           sodipodi:nodetypes="cccc"
           id="path4274"
           d="M 718.57845,1198.0191 C 727.70114,1197.3704 725.35381,1208.3571 720.82816,1210.3925 C 719.82425,1207.1416 718.78582,1204.236 717.45359,1204.2683 C 718.30069,1202.6712 719.39546,1200.9474 718.57845,1198.0191 z"
           style="fill:#e20909;fill-opacity:1;stroke:#000000;stroke-width:1.50000000000000000;stroke-linecap:butt;stroke-linejoin:miter;stroke-miterlimit:4;stroke-dasharray:none;stroke-opacity:1" />
      </g>
      <g
         style="fill:#e20909"
         transform="matrix(0.7022401,0,0,0.70224,-448.50101,24.726156)"
         id="g4276">
        <path
           style="opacity:1;fill:#e20909;fill-opacity:1;stroke:#000000;stroke-width:1.50000000000000000;stroke-linecap:butt;stroke-linejoin:miter;stroke-miterlimit:4;stroke-dasharray:none;stroke-opacity:1"
           d="M 675.81435,1040.5945 C 675.48764,1033.4631 670.68133,1036.5708 667.33014,1036.3524 C 671.40821,1026.5539 684.26651,1031.2226 685.7126,1039.1805 C 682.01911,1044.3807 677.85266,1042.3534 675.81435,1040.5945 z"
           id="path4278"
           sodipodi:nodetypes="cccc" />
        <path
           style="opacity:1;fill:#e20909;fill-opacity:1;stroke:#000000;stroke-width:1.50000000000000000;stroke-linecap:butt;stroke-linejoin:miter;stroke-miterlimit:4;stroke-dasharray:none;stroke-opacity:1"
           d="M 688.71743,1076.2989 C 684.42255,1078.772 680.97514,1075.2341 679.34944,1077.1827 C 681.77853,1083.2631 686.19886,1085.4475 690.48497,1082.8388 C 693.17093,1081.2041 694.05046,1078.9527 693.31304,1077.3594 C 692.71231,1076.0615 690.83842,1075.0776 688.71743,1076.2989 z"
           id="path4280"
           sodipodi:nodetypes="ccsss" />
        <path
           sodipodi:nodetypes="cccc"
           id="path4282"
           d="M 690.4611,1030.9726 C 693.74387,1024.6332 688.2044,1025.2749 685.41138,1023.4101 C 693.84232,1016.9635 700.46687,1027.0822 697.74027,1034.6971 C 691.94152,1037.3538 691.3469,1033.5149 690.4611,1030.9726 z"
           style="opacity:1;fill:#e20909;fill-opacity:1;stroke:#000000;stroke-width:1.50000000000000000;stroke-linecap:butt;stroke-linejoin:miter;stroke-miterlimit:4;stroke-dasharray:none;stroke-opacity:1" />
        <path
           style="opacity:1;fill:#e20909;fill-opacity:1;stroke:#000000;stroke-width:1.50000000000000000;stroke-linecap:butt;stroke-linejoin:miter;stroke-miterlimit:4;stroke-dasharray:none;stroke-opacity:1"
           d="M 704.56307,1034.8783 C 709.81606,1030.0441 704.39119,1028.7524 702.40442,1026.0448 C 712.53176,1022.8706 715.29601,1034.6447 710.12941,1040.8678 C 703.77171,1041.381 704.52593,1037.5703 704.56307,1034.8783 z"
           id="path4284"
           sodipodi:nodetypes="cccc" />
      </g>
      <g
         transform="matrix(0.7022401,0,0,0.70224,-729.39704,24.726156)"
         id="g4286">
        <path
           style="opacity:1;fill:#e20909;fill-opacity:1;stroke:#000000;stroke-width:2.34375000000000000;stroke-miterlimit:4;stroke-dasharray:none;stroke-opacity:1"
           d="M 1172.9541,1080.0988 C 1160.5673,1084.5845 1158.9885,1097.0218 1147.8083,1099.7689 C 1144.0979,1100.6806 1137.3026,1097.0284 1143.4039,1089.6079 C 1133.9363,1090.7541 1130.1517,1106.756 1151.7947,1106.7852 C 1144.797,1109.099 1140.2093,1106.8366 1136.5464,1105.1763 C 1138.3161,1112.1988 1141.688,1116.4344 1153.2676,1112.9717 C 1160.779,1100.9675 1168.304,1098.6668 1173.7457,1098.418 C 1157.6207,1098.9884 1153.1084,1117.217 1144.9654,1123.3573 C 1140.1854,1126.9617 1128.8907,1128.4105 1130.1481,1119.859 C 1114.8786,1132.6141 1139.2374,1142.2355 1150.189,1129.2949 C 1146.728,1135.1256 1139.3374,1136.9064 1134.6842,1136.4372 C 1139.3941,1140.6427 1147.3236,1144.904 1159.689,1132.7904 C 1163.7785,1128.7843 1169.0691,1130.6937 1170.9149,1128.7088 C 1176.0445,1123.1927 1164.2259,1115.4455 1177.0458,1105.3626 C 1173.0342,1108.8127 1169.3008,1115.2903 1171.9493,1121.4248 C 1174.373,1127.0383 1170.8465,1130.438 1163.3072,1136.231 C 1150.7079,1145.912 1156.8534,1159.7902 1161.861,1159.8839 C 1162.3793,1155.7076 1162.7177,1151.509 1167.0239,1147.8042 C 1159.6471,1157.0224 1159.0577,1170.5111 1174.7551,1167.3975 C 1167.643,1165.3264 1166.5334,1152.0269 1180.285,1147.7936 C 1207.8066,1139.3214 1208.7306,1134.1817 1199.8097,1120.7321 C 1207.1111,1128.2912 1208.6298,1136.7058 1199.8096,1142.6292 C 1188.6698,1150.1104 1186.8286,1168.1985 1200.7192,1174.5343 C 1195.189,1165.1053 1196.1099,1153.9198 1204.0346,1146.2958 C 1193.3859,1158.7566 1197.7187,1175.4012 1207.4081,1179.8983 C 1212.7732,1182.3883 1217.6951,1181.2463 1221.665,1175.9468 C 1212.9033,1178.662 1210.5303,1175.0534 1211.0547,1169.033 C 1212.0115,1158.0468 1226.8032,1158.2238 1227.513,1150.8388 C 1233.6732,1163.4341 1248.175,1156.6943 1246.5433,1148.9034 C 1233.408,1154.0805 1237.8709,1141.6805 1243.3694,1139.4853 C 1246.889,1132.6228 1254.4105,1123.6044 1248.0278,1115.9692 C 1253.2169,1121.7047 1257.9596,1122.3388 1262.3114,1118.5054 C 1259.5391,1116.7849 1254.9865,1115.3314 1256.3908,1109.5588 C 1260.3531,1093.2702 1260.0334,1093.3224 1257.3175,1090.0193 C 1254.7346,1086.8778 1247.3591,1085.7634 1251.5579,1074.7319 C 1252.1123,1073.2756 1252.7786,1072.4808 1252.816,1070.5656 C 1258.3305,1072.2536 1259.842,1067.4259 1261.6217,1063.0347 C 1258.7766,1062.4751 1255.3137,1066.8588 1255.0911,1061.3473 C 1254.2625,1058.1731 1253.47,1051.0017 1254.2693,1047.9546 C 1253.6573,1045.4576 1255.6684,1044.3294 1250.1467,1043.014 C 1248.2889,1037.7902 1250.5154,1027.8984 1241.5719,1030.7725 C 1240.4462,1028.9865 1238.8119,1026.2469 1234.8762,1027.8671 C 1232.5448,1024.7409 1229.9628,1025.8371 1227.1709,1026.8945 C 1227.6709,1024.1212 1224.7517,1022.1394 1221.2077,1024.7516 C 1219.2762,1019.8175 1213.871,1021.9353 1211.4751,1023.6706 C 1207.0026,1021.0671 1203.7203,1022.674 1200.8344,1025.6832 C 1198.1724,1021.2966 1191.4111,1024.8285 1190.6836,1027.1121 L 1183.1667,1035.7868 C 1176.2934,1039.0722 1179.4502,1054.3138 1168.9063,1051.1524 C 1167.6246,1054.4783 1171.0446,1056.0992 1173.5657,1058.0461 C 1169.3009,1064.2368 1172.8867,1066.9402 1172.659,1073.6346 C 1169.0548,1079.8744 1164.8348,1076.4034 1159.942,1076.6402 C 1153.6011,1076.947 1154.3819,1080.5026 1151.5815,1079.6383 C 1149.568,1079.0168 1148.0151,1075.406 1150.3714,1072.3395 C 1146.8006,1071.6818 1137.9394,1084.7429 1152.8033,1088.1515 C 1158.3097,1089.4143 1165.5903,1082.6721 1172.9541,1080.0988 z"
           id="path4288"
           sodipodi:nodetypes="cscccccscccsscsscccscsccscscccccsssccccccccccccccccsscsc" />
        <g
           id="g4290"
           transform="translate(400,0)">
          <path
             sodipodi:nodetypes="cc"
             transform="translate(668.92093,819.094)"
             id="path4292"
             d="M 179.7179,297.64606 C 175.5947,293.72598 177.10783,288.39681 179.6212,282.81758"
             style="opacity:1;fill:none;fill-opacity:1;stroke:#000000;stroke-width:1.5;stroke-linecap:butt;stroke-linejoin:miter;stroke-miterlimit:4;stroke-dasharray:none;stroke-opacity:1" />
          <path
             sodipodi:nodetypes="csc"
             transform="translate(668.92093,819.094)"
             id="path4294"
             d="M 153.39147,331.91963 C 157.62635,325.61028 161.0511,319.38485 156.11936,312.40471 C 153.54565,308.76201 148.03128,307.07172 153.39147,298.13574"
             style="opacity:1;fill:none;fill-opacity:1;stroke:#000000;stroke-width:1.5;stroke-linecap:butt;stroke-linejoin:miter;stroke-miterlimit:4;stroke-dasharray:none;stroke-opacity:1" />
          <path
             sodipodi:nodetypes="ccc"
             id="path4296"
             d="M 789.7437,1040.24 C 788.208,1035.3205 783.26172,1038.1297 786.31801,1022.8039 C 799.00939,1022.6315 796.93657,1029.4145 800.35422,1033.6109"
             style="opacity:1;fill:#e20909;fill-opacity:1;stroke:#000000;stroke-width:1.50000000000000000;stroke-miterlimit:4;stroke-dasharray:none;stroke-opacity:1" />
          <path
             style="opacity:1;fill:#e20909;fill-opacity:1;stroke:#000000;stroke-width:1.50000000000000000;stroke-miterlimit:4;stroke-dasharray:none;stroke-opacity:1"
             d="M 838.50959,1041.5287 C 842.00208,1037.7389 837.09609,1034.86 851.89684,1029.8439 C 858.39177,1040.7487 851.48121,1042.3451 849.55581,1047.403"
             id="path4298"
             sodipodi:nodetypes="ccc" />
          <path
             sodipodi:nodetypes="ccccccccccccc"
             id="path4300"
             d="M 794.21369,1086.372 C 794.15544,1089.5442 787.40665,1093.3017 794.41003,1095.8561 C 789.75099,1101.4874 797.66369,1102.9099 795.73778,1108.6195 C 797.59601,1109.8788 799.20677,1109.7621 799.73477,1103.6247 C 799.16452,1109.6051 803.11006,1111.2128 802.66549,1115.4033 C 804.69399,1114.5046 808.09988,1116.0677 805.51273,1106.9197 C 806.48703,1109.9521 809.54327,1111.3887 808.3441,1116.0871 C 810.18013,1115.779 813.34906,1114.7781 813.18688,1112.5825 C 816.1477,1114.1539 819.07514,1115.1968 821.45693,1107.5728 C 823.62096,1107.4099 826.21325,1107.6603 823.52232,1102.8104 C 828.15936,1108.0356 828.20403,1104.2068 827.60423,1098.7864 C 833.69031,1104.7082 829.75727,1094.0414 829.75272,1090.6459 C 829.98754,1087.3866 830.97087,1083.9168 832.50831,1082.6856"
             style="opacity:1;fill:#e20909;fill-opacity:1;stroke:#000000;stroke-width:1.50000000000000000;stroke-miterlimit:4;stroke-dasharray:none;stroke-opacity:1" />
          <path
             sodipodi:nodetypes="cccc"
             id="path4302"
             d="M 821.25481,1068.1096 C 825.37113,1064.1105 823.66506,1061.1803 820.29384,1058.11 C 822.16001,1055.5843 818.849,1052.9602 818.67209,1050.4091 L 820.58477,1045.674"
             style="opacity:1;fill:none;fill-opacity:1;stroke:#000000;stroke-width:1.5;stroke-miterlimit:4;stroke-dasharray:none;stroke-opacity:1" />
          <path
             sodipodi:nodetypes="cc"
             id="path4304"
             d="M 789.12583,1050.5809 C 785.00332,1056.913 786.69317,1060.5917 789.33729,1063.8349"
             style="opacity:1;fill:none;fill-opacity:1;stroke:#000000;stroke-width:1.5;stroke-miterlimit:4;stroke-dasharray:none;stroke-opacity:1" />
          <path
             sodipodi:nodetypes="cc"
             id="path4306"
             d="M 783.49673,1060.1228 C 781.13929,1062.9238 778.38204,1063.9604 777.06901,1071.372"
             style="opacity:1;fill:none;fill-opacity:1;stroke:#000000;stroke-width:1.5;stroke-miterlimit:4;stroke-dasharray:none;stroke-opacity:1" />
          <path
             sodipodi:nodetypes="cc"
             id="path4308"
             d="M 783.22849,1052.1311 C 779.57563,1053.5416 777.79106,1057.1367 775.28906,1059.8928"
             style="opacity:1;fill:none;fill-opacity:1;stroke:#000000;stroke-width:1.5;stroke-miterlimit:4;stroke-dasharray:none;stroke-opacity:1" />
          <path
             sodipodi:nodetypes="cc"
             id="path4310"
             d="M 789.30621,1068.4054 C 786.66936,1090.9498 774.02089,1083.7313 768.56177,1091.3"
             style="opacity:1;fill:none;fill-opacity:1;stroke:#000000;stroke-width:1.5;stroke-miterlimit:4;stroke-dasharray:none;stroke-opacity:1" />
          <path
             sodipodi:nodetypes="cc"
             id="path4312"
             d="M 791.26593,1075.0425 C 792.23239,1077.3749 786.40979,1089.6581 784.62861,1090.7917"
             style="opacity:1;fill:none;fill-opacity:1;stroke:#000000;stroke-width:1.5;stroke-miterlimit:4;stroke-dasharray:none;stroke-opacity:1" />
          <path
             sodipodi:nodetypes="cc"
             id="path4314"
             d="M 785.3342,1095.901 C 790.00408,1092.6815 791.7035,1086.9866 792.42903,1080.4565"
             style="opacity:1;fill:none;fill-opacity:1;stroke:#000000;stroke-width:1.5;stroke-miterlimit:4;stroke-dasharray:none;stroke-opacity:1" />
          <path
             sodipodi:nodetypes="cc"
             id="path4316"
             d="M 839.48459,1053.8455 C 840.51414,1057.4327 841.22283,1061.0479 839.33054,1064.8906"
             style="opacity:1;fill:none;fill-opacity:1;stroke:#000000;stroke-width:1.5;stroke-miterlimit:4;stroke-dasharray:none;stroke-opacity:1" />
          <path
             sodipodi:nodetypes="cc"
             id="path4318"
             d="M 840.1879,1068.7801 C 838.53204,1070.5005 838.46353,1073.2077 837.67008,1075.4642"
             style="opacity:1;fill:none;fill-opacity:1;stroke:#000000;stroke-width:1.5;stroke-miterlimit:4;stroke-dasharray:none;stroke-opacity:1" />
          <path
             sodipodi:nodetypes="cc"
             id="path4320"
             d="M 835.59277,1078.3177 C 834.54222,1080.9952 834.38746,1083.5942 833.7858,1086.2324"
             style="opacity:1;fill:none;fill-opacity:1;stroke:#000000;stroke-width:1.5;stroke-miterlimit:4;stroke-dasharray:none;stroke-opacity:1" />
          <path
             sodipodi:nodetypes="cc"
             id="path4322"
             d="M 791.2874,1066.4221 C 792.9601,1064.4261 794.88823,1062.4789 798.14694,1063.0641"
             style="opacity:1;fill:none;fill-opacity:1;stroke:#000000;stroke-width:1.5;stroke-miterlimit:4;stroke-dasharray:none;stroke-opacity:1" />
          <path
             sodipodi:nodetypes="cc"
             id="path4324"
             d="M 830.79996,1065.8955 C 834.07344,1065.5688 835.42742,1067.3521 835.98626,1070.0096"
             style="opacity:1;fill:none;fill-opacity:1;stroke:#000000;stroke-width:1.5;stroke-miterlimit:4;stroke-dasharray:none;stroke-opacity:1" />
          <path
             style="opacity:1;fill:none;fill-opacity:1;stroke:#000000;stroke-width:1.5;stroke-miterlimit:4;stroke-dasharray:none;stroke-opacity:1"
             d="M 805.12496,1067.4318 C 801.15858,1061.7272 802.82324,1059.6508 807.82558,1058.2316 C 806.42633,1055.4202 810.1248,1052.9304 810.74217,1050.4488 L 809.68076,1045.4535"
             id="path4326"
             sodipodi:nodetypes="cccc" />
          <path
             sodipodi:nodetypes="cccccc"
             id="path4328"
             d="M 794.2607,1056.0784 L 795.53084,1052.8647 L 799.55501,1053.5468 L 802.84155,1051.708 L 804.85143,1054.9795 C 801.74714,1058.7088 798.13771,1058.4415 794.2607,1056.0784 z"
             style="opacity:1;fill:none;fill-opacity:1;stroke:#000000;stroke-width:1.5;stroke-miterlimit:4;stroke-dasharray:none;stroke-opacity:1" />
          <path
             id="path4330"
             d="M 796.71686,1057.4026 L 797.57015,1053.5617 L 800.32423,1053.3208 L 803.02913,1057.0486 L 796.71686,1057.4026 z"
             style="opacity:1;fill:#000000;fill-opacity:1;stroke:none;stroke-width:1.5;stroke-miterlimit:4;stroke-dasharray:none;stroke-opacity:1" />
          <path
             style="opacity:1;fill:none;fill-opacity:1;stroke:#000000;stroke-width:1.5;stroke-miterlimit:4;stroke-dasharray:none;stroke-opacity:1"
             d="M 837.19755,1058.5827 L 835.92742,1055.3689 L 831.90326,1056.0511 L 828.61669,1054.2122 L 826.60677,1057.4837 C 829.71111,1061.213 833.32045,1060.9458 837.19755,1058.5827 z"
             id="path4332"
             sodipodi:nodetypes="cccccc" />
          <path
             style="opacity:1;fill:#000000;fill-opacity:1;stroke:none;stroke-width:1.5;stroke-miterlimit:4;stroke-dasharray:none;stroke-opacity:1"
             d="M 834.44034,1059.6059 L 833.58703,1055.7649 L 830.83305,1055.524 L 828.12806,1059.2519 L 834.44034,1059.6059 z"
             id="path4334" />
          <path
             sodipodi:nodetypes="cccccc"
             id="path4336"
             d="M 806.79072,1065.3243 C 809.13151,1067.0854 811.52077,1068.8244 812.97443,1070.9886 C 814.38108,1068.6745 816.82384,1067.4762 819.28656,1066.2995 C 818.02436,1065.8888 816.77423,1065.452 814.82409,1066.5176 C 813.23347,1067.0263 811.9968,1066.4897 810.79992,1065.8354 C 808.81422,1064.7289 807.98508,1065.1536 806.79072,1065.3243 z"
             style="opacity:1;fill:#000000;fill-opacity:1;stroke:none;stroke-width:1.5;stroke-miterlimit:4;stroke-dasharray:none;stroke-opacity:1" />
          <path
             sodipodi:nodetypes="csscscccccccc"
             id="path4338"
             d="M 798.27168,1065.8083 C 799.21704,1068.8484 800.24697,1071.8695 802.85035,1073.4125 C 805.5955,1075.0395 807.33627,1074.3366 810.08081,1073.3728 L 812.55452,1072.5042 C 814.29303,1073.0136 815.73937,1073.8986 817.71366,1074.5432 C 822.99121,1076.2661 826.21059,1072.876 830.05849,1069.2532 C 831.69262,1069.5265 833.27111,1069.9405 834.01564,1072.4647 C 828.3129,1078.3032 824.33462,1090.1585 821.74713,1100.9914 C 819.05299,1104.4165 814.28873,1100.9878 811.71123,1098.7861 C 809.84234,1098.4342 808.00993,1098.4991 806.22329,1099.0884 C 804.15884,1102.0326 801.99728,1102.147 799.53056,1099.8518 C 800.21567,1088.9506 799.18978,1078.7346 793.34123,1070.4496 C 793.6736,1067.9529 795.40768,1066.4714 798.27168,1065.8083 z"
             style="opacity:1;fill:#000000;fill-opacity:1;stroke:none;stroke-width:1.5;stroke-miterlimit:4;stroke-dasharray:none;stroke-opacity:1" />
          <path
             sodipodi:nodetypes="ccccccsc"
             id="path4340"
             d="M 791.27924,1047.4041 L 791.43213,1049.1517 C 798.31255,1049.9254 802.12816,1045.9979 804.16549,1049.9663 L 806.10241,1051.9771 L 807.88535,1050.3117 L 804.27581,1046.4348 C 802.16908,1044.2454 799.25982,1043.9139 797.00984,1045.8126 C 795.44096,1047.1366 793.70814,1047.7179 791.27924,1047.4041 z"
             style="opacity:1;fill:#000000;fill-opacity:1;stroke:none;stroke-width:1.5;stroke-miterlimit:4;stroke-dasharray:none;stroke-opacity:1" />
          <path
             style="opacity:1;fill:#000000;fill-opacity:1;stroke:none;stroke-width:1.5;stroke-miterlimit:4;stroke-dasharray:none;stroke-opacity:1"
             d="M 839.47323,1049.809 L 839.16864,1051.5366 C 832.24692,1051.7077 828.78817,1047.4625 826.41271,1051.2383 L 824.30787,1053.0726 L 822.67683,1051.2582 L 826.6106,1047.7106 C 828.90022,1045.7131 831.82729,1045.6365 833.90313,1047.7241 C 835.3507,1049.1797 837.02622,1049.9099 839.47323,1049.809 z"
             id="path4342"
             sodipodi:nodetypes="ccccccsc" />
          <path
             sodipodi:nodetypes="cssscccccc"
             id="path4344"
             d="M 809.90631,1075.8817 C 803.32391,1078.3652 805.34105,1082.7683 806.02645,1087.4473 C 806.46362,1090.4316 805.31112,1095.2011 807.65988,1096.351 C 809.73943,1097.3691 812.53877,1097.4803 813.76698,1096.424 C 817.57056,1093.1529 818.67542,1089.0609 819.89117,1079.9016 C 819.73753,1078.4794 819.52262,1077.1027 817.76644,1076.8709 C 815.98112,1076.7594 813.94116,1077.6165 813.74621,1078.8395 C 813.64058,1081.3852 812.53355,1083.8484 812.0523,1086.6948 L 811.20008,1086.7192 C 810.99294,1083.2971 813.79603,1077.4974 809.90631,1075.8817 z"
             style="opacity:1;fill:#e20909;fill-opacity:1;stroke:none;stroke-width:1.50000000000000000;stroke-miterlimit:4;stroke-dasharray:none;stroke-opacity:1" />
          <path
             sodipodi:nodetypes="cccccc"
             id="path4346"
             d="M 799.79069,1073.6187 L 801.00271,1073.1106 L 803.24843,1075.2261 C 803.64311,1076.2102 803.70427,1077.1147 803.69234,1078.0017 L 802.85995,1082.8492 C 800.27302,1083.4035 800.11082,1078.3277 799.79069,1073.6187 z"
             style="opacity:1;fill:#ffffff;fill-opacity:1;stroke:none;stroke-width:1.50000000000000000;stroke-miterlimit:4;stroke-dasharray:none;stroke-opacity:1" />
          <path
             style="opacity:1;fill:#ffffff;fill-opacity:1;stroke:none;stroke-width:1.50000000000000000;stroke-miterlimit:4;stroke-dasharray:none;stroke-opacity:1"
             d="M 828.39755,1075.1585 L 827.35828,1074.354 L 824.64167,1075.8162 C 824.0057,1076.6647 823.71245,1077.5225 823.49447,1078.3824 L 823.04391,1083.2801 C 825.3992,1084.4851 826.86954,1079.6242 828.39755,1075.1585 z"
             id="path4348"
             sodipodi:nodetypes="cccccc" />
          <path
             sodipodi:nodetypes="cccccccc"
             id="path4350"
             d="M 803.71982,1089.1104 C 803.536,1089.2042 802.71783,1089.4444 802.71783,1089.4444 C 800.20567,1091.3583 801.44053,1095.4103 800.83104,1098.4099 L 801.27776,1099.2317 C 802.25675,1099.5847 803.30046,1099.2569 804.35879,1098.7773 C 805.34245,1098.1924 805.51894,1097.5306 805.24417,1096.8258 C 804.69717,1094.8625 803.66263,1093.0117 804.06523,1090.8291 L 803.71982,1089.1104 z"
             style="opacity:0.98000003999999996;fill:#ffffff;fill-opacity:1;stroke:none;stroke-width:1.50000000000000000;stroke-miterlimit:4;stroke-dasharray:none;stroke-opacity:1" />
          <path
             style="opacity:1;fill:#ffffff;fill-opacity:1;stroke:none;stroke-width:1.50000000000000000;stroke-miterlimit:4;stroke-dasharray:none;stroke-opacity:1"
             d="M 821.147,1090.418 C 823.20642,1092.8123 820.39911,1096.4847 820.37167,1099.5455 L 819.76392,1100.2565 C 818.73295,1100.3982 817.78007,1099.8606 816.84475,1099.1715 C 816.00405,1098.3947 815.969,1097.7107 816.38438,1097.0785 C 817.3275,1095.2718 818.95363,1093.6452 819.32411,1091.4947 C 819.55294,1090.1667 819.95174,1089.7156 821.147,1090.418 z"
             id="path4352"
             sodipodi:nodetypes="cccccsc" />
          <path
             sodipodi:nodetypes="ccsccc"
             id="path4354"
             d="M 796.30208,1037.1251 L 791.69717,1037.528 C 791.49024,1035.5047 789.51063,1034.0328 788.59546,1032.1594 C 787.88366,1030.7023 787.88887,1028.0953 788.59955,1027.6774 C 790.41019,1027.5999 791.98793,1027.5602 794.02935,1029.804 C 795.48745,1032.1831 796.04499,1034.5617 796.30208,1037.1251 z"
             style="opacity:1;fill:#000000;fill-opacity:1;stroke:none;stroke-width:1.5;stroke-miterlimit:4;stroke-dasharray:none;stroke-opacity:1" />
          <path
             style="opacity:1;fill:#000000;fill-opacity:1;stroke:none;stroke-width:1.5;stroke-miterlimit:4;stroke-dasharray:none;stroke-opacity:1"
             d="M 841.28509,1044.9414 L 845.83737,1045.744 C 846.21982,1043.7465 848.32016,1042.4528 849.39514,1040.6662 C 850.23122,1039.2767 850.45328,1036.6792 849.78174,1036.2009 C 847.98482,1035.966 846.41652,1035.7888 844.18724,1037.8462 C 842.52731,1040.0891 841.7647,1042.4101 841.28509,1044.9414 z"
             id="path4356"
             sodipodi:nodetypes="ccsccc" />
        </g>
      </g>
    </g>
    <use
       x="0"
       y="0"
       xlink:href="#g3377"
       id="use3470"
       transform="translate(300,-284)"
       width="600"
       height="660" />
    <g
       id="g3714"
       inkscape:label="Meubles"
       transform="translate(-852.0028,1691.8746)" />
    <path
       style="fill:#2b5df2;stroke:#000000;stroke-opacity:1;stroke-width:1.5"
       d="M 63.823249,425.95368 L 49.377619,439.28728 L 49.377619,467.73783 L 34.931999,481.07143 L 92.714499,481.07143 L 78.268869,467.73783 L 78.268869,439.28728 L 63.823249,425.95368 z M 92.714499,481.07143 L 150.497,481.07143 L 136.05137,467.73783 L 136.05137,439.28728 L 121.60575,425.95368 L 107.16012,439.28728 L 107.16012,467.73783 L 92.714499,481.07143 z M 92.714499,481.07143 L 78.268869,494.40503 L 78.268869,522.85558 L 63.823249,536.18918 L 121.60575,536.18918 L 107.16012,522.85558 L 107.16012,494.40503 L 92.714499,481.07143 z M 121.60575,536.18918 L 179.38825,536.18918 L 164.94263,522.85558 L 164.94263,494.40503 L 150.497,481.07143 L 136.05137,494.40503 L 136.05137,522.85558 L 121.60575,536.18918 z M 121.60575,536.18918 L 107.16012,549.52278 L 107.16012,577.97334 L 92.714499,591.30693 L 150.497,591.30693 L 136.05137,577.97334 L 136.05137,549.52278 L 121.60575,536.18918 z M 150.497,591.30693 L 208.2795,591.30693 L 193.83388,577.97334 L 193.83388,549.52278 L 179.38825,536.18918 L 164.94263,549.52278 L 164.94263,577.97334 L 150.497,591.30693 z M 150.497,591.30693 L 136.05137,604.64053 L 136.05137,633.09108 L 121.60575,646.42468 L 179.38825,646.42468 L 164.94263,633.09108 L 164.94263,604.64053 L 150.497,591.30693 z M 179.38825,646.42468 L 237.17075,646.42468 L 222.72512,633.09108 L 222.72512,604.64053 L 208.2795,591.30693 L 193.83388,604.64053 L 193.83388,633.09108 L 179.38825,646.42468 z M 208.2795,591.30693 L 266.062,591.30693 L 251.61637,577.97334 L 251.61637,549.52278 L 237.17075,536.18918 L 222.72512,549.52278 L 222.72512,577.97334 L 208.2795,591.30693 z M 237.17075,536.18918 L 222.72512,522.85558 L 222.72512,494.40503 L 208.2795,481.07143 L 193.83388,494.40503 L 193.83388,522.85558 L 179.38825,536.18918 L 237.17075,536.18918 z M 237.17075,536.18918 L 266.062,536.18918 L 266.062,481.07143 L 251.61637,494.40503 L 251.61637,522.85558 L 237.17075,536.18918 z M 266.062,481.07143 L 251.61637,467.73783 L 251.61637,439.28728 L 237.17075,425.95368 L 222.72512,439.28728 L 222.72512,467.73783 L 208.2795,481.07143 L 266.062,481.07143 z M 208.2795,481.07143 L 193.83388,467.73783 L 193.83388,439.28728 L 179.38825,425.95368 L 164.94263,439.28728 L 164.94263,467.73783 L 150.497,481.07143 L 208.2795,481.07143 z M 266.062,591.30693 L 251.61637,604.64053 L 251.61637,633.09108 L 237.17075,646.42468 L 266.062,646.42468 L 266.062,591.30693 z M 121.60575,646.42468 L 107.16012,633.09108 L 107.16012,604.64053 L 92.714499,591.30693 L 78.268869,604.64053 L 78.268869,633.09108 L 63.823249,646.42468 L 121.60575,646.42468 z M 63.823249,646.42468 L 49.377619,633.09108 L 49.377619,604.64053 L 34.931999,591.30693 L 34.931999,646.42468 L 63.823249,646.42468 z M 34.931999,591.30693 L 92.714499,591.30693 L 78.268869,577.97334 L 78.268869,549.52278 L 63.823249,536.18918 L 49.377619,549.52278 L 49.377619,577.97334 L 34.931999,591.30693 z M 63.823249,536.18918 L 49.377619,522.85558 L 49.377619,494.40503 L 34.931999,481.07143 L 34.931999,536.18918 L 63.823249,536.18918 z"
       id="path5327" />
    <path
       style="fill:#2b5df2;stroke:#000000;stroke-opacity:1;stroke-width:1.5"
       d="M 362.8125 321.9375 L 348.375 335.28125 L 348.375 363.71875 L 333.9375 377.0625 L 391.71875 377.0625 L 377.28125 363.71875 L 377.28125 335.28125 L 362.8125 321.9375 z M 391.71875 377.0625 L 449.5 377.0625 L 435.0625 363.71875 L 435.0625 335.28125 L 420.59375 321.9375 L 406.15625 335.28125 L 406.15625 363.71875 L 391.71875 377.0625 z M 391.71875 377.0625 L 377.28125 390.40625 L 377.28125 418.84375 L 362.8125 432.1875 L 420.59375 432.1875 L 406.15625 418.84375 L 406.15625 390.40625 L 391.71875 377.0625 z M 420.59375 432.1875 L 478.375 432.1875 L 463.9375 418.84375 L 463.9375 390.40625 L 449.5 377.0625 L 435.0625 390.40625 L 435.0625 418.84375 L 420.59375 432.1875 z M 420.59375 432.1875 L 406.15625 445.5 L 406.15625 473.96875 L 391.71875 487.3125 L 449.5 487.3125 L 435.0625 473.96875 L 435.0625 445.5 L 420.59375 432.1875 z M 449.5 487.3125 L 507.28125 487.3125 L 492.84375 473.96875 L 492.84375 445.5 L 478.375 432.1875 L 463.9375 445.5 L 463.9375 473.96875 L 449.5 487.3125 z M 449.5 487.3125 L 435.0625 500.625 L 435.0625 529.09375 L 420.59375 542.40625 L 460.65625 542.40625 C 465.53933 541.4291 470.32998 540.42631 475.0625 539.375 L 463.9375 529.09375 L 463.9375 500.625 L 449.5 487.3125 z M 420.59375 542.40625 L 409.65625 552.5 C 415.60464 551.20509 421.58507 550.01558 427.5625 548.84375 L 420.59375 542.40625 z M 420.59375 542.40625 L 406.15625 529.09375 L 406.15625 500.625 L 391.71875 487.3125 L 377.28125 500.625 L 377.28125 529.09375 L 362.8125 542.40625 L 420.59375 542.40625 z M 362.8125 542.40625 L 348.375 555.75 L 348.375 571.78125 C 357.47998 567.45811 367.19456 563.8753 377.28125 560.78125 L 377.28125 555.75 L 362.8125 542.40625 z M 362.8125 542.40625 L 348.375 529.09375 L 348.375 500.625 L 333.9375 487.3125 L 333.9375 542.40625 L 362.8125 542.40625 z M 333.9375 487.3125 L 391.71875 487.3125 L 377.28125 473.96875 L 377.28125 445.5 L 362.8125 432.1875 L 348.375 445.5 L 348.375 473.96875 L 333.9375 487.3125 z M 362.8125 432.1875 L 348.375 418.84375 L 348.375 390.40625 L 333.9375 377.0625 L 333.9375 432.1875 L 362.8125 432.1875 z M 478.375 432.1875 L 536.15625 432.1875 L 521.71875 418.84375 L 521.71875 390.40625 L 507.28125 377.0625 L 492.84375 390.40625 L 492.84375 418.84375 L 478.375 432.1875 z M 507.28125 377.0625 L 492.84375 363.71875 L 492.84375 335.28125 L 478.375 321.9375 L 463.9375 335.28125 L 463.9375 363.71875 L 449.5 377.0625 L 507.28125 377.0625 z M 507.28125 377.0625 L 565.0625 377.0625 L 550.625 363.71875 L 550.625 335.28125 L 536.15625 321.9375 L 521.71875 335.28125 L 521.71875 363.71875 L 507.28125 377.0625 z M 565.0625 377.0625 L 550.625 390.40625 L 550.625 418.84375 L 536.15625 432.1875 L 565.0625 432.1875 L 565.0625 377.0625 z M 536.15625 432.1875 L 521.71875 445.5 L 521.71875 473.96875 L 507.28125 487.3125 L 560.625 487.3125 C 561.01014 486.30356 561.38154 485.26766 561.71875 484.21875 L 550.625 473.96875 L 550.625 445.5 L 536.15625 432.1875 z M 507.28125 487.3125 L 492.84375 500.625 L 492.84375 529.09375 L 483.84375 537.375 C 497.63709 534.01904 510.48276 530.06736 521.71875 524.90625 L 521.71875 500.625 L 507.28125 487.3125 z M 557.34375 494.40625 L 550.625 500.625 L 550.625 504.21875 C 553.1824 501.2066 555.41965 497.93769 557.34375 494.40625 z "
       transform="translate(0,392.36218)"
       id="path5368" />
  </g>
  <g
     inkscape:groupmode="layer"
     id="layer6"
     inkscape:label="Meubles" />
  <g
     inkscape:groupmode="layer"
     id="layer7"
     inkscape:label="Reflet final"
     sodipodi:insensitive="true">
    <use
       transform="translate(300,300)"
       id="use2536"
       xlink:href="#shield"
       style="fill:url(#Gradient1)"
       x="0"
       y="0"
       width="744.09448"
       height="1052.3622" />
  </g>
  <g
     inkscape:groupmode="layer"
     id="layer5"
     inkscape:label="Contour final"
     sodipodi:insensitive="true">
    <use
       transform="translate(300,300)"
       id="use2539"
       style="fill:none;stroke:#000000;stroke-width:3"
       xlink:href="#shield"
       x="0"
       y="0"
       width="744.09448"
       height="1052.3622" />
  </g>
</svg>
