<?xml version="1.0" encoding="UTF-8" standalone="no"?>
<svg
   xmlns:dc="http://purl.org/dc/elements/1.1/"
   xmlns:cc="http://creativecommons.org/ns#"
   xmlns:rdf="http://www.w3.org/1999/02/22-rdf-syntax-ns#"
   xmlns:svg="http://www.w3.org/2000/svg"
   xmlns="http://www.w3.org/2000/svg"
   xmlns:xlink="http://www.w3.org/1999/xlink"
   xmlns:sodipodi="http://sodipodi.sourceforge.net/DTD/sodipodi-0.dtd"
   xmlns:inkscape="http://www.inkscape.org/namespaces/inkscape"
   height="660"
   width="600"
   version="1.0"
   id="svg2"
   sodipodi:version="0.32"
   inkscape:version="0.46"
   sodipodi:docname="Blason_département_fr_Lozère.svg"
   sodipodi:docbase="C:\Documents and Settings\Standard\Mes documents\aaaOuiqui\Blasons\Blasons Yvelines svg"
   inkscape:export-filename="/Users/olivier/Desktop/Blason Rouge/Blason_Vide_3D.png"
   inkscape:export-xdpi="144"
   inkscape:export-ydpi="144"
   inkscape:output_extension="org.inkscape.output.svg.inkscape">
  <metadata
     id="metadata49">
    <rdf:RDF>
      <cc:Work
         rdf:about="">
        <dc:format>image/svg+xml</dc:format>
        <dc:type
           rdf:resource="http://purl.org/dc/dcmitype/StillImage" />
        <dc:title>Gabarit d'un blason en pointe pour le projet Blasons de Wikipédia</dc:title>
        <dc:date>03-AUG-2006</dc:date>
        <dc:creator>
          <cc:Agent>
            <dc:title>Jérôme BLUM (wagner51)</dc:title>
          </cc:Agent>
        </dc:creator>
        <cc:license
           rdf:resource="http://web.resource.org/cc/PublicDomain" />
        <dc:language>fr</dc:language>
        <dc:subject>
          <rdf:Bag>
            <rdf:li>gabarit modèle blason projet wikipédia</rdf:li>
          </rdf:Bag>
        </dc:subject>
      </cc:Work>
      <cc:License
         rdf:about="http://web.resource.org/cc/PublicDomain">
        <cc:permits
           rdf:resource="http://web.resource.org/cc/Reproduction" />
        <cc:permits
           rdf:resource="http://web.resource.org/cc/Distribution" />
        <cc:permits
           rdf:resource="http://web.resource.org/cc/DerivativeWorks" />
      </cc:License>
    </rdf:RDF>
  </metadata>
  <sodipodi:namedview
     inkscape:window-height="729"
     inkscape:window-width="1280"
     inkscape:pageshadow="2"
     inkscape:pageopacity="0.0"
     guidetolerance="10.0"
     gridtolerance="10.0"
     objecttolerance="10.0"
     borderopacity="1.0"
     bordercolor="#666666"
     pagecolor="#ffffff"
     id="base"
     showgrid="false"
     height="660px"
     inkscape:zoom="0.44547728"
     inkscape:cx="1026.3949"
     inkscape:cy="272.13888"
     inkscape:window-x="0"
     inkscape:window-y="23"
     inkscape:current-layer="layer3"
     showguides="false"
     inkscape:guide-bbox="true">
    <inkscape:grid
       type="xygrid"
       id="grid3419" />
    <sodipodi:guide
       orientation="-0.70710678,0.70710678"
       position="-50.79365,699.99999"
       id="guide3423" />
    <sodipodi:guide
       orientation="0,1"
       position="193.65079,741.26984"
       id="guide3425" />
    <sodipodi:guide
       orientation="0,1"
       position="152.38095,741.26984"
       id="guide3427" />
  </sodipodi:namedview>
  <desc
     id="desc4">Flag of Canton of Valais (Wallis)</desc>
  <defs
     id="defs6">
    <inkscape:perspective
       sodipodi:type="inkscape:persp3d"
       inkscape:vp_x="0 : 330 : 1"
       inkscape:vp_y="0 : 1000 : 0"
       inkscape:vp_z="600 : 330 : 1"
       inkscape:persp3d-origin="300 : 220 : 1"
       id="perspective91" />
    <linearGradient
       id="linearGradient2893">
      <stop
         style="stop-color:white;stop-opacity:0.3137255;"
         offset="0"
         id="stop2895" />
      <stop
         id="stop2897"
         offset="0.19"
         style="stop-color:white;stop-opacity:0.25098041;" />
      <stop
         style="stop-color:#6b6b6b;stop-opacity:0.1254902;"
         offset="0.60000002"
         id="stop2901" />
      <stop
         style="stop-color:black;stop-opacity:0.1254902;"
         offset="1"
         id="stop2899" />
    </linearGradient>
    <radialGradient
       inkscape:collect="always"
       xlink:href="#linearGradient2893"
       id="radialGradient3163"
       gradientUnits="userSpaceOnUse"
       gradientTransform="matrix(1.353218,0,0,1.348928,-77.62935,-85.74693)"
       cx="221.44487"
       cy="226.33101"
       fx="221.44487"
       fy="226.33101"
       r="300" />
    <inkscape:perspective
       id="perspective3180"
       inkscape:persp3d-origin="372.04724 : 350.78739 : 1"
       inkscape:vp_z="744.09448 : 526.18109 : 1"
       inkscape:vp_y="0 : 1000 : 0"
       inkscape:vp_x="0 : 526.18109 : 1"
       sodipodi:type="inkscape:persp3d" />
    <inkscape:perspective
       id="perspective2447"
       inkscape:persp3d-origin="372.04724 : 350.78739 : 1"
       inkscape:vp_z="744.09448 : 526.18109 : 1"
       inkscape:vp_y="0 : 1000 : 0"
       inkscape:vp_x="0 : 526.18109 : 1"
       sodipodi:type="inkscape:persp3d" />
    <radialGradient
       gradientTransform="matrix(0,2.342476,-2.291353,0,562.9128,1323.77)"
       gradientUnits="userSpaceOnUse"
       xlink:href="#linearGradient2955"
       id="radialGradient14758"
       fy="153.9283"
       fx="-483.50824"
       r="300.00003"
       cy="153.9283"
       cx="-483.50824" />
    <radialGradient
       gradientTransform="matrix(0,2.342476,-2.291353,0,562.9128,1323.77)"
       gradientUnits="userSpaceOnUse"
       xlink:href="#linearGradient2955"
       id="radialGradient13767"
       fy="153.9283"
       fx="-483.50824"
       r="300.00003"
       cy="153.9283"
       cx="-483.50824" />
    <radialGradient
       gradientTransform="matrix(0,2.342476,-2.291353,0,562.9128,1323.77)"
       gradientUnits="userSpaceOnUse"
       xlink:href="#linearGradient2955"
       id="radialGradient1357"
       fy="153.9283"
       fx="-483.50824"
       r="300.00003"
       cy="153.9283"
       cx="-483.50824" />
    <radialGradient
       gradientTransform="matrix(-4.167939e-4,2.182867,-1.884232,-3.599562e-4,1395.597,-309.1214)"
       gradientUnits="userSpaceOnUse"
       xlink:href="#linearGradient2955"
       id="radialGradient1911"
       fy="218.90099"
       fx="225.52438"
       r="300"
       cy="218.90099"
       cx="225.52438" />
    <clipPath
       id="clip">
      <path
         id="path10"
         d="M 0,-200 L 0,600 L 300,600 L 300,-200 L 0,-200 z " />
    </clipPath>
    <polygon
       id="star"
       transform="scale(53,53)"
       points="0,-1 0.58778525,0.80901699 -0.95105652,-0.30901699 0.95105652,-0.30901699 -0.58778525,0.80901699 0,-1 " />
    <radialGradient
       gradientTransform="matrix(-4.167939e-4,2.182867,-1.884232,-3.599562e-4,615.5972,-289.1214)"
       gradientUnits="userSpaceOnUse"
       xlink:href="#linearGradient2955"
       id="radialGradient2961"
       fy="218.90099"
       fx="225.52438"
       r="300"
       cy="218.90099"
       cx="225.52438" />
    <linearGradient
       id="linearGradient2955">
      <stop
         id="stop2965"
         offset="0"
         style="stop-color:#ffffff;stop-opacity:0" />
      <stop
         id="stop2959"
         offset="1"
         style="stop-color:#000000;stop-opacity:0.64583331" />
    </linearGradient>
    <inkscape:perspective
       id="perspective3400"
       inkscape:persp3d-origin="75 : 50 : 1"
       inkscape:vp_z="150 : 75 : 1"
       inkscape:vp_y="0 : 1000 : 0"
       inkscape:vp_x="0 : 75 : 1"
       sodipodi:type="inkscape:persp3d" />
    <inkscape:perspective
       id="perspective3514"
       inkscape:persp3d-origin="94.999992 : 109.10897 : 1"
       inkscape:vp_z="189.99998 : 163.66345 : 1"
       inkscape:vp_y="0 : 1000 : 0"
       inkscape:vp_x="0 : 163.66345 : 1"
       sodipodi:type="inkscape:persp3d" />
    <inkscape:perspective
       id="perspective3348"
       inkscape:persp3d-origin="372.04724 : 350.78739 : 1"
       inkscape:vp_z="744.09448 : 526.18109 : 1"
       inkscape:vp_y="0 : 1000 : 0"
       inkscape:vp_x="0 : 526.18109 : 1"
       sodipodi:type="inkscape:persp3d" />
    <inkscape:perspective
       id="perspective3692"
       inkscape:persp3d-origin="94.999992 : 109.10897 : 1"
       inkscape:vp_z="189.99998 : 163.66345 : 1"
       inkscape:vp_y="0 : 1000 : 0"
       inkscape:vp_x="0 : 163.66345 : 1"
       sodipodi:type="inkscape:persp3d" />
  </defs>
  <g
     inkscape:groupmode="layer"
     id="layer3"
     inkscape:label="Fond écu"
     style="display:inline">
    <rect
       y="-38.278225"
       x="855.11908"
       height="0"
       width="2"
       id="rect12745"
       style="fill:white;fill-opacity:1;fill-rule:evenodd;stroke:black;stroke-width:2;stroke-linecap:round;stroke-linejoin:round;stroke-miterlimit:4;stroke-dasharray:none;stroke-dashoffset:0;stroke-opacity:1" />
    <path
       sodipodi:nodetypes="cccccc"
       d="M 298.86909,658.47179 C 298.86909,658.47179 597.36909,546.15148 597.36909,260.69996 C 597.36909,-24.751565 597.36909,2.1482651 597.36909,2.1482651 L 0.369093,2.1482651 L 0.369093,260.69996 C 0.369093,546.15148 298.86909,658.47179 298.86909,658.47179 z "
       style="fill:#2b5df2;fill-opacity:1;fill-rule:evenodd;stroke:none;stroke-width:1px;stroke-linecap:butt;stroke-linejoin:miter;stroke-opacity:1;display:inline"
       id="path11575" />
    <rect
       style="fill:#2b5df2;fill-opacity:1;stroke:black;stroke-width:3;stroke-miterlimit:4;stroke-dasharray:none;stroke-opacity:1"
       id="rect17605"
       width="30.15873"
       height="0"
       x="531.74603"
       y="177.46031" />
    <path
       style="fill:#e20909;fill-opacity:1;fill-rule:evenodd;stroke:#000000;stroke-width:3;stroke-linecap:butt;stroke-linejoin:miter;stroke-miterlimit:4;stroke-dasharray:none;stroke-opacity:1;display:inline"
       d="M 302.72885,2.3308847 L 302.44825,658.35764 C 330.74775,646.53019 600.38107,532.92516 600.19115,261.60764 C 600.09708,127.2157 599.74106,61.711243 599.83152,30.018339 L 599.91055,2.3308847 L 302.72885,2.3308847 z"
       id="path17610"
       sodipodi:nodetypes="ccsscc" />
    <path
       id="path2386"
       style="fill:#ffffff;fill-opacity:1;fill-rule:evenodd;stroke:#000000;stroke-width:2.82882476px;stroke-linecap:butt;stroke-linejoin:miter;stroke-opacity:1"
       d="M 179.16352,429.36006 L 180.93755,238.46914 L 201.63492,238.46914 L 248.3518,314.37635 L 301.99373,238.01998 C 301.99373,238.01998 348.88182,316.17298 350.65589,314.37635 L 394.46264,240.26575 L 415.70474,239.81661 L 421.02689,429.80922 L 397.96413,429.80922 C 397.96413,429.80922 355.38671,350.30876 354.20401,353.45286 C 353.02131,356.59693 302.96637,431.07382 302.96637,431.07382 C 302.96637,431.07382 250.71723,354.8003 250.71723,356.59693 C 250.71723,358.39354 203.40898,429.80922 203.40898,429.80922 L 179.16352,429.36006 z M 202.22628,382.19876 C 202.22628,382.19876 201.63492,278.44394 202.81761,280.24057 C 204.00034,282.03718 236.52475,334.58832 236.52475,334.58832 L 202.22628,382.19876 z M 269.64053,318.41875 L 302.38278,270.59898 L 332.94639,317.96959 L 269.64053,318.41875 z M 266.68377,335.48665 L 338.23747,335.48665 L 303.14923,392.47701 L 266.68377,335.48665 z M 365.66535,332.37307 L 395.00737,278.8931 L 397.3728,379.95299 L 365.66535,332.37307 z"
       sodipodi:nodetypes="ccccccccccscscccscccccccccccccc" />
    <g
       id="g3335"
       inkscape:label="Calque 1"
       transform="translate(-73.412705,-450.13995)">
      <g
         transform="matrix(1.9961357,0,0,1,-521.45852,451.78415)"
         id="g2433"
         style="display:inline">
        <path
           style="fill:#ffdd55;fill-rule:evenodd;stroke:#000000;stroke-width:2;stroke-linecap:butt;stroke-linejoin:miter;stroke-miterlimit:4;stroke-dasharray:none;stroke-opacity:1"
           d="M 300.23979,2.559048 L 337.5,160 L 375.15943,2.2784501"
           id="path11689" />
        <path
           id="path12576"
           d="M 374.87884,1.9978521 L 412.13905,159.4388 L 449.79848,1.7172542"
           style="fill:#ffdd55;fill-rule:evenodd;stroke:#000000;stroke-width:2;stroke-linecap:butt;stroke-linejoin:miter;stroke-miterlimit:4;stroke-dasharray:none;stroke-opacity:1" />
        <path
           style="fill:#ffdd55;fill-rule:evenodd;stroke:#000000;stroke-width:2;stroke-linecap:butt;stroke-linejoin:miter;stroke-miterlimit:4;stroke-dasharray:none;stroke-opacity:1"
           d="M 448.95669,1.4366562 L 486.2169,158.8776 L 523.87633,1.1560583"
           id="path12578" />
        <path
           id="path12580"
           d="M 523.03454,1.9978521 L 560.29475,159.4388 L 597.95418,1.7172542"
           style="fill:#ffdd55;fill-rule:evenodd;stroke:#000000;stroke-width:2;stroke-linecap:butt;stroke-linejoin:miter;stroke-miterlimit:4;stroke-dasharray:none;stroke-opacity:1" />
      </g>
    </g>
    <g
       id="g3433">
      <path
         d="M 115.87301,405.40768 L 122.32948,425.07679 L 142.91229,425.05287 L 126.20102,437.27141 L 132.5842,456.83946 L 115.79962,444.72183 L 99.161822,456.83946 L 105.49964,437.1318 L 88.833735,425.05287 L 109.53532,424.9905 L 115.87301,405.40768 z"
         style="fill:#fcef3c;fill-opacity:1;stroke:#000000;stroke-width:1.26222813;stroke-miterlimit:4;stroke-dasharray:none;stroke-dashoffset:0;stroke-opacity:1"
         id="path8347" />
      <path
         d="M 100.4127,340.91903 L 106.86917,360.58814 L 127.45198,360.56422 L 110.74071,372.78276 L 117.12389,392.35081 L 100.33931,380.23318 L 83.701508,392.35081 L 90.039328,372.64315 L 73.373418,360.56422 L 94.075008,360.50185 L 100.4127,340.91903 z"
         style="fill:#fcef3c;fill-opacity:1;stroke:#000000;stroke-width:1.26222813;stroke-miterlimit:4;stroke-dasharray:none;stroke-dashoffset:0;stroke-opacity:1;display:inline"
         id="path3415" />
      <path
         d="M 101.51229,272.00448 L 107.96877,291.67359 L 128.55158,291.64967 L 111.84031,303.86821 L 118.22349,323.43626 L 101.4389,311.31863 L 84.801105,323.43626 L 91.138923,303.7286 L 74.473018,291.64967 L 95.174603,291.5873 L 101.51229,272.00448 z"
         style="fill:#fcef3c;fill-opacity:1;stroke:#000000;stroke-width:1.26222813;stroke-miterlimit:4;stroke-dasharray:none;stroke-dashoffset:0;stroke-opacity:1;display:inline"
         id="path3417" />
      <path
         d="M 117.67199,197.13627 L 124.12846,216.80538 L 144.71127,216.78146 L 128,229 L 134.38318,248.56805 L 117.5986,236.45042 L 100.96081,248.56805 L 107.29862,228.86039 L 90.63273,216.78146 L 111.3343,216.71909 L 117.67199,197.13627 z"
         style="fill:#fcef3c;fill-opacity:1;stroke:#000000;stroke-width:1.26222813;stroke-miterlimit:4;stroke-dasharray:none;stroke-dashoffset:0;stroke-opacity:1;display:inline"
         id="path3421" />
      <path
         d="M 185.01587,173.14126 L 191.47234,192.81037 L 212.05515,192.78645 L 195.34388,205.00499 L 201.72706,224.57304 L 184.94248,212.45541 L 168.30468,224.57304 L 174.6425,204.86538 L 157.97659,192.78645 L 178.67818,192.72408 L 185.01587,173.14126 z"
         style="fill:#fcef3c;fill-opacity:1;stroke:#000000;stroke-width:1.26222813;stroke-miterlimit:4;stroke-dasharray:none;stroke-dashoffset:0;stroke-opacity:1;display:inline"
         id="path3429" />
      <path
         d="M 252.03174,167.61745 L 258.48821,187.28656 L 279.07102,187.26264 L 262.35975,199.48118 L 268.74293,219.04923 L 251.95835,206.9316 L 235.32055,219.04923 L 241.65837,199.34157 L 224.99247,187.26264 L 245.69405,187.20027 L 252.03174,167.61745 z"
         style="fill:#fcef3c;fill-opacity:1;stroke:#000000;stroke-width:1.26222813;stroke-miterlimit:4;stroke-dasharray:none;stroke-dashoffset:0;stroke-opacity:1;display:inline"
         id="path3431" />
    </g>
    <g
       style="display:inline"
       id="g3441"
       transform="matrix(-1.0108166,0,0,1.0108166,610.77132,-2.7188137)">
      <path
         d="M 115.87301,405.40768 L 122.32948,425.07679 L 142.91229,425.05287 L 126.20102,437.27141 L 132.5842,456.83946 L 115.79962,444.72183 L 99.161822,456.83946 L 105.49964,437.1318 L 88.833735,425.05287 L 109.53532,424.9905 L 115.87301,405.40768 z"
         style="fill:#fcef3c;fill-opacity:1;stroke:#000000;stroke-width:1.26222813;stroke-miterlimit:4;stroke-dasharray:none;stroke-dashoffset:0;stroke-opacity:1"
         id="path3443" />
      <path
         d="M 100.4127,340.91903 L 106.86917,360.58814 L 127.45198,360.56422 L 110.74071,372.78276 L 117.12389,392.35081 L 100.33931,380.23318 L 83.701508,392.35081 L 90.039328,372.64315 L 73.373418,360.56422 L 94.075008,360.50185 L 100.4127,340.91903 z"
         style="fill:#fcef3c;fill-opacity:1;stroke:#000000;stroke-width:1.26222813;stroke-miterlimit:4;stroke-dasharray:none;stroke-dashoffset:0;stroke-opacity:1;display:inline"
         id="path3445" />
      <path
         d="M 101.51229,272.00448 L 107.96877,291.67359 L 128.55158,291.64967 L 111.84031,303.86821 L 118.22349,323.43626 L 101.4389,311.31863 L 84.801105,323.43626 L 91.138923,303.7286 L 74.473018,291.64967 L 95.174603,291.5873 L 101.51229,272.00448 z"
         style="fill:#fcef3c;fill-opacity:1;stroke:#000000;stroke-width:1.26222813;stroke-miterlimit:4;stroke-dasharray:none;stroke-dashoffset:0;stroke-opacity:1;display:inline"
         id="path3447" />
      <path
         d="M 117.67199,197.13627 L 124.12846,216.80538 L 144.71127,216.78146 L 128,229 L 134.38318,248.56805 L 117.5986,236.45042 L 100.96081,248.56805 L 107.29862,228.86039 L 90.63273,216.78146 L 111.3343,216.71909 L 117.67199,197.13627 z"
         style="fill:#fcef3c;fill-opacity:1;stroke:#000000;stroke-width:1.26222813;stroke-miterlimit:4;stroke-dasharray:none;stroke-dashoffset:0;stroke-opacity:1;display:inline"
         id="path3449" />
      <path
         d="M 185.01587,173.14126 L 191.47234,192.81037 L 212.05515,192.78645 L 195.34388,205.00499 L 201.72706,224.57304 L 184.94248,212.45541 L 168.30468,224.57304 L 174.6425,204.86538 L 157.97659,192.78645 L 178.67818,192.72408 L 185.01587,173.14126 z"
         style="fill:#fcef3c;fill-opacity:1;stroke:#000000;stroke-width:1.26222813;stroke-miterlimit:4;stroke-dasharray:none;stroke-dashoffset:0;stroke-opacity:1;display:inline"
         id="path3451" />
      <path
         d="M 252.03174,167.61745 L 258.48821,187.28656 L 279.07102,187.26264 L 262.35975,199.48118 L 268.74293,219.04923 L 251.95835,206.9316 L 235.32055,219.04923 L 241.65837,199.34157 L 224.99247,187.26264 L 245.69405,187.20027 L 252.03174,167.61745 z"
         style="fill:#fcef3c;fill-opacity:1;stroke:#000000;stroke-width:1.26222813;stroke-miterlimit:4;stroke-dasharray:none;stroke-dashoffset:0;stroke-opacity:1;display:inline"
         id="path3453" />
    </g>
    <g
       id="g3740">
      <g
         transform="translate(8,0)"
         id="g3724">
        <path
           d="M 312.20553,637.36996 C 304.8722,632.66658 301.80747,612.38089 300.89392,594.22234 L 289.58231,594.22234 C 288.66876,612.38089 285.60403,632.66658 278.2707,637.36996 M 260.98197,644.21928 L 293.25617,658.43691 L 328.30815,643.42563 C 328.51334,638.96923 326.78648,637.57706 323.7353,637.59308 L 266.89755,637.59308 C 263.4113,637.31882 260.76624,639.84381 260.98197,644.21928 z M 273.47695,588.33419 L 317.00215,588.33419 C 317.1372,592.79058 316.00071,594.18276 313.99267,594.16674 L 276.58664,594.16674 C 274.29226,594.441 273.33498,592.70966 273.47695,588.33419 z M 242.35632,578.35764 L 348.11988,578.35764 C 347.89721,585.97212 328.02858,588.52812 322.21607,588.2439 L 267.35569,588.2439 C 260.99385,588.18113 242.57364,585.83853 242.35632,578.35764 z"
           style="fill:#ffffff;fill-opacity:1;fill-rule:evenodd;stroke:#000000;stroke-width:1.69674194;stroke-linecap:butt;stroke-linejoin:miter;stroke-miterlimit:4;stroke-opacity:1"
           id="path7576"
           sodipodi:nodetypes="cccccccccccccccccccc" />
        <path
           inkscape:transform-center-y="51.309612"
           inkscape:transform-center-x="-21.023756"
           sodipodi:nodetypes="ccccc"
           id="polygon35"
           d="M 290.6187,578.35163 C 290.82769,558.69305 289.36559,543.51113 284.73473,534.82858 L 305.74147,534.81208 C 301.67534,542.90927 300.37167,558.47399 300.66422,578.35163 L 290.6187,578.35163 z"
           style="fill:#ffffff;fill-opacity:1;stroke:#000000;stroke-width:1.69674182;stroke-miterlimit:4;stroke-dasharray:none;display:inline" />
        <g
           transform="matrix(0.5655806,0,0,0.5655806,129.20308,337.03196)"
           id="g8079">
          <path
             style="fill:#ffffff;stroke:#000000;stroke-width:3;stroke-miterlimit:4;stroke-dasharray:none;display:inline"
             d="M 264.22474,426.48801 C 260.89653,365.744 268.40062,237.52232 280.79748,349.46658 L 307.68318,349.46658 C 312.72654,252.20293 330.04363,356.08466 332.86503,426.48801 L 370.95625,426.48801 C 363.38133,343.40677 301.4996,96.122994 293.80807,349.46658 C 280.2378,161.83566 232.68222,278.3349 223.76563,426.48801 L 264.22474,426.48801 z"
             id="polygon37"
             sodipodi:nodetypes="cccccccc"
             inkscape:transform-center-y="-4.0978341"
             inkscape:transform-center-x="-22.578821" />
          <path
             style="fill:none;stroke:#000000;stroke-width:2.04443264;display:inline"
             id="path9484"
             d="M 326.14709,296.86305 C 335.02143,317.02295 350.42917,377.52485 351.46366,401.87011"
             sodipodi:nodetypes="cc"
             inkscape:transform-center-x="-64.023261"
             inkscape:transform-center-y="12.893941" />
          <path
             style="fill:none;stroke:#000000;stroke-width:2.04443264;display:inline"
             id="path9486"
             d="M 331.80944,343.44097 C 338.22134,360.3924 342.56205,399.87455 343.49957,416.53421"
             sodipodi:nodetypes="cc"
             inkscape:transform-center-x="-62.872386"
             inkscape:transform-center-y="43.514951" />
          <path
             style="fill:none;stroke:#000000;stroke-width:2.04443264;display:inline"
             id="path9488"
             d="M 352.23334,365.76031 C 356.24385,384.55774 359.3166,395.28082 362.2051,420.24272"
             sodipodi:nodetypes="cc"
             inkscape:transform-center-x="-82.437106"
             inkscape:transform-center-y="56.528876" />
          <path
             style="fill:none;stroke:#000000;stroke-width:2.04443264;display:inline"
             id="path9490"
             d="M 259.84076,287.37828 C 247.80736,306.06806 235.39585,375.02996 234.39868,401.40305"
             sodipodi:nodetypes="cc"
             inkscape:transform-center-x="27.662394"
             inkscape:transform-center-y="7.9180258" />
          <path
             style="fill:none;stroke:#000000;stroke-width:2.04443264;display:inline"
             id="path9492"
             d="M 254.4701,319.53031 C 247.04013,348.17196 243.83552,391.8715 242.83838,418.24462"
             sodipodi:nodetypes="cc"
             inkscape:transform-center-x="26.127874"
             inkscape:transform-center-y="32.414826" />
          <path
             style="fill:none;stroke:#000000;stroke-width:2.04443264;display:inline"
             id="path9494"
             d="M 257.92266,343.26158 C 253.56171,370.37213 253.42611,378.09204 253.19615,403.69964"
             sodipodi:nodetypes="cc"
             inkscape:transform-center-x="19.222709"
             inkscape:transform-center-y="37.007971" />
          <path
             style="fill:none;stroke:#000000;stroke-width:2.04443264;display:inline"
             id="path9496"
             d="M 303.19,309.57848 C 307.57169,289.92852 313.13423,274.9399 319.17913,298.0572"
             sodipodi:nodetypes="cc"
             inkscape:transform-center-x="-36.402451"
             inkscape:transform-center-y="-38.510549" />
          <path
             style="fill:none;stroke:#000000;stroke-width:2.04443264;display:inline"
             id="path9498"
             d="M 310.86248,267.97172 C 315.2441,248.32168 323.87561,257.82991 334.52404,297.78876"
             sodipodi:nodetypes="cc"
             inkscape:transform-center-x="-47.911141"
             inkscape:transform-center-y="-58.533833" />
        </g>
      </g>
      <path
         id="path3738"
         d="M 269.24603,643.33333 L 332.73809,643.13492"
         style="fill:none;fill-rule:evenodd;stroke:#000000;stroke-width:1px;stroke-linecap:butt;stroke-linejoin:miter;stroke-opacity:1"
         sodipodi:nodetypes="cc" />
    </g>
    <path
       style="fill:none;fill-rule:evenodd;stroke:#000000;stroke-width:1px;stroke-linecap:butt;stroke-linejoin:miter;stroke-opacity:1"
       d="M 279.36508,649.0873 L 319.84127,649.0873"
       id="path3756" />
  </g>
  <g
     inkscape:groupmode="layer"
     id="layer4"
     inkscape:label="Meubles"
     style="display:inline" />
  <g
     inkscape:groupmode="layer"
     id="layer2"
     inkscape:label="Reflet final"
     sodipodi:insensitive="true"
     style="display:inline">
    <path
       sodipodi:nodetypes="cccccc"
       d="M 300.00001,658.5 C 300.00001,658.5 598.50001,546.17969 598.50001,260.72817 C 598.50001,-24.723334 598.50001,2.1764865 598.50001,2.1764865 L 1.5,2.1764865 L 1.5,260.72817 C 1.5,546.17969 300.00001,658.5 300.00001,658.5 z "
       style="opacity:1;fill:url(#radialGradient3163);fill-opacity:1;fill-rule:evenodd;stroke:none;stroke-width:1px;stroke-linecap:butt;stroke-linejoin:miter;stroke-opacity:1"
       id="path2875"
       inkscape:export-xdpi="144"
       inkscape:export-ydpi="144" />
  </g>
  <g
     inkscape:groupmode="layer"
     id="layer1"
     inkscape:label="Contour final"
     sodipodi:insensitive="true"
     style="display:inline">
    <path
       sodipodi:nodetypes="cccccc"
       d="M 299.99999,658.50028 C 299.99999,658.50028 1.5,546.17992 1.5,260.72828 C 1.5,-24.723336 1.5,2.1764957 1.5,2.1764957 L 598.49999,2.1764957 L 598.49999,260.72828 C 598.49999,546.17992 299.99999,658.50028 299.99999,658.50028 z "
       style="opacity:1;fill:none;fill-opacity:1;fill-rule:evenodd;stroke:black;stroke-width:3.00000048;stroke-linecap:butt;stroke-linejoin:miter;stroke-miterlimit:4;stroke-dasharray:none;stroke-opacity:1"
       id="path1411"
       inkscape:export-xdpi="144"
       inkscape:export-ydpi="144" />
  </g>
</svg>
