<?xml version="1.0" encoding="UTF-8" standalone="no"?>
<svg
   xmlns:dc="http://purl.org/dc/elements/1.1/"
   xmlns:cc="http://creativecommons.org/ns#"
   xmlns:rdf="http://www.w3.org/1999/02/22-rdf-syntax-ns#"
   xmlns:svg="http://www.w3.org/2000/svg"
   xmlns="http://www.w3.org/2000/svg"
   xmlns:xlink="http://www.w3.org/1999/xlink"
   xmlns:sodipodi="http://sodipodi.sourceforge.net/DTD/sodipodi-0.dtd"
   xmlns:inkscape="http://www.inkscape.org/namespaces/inkscape"
   width="600"
   height="660"
   viewBox="0 0 600 660"
   id="svg2"
   sodipodi:version="0.32"
   inkscape:version="0.46"
   sodipodi:docname="Blason_ville_fr_Nançois-le-Grand-A_55.svg"
   inkscape:output_extension="org.inkscape.output.svg.inkscape"
   version="1.0">
  <metadata
     id="metadata28">
    <rdf:RDF>
      <cc:Work
         rdf:about="">
        <dc:format>image/svg+xml</dc:format>
        <dc:type
           rdf:resource="http://purl.org/dc/dcmitype/StillImage" />
        <dc:title />
      </cc:Work>
    </rdf:RDF>
  </metadata>
  <sodipodi:namedview
     inkscape:window-height="977"
     inkscape:window-width="1280"
     inkscape:pageshadow="2"
     inkscape:pageopacity="0.0"
     guidetolerance="10.0"
     gridtolerance="10.0"
     objecttolerance="10.0"
     borderopacity="1.0"
     bordercolor="#666666"
     pagecolor="#ffffff"
     id="base"
     showgrid="false"
     inkscape:zoom="1.1621212"
     inkscape:cx="300"
     inkscape:cy="330"
     inkscape:window-x="-4"
     inkscape:window-y="-4"
     inkscape:current-layer="layer3"
     inkscape:object-nodes="true"
     inkscape:window-maximized="1" />
  <defs
     id="defs4">
    <inkscape:perspective
       sodipodi:type="inkscape:persp3d"
       inkscape:vp_x="0 : 330 : 1"
       inkscape:vp_y="0 : 1000 : 0"
       inkscape:vp_z="600 : 330 : 1"
       inkscape:persp3d-origin="300 : 220 : 1"
       id="perspective2525" />
    <radialGradient
       id="Gradient1"
       gradientUnits="userSpaceOnUse"
       cx="-80"
       cy="-80"
       r="405">
      <stop
         style="stop-color:#fff;stop-opacity:0.31"
         offset="0"
         id="stop7" />
      <stop
         style="stop-color:#fff;stop-opacity:0.25"
         offset="0.19"
         id="stop9" />
      <stop
         style="stop-color:#6b6b6b;stop-opacity:0.125"
         offset="0.6"
         id="stop11" />
      <stop
         style="stop-color:#000;stop-opacity:0.125"
         offset="1"
         id="stop13" />
    </radialGradient>
    <clipPath
       id="shield_cut">
      <path
         id="shield"
         d="M -298.5,-298.5 L 298.5,-298.5 L 298.5,-40 C 298.5,246.31 0,358.5 0,358.5 C 0,358.5 -298.5,246.31 -298.5,-40 L -298.5,-298.5 z" />
    </clipPath>
    <g
       id="s-0">
      <g
         id="c-8">
        <path
           transform="matrix(0.951057,0.309017,-0.309017,0.951057,0,-1)"
           d="M 0,0 L 0,1 L 0.5,1 L 0,0 z "
           id="t-40" />
        <use
           height="540"
           width="810"
           y="0"
           x="0"
           id="use2144-4"
           transform="scale(-1,1)"
           xlink:href="#t-40" />
      </g>
      <g
         id="a-6">
        <use
           height="540"
           width="810"
           y="0"
           x="0"
           id="use2147-46"
           transform="matrix(0.309017,0.951057,-0.951057,0.309017,0,0)"
           xlink:href="#c-8" />
        <use
           height="540"
           width="810"
           y="0"
           x="0"
           id="use2149-4"
           transform="matrix(-0.809017,0.587785,-0.587785,-0.809017,0,0)"
           xlink:href="#c-8" />
      </g>
      <use
         height="540"
         width="810"
         y="0"
         x="0"
         id="use2151-3"
         transform="scale(-1,1)"
         xlink:href="#a-6" />
    </g>
    <g
       id="s-1-3">
      <g
         id="c-1-0">
        <path
           transform="matrix(0.951057,0.309017,-0.309017,0.951057,0,-1)"
           d="M 0,0 L 0,1 L 0.5,1 L 0,0 z "
           id="t-8-4" />
        <use
           height="540"
           width="810"
           y="0"
           x="0"
           id="use2144-5-8"
           transform="scale(-1,1)"
           xlink:href="#t-8-4" />
      </g>
      <g
         id="a-2-5">
        <use
           height="540"
           width="810"
           y="0"
           x="0"
           id="use2147-0-5"
           transform="matrix(0.309017,0.951057,-0.951057,0.309017,0,0)"
           xlink:href="#c-1-0" />
        <use
           height="540"
           width="810"
           y="0"
           x="0"
           id="use2149-1-5"
           transform="matrix(-0.809017,0.587785,-0.587785,-0.809017,0,0)"
           xlink:href="#c-1-0" />
      </g>
      <use
         height="540"
         width="810"
         y="0"
         x="0"
         id="use2151-1-4"
         transform="scale(-1,1)"
         xlink:href="#a-2-5" />
    </g>
    <g
       id="s-4-6">
      <g
         id="c-7-7">
        <path
           id="t-4-1"
           d="M 0,0 L 0,1 L 0.5,1 L 0,0 z "
           transform="matrix(0.951057,0.309017,-0.309017,0.951057,0,-1)" />
        <use
           xlink:href="#t-4-1"
           transform="scale(-1,1)"
           id="use2144-1-8"
           x="0"
           y="0"
           width="810"
           height="540" />
      </g>
      <g
         id="a-8-4">
        <use
           xlink:href="#c-7-7"
           transform="matrix(0.309017,0.951057,-0.951057,0.309017,0,0)"
           id="use2147-08-9"
           x="0"
           y="0"
           width="810"
           height="540" />
        <use
           xlink:href="#c-7-7"
           transform="matrix(-0.809017,0.587785,-0.587785,-0.809017,0,0)"
           id="use2149-8-7"
           x="0"
           y="0"
           width="810"
           height="540" />
      </g>
      <use
         xlink:href="#a-8-4"
         transform="scale(-1,1)"
         id="use2151-17-3"
         x="0"
         y="0"
         width="810"
         height="540" />
    </g>
    <g
       id="s-5-4">
      <g
         id="c-11-0">
        <path
           transform="matrix(0.951057,0.309017,-0.309017,0.951057,0,-1)"
           d="M 0,0 L 0,1 L 0.5,1 L 0,0 z"
           id="t-6-6" />
        <use
           height="540"
           width="810"
           y="0"
           x="0"
           id="use2144-19-5"
           transform="scale(-1,1)"
           xlink:href="#t-6-6" />
      </g>
      <g
         id="a-3-3">
        <use
           height="540"
           width="810"
           y="0"
           x="0"
           id="use2147-4-8"
           transform="matrix(0.309017,0.951057,-0.951057,0.309017,0,0)"
           xlink:href="#c-11-0" />
        <use
           height="540"
           width="810"
           y="0"
           x="0"
           id="use2149-7-5"
           transform="matrix(-0.809017,0.587785,-0.587785,-0.809017,0,0)"
           xlink:href="#c-11-0" />
      </g>
      <use
         height="540"
         width="810"
         y="0"
         x="0"
         id="use2151-9-1"
         transform="scale(-1,1)"
         xlink:href="#a-3-3" />
    </g>
    <g
       id="s-5">
      <g
         id="c-11">
        <path
           id="t-6"
           d="M 0,0 L 0,1 L 0.5,1 L 0,0 z"
           transform="matrix(0.951057,0.309017,-0.309017,0.951057,0,-1)" />
        <use
           xlink:href="#t-6"
           transform="scale(-1,1)"
           id="use2144-19"
           x="0"
           y="0"
           width="810"
           height="540" />
      </g>
      <g
         id="a-3">
        <use
           xlink:href="#c-11"
           transform="matrix(0.309017,0.951057,-0.951057,0.309017,0,0)"
           id="use2147-4"
           x="0"
           y="0"
           width="810"
           height="540" />
        <use
           xlink:href="#c-11"
           transform="matrix(-0.809017,0.587785,-0.587785,-0.809017,0,0)"
           id="use2149-7"
           x="0"
           y="0"
           width="810"
           height="540" />
      </g>
      <use
         xlink:href="#a-3"
         transform="scale(-1,1)"
         id="use2151-9"
         x="0"
         y="0"
         width="810"
         height="540" />
    </g>
    <g
       id="s-4">
      <g
         id="c-7">
        <path
           transform="matrix(0.951057,0.309017,-0.309017,0.951057,0,-1)"
           d="M 0,0 L 0,1 L 0.5,1 L 0,0 z "
           id="t-4" />
        <use
           height="540"
           width="810"
           y="0"
           x="0"
           id="use2144-1"
           transform="scale(-1,1)"
           xlink:href="#t-4" />
      </g>
      <g
         id="a-8">
        <use
           height="540"
           width="810"
           y="0"
           x="0"
           id="use2147-08"
           transform="matrix(0.309017,0.951057,-0.951057,0.309017,0,0)"
           xlink:href="#c-7" />
        <use
           height="540"
           width="810"
           y="0"
           x="0"
           id="use2149-8"
           transform="matrix(-0.809017,0.587785,-0.587785,-0.809017,0,0)"
           xlink:href="#c-7" />
      </g>
      <use
         height="540"
         width="810"
         y="0"
         x="0"
         id="use2151-17"
         transform="scale(-1,1)"
         xlink:href="#a-8" />
    </g>
    <g
       id="s-1">
      <g
         id="c-1">
        <path
           id="t-8"
           d="M 0,0 L 0,1 L 0.5,1 L 0,0 z "
           transform="matrix(0.951057,0.309017,-0.309017,0.951057,0,-1)" />
        <use
           xlink:href="#t-8"
           transform="scale(-1,1)"
           id="use2144-5"
           x="0"
           y="0"
           width="810"
           height="540" />
      </g>
      <g
         id="a-2">
        <use
           xlink:href="#c-1"
           transform="matrix(0.309017,0.951057,-0.951057,0.309017,0,0)"
           id="use2147-0"
           x="0"
           y="0"
           width="810"
           height="540" />
        <use
           xlink:href="#c-1"
           transform="matrix(-0.809017,0.587785,-0.587785,-0.809017,0,0)"
           id="use2149-1"
           x="0"
           y="0"
           width="810"
           height="540" />
      </g>
      <use
         xlink:href="#a-2"
         transform="scale(-1,1)"
         id="use2151-1"
         x="0"
         y="0"
         width="810"
         height="540" />
    </g>
    <g
       id="s">
      <g
         id="c">
        <path
           id="t"
           d="M 0,0 L 0,1 L 0.5,1 L 0,0 z "
           transform="matrix(0.951057,0.309017,-0.309017,0.951057,0,-1)" />
        <use
           xlink:href="#t"
           transform="scale(-1,1)"
           id="use2144"
           x="0"
           y="0"
           width="810"
           height="540" />
      </g>
      <g
         id="a">
        <use
           xlink:href="#c"
           transform="matrix(0.309017,0.951057,-0.951057,0.309017,0,0)"
           id="use2147"
           x="0"
           y="0"
           width="810"
           height="540" />
        <use
           xlink:href="#c"
           transform="matrix(-0.809017,0.587785,-0.587785,-0.809017,0,0)"
           id="use2149"
           x="0"
           y="0"
           width="810"
           height="540" />
      </g>
      <use
         xlink:href="#a"
         transform="scale(-1,1)"
         id="use2151"
         x="0"
         y="0"
         width="810"
         height="540" />
    </g>
    <radialGradient
       r="300"
       fy="226.33101"
       fx="221.44487"
       cy="226.33101"
       cx="221.44487"
       gradientTransform="matrix(1.353218,0,0,1.348928,-77.62935,-85.74693)"
       gradientUnits="userSpaceOnUse"
       id="radialGradient3163"
       xlink:href="#linearGradient2893"
       inkscape:collect="always" />
    <linearGradient
       id="linearGradient2893">
      <stop
         id="stop2895"
         offset="0"
         style="stop-color:white;stop-opacity:0.3137255;" />
      <stop
         style="stop-color:white;stop-opacity:0.25098041;"
         offset="0.19"
         id="stop2897" />
      <stop
         id="stop2901"
         offset="0.60000002"
         style="stop-color:#6b6b6b;stop-opacity:0.1254902;" />
      <stop
         id="stop2899"
         offset="1"
         style="stop-color:black;stop-opacity:0.1254902;" />
    </linearGradient>
  </defs>
  <g
     id="layer4"
     inkscape:label="Fond écu"
     inkscape:groupmode="layer"
     transform="translate(300,300)">
    <use
       xlink:href="#shield"
       id="use18"
       style="fill:#fcef3c"
       x="0"
       y="0"
       width="600"
       height="660" />
    <path
       style="opacity:1;fill:#2b5df2;fill-opacity:1;fill-rule:nonzero;stroke:#000000;stroke-width:3;stroke-linecap:butt;stroke-linejoin:round;stroke-miterlimit:4;stroke-dasharray:none;stroke-dashoffset:0;stroke-opacity:1"
       d="M 1.5,1.5 L 34.21875,32.90625 L 57.21875,8.9375 L 90.4375,40.84375 L 67.46875,64.8125 L 100.6875,96.6875 L 123.6875,72.71875 L 156.875,104.625 L 133.90625,128.5625 L 167.125,160.4375 L 190.125,136.53125 L 223.34375,168.375 L 200.375,192.34375 L 233.59375,224.25 L 256.59375,200.28125 L 289.78125,232.1875 L 266.8125,256.125 L 300,288 L 333.1875,256.125 L 310.21875,232.1875 L 343.4375,200.28125 L 366.4375,224.25 L 383.0625,208.3125 L 399.65625,192.34375 L 376.6875,168.375 L 409.875,136.53125 L 432.875,160.4375 L 466.09375,128.5625 L 443.125,104.625 L 476.34375,72.71875 L 499.34375,96.6875 L 532.5625,64.8125 L 509.59375,40.84375 L 542.78125,8.9375 L 565.78125,32.90625 L 598.5,1.5 L 1.5,1.5 z"
       transform="translate(-300,-300)"
       id="path18006"
       sodipodi:nodetypes="ccccccccccccccccccccccccccccccccccccc" />
    <g
       transform="translate(-87.0498,-1095.0997)"
       id="g3714"
       style="fill:#ffffff" />
    <g
       transform="translate(-87.0498,-1095.0997)"
       inkscape:label="Fond d'écu"
       id="layer9"
       style="fill:#ffffff">
      <g
         id="g2807"
         inkscape:label="Meubles"
         transform="matrix(2,0,0,2,-732.89186,-1853.1884)"
         style="fill:#ffffff" />
      <g
         id="g4626"
         inkscape:label="Meubles"
         transform="matrix(2,0,0,2,1696.9763,-413.55025)"
         style="fill:#ffffff" />
      <g
         transform="matrix(2,0,0,2,-732.89213,-453.18787)"
         inkscape:label="Meubles"
         id="g5271"
         style="fill:#ffffff" />
      <g
         transform="matrix(2,0,0,2,-732.89213,-453.18787)"
         inkscape:label="Reflet final"
         id="g5273"
         style="fill:#ffffff" />
      <g
         transform="matrix(2,0,0,2,-732.89213,-453.18787)"
         inkscape:label="Contour final"
         id="g5275"
         style="fill:#ffffff" />
    </g>
    <g
       transform="translate(-87.0498,-1095.0997)"
       inkscape:label="Reflet final"
       id="layer6"
       style="fill:#ffffff" />
    <g
       transform="translate(-87.0498,-1095.0997)"
       inkscape:label="Contour final"
       id="layer5"
       style="fill:#ffffff" />
    <g
       transform="translate(399.99987,-475.94103)"
       inkscape:label="Meubles"
       id="g2721"
       style="fill:#ffffff" />
  </g>
  <g
     id="layer3"
     inkscape:label="Meubles"
     inkscape:groupmode="layer"
     transform="translate(300,300)">
    <g
       id="g19732"
       transform="translate(-4,16)">
      <g
         style="stroke:#000000;stroke-width:2.99999976;stroke-opacity:1"
         transform="matrix(0.5416443,-9.550651e-2,9.550651e-2,0.5416443,-59.230173,-175.8574)"
         id="g18618">
        <path
           style="opacity:1;fill:#e20909;fill-opacity:1;fill-rule:nonzero;stroke:#000000;stroke-width:2.99999976;stroke-linecap:butt;stroke-linejoin:miter;stroke-miterlimit:4;stroke-dasharray:none;stroke-dashoffset:0;stroke-opacity:1"
           d="M 331.73477,1011.2892 C 333.36294,1014.3295 318.8848,1019.913 309.87984,1024.6322 C 304.39956,1027.5538 308.01102,1029.6327 308.72958,1031.9938 C 326.65267,1044.4922 320.69803,1042.8409 323.68295,1046.4871 C 326.46058,1049.3556 325.64858,1051.0276 324.83321,1052.6985 L 318.85187,1047.6374 C 317.26404,1048.3141 315.91602,1048.0316 314.94099,1046.2571 L 299.06741,1034.9845 C 292.00413,1029.9685 290.60388,1029.5305 288.25497,1028.313 C 279.85216,1023.9576 275.86642,1026.7626 271.46118,1028.5431 C 269.89174,1028.3351 268.46117,1027.942 268.70056,1025.3223 C 265.5081,1024.92 259.47011,1026.4148 250.75652,1029.6933 L 248.68605,1028.313 L 240.86429,1033.3742 C 239.62067,1029.1226 243.15193,1025.8259 247.9959,1022.7918 C 263.29017,1012.9828 275.7591,1016.1186 288.71507,1017.5006 C 295.87626,1018.902 299.11516,1017.5018 302.05808,1015.8902 L 328.28399,998.86638"
           id="path18614"
           transform="translate(-300,-300)"
           sodipodi:nodetypes="cccccccssccccccccc" />
        <path
           style="opacity:1;fill:none;fill-opacity:1;fill-rule:nonzero;stroke:#000000;stroke-width:2.99999976;stroke-linecap:butt;stroke-linejoin:miter;stroke-miterlimit:4;stroke-dasharray:none;stroke-dashoffset:0;stroke-opacity:1"
           d="M 268.70056,1025.3223 C 268.70056,1025.3223 270.53703,1021.5486 271.92129,1020.4913 C 273.13539,1019.564 275.24438,1019.1256 276.75238,1018.8809 C 279.54548,1018.4276 286.1845,1018.8809 286.1845,1018.8809"
           id="path18616"
           transform="translate(-300,-300)"
           sodipodi:nodetypes="csss" />
      </g>
      <path
         sodipodi:nodetypes="ccccccccccccccccccccccccccccccccscc"
         id="path18601"
         d="M -63.288894,33.088913 C -53.322404,21.801923 -44.881643,16.617826 -37.326314,14.975482 L -39.741436,19.201952 C -29.908591,13.839639 -20.976767,7.5763045 -6.533481,6.824438 L -8.042934,9.5414545 C -3.00676,8.0273375 0.18764,8.354989 2.825121,9.239565 L 2.825121,11.050908 L 16.108303,12.560361 L 13.089397,14.673593 L 24.863126,17.390609 L 21.240441,18.598167 L 31.504717,22.522747 L 27.580142,23.730305 L 34.221734,28.258664 L 30.297153,28.560554 L 35.731187,33.088913 L 33.01417,34.296476 L 35.127402,37.919161 L 36.938745,42.74941 C 38.500321,56.454904 38.068428,66.837936 37.240634,76.561144 C 36.344162,82.187231 38.044531,85.216483 41.165214,86.82542 C 52.095469,97.505292 61.503163,109.27271 66.825904,123.95795 C 72.856418,137.3661 83.576803,147.42433 84.533209,164.45684 L 97.316843,193.69465 L 110.29814,213.31751 C 108.1849,214.07271 106.07167,214.27011 103.95843,214.22319 L 96.713064,209.99672 C 105.17021,228.67802 106.43837,253.52135 108.48679,277.69583 C 105.73892,282.20814 104.33533,278.65465 102.44898,277.99773 C 89.969739,261.70766 79.420338,238.9848 64.410783,231.12909 L 50.523816,222.97804 C -0.0991685,189.05553 -54.061874,156.95131 -34.307408,84.712188 C -32.95476,80.492742 -33.315082,75.349689 -37.326314,70.938459 C -44.101511,63.487643 -60.849325,51.731047 -68.421032,52.108012 L -63.288894,33.088913 z"
         style="fill:#5ab532;fill-opacity:1;fill-rule:nonzero;stroke:#000000;stroke-width:2.20000005;stroke-linecap:butt;stroke-linejoin:miter;stroke-miterlimit:4;stroke-dasharray:none;stroke-dashoffset:0;stroke-opacity:1" />
      <path
         id="path18605"
         d="M -63.288894,33.088913 C -87.199473,36.417183 -110.64591,36.513802 -135.40023,45.818212 C -112.63854,48.254239 -91.161233,51.756524 -66.395695,52.529537 L -56.843592,53.962359 L -44.764091,53.297629 L -39.056706,46.925511 L -47.057008,45.951752 L -48.129568,41.501983 L -58.420998,38.954405 L -63.288894,33.088913 z"
         style="fill:#e20909;fill-opacity:1;fill-rule:nonzero;stroke:#000000;stroke-width:1.64999998;stroke-linecap:butt;stroke-linejoin:miter;stroke-miterlimit:4;stroke-dasharray:none;stroke-dashoffset:0;stroke-opacity:1" />
      <path
         id="path18603"
         d="M -49.657975,45.964452 L -128.69776,44.861711"
         style="fill:none;fill-opacity:1;fill-rule:nonzero;stroke:#000000;stroke-width:1.64999998;stroke-linecap:butt;stroke-linejoin:miter;stroke-miterlimit:4;stroke-dasharray:none;stroke-dashoffset:0;stroke-opacity:1" />
      <path
         sodipodi:nodetypes="ccsc"
         id="path18610"
         d="M -35.514972,39.126725 C -31.036421,49.730912 -15.91405,45.804566 -14.986414,39.730504 C -14.986414,39.730504 -13.599799,30.226069 -25.250696,30.673791 C -34.97496,31.047478 -35.514972,39.126725 -35.514972,39.126725 z"
         style="fill:#fcef3c;fill-opacity:1;fill-rule:nonzero;stroke:#000000;stroke-width:2.20000005;stroke-linecap:butt;stroke-linejoin:miter;stroke-miterlimit:4;stroke-dasharray:none;stroke-dashoffset:0;stroke-opacity:1" />
      <path
         sodipodi:nodetypes="cccccc"
         id="path18612"
         d="M -8.948608,114.59934 C -8.726969,136.6556 20.798797,178.6067 28.7877,170.44908 C 31.793368,173.21357 34.571902,174.6153 36.776087,172.57091 C 40.331519,175.69809 43.127367,177.05293 44.275382,174.56282 C 49.063566,179.15246 51.305933,178.65046 52.90102,176.85391 C 62.354767,192.19341 77.607928,202.70003 96.713064,209.99672"
         style="fill:none;fill-opacity:1;fill-rule:nonzero;stroke:#000000;stroke-width:2.20000005;stroke-linecap:butt;stroke-linejoin:miter;stroke-miterlimit:4;stroke-dasharray:none;stroke-dashoffset:0;stroke-opacity:1" />
      <g
         style="stroke:#000000;stroke-width:3;stroke-opacity:1"
         id="g18622"
         transform="matrix(0.5379812,-0.1143514,0.1143514,0.5379812,-60.72367,-165.76942)">
        <path
           sodipodi:nodetypes="cccccccssccccccccc"
           transform="translate(-300,-300)"
           id="path18624"
           d="M 347.30911,1002.8624 C 348.93728,1005.9027 318.8848,1019.913 309.87984,1024.6322 C 304.39956,1027.5538 308.01102,1029.6327 308.72958,1031.9938 C 326.65267,1044.4922 320.69803,1042.8409 323.68295,1046.4871 C 326.46058,1049.3556 325.64858,1051.0276 324.83321,1052.6985 L 318.85187,1047.6374 C 317.26404,1048.3141 315.91602,1048.0316 314.94099,1046.2571 L 299.06741,1034.9845 C 292.00413,1029.9685 290.60388,1029.5305 288.25497,1028.313 C 279.85216,1023.9576 275.86642,1026.7626 271.46118,1028.5431 C 269.89174,1028.3351 268.46117,1027.942 268.70056,1025.3223 C 265.5081,1024.92 259.47011,1026.4148 250.75652,1029.6933 L 248.68605,1028.313 L 240.86429,1033.3742 C 239.62067,1029.1226 243.15193,1025.8259 247.9959,1022.7918 C 263.29017,1012.9828 275.7591,1016.1186 288.71507,1017.5006 C 295.87626,1018.902 299.11516,1017.5018 302.05808,1015.8902 L 328.28399,998.86638"
           style="opacity:1;fill:#e20909;fill-opacity:1;fill-rule:nonzero;stroke:#000000;stroke-width:3;stroke-linecap:butt;stroke-linejoin:miter;stroke-miterlimit:4;stroke-dasharray:none;stroke-dashoffset:0;stroke-opacity:1" />
        <path
           sodipodi:nodetypes="csss"
           transform="translate(-300,-300)"
           id="path18626"
           d="M 268.70056,1025.3223 C 268.70056,1025.3223 270.53703,1021.5486 271.92129,1020.4913 C 273.13539,1019.564 275.24438,1019.1256 276.75238,1018.8809 C 279.54548,1018.4276 286.1845,1018.8809 286.1845,1018.8809"
           style="opacity:1;fill:none;fill-opacity:1;fill-rule:nonzero;stroke:#000000;stroke-width:3;stroke-linecap:butt;stroke-linejoin:miter;stroke-miterlimit:4;stroke-dasharray:none;stroke-dashoffset:0;stroke-opacity:1" />
      </g>
      <g
         transform="matrix(0.55,0,0,0.55,175.54018,-185.13775)"
         id="g18662">
        <path
           style="opacity:1;fill:none;fill-opacity:1;fill-rule:nonzero;stroke:#000000;stroke-width:3;stroke-linecap:butt;stroke-linejoin:miter;stroke-miterlimit:4;stroke-dasharray:none;stroke-dashoffset:0;stroke-opacity:1"
           d="M -93.387075,745.14704 L -54.933573,772.61383 L -16.480072,778.10718"
           id="path18630"
           transform="translate(-300,-300)" />
        <path
           style="opacity:1;fill:none;fill-opacity:1;fill-rule:nonzero;stroke:#000000;stroke-width:3;stroke-linecap:butt;stroke-linejoin:miter;stroke-miterlimit:4;stroke-dasharray:none;stroke-dashoffset:0;stroke-opacity:1"
           d="M 24.720108,830.29408 C 51.84999,845.46253 67.915975,866.95322 82.40036,889.34767"
           id="path18632"
           transform="translate(-300,-300)"
           sodipodi:nodetypes="cc" />
        <path
           style="opacity:1;fill:none;fill-opacity:1;fill-rule:nonzero;stroke:#000000;stroke-width:3;stroke-linecap:butt;stroke-linejoin:miter;stroke-miterlimit:4;stroke-dasharray:none;stroke-dashoffset:0;stroke-opacity:1"
           d="M 86.520378,878.36095 L 131.15391,938.10122"
           id="path18634"
           transform="translate(-300,-300)" />
        <path
           style="opacity:1;fill:none;fill-opacity:1;fill-rule:nonzero;stroke:#000000;stroke-width:3;stroke-linecap:butt;stroke-linejoin:miter;stroke-miterlimit:4;stroke-dasharray:none;stroke-dashoffset:0;stroke-opacity:1"
           d="M 94.073744,955.95463 L 124.97388,984.79475"
           id="path18636"
           transform="translate(-300,-300)" />
        <path
           style="opacity:1;fill:none;fill-opacity:1;fill-rule:nonzero;stroke:#000000;stroke-width:3;stroke-linecap:butt;stroke-linejoin:miter;stroke-miterlimit:4;stroke-dasharray:none;stroke-dashoffset:0;stroke-opacity:1"
           d="M -0.68666967,896.21437 L 15.793402,924.36782"
           id="path18638"
           transform="translate(-300,-300)" />
        <path
           style="opacity:1;fill:none;fill-opacity:1;fill-rule:nonzero;stroke:#000000;stroke-width:3;stroke-linecap:butt;stroke-linejoin:miter;stroke-miterlimit:4;stroke-dasharray:none;stroke-dashoffset:0;stroke-opacity:1"
           d="M 32.960144,918.18779 L 40.51351,932.60786"
           id="path18640"
           transform="translate(-300,-300)" />
        <path
           style="opacity:1;fill:none;fill-opacity:1;fill-rule:nonzero;stroke:#000000;stroke-width:3;stroke-linecap:butt;stroke-linejoin:miter;stroke-miterlimit:4;stroke-dasharray:none;stroke-dashoffset:0;stroke-opacity:1"
           d="M 50.126886,930.54785 L 54.933573,938.78788"
           id="path18642"
           transform="translate(-300,-300)" />
        <path
           style="opacity:1;fill:none;fill-opacity:1;fill-rule:nonzero;stroke:#000000;stroke-width:3;stroke-linecap:butt;stroke-linejoin:miter;stroke-miterlimit:4;stroke-dasharray:none;stroke-dashoffset:0;stroke-opacity:1"
           d="M 61.80027,932.60786 L 68.666967,944.96791"
           id="path18644"
           transform="translate(-300,-300)" />
        <path
           style="opacity:1;fill:none;fill-opacity:1;fill-rule:nonzero;stroke:#000000;stroke-width:3;stroke-linecap:butt;stroke-linejoin:miter;stroke-miterlimit:4;stroke-dasharray:none;stroke-dashoffset:0;stroke-opacity:1"
           d="M 73.473654,958.70131 L 109.86715,985.48142 L 121.54053,994.40813 L 131.84058,993.72146 L 140.76728,997.84148 L 156.56068,1004.0215"
           id="path18646"
           transform="translate(-300,-300)" />
        <path
           style="opacity:1;fill:none;fill-opacity:1;fill-rule:nonzero;stroke:#000000;stroke-width:3;stroke-linecap:butt;stroke-linejoin:miter;stroke-miterlimit:4;stroke-dasharray:none;stroke-dashoffset:0;stroke-opacity:1"
           d="M 123.60054,1040.415 L 158.21324,1114.6789"
           id="path18648"
           transform="translate(-300,-300)"
           sodipodi:nodetypes="cc" />
        <path
           style="opacity:1;fill:none;fill-opacity:1;fill-rule:nonzero;stroke:#000000;stroke-width:3;stroke-linecap:butt;stroke-linejoin:miter;stroke-miterlimit:4;stroke-dasharray:none;stroke-dashoffset:0;stroke-opacity:1"
           d="M 138.70727,1047.2817 L 160.6807,1100.8419 L 173.04076,1134.4887"
           id="path18650"
           transform="translate(-300,-300)" />
        <path
           style="opacity:1;fill:none;fill-opacity:1;fill-rule:nonzero;stroke:#000000;stroke-width:3;stroke-linecap:butt;stroke-linejoin:miter;stroke-miterlimit:4;stroke-dasharray:none;stroke-dashoffset:0;stroke-opacity:1"
           d="M -25.406778,747.89372 L 7.5533663,775.3605"
           id="path18652"
           transform="translate(-300,-300)" />
        <path
           style="opacity:1;fill:none;fill-opacity:1;fill-rule:nonzero;stroke:#000000;stroke-width:3;stroke-linecap:butt;stroke-linejoin:miter;stroke-miterlimit:4;stroke-dasharray:none;stroke-dashoffset:0;stroke-opacity:1"
           d="M 2.060009,742.40036 L 30.213465,765.74713 L 49.440216,788.40723"
           id="path18654"
           transform="translate(-300,-300)" />
        <path
           style="opacity:1;fill:none;fill-opacity:1;fill-rule:nonzero;stroke:#000000;stroke-width:3;stroke-linecap:butt;stroke-linejoin:miter;stroke-miterlimit:4;stroke-dasharray:none;stroke-dashoffset:0;stroke-opacity:1"
           d="M -70.040306,726.60696 L -54.933573,733.47365 C -54.933573,733.47365 -34.88899,745.19799 -25.406778,747.89372 C -19.432659,749.59212 -10.704055,751.90199 -4.8066877,749.95373 C 1.0090183,748.03245 8.6826476,742.12777 10.300045,736.22033 C 11.779856,730.81542 8.4698042,722.60773 4.8066877,718.36692 C 1.6746033,714.74089 -4.90814,712.40512 -9.6133753,711.50023 C -15.897524,710.29169 -30.900135,712.87356 -30.900135,712.87356"
           id="path18656"
           transform="translate(-300,-300)"
           sodipodi:nodetypes="ccssssss" />
        <path
           style="opacity:1;fill:none;fill-opacity:1;fill-rule:nonzero;stroke:#000000;stroke-width:3;stroke-linecap:butt;stroke-linejoin:miter;stroke-miterlimit:4;stroke-dasharray:none;stroke-dashoffset:0;stroke-opacity:1"
           d="M 47.122371,821.14331 C 57.579356,827.30949 65.346031,835.86705 72.786985,844.71414"
           id="path18658"
           transform="translate(-300,-300)"
           sodipodi:nodetypes="cc" />
        <path
           style="opacity:1;fill:none;fill-opacity:1;fill-rule:nonzero;stroke:#000000;stroke-width:3;stroke-linecap:butt;stroke-linejoin:miter;stroke-miterlimit:4;stroke-dasharray:none;stroke-dashoffset:0;stroke-opacity:1"
           d="M 99.567102,861.88088 C 90.999401,850.76405 82.336615,839.74231 72.100315,830.29408"
           id="path18660"
           transform="translate(-300,-300)"
           sodipodi:nodetypes="cc" />
      </g>
      <path
         id="path18684"
         d="M -50.3076,35.20215 L -35.51497,39.126724 L -33.099843,35.50404 L -50.3076,35.20215 z"
         style="fill:#000000;fill-opacity:1;fill-rule:nonzero;stroke:none;stroke-width:4;stroke-linecap:butt;stroke-linejoin:miter;stroke-miterlimit:4;stroke-dasharray:none;stroke-dashoffset:0;stroke-opacity:1" />
      <path
         id="path18686"
         d="M -16.510754,40.314417 L -8.6615995,39.710638 L -16.510754,40.314417 z"
         style="fill:#000000;fill-opacity:1;fill-rule:nonzero;stroke:none;stroke-width:4;stroke-linecap:butt;stroke-linejoin:miter;stroke-miterlimit:4;stroke-dasharray:none;stroke-dashoffset:0;stroke-opacity:1" />
      <path
         id="path18688"
         d="M -15.243868,36.789071 L -5.8512425,37.856412 L -14.986413,39.730503 L -15.243868,36.789071 z"
         style="fill:#000000;fill-opacity:1;fill-rule:nonzero;stroke:none;stroke-width:4;stroke-linecap:butt;stroke-linejoin:miter;stroke-miterlimit:4;stroke-dasharray:none;stroke-dashoffset:0;stroke-opacity:1" />
      <path
         transform="matrix(0.812529,0,0,0.7816821,-216.67572,-514.07911)"
         d="M 244.38024,706.5918 A 9.2458401,6.8890572 0 1 1 225.88856,706.5918 A 9.2458401,6.8890572 0 1 1 244.38024,706.5918 z"
         sodipodi:ry="6.8890572"
         sodipodi:rx="9.2458401"
         sodipodi:cy="706.5918"
         sodipodi:cx="235.1344"
         id="path18690"
         style="fill:none;fill-opacity:1;fill-rule:nonzero;stroke:#000000;stroke-width:1.5327121;stroke-linecap:butt;stroke-linejoin:miter;stroke-miterlimit:4;stroke-dasharray:none;stroke-dashoffset:0;stroke-opacity:1"
         sodipodi:type="arc" />
      <path
         sodipodi:nodetypes="cssc"
         transform="translate(-300,-300)"
         id="path19698"
         d="M 301.47614,377.8212 C 301.47614,377.8212 287.36647,383.19122 283.2673,387.90094 C 280.48206,391.10104 277.36049,396.9394 278.19083,401.09978 C 279.2856,406.58507 291.05139,414.59934 291.05139,414.59934"
         style="opacity:1;fill:none;fill-opacity:1;fill-rule:nonzero;stroke:#000000;stroke-width:2;stroke-linecap:butt;stroke-linejoin:miter;stroke-miterlimit:4;stroke-dasharray:none;stroke-dashoffset:0;stroke-opacity:1" />
    </g>
    <g
       id="g19801"
       transform="translate(0,24)">
      <g
         style="display:inline"
         id="g3508"
         transform="matrix(0.8549965,0,0,-0.8549965,-827.11497,222.58631)">
        <path
           style="fill:#e20909;fill-opacity:1;stroke:#000000;stroke-width:2.5;stroke-miterlimit:4;stroke-dasharray:none;stroke-opacity:1"
           d="M 1113.275,318.79563 C 1102.7571,329.75207 1103.1126,347.1605 1114.0691,357.6784 L 1148.6962,390.9194 C 1159.6526,401.43729 1177.0611,401.08174 1187.5789,390.12529 C 1198.0968,379.16885 1197.7413,361.76042 1186.7848,351.24253 L 1152.1577,318.00152 C 1141.2013,307.48363 1123.7928,307.83919 1113.275,318.79563 z M 1122.8335,327.97153 C 1128.286,322.29168 1137.3237,322.08499 1143.0035,327.53746 L 1177.6306,360.77847 C 1183.3104,366.23094 1183.4954,375.29118 1178.043,380.97103 C 1172.5905,386.65088 1163.5519,386.81336 1157.8721,381.36088 L 1123.245,348.11988 C 1117.5651,342.6674 1117.381,333.65139 1122.8335,327.97153 z"
           id="path6601" />
        <path
           style="fill:#e20909;fill-opacity:1;stroke:#000000;stroke-width:2.5;stroke-miterlimit:4;stroke-dasharray:none;stroke-opacity:1"
           d="M 1039.8327,286.41366 L 1059.2428,305.0468 C 1070.1993,315.56469 1087.6077,315.20913 1098.1256,304.25269 C 1108.6435,293.29625 1108.288,275.88782 1097.3315,265.36993 L 1077.9214,246.73678 L 1068.7672,256.27272 L 1088.1773,274.90587 C 1093.8571,280.35834 1094.0421,289.41858 1088.5896,295.09843 C 1083.1371,300.77828 1074.0986,300.94075 1068.4188,295.48828 L 1049.0086,276.85514 L 1039.8327,286.41366 z"
           id="path6603" />
        <path
           style="fill:#e20909;fill-opacity:1;stroke:#000000;stroke-width:2.5;stroke-miterlimit:4;stroke-dasharray:none;stroke-opacity:1"
           d="M 1076.9346,283.90989 C 1074.4001,286.54998 1074.4858,290.74267 1077.1259,293.2771 L 1125.3919,339.61108 C 1125.4365,339.65388 1125.4822,339.69782 1125.5271,339.74093 C 1128.1672,342.27535 1132.3599,342.18972 1134.8944,339.54962 C 1137.4288,336.90952 1137.3432,332.71683 1134.703,330.18241 L 1086.3018,283.71858 C 1083.6617,281.18415 1079.469,281.26979 1076.9346,283.90989 z"
           id="path6605"
           sodipodi:nodetypes="cccssccc" />
        <path
           id="path6607"
           d="M 1201.2855,403.28319 C 1190.7676,414.23964 1191.1231,431.64807 1202.0796,442.16596 L 1236.7067,475.40697 C 1247.6631,485.92486 1265.0716,485.5693 1275.5894,474.61286 C 1286.1073,463.65641 1285.7518,446.24798 1274.7953,435.73009 L 1240.1682,402.48908 C 1229.2118,391.97119 1211.8034,392.32675 1201.2855,403.28319 z M 1210.844,412.4591 C 1216.2965,406.77924 1225.3342,406.57255 1231.014,412.02502 L 1265.6411,445.26603 C 1271.3209,450.71851 1271.506,459.77874 1266.0535,465.45859 C 1260.601,471.13845 1251.5624,471.30092 1245.8826,465.84845 L 1211.2555,432.60744 C 1205.5757,427.15496 1205.3915,418.13895 1210.844,412.4591 z"
           style="fill:#e20909;fill-opacity:1;stroke:#000000;stroke-width:2.5;stroke-miterlimit:4;stroke-dasharray:none;stroke-opacity:1" />
        <path
           id="path6609"
           d="M 1166.3879,369.78249 C 1163.8535,372.42259 1163.9391,376.61527 1166.5792,379.1497 L 1214.8452,425.48368 C 1214.8898,425.52648 1214.9355,425.57042 1214.9805,425.61353 C 1217.6206,428.14796 1221.8132,428.06232 1224.3477,425.42222 C 1226.8821,422.78212 1226.7965,418.58944 1224.1564,416.05501 L 1175.7551,369.59118 C 1173.115,367.05676 1168.9223,367.14239 1166.3879,369.78249 z"
           style="fill:#e20909;fill-opacity:1;stroke:#000000;stroke-width:2.5;stroke-miterlimit:4;stroke-dasharray:none;stroke-opacity:1"
           sodipodi:nodetypes="cccssccc" />
      </g>
      <use
         style="display:inline"
         x="0"
         y="0"
         xlink:href="#g3508"
         id="use3515"
         transform="matrix(-1,0,0,1,-9.5e-5,-4.0000003e-7)"
         width="600"
         height="660" />
    </g>
    <path
       id="rect2477"
       d="M 0,-277.5 L -18.63094,-220.15688 L -78.91931,-220.15688 L -30.1442,-184.72463 L -48.77512,-127.3815 L 0,-162.81375 L 48.77513,-127.3815 L 30.14418,-184.72463 L 78.91932,-220.15688 L 18.63094,-220.15688 L 0,-277.5 z"
       style="fill:#ffffff;fill-opacity:1;stroke:#000000;stroke-width:3;stroke-linecap:butt;stroke-linejoin:round;stroke-miterlimit:4;stroke-dasharray:none;stroke-opacity:1" />
  </g>
  <g
     id="layer2"
     inkscape:label="Reflet final"
     inkscape:groupmode="layer"
     transform="translate(300,300)"
     sodipodi:insensitive="true">
    <use
       xlink:href="#shield"
       id="use22"
       style="fill:url(#Gradient1)"
       x="0"
       y="0"
       width="600"
       height="660" />
  </g>
  <g
     id="layer1"
     inkscape:label="Contour final"
     inkscape:groupmode="layer"
     transform="translate(300,300)"
     sodipodi:insensitive="true">
    <use
       xlink:href="#shield"
       style="fill:none;stroke:#000000;stroke-width:3"
       id="use25"
       x="0"
       y="0"
       width="600"
       height="660" />
  </g>
</svg>
