<?xml version="1.0" encoding="UTF-8" standalone="no"?>
<svg
   xmlns:dc="http://purl.org/dc/elements/1.1/"
   xmlns:cc="http://creativecommons.org/ns#"
   xmlns:rdf="http://www.w3.org/1999/02/22-rdf-syntax-ns#"
   xmlns:svg="http://www.w3.org/2000/svg"
   xmlns="http://www.w3.org/2000/svg"
   xmlns:xlink="http://www.w3.org/1999/xlink"
   xmlns:sodipodi="http://sodipodi.sourceforge.net/DTD/sodipodi-0.dtd"
   xmlns:inkscape="http://www.inkscape.org/namespaces/inkscape"
   height="660.00031"
   width="600.00299"
   version="1.0"
   id="svg2"
   sodipodi:version="0.32"
   inkscape:version="0.48.2 r9819"
   sodipodi:docname="La Vernarède (30).svg"
   inkscape:export-filename="/Users/olivier/Desktop/Blason Rouge/Blason_Vide_3D.png"
   inkscape:export-xdpi="144"
   inkscape:export-ydpi="144"
   inkscape:output_extension="org.inkscape.output.svg.inkscape">
  <metadata
     id="metadata49">
    <rdf:RDF>
      <cc:Work
         rdf:about="">
        <dc:format>image/svg+xml</dc:format>
        <dc:type
           rdf:resource="http://purl.org/dc/dcmitype/StillImage" />
        <dc:title />
        <dc:date />
        <dc:creator>
          <cc:Agent>
            <dc:title />
          </cc:Agent>
        </dc:creator>
        <cc:license
           rdf:resource="http://web.resource.org/cc/PublicDomain" />
        <dc:language>fr</dc:language>
        <dc:subject>
          <rdf:Bag />
        </dc:subject>
      </cc:Work>
      <cc:License
         rdf:about="http://web.resource.org/cc/PublicDomain">
        <cc:permits
           rdf:resource="http://web.resource.org/cc/Reproduction" />
        <cc:permits
           rdf:resource="http://web.resource.org/cc/Distribution" />
        <cc:permits
           rdf:resource="http://web.resource.org/cc/DerivativeWorks" />
      </cc:License>
    </rdf:RDF>
  </metadata>
  <sodipodi:namedview
     inkscape:window-height="712"
     inkscape:window-width="1024"
     inkscape:pageshadow="2"
     inkscape:pageopacity="0.0"
     guidetolerance="10.0"
     gridtolerance="10.0"
     objecttolerance="10.0"
     borderopacity="1.0"
     bordercolor="#666666"
     pagecolor="#ffffff"
     id="base"
     showgrid="false"
     height="660px"
     inkscape:zoom="0.80000001"
     inkscape:cx="297.82492"
     inkscape:cy="324.49812"
     inkscape:window-x="0"
     inkscape:window-y="22"
     inkscape:current-layer="g2836"
     showguides="true"
     inkscape:guide-bbox="true"
     inkscape:window-maximized="0">
    <inkscape:grid
       type="xygrid"
       id="grid2399" />
  </sodipodi:namedview>
  <desc
     id="desc4">Flag of Canton of Valais (Wallis)</desc>
  <defs
     id="defs6">
    <linearGradient
       id="linearGradient2893">
      <stop
         style="stop-color:white;stop-opacity:0.3137255;"
         offset="0"
         id="stop2895" />
      <stop
         id="stop2897"
         offset="0.19"
         style="stop-color:white;stop-opacity:0.25098041;" />
      <stop
         style="stop-color:#6b6b6b;stop-opacity:0.1254902;"
         offset="0.60000002"
         id="stop2901" />
      <stop
         style="stop-color:black;stop-opacity:0.1254902;"
         offset="1"
         id="stop2899" />
    </linearGradient>
    <radialGradient
       r="300"
       fy="200.44757"
       fx="285.18573"
       cy="200.44757"
       cx="285.18573"
       gradientTransform="matrix(1.551284,0,0,1.350335,-152.89433,151.09881)"
       gradientUnits="userSpaceOnUse"
       id="radialGradient11919"
       xlink:href="#linearGradient2893"
       inkscape:collect="always" />
  </defs>
  <g
     inkscape:groupmode="layer"
     id="layer3"
     inkscape:label="Fond écu"
     style="display:inline"
     transform="translate(-2.0595148,1.2525328e-6)">
    <g
       id="g18530"
       inkscape:label="Calque 1"
       transform="translate(-72.940433,-202.36204)"
       style="fill:#2b5df2">
      <g
         style="fill:#2b5df2;stroke:none;display:inline"
         id="g4195"
         inkscape:label="Calque 1"
         transform="translate(2.5e-6,2.6171874e-6)">
        <path
           sodipodi:nodetypes="cssccccssc"
           d="M 374.99998,860.86234 C 374.99998,822.35824 406.20317,791.10862 444.64998,791.10862 C 483.09679,791.10862 565.40315,791.10862 603.84996,791.10862 C 642.29676,791.10862 673.50005,759.859 673.50005,721.355 L 673.50005,203.86202 L 76.499955,203.86204 L 76.499945,721.355 C 76.499945,759.859 107.70316,791.10862 146.14996,791.10862 C 184.59679,791.10862 266.90317,791.10862 305.34998,791.10862 C 343.79678,791.10862 374.99998,822.35824 374.99998,860.86234 z"
           style="fill:#fcef3c;fill-opacity:1;fill-rule:nonzero;stroke:none;stroke-width:3.00000190999999990;stroke-linecap:round;stroke-linejoin:round;stroke-miterlimit:4;stroke-dasharray:none;stroke-dashoffset:0;stroke-opacity:1;display:inline"
           id="path4197" />
      </g>
    </g>
    <g
       id="g6940"
       transform="translate(2.0595148,3.0392325e-4)"
       style="fill:#ffffff">
      <g
         style="opacity:1;fill:#ffffff;display:inline"
         inkscape:label="Fond écu"
         id="g6942" />
      <g
         inkscape:label="Meubles"
         id="g6946"
         style="fill:#ffffff" />
      <g
         inkscape:label="Reflet final"
         id="g6948"
         style="fill:#ffffff" />
      <g
         inkscape:label="Contour final"
         id="g6950"
         style="fill:#ffffff" />
    </g>
    <g
       transform="translate(927.05957,-202.36204)"
       inkscape:label="Calque 1"
       id="g8763">
      <g
         transform="translate(2.5e-6,2.6171874e-6)"
         inkscape:label="Calque 1"
         id="g8765"
         style="fill:#fcef3c;stroke:none;display:inline" />
    </g>
    <g
       style="fill:#e20909;stroke:#5ab532;display:none"
       id="g8775"
       transform="translate(1001.5585,-0.8866961)">
      <g
         style="fill:#e20909;stroke:#5ab532;display:inline"
         id="g8777"
         transform="matrix(0.4322873,0,0,0.4332117,137.58128,209.86369)">
        <g
           style="fill:#e20909;fill-opacity:1;stroke:#5ab532"
           id="g8779">
          <path
             style="fill:#e20909;fill-opacity:1;fill-rule:evenodd;stroke:#5ab532;stroke-width:3;stroke-linecap:round;stroke-linejoin:round;stroke-miterlimit:4;stroke-dasharray:none;stroke-opacity:1"
             id="path8781"
             d="M 377.12803,135.62208 C 363.02661,205.73306 336.73998,255.37403 308.18363,291.06095 C 320.05424,287.49883 333.39868,277.37136 346.30099,268.51112 C 338.41058,286.89606 330.52017,302.95607 322.62976,319.17879 C 327.34089,317.4313 342.29073,301.0571 362.59516,277.03346 C 365.77841,310.06027 370.08215,347.25496 376.51201,369.64909 C 381.63098,347.29082 385.41835,310.2849 389.48097,276.30682 C 401.72195,291.50121 413.61062,306.87175 430.17301,319.90544 L 406.92042,267.5871 C 418.92697,275.98511 432.19471,287.10163 444.92715,291.7876 C 414.7385,254.31996 389.31682,205.74061 377.12803,135.62208 z" />
          <path
             style="fill:#e20909;fill-opacity:1;fill-rule:evenodd;stroke:#5ab532;stroke-width:3;stroke-linecap:round;stroke-linejoin:round;stroke-miterlimit:4;stroke-dasharray:none;stroke-opacity:1"
             id="path8783"
             d="M 319.72318,139.69782 C 318.42725,135.61998 300.18538,148.67252 290.12817,121.31047 C 314.11958,148.89422 338.90845,92.268711 358.96194,130.25146 C 365.15076,145.92197 338.0398,173.11186 319.72318,139.69782 z" />
          <path
             style="fill:#e20909;fill-opacity:1;fill-rule:evenodd;stroke:#5ab532;stroke-width:3;stroke-linecap:round;stroke-linejoin:round;stroke-miterlimit:4;stroke-dasharray:none;stroke-opacity:1;display:inline"
             id="path8785"
             d="M 431.71563,139.34811 C 433.01156,135.27027 451.25343,148.32281 461.31064,120.96076 C 437.31923,148.54451 412.53036,91.919 392.47687,129.90175 C 386.28805,145.57226 413.39901,172.76215 431.71563,139.34811 z" />
          <path
             style="fill:#e20909;fill-opacity:1;fill-rule:evenodd;stroke:#5ab532;stroke-width:3;stroke-linecap:round;stroke-linejoin:round;stroke-miterlimit:4;stroke-dasharray:none;stroke-opacity:1;display:inline"
             id="path8787"
             d="M 383.38239,79.374824 C 379.68544,77.220552 396.40299,62.265328 371.89381,46.481478 C 393.57969,75.912309 332.91037,87.751712 365.60384,115.60792 C 379.5469,125.06613 411.99605,104.53936 383.38239,79.374824 z" />
        </g>
      </g>
    </g>
    <g
       id="g8799"
       style="fill:#e20909;fill-opacity:1;stroke:#e20909;display:none"
       transform="matrix(0.4322873,0,0,0.4332117,1139.1398,448.97699)">
      <path
         d="M 377.12803,135.62208 C 363.02661,205.73306 336.73998,255.37403 308.18363,291.06095 C 320.05424,287.49883 333.39868,277.37136 346.30099,268.51112 C 338.41058,286.89606 330.52017,302.95607 322.62976,319.17879 C 327.34089,317.4313 342.29073,301.0571 362.59516,277.03346 C 365.77841,310.06027 370.08215,347.25496 376.51201,369.64909 C 381.63098,347.29082 385.41835,310.2849 389.48097,276.30682 C 401.72195,291.50121 413.61062,306.87175 430.17301,319.90544 L 406.92042,267.5871 C 418.92697,275.98511 432.19471,287.10163 444.92715,291.7876 C 414.7385,254.31996 389.31682,205.74061 377.12803,135.62208 z"
         id="path8801"
         style="fill:#e20909;fill-opacity:1;fill-rule:evenodd;stroke:#e20909;stroke-width:3;stroke-linecap:round;stroke-linejoin:round;stroke-miterlimit:4;stroke-dasharray:none;stroke-opacity:1" />
      <path
         d="M 319.72318,139.69782 C 318.42725,135.61998 300.18538,148.67252 290.12817,121.31047 C 314.11958,148.89422 338.90845,92.268711 358.96194,130.25146 C 365.15076,145.92197 338.0398,173.11186 319.72318,139.69782 z"
         id="path8803"
         style="fill:#e20909;fill-opacity:1;fill-rule:evenodd;stroke:#e20909;stroke-width:3;stroke-linecap:round;stroke-linejoin:round;stroke-miterlimit:4;stroke-dasharray:none;stroke-opacity:1" />
      <path
         d="M 431.71563,139.34811 C 433.01156,135.27027 451.25343,148.32281 461.31064,120.96076 C 437.31923,148.54451 412.53036,91.919 392.47687,129.90175 C 386.28805,145.57226 413.39901,172.76215 431.71563,139.34811 z"
         id="path8805"
         style="fill:#e20909;fill-opacity:1;fill-rule:evenodd;stroke:#e20909;stroke-width:3;stroke-linecap:round;stroke-linejoin:round;stroke-miterlimit:4;stroke-dasharray:none;stroke-opacity:1;display:inline" />
      <path
         d="M 383.38239,79.374824 C 379.68544,77.220552 396.40299,62.265328 371.89381,46.481478 C 393.57969,75.912309 332.91037,87.751712 365.60384,115.60792 C 379.5469,125.06613 411.99605,104.53936 383.38239,79.374824 z"
         id="path8807"
         style="fill:#e20909;fill-opacity:1;fill-rule:evenodd;stroke:#e20909;stroke-width:3;stroke-linecap:round;stroke-linejoin:round;stroke-miterlimit:4;stroke-dasharray:none;stroke-opacity:1;display:inline" />
    </g>
    <g
       style="display:inline"
       id="g22428"
       transform="translate(-997.94049,2.3923248e-5)">
      <path
         sodipodi:nodetypes="ccsccccc"
         d="M 1598.5001,461.75781 L 1598.5001,518.99266 C 1598.5001,557.49666 1567.2968,588.74628 1528.85,588.74628 C 1510.0587,588.74628 1480.5903,588.74628 1451.086,588.74628 L 1001.5,139.219 L 1001.5,2.1764765 L 1138.731,2.1764765 L 1598.5001,461.75781 z"
         style="fill:#e20909;fill-opacity:1;fill-rule:evenodd;stroke:#000000;stroke-width:3;stroke-linecap:butt;stroke-linejoin:miter;stroke-miterlimit:4;stroke-dasharray:none;stroke-opacity:1"
         id="path2855" />
      <path
         sodipodi:nodetypes="cccccccccccccccccccccccccccccccccccccccccccccccccccccccccccc"
         d="M 1101,2.1875 L 1101,101.65625 L 1200.5,101.65625 L 1200.5,63.919 L 1138.731,2.1875 L 1101,2.1875 z M 1200.5,101.65625 L 1200.5,201.15625 L 1299.9688,201.15625 L 1299.9688,163.362 L 1238.138,101.65625 L 1200.5,101.65625 z M 1163.238,300.65625 L 1200.5,300.65625 L 1200.5,201.15625 L 1101,201.15625 L 1101,238.206 L 1163.238,300.65625 z M 1101,201.15625 L 1101,101.65625 L 1001.5,101.65625 L 1001.5,139.219 L 1063.763,201.15625 L 1101,201.15625 z M 1200.5,300.65625 L 1200.5,337.975 L 1262.781,400.15625 L 1299.9688,400.15625 L 1299.9688,300.65625 L 1200.5,300.65625 z M 1299.9688,300.65625 L 1399.4688,300.65625 L 1399.4688,262.881 L 1337.613,201.15625 L 1299.9688,201.15625 L 1299.9688,300.65625 z M 1399.525,300.55625 L 1399.525,400.05625 L 1498.9938,400.05625 L 1498.9938,362.262 L 1437.163,300.55625 L 1399.525,300.55625 z M 1362.263,499.55625 L 1399.525,499.55625 L 1399.525,400.05625 L 1300.025,400.05625 L 1300.025,437.106 L 1362.263,499.55625 z M 1399.525,499.55625 L 1399.525,536.875 L 1451.086,588.746 L 1498.9938,588.746 L 1498.9938,499.55625 L 1399.525,499.55625 z M 1498.9938,499.55625 L 1598.4938,499.55625 L 1598.4938,461.781 L 1536.638,400.05625 L 1498.9938,400.05625 L 1498.9938,499.55625 z"
         style="fill:#ffffff;fill-opacity:1;fill-rule:evenodd;stroke:#000000;stroke-width:3;stroke-linecap:butt;stroke-linejoin:miter;stroke-miterlimit:4;stroke-dasharray:none;stroke-opacity:1;display:inline"
         id="path22409" />
    </g>
  </g>
  <g
     inkscape:groupmode="layer"
     id="layer4"
     inkscape:label="Meubles"
     transform="translate(-2.0595148,1.2525328e-6)"
     style="display:inline">
    <g
       id="g2663"
       inkscape:label="Calque 1"
       transform="matrix(0.4360235,0,0,0.4360235,45.124624,229.47705)"
       style="fill:#000000;stroke:#313131;display:inline">
      <g
         transform="matrix(1.785294,0,0,1.785294,124.9049,-400.5329)"
         id="g7679"
         style="fill:#000000;stroke:#313131">
        <g
           id="g13954"
           style="fill:#000000;stroke:#313131">
          <g
             id="g2794"
             transform="matrix(1.2344552,0,0,1.2344552,-19.992895,-153.00567)">
            <g
               style="fill:#000000;stroke:#313131;stroke-width:6.07682943;stroke-miterlimit:4;stroke-dasharray:none;stroke-opacity:1"
               transform="matrix(0.367431,0,0,0.367431,119.71731,278.3405)"
               id="g10408">
              <path
                 sodipodi:type="arc"
                 style="opacity:0.9;fill:#000000;fill-opacity:1;fill-rule:evenodd;stroke:#313131;stroke-width:4.96722555;stroke-linecap:butt;stroke-linejoin:miter;marker:none;marker-start:none;marker-mid:none;marker-end:none;stroke-miterlimit:4;stroke-dasharray:none;stroke-dashoffset:0;stroke-opacity:1;visibility:visible;display:inline;overflow:visible"
                 id="path9519"
                 sodipodi:cx="-275.77164"
                 sodipodi:cy="378.08536"
                 sodipodi:rx="42.426407"
                 sodipodi:ry="38.890873"
                 d="m -233.34523,378.08536 c 0,21.47883 -18.99495,38.89087 -42.42641,38.89087 -23.43145,0 -42.4264,-17.41204 -42.4264,-38.89087 0,-21.47884 18.99495,-38.89088 42.4264,-38.89088 23.43146,0 42.42641,17.41204 42.42641,38.89088 z"
                 transform="matrix(1.171302,0,0,1.277784,62.36397,-143.8747)" />
              <path
                 sodipodi:type="arc"
                 style="opacity:0.9;fill:#fcef3c;fill-opacity:1;fill-rule:evenodd;stroke:#313131;stroke-width:4.06719542;stroke-linecap:butt;stroke-linejoin:miter;marker:none;marker-start:none;marker-mid:none;marker-end:none;stroke-miterlimit:4;stroke-dasharray:none;stroke-dashoffset:0;stroke-opacity:1;visibility:visible;display:inline;overflow:visible"
                 id="path9521"
                 sodipodi:cx="-263.14474"
                 sodipodi:cy="301.81885"
                 sodipodi:rx="33.840111"
                 sodipodi:ry="19.192898"
                 d="m -229.30463,301.81885 c 0,10.59994 -15.15074,19.1929 -33.84011,19.1929 -18.68938,0 -33.84012,-8.59296 -33.84012,-19.1929 0,-10.59995 15.15074,-19.1929 33.84012,-19.1929 18.68937,0 33.84011,8.59295 33.84011,19.1929 z"
                 transform="matrix(1.125216,0,0,1.983938,35.44678,-259.5532)" />
            </g>
            <g
               id="g2731">
              <path
                 sodipodi:nodetypes="ccccccccccssccccccccc"
                 id="path2115"
                 d="M -15.018112,648.24515 L 60.751193,648.24515 L 62.802871,642.81464 L 62.802871,613.70653 L 62.802871,607.26645 L 62.802871,545.91651 L 61.090004,539.91616 L 41.067771,449.97399 L 54.573592,449.91088 L 27.302717,429.91127 L 27.302717,413.65634 C 27.302717,409.43672 21.010879,409.49983 21.033477,413.65634 L 21.120524,429.66698 L -6.0182709,449.91088 L 7.3597203,449.91088 L -14.152225,539.91616 L -15.821207,545.91651 L -15.821207,605.92002 L -15.821207,614.92055 L -15.821207,642.81464 L -15.018112,648.24515 z"
                 style="fill:#000000;fill-rule:evenodd;stroke:#313131;stroke-width:3.52350068px;stroke-linecap:butt;stroke-linejoin:miter;stroke-opacity:1" />
              <g
                 transform="matrix(1.3803408,0,0,0.7767832,-246.72536,143.46719)"
                 id="g3896"
                 style="fill:#000000;stroke:#313131">
                <path
                   style="fill:#000000;fill-opacity:1;fill-rule:evenodd;stroke:#313131;stroke-width:3;stroke-linecap:butt;stroke-linejoin:miter;stroke-miterlimit:4;stroke-dasharray:none;stroke-opacity:1"
                   d="M 161.25447,641.98271 L 166.24965,641.98433 L 225.23211,642.00338 L 230.33929,642.00503 C 232.93056,642.00587 232.92895,651.0254 230.33929,651.02289 L 225.23355,651.01794 L 166.22841,650.96073 L 161.27678,650.95593 C 158.71084,650.95344 158.69006,641.98188 161.25447,641.98271 z"
                   id="path2117"
                   sodipodi:nodetypes="cccssccss" />
              </g>
              <g
                 style="fill:#000000;stroke:#313131"
                 transform="matrix(1.3817595,0,0,0.5763136,-215.06363,266.35879)"
                 id="g3907">
                <path
                   style="fill:#000000;fill-rule:evenodd;stroke:#313131;stroke-width:3;stroke-linecap:butt;stroke-linejoin:miter;stroke-miterlimit:4;stroke-dasharray:none;stroke-opacity:1"
                   d="M 138.14782,592.51173 L 143.143,592.51335 L 202.12546,592.5324 L 207.23264,592.53405 C 209.82391,592.53489 209.8223,601.55442 207.23264,601.55191 L 202.1269,601.54696 L 143.12176,601.48975 L 138.17013,601.48495 C 135.60419,601.48246 135.58341,592.5109 138.14782,592.51173 z"
                   id="path3901"
                   sodipodi:nodetypes="cccssccss" />
              </g>
              <g
                 style="fill:#000000;stroke:#313131"
                 transform="matrix(1.3817595,0,0,0.5763136,-215.00297,198.57865)"
                 id="g3912">
                <path
                   style="fill:#000000;fill-rule:evenodd;stroke:#313131;stroke-width:3;stroke-linecap:butt;stroke-linejoin:miter;stroke-miterlimit:4;stroke-dasharray:none;stroke-opacity:1"
                   d="M 138.14782,592.51173 L 143.143,592.51335 L 202.12546,592.5324 L 207.23264,592.53405 C 209.82391,592.53489 209.8223,601.55442 207.23264,601.55191 L 202.1269,601.54696 L 143.12176,601.48975 L 138.17013,601.48495 C 135.60419,601.48246 135.58341,592.5109 138.14782,592.51173 z"
                   id="path3914"
                   sodipodi:nodetypes="cccssccss" />
              </g>
              <path
                 sodipodi:nodetypes="cc"
                 id="path3922"
                 d="M -8.6974563,545.21136 L -15.731141,554.84816"
                 style="fill:#000000;fill-rule:evenodd;stroke:#313131;stroke-width:0.51899093;stroke-linecap:butt;stroke-linejoin:miter;stroke-miterlimit:4;stroke-dasharray:none;stroke-opacity:1" />
              <path
                 sodipodi:nodetypes="cc"
                 id="path3934"
                 d="M -4.2251345,545.21136 L -15.764823,561.02182"
                 style="fill:#000000;fill-rule:evenodd;stroke:#313131;stroke-width:0.51899093;stroke-linecap:butt;stroke-linejoin:miter;stroke-miterlimit:4;stroke-dasharray:none;stroke-opacity:1" />
              <path
                 sodipodi:nodetypes="cc"
                 id="path3936"
                 d="M 0.24718736,545.21136 L -15.823921,567.23029"
                 style="fill:#000000;fill-rule:evenodd;stroke:#313131;stroke-width:0.51899093;stroke-linecap:butt;stroke-linejoin:miter;stroke-miterlimit:4;stroke-dasharray:none;stroke-opacity:1" />
              <path
                 sodipodi:nodetypes="cc"
                 id="path3938"
                 d="M 4.7195092,545.21136 L -15.831139,573.36768"
                 style="fill:#000000;fill-rule:evenodd;stroke:#313131;stroke-width:0.51899093;stroke-linecap:butt;stroke-linejoin:miter;stroke-miterlimit:4;stroke-dasharray:none;stroke-opacity:1" />
              <path
                 sodipodi:nodetypes="cc"
                 id="path3940"
                 d="M 9.191831,545.21136 L -16.044749,579.78784"
                 style="fill:#000000;fill-rule:evenodd;stroke:#313131;stroke-width:0.51899093;stroke-linecap:butt;stroke-linejoin:miter;stroke-miterlimit:4;stroke-dasharray:none;stroke-opacity:1" />
              <path
                 sodipodi:nodetypes="cc"
                 id="path3942"
                 d="M 13.664154,545.21136 L -15.969425,585.81213"
                 style="fill:#000000;fill-rule:evenodd;stroke:#313131;stroke-width:0.51899093;stroke-linecap:butt;stroke-linejoin:miter;stroke-miterlimit:4;stroke-dasharray:none;stroke-opacity:1" />
              <path
                 sodipodi:nodetypes="cc"
                 id="path3944"
                 d="M 18.136476,545.21136 L -15.992536,591.9713"
                 style="fill:#000000;fill-rule:evenodd;stroke:#313131;stroke-width:0.51899093;stroke-linecap:butt;stroke-linejoin:miter;stroke-miterlimit:4;stroke-dasharray:none;stroke-opacity:1" />
              <path
                 sodipodi:nodetypes="cc"
                 id="path3946"
                 d="M 22.608797,545.21136 L -16.03469,598.15655"
                 style="fill:#000000;fill-rule:evenodd;stroke:#313131;stroke-width:0.51899093;stroke-linecap:butt;stroke-linejoin:miter;stroke-miterlimit:4;stroke-dasharray:none;stroke-opacity:1" />
              <path
                 sodipodi:nodetypes="cc"
                 id="path3948"
                 d="M 27.08112,545.21136 L -16.131873,604.4172"
                 style="fill:#000000;fill-rule:evenodd;stroke:#313131;stroke-width:0.51899093;stroke-linecap:butt;stroke-linejoin:miter;stroke-miterlimit:4;stroke-dasharray:none;stroke-opacity:1" />
              <path
                 id="path3950"
                 d="M 31.553439,545.21136 L -14.987243,608.97645"
                 style="fill:#000000;fill-rule:evenodd;stroke:#313131;stroke-width:0.51899093;stroke-linecap:butt;stroke-linejoin:miter;stroke-miterlimit:4;stroke-dasharray:none;stroke-opacity:1" />
              <path
                 id="path3952"
                 d="M 36.025759,545.21136 L -10.514921,608.97645"
                 style="fill:#000000;fill-rule:evenodd;stroke:#313131;stroke-width:0.51899093;stroke-linecap:butt;stroke-linejoin:miter;stroke-miterlimit:4;stroke-dasharray:none;stroke-opacity:1" />
              <path
                 id="path3954"
                 d="M 40.498081,545.21136 L -6.0425988,608.97645"
                 style="fill:#000000;fill-rule:evenodd;stroke:#313131;stroke-width:0.51899093;stroke-linecap:butt;stroke-linejoin:miter;stroke-miterlimit:4;stroke-dasharray:none;stroke-opacity:1" />
              <path
                 id="path3956"
                 d="M 44.970408,545.21136 L -1.5702769,608.97645"
                 style="fill:#000000;fill-rule:evenodd;stroke:#313131;stroke-width:0.51899093;stroke-linecap:butt;stroke-linejoin:miter;stroke-miterlimit:4;stroke-dasharray:none;stroke-opacity:1" />
              <path
                 sodipodi:nodetypes="cc"
                 id="path3958"
                 d="M 63.052324,557.20244 L 25.263654,608.97645"
                 style="fill:#000000;fill-rule:evenodd;stroke:#313131;stroke-width:0.51899093;stroke-linecap:butt;stroke-linejoin:miter;stroke-miterlimit:4;stroke-dasharray:none;stroke-opacity:1" />
              <path
                 sodipodi:nodetypes="cc"
                 id="path3960"
                 d="M 63.141356,551.11314 L 20.908247,608.97645"
                 style="fill:#000000;fill-rule:evenodd;stroke:#313131;stroke-width:0.51899093;stroke-linecap:butt;stroke-linejoin:miter;stroke-miterlimit:4;stroke-dasharray:none;stroke-opacity:1" />
              <path
                 id="path3962"
                 d="M 62.859693,545.21136 L 16.319012,608.97645"
                 style="fill:#000000;fill-rule:evenodd;stroke:#313131;stroke-width:0.51899093;stroke-linecap:butt;stroke-linejoin:miter;stroke-miterlimit:4;stroke-dasharray:none;stroke-opacity:1" />
              <path
                 id="path3964"
                 d="M 58.387373,545.21136 L 11.846689,608.97645"
                 style="fill:#000000;fill-rule:evenodd;stroke:#313131;stroke-width:0.51899093;stroke-linecap:butt;stroke-linejoin:miter;stroke-miterlimit:4;stroke-dasharray:none;stroke-opacity:1" />
              <path
                 id="path3966"
                 d="M 53.915051,545.21136 L 7.3743667,608.97645"
                 style="fill:#000000;fill-rule:evenodd;stroke:#313131;stroke-width:0.51899093;stroke-linecap:butt;stroke-linejoin:miter;stroke-miterlimit:4;stroke-dasharray:none;stroke-opacity:1" />
              <path
                 id="path3968"
                 d="M 49.44273,545.21136 L 2.9020449,608.97645"
                 style="fill:#000000;fill-rule:evenodd;stroke:#313131;stroke-width:0.51899093;stroke-linecap:butt;stroke-linejoin:miter;stroke-miterlimit:4;stroke-dasharray:none;stroke-opacity:1" />
              <path
                 sodipodi:nodetypes="cc"
                 id="path3970"
                 d="M 62.982656,563.4254 L 29.735979,608.97645"
                 style="fill:#000000;fill-rule:evenodd;stroke:#313131;stroke-width:0.51899093;stroke-linecap:butt;stroke-linejoin:miter;stroke-miterlimit:4;stroke-dasharray:none;stroke-opacity:1" />
              <path
                 sodipodi:nodetypes="cc"
                 id="path3972"
                 d="M 63.004002,569.52365 L 34.208303,608.97645"
                 style="fill:#000000;fill-rule:evenodd;stroke:#313131;stroke-width:0.51899093;stroke-linecap:butt;stroke-linejoin:miter;stroke-miterlimit:4;stroke-dasharray:none;stroke-opacity:1" />
              <path
                 sodipodi:nodetypes="cc"
                 id="path3974"
                 d="M 62.98089,575.68281 L 38.680624,608.97645"
                 style="fill:#000000;fill-rule:evenodd;stroke:#313131;stroke-width:0.51899093;stroke-linecap:butt;stroke-linejoin:miter;stroke-miterlimit:4;stroke-dasharray:none;stroke-opacity:1" />
              <path
                 sodipodi:nodetypes="cc"
                 id="path3976"
                 d="M 62.966251,581.83037 L 43.152946,608.97645"
                 style="fill:#000000;fill-rule:evenodd;stroke:#313131;stroke-width:0.51899093;stroke-linecap:butt;stroke-linejoin:miter;stroke-miterlimit:4;stroke-dasharray:none;stroke-opacity:1" />
              <path
                 sodipodi:nodetypes="cc"
                 id="path3978"
                 d="M 62.987595,587.92862 L 47.625266,608.97645"
                 style="fill:#000000;fill-rule:evenodd;stroke:#313131;stroke-width:0.51899093;stroke-linecap:butt;stroke-linejoin:miter;stroke-miterlimit:4;stroke-dasharray:none;stroke-opacity:1" />
              <path
                 sodipodi:nodetypes="cc"
                 id="path3980"
                 d="M 62.990949,594.05153 L 52.097588,608.97645"
                 style="fill:#000000;fill-rule:evenodd;stroke:#313131;stroke-width:0.51899093;stroke-linecap:butt;stroke-linejoin:miter;stroke-miterlimit:4;stroke-dasharray:none;stroke-opacity:1" />
              <path
                 sodipodi:nodetypes="cc"
                 id="path3982"
                 d="M 62.958316,600.22374 L 56.569908,608.97645"
                 style="fill:#000000;fill-rule:evenodd;stroke:#313131;stroke-width:0.51899093;stroke-linecap:butt;stroke-linejoin:miter;stroke-miterlimit:4;stroke-dasharray:none;stroke-opacity:1" />
              <path
                 sodipodi:nodetypes="cc"
                 id="path4963"
                 d="M 59.44315,545.21137 L 63.304844,550.50226"
                 style="fill:#000000;fill-rule:evenodd;stroke:#313131;stroke-width:0.51899093;stroke-linecap:butt;stroke-linejoin:miter;stroke-miterlimit:4;stroke-dasharray:none;stroke-opacity:1" />
              <path
                 sodipodi:nodetypes="cc"
                 id="path4965"
                 d="M 54.970829,545.21137 L 63.418972,556.78612"
                 style="fill:#000000;fill-rule:evenodd;stroke:#313131;stroke-width:0.51899093;stroke-linecap:butt;stroke-linejoin:miter;stroke-miterlimit:4;stroke-dasharray:none;stroke-opacity:1" />
              <path
                 sodipodi:nodetypes="cc"
                 id="path4967"
                 d="M 50.498507,545.21137 L 63.433617,562.93368"
                 style="fill:#000000;fill-rule:evenodd;stroke:#313131;stroke-width:0.51899093;stroke-linecap:butt;stroke-linejoin:miter;stroke-miterlimit:4;stroke-dasharray:none;stroke-opacity:1" />
              <path
                 sodipodi:nodetypes="cc"
                 id="path4969"
                 d="M 46.026185,545.21137 L 63.357247,568.95654"
                 style="fill:#000000;fill-rule:evenodd;stroke:#313131;stroke-width:0.51899093;stroke-linecap:butt;stroke-linejoin:miter;stroke-miterlimit:4;stroke-dasharray:none;stroke-opacity:1" />
              <path
                 sodipodi:nodetypes="cc"
                 id="path4971"
                 d="M 41.553862,545.21137 L 63.407874,575.15342"
                 style="fill:#000000;fill-rule:evenodd;stroke:#313131;stroke-width:0.51899093;stroke-linecap:butt;stroke-linejoin:miter;stroke-miterlimit:4;stroke-dasharray:none;stroke-opacity:1" />
              <path
                 sodipodi:nodetypes="cc"
                 id="path4973"
                 d="M 37.08154,545.21137 L 63.369589,581.22846"
                 style="fill:#000000;fill-rule:evenodd;stroke:#313131;stroke-width:0.51899093;stroke-linecap:butt;stroke-linejoin:miter;stroke-miterlimit:4;stroke-dasharray:none;stroke-opacity:1" />
              <path
                 sodipodi:nodetypes="cc"
                 id="path4975"
                 d="M 32.609219,545.21137 L 63.257234,587.20202"
                 style="fill:#000000;fill-rule:evenodd;stroke:#313131;stroke-width:0.51899093;stroke-linecap:butt;stroke-linejoin:miter;stroke-miterlimit:4;stroke-dasharray:none;stroke-opacity:1" />
              <path
                 sodipodi:nodetypes="cc"
                 id="path4977"
                 d="M 28.136896,545.21137 L 63.235893,593.30028"
                 style="fill:#000000;fill-rule:evenodd;stroke:#313131;stroke-width:0.51899093;stroke-linecap:butt;stroke-linejoin:miter;stroke-miterlimit:4;stroke-dasharray:none;stroke-opacity:1" />
              <path
                 sodipodi:nodetypes="cc"
                 id="path4979"
                 d="M 23.664577,545.21137 L 62.951031,599.03749"
                 style="fill:#000000;fill-rule:evenodd;stroke:#313131;stroke-width:0.51899093;stroke-linecap:butt;stroke-linejoin:miter;stroke-miterlimit:4;stroke-dasharray:none;stroke-opacity:1" />
              <path
                 sodipodi:nodetypes="cc"
                 id="path4981"
                 d="M 19.192257,545.21137 L 62.81116,604.97336"
                 style="fill:#000000;fill-rule:evenodd;stroke:#313131;stroke-width:0.51899093;stroke-linecap:butt;stroke-linejoin:miter;stroke-miterlimit:4;stroke-dasharray:none;stroke-opacity:1" />
              <path
                 id="path4983"
                 d="M 14.719935,545.21137 L 61.260615,608.97646"
                 style="fill:#000000;fill-rule:evenodd;stroke:#313131;stroke-width:0.51899093;stroke-linecap:butt;stroke-linejoin:miter;stroke-miterlimit:4;stroke-dasharray:none;stroke-opacity:1" />
              <path
                 id="path4985"
                 d="M 10.247607,545.21137 L 56.788293,608.97646"
                 style="fill:#000000;fill-rule:evenodd;stroke:#313131;stroke-width:0.51899093;stroke-linecap:butt;stroke-linejoin:miter;stroke-miterlimit:4;stroke-dasharray:none;stroke-opacity:1" />
              <path
                 id="path4987"
                 d="M -16.58632,545.21137 L 29.954362,608.97646"
                 style="fill:#000000;fill-rule:evenodd;stroke:#313131;stroke-width:0.51899093;stroke-linecap:butt;stroke-linejoin:miter;stroke-miterlimit:4;stroke-dasharray:none;stroke-opacity:1" />
              <path
                 id="path4989"
                 d="M -12.230912,545.21137 L 34.309769,608.97646"
                 style="fill:#000000;fill-rule:evenodd;stroke:#313131;stroke-width:0.51899093;stroke-linecap:butt;stroke-linejoin:miter;stroke-miterlimit:4;stroke-dasharray:none;stroke-opacity:1" />
              <path
                 id="path4991"
                 d="M -7.6416771,545.21137 L 38.899004,608.97646"
                 style="fill:#000000;fill-rule:evenodd;stroke:#313131;stroke-width:0.51899093;stroke-linecap:butt;stroke-linejoin:miter;stroke-miterlimit:4;stroke-dasharray:none;stroke-opacity:1" />
              <path
                 id="path4993"
                 d="M -3.1693566,545.21137 L 43.371327,608.97646"
                 style="fill:#000000;fill-rule:evenodd;stroke:#313131;stroke-width:0.51899093;stroke-linecap:butt;stroke-linejoin:miter;stroke-miterlimit:4;stroke-dasharray:none;stroke-opacity:1" />
              <path
                 id="path4995"
                 d="M 1.3029652,545.21137 L 47.843649,608.97646"
                 style="fill:#000000;fill-rule:evenodd;stroke:#313131;stroke-width:0.51899093;stroke-linecap:butt;stroke-linejoin:miter;stroke-miterlimit:4;stroke-dasharray:none;stroke-opacity:1" />
              <path
                 id="path4997"
                 d="M 5.7752856,545.21137 L 52.315971,608.97646"
                 style="fill:#000000;fill-rule:evenodd;stroke:#313131;stroke-width:0.51899093;stroke-linecap:butt;stroke-linejoin:miter;stroke-miterlimit:4;stroke-dasharray:none;stroke-opacity:1" />
              <path
                 sodipodi:nodetypes="cc"
                 id="path4999"
                 d="M -16.161219,551.9213 L 25.482037,608.97646"
                 style="fill:#000000;fill-rule:evenodd;stroke:#313131;stroke-width:0.51899093;stroke-linecap:butt;stroke-linejoin:miter;stroke-miterlimit:4;stroke-dasharray:none;stroke-opacity:1" />
              <path
                 sodipodi:nodetypes="cc"
                 id="path5001"
                 d="M -15.738065,558.62856 L 21.009713,608.97646"
                 style="fill:#000000;fill-rule:evenodd;stroke:#313131;stroke-width:0.51899093;stroke-linecap:butt;stroke-linejoin:miter;stroke-miterlimit:4;stroke-dasharray:none;stroke-opacity:1" />
              <path
                 sodipodi:nodetypes="cc"
                 id="path5003"
                 d="M -15.840899,564.61516 L 16.537392,608.97646"
                 style="fill:#000000;fill-rule:evenodd;stroke:#313131;stroke-width:0.51899093;stroke-linecap:butt;stroke-linejoin:miter;stroke-miterlimit:4;stroke-dasharray:none;stroke-opacity:1" />
              <path
                 sodipodi:nodetypes="cc"
                 id="path5005"
                 d="M -15.880235,570.68878 L 12.06507,608.97646"
                 style="fill:#000000;fill-rule:evenodd;stroke:#313131;stroke-width:0.51899093;stroke-linecap:butt;stroke-linejoin:miter;stroke-miterlimit:4;stroke-dasharray:none;stroke-opacity:1" />
              <path
                 sodipodi:nodetypes="cc"
                 id="path5007"
                 d="M -15.85712,576.84795 L 7.5927499,608.97646"
                 style="fill:#000000;fill-rule:evenodd;stroke:#313131;stroke-width:0.51899093;stroke-linecap:butt;stroke-linejoin:miter;stroke-miterlimit:4;stroke-dasharray:none;stroke-opacity:1" />
              <path
                 sodipodi:nodetypes="cc"
                 id="path5009"
                 d="M -15.832956,583.00855 L 3.1204281,608.97646"
                 style="fill:#000000;fill-rule:evenodd;stroke:#313131;stroke-width:0.51899093;stroke-linecap:butt;stroke-linejoin:miter;stroke-miterlimit:4;stroke-dasharray:none;stroke-opacity:1" />
              <path
                 sodipodi:nodetypes="cc"
                 id="path5011"
                 d="M -15.782328,589.20542 L -1.3518923,608.97646"
                 style="fill:#000000;fill-rule:evenodd;stroke:#313131;stroke-width:0.51899093;stroke-linecap:butt;stroke-linejoin:miter;stroke-miterlimit:4;stroke-dasharray:none;stroke-opacity:1" />
              <path
                 sodipodi:nodetypes="cc"
                 id="path5013"
                 d="M -15.748642,595.37907 L -5.8242142,608.97646"
                 style="fill:#000000;fill-rule:evenodd;stroke:#313131;stroke-width:0.51899093;stroke-linecap:butt;stroke-linejoin:miter;stroke-miterlimit:4;stroke-dasharray:none;stroke-opacity:1" />
              <path
                 sodipodi:nodetypes="cc"
                 id="path5015"
                 d="M -15.807019,601.42659 L -10.296535,608.97646"
                 style="fill:#000000;fill-rule:evenodd;stroke:#313131;stroke-width:0.51899093;stroke-linecap:butt;stroke-linejoin:miter;stroke-miterlimit:4;stroke-dasharray:none;stroke-opacity:1" />
              <path
                 style="fill:#000000;fill-rule:evenodd;stroke:#313131;stroke-width:3.52189851;stroke-linecap:butt;stroke-linejoin:miter;stroke-miterlimit:4;stroke-dasharray:none;stroke-opacity:1"
                 d="M -4.8616628,449.9044 L 52.659641,449.9044"
                 id="path11297"
                 sodipodi:nodetypes="cc" />
            </g>
          </g>
          <g
             id="g49576"
             transform="matrix(1.1276899,0,0,1.1276899,-11.138722,-62.022984)">
            <g
               style="fill:#000000;stroke:#313131"
               transform="matrix(0.59156,0.5089324,-0.5089324,0.59156,449.9731,-156.61415)"
               id="g2927">
              <g
                 style="fill:#000000;stroke:#313131"
                 transform="translate(-68.302257,72.794052)"
                 id="g8805">
                <g
                   style="fill:#000000;stroke:#313131"
                   transform="matrix(0.3040062,0,0,0.3634876,107.14233,178.2487)"
                   id="g9234">
                  <g
                     transform="translate(-420.47918,407.09243)"
                     style="fill:#000000;stroke:#313131"
                     id="g11115">
                    <g
                       style="fill:#000000;stroke:#313131"
                       transform="matrix(2.3804847,0,0,1.4823247,1098.0721,-192.85843)"
                       id="g9325">
                      <g
                         style="fill:#000000;stroke:#313131"
                         transform="matrix(2.6919354,0,0,3.9846069,-990.34462,-1701.1401)"
                         id="g7448">
                        <g
                           transform="matrix(0.540031,0.522085,-0.595147,0.57537,443.3778,-49.10736)"
                           style="fill:#000000;fill-opacity:1;stroke:#313131;stroke-width:1.86083472;stroke-miterlimit:4;stroke-dasharray:none;stroke-opacity:1"
                           id="g7440">
                          <path
                             sodipodi:nodetypes="cccscccc"
                             d="M 306.11556,430.72336 L 304.91671,429.58957 L 306.86587,427.35096 C 308.95729,424.94898 314.07991,420.56878 315.99834,419.54207 C 317.02639,418.99187 317.33295,419.06412 318.49499,420.13046 L 440.31315,530.9837 C 436.55566,534.1916 433.27398,537.85597 429.36843,540.91482 C 401.47026,515.49337 334.32868,455.87784 306.11556,430.72336 z"
                             style="fill:#000000;fill-opacity:1;stroke:#313131;stroke-width:1.86083472;stroke-miterlimit:4;stroke-dasharray:none;stroke-opacity:1"
                             id="path7442" />
                          <path
                             d="M 271.86588,448.44808 C 271.10641,442.92604 284.21506,436.12577 288.85352,427.75821 C 294.34392,417.85381 303.64679,408.9427 313.36675,404.27727 C 324.0003,399.17333 353.22447,380.03886 358.7648,381.80861 C 364.13475,383.52393 359.81269,386.53444 355.7746,387.41363 C 348.69913,388.95413 323.07112,401.31316 323.39596,412.95644 C 323.83003,428.51517 308.80468,422.84681 303.56154,429.03449 C 297.42672,436.27449 295.3608,439.27755 289.79119,449.05131 C 287.37186,453.29684 285.08621,457.27692 284.71197,457.89593 C 284.2588,458.6455 283.54986,459.0214 282.58937,459.0214 C 281.24145,459.0214 272.18189,450.74575 271.86588,448.44808 z"
                             style="fill:#000000;fill-opacity:1;stroke:#313131;stroke-width:1.86083472;stroke-miterlimit:4;stroke-dasharray:none;stroke-opacity:1"
                             id="path7444" />
                          <path
                             d="M 292.06442,418.53519 L 290.82034,417.57076 L 292.0523,416.16174 C 295.32445,412.41933 298.02526,409.76941 300.22594,408.14214 C 302.63,406.36449 302.64616,406.36069 303.62783,407.34236 C 304.60951,408.32404 304.60468,408.33532 302.61173,409.71643 C 300.58286,411.12244 296.8424,414.91277 294.55903,417.87649 L 293.3085,419.49963 L 292.06442,418.53519 z"
                             style="fill:#000000;fill-opacity:1;stroke:#313131;stroke-width:1.86083472;stroke-miterlimit:4;stroke-dasharray:none;stroke-opacity:1"
                             id="path7446" />
                        </g>
                      </g>
                    </g>
                  </g>
                </g>
              </g>
            </g>
            <g
               style="fill:#000000;stroke:#313131"
               id="g2958"
               transform="matrix(-0.59156,0.5089324,0.5089324,0.59156,378.43132,-156.61415)">
              <g
                 style="fill:#000000;stroke:#313131"
                 id="g2960"
                 transform="translate(-68.302257,72.794052)">
                <g
                   style="fill:#000000;stroke:#313131"
                   id="g2962"
                   transform="matrix(0.3040062,0,0,0.3634876,107.14233,178.2487)">
                  <g
                     id="g2964"
                     style="fill:#000000;stroke:#313131"
                     transform="translate(-420.47918,407.09243)">
                    <g
                       style="fill:#000000;stroke:#313131"
                       id="g2966"
                       transform="matrix(2.3804847,0,0,1.4823247,1098.0721,-192.85843)">
                      <g
                         style="fill:#000000;stroke:#313131"
                         id="g2968"
                         transform="matrix(2.6919354,0,0,3.9846069,-990.34462,-1701.1401)">
                        <g
                           id="g2970"
                           style="fill:#000000;fill-opacity:1;stroke:#313131;stroke-width:1.86083472;stroke-miterlimit:4;stroke-dasharray:none;stroke-opacity:1"
                           transform="matrix(0.540031,0.522085,-0.595147,0.57537,443.3778,-49.10736)">
                          <path
                             id="path2972"
                             style="fill:#000000;fill-opacity:1;stroke:#313131;stroke-width:1.86083472;stroke-miterlimit:4;stroke-dasharray:none;stroke-opacity:1"
                             d="M 306.11556,430.72336 L 304.91671,429.58957 L 306.86587,427.35096 C 308.95729,424.94898 314.07991,420.56878 315.99834,419.54207 C 317.02639,418.99187 317.33295,419.06412 318.49499,420.13046 L 440.31315,530.9837 C 436.55566,534.1916 433.27398,537.85597 429.36843,540.91482 C 401.47026,515.49337 334.32868,455.87784 306.11556,430.72336 z"
                             sodipodi:nodetypes="cccscccc" />
                          <path
                             id="path2974"
                             style="fill:#000000;fill-opacity:1;stroke:#313131;stroke-width:1.86083472;stroke-miterlimit:4;stroke-dasharray:none;stroke-opacity:1"
                             d="M 271.86588,448.44808 C 271.10641,442.92604 284.21506,436.12577 288.85352,427.75821 C 294.34392,417.85381 303.64679,408.9427 313.36675,404.27727 C 324.0003,399.17333 353.22447,380.03886 358.7648,381.80861 C 364.13475,383.52393 359.81269,386.53444 355.7746,387.41363 C 348.69913,388.95413 323.07112,401.31316 323.39596,412.95644 C 323.83003,428.51517 308.80468,422.84681 303.56154,429.03449 C 297.42672,436.27449 295.3608,439.27755 289.79119,449.05131 C 287.37186,453.29684 285.08621,457.27692 284.71197,457.89593 C 284.2588,458.6455 283.54986,459.0214 282.58937,459.0214 C 281.24145,459.0214 272.18189,450.74575 271.86588,448.44808 z" />
                          <path
                             id="path2976"
                             style="fill:#000000;fill-opacity:1;stroke:#313131;stroke-width:1.86083472;stroke-miterlimit:4;stroke-dasharray:none;stroke-opacity:1"
                             d="M 292.06442,418.53519 L 290.82034,417.57076 L 292.0523,416.16174 C 295.32445,412.41933 298.02526,409.76941 300.22594,408.14214 C 302.63,406.36449 302.64616,406.36069 303.62783,407.34236 C 304.60951,408.32404 304.60468,408.33532 302.61173,409.71643 C 300.58286,411.12244 296.8424,414.91277 294.55903,417.87649 L 293.3085,419.49963 L 292.06442,418.53519 z" />
                        </g>
                      </g>
                    </g>
                  </g>
                </g>
              </g>
            </g>
          </g>
          <g
             style="display:inline"
             id="g3099"
             inkscape:label="Calque 1"
             transform="matrix(1.2846368,0,0,1.2846368,-1221.2734,-313.11534)">
            <g
               transform="translate(267.52295,-111.42857)"
               inkscape:label="Calque 1"
               id="g3199">
              <g
                 id="g2836"
                 inkscape:label="Calque 1"
                 transform="translate(-446.8478,-77.749707)" />
            </g>
          </g>
        </g>
      </g>
    </g>
  </g>
  <g
     inkscape:groupmode="layer"
     id="layer2"
     inkscape:label="Reflet final"
     transform="translate(-2.0595148,1.2525328e-6)"
     style="display:inline"
     sodipodi:insensitive="true">
    <g
       id="g8710"
       inkscape:label="Calque 1"
       transform="translate(-72.94045,-202.36201)">
      <path
         d="M 76.499965,203.86205 L 76.499965,721.35338 C 76.499965,759.85787 107.70307,791.10791 146.14997,791.10791 C 184.59677,791.10791 266.90317,791.10791 305.34996,791.10791 C 343.79688,791.10781 375,822.35785 375,860.86231 C 375,822.35785 406.20314,791.10791 444.64994,791.10791 C 483.09683,791.10781 565.40323,791.10791 603.85004,791.10791 C 642.29683,791.10791 673.50004,759.85787 673.50004,721.35338 L 673.50004,203.86205 L 76.499965,203.86205 z"
         style="fill:url(#radialGradient11919);fill-opacity:1;fill-rule:evenodd;stroke:none;stroke-width:3.00000024;stroke-linecap:butt;stroke-linejoin:miter;stroke-miterlimit:4;stroke-dasharray:none;stroke-opacity:1;display:inline"
         id="path2875" />
    </g>
  </g>
  <g
     inkscape:groupmode="layer"
     id="layer1"
     inkscape:label="Contour final"
     transform="translate(-2.0595148,1.2525328e-6)"
     style="display:inline"
     sodipodi:insensitive="true">
    <path
       id="path1572"
       style="fill:none;fill-opacity:1;fill-rule:nonzero;stroke:#000000;stroke-width:3.00000191;stroke-linecap:round;stroke-linejoin:round;stroke-miterlimit:4;stroke-dasharray:none;stroke-dashoffset:0;stroke-opacity:1;display:inline"
       d="M 302.05955,658.5003 C 302.05955,619.9962 333.26274,588.74658 371.70955,588.74658 C 410.15636,588.74658 492.46272,588.74658 530.90953,588.74658 C 569.35633,588.74658 600.55962,557.49696 600.55962,518.99296 L 600.55962,1.49998 L 3.559526,1.5 L 3.559516,518.99296 C 3.559516,557.49696 34.762731,588.74658 73.209531,588.74658 C 111.65636,588.74658 193.96274,588.74658 232.40955,588.74658 C 270.85635,588.74658 302.05955,619.9962 302.05955,658.5003 z"
       sodipodi:nodetypes="cssccccssc" />
  </g>
</svg>
