<?xml version="1.0" encoding="UTF-8" standalone="no"?>
<svg
   xmlns:dc="http://purl.org/dc/elements/1.1/"
   xmlns:cc="http://creativecommons.org/ns#"
   xmlns:rdf="http://www.w3.org/1999/02/22-rdf-syntax-ns#"
   xmlns:svg="http://www.w3.org/2000/svg"
   xmlns="http://www.w3.org/2000/svg"
   xmlns:xlink="http://www.w3.org/1999/xlink"
   xmlns:sodipodi="http://sodipodi.sourceforge.net/DTD/sodipodi-0.dtd"
   xmlns:inkscape="http://www.inkscape.org/namespaces/inkscape"
   version="1.0"
   width="600"
   height="660"
   id="svg2"
   inkscape:version="0.91 r13725"
   sodipodi:docname="Blason_fr_Curtil-sous-Burnand_71.svg">
  <metadata
     id="metadata38">
    <rdf:RDF>
      <cc:Work
         rdf:about="">
        <dc:format>image/svg+xml</dc:format>
        <dc:type
           rdf:resource="http://purl.org/dc/dcmitype/StillImage" />
      </cc:Work>
    </rdf:RDF>
  </metadata>
  <sodipodi:namedview
     pagecolor="#ffffff"
     bordercolor="#666666"
     borderopacity="1"
     objecttolerance="10"
     gridtolerance="10"
     guidetolerance="10"
     inkscape:pageopacity="0"
     inkscape:pageshadow="2"
     inkscape:window-width="1440"
     inkscape:window-height="791"
     id="namedview36"
     showgrid="false"
     inkscape:zoom="0.56478946"
     inkscape:cx="403.60491"
     inkscape:cy="499.94382"
     inkscape:window-x="0"
     inkscape:window-y="1"
     inkscape:window-maximized="1"
     inkscape:current-layer="layer4" />
  <defs
     id="defs6">
    <linearGradient
       id="linearGradient2893">
      <stop
         style="stop-color:white;stop-opacity:0.3137255"
         offset="0"
         id="stop2895" />
      <stop
         style="stop-color:white;stop-opacity:0.25098041"
         offset="0.19"
         id="stop2897" />
      <stop
         style="stop-color:#6b6b6b;stop-opacity:0.1254902"
         offset="0.60000002"
         id="stop2901" />
      <stop
         style="stop-color:black;stop-opacity:0.1254902"
         offset="1"
         id="stop2899" />
    </linearGradient>
    <radialGradient
       cx="221.44487"
       cy="226.33101"
       r="300"
       fx="221.44487"
       fy="226.33101"
       id="radialGradient3163"
       xlink:href="#linearGradient2893"
       gradientUnits="userSpaceOnUse"
       gradientTransform="matrix(1.353218,0,0,1.348928,-77.62935,-85.74693)" />
  </defs>
  <g
     inkscape:groupmode="layer"
     id="layer4"
     inkscape:label="Fond_Ecu"
     style="display:inline">
    <g
       style="display:inline;fill:#eb0000;fill-opacity:1"
       id="layer3">
      <path
         d="m 300,658.5 c 0,0 298.50001,-112.32031 298.50001,-397.77183 0,-285.451524 0,-258.5516935 0,-258.5516935 l -597.00001,0 0,258.5516935 C 1.5,546.17969 300,658.5 300,658.5 Z"
         style="fill:#000000;fill-opacity:1;fill-rule:evenodd;stroke:none;stroke-width:1px;stroke-linecap:butt;stroke-linejoin:miter;stroke-opacity:1"
         id="path2855"
         inkscape:connector-curvature="0" />
      <path
         inkscape:connector-curvature="0"
         id="path4173"
         style="fill:#eb0000;fill-opacity:1;fill-rule:evenodd;stroke:none;stroke-width:1px;stroke-linecap:butt;stroke-linejoin:miter;stroke-opacity:1"
         d="m 300,658.5 c 0,0 298.50001,-112.32031 298.50001,-397.77183 l 0,-258.5516935 -298.50001,0 z"
         sodipodi:nodetypes="csccc" />
    </g>
    <g
       id="g3485"
       style="display:inline;fill:#ffd5d5;fill-opacity:1;stroke:#000000;stroke-width:3;stroke-miterlimit:4;stroke-dasharray:none;stroke-opacity:1">
      <path
         style="fill:#ffff00;fill-opacity:1;fill-rule:evenodd;stroke:#000000;stroke-width:3;stroke-linecap:butt;stroke-linejoin:miter;stroke-miterlimit:4;stroke-dasharray:none;stroke-opacity:1"
         d="m 300,402.92188 271.1582,0 c 13.82003,-33.97899 23.28618,-71.72136 26.30078,-113.4336 l -0.0762,-87.00195 -297.38281,0 z"
         id="path3487"
         inkscape:connector-curvature="0"
         sodipodi:nodetypes="cccccc" />
    </g>
    <g
       id="g4379">
      <path
         inkscape:connector-curvature="0"
         style="display:inline;fill:#ffffff;fill-opacity:1;fill-rule:evenodd;stroke:none;stroke-width:1.45753086;stroke-linecap:butt;stroke-linejoin:miter;stroke-miterlimit:4;stroke-dasharray:none;stroke-opacity:1"
         d="m 116.20255,371.97623 c -5.98786,0.0919 -7.03749,2.2635 -12.40711,6.03167 -5.72763,4.01937 -9.2194,10.06318 -9.2194,10.06318 L 80.8876,387.66483 c 0,0 -2.453881,2.21487 -1.187593,4.40655 1.346253,2.3301 2.592623,3.02667 6.812983,4.03153 6.82086,1.18581 14.00774,-0.83722 20.9077,0.40629 l -0.40629,2.81268 c -12.72975,19.78761 -11.67977,41.76267 9.25066,55.06633 8.03872,5.2252 20.09514,8.43811 20.09514,8.43811 0,0 -1.11988,4.30084 -3.5315,6.81298 -2.4116,2.5121 -6.12543,2.09387 -6.12542,2.09387 -9.4708,-4.44954 -14.44835,-4.58756 -20.47017,1.12509 0,0 6.29385,1.37982 7.43802,3.62526 1.55628,3.05424 -3.14362,1.99017 -6.93799,6.15668 6.06005,0.0552 7.41755,-3.6364 8.37557,0.50004 0.6101,2.63401 -0.84378,7.81302 -0.8438,7.81302 0,0 4.52356,-5.725 8.84437,-8.43809 4.32081,-2.71305 4.51921,-2.4064 8.43808,-2.4064 3.91891,0 7.21925,2.4064 7.21926,2.4064 l -0.78131,-2.81267 0.37503,-8.84439 c 15.86195,-15.44083 23.67979,-10.9037 41.40914,0 0,0 2.22019,4.31912 -2.00014,5.62541 -12.66674,-1.46689 -16.30763,-2.89871 -22.90784,3.21898 5.05296,1.07258 3.59109,0.41089 6.25043,2.84393 2.02528,1.85298 0.59382,3.48523 -1.03133,8.00056 2.55794,-1.15927 5.60671,-3.55767 8.37559,-0.7188 2.53165,2.59567 4.39751,2.74526 2.06263,5.53163 4.83692,-2.03785 6.02211,-1.70368 8.43809,-3.18772 5.81637,-3.57277 13.68848,-13.28218 13.68846,-13.28218 0,0 1.20149,-2.19589 -0.40626,-4.40654 -1.60776,-2.21067 -3.31859,-1.32281 -6.03168,-4.43782 -2.7131,-3.11502 -4.81283,-8.03182 -4.81284,-8.03182 15.18083,0.95846 21.74656,-4.70243 24.50171,-7.62553 3.71392,-3.94025 0.1552,-7.05445 3.62526,-9.71942 6.43435,-4.94156 23.83896,-17.18842 23.7204,-19.62638 -0.078,-1.60584 -12.87595,-0.40625 -12.87591,-0.40625 -20.80948,18.10002 -57.25523,23.17173 -83.59957,20.90769 -8.05459,-2.34946 -17.3852,-9.32689 -12.87589,-18.50129 l 2.43767,-0.81255 c -1.68084,16.47838 13.26622,16.82416 25.72054,16.50115 22.35162,-1.52817 45.10527,-5.53677 63.50442,-19.31386 l 2.40643,-2.81268 c -17.21104,8.74429 -35.98312,14.53362 -55.47264,13.28217 -1.60778,0 -0.40625,-3.21897 -0.40625,-3.21897 15.63282,0.54443 31.1727,-2.35107 45.44065,-8.84437 l 2.00015,-3.62525 c -10.42903,4.91603 -21.82854,7.41631 -33.37733,6.18792 l -1.59387,-2.96894 c 9.36067,0.99045 18.67169,-0.75086 27.31441,-4.40655 0,0 -9.31725,0.59421 -17.65747,-0.81256 -17.48739,-7.10464 -37.14196,-11.27838 -61.50428,-4.03154 l 4.81282,-8.03181 c 14.07523,-11.51612 8.95158,-31.7965 -10.03197,-32.15849 -0.44586,-0.0124 -0.88213,-0.007 -1.28132,0 z m -3.15648,8.12557 c 0.63818,-0.039 1.2904,0.007 1.93765,0.15626 2.58898,0.59405 4.02839,2.57709 3.18771,4.40655 -0.83975,1.82746 -3.63159,2.80915 -6.21917,2.21889 -2.589,-0.59405 -3.99717,-2.54581 -3.15647,-4.37529 0.63049,-1.37208 2.33579,-2.28928 4.25028,-2.40641 z"
         id="path4228" />
      <path
         id="path4230"
         d="m 116.20255,209.81382 c -5.98786,0.0919 -7.03749,2.2635 -12.40711,6.03167 -5.72763,4.01936 -9.2194,10.06318 -9.2194,10.06318 L 80.8876,225.50242 c 0,0 -2.453881,2.21486 -1.187593,4.40655 1.346253,2.3301 2.592623,3.02667 6.812983,4.03153 6.82086,1.1858 14.00774,-0.83722 20.9077,0.40629 l -0.40629,2.81267 c -12.72975,19.78762 -11.67977,41.76268 9.25066,55.06634 8.03872,5.2252 20.09514,8.43811 20.09514,8.43811 0,0 -1.11988,4.30084 -3.5315,6.81298 -2.4116,2.51209 -6.12543,2.09387 -6.12542,2.09387 -9.4708,-4.44955 -14.44835,-4.58756 -20.47017,1.12508 0,0 6.29385,1.37983 7.43802,3.62527 1.55628,3.05423 -3.14362,1.99016 -6.93799,6.15667 6.06005,0.0552 7.41755,-3.63639 8.37557,0.50004 0.6101,2.63402 -0.84378,7.81303 -0.8438,7.81303 0,0 4.52356,-5.72501 8.84437,-8.43809 4.32081,-2.71305 4.51921,-2.4064 8.43808,-2.4064 3.91891,0 7.21925,2.4064 7.21926,2.4064 l -0.78131,-2.81267 0.37503,-8.84439 c 15.86195,-15.44084 23.67979,-10.9037 41.40914,0 0,0 2.22019,4.31912 -2.00014,5.62541 -12.66674,-1.4669 -16.30763,-2.89872 -22.90784,3.21898 5.05296,1.07257 3.59109,0.41089 6.25043,2.84392 2.02528,1.85298 0.59382,3.48523 -1.03133,8.00057 2.55794,-1.15927 5.60671,-3.55767 8.37559,-0.7188 2.53165,2.59566 4.39751,2.74525 2.06263,5.53162 4.83692,-2.03784 6.02211,-1.70367 8.43809,-3.18771 5.81637,-3.57277 13.68848,-13.28219 13.68846,-13.28219 0,0 1.20149,-2.19588 -0.40626,-4.40654 -1.60776,-2.21066 -3.31859,-1.3228 -6.03168,-4.43781 -2.7131,-3.11502 -4.81283,-8.03182 -4.81284,-8.03182 15.18083,0.95846 21.74656,-4.70243 24.50171,-7.62553 3.71392,-3.94026 0.1552,-7.05445 3.62526,-9.71942 6.43435,-4.94156 23.83896,-17.18842 23.7204,-19.62638 -0.078,-1.60584 -12.87595,-0.40626 -12.87591,-0.40626 -20.80948,18.10002 -57.25523,23.17174 -83.59957,20.9077 -8.05459,-2.34946 -17.3852,-9.32689 -12.87589,-18.50129 l 2.43767,-0.81255 c -1.68084,16.47837 13.26622,16.82416 25.72054,16.50115 22.35162,-1.52817 45.10527,-5.53677 63.50442,-19.31386 l 2.40643,-2.81268 c -17.21104,8.74429 -35.98312,14.53361 -55.47264,13.28217 -1.60778,0 -0.40625,-3.21897 -0.40625,-3.21897 15.63282,0.54443 31.1727,-2.35108 45.44065,-8.84437 l 2.00015,-3.62525 c -10.42903,4.91603 -21.82854,7.41631 -33.37733,6.18792 l -1.59387,-2.96894 c 9.36067,0.99045 18.67169,-0.75086 27.31441,-4.40656 0,0 -9.31725,0.59421 -17.65747,-0.81256 -17.48739,-7.10464 -37.14196,-11.27837 -61.50428,-4.03153 l 4.81282,-8.03181 c 14.07523,-11.51612 8.95158,-31.7965 -10.03197,-32.15849 -0.44586,-0.0124 -0.88213,-0.007 -1.28132,0 z m -3.15648,8.12556 c 0.63818,-0.039 1.2904,0.007 1.93765,0.15627 2.58898,0.59405 4.02839,2.57709 3.18771,4.40654 -0.83975,1.82747 -3.63159,2.80916 -6.21917,2.2189 -2.589,-0.59405 -3.99717,-2.54581 -3.15647,-4.37529 0.63049,-1.37208 2.33579,-2.28928 4.25028,-2.40642 z"
         style="display:inline;fill:#ffffff;fill-opacity:1;fill-rule:evenodd;stroke:none;stroke-width:1.45753086;stroke-linecap:butt;stroke-linejoin:miter;stroke-miterlimit:4;stroke-dasharray:none;stroke-opacity:1"
         inkscape:connector-curvature="0" />
      <path
         inkscape:connector-curvature="0"
         style="display:inline;fill:#ffffff;fill-opacity:1;fill-rule:evenodd;stroke:none;stroke-width:1.45753086;stroke-linecap:butt;stroke-linejoin:miter;stroke-miterlimit:4;stroke-dasharray:none;stroke-opacity:1"
         d="m 116.20255,47.651403 c -5.98786,0.09193 -7.03749,2.263503 -12.40711,6.031673 -5.72763,4.019364 -9.2194,10.063178 -9.2194,10.063178 L 80.8876,63.340006 c 0,0 -2.453881,2.214864 -1.187593,4.406553 1.346253,2.330094 2.592623,3.026666 6.812983,4.031526 6.82086,1.185807 14.00774,-0.837222 20.9077,0.40629 l -0.40629,2.812676 c -12.72975,19.787619 -11.67977,41.762679 9.25066,55.066329 8.03872,5.2252 20.09514,8.43811 20.09514,8.43811 0,0 -1.11988,4.30085 -3.5315,6.81298 -2.4116,2.5121 -6.12543,2.09388 -6.12542,2.09388 -9.4708,-4.44955 -14.44835,-4.58757 -20.47017,1.12508 0,0 6.29385,1.37982 7.43802,3.62527 1.55628,3.05423 -3.14362,1.99016 -6.93799,6.15667 6.06005,0.0552 7.41755,-3.6364 8.37557,0.50004 0.6101,2.63401 -0.84378,7.81303 -0.8438,7.81303 0,0 4.52356,-5.72501 8.84437,-8.43809 4.32081,-2.71305 4.51921,-2.40641 8.43808,-2.40641 3.91891,0 7.21925,2.40641 7.21926,2.40641 l -0.78131,-2.81268 0.37503,-8.84439 c 15.86195,-15.44083 23.67979,-10.90369 41.40914,0 0,0 2.22019,4.31912 -2.00014,5.62542 -12.66674,-1.4669 -16.30763,-2.89872 -22.90784,3.21897 5.05296,1.07258 3.59109,0.4109 6.25043,2.84393 2.02528,1.85298 0.59382,3.48523 -1.03133,8.00057 2.55794,-1.15927 5.60671,-3.55768 8.37559,-0.7188 2.53165,2.59566 4.39751,2.74525 2.06263,5.53162 4.83692,-2.03784 6.02211,-1.70367 8.43809,-3.18771 5.81637,-3.57278 13.68848,-13.28219 13.68846,-13.28219 0,0 1.20149,-2.19589 -0.40626,-4.40654 -1.60776,-2.21066 -3.31859,-1.3228 -6.03168,-4.43782 -2.7131,-3.11501 -4.81283,-8.03182 -4.81284,-8.03182 15.18083,0.95847 21.74656,-4.70242 24.50171,-7.62553 3.71392,-3.94025 0.1552,-7.05444 3.62526,-9.71941 6.43435,-4.94156 23.83896,-17.18843 23.7204,-19.62638 -0.078,-1.60584 -12.87595,-0.40626 -12.87591,-0.40626 -20.80948,18.10002 -57.25523,23.17173 -83.59957,20.90769 -8.05459,-2.34946 -17.3852,-9.32688 -12.87589,-18.50128 l 2.43767,-0.81255 c -1.68084,16.47837 13.26622,16.82416 25.72054,16.50115 22.35162,-1.52817 45.10527,-5.53677 63.50442,-19.31386 l 2.40643,-2.81269 c -17.21104,8.7443 -35.98312,14.53362 -55.47264,13.28218 -1.60778,0 -0.40625,-3.21898 -0.40625,-3.21898 15.63282,0.54444 31.1727,-2.35107 45.44065,-8.84437 l 2.00015,-3.62524 c -10.42903,4.91602 -21.82854,7.41631 -33.37733,6.18791 l -1.59387,-2.96894 c 9.36067,0.99046 18.67169,-0.75085 27.31441,-4.40655 0,0 -9.31725,0.59421 -17.65747,-0.81256 C 166.71991,84.7686 147.06534,80.59487 122.70302,87.8417 l 4.81282,-8.03181 c 14.07523,-11.516118 8.95158,-31.796496 -10.03197,-32.158487 -0.44586,-0.01243 -0.88213,-0.0074 -1.28132,0 z m -3.15648,8.125569 c 0.63818,-0.03896 1.2904,0.0074 1.93765,0.156265 2.58898,0.594052 4.02839,2.577088 3.18771,4.406543 -0.83975,1.827465 -3.63159,2.809158 -6.21917,2.218898 -2.589,-0.594052 -3.99717,-2.545813 -3.15647,-4.37529 0.63049,-1.372083 2.33579,-2.28928 4.25028,-2.406416 z"
         id="path4232" />
    </g>
    <path
       style="fill:#fcef3c;fill-opacity:1;fill-rule:evenodd;stroke:#000000;stroke-width:2.68941188;stroke-linejoin:bevel;stroke-miterlimit:4;stroke-dasharray:none;stroke-opacity:1"
       id="path4351"
       d="m 370.90505,24.579945 c -13.17987,16.198866 -21.03188,36.617551 -21.03188,58.788795 0,52.6291 44.27848,95.3063 98.85673,95.3063 54.57879,0 98.85593,-42.6772 98.85593,-95.3063 0,-22.171244 -7.85174,-42.589929 -21.0312,-58.788795 l -0.22592,4.805307 c 2.61949,7.973031 3.81763,16.962387 3.81763,24.525955 0,44.961053 -36.46574,81.438483 -81.41644,81.438483 -44.95136,0 -81.41737,-36.47743 -81.41737,-81.438483 0,-7.563568 1.19907,-16.552924 3.81883,-24.525955 z"
       inkscape:connector-curvature="0" />
  </g>
  <g
     inkscape:groupmode="layer"
     id="layer7"
     inkscape:label="Meubles"
     style="display:inline" />
  <g
     inkscape:groupmode="layer"
     id="layer5"
     inkscape:label="Reflet"
     style="display:inline">
    <g
       style="display:inline"
       id="layer2">
      <path
         d="m 300.00001,658.5 c 0,0 298.5,-112.32031 298.5,-397.77183 0,-285.451504 0,-258.5516835 0,-258.5516835 l -597.00001,0 0,258.5516835 C 1.5,546.17969 300.00001,658.5 300.00001,658.5 Z"
         style="opacity:1;fill:url(#radialGradient3163);fill-opacity:1;fill-rule:evenodd;stroke:none;stroke-width:1px;stroke-linecap:butt;stroke-linejoin:miter;stroke-opacity:1"
         id="path2875"
         inkscape:connector-curvature="0" />
    </g>
  </g>
  <g
     inkscape:groupmode="layer"
     id="layer6"
     inkscape:label="Contour_Ecu"
     style="display:inline">
    <g
       style="display:inline"
       id="layer1">
      <path
         d="m 299.99999,658.50028 c 0,0 -298.49999,-112.32036 -298.49999,-397.772 0,-285.451616 0,-258.5517843 0,-258.5517843 l 596.99999,0 0,258.5517843 c 0,285.45164 -298.5,397.772 -298.5,397.772 z"
         style="opacity:1;fill:none;fill-opacity:1;fill-rule:evenodd;stroke:#000000;stroke-width:3.00000048;stroke-linecap:butt;stroke-linejoin:miter;stroke-miterlimit:4;stroke-dasharray:none;stroke-opacity:1"
         id="path1411"
         inkscape:connector-curvature="0" />
    </g>
  </g>
</svg>
