<?xml version="1.0" encoding="UTF-8" standalone="no"?>
<svg
   xmlns:dc="http://purl.org/dc/elements/1.1/"
   xmlns:cc="http://creativecommons.org/ns#"
   xmlns:rdf="http://www.w3.org/1999/02/22-rdf-syntax-ns#"
   xmlns:svg="http://www.w3.org/2000/svg"
   xmlns="http://www.w3.org/2000/svg"
   xmlns:xlink="http://www.w3.org/1999/xlink"
   id="svg2"
   version="1.0"
   width="600"
   height="660">
  <metadata
     id="metadata49">
    <rdf:RDF>
      <cc:Work
         rdf:about="">
        <dc:format>image/svg+xml</dc:format>
        <dc:type
           rdf:resource="http://purl.org/dc/dcmitype/StillImage" />
        <dc:title></dc:title>
        <dc:date>03-AUG-2006</dc:date>
        <dc:creator>
          <cc:Agent>
            <dc:title>Jérôme BLUM (wagner51)</dc:title>
          </cc:Agent>
        </dc:creator>
        <cc:license
           rdf:resource="http://web.resource.org/cc/PublicDomain" />
        <dc:language>fr</dc:language>
        <dc:subject>
          <rdf:Bag>
            <rdf:li>gabarit modèle blason projet wikipédia</rdf:li>
          </rdf:Bag>
        </dc:subject>
      </cc:Work>
      <cc:License
         rdf:about="http://web.resource.org/cc/PublicDomain">
        <cc:permits
           rdf:resource="http://web.resource.org/cc/Reproduction" />
        <cc:permits
           rdf:resource="http://web.resource.org/cc/Distribution" />
        <cc:permits
           rdf:resource="http://web.resource.org/cc/DerivativeWorks" />
      </cc:License>
    </rdf:RDF>
  </metadata>
  <desc
     id="desc4">Flag of Canton of Valais (Wallis)</desc>
  <defs
     id="defs6">
    <linearGradient
       id="linearGradient2893">
      <stop
         id="stop2895"
         offset="0"
         style="stop-color:white;stop-opacity:0.3137255;" />
      <stop
         style="stop-color:white;stop-opacity:0.25098041;"
         offset="0.19"
         id="stop2897" />
      <stop
         id="stop2901"
         offset="0.60000002"
         style="stop-color:#6b6b6b;stop-opacity:0.1254902;" />
      <stop
         id="stop2899"
         offset="1"
         style="stop-color:black;stop-opacity:0.1254902;" />
    </linearGradient>
    <radialGradient
       r="300"
       fy="226.33101"
       fx="221.44487"
       cy="226.33101"
       cx="221.44487"
       gradientTransform="matrix(1.353218,0,0,1.348928,-77.62935,-85.74693)"
       gradientUnits="userSpaceOnUse"
       id="radialGradient3163"
       xlink:href="#linearGradient2893" />
  </defs>
  <g
     style="display:inline"
     id="layer3">
    <path
       d="m 300,658.5 c 0,0 298.50001,-112.32031 298.50001,-397.77183 0,-285.451524 0,-258.5516935 0,-258.5516935 H 1.5 V 260.72817 C 1.5,546.17969 300,658.5 300,658.5 Z"
       style="fill:#2b5df2;fill-opacity:1;fill-rule:evenodd;stroke:none;stroke-width:1px;stroke-linecap:butt;stroke-linejoin:miter;stroke-opacity:1"
       id="path2855" />
    <g
       style="fill:#fcef3c"
       transform="translate(0,2.5e-4)"
       id="g10708">
      <path
         style="fill:#fcef3c;fill-opacity:1;stroke:#000000;stroke-width:3;stroke-miterlimit:4;stroke-dasharray:none;stroke-opacity:1"
         d="m 300.03125,32.8125 c -12.3356,3.28166 -24.0177,9.70536 -33.6875,19.375 -9.66629,9.66647 -16.09227,21.325238 -19.375,33.65625 -3.28155,12.33554 -9.73652,23.95526 -19.40625,33.625 -9.66633,9.6663 -21.2939,16.12349 -33.625,19.40625 -12.33548,3.28167 -24.01777,9.67398 -33.6875,19.34375 -9.66628,9.66649 -16.09228,21.32521 -19.375,33.65625 -3.28158,12.33558 -9.73648,23.95525 -19.40625,33.625 -9.6663,9.6663 -21.32522,16.12351 -33.65625,19.40625 -12.33552,3.2815 -23.986482,9.67402 -33.65625,19.34375 -9.6663,9.6663 -16.092269,21.32534 -19.375,33.65625 -3.28157,12.33572 -9.7365,23.95524 -19.40625,33.625 -2.031804,2.0318 -4.150313,3.90769 -6.34375,5.65625 3.969289,19.64474 9.396585,38.27912 16,55.9375 12.006148,-3.35182 23.31242,-9.71867 32.75,-19.15625 9.66974,-9.66977 16.124672,-21.28943 19.40625,-33.625 3.28274,-12.33102 9.708771,-23.98989 19.375,-33.65625 9.66973,-9.66976 21.35192,-16.09329 33.6875,-19.375 12.33092,-3.2827 23.98989,-9.70854 33.65625,-19.375 9.66976,-9.66962 16.09354,-21.32072 19.375,-33.65625 3.28273,-12.33103 9.73993,-23.95852 19.40625,-33.625 9.66968,-9.66956 21.3519,-16.06202 33.6875,-19.34375 12.33104,-3.28259 23.9587,-9.73996 33.625,-19.40625 9.66975,-9.66975 16.12475,-21.32054 19.40625,-33.65625 2.16069,-8.11637 5.70533,-15.91234 10.625,-23.0625 4.91968,7.15016 8.46431,14.94613 10.625,23.0625 3.28154,12.33571 9.70527,23.9865 19.375,33.65625 9.66631,9.66629 21.32521,16.12366 33.65625,19.40625 12.33559,3.28173 24.01782,9.67419 33.6875,19.34375 9.66632,9.66648 16.09227,21.29397 19.375,33.625 3.28147,12.33553 9.70524,23.98663 19.375,33.65625 9.66635,9.66646 21.32533,16.0923 33.65625,19.375 12.33559,3.28171 24.01777,9.70524 33.6875,19.375 9.66624,9.66636 16.09226,21.32523 19.375,33.65625 3.28159,12.33557 9.73651,23.95523 19.40625,33.625 9.43002,9.43002 20.72333,15.80228 32.71875,19.15625 6.6075,-17.66929 12.06131,-36.31063 16.03125,-55.96875 -2.18127,-1.74094 -4.29125,-3.60375 -6.3125,-5.625 -9.66973,-9.66976 -16.12468,-21.28928 -19.40625,-33.625 -3.28271,-12.33091 -9.7087,-23.98995 -19.375,-33.65625 -9.66974,-9.66973 -21.35198,-16.06225 -33.6875,-19.34375 C 499.88769,241.62351 488.2288,235.1663 478.5625,225.5 c -9.66977,-9.66975 -16.12467,-21.28942 -19.40625,-33.625 -3.28271,-12.33104 -9.70872,-23.98976 -19.375,-33.65625 -9.66975,-9.66977 -21.32077,-16.06208 -33.65625,-19.34375 -12.33111,-3.28276 -23.98992,-9.73995 -33.65625,-19.40625 -9.66973,-9.66974 -16.1247,-21.28946 -19.40625,-33.625 -3.28274,-12.331012 -9.70867,-23.98978 -19.375,-33.65625 -9.66973,-9.66964 -21.32069,-16.09334 -33.65625,-19.375 z"
         id="path10007" />
      <path
         style="fill:#fcef3c;fill-opacity:1;stroke:#000000;stroke-width:3;stroke-miterlimit:4;stroke-dasharray:none;stroke-opacity:1"
         d="m 300.03125,224.8125 c -12.3356,3.28166 -24.0177,9.70536 -33.6875,19.375 -9.66629,9.66647 -16.09227,21.32524 -19.375,33.65625 -3.28155,12.33554 -9.73652,23.95526 -19.40625,33.625 -9.66633,9.6663 -21.2939,16.12349 -33.625,19.40625 -12.33548,3.28167 -24.01777,9.67398 -33.6875,19.34375 -9.66628,9.66649 -16.09228,21.32521 -19.375,33.65625 -3.28158,12.33558 -9.73648,23.95525 -19.40625,33.625 -9.6663,9.6663 -21.32522,16.12351 -33.65625,19.40625 -11.943391,3.17719 -23.235684,9.27673 -32.71875,18.4375 10.807261,18.02747 22.747528,34.75491 35.40625,50.1875 1.856135,-2.3753 3.875868,-4.65709 6.0625,-6.84375 9.66973,-9.66976 21.35192,-16.09329 33.6875,-19.375 12.33092,-3.2827 23.98989,-9.70854 33.65625,-19.375 9.66976,-9.66962 16.09354,-21.32072 19.375,-33.65625 3.28273,-12.33103 9.73993,-23.95852 19.40625,-33.625 9.66968,-9.66956 21.3519,-16.06202 33.6875,-19.34375 12.33104,-3.28259 23.9587,-9.73996 33.625,-19.40625 9.66975,-9.66975 16.12475,-21.32054 19.40625,-33.65625 2.16069,-8.11637 5.70533,-15.91234 10.625,-23.0625 4.91968,7.15016 8.46431,14.94613 10.625,23.0625 3.28154,12.33571 9.70527,23.9865 19.375,33.65625 9.66631,9.66629 21.32521,16.12366 33.65625,19.40625 12.33559,3.28173 24.01782,9.67419 33.6875,19.34375 9.66632,9.66648 16.09227,21.29397 19.375,33.625 3.28147,12.33553 9.70524,23.98663 19.375,33.65625 9.66635,9.66646 21.32533,16.0923 33.65625,19.375 12.33559,3.28171 24.01777,9.70524 33.6875,19.375 2.17608,2.17611 4.18249,4.4495 6.03125,6.8125 12.6617,-15.43793 24.62879,-32.15319 35.4375,-50.1875 -9.47845,-9.14376 -20.78865,-15.2326 -32.71875,-18.40625 C 499.88769,433.62351 488.2288,427.1663 478.5625,417.5 c -9.66977,-9.66975 -16.12467,-21.28942 -19.40625,-33.625 -3.28271,-12.33104 -9.70872,-23.98976 -19.375,-33.65625 -9.66975,-9.66977 -21.32077,-16.06208 -33.65625,-19.34375 -12.33111,-3.28276 -23.98992,-9.73995 -33.65625,-19.40625 -9.66973,-9.66974 -16.1247,-21.28946 -19.40625,-33.625 -3.28274,-12.33101 -9.70867,-23.98978 -19.375,-33.65625 -9.66973,-9.66964 -21.32069,-16.09334 -33.65625,-19.375 z"
         id="path10647" />
      <path
         style="fill:#fcef3c;fill-opacity:1;stroke:#000000;stroke-width:3;stroke-miterlimit:4;stroke-dasharray:none;stroke-opacity:1"
         d="m 300.03125,416.8125 c -12.3356,3.28165 -24.0177,9.70536 -33.6875,19.375 -9.66629,9.66646 -16.09227,21.32524 -19.375,33.65625 -3.28155,12.33553 -9.73652,23.95526 -19.40625,33.625 -9.66633,9.66629 -21.2939,16.12349 -33.625,19.40625 -12.33548,3.28166 -24.01777,9.67398 -33.6875,19.34375 -6.05867,6.0588 -9.33252,11.27495 -12.86913,18.57407 48.93845,30.2238 126.80261,84.14799 152.61913,95.02275 116.75904,-67.81848 57.8957,-34.57321 152.86551,-95.34544 -3.53661,-7.29912 -7.02559,-12.19258 -13.08426,-18.25138 -9.66975,-9.66978 -21.32077,-16.06208 -33.65625,-19.34375 -12.33111,-3.28277 -23.98992,-9.73995 -33.65625,-19.40625 -9.66973,-9.66975 -16.1247,-21.28946 -19.40625,-33.625 -3.28274,-12.33102 -9.70867,-23.98978 -19.375,-33.65625 -9.66973,-9.66965 -21.32069,-16.09334 -33.65625,-19.375 z"
         id="path10649" />
    </g>
    <g
       transform="translate(627.93335,3.5953809)"
       id="g4934"
       style="display:inline">
      <g
         id="layer4-8"
         style="display:inline">
        <g
           transform="translate(968.30936,-16.48167)"
           id="layer3-1"
           style="display:inline" />
        <g
           transform="translate(968.30936,-16.48167)"
           id="layer1-7"
           style="display:inline" />
        <g
           transform="translate(1024.7381,-93.12201)"
           id="layer4-4"
           style="display:inline">
          <g
             transform="translate(873.00016,-55.320157)"
             id="g5818" />
          <g
             transform="translate(873.00016,-55.320157)"
             id="g5820" />
          <g
             transform="translate(873.00016,-55.320157)"
             id="g5822" />
        </g>
        <g
           transform="translate(1024.7381,-93.12201)"
           id="layer5"
           style="display:inline">
          <g
             transform="translate(-582.73933,640.16742)"
             id="g5438"
             style="display:inline" />
          <g
             transform="translate(-526.31061,563.52708)"
             id="g5440"
             style="display:inline" />
          <g
             transform="translate(-526.31061,563.52708)"
             id="g5559" />
          <g
             transform="translate(-526.31061,563.52708)"
             id="g5561"
             style="display:inline" />
        </g>
        <g
           transform="translate(1024.7381,-93.12201)"
           id="layer6"
           style="display:inline" />
        <path
           style="display:inline;fill:#fcef3c;fill-opacity:1;fill-rule:evenodd;stroke:#000000;stroke-width:3;stroke-linecap:butt;stroke-linejoin:miter;stroke-miterlimit:4;stroke-dasharray:none;stroke-opacity:1"
           id="path2663"
           d="m -626.43335,-1.51058 v 258.53126 c 0,285.4515 298.5,397.78125 298.5,397.78125 0,0 298.5,-112.32974 298.5,-397.78125 0,-285.45154 0,-258.53126 0,-258.53126 z m 26.3437,26.375002 h 544.3125 c 0,0 3e-4,1.067056 0,235.718758 0,260.25801 -272.1562,362.65627 -272.1562,362.65625 0,0 -272.1562,-102.39824 -272.1563,-362.65625 z" />
      </g>
    </g>
    <g
       transform="matrix(1.2597801,0,0,1.2597801,-633.55582,389.7051)"
       id="g4120"
       style="fill:#e9e9e9;stroke:#000000;stroke-width:1.03881645;stroke-linecap:round;stroke-linejoin:round">
      <g
         style="fill:#2b5df2;stroke-width:1.3728075;stroke-miterlimit:4;stroke-dasharray:none"
         transform="matrix(1.1564467,0,0,1.1564467,300.4479,16.512546)"
         id="g5025">
        <path
           style="fill:#2b5df2;stroke-width:1.3728075;stroke-miterlimit:4;stroke-dasharray:none"
           id="path3976"
           d="m 381.0625,29.28125 -27.90625,24 3.71875,3.6875 v 71.6875 c 5.38991,0.0115 10.75034,0 16.125,0 V 107.5 c 0,-4.46136 3.63239,-8.0625 8.09375,-8.0625 4.46136,0 8.0625,3.60114 8.0625,8.0625 v 21.15625 c 5.36773,-0.004 10.74204,0 16.125,0 l -0.0312,-71.6875 h 0.0312 L 409,53.28125 Z" />
        <path
           style="fill:#2b5df2;stroke-width:1.3728075;stroke-miterlimit:4;stroke-dasharray:none"
           id="path3097"
           d="m 381.07617,29.28125 -27.91992,24 H 381.0625 409 Z" />
        <path
           style="fill:#2b5df2;stroke-width:1.3728075;stroke-miterlimit:4;stroke-dasharray:none"
           id="path3099"
           d="m 353.15625,53.28125 3.71875,3.6875 h 24.1875 24.21875 L 409,53.28125 h -27.9375 z" />
        <rect
           style="fill:#fcef3c;stroke-width:1.3728075;stroke-miterlimit:4;stroke-dasharray:none"
           id="rect3103"
           y="75.498497"
           x="368.48508"
           height="7.1781006"
           width="8.0719442" />
        <rect
           style="fill:#fcef3c;stroke-width:1.3728075;stroke-miterlimit:4;stroke-dasharray:none"
           id="rect3117"
           y="91.760246"
           x="360.54718"
           height="7.1781006"
           width="8.0719442" />
        <rect
           style="fill:#fcef3c;stroke-width:1.3728075;stroke-miterlimit:4;stroke-dasharray:none"
           id="rect3161"
           transform="scale(-1,1)"
           y="60.008671"
           x="-384.4949"
           height="7.1781006"
           width="8.0719442" />
      </g>
    </g>
  </g>
  <g
     id="layer4" />
  <g
     style="display:inline"
     id="layer2">
    <path
       id="path2875"
       style="opacity:1;fill:url(#radialGradient3163);fill-opacity:1;fill-rule:evenodd;stroke:none;stroke-width:1px;stroke-linecap:butt;stroke-linejoin:miter;stroke-opacity:1"
       d="m 300.00001,658.5 c 0,0 298.5,-112.32031 298.5,-397.77183 0,-285.451504 0,-258.5516835 0,-258.5516835 H 1.5 V 260.72817 C 1.5,546.17969 300.00001,658.5 300.00001,658.5 Z" />
  </g>
  <g
     id="layer1">
    <path
       id="path1411"
       style="opacity:1;fill:none;fill-opacity:1;fill-rule:evenodd;stroke:#000000;stroke-width:3.00000048;stroke-linecap:butt;stroke-linejoin:miter;stroke-miterlimit:4;stroke-dasharray:none;stroke-opacity:1"
       d="M 299.99999,658.50028 C 299.99999,658.50028 1.5,546.17992 1.5,260.72828 C 1.5,-24.723336 1.5,2.1764957 1.5,2.1764957 L 598.49999,2.1764957 L 598.49999,260.72828 C 598.49999,546.17992 299.99999,658.50028 299.99999,658.50028 z " />
  </g>
</svg>
