<?xml version="1.0" encoding="UTF-8" standalone="no"?>
<svg
   xmlns:dc="http://purl.org/dc/elements/1.1/"
   xmlns:cc="http://creativecommons.org/ns#"
   xmlns:rdf="http://www.w3.org/1999/02/22-rdf-syntax-ns#"
   xmlns:svg="http://www.w3.org/2000/svg"
   xmlns="http://www.w3.org/2000/svg"
   xmlns:xlink="http://www.w3.org/1999/xlink"
   xmlns:sodipodi="http://sodipodi.sourceforge.net/DTD/sodipodi-0.dtd"
   xmlns:inkscape="http://www.inkscape.org/namespaces/inkscape"
   height="660"
   width="600"
   version="1.0"
   id="svg2"
   sodipodi:version="0.32"
   inkscape:version="0.46"
   sodipodi:docname="Auxonne (21).svg"
   sodipodi:docbase="E:\DIVERS\Héraldique"
   inkscape:output_extension="org.inkscape.output.svg.inkscape">
  <metadata
     id="metadata49">
    <rdf:RDF>
      <cc:Work
         rdf:about="">
        <dc:format>image/svg+xml</dc:format>
        <dc:type
           rdf:resource="http://purl.org/dc/dcmitype/StillImage" />
        <dc:title>Blason de la Bourgogne (écu moderne)</dc:title>
        <dc:date>20 II 2008</dc:date>
        <dc:creator>
          <cc:Agent>
            <dc:title>Zigeuner (http://fr.wikipedia.org/wiki/Utilisateur:Zigeuner)</dc:title>
          </cc:Agent>
        </dc:creator>
        <cc:license
           rdf:resource="http://creativecommons.org/licenses/by-sa/2.5/" />
        <dc:language>fr</dc:language>
        <dc:subject>
          <rdf:Bag />
        </dc:subject>
        <dc:description>écartelé, en 1 et 4 d'azur semé de fleurs de lys d'or à la bordure componée d'argent et de gueules, et en 2 et 3 bandé d'or et d'azur de six pièces à la bordure de gueules</dc:description>
        <dc:source>http://commons.wikimedia.org/wiki/Image:Blason_Migennes_89.svg</dc:source>
      </cc:Work>
      <cc:License
         rdf:about="http://creativecommons.org/licenses/by-sa/2.5/">
        <cc:permits
           rdf:resource="http://web.resource.org/cc/Reproduction" />
        <cc:permits
           rdf:resource="http://web.resource.org/cc/Distribution" />
        <cc:requires
           rdf:resource="http://web.resource.org/cc/Notice" />
        <cc:requires
           rdf:resource="http://web.resource.org/cc/Attribution" />
        <cc:permits
           rdf:resource="http://web.resource.org/cc/DerivativeWorks" />
        <cc:requires
           rdf:resource="http://web.resource.org/cc/ShareAlike" />
      </cc:License>
    </rdf:RDF>
  </metadata>
  <sodipodi:namedview
     inkscape:window-height="712"
     inkscape:window-width="1024"
     inkscape:pageshadow="2"
     inkscape:pageopacity="0.0"
     guidetolerance="10.0"
     gridtolerance="10.0"
     objecttolerance="10.0"
     borderopacity="1.0"
     bordercolor="#666666"
     pagecolor="#ffffff"
     id="base"
     showgrid="false"
     height="660px"
     inkscape:zoom="0.8"
     inkscape:cx="300"
     inkscape:cy="330"
     inkscape:window-x="-4"
     inkscape:window-y="-4"
     inkscape:current-layer="layer2"
     showguides="true"
     inkscape:guide-bbox="true" />
  <desc
     id="desc4">Flag of Canton of Valais (Wallis)</desc>
  <defs
     id="defs6">
    <inkscape:perspective
       sodipodi:type="inkscape:persp3d"
       inkscape:vp_x="0 : 330 : 1"
       inkscape:vp_y="0 : 1000 : 0"
       inkscape:vp_z="600 : 330 : 1"
       inkscape:persp3d-origin="300 : 220 : 1"
       id="perspective269" />
    <linearGradient
       id="linearGradient2893">
      <stop
         style="stop-color:white;stop-opacity:0.3137255;"
         offset="0"
         id="stop2895" />
      <stop
         id="stop2897"
         offset="0.19"
         style="stop-color:white;stop-opacity:0.25098041;" />
      <stop
         style="stop-color:#6b6b6b;stop-opacity:0.1254902;"
         offset="0.60000002"
         id="stop2901" />
      <stop
         style="stop-color:black;stop-opacity:0.1254902;"
         offset="1"
         id="stop2899" />
    </linearGradient>
    <radialGradient
       inkscape:collect="always"
       xlink:href="#linearGradient2893"
       id="radialGradient2883"
       cx="203.19754"
       cy="218.01039"
       fx="203.19754"
       fy="218.01039"
       r="300"
       gradientTransform="matrix(1.360018,0,0,1.355087,-79.5275,-87.64524)"
       gradientUnits="userSpaceOnUse" />
    <linearGradient
       id="linearGradient2955">
      <stop
         style="stop-color:white;stop-opacity:0;"
         offset="0"
         id="stop2965" />
      <stop
         style="stop-color:black;stop-opacity:0.64583331;"
         offset="1"
         id="stop2959" />
    </linearGradient>
    <radialGradient
       inkscape:collect="always"
       xlink:href="#linearGradient2955"
       id="radialGradient2961"
       cx="225.52438"
       cy="218.90099"
       fx="225.52438"
       fy="218.90099"
       r="300"
       gradientTransform="matrix(-4.167939e-4,2.182867,-1.884232,-3.599562e-4,615.5972,-289.1214)"
       gradientUnits="userSpaceOnUse" />
    <polygon
       id="star"
       transform="scale(53,53)"
       points="0,-1 0.58778525,0.80901699 -0.95105652,-0.30901699 0.95105652,-0.30901699 -0.58778525,0.80901699 0,-1 " />
    <clipPath
       id="clip">
      <path
         d="M 0,-200 L 0,600 L 300,600 L 300,-200 L 0,-200 z "
         id="path10" />
    </clipPath>
    <radialGradient
       inkscape:collect="always"
       xlink:href="#linearGradient2955"
       id="radialGradient1911"
       gradientUnits="userSpaceOnUse"
       gradientTransform="matrix(-4.167939e-4,2.182867,-1.884232,-3.599562e-4,1395.597,-309.1214)"
       cx="225.52438"
       cy="218.90099"
       fx="225.52438"
       fy="218.90099"
       r="300" />
    <radialGradient
       inkscape:collect="always"
       xlink:href="#linearGradient2955"
       id="radialGradient2928"
       cx="-483.50824"
       cy="153.9283"
       fx="-483.50824"
       fy="153.9283"
       r="300.00003"
       gradientTransform="matrix(0,2.342476,-2.291353,0,562.9126,1323.77)"
       gradientUnits="userSpaceOnUse" />
    <radialGradient
       inkscape:collect="always"
       xlink:href="#linearGradient2893"
       id="radialGradient11919"
       gradientUnits="userSpaceOnUse"
       gradientTransform="matrix(1.551284,0,0,1.350335,-227.8943,-51.2635)"
       cx="285.18573"
       cy="200.44757"
       fx="285.18573"
       fy="200.44757"
       r="300" />
    <inkscape:perspective
       id="perspective8511"
       inkscape:persp3d-origin="372.04724 : 350.78739 : 1"
       inkscape:vp_z="744.09448 : 526.18109 : 1"
       inkscape:vp_y="0 : 1000 : 0"
       inkscape:vp_x="0 : 526.18109 : 1"
       sodipodi:type="inkscape:persp3d" />
  </defs>
  <g
     inkscape:groupmode="layer"
     id="layer1"
     inkscape:label="Fond écu"
     style="display:inline">
    <g
       id="g2699"
       inkscape:label="Calque 1"
       transform="translate(-74.999947,-202.36234)"
       style="fill:#2b5df2">
      <g
         style="fill:#2b5df2;stroke:none;display:inline"
         id="g4195"
         inkscape:label="Calque 1"
         transform="translate(2.5e-6,2.6171874e-6)">
        <path
           sodipodi:nodetypes="cssccccssc"
           d="M 374.99998,860.86234 C 374.99998,822.35824 406.20317,791.10862 444.64998,791.10862 C 483.09679,791.10862 565.40315,791.10862 603.84996,791.10862 C 642.29676,791.10862 673.50005,759.859 673.50005,721.355 L 673.50005,203.86202 L 76.499955,203.86204 L 76.499945,721.355 C 76.499945,759.859 107.70316,791.10862 146.14996,791.10862 C 184.59679,791.10862 266.90317,791.10862 305.34998,791.10862 C 343.79678,791.10862 374.99998,822.35824 374.99998,860.86234 z"
           style="fill:#2b5df2;fill-opacity:1;fill-rule:nonzero;stroke:none;stroke-width:3.00000191;stroke-linecap:round;stroke-linejoin:round;stroke-miterlimit:4;stroke-dasharray:none;stroke-dashoffset:0;stroke-opacity:1;display:inline"
           id="path4197" />
      </g>
    </g>
  </g>
  <g
     inkscape:groupmode="layer"
     id="layer2"
     inkscape:label="Meubles">
    <g
       style="display:inline"
       id="g3638"
       transform="translate(0.481553,-2.941178)">
      <g
         transform="matrix(0.175,0,0,0.175,-50.4815,-51.935822)"
         style="fill:#ffffff;fill-opacity:1;stroke:#000000;stroke-width:17.1428566;stroke-miterlimit:4;stroke-dasharray:none;stroke-opacity:1"
         id="g4299">
        <path
           d="M 1778.9,3200 C 1778.9,3322.11 1679.9,3421.1 1557.79,3421.1 C 1603.4,3500.1 1687.68,3548.76 1778.89,3548.76 C 1870.11,3548.76 1954.39,3500.1 2000,3421.1 C 2045.61,3500.1 2129.89,3548.76 2221.1,3548.76 C 2312.32,3548.76 2396.6,3500.1 2442.21,3421.1 C 2320.1,3421.1 2221.1,3322.11 2221.1,3200 L 2221.1,2221.1 L 3200,2221.1 C 3322.11,2221.1 3421.1,2320.1 3421.1,2442.21 C 3500.1,2396.6 3548.76,2312.32 3548.76,2221.11 C 3548.76,2129.89 3500.1,2045.61 3421.1,2000 C 3500.1,1954.39 3548.76,1870.11 3548.76,1778.9 C 3548.76,1687.68 3500.1,1603.4 3421.1,1557.79 C 3421.1,1679.9 3322.11,1778.9 3200,1778.9 L 2221.1,1778.9 L 2221.1,800 C 2221.1,677.887 2320.1,578.895 2442.21,578.895 C 2396.6,499.902 2312.32,451.24 2221.1,451.24 C 2129.89,451.24 2045.61,499.902 2000,578.895 C 1954.39,499.902 1870.11,451.24 1778.89,451.24 C 1687.68,451.24 1603.4,499.902 1557.79,578.895 C 1679.9,578.895 1778.9,677.887 1778.9,800 L 1778.9,1778.9 L 800,1778.9 C 677.887,1778.9 578.895,1679.9 578.895,1557.79 C 499.902,1603.4 451.24,1687.68 451.24,1778.9 C 451.24,1870.11 499.902,1954.39 578.895,2000 C 499.902,2045.61 451.24,2129.89 451.24,2221.11 C 451.24,2312.32 499.902,2396.6 578.895,2442.21 C 578.895,2320.1 677.887,2221.1 800,2221.1 L 1778.9,2221.1 L 1778.9,3200 z"
           style="fill:#ffffff;fill-opacity:1;stroke:#000000;stroke-width:17.1428566;stroke-miterlimit:4;stroke-dasharray:none;stroke-opacity:1"
           id="path4301" />
      </g>
    </g>
    <g
       style="display:inline"
       id="g3764">
      <path
         id="rect2780"
         d="M 1.5,1.5 L 1.5,519 C 1.5,557.50399 32.709455,588.75 71.15625,588.75 C 109.60306,588.74997 191.89695,588.75 230.34375,588.75 C 268.79054,588.74997 300,619.99594 300,658.5 L 300,1.5 L 1.5,1.5 z"
         style="fill:#2b5df2;fill-opacity:1;stroke:#000000;stroke-width:3;stroke-miterlimit:4;stroke-dasharray:none;stroke-opacity:1" />
      <g
         id="g3642">
        <path
           style="fill:#e20909;fill-opacity:1;stroke:#000000;stroke-width:2;stroke-miterlimit:4;stroke-dasharray:none;stroke-opacity:1;display:inline"
           d="M 2.0616775,1.6842469 C 3.7525102,101.91797 2.4679275,302.49674 2.4679275,302.49674 L 299.65543,300.49674 L 299.65543,1.6842469 L 2.0616775,1.6842469 z"
           id="rect1901"
           sodipodi:nodetypes="ccccc" />
        <path
           style="fill:#ffffff;fill-opacity:1;fill-rule:evenodd;stroke:#000000;stroke-width:2;stroke-linecap:butt;stroke-linejoin:miter;stroke-miterlimit:4;stroke-dasharray:none;stroke-opacity:1;display:inline"
           d="M 43.773768,49.126987 C 43.773768,49.126987 4.4618475,1.8092369 4.4618475,1.8092369 L 55.558878,1.8432769 L 55.558878,49.126987 L 43.773768,49.126987 z"
           id="path9469"
           sodipodi:nodetypes="ccccc" />
        <path
           style="fill:#ffffff;fill-opacity:1;fill-rule:evenodd;stroke:#000000;stroke-width:2;stroke-linecap:butt;stroke-linejoin:miter;stroke-miterlimit:4;stroke-dasharray:none;stroke-opacity:1;display:inline"
           d="M 298.0625,2.46875 C 298.0625,2.46875 258.1875,50.093749 258.1875,50.09375 L 258.1875,64.96875 L 298.625,64.96875 L 298.0625,2.46875 z"
           id="path9483" />
        <path
           sodipodi:nodetypes="ccccc"
           id="path9487"
           d="M 45.361058,247.49589 C 45.361058,247.49589 2.8586775,302.21841 2.8586775,302.21841 L 57.146178,302.7796 L 57.146178,247.49589 L 45.361058,247.49589 z"
           style="fill:#ffffff;fill-opacity:1;fill-rule:evenodd;stroke:#000000;stroke-width:2;stroke-linecap:butt;stroke-linejoin:miter;stroke-miterlimit:4;stroke-dasharray:none;stroke-opacity:1;display:inline" />
        <path
           sodipodi:nodetypes="ccccc"
           id="path9495"
           d="M 257.77511,246.54034 C 257.77511,246.54034 299.09109,299.95616 299.09109,299.95616 L 299.65229,231.66865 L 257.77511,231.66865 L 257.77511,246.54034 z"
           style="fill:#ffffff;fill-opacity:1;fill-rule:evenodd;stroke:#000000;stroke-width:2;stroke-linecap:butt;stroke-linejoin:miter;stroke-miterlimit:4;stroke-dasharray:none;stroke-opacity:1;display:inline" />
        <rect
           style="fill:#ffffff;fill-opacity:1;stroke:#000000;stroke-width:2;stroke-miterlimit:4;stroke-dasharray:none;stroke-opacity:1;display:inline"
           id="rect9497"
           width="41.210793"
           height="54.639614"
           x="2.9653237"
           y="176.08789" />
        <rect
           style="fill:#ffffff;fill-opacity:1;stroke:#000000;stroke-width:2;stroke-miterlimit:4;stroke-dasharray:none;stroke-opacity:1;display:inline"
           id="rect9501"
           width="41.257767"
           height="53.042885"
           x="2.9418252"
           y="66.030128" />
        <rect
           style="fill:#ffffff;fill-opacity:1;stroke:#000000;stroke-width:2;stroke-miterlimit:4;stroke-dasharray:none;stroke-opacity:1;display:inline"
           id="rect9505"
           width="40.606495"
           height="57.249794"
           x="257.4534"
           y="120.19476" />
        <path
           style="fill:#ffffff;fill-opacity:1;stroke:#000000;stroke-width:2;stroke-miterlimit:4;stroke-opacity:1;display:inline"
           d="M 104.28835,247.01709 L 148.81912,247.01709 L 148.81912,301.59547 L 104.28835,301.59547 L 104.28835,247.01709 z"
           id="rect10430"
           sodipodi:nodetypes="ccccc" />
        <path
           style="fill:#ffffff;fill-opacity:1;stroke:#000000;stroke-width:2;stroke-miterlimit:4;stroke-opacity:1;display:inline"
           d="M 197.19336,246.66809 L 244.80304,246.66809 L 244.80304,301.54761 L 197.19336,301.54761 L 197.19336,246.66809 z"
           id="rect10434"
           sodipodi:nodetypes="ccccc" />
        <path
           style="fill:#ffffff;fill-opacity:1;stroke:#000000;stroke-width:2;stroke-miterlimit:4;stroke-opacity:1;display:inline"
           d="M 104.28835,0.905948 L 148.81912,0.905948 L 148.81912,49.484332 L 104.28835,49.484332 L 104.28835,0.905948 z"
           id="rect10443"
           sodipodi:nodetypes="ccccc" />
        <path
           style="fill:#ffffff;fill-opacity:1;stroke:#000000;stroke-width:2;stroke-miterlimit:4;stroke-opacity:1;display:inline"
           d="M 197.19336,2.556979 L 244.80304,2.556979 L 244.80304,49.436496 L 197.19336,49.436496 L 197.19336,2.556979 z"
           id="rect10445"
           sodipodi:nodetypes="ccccc" />
        <rect
           style="fill:#2b5df2;fill-opacity:1;stroke:#000000;stroke-width:2;stroke-miterlimit:4;stroke-dasharray:none;stroke-opacity:1"
           id="rect6338"
           width="213.25443"
           height="197.54094"
           x="44.231369"
           y="49.320015" />
        <g
           style="fill:#fcef3c;stroke:#000000;stroke-width:25.8475132;stroke-miterlimit:4;stroke-dasharray:none;stroke-opacity:1;display:inline"
           id="g1878"
           transform="matrix(5.803266e-2,0,0,5.803266e-2,53.215058,55.969785)">
          <path
             sodipodi:nodetypes="ccscscc"
             id="path1876"
             style="opacity:1;fill:#fcef3c;fill-opacity:1;fill-rule:evenodd;stroke:#000000;stroke-width:25.8475132;stroke-linecap:butt;stroke-linejoin:miter;stroke-miterlimit:4;stroke-dasharray:none;stroke-opacity:1;display:inline"
             d="M 407.02914,608.69929 C 408.45371,546.74328 423.7803,489.15982 452.31871,434.59069 C 527.03313,277.40489 755.23905,281.15895 704.93393,473.402 C 686.39707,544.24137 623.42532,585.87586 548.61507,593.01701 C 554.01466,574.35164 583.71536,508.36456 559.73954,495.45545 C 521.40138,496.90385 473.7952,563.16055 462.34672,594.75617 C 460.69402,599.29227 461.15631,604.53418 459.31088,608.99624" />
          <g
             id="g13452"
             style="opacity:1;fill:#fcef3c;stroke:#000000;stroke-width:25.8475132;stroke-miterlimit:4;stroke-dasharray:none;stroke-opacity:1;display:inline"
             transform="translate(-38.53215,-48.5769)">
            <g
               id="g13018"
               style="fill:#fcef3c;fill-opacity:1;stroke:#000000;stroke-width:25.8475132;stroke-miterlimit:4;stroke-dasharray:none;stroke-opacity:1"
               transform="translate(0,4)">
              <path
                 sodipodi:nodetypes="ccscscc"
                 id="path1902"
                 style="fill:#fcef3c;fill-opacity:1;fill-rule:evenodd;stroke:#000000;stroke-width:25.8475132;stroke-linecap:butt;stroke-linejoin:miter;stroke-miterlimit:4;stroke-dasharray:none;stroke-opacity:1"
                 d="M 350.52292,657.37224 C 349.09835,595.41623 333.77176,537.83277 305.23335,483.26364 C 230.51893,326.07784 2.3130139,329.8319 52.618133,522.07495 C 71.154997,592.91432 134.12674,634.54881 208.93699,641.68996 C 203.5374,623.02459 173.8367,557.03751 197.81252,544.1284 C 236.15068,545.5768 283.75686,611.8335 295.20534,643.42912 C 296.85804,647.96522 296.39575,653.20713 298.24118,657.66919" />
              <path
                 sodipodi:nodetypes="csccccsccc"
                 id="path3734"
                 style="fill:#fcef3c;fill-opacity:1;fill-rule:nonzero;stroke:#000000;stroke-width:25.8475132;stroke-linecap:butt;stroke-linejoin:miter;stroke-miterlimit:4;stroke-dasharray:none;stroke-opacity:1"
                 d="M 393.6259,57.12017 C 314.9116,141.96961 262.06129,240.08175 284.84465,355.15142 C 297.41422,418.63533 327.88647,477.43115 349.3759,538.58892 C 362.81238,576.95877 366.24813,617.04065 364.65715,657.37017 L 431.4384,657.37017 C 428.24189,616.744 435.24511,577.37193 446.71965,538.58892 C 467.19384,477.05062 498.34544,418.68339 511.2509,355.15142 C 535.37892,236.37223 478.74399,146.7919 402.8134,57.49517 L 398.17297,51.576902 L 393.6259,57.12017 z" />
              <path
                 sodipodi:nodetypes="cssscccssscc"
                 id="path6395"
                 style="fill:#fcef3c;fill-opacity:1;fill-rule:evenodd;stroke:#000000;stroke-width:25.8475132;stroke-linecap:butt;stroke-linejoin:miter;stroke-miterlimit:4;stroke-dasharray:none;stroke-opacity:1"
                 d="M 331.34465,704.40142 C 317.38299,743.53144 260.45647,815.19349 230.21965,835.62017 C 222.37748,840.91802 267.70602,832.5686 288.0009,828.12017 C 314.61991,822.28553 349.21835,793.92258 348.40715,803.93267 C 348.33151,849.77093 361.21819,926.25691 394.8134,961.40142 L 397.99548,964.78902 L 401.28215,961.40142 C 434.85984,922.23047 447.51976,853.35944 447.6884,803.93267 C 446.8772,793.92258 481.47565,822.28553 508.09465,828.12017 C 528.38953,832.5686 573.71807,840.91802 565.8759,835.62017 C 535.63908,815.19349 478.74383,743.53144 464.78215,704.40142 L 331.34465,704.40142 z" />
              <rect
                 id="rect4623"
                 style="fill:#fcef3c;fill-opacity:1;stroke:#000000;stroke-width:25.8475132;stroke-miterlimit:4;stroke-dasharray:none;stroke-opacity:1"
                 y="655.37946"
                 x="239.3521"
                 height="51.503345"
                 width="317.88773" />
            </g>
          </g>
        </g>
        <g
           transform="matrix(5.803266e-2,0,0,5.803266e-2,104.09681,55.969785)"
           id="g9211"
           style="fill:#fcef3c;stroke:#000000;stroke-width:25.8475132;stroke-miterlimit:4;stroke-dasharray:none;stroke-opacity:1;display:inline">
          <path
             d="M 407.02914,608.69929 C 408.45371,546.74328 423.7803,489.15982 452.31871,434.59069 C 527.03313,277.40489 755.23905,281.15895 704.93393,473.402 C 686.39707,544.24137 623.42532,585.87586 548.61507,593.01701 C 554.01466,574.35164 583.71536,508.36456 559.73954,495.45545 C 521.40138,496.90385 473.7952,563.16055 462.34672,594.75617 C 460.69402,599.29227 461.15631,604.53418 459.31088,608.99624"
             style="opacity:1;fill:#fcef3c;fill-opacity:1;fill-rule:evenodd;stroke:#000000;stroke-width:25.8475132;stroke-linecap:butt;stroke-linejoin:miter;stroke-miterlimit:4;stroke-dasharray:none;stroke-opacity:1;display:inline"
             id="path9213"
             sodipodi:nodetypes="ccscscc" />
          <g
             transform="translate(-38.53215,-48.5769)"
             style="opacity:1;fill:#fcef3c;stroke:#000000;stroke-width:25.8475132;stroke-miterlimit:4;stroke-dasharray:none;stroke-opacity:1;display:inline"
             id="g9215">
            <g
               transform="translate(0,4)"
               style="fill:#fcef3c;fill-opacity:1;stroke:#000000;stroke-width:25.8475132;stroke-miterlimit:4;stroke-dasharray:none;stroke-opacity:1"
               id="g9217">
              <path
                 d="M 350.52292,657.37224 C 349.09835,595.41623 333.77176,537.83277 305.23335,483.26364 C 230.51893,326.07784 2.3130139,329.8319 52.618133,522.07495 C 71.154997,592.91432 134.12674,634.54881 208.93699,641.68996 C 203.5374,623.02459 173.8367,557.03751 197.81252,544.1284 C 236.15068,545.5768 283.75686,611.8335 295.20534,643.42912 C 296.85804,647.96522 296.39575,653.20713 298.24118,657.66919"
                 style="fill:#fcef3c;fill-opacity:1;fill-rule:evenodd;stroke:#000000;stroke-width:25.8475132;stroke-linecap:butt;stroke-linejoin:miter;stroke-miterlimit:4;stroke-dasharray:none;stroke-opacity:1"
                 id="path9219"
                 sodipodi:nodetypes="ccscscc" />
              <path
                 d="M 393.6259,57.12017 C 314.9116,141.96961 262.06129,240.08175 284.84465,355.15142 C 297.41422,418.63533 327.88647,477.43115 349.3759,538.58892 C 362.81238,576.95877 366.24813,617.04065 364.65715,657.37017 L 431.4384,657.37017 C 428.24189,616.744 435.24511,577.37193 446.71965,538.58892 C 467.19384,477.05062 498.34544,418.68339 511.2509,355.15142 C 535.37892,236.37223 478.74399,146.7919 402.8134,57.49517 L 398.17297,51.576902 L 393.6259,57.12017 z"
                 style="fill:#fcef3c;fill-opacity:1;fill-rule:nonzero;stroke:#000000;stroke-width:25.8475132;stroke-linecap:butt;stroke-linejoin:miter;stroke-miterlimit:4;stroke-dasharray:none;stroke-opacity:1"
                 id="path9221"
                 sodipodi:nodetypes="csccccsccc" />
              <path
                 d="M 331.34465,704.40142 C 317.38299,743.53144 260.45647,815.19349 230.21965,835.62017 C 222.37748,840.91802 267.70602,832.5686 288.0009,828.12017 C 314.61991,822.28553 349.21835,793.92258 348.40715,803.93267 C 348.33151,849.77093 361.21819,926.25691 394.8134,961.40142 L 397.99548,964.78902 L 401.28215,961.40142 C 434.85984,922.23047 447.51976,853.35944 447.6884,803.93267 C 446.8772,793.92258 481.47565,822.28553 508.09465,828.12017 C 528.38953,832.5686 573.71807,840.91802 565.8759,835.62017 C 535.63908,815.19349 478.74383,743.53144 464.78215,704.40142 L 331.34465,704.40142 z"
                 style="fill:#fcef3c;fill-opacity:1;fill-rule:evenodd;stroke:#000000;stroke-width:25.8475132;stroke-linecap:butt;stroke-linejoin:miter;stroke-miterlimit:4;stroke-dasharray:none;stroke-opacity:1"
                 id="path9223"
                 sodipodi:nodetypes="cssscccssscc" />
              <rect
                 width="317.88773"
                 height="51.503345"
                 x="239.3521"
                 y="655.37946"
                 style="fill:#fcef3c;fill-opacity:1;stroke:#000000;stroke-width:25.8475132;stroke-miterlimit:4;stroke-dasharray:none;stroke-opacity:1"
                 id="rect9225" />
            </g>
          </g>
        </g>
        <g
           style="fill:#fcef3c;stroke:#000000;stroke-width:25.8475132;stroke-miterlimit:4;stroke-dasharray:none;stroke-opacity:1;display:inline"
           id="g9227"
           transform="matrix(5.803266e-2,0,0,5.803266e-2,154.97861,55.969785)">
          <path
             sodipodi:nodetypes="ccscscc"
             id="path9229"
             style="opacity:1;fill:#fcef3c;fill-opacity:1;fill-rule:evenodd;stroke:#000000;stroke-width:25.8475132;stroke-linecap:butt;stroke-linejoin:miter;stroke-miterlimit:4;stroke-dasharray:none;stroke-opacity:1;display:inline"
             d="M 407.02914,608.69929 C 408.45371,546.74328 423.7803,489.15982 452.31871,434.59069 C 527.03313,277.40489 755.23905,281.15895 704.93393,473.402 C 686.39707,544.24137 623.42532,585.87586 548.61507,593.01701 C 554.01466,574.35164 583.71536,508.36456 559.73954,495.45545 C 521.40138,496.90385 473.7952,563.16055 462.34672,594.75617 C 460.69402,599.29227 461.15631,604.53418 459.31088,608.99624" />
          <g
             id="g9231"
             style="opacity:1;fill:#fcef3c;stroke:#000000;stroke-width:25.8475132;stroke-miterlimit:4;stroke-dasharray:none;stroke-opacity:1;display:inline"
             transform="translate(-38.53215,-48.5769)">
            <g
               id="g9233"
               style="fill:#fcef3c;fill-opacity:1;stroke:#000000;stroke-width:25.8475132;stroke-miterlimit:4;stroke-dasharray:none;stroke-opacity:1"
               transform="translate(0,4)">
              <path
                 sodipodi:nodetypes="ccscscc"
                 id="path9235"
                 style="fill:#fcef3c;fill-opacity:1;fill-rule:evenodd;stroke:#000000;stroke-width:25.8475132;stroke-linecap:butt;stroke-linejoin:miter;stroke-miterlimit:4;stroke-dasharray:none;stroke-opacity:1"
                 d="M 350.52292,657.37224 C 349.09835,595.41623 333.77176,537.83277 305.23335,483.26364 C 230.51893,326.07784 2.3130139,329.8319 52.618133,522.07495 C 71.154997,592.91432 134.12674,634.54881 208.93699,641.68996 C 203.5374,623.02459 173.8367,557.03751 197.81252,544.1284 C 236.15068,545.5768 283.75686,611.8335 295.20534,643.42912 C 296.85804,647.96522 296.39575,653.20713 298.24118,657.66919" />
              <path
                 sodipodi:nodetypes="csccccsccc"
                 id="path9237"
                 style="fill:#fcef3c;fill-opacity:1;fill-rule:nonzero;stroke:#000000;stroke-width:25.8475132;stroke-linecap:butt;stroke-linejoin:miter;stroke-miterlimit:4;stroke-dasharray:none;stroke-opacity:1"
                 d="M 393.6259,57.12017 C 314.9116,141.96961 262.06129,240.08175 284.84465,355.15142 C 297.41422,418.63533 327.88647,477.43115 349.3759,538.58892 C 362.81238,576.95877 366.24813,617.04065 364.65715,657.37017 L 431.4384,657.37017 C 428.24189,616.744 435.24511,577.37193 446.71965,538.58892 C 467.19384,477.05062 498.34544,418.68339 511.2509,355.15142 C 535.37892,236.37223 478.74399,146.7919 402.8134,57.49517 L 398.17297,51.576902 L 393.6259,57.12017 z" />
              <path
                 sodipodi:nodetypes="cssscccssscc"
                 id="path9239"
                 style="fill:#fcef3c;fill-opacity:1;fill-rule:evenodd;stroke:#000000;stroke-width:25.8475132;stroke-linecap:butt;stroke-linejoin:miter;stroke-miterlimit:4;stroke-dasharray:none;stroke-opacity:1"
                 d="M 331.34465,704.40142 C 317.38299,743.53144 260.45647,815.19349 230.21965,835.62017 C 222.37748,840.91802 267.70602,832.5686 288.0009,828.12017 C 314.61991,822.28553 349.21835,793.92258 348.40715,803.93267 C 348.33151,849.77093 361.21819,926.25691 394.8134,961.40142 L 397.99548,964.78902 L 401.28215,961.40142 C 434.85984,922.23047 447.51976,853.35944 447.6884,803.93267 C 446.8772,793.92258 481.47565,822.28553 508.09465,828.12017 C 528.38953,832.5686 573.71807,840.91802 565.8759,835.62017 C 535.63908,815.19349 478.74383,743.53144 464.78215,704.40142 L 331.34465,704.40142 z" />
              <rect
                 id="rect9241"
                 style="fill:#fcef3c;fill-opacity:1;stroke:#000000;stroke-width:25.8475132;stroke-miterlimit:4;stroke-dasharray:none;stroke-opacity:1"
                 y="655.37946"
                 x="239.3521"
                 height="51.503345"
                 width="317.88773" />
            </g>
          </g>
        </g>
        <g
           transform="matrix(5.803266e-2,0,0,5.803266e-2,205.86031,55.969785)"
           id="g9243"
           style="fill:#fcef3c;stroke:#000000;stroke-width:25.8475132;stroke-miterlimit:4;stroke-dasharray:none;stroke-opacity:1;display:inline">
          <path
             d="M 407.02914,608.69929 C 408.45371,546.74328 423.7803,489.15982 452.31871,434.59069 C 527.03313,277.40489 755.23905,281.15895 704.93393,473.402 C 686.39707,544.24137 623.42532,585.87586 548.61507,593.01701 C 554.01466,574.35164 583.71536,508.36456 559.73954,495.45545 C 521.40138,496.90385 473.7952,563.16055 462.34672,594.75617 C 460.69402,599.29227 461.15631,604.53418 459.31088,608.99624"
             style="opacity:1;fill:#fcef3c;fill-opacity:1;fill-rule:evenodd;stroke:#000000;stroke-width:25.8475132;stroke-linecap:butt;stroke-linejoin:miter;stroke-miterlimit:4;stroke-dasharray:none;stroke-opacity:1;display:inline"
             id="path9245"
             sodipodi:nodetypes="ccscscc" />
          <g
             transform="translate(-38.53215,-48.5769)"
             style="opacity:1;fill:#fcef3c;stroke:#000000;stroke-width:25.8475132;stroke-miterlimit:4;stroke-dasharray:none;stroke-opacity:1;display:inline"
             id="g9247">
            <g
               transform="translate(0,4)"
               style="fill:#fcef3c;fill-opacity:1;stroke:#000000;stroke-width:25.8475132;stroke-miterlimit:4;stroke-dasharray:none;stroke-opacity:1"
               id="g9249">
              <path
                 d="M 350.52292,657.37224 C 349.09835,595.41623 333.77176,537.83277 305.23335,483.26364 C 230.51893,326.07784 2.3130139,329.8319 52.618133,522.07495 C 71.154997,592.91432 134.12674,634.54881 208.93699,641.68996 C 203.5374,623.02459 173.8367,557.03751 197.81252,544.1284 C 236.15068,545.5768 283.75686,611.8335 295.20534,643.42912 C 296.85804,647.96522 296.39575,653.20713 298.24118,657.66919"
                 style="fill:#fcef3c;fill-opacity:1;fill-rule:evenodd;stroke:#000000;stroke-width:25.8475132;stroke-linecap:butt;stroke-linejoin:miter;stroke-miterlimit:4;stroke-dasharray:none;stroke-opacity:1"
                 id="path9251"
                 sodipodi:nodetypes="ccscscc" />
              <path
                 d="M 393.6259,57.12017 C 314.9116,141.96961 262.06129,240.08175 284.84465,355.15142 C 297.41422,418.63533 327.88647,477.43115 349.3759,538.58892 C 362.81238,576.95877 366.24813,617.04065 364.65715,657.37017 L 431.4384,657.37017 C 428.24189,616.744 435.24511,577.37193 446.71965,538.58892 C 467.19384,477.05062 498.34544,418.68339 511.2509,355.15142 C 535.37892,236.37223 478.74399,146.7919 402.8134,57.49517 L 398.17297,51.576902 L 393.6259,57.12017 z"
                 style="fill:#fcef3c;fill-opacity:1;fill-rule:nonzero;stroke:#000000;stroke-width:25.8475132;stroke-linecap:butt;stroke-linejoin:miter;stroke-miterlimit:4;stroke-dasharray:none;stroke-opacity:1"
                 id="path9253"
                 sodipodi:nodetypes="csccccsccc" />
              <path
                 d="M 331.34465,704.40142 C 317.38299,743.53144 260.45647,815.19349 230.21965,835.62017 C 222.37748,840.91802 267.70602,832.5686 288.0009,828.12017 C 314.61991,822.28553 349.21835,793.92258 348.40715,803.93267 C 348.33151,849.77093 361.21819,926.25691 394.8134,961.40142 L 397.99548,964.78902 L 401.28215,961.40142 C 434.85984,922.23047 447.51976,853.35944 447.6884,803.93267 C 446.8772,793.92258 481.47565,822.28553 508.09465,828.12017 C 528.38953,832.5686 573.71807,840.91802 565.8759,835.62017 C 535.63908,815.19349 478.74383,743.53144 464.78215,704.40142 L 331.34465,704.40142 z"
                 style="fill:#fcef3c;fill-opacity:1;fill-rule:evenodd;stroke:#000000;stroke-width:25.8475132;stroke-linecap:butt;stroke-linejoin:miter;stroke-miterlimit:4;stroke-dasharray:none;stroke-opacity:1"
                 id="path9255"
                 sodipodi:nodetypes="cssscccssscc" />
              <rect
                 width="317.88773"
                 height="51.503345"
                 x="239.3521"
                 y="655.37946"
                 style="fill:#fcef3c;fill-opacity:1;stroke:#000000;stroke-width:25.8475132;stroke-miterlimit:4;stroke-dasharray:none;stroke-opacity:1"
                 id="rect9257" />
            </g>
          </g>
        </g>
        <g
           id="g9430"
           transform="translate(0.561708,7.496735)"
           style="fill:#fcef3c;stroke:#000000;stroke-width:1.5;stroke-miterlimit:4;stroke-dasharray:none;stroke-opacity:1">
          <path
             d="M 52.459324,144.40664 C 52.541995,140.81117 53.431438,137.46945 55.087598,134.30265 C 59.423474,125.18074 72.666871,125.3986 69.747531,136.55498 C 68.671788,140.66597 65.01737,143.08213 60.675932,143.49655 C 60.989284,142.41335 62.712895,138.58395 61.321514,137.8348 C 59.096649,137.91885 56.333936,141.7639 55.66955,143.59748 C 55.573639,143.86072 55.600467,144.16493 55.493372,144.42387"
             style="fill:#fcef3c;fill-opacity:1;fill-rule:evenodd;stroke:#000000;stroke-width:1.5;stroke-linecap:butt;stroke-linejoin:miter;stroke-miterlimit:4;stroke-dasharray:none;stroke-opacity:1;display:inline"
             id="path9261"
             sodipodi:nodetypes="ccscscc" />
          <path
             id="path9267"
             d="M 43.65625,133.34375 L 43.65625,143.6875 C 43.675441,143.73576 43.70214,143.79791 43.71875,143.84375 C 43.81466,144.10699 43.799155,144.39731 43.90625,144.65625 L 46.9375,144.65625 C 46.85483,141.06078 45.96866,137.69805 44.3125,134.53125 C 44.112444,134.11037 43.891769,133.72471 43.65625,133.34375 z"
             style="fill:#fcef3c;fill-opacity:1;fill-rule:evenodd;stroke:#000000;stroke-width:1.5;stroke-linecap:butt;stroke-linejoin:miter;stroke-miterlimit:4;stroke-dasharray:none;stroke-opacity:1" />
          <path
             d="M 49.445378,109.81014 C 44.877378,114.73417 41.810334,120.42788 43.132513,127.10568 C 43.861958,130.78982 45.630344,134.2019 46.877433,137.75105 C 47.657187,139.97775 47.856573,142.30381 47.764244,144.64424 L 51.639738,144.64424 C 51.454236,142.28659 51.860651,140.00173 52.52655,137.75105 C 53.714721,134.17982 55.522531,130.79261 56.27147,127.10568 C 57.671683,120.21261 54.385007,115.01402 49.978553,109.8319 L 49.709257,109.48844 L 49.445378,109.81014 z"
             style="fill:#fcef3c;fill-opacity:1;fill-rule:nonzero;stroke:#000000;stroke-width:1.5;stroke-linecap:butt;stroke-linejoin:miter;stroke-miterlimit:4;stroke-dasharray:none;stroke-opacity:1"
             id="path9269"
             sodipodi:nodetypes="csccccsccc" />
          <path
             id="path9271"
             d="M 45.84375,147.375 C 45.486797,148.37542 44.635433,149.7449 43.65625,151.0625 L 43.65625,154.46875 C 45.140131,153.99759 46.856211,152.61686 46.8125,153.15625 C 46.808111,155.81638 47.55038,160.24172 49.5,162.28125 L 49.6875,162.5 L 49.875,162.28125 C 51.823603,160.00806 52.583963,156.02462 52.59375,153.15625 C 52.546676,152.57535 54.548979,154.2239 56.09375,154.5625 C 57.271517,154.82066 59.892602,155.30745 59.4375,155 C 57.682776,153.81459 54.372734,149.64582 53.5625,147.375 L 45.84375,147.375 z"
             style="fill:#fcef3c;fill-opacity:1;fill-rule:evenodd;stroke:#000000;stroke-width:1.5;stroke-linecap:butt;stroke-linejoin:miter;stroke-miterlimit:4;stroke-dasharray:none;stroke-opacity:1" />
          <path
             id="rect9273"
             d="M 43.65625,144.53125 L 43.65625,147.53125 L 58.9375,147.53125 L 58.9375,144.53125 L 43.65625,144.53125 z"
             style="fill:#fcef3c;fill-opacity:1;stroke:#000000;stroke-width:1.5;stroke-miterlimit:4;stroke-dasharray:none;stroke-opacity:1" />
        </g>
        <g
           style="fill:#fcef3c;stroke:#000000;stroke-width:25.8475132;stroke-miterlimit:4;stroke-dasharray:none;stroke-opacity:1;display:inline"
           id="g9275"
           transform="matrix(5.803266e-2,0,0,5.803266e-2,78.281798,116.57894)">
          <path
             sodipodi:nodetypes="ccscscc"
             id="path9277"
             style="opacity:1;fill:#fcef3c;fill-opacity:1;fill-rule:evenodd;stroke:#000000;stroke-width:25.8475132;stroke-linecap:butt;stroke-linejoin:miter;stroke-miterlimit:4;stroke-dasharray:none;stroke-opacity:1;display:inline"
             d="M 407.02914,608.69929 C 408.45371,546.74328 423.7803,489.15982 452.31871,434.59069 C 527.03313,277.40489 755.23905,281.15895 704.93393,473.402 C 686.39707,544.24137 623.42532,585.87586 548.61507,593.01701 C 554.01466,574.35164 583.71536,508.36456 559.73954,495.45545 C 521.40138,496.90385 473.7952,563.16055 462.34672,594.75617 C 460.69402,599.29227 461.15631,604.53418 459.31088,608.99624" />
          <g
             id="g9279"
             style="opacity:1;fill:#fcef3c;stroke:#000000;stroke-width:25.8475132;stroke-miterlimit:4;stroke-dasharray:none;stroke-opacity:1;display:inline"
             transform="translate(-38.53215,-48.5769)">
            <g
               id="g9281"
               style="fill:#fcef3c;fill-opacity:1;stroke:#000000;stroke-width:25.8475132;stroke-miterlimit:4;stroke-dasharray:none;stroke-opacity:1"
               transform="translate(0,4)">
              <path
                 sodipodi:nodetypes="ccscscc"
                 id="path9283"
                 style="fill:#fcef3c;fill-opacity:1;fill-rule:evenodd;stroke:#000000;stroke-width:25.8475132;stroke-linecap:butt;stroke-linejoin:miter;stroke-miterlimit:4;stroke-dasharray:none;stroke-opacity:1"
                 d="M 350.52292,657.37224 C 349.09835,595.41623 333.77176,537.83277 305.23335,483.26364 C 230.51893,326.07784 2.3130139,329.8319 52.618133,522.07495 C 71.154997,592.91432 134.12674,634.54881 208.93699,641.68996 C 203.5374,623.02459 173.8367,557.03751 197.81252,544.1284 C 236.15068,545.5768 283.75686,611.8335 295.20534,643.42912 C 296.85804,647.96522 296.39575,653.20713 298.24118,657.66919" />
              <path
                 sodipodi:nodetypes="csccccsccc"
                 id="path9285"
                 style="fill:#fcef3c;fill-opacity:1;fill-rule:nonzero;stroke:#000000;stroke-width:25.8475132;stroke-linecap:butt;stroke-linejoin:miter;stroke-miterlimit:4;stroke-dasharray:none;stroke-opacity:1"
                 d="M 393.6259,57.12017 C 314.9116,141.96961 262.06129,240.08175 284.84465,355.15142 C 297.41422,418.63533 327.88647,477.43115 349.3759,538.58892 C 362.81238,576.95877 366.24813,617.04065 364.65715,657.37017 L 431.4384,657.37017 C 428.24189,616.744 435.24511,577.37193 446.71965,538.58892 C 467.19384,477.05062 498.34544,418.68339 511.2509,355.15142 C 535.37892,236.37223 478.74399,146.7919 402.8134,57.49517 L 398.17297,51.576902 L 393.6259,57.12017 z" />
              <path
                 sodipodi:nodetypes="cssscccssscc"
                 id="path9287"
                 style="fill:#fcef3c;fill-opacity:1;fill-rule:evenodd;stroke:#000000;stroke-width:25.8475132;stroke-linecap:butt;stroke-linejoin:miter;stroke-miterlimit:4;stroke-dasharray:none;stroke-opacity:1"
                 d="M 331.34465,704.40142 C 317.38299,743.53144 260.45647,815.19349 230.21965,835.62017 C 222.37748,840.91802 267.70602,832.5686 288.0009,828.12017 C 314.61991,822.28553 349.21835,793.92258 348.40715,803.93267 C 348.33151,849.77093 361.21819,926.25691 394.8134,961.40142 L 397.99548,964.78902 L 401.28215,961.40142 C 434.85984,922.23047 447.51976,853.35944 447.6884,803.93267 C 446.8772,793.92258 481.47565,822.28553 508.09465,828.12017 C 528.38953,832.5686 573.71807,840.91802 565.8759,835.62017 C 535.63908,815.19349 478.74383,743.53144 464.78215,704.40142 L 331.34465,704.40142 z" />
              <rect
                 id="rect9289"
                 style="fill:#fcef3c;fill-opacity:1;stroke:#000000;stroke-width:25.8475132;stroke-miterlimit:4;stroke-dasharray:none;stroke-opacity:1"
                 y="655.37946"
                 x="239.3521"
                 height="51.503345"
                 width="317.88773" />
            </g>
          </g>
        </g>
        <g
           transform="matrix(5.803266e-2,0,0,5.803266e-2,129.16361,116.57894)"
           id="g9291"
           style="fill:#fcef3c;stroke:#000000;stroke-width:25.8475132;stroke-miterlimit:4;stroke-dasharray:none;stroke-opacity:1;display:inline">
          <path
             d="M 407.02914,608.69929 C 408.45371,546.74328 423.7803,489.15982 452.31871,434.59069 C 527.03313,277.40489 755.23905,281.15895 704.93393,473.402 C 686.39707,544.24137 623.42532,585.87586 548.61507,593.01701 C 554.01466,574.35164 583.71536,508.36456 559.73954,495.45545 C 521.40138,496.90385 473.7952,563.16055 462.34672,594.75617 C 460.69402,599.29227 461.15631,604.53418 459.31088,608.99624"
             style="opacity:1;fill:#fcef3c;fill-opacity:1;fill-rule:evenodd;stroke:#000000;stroke-width:25.8475132;stroke-linecap:butt;stroke-linejoin:miter;stroke-miterlimit:4;stroke-dasharray:none;stroke-opacity:1;display:inline"
             id="path9293"
             sodipodi:nodetypes="ccscscc" />
          <g
             transform="translate(-38.53215,-48.5769)"
             style="opacity:1;fill:#fcef3c;stroke:#000000;stroke-width:25.8475132;stroke-miterlimit:4;stroke-dasharray:none;stroke-opacity:1;display:inline"
             id="g9295">
            <g
               transform="translate(0,4)"
               style="fill:#fcef3c;fill-opacity:1;stroke:#000000;stroke-width:25.8475132;stroke-miterlimit:4;stroke-dasharray:none;stroke-opacity:1"
               id="g9297">
              <path
                 d="M 350.52292,657.37224 C 349.09835,595.41623 333.77176,537.83277 305.23335,483.26364 C 230.51893,326.07784 2.3130139,329.8319 52.618133,522.07495 C 71.154997,592.91432 134.12674,634.54881 208.93699,641.68996 C 203.5374,623.02459 173.8367,557.03751 197.81252,544.1284 C 236.15068,545.5768 283.75686,611.8335 295.20534,643.42912 C 296.85804,647.96522 296.39575,653.20713 298.24118,657.66919"
                 style="fill:#fcef3c;fill-opacity:1;fill-rule:evenodd;stroke:#000000;stroke-width:25.8475132;stroke-linecap:butt;stroke-linejoin:miter;stroke-miterlimit:4;stroke-dasharray:none;stroke-opacity:1"
                 id="path9299"
                 sodipodi:nodetypes="ccscscc" />
              <path
                 d="M 393.6259,57.12017 C 314.9116,141.96961 262.06129,240.08175 284.84465,355.15142 C 297.41422,418.63533 327.88647,477.43115 349.3759,538.58892 C 362.81238,576.95877 366.24813,617.04065 364.65715,657.37017 L 431.4384,657.37017 C 428.24189,616.744 435.24511,577.37193 446.71965,538.58892 C 467.19384,477.05062 498.34544,418.68339 511.2509,355.15142 C 535.37892,236.37223 478.74399,146.7919 402.8134,57.49517 L 398.17297,51.576902 L 393.6259,57.12017 z"
                 style="fill:#fcef3c;fill-opacity:1;fill-rule:nonzero;stroke:#000000;stroke-width:25.8475132;stroke-linecap:butt;stroke-linejoin:miter;stroke-miterlimit:4;stroke-dasharray:none;stroke-opacity:1"
                 id="path9301"
                 sodipodi:nodetypes="csccccsccc" />
              <path
                 d="M 331.34465,704.40142 C 317.38299,743.53144 260.45647,815.19349 230.21965,835.62017 C 222.37748,840.91802 267.70602,832.5686 288.0009,828.12017 C 314.61991,822.28553 349.21835,793.92258 348.40715,803.93267 C 348.33151,849.77093 361.21819,926.25691 394.8134,961.40142 L 397.99548,964.78902 L 401.28215,961.40142 C 434.85984,922.23047 447.51976,853.35944 447.6884,803.93267 C 446.8772,793.92258 481.47565,822.28553 508.09465,828.12017 C 528.38953,832.5686 573.71807,840.91802 565.8759,835.62017 C 535.63908,815.19349 478.74383,743.53144 464.78215,704.40142 L 331.34465,704.40142 z"
                 style="fill:#fcef3c;fill-opacity:1;fill-rule:evenodd;stroke:#000000;stroke-width:25.8475132;stroke-linecap:butt;stroke-linejoin:miter;stroke-miterlimit:4;stroke-dasharray:none;stroke-opacity:1"
                 id="path9303"
                 sodipodi:nodetypes="cssscccssscc" />
              <rect
                 width="317.88773"
                 height="51.503345"
                 x="239.3521"
                 y="655.37946"
                 style="fill:#fcef3c;fill-opacity:1;stroke:#000000;stroke-width:25.8475132;stroke-miterlimit:4;stroke-dasharray:none;stroke-opacity:1"
                 id="rect9305" />
            </g>
          </g>
        </g>
        <g
           style="fill:#fcef3c;stroke:#000000;stroke-width:25.8475132;stroke-miterlimit:4;stroke-dasharray:none;stroke-opacity:1;display:inline"
           id="g9307"
           transform="matrix(5.803266e-2,0,0,5.803266e-2,180.04531,116.57894)">
          <path
             sodipodi:nodetypes="ccscscc"
             id="path9309"
             style="opacity:1;fill:#fcef3c;fill-opacity:1;fill-rule:evenodd;stroke:#000000;stroke-width:25.8475132;stroke-linecap:butt;stroke-linejoin:miter;stroke-miterlimit:4;stroke-dasharray:none;stroke-opacity:1;display:inline"
             d="M 407.02914,608.69929 C 408.45371,546.74328 423.7803,489.15982 452.31871,434.59069 C 527.03313,277.40489 755.23905,281.15895 704.93393,473.402 C 686.39707,544.24137 623.42532,585.87586 548.61507,593.01701 C 554.01466,574.35164 583.71536,508.36456 559.73954,495.45545 C 521.40138,496.90385 473.7952,563.16055 462.34672,594.75617 C 460.69402,599.29227 461.15631,604.53418 459.31088,608.99624" />
          <g
             id="g9311"
             style="opacity:1;fill:#fcef3c;stroke:#000000;stroke-width:25.8475132;stroke-miterlimit:4;stroke-dasharray:none;stroke-opacity:1;display:inline"
             transform="translate(-38.53215,-48.5769)">
            <g
               id="g9313"
               style="fill:#fcef3c;fill-opacity:1;stroke:#000000;stroke-width:25.8475132;stroke-miterlimit:4;stroke-dasharray:none;stroke-opacity:1"
               transform="translate(0,4)">
              <path
                 sodipodi:nodetypes="ccscscc"
                 id="path9315"
                 style="fill:#fcef3c;fill-opacity:1;fill-rule:evenodd;stroke:#000000;stroke-width:25.8475132;stroke-linecap:butt;stroke-linejoin:miter;stroke-miterlimit:4;stroke-dasharray:none;stroke-opacity:1"
                 d="M 350.52292,657.37224 C 349.09835,595.41623 333.77176,537.83277 305.23335,483.26364 C 230.51893,326.07784 2.3130139,329.8319 52.618133,522.07495 C 71.154997,592.91432 134.12674,634.54881 208.93699,641.68996 C 203.5374,623.02459 173.8367,557.03751 197.81252,544.1284 C 236.15068,545.5768 283.75686,611.8335 295.20534,643.42912 C 296.85804,647.96522 296.39575,653.20713 298.24118,657.66919" />
              <path
                 sodipodi:nodetypes="csccccsccc"
                 id="path9317"
                 style="fill:#fcef3c;fill-opacity:1;fill-rule:nonzero;stroke:#000000;stroke-width:25.8475132;stroke-linecap:butt;stroke-linejoin:miter;stroke-miterlimit:4;stroke-dasharray:none;stroke-opacity:1"
                 d="M 393.6259,57.12017 C 314.9116,141.96961 262.06129,240.08175 284.84465,355.15142 C 297.41422,418.63533 327.88647,477.43115 349.3759,538.58892 C 362.81238,576.95877 366.24813,617.04065 364.65715,657.37017 L 431.4384,657.37017 C 428.24189,616.744 435.24511,577.37193 446.71965,538.58892 C 467.19384,477.05062 498.34544,418.68339 511.2509,355.15142 C 535.37892,236.37223 478.74399,146.7919 402.8134,57.49517 L 398.17297,51.576902 L 393.6259,57.12017 z" />
              <path
                 sodipodi:nodetypes="cssscccssscc"
                 id="path9319"
                 style="fill:#fcef3c;fill-opacity:1;fill-rule:evenodd;stroke:#000000;stroke-width:25.8475132;stroke-linecap:butt;stroke-linejoin:miter;stroke-miterlimit:4;stroke-dasharray:none;stroke-opacity:1"
                 d="M 331.34465,704.40142 C 317.38299,743.53144 260.45647,815.19349 230.21965,835.62017 C 222.37748,840.91802 267.70602,832.5686 288.0009,828.12017 C 314.61991,822.28553 349.21835,793.92258 348.40715,803.93267 C 348.33151,849.77093 361.21819,926.25691 394.8134,961.40142 L 397.99548,964.78902 L 401.28215,961.40142 C 434.85984,922.23047 447.51976,853.35944 447.6884,803.93267 C 446.8772,793.92258 481.47565,822.28553 508.09465,828.12017 C 528.38953,832.5686 573.71807,840.91802 565.8759,835.62017 C 535.63908,815.19349 478.74383,743.53144 464.78215,704.40142 L 331.34465,704.40142 z" />
              <rect
                 id="rect9321"
                 style="fill:#fcef3c;fill-opacity:1;stroke:#000000;stroke-width:25.8475132;stroke-miterlimit:4;stroke-dasharray:none;stroke-opacity:1"
                 y="655.37946"
                 x="239.3521"
                 height="51.503345"
                 width="317.88773" />
            </g>
          </g>
        </g>
        <g
           style="fill:#fcef3c;stroke:#000000;stroke-width:25.8475132;stroke-miterlimit:4;stroke-dasharray:none;stroke-opacity:1;display:inline"
           id="g9323"
           transform="matrix(5.803266e-2,0,0,5.803266e-2,53.215058,181.67763)">
          <path
             sodipodi:nodetypes="ccscscc"
             id="path9325"
             style="opacity:1;fill:#fcef3c;fill-opacity:1;fill-rule:evenodd;stroke:#000000;stroke-width:25.8475132;stroke-linecap:butt;stroke-linejoin:miter;stroke-miterlimit:4;stroke-dasharray:none;stroke-opacity:1;display:inline"
             d="M 407.02914,608.69929 C 408.45371,546.74328 423.7803,489.15982 452.31871,434.59069 C 527.03313,277.40489 755.23905,281.15895 704.93393,473.402 C 686.39707,544.24137 623.42532,585.87586 548.61507,593.01701 C 554.01466,574.35164 583.71536,508.36456 559.73954,495.45545 C 521.40138,496.90385 473.7952,563.16055 462.34672,594.75617 C 460.69402,599.29227 461.15631,604.53418 459.31088,608.99624" />
          <g
             id="g9327"
             style="opacity:1;fill:#fcef3c;stroke:#000000;stroke-width:25.8475132;stroke-miterlimit:4;stroke-dasharray:none;stroke-opacity:1;display:inline"
             transform="translate(-38.53215,-48.5769)">
            <g
               id="g9329"
               style="fill:#fcef3c;fill-opacity:1;stroke:#000000;stroke-width:25.8475132;stroke-miterlimit:4;stroke-dasharray:none;stroke-opacity:1"
               transform="translate(0,4)">
              <path
                 sodipodi:nodetypes="ccscscc"
                 id="path9331"
                 style="fill:#fcef3c;fill-opacity:1;fill-rule:evenodd;stroke:#000000;stroke-width:25.8475132;stroke-linecap:butt;stroke-linejoin:miter;stroke-miterlimit:4;stroke-dasharray:none;stroke-opacity:1"
                 d="M 350.52292,657.37224 C 349.09835,595.41623 333.77176,537.83277 305.23335,483.26364 C 230.51893,326.07784 2.3130139,329.8319 52.618133,522.07495 C 71.154997,592.91432 134.12674,634.54881 208.93699,641.68996 C 203.5374,623.02459 173.8367,557.03751 197.81252,544.1284 C 236.15068,545.5768 283.75686,611.8335 295.20534,643.42912 C 296.85804,647.96522 296.39575,653.20713 298.24118,657.66919" />
              <path
                 sodipodi:nodetypes="csccccsccc"
                 id="path9333"
                 style="fill:#fcef3c;fill-opacity:1;fill-rule:nonzero;stroke:#000000;stroke-width:25.8475132;stroke-linecap:butt;stroke-linejoin:miter;stroke-miterlimit:4;stroke-dasharray:none;stroke-opacity:1"
                 d="M 393.6259,57.12017 C 314.9116,141.96961 262.06129,240.08175 284.84465,355.15142 C 297.41422,418.63533 327.88647,477.43115 349.3759,538.58892 C 362.81238,576.95877 366.24813,617.04065 364.65715,657.37017 L 431.4384,657.37017 C 428.24189,616.744 435.24511,577.37193 446.71965,538.58892 C 467.19384,477.05062 498.34544,418.68339 511.2509,355.15142 C 535.37892,236.37223 478.74399,146.7919 402.8134,57.49517 L 398.17297,51.576902 L 393.6259,57.12017 z" />
              <path
                 sodipodi:nodetypes="cssscccssscc"
                 id="path9335"
                 style="fill:#fcef3c;fill-opacity:1;fill-rule:evenodd;stroke:#000000;stroke-width:25.8475132;stroke-linecap:butt;stroke-linejoin:miter;stroke-miterlimit:4;stroke-dasharray:none;stroke-opacity:1"
                 d="M 331.34465,704.40142 C 317.38299,743.53144 260.45647,815.19349 230.21965,835.62017 C 222.37748,840.91802 267.70602,832.5686 288.0009,828.12017 C 314.61991,822.28553 349.21835,793.92258 348.40715,803.93267 C 348.33151,849.77093 361.21819,926.25691 394.8134,961.40142 L 397.99548,964.78902 L 401.28215,961.40142 C 434.85984,922.23047 447.51976,853.35944 447.6884,803.93267 C 446.8772,793.92258 481.47565,822.28553 508.09465,828.12017 C 528.38953,832.5686 573.71807,840.91802 565.8759,835.62017 C 535.63908,815.19349 478.74383,743.53144 464.78215,704.40142 L 331.34465,704.40142 z" />
              <rect
                 id="rect9337"
                 style="fill:#fcef3c;fill-opacity:1;stroke:#000000;stroke-width:25.8475132;stroke-miterlimit:4;stroke-dasharray:none;stroke-opacity:1"
                 y="655.37946"
                 x="239.3521"
                 height="51.503345"
                 width="317.88773" />
            </g>
          </g>
        </g>
        <g
           transform="matrix(5.803266e-2,0,0,5.803266e-2,104.09681,181.67763)"
           id="g9339"
           style="fill:#fcef3c;stroke:#000000;stroke-width:25.8475132;stroke-miterlimit:4;stroke-dasharray:none;stroke-opacity:1;display:inline">
          <path
             d="M 407.02914,608.69929 C 408.45371,546.74328 423.7803,489.15982 452.31871,434.59069 C 527.03313,277.40489 755.23905,281.15895 704.93393,473.402 C 686.39707,544.24137 623.42532,585.87586 548.61507,593.01701 C 554.01466,574.35164 583.71536,508.36456 559.73954,495.45545 C 521.40138,496.90385 473.7952,563.16055 462.34672,594.75617 C 460.69402,599.29227 461.15631,604.53418 459.31088,608.99624"
             style="opacity:1;fill:#fcef3c;fill-opacity:1;fill-rule:evenodd;stroke:#000000;stroke-width:25.8475132;stroke-linecap:butt;stroke-linejoin:miter;stroke-miterlimit:4;stroke-dasharray:none;stroke-opacity:1;display:inline"
             id="path9341"
             sodipodi:nodetypes="ccscscc" />
          <g
             transform="translate(-38.53215,-48.5769)"
             style="opacity:1;fill:#fcef3c;stroke:#000000;stroke-width:25.8475132;stroke-miterlimit:4;stroke-dasharray:none;stroke-opacity:1;display:inline"
             id="g9343">
            <g
               transform="translate(0,4)"
               style="fill:#fcef3c;fill-opacity:1;stroke:#000000;stroke-width:25.8475132;stroke-miterlimit:4;stroke-dasharray:none;stroke-opacity:1"
               id="g9345">
              <path
                 d="M 350.52292,657.37224 C 349.09835,595.41623 333.77176,537.83277 305.23335,483.26364 C 230.51893,326.07784 2.3130139,329.8319 52.618133,522.07495 C 71.154997,592.91432 134.12674,634.54881 208.93699,641.68996 C 203.5374,623.02459 173.8367,557.03751 197.81252,544.1284 C 236.15068,545.5768 283.75686,611.8335 295.20534,643.42912 C 296.85804,647.96522 296.39575,653.20713 298.24118,657.66919"
                 style="fill:#fcef3c;fill-opacity:1;fill-rule:evenodd;stroke:#000000;stroke-width:25.8475132;stroke-linecap:butt;stroke-linejoin:miter;stroke-miterlimit:4;stroke-dasharray:none;stroke-opacity:1"
                 id="path9347"
                 sodipodi:nodetypes="ccscscc" />
              <path
                 d="M 393.6259,57.12017 C 314.9116,141.96961 262.06129,240.08175 284.84465,355.15142 C 297.41422,418.63533 327.88647,477.43115 349.3759,538.58892 C 362.81238,576.95877 366.24813,617.04065 364.65715,657.37017 L 431.4384,657.37017 C 428.24189,616.744 435.24511,577.37193 446.71965,538.58892 C 467.19384,477.05062 498.34544,418.68339 511.2509,355.15142 C 535.37892,236.37223 478.74399,146.7919 402.8134,57.49517 L 398.17297,51.576902 L 393.6259,57.12017 z"
                 style="fill:#fcef3c;fill-opacity:1;fill-rule:nonzero;stroke:#000000;stroke-width:25.8475132;stroke-linecap:butt;stroke-linejoin:miter;stroke-miterlimit:4;stroke-dasharray:none;stroke-opacity:1"
                 id="path9349"
                 sodipodi:nodetypes="csccccsccc" />
              <path
                 d="M 331.34465,704.40142 C 317.38299,743.53144 260.45647,815.19349 230.21965,835.62017 C 222.37748,840.91802 267.70602,832.5686 288.0009,828.12017 C 314.61991,822.28553 349.21835,793.92258 348.40715,803.93267 C 348.33151,849.77093 361.21819,926.25691 394.8134,961.40142 L 397.99548,964.78902 L 401.28215,961.40142 C 434.85984,922.23047 447.51976,853.35944 447.6884,803.93267 C 446.8772,793.92258 481.47565,822.28553 508.09465,828.12017 C 528.38953,832.5686 573.71807,840.91802 565.8759,835.62017 C 535.63908,815.19349 478.74383,743.53144 464.78215,704.40142 L 331.34465,704.40142 z"
                 style="fill:#fcef3c;fill-opacity:1;fill-rule:evenodd;stroke:#000000;stroke-width:25.8475132;stroke-linecap:butt;stroke-linejoin:miter;stroke-miterlimit:4;stroke-dasharray:none;stroke-opacity:1"
                 id="path9351"
                 sodipodi:nodetypes="cssscccssscc" />
              <rect
                 width="317.88773"
                 height="51.503345"
                 x="239.3521"
                 y="655.37946"
                 style="fill:#fcef3c;fill-opacity:1;stroke:#000000;stroke-width:25.8475132;stroke-miterlimit:4;stroke-dasharray:none;stroke-opacity:1"
                 id="rect9353" />
            </g>
          </g>
        </g>
        <g
           style="fill:#fcef3c;stroke:#000000;stroke-width:25.8475132;stroke-miterlimit:4;stroke-dasharray:none;stroke-opacity:1;display:inline"
           id="g9355"
           transform="matrix(5.803266e-2,0,0,5.803266e-2,154.97861,181.67763)">
          <path
             sodipodi:nodetypes="ccscscc"
             id="path9357"
             style="opacity:1;fill:#fcef3c;fill-opacity:1;fill-rule:evenodd;stroke:#000000;stroke-width:25.8475132;stroke-linecap:butt;stroke-linejoin:miter;stroke-miterlimit:4;stroke-dasharray:none;stroke-opacity:1;display:inline"
             d="M 407.02914,608.69929 C 408.45371,546.74328 423.7803,489.15982 452.31871,434.59069 C 527.03313,277.40489 755.23905,281.15895 704.93393,473.402 C 686.39707,544.24137 623.42532,585.87586 548.61507,593.01701 C 554.01466,574.35164 583.71536,508.36456 559.73954,495.45545 C 521.40138,496.90385 473.7952,563.16055 462.34672,594.75617 C 460.69402,599.29227 461.15631,604.53418 459.31088,608.99624" />
          <g
             id="g9359"
             style="opacity:1;fill:#fcef3c;stroke:#000000;stroke-width:25.8475132;stroke-miterlimit:4;stroke-dasharray:none;stroke-opacity:1;display:inline"
             transform="translate(-38.53215,-48.5769)">
            <g
               id="g9361"
               style="fill:#fcef3c;fill-opacity:1;stroke:#000000;stroke-width:25.8475132;stroke-miterlimit:4;stroke-dasharray:none;stroke-opacity:1"
               transform="translate(0,4)">
              <path
                 sodipodi:nodetypes="ccscscc"
                 id="path9363"
                 style="fill:#fcef3c;fill-opacity:1;fill-rule:evenodd;stroke:#000000;stroke-width:25.8475132;stroke-linecap:butt;stroke-linejoin:miter;stroke-miterlimit:4;stroke-dasharray:none;stroke-opacity:1"
                 d="M 350.52292,657.37224 C 349.09835,595.41623 333.77176,537.83277 305.23335,483.26364 C 230.51893,326.07784 2.3130139,329.8319 52.618133,522.07495 C 71.154997,592.91432 134.12674,634.54881 208.93699,641.68996 C 203.5374,623.02459 173.8367,557.03751 197.81252,544.1284 C 236.15068,545.5768 283.75686,611.8335 295.20534,643.42912 C 296.85804,647.96522 296.39575,653.20713 298.24118,657.66919" />
              <path
                 sodipodi:nodetypes="csccccsccc"
                 id="path9365"
                 style="fill:#fcef3c;fill-opacity:1;fill-rule:nonzero;stroke:#000000;stroke-width:25.8475132;stroke-linecap:butt;stroke-linejoin:miter;stroke-miterlimit:4;stroke-dasharray:none;stroke-opacity:1"
                 d="M 393.6259,57.12017 C 314.9116,141.96961 262.06129,240.08175 284.84465,355.15142 C 297.41422,418.63533 327.88647,477.43115 349.3759,538.58892 C 362.81238,576.95877 366.24813,617.04065 364.65715,657.37017 L 431.4384,657.37017 C 428.24189,616.744 435.24511,577.37193 446.71965,538.58892 C 467.19384,477.05062 498.34544,418.68339 511.2509,355.15142 C 535.37892,236.37223 478.74399,146.7919 402.8134,57.49517 L 398.17297,51.576902 L 393.6259,57.12017 z" />
              <path
                 sodipodi:nodetypes="cssscccssscc"
                 id="path9367"
                 style="fill:#fcef3c;fill-opacity:1;fill-rule:evenodd;stroke:#000000;stroke-width:25.8475132;stroke-linecap:butt;stroke-linejoin:miter;stroke-miterlimit:4;stroke-dasharray:none;stroke-opacity:1"
                 d="M 331.34465,704.40142 C 317.38299,743.53144 260.45647,815.19349 230.21965,835.62017 C 222.37748,840.91802 267.70602,832.5686 288.0009,828.12017 C 314.61991,822.28553 349.21835,793.92258 348.40715,803.93267 C 348.33151,849.77093 361.21819,926.25691 394.8134,961.40142 L 397.99548,964.78902 L 401.28215,961.40142 C 434.85984,922.23047 447.51976,853.35944 447.6884,803.93267 C 446.8772,793.92258 481.47565,822.28553 508.09465,828.12017 C 528.38953,832.5686 573.71807,840.91802 565.8759,835.62017 C 535.63908,815.19349 478.74383,743.53144 464.78215,704.40142 L 331.34465,704.40142 z" />
              <rect
                 id="rect9369"
                 style="fill:#fcef3c;fill-opacity:1;stroke:#000000;stroke-width:25.8475132;stroke-miterlimit:4;stroke-dasharray:none;stroke-opacity:1"
                 y="655.37946"
                 x="239.3521"
                 height="51.503345"
                 width="317.88773" />
            </g>
          </g>
        </g>
        <g
           transform="matrix(5.803266e-2,0,0,5.803266e-2,205.86031,181.67763)"
           id="g9371"
           style="fill:#fcef3c;stroke:#000000;stroke-width:25.8475132;stroke-miterlimit:4;stroke-dasharray:none;stroke-opacity:1;display:inline">
          <path
             d="M 407.02914,608.69929 C 408.45371,546.74328 423.7803,489.15982 452.31871,434.59069 C 527.03313,277.40489 755.23905,281.15895 704.93393,473.402 C 686.39707,544.24137 623.42532,585.87586 548.61507,593.01701 C 554.01466,574.35164 583.71536,508.36456 559.73954,495.45545 C 521.40138,496.90385 473.7952,563.16055 462.34672,594.75617 C 460.69402,599.29227 461.15631,604.53418 459.31088,608.99624"
             style="opacity:1;fill:#fcef3c;fill-opacity:1;fill-rule:evenodd;stroke:#000000;stroke-width:25.8475132;stroke-linecap:butt;stroke-linejoin:miter;stroke-miterlimit:4;stroke-dasharray:none;stroke-opacity:1;display:inline"
             id="path9373"
             sodipodi:nodetypes="ccscscc" />
          <g
             transform="translate(-38.53215,-48.5769)"
             style="opacity:1;fill:#fcef3c;stroke:#000000;stroke-width:25.8475132;stroke-miterlimit:4;stroke-dasharray:none;stroke-opacity:1;display:inline"
             id="g9375">
            <g
               transform="translate(0,4)"
               style="fill:#fcef3c;fill-opacity:1;stroke:#000000;stroke-width:25.8475132;stroke-miterlimit:4;stroke-dasharray:none;stroke-opacity:1"
               id="g9377">
              <path
                 d="M 350.52292,657.37224 C 349.09835,595.41623 333.77176,537.83277 305.23335,483.26364 C 230.51893,326.07784 2.3130139,329.8319 52.618133,522.07495 C 71.154997,592.91432 134.12674,634.54881 208.93699,641.68996 C 203.5374,623.02459 173.8367,557.03751 197.81252,544.1284 C 236.15068,545.5768 283.75686,611.8335 295.20534,643.42912 C 296.85804,647.96522 296.39575,653.20713 298.24118,657.66919"
                 style="fill:#fcef3c;fill-opacity:1;fill-rule:evenodd;stroke:#000000;stroke-width:25.8475132;stroke-linecap:butt;stroke-linejoin:miter;stroke-miterlimit:4;stroke-dasharray:none;stroke-opacity:1"
                 id="path9379"
                 sodipodi:nodetypes="ccscscc" />
              <path
                 d="M 393.6259,57.12017 C 314.9116,141.96961 262.06129,240.08175 284.84465,355.15142 C 297.41422,418.63533 327.88647,477.43115 349.3759,538.58892 C 362.81238,576.95877 366.24813,617.04065 364.65715,657.37017 L 431.4384,657.37017 C 428.24189,616.744 435.24511,577.37193 446.71965,538.58892 C 467.19384,477.05062 498.34544,418.68339 511.2509,355.15142 C 535.37892,236.37223 478.74399,146.7919 402.8134,57.49517 L 398.17297,51.576902 L 393.6259,57.12017 z"
                 style="fill:#fcef3c;fill-opacity:1;fill-rule:nonzero;stroke:#000000;stroke-width:25.8475132;stroke-linecap:butt;stroke-linejoin:miter;stroke-miterlimit:4;stroke-dasharray:none;stroke-opacity:1"
                 id="path9381"
                 sodipodi:nodetypes="csccccsccc" />
              <path
                 d="M 331.34465,704.40142 C 317.38299,743.53144 260.45647,815.19349 230.21965,835.62017 C 222.37748,840.91802 267.70602,832.5686 288.0009,828.12017 C 314.61991,822.28553 349.21835,793.92258 348.40715,803.93267 C 348.33151,849.77093 361.21819,926.25691 394.8134,961.40142 L 397.99548,964.78902 L 401.28215,961.40142 C 434.85984,922.23047 447.51976,853.35944 447.6884,803.93267 C 446.8772,793.92258 481.47565,822.28553 508.09465,828.12017 C 528.38953,832.5686 573.71807,840.91802 565.8759,835.62017 C 535.63908,815.19349 478.74383,743.53144 464.78215,704.40142 L 331.34465,704.40142 z"
                 style="fill:#fcef3c;fill-opacity:1;fill-rule:evenodd;stroke:#000000;stroke-width:25.8475132;stroke-linecap:butt;stroke-linejoin:miter;stroke-miterlimit:4;stroke-dasharray:none;stroke-opacity:1"
                 id="path9383"
                 sodipodi:nodetypes="cssscccssscc" />
              <rect
                 width="317.88773"
                 height="51.503345"
                 x="239.3521"
                 y="655.37946"
                 style="fill:#fcef3c;fill-opacity:1;stroke:#000000;stroke-width:25.8475132;stroke-miterlimit:4;stroke-dasharray:none;stroke-opacity:1"
                 id="rect9385" />
            </g>
          </g>
        </g>
        <g
           id="g9462"
           transform="translate(0.561708,7.496735)"
           style="fill:#fcef3c;stroke:#000000;stroke-width:1.5;stroke-miterlimit:4;stroke-dasharray:none;stroke-opacity:1">
          <path
             id="path9389"
             d="M 256.9375,133.40625 C 256.7727,133.69153 256.64565,134.00609 256.5,134.3125 C 254.84384,137.4793 253.92643,140.81077 253.84375,144.40625 L 256.90625,144.4375 C 256.93303,144.37276 256.92345,144.2878 256.9375,144.21875 L 256.9375,133.40625 z"
             style="fill:#fcef3c;fill-opacity:1;fill-rule:evenodd;stroke:#000000;stroke-width:1.5;stroke-linecap:butt;stroke-linejoin:miter;stroke-miterlimit:4;stroke-dasharray:none;stroke-opacity:1;display:inline" />
          <path
             sodipodi:nodetypes="ccscscc"
             id="path9395"
             style="fill:#fcef3c;fill-opacity:1;fill-rule:evenodd;stroke:#000000;stroke-width:1.5;stroke-linecap:butt;stroke-linejoin:miter;stroke-miterlimit:4;stroke-dasharray:none;stroke-opacity:1"
             d="M 248.34168,144.64436 C 248.25901,141.04889 247.36956,137.70717 245.7134,134.54037 C 241.37753,125.41846 228.13413,125.63632 231.05347,136.7927 C 232.12921,140.9037 235.78363,143.31986 240.12507,143.73428 C 239.81172,142.65107 238.08811,138.82167 239.47949,138.07252 C 241.70435,138.15657 244.46707,142.00163 245.13145,143.8352 C 245.22736,144.09845 245.20053,144.40265 245.30763,144.66159" />
          <path
             sodipodi:nodetypes="csccccsccc"
             id="path9397"
             style="fill:#fcef3c;fill-opacity:1;fill-rule:nonzero;stroke:#000000;stroke-width:1.5;stroke-linecap:butt;stroke-linejoin:miter;stroke-miterlimit:4;stroke-dasharray:none;stroke-opacity:1"
             d="M 250.84306,109.81014 C 246.27506,114.73417 243.20801,120.42788 244.53019,127.10568 C 245.25964,130.78982 247.02802,134.2019 248.27511,137.75105 C 249.05487,139.97775 249.25425,142.30381 249.16192,144.64424 L 253.03742,144.64424 C 252.85192,142.28659 253.25833,140.00173 253.92423,137.75105 C 255.1124,134.17982 256.92021,130.79261 257.66915,127.10568 C 259.06936,120.21261 255.78269,115.01402 251.37623,109.8319 L 251.10694,109.48844 L 250.84306,109.81014 z" />
          <path
             id="path9399"
             d="M 247.21875,147.375 C 246.40852,149.64581 243.12972,153.81459 241.375,155 C 240.91991,155.30745 243.54098,154.82065 244.71875,154.5625 C 246.26352,154.22391 248.26583,152.57534 248.21875,153.15625 C 248.21436,155.81638 248.95663,160.24172 250.90625,162.28125 L 251.09375,162.5 L 251.28125,162.28125 C 253.22985,160.00806 253.95896,156.02462 253.96875,153.15625 C 253.92693,152.6403 255.50144,153.88508 256.9375,154.40625 L 256.9375,150.75 C 256.05552,149.52903 255.29825,148.29847 254.96875,147.375 L 247.21875,147.375 z"
             style="fill:#fcef3c;fill-opacity:1;fill-rule:evenodd;stroke:#000000;stroke-width:1.5;stroke-linecap:butt;stroke-linejoin:miter;stroke-miterlimit:4;stroke-dasharray:none;stroke-opacity:1" />
          <path
             id="rect9401"
             d="M 241.875,144.53125 L 241.875,147.53125 L 256.9375,147.53125 L 256.9375,144.53125 L 241.875,144.53125 z"
             style="fill:#fcef3c;fill-opacity:1;stroke:#000000;stroke-width:1.5;stroke-miterlimit:4;stroke-dasharray:none;stroke-opacity:1" />
        </g>
      </g>
      <g
         id="g3757">
        <path
           style="fill:#e20909;fill-opacity:1;stroke:#000000;stroke-width:2;stroke-miterlimit:4;stroke-dasharray:none;stroke-opacity:1"
           d="M 1.5,302.46875 L 1.5,519 C 1.5,557.50399 32.709455,588.75 71.15625,588.75 C 109.60306,588.74997 191.89695,588.75 230.34375,588.75 C 267.98609,588.74997 298.66906,618.703 299.9375,656.09375 L 299.9375,302.46875 L 1.5,302.46875 z"
           id="path10314" />
        <path
           style="fill:#fcef3c;fill-opacity:1;stroke:#000000;stroke-width:2;stroke-miterlimit:4;stroke-dasharray:none;stroke-opacity:1"
           d="M 51.68635,353.46693 L 51.68635,551.48181 L 249.70124,551.48181 L 249.70124,353.46693 L 51.68635,353.46693 z"
           id="path10316" />
        <path
           id="path10318"
           d="M 121.41255,353.45205 L 249.6938,481.7333 L 249.6938,417.3583 L 185.78755,353.45205 L 121.41255,353.45205 z"
           style="fill:#2b5df2;fill-opacity:1;fill-rule:nonzero;stroke:#000000;stroke-width:2;stroke-miterlimit:4;stroke-dasharray:none;stroke-opacity:1" />
        <path
           id="path10320"
           d="M 51.6938,353.45205 L 51.6938,416.8583 L 186.28755,551.4833 L 249.6938,551.4833 L 249.6938,550.4833 L 52.66255,353.45205 L 51.6938,353.45205 z"
           style="fill:#2b5df2;fill-opacity:1;fill-rule:nonzero;stroke:#000000;stroke-width:2;stroke-miterlimit:4;stroke-dasharray:none;stroke-opacity:1" />
        <path
           id="path10322"
           d="M 51.6938,485.6708 L 51.6938,550.0458 L 53.1313,551.4833 L 117.5063,551.4833 L 51.6938,485.6708 z"
           style="fill:#2b5df2;fill-opacity:1;fill-rule:nonzero;stroke:#000000;stroke-width:2;stroke-miterlimit:4;stroke-dasharray:none;stroke-opacity:1" />
      </g>
    </g>
  </g>
  <g
     inkscape:groupmode="layer"
     id="layer3"
     inkscape:label="Reflet final"
     sodipodi:insensitive="true"
     style="display:inline">
    <path
       id="path2875"
       style="fill:url(#radialGradient11919);fill-opacity:1;fill-rule:evenodd;stroke:none;stroke-width:3.00000024;stroke-linecap:butt;stroke-linejoin:miter;stroke-miterlimit:4;stroke-dasharray:none;stroke-opacity:1"
       d="M 1.5,1.49974 L 1.5,518.99107 C 1.5,557.49556 32.7031,588.7456 71.15,588.7456 C 109.5968,588.7456 191.9032,588.7456 230.35,588.7456 C 268.79691,588.7455 300.00003,619.99554 300.00003,658.5 C 300.00003,619.99554 331.20317,588.7456 369.64997,588.7456 C 408.09687,588.7455 490.40327,588.7456 528.85007,588.7456 C 567.29687,588.7456 598.50007,557.49556 598.50007,518.99107 L 598.50007,1.49974 L 1.5,1.49974 z" />
  </g>
  <g
     inkscape:groupmode="layer"
     id="layer4"
     inkscape:label="Contour final"
     sodipodi:insensitive="true">
    <path
       id="path1572"
       style="fill:none;fill-opacity:1;fill-rule:nonzero;stroke:black;stroke-width:3.00000191;stroke-linecap:round;stroke-linejoin:round;stroke-miterlimit:4;stroke-dasharray:none;stroke-dashoffset:0;stroke-opacity:1"
       d="M 300.00003,658.5 C 300.00003,619.9959 331.20322,588.74628 369.65003,588.74628 C 408.09684,588.74628 490.40321,588.74628 528.85001,588.74628 C 567.29681,588.74628 598.50011,557.49666 598.50011,518.99266 L 598.50011,1.4996809 L 1.5000099,1.4997008 L 1.5,518.99266 C 1.5,557.49666 32.70321,588.74628 71.150019,588.74628 C 109.59684,588.74628 191.90322,588.74628 230.35003,588.74628 C 268.79684,588.74628 300.00003,619.9959 300.00003,658.5 z "
       sodipodi:nodetypes="cssccccssc" />
  </g>
</svg>
