<?xml version="1.0" encoding="UTF-8" standalone="no"?>
<svg
   xmlns:dc="http://purl.org/dc/elements/1.1/"
   xmlns:cc="http://creativecommons.org/ns#"
   xmlns:rdf="http://www.w3.org/1999/02/22-rdf-syntax-ns#"
   xmlns:svg="http://www.w3.org/2000/svg"
   xmlns="http://www.w3.org/2000/svg"
   xmlns:xlink="http://www.w3.org/1999/xlink"
   xmlns:sodipodi="http://sodipodi.sourceforge.net/DTD/sodipodi-0.dtd"
   xmlns:inkscape="http://www.inkscape.org/namespaces/inkscape"
   height="660.00031"
   width="600.01459"
   version="1.0"
   id="svg2"
   sodipodi:version="0.32"
   inkscape:version="0.45+0.46pre0+devel"
   sodipodi:docname="Blason_ville_fr_Bain-de-Bretagne_(Ille-et-Vilaine).svg"
   sodipodi:docbase="C:\Users\Jany\Documents\aaaOuiqui\Blasons\Blasons autres svg"
   inkscape:export-filename="/Users/olivier/Desktop/Blason Rouge/Blason_Vide_3D.png"
   inkscape:export-xdpi="144"
   inkscape:export-ydpi="144"
   inkscape:output_extension="org.inkscape.output.svg.inkscape">
  <metadata
     id="metadata49">
    <rdf:RDF>
      <cc:Work
         rdf:about="">
        <dc:format>image/svg+xml</dc:format>
        <dc:type
           rdf:resource="http://purl.org/dc/dcmitype/StillImage" />
        <dc:title>Gabarit d'un blason en pointe pour le projet Blasons de Wikipédia</dc:title>
        <dc:date>03-AUG-2006</dc:date>
        <dc:creator>
          <cc:Agent>
            <dc:title>Jérôme BLUM (wagner51)</dc:title>
          </cc:Agent>
        </dc:creator>
        <cc:license
           rdf:resource="http://web.resource.org/cc/PublicDomain" />
        <dc:language>fr</dc:language>
        <dc:subject>
          <rdf:Bag>
            <rdf:li>gabarit modèle blason projet wikipédia</rdf:li>
          </rdf:Bag>
        </dc:subject>
        <dc:rights>
          <cc:Agent>
            <dc:title></dc:title>
          </cc:Agent>
        </dc:rights>
        <dc:publisher>
          <cc:Agent>
            <dc:title></dc:title>
          </cc:Agent>
        </dc:publisher>
        <dc:identifier></dc:identifier>
        <dc:source></dc:source>
        <dc:relation></dc:relation>
        <dc:coverage></dc:coverage>
        <dc:description></dc:description>
        <dc:contributor>
          <cc:Agent>
            <dc:title></dc:title>
          </cc:Agent>
        </dc:contributor>
      </cc:Work>
      <cc:License
         rdf:about="http://web.resource.org/cc/PublicDomain">
        <cc:permits
           rdf:resource="http://web.resource.org/cc/Reproduction" />
        <cc:permits
           rdf:resource="http://web.resource.org/cc/Distribution" />
        <cc:permits
           rdf:resource="http://web.resource.org/cc/DerivativeWorks" />
      </cc:License>
    </rdf:RDF>
  </metadata>
  <sodipodi:namedview
     inkscape:window-height="544"
     inkscape:window-width="800"
     inkscape:pageshadow="2"
     inkscape:pageopacity="0.0"
     guidetolerance="10.0"
     gridtolerance="10.0"
     objecttolerance="10.0"
     borderopacity="1.0"
     bordercolor="#666666"
     pagecolor="#ffffff"
     id="base"
     showgrid="false"
     height="660px"
     inkscape:zoom="0.51818158"
     inkscape:cx="300.00729"
     inkscape:cy="330.00015"
     inkscape:window-x="-4"
     inkscape:window-y="-4"
     inkscape:current-layer="layer3" />
  <desc
     id="desc4">Flag of Canton of Valais (Wallis)</desc>
  <defs
     id="defs6">
    <inkscape:perspective
       sodipodi:type="inkscape:persp3d"
       inkscape:vp_x="-50 : 600 : 1"
       inkscape:vp_y="0 : 1000 : 0"
       inkscape:vp_z="700 : 600 : 1"
       inkscape:persp3d-origin="300 : 400 : 1"
       id="perspective26" />
    <inkscape:perspective
       sodipodi:type="inkscape:persp3d"
       inkscape:vp_x="-50 : 600 : 1"
       inkscape:vp_y="0 : 1000 : 0"
       inkscape:vp_z="700 : 600 : 1"
       inkscape:persp3d-origin="300 : 400 : 1"
       id="perspective11638" />
    <linearGradient
       id="linearGradient2893">
      <stop
         style="stop-color:white;stop-opacity:0.3137255;"
         offset="0"
         id="stop2895" />
      <stop
         id="stop2897"
         offset="0.19"
         style="stop-color:white;stop-opacity:0.25098041;" />
      <stop
         style="stop-color:#6b6b6b;stop-opacity:0.1254902;"
         offset="0.60000002"
         id="stop2901" />
      <stop
         style="stop-color:black;stop-opacity:0.1254902;"
         offset="1"
         id="stop2899" />
    </linearGradient>
    <radialGradient
       inkscape:collect="always"
       xlink:href="#linearGradient2893"
       id="radialGradient3163"
       gradientUnits="userSpaceOnUse"
       gradientTransform="matrix(1.353218,0,0,1.348928,-74.39392,-85.74693)"
       cx="221.44487"
       cy="226.33101"
       fx="221.44487"
       fy="226.33101"
       r="300" />
  </defs>
  <g
     inkscape:groupmode="layer"
     id="layer3"
     inkscape:label="Fond écu"
     style="display:inline"
     transform="translate(-3.2354398,1.2525328e-6)"
     sodipodi:insensitive="true">
    <path
       id="path2855"
       style="fill:#ffffff;fill-opacity:1;fill-rule:evenodd;stroke:none;stroke-width:1px;stroke-linecap:butt;stroke-linejoin:miter;stroke-opacity:1"
       d="M 303.23543,658.5 C 303.23543,658.5 601.73544,546.17969 601.73544,260.72817 C 601.73544,-24.723354 601.73544,2.1764765 601.73544,2.1764765 L 4.73543,2.1764765 L 4.73543,260.72817 C 4.73543,546.17969 303.23543,658.5 303.23543,658.5 z"
       sodipodi:nodetypes="cccccc" />
  </g>
  <g
     inkscape:groupmode="layer"
     id="layer4"
     inkscape:label="Meubles"
     style="display:inline"
     transform="translate(-3.2354398,1.2525328e-6)"
     sodipodi:insensitive="true">
    <g
       id="g11647">
      <g
         id="g11652">
        <path
           style="fill:#e20909;fill-opacity:1;fill-rule:evenodd;stroke:#000000;stroke-width:2.97963166;stroke-linecap:butt;stroke-linejoin:miter;stroke-miterlimit:4;stroke-dasharray:none;stroke-opacity:1;display:inline"
           d="M 154.99787,3.3277728 L 81.229793,76.586779 L 81.229793,77.51489 L 154.99787,150.80484 L 229.23301,77.050834 L 154.99787,3.3277728 z M 303.5616,3.3277728 L 229.35759,77.050834 L 303.5616,150.80484 L 377.79674,77.050834 L 303.5616,3.3277728 z M 452.06305,3.4205839 L 377.82789,77.143645 L 452.06305,150.89764 L 526.29819,77.143645 L 452.06305,3.4205839 z M 600.62677,3.4205839 L 526.42276,77.143645 L 600.62677,150.89764 L 600.62677,3.4205839 z M 155.09128,150.83578 L 81.229793,224.21852 L 81.229793,224.96101 L 155.09128,298.34378 L 229.32645,224.58977 L 155.09128,150.83578 z M 303.5616,150.92858 L 229.35759,224.68258 L 303.5616,298.43658 L 377.79674,224.68258 L 303.5616,150.92858 z M 452.15647,150.92858 L 377.92129,224.68258 L 452.15647,298.43658 L 526.39161,224.68258 L 452.15647,150.92858 z M 600.62677,151.0214 L 526.42276,224.77539 L 600.62677,298.52937 L 600.62677,151.0214 z M 155.09128,298.46751 L 94.557256,358.57827 C 98.515675,372.89077 103.25336,386.6278 108.66317,399.78644 L 108.69432,399.84832 L 155.09128,445.94458 L 229.32645,372.19057 L 155.09128,298.46751 z M 303.655,298.46751 L 229.451,372.19057 L 303.655,445.94458 L 377.89016,372.19057 L 303.655,298.46751 z M 452.15647,298.56032 L 377.92129,372.28338 L 452.15647,446.03739 L 526.39161,372.28338 L 452.15647,298.56032 z M 600.7202,298.56032 L 526.48504,372.28338 L 568.09816,415.61383 C 587.06723,376.59599 591.88154,337.57816 600.7202,298.56032 z M 155.18469,445.9755 L 140.48713,460.57781 C 160.36352,491.52614 183.61881,518.35001 207.68489,541.32359 L 229.41985,519.72951 L 155.18469,445.9755 z M 303.655,446.06832 L 229.451,519.82232 L 303.655,593.57633 L 377.89016,519.82232 L 303.655,446.06832 z M 452.24988,446.06832 L 378.01472,519.82232 L 511.96115,505.39257 L 452.24988,446.06832 z M 303.74844,593.60726 L 303.74844,593.60726 z"
           id="path12764"
           sodipodi:nodetypes="ccccccccccccccccccccccccccccccccccccccccccccccccccccccccccccccccccccccccccccc" />
        <path
           style="fill:#e20909;fill-opacity:1;fill-rule:evenodd;stroke:#000000;stroke-width:2.97963166;stroke-linecap:butt;stroke-linejoin:miter;stroke-miterlimit:4;stroke-dasharray:none;stroke-opacity:1;display:inline"
           d="M 154.99787,446.84176 L 96.514203,504.92183 L 170.16037,579.25459 L 229.23301,520.56483 L 154.99787,446.84176 z M 303.5616,446.84176 L 229.35759,520.56483 L 303.5616,594.31881 L 377.79674,520.56483 L 303.5616,446.84176 z M 452.06305,446.93457 L 377.82789,520.65763 L 435.05434,581.51316 C 462.44362,557.21756 490.71922,533.36512 511.10201,505.56628 L 452.06305,446.93457 z M 303.5616,594.44257 L 260.01647,637.72361 L 303.44803,657.44688 L 349.04619,635.55186 L 303.5616,594.44257 z"
           id="path11640"
           sodipodi:nodetypes="cccccccccccccccccccc" />
        <path
           style="fill:#e20909;fill-opacity:1;fill-rule:evenodd;stroke:#000000;stroke-width:2.97963166;stroke-linecap:butt;stroke-linejoin:miter;stroke-miterlimit:4;stroke-dasharray:none;stroke-opacity:1;display:inline"
           d="M 5.5311131,3.3277728 L 5.5311131,150.80484 L 79.766269,77.050834 L 5.5311131,3.3277728 z M 154.09485,3.3277728 L 79.890819,77.050834 L 154.09485,150.80484 L 228.32998,77.050834 L 154.09485,3.3277728 z M 302.59628,3.4205839 L 228.36113,77.143645 L 302.59628,150.89764 L 376.83144,77.143645 L 302.59628,3.4205839 z M 451.16002,3.4205839 L 376.95601,77.143645 L 451.16002,150.89764 L 525.39517,77.143645 L 451.16002,3.4205839 z M 5.6245266,150.83578 L 5.6245266,298.34378 L 79.859683,224.58977 L 5.6245266,150.83578 z M 154.09485,150.92858 L 79.890819,224.68258 L 154.09485,298.43658 L 228.32998,224.68258 L 154.09485,150.92858 z M 302.68969,150.92858 L 228.45455,224.68258 L 302.68969,298.43658 L 376.92485,224.68258 L 302.68969,150.92858 z M 451.16002,151.0214 L 376.95601,224.77539 L 451.16002,298.52937 L 525.39517,224.77539 L 451.16002,151.0214 z M 526.64071,223.66166 L 525.51974,224.77539 L 526.64071,225.88913 C 526.64071,224.068 526.64071,225.44265 526.64071,223.66166 z M 5.6245266,298.46751 C 13.584355,337.63619 20.634169,376.98687 37.375686,414.39921 L 79.859683,372.19057 L 5.6245266,298.46751 z M 154.18824,298.46751 L 79.984241,372.19057 L 154.18824,445.94458 L 228.42341,372.19057 L 154.18824,298.46751 z M 302.68969,298.56032 L 228.45455,372.28338 L 302.68969,446.03739 L 376.92485,372.28338 L 302.68969,298.56032 z M 377.01828,372.28338 L 377.01828,372.28338 z M 154.18824,446.06832 L 95.060992,504.837 C 115.86451,529.1552 140.18589,553.47341 170.07594,577.79161 L 228.42341,519.82232 L 154.18824,446.06832 z M 302.7831,446.06832 L 228.54797,519.82232 L 302.7831,593.57633 L 377.01828,519.82232 L 302.7831,446.06832 z M 451.25345,446.16114 L 451.25345,446.16114 z M 302.7831,593.66914 L 302.7831,593.66914 z"
           id="path11642"
           sodipodi:nodetypes="cccccccccccccccccccccccccccccccccccccccccccccccccccccccccccccccccccccccc" />
      </g>
    </g>
  </g>
  <g
     inkscape:groupmode="layer"
     id="layer2"
     inkscape:label="Reflet final"
     transform="translate(-3.2354398,1.2525328e-6)"
     sodipodi:insensitive="true">
    <path
       sodipodi:nodetypes="cccccc"
       d="M 303.23544,658.5 C 303.23544,658.5 601.73544,546.17969 601.73544,260.72817 C 601.73544,-24.723334 601.73544,2.1764865 601.73544,2.1764865 L 4.73543,2.1764865 L 4.73543,260.72817 C 4.73543,546.17969 303.23544,658.5 303.23544,658.5 z"
       style="opacity:1;fill:url(#radialGradient3163);fill-opacity:1;fill-rule:evenodd;stroke:none;stroke-width:1px;stroke-linecap:butt;stroke-linejoin:miter;stroke-opacity:1"
       id="path2875"
       inkscape:export-xdpi="144"
       inkscape:export-ydpi="144" />
  </g>
  <g
     inkscape:groupmode="layer"
     id="layer1"
     inkscape:label="Contour final"
     transform="translate(-3.2354398,1.2525328e-6)"
     sodipodi:insensitive="true">
    <path
       sodipodi:nodetypes="cccccc"
       d="M 303.23543,658.50028 C 303.23543,658.50028 4.73544,546.17992 4.73544,260.72828 C 4.73544,-24.723336 4.73544,2.1764957 4.73544,2.1764957 L 601.73543,2.1764957 L 601.73543,260.72828 C 601.73543,546.17992 303.23543,658.50028 303.23543,658.50028 z"
       style="opacity:1;fill:none;fill-opacity:1;fill-rule:evenodd;stroke:#000000;stroke-width:3.00000048;stroke-linecap:butt;stroke-linejoin:miter;stroke-miterlimit:4;stroke-dasharray:none;stroke-opacity:1"
       id="path1411"
       inkscape:export-xdpi="144"
       inkscape:export-ydpi="144" />
  </g>
</svg>
