<?xml version="1.0" encoding="UTF-8" standalone="no"?>
<svg
   xmlns:dc="http://purl.org/dc/elements/1.1/"
   xmlns:cc="http://web.resource.org/cc/"
   xmlns:rdf="http://www.w3.org/1999/02/22-rdf-syntax-ns#"
   xmlns:svg="http://www.w3.org/2000/svg"
   xmlns="http://www.w3.org/2000/svg"
   xmlns:xlink="http://www.w3.org/1999/xlink"
   xmlns:sodipodi="http://sodipodi.sourceforge.net/DTD/sodipodi-0.dtd"
   xmlns:inkscape="http://www.inkscape.org/namespaces/inkscape"
   height="660"
   width="600"
   version="1.0"
   id="svg2"
   sodipodi:version="0.32"
   inkscape:version="0.44.1"
   sodipodi:docname="Blason_Casson.svg"
   sodipodi:docbase="C:\$user\Perso\blason"
   inkscape:export-filename="/Users/olivier/Desktop/Blason Rouge/Blason_Vide_3D.png"
   inkscape:export-xdpi="144"
   inkscape:export-ydpi="144">
  <metadata
     id="metadata49">
    <rdf:RDF>
      <cc:Work
         rdf:about="">
        <dc:format>image/svg+xml</dc:format>
        <dc:type
           rdf:resource="http://purl.org/dc/dcmitype/StillImage" />
        <dc:title>Blason de Casson</dc:title>
        <dc:date>2006-12-10</dc:date>
        <dc:creator>
          <cc:Agent>
            <dc:title>Franck Hivonnait (Fhiv)</dc:title>
          </cc:Agent>
        </dc:creator>
        <cc:license
           rdf:resource="http://web.resource.org/cc/PublicDomain" />
        <dc:language>fr-FR</dc:language>
        <dc:subject>
          <rdf:Bag>
            <rdf:li>Blason de la commune de Casson en Loire-Atlantique, France</rdf:li>
          </rdf:Bag>
        </dc:subject>
      </cc:Work>
      <cc:License
         rdf:about="http://web.resource.org/cc/PublicDomain">
        <cc:permits
           rdf:resource="http://web.resource.org/cc/Reproduction" />
        <cc:permits
           rdf:resource="http://web.resource.org/cc/Distribution" />
        <cc:permits
           rdf:resource="http://web.resource.org/cc/DerivativeWorks" />
      </cc:License>
    </rdf:RDF>
  </metadata>
  <sodipodi:namedview
     inkscape:window-height="712"
     inkscape:window-width="1024"
     inkscape:pageshadow="2"
     inkscape:pageopacity="0.0"
     guidetolerance="10.0"
     gridtolerance="10.0"
     objecttolerance="10.0"
     borderopacity="1.0"
     bordercolor="#666666"
     pagecolor="#ffffff"
     id="base"
     showgrid="false"
     height="660px"
     inkscape:zoom="0.55390031"
     inkscape:cx="299.99015"
     inkscape:cy="417.95813"
     inkscape:window-x="276"
     inkscape:window-y="80"
     inkscape:current-layer="layer4"
     showguides="true"
     inkscape:guide-bbox="true" />
  <desc
     id="desc4">Blason de casson</desc>
  <defs
     id="defs6">
    <linearGradient
       id="linearGradient2893">
      <stop
         style="stop-color:white;stop-opacity:0.3137255;"
         offset="0"
         id="stop2895" />
      <stop
         id="stop2897"
         offset="0.19"
         style="stop-color:white;stop-opacity:0.25098041;" />
      <stop
         style="stop-color:#6b6b6b;stop-opacity:0.1254902;"
         offset="0.60000002"
         id="stop2901" />
      <stop
         style="stop-color:black;stop-opacity:0.1254902;"
         offset="1"
         id="stop2899" />
    </linearGradient>
    <radialGradient
       inkscape:collect="always"
       xlink:href="#linearGradient2893"
       id="radialGradient3163"
       gradientUnits="userSpaceOnUse"
       gradientTransform="matrix(1.353218,0,0,1.348928,-77.62935,-85.74693)"
       cx="221.44487"
       cy="226.33101"
       fx="221.44487"
       fy="226.33101"
       r="300" />
  </defs>
  <g
     inkscape:groupmode="layer"
     id="layer3"
     inkscape:label="Fond écu"
     style="display:inline"
     sodipodi:insensitive="true">
    <path
       id="path2855"
       style="fill:white;fill-opacity:1;fill-rule:evenodd;stroke:none;stroke-width:1px;stroke-linecap:butt;stroke-linejoin:miter;stroke-opacity:1"
       d="M 300,660.5 C 300,660.5 598.50001,548.17969 598.50001,262.72817 C 598.50001,-22.723354 598.50001,4.176476 598.50001,4.176476 L 1.5,4.176476 L 1.5,262.72817 C 1.5,548.17969 300,660.5 300,660.5 z "
       sodipodi:nodetypes="cccccc" />
  </g>
  <g
     inkscape:groupmode="layer"
     id="layer4"
     inkscape:label="Meubles">
    <g
       transform="translate(96.44678,-414.7409)"
       id="g15739"
       inkscape:label="Calque 1">
      <g
         transform="translate(104.6136,2.871746)"
         id="g15336">
        <path
           style="fill:#e20909;fill-opacity:1;fill-rule:evenodd;stroke:black;stroke-width:3;stroke-linecap:butt;stroke-linejoin:miter;stroke-miterlimit:4;stroke-dasharray:none;stroke-opacity:1"
           d="M 219.48344,642.52301 L 218.25269,665.49699 C 208.01052,663.88876 197.42207,668.06078 201.02222,681.49671 C 207.01443,673.05496 211.23469,673.73482 216.20145,672.47123 C 214.80695,675.87648 213.78913,679.47006 214.56044,683.95821 C 217.16549,679.59581 219.90187,675.49608 223.58594,673.29172 C 228.52117,675.52974 235.38066,674.88136 236.30367,683.13771 C 239.04532,672.64912 232.54349,670.37411 225.63718,666.31749 L 224.40643,643.34351 L 219.48344,642.52301 z "
           id="path13498"
           sodipodi:nodetypes="cccccccccc" />
        <path
           style="fill:#e20909;fill-opacity:1;fill-rule:evenodd;stroke:black;stroke-width:3;stroke-linecap:butt;stroke-linejoin:miter;stroke-miterlimit:4;stroke-dasharray:none;stroke-opacity:1"
           d="M 239.21332,643.95889 L 237.98257,666.93287 C 227.7404,665.32464 217.15195,669.49666 220.7521,682.93259 C 226.74431,674.49084 230.96457,675.1707 235.93133,673.90711 C 234.53683,677.31236 233.51901,680.90594 234.29032,685.39409 C 236.89537,681.03169 239.63175,676.93196 243.31582,674.7276 C 248.25105,676.96562 255.11054,676.31724 256.03355,684.57359 C 258.7752,674.085 252.27337,671.80999 245.36706,667.75337 L 244.13631,644.77939 L 239.21332,643.95889 z "
           id="path14385"
           sodipodi:nodetypes="cccccccccc" />
        <path
           style="fill:black;fill-opacity:1;fill-rule:evenodd;stroke:#313131;stroke-width:3;stroke-linecap:butt;stroke-linejoin:miter;stroke-miterlimit:4;stroke-dasharray:none;stroke-opacity:1"
           d="M 181.33024,536.26842 C 176.8557,553.12548 179.47517,570.08414 185.43274,586.31885 C 195.33195,606.16556 203.83901,617.19538 210.45795,616.26706 C 212.2322,625.20255 210.15929,635.42042 208.81695,645.39477 C 217.28841,646.01366 223.09664,645.09241 227.27817,647.85626 L 227.68843,623.65154 L 227.27817,625.29254 C 228.09527,637.85992 229.05202,644.83218 227.68842,648.67676 C 236.17868,646.85193 246.04476,649.78007 253.53414,651.95875 C 248.77365,640.91635 249.20278,637.34045 247.3804,630.21553 C 251.07264,633.05346 255.99564,638.17795 259.68788,638.01028 C 261.93546,655.33968 262.476,686.95723 285.12334,679.85571 C 299.44531,676.01815 298.95332,666.88557 295.37958,653.1895 C 304.08768,644.76972 295.07629,609.08919 290.45659,580.16511 C 281.2426,544.30789 267.76553,526.35555 253.12389,513.29445 L 181.33024,536.26842 z "
           id="path9049"
           sodipodi:nodetypes="cccccccccccccccc" />
        <path
           style="fill:none;fill-opacity:1;fill-rule:evenodd;stroke:#313131;stroke-width:3;stroke-linecap:butt;stroke-linejoin:miter;stroke-miterlimit:4;stroke-dasharray:none;stroke-opacity:1"
           d="M 239.58566,540.37092 C 246.7099,606.90181 276.22142,648.05893 284.30285,645.39476"
           id="path10839"
           sodipodi:nodetypes="cc" />
        <path
           style="fill:none;fill-opacity:1;fill-rule:evenodd;stroke:#313131;stroke-width:3;stroke-linecap:butt;stroke-linejoin:miter;stroke-miterlimit:4;stroke-dasharray:none;stroke-opacity:1"
           d="M 188.09936,543.59191 C 185.91799,566.19087 194.09382,568.86051 196.7659,574.66817 C 199.22563,580.01428 203.75062,610.56389 207.79133,609.2318"
           id="path13496"
           sodipodi:nodetypes="csc" />
        <g
           id="g15294"
           transform="translate(-40.20444,-15.17923)">
          <path
             sodipodi:nodetypes="cccccccc"
             id="path1950"
             d="M 292.04145,528.72699 C 283.66053,570.3002 232.27883,566.21761 220.40998,549.93105 C 216.75525,545.87857 214.9506,542.39995 212.93145,534.19565 C 207.54067,527.42005 207.77405,518.6451 210.26565,511.8695 C 204.53556,504.82847 209.45733,490.20481 227.5934,494.54174 C 228.53037,484.74927 276.61508,486.7319 276.91086,495.54142 C 293.07645,491.05067 296.60812,501.59882 290.23991,517.53434 C 290.13523,521.94441 291.59845,525.76388 292.04145,528.72699 z "
             style="fill:black;fill-opacity:1;fill-rule:evenodd;stroke:#313131;stroke-width:3;stroke-linecap:butt;stroke-linejoin:miter;stroke-miterlimit:4;stroke-dasharray:none;stroke-opacity:1" />
          <path
             sodipodi:nodetypes="ccccc"
             id="path2846"
             d="M 250.91987,527.53112 C 248.78271,530.1702 245.23311,535.08909 244.86991,539.50213 L 254.40618,555.11349 C 255.29478,548.89325 255.1748,541.20234 257.8406,539.42511 C 257.23042,535.25954 254.08946,530.84356 250.91987,527.53112 z "
             style="fill:#e20909;fill-opacity:1;fill-rule:evenodd;stroke:#313131;stroke-width:2.67799997;stroke-linecap:butt;stroke-linejoin:miter;stroke-miterlimit:4;stroke-dasharray:none;stroke-opacity:1" />
          <g
             id="g15284">
            <path
               sodipodi:type="arc"
               style="fill:white;fill-opacity:1;fill-rule:evenodd;stroke:#313131;stroke-width:2.2842443;stroke-linecap:butt;stroke-linejoin:miter;stroke-miterlimit:4;stroke-dasharray:none;stroke-opacity:1"
               id="path1954"
               sodipodi:cx="229.59276"
               sodipodi:cy="518.20081"
               sodipodi:rx="14.328721"
               sodipodi:ry="13.662269"
               d="M 243.92148 518.20081 A 14.328721 13.662269 0 1 1  215.26404,518.20081 A 14.328721 13.662269 0 1 1  243.92148 518.20081 z"
               transform="matrix(1.139427,0,0,1.206284,-31.39595,-107.4598)" />
            <path
               sodipodi:type="arc"
               style="fill:#e20909;fill-opacity:1;fill-rule:evenodd;stroke:black;stroke-width:6.81437397;stroke-linecap:butt;stroke-linejoin:miter;stroke-miterlimit:4;stroke-dasharray:none;stroke-opacity:1"
               id="path5505"
               sodipodi:cx="229.59276"
               sodipodi:cy="518.20081"
               sodipodi:rx="14.328721"
               sodipodi:ry="13.662269"
               d="M 243.92148 518.20081 A 14.328721 13.662269 0 1 1  215.26404,518.20081 A 14.328721 13.662269 0 1 1  243.92148 518.20081 z"
               transform="matrix(0.285249,0,0,0.301984,164.7171,361.1492)" />
          </g>
          <g
             transform="translate(40,0)"
             id="g15288">
            <path
               transform="matrix(1.139427,0,0,1.206284,-31.39595,-107.4598)"
               d="M 243.92148 518.20081 A 14.328721 13.662269 0 1 1  215.26404,518.20081 A 14.328721 13.662269 0 1 1  243.92148 518.20081 z"
               sodipodi:ry="13.662269"
               sodipodi:rx="14.328721"
               sodipodi:cy="518.20081"
               sodipodi:cx="229.59276"
               id="path15290"
               style="fill:white;fill-opacity:1;fill-rule:evenodd;stroke:#313131;stroke-width:2.2842443;stroke-linecap:butt;stroke-linejoin:miter;stroke-miterlimit:4;stroke-dasharray:none;stroke-opacity:1"
               sodipodi:type="arc" />
            <path
               transform="matrix(0.285249,0,0,0.301984,164.7171,361.1492)"
               d="M 243.92148 518.20081 A 14.328721 13.662269 0 1 1  215.26404,518.20081 A 14.328721 13.662269 0 1 1  243.92148 518.20081 z"
               sodipodi:ry="13.662269"
               sodipodi:rx="14.328721"
               sodipodi:cy="518.20081"
               sodipodi:cx="229.59276"
               id="path15292"
               style="fill:#e20909;fill-opacity:1;fill-rule:evenodd;stroke:black;stroke-width:6.81437397;stroke-linecap:butt;stroke-linejoin:miter;stroke-miterlimit:4;stroke-dasharray:none;stroke-opacity:1"
               sodipodi:type="arc" />
          </g>
        </g>
      </g>
    </g>
    <g
       inkscape:label="Calque 1"
       id="g15756"
       transform="translate(-172.5009,-414.7409)">
      <g
         id="g15758"
         transform="translate(104.6136,2.871746)">
        <path
           sodipodi:nodetypes="cccccccccc"
           id="path15760"
           d="M 219.48344,642.52301 L 218.25269,665.49699 C 208.01052,663.88876 197.42207,668.06078 201.02222,681.49671 C 207.01443,673.05496 211.23469,673.73482 216.20145,672.47123 C 214.80695,675.87648 213.78913,679.47006 214.56044,683.95821 C 217.16549,679.59581 219.90187,675.49608 223.58594,673.29172 C 228.52117,675.52974 235.38066,674.88136 236.30367,683.13771 C 239.04532,672.64912 232.54349,670.37411 225.63718,666.31749 L 224.40643,643.34351 L 219.48344,642.52301 z "
           style="fill:#e20909;fill-opacity:1;fill-rule:evenodd;stroke:black;stroke-width:3;stroke-linecap:butt;stroke-linejoin:miter;stroke-miterlimit:4;stroke-dasharray:none;stroke-opacity:1" />
        <path
           sodipodi:nodetypes="cccccccccc"
           id="path15762"
           d="M 239.21332,643.95889 L 237.98257,666.93287 C 227.7404,665.32464 217.15195,669.49666 220.7521,682.93259 C 226.74431,674.49084 230.96457,675.1707 235.93133,673.90711 C 234.53683,677.31236 233.51901,680.90594 234.29032,685.39409 C 236.89537,681.03169 239.63175,676.93196 243.31582,674.7276 C 248.25105,676.96562 255.11054,676.31724 256.03355,684.57359 C 258.7752,674.085 252.27337,671.80999 245.36706,667.75337 L 244.13631,644.77939 L 239.21332,643.95889 z "
           style="fill:#e20909;fill-opacity:1;fill-rule:evenodd;stroke:black;stroke-width:3;stroke-linecap:butt;stroke-linejoin:miter;stroke-miterlimit:4;stroke-dasharray:none;stroke-opacity:1" />
        <path
           sodipodi:nodetypes="cccccccccccccccc"
           id="path15764"
           d="M 181.33024,536.26842 C 176.8557,553.12548 179.47517,570.08414 185.43274,586.31885 C 195.33195,606.16556 203.83901,617.19538 210.45795,616.26706 C 212.2322,625.20255 210.15929,635.42042 208.81695,645.39477 C 217.28841,646.01366 223.09664,645.09241 227.27817,647.85626 L 227.68843,623.65154 L 227.27817,625.29254 C 228.09527,637.85992 229.05202,644.83218 227.68842,648.67676 C 236.17868,646.85193 246.04476,649.78007 253.53414,651.95875 C 248.77365,640.91635 249.20278,637.34045 247.3804,630.21553 C 251.07264,633.05346 255.99564,638.17795 259.68788,638.01028 C 261.93546,655.33968 262.476,686.95723 285.12334,679.85571 C 299.44531,676.01815 298.95332,666.88557 295.37958,653.1895 C 304.08768,644.76972 295.07629,609.08919 290.45659,580.16511 C 281.2426,544.30789 267.76553,526.35555 253.12389,513.29445 L 181.33024,536.26842 z "
           style="fill:black;fill-opacity:1;fill-rule:evenodd;stroke:#313131;stroke-width:3;stroke-linecap:butt;stroke-linejoin:miter;stroke-miterlimit:4;stroke-dasharray:none;stroke-opacity:1" />
        <path
           sodipodi:nodetypes="cc"
           id="path15766"
           d="M 239.58566,540.37092 C 246.7099,606.90181 276.22142,648.05893 284.30285,645.39476"
           style="fill:none;fill-opacity:1;fill-rule:evenodd;stroke:#313131;stroke-width:3;stroke-linecap:butt;stroke-linejoin:miter;stroke-miterlimit:4;stroke-dasharray:none;stroke-opacity:1" />
        <path
           sodipodi:nodetypes="csc"
           id="path15768"
           d="M 188.09936,543.59191 C 185.91799,566.19087 194.09382,568.86051 196.7659,574.66817 C 199.22563,580.01428 203.75062,610.56389 207.79133,609.2318"
           style="fill:none;fill-opacity:1;fill-rule:evenodd;stroke:#313131;stroke-width:3;stroke-linecap:butt;stroke-linejoin:miter;stroke-miterlimit:4;stroke-dasharray:none;stroke-opacity:1" />
        <g
           transform="translate(-40.20444,-15.17923)"
           id="g15770">
          <path
             style="fill:black;fill-opacity:1;fill-rule:evenodd;stroke:#313131;stroke-width:3;stroke-linecap:butt;stroke-linejoin:miter;stroke-miterlimit:4;stroke-dasharray:none;stroke-opacity:1"
             d="M 292.04145,528.72699 C 283.66053,570.3002 232.27883,566.21761 220.40998,549.93105 C 216.75525,545.87857 214.9506,542.39995 212.93145,534.19565 C 207.54067,527.42005 207.77405,518.6451 210.26565,511.8695 C 204.53556,504.82847 209.45733,490.20481 227.5934,494.54174 C 228.53037,484.74927 276.61508,486.7319 276.91086,495.54142 C 293.07645,491.05067 296.60812,501.59882 290.23991,517.53434 C 290.13523,521.94441 291.59845,525.76388 292.04145,528.72699 z "
             id="path15772"
             sodipodi:nodetypes="cccccccc" />
          <path
             style="fill:#e20909;fill-opacity:1;fill-rule:evenodd;stroke:#313131;stroke-width:2.67799997;stroke-linecap:butt;stroke-linejoin:miter;stroke-miterlimit:4;stroke-dasharray:none;stroke-opacity:1"
             d="M 250.91987,527.53112 C 248.78271,530.1702 245.23311,535.08909 244.86991,539.50213 L 254.40618,555.11349 C 255.29478,548.89325 255.1748,541.20234 257.8406,539.42511 C 257.23042,535.25954 254.08946,530.84356 250.91987,527.53112 z "
             id="path15774"
             sodipodi:nodetypes="ccccc" />
          <g
             id="g15776">
            <path
               transform="matrix(1.139427,0,0,1.206284,-31.39595,-107.4598)"
               d="M 243.92148 518.20081 A 14.328721 13.662269 0 1 1  215.26404,518.20081 A 14.328721 13.662269 0 1 1  243.92148 518.20081 z"
               sodipodi:ry="13.662269"
               sodipodi:rx="14.328721"
               sodipodi:cy="518.20081"
               sodipodi:cx="229.59276"
               id="path15778"
               style="fill:white;fill-opacity:1;fill-rule:evenodd;stroke:#313131;stroke-width:2.2842443;stroke-linecap:butt;stroke-linejoin:miter;stroke-miterlimit:4;stroke-dasharray:none;stroke-opacity:1"
               sodipodi:type="arc" />
            <path
               transform="matrix(0.285249,0,0,0.301984,164.7171,361.1492)"
               d="M 243.92148 518.20081 A 14.328721 13.662269 0 1 1  215.26404,518.20081 A 14.328721 13.662269 0 1 1  243.92148 518.20081 z"
               sodipodi:ry="13.662269"
               sodipodi:rx="14.328721"
               sodipodi:cy="518.20081"
               sodipodi:cx="229.59276"
               id="path15780"
               style="fill:#e20909;fill-opacity:1;fill-rule:evenodd;stroke:black;stroke-width:6.81437397;stroke-linecap:butt;stroke-linejoin:miter;stroke-miterlimit:4;stroke-dasharray:none;stroke-opacity:1"
               sodipodi:type="arc" />
          </g>
          <g
             id="g15782"
             transform="translate(40,0)">
            <path
               sodipodi:type="arc"
               style="fill:white;fill-opacity:1;fill-rule:evenodd;stroke:#313131;stroke-width:2.2842443;stroke-linecap:butt;stroke-linejoin:miter;stroke-miterlimit:4;stroke-dasharray:none;stroke-opacity:1"
               id="path15784"
               sodipodi:cx="229.59276"
               sodipodi:cy="518.20081"
               sodipodi:rx="14.328721"
               sodipodi:ry="13.662269"
               d="M 243.92148 518.20081 A 14.328721 13.662269 0 1 1  215.26404,518.20081 A 14.328721 13.662269 0 1 1  243.92148 518.20081 z"
               transform="matrix(1.139427,0,0,1.206284,-31.39595,-107.4598)" />
            <path
               sodipodi:type="arc"
               style="fill:#e20909;fill-opacity:1;fill-rule:evenodd;stroke:black;stroke-width:6.81437397;stroke-linecap:butt;stroke-linejoin:miter;stroke-miterlimit:4;stroke-dasharray:none;stroke-opacity:1"
               id="path15786"
               sodipodi:cx="229.59276"
               sodipodi:cy="518.20081"
               sodipodi:rx="14.328721"
               sodipodi:ry="13.662269"
               d="M 243.92148 518.20081 A 14.328721 13.662269 0 1 1  215.26404,518.20081 A 14.328721 13.662269 0 1 1  243.92148 518.20081 z"
               transform="matrix(0.285249,0,0,0.301984,164.7171,361.1492)" />
          </g>
        </g>
      </g>
    </g>
    <g
       transform="translate(-38.02701,-124.9777)"
       id="g15788"
       inkscape:label="Calque 1">
      <g
         transform="translate(104.6136,2.871746)"
         id="g15790">
        <path
           style="fill:#e20909;fill-opacity:1;fill-rule:evenodd;stroke:black;stroke-width:3;stroke-linecap:butt;stroke-linejoin:miter;stroke-miterlimit:4;stroke-dasharray:none;stroke-opacity:1"
           d="M 219.48344,642.52301 L 218.25269,665.49699 C 208.01052,663.88876 197.42207,668.06078 201.02222,681.49671 C 207.01443,673.05496 211.23469,673.73482 216.20145,672.47123 C 214.80695,675.87648 213.78913,679.47006 214.56044,683.95821 C 217.16549,679.59581 219.90187,675.49608 223.58594,673.29172 C 228.52117,675.52974 235.38066,674.88136 236.30367,683.13771 C 239.04532,672.64912 232.54349,670.37411 225.63718,666.31749 L 224.40643,643.34351 L 219.48344,642.52301 z "
           id="path15792"
           sodipodi:nodetypes="cccccccccc" />
        <path
           style="fill:#e20909;fill-opacity:1;fill-rule:evenodd;stroke:black;stroke-width:3;stroke-linecap:butt;stroke-linejoin:miter;stroke-miterlimit:4;stroke-dasharray:none;stroke-opacity:1"
           d="M 239.21332,643.95889 L 237.98257,666.93287 C 227.7404,665.32464 217.15195,669.49666 220.7521,682.93259 C 226.74431,674.49084 230.96457,675.1707 235.93133,673.90711 C 234.53683,677.31236 233.51901,680.90594 234.29032,685.39409 C 236.89537,681.03169 239.63175,676.93196 243.31582,674.7276 C 248.25105,676.96562 255.11054,676.31724 256.03355,684.57359 C 258.7752,674.085 252.27337,671.80999 245.36706,667.75337 L 244.13631,644.77939 L 239.21332,643.95889 z "
           id="path15794"
           sodipodi:nodetypes="cccccccccc" />
        <path
           style="fill:black;fill-opacity:1;fill-rule:evenodd;stroke:#313131;stroke-width:3;stroke-linecap:butt;stroke-linejoin:miter;stroke-miterlimit:4;stroke-dasharray:none;stroke-opacity:1"
           d="M 181.33024,536.26842 C 176.8557,553.12548 179.47517,570.08414 185.43274,586.31885 C 195.33195,606.16556 203.83901,617.19538 210.45795,616.26706 C 212.2322,625.20255 210.15929,635.42042 208.81695,645.39477 C 217.28841,646.01366 223.09664,645.09241 227.27817,647.85626 L 227.68843,623.65154 L 227.27817,625.29254 C 228.09527,637.85992 229.05202,644.83218 227.68842,648.67676 C 236.17868,646.85193 246.04476,649.78007 253.53414,651.95875 C 248.77365,640.91635 249.20278,637.34045 247.3804,630.21553 C 251.07264,633.05346 255.99564,638.17795 259.68788,638.01028 C 261.93546,655.33968 262.476,686.95723 285.12334,679.85571 C 299.44531,676.01815 298.95332,666.88557 295.37958,653.1895 C 304.08768,644.76972 295.07629,609.08919 290.45659,580.16511 C 281.2426,544.30789 267.76553,526.35555 253.12389,513.29445 L 181.33024,536.26842 z "
           id="path15796"
           sodipodi:nodetypes="cccccccccccccccc" />
        <path
           style="fill:none;fill-opacity:1;fill-rule:evenodd;stroke:#313131;stroke-width:3;stroke-linecap:butt;stroke-linejoin:miter;stroke-miterlimit:4;stroke-dasharray:none;stroke-opacity:1"
           d="M 239.58566,540.37092 C 246.7099,606.90181 276.22142,648.05893 284.30285,645.39476"
           id="path15798"
           sodipodi:nodetypes="cc" />
        <path
           style="fill:none;fill-opacity:1;fill-rule:evenodd;stroke:#313131;stroke-width:3;stroke-linecap:butt;stroke-linejoin:miter;stroke-miterlimit:4;stroke-dasharray:none;stroke-opacity:1"
           d="M 188.09936,543.59191 C 185.91799,566.19087 194.09382,568.86051 196.7659,574.66817 C 199.22563,580.01428 203.75062,610.56389 207.79133,609.2318"
           id="path15800"
           sodipodi:nodetypes="csc" />
        <g
           id="g15802"
           transform="translate(-40.20444,-15.17923)">
          <path
             sodipodi:nodetypes="cccccccc"
             id="path15804"
             d="M 292.04145,528.72699 C 283.66053,570.3002 232.27883,566.21761 220.40998,549.93105 C 216.75525,545.87857 214.9506,542.39995 212.93145,534.19565 C 207.54067,527.42005 207.77405,518.6451 210.26565,511.8695 C 204.53556,504.82847 209.45733,490.20481 227.5934,494.54174 C 228.53037,484.74927 276.61508,486.7319 276.91086,495.54142 C 293.07645,491.05067 296.60812,501.59882 290.23991,517.53434 C 290.13523,521.94441 291.59845,525.76388 292.04145,528.72699 z "
             style="fill:black;fill-opacity:1;fill-rule:evenodd;stroke:#313131;stroke-width:3;stroke-linecap:butt;stroke-linejoin:miter;stroke-miterlimit:4;stroke-dasharray:none;stroke-opacity:1" />
          <path
             sodipodi:nodetypes="ccccc"
             id="path15806"
             d="M 250.91987,527.53112 C 248.78271,530.1702 245.23311,535.08909 244.86991,539.50213 L 254.40618,555.11349 C 255.29478,548.89325 255.1748,541.20234 257.8406,539.42511 C 257.23042,535.25954 254.08946,530.84356 250.91987,527.53112 z "
             style="fill:#e20909;fill-opacity:1;fill-rule:evenodd;stroke:#313131;stroke-width:2.67799997;stroke-linecap:butt;stroke-linejoin:miter;stroke-miterlimit:4;stroke-dasharray:none;stroke-opacity:1" />
          <g
             id="g15808">
            <path
               sodipodi:type="arc"
               style="fill:white;fill-opacity:1;fill-rule:evenodd;stroke:#313131;stroke-width:2.2842443;stroke-linecap:butt;stroke-linejoin:miter;stroke-miterlimit:4;stroke-dasharray:none;stroke-opacity:1"
               id="path15810"
               sodipodi:cx="229.59276"
               sodipodi:cy="518.20081"
               sodipodi:rx="14.328721"
               sodipodi:ry="13.662269"
               d="M 243.92148 518.20081 A 14.328721 13.662269 0 1 1  215.26404,518.20081 A 14.328721 13.662269 0 1 1  243.92148 518.20081 z"
               transform="matrix(1.139427,0,0,1.206284,-31.39595,-107.4598)" />
            <path
               sodipodi:type="arc"
               style="fill:#e20909;fill-opacity:1;fill-rule:evenodd;stroke:black;stroke-width:6.81437397;stroke-linecap:butt;stroke-linejoin:miter;stroke-miterlimit:4;stroke-dasharray:none;stroke-opacity:1"
               id="path15812"
               sodipodi:cx="229.59276"
               sodipodi:cy="518.20081"
               sodipodi:rx="14.328721"
               sodipodi:ry="13.662269"
               d="M 243.92148 518.20081 A 14.328721 13.662269 0 1 1  215.26404,518.20081 A 14.328721 13.662269 0 1 1  243.92148 518.20081 z"
               transform="matrix(0.285249,0,0,0.301984,164.7171,361.1492)" />
          </g>
          <g
             transform="translate(40,0)"
             id="g15814">
            <path
               transform="matrix(1.139427,0,0,1.206284,-31.39595,-107.4598)"
               d="M 243.92148 518.20081 A 14.328721 13.662269 0 1 1  215.26404,518.20081 A 14.328721 13.662269 0 1 1  243.92148 518.20081 z"
               sodipodi:ry="13.662269"
               sodipodi:rx="14.328721"
               sodipodi:cy="518.20081"
               sodipodi:cx="229.59276"
               id="path15816"
               style="fill:white;fill-opacity:1;fill-rule:evenodd;stroke:#313131;stroke-width:2.2842443;stroke-linecap:butt;stroke-linejoin:miter;stroke-miterlimit:4;stroke-dasharray:none;stroke-opacity:1"
               sodipodi:type="arc" />
            <path
               transform="matrix(0.285249,0,0,0.301984,164.7171,361.1492)"
               d="M 243.92148 518.20081 A 14.328721 13.662269 0 1 1  215.26404,518.20081 A 14.328721 13.662269 0 1 1  243.92148 518.20081 z"
               sodipodi:ry="13.662269"
               sodipodi:rx="14.328721"
               sodipodi:cy="518.20081"
               sodipodi:cx="229.59276"
               id="path15818"
               style="fill:#e20909;fill-opacity:1;fill-rule:evenodd;stroke:black;stroke-width:6.81437397;stroke-linecap:butt;stroke-linejoin:miter;stroke-miterlimit:4;stroke-dasharray:none;stroke-opacity:1"
               sodipodi:type="arc" />
          </g>
        </g>
      </g>
    </g>
  </g>
  <g
     inkscape:groupmode="layer"
     id="layer2"
     inkscape:label="Reflet final"
     sodipodi:insensitive="true">
    <path
       sodipodi:nodetypes="cccccc"
       d="M 300.00001,658.5 C 300.00001,658.5 598.50001,546.17969 598.50001,260.72817 C 598.50001,-24.723334 598.50001,2.1764865 598.50001,2.1764865 L 1.5,2.1764865 L 1.5,260.72817 C 1.5,546.17969 300.00001,658.5 300.00001,658.5 z "
       style="opacity:1;fill:url(#radialGradient3163);fill-opacity:1;fill-rule:evenodd;stroke:none;stroke-width:1px;stroke-linecap:butt;stroke-linejoin:miter;stroke-opacity:1"
       id="path2875"
       inkscape:export-xdpi="144"
       inkscape:export-ydpi="144" />
  </g>
  <g
     inkscape:groupmode="layer"
     id="layer1"
     inkscape:label="Contour final"
     sodipodi:insensitive="true">
    <path
       sodipodi:nodetypes="cccccc"
       d="M 299.99999,658.50028 C 299.99999,658.50028 1.5,546.17992 1.5,260.72828 C 1.5,-24.723336 1.5,2.1764957 1.5,2.1764957 L 598.49999,2.1764957 L 598.49999,260.72828 C 598.49999,546.17992 299.99999,658.50028 299.99999,658.50028 z "
       style="opacity:1;fill:none;fill-opacity:1;fill-rule:evenodd;stroke:black;stroke-width:3.00000048;stroke-linecap:butt;stroke-linejoin:miter;stroke-miterlimit:4;stroke-dasharray:none;stroke-opacity:1"
       id="path1411"
       inkscape:export-xdpi="144"
       inkscape:export-ydpi="144" />
  </g>
</svg>
