<?xml version="1.0" encoding="UTF-8" standalone="no"?>
<svg
   xmlns:dc="http://purl.org/dc/elements/1.1/"
   xmlns:cc="http://creativecommons.org/ns#"
   xmlns:rdf="http://www.w3.org/1999/02/22-rdf-syntax-ns#"
   xmlns:svg="http://www.w3.org/2000/svg"
   xmlns="http://www.w3.org/2000/svg"
   xmlns:xlink="http://www.w3.org/1999/xlink"
   xmlns:sodipodi="http://sodipodi.sourceforge.net/DTD/sodipodi-0.dtd"
   xmlns:inkscape="http://www.inkscape.org/namespaces/inkscape"
   height="660"
   width="600"
   version="1.0"
   id="svg2"
   sodipodi:version="0.32"
   inkscape:version="0.46"
   sodipodi:docname="Blason_ville_fr_Galargues_A(34).svg"
   inkscape:export-filename="/Users/olivier/Desktop/Blason Rouge/Blason_Vide_3D.png"
   inkscape:export-xdpi="144"
   inkscape:export-ydpi="144"
   inkscape:output_extension="org.inkscape.output.svg.inkscape">
  <metadata
     id="metadata49">
    <rdf:RDF>
      <cc:Work
         rdf:about="">
        <dc:format>image/svg+xml</dc:format>
        <dc:type
           rdf:resource="http://purl.org/dc/dcmitype/StillImage" />
        <dc:title />
        <dc:date>03-AUG-2006</dc:date>
        <dc:creator>
          <cc:Agent>
            <dc:title>Jérôme BLUM (wagner51)</dc:title>
          </cc:Agent>
        </dc:creator>
        <cc:license
           rdf:resource="http://web.resource.org/cc/PublicDomain" />
        <dc:language>fr</dc:language>
        <dc:subject>
          <rdf:Bag>
            <rdf:li>gabarit modèle blason projet wikipédia</rdf:li>
          </rdf:Bag>
        </dc:subject>
      </cc:Work>
      <cc:License
         rdf:about="http://web.resource.org/cc/PublicDomain">
        <cc:permits
           rdf:resource="http://web.resource.org/cc/Reproduction" />
        <cc:permits
           rdf:resource="http://web.resource.org/cc/Distribution" />
        <cc:permits
           rdf:resource="http://web.resource.org/cc/DerivativeWorks" />
      </cc:License>
    </rdf:RDF>
  </metadata>
  <sodipodi:namedview
     inkscape:window-height="975"
     inkscape:window-width="1280"
     inkscape:pageshadow="2"
     inkscape:pageopacity="0.0"
     guidetolerance="10.0"
     gridtolerance="10.0"
     objecttolerance="10.0"
     borderopacity="1.0"
     bordercolor="#666666"
     pagecolor="#ffffff"
     id="base"
     showgrid="false"
     height="660px"
     inkscape:zoom="0.77073014"
     inkscape:cx="326.69553"
     inkscape:cy="344.28304"
     inkscape:window-x="-4"
     inkscape:window-y="-4"
     inkscape:current-layer="layer4"
     inkscape:object-nodes="true"
     inkscape:window-maximized="1" />
  <desc
     id="desc4">Flag of Canton of Valais (Wallis)</desc>
  <defs
     id="defs6">
    <linearGradient
       id="linearGradient2893">
      <stop
         style="stop-color:white;stop-opacity:0.3137255;"
         offset="0"
         id="stop2895" />
      <stop
         id="stop2897"
         offset="0.19"
         style="stop-color:white;stop-opacity:0.25098041;" />
      <stop
         style="stop-color:#6b6b6b;stop-opacity:0.1254902;"
         offset="0.60000002"
         id="stop2901" />
      <stop
         style="stop-color:black;stop-opacity:0.1254902;"
         offset="1"
         id="stop2899" />
    </linearGradient>
    <radialGradient
       inkscape:collect="always"
       xlink:href="#linearGradient2893"
       id="radialGradient3163"
       gradientUnits="userSpaceOnUse"
       gradientTransform="matrix(1.353218,0,0,1.348928,-77.62935,-85.74693)"
       cx="221.44487"
       cy="226.33101"
       fx="221.44487"
       fy="226.33101"
       r="300" />
  </defs>
  <g
     inkscape:groupmode="layer"
     id="layer3"
     inkscape:label="Fond écu"
     style="display:inline">
    <path
       id="path2855"
       style="fill:#2b5df2;fill-opacity:1;fill-rule:evenodd;stroke:none;stroke-width:1px;stroke-linecap:butt;stroke-linejoin:miter;stroke-opacity:1"
       d="M 300,658.5 C 300,658.5 598.50001,546.17969 598.50001,260.72817 C 598.50001,-24.723354 598.50001,2.1764765 598.50001,2.1764765 L 1.5,2.1764765 L 1.5,260.72817 C 1.5,546.17969 300,658.5 300,658.5 z"
       sodipodi:nodetypes="cccccc" />
  </g>
  <g
     inkscape:groupmode="layer"
     id="layer4"
     inkscape:label="Meubles">
    <g
       id="g3225">
      <path
         style="opacity:0.98000004;fill:#000000;stroke:none"
         d="M 250.21842,86.96388 C 248.60438,56.242415 258.91667,39.400116 277.52369,35.640068 C 286.18462,34.468853 294.14113,35.645768 300.78373,41.202255 L 313.93073,54.854893 L 331.12293,95.05433 L 343.25863,129.18592 L 350.84343,137.5292 C 364.93543,153.03047 376.29373,188.69253 389.27303,205.03391 C 394.07673,212.119 397.80153,215.90713 402.60523,220.13585 C 406.99583,224.41213 406.22163,229.07364 406.72343,232.91784 L 408.64453,236.64258 C 410.50213,241.65242 412.73023,248.17483 418.60093,251.80684 L 421.12923,256.10489 L 426.43863,258.38033 C 432.40703,261.07715 435.65043,263.77397 437.31013,266.47079 C 441.60173,270.28783 443.24743,270.57702 446.19823,272.60629 L 443.31033,276.2972 L 438.93393,277.4545 L 434.83523,276.2619 L 441.60823,286.19126 L 444.12853,292.25121 C 443.65523,295.88251 441.76633,295.26703 440.09123,295.29302 L 435.03473,290.74214 L 437.60213,297.02898 L 437.09643,300.0629 L 434.82103,301.32704 L 431.02863,300.56856 L 427.74193,302.08552 L 424.14603,301.4883 L 419.16813,300.55966 C 414.11603,297.68685 414.15453,297.17438 410.47463,292.01473 L 406.98973,286.8711 C 412.68163,322.83918 413.79173,356.04433 414.80853,391.34453 C 407.85893,396.10333 402.50513,398.2871 390.22233,401.69781 L 387.75613,426.00439 L 377.89583,432.07223 L 375.62043,434.85333 L 368.28843,473.78863 C 365.99303,485.97811 360.19503,496.08981 347.34533,505.62406 C 353.30183,511.63989 355.98973,513.86848 357.35913,521.04649 C 358.91083,529.1804 361.36613,538.54109 350.74413,543.00096 C 350.74413,543.00096 351.58273,547.91281 351.23603,549.38379 C 348.76223,559.8781 343.65843,562.26544 334.11473,564.56795 C 310.23293,570.32967 294.47203,566.07644 283.3387,560.50817 L 280.30478,568.09296 L 277.77652,571.63254 L 271.9615,576.43624 L 268.42193,577.19472 L 266.14649,576.43624 L 264.12388,577.44755 L 260.83713,577.44755 L 255.02212,575.67776 L 251.9882,572.64384 L 248.70145,569.10427 L 246.42601,563.28926 L 248.1958,557.9799 L 222.66031,557.72707 C 216.54406,557.66647 210.81729,554.21865 217.8566,544.83291 C 221.89862,540.23952 226.9259,535.29639 226.70695,531.43348 C 225.58068,511.56262 213.01682,510.53809 209.65308,483.83385 L 207.63047,482.31689 L 206.11351,456.91708 L 200.80415,448.5738 L 200.52872,425.13285 L 193.42696,411.52544 L 191.65718,405.96325 L 193.91,363.05056 L 189.35912,358.24686 C 185.08017,357.8721 193.94688,291.04835 197.05245,251.90485 C 190.0827,240.57223 185.69904,214.88914 185.336,203.65545 C 186.00799,200.99331 186.23677,198.41982 191.96225,194.74699 C 195.37392,148.54868 211.11093,144.28905 229.73946,132.47267 L 243.3921,121.09547 L 250.21842,86.96388 L 250.21842,86.96388 z"
         id="path4754"
         sodipodi:nodetypes="ccccccsccccccccccccccccccccccccccccccscscsscccccccccccccscsccccccccccccccc" />
      <path
         sodipodi:nodetypes="ccccccccccccc"
         id="path4982"
         d="M 242.45818,198.79754 L 238.98452,200.3874 C 230.65045,204.7241 226.73742,252.83443 228.94437,265.09933 L 231.59414,271.1938 L 236.36372,279.93803 L 239.39827,281.26291 C 244.6899,281.26491 249.66612,283.68447 255.82683,277.02328 L 248.79227,275.16845 L 247.73236,273.31361 L 238.31373,215.95312 C 233.89603,228.5216 237.19555,265.16561 238.81586,273.42122 C 237.38467,275.02985 238.75506,273.8328 237.90112,273.42122 C 227.34455,250.85295 238.73327,213.64835 242.45818,198.79754 L 242.45818,198.79754 z"
         style="fill:#ffffff;stroke:none" />
      <path
         sodipodi:nodetypes="ccccccc"
         id="path4984"
         d="M 234.45969,198.93776 C 219.36003,224.52429 221.12206,266.63964 233.19592,279.28072 C 218.87237,274.9258 216.35396,234.9662 214.96764,225.06774 C 211.9626,233.60069 216.01256,265.02741 223.45611,276.10682 C 218.48697,272.45849 206.45429,237.09525 208.16683,223.1925 C 209.10172,219.03062 212.62006,214.33787 217.084,213.68311 C 220.92759,204.29725 227.10798,200.04359 234.45969,198.93776 L 234.45969,198.93776 z"
         style="fill:#ffffff;stroke:none" />
      <path
         sodipodi:nodetypes="ccccccccsscccc"
         id="path4986"
         d="M 207.57186,250.63776 C 192.2196,244.74893 185.12101,221.0984 205.91886,207.65348 L 206.45467,205.09087 C 196.19909,203.50446 192.98269,217.73018 190.8433,224.66131 C 188.62767,215.80066 187.85073,209.14851 190.782,201.03379 L 194.66668,198.21841 C 197.42524,197.84905 195.47786,191.47968 195.43399,189.58727 C 195.31698,180.25344 197.99251,172.79372 200.50067,167.34585 C 201.21548,169.56331 202.02695,184.05046 215.69756,190.26137 C 217.99851,191.30675 219.27303,192.07796 221.59156,192.97671 L 232.70979,197.28655 L 222.93111,199.84916 L 222.26133,201.94584 C 202.75685,213.9981 199.42901,224.38874 207.57186,250.63776 L 207.57186,250.63776 z"
         style="fill:#ffffff;stroke:none" />
      <path
         sodipodi:nodetypes="ccccc"
         id="path4988"
         d="M 203.61956,161.15268 C 199.3589,179.01905 219.44182,192.33703 236.42653,197.52188 L 238.52578,196.17718 C 202.38925,170.36772 211.22915,170.07446 205.13509,156.70495 L 203.61956,161.15268 L 203.61956,161.15268 z"
         style="fill:#ffffff;stroke:none" />
      <path
         sodipodi:nodetypes="csscc"
         id="path4990"
         d="M 212.98144,147.56649 C 210.43286,150.39381 212.45683,147.01443 208.17383,152.84712 C 207.08909,154.32435 207.08961,156.46914 207.35017,158.28324 C 207.84962,161.76053 211.79791,167.83763 211.79791,167.83763 C 211.22636,161.9697 208.21094,156.88036 212.98144,147.56649 z"
         style="fill:#ffffff;stroke:none" />
      <path
         sodipodi:nodetypes="cscccc"
         id="path4993"
         d="M 218.82056,143.55369 C 204.68887,160.35976 220.57596,178.07772 223.49059,181.04845 C 231.724,189.44028 232.55681,188.84559 240.25215,196.3828 L 243.03938,195.58456 C 221.52609,173.8332 219.43583,166.75659 222.11518,139.92961 L 218.82056,143.55369 L 218.82056,143.55369 z"
         style="fill:#ffffff;stroke:none" />
      <path
         sodipodi:nodetypes="ccccccc"
         id="path4995"
         d="M 225.34973,138.38299 C 218.21417,173.8211 238.33697,188.05016 244.17164,194.53189 L 246.50705,193.39493 C 240.82571,170.57356 239.22687,174.12168 234.36078,166.29003 C 233.51471,164.92833 233.20383,160.97822 232.39421,159.59959 C 230.72118,149.68111 226.14049,150.25839 227.16177,136.73568 L 225.34973,138.38299 z"
         style="fill:#ffffff;stroke:none" />
      <path
         sodipodi:nodetypes="ccccccccccc"
         id="path4997"
         d="M 235.20663,135.63715 C 236.35471,134.94831 249.26541,145.57591 247.70508,153.98687 C 248.69115,155.82476 251.94763,153.87386 254.52514,152.14388 C 257.12133,159.17595 257.57488,171.54767 258.09737,177.26791 L 253.92897,185.4995 C 253.27191,174.98193 251.61277,166.71902 249.31522,159.89255 C 250.77311,168.97454 253.15481,178.05652 252.32904,187.13851 L 247.40785,192.61541 C 243.17166,168.15179 237.6364,167.72284 235.00558,155.55133 C 229.65513,147.52223 228.8842,144.01296 230.07788,136.0533 L 235.20663,135.63715 L 235.20663,135.63715 z"
         style="fill:#ffffff;stroke:none" />
      <path
         style="fill:#ffffff;stroke:none"
         d="M 260.80458,124.79054 C 273.42165,132.63164 290.89716,138.98641 314.03543,128.31687 L 317.22593,174.15924 L 323.94283,247.5406 C 323.94283,247.5406 325.98463,273.65968 328.82453,283.84221 C 331.49463,293.41572 337.01523,298.24642 339.89523,305.97702 L 343.08573,314.54098 C 348.51089,354.87376 351.31353,394.5342 345.10083,434.10054 L 345.10083,443.16826 L 347.78753,451.22846 L 342.41403,495.61973 C 341.12673,506.25444 353.81403,514.69713 354.76493,518.06091 C 359.80853,535.9014 353.94273,548.83256 333.27113,534.1813 L 347.37643,544.25655 C 350.48093,548.96744 349.30883,553.20314 344.35383,557.01853 C 340.38863,562.07778 316.70923,565.95128 302.11313,565.41456 C 292.70311,565.06854 285.74931,555.36192 276.58913,552.98843 C 272.57364,551.94798 268.24565,551.58287 264.16299,552.31674 C 251.61395,554.57246 236.07786,557.16695 222.51865,553.99595 C 220.03293,553.41463 218.94271,548.62742 220.5036,546.60744 C 220.5036,546.60744 224.82855,542.00657 226.2129,539.21893 C 228.12129,535.37604 229.77897,531.07842 229.57132,526.79279 C 226.31945,459.67699 229.41557,349.28536 236.15271,286.14494 C 247.82152,287.18908 247.47287,289.22235 256.81656,283.39476 C 262.89345,272.68013 257.8278,212.6732 259.79705,190.27963 C 261.70972,168.5295 257.11124,146.62024 260.80458,124.79054 L 260.80458,124.79054 z"
         id="path4598"
         sodipodi:nodetypes="ccccssccccsscccsssssssccsc" />
      <path
         style="fill:#000000;stroke:none"
         d="M 268.06122,224.12224 C 263.64429,224.68073 259.22737,225.46911 254.81044,227.06685 L 254.02521,235.7044 C 256.82976,225.095 263.02317,227.36327 268.25753,225.98716 L 268.06122,224.12224 z"
         id="path4600"
         sodipodi:nodetypes="ccccc" />
      <path
         style="fill:#000000;stroke:none"
         d="M 267.17783,217.15331 C 263.45564,217.01176 261.70372,216.95427 256.08644,218.13485 L 255.69383,221.17762 C 259.04221,218.61558 263.06573,218.46558 266.98152,217.84039 L 267.17783,217.15331 L 267.17783,217.15331 z"
         id="path4602"
         sodipodi:nodetypes="ccccc" />
      <path
         style="fill:#000000;stroke:none"
         d="M 292.50154,556.07873 C 233.94567,501.66711 262.60041,372.70744 256.81656,283.39476 L 249.47517,284.32183 C 252.2436,391.36371 240.48384,516.7546 292.50154,556.07873 z"
         id="path4604"
         sodipodi:nodetypes="cccc" />
      <path
         style="fill:#000000;stroke:none"
         d="M 255.59567,532.52179 C 260.86655,532.13125 265.68435,530.89118 272.87076,534.09225 L 275.61907,539.19626 C 269.89598,534.38914 263.08199,532.543 255.59567,532.52179 z"
         id="path4606"
         sodipodi:nodetypes="cccc" />
      <path
         style="fill:#000000;stroke:none"
         d="M 274.23103,544.9204 C 274.23103,544.9204 265.77484,544.8481 262.69197,544.54207 C 254.09913,543.68901 240.04754,557.02896 237.1547,548.89286 L 231.10142,531.86802 C 231.10142,531.86802 234.07499,540.56559 237.1547,543.78541 C 238.30618,544.98927 239.91885,546.75227 241.50549,546.24455 C 241.50549,546.24455 253.81337,540.58729 260.42199,540.19128 C 269.0705,539.67303 274.23103,544.9204 274.23103,544.9204 L 274.23103,544.9204 z"
         id="path4609"
         sodipodi:nodetypes="csscsssc" />
      <path
         style="fill:#000000;stroke:none"
         d="M 334.09573,539.4705 C 334.09573,539.4705 341.51683,543.55002 342.65633,547.22857 C 343.22593,549.06735 342.37033,551.23409 341.31873,552.84648 C 337.94893,558.01353 334.20003,557.87333 330.61793,560.06951 C 330.61793,560.06951 337.24523,556.04051 339.17853,552.84648 C 340.03003,551.43983 340.46473,549.66115 340.24863,548.03113 C 339.72573,544.08609 336.16493,542.31103 334.09573,539.4705 L 334.09573,539.4705 z"
         id="path4611"
         sodipodi:nodetypes="csscssc" />
      <path
         style="fill:#ffffff;stroke:none"
         d="M 251.57447,556.16275 C 255.67024,556.11195 259.62167,556.04455 264.77563,553.87793 C 268.60885,552.26652 272.43109,552.37906 276.70744,555.02034 L 281.0232,557.68596 C 278.38916,562.85369 279.12781,568.63464 273.02635,573.17193 C 270.52998,574.6168 268.0336,574.94088 265.53723,573.67967 C 263.12548,575.07062 260.71373,576.08294 258.30198,573.8066 C 254.54257,573.49823 253.21947,572.25282 253.85928,570.25245 C 252.58994,569.21109 251.3206,570.89225 250.05126,566.82522 C 246.17195,563.856 250.47096,558.2139 251.57447,556.16275 z"
         id="path4613"
         sodipodi:nodetypes="cssccccccc" />
      <path
         style="fill:none;stroke:#000000;stroke-width:1px;stroke-linecap:butt;stroke-linejoin:miter;stroke-opacity:1"
         d="M 265.53723,575.45675 C 263.51694,570.70409 267.38638,566.97573 268.83752,562.82679"
         id="path4616"
         sodipodi:nodetypes="cc" />
      <path
         style="fill:none;stroke:#000000;stroke-width:1px;stroke-linecap:butt;stroke-linejoin:miter;stroke-opacity:1"
         d="M 257.85771,575.32981 C 258.40265,571.60896 260.61273,567.05554 262.80815,562.50946"
         id="path4618"
         sodipodi:nodetypes="cc" />
      <path
         style="fill:none;stroke:#000000;stroke-width:1px;stroke-linecap:butt;stroke-linejoin:miter;stroke-opacity:1"
         d="M 252.39954,571.52179 L 257.79425,561.93825"
         id="path4620" />
      <path
         style="fill:none;stroke:#000000;stroke-width:1px;stroke-linecap:butt;stroke-linejoin:miter;stroke-opacity:1"
         d="M 249.35312,568.0311 L 252.78034,560.60545"
         id="path4622" />
      <path
         style="fill:#000000;stroke:none"
         d="M 270.6146,228.29171 L 272.89941,228.29171 C 270.51298,333.94009 274.00609,455.9074 291.46297,507.69151 C 298.37503,528.19551 308.34143,534.68494 322.01303,546.38882 C 306.77033,538.56963 287.10018,520.27858 283.52664,504.96537 C 261.7526,411.66015 273.04978,320.30695 270.6146,228.29171 L 270.6146,228.29171 z"
         id="path4624"
         sodipodi:nodetypes="ccscsc" />
      <path
         style="fill:#000000;stroke:none"
         d="M 290.02771,227.1518 L 291.93759,225.05093 C 298.66483,241.23526 286.46264,256.26062 290.27328,285.18038 C 291.72168,296.17261 287.20806,319.9709 291.35381,327.02284 C 283.60854,316.75008 289.49664,297.27593 288.45018,287.48768 C 285.69832,261.74753 297.26333,238.35479 290.02771,227.1518 z"
         id="path4628"
         sodipodi:nodetypes="ccscsc" />
      <path
         style="fill:#000000;stroke:none"
         d="M 283.34312,228.10674 L 286.20795,228.67971 C 286.20795,228.67971 279.0353,241.47671 278.75941,248.54247 C 277.89197,270.7578 278.56842,307.5578 278.56842,307.5578 C 278.56842,307.5578 280.43731,325.53782 286.9719,330.28538 C 288.26054,331.22161 291.7466,330.47637 291.7466,330.47637 C 291.7466,330.47637 287.47976,331.94282 285.82597,330.85835 C 278.75322,326.2204 277.2315,306.98483 277.2315,306.98483 C 277.98946,282.13751 271.998,242.09832 283.34312,228.10674 z"
         id="path4630"
         sodipodi:nodetypes="ccscscscc" />
      <path
         style="fill:#000000;stroke:none"
         d="M 292.51056,224.28698 C 303.61183,244.2134 294.89393,263.94884 291.36463,283.87527 L 292.89253,281.58341 C 292.89253,281.58341 297.77003,306.49774 296.90323,319.01708 C 296.66763,322.42128 294.42043,328.94847 294.42043,328.94847 C 294.42043,328.94847 297.27743,321.95845 297.66723,318.25313 C 299.07773,304.8455 294.54133,289.71739 295.08353,277.76365 C 295.86013,260.36808 303.32153,243.45959 296.71233,226.76982 L 292.51056,224.28698 L 292.51056,224.28698 z"
         id="path4632"
         sodipodi:nodetypes="cccscsscc" />
      <path
         style="fill:#000000;stroke:none"
         d="M 291.01,220.26359 C 291.01,220.26359 292.88093,222.58535 288.78528,226.77883 C 289.7194,237.7396 288.46747,261.10303 288.46747,261.10303 C 288.46747,261.10303 287.65008,239.11949 287.35511,228.52682 C 287.32061,227.26822 286.40166,224.87193 286.40166,224.87193 C 288.40829,224.27686 289.84858,222.54909 291.01,220.26359 z"
         id="path4634"
         sodipodi:nodetypes="cccscc" />
      <path
         style="fill:#000000;stroke:none"
         d="M 304.04053,463.71116 C 308.61493,487.29906 312.70983,521.55239 333.74513,534.90209 C 316.91983,516.13105 310.55313,495.89418 307.90793,476.28055 C 311.50323,486.75557 323.68033,527.0818 344.08543,516.78654 C 321.67053,522.66779 315.86173,485.3732 304.04053,463.71116 L 304.04053,463.71116 z"
         id="path4636"
         sodipodi:nodetypes="ccccc" />
      <path
         style="fill:#000000;stroke:none"
         d="M 290.71899,330.99669 C 290.42284,398.24327 314.28093,516.43401 343.18043,513.087 C 308.64663,500.88853 296.01163,361.42601 294.62113,328.74127 L 290.71899,330.99669 z"
         id="path4638"
         sodipodi:nodetypes="cccc" />
      <path
         style="fill:#000000;stroke:none"
         d="M 315.16503,441.74096 C 320.13173,460.1677 332.99973,494.64246 340.85693,480.27877 L 342.02473,470.15773 C 332.51223,487.47162 320.63213,452.82797 315.16503,441.74096 z"
         id="path4640"
         sodipodi:nodetypes="cccc" />
      <path
         sodipodi:nodetypes="cccc"
         id="path4642"
         d="M 318.52353,437.71086 C 325.16933,456.47344 334.17513,474.65989 342.03243,460.2962 L 343.20023,450.17516 C 339.56493,476.72469 323.99053,448.79787 318.52353,437.71086 z"
         style="fill:#000000;stroke:none" />
      <path
         style="fill:#000000;stroke:none"
         d="M 311.51663,224.8713 C 315.02613,249.61084 313.49023,276.51269 314.20333,302.45068 C 314.00053,277.71561 317.13773,253.81558 313.53173,228.22972 L 311.51663,224.8713 L 311.51663,224.8713 z"
         id="path4644"
         sodipodi:nodetypes="cccc" />
      <path
         sodipodi:nodetypes="cssssccccccssccsss"
         id="path4646"
         d="M 420.27643,258.16691 C 418.21203,258.23351 413.28083,256.2576 411.21613,256.31563 C 407.03783,256.43307 402.17183,255.27462 399.53713,258.31607 C 398.04063,260.04361 393.67433,266.06236 394.91953,270.71989 C 395.43313,272.64081 399.11593,272.86249 401.31133,275.22165 C 409.60643,284.13578 411.64063,293.51254 419.38143,297.72073 C 421.95223,299.22171 424.62033,299.86209 423.80043,296.42714 C 426.13743,299.08206 429.01633,300.73965 430.36163,297.44452 C 434.66713,299.20642 435.83733,296.79964 434.44213,293.86679 L 425.85003,278.64094 L 426.35343,278.24561 C 429.70843,282.22938 434.04553,286.75925 438.03823,291.09854 C 439.76963,292.98028 443.77183,293.21566 440.42893,287.70115 C 436.65613,281.47752 432.57843,277.41714 429.01413,271.38001 C 433.69333,273.91964 440.15623,277.15356 443.21553,272.88996 C 443.21553,272.88996 438.69963,271.04994 436.92403,269.61839 C 434.40733,267.58926 433.05443,264.07433 430.12923,262.69778 C 430.12923,262.69778 422.24913,258.10324 420.27643,258.16691 L 420.27643,258.16691 z"
         style="fill:#ffffff;stroke:none" />
      <path
         style="fill:#2b5df2;stroke:none"
         d="M 431.23773,298.99615 L 421.14413,283.94925"
         id="path4648" />
      <path
         style="fill:#2b5df2;stroke:none"
         d="M 425.16293,298.52886 L 414.97583,285.25768"
         id="path4650" />
      <path
         style="fill:#ffffff;stroke:none"
         d="M 396.22463,275.89914 L 390.47443,323.2082 L 388.38343,324.77645 L 388.12203,300.20711 L 381.32623,307.78701 L 376.62143,320.07169 L 375.57593,360.58497 C 379.75793,352.77003 390.54083,347.06227 398.57703,342.02727 C 405.44623,337.72347 408.75873,331.00126 408.77073,328.95847 C 408.83373,318.24205 406.46123,298.76005 403.28183,284.0018 C 402.97423,282.57407 403.18163,280.64253 401.97493,279.81978 L 396.22463,275.89914 L 396.22463,275.89914 z"
         id="path4652"
         sodipodi:nodetypes="cccccccssssc" />
      <path
         style="fill:#ffffff;stroke:none"
         d="M 407.72523,336.70874 L 412.69133,386.98394 C 412.69133,386.98394 399.96793,377.86286 379.84303,367.49502 C 377.01823,366.03977 375.65073,364.12234 377.14513,362.1765 C 380.52803,357.77152 384.05213,354.49515 387.74453,352.56585 C 387.43473,355.29568 387.79853,357.65465 387.51153,360.63926 L 393.61093,356.83469 L 394.91783,348.1517 C 399.30503,345.4304 403.31383,343.30246 407.72523,336.70874 L 407.72523,336.70874 z"
         id="path4654"
         sodipodi:nodetypes="ccssccccc" />
      <path
         style="fill:#ffffff;stroke:none"
         d="M 377.59103,405.70086 L 378.28753,370.67518 C 381.05883,371.26597 400.80473,381.8176 411.94723,389.94246 C 398.25063,399.72677 388.23183,394.76046 377.59103,405.70086 z"
         id="path4656"
         sodipodi:nodetypes="cccc" />
      <path
         style="fill:#ffffff;stroke:none"
         d="M 387.79563,400.6965 L 385.25153,421.95038 C 385.13643,424.56635 383.85763,425.18723 382.69803,426.01276 C 382.69803,426.01276 382.75703,422.37897 381.53743,420.67363 C 379.76443,418.19482 377.26243,416.27807 377.02023,413.14462 C 376.82713,410.64622 376.45523,410.03826 378.40713,407.12406 C 380.08523,404.61865 383.51053,402.56831 387.79563,400.6965 z"
         id="path4658"
         sodipodi:nodetypes="cccsssc" />
      <path
         style="fill:#ffffff;stroke:none"
         d="M 369.93063,336.06008 L 365.75213,437.73562 L 381.43583,427.88708 C 381.43583,427.88708 383.15953,422.02963 377.31323,417.27239 C 374.11303,414.66826 376.94063,409.24737 376.83163,405.23227 L 375.85483,369.25709 L 373.55683,365.15347 L 372.57193,340.53173 L 369.93063,336.06008 L 369.93063,336.06008 z"
         id="path4660"
         sodipodi:nodetypes="cccsscccc" />
      <path
         style="fill:#ffffff;stroke:none"
         d="M 373.87663,433.63818 L 366.66273,470.20621 C 366.66273,470.20621 363.28723,452.90245 364.85713,444.43546 C 365.35253,441.76391 365.98683,438.4674 368.30423,437.04894 L 373.87663,433.63818 z"
         id="path4662"
         sodipodi:nodetypes="ccssc" />
      <path
         style="fill:#ffffff;stroke:none"
         d="M 335.39983,293.90818 C 347.07193,302.63794 351.52193,313.66804 376.18613,308.42461 C 370.35123,314.13096 361.92233,316.80705 354.10733,315.11421 C 344.27033,312.98342 341.13863,301.44845 335.39983,293.90818 z"
         id="path4664"
         sodipodi:nodetypes="ccsc" />
      <path
         style="fill:#ffffff;stroke:none"
         d="M 384.35283,205.68436 C 350.82853,207.28471 354.71763,237.53123 354.35283,264.05936 C 357.75213,247.16295 357.31253,221.4637 375.72783,213.59061 C 372.40023,217.90145 368.49093,222.44947 366.38413,226.52811 C 359.08903,240.65078 359.29133,254.29389 356.16533,268.18436 L 357.94663,269.09061 C 364.13403,232.75968 374.34073,217.09137 387.22783,215.21561 L 387.75913,216.65311 C 383.53133,216.69951 380.33703,218.77587 377.54033,221.68436 C 370.43463,229.05962 367.88943,237.44653 364.94663,245.74686 C 372.59383,234.88301 373.70493,220.44564 398.50913,227.30936 C 401.40353,228.11028 402.71563,230.76426 398.54013,229.93436 C 389.07173,226.50647 379.57513,226.03149 373.60263,235.52811 C 365.07463,247.17214 363.49043,259.78535 361.07133,272.34061 L 366.00883,266.77811 C 372.43293,248.52151 377.50893,227.33054 399.91513,232.87186 L 399.97713,232.99686 C 404.46673,232.47383 405.65843,230.1394 402.66463,224.90311 L 384.35283,205.68436 L 384.35283,205.68436 z"
         id="path4668"
         sodipodi:nodetypes="cccsccccccscccccccc" />
      <path
         style="fill:#ffffff;stroke:none"
         d="M 322.44663,121.90311 L 325.91533,201.62186 L 319.75913,121.93436 L 315.66533,122.09061 C 318.51433,165.0692 322.43953,207.92569 327.00913,250.74686 L 329.41533,273.96561 C 330.62613,285.59766 334.92093,288.64849 339.29033,293.90311 C 356.60143,311.51213 366.63463,308.91823 374.10283,307.27811 C 393.89693,297.39634 386.33363,257.29702 401.63413,253.27811 C 388.91803,252.82697 384.23453,281.15105 375.66533,295.55936 C 373.65913,301.97785 368.17923,298.1297 361.69663,301.58726 C 350.79983,295.14106 346.84733,289.41589 340.32163,281.77811 C 336.36873,277.15163 336.34343,270.90926 334.75913,265.34061 C 329.64713,226.71803 336.50683,184.36782 331.69663,151.90311 L 332.50913,136.90311 C 337.72243,143.20537 338.77533,149.5071 339.69663,155.80936 C 336.08813,194.58195 334.52383,233.80424 340.50913,272.12186 C 341.98973,281.60101 352.68753,290.90602 358.82163,295.55936 C 341.49293,262.20648 343.63793,194.99197 351.82163,158.68436 C 362.62493,175.41857 352.08763,189.46976 347.29033,223.62186 C 349.67013,217.67818 351.74153,210.63116 354.91533,206.55936 C 361.34213,198.31417 362.86063,188.29886 362.72783,178.40311 C 362.72783,178.26728 362.72783,178.13265 362.72783,177.99686 L 363.79033,178.02806 L 362.72783,178.40306 C 363.09203,184.75493 369.64133,189.32514 363.13413,197.71556 C 358.34793,203.88675 353.50483,210.4712 350.38413,222.59056 C 348.86373,228.49512 349.42713,234.11758 349.35283,239.87181 L 352.44663,238.84056 C 353.73563,214.72123 364.63593,205.96898 379.57163,203.68431 L 383.25913,202.65306 L 369.07163,176.15306 L 369.04063,176.15306 C 362.91363,161.70676 355.14883,140.7282 344.82183,137.09056 C 349.37803,149.20323 344.83183,159.67423 344.00933,170.80931 C 344.16483,156.09107 346.17663,138.95879 338.88433,130.68431 C 333.40513,125.18703 328.31933,123.0348 322.44683,121.90306 L 322.44663,121.90311 z"
         id="path4670"
         sodipodi:nodetypes="cccccccccccsccccscccsscccsscccccccccc" />
      <path
         style="fill:none;stroke:#000000;stroke-width:1px;stroke-linecap:butt;stroke-linejoin:miter;stroke-opacity:1"
         d="M 431.95943,299.66967 L 420.27463,282.65044"
         id="path4672" />
      <path
         style="fill:none;stroke:#000000;stroke-width:1px;stroke-linecap:butt;stroke-linejoin:miter;stroke-opacity:1"
         d="M 424.84693,298.90762 L 414.43223,284.55557"
         id="path4674" />
      <path
         style="fill:none;stroke:#000000;stroke-width:1px;stroke-linecap:butt;stroke-linejoin:miter;stroke-opacity:1"
         d="M 411.84133,266.94196 C 416.12183,270.80128 418.85253,272.63643 425.73603,270.58455"
         id="path4676"
         sodipodi:nodetypes="cc" />
      <path
         style="fill:none;stroke:#000000;stroke-width:1px;stroke-linecap:butt;stroke-linejoin:miter;stroke-opacity:1"
         d="M 432.08653,273.75979 L 425.48203,270.07652"
         id="path4678" />
      <path
         style="fill:#ffffff;stroke:none"
         d="M 363.15913,277.17592 C 373.07413,263.07471 372.90303,237.45187 393.15533,235.14526 C 397.70233,234.62739 400.09183,235.86593 402.85473,236.40259 L 404.29173,234.96565 C 407.33863,239.36964 410.43933,243.7813 410.21913,247.71854 C 412.97673,248.5743 415.06143,251.78565 416.86493,255.98097 C 412.25473,252.89121 409.23133,247.63713 404.83053,246.64082 C 381.21423,245.02348 384.94643,272.29704 367.11073,286.69568 L 366.75153,285.79759 L 370.88273,278.9721 L 369.44573,276.9963 L 364.41643,281.48675 L 363.15913,277.17592 L 363.15913,277.17592 z"
         id="path4680"
         sodipodi:nodetypes="csccccccccccc" />
      <path
         style="fill:#ffffff;stroke:none"
         d="M 410.57833,252.38861 C 402.80123,245.24627 395.38333,247.78545 389.91923,254.07323 C 381.69743,263.5346 378.74053,283.8967 366.75423,290.11968 L 365.85343,293.52117 L 362.31893,295.94866 C 369.66623,300.07419 374.62583,294.63876 377.52853,287.23453 C 381.89373,277.4833 385.13383,266.02057 391.17953,258.67525 C 397.60423,250.86944 403.01913,249.65836 410.57833,252.38861 z"
         id="path4682"
         sodipodi:nodetypes="csccccsc" />
      <path
         sodipodi:nodetypes="cccscccssccccccc"
         inkscape:connector-curvature="0"
         d="M 262.74794,119.34431 C 266.74666,116.60329 271.1313,114.24819 272.73655,109.11371 C 277.24516,112.37624 284.22653,115.69191 290.18321,113.10652 C 277.25119,113.60226 271.42826,107.48826 267.00531,97.65298 C 265.63269,94.60069 262.12027,91.58977 262.28843,86.41288 C 260.95821,83.40388 261.2939,79.51638 261.09929,76.44474 C 262.86308,68.995944 259.31258,71.569724 263.27375,65.165674 C 265.18559,62.023002 269.82017,55.585808 275.01994,54.323275 C 279.18009,53.313166 283.80989,56.368873 286.75254,56.464086 C 289.54661,56.554486 289.36053,59.25125 293.30151,61.461085 C 294.63953,64.204869 302.51253,68.341542 304.04643,72.278433 C 305.11103,77.91358 306.69853,87.21351 306.16893,94.03668 C 305.15383,98.18606 305.09283,102.56786 302.43943,106.77061 C 304.46643,106.18938 304.73873,105.61747 305.68623,104.09648 C 306.06573,110.10781 305.51863,115.19986 312.41653,120.37983 C 294.66243,132.3131 276.46396,127.31399 262.74794,119.34431 L 262.74794,119.34431 z"
         id="path4684"
         style="fill:#ffffff;fill-rule:evenodd;stroke:none" />
      <path
         inkscape:connector-curvature="0"
         d="M 287.48354,102.9307 C 286.50634,102.8965 285.31599,102.6684 285.13496,102.50784 C 285.34291,102.76267 289.10741,101.45376 289.77532,101.38971 C 289.27854,102.05055 287.85773,102.8234 287.48354,102.9307 L 287.48354,102.9307 L 287.48354,102.9307 z"
         id="path4686"
         style="fill:#000000;fill-rule:evenodd;stroke:none" />
      <path
         inkscape:connector-curvature="0"
         d="M 282.06627,102.39971 C 281.88534,102.23913 281.93655,101.90999 281.88251,101.72154 C 281.70912,101.11686 283.64186,100.32471 285.20391,99.29891 C 286.60645,99.16868 288.03324,98.4951 288.56332,98.3431 C 289.74641,98.62425 290.7341,98.65547 293.53026,97.85368 C 293.75093,98.62325 291.35598,99.41198 291.09613,99.48649 C 290.62389,99.60499 290.04415,99.58419 289.59266,99.69665 C 288.20488,100.03517 286.96147,100.48517 285.62559,100.80871 C 285.21564,100.90924 284.80354,101.00193 284.39361,101.10256 C 283.52673,101.45304 282.77849,101.98211 282.06553,102.39902 L 282.06553,102.39902 L 282.06627,102.39971 z"
         id="path4688"
         style="fill:#000000;fill-rule:evenodd;stroke:none" />
      <path
         sodipodi:nodetypes="ccccccccccccccccccc"
         inkscape:connector-curvature="0"
         d="M 282.45517,95.98489 C 280.91352,95.55161 280.91504,95.32172 280.42951,94.68757 C 279.97019,89.7117 278.75607,80.94455 276.79614,77.44427 C 276.32825,77.264 275.86035,77.08373 275.42977,76.99473 C 273.68557,77.18892 272.10125,77.43075 270.51919,77.68044 C 268.09729,78.37491 265.88109,78.80644 264.50706,79.82082 C 263.6257,80.59196 262.74444,81.36305 261.89236,82.23627 C 261.83606,82.03996 261.78202,81.85148 261.72573,81.65516 C 264.3796,78.39563 264.36697,77.88083 269.59556,76.38156 C 271.59147,76.12369 273.58739,75.865821 275.73515,75.666383 C 276.20304,75.846666 276.69795,76.12116 277.18248,76.39866 C 277.5968,77.84358 278.01113,79.28849 278.5772,80.79187 C 279.32076,84.32648 281.30714,90.0592 282.16505,93.56103 C 282.75767,93.70553 283.37731,93.94428 283.99706,94.183 C 283.7745,94.34872 283.54169,94.51754 283.43585,94.65837 C 283.51915,94.94892 283.60248,95.23947 283.71282,95.62426 C 283.22428,95.76435 282.8397,95.87462 282.45503,95.98493 L 282.45503,95.98493 L 282.45513,95.9849 L 282.45517,95.98489 z"
         id="path4690"
         style="fill:#000000;fill-rule:evenodd;stroke:none" />
      <path
         inkscape:connector-curvature="0"
         d="M 286.36886,93.82551 C 286.13379,93.47649 285.91536,93.22469 285.83205,92.93413 C 286.47647,92.74934 287.13761,92.66167 287.79869,92.57417 C 287.82569,92.66837 287.88199,92.86472 287.93604,93.05318 C 287.33128,93.33707 286.84889,93.57738 286.36886,93.82551 L 286.36886,93.82551 z"
         id="path4692"
         style="fill:#000000;fill-rule:evenodd;stroke:none" />
      <path
         inkscape:connector-curvature="0"
         d="M 294.38853,78.6546 C 294.09473,78.80683 292.8368,78.85312 292.68505,78.79465 C 293.49897,78.61232 295.05873,78.08854 295.55673,77.90322 C 295.28493,78.21062 294.68463,78.51023 294.38853,78.65462 L 294.38853,78.65462 L 294.38853,78.6546 z"
         id="path4694"
         style="fill:#000000;fill-rule:evenodd;stroke:none" />
      <path
         inkscape:connector-curvature="0"
         d="M 272.1792,84.92105 C 271.73548,84.90385 271.14998,84.90175 270.98784,84.84625 C 271.39043,84.79875 272.94286,84.32815 273.42974,84.10355 C 273.45904,84.20562 273.21883,84.42748 273.09897,84.59782 C 272.73691,84.78663 272.43903,84.84646 272.17918,84.92097 L 272.17918,84.92097 L 272.1792,84.92105 z"
         id="path4696"
         style="fill:#000000;fill-rule:evenodd;stroke:none" />
      <path
         inkscape:connector-curvature="0"
         d="M 271.21406,83.94853 C 269.10782,83.82162 269.46724,82.68175 269.43796,82.57965 C 266.38182,83.45598 267.11414,84.59727 265.41997,85.39749 C 264.31047,81.88283 268.63973,79.95306 272.86099,79.09956 C 273.88194,79.32522 274.82997,79.25734 276.4129,80.89407 C 276.3153,81.02397 276.24675,81.25615 276.3008,81.44462 C 274.77278,81.88277 274.19455,81.3177 273.17583,81.60982 C 273.20433,82.17955 273.08173,82.73311 272.66925,83.21681 C 272.29519,83.63852 271.81505,83.88667 271.21406,83.94853 L 271.21406,83.94853 z"
         id="path4698"
         style="fill:#000000;fill-rule:evenodd;stroke:none" />
      <path
         inkscape:connector-curvature="0"
         d="M 292.56452,77.7074 C 291.5625,77.58681 290.7909,76.9752 290.83442,76.34234 C 289.81573,76.63445 289.05914,77.3698 288.24852,77.91668 C 288.0864,77.86128 288.05711,77.7591 288.05711,77.7591 C 290.42962,75.362107 290.59302,75.068799 295.19783,74.258291 C 295.73423,74.206411 296.29983,74.256791 296.86543,74.307011 C 296.67403,74.149441 296.50563,73.993761 296.31423,73.836183 C 292.65069,73.535437 289.61128,74.508959 287.81167,76.90315 C 287.5622,76.97465 287.30234,77.04919 287.05286,77.12073 C 287.49058,74.802609 290.20189,73.940181 292.84387,73.267579 C 295.90443,72.91689 297.12263,72.77153 299.63113,75.28167 C 298.95963,75.37231 298.29843,75.459821 297.62473,75.542539 C 296.07963,74.940276 295.58913,75.191409 294.67633,75.34266 C 294.81373,75.82168 294.70433,76.3801 294.32143,77.00814 C 293.82993,77.41253 293.28715,77.55967 292.56454,77.70739 L 292.56454,77.70739 L 292.56452,77.7074 z"
         id="path4700"
         style="fill:#000000;fill-rule:evenodd;stroke:none" />
      <path
         inkscape:connector-curvature="0"
         d="M 267.89732,82.50303 C 267.53929,81.25443 271.94232,79.77941 273.85541,80.17417 C 273.88241,80.26837 273.90941,80.36264 273.96574,80.55897 C 273.6789,80.53927 273.40229,80.51657 273.14245,80.59107 C 271.31993,80.9437 269.55909,81.5506 267.89732,82.50302 L 267.89732,82.50302 L 267.89732,82.50303 z"
         id="path4702"
         style="fill:#ffffff;fill-rule:evenodd;stroke:none" />
      <path
         inkscape:connector-curvature="0"
         d="M 299.52763,71.820689 C 298.16353,71.378988 296.78903,70.940262 295.58713,70.554049 C 294.76383,70.586149 294.06313,70.574619 293.41241,70.659223 C 292.26898,70.987094 291.23991,71.282175 290.22123,71.574278 C 288.00731,72.523559 284.70225,74.924505 284.12842,74.885083 C 284.04512,74.594533 283.96179,74.303984 283.90775,74.115513 C 286.86342,71.908235 291.98118,68.571073 297.15883,69.797422 C 298.13833,70.349414 299.27993,70.956884 300.42163,71.564352 C 300.03703,71.674636 299.77713,71.749154 299.52763,71.820689 L 299.52763,71.820689 L 299.52763,71.820689 z"
         id="path4704"
         style="fill:#000000;fill-rule:evenodd;stroke:none" />
      <path
         style="fill:#ffffff;stroke:none"
         d="M 248.07241,114.86787 C 245.72522,122.11616 247.94311,126.16888 249.39649,130.75677 C 252.75698,136.07322 257.77641,140.33397 257.07612,148.23455 C 259.27399,123.83577 263.24982,105.76838 259.72427,79.64748 C 253.68514,90.84882 251.03318,102.89694 248.07241,114.86787 L 248.07241,114.86787 z"
         id="path4706"
         sodipodi:nodetypes="ccccc" />
      <path
         style="fill:#ffffff;stroke:none"
         d="M 308.50583,71.069271 C 308.84033,78.80131 308.83633,86.46547 309.17083,94.87738 C 313.41113,91.6541 315.03893,85.22925 314.98963,80.36584 C 315.71023,77.59026 311.25773,73.421431 308.50583,71.069271 L 308.50583,71.069271 z"
         id="path4708"
         sodipodi:nodetypes="cccc" />
      <path
         style="fill:#ffffff;stroke:none"
         d="M 230.84444,134.87265 L 245.34291,122.37731 C 245.21986,124.76064 246.75285,130.28195 248.79301,133.11356 C 252.60617,137.56758 254.16925,139.92963 255.72006,144.38365 C 256.43755,148.05082 254.68737,150.14261 250.23824,152.22005 C 248.80158,141.17844 245.08078,138.56883 235.53727,132.58971 L 230.84444,134.87265 L 230.84444,134.87265 z"
         id="path4710"
         sodipodi:nodetypes="ccccccc" />
      <path
         style="fill:#ffffff;stroke:none"
         d="M 257.51607,54.11708 C 257.10207,62.739162 256.46372,71.823558 255.59783,75.697308 L 252.56061,89.28486 C 252.14493,77.56227 252.0751,65.839673 257.51607,54.11708 L 257.51607,54.11708 z"
         id="path4712"
         sodipodi:nodetypes="cscc" />
      <path
         style="fill:#ffffff;stroke:none"
         d="M 252.40076,92.96149 C 255.94873,81.33442 258.54741,71.550586 258.95475,53.157959 C 264.70742,40.459463 274.73449,36.561208 287.72839,38.77114 C 293.73663,38.537 297.91033,42.889102 302.27503,46.763817 C 307.01273,51.864179 313.06163,54.716856 315.06333,64.50756 L 328.33123,96.15856 L 341.11953,128.44898 L 323.21593,119.17747 L 312.34583,93.92061 C 320.96783,81.00364 314.22043,74.237843 311.38673,71.860823 C 301.51363,63.578944 297.19593,62.089007 289.96634,50.920009 C 289.1207,49.613577 287.83893,48.19019 286.28971,48.042645 L 276.21894,47.083524 C 273.13408,46.789728 269.55357,48.679224 267.26714,51.719277 C 265.24365,54.409724 264.67996,58.318125 261.83212,60.830929 L 259.11461,63.228732 L 258.7949,72.340384 C 258.48328,81.22136 258.24119,77.63581 252.40076,92.96149 L 252.40076,92.96149 z"
         id="path4714"
         sodipodi:nodetypes="cccccccccsssssscsc" />
      <path
         style="fill:#ffffff;stroke:none"
         d="M 309.14873,96.95783 L 314.26403,119.17747 L 321.29763,119.17747 L 311.22683,95.03959 L 309.14873,96.95783 L 309.14873,96.95783 z"
         id="path4716"
         sodipodi:nodetypes="ccccc" />
      <path
         style="fill:#ffffff;stroke:none"
         d="M 261.69457,119.70858 C 274.47848,127.35075 291.96665,134.27669 313.35093,121.51712 L 313.46393,125.81239 C 291.53182,137.12847 272.51077,131.36733 261.24243,122.53442 L 261.69457,119.70858 z"
         id="path4718"
         sodipodi:nodetypes="ccccc" />
      <path
         style="fill:#000000;stroke:none"
         d="M 263.5031,126.37756 L 265.31164,127.28183 L 262.1467,144.46292 L 263.5031,126.37756 L 263.5031,126.37756 z"
         id="path4720" />
      <path
         style="fill:#000000;stroke:none"
         d="M 267.79838,128.63823 L 271.41545,129.99463 C 266.10445,148.32804 266.05937,168.166 263.95524,187.41566 C 264.75957,168.5723 263.75272,152.5751 267.79838,128.63823 z"
         id="path4722"
         sodipodi:nodetypes="cccc" />
      <path
         style="fill:#000000;stroke:none"
         d="M 274.35432,131.5771 L 275.93679,132.02923 C 275.93679,132.02923 273.18265,149.14691 269.83298,184.70286 C 269.72446,185.85474 272.03249,132.64227 274.35432,131.5771 L 274.35432,131.5771 z"
         id="path4724"
         sodipodi:nodetypes="ccsc" />
      <path
         style="fill:#000000;stroke:none"
         d="M 278.87566,132.70744 L 277.9714,164.58289 L 280.006,132.70744 L 278.87566,132.70744 z"
         id="path4726" />
      <path
         style="fill:#000000;stroke:none"
         d="M 290.85722,133.83777 L 290.85722,149.4364 L 289.50082,133.83777 L 290.85722,133.83777 L 290.85722,133.83777 z"
         id="path4728" />
      <path
         style="fill:#000000;stroke:none"
         d="M 283.62307,133.83777 L 285.65768,133.38564 L 286.56194,193.06734 L 283.62307,133.83777 z"
         id="path4730" />
      <path
         style="fill:#000000;stroke:none"
         d="M 307.93293,130.1793 C 312.59333,160.24832 309.23783,183.38608 311.76333,198.74433 C 312.30103,202.01389 313.73713,209.75423 310.99723,211.57633 C 303.99473,184.76319 312.65713,205.83066 306.59223,131.13691 L 307.93293,130.1793 L 307.93293,130.1793 z"
         id="path4734"
         sodipodi:nodetypes="csccc" />
      <path
         style="fill:#000000;stroke:none"
         d="M 267.50908,195.71561 C 267.59678,204.23612 271.95938,211.85168 281.50908,214.05936 L 280.35283,214.84061 C 276.81116,214.08019 272.39135,211.07845 270.09747,212.18972 C 266.93564,213.33996 266.78372,216.19858 267.72783,218.96561 C 267.3495,215.55745 268.75792,213.94029 270.85417,213.16539 C 274.79576,214.29295 278.72256,215.21611 282.07158,216.93436 C 282.15488,215.80975 282.16258,215.08733 283.16533,214.27811 C 284.84929,212.91917 288.31515,214.5281 290.88408,214.65311 L 293.19658,216.74686 C 296.01543,214.91515 298.81913,213.08633 303.13403,214.24686 C 302.26363,212.25475 304.09083,209.10913 304.50903,207.27811 C 303.62163,208.78872 302.31693,210.69547 301.04033,211.59061 C 298.71753,213.21937 295.63263,213.75271 292.97783,213.62186 C 289.22696,213.437 285.56069,212.6892 281.72783,212.46561 C 274.58046,212.04867 269.02819,203.04037 267.50908,195.71561 z"
         id="path4736"
         sodipodi:nodetypes="cccccccsccccsssc" />
      <path
         style="fill:#000000;stroke:none"
         d="M 306.40073,215.78983 C 311.34413,215.67421 316.89963,217.51702 319.42423,209.66111 L 319.80733,211.76786 C 318.21973,218.62786 312.29813,216.09729 307.93293,216.93896 L 306.40073,215.78983 L 306.40073,215.78983 z"
         id="path4738"
         sodipodi:nodetypes="ccccc" />
      <path
         style="fill:#000000;stroke:none"
         d="M 269.3848,222.0967 C 269.5887,222.61231 269.56772,224.35047 269.91883,224.7796 C 269.91883,224.7796 270.26535,225.4009 271.04819,225.79312 C 274.51527,227.51118 277.01632,225.92854 280.1044,224.12973 C 280.1044,224.12973 277.53918,223.44151 276.22317,223.39045 C 275.66571,223.36885 274.90828,223.13964 274.55978,223.57527 L 273.8205,224.49937 C 273.62426,224.74467 273.12731,224.52747 272.89639,224.31455 C 272.56667,224.01051 272.1256,223.22139 272.52675,223.02081 C 273.14282,222.71277 273.70819,222.26948 274.37496,222.0967 C 275.74791,221.74093 277.22403,221.69622 278.62584,221.91188 C 278.62584,221.91188 282.37593,221.42117 283.43117,222.65117 C 284.39391,223.77335 282.00253,226.70589 283.43117,227.08686 C 283.43117,227.08686 285.81066,226.95415 286.20349,227.82615 C 286.31666,228.07735 286.10879,228.58262 285.83384,228.56543 C 285.83384,228.56543 283.77693,228.78685 282.87671,228.38061 C 282.32081,228.12975 281.52228,227.69371 281.58297,227.08686 L 281.76779,225.23866 L 275.85352,228.56543 C 275.85352,228.56543 273.09364,228.92722 271.78747,228.56543 C 270.74889,228.27776 269.49712,227.86594 269.01516,226.90204 C 269.01516,226.90204 268.44627,225.9475 268.27587,225.42348 C 267.92821,224.35436 268.33817,223.0366 267.72141,222.0967 L 269.3848,222.0967 L 269.3848,222.0967 z"
         id="path4742"
         sodipodi:nodetypes="csccsssssssssssssccssscc" />
      <path
         style="fill:#000000;stroke:none"
         d="M 321.50423,215.44316 L 321.50423,220.2485 L 308.56683,217.84583 C 312.88953,217.06803 319.04963,220.42417 321.50423,215.44316 z"
         id="path4744"
         sodipodi:nodetypes="cccc" />
      <path
         style="fill:#000000;stroke:none"
         d="M 310.41503,223.94491 L 322.05873,226.90204 L 323.72213,240.02432 C 322.08203,232.88545 317.47533,227.6345 310.41503,223.94491 L 310.41503,223.94491 z"
         id="path4746"
         sodipodi:nodetypes="cccc" />
      <path
         style="fill:#000000;stroke:none"
         d="M 293.59632,218.40029 L 293.96593,220.80296 C 294.59273,220.48762 299.02853,221.55737 305.05523,223.20563 L 304.50073,222.28153 C 302.05833,219.79543 297.98923,218.93595 293.59632,218.40029 z"
         id="path4748"
         sodipodi:nodetypes="ccccc" />
      <path
         style="fill:#000000;stroke:none"
         d="M 282.87671,216.36726 C 284.23141,215.2835 284.59072,220.25181 283.43117,221.54224 C 283.18411,221.81719 282.35295,221.9106 282.32225,221.54224 C 282.32225,221.54224 282.86621,219.18579 282.13743,219.32439 C 279.57954,219.81087 277.30562,219.20188 274.7446,217.66101 C 276.9265,218.27878 280.68886,219.14092 282.13743,218.03065 C 282.38676,217.83955 281.70731,217.30278 281.95261,217.10654 L 282.87671,216.36726 z"
         id="path4750"
         sodipodi:nodetypes="cssscsss" />
      <path
         style="fill:#000000;stroke:none"
         d="M 307.22383,217.75093 C 306.54823,221.20414 313.14603,227.7828 303.33993,227.46056 C 299.98893,227.35044 296.73743,224.93881 293.43612,222.99413 C 295.32953,225.61976 298.94473,228.14724 304.11673,228.62572 C 313.92333,229.53297 308.48923,222.80109 308.00053,218.91609 L 307.22383,217.75093 z"
         id="path4752"
         sodipodi:nodetypes="cscscc" />
      <path
         style="fill:#000000;stroke:none"
         d="M 263.03596,168.85656 C 263.03596,168.85656 262.12714,172.78496 260.94745,174.98687 C 259.27536,178.10796 256.69773,181.39455 255.14305,184.55056 C 254.33559,186.18973 251.42003,188.63177 249.70195,190.76639 C 247.88396,192.93024 240.2358,200.10326 239.53791,202.26414 C 238.12556,206.63722 235.83514,208.11693 237.93099,211.99336 C 239.12148,214.19515 242.93667,226.96117 248.0802,227.42733 C 250.20156,227.6196 254.48584,216.89077 257.01705,214.47547 C 265.30168,206.57019 281.50298,212.55461 288.57363,207.72014 C 291.02593,205.62277 291.89746,202.06276 288.82156,201.78638 C 290.84211,200.18896 295.69144,198.07894 292.41433,193.21036 C 296.80389,190.12547 294.62011,185.64971 291.15738,185.9893 C 285.45183,188.08824 281.89467,188.93909 276.89559,189.80171 C 282.13399,187.82845 282.85905,187.84199 288.68871,185.34175 C 291.21675,184.25755 291.89199,178.49135 285.11762,179.87529 C 277.47209,181.43715 273.58348,183.04531 266.20204,184.46148 C 265.29123,184.41018 266.0664,184.55068 266.13844,183.15026 C 267.94684,177.58364 268.85136,171.26829 263.03597,168.85656 L 263.03596,168.85656 L 263.03596,168.85656 z"
         id="path4980"
         sodipodi:nodetypes="csscsssscccccsscccc" />
      <path
         sodipodi:nodetypes="csscscssccccccssccc"
         id="path4969"
         d="M 263.56752,171.75082 C 263.56752,171.75082 262.59518,176.26599 261.54877,178.16332 C 260.06559,180.85269 257.75529,182.89771 256.37626,185.61717 C 255.66002,187.0296 253.55439,190.37748 252.03042,192.21684 C 250.41782,194.08138 244.48162,198.15564 243.50984,199.86029 C 240.17443,205.71111 239.45082,207.88887 239.55033,210.81957 C 240.60632,212.71681 240.62917,222.35351 244.84252,224.14926 C 246.83837,224.9999 254.58323,214.38516 256.82846,212.30395 C 264.17711,205.49214 281.72851,211.64219 288.00033,206.09926 C 290.17557,204.292 289.11961,201.60819 282.98315,202.62582 C 292.0866,200.75751 294.82909,192.36429 288.11908,193.8977 C 295.79708,190.32621 293.62497,187.10351 290.55346,187.39613 C 284.5486,189.17834 278.93258,191.49822 271.67221,191.5227 L 271.4644,190.92895 C 276.11097,189.22864 281.58243,186.84897 286.75346,184.69457 C 288.99589,183.76033 290.50621,180.26614 284.49721,181.45863 C 277.71545,182.80446 272.7572,185.10711 266.20971,186.32738 C 265.4018,186.28308 264.42395,186.46537 264.48783,185.25868 C 266.09193,180.46204 268.06111,173.90969 263.56752,171.75082 L 263.56752,171.75082 z"
         style="fill:#ffffff;stroke:none" />
      <path
         sodipodi:nodetypes="cc"
         id="path4975"
         d="M 291.34028,192.86902 C 284.33994,196.3988 278.98554,197.32313 274.15692,198.14785"
         style="fill:#fcef3c;stroke:#000000;stroke-width:1px;stroke-linecap:butt;stroke-linejoin:miter;stroke-opacity:1" />
      <path
         sodipodi:nodetypes="cc"
         id="path4977"
         d="M 275.42173,204.05031 C 279.03826,204.36128 285.29191,202.60321 287.3319,201.74327"
         style="fill:#fcef3c;stroke:#000000;stroke-width:1px;stroke-linecap:butt;stroke-linejoin:miter;stroke-opacity:1" />
      <path
         sodipodi:nodetypes="cccccc"
         id="path4756"
         d="M 257.53996,213.92842 C 256.71255,222.98669 257.03963,262.09826 252.41816,267.36247 L 249.51936,267.13948 L 245.7286,228.19947 L 252.3487,254.33848 L 257.53996,213.92842 L 257.53996,213.92842 z"
         style="fill:#ffffff;stroke:none" />
      <path
         style="fill:#ffffff;stroke:none"
         d="M 200.55208,250.17397 L 208.98778,257.94959 L 203.32439,365.68691 C 197.88761,362.78926 192.09134,357.33414 192.41997,347.20483 C 192.62319,346.28678 199.25833,263.34242 200.55208,250.17393 L 200.55208,250.17397 L 200.55208,250.17397 z"
         id="path4770"
         sodipodi:nodetypes="cccccc" />
      <path
         style="fill:#ffffff;stroke:none"
         d="M 210.83598,265.8112 C 210.87658,263.8805 212.68419,260.4976 212.68419,260.4976 C 217.00128,270.424 217.60421,279.83587 225.43933,283.4298 L 220.63605,383.67522 C 218.18432,379.80586 225.72089,381.31814 205.72706,367.99721 C 205.72706,367.99721 210.12835,299.42667 210.83598,265.8112 z"
         id="path4772"
         sodipodi:nodetypes="cccccs" />
      <path
         style="fill:#ffffff;stroke:none"
         d="M 197.77977,365.14567 L 197.59495,395.02725 C 197.91675,397.50604 198.67794,398.96417 200.64831,397.9103 C 205.98517,395.55946 212.85298,396.23787 217.55559,392.25494 C 219.13994,390.91305 220.69754,386.24826 220.69754,386.24826 L 209.97794,389.48262 C 215.18584,383.43417 211.80214,380.24959 209.97794,376.54517 L 197.77977,365.14567 z"
         id="path4774"
         sodipodi:nodetypes="cccscccc" />
      <path
         style="fill:#ffffff;stroke:none"
         d="M 205.35742,397.56854 C 199.60225,399.44929 191.99682,402.2352 198.70387,412.3542 C 204.55525,423.36644 220.31111,426.10401 220.25461,439.56744 L 218.47969,394.10315 L 209.97794,397.10649 L 209.79312,411.43009 L 205.72706,407.0406 L 205.35742,397.56854 L 205.35742,397.56854 z"
         id="path4776"
         sodipodi:nodetypes="cccccccc" />
      <path
         style="fill:#ffffff;stroke:none"
         d="M 207.94491,451.39757 C 207.94491,451.39757 204.52167,433.58456 209.42347,429.68114 C 211.08372,428.35904 213.84759,430.19927 214.9681,432.22242 C 214.9681,432.22242 216.32999,434.06794 216.63148,435.22576 C 217.43255,438.30217 216.8163,444.92885 216.8163,444.92885 L 207.94491,451.39757 L 207.94491,451.39757 z"
         id="path4778"
         sodipodi:nodetypes="cssscc" />
      <path
         style="fill:#ffffff;stroke:none"
         d="M 216.06937,448.12496 L 217.00112,498.06481 C 215.22594,489.75642 215.34362,479.67349 209.97794,474.7312 C 209.97794,474.7312 210.57195,458.06476 213.85152,450.66625 C 214.33758,449.56971 216.06937,448.12496 216.06937,448.12496 L 216.06937,448.12496 z"
         id="path4780"
         sodipodi:nodetypes="cccsc" />
    </g>
  </g>
  <g
     inkscape:groupmode="layer"
     id="layer2"
     inkscape:label="Reflet final"
     sodipodi:insensitive="true">
    <path
       sodipodi:nodetypes="cccccc"
       d="M 300.00001,658.5 C 300.00001,658.5 598.50001,546.17969 598.50001,260.72817 C 598.50001,-24.723334 598.50001,2.1764865 598.50001,2.1764865 L 1.5,2.1764865 L 1.5,260.72817 C 1.5,546.17969 300.00001,658.5 300.00001,658.5 z "
       style="opacity:1;fill:url(#radialGradient3163);fill-opacity:1;fill-rule:evenodd;stroke:none;stroke-width:1px;stroke-linecap:butt;stroke-linejoin:miter;stroke-opacity:1"
       id="path2875"
       inkscape:export-xdpi="144"
       inkscape:export-ydpi="144" />
  </g>
  <g
     inkscape:groupmode="layer"
     id="layer1"
     inkscape:label="Contour final"
     sodipodi:insensitive="true">
    <path
       sodipodi:nodetypes="cccccc"
       d="M 299.99999,658.50028 C 299.99999,658.50028 1.5,546.17992 1.5,260.72828 C 1.5,-24.723336 1.5,2.1764957 1.5,2.1764957 L 598.49999,2.1764957 L 598.49999,260.72828 C 598.49999,546.17992 299.99999,658.50028 299.99999,658.50028 z "
       style="opacity:1;fill:none;fill-opacity:1;fill-rule:evenodd;stroke:#000000;stroke-width:3.00000048;stroke-linecap:butt;stroke-linejoin:miter;stroke-miterlimit:4;stroke-dasharray:none;stroke-opacity:1"
       id="path1411"
       inkscape:export-xdpi="144"
       inkscape:export-ydpi="144" />
  </g>
</svg>
