<?xml version="1.0" encoding="UTF-8" standalone="no"?>
<svg
   xmlns:dc="http://purl.org/dc/elements/1.1/"
   xmlns:cc="http://web.resource.org/cc/"
   xmlns:rdf="http://www.w3.org/1999/02/22-rdf-syntax-ns#"
   xmlns:svg="http://www.w3.org/2000/svg"
   xmlns="http://www.w3.org/2000/svg"
   xmlns:xlink="http://www.w3.org/1999/xlink"
   xmlns:sodipodi="http://sodipodi.sourceforge.net/DTD/sodipodi-0.dtd"
   xmlns:inkscape="http://www.inkscape.org/namespaces/inkscape"
   height="660"
   width="600"
   version="1.0"
   id="svg2"
   sodipodi:version="0.32"
   inkscape:version="0.44.1"
   sodipodi:docname="billas.svg"
   sodipodi:docbase="C:\Documents and Settings\Matthieu\Mes documents\Mes images\Inkscape"
   inkscape:export-filename="/Users/olivier/Desktop/Blason Rouge/Blason_Vide_3D.png"
   inkscape:export-xdpi="144"
   inkscape:export-ydpi="144">
  <metadata
     id="metadata49">
    <rdf:RDF>
      <cc:Work
         rdf:about="">
        <dc:format>image/svg+xml</dc:format>
        <dc:type
           rdf:resource="http://purl.org/dc/dcmitype/StillImage" />
        <dc:title>Gabarit d'un blason en pointe pour le projet Blasons de Wikipédia</dc:title>
        <dc:date>03-AUG-2006</dc:date>
        <dc:creator>
          <cc:Agent>
            <dc:title>Jérôme BLUM (wagner51)</dc:title>
          </cc:Agent>
        </dc:creator>
        <cc:license
           rdf:resource="http://web.resource.org/cc/PublicDomain" />
        <dc:language>fr</dc:language>
        <dc:subject>
          <rdf:Bag>
            <rdf:li>gabarit modèle blason projet wikipédia</rdf:li>
          </rdf:Bag>
        </dc:subject>
      </cc:Work>
      <cc:License
         rdf:about="http://web.resource.org/cc/PublicDomain">
        <cc:permits
           rdf:resource="http://web.resource.org/cc/Reproduction" />
        <cc:permits
           rdf:resource="http://web.resource.org/cc/Distribution" />
        <cc:permits
           rdf:resource="http://web.resource.org/cc/DerivativeWorks" />
      </cc:License>
    </rdf:RDF>
  </metadata>
  <sodipodi:namedview
     inkscape:window-height="573"
     inkscape:window-width="853"
     inkscape:pageshadow="2"
     inkscape:pageopacity="0.0"
     guidetolerance="10.0"
     gridtolerance="10.0"
     objecttolerance="10.0"
     borderopacity="1.0"
     bordercolor="#666666"
     pagecolor="#ffffff"
     id="base"
     showgrid="false"
     height="660px"
     inkscape:zoom="0.38521752"
     inkscape:cx="340.85647"
     inkscape:cy="376.3262"
     inkscape:window-x="-4"
     inkscape:window-y="-4"
     inkscape:current-layer="layer3"
     showguides="true"
     inkscape:guide-bbox="true" />
  <desc
     id="desc4">Flag of Canton of Valais (Wallis)</desc>
  <defs
     id="defs6">
    <linearGradient
       id="linearGradient2893">
      <stop
         style="stop-color:white;stop-opacity:0.3137255;"
         offset="0"
         id="stop2895" />
      <stop
         id="stop2897"
         offset="0.19"
         style="stop-color:white;stop-opacity:0.25098041;" />
      <stop
         style="stop-color:#6b6b6b;stop-opacity:0.1254902;"
         offset="0.60000002"
         id="stop2901" />
      <stop
         style="stop-color:black;stop-opacity:0.1254902;"
         offset="1"
         id="stop2899" />
    </linearGradient>
    <linearGradient
       id="linearGradient2885">
      <stop
         id="stop2887"
         offset="0"
         style="stop-color:white;stop-opacity:1;" />
      <stop
         style="stop-color:white;stop-opacity:1;"
         offset="0.22857143"
         id="stop2891" />
      <stop
         id="stop2889"
         offset="1"
         style="stop-color:black;stop-opacity:1;" />
    </linearGradient>
    <linearGradient
       id="linearGradient2955">
      <stop
         id="stop2867"
         offset="0"
         style="stop-color:#fd0000;stop-opacity:1;" />
      <stop
         style="stop-color:#e77275;stop-opacity:0.65882355;"
         offset="0.5"
         id="stop2873" />
      <stop
         style="stop-color:black;stop-opacity:0.32291666;"
         offset="1"
         id="stop2959" />
    </linearGradient>
    <radialGradient
       inkscape:collect="always"
       xlink:href="#linearGradient2955"
       id="radialGradient2961"
       cx="225.52438"
       cy="218.90099"
       fx="225.52438"
       fy="218.90099"
       r="300"
       gradientTransform="matrix(-4.167939e-4,2.182867,-1.884232,-3.599562e-4,615.5972,-289.1214)"
       gradientUnits="userSpaceOnUse" />
    <polygon
       id="star"
       transform="scale(53,53)"
       points="0,-1 0.58778525,0.80901699 -0.95105652,-0.30901699 0.95105652,-0.30901699 -0.58778525,0.80901699 0,-1 " />
    <clipPath
       id="clip">
      <path
         d="M 0,-200 L 0,600 L 300,600 L 300,-200 L 0,-200 z "
         id="path10" />
    </clipPath>
    <radialGradient
       inkscape:collect="always"
       xlink:href="#linearGradient2955"
       id="radialGradient1911"
       gradientUnits="userSpaceOnUse"
       gradientTransform="matrix(-4.167939e-4,2.182867,-1.884232,-3.599562e-4,615.5972,-289.1214)"
       cx="225.52438"
       cy="218.90099"
       fx="225.52438"
       fy="218.90099"
       r="300" />
    <radialGradient
       inkscape:collect="always"
       xlink:href="#linearGradient2955"
       id="radialGradient2865"
       gradientUnits="userSpaceOnUse"
       gradientTransform="matrix(0,1.748721,-1.593162,-1.049767e-7,551.7876,-191.2898)"
       cx="225.52438"
       cy="218.90099"
       fx="225.52438"
       fy="218.90099"
       r="300" />
    <radialGradient
       inkscape:collect="always"
       xlink:href="#linearGradient2955"
       id="radialGradient2871"
       gradientUnits="userSpaceOnUse"
       gradientTransform="matrix(0,1.386237,-1.323286,-5.741131e-8,-158.0823,-109.5408)"
       cx="225.52438"
       cy="218.90099"
       fx="225.52438"
       fy="218.90099"
       r="300" />
    <radialGradient
       inkscape:collect="always"
       xlink:href="#linearGradient2893"
       id="radialGradient3163"
       gradientUnits="userSpaceOnUse"
       gradientTransform="matrix(1.353218,0,0,1.348928,-77.62935,-85.74693)"
       cx="221.44487"
       cy="226.33101"
       fx="221.44487"
       fy="226.33101"
       r="300" />
    <linearGradient
       id="linearGradient9507">
      <stop
         style="stop-color:white;stop-opacity:0.3137255"
         offset="0"
         id="stop9509" />
      <stop
         style="stop-color:white;stop-opacity:0.25098041"
         offset="0.19"
         id="stop9511" />
      <stop
         style="stop-color:#6b6b6b;stop-opacity:0.1254902"
         offset="0.60000002"
         id="stop9513" />
      <stop
         style="stop-color:black;stop-opacity:0.1254902"
         offset="1"
         id="stop9515" />
    </linearGradient>
    <linearGradient
       id="linearGradient9517">
      <stop
         style="stop-color:white;stop-opacity:1"
         offset="0"
         id="stop9519" />
      <stop
         style="stop-color:white;stop-opacity:1"
         offset="0.22857143"
         id="stop9521" />
      <stop
         style="stop-color:black;stop-opacity:1"
         offset="1"
         id="stop9523" />
    </linearGradient>
    <linearGradient
       id="linearGradient9525">
      <stop
         style="stop-color:#fd0000;stop-opacity:1"
         offset="0"
         id="stop9527" />
      <stop
         style="stop-color:#e77275;stop-opacity:0.65882355"
         offset="0.5"
         id="stop9529" />
      <stop
         style="stop-color:black;stop-opacity:0.32291666"
         offset="1"
         id="stop9531" />
    </linearGradient>
    <radialGradient
       cx="225.52438"
       cy="218.90099"
       r="300"
       fx="225.52438"
       fy="218.90099"
       id="radialGradient9533"
       xlink:href="#linearGradient2955"
       gradientUnits="userSpaceOnUse"
       gradientTransform="matrix(-4.167939e-4,2.182867,-1.884232,-3.599562e-4,615.5972,-289.1214)" />
    <polygon
       points="0,-1 0.58778525,0.80901699 -0.95105652,-0.30901699 0.95105652,-0.30901699 -0.58778525,0.80901699 0,-1 "
       transform="scale(53,53)"
       id="polygon9535" />
    <clipPath
       id="clipPath9537">
      <path
         d="M 0,-200 L 0,600 L 300,600 L 300,-200 L 0,-200 z "
         id="path9539" />
    </clipPath>
    <radialGradient
       cx="225.52438"
       cy="218.90099"
       r="300"
       fx="225.52438"
       fy="218.90099"
       id="radialGradient9541"
       xlink:href="#linearGradient2955"
       gradientUnits="userSpaceOnUse"
       gradientTransform="matrix(-4.167939e-4,2.182867,-1.884232,-3.599562e-4,615.5972,-289.1214)" />
    <radialGradient
       cx="225.52438"
       cy="218.90099"
       r="300"
       fx="225.52438"
       fy="218.90099"
       id="radialGradient9543"
       xlink:href="#linearGradient2955"
       gradientUnits="userSpaceOnUse"
       gradientTransform="matrix(0,1.748721,-1.593162,-1.049767e-7,551.7876,-191.2898)" />
    <radialGradient
       cx="225.52438"
       cy="218.90099"
       r="300"
       fx="225.52438"
       fy="218.90099"
       id="radialGradient9545"
       xlink:href="#linearGradient2955"
       gradientUnits="userSpaceOnUse"
       gradientTransform="matrix(0,1.386237,-1.323286,-5.741131e-8,-158.0823,-109.5408)" />
    <radialGradient
       cx="221.44487"
       cy="226.33101"
       r="300"
       fx="221.44487"
       fy="226.33101"
       id="radialGradient9547"
       xlink:href="#linearGradient2893"
       gradientUnits="userSpaceOnUse"
       gradientTransform="matrix(1.353218,0,0,1.348928,-77.62935,-85.74693)" />
    <radialGradient
       r="300"
       fy="226.33101"
       fx="221.44487"
       cy="226.33101"
       cx="221.44487"
       gradientTransform="matrix(1.353218,0,0,1.348928,-77.62935,-85.74693)"
       gradientUnits="userSpaceOnUse"
       id="radialGradient3474"
       xlink:href="#linearGradient2893"
       inkscape:collect="always" />
    <radialGradient
       r="300"
       fy="218.90099"
       fx="225.52438"
       cy="218.90099"
       cx="225.52438"
       gradientTransform="matrix(0,1.386237,-1.323286,-5.741131e-8,-158.0823,-109.5408)"
       gradientUnits="userSpaceOnUse"
       id="radialGradient3472"
       xlink:href="#linearGradient2955"
       inkscape:collect="always" />
    <radialGradient
       r="300"
       fy="218.90099"
       fx="225.52438"
       cy="218.90099"
       cx="225.52438"
       gradientTransform="matrix(0,1.748721,-1.593162,-1.049767e-7,551.7876,-191.2898)"
       gradientUnits="userSpaceOnUse"
       id="radialGradient3470"
       xlink:href="#linearGradient2955"
       inkscape:collect="always" />
    <radialGradient
       r="300"
       fy="218.90099"
       fx="225.52438"
       cy="218.90099"
       cx="225.52438"
       gradientTransform="matrix(-4.167939e-4,2.182867,-1.884232,-3.599562e-4,615.5972,-289.1214)"
       gradientUnits="userSpaceOnUse"
       id="radialGradient3468"
       xlink:href="#linearGradient2955"
       inkscape:collect="always" />
    <clipPath
       id="clipPath3464">
      <path
         id="path3466"
         d="M 0,-200 L 0,600 L 300,600 L 300,-200 L 0,-200 z " />
    </clipPath>
    <polygon
       points="0,-1 0.58778525,0.80901699 -0.95105652,-0.30901699 0.95105652,-0.30901699 -0.58778525,0.80901699 0,-1 "
       transform="scale(53,53)"
       id="polygon3462" />
    <radialGradient
       gradientUnits="userSpaceOnUse"
       gradientTransform="matrix(-4.167939e-4,2.182867,-1.884232,-3.599562e-4,615.5972,-289.1214)"
       r="300"
       fy="218.90099"
       fx="225.52438"
       cy="218.90099"
       cx="225.52438"
       id="radialGradient3460"
       xlink:href="#linearGradient2955"
       inkscape:collect="always" />
    <linearGradient
       id="linearGradient3452">
      <stop
         style="stop-color:#fd0000;stop-opacity:1;"
         offset="0"
         id="stop3454" />
      <stop
         id="stop3456"
         offset="0.5"
         style="stop-color:#e77275;stop-opacity:0.65882355;" />
      <stop
         id="stop3458"
         offset="1"
         style="stop-color:black;stop-opacity:0.32291666;" />
    </linearGradient>
    <linearGradient
       id="linearGradient3444">
      <stop
         style="stop-color:white;stop-opacity:1;"
         offset="0"
         id="stop3446" />
      <stop
         id="stop3448"
         offset="0.22857143"
         style="stop-color:white;stop-opacity:1;" />
      <stop
         style="stop-color:black;stop-opacity:1;"
         offset="1"
         id="stop3450" />
    </linearGradient>
    <linearGradient
       id="linearGradient3434">
      <stop
         id="stop3436"
         offset="0"
         style="stop-color:white;stop-opacity:0.3137255;" />
      <stop
         style="stop-color:white;stop-opacity:0.25098041;"
         offset="0.19"
         id="stop3438" />
      <stop
         id="stop3440"
         offset="0.60000002"
         style="stop-color:#6b6b6b;stop-opacity:0.1254902;" />
      <stop
         id="stop3442"
         offset="1"
         style="stop-color:black;stop-opacity:0.1254902;" />
    </linearGradient>
  </defs>
  <g
     inkscape:groupmode="layer"
     id="layer3"
     inkscape:label="Fond écu"
     style="display:inline">
    <path
       id="path2855"
       style="fill:white;fill-opacity:1;fill-rule:evenodd;stroke:none;stroke-width:1px;stroke-linecap:butt;stroke-linejoin:miter;stroke-opacity:1"
       d="M 300,658.5 C 300,658.5 598.50001,546.17969 598.50001,260.72817 C 598.50001,-24.723354 598.50001,2.1764765 598.50001,2.1764765 L 1.5,2.1764765 L 1.5,260.72817 C 1.5,546.17969 300,658.5 300,658.5 z "
       sodipodi:nodetypes="cccccc" />
    <g
       id="g3710"
       inkscape:label="Meubles"
       transform="matrix(1.00209,0,0,1.00209,-1.503135,-4.103812)">
      <g
         style="opacity:1"
         transform="translate(29.9149,-1710.963)"
         id="g2119">
        <g
           transform="translate(-1361.835,-74.82611)"
           id="g11024" />
      </g>
    </g>
    <rect
       id="rect3922"
       style="fill:none;fill-opacity:1;fill-rule:nonzero;stroke:none;stroke-width:3;stroke-linecap:round;stroke-linejoin:round;stroke-miterlimit:4;stroke-dasharray:none;stroke-opacity:1"
       y="284.12494"
       x="-218.96829"
       height="660"
       width="600" />
    <path
       style="fill:black;fill-opacity:1;fill-rule:evenodd;stroke:black;stroke-width:3.53962326px;stroke-linecap:butt;stroke-linejoin:miter;stroke-opacity:1;display:inline"
       d="M 483.88585,317.78313 L 484.98378,403.05886 C 361.36445,264.95018 374.35691,588.45726 485.45001,439.27019 L 486.54816,524.56465 C 464.01844,493.20721 438.52259,508.9223 413.77829,515.71406 C 366.12593,529.55647 331.26057,471.36295 333.90891,419.1624 C 336.43409,332.85491 387.84957,325.84479 407.56624,329.04751 C 437.9758,339.82921 467.4226,347.04215 483.88585,317.78313 z "
       id="path20265"
       sodipodi:nodetypes="cccccccc" />
    <path
       style="fill:black;fill-opacity:1;fill-rule:evenodd;stroke:black;stroke-width:3.53962326px;stroke-linecap:butt;stroke-linejoin:miter;stroke-opacity:1;display:inline"
       d="M 216.50446,37.42205 L 217.60239,122.69778 C 93.983058,-15.4109 106.97552,308.09618 218.06862,158.90911 L 219.16677,244.20357 C 196.63705,212.84613 171.1412,228.56122 146.3969,235.35298 C 98.744538,249.19539 63.879178,191.00187 66.527518,138.80132 C 69.052698,52.49383 120.46818,45.48371 140.18485,48.68643 C 170.59441,59.46813 200.04121,66.68107 216.50446,37.42205 z "
       id="path20267"
       sodipodi:nodetypes="cccccccc" />
    <g
       id="g5660"
       transform="matrix(3.739434,0,0,3.984647,-1134.149,-332.5944)">
      <path
         sodipodi:nodetypes="ccccccccccc"
         id="path2068"
         d="M 390.5924,89.837 C 395.45359,92.01329 398.61417,96.46481 408.80209,92.7225 C 412.82166,91.76198 416.72417,90.27471 421.97398,94.85027 C 425.24216,91.49212 428.91772,91.3931 432.82132,93.11834 C 442.59829,95.67105 446.11483,92.65893 450.38247,90.31446 L 450.59922,149.99616 C 444.85701,145.10631 440.14051,146.52286 436.2765,148.51973 C 430.49019,151.87779 425.78679,149.82128 421.2578,146.89271 C 416.29177,150.78333 411.76116,150.3197 407.42965,147.865 C 400.59786,144.80446 394.98625,147.70535 390.70077,151.64719 L 390.5924,89.837 z "
         style="fill:#2b5df2;fill-opacity:1;fill-rule:evenodd;stroke:black;stroke-width:1px;stroke-linecap:butt;stroke-linejoin:miter;stroke-opacity:1" />
      <g
         transform="matrix(0.951194,0,0,1,310.8739,81.95905)"
         id="g2971">
        <g
           id="g2961">
          <path
             sodipodi:nodetypes="cccccc"
             id="path2070"
             d="M 86.657825,32.70557 L 86.657825,41.299735 C 89.461654,39.627017 90.53195,37.052442 98.144168,39.585331 C 105.07238,44.269488 116.76055,42.492402 115.54377,37.002652 C 115.75943,34.397711 110.31511,29.907223 98.060477,34.496069 C 94.259593,35.244267 90.458709,35.7109 86.657825,32.70557 z "
             style="fill:white;fill-opacity:1;fill-rule:evenodd;stroke:black;stroke-width:1px;stroke-linecap:butt;stroke-linejoin:miter;stroke-opacity:1" />
          <path
             id="path2074"
             d="M 109.09814,36.525199 L 110.29178,36.525199"
             style="fill:none;fill-rule:evenodd;stroke:black;stroke-width:1px;stroke-linecap:butt;stroke-linejoin:miter;stroke-opacity:1" />
        </g>
        <g
           id="g2965"
           transform="matrix(-1,0,0,1,231.0121,-0.158848)">
          <path
             sodipodi:nodetypes="cccccc"
             id="path2967"
             d="M 86.657825,32.70557 L 86.657825,41.299735 C 89.461654,39.627017 90.53195,37.052442 98.144168,39.585331 C 105.07238,44.269488 116.76055,42.492402 115.54377,37.002652 C 115.75943,34.397711 110.31511,29.907223 98.060477,34.496069 C 94.259593,35.244267 90.458709,35.7109 86.657825,32.70557 z "
             style="fill:white;fill-opacity:1;fill-rule:evenodd;stroke:black;stroke-width:1px;stroke-linecap:butt;stroke-linejoin:miter;stroke-opacity:1" />
          <path
             id="path2969"
             d="M 109.09814,36.525199 L 110.29178,36.525199"
             style="fill:none;fill-rule:evenodd;stroke:black;stroke-width:1px;stroke-linecap:butt;stroke-linejoin:miter;stroke-opacity:1" />
        </g>
      </g>
      <path
         sodipodi:nodetypes="cscss"
         id="path2979"
         d="M 393.56549,96.0439 C 393.32804,97.37362 400.41677,101.51825 408.35121,98.06588 C 414.64081,95.3292 419.61045,99.10864 421.49653,99.86353 C 423.84151,98.46984 428.94772,95.47374 435.05436,98.41967 C 441.3749,101.46879 446.90251,97.98648 448.29802,96.84618"
         style="fill:none;fill-rule:evenodd;stroke:white;stroke-width:1px;stroke-linecap:butt;stroke-linejoin:miter;stroke-opacity:1" />
      <path
         sodipodi:nodetypes="cscss"
         id="path3866"
         d="M 393.41698,106.78661 C 393.17953,108.11632 400.26826,112.26096 408.2027,108.80858 C 414.4923,106.0719 419.46194,109.85135 421.34802,110.60623 C 423.693,109.21254 428.79921,106.21645 434.90585,109.16237 C 441.22639,112.21149 446.754,108.72918 448.14951,107.58888"
         style="fill:none;fill-rule:evenodd;stroke:white;stroke-width:1px;stroke-linecap:butt;stroke-linejoin:miter;stroke-opacity:1" />
      <path
         sodipodi:nodetypes="cscss"
         id="path3868"
         d="M 393.41698,101.29589 C 393.17953,102.62561 400.26826,106.77024 408.2027,103.31787 C 414.4923,100.58119 419.46194,104.36063 421.34802,105.11552 C 423.693,103.72183 428.79921,100.72573 434.90585,103.67166 C 441.22639,106.72077 446.754,103.23847 448.14951,102.09817"
         style="fill:none;fill-rule:evenodd;stroke:white;stroke-width:1px;stroke-linecap:butt;stroke-linejoin:miter;stroke-opacity:1" />
      <path
         sodipodi:nodetypes="cscss"
         id="path3870"
         d="M 393.17825,130.42056 C 392.94081,129.09084 400.02953,124.94621 407.96398,128.39858 C 414.25358,131.13526 419.22322,127.35582 421.1093,126.60093 C 423.45428,127.99462 428.56049,130.99072 434.66713,128.04479 C 440.98767,124.99567 446.51528,128.47798 447.91079,129.61828"
         style="fill:none;fill-rule:evenodd;stroke:white;stroke-width:1px;stroke-linecap:butt;stroke-linejoin:miter;stroke-opacity:1" />
      <path
         sodipodi:nodetypes="cscss"
         id="path3872"
         d="M 393.89443,144.98289 C 393.65698,143.65318 400.7457,139.50854 408.68016,142.96091 C 414.96976,145.6976 419.9394,141.91815 421.82548,141.16326 C 424.17046,142.55696 429.27667,145.55305 435.38331,142.60713 C 441.70385,139.55801 447.23146,143.04032 448.62697,144.18061"
         style="fill:none;fill-rule:evenodd;stroke:white;stroke-width:1px;stroke-linecap:butt;stroke-linejoin:miter;stroke-opacity:1" />
      <path
         sodipodi:nodetypes="cscss"
         id="path3874"
         d="M 393.89443,137.34363 C 393.65698,136.01392 400.7457,131.86928 408.68016,135.32166 C 414.96976,138.05834 419.9394,134.2789 421.82548,133.52401 C 424.17046,134.9177 429.27667,137.91379 435.38331,134.96787 C 441.70385,131.91875 447.23146,135.40106 448.62697,136.54136"
         style="fill:none;fill-rule:evenodd;stroke:white;stroke-width:1px;stroke-linecap:butt;stroke-linejoin:miter;stroke-opacity:1" />
    </g>
    <g
       id="g10192"
       transform="matrix(3.436902,0,0,3.165801,-30.88067,74.03864)"
       style="stroke:black;stroke-opacity:1;stroke-width:0.9094857;stroke-miterlimit:4;stroke-dasharray:none">
      <path
         sodipodi:nodetypes="ccsccccc"
         id="path7486"
         d="M 30.318302,90.238727 C 33.644459,87.135576 37.074245,84.126631 47.245294,87.246109 C 52.137701,88.703349 58.117526,89.213641 62.706668,85.787246 C 65.596656,83.629491 69.026672,82.006343 73.289124,81.883289 C 70.624298,81.210795 70.991683,78.111812 63.740056,82.599469 C 57.931475,82.99844 52.79458,85.07663 45.835546,82.599469 C 37.349726,77.628268 32.481509,79.375471 28.408488,82.599469 C 25.961799,87.788711 28.495974,88.708642 30.318302,90.238727 z "
         style="fill:#5ab532;fill-opacity:1;fill-rule:evenodd;stroke:black;stroke-width:0.9094857;stroke-linecap:butt;stroke-linejoin:miter;stroke-opacity:1;stroke-miterlimit:4;stroke-dasharray:none" />
      <path
         sodipodi:nodetypes="cc"
         id="path7488"
         d="M 28.408488,82.599469 C 33.255561,82.389542 32.193172,86.316238 30.795756,90.477454"
         style="fill:none;fill-rule:evenodd;stroke:black;stroke-width:0.9094857;stroke-linecap:butt;stroke-linejoin:miter;stroke-opacity:1;stroke-miterlimit:4;stroke-dasharray:none" />
      <path
         sodipodi:nodetypes="cccccc"
         id="path7490"
         d="M 47.506632,87.612732 C 49.715566,91.114058 49.497462,93.899204 49.177719,97.40053 L 52.281167,99.310345 L 52.997348,97.877984 C 52.59947,95.027887 52.201592,92.941896 51.803714,88.328912 L 47.506632,87.612732 z "
         style="fill:#5ab532;fill-opacity:1;fill-rule:evenodd;stroke:black;stroke-width:0.9094857;stroke-linecap:butt;stroke-linejoin:miter;stroke-opacity:1;stroke-miterlimit:4;stroke-dasharray:none" />
      <path
         sodipodi:nodetypes="ccccccccccccccccc"
         id="path7492"
         d="M 40.106101,109.33687 C 34.832422,112.31976 32.018599,116.94255 30.557029,122.46684 C 34.050832,120.73875 37.002157,120.63809 39.867374,120.79576 C 36.920098,126.04775 36.692419,131.29973 38.196286,136.55172 C 41.189155,135.5038 44.093415,134.19006 45.835544,129.38992 C 47.586207,130.98602 49.33687,131.2244 51.087533,135.11936 L 53.952255,130.34483 L 68.275862,117.93103 C 71.538462,117.87314 74.801061,119.44556 78.063661,121.27321 L 75.437666,116.02122 C 80.821743,116.18434 83.401829,114.01081 84.986737,111.00796 C 83.76403,109.45266 82.579048,107.88479 79.496021,106.9496 C 82.938854,102.17507 84.044166,97.40053 84.986737,92.625995 C 81.550537,93.349502 78.023861,93.620632 75.198939,97.40053 C 74.562334,94.208376 73.92573,91.895087 73.289125,89.28382 C 71.996195,91.830239 72.229007,94.376658 68.037135,96.923077 L 40.106101,109.33687 z "
         style="fill:#5ab532;fill-opacity:1;fill-rule:evenodd;stroke:black;stroke-width:0.9094857;stroke-linecap:butt;stroke-linejoin:miter;stroke-opacity:1;stroke-miterlimit:4;stroke-dasharray:none" />
      <g
         transform="translate(0.477484,0.47746)"
         id="g7494"
         style="stroke:black;stroke-opacity:1;stroke-width:0.9094857;stroke-miterlimit:4;stroke-dasharray:none">
        <path
           sodipodi:type="arc"
           style="opacity:1;fill:#d576ad;fill-opacity:1;fill-rule:nonzero;stroke:black;stroke-width:0.62268452;stroke-linecap:round;stroke-linejoin:round;stroke-miterlimit:4;stroke-dasharray:none;stroke-dashoffset:0;stroke-opacity:1"
           id="path5676"
           sodipodi:cx="40.583553"
           sodipodi:cy="104.08488"
           sodipodi:rx="2.8647215"
           sodipodi:ry="2.8647215"
           d="M 43.374705,104.72994 A 2.8647215,2.8647215 0 1 1 43.390466,104.65748"
           sodipodi:start="0.22712082"
           sodipodi:end="6.4844208"
           sodipodi:open="true"
           transform="matrix(1.502833,0,0,1.419531,-19.69062,-43.42815)" />
        <path
           sodipodi:type="arc"
           style="opacity:1;fill:#d576ad;fill-opacity:1;fill-rule:nonzero;stroke:black;stroke-width:0.66471056;stroke-linecap:round;stroke-linejoin:round;stroke-miterlimit:4;stroke-dasharray:none;stroke-dashoffset:0;stroke-opacity:1"
           id="path5678"
           sodipodi:cx="49.655174"
           sodipodi:cy="101.93634"
           sodipodi:rx="2.6259947"
           sodipodi:ry="2.8647215"
           d="M 52.21373,102.5814 A 2.6259947,2.8647215 0 1 1 52.228177,102.50894"
           sodipodi:start="0.22712082"
           sodipodi:end="6.4844208"
           sodipodi:open="true"
           transform="matrix(1.475235,0,0,1.269011,-25.03029,-28.37688)" />
        <path
           sodipodi:type="arc"
           style="opacity:1;fill:#d576ad;fill-opacity:1;fill-rule:nonzero;stroke:black;stroke-width:0.71881682;stroke-linecap:round;stroke-linejoin:round;stroke-miterlimit:4;stroke-dasharray:none;stroke-dashoffset:0;stroke-opacity:1"
           id="path5680"
           sodipodi:cx="57.652519"
           sodipodi:cy="99.907166"
           sodipodi:rx="2.9840848"
           sodipodi:ry="3.2228117"
           d="M 60.559969,100.63286 A 2.9840848,3.2228117 0 1 1 60.576386,100.55134"
           sodipodi:start="0.22712082"
           sodipodi:end="6.4844208"
           sodipodi:open="true"
           transform="matrix(1.355477,0,0,1.181036,-21.92656,-17.13185)" />
        <path
           sodipodi:type="arc"
           style="opacity:1;fill:#d576ad;fill-opacity:1;fill-rule:nonzero;stroke:black;stroke-width:0.9094857;stroke-linecap:round;stroke-linejoin:round;stroke-miterlimit:4;stroke-dasharray:none;stroke-dashoffset:0;stroke-opacity:1"
           id="path5682"
           sodipodi:cx="63.978779"
           sodipodi:cy="99.071617"
           sodipodi:rx="2.8647215"
           sodipodi:ry="2.6259947"
           d="M 66.769931,99.662921 A 2.8647215,2.6259947 0 1 1 66.785691,99.596501"
           sodipodi:start="0.22712082"
           sodipodi:end="6.4844208"
           sodipodi:open="true" />
        <path
           sodipodi:type="arc"
           style="opacity:1;fill:#d576ad;fill-opacity:1;fill-rule:nonzero;stroke:black;stroke-width:0.58333882;stroke-linecap:round;stroke-linejoin:round;stroke-miterlimit:4;stroke-dasharray:none;stroke-dashoffset:0;stroke-opacity:1"
           id="path5684"
           sodipodi:cx="65.291779"
           sodipodi:cy="105.75597"
           sodipodi:rx="2.0291777"
           sodipodi:ry="2.6259947"
           d="M 67.268844,106.34727 A 2.0291777,2.6259947 0 1 1 67.280008,106.28085"
           sodipodi:start="0.22712082"
           sodipodi:end="6.4844208"
           sodipodi:open="true"
           transform="matrix(1.744424,0,0,1.393471,-50.39524,-42.92486)" />
        <path
           sodipodi:type="arc"
           style="opacity:1;fill:#d576ad;fill-opacity:1;fill-rule:nonzero;stroke:black;stroke-width:0.62596365;stroke-linecap:round;stroke-linejoin:round;stroke-miterlimit:4;stroke-dasharray:none;stroke-dashoffset:0;stroke-opacity:1"
           id="path5686"
           sodipodi:cx="60.75597"
           sodipodi:cy="106.83024"
           sodipodi:rx="3.2228117"
           sodipodi:ry="2.5066314"
           d="M 63.896016,107.39466 A 3.2228117,2.5066314 0 1 1 63.913747,107.33126"
           sodipodi:start="0.22712082"
           sodipodi:end="6.4844208"
           sodipodi:open="true"
           transform="matrix(1.263005,0,0,1.671431,-17.05343,-73.63894)" />
        <path
           sodipodi:type="arc"
           style="opacity:1;fill:#d576ad;fill-opacity:1;fill-rule:nonzero;stroke:black;stroke-width:0.69056748;stroke-linecap:round;stroke-linejoin:round;stroke-miterlimit:4;stroke-dasharray:none;stroke-dashoffset:0;stroke-opacity:1"
           id="path5688"
           sodipodi:cx="52.877983"
           sodipodi:cy="106.83024"
           sodipodi:rx="3.7002652"
           sodipodi:ry="2.745358"
           d="M 56.483221,107.44842 A 3.7002652,2.745358 0 1 1 56.503578,107.37898"
           sodipodi:start="0.22712082"
           sodipodi:end="6.4844208"
           sodipodi:open="true"
           transform="matrix(1.118428,0,0,1.550856,-6.859062,-60.51919)" />
        <path
           sodipodi:type="arc"
           style="opacity:1;fill:#d576ad;fill-opacity:1;fill-rule:nonzero;stroke:black;stroke-width:0.77728129;stroke-linecap:round;stroke-linejoin:round;stroke-miterlimit:4;stroke-dasharray:none;stroke-dashoffset:0;stroke-opacity:1"
           id="path5690"
           sodipodi:cx="45.954906"
           sodipodi:cy="109.21751"
           sodipodi:rx="3.7002652"
           sodipodi:ry="3.7002652"
           d="M 49.560144,110.05071 A 3.7002652,3.7002652 0 1 1 49.580502,109.95712"
           sodipodi:start="0.22712082"
           sodipodi:end="6.4844208"
           sodipodi:open="true"
           transform="matrix(1.202779,0,0,1.138281,-10.15426,-15.69957)" />
        <path
           sodipodi:type="arc"
           style="opacity:1;fill:#d576ad;fill-opacity:1;fill-rule:nonzero;stroke:black;stroke-width:0.64032098;stroke-linecap:round;stroke-linejoin:round;stroke-miterlimit:4;stroke-dasharray:none;stroke-dashoffset:0;stroke-opacity:1"
           id="path5692"
           sodipodi:cx="49.655174"
           sodipodi:cy="117.09549"
           sodipodi:rx="3.1034484"
           sodipodi:ry="2.745358"
           d="M 52.678922,117.71367 A 3.1034484,2.745358 0 1 1 52.695996,117.64423"
           sodipodi:start="0.22712082"
           sodipodi:end="6.4844208"
           sodipodi:open="true"
           transform="matrix(1.316821,0,0,1.532038,-15.49312,-62.53793)" />
        <path
           sodipodi:type="arc"
           style="opacity:1;fill:#d576ad;fill-opacity:1;fill-rule:nonzero;stroke:black;stroke-width:0.71648455;stroke-linecap:round;stroke-linejoin:round;stroke-miterlimit:4;stroke-dasharray:none;stroke-dashoffset:0;stroke-opacity:1"
           id="path5694"
           sodipodi:cx="54.668434"
           sodipodi:cy="112.55968"
           sodipodi:rx="3.1034484"
           sodipodi:ry="3.4615386"
           d="M 57.692182,113.33912 A 3.1034484,3.4615386 0 1 1 57.709256,113.25157"
           sodipodi:start="0.22712082"
           sodipodi:end="6.4844208"
           sodipodi:open="true"
           transform="matrix(1.379595,0,0,1.167956,-22.06489,-19.62122)" />
        <path
           sodipodi:type="arc"
           style="opacity:1;fill:#d576ad;fill-opacity:1;fill-rule:nonzero;stroke:black;stroke-width:0.67980673;stroke-linecap:round;stroke-linejoin:round;stroke-miterlimit:4;stroke-dasharray:none;stroke-dashoffset:0;stroke-opacity:1"
           id="path5696"
           sodipodi:cx="60.75597"
           sodipodi:cy="111.96287"
           sodipodi:rx="2.2679045"
           sodipodi:ry="3.8196287"
           d="M 62.965632,112.82295 A 2.2679045,3.8196287 0 1 1 62.978109,112.72634"
           sodipodi:start="0.22712082"
           sodipodi:end="6.4844208"
           sodipodi:open="true"
           transform="matrix(1.60959,0,0,1.112002,-38.58798,-13.13691)" />
        <path
           sodipodi:type="arc"
           style="opacity:1;fill:#d576ad;fill-opacity:1;fill-rule:nonzero;stroke:black;stroke-width:0.54290242;stroke-linecap:round;stroke-linejoin:round;stroke-miterlimit:4;stroke-dasharray:none;stroke-dashoffset:0;stroke-opacity:1"
           id="path5698"
           sodipodi:cx="64.45623"
           sodipodi:cy="109.93369"
           sodipodi:rx="1.9098144"
           sodipodi:ry="2.0291777"
           d="M 66.316998,110.39061 A 1.9098144,2.0291777 0 1 1 66.327505,110.33929"
           sodipodi:start="0.22712082"
           sodipodi:end="6.4844208"
           sodipodi:open="true"
           transform="matrix(1.823041,0,0,1.539401,-52.09525,-59.29837)" />
        <path
           sodipodi:type="arc"
           style="opacity:1;fill:#d576ad;fill-opacity:1;fill-rule:nonzero;stroke:black;stroke-width:0.63335503;stroke-linecap:round;stroke-linejoin:round;stroke-miterlimit:4;stroke-dasharray:none;stroke-dashoffset:0;stroke-opacity:1"
           id="path5700"
           sodipodi:cx="63.2626"
           sodipodi:cy="118.76658"
           sodipodi:rx="2.3872678"
           sodipodi:ry="2.9840848"
           d="M 65.58856,119.43851 A 2.3872678,2.9840848 0 1 1 65.601694,119.36304"
           sodipodi:start="0.22712082"
           sodipodi:end="6.4844208"
           sodipodi:open="true"
           transform="matrix(1.508575,0,0,1.36688,-30.74144,-44.88609)" />
        <path
           sodipodi:type="arc"
           style="opacity:1;fill:#d576ad;fill-opacity:1;fill-rule:nonzero;stroke:black;stroke-width:0.63550848;stroke-linecap:round;stroke-linejoin:round;stroke-miterlimit:4;stroke-dasharray:none;stroke-dashoffset:0;stroke-opacity:1"
           id="path5702"
           sodipodi:cx="55.265251"
           sodipodi:cy="119.84085"
           sodipodi:rx="2.745358"
           sodipodi:ry="2.6259947"
           d="M 57.940105,120.43215 A 2.745358,2.6259947 0 1 1 57.955209,120.36573"
           sodipodi:start="0.22712082"
           sodipodi:end="6.4844208"
           sodipodi:open="true"
           transform="matrix(1.399656,0,0,1.463281,-20.77413,-56.95241)" />
        <path
           sodipodi:type="arc"
           style="opacity:1;fill:#d576ad;fill-opacity:1;fill-rule:nonzero;stroke:black;stroke-width:0.64018546;stroke-linecap:round;stroke-linejoin:round;stroke-miterlimit:4;stroke-dasharray:none;stroke-dashoffset:0;stroke-opacity:1"
           id="path5704"
           sodipodi:cx="56.458885"
           sodipodi:cy="127.12202"
           sodipodi:rx="2.2679045"
           sodipodi:ry="2.745358"
           d="M 58.668547,127.7402 A 2.2679045,2.745358 0 1 1 58.681024,127.67076"
           sodipodi:start="0.22712082"
           sodipodi:end="6.4844208"
           sodipodi:open="true"
           transform="matrix(1.486099,0,0,1.358102,-28.75763,-46.71634)" />
        <path
           sodipodi:type="arc"
           style="opacity:1;fill:#d576ad;fill-opacity:1;fill-rule:nonzero;stroke:black;stroke-width:0.65262742;stroke-linecap:round;stroke-linejoin:round;stroke-miterlimit:4;stroke-dasharray:none;stroke-dashoffset:0;stroke-opacity:1"
           id="path5706"
           sodipodi:cx="61.591511"
           sodipodi:cy="124.49602"
           sodipodi:rx="2.8647215"
           sodipodi:ry="2.5066314"
           d="M 64.382663,125.06044 A 2.8647215,2.5066314 0 1 1 64.398423,124.99704"
           sodipodi:start="0.22712082"
           sodipodi:end="6.4844208"
           sodipodi:open="true"
           transform="matrix(1.389554,0,0,1.397609,-24.35137,-49.02327)" />
        <path
           sodipodi:type="arc"
           style="opacity:1;fill:#d576ad;fill-opacity:1;fill-rule:nonzero;stroke:black;stroke-width:0.56915464;stroke-linecap:round;stroke-linejoin:round;stroke-miterlimit:4;stroke-dasharray:none;stroke-dashoffset:0;stroke-opacity:1"
           id="path5708"
           sodipodi:cx="64.933685"
           sodipodi:cy="130.46419"
           sodipodi:rx="2.1485412"
           sodipodi:ry="2.0291777"
           d="M 67.027049,130.9211 A 2.1485412,2.0291777 0 1 1 67.03887,130.86978"
           sodipodi:start="0.22712082"
           sodipodi:end="6.4844208"
           sodipodi:open="true"
           transform="matrix(1.638483,0,0,1.558437,-42.17528,-73.0948)" />
        <path
           sodipodi:type="arc"
           style="opacity:1;fill:#d576ad;fill-opacity:1;fill-rule:nonzero;stroke:black;stroke-width:0.66980988;stroke-linecap:round;stroke-linejoin:round;stroke-miterlimit:4;stroke-dasharray:none;stroke-dashoffset:0;stroke-opacity:1"
           id="path5710"
           sodipodi:cx="59.681698"
           sodipodi:cy="133.20955"
           sodipodi:rx="2.3872678"
           sodipodi:ry="2.6259947"
           d="M 62.007658,133.80085 A 2.3872678,2.6259947 0 1 1 62.020792,133.73443"
           sodipodi:start="0.22712082"
           sodipodi:end="6.4844208"
           sodipodi:open="true"
           transform="matrix(1.474951,0,0,1.250003,-29.65892,-34.13836)" />
        <path
           sodipodi:type="arc"
           style="opacity:1;fill:#d576ad;fill-opacity:1;fill-rule:nonzero;stroke:black;stroke-width:0.62531306;stroke-linecap:round;stroke-linejoin:round;stroke-miterlimit:4;stroke-dasharray:none;stroke-dashoffset:0;stroke-opacity:1"
           id="path5712"
           sodipodi:cx="63.023872"
           sodipodi:cy="138.46153"
           sodipodi:rx="2.3872678"
           sodipodi:ry="1.9098144"
           d="M 65.349832,138.89157 A 2.3872678,1.9098144 0 1 1 65.362966,138.84327"
           sodipodi:start="0.22712082"
           sodipodi:end="6.4844208"
           sodipodi:open="true"
           transform="matrix(1.404729,0,0,1.505928,-25.50765,-71.4839)" />
        <path
           sodipodi:type="arc"
           style="opacity:1;fill:#d576ad;fill-opacity:1;fill-rule:nonzero;stroke:black;stroke-width:0.5883546;stroke-linecap:round;stroke-linejoin:round;stroke-miterlimit:4;stroke-dasharray:none;stroke-dashoffset:0;stroke-opacity:1"
           id="path5714"
           sodipodi:cx="63.859417"
           sodipodi:cy="142.87799"
           sodipodi:rx="2.0291777"
           sodipodi:ry="2.5066314"
           d="M 65.836483,143.44242 A 2.0291777,2.5066314 0 1 1 65.847647,143.37902"
           sodipodi:start="0.22712082"
           sodipodi:end="6.4844208"
           sodipodi:open="true"
           transform="matrix(1.688887,0,0,1.414858,-43.75327,-58.43853)" />
      </g>
    </g>
  </g>
  <g
     inkscape:groupmode="layer"
     id="layer4"
     inkscape:label="Meubles" />
  <g
     inkscape:groupmode="layer"
     id="layer2"
     inkscape:label="Reflet final"
     sodipodi:insensitive="true">
    <path
       sodipodi:nodetypes="cccccc"
       d="M 300.00001,658.5 C 300.00001,658.5 598.50001,546.17969 598.50001,260.72817 C 598.50001,-24.723334 598.50001,2.1764865 598.50001,2.1764865 L 1.5,2.1764865 L 1.5,260.72817 C 1.5,546.17969 300.00001,658.5 300.00001,658.5 z "
       style="opacity:1;fill:url(#radialGradient3163);fill-opacity:1;fill-rule:evenodd;stroke:none;stroke-width:1px;stroke-linecap:butt;stroke-linejoin:miter;stroke-opacity:1"
       id="path2875"
       inkscape:export-xdpi="144"
       inkscape:export-ydpi="144" />
  </g>
  <g
     inkscape:groupmode="layer"
     id="layer1"
     inkscape:label="Contour final"
     sodipodi:insensitive="true">
    <path
       sodipodi:nodetypes="cccccc"
       d="M 299.99999,658.50028 C 299.99999,658.50028 1.5,546.17992 1.5,260.72828 C 1.5,-24.723336 1.5,2.1764957 1.5,2.1764957 L 598.49999,2.1764957 L 598.49999,260.72828 C 598.49999,546.17992 299.99999,658.50028 299.99999,658.50028 z "
       style="opacity:1;fill:none;fill-opacity:1;fill-rule:evenodd;stroke:#000000;stroke-width:3.00000048;stroke-linecap:butt;stroke-linejoin:miter;stroke-miterlimit:4;stroke-dasharray:none;stroke-opacity:1"
       id="path1411"
       inkscape:export-xdpi="144"
       inkscape:export-ydpi="144" />
  </g>
</svg>
