<?xml version="1.0" encoding="UTF-8" standalone="no"?>
<svg
   xmlns:dc="http://purl.org/dc/elements/1.1/"
   xmlns:cc="http://creativecommons.org/ns#"
   xmlns:rdf="http://www.w3.org/1999/02/22-rdf-syntax-ns#"
   xmlns:svg="http://www.w3.org/2000/svg"
   xmlns="http://www.w3.org/2000/svg"
   xmlns:xlink="http://www.w3.org/1999/xlink"
   xmlns:sodipodi="http://sodipodi.sourceforge.net/DTD/sodipodi-0.dtd"
   xmlns:inkscape="http://www.inkscape.org/namespaces/inkscape"
   height="660"
   width="600"
   version="1.0"
   id="svg2"
   sodipodi:version="0.32"
   inkscape:version="0.46"
   sodipodi:docname="Blason_ville_fr_Germ-Louron_01(65).svg"
   sodipodi:docbase="E:\DIVERS\Héraldique"
   inkscape:export-filename="/Users/olivier/Desktop/Blason Rouge/Blason_Vide_3D.png"
   inkscape:export-xdpi="144"
   inkscape:export-ydpi="144"
   inkscape:output_extension="org.inkscape.output.svg.inkscape">
  <metadata
     id="metadata49">
    <rdf:RDF>
      <cc:Work
         rdf:about="">
        <dc:format>image/svg+xml</dc:format>
        <dc:type
           rdf:resource="http://purl.org/dc/dcmitype/StillImage" />
        <dc:title />
        <dc:date />
        <dc:creator>
          <cc:Agent>
            <dc:title>Zigeuner (http://fr.wikipedia.org/wiki/Utilisateur:Zigeuner)</dc:title>
          </cc:Agent>
        </dc:creator>
        <cc:license
           rdf:resource="http://creativecommons.org/licenses/by-sa/2.5/" />
        <dc:language>fr</dc:language>
        <dc:subject>
          <rdf:Bag />
        </dc:subject>
      </cc:Work>
      <cc:License
         rdf:about="http://creativecommons.org/licenses/by-sa/2.5/">
        <cc:permits
           rdf:resource="http://web.resource.org/cc/Reproduction" />
        <cc:permits
           rdf:resource="http://web.resource.org/cc/Distribution" />
        <cc:requires
           rdf:resource="http://web.resource.org/cc/Notice" />
        <cc:requires
           rdf:resource="http://web.resource.org/cc/Attribution" />
        <cc:permits
           rdf:resource="http://web.resource.org/cc/DerivativeWorks" />
        <cc:requires
           rdf:resource="http://web.resource.org/cc/ShareAlike" />
      </cc:License>
    </rdf:RDF>
  </metadata>
  <sodipodi:namedview
     inkscape:window-height="977"
     inkscape:window-width="1280"
     inkscape:pageshadow="2"
     inkscape:pageopacity="0.0"
     guidetolerance="10.0"
     gridtolerance="10.0"
     objecttolerance="10.0"
     borderopacity="1.0"
     bordercolor="#666666"
     pagecolor="#ffffff"
     id="base"
     showgrid="false"
     height="660px"
     inkscape:zoom="1.1621207"
     inkscape:cx="300.00013"
     inkscape:cy="330.00014"
     inkscape:window-x="-4"
     inkscape:window-y="-4"
     inkscape:current-layer="layer3"
     inkscape:object-nodes="true"
     inkscape:snap-global="false"
     showguides="true"
     inkscape:guide-bbox="true" />
  <desc
     id="desc4">Flag of Canton of Valais (Wallis)</desc>
  <defs
     id="defs6">
    <linearGradient
       id="linearGradient2893">
      <stop
         style="stop-color:white;stop-opacity:0.3137255;"
         offset="0"
         id="stop2895" />
      <stop
         id="stop2897"
         offset="0.19"
         style="stop-color:white;stop-opacity:0.25098041;" />
      <stop
         style="stop-color:#6b6b6b;stop-opacity:0.1254902;"
         offset="0.60000002"
         id="stop2901" />
      <stop
         style="stop-color:black;stop-opacity:0.1254902;"
         offset="1"
         id="stop2899" />
    </linearGradient>
    <radialGradient
       inkscape:collect="always"
       xlink:href="#linearGradient2893"
       id="radialGradient3163"
       gradientUnits="userSpaceOnUse"
       gradientTransform="matrix(1.353218,0,0,1.348928,-77.62935,-85.74693)"
       cx="221.44487"
       cy="226.33101"
       fx="221.44487"
       fy="226.33101"
       r="300" />
    <radialGradient
       r="405"
       cy="-80"
       cx="-80"
       gradientUnits="userSpaceOnUse"
       id="Gradient1">
      <stop
         id="stop7"
         offset="0"
         stop-opacity="0.31"
         stop-color="#fff" />
      <stop
         id="stop9"
         offset="0.19"
         stop-opacity="0.25"
         stop-color="#fff" />
      <stop
         id="stop11"
         offset="0.6"
         stop-opacity="0.125"
         stop-color="#6b6b6b" />
      <stop
         id="stop13"
         offset="1"
         stop-opacity="0.125"
         stop-color="#000" />
    </radialGradient>
  </defs>
  <g
     inkscape:groupmode="layer"
     id="layer3"
     inkscape:label="Fond écu"
     style="display:inline">
    <path
       style="fill:#e20909;fill-opacity:1;fill-rule:evenodd;stroke:none;stroke-width:1px;stroke-linecap:butt;stroke-linejoin:miter;stroke-opacity:1"
       d="M 1.5,2.1875 L 1.5,260.71875 C 1.5,546.17026 300,658.5 300,658.5 L 300,2.1875 L 1.5,2.1875 z"
       id="path2805" />
    <g
       id="g2807"
       inkscape:label="Meubles"
       transform="translate(1.3295043e-4,-700.00028)" />
    <path
       id="path3614"
       d="M 598.5,2.1875 L 598.5,260.71875 C 598.5,546.17026 300,658.5 300,658.5 L 300,2.1875 L 598.5,2.1875 z"
       style="fill:#ffffff;fill-opacity:1;fill-rule:evenodd;stroke:none;stroke-width:1px;stroke-linecap:butt;stroke-linejoin:miter;stroke-opacity:1" />
    <rect
       style="opacity:1;fill:#000000;fill-opacity:1;stroke:none;stroke-width:3;stroke-miterlimit:4;stroke-dasharray:none;stroke-opacity:1"
       id="rect3616"
       width="3"
       height="656.30164"
       x="298.5"
       y="2.1983554" />
    <g
       id="g4626"
       inkscape:label="Meubles"
       transform="translate(1214.9342,19.818812)" />
    <g
       transform="matrix(0.918093,-8.0322733e-2,8.0322733e-2,0.918093,62.948747,-353.5392)"
       id="g6820"
       inkscape:label="Calque 1">
      <g
         transform="translate(75.649585,8.2147076)"
         id="g13185"
         style="display:inline">
        <g
           style="display:inline"
           id="g12842"
           transform="translate(-700.00097,0)">
          <path
             style="opacity:1;fill:#000000;fill-opacity:1;stroke:#313131;stroke-width:1.5;stroke-miterlimit:4;stroke-dasharray:none;stroke-opacity:1"
             d="M 1016.4102,570.86152 L 1017.2976,588.94405 C 1017.4448,591.94195 1016.4042,590.90633 1013.765,592.70028 C 1011.7439,594.07407 1009.24,594.863 1007.5528,594.15653 L 1004.1701,591.9677 L 1002.7772,594.35551 C 1002.8075,595.89545 1003.0819,597.01693 1004.1701,596.74332 C 1002.924,596.55251 1001.642,596.29888 1000.9864,597.14129 L 1000.3894,599.92707 C 1001.7711,600.69174 1002.9485,600.88423 1003.5732,599.5291 C 1005.9328,599.92873 1008.1252,599.15794 1010.3386,598.53418 C 1010.9638,598.36604 1012.2352,598.34433 1011.7315,599.5291 L 1010.6503,600.97906 L 1010.8215,603.70777 C 1012.9384,605.28916 1014.0053,603.34361 1014.7763,601.83355 C 1017.5862,603.37423 1018.9016,599.22884 1021.0838,597.92707 C 1022.826,596.88772 1024.5564,595.99255 1026.8543,597.13113 L 1031.2756,599.26676 C 1032.3139,599.53952 1033.0831,600.29302 1034.4157,597.91749 L 1034.1731,594.64648 L 1029.9604,593.85055 C 1028.8836,593.64711 1022.532,591.93428 1022.5703,588.69185 L 1022.782,570.77001 L 1016.4102,570.86152 z"
             id="path12787"
             sodipodi:nodetypes="cssccccccccccccsccccsscc" />
          <path
             style="opacity:1;fill:#000000;fill-opacity:1;stroke:#313131;stroke-width:1.5;stroke-miterlimit:4;stroke-dasharray:none;stroke-opacity:1"
             d="M 996.10119,601.15293 C 997.4575,599.9708 997.64217,599.05614 1000.5009,599.83715 L 1000.9532,597.08224 C 994.55311,595.88836 995.88066,599.13931 996.10119,601.15293 z"
             id="path12789"
             sodipodi:nodetypes="cccc" />
          <path
             style="opacity:1;fill:#000000;fill-opacity:1;stroke:#313131;stroke-width:1.5;stroke-miterlimit:4;stroke-dasharray:none;stroke-opacity:1"
             d="M 1003.475,591.65956 L 1002.2826,594.41448 C 1001.737,593.65803 1000.262,593.83088 998.29409,594.49672 C 998.40753,592.45152 998.91735,590.56132 1003.475,591.65956 z"
             id="path12791"
             sodipodi:nodetypes="cccc" />
          <path
             style="opacity:1;fill:#000000;fill-opacity:1;stroke:#313131;stroke-width:1.5;stroke-miterlimit:4;stroke-dasharray:none;stroke-opacity:1"
             d="M 1010.2958,601.00703 L 1010.9537,603.92641 C 1008.0524,602.84748 1007.9518,604.71667 1006.9653,605.65338 C 1005.7754,603.44975 1005.4702,600.4123 1010.2958,601.00703 z"
             id="path12793"
             sodipodi:nodetypes="cccc" />
          <path
             style="opacity:1;fill:#000000;fill-opacity:1;stroke:#313131;stroke-width:1.5;stroke-miterlimit:4;stroke-dasharray:none;stroke-opacity:1"
             d="M 1034.6605,595.28404 C 1037.7889,594.0912 1038.4546,597.95089 1037.8677,600.09486 C 1036.2332,598.20446 1035.131,597.71144 1034.3727,598.12119 L 1034.6605,595.28404 z"
             id="path12795"
             sodipodi:nodetypes="cccc" />
        </g>
        <g
           style="display:inline"
           id="g12835"
           transform="translate(-700.00097,0)">
          <path
             sodipodi:nodetypes="cssccccccccccccsccccsscc"
             id="path12768"
             d="M 982.18626,570.2581 L 964.87463,588.76364 C 962.55659,591.24154 959.01077,591.69637 955.52237,591.54942 C 953.08072,591.44657 951.23997,590.863 949.55284,590.15653 L 946.17011,587.9677 L 944.77722,590.35551 C 944.80751,591.89545 945.08191,593.01693 946.17011,592.74332 C 944.92402,592.55251 943.64204,592.29888 942.98636,593.14129 L 942.38941,595.92707 C 943.77113,596.69174 944.94851,596.88423 945.57316,595.5291 C 947.93278,595.92873 950.1252,595.15794 952.33862,594.53418 C 952.96376,594.36604 954.23519,594.34433 953.73151,595.5291 L 952.65025,596.97906 L 952.82145,599.70777 C 954.93845,601.28916 956.00532,599.34361 956.77633,597.83355 C 959.58624,599.37423 960.90162,597.22884 963.08377,595.92707 C 964.82603,594.88772 966.55643,593.99255 968.85432,595.13113 L 973.03299,598.1159 C 974.0713,598.38866 975.08315,598.89955 976.41572,596.52402 L 976.41572,593.73824 L 971.83908,592.94231 C 970.75946,592.75455 969.05642,591.75589 971.24213,589.36059 L 985.76798,573.44185 L 982.18626,570.2581 z"
             style="fill:#000000;fill-opacity:1;stroke:#313131;stroke-width:1.5;stroke-miterlimit:4;stroke-dasharray:none;stroke-opacity:1" />
          <path
             sodipodi:nodetypes="cccc"
             id="path12770"
             d="M 937.91852,597.01593 C 939.27483,595.8338 939.4595,594.91914 942.31816,595.70015 L 942.77046,592.94524 C 936.37044,591.75136 937.69799,595.00231 937.91852,597.01593 z"
             style="opacity:1;fill:#000000;fill-opacity:1;stroke:#313131;stroke-width:1.5;stroke-miterlimit:4;stroke-dasharray:none;stroke-opacity:1" />
          <path
             sodipodi:nodetypes="cccc"
             id="path12772"
             d="M 945.24664,587.56823 L 944.05422,590.32315 C 943.5086,589.5667 942.03367,589.73955 940.06576,590.40539 C 940.1792,588.36019 940.68902,586.46999 945.24664,587.56823 z"
             style="opacity:1;fill:#000000;fill-opacity:1;stroke:#313131;stroke-width:1.5;stroke-miterlimit:4;stroke-dasharray:none;stroke-opacity:1" />
          <path
             sodipodi:nodetypes="cccc"
             id="path12774"
             d="M 952.29585,597.00703 L 952.95374,599.92641 C 950.0524,598.84748 949.95176,600.71667 948.96528,601.65338 C 947.77538,599.44975 947.47024,596.4123 952.29585,597.00703 z"
             style="opacity:1;fill:#000000;fill-opacity:1;stroke:#313131;stroke-width:1.5;stroke-miterlimit:4;stroke-dasharray:none;stroke-opacity:1" />
          <path
             sodipodi:nodetypes="cccc"
             id="path12776"
             d="M 976.47786,594.06035 C 979.60632,592.86751 980.27199,596.7272 979.68507,598.87117 C 978.05053,596.98077 976.94833,596.48775 976.19003,596.8975 L 976.47786,594.06035 z"
             style="opacity:1;fill:#000000;fill-opacity:1;stroke:#313131;stroke-width:1.5;stroke-miterlimit:4;stroke-dasharray:none;stroke-opacity:1" />
        </g>
        <g
           style="display:inline"
           id="g12885"
           transform="translate(-500.00018,0)">
          <path
             sodipodi:nodetypes="ccccc"
             id="path12817"
             d="M 716.23879,452.31179 C 715.78204,456.42555 734.32181,456.20786 741.26367,461.07963 C 743.14391,460.14446 745.14718,459.5784 746.19558,456.14772 C 744.98615,454.37102 743.83096,452.91979 742.90764,452.85978 C 733.91482,452.48218 724.07626,450.50707 716.23879,452.31179 z"
             style="opacity:1;fill:#000000;fill-opacity:1;stroke:#313131;stroke-width:2;stroke-miterlimit:4;stroke-dasharray:none;stroke-opacity:1" />
          <path
             sodipodi:nodetypes="cccc"
             id="path12815"
             d="M 740.53302,446.10124 C 731.08349,448.00378 716.7214,445.34466 713.31618,452.85978 C 723.96202,450.51373 733.13018,452.6007 742.90764,452.85978 C 740.99729,450.84578 740.66447,448.54737 740.53302,446.10124 z"
             style="opacity:1;fill:#000000;fill-opacity:1;stroke:#313131;stroke-width:2;stroke-miterlimit:4;stroke-dasharray:none;stroke-opacity:1" />
          <path
             sodipodi:nodetypes="csccccccccccccccccccsccccccccccccccssscc"
             id="path12811"
             d="M 740.53302,446.10124 C 741.11193,449.50747 742.11966,452.11082 743.04981,453.293 C 744.09343,454.6194 745.08667,454.39318 746.19558,456.14772 C 745.0776,459.04577 743.32715,460.54532 741.26367,461.07963 C 752.87236,473.82301 747.79625,488.65198 744.36895,503.27486 C 745.47825,515.38153 750.01482,524.91776 754.96342,534.14496 C 761.49211,541.45552 771.13808,543.38168 772.86443,558.98718 L 777.61367,579.62813 C 782.23807,576.09141 785.71336,576.28929 788.39081,579.08014 L 788.57347,574.51356 L 794.4187,578.71482 L 794.60136,573.96557 L 801.90791,579.8108 L 801.90791,575.7922 L 807.38781,580.17612 L 806.47451,573.96557 L 814.14631,579.99346 L 813.96371,576.15753 L 821.08751,579.08014 L 822.36621,571.95627 C 828.37991,581.34007 838.06271,589.14956 848.12171,596.2505 C 851.82401,598.86403 856.03711,599.25937 859.99481,598.07713 L 863.28281,598.07713 C 867.15301,601.82566 870.85831,602.77198 874.24261,598.25979 L 866.93601,591.13592 C 871.25901,594.35047 875.58211,596.2013 879.90511,596.98115 L 875.88651,592.04924 L 885.38501,595.70251 C 868.00961,581.79213 853.19801,566.01707 841.18051,548.21004 L 845.19911,547.66205 L 830.58601,526.29044 L 830.58601,524.28114 L 816.88631,506.74546 L 816.88631,504.37084 C 813.49751,495.52667 804.20431,488.8966 797.34131,481.35526 C 791.67767,478.35158 790.94367,474.86384 789.66945,471.30878 C 783.25806,453.42104 774.71511,446.3603 765.0099,444.45727 C 760.44576,443.56232 757.41558,443.47871 754.0501,442.99596 C 750.94986,442.55125 747.43638,443.59658 743.82096,444.82259 L 740.53302,446.10124 z"
             style="opacity:1;fill:#000000;fill-opacity:1;stroke:#313131;stroke-width:2;stroke-miterlimit:4;stroke-dasharray:none;stroke-opacity:1" />
          <path
             transform="matrix(1.3764343,0,0,0.2958691,-557.51557,314.29566)"
             d="M 954.05058,458.61368 A 2.1006284,9.7724886 0 1 1 949.84932,458.61368 A 2.1006284,9.7724886 0 1 1 954.05058,458.61368 z"
             sodipodi:ry="9.7724886"
             sodipodi:rx="2.1006284"
             sodipodi:cy="458.61368"
             sodipodi:cx="951.94995"
             id="path12813"
             style="opacity:1;fill:#000000;fill-opacity:1;stroke:#ffffff;stroke-width:2.3505187;stroke-miterlimit:4;stroke-dasharray:none;stroke-opacity:1"
             sodipodi:type="arc" />
          <path
             sodipodi:nodetypes="cccccc"
             id="path12821"
             d="M 775.65492,498.43722 C 776.66349,502.46201 790.92622,513.83947 787.14043,502.87828 C 789.28558,508.21391 798.09177,511.36999 794.79743,503.79712 C 799.48116,509.88826 807.61961,510.14318 803.21801,503.95026 C 806.48481,508.06627 813.74741,512.23674 810.57091,503.03142 L 815.31821,507.47249"
             style="opacity:1;fill:none;fill-opacity:1;stroke:#313131;stroke-width:1.5;stroke-miterlimit:4;stroke-dasharray:none;stroke-opacity:1" />
          <path
             sodipodi:nodetypes="csccsccsscc"
             id="path12823"
             d="M 782.39309,510.84157 C 786.29235,515.05873 790.1175,519.39051 794.79743,522.78649 C 801.36931,527.55538 803.06111,524.23411 802.60761,522.17393 L 794.18487,513.13867 C 797.79102,516.66998 800.44091,520.81396 805.36411,523.55219 C 808.65601,525.38308 813.63401,524.88406 812.25541,521.71451 L 803.67951,512.98553 C 807.30381,516.25252 809.65391,519.03869 814.55251,522.78649 C 817.68261,525.18124 822.35771,524.7507 820.98441,522.48021 C 817.51691,516.74738 814.85791,515.5315 811.79601,512.06669 C 816.84581,516.33047 821.59251,522.71537 826.95681,524.77731"
             style="opacity:1;fill:none;fill-opacity:1;stroke:#313131;stroke-width:1.5;stroke-miterlimit:4;stroke-dasharray:none;stroke-opacity:1" />
          <path
             sodipodi:nodetypes="csccsccsscsscc"
             id="path12825"
             d="M 786.37473,523.70533 C 792.21081,530.01167 797.18572,537.53502 804.59841,541.62272 C 806.68201,542.77173 810.85201,542.1723 808.73321,539.17248 L 797.86023,527.3807 C 803.11801,532.43432 807.18531,537.84003 813.63371,542.54156 C 815.05101,543.57494 817.21651,544.44517 817.92161,541.77586 L 804.90471,527.53384 C 810.62191,532.94479 814.71401,539.04943 822.05641,543.76668 C 824.11731,545.09072 826.80731,544.18253 825.57861,542.38842 C 820.42191,534.85847 817.41111,532.48537 813.32741,527.53384 C 819.35091,533.55735 823.49721,541.86561 831.39791,545.60436 C 833.23141,546.47199 837.26092,545.5641 834.46071,542.23528 C 829.43344,536.259 827.0913,531.97537 822.97521,527.99326 C 827.05847,533.40421 834.53441,542.14259 838.44231,544.2261"
             style="opacity:1;fill:none;fill-opacity:1;stroke:#313131;stroke-width:1.5;stroke-miterlimit:4;stroke-dasharray:none;stroke-opacity:1" />
          <path
             sodipodi:nodetypes="cc"
             id="path12827"
             d="M 830.32591,566.58455 C 838.76941,576.24102 848.13381,585.63438 858.96311,594.60919"
             style="opacity:1;fill:none;fill-opacity:1;stroke:#313131;stroke-width:1.5;stroke-miterlimit:4;stroke-dasharray:none;stroke-opacity:1" />
          <path
             sodipodi:nodetypes="cc"
             id="path12829"
             d="M 839.51431,566.43141 C 846.93791,574.23064 854.71931,581.85101 864.16991,588.63673"
             style="opacity:1;fill:none;fill-opacity:1;stroke:#313131;stroke-width:1.5;stroke-miterlimit:4;stroke-dasharray:none;stroke-opacity:1" />
          <path
             sodipodi:nodetypes="cc"
             id="path12831"
             d="M 863.14621,580.80141 L 872.13321,588.33045"
             style="opacity:1;fill:none;fill-opacity:1;stroke:#313131;stroke-width:1.5;stroke-miterlimit:4;stroke-dasharray:none;stroke-opacity:1" />
          <path
             sodipodi:nodetypes="cc"
             id="path12833"
             d="M 822.36621,571.95627 L 813.17421,559.23383"
             style="opacity:1;fill:none;fill-opacity:1;stroke:#313131;stroke-width:1.5;stroke-miterlimit:4;stroke-dasharray:none;stroke-opacity:1" />
        </g>
      </g>
    </g>
    <g
       inkscape:label="Calque 1"
       id="g6851"
       transform="matrix(0.9563469,-8.3669513e-2,8.3669513e-2,0.9563469,46.365276,-27.524169)">
      <g
         style="display:inline"
         id="g6853"
         transform="translate(75.649585,8.2147076)">
        <g
           transform="translate(-700.00097,0)"
           id="g6855"
           style="display:inline">
          <path
             sodipodi:nodetypes="cssccccccccccccsccccsscc"
             id="path6857"
             d="M 1016.4102,570.86152 L 1017.2976,588.94405 C 1017.4448,591.94195 1016.4042,590.90633 1013.765,592.70028 C 1011.7439,594.07407 1009.24,594.863 1007.5528,594.15653 L 1004.1701,591.9677 L 1002.7772,594.35551 C 1002.8075,595.89545 1003.0819,597.01693 1004.1701,596.74332 C 1002.924,596.55251 1001.642,596.29888 1000.9864,597.14129 L 1000.3894,599.92707 C 1001.7711,600.69174 1002.9485,600.88423 1003.5732,599.5291 C 1005.9328,599.92873 1008.1252,599.15794 1010.3386,598.53418 C 1010.9638,598.36604 1012.2352,598.34433 1011.7315,599.5291 L 1010.6503,600.97906 L 1010.8215,603.70777 C 1012.9384,605.28916 1014.0053,603.34361 1014.7763,601.83355 C 1017.5862,603.37423 1018.9016,599.22884 1021.0838,597.92707 C 1022.826,596.88772 1024.5564,595.99255 1026.8543,597.13113 L 1031.2756,599.26676 C 1032.3139,599.53952 1033.0831,600.29302 1034.4157,597.91749 L 1034.1731,594.64648 L 1029.9604,593.85055 C 1028.8836,593.64711 1022.532,591.93428 1022.5703,588.69185 L 1022.782,570.77001 L 1016.4102,570.86152 z"
             style="opacity:1;fill:#000000;fill-opacity:1;stroke:#313131;stroke-width:1.5;stroke-miterlimit:4;stroke-dasharray:none;stroke-opacity:1" />
          <path
             sodipodi:nodetypes="cccc"
             id="path6859"
             d="M 996.10119,601.15293 C 997.4575,599.9708 997.64217,599.05614 1000.5009,599.83715 L 1000.9532,597.08224 C 994.55311,595.88836 995.88066,599.13931 996.10119,601.15293 z"
             style="opacity:1;fill:#000000;fill-opacity:1;stroke:#313131;stroke-width:1.5;stroke-miterlimit:4;stroke-dasharray:none;stroke-opacity:1" />
          <path
             sodipodi:nodetypes="cccc"
             id="path6861"
             d="M 1003.475,591.65956 L 1002.2826,594.41448 C 1001.737,593.65803 1000.262,593.83088 998.29409,594.49672 C 998.40753,592.45152 998.91735,590.56132 1003.475,591.65956 z"
             style="opacity:1;fill:#000000;fill-opacity:1;stroke:#313131;stroke-width:1.5;stroke-miterlimit:4;stroke-dasharray:none;stroke-opacity:1" />
          <path
             sodipodi:nodetypes="cccc"
             id="path6863"
             d="M 1010.2958,601.00703 L 1010.9537,603.92641 C 1008.0524,602.84748 1007.9518,604.71667 1006.9653,605.65338 C 1005.7754,603.44975 1005.4702,600.4123 1010.2958,601.00703 z"
             style="opacity:1;fill:#000000;fill-opacity:1;stroke:#313131;stroke-width:1.5;stroke-miterlimit:4;stroke-dasharray:none;stroke-opacity:1" />
          <path
             sodipodi:nodetypes="cccc"
             id="path6865"
             d="M 1034.6605,595.28404 C 1037.7889,594.0912 1038.4546,597.95089 1037.8677,600.09486 C 1036.2332,598.20446 1035.131,597.71144 1034.3727,598.12119 L 1034.6605,595.28404 z"
             style="opacity:1;fill:#000000;fill-opacity:1;stroke:#313131;stroke-width:1.5;stroke-miterlimit:4;stroke-dasharray:none;stroke-opacity:1" />
        </g>
        <g
           transform="translate(-700.00097,0)"
           id="g6867"
           style="display:inline">
          <path
             style="fill:#000000;fill-opacity:1;stroke:#313131;stroke-width:1.5;stroke-miterlimit:4;stroke-dasharray:none;stroke-opacity:1"
             d="M 982.18626,570.2581 L 964.87463,588.76364 C 962.55659,591.24154 959.01077,591.69637 955.52237,591.54942 C 953.08072,591.44657 951.23997,590.863 949.55284,590.15653 L 946.17011,587.9677 L 944.77722,590.35551 C 944.80751,591.89545 945.08191,593.01693 946.17011,592.74332 C 944.92402,592.55251 943.64204,592.29888 942.98636,593.14129 L 942.38941,595.92707 C 943.77113,596.69174 944.94851,596.88423 945.57316,595.5291 C 947.93278,595.92873 950.1252,595.15794 952.33862,594.53418 C 952.96376,594.36604 954.23519,594.34433 953.73151,595.5291 L 952.65025,596.97906 L 952.82145,599.70777 C 954.93845,601.28916 956.00532,599.34361 956.77633,597.83355 C 959.58624,599.37423 960.90162,597.22884 963.08377,595.92707 C 964.82603,594.88772 966.55643,593.99255 968.85432,595.13113 L 973.03299,598.1159 C 974.0713,598.38866 975.08315,598.89955 976.41572,596.52402 L 976.41572,593.73824 L 971.83908,592.94231 C 970.75946,592.75455 969.05642,591.75589 971.24213,589.36059 L 985.76798,573.44185 L 982.18626,570.2581 z"
             id="path6869"
             sodipodi:nodetypes="cssccccccccccccsccccsscc" />
          <path
             style="opacity:1;fill:#000000;fill-opacity:1;stroke:#313131;stroke-width:1.5;stroke-miterlimit:4;stroke-dasharray:none;stroke-opacity:1"
             d="M 937.91852,597.01593 C 939.27483,595.8338 939.4595,594.91914 942.31816,595.70015 L 942.77046,592.94524 C 936.37044,591.75136 937.69799,595.00231 937.91852,597.01593 z"
             id="path6871"
             sodipodi:nodetypes="cccc" />
          <path
             style="opacity:1;fill:#000000;fill-opacity:1;stroke:#313131;stroke-width:1.5;stroke-miterlimit:4;stroke-dasharray:none;stroke-opacity:1"
             d="M 945.24664,587.56823 L 944.05422,590.32315 C 943.5086,589.5667 942.03367,589.73955 940.06576,590.40539 C 940.1792,588.36019 940.68902,586.46999 945.24664,587.56823 z"
             id="path6873"
             sodipodi:nodetypes="cccc" />
          <path
             style="opacity:1;fill:#000000;fill-opacity:1;stroke:#313131;stroke-width:1.5;stroke-miterlimit:4;stroke-dasharray:none;stroke-opacity:1"
             d="M 952.29585,597.00703 L 952.95374,599.92641 C 950.0524,598.84748 949.95176,600.71667 948.96528,601.65338 C 947.77538,599.44975 947.47024,596.4123 952.29585,597.00703 z"
             id="path6875"
             sodipodi:nodetypes="cccc" />
          <path
             style="opacity:1;fill:#000000;fill-opacity:1;stroke:#313131;stroke-width:1.5;stroke-miterlimit:4;stroke-dasharray:none;stroke-opacity:1"
             d="M 976.47786,594.06035 C 979.60632,592.86751 980.27199,596.7272 979.68507,598.87117 C 978.05053,596.98077 976.94833,596.48775 976.19003,596.8975 L 976.47786,594.06035 z"
             id="path6877"
             sodipodi:nodetypes="cccc" />
        </g>
        <g
           transform="translate(-500.00018,0)"
           id="g6879"
           style="display:inline">
          <path
             style="opacity:1;fill:#000000;fill-opacity:1;stroke:#313131;stroke-width:2;stroke-miterlimit:4;stroke-dasharray:none;stroke-opacity:1"
             d="M 716.23879,452.31179 C 715.78204,456.42555 734.32181,456.20786 741.26367,461.07963 C 743.14391,460.14446 745.14718,459.5784 746.19558,456.14772 C 744.98615,454.37102 743.83096,452.91979 742.90764,452.85978 C 733.91482,452.48218 724.07626,450.50707 716.23879,452.31179 z"
             id="path6881"
             sodipodi:nodetypes="ccccc" />
          <path
             style="opacity:1;fill:#000000;fill-opacity:1;stroke:#313131;stroke-width:2;stroke-miterlimit:4;stroke-dasharray:none;stroke-opacity:1"
             d="M 740.53302,446.10124 C 731.08349,448.00378 716.7214,445.34466 713.31618,452.85978 C 723.96202,450.51373 733.13018,452.6007 742.90764,452.85978 C 740.99729,450.84578 740.66447,448.54737 740.53302,446.10124 z"
             id="path6883"
             sodipodi:nodetypes="cccc" />
          <path
             style="opacity:1;fill:#000000;fill-opacity:1;stroke:#313131;stroke-width:2;stroke-miterlimit:4;stroke-dasharray:none;stroke-opacity:1"
             d="M 740.53302,446.10124 C 741.11193,449.50747 742.11966,452.11082 743.04981,453.293 C 744.09343,454.6194 745.08667,454.39318 746.19558,456.14772 C 745.0776,459.04577 743.32715,460.54532 741.26367,461.07963 C 752.87236,473.82301 747.79625,488.65198 744.36895,503.27486 C 745.47825,515.38153 750.01482,524.91776 754.96342,534.14496 C 761.49211,541.45552 771.13808,543.38168 772.86443,558.98718 L 777.61367,579.62813 C 782.23807,576.09141 785.71336,576.28929 788.39081,579.08014 L 788.57347,574.51356 L 794.4187,578.71482 L 794.60136,573.96557 L 801.90791,579.8108 L 801.90791,575.7922 L 807.38781,580.17612 L 806.47451,573.96557 L 814.14631,579.99346 L 813.96371,576.15753 L 821.08751,579.08014 L 822.36621,571.95627 C 828.37991,581.34007 837.26653,588.66041 847.32553,595.76135 C 855.07038,588.85274 859.97485,583.45802 865.01884,577.65528 C 856.37348,568.77821 848.04532,558.38203 841.18051,548.21004 L 845.19911,547.66205 L 830.58601,526.29044 L 830.58601,524.28114 L 816.88631,506.74546 L 816.88631,504.37084 C 813.49751,495.52667 804.20431,488.8966 797.34131,481.35526 C 791.67767,478.35158 790.94367,474.86384 789.66945,471.30878 C 783.25806,453.42104 774.71511,446.3603 765.0099,444.45727 C 760.44576,443.56232 757.41558,443.47871 754.0501,442.99596 C 750.94986,442.55125 747.43638,443.59658 743.82096,444.82259 L 740.53302,446.10124 z"
             id="path6885"
             sodipodi:nodetypes="cscccccccccccccccccccccccccccssscc" />
          <path
             sodipodi:type="arc"
             style="opacity:1;fill:#000000;fill-opacity:1;stroke:#ffffff;stroke-width:2.3505187;stroke-miterlimit:4;stroke-dasharray:none;stroke-opacity:1"
             id="path6887"
             sodipodi:cx="951.94995"
             sodipodi:cy="458.61368"
             sodipodi:rx="2.1006284"
             sodipodi:ry="9.7724886"
             d="M 954.05058,458.61368 A 2.1006284,9.7724886 0 1 1 949.84932,458.61368 A 2.1006284,9.7724886 0 1 1 954.05058,458.61368 z"
             transform="matrix(1.3764343,0,0,0.2958691,-557.51557,314.29566)" />
          <path
             style="opacity:1;fill:none;fill-opacity:1;stroke:#313131;stroke-width:1.5;stroke-miterlimit:4;stroke-dasharray:none;stroke-opacity:1"
             d="M 775.65492,498.43722 C 776.66349,502.46201 790.92622,513.83947 787.14043,502.87828 C 789.28558,508.21391 798.09177,511.36999 794.79743,503.79712 C 799.48116,509.88826 807.61961,510.14318 803.21801,503.95026 C 806.48481,508.06627 813.74741,512.23674 810.57091,503.03142 L 815.31821,507.47249"
             id="path6889"
             sodipodi:nodetypes="cccccc" />
          <path
             style="opacity:1;fill:none;fill-opacity:1;stroke:#313131;stroke-width:1.5;stroke-miterlimit:4;stroke-dasharray:none;stroke-opacity:1"
             d="M 782.39309,510.84157 C 786.29235,515.05873 790.1175,519.39051 794.79743,522.78649 C 801.36931,527.55538 803.06111,524.23411 802.60761,522.17393 L 794.18487,513.13867 C 797.79102,516.66998 800.44091,520.81396 805.36411,523.55219 C 808.65601,525.38308 813.63401,524.88406 812.25541,521.71451 L 803.67951,512.98553 C 807.30381,516.25252 809.65391,519.03869 814.55251,522.78649 C 817.68261,525.18124 822.35771,524.7507 820.98441,522.48021 C 817.51691,516.74738 814.85791,515.5315 811.79601,512.06669 C 816.84581,516.33047 821.59251,522.71537 826.95681,524.77731"
             id="path6891"
             sodipodi:nodetypes="csccsccsscc" />
          <path
             style="opacity:1;fill:none;fill-opacity:1;stroke:#313131;stroke-width:1.5;stroke-miterlimit:4;stroke-dasharray:none;stroke-opacity:1"
             d="M 786.37473,523.70533 C 792.21081,530.01167 797.18572,537.53502 804.59841,541.62272 C 806.68201,542.77173 810.85201,542.1723 808.73321,539.17248 L 797.86023,527.3807 C 803.11801,532.43432 807.18531,537.84003 813.63371,542.54156 C 815.05101,543.57494 817.21651,544.44517 817.92161,541.77586 L 804.90471,527.53384 C 810.62191,532.94479 814.71401,539.04943 822.05641,543.76668 C 824.11731,545.09072 826.80731,544.18253 825.57861,542.38842 C 820.42191,534.85847 817.41111,532.48537 813.32741,527.53384 C 819.35091,533.55735 823.49721,541.86561 831.39791,545.60436 C 833.23141,546.47199 837.26092,545.5641 834.46071,542.23528 C 829.43344,536.259 827.0913,531.97537 822.97521,527.99326 C 827.05847,533.40421 834.53441,542.14259 838.44231,544.2261"
             id="path6893"
             sodipodi:nodetypes="csccsccsscsscc" />
          <path
             style="opacity:1;fill:none;fill-opacity:1;stroke:#313131;stroke-width:1.5;stroke-miterlimit:4;stroke-dasharray:none;stroke-opacity:1"
             d="M 830.32591,566.58455 C 837.18327,574.42702 844.64804,582.09595 853.01163,589.50807"
             id="path6895"
             sodipodi:nodetypes="cs" />
          <path
             style="opacity:1;fill:none;fill-opacity:1;stroke:#313131;stroke-width:1.5;stroke-miterlimit:4;stroke-dasharray:none;stroke-opacity:1"
             d="M 839.51431,566.43141 C 845.28827,572.49753 851.27869,578.45545 858.10259,583.99661"
             id="path6897"
             sodipodi:nodetypes="cs" />
          <path
             style="opacity:1;fill:none;fill-opacity:1;stroke:#313131;stroke-width:1.5;stroke-miterlimit:4;stroke-dasharray:none;stroke-opacity:1"
             d="M 822.36621,571.95627 L 813.17421,559.23383"
             id="path6901"
             sodipodi:nodetypes="cc" />
        </g>
      </g>
    </g>
    <use
       x="0"
       y="0"
       xlink:href="#g6820"
       id="use12213"
       transform="translate(0,170)"
       width="600"
       height="660" />
  </g>
  <g
     inkscape:groupmode="layer"
     id="layer4"
     inkscape:label="Meubles">
    <g
       style="display:inline"
       id="g12238"
       transform="translate(0,-170)">
      <path
         sodipodi:nodetypes="ccssccscc"
         id="_75466384"
         class="fil2 str0"
         d="M 214.1786,254.65842 C 223.13898,255.0818 231.15189,255.28102 238.12364,266.28047 C 242.05975,272.49036 243.4927,280.22807 245.88402,287.56933 C 247.42641,292.30438 248.91259,298.16963 252.62972,300.90793 C 278.95992,320.30464 251.9169,321.07617 236.91095,302.7891 C 232.1764,294.6032 231.40616,284.38707 230.23668,275.03129 C 229.64626,270.23218 228.1998,263.41371 224.88252,260.1491 C 221.44945,256.77069 215.64428,254.84828 214.1786,254.65842 L 214.1786,254.65842 z"
         style="fill:#ffffff;fill-opacity:1;stroke:#000000;stroke-width:1.79999995;stroke-miterlimit:4;stroke-dasharray:none;stroke-opacity:1" />
      <path
         sodipodi:nodetypes="ccccccc"
         id="path11209"
         d="M 79.306531,238.36004 L 60.576256,247.97657 L 55.66961,252.41003 L 55.383024,254.86502 L 74.224685,245.90587 L 80.48915,240.99235 L 79.306531,238.36004 z"
         style="fill:#ff0000;fill-opacity:1;fill-rule:evenodd;stroke:#000000;stroke-width:1.79999995;stroke-linecap:butt;stroke-linejoin:miter;stroke-miterlimit:4;stroke-dasharray:none;stroke-opacity:1" />
      <path
         sodipodi:nodetypes="cccccccccccccccccccccccccccccccssssssssssssssscsssssssssscscsssssssssssssscssssssssssssssscscsccccccc"
         id="_75466240"
         d="M 90.159367,194.40272 L 88.536212,196.94288 L 86.654551,200.75312 L 78.984129,212.6072 C 75.603142,212.42591 72.224178,214.82439 68.843191,217.00712 C 64.288539,221.86486 63.685757,228.81256 57.610497,233.23088 L 49.667228,238.87064 L 50.241788,242.63552 L 55.211732,246.476 L 62.250092,243.6788 L 70.121564,240.97232 L 75.63734,238.55312 L 79.142156,240.8816 L 79.285796,244.29872 L 75.292604,247.70072 L 68.656436,250.08968 L 62.681012,252.73568 L 60.727508,255.13976 L 62.106452,257.63454 L 65.898548,257.51358 L 66.30074,254.7164 L 71.112657,254.38376 L 71.830903,252.28208 L 76.570977,249.96872 L 81.023863,250.08968 L 83.006049,253.74872 L 90.633356,261.15752 L 90.547172,264.51416 L 95.588913,270.69822 L 101.11908,274.34216 L 104.25043,273.97928 C 105.05752,275.92461 106.00403,272.20431 107.10889,274.55384 C 107.68928,275.78807 107.3263,276.41082 106.14648,276.7916 C 104.00875,277.48146 102.14473,277.9592 100.28596,278.18264 C 97.568939,278.50889 94.905784,278.45161 91.811204,278.96888 C 89.834901,279.29929 88.408384,281.00507 86.525252,282.40114 C 84.865831,283.63107 79.943414,288.88276 74.588791,292.77342 C 69.976729,296.12454 66.860775,300.95341 65.352716,304.55192 C 64.471387,306.65537 64.482235,309.91195 65.323988,311.21982 C 65.866235,312.06233 67.004737,311.62798 67.722753,311.09886 C 68.728968,310.35761 70.180767,309.54065 71.299412,309.81368 C 72.861939,310.19499 73.981596,309.10413 75.436244,307.87832 C 79.29862,304.623 82.793967,298.99192 86.223585,295.90328 C 88.222502,294.10315 89.425493,293.13959 92.141553,292.89438 C 99.352511,292.24327 113.61838,290.904 120.29499,291.11026 C 122.15211,291.1675 122.71872,291.56512 123.85727,293.15144 C 126.48029,296.8055 127.89849,301.81798 129.3587,306.53266 C 132.05339,315.23124 134.86073,323.44466 135.67886,328.87998 C 135.89577,330.32066 136.85685,333.60167 135.27667,333.88472 C 132.54378,334.37475 129.66892,334.0828 127.49138,337.21112 C 121.78218,345.41308 128.57987,345.78414 132.57624,345.78418 C 136.0982,345.78418 138.42489,344.64082 140.72065,342.66942 C 141.95526,341.60937 143.68961,341.02252 144.4409,339.85714 C 146.33015,336.9257 146.78575,335.36619 145.61875,330.22568 C 144.1772,323.87678 142.0009,318.13326 140.93608,311.64318 C 140.77553,310.66437 140.48503,309.36361 141.41012,307.90856 C 142.34573,306.43653 143.25119,305.04495 141.51064,302.2083 C 140.66278,300.82606 139.87931,298.88823 138.73837,295.93352 C 141.83047,296.41315 145.10086,296.98616 148.53466,297.09778 C 160.71189,297.49386 175.59671,295.03542 188.65329,289.68894 C 188.35181,297.20336 189.05433,307.20617 196.09384,312.35384 C 197.44075,313.33874 199.39361,314.42032 200.67594,314.7428 C 202.22376,315.13224 202.83104,315.26728 204.0515,315.96754 C 205.3563,316.71638 206.05704,318.29685 204.98514,320.12552 C 203.32898,322.9509 198.2843,332.45033 196.8695,334.74654 C 196.47172,335.39212 195.30872,336.10095 194.29832,336.3644 C 192.8838,336.73304 191.2521,336.27208 190.19026,336.59122 C 187.75344,337.32405 185.67362,339.60269 184.91865,342.21586 C 184.4255,343.92237 185.20331,345.56786 186.8865,347.06936 C 187.55446,347.66521 190.21021,347.366 193.52271,347.31128 C 194.36915,347.29749 195.34269,346.37466 195.77784,345.63294 C 196.67967,344.09597 197.66189,344.05126 198.56445,343.98488 C 199.97815,343.881 201.10015,342.39537 201.39418,341.85298 C 203.94647,337.14759 206.51328,332.62954 209.35179,328.27518 C 213.08464,322.54888 215.97288,315.88897 218.90388,309.58686 C 220.38725,309.52376 225.03641,311.10732 228.80069,313.91122 C 231.03104,315.5723 233.17471,317.40329 234.64682,319.1125 C 236.06001,320.75354 237.80727,323.90746 237.92181,326.65736 C 238.06628,330.12432 238.12153,336.05886 238.05111,339.31282 C 238.00528,341.43287 237.84781,341.91404 236.21252,341.92856 C 234.53338,341.94366 232.29627,342.08508 230.35201,343.80344 C 229.22417,344.80034 228.39855,345.91051 227.73771,347.29618 C 226.21917,350.48014 226.2485,352.0906 229.13104,352.2404 C 232.04944,352.39233 235.02961,352.5607 238.07979,351.92286 C 238.77345,351.77799 239.33831,351.56554 239.57365,351.07614 C 240.83768,348.44792 241.54513,346.94284 242.77684,345.76904 C 243.33881,345.23328 243.79418,345.19129 244.02653,343.72786 C 244.98899,337.66738 244.11736,330.34708 245.13254,324.43474 C 245.62648,321.55696 245.8791,318.58797 245.66399,313.6844 C 245.47116,309.28218 245.4941,306.35582 241.92935,305.47422 C 236.79246,304.20356 235.42523,304.8009 232.7795,297.68744 C 229.5616,289.03459 231.15437,278.65153 229.67688,269.39794 C 226.9997,252.62976 215.19185,250.03352 205.20062,248.54744 C 193.82893,243.74246 183.62281,242.60581 172.56561,242.60528 C 164.63751,242.60489 150.20772,245.6444 142.58792,240.94208 C 137.51264,240.25463 134.0773,238.53142 126.65827,239.32424 C 126.16046,237.03186 124.91843,235.67957 121.80324,236.69336 C 116.12571,232.97638 110.13296,226.9368 104.92556,226.68392 C 101.80237,223.59854 100.05391,217.79034 93.487839,217.81132 L 92.29958,214.75424 L 90.159367,194.40272 z"
         style="fill:#ffffff;fill-opacity:1;stroke:#000000;stroke-width:1.79999995;stroke-miterlimit:4;stroke-dasharray:none;stroke-opacity:1" />
      <path
         sodipodi:nodetypes="csssssssc"
         id="_75454448"
         class="fil3 str0"
         d="M 109.89836,277.96757 C 112.48556,277.85943 113.63373,274.32619 115.38015,271.50942 C 117.15741,268.64238 116.73154,269.31806 116.98999,271.60464 C 117.69889,277.87642 120.43214,275.52186 121.18075,271.86025 C 121.93397,268.17586 122.64688,268.70068 123.02281,272.01199 C 123.19822,273.55795 124.30016,274.1269 125.0585,272.26058 C 126.24597,269.33853 127.21856,269.52379 128.14721,270.72197 C 129.1555,272.02292 130.34334,271.46544 131.27686,270.17688 C 132.80828,268.06269 134.60077,265.05756 134.97707,263.48218"
         style="fill:#ffffff;fill-opacity:1;stroke:#000000;stroke-width:1.79999995;stroke-miterlimit:4;stroke-dasharray:none;stroke-opacity:1" />
      <path
         id="_75454376"
         class="fil3 str0"
         d="M 140.45231,245.61033 C 140.13456,248.1622 138.53372,256.19142 136.68442,260.00385"
         style="fill:#ffffff;fill-opacity:1;stroke:#000000;stroke-width:1.79999995;stroke-miterlimit:4;stroke-dasharray:none;stroke-opacity:1" />
      <path
         id="_75454304"
         class="fil3 str0"
         d="M 206.36197,254.41012 C 217.86714,255.42676 224.14069,259.28516 225.11993,277.71244"
         style="fill:#ffffff;fill-opacity:1;stroke:#000000;stroke-width:1.79999995;stroke-miterlimit:4;stroke-dasharray:none;stroke-opacity:1" />
      <path
         id="_75454232"
         class="fil3 str0"
         d="M 193.81068,304.53257 C 195.11512,307.43938 197.64796,309.70462 201.66321,311.19606"
         style="fill:#ffffff;fill-opacity:1;stroke:#000000;stroke-width:1.79999995;stroke-miterlimit:4;stroke-dasharray:none;stroke-opacity:1" />
      <path
         id="_75454160"
         class="fil3 str0"
         d="M 189.6032,340.55494 C 190.74497,338.91443 191.91656,339.36735 193.34386,339.36735"
         style="fill:#ffffff;fill-opacity:1;stroke:#000000;stroke-width:1.79999995;stroke-miterlimit:4;stroke-dasharray:none;stroke-opacity:1" />
      <path
         id="_75454088"
         class="fil3 str0"
         d="M 239.33647,308.55579 C 243.33283,308.55579 243.23222,310.96183 243.23222,315.88311"
         style="fill:#ffffff;fill-opacity:1;stroke:#000000;stroke-width:1.79999995;stroke-miterlimit:4;stroke-dasharray:none;stroke-opacity:1" />
      <path
         id="_75454016"
         class="fil3 str0"
         d="M 231.63314,346.87587 C 232.32431,345.87858 234.1675,345.30891 236.60809,345.02441"
         style="fill:#ffffff;fill-opacity:1;stroke:#000000;stroke-width:1.79999995;stroke-miterlimit:4;stroke-dasharray:none;stroke-opacity:1" />
      <path
         id="_75453944"
         class="fil3 str0"
         d="M 138.87444,314.7278 C 139.3651,317.54728 141.68497,324.54695 142.32121,328.45749"
         style="fill:#ffffff;fill-opacity:1;stroke:#000000;stroke-width:1.79999995;stroke-miterlimit:4;stroke-dasharray:none;stroke-opacity:1" />
      <path
         id="_75453872"
         class="fil3 str0"
         d="M 120.97262,282.19774 C 121.04953,286.69484 122.15409,288.85083 123.43569,292.6631"
         style="fill:#ffffff;fill-opacity:1;stroke:#000000;stroke-width:1.79999995;stroke-miterlimit:4;stroke-dasharray:none;stroke-opacity:1" />
      <path
         id="_75453800"
         class="fil3 str0"
         d="M 128.73663,340.87601 C 129.43055,338.67304 131.82008,337.56902 134.98094,336.96402"
         style="fill:#ffffff;fill-opacity:1;stroke:#000000;stroke-width:1.79999995;stroke-miterlimit:4;stroke-dasharray:none;stroke-opacity:1" />
      <path
         id="_75453728"
         class="fil3 str0"
         d="M 75.025185,296.99376 C 76.006391,295.93657 82.93627,288.87628 85.693735,287.00532"
         style="fill:#ffffff;fill-opacity:1;stroke:#000000;stroke-width:1.79999995;stroke-miterlimit:4;stroke-dasharray:none;stroke-opacity:1" />
      <path
         id="_75262336"
         class="fil3 str0"
         d="M 66.330907,311.82384 C 66.891866,309.40561 67.611008,308.25102 69.131073,306.92622"
         style="fill:#ffffff;fill-opacity:1;stroke:#000000;stroke-width:1.79999995;stroke-miterlimit:4;stroke-dasharray:none;stroke-opacity:1" />
      <path
         id="_75262264"
         class="fil3 str0"
         d="M 107.35395,275.72256 C 109.32698,279.41396 112.00217,283.1376 114.74341,285.71066 C 118.02937,288.79504 121.07862,290.55196 122.32164,291.51534"
         style="fill:#ffffff;fill-opacity:1;stroke:#000000;stroke-width:1.79999995;stroke-miterlimit:4;stroke-dasharray:none;stroke-opacity:1" />
      <path
         id="_75262192"
         class="fil3 str0"
         d="M 219.18297,309.45443 C 215.34542,307.75813 209.26028,304.64308 205.68992,301.68386 C 202.36675,298.92984 201.12933,293.85896 200.49461,291.28198 C 200.07196,289.56633 199.96357,289.15613 198.16447,289.13799 C 196.06075,289.11665 192.53718,289.71826 188.47715,289.78836"
         style="fill:#ffffff;fill-opacity:1;stroke:#000000;stroke-width:1.79999995;stroke-miterlimit:4;stroke-dasharray:none;stroke-opacity:1" />
      <path
         id="_75262120"
         class="fil3 str0"
         d="M 138.18088,287.84599 C 138.18088,288.23795 138.35605,293.87831 138.80514,295.91736"
         style="fill:#ffffff;fill-opacity:1;stroke:#000000;stroke-width:1.79999995;stroke-miterlimit:4;stroke-dasharray:none;stroke-opacity:1" />
      <path
         sodipodi:nodetypes="ccccccccc"
         id="path9435"
         d="M 68.845862,217.0135 L 68.636552,212.19832 L 72.35487,206.32312 L 76.614713,201.04998 L 79.204333,195.72882 L 80.917767,202.6986 L 81.653401,208.70189 L 78.612301,214.24467 L 68.845862,217.0135 z"
         style="fill:#ffffff;fill-opacity:1;fill-rule:evenodd;stroke:#000000;stroke-width:1.79999995;stroke-linecap:butt;stroke-linejoin:miter;stroke-miterlimit:4;stroke-dasharray:none;stroke-opacity:1" />
      <path
         id="path10322"
         d="M 64.505098,242.57663 L 64.955359,246.69496 L 60.682734,243.87426 L 64.505098,242.57663 z"
         style="fill:#ffffff;fill-opacity:1;fill-rule:evenodd;stroke:#000000;stroke-width:1.79999995;stroke-linecap:butt;stroke-linejoin:miter;stroke-miterlimit:4;stroke-dasharray:none;stroke-opacity:1" />
      <path
         id="path12096"
         d="M 64.15645,251.71574 L 65.255942,247.99386 L 68.445508,249.61046 L 64.15645,251.71574 z"
         style="fill:#ffffff;fill-opacity:1;fill-rule:evenodd;stroke:#000000;stroke-width:1.79999995;stroke-linecap:butt;stroke-linejoin:miter;stroke-miterlimit:4;stroke-dasharray:none;stroke-opacity:1" />
      <path
         id="path12983"
         d="M 67.112359,227.98952 L 76.141942,223.55735 L 78.204024,221.38803 L 75.298616,225.99633 L 75.748883,230.11466 L 72.362789,231.77673 L 70.151018,231.12663 L 70.347555,227.84798 L 67.112359,227.98952 z"
         style="fill:#000000;fill-opacity:1;fill-rule:evenodd;stroke:none;stroke-width:1.79999995;stroke-linecap:butt;stroke-linejoin:miter;stroke-miterlimit:4;stroke-dasharray:none;stroke-opacity:1" />
      <path
         id="path13870"
         d="M 87.071148,206.04259 L 81.967975,213.7547 L 84.990212,221.81779 L 86.571608,216.70221 L 85.444123,212.91629 L 87.071148,206.04259 z"
         style="fill:#000000;fill-opacity:1;fill-rule:evenodd;stroke:#000000;stroke-width:1.79999995;stroke-linecap:butt;stroke-linejoin:miter;stroke-miterlimit:4;stroke-dasharray:none;stroke-opacity:1" />
    </g>
    <use
       style="display:inline"
       x="0"
       y="0"
       xlink:href="#g12238"
       id="use12263"
       transform="translate(0,170)"
       width="600"
       height="660" />
    <g
       style="display:inline"
       id="g12265"
       transform="translate(0,170)">
      <path
         style="fill:#ffffff;fill-opacity:1;stroke:#000000;stroke-width:1.79999995;stroke-miterlimit:4;stroke-dasharray:none;stroke-opacity:1"
         d="M 214.1786,254.65842 C 223.13898,255.0818 231.15189,255.28102 238.12364,266.28047 C 242.05975,272.49036 243.4927,280.22807 245.88402,287.56933 C 247.42641,292.30438 248.91259,298.16963 252.62972,300.90793 C 278.95992,320.30464 251.9169,321.07617 236.91095,302.7891 C 232.1764,294.6032 231.40616,284.38707 230.23668,275.03129 C 229.64626,270.23218 228.1998,263.41371 224.88252,260.1491 C 221.44945,256.77069 215.64428,254.84828 214.1786,254.65842 L 214.1786,254.65842 z"
         class="fil2 str0"
         id="path12267"
         sodipodi:nodetypes="ccssccscc" />
      <path
         style="fill:#ff0000;fill-opacity:1;fill-rule:evenodd;stroke:#000000;stroke-width:1.79999995;stroke-linecap:butt;stroke-linejoin:miter;stroke-miterlimit:4;stroke-dasharray:none;stroke-opacity:1"
         d="M 79.306531,238.36004 L 60.576256,247.97657 L 55.66961,252.41003 L 55.383024,254.86502 L 74.224685,245.90587 L 80.48915,240.99235 L 79.306531,238.36004 z"
         id="path12269"
         sodipodi:nodetypes="ccccccc" />
      <path
         style="fill:#ffffff;fill-opacity:1;stroke:#000000;stroke-width:1.79999995;stroke-miterlimit:4;stroke-dasharray:none;stroke-opacity:1"
         d="M 90.159367,194.40272 L 88.536212,196.94288 L 86.654551,200.75312 L 78.984129,212.6072 C 75.603142,212.42591 72.224178,214.82439 68.843191,217.00712 C 64.288539,221.86486 63.685757,228.81256 57.610497,233.23088 L 49.667228,238.87064 L 50.241788,242.63552 L 55.211732,246.476 L 62.250092,243.6788 L 70.121564,240.97232 L 75.63734,238.55312 L 79.142156,240.8816 L 79.285796,244.29872 L 75.292604,247.70072 L 68.656436,250.08968 L 62.681012,252.73568 L 60.727508,255.13976 L 62.106452,257.63454 L 65.898548,257.51358 L 66.30074,254.7164 L 71.112657,254.38376 L 71.830903,252.28208 L 76.570977,249.96872 L 81.023863,250.08968 L 83.006049,253.74872 L 90.633356,261.15752 L 90.547172,264.51416 L 95.588913,270.69822 L 101.11908,274.34216 L 104.25043,273.97928 C 105.05752,275.92461 106.00403,272.20431 107.10889,274.55384 C 107.68928,275.78807 107.3263,276.41082 106.14648,276.7916 C 104.00875,277.48146 102.14473,277.9592 100.28596,278.18264 C 97.568939,278.50889 94.905784,278.45161 91.811204,278.96888 C 89.834901,279.29929 88.408384,281.00507 86.525252,282.40114 C 84.865831,283.63107 79.943413,288.88276 74.588791,292.77342 C 70.85341,295.48754 68.099422,299.17102 66.386214,302.38509 L 71.299412,309.81368 C 72.861939,310.19499 73.981596,309.10413 75.436244,307.87832 C 79.29862,304.623 82.793967,298.99192 86.223585,295.90328 C 88.222502,294.10315 89.425493,293.13959 92.141553,292.89438 C 99.352511,292.24327 113.61838,290.904 120.29499,291.11026 C 122.15211,291.1675 122.71872,291.56512 123.85727,293.15144 C 126.48029,296.8055 127.89849,301.81798 129.3587,306.53266 C 132.05339,315.23124 134.86073,323.44466 135.67886,328.87998 C 135.89577,330.32066 136.85685,333.60167 135.27667,333.88472 C 132.54378,334.37475 129.66892,334.0828 127.49138,337.21112 C 121.78218,345.41308 128.57987,345.78414 132.57624,345.78418 C 136.0982,345.78418 138.42489,344.64082 140.72065,342.66942 C 141.95526,341.60937 143.68961,341.02252 144.4409,339.85714 C 146.33015,336.9257 146.78575,335.36619 145.61875,330.22568 C 144.1772,323.87678 142.0009,318.13326 140.93608,311.64318 C 140.77553,310.66437 140.48503,309.36361 141.41012,307.90856 C 142.34573,306.43653 143.25119,305.04495 141.51064,302.2083 C 140.66278,300.82606 139.87931,298.88823 138.73837,295.93352 C 141.83047,296.41315 145.10086,296.98616 148.53466,297.09778 C 160.71189,297.49386 175.59671,295.03542 188.65329,289.68894 C 188.35181,297.20336 189.05433,307.20617 196.09384,312.35384 C 197.44075,313.33874 199.39361,314.42032 200.67594,314.7428 C 202.22376,315.13224 202.83104,315.26728 204.0515,315.96754 C 205.3563,316.71638 206.05704,318.29685 204.98514,320.12552 C 203.32898,322.9509 198.2843,332.45033 196.8695,334.74654 C 196.47172,335.39212 195.30872,336.10095 194.29832,336.3644 C 192.8838,336.73304 191.2521,336.27208 190.19026,336.59122 C 187.75344,337.32405 185.67362,339.60269 184.91865,342.21586 C 184.4255,343.92237 185.20331,345.56786 186.8865,347.06936 C 187.55446,347.66521 190.21021,347.366 193.52271,347.31128 C 194.36915,347.29749 195.34269,346.37466 195.77784,345.63294 C 196.67967,344.09597 197.66189,344.05126 198.56445,343.98488 C 199.97815,343.881 201.10015,342.39537 201.39418,341.85298 C 203.94647,337.14759 206.51328,332.62954 209.35179,328.27518 C 213.08464,322.54888 215.97288,315.88897 218.90388,309.58686 C 220.38725,309.52376 225.03641,311.10732 228.80069,313.91122 C 231.03104,315.5723 233.17471,317.40329 234.64682,319.1125 C 236.06001,320.75354 237.80727,323.90746 237.92181,326.65736 C 238.06628,330.12432 238.12153,336.05886 238.05111,339.31282 C 238.00528,341.43287 237.84781,341.91404 236.21252,341.92856 C 234.53338,341.94366 232.29627,342.08508 230.35201,343.80344 C 229.22417,344.80034 228.39855,345.91051 227.73771,347.29618 C 226.21917,350.48014 226.2485,352.0906 229.13104,352.2404 C 232.04944,352.39233 235.02961,352.5607 238.07979,351.92286 C 238.77345,351.77799 239.33831,351.56554 239.57365,351.07614 C 240.83768,348.44792 241.54513,346.94284 242.77684,345.76904 C 243.33881,345.23328 243.79418,345.19129 244.02653,343.72786 C 244.98899,337.66738 244.11736,330.34708 245.13254,324.43474 C 245.62648,321.55696 245.8791,318.58797 245.66399,313.6844 C 245.47116,309.28218 245.4941,306.35582 241.92935,305.47422 C 236.79246,304.20356 235.42523,304.8009 232.7795,297.68744 C 229.5616,289.03459 231.15437,278.65153 229.67688,269.39794 C 226.9997,252.62976 215.19185,250.03352 205.20062,248.54744 C 193.82893,243.74246 183.62281,242.60581 172.56561,242.60528 C 164.63751,242.60489 150.20772,245.6444 142.58792,240.94208 C 137.51264,240.25463 134.0773,238.53142 126.65827,239.32424 C 126.16046,237.03186 124.91843,235.67957 121.80324,236.69336 C 116.12571,232.97638 110.13296,226.9368 104.92556,226.68392 C 101.80237,223.59854 100.05391,217.79034 93.487839,217.81132 L 92.29958,214.75424 L 90.159367,194.40272 z"
         id="path12271"
         sodipodi:nodetypes="cccccccccccccccccccccccccccccccssssssccssssscsssssssssscscsssssssssssssscssssssssssssssscscsccccccc" />
      <path
         style="fill:#ffffff;fill-opacity:1;stroke:#000000;stroke-width:1.79999995;stroke-miterlimit:4;stroke-dasharray:none;stroke-opacity:1"
         d="M 109.89836,277.96757 C 112.48556,277.85943 113.63373,274.32619 115.38015,271.50942 C 117.15741,268.64238 116.73154,269.31806 116.98999,271.60464 C 117.69889,277.87642 120.43214,275.52186 121.18075,271.86025 C 121.93397,268.17586 122.64688,268.70068 123.02281,272.01199 C 123.19822,273.55795 124.30016,274.1269 125.0585,272.26058 C 126.24597,269.33853 127.21856,269.52379 128.14721,270.72197 C 129.1555,272.02292 130.34334,271.46544 131.27686,270.17688 C 132.80828,268.06269 134.60077,265.05756 134.97707,263.48218"
         class="fil3 str0"
         id="path12273"
         sodipodi:nodetypes="csssssssc" />
      <path
         style="fill:#ffffff;fill-opacity:1;stroke:#000000;stroke-width:1.79999995;stroke-miterlimit:4;stroke-dasharray:none;stroke-opacity:1"
         d="M 140.45231,245.61033 C 140.13456,248.1622 138.53372,256.19142 136.68442,260.00385"
         class="fil3 str0"
         id="path12275" />
      <path
         style="fill:#ffffff;fill-opacity:1;stroke:#000000;stroke-width:1.79999995;stroke-miterlimit:4;stroke-dasharray:none;stroke-opacity:1"
         d="M 206.36197,254.41012 C 217.86714,255.42676 224.14069,259.28516 225.11993,277.71244"
         class="fil3 str0"
         id="path12277" />
      <path
         style="fill:#ffffff;fill-opacity:1;stroke:#000000;stroke-width:1.79999995;stroke-miterlimit:4;stroke-dasharray:none;stroke-opacity:1"
         d="M 193.81068,304.53257 C 195.11512,307.43938 197.64796,309.70462 201.66321,311.19606"
         class="fil3 str0"
         id="path12279" />
      <path
         style="fill:#ffffff;fill-opacity:1;stroke:#000000;stroke-width:1.79999995;stroke-miterlimit:4;stroke-dasharray:none;stroke-opacity:1"
         d="M 189.6032,340.55494 C 190.74497,338.91443 191.91656,339.36735 193.34386,339.36735"
         class="fil3 str0"
         id="path12281" />
      <path
         style="fill:#ffffff;fill-opacity:1;stroke:#000000;stroke-width:1.79999995;stroke-miterlimit:4;stroke-dasharray:none;stroke-opacity:1"
         d="M 239.33647,308.55579 C 243.33283,308.55579 243.23222,310.96183 243.23222,315.88311"
         class="fil3 str0"
         id="path12283" />
      <path
         style="fill:#ffffff;fill-opacity:1;stroke:#000000;stroke-width:1.79999995;stroke-miterlimit:4;stroke-dasharray:none;stroke-opacity:1"
         d="M 231.63314,346.87587 C 232.32431,345.87858 234.1675,345.30891 236.60809,345.02441"
         class="fil3 str0"
         id="path12285" />
      <path
         style="fill:#ffffff;fill-opacity:1;stroke:#000000;stroke-width:1.79999995;stroke-miterlimit:4;stroke-dasharray:none;stroke-opacity:1"
         d="M 138.87444,314.7278 C 139.3651,317.54728 141.68497,324.54695 142.32121,328.45749"
         class="fil3 str0"
         id="path12287" />
      <path
         style="fill:#ffffff;fill-opacity:1;stroke:#000000;stroke-width:1.79999995;stroke-miterlimit:4;stroke-dasharray:none;stroke-opacity:1"
         d="M 120.97262,282.19774 C 121.04953,286.69484 122.15409,288.85083 123.43569,292.6631"
         class="fil3 str0"
         id="path12289" />
      <path
         style="fill:#ffffff;fill-opacity:1;stroke:#000000;stroke-width:1.79999995;stroke-miterlimit:4;stroke-dasharray:none;stroke-opacity:1"
         d="M 128.73663,340.87601 C 129.43055,338.67304 131.82008,337.56902 134.98094,336.96402"
         class="fil3 str0"
         id="path12291" />
      <path
         style="fill:#ffffff;fill-opacity:1;stroke:#000000;stroke-width:1.79999995;stroke-miterlimit:4;stroke-dasharray:none;stroke-opacity:1"
         d="M 75.025185,296.99376 C 76.006391,295.93657 82.93627,288.87628 85.693735,287.00532"
         class="fil3 str0"
         id="path12293" />
      <path
         style="fill:#ffffff;fill-opacity:1;stroke:#000000;stroke-width:1.79999995;stroke-miterlimit:4;stroke-dasharray:none;stroke-opacity:1"
         d="M 107.35395,275.72256 C 109.32698,279.41396 112.00217,283.1376 114.74341,285.71066 C 118.02937,288.79504 121.07862,290.55196 122.32164,291.51534"
         class="fil3 str0"
         id="path12297" />
      <path
         style="fill:#ffffff;fill-opacity:1;stroke:#000000;stroke-width:1.79999995;stroke-miterlimit:4;stroke-dasharray:none;stroke-opacity:1"
         d="M 219.18297,309.45443 C 215.34542,307.75813 209.26028,304.64308 205.68992,301.68386 C 202.36675,298.92984 201.12933,293.85896 200.49461,291.28198 C 200.07196,289.56633 199.96357,289.15613 198.16447,289.13799 C 196.06075,289.11665 192.53718,289.71826 188.47715,289.78836"
         class="fil3 str0"
         id="path12299" />
      <path
         style="fill:#ffffff;fill-opacity:1;stroke:#000000;stroke-width:1.79999995;stroke-miterlimit:4;stroke-dasharray:none;stroke-opacity:1"
         d="M 138.18088,287.84599 C 138.18088,288.23795 138.35605,293.87831 138.80514,295.91736"
         class="fil3 str0"
         id="path12301" />
      <path
         style="fill:#ffffff;fill-opacity:1;fill-rule:evenodd;stroke:#000000;stroke-width:1.79999995;stroke-linecap:butt;stroke-linejoin:miter;stroke-miterlimit:4;stroke-dasharray:none;stroke-opacity:1"
         d="M 68.845862,217.0135 L 68.636552,212.19832 L 72.35487,206.32312 L 76.614713,201.04998 L 79.204333,195.72882 L 80.917767,202.6986 L 81.653401,208.70189 L 78.612301,214.24467 L 68.845862,217.0135 z"
         id="path12303"
         sodipodi:nodetypes="ccccccccc" />
      <path
         style="fill:#ffffff;fill-opacity:1;fill-rule:evenodd;stroke:#000000;stroke-width:1.79999995;stroke-linecap:butt;stroke-linejoin:miter;stroke-miterlimit:4;stroke-dasharray:none;stroke-opacity:1"
         d="M 64.505098,242.57663 L 64.955359,246.69496 L 60.682734,243.87426 L 64.505098,242.57663 z"
         id="path12305" />
      <path
         style="fill:#ffffff;fill-opacity:1;fill-rule:evenodd;stroke:#000000;stroke-width:1.79999995;stroke-linecap:butt;stroke-linejoin:miter;stroke-miterlimit:4;stroke-dasharray:none;stroke-opacity:1"
         d="M 64.15645,251.71574 L 65.255942,247.99386 L 68.445508,249.61046 L 64.15645,251.71574 z"
         id="path12307" />
      <path
         style="fill:#000000;fill-opacity:1;fill-rule:evenodd;stroke:none;stroke-width:1.79999995;stroke-linecap:butt;stroke-linejoin:miter;stroke-miterlimit:4;stroke-dasharray:none;stroke-opacity:1"
         d="M 67.112359,227.98952 L 76.141942,223.55735 L 78.204024,221.38803 L 75.298616,225.99633 L 75.748883,230.11466 L 72.362789,231.77673 L 70.151018,231.12663 L 70.347555,227.84798 L 67.112359,227.98952 z"
         id="path12309" />
      <path
         style="fill:#000000;fill-opacity:1;fill-rule:evenodd;stroke:#000000;stroke-width:1.79999995;stroke-linecap:butt;stroke-linejoin:miter;stroke-miterlimit:4;stroke-dasharray:none;stroke-opacity:1"
         d="M 87.071148,206.04259 L 81.967975,213.7547 L 84.990212,221.81779 L 86.571608,216.70221 L 85.444123,212.91629 L 87.071148,206.04259 z"
         id="path12311" />
    </g>
  </g>
  <g
     inkscape:groupmode="layer"
     id="layer2"
     inkscape:label="Reflet final"
     sodipodi:insensitive="true">
    <path
       sodipodi:nodetypes="cccccc"
       d="M 300.00001,658.5 C 300.00001,658.5 598.50001,546.17969 598.50001,260.72817 C 598.50001,-24.723334 598.50001,2.1764865 598.50001,2.1764865 L 1.5,2.1764865 L 1.5,260.72817 C 1.5,546.17969 300.00001,658.5 300.00001,658.5 z "
       style="opacity:1;fill:url(#radialGradient3163);fill-opacity:1;fill-rule:evenodd;stroke:none;stroke-width:1px;stroke-linecap:butt;stroke-linejoin:miter;stroke-opacity:1"
       id="path2875"
       inkscape:export-xdpi="144"
       inkscape:export-ydpi="144" />
  </g>
  <g
     inkscape:groupmode="layer"
     id="layer1"
     inkscape:label="Contour final"
     sodipodi:insensitive="true">
    <path
       sodipodi:nodetypes="cccccc"
       d="M 299.99999,658.50028 C 299.99999,658.50028 1.5,546.17992 1.5,260.72828 C 1.5,-24.723336 1.5,2.1764957 1.5,2.1764957 L 598.49999,2.1764957 L 598.49999,260.72828 C 598.49999,546.17992 299.99999,658.50028 299.99999,658.50028 z"
       style="opacity:1;fill:none;fill-opacity:1;fill-rule:evenodd;stroke:#000000;stroke-width:3.00000048;stroke-linecap:butt;stroke-linejoin:miter;stroke-miterlimit:4;stroke-dasharray:none;stroke-opacity:1"
       id="path1411"
       inkscape:export-xdpi="144"
       inkscape:export-ydpi="144" />
  </g>
</svg>
