<?xml version="1.0" encoding="UTF-8" standalone="no"?>
<svg
   xmlns:dc="http://purl.org/dc/elements/1.1/"
   xmlns:cc="http://web.resource.org/cc/"
   xmlns:rdf="http://www.w3.org/1999/02/22-rdf-syntax-ns#"
   xmlns:svg="http://www.w3.org/2000/svg"
   xmlns="http://www.w3.org/2000/svg"
   xmlns:xlink="http://www.w3.org/1999/xlink"
   xmlns:sodipodi="http://sodipodi.sourceforge.net/DTD/sodipodi-0.dtd"
   xmlns:inkscape="http://www.inkscape.org/namespaces/inkscape"
   height="660"
   width="600"
   version="1.0"
   id="svg2"
   sodipodi:version="0.32"
   inkscape:version="0.44.1"
   sodipodi:docname="Blason_Gordes_84.svg"
   sodipodi:docbase="K:\blasons"
   inkscape:export-filename="/Users/olivier/Desktop/Blason Rouge/Blason_Vide_3D.png"
   inkscape:export-xdpi="144"
   inkscape:export-ydpi="144">
  <metadata
     id="metadata49">
    <rdf:RDF>
      <cc:Work
         rdf:about="">
        <dc:format>image/svg+xml</dc:format>
        <dc:type
           rdf:resource="http://purl.org/dc/dcmitype/StillImage" />
        <dc:title>Gabarit d'un blason en pointe pour le projet Blasons de Wikipédia</dc:title>
        <dc:date>03-AUG-2006</dc:date>
        <dc:creator>
          <cc:Agent>
            <dc:title>Jérôme BLUM (wagner51)</dc:title>
          </cc:Agent>
        </dc:creator>
        <cc:license
           rdf:resource="http://web.resource.org/cc/PublicDomain" />
        <dc:language>fr</dc:language>
        <dc:subject>
          <rdf:Bag>
            <rdf:li>gabarit modèle blason projet wikipédia</rdf:li>
          </rdf:Bag>
        </dc:subject>
      </cc:Work>
      <cc:License
         rdf:about="http://web.resource.org/cc/PublicDomain">
        <cc:permits
           rdf:resource="http://web.resource.org/cc/Reproduction" />
        <cc:permits
           rdf:resource="http://web.resource.org/cc/Distribution" />
        <cc:permits
           rdf:resource="http://web.resource.org/cc/DerivativeWorks" />
      </cc:License>
    </rdf:RDF>
  </metadata>
  <sodipodi:namedview
     inkscape:window-height="712"
     inkscape:window-width="1024"
     inkscape:pageshadow="2"
     inkscape:pageopacity="0.0"
     guidetolerance="10.0"
     gridtolerance="10.0"
     objecttolerance="10.0"
     borderopacity="1.0"
     bordercolor="#666666"
     pagecolor="#ffffff"
     id="base"
     showgrid="false"
     height="660px"
     inkscape:zoom="0.44547727"
     inkscape:cx="391.45641"
     inkscape:cy="348.65072"
     inkscape:window-x="-4"
     inkscape:window-y="-4"
     inkscape:current-layer="layer3" />
  <desc
     id="desc4">Flag of Canton of Valais (Wallis)</desc>
  <defs
     id="defs6">
    <linearGradient
       id="linearGradient2893">
      <stop
         style="stop-color:white;stop-opacity:0.3137255;"
         offset="0"
         id="stop2895" />
      <stop
         id="stop2897"
         offset="0.19"
         style="stop-color:white;stop-opacity:0.25098041;" />
      <stop
         style="stop-color:#6b6b6b;stop-opacity:0.1254902;"
         offset="0.60000002"
         id="stop2901" />
      <stop
         style="stop-color:black;stop-opacity:0.1254902;"
         offset="1"
         id="stop2899" />
    </linearGradient>
    <linearGradient
       id="linearGradient2885">
      <stop
         id="stop2887"
         offset="0"
         style="stop-color:white;stop-opacity:1;" />
      <stop
         style="stop-color:white;stop-opacity:1;"
         offset="0.22857143"
         id="stop2891" />
      <stop
         id="stop2889"
         offset="1"
         style="stop-color:black;stop-opacity:1;" />
    </linearGradient>
    <linearGradient
       id="linearGradient2955">
      <stop
         id="stop2867"
         offset="0"
         style="stop-color:#fd0000;stop-opacity:1;" />
      <stop
         style="stop-color:#e77275;stop-opacity:0.65882355;"
         offset="0.5"
         id="stop2873" />
      <stop
         style="stop-color:black;stop-opacity:0.32291666;"
         offset="1"
         id="stop2959" />
    </linearGradient>
    <radialGradient
       inkscape:collect="always"
       xlink:href="#linearGradient2955"
       id="radialGradient2961"
       cx="225.52438"
       cy="218.90099"
       fx="225.52438"
       fy="218.90099"
       r="300"
       gradientTransform="matrix(-4.167939e-4,2.182867,-1.884232,-3.599562e-4,615.5972,-289.1214)"
       gradientUnits="userSpaceOnUse" />
    <polygon
       id="star"
       transform="scale(53,53)"
       points="0,-1 0.58778525,0.80901699 -0.95105652,-0.30901699 0.95105652,-0.30901699 -0.58778525,0.80901699 0,-1 " />
    <clipPath
       id="clip">
      <path
         d="M 0,-200 L 0,600 L 300,600 L 300,-200 L 0,-200 z "
         id="path10" />
    </clipPath>
    <radialGradient
       inkscape:collect="always"
       xlink:href="#linearGradient2955"
       id="radialGradient1911"
       gradientUnits="userSpaceOnUse"
       gradientTransform="matrix(-4.167939e-4,2.182867,-1.884232,-3.599562e-4,615.5972,-289.1214)"
       cx="225.52438"
       cy="218.90099"
       fx="225.52438"
       fy="218.90099"
       r="300" />
    <radialGradient
       inkscape:collect="always"
       xlink:href="#linearGradient2955"
       id="radialGradient2865"
       gradientUnits="userSpaceOnUse"
       gradientTransform="matrix(0,1.748721,-1.593162,-1.049767e-7,551.7876,-191.2898)"
       cx="225.52438"
       cy="218.90099"
       fx="225.52438"
       fy="218.90099"
       r="300" />
    <radialGradient
       inkscape:collect="always"
       xlink:href="#linearGradient2955"
       id="radialGradient2871"
       gradientUnits="userSpaceOnUse"
       gradientTransform="matrix(0,1.386237,-1.323286,-5.741131e-8,-158.0823,-109.5408)"
       cx="225.52438"
       cy="218.90099"
       fx="225.52438"
       fy="218.90099"
       r="300" />
    <radialGradient
       inkscape:collect="always"
       xlink:href="#linearGradient2893"
       id="radialGradient3163"
       gradientUnits="userSpaceOnUse"
       gradientTransform="matrix(1.353218,0,0,1.348928,-77.62935,-85.74693)"
       cx="221.44487"
       cy="226.33101"
       fx="221.44487"
       fy="226.33101"
       r="300" />
  </defs>
  <g
     inkscape:groupmode="layer"
     id="layer3"
     inkscape:label="Fond écu"
     style="display:inline">
    <path
       id="path2855"
       style="fill:#fcef3c;fill-opacity:1;fill-rule:evenodd;stroke:none;stroke-width:1px;stroke-linecap:butt;stroke-linejoin:miter;stroke-opacity:1"
       d="M 300,658.5 C 300,658.5 598.50001,546.17969 598.50001,260.72817 C 598.50001,-24.723354 598.50001,2.1764765 598.50001,2.1764765 L 1.5,2.1764765 L 1.5,260.72817 C 1.5,546.17969 300,658.5 300,658.5 z "
       sodipodi:nodetypes="cccccc" />
    <path
       style="fill:#e20909;fill-opacity:1;fill-rule:evenodd;stroke:black;stroke-width:4.7132597;stroke-linecap:butt;stroke-linejoin:miter;stroke-miterlimit:4;stroke-dasharray:none;stroke-opacity:1"
       d="M 298.5 190.78125 C 298.5 190.78125 188.73849 354.95016 89.15625 503.875 C 177.22648 612.30294 300 658.5 300 658.5 C 300 658.5 422.9765 612.22036 511.0625 503.59375 C 413.05071 359.37179 298.5 190.78125 298.5 190.78125 z "
       id="path1974" />
    <g
       id="g13092"
       transform="translate(-6.576756,0)">
      <g
         transform="matrix(2.787157,0,0,2.787157,205.2719,299.3387)"
         id="g10261">
        <g
           id="g9372"
           style="fill:#fcef3c;fill-opacity:1">
          <path
             sodipodi:nodetypes="ccccccz"
             id="path7590"
             d="M 36.581991,8.1829367 C 13.619072,8.4055207 26.044787,28.856609 26.044787,35.2218 C 26.044787,47.349525 2.5845972,56.097393 4.1751186,77.768246 C 4.1751186,77.768246 8.3502366,103.21659 36.979621,102.62014 C 66.790283,101.78794 68.591233,77.768246 68.591233,77.768246 C 68.988863,49.536492 45.727489,47.747156 45.926304,35.2218 C 45.538215,28.624282 59.743725,7.9603527 36.581991,8.1829367 z "
             style="fill:#fcef3c;fill-opacity:1;fill-rule:evenodd;stroke:black;stroke-width:1px;stroke-linecap:butt;stroke-linejoin:miter;stroke-opacity:1" />
          <path
             sodipodi:nodetypes="cccc"
             id="path7598"
             d="M 34.501202,8.2617815 L 37.816976,3.2334217 C 40.34748,2.6710875 39.94985,4.9857207 39.94985,4.9857207 L 36.832891,9.2785145"
             style="fill:#fcef3c;fill-opacity:1;fill-rule:evenodd;stroke:black;stroke-width:1px;stroke-linecap:butt;stroke-linejoin:miter;stroke-opacity:1" />
        </g>
        <path
           style="fill:none;fill-rule:evenodd;stroke:black;stroke-width:1px;stroke-linecap:butt;stroke-linejoin:miter;stroke-opacity:1"
           d="M 57.258769,62.658293 C 70.38057,81.545734 47.715641,92.679384 47.715641,92.679384"
           id="path7592"
           sodipodi:nodetypes="cc" />
        <path
           sodipodi:nodetypes="cc"
           id="path7594"
           d="M 52.68602,74.189573 C 52.487205,82.93744 44.335783,85.919668 44.335783,85.919668"
           style="fill:none;fill-rule:evenodd;stroke:black;stroke-width:1px;stroke-linecap:butt;stroke-linejoin:miter;stroke-opacity:1" />
        <path
           style="fill:none;fill-rule:evenodd;stroke:black;stroke-width:1px;stroke-linecap:butt;stroke-linejoin:miter;stroke-opacity:1"
           d="M 41.353555,15.936729 C 46.721565,22.696444 39.763034,27.865639 39.763034,27.865639"
           id="path7596"
           sodipodi:nodetypes="cc" />
        <path
           style="fill:black;fill-opacity:1;fill-rule:evenodd;stroke:none;stroke-width:1px;stroke-linecap:butt;stroke-linejoin:miter;stroke-opacity:1"
           d="M 33.680358,8.4350132 C 36.414067,8.5841246 38.37931,12.926622 38.37931,12.926622 C 38.37931,12.926622 38.900469,9.0485144 38.105208,8.4520689"
           id="path7600"
           sodipodi:nodetypes="ccc" />
      </g>
      <g
         transform="translate(-7.629395e-6,0)"
         id="g13074">
        <g
           style="fill:#e20909;fill-opacity:1"
           id="g11260"
           transform="matrix(2.787157,0,0,2.787157,385.977,27.7199)">
          <path
             style="fill:#e20909;fill-opacity:1;fill-rule:evenodd;stroke:black;stroke-width:1px;stroke-linecap:butt;stroke-linejoin:miter;stroke-opacity:1"
             d="M 36.581991,8.1829367 C 13.619072,8.4055207 26.044787,28.856609 26.044787,35.2218 C 26.044787,47.349525 2.5845972,56.097393 4.1751186,77.768246 C 4.1751186,77.768246 8.3502366,103.21659 36.979621,102.62014 C 66.790283,101.78794 68.591233,77.768246 68.591233,77.768246 C 68.988863,49.536492 45.727489,47.747156 45.926304,35.2218 C 45.538215,28.624282 59.743725,7.9603527 36.581991,8.1829367 z "
             id="path11262"
             sodipodi:nodetypes="ccccccz" />
          <path
             style="fill:#e20909;fill-opacity:1;fill-rule:evenodd;stroke:black;stroke-width:1px;stroke-linecap:butt;stroke-linejoin:miter;stroke-opacity:1"
             d="M 34.501202,8.2617815 L 37.816976,3.2334217 C 40.34748,2.6710875 39.94985,4.9857207 39.94985,4.9857207 L 36.832891,9.2785145"
             id="path11264"
             sodipodi:nodetypes="cccc" />
        </g>
        <path
           sodipodi:nodetypes="cc"
           id="path11266"
           d="M 545.56618,202.3584 C 582.1387,255.00066 518.96798,286.03189 518.96798,286.03189"
           style="fill:none;fill-rule:evenodd;stroke:black;stroke-width:2.78715706px;stroke-linecap:butt;stroke-linejoin:miter;stroke-opacity:1" />
        <path
           style="fill:none;fill-rule:evenodd;stroke:black;stroke-width:2.78715706px;stroke-linecap:butt;stroke-linejoin:miter;stroke-opacity:1"
           d="M 532.82121,234.49789 C 532.26708,258.87957 509.54779,267.1915 509.54779,267.1915"
           id="path11268"
           sodipodi:nodetypes="cc" />
        <path
           sodipodi:nodetypes="cc"
           id="path11270"
           d="M 501.23585,72.138066 C 516.19734,90.978453 496.80282,105.38581 496.80282,105.38581"
           style="fill:none;fill-rule:evenodd;stroke:black;stroke-width:2.78715706px;stroke-linecap:butt;stroke-linejoin:miter;stroke-opacity:1" />
        <path
           sodipodi:nodetypes="ccc"
           id="path11272"
           d="M 479.84945,51.229606 C 487.46872,51.645203 492.94616,63.748425 492.94616,63.748425 C 492.94616,63.748425 494.39871,52.93953 492.1822,51.277143"
           style="fill:black;fill-opacity:1;fill-rule:evenodd;stroke:none;stroke-width:1px;stroke-linecap:butt;stroke-linejoin:miter;stroke-opacity:1" />
      </g>
      <g
         id="g13083">
        <g
           id="g11276"
           style="fill:#e20909;fill-opacity:1"
           transform="matrix(2.787157,0,0,2.787157,24.56687,27.7199)">
          <path
             sodipodi:nodetypes="ccccccz"
             id="path11278"
             d="M 36.581991,8.1829367 C 13.619072,8.4055207 26.044787,28.856609 26.044787,35.2218 C 26.044787,47.349525 2.5845972,56.097393 4.1751186,77.768246 C 4.1751186,77.768246 8.3502366,103.21659 36.979621,102.62014 C 66.790283,101.78794 68.591233,77.768246 68.591233,77.768246 C 68.988863,49.536492 45.727489,47.747156 45.926304,35.2218 C 45.538215,28.624282 59.743725,7.9603527 36.581991,8.1829367 z "
             style="fill:#e20909;fill-opacity:1;fill-rule:evenodd;stroke:black;stroke-width:1px;stroke-linecap:butt;stroke-linejoin:miter;stroke-opacity:1" />
          <path
             sodipodi:nodetypes="cccc"
             id="path11280"
             d="M 34.501202,8.2617815 L 37.816976,3.2334217 C 40.34748,2.6710875 39.94985,4.9857207 39.94985,4.9857207 L 36.832891,9.2785145"
             style="fill:#e20909;fill-opacity:1;fill-rule:evenodd;stroke:black;stroke-width:1px;stroke-linecap:butt;stroke-linejoin:miter;stroke-opacity:1" />
        </g>
        <path
           style="fill:none;fill-rule:evenodd;stroke:black;stroke-width:2.78715706px;stroke-linecap:butt;stroke-linejoin:miter;stroke-opacity:1"
           d="M 184.15605,202.3584 C 220.72857,255.00066 157.55785,286.03189 157.55785,286.03189"
           id="path11282"
           sodipodi:nodetypes="cc" />
        <path
           sodipodi:nodetypes="cc"
           id="path11284"
           d="M 171.41108,234.49789 C 170.85695,258.87957 148.13766,267.1915 148.13766,267.1915"
           style="fill:none;fill-rule:evenodd;stroke:black;stroke-width:2.78715706px;stroke-linecap:butt;stroke-linejoin:miter;stroke-opacity:1" />
        <path
           style="fill:none;fill-rule:evenodd;stroke:black;stroke-width:2.78715706px;stroke-linecap:butt;stroke-linejoin:miter;stroke-opacity:1"
           d="M 139.82572,72.138066 C 154.78721,90.978453 135.39269,105.38581 135.39269,105.38581"
           id="path11286"
           sodipodi:nodetypes="cc" />
        <path
           style="fill:black;fill-opacity:1;fill-rule:evenodd;stroke:none;stroke-width:1px;stroke-linecap:butt;stroke-linejoin:miter;stroke-opacity:1"
           d="M 118.43932,51.229606 C 126.05859,51.645203 131.53603,63.748425 131.53603,63.748425 C 131.53603,63.748425 132.98858,52.93953 130.77207,51.277143"
           id="path11288"
           sodipodi:nodetypes="ccc" />
      </g>
    </g>
  </g>
  <g
     inkscape:groupmode="layer"
     id="layer4"
     inkscape:label="Meubles"
     sodipodi:insensitive="true" />
  <g
     inkscape:groupmode="layer"
     id="layer2"
     inkscape:label="Reflet final"
     sodipodi:insensitive="true">
    <path
       sodipodi:nodetypes="cccccc"
       d="M 300.00001,658.5 C 300.00001,658.5 598.50001,546.17969 598.50001,260.72817 C 598.50001,-24.723334 598.50001,2.1764865 598.50001,2.1764865 L 1.5,2.1764865 L 1.5,260.72817 C 1.5,546.17969 300.00001,658.5 300.00001,658.5 z "
       style="opacity:1;fill:url(#radialGradient3163);fill-opacity:1;fill-rule:evenodd;stroke:none;stroke-width:1px;stroke-linecap:butt;stroke-linejoin:miter;stroke-opacity:1"
       id="path2875"
       inkscape:export-xdpi="144"
       inkscape:export-ydpi="144" />
  </g>
  <g
     inkscape:groupmode="layer"
     id="layer1"
     inkscape:label="Contour final"
     sodipodi:insensitive="true">
    <path
       sodipodi:nodetypes="cccccc"
       d="M 299.99999,658.50028 C 299.99999,658.50028 1.5,546.17992 1.5,260.72828 C 1.5,-24.723336 1.5,2.1764957 1.5,2.1764957 L 598.49999,2.1764957 L 598.49999,260.72828 C 598.49999,546.17992 299.99999,658.50028 299.99999,658.50028 z "
       style="opacity:1;fill:none;fill-opacity:1;fill-rule:evenodd;stroke:#000000;stroke-width:3.00000048;stroke-linecap:butt;stroke-linejoin:miter;stroke-miterlimit:4;stroke-dasharray:none;stroke-opacity:1"
       id="path1411"
       inkscape:export-xdpi="144"
       inkscape:export-ydpi="144" />
  </g>
</svg>
