<?xml version="1.0" encoding="UTF-8" standalone="no"?>
<svg
   xmlns:dc="http://purl.org/dc/elements/1.1/"
   xmlns:cc="http://creativecommons.org/ns#"
   xmlns:rdf="http://www.w3.org/1999/02/22-rdf-syntax-ns#"
   xmlns:svg="http://www.w3.org/2000/svg"
   xmlns="http://www.w3.org/2000/svg"
   xmlns:xlink="http://www.w3.org/1999/xlink"
   xmlns:sodipodi="http://sodipodi.sourceforge.net/DTD/sodipodi-0.dtd"
   xmlns:inkscape="http://www.inkscape.org/namespaces/inkscape"
   width="600"
   height="660"
   viewBox="-300 -300 600 660"
   id="svg2"
   version="1.1"
   inkscape:version="0.47 r22583"
   sodipodi:docname="Blason_ville_fr_Mulhausen (Bas-Rhin).svg">
  <metadata
     id="metadata29">
    <rdf:RDF>
      <cc:Work
         rdf:about="">
        <dc:format>image/svg+xml</dc:format>
        <dc:type
           rdf:resource="http://purl.org/dc/dcmitype/StillImage" />
        <dc:title></dc:title>
      </cc:Work>
    </rdf:RDF>
  </metadata>
  <sodipodi:namedview
     pagecolor="#ffffff"
     bordercolor="#666666"
     borderopacity="1"
     objecttolerance="10"
     gridtolerance="10"
     guidetolerance="10"
     inkscape:pageopacity="0"
     inkscape:pageshadow="2"
     inkscape:window-width="1366"
     inkscape:window-height="717"
     id="namedview27"
     showgrid="false"
     inkscape:zoom="0.71515151"
     inkscape:cx="418.91445"
     inkscape:cy="333.3069"
     inkscape:window-x="0"
     inkscape:window-y="32"
     inkscape:window-maximized="1"
     inkscape:current-layer="layer4" />
  <defs
     id="defs4">
    <radialGradient
       id="Gradient1"
       gradientUnits="userSpaceOnUse"
       cx="-80"
       cy="-80"
       r="405">
      <stop
         style="stop-color:#fff;stop-opacity:0.31"
         offset="0"
         id="stop7" />
      <stop
         style="stop-color:#fff;stop-opacity:0.25"
         offset="0.19"
         id="stop9" />
      <stop
         style="stop-color:#6b6b6b;stop-opacity:0.125"
         offset="0.6"
         id="stop11" />
      <stop
         style="stop-color:#000;stop-opacity:0.125"
         offset="1"
         id="stop13" />
    </radialGradient>
    <clipPath
       id="shield_cut">
      <path
         id="shield"
         d="M-298.5,-298.5 h597 v258.5 C 298.5,246.2 0,358.39 0,358.39 0,358.39 -298.5,246.2 -298.5,-40z" />
    </clipPath>
  </defs>
  <g
     id="layer4"
     inkscape:label="Fond écu"
     inkscape:groupmode="layer"
     style="display:inline"
     sodipodi:insensitive="true">
    <use
       xlink:href="#shield"
       id="use18"
       style="opacity:0.95999995;fill:#fcef3c;fill-opacity:1"
       x="0"
       y="0"
       width="600"
       height="660" />
    <g
       id="layer1-3"
       transform="matrix(0.61395349,0,0,0.61395349,-276,-692.04597)" />
  </g>
  <g
     id="layer3"
     inkscape:label="Meubles"
     inkscape:groupmode="layer"
     style="display:inline"
     sodipodi:insensitive="true">
    <g
       id="g3022"
       transform="translate(16.671385,13.983051)">
      <g
         id="g26535"
         inkscape:label="Meubles"
         style="display:inline"
         transform="matrix(0.41883657,0,0,0.4156458,-276.75507,-220.04281)">
        <g
           id="g26434">
          <path
             style="fill:#000000;fill-opacity:1;fill-rule:evenodd;stroke:#313131;stroke-width:3;stroke-linecap:butt;stroke-linejoin:miter;stroke-miterlimit:4;stroke-opacity:1;stroke-dasharray:none"
             d="m 397.21661,303.53423 c -6.30932,0.48486 -14.13293,5.30333 -15.05099,11.33569 1.9309,1.27727 9.06952,0.63004 11.2097,-0.49724 0.60236,-3.61595 4.43682,-7.51183 3.84129,-10.83845 z"
             id="path15988"
             sodipodi:nodetypes="cccc" />
          <path
             style="fill:#000000;fill-opacity:1;fill-rule:evenodd;stroke:#313131;stroke-width:3;stroke-linecap:butt;stroke-linejoin:miter;stroke-miterlimit:4;stroke-opacity:1;stroke-dasharray:none"
             d="m 124.16995,85.369986 c 0.23753,-8.56297 15.28099,-30.620939 15.93218,-23.134884 1.65831,3.60159 1.08623,7.28161 1.03813,11.049576 -2.54705,5.22113 -5.83821,10.37783 -9.43035,15.299723 l -8.50166,2.014229 c 0.35465,-2.241321 0.76713,-4.297475 0.9617,-5.228644 z"
             id="path15990"
             sodipodi:nodetypes="cccccc" />
          <path
             style="fill:#000000;fill-opacity:1;fill-rule:evenodd;stroke:#313131;stroke-width:3;stroke-linecap:butt;stroke-linejoin:miter;stroke-miterlimit:4;stroke-opacity:1;stroke-dasharray:none"
             d="m 134.78862,278.25091 c -5.74334,-1.05235 -14.28771,1.61819 -17.13436,7.0851 1.27679,1.66598 7.80833,2.76369 10.08131,2.21304 1.75238,-3.26455 6.45767,-6.01974 7.05305,-9.29814 z"
             id="path15992"
             sodipodi:nodetypes="cccc" />
          <path
             style="fill:#000000;fill-opacity:1;fill-rule:evenodd;stroke:#313131;stroke-width:3;stroke-linecap:butt;stroke-linejoin:miter;stroke-miterlimit:4;stroke-opacity:1;stroke-dasharray:none"
             d="m 133.31369,273.08847 c 6.11705,-11.56845 8.54797,-20.85199 10.44919,-29.83477 12.08323,-15.4366 38.62881,-33.64327 62.17422,-40.90622 -2.14855,6.73088 -1.82275,13.86206 -0.0257,22.84154 0.33364,1.66717 -1.09689,3.2614 -2.01336,4.83973 -0.004,2.79754 -28.67322,15.12689 -37.21602,22.10523 -8.1117,11.45943 -17.83196,24.73999 -11.10579,34.82507 -3.01824,0.86054 -6.41425,0.96631 -9.59528,0.77669 -3.89067,-0.24578 -7.72591,0.24492 -11.57784,0.49497 -13.91742,6.04198 -10.34444,5.53826 -1.08941,-15.14224 z"
             id="path15994"
             sodipodi:nodetypes="cccscccccc" />
          <path
             style="fill:#000000;fill-opacity:1;fill-rule:evenodd;stroke:#313131;stroke-width:3;stroke-linecap:butt;stroke-linejoin:miter;stroke-miterlimit:4;stroke-opacity:1;stroke-dasharray:none"
             d="m 479.48147,288.48501 c 3.36505,-9.07016 4.5357,-22.00567 0.69875,-26.70461 -0.23635,-4.19957 1.42501,-8.78571 -1.46832,-12.51243 -2.46234,-4.45819 -6.0814,-8.47727 -9.86181,-12.15756 -3.14814,-8.00577 -16.69104,-14.47054 -14.79645,-23.20805 6.13954,-2.72045 19.03997,-29.0835 20.24798,-22.43955 2.44237,17.45289 13.554,21.59822 22.65662,33.40339 1.56852,3.58211 6.71918,4.96223 7.58168,8.6836 -1.21254,4.36027 -2.53255,8.71808 -2.50504,13.24558 -0.35883,13.97591 2.06039,28.21876 4.07231,40.92666 -0.60751,4.72989 -7.07152,2.14854 -10.55106,2.79762 -4.37886,0.19053 -12.16005,-0.0808 -16.07466,-2.03465 z"
             id="path15996"
             sodipodi:nodetypes="cccccccccccc" />
          <path
             style="fill:#000000;fill-opacity:1;fill-rule:evenodd;stroke:#313131;stroke-width:3;stroke-linecap:butt;stroke-linejoin:miter;stroke-miterlimit:4;stroke-opacity:1;stroke-dasharray:none"
             d="m 49.820402,210.45381 c -2.710818,-0.0382 -3.251888,-2.68745 -3.605211,-3.95645 -0.636266,-2.28518 4.987627,1.79839 7.611006,1.79839 3.463429,0 2.201823,2.51773 -0.801159,2.51773 -1.472961,0 -1.664587,-0.014 -3.204636,-0.35967 z"
             id="path15998" />
          <path
             sodipodi:nodetypes="cccc"
             id="path16000"
             d="m 198.40395,306.28811 c -6.18844,1.20533 -13.26156,6.88258 -13.31286,12.97081 2.09696,1.04507 9.08478,-0.41652 11.04683,-1.78029 0.0824,-3.65542 3.33052,-7.9596 2.26603,-11.19052 z"
             style="fill:#000000;fill-opacity:1;fill-rule:evenodd;stroke:#313131;stroke-width:3;stroke-linecap:butt;stroke-linejoin:miter;stroke-miterlimit:4;stroke-opacity:1;stroke-dasharray:none" />
          <path
             sodipodi:nodetypes="cccc"
             id="path16002"
             d="m 478.89615,287.97637 c -6.18844,1.20533 -13.26156,6.88258 -13.31286,12.97081 2.09695,1.04507 9.08479,-0.41652 11.04684,-1.7803 0.0824,-3.65541 3.33052,-7.95959 2.26602,-11.19051 z"
             style="fill:#000000;fill-opacity:1;fill-rule:evenodd;stroke:#313131;stroke-width:3;stroke-linecap:butt;stroke-linejoin:miter;stroke-miterlimit:4;stroke-opacity:1;stroke-dasharray:none" />
          <path
             style="fill:#000000;fill-opacity:1;fill-rule:evenodd;stroke:#313131;stroke-width:3;stroke-linecap:butt;stroke-linejoin:miter;stroke-miterlimit:4;stroke-opacity:1;stroke-dasharray:none"
             d="m 519.44251,139.07967 c -3.64693,-6.24897 -10.82061,-12.07094 -19.48843,-11.83971 0.47323,3.32631 0.4569,6.69533 0.63067,10.03466 8.91225,3.4968 11.03077,4.66793 10.00888,14.4846 0.076,15.79281 15.9828,17.49355 21.8346,11.14728 3.73195,-5.29293 6.36905,-13.82911 5.02951,-19.58098 -2.21411,-9.50719 -13.19491,-7.41559 -17.42387,-4.85045 -10.15124,8.21376 -6.117,14.97781 4.50178,19.05664 0.63494,0.47738 1.12024,-0.44722 1.73822,0.024 1.4866,-1.50408 1.55689,-1.73674 2.34226,-3.94683 -1.10452,-0.69712 -5.80014,-2.91681 -6.65048,-3.96069 -2.37209,-2.91186 3.46596,-9.57627 6.5659,-6.31634 2.61953,3.23375 0.70949,7.44771 -0.0705,11.08907 -0.78847,3.68151 -8.25779,8.47573 -9.12152,1.02932 l -0.1523,-0.23406 c -4.92913,-3.99482 -7.3748,-10.3136 0.25525,-16.13655 z m 13.46968,23.42365 c 0.34791,-0.97116 1.53418,-3.19688 3.00871,-5.85402 7.19755,4.97768 11.6468,11.84703 18.41754,20.43928 2.68024,2.1031 6.36967,4.15915 8.8929,6.57372 2.14985,3.39771 8.42252,4.76494 10.31108,8.27899 -6.0601,-3.46387 -6.44467,2.14059 -5.60791,0.40708 -1.7186,-4.04441 -6.87085,-10.40339 -10.43329,-10.09782 3.62794,1.87665 11.2405,10.38128 10.41244,14.6722 -1.78828,-1.56762 -3.51123,-9.11692 -7.26758,-10.28565 1.13851,2.84065 2.07636,4.08978 1.62337,5.20261 -0.25534,1.40285 -0.0173,4.82392 0.47961,8.24653 -3.74552,-3.19659 -1.8969,-10.92326 -6.10163,-14.74637 0.19525,4.95079 2.40874,13.20849 1.51136,18.41896 -2.55296,-4.24318 -2.36392,-7.95198 -2.69301,-9.36994 -0.26511,-3.02532 -0.17635,-6.30267 -1.84792,-8.9232 -0.59757,3.53968 -0.0958,7.31984 -0.26137,10.95195 0.13392,1.85973 3.42069,7.13348 0.80489,10.76544 -1.49361,-4.52067 -1.75073,-14.20959 -2.94125,-19.10987 0.008,4.63419 1.41373,9.34519 -0.57822,13.69494 -0.53332,-0.75682 0.94556,2.3059 -1.92513,5.72227 -0.19029,-6.84188 1.5908,-13.65638 -0.36841,-19.16875 -0.2407,-1.3859 -2.01628,0.162 0.73495,-2.48202 -0.56366,4.42796 -1.69783,9.00167 -3.50385,13.23802 -0.39211,1.93988 -3.00853,3.07259 -1.84578,6.42578 4.43335,-5.00979 8.47035,-16.54777 7.69305,-22.54954 -0.4837,6.52233 -4.25017,10.86545 -7.71027,14.06692 -1.46894,2.77665 -0.008,2.78758 -6.08993,3.97476 4.16347,-3.44544 10.9982,-10.37433 10.40471,-15.32337 0.34081,-1.28321 -0.91796,-2.61563 -1.06103,-3.98165 -0.64834,-6.18948 -7.33157,-13.06892 -14.05803,-19.18725 z"
             id="path16004"
             sodipodi:nodetypes="cccccsccccscscccccccccccccccccccccccccccccscsc" />
          <path
             style="fill:#000000;fill-opacity:1;fill-rule:evenodd;stroke:#313131;stroke-width:3;stroke-linecap:butt;stroke-linejoin:miter;stroke-miterlimit:4;stroke-opacity:1;stroke-dasharray:none"
             d="m 30.024845,180.08449 c -2.075883,0.94366 -2.66456,4.01084 -2.632885,7.68554 0.02807,3.2557 0.765437,6.98827 2.003213,10.14339 0.959733,2.44638 1.937066,4.54561 3.401134,5.80621 2.433112,-0.0553 6.579961,1.18669 8.952863,1.07937 4.663548,-3.1665 11.378013,-0.8735 15.756915,-4.06253 7.614911,-19.86355 16.581965,-8.44003 20.689116,-11.65252 8.190702,-3.81061 15.553166,-7.38872 18.936247,-11.96391 2.084848,-2.81949 2.244371,5.50277 -9.519999,12.6014 -5.39864,3.25755 -12.468949,8.87647 -22.412972,14.13128 -2.434514,2.74055 -7.012354,3.05252 -11.181658,4.44295 -3.24429,1.08194 -7.115883,1.66196 -6.075376,4.1533 0.947476,2.26858 3.430732,3.8121 8.24942,4.00083 21.68482,4.62238 57.703797,-5.93543 79.757547,-6.92769 7.89722,-1.73682 14.66534,4.77049 21.25771,7.541 10.04648,4.22212 19.68476,6.42485 32.28895,9.91912 6.71202,-0.33429 9.84902,2.58375 10.8033,8.04525 2.31516,13.25016 5.65267,17.00473 7.07411,26.12576 3.81776,13.57392 -2.9685,33.29145 -10.49947,44.25426 5.10609,9.53329 19.09693,1.71588 30.29379,3.95738 -4.3e-4,-4.3583 -2.14184,-8.07176 -1.80831,-12.19171 1.17158,-14.47203 7.18703,-28.19197 17.15033,-41.61563 3.34627,-12.33691 10.26209,-23.08056 26.73261,-19.1818 18.41511,-8.34916 48.95567,-5.88925 68.09207,-3.98167 2.7373,0.47925 6.61463,2.63745 4.91999,3.91713 -3.66441,2.76721 -4.81775,5.51823 9.90841,4.07225 11.59346,-1.13838 26.83313,-14.45292 46.84671,-12.11338 12.60488,8.66974 20.07987,12.74052 28.40316,25.71939 -4.36582,21.67696 -21.93853,31.05812 -27.65036,48.90124 l 19.6922,5.74183 c 3.59572,-2.34416 9.26087,-3.96161 8.98041,-7.27333 -1.03734,-12.24751 14.5033,-27.49761 24.2137,-39.45521 3.61648,-4.4689 5.12802,-5.70187 7.56951,-15.19244 -1.49885,-5.47022 -3.51805,-11.33567 -4.67512,-17.32157 -0.95852,-4.9589 3.1279,-10.41793 7.89621,-15.33324 9.06029,-17.40838 26.60487,-25.53335 34.54501,-49.16486 6.53156,-15.60504 5.80725,-36.91236 -3.34383,-49.57615 C 485.09746,104.78658 476.94555,102.28826 466.0172,97.0585 424.61731,77.246546 414.05551,74.665865 382.99945,77.013772 362.412,81.014441 342.91407,71.87148 324.50623,65.48898 305.02901,58.248124 269.58632,53.610755 248.79808,50.397702 c -24.68953,-0.842028 -49.97903,1.00831 -72.56835,10.743782 -19.25811,-0.279632 -41.85719,13.761196 -53.46532,25.525703 -9.25675,14.253923 -6.03057,29.286063 -16.57257,42.859383 -7.473614,14.71494 -34.624402,20.34366 -47.549716,28.97104 -6.260115,4.17851 -9.603693,8.74972 -14.176678,12.40668 -3.957514,3.16479 -9.120232,5.38943 -14.440601,9.1802 z"
             id="path16006"
             sodipodi:nodetypes="cssccccsscssccscscccscccssccccsccscccsccccccssc" />
          <path
             style="fill:#000000;fill-opacity:1;fill-rule:evenodd;stroke:#313131;stroke-width:3;stroke-linecap:butt;stroke-linejoin:miter;stroke-miterlimit:4;stroke-opacity:1;stroke-dasharray:none"
             d="m 115.97755,141.99107 c 1.90068,-0.53221 2.68166,-2.37456 2.99467,-3.98122 0.62814,-5.67174 5.20982,-12.5192 10.50008,-7.8955 4.7835,4.18079 5.2654,3.70074 14.75494,3.22951 -6.02367,-0.39862 -14.42614,1.60525 -15.90144,1.91739 -2.61011,0.98058 -6.44598,1.94434 -8.63977,3.66267 -1.74701,1.13499 -1.86793,2.06384 -3.70848,3.06715 z"
             id="path16008"
             sodipodi:nodetypes="ccscccc" />
          <path
             style="fill:#ffffff;fill-opacity:1;stroke:#313131;stroke-width:1.33141613;stroke-miterlimit:4;stroke-opacity:1;stroke-dasharray:none"
             d="m 129.49457,132.90301 c 0,1.64548 -1.48734,2.98094 -3.31996,2.98094 -1.83261,0 -3.31995,-1.33546 -3.31995,-2.98094 0,-1.64549 1.48734,-2.98096 3.31995,-2.98096 1.83262,0 3.31996,1.33547 3.31996,2.98096 z"
             id="path16010" />
          <path
             style="fill:#000000;fill-opacity:1;fill-rule:evenodd;stroke:#313131;stroke-width:3;stroke-linecap:butt;stroke-linejoin:miter;stroke-miterlimit:4;stroke-opacity:1;stroke-dasharray:none"
             d="m 398.73472,303.03236 c -5.6112,3.62941 -9.73712,8.3037 -10.61452,14.14973 -0.737,2.71747 3.47803,1.95608 5.8455,1.84364 6.07581,-0.1309 11.12014,-0.71511 16.80402,-2.01606 2.69328,-0.47546 5.40857,-3.8352 7.5657,-5.24237 1.58858,-0.97505 1.36483,-2.91879 2.43359,-3.99411 1.58743,1.72302 3.56288,3.14357 5.98431,4.1198 5.07841,3.12584 1.61973,-7.51802 1.03645,-9.53961 -7.08519,3.0897 -16.07208,2.02013 -24.30192,0.44623 -2.46297,-1.26824 -4.81215,1.25537 -6.62643,-0.52529"
             id="path16012"
             sodipodi:nodetypes="cccccccccc" />
          <path
             sodipodi:nodetypes="cccccccccc"
             id="path16014"
             d="m 479.12283,288.99371 c -5.09102,3.65319 -8.83451,8.35811 -9.63062,14.24245 -0.66866,2.73528 3.15568,1.9689 5.30367,1.85572 5.51259,-0.13176 10.08937,-0.7198 15.24633,-2.02926 2.44362,-0.47858 4.90721,-3.86035 6.86438,-5.27673 1.44134,-0.98144 1.23836,-2.93793 2.20807,-4.02029 1.44027,1.73431 3.23254,3.16417 5.42952,4.1468 4.60766,3.14632 1.46965,-7.56729 0.94042,-9.60213 -6.42843,3.10995 -14.58229,2.03337 -22.04921,0.44916 -2.23469,-1.27655 -4.36608,1.26359 -6.01217,-0.52873"
             style="fill:#000000;fill-opacity:1;fill-rule:evenodd;stroke:#313131;stroke-width:3;stroke-linecap:butt;stroke-linejoin:miter;stroke-miterlimit:4;stroke-opacity:1;stroke-dasharray:none" />
          <path
             sodipodi:nodetypes="cccccccccc"
             id="path16016"
             d="m 199.53705,306.54246 c -5.09102,3.65319 -8.83451,8.35811 -9.63061,14.24245 -0.66866,2.73528 3.15568,1.9689 5.30366,1.85572 5.51259,-0.13176 10.08937,-0.7198 15.24633,-2.02926 2.44362,-0.47858 4.90721,-3.86035 6.86438,-5.27673 1.44134,-0.98144 1.23836,-2.93793 2.20807,-4.02029 1.44027,1.73431 3.23254,3.16417 5.42952,4.1468 4.60767,3.14632 1.46965,-7.56729 0.94042,-9.60213 -6.42843,3.10995 -14.58229,2.03337 -22.0492,0.44916 -2.2347,-1.27655 -4.36609,1.26359 -6.01218,-0.52873"
             style="fill:#000000;fill-opacity:1;fill-rule:evenodd;stroke:#313131;stroke-width:3;stroke-linecap:butt;stroke-linejoin:miter;stroke-miterlimit:4;stroke-opacity:1;stroke-dasharray:none" />
          <path
             style="fill:#000000;fill-opacity:1;fill-rule:evenodd;stroke:#313131;stroke-width:3;stroke-linecap:butt;stroke-linejoin:miter;stroke-miterlimit:4;stroke-opacity:1;stroke-dasharray:none"
             d="m 133.29239,279.73584 c -5.37207,1.97698 -9.98081,5.21174 -12.55424,10.20855 -1.4414,2.24964 1.94879,2.50961 3.74943,2.93553 4.56938,1.23314 8.51923,1.83462 13.18082,1.94163 2.1626,0.17591 5.28874,-2.20475 7.35787,-2.97532 1.50366,-0.51311 1.9753,-2.28899 3.12465,-3.00657 0.6168,1.88271 1.62195,3.58297 3.10532,4.98771 2.75689,3.90383 3.67552,-6.31677 3.90482,-8.24165 -6.293,1.17032 -12.6369,-1.77545 -18.25117,-5.00094 -1.41846,-1.67329 -3.99725,0.0461 -4.76412,-1.93817"
             id="path16018"
             sodipodi:nodetypes="cccccccccc" />
          <path
             style="fill:#000000;fill-opacity:1;fill-rule:evenodd;stroke:#313131;stroke-width:3;stroke-linecap:butt;stroke-linejoin:miter;stroke-miterlimit:4;stroke-opacity:1;stroke-dasharray:none"
             d="m 245.14062,248.55524 c 1.47421,-2.85672 3.4598,-5.49885 5.51478,-8.29074 6.55662,-8.90785 12.10607,-17.37924 14.74641,-24.48427 -0.52615,-10.64665 -4.40552,-21.27941 -9.14277,-30.94311 -3.67731,-6.18043 -3.6577,-21.01673 -3.47061,-21.99101"
             id="path16020"
             sodipodi:nodetypes="csccc" />
          <path
             style="fill:#000000;fill-opacity:1;fill-rule:evenodd;stroke:#313131;stroke-width:3;stroke-linecap:butt;stroke-linejoin:miter;stroke-miterlimit:4;stroke-opacity:1;stroke-dasharray:none"
             d="m 198.1207,230.49784 c -0.18013,-1.86507 -2.28426,-3.08555 -2.64372,-4.95648 -4.83868,-7.28414 -9.25237,-14.86766 -13.15818,-22.63894 -1.40176,-3.69466 -3.72467,-7.44966 -2.82198,-11.44301 0.62157,-2.13175 1.75714,-7.8212 1.91202,-8.52124"
             id="path16022"
             sodipodi:nodetypes="ccccc" />
          <path
             style="fill:#000000;fill-opacity:1;fill-rule:evenodd;stroke:#313131;stroke-width:3;stroke-linecap:butt;stroke-linejoin:miter;stroke-miterlimit:4;stroke-opacity:1;stroke-dasharray:none"
             d="m 405.74474,233.29546 c -3.43543,-2.78031 -7.10889,-5.52944 -12.04548,-8.50387 -6.84725,-4.12576 -12.59201,-11.22113 -13.71402,-18.84297 -1.26135,-9.17101 -0.36344,-18.50797 -0.59846,-27.75173 -0.62969,-3.46228 -6.71163,-13.07131 -6.49933,-15.35078"
             id="path16024"
             sodipodi:nodetypes="csccc" />
          <path
             style="fill:#000000;fill-opacity:1;fill-rule:evenodd;stroke:#313131;stroke-width:3;stroke-linecap:butt;stroke-linejoin:miter;stroke-miterlimit:4;stroke-opacity:1;stroke-dasharray:none"
             d="m 161.01468,167.93273 c 0.0136,2.73829 1.65295,5.13982 1.69951,7.94778 0.18043,10.88095 1.46111,17.30352 -8.84827,24.18414 -6.40113,4.27219 -14.95975,8.85234 -22.94065,9.58908 -5.19609,0.47966 -8.26362,2.8519 -14.09797,1.8928"
             id="path16026"
             sodipodi:nodetypes="csssc" />
          <path
             id="path16028"
             style="fill:#000000;fill-opacity:1;fill-rule:evenodd;stroke:#313131;stroke-width:3;stroke-linecap:butt;stroke-linejoin:miter;stroke-miterlimit:4;stroke-opacity:1;stroke-dasharray:none"
             d="m 137.78797,124.188 c -6.16777,-12.47953 -5.50505,-27.165448 -2.31897,-40.464601 1.17934,-4.922738 6.21564,-16.213058 11.19901,-22.409474 5.69048,-7.075651 4.56387,-5.461554 6.69884,-3.251678 1.20227,3.457303 4.98474,8.892208 6.23155,11.1905 l 5.65467,5.567438 c 13.42015,11.113121 17.03698,19.143036 14.91624,36.601135 -0.9372,4.94271 -2.98463,9.97436 -7.47899,13.10253"
             sodipodi:nodetypes="cssccccc" />
          <path
             style="fill:#000000;fill-opacity:1;fill-rule:evenodd;stroke:#313131;stroke-width:3;stroke-linecap:butt;stroke-linejoin:miter;stroke-miterlimit:4;stroke-opacity:1;stroke-dasharray:none"
             d="m 41.047649,199.83301 c 1.279934,-5.91284 0.316744,-13.57948 -2.528711,-19.0133 -3.431763,-5.66894 -9.494297,-1.02347 -10.356447,3.8568 -1.003825,5.68228 1.623179,10.40973 3.593035,16.06741 2.487437,7.14424 7.289686,3.27647 9.292123,-0.91091 z"
             id="path16030"
             sodipodi:nodetypes="ccssc" />
          <g
             id="g16032"
             transform="matrix(0.882455,-0.09628146,0.094721,0.896992,-617.4178,-295.9087)"
             style="fill:#000000;fill-opacity:1;stroke:#313131;stroke-width:3.35268688;stroke-miterlimit:4;stroke-opacity:1;stroke-dasharray:none">
            <path
               transform="matrix(0.69389,-0.07370525,0.04996102,1.023665,217.4268,91.3914)"
               d="m 614.68085,554.5213 a 2.0744681,5.9042554 0 1 1 -4.14893,0 2.0744681,5.9042554 0 1 1 4.14893,0 z"
               sodipodi:ry="5.9042554"
               sodipodi:rx="2.0744681"
               sodipodi:cy="554.5213"
               sodipodi:cx="612.60638"
               id="path16034"
               style="fill:#000000;fill-opacity:1;stroke:#313131;stroke-width:3.96776485;stroke-miterlimit:4;stroke-opacity:1;stroke-dasharray:none"
               sodipodi:type="arc" />
            <path
               sodipodi:type="arc"
               style="fill:#000000;fill-opacity:1;stroke:#313131;stroke-width:3.94072962;stroke-miterlimit:4;stroke-opacity:1;stroke-dasharray:none"
               id="path16036"
               sodipodi:cx="612.60638"
               sodipodi:cy="554.5213"
               sodipodi:rx="2.0744681"
               sodipodi:ry="5.9042554"
               d="m 614.68085,554.5213 a 2.0744681,5.9042554 0 1 1 -4.14893,0 2.0744681,5.9042554 0 1 1 4.14893,0 z"
               transform="matrix(0.699376,-0.138473,0.09531181,1.016085,194.3433,134.9528)" />
          </g>
          <path
             style="fill:#ffffff;fill-opacity:1;fill-rule:evenodd;stroke:#313131;stroke-width:3.85334325;stroke-linecap:butt;stroke-linejoin:miter;stroke-miterlimit:4;stroke-opacity:1;stroke-dasharray:none"
             d="m 66.904477,202.81632 c -4.981292,6.32929 -17.202958,-17.44847 -12.770267,-29.48554 2.027102,-5.50464 7.626685,-11.42583 11.461358,-13.91075 -8.642422,23.77115 -2.147732,33.07549 8.140734,39.07299 -3.997641,3.03987 -4.290429,3.06273 -6.831825,4.3233 z"
             id="path16038"
             sodipodi:nodetypes="csccc" />
          <path
             style="fill:#ffffff;fill-opacity:1;fill-rule:evenodd;stroke:#313131;stroke-width:3.67228723;stroke-linecap:butt;stroke-linejoin:miter;stroke-miterlimit:4;stroke-opacity:1;stroke-dasharray:none"
             d="m 67.013067,188.40301 c 1.179494,4.8209 4.793467,9.19048 6.141345,13.92984 0.524089,-4.24075 2.441519,-9.54089 2.345003,-13.92729 -1.604331,-5.11223 -5.183224,-1.87265 -8.486348,-0.003 z"
             id="path16040"
             sodipodi:nodetypes="cccc" />
          <path
             id="path16042"
             d="m 154.25658,123.9512 c 1.32987,-4.50289 2.50212,-12.41179 -1.55119,-16.69326 -7.33401,-7.74682 -9.51451,-12.31399 -9.37046,-22.197845 0.20765,-7.743812 1.35102,-16.228637 5.26516,-23.289474 1.08889,-1.964287 2.39222,-3.81837 3.94948,-5.515632"
             style="fill:#000000;fill-opacity:1;fill-rule:evenodd;stroke:#313131;stroke-width:3;stroke-linecap:butt;stroke-linejoin:miter;stroke-miterlimit:4;stroke-opacity:1;stroke-dasharray:none"
             sodipodi:nodetypes="cscsc" />
        </g>
      </g>
      <g
         transform="matrix(0.41883657,0,0,0.4156458,-8.2804918,-220.04281)"
         style="display:inline"
         inkscape:label="Meubles"
         id="g2902">
        <g
           id="g2904">
          <path
             sodipodi:nodetypes="cccc"
             id="path2906"
             d="m 397.21661,303.53423 c -6.30932,0.48486 -14.13293,5.30333 -15.05099,11.33569 1.9309,1.27727 9.06952,0.63004 11.2097,-0.49724 0.60236,-3.61595 4.43682,-7.51183 3.84129,-10.83845 z"
             style="fill:#000000;fill-opacity:1;fill-rule:evenodd;stroke:#313131;stroke-width:3;stroke-linecap:butt;stroke-linejoin:miter;stroke-miterlimit:4;stroke-opacity:1;stroke-dasharray:none" />
          <path
             sodipodi:nodetypes="cccccc"
             id="path2908"
             d="m 124.16995,85.369986 c 0.23753,-8.56297 15.28099,-30.620939 15.93218,-23.134884 1.65831,3.60159 1.08623,7.28161 1.03813,11.049576 -2.54705,5.22113 -5.83821,10.37783 -9.43035,15.299723 l -8.50166,2.014229 c 0.35465,-2.241321 0.76713,-4.297475 0.9617,-5.228644 z"
             style="fill:#000000;fill-opacity:1;fill-rule:evenodd;stroke:#313131;stroke-width:3;stroke-linecap:butt;stroke-linejoin:miter;stroke-miterlimit:4;stroke-opacity:1;stroke-dasharray:none" />
          <path
             sodipodi:nodetypes="cccc"
             id="path2910"
             d="m 134.78862,278.25091 c -5.74334,-1.05235 -14.28771,1.61819 -17.13436,7.0851 1.27679,1.66598 7.80833,2.76369 10.08131,2.21304 1.75238,-3.26455 6.45767,-6.01974 7.05305,-9.29814 z"
             style="fill:#000000;fill-opacity:1;fill-rule:evenodd;stroke:#313131;stroke-width:3;stroke-linecap:butt;stroke-linejoin:miter;stroke-miterlimit:4;stroke-opacity:1;stroke-dasharray:none" />
          <path
             sodipodi:nodetypes="cccscccccc"
             id="path2912"
             d="m 133.31369,273.08847 c 6.11705,-11.56845 8.54797,-20.85199 10.44919,-29.83477 12.08323,-15.4366 38.62881,-33.64327 62.17422,-40.90622 -2.14855,6.73088 -1.82275,13.86206 -0.0257,22.84154 0.33364,1.66717 -1.09689,3.2614 -2.01336,4.83973 -0.004,2.79754 -28.67322,15.12689 -37.21602,22.10523 -8.1117,11.45943 -17.83196,24.73999 -11.10579,34.82507 -3.01824,0.86054 -6.41425,0.96631 -9.59528,0.77669 -3.89067,-0.24578 -7.72591,0.24492 -11.57784,0.49497 -13.91742,6.04198 -10.34444,5.53826 -1.08941,-15.14224 z"
             style="fill:#000000;fill-opacity:1;fill-rule:evenodd;stroke:#313131;stroke-width:3;stroke-linecap:butt;stroke-linejoin:miter;stroke-miterlimit:4;stroke-opacity:1;stroke-dasharray:none" />
          <path
             sodipodi:nodetypes="cccccccccccc"
             id="path2914"
             d="m 479.48147,288.48501 c 3.36505,-9.07016 4.5357,-22.00567 0.69875,-26.70461 -0.23635,-4.19957 1.42501,-8.78571 -1.46832,-12.51243 -2.46234,-4.45819 -6.0814,-8.47727 -9.86181,-12.15756 -3.14814,-8.00577 -16.69104,-14.47054 -14.79645,-23.20805 6.13954,-2.72045 19.03997,-29.0835 20.24798,-22.43955 2.44237,17.45289 13.554,21.59822 22.65662,33.40339 1.56852,3.58211 6.71918,4.96223 7.58168,8.6836 -1.21254,4.36027 -2.53255,8.71808 -2.50504,13.24558 -0.35883,13.97591 2.06039,28.21876 4.07231,40.92666 -0.60751,4.72989 -7.07152,2.14854 -10.55106,2.79762 -4.37886,0.19053 -12.16005,-0.0808 -16.07466,-2.03465 z"
             style="fill:#000000;fill-opacity:1;fill-rule:evenodd;stroke:#313131;stroke-width:3;stroke-linecap:butt;stroke-linejoin:miter;stroke-miterlimit:4;stroke-opacity:1;stroke-dasharray:none" />
          <path
             id="path2916"
             d="m 49.820402,210.45381 c -2.710818,-0.0382 -3.251888,-2.68745 -3.605211,-3.95645 -0.636266,-2.28518 4.987627,1.79839 7.611006,1.79839 3.463429,0 2.201823,2.51773 -0.801159,2.51773 -1.472961,0 -1.664587,-0.014 -3.204636,-0.35967 z"
             style="fill:#000000;fill-opacity:1;fill-rule:evenodd;stroke:#313131;stroke-width:3;stroke-linecap:butt;stroke-linejoin:miter;stroke-miterlimit:4;stroke-opacity:1;stroke-dasharray:none" />
          <path
             style="fill:#000000;fill-opacity:1;fill-rule:evenodd;stroke:#313131;stroke-width:3;stroke-linecap:butt;stroke-linejoin:miter;stroke-miterlimit:4;stroke-opacity:1;stroke-dasharray:none"
             d="m 198.40395,306.28811 c -6.18844,1.20533 -13.26156,6.88258 -13.31286,12.97081 2.09696,1.04507 9.08478,-0.41652 11.04683,-1.78029 0.0824,-3.65542 3.33052,-7.9596 2.26603,-11.19052 z"
             id="path2918"
             sodipodi:nodetypes="cccc" />
          <path
             style="fill:#000000;fill-opacity:1;fill-rule:evenodd;stroke:#313131;stroke-width:3;stroke-linecap:butt;stroke-linejoin:miter;stroke-miterlimit:4;stroke-opacity:1;stroke-dasharray:none"
             d="m 478.89615,287.97637 c -6.18844,1.20533 -13.26156,6.88258 -13.31286,12.97081 2.09695,1.04507 9.08479,-0.41652 11.04684,-1.7803 0.0824,-3.65541 3.33052,-7.95959 2.26602,-11.19051 z"
             id="path2920"
             sodipodi:nodetypes="cccc" />
          <path
             sodipodi:nodetypes="cccccsccccscscccccccccccccccccccccccccccccscsc"
             id="path2922"
             d="m 519.44251,139.07967 c -3.64693,-6.24897 -10.82061,-12.07094 -19.48843,-11.83971 0.47323,3.32631 0.4569,6.69533 0.63067,10.03466 8.91225,3.4968 11.03077,4.66793 10.00888,14.4846 0.076,15.79281 15.9828,17.49355 21.8346,11.14728 3.73195,-5.29293 6.36905,-13.82911 5.02951,-19.58098 -2.21411,-9.50719 -13.19491,-7.41559 -17.42387,-4.85045 -10.15124,8.21376 -6.117,14.97781 4.50178,19.05664 0.63494,0.47738 1.12024,-0.44722 1.73822,0.024 1.4866,-1.50408 1.55689,-1.73674 2.34226,-3.94683 -1.10452,-0.69712 -5.80014,-2.91681 -6.65048,-3.96069 -2.37209,-2.91186 3.46596,-9.57627 6.5659,-6.31634 2.61953,3.23375 0.70949,7.44771 -0.0705,11.08907 -0.78847,3.68151 -8.25779,8.47573 -9.12152,1.02932 l -0.1523,-0.23406 c -4.92913,-3.99482 -7.3748,-10.3136 0.25525,-16.13655 z m 13.46968,23.42365 c 0.34791,-0.97116 1.53418,-3.19688 3.00871,-5.85402 7.19755,4.97768 11.6468,11.84703 18.41754,20.43928 2.68024,2.1031 6.36967,4.15915 8.8929,6.57372 2.14985,3.39771 8.42252,4.76494 10.31108,8.27899 -6.0601,-3.46387 -6.44467,2.14059 -5.60791,0.40708 -1.7186,-4.04441 -6.87085,-10.40339 -10.43329,-10.09782 3.62794,1.87665 11.2405,10.38128 10.41244,14.6722 -1.78828,-1.56762 -3.51123,-9.11692 -7.26758,-10.28565 1.13851,2.84065 2.07636,4.08978 1.62337,5.20261 -0.25534,1.40285 -0.0173,4.82392 0.47961,8.24653 -3.74552,-3.19659 -1.8969,-10.92326 -6.10163,-14.74637 0.19525,4.95079 2.40874,13.20849 1.51136,18.41896 -2.55296,-4.24318 -2.36392,-7.95198 -2.69301,-9.36994 -0.26511,-3.02532 -0.17635,-6.30267 -1.84792,-8.9232 -0.59757,3.53968 -0.0958,7.31984 -0.26137,10.95195 0.13392,1.85973 3.42069,7.13348 0.80489,10.76544 -1.49361,-4.52067 -1.75073,-14.20959 -2.94125,-19.10987 0.008,4.63419 1.41373,9.34519 -0.57822,13.69494 -0.53332,-0.75682 0.94556,2.3059 -1.92513,5.72227 -0.19029,-6.84188 1.5908,-13.65638 -0.36841,-19.16875 -0.2407,-1.3859 -2.01628,0.162 0.73495,-2.48202 -0.56366,4.42796 -1.69783,9.00167 -3.50385,13.23802 -0.39211,1.93988 -3.00853,3.07259 -1.84578,6.42578 4.43335,-5.00979 8.47035,-16.54777 7.69305,-22.54954 -0.4837,6.52233 -4.25017,10.86545 -7.71027,14.06692 -1.46894,2.77665 -0.008,2.78758 -6.08993,3.97476 4.16347,-3.44544 10.9982,-10.37433 10.40471,-15.32337 0.34081,-1.28321 -0.91796,-2.61563 -1.06103,-3.98165 -0.64834,-6.18948 -7.33157,-13.06892 -14.05803,-19.18725 z"
             style="fill:#000000;fill-opacity:1;fill-rule:evenodd;stroke:#313131;stroke-width:3;stroke-linecap:butt;stroke-linejoin:miter;stroke-miterlimit:4;stroke-opacity:1;stroke-dasharray:none" />
          <path
             sodipodi:nodetypes="cssccccsscssccscscccscccssccccsccscccsccccccssc"
             id="path2924"
             d="m 30.024845,180.08449 c -2.075883,0.94366 -2.66456,4.01084 -2.632885,7.68554 0.02807,3.2557 0.765437,6.98827 2.003213,10.14339 0.959733,2.44638 1.937066,4.54561 3.401134,5.80621 2.433112,-0.0553 6.579961,1.18669 8.952863,1.07937 4.663548,-3.1665 11.378013,-0.8735 15.756915,-4.06253 7.614911,-19.86355 16.581965,-8.44003 20.689116,-11.65252 8.190702,-3.81061 15.553166,-7.38872 18.936247,-11.96391 2.084848,-2.81949 2.244371,5.50277 -9.519999,12.6014 -5.39864,3.25755 -12.468949,8.87647 -22.412972,14.13128 -2.434514,2.74055 -7.012354,3.05252 -11.181658,4.44295 -3.24429,1.08194 -7.115883,1.66196 -6.075376,4.1533 0.947476,2.26858 3.430732,3.8121 8.24942,4.00083 21.68482,4.62238 57.703797,-5.93543 79.757547,-6.92769 7.89722,-1.73682 14.66534,4.77049 21.25771,7.541 10.04648,4.22212 19.68476,6.42485 32.28895,9.91912 6.71202,-0.33429 9.84902,2.58375 10.8033,8.04525 2.31516,13.25016 5.65267,17.00473 7.07411,26.12576 3.81776,13.57392 -2.9685,33.29145 -10.49947,44.25426 5.10609,9.53329 19.09693,1.71588 30.29379,3.95738 -4.3e-4,-4.3583 -2.14184,-8.07176 -1.80831,-12.19171 1.17158,-14.47203 7.18703,-28.19197 17.15033,-41.61563 3.34627,-12.33691 10.26209,-23.08056 26.73261,-19.1818 18.41511,-8.34916 48.95567,-5.88925 68.09207,-3.98167 2.7373,0.47925 6.61463,2.63745 4.91999,3.91713 -3.66441,2.76721 -4.81775,5.51823 9.90841,4.07225 11.59346,-1.13838 26.83313,-14.45292 46.84671,-12.11338 12.60488,8.66974 20.07987,12.74052 28.40316,25.71939 -4.36582,21.67696 -21.93853,31.05812 -27.65036,48.90124 l 19.6922,5.74183 c 3.59572,-2.34416 9.26087,-3.96161 8.98041,-7.27333 -1.03734,-12.24751 14.5033,-27.49761 24.2137,-39.45521 3.61648,-4.4689 5.12802,-5.70187 7.56951,-15.19244 -1.49885,-5.47022 -3.51805,-11.33567 -4.67512,-17.32157 -0.95852,-4.9589 3.1279,-10.41793 7.89621,-15.33324 9.06029,-17.40838 26.60487,-25.53335 34.54501,-49.16486 6.53156,-15.60504 5.80725,-36.91236 -3.34383,-49.57615 C 485.09746,104.78658 476.94555,102.28826 466.0172,97.0585 424.61731,77.246546 414.05551,74.665865 382.99945,77.013772 362.412,81.014441 342.91407,71.87148 324.50623,65.48898 305.02901,58.248124 269.58632,53.610755 248.79808,50.397702 c -24.68953,-0.842028 -49.97903,1.00831 -72.56835,10.743782 -19.25811,-0.279632 -41.85719,13.761196 -53.46532,25.525703 -9.25675,14.253923 -6.03057,29.286063 -16.57257,42.859383 -7.473614,14.71494 -34.624402,20.34366 -47.549716,28.97104 -6.260115,4.17851 -9.603693,8.74972 -14.176678,12.40668 -3.957514,3.16479 -9.120232,5.38943 -14.440601,9.1802 z"
             style="fill:#000000;fill-opacity:1;fill-rule:evenodd;stroke:#313131;stroke-width:3;stroke-linecap:butt;stroke-linejoin:miter;stroke-miterlimit:4;stroke-opacity:1;stroke-dasharray:none" />
          <path
             sodipodi:nodetypes="ccscccc"
             id="path2926"
             d="m 115.97755,141.99107 c 1.90068,-0.53221 2.68166,-2.37456 2.99467,-3.98122 0.62814,-5.67174 5.20982,-12.5192 10.50008,-7.8955 4.7835,4.18079 5.2654,3.70074 14.75494,3.22951 -6.02367,-0.39862 -14.42614,1.60525 -15.90144,1.91739 -2.61011,0.98058 -6.44598,1.94434 -8.63977,3.66267 -1.74701,1.13499 -1.86793,2.06384 -3.70848,3.06715 z"
             style="fill:#000000;fill-opacity:1;fill-rule:evenodd;stroke:#313131;stroke-width:3;stroke-linecap:butt;stroke-linejoin:miter;stroke-miterlimit:4;stroke-opacity:1;stroke-dasharray:none" />
          <path
             id="path2928"
             d="m 129.49457,132.90301 c 0,1.64548 -1.48734,2.98094 -3.31996,2.98094 -1.83261,0 -3.31995,-1.33546 -3.31995,-2.98094 0,-1.64549 1.48734,-2.98096 3.31995,-2.98096 1.83262,0 3.31996,1.33547 3.31996,2.98096 z"
             style="fill:#ffffff;fill-opacity:1;stroke:#313131;stroke-width:1.33141613;stroke-miterlimit:4;stroke-opacity:1;stroke-dasharray:none" />
          <path
             sodipodi:nodetypes="cccccccccc"
             id="path2930"
             d="m 398.73472,303.03236 c -5.6112,3.62941 -9.73712,8.3037 -10.61452,14.14973 -0.737,2.71747 3.47803,1.95608 5.8455,1.84364 6.07581,-0.1309 11.12014,-0.71511 16.80402,-2.01606 2.69328,-0.47546 5.40857,-3.8352 7.5657,-5.24237 1.58858,-0.97505 1.36483,-2.91879 2.43359,-3.99411 1.58743,1.72302 3.56288,3.14357 5.98431,4.1198 5.07841,3.12584 1.61973,-7.51802 1.03645,-9.53961 -7.08519,3.0897 -16.07208,2.02013 -24.30192,0.44623 -2.46297,-1.26824 -4.81215,1.25537 -6.62643,-0.52529"
             style="fill:#000000;fill-opacity:1;fill-rule:evenodd;stroke:#313131;stroke-width:3;stroke-linecap:butt;stroke-linejoin:miter;stroke-miterlimit:4;stroke-opacity:1;stroke-dasharray:none" />
          <path
             style="fill:#000000;fill-opacity:1;fill-rule:evenodd;stroke:#313131;stroke-width:3;stroke-linecap:butt;stroke-linejoin:miter;stroke-miterlimit:4;stroke-opacity:1;stroke-dasharray:none"
             d="m 479.12283,288.99371 c -5.09102,3.65319 -8.83451,8.35811 -9.63062,14.24245 -0.66866,2.73528 3.15568,1.9689 5.30367,1.85572 5.51259,-0.13176 10.08937,-0.7198 15.24633,-2.02926 2.44362,-0.47858 4.90721,-3.86035 6.86438,-5.27673 1.44134,-0.98144 1.23836,-2.93793 2.20807,-4.02029 1.44027,1.73431 3.23254,3.16417 5.42952,4.1468 4.60766,3.14632 1.46965,-7.56729 0.94042,-9.60213 -6.42843,3.10995 -14.58229,2.03337 -22.04921,0.44916 -2.23469,-1.27655 -4.36608,1.26359 -6.01217,-0.52873"
             id="path2932"
             sodipodi:nodetypes="cccccccccc" />
          <path
             style="fill:#000000;fill-opacity:1;fill-rule:evenodd;stroke:#313131;stroke-width:3;stroke-linecap:butt;stroke-linejoin:miter;stroke-miterlimit:4;stroke-opacity:1;stroke-dasharray:none"
             d="m 199.53705,306.54246 c -5.09102,3.65319 -8.83451,8.35811 -9.63061,14.24245 -0.66866,2.73528 3.15568,1.9689 5.30366,1.85572 5.51259,-0.13176 10.08937,-0.7198 15.24633,-2.02926 2.44362,-0.47858 4.90721,-3.86035 6.86438,-5.27673 1.44134,-0.98144 1.23836,-2.93793 2.20807,-4.02029 1.44027,1.73431 3.23254,3.16417 5.42952,4.1468 4.60767,3.14632 1.46965,-7.56729 0.94042,-9.60213 -6.42843,3.10995 -14.58229,2.03337 -22.0492,0.44916 -2.2347,-1.27655 -4.36609,1.26359 -6.01218,-0.52873"
             id="path2934"
             sodipodi:nodetypes="cccccccccc" />
          <path
             sodipodi:nodetypes="cccccccccc"
             id="path2936"
             d="m 133.29239,279.73584 c -5.37207,1.97698 -9.98081,5.21174 -12.55424,10.20855 -1.4414,2.24964 1.94879,2.50961 3.74943,2.93553 4.56938,1.23314 8.51923,1.83462 13.18082,1.94163 2.1626,0.17591 5.28874,-2.20475 7.35787,-2.97532 1.50366,-0.51311 1.9753,-2.28899 3.12465,-3.00657 0.6168,1.88271 1.62195,3.58297 3.10532,4.98771 2.75689,3.90383 3.67552,-6.31677 3.90482,-8.24165 -6.293,1.17032 -12.6369,-1.77545 -18.25117,-5.00094 -1.41846,-1.67329 -3.99725,0.0461 -4.76412,-1.93817"
             style="fill:#000000;fill-opacity:1;fill-rule:evenodd;stroke:#313131;stroke-width:3;stroke-linecap:butt;stroke-linejoin:miter;stroke-miterlimit:4;stroke-opacity:1;stroke-dasharray:none" />
          <path
             sodipodi:nodetypes="csccc"
             id="path2938"
             d="m 245.14062,248.55524 c 1.47421,-2.85672 3.4598,-5.49885 5.51478,-8.29074 6.55662,-8.90785 12.10607,-17.37924 14.74641,-24.48427 -0.52615,-10.64665 -4.40552,-21.27941 -9.14277,-30.94311 -3.67731,-6.18043 -3.6577,-21.01673 -3.47061,-21.99101"
             style="fill:#000000;fill-opacity:1;fill-rule:evenodd;stroke:#313131;stroke-width:3;stroke-linecap:butt;stroke-linejoin:miter;stroke-miterlimit:4;stroke-opacity:1;stroke-dasharray:none" />
          <path
             sodipodi:nodetypes="ccccc"
             id="path2940"
             d="m 198.1207,230.49784 c -0.18013,-1.86507 -2.28426,-3.08555 -2.64372,-4.95648 -4.83868,-7.28414 -9.25237,-14.86766 -13.15818,-22.63894 -1.40176,-3.69466 -3.72467,-7.44966 -2.82198,-11.44301 0.62157,-2.13175 1.75714,-7.8212 1.91202,-8.52124"
             style="fill:#000000;fill-opacity:1;fill-rule:evenodd;stroke:#313131;stroke-width:3;stroke-linecap:butt;stroke-linejoin:miter;stroke-miterlimit:4;stroke-opacity:1;stroke-dasharray:none" />
          <path
             sodipodi:nodetypes="csccc"
             id="path2942"
             d="m 405.74474,233.29546 c -3.43543,-2.78031 -7.10889,-5.52944 -12.04548,-8.50387 -6.84725,-4.12576 -12.59201,-11.22113 -13.71402,-18.84297 -1.26135,-9.17101 -0.36344,-18.50797 -0.59846,-27.75173 -0.62969,-3.46228 -6.71163,-13.07131 -6.49933,-15.35078"
             style="fill:#000000;fill-opacity:1;fill-rule:evenodd;stroke:#313131;stroke-width:3;stroke-linecap:butt;stroke-linejoin:miter;stroke-miterlimit:4;stroke-opacity:1;stroke-dasharray:none" />
          <path
             sodipodi:nodetypes="csssc"
             id="path2944"
             d="m 161.01468,167.93273 c 0.0136,2.73829 1.65295,5.13982 1.69951,7.94778 0.18043,10.88095 1.46111,17.30352 -8.84827,24.18414 -6.40113,4.27219 -14.95975,8.85234 -22.94065,9.58908 -5.19609,0.47966 -8.26362,2.8519 -14.09797,1.8928"
             style="fill:#000000;fill-opacity:1;fill-rule:evenodd;stroke:#313131;stroke-width:3;stroke-linecap:butt;stroke-linejoin:miter;stroke-miterlimit:4;stroke-opacity:1;stroke-dasharray:none" />
          <path
             sodipodi:nodetypes="cssccccc"
             d="m 137.78797,124.188 c -6.16777,-12.47953 -5.50505,-27.165448 -2.31897,-40.464601 1.17934,-4.922738 6.21564,-16.213058 11.19901,-22.409474 5.69048,-7.075651 4.56387,-5.461554 6.69884,-3.251678 1.20227,3.457303 4.98474,8.892208 6.23155,11.1905 l 5.65467,5.567438 c 13.42015,11.113121 17.03698,19.143036 14.91624,36.601135 -0.9372,4.94271 -2.98463,9.97436 -7.47899,13.10253"
             style="fill:#000000;fill-opacity:1;fill-rule:evenodd;stroke:#313131;stroke-width:3;stroke-linecap:butt;stroke-linejoin:miter;stroke-miterlimit:4;stroke-opacity:1;stroke-dasharray:none"
             id="path2946" />
          <path
             sodipodi:nodetypes="ccssc"
             id="path2948"
             d="m 41.047649,199.83301 c 1.279934,-5.91284 0.316744,-13.57948 -2.528711,-19.0133 -3.431763,-5.66894 -9.494297,-1.02347 -10.356447,3.8568 -1.003825,5.68228 1.623179,10.40973 3.593035,16.06741 2.487437,7.14424 7.289686,3.27647 9.292123,-0.91091 z"
             style="fill:#000000;fill-opacity:1;fill-rule:evenodd;stroke:#313131;stroke-width:3;stroke-linecap:butt;stroke-linejoin:miter;stroke-miterlimit:4;stroke-opacity:1;stroke-dasharray:none" />
          <g
             style="fill:#000000;fill-opacity:1;stroke:#313131;stroke-width:3.35268688;stroke-miterlimit:4;stroke-opacity:1;stroke-dasharray:none"
             transform="matrix(0.882455,-0.09628146,0.094721,0.896992,-617.4178,-295.9087)"
             id="g2950">
            <path
               sodipodi:type="arc"
               style="fill:#000000;fill-opacity:1;stroke:#313131;stroke-width:3.96776485;stroke-miterlimit:4;stroke-opacity:1;stroke-dasharray:none"
               id="path2952"
               sodipodi:cx="612.60638"
               sodipodi:cy="554.5213"
               sodipodi:rx="2.0744681"
               sodipodi:ry="5.9042554"
               d="m 614.68085,554.5213 a 2.0744681,5.9042554 0 1 1 -4.14893,0 2.0744681,5.9042554 0 1 1 4.14893,0 z"
               transform="matrix(0.69389,-0.07370525,0.04996102,1.023665,217.4268,91.3914)" />
            <path
               transform="matrix(0.699376,-0.138473,0.09531181,1.016085,194.3433,134.9528)"
               d="m 614.68085,554.5213 a 2.0744681,5.9042554 0 1 1 -4.14893,0 2.0744681,5.9042554 0 1 1 4.14893,0 z"
               sodipodi:ry="5.9042554"
               sodipodi:rx="2.0744681"
               sodipodi:cy="554.5213"
               sodipodi:cx="612.60638"
               id="path2954"
               style="fill:#000000;fill-opacity:1;stroke:#313131;stroke-width:3.94072962;stroke-miterlimit:4;stroke-opacity:1;stroke-dasharray:none"
               sodipodi:type="arc" />
          </g>
          <path
             sodipodi:nodetypes="csccc"
             id="path2956"
             d="m 66.904477,202.81632 c -4.981292,6.32929 -17.202958,-17.44847 -12.770267,-29.48554 2.027102,-5.50464 7.626685,-11.42583 11.461358,-13.91075 -8.642422,23.77115 -2.147732,33.07549 8.140734,39.07299 -3.997641,3.03987 -4.290429,3.06273 -6.831825,4.3233 z"
             style="fill:#ffffff;fill-opacity:1;fill-rule:evenodd;stroke:#313131;stroke-width:3.85334325;stroke-linecap:butt;stroke-linejoin:miter;stroke-miterlimit:4;stroke-opacity:1;stroke-dasharray:none" />
          <path
             sodipodi:nodetypes="cccc"
             id="path2958"
             d="m 67.013067,188.40301 c 1.179494,4.8209 4.793467,9.19048 6.141345,13.92984 0.524089,-4.24075 2.441519,-9.54089 2.345003,-13.92729 -1.604331,-5.11223 -5.183224,-1.87265 -8.486348,-0.003 z"
             style="fill:#ffffff;fill-opacity:1;fill-rule:evenodd;stroke:#313131;stroke-width:3.67228723;stroke-linecap:butt;stroke-linejoin:miter;stroke-miterlimit:4;stroke-opacity:1;stroke-dasharray:none" />
          <path
             sodipodi:nodetypes="cscsc"
             style="fill:#000000;fill-opacity:1;fill-rule:evenodd;stroke:#313131;stroke-width:3;stroke-linecap:butt;stroke-linejoin:miter;stroke-miterlimit:4;stroke-opacity:1;stroke-dasharray:none"
             d="m 154.25658,123.9512 c 1.32987,-4.50289 2.50212,-12.41179 -1.55119,-16.69326 -7.33401,-7.74682 -9.51451,-12.31399 -9.37046,-22.197845 0.20765,-7.743812 1.35102,-16.228637 5.26516,-23.289474 1.08889,-1.964287 2.39222,-3.81837 3.94948,-5.515632"
             id="path2960" />
        </g>
      </g>
    </g>
    <g
       id="g2962"
       inkscape:label="Meubles"
       style="display:inline"
       transform="matrix(0.41883657,0,0,0.4156458,-125.8464,47.033463)">
      <g
         id="g2964">
        <path
           style="fill:#000000;fill-opacity:1;fill-rule:evenodd;stroke:#313131;stroke-width:3;stroke-linecap:butt;stroke-linejoin:miter;stroke-miterlimit:4;stroke-opacity:1;stroke-dasharray:none"
           d="m 397.21661,303.53423 c -6.30932,0.48486 -14.13293,5.30333 -15.05099,11.33569 1.9309,1.27727 9.06952,0.63004 11.2097,-0.49724 0.60236,-3.61595 4.43682,-7.51183 3.84129,-10.83845 z"
           id="path2966"
           sodipodi:nodetypes="cccc" />
        <path
           style="fill:#000000;fill-opacity:1;fill-rule:evenodd;stroke:#313131;stroke-width:3;stroke-linecap:butt;stroke-linejoin:miter;stroke-miterlimit:4;stroke-opacity:1;stroke-dasharray:none"
           d="m 124.16995,85.369986 c 0.23753,-8.56297 15.28099,-30.620939 15.93218,-23.134884 1.65831,3.60159 1.08623,7.28161 1.03813,11.049576 -2.54705,5.22113 -5.83821,10.37783 -9.43035,15.299723 l -8.50166,2.014229 c 0.35465,-2.241321 0.76713,-4.297475 0.9617,-5.228644 z"
           id="path2968"
           sodipodi:nodetypes="cccccc" />
        <path
           style="fill:#000000;fill-opacity:1;fill-rule:evenodd;stroke:#313131;stroke-width:3;stroke-linecap:butt;stroke-linejoin:miter;stroke-miterlimit:4;stroke-opacity:1;stroke-dasharray:none"
           d="m 134.78862,278.25091 c -5.74334,-1.05235 -14.28771,1.61819 -17.13436,7.0851 1.27679,1.66598 7.80833,2.76369 10.08131,2.21304 1.75238,-3.26455 6.45767,-6.01974 7.05305,-9.29814 z"
           id="path2970"
           sodipodi:nodetypes="cccc" />
        <path
           style="fill:#000000;fill-opacity:1;fill-rule:evenodd;stroke:#313131;stroke-width:3;stroke-linecap:butt;stroke-linejoin:miter;stroke-miterlimit:4;stroke-opacity:1;stroke-dasharray:none"
           d="m 133.31369,273.08847 c 6.11705,-11.56845 8.54797,-20.85199 10.44919,-29.83477 12.08323,-15.4366 38.62881,-33.64327 62.17422,-40.90622 -2.14855,6.73088 -1.82275,13.86206 -0.0257,22.84154 0.33364,1.66717 -1.09689,3.2614 -2.01336,4.83973 -0.004,2.79754 -28.67322,15.12689 -37.21602,22.10523 -8.1117,11.45943 -17.83196,24.73999 -11.10579,34.82507 -3.01824,0.86054 -6.41425,0.96631 -9.59528,0.77669 -3.89067,-0.24578 -7.72591,0.24492 -11.57784,0.49497 -13.91742,6.04198 -10.34444,5.53826 -1.08941,-15.14224 z"
           id="path2972"
           sodipodi:nodetypes="cccscccccc" />
        <path
           style="fill:#000000;fill-opacity:1;fill-rule:evenodd;stroke:#313131;stroke-width:3;stroke-linecap:butt;stroke-linejoin:miter;stroke-miterlimit:4;stroke-opacity:1;stroke-dasharray:none"
           d="m 479.48147,288.48501 c 3.36505,-9.07016 4.5357,-22.00567 0.69875,-26.70461 -0.23635,-4.19957 1.42501,-8.78571 -1.46832,-12.51243 -2.46234,-4.45819 -6.0814,-8.47727 -9.86181,-12.15756 -3.14814,-8.00577 -16.69104,-14.47054 -14.79645,-23.20805 6.13954,-2.72045 19.03997,-29.0835 20.24798,-22.43955 2.44237,17.45289 13.554,21.59822 22.65662,33.40339 1.56852,3.58211 6.71918,4.96223 7.58168,8.6836 -1.21254,4.36027 -2.53255,8.71808 -2.50504,13.24558 -0.35883,13.97591 2.06039,28.21876 4.07231,40.92666 -0.60751,4.72989 -7.07152,2.14854 -10.55106,2.79762 -4.37886,0.19053 -12.16005,-0.0808 -16.07466,-2.03465 z"
           id="path2974"
           sodipodi:nodetypes="cccccccccccc" />
        <path
           style="fill:#000000;fill-opacity:1;fill-rule:evenodd;stroke:#313131;stroke-width:3;stroke-linecap:butt;stroke-linejoin:miter;stroke-miterlimit:4;stroke-opacity:1;stroke-dasharray:none"
           d="m 49.820402,210.45381 c -2.710818,-0.0382 -3.251888,-2.68745 -3.605211,-3.95645 -0.636266,-2.28518 4.987627,1.79839 7.611006,1.79839 3.463429,0 2.201823,2.51773 -0.801159,2.51773 -1.472961,0 -1.664587,-0.014 -3.204636,-0.35967 z"
           id="path2976" />
        <path
           sodipodi:nodetypes="cccc"
           id="path2978"
           d="m 198.40395,306.28811 c -6.18844,1.20533 -13.26156,6.88258 -13.31286,12.97081 2.09696,1.04507 9.08478,-0.41652 11.04683,-1.78029 0.0824,-3.65542 3.33052,-7.9596 2.26603,-11.19052 z"
           style="fill:#000000;fill-opacity:1;fill-rule:evenodd;stroke:#313131;stroke-width:3;stroke-linecap:butt;stroke-linejoin:miter;stroke-miterlimit:4;stroke-opacity:1;stroke-dasharray:none" />
        <path
           sodipodi:nodetypes="cccc"
           id="path2980"
           d="m 478.89615,287.97637 c -6.18844,1.20533 -13.26156,6.88258 -13.31286,12.97081 2.09695,1.04507 9.08479,-0.41652 11.04684,-1.7803 0.0824,-3.65541 3.33052,-7.95959 2.26602,-11.19051 z"
           style="fill:#000000;fill-opacity:1;fill-rule:evenodd;stroke:#313131;stroke-width:3;stroke-linecap:butt;stroke-linejoin:miter;stroke-miterlimit:4;stroke-opacity:1;stroke-dasharray:none" />
        <path
           style="fill:#000000;fill-opacity:1;fill-rule:evenodd;stroke:#313131;stroke-width:3;stroke-linecap:butt;stroke-linejoin:miter;stroke-miterlimit:4;stroke-opacity:1;stroke-dasharray:none"
           d="m 519.44251,139.07967 c -3.64693,-6.24897 -10.82061,-12.07094 -19.48843,-11.83971 0.47323,3.32631 0.4569,6.69533 0.63067,10.03466 8.91225,3.4968 11.03077,4.66793 10.00888,14.4846 0.076,15.79281 15.9828,17.49355 21.8346,11.14728 3.73195,-5.29293 6.36905,-13.82911 5.02951,-19.58098 -2.21411,-9.50719 -13.19491,-7.41559 -17.42387,-4.85045 -10.15124,8.21376 -6.117,14.97781 4.50178,19.05664 0.63494,0.47738 1.12024,-0.44722 1.73822,0.024 1.4866,-1.50408 1.55689,-1.73674 2.34226,-3.94683 -1.10452,-0.69712 -5.80014,-2.91681 -6.65048,-3.96069 -2.37209,-2.91186 3.46596,-9.57627 6.5659,-6.31634 2.61953,3.23375 0.70949,7.44771 -0.0705,11.08907 -0.78847,3.68151 -8.25779,8.47573 -9.12152,1.02932 l -0.1523,-0.23406 c -4.92913,-3.99482 -7.3748,-10.3136 0.25525,-16.13655 z m 13.46968,23.42365 c 0.34791,-0.97116 1.53418,-3.19688 3.00871,-5.85402 7.19755,4.97768 11.6468,11.84703 18.41754,20.43928 2.68024,2.1031 6.36967,4.15915 8.8929,6.57372 2.14985,3.39771 8.42252,4.76494 10.31108,8.27899 -6.0601,-3.46387 -6.44467,2.14059 -5.60791,0.40708 -1.7186,-4.04441 -6.87085,-10.40339 -10.43329,-10.09782 3.62794,1.87665 11.2405,10.38128 10.41244,14.6722 -1.78828,-1.56762 -3.51123,-9.11692 -7.26758,-10.28565 1.13851,2.84065 2.07636,4.08978 1.62337,5.20261 -0.25534,1.40285 -0.0173,4.82392 0.47961,8.24653 -3.74552,-3.19659 -1.8969,-10.92326 -6.10163,-14.74637 0.19525,4.95079 2.40874,13.20849 1.51136,18.41896 -2.55296,-4.24318 -2.36392,-7.95198 -2.69301,-9.36994 -0.26511,-3.02532 -0.17635,-6.30267 -1.84792,-8.9232 -0.59757,3.53968 -0.0958,7.31984 -0.26137,10.95195 0.13392,1.85973 3.42069,7.13348 0.80489,10.76544 -1.49361,-4.52067 -1.75073,-14.20959 -2.94125,-19.10987 0.008,4.63419 1.41373,9.34519 -0.57822,13.69494 -0.53332,-0.75682 0.94556,2.3059 -1.92513,5.72227 -0.19029,-6.84188 1.5908,-13.65638 -0.36841,-19.16875 -0.2407,-1.3859 -2.01628,0.162 0.73495,-2.48202 -0.56366,4.42796 -1.69783,9.00167 -3.50385,13.23802 -0.39211,1.93988 -3.00853,3.07259 -1.84578,6.42578 4.43335,-5.00979 8.47035,-16.54777 7.69305,-22.54954 -0.4837,6.52233 -4.25017,10.86545 -7.71027,14.06692 -1.46894,2.77665 -0.008,2.78758 -6.08993,3.97476 4.16347,-3.44544 10.9982,-10.37433 10.40471,-15.32337 0.34081,-1.28321 -0.91796,-2.61563 -1.06103,-3.98165 -0.64834,-6.18948 -7.33157,-13.06892 -14.05803,-19.18725 z"
           id="path2982"
           sodipodi:nodetypes="cccccsccccscscccccccccccccccccccccccccccccscsc" />
        <path
           style="fill:#000000;fill-opacity:1;fill-rule:evenodd;stroke:#313131;stroke-width:3;stroke-linecap:butt;stroke-linejoin:miter;stroke-miterlimit:4;stroke-opacity:1;stroke-dasharray:none"
           d="m 30.024845,180.08449 c -2.075883,0.94366 -2.66456,4.01084 -2.632885,7.68554 0.02807,3.2557 0.765437,6.98827 2.003213,10.14339 0.959733,2.44638 1.937066,4.54561 3.401134,5.80621 2.433112,-0.0553 6.579961,1.18669 8.952863,1.07937 4.663548,-3.1665 11.378013,-0.8735 15.756915,-4.06253 7.614911,-19.86355 16.581965,-8.44003 20.689116,-11.65252 8.190702,-3.81061 15.553166,-7.38872 18.936247,-11.96391 2.084848,-2.81949 2.244371,5.50277 -9.519999,12.6014 -5.39864,3.25755 -12.468949,8.87647 -22.412972,14.13128 -2.434514,2.74055 -7.012354,3.05252 -11.181658,4.44295 -3.24429,1.08194 -7.115883,1.66196 -6.075376,4.1533 0.947476,2.26858 3.430732,3.8121 8.24942,4.00083 21.68482,4.62238 57.703797,-5.93543 79.757547,-6.92769 7.89722,-1.73682 14.66534,4.77049 21.25771,7.541 10.04648,4.22212 19.68476,6.42485 32.28895,9.91912 6.71202,-0.33429 9.84902,2.58375 10.8033,8.04525 2.31516,13.25016 5.65267,17.00473 7.07411,26.12576 3.81776,13.57392 -2.9685,33.29145 -10.49947,44.25426 5.10609,9.53329 19.09693,1.71588 30.29379,3.95738 -4.3e-4,-4.3583 -2.14184,-8.07176 -1.80831,-12.19171 1.17158,-14.47203 7.18703,-28.19197 17.15033,-41.61563 3.34627,-12.33691 10.26209,-23.08056 26.73261,-19.1818 18.41511,-8.34916 48.95567,-5.88925 68.09207,-3.98167 2.7373,0.47925 6.61463,2.63745 4.91999,3.91713 -3.66441,2.76721 -4.81775,5.51823 9.90841,4.07225 11.59346,-1.13838 26.83313,-14.45292 46.84671,-12.11338 12.60488,8.66974 20.07987,12.74052 28.40316,25.71939 -4.36582,21.67696 -21.93853,31.05812 -27.65036,48.90124 l 19.6922,5.74183 c 3.59572,-2.34416 9.26087,-3.96161 8.98041,-7.27333 -1.03734,-12.24751 14.5033,-27.49761 24.2137,-39.45521 3.61648,-4.4689 5.12802,-5.70187 7.56951,-15.19244 -1.49885,-5.47022 -3.51805,-11.33567 -4.67512,-17.32157 -0.95852,-4.9589 3.1279,-10.41793 7.89621,-15.33324 9.06029,-17.40838 26.60487,-25.53335 34.54501,-49.16486 6.53156,-15.60504 5.80725,-36.91236 -3.34383,-49.57615 C 485.09746,104.78658 476.94555,102.28826 466.0172,97.0585 424.61731,77.246546 414.05551,74.665865 382.99945,77.013772 362.412,81.014441 342.91407,71.87148 324.50623,65.48898 305.02901,58.248124 269.58632,53.610755 248.79808,50.397702 c -24.68953,-0.842028 -49.97903,1.00831 -72.56835,10.743782 -19.25811,-0.279632 -41.85719,13.761196 -53.46532,25.525703 -9.25675,14.253923 -6.03057,29.286063 -16.57257,42.859383 -7.473614,14.71494 -34.624402,20.34366 -47.549716,28.97104 -6.260115,4.17851 -9.603693,8.74972 -14.176678,12.40668 -3.957514,3.16479 -9.120232,5.38943 -14.440601,9.1802 z"
           id="path2984"
           sodipodi:nodetypes="cssccccsscssccscscccscccssccccsccscccsccccccssc" />
        <path
           style="fill:#000000;fill-opacity:1;fill-rule:evenodd;stroke:#313131;stroke-width:3;stroke-linecap:butt;stroke-linejoin:miter;stroke-miterlimit:4;stroke-opacity:1;stroke-dasharray:none"
           d="m 115.97755,141.99107 c 1.90068,-0.53221 2.68166,-2.37456 2.99467,-3.98122 0.62814,-5.67174 5.20982,-12.5192 10.50008,-7.8955 4.7835,4.18079 5.2654,3.70074 14.75494,3.22951 -6.02367,-0.39862 -14.42614,1.60525 -15.90144,1.91739 -2.61011,0.98058 -6.44598,1.94434 -8.63977,3.66267 -1.74701,1.13499 -1.86793,2.06384 -3.70848,3.06715 z"
           id="path2986"
           sodipodi:nodetypes="ccscccc" />
        <path
           style="fill:#ffffff;fill-opacity:1;stroke:#313131;stroke-width:1.33141613;stroke-miterlimit:4;stroke-opacity:1;stroke-dasharray:none"
           d="m 129.49457,132.90301 c 0,1.64548 -1.48734,2.98094 -3.31996,2.98094 -1.83261,0 -3.31995,-1.33546 -3.31995,-2.98094 0,-1.64549 1.48734,-2.98096 3.31995,-2.98096 1.83262,0 3.31996,1.33547 3.31996,2.98096 z"
           id="path2988" />
        <path
           style="fill:#000000;fill-opacity:1;fill-rule:evenodd;stroke:#313131;stroke-width:3;stroke-linecap:butt;stroke-linejoin:miter;stroke-miterlimit:4;stroke-opacity:1;stroke-dasharray:none"
           d="m 398.73472,303.03236 c -5.6112,3.62941 -9.73712,8.3037 -10.61452,14.14973 -0.737,2.71747 3.47803,1.95608 5.8455,1.84364 6.07581,-0.1309 11.12014,-0.71511 16.80402,-2.01606 2.69328,-0.47546 5.40857,-3.8352 7.5657,-5.24237 1.58858,-0.97505 1.36483,-2.91879 2.43359,-3.99411 1.58743,1.72302 3.56288,3.14357 5.98431,4.1198 5.07841,3.12584 1.61973,-7.51802 1.03645,-9.53961 -7.08519,3.0897 -16.07208,2.02013 -24.30192,0.44623 -2.46297,-1.26824 -4.81215,1.25537 -6.62643,-0.52529"
           id="path2990"
           sodipodi:nodetypes="cccccccccc" />
        <path
           sodipodi:nodetypes="cccccccccc"
           id="path2992"
           d="m 479.12283,288.99371 c -5.09102,3.65319 -8.83451,8.35811 -9.63062,14.24245 -0.66866,2.73528 3.15568,1.9689 5.30367,1.85572 5.51259,-0.13176 10.08937,-0.7198 15.24633,-2.02926 2.44362,-0.47858 4.90721,-3.86035 6.86438,-5.27673 1.44134,-0.98144 1.23836,-2.93793 2.20807,-4.02029 1.44027,1.73431 3.23254,3.16417 5.42952,4.1468 4.60766,3.14632 1.46965,-7.56729 0.94042,-9.60213 -6.42843,3.10995 -14.58229,2.03337 -22.04921,0.44916 -2.23469,-1.27655 -4.36608,1.26359 -6.01217,-0.52873"
           style="fill:#000000;fill-opacity:1;fill-rule:evenodd;stroke:#313131;stroke-width:3;stroke-linecap:butt;stroke-linejoin:miter;stroke-miterlimit:4;stroke-opacity:1;stroke-dasharray:none" />
        <path
           sodipodi:nodetypes="cccccccccc"
           id="path2994"
           d="m 199.53705,306.54246 c -5.09102,3.65319 -8.83451,8.35811 -9.63061,14.24245 -0.66866,2.73528 3.15568,1.9689 5.30366,1.85572 5.51259,-0.13176 10.08937,-0.7198 15.24633,-2.02926 2.44362,-0.47858 4.90721,-3.86035 6.86438,-5.27673 1.44134,-0.98144 1.23836,-2.93793 2.20807,-4.02029 1.44027,1.73431 3.23254,3.16417 5.42952,4.1468 4.60767,3.14632 1.46965,-7.56729 0.94042,-9.60213 -6.42843,3.10995 -14.58229,2.03337 -22.0492,0.44916 -2.2347,-1.27655 -4.36609,1.26359 -6.01218,-0.52873"
           style="fill:#000000;fill-opacity:1;fill-rule:evenodd;stroke:#313131;stroke-width:3;stroke-linecap:butt;stroke-linejoin:miter;stroke-miterlimit:4;stroke-opacity:1;stroke-dasharray:none" />
        <path
           style="fill:#000000;fill-opacity:1;fill-rule:evenodd;stroke:#313131;stroke-width:3;stroke-linecap:butt;stroke-linejoin:miter;stroke-miterlimit:4;stroke-opacity:1;stroke-dasharray:none"
           d="m 133.29239,279.73584 c -5.37207,1.97698 -9.98081,5.21174 -12.55424,10.20855 -1.4414,2.24964 1.94879,2.50961 3.74943,2.93553 4.56938,1.23314 8.51923,1.83462 13.18082,1.94163 2.1626,0.17591 5.28874,-2.20475 7.35787,-2.97532 1.50366,-0.51311 1.9753,-2.28899 3.12465,-3.00657 0.6168,1.88271 1.62195,3.58297 3.10532,4.98771 2.75689,3.90383 3.67552,-6.31677 3.90482,-8.24165 -6.293,1.17032 -12.6369,-1.77545 -18.25117,-5.00094 -1.41846,-1.67329 -3.99725,0.0461 -4.76412,-1.93817"
           id="path2996"
           sodipodi:nodetypes="cccccccccc" />
        <path
           style="fill:#000000;fill-opacity:1;fill-rule:evenodd;stroke:#313131;stroke-width:3;stroke-linecap:butt;stroke-linejoin:miter;stroke-miterlimit:4;stroke-opacity:1;stroke-dasharray:none"
           d="m 245.14062,248.55524 c 1.47421,-2.85672 3.4598,-5.49885 5.51478,-8.29074 6.55662,-8.90785 12.10607,-17.37924 14.74641,-24.48427 -0.52615,-10.64665 -4.40552,-21.27941 -9.14277,-30.94311 -3.67731,-6.18043 -3.6577,-21.01673 -3.47061,-21.99101"
           id="path2998"
           sodipodi:nodetypes="csccc" />
        <path
           style="fill:#000000;fill-opacity:1;fill-rule:evenodd;stroke:#313131;stroke-width:3;stroke-linecap:butt;stroke-linejoin:miter;stroke-miterlimit:4;stroke-opacity:1;stroke-dasharray:none"
           d="m 198.1207,230.49784 c -0.18013,-1.86507 -2.28426,-3.08555 -2.64372,-4.95648 -4.83868,-7.28414 -9.25237,-14.86766 -13.15818,-22.63894 -1.40176,-3.69466 -3.72467,-7.44966 -2.82198,-11.44301 0.62157,-2.13175 1.75714,-7.8212 1.91202,-8.52124"
           id="path3000"
           sodipodi:nodetypes="ccccc" />
        <path
           style="fill:#000000;fill-opacity:1;fill-rule:evenodd;stroke:#313131;stroke-width:3;stroke-linecap:butt;stroke-linejoin:miter;stroke-miterlimit:4;stroke-opacity:1;stroke-dasharray:none"
           d="m 405.74474,233.29546 c -3.43543,-2.78031 -7.10889,-5.52944 -12.04548,-8.50387 -6.84725,-4.12576 -12.59201,-11.22113 -13.71402,-18.84297 -1.26135,-9.17101 -0.36344,-18.50797 -0.59846,-27.75173 -0.62969,-3.46228 -6.71163,-13.07131 -6.49933,-15.35078"
           id="path3002"
           sodipodi:nodetypes="csccc" />
        <path
           style="fill:#000000;fill-opacity:1;fill-rule:evenodd;stroke:#313131;stroke-width:3;stroke-linecap:butt;stroke-linejoin:miter;stroke-miterlimit:4;stroke-opacity:1;stroke-dasharray:none"
           d="m 161.01468,167.93273 c 0.0136,2.73829 1.65295,5.13982 1.69951,7.94778 0.18043,10.88095 1.46111,17.30352 -8.84827,24.18414 -6.40113,4.27219 -14.95975,8.85234 -22.94065,9.58908 -5.19609,0.47966 -8.26362,2.8519 -14.09797,1.8928"
           id="path3004"
           sodipodi:nodetypes="csssc" />
        <path
           id="path3006"
           style="fill:#000000;fill-opacity:1;fill-rule:evenodd;stroke:#313131;stroke-width:3;stroke-linecap:butt;stroke-linejoin:miter;stroke-miterlimit:4;stroke-opacity:1;stroke-dasharray:none"
           d="m 137.78797,124.188 c -6.16777,-12.47953 -5.50505,-27.165448 -2.31897,-40.464601 1.17934,-4.922738 6.21564,-16.213058 11.19901,-22.409474 5.69048,-7.075651 4.56387,-5.461554 6.69884,-3.251678 1.20227,3.457303 4.98474,8.892208 6.23155,11.1905 l 5.65467,5.567438 c 13.42015,11.113121 17.03698,19.143036 14.91624,36.601135 -0.9372,4.94271 -2.98463,9.97436 -7.47899,13.10253"
           sodipodi:nodetypes="cssccccc" />
        <path
           style="fill:#000000;fill-opacity:1;fill-rule:evenodd;stroke:#313131;stroke-width:3;stroke-linecap:butt;stroke-linejoin:miter;stroke-miterlimit:4;stroke-opacity:1;stroke-dasharray:none"
           d="m 41.047649,199.83301 c 1.279934,-5.91284 0.316744,-13.57948 -2.528711,-19.0133 -3.431763,-5.66894 -9.494297,-1.02347 -10.356447,3.8568 -1.003825,5.68228 1.623179,10.40973 3.593035,16.06741 2.487437,7.14424 7.289686,3.27647 9.292123,-0.91091 z"
           id="path3008"
           sodipodi:nodetypes="ccssc" />
        <g
           id="g3010"
           transform="matrix(0.882455,-0.09628146,0.094721,0.896992,-617.4178,-295.9087)"
           style="fill:#000000;fill-opacity:1;stroke:#313131;stroke-width:3.35268688;stroke-miterlimit:4;stroke-opacity:1;stroke-dasharray:none">
          <path
             transform="matrix(0.69389,-0.07370525,0.04996102,1.023665,217.4268,91.3914)"
             d="m 614.68085,554.5213 a 2.0744681,5.9042554 0 1 1 -4.14893,0 2.0744681,5.9042554 0 1 1 4.14893,0 z"
             sodipodi:ry="5.9042554"
             sodipodi:rx="2.0744681"
             sodipodi:cy="554.5213"
             sodipodi:cx="612.60638"
             id="path3012"
             style="fill:#000000;fill-opacity:1;stroke:#313131;stroke-width:3.96776485;stroke-miterlimit:4;stroke-opacity:1;stroke-dasharray:none"
             sodipodi:type="arc" />
          <path
             sodipodi:type="arc"
             style="fill:#000000;fill-opacity:1;stroke:#313131;stroke-width:3.94072962;stroke-miterlimit:4;stroke-opacity:1;stroke-dasharray:none"
             id="path3014"
             sodipodi:cx="612.60638"
             sodipodi:cy="554.5213"
             sodipodi:rx="2.0744681"
             sodipodi:ry="5.9042554"
             d="m 614.68085,554.5213 a 2.0744681,5.9042554 0 1 1 -4.14893,0 2.0744681,5.9042554 0 1 1 4.14893,0 z"
             transform="matrix(0.699376,-0.138473,0.09531181,1.016085,194.3433,134.9528)" />
        </g>
        <path
           style="fill:#ffffff;fill-opacity:1;fill-rule:evenodd;stroke:#313131;stroke-width:3.85334325;stroke-linecap:butt;stroke-linejoin:miter;stroke-miterlimit:4;stroke-opacity:1;stroke-dasharray:none"
           d="m 66.904477,202.81632 c -4.981292,6.32929 -17.202958,-17.44847 -12.770267,-29.48554 2.027102,-5.50464 7.626685,-11.42583 11.461358,-13.91075 -8.642422,23.77115 -2.147732,33.07549 8.140734,39.07299 -3.997641,3.03987 -4.290429,3.06273 -6.831825,4.3233 z"
           id="path3016"
           sodipodi:nodetypes="csccc" />
        <path
           style="fill:#ffffff;fill-opacity:1;fill-rule:evenodd;stroke:#313131;stroke-width:3.67228723;stroke-linecap:butt;stroke-linejoin:miter;stroke-miterlimit:4;stroke-opacity:1;stroke-dasharray:none"
           d="m 67.013067,188.40301 c 1.179494,4.8209 4.793467,9.19048 6.141345,13.92984 0.524089,-4.24075 2.441519,-9.54089 2.345003,-13.92729 -1.604331,-5.11223 -5.183224,-1.87265 -8.486348,-0.003 z"
           id="path3018"
           sodipodi:nodetypes="cccc" />
        <path
           id="path3020"
           d="m 154.25658,123.9512 c 1.32987,-4.50289 2.50212,-12.41179 -1.55119,-16.69326 -7.33401,-7.74682 -9.51451,-12.31399 -9.37046,-22.197845 0.20765,-7.743812 1.35102,-16.228637 5.26516,-23.289474 1.08889,-1.964287 2.39222,-3.81837 3.94948,-5.515632"
           style="fill:#000000;fill-opacity:1;fill-rule:evenodd;stroke:#313131;stroke-width:3;stroke-linecap:butt;stroke-linejoin:miter;stroke-miterlimit:4;stroke-opacity:1;stroke-dasharray:none"
           sodipodi:nodetypes="cscsc" />
      </g>
    </g>
  </g>
  <g
     id="layer2"
     inkscape:label="Reflet final"
     inkscape:groupmode="layer"
     sodipodi:insensitive="true"
     style="display:inline">
    <use
       xlink:href="#shield"
       id="use22"
       style="fill:url(#Gradient1)"
       x="0"
       y="0"
       width="600"
       height="660" />
  </g>
  <g
     id="layer1"
     inkscape:label="Contour final"
     inkscape:groupmode="layer"
     sodipodi:insensitive="true"
     style="display:inline">
    <use
       xlink:href="#shield"
       style="fill:none;stroke:#000000;stroke-width:3"
       id="use25"
       x="0"
       y="0"
       width="600"
       height="660" />
  </g>
</svg>
