<?xml version="1.0" encoding="UTF-8" standalone="no"?>
<svg
   xmlns:dc="http://purl.org/dc/elements/1.1/"
   xmlns:cc="http://creativecommons.org/ns#"
   xmlns:rdf="http://www.w3.org/1999/02/22-rdf-syntax-ns#"
   xmlns:svg="http://www.w3.org/2000/svg"
   xmlns="http://www.w3.org/2000/svg"
   xmlns:xlink="http://www.w3.org/1999/xlink"
   xmlns:sodipodi="http://sodipodi.sourceforge.net/DTD/sodipodi-0.dtd"
   xmlns:inkscape="http://www.inkscape.org/namespaces/inkscape"
   width="600"
   height="660"
   viewBox="-300 -300 600 660"
   id="svg2"
   version="1.1"
   inkscape:version="0.48.4 r9939"
   sodipodi:docname="Blason_ville_fr_Matzenheim (Bas-Rhin).svg">
  <metadata
     id="metadata29">
    <rdf:RDF>
      <cc:Work
         rdf:about="">
        <dc:format>image/svg+xml</dc:format>
        <dc:type
           rdf:resource="http://purl.org/dc/dcmitype/StillImage" />
        <dc:title></dc:title>
      </cc:Work>
    </rdf:RDF>
  </metadata>
  <sodipodi:namedview
     pagecolor="#ffffff"
     bordercolor="#666666"
     borderopacity="1"
     objecttolerance="10"
     gridtolerance="10"
     guidetolerance="10"
     inkscape:pageopacity="0"
     inkscape:pageshadow="2"
     inkscape:window-width="1352"
     inkscape:window-height="868"
     id="namedview27"
     showgrid="false"
     inkscape:snap-grids="true"
     inkscape:zoom="0.94545455"
     inkscape:cx="316.64276"
     inkscape:cy="327.96276"
     inkscape:window-x="-4"
     inkscape:window-y="-4"
     inkscape:window-maximized="1"
     inkscape:current-layer="layer3"
     showguides="true"
     inkscape:guide-bbox="true" />
  <defs
     id="defs4">
    <radialGradient
       id="Gradient1"
       gradientUnits="userSpaceOnUse"
       cx="-80"
       cy="-80"
       r="405">
      <stop
         style="stop-color:#fff;stop-opacity:0.31"
         offset="0"
         id="stop7" />
      <stop
         style="stop-color:#fff;stop-opacity:0.25"
         offset="0.19"
         id="stop9" />
      <stop
         style="stop-color:#6b6b6b;stop-opacity:0.125"
         offset="0.6"
         id="stop11" />
      <stop
         style="stop-color:#000;stop-opacity:0.125"
         offset="1"
         id="stop13" />
    </radialGradient>
    <clipPath
       id="shield_cut">
      <path
         id="shield"
         d="M-298.5,-298.5 h597 v258.5 C 298.5,246.2 0,358.39 0,358.39 0,358.39 -298.5,246.2 -298.5,-40z" />
    </clipPath>
    <linearGradient
       id="linearGradient9507">
      <stop
         style="stop-color:white;stop-opacity:0.3137255"
         offset="0"
         id="stop9509" />
      <stop
         style="stop-color:white;stop-opacity:0.25098041"
         offset="0.19"
         id="stop9511" />
      <stop
         style="stop-color:#6b6b6b;stop-opacity:0.1254902"
         offset="0.60000002"
         id="stop9513" />
      <stop
         style="stop-color:black;stop-opacity:0.1254902"
         offset="1"
         id="stop9515" />
    </linearGradient>
    <linearGradient
       id="linearGradient9517">
      <stop
         style="stop-color:white;stop-opacity:1"
         offset="0"
         id="stop9519" />
      <stop
         style="stop-color:white;stop-opacity:1"
         offset="0.22857143"
         id="stop9521" />
      <stop
         style="stop-color:black;stop-opacity:1"
         offset="1"
         id="stop9523" />
    </linearGradient>
    <linearGradient
       id="linearGradient9525">
      <stop
         style="stop-color:#fd0000;stop-opacity:1"
         offset="0"
         id="stop9527" />
      <stop
         style="stop-color:#e77275;stop-opacity:0.65882355"
         offset="0.5"
         id="stop9529" />
      <stop
         style="stop-color:black;stop-opacity:0.32291666"
         offset="1"
         id="stop9531" />
    </linearGradient>
    <radialGradient
       cx="225.52438"
       cy="218.90099"
       r="300"
       fx="225.52438"
       fy="218.90099"
       id="radialGradient9533"
       xlink:href="#linearGradient2955"
       gradientUnits="userSpaceOnUse"
       gradientTransform="matrix(-4.167939e-4,2.182867,-1.884232,-3.599562e-4,615.5972,-289.1214)" />
    <polygon
       points="0,-1 0.58778525,0.80901699 -0.95105652,-0.30901699 0.95105652,-0.30901699 -0.58778525,0.80901699 0,-1 "
       transform="scale(53,53)"
       id="polygon9535" />
    <clipPath
       id="clipPath9537">
      <path
         d="M 0,-200 L 0,600 L 300,600 L 300,-200 L 0,-200 z "
         id="path9539" />
    </clipPath>
    <radialGradient
       cx="225.52438"
       cy="218.90099"
       r="300"
       fx="225.52438"
       fy="218.90099"
       id="radialGradient9541"
       xlink:href="#linearGradient2955"
       gradientUnits="userSpaceOnUse"
       gradientTransform="matrix(-4.167939e-4,2.182867,-1.884232,-3.599562e-4,615.5972,-289.1214)" />
    <radialGradient
       cx="225.52438"
       cy="218.90099"
       r="300"
       fx="225.52438"
       fy="218.90099"
       id="radialGradient9543"
       xlink:href="#linearGradient2955"
       gradientUnits="userSpaceOnUse"
       gradientTransform="matrix(0,1.748721,-1.593162,-1.049767e-7,551.7876,-191.2898)" />
    <radialGradient
       cx="225.52438"
       cy="218.90099"
       r="300"
       fx="225.52438"
       fy="218.90099"
       id="radialGradient9545"
       xlink:href="#linearGradient2955"
       gradientUnits="userSpaceOnUse"
       gradientTransform="matrix(0,1.386237,-1.323286,-5.741131e-8,-158.0823,-109.5408)" />
    <radialGradient
       cx="221.44487"
       cy="226.33101"
       r="300"
       fx="221.44487"
       fy="226.33101"
       id="radialGradient9547"
       xlink:href="#linearGradient2893"
       gradientUnits="userSpaceOnUse"
       gradientTransform="matrix(1.353218,0,0,1.348928,-77.62935,-85.74693)" />
    <radialGradient
       r="300"
       fy="226.33101"
       fx="221.44487"
       cy="226.33101"
       cx="221.44487"
       gradientTransform="matrix(1.353218,0,0,1.348928,-77.62935,-85.74693)"
       gradientUnits="userSpaceOnUse"
       id="radialGradient3163"
       xlink:href="#linearGradient2893"
       inkscape:collect="always" />
    <radialGradient
       r="300"
       fy="218.90099"
       fx="225.52438"
       cy="218.90099"
       cx="225.52438"
       gradientTransform="matrix(0,1.386237,-1.323286,-5.741131e-8,-158.0823,-109.5408)"
       gradientUnits="userSpaceOnUse"
       id="radialGradient2871"
       xlink:href="#linearGradient2955"
       inkscape:collect="always" />
    <radialGradient
       r="300"
       fy="218.90099"
       fx="225.52438"
       cy="218.90099"
       cx="225.52438"
       gradientTransform="matrix(0,1.748721,-1.593162,-1.049767e-7,551.7876,-191.2898)"
       gradientUnits="userSpaceOnUse"
       id="radialGradient2865"
       xlink:href="#linearGradient2955"
       inkscape:collect="always" />
    <radialGradient
       r="300"
       fy="218.90099"
       fx="225.52438"
       cy="218.90099"
       cx="225.52438"
       gradientTransform="matrix(-4.167939e-4,2.182867,-1.884232,-3.599562e-4,615.5972,-289.1214)"
       gradientUnits="userSpaceOnUse"
       id="radialGradient1911"
       xlink:href="#linearGradient2955"
       inkscape:collect="always" />
    <clipPath
       id="clip">
      <path
         id="path10"
         d="M 0,-200 L 0,600 L 300,600 L 300,-200 L 0,-200 z " />
    </clipPath>
    <polygon
       points="0,-1 0.58778525,0.80901699 -0.95105652,-0.30901699 0.95105652,-0.30901699 -0.58778525,0.80901699 0,-1 "
       transform="scale(53,53)"
       id="star" />
    <radialGradient
       gradientUnits="userSpaceOnUse"
       gradientTransform="matrix(-4.167939e-4,2.182867,-1.884232,-3.599562e-4,615.5972,-289.1214)"
       r="300"
       fy="218.90099"
       fx="225.52438"
       cy="218.90099"
       cx="225.52438"
       id="radialGradient2961"
       xlink:href="#linearGradient2955"
       inkscape:collect="always" />
    <linearGradient
       id="linearGradient2955">
      <stop
         style="stop-color:#fd0000;stop-opacity:1;"
         offset="0"
         id="stop2867" />
      <stop
         id="stop2873"
         offset="0.5"
         style="stop-color:#e77275;stop-opacity:0.65882355;" />
      <stop
         id="stop2959"
         offset="1"
         style="stop-color:black;stop-opacity:0.32291666;" />
    </linearGradient>
    <linearGradient
       id="linearGradient2885">
      <stop
         style="stop-color:white;stop-opacity:1;"
         offset="0"
         id="stop2887" />
      <stop
         id="stop2891"
         offset="0.22857143"
         style="stop-color:white;stop-opacity:1;" />
      <stop
         style="stop-color:black;stop-opacity:1;"
         offset="1"
         id="stop2889" />
    </linearGradient>
    <linearGradient
       id="linearGradient2893">
      <stop
         id="stop2895"
         offset="0"
         style="stop-color:white;stop-opacity:0.3137255;" />
      <stop
         style="stop-color:white;stop-opacity:0.25098041;"
         offset="0.19"
         id="stop2897" />
      <stop
         id="stop2901"
         offset="0.60000002"
         style="stop-color:#6b6b6b;stop-opacity:0.1254902;" />
      <stop
         id="stop2899"
         offset="1"
         style="stop-color:black;stop-opacity:0.1254902;" />
    </linearGradient>
    <inkscape:perspective
       id="perspective455"
       inkscape:persp3d-origin="300 : 220 : 1"
       inkscape:vp_z="600 : 330 : 1"
       inkscape:vp_y="0 : 1000 : 0"
       inkscape:vp_x="0 : 330 : 1"
       sodipodi:type="inkscape:persp3d" />
  </defs>
  <g
     id="layer4"
     inkscape:label="Fond écu"
     inkscape:groupmode="layer">
    <use
       xlink:href="#shield"
       id="use18"
       style="fill:#ffffff"
       x="0"
       y="0"
       width="600"
       height="660" />
  </g>
  <g
     id="layer3"
     inkscape:label="Meubles"
     inkscape:groupmode="layer">
    <path
       id="path4117"
       style="fill:#2b5df2;stroke:#313131;stroke-width:2;stroke-miterlimit:4;stroke-dasharray:none"
       d="m -214.2518,-284.33456 c 0,26.14531 -20,26.13594 -20,52.28125 0,26.14531 20,26.16719 20,52.3125 0,26.14531 -20,26.13594 -20,52.28125 0,26.14531 20,26.13593 20,52.28125 0,26.14531 -20,26.1672 -20,52.3125 0,26.1453093 20,26.1359293 20,52.28125 0,26.14532 -20,26.13594 -20,52.28125 0,26.14531 20,26.16719 20,52.3125 0,13.07265 -6.3786,20.97261 -10.9349,27.8234 -4.3456,6.53399 -4.9505,8.72767 -7.4172,12.22223 0,0 -65.8961,-84.117664 -65.8961,-213.63232 l 0,-258.5 81.2285,0 c 1.3728,5.27403 2.9934,9.99297 3.0197,13.74294 z m 146.3456,-13.72794 -72.5938,0.0937 c 1.538,3.57425 2.5,8.05878 2.5,13.84375 0,26.14531 -20,26.13594 -20,52.28125 0,26.14531 20,26.16719 20,52.3125 0,26.14531 -20,26.13594 -20,52.28125 0,26.14531 20,26.13593 20,52.28125 0,26.14531 -20,26.1672 -20,52.3125 0,26.14531 20,26.13593 20,52.28125 0,26.14532 -20,26.13594 -20,52.28125 0,26.14531 20,26.16719 20,52.3125 0,26.14531 -20,26.13594 -20,52.28125 0,26.14532 20,26.13596 20,52.28125 0,14.31561 -5.9803,20.78003 -11.4062,28 27.1516,23.24056 54.303,41.73556 77.875,55.875 -5.8804,-9.13497 -14.2281,-15.09777 -14.3126,-31.8125 l 0.094,0 c 0,-26.14531 20,-26.13594 20,-52.28125 0,-26.14529 -20,-26.13593 -20,-52.28125 0,-26.14531 20,-26.13594 20,-52.28125 0,-26.14531 -20,-26.16719 -20,-52.3125 0,-26.14531 20,-26.13593 20,-52.28125 0,-26.14532 -20,-26.13594 -20,-52.28125 0,-26.1453 20,-26.16719 20,-52.3125 0,-26.14532 -20,-26.13594 -20,-52.28125 0,-26.14531 20,-26.13594 20,-52.28125 0,-26.14531 -20,-26.16719 -20,-52.3125 0,-26.14531 20,-26.13594 20,-52.28125 0,-5.78497 -0.9792,-10.24689 -2.1562,-13.71875 z m 150,0 -72.5938,0.0937 c 1.538,3.57425 2.5,8.05878 2.5,13.84375 0,26.14531 -20,26.13594 -20,52.28125 0,26.14531 20,26.16719 20,52.3125 0,26.14531 -20,26.13594 -20,52.28125 0,26.14531 20,26.13593 20,52.28125 0,26.14531 -20,26.1672 -20,52.3125 0,26.14531 20,26.13593 20,52.28125 0,26.14532 -20,26.13594 -20,52.28125 0,26.14531 20,26.16719 20,52.3125 0,26.14531 -20,26.13594 -20,52.28125 0,26.14532 20,26.13596 20,52.28125 0,26.05937 -19.8694,26.14271 -20,52.03125 l -0.062,0 c 2e-4,26.14533 20,26.13594 20,52.28125 0,4.49576 -0.6144,8.19121 -1.5937,11.40625 12.9461,-5.63945 36.9812,-16.95741 66.0624,-34.78125 -5.5887,-7.64013 -12.1749,-14.02422 -12.25,-28.875 l 0.094,0 c 0,-26.14531 20,-26.13594 20,-52.28125 0,-26.14529 -20,-26.13593 -20,-52.28125 0,-26.14531 20,-26.13594 20,-52.28125 0,-26.14531 -20,-26.16719 -20,-52.3125 0,-26.14531 20,-26.13593 20,-52.28125 0,-26.14532 -20,-26.13594 -20,-52.28125 0,-26.1453 20,-26.16719 20,-52.3125 0,-26.14532 -20,-26.13594 -20,-52.28125 0,-26.14531 20,-26.13594 20,-52.28125 0,-26.14531 -20,-26.16719 -20,-52.3125 0,-26.14531 20,-26.13594 20,-52.28125 0,-5.78497 -0.9792,-10.24689 -2.1562,-13.71875 z m 150,0 -72.5938,0.0937 c 1.538,3.57425 2.5,8.05878 2.5,13.84375 0,26.14531 -20,26.13594 -20,52.28125 0,26.14531 20,26.16719 20,52.3125 0,26.14531 -20,26.13594 -20,52.28125 0,26.14531 20,26.13593 20,52.28125 0,26.14531 -20,26.1672 -20,52.3125 0,26.14531 20,26.13593 20,52.28125 0,26.14532 -20,26.13594 -20,52.28125 0,26.14531 20,26.16719 20,52.3125 0,26.14531 -20,26.13594 -20,52.28125 0,26.14532 20,26.13596 20,52.28125 0,12.33863 -4.4519,18.84469 -9.1562,25.03125 21.7194,-18.91476 43.3246,-40.8408 63,-66.03125 -0.9898,-3.22809 -1.5938,-6.97753 -1.5938,-11.5 0,-26.14531 20,-26.13594 20,-52.28125 0,-26.14531 -20,-26.16719 -20,-52.3125 0,-26.14531 20,-26.13593 20,-52.28125 0,-26.14532 -20,-26.13594 -20,-52.28125 0,-26.1453 20,-26.16719 20,-52.3125 0,-26.14532 -20,-26.13594 -20,-52.28125 0,-26.14531 20,-26.13594 20,-52.28125 0,-26.14531 -20,-26.16719 -20,-52.3125 0,-26.14531 20,-26.13594 20,-52.28125 0,-5.78497 -0.9792,-10.24689 -2.1562,-13.71875 z" />
  </g>
  <g
     id="layer2"
     inkscape:label="Reflet final"
     inkscape:groupmode="layer"
     sodipodi:insensitive="true">
    <use
       xlink:href="#shield"
       id="use22"
       style="fill:url(#Gradient1)"
       x="0"
       y="0"
       width="600"
       height="660" />
  </g>
  <g
     id="layer1"
     inkscape:label="Contour final"
     inkscape:groupmode="layer">
    <path
       d="m -298.5,-298.39 h 597 v 258.5 C 298.5,246.31 0,358.5 0,358.5 c 0,0 -298.5,-112.19 -298.5,-398.39 z"
       id="use25"
       inkscape:connector-curvature="0"
       style="fill:none;stroke:#000000;stroke-width:3" />
  </g>
</svg>
