<?xml version="1.0" encoding="UTF-8" standalone="no"?>
<!-- Created with Inkscape (http://www.inkscape.org/) -->
<svg
   xmlns:svg="http://www.w3.org/2000/svg"
   xmlns="http://www.w3.org/2000/svg"
   xmlns:xlink="http://www.w3.org/1999/xlink"
   xmlns:sodipodi="http://sodipodi.sourceforge.net/DTD/sodipodi-0.dtd"
   version="1.0"
   width="600"
   height="660"
   id="svg2">
  <defs
     id="defs6">
    <linearGradient
       id="linearGradient2893">
      <stop
         style="stop-color:#ffffff;stop-opacity:0.3137255"
         offset="0"
         id="stop2895" />
      <stop
         style="stop-color:#ffffff;stop-opacity:0.25098041"
         offset="0.19"
         id="stop2897" />
      <stop
         style="stop-color:#6b6b6b;stop-opacity:0.1254902"
         offset="0.60000002"
         id="stop2901" />
      <stop
         style="stop-color:#000000;stop-opacity:0.1254902"
         offset="1"
         id="stop2899" />
    </linearGradient>
    <radialGradient
       cx="285.18573"
       cy="200.44757"
       r="300"
       fx="285.18573"
       fy="200.44757"
       id="radialGradient11919"
       xlink:href="#linearGradient2893"
       gradientUnits="userSpaceOnUse"
       gradientTransform="matrix(1.551284,0,0,1.350335,-227.8943,-51.2635)" />
    <pattern
       height="82.016178"
       width="72.369529"
       id="pattern3364"
       patternTransform="translate(30,6)"
       patternUnits="userSpaceOnUse">
      <g
         transform="translate(-191.87432,-178.28064)"
         id="g3357">
        <path
           style="fill:#ffffff;fill-rule:evenodd;stroke:#000000;stroke-width:1.2;stroke-linecap:round;stroke-linejoin:round;stroke-miterlimit:4;stroke-dasharray:none;stroke-opacity:1"
           d="M 203.08378,216.78746 C 199.79757,211.33248 195.07184,210.95014 195.0944,205.6635 C 195.11876,199.95248 207.47319,196.83621 203.15681,188.61722 C 212.54555,194.88298 200.07768,200.15758 200.70996,203.53098 C 201.12433,205.7418 202.80948,206.42839 204.06206,208.36036 C 205.11011,209.81557 205.10997,210.76079 205.13093,211.71627 C 205.30753,210.657 205.05948,209.56053 204.06653,208.39883 C 202.75486,206.46394 201.71531,203.65109 203.55435,200.69014 C 206.82757,195.42011 213.9229,194.96784 210.85275,183.57198 C 219.95693,190.64609 210.14149,199.19435 210.91476,203.81308 C 211.51271,207.38451 212.86705,206.88649 212.95563,209.21946 C 212.99009,210.12692 213.01943,211.62594 211.12279,213.36081 C 212.9796,211.63279 213.02087,210.25768 213.04755,209.23611 C 211.77109,203.96064 214.28389,203.95138 215.29579,200.94794 C 216.68111,196.83616 215.14071,193.09914 221.55249,189.02752 C 217.84801,197.87848 222.77056,200.241 222.60063,204.53299 C 222.33428,211.20585 217.98823,210.27501 214.78198,217.10715 C 209.01293,217.77269 209.3408,218.25861 203.08378,216.78746 z "
           id="path3134"
           sodipodi:nodetypes="cscscccscssccscscc" />
        <use
           height="660"
           width="600"
           transform="translate(36,40)"
           id="use3348"
           xlink:href="#path3134"
           y="0"
           x="0" />
      </g>
    </pattern>
  </defs>
  <g
     id="layer1">
    <path
       d="M 301.50004,656.9997 C 301.50004,618.49564 332.70321,587.24604 371.15,587.24604 C 409.5968,587.24604 491.90314,587.24604 530.34992,587.24604 C 568.79672,587.24604 600,555.99646 600,517.49249 L 600,-5.1958438e-014 L 3.0001204,1.99e-005 L 3.0001105,517.49249 C 3.0001105,555.99646 34.203309,587.24604 72.650104,587.24604 C 111.09691,587.24604 193.40326,587.24604 231.85006,587.24604 C 270.29685,587.24604 301.50004,618.49564 301.50004,656.9997 z "
       style="fill:#f2d207;fill-opacity:1;fill-rule:nonzero;stroke:none;stroke-width:5;stroke-linecap:round;stroke-linejoin:round;stroke-miterlimit:4;stroke-dashoffset:0;stroke-opacity:1"
       id="path2014" />
    <path
       d="M 300,1.5 L 300,300 L 598.5,300 L 598.5,1.5 L 300,1.5 z "
       style="fill:#d40000;fill-opacity:1;fill-rule:nonzero;stroke:#000000;stroke-width:3;stroke-linecap:round;stroke-linejoin:round;stroke-miterlimit:4;stroke-dasharray:none;stroke-dashoffset:0;stroke-opacity:1"
       id="path3150" />
    <path
       d="M 300,1.5 L 300,90 L 598.5,90 L 598.5,1.5 L 300,1.5 z "
       style="opacity:1;fill:#d40000;fill-opacity:1;fill-rule:evenodd;stroke:#000000;stroke-width:2;stroke-linecap:round;stroke-linejoin:round;stroke-miterlimit:4;stroke-dasharray:none;stroke-dashoffset:0;stroke-opacity:1"
       id="rect3743" />
    <path
       d="M 1.5,1.5 L 1.5,300 L 300,300 L 300,1.5 L 1.5,1.5 z "
       style="fill:#0169c9;fill-opacity:1;fill-rule:nonzero;stroke:#000000;stroke-width:3;stroke-linecap:round;stroke-linejoin:round;stroke-miterlimit:4;stroke-dasharray:none;stroke-dashoffset:0;stroke-opacity:1"
       id="path3153" />
    <path
       d="M 1.5,300 L 1.5,519 C 1.5,557.50399 32.709455,588.75 71.15625,588.75 C 109.60306,588.74997 191.89695,588.75 230.34375,588.75 C 268.79054,588.74997 300,619.99594 300,658.5 L 300,300 L 1.5,300 z "
       style="fill:#000000;fill-opacity:1;fill-rule:nonzero;stroke:#000000;stroke-width:3;stroke-linecap:round;stroke-linejoin:round;stroke-miterlimit:4;stroke-dasharray:none;stroke-dashoffset:0;stroke-opacity:1"
       id="path3156" />
  </g>
  <g
     style="display:inline"
     id="layer2">
    <g
       id="g4397">
      <path
         d="M 134.71583,338.53011 C 114.55069,347.18904 103.8125,406.09375 103.8125,406.09375 C 103.8125,406.09375 92.818844,394.3927 82.119174,411.05327 C 80.232563,413.99093 77.603052,417.26591 75.298711,421.20714 C 60.0451,434.58908 54,467.125 54,467.125 C 44.491875,460.45497 41.516483,456.86768 34.736078,470.84148 C 17.567894,506.22355 20.0625,522.26042 9.75,551.9375 C 21.500532,573.84684 44.600473,588.75 71.15625,588.75 C 109.60306,588.74997 191.89695,588.75 230.34375,588.75 C 268.79054,588.74997 300,619.99594 300,658.5 L 300,575.125 L 267.21875,542.875 C 267.21875,542.875 260.04688,509.01563 250.40625,490.25 C 240.76563,471.48438 228.65625,467.8125 228.65625,467.8125 C 228.65625,467.8125 225.2679,445.78153 216.50227,430.35185 C 207.73665,414.92216 193.59375,406.09375 193.59375,406.09375 C 193.59375,406.09375 191.49835,395.06822 185.00231,378.21798 C 182.01352,358.2679 176.13493,359.46969 162.47393,353.52493 C 151.05256,336.89389 149.5094,332.17774 134.71583,338.53011 z "
         style="fill:#ffffff;fill-rule:evenodd;stroke:#000000;stroke-width:3;stroke-linecap:round;stroke-linejoin:round;stroke-miterlimit:4;stroke-dasharray:none;stroke-opacity:1"
         id="path3973" />
      <path
         d="M 158.81034,567.72375 C 187.5649,554.0965 173.75344,527.54638 203.44601,541.93425 C 233.50382,556.4991 231.93606,575.54802 244.61001,588.55373"
         style="fill:none;fill-rule:evenodd;stroke:#000000;stroke-width:3;stroke-linecap:round;stroke-linejoin:round;stroke-miterlimit:4;stroke-dasharray:none;stroke-opacity:1"
         id="path3986" />
      <path
         d="M 228.75416,467.36525 C 218.17385,464.47907 205.48939,451.95447 194.90909,473.5221 C 191.05381,497.17527 183.88089,500.92252 177.55077,509.72659"
         style="fill:none;fill-rule:evenodd;stroke:#000000;stroke-width:3;stroke-linecap:round;stroke-linejoin:round;stroke-miterlimit:4;stroke-dasharray:none;stroke-opacity:1"
         id="path3984" />
      <path
         d="M 193.97735,406.79896 C 183.75833,401.55808 173.7181,406.68667 166.14387,419.9593 C 163.90352,434.86055 158.40266,429.41796 154.98496,436.07773"
         style="fill:none;fill-rule:evenodd;stroke:#000000;stroke-width:3;stroke-linecap:round;stroke-linejoin:round;stroke-miterlimit:4;stroke-dasharray:none;stroke-opacity:1"
         id="path3982" />
      <path
         d="M 104.54313,406.67132 C 115.14782,413.61465 119.65354,421.44715 121.01225,428.39048 C 123.51167,447.72096 128.24363,446.95864 131.9232,455.66783"
         style="fill:none;fill-rule:evenodd;stroke:#000000;stroke-width:3;stroke-linecap:round;stroke-linejoin:round;stroke-miterlimit:4;stroke-dasharray:none;stroke-opacity:1"
         id="path3980" />
      <path
         d="M 54.554705,468.06663 C 61.202802,472.6247 60.094861,487.79238 65.189724,498.60594 C 70.832108,510.58159 58.918021,517.78844 68.119865,527.63674 C 75.952019,536.01913 90.497566,547.00223 86.625668,556.03666"
         style="fill:none;fill-rule:evenodd;stroke:#000000;stroke-width:3;stroke-linecap:round;stroke-linejoin:round;stroke-miterlimit:4;stroke-dasharray:none;stroke-opacity:1"
         id="path3978" />
    </g>
    <path
       d="M 435,1.5 L 435,30 L 300,30 L 300,60 L 435,60 L 435,90 L 465,90 L 465,60 L 598.5,60 L 598.5,30 L 465,30 L 465,1.5 L 435,1.5 z "
       style="opacity:1;fill:#ffffff;fill-opacity:1;fill-rule:evenodd;stroke:#000000;stroke-width:2;stroke-linecap:round;stroke-linejoin:round;stroke-miterlimit:4;stroke-dasharray:none;stroke-dashoffset:0;stroke-opacity:1"
       id="rect3745" />
    <path
       d="M 300,400 L 300,490 L 598.5,490 L 598.5,400 L 300,400 z "
       style="opacity:1;fill:#d40000;fill-opacity:1;fill-rule:evenodd;stroke:#000000;stroke-width:3;stroke-linecap:round;stroke-linejoin:round;stroke-miterlimit:4;stroke-dasharray:none;stroke-dashoffset:0;stroke-opacity:1"
       id="rect3699" />
    <use
       transform="translate(190.00001,-1.8501647e-5)"
       id="use3890"
       x="0"
       y="0"
       width="600"
       height="660"
       xlink:href="#g3868" />
    <use
       transform="translate(95.000009,74.888713)"
       id="use3892"
       x="0"
       y="0"
       width="600"
       height="660"
       xlink:href="#g3868" />
    <g
       transform="translate(5.0000057,2.8151541e-6)"
       style="stroke:#000000;stroke-width:2;stroke-miterlimit:4;stroke-dasharray:none;stroke-opacity:1"
       id="g3733">
      <path
         d="M 361.88292,346.69045 C 373.46984,314.63453 393.23797,324.25215 389.83921,339.29614 C 402.3849,346.02801 391.87447,375.09537 360.30049,355.14109 C 362.85037,366.47614 366.20188,377.44072 386.67435,380.49301 C 384.68101,383.23143 382.46221,385.8946 384.56444,389.99999 C 358.00346,384.01694 361.34826,362.49319 354.49825,355.66926 C 336.73743,388.58785 313.62416,380.20516 320.73971,361.47907 C 306.88964,349.01938 318.76785,330.10345 349.22347,345.10596 C 323.29003,325.86797 331.19712,308.01614 346.58609,313.94421 C 357.50503,304.29277 372.83382,311.30599 361.88292,346.69045 z "
         style="opacity:1;fill:#339900;fill-opacity:1;fill-rule:evenodd;stroke:#000000;stroke-width:2;stroke-linecap:butt;stroke-linejoin:round;stroke-miterlimit:4;stroke-dasharray:none;stroke-opacity:1"
         id="path3236" />
      <path
         d="M 383.50949,343.52146 C 379.74478,346.9183 372.17661,348.41093 364.52031,349.85944 L 364.52031,350.3876 L 364.52031,350.3876"
         style="opacity:1;fill:none;fill-opacity:1;fill-rule:evenodd;stroke:#000000;stroke-width:2;stroke-linecap:butt;stroke-linejoin:round;stroke-miterlimit:4;stroke-dasharray:none;stroke-opacity:1"
         id="path3238" />
      <path
         d="M 349.75096,323.94181 C 353.69298,329.32556 353.27755,338.32552 355.42522,345.50596"
         style="opacity:1;fill:none;fill-opacity:1;fill-rule:evenodd;stroke:#000000;stroke-width:2;stroke-linecap:butt;stroke-linejoin:round;stroke-miterlimit:4;stroke-dasharray:none;stroke-opacity:1"
         id="path3240" />
      <path
         d="M 354.49825,350.3876 C 343.59587,359.16725 340.54378,354.48429 330.76178,358.83825"
         style="opacity:1;fill:none;fill-opacity:1;fill-rule:evenodd;stroke:#000000;stroke-width:2;stroke-linecap:butt;stroke-linejoin:round;stroke-miterlimit:4;stroke-dasharray:none;stroke-opacity:1"
         id="path3242" />
    </g>
    <g
       style="stroke:#000000;stroke-width:2;stroke-miterlimit:4;stroke-dasharray:none;stroke-opacity:1"
       id="g3868">
      <path
         d="M 355.14833,100.23158 L 356.20482,106.14789 C 358.05495,106.32122 359.54968,106.74024 361.41869,108.97581 C 363.1702,109.58028 363.8898,110.91139 363.94398,112.81898 C 367.52643,113.21237 370.93871,114.04503 372.40784,119.8936 C 375.47251,122.27528 377.16363,124.16955 376.85098,128.65592 C 379.72322,130.02534 380.36836,134.21727 379.24728,135.51119 C 381.01488,140.66814 379.30477,142.13764 377.84889,144.44672 C 381.92321,149.6758 378.96866,153.58534 377.44585,157.76366 C 378.19477,162.06737 377.67884,165.93574 373.61696,168.58368 C 376.3198,174.95253 373.75327,177.69418 371.80328,180.86023 C 373.60727,187.36872 369.73865,187.28788 367.57135,189.18332 C 368.80678,192.25355 367.13741,194.99052 363.54094,197.50641 C 363.46252,200.26824 365.07228,203.17534 358.90597,205.41334 C 354.67404,211.04129 350.44211,211.84595 346.21017,205.8295 C 343.53783,207.83273 340.51979,201.13362 341.97825,198.96295 C 340.04326,199.52447 335.19596,191.99807 338.35088,188.14293 C 333.7837,184.53626 333.59933,180.99106 335.36541,177.38439 C 334.27278,178.27984 330.92121,176.05101 332.03961,171.97001 C 330.93577,169.11977 329.07148,168.24217 331.47421,162.87119 C 329.18568,159.34132 330.96695,153.42871 332.30526,153.18596 C 328.97969,149.09378 329.68544,145.00159 331.7007,140.9094 C 330.65958,137.48477 329.83982,135.54716 333.2121,131.02574 C 331.61741,128.17893 332.76937,123.42706 335.01501,121.70615 C 335.15366,120.08413 336.19186,117.38952 339.15696,116.98052 C 340.2426,112.98656 341.39138,110.09254 345.86657,109.14423 C 346.85869,108.11554 348.05186,107.14375 349.83755,107.40897 L 352.05239,106.30859 L 351.924,100.64773 C 352.88026,99.77478 354.00499,99.945547 355.14833,100.23158 z "
         style="fill:#f2d207;fill-rule:evenodd;stroke:#000000;stroke-width:2;stroke-linecap:round;stroke-linejoin:round;stroke-miterlimit:4;stroke-dasharray:none;stroke-opacity:1"
         id="path2234" />
      <path
         d="M 332.44866,153.31344 C 334.65733,153.90316 335.60097,153.21817 337.56454,150.80345 C 341.53923,150.82885 345.72099,148.97607 346.25104,143.07853 C 353.21802,144.5045 353.42536,142.13537 357.74957,137.948 C 362.14214,137.66554 365.97454,134.5505 367.16831,132.06612 C 370.21239,133.31269 372.49906,132.21841 373.86886,130.45352 C 376.14874,131.04512 375.93549,129.94586 376.80672,128.75104"
         style="fill:none;fill-rule:evenodd;stroke:#000000;stroke-width:2;stroke-linecap:round;stroke-linejoin:round;stroke-miterlimit:4;stroke-dasharray:none;stroke-opacity:1"
         id="path2236" />
      <path
         d="M 331.99788,171.98016 C 333.97359,170.82234 335.90144,170.08322 336.33229,167.89733 C 338.36178,167.92298 342.30996,167.1174 344.8135,163.55826 C 348.37808,164.75176 353.57885,163.53466 357.58362,160.49729 C 361.60051,159.90605 363.71408,157.24334 365.04518,155.95407 C 368.27571,154.84174 373.28259,154.08939 372.81088,148.60826 C 376.35969,147.84028 378.06177,146.25507 377.84889,143.82248"
         style="fill:none;fill-rule:evenodd;stroke:#000000;stroke-width:2;stroke-linecap:round;stroke-linejoin:round;stroke-miterlimit:4;stroke-dasharray:none;stroke-opacity:1"
         id="path2238" />
      <path
         d="M 335.26836,177.48843 C 338.12824,177.78619 339.78889,175.25372 341.57521,173.05733 C 345.31828,174.2222 347.57102,172.35285 350.297,170.89225 C 356.46689,171.00068 358.9063,168.91711 360.41737,166.29482 C 364.42232,169.03195 367.84112,164.70753 371.29231,162.10804 C 375.0918,161.92768 376.43429,160.325 377.48043,157.7889"
         style="fill:none;fill-rule:evenodd;stroke:#000000;stroke-width:2;stroke-linecap:round;stroke-linejoin:round;stroke-miterlimit:4;stroke-dasharray:none;stroke-opacity:1"
         id="path2240" />
      <path
         d="M 338.57377,188.15353 C 340.47061,188.64675 340.30612,186.14237 341.19737,185.34223 C 343.78392,185.30824 345.54092,183.08996 346.81474,180.65215 C 351.27409,180.68811 355.57661,180.29228 358.91016,177.22844 C 362.93999,177.71202 365.77222,176.34078 366.76526,172.12099 C 369.55653,172.18962 371.52446,171.69871 373.61696,168.63569"
         style="fill:none;fill-rule:evenodd;stroke:#000000;stroke-width:2;stroke-linecap:round;stroke-linejoin:round;stroke-miterlimit:4;stroke-dasharray:none;stroke-opacity:1"
         id="path2242" />
      <path
         d="M 342.14384,198.90595 C 344.98729,199.35548 345.02889,195.32529 346.44208,193.31349 C 349.94593,192.67298 352.04409,190.00048 353.6587,186.62896 C 356.52864,188.36076 360.10248,186.28748 362.40307,184.49202 C 367.52357,184.28599 368.55975,182.97507 371.60176,180.44408"
         style="fill:none;fill-rule:evenodd;stroke:#000000;stroke-width:2;stroke-linecap:round;stroke-linejoin:round;stroke-miterlimit:4;stroke-dasharray:none;stroke-opacity:1"
         id="path2244" />
      <path
         d="M 346.24476,205.73285 C 347.45629,205.16699 347.82331,204.1168 348.1452,203.30263 C 349.83959,200.69909 350.8867,200.31989 352.49013,200.21404 C 356.98292,199.2318 357.45797,196.97678 358.62298,194.59107 C 363.17214,193.57993 363.59942,190.21459 367.51233,189.13499"
         style="fill:none;fill-rule:evenodd;stroke:#000000;stroke-width:2;stroke-linecap:round;stroke-linejoin:round;stroke-miterlimit:4;stroke-dasharray:none;stroke-opacity:1"
         id="path2246" />
      <path
         d="M 331.62736,141.16797 C 335.8909,140.99581 338.24241,139.05491 339.46021,137.49388 C 345.25406,136.67916 345.17792,133.96684 347.82234,131.33785 C 352.2683,129.72721 355.80838,127.25271 357.79761,124.4713 C 360.58289,123.58108 363.15321,123.13735 364.54854,121.35014 C 367.68564,122.27907 370.92875,123.51205 372.40784,119.68553"
         style="fill:none;fill-rule:evenodd;stroke:#000000;stroke-width:2;stroke-linecap:round;stroke-linejoin:round;stroke-miterlimit:4;stroke-dasharray:none;stroke-opacity:1"
         id="path2248" />
      <path
         d="M 333.31286,131.02574 C 335.49554,132.02643 338.4003,129.21905 340.37927,127.25307 C 343.54869,126.99873 344.92453,124.48121 346.41169,121.29813 C 349.45188,118.66927 350.51149,115.35589 355.70464,116.43206 C 357.33621,115.02393 360.49117,113.11768 364.1455,112.81898"
         style="fill:none;fill-rule:evenodd;stroke:#000000;stroke-width:2;stroke-linecap:round;stroke-linejoin:round;stroke-miterlimit:4;stroke-dasharray:none;stroke-opacity:1"
         id="path2250" />
      <path
         d="M 361.24432,108.85659 C 358.34715,108.53588 358.0185,106.54681 355.32593,108.5182 C 350.82262,109.0393 348.72454,111.03252 347.6712,112.29879 C 344.38982,112.24551 341.96317,115.0164 339.3081,117.03254 C 340.15786,120.46926 343.22381,120.8253 346.29865,121.28881 C 349.25809,126.49758 354.13607,124.96857 357.93594,124.51528 C 360.95471,128.86724 362.84127,130.488 367.12758,132.02645 C 371.85053,134.21505 374.8882,137.4908 375.39368,140.16322 C 377.04549,140.49872 377.31693,142.45736 377.81421,144.23108"
         style="fill:none;fill-rule:evenodd;stroke:#000000;stroke-width:2;stroke-linecap:round;stroke-linejoin:round;stroke-miterlimit:4;stroke-dasharray:none;stroke-opacity:1"
         id="path2252" />
      <path
         d="M 335.02858,121.70751 C 336.45095,124.38873 337.5584,127.61705 340.39671,127.25295 C 342.51872,129.75166 344.61269,131.8469 347.5337,131.43053 C 351.71359,135.913 353.61355,137.18298 357.79344,137.90437 C 361.50835,143.19039 362.49414,141.57921 365.47539,143.37087 C 368.78012,147.96324 371.22155,147.38255 372.61308,148.64506 C 373.92164,151.84657 374.24365,155.88152 377.45796,157.47304"
         style="fill:none;fill-rule:evenodd;stroke:#000000;stroke-width:2;stroke-linecap:round;stroke-linejoin:round;stroke-miterlimit:4;stroke-dasharray:none;stroke-opacity:1"
         id="path2254" />
      <path
         d="M 333.31565,131.05314 C 333.02773,133.79778 336.5571,136.74154 339.42173,137.54168 C 339.52766,143.43297 344.2502,143.00682 346.33325,143.04039 C 349.16996,147.44403 350.02818,151.99451 355.656,151.21989 C 357.87502,154.67324 361.51382,154.75173 365.06077,155.85457 C 366.36409,159.21909 368.16342,161.62255 371.17449,162.04822 C 370.58094,165.2776 371.5255,167.32651 373.59179,168.59418"
         style="fill:none;fill-rule:evenodd;stroke:#000000;stroke-width:2;stroke-linecap:round;stroke-linejoin:round;stroke-miterlimit:4;stroke-dasharray:none;stroke-opacity:1"
         id="path2258" />
      <path
         d="M 331.78783,141.36199 C 331.46589,146.19997 334.55047,148.49764 337.55894,150.85206 C 338.43497,154.33176 344.12789,154.92479 347.3912,155.56031 C 351.88221,161.73389 353.76375,160.45359 357.50845,160.63639 C 356.53826,164.53101 360.00331,164.96014 360.60144,166.43685 C 360.54406,170.4453 365.12349,171.45392 366.91322,172.18632 C 367.37122,177.1337 369.73541,178.63671 371.61561,181.01428"
         style="fill:none;fill-rule:evenodd;stroke:#000000;stroke-width:2;stroke-linecap:round;stroke-linejoin:round;stroke-miterlimit:4;stroke-dasharray:none;stroke-opacity:1"
         id="path2260" />
      <path
         d="M 332.21813,153.07079 C 333.93882,159.9817 336.49804,159.08851 339.25545,159.0415 C 341.4981,162.70341 343.05053,163.79441 344.77021,163.58211 C 345.25668,168.54739 344.40919,168.15267 350.21582,170.89566 C 351.22376,175.17079 355.74964,175.40994 358.93342,177.18883 L 362.56708,184.76617 C 362.98583,186.4369 364.79665,188.90601 367.41196,189.25372"
         style="fill:none;fill-rule:evenodd;stroke:#000000;stroke-width:2;stroke-linecap:round;stroke-linejoin:round;stroke-miterlimit:4;stroke-dasharray:none;stroke-opacity:1"
         id="path2262" />
      <path
         d="M 331.36034,162.91695 C 331.78709,167.06192 334.30173,167.20321 336.53242,167.889 C 337.32751,171.17866 338.89238,173.05732 341.56821,173.01793 C 341.44964,178.81958 344.68693,179.11105 347.10621,180.72002 C 349.07687,183.4193 351.01997,185.95375 353.603,186.5454 C 352.14415,191.8439 355.98103,193.38818 358.64843,194.47693 C 360.14476,196.57086 361.07909,197.55784 363.49331,197.56673"
         style="fill:none;fill-rule:evenodd;stroke:#000000;stroke-width:2;stroke-linecap:round;stroke-linejoin:round;stroke-miterlimit:4;stroke-dasharray:none;stroke-opacity:1"
         id="path2264" />
      <path
         d="M 335.32384,177.65466 C 336.24409,182.56713 338.22006,184.2806 341.01267,185.3265 C 341.80763,189.94229 344.31765,191.25609 346.39372,193.2263 C 346.72609,197.32163 349.5197,198.87564 352.66357,200.06798 C 354.12351,202.94744 356.79988,203.62888 358.93342,205.2912"
         style="fill:none;fill-rule:evenodd;stroke:#000000;stroke-width:2;stroke-linecap:round;stroke-linejoin:round;stroke-miterlimit:4;stroke-dasharray:none;stroke-opacity:1"
         id="path2266" />
      <path
         d="M 342.15798,199.09504 C 343.35317,201.4412 345.5973,202.5333 348.10368,203.5256"
         style="fill:none;fill-rule:evenodd;stroke:#000000;stroke-width:2;stroke-linecap:round;stroke-linejoin:round;stroke-miterlimit:4;stroke-dasharray:none;stroke-opacity:1"
         id="path2268" />
      <path
         d="M 345.66395,109.29966 C 347.73134,110.1205 347.01438,111.38364 347.5337,112.45039 C 352.36921,112.55173 353.52361,114.36678 355.50189,116.39773 C 360.3052,116.46478 361.77461,119.5439 364.66858,121.33597 C 366.28401,125.28016 370.54785,127.2102 373.68706,130.46769 C 378.4611,132.93619 378.42873,134.89215 379.1557,135.73831"
         style="fill:none;fill-rule:evenodd;stroke:#000000;stroke-width:2;stroke-linecap:round;stroke-linejoin:round;stroke-miterlimit:4;stroke-dasharray:none;stroke-opacity:1"
         id="path2270" />
      <path
         d="M 331.40433,162.84338 C 334.58836,163.63015 337.35843,161.14457 339.45367,159.1208 C 343.72404,159.74759 346.70239,157.4532 347.59718,155.56275 C 351.7997,155.84663 352.6318,153.79377 355.72724,151.21989 C 362.4091,151.12271 362.23694,147.30811 365.63076,143.56898 C 368.66276,144.16685 373.61332,142.93442 375.32052,140.40563 C 377.50842,139.34121 378.29336,139.56452 379.23917,135.69738"
         style="fill:none;fill-rule:evenodd;stroke:#000000;stroke-width:2;stroke-linecap:round;stroke-linejoin:round;stroke-miterlimit:4;stroke-dasharray:none;stroke-opacity:1"
         id="path2272" />
      <path
         d="M 363.7783,112.59753 C 361.37592,111.53647 360.80607,109.95692 355.656,108.69851 C 353.48936,108.67275 350.8968,109.70247 349.5999,107.52144"
         style="fill:none;fill-rule:evenodd;stroke:#000000;stroke-width:2;stroke-linecap:round;stroke-linejoin:round;stroke-miterlimit:4;stroke-dasharray:none;stroke-opacity:1"
         id="path2292" />
    </g>
    <use
       transform="translate(90,190)"
       id="use3741"
       x="0"
       y="0"
       width="600"
       height="660"
       xlink:href="#g3733" />
    <use
       transform="translate(180,0)"
       id="use3739"
       x="0"
       y="0"
       width="600"
       height="660"
       xlink:href="#g3733" />
    <use
       transform="translate(0,123.8576)"
       id="use3693"
       x="0"
       y="0"
       width="600"
       height="660"
       xlink:href="#g3648" />
    <g
       style="stroke:#000000;stroke-opacity:1"
       id="g3648">
      <path
         d="M 109.51581,59.716359 C 111.16608,55.153386 117.0736,47.399189 130.26281,40 C 134.06056,47.703442 144.91573,55.729817 153.07281,63.43326"
         style="fill:#ffffff;fill-rule:evenodd;stroke:#000000;stroke-width:2;stroke-linecap:round;stroke-linejoin:round;stroke-miterlimit:4;stroke-dasharray:none;stroke-opacity:1"
         id="path7484" />
      <path
         d="M 127.63418,119.31831 C 140.89366,126.2321 148.68002,126.82978 157.28142,127.99699 C 157.46274,116.57108 158.61239,113.7462 159.98328,112.8864"
         style="fill:#ffffff;fill-rule:evenodd;stroke:#000000;stroke-width:2;stroke-linecap:round;stroke-linejoin:round;stroke-miterlimit:4;stroke-dasharray:none;stroke-opacity:1"
         id="path8377" />
      <path
         d="M 217.16487,99.941046 C 241.08017,93.056508 144.24142,95.831592 174.3932,107.55324 C 204.54499,119.27489 193.24958,106.82558 217.16487,99.941046 z "
         style="fill:#ffffff;fill-rule:evenodd;stroke:#000000;stroke-width:2;stroke-linecap:round;stroke-linejoin:round;stroke-miterlimit:4;stroke-dasharray:none;stroke-opacity:1"
         id="path8375" />
      <path
         d="M 25.025242,76.976904 C 59.330812,58.000915 99.654015,59.686393 131.25771,60.126415 C 160.2404,62.33285 211.63,79.507708 223.3217,79.543897 C 229.04231,79.867683 236.16547,79.115492 239.24257,77.464586 C 254.03237,65.306887 266.82118,64.998257 280,62.380156 C 279.551,66.703225 261.05247,81.865199 256.79996,89.776075 C 260.8676,101.46471 273.85608,106.57117 277.96453,115.9974 C 260.18522,116.05841 247.5104,106.53789 232.93352,101.33124 C 165.20551,92.173015 171.55662,130.59802 83.880858,116.44183"
         style="fill:#ffffff;fill-rule:evenodd;stroke:#000000;stroke-width:2;stroke-linecap:round;stroke-linejoin:round;stroke-miterlimit:4;stroke-dasharray:none;stroke-opacity:1"
         id="path3047" />
      <path
         d="M 66.670905,99.828782 C 80.341664,110.68567 89.251956,120.39543 89.734894,129.7747 C 85.163392,131.97061 68.829522,117.70456 54.872476,104.82977"
         style="fill:#ffffff;fill-rule:evenodd;stroke:#000000;stroke-width:2;stroke-linecap:round;stroke-linejoin:round;stroke-miterlimit:4;stroke-dasharray:none;stroke-opacity:1"
         id="path6595" />
      <path
         d="M 69.020626,80.887488 C 76.367905,109.03176 46.731832,112.02052 23.121716,92.474945 C 20.746098,85.750462 25.414954,87.165027 28.779415,87.238678"
         style="fill:#ffffff;fill-rule:evenodd;stroke:#000000;stroke-width:2;stroke-linecap:round;stroke-linejoin:round;stroke-miterlimit:4;stroke-dasharray:none;stroke-opacity:1"
         id="path6597" />
      <path
         d="M 60.464733,79.109769 C 63.000766,90.949579 60.158899,98.808641 48.306357,99.997949"
         style="fill:none;fill-rule:evenodd;stroke:#000000;stroke-width:2;stroke-linecap:round;stroke-linejoin:round;stroke-miterlimit:4;stroke-dasharray:none;stroke-opacity:1"
         id="path8371" />
      <path
         d="M 45.6045,91.998224 C 27.781205,94.92098 4.1754636,64.319857 34.797053,81.77635"
         style="fill:#ffffff;fill-rule:evenodd;stroke:#000000;stroke-width:2;stroke-linecap:round;stroke-linejoin:round;stroke-miterlimit:4;stroke-dasharray:none;stroke-opacity:1"
         id="path8373" />
      <path
         d="M 51.312061,79.776429 C 51.312061,81.965533 48.756694,83.740155 45.604492,83.740155 C 42.452297,83.740155 39.89693,81.965533 39.89693,79.776429 C 39.89693,77.587325 42.452297,75.812702 45.604492,75.812702 C 48.756694,75.812702 51.312061,77.587325 51.312061,79.776429 z "
         style="fill:none;fill-opacity:1;stroke:#000000;stroke-width:2;stroke-linecap:round;stroke-linejoin:round;stroke-miterlimit:4;stroke-dasharray:none;stroke-opacity:1"
         id="path11107" />
      <path
         d="M 48.756672,79.109771 C 48.756672,80.201931 47.791695,81.132188 46.480329,81.304188 C 45.168972,81.476195 43.900032,80.838952 43.486979,79.800979 C 43.073926,78.762998 43.639218,77.632023 44.82048,77.133077 C 46.001734,76.634131 47.448734,76.915134 48.233855,77.79596 L 46.054815,79.109771 L 48.756672,79.109771 z "
         style="fill:none;fill-opacity:1;stroke:#000000;stroke-width:2;stroke-linecap:round;stroke-linejoin:round;stroke-miterlimit:4;stroke-dasharray:none;stroke-opacity:1"
         id="path11109" />
      <path
         d="M 256.89812,89.832978 C 248.75741,89.604191 240.59332,88.360172 230.44201,89.331644"
         style="fill:none;fill-rule:evenodd;stroke:#000000;stroke-width:2;stroke-linecap:round;stroke-linejoin:round;stroke-miterlimit:4;stroke-dasharray:none;stroke-opacity:1"
         id="path11111" />
      <path
         d="M 265.80616,78.980594 C 262.6502,79.013221 255.65297,82.207892 249.14469,84.887354"
         style="fill:none;fill-rule:evenodd;stroke:#000000;stroke-width:2;stroke-linecap:round;stroke-linejoin:round;stroke-miterlimit:4;stroke-dasharray:none;stroke-opacity:1"
         id="path11113" />
      <path
         d="M 273.50195,70.7625 C 266.49758,71.255698 256.46988,75.151183 245.99252,80.443056"
         style="fill:none;fill-rule:evenodd;stroke:#000000;stroke-width:2;stroke-linecap:round;stroke-linejoin:round;stroke-miterlimit:4;stroke-dasharray:none;stroke-opacity:1"
         id="path11115" />
      <path
         d="M 274.41814,110.47818 C 266.01235,109.68025 256.19955,105.79778 247.79376,103.10895"
         style="fill:none;fill-rule:evenodd;stroke:#000000;stroke-width:2;stroke-linecap:round;stroke-linejoin:round;stroke-miterlimit:4;stroke-dasharray:none;stroke-opacity:1"
         id="path11117" />
      <path
         d="M 263.51253,100.13481 C 258.85933,99.394096 253.68258,98.588794 249.02937,97.848072"
         style="fill:none;fill-rule:evenodd;stroke:#000000;stroke-width:2;stroke-linecap:round;stroke-linejoin:round;stroke-miterlimit:4;stroke-dasharray:none;stroke-opacity:1"
         id="path11119" />
      <path
         d="M 133.86529,45.333144 C 128.11382,49.909944 123.11644,54.734824 119.45536,59.999316"
         style="fill:none;fill-rule:evenodd;stroke:#000000;stroke-width:2;stroke-linecap:round;stroke-linejoin:round;stroke-miterlimit:4;stroke-dasharray:none;stroke-opacity:1"
         id="path11121" />
      <path
         d="M 138.63016,50.504823 C 134.91276,53.262838 131.68364,56.55245 129.36219,59.999316"
         style="fill:none;fill-rule:evenodd;stroke:#000000;stroke-width:2;stroke-linecap:round;stroke-linejoin:round;stroke-miterlimit:4;stroke-dasharray:none;stroke-opacity:1"
         id="path11123" />
      <path
         d="M 143.3218,55.110595 C 140.91778,57.48205 139.85808,59.190123 138.8187,60.888171"
         style="fill:none;fill-rule:evenodd;stroke:#000000;stroke-width:2;stroke-linecap:round;stroke-linejoin:round;stroke-miterlimit:4;stroke-dasharray:none;stroke-opacity:1"
         id="path11125" />
      <path
         d="M 68.120009,109.77539 L 89.611795,129.50713"
         style="fill:none;fill-rule:evenodd;stroke:#000000;stroke-width:2;stroke-linecap:round;stroke-linejoin:round;stroke-miterlimit:4;stroke-dasharray:none;stroke-opacity:1"
         id="path11127" />
      <path
         d="M 144.67274,121.77498 C 148.51501,123.01974 152.74123,123.88558 157.28142,124.44155"
         style="fill:none;fill-rule:evenodd;stroke:#000000;stroke-width:2;stroke-linecap:round;stroke-linejoin:round;stroke-miterlimit:4;stroke-dasharray:none;stroke-opacity:1"
         id="path11129" />
      <path
         d="M 152.77832,118.66398 L 157.73173,119.99726"
         style="fill:none;fill-rule:evenodd;stroke:#000000;stroke-width:2;stroke-linecap:round;stroke-linejoin:round;stroke-miterlimit:4;stroke-dasharray:none;stroke-opacity:1"
         id="path11131" />
      <path
         d="M 190.15406,107.10882 L 198.25964,110.66425"
         style="fill:none;fill-rule:evenodd;stroke:#000000;stroke-width:2;stroke-linecap:round;stroke-linejoin:round;stroke-miterlimit:4;stroke-dasharray:none;stroke-opacity:1"
         id="path11133" />
      <path
         d="M 196.90871,104.88667 L 203.02451,106.76127"
         style="fill:none;fill-rule:evenodd;stroke:#000000;stroke-width:2;stroke-linecap:round;stroke-linejoin:round;stroke-miterlimit:4;stroke-dasharray:none;stroke-opacity:1"
         id="path11135" />
      <path
         d="M 78.285291,69.956484 C 83.564035,74.216705 79.270175,79.675906 78.285291,79.409311"
         style="fill:none;fill-rule:evenodd;stroke:#000000;stroke-width:2;stroke-linecap:round;stroke-linejoin:round;stroke-miterlimit:4;stroke-dasharray:none;stroke-opacity:1"
         id="path11137" />
      <path
         d="M 84.220542,82.359177 C 89.630753,86.725505 85.229949,92.320663 84.220542,92.047426"
         style="fill:none;fill-rule:evenodd;stroke:#000000;stroke-width:2;stroke-linecap:round;stroke-linejoin:round;stroke-miterlimit:4;stroke-dasharray:none;stroke-opacity:1"
         id="path11139" />
      <path
         d="M 92.455335,66.132352 C 97.865548,70.49868 93.464743,76.093837 92.455335,75.820601"
         style="fill:none;fill-rule:evenodd;stroke:#000000;stroke-width:2;stroke-linecap:round;stroke-linejoin:round;stroke-miterlimit:4;stroke-dasharray:none;stroke-opacity:1"
         id="path11141" />
      <path
         d="M 98.370887,78.894627 C 105.22723,84.428062 99.650112,91.518801 98.370887,91.172528"
         style="fill:none;fill-rule:evenodd;stroke:#000000;stroke-width:2;stroke-linecap:round;stroke-linejoin:round;stroke-miterlimit:4;stroke-dasharray:none;stroke-opacity:1"
         id="path11143" />
      <path
         d="M 75.445054,94.075458 C 80.25075,97.953915 76.341669,102.9239 75.445054,102.6812"
         style="fill:none;fill-rule:evenodd;stroke:#000000;stroke-width:2;stroke-linecap:round;stroke-linejoin:round;stroke-miterlimit:4;stroke-dasharray:none;stroke-opacity:1"
         id="path11145" />
      <path
         d="M 89.994935,96.677402 C 95.405146,101.04373 91.004343,106.63889 89.994935,106.36565"
         style="fill:none;fill-rule:evenodd;stroke:#000000;stroke-width:2;stroke-linecap:round;stroke-linejoin:round;stroke-miterlimit:4;stroke-dasharray:none;stroke-opacity:1"
         id="path11147" />
      <path
         d="M 109.28965,87.986757 C 114.69986,92.353084 110.29905,97.948243 109.28965,97.675006"
         style="fill:none;fill-rule:evenodd;stroke:#000000;stroke-width:2;stroke-linecap:round;stroke-linejoin:round;stroke-miterlimit:4;stroke-dasharray:none;stroke-opacity:1"
         id="path11149" />
      <path
         d="M 104.49834,104.60122 C 109.90855,108.96754 105.50775,114.56271 104.49834,114.28947"
         style="fill:none;fill-rule:evenodd;stroke:#000000;stroke-width:2;stroke-linecap:round;stroke-linejoin:round;stroke-miterlimit:4;stroke-dasharray:none;stroke-opacity:1"
         id="path11151" />
      <path
         d="M 108.90116,65.748945 C 114.31137,70.115273 109.91057,75.710432 108.90116,75.437194"
         style="fill:none;fill-rule:evenodd;stroke:#000000;stroke-width:2;stroke-linecap:round;stroke-linejoin:round;stroke-miterlimit:4;stroke-dasharray:none;stroke-opacity:1"
         id="path11153" />
      <path
         d="M 119.46603,72.34174 C 125.86224,77.503829 120.6594,84.118694 119.46603,83.795663"
         style="fill:none;fill-rule:evenodd;stroke:#000000;stroke-width:2;stroke-linecap:round;stroke-linejoin:round;stroke-miterlimit:4;stroke-dasharray:none;stroke-opacity:1"
         id="path11155" />
      <path
         d="M 121.5396,96.967617 C 127.95732,102.14706 122.73698,108.78418 121.5396,108.46006"
         style="fill:none;fill-rule:evenodd;stroke:#000000;stroke-width:2;stroke-linecap:round;stroke-linejoin:round;stroke-miterlimit:4;stroke-dasharray:none;stroke-opacity:1"
         id="path11157" />
      <path
         d="M 132.66065,84.819359 C 138.87688,89.836189 133.82045,96.264908 132.66065,95.950965"
         style="fill:none;fill-rule:evenodd;stroke:#000000;stroke-width:2;stroke-linecap:round;stroke-linejoin:round;stroke-miterlimit:4;stroke-dasharray:none;stroke-opacity:1"
         id="path11159" />
      <path
         d="M 144.6619,73.43711 C 150.33505,78.015633 145.72037,83.882713 144.6619,83.596201"
         style="fill:none;fill-rule:evenodd;stroke:#000000;stroke-width:2;stroke-linecap:round;stroke-linejoin:round;stroke-miterlimit:4;stroke-dasharray:none;stroke-opacity:1"
         id="path11161" />
      <path
         d="M 144.90068,99.744679 C 150.3109,104.11101 145.91009,109.70616 144.90068,109.43293"
         style="fill:none;fill-rule:evenodd;stroke:#000000;stroke-width:2;stroke-linecap:round;stroke-linejoin:round;stroke-miterlimit:4;stroke-dasharray:none;stroke-opacity:1"
         id="path11163" />
      <path
         d="M 157.20268,88.625773 C 162.61289,92.992101 158.21209,98.587259 157.20268,98.314022"
         style="fill:none;fill-rule:evenodd;stroke:#000000;stroke-width:2;stroke-linecap:round;stroke-linejoin:round;stroke-miterlimit:4;stroke-dasharray:none;stroke-opacity:1"
         id="path11165" />
      <path
         d="M 170.67012,76.484436 C 176.08034,80.850764 171.67953,86.445922 170.67012,86.172685"
         style="fill:none;fill-rule:evenodd;stroke:#000000;stroke-width:2;stroke-linecap:round;stroke-linejoin:round;stroke-miterlimit:4;stroke-dasharray:none;stroke-opacity:1"
         id="path11167" />
      <path
         d="M 170.41113,94.504735 C 175.82134,98.871062 171.42054,104.46622 170.41113,104.19298"
         style="fill:none;fill-rule:evenodd;stroke:#000000;stroke-width:2;stroke-linecap:round;stroke-linejoin:round;stroke-miterlimit:4;stroke-dasharray:none;stroke-opacity:1"
         id="path11169" />
      <path
         d="M 181.5167,88.356321 C 186.5239,92.397402 182.45092,97.57578 181.5167,97.322896"
         style="fill:none;fill-rule:evenodd;stroke:#000000;stroke-width:2;stroke-linecap:round;stroke-linejoin:round;stroke-miterlimit:4;stroke-dasharray:none;stroke-opacity:1"
         id="path11171" />
      <path
         d="M 196.11862,82.974729 C 200.72281,86.690555 196.97764,91.452153 196.11862,91.219621"
         style="fill:none;fill-rule:evenodd;stroke:#000000;stroke-width:2;stroke-linecap:round;stroke-linejoin:round;stroke-miterlimit:4;stroke-dasharray:none;stroke-opacity:1"
         id="path11173" />
      <path
         d="M 215.10786,87.810488 C 219.10755,91.038451 215.8541,95.174867 215.10786,94.972868"
         style="fill:none;fill-rule:evenodd;stroke:#000000;stroke-width:2;stroke-linecap:round;stroke-linejoin:round;stroke-miterlimit:4;stroke-dasharray:none;stroke-opacity:1"
         id="path11175" />
    </g>
    <path
       d="M 300,430 C 300,430 420,384.86673 420,270.16475 C 420,155.46277 420,166.27183 420,166.27183 L 180,166.27183 L 180,270.16475 C 180,384.86673 300,430 300,430 z "
       style="fill:#0169c9;fill-opacity:1;fill-rule:evenodd;stroke:#000000;stroke-width:3;stroke-linecap:butt;stroke-linejoin:miter;stroke-miterlimit:4;stroke-dasharray:none;stroke-opacity:1"
       id="path3374" />
    <path
       d="M 300,430 C 300,430 420,384.86673 420,270.16475 C 420,155.46277 420,166.27183 420,166.27183 L 180,166.27183 L 180,270.16475 C 180,384.86673 300,430 300,430 z "
       style="fill:url(#pattern3364);fill-opacity:1;fill-rule:evenodd;stroke:#000000;stroke-width:3;stroke-linecap:butt;stroke-linejoin:miter;stroke-miterlimit:4;stroke-dasharray:none;stroke-opacity:1"
       id="path2855" />
    <g
       id="g3365">
      <path
         d="M 205.25385,210.85434 C 205.25385,210.85434 201.29651,207.49776 199.65493,209.23411 C 198.22726,210.74381 201.97904,214.6175 201.97904,214.6175 L 205.25385,210.85434 z "
         style="fill:#ffffff;fill-rule:evenodd;stroke:#000000;stroke-width:1.20000005;stroke-linecap:round;stroke-linejoin:round;stroke-miterlimit:4;stroke-dasharray:none;stroke-opacity:1"
         id="path3247" />
      <path
         d="M 196.11641,230.8418 C 196.11641,230.8418 192.46497,227.04697 191.08221,228.25947 C 189.87964,229.31361 193.37056,233.52719 193.37056,233.52719 L 196.11641,230.8418 z "
         style="fill:#ffffff;fill-rule:evenodd;stroke:#000000;stroke-width:1.20000005;stroke-linecap:round;stroke-linejoin:round;stroke-miterlimit:4;stroke-dasharray:none;stroke-opacity:1"
         id="path3253" />
      <path
         d="M 194.76733,220.62666 C 194.76733,220.62666 190.79375,217.19939 189.44025,218.62473 C 188.2631,219.86397 192.09542,223.74242 192.09542,223.74242 L 194.76733,220.62666 z "
         style="fill:#ffffff;fill-rule:evenodd;stroke:#000000;stroke-width:1.20000005;stroke-linecap:round;stroke-linejoin:round;stroke-miterlimit:4;stroke-dasharray:none;stroke-opacity:1"
         id="path3251" />
      <path
         d="M 198.50191,213.89086 C 198.50191,213.89086 194.53596,210.49478 193.0576,212.05492 C 191.77187,213.41139 195.56867,217.2872 195.56867,217.2872 L 198.50191,213.89086 z "
         style="fill:#ffffff;fill-rule:evenodd;stroke:#000000;stroke-width:1.20000005;stroke-linecap:round;stroke-linejoin:round;stroke-miterlimit:4;stroke-dasharray:none;stroke-opacity:1"
         id="path3249" />
      <path
         d="M 233.4654,218.52355 C 232.52142,218.1862 229.6308,215.91152 229.91157,214.25724 C 229.99513,213.76489 230.60742,212.91336 231.17186,213.35884 C 232.51106,214.41582 232.9456,216.42572 233.4654,218.52355 z "
         style="fill:#ffffff;fill-rule:evenodd;stroke:#000000;stroke-width:1.20000005;stroke-linecap:round;stroke-linejoin:round;stroke-miterlimit:4;stroke-dasharray:none;stroke-opacity:1"
         id="path3275" />
      <path
         d="M 202.07608,209.25063 C 201.43959,209.24555 200.8452,209.46217 200.32608,210.03188 C 199.1232,211.35241 201.83644,216.25366 206.88858,219.50063 C 208.85146,222.43431 211.7099,224.66774 213.98233,226.31313 C 216.42584,229.16415 217.32602,229.87342 217.54483,230.25063 C 216.86855,229.89802 215.02137,227.3747 211.82608,225.50063 C 209.3417,222.87602 208.44442,221.69266 204.01358,218.62563 C 199.48232,213.42217 195.34145,211.23347 193.82608,212.78188 C 192.50531,214.13144 194.92985,218.30552 200.01358,222.28188 C 201.97422,224.99444 204.47065,227.2565 206.95108,229.03188 C 209.42618,231.46264 211.33751,233.5487 212.45108,234.87563 C 210.34372,233.42348 209.93012,231.9552 206.95108,230.37563 C 205.20059,228.20412 202.33876,225.58615 199.95108,224.37563 C 195.80527,221.05385 192.40158,217.01772 190.29483,219.37563 C 188.38822,221.50954 192.25013,225.01314 196.63858,228.43813 C 198.72136,230.90739 200.45236,232.28958 203.04483,234.15688 C 205.20995,237.28533 208.71216,241.00362 209.66983,241.56313 C 208.83352,241.14727 208.42107,240.70877 205.26358,238.12563 C 204.20879,236.76621 199.54749,233.10588 198.04483,232.34438 C 194.38264,228.01231 192.42407,227.97329 191.54483,229.06313 C 190.10202,230.85155 194.42347,235.98526 195.23233,235.96938 C 196.27783,237.74493 200.41585,240.7771 201.35733,241.65688 C 202.46345,242.69053 204.45802,244.56439 205.38858,245.40688 C 207.49731,248.19946 206.75545,248.0172 209.32608,251.12563 C 211.42971,253.79523 212.41867,254.86748 214.66983,257.03188 C 219.22864,261.46738 221.89326,262.69868 225.32608,265.21938 C 229.46201,266.96586 231.13962,266.76549 233.10733,266.81313 C 269.74179,301.79394 274.48645,315.9298 309.27659,342.23487 C 315.96956,349.78742 326.61861,348.84339 331.72868,341.75808 C 357.55949,319.34116 383.62144,305.49138 405.89552,280.4069 C 399.44635,261.68948 399.98217,246.19922 402.45015,226.20792 C 384.21227,240.79116 373.20977,246.11065 360.50821,259.40591 C 341.13008,279.68982 343.80466,286.60717 318.29476,306.95272 C 293.91469,282.80242 273.78593,275.59651 245.76358,251.06313 C 246.70518,246.21723 244.50075,242.05612 244.10733,237.09438 C 242.43181,234.82425 242.27102,231.73909 239.26358,229.96938 C 238.62801,226.85502 237.19373,223.68546 235.35733,221.06313 C 234.59782,218.92226 232.73615,215.04198 230.32608,214.43813 C 230.08702,214.01633 227.84773,214.2835 228.16983,219.53188 C 228.36273,222.67509 231.45108,227.43813 231.45108,227.43813 C 231.13344,228.54614 230.85024,230.47313 230.76358,231.93813 C 228.0191,229.96855 228.67569,230.89692 225.32608,227.71938 C 222.8502,225.70622 220.44675,223.55323 217.98233,221.84438 C 215.27115,219.09328 213.85793,217.65707 210.66983,215.59438 C 208.42551,213.83821 204.83421,209.27262 202.07608,209.25063 z "
         style="fill:#ffffff;fill-rule:evenodd;stroke:#000000;stroke-width:1.20000005;stroke-linecap:round;stroke-linejoin:round;stroke-miterlimit:4;stroke-dasharray:none;stroke-opacity:1"
         id="path2237" />
      <path
         d="M 230.79639,231.90091 C 228.97311,237.88996 234.40777,240.07034 235.13581,240.95822"
         style="fill:#ffffff;fill-rule:evenodd;stroke:#000000;stroke-width:1.20000005;stroke-linecap:round;stroke-linejoin:round;stroke-miterlimit:4;stroke-dasharray:none;stroke-opacity:1"
         id="path3464" />
      <path
         d="M 230.65963,232.16372 C 227.45577,241.42846 226.48649,243.55774 232.62757,253.41847"
         style="fill:#ffffff;fill-rule:evenodd;stroke:#000000;stroke-width:1.20000005;stroke-linecap:round;stroke-linejoin:round;stroke-miterlimit:4;stroke-dasharray:none;stroke-opacity:1"
         id="path3466" />
      <path
         d="M 227.67377,235.92038 C 223.00797,243.1068 223.94248,249.51387 224.99348,256.99027"
         style="fill:#ffffff;fill-rule:evenodd;stroke:#000000;stroke-width:1.20000005;stroke-linecap:round;stroke-linejoin:round;stroke-miterlimit:4;stroke-dasharray:none;stroke-opacity:1"
         id="path3468" />
      <path
         d="M 222.64162,231.43608 C 220.4199,248.21083 216.12163,243.79495 214.89646,255.53888"
         style="fill:#ffffff;fill-rule:evenodd;stroke:#000000;stroke-width:1.20000005;stroke-linecap:round;stroke-linejoin:round;stroke-miterlimit:4;stroke-dasharray:none;stroke-opacity:1"
         id="path3470" />
      <path
         d="M 216.00122,222.40647 C 215.69434,223.55618 214.92234,223.93822 214.18037,224.36983"
         style="fill:#ffffff;fill-rule:evenodd;stroke:#000000;stroke-width:1.20000005;stroke-linecap:round;stroke-linejoin:round;stroke-miterlimit:4;stroke-dasharray:none;stroke-opacity:1"
         id="path3472" />
      <path
         d="M 208.43129,215.51818 C 207.30408,216.0459 206.87163,216.73527 206.67352,217.47917"
         style="fill:#ffffff;fill-rule:evenodd;stroke:#000000;stroke-width:1.20000005;stroke-linecap:round;stroke-linejoin:round;stroke-miterlimit:4;stroke-dasharray:none;stroke-opacity:1"
         id="path2256" />
      <path
         d="M 203.08196,219.38289 C 202.078,219.62856 201.45402,220.22666 201.06003,221.03803"
         style="fill:#ffffff;fill-rule:evenodd;stroke:#000000;stroke-width:1.20000005;stroke-linecap:round;stroke-linejoin:round;stroke-miterlimit:4;stroke-dasharray:none;stroke-opacity:1"
         id="path3475" />
      <path
         d="M 198.72232,225.14976 C 197.85885,225.32736 197.39404,225.99682 197.27989,227.09887"
         style="fill:#ffffff;fill-rule:evenodd;stroke:#000000;stroke-width:1.20000005;stroke-linecap:round;stroke-linejoin:round;stroke-miterlimit:4;stroke-dasharray:none;stroke-opacity:1"
         id="path3477" />
      <path
         d="M 197.1666,233.37442 L 195.83132,234.81422"
         style="fill:#ffffff;fill-rule:evenodd;stroke:#000000;stroke-width:1.20000005;stroke-linecap:round;stroke-linejoin:round;stroke-miterlimit:4;stroke-dasharray:none;stroke-opacity:1"
         id="path3479" />
      <path
         d="M 203.86552,238.51238 C 203.83987,239.72402 203.17858,239.88658 202.53498,240.07831"
         style="fill:#ffffff;fill-rule:evenodd;stroke:#000000;stroke-width:1.20000005;stroke-linecap:round;stroke-linejoin:round;stroke-miterlimit:4;stroke-dasharray:none;stroke-opacity:1"
         id="path3481" />
      <path
         d="M 206.54958,231.48543 C 206.16133,232.66734 205.60831,233.69643 204.24317,233.97235"
         style="fill:#ffffff;fill-rule:evenodd;stroke:#000000;stroke-width:1.20000005;stroke-linecap:round;stroke-linejoin:round;stroke-miterlimit:4;stroke-dasharray:none;stroke-opacity:1"
         id="path3483" />
      <path
         d="M 210.86281,226.41636 C 210.31282,227.46856 209.54286,228.31674 208.297,228.72357"
         style="fill:#ffffff;fill-rule:evenodd;stroke:#000000;stroke-width:1.20000005;stroke-linecap:round;stroke-linejoin:round;stroke-miterlimit:4;stroke-dasharray:none;stroke-opacity:1"
         id="path3485" />
      <path
         d="M 245.77068,251.06031 C 245.31749,252.95296 244.37589,254.39268 243.2273,255.6404"
         style="fill:#ffffff;fill-rule:evenodd;stroke:#000000;stroke-width:1.20000005;stroke-linecap:round;stroke-linejoin:round;stroke-miterlimit:4;stroke-dasharray:none;stroke-opacity:1"
         id="path3487" />
      <path
         d="M 240.32239,257.3288 C 239.02946,258.29899 239.39435,259.51124 238.42291,260.55831"
         style="fill:#ffffff;fill-rule:evenodd;stroke:#000000;stroke-width:1.20000005;stroke-linecap:round;stroke-linejoin:round;stroke-miterlimit:4;stroke-dasharray:none;stroke-opacity:1"
         id="path3489" />
      <path
         d="M 236.62582,263.15236 C 235.88901,264.47582 234.72779,265.67534 232.96987,266.70065"
         style="fill:#ffffff;fill-rule:evenodd;stroke:#000000;stroke-width:1.20000005;stroke-linecap:round;stroke-linejoin:round;stroke-miterlimit:4;stroke-dasharray:none;stroke-opacity:1"
         id="path2274" />
      <path
         d="M 223.28567,228.51077 C 222.36443,228.7554 220.5693,228.86608 220.10092,229.95861"
         style="fill:#ffffff;fill-rule:evenodd;stroke:#000000;stroke-width:1.20000005;stroke-linecap:round;stroke-linejoin:round;stroke-miterlimit:4;stroke-dasharray:none;stroke-opacity:1"
         id="path3282" />
      <path
         d="M 209.70225,244.16892 C 208.94158,244.62324 208.58002,245.87813 208.51763,246.6449"
         style="fill:#ffffff;fill-rule:evenodd;stroke:#000000;stroke-width:1.20000005;stroke-linecap:round;stroke-linejoin:round;stroke-miterlimit:4;stroke-dasharray:none;stroke-opacity:1"
         id="path3284" />
      <path
         d="M 213.10359,237.80719 C 211.81744,238.22921 211.46694,239.49915 211.17243,240.77124"
         style="fill:#ffffff;fill-rule:evenodd;stroke:#000000;stroke-width:1.20000005;stroke-linecap:round;stroke-linejoin:round;stroke-miterlimit:4;stroke-dasharray:none;stroke-opacity:1"
         id="path3286" />
      <path
         d="M 217.41683,232.73813 C 216.27349,232.82381 215.03908,234.3858 214.85101,235.04534"
         style="fill:#ffffff;fill-rule:evenodd;stroke:#000000;stroke-width:1.20000005;stroke-linecap:round;stroke-linejoin:round;stroke-miterlimit:4;stroke-dasharray:none;stroke-opacity:1"
         id="path3288" />
      <path
         d="M 318.11684,307.10221 C 315.20271,313.50992 318.7334,317.83832 318.7315,323.83"
         style="fill:#ffffff;fill-rule:evenodd;stroke:#000000;stroke-width:1.20000005;stroke-linecap:round;stroke-linejoin:round;stroke-miterlimit:4;stroke-dasharray:none;stroke-opacity:1"
         id="path3524" />
    </g>
    <use
       transform="translate(180,0)"
       id="use4363"
       x="0"
       y="0"
       width="600"
       height="660"
       xlink:href="#g3733" />
  </g>
  <g
     style="display:none"
     id="layer3">
    <path
       d="M 1.5,1.49974 L 1.5,518.99107 C 1.5,557.49556 32.7031,588.7456 71.15,588.7456 C 109.5968,588.7456 191.9032,588.7456 230.35,588.7456 C 268.79691,588.7455 300.00003,619.99554 300.00003,658.5 C 300.00003,619.99554 331.20317,588.7456 369.64997,588.7456 C 408.09687,588.7455 490.40327,588.7456 528.85007,588.7456 C 567.29687,588.7456 598.50007,557.49556 598.50007,518.99107 L 598.50007,1.49974 L 1.5,1.49974 z "
       style="fill:url(#radialGradient11919);fill-opacity:1;fill-rule:evenodd;stroke:none;stroke-width:3.00000024;stroke-linecap:butt;stroke-linejoin:miter;stroke-miterlimit:4;stroke-dasharray:none;stroke-opacity:1"
       id="path2875" />
  </g>
  <g
     id="layer4">
    <path
       d="M 300.00003,658.5 C 300.00003,619.9959 331.20322,588.74628 369.65003,588.74628 C 408.09684,588.74628 490.40321,588.74628 528.85001,588.74628 C 567.29681,588.74628 598.50011,557.49666 598.50011,518.99266 L 598.50011,1.4996809 L 1.5000099,1.4997008 L 1.5,518.99266 C 1.5,557.49666 32.70321,588.74628 71.150019,588.74628 C 109.59684,588.74628 191.90322,588.74628 230.35003,588.74628 C 268.79684,588.74628 300.00003,619.9959 300.00003,658.5 z "
       style="fill:none;fill-opacity:1;fill-rule:nonzero;stroke:#000000;stroke-width:3.00000191;stroke-linecap:round;stroke-linejoin:round;stroke-miterlimit:4;stroke-dasharray:none;stroke-dashoffset:0;stroke-opacity:1"
       id="path1572" />
  </g>
</svg>
