<?xml version="1.0" encoding="UTF-8" standalone="no"?>
<svg
   xmlns:dc="http://purl.org/dc/elements/1.1/"
   xmlns:cc="http://creativecommons.org/ns#"
   xmlns:rdf="http://www.w3.org/1999/02/22-rdf-syntax-ns#"
   xmlns:svg="http://www.w3.org/2000/svg"
   xmlns="http://www.w3.org/2000/svg"
   xmlns:xlink="http://www.w3.org/1999/xlink"
   xmlns:sodipodi="http://sodipodi.sourceforge.net/DTD/sodipodi-0.dtd"
   xmlns:inkscape="http://www.inkscape.org/namespaces/inkscape"
   height="660"
   width="600"
   version="1.0"
   id="svg2"
   sodipodi:version="0.32"
   inkscape:version="0.46"
   sodipodi:docname="blason_ville_fr_Evriguet_(Morbihan).svg"
   sodipodi:docbase="D:\Mes documents\Renaud-Notre Lapin"
   inkscape:export-filename="/Users/olivier/Desktop/Blason Rouge/Blason_Vide_3D.png"
   inkscape:export-xdpi="144"
   inkscape:export-ydpi="144"
   inkscape:output_extension="org.inkscape.output.svg.inkscape">
  <metadata
     id="metadata49">
    <rdf:RDF>
      <cc:Work
         rdf:about="">
        <dc:format>image/svg+xml</dc:format>
        <dc:type
           rdf:resource="http://purl.org/dc/dcmitype/StillImage" />
        <dc:title>Gabarit d'un blason en pointe pour le projet Blasons de Wikipédia</dc:title>
        <dc:date>03-AUG-2006</dc:date>
        <dc:creator>
          <cc:Agent>
            <dc:title>Jérôme BLUM (wagner51)</dc:title>
          </cc:Agent>
        </dc:creator>
        <cc:license
           rdf:resource="http://web.resource.org/cc/PublicDomain" />
        <dc:language>fr</dc:language>
        <dc:subject>
          <rdf:Bag>
            <rdf:li>gabarit modèle blason projet wikipédia</rdf:li>
          </rdf:Bag>
        </dc:subject>
      </cc:Work>
      <cc:License
         rdf:about="http://web.resource.org/cc/PublicDomain">
        <cc:permits
           rdf:resource="http://web.resource.org/cc/Reproduction" />
        <cc:permits
           rdf:resource="http://web.resource.org/cc/Distribution" />
        <cc:permits
           rdf:resource="http://web.resource.org/cc/DerivativeWorks" />
      </cc:License>
    </rdf:RDF>
  </metadata>
  <sodipodi:namedview
     inkscape:window-height="975"
     inkscape:window-width="1280"
     inkscape:pageshadow="2"
     inkscape:pageopacity="0.0"
     guidetolerance="10.0"
     gridtolerance="10.0"
     objecttolerance="10.0"
     borderopacity="1.0"
     bordercolor="#666666"
     pagecolor="#ffffff"
     id="base"
     showgrid="false"
     height="660px"
     inkscape:zoom="1.1590904"
     inkscape:cx="300.00013"
     inkscape:cy="330.00014"
     inkscape:window-x="-4"
     inkscape:window-y="-4"
     inkscape:current-layer="layer3"
     inkscape:object-nodes="true" />
  <desc
     id="desc4">Flag of Canton of Valais (Wallis)</desc>
  <defs
     id="defs6">
    <linearGradient
       id="linearGradient2893">
      <stop
         style="stop-color:white;stop-opacity:0.3137255;"
         offset="0"
         id="stop2895" />
      <stop
         id="stop2897"
         offset="0.19"
         style="stop-color:white;stop-opacity:0.25098041;" />
      <stop
         style="stop-color:#6b6b6b;stop-opacity:0.1254902;"
         offset="0.60000002"
         id="stop2901" />
      <stop
         style="stop-color:black;stop-opacity:0.1254902;"
         offset="1"
         id="stop2899" />
    </linearGradient>
    <radialGradient
       inkscape:collect="always"
       xlink:href="#linearGradient2893"
       id="radialGradient3163"
       gradientUnits="userSpaceOnUse"
       gradientTransform="matrix(1.353218,0,0,1.348928,-77.62935,-85.74693)"
       cx="221.44487"
       cy="226.33101"
       fx="221.44487"
       fy="226.33101"
       r="300" />
  </defs>
  <g
     inkscape:groupmode="layer"
     id="layer3"
     inkscape:label="Fond écu"
     style="display:inline">
    <path
       id="path2855"
       style="fill:#e20909;fill-opacity:1;fill-rule:evenodd;stroke:none;stroke-width:1px;stroke-linecap:butt;stroke-linejoin:miter;stroke-opacity:1"
       d="M 300,658.5 C 300,658.5 598.50001,546.17969 598.50001,260.72817 C 598.50001,-24.723354 598.50001,2.1764765 598.50001,2.1764765 L 1.5,2.1764765 L 1.5,260.72817 C 1.5,546.17969 300,658.5 300,658.5 z"
       sodipodi:nodetypes="cccccc" />
    <path
       sodipodi:nodetypes="cccccc"
       d="M 300,529.39999 C 300,529.39999 419.40001,484.47187 419.40001,370.29126 C 419.40001,256.11065 419.40001,266.87058 419.40001,266.87058 L 180.6,266.87058 L 180.6,370.29126 C 180.6,484.47187 300,529.39999 300,529.39999 z"
       style="fill:#ffffff;fill-opacity:1;fill-rule:evenodd;stroke:#000000;stroke-width:3;stroke-linecap:butt;stroke-linejoin:miter;stroke-opacity:1;stroke-miterlimit:4;stroke-dasharray:none"
       id="path2489" />
  </g>
  <g
     inkscape:groupmode="layer"
     id="layer4"
     inkscape:label="Meubles">
    <path
       style="display:inline;font-size:72px;font-style:normal;font-variant:normal;font-weight:bold;font-stretch:normal;text-align:start;line-height:100%;writing-mode:lr-tb;text-anchor:start;fill:#000000;fill-opacity:1;stroke:#313131;stroke-width:2.50000000000000000;stroke-linecap:butt;stroke-linejoin:miter;stroke-miterlimit:4;stroke-dasharray:none;stroke-opacity:1;font-family:Times New Roman;-inkscape-font-specification:Times New Roman Bold"
       d="M 98.321613,80.676409 L 98.321613,114.78896 L 99.990159,114.78896 C 105.30475,114.78901 109.15681,113.12045 111.54639,109.78332 C 113.93587,106.44627 115.46023,101.52303 116.11947,95.013568 L 118.46777,95.013568 L 118.46777,138.89022 L 116.11947,138.89022 C 115.62502,134.11119 114.58476,130.19731 112.99865,127.14857 C 111.41247,124.09991 109.56882,122.05027 107.46773,120.99966 C 105.36654,119.94914 102.31784,119.42385 98.321613,119.42382 L 98.321613,143.03069 C 98.321568,147.64496 98.517264,150.46707 98.908683,151.49703 C 99.300039,152.52701 100.03131,153.37158 101.10251,154.03074 C 102.17365,154.68993 103.90401,155.01952 106.29354,155.01952 L 111.29921,155.01952 C 119.12691,155.01952 125.39941,153.20679 130.11673,149.58129 C 134.83391,145.95581 138.22249,140.43518 140.28251,133.0194 L 142.56903,133.0194 L 138.79935,159.65438 L 66.372,159.65438 L 66.372,157.36785 L 69.15291,157.36785 C 71.58363,157.36785 73.540563,156.93526 75.023718,156.07008 C 76.09488,155.49331 76.918857,154.50454 77.495649,153.10378 C 77.948817,152.11501 78.17541,149.51949 78.175428,145.31721 L 78.175428,90.193316 C 78.17541,86.403108 78.072414,84.07538 77.866449,83.210133 C 77.454438,81.768256 76.692255,80.65589 75.579909,79.873033 C 74.01435,78.719551 71.872017,78.14277 69.15291,78.142688 L 66.372,78.142688 L 66.372,75.856158 L 136.51284,75.856158 L 136.51284,100.63719 L 134.16449,100.63719 C 132.96968,94.581048 131.29082,90.234585 129.12795,87.597795 C 126.96496,84.961153 123.90596,83.024815 119.95093,81.788776 C 117.64375,81.047278 113.3179,80.676489 106.97332,80.676409 L 98.321613,80.676409 z M 178.72093,161.38473 L 159.25453,116.58111 C 156.90621,111.18412 155.07284,107.76462 153.75448,106.32262 C 152.80693,105.25151 151.40615,104.53053 149.55223,104.15969 L 149.55223,101.87316 L 180.26587,101.87316 L 180.26587,104.15969 C 178.32952,104.15974 177.01115,104.50993 176.31079,105.21025 C 175.32201,106.11668 174.82762,107.18785 174.82764,108.42376 C 174.82762,109.94816 175.73399,112.81146 177.54676,117.01369 L 187.06368,138.70482 L 194.66482,119.98 C 196.84831,114.62421 197.94009,110.83393 197.94013,108.60915 C 197.94009,107.33204 197.47659,106.29177 196.54968,105.48835 C 195.62268,104.68503 193.98502,104.24214 191.63672,104.15969 L 191.63672,101.87316 L 210.54694,101.87316 L 210.54694,104.15969 C 208.73413,104.40693 207.25097,105.08671 206.09749,106.19902 C 204.94387,107.31144 203.21352,110.58674 200.90644,116.02492 L 181.62543,161.38473 L 178.72093,161.38473 z M 239.90106,101.87316 L 239.90106,114.97435 C 243.73251,109.00059 247.09018,105.03521 249.97413,103.07822 C 252.85801,101.12134 255.63891,100.14287 258.31687,100.14281 C 260.62396,100.14287 262.46759,100.85355 263.84781,102.27485 C 265.22791,103.69626 265.91799,105.70469 265.91804,108.30016 C 265.91799,111.06052 265.2485,113.20286 263.90961,114.72716 C 262.57059,116.25155 260.95354,117.01374 259.05846,117.01369 C 256.87488,117.01374 254.97973,116.31336 253.37303,114.91256 C 251.76622,113.51184 250.81867,112.72907 250.53033,112.56423 C 250.11829,112.31709 249.6445,112.19349 249.10896,112.19343 C 247.91416,112.19349 246.7812,112.64667 245.71006,113.55299 C 244.02088,114.9538 242.74372,116.95193 241.87859,119.54742 C 240.56019,123.54372 239.90101,127.95198 239.90106,132.7722 L 239.90106,146.0588 L 239.96284,149.51949 C 239.96281,151.86782 240.107,153.37158 240.39543,154.03074 C 240.88978,155.14312 241.62105,155.95679 242.58925,156.47177 C 243.5574,156.98676 245.19504,157.30605 247.50219,157.42965 L 247.50219,159.65438 L 216.29417,159.65438 L 216.29417,157.42965 C 218.80729,157.22366 220.50674,156.53357 221.39251,155.35941 C 222.27827,154.18525 222.72116,151.08504 222.72118,146.0588 L 222.72118,114.10918 C 222.72116,110.81333 222.55636,108.7122 222.22679,107.80577 C 221.81479,106.65226 221.2174,105.80769 220.43464,105.27205 C 219.65185,104.73652 218.27169,104.36574 216.29417,104.15969 L 216.29417,101.87316 L 239.90106,101.87316 z M 285.94062,73.878619 C 288.61852,73.878706 290.88444,74.815975 292.73842,76.690434 C 294.59232,78.565057 295.51931,80.820685 295.51932,83.457325 C 295.51931,86.094118 294.58202,88.339445 292.7075,90.193316 C 290.83296,92.047327 288.57733,92.974297 285.94062,92.974231 C 283.30389,92.974297 281.05856,92.047327 279.20462,90.193316 C 277.35069,88.339445 276.42369,86.094118 276.42371,83.457325 C 276.42369,80.820685 277.35069,78.565057 279.20462,76.690434 C 281.05856,74.815975 283.30389,73.878706 285.94062,73.878619 L 285.94062,73.878619 z M 294.59236,101.87316 L 294.59236,147.66555 C 294.59232,151.74422 295.06611,154.35005 296.01372,155.483 C 296.96126,156.61598 298.81519,157.26485 301.57554,157.42965 L 301.57554,159.65438 L 270.36751,159.65438 L 270.36751,157.42965 C 272.92183,157.34724 274.81696,156.60567 276.05293,155.20491 C 276.8769,154.25735 277.28887,151.74422 277.2889,147.66555 L 277.2889,113.92378 C 277.28887,109.84516 276.8151,107.23934 275.86753,106.10633 C 274.91997,104.97342 273.0866,104.32454 270.36751,104.15969 L 270.36751,101.87316 L 294.59236,101.87316 z M 344.21625,102.55294 L 363.68262,102.55294 L 363.68262,109.35072 L 352.62081,109.35072 C 354.63942,111.36951 356.04018,113.20286 356.823,114.85076 C 357.81174,117.07553 358.30611,119.40325 358.3062,121.83394 C 358.30611,125.95385 357.16293,129.52783 354.87639,132.55591 C 352.58985,135.58404 349.47936,137.95296 345.54492,139.66269 C 341.61039,141.37246 338.11875,142.22733 335.07009,142.22731 C 334.82286,142.22733 332.35101,142.12434 327.65436,141.91832 C 325.80036,141.91834 324.24516,142.52602 322.98858,143.74137 C 321.732,144.95675 321.10371,146.409 321.10371,148.09813 C 321.10371,149.5813 321.67017,150.79666 322.80318,151.74422 C 323.9361,152.6918 325.77975,153.16558 328.33413,153.16557 L 339.02523,153.04198 C 347.67693,153.04199 353.63007,153.98956 356.88483,155.88469 C 361.54026,158.52141 363.86793,162.57948 363.86802,168.05891 C 363.86793,171.5608 362.79675,174.7434 360.65457,177.60672 C 358.51212,180.47001 355.68999,182.58145 352.18818,183.94103 C 346.8735,185.95973 340.75548,186.96912 333.83412,186.96913 C 328.6431,186.96912 323.90523,186.46441 319.6206,185.45509 C 315.33588,184.4457 312.26661,183.04493 310.4127,181.2528 C 308.5587,179.46065 307.63179,177.57582 307.63179,175.59829 C 307.63179,173.70312 308.34243,172.00369 309.7638,170.49993 C 311.18517,168.99618 313.83216,167.72932 317.70486,166.69936 C 312.34896,164.06264 309.6711,160.39595 309.6711,155.6993 C 309.6711,152.8566 310.76289,150.09628 312.94638,147.41835 C 315.12987,144.74045 318.59064,142.41273 323.32851,140.43516 C 317.80782,138.41646 313.81155,135.75913 311.33961,132.46322 C 308.86776,129.16734 307.63179,125.35647 307.63179,121.03057 C 307.63179,115.38638 309.93885,110.49404 314.55315,106.35352 C 319.16736,102.2131 325.09998,100.14287 332.35101,100.14281 C 336.1824,100.14287 340.13754,100.94624 344.21625,102.55294 L 344.21625,102.55294 z M 333.52515,103.97429 C 331.13556,103.97435 329.11686,105.17941 327.46896,107.58948 C 325.82097,109.99966 324.99702,114.995 324.99702,122.57552 C 324.99702,128.71416 325.81071,132.92673 327.438,135.21323 C 329.06538,137.49978 330.99138,138.64305 333.21618,138.64302 C 335.68803,138.64305 337.74804,137.51008 339.39603,135.24413 C 341.04393,132.97822 341.86788,128.56997 341.86788,122.01934 C 341.86788,114.64481 340.94088,109.61857 339.08697,106.9406 C 337.76856,104.96312 335.91465,103.97435 333.52515,103.97429 L 333.52515,103.97429 z M 329.87907,168.18252 C 325.67679,168.18252 322.89588,168.5327 321.53634,169.23308 C 319.18797,170.51023 318.01383,172.24058 318.01383,174.42412 C 318.01383,176.52525 319.22919,178.43067 321.65991,180.14045 C 324.09063,181.85016 328.66371,182.70504 335.37906,182.70509 C 341.10567,182.70504 345.60666,181.94288 348.88203,180.41853 C 352.15722,178.89417 353.79486,176.75184 353.79495,173.99153 C 353.79486,172.96155 353.48589,172.09639 352.86795,171.39602 C 351.75555,170.16005 350.07669,169.31547 347.83146,168.86229 C 345.58605,168.4091 339.60195,168.18252 329.87907,168.18252 L 329.87907,168.18252 z M 426.22227,101.87316 L 426.22227,147.10936 C 426.22227,151.51764 426.6342,154.26765 427.45824,155.35941 C 428.28219,156.45118 429.9507,157.14125 432.46395,157.42965 L 432.46395,159.65438 L 408.91887,159.65438 L 408.91887,151.92961 C 406.15848,155.22551 403.39818,157.62534 400.63788,159.12909 C 397.87758,160.63284 394.78761,161.38473 391.36815,161.38473 C 388.11348,161.38473 385.21926,160.38565 382.68558,158.38752 C 380.15181,156.38938 378.45234,154.05135 377.58717,151.37343 C 376.722,148.69553 376.28946,144.01948 376.28946,137.34527 L 376.28946,114.41817 C 376.28946,110.05116 375.88779,107.33204 375.08436,106.26082 C 374.28102,105.18971 372.60216,104.48933 370.04787,104.15969 L 370.04787,101.87316 L 393.59295,101.87316 L 393.59295,141.36214 C 393.59286,145.48202 393.78861,148.13934 394.18002,149.33409 C 394.57134,150.52886 395.18937,151.43523 396.03393,152.05321 C 396.87849,152.6712 397.85697,152.98019 398.96937,152.98018 C 400.45248,152.98019 401.79141,152.5888 402.98625,151.80602 C 404.63415,150.73486 406.61163,148.57193 408.91887,145.31721 L 408.91887,114.41817 C 408.91878,110.05116 408.51711,107.33204 407.71377,106.26082 C 406.91034,105.18971 405.23148,104.48933 402.67728,104.15969 L 402.67728,101.87316 L 426.22227,101.87316 z M 489.81258,128.69353 L 458.11008,128.69353 C 458.48088,136.35652 460.52019,142.41273 464.2281,146.86217 C 467.07084,150.28168 470.4903,151.99142 474.48666,151.99141 C 476.95851,151.99142 479.20383,151.30134 481.22262,149.92117 C 483.24132,148.54103 485.4042,146.05881 487.71144,142.4745 L 489.81258,143.83406 C 486.68139,150.21987 483.22071,154.74143 479.43045,157.39874 C 475.64019,160.05606 471.25251,161.38473 466.2675,161.38473 C 457.69815,161.38473 451.20933,158.08883 446.80104,151.49703 C 443.25801,146.1824 441.48645,139.59061 441.48645,131.72163 C 441.48645,122.08117 444.09222,114.40791 449.30394,108.70185 C 454.51548,102.99588 460.62324,100.14287 467.62704,100.14281 C 473.47722,100.14287 478.55493,102.54269 482.86026,107.34229 C 487.1655,112.14199 489.48291,119.25906 489.81258,128.69353 L 489.81258,128.69353 z M 474.61023,124.55306 C 474.61014,117.92011 474.24969,113.36765 473.52879,110.89568 C 472.80771,108.4238 471.68505,106.54927 470.16072,105.27205 C 469.29555,104.53053 468.14202,104.15974 466.70004,104.15969 C 464.55768,104.15974 462.80673,105.21031 461.44719,107.31138 C 459.01647,110.97812 457.80111,116.00437 457.80111,122.39012 L 457.80111,124.55306 L 474.61023,124.55306 z M 519.90822,80.738208 L 519.90822,101.87316 L 533.62737,101.87316 L 533.62737,107.99117 L 519.90822,107.99117 L 519.90822,143.64867 C 519.90822,146.98578 520.06266,149.13841 520.37172,150.10657 C 520.68069,151.07475 521.22654,151.85752 522.00936,152.4549 C 522.79209,153.05228 523.51308,153.35097 524.17233,153.35097 C 526.85019,153.35097 529.38387,151.31164 531.77346,147.23296 L 533.62737,148.59251 C 530.29026,156.50268 524.87262,160.45774 517.37454,160.45774 C 513.70776,160.45774 510.60762,159.43808 508.07385,157.39874 C 505.54017,155.35941 503.92314,153.08319 503.22276,150.57006 C 502.81074,149.16931 502.60473,145.37903 502.60473,139.1992 L 502.60473,107.99117 L 495.06543,107.99117 L 495.06543,105.82824 C 500.25645,102.1616 504.675,98.309527 508.32108,94.27199 C 511.96716,90.234585 515.14974,85.723329 517.86891,80.738208 L 519.90822,80.738208 z"
       id="text2670" />
    <g
       style="display:inline"
       id="g7531"
       transform="matrix(0.55,0,0,0.55,266.73505,382.02274)">
      <g
         transform="translate(-684.39414,-94.790049)"
         style="display:inline"
         inkscape:label="Fond écu"
         id="g7533">
        <g
           id="g12820"
           transform="translate(1400,-5.6023842e-4)" />
        <g
           id="g3645"
           transform="translate(579.7696,-597.72498)">
          <g
             id="g7133"
             transform="translate(109.31832,303.3667)" />
        </g>
        <g
           style="display:inline"
           id="g6129"
           transform="translate(-131.3255,9.2334298)" />
        <g
           transform="translate(700,-2.8023842e-4)"
           style="display:inline"
           inkscape:label="Meubles"
           id="g20265" />
      </g>
      <g
         transform="translate(-684.39414,-94.790049)"
         style="display:inline"
         inkscape:label="Meubles"
         id="g7540">
        <g
           id="g50302"
           transform="translate(3633.7902,816.71031)" />
        <g
           id="g50306"
           transform="translate(2813.5598,218.98589)">
          <g
             id="g50308"
             transform="translate(109.31832,303.3667)" />
        </g>
        <g
           style="display:inline"
           id="g50310"
           transform="translate(2102.4647,825.9443)" />
        <g
           transform="translate(2933.7902,816.71059)"
           style="display:inline"
           inkscape:label="Meubles"
           id="g50312" />
        <g
           id="g4387"
           inkscape:label="Meubles"
           style="display:inline"
           transform="translate(2233.7902,816.71087)" />
        <g
           inkscape:tile-y0="35.930804"
           inkscape:tile-x0="55.51442"
           id="use18536"
           style="fill:#000000;stroke:none;stroke-opacity:1;display:inline"
           transform="matrix(0.6944672,0,0,0.6944672,483.95134,63.551888)">
          <g
             id="g4543"
             style="fill:#000000;fill-opacity:1;stroke:none;stroke-opacity:1">
            <path
               id="path4545"
               style="fill:#000000;fill-opacity:1;fill-rule:evenodd;stroke:none;stroke-width:3;stroke-linecap:round;stroke-linejoin:round;stroke-miterlimit:4;stroke-dasharray:none;stroke-opacity:1"
               d="M 377.12803,135.62208 C 363.02661,205.73306 336.73998,255.37403 308.18363,291.06095 C 320.05424,287.49883 333.39868,277.37136 346.30099,268.51112 C 338.41058,286.89606 330.52017,302.95607 322.62976,319.17879 C 327.34089,317.4313 342.29073,301.0571 362.59516,277.03346 C 365.77841,310.06027 370.08215,347.25496 376.51201,369.64909 C 381.63098,347.29082 385.41835,310.2849 389.48097,276.30682 C 401.72195,291.50121 413.61062,306.87175 430.17301,319.90544 L 406.92042,267.5871 C 418.92697,275.98511 432.19471,287.10163 444.92715,291.7876 C 414.7385,254.31996 389.31682,205.74061 377.12803,135.62208 z" />
            <path
               id="path4547"
               style="fill:#000000;fill-opacity:1;fill-rule:evenodd;stroke:none;stroke-width:3;stroke-linecap:round;stroke-linejoin:round;stroke-miterlimit:4;stroke-dasharray:none;stroke-opacity:1"
               d="M 319.72318,139.69782 C 318.42725,135.61998 300.18538,148.67252 290.12817,121.31047 C 314.11958,148.89422 338.90845,92.268711 358.96194,130.25146 C 365.15076,145.92197 338.0398,173.11186 319.72318,139.69782 z" />
            <path
               id="path4549"
               style="fill:#000000;fill-opacity:1;fill-rule:evenodd;stroke:none;stroke-width:3;stroke-linecap:round;stroke-linejoin:round;stroke-miterlimit:4;stroke-dasharray:none;stroke-opacity:1;display:inline"
               d="M 431.71563,139.34811 C 433.01156,135.27027 451.25343,148.32281 461.31064,120.96076 C 437.31923,148.54451 412.53036,91.919 392.47687,129.90175 C 386.28805,145.57226 413.39901,172.76215 431.71563,139.34811 z" />
            <path
               id="path4551"
               style="fill:#000000;fill-opacity:1;fill-rule:evenodd;stroke:none;stroke-width:3;stroke-linecap:round;stroke-linejoin:round;stroke-miterlimit:4;stroke-dasharray:none;stroke-opacity:1;display:inline"
               d="M 383.38239,79.374824 C 379.68544,77.220552 396.40299,62.265328 371.89381,46.481478 C 393.57969,75.912309 332.91037,87.751712 365.60384,115.60792 C 379.5469,125.06613 411.99605,104.53936 383.38239,79.374824 z" />
          </g>
        </g>
      </g>
      <g
         transform="translate(-684.39414,-94.790049)"
         inkscape:label="Reflet final"
         id="g7554" />
      <g
         transform="translate(-684.39414,-94.790049)"
         inkscape:label="Contour final"
         id="g7556" />
    </g>
    <use
       style="display:inline"
       x="0"
       y="0"
       xlink:href="#g7531"
       id="use7558"
       transform="translate(64,-100)"
       width="600"
       height="660" />
    <use
       style="display:inline"
       x="0"
       y="0"
       xlink:href="#g7531"
       id="use7560"
       transform="translate(-64,-100)"
       width="600"
       height="660" />
  </g>
  <g
     inkscape:groupmode="layer"
     id="layer2"
     inkscape:label="Reflet final"
     sodipodi:insensitive="true">
    <path
       sodipodi:nodetypes="cccccc"
       d="M 300.00001,658.5 C 300.00001,658.5 598.50001,546.17969 598.50001,260.72817 C 598.50001,-24.723334 598.50001,2.1764865 598.50001,2.1764865 L 1.5,2.1764865 L 1.5,260.72817 C 1.5,546.17969 300.00001,658.5 300.00001,658.5 z "
       style="opacity:1;fill:url(#radialGradient3163);fill-opacity:1;fill-rule:evenodd;stroke:none;stroke-width:1px;stroke-linecap:butt;stroke-linejoin:miter;stroke-opacity:1"
       id="path2875"
       inkscape:export-xdpi="144"
       inkscape:export-ydpi="144" />
  </g>
  <g
     inkscape:groupmode="layer"
     id="layer1"
     inkscape:label="Contour final"
     sodipodi:insensitive="true">
    <path
       sodipodi:nodetypes="cccccc"
       d="M 299.99999,658.50028 C 299.99999,658.50028 1.5,546.17992 1.5,260.72828 C 1.5,-24.723336 1.5,2.1764957 1.5,2.1764957 L 598.49999,2.1764957 L 598.49999,260.72828 C 598.49999,546.17992 299.99999,658.50028 299.99999,658.50028 z "
       style="opacity:1;fill:none;fill-opacity:1;fill-rule:evenodd;stroke:#000000;stroke-width:3.00000048;stroke-linecap:butt;stroke-linejoin:miter;stroke-miterlimit:4;stroke-dasharray:none;stroke-opacity:1"
       id="path1411"
       inkscape:export-xdpi="144"
       inkscape:export-ydpi="144" />
  </g>
</svg>
