<?xml version="1.0" encoding="UTF-8" standalone="no"?>
<svg
   xmlns:dc="http://purl.org/dc/elements/1.1/"
   xmlns:cc="http://creativecommons.org/ns#"
   xmlns:rdf="http://www.w3.org/1999/02/22-rdf-syntax-ns#"
   xmlns:svg="http://www.w3.org/2000/svg"
   xmlns="http://www.w3.org/2000/svg"
   xmlns:xlink="http://www.w3.org/1999/xlink"
   xmlns:sodipodi="http://sodipodi.sourceforge.net/DTD/sodipodi-0.dtd"
   xmlns:inkscape="http://www.inkscape.org/namespaces/inkscape"
   width="600"
   height="660"
   viewBox="0 0 600 660"
   id="svg2"
   sodipodi:version="0.32"
   inkscape:version="0.46"
   sodipodi:docname="Blason_Déols-B.svg"
   inkscape:output_extension="org.inkscape.output.svg.inkscape"
   version="1.0">
  <metadata
     id="metadata28">
    <rdf:RDF>
      <cc:Work
         rdf:about="">
        <dc:format>image/svg+xml</dc:format>
        <dc:type
           rdf:resource="http://purl.org/dc/dcmitype/StillImage" />
        <dc:title />
      </cc:Work>
    </rdf:RDF>
  </metadata>
  <sodipodi:namedview
     inkscape:window-height="977"
     inkscape:window-width="1280"
     inkscape:pageshadow="2"
     inkscape:pageopacity="0.0"
     guidetolerance="10.0"
     gridtolerance="10.0"
     objecttolerance="10.0"
     borderopacity="1.0"
     bordercolor="#666666"
     pagecolor="#ffffff"
     id="base"
     showgrid="false"
     inkscape:zoom="1.1863636"
     inkscape:cx="300"
     inkscape:cy="330"
     inkscape:window-x="-4"
     inkscape:window-y="-4"
     inkscape:current-layer="layer4"
     inkscape:object-nodes="true"
     inkscape:window-maximized="1" />
  <defs
     id="defs4">
    <radialGradient
       id="Gradient1"
       gradientUnits="userSpaceOnUse"
       cx="-80"
       cy="-80"
       r="405">
      <stop
         style="stop-color:#fff;stop-opacity:0.31"
         offset="0"
         id="stop7" />
      <stop
         style="stop-color:#fff;stop-opacity:0.25"
         offset="0.19"
         id="stop9" />
      <stop
         style="stop-color:#6b6b6b;stop-opacity:0.125"
         offset="0.6"
         id="stop11" />
      <stop
         style="stop-color:#000;stop-opacity:0.125"
         offset="1"
         id="stop13" />
    </radialGradient>
    <clipPath
       id="shield_cut">
      <path
         id="shield"
         d="M -298.5,-298.5 L 298.5,-298.5 L 298.5,-40 C 298.5,246.31 0,358.5 0,358.5 C 0,358.5 -298.5,246.31 -298.5,-40 L -298.5,-298.5 z" />
    </clipPath>
  </defs>
  <g
     id="layer4"
     inkscape:label="Fond écu"
     inkscape:groupmode="layer"
     transform="translate(300,300)">
    <use
       xlink:href="#shield"
       id="use18"
       style="fill:#e20909"
       x="0"
       y="0"
       width="600"
       height="660" />
    <rect
       style="fill:#ffffff;fill-opacity:1;fill-rule:nonzero;stroke:#000000;stroke-opacity:1;stroke-width:3"
       id="rect2842"
       width="597"
       height="192"
       x="-298.5"
       y="-298.5" />
    <path
       style="fill:#fcef3c;stroke:#000000;stroke-width:3;stroke-opacity:1"
       d="M -298.5,-48.5625 L -298.5,-40 C -298.5,-21.43964 -297.25246,-3.61378 -294.90625,13.5 L 294.9062,13.5 C 297.2525,-3.61378 298.5,-21.43964 298.5,-40 L 298.5,-48.5625 L -298.5,-48.5625 z M -282.1875,71.4375 C -275.44911,93.53389 -266.88038,114.20006 -256.9375,133.5 L 256.9375,133.5 C 266.8804,114.20006 275.4491,93.53389 282.1875,71.4375 L -282.1875,71.4375 z M -220.4375,191.4375 C -202.88052,214.75065 -183.61686,235.39002 -164,253.5 L 164,253.5 C 183.6169,235.39002 202.8805,214.75065 220.4375,191.4375 L -220.4375,191.4375 z"
       id="path4220" />
  </g>
  <g
     id="layer3"
     inkscape:label="Meubles"
     inkscape:groupmode="layer"
     transform="translate(300,300)">
    <g
       id="g12065"
       transform="matrix(1.4349644,0,0,1.331,6.69419,88.38084)">
      <path
         sodipodi:nodetypes="ccccc"
         id="path13617"
         d="M -76.127812,-167.26913 L 67.096491,-167.26913 L 65.717173,-181.41477 L -74.747344,-181.41477 L -76.127812,-167.26913 z"
         style="fill:#fcef3c;fill-opacity:1;stroke:#000000;stroke-width:1.5;stroke-linecap:round;stroke-linejoin:round;stroke-miterlimit:4;stroke-dasharray:none;stroke-opacity:1" />
      <g
         id="g9781"
         transform="matrix(0.5747156,0,0,0.5864445,-15.553936,-234.02897)"
         style="stroke-width:2.58375478">
        <path
           d="M -8.0629947e-15,122.07031 C -12.941,122.07031 -37.617,121.11331 -60.859,119.32631 C -84.314,117.52331 -105.398,113.83831 -105.398,113.83831 C -105.398,113.83831 -110.32,107.35331 -109.602,104.29331 C -109.008,101.75631 -102.996,98.925312 -102.996,98.925312 C -102.996,98.925312 -82.416,102.49231 -59.781,104.23231 C -36.93,105.99031 -12.25,106.94131 -9.5756732e-16,106.94131 L 38.415,106.94131 C 50.256,106.94131 75.543,105.99031 98.194,104.23231 C 120.647,102.49231 141.411,98.925312 141.411,98.925312 C 141.411,98.925312 147.084,102.74231 147.534,105.42731 C 147.989,108.16431 143.811,113.83831 143.811,113.83831 C 143.811,113.83831 122.542,117.52131 99.272,119.32631 C 76.204,121.11531 50.973,122.07031 38.415,122.07031 L -8.0629947e-15,122.07031 z"
           style="fill:#fcef3c;stroke:#000000;stroke-width:2.58375478;stroke-linecap:butt;stroke-linejoin:miter;stroke-miterlimit:4;stroke-dasharray:none;stroke-opacity:1"
           id="path9783" />
      </g>
      <path
         style="fill:#fcef3c;fill-opacity:1;stroke:#000000;stroke-width:1.5;stroke-linecap:round;stroke-linejoin:round;stroke-miterlimit:4;stroke-dasharray:none;stroke-opacity:1"
         d="M -80.74682,-186.39773 L -80.74682,-186.39773 L -77.58629,-170.51582 L -4.51268,-179.51582 L 68.56095,-170.51582 L 71.72698,-186.39773 L -6.02909,-203.19091 L -80.74682,-186.39773 z"
         id="path11933"
         sodipodi:nodetypes="cccccccc" />
      <g
         id="g11935"
         transform="matrix(0.5864445,0,0,-0.5864445,-15.77622,-252.3309)"
         style="stroke-width:2.5577867">
        <path
           d="M -1.7152946e-14,-122.07031 C -12.941,-122.07031 -37.617,-123.02731 -60.859,-124.81431 C -84.314,-126.61731 -105.398,-130.30231 -105.398,-130.30231 C -105.398,-130.30231 -110.32,-136.78731 -109.602,-139.84731 C -109.008,-142.38431 -102.996,-145.21531 -102.996,-145.21531 C -102.996,-145.21531 -82.416,-141.64831 -59.781,-139.90831 C -36.93,-138.15031 -12.25,-137.19931 -1.0047518e-14,-137.19931 L 38.415,-137.19931 C 50.256,-137.19931 75.543,-138.15031 98.194,-139.90831 C 120.647,-141.64831 141.411,-145.21531 141.411,-145.21531 C 141.411,-145.21531 147.084,-141.39831 147.534,-138.71331 C 147.989,-135.97631 143.811,-130.30231 143.811,-130.30231 C 143.811,-130.30231 122.542,-126.61931 99.272,-124.81431 C 76.204,-123.02531 50.973,-122.07031 38.415,-122.07031 L -1.7152946e-14,-122.07031 z"
           style="fill:#fcef3c;stroke:#000000;stroke-width:2.5577867;stroke-linecap:butt;stroke-linejoin:miter;stroke-miterlimit:4;stroke-dasharray:none;stroke-opacity:1"
           id="path11937" />
      </g>
      <g
         transform="matrix(1.237005,0,0,1.237005,1.1056874,49.729959)"
         id="g12051">
        <path
           style="fill:#fcef3c;fill-rule:evenodd;stroke:#000000;stroke-width:1.5;stroke-linecap:butt;stroke-linejoin:miter;stroke-miterlimit:4;stroke-dasharray:none;stroke-opacity:1"
           d="M -4.64585,-225.73032 C -5.18883,-225.72366 -5.73749,-225.38163 -5.75565,-224.72821 C -6.25562,-218.26049 -8.90262,-209.79598 -18.72771,-207.97018 C -28.47271,-206.15926 -37.06486,-218.30801 -37.42881,-223.78155 C -37.42342,-224.59866 -38.08457,-224.91585 -38.75279,-224.88061 C -39.51008,-224.84069 -40.27871,-224.34914 -40.09138,-223.62453 C -38.6379,-216.15125 -40.1595,-206.63226 -46.90594,-204.93104 C -53.62407,-203.23696 -60.96381,-211.18756 -66.19604,-221.0985 C -66.68063,-222.97238 -69.4703,-222.23817 -68.93648,-220.86299 C -64.6731,-210.55869 -66.11352,-201.6894 -69.18471,-200.16016 L -66.94079,-197.7696 L -46.40946,-201.93398 L -18.30905,-204.97313 L 8.98328,-204.97313 L 37.0788,-201.93398 L 57.61013,-197.7696 L 59.85893,-200.16016 C 56.78778,-201.6894 55.34248,-210.55869 59.60579,-220.86299 C 60.13965,-222.23817 57.34997,-222.97238 56.86539,-221.0985 C 51.6331,-211.18756 44.29825,-203.23696 37.58013,-204.93104 C 30.83368,-206.63226 29.30721,-216.15125 30.76068,-223.62453 C 31.11332,-224.98849 28.09148,-225.52472 28.10303,-223.78155 C 27.73909,-218.30801 19.14205,-206.15926 9.39701,-207.97018 C -0.42804,-209.79598 -3.07007,-218.26049 -3.57012,-224.72821 C -3.56568,-225.40829 -4.10291,-225.73698 -4.64585,-225.73032 z"
           id="path11939"
           sodipodi:nodetypes="ccscscsccccccccccccsccscc" />
        <path
           sodipodi:nodetypes="ccscscscccccscscscscccccsccscc"
           id="path11942"
           d="M -4.64585,-225.73032 C -5.18883,-225.72366 -5.73749,-225.38163 -5.75565,-224.72821 C -6.25562,-218.26049 -8.90262,-209.79598 -18.72771,-207.97018 C -28.47271,-206.15926 -37.06486,-218.30801 -37.42881,-223.78155 C -37.42342,-224.59866 -38.08457,-224.91585 -38.75279,-224.88061 C -39.51008,-224.84069 -40.27871,-224.34914 -40.09138,-223.62453 C -38.6379,-216.15125 -40.1595,-206.63226 -46.90594,-204.93104 C -53.62407,-203.23696 -60.96381,-211.18756 -66.19604,-221.0985 C -66.68063,-222.97238 -69.4703,-222.23817 -68.93648,-220.86299 C -64.6731,-210.55869 -66.11352,-201.6894 -69.18471,-200.16016 L -66.94079,-197.95279 C -63.37251,-200.35758 -63.04368,-206.30957 -63.368,-211.55781 C -59.00289,-206.13745 -52.36569,-200.54558 -46.40946,-201.93398 C -40.37488,-203.34066 -37.74086,-208.65878 -36.93232,-215.42304 C -33.60711,-209.29196 -26.75443,-203.89931 -18.30905,-204.97313 C -10.19565,-206.00474 -5.535,-213.43842 -4.66533,-216.41589 C -3.79565,-213.43842 0.86985,-206.00474 8.98328,-204.97313 C 17.42865,-203.89931 24.27646,-209.29196 27.60166,-215.42304 C 28.41021,-208.65878 31.04417,-203.34066 37.0788,-201.93398 C 43.035,-200.54558 49.67219,-206.13745 54.03735,-211.55781 C 53.71299,-206.30957 54.04182,-200.35758 57.61013,-197.95279 L 59.85893,-200.16016 C 56.78778,-201.6894 55.34248,-210.55869 59.60579,-220.86299 C 60.13965,-222.23817 57.34997,-222.97238 56.86539,-221.0985 C 51.6331,-211.18756 44.29825,-203.23696 37.58013,-204.93104 C 30.83368,-206.63226 29.30721,-216.15125 30.76068,-223.62453 C 31.11332,-224.98849 28.09148,-225.52472 28.10303,-223.78155 C 27.73909,-218.30801 19.14205,-206.15926 9.39701,-207.97018 C -0.42804,-209.79598 -3.07007,-218.26049 -3.57012,-224.72821 C -3.56568,-225.40829 -4.10291,-225.73698 -4.64585,-225.73032 z"
           style="fill:#fcef3c;fill-rule:evenodd;stroke:#000000;stroke-width:1.5;stroke-linecap:butt;stroke-linejoin:miter;stroke-miterlimit:4;stroke-dasharray:none;stroke-opacity:1" />
        <path
           transform="matrix(0.1557617,0,0,0.1486297,-464.21567,-431.33261)"
           d="M 3198.0512,1390.3806 A 29.462782,29.462782 0 1 1 3139.1256,1390.3806 A 29.462782,29.462782 0 1 1 3198.0512,1390.3806 z"
           sodipodi:ry="29.462782"
           sodipodi:rx="29.462782"
           sodipodi:cy="1390.3806"
           sodipodi:cx="3168.5884"
           id="path11960"
           style="fill:#fcef3c;fill-opacity:1;fill-rule:evenodd;stroke:#000000;stroke-width:9.85843849;stroke-linecap:round;stroke-linejoin:round;marker:none;marker-start:none;marker-mid:none;marker-end:none;stroke-miterlimit:4;stroke-dasharray:none;stroke-dashoffset:0;stroke-opacity:1;visibility:visible;display:inline;overflow:visible;enable-background:accumulate"
           sodipodi:type="arc" />
        <path
           sodipodi:type="arc"
           style="fill:#fcef3c;fill-opacity:1;fill-rule:evenodd;stroke:#000000;stroke-width:9.85843849;stroke-linecap:round;stroke-linejoin:round;marker:none;marker-start:none;marker-mid:none;marker-end:none;stroke-miterlimit:4;stroke-dasharray:none;stroke-dashoffset:0;stroke-opacity:1;visibility:visible;display:inline;overflow:visible;enable-background:accumulate"
           id="path11962"
           sodipodi:cx="3168.5884"
           sodipodi:cy="1390.3806"
           sodipodi:rx="29.462782"
           sodipodi:ry="29.462782"
           d="M 3198.0512,1390.3806 A 29.462782,29.462782 0 1 1 3139.1256,1390.3806 A 29.462782,29.462782 0 1 1 3198.0512,1390.3806 z"
           transform="matrix(-0.1557617,0,0,0.1486297,454.88513,-431.33261)" />
        <path
           id="path11964"
           d="M -4.70422,-264.03688 C -7.44186,-261.00554 -10.23259,-257.59831 -10.3834,-253.12058 C -12.5783,-255.46583 -14.77445,-253.8257 -16.96932,-253.40543 C -15.86663,-251.8839 -17.00062,-247.71397 -15.50687,-244.87028 C -17.10456,-244.74152 -17.82589,-243.2963 -18.7974,-242.43667 C -18.14329,-239.94237 -10.6785,-239.58935 -9.37921,-235.03088 C -17.5067,-235.86172 -14.93267,-241.35992 -23.09699,-241.81277 C -24.40195,-234.92042 -19.2026,-236.8138 -18.7974,-233.062 C -21.27978,-232.58479 -21.89967,-235.15519 -24.06222,-235.05087 C -27.09315,-234.90465 -28.40481,-231.50665 -30.32153,-230.34355 C -27.36687,-229.51844 -26.25696,-226.63426 -23.29199,-225.93605 C -21.68961,-225.55871 -20.93506,-228.46351 -18.43178,-227.15536 C -20.88689,-223.66538 -23.86483,-224.69076 -22.62174,-219.74958 C -13.32914,-218.90879 -16.59798,-225.39974 -10.3834,-224.4369 C -19.77006,-218.51653 -14.61284,-216.26662 -16.96932,-211.68416 C -12.13371,-213.70513 -10.39435,-212.32232 -4.66523,-216.5314 C 1.06389,-212.32232 2.80328,-213.70513 7.63887,-211.68416 C 5.28238,-216.26662 10.43961,-218.51653 1.05296,-224.4369 C 7.26753,-225.39974 4.13094,-218.90879 13.42353,-219.74958 C 14.66662,-224.69076 11.55644,-223.66538 9.10133,-227.15536 C 11.60461,-228.46351 12.35916,-225.55871 13.96153,-225.93605 C 16.92651,-226.63426 18.03639,-229.51844 20.99107,-230.34355 C 19.07436,-231.50665 17.76271,-234.90465 14.73177,-235.05087 C 12.56922,-235.15519 11.94932,-232.58479 9.46695,-233.062 C 9.87216,-236.8138 15.0715,-234.92042 13.76654,-241.81277 C 5.60221,-241.35992 8.17622,-235.86172 0.04875,-235.03088 C 1.34805,-239.58935 8.81284,-239.94237 9.46695,-242.43667 C 8.49544,-243.2963 7.77411,-244.74152 6.17642,-244.87028 C 7.67017,-247.71397 6.53619,-251.8839 7.63887,-253.40543 C 5.44399,-253.8257 3.24785,-255.46583 1.05296,-253.12058 C 0.90214,-257.59831 -1.88858,-261.00554 -4.62623,-264.03688 L -4.66523,-264.07685 L -4.70422,-264.03688 z"
           style="fill:#fcef3c;fill-rule:evenodd;stroke:#000000;stroke-width:1.5;stroke-linecap:butt;stroke-linejoin:miter;stroke-miterlimit:4;stroke-dasharray:none;stroke-opacity:1"
           sodipodi:nodetypes="ccccccccscscccccccccscscccccccccc" />
        <path
           sodipodi:type="arc"
           style="fill:#fcef3c;fill-opacity:1;fill-rule:evenodd;stroke:#000000;stroke-width:7.49787617;stroke-linecap:round;stroke-linejoin:round;marker:none;marker-start:none;marker-mid:none;marker-end:none;stroke-miterlimit:4;stroke-dasharray:none;stroke-dashoffset:0;stroke-opacity:1;visibility:visible;display:inline;overflow:visible;enable-background:accumulate"
           id="path11966"
           sodipodi:cx="2962.3679"
           sodipodi:cy="81.516876"
           sodipodi:rx="27.554184"
           sodipodi:ry="27.554184"
           d="M 2989.9221,81.516876 A 27.554184,27.554184 0 1 1 2934.8137,81.516876 A 27.554184,27.554184 0 1 1 2989.9221,81.516876 z"
           transform="matrix(0.2045799,0,0,0.1956334,-610.57354,-246.05411)" />
        <path
           sodipodi:nodetypes="cccccccczcccccccccccccccccccc"
           id="path11968"
           d="M -78.91894,-253.377 C -73.36931,-255.26137 -69.96196,-250.18547 -69.68111,-245.98327 C -67.01952,-246.70272 -64.35118,-247.3455 -61.54781,-246.45092 C -63.26002,-242.88824 -61.69543,-240.90287 -63.60167,-238.26703 C -60.23521,-237.99585 -60.99,-237.28707 -59.16535,-236.63025 C -64.32464,-232.40898 -68.84564,-233.29588 -69.18817,-228.6802 C -60.98241,-229.28405 -62.42709,-236.11729 -53.57885,-236.28084 C -52.97237,-229.38272 -57.53915,-232.19008 -58.75457,-227.82284 C -54.55569,-228.3637 -53.99929,-230.63172 -51.47237,-230.98888 C -48.94543,-231.34605 -46.59182,-228.71142 -43.88463,-227.12137 C -48.73749,-225.32051 -49.25338,-221.60122 -51.65811,-221.92423 C -53.87216,-222.18068 -54.14225,-223.80345 -56.78286,-222.67869 C -54.44282,-220.69836 -50.42772,-220.98882 -49.30682,-216.67717 C -55.10849,-214.82074 -59.15996,-219.17845 -64.91614,-219.32719 C -50.77564,-215.62504 -55.9234,-210.88224 -50.86775,-207.91005 C -54.7379,-208.31899 -57.90667,-207.92183 -65.08045,-211.84478 C -64.87901,-209.97477 -67.48633,-208.51371 -68.69525,-206.15504 C -69.44337,-209.87601 -73.30245,-211.72132 -72.5565,-217.53453 C -74.02395,-217.36789 -72.50222,-213.29625 -74.91086,-213.16979 C -76.94595,-214.83477 -76.29922,-217.07931 -76.33561,-218.62572 C -77.51315,-219.97671 -75.89207,-216.17333 -80.8541,-222.21104 C -81.29293,-222.8377 -80.58377,-226.74836 -80.03256,-227.04343 C -79.62752,-226.07127 -79.24469,-225.05698 -78.30731,-225.09488 C -78.63468,-226.53327 -78.97986,-227.96038 -79.9504,-228.99196 C -80.46522,-229.29984 -80.37963,-231.2968 -80.11471,-233.00729 C -78.35084,-230.95328 -79.58931,-228.44093 -76.66424,-227.90079 C -76.83848,-233.10741 -81.51842,-231.50723 -78.8824,-236.47437 C -79.2384,-239.15037 -79.31819,-247.63898 -77.40361,-244.34648 C -77.56922,-248.82399 -75.38687,-251.98748 -78.91894,-253.377 z"
           style="fill:#fcef3c;fill-rule:evenodd;stroke:#000000;stroke-width:1.5;stroke-linecap:round;stroke-linejoin:round;stroke-miterlimit:4;stroke-dasharray:none;stroke-opacity:1" />
        <g
           transform="matrix(-0.1165109,7.5009944e-2,7.4979188e-2,0.1305142,82.60657,-449.11594)"
           id="g11970"
           style="fill:#fcef3c;stroke:#000000;stroke-width:10.39300823;stroke-miterlimit:4;stroke-dasharray:none;stroke-opacity:1">
          <path
             sodipodi:type="arc"
             style="opacity:1;fill:#fcef3c;fill-opacity:1;fill-rule:evenodd;stroke:#000000;stroke-width:6.94618464;stroke-linecap:round;stroke-linejoin:round;marker:none;marker-start:none;marker-mid:none;marker-end:none;stroke-miterlimit:4;stroke-dasharray:none;stroke-dashoffset:0;stroke-opacity:1;visibility:visible;display:inline;overflow:visible;enable-background:accumulate"
             id="path11972"
             sodipodi:cx="1773.2821"
             sodipodi:cy="707.07074"
             sodipodi:rx="23.065676"
             sodipodi:ry="23.065676"
             d="M 1796.3478,707.07074 A 23.065676,23.065676 0 1 1 1750.2164,707.07074 A 23.065676,23.065676 0 1 1 1796.3478,707.07074 z"
             transform="matrix(1.4204792,0,0,1.5759959,-739.78842,-411.12132)" />
        </g>
        <path
           style="fill:#fcef3c;fill-rule:evenodd;stroke:#000000;stroke-width:1.5;stroke-linecap:round;stroke-linejoin:round;stroke-miterlimit:4;stroke-dasharray:none;stroke-opacity:1"
           d="M 69.58845,-253.377 C 64.03881,-255.26137 60.63147,-250.18547 60.35061,-245.98327 C 57.68902,-246.70272 55.02069,-247.3455 52.21731,-246.45092 C 53.92953,-242.88824 52.36493,-240.90287 54.27117,-238.26703 C 50.90472,-237.99585 51.6595,-237.28707 49.83485,-236.63025 C 54.99415,-232.40898 59.51514,-233.29588 59.85767,-228.6802 C 51.52303,-231.11564 54.86931,-232.98156 50.98501,-235.14937 C 49.19651,-236.18053 47.0472,-236.8694 44.24835,-236.94202 C 43.64188,-230.04392 48.20865,-232.19008 49.42407,-227.82284 C 45.22519,-228.3637 44.6688,-230.63172 42.14188,-230.98888 C 39.61494,-231.34605 37.26132,-228.71142 34.55413,-227.12137 C 39.40699,-225.32051 39.92288,-221.60122 42.32762,-221.92423 C 44.54166,-222.18068 44.81175,-223.80345 47.45236,-222.67869 C 45.11233,-220.69836 41.09723,-220.98882 39.97632,-216.67717 C 45.77799,-214.82074 49.82946,-219.17845 55.58564,-219.32719 C 41.44514,-215.62504 46.59291,-211.54343 41.53726,-208.57123 C 45.4074,-208.98017 48.57617,-207.92183 55.74996,-211.84478 C 55.54851,-209.97477 58.15584,-208.51371 59.36475,-206.15504 C 60.11288,-209.87601 63.97195,-211.72132 63.226,-217.53453 C 64.69345,-217.36789 62.3783,-213.29625 64.78694,-213.16979 C 66.82204,-214.83477 66.96873,-217.07931 67.00511,-218.62572 C 68.18266,-219.97671 66.56158,-216.17333 71.5236,-222.21104 C 71.96243,-222.8377 71.25328,-226.74836 70.70206,-227.04343 C 70.29703,-226.07127 69.91419,-225.05698 68.97682,-225.09488 C 69.30418,-226.53327 69.64937,-227.96038 70.6199,-228.99196 C 71.13473,-229.29984 71.04914,-231.95798 70.78421,-233.66847 C 69.02034,-231.61446 70.25881,-228.44093 67.33374,-227.90079 C 67.50799,-233.10741 72.18793,-231.50723 69.55191,-236.47437 C 69.9079,-239.15037 69.98769,-247.63898 68.07312,-244.34648 C 68.23873,-248.82399 66.05638,-251.98748 69.58845,-253.377 z"
           id="path11974"
           sodipodi:nodetypes="ccccccccczcccccccccccccccccccc" />
        <g
           id="g11976"
           transform="matrix(0.1165109,7.5009944e-2,-7.4979188e-2,0.1305142,-91.93707,-449.11594)"
           style="fill:#fcef3c;stroke:#000000;stroke-width:10.39300823;stroke-miterlimit:4;stroke-dasharray:none;stroke-opacity:1">
          <path
             transform="matrix(1.4060458,0,0,1.5599823,-714.41203,-399.22251)"
             d="M 1796.3478,707.07074 A 23.065676,23.065676 0 1 1 1750.2164,707.07074 A 23.065676,23.065676 0 1 1 1796.3478,707.07074 z"
             sodipodi:ry="23.065676"
             sodipodi:rx="23.065676"
             sodipodi:cy="707.07074"
             sodipodi:cx="1773.2821"
             id="path11978"
             style="opacity:1;fill:#fcef3c;fill-opacity:1;fill-rule:evenodd;stroke:#000000;stroke-width:7.01748848;stroke-linecap:round;stroke-linejoin:round;marker:none;marker-start:none;marker-mid:none;marker-end:none;stroke-miterlimit:4;stroke-dasharray:none;stroke-dashoffset:0;stroke-opacity:1;visibility:visible;display:inline;overflow:visible;enable-background:accumulate"
             sodipodi:type="arc" />
        </g>
      </g>
      <g
         transform="matrix(0.5864445,0,0,-0.5864445,-16.54934,-274.6713)"
         id="g11980"
         style="stroke-width:2.5577867">
        <path
           id="path11982"
           style="fill:#fcef3c;stroke:#000000;stroke-width:2.5577867;stroke-linecap:butt;stroke-linejoin:miter;stroke-miterlimit:4;stroke-dasharray:none;stroke-opacity:1"
           d="M 7.2164497e-16,-122.07031 C -7.25,-122.07031 -34.908,-122.81031 -61.52,-126.25831 C -88.133,-129.70731 -112.844,-135.79131 -112.844,-135.79131 C -112.844,-135.79131 -117.707,-141.39831 -117.146,-144.19331 C -116.546,-147.18131 -109.469,-150.52331 -109.469,-150.52331 C -109.469,-150.52331 -85.328,-144.59931 -59.711,-141.27931 C -34.094,-137.95931 -6.189,-137.16431 2.2037927e-14,-137.16431 L 40.989,-137.16431 C 46.95,-137.16431 74.354,-137.95731 100.038,-141.27931 C 125.721,-144.60131 150.528,-150.52331 150.528,-150.52331 C 150.528,-150.52331 157.002,-147.45131 157.653,-144.71131 C 158.329,-141.86331 153.797,-135.79131 153.797,-135.79131 C 153.797,-135.79131 128.499,-129.70531 101.848,-126.25831 C 75.196,-122.81031 48.045,-122.07031 40.989,-122.07031 L 7.2164497e-16,-122.07031 z" />
      </g>
      <path
         sodipodi:type="arc"
         style="fill:#fcef3c;fill-opacity:1;fill-rule:evenodd;stroke:#000000;stroke-width:6.82248783;stroke-linecap:round;stroke-linejoin:round;marker:none;marker-start:none;marker-mid:none;marker-end:none;stroke-miterlimit:4;stroke-dasharray:none;stroke-dashoffset:0;stroke-opacity:1;visibility:visible;display:inline;overflow:visible;enable-background:accumulate"
         id="path11984"
         sodipodi:cx="1773.2821"
         sodipodi:cy="707.07074"
         sodipodi:rx="23.065676"
         sodipodi:ry="23.065676"
         d="M 1796.3478,707.07074 A 23.065676,23.065676 0 1 1 1750.2164,707.07074 A 23.065676,23.065676 0 1 1 1796.3478,707.07074 z"
         transform="matrix(0.2142983,0,0,0.2255684,-354.22796,-346.35498)" />
      <path
         transform="matrix(-0.2142983,0,0,0.2255684,344.89747,-346.35498)"
         d="M 1796.3478,707.07074 A 23.065676,23.065676 0 1 1 1750.2164,707.07074 A 23.065676,23.065676 0 1 1 1796.3478,707.07074 z"
         sodipodi:ry="23.065676"
         sodipodi:rx="23.065676"
         sodipodi:cy="707.07074"
         sodipodi:cx="1773.2821"
         id="path11986"
         style="fill:#fcef3c;fill-opacity:1;fill-rule:evenodd;stroke:#000000;stroke-width:6.82248783;stroke-linecap:round;stroke-linejoin:round;marker:none;marker-start:none;marker-mid:none;marker-end:none;stroke-miterlimit:4;stroke-dasharray:none;stroke-dashoffset:0;stroke-opacity:1;visibility:visible;display:inline;overflow:visible;enable-background:accumulate"
         sodipodi:type="arc" />
      <rect
         rx="5.3473678"
         ry="5.2861848"
         y="-192.56801"
         x="-15.121241"
         height="10.57237"
         width="20.912001"
         id="rect11988"
         style="fill:#fcef3c;fill-opacity:1;fill-rule:nonzero;stroke:#000000;stroke-width:1.5;stroke-linecap:butt;stroke-linejoin:miter;marker:none;marker-start:none;marker-mid:none;marker-end:none;stroke-miterlimit:4;stroke-dasharray:none;stroke-dashoffset:0;stroke-opacity:1;visibility:visible;display:inline;overflow:visible;enable-background:accumulate" />
      <g
         style="fill:#fcef3c;stroke:#000000;stroke-width:8.24787712;stroke-miterlimit:4;stroke-dasharray:none;stroke-opacity:1"
         transform="matrix(-0.1778813,5.3841512e-2,5.6751553e-2,0.1687602,249.68389,-410.79302)"
         id="g11990">
        <path
           id="path11992"
           d="M 2069.7188,730.78125 C 2100.1543,726.58933 2099.9188,679.7937 2069.7188,673.78125 C 2068.3983,692.464 2068.5946,713.02654 2069.7188,730.78125 z"
           style="opacity:1;fill:#fcef3c;fill-opacity:1;fill-rule:nonzero;stroke:#000000;stroke-width:8.24787712;stroke-linecap:butt;stroke-linejoin:miter;marker:none;marker-start:none;marker-mid:none;marker-end:none;stroke-miterlimit:4;stroke-dasharray:none;stroke-dashoffset:0;stroke-opacity:1;visibility:visible;display:inline;overflow:visible;enable-background:accumulate"
           sodipodi:nodetypes="ccc" />
      </g>
      <g
         style="fill:#fcef3c;stroke:#000000;stroke-width:8.24787903;stroke-miterlimit:4;stroke-dasharray:none;stroke-opacity:1"
         transform="matrix(-0.1803529,4.5847411e-2,4.8325385e-2,0.1711049,258.71103,-395.91784)"
         id="g11994">
        <path
           sodipodi:nodetypes="ccc"
           id="path11996"
           d="M 2042.9551,674.40063 C 2068.1076,682.18138 2066.5129,724.06415 2042.9551,732.3797 C 2026.6088,728.90772 2028.8882,674.66099 2042.9551,674.40063 z"
           style="fill:#fcef3c;fill-opacity:1;fill-rule:evenodd;stroke:#000000;stroke-width:8.24787903;stroke-linecap:round;stroke-linejoin:round;marker:none;marker-start:none;marker-mid:none;marker-end:none;stroke-miterlimit:4;stroke-dasharray:none;stroke-dashoffset:0;stroke-opacity:1;visibility:visible;display:inline;overflow:visible;enable-background:accumulate" />
      </g>
      <g
         style="fill:#fcef3c;stroke:#000000;stroke-width:8.24787712;stroke-miterlimit:4;stroke-dasharray:none;stroke-opacity:1"
         id="g11998"
         transform="matrix(0.1778813,5.3841512e-2,-5.6751553e-2,0.1687602,-259.01443,-410.79302)">
        <path
           style="opacity:1;fill:#fcef3c;fill-opacity:1;fill-rule:nonzero;stroke:#000000;stroke-width:8.24787712;stroke-linecap:butt;stroke-linejoin:miter;marker:none;marker-start:none;marker-mid:none;marker-end:none;stroke-miterlimit:4;stroke-dasharray:none;stroke-dashoffset:0;stroke-opacity:1;visibility:visible;display:inline;overflow:visible;enable-background:accumulate"
           d="M 2069.7188,730.78125 C 2100.1543,726.58933 2099.9188,679.7937 2069.7188,673.78125 C 2070.1767,692.36002 2068.0109,713.31968 2069.7188,730.78125 z"
           id="path12000"
           sodipodi:nodetypes="ccc" />
      </g>
      <g
         style="fill:#fcef3c;stroke:#000000;stroke-width:8.24787903;stroke-miterlimit:4;stroke-dasharray:none;stroke-opacity:1"
         id="g12002"
         transform="matrix(0.1803529,4.5847411e-2,-4.8325385e-2,0.1711049,-268.04158,-395.91784)">
        <path
           style="fill:#fcef3c;fill-opacity:1;fill-rule:evenodd;stroke:#000000;stroke-width:8.24787903;stroke-linecap:round;stroke-linejoin:round;marker:none;marker-start:none;marker-mid:none;marker-end:none;stroke-miterlimit:4;stroke-dasharray:none;stroke-dashoffset:0;stroke-opacity:1;visibility:visible;display:inline;overflow:visible;enable-background:accumulate"
           d="M 2042.9551,674.40063 C 2068.1076,682.18138 2066.5129,724.06415 2042.9551,732.3797 C 2026.6088,728.90772 2028.8882,674.66099 2042.9551,674.40063 z"
           id="path12004"
           sodipodi:nodetypes="ccc" />
      </g>
      <path
         style="fill:#fcef3c;fill-opacity:1;stroke:#000000;stroke-width:1.5;stroke-linecap:round;stroke-linejoin:round;stroke-miterlimit:4;stroke-dasharray:none;stroke-opacity:1"
         d="M -66.40066,-182.80752 L -59.14344,-189.61278 L -51.39064,-185.67294 L -59.1151,-178.89305 L -66.40066,-182.80752 z"
         id="path12006" />
      <path
         id="path12008"
         d="M 57.08188,-182.82389 L 49.82466,-189.62915 L 42.07186,-185.68931 L 49.79632,-178.90942 L 57.08188,-182.82389 z"
         style="fill:#fcef3c;fill-opacity:1;stroke:#000000;stroke-width:1.5;stroke-linecap:round;stroke-linejoin:round;stroke-miterlimit:4;stroke-dasharray:none;stroke-opacity:1" />
    </g>
  </g>
  <g
     id="layer2"
     inkscape:label="Reflet final"
     inkscape:groupmode="layer"
     transform="translate(300,300)"
     sodipodi:insensitive="true">
    <use
       xlink:href="#shield"
       id="use22"
       style="fill:url(#Gradient1)"
       x="0"
       y="0"
       width="600"
       height="660" />
  </g>
  <g
     id="layer1"
     inkscape:label="Contour final"
     inkscape:groupmode="layer"
     transform="translate(300,300)"
     sodipodi:insensitive="true">
    <use
       xlink:href="#shield"
       style="fill:none;stroke:#000000;stroke-width:3"
       id="use25"
       x="0"
       y="0"
       width="600"
       height="660" />
  </g>
</svg>
