<?xml version="1.0" encoding="UTF-8" standalone="no"?>
<svg
   xmlns:dc="http://purl.org/dc/elements/1.1/"
   xmlns:cc="http://creativecommons.org/ns#"
   xmlns:rdf="http://www.w3.org/1999/02/22-rdf-syntax-ns#"
   xmlns:svg="http://www.w3.org/2000/svg"
   xmlns="http://www.w3.org/2000/svg"
   xmlns:xlink="http://www.w3.org/1999/xlink"
   xmlns:sodipodi="http://sodipodi.sourceforge.net/DTD/sodipodi-0.dtd"
   xmlns:inkscape="http://www.inkscape.org/namespaces/inkscape"
   height="660"
   width="600"
   version="1.0"
   id="svg2"
   sodipodi:version="0.32"
   inkscape:version="0.46"
   sodipodi:docname="blason_ville_fr_Chamboulive_(Corrèze)1.svg"
   sodipodi:docbase="D:\Mes documents\Renaud-Notre Lapin"
   inkscape:export-filename="/Users/olivier/Desktop/Blason Rouge/Blason_Vide_3D.png"
   inkscape:export-xdpi="144"
   inkscape:export-ydpi="144"
   inkscape:output_extension="org.inkscape.output.svg.inkscape">
  <metadata
     id="metadata49">
    <rdf:RDF>
      <cc:Work
         rdf:about="">
        <dc:format>image/svg+xml</dc:format>
        <dc:type
           rdf:resource="http://purl.org/dc/dcmitype/StillImage" />
        <dc:title>Gabarit d'un blason en pointe pour le projet Blasons de Wikipédia</dc:title>
        <dc:date>03-AUG-2006</dc:date>
        <dc:creator>
          <cc:Agent>
            <dc:title>Jérôme BLUM (wagner51)</dc:title>
          </cc:Agent>
        </dc:creator>
        <cc:license
           rdf:resource="http://web.resource.org/cc/PublicDomain" />
        <dc:language>fr</dc:language>
        <dc:subject>
          <rdf:Bag>
            <rdf:li>gabarit modèle blason projet wikipédia</rdf:li>
          </rdf:Bag>
        </dc:subject>
      </cc:Work>
      <cc:License
         rdf:about="http://web.resource.org/cc/PublicDomain">
        <cc:permits
           rdf:resource="http://web.resource.org/cc/Reproduction" />
        <cc:permits
           rdf:resource="http://web.resource.org/cc/Distribution" />
        <cc:permits
           rdf:resource="http://web.resource.org/cc/DerivativeWorks" />
      </cc:License>
    </rdf:RDF>
  </metadata>
  <sodipodi:namedview
     inkscape:window-height="712"
     inkscape:window-width="1024"
     inkscape:pageshadow="2"
     inkscape:pageopacity="0.0"
     guidetolerance="10.0"
     gridtolerance="10.0"
     objecttolerance="10.0"
     borderopacity="1.0"
     bordercolor="#666666"
     pagecolor="#ffffff"
     id="base"
     showgrid="false"
     height="660px"
     inkscape:zoom="0.7469697"
     inkscape:cx="300"
     inkscape:cy="330"
     inkscape:window-x="-4"
     inkscape:window-y="-4"
     inkscape:current-layer="layer4" />
  <desc
     id="desc4">Flag of Canton of Valais (Wallis)</desc>
  <defs
     id="defs6">
    <inkscape:perspective
       sodipodi:type="inkscape:persp3d"
       inkscape:vp_x="0 : 330 : 1"
       inkscape:vp_y="0 : 1000 : 0"
       inkscape:vp_z="600 : 330 : 1"
       inkscape:persp3d-origin="300 : 220 : 1"
       id="perspective2491" />
    <linearGradient
       id="linearGradient2893">
      <stop
         style="stop-color:white;stop-opacity:0.3137255;"
         offset="0"
         id="stop2895" />
      <stop
         id="stop2897"
         offset="0.19"
         style="stop-color:white;stop-opacity:0.25098041;" />
      <stop
         style="stop-color:#6b6b6b;stop-opacity:0.1254902;"
         offset="0.60000002"
         id="stop2901" />
      <stop
         style="stop-color:black;stop-opacity:0.1254902;"
         offset="1"
         id="stop2899" />
    </linearGradient>
    <linearGradient
       id="linearGradient2885">
      <stop
         id="stop2887"
         offset="0"
         style="stop-color:white;stop-opacity:1;" />
      <stop
         style="stop-color:white;stop-opacity:1;"
         offset="0.22857143"
         id="stop2891" />
      <stop
         id="stop2889"
         offset="1"
         style="stop-color:black;stop-opacity:1;" />
    </linearGradient>
    <linearGradient
       id="linearGradient2955">
      <stop
         id="stop2867"
         offset="0"
         style="stop-color:#fd0000;stop-opacity:1;" />
      <stop
         style="stop-color:#e77275;stop-opacity:0.65882355;"
         offset="0.5"
         id="stop2873" />
      <stop
         style="stop-color:black;stop-opacity:0.32291666;"
         offset="1"
         id="stop2959" />
    </linearGradient>
    <radialGradient
       inkscape:collect="always"
       xlink:href="#linearGradient2955"
       id="radialGradient2961"
       cx="225.52438"
       cy="218.90099"
       fx="225.52438"
       fy="218.90099"
       r="300"
       gradientTransform="matrix(-4.167939e-4,2.182867,-1.884232,-3.599562e-4,615.5972,-289.1214)"
       gradientUnits="userSpaceOnUse" />
    <polygon
       id="star"
       transform="scale(53,53)"
       points="0,-1 0.58778525,0.80901699 -0.95105652,-0.30901699 0.95105652,-0.30901699 -0.58778525,0.80901699 0,-1 " />
    <clipPath
       id="clip">
      <path
         d="M 0,-200 L 0,600 L 300,600 L 300,-200 L 0,-200 z "
         id="path10" />
    </clipPath>
    <radialGradient
       inkscape:collect="always"
       xlink:href="#linearGradient2955"
       id="radialGradient1911"
       gradientUnits="userSpaceOnUse"
       gradientTransform="matrix(-4.167939e-4,2.182867,-1.884232,-3.599562e-4,615.5972,-289.1214)"
       cx="225.52438"
       cy="218.90099"
       fx="225.52438"
       fy="218.90099"
       r="300" />
    <radialGradient
       inkscape:collect="always"
       xlink:href="#linearGradient2955"
       id="radialGradient2865"
       gradientUnits="userSpaceOnUse"
       gradientTransform="matrix(0,1.748721,-1.593162,-1.049767e-7,551.7876,-191.2898)"
       cx="225.52438"
       cy="218.90099"
       fx="225.52438"
       fy="218.90099"
       r="300" />
    <radialGradient
       inkscape:collect="always"
       xlink:href="#linearGradient2955"
       id="radialGradient2871"
       gradientUnits="userSpaceOnUse"
       gradientTransform="matrix(0,1.386237,-1.323286,-5.741131e-8,-158.0823,-109.5408)"
       cx="225.52438"
       cy="218.90099"
       fx="225.52438"
       fy="218.90099"
       r="300" />
    <radialGradient
       inkscape:collect="always"
       xlink:href="#linearGradient2893"
       id="radialGradient3163"
       gradientUnits="userSpaceOnUse"
       gradientTransform="matrix(1.353218,0,0,1.348928,-77.62935,-85.74693)"
       cx="221.44487"
       cy="226.33101"
       fx="221.44487"
       fy="226.33101"
       r="300" />
    <inkscape:perspective
       id="perspective2990"
       inkscape:persp3d-origin="372.04724 : 350.78739 : 1"
       inkscape:vp_z="744.09448 : 526.18109 : 1"
       inkscape:vp_y="0 : 1000 : 0"
       inkscape:vp_x="0 : 526.18109 : 1"
       sodipodi:type="inkscape:persp3d" />
    <inkscape:perspective
       id="perspective2575"
       inkscape:persp3d-origin="372.04724 : 350.78739 : 1"
       inkscape:vp_z="744.09448 : 526.18109 : 1"
       inkscape:vp_y="0 : 1000 : 0"
       inkscape:vp_x="0 : 526.18109 : 1"
       sodipodi:type="inkscape:persp3d" />
    <inkscape:perspective
       id="perspective6701"
       inkscape:persp3d-origin="112.5 : 101.66667 : 1"
       inkscape:vp_z="225 : 152.5 : 1"
       inkscape:vp_y="0 : 1000 : 0"
       inkscape:vp_x="0 : 152.5 : 1"
       sodipodi:type="inkscape:persp3d" />
    <inkscape:perspective
       id="perspective10"
       inkscape:persp3d-origin="372.04724 : 350.78739 : 1"
       inkscape:vp_z="744.09448 : 526.18109 : 1"
       inkscape:vp_y="0 : 1000 : 0"
       inkscape:vp_x="0 : 526.18109 : 1"
       sodipodi:type="inkscape:persp3d" />
    <inkscape:perspective
       id="perspective6970"
       inkscape:persp3d-origin="372.04724 : 350.78739 : 1"
       inkscape:vp_z="744.09448 : 526.18109 : 1"
       inkscape:vp_y="0 : 1000 : 0"
       inkscape:vp_x="0 : 526.18109 : 1"
       sodipodi:type="inkscape:persp3d" />
    <inkscape:perspective
       id="perspective7059"
       inkscape:persp3d-origin="372.04724 : 350.78739 : 1"
       inkscape:vp_z="744.09448 : 526.18109 : 1"
       inkscape:vp_y="0 : 1000 : 0"
       inkscape:vp_x="0 : 526.18109 : 1"
       sodipodi:type="inkscape:persp3d" />
  </defs>
  <g
     inkscape:groupmode="layer"
     id="layer3"
     inkscape:label="Fond écu"
     style="display:inline"
     sodipodi:insensitive="true">
    <path
       id="path2855"
       style="fill:#fcef3c;fill-opacity:1;fill-rule:evenodd;stroke:none;stroke-width:1px;stroke-linecap:butt;stroke-linejoin:miter;stroke-opacity:1"
       d="M 300,658.5 C 300,658.5 598.50001,546.17969 598.50001,260.72817 C 598.50001,-24.723354 598.50001,2.1764765 598.50001,2.1764765 L 1.5,2.1764765 L 1.5,260.72817 C 1.5,546.17969 300,658.5 300,658.5 z"
       sodipodi:nodetypes="cccccc" />
  </g>
  <g
     inkscape:groupmode="layer"
     id="layer5"
     inkscape:label="chef"
     sodipodi:insensitive="true">
    <g
       style="display:inline"
       id="g2576"
       inkscape:label="Calque 1"
       transform="translate(-67.075922,-85.997659)">
      <rect
         y="86.773964"
         x="70.539627"
         height="194.0336"
         width="596.0636"
         id="rect2511"
         style="opacity:1;fill:#0000ff;fill-opacity:1;fill-rule:evenodd;stroke:#000000;stroke-width:3.92741013;stroke-linecap:butt;stroke-linejoin:miter;marker:none;marker-start:none;marker-mid:none;marker-end:none;stroke-miterlimit:4;stroke-dasharray:none;stroke-dashoffset:0;stroke-opacity:1;visibility:visible;display:inline;overflow:visible;enable-background:accumulate" />
    </g>
    <g
       id="g2657"
       inkscape:label="Calque 1"
       transform="matrix(0.4302831,0,0,0.4302831,227.95581,2.781504)"
       style="stroke:#000000;stroke-width:6.97215414;stroke-miterlimit:4;stroke-dasharray:none;stroke-opacity:1">
      <g
         id="g6401"
         transform="matrix(4.0793507,0,0,3.9794689,26.904866,26.554075)"
         style="stroke:#000000;stroke-width:1.73044932;stroke-miterlimit:4;stroke-dasharray:none;stroke-opacity:1;display:inline">
        <path
           id="path1914"
           style="fill:#fcef3c;fill-opacity:1;fill-rule:evenodd;stroke:#000000;stroke-width:1.73044932;stroke-linecap:butt;stroke-linejoin:miter;stroke-miterlimit:4;stroke-dasharray:none;stroke-opacity:1"
           d="M 29.738807,62.945549 C 27.048864,69.296762 23.723375,71.867796 20.495142,74.988617 C 24.113573,75.005135 27.720185,74.310276 31.457904,71.174666 C 31.521566,80.8496 32.915917,84.156878 36.27701,87.407444 C 39.599973,84.258477 41.135507,80.860295 41.124297,71.174666 C 44.862015,74.310279 48.459235,75.005138 52.077665,74.988617 C 48.849666,71.868025 45.533231,69.295734 42.843394,62.945549 L 29.738807,62.945549 z" />
        <rect
           id="rect2782"
           style="fill:#fcef3c;fill-opacity:1;fill-rule:nonzero;stroke:#000000;stroke-width:1.73044932;stroke-linecap:butt;stroke-linejoin:miter;marker:none;marker-start:none;marker-mid:none;marker-end:none;stroke-miterlimit:4;stroke-dasharray:none;stroke-dashoffset:0;stroke-opacity:1;visibility:visible;display:inline;overflow:visible"
           y="58.178268"
           x="21.706974"
           height="4.7715344"
           width="29.158859" />
        <path
           id="path1993"
           style="fill:#fcef3c;fill-opacity:1;fill-rule:evenodd;stroke:#000000;stroke-width:5.75651693;stroke-linecap:butt;stroke-linejoin:miter;stroke-miterlimit:4;stroke-dasharray:none;stroke-opacity:1"
           transform="matrix(0.300607,0,0,0.300607,-1.678333,0)"
           d="M 126.28125,7.9375 C 91.339572,45.032066 77.889524,87.763056 105.65625,141.28125 C 111.99786,157.53971 116.99469,174.3258 115.96875,193.53125 L 136.59375,193.53125 C 135.56781,174.3258 140.56463,157.53971 146.90625,141.28125 C 174.67298,87.763061 161.22293,45.032066 126.28125,7.9375 z" />
        <path
           id="path1881"
           style="fill:#fcef3c;fill-opacity:1;fill-rule:evenodd;stroke:#000000;stroke-width:5.75651693;stroke-linecap:butt;stroke-linejoin:miter;stroke-miterlimit:4;stroke-dasharray:none;stroke-opacity:1"
           transform="matrix(0.300607,0,0,0.300607,-1.678333,0)"
           d="M 52.25,100 C 17.014691,100.84534 -6.4773133,160.01799 67.46875,188.875 C 43.029039,141.00056 88.364495,158.74296 94.34375,193.53125 L 111.875,193.53125 C 102.19567,122.87043 74.822961,99.458446 52.25,100 z" />
        <path
           id="path2776"
           style="fill:#fcef3c;fill-opacity:1;fill-rule:evenodd;stroke:#000000;stroke-width:5.75651693;stroke-linecap:butt;stroke-linejoin:miter;stroke-miterlimit:4;stroke-dasharray:none;stroke-opacity:1"
           transform="matrix(0.300607,0,0,0.300607,-1.678333,0)"
           d="M 198.96875,100 C 176.66733,100.41761 150.20435,124.28444 140.71875,193.53125 L 158.21875,193.53125 C 164.19831,158.74296 209.56471,141.00056 185.125,188.875 C 260.01909,159.64802 234.94647,99.326296 198.96875,100 z" />
      </g>
    </g>
    <g
       id="g3435"
       inkscape:label="Calque 1"
       transform="matrix(0.4302831,0,0,0.4302831,59.943627,2.781504)"
       style="stroke:#000000;stroke-width:6.97215414;stroke-miterlimit:4;stroke-dasharray:none;stroke-opacity:1">
      <g
         id="g3437"
         transform="matrix(4.0793507,0,0,3.9794689,26.904866,26.554075)"
         style="stroke:#000000;stroke-width:1.73044932;stroke-miterlimit:4;stroke-dasharray:none;stroke-opacity:1;display:inline">
        <path
           id="path3439"
           style="fill:#fcef3c;fill-opacity:1;fill-rule:evenodd;stroke:#000000;stroke-width:1.73044932;stroke-linecap:butt;stroke-linejoin:miter;stroke-miterlimit:4;stroke-dasharray:none;stroke-opacity:1"
           d="M 29.738807,62.945549 C 27.048864,69.296762 23.723375,71.867796 20.495142,74.988617 C 24.113573,75.005135 27.720185,74.310276 31.457904,71.174666 C 31.521566,80.8496 32.915917,84.156878 36.27701,87.407444 C 39.599973,84.258477 41.135507,80.860295 41.124297,71.174666 C 44.862015,74.310279 48.459235,75.005138 52.077665,74.988617 C 48.849666,71.868025 45.533231,69.295734 42.843394,62.945549 L 29.738807,62.945549 z" />
        <rect
           id="rect3441"
           style="fill:#fcef3c;fill-opacity:1;fill-rule:nonzero;stroke:#000000;stroke-width:1.73044932;stroke-linecap:butt;stroke-linejoin:miter;marker:none;marker-start:none;marker-mid:none;marker-end:none;stroke-miterlimit:4;stroke-dasharray:none;stroke-dashoffset:0;stroke-opacity:1;visibility:visible;display:inline;overflow:visible"
           y="58.178268"
           x="21.706974"
           height="4.7715344"
           width="29.158859" />
        <path
           id="path3443"
           style="fill:#fcef3c;fill-opacity:1;fill-rule:evenodd;stroke:#000000;stroke-width:5.75651693;stroke-linecap:butt;stroke-linejoin:miter;stroke-miterlimit:4;stroke-dasharray:none;stroke-opacity:1"
           transform="matrix(0.300607,0,0,0.300607,-1.678333,0)"
           d="M 126.28125,7.9375 C 91.339572,45.032066 77.889524,87.763056 105.65625,141.28125 C 111.99786,157.53971 116.99469,174.3258 115.96875,193.53125 L 136.59375,193.53125 C 135.56781,174.3258 140.56463,157.53971 146.90625,141.28125 C 174.67298,87.763061 161.22293,45.032066 126.28125,7.9375 z" />
        <path
           id="path3445"
           style="fill:#fcef3c;fill-opacity:1;fill-rule:evenodd;stroke:#000000;stroke-width:5.75651693;stroke-linecap:butt;stroke-linejoin:miter;stroke-miterlimit:4;stroke-dasharray:none;stroke-opacity:1"
           transform="matrix(0.300607,0,0,0.300607,-1.678333,0)"
           d="M 52.25,100 C 17.014691,100.84534 -6.4773133,160.01799 67.46875,188.875 C 43.029039,141.00056 88.364495,158.74296 94.34375,193.53125 L 111.875,193.53125 C 102.19567,122.87043 74.822961,99.458446 52.25,100 z" />
        <path
           id="path3447"
           style="fill:#fcef3c;fill-opacity:1;fill-rule:evenodd;stroke:#000000;stroke-width:5.75651693;stroke-linecap:butt;stroke-linejoin:miter;stroke-miterlimit:4;stroke-dasharray:none;stroke-opacity:1"
           transform="matrix(0.300607,0,0,0.300607,-1.678333,0)"
           d="M 198.96875,100 C 176.66733,100.41761 150.20435,124.28444 140.71875,193.53125 L 158.21875,193.53125 C 164.19831,158.74296 209.56471,141.00056 185.125,188.875 C 260.01909,159.64802 234.94647,99.326296 198.96875,100 z" />
      </g>
    </g>
    <g
       id="g3449"
       inkscape:label="Calque 1"
       transform="matrix(0.4302831,0,0,0.4302831,395.96799,2.781504)"
       style="stroke:#000000;stroke-width:6.97215414;stroke-miterlimit:4;stroke-dasharray:none;stroke-opacity:1">
      <g
         id="g3451"
         transform="matrix(4.0793507,0,0,3.9794689,26.904866,26.554075)"
         style="stroke:#000000;stroke-width:1.73044932;stroke-miterlimit:4;stroke-dasharray:none;stroke-opacity:1;display:inline">
        <path
           id="path3453"
           style="fill:#fcef3c;fill-opacity:1;fill-rule:evenodd;stroke:#000000;stroke-width:1.73044932;stroke-linecap:butt;stroke-linejoin:miter;stroke-miterlimit:4;stroke-dasharray:none;stroke-opacity:1"
           d="M 29.738807,62.945549 C 27.048864,69.296762 23.723375,71.867796 20.495142,74.988617 C 24.113573,75.005135 27.720185,74.310276 31.457904,71.174666 C 31.521566,80.8496 32.915917,84.156878 36.27701,87.407444 C 39.599973,84.258477 41.135507,80.860295 41.124297,71.174666 C 44.862015,74.310279 48.459235,75.005138 52.077665,74.988617 C 48.849666,71.868025 45.533231,69.295734 42.843394,62.945549 L 29.738807,62.945549 z" />
        <rect
           id="rect3455"
           style="fill:#fcef3c;fill-opacity:1;fill-rule:nonzero;stroke:#000000;stroke-width:1.73044932;stroke-linecap:butt;stroke-linejoin:miter;marker:none;marker-start:none;marker-mid:none;marker-end:none;stroke-miterlimit:4;stroke-dasharray:none;stroke-dashoffset:0;stroke-opacity:1;visibility:visible;display:inline;overflow:visible"
           y="58.178268"
           x="21.706974"
           height="4.7715344"
           width="29.158859" />
        <path
           id="path3457"
           style="fill:#fcef3c;fill-opacity:1;fill-rule:evenodd;stroke:#000000;stroke-width:5.75651693;stroke-linecap:butt;stroke-linejoin:miter;stroke-miterlimit:4;stroke-dasharray:none;stroke-opacity:1"
           transform="matrix(0.300607,0,0,0.300607,-1.678333,0)"
           d="M 126.28125,7.9375 C 91.339572,45.032066 77.889524,87.763056 105.65625,141.28125 C 111.99786,157.53971 116.99469,174.3258 115.96875,193.53125 L 136.59375,193.53125 C 135.56781,174.3258 140.56463,157.53971 146.90625,141.28125 C 174.67298,87.763061 161.22293,45.032066 126.28125,7.9375 z" />
        <path
           id="path3459"
           style="fill:#fcef3c;fill-opacity:1;fill-rule:evenodd;stroke:#000000;stroke-width:5.75651693;stroke-linecap:butt;stroke-linejoin:miter;stroke-miterlimit:4;stroke-dasharray:none;stroke-opacity:1"
           transform="matrix(0.300607,0,0,0.300607,-1.678333,0)"
           d="M 52.25,100 C 17.014691,100.84534 -6.4773133,160.01799 67.46875,188.875 C 43.029039,141.00056 88.364495,158.74296 94.34375,193.53125 L 111.875,193.53125 C 102.19567,122.87043 74.822961,99.458446 52.25,100 z" />
        <path
           id="path3461"
           style="fill:#fcef3c;fill-opacity:1;fill-rule:evenodd;stroke:#000000;stroke-width:5.75651693;stroke-linecap:butt;stroke-linejoin:miter;stroke-miterlimit:4;stroke-dasharray:none;stroke-opacity:1"
           transform="matrix(0.300607,0,0,0.300607,-1.678333,0)"
           d="M 198.96875,100 C 176.66733,100.41761 150.20435,124.28444 140.71875,193.53125 L 158.21875,193.53125 C 164.19831,158.74296 209.56471,141.00056 185.125,188.875 C 260.01909,159.64802 234.94647,99.326296 198.96875,100 z" />
      </g>
    </g>
  </g>
  <g
     inkscape:groupmode="layer"
     id="layer4"
     inkscape:label="Meubles"
     sodipodi:insensitive="true">
    <g
       id="g6704"
       transform="matrix(1.233225,0,0,1.361001,160.48498,215.64584)"
       style="fill:#5ab532">
      <g
         id="g7256"
         transform="translate(-17.58058,-735.9956)"
         style="fill:#5ab532">
        <path
           sodipodi:nodetypes="cccccccccccccccc"
           id="path1910"
           style="fill:#5ab532;fill-opacity:1;fill-rule:evenodd;stroke:#000000;stroke-width:2.31563902;stroke-linecap:butt;stroke-linejoin:miter;stroke-miterlimit:4;stroke-dasharray:none;stroke-opacity:1"
           d="M 103.30715,872.93971 L 96.67967,885.72128 L 111.3548,899.44963 L 114.66854,966.67121 L 108.04106,978.97939 L 138.69952,978.34616 L 152.83101,978.167 C 142.46988,963.75959 142.31781,927.53752 141.65186,903.71015 C 148.07429,897.3822 153.55765,893.87149 159.16734,889.9818 L 149.22612,878.62041 L 140.23168,887.14145 L 140.70507,871.99293 L 130.29046,884.7745 L 122.24281,868.67919 L 117.98228,887.14145 L 103.30715,872.93971 z" />
        <path
           id="path4587"
           style="fill:#5ab532;fill-opacity:1;fill-rule:evenodd;stroke:#000000;stroke-width:2.31563902;stroke-linecap:butt;stroke-linejoin:miter;stroke-miterlimit:4;stroke-dasharray:none;stroke-opacity:1"
           d="M 108.75265,877.31771 L 104.70897,876.86841 L 107.40476,886.75295 L 101.56389,885.40506 L 98.868107,891.69522 L 93.476538,891.24593 L 90.331455,897.08679 L 84.490589,899.78258 L 79.548318,896.63749 L 72.35956,902.02906 L 71.460965,896.63749 L 67.866586,900.23187 L 66.518694,897.53609 C 65.318375,901.1217 63.133276,900.76819 61.127125,901.13047 L 60.22853,897.08679 C 58.132372,899.18464 55.968873,901.1478 53.039772,901.57977 L 52.590474,897.98539 L 47.648203,901.57977 L 47.198905,896.1882 L 43.604525,896.1882 L 43.604525,891.69522 L 41.358038,890.79663 C 40.912976,887.87726 43.402901,885.69163 46.30031,883.60787 L 40.908742,883.60787 L 45.851013,877.767 C 42.4064,878.99864 38.961785,880.69009 35.517172,883.60787 L 33.270685,880.01349 L 31.024198,881.81068 L 26.081927,882.25998 C 24.055537,879.71396 25.122634,877.16794 27.879117,874.62192 C 26.57409,872.37544 28.571741,870.12895 30.574901,867.88246 L 26.980522,867.43316 C 27.732524,865.48621 28.116358,863.53925 34.618579,861.5923 L 29.227009,857.99792 C 33.509472,858.39067 37.891616,858.38469 41.358038,862.0416 L 41.807337,857.54862 L 46.30031,861.143 L 47.648203,858.89651 L 50.793284,856.20073 L 45.851013,854.85284 L 49.89469,850.35986 L 42.256633,853.95424 L 40.010146,849.46127 L 35.517172,854.40354 L 32.372092,849.46127 L 24.734035,850.80916 L 28.328414,846.31619 L 22.936845,844.519 L 26.531224,842.72181 L 25.183332,840.47532 L 31.922793,841.37391 L 31.024198,837.33024 L 37.314363,835.98235 L 28.777711,835.98235 L 29.676306,832.83726 L 22.03825,832.83726 L 25.63263,826.9964 L 22.936845,824.74991 L 27.879117,821.60483 L 27.879117,816.66256 L 33.270685,818.01045 L 32.372092,813.06818 L 40.010146,815.76396 L 38.212958,810.37239 L 45.401716,810.37239 L 45.851013,808.12591 L 42.705932,807.22731 L 44.053823,804.53153 L 38.662254,807.22731 L 37.314363,803.63293 L 32.372092,805.87942 L 29.227009,802.73434 L 24.734035,803.18363 L 24.734035,800.03855 L 29.227009,800.03855 L 30.125605,796.44417 L 34.16928,798.24136 L 40.459445,796.44417 L 35.517172,793.29909 L 42.256633,791.0526 L 39.111551,788.35682 L 41.358038,784.31314 L 36.415767,782.51595 L 34.618579,778.47228 L 40.908742,776.67509 L 37.763659,773.08071 L 42.705932,771.73282 L 40.459445,769.48633 L 42.705932,767.23984 L 40.010146,763.19617 L 44.503121,761.84827 L 43.604525,756.906 L 48.0975,756.4567 C 48.0975,756.4567 46.749608,751.06514 50.343987,753.31162 C 53.938366,755.55811 63.373612,752.86233 63.373612,752.86233 L 62.924314,757.8046 L 68.765181,756.4567 L 70.113073,761.39898 L 71.910263,759.15249 L 75.055344,763.19617 L 78.649723,760.94968 C 76.959399,760.24375 76.418145,758.38875 75.504642,756.906 L 79.548318,756.4567 L 81.794806,759.60179 C 83.44223,756.54028 85.089652,757.63218 86.737076,758.70319 L 88.084968,756.906 L 85.389185,746.57216 L 88.983564,744.32567 L 91.679349,751.96373 L 95.273728,747.47076 L 97.520215,751.06514 C 99.148928,748.06046 100.96123,745.14759 104.25968,742.97778 C 105.67904,746.49387 105.87445,748.786 105.60757,750.61584 L 108.75265,749.26795 L 112.34703,753.31162 L 110.10054,744.77497 C 114.38446,744.38497 115.89985,746.76348 117.7386,748.81865 C 116.92642,746.27263 118.31421,743.72661 120.88368,741.18059 L 122.23157,747.92005 L 124.02876,743.42708 L 130.76822,742.52849 L 130.76822,748.36935 C 133.26645,743.83497 136.41472,741.90079 139.75417,740.73129 L 141.10206,749.71724 L 146.94293,744.32567 L 151.4359,743.87638 L 148.74012,751.06514 L 154.58099,750.61584 L 159.97255,745.67357 L 162.66834,754.21022 C 163.72287,752.16753 164.15106,749.70729 167.61061,749.26795 L 167.61061,753.31162 C 169.91789,750.70703 173.04421,749.33099 177.04586,749.26795 L 181.53883,752.41303 L 176.14726,756.4567 L 182.43742,755.10881 L 184.68391,758.25389 L 189.62618,753.76092 C 190.95937,755.33714 189.39163,757.63858 187.3797,760.05108 L 196.81494,758.70319 L 200.40932,761.84827 L 195.01775,763.19617 L 198.61213,765.44265 L 201.30792,765.44265 L 205.80089,763.19617 L 199.51073,770.38492 C 202.29906,772.1037 203.64425,774.1111 202.20651,776.67509 L 195.01775,775.77649 L 194.11916,776.67509 L 197.71354,780.26947 L 192.77126,783.41455 L 195.01775,786.11033 L 191.87267,791.9512 L 196.81494,789.25542 L 198.16283,793.74839 C 199.58038,791.42179 200.53941,788.63667 203.5544,787.90752 L 206.25019,787.00893 L 206.69948,789.70471 L 213.88824,790.15401 L 211.19246,795.54558 C 214.67856,792.53409 217.0208,794.09804 219.72911,794.19769 L 215.23613,796.89347 L 218.38122,799.58926 L 214.78684,800.48785 C 216.18014,803.08266 214.96053,805.02425 212.98965,806.77801 L 217.03332,806.77801 L 218.83051,803.63293 L 222.42489,804.98082 L 223.77279,808.12591 L 229.61365,806.77801 L 228.71506,809.9231 L 235.90382,812.16958 L 233.20803,814.41607 L 236.35312,818.90904 L 232.30944,822.05413 L 230.06296,818.90904 L 228.26577,823.85131 L 225.12068,820.25694 L 224.22208,824.74991 L 229.16435,826.9964 L 233.65732,825.64851 L 235.45451,830.14148 L 237.2517,836.43164 L 230.96154,833.73586 L 230.06296,839.57672 L 227.36716,837.77953 L 224.67138,840.02602 L 228.26577,842.72181 L 226.46858,845.41759 L 222.42489,844.96829 L 225.12068,848.11337 L 222.87419,849.01197 L 229.16435,853.50494 L 229.61365,857.99792 L 226.91787,858.44722 L 223.77279,855.75143 L 227.36716,860.6937 L 226.01927,863.83878 L 222.87419,862.0416 L 223.77279,867.88246 C 220.21446,869.45778 219.05641,866.23255 217.03332,864.73738 L 218.83051,871.02754 C 216.96547,873.00261 214.34022,871.93685 211.64176,870.57825 C 211.75065,873.87988 210.42685,876.10699 207.14878,876.86841 L 205.35159,873.27403 L 204.0037,877.767 L 200.40932,876.86841 L 203.5544,882.25998 L 196.81494,882.70928 L 199.51073,888.99944 L 194.11916,889.44874 L 190.52478,893.94171 L 186.4811,888.99944 L 184.23461,895.2896 L 178.84304,892.59382 L 174.35007,895.2896 L 167.61061,892.14452 L 163.56693,896.63749 L 161.76974,893.04312 L 157.27677,896.63749 L 154.13169,892.59382 L 152.7838,896.63749 L 150.53731,890.34733 L 146.04433,893.94171 C 144.45366,890.94639 145.1972,887.95108 147.84152,884.95576 L 141.55136,885.40506 L 141.55136,880.91209 L 130.31893,885.40506 L 125.37665,880.91209 L 120.43438,884.50646 L 118.63719,879.1149 L 115.49211,880.46279 L 112.79633,876.86841 L 108.75265,877.31771 z" />
      </g>
    </g>
    <path
       style="opacity:0.98999999;fill:#5ab532;fill-opacity:1;stroke:#000000;stroke-width:3;stroke-miterlimit:4;stroke-dasharray:none;stroke-opacity:1"
       d="M 126.8125,544.875 C 208.49322,624.05341 300,658.5 300,658.5 C 300,658.5 391.50678,624.05341 473.1875,544.875 L 126.8125,544.875 z"
       id="rect6709" />
    <g
       id="g7061"
       inkscape:label="Calque 1"
       transform="matrix(6.4699102e-2,0,0,7.0647205e-2,196.80386,247.29687)">
      <path
         sodipodi:nodetypes="csssssssscccccccssc"
         id="rect2385"
         d="M 255.97514,245.45787 C 261.70544,243.85778 272.15137,240.84524 289.17079,232.12058 C 298.83412,227.16688 309.48215,221.59313 314.6511,215.39079 C 319.82005,209.18845 329.42534,200.0223 338.20402,185.95285 C 344.55955,175.76695 330.48467,175.40585 338.17785,186.21974 C 344.36306,194.91396 351.48482,208.09579 359.83166,215.18317 C 370.86912,224.55519 380.31641,231.13972 388.50338,235.36127 C 398.76581,240.65301 414.79882,243.48302 425.60762,246.89022 C 436.41642,250.29742 443.01821,252.3496 448.49384,254.2703 C 469.29172,261.5656 460.5463,260.21965 473.02211,265.96874 C 504.3196,279.61002 535.58298,320.3374 535.58298,347.56823 L 535.58298,354.07445 C 535.58298,408.5361 471.9662,452.38068 392.94446,452.38068 L 276.82456,452.38068 C 197.80282,452.38068 134.18605,408.5361 134.18605,354.07445 L 134.18605,347.56823 C 134.18605,320.3374 150.09024,297.02951 175.87215,279.26065 C 188.76311,270.37624 199.49979,266.39827 216.14086,260.12952 C 232.55793,253.94514 234.95697,254.39562 255.97514,245.45787 z"
         style="opacity:0.98999999;fill:#ff0000;fill-opacity:1;stroke:#000000;stroke-width:44.37358856;stroke-miterlimit:4;stroke-dasharray:none;stroke-opacity:1" />
      <path
         sodipodi:nodetypes="cssscsc"
         id="path2389"
         d="M 485.79878,427.18408 C 485.6603,435.13027 463.98493,444.81184 434.3495,448.97768 C 404.71404,453.14352 366.4861,456.22039 326.91854,457.2811 C 285.35838,458.39523 268.60652,454.61851 232.30917,447.78601 C 205.62331,442.76272 185.11286,435.01023 185.11286,428.44887 C 185.11286,415.32611 255.90166,402.14622 337.66919,402.14622 C 419.43672,402.14622 485.79878,414.06134 485.79878,427.18408 z"
         style="opacity:0.98999999;fill:#ff0000;fill-opacity:1;stroke:#000000;stroke-width:44.37359619;stroke-miterlimit:4;stroke-dasharray:none;stroke-opacity:1" />
      <path
         sodipodi:nodetypes="cs"
         id="path3165"
         d="M 339.99524,182.73333 C 345.55852,170.35129 352.24337,162.75496 366.99134,155.85494"
         style="fill:none;fill-rule:evenodd;stroke:#000000;stroke-width:44.37358856;stroke-linecap:round;stroke-linejoin:miter;stroke-miterlimit:4;stroke-dasharray:none;stroke-opacity:1" />
      <path
         inkscape:transform-center-y="-1.1972431e-05"
         inkscape:transform-center-x="2.9632495"
         sodipodi:nodetypes="csss"
         id="path3171"
         d="M 340.0109,178.43024 C 341.11022,175.53886 341.53585,174.20203 343.07592,170.42603 C 346.78183,161.3397 346.27012,162.95066 348.117,158.83047 C 348.85273,157.18913 349.86931,155.40344 350.31456,154.08691"
         style="fill:#ff0000;fill-rule:evenodd;stroke:#000000;stroke-width:44.37358856;stroke-linecap:round;stroke-linejoin:miter;stroke-miterlimit:4;stroke-dasharray:none;stroke-opacity:1" />
      <path
         inkscape:transform-center-y="1.9036759e-05"
         inkscape:transform-center-x="-3.1503658"
         sodipodi:nodetypes="csss"
         id="path3177"
         d="M 337.93511,178.01052 C 336.76637,175.04185 336.31385,173.66931 334.67653,169.79237 C 330.73662,160.4632 331.28064,162.11721 329.31715,157.88691 C 328.53494,156.20168 327.45417,154.36828 326.9808,153.01656"
         style="fill:#ff0000;fill-rule:evenodd;stroke:#000000;stroke-width:44.37358856;stroke-linecap:round;stroke-linejoin:miter;stroke-miterlimit:4;stroke-dasharray:none;stroke-opacity:1" />
      <path
         sodipodi:nodetypes="cs"
         id="path3179"
         d="M 337.46802,181.82546 C 332.89586,169.44653 324.24495,160.19894 309.97901,154.24291"
         style="fill:none;fill-rule:evenodd;stroke:#000000;stroke-width:44.37358856;stroke-linecap:round;stroke-linejoin:miter;stroke-miterlimit:4;stroke-dasharray:none;stroke-opacity:1" />
    </g>
    <g
       id="g7069"
       inkscape:label="Calque 1"
       transform="matrix(6.4699102e-2,0,0,7.0647205e-2,247.42049,231.45758)">
      <path
         sodipodi:nodetypes="csssssssscccccccssc"
         id="path7071"
         d="M 255.97514,245.45787 C 261.70544,243.85778 272.15137,240.84524 289.17079,232.12058 C 298.83412,227.16688 309.48215,221.59313 314.6511,215.39079 C 319.82005,209.18845 329.42534,200.0223 338.20402,185.95285 C 344.55955,175.76695 330.48467,175.40585 338.17785,186.21974 C 344.36306,194.91396 351.48482,208.09579 359.83166,215.18317 C 370.86912,224.55519 380.31641,231.13972 388.50338,235.36127 C 398.76581,240.65301 414.79882,243.48302 425.60762,246.89022 C 436.41642,250.29742 443.01821,252.3496 448.49384,254.2703 C 469.29172,261.5656 460.5463,260.21965 473.02211,265.96874 C 504.3196,279.61002 535.58298,320.3374 535.58298,347.56823 L 535.58298,354.07445 C 535.58298,408.5361 471.9662,452.38068 392.94446,452.38068 L 276.82456,452.38068 C 197.80282,452.38068 134.18605,408.5361 134.18605,354.07445 L 134.18605,347.56823 C 134.18605,320.3374 150.09024,297.02951 175.87215,279.26065 C 188.76311,270.37624 199.49979,266.39827 216.14086,260.12952 C 232.55793,253.94514 234.95697,254.39562 255.97514,245.45787 z"
         style="opacity:0.98999999;fill:#ff0000;fill-opacity:1;stroke:#000000;stroke-width:44.37358856;stroke-miterlimit:4;stroke-dasharray:none;stroke-opacity:1" />
      <path
         sodipodi:nodetypes="cssscsc"
         id="path7073"
         d="M 485.79878,427.18408 C 485.6603,435.13027 463.98493,444.81184 434.3495,448.97768 C 404.71404,453.14352 366.4861,456.22039 326.91854,457.2811 C 285.35838,458.39523 268.60652,454.61851 232.30917,447.78601 C 205.62331,442.76272 185.11286,435.01023 185.11286,428.44887 C 185.11286,415.32611 255.90166,402.14622 337.66919,402.14622 C 419.43672,402.14622 485.79878,414.06134 485.79878,427.18408 z"
         style="opacity:0.98999999;fill:#ff0000;fill-opacity:1;stroke:#000000;stroke-width:44.37359619;stroke-miterlimit:4;stroke-dasharray:none;stroke-opacity:1" />
      <path
         sodipodi:nodetypes="cs"
         id="path7075"
         d="M 339.99524,182.73333 C 345.55852,170.35129 352.24337,162.75496 366.99134,155.85494"
         style="fill:none;fill-rule:evenodd;stroke:#000000;stroke-width:44.37358856;stroke-linecap:round;stroke-linejoin:miter;stroke-miterlimit:4;stroke-dasharray:none;stroke-opacity:1" />
      <path
         inkscape:transform-center-y="-1.1972431e-05"
         inkscape:transform-center-x="2.9632495"
         sodipodi:nodetypes="csss"
         id="path7077"
         d="M 340.0109,178.43024 C 341.11022,175.53886 341.53585,174.20203 343.07592,170.42603 C 346.78183,161.3397 346.27012,162.95066 348.117,158.83047 C 348.85273,157.18913 349.86931,155.40344 350.31456,154.08691"
         style="fill:#ff0000;fill-rule:evenodd;stroke:#000000;stroke-width:44.37358856;stroke-linecap:round;stroke-linejoin:miter;stroke-miterlimit:4;stroke-dasharray:none;stroke-opacity:1" />
      <path
         inkscape:transform-center-y="1.9036759e-05"
         inkscape:transform-center-x="-3.1503658"
         sodipodi:nodetypes="csss"
         id="path7079"
         d="M 337.93511,178.01052 C 336.76637,175.04185 336.31385,173.66931 334.67653,169.79237 C 330.73662,160.4632 331.28064,162.11721 329.31715,157.88691 C 328.53494,156.20168 327.45417,154.36828 326.9808,153.01656"
         style="fill:#ff0000;fill-rule:evenodd;stroke:#000000;stroke-width:44.37358856;stroke-linecap:round;stroke-linejoin:miter;stroke-miterlimit:4;stroke-dasharray:none;stroke-opacity:1" />
      <path
         sodipodi:nodetypes="cs"
         id="path7081"
         d="M 337.46802,181.82546 C 332.89586,169.44653 324.24495,160.19894 309.97901,154.24291"
         style="fill:none;fill-rule:evenodd;stroke:#000000;stroke-width:44.37358856;stroke-linecap:round;stroke-linejoin:miter;stroke-miterlimit:4;stroke-dasharray:none;stroke-opacity:1" />
    </g>
    <g
       id="g7083"
       inkscape:label="Calque 1"
       transform="matrix(6.4699102e-2,0,0,7.0647205e-2,228.6781,267.60363)">
      <path
         sodipodi:nodetypes="csssssssscccccccssc"
         id="path7085"
         d="M 255.97514,245.45787 C 261.70544,243.85778 272.15137,240.84524 289.17079,232.12058 C 298.83412,227.16688 309.48215,221.59313 314.6511,215.39079 C 319.82005,209.18845 329.42534,200.0223 338.20402,185.95285 C 344.55955,175.76695 330.48467,175.40585 338.17785,186.21974 C 344.36306,194.91396 351.48482,208.09579 359.83166,215.18317 C 370.86912,224.55519 380.31641,231.13972 388.50338,235.36127 C 398.76581,240.65301 414.79882,243.48302 425.60762,246.89022 C 436.41642,250.29742 443.01821,252.3496 448.49384,254.2703 C 469.29172,261.5656 460.5463,260.21965 473.02211,265.96874 C 504.3196,279.61002 535.58298,320.3374 535.58298,347.56823 L 535.58298,354.07445 C 535.58298,408.5361 471.9662,452.38068 392.94446,452.38068 L 276.82456,452.38068 C 197.80282,452.38068 134.18605,408.5361 134.18605,354.07445 L 134.18605,347.56823 C 134.18605,320.3374 150.09024,297.02951 175.87215,279.26065 C 188.76311,270.37624 199.49979,266.39827 216.14086,260.12952 C 232.55793,253.94514 234.95697,254.39562 255.97514,245.45787 z"
         style="opacity:0.98999999;fill:#ff0000;fill-opacity:1;stroke:#000000;stroke-width:44.37358856;stroke-miterlimit:4;stroke-dasharray:none;stroke-opacity:1" />
      <path
         sodipodi:nodetypes="cssscsc"
         id="path7087"
         d="M 485.79878,427.18408 C 485.6603,435.13027 463.98493,444.81184 434.3495,448.97768 C 404.71404,453.14352 366.4861,456.22039 326.91854,457.2811 C 285.35838,458.39523 268.60652,454.61851 232.30917,447.78601 C 205.62331,442.76272 185.11286,435.01023 185.11286,428.44887 C 185.11286,415.32611 255.90166,402.14622 337.66919,402.14622 C 419.43672,402.14622 485.79878,414.06134 485.79878,427.18408 z"
         style="opacity:0.98999999;fill:#ff0000;fill-opacity:1;stroke:#000000;stroke-width:44.37359619;stroke-miterlimit:4;stroke-dasharray:none;stroke-opacity:1" />
      <path
         sodipodi:nodetypes="cs"
         id="path7089"
         d="M 339.99524,182.73333 C 345.55852,170.35129 352.24337,162.75496 366.99134,155.85494"
         style="fill:none;fill-rule:evenodd;stroke:#000000;stroke-width:44.37358856;stroke-linecap:round;stroke-linejoin:miter;stroke-miterlimit:4;stroke-dasharray:none;stroke-opacity:1" />
      <path
         inkscape:transform-center-y="-1.1972431e-05"
         inkscape:transform-center-x="2.9632495"
         sodipodi:nodetypes="csss"
         id="path7091"
         d="M 340.0109,178.43024 C 341.11022,175.53886 341.53585,174.20203 343.07592,170.42603 C 346.78183,161.3397 346.27012,162.95066 348.117,158.83047 C 348.85273,157.18913 349.86931,155.40344 350.31456,154.08691"
         style="fill:#ff0000;fill-rule:evenodd;stroke:#000000;stroke-width:44.37358856;stroke-linecap:round;stroke-linejoin:miter;stroke-miterlimit:4;stroke-dasharray:none;stroke-opacity:1" />
      <path
         inkscape:transform-center-y="1.9036759e-05"
         inkscape:transform-center-x="-3.1503658"
         sodipodi:nodetypes="csss"
         id="path7093"
         d="M 337.93511,178.01052 C 336.76637,175.04185 336.31385,173.66931 334.67653,169.79237 C 330.73662,160.4632 331.28064,162.11721 329.31715,157.88691 C 328.53494,156.20168 327.45417,154.36828 326.9808,153.01656"
         style="fill:#ff0000;fill-rule:evenodd;stroke:#000000;stroke-width:44.37358856;stroke-linecap:round;stroke-linejoin:miter;stroke-miterlimit:4;stroke-dasharray:none;stroke-opacity:1" />
      <path
         sodipodi:nodetypes="cs"
         id="path7095"
         d="M 337.46802,181.82546 C 332.89586,169.44653 324.24495,160.19894 309.97901,154.24291"
         style="fill:none;fill-rule:evenodd;stroke:#000000;stroke-width:44.37358856;stroke-linecap:round;stroke-linejoin:miter;stroke-miterlimit:4;stroke-dasharray:none;stroke-opacity:1" />
    </g>
    <g
       id="g7097"
       inkscape:label="Calque 1"
       transform="matrix(6.4699102e-2,0,0,7.0647205e-2,191.19331,280.99104)">
      <path
         sodipodi:nodetypes="csssssssscccccccssc"
         id="path7099"
         d="M 255.97514,245.45787 C 261.70544,243.85778 272.15137,240.84524 289.17079,232.12058 C 298.83412,227.16688 309.48215,221.59313 314.6511,215.39079 C 319.82005,209.18845 329.42534,200.0223 338.20402,185.95285 C 344.55955,175.76695 330.48467,175.40585 338.17785,186.21974 C 344.36306,194.91396 351.48482,208.09579 359.83166,215.18317 C 370.86912,224.55519 380.31641,231.13972 388.50338,235.36127 C 398.76581,240.65301 414.79882,243.48302 425.60762,246.89022 C 436.41642,250.29742 443.01821,252.3496 448.49384,254.2703 C 469.29172,261.5656 460.5463,260.21965 473.02211,265.96874 C 504.3196,279.61002 535.58298,320.3374 535.58298,347.56823 L 535.58298,354.07445 C 535.58298,408.5361 471.9662,452.38068 392.94446,452.38068 L 276.82456,452.38068 C 197.80282,452.38068 134.18605,408.5361 134.18605,354.07445 L 134.18605,347.56823 C 134.18605,320.3374 150.09024,297.02951 175.87215,279.26065 C 188.76311,270.37624 199.49979,266.39827 216.14086,260.12952 C 232.55793,253.94514 234.95697,254.39562 255.97514,245.45787 z"
         style="opacity:0.98999999;fill:#ff0000;fill-opacity:1;stroke:#000000;stroke-width:44.37358856;stroke-miterlimit:4;stroke-dasharray:none;stroke-opacity:1" />
      <path
         sodipodi:nodetypes="cssscsc"
         id="path7101"
         d="M 485.79878,427.18408 C 485.6603,435.13027 463.98493,444.81184 434.3495,448.97768 C 404.71404,453.14352 366.4861,456.22039 326.91854,457.2811 C 285.35838,458.39523 268.60652,454.61851 232.30917,447.78601 C 205.62331,442.76272 185.11286,435.01023 185.11286,428.44887 C 185.11286,415.32611 255.90166,402.14622 337.66919,402.14622 C 419.43672,402.14622 485.79878,414.06134 485.79878,427.18408 z"
         style="opacity:0.98999999;fill:#ff0000;fill-opacity:1;stroke:#000000;stroke-width:44.37359619;stroke-miterlimit:4;stroke-dasharray:none;stroke-opacity:1" />
      <path
         sodipodi:nodetypes="cs"
         id="path7103"
         d="M 339.99524,182.73333 C 345.55852,170.35129 352.24337,162.75496 366.99134,155.85494"
         style="fill:none;fill-rule:evenodd;stroke:#000000;stroke-width:44.37358856;stroke-linecap:round;stroke-linejoin:miter;stroke-miterlimit:4;stroke-dasharray:none;stroke-opacity:1" />
      <path
         inkscape:transform-center-y="-1.1972431e-05"
         inkscape:transform-center-x="2.9632495"
         sodipodi:nodetypes="csss"
         id="path7105"
         d="M 340.0109,178.43024 C 341.11022,175.53886 341.53585,174.20203 343.07592,170.42603 C 346.78183,161.3397 346.27012,162.95066 348.117,158.83047 C 348.85273,157.18913 349.86931,155.40344 350.31456,154.08691"
         style="fill:#ff0000;fill-rule:evenodd;stroke:#000000;stroke-width:44.37358856;stroke-linecap:round;stroke-linejoin:miter;stroke-miterlimit:4;stroke-dasharray:none;stroke-opacity:1" />
      <path
         inkscape:transform-center-y="1.9036759e-05"
         inkscape:transform-center-x="-3.1503658"
         sodipodi:nodetypes="csss"
         id="path7107"
         d="M 337.93511,178.01052 C 336.76637,175.04185 336.31385,173.66931 334.67653,169.79237 C 330.73662,160.4632 331.28064,162.11721 329.31715,157.88691 C 328.53494,156.20168 327.45417,154.36828 326.9808,153.01656"
         style="fill:#ff0000;fill-rule:evenodd;stroke:#000000;stroke-width:44.37358856;stroke-linecap:round;stroke-linejoin:miter;stroke-miterlimit:4;stroke-dasharray:none;stroke-opacity:1" />
      <path
         sodipodi:nodetypes="cs"
         id="path7109"
         d="M 337.46802,181.82546 C 332.89586,169.44653 324.24495,160.19894 309.97901,154.24291"
         style="fill:none;fill-rule:evenodd;stroke:#000000;stroke-width:44.37358856;stroke-linecap:round;stroke-linejoin:miter;stroke-miterlimit:4;stroke-dasharray:none;stroke-opacity:1" />
    </g>
    <g
       id="g7111"
       inkscape:label="Calque 1"
       transform="matrix(6.4699102e-2,0,0,7.0647205e-2,298.2927,230.11884)">
      <path
         sodipodi:nodetypes="csssssssscccccccssc"
         id="path7113"
         d="M 255.97514,245.45787 C 261.70544,243.85778 272.15137,240.84524 289.17079,232.12058 C 298.83412,227.16688 309.48215,221.59313 314.6511,215.39079 C 319.82005,209.18845 329.42534,200.0223 338.20402,185.95285 C 344.55955,175.76695 330.48467,175.40585 338.17785,186.21974 C 344.36306,194.91396 351.48482,208.09579 359.83166,215.18317 C 370.86912,224.55519 380.31641,231.13972 388.50338,235.36127 C 398.76581,240.65301 414.79882,243.48302 425.60762,246.89022 C 436.41642,250.29742 443.01821,252.3496 448.49384,254.2703 C 469.29172,261.5656 460.5463,260.21965 473.02211,265.96874 C 504.3196,279.61002 535.58298,320.3374 535.58298,347.56823 L 535.58298,354.07445 C 535.58298,408.5361 471.9662,452.38068 392.94446,452.38068 L 276.82456,452.38068 C 197.80282,452.38068 134.18605,408.5361 134.18605,354.07445 L 134.18605,347.56823 C 134.18605,320.3374 150.09024,297.02951 175.87215,279.26065 C 188.76311,270.37624 199.49979,266.39827 216.14086,260.12952 C 232.55793,253.94514 234.95697,254.39562 255.97514,245.45787 z"
         style="opacity:0.98999999;fill:#ff0000;fill-opacity:1;stroke:#000000;stroke-width:44.37358856;stroke-miterlimit:4;stroke-dasharray:none;stroke-opacity:1" />
      <path
         sodipodi:nodetypes="cssscsc"
         id="path7115"
         d="M 485.79878,427.18408 C 485.6603,435.13027 463.98493,444.81184 434.3495,448.97768 C 404.71404,453.14352 366.4861,456.22039 326.91854,457.2811 C 285.35838,458.39523 268.60652,454.61851 232.30917,447.78601 C 205.62331,442.76272 185.11286,435.01023 185.11286,428.44887 C 185.11286,415.32611 255.90166,402.14622 337.66919,402.14622 C 419.43672,402.14622 485.79878,414.06134 485.79878,427.18408 z"
         style="opacity:0.98999999;fill:#ff0000;fill-opacity:1;stroke:#000000;stroke-width:44.37359619;stroke-miterlimit:4;stroke-dasharray:none;stroke-opacity:1" />
      <path
         sodipodi:nodetypes="cs"
         id="path7117"
         d="M 339.99524,182.73333 C 345.55852,170.35129 352.24337,162.75496 366.99134,155.85494"
         style="fill:none;fill-rule:evenodd;stroke:#000000;stroke-width:44.37358856;stroke-linecap:round;stroke-linejoin:miter;stroke-miterlimit:4;stroke-dasharray:none;stroke-opacity:1" />
      <path
         inkscape:transform-center-y="-1.1972431e-05"
         inkscape:transform-center-x="2.9632495"
         sodipodi:nodetypes="csss"
         id="path7119"
         d="M 340.0109,178.43024 C 341.11022,175.53886 341.53585,174.20203 343.07592,170.42603 C 346.78183,161.3397 346.27012,162.95066 348.117,158.83047 C 348.85273,157.18913 349.86931,155.40344 350.31456,154.08691"
         style="fill:#ff0000;fill-rule:evenodd;stroke:#000000;stroke-width:44.37358856;stroke-linecap:round;stroke-linejoin:miter;stroke-miterlimit:4;stroke-dasharray:none;stroke-opacity:1" />
      <path
         inkscape:transform-center-y="1.9036759e-05"
         inkscape:transform-center-x="-3.1503658"
         sodipodi:nodetypes="csss"
         id="path7121"
         d="M 337.93511,178.01052 C 336.76637,175.04185 336.31385,173.66931 334.67653,169.79237 C 330.73662,160.4632 331.28064,162.11721 329.31715,157.88691 C 328.53494,156.20168 327.45417,154.36828 326.9808,153.01656"
         style="fill:#ff0000;fill-rule:evenodd;stroke:#000000;stroke-width:44.37358856;stroke-linecap:round;stroke-linejoin:miter;stroke-miterlimit:4;stroke-dasharray:none;stroke-opacity:1" />
      <path
         sodipodi:nodetypes="cs"
         id="path7123"
         d="M 337.46802,181.82546 C 332.89586,169.44653 324.24495,160.19894 309.97901,154.24291"
         style="fill:none;fill-rule:evenodd;stroke:#000000;stroke-width:44.37358856;stroke-linecap:round;stroke-linejoin:miter;stroke-miterlimit:4;stroke-dasharray:none;stroke-opacity:1" />
    </g>
    <g
       id="g7125"
       inkscape:label="Calque 1"
       transform="matrix(6.4699102e-2,0,0,7.0647205e-2,280.88905,260.90991)">
      <path
         sodipodi:nodetypes="csssssssscccccccssc"
         id="path7127"
         d="M 255.97514,245.45787 C 261.70544,243.85778 272.15137,240.84524 289.17079,232.12058 C 298.83412,227.16688 309.48215,221.59313 314.6511,215.39079 C 319.82005,209.18845 329.42534,200.0223 338.20402,185.95285 C 344.55955,175.76695 330.48467,175.40585 338.17785,186.21974 C 344.36306,194.91396 351.48482,208.09579 359.83166,215.18317 C 370.86912,224.55519 380.31641,231.13972 388.50338,235.36127 C 398.76581,240.65301 414.79882,243.48302 425.60762,246.89022 C 436.41642,250.29742 443.01821,252.3496 448.49384,254.2703 C 469.29172,261.5656 460.5463,260.21965 473.02211,265.96874 C 504.3196,279.61002 535.58298,320.3374 535.58298,347.56823 L 535.58298,354.07445 C 535.58298,408.5361 471.9662,452.38068 392.94446,452.38068 L 276.82456,452.38068 C 197.80282,452.38068 134.18605,408.5361 134.18605,354.07445 L 134.18605,347.56823 C 134.18605,320.3374 150.09024,297.02951 175.87215,279.26065 C 188.76311,270.37624 199.49979,266.39827 216.14086,260.12952 C 232.55793,253.94514 234.95697,254.39562 255.97514,245.45787 z"
         style="opacity:0.98999999;fill:#ff0000;fill-opacity:1;stroke:#000000;stroke-width:44.37358856;stroke-miterlimit:4;stroke-dasharray:none;stroke-opacity:1" />
      <path
         sodipodi:nodetypes="cssscsc"
         id="path7129"
         d="M 485.79878,427.18408 C 485.6603,435.13027 463.98493,444.81184 434.3495,448.97768 C 404.71404,453.14352 366.4861,456.22039 326.91854,457.2811 C 285.35838,458.39523 268.60652,454.61851 232.30917,447.78601 C 205.62331,442.76272 185.11286,435.01023 185.11286,428.44887 C 185.11286,415.32611 255.90166,402.14622 337.66919,402.14622 C 419.43672,402.14622 485.79878,414.06134 485.79878,427.18408 z"
         style="opacity:0.98999999;fill:#ff0000;fill-opacity:1;stroke:#000000;stroke-width:44.37359619;stroke-miterlimit:4;stroke-dasharray:none;stroke-opacity:1" />
      <path
         sodipodi:nodetypes="cs"
         id="path7131"
         d="M 339.99524,182.73333 C 345.55852,170.35129 352.24337,162.75496 366.99134,155.85494"
         style="fill:none;fill-rule:evenodd;stroke:#000000;stroke-width:44.37358856;stroke-linecap:round;stroke-linejoin:miter;stroke-miterlimit:4;stroke-dasharray:none;stroke-opacity:1" />
      <path
         inkscape:transform-center-y="-1.1972431e-05"
         inkscape:transform-center-x="2.9632495"
         sodipodi:nodetypes="csss"
         id="path7133"
         d="M 340.0109,178.43024 C 341.11022,175.53886 341.53585,174.20203 343.07592,170.42603 C 346.78183,161.3397 346.27012,162.95066 348.117,158.83047 C 348.85273,157.18913 349.86931,155.40344 350.31456,154.08691"
         style="fill:#ff0000;fill-rule:evenodd;stroke:#000000;stroke-width:44.37358856;stroke-linecap:round;stroke-linejoin:miter;stroke-miterlimit:4;stroke-dasharray:none;stroke-opacity:1" />
      <path
         inkscape:transform-center-y="1.9036759e-05"
         inkscape:transform-center-x="-3.1503658"
         sodipodi:nodetypes="csss"
         id="path7135"
         d="M 337.93511,178.01052 C 336.76637,175.04185 336.31385,173.66931 334.67653,169.79237 C 330.73662,160.4632 331.28064,162.11721 329.31715,157.88691 C 328.53494,156.20168 327.45417,154.36828 326.9808,153.01656"
         style="fill:#ff0000;fill-rule:evenodd;stroke:#000000;stroke-width:44.37358856;stroke-linecap:round;stroke-linejoin:miter;stroke-miterlimit:4;stroke-dasharray:none;stroke-opacity:1" />
      <path
         sodipodi:nodetypes="cs"
         id="path7137"
         d="M 337.46802,181.82546 C 332.89586,169.44653 324.24495,160.19894 309.97901,154.24291"
         style="fill:none;fill-rule:evenodd;stroke:#000000;stroke-width:44.37358856;stroke-linecap:round;stroke-linejoin:miter;stroke-miterlimit:4;stroke-dasharray:none;stroke-opacity:1" />
    </g>
    <g
       id="g7139"
       inkscape:label="Calque 1"
       transform="matrix(6.4699102e-2,0,0,7.0647205e-2,333.10001,255.55494)">
      <path
         sodipodi:nodetypes="csssssssscccccccssc"
         id="path7141"
         d="M 255.97514,245.45787 C 261.70544,243.85778 272.15137,240.84524 289.17079,232.12058 C 298.83412,227.16688 309.48215,221.59313 314.6511,215.39079 C 319.82005,209.18845 329.42534,200.0223 338.20402,185.95285 C 344.55955,175.76695 330.48467,175.40585 338.17785,186.21974 C 344.36306,194.91396 351.48482,208.09579 359.83166,215.18317 C 370.86912,224.55519 380.31641,231.13972 388.50338,235.36127 C 398.76581,240.65301 414.79882,243.48302 425.60762,246.89022 C 436.41642,250.29742 443.01821,252.3496 448.49384,254.2703 C 469.29172,261.5656 460.5463,260.21965 473.02211,265.96874 C 504.3196,279.61002 535.58298,320.3374 535.58298,347.56823 L 535.58298,354.07445 C 535.58298,408.5361 471.9662,452.38068 392.94446,452.38068 L 276.82456,452.38068 C 197.80282,452.38068 134.18605,408.5361 134.18605,354.07445 L 134.18605,347.56823 C 134.18605,320.3374 150.09024,297.02951 175.87215,279.26065 C 188.76311,270.37624 199.49979,266.39827 216.14086,260.12952 C 232.55793,253.94514 234.95697,254.39562 255.97514,245.45787 z"
         style="opacity:0.98999999;fill:#ff0000;fill-opacity:1;stroke:#000000;stroke-width:44.37358856;stroke-miterlimit:4;stroke-dasharray:none;stroke-opacity:1" />
      <path
         sodipodi:nodetypes="cssscsc"
         id="path7143"
         d="M 485.79878,427.18408 C 485.6603,435.13027 463.98493,444.81184 434.3495,448.97768 C 404.71404,453.14352 366.4861,456.22039 326.91854,457.2811 C 285.35838,458.39523 268.60652,454.61851 232.30917,447.78601 C 205.62331,442.76272 185.11286,435.01023 185.11286,428.44887 C 185.11286,415.32611 255.90166,402.14622 337.66919,402.14622 C 419.43672,402.14622 485.79878,414.06134 485.79878,427.18408 z"
         style="opacity:0.98999999;fill:#ff0000;fill-opacity:1;stroke:#000000;stroke-width:44.37359619;stroke-miterlimit:4;stroke-dasharray:none;stroke-opacity:1" />
      <path
         sodipodi:nodetypes="cs"
         id="path7145"
         d="M 339.99524,182.73333 C 345.55852,170.35129 352.24337,162.75496 366.99134,155.85494"
         style="fill:none;fill-rule:evenodd;stroke:#000000;stroke-width:44.37358856;stroke-linecap:round;stroke-linejoin:miter;stroke-miterlimit:4;stroke-dasharray:none;stroke-opacity:1" />
      <path
         inkscape:transform-center-y="-1.1972431e-05"
         inkscape:transform-center-x="2.9632495"
         sodipodi:nodetypes="csss"
         id="path7147"
         d="M 340.0109,178.43024 C 341.11022,175.53886 341.53585,174.20203 343.07592,170.42603 C 346.78183,161.3397 346.27012,162.95066 348.117,158.83047 C 348.85273,157.18913 349.86931,155.40344 350.31456,154.08691"
         style="fill:#ff0000;fill-rule:evenodd;stroke:#000000;stroke-width:44.37358856;stroke-linecap:round;stroke-linejoin:miter;stroke-miterlimit:4;stroke-dasharray:none;stroke-opacity:1" />
      <path
         inkscape:transform-center-y="1.9036759e-05"
         inkscape:transform-center-x="-3.1503658"
         sodipodi:nodetypes="csss"
         id="path7149"
         d="M 337.93511,178.01052 C 336.76637,175.04185 336.31385,173.66931 334.67653,169.79237 C 330.73662,160.4632 331.28064,162.11721 329.31715,157.88691 C 328.53494,156.20168 327.45417,154.36828 326.9808,153.01656"
         style="fill:#ff0000;fill-rule:evenodd;stroke:#000000;stroke-width:44.37358856;stroke-linecap:round;stroke-linejoin:miter;stroke-miterlimit:4;stroke-dasharray:none;stroke-opacity:1" />
      <path
         sodipodi:nodetypes="cs"
         id="path7151"
         d="M 337.46802,181.82546 C 332.89586,169.44653 324.24495,160.19894 309.97901,154.24291"
         style="fill:none;fill-rule:evenodd;stroke:#000000;stroke-width:44.37358856;stroke-linecap:round;stroke-linejoin:miter;stroke-miterlimit:4;stroke-dasharray:none;stroke-opacity:1" />
    </g>
    <g
       id="g7153"
       inkscape:label="Calque 1"
       transform="matrix(6.4699102e-2,0,0,7.0647205e-2,184.4996,321.15332)">
      <path
         sodipodi:nodetypes="csssssssscccccccssc"
         id="path7155"
         d="M 255.97514,245.45787 C 261.70544,243.85778 272.15137,240.84524 289.17079,232.12058 C 298.83412,227.16688 309.48215,221.59313 314.6511,215.39079 C 319.82005,209.18845 329.42534,200.0223 338.20402,185.95285 C 344.55955,175.76695 330.48467,175.40585 338.17785,186.21974 C 344.36306,194.91396 351.48482,208.09579 359.83166,215.18317 C 370.86912,224.55519 380.31641,231.13972 388.50338,235.36127 C 398.76581,240.65301 414.79882,243.48302 425.60762,246.89022 C 436.41642,250.29742 443.01821,252.3496 448.49384,254.2703 C 469.29172,261.5656 460.5463,260.21965 473.02211,265.96874 C 504.3196,279.61002 535.58298,320.3374 535.58298,347.56823 L 535.58298,354.07445 C 535.58298,408.5361 471.9662,452.38068 392.94446,452.38068 L 276.82456,452.38068 C 197.80282,452.38068 134.18605,408.5361 134.18605,354.07445 L 134.18605,347.56823 C 134.18605,320.3374 150.09024,297.02951 175.87215,279.26065 C 188.76311,270.37624 199.49979,266.39827 216.14086,260.12952 C 232.55793,253.94514 234.95697,254.39562 255.97514,245.45787 z"
         style="opacity:0.98999999;fill:#ff0000;fill-opacity:1;stroke:#000000;stroke-width:44.37358856;stroke-miterlimit:4;stroke-dasharray:none;stroke-opacity:1" />
      <path
         sodipodi:nodetypes="cssscsc"
         id="path7157"
         d="M 485.79878,427.18408 C 485.6603,435.13027 463.98493,444.81184 434.3495,448.97768 C 404.71404,453.14352 366.4861,456.22039 326.91854,457.2811 C 285.35838,458.39523 268.60652,454.61851 232.30917,447.78601 C 205.62331,442.76272 185.11286,435.01023 185.11286,428.44887 C 185.11286,415.32611 255.90166,402.14622 337.66919,402.14622 C 419.43672,402.14622 485.79878,414.06134 485.79878,427.18408 z"
         style="opacity:0.98999999;fill:#ff0000;fill-opacity:1;stroke:#000000;stroke-width:44.37359619;stroke-miterlimit:4;stroke-dasharray:none;stroke-opacity:1" />
      <path
         sodipodi:nodetypes="cs"
         id="path7159"
         d="M 339.99524,182.73333 C 345.55852,170.35129 352.24337,162.75496 366.99134,155.85494"
         style="fill:none;fill-rule:evenodd;stroke:#000000;stroke-width:44.37358856;stroke-linecap:round;stroke-linejoin:miter;stroke-miterlimit:4;stroke-dasharray:none;stroke-opacity:1" />
      <path
         inkscape:transform-center-y="-1.1972431e-05"
         inkscape:transform-center-x="2.9632495"
         sodipodi:nodetypes="csss"
         id="path7161"
         d="M 340.0109,178.43024 C 341.11022,175.53886 341.53585,174.20203 343.07592,170.42603 C 346.78183,161.3397 346.27012,162.95066 348.117,158.83047 C 348.85273,157.18913 349.86931,155.40344 350.31456,154.08691"
         style="fill:#ff0000;fill-rule:evenodd;stroke:#000000;stroke-width:44.37358856;stroke-linecap:round;stroke-linejoin:miter;stroke-miterlimit:4;stroke-dasharray:none;stroke-opacity:1" />
      <path
         inkscape:transform-center-y="1.9036759e-05"
         inkscape:transform-center-x="-3.1503658"
         sodipodi:nodetypes="csss"
         id="path7163"
         d="M 337.93511,178.01052 C 336.76637,175.04185 336.31385,173.66931 334.67653,169.79237 C 330.73662,160.4632 331.28064,162.11721 329.31715,157.88691 C 328.53494,156.20168 327.45417,154.36828 326.9808,153.01656"
         style="fill:#ff0000;fill-rule:evenodd;stroke:#000000;stroke-width:44.37358856;stroke-linecap:round;stroke-linejoin:miter;stroke-miterlimit:4;stroke-dasharray:none;stroke-opacity:1" />
      <path
         sodipodi:nodetypes="cs"
         id="path7165"
         d="M 337.46802,181.82546 C 332.89586,169.44653 324.24495,160.19894 309.97901,154.24291"
         style="fill:none;fill-rule:evenodd;stroke:#000000;stroke-width:44.37358856;stroke-linecap:round;stroke-linejoin:miter;stroke-miterlimit:4;stroke-dasharray:none;stroke-opacity:1" />
    </g>
    <g
       id="g7167"
       inkscape:label="Calque 1"
       transform="matrix(6.4699102e-2,0,0,7.0647205e-2,238.0493,303.74966)">
      <path
         sodipodi:nodetypes="csssssssscccccccssc"
         id="path7169"
         d="M 255.97514,245.45787 C 261.70544,243.85778 272.15137,240.84524 289.17079,232.12058 C 298.83412,227.16688 309.48215,221.59313 314.6511,215.39079 C 319.82005,209.18845 329.42534,200.0223 338.20402,185.95285 C 344.55955,175.76695 330.48467,175.40585 338.17785,186.21974 C 344.36306,194.91396 351.48482,208.09579 359.83166,215.18317 C 370.86912,224.55519 380.31641,231.13972 388.50338,235.36127 C 398.76581,240.65301 414.79882,243.48302 425.60762,246.89022 C 436.41642,250.29742 443.01821,252.3496 448.49384,254.2703 C 469.29172,261.5656 460.5463,260.21965 473.02211,265.96874 C 504.3196,279.61002 535.58298,320.3374 535.58298,347.56823 L 535.58298,354.07445 C 535.58298,408.5361 471.9662,452.38068 392.94446,452.38068 L 276.82456,452.38068 C 197.80282,452.38068 134.18605,408.5361 134.18605,354.07445 L 134.18605,347.56823 C 134.18605,320.3374 150.09024,297.02951 175.87215,279.26065 C 188.76311,270.37624 199.49979,266.39827 216.14086,260.12952 C 232.55793,253.94514 234.95697,254.39562 255.97514,245.45787 z"
         style="opacity:0.98999999;fill:#ff0000;fill-opacity:1;stroke:#000000;stroke-width:44.37358856;stroke-miterlimit:4;stroke-dasharray:none;stroke-opacity:1" />
      <path
         sodipodi:nodetypes="cssscsc"
         id="path7171"
         d="M 485.79878,427.18408 C 485.6603,435.13027 463.98493,444.81184 434.3495,448.97768 C 404.71404,453.14352 366.4861,456.22039 326.91854,457.2811 C 285.35838,458.39523 268.60652,454.61851 232.30917,447.78601 C 205.62331,442.76272 185.11286,435.01023 185.11286,428.44887 C 185.11286,415.32611 255.90166,402.14622 337.66919,402.14622 C 419.43672,402.14622 485.79878,414.06134 485.79878,427.18408 z"
         style="opacity:0.98999999;fill:#ff0000;fill-opacity:1;stroke:#000000;stroke-width:44.37359619;stroke-miterlimit:4;stroke-dasharray:none;stroke-opacity:1" />
      <path
         sodipodi:nodetypes="cs"
         id="path7173"
         d="M 339.99524,182.73333 C 345.55852,170.35129 352.24337,162.75496 366.99134,155.85494"
         style="fill:none;fill-rule:evenodd;stroke:#000000;stroke-width:44.37358856;stroke-linecap:round;stroke-linejoin:miter;stroke-miterlimit:4;stroke-dasharray:none;stroke-opacity:1" />
      <path
         inkscape:transform-center-y="-1.1972431e-05"
         inkscape:transform-center-x="2.9632495"
         sodipodi:nodetypes="csss"
         id="path7175"
         d="M 340.0109,178.43024 C 341.11022,175.53886 341.53585,174.20203 343.07592,170.42603 C 346.78183,161.3397 346.27012,162.95066 348.117,158.83047 C 348.85273,157.18913 349.86931,155.40344 350.31456,154.08691"
         style="fill:#ff0000;fill-rule:evenodd;stroke:#000000;stroke-width:44.37358856;stroke-linecap:round;stroke-linejoin:miter;stroke-miterlimit:4;stroke-dasharray:none;stroke-opacity:1" />
      <path
         inkscape:transform-center-y="1.9036759e-05"
         inkscape:transform-center-x="-3.1503658"
         sodipodi:nodetypes="csss"
         id="path7177"
         d="M 337.93511,178.01052 C 336.76637,175.04185 336.31385,173.66931 334.67653,169.79237 C 330.73662,160.4632 331.28064,162.11721 329.31715,157.88691 C 328.53494,156.20168 327.45417,154.36828 326.9808,153.01656"
         style="fill:#ff0000;fill-rule:evenodd;stroke:#000000;stroke-width:44.37358856;stroke-linecap:round;stroke-linejoin:miter;stroke-miterlimit:4;stroke-dasharray:none;stroke-opacity:1" />
      <path
         sodipodi:nodetypes="cs"
         id="path7179"
         d="M 337.46802,181.82546 C 332.89586,169.44653 324.24495,160.19894 309.97901,154.24291"
         style="fill:none;fill-rule:evenodd;stroke:#000000;stroke-width:44.37358856;stroke-linecap:round;stroke-linejoin:miter;stroke-miterlimit:4;stroke-dasharray:none;stroke-opacity:1" />
    </g>
    <g
       id="g7181"
       inkscape:label="Calque 1"
       transform="matrix(6.4699102e-2,0,0,7.0647205e-2,211.27445,346.58942)">
      <path
         sodipodi:nodetypes="csssssssscccccccssc"
         id="path7183"
         d="M 255.97514,245.45787 C 261.70544,243.85778 272.15137,240.84524 289.17079,232.12058 C 298.83412,227.16688 309.48215,221.59313 314.6511,215.39079 C 319.82005,209.18845 329.42534,200.0223 338.20402,185.95285 C 344.55955,175.76695 330.48467,175.40585 338.17785,186.21974 C 344.36306,194.91396 351.48482,208.09579 359.83166,215.18317 C 370.86912,224.55519 380.31641,231.13972 388.50338,235.36127 C 398.76581,240.65301 414.79882,243.48302 425.60762,246.89022 C 436.41642,250.29742 443.01821,252.3496 448.49384,254.2703 C 469.29172,261.5656 460.5463,260.21965 473.02211,265.96874 C 504.3196,279.61002 535.58298,320.3374 535.58298,347.56823 L 535.58298,354.07445 C 535.58298,408.5361 471.9662,452.38068 392.94446,452.38068 L 276.82456,452.38068 C 197.80282,452.38068 134.18605,408.5361 134.18605,354.07445 L 134.18605,347.56823 C 134.18605,320.3374 150.09024,297.02951 175.87215,279.26065 C 188.76311,270.37624 199.49979,266.39827 216.14086,260.12952 C 232.55793,253.94514 234.95697,254.39562 255.97514,245.45787 z"
         style="opacity:0.98999999;fill:#ff0000;fill-opacity:1;stroke:#000000;stroke-width:44.37358856;stroke-miterlimit:4;stroke-dasharray:none;stroke-opacity:1" />
      <path
         sodipodi:nodetypes="cssscsc"
         id="path7185"
         d="M 485.79878,427.18408 C 485.6603,435.13027 463.98493,444.81184 434.3495,448.97768 C 404.71404,453.14352 366.4861,456.22039 326.91854,457.2811 C 285.35838,458.39523 268.60652,454.61851 232.30917,447.78601 C 205.62331,442.76272 185.11286,435.01023 185.11286,428.44887 C 185.11286,415.32611 255.90166,402.14622 337.66919,402.14622 C 419.43672,402.14622 485.79878,414.06134 485.79878,427.18408 z"
         style="opacity:0.98999999;fill:#ff0000;fill-opacity:1;stroke:#000000;stroke-width:44.37359619;stroke-miterlimit:4;stroke-dasharray:none;stroke-opacity:1" />
      <path
         sodipodi:nodetypes="cs"
         id="path7187"
         d="M 339.99524,182.73333 C 345.55852,170.35129 352.24337,162.75496 366.99134,155.85494"
         style="fill:none;fill-rule:evenodd;stroke:#000000;stroke-width:44.37358856;stroke-linecap:round;stroke-linejoin:miter;stroke-miterlimit:4;stroke-dasharray:none;stroke-opacity:1" />
      <path
         inkscape:transform-center-y="-1.1972431e-05"
         inkscape:transform-center-x="2.9632495"
         sodipodi:nodetypes="csss"
         id="path7189"
         d="M 340.0109,178.43024 C 341.11022,175.53886 341.53585,174.20203 343.07592,170.42603 C 346.78183,161.3397 346.27012,162.95066 348.117,158.83047 C 348.85273,157.18913 349.86931,155.40344 350.31456,154.08691"
         style="fill:#ff0000;fill-rule:evenodd;stroke:#000000;stroke-width:44.37358856;stroke-linecap:round;stroke-linejoin:miter;stroke-miterlimit:4;stroke-dasharray:none;stroke-opacity:1" />
      <path
         inkscape:transform-center-y="1.9036759e-05"
         inkscape:transform-center-x="-3.1503658"
         sodipodi:nodetypes="csss"
         id="path7191"
         d="M 337.93511,178.01052 C 336.76637,175.04185 336.31385,173.66931 334.67653,169.79237 C 330.73662,160.4632 331.28064,162.11721 329.31715,157.88691 C 328.53494,156.20168 327.45417,154.36828 326.9808,153.01656"
         style="fill:#ff0000;fill-rule:evenodd;stroke:#000000;stroke-width:44.37358856;stroke-linecap:round;stroke-linejoin:miter;stroke-miterlimit:4;stroke-dasharray:none;stroke-opacity:1" />
      <path
         sodipodi:nodetypes="cs"
         id="path7193"
         d="M 337.46802,181.82546 C 332.89586,169.44653 324.24495,160.19894 309.97901,154.24291"
         style="fill:none;fill-rule:evenodd;stroke:#000000;stroke-width:44.37358856;stroke-linecap:round;stroke-linejoin:miter;stroke-miterlimit:4;stroke-dasharray:none;stroke-opacity:1" />
    </g>
    <g
       id="g7195"
       inkscape:label="Calque 1"
       transform="matrix(6.4699102e-2,0,0,7.0647205e-2,201.90325,382.73547)">
      <path
         sodipodi:nodetypes="csssssssscccccccssc"
         id="path7197"
         d="M 255.97514,245.45787 C 261.70544,243.85778 272.15137,240.84524 289.17079,232.12058 C 298.83412,227.16688 309.48215,221.59313 314.6511,215.39079 C 319.82005,209.18845 329.42534,200.0223 338.20402,185.95285 C 344.55955,175.76695 330.48467,175.40585 338.17785,186.21974 C 344.36306,194.91396 351.48482,208.09579 359.83166,215.18317 C 370.86912,224.55519 380.31641,231.13972 388.50338,235.36127 C 398.76581,240.65301 414.79882,243.48302 425.60762,246.89022 C 436.41642,250.29742 443.01821,252.3496 448.49384,254.2703 C 469.29172,261.5656 460.5463,260.21965 473.02211,265.96874 C 504.3196,279.61002 535.58298,320.3374 535.58298,347.56823 L 535.58298,354.07445 C 535.58298,408.5361 471.9662,452.38068 392.94446,452.38068 L 276.82456,452.38068 C 197.80282,452.38068 134.18605,408.5361 134.18605,354.07445 L 134.18605,347.56823 C 134.18605,320.3374 150.09024,297.02951 175.87215,279.26065 C 188.76311,270.37624 199.49979,266.39827 216.14086,260.12952 C 232.55793,253.94514 234.95697,254.39562 255.97514,245.45787 z"
         style="opacity:0.98999999;fill:#ff0000;fill-opacity:1;stroke:#000000;stroke-width:44.37358856;stroke-miterlimit:4;stroke-dasharray:none;stroke-opacity:1" />
      <path
         sodipodi:nodetypes="cssscsc"
         id="path7199"
         d="M 485.79878,427.18408 C 485.6603,435.13027 463.98493,444.81184 434.3495,448.97768 C 404.71404,453.14352 366.4861,456.22039 326.91854,457.2811 C 285.35838,458.39523 268.60652,454.61851 232.30917,447.78601 C 205.62331,442.76272 185.11286,435.01023 185.11286,428.44887 C 185.11286,415.32611 255.90166,402.14622 337.66919,402.14622 C 419.43672,402.14622 485.79878,414.06134 485.79878,427.18408 z"
         style="opacity:0.98999999;fill:#ff0000;fill-opacity:1;stroke:#000000;stroke-width:44.37359619;stroke-miterlimit:4;stroke-dasharray:none;stroke-opacity:1" />
      <path
         sodipodi:nodetypes="cs"
         id="path7201"
         d="M 339.99524,182.73333 C 345.55852,170.35129 352.24337,162.75496 366.99134,155.85494"
         style="fill:none;fill-rule:evenodd;stroke:#000000;stroke-width:44.37358856;stroke-linecap:round;stroke-linejoin:miter;stroke-miterlimit:4;stroke-dasharray:none;stroke-opacity:1" />
      <path
         inkscape:transform-center-y="-1.1972431e-05"
         inkscape:transform-center-x="2.9632495"
         sodipodi:nodetypes="csss"
         id="path7203"
         d="M 340.0109,178.43024 C 341.11022,175.53886 341.53585,174.20203 343.07592,170.42603 C 346.78183,161.3397 346.27012,162.95066 348.117,158.83047 C 348.85273,157.18913 349.86931,155.40344 350.31456,154.08691"
         style="fill:#ff0000;fill-rule:evenodd;stroke:#000000;stroke-width:44.37358856;stroke-linecap:round;stroke-linejoin:miter;stroke-miterlimit:4;stroke-dasharray:none;stroke-opacity:1" />
      <path
         inkscape:transform-center-y="1.9036759e-05"
         inkscape:transform-center-x="-3.1503658"
         sodipodi:nodetypes="csss"
         id="path7205"
         d="M 337.93511,178.01052 C 336.76637,175.04185 336.31385,173.66931 334.67653,169.79237 C 330.73662,160.4632 331.28064,162.11721 329.31715,157.88691 C 328.53494,156.20168 327.45417,154.36828 326.9808,153.01656"
         style="fill:#ff0000;fill-rule:evenodd;stroke:#000000;stroke-width:44.37358856;stroke-linecap:round;stroke-linejoin:miter;stroke-miterlimit:4;stroke-dasharray:none;stroke-opacity:1" />
      <path
         sodipodi:nodetypes="cs"
         id="path7207"
         d="M 337.46802,181.82546 C 332.89586,169.44653 324.24495,160.19894 309.97901,154.24291"
         style="fill:none;fill-rule:evenodd;stroke:#000000;stroke-width:44.37358856;stroke-linecap:round;stroke-linejoin:miter;stroke-miterlimit:4;stroke-dasharray:none;stroke-opacity:1" />
    </g>
    <g
       id="g7209"
       inkscape:label="Calque 1"
       transform="matrix(6.4699102e-2,0,0,7.0647205e-2,292.93774,299.73344)">
      <path
         sodipodi:nodetypes="csssssssscccccccssc"
         id="path7211"
         d="M 255.97514,245.45787 C 261.70544,243.85778 272.15137,240.84524 289.17079,232.12058 C 298.83412,227.16688 309.48215,221.59313 314.6511,215.39079 C 319.82005,209.18845 329.42534,200.0223 338.20402,185.95285 C 344.55955,175.76695 330.48467,175.40585 338.17785,186.21974 C 344.36306,194.91396 351.48482,208.09579 359.83166,215.18317 C 370.86912,224.55519 380.31641,231.13972 388.50338,235.36127 C 398.76581,240.65301 414.79882,243.48302 425.60762,246.89022 C 436.41642,250.29742 443.01821,252.3496 448.49384,254.2703 C 469.29172,261.5656 460.5463,260.21965 473.02211,265.96874 C 504.3196,279.61002 535.58298,320.3374 535.58298,347.56823 L 535.58298,354.07445 C 535.58298,408.5361 471.9662,452.38068 392.94446,452.38068 L 276.82456,452.38068 C 197.80282,452.38068 134.18605,408.5361 134.18605,354.07445 L 134.18605,347.56823 C 134.18605,320.3374 150.09024,297.02951 175.87215,279.26065 C 188.76311,270.37624 199.49979,266.39827 216.14086,260.12952 C 232.55793,253.94514 234.95697,254.39562 255.97514,245.45787 z"
         style="opacity:0.98999999;fill:#ff0000;fill-opacity:1;stroke:#000000;stroke-width:44.37358856;stroke-miterlimit:4;stroke-dasharray:none;stroke-opacity:1" />
      <path
         sodipodi:nodetypes="cssscsc"
         id="path7213"
         d="M 485.79878,427.18408 C 485.6603,435.13027 463.98493,444.81184 434.3495,448.97768 C 404.71404,453.14352 366.4861,456.22039 326.91854,457.2811 C 285.35838,458.39523 268.60652,454.61851 232.30917,447.78601 C 205.62331,442.76272 185.11286,435.01023 185.11286,428.44887 C 185.11286,415.32611 255.90166,402.14622 337.66919,402.14622 C 419.43672,402.14622 485.79878,414.06134 485.79878,427.18408 z"
         style="opacity:0.98999999;fill:#ff0000;fill-opacity:1;stroke:#000000;stroke-width:44.37359619;stroke-miterlimit:4;stroke-dasharray:none;stroke-opacity:1" />
      <path
         sodipodi:nodetypes="cs"
         id="path7215"
         d="M 339.99524,182.73333 C 345.55852,170.35129 352.24337,162.75496 366.99134,155.85494"
         style="fill:none;fill-rule:evenodd;stroke:#000000;stroke-width:44.37358856;stroke-linecap:round;stroke-linejoin:miter;stroke-miterlimit:4;stroke-dasharray:none;stroke-opacity:1" />
      <path
         inkscape:transform-center-y="-1.1972431e-05"
         inkscape:transform-center-x="2.9632495"
         sodipodi:nodetypes="csss"
         id="path7217"
         d="M 340.0109,178.43024 C 341.11022,175.53886 341.53585,174.20203 343.07592,170.42603 C 346.78183,161.3397 346.27012,162.95066 348.117,158.83047 C 348.85273,157.18913 349.86931,155.40344 350.31456,154.08691"
         style="fill:#ff0000;fill-rule:evenodd;stroke:#000000;stroke-width:44.37358856;stroke-linecap:round;stroke-linejoin:miter;stroke-miterlimit:4;stroke-dasharray:none;stroke-opacity:1" />
      <path
         inkscape:transform-center-y="1.9036759e-05"
         inkscape:transform-center-x="-3.1503658"
         sodipodi:nodetypes="csss"
         id="path7219"
         d="M 337.93511,178.01052 C 336.76637,175.04185 336.31385,173.66931 334.67653,169.79237 C 330.73662,160.4632 331.28064,162.11721 329.31715,157.88691 C 328.53494,156.20168 327.45417,154.36828 326.9808,153.01656"
         style="fill:#ff0000;fill-rule:evenodd;stroke:#000000;stroke-width:44.37358856;stroke-linecap:round;stroke-linejoin:miter;stroke-miterlimit:4;stroke-dasharray:none;stroke-opacity:1" />
      <path
         sodipodi:nodetypes="cs"
         id="path7221"
         d="M 337.46802,181.82546 C 332.89586,169.44653 324.24495,160.19894 309.97901,154.24291"
         style="fill:none;fill-rule:evenodd;stroke:#000000;stroke-width:44.37358856;stroke-linecap:round;stroke-linejoin:miter;stroke-miterlimit:4;stroke-dasharray:none;stroke-opacity:1" />
    </g>
    <g
       id="g7223"
       inkscape:label="Calque 1"
       transform="matrix(6.4699102e-2,0,0,7.0647205e-2,342.4712,294.37847)">
      <path
         sodipodi:nodetypes="csssssssscccccccssc"
         id="path7225"
         d="M 255.97514,245.45787 C 261.70544,243.85778 272.15137,240.84524 289.17079,232.12058 C 298.83412,227.16688 309.48215,221.59313 314.6511,215.39079 C 319.82005,209.18845 329.42534,200.0223 338.20402,185.95285 C 344.55955,175.76695 330.48467,175.40585 338.17785,186.21974 C 344.36306,194.91396 351.48482,208.09579 359.83166,215.18317 C 370.86912,224.55519 380.31641,231.13972 388.50338,235.36127 C 398.76581,240.65301 414.79882,243.48302 425.60762,246.89022 C 436.41642,250.29742 443.01821,252.3496 448.49384,254.2703 C 469.29172,261.5656 460.5463,260.21965 473.02211,265.96874 C 504.3196,279.61002 535.58298,320.3374 535.58298,347.56823 L 535.58298,354.07445 C 535.58298,408.5361 471.9662,452.38068 392.94446,452.38068 L 276.82456,452.38068 C 197.80282,452.38068 134.18605,408.5361 134.18605,354.07445 L 134.18605,347.56823 C 134.18605,320.3374 150.09024,297.02951 175.87215,279.26065 C 188.76311,270.37624 199.49979,266.39827 216.14086,260.12952 C 232.55793,253.94514 234.95697,254.39562 255.97514,245.45787 z"
         style="opacity:0.98999999;fill:#ff0000;fill-opacity:1;stroke:#000000;stroke-width:44.37358856;stroke-miterlimit:4;stroke-dasharray:none;stroke-opacity:1" />
      <path
         sodipodi:nodetypes="cssscsc"
         id="path7227"
         d="M 485.79878,427.18408 C 485.6603,435.13027 463.98493,444.81184 434.3495,448.97768 C 404.71404,453.14352 366.4861,456.22039 326.91854,457.2811 C 285.35838,458.39523 268.60652,454.61851 232.30917,447.78601 C 205.62331,442.76272 185.11286,435.01023 185.11286,428.44887 C 185.11286,415.32611 255.90166,402.14622 337.66919,402.14622 C 419.43672,402.14622 485.79878,414.06134 485.79878,427.18408 z"
         style="opacity:0.98999999;fill:#ff0000;fill-opacity:1;stroke:#000000;stroke-width:44.37359619;stroke-miterlimit:4;stroke-dasharray:none;stroke-opacity:1" />
      <path
         sodipodi:nodetypes="cs"
         id="path7229"
         d="M 339.99524,182.73333 C 345.55852,170.35129 352.24337,162.75496 366.99134,155.85494"
         style="fill:none;fill-rule:evenodd;stroke:#000000;stroke-width:44.37358856;stroke-linecap:round;stroke-linejoin:miter;stroke-miterlimit:4;stroke-dasharray:none;stroke-opacity:1" />
      <path
         inkscape:transform-center-y="-1.1972431e-05"
         inkscape:transform-center-x="2.9632495"
         sodipodi:nodetypes="csss"
         id="path7231"
         d="M 340.0109,178.43024 C 341.11022,175.53886 341.53585,174.20203 343.07592,170.42603 C 346.78183,161.3397 346.27012,162.95066 348.117,158.83047 C 348.85273,157.18913 349.86931,155.40344 350.31456,154.08691"
         style="fill:#ff0000;fill-rule:evenodd;stroke:#000000;stroke-width:44.37358856;stroke-linecap:round;stroke-linejoin:miter;stroke-miterlimit:4;stroke-dasharray:none;stroke-opacity:1" />
      <path
         inkscape:transform-center-y="1.9036759e-05"
         inkscape:transform-center-x="-3.1503658"
         sodipodi:nodetypes="csss"
         id="path7233"
         d="M 337.93511,178.01052 C 336.76637,175.04185 336.31385,173.66931 334.67653,169.79237 C 330.73662,160.4632 331.28064,162.11721 329.31715,157.88691 C 328.53494,156.20168 327.45417,154.36828 326.9808,153.01656"
         style="fill:#ff0000;fill-rule:evenodd;stroke:#000000;stroke-width:44.37358856;stroke-linecap:round;stroke-linejoin:miter;stroke-miterlimit:4;stroke-dasharray:none;stroke-opacity:1" />
      <path
         sodipodi:nodetypes="cs"
         id="path7235"
         d="M 337.46802,181.82546 C 332.89586,169.44653 324.24495,160.19894 309.97901,154.24291"
         style="fill:none;fill-rule:evenodd;stroke:#000000;stroke-width:44.37358856;stroke-linecap:round;stroke-linejoin:miter;stroke-miterlimit:4;stroke-dasharray:none;stroke-opacity:1" />
    </g>
    <g
       id="g7237"
       inkscape:label="Calque 1"
       transform="matrix(6.4699102e-2,0,0,7.0647205e-2,259.46917,338.55697)">
      <path
         sodipodi:nodetypes="csssssssscccccccssc"
         id="path7239"
         d="M 255.97514,245.45787 C 261.70544,243.85778 272.15137,240.84524 289.17079,232.12058 C 298.83412,227.16688 309.48215,221.59313 314.6511,215.39079 C 319.82005,209.18845 329.42534,200.0223 338.20402,185.95285 C 344.55955,175.76695 330.48467,175.40585 338.17785,186.21974 C 344.36306,194.91396 351.48482,208.09579 359.83166,215.18317 C 370.86912,224.55519 380.31641,231.13972 388.50338,235.36127 C 398.76581,240.65301 414.79882,243.48302 425.60762,246.89022 C 436.41642,250.29742 443.01821,252.3496 448.49384,254.2703 C 469.29172,261.5656 460.5463,260.21965 473.02211,265.96874 C 504.3196,279.61002 535.58298,320.3374 535.58298,347.56823 L 535.58298,354.07445 C 535.58298,408.5361 471.9662,452.38068 392.94446,452.38068 L 276.82456,452.38068 C 197.80282,452.38068 134.18605,408.5361 134.18605,354.07445 L 134.18605,347.56823 C 134.18605,320.3374 150.09024,297.02951 175.87215,279.26065 C 188.76311,270.37624 199.49979,266.39827 216.14086,260.12952 C 232.55793,253.94514 234.95697,254.39562 255.97514,245.45787 z"
         style="opacity:0.98999999;fill:#ff0000;fill-opacity:1;stroke:#000000;stroke-width:44.37358856;stroke-miterlimit:4;stroke-dasharray:none;stroke-opacity:1" />
      <path
         sodipodi:nodetypes="cssscsc"
         id="path7241"
         d="M 485.79878,427.18408 C 485.6603,435.13027 463.98493,444.81184 434.3495,448.97768 C 404.71404,453.14352 366.4861,456.22039 326.91854,457.2811 C 285.35838,458.39523 268.60652,454.61851 232.30917,447.78601 C 205.62331,442.76272 185.11286,435.01023 185.11286,428.44887 C 185.11286,415.32611 255.90166,402.14622 337.66919,402.14622 C 419.43672,402.14622 485.79878,414.06134 485.79878,427.18408 z"
         style="opacity:0.98999999;fill:#ff0000;fill-opacity:1;stroke:#000000;stroke-width:44.37359619;stroke-miterlimit:4;stroke-dasharray:none;stroke-opacity:1" />
      <path
         sodipodi:nodetypes="cs"
         id="path7243"
         d="M 339.99524,182.73333 C 345.55852,170.35129 352.24337,162.75496 366.99134,155.85494"
         style="fill:none;fill-rule:evenodd;stroke:#000000;stroke-width:44.37358856;stroke-linecap:round;stroke-linejoin:miter;stroke-miterlimit:4;stroke-dasharray:none;stroke-opacity:1" />
      <path
         inkscape:transform-center-y="-1.1972431e-05"
         inkscape:transform-center-x="2.9632495"
         sodipodi:nodetypes="csss"
         id="path7245"
         d="M 340.0109,178.43024 C 341.11022,175.53886 341.53585,174.20203 343.07592,170.42603 C 346.78183,161.3397 346.27012,162.95066 348.117,158.83047 C 348.85273,157.18913 349.86931,155.40344 350.31456,154.08691"
         style="fill:#ff0000;fill-rule:evenodd;stroke:#000000;stroke-width:44.37358856;stroke-linecap:round;stroke-linejoin:miter;stroke-miterlimit:4;stroke-dasharray:none;stroke-opacity:1" />
      <path
         inkscape:transform-center-y="1.9036759e-05"
         inkscape:transform-center-x="-3.1503658"
         sodipodi:nodetypes="csss"
         id="path7247"
         d="M 337.93511,178.01052 C 336.76637,175.04185 336.31385,173.66931 334.67653,169.79237 C 330.73662,160.4632 331.28064,162.11721 329.31715,157.88691 C 328.53494,156.20168 327.45417,154.36828 326.9808,153.01656"
         style="fill:#ff0000;fill-rule:evenodd;stroke:#000000;stroke-width:44.37358856;stroke-linecap:round;stroke-linejoin:miter;stroke-miterlimit:4;stroke-dasharray:none;stroke-opacity:1" />
      <path
         sodipodi:nodetypes="cs"
         id="path7249"
         d="M 337.46802,181.82546 C 332.89586,169.44653 324.24495,160.19894 309.97901,154.24291"
         style="fill:none;fill-rule:evenodd;stroke:#000000;stroke-width:44.37358856;stroke-linecap:round;stroke-linejoin:miter;stroke-miterlimit:4;stroke-dasharray:none;stroke-opacity:1" />
    </g>
    <g
       id="g7251"
       inkscape:label="Calque 1"
       transform="matrix(6.4699102e-2,0,0,7.0647205e-2,321.05132,331.86326)">
      <path
         sodipodi:nodetypes="csssssssscccccccssc"
         id="path7253"
         d="M 255.97514,245.45787 C 261.70544,243.85778 272.15137,240.84524 289.17079,232.12058 C 298.83412,227.16688 309.48215,221.59313 314.6511,215.39079 C 319.82005,209.18845 329.42534,200.0223 338.20402,185.95285 C 344.55955,175.76695 330.48467,175.40585 338.17785,186.21974 C 344.36306,194.91396 351.48482,208.09579 359.83166,215.18317 C 370.86912,224.55519 380.31641,231.13972 388.50338,235.36127 C 398.76581,240.65301 414.79882,243.48302 425.60762,246.89022 C 436.41642,250.29742 443.01821,252.3496 448.49384,254.2703 C 469.29172,261.5656 460.5463,260.21965 473.02211,265.96874 C 504.3196,279.61002 535.58298,320.3374 535.58298,347.56823 L 535.58298,354.07445 C 535.58298,408.5361 471.9662,452.38068 392.94446,452.38068 L 276.82456,452.38068 C 197.80282,452.38068 134.18605,408.5361 134.18605,354.07445 L 134.18605,347.56823 C 134.18605,320.3374 150.09024,297.02951 175.87215,279.26065 C 188.76311,270.37624 199.49979,266.39827 216.14086,260.12952 C 232.55793,253.94514 234.95697,254.39562 255.97514,245.45787 z"
         style="opacity:0.98999999;fill:#ff0000;fill-opacity:1;stroke:#000000;stroke-width:44.37358856;stroke-miterlimit:4;stroke-dasharray:none;stroke-opacity:1" />
      <path
         sodipodi:nodetypes="cssscsc"
         id="path7255"
         d="M 485.79878,427.18408 C 485.6603,435.13027 463.98493,444.81184 434.3495,448.97768 C 404.71404,453.14352 366.4861,456.22039 326.91854,457.2811 C 285.35838,458.39523 268.60652,454.61851 232.30917,447.78601 C 205.62331,442.76272 185.11286,435.01023 185.11286,428.44887 C 185.11286,415.32611 255.90166,402.14622 337.66919,402.14622 C 419.43672,402.14622 485.79878,414.06134 485.79878,427.18408 z"
         style="opacity:0.98999999;fill:#ff0000;fill-opacity:1;stroke:#000000;stroke-width:44.37359619;stroke-miterlimit:4;stroke-dasharray:none;stroke-opacity:1" />
      <path
         sodipodi:nodetypes="cs"
         id="path7257"
         d="M 339.99524,182.73333 C 345.55852,170.35129 352.24337,162.75496 366.99134,155.85494"
         style="fill:none;fill-rule:evenodd;stroke:#000000;stroke-width:44.37358856;stroke-linecap:round;stroke-linejoin:miter;stroke-miterlimit:4;stroke-dasharray:none;stroke-opacity:1" />
      <path
         inkscape:transform-center-y="-1.1972431e-05"
         inkscape:transform-center-x="2.9632495"
         sodipodi:nodetypes="csss"
         id="path7259"
         d="M 340.0109,178.43024 C 341.11022,175.53886 341.53585,174.20203 343.07592,170.42603 C 346.78183,161.3397 346.27012,162.95066 348.117,158.83047 C 348.85273,157.18913 349.86931,155.40344 350.31456,154.08691"
         style="fill:#ff0000;fill-rule:evenodd;stroke:#000000;stroke-width:44.37358856;stroke-linecap:round;stroke-linejoin:miter;stroke-miterlimit:4;stroke-dasharray:none;stroke-opacity:1" />
      <path
         inkscape:transform-center-y="1.9036759e-05"
         inkscape:transform-center-x="-3.1503658"
         sodipodi:nodetypes="csss"
         id="path7261"
         d="M 337.93511,178.01052 C 336.76637,175.04185 336.31385,173.66931 334.67653,169.79237 C 330.73662,160.4632 331.28064,162.11721 329.31715,157.88691 C 328.53494,156.20168 327.45417,154.36828 326.9808,153.01656"
         style="fill:#ff0000;fill-rule:evenodd;stroke:#000000;stroke-width:44.37358856;stroke-linecap:round;stroke-linejoin:miter;stroke-miterlimit:4;stroke-dasharray:none;stroke-opacity:1" />
      <path
         sodipodi:nodetypes="cs"
         id="path7263"
         d="M 337.46802,181.82546 C 332.89586,169.44653 324.24495,160.19894 309.97901,154.24291"
         style="fill:none;fill-rule:evenodd;stroke:#000000;stroke-width:44.37358856;stroke-linecap:round;stroke-linejoin:miter;stroke-miterlimit:4;stroke-dasharray:none;stroke-opacity:1" />
    </g>
    <g
       id="g7265"
       inkscape:label="Calque 1"
       transform="matrix(6.4699102e-2,0,0,7.0647205e-2,288.92151,365.33182)">
      <path
         sodipodi:nodetypes="csssssssscccccccssc"
         id="path7267"
         d="M 255.97514,245.45787 C 261.70544,243.85778 272.15137,240.84524 289.17079,232.12058 C 298.83412,227.16688 309.48215,221.59313 314.6511,215.39079 C 319.82005,209.18845 329.42534,200.0223 338.20402,185.95285 C 344.55955,175.76695 330.48467,175.40585 338.17785,186.21974 C 344.36306,194.91396 351.48482,208.09579 359.83166,215.18317 C 370.86912,224.55519 380.31641,231.13972 388.50338,235.36127 C 398.76581,240.65301 414.79882,243.48302 425.60762,246.89022 C 436.41642,250.29742 443.01821,252.3496 448.49384,254.2703 C 469.29172,261.5656 460.5463,260.21965 473.02211,265.96874 C 504.3196,279.61002 535.58298,320.3374 535.58298,347.56823 L 535.58298,354.07445 C 535.58298,408.5361 471.9662,452.38068 392.94446,452.38068 L 276.82456,452.38068 C 197.80282,452.38068 134.18605,408.5361 134.18605,354.07445 L 134.18605,347.56823 C 134.18605,320.3374 150.09024,297.02951 175.87215,279.26065 C 188.76311,270.37624 199.49979,266.39827 216.14086,260.12952 C 232.55793,253.94514 234.95697,254.39562 255.97514,245.45787 z"
         style="opacity:0.98999999;fill:#ff0000;fill-opacity:1;stroke:#000000;stroke-width:44.37358856;stroke-miterlimit:4;stroke-dasharray:none;stroke-opacity:1" />
      <path
         sodipodi:nodetypes="cssscsc"
         id="path7269"
         d="M 485.79878,427.18408 C 485.6603,435.13027 463.98493,444.81184 434.3495,448.97768 C 404.71404,453.14352 366.4861,456.22039 326.91854,457.2811 C 285.35838,458.39523 268.60652,454.61851 232.30917,447.78601 C 205.62331,442.76272 185.11286,435.01023 185.11286,428.44887 C 185.11286,415.32611 255.90166,402.14622 337.66919,402.14622 C 419.43672,402.14622 485.79878,414.06134 485.79878,427.18408 z"
         style="opacity:0.98999999;fill:#ff0000;fill-opacity:1;stroke:#000000;stroke-width:44.37359619;stroke-miterlimit:4;stroke-dasharray:none;stroke-opacity:1" />
      <path
         sodipodi:nodetypes="cs"
         id="path7271"
         d="M 339.99524,182.73333 C 345.55852,170.35129 352.24337,162.75496 366.99134,155.85494"
         style="fill:none;fill-rule:evenodd;stroke:#000000;stroke-width:44.37358856;stroke-linecap:round;stroke-linejoin:miter;stroke-miterlimit:4;stroke-dasharray:none;stroke-opacity:1" />
      <path
         inkscape:transform-center-y="-1.1972431e-05"
         inkscape:transform-center-x="2.9632495"
         sodipodi:nodetypes="csss"
         id="path7273"
         d="M 340.0109,178.43024 C 341.11022,175.53886 341.53585,174.20203 343.07592,170.42603 C 346.78183,161.3397 346.27012,162.95066 348.117,158.83047 C 348.85273,157.18913 349.86931,155.40344 350.31456,154.08691"
         style="fill:#ff0000;fill-rule:evenodd;stroke:#000000;stroke-width:44.37358856;stroke-linecap:round;stroke-linejoin:miter;stroke-miterlimit:4;stroke-dasharray:none;stroke-opacity:1" />
      <path
         inkscape:transform-center-y="1.9036759e-05"
         inkscape:transform-center-x="-3.1503658"
         sodipodi:nodetypes="csss"
         id="path7275"
         d="M 337.93511,178.01052 C 336.76637,175.04185 336.31385,173.66931 334.67653,169.79237 C 330.73662,160.4632 331.28064,162.11721 329.31715,157.88691 C 328.53494,156.20168 327.45417,154.36828 326.9808,153.01656"
         style="fill:#ff0000;fill-rule:evenodd;stroke:#000000;stroke-width:44.37358856;stroke-linecap:round;stroke-linejoin:miter;stroke-miterlimit:4;stroke-dasharray:none;stroke-opacity:1" />
      <path
         sodipodi:nodetypes="cs"
         id="path7277"
         d="M 337.46802,181.82546 C 332.89586,169.44653 324.24495,160.19894 309.97901,154.24291"
         style="fill:none;fill-rule:evenodd;stroke:#000000;stroke-width:44.37358856;stroke-linecap:round;stroke-linejoin:miter;stroke-miterlimit:4;stroke-dasharray:none;stroke-opacity:1" />
    </g>
    <g
       id="g7279"
       inkscape:label="Calque 1"
       transform="matrix(6.4699102e-2,0,0,7.0647205e-2,369.24605,331.86326)">
      <path
         sodipodi:nodetypes="csssssssscccccccssc"
         id="path7281"
         d="M 255.97514,245.45787 C 261.70544,243.85778 272.15137,240.84524 289.17079,232.12058 C 298.83412,227.16688 309.48215,221.59313 314.6511,215.39079 C 319.82005,209.18845 329.42534,200.0223 338.20402,185.95285 C 344.55955,175.76695 330.48467,175.40585 338.17785,186.21974 C 344.36306,194.91396 351.48482,208.09579 359.83166,215.18317 C 370.86912,224.55519 380.31641,231.13972 388.50338,235.36127 C 398.76581,240.65301 414.79882,243.48302 425.60762,246.89022 C 436.41642,250.29742 443.01821,252.3496 448.49384,254.2703 C 469.29172,261.5656 460.5463,260.21965 473.02211,265.96874 C 504.3196,279.61002 535.58298,320.3374 535.58298,347.56823 L 535.58298,354.07445 C 535.58298,408.5361 471.9662,452.38068 392.94446,452.38068 L 276.82456,452.38068 C 197.80282,452.38068 134.18605,408.5361 134.18605,354.07445 L 134.18605,347.56823 C 134.18605,320.3374 150.09024,297.02951 175.87215,279.26065 C 188.76311,270.37624 199.49979,266.39827 216.14086,260.12952 C 232.55793,253.94514 234.95697,254.39562 255.97514,245.45787 z"
         style="opacity:0.98999999;fill:#ff0000;fill-opacity:1;stroke:#000000;stroke-width:44.37358856;stroke-miterlimit:4;stroke-dasharray:none;stroke-opacity:1" />
      <path
         sodipodi:nodetypes="cssscsc"
         id="path7283"
         d="M 485.79878,427.18408 C 485.6603,435.13027 463.98493,444.81184 434.3495,448.97768 C 404.71404,453.14352 366.4861,456.22039 326.91854,457.2811 C 285.35838,458.39523 268.60652,454.61851 232.30917,447.78601 C 205.62331,442.76272 185.11286,435.01023 185.11286,428.44887 C 185.11286,415.32611 255.90166,402.14622 337.66919,402.14622 C 419.43672,402.14622 485.79878,414.06134 485.79878,427.18408 z"
         style="opacity:0.98999999;fill:#ff0000;fill-opacity:1;stroke:#000000;stroke-width:44.37359619;stroke-miterlimit:4;stroke-dasharray:none;stroke-opacity:1" />
      <path
         sodipodi:nodetypes="cs"
         id="path7285"
         d="M 339.99524,182.73333 C 345.55852,170.35129 352.24337,162.75496 366.99134,155.85494"
         style="fill:none;fill-rule:evenodd;stroke:#000000;stroke-width:44.37358856;stroke-linecap:round;stroke-linejoin:miter;stroke-miterlimit:4;stroke-dasharray:none;stroke-opacity:1" />
      <path
         inkscape:transform-center-y="-1.1972431e-05"
         inkscape:transform-center-x="2.9632495"
         sodipodi:nodetypes="csss"
         id="path7287"
         d="M 340.0109,178.43024 C 341.11022,175.53886 341.53585,174.20203 343.07592,170.42603 C 346.78183,161.3397 346.27012,162.95066 348.117,158.83047 C 348.85273,157.18913 349.86931,155.40344 350.31456,154.08691"
         style="fill:#ff0000;fill-rule:evenodd;stroke:#000000;stroke-width:44.37358856;stroke-linecap:round;stroke-linejoin:miter;stroke-miterlimit:4;stroke-dasharray:none;stroke-opacity:1" />
      <path
         inkscape:transform-center-y="1.9036759e-05"
         inkscape:transform-center-x="-3.1503658"
         sodipodi:nodetypes="csss"
         id="path7289"
         d="M 337.93511,178.01052 C 336.76637,175.04185 336.31385,173.66931 334.67653,169.79237 C 330.73662,160.4632 331.28064,162.11721 329.31715,157.88691 C 328.53494,156.20168 327.45417,154.36828 326.9808,153.01656"
         style="fill:#ff0000;fill-rule:evenodd;stroke:#000000;stroke-width:44.37358856;stroke-linecap:round;stroke-linejoin:miter;stroke-miterlimit:4;stroke-dasharray:none;stroke-opacity:1" />
      <path
         sodipodi:nodetypes="cs"
         id="path7291"
         d="M 337.46802,181.82546 C 332.89586,169.44653 324.24495,160.19894 309.97901,154.24291"
         style="fill:none;fill-rule:evenodd;stroke:#000000;stroke-width:44.37358856;stroke-linecap:round;stroke-linejoin:miter;stroke-miterlimit:4;stroke-dasharray:none;stroke-opacity:1" />
    </g>
    <g
       id="g7293"
       inkscape:label="Calque 1"
       transform="matrix(6.4699102e-2,0,0,7.0647205e-2,342.4712,369.34805)">
      <path
         sodipodi:nodetypes="csssssssscccccccssc"
         id="path7295"
         d="M 255.97514,245.45787 C 261.70544,243.85778 272.15137,240.84524 289.17079,232.12058 C 298.83412,227.16688 309.48215,221.59313 314.6511,215.39079 C 319.82005,209.18845 329.42534,200.0223 338.20402,185.95285 C 344.55955,175.76695 330.48467,175.40585 338.17785,186.21974 C 344.36306,194.91396 351.48482,208.09579 359.83166,215.18317 C 370.86912,224.55519 380.31641,231.13972 388.50338,235.36127 C 398.76581,240.65301 414.79882,243.48302 425.60762,246.89022 C 436.41642,250.29742 443.01821,252.3496 448.49384,254.2703 C 469.29172,261.5656 460.5463,260.21965 473.02211,265.96874 C 504.3196,279.61002 535.58298,320.3374 535.58298,347.56823 L 535.58298,354.07445 C 535.58298,408.5361 471.9662,452.38068 392.94446,452.38068 L 276.82456,452.38068 C 197.80282,452.38068 134.18605,408.5361 134.18605,354.07445 L 134.18605,347.56823 C 134.18605,320.3374 150.09024,297.02951 175.87215,279.26065 C 188.76311,270.37624 199.49979,266.39827 216.14086,260.12952 C 232.55793,253.94514 234.95697,254.39562 255.97514,245.45787 z"
         style="opacity:0.98999999;fill:#ff0000;fill-opacity:1;stroke:#000000;stroke-width:44.37358856;stroke-miterlimit:4;stroke-dasharray:none;stroke-opacity:1" />
      <path
         sodipodi:nodetypes="cssscsc"
         id="path7297"
         d="M 485.79878,427.18408 C 485.6603,435.13027 463.98493,444.81184 434.3495,448.97768 C 404.71404,453.14352 366.4861,456.22039 326.91854,457.2811 C 285.35838,458.39523 268.60652,454.61851 232.30917,447.78601 C 205.62331,442.76272 185.11286,435.01023 185.11286,428.44887 C 185.11286,415.32611 255.90166,402.14622 337.66919,402.14622 C 419.43672,402.14622 485.79878,414.06134 485.79878,427.18408 z"
         style="opacity:0.98999999;fill:#ff0000;fill-opacity:1;stroke:#000000;stroke-width:44.37359619;stroke-miterlimit:4;stroke-dasharray:none;stroke-opacity:1" />
      <path
         sodipodi:nodetypes="cs"
         id="path7299"
         d="M 339.99524,182.73333 C 345.55852,170.35129 352.24337,162.75496 366.99134,155.85494"
         style="fill:none;fill-rule:evenodd;stroke:#000000;stroke-width:44.37358856;stroke-linecap:round;stroke-linejoin:miter;stroke-miterlimit:4;stroke-dasharray:none;stroke-opacity:1" />
      <path
         inkscape:transform-center-y="-1.1972431e-05"
         inkscape:transform-center-x="2.9632495"
         sodipodi:nodetypes="csss"
         id="path7301"
         d="M 340.0109,178.43024 C 341.11022,175.53886 341.53585,174.20203 343.07592,170.42603 C 346.78183,161.3397 346.27012,162.95066 348.117,158.83047 C 348.85273,157.18913 349.86931,155.40344 350.31456,154.08691"
         style="fill:#ff0000;fill-rule:evenodd;stroke:#000000;stroke-width:44.37358856;stroke-linecap:round;stroke-linejoin:miter;stroke-miterlimit:4;stroke-dasharray:none;stroke-opacity:1" />
      <path
         inkscape:transform-center-y="1.9036759e-05"
         inkscape:transform-center-x="-3.1503658"
         sodipodi:nodetypes="csss"
         id="path7303"
         d="M 337.93511,178.01052 C 336.76637,175.04185 336.31385,173.66931 334.67653,169.79237 C 330.73662,160.4632 331.28064,162.11721 329.31715,157.88691 C 328.53494,156.20168 327.45417,154.36828 326.9808,153.01656"
         style="fill:#ff0000;fill-rule:evenodd;stroke:#000000;stroke-width:44.37358856;stroke-linecap:round;stroke-linejoin:miter;stroke-miterlimit:4;stroke-dasharray:none;stroke-opacity:1" />
      <path
         sodipodi:nodetypes="cs"
         id="path7305"
         d="M 337.46802,181.82546 C 332.89586,169.44653 324.24495,160.19894 309.97901,154.24291"
         style="fill:none;fill-rule:evenodd;stroke:#000000;stroke-width:44.37358856;stroke-linecap:round;stroke-linejoin:miter;stroke-miterlimit:4;stroke-dasharray:none;stroke-opacity:1" />
    </g>
  </g>
  <g
     inkscape:groupmode="layer"
     id="layer2"
     inkscape:label="Reflet final"
     sodipodi:insensitive="true">
    <path
       sodipodi:nodetypes="cccccc"
       d="M 300.00001,658.5 C 300.00001,658.5 598.50001,546.17969 598.50001,260.72817 C 598.50001,-24.723334 598.50001,2.1764865 598.50001,2.1764865 L 1.5,2.1764865 L 1.5,260.72817 C 1.5,546.17969 300.00001,658.5 300.00001,658.5 z "
       style="opacity:1;fill:url(#radialGradient3163);fill-opacity:1;fill-rule:evenodd;stroke:none;stroke-width:1px;stroke-linecap:butt;stroke-linejoin:miter;stroke-opacity:1"
       id="path2875"
       inkscape:export-xdpi="144"
       inkscape:export-ydpi="144" />
  </g>
  <g
     inkscape:groupmode="layer"
     id="layer1"
     inkscape:label="Contour final"
     sodipodi:insensitive="true">
    <path
       sodipodi:nodetypes="cccccc"
       d="M 299.99999,658.50028 C 299.99999,658.50028 1.5,546.17992 1.5,260.72828 C 1.5,-24.723336 1.5,2.1764957 1.5,2.1764957 L 598.49999,2.1764957 L 598.49999,260.72828 C 598.49999,546.17992 299.99999,658.50028 299.99999,658.50028 z "
       style="opacity:1;fill:none;fill-opacity:1;fill-rule:evenodd;stroke:#000000;stroke-width:3.00000048;stroke-linecap:butt;stroke-linejoin:miter;stroke-miterlimit:4;stroke-dasharray:none;stroke-opacity:1"
       id="path1411"
       inkscape:export-xdpi="144"
       inkscape:export-ydpi="144" />
  </g>
</svg>
