<?xml version="1.0" encoding="UTF-8" standalone="no"?>
<svg
   xmlns:dc="http://purl.org/dc/elements/1.1/"
   xmlns:cc="http://creativecommons.org/ns#"
   xmlns:rdf="http://www.w3.org/1999/02/22-rdf-syntax-ns#"
   xmlns:svg="http://www.w3.org/2000/svg"
   xmlns="http://www.w3.org/2000/svg"
   xmlns:xlink="http://www.w3.org/1999/xlink"
   xmlns:sodipodi="http://sodipodi.sourceforge.net/DTD/sodipodi-0.dtd"
   xmlns:inkscape="http://www.inkscape.org/namespaces/inkscape"
   width="600"
   height="660"
   viewBox="0 0 600 660"
   id="svg2"
   sodipodi:version="0.32"
   inkscape:version="0.46"
   sodipodi:docname="Blason_Bourth-A.svg"
   inkscape:output_extension="org.inkscape.output.svg.inkscape"
   version="1.0">
  <metadata
     id="metadata28">
    <rdf:RDF>
      <cc:Work
         rdf:about="">
        <dc:format>image/svg+xml</dc:format>
        <dc:type
           rdf:resource="http://purl.org/dc/dcmitype/StillImage" />
      </cc:Work>
    </rdf:RDF>
  </metadata>
  <sodipodi:namedview
     inkscape:window-height="977"
     inkscape:window-width="1280"
     inkscape:pageshadow="2"
     inkscape:pageopacity="0.0"
     guidetolerance="10.0"
     gridtolerance="10.0"
     objecttolerance="10.0"
     borderopacity="1.0"
     bordercolor="#666666"
     pagecolor="#ffffff"
     id="base"
     showgrid="false"
     inkscape:zoom="1.1863636"
     inkscape:cx="300"
     inkscape:cy="330"
     inkscape:window-x="-4"
     inkscape:window-y="-4"
     inkscape:current-layer="layer3"
     inkscape:object-nodes="false"
     inkscape:object-paths="true"
     inkscape:snap-global="true" />
  <defs
     id="defs4">
    <radialGradient
       id="Gradient1"
       gradientUnits="userSpaceOnUse"
       cx="-80"
       cy="-80"
       r="405">
      <stop
         style="stop-color:#fff;stop-opacity:0.31"
         offset="0"
         id="stop7" />
      <stop
         style="stop-color:#fff;stop-opacity:0.25"
         offset="0.19"
         id="stop9" />
      <stop
         style="stop-color:#6b6b6b;stop-opacity:0.125"
         offset="0.6"
         id="stop11" />
      <stop
         style="stop-color:#000;stop-opacity:0.125"
         offset="1"
         id="stop13" />
    </radialGradient>
    <clipPath
       id="shield_cut">
      <path
         id="shield"
         d="M -298.5,-298.5 L 298.5,-298.5 L 298.5,-40 C 298.5,246.31 0,358.5 0,358.5 C 0,358.5 -298.5,246.31 -298.5,-40 L -298.5,-298.5 z" />
    </clipPath>
    <g
       id="s">
      <g
         id="c">
        <path
           id="t"
           d="M 0,0 L 0,1 L 0.5,1 L 0,0 z"
           transform="matrix(0.951057,0.309017,-0.309017,0.951057,0,-1)" />
        <use
           xlink:href="#t"
           transform="scale(-1,1)"
           id="use2144"
           x="0"
           y="0"
           width="810"
           height="540" />
      </g>
      <g
         id="a">
        <use
           xlink:href="#c"
           transform="matrix(0.309017,0.951057,-0.951057,0.309017,0,0)"
           id="use2147"
           x="0"
           y="0"
           width="810"
           height="540" />
        <use
           xlink:href="#c"
           transform="matrix(-0.809017,0.587785,-0.587785,-0.809017,0,0)"
           id="use2149"
           x="0"
           y="0"
           width="810"
           height="540" />
      </g>
      <use
         xlink:href="#a"
         transform="scale(-1,1)"
         id="use2151"
         x="0"
         y="0"
         width="810"
         height="540" />
    </g>
    <g
       id="f">
      <rect
         width="100"
         height="60"
         x="-50"
         y="-30"
         style="fill:#28166f"
         id="rect1964" />
      <g
         transform="translate(0,-20)"
         style="fill:#ffffff"
         id="g1966">
        <path
           d="M -1.2116,27.8178 C -1.2116,22.1752 -2.0914,20.4715 -4.5417,13.9804 C -5.709,10.8879 -5.0241,7.1025 -2.8585,3.6009 C -2.0824,2.346 -1.1136,1.2135 0,0 C 1.1136,1.2135 2.0824,2.346 2.8585,3.6009 C 5.0241,7.1025 5.709,10.8879 4.5417,13.9804 C 2.0914,20.4715 1.2116,22.1752 1.2116,27.8178 L -1.2116,27.8178 z"
           id="path1968" />
        <path
           d="M 2.9221,27.6725 C 2.9221,21.7209 5.2387,17.8293 8.5007,16.6604 C 9.9492,16.1414 11.8076,16.3869 13.5193,18.107 C 15.6379,20.236 16.2551,26.1004 10.0355,27.2283 C 10.6938,26.2724 10.6546,24.1467 9.3215,23.4409 C 8.3311,22.9165 7.209,23.1877 6.6462,23.5643 C 5.8225,24.1156 4.9171,25.6702 4.9672,27.6725 L 2.9221,27.6725 z"
           id="rwi" />
        <path
           d="M 1.7773,30.1835 C 1.7899,32.1913 2.7952,33.5181 4.5165,34.257 C 4.2948,34.9549 3.2566,36.3776 1.8314,36.2812 C 1.5499,37.787 1.2822,38.6324 0,40 C -1.2822,38.6324 -1.5499,37.787 -1.8314,36.2812 C -3.2566,36.3776 -4.2948,34.9549 -4.5165,34.257 C -2.7952,33.5181 -1.7899,32.1913 -1.7773,30.1835 L 1.7773,30.1835 z"
           id="path1971" />
        <use
           transform="scale(-1,1)"
           id="use1973"
           x="0"
           y="0"
           width="800"
           height="400"
           xlink:href="#rwi" />
        <rect
           width="15.846"
           height="3.2179999"
           x="-7.9229999"
           y="27.33077"
           id="rect1975" />
      </g>
    </g>
  </defs>
  <g
     id="layer4"
     inkscape:label="Fond écu"
     inkscape:groupmode="layer"
     transform="translate(300,300)">
    <path
       style="fill:#000000;stroke-width:3"
       d="M 1.5,1.5 L 1.5,260 C 1.5,269.52537 1.82994,278.8578 2.46875,288 C 21.03095,553.65061 300,658.5 300,658.5 L 300,288 L 300,1.5 L 1.5,1.5 z"
       transform="translate(-300,-300)"
       id="use2412" />
    <path
       style="fill:#ffffff;stroke-width:3"
       d="M 300,1.5 L 300,288 L 300,658.5 C 300,658.5 578.96905,553.65061 597.53125,288 C 598.17006,278.8578 598.5,269.52537 598.5,260 L 598.5,1.5 L 300,1.5 z"
       transform="translate(-300,-300)"
       id="path2427" />
    <path
       style="opacity:1;fill:#000000;fill-opacity:1;stroke:none;stroke-width:2;stroke-linecap:butt;stroke-linejoin:round;stroke-miterlimit:4;stroke-dasharray:none;stroke-opacity:1"
       d="M 300,1.5 L 300,288 L 597.53125,288 C 598.17006,278.8578 598.5,269.52537 598.5,260 L 598.5,1.5 L 300,1.5 z"
       transform="translate(-300,-300)"
       id="rect7948" />
    <path
       id="path7953"
       d="M 0,-298.5 L 0,-12 L -297.53125,-12 C -298.17006,-21.1422 -298.5,-30.47463 -298.5,-40 L -298.5,-298.5 L 0,-298.5 z"
       style="opacity:1;fill:#ffffff;fill-opacity:1;stroke:none;stroke-width:2;stroke-linecap:butt;stroke-linejoin:round;stroke-miterlimit:4;stroke-dasharray:none;stroke-opacity:1" />
    <path
       style="opacity:1;fill:#2b5df2;fill-opacity:1;stroke:#000000;stroke-width:3;stroke-linecap:square;stroke-linejoin:round;stroke-miterlimit:4;stroke-dasharray:none;stroke-opacity:1"
       d="M 1.5 1.5 L 1.5 59.71875 L 90.09375 144.75 L 1.5 229.78125 L 1.5 260 C 1.5 269.52537 1.82994 278.8578 2.46875 288 L 62.15625 288 L 150.75 202.96875 L 239.34375 288 L 300 288 L 300 229.78125 L 211.40625 144.75 L 300 59.71875 L 300 1.5 L 239.34375 1.5 L 150.75 86.53125 L 62.15625 1.5 L 1.5 1.5 z "
       transform="translate(-300,-300)"
       id="path4384" />
    <path
       style="opacity:1;fill:#2b5df2;fill-opacity:1;stroke:#000000;stroke-width:3;stroke-linecap:square;stroke-linejoin:round;stroke-miterlimit:4;stroke-dasharray:none;stroke-opacity:1"
       d="M 450 322.5 L 300 466.46875 L 300 582.90625 L 450 438.9375 L 513.75 500.125 C 530.90524 478.50664 546.6359 454.45781 559.78125 427.875 L 450 322.5 z "
       transform="translate(-300,-300)"
       id="path4401" />
    <path
       style="opacity:1;fill:none;fill-opacity:1;stroke:#555555;stroke-width:3;stroke-linecap:butt;stroke-linejoin:round;stroke-miterlimit:4;stroke-dasharray:none;stroke-opacity:1"
       d="M 0,-298.5 L 0,358.5"
       id="path2434" />
    <path
       style="opacity:1;fill:none;fill-opacity:1;stroke:#555555;stroke-width:3;stroke-linecap:butt;stroke-linejoin:round;stroke-miterlimit:4;stroke-dasharray:none;stroke-opacity:1"
       d="M 2.46875,288 L 597.53125,288"
       id="path7955"
       transform="translate(-300,-300)" />
  </g>
  <g
     id="layer3"
     inkscape:label="Meubles"
     inkscape:groupmode="layer"
     transform="translate(300,300)">
    <g
       id="g9932"
       transform="matrix(1.375,0,0,1.2375,-61.77479,37.20888)">
      <g
         style="stroke:#555555;stroke-width:1.5;stroke-opacity:1"
         transform="translate(54.01786,-1092.1545)"
         id="g5106">
        <g
           style="stroke:#555555;stroke-width:1.5;stroke-opacity:1"
           id="g4773"
           transform="translate(300,-100)">
          <path
             sodipodi:nodetypes="csccc"
             id="path4771"
             d="M -254.88339,1091.5089 C -256.16504,1089.1452 -261.21236,1090.0495 -266.72278,1092.4111 C -271.21833,1094.3377 -275.74755,1098.0943 -275.86801,1102.3622 L -271.57291,1113.7076 C -263.63827,1103.3095 -260.33312,1105.3531 -255.86512,1104.2715"
             style="opacity:1;fill:#fcef3c;fill-opacity:1;stroke:#555555;stroke-width:1.5;stroke-linecap:butt;stroke-linejoin:round;stroke-miterlimit:4;stroke-dasharray:none;stroke-opacity:1" />
          <path
             sodipodi:nodetypes="cccc"
             id="path4767"
             d="M -263.35084,1108.9347 C -272.58237,1103.0183 -255.01861,1097.9809 -254.88339,1091.5089 C -253.91143,1093.942 -254.20162,1105.3467 -254.88339,1111.3891 L -263.35084,1108.9347 z"
             style="opacity:1;fill:#fcef3c;fill-opacity:1;stroke:#555555;stroke-width:1.5;stroke-linecap:butt;stroke-linejoin:round;stroke-miterlimit:4;stroke-dasharray:none;stroke-opacity:1" />
          <path
             style="opacity:1;fill:#fcef3c;fill-opacity:1;stroke:#555555;stroke-width:1.5;stroke-linecap:butt;stroke-linejoin:round;stroke-miterlimit:4;stroke-dasharray:none;stroke-opacity:1"
             d="M -203.91927,1083.655 C -209.11531,1095.6062 -239.65599,1129.2017 -256.60143,1124.6425 C -260.50711,1123.5917 -255.08792,1117.8521 -263.35087,1108.9347 C -256.45815,1111.6897 -230.83084,1088.6455 -224.32684,1080.7098"
             id="path4765"
             sodipodi:nodetypes="cscc" />
          <path
             sodipodi:nodetypes="ccccc"
             id="path4769"
             d="M -269.24128,1102.3622 C -269.05394,1106.5078 -268.56277,1109.8432 -269.24128,1116.2978 C -269.48671,1119.0794 -275.1317,1118.9567 -275.868,1116.2978 C -274.93576,1110.7204 -275.27157,1106.411 -275.868,1102.3622 C -275.3407,1105.5558 -269.73675,1105.0228 -269.24128,1102.3622 z"
             style="opacity:1;fill:#fcef3c;fill-opacity:1;stroke:#555555;stroke-width:1.5;stroke-linecap:butt;stroke-linejoin:round;stroke-miterlimit:4;stroke-dasharray:none;stroke-opacity:1" />
        </g>
        <g
           style="stroke:#555555;stroke-width:1.5;stroke-opacity:1"
           transform="matrix(-1,0,0,1,-100,-100)"
           id="g5082">
          <path
             style="opacity:1;fill:#fcef3c;fill-opacity:1;stroke:#555555;stroke-width:1.5;stroke-linecap:butt;stroke-linejoin:round;stroke-miterlimit:4;stroke-dasharray:none;stroke-opacity:1"
             d="M -254.88339,1091.5089 C -256.16504,1089.1452 -261.21236,1090.0495 -266.72278,1092.4111 C -271.21833,1094.3377 -275.74755,1098.0943 -275.86801,1102.3622 L -271.57291,1113.7076 C -263.63827,1103.3095 -260.33312,1105.3531 -255.86512,1104.2715"
             id="path5084"
             sodipodi:nodetypes="csccc" />
          <path
             style="opacity:1;fill:#fcef3c;fill-opacity:1;stroke:#555555;stroke-width:1.5;stroke-linecap:butt;stroke-linejoin:round;stroke-miterlimit:4;stroke-dasharray:none;stroke-opacity:1"
             d="M -263.35084,1108.9347 C -272.58237,1103.0183 -255.01861,1097.9809 -254.88339,1091.5089 C -253.91143,1093.942 -254.20162,1105.3467 -254.88339,1111.3891 L -263.35084,1108.9347 z"
             id="path5086"
             sodipodi:nodetypes="cccc" />
          <path
             sodipodi:nodetypes="cscc"
             id="path5088"
             d="M -203.91927,1083.655 C -209.11531,1095.6062 -239.65599,1129.2017 -256.60143,1124.6425 C -260.50711,1123.5917 -255.08792,1117.8521 -263.35087,1108.9347 C -256.45815,1111.6897 -230.83084,1088.6455 -224.32684,1080.7098"
             style="opacity:1;fill:#fcef3c;fill-opacity:1;stroke:#555555;stroke-width:1.5;stroke-linecap:butt;stroke-linejoin:round;stroke-miterlimit:4;stroke-dasharray:none;stroke-opacity:1" />
          <path
             style="opacity:1;fill:#fcef3c;fill-opacity:1;stroke:#555555;stroke-width:1.5;stroke-linecap:butt;stroke-linejoin:round;stroke-miterlimit:4;stroke-dasharray:none;stroke-opacity:1"
             d="M -269.24128,1102.3622 C -269.05394,1106.5078 -268.56277,1109.8432 -269.24128,1116.2978 C -269.48671,1119.0794 -275.1317,1118.9567 -275.868,1116.2978 C -274.93576,1110.7204 -275.27157,1106.411 -275.868,1102.3622 C -275.3407,1105.5558 -269.73675,1105.0228 -269.24128,1102.3622 z"
             id="path5090"
             sodipodi:nodetypes="ccccc" />
        </g>
      </g>
      <path
         id="path3821"
         d="M 154.01786,-225.43577 C 128.18563,-212.35671 109.96209,-177.79002 104.76786,-144.02952 L 111.39286,-138.46702 L 115.11161,-125.31072 L 154.01786,-122.27952 L 192.92411,-125.31072 L 196.64286,-138.46702 L 203.26786,-144.02952 C 198.07363,-177.79002 179.85009,-212.35671 154.01786,-225.43577 z"
         style="fill:#fcef3c;fill-opacity:1;stroke:#555555;stroke-width:1.5;stroke-linecap:butt;stroke-linejoin:round;stroke-miterlimit:4;stroke-dasharray:none;stroke-opacity:1" />
      <g
         style="stroke:#555555;stroke-width:1.5;stroke-opacity:1"
         transform="translate(154.01786,-1192.1545)"
         id="g4695">
        <path
           style="fill:none;fill-opacity:1;stroke:#555555;stroke-width:1.5;stroke-linecap:butt;stroke-linejoin:round;stroke-miterlimit:4;stroke-dasharray:none;stroke-opacity:1"
           d="M -14.22957,1069.9324 C -12.91502,1056.977 -21.52671,1051.5591 -30.72452,1063.9215 C -33.27193,1052.2183 -28.13757,1050.5808 -22.86416,1049.1256 C -30.25382,1040.9156 -31.18135,1029.0833 -24.2451,1010.9554 C -25.00246,1022.9684 -25.57526,1034.6909 -15.46618,1045.8889 C -18.90917,1028.7403 -21.90886,1011.4145 -14.54143,989.94172 C -16.4107,1010.3616 -12.98379,1029.3371 -5.75633,1047.2761"
           id="path4661"
           sodipodi:nodetypes="ccccccc" />
        <path
           sodipodi:nodetypes="ccccccc"
           id="path4689"
           d="M 14.229567,1069.9324 C 12.915017,1056.977 21.526707,1051.5591 30.724517,1063.9215 C 33.271927,1052.2183 28.137567,1050.5808 22.864157,1049.1256 C 30.253817,1040.9156 31.181347,1029.0833 24.245097,1010.9554 C 25.002457,1022.9684 25.575257,1034.6909 15.466177,1045.8889 C 18.909167,1028.7403 21.908857,1011.4145 14.541427,989.94172 C 16.410697,1010.3616 12.983787,1029.3371 5.7563271,1047.2761"
           style="fill:none;fill-opacity:1;stroke:#555555;stroke-width:1.5;stroke-linecap:butt;stroke-linejoin:round;stroke-miterlimit:4;stroke-dasharray:none;stroke-opacity:1" />
      </g>
      <path
         id="rect4604"
         d="M 154.01786,-217.09202 C 150.01608,-214.70896 147.23563,-212.5578 145.01786,-210.49827 L 145.01786,-126.59202 C 128.93081,-126.44812 116.20142,-125.92362 115.11161,-125.31072 L 116.01786,-107.21702 L 192.01786,-107.21702 L 192.92411,-125.31072 C 191.8343,-125.92362 179.10491,-126.44812 163.01786,-126.59202 L 163.01786,-210.49827 C 160.80009,-212.5578 158.01964,-214.70896 154.01786,-217.09202 z"
         style="fill:#fcef3c;fill-opacity:1;stroke:#555555;stroke-width:1.5;stroke-linecap:butt;stroke-linejoin:round;stroke-miterlimit:4;stroke-opacity:1" />
      <path
         sodipodi:nodetypes="ccc"
         style="fill:none;fill-opacity:1;stroke:#555555;stroke-width:1.5;stroke-linecap:butt;stroke-linejoin:round;stroke-miterlimit:4;stroke-dasharray:none;stroke-opacity:1"
         d="M 196.64435,-138.46582 C 192.14868,-171.07692 176.37598,-204.4667 154.01786,-217.10044 C 131.65974,-204.4667 115.88704,-171.07692 111.39137,-138.46582"
         id="path3826" />
      <path
         transform="matrix(1.0083558,0,0,1,156.81198,-407.49344)"
         d="M 34.914148,300.26196 A 37.685112,1.3854821 0 1 1 -40.456076,300.26196 A 37.685112,1.3854821 0 1 1 34.914148,300.26196 z"
         sodipodi:ry="1.3854821"
         sodipodi:rx="37.685112"
         sodipodi:cy="300.26196"
         sodipodi:cx="-2.7709641"
         id="path3007"
         style="fill:#fcef3c;fill-opacity:1;stroke:#555555;stroke-width:1.49377215;stroke-linecap:butt;stroke-linejoin:round;stroke-miterlimit:4;stroke-dasharray:none;stroke-opacity:1;display:inline"
         sodipodi:type="arc" />
      <path
         transform="matrix(1.0206564,0,0,0.9720537,148.01786,-1191.1568)"
         d="M 10.777379,1104.0446 A 4.8988085,5.1437488 0 1 1 0.9797616,1104.0446 A 4.8988085,5.1437488 0 1 1 10.777379,1104.0446 z"
         sodipodi:ry="5.1437488"
         sodipodi:rx="4.8988085"
         sodipodi:cy="1104.0446"
         sodipodi:cx="5.8785701"
         id="path4611"
         style="fill:#fcef3c;fill-opacity:1;stroke:#555555;stroke-width:1.50593543;stroke-linecap:butt;stroke-linejoin:round;stroke-miterlimit:4;stroke-dasharray:none;stroke-opacity:1"
         sodipodi:type="arc" />
      <path
         sodipodi:type="arc"
         style="fill:#fcef3c;fill-opacity:1;stroke:#555555;stroke-width:1.58739531;stroke-linecap:butt;stroke-linejoin:round;stroke-miterlimit:4;stroke-dasharray:none;stroke-opacity:1"
         id="path4613"
         sodipodi:cx="5.8785701"
         sodipodi:cy="1104.0446"
         sodipodi:rx="4.8988085"
         sodipodi:ry="5.1437488"
         d="M 10.777379,1104.0446 A 4.8988085,5.1437488 0 1 1 0.9797616,1104.0446 A 4.8988085,5.1437488 0 1 1 10.777379,1104.0446 z"
         transform="matrix(0.9185908,0,0,0.9720537,162.61786,-1190.7568)" />
      <path
         sodipodi:type="arc"
         style="fill:#fcef3c;fill-opacity:1;stroke:#555555;stroke-width:1.67326152;stroke-linecap:butt;stroke-linejoin:round;stroke-miterlimit:4;stroke-dasharray:none;stroke-opacity:1"
         id="path4615"
         sodipodi:cx="5.8785701"
         sodipodi:cy="1104.0446"
         sodipodi:rx="4.8988085"
         sodipodi:ry="5.1437488"
         d="M 10.777379,1104.0446 A 4.8988085,5.1437488 0 1 1 0.9797616,1104.0446 A 4.8988085,5.1437488 0 1 1 10.777379,1104.0446 z"
         transform="matrix(0.8267317,0,0,0.9720537,176.15786,-1190.3568)" />
      <path
         sodipodi:type="arc"
         style="fill:#fcef3c;fill-opacity:1;stroke:#555555;stroke-width:1.85917962;stroke-linecap:butt;stroke-linejoin:round;stroke-miterlimit:4;stroke-dasharray:none;stroke-opacity:1"
         id="path4617"
         sodipodi:cx="5.8785701"
         sodipodi:cy="1104.0446"
         sodipodi:rx="4.8988085"
         sodipodi:ry="5.1437488"
         d="M 10.777379,1104.0446 A 4.8988085,5.1437488 0 1 1 0.9797616,1104.0446 A 4.8988085,5.1437488 0 1 1 10.777379,1104.0446 z"
         transform="matrix(0.6696526,0,0,0.9720537,188.08126,-1190.1568)" />
      <path
         sodipodi:type="arc"
         style="fill:#fcef3c;fill-opacity:1;stroke:#555555;stroke-width:1.50593543;stroke-linecap:butt;stroke-linejoin:round;stroke-miterlimit:4;stroke-dasharray:none;stroke-opacity:1"
         id="path4627"
         sodipodi:cx="5.8785701"
         sodipodi:cy="1104.0446"
         sodipodi:rx="4.8988085"
         sodipodi:ry="5.1437488"
         d="M 10.777379,1104.0446 A 4.8988085,5.1437488 0 1 1 0.9797616,1104.0446 A 4.8988085,5.1437488 0 1 1 10.777379,1104.0446 z"
         transform="matrix(-1.0206564,0,0,0.9720537,160.01786,-1205.1568)" />
      <path
         transform="matrix(-0.9185908,0,0,0.9720537,145.41786,-1190.7568)"
         d="M 10.777379,1104.0446 A 4.8988085,5.1437488 0 1 1 0.9797616,1104.0446 A 4.8988085,5.1437488 0 1 1 10.777379,1104.0446 z"
         sodipodi:ry="5.1437488"
         sodipodi:rx="4.8988085"
         sodipodi:cy="1104.0446"
         sodipodi:cx="5.8785701"
         id="path4629"
         style="fill:#fcef3c;fill-opacity:1;stroke:#555555;stroke-width:1.58739531;stroke-linecap:butt;stroke-linejoin:round;stroke-miterlimit:4;stroke-dasharray:none;stroke-opacity:1"
         sodipodi:type="arc" />
      <path
         transform="matrix(-0.8267317,0,0,0.9720537,131.87786,-1190.3568)"
         d="M 10.777379,1104.0446 A 4.8988085,5.1437488 0 1 1 0.9797616,1104.0446 A 4.8988085,5.1437488 0 1 1 10.777379,1104.0446 z"
         sodipodi:ry="5.1437488"
         sodipodi:rx="4.8988085"
         sodipodi:cy="1104.0446"
         sodipodi:cx="5.8785701"
         id="path4631"
         style="fill:#fcef3c;fill-opacity:1;stroke:#555555;stroke-width:1.67326152;stroke-linecap:butt;stroke-linejoin:round;stroke-miterlimit:4;stroke-dasharray:none;stroke-opacity:1"
         sodipodi:type="arc" />
      <path
         transform="matrix(-0.6696526,0,0,0.9720537,119.95446,-1190.1568)"
         d="M 10.777379,1104.0446 A 4.8988085,5.1437488 0 1 1 0.9797616,1104.0446 A 4.8988085,5.1437488 0 1 1 10.777379,1104.0446 z"
         sodipodi:ry="5.1437488"
         sodipodi:rx="4.8988085"
         sodipodi:cy="1104.0446"
         sodipodi:cx="5.8785701"
         id="path4633"
         style="fill:#fcef3c;fill-opacity:1;stroke:#555555;stroke-width:1.85917962;stroke-linecap:butt;stroke-linejoin:round;stroke-miterlimit:4;stroke-dasharray:none;stroke-opacity:1"
         sodipodi:type="arc" />
      <use
         style="stroke:#555555;stroke-width:1.5;stroke-opacity:1"
         height="1052.3622"
         width="744.09448"
         transform="translate(0,-14)"
         id="use4643"
         xlink:href="#path4627"
         y="0"
         x="0" />
      <use
         style="stroke:#555555;stroke-width:1.5;stroke-opacity:1"
         height="1052.3622"
         width="744.09448"
         transform="translate(0,-14)"
         id="use4645"
         xlink:href="#use4643"
         y="0"
         x="0" />
      <use
         style="stroke:#555555;stroke-width:1.5;stroke-opacity:1"
         height="1052.3622"
         width="744.09448"
         transform="translate(0,-14)"
         id="use4647"
         xlink:href="#use4645"
         y="0"
         x="0" />
      <use
         style="stroke:#555555;stroke-width:1.5;stroke-opacity:1"
         height="1052.3622"
         width="744.09448"
         transform="translate(0,-14)"
         id="use4649"
         xlink:href="#use4647"
         y="0"
         x="0" />
      <use
         style="stroke:#555555;stroke-width:1.5;stroke-opacity:1"
         height="1052.3622"
         width="744.09448"
         transform="translate(0,-14)"
         id="use4651"
         xlink:href="#use4649"
         y="0"
         x="0" />
      <path
         sodipodi:nodetypes="ccccccccccccc"
         id="rect4653"
         d="M 152.51786,-246.24827 L 152.51786,-243.74827 L 150.01786,-243.74827 L 150.01786,-240.74827 L 152.51786,-240.74827 L 152.51786,-236.24827 L 155.51786,-236.24827 L 155.51786,-240.74827 L 158.01786,-240.74827 L 158.01786,-243.74827 L 155.51786,-243.74827 L 155.51786,-246.24827 L 152.51786,-246.24827 z"
         style="fill:#fcef3c;fill-opacity:1;stroke:#555555;stroke-width:1.5;stroke-linecap:butt;stroke-linejoin:round;stroke-miterlimit:4;stroke-opacity:1" />
      <path
         transform="matrix(0.9140625,0,0,1.0327719,336.69027,-1223.8887)"
         d="M -192.73563,962.04291 A 7.1111112,6.2937422 0 1 1 -206.95785,962.04291 A 7.1111112,6.2937422 0 1 1 -192.73563,962.04291 z"
         sodipodi:ry="6.2937422"
         sodipodi:rx="7.1111112"
         sodipodi:cy="962.04291"
         sodipodi:cx="-199.84674"
         id="path4659"
         style="fill:#fcef3c;fill-opacity:1;stroke:#555555;stroke-width:1.54383576;stroke-linecap:butt;stroke-linejoin:round;stroke-miterlimit:4;stroke-dasharray:none;stroke-opacity:1"
         sodipodi:type="arc" />
      <path
         sodipodi:type="arc"
         style="fill:#fcef3c;fill-opacity:1;stroke:#555555;stroke-width:1.54383576;stroke-linecap:butt;stroke-linejoin:round;stroke-miterlimit:4;stroke-dasharray:none;stroke-opacity:1"
         id="path4687"
         sodipodi:cx="-199.84674"
         sodipodi:cy="962.04291"
         sodipodi:rx="7.1111112"
         sodipodi:ry="6.2937422"
         d="M -192.73563,962.04291 A 7.1111112,6.2937422 0 1 1 -206.95785,962.04291 A 7.1111112,6.2937422 0 1 1 -192.73563,962.04291 z"
         transform="matrix(-0.9140625,0,0,1.0327719,-28.65455,-1223.8887)" />
    </g>
    <g
       id="g2845">
      <g
         style="stroke:#555555;stroke-opacity:1"
         transform="translate(999.70227,-67.71062)"
         id="g4493">
        <path
           style="fill:#fcef3c;fill-opacity:1;stroke:#555555;stroke-width:1.5;stroke-linecap:square;stroke-linejoin:round;stroke-miterlimit:4;stroke-dasharray:none;stroke-opacity:1"
           d="M -1133.5436,201.08498 L -1156.1686,201.14748 C -1163.0482,201.16079 -1159.8876,205.80652 -1157.2936,206.86623 L -1133.2623,216.67873 L -1109.2311,206.86623 C -1106.6371,205.80652 -1103.4765,201.16046 -1110.3561,201.14748 L -1133.5436,201.08498 z"
           id="path4463" />
        <path
           style="fill:#fcef3c;fill-opacity:1;stroke:#555555;stroke-width:2;stroke-linecap:square;stroke-linejoin:round;stroke-miterlimit:4;stroke-dasharray:none;stroke-opacity:1"
           d="M -1133.2623,197.70998 C -1145.8707,198.00531 -1144.7052,208.39148 -1149.2936,214.99123 C -1158.6852,228.49946 -1168.7437,233.629 -1178.3873,234.39748 C -1189.5844,235.28975 -1199.2509,238.78325 -1197.6998,248.05373 C -1197.2565,250.70336 -1197.4372,254.10475 -1192.7311,257.99123 C -1197.2683,267.92178 -1190.95,274.56553 -1182.1998,274.86623 C -1183.5908,285.05496 -1176.6946,291.03993 -1164.4811,288.36623 C -1163.7046,299.78233 -1152.8482,303.54422 -1143.3873,295.95998 C -1141.7303,299.11734 -1140.7019,302.38541 -1133.2623,302.67873 C -1125.8228,302.38541 -1124.8257,299.11734 -1123.1686,295.95998 C -1113.7078,303.54422 -1102.8513,299.78233 -1102.0748,288.36623 C -1089.8614,291.03993 -1082.9652,285.05496 -1084.3561,274.86623 C -1075.606,274.56553 -1069.2877,267.92178 -1073.8248,257.99123 C -1069.1188,254.10475 -1069.2994,250.70336 -1068.8561,248.05373 C -1067.3051,238.78325 -1076.9715,235.28975 -1088.1686,234.39748 C -1097.8123,233.629 -1107.8708,228.49946 -1117.2623,214.99123 C -1121.8508,208.39148 -1120.654,198.00531 -1133.2623,197.70998 z"
           id="path4413" />
        <path
           style="fill:none;fill-opacity:1;stroke:#555555;stroke-width:1.5;stroke-linecap:square;stroke-linejoin:round;stroke-miterlimit:4;stroke-dasharray:none;stroke-opacity:1"
           d="M -1133.2732,198.93999 C -1135.9243,198.92997 -1139.1338,201.14194 -1140.2078,203.73953 C -1140.2124,203.75075 -1140.2171,203.76196 -1140.2217,203.77317 C -1145.3187,216.09462 -1148.8141,221.34902 -1157.1736,230.80719 C -1168.4678,243.58585 -1181.9394,250.76048 -1192.7264,257.99589"
           id="path4415"
           sodipodi:nodetypes="csssc" />
        <path
           style="fill:none;fill-opacity:1;stroke:#555555;stroke-width:1.5;stroke-linecap:square;stroke-linejoin:round;stroke-miterlimit:4;stroke-dasharray:none;stroke-opacity:1"
           d="M -1133.2732,200.01781 C -1134.9874,200.07763 -1136.6741,201.49609 -1138.083,205.09101 C -1142.3767,216.04636 -1149.944,234.54021 -1182.4493,274.85101"
           id="path4417"
           sodipodi:nodetypes="csc" />
        <path
           style="fill:none;fill-opacity:1;stroke:#555555;stroke-width:1.5;stroke-linecap:square;stroke-linejoin:round;stroke-miterlimit:4;stroke-dasharray:none;stroke-opacity:1"
           d="M -1164.4756,288.35499 C -1152.082,261.75657 -1145.6109,232.16975 -1135.4599,203.47308 C -1135.1051,202.46986 -1134.2988,201.09473 -1133.5524,201.09563"
           id="path4419"
           sodipodi:nodetypes="csc" />
        <path
           style="fill:none;fill-opacity:1;stroke:#555555;stroke-width:1.5;stroke-linecap:square;stroke-linejoin:round;stroke-miterlimit:4;stroke-dasharray:none;stroke-opacity:1"
           d="M -1143.3875,295.80928 L -1133.2623,198.28533"
           id="path4421"
           sodipodi:nodetypes="cc" />
        <path
           sodipodi:nodetypes="csssc"
           id="path4444"
           d="M -1133.2732,198.93999 C -1130.6221,198.92997 -1127.4126,201.14194 -1126.3386,203.73953 C -1126.3339,203.75075 -1126.3293,203.76196 -1126.3247,203.77317 C -1121.2277,216.09462 -1117.7323,221.34902 -1109.3728,230.80719 C -1098.0786,243.58585 -1084.607,250.76048 -1073.82,257.99589"
           style="fill:none;fill-opacity:1;stroke:#555555;stroke-width:1.5;stroke-linecap:square;stroke-linejoin:round;stroke-miterlimit:4;stroke-dasharray:none;stroke-opacity:1" />
        <path
           sodipodi:nodetypes="csc"
           id="path4446"
           d="M -1133.2732,200.01781 C -1131.559,200.07763 -1129.9478,201.52052 -1128.478,205.09101 C -1123.9124,216.18233 -1116.6024,234.54021 -1084.0971,274.85101"
           style="fill:none;fill-opacity:1;stroke:#555555;stroke-width:1.5;stroke-linecap:square;stroke-linejoin:round;stroke-miterlimit:4;stroke-dasharray:none;stroke-opacity:1" />
        <path
           sodipodi:nodetypes="csc"
           id="path4448"
           d="M -1102.0708,288.35499 C -1114.4644,261.75657 -1120.9355,232.16975 -1131.0865,203.47308 C -1131.4413,202.46986 -1132.2476,201.09473 -1132.994,201.09563"
           style="fill:none;fill-opacity:1;stroke:#555555;stroke-width:1.5;stroke-linecap:square;stroke-linejoin:round;stroke-miterlimit:4;stroke-dasharray:none;stroke-opacity:1" />
        <path
           id="path4450"
           d="M -1123.1589,295.80928 L -1133.2623,198.28533"
           style="fill:none;fill-opacity:1;stroke:#555555;stroke-width:1.5;stroke-linecap:square;stroke-linejoin:round;stroke-miterlimit:4;stroke-dasharray:none;stroke-opacity:1"
           sodipodi:nodetypes="cc" />
        <path
           style="opacity:1;fill:#fcef3c;fill-opacity:1;stroke:#555555;stroke-width:1.5;stroke-linecap:square;stroke-linejoin:round;stroke-miterlimit:4;stroke-dasharray:none;stroke-opacity:1"
           d="M -833.2623,497.70998 L -833.2623,502.28533"
           id="path4491"
           transform="translate(-300,-300)"
           sodipodi:nodetypes="cc" />
      </g>
      <path
         id="path4522"
         d="M -187.00375,186.37474 L -189.46809,181.86954"
         style="fill:none;fill-opacity:1;stroke:#555555;stroke-width:1;stroke-linecap:square;stroke-linejoin:round;stroke-miterlimit:4;stroke-dasharray:none;stroke-opacity:1" />
      <path
         id="path4524"
         d="M -177.39165,200.41135 L -180.69869,196.77755"
         style="fill:none;fill-opacity:1;stroke:#555555;stroke-width:1;stroke-linecap:square;stroke-linejoin:round;stroke-miterlimit:4;stroke-dasharray:none;stroke-opacity:1" />
      <path
         id="path4526"
         d="M -162.30619,214.07721 L -167.0174,210.79952"
         style="fill:none;fill-opacity:1;stroke:#555555;stroke-width:1;stroke-linecap:square;stroke-linejoin:round;stroke-miterlimit:4;stroke-dasharray:none;stroke-opacity:1" />
      <path
         id="path4528"
         d="M -142.97531,221.26081 L -149.3864,220.11187"
         style="fill:none;fill-opacity:1;stroke:#555555;stroke-width:1;stroke-linecap:square;stroke-linejoin:round;stroke-miterlimit:4;stroke-dasharray:none;stroke-opacity:1" />
      <path
         id="path4532"
         d="M -124.16741,221.23779 L -129.32561,222.40101"
         style="fill:none;fill-opacity:1;stroke:#555555;stroke-width:1;stroke-linecap:square;stroke-linejoin:round;stroke-miterlimit:4;stroke-dasharray:none;stroke-opacity:1" />
      <path
         id="path4534"
         d="M -105.34245,213.95046 L -110.03676,216.98612"
         style="fill:none;fill-opacity:1;stroke:#555555;stroke-width:1;stroke-linecap:square;stroke-linejoin:round;stroke-miterlimit:4;stroke-dasharray:none;stroke-opacity:1" />
      <path
         id="path4536"
         d="M -89.46531,200.77242 L -93.23512,204.70544"
         style="fill:none;fill-opacity:1;stroke:#555555;stroke-width:1;stroke-linecap:square;stroke-linejoin:round;stroke-miterlimit:4;stroke-dasharray:none;stroke-opacity:1" />
      <path
         id="path4538"
         d="M -80.54577,186.11475 L -82.29075,190.5772"
         style="fill:none;fill-opacity:1;stroke:#555555;stroke-width:1;stroke-linecap:square;stroke-linejoin:round;stroke-miterlimit:4;stroke-dasharray:none;stroke-opacity:1" />
      <path
         id="path4540"
         d="M -175.53542,179.14176 L -177.75209,175.10078"
         style="fill:none;fill-opacity:1;stroke:#555555;stroke-width:1;stroke-linecap:square;stroke-linejoin:round;stroke-miterlimit:4;stroke-dasharray:none;stroke-opacity:1" />
      <path
         id="path4542"
         d="M -168.51535,188.79508 L -171.35337,185.45869"
         style="fill:none;fill-opacity:1;stroke:#555555;stroke-width:1;stroke-linecap:square;stroke-linejoin:round;stroke-miterlimit:4;stroke-dasharray:none;stroke-opacity:1" />
      <path
         id="path4544"
         d="M -156.05421,199.12312 L -161.06772,196.30174"
         style="fill:none;fill-opacity:1;stroke:#555555;stroke-width:1;stroke-linecap:square;stroke-linejoin:round;stroke-miterlimit:4;stroke-dasharray:none;stroke-opacity:1" />
      <path
         id="path4546"
         d="M -141.40739,206.15893 L -146.62973,204.41779"
         style="fill:none;fill-opacity:1;stroke:#555555;stroke-width:1;stroke-linecap:square;stroke-linejoin:round;stroke-miterlimit:4;stroke-dasharray:none;stroke-opacity:1" />
      <path
         id="path4548"
         d="M -126.04847,205.88067 L -130.20529,206.45173"
         style="fill:none;fill-opacity:1;stroke:#555555;stroke-width:1;stroke-linecap:square;stroke-linejoin:round;stroke-miterlimit:4;stroke-dasharray:none;stroke-opacity:1" />
      <path
         id="path4550"
         d="M -111.05079,199.22649 L -115.04649,202.12456"
         style="fill:none;fill-opacity:1;stroke:#555555;stroke-width:1;stroke-linecap:square;stroke-linejoin:round;stroke-miterlimit:4;stroke-dasharray:none;stroke-opacity:1" />
      <path
         id="path4552"
         d="M -98.87168,189.2877 L -101.48355,192.11425"
         style="fill:none;fill-opacity:1;stroke:#555555;stroke-width:1;stroke-linecap:square;stroke-linejoin:round;stroke-miterlimit:4;stroke-dasharray:none;stroke-opacity:1" />
      <path
         id="path4554"
         d="M -91.32418,178.64242 L -93.25334,181.79266"
         style="fill:none;fill-opacity:1;stroke:#555555;stroke-width:1;stroke-linecap:square;stroke-linejoin:round;stroke-miterlimit:4;stroke-dasharray:none;stroke-opacity:1" />
      <path
         id="path4556"
         d="M -163.67655,169.08579 L -164.9074,167.3895"
         style="fill:none;fill-opacity:1;stroke:#555555;stroke-width:1;stroke-linecap:square;stroke-linejoin:round;stroke-miterlimit:4;stroke-dasharray:none;stroke-opacity:1" />
      <path
         id="path4558"
         d="M -158.516,174.7104 L -160.26995,173.10152"
         style="fill:none;fill-opacity:1;stroke:#555555;stroke-width:1;stroke-linecap:square;stroke-linejoin:round;stroke-miterlimit:4;stroke-dasharray:none;stroke-opacity:1" />
      <path
         id="path4560"
         d="M -150.01097,180.87487 L -153.26969,179.06354"
         style="fill:none;fill-opacity:1;stroke:#555555;stroke-width:1;stroke-linecap:square;stroke-linejoin:round;stroke-miterlimit:4;stroke-dasharray:none;stroke-opacity:1" />
      <path
         id="path4562"
         d="M -139.13776,184.8139 L -143.18591,183.87593"
         style="fill:none;fill-opacity:1;stroke:#555555;stroke-width:1;stroke-linecap:square;stroke-linejoin:round;stroke-miterlimit:4;stroke-dasharray:none;stroke-opacity:1" />
      <path
         id="path4564"
         d="M -127.98274,184.41002 L -131.18383,185.19193"
         style="fill:none;fill-opacity:1;stroke:#555555;stroke-width:1;stroke-linecap:square;stroke-linejoin:round;stroke-miterlimit:4;stroke-dasharray:none;stroke-opacity:1" />
      <path
         id="path4566"
         d="M -117.13174,180.87214 L -120.28214,182.55301"
         style="fill:none;fill-opacity:1;stroke:#555555;stroke-width:1;stroke-linecap:square;stroke-linejoin:round;stroke-miterlimit:4;stroke-dasharray:none;stroke-opacity:1" />
      <path
         id="path4568"
         d="M -108.87187,175.07125 L -111.34966,177.20359"
         style="fill:none;fill-opacity:1;stroke:#555555;stroke-width:1;stroke-linecap:square;stroke-linejoin:round;stroke-miterlimit:4;stroke-dasharray:none;stroke-opacity:1" />
      <path
         id="path4570"
         d="M -103.53855,169.17014 L -105.24218,171.28199"
         style="fill:none;fill-opacity:1;stroke:#555555;stroke-width:1;stroke-linecap:square;stroke-linejoin:round;stroke-miterlimit:4;stroke-dasharray:none;stroke-opacity:1" />
      <path
         id="path4572"
         d="M -153.90279,158.93175 L -155.08963,157.36235"
         style="fill:none;fill-opacity:1;stroke:#555555;stroke-width:1;stroke-linecap:square;stroke-linejoin:round;stroke-miterlimit:4;stroke-dasharray:none;stroke-opacity:1" />
      <path
         id="path4574"
         d="M -150.61339,162.31364 L -152.23059,160.8577"
         style="fill:none;fill-opacity:1;stroke:#555555;stroke-width:1;stroke-linecap:square;stroke-linejoin:round;stroke-miterlimit:4;stroke-dasharray:none;stroke-opacity:1" />
      <path
         id="path4576"
         d="M -145.49301,166.11244 L -147.66282,164.83886"
         style="fill:none;fill-opacity:1;stroke:#555555;stroke-width:1;stroke-linecap:square;stroke-linejoin:round;stroke-miterlimit:4;stroke-dasharray:none;stroke-opacity:1" />
      <path
         id="path4578"
         d="M -137.53469,168.85783 L -140.38747,168.42257"
         style="fill:none;fill-opacity:1;stroke:#555555;stroke-width:1;stroke-linecap:square;stroke-linejoin:round;stroke-miterlimit:4;stroke-dasharray:none;stroke-opacity:1" />
      <path
         id="path4580"
         d="M -129.59222,168.87434 L -132.38047,169.40637"
         style="fill:none;fill-opacity:1;stroke:#555555;stroke-width:1;stroke-linecap:square;stroke-linejoin:round;stroke-miterlimit:4;stroke-dasharray:none;stroke-opacity:1" />
      <path
         id="path4582"
         d="M -121.40189,166.06833 L -123.66718,167.24699"
         style="fill:none;fill-opacity:1;stroke:#555555;stroke-width:1;stroke-linecap:square;stroke-linejoin:round;stroke-miterlimit:4;stroke-dasharray:none;stroke-opacity:1" />
      <path
         id="path4584"
         d="M -116.53427,162.45501 L -118.59525,164.18447"
         style="fill:none;fill-opacity:1;stroke:#555555;stroke-width:1;stroke-linecap:square;stroke-linejoin:round;stroke-miterlimit:4;stroke-dasharray:none;stroke-opacity:1" />
      <path
         id="path4586"
         d="M -113.21289,158.88752 L -114.54975,160.4563"
         style="fill:none;fill-opacity:1;stroke:#555555;stroke-width:1;stroke-linecap:square;stroke-linejoin:round;stroke-miterlimit:4;stroke-dasharray:none;stroke-opacity:1" />
      <path
         id="path4588"
         d="M -149.19974,152.81089 L -150.53984,151.79527"
         style="fill:none;fill-opacity:1;stroke:#555555;stroke-width:1;stroke-linecap:square;stroke-linejoin:round;stroke-miterlimit:4;stroke-dasharray:none;stroke-opacity:1" />
      <path
         id="path4590"
         d="M -146.51694,154.82732 L -147.82604,153.97625"
         style="fill:none;fill-opacity:1;stroke:#555555;stroke-width:1;stroke-linecap:square;stroke-linejoin:round;stroke-miterlimit:4;stroke-dasharray:none;stroke-opacity:1" />
      <path
         id="path4592"
         d="M -142.64478,156.73902 L -144.40367,155.97389"
         style="fill:none;fill-opacity:1;stroke:#555555;stroke-width:1;stroke-linecap:square;stroke-linejoin:round;stroke-miterlimit:4;stroke-dasharray:none;stroke-opacity:1" />
      <path
         id="path4594"
         d="M -136.42816,158.20001 L -138.82589,157.88384"
         style="fill:none;fill-opacity:1;stroke:#555555;stroke-width:1;stroke-linecap:square;stroke-linejoin:round;stroke-miterlimit:4;stroke-dasharray:none;stroke-opacity:1" />
      <path
         id="path4596"
         d="M -130.70421,158.1408 L -132.80565,158.42521"
         style="fill:none;fill-opacity:1;stroke:#555555;stroke-width:1;stroke-linecap:square;stroke-linejoin:round;stroke-miterlimit:4;stroke-dasharray:none;stroke-opacity:1" />
      <path
         id="path4598"
         d="M -120.73852,154.7529 L -122.41586,155.81114"
         style="fill:none;fill-opacity:1;stroke:#555555;stroke-width:1;stroke-linecap:square;stroke-linejoin:round;stroke-miterlimit:4;stroke-dasharray:none;stroke-opacity:1" />
      <path
         id="path4600"
         d="M -117.80073,152.8279 L -119.13696,153.84416"
         style="fill:none;fill-opacity:1;stroke:#555555;stroke-width:1;stroke-linecap:square;stroke-linejoin:round;stroke-miterlimit:4;stroke-dasharray:none;stroke-opacity:1" />
      <path
         id="path4602"
         d="M -124.78529,156.84583 L -127.04272,157.57353"
         style="fill:none;fill-opacity:1;stroke:#555555;stroke-width:1;stroke-linecap:square;stroke-linejoin:round;stroke-miterlimit:4;stroke-dasharray:none;stroke-opacity:1" />
      <path
         transform="translate(-300,-300)"
         id="path2571"
         d="M 212.5906,466.77937 L 211.34183,470.10656"
         style="opacity:1;fill:#313131;fill-opacity:1;stroke:#555555;stroke-width:1;stroke-linecap:square;stroke-linejoin:round;stroke-miterlimit:4;stroke-dasharray:none;stroke-opacity:1" />
      <path
         transform="translate(-300,-300)"
         id="path2573"
         d="M 199.31822,463.15225 L 199.31822,463.15225 L 198.36351,465.32507"
         style="opacity:1;fill:#313131;fill-opacity:1;stroke:#555555;stroke-width:1;stroke-linecap:square;stroke-linejoin:round;stroke-miterlimit:4;stroke-dasharray:none;stroke-opacity:1" />
      <path
         transform="translate(-300,-300)"
         id="path2575"
         d="M 189.33094,455.6432 L 188.39068,457.26485"
         style="opacity:1;fill:#313131;fill-opacity:1;stroke:#555555;stroke-width:1;stroke-linecap:square;stroke-linejoin:round;stroke-miterlimit:4;stroke-dasharray:none;stroke-opacity:1" />
      <path
         transform="translate(-300,-300)"
         id="path2577"
         d="M 184.73907,450.40599 L 183.6092,451.80029"
         style="opacity:1;fill:#313131;fill-opacity:1;stroke:#555555;stroke-width:1;stroke-linecap:square;stroke-linejoin:round;stroke-miterlimit:4;stroke-dasharray:none;stroke-opacity:1" />
      <path
         transform="translate(-300,-300)"
         id="path2579"
         d="M 224.21823,469.46941 L 222.76116,473.3675"
         style="opacity:1;fill:#313131;fill-opacity:1;stroke:#555555;stroke-width:1;stroke-linecap:square;stroke-linejoin:round;stroke-miterlimit:4;stroke-dasharray:none;stroke-opacity:1" />
    </g>
    <use
       x="0"
       y="0"
       xlink:href="#g2845"
       id="use2904"
       transform="translate(57.484741,-125.96811)"
       width="600"
       height="660" />
    <use
       x="0"
       y="0"
       xlink:href="#use2904"
       id="use2906"
       transform="translate(-139.99959,0)"
       width="600"
       height="660" />
  </g>
  <g
     id="layer2"
     inkscape:label="Reflet final"
     inkscape:groupmode="layer"
     transform="translate(300,300)"
     sodipodi:insensitive="true">
    <use
       xlink:href="#shield"
       id="use22"
       style="fill:url(#Gradient1)"
       x="0"
       y="0"
       width="600"
       height="660" />
  </g>
  <g
     id="layer1"
     inkscape:label="Contour final"
     inkscape:groupmode="layer"
     transform="translate(300,300)"
     sodipodi:insensitive="true">
    <use
       xlink:href="#shield"
       style="fill:none;stroke:#313131;stroke-width:3;stroke-opacity:1"
       id="use25"
       x="0"
       y="0"
       width="600"
       height="660" />
  </g>
</svg>
