<?xml version="1.0" encoding="UTF-8" standalone="no"?>
<!-- Created with Inkscape (http://www.inkscape.org/) -->
<svg
   xmlns:svg="http://www.w3.org/2000/svg"
   xmlns="http://www.w3.org/2000/svg"
   xmlns:xlink="http://www.w3.org/1999/xlink"
   version="1.0"
   width="600"
   height="660"
   id="svg2">
  <defs
     id="defs6">
    <linearGradient
       id="linearGradient2893">
      <stop
         style="stop-color:#ffffff;stop-opacity:0.3137255"
         offset="0"
         id="stop2895" />
      <stop
         style="stop-color:#ffffff;stop-opacity:0.25098041"
         offset="0.19"
         id="stop2897" />
      <stop
         style="stop-color:#6b6b6b;stop-opacity:0.1254902"
         offset="0.60000002"
         id="stop2901" />
      <stop
         style="stop-color:#000000;stop-opacity:0.1254902"
         offset="1"
         id="stop2899" />
    </linearGradient>
    <radialGradient
       cx="221.44487"
       cy="226.33101"
       r="300"
       fx="221.44487"
       fy="226.33101"
       id="radialGradient3163"
       xlink:href="#linearGradient2893"
       gradientUnits="userSpaceOnUse"
       gradientTransform="matrix(1.353218,0,0,1.348928,-77.62935,-85.74693)" />
  </defs>
  <g
     style="display:inline"
     id="layer3">
    <path
       d="M 300,658.5 C 300,658.5 598.5,546.17971 598.5,260.72819 C 598.5,-24.723333 598.5,2.176497 598.5,2.176497 L 1.5,2.176497 L 1.5,260.72819 C 1.5,546.17971 300,658.5 300,658.5 z "
       style="fill:#ffffff;fill-opacity:1;fill-rule:evenodd;stroke:none;stroke-width:1px;stroke-linecap:butt;stroke-linejoin:miter;stroke-opacity:1"
       id="path2855" />
    <use
       transform="matrix(-1,0,0,1,600.5,0)"
       id="use3208"
       x="0"
       y="0"
       width="600"
       height="660"
       xlink:href="#g3198" />
    <g
       id="g3198">
      <path
         d="M 50,3 L 25,28 L 25,78 L 1.8759401,101.12406 L 1.7722879,103 L 100,103 L 75,78 L 75,28 L 50,3 z M 1.5,104.5 L 1.5,203 L 50,203 L 25,178 L 25,128 L 1.5,104.5 z M 50,403 L 35.25,417.75 C 49.841789,449.60014 68.228526,477.95211 88.46875,503 L 100,503 L 75,478 L 75,428 L 50,403 z M 100,503 L 93.65625,509.34375 C 103.76485,521.39296 114.29791,532.61269 125,543.09375 L 125,528 L 100,503 z M 200,503 L 175,528 L 175,578 L 170.375,582.625 C 179.83086,589.97401 189.16336,596.77707 198.25,603 L 250,603 L 225,578 L 225,528 L 200,503 z M 250,603 L 229.8125,623.1875 C 247.52496,633.74616 263.01766,641.72405 275,647.46875 L 275,628 L 250,603 z "
         style="fill:#0169c9;fill-rule:evenodd;stroke:#000000;stroke-width:2;stroke-linecap:butt;stroke-linejoin:miter;stroke-miterlimit:4;stroke-dasharray:none;stroke-opacity:1"
         id="use3277" />
      <path
         d="M 100,503 L 125,478 L 125,428 L 150,403 L 175,428 L 175,478 L 200,503 L 100,503 z "
         style="fill:#0169c9;fill-rule:evenodd;stroke:#000000;stroke-width:2;stroke-linecap:butt;stroke-linejoin:round;stroke-miterlimit:4;stroke-dasharray:none;stroke-opacity:1"
         id="use3287" />
      <g
         id="g3305">
        <use
           transform="translate(150,100)"
           id="use3301"
           x="0"
           y="0"
           width="600"
           height="660"
           xlink:href="#use3287" />
        <use
           transform="translate(100,0)"
           id="use3303"
           x="0"
           y="0"
           width="600"
           height="660"
           xlink:href="#use3287" />
      </g>
      <use
         transform="translate(-100,-400)"
         id="use3328"
         x="0"
         y="0"
         width="600"
         height="660"
         xlink:href="#g3305" />
      <use
         transform="translate(0,-400)"
         id="use3330"
         x="0"
         y="0"
         width="600"
         height="660"
         xlink:href="#g3305" />
      <use
         transform="translate(-150,-300)"
         id="use3196"
         x="0"
         y="0"
         width="600"
         height="660"
         xlink:href="#g3305" />
    </g>
    <path
       d="M 1.5,190 L 1.5,260.71875 C 1.5,317.06907 13.140215,366.67564 31.8125,410 L 568.1875,410 C 586.85979,366.67564 598.5,317.06907 598.5,260.71875 C 598.5,182.63621 598.5,228.28317 598.5,190 L 1.5,190 z "
       style="opacity:1;fill:#f2d207;fill-opacity:1;fill-rule:evenodd;stroke:#000000;stroke-width:3;stroke-linecap:round;stroke-linejoin:round;stroke-miterlimit:4;stroke-dasharray:none;stroke-dashoffset:0;stroke-opacity:1"
       id="path3170" />
    <path
       d="M 53.333326,190 L 4,300 L 53.333326,410 L 102.66668,300 L 53.333326,190 z M 102.66668,300 L 152,410 L 201.33332,300 L 152,190 L 102.66668,300 z M 201.33332,300 L 250.66668,410 L 300,300 L 250.66668,190 L 201.33332,300 z "
       style="fill:#0169c9;fill-opacity:1;fill-rule:evenodd;stroke:#000000;stroke-width:3;stroke-linecap:butt;stroke-linejoin:round;stroke-miterlimit:4;stroke-dasharray:none;stroke-opacity:1"
       id="path3157" />
    <use
       transform="translate(296,0)"
       id="use3175"
       x="0"
       y="0"
       width="600"
       height="660"
       xlink:href="#path3157" />
  </g>
  <g
     id="layer2">
    <path
       d="M 300.00001,658.5 C 300.00001,658.5 598.50001,546.17969 598.50001,260.72817 C 598.50001,-24.723334 598.50001,2.1764865 598.50001,2.1764865 L 1.5,2.1764865 L 1.5,260.72817 C 1.5,546.17969 300.00001,658.5 300.00001,658.5 z "
       style="opacity:1;fill:url(#radialGradient3163);fill-opacity:1;fill-rule:evenodd;stroke:none;stroke-width:1px;stroke-linecap:butt;stroke-linejoin:miter;stroke-opacity:1"
       id="path2875" />
  </g>
  <g
     id="layer1">
    <path
       d="M 299.99999,658.50028 C 299.99999,658.50028 1.5,546.17992 1.5,260.72828 C 1.5,-24.723336 1.5,2.1764957 1.5,2.1764957 L 598.49999,2.1764957 L 598.49999,260.72828 C 598.49999,546.17992 299.99999,658.50028 299.99999,658.50028 z "
       style="opacity:1;fill:none;fill-opacity:1;fill-rule:evenodd;stroke:#000000;stroke-width:3.00000048;stroke-linecap:butt;stroke-linejoin:miter;stroke-miterlimit:4;stroke-dasharray:none;stroke-opacity:1"
       id="path1411" />
  </g>
</svg>
