<?xml version="1.0" encoding="UTF-8" standalone="no"?>
<svg
   xmlns:dc="http://purl.org/dc/elements/1.1/"
   xmlns:cc="http://creativecommons.org/ns#"
   xmlns:rdf="http://www.w3.org/1999/02/22-rdf-syntax-ns#"
   xmlns:svg="http://www.w3.org/2000/svg"
   xmlns="http://www.w3.org/2000/svg"
   xmlns:xlink="http://www.w3.org/1999/xlink"
   xmlns:sodipodi="http://sodipodi.sourceforge.net/DTD/sodipodi-0.dtd"
   xmlns:inkscape="http://www.inkscape.org/namespaces/inkscape"
   height="660"
   width="600"
   version="1.0"
   id="svg2"
   sodipodi:version="0.32"
   inkscape:version="0.46"
   sodipodi:docname="Blason ville fr Linghem (Pas-de-Calais).svg"
   sodipodi:docbase="D:\Mes documents\Renaud-Notre Lapin"
   inkscape:export-filename="/Users/olivier/Desktop/Blason Rouge/Blason_Vide_3D.png"
   inkscape:export-xdpi="144"
   inkscape:export-ydpi="144"
   inkscape:output_extension="org.inkscape.output.svg.inkscape">
  <metadata
     id="metadata49">
    <rdf:RDF>
      <cc:Work
         rdf:about="">
        <dc:format>image/svg+xml</dc:format>
        <dc:type
           rdf:resource="http://purl.org/dc/dcmitype/StillImage" />
        <dc:title>Gabarit d'un blason en pointe pour le projet Blasons de Wikipédia</dc:title>
        <dc:date>03-AUG-2006</dc:date>
        <dc:creator>
          <cc:Agent>
            <dc:title>Jérôme BLUM (wagner51)</dc:title>
          </cc:Agent>
        </dc:creator>
        <cc:license
           rdf:resource="http://web.resource.org/cc/PublicDomain" />
        <dc:language>fr</dc:language>
        <dc:subject>
          <rdf:Bag>
            <rdf:li>gabarit modèle blason projet wikipédia</rdf:li>
          </rdf:Bag>
        </dc:subject>
      </cc:Work>
      <cc:License
         rdf:about="http://web.resource.org/cc/PublicDomain">
        <cc:permits
           rdf:resource="http://web.resource.org/cc/Reproduction" />
        <cc:permits
           rdf:resource="http://web.resource.org/cc/Distribution" />
        <cc:permits
           rdf:resource="http://web.resource.org/cc/DerivativeWorks" />
      </cc:License>
    </rdf:RDF>
  </metadata>
  <sodipodi:namedview
     inkscape:window-height="814"
     inkscape:window-width="1152"
     inkscape:pageshadow="2"
     inkscape:pageopacity="1"
     guidetolerance="10.0"
     gridtolerance="10.0"
     objecttolerance="10.0"
     borderopacity="1.0"
     bordercolor="#666666"
     pagecolor="#f2efe7"
     id="base"
     showgrid="false"
     height="660px"
     inkscape:zoom="0.44547727"
     inkscape:cx="62.297544"
     inkscape:cy="245.29529"
     inkscape:window-x="-8"
     inkscape:window-y="-8"
     inkscape:current-layer="layer3" />
  <desc
     id="desc4">Flag of Canton of Valais (Wallis)</desc>
  <defs
     id="defs6">
    <linearGradient
       id="linearGradient2893">
      <stop
         style="stop-color:white;stop-opacity:0.3137255;"
         offset="0"
         id="stop2895" />
      <stop
         id="stop2897"
         offset="0.19"
         style="stop-color:white;stop-opacity:0.25098041;" />
      <stop
         style="stop-color:#6b6b6b;stop-opacity:0.1254902;"
         offset="0.60000002"
         id="stop2901" />
      <stop
         style="stop-color:black;stop-opacity:0.1254902;"
         offset="1"
         id="stop2899" />
    </linearGradient>
    <radialGradient
       inkscape:collect="always"
       xlink:href="#linearGradient2893"
       id="radialGradient3163"
       gradientUnits="userSpaceOnUse"
       gradientTransform="matrix(1.353218,0,0,1.348928,-77.62935,-85.74693)"
       cx="221.44487"
       cy="226.33101"
       fx="221.44487"
       fy="226.33101"
       r="300" />
  </defs>
  <g
     inkscape:groupmode="layer"
     id="layer3"
     inkscape:label="Fond écu"
     style="display:inline">
    <path
       id="path2855"
       style="fill:#5ab532;fill-opacity:1;fill-rule:evenodd;stroke:none;stroke-width:1px;stroke-linecap:butt;stroke-linejoin:miter;stroke-opacity:1"
       d="M 300,658.5 C 300,658.5 598.50001,546.17969 598.50001,260.72817 C 598.50001,-24.723354 598.50001,2.1764765 598.50001,2.1764765 L 1.5,2.1764765 L 1.5,260.72817 C 1.5,546.17969 300,658.5 300,658.5 z "
       sodipodi:nodetypes="cccccc" />
    <path
       sodipodi:nodetypes="cccccc"
       d="M 300.00001,569.42546 C 300.00001,569.42546 525.2678,484.66114 525.2678,269.2406 C 525.2678,53.820042 525.2678,74.120429 525.2678,74.120429 L 74.732213,74.120429 L 74.732213,269.2406 C 74.732213,484.66114 300.00001,569.42546 300.00001,569.42546 z"
       style="fill:#e20909;fill-opacity:1;fill-rule:evenodd;stroke:#000000;stroke-width:3;stroke-linecap:butt;stroke-linejoin:miter;stroke-opacity:1;stroke-miterlimit:4;stroke-dasharray:none"
       id="path2524" />
    <path
       id="path3317"
       style="fill:#fcef3c;fill-rule:evenodd;stroke:#000000;stroke-width:3;stroke-linecap:butt;stroke-linejoin:miter;stroke-miterlimit:4;stroke-dasharray:none;stroke-opacity:1"
       d="M 196.52782,129.18853 C 187.67946,129.36938 164.87555,138.67157 169.98156,161.88856 C 174.32162,181.62273 183.63521,180.39525 186.29155,194.69863 C 174.13651,187.85312 174.17593,179.43587 158.1043,169.91347 C 139.01895,158.60544 123.26934,175.52719 120.83148,184.56243 C 118.526,193.10708 121.05844,217.60037 144.77613,219.20364 C 164.49123,220.53637 166.29983,211.68758 179.90764,212.65964 C 169.81706,221.19292 161.90472,218.78097 147.9881,230.60063 C 131.07971,244.96124 141.95089,265.37696 149.69915,270.62513 C 157.02668,275.58832 181.01193,281.16987 190.25398,259.26816 C 197.83537,241.30185 190.36129,236.59797 195.30706,224.41683 C 199.48975,236.51521 194.71393,243.16058 200.88048,260.07866 C 208.47743,280.92112 231.39201,277.81037 239.00382,272.36619 C 246.20232,267.21762 259.75652,246.66162 242.42591,230.39048 C 227.66889,216.5356 220.67949,222.85775 210.3763,212.47953 C 224.3273,211.17635 229.05908,218.16694 247.72915,216.87221 C 269.85983,215.33748 273.20886,192.45268 270.08285,183.63186 C 267.12655,175.29001 251.12914,156.56964 230.69873,168.72274 C 213.62181,178.881 217.29188,187.22542 205.30319,194.17831 C 208.57835,181.19523 216.48389,178.65469 221.04282,160.86792 C 226.55073,139.37875 205.88421,128.9973 196.52782,129.18853 z M 195.53721,197.33025 C 197.3736,197.24875 199.20636,198.45291 199.82984,201.1726 C 205.95486,201.87796 207.48734,206.13984 202.5415,209.35761 C 204.44916,213.99945 200.5732,217.17494 195.56723,214.15055 C 191.54906,217.07688 185.29975,214.83555 188.8331,209.38763 C 184.53766,205.86493 184.18032,201.22269 191.23458,201.1726 C 191.85805,198.7789 193.7008,197.41175 195.53721,197.33025 z M 405.29268,129.18853 C 396.44432,129.36938 373.64041,138.67157 378.74642,161.88856 C 383.08648,181.62273 392.40007,180.39525 395.05641,194.69863 C 382.90137,187.85312 382.94079,179.43587 366.86916,169.91347 C 347.78381,158.60544 332.0342,175.52719 329.59634,184.56243 C 327.29086,193.10708 329.8233,217.60037 353.54099,219.20364 C 373.25609,220.53637 375.06469,211.68758 388.6725,212.65964 C 378.58192,221.19292 370.66958,218.78097 356.75296,230.60063 C 339.84457,244.96124 350.71575,265.37696 358.46401,270.62513 C 365.79154,275.58832 389.77679,281.16987 399.01884,259.26816 C 406.60023,241.30185 399.12615,236.59797 404.07192,224.41683 C 408.25461,236.51521 403.47879,243.16058 409.64534,260.07866 C 417.24229,280.92112 440.15687,277.81037 447.76868,272.36619 C 454.96718,267.21762 468.52138,246.66162 451.19077,230.39048 C 436.43375,216.5356 429.44435,222.85775 419.14116,212.47953 C 433.09216,211.17635 437.82394,218.16694 456.49401,216.87221 C 478.62469,215.33748 481.97372,192.45268 478.84771,183.63186 C 475.89141,175.29001 459.894,156.56964 439.46359,168.72274 C 422.38667,178.881 426.05674,187.22542 414.06805,194.17831 C 417.34321,181.19523 425.24875,178.65469 429.80768,160.86792 C 435.31559,139.37875 414.64907,128.9973 405.29268,129.18853 z M 404.30207,197.33025 C 406.13846,197.24875 407.97122,198.45291 408.5947,201.1726 C 414.71972,201.87796 416.2522,206.13984 411.30636,209.35761 C 413.21402,213.99945 409.33806,217.17494 404.33209,214.15055 C 400.31392,217.07688 394.06461,214.83555 397.59796,209.38763 C 393.30252,205.86493 392.94518,201.22269 399.99944,201.1726 C 400.62291,198.7789 402.46566,197.41175 404.30207,197.33025 z M 300.91025,306.52643 C 292.06189,306.70728 269.25798,316.00947 274.36399,339.22646 C 278.70405,358.96063 288.01764,357.73315 290.67398,372.03653 C 278.51894,365.19102 278.55836,356.77377 262.48673,347.25137 C 243.40138,335.94334 227.65177,352.86509 225.21391,361.90033 C 222.90843,370.44498 225.44087,394.93827 249.15856,396.54154 C 268.87366,397.87427 270.68226,389.02548 284.29007,389.99754 C 274.19949,398.53082 266.28715,396.11887 252.37053,407.93853 C 235.46214,422.29914 246.33332,442.71486 254.08158,447.96303 C 261.40911,452.92622 285.39436,458.50777 294.63641,436.60606 C 302.2178,418.63975 294.74372,413.93587 299.68949,401.75473 C 303.87218,413.85311 299.09636,420.49848 305.26291,437.41656 C 312.85986,458.25902 335.77444,455.14827 343.38625,449.70409 C 350.58475,444.55552 364.13895,423.99952 346.80834,407.72838 C 332.05132,393.8735 325.06192,400.19565 314.75873,389.81743 C 328.70973,388.51425 333.44151,395.50484 352.11158,394.21011 C 374.24226,392.67538 377.59129,369.79058 374.46528,360.96976 C 371.50898,352.62791 355.51157,333.90754 335.08116,346.06064 C 318.00424,356.2189 321.67431,364.56332 309.68562,371.51621 C 312.96078,358.53313 320.86632,355.99259 325.42525,338.20582 C 330.93316,316.71665 310.26664,306.3352 300.91025,306.52643 z M 299.91964,374.66815 C 301.75603,374.58665 303.58879,375.79081 304.21227,378.5105 C 310.33729,379.21586 311.86977,383.47774 306.92393,386.69551 C 308.83159,391.33735 304.95563,394.51284 299.94966,391.48845 C 295.93149,394.41478 289.68218,392.17345 293.21553,386.72553 C 288.92009,383.20283 288.56275,378.56059 295.61701,378.5105 C 296.24048,376.1168 298.08323,374.74965 299.91964,374.66815 z" />
  </g>
  <g
     inkscape:groupmode="layer"
     id="layer4"
     inkscape:label="Meubles"
     sodipodi:insensitive="true" />
  <g
     inkscape:groupmode="layer"
     id="layer2"
     inkscape:label="Reflet final"
     sodipodi:insensitive="true">
    <path
       sodipodi:nodetypes="cccccc"
       d="M 300.00001,658.5 C 300.00001,658.5 598.50001,546.17969 598.50001,260.72817 C 598.50001,-24.723334 598.50001,2.1764865 598.50001,2.1764865 L 1.5,2.1764865 L 1.5,260.72817 C 1.5,546.17969 300.00001,658.5 300.00001,658.5 z "
       style="opacity:1;fill:url(#radialGradient3163);fill-opacity:1;fill-rule:evenodd;stroke:none;stroke-width:1px;stroke-linecap:butt;stroke-linejoin:miter;stroke-opacity:1"
       id="path2875"
       inkscape:export-xdpi="144"
       inkscape:export-ydpi="144" />
  </g>
  <g
     inkscape:groupmode="layer"
     id="layer1"
     inkscape:label="Contour final"
     sodipodi:insensitive="true">
    <path
       sodipodi:nodetypes="cccccc"
       d="M 299.99999,658.50028 C 299.99999,658.50028 1.5,546.17992 1.5,260.72828 C 1.5,-24.723336 1.5,2.1764957 1.5,2.1764957 L 598.49999,2.1764957 L 598.49999,260.72828 C 598.49999,546.17992 299.99999,658.50028 299.99999,658.50028 z "
       style="opacity:1;fill:none;fill-opacity:1;fill-rule:evenodd;stroke:#000000;stroke-width:3.00000048;stroke-linecap:butt;stroke-linejoin:miter;stroke-miterlimit:4;stroke-dasharray:none;stroke-opacity:1"
       id="path1411"
       inkscape:export-xdpi="144"
       inkscape:export-ydpi="144" />
  </g>
</svg>
