<?xml version="1.0" encoding="UTF-8" standalone="no"?>
<svg
   xmlns:dc="http://purl.org/dc/elements/1.1/"
   xmlns:cc="http://creativecommons.org/ns#"
   xmlns:rdf="http://www.w3.org/1999/02/22-rdf-syntax-ns#"
   xmlns:svg="http://www.w3.org/2000/svg"
   xmlns="http://www.w3.org/2000/svg"
   xmlns:xlink="http://www.w3.org/1999/xlink"
   xmlns:sodipodi="http://sodipodi.sourceforge.net/DTD/sodipodi-0.dtd"
   xmlns:inkscape="http://www.inkscape.org/namespaces/inkscape"
   height="660"
   width="600"
   version="1.0"
   id="svg2"
   sodipodi:version="0.32"
   inkscape:version="0.48.1 r9760"
   sodipodi:docname="Blason_Vide_3D[1].svg"
   inkscape:export-filename="/Users/olivier/Desktop/Blason Rouge/Blason_Vide_3D.png"
   inkscape:export-xdpi="144"
   inkscape:export-ydpi="144"
   inkscape:output_extension="org.inkscape.output.svg.inkscape">
  <metadata
     id="metadata49">
    <rdf:RDF>
      <cc:Work
         rdf:about="">
        <dc:format>image/svg+xml</dc:format>
        <dc:type
           rdf:resource="http://purl.org/dc/dcmitype/StillImage" />
        <dc:title></dc:title>
        <dc:date />
        <dc:creator>
          <cc:Agent>
            <dc:title>chatsam</dc:title>
          </cc:Agent>
        </dc:creator>
        <cc:license
           rdf:resource="http://web.resource.org/cc/PublicDomain" />
        <dc:language>fr</dc:language>
        <dc:subject>
          <rdf:Bag />
        </dc:subject>
      </cc:Work>
      <cc:License
         rdf:about="http://web.resource.org/cc/PublicDomain">
        <cc:permits
           rdf:resource="http://web.resource.org/cc/Reproduction" />
        <cc:permits
           rdf:resource="http://web.resource.org/cc/Distribution" />
        <cc:permits
           rdf:resource="http://web.resource.org/cc/DerivativeWorks" />
      </cc:License>
    </rdf:RDF>
  </metadata>
  <sodipodi:namedview
     inkscape:window-height="712"
     inkscape:window-width="1024"
     inkscape:pageshadow="2"
     inkscape:pageopacity="0.0"
     guidetolerance="10.0"
     gridtolerance="10.0"
     objecttolerance="10.0"
     borderopacity="1.0"
     bordercolor="#666666"
     pagecolor="#ffffff"
     id="base"
     showgrid="false"
     height="660px"
     inkscape:zoom="0.74848485"
     inkscape:cx="299.99987"
     inkscape:cy="329.99972"
     inkscape:window-x="226"
     inkscape:window-y="0"
     inkscape:current-layer="layer3"
     showguides="true"
     inkscape:guide-bbox="true"
     inkscape:window-maximized="0">
    <sodipodi:guide
       orientation="1,0"
       position="300,305.91729"
       id="guide3626" />
  </sodipodi:namedview>
  <desc
     id="desc4">Flag of Canton of Valais (Wallis)</desc>
  <defs
     id="defs6">
    <linearGradient
       id="linearGradient2893">
      <stop
         style="stop-color:white;stop-opacity:0.3137255;"
         offset="0"
         id="stop2895" />
      <stop
         id="stop2897"
         offset="0.19"
         style="stop-color:white;stop-opacity:0.25098041;" />
      <stop
         style="stop-color:#6b6b6b;stop-opacity:0.1254902;"
         offset="0.60000002"
         id="stop2901" />
      <stop
         style="stop-color:black;stop-opacity:0.1254902;"
         offset="1"
         id="stop2899" />
    </linearGradient>
    <radialGradient
       inkscape:collect="always"
       xlink:href="#linearGradient2893"
       id="radialGradient3163"
       gradientUnits="userSpaceOnUse"
       gradientTransform="matrix(1.353218,0,0,1.348928,-77.62935,-85.74693)"
       cx="221.44487"
       cy="226.33101"
       fx="221.44487"
       fy="226.33101"
       r="300" />
    <radialGradient
       gradientTransform="matrix(1.353218,0,0,1.348928,-77.62935,-85.74693)"
       gradientUnits="userSpaceOnUse"
       xlink:href="#linearGradient2893-9"
       id="radialGradient3163-3"
       fy="226.33101"
       fx="221.44487"
       r="300"
       cy="226.33101"
       cx="221.44487" />
    <radialGradient
       gradientTransform="matrix(0,1.386237,-1.323286,-5.741131e-8,-158.0823,-109.5408)"
       gradientUnits="userSpaceOnUse"
       xlink:href="#linearGradient2955"
       id="radialGradient2871"
       fy="218.90099"
       fx="225.52438"
       r="300"
       cy="218.90099"
       cx="225.52438" />
    <radialGradient
       gradientTransform="matrix(0,1.748721,-1.593162,-1.049767e-7,551.7876,-191.2898)"
       gradientUnits="userSpaceOnUse"
       xlink:href="#linearGradient2955"
       id="radialGradient2865"
       fy="218.90099"
       fx="225.52438"
       r="300"
       cy="218.90099"
       cx="225.52438" />
    <radialGradient
       gradientTransform="matrix(-4.167939e-4,2.182867,-1.884232,-3.599562e-4,615.5972,-289.1214)"
       gradientUnits="userSpaceOnUse"
       xlink:href="#linearGradient2955"
       id="radialGradient1911"
       fy="218.90099"
       fx="225.52438"
       r="300"
       cy="218.90099"
       cx="225.52438" />
    <clipPath
       id="clip">
      <path
         id="path10"
         d="M 0,-200 L 0,600 L 300,600 L 300,-200 L 0,-200 z " />
    </clipPath>
    <polygon
       id="star"
       transform="scale(53,53)"
       points="0,-1 0.58778525,0.80901699 -0.95105652,-0.30901699 0.95105652,-0.30901699 -0.58778525,0.80901699 0,-1 " />
    <radialGradient
       gradientTransform="matrix(-4.167939e-4,2.182867,-1.884232,-3.599562e-4,615.5972,-289.1214)"
       gradientUnits="userSpaceOnUse"
       xlink:href="#linearGradient2955"
       id="radialGradient2961"
       fy="218.90099"
       fx="225.52438"
       r="300"
       cy="218.90099"
       cx="225.52438" />
    <linearGradient
       id="linearGradient2955">
      <stop
         id="stop2867"
         offset="0"
         style="stop-color:#fd0000;stop-opacity:1" />
      <stop
         id="stop2873"
         offset="0.5"
         style="stop-color:#e77275;stop-opacity:0.65882355" />
      <stop
         id="stop2959"
         offset="1"
         style="stop-color:black;stop-opacity:0.32291666" />
    </linearGradient>
    <linearGradient
       id="linearGradient2885">
      <stop
         id="stop2887"
         offset="0"
         style="stop-color:white;stop-opacity:1" />
      <stop
         id="stop2891"
         offset="0.22857143"
         style="stop-color:white;stop-opacity:1" />
      <stop
         id="stop2889"
         offset="1"
         style="stop-color:black;stop-opacity:1" />
    </linearGradient>
    <linearGradient
       id="linearGradient2893-9">
      <stop
         id="stop2895-1"
         offset="0"
         style="stop-color:white;stop-opacity:0.3137255" />
      <stop
         id="stop2897-3"
         offset="0.19"
         style="stop-color:white;stop-opacity:0.25098041" />
      <stop
         id="stop2901-3"
         offset="0.60000002"
         style="stop-color:#6b6b6b;stop-opacity:0.1254902" />
      <stop
         id="stop2899-0"
         offset="1"
         style="stop-color:black;stop-opacity:0.1254902" />
    </linearGradient>
    <inkscape:perspective
       id="perspective33"
       inkscape:persp3d-origin="300 : 220 : 1"
       inkscape:vp_z="600 : 330 : 1"
       inkscape:vp_y="0 : 1000 : 0"
       inkscape:vp_x="0 : 330 : 1"
       sodipodi:type="inkscape:persp3d" />
    <linearGradient
       y2="272.36218"
       x2="442.54803"
       y1="272.36218"
       x1="3.5061214"
       gradientTransform="matrix(0.209313,0,0,0.209313,-180.1744,206.9244)"
       gradientUnits="userSpaceOnUse"
       id="linearGradient4841"
       xlink:href="#linearGradient1732"
       inkscape:collect="always" />
    <linearGradient
       y2="272.36218"
       x2="442.54803"
       y1="272.36218"
       x1="3.5061214"
       gradientTransform="matrix(0.209313,0,0,0.209313,-225.2373,175.99)"
       gradientUnits="userSpaceOnUse"
       id="linearGradient4839"
       xlink:href="#linearGradient1732"
       inkscape:collect="always" />
    <linearGradient
       y2="272.36218"
       x2="442.54803"
       y1="272.36218"
       x1="3.5061214"
       gradientTransform="matrix(0.209313,0,0,0.209313,-225.2373,175.99)"
       gradientUnits="userSpaceOnUse"
       id="linearGradient4837"
       xlink:href="#linearGradient1732"
       inkscape:collect="always" />
    <linearGradient
       y2="272.36218"
       x2="442.54803"
       y1="272.36218"
       x1="3.5061214"
       gradientTransform="matrix(0.209313,0,0,0.209313,-225.2373,175.99)"
       gradientUnits="userSpaceOnUse"
       id="linearGradient4835"
       xlink:href="#linearGradient1732"
       inkscape:collect="always" />
    <linearGradient
       y2="272.36218"
       x2="442.54803"
       y1="272.36218"
       x1="3.5061214"
       gradientTransform="matrix(0.209313,0,0,0.209313,-225.2373,175.99)"
       gradientUnits="userSpaceOnUse"
       id="linearGradient4833"
       xlink:href="#linearGradient1732"
       inkscape:collect="always" />
    <linearGradient
       y2="272.36218"
       x2="442.54803"
       y1="272.36218"
       x1="3.5061214"
       gradientTransform="matrix(0.209313,0,0,0.209313,-225.2373,175.99)"
       gradientUnits="userSpaceOnUse"
       id="linearGradient4831"
       xlink:href="#linearGradient1732"
       inkscape:collect="always" />
    <linearGradient
       y2="272.36218"
       x2="442.54803"
       y1="272.36218"
       x1="3.5061214"
       gradientTransform="matrix(0.209313,0,0,0.209313,-225.2373,175.99)"
       gradientUnits="userSpaceOnUse"
       id="linearGradient4829"
       xlink:href="#linearGradient1732"
       inkscape:collect="always" />
    <linearGradient
       y2="272.36218"
       x2="442.54803"
       y1="272.36218"
       x1="3.5061214"
       gradientTransform="matrix(0.209313,0,0,0.209313,-225.2373,175.99)"
       gradientUnits="userSpaceOnUse"
       id="linearGradient4827"
       xlink:href="#linearGradient1732"
       inkscape:collect="always" />
    <linearGradient
       y2="272.36218"
       x2="442.54803"
       y1="272.36218"
       x1="3.5061214"
       gradientTransform="matrix(0.209313,0,0,0.209313,-225.2373,175.99)"
       gradientUnits="userSpaceOnUse"
       id="linearGradient4825"
       xlink:href="#linearGradient1732"
       inkscape:collect="always" />
    <linearGradient
       y2="272.36218"
       x2="442.54803"
       y1="272.36218"
       x1="3.5061214"
       gradientTransform="matrix(0.209313,0,0,0.209313,-225.2373,175.99)"
       gradientUnits="userSpaceOnUse"
       id="linearGradient4823"
       xlink:href="#linearGradient1732"
       inkscape:collect="always" />
    <linearGradient
       y2="272.36218"
       x2="442.54803"
       y1="272.36218"
       x1="3.5061214"
       gradientTransform="matrix(0.209313,0,0,0.209313,-225.2373,175.99)"
       gradientUnits="userSpaceOnUse"
       id="linearGradient4821"
       xlink:href="#linearGradient1732"
       inkscape:collect="always" />
    <linearGradient
       y2="272.36218"
       x2="442.54803"
       y1="272.36218"
       x1="3.5061214"
       gradientTransform="matrix(0.209313,0,0,0.209313,-225.2373,175.99)"
       gradientUnits="userSpaceOnUse"
       id="linearGradient4819"
       xlink:href="#linearGradient1732"
       inkscape:collect="always" />
    <linearGradient
       y2="272.36218"
       x2="442.54803"
       y1="272.36218"
       x1="3.5061214"
       gradientTransform="matrix(0.209313,0,0,0.209313,-225.2373,175.99)"
       gradientUnits="userSpaceOnUse"
       id="linearGradient4817"
       xlink:href="#linearGradient1732"
       inkscape:collect="always" />
    <linearGradient
       y2="272.36218"
       x2="442.54803"
       y1="272.36218"
       x1="3.5061214"
       gradientTransform="matrix(0.209313,0,0,0.209313,-225.2373,175.99)"
       gradientUnits="userSpaceOnUse"
       id="linearGradient4815"
       xlink:href="#linearGradient1732"
       inkscape:collect="always" />
    <linearGradient
       y2="272.36218"
       x2="442.54803"
       y1="272.36218"
       x1="3.5061214"
       gradientTransform="matrix(0.209313,0,0,0.209313,-225.2373,175.99)"
       gradientUnits="userSpaceOnUse"
       id="linearGradient4813"
       xlink:href="#linearGradient1732"
       inkscape:collect="always" />
    <linearGradient
       y2="272.36218"
       x2="442.54803"
       y1="272.36218"
       x1="3.5061214"
       gradientTransform="matrix(0.209313,0,0,0.209313,-225.2373,175.99)"
       gradientUnits="userSpaceOnUse"
       id="linearGradient4811"
       xlink:href="#linearGradient1732"
       inkscape:collect="always" />
    <linearGradient
       y2="272.36218"
       x2="442.54803"
       y1="272.36218"
       x1="3.5061214"
       gradientTransform="matrix(0.209313,0,0,0.209313,-225.2373,175.99)"
       gradientUnits="userSpaceOnUse"
       id="linearGradient4809"
       xlink:href="#linearGradient1732"
       inkscape:collect="always" />
    <linearGradient
       y2="272.36218"
       x2="442.54803"
       y1="272.36218"
       x1="3.5061214"
       gradientTransform="matrix(0.209313,0,0,0.209313,-225.2373,175.99)"
       gradientUnits="userSpaceOnUse"
       id="linearGradient4807"
       xlink:href="#linearGradient1732"
       inkscape:collect="always" />
    <linearGradient
       y2="272.36218"
       x2="442.54803"
       y1="272.36218"
       x1="3.5061214"
       gradientTransform="matrix(0.209313,0,0,0.209313,-225.2373,175.99)"
       gradientUnits="userSpaceOnUse"
       id="linearGradient4805"
       xlink:href="#linearGradient1732"
       inkscape:collect="always" />
    <linearGradient
       y2="272.36218"
       x2="442.54803"
       y1="272.36218"
       x1="3.5061214"
       gradientTransform="matrix(0.209313,0,0,0.209313,-225.2373,175.99)"
       gradientUnits="userSpaceOnUse"
       id="linearGradient4803"
       xlink:href="#linearGradient1732"
       inkscape:collect="always" />
    <linearGradient
       y2="272.36218"
       x2="442.54803"
       y1="272.36218"
       x1="3.5061214"
       gradientTransform="matrix(0.209313,0,0,0.209313,-225.2373,175.99)"
       gradientUnits="userSpaceOnUse"
       id="linearGradient4801"
       xlink:href="#linearGradient1732"
       inkscape:collect="always" />
    <linearGradient
       y2="272.36218"
       x2="442.54803"
       y1="272.36218"
       x1="3.5061214"
       gradientTransform="matrix(0.209313,0,0,0.209313,-225.2373,175.99)"
       gradientUnits="userSpaceOnUse"
       id="linearGradient4799"
       xlink:href="#linearGradient1732"
       inkscape:collect="always" />
    <linearGradient
       gradientUnits="userSpaceOnUse"
       xlink:href="#linearGradient1732"
       id="linearGradient2433"
       y2="96.5"
       x2="180"
       y1="92.5"
       x1="171" />
    <linearGradient
       gradientTransform="translate(-1.428571e-5,-5.714286e-5)"
       gradientUnits="userSpaceOnUse"
       xlink:href="#linearGradient1732"
       id="linearGradient1561"
       y2="467.62207"
       x2="124.13653"
       y1="496.1308"
       x1="94.280907" />
    <linearGradient
       gradientTransform="translate(-1.428571e-5,-5.714286e-5)"
       gradientUnits="userSpaceOnUse"
       xlink:href="#linearGradient1732"
       id="linearGradient1559"
       y2="185.71556"
       x2="296.92871"
       y1="176.24918"
       x1="270.4964" />
    <linearGradient
       gradientTransform="translate(-1.428571e-5,-5.714286e-5)"
       gradientUnits="userSpaceOnUse"
       xlink:href="#linearGradient1732"
       id="linearGradient1557"
       y2="101.81393"
       x2="193.02094"
       y1="75.233917"
       x1="179.58267" />
    <linearGradient
       gradientTransform="translate(-1.428571e-5,-5.714286e-5)"
       gradientUnits="userSpaceOnUse"
       xlink:href="#linearGradient1732"
       id="linearGradient1555"
       y2="90.41172"
       x2="137.60522"
       y1="75.233917"
       x1="112.23917" />
    <linearGradient
       gradientTransform="translate(-1.428571e-5,-5.714286e-5)"
       gradientUnits="userSpaceOnUse"
       xlink:href="#linearGradient1732"
       id="linearGradient1553"
       y2="137.97067"
       x2="124.361"
       y1="139.21025"
       x1="87.546555" />
    <linearGradient
       gradientTransform="translate(-1.428571e-5,-5.714286e-5)"
       gradientUnits="userSpaceOnUse"
       xlink:href="#linearGradient1732"
       id="linearGradient1551"
       y2="137.97067"
       x2="157.20032"
       y1="115.64002"
       x1="124.58548" />
    <linearGradient
       gradientTransform="translate(-1.428571e-5,-5.714286e-5)"
       gradientUnits="userSpaceOnUse"
       xlink:href="#linearGradient1732"
       id="linearGradient1549"
       y2="213.55009"
       x2="211.82967"
       y1="217.77766"
       x1="177.33789" />
    <linearGradient
       id="linearGradient1732">
      <stop
         id="stop1734"
         offset="0"
         style="stop-color:#ffffff;stop-opacity:1" />
      <stop
         id="stop1736"
         offset="1"
         style="stop-color:#ffffff;stop-opacity:1" />
    </linearGradient>
    <linearGradient
       gradientTransform="translate(75.92347,47.10196)"
       gradientUnits="userSpaceOnUse"
       xlink:href="#linearGradient1732"
       id="linearGradient1397"
       y2="48.302807"
       x2="243.12413"
       y1="51.4207"
       x1="241.1429" />
    <linearGradient
       gradientTransform="translate(-1.428571e-5,-5.714286e-5)"
       gradientUnits="userSpaceOnUse"
       xlink:href="#linearGradient1732"
       id="linearGradient1682"
       y2="546.90479"
       x2="341.26984"
       y1="571.11108"
       x1="337.30157" />
    <linearGradient
       gradientTransform="translate(-1.428571e-5,-5.714286e-5)"
       gradientUnits="userSpaceOnUse"
       xlink:href="#linearGradient1732"
       id="linearGradient1674"
       y2="547.59521"
       x2="319.15079"
       y1="566.74603"
       x1="300" />
    <linearGradient
       gradientTransform="translate(-1.428571e-5,-5.714286e-5)"
       gradientUnits="userSpaceOnUse"
       xlink:href="#linearGradient1732"
       id="linearGradient1666"
       y2="534.60315"
       x2="312.30157"
       y1="534.20636"
       x1="266.26984" />
    <linearGradient
       gradientTransform="translate(-1.428571e-5,-5.714286e-5)"
       gradientUnits="userSpaceOnUse"
       xlink:href="#linearGradient1732"
       id="linearGradient1658"
       y2="513.17462"
       x2="321.82541"
       y1="493.73016"
       x1="292.85715" />
    <linearGradient
       gradientTransform="translate(-1.428571e-5,-5.714286e-5)"
       gradientUnits="userSpaceOnUse"
       xlink:href="#linearGradient1732"
       id="linearGradient1650"
       y2="458.41269"
       x2="186.50793"
       y1="491.74603"
       x1="186.50793" />
    <linearGradient
       gradientTransform="translate(-1.428571e-5,-5.714286e-5)"
       gradientUnits="userSpaceOnUse"
       xlink:href="#linearGradient1732"
       id="linearGradient1642"
       y2="454.04761"
       x2="163.88889"
       y1="488.96826"
       x1="143.65079" />
    <linearGradient
       gradientTransform="translate(-1.428571e-5,-5.714286e-5)"
       gradientUnits="userSpaceOnUse"
       xlink:href="#linearGradient1732"
       id="linearGradient1582"
       y2="242.34128"
       x2="130.35715"
       y1="225.27779"
       x1="107.14286" />
    <linearGradient
       gradientTransform="translate(-1.428571e-5,-5.714286e-5)"
       gradientUnits="userSpaceOnUse"
       xlink:href="#linearGradient1732"
       id="linearGradient1622"
       y2="415.35715"
       x2="166.66667"
       y1="395.31747"
       x1="131.15079" />
    <linearGradient
       gradientTransform="translate(-1.428571e-5,-5.714286e-5)"
       gradientUnits="userSpaceOnUse"
       xlink:href="#linearGradient1732"
       id="linearGradient1614"
       y2="294.72223"
       x2="136.32533"
       y1="312.77777"
       x1="118.45238" />
    <linearGradient
       gradientTransform="translate(-1.428571e-5,-5.714286e-5)"
       gradientUnits="userSpaceOnUse"
       xlink:href="#linearGradient1732"
       id="linearGradient1606"
       y2="280.63492"
       x2="118.05556"
       y1="297.10318"
       x1="88.492065" />
    <linearGradient
       gradientTransform="translate(-1.428571e-5,-5.714286e-5)"
       gradientUnits="userSpaceOnUse"
       xlink:href="#linearGradient1732"
       id="linearGradient1598"
       y2="257.61905"
       x2="115.67461"
       y1="260.59525"
       x1="84.126984" />
    <linearGradient
       gradientTransform="translate(-1.428571e-5,-5.714286e-5)"
       gradientUnits="userSpaceOnUse"
       xlink:href="#linearGradient1732"
       id="linearGradient1590"
       y2="258.41269"
       x2="113.69048"
       y1="264.16666"
       x1="82.14286" />
    <linearGradient
       gradientTransform="translate(-1.428571e-5,-5.714286e-5)"
       gradientUnits="userSpaceOnUse"
       xlink:href="#linearGradient1732"
       id="linearGradient1800"
       y2="166.38455"
       x2="139.39598"
       y1="191.96266"
       x1="107.7496" />
  </defs>
  <g
     inkscape:groupmode="layer"
     id="layer3"
     inkscape:label="Fond écu"
     style="display:inline">
    <path
       id="path2855"
       style="fill:#2b5df2;fill-opacity:1;fill-rule:evenodd;stroke:none;stroke-width:1px;stroke-linecap:butt;stroke-linejoin:miter;stroke-opacity:1"
       d="M 300,658.5 C 300,658.5 598.50001,546.17969 598.50001,260.72817 C 598.50001,-24.723354 598.50001,2.1764765 598.50001,2.1764765 L 1.5,2.1764765 L 1.5,260.72817 C 1.5,546.17969 300,658.5 300,658.5 z "
       sodipodi:nodetypes="cccccc" />
    <g
       transform="matrix(1.5534689,0,0,1.1653341,-216.751,-261.35388)"
       id="layer1-8"
       inkscape:label="Calque 1"
       style="fill:#ffffff" />
    <g
       id="layer3-2"
       style="display:inline">
      <g
         id="g7979">
        <rect
           id="rect7092"
           style="fill:none;stroke:none"
           y="-7.1054274e-15"
           x="0"
           height="660"
           width="600" />
      </g>
    </g>
    <g
       transform="matrix(1.4514204,0,0,1.3780092,-29.371615,-18.510845)"
       id="g2459">
      <path
         style="fill:#ffffff;fill-opacity:1;fill-rule:evenodd;stroke:#000000;stroke-width:2.53402066;stroke-linecap:butt;stroke-linejoin:round;stroke-miterlimit:4;stroke-opacity:1;stroke-dasharray:none"
         d="m 149.05461,113.41223 c -3.15647,2.79951 -6.75981,4.70527 -10.63118,6.07496 -4.62416,6.51645 -16.96228,16.98941 -29.03237,7.05675 -5.10351,-6.62707 -8.59643,-4.79545 -12.955354,-3.43626 -7.220799,4.39499 -10.678816,-0.77183 -12.548677,-3.35201 -3.294998,-4.02825 10.305947,-3.22741 11.697181,-6.65797 l -11.835372,0.31453 c -6.109308,-0.93096 -4.624802,-4.62331 -3.037481,-8.35305 0.521166,-9.980203 32.890423,-29.862625 44.043423,-31.893517 0.77154,-5.436384 4.68446,-6.455486 18.22489,-5.63939 0.71259,-5.052845 10.31608,-8.883582 13.07276,0.426962 l 3.75869,2.147813 c 6.89554,-5.361167 12.24234,-0.09361 11.27605,6.174982 9.66521,5.261297 16.9141,5.656759 25.77386,2.953262 8.49845,-1.09081 10.60775,2.365539 3.22175,11.54454 -5.83175,6.828648 -8.05765,6.831273 -16.10868,6.443464 -0.64145,6.530674 -8.07055,-0.694929 -14.49777,-3.758685 l 17.18255,9.396729 c 17.67877,7.62033 11.82767,10.88866 1.61087,16.64561 -9.73078,6.58811 -30.09227,-11.45777 -29.80102,-15.30322 4.62713,8.59042 9.55268,10.20043 21.7787,16.37455 6.71161,6.35184 5.64042,11.18647 -1.10592,14.2319 l 0.26848,2.41629 c 5.35393,2.77334 5.01943,8.40224 -0.26848,11.81303 3.49734,1.84714 7.57492,4.57475 3.75869,10.73911 l 1.0739,1.34237 c 8.13255,-4.38777 12.02849,-0.95875 14.4978,4.56413 l 1.61088,0 c 4.29562,-3.65997 8.32279,-4.45332 13.96083,-0.53696 l 5.36956,0 c 3.75869,-4.29563 7.87535,-4.29563 12.34996,0 4.18764,-4.4715 8.72251,-7.32264 15.03475,-1.87933 l 4.29565,0 c 5.54891,-5.64398 10.73875,-5.54259 15.57171,0.26848 l 2.14781,0 c 2.92669,-7.56362 13.29615,-3.47806 14.4978,1.0739 l 2.14781,0.53695 c 3.6663,-5.53982 14.58394,-2.49569 12.88693,4.29565 5.43423,-4.246 13.08552,-1.91854 12.34999,5.10107 l 1.07391,1.07391 c 2.5669,-1.54601 10.9679,-0.62528 9.66518,7.78585 1.51755,1.1101 3.24152,1.87619 2.68478,6.44347 l 1.87936,1.34239 c 4.20613,-3.32329 8.41229,-4.9269 12.61844,0.26848 l 4.29563,2.4163 c 5.5301,-0.005 9.97478,1.43671 9.12824,9.93366 l 1.61088,4.02717 c 5.36955,3.22172 6.44346,6.80144 3.22172,10.73912 l -0.26846,3.75868 c 5.57146,3.62999 5.41322,8.49683 2.41629,12.84086 l 1.79512,3.54552 c 13.3144,-3.61247 13.68815,9.44447 7.04556,14.09113 6.27934,9.55011 -2.23596,15.42771 -9.74151,10.81544 -9.53315,5.81921 -11.77904,0.20931 -12.89156,-6.22106 -6.08863,-1.23658 -8.15389,-3.61129 -7.17586,-11.41424 -1.91527,-2.62294 -3.76006,-3.68382 -2.39103,-11.05981 1.70655,-15.73266 2.80803,-27.56931 -13.69063,-25.21628 -0.95569,3.66919 7.46786,5.99599 0.53694,13.42387 l -0.26846,4.02717 c 1.02705,3.38792 3.09818,5.49609 -1.87935,10.20215 l -0.26849,3.75868 c 2.31913,2.76405 4.37394,5.65009 -2.41629,12.61845 l -0.53694,2.95326 c 2.59526,2.86374 2.68478,7.60687 -2.68478,11.00757 l 0,3.49021 c 2.90814,3.56252 3.90671,7.27195 -2.4163,11.54454 l -0.26848,11.81302 c 8.22265,8.40962 11.81901,1.7955 9.12824,26.31082 -0.16172,8.79544 0.56383,17.15663 1.07391,25.2369 -0.0859,4.95994 1.53629,9.67585 -3.22175,15.30322 -1.93548,1.58806 -2.62293,2.71896 -2.14781,7.5174 0.28813,2.41728 1.79671,4.97652 -4.83259,8.32279 -12.77273,3.72452 -32.41621,-1.8324 -18.25649,-15.30322 10.49441,-9.51654 13.03967,-36.82797 0.80543,-54.50098 -9.1923,-0.77341 -11.2597,-6.85436 -8.85977,-14.4978 -6.70054,0.19883 -10.91405,-3.08414 -10.47063,-12.88691 l -2.4163,-2.95326 c -5.91192,8.29216 -17.81828,14.37497 -10.73909,32.75427 3.0654,3.59309 4.84189,7.44392 -2.68478,13.15541 -9.28579,13.66406 -13.61178,26.42634 -15.03476,38.66079 2.13618,8.32905 -3.88525,6.21266 -8.59128,7.51737 -2.2365,5.92153 -14.51058,2.47235 -21.74669,-5.36956 -3.18051,-12.08973 3.28943,-12.77438 7.51737,-16.10865 20.86777,-19.32644 23.16047,-35.18945 19.86736,-46.98358 -8.83668,-4.23935 -5.14288,-8.92544 -4.02717,-11.54457 l -1.87935,-3.22172 c -4.13016,0.38742 -12.4978,-3.7935 -8.3228,-15.57171 l -2.14781,-5.36955 c -4.06613,4.59121 -8.82704,5.93996 -15.03477,0.53696 l -5.36956,0 c -6.47067,5.01021 -12.30386,2.87282 -15.57171,-1.61087 l -4.83259,1.61087 c 3.70057,3.19756 6.45664,7.0136 0.53697,12.34996 0.45512,2.00975 0.93954,4.00487 0,6.71195 0.31436,7.82616 -4.47754,10.08214 -9.12825,9.39673 -3.68506,3.4469 -2.71946,13.04622 -3.22172,21.74669 1.06871,2.56717 1.52079,5.42939 -1.61087,9.3967 -3.61995,16.95195 10.52024,20.44225 5.10108,35.43907 -3.44983,7.61982 1.51296,8.39237 -5.42753,14.43012 -5.58078,5.80586 -18.10022,5.09702 -25.44741,-1.54319 5.77197,-16.26168 13.7305,-30.89633 8.3228,-47.25209 -3.64434,-6.64728 -3.04371,-12.70694 -2.4163,-22.01515 -0.11285,-10.80766 -8.484,-7.43686 -8.59128,-20.94127 -0.10372,-4.6482 -2.28723,-9.71236 -5.96846,-15.07605 l 1.9413,-4.5228 c -2.42521,6.12472 -10.82717,14.7354 -15.57171,5.63802 -16.35812,1.04481 -44.283523,24.34906 -9.3967,51.54771 5.97469,2.57397 6.62907,7.4544 0.53694,8.59128 -0.43972,10.67992 -4.69651,15.25249 -8.59128,20.4043 -3.75869,1.96883 -5.727536,3e-5 -5.906525,-5.9065 -1.166296,-8.66342 -7.247883,-4.23682 -10.20215,-18.25648 -2.200288,-20.04633 -5.496121,-18.61444 -7.517372,-31.14342 -0.320516,-12.29425 -1.671639,-22.83708 6.980431,-33.55969 10.138856,-7.93867 23.635706,-13.05625 26.042346,-26.84779 0.0389,0.24493 3.57226,-4.76434 5.63801,6.17498 -2.39691,-6.75335 4.76734,-8.40937 -2.14781,-10.73909 -4.14515,0.3121 -6.58497,-7.05037 -0.80545,-11.00757 l -0.26846,-4.02717 c -9.73876,-2.02653 -7.12851,-10.70391 -2.41629,-13.15541 l 0,-1.61087 c -9.58318,-3.438 -6.18789,-11.74399 -1.07394,-13.96084 l 0,-2.14781 c -5.62322,-4.26386 -4.52922,-9.4756 -0.26845,-12.34999 l 0,-2.68476 c -4.9201,-3.65037 -2.5738,-11.55241 2.14781,-11.54454 l 0.53696,-3.22174 c -4.99482,-6.40073 -0.82262,-10.66707 3.75869,-12.34999 1.67966,-3.06643 1.14625,-4.19338 3.93176,-10.82579 5.71959,-1.39371 10.65836,-5.12992 14.94633,-10.81848 2.78885,-1.67122 7.31066,-3.51326 10.63704,-6.4596 z"
         id="path7901"
         sodipodi:nodetypes="cccccccccccccccccccccccccccccccccccccccccccccccccccccccccccccccccccccccccccccccccccccccccccccccccccccccccccccccccccccccccccccccccc"
         inkscape:connector-curvature="0" />
      <path
         style="fill:#ffffff;fill-opacity:1;fill-rule:evenodd;stroke:#000000;stroke-width:2.53402066;stroke-linecap:butt;stroke-linejoin:round;stroke-miterlimit:4;stroke-opacity:1;stroke-dasharray:none"
         d="m 124.64056,72.785827 c 0.81896,9.088501 5.71531,10.701827 10.73909,12.081506 l 0,7.517371 4.83259,2.684779 c -6.17248,5.603037 -5.78156,9.691437 -2.68476,13.155387"
         id="path8788"
         sodipodi:nodetypes="ccccc"
         inkscape:connector-curvature="0" />
      <path
         style="fill:#ffffff;fill-opacity:1;fill-rule:evenodd;stroke:#000000;stroke-width:2.53402066;stroke-linecap:butt;stroke-linejoin:round;stroke-miterlimit:4;stroke-opacity:1;stroke-dasharray:none"
         d="m 128.13076,92.921645 c -9.00735,-0.140767 -13.78494,-6.957222 -19.3304,-0.268458"
         id="path9675"
         sodipodi:nodetypes="cc"
         inkscape:connector-curvature="0" />
      <path
         style="fill:#ffffff;fill-opacity:1;fill-rule:evenodd;stroke:#000000;stroke-width:2.53402066;stroke-linecap:butt;stroke-linejoin:round;stroke-miterlimit:4;stroke-opacity:1;stroke-dasharray:none"
         d="m 114.70686,89.968408 c -0.95134,4.359828 3.35565,11.321392 9.12825,2.147813"
         id="path9677"
         sodipodi:nodetypes="cc"
         inkscape:connector-curvature="0" />
      <path
         style="fill:#ffffff;fill-opacity:1;fill-rule:evenodd;stroke:#000000;stroke-width:2.53402066;stroke-linecap:butt;stroke-linejoin:round;stroke-miterlimit:4;stroke-opacity:1;stroke-dasharray:none"
         d="m 91.349301,102.58685 c -0.991036,1.60423 -3.036108,2.15444 -6.174982,1.61088 l 0.805449,-0.53697"
         id="path9679"
         sodipodi:nodetypes="ccc"
         inkscape:connector-curvature="0" />
      <path
         style="fill:#ffffff;fill-opacity:1;fill-rule:evenodd;stroke:#000000;stroke-width:2.53402066;stroke-linecap:butt;stroke-linejoin:round;stroke-miterlimit:4;stroke-opacity:1;stroke-dasharray:none"
         d="m 128.6677,252.93435 c 0.95166,-13.26087 -7.7257,-7.68708 -8.85976,-12.61847"
         id="path9681"
         sodipodi:nodetypes="cc"
         inkscape:connector-curvature="0" />
      <path
         style="fill:#ffffff;fill-opacity:1;fill-rule:evenodd;stroke:#000000;stroke-width:2.53402066;stroke-linecap:butt;stroke-linejoin:round;stroke-miterlimit:4;stroke-opacity:1;stroke-dasharray:none"
         d="m 223.7088,258.30391 c 4.11516,4.33385 9.75796,5.41801 17.45106,4.83259 8.94926,-1.99769 8.50178,10.05476 19.06191,7.24889 4.53325,-0.37949 8.53159,1.10406 12.34996,6.44347"
         id="path10761"
         sodipodi:nodetypes="cccc"
         inkscape:connector-curvature="0" />
      <path
         style="fill:#ffffff;fill-opacity:1;fill-rule:evenodd;stroke:#000000;stroke-width:2.53402066;stroke-linecap:butt;stroke-linejoin:round;stroke-miterlimit:4;stroke-opacity:1;stroke-dasharray:none"
         d="m 113.63296,329.98745 c 10.51935,3.70361 10.62705,14.15113 9.39672,27.11625 -5.0303,10.46243 -13.82738,0.70837 -18.52497,-2.95327 l -0.26848,-4.02716 c 6.3288,-6.31237 8.77817,-13.10969 9.39673,-20.13582 z"
         id="path11648"
         sodipodi:nodetypes="ccccc"
         inkscape:connector-curvature="0" />
      <path
         style="fill:#ffffff;fill-opacity:1;fill-rule:evenodd;stroke:#000000;stroke-width:2.53402066;stroke-linecap:butt;stroke-linejoin:round;stroke-miterlimit:4;stroke-opacity:1;stroke-dasharray:none"
         d="m 145.31331,374.28625 c -1.99622,4.48593 -8.31757,8.18546 -3.22172,13.96084 8.68078,4.26042 17.36155,4.14968 26.04235,0.53696 7.69226,-5.00015 5.77772,-9.39986 2.14781,-13.69235 -11.13249,7.69231 -18.29181,3.36654 -24.96844,-0.80545 z"
         id="path12535"
         sodipodi:nodetypes="ccccc"
         inkscape:connector-curvature="0" />
      <path
         style="fill:#ffffff;fill-opacity:1;fill-rule:evenodd;stroke:#000000;stroke-width:2.53402066;stroke-linecap:butt;stroke-linejoin:round;stroke-miterlimit:4;stroke-opacity:1;stroke-dasharray:none"
         d="m 213.77513,364.35258 c -6.91792,8.73254 -12.97314,24.059 4.29565,22.28364 19.05936,-3.75918 20.14602,-10.68336 20.13582,-17.98801 l -2.95326,0.26848 c -2.32681,6.9625 -14.31882,1.3065 -21.47821,-4.56411 z"
         id="path12537"
         sodipodi:nodetypes="ccccc"
         inkscape:connector-curvature="0" />
      <path
         style="fill:#ffffff;fill-opacity:1;fill-rule:evenodd;stroke:#000000;stroke-width:2.53402066;stroke-linecap:butt;stroke-linejoin:round;stroke-miterlimit:4;stroke-opacity:1;stroke-dasharray:none"
         d="m 289.21735,372.67538 c -9.18808,9.23768 -12.19985,16.4166 0,18.52497 4.47089,-0.40658 32.54564,1.12116 21.47823,-13.4239 -10.15183,1.29208 -17.76324,0.0437 -21.47823,-5.10107 z"
         id="path12539"
         sodipodi:nodetypes="cccc"
         inkscape:connector-curvature="0" />
    </g>
  </g>
  <g
     inkscape:groupmode="layer"
     id="layer4"
     inkscape:label="Meubles"
     sodipodi:insensitive="true" />
  <g
     inkscape:groupmode="layer"
     id="layer2"
     inkscape:label="Reflet final"
     sodipodi:insensitive="true">
    <path
       sodipodi:nodetypes="cccccc"
       d="M 300.00001,658.5 C 300.00001,658.5 598.50001,546.17969 598.50001,260.72817 C 598.50001,-24.723334 598.50001,2.1764865 598.50001,2.1764865 L 1.5,2.1764865 L 1.5,260.72817 C 1.5,546.17969 300.00001,658.5 300.00001,658.5 z "
       style="opacity:1;fill:url(#radialGradient3163);fill-opacity:1;fill-rule:evenodd;stroke:none;stroke-width:1px;stroke-linecap:butt;stroke-linejoin:miter;stroke-opacity:1"
       id="path2875"
       inkscape:export-xdpi="144"
       inkscape:export-ydpi="144" />
  </g>
  <g
     inkscape:groupmode="layer"
     id="layer1"
     inkscape:label="Contour final"
     sodipodi:insensitive="true">
    <path
       sodipodi:nodetypes="cccccc"
       d="M 299.99999,658.50028 C 299.99999,658.50028 1.5,546.17992 1.5,260.72828 C 1.5,-24.723336 1.5,2.1764957 1.5,2.1764957 L 598.49999,2.1764957 L 598.49999,260.72828 C 598.49999,546.17992 299.99999,658.50028 299.99999,658.50028 z "
       style="opacity:1;fill:none;fill-opacity:1;fill-rule:evenodd;stroke:#000000;stroke-width:3.00000048;stroke-linecap:butt;stroke-linejoin:miter;stroke-miterlimit:4;stroke-dasharray:none;stroke-opacity:1"
       id="path1411"
       inkscape:export-xdpi="144"
       inkscape:export-ydpi="144" />
  </g>
</svg>
