<?xml version="1.0" encoding="UTF-8" standalone="no"?>
<svg
   xmlns:dc="http://purl.org/dc/elements/1.1/"
   xmlns:cc="http://creativecommons.org/ns#"
   xmlns:rdf="http://www.w3.org/1999/02/22-rdf-syntax-ns#"
   xmlns:svg="http://www.w3.org/2000/svg"
   xmlns="http://www.w3.org/2000/svg"
   xmlns:xlink="http://www.w3.org/1999/xlink"
   xmlns:sodipodi="http://sodipodi.sourceforge.net/DTD/sodipodi-0.dtd"
   xmlns:inkscape="http://www.inkscape.org/namespaces/inkscape"
   height="660"
   width="600"
   version="1.0"
   id="svg2"
   sodipodi:version="0.32"
   inkscape:version="0.48.0 r9654"
   sodipodi:docname="Blason de la ville de Beaulieu sur Sonnette (Charente).svg"
   inkscape:export-filename="/Users/olivier/Desktop/Blason Rouge/Blason_Vide_3D.png"
   inkscape:export-xdpi="144"
   inkscape:export-ydpi="144"
   inkscape:output_extension="org.inkscape.output.svg.inkscape">
  <metadata
     id="metadata49">
    <rdf:RDF>
      <cc:Work
         rdf:about="">
        <dc:format>image/svg+xml</dc:format>
        <dc:type
           rdf:resource="http://purl.org/dc/dcmitype/StillImage" />
        <dc:title />
        <dc:date>03-AUG-2006</dc:date>
        <dc:creator>
          <cc:Agent>
            <dc:title>Jérôme BLUM (wagner51)</dc:title>
          </cc:Agent>
        </dc:creator>
        <cc:license
           rdf:resource="http://web.resource.org/cc/PublicDomain" />
        <dc:language>fr</dc:language>
        <dc:subject>
          <rdf:Bag>
            <rdf:li>gabarit modèle blason projet wikipédia</rdf:li>
          </rdf:Bag>
        </dc:subject>
        <dc:rights>
          <cc:Agent>
            <dc:title />
          </cc:Agent>
        </dc:rights>
        <dc:publisher>
          <cc:Agent>
            <dc:title />
          </cc:Agent>
        </dc:publisher>
        <dc:identifier />
        <dc:source />
        <dc:relation />
        <dc:coverage />
        <dc:description />
        <dc:contributor>
          <cc:Agent>
            <dc:title />
          </cc:Agent>
        </dc:contributor>
      </cc:Work>
      <cc:License
         rdf:about="http://web.resource.org/cc/PublicDomain">
        <cc:permits
           rdf:resource="http://web.resource.org/cc/Reproduction" />
        <cc:permits
           rdf:resource="http://web.resource.org/cc/Distribution" />
        <cc:permits
           rdf:resource="http://web.resource.org/cc/DerivativeWorks" />
      </cc:License>
    </rdf:RDF>
  </metadata>
  <sodipodi:namedview
     inkscape:window-height="712"
     inkscape:window-width="1024"
     inkscape:pageshadow="2"
     inkscape:pageopacity="0.0"
     guidetolerance="10.0"
     gridtolerance="10.0"
     objecttolerance="10.0"
     borderopacity="1.0"
     bordercolor="#666666"
     pagecolor="#ffffff"
     id="base"
     showgrid="false"
     height="660px"
     inkscape:zoom="0.73281976"
     inkscape:cx="267.5454"
     inkscape:cy="347.42323"
     inkscape:window-x="-4"
     inkscape:window-y="-4"
     inkscape:current-layer="layer4"
     inkscape:window-maximized="1" />
  <desc
     id="desc4">Flag of Canton of Valais (Wallis)</desc>
  <defs
     id="defs6">
    <inkscape:perspective
       sodipodi:type="inkscape:persp3d"
       inkscape:vp_x="-50 : 600 : 1"
       inkscape:vp_y="0 : 1000 : 0"
       inkscape:vp_z="700 : 600 : 1"
       inkscape:persp3d-origin="300 : 400 : 1"
       id="perspective2598" />
    <inkscape:perspective
       sodipodi:type="inkscape:persp3d"
       inkscape:vp_x="-50 : 600 : 1"
       inkscape:vp_y="0 : 1000 : 0"
       inkscape:vp_z="700 : 600 : 1"
       inkscape:persp3d-origin="300 : 400 : 1"
       id="perspective3887" />
    <inkscape:perspective
       sodipodi:type="inkscape:persp3d"
       inkscape:vp_x="-50 : 600 : 1"
       inkscape:vp_y="0 : 1000 : 0"
       inkscape:vp_z="700 : 600 : 1"
       inkscape:persp3d-origin="300 : 400 : 1"
       id="perspective10025" />
    <inkscape:perspective
       sodipodi:type="inkscape:persp3d"
       inkscape:vp_x="-50 : 600 : 1"
       inkscape:vp_y="0 : 1000 : 0"
       inkscape:vp_z="700 : 600 : 1"
       inkscape:persp3d-origin="300 : 400 : 1"
       id="perspective14654" />
    <inkscape:perspective
       sodipodi:type="inkscape:persp3d"
       inkscape:vp_x="-50 : 600 : 1"
       inkscape:vp_y="0 : 1000 : 0"
       inkscape:vp_z="700 : 600 : 1"
       inkscape:persp3d-origin="300 : 400 : 1"
       id="perspective10951" />
    <linearGradient
       id="linearGradient2893">
      <stop
         style="stop-color:white;stop-opacity:0.3137255;"
         offset="0"
         id="stop2895" />
      <stop
         id="stop2897"
         offset="0.19"
         style="stop-color:white;stop-opacity:0.25098041;" />
      <stop
         style="stop-color:#6b6b6b;stop-opacity:0.1254902;"
         offset="0.60000002"
         id="stop2901" />
      <stop
         style="stop-color:black;stop-opacity:0.1254902;"
         offset="1"
         id="stop2899" />
    </linearGradient>
    <linearGradient
       id="linearGradient2885">
      <stop
         id="stop2887"
         offset="0"
         style="stop-color:white;stop-opacity:1;" />
      <stop
         style="stop-color:white;stop-opacity:1;"
         offset="0.22857143"
         id="stop2891" />
      <stop
         id="stop2889"
         offset="1"
         style="stop-color:black;stop-opacity:1;" />
    </linearGradient>
    <linearGradient
       id="linearGradient2955">
      <stop
         id="stop2867"
         offset="0"
         style="stop-color:#fd0000;stop-opacity:1;" />
      <stop
         style="stop-color:#e77275;stop-opacity:0.65882355;"
         offset="0.5"
         id="stop2873" />
      <stop
         style="stop-color:black;stop-opacity:0.32291666;"
         offset="1"
         id="stop2959" />
    </linearGradient>
    <radialGradient
       inkscape:collect="always"
       xlink:href="#linearGradient2955"
       id="radialGradient2961"
       cx="225.52438"
       cy="218.90099"
       fx="225.52438"
       fy="218.90099"
       r="300"
       gradientTransform="matrix(-4.167939e-4,2.182867,-1.884232,-3.599562e-4,615.5972,-289.1214)"
       gradientUnits="userSpaceOnUse" />
    <polygon
       id="star"
       transform="scale(53,53)"
       points="0,-1 0.58778525,0.80901699 -0.95105652,-0.30901699 0.95105652,-0.30901699 -0.58778525,0.80901699 0,-1 " />
    <clipPath
       id="clip">
      <path
         d="M 0,-200 L 0,600 L 300,600 L 300,-200 L 0,-200 z "
         id="path10" />
    </clipPath>
    <radialGradient
       inkscape:collect="always"
       xlink:href="#linearGradient2955"
       id="radialGradient1911"
       gradientUnits="userSpaceOnUse"
       gradientTransform="matrix(-4.167939e-4,2.182867,-1.884232,-3.599562e-4,615.5972,-289.1214)"
       cx="225.52438"
       cy="218.90099"
       fx="225.52438"
       fy="218.90099"
       r="300" />
    <radialGradient
       inkscape:collect="always"
       xlink:href="#linearGradient2955"
       id="radialGradient2865"
       gradientUnits="userSpaceOnUse"
       gradientTransform="matrix(0,1.748721,-1.593162,-1.049767e-7,551.7876,-191.2898)"
       cx="225.52438"
       cy="218.90099"
       fx="225.52438"
       fy="218.90099"
       r="300" />
    <radialGradient
       inkscape:collect="always"
       xlink:href="#linearGradient2955"
       id="radialGradient2871"
       gradientUnits="userSpaceOnUse"
       gradientTransform="matrix(0,1.386237,-1.323286,-5.741131e-8,-158.0823,-109.5408)"
       cx="225.52438"
       cy="218.90099"
       fx="225.52438"
       fy="218.90099"
       r="300" />
    <radialGradient
       gradientTransform="matrix(0,1.386237,-1.323286,-5.741131e-8,-158.0823,-109.5408)"
       gradientUnits="userSpaceOnUse"
       xlink:href="#linearGradient2955"
       id="radialGradient6397"
       fy="218.90099"
       fx="225.52438"
       r="300"
       cy="218.90099"
       cx="225.52438" />
    <radialGradient
       gradientTransform="matrix(0,1.748721,-1.593162,-1.049767e-7,551.7876,-191.2898)"
       gradientUnits="userSpaceOnUse"
       xlink:href="#linearGradient2955"
       id="radialGradient6395"
       fy="218.90099"
       fx="225.52438"
       r="300"
       cy="218.90099"
       cx="225.52438" />
    <radialGradient
       gradientTransform="matrix(-4.167939e-4,2.182867,-1.884232,-3.599562e-4,615.5972,-289.1214)"
       gradientUnits="userSpaceOnUse"
       xlink:href="#linearGradient2955"
       id="radialGradient6393"
       fy="218.90099"
       fx="225.52438"
       r="300"
       cy="218.90099"
       cx="225.52438" />
    <clipPath
       id="clipPath6389">
      <path
         id="path6391"
         d="M 0,-200 L 0,600 L 300,600 L 300,-200 L 0,-200 z " />
    </clipPath>
    <polygon
       id="polygon6387"
       transform="scale(53,53)"
       points="0,-1 0.58778525,0.80901699 -0.95105652,-0.30901699 0.95105652,-0.30901699 -0.58778525,0.80901699 0,-1 " />
    <radialGradient
       gradientTransform="matrix(-4.167939e-4,2.182867,-1.884232,-3.599562e-4,615.5972,-289.1214)"
       gradientUnits="userSpaceOnUse"
       xlink:href="#linearGradient2955"
       id="radialGradient6385"
       fy="218.90099"
       fx="225.52438"
       r="300"
       cy="218.90099"
       cx="225.52438" />
    <linearGradient
       id="linearGradient6377">
      <stop
         id="stop6379"
         offset="0"
         style="stop-color:#fd0000;stop-opacity:1" />
      <stop
         id="stop6381"
         offset="0.5"
         style="stop-color:#e77275;stop-opacity:0.65882355" />
      <stop
         id="stop6383"
         offset="1"
         style="stop-color:black;stop-opacity:0.32291666" />
    </linearGradient>
    <linearGradient
       id="linearGradient6369">
      <stop
         id="stop6371"
         offset="0"
         style="stop-color:white;stop-opacity:1" />
      <stop
         id="stop6373"
         offset="0.22857143"
         style="stop-color:white;stop-opacity:1" />
      <stop
         id="stop6375"
         offset="1"
         style="stop-color:black;stop-opacity:1" />
    </linearGradient>
    <linearGradient
       id="linearGradient6359">
      <stop
         id="stop6361"
         offset="0"
         style="stop-color:white;stop-opacity:0.3137255" />
      <stop
         id="stop6363"
         offset="0.19"
         style="stop-color:white;stop-opacity:0.25098041" />
      <stop
         id="stop6365"
         offset="0.60000002"
         style="stop-color:#6b6b6b;stop-opacity:0.1254902" />
      <stop
         id="stop6367"
         offset="1"
         style="stop-color:black;stop-opacity:0.1254902" />
    </linearGradient>
    <linearGradient
       id="linearGradient6465">
      <stop
         style="stop-color:white;stop-opacity:0.3137255"
         offset="0"
         id="stop6467" />
      <stop
         style="stop-color:white;stop-opacity:0.25098041"
         offset="0.19"
         id="stop6469" />
      <stop
         style="stop-color:#6b6b6b;stop-opacity:0.1254902"
         offset="0.60000002"
         id="stop6471" />
      <stop
         style="stop-color:black;stop-opacity:0.1254902"
         offset="1"
         id="stop6473" />
    </linearGradient>
    <linearGradient
       id="linearGradient6457">
      <stop
         style="stop-color:white;stop-opacity:1"
         offset="0"
         id="stop6459" />
      <stop
         style="stop-color:white;stop-opacity:1"
         offset="0.22857143"
         id="stop6461" />
      <stop
         style="stop-color:black;stop-opacity:1"
         offset="1"
         id="stop6463" />
    </linearGradient>
    <linearGradient
       id="linearGradient6449">
      <stop
         style="stop-color:#fd0000;stop-opacity:1"
         offset="0"
         id="stop6451" />
      <stop
         style="stop-color:#e77275;stop-opacity:0.65882355"
         offset="0.5"
         id="stop6453" />
      <stop
         style="stop-color:black;stop-opacity:0.32291666"
         offset="1"
         id="stop6455" />
    </linearGradient>
    <radialGradient
       cx="225.52438"
       cy="218.90099"
       r="300"
       fx="225.52438"
       fy="218.90099"
       id="radialGradient6447"
       xlink:href="#linearGradient2955"
       gradientUnits="userSpaceOnUse"
       gradientTransform="matrix(-4.167939e-4,2.182867,-1.884232,-3.599562e-4,615.5972,-289.1214)" />
    <polygon
       points="0,-1 0.58778525,0.80901699 -0.95105652,-0.30901699 0.95105652,-0.30901699 -0.58778525,0.80901699 0,-1 "
       transform="scale(53,53)"
       id="polygon6445" />
    <clipPath
       id="clipPath6441">
      <path
         d="M 0,-200 L 0,600 L 300,600 L 300,-200 L 0,-200 z "
         id="path6443" />
    </clipPath>
    <radialGradient
       cx="225.52438"
       cy="218.90099"
       r="300"
       fx="225.52438"
       fy="218.90099"
       id="radialGradient6439"
       xlink:href="#linearGradient2955"
       gradientUnits="userSpaceOnUse"
       gradientTransform="matrix(-4.167939e-4,2.182867,-1.884232,-3.599562e-4,615.5972,-289.1214)" />
    <radialGradient
       cx="225.52438"
       cy="218.90099"
       r="300"
       fx="225.52438"
       fy="218.90099"
       id="radialGradient6437"
       xlink:href="#linearGradient2955"
       gradientUnits="userSpaceOnUse"
       gradientTransform="matrix(0,1.748721,-1.593162,-1.049767e-7,551.7876,-191.2898)" />
    <radialGradient
       cx="225.52438"
       cy="218.90099"
       r="300"
       fx="225.52438"
       fy="218.90099"
       id="radialGradient6435"
       xlink:href="#linearGradient2955"
       gradientUnits="userSpaceOnUse"
       gradientTransform="matrix(0,1.386237,-1.323286,-5.741131e-8,-158.0823,-109.5408)" />
    <inkscape:perspective
       id="perspective11825"
       inkscape:persp3d-origin="300 : 400 : 1"
       inkscape:vp_z="700 : 600 : 1"
       inkscape:vp_y="0 : 1000 : 0"
       inkscape:vp_x="-50 : 600 : 1"
       sodipodi:type="inkscape:persp3d" />
    <inkscape:perspective
       id="perspective2756"
       inkscape:persp3d-origin="300 : 400 : 1"
       inkscape:vp_z="700 : 600 : 1"
       inkscape:vp_y="0 : 1000 : 0"
       inkscape:vp_x="-50 : 600 : 1"
       sodipodi:type="inkscape:persp3d" />
    <inkscape:perspective
       id="perspective2445"
       inkscape:persp3d-origin="372.04724 : 350.78739 : 1"
       inkscape:vp_z="744.09448 : 526.18109 : 1"
       inkscape:vp_y="0 : 1000 : 0"
       inkscape:vp_x="0 : 526.18109 : 1"
       sodipodi:type="inkscape:persp3d" />
    <radialGradient
       r="300"
       fy="200.44757"
       fx="285.18573"
       cy="200.44757"
       cx="285.18573"
       gradientTransform="matrix(1.551284,0,0,1.350335,-152.89433,151.09881)"
       gradientUnits="userSpaceOnUse"
       id="radialGradient11919"
       xlink:href="#linearGradient2893-4"
       inkscape:collect="always" />
    <linearGradient
       id="linearGradient2893-4">
      <stop
         id="stop2895-0"
         offset="0"
         style="stop-color:white;stop-opacity:0.3137255;" />
      <stop
         style="stop-color:white;stop-opacity:0.25098041;"
         offset="0.19"
         id="stop2897-9" />
      <stop
         id="stop2901-4"
         offset="0.60000002"
         style="stop-color:#6b6b6b;stop-opacity:0.1254902;" />
      <stop
         id="stop2899-8"
         offset="1"
         style="stop-color:black;stop-opacity:0.1254902;" />
    </linearGradient>
    <inkscape:perspective
       id="perspective2445-5"
       inkscape:persp3d-origin="372.04724 : 350.78739 : 1"
       inkscape:vp_z="744.09448 : 526.18109 : 1"
       inkscape:vp_y="0 : 1000 : 0"
       inkscape:vp_x="0 : 526.18109 : 1"
       sodipodi:type="inkscape:persp3d" />
    <radialGradient
       r="300"
       fy="200.44757"
       fx="285.18573"
       cy="200.44757"
       cx="285.18573"
       gradientTransform="matrix(1.551284,0,0,1.350335,-152.89433,151.09881)"
       gradientUnits="userSpaceOnUse"
       id="radialGradient11919-1"
       xlink:href="#linearGradient2893-45"
       inkscape:collect="always" />
    <linearGradient
       id="linearGradient2893-45">
      <stop
         id="stop2895-5"
         offset="0"
         style="stop-color:white;stop-opacity:0.3137255;" />
      <stop
         style="stop-color:white;stop-opacity:0.25098041;"
         offset="0.19"
         id="stop2897-1" />
      <stop
         id="stop2901-7"
         offset="0.60000002"
         style="stop-color:#6b6b6b;stop-opacity:0.1254902;" />
      <stop
         id="stop2899-1"
         offset="1"
         style="stop-color:black;stop-opacity:0.1254902;" />
    </linearGradient>
    <inkscape:perspective
       id="perspective8511"
       inkscape:persp3d-origin="372.04724 : 350.78739 : 1"
       inkscape:vp_z="744.09448 : 526.18109 : 1"
       inkscape:vp_y="0 : 1000 : 0"
       inkscape:vp_x="0 : 526.18109 : 1"
       sodipodi:type="inkscape:persp3d" />
    <inkscape:perspective
       id="perspective2445-57"
       inkscape:persp3d-origin="372.04724 : 350.78739 : 1"
       inkscape:vp_z="744.09448 : 526.18109 : 1"
       inkscape:vp_y="0 : 1000 : 0"
       inkscape:vp_x="0 : 526.18109 : 1"
       sodipodi:type="inkscape:persp3d" />
    <radialGradient
       r="300"
       fy="200.44757"
       fx="285.18573"
       cy="200.44757"
       cx="285.18573"
       gradientTransform="matrix(1.551284,0,0,1.350335,-152.89433,151.09881)"
       gradientUnits="userSpaceOnUse"
       id="radialGradient11919-8"
       xlink:href="#linearGradient2893-2"
       inkscape:collect="always" />
    <linearGradient
       id="linearGradient2893-2">
      <stop
         id="stop2895-3"
         offset="0"
         style="stop-color:white;stop-opacity:0.3137255;" />
      <stop
         style="stop-color:white;stop-opacity:0.25098041;"
         offset="0.19"
         id="stop2897-2" />
      <stop
         id="stop2901-2"
         offset="0.60000002"
         style="stop-color:#6b6b6b;stop-opacity:0.1254902;" />
      <stop
         id="stop2899-16"
         offset="1"
         style="stop-color:black;stop-opacity:0.1254902;" />
    </linearGradient>
    <inkscape:perspective
       id="perspective2445-3"
       inkscape:persp3d-origin="372.04724 : 350.78739 : 1"
       inkscape:vp_z="744.09448 : 526.18109 : 1"
       inkscape:vp_y="0 : 1000 : 0"
       inkscape:vp_x="0 : 526.18109 : 1"
       sodipodi:type="inkscape:persp3d" />
    <radialGradient
       r="300"
       fy="200.44757"
       fx="285.18573"
       cy="200.44757"
       cx="285.18573"
       gradientTransform="matrix(1.551284,0,0,1.350335,-152.89433,151.09881)"
       gradientUnits="userSpaceOnUse"
       id="radialGradient11919-4"
       xlink:href="#linearGradient2893-9"
       inkscape:collect="always" />
    <linearGradient
       id="linearGradient2893-9">
      <stop
         id="stop2895-2"
         offset="0"
         style="stop-color:white;stop-opacity:0.3137255;" />
      <stop
         style="stop-color:white;stop-opacity:0.25098041;"
         offset="0.19"
         id="stop2897-7" />
      <stop
         id="stop2901-9"
         offset="0.60000002"
         style="stop-color:#6b6b6b;stop-opacity:0.1254902;" />
      <stop
         id="stop2899-5"
         offset="1"
         style="stop-color:black;stop-opacity:0.1254902;" />
    </linearGradient>
  </defs>
  <g
     inkscape:groupmode="layer"
     id="layer3"
     inkscape:label="Fond écu"
     style="display:inline">
    <g
       id="layer1-4"
       inkscape:label="Calque 1"
       transform="translate(-74.999947,-202.36234)"
       style="fill:#2b5df2">
      <g
         style="fill:#2b5df2;stroke:none;display:inline"
         id="g4195"
         inkscape:label="Calque 1"
         transform="translate(2.5e-6,2.6171874e-6)">
        <path
           sodipodi:nodetypes="cssccccssc"
           d="m 374.99998,860.86234 c 0,-38.5041 31.20319,-69.75372 69.65,-69.75372 38.44681,0 120.75317,0 159.19998,0 38.4468,0 69.65009,-31.24962 69.65009,-69.75362 l 0,-517.49298 -597.000095,2e-5 -1e-5,517.49296 c 0,38.504 31.203215,69.75362 69.650015,69.75362 38.44683,0 120.75321,0 159.20002,0 38.4468,0 69.65,31.24962 69.65,69.75372 z"
           style="fill:#2b5df2;fill-opacity:1;fill-rule:nonzero;stroke:none;display:inline"
           id="path4197"
           inkscape:connector-curvature="0" />
      </g>
    </g>
  </g>
  <g
     inkscape:groupmode="layer"
     id="layer4"
     inkscape:label="Meubles"
     style="display:inline">
    <g
       id="g6475"
       inkscape:label="Calque 1"
       transform="translate(-62.857143,-493.79075)">
      <g
         transform="translate(62.857143,493.79075)"
         style="display:inline"
         id="g6477">
        <g
           id="g5810" />
        <g
           id="g6515">
          <rect
             id="rect4923"
             style="fill:none;stroke:none;display:inline"
             y="3.375078e-014"
             x="0"
             height="660"
             width="600" />
        </g>
      </g>
      <rect
         y="686.64789"
         x="314.28571"
         height="45.714287"
         width="0"
         id="rect4632"
         style="fill:#ff0000;fill-opacity:1;stroke-width:5.39400005;stroke-miterlimit:4;stroke-dasharray:none" />
    </g>
    <g
       id="g3536"
       transform="matrix(0.56579628,0,0,0.56583414,367.2098,243.93048)"
       style="fill:#fcef3c;stroke:#000000;stroke-width:1.11078775;stroke-opacity:1;display:inline">
      <g
         id="g3538"
         style="fill:#fcef3c;stroke:#000000;stroke-width:1.11078775;stroke-opacity:1;display:inline"
         transform="matrix(1.053226,0,0,1.053226,202.7331,-149.8915)">
        <path
           id="path3540"
           style="fill:#fcef3c;fill-opacity:1;fill-rule:evenodd;stroke:#000000;stroke-width:3.1639595;stroke-linecap:butt;stroke-linejoin:miter;stroke-miterlimit:4;stroke-opacity:1;stroke-dasharray:none"
           d="m -143.97657,278.60684 c -3.56753,9.65918 -9.16809,15.76054 -15.52947,20.53048 10.37571,2.51676 15.38421,6.37532 20.26727,10.26524 5.83374,-6.87736 11.93301,-13.42281 20.53048,-16.84552 l 0.26321,-13.68698 -25.53149,-0.26322 z"
           inkscape:connector-curvature="0" />
        <path
           id="path3542"
           style="fill:#fcef3c;fill-opacity:1;fill-rule:evenodd;stroke:#000000;stroke-width:3.1639595;stroke-linecap:butt;stroke-linejoin:miter;stroke-miterlimit:4;stroke-opacity:1;stroke-dasharray:none"
           d="m -178.4833,155.6809 c 3.92017,-3.88227 7.84035,-6.24459 11.76052,-8.30155 6.85877,-2.58963 12.51343,-1.5669 17.98669,0 17.87725,13.49613 19.23947,30.08882 7.60976,49.1175 -15.36308,17.44227 -15.55685,25.40373 -16.6031,33.89799 37.33654,0.007 75.491086,-0.25905 118.297072,-2.07539 -5.843376,6.64815 -6.690979,13.02701 -6.226162,21.44567 -21.49951,11.73361 -37.238599,29.1146 -36.665175,51.88468 -11.64683,1.67104 -13.968035,2.12463 -22.137465,8.99335 -9.30673,-16.5617 -26.21848,-29.3209 -53.96007,-36.66518 -16.1468,-7.05657 -30.58864,-18.77577 -29.74721,-42.19954 0.51413,-14.31244 8.49196,-26.88483 18.67848,-37.35697 l -8.99334,-6.91796 0,-31.8226 z"
           inkscape:connector-curvature="0" />
        <path
           id="path3544"
           style="fill:#fcef3c;fill-opacity:1;fill-rule:nonzero;stroke:#000000;stroke-width:3.1639595;stroke-linecap:butt;stroke-linejoin:miter;stroke-miterlimit:4;stroke-opacity:1;stroke-dasharray:none;stroke-dashoffset:0;marker:none;visibility:visible;display:inline;overflow:visible"
           transform="translate(2,0)"
           d="m -155.65405,164.67424 c 0.003,3.82288 -3.09507,6.9236 -6.91795,6.9236 -3.82289,0 -6.92108,-3.10072 -6.91796,-6.9236 -0.003,-3.82288 3.09507,-6.9236 6.91795,-6.9236 3.82289,0 6.92108,3.10072 6.91796,6.9236 z"
           inkscape:connector-curvature="0" />
        <path
           id="path3546"
           style="fill:#fcef3c;fill-opacity:1;fill-rule:evenodd;stroke:#000000;stroke-width:3.1639595;stroke-linecap:butt;stroke-linejoin:miter;stroke-miterlimit:4;stroke-opacity:1;stroke-dasharray:none"
           d="m -158.23512,232.12258 c 9.67299,-10.94318 20.64085,-23.61649 50.31498,-25.2488 19.600673,-0.94965 39.726222,-1.57512 47.73391,-9.68514 1.497695,10.70403 -2.030697,18.1097 -11.760528,21.44567 -13.156318,4.25938 -26.622135,5.42377 -40.124152,6.22616 12.182881,-1.18281 22.671957,-0.7928 39.432356,-6.22616 9.748163,-0.27727 6.687691,8.46367 2.767183,12.45232 -9.059724,6.7915 -21.178613,5.62916 -31.822609,8.30155 l 23.52106,-4.05294 c 7.659778,2.11548 4.784483,5.56949 1.349824,8.86175 -6.654109,4.84283 -17.704987,5.75625 -26.946264,8.33531 l 19.238672,-4.64343 c 6.894406,2.70465 2.421298,6.62291 -2.669344,10.01242 -14.834738,8.52285 -31.990718,7.24788 -47.700138,7.77513"
           inkscape:connector-curvature="0" />
      </g>
    </g>
    <g
       id="layer1-1"
       inkscape:label="Calque 1"
       transform="translate(-74.999944,-202.36234)"
       style="fill:#fcef3c">
      <path
         sodipodi:nodetypes="cccccccccc"
         d="m 76.499946,556.20999 -10e-7,117.44931 596.999995,0 2e-5,-117.44932 z m 597.000034,-117.44933 10e-6,-117.44932 -597.000041,2e-5 -10e-7,117.44931 z"
         style="fill:#fcef3c;stroke:#000000;stroke-width:3.00000191;stroke-linecap:round;stroke-linejoin:round;stroke-miterlimit:4;stroke-opacity:1;stroke-dasharray:none;stroke-dashoffset:0;display:inline"
         id="path1572-8"
         inkscape:connector-curvature="0" />
    </g>
    <g
       style="fill:#fcef3c;stroke:#000000;stroke-width:1.11078775;stroke-opacity:1;display:inline"
       transform="matrix(0.56579628,0,0,0.56583414,139.0297,243.93048)"
       id="g3517">
      <g
         transform="matrix(1.053226,0,0,1.053226,202.7331,-149.8915)"
         style="fill:#fcef3c;stroke:#000000;stroke-width:1.11078775;stroke-opacity:1;display:inline"
         id="g3519">
        <path
           inkscape:connector-curvature="0"
           d="m -143.97657,278.60684 c -3.56753,9.65918 -9.16809,15.76054 -15.52947,20.53048 10.37571,2.51676 15.38421,6.37532 20.26727,10.26524 5.83374,-6.87736 11.93301,-13.42281 20.53048,-16.84552 l 0.26321,-13.68698 -25.53149,-0.26322 z"
           style="fill:#fcef3c;fill-opacity:1;fill-rule:evenodd;stroke:#000000;stroke-width:3.1639595;stroke-linecap:butt;stroke-linejoin:miter;stroke-miterlimit:4;stroke-opacity:1;stroke-dasharray:none"
           id="path3521" />
        <path
           inkscape:connector-curvature="0"
           d="m -178.4833,155.6809 c 3.92017,-3.88227 7.84035,-6.24459 11.76052,-8.30155 6.85877,-2.58963 12.51343,-1.5669 17.98669,0 17.87725,13.49613 19.23947,30.08882 7.60976,49.1175 -15.36308,17.44227 -15.55685,25.40373 -16.6031,33.89799 37.33654,0.007 75.491086,-0.25905 118.297072,-2.07539 -5.843376,6.64815 -6.690979,13.02701 -6.226162,21.44567 -21.49951,11.73361 -37.238599,29.1146 -36.665175,51.88468 -11.64683,1.67104 -13.968035,2.12463 -22.137465,8.99335 -9.30673,-16.5617 -26.21848,-29.3209 -53.96007,-36.66518 -16.1468,-7.05657 -30.58864,-18.77577 -29.74721,-42.19954 0.51413,-14.31244 8.49196,-26.88483 18.67848,-37.35697 l -8.99334,-6.91796 0,-31.8226 z"
           style="fill:#fcef3c;fill-opacity:1;fill-rule:evenodd;stroke:#000000;stroke-width:3.1639595;stroke-linecap:butt;stroke-linejoin:miter;stroke-miterlimit:4;stroke-opacity:1;stroke-dasharray:none"
           id="path3523" />
        <path
           inkscape:connector-curvature="0"
           d="m -155.65405,164.67424 c 0.003,3.82288 -3.09507,6.9236 -6.91795,6.9236 -3.82289,0 -6.92108,-3.10072 -6.91796,-6.9236 -0.003,-3.82288 3.09507,-6.9236 6.91795,-6.9236 3.82289,0 6.92108,3.10072 6.91796,6.9236 z"
           transform="translate(2,0)"
           style="fill:#fcef3c;fill-opacity:1;fill-rule:nonzero;stroke:#000000;stroke-width:3.1639595;stroke-linecap:butt;stroke-linejoin:miter;stroke-miterlimit:4;stroke-opacity:1;stroke-dasharray:none;stroke-dashoffset:0;marker:none;visibility:visible;display:inline;overflow:visible"
           id="path3525" />
        <path
           inkscape:connector-curvature="0"
           d="m -158.23512,232.12258 c 9.67299,-10.94318 20.64085,-23.61649 50.31498,-25.2488 19.600673,-0.94965 39.726222,-1.57512 47.73391,-9.68514 1.497695,10.70403 -2.030697,18.1097 -11.760528,21.44567 -13.156318,4.25938 -26.622135,5.42377 -40.124152,6.22616 12.182881,-1.18281 22.671957,-0.7928 39.432356,-6.22616 9.748163,-0.27727 6.687691,8.46367 2.767183,12.45232 -9.059724,6.7915 -21.178613,5.62916 -31.822609,8.30155 l 23.52106,-4.05294 c 7.659778,2.11548 4.784483,5.56949 1.349824,8.86175 -6.654109,4.84283 -17.704987,5.75625 -26.946264,8.33531 l 19.238672,-4.64343 c 6.894406,2.70465 2.421298,6.62291 -2.669344,10.01242 -14.834738,8.52285 -31.990718,7.24788 -47.700138,7.77513"
           style="fill:#fcef3c;fill-opacity:1;fill-rule:evenodd;stroke:#000000;stroke-width:3.1639595;stroke-linecap:butt;stroke-linejoin:miter;stroke-miterlimit:4;stroke-opacity:1;stroke-dasharray:none"
           id="path3527" />
      </g>
    </g>
    <g
       id="g3529"
       transform="matrix(0.56579628,0,0,0.56583414,253.1197,478.83673)"
       style="fill:#fcef3c;stroke:#000000;stroke-width:1.11078775;stroke-opacity:1;display:inline">
      <g
         id="g3531"
         style="fill:#fcef3c;stroke:#000000;stroke-width:1.11078775;stroke-opacity:1;display:inline"
         transform="matrix(1.053226,0,0,1.053226,202.7331,-149.8915)">
        <path
           id="path3533"
           style="fill:#fcef3c;fill-opacity:1;fill-rule:evenodd;stroke:#000000;stroke-width:3.1639595;stroke-linecap:butt;stroke-linejoin:miter;stroke-miterlimit:4;stroke-opacity:1;stroke-dasharray:none"
           d="m -143.97657,278.60684 c -3.56753,9.65918 -9.16809,15.76054 -15.52947,20.53048 10.37571,2.51676 15.38421,6.37532 20.26727,10.26524 5.83374,-6.87736 11.93301,-13.42281 20.53048,-16.84552 l 0.26321,-13.68698 -25.53149,-0.26322 z"
           inkscape:connector-curvature="0" />
        <path
           id="path3535"
           style="fill:#fcef3c;fill-opacity:1;fill-rule:evenodd;stroke:#000000;stroke-width:3.1639595;stroke-linecap:butt;stroke-linejoin:miter;stroke-miterlimit:4;stroke-opacity:1;stroke-dasharray:none"
           d="m -178.4833,155.6809 c 3.92017,-3.88227 7.84035,-6.24459 11.76052,-8.30155 6.85877,-2.58963 12.51343,-1.5669 17.98669,0 17.87725,13.49613 19.23947,30.08882 7.60976,49.1175 -15.36308,17.44227 -15.55685,25.40373 -16.6031,33.89799 37.33654,0.007 75.491086,-0.25905 118.297072,-2.07539 -5.843376,6.64815 -6.690979,13.02701 -6.226162,21.44567 -21.49951,11.73361 -37.238599,29.1146 -36.665175,51.88468 -11.64683,1.67104 -13.968035,2.12463 -22.137465,8.99335 -9.30673,-16.5617 -26.21848,-29.3209 -53.96007,-36.66518 -16.1468,-7.05657 -30.58864,-18.77577 -29.74721,-42.19954 0.51413,-14.31244 8.49196,-26.88483 18.67848,-37.35697 l -8.99334,-6.91796 0,-31.8226 z"
           inkscape:connector-curvature="0" />
        <path
           id="path3537"
           style="fill:#fcef3c;fill-opacity:1;fill-rule:nonzero;stroke:#000000;stroke-width:3.1639595;stroke-linecap:butt;stroke-linejoin:miter;stroke-miterlimit:4;stroke-opacity:1;stroke-dasharray:none;stroke-dashoffset:0;marker:none;visibility:visible;display:inline;overflow:visible"
           transform="translate(2,0)"
           d="m -155.65405,164.67424 c 0.003,3.82288 -3.09507,6.9236 -6.91795,6.9236 -3.82289,0 -6.92108,-3.10072 -6.91796,-6.9236 -0.003,-3.82288 3.09507,-6.9236 6.91795,-6.9236 3.82289,0 6.92108,3.10072 6.91796,6.9236 z"
           inkscape:connector-curvature="0" />
        <path
           id="path3539"
           style="fill:#fcef3c;fill-opacity:1;fill-rule:evenodd;stroke:#000000;stroke-width:3.1639595;stroke-linecap:butt;stroke-linejoin:miter;stroke-miterlimit:4;stroke-opacity:1;stroke-dasharray:none"
           d="m -158.23512,232.12258 c 9.67299,-10.94318 20.64085,-23.61649 50.31498,-25.2488 19.600673,-0.94965 39.726222,-1.57512 47.73391,-9.68514 1.497695,10.70403 -2.030697,18.1097 -11.760528,21.44567 -13.156318,4.25938 -26.622135,5.42377 -40.124152,6.22616 12.182881,-1.18281 22.671957,-0.7928 39.432356,-6.22616 9.748163,-0.27727 6.687691,8.46367 2.767183,12.45232 -9.059724,6.7915 -21.178613,5.62916 -31.822609,8.30155 l 23.52106,-4.05294 c 7.659778,2.11548 4.784483,5.56949 1.349824,8.86175 -6.654109,4.84283 -17.704987,5.75625 -26.946264,8.33531 l 19.238672,-4.64343 c 6.894406,2.70465 2.421298,6.62291 -2.669344,10.01242 -14.834738,8.52285 -31.990718,7.24788 -47.700138,7.77513"
           inkscape:connector-curvature="0" />
      </g>
    </g>
    <g
       style="fill:#fcef3c;stroke:#000000;stroke-width:1.11078775;stroke-opacity:1;display:inline"
       transform="matrix(0.56579628,0,0,0.56583414,424.2547,9.0242269)"
       id="g3545">
      <g
         transform="matrix(1.053226,0,0,1.053226,202.7331,-149.8915)"
         style="fill:#fcef3c;stroke:#000000;stroke-width:1.11078775;stroke-opacity:1;display:inline"
         id="g3547">
        <path
           inkscape:connector-curvature="0"
           d="m -143.97657,278.60684 c -3.56753,9.65918 -9.16809,15.76054 -15.52947,20.53048 10.37571,2.51676 15.38421,6.37532 20.26727,10.26524 5.83374,-6.87736 11.93301,-13.42281 20.53048,-16.84552 l 0.26321,-13.68698 -25.53149,-0.26322 z"
           style="fill:#fcef3c;fill-opacity:1;fill-rule:evenodd;stroke:#000000;stroke-width:3.1639595;stroke-linecap:butt;stroke-linejoin:miter;stroke-miterlimit:4;stroke-opacity:1;stroke-dasharray:none"
           id="path3549" />
        <path
           inkscape:connector-curvature="0"
           d="m -178.4833,155.6809 c 3.92017,-3.88227 7.84035,-6.24459 11.76052,-8.30155 6.85877,-2.58963 12.51343,-1.5669 17.98669,0 17.87725,13.49613 19.23947,30.08882 7.60976,49.1175 -15.36308,17.44227 -15.55685,25.40373 -16.6031,33.89799 37.33654,0.007 75.491086,-0.25905 118.297072,-2.07539 -5.843376,6.64815 -6.690979,13.02701 -6.226162,21.44567 -21.49951,11.73361 -37.238599,29.1146 -36.665175,51.88468 -11.64683,1.67104 -13.968035,2.12463 -22.137465,8.99335 -9.30673,-16.5617 -26.21848,-29.3209 -53.96007,-36.66518 -16.1468,-7.05657 -30.58864,-18.77577 -29.74721,-42.19954 0.51413,-14.31244 8.49196,-26.88483 18.67848,-37.35697 l -8.99334,-6.91796 0,-31.8226 z"
           style="fill:#fcef3c;fill-opacity:1;fill-rule:evenodd;stroke:#000000;stroke-width:3.1639595;stroke-linecap:butt;stroke-linejoin:miter;stroke-miterlimit:4;stroke-opacity:1;stroke-dasharray:none"
           id="path3551" />
        <path
           inkscape:connector-curvature="0"
           d="m -155.65405,164.67424 c 0.003,3.82288 -3.09507,6.9236 -6.91795,6.9236 -3.82289,0 -6.92108,-3.10072 -6.91796,-6.9236 -0.003,-3.82288 3.09507,-6.9236 6.91795,-6.9236 3.82289,0 6.92108,3.10072 6.91796,6.9236 z"
           transform="translate(2,0)"
           style="fill:#fcef3c;fill-opacity:1;fill-rule:nonzero;stroke:#000000;stroke-width:3.1639595;stroke-linecap:butt;stroke-linejoin:miter;stroke-miterlimit:4;stroke-opacity:1;stroke-dasharray:none;stroke-dashoffset:0;marker:none;visibility:visible;display:inline;overflow:visible"
           id="path3553" />
        <path
           inkscape:connector-curvature="0"
           d="m -158.23512,232.12258 c 9.67299,-10.94318 20.64085,-23.61649 50.31498,-25.2488 19.600673,-0.94965 39.726222,-1.57512 47.73391,-9.68514 1.497695,10.70403 -2.030697,18.1097 -11.760528,21.44567 -13.156318,4.25938 -26.622135,5.42377 -40.124152,6.22616 12.182881,-1.18281 22.671957,-0.7928 39.432356,-6.22616 9.748163,-0.27727 6.687691,8.46367 2.767183,12.45232 -9.059724,6.7915 -21.178613,5.62916 -31.822609,8.30155 l 23.52106,-4.05294 c 7.659778,2.11548 4.784483,5.56949 1.349824,8.86175 -6.654109,4.84283 -17.704987,5.75625 -26.946264,8.33531 l 19.238672,-4.64343 c 6.894406,2.70465 2.421298,6.62291 -2.669344,10.01242 -14.834738,8.52285 -31.990718,7.24788 -47.700138,7.77513"
           style="fill:#fcef3c;fill-opacity:1;fill-rule:evenodd;stroke:#000000;stroke-width:3.1639595;stroke-linecap:butt;stroke-linejoin:miter;stroke-miterlimit:4;stroke-opacity:1;stroke-dasharray:none"
           id="path3555" />
      </g>
    </g>
    <g
       id="g3557"
       transform="matrix(0.56579628,0,0,0.56583414,253.1197,9.0242269)"
       style="fill:#fcef3c;stroke:#000000;stroke-width:1.11078775;stroke-opacity:1;display:inline">
      <g
         id="g3559"
         style="fill:#fcef3c;stroke:#000000;stroke-width:1.11078775;stroke-opacity:1;display:inline"
         transform="matrix(1.053226,0,0,1.053226,202.7331,-149.8915)">
        <path
           id="path3561"
           style="fill:#fcef3c;fill-opacity:1;fill-rule:evenodd;stroke:#000000;stroke-width:3.1639595;stroke-linecap:butt;stroke-linejoin:miter;stroke-miterlimit:4;stroke-opacity:1;stroke-dasharray:none"
           d="m -143.97657,278.60684 c -3.56753,9.65918 -9.16809,15.76054 -15.52947,20.53048 10.37571,2.51676 15.38421,6.37532 20.26727,10.26524 5.83374,-6.87736 11.93301,-13.42281 20.53048,-16.84552 l 0.26321,-13.68698 -25.53149,-0.26322 z"
           inkscape:connector-curvature="0" />
        <path
           id="path3563"
           style="fill:#fcef3c;fill-opacity:1;fill-rule:evenodd;stroke:#000000;stroke-width:3.1639595;stroke-linecap:butt;stroke-linejoin:miter;stroke-miterlimit:4;stroke-opacity:1;stroke-dasharray:none"
           d="m -178.4833,155.6809 c 3.92017,-3.88227 7.84035,-6.24459 11.76052,-8.30155 6.85877,-2.58963 12.51343,-1.5669 17.98669,0 17.87725,13.49613 19.23947,30.08882 7.60976,49.1175 -15.36308,17.44227 -15.55685,25.40373 -16.6031,33.89799 37.33654,0.007 75.491086,-0.25905 118.297072,-2.07539 -5.843376,6.64815 -6.690979,13.02701 -6.226162,21.44567 -21.49951,11.73361 -37.238599,29.1146 -36.665175,51.88468 -11.64683,1.67104 -13.968035,2.12463 -22.137465,8.99335 -9.30673,-16.5617 -26.21848,-29.3209 -53.96007,-36.66518 -16.1468,-7.05657 -30.58864,-18.77577 -29.74721,-42.19954 0.51413,-14.31244 8.49196,-26.88483 18.67848,-37.35697 l -8.99334,-6.91796 0,-31.8226 z"
           inkscape:connector-curvature="0" />
        <path
           id="path3565"
           style="fill:#fcef3c;fill-opacity:1;fill-rule:nonzero;stroke:#000000;stroke-width:3.1639595;stroke-linecap:butt;stroke-linejoin:miter;stroke-miterlimit:4;stroke-opacity:1;stroke-dasharray:none;stroke-dashoffset:0;marker:none;visibility:visible;display:inline;overflow:visible"
           transform="translate(2,0)"
           d="m -155.65405,164.67424 c 0.003,3.82288 -3.09507,6.9236 -6.91795,6.9236 -3.82289,0 -6.92108,-3.10072 -6.91796,-6.9236 -0.003,-3.82288 3.09507,-6.9236 6.91795,-6.9236 3.82289,0 6.92108,3.10072 6.91796,6.9236 z"
           inkscape:connector-curvature="0" />
        <path
           id="path3567"
           style="fill:#fcef3c;fill-opacity:1;fill-rule:evenodd;stroke:#000000;stroke-width:3.1639595;stroke-linecap:butt;stroke-linejoin:miter;stroke-miterlimit:4;stroke-opacity:1;stroke-dasharray:none"
           d="m -158.23512,232.12258 c 9.67299,-10.94318 20.64085,-23.61649 50.31498,-25.2488 19.600673,-0.94965 39.726222,-1.57512 47.73391,-9.68514 1.497695,10.70403 -2.030697,18.1097 -11.760528,21.44567 -13.156318,4.25938 -26.622135,5.42377 -40.124152,6.22616 12.182881,-1.18281 22.671957,-0.7928 39.432356,-6.22616 9.748163,-0.27727 6.687691,8.46367 2.767183,12.45232 -9.059724,6.7915 -21.178613,5.62916 -31.822609,8.30155 l 23.52106,-4.05294 c 7.659778,2.11548 4.784483,5.56949 1.349824,8.86175 -6.654109,4.84283 -17.704987,5.75625 -26.946264,8.33531 l 19.238672,-4.64343 c 6.894406,2.70465 2.421298,6.62291 -2.669344,10.01242 -14.834738,8.52285 -31.990718,7.24788 -47.700138,7.77513"
           inkscape:connector-curvature="0" />
      </g>
    </g>
    <g
       style="fill:#fcef3c;stroke:#000000;stroke-width:1.11078775;stroke-opacity:1;display:inline"
       transform="matrix(0.56579628,0,0,0.56583414,81.984703,9.0242269)"
       id="g3569">
      <g
         transform="matrix(1.053226,0,0,1.053226,202.7331,-149.8915)"
         style="fill:#fcef3c;stroke:#000000;stroke-width:1.11078775;stroke-opacity:1;display:inline"
         id="g3571">
        <path
           inkscape:connector-curvature="0"
           d="m -143.97657,278.60684 c -3.56753,9.65918 -9.16809,15.76054 -15.52947,20.53048 10.37571,2.51676 15.38421,6.37532 20.26727,10.26524 5.83374,-6.87736 11.93301,-13.42281 20.53048,-16.84552 l 0.26321,-13.68698 -25.53149,-0.26322 z"
           style="fill:#fcef3c;fill-opacity:1;fill-rule:evenodd;stroke:#000000;stroke-width:3.1639595;stroke-linecap:butt;stroke-linejoin:miter;stroke-miterlimit:4;stroke-opacity:1;stroke-dasharray:none"
           id="path3573" />
        <path
           inkscape:connector-curvature="0"
           d="m -178.4833,155.6809 c 3.92017,-3.88227 7.84035,-6.24459 11.76052,-8.30155 6.85877,-2.58963 12.51343,-1.5669 17.98669,0 17.87725,13.49613 19.23947,30.08882 7.60976,49.1175 -15.36308,17.44227 -15.55685,25.40373 -16.6031,33.89799 37.33654,0.007 75.491086,-0.25905 118.297072,-2.07539 -5.843376,6.64815 -6.690979,13.02701 -6.226162,21.44567 -21.49951,11.73361 -37.238599,29.1146 -36.665175,51.88468 -11.64683,1.67104 -13.968035,2.12463 -22.137465,8.99335 -9.30673,-16.5617 -26.21848,-29.3209 -53.96007,-36.66518 -16.1468,-7.05657 -30.58864,-18.77577 -29.74721,-42.19954 0.51413,-14.31244 8.49196,-26.88483 18.67848,-37.35697 l -8.99334,-6.91796 0,-31.8226 z"
           style="fill:#fcef3c;fill-opacity:1;fill-rule:evenodd;stroke:#000000;stroke-width:3.1639595;stroke-linecap:butt;stroke-linejoin:miter;stroke-miterlimit:4;stroke-opacity:1;stroke-dasharray:none"
           id="path3575" />
        <path
           inkscape:connector-curvature="0"
           d="m -155.65405,164.67424 c 0.003,3.82288 -3.09507,6.9236 -6.91795,6.9236 -3.82289,0 -6.92108,-3.10072 -6.91796,-6.9236 -0.003,-3.82288 3.09507,-6.9236 6.91795,-6.9236 3.82289,0 6.92108,3.10072 6.91796,6.9236 z"
           transform="translate(2,0)"
           style="fill:#fcef3c;fill-opacity:1;fill-rule:nonzero;stroke:#000000;stroke-width:3.1639595;stroke-linecap:butt;stroke-linejoin:miter;stroke-miterlimit:4;stroke-opacity:1;stroke-dasharray:none;stroke-dashoffset:0;marker:none;visibility:visible;display:inline;overflow:visible"
           id="path3577" />
        <path
           inkscape:connector-curvature="0"
           d="m -158.23512,232.12258 c 9.67299,-10.94318 20.64085,-23.61649 50.31498,-25.2488 19.600673,-0.94965 39.726222,-1.57512 47.73391,-9.68514 1.497695,10.70403 -2.030697,18.1097 -11.760528,21.44567 -13.156318,4.25938 -26.622135,5.42377 -40.124152,6.22616 12.182881,-1.18281 22.671957,-0.7928 39.432356,-6.22616 9.748163,-0.27727 6.687691,8.46367 2.767183,12.45232 -9.059724,6.7915 -21.178613,5.62916 -31.822609,8.30155 l 23.52106,-4.05294 c 7.659778,2.11548 4.784483,5.56949 1.349824,8.86175 -6.654109,4.84283 -17.704987,5.75625 -26.946264,8.33531 l 19.238672,-4.64343 c 6.894406,2.70465 2.421298,6.62291 -2.669344,10.01242 -14.834738,8.52285 -31.990718,7.24788 -47.700138,7.77513"
           style="fill:#fcef3c;fill-opacity:1;fill-rule:evenodd;stroke:#000000;stroke-width:3.1639595;stroke-linecap:butt;stroke-linejoin:miter;stroke-miterlimit:4;stroke-opacity:1;stroke-dasharray:none"
           id="path3579" />
      </g>
    </g>
    <g
       style="display:inline"
       id="layer1-7"
       inkscape:label="Calque 1"
       transform="translate(-271.47767,-435.87095)">
      <text
         id="text27781"
         y="139.08751"
         x="-287.34122"
         style="font-size:28.85582161px;font-style:normal;font-weight:normal;fill:#000000;fill-opacity:1;stroke:none;display:inline;font-family:Bitstream Vera Sans"
         xml:space="preserve"><tspan
           id="tspan27827"
           y="932.62256"
           x="-287.34122"
           sodipodi:role="line" /></text>
    </g>
  </g>
  <g
     inkscape:groupmode="layer"
     id="layer2"
     inkscape:label="Reflet final"
     style="display:inline"
     sodipodi:insensitive="true">
    <g
       id="layer1-2"
       inkscape:label="Calque 1"
       transform="translate(-74.999965,-202.36231)">
      <path
         d="m 76.499965,203.86205 0,517.49133 c 0,38.50449 31.203105,69.75453 69.650005,69.75453 38.4468,0 120.7532,0 159.19999,0 38.44692,-10e-5 69.65004,31.24994 69.65004,69.7544 0,-38.50446 31.20314,-69.7544 69.64994,-69.7544 38.44689,-10e-5 120.75329,0 159.2001,0 38.44679,0 69.65,-31.25004 69.65,-69.75453 l 0,-517.49133 -597.000075,0 z"
         style="fill:url(#radialGradient11919);fill-opacity:1;fill-rule:evenodd;stroke:none;display:inline"
         id="path2875"
         inkscape:connector-curvature="0" />
    </g>
  </g>
  <g
     inkscape:groupmode="layer"
     id="layer1"
     inkscape:label="Contour final"
     style="display:inline"
     sodipodi:insensitive="true">
    <g
       id="layer1-76"
       inkscape:label="Calque 1"
       transform="translate(-74.999944,-202.36234)">
      <path
         sodipodi:nodetypes="cssccccssc"
         d="m 374.99998,860.86234 c 0,-38.5041 31.20319,-69.75372 69.65,-69.75372 38.44681,0 120.75317,0 159.19998,0 38.4468,0 69.65009,-31.24962 69.65009,-69.75362 l 0,-517.49298 -597.000095,2e-5 -1e-5,517.49296 c 0,38.504 31.203215,69.75362 69.650015,69.75362 38.44683,0 120.75321,0 159.20002,0 38.4468,0 69.65,31.24962 69.65,69.75372 z"
         style="fill:none;stroke:#000000;stroke-width:3.00000191;stroke-linecap:round;stroke-linejoin:round;stroke-miterlimit:4;stroke-opacity:1;stroke-dasharray:none;stroke-dashoffset:0;display:inline"
         id="path1572"
         inkscape:connector-curvature="0" />
    </g>
  </g>
</svg>
