<?xml version="1.0" encoding="UTF-8" standalone="no"?>
<!-- Created with Inkscape (http://www.inkscape.org/) -->
<svg
   xmlns:svg="http://www.w3.org/2000/svg"
   xmlns="http://www.w3.org/2000/svg"
   xmlns:xlink="http://www.w3.org/1999/xlink"
   version="1.0"
   width="600"
   height="660"
   id="svg2">
  <defs
     id="defs6">
    <linearGradient
       id="linearGradient2893">
      <stop
         style="stop-color:#ffffff;stop-opacity:0.3137255"
         offset="0"
         id="stop2895" />
      <stop
         style="stop-color:#ffffff;stop-opacity:0.25098041"
         offset="0.19"
         id="stop2897" />
      <stop
         style="stop-color:#6b6b6b;stop-opacity:0.1254902"
         offset="0.60000002"
         id="stop2901" />
      <stop
         style="stop-color:#000000;stop-opacity:0.1254902"
         offset="1"
         id="stop2899" />
    </linearGradient>
    <radialGradient
       cx="221.44487"
       cy="226.33101"
       r="300"
       fx="221.44487"
       fy="226.33101"
       id="radialGradient3163"
       xlink:href="#linearGradient2893"
       gradientUnits="userSpaceOnUse"
       gradientTransform="matrix(1.353218,0,0,1.348928,-77.62935,-85.74693)" />
  </defs>
  <g
     style="display:inline"
     id="layer3">
    <path
       d="M 300,658.5 C 300,658.5 598.50001,546.17969 598.50001,260.72817 C 598.50001,-24.723354 598.50001,2.1764765 598.50001,2.1764765 L 1.5,2.1764765 L 1.5,260.72817 C 1.5,546.17969 300,658.5 300,658.5 z "
       style="fill:#d40000;fill-opacity:1;fill-rule:evenodd;stroke:none;stroke-width:1px;stroke-linecap:butt;stroke-linejoin:miter;stroke-opacity:1"
       id="path2855" />
  </g>
  <g
     id="layer4">
    <use
       transform="matrix(-1,0,0,1,599.96546,0.6940066)"
       id="use4550"
       x="0"
       y="0"
       width="600"
       height="660"
       xlink:href="#g4529" />
    <g
       transform="translate(0,0.1735017)"
       id="g4529">
      <path
         d="M 260,184 L 180,254 L 180,364 L 260,294 L 260,184 z "
         style="fill:#000000;fill-rule:evenodd;stroke:none;stroke-width:1px;stroke-linecap:butt;stroke-linejoin:miter;stroke-opacity:1"
         id="path4378" />
      <use
         transform="translate(-50.777492,96.71875)"
         id="use4489"
         x="0"
         y="0"
         width="600"
         height="660"
         xlink:href="#path4463" />
      <use
         transform="translate(-48,57)"
         id="use4435"
         x="0"
         y="0"
         width="600"
         height="660"
         xlink:href="#path4376" />
      <use
         transform="translate(-16,29)"
         id="use4429"
         x="0"
         y="0"
         width="600"
         height="660"
         xlink:href="#path4376" />
      <path
         d="M 258,164 L 242,178 L 242,193 L 226,207 L 226,192 L 210,206 L 210,221 L 194,235 L 194,220 L 178,234 L 178,258 L 258,188 L 258,164 z "
         style="fill:#ffffff;fill-rule:evenodd;stroke:#000000;stroke-width:2;stroke-linecap:round;stroke-linejoin:round;stroke-miterlimit:4;stroke-dasharray:none;stroke-opacity:1"
         id="path4445" />
      <path
         d="M 258,164 L 258,164 L 253,164 L 237,178 L 242,178 L 258,164 z "
         style="fill:#ffffff;fill-rule:evenodd;stroke:#000000;stroke-width:2;stroke-linecap:round;stroke-linejoin:round;stroke-miterlimit:4;stroke-dasharray:none;stroke-opacity:1"
         id="path4376" />
      <use
         transform="translate(-3.45365e-2,75.71875)"
         id="use4484"
         x="0"
         y="0"
         width="600"
         height="660"
         xlink:href="#path4463" />
      <use
         transform="translate(4.2481078e-6,51)"
         id="use4482"
         x="0"
         y="0"
         width="600"
         height="660"
         xlink:href="#path4463" />
      <use
         transform="translate(-3.45365e-2,25.71875)"
         id="use4478"
         x="0"
         y="0"
         width="600"
         height="660"
         xlink:href="#path4463" />
      <path
         d="M 254.37653,193.52763 C 250.67063,196.79788 246.97756,198.9927 243.25667,203.52084 C 242.7312,208.75633 243.16938,210.77748 243.12709,214.39507 C 248.70995,211.55256 249.92186,207.73033 254.24695,204.40186 C 255.50044,200.17091 254.96648,194.71091 254.37653,193.52763 z M 261.52328,199.61322 C 258.17497,202.62187 254.1243,205.07829 250.40341,209.60643 C 249.87794,214.84192 250.31612,216.86307 250.27383,220.48066 C 255.8567,217.63815 257.06861,213.81592 261.3937,210.48745 C 261.98147,207.86928 262.97132,203.44244 261.52328,199.61322 z M 241.89514,205.00472 C 238.09916,208.39812 234.87087,209.83627 230.49181,215.18206 C 229.82986,221.99451 230.45291,223.46688 230.99687,225.2513 C 236.05029,222.51219 238.52327,218.64359 242.11673,215.25809 C 242.48231,211.84827 242.52025,207.61918 241.89514,205.00472 z M 249.39306,210.46945 C 245.68716,213.7397 240.91676,217.17177 237.19587,221.69991 C 237.91619,226.50714 237.55584,227.27852 237.3226,232.0459 C 242.90547,229.20341 244.93839,224.67215 249.26348,221.34368 L 249.39306,210.46945 z M 228.94801,216.22624 C 225.24211,219.4965 221.54904,221.69132 217.82815,226.21945 C 217.30267,231.45494 217.74085,233.4761 217.69856,237.09368 C 223.28143,234.25117 224.49334,230.42894 228.81843,227.10047 C 230.07192,222.86953 229.53795,217.40953 228.94801,216.22624 z M 236.09475,222.31183 C 232.74645,225.32049 228.69578,227.77691 224.97489,232.30504 C 224.44942,237.54053 224.8876,239.56169 224.84531,243.17927 C 230.42817,240.33676 231.64008,236.51453 235.96517,233.18606 C 236.55295,230.5679 237.5428,226.14106 236.09475,222.31183 z M 216.46662,227.70333 C 212.67063,231.09673 209.44235,232.53489 205.06329,237.88068 C 204.40134,244.69312 205.02439,246.16549 205.56834,247.94991 C 210.62177,245.2108 213.09474,241.3422 216.68821,237.9567 C 217.05378,234.54689 217.09173,230.3178 216.46662,227.70333 z M 223.96453,233.16806 C 220.25863,236.43832 215.48824,239.87039 211.76735,244.39852 C 212.48873,249.11715 212.15856,249.97751 211.92533,254.74489 C 217.50819,251.90238 219.50986,247.37076 223.83495,244.04229 L 223.96453,233.16806 z "
         style="fill:#ffffff;fill-rule:evenodd;stroke:none;stroke-width:1px;stroke-linecap:butt;stroke-linejoin:miter;stroke-opacity:1"
         id="path4463" />
      <use
         transform="translate(-64,56)"
         id="use4433"
         x="0"
         y="0"
         width="600"
         height="660"
         xlink:href="#path4376" />
      <use
         transform="translate(-50.777492,71.71875)"
         id="use4480"
         x="0"
         y="0"
         width="600"
         height="660"
         xlink:href="#path4463" />
      <use
         transform="translate(-50.777492,46)"
         id="use4476"
         x="0"
         y="0"
         width="600"
         height="660"
         xlink:href="#path4463" />
      <use
         transform="translate(-32,28)"
         id="use4431"
         x="0"
         y="0"
         width="600"
         height="660"
         xlink:href="#path4376" />
      <rect
         width="5"
         height="15"
         x="205"
         y="206"
         style="fill:#ffffff;fill-opacity:1;fill-rule:evenodd;stroke:#000000;stroke-width:2;stroke-linecap:round;stroke-linejoin:round;stroke-miterlimit:4;stroke-dasharray:none;stroke-dashoffset:0;stroke-opacity:1"
         id="rect4437" />
      <use
         transform="translate(32,-28)"
         id="use4439"
         x="0"
         y="0"
         width="600"
         height="660"
         xlink:href="#rect4437" />
      <use
         transform="translate(-50.777492,121.71875)"
         id="use4491"
         x="0"
         y="0"
         width="600"
         height="660"
         xlink:href="#path4463" />
    </g>
    <g
       transform="matrix(2.339062,0,0,2.339062,-401.94167,-581.49337)"
       id="g4087">
      <rect
         width="39.941135"
         height="92"
         x="280"
         y="285"
         style="opacity:1;fill:#000000;fill-opacity:1;fill-rule:evenodd;stroke:none;stroke-width:0.80000001;stroke-linecap:round;stroke-linejoin:round;stroke-miterlimit:4;stroke-dasharray:none;stroke-dashoffset:0;stroke-opacity:1"
         id="rect4020" />
      <use
         transform="translate(-2.5908753e-6,19.999998)"
         id="use4051"
         x="0"
         y="0"
         width="600"
         height="660"
         xlink:href="#use3267" />
      <path
         d="M 288.25,287.00004 C 286.0389,286.98501 283.83648,287.16922 281.625,287.16469 C 281.24833,287.29708 281.21644,287.1504 281.1875,287.65862 C 281.16681,288.58743 281.25116,289.28804 281.21875,290.4905 C 281.32097,290.95496 280.98912,291.28228 281.51957,291.31406 C 284.74206,291.69095 287.44804,291.52937 290.45604,291.26865 C 290.84259,291.289 291.12578,291.03876 291.20295,290.58512 C 291.44147,289.54888 291.2819,288.64148 291.2215,287.60524 C 291.21815,287.34164 290.7508,287.15833 290.46875,287.09883 C 289.73244,287.03665 288.98703,287.00506 288.25,287.00004 z M 299.0625,287.00004 C 296.81893,286.98945 294.61559,287.21887 292.46875,287.16469 C 292.09209,287.29708 292.06019,287.1504 292.03125,287.65862 C 292.0106,288.58743 292.09491,289.28804 292.0625,290.4905 C 292.16472,290.95496 292.00081,291.34778 292.53125,291.37957 C 295.75373,291.75644 298.25677,291.29859 301.20707,291.26865 C 301.59363,291.289 301.9266,291.05731 302.00378,290.60367 C 302.24229,289.56743 302.06416,288.67857 302.00378,287.64233 C 302.00044,287.37873 301.59455,287.15833 301.3125,287.09883 C 300.55478,287.02431 299.81036,287.00357 299.0625,287.00004 z M 309.90625,287.00004 C 307.66266,286.98945 305.45933,287.21887 303.3125,287.16469 C 302.93583,287.29708 302.90394,287.1504 302.875,287.65862 C 302.85433,288.58743 302.93866,289.28804 302.90625,290.4905 C 303.0085,290.95496 302.73226,291.13393 303.26271,291.16571 C 306.48519,291.5426 309.1747,291.11315 312.125,291.08321 C 312.51156,291.10356 312.54784,291.07585 312.625,290.62221 C 312.86351,289.58597 312.6854,288.53022 312.625,287.49398 C 312.62165,287.23038 312.43829,287.15833 312.15625,287.09883 C 311.39851,287.02431 310.65411,287.00357 309.90625,287.00004 z M 318.625,287.00004 C 316.38142,286.98945 316.3031,287.21887 314.15625,287.16469 C 313.77959,287.29708 313.50661,287.13186 313.47768,287.64008 C 313.30865,288.64306 313.35589,289.36222 313.5831,290.52759 C 313.68532,290.99205 313.59456,290.98558 314.125,291.01736 C 315.76015,291.20861 317.25841,291.24373 318.71875,291.21493 C 318.7888,291.07328 318.83375,290.89399 318.875,290.68807 L 315.5,290.68807 C 315.223,290.68808 315,290.45309 315,290.16121 C 315,289.86933 315.223,289.63435 315.5,289.63435 L 318.96875,289.63435 C 318.9739,289.28708 318.9714,288.93387 318.9375,288.58063 L 315.5,288.58063 C 315.223,288.58064 315,288.34565 315,288.05377 C 315,287.76188 315.223,287.52691 315.5,287.52691 L 318.78125,287.52691 C 318.7333,287.33853 318.68757,287.14711 318.625,287.00004 z M 287.67205,291.87541 C 287.2954,292.0078 286.86307,292.04814 286.83413,292.55636 C 286.81346,293.48518 287.1574,294.55665 287.125,295.7591 C 287.22723,296.22356 286.96955,296.25417 287.5,296.28596 C 290.72249,296.66281 293.39345,296.38176 296.34375,296.35182 C 296.73032,296.37217 296.97055,296.25174 297.04773,295.7981 C 297.28625,294.76185 297.25647,293.79884 297.19608,292.76258 C 297.19275,292.49898 296.65705,292.05604 296.375,291.99656 C 293.16755,291.98133 290.62069,291.73311 287.67205,291.87541 z M 298.59959,291.84855 C 298.22295,291.98093 297.96644,292.41901 297.9375,292.92723 C 297.91684,293.85605 298.00116,294.55665 297.96875,295.7591 C 298.07098,296.22356 297.8133,296.25417 298.34375,296.28596 C 301.56624,296.66281 304.23719,296.38176 307.1875,296.35182 C 307.57406,296.37217 307.61033,296.34446 307.6875,295.89082 C 307.92603,294.85457 307.7479,293.79884 307.6875,292.76258 C 307.68417,292.49898 307.55643,292.01895 307.27438,291.95947 C 304.49238,291.38219 301.51239,291.84939 298.59959,291.84855 z M 309.20707,291.79292 C 308.83043,291.9253 308.4891,292.08522 308.46017,292.59344 C 308.4395,293.52226 308.54238,294.55665 308.50996,295.7591 C 308.61219,296.22356 308.65706,296.25417 309.1875,296.28596 C 312.40998,296.66281 315.08095,296.38176 318.03125,296.35182 C 318.39224,296.37082 318.43139,296.32921 318.5,295.95667 L 315.5,295.95667 C 315.223,295.95668 315,295.72169 315,295.42981 C 315,295.13793 315.223,294.90295 315.5,294.90295 L 318.65625,294.90295 C 318.66854,294.55271 318.65144,294.20269 318.625,293.84923 L 315.5,293.84923 C 315.223,293.84924 315,293.61425 315,293.32237 C 315,293.03049 315.223,292.79551 315.5,292.79551 L 318.53125,292.79551 C 318.5306,292.78478 318.53187,292.7733 318.53125,292.76258 C 318.52791,292.49898 318.36308,292.04393 318.08104,291.98442 C 314.19618,291.46244 312.16014,291.95075 309.20707,291.79292 z M 281.3671,291.89777 C 280.97504,292.97514 281.05189,295.4175 281.125,296.48353 C 282.57957,296.45738 284.01057,296.36693 285.5,296.35182 C 285.88656,296.37217 286.27517,296.2332 286.35233,295.77956 C 286.59085,294.74331 286.17166,293.59486 286.11126,292.5586 C 286.10792,292.295 285.88747,291.98187 285.60543,291.92239 C 284.8477,291.84787 282.11496,291.9013 281.3671,291.89777 z "
         style="fill:#ffffff;fill-rule:evenodd;stroke:none"
         id="use3267" />
      <use
         transform="translate(-2.5908753e-6,29.999998)"
         id="use4053"
         x="0"
         y="0"
         width="600"
         height="660"
         xlink:href="#use3267" />
      <path
         d="M 277,269.4 L 277,281.4 L 286,281.4 L 295,281.4 L 305,281.4 L 314,281.4 L 323,281.4 L 323,269.4 L 314,269.4 L 314,273.4 L 305,273.4 L 305,269.4 L 295,269.4 L 295,273.4 L 286,273.4 L 286,269.4 L 277,269.4 z "
         style="fill:#ffffff;fill-opacity:1;fill-rule:evenodd;stroke:#000000;stroke-width:0.85504359;stroke-linecap:round;stroke-linejoin:round;stroke-miterlimit:4;stroke-dasharray:none;stroke-dashoffset:0;stroke-opacity:1"
         id="rect3881" />
      <path
         d="M 276.99989,281.10026 L 281.99989,285.08744 L 317.99989,285.08744 L 322.99989,281.10026 L 276.99989,281.10026 z "
         style="fill:#ffffff;fill-opacity:1;fill-rule:evenodd;stroke:#000000;stroke-width:0.80000001;stroke-linecap:round;stroke-linejoin:round;stroke-miterlimit:4;stroke-dasharray:none;stroke-opacity:1"
         id="path3157" />
      <path
         d="M 322.99989,281.08744 L 318.99989,286.08744 L 315.43374,286.08744 L 317.99989,281.08744 L 322.99989,281.08744 z "
         style="fill:#ffffff;fill-rule:evenodd;stroke:#000000;stroke-width:0.80000001;stroke-linecap:round;stroke-linejoin:round;stroke-miterlimit:4;stroke-dasharray:none;stroke-opacity:1"
         id="path3321" />
      <use
         transform="matrix(-1,0,0,1,599.99978,0)"
         id="use3323"
         x="0"
         y="0"
         width="1"
         height="1"
         xlink:href="#path3321" />
      <path
         d="M 285.99989,281.08744 L 287.66656,286.08744 L 290.99989,286.08744 L 290.16656,281.08744 L 285.99989,281.08744 z "
         style="fill:#ffffff;fill-rule:evenodd;stroke:#000000;stroke-width:0.80000001;stroke-linecap:butt;stroke-linejoin:miter;stroke-miterlimit:4;stroke-dasharray:none;stroke-opacity:1"
         id="path3325" />
      <use
         transform="matrix(-1,0,0,1,599.99978,0)"
         id="use3327"
         x="0"
         y="0"
         width="1"
         height="1"
         xlink:href="#path3325" />
      <path
         d="M 293.99989,281.08744 L 297.99989,281.08744 L 297.99989,286.08744 L 294.99989,286.08744 L 293.99989,281.08744 z "
         style="fill:#ffffff;fill-rule:evenodd;stroke:#000000;stroke-width:0.80000001;stroke-linecap:butt;stroke-linejoin:miter;stroke-miterlimit:4;stroke-dasharray:none;stroke-opacity:1"
         id="path3329" />
      <use
         transform="matrix(-1,0,0,1,599.99978,0)"
         id="use3331"
         x="0"
         y="0"
         width="1"
         height="1"
         xlink:href="#path3329" />
      <rect
         width="48.190979"
         height="2"
         ry="1"
         x="275.99988"
         y="280.08743"
         style="fill:#ffffff;fill-opacity:1;fill-rule:evenodd;stroke:#000000;stroke-width:0.80000001;stroke-linecap:round;stroke-linejoin:round;stroke-miterlimit:4;stroke-dasharray:none;stroke-dashoffset:0;stroke-opacity:1"
         id="rect3351" />
      <path
         d="M 318.92555,270.56178 L 322.52555,270.56178"
         style="fill:none;fill-rule:evenodd;stroke:#000000;stroke-width:0.94868332px;stroke-linecap:round;stroke-linejoin:miter;stroke-opacity:1"
         id="path3357" />
      <use
         id="use3359"
         x="0"
         y="2"
         width="1"
         height="1"
         xlink:href="#path3357" />
      <use
         id="use3361"
         x="0"
         y="4"
         width="1"
         height="1"
         xlink:href="#path3357" />
      <use
         id="use3363"
         x="0"
         y="6"
         width="1"
         height="1"
         xlink:href="#path3357" />
      <use
         id="use3365"
         x="0"
         y="8"
         width="1"
         height="1"
         xlink:href="#path3357" />
      <use
         transform="translate(-2.5908753e-6,79.999998)"
         id="use4063"
         x="0"
         y="0"
         width="600"
         height="660"
         xlink:href="#use3267" />
      <use
         transform="translate(-2.5908753e-6,69.999998)"
         id="use4061"
         x="0"
         y="0"
         width="600"
         height="660"
         xlink:href="#use3267" />
      <path
         d="M 298.58411,356.35555 C 298.38949,356.37237 298.78698,356.77641 298.59761,356.80455 C 294.73276,357.37889 291.99989,360.29017 291.99989,364.70026 L 291.99989,376.70026 L 307.99989,376.70026 L 307.99989,364.70026 C 307.99989,360.40721 305.34105,357.44463 301.55873,356.82212 C 301.43233,356.80131 301.66884,356.4363 301.53999,356.42076 C 300.40831,356.18943 299.56219,356.08101 298.58411,356.35555 z "
         style="fill:#000000;fill-opacity:1;fill-rule:evenodd;stroke:none"
         id="rect3495" />
      <path
         d="M 298.43303,357.17337 C 297.12678,357.3776 296.38826,357.79882 295.16722,358.67337 C 295.79969,359.10037 295.86148,359.82222 296.49989,360.48151 C 297.46832,359.65748 297.32923,359.7216 298.66523,359.38776 C 298.52045,358.7782 298.86499,357.75081 298.43303,357.17337 z M 294.70756,358.92337 C 293.72923,359.9024 292.94303,360.98293 292.69847,362.3031 C 293.40243,362.54576 294.08364,362.81072 294.81911,363.02185 C 295.15796,361.79627 295.23359,361.76888 296.15178,360.74259 C 295.59907,360.40194 295.38919,359.15873 294.70756,358.92337 z M 292.53114,362.88776 C 292.42709,364.21726 292.22449,365.76831 292.46192,367.09779 C 293.1461,367.05479 293.84696,367.08508 294.53114,367.17137 C 294.63378,365.94732 294.49749,365.02677 294.71864,363.57526 C 294.08987,363.41341 293.25189,362.91088 292.53114,362.88776 z M 292.46864,367.79401 C 292.51539,369.12346 292.42236,370.27267 292.53786,371.60215 C 293.13489,371.71639 293.72666,371.84375 294.45084,371.64012 C 294.5559,370.41571 294.57902,369.23387 294.49989,367.82526 C 293.83211,367.70774 293.14401,367.77415 292.46864,367.79401 z M 292.46864,372.20026 C 292.50331,373.52977 292.22685,374.77703 292.56239,376.10651 L 294.49989,376.16901 C 294.60495,374.9446 294.57902,373.64012 294.49989,372.23151 C 293.8744,372.21971 293.22932,372.39369 292.46864,372.20026 z "
         style="fill:#ffffff;fill-rule:evenodd;stroke:none;stroke-width:0.64128268;stroke-miterlimit:4;stroke-dasharray:none;stroke-opacity:1"
         id="path2271" />
      <path
         d="M 298.79758,356.51226 C 298.83993,356.64697 298.84462,356.78809 298.88179,356.92694 C 299.09463,357.72193 299.06033,358.69187 299.0517,359.35796 C 299.60309,359.25941 300.35044,359.3066 300.97117,359.39297 C 300.98309,358.53419 300.909,357.81049 301.2331,356.98278 C 301.28398,356.85283 301.25156,356.70501 301.28233,356.56005 C 300.36944,356.42143 299.9534,356.24016 298.79758,356.51226 z "
         style="fill:#ffffff;fill-rule:evenodd;stroke:#000000;stroke-width:0.4275218;stroke-miterlimit:4;stroke-dasharray:none;stroke-opacity:1"
         id="path3262" />
      <use
         transform="matrix(-1,0,0,1,599.99978,0)"
         id="use3264"
         x="0"
         y="0"
         width="1"
         height="1"
         xlink:href="#path2271" />
      <use
         transform="translate(-7.2240512e-7,10.000001)"
         id="use4049"
         x="0"
         y="0"
         width="600"
         height="660"
         xlink:href="#use3267" />
      <use
         transform="translate(-2.5908753e-6,39.999998)"
         id="use4055"
         x="0"
         y="0"
         width="600"
         height="660"
         xlink:href="#use3267" />
      <use
         transform="translate(-2.5908753e-6,49.999998)"
         id="use4057"
         x="0"
         y="0"
         width="600"
         height="660"
         xlink:href="#use3267" />
      <use
         transform="translate(-2.5908753e-6,59.999998)"
         id="use4059"
         x="0"
         y="0"
         width="600"
         height="660"
         xlink:href="#use3267" />
      <use
         transform="translate(0,-9.5318452e-2)"
         id="use3355"
         x="15"
         y="0"
         width="1"
         height="1"
         xlink:href="#rect3353" />
      <rect
         width="5"
         height="10"
         x="289.99988"
         y="300.18707"
         style="fill:#000000;fill-opacity:1;fill-rule:evenodd;stroke:#000000;stroke-width:1;stroke-linecap:round;stroke-linejoin:round;stroke-miterlimit:4;stroke-dasharray:none;stroke-dashoffset:0;stroke-opacity:1"
         id="rect3353" />
    </g>
    <use
       transform="translate(-165,132.28569)"
       id="use4119"
       x="0"
       y="0"
       width="600"
       height="660"
       xlink:href="#g4087" />
    <use
       transform="translate(165,132.28569)"
       id="use4121"
       x="0"
       y="0"
       width="600"
       height="660"
       xlink:href="#g4087" />
    <path
       d="M 220,430 L 380,430 L 400,566 C 400,566 200,566 200,566 L 220,430 z "
       style="fill:#000000;fill-rule:evenodd;stroke:none;stroke-width:1px;stroke-linecap:butt;stroke-linejoin:miter;stroke-opacity:1"
       id="path4211" />
    <path
       d="M 284,395 L 287,390 L 313,390 L 316,395 L 284,395 z "
       style="fill:#ffffff;fill-rule:evenodd;stroke:#000000;stroke-width:2;stroke-linecap:round;stroke-linejoin:round;stroke-miterlimit:4;stroke-dasharray:none;stroke-opacity:1"
       id="path4369" />
    <path
       d="M 218.64096,445.29383 C 234.14604,445.11379 243.97669,444.62612 256.83168,445.26662 C 255.11773,440.59122 257.11434,436.08936 256.20503,430.45973 C 244.44701,430.2902 232.35997,429.51595 220.93149,430.45973 L 218.64096,445.29383 z M 258.17761,430.81414 C 258.3811,435.77559 256.70472,440.14246 258.61478,445.35152 C 271.22874,445.76662 286.21163,445.45742 299.33156,445.67143 C 300.12803,440.62137 298.91911,435.29953 298.9903,430.24946 C 285.56169,429.86432 272.25064,429.53973 258.17761,430.81414 z M 218.45801,446.89649 L 216.01753,462.71967 C 223.58667,463.64099 227.98251,462.60385 234.67003,462.67243 C 236.17802,458.15459 235.401,452.06161 234.5479,446.82024 C 229.42851,446.31717 224.81852,446.27412 218.45801,446.89649 z M 236.64262,446.55443 C 236.30334,452.81413 237.16244,457.5088 237.13061,462.61792 C 250.18896,463.4699 262.67841,462.58874 274.78693,462.27462 C 275.32434,457.9562 276.43141,454.94761 274.85715,446.90884 C 261.5696,446.64435 249.61733,446.06649 236.64262,446.55443 z "
       style="fill:#ffffff;fill-opacity:1;fill-rule:evenodd;stroke:none;stroke-width:2;stroke-linecap:round;stroke-linejoin:round;stroke-miterlimit:4;stroke-dashoffset:0;stroke-opacity:1"
       id="rect4552" />
    <use
       transform="matrix(-1,0,0,1,600,-0.1464413)"
       id="use4584"
       x="0"
       y="0"
       width="600"
       height="660"
       xlink:href="#rect4552" />
    <use
       transform="translate(-4.9999977,34.000005)"
       id="use4586"
       x="0"
       y="0"
       width="600"
       height="660"
       xlink:href="#rect4552" />
    <use
       transform="translate(-10.000002,67.999995)"
       id="use4588"
       x="0"
       y="0"
       width="600"
       height="660"
       xlink:href="#rect4552" />
    <use
       transform="matrix(-1,0,0,1,605.01753,34.000005)"
       id="use4590"
       x="0"
       y="0"
       width="600"
       height="660"
       xlink:href="#rect4552" />
    <use
       transform="matrix(-1,0,0,1,610,67.853559)"
       id="use4592"
       x="0"
       y="0"
       width="600"
       height="660"
       xlink:href="#rect4552" />
    <path
       d="M 276.07803,447.04173 C 292.68826,447.15272 310.20194,446.39288 323.37701,447.38873 C 322.75359,453.75495 322.70081,455.50811 323.37701,462.64348 C 307.41232,463.14428 291.63773,462.74571 276,462.29648 C 277.00035,458.99215 277.63057,452.40809 276.07803,447.04173 z "
       style="fill:#ffffff;fill-opacity:1;fill-rule:evenodd;stroke:none;stroke-width:2;stroke-linecap:round;stroke-linejoin:round;stroke-miterlimit:4;stroke-dashoffset:0;stroke-opacity:1"
       id="rect4594" />
    <path
       d="M 220,395 L 252,395 L 252,415 L 284,415 L 284,395 L 316,395 L 316,415 L 348,415 L 348,395 C 348,395 380,394 380,395 C 380,396 380,430 380,430 L 220,430 L 220,395 z "
       style="fill:#ffffff;fill-rule:evenodd;stroke:#000000;stroke-width:2;stroke-linecap:round;stroke-linejoin:round;stroke-miterlimit:4;stroke-dasharray:none;stroke-opacity:1"
       id="path4628" />
    <use
       transform="translate(-15.000002,102)"
       id="use4614"
       x="0"
       y="0"
       width="600"
       height="660"
       xlink:href="#rect4552" />
    <use
       transform="matrix(-1,0,0,1,615,101.85356)"
       id="use4616"
       x="0"
       y="0"
       width="600"
       height="660"
       xlink:href="#rect4552" />
    <path
       d="M 300,455 C 277.92,455 260,472.92 260,495 L 260,565 L 339.71875,565 L 339.71875,499.59375 C 339.89115,498.08717 340,496.5525 340,495 C 340,472.92 322.08,455 300,455 z "
       style="opacity:1;fill:#000000;fill-opacity:1;fill-rule:evenodd;stroke:#000000;stroke-width:2;stroke-linecap:round;stroke-linejoin:round;stroke-miterlimit:4;stroke-dasharray:none;stroke-dashoffset:0;stroke-opacity:1"
       id="rect3302" />
    <g
       id="g3287">
      <use
         transform="translate(78,75)"
         id="use4354"
         x="0"
         y="0"
         width="600"
         height="660"
         xlink:href="#path4336" />
      <use
         transform="translate(26,39)"
         id="use4350"
         x="0"
         y="0"
         width="600"
         height="660"
         xlink:href="#path4336" />
      <path
         d="M 90,305 L 100,305 L 126,323 L 116,323 L 90,305 z "
         style="fill:#ffffff;fill-rule:evenodd;stroke:#000000;stroke-width:2;stroke-linecap:round;stroke-linejoin:round;stroke-miterlimit:4;stroke-dasharray:none;stroke-opacity:1"
         id="path4336" />
      <rect
         width="10"
         height="20.973183"
         ry="0"
         x="116"
         y="323.02682"
         style="opacity:1;fill:#ffffff;fill-opacity:1;fill-rule:evenodd;stroke:#000000;stroke-width:2;stroke-linecap:round;stroke-linejoin:round;stroke-miterlimit:4;stroke-dasharray:none;stroke-dashoffset:0;stroke-opacity:1"
         id="rect4348" />
      <use
         transform="translate(52,35.973175)"
         id="use4356"
         x="0"
         y="0"
         width="600"
         height="660"
         xlink:href="#rect4348" />
      <path
         d="M 194,377 L 220,395 L 230,395 L 252,395 L 255,390 L 223,390 L 222.9375,390.09375 L 204,377 L 194,377 z M 255,409 L 252,415 L 284,415 L 284,409 L 255,409 z "
         style="fill:#ffffff;fill-rule:evenodd;stroke:#000000;stroke-width:2;stroke-linecap:round;stroke-linejoin:round;stroke-miterlimit:4;stroke-dasharray:none;stroke-opacity:1"
         id="use4358" />
      <path
         d="M 252,395 L 255,390 L 255,409 L 252,415 L 252,395 z "
         style="fill:#ffffff;fill-rule:evenodd;stroke:#000000;stroke-width:2;stroke-linecap:round;stroke-linejoin:round;stroke-miterlimit:4;stroke-dasharray:none;stroke-opacity:1"
         id="path4367" />
      <use
         transform="translate(52,36)"
         id="use4352"
         x="0"
         y="0"
         width="600"
         height="660"
         xlink:href="#path4336" />
      <path
         d="M 90,305 L 90,340 L 220,430 L 220,395 L 194,377 L 194,398 L 168,380 L 168,359 L 142,341 L 142,362 L 116,344 L 116,323 L 90,305 z "
         style="fill:#ffffff;fill-rule:evenodd;stroke:#000000;stroke-width:2;stroke-linecap:round;stroke-linejoin:round;stroke-miterlimit:4;stroke-dasharray:none;stroke-opacity:1"
         id="path4235" />
      <path
         d="M 89.524147,339.80545 L 79.234961,439.84838 L 200,565.96875 C 206.5528,520.66065 213.73059,475.23843 220,430 L 89.524147,339.80545 z "
         style="fill:#000000;fill-rule:evenodd;stroke:none;stroke-width:1px;stroke-linecap:butt;stroke-linejoin:miter;stroke-opacity:1"
         id="path3229" />
      <path
         d="M 90.90625,341.09375 L 89.6875,353.0625 C 94.266993,356.72433 98.720382,360.5383 104.1875,363.3125 L 105.75,350.8125 C 100.80521,347.57381 97.987673,344.68855 90.90625,341.09375 z M 106.96875,351.875 C 106.74811,356.68195 105.03573,360.28849 105.21875,364.34375 C 110.0098,369.23844 115.68954,371.99547 120.75,375.8125 C 121.60727,371.43072 123.77826,367.4205 123.1875,362.625 C 117.8957,359.0393 113.74652,355.75791 106.96875,351.875 z M 89.59375,354.46875 L 88.1875,365.9375 C 90.246164,367.5291 92.380171,369.02226 94.78125,370.3125 L 96.71875,359.71875 C 94.074858,357.90751 92.12422,356.25714 89.59375,354.46875 z M 97.75,360.6875 C 97.357869,364.77395 95.686432,367.75664 95.6875,371.21875 C 99.797528,375.57949 104.79182,378.17161 109.1875,381.625 C 110.13486,377.92615 111.71279,374.85899 111.375,370.75 C 106.415,367.05074 103.68697,364.26535 97.75,360.6875 z M 124.0625,363.75 C 123.85373,368.28996 121.45411,372.31404 122.3125,376.59375 C 127.69698,382.13949 133.79631,385.24337 139.59375,389.34375 C 140.34559,385.08096 140.3979,380.61013 141.84375,375.96875 C 135.91578,371.89146 130.91559,367.51891 124.0625,363.75 z M 88.1875,367.25 L 86.96875,378.375 C 91.42398,382.22123 94.751529,385.49879 100.21875,388.59375 C 101.32591,385.15632 102.21328,381.6113 102.5,377.96875 C 97.622915,374.48589 95.26893,371.26019 88.1875,367.25 z M 112.65625,371.46875 C 112.28553,375.32823 110.05706,378.13228 110.65625,381.8125 C 115.27355,386.75153 120.26565,389.74465 125.3125,393.46875 C 126.16029,389.86707 126.63802,386.49036 128.125,382.59375 C 122.95989,378.88415 118.66552,374.95249 112.65625,371.46875 z M 143.3125,377.28125 C 141.16741,381.3454 141.48518,385.76121 140.78125,390.03125 C 146.35208,395.72264 153.19744,399.2844 159.625,403.46875 C 160.26098,398.875 161.35374,394.28125 161.53125,389.6875 C 155.46227,385.54345 149.8138,380.34452 143.3125,377.28125 z M 103.875,379.1875 C 102.85021,384.36565 101.43522,385.96486 101.25,389.78125 C 105.81219,394.80186 109.49303,396.65225 114.4375,400.6875 C 115.74244,396.65943 117.2667,393.6407 117.09375,389.09375 C 111.88553,385.25429 110.61167,383.44012 103.875,379.1875 z M 86.71875,380.46875 L 85.65625,389.875 C 87.664119,391.55294 88.73055,392.88591 91.125,394.3125 L 93.53125,386.21875 C 91.47406,383.87464 89.578067,382.09208 86.71875,380.46875 z M 129.40625,383.78125 C 127.3139,387.15824 127.43001,390.92147 126.625,394.53125 C 131.40399,399.60175 138.70254,403.77303 144.3125,407.59375 C 145.90898,405.64795 146.58672,400.44636 147.71875,396.875 C 142.42954,393.1029 135.12768,386.64981 129.40625,383.78125 z M 94.59375,387.125 C 93.803337,390.9185 92.476887,392.00589 92.15625,395.25 C 96.054911,399.70857 100.27713,403.355 104.90625,406.46875 C 106.24207,403.08876 107.8156,401.06827 107.84375,397.1875 C 102.99354,393.2717 100.9988,390.75533 94.59375,387.125 z M 118.9375,390.65625 C 116.21494,394.45756 116.69562,397.47783 115.375,401.21875 C 120.49811,406.90319 125.21637,409.31996 130.90625,413.6875 C 133.47774,411.23615 132.55458,406.24921 134.5,402.03125 C 128.67128,397.6735 125.76365,394.80889 118.9375,390.65625 z M 163.1875,391.0625 C 161.59706,396.67236 161.26109,397.34688 161.1875,404.875 C 167.39556,410.26304 175.51603,415.16531 182.6875,420.3125 C 183.01289,414.05943 185.26957,411.22688 185.125,405.90625 C 185.125,405.90625 164.05501,391.06249 163.1875,391.0625 z M 85.625,391.5625 L 84.25,403.84375 C 88.493311,407.97558 86.857158,406.76447 92.1875,410.21875 L 95.21875,400.09375 C 91.299257,396.03404 92.529019,396.03808 85.625,391.5625 z M 148.8125,397.78125 C 147.15649,402.49717 146.65089,402.77696 146.28125,409.1875 C 151.64533,414.02497 158.57256,418.70439 164.8125,423.375 C 166.57162,421.18377 167.85979,416.11968 168.78125,412.0625 C 168.78125,412.06249 149.59241,397.81577 148.8125,397.78125 z M 108.875,398.125 C 108.1281,401.70777 105.96457,404.0598 106.25,407.5625 C 110.62613,412.60889 116.7174,416.89682 121.65625,420.84375 C 123.43642,419.03915 123.80622,414.75413 125.0625,410.90625 C 119.99846,406.96217 114.84401,401.93395 108.875,398.125 z M 96.0625,401.03125 C 95.032679,405.44439 93.75908,407.37334 93.28125,411.15625 C 97.544406,416.46345 102.83554,419.83403 107.5625,424.1875 C 109.1961,420.27113 110.26888,417.6279 110.4375,413.09375 C 105.42722,408.91686 102.59722,405.72423 96.0625,401.03125 z M 135.6875,403.5625 C 133.0635,407.17621 133.38398,410.75024 132.25,414.6875 C 137.55472,420.5253 145.18933,425.43416 151.53125,429.9375 C 153.19822,426.29149 153.61462,422.28965 155.0625,418 C 149.09233,413.56693 142.21084,407.02206 135.6875,403.5625 z M 84.125,405.25 L 83.21875,416 C 86.849126,420.70256 90.85433,423.30965 94.9375,427.21875 C 96.553402,423.94905 97.364675,420.98274 97.6875,417.125 C 93.047429,412.89682 89.819822,409.52427 84.125,405.25 z M 186.6875,407.03125 C 185.93599,411.65809 184.14413,416.04896 184.4375,421.09375 C 191.07208,428.18213 199.17028,432.30193 206.625,437.75 C 206.9503,438.63908 209.36515,423.11856 209.25,422.3125 C 201.64683,417.10351 194.51169,411.79821 186.6875,407.03125 z M 125.625,412.25 C 124.15736,419.67452 123.62114,418.00529 123.1875,422 C 127.72072,427.18425 134.44921,431.91149 139.96875,436 C 141.82139,434.32147 143.6869,429.56653 144.25,426.0625 C 139.06181,422.04863 131.34976,415.45643 125.625,412.25 z M 169.96875,412.84375 C 167.80535,416.66886 167.33512,421.55098 166.875,424.90625 C 172.554,431.20928 180.86451,436.42928 187,440.5 C 188.81812,435.02436 189.88353,428.22254 189.8125,427.53125 C 183.18695,422.7908 176.81086,417.21642 169.96875,412.84375 z M 111.5,414.625 C 110.00595,418.79295 109.55984,421.42358 108.5625,424.65625 C 113.34629,430.66223 118.95274,434.43125 124.5,438.90625 C 126.00224,435.08289 125.41884,432.1862 127.71875,428.125 C 122.11618,423.38995 118.13337,419.22468 111.5,414.625 z M 98.9375,418 C 97.905671,421.51192 96.256238,424.90295 96.28125,428.40625 C 100.35306,433.7263 105.61581,437.89099 110.34375,442.15625 C 111.83811,438.96032 111.24863,434.17772 113.46875,430.8125 C 108.61317,426.54147 104.72448,422.19891 98.9375,418 z M 82.8125,418.09375 L 81.90625,428.1875 C 85.853326,432.45714 91.357232,438.88204 96.375,442.5 C 98.389909,440.49373 98.695309,436.77898 99.6875,433.75 C 95.288718,429.80212 89.311613,422.78134 82.8125,418.09375 z M 155.96875,418.75 C 153.78191,423.86231 153.7142,423.48402 152.9375,430.53125 C 158.9377,436.14257 164.8123,440.52705 171.84375,446 C 175.28141,442.42586 174.45601,438.54937 175.75,434.125 C 176.177,433.55567 157.1351,418.48474 155.96875,418.75 z M 210.90625,423.78125 C 208.78166,428.84171 208.82804,433.9083 208.1875,438.96875 C 211.15105,441.41267 214.32413,443.64342 217.75,445.625 L 220,429.9375 C 216.96372,427.85293 213.94253,425.4554 210.90625,423.78125 z M 145.0625,427.8125 C 142.89007,432.08126 142.67035,431.58929 141.6875,437.5625 C 146.85508,442.58141 153.77149,448.99179 160.21875,453.5 C 161.76062,448.84317 162.8704,445.99244 164.21875,442.3125 C 164.21875,442.31249 147.43751,428.08903 145.0625,427.8125 z M 191.59375,428.84375 C 189.47965,433.07032 189.49863,436.71433 188.71875,441 C 189.21339,443.38136 212.67643,460.4013 215.09375,462.46875 L 217.40625,447.125 C 215.13012,445.44992 195.01357,430.84541 191.59375,428.84375 z M 129.125,429.65625 C 126.18016,433.06981 127.35896,436.34966 125.90625,440.1875 C 130.86327,446.3585 138.2051,451.95234 143.625,456 C 145.49312,452.6323 145.76992,448.84782 146.71875,444.625 C 140.9779,439.80528 135.50269,433.54579 129.125,429.65625 z M 81.75,430.59375 L 80.8125,439.32871 C 82.5973,441.19756 86.61557,445.81558 88.805552,447.47107 C 89.630865,444.82593 90.790822,442.49976 90.59375,439.5625 C 88.19568,436.39647 83.975985,432.73538 81.75,430.59375 z M 114.625,432.125 C 111.84982,434.91112 112.91914,440.22714 111.46875,443.4375 C 115.69002,448.90544 121.16046,452.11649 126.46875,456.5625 C 128.48173,455.02057 128.2409,449.27801 130.03125,446.15625 C 125.0546,441.80725 120.20903,435.70785 114.625,432.125 z M 100.78125,434.90625 C 99.637556,439.31535 98.37144,439.99079 97.78125,443.78125 C 101.70714,449.23317 108.25305,454.88787 112.78125,458.71875 C 114.4897,454.8255 115.43199,453.42918 115.75,448.875 C 111.06544,444.5392 106.91706,439.80238 100.78125,434.90625 z M 176.96875,435.28125 C 175.75179,439.5485 174.28663,443.1839 174.125,447.9375 C 180.41381,455.18069 185.91865,457.6882 193.21875,463.46875 C 193.90505,464.37413 198.54414,451.4687 196.78125,450.53125 C 189.30346,444.96128 184.71905,440.45708 176.96875,435.28125 z M 91.78125,440.78125 C 90.601374,444.49025 90.705332,445.54141 90.043973,448.74768 C 93.380856,453.57448 96.918344,456.2399 100.71875,460.28125 C 102.38797,457.03773 103.52536,456.15116 103.96875,452.28125 C 99.642662,447.90395 97.122099,445.23357 91.78125,440.78125 z M 165.375,443.15625 C 162.75403,446.54433 162.5124,451.92904 161.71875,455.03125 C 167.0799,461.45197 173.64086,466.0671 179.6875,470.4375 C 182.10029,465.47156 183.69763,458.40418 183.6875,457.75 C 177.88392,453.05466 172.13354,447.87362 165.375,443.15625 z M 148.0625,446.3125 C 145.44906,451.2466 146.82478,450.60701 145.5,457.5625 C 151.1821,463.55613 157.66398,468.9793 164.40625,474.90625 C 165.87326,470.73319 167.33437,467.8853 168.0625,462.9375 C 168.52167,462.47835 149.66891,445.76551 148.0625,446.3125 z M 131.03125,447.625 C 128.49642,451.7211 129.73445,452.50186 128.28125,458.375 C 133.16074,463.72217 140.69657,470.47772 146.53125,475.8125 C 148.75712,474.06977 150.00842,468.29305 151.65625,464.6875 C 151.65624,464.68748 131.85148,447.78344 131.03125,447.625 z M 116.90625,450.34375 C 115.82569,454.50791 114.04145,455.55962 114.09375,459.6875 C 118.49733,465.85617 123.53269,469.90075 129,474.6875 C 130.57869,470.88423 129.45702,468.64572 131.8125,464.625 C 127.18976,459.2212 123.14032,455.14877 116.90625,450.34375 z M 198.8125,452.15625 C 196.11737,456.70536 197.35183,460.07663 194.5625,464.5 C 197.43874,467.05857 208.97166,476.64524 212.375,478.8125 L 214.8125,463.6875 C 211.82671,461.45905 201.83644,454.00014 198.8125,452.15625 z M 105.09375,453.4375 C 103.97903,456.94041 102.4618,457.70733 102.36574,461.23033 C 106.10681,466.68997 110.64839,470.43372 115.05787,474.8507 C 116.60745,471.67805 116.89228,469.66456 118.65625,466.21875 C 114.12398,461.7925 110.52598,457.81654 105.09375,453.4375 z M 185.59375,460.4375 C 182.98709,464.20622 182.49622,467.11749 181.28125,471.0625 C 183.98304,474.55126 207.05914,494.79966 210.03125,496.78125 L 212.21875,480.34375 C 210.20069,478.06418 192.17007,463.79275 185.59375,460.4375 z M 169.625,464.21875 C 168.06283,468.37911 166.64986,471.90836 166.125,476.625 C 167.70386,478.68525 169.47014,480.60102 171.34375,482.40625 C 171.88371,482.9265 172.44393,483.43608 173,483.9375 C 173.0092,483.92622 173.02198,483.9175 173.03125,483.90625 C 173.73531,484.42137 175.22213,485.7176 177,487.3125 C 180.49763,490.09798 184.09193,492.61333 187.375,494.9375 C 187.57226,495.81312 190.61345,482.7022 190.625,481.9375 C 183.4358,475.88332 177.12149,469.89966 169.625,464.21875 z M 172.81597,484.61226 C 169.90709,488.1774 170.46838,492.23463 168.9375,496.0625 C 170.19467,498.60698 189.77592,517.14549 192.6875,518.84375 C 195.61674,515.50091 195.94164,511.11996 196.8125,505.71875 C 189.25295,498.13513 181.18549,491.14492 172.81597,484.61226 z M 171.09838,482.89699 C 164.86689,477.43502 159.303,470.75045 152.78125,465.59375 C 149.85661,468.78309 149.76175,474.59426 148.71875,477.625 C 153.68902,484.37966 161.55158,490.23736 167.375,495 C 170.20734,490.22705 171.0591,483.54831 171.09838,482.89699 z M 133.25,465.28125 C 130.29531,468.63328 131.59395,471.74332 130.0625,475.5625 C 134.62736,481.90179 143.49256,489.20787 149.21526,494.31596 C 150.06493,492.88302 151.10522,489.38429 152.40971,484.61225 C 149.00617,479.85564 139.26205,469.36532 133.25,465.28125 z M 119.71875,467.5625 C 116.94907,470.28829 116.39777,472.70052 116.17824,476.01158 C 121.34256,480.08281 127.43652,487.83099 132.2118,492.67015 C 134.20438,491.17456 133.85526,487.21504 135.6875,484.125 C 130.97989,479.12634 124.97656,471.31663 119.71875,467.5625 z M 154.02313,486.3715 C 151.3356,491.26134 152.14126,489.13765 150.62614,496.09489 C 156.01679,502.32743 163.98477,508.70281 169.5567,513.84374 C 171.69681,508.4223 172.58467,508.62036 173.456,503.66549 C 174.056,503.23692 155.44807,486.14901 154.02313,486.3715 z M 192.15625,483.40625 C 189.06811,487.74523 190.07898,491.92033 188.5625,496.5 C 192.25045,499.8498 204.01261,510.95412 207.3125,513.34375 L 209.4375,498.3125 C 206.39376,495.02323 195.96198,486.14216 192.15625,483.40625 z M 136.6875,484.75 C 134.10446,488.79942 135.13299,488.54999 133.53125,494.41551 C 138.04965,499.92437 144.842,506.57136 150.28125,512.09375 C 152.1178,510.09534 151.63074,505.42846 154.09375,501.75 C 154.37648,501.32778 138.41773,485.14167 136.6875,484.75 z M 155.28241,502.52662 C 152.35487,505.65376 153.01523,510.5749 151.90625,513.59375 C 157.81338,519.78412 167.08323,529.95942 172.53125,534.90625 C 175.42418,530.18438 176.28357,524.49755 176.34375,523.84375 C 171.54085,517.67555 161.56045,507.80332 155.28241,502.52662 z M 175.01618,505.07868 C 173.36818,509.21915 171.50663,510.61344 171.02313,515.09605 C 176.40028,522.93311 185.71966,530.54191 192.24302,537.01733 C 194.366,531.76884 196.78087,525.85763 196.81824,525.08909 C 191.004,518.05198 182.05319,510.98729 175.01618,505.07868 z M 198.09375,507.3125 C 196.67499,511.41084 196.28148,514.79526 193.8125,519.59375 C 195.72908,521.40067 201.13688,528.33343 204.59375,530.4375 L 207.1875,515.25 C 204.81516,513.12888 201.99173,509.1888 198.09375,507.3125 z M 198.10181,526.94557 C 194.97729,531.22417 195.28266,534.15657 193.66431,538.71987 C 196.20441,541.55166 199.62099,544.03893 202.71875,546.53125 L 204.4375,532.4375 C 201.75483,529.92454 200.863,529.07845 198.10181,526.94557 z M 178.25,526.40625 C 175.29568,529.91459 175.86153,532.24341 174.25,536.0625 C 175.09382,537.56519 198.036,561.24666 200.09375,563.625 L 202.0625,548.75 C 200.14163,546.74835 182.72194,528.63917 178.25,526.40625 z "
         style="fill:#ffffff;fill-rule:evenodd;stroke:none;stroke-width:1px;stroke-linecap:butt;stroke-linejoin:miter;stroke-opacity:1"
         id="use3270" />
    </g>
    <use
       transform="matrix(-1,0,0,1,600,0)"
       id="use3300"
       x="0"
       y="0"
       width="600"
       height="660"
       xlink:href="#g3287" />
    <g
       id="g3343">
      <path
         d="M 260.82648,540.694 C 264.11294,539.97619 266.87889,540.59436 269.9051,540.60725 C 270.76338,548.56424 270.50896,555.98877 269.99185,563.71653 C 266.90781,564.2598 263.82377,564.32907 260.73973,563.71653 C 260.74653,555.89777 259.55566,548.51276 260.82648,540.694 z "
         style="fill:#ffffff;fill-opacity:1;fill-rule:evenodd;stroke:none;stroke-width:1;stroke-linecap:round;stroke-linejoin:round;stroke-miterlimit:4;stroke-dashoffset:0;stroke-opacity:1"
         id="rect3330" />
      <use
         transform="translate(0,-25.24448)"
         id="use3333"
         x="0"
         y="0"
         width="600"
         height="660"
         xlink:href="#rect3330" />
      <use
         transform="translate(8.6750789e-2,-50.141956)"
         id="use3335"
         x="0"
         y="0"
         width="600"
         height="660"
         xlink:href="#rect3330" />
      <path
         d="M 274.05802,465.51942 C 276.64073,467.64236 279.57443,469.01431 280.32727,471.559 C 275.95221,475.06393 271.76583,478.52395 269.894,489.09658 C 266.97979,487.95037 264.39971,489.52286 261.39473,488.345 C 263.31253,475.956 268.89325,469.61295 274.05802,465.51942 z "
         style="fill:#ffffff;fill-opacity:1;fill-rule:evenodd;stroke:none;stroke-width:1;stroke-linecap:round;stroke-linejoin:round;stroke-miterlimit:4;stroke-dashoffset:0;stroke-opacity:1"
         id="use3337" />
      <use
         transform="matrix(0.7522937,0.658828,-0.658828,0.7522937,400.63268,-75.270485)"
         id="use3341"
         x="0"
         y="0"
         width="600"
         height="660"
         xlink:href="#use3337" />
    </g>
    <use
       transform="matrix(-1,0,0,1,600.13949,0)"
       id="use3350"
       x="0"
       y="0"
       width="600"
       height="660"
       xlink:href="#g3343" />
    <path
       d="M 288.01262,451.1041 L 293.56467,466.37224 C 297.99833,464.90849 302.08285,465.19039 306.05679,466.02524 L 310.74132,451.19085 C 303.75826,449.50106 296.1522,449.55564 288.01262,451.1041 z "
       style="fill:#ffffff;fill-rule:evenodd;stroke:#000000;stroke-width:2;stroke-linecap:round;stroke-linejoin:round;stroke-miterlimit:4;stroke-dasharray:none;stroke-opacity:1"
       id="path3352" />
  </g>
  <g
     id="layer2">
    <path
       d="M 300.00001,658.5 C 300.00001,658.5 598.50001,546.17969 598.50001,260.72817 C 598.50001,-24.723334 598.50001,2.1764865 598.50001,2.1764865 L 1.5,2.1764865 L 1.5,260.72817 C 1.5,546.17969 300.00001,658.5 300.00001,658.5 z "
       style="opacity:1;fill:url(#radialGradient3163);fill-opacity:1;fill-rule:evenodd;stroke:none;stroke-width:1px;stroke-linecap:butt;stroke-linejoin:miter;stroke-opacity:1"
       id="path2875" />
  </g>
  <g
     id="layer1">
    <path
       d="M 299.99999,658.50028 C 299.99999,658.50028 1.5,546.17992 1.5,260.72828 C 1.5,-24.723336 1.5,2.1764957 1.5,2.1764957 L 598.49999,2.1764957 L 598.49999,260.72828 C 598.49999,546.17992 299.99999,658.50028 299.99999,658.50028 z "
       style="opacity:1;fill:none;fill-opacity:1;fill-rule:evenodd;stroke:#000000;stroke-width:3.00000048;stroke-linecap:butt;stroke-linejoin:miter;stroke-miterlimit:4;stroke-dasharray:none;stroke-opacity:1"
       id="path1411" />
  </g>
</svg>
