<?xml version="1.0" encoding="UTF-8" standalone="no"?>
<!-- Created with Inkscape (http://www.inkscape.org/) -->
<!-- Created by Ludovic Baillet http://www.baillet.org - july 2007-->
<svg
   xmlns:svg="http://www.w3.org/2000/svg"
   xmlns="http://www.w3.org/2000/svg"
   xmlns:xlink="http://www.w3.org/1999/xlink"
   version="1.0"
   width="600"
   height="660"
   id="svg2">
  <desc
     id="desc4">Blason de la commune de Drucat (Somme-Picardie)</desc>
  <defs
     id="defs6">
    <linearGradient
       id="linearGradient2893">
      <stop
         style="stop-color:#ffffff;stop-opacity:0.3137255"
         offset="0"
         id="stop2895" />
      <stop
         style="stop-color:#ffffff;stop-opacity:0.25098041"
         offset="0.19"
         id="stop2897" />
      <stop
         style="stop-color:#6b6b6b;stop-opacity:0.1254902"
         offset="0.60000002"
         id="stop2901" />
      <stop
         style="stop-color:#000000;stop-opacity:0.1254902"
         offset="1"
         id="stop2899" />
    </linearGradient>
    <linearGradient
       id="linearGradient2885">
      <stop
         style="stop-color:#ffffff;stop-opacity:1"
         offset="0"
         id="stop2887" />
      <stop
         style="stop-color:#ffffff;stop-opacity:1"
         offset="0.22857143"
         id="stop2891" />
      <stop
         style="stop-color:#000000;stop-opacity:1"
         offset="1"
         id="stop2889" />
    </linearGradient>
    <linearGradient
       id="linearGradient2955">
      <stop
         style="stop-color:#fd0000;stop-opacity:1"
         offset="0"
         id="stop2867" />
      <stop
         style="stop-color:#e77275;stop-opacity:0.65882355"
         offset="0.5"
         id="stop2873" />
      <stop
         style="stop-color:#000000;stop-opacity:0.32291666"
         offset="1"
         id="stop2959" />
    </linearGradient>
    <radialGradient
       cx="225.52438"
       cy="218.90099"
       r="300"
       fx="225.52438"
       fy="218.90099"
       id="radialGradient2961"
       xlink:href="#linearGradient2955"
       gradientUnits="userSpaceOnUse"
       gradientTransform="matrix(-4.167939e-4,2.182867,-1.884232,-3.599562e-4,615.5972,-289.1214)" />
    <polygon
       points="0,-1 0.58778525,0.80901699 -0.95105652,-0.30901699 0.95105652,-0.30901699 -0.58778525,0.80901699 0,-1 "
       transform="scale(53,53)"
       id="star" />
    <clipPath
       id="clip">
      <path
         d="M 0,-200 L 0,600 L 300,600 L 300,-200 L 0,-200 z "
         id="path10" />
    </clipPath>
    <radialGradient
       cx="225.52438"
       cy="218.90099"
       r="300"
       fx="225.52438"
       fy="218.90099"
       id="radialGradient1911"
       xlink:href="#linearGradient2955"
       gradientUnits="userSpaceOnUse"
       gradientTransform="matrix(-4.167939e-4,2.182867,-1.884232,-3.599562e-4,615.5972,-289.1214)" />
    <radialGradient
       cx="225.52438"
       cy="218.90099"
       r="300"
       fx="225.52438"
       fy="218.90099"
       id="radialGradient2865"
       xlink:href="#linearGradient2955"
       gradientUnits="userSpaceOnUse"
       gradientTransform="matrix(0,1.748721,-1.593162,-1.049767e-7,551.7876,-191.2898)" />
    <radialGradient
       cx="225.52438"
       cy="218.90099"
       r="300"
       fx="225.52438"
       fy="218.90099"
       id="radialGradient2871"
       xlink:href="#linearGradient2955"
       gradientUnits="userSpaceOnUse"
       gradientTransform="matrix(0,1.386237,-1.323286,-5.741131e-8,-158.0823,-109.5408)" />
    <radialGradient
       cx="221.44487"
       cy="226.33101"
       r="300"
       fx="221.44487"
       fy="226.33101"
       id="radialGradient3163"
       xlink:href="#linearGradient2893"
       gradientUnits="userSpaceOnUse"
       gradientTransform="matrix(1.353218,0,0,1.348928,-77.62935,-85.74693)" />
    <radialGradient
       cx="221.44487"
       cy="226.33101"
       r="300"
       fx="221.44487"
       fy="226.33101"
       id="radialGradient3318"
       xlink:href="#linearGradient2893"
       gradientUnits="userSpaceOnUse"
       gradientTransform="matrix(1.353218,0,0,1.348928,-77.62935,-85.74693)" />
    <radialGradient
       cx="225.52438"
       cy="218.90099"
       r="300"
       fx="225.52438"
       fy="218.90099"
       id="radialGradient3316"
       xlink:href="#linearGradient2955"
       gradientUnits="userSpaceOnUse"
       gradientTransform="matrix(0,1.386237,-1.323286,-5.741131e-8,-158.0823,-109.5408)" />
    <radialGradient
       cx="225.52438"
       cy="218.90099"
       r="300"
       fx="225.52438"
       fy="218.90099"
       id="radialGradient3314"
       xlink:href="#linearGradient2955"
       gradientUnits="userSpaceOnUse"
       gradientTransform="matrix(0,1.748721,-1.593162,-1.049767e-7,551.7876,-191.2898)" />
    <radialGradient
       cx="225.52438"
       cy="218.90099"
       r="300"
       fx="225.52438"
       fy="218.90099"
       id="radialGradient3312"
       xlink:href="#linearGradient2955"
       gradientUnits="userSpaceOnUse"
       gradientTransform="matrix(-4.167939e-4,2.182867,-1.884232,-3.599562e-4,615.5972,-289.1214)" />
    <clipPath
       id="clipPath3308">
      <path
         d="M 0,-200 L 0,600 L 300,600 L 300,-200 L 0,-200 z "
         id="path3310" />
    </clipPath>
    <polygon
       points="0,-1 0.58778525,0.80901699 -0.95105652,-0.30901699 0.95105652,-0.30901699 -0.58778525,0.80901699 0,-1 "
       transform="scale(53,53)"
       id="polygon3306" />
    <radialGradient
       cx="225.52438"
       cy="218.90099"
       r="300"
       fx="225.52438"
       fy="218.90099"
       id="radialGradient3304"
       xlink:href="#linearGradient2955"
       gradientUnits="userSpaceOnUse"
       gradientTransform="matrix(-4.167939e-4,2.182867,-1.884232,-3.599562e-4,615.5972,-289.1214)" />
    <linearGradient
       id="linearGradient3296">
      <stop
         style="stop-color:#fd0000;stop-opacity:1"
         offset="0"
         id="stop3298" />
      <stop
         style="stop-color:#e77275;stop-opacity:0.65882355"
         offset="0.5"
         id="stop3300" />
      <stop
         style="stop-color:#000000;stop-opacity:0.32291666"
         offset="1"
         id="stop3302" />
    </linearGradient>
    <linearGradient
       id="linearGradient3288">
      <stop
         style="stop-color:#ffffff;stop-opacity:1"
         offset="0"
         id="stop3290" />
      <stop
         style="stop-color:#ffffff;stop-opacity:1"
         offset="0.22857143"
         id="stop3292" />
      <stop
         style="stop-color:#000000;stop-opacity:1"
         offset="1"
         id="stop3294" />
    </linearGradient>
    <linearGradient
       id="linearGradient3278">
      <stop
         style="stop-color:#ffffff;stop-opacity:0.3137255"
         offset="0"
         id="stop3280" />
      <stop
         style="stop-color:#ffffff;stop-opacity:0.25098041"
         offset="0.19"
         id="stop3282" />
      <stop
         style="stop-color:#6b6b6b;stop-opacity:0.1254902"
         offset="0.60000002"
         id="stop3284" />
      <stop
         style="stop-color:#000000;stop-opacity:0.1254902"
         offset="1"
         id="stop3286" />
    </linearGradient>
    <radialGradient
       cx="221.44487"
       cy="226.33101"
       r="300"
       fx="221.44487"
       fy="226.33101"
       id="radialGradient2627"
       xlink:href="#linearGradient2893"
       gradientUnits="userSpaceOnUse"
       gradientTransform="matrix(1.353218,0,0,1.348928,-77.62935,-85.74693)" />
  </defs>
  <path
     d="M 300,658.5 C 300,658.5 598.50001,546.17969 598.50001,260.72817 C 598.50001,-24.723354 598.50001,2.1764765 598.50001,2.1764765 L 1.5,2.1764765 L 1.5,260.72817 C 1.5,546.17969 300,658.5 300,658.5 z "
     style="opacity:0.98999999;fill:#2b5df2;fill-opacity:1;fill-rule:evenodd;stroke:#000000;stroke-width:3;stroke-linecap:butt;stroke-linejoin:miter;stroke-miterlimit:4;stroke-dasharray:none;stroke-opacity:1"
     id="path2855" />
  <path
     d="M 1.5,2.1875 L 1.5,39.28125 L 248.71875,286.5 L 300,235.21875 L 66.96875,2.1875 L 1.5,2.1875 z M 351.28125,286.5 L 300,337.78125 L 490,527.78125 C 506.07884,510.57533 521.45866,491.54114 535.34375,470.5625 L 351.28125,286.5 z "
     style="fill:#ffffff;fill-opacity:1;stroke:#313131;stroke-width:3;stroke-miterlimit:4;stroke-dasharray:none;stroke-opacity:0.94117647;display:inline"
     id="path2263" />
  <path
     d="M 533.03125,2.1875 L 441.40625,93.8125 L 492.6875,145.09375 L 598.5,39.28125 C 598.5,39.38674 598.5,2.1875 598.5,2.1875 L 533.03125,2.1875 z M 390.15625,145.0625 L 158.5625,376.65625 L 209.84375,427.9375 L 441.4375,196.34375 L 390.15625,145.0625 z M 107.3125,427.90625 L 64.65625,470.5625 C 78.541335,491.54114 93.921163,510.57533 110,527.78125 L 158.59375,479.1875 L 107.3125,427.90625 z "
     style="fill:#ffffff;fill-opacity:1;stroke:#313131;stroke-width:3;stroke-miterlimit:4;stroke-dasharray:none;stroke-opacity:1;display:inline"
     id="rect2253" />
  <path
     d="M 351.25,3.65625 L 300,54.90625 L 531.59375,286.5 L 582.84375,235.25 L 351.25,3.65625 z M 592.71875,327.875 L 582.84375,337.75 L 589.4375,344.34375 C 590.64386,338.92853 591.74013,333.4473 592.71875,327.875 z "
     style="fill:#ffffff;fill-opacity:1;stroke:#313131;stroke-width:3;stroke-miterlimit:4;stroke-dasharray:none;stroke-opacity:1;display:inline"
     id="rect2203" />
  <path
     d="M 1.5,219.59375 L 1.5,250.90625 L 17.15625,235.25 L 1.5,219.59375 z M 68.40625,286.5 L 17.15625,337.75 L 248.75,569.34375 L 300,518.09375 L 68.40625,286.5 z M 351.25,569.34375 L 300,620.59375 L 326.28125,646.875 C 342.82995,638.88218 365.84481,626.65748 391.65625,609.75 L 351.25,569.34375 z "
     style="fill:#ffffff;fill-opacity:1;stroke:#313131;stroke-width:3;stroke-miterlimit:4;stroke-dasharray:none;stroke-opacity:1;display:inline"
     id="rect2201" />
  <path
     d="M 250.21875,2.1875 L 158.59375,93.8125 L 209.84375,145.0625 L 352.71875,2.1875 L 250.21875,2.1875 z M 107.3125,145.09375 L 1.5,250.90625 L 1.5,260.71875 C 1.5,290.4495 4.7608041,318.30053 10.5625,344.34375 L 158.5625,196.34375 L 107.3125,145.09375 z "
     style="fill:#ffffff;fill-opacity:1;stroke:#313131;stroke-width:3;stroke-miterlimit:4;stroke-dasharray:none;stroke-opacity:1;display:inline"
     id="rect2197" />
  <path
     d="M 598.5,219.59375 L 441.4375,376.65625 L 492.6875,427.90625 L 592.71875,327.875 C 596.44656,306.64864 598.5,284.26752 598.5,260.71875 C 598.5,215.3115 598.5,250.55918 598.5,219.59375 z M 390.15625,427.9375 L 208.34375,609.75 C 234.15519,626.65748 257.17005,638.88218 273.71875,646.875 L 441.40625,479.1875 L 390.15625,427.9375 z "
     style="fill:#ffffff;fill-opacity:1;stroke:#313131;stroke-width:3;stroke-miterlimit:4;stroke-dasharray:none;stroke-opacity:1;display:inline"
     id="rect2195" />
  <path
     d="M 300,658.5 C 300,658.5 598.5,546.17969 598.5,260.72817 C 598.5,-24.723334 598.5,2.1764865 598.5,2.1764865 L 1.5,2.1764865 L 1.5,260.72817 C 1.5,546.17969 300,658.5 300,658.5 z "
     style="fill:url(#radialGradient2627);fill-opacity:1;fill-rule:evenodd;stroke:none;stroke-width:1px;stroke-linecap:butt;stroke-linejoin:miter;stroke-opacity:1"
     id="path2875" />
  <g
     id="layer1">
    <path
       d="M 299.99999,658.50028 C 299.99999,658.50028 1.5,546.17992 1.5,260.72828 C 1.5,-24.723336 1.5,2.1764957 1.5,2.1764957 L 598.49999,2.1764957 L 598.49999,260.72828 C 598.49999,546.17992 299.99999,658.50028 299.99999,658.50028 z "
       style="opacity:1;fill:none;fill-opacity:1;fill-rule:evenodd;stroke:#000000;stroke-width:3.00000048;stroke-linecap:butt;stroke-linejoin:miter;stroke-miterlimit:4;stroke-dasharray:none;stroke-opacity:1"
       id="path1411" />
  </g>
</svg>
