<?xml version="1.0" encoding="UTF-8" standalone="no"?>
<svg
   xmlns:dc="http://purl.org/dc/elements/1.1/"
   xmlns:cc="http://creativecommons.org/ns#"
   xmlns:rdf="http://www.w3.org/1999/02/22-rdf-syntax-ns#"
   xmlns:svg="http://www.w3.org/2000/svg"
   xmlns="http://www.w3.org/2000/svg"
   xmlns:xlink="http://www.w3.org/1999/xlink"
   xmlns:sodipodi="http://sodipodi.sourceforge.net/DTD/sodipodi-0.dtd"
   xmlns:inkscape="http://www.inkscape.org/namespaces/inkscape"
   height="660"
   width="600"
   version="1.0"
   id="svg2"
   sodipodi:version="0.32"
   inkscape:version="0.46"
   sodipodi:docname="Brazey-en-Plaine (21).svg"
   sodipodi:docbase="C:\Users\Jany\Documents\aaaOuiqui\Blasons\Blasons autres svg"
   inkscape:output_extension="org.inkscape.output.svg.inkscape">
  <metadata
     id="metadata49">
    <rdf:RDF>
      <cc:Work
         rdf:about="">
        <dc:format>image/svg+xml</dc:format>
        <dc:type
           rdf:resource="http://purl.org/dc/dcmitype/StillImage" />
        <dc:title>Gabarit d'un blason en pointe pour le projet Blasons de Wikipédia</dc:title>
        <dc:date>03-AUG-2006</dc:date>
        <dc:creator>
          <cc:Agent>
            <dc:title>Jérôme BLUM (wagner51)</dc:title>
          </cc:Agent>
        </dc:creator>
        <cc:license
           rdf:resource="http://web.resource.org/cc/PublicDomain" />
        <dc:language>fr</dc:language>
        <dc:subject>
          <rdf:Bag>
            <rdf:li>gabarit modèle blason projet wikipédia</rdf:li>
          </rdf:Bag>
        </dc:subject>
      </cc:Work>
      <cc:License
         rdf:about="http://web.resource.org/cc/PublicDomain">
        <cc:permits
           rdf:resource="http://web.resource.org/cc/Reproduction" />
        <cc:permits
           rdf:resource="http://web.resource.org/cc/Distribution" />
        <cc:permits
           rdf:resource="http://web.resource.org/cc/DerivativeWorks" />
      </cc:License>
    </rdf:RDF>
  </metadata>
  <sodipodi:namedview
     inkscape:window-height="712"
     inkscape:window-width="1024"
     inkscape:pageshadow="2"
     inkscape:pageopacity="0.0"
     guidetolerance="10.0"
     gridtolerance="10.0"
     objecttolerance="10.0"
     borderopacity="1.0"
     bordercolor="#666666"
     pagecolor="#ffffff"
     id="base"
     showgrid="false"
     height="660px"
     inkscape:zoom="0.8"
     inkscape:cx="284.29124"
     inkscape:cy="325.75581"
     inkscape:window-x="-4"
     inkscape:window-y="-4"
     inkscape:current-layer="layer2"
     showguides="true"
     inkscape:guide-bbox="true" />
  <desc
     id="desc4">Flag of Canton of Valais (Wallis)</desc>
  <defs
     id="defs6">
    <inkscape:perspective
       sodipodi:type="inkscape:persp3d"
       inkscape:vp_x="0 : 330 : 1"
       inkscape:vp_y="0 : 1000 : 0"
       inkscape:vp_z="600 : 330 : 1"
       inkscape:persp3d-origin="300 : 220 : 1"
       id="perspective209" />
    <linearGradient
       id="linearGradient2893">
      <stop
         style="stop-color:white;stop-opacity:0.3137255;"
         offset="0"
         id="stop2895" />
      <stop
         id="stop2897"
         offset="0.19"
         style="stop-color:white;stop-opacity:0.25098041;" />
      <stop
         style="stop-color:#6b6b6b;stop-opacity:0.1254902;"
         offset="0.60000002"
         id="stop2901" />
      <stop
         style="stop-color:black;stop-opacity:0.1254902;"
         offset="1"
         id="stop2899" />
    </linearGradient>
    <radialGradient
       inkscape:collect="always"
       xlink:href="#linearGradient2893"
       id="radialGradient11919"
       gradientUnits="userSpaceOnUse"
       gradientTransform="matrix(1.551284,0,0,1.350335,-227.8943,-51.2635)"
       cx="285.18573"
       cy="200.44757"
       fx="285.18573"
       fy="200.44757"
       r="300" />
    <g
       id="s">
      <g
         id="c">
        <path
           transform="matrix(0.951057,0.309017,-0.309017,0.951057,0,-1)"
           d="M 0,0 L 0,1 L 0.5,1 L 0,0 z "
           id="t" />
        <use
           height="540"
           width="810"
           y="0"
           x="0"
           id="use2144"
           transform="scale(-1,1)"
           xlink:href="#t" />
      </g>
      <g
         id="a">
        <use
           height="540"
           width="810"
           y="0"
           x="0"
           id="use2147"
           transform="matrix(0.309017,0.951057,-0.951057,0.309017,0,0)"
           xlink:href="#c" />
        <use
           height="540"
           width="810"
           y="0"
           x="0"
           id="use2149"
           transform="matrix(-0.809017,0.587785,-0.587785,-0.809017,0,0)"
           xlink:href="#c" />
      </g>
      <use
         height="540"
         width="810"
         y="0"
         x="0"
         id="use2151"
         transform="scale(-1,1)"
         xlink:href="#a" />
    </g>
  </defs>
  <g
     inkscape:groupmode="layer"
     id="layer1"
     inkscape:label="Fond écu"
     style="opacity:1;display:inline">
    <path
       style="fill:#e20909;fill-opacity:1;fill-rule:nonzero;stroke:none;stroke-width:5;stroke-linecap:round;stroke-linejoin:round;stroke-miterlimit:4;stroke-dashoffset:0;stroke-opacity:1"
       d="M 299.84608,658.49936 C 299.84608,619.9953 331.04925,588.7457 369.49604,588.7457 C 407.94284,588.7457 490.24918,588.7457 528.69596,588.7457 C 567.14275,588.7457 598.34604,557.49612 598.34604,518.99215 L 598.34604,1.4996597 L 1.3461549,1.4996796 L 1.346145,518.99215 C 1.346145,557.49612 32.549343,588.7457 70.996139,588.7457 C 109.44294,588.7457 191.74929,588.7457 230.19609,588.7457 C 268.64289,588.7457 299.84608,619.9953 299.84608,658.49936 z"
       id="path2014" />
  </g>
  <g
     inkscape:groupmode="layer"
     id="layer2"
     inkscape:label="Meubles"
     style="opacity:1;display:inline">
    <path
       style="opacity:1;fill:#fcef3c;fill-opacity:1;fill-rule:nonzero;stroke:none;stroke-width:5;stroke-linecap:round;stroke-linejoin:round;stroke-miterlimit:4;stroke-dashoffset:0;stroke-opacity:1;display:inline"
       d="M 1.34609,1.5 L 1.34609,519 C 1.34609,538.14895 9.0769249,555.48477 21.56484,568.09375 L 21.68984,568.03125 L 300.18984,294.5625 L 2.28359,1.75 C 2.2083324,1.6666881 2.1401355,1.5829376 2.06484,1.5 L 1.34609,1.5 z M 300.18984,294.5625 L 578.31484,567.90625 C 590.69374,555.31304 598.34609,538.05401 598.34609,519 L 598.34609,1.9375 L 598.06484,2.0625 L 300.18984,294.5625 z"
       id="path34871" />
    <g
       id="g3366"
       transform="translate(3.8911783,0)">
      <g
         transform="matrix(0.9856531,0,0,0.9856531,551.7224,56.625856)"
         style="stroke:#000000;stroke-width:3;display:inline"
         id="g3325">
        <g
           style="stroke:#000000;stroke-width:4.28896141;stroke-opacity:1"
           transform="matrix(0.69947,0,0,0.69947,-1042.281,-59.87266)"
           id="g2438">
          <g
             id="g2440"
             inkscape:label="Fond écu"
             style="stroke:#000000;stroke-width:4.28896141;stroke-opacity:1;display:inline" />
          <g
             id="g2442"
             inkscape:label="Meubles"
             style="opacity:1;stroke:#000000;stroke-width:4.28896141;stroke-opacity:1;display:inline">
            <path
               inkscape:transform-center-y="-8.8524483e-05"
               sodipodi:type="star"
               style="opacity:1;fill:#fcef3c;fill-opacity:1;stroke:#000000;stroke-width:7.28138113;stroke-miterlimit:4;stroke-dasharray:none;stroke-opacity:1"
               id="path5807"
               sodipodi:sides="8"
               sodipodi:cx="191.05263"
               sodipodi:cy="183.33334"
               sodipodi:r1="262.371"
               sodipodi:r2="74.03521"
               sodipodi:arg1="0.45706876"
               sodipodi:arg2="0.85803455"
               inkscape:flatsided="false"
               inkscape:rounded="0"
               inkscape:randomized="0"
               d="M 426.49124,299.12282 L 239.46615,239.34533 L 275.65734,431.68911 L 185.6797,257.17333 L 75.263146,418.77195 L 135.04064,231.74687 L -57.303137,267.93805 L 117.21264,177.96042 L -44.385982,67.543862 L 142.6391,127.32136 L 106.44792,-65.022421 L 196.42555,109.49335 L 306.84211,-52.105266 L 247.06461,134.91982 L 439.40839,98.728633 L 264.89262,188.70627 L 426.49124,299.12282 z"
               transform="matrix(0.587888,-3.668242e-2,3.668242e-2,0.587888,1000.077,75.71224)"
               inkscape:transform-center-x="-13.64062" />
          </g>
          <g
             id="g2451"
             inkscape:label="Reflet final"
             style="stroke:#000000;stroke-width:4.28896141;stroke-opacity:1;display:inline" />
          <g
             id="g2453"
             inkscape:label="Contour final"
             style="stroke:#000000;stroke-width:4.28896141;stroke-opacity:1;display:inline" />
        </g>
      </g>
      <g
         id="layer102"
         style="stroke:#000000;stroke-width:2.24094486;display:inline"
         transform="matrix(1.1302839,0,0,1.1302839,-43.130238,366.26002)">
        <g
           transform="matrix(0.999999,0,0,1,200.185,22.60166)"
           id="g3865"
           style="fill:#fcef3c;fill-opacity:1;stroke:#000000;stroke-width:2.24094605;stroke-linejoin:round;stroke-miterlimit:4;stroke-dasharray:none;stroke-opacity:1">
          <g
             transform="matrix(0.202004,0,0,0.202004,3.621935,3.232137)"
             id="g10890"
             style="fill:#fcef3c;fill-opacity:1;stroke:#000000;stroke-width:11.09357262;stroke-linejoin:round;stroke-miterlimit:4;stroke-dasharray:none;stroke-opacity:1">
            <path
               d="M 958.88576,534.1952 C 918.34503,512.64668 854.11258,466.46773 815.85202,413.6085 L 640.73197,418.82365 L 622.9093,473.19325 L 784.13742,555.90986 C 863.50331,539.78935 912.55641,525.49956 958.88576,534.1952 z"
               id="path9102"
               style="fill:#fcef3c;fill-opacity:1;fill-rule:evenodd;stroke:#000000;stroke-width:11.09357262;stroke-linecap:butt;stroke-linejoin:round;stroke-miterlimit:4;stroke-dasharray:none;stroke-opacity:1" />
            <path
               d="M 477.11695,861.46416 C 485.73574,816.36864 510.89231,741.36564 550.0993,689.20452 L 493.41445,523.43041 L 436.20651,522.45421 L 404.77784,700.91647 C 443.61161,771.98513 471.74678,814.63272 477.11695,861.46416 z"
               id="path9100"
               style="fill:#fcef3c;fill-opacity:1;fill-rule:evenodd;stroke:#000000;stroke-width:11.09357262;stroke-linecap:butt;stroke-linejoin:round;stroke-miterlimit:4;stroke-dasharray:none;stroke-opacity:1" />
            <path
               d="M -6.4972249,543.54344 C 39.250725,539.66852 118.26022,543.64375 179.06884,567.314 L 323.38601,467.9823 L 308.88245,412.63478 L 128.56162,430.54955 C 70.614834,487.12681 37.145806,525.7303 -6.4972249,543.54344 z"
               id="path9098"
               style="fill:#fcef3c;fill-opacity:1;fill-rule:evenodd;stroke:#000000;stroke-width:11.09357262;stroke-linecap:butt;stroke-linejoin:round;stroke-miterlimit:4;stroke-dasharray:none;stroke-opacity:1" />
            <path
               d="M 783.0214,-3.3986519 C 745.20742,22.639648 674.61359,58.344157 610.06725,67.922193 L 533.94945,225.72052 L 573.97683,266.60463 L 721.71593,161.67754 C 744.00586,83.818848 753.94344,33.702483 783.0214,-3.3986519 z"
               id="path9096"
               style="fill:#fcef3c;fill-opacity:1;fill-rule:evenodd;stroke:#000000;stroke-width:11.09357262;stroke-linecap:butt;stroke-linejoin:round;stroke-miterlimit:4;stroke-dasharray:none;stroke-opacity:1" />
            <path
               d="M 173.93747,1.1991465 C 194.80056,42.096837 220.95473,116.75781 221.99914,182.00257 L 368.4728,278.12591 L 414.24582,243.79615 L 329.56574,83.590581 C 255.29577,51.298365 206.91199,34.884499 173.93747,1.1991465 z"
               id="path8209"
               style="fill:#fcef3c;fill-opacity:1;fill-rule:evenodd;stroke:#000000;stroke-width:11.09357262;stroke-linecap:butt;stroke-linejoin:round;stroke-miterlimit:4;stroke-dasharray:none;stroke-opacity:1" />
          </g>
          <g
             transform="matrix(0.202004,0,0,0.202004,3.621935,3.232137)"
             id="g14500"
             style="fill:#fcef3c;fill-opacity:1;stroke:#000000;stroke-width:11.09357262;stroke-linejoin:round;stroke-miterlimit:4;stroke-dasharray:none;stroke-opacity:1">
            <path
               d="M 375.28848,14.554492 C 342.60293,14.256859 315.9355,29.037092 300.10098,70.866992 C 293.11244,107.63816 290.15926,142.4047 306.85098,167.33574 C 367.46669,264.19954 399.45476,299.40382 439.19473,351.30449 C 449.86602,295.00523 462.19673,248.64352 466.69473,155.30449 C 471.19272,248.64371 483.52343,295.00518 494.19473,351.30449 C 539.16262,290.40302 584.87863,229.87561 626.56973,167.33574 C 643.26142,142.4047 640.27702,107.63816 633.28848,70.866992 C 613.79981,19.384038 577.90903,8.8795886 534.56973,17.023242 C 510.874,23.402867 493.71837,33.478106 467.28848,32.741992 L 467.23513,32.745727 L 466.14138,32.745727 L 466.13223,32.741992 C 439.70234,33.478106 422.5155,23.402867 398.81973,17.023242 C 390.69361,15.496307 382.8313,14.623176 375.28848,14.554492 z"
               id="path2843"
               style="fill:#fcef3c;fill-opacity:1;fill-rule:evenodd;stroke:#000000;stroke-width:11.09357262;stroke-linecap:butt;stroke-linejoin:round;stroke-miterlimit:4;stroke-dasharray:none;stroke-opacity:1" />
            <path
               d="M 466.69473,155.30449 C 462.19673,248.64352 449.86602,295.00523 439.19473,351.30449 C 439.03915,351.1013 438.88132,350.91342 438.72598,350.71074 L 438.78848,351.89824 L 493.75723,351.89824 L 493.88223,349.67949 C 483.28343,294.11178 471.1491,247.73847 466.69473,155.30449 z"
               id="path7288"
               style="fill:#fcef3c;fill-opacity:1;fill-rule:evenodd;stroke:#000000;stroke-width:11.09357262;stroke-linecap:butt;stroke-linejoin:round;stroke-miterlimit:4;stroke-dasharray:none;stroke-opacity:1" />
            <path
               d="M 82.133441,367.21177 C 72.200069,398.3528 78.449194,428.19499 113.74044,455.67231 C 146.8098,473.20451 179.15514,486.2894 207.90261,477.70138 C 318.34376,448.38194 361.42223,428.212 422.74141,405.56453 C 372.10143,378.74888 331.44598,353.2814 243.59454,321.42952 C 334.10184,344.68638 382.03728,346.59143 438.9778,353.01566 C 394.0653,292.07327 349.73104,230.52652 302.28583,172.23122 C 283.39337,148.92359 249.29522,141.51166 212.09972,137.33365 C 157.15797,140.75566 136.52645,171.94594 131.51311,215.75784 C 130.61327,240.28086 135.17504,259.64621 126.66944,284.68092 L 126.65726,284.733 L 126.33438,285.778 L 126.32811,285.78564 C 119.22913,311.25497 104.52923,324.70158 91.438758,345.45801 C 87.580985,352.77122 84.425757,360.02538 82.133441,367.21177 z"
               id="path8191"
               style="fill:#fcef3c;fill-opacity:1;fill-rule:evenodd;stroke:#000000;stroke-width:11.09357262;stroke-linecap:butt;stroke-linejoin:round;stroke-miterlimit:4;stroke-dasharray:none;stroke-opacity:1" />
            <path
               d="M 243.59454,321.42952 C 331.44598,353.2814 372.10143,378.74888 422.74141,405.56453 C 422.50135,405.65319 422.27525,405.74852 422.03575,405.83711 L 423.18877,406.12795 L 439.41593,353.60894 L 437.33297,352.83452 C 381.11285,346.557 333.22407,344.46082 243.59454,321.42952 z"
               id="path8193"
               style="fill:#fcef3c;fill-opacity:1;fill-rule:evenodd;stroke:#000000;stroke-width:11.09357262;stroke-linecap:butt;stroke-linejoin:round;stroke-miterlimit:4;stroke-dasharray:none;stroke-opacity:1" />
            <path
               d="M 768.51025,631.01874 C 794.60301,611.33117 806.7342,583.35905 793.7895,540.54661 C 776.91573,507.13654 758.06487,477.77539 729.63584,468.18587 C 622.53955,428.34584 575.72233,419.93615 512.58252,403.01564 C 538.44017,454.15135 556.92488,498.42061 610.254,575.15651 C 549.79323,503.90397 511.75842,474.6673 468.98149,436.54094 C 470.45593,512.23056 471.10929,588.07967 476.18008,663.07075 C 478.14455,693.00917 501.7024,718.75106 529.65644,743.64139 C 576.48749,772.57495 611.34276,759.02505 640.73584,726.15169 C 655.63183,706.65051 663.09052,688.20618 684.49141,672.67936 L 684.53142,672.64388 L 685.39849,671.97718 L 685.40802,671.97457 C 705.91151,655.28065 725.67768,652.7915 748.35111,643.40514 C 755.72381,639.66233 762.48884,635.56202 768.51025,631.01874 z"
               id="path8197"
               style="fill:#fcef3c;fill-opacity:1;fill-rule:evenodd;stroke:#000000;stroke-width:11.09357262;stroke-linecap:butt;stroke-linejoin:round;stroke-miterlimit:4;stroke-dasharray:none;stroke-opacity:1" />
            <path
               d="M 610.254,575.15651 C 556.92488,498.42061 538.44017,454.15135 512.58252,403.01564 C 512.82971,403.08188 513.06935,403.13462 513.31604,403.20061 L 512.54266,402.29732 L 468.9664,435.80357 L 470.21975,437.63867 C 512.49326,475.22924 550.3796,504.59501 610.254,575.15651 z"
               id="path8199"
               style="fill:#fcef3c;fill-opacity:1;fill-rule:evenodd;stroke:#000000;stroke-width:11.09357262;stroke-linecap:butt;stroke-linejoin:round;stroke-miterlimit:4;stroke-dasharray:none;stroke-opacity:1" />
            <path
               d="M 333.06752,750.21685 C 360.0292,768.69666 390.40686,771.30539 426.88261,745.42112 C 453.19466,718.8009 475.03929,691.59341 475.09296,661.59061 C 478.8173,547.38463 471.90627,500.32277 467.87512,435.07938 C 427.6133,475.85281 391.51763,507.45281 335.71772,582.41138 C 384.05143,502.43448 399.67897,457.07794 422.22732,404.39906 C 350.93347,429.86068 279.22737,454.59452 209.73919,483.24381 C 181.97862,494.62455 165.06194,525.14416 150.35031,559.56114 C 137.8067,613.16118 161.73497,641.90019 202.24759,659.31698 C 225.4728,667.2402 245.3315,668.44797 266.85663,683.80215 L 266.90299,683.82881 L 267.81076,684.43893 L 267.81627,684.44713 C 290.16264,698.57941 298.80682,716.52869 314.91466,735.04159 C 320.80725,740.84183 326.8456,745.95228 333.06752,750.21685 z"
               id="path8203"
               style="fill:#fcef3c;fill-opacity:1;fill-rule:evenodd;stroke:#000000;stroke-width:11.09357262;stroke-linecap:butt;stroke-linejoin:round;stroke-miterlimit:4;stroke-dasharray:none;stroke-opacity:1" />
            <path
               d="M 335.71772,582.41138 C 391.51763,507.45281 427.6133,475.85281 467.87512,435.07938 C 467.89091,435.33481 467.91709,435.57878 467.93296,435.83365 L 468.5435,434.81321 L 422.92164,404.15032 L 421.58022,405.92207 C 399.3798,457.95331 383.58266,503.21012 335.71772,582.41138 z"
               id="path8205"
               style="fill:#fcef3c;fill-opacity:1;fill-rule:evenodd;stroke:#000000;stroke-width:11.09357262;stroke-linecap:butt;stroke-linejoin:round;stroke-miterlimit:4;stroke-dasharray:none;stroke-opacity:1" />
            <path
               d="M 795.29394,182.52692 C 785.11301,151.46601 762.57405,130.93309 717.87649,129.32186 C 680.80313,134.47181 646.92067,142.80307 628.64465,166.5971 C 556.2814,255.03009 533.1692,296.60412 496.72063,350.86679 C 553.47339,342.95471 601.3427,339.79583 691.21008,314.17857 C 604.22221,348.31851 564.24744,374.84105 514.32657,402.97269 C 586.41799,426.07932 658.3945,450.01445 730.98918,469.49225 C 759.95149,477.325 791.93329,463.36859 824.53247,444.97704 C 867.06791,410.03376 865.53069,372.66899 843.9423,334.21705 C 830.31318,313.81036 815.27644,300.78263 807.51341,275.50784 L 807.49279,275.45849 L 807.14267,274.4223 L 807.14328,274.41243 C 797.98548,249.60892 802.02892,230.10129 800.48764,205.61022 C 799.33299,197.42291 797.64339,189.69482 795.29394,182.52692 z"
               id="path8185"
               style="fill:#fcef3c;fill-opacity:1;fill-rule:evenodd;stroke:#000000;stroke-width:11.09357262;stroke-linecap:butt;stroke-linejoin:round;stroke-miterlimit:4;stroke-dasharray:none;stroke-opacity:1" />
            <g
               transform="matrix(0.320108,0.94738,-0.94738,0.320108,688.9379,-180.564)"
               id="g8183"
               style="fill:#fcef3c;fill-opacity:1;stroke:#000000;stroke-width:11.09358406;stroke-linejoin:round;stroke-miterlimit:4;stroke-dasharray:none;stroke-opacity:1">
              <path
                 d="M 469.4375,156.21875 C 464.9395,249.55778 452.60879,295.91949 441.9375,352.21875 C 441.78192,352.01556 441.62409,351.82768 441.46875,351.625 L 441.53125,352.8125 L 496.5,352.8125 L 496.625,350.59375 C 486.0262,295.02604 473.89187,248.65273 469.4375,156.21875 z"
                 id="path8187"
                 style="fill:#fcef3c;fill-opacity:1;fill-rule:evenodd;stroke:#000000;stroke-width:11.09358406;stroke-linecap:butt;stroke-linejoin:round;stroke-miterlimit:4;stroke-dasharray:none;stroke-opacity:1" />
            </g>
          </g>
          <path
             d="M 614.68782,409.418 C 614.70792,480.67366 555.44254,538.44817 482.32803,538.44817 C 409.21353,538.44817 349.94815,480.67366 349.96825,409.418 C 349.94815,338.16234 409.21353,280.38783 482.32803,280.38783 C 555.44254,280.38783 614.70792,338.16234 614.68782,409.418 L 614.68782,409.418 z"
             transform="matrix(0.191604,0,0,0.191604,5.808093,3.468148)"
             id="path1952"
             style="fill:#fcef3c;fill-opacity:1;fill-rule:evenodd;stroke:#000000;stroke-width:11.6957159;stroke-linejoin:round;stroke-miterlimit:4;stroke-dasharray:none;stroke-opacity:1" />
        </g>
      </g>
    </g>
    <g
       id="g3396"
       transform="translate(6.2075242,0)"
       style="stroke:#313131;stroke-width:3">
      <g
         id="g1961"
         transform="matrix(3.404874,0,0,-3.404874,-305.87295,732.81191)"
         style="fill:#000000;stroke:#313131;stroke-width:0.88108987;stroke-miterlimit:4;stroke-dasharray:none;stroke-opacity:1">
        <path
           id="path1920"
           d="M 116.25,84.125 L 116.25,84.71875 L 98.5,140.5625 C 98.5,140.5625 102.71162,140.55536 106.625,144.46875 C 110.53839,148.38214 110.875,152.625 110.875,152.625 L 116.25,152.625 L 116.4375,152.625 L 121.8125,152.625 C 121.8125,152.625 122.11786,148.38214 126.03125,144.46875 C 129.94463,140.55536 134.1875,140.5625 134.1875,140.5625 L 116.4375,84.71875 L 116.4375,84.125 L 116.34375,84.40625 L 116.25,84.125 z"
           style="fill:#000000;fill-rule:evenodd;stroke:#313131;stroke-width:0.88108987;stroke-linecap:butt;stroke-linejoin:miter;stroke-miterlimit:4;stroke-dasharray:none;stroke-opacity:1" />
        <path
           sodipodi:nodetypes="cc"
           id="path1943"
           d="M 116.42323,100.11745 L 116.42323,152.62205"
           style="fill:#000000;fill-rule:evenodd;stroke:#313131;stroke-width:0.88108987;stroke-linecap:butt;stroke-linejoin:miter;stroke-miterlimit:4;stroke-dasharray:none;stroke-opacity:1" />
        <rect
           ry="1.8302125"
           y="152.62204"
           x="108.59646"
           height="3.2611549"
           width="15.653543"
           id="rect1948"
           style="opacity:0.90000000000000002;fill:#000000;fill-opacity:1;stroke:#313131;stroke-width:0.88108987;stroke-miterlimit:4;stroke-dasharray:none;stroke-opacity:1"
           rx="1.8302125" />
        <path
           sodipodi:nodetypes="ccccc"
           id="path1950"
           d="M 111.21875,155.875 L 109.25,171.53125 L 123.75,171.53125 L 121.8125,156.03125 L 111.21875,155.875 z"
           style="fill:#000000;fill-rule:evenodd;stroke:#313131;stroke-width:0.88108987;stroke-linecap:butt;stroke-linejoin:miter;stroke-miterlimit:4;stroke-dasharray:none;stroke-opacity:1" />
      </g>
      <g
         style="fill:#000000;stroke:#313131;stroke-width:3.57093544;stroke-miterlimit:4;stroke-dasharray:none;stroke-opacity:1"
         transform="matrix(0.840116,0,0,-0.840116,217.94719,637.77654)"
         id="g4325">
        <g
           style="fill:#000000;stroke:#313131;stroke-width:3.57093544;stroke-miterlimit:4;stroke-dasharray:none;stroke-opacity:1"
           id="g8978">
          <path
             sodipodi:nodetypes="ccccccccc"
             d="M 366.1803,444.92674 L 366.1803,428.51176 C 365.06567,418.09149 360.85238,418.36649 354.05847,418.66278 C 346.35322,418.98702 341.66441,416.88191 342.69425,406.54095 C 371.04671,349.5421 358.65735,288.25465 334.60512,225.73952 C 336.77382,233.94922 388.95737,236.13656 398.75772,271.93812 C 412.31243,328.7056 401.40703,388.53535 391.18157,439.87598 L 390.92904,446.44197 L 366.1803,444.92674 z"
             style="opacity:1;fill:#000000;fill-opacity:1;fill-rule:nonzero;stroke:#313131;stroke-width:3.57093544;stroke-linecap:round;stroke-linejoin:round;marker:none;marker-start:none;marker-mid:none;marker-end:none;stroke-miterlimit:4;stroke-dasharray:none;stroke-dashoffset:0;stroke-opacity:1;visibility:visible;display:inline;overflow:visible"
             id="path1882" />
          <path
             d="M 392.9375,262.78455 C 392.53421,262.7845 392.14789,262.94683 391.86568,263.23493 C 391.58347,263.52302 391.42914,263.9126 391.4375,264.3158 L 390.6875,384.5033 C 390.67672,385.04256 391.85474,386.89709 391.8661,386.35783 L 394.4375,264.3158 C 394.44586,263.9126 394.29153,263.52302 394.00932,263.23493 C 393.72711,262.94683 393.34079,262.7845 392.9375,262.78455 z"
             style="opacity:1;fill:#000000;fill-opacity:1;fill-rule:nonzero;stroke:#313131;stroke-width:3.57093544;stroke-linecap:round;stroke-linejoin:round;marker:none;stroke-miterlimit:4;stroke-dasharray:none;stroke-dashoffset:0;stroke-opacity:1;visibility:visible;display:inline;overflow:visible"
             id="path1884" />
          <path
             d="M 335.83511,584.15648 C 361.45191,582.93009 379.84783,584.28579 398.75772,582.38871 C 404.50213,546.43526 406.53592,501.21736 400.16724,456.78476 C 399.79941,454.21851 397.14081,452.90241 397.24249,450.81634 L 397.49503,437.17928 C 396.69767,432.41611 394.55254,431.69624 392.44426,430.86583 L 363.65492,431.3709 C 359.87728,432.77737 359.12327,435.19172 359.36177,437.9369 L 359.61431,450.05873 C 357.41718,452.05164 354.47584,453.48639 354.81608,457.38233 C 354.55978,504.21454 351.99235,503.65026 359.36177,552.86205 C 360.16155,562.58086 343.459,567.20819 335.83511,567.78211 C 332.62837,569.85802 332.11993,581.58857 335.83511,584.15648 z"
             style="opacity:1;fill:#000000;fill-opacity:1;fill-rule:nonzero;stroke:#313131;stroke-width:3.57093544;stroke-linecap:round;stroke-linejoin:round;marker:none;marker-start:none;marker-mid:none;marker-end:none;stroke-miterlimit:4;stroke-dasharray:none;stroke-dashoffset:0;stroke-opacity:1;visibility:visible;display:inline;overflow:visible"
             id="path1890" />
          <path
             d="M 391.43411,449.80619 L 391.68665,441.21989"
             style="opacity:1;fill:#000000;fill-opacity:1;fill-rule:nonzero;stroke:#313131;stroke-width:3.57093544;stroke-linecap:round;stroke-linejoin:round;marker:none;marker-start:none;marker-mid:none;marker-end:none;stroke-miterlimit:4;stroke-dasharray:none;stroke-dashoffset:0;stroke-opacity:1;visibility:visible;display:inline;overflow:visible"
             id="path1894" />
          <path
             d="M 359.61431,449.80619 L 396.98995,449.80619"
             style="opacity:1;fill:#000000;fill-opacity:1;fill-rule:nonzero;stroke:#313131;stroke-width:3.57093544;stroke-linecap:round;stroke-linejoin:round;marker:none;marker-start:none;marker-mid:none;marker-end:none;stroke-miterlimit:4;stroke-dasharray:none;stroke-dashoffset:0;stroke-opacity:1;visibility:visible;display:inline;overflow:visible"
             id="path1892" />
        </g>
      </g>
    </g>
  </g>
  <g
     inkscape:groupmode="layer"
     id="layer3"
     inkscape:label="Reflet final"
     sodipodi:insensitive="true"
     style="display:inline">
    <path
       id="path2875"
       style="fill:url(#radialGradient11919);fill-opacity:1;fill-rule:evenodd;stroke:none;stroke-width:3.00000024;stroke-linecap:butt;stroke-linejoin:miter;stroke-miterlimit:4;stroke-dasharray:none;stroke-opacity:1"
       d="M 1.5,1.49974 L 1.5,518.99107 C 1.5,557.49556 32.7031,588.7456 71.15,588.7456 C 109.5968,588.7456 191.9032,588.7456 230.35,588.7456 C 268.79691,588.7455 300.00003,619.99554 300.00003,658.5 C 300.00003,619.99554 331.20317,588.7456 369.64997,588.7456 C 408.09687,588.7455 490.40327,588.7456 528.85007,588.7456 C 567.29687,588.7456 598.50007,557.49556 598.50007,518.99107 L 598.50007,1.49974 L 1.5,1.49974 z " />
  </g>
  <g
     inkscape:groupmode="layer"
     id="layer4"
     inkscape:label="Contour final"
     sodipodi:insensitive="true">
    <path
       id="path1572"
       style="fill:none;fill-opacity:1;fill-rule:nonzero;stroke:black;stroke-width:3.00000191;stroke-linecap:round;stroke-linejoin:round;stroke-miterlimit:4;stroke-dasharray:none;stroke-dashoffset:0;stroke-opacity:1"
       d="M 300.00003,658.5 C 300.00003,619.9959 331.20322,588.74628 369.65003,588.74628 C 408.09684,588.74628 490.40321,588.74628 528.85001,588.74628 C 567.29681,588.74628 598.50011,557.49666 598.50011,518.99266 L 598.50011,1.4996809 L 1.5000099,1.4997008 L 1.5,518.99266 C 1.5,557.49666 32.70321,588.74628 71.150019,588.74628 C 109.59684,588.74628 191.90322,588.74628 230.35003,588.74628 C 268.79684,588.74628 300.00003,619.9959 300.00003,658.5 z "
       sodipodi:nodetypes="cssccccssc" />
    <path
       transform="translate(-0.848528,7.2792035e-2)"
       sodipodi:nodetypes="cccc"
       d="M 2.9942331,1.6566091 L 579.36972,567.82789 M 598.80048,1.6298724 L 22.61002,567.776"
       style="opacity:1;fill:none;fill-rule:evenodd;stroke:#000000;stroke-width:3;stroke-linecap:butt;stroke-linejoin:miter;stroke-miterlimit:4;stroke-opacity:1;display:inline"
       id="path33879" />
  </g>
</svg>
