<?xml version="1.0" encoding="UTF-8" standalone="no"?>
<!-- Created with Inkscape (http://www.inkscape.org/) -->

<svg
   xmlns:dc="http://purl.org/dc/elements/1.1/"
   xmlns:cc="http://creativecommons.org/ns#"
   xmlns:rdf="http://www.w3.org/1999/02/22-rdf-syntax-ns#"
   xmlns:svg="http://www.w3.org/2000/svg"
   xmlns="http://www.w3.org/2000/svg"
   xmlns:xlink="http://www.w3.org/1999/xlink"
   xmlns:sodipodi="http://sodipodi.sourceforge.net/DTD/sodipodi-0.dtd"
   xmlns:inkscape="http://www.inkscape.org/namespaces/inkscape"
   version="1.0"
   width="600"
   height="660"
   id="svg2"
   inkscape:version="0.47 r22583"
   sodipodi:docname="Blason_ville_fr_Balma (Haute-Garonne).svg">
  <metadata
     id="metadata3593">
    <rdf:RDF>
      <cc:Work
         rdf:about="">
        <dc:format>image/svg+xml</dc:format>
        <dc:type
           rdf:resource="http://purl.org/dc/dcmitype/StillImage" />
      </cc:Work>
    </rdf:RDF>
  </metadata>
  <sodipodi:namedview
     pagecolor="#ffffff"
     bordercolor="#666666"
     borderopacity="1"
     objecttolerance="10"
     gridtolerance="10"
     guidetolerance="10"
     inkscape:pageopacity="0"
     inkscape:pageshadow="2"
     inkscape:window-width="1280"
     inkscape:window-height="962"
     id="namedview3591"
     showgrid="false"
     inkscape:zoom="0.35757576"
     inkscape:cx="300"
     inkscape:cy="330"
     inkscape:window-x="-8"
     inkscape:window-y="-8"
     inkscape:window-maximized="1"
     inkscape:current-layer="svg2" />
  <desc
     id="desc4">Flag of Canton of Valais (Wallis)</desc>
  <defs
     id="defs6">
    <inkscape:perspective
       sodipodi:type="inkscape:persp3d"
       inkscape:vp_x="0 : 330 : 1"
       inkscape:vp_y="0 : 1000 : 0"
       inkscape:vp_z="600 : 330 : 1"
       inkscape:persp3d-origin="300 : 220 : 1"
       id="perspective3595" />
    <linearGradient
       id="linearGradient2893">
      <stop
         id="stop2895"
         style="stop-color:#ffffff;stop-opacity:0.3137255"
         offset="0" />
      <stop
         id="stop2897"
         style="stop-color:#ffffff;stop-opacity:0.25098041"
         offset="0.19" />
      <stop
         id="stop2901"
         style="stop-color:#6b6b6b;stop-opacity:0.1254902"
         offset="0.60000002" />
      <stop
         id="stop2899"
         style="stop-color:#000000;stop-opacity:0.1254902"
         offset="1" />
    </linearGradient>
    <linearGradient
       id="linearGradient2885">
      <stop
         id="stop2887"
         style="stop-color:#ffffff;stop-opacity:1"
         offset="0" />
      <stop
         id="stop2891"
         style="stop-color:#ffffff;stop-opacity:1"
         offset="0.22857143" />
      <stop
         id="stop2889"
         style="stop-color:#000000;stop-opacity:1"
         offset="1" />
    </linearGradient>
    <linearGradient
       id="linearGradient2955">
      <stop
         id="stop2867"
         style="stop-color:#fd0000;stop-opacity:1"
         offset="0" />
      <stop
         id="stop2873"
         style="stop-color:#e77275;stop-opacity:0.65882355"
         offset="0.5" />
      <stop
         id="stop2959"
         style="stop-color:#000000;stop-opacity:0.32291666"
         offset="1" />
    </linearGradient>
    <radialGradient
       cx="225.52438"
       cy="218.90099"
       r="300"
       fx="225.52438"
       fy="218.90099"
       id="radialGradient2961"
       xlink:href="#linearGradient2955"
       gradientUnits="userSpaceOnUse"
       gradientTransform="matrix(-4.167939e-4,2.182867,-1.884232,-3.599562e-4,615.5972,-289.1214)" />
    <polygon
       points="0.58778525,0.80901699 -0.95105652,-0.30901699 0.95105652,-0.30901699 -0.58778525,0.80901699 0,-1 0,-1 "
       transform="scale(53,53)"
       id="star" />
    <clipPath
       id="clip">
      <path
         d="m 0,-200 0,800 300,0 0,-800 -300,0 z"
         id="path10" />
    </clipPath>
    <radialGradient
       cx="225.52438"
       cy="218.90099"
       r="300"
       fx="225.52438"
       fy="218.90099"
       id="radialGradient1911"
       xlink:href="#linearGradient2955"
       gradientUnits="userSpaceOnUse"
       gradientTransform="matrix(-4.167939e-4,2.182867,-1.884232,-3.599562e-4,615.5972,-289.1214)" />
    <radialGradient
       cx="225.52438"
       cy="218.90099"
       r="300"
       fx="225.52438"
       fy="218.90099"
       id="radialGradient2865"
       xlink:href="#linearGradient2955"
       gradientUnits="userSpaceOnUse"
       gradientTransform="matrix(0,1.748721,-1.593162,-1.049767e-7,551.7876,-191.2898)" />
    <radialGradient
       cx="225.52438"
       cy="218.90099"
       r="300"
       fx="225.52438"
       fy="218.90099"
       id="radialGradient2871"
       xlink:href="#linearGradient2955"
       gradientUnits="userSpaceOnUse"
       gradientTransform="matrix(0,1.386237,-1.323286,-5.741131e-8,-158.0823,-109.5408)" />
    <radialGradient
       cx="221.44487"
       cy="226.33101"
       r="300"
       fx="221.44487"
       fy="226.33101"
       id="radialGradient3163"
       xlink:href="#linearGradient2893"
       gradientUnits="userSpaceOnUse"
       gradientTransform="matrix(1.353218,0,0,1.348928,-77.62935,-85.74693)" />
    <radialGradient
       cx="221.44487"
       cy="226.33101"
       r="300"
       fx="221.44487"
       fy="226.33101"
       id="radialGradient3163-5"
       xlink:href="#linearGradient2893-8"
       gradientUnits="userSpaceOnUse"
       gradientTransform="matrix(1.353218,0,0,1.348928,-77.62935,-85.74693)" />
    <linearGradient
       id="linearGradient2893-8">
      <stop
         id="stop2895-8"
         style="stop-color:#ffffff;stop-opacity:0.3137255"
         offset="0" />
      <stop
         id="stop2897-2"
         style="stop-color:#ffffff;stop-opacity:0.25098041"
         offset="0.19" />
      <stop
         id="stop2901-4"
         style="stop-color:#6b6b6b;stop-opacity:0.1254902"
         offset="0.60000002" />
      <stop
         id="stop2899-5"
         style="stop-color:#000000;stop-opacity:0.1254902"
         offset="1" />
    </linearGradient>
    <inkscape:perspective
       id="perspective3605"
       inkscape:persp3d-origin="0.5 : 0.33333333 : 1"
       inkscape:vp_z="1 : 0.5 : 1"
       inkscape:vp_y="0 : 1000 : 0"
       inkscape:vp_x="0 : 0.5 : 1"
       sodipodi:type="inkscape:persp3d" />
    <radialGradient
       inkscape:collect="always"
       xlink:href="#linearGradient2893-1"
       id="radialGradient3122"
       gradientUnits="userSpaceOnUse"
       gradientTransform="matrix(1.35322,0,0,1.34893,-784.73608,-0.89408669)"
       cx="221.44487"
       cy="226.33101"
       fx="221.44487"
       fy="226.33101"
       r="300" />
    <linearGradient
       id="linearGradient2893-1">
      <stop
         id="stop2895-7"
         style="stop-color:#ffffff;stop-opacity:0.31372601"
         offset="0" />
      <stop
         id="stop2897-4"
         style="stop-color:#ffffff;stop-opacity:0.25097999"
         offset="0.19" />
      <stop
         id="stop2901-0"
         style="stop-color:#6b6b6b;stop-opacity:0.12548999"
         offset="0.60000002" />
      <stop
         id="stop2899-9"
         style="stop-color:#000000;stop-opacity:0.12548999"
         offset="1" />
    </linearGradient>
    <radialGradient
       r="300"
       fy="226.33101"
       fx="221.44487"
       cy="226.33101"
       cx="221.44487"
       gradientTransform="matrix(1.35322,0,0,1.34893,-78.392016,-86.085145)"
       gradientUnits="userSpaceOnUse"
       id="radialGradient3616"
       xlink:href="#linearGradient2893-1"
       inkscape:collect="always" />
    <inkscape:perspective
       id="perspective3649"
       inkscape:persp3d-origin="0.5 : 0.33333333 : 1"
       inkscape:vp_z="1 : 0.5 : 1"
       inkscape:vp_y="0 : 1000 : 0"
       inkscape:vp_x="0 : 0.5 : 1"
       sodipodi:type="inkscape:persp3d" />
  </defs>
  <g
     id="layer3"
     style="display:inline">
    <path
       d="m 300,658.5 c 0,0 298.50001,-112.32031 298.50001,-397.77183 0,-285.451524 0,-258.5516935 0,-258.5516935 l -597.00001,0 0,258.5516935 C 1.5,546.17969 300,658.5 300,658.5 z"
       id="path2855"
       style="fill:#e20909;fill-opacity:1;fill-rule:evenodd;stroke:none" />
  </g>
  <g
     id="layer4">
    <g
       transform="matrix(1.143394,1.3418596,-1.2028283,1.1679065,514.32355,-13.816868)"
       id="g2886">
      <g
         transform="translate(639.81547,-126.16068)"
         id="layer3-1"
         style="display:inline" />
      <g
         transform="translate(639.81547,-126.16068)"
         id="layer1-7"
         style="display:inline" />
      <g
         transform="translate(696.2442,-202.80102)"
         id="layer4-4"
         style="display:inline">
        <g
           transform="translate(873.00016,-55.320157)"
           id="g5818" />
        <g
           transform="translate(873.00016,-55.320157)"
           id="g5820" />
        <g
           transform="translate(873.00016,-55.320157)"
           id="g5822" />
      </g>
      <g
         transform="translate(696.2442,-202.80102)"
         id="layer5"
         style="display:inline">
        <g
           transform="translate(-582.73933,640.16742)"
           id="g5438"
           style="display:inline" />
        <g
           transform="translate(-526.31061,563.52708)"
           id="g5440"
           style="display:inline" />
        <g
           transform="translate(-526.31061,563.52708)"
           id="g5559" />
        <g
           transform="translate(-526.31061,563.52708)"
           id="g5561"
           style="display:inline" />
      </g>
      <g
         transform="translate(696.2442,-202.80102)"
         id="layer6"
         style="display:inline" />
      <path
         d="m 241.61547,-31.6545 c 0.0706,0 0.1411,0 0,0 z"
         id="path3654"
         style="fill:#feed01;fill-opacity:1;fill-rule:evenodd;stroke:none" />
      <path
         d="m 62.488792,231.66769 c 0.07567,0 0.15135,0 0,0 z"
         id="path2408"
         style="fill:#feed01;fill-opacity:1;fill-rule:evenodd;stroke:none;stroke-width:1px;marker:none;visibility:visible;display:inline;overflow:visible;enable-background:accumulate" />
      <path
         d="M 40.440992,0.5 C 18.558307,0.5 0.81599521,18.273565 0.81599221,40.15625 c 0,0.452278 0.016212,0.895103 0.03125,1.34375 l 12.15624979,0 c -0.02167,-0.447884 -0.03125,-0.890522 -0.03125,-1.34375 -10e-7,-15.177531 12.291218,-27.5 27.46875,-27.5 15.17753,0 27.5,12.322468 27.5,27.5 -10e-7,15.177532 -12.322468,27.5 -27.5,27.5 -5.383776,0.01707 -5.787653,2.976803 -6.03125,6.03125 l 0,254.09375 12.09375,-0.84375 0,-244.185448 c 0.568367,-3.152955 1.43783,-3.567798 2.917868,-3.970318 C 66.985039,74.706597 80.097242,58.949886 80.097242,40.15625 80.097242,18.273565 62.323676,0.5 40.440992,0.5 z"
         id="rect17044"
         style="fill:#eac102;fill-opacity:1;fill-rule:nonzero;stroke:#000000;stroke-width:1;stroke-miterlimit:4;stroke-opacity:1;stroke-dasharray:none" />
      <g
         transform="matrix(1.8724453,0.00300735,-0.1363184,1.6612912,187.59354,-0.70625)"
         id="g18799"
         style="fill:#eac102;fill-opacity:1;stroke-width:0.56694889;stroke-miterlimit:4;stroke-dasharray:none">
        <path
           d="m -68.384549,59.244157 c 0.06447,2.851436 -0.920274,2.815124 -5.883182,2.815124 -4.879362,0 -5.810452,-0.108239 -5.883181,-2.815124 -0.07673,-2.855684 1.011335,-2.815123 5.883181,-2.815123 4.601125,0 5.815344,-0.185059 5.883182,2.815123 z"
           id="path17922"
           style="fill:#eac102;fill-opacity:1;fill-rule:nonzero;stroke:#000000;stroke-width:0.56694889;stroke-miterlimit:4;stroke-opacity:1;stroke-dasharray:none" />
        <path
           d="m -67.317607,59.24254 c 0.05939,1.556397 -3.12996,1.537321 -6.966115,1.538216 -3.836153,8.96e-4 -6.863006,-0.05748 -6.932994,-1.534972 -0.07384,-1.558713 2.842233,-1.5368 6.678386,-1.537695 3.836155,-8.96e-4 7.158237,-0.103136 7.220723,1.534451 z"
           id="path17919"
           style="fill:#eac102;fill-opacity:1;fill-rule:nonzero;stroke:#000000;stroke-width:0.56694889;stroke-miterlimit:4;stroke-opacity:1;stroke-dasharray:none" />
      </g>
      <g
         transform="translate(-8.0018196,-0.78125)"
         id="g3009"
         style="stroke-width:1;stroke-miterlimit:4;stroke-dasharray:none">
        <g
           transform="matrix(1.8670373,-0.1422397,-0.00704804,1.6668598,189.76175,-14.46392)"
           id="g21648"
           style="fill:#eac102;fill-opacity:1;stroke-width:0.56694889;stroke-miterlimit:4;stroke-dasharray:none">
          <path
             d="m -79.37513,201.60129 c -1.263368,1.80481 -0.547582,7.63423 -5.05961,9.07809 7.90842,4.56593 9.497528,21.24401 9.53125,21.40625 0.04381,-0.16351 2.197163,-16.70349 9.568653,-19.77638 -4.225876,-1.90313 -3.80528,-8.13756 -5.068653,-9.94237 -0.194377,-4.09356 -3.722656,-3.40625 -4.84375,-3.40625 -1.121095,0 -4.12789,-0.96188 -4.12789,2.64066 z"
             id="path19895"
             style="fill:#eac102;fill-opacity:1;fill-rule:evenodd;stroke:#000000;stroke-width:0.56694889;stroke-linecap:butt;stroke-linejoin:miter;stroke-miterlimit:4;stroke-opacity:1;stroke-dasharray:none" />
          <path
             d="M -74.88269,230.59287 -74.88789,205.875"
             id="path20773"
             style="fill:#eac102;fill-opacity:1;fill-rule:evenodd;stroke:#000000;stroke-width:0.56694889;stroke-linecap:butt;stroke-linejoin:miter;stroke-miterlimit:4;stroke-opacity:1;stroke-dasharray:none" />
        </g>
        <g
           transform="matrix(1.8722692,0.0258582,-0.1565824,1.659504,196.78257,233.17075)"
           id="g19889"
           style="fill:#eac102;fill-opacity:1;stroke-width:0.56694889;stroke-miterlimit:4;stroke-dasharray:none">
          <path
             d="m -68.384549,59.244157 c 0.06447,2.851436 -0.920274,2.815124 -5.883182,2.815124 -4.879362,0 -5.810452,-0.108239 -5.883181,-2.815124 -0.07673,-2.855684 1.011335,-2.815123 5.883181,-2.815123 4.601125,0 5.815344,-0.185059 5.883182,2.815123 z"
             id="path19891"
             style="fill:#eac102;fill-opacity:1;fill-rule:nonzero;stroke:#000000;stroke-width:0.56694889;stroke-miterlimit:4;stroke-opacity:1;stroke-dasharray:none" />
          <path
             d="m -67.33966,59.17715 c 0.0896,1.78282 -3.089981,1.790926 -6.913924,1.827994 -3.823941,0.03707 -6.842312,-0.0014 -6.940938,-1.693692 -0.104049,-1.785337 3.089981,-1.790926 6.913922,-1.827994 3.823943,-0.03707 6.846664,-0.182129 6.94094,1.693692 z"
             id="path19893"
             style="fill:#eac102;fill-opacity:1;fill-rule:nonzero;stroke:#000000;stroke-width:0.56694889;stroke-miterlimit:4;stroke-opacity:1;stroke-dasharray:none" />
        </g>
      </g>
      <g
         transform="matrix(1.7607681,-0.1341436,-0.00664687,1.5719845,173.95556,-8.6925158)"
         id="g17018"
         style="fill:#eac102;fill-opacity:1;stroke-width:0.60116649;stroke-miterlimit:4;stroke-dasharray:none">
        <path
           d="m -87.564255,41.610714 c 1.83562,1.65023 2.02084,3.130941 0.7407,3.91768 -1.28014,0.78674 -2.22106,0.277824 -2.22106,0.277824 0,0 3.87373,5.041033 6.89478,2.01998 1.12607,-1.126067 1.871931,-2.608402 0.452791,-3.934759 -1.41914,-1.326357 -1.344536,-0.691047 -2.319621,-1.972541 1.145942,-2.713416 3.817674,0.116403 3.817674,0.116403 0,0 1.363998,-3.131388 -1.901946,-5.269375 -1.37757,-0.9018 -5.95539,-1.312227 -7.423241,-2.827351 2.412501,1.462822 6.489566,1.951502 7.609781,1.804069 6.842435,-0.900542 7.788191,-4.750206 8.652281,-7.975029 0.38889,-1.451372 1.073954,-2.21886 2.32884,-2.421797 2.039233,-0.329779 4.08507,-4.424798 3.1595,-5.8129 -1.37676,1.319121 -2.95732,2.116039 -5.30381,2.146032 1.89482,-1.774831 1.34847,-3.455865 2.13504,-4.180865 0.78658,-0.725003 2.01356,-2.178154 2.01356,-2.178154 0,0 -2.82123,-1.861767 -5.78328,1.165766 0.64757,-2.838104 -0.07548,-5.637134 -1.26601,-6.42481 -1.202711,-0.7957331 -3.394067,-1.7529683 -5.014661,-0.496461 0,0 2.83999,2.147033 2.14603,3.612388 -0.69397,1.465356 -2.106,2.811261 -2.106,2.811261 l -0.42359,-2.996134 c 0,0 -4.47162,0.09553 -3.63967,4.154731 0.49876,2.43353 2.93389,2.785621 3.98141,4.908495 -2.02067,-1.125793 -7.365021,0.352108 -6.23905,0.336593 1.12596,-0.01552 3.988598,1.329814 4.80324,2.893336 0.866852,1.663728 1.11535,3.337015 0.0049,4.478497 -1.11044,1.14149 -3.04289,2.292977 -5.55712,1.228922 -2.514231,-1.064056 -3.563271,-3.439288 -3.563271,-3.439288 0,0 -1.34206,-1.711968 0,0 1.34204,1.71197 3.424271,1.326191 4.565581,0.43149 1.14131,-0.894696 1.87267,-2.157944 1.69408,-3.659573 -9.363431,2.252975 -10.335871,-7.888382 -11.710901,-9.234283 -5.681232,18.63448 7.637423,24.869621 9.473033,26.519853 z"
           id="path11679"
           style="fill:#eac102;fill-opacity:1;fill-rule:evenodd;stroke:#000000;stroke-width:0.60116649;stroke-linecap:butt;stroke-linejoin:miter;stroke-miterlimit:4;stroke-opacity:1;stroke-dasharray:none" />
        <g
           id="g17008"
           style="fill:#eac102;fill-opacity:1;stroke-width:0.60116649;stroke-miterlimit:4;stroke-dasharray:none">
          <path
             d="m -89.879596,31.945283 c 6.046118,3.429141 9.114297,1.714571 10.106943,0.992646 0.992646,-0.721924 3.24866,-3.880344 3.699863,-7.850928 0.451203,-3.970585 -1.835238,-8.19165 -1.835238,-8.19165 0.900288,-1.438938 2.124312,-2.349868 1.638638,-4.219145 -0.289445,-1.726997 -1.887999,-1.858374 -1.887999,-1.858374"
             id="path15234"
             style="fill:none;stroke:#000000;stroke-width:0.60116649;stroke-linecap:butt;stroke-linejoin:miter;stroke-miterlimit:4;stroke-opacity:1;stroke-dasharray:none" />
          <path
             d="m -82.922072,14.964559 c -0.233003,1.15081 0.164627,3.054296 1.372386,4.142751 0.865305,0.779829 5.47445,3.205126 5.47445,3.205126"
             id="path15236"
             style="fill:#eac102;fill-opacity:1;fill-rule:evenodd;stroke:#000000;stroke-width:0.60116649;stroke-linecap:butt;stroke-linejoin:miter;stroke-miterlimit:4;stroke-opacity:1;stroke-dasharray:none" />
          <path
             d="m -71.100554,15.842151 c -2.165774,1.082887 -2.036885,2.051733 -2.488087,3.224861 -0.451203,1.173127 -2.481987,3.124514 -2.481987,3.124514"
             id="path15238"
             style="fill:#eac102;fill-opacity:1;fill-rule:evenodd;stroke:#000000;stroke-width:0.60116649;stroke-linecap:butt;stroke-linejoin:miter;stroke-miterlimit:4;stroke-opacity:1;stroke-dasharray:none" />
          <path
             d="m -69.530043,22.566644 c -2.093093,2.165773 -3.061206,0.920211 -4.598085,2.159394 -0.734931,0.592574 -2.188234,1.443849 -2.188234,1.443849"
             id="path15240"
             style="fill:#eac102;fill-opacity:1;fill-rule:evenodd;stroke:#000000;stroke-width:0.60116649;stroke-linecap:butt;stroke-linejoin:miter;stroke-miterlimit:4;stroke-opacity:1;stroke-dasharray:none" />
          <path
             d="m -83.169387,23.049443 c 2.977938,0.721924 3.762531,1.649908 4.033253,2.462073 0.270721,0.812165 1.221335,4.999544 1.221335,4.999544"
             id="path15242"
             style="fill:#eac102;fill-opacity:1;fill-rule:evenodd;stroke:#000000;stroke-width:0.60116649;stroke-linecap:butt;stroke-linejoin:miter;stroke-miterlimit:4;stroke-opacity:1;stroke-dasharray:none" />
          <path
             d="m -93.911117,23.778977 c 1.912964,2.499509 4.738014,3.665157 7.370422,2.751873"
             id="path16124"
             style="fill:#eac102;fill-opacity:1;fill-rule:evenodd;stroke:#000000;stroke-width:0.60116649;stroke-linecap:butt;stroke-linejoin:miter;stroke-miterlimit:4;stroke-opacity:1;stroke-dasharray:none" />
          <path
             d="m -81.012616,39.976935 c -1.895052,-2.165773 -2.279419,-1.353851 -3.542787,-1.624572 -1.263367,-0.270722 -5.027003,-2.420223 -5.027003,-2.420223"
             id="path16126"
             style="fill:#eac102;fill-opacity:1;fill-rule:evenodd;stroke:#000000;stroke-width:0.60116649;stroke-linecap:butt;stroke-linejoin:miter;stroke-miterlimit:4;stroke-opacity:1;stroke-dasharray:none" />
          <path
             d="m -86.010531,46.941116 c 1.31694,-0.147446 2.256474,-0.909719 2.527196,-2.082847 0.270722,-1.173127 -1.002293,-2.220866 -2.17542,-2.85255 -1.173127,-0.631684 -0.628966,-4.223929 -0.628966,-4.223929"
             id="path16128"
             style="fill:none;stroke:#000000;stroke-width:0.60116649;stroke-linecap:butt;stroke-linejoin:miter;stroke-miterlimit:4;stroke-opacity:1;stroke-dasharray:none" />
        </g>
      </g>
    </g>
    <g
       transform="matrix(0.5662821,0,0,0.51939362,229.68681,218.78508)"
       id="g3277">
      <path
         d="m 299.981,226.6149 c -5.78664,0 -11.47169,0.32187 -17.11332,0.87664 -0.34979,15.83127 -13.31934,28.58627 -29.23349,28.58625 -6.23157,-10e-5 -11.99492,-1.99996 -16.73218,-5.3361 -2.69006,-2.99101 -5.46234,-5.91891 -8.30888,-8.76645 -6.68638,3.02866 -13.15993,6.47075 -19.36199,10.29104 2.20952,2.06457 4.36672,4.1703 6.4794,6.3271 1.1405,1.36293 2.38052,2.61692 3.65896,3.84961 0.0832,0.0802 0.1449,0.18713 0.22869,0.2668 27.29583,29.4621 45.92847,67.02002 51.83525,108.70397 -46.75492,-6.62259 -88.34959,-29.25983 -119.10668,-62.16556 -3.81837,6.19754 -7.30109,12.64301 -10.329,19.32431 2.44016,2.43788 4.92448,4.84007 7.47038,7.16561 4.11718,5.03827 6.59369,11.4843 6.59381,18.48577 -1.2e-4,15.94038 -12.79538,28.88749 -28.66185,29.19608 -0.51835,5.45598 -0.7624,10.9891 -0.76228,16.58003 0,5.96856 0.28686,11.87152 0.87656,17.68535 15.81305,0.37017 28.54745,13.33255 28.54757,29.2342 -1.2e-4,5.686 -1.63836,10.99128 -4.45941,15.47469 -3.28575,2.92609 -6.48795,5.93061 -9.60478,9.03331 3.13232,6.91169 6.7331,13.57931 10.71014,19.97226 30.69049,-32.65299 72.06845,-55.12412 118.57308,-61.74635 -6.81762,46.33789 -29.36534,87.55502 -62.04984,118.08031 6.21169,3.82626 12.70256,7.25892 19.40016,10.29105 2.48566,-2.47388 4.91594,-4.9919 7.27975,-7.58495 5.01594,-4.04555 11.36167,-6.47942 18.29479,-6.47954 15.92708,1.2e-4 28.86662,12.77516 29.19544,28.62442 5.46831,0.52068 10.97566,0.80035 16.57972,0.80035 5.96837,0 11.87125,-0.32505 17.68497,-0.91476 0,-3.7e-4 0.038,3.6e-4 0.038,0 0.39066,-15.7951 13.30739,-28.51001 29.19544,-28.51001 5.70725,1.2e-4 11.01847,1.69523 15.51252,4.53574 2.90912,3.26459 5.908,6.44125 8.99494,9.52875 6.92263,-3.1358 13.60755,-6.72727 20.00988,-10.71038 -32.40191,-30.45394 -54.77888,-71.44616 -61.59248,-117.50852 46.04946,6.81766 87.06103,29.16296 117.50601,61.55571 3.97789,-6.39868 7.54013,-13.09228 10.67196,-20.01031 -2.83277,-2.83646 -5.74396,-5.58704 -8.7282,-8.27101 -3.32526,-4.74427 -5.29781,-10.51151 -5.29781,-16.73248 1.2e-4,-15.90152 12.73439,-28.82699 28.54744,-29.19608 0.5547,-5.64173 0.83851,-11.36499 0.83851,-17.15175 0,-5.77386 -0.28625,-11.48414 -0.83851,-17.11363 -15.81316,-0.37011 -28.54744,-13.33252 -28.54744,-29.2342 1.2e-4,-6.25082 1.98108,-12.02507 5.33598,-16.7706 2.96425,-2.66757 5.8736,-5.41393 8.69003,-8.23283 -3.03206,-6.69768 -6.46465,-13.18866 -10.29083,-19.40054 -2.15488,2.31175 -4.36855,4.5777 -6.63186,6.78447 -1.33893,1.14388 -2.6397,2.34259 -3.84959,3.62093 -29.18495,27.01401 -66.34692,45.53799 -107.55815,51.6077 6.6265,-46.505 29.11995,-87.89682 61.78312,-118.57575 -6.40099,-3.98391 -13.08859,-7.57352 -20.01,-10.71031 -2.8163,2.82552 -5.56149,5.72397 -8.23266,8.69022 -4.77018,3.3847 -10.60305,5.41222 -16.88451,5.41233 -15.91415,-2.1e-4 -28.8465,-12.755 -29.19544,-28.58625 -5.64163,-0.55477 -11.36485,-0.87664 -17.15137,-0.87664 z m 0,17.57101 c 6.69004,17.87251 23.44088,30.8078 43.33573,32.01659 -22.67457,33.92735 -36.33931,74.35937 -37.46615,117.92779 43.56539,-1.1196 84.03995,-14.73133 117.96325,-37.39081 1.23136,19.86442 14.20591,36.56384 32.05406,43.26052 -17.86584,6.6879 -30.83758,23.41249 -32.05406,43.29863 -33.92318,-22.65946 -74.39773,-36.30903 -117.96325,-37.42892 1.12635,43.55744 14.80195,84.00587 37.46615,117.92785 -19.64507,1.41531 -36.12344,14.35514 -42.76408,32.05465 -6.74517,-18.01932 -23.68298,-31.06976 -43.7931,-32.09283 22.63505,-33.91149 36.22564,-74.34692 37.35187,-117.88967 -43.55808,1.127 -83.9664,14.80247 -117.88715,37.46704 -1.41528,-19.64559 -14.35506,-36.12424 -32.05394,-42.76503 18.02708,-6.74823 31.07956,-23.70943 32.09212,-43.83224 33.9116,22.64681 74.30992,36.26446 117.84897,37.39081 -1.1272,-43.57095 -14.72682,-84.00142 -37.39005,-117.92779 19.87339,-1.22339 36.56069,-14.16172 43.25963,-32.01659 z"
         id="path14367"
         style="fill:#f2d207;fill-opacity:1;fill-rule:evenodd;stroke:#000000;stroke-width:3;stroke-linecap:butt;stroke-linejoin:miter;stroke-miterlimit:4;stroke-opacity:1;stroke-dasharray:none" />
      <path
         d="m 300.00004,209.99999 c -10.69972,0 -19.38348,8.68369 -19.38348,19.38366 0,10.69997 8.68376,19.38366 19.38348,19.38366 10.69973,0 19.38348,-8.68369 19.38348,-19.38366 0,-10.69997 -8.68375,-19.38366 -19.38348,-19.38366 z m -85.83426,22.86216 c -3.12478,0.0806 -6.26827,0.91902 -9.16397,2.59089 -9.26624,5.34999 -12.45075,17.21818 -7.10088,26.48461 5.34986,9.26642 17.21812,12.42694 26.48435,7.07695 9.26624,-5.34999 12.45075,-17.19419 7.10088,-26.46062 -3.67803,-6.37066 -10.44586,-9.8692 -17.32038,-9.69183 z m 170.73294,0 c -6.54594,0.14765 -12.87396,3.61073 -16.3848,9.69183 -5.34986,9.26645 -2.16535,21.11062 7.10088,26.46062 9.26624,5.35001 21.13449,2.18948 26.48435,-7.07695 5.34987,-9.26644 2.16537,-21.13461 -7.10087,-26.48461 -3.18527,-1.83906 -6.67074,-2.66822 -10.09956,-2.59089 z"
         id="path14388"
         style="fill:#f2d207;fill-opacity:1;fill-rule:evenodd;stroke:#000000;stroke-width:3;stroke-linecap:butt;stroke-linejoin:miter;stroke-miterlimit:4;stroke-opacity:1;stroke-dasharray:none" />
      <use
         transform="matrix(1,0,0,-1,0,799.99998)"
         id="use2211"
         x="0"
         y="0"
         width="600"
         height="660"
         xlink:href="#path14388" />
      <use
         transform="matrix(0,-1.0000094,0.9999906,0,-99.998019,700.00285)"
         id="use2213"
         x="0"
         y="0"
         width="600"
         height="660"
         xlink:href="#path14388" />
      <use
         transform="matrix(0,1.0000094,-0.9999906,0,699.99806,99.997143)"
         id="use2215"
         x="0"
         y="0"
         width="600"
         height="660"
         xlink:href="#path14388" />
    </g>
    <path
       d="m 95.338833,200.54042 7.199217,3.76757 c -10.42493,0.6751 -11.781913,9.57631 -9.61425,21.67498 0.788329,13.62631 3.417766,28.37624 -13.765806,31.03469 -25.308963,13.92555 -14.839417,29.15981 -19.446998,43.84263 l -7.199187,-3.76752 c 5.986345,-14.6879 -9.977217,-32.63036 19.446964,-43.84268 12.616201,-5.94153 13.499154,-18.02334 13.547303,-30.54208 -7.645216,-17.29804 0.995924,-19.82159 9.832757,-22.16759 z"
       id="rect4973"
       style="fill:#fcef3c;fill-opacity:1;stroke:#000000;stroke-width:2.12753701;stroke-miterlimit:4;stroke-opacity:1;stroke-dasharray:none" />
    <path
       d="m 156.0591,200.51118 -7.28619,3.77456 c 10.40947,0.66508 11.56111,9.5651 9.11433,21.66604 -1.10272,13.62718 -4.07247,28.37979 13.04997,31.02173 24.98799,13.90135 14.16686,29.1459 18.43578,43.82444 l 7.28617,-3.77455 c -5.64755,-14.68225 10.73009,-32.64029 -18.43573,-43.82444 -12.47927,-5.9294 -13.08351,-18.0105 -12.84283,-30.52933 8.04433,-17.30565 -0.53867,-19.82087 -9.3215,-22.15845 z"
       id="path4978"
       style="fill:#fcef3c;fill-opacity:1;stroke:#000000;stroke-width:2.12753701;stroke-miterlimit:4;stroke-opacity:1;stroke-dasharray:none" />
    <path
       d="M 70.632877,146.87275 C 76.877989,123.20347 83.123102,99.534182 92.527028,80.29456 101.93095,61.054921 114.49369,46.244947 127.05643,31.434974"
       id="path14734"
       style="fill:#ffffff;fill-opacity:1;fill-rule:evenodd;stroke:#000000;stroke-width:2.12753701;stroke-linecap:butt;stroke-linejoin:miter;stroke-miterlimit:4;stroke-opacity:1;stroke-dasharray:none" />
    <path
       d="M 183.98753,143.69736 C 177.63769,120.3809 171.28784,97.064433 161.79932,78.354039 152.3108,59.643639 139.68361,45.539309 127.05643,31.434974"
       id="path14736"
       style="fill:#ffffff;fill-opacity:1;fill-rule:evenodd;stroke:#000000;stroke-width:2.12753701;stroke-linecap:butt;stroke-linejoin:miter;stroke-miterlimit:4;stroke-opacity:1;stroke-dasharray:none" />
    <path
       d="M 83.857497,209.95548 70.632877,146.87275 C 76.877989,123.20347 83.123102,99.534182 92.527028,80.29456 101.93095,61.054921 114.49369,46.244947 127.05643,31.434974 c 12.62718,14.104335 25.25437,28.208665 34.74289,46.919065 9.48852,18.710394 15.83837,42.026861 22.18821,65.343321 l -15.11404,63.87658"
       id="path14738"
       style="fill:#fcef3c;fill-opacity:1;fill-rule:evenodd;stroke:#000000;stroke-width:2.12753701;stroke-linecap:butt;stroke-linejoin:miter;stroke-miterlimit:4;stroke-opacity:1;stroke-dasharray:none" />
    <path
       d="m 168.96703,205.253 c -0.02,-8.98253 -19.06774,-15.73117 -42.54425,-15.07353 -23.47651,0.65765 -42.491764,8.47254 -42.471749,17.45507 0.02003,8.98253 19.067739,15.73117 42.544259,15.07352 23.47651,-0.65764 42.49176,-8.47254 42.47174,-17.45506 z"
       id="mitra4-1"
       style="fill:#ffffff;fill-opacity:1;fill-rule:evenodd;stroke:#000000;stroke-width:2.12753701;stroke-linecap:butt;stroke-linejoin:miter;stroke-miterlimit:4;stroke-opacity:1;stroke-dasharray:none" />
    <path
       d="m 161.26326,197.73019 c -0.2599,0.34025 14.32897,-53.30344 14.07699,-55.02686 2.03059,-33.53719 -44.38551,-98.483944 -48.35573,-98.492653 -5.01269,-0.011 -42.747246,61.175503 -44.958126,99.691333 l 8.568019,54.33785"
       id="path4916"
       style="fill:#ffffff;fill-opacity:1;fill-rule:evenodd;stroke:#000000;stroke-width:2.12753701;stroke-linecap:butt;stroke-linejoin:miter;stroke-miterlimit:4;stroke-opacity:1;stroke-dasharray:none" />
    <path
       d="m 127.33438,156.12792 c 7.87185,-0.22052 15.7437,-0.44103 23.18444,2.06143 7.44022,2.50245 14.44986,7.72787 21.45897,12.95329 l 6.16406,-12.94395 c 0,0 -3.38193,-2.5776 -7.9125,-5.77061 -4.53057,-3.19363 -7.67124,-5.1352 -10.83384,-6.55566 -3.16207,-1.42108 -6.7623,-2.57266 -10.89925,-3.64655 -4.13747,-1.07448 -8.5168,0.24943 -10.4335,-7.5464 -1.91724,-7.79581 -1.38501,-24.95677 -1.43685,-48.211105 -0.0518,-23.254936 -0.087,-39.033711 -0.087,-39.033711 l -9.47039,-10.578247 -9.42206,11.10748 c 0,0 0.0352,15.778775 0.087,39.033717 0.0518,23.254336 0.6605,40.383326 -1.22175,48.285576 -1.88171,7.90223 -6.26534,6.82079 -10.37714,8.08358 -4.11233,1.26281 -7.67197,2.53965 -10.764128,3.99798 -3.09164,1.45771 -6.116715,3.34127 -10.446547,6.38128 -4.330356,3.04003 -7.545785,5.46809 -7.545785,5.46809 l 5.385351,14.42768 c 6.984947,-5.61744 13.970412,-11.23489 21.398549,-14.15386 7.42865,-2.91898 15.3005,-3.1395 23.17236,-3.36001 z"
       id="path14742"
       style="fill:#fcef3c;fill-opacity:1;fill-rule:evenodd;stroke:#000000;stroke-width:2.12753701;stroke-linecap:butt;stroke-linejoin:miter;stroke-miterlimit:4;stroke-opacity:1;stroke-dasharray:none" />
    <path
       d="m 123.10198,98.907901 0.0717,-22.901957 8.73047,-0.09259 -0.0717,22.901964 12.71826,-0.134876 -0.0312,9.960808 -12.71826,0.13488 -0.10629,33.9386 -8.73047,0.0926 0.10629,-33.93861 -12.71826,0.13486 0.0312,-9.960792 12.71826,-0.134881 z"
       id="rect3944"
       style="fill:#fcef3c;fill-opacity:1;stroke:#000000;stroke-width:2.12753701;stroke-miterlimit:4;stroke-opacity:1;stroke-dasharray:none" />
    <path
       d="m 87.921035,209.6054 c 0,0 9.062015,-14.15823 39.776775,-15.02773 30.61306,-0.86662 38.58442,12.80949 38.58442,12.80949 0,0 -7.75671,14.12129 -39.77677,15.02773 C 94.383626,223.32422 87.921035,209.6054 87.921035,209.6054 z"
       id="path5196"
       style="fill:#ffffff;fill-opacity:1;fill-rule:evenodd;stroke:#000000;stroke-width:0.85101485;stroke-linecap:butt;stroke-linejoin:miter;stroke-miterlimit:4;stroke-opacity:1;stroke-dasharray:none" />
    <path
       d="m 126.3399,222.19094 1.37936,-32.20335"
       id="path15858"
       style="font-size:12px;fill:#ffffff;fill-opacity:1;stroke:#000000;stroke-width:0.85101485;stroke-miterlimit:4;stroke-opacity:1;stroke-dasharray:none;display:inline" />
    <g
       transform="matrix(0.21051989,-0.00595945,-0.02917362,0.68110182,-101.49721,-105.41807)"
       id="g5198"
       style="fill:#ffffff;fill-opacity:1;stroke:#000000;stroke-width:2.24878526;stroke-miterlimit:4;stroke-opacity:1;stroke-dasharray:none">
      <path
         d="m 1103.7725,494.66239 0,-47.28126"
         id="path5200"
         style="font-size:12px;fill:#ffffff;fill-opacity:1;stroke:#000000;stroke-width:2.24878526;stroke-miterlimit:4;stroke-opacity:1;stroke-dasharray:none" />
      <path
         d="m 1095.2202,494.66239 0,-47.28126"
         id="path5202"
         style="font-size:12px;fill:#ffffff;fill-opacity:1;stroke:#000000;stroke-width:2.24878526;stroke-miterlimit:4;stroke-opacity:1;stroke-dasharray:none" />
      <path
         d="m 1087.1469,494.66239 0,-47.28126"
         id="path5204"
         style="font-size:12px;fill:#ffffff;fill-opacity:1;stroke:#000000;stroke-width:2.24878526;stroke-miterlimit:4;stroke-opacity:1;stroke-dasharray:none" />
      <path
         d="m 1079.1436,494.66239 0,-47.28126"
         id="path5206"
         style="font-size:12px;fill:#ffffff;fill-opacity:1;stroke:#000000;stroke-width:2.24878526;stroke-miterlimit:4;stroke-opacity:1;stroke-dasharray:none" />
      <path
         d="m 1072.0123,494.66239 0,-47.28126"
         id="path5208"
         style="font-size:12px;fill:#ffffff;fill-opacity:1;stroke:#000000;stroke-width:2.24878526;stroke-miterlimit:4;stroke-opacity:1;stroke-dasharray:none" />
      <path
         d="m 1058.4116,492.11312 -0.1884,-43.03375 m 6.6362,43.5999 0,-45.01327"
         id="path5210"
         style="font-size:12px;fill:#ffffff;fill-opacity:1;stroke:#000000;stroke-width:2.24878526;stroke-miterlimit:4;stroke-opacity:1;stroke-dasharray:none" />
      <path
         d="m 1045.8549,490.17809 0,-39.64835 m 6.3618,40.78051 -0.1884,-42.19388"
         id="path5212"
         style="font-size:12px;fill:#ffffff;fill-opacity:1;stroke:#000000;stroke-width:2.24878526;stroke-miterlimit:4;stroke-opacity:1;stroke-dasharray:none" />
      <path
         d="m 1029.0088,487.91377 0,-34.83477 m 5.5274,35.40085 0,-36.53308 m 5.6944,37.66524 0,-37.95011"
         id="path5214"
         style="font-size:12px;fill:#ffffff;fill-opacity:1;stroke:#000000;stroke-width:2.24878526;stroke-miterlimit:4;stroke-opacity:1;stroke-dasharray:none" />
      <path
         d="m 1023.1045,487.62889 0,-33.69893"
         id="path5216"
         style="font-size:12px;fill:#ffffff;fill-opacity:1;stroke:#000000;stroke-width:2.24878526;stroke-miterlimit:4;stroke-opacity:1;stroke-dasharray:none" />
      <path
         d="m 1017.5986,485.93058 0,-31.43454"
         id="path5218"
         style="font-size:12px;fill:#ffffff;fill-opacity:1;stroke:#000000;stroke-width:2.24878526;stroke-miterlimit:4;stroke-opacity:1;stroke-dasharray:none" />
      <path
         d="m 1011.6944,485.07956 0,-29.17016"
         id="path5220"
         style="font-size:12px;fill:#ffffff;fill-opacity:1;stroke:#000000;stroke-width:2.24878526;stroke-miterlimit:4;stroke-opacity:1;stroke-dasharray:none" />
      <path
         d="m 999.60603,482.53403 -0.18848,-23.22433 m 6.38325,24.35657 0,-26.05488"
         id="path5222"
         style="font-size:12px;fill:#ffffff;fill-opacity:1;stroke:#000000;stroke-width:2.24878526;stroke-miterlimit:4;stroke-opacity:1;stroke-dasharray:none" />
      <path
         d="m 993.41113,480.55084 0,-20.39393"
         id="path5224"
         style="font-size:12px;fill:#ffffff;fill-opacity:1;stroke:#000000;stroke-width:2.24878526;stroke-miterlimit:4;stroke-opacity:1;stroke-dasharray:none" />
      <path
         d="m 987.73833,478.89702 0,-16.98269"
         id="path5226"
         style="font-size:12px;fill:#ffffff;fill-opacity:1;stroke:#000000;stroke-width:2.24878526;stroke-miterlimit:4;stroke-opacity:1;stroke-dasharray:none" />
      <path
         d="m 981.54344,476.6327 0,-13.30126"
         id="path5228"
         style="font-size:12px;fill:#ffffff;fill-opacity:1;stroke:#000000;stroke-width:2.24878526;stroke-miterlimit:4;stroke-opacity:1;stroke-dasharray:none" />
      <path
         d="m 975.17634,475.50054 0,-9.90471"
         id="path5230"
         style="font-size:12px;fill:#ffffff;fill-opacity:1;stroke:#000000;stroke-width:2.24878526;stroke-miterlimit:4;stroke-opacity:1;stroke-dasharray:none" />
      <path
         d="m 968.43748,473.23838 0,-4.8133"
         id="path6898"
         style="font-size:12px;fill:#ffffff;fill-opacity:1;stroke:#000000;stroke-width:2.24878526;stroke-miterlimit:4;stroke-opacity:1;stroke-dasharray:none" />
      <path
         d="m 1137.7985,492.11312 0,-43.31489 m -14.4887,44.73199 0.1883,-45.86422 m -10.7482,46.4303 0,-46.71517"
         id="path6900"
         style="font-size:12px;fill:#ffffff;fill-opacity:1;stroke:#000000;stroke-width:2.24878526;stroke-miterlimit:4;stroke-opacity:1;stroke-dasharray:none" />
      <path
         d="m 1198.5142,494.66239 0,-47.28126"
         id="path5236"
         style="font-size:12px;fill:#ffffff;fill-opacity:1;stroke:#000000;stroke-width:2.24878526;stroke-miterlimit:4;stroke-opacity:1;stroke-dasharray:none" />
      <path
         d="m 1207.0664,494.66239 0,-47.28126"
         id="path6903"
         style="font-size:12px;fill:#ffffff;fill-opacity:1;stroke:#000000;stroke-width:2.24878526;stroke-miterlimit:4;stroke-opacity:1;stroke-dasharray:none" />
      <path
         d="m 1215.1397,494.66239 0,-47.28126"
         id="path5240"
         style="font-size:12px;fill:#ffffff;fill-opacity:1;stroke:#000000;stroke-width:2.24878526;stroke-miterlimit:4;stroke-opacity:1;stroke-dasharray:none" />
      <path
         d="m 1223.143,494.66239 0,-47.28126"
         id="path5242"
         style="font-size:12px;fill:#ffffff;fill-opacity:1;stroke:#000000;stroke-width:2.24878526;stroke-miterlimit:4;stroke-opacity:1;stroke-dasharray:none" />
      <path
         d="m 1230.2743,494.66239 0,-47.28126"
         id="path6907"
         style="font-size:12px;fill:#ffffff;fill-opacity:1;stroke:#000000;stroke-width:2.24878526;stroke-miterlimit:4;stroke-opacity:1;stroke-dasharray:none" />
      <path
         d="m 1243.8751,492.11312 0.1884,-43.03375 m -6.6363,43.5999 0,-45.01327"
         id="path6909"
         style="font-size:12px;fill:#ffffff;fill-opacity:1;stroke:#000000;stroke-width:2.24878526;stroke-miterlimit:4;stroke-opacity:1;stroke-dasharray:none" />
      <path
         d="m 1256.4317,490.17809 0,-39.64835 m -6.3617,40.78051 0.1883,-42.19388"
         id="path6911"
         style="font-size:12px;fill:#ffffff;fill-opacity:1;stroke:#000000;stroke-width:2.24878526;stroke-miterlimit:4;stroke-opacity:1;stroke-dasharray:none" />
      <path
         d="m 1273.2779,487.91377 0,-34.83477 m -5.5275,35.40085 0,-36.53308 m -5.6944,37.66524 0,-37.95011"
         id="path6913"
         style="font-size:12px;fill:#ffffff;fill-opacity:1;stroke:#000000;stroke-width:2.24878526;stroke-miterlimit:4;stroke-opacity:1;stroke-dasharray:none" />
      <path
         d="m 1279.1822,487.62889 0,-33.69893"
         id="path6915"
         style="font-size:12px;fill:#ffffff;fill-opacity:1;stroke:#000000;stroke-width:2.24878526;stroke-miterlimit:4;stroke-opacity:1;stroke-dasharray:none" />
      <path
         d="m 1284.6881,485.93058 0,-31.43454"
         id="path5254"
         style="font-size:12px;fill:#ffffff;fill-opacity:1;stroke:#000000;stroke-width:2.24878526;stroke-miterlimit:4;stroke-opacity:1;stroke-dasharray:none" />
      <path
         d="m 1290.5923,485.07956 0,-29.17016"
         id="path6918"
         style="font-size:12px;fill:#ffffff;fill-opacity:1;stroke:#000000;stroke-width:2.24878526;stroke-miterlimit:4;stroke-opacity:1;stroke-dasharray:none" />
      <path
         d="m 1302.6806,482.53403 0.1885,-23.22433 m -6.3833,24.35657 0,-26.05488"
         id="path6920"
         style="font-size:12px;fill:#ffffff;fill-opacity:1;stroke:#000000;stroke-width:2.24878526;stroke-miterlimit:4;stroke-opacity:1;stroke-dasharray:none" />
      <path
         d="m 1308.8755,480.55084 0,-20.39393"
         id="path6922"
         style="font-size:12px;fill:#ffffff;fill-opacity:1;stroke:#000000;stroke-width:2.24878526;stroke-miterlimit:4;stroke-opacity:1;stroke-dasharray:none" />
      <path
         d="m 1314.5483,478.89702 0,-16.98269"
         id="path5262"
         style="font-size:12px;fill:#ffffff;fill-opacity:1;stroke:#000000;stroke-width:2.24878526;stroke-miterlimit:4;stroke-opacity:1;stroke-dasharray:none" />
      <path
         d="m 1320.7432,476.6327 0,-13.30126"
         id="path6925"
         style="font-size:12px;fill:#ffffff;fill-opacity:1;stroke:#000000;stroke-width:2.24878526;stroke-miterlimit:4;stroke-opacity:1;stroke-dasharray:none" />
      <path
         d="m 1327.1103,475.50054 0,-9.90471"
         id="path6927"
         style="font-size:12px;fill:#ffffff;fill-opacity:1;stroke:#000000;stroke-width:2.24878526;stroke-miterlimit:4;stroke-opacity:1;stroke-dasharray:none" />
      <path
         d="m 1333.8491,473.23838 0,-4.8133"
         id="path6929"
         style="font-size:12px;fill:#ffffff;fill-opacity:1;stroke:#000000;stroke-width:2.24878526;stroke-miterlimit:4;stroke-opacity:1;stroke-dasharray:none" />
      <path
         d="m 1164.4881,492.11312 0,-43.31489 m 14.4888,44.73199 -0.1883,-45.86422 m 10.7481,46.4303 0,-46.71517"
         id="path6931"
         style="font-size:12px;fill:#ffffff;fill-opacity:1;stroke:#000000;stroke-width:2.24878526;stroke-miterlimit:4;stroke-opacity:1;stroke-dasharray:none" />
    </g>
    <path
       d="m 127.75495,224.44613 1.37936,-32.20335"
       id="path15860"
       style="font-size:12px;fill:#ffffff;fill-opacity:1;stroke:#000000;stroke-width:0.85101485;stroke-miterlimit:4;stroke-opacity:1;stroke-dasharray:none;display:inline" />
    <path
       d="M 122.01763,224.36155 123.397,192.1582"
       id="path15862"
       style="font-size:12px;fill:#ffffff;fill-opacity:1;stroke:#000000;stroke-width:0.85101485;stroke-miterlimit:4;stroke-opacity:1;stroke-dasharray:none;display:inline" />
    <path
       d="M 130.71353,224.86905 132.0929,192.6657"
       id="path15864"
       style="font-size:12px;fill:#ffffff;fill-opacity:1;stroke:#000000;stroke-width:0.85101485;stroke-miterlimit:4;stroke-opacity:1;stroke-dasharray:none;display:inline" />
    <path
       d="m 124.90773,225.36238 1.37936,-32.20335"
       id="path15866"
       style="font-size:12px;fill:#ffffff;fill-opacity:1;stroke:#000000;stroke-width:0.85101485;stroke-miterlimit:4;stroke-opacity:1;stroke-dasharray:none;display:inline" />
    <path
       d="m 128.07205,185.02377 c -11.93541,0.74257 -23.99102,1.12691 -36.043954,9.58751 -2.727016,2.75814 -6.527182,4.35808 -7.914937,13.89337 -0.661789,7.95027 2.144283,11.23751 3.895549,13.36768 8.420118,8.33994 17.678652,8.80907 26.726602,9.89399 14.12639,0.52417 28.36304,0.47962 42.6987,-6.33202 3.94485,-2.52474 8.2384,-4.13603 11.74592,-12.36493 2.14386,-6.06871 0.42016,-14.41919 -1.59084,-16.09025 -6.77014,-8.73322 -14.53031,-9.46376 -22.01762,-11.06894 -5.80234,-0.87331 -11.64508,-1.03898 -17.49942,-0.88641 z m -0.37644,9.55575 c 30.61301,-0.86657 38.58675,12.81082 38.58675,12.81082 0,0 -7.75923,14.12278 -39.77923,15.02923 -32.121876,0.90933 -38.580205,-12.81103 -38.580205,-12.81103 0,0 9.057883,-14.15952 39.772685,-15.02902 z"
       id="path6933"
       style="fill:#fcef3c;fill-opacity:1;fill-rule:evenodd;stroke:#000000;stroke-width:2.12753701;stroke-linecap:butt;stroke-linejoin:miter;stroke-miterlimit:4;stroke-opacity:1;stroke-dasharray:none" />
  </g>
  <g
     id="layer2"
     style="display:none">
    <path
       d="m 300.00001,658.5 c 0,0 298.5,-112.32031 298.5,-397.77183 0,-285.451504 0,-258.5516835 0,-258.5516835 l -597.00001,0 0,258.5516835 C 1.5,546.17969 300.00001,658.5 300.00001,658.5 z"
       id="path2875"
       style="fill:url(#radialGradient3163);fill-opacity:1;fill-rule:evenodd;stroke:none" />
  </g>
  <g
     id="layer1"
     style="display:none">
    <path
       d="m 299.99999,658.50028 c 0,0 -298.49999,-112.32036 -298.49999,-397.772 0,-285.451616 0,-258.5517843 0,-258.5517843 l 596.99999,0 0,258.5517843 c 0,285.45164 -298.5,397.772 -298.5,397.772 z"
       id="path1411"
       style="fill:none;stroke:#000000;stroke-width:3.00000048;stroke-linecap:butt;stroke-linejoin:miter;stroke-miterlimit:4;stroke-opacity:1;stroke-dasharray:none" />
  </g>
  <path
     style="fill:url(#radialGradient3616);fill-opacity:1;fill-rule:evenodd;stroke:none;display:inline"
     id="path2875-4"
     d="m 299.23729,658.16176 c 0,0 298.5,-112.32031 298.5,-397.77183 0,-285.451515 0,-258.5516949 0,-258.5516949 l -597.00000627,0 0,258.5516949 c 0,285.45152 298.50000627,397.77183 298.50000627,397.77183 z" />
  <g
     id="layer1-8"
     style="display:inline"
     transform="translate(2.0339,-0.33838898)">
    <path
       d="m 299.99999,658.50028 c 0,0 -298.49999,-112.32036 -298.49999,-397.772 0,-285.451616 0,-258.5517843 0,-258.5517843 l 596.99999,0 0,258.5517843 c 0,285.45164 -298.5,397.772 -298.5,397.772 z"
       id="path1411-8"
       style="fill:none;stroke:#000000;stroke-width:3;stroke-linecap:butt;stroke-linejoin:miter;stroke-miterlimit:4;stroke-opacity:1;stroke-dasharray:none" />
  </g>
</svg>
