<?xml version="1.0" encoding="UTF-8" standalone="no"?>
<svg
   xmlns:dc="http://purl.org/dc/elements/1.1/"
   xmlns:cc="http://creativecommons.org/ns#"
   xmlns:rdf="http://www.w3.org/1999/02/22-rdf-syntax-ns#"
   xmlns:svg="http://www.w3.org/2000/svg"
   xmlns="http://www.w3.org/2000/svg"
   xmlns:xlink="http://www.w3.org/1999/xlink"
   xmlns:sodipodi="http://sodipodi.sourceforge.net/DTD/sodipodi-0.dtd"
   xmlns:inkscape="http://www.inkscape.org/namespaces/inkscape"
   height="660"
   width="600"
   version="1.0"
   id="svg2"
   sodipodi:version="0.32"
   inkscape:version="0.48.0 r9654"
   sodipodi:docname="écartelé.svg"
   inkscape:export-filename="/Users/olivier/Desktop/Blason Rouge/Blason_Vide_3D.png"
   inkscape:export-xdpi="144"
   inkscape:export-ydpi="144"
   inkscape:output_extension="org.inkscape.output.svg.inkscape">
  <metadata
     id="metadata49">
    <rdf:RDF>
      <cc:Work
         rdf:about="">
        <dc:format>image/svg+xml</dc:format>
        <dc:type
           rdf:resource="http://purl.org/dc/dcmitype/StillImage" />
        <dc:title></dc:title>
        <dc:date>03-AUG-2006</dc:date>
        <dc:creator>
          <cc:Agent>
            <dc:title>Jérôme BLUM (wagner51)</dc:title>
          </cc:Agent>
        </dc:creator>
        <cc:license
           rdf:resource="http://web.resource.org/cc/PublicDomain" />
        <dc:language>fr</dc:language>
        <dc:subject>
          <rdf:Bag>
            <rdf:li>gabarit modèle blason projet wikipédia</rdf:li>
          </rdf:Bag>
        </dc:subject>
      </cc:Work>
      <cc:License
         rdf:about="http://web.resource.org/cc/PublicDomain">
        <cc:permits
           rdf:resource="http://web.resource.org/cc/Reproduction" />
        <cc:permits
           rdf:resource="http://web.resource.org/cc/Distribution" />
        <cc:permits
           rdf:resource="http://web.resource.org/cc/DerivativeWorks" />
      </cc:License>
    </rdf:RDF>
  </metadata>
  <sodipodi:namedview
     inkscape:window-height="1014"
     inkscape:window-width="1920"
     inkscape:pageshadow="2"
     inkscape:pageopacity="1"
     guidetolerance="10.0"
     gridtolerance="10.0"
     objecttolerance="10.0"
     borderopacity="1.0"
     bordercolor="#666666"
     pagecolor="#ffffff"
     id="base"
     showgrid="false"
     height="660px"
     inkscape:zoom="1.2318182"
     inkscape:cx="392.95203"
     inkscape:cy="330"
     inkscape:window-x="-4"
     inkscape:window-y="-4"
     inkscape:current-layer="layer5"
     showguides="true"
     inkscape:guide-bbox="true"
     inkscape:window-maximized="1" />
  <desc
     id="desc4">Flag of Canton of Valais (Wallis)</desc>
  <defs
     id="defs6">
    <inkscape:perspective
       sodipodi:type="inkscape:persp3d"
       inkscape:vp_x="0 : 330 : 1"
       inkscape:vp_y="0 : 1000 : 0"
       inkscape:vp_z="600 : 330 : 1"
       inkscape:persp3d-origin="300 : 220 : 1"
       id="perspective2491" />
    <linearGradient
       id="linearGradient2893">
      <stop
         style="stop-color:white;stop-opacity:0.3137255;"
         offset="0"
         id="stop2895" />
      <stop
         id="stop2897"
         offset="0.19"
         style="stop-color:white;stop-opacity:0.25098041;" />
      <stop
         style="stop-color:#6b6b6b;stop-opacity:0.1254902;"
         offset="0.60000002"
         id="stop2901" />
      <stop
         style="stop-color:black;stop-opacity:0.1254902;"
         offset="1"
         id="stop2899" />
    </linearGradient>
    <linearGradient
       id="linearGradient2885">
      <stop
         id="stop2887"
         offset="0"
         style="stop-color:white;stop-opacity:1;" />
      <stop
         style="stop-color:white;stop-opacity:1;"
         offset="0.22857143"
         id="stop2891" />
      <stop
         id="stop2889"
         offset="1"
         style="stop-color:black;stop-opacity:1;" />
    </linearGradient>
    <linearGradient
       id="linearGradient2955">
      <stop
         id="stop2867"
         offset="0"
         style="stop-color:#fd0000;stop-opacity:1;" />
      <stop
         style="stop-color:#e77275;stop-opacity:0.65882355;"
         offset="0.5"
         id="stop2873" />
      <stop
         style="stop-color:black;stop-opacity:0.32291666;"
         offset="1"
         id="stop2959" />
    </linearGradient>
    <radialGradient
       inkscape:collect="always"
       xlink:href="#linearGradient2955"
       id="radialGradient2961"
       cx="225.52438"
       cy="218.90099"
       fx="225.52438"
       fy="218.90099"
       r="300"
       gradientTransform="matrix(-4.167939e-4,2.182867,-1.884232,-3.599562e-4,615.5972,-289.1214)"
       gradientUnits="userSpaceOnUse" />
    <polygon
       id="star"
       transform="scale(53,53)"
       points="0,-1 0.58778525,0.80901699 -0.95105652,-0.30901699 0.95105652,-0.30901699 -0.58778525,0.80901699 0,-1 " />
    <clipPath
       id="clip">
      <path
         d="M 0,-200 L 0,600 L 300,600 L 300,-200 L 0,-200 z"
         id="path10" />
    </clipPath>
    <radialGradient
       inkscape:collect="always"
       xlink:href="#linearGradient2955"
       id="radialGradient1911"
       gradientUnits="userSpaceOnUse"
       gradientTransform="matrix(-4.167939e-4,2.182867,-1.884232,-3.599562e-4,615.5972,-289.1214)"
       cx="225.52438"
       cy="218.90099"
       fx="225.52438"
       fy="218.90099"
       r="300" />
    <radialGradient
       inkscape:collect="always"
       xlink:href="#linearGradient2955"
       id="radialGradient2865"
       gradientUnits="userSpaceOnUse"
       gradientTransform="matrix(0,1.748721,-1.593162,-1.049767e-7,551.7876,-191.2898)"
       cx="225.52438"
       cy="218.90099"
       fx="225.52438"
       fy="218.90099"
       r="300" />
    <radialGradient
       inkscape:collect="always"
       xlink:href="#linearGradient2955"
       id="radialGradient2871"
       gradientUnits="userSpaceOnUse"
       gradientTransform="matrix(0,1.386237,-1.323286,-5.741131e-8,-158.0823,-109.5408)"
       cx="225.52438"
       cy="218.90099"
       fx="225.52438"
       fy="218.90099"
       r="300" />
    <radialGradient
       inkscape:collect="always"
       xlink:href="#linearGradient2893"
       id="radialGradient3163"
       gradientUnits="userSpaceOnUse"
       gradientTransform="matrix(1.353218,0,0,1.348928,-77.62935,-85.74693)"
       cx="221.44487"
       cy="226.33101"
       fx="221.44487"
       fy="226.33101"
       r="300" />
    <inkscape:perspective
       id="perspective10"
       inkscape:persp3d-origin="372.04724 : 350.78739 : 1"
       inkscape:vp_z="744.09448 : 526.18109 : 1"
       inkscape:vp_y="0 : 1000 : 0"
       inkscape:vp_x="0 : 526.18109 : 1"
       sodipodi:type="inkscape:persp3d" />
    <radialGradient
       r="300"
       fy="226.33101"
       fx="221.44487"
       cy="226.33101"
       cx="221.44487"
       gradientTransform="matrix(1.353218,0,0,1.348928,-77.62935,-85.74693)"
       gradientUnits="userSpaceOnUse"
       id="radialGradient2930"
       xlink:href="#linearGradient2893"
       inkscape:collect="always" />
    <radialGradient
       r="300"
       fy="218.90099"
       fx="225.52438"
       cy="218.90099"
       cx="225.52438"
       gradientTransform="matrix(0,1.386237,-1.323286,-5.741131e-8,-158.0823,-109.5408)"
       gradientUnits="userSpaceOnUse"
       id="radialGradient2928"
       xlink:href="#linearGradient2955"
       inkscape:collect="always" />
    <radialGradient
       r="300"
       fy="218.90099"
       fx="225.52438"
       cy="218.90099"
       cx="225.52438"
       gradientTransform="matrix(0,1.748721,-1.593162,-1.049767e-7,551.7876,-191.2898)"
       gradientUnits="userSpaceOnUse"
       id="radialGradient2926"
       xlink:href="#linearGradient2955"
       inkscape:collect="always" />
    <radialGradient
       r="300"
       fy="218.90099"
       fx="225.52438"
       cy="218.90099"
       cx="225.52438"
       gradientTransform="matrix(-4.167939e-4,2.182867,-1.884232,-3.599562e-4,615.5972,-289.1214)"
       gradientUnits="userSpaceOnUse"
       id="radialGradient2924"
       xlink:href="#linearGradient2955"
       inkscape:collect="always" />
    <clipPath
       id="clipPath2920">
      <path
         id="path2922"
         d="M 0,-200 L 0,600 L 300,600 L 300,-200 L 0,-200 z" />
    </clipPath>
    <polygon
       points="0,-1 0.58778525,0.80901699 -0.95105652,-0.30901699 0.95105652,-0.30901699 -0.58778525,0.80901699 0,-1 "
       transform="scale(53,53)"
       id="polygon2918" />
    <radialGradient
       gradientUnits="userSpaceOnUse"
       gradientTransform="matrix(-4.167939e-4,2.182867,-1.884232,-3.599562e-4,615.5972,-289.1214)"
       r="300"
       fy="218.90099"
       fx="225.52438"
       cy="218.90099"
       cx="225.52438"
       id="radialGradient2916"
       xlink:href="#linearGradient2955"
       inkscape:collect="always" />
    <linearGradient
       id="linearGradient2908">
      <stop
         style="stop-color:#fd0000;stop-opacity:1;"
         offset="0"
         id="stop2910" />
      <stop
         id="stop2912"
         offset="0.5"
         style="stop-color:#e77275;stop-opacity:0.65882355;" />
      <stop
         id="stop2914"
         offset="1"
         style="stop-color:black;stop-opacity:0.32291666;" />
    </linearGradient>
    <linearGradient
       id="linearGradient2900">
      <stop
         style="stop-color:white;stop-opacity:1;"
         offset="0"
         id="stop2902" />
      <stop
         id="stop2904"
         offset="0.22857143"
         style="stop-color:white;stop-opacity:1;" />
      <stop
         style="stop-color:black;stop-opacity:1;"
         offset="1"
         id="stop2906" />
    </linearGradient>
    <linearGradient
       id="linearGradient2889">
      <stop
         id="stop2892"
         offset="0"
         style="stop-color:white;stop-opacity:0.3137255;" />
      <stop
         style="stop-color:white;stop-opacity:0.25098041;"
         offset="0.19"
         id="stop2894" />
      <stop
         id="stop2896"
         offset="0.60000002"
         style="stop-color:#6b6b6b;stop-opacity:0.1254902;" />
      <stop
         id="stop2898"
         offset="1"
         style="stop-color:black;stop-opacity:0.1254902;" />
    </linearGradient>
    <inkscape:perspective
       id="perspective2887"
       inkscape:persp3d-origin="300 : 220 : 1"
       inkscape:vp_z="600 : 330 : 1"
       inkscape:vp_y="0 : 1000 : 0"
       inkscape:vp_x="0 : 330 : 1"
       sodipodi:type="inkscape:persp3d" />
    <inkscape:perspective
       id="perspective2721"
       inkscape:persp3d-origin="71.801674 : 67.586817 : 1"
       inkscape:vp_z="143.60335 : 101.38023 : 1"
       inkscape:vp_y="0 : 1000 : 0"
       inkscape:vp_x="0 : 101.38023 : 1"
       sodipodi:type="inkscape:persp3d" />
    <inkscape:perspective
       id="perspective2969"
       inkscape:persp3d-origin="372.04724 : 350.78739 : 1"
       inkscape:vp_z="744.09448 : 526.18109 : 1"
       inkscape:vp_y="0 : 1000 : 0"
       inkscape:vp_x="0 : 526.18109 : 1"
       sodipodi:type="inkscape:persp3d" />
    <inkscape:perspective
       sodipodi:type="inkscape:persp3d"
       inkscape:vp_x="0 : 0.5 : 1"
       inkscape:vp_y="0 : 1000 : 0"
       inkscape:vp_z="1 : 0.5 : 1"
       inkscape:persp3d-origin="0.5 : 0.33333333 : 1"
       id="perspective4043" />
    <inkscape:perspective
       sodipodi:type="inkscape:persp3d"
       inkscape:vp_x="0 : 0.5 : 1"
       inkscape:vp_y="0 : 1000 : 0"
       inkscape:vp_z="1 : 0.5 : 1"
       inkscape:persp3d-origin="0.5 : 0.33333333 : 1"
       id="perspective3075-52" />
    <inkscape:perspective
       sodipodi:type="inkscape:persp3d"
       inkscape:vp_x="0 : 0.5 : 1"
       inkscape:vp_y="0 : 1000 : 0"
       inkscape:vp_z="1 : 0.5 : 1"
       inkscape:persp3d-origin="0.5 : 0.33333333 : 1"
       id="perspective3075-7" />
    <inkscape:perspective
       sodipodi:type="inkscape:persp3d"
       inkscape:vp_x="0 : 0.5 : 1"
       inkscape:vp_y="0 : 1000 : 0"
       inkscape:vp_z="1 : 0.5 : 1"
       inkscape:persp3d-origin="0.5 : 0.33333333 : 1"
       id="perspective3075-5" />
    <inkscape:perspective
       sodipodi:type="inkscape:persp3d"
       inkscape:vp_x="0 : 0.5 : 1"
       inkscape:vp_y="0 : 1000 : 0"
       inkscape:vp_z="1 : 0.5 : 1"
       inkscape:persp3d-origin="0.5 : 0.33333333 : 1"
       id="perspective3075" />
    <inkscape:perspective
       sodipodi:type="inkscape:persp3d"
       inkscape:vp_x="0 : 0.5 : 1"
       inkscape:vp_y="0 : 1000 : 0"
       inkscape:vp_z="1 : 0.5 : 1"
       inkscape:persp3d-origin="0.5 : 0.33333333 : 1"
       id="perspective3024-8" />
    <inkscape:perspective
       sodipodi:type="inkscape:persp3d"
       inkscape:vp_x="0 : 0.5 : 1"
       inkscape:vp_y="0 : 1000 : 0"
       inkscape:vp_z="1 : 0.5 : 1"
       inkscape:persp3d-origin="0.5 : 0.33333333 : 1"
       id="perspective3024-9" />
    <inkscape:perspective
       sodipodi:type="inkscape:persp3d"
       inkscape:vp_x="0 : 0.5 : 1"
       inkscape:vp_y="0 : 1000 : 0"
       inkscape:vp_z="1 : 0.5 : 1"
       inkscape:persp3d-origin="0.5 : 0.33333333 : 1"
       id="perspective3024-7" />
    <inkscape:perspective
       sodipodi:type="inkscape:persp3d"
       inkscape:vp_x="0 : 0.5 : 1"
       inkscape:vp_y="0 : 1000 : 0"
       inkscape:vp_z="1 : 0.5 : 1"
       inkscape:persp3d-origin="0.5 : 0.33333333 : 1"
       id="perspective3024" />
    <inkscape:perspective
       sodipodi:type="inkscape:persp3d"
       inkscape:vp_x="0 : 0.5 : 1"
       inkscape:vp_y="0 : 1000 : 0"
       inkscape:vp_z="1 : 0.5 : 1"
       inkscape:persp3d-origin="0.5 : 0.33333333 : 1"
       id="perspective6197-72" />
    <inkscape:perspective
       sodipodi:type="inkscape:persp3d"
       inkscape:vp_x="0 : 0.5 : 1"
       inkscape:vp_y="0 : 1000 : 0"
       inkscape:vp_z="1 : 0.5 : 1"
       inkscape:persp3d-origin="0.5 : 0.33333333 : 1"
       id="perspective6197-7" />
    <inkscape:perspective
       sodipodi:type="inkscape:persp3d"
       inkscape:vp_x="0 : 0.5 : 1"
       inkscape:vp_y="0 : 1000 : 0"
       inkscape:vp_z="1 : 0.5 : 1"
       inkscape:persp3d-origin="0.5 : 0.33333333 : 1"
       id="perspective6197-0" />
    <inkscape:perspective
       sodipodi:type="inkscape:persp3d"
       inkscape:vp_x="0 : 0.5 : 1"
       inkscape:vp_y="0 : 1000 : 0"
       inkscape:vp_z="1 : 0.5 : 1"
       inkscape:persp3d-origin="0.5 : 0.33333333 : 1"
       id="perspective6197" />
    <inkscape:perspective
       sodipodi:type="inkscape:persp3d"
       inkscape:vp_x="0 : 0.5 : 1"
       inkscape:vp_y="0 : 1000 : 0"
       inkscape:vp_z="1 : 0.5 : 1"
       inkscape:persp3d-origin="0.5 : 0.33333333 : 1"
       id="perspective6145-5" />
    <inkscape:perspective
       sodipodi:type="inkscape:persp3d"
       inkscape:vp_x="0 : 0.5 : 1"
       inkscape:vp_y="0 : 1000 : 0"
       inkscape:vp_z="1 : 0.5 : 1"
       inkscape:persp3d-origin="0.5 : 0.33333333 : 1"
       id="perspective6145-3" />
    <inkscape:perspective
       sodipodi:type="inkscape:persp3d"
       inkscape:vp_x="0 : 0.5 : 1"
       inkscape:vp_y="0 : 1000 : 0"
       inkscape:vp_z="1 : 0.5 : 1"
       inkscape:persp3d-origin="0.5 : 0.33333333 : 1"
       id="perspective6145" />
    <inkscape:perspective
       sodipodi:type="inkscape:persp3d"
       inkscape:vp_x="0 : 0.5 : 1"
       inkscape:vp_y="0 : 1000 : 0"
       inkscape:vp_z="1 : 0.5 : 1"
       inkscape:persp3d-origin="0.5 : 0.33333333 : 1"
       id="perspective6110" />
    <inkscape:perspective
       sodipodi:type="inkscape:persp3d"
       inkscape:vp_x="0 : 0.5 : 1"
       inkscape:vp_y="0 : 1000 : 0"
       inkscape:vp_z="1 : 0.5 : 1"
       inkscape:persp3d-origin="0.5 : 0.33333333 : 1"
       id="perspective5579" />
    <radialGradient
       r="300"
       fy="226.33101"
       fx="221.44487"
       cy="226.33101"
       cx="221.44487"
       gradientTransform="matrix(1.353218,0,0,1.348928,-77.62935,-85.74693)"
       gradientUnits="userSpaceOnUse"
       id="radialGradient3163-2"
       xlink:href="#linearGradient2893-1"
       inkscape:collect="always" />
    <radialGradient
       r="300"
       fy="218.90099"
       fx="225.52438"
       cy="218.90099"
       cx="225.52438"
       gradientTransform="matrix(0,1.386237,-1.323286,-5.741131e-8,-158.0823,-109.5408)"
       gradientUnits="userSpaceOnUse"
       id="radialGradient2871-8"
       xlink:href="#linearGradient2955-6"
       inkscape:collect="always" />
    <radialGradient
       r="300"
       fy="218.90099"
       fx="225.52438"
       cy="218.90099"
       cx="225.52438"
       gradientTransform="matrix(0,1.748721,-1.593162,-1.049767e-7,551.7876,-191.2898)"
       gradientUnits="userSpaceOnUse"
       id="radialGradient2865-8"
       xlink:href="#linearGradient2955-6"
       inkscape:collect="always" />
    <radialGradient
       r="300"
       fy="218.90099"
       fx="225.52438"
       cy="218.90099"
       cx="225.52438"
       gradientTransform="matrix(-4.167939e-4,2.182867,-1.884232,-3.599562e-4,615.5972,-289.1214)"
       gradientUnits="userSpaceOnUse"
       id="radialGradient1911-7"
       xlink:href="#linearGradient2955-6"
       inkscape:collect="always" />
    <clipPath
       id="clip-6">
      <path
         id="path10-3"
         d="m 0,-200 0,800 300,0 0,-800 -300,0 z" />
    </clipPath>
    <polygon
       points="0.95105652,-0.30901699 -0.58778525,0.80901699 0,-1 0,-1 0.58778525,0.80901699 -0.95105652,-0.30901699 "
       transform="scale(53,53)"
       id="star-9" />
    <radialGradient
       gradientUnits="userSpaceOnUse"
       gradientTransform="matrix(-4.167939e-4,2.182867,-1.884232,-3.599562e-4,615.5972,-289.1214)"
       r="300"
       fy="218.90099"
       fx="225.52438"
       cy="218.90099"
       cx="225.52438"
       id="radialGradient2961-4"
       xlink:href="#linearGradient2955-6"
       inkscape:collect="always" />
    <linearGradient
       id="linearGradient2955-6">
      <stop
         style="stop-color:#fd0000;stop-opacity:1;"
         offset="0"
         id="stop2867-6" />
      <stop
         id="stop2873-1"
         offset="0.5"
         style="stop-color:#e77275;stop-opacity:0.65882355;" />
      <stop
         id="stop2959-8"
         offset="1"
         style="stop-color:black;stop-opacity:0.32291666;" />
    </linearGradient>
    <linearGradient
       id="linearGradient2885-4">
      <stop
         style="stop-color:white;stop-opacity:1;"
         offset="0"
         id="stop2887-4" />
      <stop
         id="stop2891-6"
         offset="0.22857143"
         style="stop-color:white;stop-opacity:1;" />
      <stop
         style="stop-color:black;stop-opacity:1;"
         offset="1"
         id="stop2889-0" />
    </linearGradient>
    <linearGradient
       id="linearGradient2893-1">
      <stop
         id="stop2895-3"
         offset="0"
         style="stop-color:white;stop-opacity:0.3137255;" />
      <stop
         style="stop-color:white;stop-opacity:0.25098041;"
         offset="0.19"
         id="stop2897-8" />
      <stop
         id="stop2901-9"
         offset="0.60000002"
         style="stop-color:#6b6b6b;stop-opacity:0.1254902;" />
      <stop
         id="stop2899-3"
         offset="1"
         style="stop-color:black;stop-opacity:0.1254902;" />
    </linearGradient>
    <inkscape:perspective
       id="perspective2491-6"
       inkscape:persp3d-origin="300 : 220 : 1"
       inkscape:vp_z="600 : 330 : 1"
       inkscape:vp_y="0 : 1000 : 0"
       inkscape:vp_x="0 : 330 : 1"
       sodipodi:type="inkscape:persp3d" />
    <inkscape:perspective
       id="perspective2969-9"
       inkscape:persp3d-origin="372.04724 : 350.78739 : 1"
       inkscape:vp_z="744.09448 : 526.18109 : 1"
       inkscape:vp_y="0 : 1000 : 0"
       inkscape:vp_x="0 : 526.18109 : 1"
       sodipodi:type="inkscape:persp3d" />
  </defs>
  <g
     inkscape:groupmode="layer"
     id="layer3"
     inkscape:label="Fond écu"
     style="display:inline">
    <path
       id="path2855"
       style="fill:#ffffff;fill-opacity:1;fill-rule:evenodd;stroke:#000000;stroke-opacity:1;stroke-width:3;stroke-miterlimit:4;stroke-dasharray:none"
       d="m 300,658.5 c 0,0 298.50001,-112.32031 298.50001,-397.77183 0,-285.451524 0,-258.5516935 0,-258.5516935 l -597.00001,0 0,258.5516935 C 1.5,546.17969 300,658.5 300,658.5 z"
       sodipodi:nodetypes="cccccc"
       inkscape:connector-curvature="0" />
    <g
       id="layer1-0"
       inkscape:label="Calque 1"
       transform="matrix(0.73974298,0,0,0.73974298,-136.51169,-190.063)"
       style="fill:#000000;stroke:#5e5353;stroke-opacity:1;stroke-width:2.02773131;stroke-miterlimit:4;stroke-dasharray:none">
      <g
         style="fill:#000000;stroke:#5e5353;stroke-width:4.25850042;stroke-miterlimit:4;stroke-opacity:1;stroke-dasharray:none;display:inline"
         transform="matrix(0.47616088,0,0,0.47616088,591.71591,333.63587)"
         id="g5468">
        <g
           id="g7704"
           style="fill:#000000;stroke:#5e5353;stroke-width:2.04168336;stroke-miterlimit:4;stroke-opacity:1;stroke-dasharray:none;display:inline"
           transform="matrix(2.0436864,0,0,2.1287387,-1030.3068,27.468464)">
          <path
             sodipodi:nodetypes="czcczcc"
             id="rect7172"
             d="m 23.809525,-146.49767 c 0,0 38.888888,-29.99234 131.349215,-30 92.46366,-0.008 131.34921,30 131.34921,30 l 0,110.317464 c 0,0 -37.97619,32.7936508 -131.34921,32 -92.579427,-0.7869054 -131.349215,-32 -131.349215,-32 l 0,-110.317464 z"
             style="fill:#000000;stroke:#5e5353;stroke-width:2.04168336;stroke-miterlimit:4;stroke-opacity:1;stroke-dasharray:none"
             transform="translate(134.12248,218.91144)"
             inkscape:connector-curvature="0" />
        </g>
        <path
           sodipodi:nodetypes="cccccccccccccccc"
           id="path7724"
           style="fill:#000000;fill-rule:evenodd;stroke:#5e5353;stroke-width:4.25850042;stroke-linecap:butt;stroke-linejoin:miter;stroke-miterlimit:4;stroke-opacity:1;stroke-dasharray:none;display:inline"
           d="m -698.96616,286.68574 c 181.12037,-11.54534 338.3608,-10.7487 519.48117,0 m -519.48117,-27.2367 c 178.93533,-49.87132 336.22068,-47.63206 519.48117,0 m -519.48117,-34.16415 c 181.12037,-74.66732 338.3608,-64.85189 519.48117,0 m -519.48117,-34.57421 c 178.76813,-83.30448 336.39504,-68.42289 519.48117,1.19463 m -519.48117,124.9708 c 181.12037,11.54534 338.3608,10.7487 519.48117,0 m -519.48117,27.2367 c 178.93533,49.87132 336.22068,47.63208 519.48117,0 m -519.48117,34.16415 c 181.12037,74.66732 338.3608,64.8519 519.48117,0 m -519.48117,34.57421 c 178.76813,83.30448 336.39504,68.42289 519.48117,-1.19463"
           inkscape:connector-curvature="0" />
        <path
           id="path7702"
           d="m -511.57631,120.96469 c -8.88708,0.8523 -17.43816,1.87589 -25.67381,2.99354 l 0,353.03801 c 8.22143,1.21864 16.80216,2.3738 25.67381,3.32615 l 0,-359.3577 z m 144.59082,0 0,360.42207 c 8.89732,-0.84841 17.501,-1.8487 25.73767,-2.99354 l 0,-354.43499 c -8.23577,-1.11706 -16.85039,-2.14215 -25.73767,-2.99354 z m -314.79157,44.77004 c -17.58528,9.01597 -25.92928,15.69944 -25.92928,15.69944 l 0,234.82649 c 0,0 8.32995,6.97637 25.92928,16.4312 l 0,-266.95713 z m 484.99232,0 0,267.88846 c 17.66624,-9.91629 25.92927,-17.36253 25.92927,-17.36253 l 0,-234.82649 c 0,0 -8.34471,-6.67998 -25.92927,-15.69944 z"
           style="fill:#000000;stroke:#5e5353;stroke-width:4.25850042;stroke-miterlimit:4;stroke-opacity:1;stroke-dasharray:none;display:inline"
           inkscape:connector-curvature="0" />
        <path
           style="fill:#000000;fill-opacity:1;fill-rule:nonzero;stroke:#5e5353;stroke-width:4.25850042;stroke-miterlimit:4;stroke-opacity:1;stroke-dasharray:none"
           d="m -452.17712,95.793358 24.35424,0 -3.24723,22.730632 -17.04797,-0.81181 z"
           id="rect5187"
           inkscape:connector-curvature="0"
           sodipodi:nodetypes="ccccc" />
        <path
           style="fill:#000000;stroke:#5e5353;stroke-width:4.25850042;stroke-miterlimit:4;stroke-opacity:1;stroke-dasharray:none;display:inline"
           d="m -509.99195,121.71116 c -0.0798,-0.0657 -0.74167,-0.15802 -1.47091,-0.20538 -3.37105,-0.2189 -6.98125,-0.98609 -9.31475,-1.97943 -3.26948,-1.39183 -8.00344,-4.71592 -9.02811,-6.33942 -0.23423,-0.37114 -0.7262,-0.9998 -1.0932,-1.39704 -0.36701,-0.39721 -1.10087,-1.66249 -1.63087,-2.81171 -0.80368,-1.74285 -0.98729,-2.47591 -1.10648,-4.41856 l -0.14284,-2.32905 0.75444,-0.49492 c 0.69356,-0.45498 0.91172,-0.47922 2.70293,-0.30033 1.07159,0.10703 2.28933,0.13996 2.70598,0.0732 1.25307,-0.20084 1.8392,0.49084 1.84312,2.17482 0.005,1.94964 1.13381,5.04204 2.24361,6.14359 1.68616,1.67366 4.68411,3.43811 6.36568,3.7465 0.60151,0.11033 2.27177,0.25439 3.7117,0.32013 2.97365,0.13576 3.66047,-0.0256 6.43809,-1.51281 2.84331,-1.52237 4.78777,-3.85867 5.69419,-6.84166 0.69893,-2.30007 0.0227,-4.89406 -1.90563,-7.310498 -0.64173,-0.804151 -1.30318,-1.816376 -1.46989,-2.249375 -0.16672,-0.433009 -0.95326,-1.344008 -1.74792,-2.024441 -0.79465,-0.680441 -2.13944,-2.011453 -2.9884,-2.957809 -0.84897,-0.946356 -1.67277,-1.786343 -1.83067,-1.866635 -0.15793,-0.0803 -0.83951,-0.824327 -1.51466,-1.653418 -0.67513,-0.82909 -1.46328,-1.760493 -1.75143,-2.069782 -1.52957,-1.641796 -3.6063,-4.576355 -5.66208,-8.000801 -1.2677,-2.111696 -2.30489,-3.922607 -2.30489,-4.024242 0,-0.101633 -0.25933,-0.651383 -0.57629,-1.221655 -0.31697,-0.570272 -0.74266,-1.340522 -0.94598,-1.711672 -0.77563,-1.415845 -3.63333,-9.08284 -4.06628,-10.909489 -0.24924,-1.051584 -0.62044,-2.620526 -0.82489,-3.486539 -1.0487,-4.441998 -1.5369,-8.352715 -1.55055,-12.420376 -0.0133,-3.797162 0.24247,-8.020779 0.59505,-9.848475 0.14314,-0.742294 0.4483,-2.412459 0.67796,-3.711475 0.22971,-1.299016 0.61104,-2.969179 0.84754,-3.711476 0.55117,-1.730372 1.75244,-5.040562 2.04072,-5.623447 0.12238,-0.247433 0.46391,-1.107821 0.75889,-1.911972 0.29502,-0.804155 0.92461,-2.221264 1.3991,-3.149137 0.47444,-0.927861 0.96421,-1.953045 1.08834,-2.278189 0.48907,-1.280988 2.40862,-4.6698856 2.92739,-5.1681514 0.20663,-0.1984445 0.83493,-1.1094512 1.39623,-2.0244499 1.11076,-1.8105792 3.14415,-4.3509045 5.43596,-6.79120823 0.80299,-0.85501697 1.45997,-1.62865847 1.45997,-1.71921057 0,-0.090554 0.52714,-0.6115041 1.17141,-1.157681 0.64429,-0.546177 1.65933,-1.5487249 2.25568,-2.2278855 2.14985,-2.4484564 11.60717,-9.9782204 13.59294,-10.8224494 0.56392,-0.239755 1.0253,-0.513606 1.0253,-0.608563 0,-0.170206 2.30862,-1.51215 4.95619,-2.880881 0.74559,-0.385456 1.6272,-0.905639 1.95916,-1.155949 0.33196,-0.250312 1.09569,-0.657791 1.6972,-0.905528 0.60149,-0.247724 2.95914,-1.22058 5.23918,-2.161888 2.28002,-0.941309 4.26674,-1.711474 4.4149,-1.711474 0.14819,0 1.01336,-0.303665 1.92262,-0.674804 0.90925,-0.371152 1.86355,-0.674816 2.12063,-0.674816 0.25708,0 1.15599,-0.26847 1.9976,-0.596603 1.59569,-0.622171 2.54504,-0.87159 6.86172,-1.802831 8.50917,-1.83567 13.72718,-2.475121 21.87313,-2.68046 4.76215,-0.120086 11.45576,0.115934 13.80743,0.486732 0.45112,0.07115 1.06632,0.129763 1.36707,0.130274 0.64975,0.0011 3.38514,0.426998 6.97206,1.085521 1.4286,0.262271 3.08956,0.562079 3.69108,0.666237 2.26192,0.391679 5.22323,1.142561 8.47585,2.149172 1.05264,0.325779 2.25933,0.681322 2.68154,0.790094 0.42221,0.108735 1.31039,0.447326 1.9737,0.752335 0.66334,0.305006 1.66883,0.680211 2.23441,0.833782 1.19068,0.323275 4.93548,1.845322 6.4571,2.624433 0.57373,0.293768 1.4489,0.721593 1.94479,0.950755 0.49593,0.229148 1.19074,0.552681 1.54404,0.718958 0.3533,0.166275 1.87737,1.014922 3.38679,1.885876 1.50942,0.870941 3.05201,1.744338 3.42794,1.940878 0.37594,0.196542 1.05264,0.633653 1.50378,0.971343 0.45114,0.337701 1.25086,0.936976 1.77719,1.331718 0.52633,0.39473 1.44909,1.014556 2.05063,1.377384 1.26589,0.763575 3.53702,2.48359 5.15989,3.9077888 0.62074,0.5447491 1.55924,1.3641063 2.08556,1.8207818 2.31975,2.012783 5.41736,5.1683346 6.50631,6.6279725 0.40653,0.54494412 1.60042,2.01391757 2.65308,3.2643712 2.42725,2.8833593 2.90985,3.5791293 5.62051,8.1031687 2.23458,3.729455 2.35763,3.953076 2.9708,5.39852 2.46971,5.821853 2.75833,6.557764 2.75672,7.028412 -8.7e-4,0.216008 0.2297,0.975174 0.51208,1.687029 1.28914,3.249661 2.15522,7.527471 2.48719,12.284967 0.8502,12.184554 -0.46956,20.144537 -5.29264,31.921748 -0.39389,0.961832 -1.09497,2.429556 -1.55794,3.261596 -0.46298,0.832052 -1.09637,2.069538 -1.40755,2.749973 -0.31118,0.680441 -0.96598,1.754999 -1.45509,2.387916 -0.48911,0.632909 -1.40461,1.948797 -2.03443,2.924189 -1.09183,1.690867 -2.47915,3.499772 -3.43029,4.472697 -0.24188,0.24743 -0.92681,1.130964 -1.52208,1.963403 -0.59524,0.832442 -2.10777,2.401386 -3.36115,3.486538 -3.50872,3.037787 -5.3996,4.842573 -5.71996,5.459548 -0.16061,0.309289 -0.44107,0.714175 -0.62322,0.899752 -0.18213,0.185571 -0.54342,1.039267 -0.80279,1.897115 -0.67895,2.245418 -0.39892,4.970858 0.71924,6.999658 1.45864,2.6466 4.90895,4.96427 8.44949,5.67577 3.29868,0.66292 4.95003,0.49442 8.10457,-0.82692 2.26365,-0.94817 3.89129,-2.25996 5.43255,-4.37838 1.24923,-1.71695 1.76981,-3.26652 1.88124,-5.599543 0.0329,-0.691255 0.0799,-0.700384 3.21172,-0.624489 1.06703,0.02587 1.89065,-0.05662 1.99838,-0.199993 0.24963,-0.332283 0.69761,-0.308437 0.69888,0.03722 4.2e-4,0.154644 0.26589,0.635448 0.58964,1.068455 1.18436,1.5841 0.42405,5.4128 -1.83143,9.22246 -0.79416,1.34142 -2.89297,3.88839 -3.79981,4.61123 -0.31043,0.24743 -0.77785,0.72229 -1.03871,1.05526 -0.93209,1.18979 -5.01794,3.28271 -8.27496,4.23873 -3.48698,1.02354 -4.5967,1.18699 -8.20243,1.20825 -4.11725,0.0243 -5.71832,-0.1366 -7.79693,-0.78341 -0.82452,-0.25657 -1.81393,-0.54751 -2.19866,-0.64653 -1.44387,-0.37158 -4.42084,-1.88698 -5.83245,-2.96891 -0.29876,-0.22901 -0.62877,-0.41635 -0.73337,-0.41635 -0.1046,0 -1.13423,-0.93632 -2.28811,-2.08069 -2.68737,-2.66526 -3.82347,-4.45403 -5.03588,-7.92905 -0.46407,-1.33015 -0.83388,-5.903874 -0.58198,-7.198016 0.26758,-1.374761 0.93798,-3.35588 1.53172,-4.526508 0.58261,-1.148668 3.00076,-4.460083 4.08628,-5.595705 0.47302,-0.494863 1.07769,-1.247457 1.34371,-1.672432 0.26603,-0.424975 1.0578,-1.386585 1.75952,-2.13691 1.44883,-1.549188 3.57922,-4.285785 3.57922,-4.597711 0,-0.114312 0.44565,-0.749436 0.99033,-1.411374 0.90416,-1.098797 2.53761,-3.757579 4.26332,-6.939446 0.58707,-1.08242 2.26168,-5.510234 3.36034,-8.885048 0.44638,-1.371206 1.11853,-5.246837 1.4629,-8.435171 0.29748,-2.754062 0.16812,-9.330488 -0.21237,-10.797019 -0.14447,-0.556722 -0.33964,-1.752524 -0.43378,-2.657343 -0.0943,-0.90482 -0.34752,-2.056295 -0.56304,-2.558833 -0.21552,-0.502537 -0.39185,-1.157821 -0.39185,-1.456181 0,-0.968531 -3.64707,-9.978118 -4.40874,-10.89118 -0.26645,-0.319396 -0.74682,-1.129169 -1.06752,-1.799498 -0.96177,-2.010276 -5.75003,-8.174393 -7.27185,-9.361326 -0.50743,-0.395767 -0.9226,-0.825959 -0.9226,-0.955978 0,-0.130018 -0.27684,-0.463949 -0.61518,-0.742047 -0.33836,-0.278111 -1.16886,-1.067532 -1.84555,-1.754272 -3.42804,-3.4789131 -10.8932,-8.437099 -16.77,-11.13823256 -1.32867,-0.61069833 -2.98965,-1.38371834 -3.69109,-1.71783104 -0.70143,-0.3341258 -2.22562,-0.9163772 -3.38708,-1.2939116 -1.16145,-0.3775223 -2.54935,-0.8886252 -3.08424,-1.1357755 -0.53487,-0.2471495 -1.20754,-0.4493647 -1.49485,-0.4493647 -0.28731,0 -0.59001,-0.09006 -0.67269,-0.2000925 -0.0827,-0.1100778 -0.55129,-0.2486016 -1.04143,-0.3079236 -0.49013,-0.059314 -1.81389,-0.3349194 -2.94173,-0.6124802 -6.09048,-1.4988242 -5.92837,-1.4742335 -13.3973,-2.0323822 -7.27552,-0.5436881 -15.15523,-0.064679 -22.07818,1.3421757 -0.63911,0.1298736 -1.6234,0.3274139 -2.18732,0.438968 -3.94457,0.7803544 -6.53667,1.5684946 -11.96186,3.6370853 -0.60151,0.2293451 -1.64732,0.6190822 -2.32402,0.8660733 -0.67671,0.2469911 -1.84555,0.76071895 -2.59745,1.14163339 -0.75186,0.38090242 -1.79769,0.86706171 -2.32401,1.0803582 -0.52632,0.21327228 -1.86072,0.89270181 -2.96531,1.50983141 -1.10459,0.6171174 -2.50387,1.3954097 -3.10952,1.7295232 -1.83665,1.0132618 -7.02991,5.0488104 -9.49433,7.3778154 -0.98181,0.927874 -1.90985,1.798572 -2.06228,1.934912 -0.15246,0.136328 -0.76933,0.8279 -1.37083,1.536814 -0.60153,0.708913 -1.37049,1.573595 -1.70886,1.921511 -0.33836,0.347904 -0.61517,0.740948 -0.61517,0.873441 0,0.132479 -0.34573,0.573369 -0.76832,0.979746 -0.76849,0.739049 -1.09479,1.165747 -3.14522,4.112947 -2.8385,4.079958 -3.50889,5.456135 -5.91706,12.146647 -1.22792,3.411469 -1.46478,4.437462 -2.08891,9.048081 -0.76759,5.670476 -0.27342,13.558341 1.15945,18.506811 0.64197,2.21718 2.00747,6.061018 2.55702,7.198012 0.26907,0.556723 0.69782,1.467724 0.95275,2.024442 1.01546,2.217597 4.11493,7.121743 5.77114,9.131448 0.96391,1.169624 1.75257,2.176124 1.75257,2.236663 0,0.101782 1.49246,1.717797 3.13654,3.396196 0.38019,0.388126 0.69125,0.762771 0.69125,0.83255 0,0.06976 1.06062,1.417108 2.35694,2.994082 2.79858,3.404481 3.2659,4.23662 3.96032,7.051985 0.72657,2.94569 0.79051,3.80757 0.48288,6.50968 -0.33987,2.98507 -1.45014,5.74702 -3.2154,7.99881 -1.05448,1.34508 -3.24314,3.6908 -4.07862,4.37127 -2.54568,2.0734 -7.00058,4.04924 -10.7161,4.75281 -0.52631,0.0997 -1.44909,0.27781 -2.0506,0.39587 -1.54093,0.30245 -3.59319,0.49535 -3.76509,0.35391 z"
           id="path2026"
           sodipodi:nodetypes="cssssscccsssssssssssssssssssssssssssssssssssssssssssssssssssssssssssssssssssssssssssssssssssssssssssssssssssssssssssssssssssssssssssssssssssssssssssssssssssssssssssssssssssc"
           inkscape:connector-curvature="0" />
      </g>
    </g>
    <path
       inkscape:connector-curvature="0"
       sodipodi:nodetypes="cccccc"
       id="path5587-7"
       d="m 343.40478,368.05367 c 0.18043,-2.37394 2.5476,-5.76492 6.32086,-6.71952 7.86367,0.46764 9.60086,1.55967 12.27944,7.12012 0.30851,4.12519 -4.16055,6.4956 -5.35033,7.46525 -1.18979,0.96965 -8.41345,-1.36255 -12.19251,-1.45805 -1.5115,-1.46814 -0.91025,-2.26973 -1.05746,-6.4078 z"
       style="fill:#000000;fill-opacity:1;stroke:#5e5353;stroke-width:2;stroke-linecap:butt;stroke-linejoin:miter;stroke-miterlimit:4;stroke-opacity:1;stroke-dasharray:none;display:inline" />
    <path
       inkscape:connector-curvature="0"
       sodipodi:nodetypes="cccc"
       id="path6135-24"
       d="m 338.22298,445.57999 c -2.82151,1.79615 -1.73965,7.37878 -0.92985,8.63672 1.68702,-0.73702 4.51377,-5.87823 4.51377,-5.87823 -1.93833,-0.93367 -2.46815,-1.44768 -3.58392,-2.75849 z"
       style="fill:#000000;fill-opacity:1;stroke:#5e5353;stroke-width:2;stroke-linecap:butt;stroke-linejoin:miter;stroke-miterlimit:4;stroke-opacity:1;stroke-dasharray:none;display:inline" />
    <path
       inkscape:connector-curvature="0"
       sodipodi:nodetypes="ccccccccccccccccccc"
       id="path3014"
       d="m 378.80993,411.38302 c -1.89911,4.46692 -7.53617,7.49828 -11.83528,10.20474 -4.29911,2.70647 -9.24089,2.19541 -14.39114,5.81285 -5.15025,3.61743 -14.64426,16.73156 -14.18632,18.21414 0.65227,2.29761 2.80645,2.6972 3.74942,2.98137 0.28541,0.17336 0.90232,-3.76359 3.65433,-5.00361 -1.81558,1.074 -2.61588,1.79338 -3.63164,4.93474 0.23359,1.17989 3.7556,3.30124 6.46712,2.2441 0.39108,-2.35459 0.50579,-4.8825 2.35789,-6.06727 -1.82752,1.35501 -1.96894,4.20553 -2.24412,5.98765 1.13913,1.4215 6.54437,2.00867 6.80351,0.62659 0,0 0.56822,-5.32858 2.62946,-6.75483 -2.22379,1.75585 -2.04439,4.55178 -2.66541,6.66266 1.26123,1.30069 5.91569,1.30872 6.25791,0.3111 0.72329,-1.60313 5.21744,-9.66428 7.36868,-14.72881 1.91572,-0.75814 6.36748,2.67453 9.58279,2.57969 4.44857,-0.0753 13.45491,-9.5261 23.68137,-12.70053 1.63091,-2.37483 -17.01061,-16.10496 -24.66138,-15.67269 l 1.06281,0.36811 z"
       style="fill:#000000;fill-opacity:1;stroke:#5e5353;stroke-width:2;stroke-linecap:butt;stroke-linejoin:miter;stroke-miterlimit:4;stroke-opacity:1;stroke-dasharray:none" />
    <path
       inkscape:connector-curvature="0"
       sodipodi:nodetypes="cccc"
       id="path6135-1"
       d="m 349.83111,451.5138 c -1.80188,2.81785 1.53859,7.06515 2.80307,7.8647 1.21935,-1.37928 1.6164,-7.2329 1.6164,-7.2329 -2.15127,-0.0299 -2.85524,0.0868 -4.41947,-0.6318 z"
       style="fill:#000000;fill-opacity:1;stroke:#5e5353;stroke-width:2;stroke-linecap:butt;stroke-linejoin:miter;stroke-miterlimit:4;stroke-opacity:1;stroke-dasharray:none;display:inline" />
    <path
       inkscape:connector-curvature="0"
       sodipodi:nodetypes="cccc"
       id="path6135-40"
       d="m 356.33494,451.95751 c -1.41024,3.03287 2.50762,7.15434 3.86739,7.77823 1.02463,-1.52949 0.63797,-7.38382 0.63797,-7.38382 -2.13608,0.25706 -2.85931,0.10926 -4.50536,-0.39441 z"
       style="fill:#000000;fill-opacity:1;stroke:#5e5353;stroke-width:2;stroke-linecap:butt;stroke-linejoin:miter;stroke-miterlimit:4;stroke-opacity:1;stroke-dasharray:none;display:inline" />
    <path
       inkscape:connector-curvature="0"
       sodipodi:nodetypes="cccc"
       id="path6135-48"
       d="m 342.93675,449.80198 c -2.02626,2.66108 1.43751,7.45727 2.63238,8.35755 1.32805,-1.27497 2.14383,-7.12155 2.14383,-7.12155 -2.80583,0.3555 -3.27598,-0.39193 -4.77621,-1.236 z"
       style="fill:#000000;fill-opacity:1;stroke:#5e5353;stroke-width:2;stroke-linecap:butt;stroke-linejoin:miter;stroke-miterlimit:4;stroke-opacity:1;stroke-dasharray:none;display:inline" />
    <path
       inkscape:connector-curvature="0"
       sodipodi:nodetypes="cccccccccccccccccccc"
       id="path6187"
       d="m 461.4973,418.19366 c 0,0 -11.07572,11.48183 -11.66108,18.33514 -0.58537,6.85332 6.03711,12.57965 7.32305,18.24575 -6.23979,0.0682 -13.01504,-1.74311 -20.55739,0.94978 -0.68481,2.31559 -0.18025,2.77037 1.02594,4.21941 1.38221,-1.41236 3.28428,-1.82357 5.93661,-1.69385 -2.85468,-0.11768 -3.79733,0.26 -6.00454,1.71968 -0.002,0.87236 0.79583,3.71198 2.93692,4.11593 3.38799,-2.60849 2.18759,-2.51106 5.09254,-3.35675 -3.75193,1.38196 -3.73762,2.13022 -4.939,3.51283 0.31198,1.60595 4.7751,2.84918 7.06461,2.29595 0.51369,-2.3239 0.45975,-3.63655 3.03031,-5.03995 -2.40883,1.39705 -2.76269,2.89179 -2.86101,5.14152 1.38999,0.32292 3.70569,1.07132 7.47466,1.33974 3.72056,-0.27648 9.74404,-0.0134 12.85273,-1.55291 3.48512,-2.11602 4.41997,-2.94549 5.86355,-6.00796 1.60751,-3.53585 0.25624,-9.06571 -0.59935,-13.03766 3.07771,-2.46328 8.52873,-5.74161 13.00827,-13.98642 -0.26536,-8.68854 3.55312,-25.98584 3.55312,-25.98584 l -28.53994,10.78561 z"
       style="fill:#000000;fill-opacity:1;stroke:#5e5353;stroke-width:2;stroke-linecap:butt;stroke-linejoin:miter;stroke-miterlimit:4;stroke-opacity:1;stroke-dasharray:none" />
    <path
       inkscape:connector-curvature="0"
       sodipodi:nodetypes="cccc"
       id="path6135-2"
       d="m 442.05494,465.54971 c -2.45079,2.57378 -1.6815,5.74761 -1.00712,7.08308 1.75462,-0.55727 5.14205,-5.83224 5.14205,-5.83224 -2.72126,-0.66314 -2.49389,-0.46956 -4.13493,-1.25084 z"
       style="fill:#000000;fill-opacity:1;stroke:#5e5353;stroke-width:2;stroke-linecap:butt;stroke-linejoin:miter;stroke-miterlimit:4;stroke-opacity:1;stroke-dasharray:none;display:inline" />
    <path
       inkscape:connector-curvature="0"
       sodipodi:nodetypes="cccc"
       id="path6135-9"
       d="m 449.74339,467.00735 c -2.24509,1.81003 -1.43186,5.88109 -0.75135,7.21341 1.75203,-0.56538 4.38331,-6.41399 4.38331,-6.41399 -1.93489,-0.51253 -2.17728,-0.34813 -3.63196,-0.79942 z"
       style="fill:#000000;fill-opacity:1;stroke:#5e5353;stroke-width:2;stroke-linecap:butt;stroke-linejoin:miter;stroke-miterlimit:4;stroke-opacity:1;stroke-dasharray:none;display:inline" />
    <path
       inkscape:connector-curvature="0"
       sodipodi:nodetypes="cccc"
       id="path6135-3"
       d="m 437.6045,460.42101 c -3.2591,0.75193 -4.1017,6.37565 -3.75797,7.83169 1.83626,-0.13198 6.21628,-4.03558 6.21628,-4.03558 -1.51581,-1.52684 -1.8438,-2.18816 -2.45831,-3.79611 z"
       style="fill:#000000;fill-opacity:1;stroke:#5e5353;stroke-width:2;stroke-linecap:butt;stroke-linejoin:miter;stroke-miterlimit:4;stroke-opacity:1;stroke-dasharray:none;display:inline" />
    <path
       inkscape:connector-curvature="0"
       sodipodi:nodetypes="cccc"
       id="path6135-60"
       d="m 436.3388,456.15812 c -3.29067,-0.37133 -6.32156,3.732 -6.59099,4.95868 1.73692,0.43482 7.32107,-1.30377 7.32107,-1.30377 -0.77696,-1.62415 -0.81218,-2.23155 -0.73008,-3.65491 z"
       style="fill:#000000;fill-opacity:1;stroke:#5e5353;stroke-width:2;stroke-linecap:butt;stroke-linejoin:miter;stroke-miterlimit:4;stroke-opacity:1;stroke-dasharray:none;display:inline" />
    <path
       inkscape:connector-curvature="0"
       sodipodi:nodetypes="cccccccccccccccccccccccccc"
       id="path5585"
       d="m 316.93467,389.81313 c 13.82563,-7.92729 21.31336,-15.10225 30.53418,-22.58292 7.00353,-2.84918 8.70697,-2.65126 13.37843,-2.40427 4.67146,0.24698 14.15738,1.96018 21.55674,1.84379 7.39937,-0.1164 10.00516,-6.33479 20.7956,-7.06475 10.23209,-0.90047 27.31133,5.97302 32.42844,6.07538 5.44439,1.10597 29.02471,-4.95613 43.35122,-0.0249 17.26285,6.43321 19.37427,16.80703 29.05843,25.21094 4.1388,2.55863 7.06565,0.84226 10.29903,-1.02286 0,0 -0.8889,8.70579 -4.99206,11.12333 -5.21734,3.8676 -18.34954,-5.13194 -18.34954,-5.13194 0,0 -2.65754,14.19835 -6.10887,18.07975 -4.08349,6.52278 -6.54388,6.47946 -12.53879,8.81493 -5.99495,2.33549 -14.06988,-0.22812 -19.999,1.64123 -4.64699,1.70142 -8.64532,4.75256 -16.72105,6.75443 -13.45616,0.75038 -36.41656,-0.14009 -48.08393,-1.20104 -13.0068,-3.81981 -13.98779,-15.59802 -21.03592,-21.15299 -4.61689,-0.3206 -7.04699,0.29009 -12.28474,0.73869 -5.50923,-1.58499 -8.10937,-3.7688 -11.16222,-3.86238 -2.91021,0.24503 -10.42474,4.36464 -13.80546,4.20074 -0.96062,-2.01948 -1.27175,-1.05475 -1.61875,-4.2446 -0.347,-3.18986 3.52721,-4.5387 7.06973,-5.70602 3.54251,-1.16733 19.8101,-1.40427 10.5744,-1.3901 -9.23569,0.0142 -17.87161,2.53665 -26.0649,0.91849 -3.21415,-1.38812 -5.75409,-4.71292 -6.28097,-9.61293 l 0,-10e-6 z"
       style="fill:#000000;fill-opacity:1;stroke:#5e5353;stroke-width:2;stroke-linecap:butt;stroke-linejoin:miter;stroke-miterlimit:4;stroke-opacity:1;stroke-dasharray:none" />
    <path
       inkscape:connector-curvature="0"
       sodipodi:nodetypes="ccccc"
       id="path5587"
       d="m 361.76686,374.55076 c -1.5115,-1.46813 -0.91026,-2.26972 -1.05746,-6.40779 0.18042,-2.37394 2.54759,-5.76492 6.32085,-6.71953 7.86367,0.46765 9.60086,1.55967 12.27945,7.12013 0.30851,4.12519 -4.16055,6.4956 -5.35034,7.46525"
       style="fill:#000000;fill-opacity:1;stroke:#5e5353;stroke-width:2;stroke-linecap:butt;stroke-linejoin:miter;stroke-miterlimit:4;stroke-opacity:1;stroke-dasharray:none" />
    <path
       inkscape:connector-curvature="0"
       sodipodi:nodetypes="ccscc"
       id="path5589"
       d="m 368.30629,369.93459 c -0.32877,1.75984 1.70452,4.09692 0.80915,4.71918 -2.56437,0.33586 -5.31458,-1.84863 -5.66324,-4.51073 -0.34866,-2.6621 3.10194,-7.29023 7.91095,-5.31744 2.28616,1.09901 -3.32642,2.33985 -3.05686,5.10899 z"
       style="color:#000000;fill:#000000;fill-opacity:1;stroke:#5e5353;stroke-width:2;stroke-linecap:round;stroke-linejoin:miter;stroke-miterlimit:4;stroke-opacity:1;stroke-dasharray:none;stroke-dashoffset:0;marker:none;visibility:visible;display:inline;overflow:visible;enable-background:accumulate" />
    <path
       inkscape:connector-curvature="0"
       sodipodi:nodetypes="ccccccccc"
       id="path6124"
       d="m 335.51327,385.8605 c 1.59747,-1.08901 1.98689,-0.7869 3.95722,-1.51133 2.62598,-0.7843 3.50195,-2.92667 6.56302,-3.66378 2.69174,-0.15182 4.51411,0.19068 7.38828,1.13701 0.85648,0.10058 1.45024,-0.0563 3.39643,-0.042 -1.49604,0.96865 -1.02584,0.11325 -2.98824,1.40175 -1.73979,1.77265 -2.45745,4.06364 -6.08193,4.43842 -3.12427,0.0884 -6.58409,-0.88249 -8.17885,-1.11198 -2.44372,-0.59839 -1.76048,-0.52054 -4.05593,-0.64812 z"
       style="fill:#000000;fill-opacity:1;stroke:#5e5353;stroke-width:2;stroke-linecap:butt;stroke-linejoin:miter;stroke-miterlimit:4;stroke-opacity:1;stroke-dasharray:none" />
    <path
       inkscape:connector-curvature="0"
       sodipodi:nodetypes="csscccsc"
       id="path6126"
       d="m 352.68882,383.44316 c 0.245,1.87065 -1.84006,3.6862 -4.65711,4.05516 -2.81706,0.36896 -5.29935,-0.8484 -5.54435,-2.71905 -0.0613,-0.46766 0.0462,-1.9966 1.05146,-2.82367 0.3462,-0.33902 2.19139,3.93898 4.17684,3.75704 -1.68362,-2.44971 -2.6006,-4.49206 -2.01281,-4.74338 0.5878,-0.25132 0.73736,-0.15291 1.44162,-0.24515 2.81706,-0.36896 5.29934,0.8484 5.54435,2.71905 z"
       style="color:#000000;fill:#ffffff;fill-opacity:1;stroke:#5e5353;stroke-width:2;stroke-linecap:round;stroke-linejoin:miter;stroke-miterlimit:4;stroke-opacity:1;stroke-dasharray:none;stroke-dashoffset:0;marker:none;visibility:visible;display:inline;overflow:visible;enable-background:accumulate" />
    <path
       inkscape:connector-curvature="0"
       sodipodi:nodetypes="ccccc"
       id="path6129"
       d="m 317.37465,390.20796 c 0.18301,2.16739 1.01087,4.31136 1.01087,4.31136 0,0 3.72865,-1.90738 5.15334,-2.99131 0.30574,-2.03167 -0.54184,-3.64846 -1.66925,-4.7808 -1.82364,1.14744 -3.85243,2.27954 -4.49496,3.46075 z"
       style="fill:#000000;fill-opacity:1;stroke:#5e5353;stroke-width:2;stroke-linecap:butt;stroke-linejoin:miter;stroke-miterlimit:4;stroke-opacity:1;stroke-dasharray:none" />
    <path
       inkscape:connector-curvature="0"
       sodipodi:nodetypes="cccccscc"
       id="path6131"
       d="m 333.21676,399.76953 c -1.83144,0.77128 -3.98783,2.44932 -5.22429,4.16609 -1.23645,1.71676 -1.65936,2.9447 -1.57058,5.47822 0.18659,2.52072 3.08809,4.29636 4.86232,2.94451 1.59257,-0.76278 2.10738,-3.65838 2.10738,-3.65838 0.40789,-1.46729 -0.84577,-3.53131 0.45468,-5.79283 1.04554,-1.81822 3.29329,-2.98452 4.86031,-3.75715 -2.83257,0.44481 -3.65838,-0.15174 -5.48982,0.61954 z"
       style="fill:#000000;fill-opacity:1;stroke:#5e5353;stroke-width:2;stroke-linecap:butt;stroke-linejoin:miter;stroke-miterlimit:4;stroke-opacity:1;stroke-dasharray:none" />
    <path
       inkscape:connector-curvature="0"
       sodipodi:nodetypes="cccccccccccccccccccccc"
       id="path6133"
       d="m 383.97677,406.35378 c 8.91412,5.63178 9.02074,9.34259 10.40005,14.20008 1.37931,4.85749 -0.97478,8.43274 -0.90156,13.40288 0.0732,4.97014 3.10429,11.89839 1.75287,16.28153 -1.35142,4.38315 -6.7457,7.90547 -6.7457,7.90547 0,0 -12.35874,-2.26287 -15.6341,-1.27356 -3.27537,0.98931 -4.87443,2.63113 -4.87443,2.63113 -0.0513,1.44608 0.33907,2.16611 1.73373,3.09413 2.37346,-2.27685 4.0995,-3.03203 6.90153,-2.58793 -2.86918,-0.54445 -4.74725,0.7252 -6.88851,2.60722 0.30114,2.04818 0.31746,3.76112 3.65952,4.07858 1.38437,-1.70156 1.64405,-3.22142 6.63691,-3.5221 -5.00951,0.24923 -5.29344,1.89368 -6.53184,3.48716 1.61037,2.13603 3.90614,3.14971 7.91138,2.90264 2.24601,-2.52065 2.41212,-4.01419 6.32651,-4.31556 -3.69649,0.23369 -4.79196,2.15567 -6.29806,4.41115 0,0 1.52655,1.59887 4.1645,2.62529 1.98046,0.3534 3.00633,0.14936 4.23475,-0.26997 2.74552,-0.42824 9.3004,-1.36915 15.67738,-1.29417 4.35264,-2.02087 5.82922,-0.82175 8.61152,-8.14984 -0.54396,-16.9179 2.02821,-32.3031 8.7736,-44.87443 -1.12918,-5.76238 -4.19951,-5.57375 -8.55923,-10.0009"
       style="fill:#000000;fill-opacity:1;stroke:#5e5353;stroke-width:2;stroke-linecap:butt;stroke-linejoin:miter;stroke-miterlimit:4;stroke-opacity:1;stroke-dasharray:none" />
    <path
       inkscape:connector-curvature="0"
       sodipodi:nodetypes="cccc"
       id="path6135-61"
       d="m 382.59247,470.64657 c -2.62223,2.20632 -2.08404,6.24102 -1.41553,7.57941 1.75704,-0.5496 5.14896,-5.70974 5.14896,-5.70974 -2.06678,-0.82458 -2.33529,-0.92548 -3.73343,-1.86967 z"
       style="fill:#000000;fill-opacity:1;stroke:#5e5353;stroke-width:2;stroke-linecap:butt;stroke-linejoin:miter;stroke-miterlimit:4;stroke-opacity:1;stroke-dasharray:none;display:inline" />
    <path
       inkscape:connector-curvature="0"
       sodipodi:nodetypes="cccc"
       id="path6135"
       d="m 375.12538,468.17872 c -2.87453,2.28719 -2.42624,6.24179 -1.8267,7.61246 1.78273,-0.45947 5.76748,-5.98227 5.76748,-5.98227 -1.9883,-0.77723 -2.45363,-1.01288 -3.94078,-1.63019 z"
       style="fill:#000000;fill-opacity:1;stroke:#5e5353;stroke-width:2;stroke-linecap:butt;stroke-linejoin:miter;stroke-miterlimit:4;stroke-opacity:1;stroke-dasharray:none" />
    <path
       inkscape:connector-curvature="0"
       sodipodi:nodetypes="cccc"
       id="path6135-6"
       d="m 369.59041,463.29922 c -3.01152,1.45526 -2.58731,7.12591 -1.92955,8.46962 1.76138,-0.5355 5.16776,-5.31244 5.16776,-5.31244 -2.71085,-0.29786 -2.70994,-1.40098 -3.23821,-3.15718 z"
       style="fill:#000000;fill-opacity:1;stroke:#5e5353;stroke-width:2;stroke-linecap:butt;stroke-linejoin:miter;stroke-miterlimit:4;stroke-opacity:1;stroke-dasharray:none;display:inline" />
    <path
       inkscape:connector-curvature="0"
       sodipodi:nodetypes="cccc"
       id="path6135-4"
       d="m 368.04664,459.94866 c -4.16679,0.31722 -5.43511,4.4639 -5.60534,5.95025 2.59212,-0.41423 6.80234,-3.31253 6.80234,-3.31253 -0.90843,-1.95029 -1.16396,-0.91666 -1.197,-2.63772 z"
       style="fill:#000000;fill-opacity:1;stroke:#5e5353;stroke-width:2;stroke-linecap:butt;stroke-linejoin:miter;stroke-miterlimit:4;stroke-opacity:1;stroke-dasharray:none;display:inline" />
    <path
       inkscape:connector-curvature="0"
       sodipodi:nodetypes="ccc"
       id="path6238"
       d="m 370.58316,408.78174 c 6.1819,-1.88413 8.82956,-4.90679 9.23003,-7.55177 1.17787,-3.67207 0.67204,-11.01188 0.67204,-11.01188"
       style="fill:#000000;fill-opacity:1;stroke:#5e5353;stroke-width:2;stroke-linecap:butt;stroke-linejoin:miter;stroke-miterlimit:4;stroke-opacity:1;stroke-dasharray:none" />
    <path
       inkscape:connector-curvature="0"
       sodipodi:nodetypes="cccccccccccccccccccccc"
       id="path3065"
       d="m 462.389,402.66316 c -2.22207,7.47098 0.56858,7.94139 3.87233,13.17566 2.98909,4.76818 7.58926,0.76917 13.44292,11.1121 4.45966,6.21343 15.16347,12.15325 20.48637,15.43919 -3.14454,4.05891 -2.97424,8.76705 -5.65094,9.0683 -8.34524,-1.60567 -12.74814,2.72192 -15.13845,5.16279 0.11482,3.06125 1.09871,3.76 1.98634,4.74711 1.06249,-1.02869 4.06495,-4.94657 6.83717,-3.89602 -3.32147,-0.41639 -5.99659,2.65527 -6.77905,3.92283 0.41398,1.95395 3.39002,2.96824 5.1007,3.64279 0.43489,-1.92718 3.37594,-5.16223 5.47718,-5.67092 -3.2836,1.49292 -5.08543,4.25184 -5.27981,5.9135 0.98891,1.62548 4.22765,1.8241 7.13902,1.01823 0.35729,-2.56349 1.78304,-5.24556 5.11956,-5.80698 -3.61922,0.53838 -5.39856,3.77784 -4.91674,5.95235 1.93903,1.50845 3.77231,1.66837 5.81194,2.02384 3.49125,-1.26029 6.5282,-3.08081 10.58652,-6.22627 1.39443,-6.29954 4.08647,-10.13307 7.46382,-16.20233 0.46777,-5.01941 0.1212,-7.37139 -1.58009,-10.57864 -1.70129,-3.20724 -5.66406,-5.83446 -7.48121,-8.91254 1.22098,-2.97195 -0.0261,-9.48844 -2.15133,-16.85272 -5.74131,-10.23221 -2.79413,-8.48415 -13.5651,-15.51567"
       style="fill:#000000;fill-opacity:1;stroke:#5e5353;stroke-width:2;stroke-linecap:butt;stroke-linejoin:miter;stroke-miterlimit:4;stroke-opacity:1;stroke-dasharray:none" />
    <path
       inkscape:connector-curvature="0"
       sodipodi:nodetypes="cccc"
       id="path6135-2-5"
       d="m 488.31833,473.85758 c 1.58505,-0.9364 3.87889,-7.13518 3.87889,-7.13518 -2.16314,-0.0426 -3.09123,0.13562 -4.79701,-0.76174 -1.37356,3.09295 -0.74145,5.33161 0.91812,7.89692 z"
       style="fill:#000000;fill-opacity:1;stroke:#5e5353;stroke-width:2;stroke-linecap:butt;stroke-linejoin:miter;stroke-miterlimit:4;stroke-opacity:1;stroke-dasharray:none;display:inline" />
    <path
       inkscape:connector-curvature="0"
       sodipodi:nodetypes="cccc"
       id="path6135-2-1"
       d="m 494.83652,467.0741 c -2.47111,2.25403 -0.20359,7.00916 0.8102,8.10934 1.53535,-1.0158 3.55188,-6.89726 3.55188,-6.89726 -2.04953,-0.4315 -2.83982,-0.61253 -4.36208,-1.21208 z"
       style="fill:#000000;fill-opacity:1;stroke:#5e5353;stroke-width:2;stroke-linecap:butt;stroke-linejoin:miter;stroke-miterlimit:4;stroke-opacity:1;stroke-dasharray:none;display:inline" />
    <path
       inkscape:connector-curvature="0"
       sodipodi:nodetypes="cccc"
       id="path6135-2-11"
       d="m 481.88923,462.38735 c -3.17075,1.06466 -3.27678,6.56105 -2.79339,7.97686 1.81479,-0.30954 6.22267,-5.78229 6.22267,-5.78229 -1.78506,-1.14497 -2.20464,-1.18793 -3.42928,-2.19457 z"
       style="fill:#000000;fill-opacity:1;stroke:#5e5353;stroke-width:2;stroke-linecap:butt;stroke-linejoin:miter;stroke-miterlimit:4;stroke-opacity:1;stroke-dasharray:none;display:inline" />
    <path
       inkscape:connector-curvature="0"
       sodipodi:nodetypes="cccc"
       id="path6135-2-7"
       d="m 479.33229,457.08061 c -3.33995,0.17923 -5.13879,5.57369 -5.05105,7.06718 1.83154,0.18634 6.81859,-2.9043 6.81859,-2.9043 -1.23011,-1.76515 -1.43922,-2.4731 -1.76754,-4.16288 z"
       style="fill:#000000;fill-opacity:1;stroke:#5e5353;stroke-width:2;stroke-linecap:butt;stroke-linejoin:miter;stroke-miterlimit:4;stroke-opacity:1;stroke-dasharray:none;display:inline" />
  </g>
  <g
     inkscape:groupmode="layer"
     id="layer5"
     inkscape:label="ecartele"
     style="display:inline">
    <path
       style="opacity:0.98999999000000005;fill:#2b5df2;fill-opacity:1;stroke:#000000;stroke-width:3.01438688999999990;stroke-miterlimit:4;stroke-opacity:1;stroke-dasharray:none"
       d="m 298.49246,1.5071983 0,1.5068477 -296.9852665,0 0,-1.5068477 296.9852665,0 z m 0,1.5068477 300.00035,0 0,291.983134 c -0.14097,1.61904 -0.27944,3.25891 -0.4397,4.86587 l -299.56065,0 0,-296.849004 z m 0,296.849004 0,358.62976 -2.2299,0 C 263.71227,645.16151 25.885393,539.88466 1.9468924,299.86305 l 296.5455676,0 z"
       id="rect2781"
       inkscape:connector-curvature="0" />
    <g
       id="g6121"
       transform="matrix(0.64122955,0,0,0.64122955,363.18548,229.11959)">
      <path
         sodipodi:nodetypes="ccccssccscccssccc"
         inkscape:connector-curvature="0"
         d="m -297.36505,249.39328 c -8.19966,5.88489 -15.63552,14.34265 -29.98937,14.07332 -6.80652,-1.97344 -6.22349,-4.11607 -1.29503,-6.75591 6.8017,-6.88739 9.22551,-16.38734 9.22551,-16.38734 0,0 -8.45112,4.91915 -19.76173,6.08442 -7.96036,0.82012 -16.74881,1.34253 -23.80486,-2.38048 -6.49189,-3.42535 -7.04853,-10.62461 0,-17.25851 l 22.01949,-13.68779 c -7.44638,-27.29069 -2.13304,-49.87193 33.3268,-57.13165 28.88783,-5.91424 51.80945,0.93535 71.41455,11.90243 47.74295,28.29603 60.88419,63.24626 67.84382,99.38525 12.10999,114.99087 -78.9677,171.25179 -185.08272,133.30716 -1.88091,-2.13161 -0.25301,-3.37273 0.89268,-4.76098 1.56794,-1.89986 2.13248,-3.5388 0.89269,-4.76096 -4.09233,-4.03415 -0.55142,-6.54149 1.78536,-9.52194 108.25991,14.646 145.6043,-57.77855 106.52671,-119.02425 z"
         style="fill:#fcef3c;fill-opacity:1;fill-rule:evenodd;stroke:#000000;stroke-width:2.99999666;stroke-linecap:butt;stroke-linejoin:miter;stroke-miterlimit:4;stroke-opacity:1;stroke-dasharray:none"
         id="path1900" />
      <path
         inkscape:connector-curvature="0"
         d="m -337.40767,368.40213 c 6.8294,8.56461 7.62371,12.74117 -2.96564,8.6376 2.84123,2.00905 5.64053,4.01944 6.27159,6.02849 7.31956,0.44413 14.26912,0.44421 20.84043,0.0648 -8.04795,-2.97439 -16.09843,-7.09053 -24.14638,-14.73091 z"
         style="fill:#e20909;fill-opacity:1;fill-rule:evenodd;stroke:#000000;stroke-width:2.99999666;stroke-linecap:butt;stroke-linejoin:miter;stroke-miterlimit:4;stroke-opacity:1;stroke-dasharray:none"
         id="path3692" />
      <path
         inkscape:connector-curvature="0"
         d="m -241.53518,350.64075 c -21.49947,11.96871 -35.97389,10.41326 -47.06114,2.30121 11.28085,8.01685 16.44566,14.25086 3.27354,15.16846 l 11.66805,6.53087 c 13.86694,-5.75552 24.58927,-14.05684 32.11955,-24.00054 z"
         style="fill:#e20909;fill-opacity:1;fill-rule:evenodd;stroke:#000000;stroke-width:2.99999666;stroke-linecap:butt;stroke-linejoin:miter;stroke-miterlimit:4;stroke-opacity:1;stroke-dasharray:none"
         id="path5464" />
      <path
         inkscape:connector-curvature="0"
         d="m -205.20215,382.22553 c -12.39934,11.2487 -27.36222,19.5136 -44.20895,24.50291 7.42745,1.12643 13.27449,3.54508 12.88347,11.06844 7.24357,-6.96482 8.8674,-0.0635 10.71191,6.85498 0.89606,-14.33353 11.55208,-28.1458 20.61357,-42.42633 z"
         style="fill:#e20909;fill-opacity:1;fill-rule:evenodd;stroke:#000000;stroke-width:2.99999666;stroke-linecap:butt;stroke-linejoin:miter;stroke-miterlimit:4;stroke-opacity:1;stroke-dasharray:none"
         id="path6351" />
      <path
         inkscape:connector-curvature="0"
         d="m -349.23779,402.0126 c -1.07774,0.98233 -2.8127,2.34372 -4.82928,3.88935 7.02906,0.42705 10.23096,2.44768 7.7463,6.83877 6.34795,-2.97561 8.32795,-1.58798 5.94746,4.16486 5.3379,-3.38995 9.7827,-4.42311 10.40402,4.76444 6.11593,-4.77939 8.81807,-1.3411 11.01982,3.27354 2.14091,-7.39143 8.04673,-10.68838 14.32579,-13.32102 -14.35058,-1.30999 -29.31721,-4.48112 -44.6141,-9.60994 z"
         style="fill:#e20909;fill-opacity:1;fill-rule:evenodd;stroke:#000000;stroke-width:2.99999666;stroke-linecap:butt;stroke-linejoin:miter;stroke-miterlimit:4;stroke-opacity:1;stroke-dasharray:none"
         id="path7238" />
      <path
         inkscape:connector-curvature="0"
         d="m -240.4818,267.2952 c -3.04284,27.87384 -5.9318,38.90188 -9.73959,44.27379 17.15247,-4.86632 19.66232,-7.185 21.47246,-9.38307 -1.26463,-11.50663 -5.17238,-23.34431 -11.73287,-34.89072 z"
         style="fill:#e20909;fill-opacity:1;fill-rule:evenodd;stroke:#000000;stroke-width:2.99999666;stroke-linecap:butt;stroke-linejoin:miter;stroke-miterlimit:4;stroke-opacity:1;stroke-dasharray:none"
         id="path8125" />
      <path
         inkscape:connector-curvature="0"
         d="m -171.65649,251.1706 -0.0486,1.19921 c 1.26934,4.924 2.36243,9.87703 3.32215,14.86057 2.41551,22.93664 0.7203,43.53476 -4.37552,61.51657 4.5129,-2.86994 8.83899,-4.05212 12.70521,-1.10198 -0.59633,-7.30432 4.14345,-7.26922 9.82061,-5.94746 -1.39664,-6.60702 4.0494,-7.62413 11.31154,-7.1467 -20.81279,-18.13052 -23.57443,-42.33674 -32.73537,-63.38021 z"
         style="fill:#e20909;fill-opacity:1;fill-rule:evenodd;stroke:#000000;stroke-width:2.99999666;stroke-linecap:butt;stroke-linejoin:miter;stroke-miterlimit:4;stroke-opacity:1;stroke-dasharray:none"
         id="path9012" />
      <path
         inkscape:connector-curvature="0"
         d="m -203.79226,149.10755 c -3.24059,4.37902 -4.85898,8.39208 -14.87676,14.27716 -3.4914,1.23913 -11.44404,1.97927 -21.14836,2.52807 1.20798,0.63001 2.39822,1.28279 3.58144,1.94469 13.00914,7.71018 23.44673,15.91518 31.89269,24.5029 3.56314,-11.03564 5.25556,-23.94947 0.55099,-43.25282 z"
         style="fill:#e20909;fill-opacity:1;fill-rule:evenodd;stroke:#000000;stroke-width:2.99999666;stroke-linecap:butt;stroke-linejoin:miter;stroke-miterlimit:4;stroke-opacity:1;stroke-dasharray:none"
         id="path9899" />
      <path
         inkscape:connector-curvature="0"
         d="m -299.31255,244.91996 c 10.44004,29.22774 35.13344,26.38542 57.72675,28.26827 -1.42181,-40.31779 -13.46203,-58.95636 -33.9219,-60.40481"
         style="fill:#fcef3c;fill-opacity:1;fill-rule:evenodd;stroke:#000000;stroke-width:2.99999666;stroke-linecap:butt;stroke-linejoin:miter;stroke-miterlimit:4;stroke-opacity:1;stroke-dasharray:none"
         id="path10786" />
      <path
         inkscape:connector-curvature="0"
         d="m -313.59549,197.6078 a 5.951215,5.951215 0 0 1 -11.90243,0 5.951215,5.951215 0 1 1 11.90243,0 z"
         style="color:#000000;fill:#fcef3c;fill-opacity:1;fill-rule:nonzero;stroke:#000000;stroke-width:1.99999952;stroke-linecap:butt;stroke-linejoin:miter;stroke-miterlimit:4;stroke-opacity:1;stroke-dasharray:none;stroke-dashoffset:0;marker:none;visibility:visible;display:inline;overflow:visible"
         id="path12558" />
      <path
         inkscape:connector-curvature="0"
         d="m -327.3102,187.35606 c 0.47184,2.77053 0.0616,2.93557 3.59767,3.40788 7.18953,-1.47827 8.96201,1.55766 11.60487,3.86828 3.16856,2.07208 5.25737,1.98467 6.8439,0.89268"
         style="fill:#2b5df2;stroke:#000000;stroke-width:2.99999666;stroke-linecap:butt;stroke-linejoin:miter;stroke-miterlimit:4;stroke-opacity:1;stroke-dasharray:none"
         id="path12560" />
      <path
         inkscape:connector-curvature="0"
         d="m -315.38086,196.41753 a 3.5707267,3.5707267 0 1 1 -7.14145,0 3.5707267,3.5707267 0 1 1 7.14145,0 z"
         style="color:#000000;fill:#ffffff;fill-opacity:1;fill-rule:nonzero;stroke:#000000;stroke-width:0.99999976;stroke-linecap:butt;stroke-linejoin:miter;stroke-miterlimit:4;stroke-opacity:1;stroke-dasharray:none;stroke-dashoffset:0;marker:none;visibility:visible;display:inline;overflow:visible"
         id="path14332" />
      <path
         inkscape:connector-curvature="0"
         d="m -338.04648,228.64128 c -0.69578,-2.03138 0.3341,-3.25145 2.44958,-3.16486 2.16505,0.0886 2.48619,0.97674 2.18504,2.46454 -1.41517,1.19421 -2.47701,0.99101 -4.63462,0.70032 z"
         style="fill:#2b5df2;fill-opacity:1;fill-rule:evenodd;stroke:#000000;stroke-width:2.99999666;stroke-linecap:butt;stroke-linejoin:miter;stroke-miterlimit:4;stroke-opacity:1;stroke-dasharray:none"
         id="path16989" />
      <path
         inkscape:connector-curvature="0"
         d="m -348.33724,337.13524 c -17.26107,-2.60863 -33.08083,7.04957 -33.92762,21.00872 0.63108,9.46817 5.87575,9.66124 4.63481,15.99496 -4.18693,1.70447 -9.56385,2.22509 -15.99495,1.68538 4.44726,5.23148 8.55313,10.80863 15.15226,13.88823 -20.45049,18.19712 -14.98635,55.17007 21.0349,50.07539 -22.4755,-14.72199 -7.06042,-35.05778 3.37077,-38.71524 0.82655,0.0464 1.60854,0.064 2.34983,0.081 -0.58408,-0.20346 -1.16523,-0.40665 -1.75021,-0.61583 -1.88092,-2.13161 -0.25439,-3.36001 0.89131,-4.74825 1.56794,-1.89988 2.13108,-3.54229 0.89131,-4.76444 -4.01798,-3.96085 -0.68145,-6.45679 1.65298,-9.36686 -12.25853,-3.38515 -18.58316,-31.44429 1.69461,-44.52309 z"
         style="fill:#e20909;fill-opacity:1;fill-rule:evenodd;stroke:#000000;stroke-width:2.99999666;stroke-linecap:butt;stroke-linejoin:miter;stroke-miterlimit:4;stroke-opacity:1;stroke-dasharray:none"
         id="path23207" />
    </g>
    <g
       id="layer1-3"
       inkscape:label="Calque 1"
       transform="matrix(1.0041607,0,0,1.0041607,180.37375,-534.71512)"
       style="stroke:#000000;stroke-width:2;stroke-miterlimit:4;stroke-opacity:1;stroke-dasharray:none">
      <path
         sodipodi:nodetypes="ccccccccccccc"
         inkscape:connector-curvature="0"
         style="fill:#fcef3c;fill-opacity:1;stroke:#000000;stroke-width:2;stroke-miterlimit:4;stroke-opacity:1;stroke-dasharray:none;display:inline"
         d="m 235.12067,535.0607 8e-5,117.43321 -117.43326,0 0,61.8905 117.43318,0 0,117.4331 61.89047,0 0,-117.4331 117.4333,0 0,-61.8905 -117.4333,0 0,-117.43321 z"
         id="rect2511" />
    </g>
  </g>
  <g
     inkscape:groupmode="layer"
     id="layer2"
     inkscape:label="Reflet final"
     sodipodi:insensitive="true">
    <path
       sodipodi:nodetypes="cccccc"
       d="m 300.00001,658.5 c 0,0 298.5,-112.32031 298.5,-397.77183 0,-285.451504 0,-258.5516835 0,-258.5516835 l -597.00001,0 0,258.5516835 C 1.5,546.17969 300.00001,658.5 300.00001,658.5 z"
       style="fill:url(#radialGradient3163);fill-opacity:1;fill-rule:evenodd;stroke:none"
       id="path2875"
       inkscape:export-xdpi="144"
       inkscape:export-ydpi="144"
       inkscape:connector-curvature="0" />
  </g>
  <g
     inkscape:groupmode="layer"
     id="layer1"
     inkscape:label="Contour final"
     sodipodi:insensitive="true">
    <path
       sodipodi:nodetypes="cccccc"
       d="M 299.99999,658.50028 C 299.99999,658.50028 1.5,546.17992 1.5,260.72828 C 1.5,-24.723336 1.5,2.1764957 1.5,2.1764957 L 598.49999,2.1764957 L 598.49999,260.72828 C 598.49999,546.17992 299.99999,658.50028 299.99999,658.50028 z"
       style="opacity:1;fill:none;fill-opacity:1;fill-rule:evenodd;stroke:#000000;stroke-width:3.00000048;stroke-linecap:butt;stroke-linejoin:miter;stroke-miterlimit:4;stroke-dasharray:none;stroke-opacity:1"
       id="path1411"
       inkscape:export-xdpi="144"
       inkscape:export-ydpi="144" />
  </g>
</svg>
