<?xml version="1.0" encoding="UTF-8" standalone="no"?>
<svg
   xmlns:dc="http://purl.org/dc/elements/1.1/"
   xmlns:cc="http://creativecommons.org/ns#"
   xmlns:rdf="http://www.w3.org/1999/02/22-rdf-syntax-ns#"
   xmlns:svg="http://www.w3.org/2000/svg"
   xmlns="http://www.w3.org/2000/svg"
   xmlns:xlink="http://www.w3.org/1999/xlink"
   xmlns:sodipodi="http://sodipodi.sourceforge.net/DTD/sodipodi-0.dtd"
   xmlns:inkscape="http://www.inkscape.org/namespaces/inkscape"
   width="600"
   height="660"
   viewBox="-300 -300 600 660"
   id="svg4141"
   version="1.1"
   inkscape:version="0.48.3.1 r9886"
   sodipodi:docname="Blason_ville_fr_Bourg-Saint-Christophe.svg">
  <metadata
     id="metadata4168">
    <rdf:RDF>
      <cc:Work
         rdf:about="">
        <dc:format>image/svg+xml</dc:format>
        <dc:type
           rdf:resource="http://purl.org/dc/dcmitype/StillImage" />
        <dc:title></dc:title>
      </cc:Work>
    </rdf:RDF>
  </metadata>
  <sodipodi:namedview
     pagecolor="#ffffff"
     bordercolor="#666666"
     borderopacity="1"
     objecttolerance="10"
     gridtolerance="10"
     guidetolerance="10"
     inkscape:pageopacity="0"
     inkscape:pageshadow="2"
     inkscape:window-width="881"
     inkscape:window-height="415"
     id="namedview4166"
     showgrid="false"
     inkscape:zoom="0.26572803"
     inkscape:cx="510.5311"
     inkscape:cy="414.36457"
     inkscape:window-x="-1"
     inkscape:window-y="0"
     inkscape:window-maximized="0"
     inkscape:current-layer="layer3" />
  <defs
     id="defs4143">
    <radialGradient
       id="Gradient1"
       gradientUnits="userSpaceOnUse"
       cx="-80"
       cy="-80"
       r="405">
      <stop
         style="stop-color:#fff;stop-opacity:0.31"
         offset="0"
         id="stop4146" />
      <stop
         style="stop-color:#fff;stop-opacity:0.25"
         offset="0.19"
         id="stop4148" />
      <stop
         style="stop-color:#6b6b6b;stop-opacity:0.125"
         offset="0.6"
         id="stop4150" />
      <stop
         style="stop-color:#000;stop-opacity:0.125"
         offset="1"
         id="stop4152" />
    </radialGradient>
    <clipPath
       id="shield_cut">
      <path
         id="shield"
         d="M-298.5,-298.5 h597 v258.5 C 298.5,246.2 0,358.39 0,358.39 0,358.39 -298.5,246.2 -298.5,-40z" />
    </clipPath>
    <radialGradient
       gradientTransform="matrix(0,2.342476,-2.291353,0,562.9128,1323.77)"
       gradientUnits="userSpaceOnUse"
       xlink:href="#linearGradient2955"
       id="radialGradient14758"
       fy="153.9283"
       fx="-483.50824"
       r="300.00003"
       cy="153.9283"
       cx="-483.50824" />
    <radialGradient
       gradientTransform="matrix(0,2.342476,-2.291353,0,562.9128,1323.77)"
       gradientUnits="userSpaceOnUse"
       xlink:href="#linearGradient2955"
       id="radialGradient13767"
       fy="153.9283"
       fx="-483.50824"
       r="300.00003"
       cy="153.9283"
       cx="-483.50824" />
    <radialGradient
       gradientTransform="matrix(0,2.342476,-2.291353,0,562.9128,1323.77)"
       gradientUnits="userSpaceOnUse"
       xlink:href="#linearGradient2955"
       id="radialGradient1357"
       fy="153.9283"
       fx="-483.50824"
       r="300.00003"
       cy="153.9283"
       cx="-483.50824" />
    <radialGradient
       gradientTransform="matrix(-4.167939e-4,2.182867,-1.884232,-3.599562e-4,1395.597,-309.1214)"
       gradientUnits="userSpaceOnUse"
       xlink:href="#linearGradient2955"
       id="radialGradient1911"
       fy="218.90099"
       fx="225.52438"
       r="300"
       cy="218.90099"
       cx="225.52438" />
    <clipPath
       id="clip">
      <path
         id="path10"
         d="M 0,-200 L 0,600 L 300,600 L 300,-200 L 0,-200 z " />
    </clipPath>
    <polygon
       id="star"
       transform="scale(53,53)"
       points="0,-1 0.58778525,0.80901699 -0.95105652,-0.30901699 0.95105652,-0.30901699 -0.58778525,0.80901699 0,-1 " />
    <radialGradient
       gradientTransform="matrix(-4.167939e-4,2.182867,-1.884232,-3.599562e-4,615.5972,-289.1214)"
       gradientUnits="userSpaceOnUse"
       xlink:href="#linearGradient2955"
       id="radialGradient2961"
       fy="218.90099"
       fx="225.52438"
       r="300"
       cy="218.90099"
       cx="225.52438" />
    <linearGradient
       id="linearGradient2955">
      <stop
         id="stop2965"
         offset="0"
         style="stop-color:#ffffff;stop-opacity:0" />
      <stop
         id="stop2959"
         offset="1"
         style="stop-color:#000000;stop-opacity:0.64583331" />
    </linearGradient>
  </defs>
  <g
     id="layer4"
     inkscape:label="Fond écu"
     inkscape:groupmode="layer">
    <use
       xlink:href="#shield"
       id="use4157"
       style="fill:#2b5df2;fill-opacity:1"
       x="0"
       y="0"
       width="600"
       height="660" />
  </g>
  <g
     inkscape:groupmode="layer"
     id="layer5"
     inkscape:label="Pieces">
    <path
       id="path5039"
       style="fill:#fcef3c;fill-opacity:1;stroke:#000000;stroke-width:3"
       d="m -297.462,-298.533 0,95.4688 459.31201,459.3122 c 31.251,-28.362 61.824,-63.059 86.188,-104.75 L -201.9932,-298.533 z"
       inkscape:connector-curvature="0" />
  </g>
  <g
     id="layer3"
     inkscape:label="Meubles"
     inkscape:groupmode="layer">
    <path
       id="path8347"
       style="fill:#e20909;fill-opacity:1;stroke:#000000;stroke-width:2.44818139;stroke-miterlimit:4;stroke-opacity:1;stroke-dasharray:none;stroke-dashoffset:0"
       d="M -8.0809055,-70.82625 4.441862,-32.67662 44.363703,-32.72292 11.951001,-9.02419 24.331642,28.92941 -8.2232675,5.42641 -40.493454,28.9294 -28.2008,-9.29498 -60.525515,-32.72293 -20.373316,-32.84391 -8.0809055,-70.8262 z"
       inkscape:connector-curvature="0" />
    <path
       inkscape:connector-curvature="0"
       d="m 131.9191,69.17375 12.52276,38.14963 39.92184,-0.0463 -32.4127,23.69873 12.38064,37.9536 -32.55491,-23.503 L 99.506546,168.9294 111.7992,130.70502 79.474485,107.27707 119.62668,107.15609 131.9191,69.1738 z"
       style="fill:#e20909;fill-opacity:1;stroke:#000000;stroke-width:2.44818139;stroke-miterlimit:4;stroke-opacity:1;stroke-dasharray:none;stroke-dashoffset:0"
       id="path5098" />
    <path
       inkscape:connector-curvature="0"
       d="m -148.08091,-210.82625 12.52277,38.14963 39.921843,-0.0463 -32.412703,23.69873 12.38064,37.9536 -32.55491,-23.503 -32.27018,23.50299 12.29265,-38.22438 -32.32472,-23.42795 40.1522,-0.12098 12.29241,-37.98229 z"
       style="fill:#e20909;fill-opacity:1;stroke:#000000;stroke-width:2.44818139;stroke-miterlimit:4;stroke-opacity:1;stroke-dasharray:none;stroke-dashoffset:0"
       id="path5100" />
    <g
       id="g5308"
       transform="matrix(0.84788711,0,0,0.84788711,132.16058,-280.43251)"
       style="fill:#fcef3c;fill-opacity:1">
      <g
         style="display:inline;fill:#fcef3c;fill-opacity:1"
         id="layer3-9"
         transform="translate(639.81547,-126.16068)" />
      <g
         style="display:inline;fill:#fcef3c;fill-opacity:1"
         id="layer1-4"
         transform="translate(639.81547,-126.16068)" />
      <g
         style="display:inline;fill:#fcef3c;fill-opacity:1"
         id="layer4-8"
         transform="translate(696.2442,-202.80102)">
        <g
           id="g5818"
           transform="translate(873.00016,-55.320157)"
           style="fill:#fcef3c;fill-opacity:1" />
        <g
           id="g5820"
           transform="translate(873.00016,-55.320157)"
           style="fill:#fcef3c;fill-opacity:1" />
        <g
           id="g5822"
           transform="translate(873.00016,-55.320157)"
           style="fill:#fcef3c;fill-opacity:1" />
      </g>
      <g
         style="display:inline;fill:#fcef3c;fill-opacity:1"
         id="layer5-8"
         transform="translate(696.2442,-202.80102)">
        <g
           style="display:inline;fill:#fcef3c;fill-opacity:1"
           id="g5438"
           transform="translate(-582.73933,640.16742)" />
        <g
           style="display:inline;fill:#fcef3c;fill-opacity:1"
           id="g5440"
           transform="translate(-526.31061,563.52708)" />
        <g
           id="g5559"
           transform="translate(-526.31061,563.52708)"
           style="fill:#fcef3c;fill-opacity:1" />
        <g
           style="display:inline;fill:#fcef3c;fill-opacity:1"
           id="g5561"
           transform="translate(-526.31061,563.52708)" />
      </g>
      <g
         style="display:inline;fill:#fcef3c;fill-opacity:1"
         id="layer6"
         transform="translate(696.2442,-202.80102)" />
      <path
         style="fill:#fcef3c;fill-opacity:1;fill-rule:evenodd;stroke:none"
         id="path3654"
         d="m 241.61547,-31.6545 c 0.0706,0 0.1411,0 0,0 z"
         inkscape:connector-curvature="0" />
      <path
         style="fill:#fcef3c;fill-opacity:1;fill-rule:evenodd;stroke:none;stroke-width:1px;marker:none;visibility:visible;display:inline;overflow:visible;enable-background:accumulate"
         id="path2408"
         d="m 62.488792,231.66769 c 0.07567,0 0.15135,0 0,0 z"
         inkscape:connector-curvature="0" />
      <path
         style="fill:#fcef3c;fill-opacity:1;fill-rule:nonzero;stroke:#000000;stroke-width:1;stroke-miterlimit:4;stroke-opacity:1;stroke-dasharray:none"
         id="rect17044"
         d="M 40.440992,0.5 C 18.558307,0.5 0.81599521,18.273565 0.81599221,40.15625 c 0,0.452278 0.016212,0.895103 0.03125,1.34375 l 12.15624979,0 c -0.02167,-0.447884 -0.03125,-0.890522 -0.03125,-1.34375 -10e-7,-15.177531 12.291218,-27.5 27.46875,-27.5 15.17753,0 27.5,12.322468 27.5,27.5 -10e-7,15.177532 -12.322468,27.5 -27.5,27.5 -5.383776,0.01707 -5.787653,2.976803 -6.03125,6.03125 l 0,254.09375 12.09375,-0.84375 0,-244.185448 c 0.568367,-3.152955 1.43783,-3.567798 2.917868,-3.970318 C 66.985039,74.706597 80.097242,58.949886 80.097242,40.15625 80.097242,18.273565 62.323676,0.5 40.440992,0.5 z"
         inkscape:connector-curvature="0" />
      <g
         style="fill:#fcef3c;fill-opacity:1;stroke-width:0.56694889000000004;stroke-miterlimit:4;stroke-dasharray:none"
         id="g18799"
         transform="matrix(1.8724453,0.00300735,-0.1363184,1.6612912,187.59354,-0.70625)">
        <path
           style="fill:#fcef3c;fill-opacity:1;fill-rule:nonzero;stroke:#000000;stroke-width:0.56694889000000004;stroke-miterlimit:4;stroke-opacity:1;stroke-dasharray:none"
           id="path17922"
           d="m -68.384549,59.244157 c 0.06447,2.851436 -0.920274,2.815124 -5.883182,2.815124 -4.879362,0 -5.810452,-0.108239 -5.883181,-2.815124 -0.07673,-2.855684 1.011335,-2.815123 5.883181,-2.815123 4.601125,0 5.815344,-0.185059 5.883182,2.815123 z"
           inkscape:connector-curvature="0" />
        <path
           style="fill:#fcef3c;fill-opacity:1;fill-rule:nonzero;stroke:#000000;stroke-width:0.56694889000000004;stroke-miterlimit:4;stroke-opacity:1;stroke-dasharray:none"
           id="path17919"
           d="m -67.317607,59.24254 c 0.05939,1.556397 -3.12996,1.537321 -6.966115,1.538216 -3.836153,8.96e-4 -6.863006,-0.05748 -6.932994,-1.534972 -0.07384,-1.558713 2.842233,-1.5368 6.678386,-1.537695 3.836155,-8.96e-4 7.158237,-0.103136 7.220723,1.534451 z"
           inkscape:connector-curvature="0" />
      </g>
      <g
         style="stroke-width:1;stroke-miterlimit:4;stroke-dasharray:none;fill:#fcef3c;fill-opacity:1"
         id="g3009"
         transform="translate(-8.0018196,-0.78125)">
        <g
           style="fill:#fcef3c;fill-opacity:1;stroke-width:0.56694889000000004;stroke-miterlimit:4;stroke-dasharray:none"
           id="g21648"
           transform="matrix(1.8670373,-0.1422397,-0.00704804,1.6668598,189.76175,-14.46392)">
          <path
             style="fill:#fcef3c;fill-opacity:1;fill-rule:evenodd;stroke:#000000;stroke-width:0.56694889000000004;stroke-linecap:butt;stroke-linejoin:miter;stroke-miterlimit:4;stroke-opacity:1;stroke-dasharray:none"
             id="path19895"
             d="m -79.37513,201.60129 c -1.263368,1.80481 -0.547582,7.63423 -5.05961,9.07809 7.90842,4.56593 9.497528,21.24401 9.53125,21.40625 0.04381,-0.16351 2.197163,-16.70349 9.568653,-19.77638 -4.225876,-1.90313 -3.80528,-8.13756 -5.068653,-9.94237 -0.194377,-4.09356 -3.722656,-3.40625 -4.84375,-3.40625 -1.121095,0 -4.12789,-0.96188 -4.12789,2.64066 z"
             inkscape:connector-curvature="0" />
          <path
             style="fill:#fcef3c;fill-opacity:1;fill-rule:evenodd;stroke:#000000;stroke-width:0.56694889000000004;stroke-linecap:butt;stroke-linejoin:miter;stroke-miterlimit:4;stroke-opacity:1;stroke-dasharray:none"
             id="path20773"
             d="M -74.88269,230.59287 -74.88789,205.875"
             inkscape:connector-curvature="0" />
        </g>
        <g
           style="fill:#fcef3c;fill-opacity:1;stroke-width:0.56694889000000004;stroke-miterlimit:4;stroke-dasharray:none"
           id="g19889"
           transform="matrix(1.8722692,0.0258582,-0.1565824,1.659504,196.78257,233.17075)">
          <path
             style="fill:#fcef3c;fill-opacity:1;fill-rule:nonzero;stroke:#000000;stroke-width:0.56694889000000004;stroke-miterlimit:4;stroke-opacity:1;stroke-dasharray:none"
             id="path19891"
             d="m -68.384549,59.244157 c 0.06447,2.851436 -0.920274,2.815124 -5.883182,2.815124 -4.879362,0 -5.810452,-0.108239 -5.883181,-2.815124 -0.07673,-2.855684 1.011335,-2.815123 5.883181,-2.815123 4.601125,0 5.815344,-0.185059 5.883182,2.815123 z"
             inkscape:connector-curvature="0" />
          <path
             style="fill:#fcef3c;fill-opacity:1;fill-rule:nonzero;stroke:#000000;stroke-width:0.56694889000000004;stroke-miterlimit:4;stroke-opacity:1;stroke-dasharray:none"
             id="path19893"
             d="m -67.33966,59.17715 c 0.0896,1.78282 -3.089981,1.790926 -6.913924,1.827994 -3.823941,0.03707 -6.842312,-0.0014 -6.940938,-1.693692 -0.104049,-1.785337 3.089981,-1.790926 6.913922,-1.827994 3.823943,-0.03707 6.846664,-0.182129 6.94094,1.693692 z"
             inkscape:connector-curvature="0" />
        </g>
      </g>
      <g
         style="fill:#fcef3c;fill-opacity:1;stroke-width:0.60116649000000000;stroke-miterlimit:4;stroke-dasharray:none"
         id="g17018"
         transform="matrix(1.7607681,-0.1341436,-0.00664687,1.5719845,173.95556,-8.6925158)">
        <path
           style="fill:#fcef3c;fill-opacity:1;fill-rule:evenodd;stroke:#000000;stroke-width:0.60116649000000000;stroke-linecap:butt;stroke-linejoin:miter;stroke-miterlimit:4;stroke-opacity:1;stroke-dasharray:none"
           id="path11679"
           d="m -87.564255,41.610714 c 1.83562,1.65023 2.02084,3.130941 0.7407,3.91768 -1.28014,0.78674 -2.22106,0.277824 -2.22106,0.277824 0,0 3.87373,5.041033 6.89478,2.01998 1.12607,-1.126067 1.871931,-2.608402 0.452791,-3.934759 -1.41914,-1.326357 -1.344536,-0.691047 -2.319621,-1.972541 1.145942,-2.713416 3.817674,0.116403 3.817674,0.116403 0,0 1.363998,-3.131388 -1.901946,-5.269375 -1.37757,-0.9018 -5.95539,-1.312227 -7.423241,-2.827351 2.412501,1.462822 6.489566,1.951502 7.609781,1.804069 6.842435,-0.900542 7.788191,-4.750206 8.652281,-7.975029 0.38889,-1.451372 1.073954,-2.21886 2.32884,-2.421797 2.039233,-0.329779 4.08507,-4.424798 3.1595,-5.8129 -1.37676,1.319121 -2.95732,2.116039 -5.30381,2.146032 1.89482,-1.774831 1.34847,-3.455865 2.13504,-4.180865 0.78658,-0.725003 2.01356,-2.178154 2.01356,-2.178154 0,0 -2.82123,-1.861767 -5.78328,1.165766 0.64757,-2.838104 -0.07548,-5.637134 -1.26601,-6.42481 -1.202711,-0.7957331 -3.394067,-1.7529683 -5.014661,-0.496461 0,0 2.83999,2.147033 2.14603,3.612388 -0.69397,1.465356 -2.106,2.811261 -2.106,2.811261 l -0.42359,-2.996134 c 0,0 -4.47162,0.09553 -3.63967,4.154731 0.49876,2.43353 2.93389,2.785621 3.98141,4.908495 -2.02067,-1.125793 -7.365021,0.352108 -6.23905,0.336593 1.12596,-0.01552 3.988598,1.329814 4.80324,2.893336 0.866852,1.663728 1.11535,3.337015 0.0049,4.478497 -1.11044,1.14149 -3.04289,2.292977 -5.55712,1.228922 -2.514231,-1.064056 -3.563271,-3.439288 -3.563271,-3.439288 0,0 -1.34206,-1.711968 0,0 1.34204,1.71197 3.424271,1.326191 4.565581,0.43149 1.14131,-0.894696 1.87267,-2.157944 1.69408,-3.659573 -9.363431,2.252975 -10.335871,-7.888382 -11.710901,-9.234283 -5.681232,18.63448 7.637423,24.869621 9.473033,26.519853 z"
           inkscape:connector-curvature="0" />
        <g
           style="fill:#fcef3c;fill-opacity:1;stroke-width:0.60116649000000000;stroke-miterlimit:4;stroke-dasharray:none"
           id="g17008">
          <path
             style="fill:#fcef3c;stroke:#000000;stroke-width:0.60116649000000000;stroke-linecap:butt;stroke-linejoin:miter;stroke-miterlimit:4;stroke-opacity:1;stroke-dasharray:none;fill-opacity:1"
             id="path15234"
             d="m -89.879596,31.945283 c 6.046118,3.429141 9.114297,1.714571 10.106943,0.992646 0.992646,-0.721924 3.24866,-3.880344 3.699863,-7.850928 0.451203,-3.970585 -1.835238,-8.19165 -1.835238,-8.19165 0.900288,-1.438938 2.124312,-2.349868 1.638638,-4.219145 -0.289445,-1.726997 -1.887999,-1.858374 -1.887999,-1.858374"
             inkscape:connector-curvature="0" />
          <path
             style="fill:#fcef3c;fill-opacity:1;fill-rule:evenodd;stroke:#000000;stroke-width:0.60116649000000000;stroke-linecap:butt;stroke-linejoin:miter;stroke-miterlimit:4;stroke-opacity:1;stroke-dasharray:none"
             id="path15236"
             d="m -82.922072,14.964559 c -0.233003,1.15081 0.164627,3.054296 1.372386,4.142751 0.865305,0.779829 5.47445,3.205126 5.47445,3.205126"
             inkscape:connector-curvature="0" />
          <path
             style="fill:#fcef3c;fill-opacity:1;fill-rule:evenodd;stroke:#000000;stroke-width:0.60116649000000000;stroke-linecap:butt;stroke-linejoin:miter;stroke-miterlimit:4;stroke-opacity:1;stroke-dasharray:none"
             id="path15238"
             d="m -71.100554,15.842151 c -2.165774,1.082887 -2.036885,2.051733 -2.488087,3.224861 -0.451203,1.173127 -2.481987,3.124514 -2.481987,3.124514"
             inkscape:connector-curvature="0" />
          <path
             style="fill:#fcef3c;fill-opacity:1;fill-rule:evenodd;stroke:#000000;stroke-width:0.60116649000000000;stroke-linecap:butt;stroke-linejoin:miter;stroke-miterlimit:4;stroke-opacity:1;stroke-dasharray:none"
             id="path15240"
             d="m -69.530043,22.566644 c -2.093093,2.165773 -3.061206,0.920211 -4.598085,2.159394 -0.734931,0.592574 -2.188234,1.443849 -2.188234,1.443849"
             inkscape:connector-curvature="0" />
          <path
             style="fill:#fcef3c;fill-opacity:1;fill-rule:evenodd;stroke:#000000;stroke-width:0.60116649000000000;stroke-linecap:butt;stroke-linejoin:miter;stroke-miterlimit:4;stroke-opacity:1;stroke-dasharray:none"
             id="path15242"
             d="m -83.169387,23.049443 c 2.977938,0.721924 3.762531,1.649908 4.033253,2.462073 0.270721,0.812165 1.221335,4.999544 1.221335,4.999544"
             inkscape:connector-curvature="0" />
          <path
             style="fill:#fcef3c;fill-opacity:1;fill-rule:evenodd;stroke:#000000;stroke-width:0.60116649000000000;stroke-linecap:butt;stroke-linejoin:miter;stroke-miterlimit:4;stroke-opacity:1;stroke-dasharray:none"
             id="path16124"
             d="m -93.911117,23.778977 c 1.912964,2.499509 4.738014,3.665157 7.370422,2.751873"
             inkscape:connector-curvature="0" />
          <path
             style="fill:#fcef3c;fill-opacity:1;fill-rule:evenodd;stroke:#000000;stroke-width:0.60116649000000000;stroke-linecap:butt;stroke-linejoin:miter;stroke-miterlimit:4;stroke-opacity:1;stroke-dasharray:none"
             id="path16126"
             d="m -81.012616,39.976935 c -1.895052,-2.165773 -2.279419,-1.353851 -3.542787,-1.624572 -1.263367,-0.270722 -5.027003,-2.420223 -5.027003,-2.420223"
             inkscape:connector-curvature="0" />
          <path
             style="fill:#fcef3c;stroke:#000000;stroke-width:0.60116649000000000;stroke-linecap:butt;stroke-linejoin:miter;stroke-miterlimit:4;stroke-opacity:1;stroke-dasharray:none;fill-opacity:1"
             id="path16128"
             d="m -86.010531,46.941116 c 1.31694,-0.147446 2.256474,-0.909719 2.527196,-2.082847 0.270722,-1.173127 -1.002293,-2.220866 -2.17542,-2.85255 -1.173127,-0.631684 -0.628966,-4.223929 -0.628966,-4.223929"
             inkscape:connector-curvature="0" />
        </g>
      </g>
    </g>
    <g
       id="g6474"
       transform="matrix(0.48806239,0,0,0.48806239,-65.175114,80.315633)">
      <path
         inkscape:connector-curvature="0"
         id="path5876"
         d="m -262.51977,99.784704 0,-144.999999 14,0 14,0 0,15.5 0,15.499999 14,0 14,0 0,-15.499999 0,-15.5 14,0 14,0 0,15.5 0,15.499999 14,0 14,0 0,-15.499999 0,-15.5 14,0 14,0 0,144.999999 0,145.000006 -70,0 -70,0 0,-145.000006 z"
         style="fill:#ffffff;fill-opacity:1;stroke:#000000;stroke-opacity:1" />
      <path
         inkscape:connector-curvature="0"
         id="path5906"
         d="m -145.14257,157.71111 0,-86.5 21.5,0 21.5,0 0,-15.499999 0,-15.5 14.000001,0 13.999999,0 0,15.5 0,15.499999 14,0 14,0 0,-15.499999 0,-15.5 14,0 14,0 0,15.5 0,15.499999 13.9999998,0 14,0 0,-15.499999 0,-15.5 14.0000002,0 14,0 0,15.5 0,15.499999 14,0 14,0 0,-15.499999 0,-15.5 14,0 14,0 0,101.999999 0,102 -119.5,0 -119.5,0 0,-86.5 z"
         style="fill:#ffffff;fill-opacity:1;stroke:#000000;stroke-opacity:1" />
      <path
         inkscape:connector-curvature="0"
         id="path6444"
         d="m -228.14719,54.529872 0,-33 13,0 13,0 0,33 0,33 -13,0 -13,0 0,-33 z"
         style="fill:#000000;stroke:#000000;stroke-opacity:1" />
      <path
         style="fill:#000000;stroke:#000000;stroke-opacity:1"
         d="m -185.72078,153.52482 0,-33 13,0 13,0 0,33 0,33 -13,0 -13,0 0,-33 z"
         id="path6464"
         inkscape:connector-curvature="0" />
      <path
         inkscape:connector-curvature="0"
         id="path6466"
         d="m -89.934005,119.58369 0,-16.06604 22.936096,0 22.936096,0 0,16.06604 0,16.06604 -22.936096,0 -22.936096,0 0,-16.06604 z"
         style="fill:#000000;stroke:#000000;stroke-width:0.92679894;stroke-opacity:1" />
      <path
         style="fill:#000000;stroke:#000000;stroke-width:0.92679894;stroke-opacity:1"
         d="m 2.065995,119.58369 0,-16.06604 22.936096,0 22.936096,0 0,16.06604 0,16.06604 -22.936096,0 -22.936096,0 0,-16.06604 z"
         id="path6472"
         inkscape:connector-curvature="0" />
    </g>
  </g>
  <g
     id="layer2"
     inkscape:label="Reflet final"
     inkscape:groupmode="layer"
     sodipodi:insensitive="true">
    <use
       xlink:href="#shield"
       fill="url(#Gradient1)"
       id="use4161" />
  </g>
  <g
     id="layer1"
     inkscape:label="Contour final"
     inkscape:groupmode="layer"
     sodipodi:insensitive="true">
    <use
       xlink:href="#shield"
       style="fill:none;stroke:#000;stroke-width:3"
       id="use4164" />
  </g>
</svg>
