<?xml version="1.0" encoding="UTF-8" standalone="no"?>
<svg
   xmlns:dc="http://purl.org/dc/elements/1.1/"
   xmlns:cc="http://creativecommons.org/ns#"
   xmlns:rdf="http://www.w3.org/1999/02/22-rdf-syntax-ns#"
   xmlns:svg="http://www.w3.org/2000/svg"
   xmlns="http://www.w3.org/2000/svg"
   xmlns:xlink="http://www.w3.org/1999/xlink"
   xmlns:sodipodi="http://sodipodi.sourceforge.net/DTD/sodipodi-0.dtd"
   xmlns:inkscape="http://www.inkscape.org/namespaces/inkscape"
   height="660"
   width="600"
   version="1.0"
   id="svg2"
   sodipodi:version="0.32"
   inkscape:version="0.46"
   sodipodi:docname="Blason_ville_fr_Neuvic-Entier_(Haute-Vienne).svg"
   sodipodi:docbase="D:\Mes documents\Renaud-Notre Lapin"
   inkscape:export-filename="/Users/olivier/Desktop/Blason Rouge/Blason_Vide_3D.png"
   inkscape:export-xdpi="144"
   inkscape:export-ydpi="144"
   inkscape:output_extension="org.inkscape.output.svg.inkscape">
  <metadata
     id="metadata49">
    <rdf:RDF>
      <cc:Work
         rdf:about="">
        <dc:format>image/svg+xml</dc:format>
        <dc:type
           rdf:resource="http://purl.org/dc/dcmitype/StillImage" />
        <dc:title>Gabarit d'un blason en pointe pour le projet Blasons de Wikipédia</dc:title>
        <dc:date>03-AUG-2006</dc:date>
        <dc:creator>
          <cc:Agent>
            <dc:title>Jérôme BLUM (wagner51)</dc:title>
          </cc:Agent>
        </dc:creator>
        <cc:license
           rdf:resource="http://web.resource.org/cc/PublicDomain" />
        <dc:language>fr</dc:language>
        <dc:subject>
          <rdf:Bag>
            <rdf:li>gabarit modèle blason projet wikipédia</rdf:li>
          </rdf:Bag>
        </dc:subject>
      </cc:Work>
      <cc:License
         rdf:about="http://web.resource.org/cc/PublicDomain">
        <cc:permits
           rdf:resource="http://web.resource.org/cc/Reproduction" />
        <cc:permits
           rdf:resource="http://web.resource.org/cc/Distribution" />
        <cc:permits
           rdf:resource="http://web.resource.org/cc/DerivativeWorks" />
      </cc:License>
    </rdf:RDF>
  </metadata>
  <sodipodi:namedview
     inkscape:window-height="977"
     inkscape:window-width="1280"
     inkscape:pageshadow="2"
     inkscape:pageopacity="0.0"
     guidetolerance="10.0"
     gridtolerance="10.0"
     objecttolerance="10.0"
     borderopacity="1.0"
     bordercolor="#666666"
     pagecolor="#ffffff"
     id="base"
     showgrid="false"
     height="660px"
     inkscape:zoom="1.1621207"
     inkscape:cx="300.00013"
     inkscape:cy="330.00014"
     inkscape:window-x="-4"
     inkscape:window-y="-4"
     inkscape:current-layer="layer3"
     inkscape:object-nodes="true" />
  <desc
     id="desc4">Flag of Canton of Valais (Wallis)</desc>
  <defs
     id="defs6">
    <linearGradient
       id="linearGradient2893">
      <stop
         style="stop-color:white;stop-opacity:0.3137255;"
         offset="0"
         id="stop2895" />
      <stop
         id="stop2897"
         offset="0.19"
         style="stop-color:white;stop-opacity:0.25098041;" />
      <stop
         style="stop-color:#6b6b6b;stop-opacity:0.1254902;"
         offset="0.60000002"
         id="stop2901" />
      <stop
         style="stop-color:black;stop-opacity:0.1254902;"
         offset="1"
         id="stop2899" />
    </linearGradient>
    <radialGradient
       inkscape:collect="always"
       xlink:href="#linearGradient2893"
       id="radialGradient3163"
       gradientUnits="userSpaceOnUse"
       gradientTransform="matrix(1.353218,0,0,1.348928,-77.62935,-85.74693)"
       cx="221.44487"
       cy="226.33101"
       fx="221.44487"
       fy="226.33101"
       r="300" />
  </defs>
  <g
     inkscape:groupmode="layer"
     id="layer3"
     inkscape:label="Fond écu"
     style="display:inline">
    <path
       id="path2855"
       style="fill:#ffffff;fill-opacity:1;fill-rule:evenodd;stroke:none;stroke-width:1px;stroke-linecap:butt;stroke-linejoin:miter;stroke-opacity:1"
       d="M 300,658.5 C 300,658.5 598.50001,546.17969 598.50001,260.72817 C 598.50001,-24.723354 598.50001,2.1764765 598.50001,2.1764765 L 1.5,2.1764765 L 1.5,260.72817 C 1.5,546.17969 300,658.5 300,658.5 z "
       sodipodi:nodetypes="cccccc" />
    <path
       style="fill:#e20909;fill-opacity:1;stroke:#000000;stroke-width:3;stroke-miterlimit:4;stroke-dasharray:none;stroke-opacity:1"
       d="M 1.5 2.1875 C 14.653054 5.688988 27.064264 12.564216 37.375 22.875 C 47.689336 33.189297 54.562124 45.591944 58.0625 58.75 C 61.564037 71.903025 68.439264 84.345466 78.75 94.65625 C 89.06431 104.97055 101.5295 111.81206 114.6875 115.3125 C 127.84051 118.81404 140.25176 125.65796 150.5625 135.96875 C 160.87684 146.28304 167.71837 158.68569 171.21875 171.84375 C 174.72028 184.99676 181.62682 197.43916 191.9375 207.75 C 202.25183 218.06431 214.68581 224.90576 227.84375 228.40625 C 240.9968 231.90776 253.40801 238.75171 263.71875 249.0625 C 274.03307 259.37679 280.90587 271.77944 284.40625 284.9375 C 287.9078 298.09051 294.78301 310.53296 305.09375 320.84375 C 315.40805 331.15807 327.842 337.99956 341 341.5 C 354.15301 345.00157 366.59551 351.87671 376.90625 362.1875 C 387.22059 372.50179 394.06212 384.90444 397.5625 398.0625 C 401.06402 411.21554 407.93932 423.62667 418.25 433.9375 C 428.56432 444.2518 441.02956 451.09325 454.1875 454.59375 C 467.34055 458.09525 479.75176 464.97047 490.0625 475.28125 C 498.99507 484.21381 505.34371 494.73314 509.15625 505.9375 C 530.6824 479.75821 550.19438 449.88588 565.46875 416.125 C 563.20034 413.08917 560.69944 410.16818 557.9375 407.40625 C 547.62673 397.09544 535.21556 390.18899 522.0625 386.6875 C 508.90455 383.187 496.47056 376.37681 486.15625 366.0625 C 475.8456 355.75167 468.93903 343.34052 465.4375 330.1875 C 461.93711 317.02943 455.09557 304.6268 444.78125 294.3125 C 434.47052 284.00171 422.05925 277.09529 408.90625 273.59375 C 395.74826 270.09332 383.28306 263.28306 372.96875 252.96875 C 362.658 242.65795 355.81403 230.21552 352.3125 217.0625 C 348.81213 203.90443 341.90807 191.5018 331.59375 181.1875 C 321.283 170.87672 308.87181 164.00149 295.71875 160.5 C 282.56079 156.9995 270.12681 150.15805 259.8125 139.84375 C 249.50182 129.5329 242.62653 117.12177 239.125 103.96875 C 235.62462 90.810684 228.75182 78.408046 218.4375 68.09375 C 208.12677 57.782966 195.7155 50.907802 182.5625 47.40625 C 169.4045 43.905819 156.93931 37.064312 146.625 26.75 C 139.3309 19.455864 133.77995 11.102967 129.90625 2.1875 L 1.5 2.1875 z "
       id="path7368" />
    <path
       style="fill:#e20909;fill-opacity:1;stroke:#000000;stroke-width:3;stroke-miterlimit:4;stroke-dasharray:none;stroke-opacity:1"
       d="M 288.1875 2.1875 C 297.45277 12.097006 303.68714 23.758073 306.96875 36.09375 C 310.4703 49.246774 317.37682 61.68916 327.6875 72 C 338.00183 82.314315 350.43581 89.155762 363.59375 92.65625 C 376.74682 96.157755 389.15801 103.00171 399.46875 113.3125 C 409.78309 123.62679 416.65587 136.02944 420.15625 149.1875 C 423.65779 162.3405 430.53301 174.78296 440.84375 185.09375 C 451.15807 195.40806 463.592 202.24956 476.75 205.75 C 489.903 209.25156 502.34551 216.12671 512.65625 226.4375 C 522.97058 236.75179 529.81212 249.15444 533.3125 262.3125 C 536.81404 275.46554 543.68932 287.87666 554 298.1875 C 564.31434 308.50179 576.77956 315.34325 589.9375 318.84375 C 591.31723 319.21105 592.66892 319.62113 594.03125 320.0625 C 596.93658 301.1799 598.5 281.39493 598.5 260.71875 C 598.5 178.39222 598.5 224.65898 598.5 186.15625 C 594.61553 176.09653 588.65232 166.68356 580.53125 158.5625 C 570.22051 148.25171 557.80925 141.34529 544.65625 137.84375 C 531.49825 134.34331 519.03306 127.53306 508.71875 117.21875 C 498.40802 106.90795 491.56403 94.465524 488.0625 81.3125 C 484.56212 68.154434 477.65807 55.751804 467.34375 45.4375 C 457.03302 35.126722 444.62181 28.251496 431.46875 24.75 C 418.31081 21.249505 405.87681 14.408054 395.5625 4.09375 C 394.92856 3.4598003 394.29539 2.8370133 393.6875 2.1875 L 288.1875 2.1875 z "
       id="path7882" />
    <path
       style="fill:#e20909;fill-opacity:1;stroke:#000000;stroke-width:3;stroke-miterlimit:4;stroke-dasharray:none;stroke-opacity:1"
       d="M 1.5 151.21875 L 1.5 260.71875 C 1.5 260.81297 1.499935 260.90582 1.5 261 C 6.2094996 264.02649 10.688206 267.59443 14.8125 271.71875 C 25.126836 282.03306 31.968366 294.43569 35.46875 307.59375 C 38.970296 320.74678 45.87682 333.18916 56.1875 343.5 C 66.501829 353.81433 78.935806 360.65576 92.09375 364.15625 C 105.24681 367.65774 117.65801 374.50171 127.96875 384.8125 C 138.28308 395.12679 145.15587 407.52944 148.65625 420.6875 C 152.1578 433.84051 159.03301 446.28296 169.34375 456.59375 C 179.65805 466.90807 192.092 473.74956 205.25 477.25 C 218.40301 480.75157 230.84551 487.62671 241.15625 497.9375 C 251.47059 508.25179 258.31212 520.65444 261.8125 533.8125 C 265.31402 546.96558 272.18932 559.37666 282.5 569.6875 C 292.81432 580.0018 305.27956 586.84325 318.4375 590.34375 C 331.59055 593.84522 344.00176 600.72047 354.3125 611.03125 C 358.83556 615.5543 362.70369 620.46828 365.90625 625.6875 C 388.40392 612.52915 414.596 595.21441 441.15625 573.40625 C 437.33039 562.34779 431.02014 551.98888 422.1875 543.15625 C 411.87673 532.84544 399.46556 525.93898 386.3125 522.4375 C 373.15455 518.937 360.72056 512.12681 350.40625 501.8125 C 340.0956 491.50167 333.18903 479.09052 329.6875 465.9375 C 326.18711 452.77943 319.34557 440.3768 309.03125 430.0625 C 298.72052 419.75171 286.30925 412.84529 273.15625 409.34375 C 259.99826 405.84332 247.53306 399.03306 237.21875 388.71875 C 226.908 378.40797 220.06403 365.96552 216.5625 352.8125 C 213.06212 339.65443 206.15807 327.2518 195.84375 316.9375 C 185.533 306.62672 173.12181 299.75149 159.96875 296.25 C 146.81079 292.74952 134.37681 285.90805 124.0625 275.59375 C 113.75181 265.28292 106.87653 252.87177 103.375 239.71875 C 99.874616 226.56067 93.00182 214.15804 82.6875 203.84375 C 72.376769 193.53295 59.9655 186.6578 46.8125 183.15625 C 33.654501 179.65583 21.189312 172.81431 10.875 162.5 C 7.3445033 158.96948 4.2254633 155.18725 1.5 151.21875 z "
       id="path7884" />
  </g>
  <g
     inkscape:groupmode="layer"
     id="layer4"
     inkscape:label="Meubles"
     sodipodi:insensitive="true" />
  <g
     inkscape:groupmode="layer"
     id="layer2"
     inkscape:label="Reflet final"
     sodipodi:insensitive="true">
    <path
       sodipodi:nodetypes="cccccc"
       d="M 300.00001,658.5 C 300.00001,658.5 598.50001,546.17969 598.50001,260.72817 C 598.50001,-24.723334 598.50001,2.1764865 598.50001,2.1764865 L 1.5,2.1764865 L 1.5,260.72817 C 1.5,546.17969 300.00001,658.5 300.00001,658.5 z "
       style="opacity:1;fill:url(#radialGradient3163);fill-opacity:1;fill-rule:evenodd;stroke:none;stroke-width:1px;stroke-linecap:butt;stroke-linejoin:miter;stroke-opacity:1"
       id="path2875"
       inkscape:export-xdpi="144"
       inkscape:export-ydpi="144" />
  </g>
  <g
     inkscape:groupmode="layer"
     id="layer1"
     inkscape:label="Contour final"
     sodipodi:insensitive="true">
    <path
       sodipodi:nodetypes="cccccc"
       d="M 299.99999,658.50028 C 299.99999,658.50028 1.5,546.17992 1.5,260.72828 C 1.5,-24.723336 1.5,2.1764957 1.5,2.1764957 L 598.49999,2.1764957 L 598.49999,260.72828 C 598.49999,546.17992 299.99999,658.50028 299.99999,658.50028 z "
       style="opacity:1;fill:none;fill-opacity:1;fill-rule:evenodd;stroke:#000000;stroke-width:3.00000048;stroke-linecap:butt;stroke-linejoin:miter;stroke-miterlimit:4;stroke-dasharray:none;stroke-opacity:1"
       id="path1411"
       inkscape:export-xdpi="144"
       inkscape:export-ydpi="144" />
  </g>
</svg>
