<?xml version="1.0" encoding="UTF-8" standalone="no"?>
<svg
   xmlns:dc="http://purl.org/dc/elements/1.1/"
   xmlns:cc="http://creativecommons.org/ns#"
   xmlns:rdf="http://www.w3.org/1999/02/22-rdf-syntax-ns#"
   xmlns:svg="http://www.w3.org/2000/svg"
   xmlns="http://www.w3.org/2000/svg"
   xmlns:xlink="http://www.w3.org/1999/xlink"
   xmlns:sodipodi="http://sodipodi.sourceforge.net/DTD/sodipodi-0.dtd"
   xmlns:inkscape="http://www.inkscape.org/namespaces/inkscape"
   height="660"
   width="600"
   version="1.0"
   id="svg2"
   sodipodi:version="0.32"
   inkscape:version="0.46"
   sodipodi:docname="blason_ville_fr_seillac-01_(loir-et-cher).svg"
   sodipodi:docbase="L:\Héraldique"
   inkscape:export-filename="/Users/olivier/Desktop/Blason Rouge/Blason_Vide_3D.png"
   inkscape:export-xdpi="144"
   inkscape:export-ydpi="144"
   inkscape:output_extension="org.inkscape.output.svg.inkscape">
  <metadata
     id="metadata49">
    <rdf:RDF>
      <cc:Work
         rdf:about="">
        <dc:format>image/svg+xml</dc:format>
        <dc:type
           rdf:resource="http://purl.org/dc/dcmitype/StillImage" />
        <dc:title>Gabarit d'un blason en pointe pour le projet Blasons de Wikipédia</dc:title>
        <dc:date>03-AUG-2006</dc:date>
        <dc:creator>
          <cc:Agent>
            <dc:title>Jérôme BLUM (wagner51)</dc:title>
          </cc:Agent>
        </dc:creator>
        <cc:license
           rdf:resource="http://web.resource.org/cc/PublicDomain" />
        <dc:language>fr</dc:language>
        <dc:subject>
          <rdf:Bag>
            <rdf:li>gabarit modèle blason projet wikipédia</rdf:li>
          </rdf:Bag>
        </dc:subject>
        <dc:rights>
          <cc:Agent>
            <dc:title />
          </cc:Agent>
        </dc:rights>
        <dc:publisher>
          <cc:Agent>
            <dc:title />
          </cc:Agent>
        </dc:publisher>
        <dc:identifier />
        <dc:source />
        <dc:relation />
        <dc:coverage />
        <dc:description />
        <dc:contributor>
          <cc:Agent>
            <dc:title />
          </cc:Agent>
        </dc:contributor>
      </cc:Work>
      <cc:License
         rdf:about="http://web.resource.org/cc/PublicDomain">
        <cc:permits
           rdf:resource="http://web.resource.org/cc/Reproduction" />
        <cc:permits
           rdf:resource="http://web.resource.org/cc/Distribution" />
        <cc:permits
           rdf:resource="http://web.resource.org/cc/DerivativeWorks" />
      </cc:License>
    </rdf:RDF>
  </metadata>
  <sodipodi:namedview
     inkscape:window-height="675"
     inkscape:window-width="978"
     inkscape:pageshadow="2"
     inkscape:pageopacity="0.0"
     guidetolerance="10.0"
     gridtolerance="10.0"
     objecttolerance="10.0"
     borderopacity="1.0"
     bordercolor="#666666"
     pagecolor="#ffffff"
     id="base"
     showgrid="false"
     height="660px"
     inkscape:zoom="0.6999997"
     inkscape:cx="300"
     inkscape:cy="329.99986"
     inkscape:window-x="516"
     inkscape:window-y="200"
     inkscape:current-layer="layer4"
     showguides="true"
     inkscape:guide-bbox="true" />
  <desc
     id="desc4">Flag of Canton of Valais (Wallis)</desc>
  <defs
     id="defs6">
    <inkscape:perspective
       sodipodi:type="inkscape:persp3d"
       inkscape:vp_x="-50 : 600 : 1"
       inkscape:vp_y="0 : 1000 : 0"
       inkscape:vp_z="700 : 600 : 1"
       inkscape:persp3d-origin="300 : 400 : 1"
       id="perspective8492" />
    <inkscape:perspective
       sodipodi:type="inkscape:persp3d"
       inkscape:vp_x="-50 : 600 : 1"
       inkscape:vp_y="0 : 1000 : 0"
       inkscape:vp_z="700 : 600 : 1"
       inkscape:persp3d-origin="300 : 400 : 1"
       id="perspective11585" />
    <inkscape:perspective
       sodipodi:type="inkscape:persp3d"
       inkscape:vp_x="-50 : 600 : 1"
       inkscape:vp_y="0 : 1000 : 0"
       inkscape:vp_z="700 : 600 : 1"
       inkscape:persp3d-origin="300 : 400 : 1"
       id="perspective4575" />
    <inkscape:perspective
       sodipodi:type="inkscape:persp3d"
       inkscape:vp_x="-50 : 600 : 1"
       inkscape:vp_y="0 : 1000 : 0"
       inkscape:vp_z="700 : 600 : 1"
       inkscape:persp3d-origin="300 : 400 : 1"
       id="perspective10025" />
    <inkscape:perspective
       sodipodi:type="inkscape:persp3d"
       inkscape:vp_x="-50 : 600 : 1"
       inkscape:vp_y="0 : 1000 : 0"
       inkscape:vp_z="700 : 600 : 1"
       inkscape:persp3d-origin="300 : 400 : 1"
       id="perspective14654" />
    <inkscape:perspective
       sodipodi:type="inkscape:persp3d"
       inkscape:vp_x="-50 : 600 : 1"
       inkscape:vp_y="0 : 1000 : 0"
       inkscape:vp_z="700 : 600 : 1"
       inkscape:persp3d-origin="300 : 400 : 1"
       id="perspective10951" />
    <linearGradient
       id="linearGradient2893">
      <stop
         style="stop-color:white;stop-opacity:0.3137255;"
         offset="0"
         id="stop2895" />
      <stop
         id="stop2897"
         offset="0.19"
         style="stop-color:white;stop-opacity:0.25098041;" />
      <stop
         style="stop-color:#6b6b6b;stop-opacity:0.1254902;"
         offset="0.60000002"
         id="stop2901" />
      <stop
         style="stop-color:black;stop-opacity:0.1254902;"
         offset="1"
         id="stop2899" />
    </linearGradient>
    <linearGradient
       id="linearGradient2885">
      <stop
         id="stop2887"
         offset="0"
         style="stop-color:white;stop-opacity:1;" />
      <stop
         style="stop-color:white;stop-opacity:1;"
         offset="0.22857143"
         id="stop2891" />
      <stop
         id="stop2889"
         offset="1"
         style="stop-color:black;stop-opacity:1;" />
    </linearGradient>
    <linearGradient
       id="linearGradient2955">
      <stop
         id="stop2867"
         offset="0"
         style="stop-color:#fd0000;stop-opacity:1;" />
      <stop
         style="stop-color:#e77275;stop-opacity:0.65882355;"
         offset="0.5"
         id="stop2873" />
      <stop
         style="stop-color:black;stop-opacity:0.32291666;"
         offset="1"
         id="stop2959" />
    </linearGradient>
    <radialGradient
       inkscape:collect="always"
       xlink:href="#linearGradient2955"
       id="radialGradient2961"
       cx="225.52438"
       cy="218.90099"
       fx="225.52438"
       fy="218.90099"
       r="300"
       gradientTransform="matrix(-4.167939e-4,2.182867,-1.884232,-3.599562e-4,615.5972,-289.1214)"
       gradientUnits="userSpaceOnUse" />
    <polygon
       id="star"
       transform="scale(53,53)"
       points="0,-1 0.58778525,0.80901699 -0.95105652,-0.30901699 0.95105652,-0.30901699 -0.58778525,0.80901699 0,-1 " />
    <clipPath
       id="clip">
      <path
         d="M 0,-200 L 0,600 L 300,600 L 300,-200 L 0,-200 z "
         id="path10" />
    </clipPath>
    <radialGradient
       inkscape:collect="always"
       xlink:href="#linearGradient2955"
       id="radialGradient1911"
       gradientUnits="userSpaceOnUse"
       gradientTransform="matrix(-4.167939e-4,2.182867,-1.884232,-3.599562e-4,615.5972,-289.1214)"
       cx="225.52438"
       cy="218.90099"
       fx="225.52438"
       fy="218.90099"
       r="300" />
    <radialGradient
       inkscape:collect="always"
       xlink:href="#linearGradient2955"
       id="radialGradient2865"
       gradientUnits="userSpaceOnUse"
       gradientTransform="matrix(0,1.748721,-1.593162,-1.049767e-7,551.7876,-191.2898)"
       cx="225.52438"
       cy="218.90099"
       fx="225.52438"
       fy="218.90099"
       r="300" />
    <radialGradient
       inkscape:collect="always"
       xlink:href="#linearGradient2955"
       id="radialGradient2871"
       gradientUnits="userSpaceOnUse"
       gradientTransform="matrix(0,1.386237,-1.323286,-5.741131e-8,-158.0823,-109.5408)"
       cx="225.52438"
       cy="218.90099"
       fx="225.52438"
       fy="218.90099"
       r="300" />
    <radialGradient
       inkscape:collect="always"
       xlink:href="#linearGradient2893"
       id="radialGradient3163"
       gradientUnits="userSpaceOnUse"
       gradientTransform="matrix(1.353218,0,0,1.348928,-77.62935,-85.74693)"
       cx="221.44487"
       cy="226.33101"
       fx="221.44487"
       fy="226.33101"
       r="300" />
    <radialGradient
       gradientTransform="matrix(0,1.386237,-1.323286,-5.741131e-8,-158.0823,-109.5408)"
       gradientUnits="userSpaceOnUse"
       xlink:href="#linearGradient2955"
       id="radialGradient6397"
       fy="218.90099"
       fx="225.52438"
       r="300"
       cy="218.90099"
       cx="225.52438" />
    <radialGradient
       gradientTransform="matrix(0,1.748721,-1.593162,-1.049767e-7,551.7876,-191.2898)"
       gradientUnits="userSpaceOnUse"
       xlink:href="#linearGradient2955"
       id="radialGradient6395"
       fy="218.90099"
       fx="225.52438"
       r="300"
       cy="218.90099"
       cx="225.52438" />
    <radialGradient
       gradientTransform="matrix(-4.167939e-4,2.182867,-1.884232,-3.599562e-4,615.5972,-289.1214)"
       gradientUnits="userSpaceOnUse"
       xlink:href="#linearGradient2955"
       id="radialGradient6393"
       fy="218.90099"
       fx="225.52438"
       r="300"
       cy="218.90099"
       cx="225.52438" />
    <clipPath
       id="clipPath6389">
      <path
         id="path6391"
         d="M 0,-200 L 0,600 L 300,600 L 300,-200 L 0,-200 z " />
    </clipPath>
    <polygon
       id="polygon6387"
       transform="scale(53,53)"
       points="0,-1 0.58778525,0.80901699 -0.95105652,-0.30901699 0.95105652,-0.30901699 -0.58778525,0.80901699 0,-1 " />
    <radialGradient
       gradientTransform="matrix(-4.167939e-4,2.182867,-1.884232,-3.599562e-4,615.5972,-289.1214)"
       gradientUnits="userSpaceOnUse"
       xlink:href="#linearGradient2955"
       id="radialGradient6385"
       fy="218.90099"
       fx="225.52438"
       r="300"
       cy="218.90099"
       cx="225.52438" />
    <linearGradient
       id="linearGradient6377">
      <stop
         id="stop6379"
         offset="0"
         style="stop-color:#fd0000;stop-opacity:1" />
      <stop
         id="stop6381"
         offset="0.5"
         style="stop-color:#e77275;stop-opacity:0.65882355" />
      <stop
         id="stop6383"
         offset="1"
         style="stop-color:black;stop-opacity:0.32291666" />
    </linearGradient>
    <linearGradient
       id="linearGradient6369">
      <stop
         id="stop6371"
         offset="0"
         style="stop-color:white;stop-opacity:1" />
      <stop
         id="stop6373"
         offset="0.22857143"
         style="stop-color:white;stop-opacity:1" />
      <stop
         id="stop6375"
         offset="1"
         style="stop-color:black;stop-opacity:1" />
    </linearGradient>
    <linearGradient
       id="linearGradient6359">
      <stop
         id="stop6361"
         offset="0"
         style="stop-color:white;stop-opacity:0.3137255" />
      <stop
         id="stop6363"
         offset="0.19"
         style="stop-color:white;stop-opacity:0.25098041" />
      <stop
         id="stop6365"
         offset="0.60000002"
         style="stop-color:#6b6b6b;stop-opacity:0.1254902" />
      <stop
         id="stop6367"
         offset="1"
         style="stop-color:black;stop-opacity:0.1254902" />
    </linearGradient>
    <linearGradient
       id="linearGradient6465">
      <stop
         style="stop-color:white;stop-opacity:0.3137255"
         offset="0"
         id="stop6467" />
      <stop
         style="stop-color:white;stop-opacity:0.25098041"
         offset="0.19"
         id="stop6469" />
      <stop
         style="stop-color:#6b6b6b;stop-opacity:0.1254902"
         offset="0.60000002"
         id="stop6471" />
      <stop
         style="stop-color:black;stop-opacity:0.1254902"
         offset="1"
         id="stop6473" />
    </linearGradient>
    <linearGradient
       id="linearGradient6457">
      <stop
         style="stop-color:white;stop-opacity:1"
         offset="0"
         id="stop6459" />
      <stop
         style="stop-color:white;stop-opacity:1"
         offset="0.22857143"
         id="stop6461" />
      <stop
         style="stop-color:black;stop-opacity:1"
         offset="1"
         id="stop6463" />
    </linearGradient>
    <linearGradient
       id="linearGradient6449">
      <stop
         style="stop-color:#fd0000;stop-opacity:1"
         offset="0"
         id="stop6451" />
      <stop
         style="stop-color:#e77275;stop-opacity:0.65882355"
         offset="0.5"
         id="stop6453" />
      <stop
         style="stop-color:black;stop-opacity:0.32291666"
         offset="1"
         id="stop6455" />
    </linearGradient>
    <radialGradient
       cx="225.52438"
       cy="218.90099"
       r="300"
       fx="225.52438"
       fy="218.90099"
       id="radialGradient6447"
       xlink:href="#linearGradient2955"
       gradientUnits="userSpaceOnUse"
       gradientTransform="matrix(-4.167939e-4,2.182867,-1.884232,-3.599562e-4,615.5972,-289.1214)" />
    <polygon
       points="0,-1 0.58778525,0.80901699 -0.95105652,-0.30901699 0.95105652,-0.30901699 -0.58778525,0.80901699 0,-1 "
       transform="scale(53,53)"
       id="polygon6445" />
    <clipPath
       id="clipPath6441">
      <path
         d="M 0,-200 L 0,600 L 300,600 L 300,-200 L 0,-200 z "
         id="path6443" />
    </clipPath>
    <radialGradient
       cx="225.52438"
       cy="218.90099"
       r="300"
       fx="225.52438"
       fy="218.90099"
       id="radialGradient6439"
       xlink:href="#linearGradient2955"
       gradientUnits="userSpaceOnUse"
       gradientTransform="matrix(-4.167939e-4,2.182867,-1.884232,-3.599562e-4,615.5972,-289.1214)" />
    <radialGradient
       cx="225.52438"
       cy="218.90099"
       r="300"
       fx="225.52438"
       fy="218.90099"
       id="radialGradient6437"
       xlink:href="#linearGradient2955"
       gradientUnits="userSpaceOnUse"
       gradientTransform="matrix(0,1.748721,-1.593162,-1.049767e-7,551.7876,-191.2898)" />
    <radialGradient
       cx="225.52438"
       cy="218.90099"
       r="300"
       fx="225.52438"
       fy="218.90099"
       id="radialGradient6435"
       xlink:href="#linearGradient2955"
       gradientUnits="userSpaceOnUse"
       gradientTransform="matrix(0,1.386237,-1.323286,-5.741131e-8,-158.0823,-109.5408)" />
    <inkscape:perspective
       id="perspective11825"
       inkscape:persp3d-origin="300 : 400 : 1"
       inkscape:vp_z="700 : 600 : 1"
       inkscape:vp_y="0 : 1000 : 0"
       inkscape:vp_x="-50 : 600 : 1"
       sodipodi:type="inkscape:persp3d" />
    <radialGradient
       gradientTransform="matrix(1.353218,0,0,1.348928,-77.62935,-85.74693)"
       gradientUnits="userSpaceOnUse"
       xlink:href="#linearGradient2893"
       id="radialGradient8681"
       fy="226.33101"
       fx="221.44487"
       r="300"
       cy="226.33101"
       cx="221.44487" />
    <radialGradient
       gradientTransform="matrix(0,1.386237,-1.323286,-5.741131e-8,-158.0823,-109.5408)"
       gradientUnits="userSpaceOnUse"
       xlink:href="#linearGradient2955"
       id="radialGradient8679"
       fy="218.90099"
       fx="225.52438"
       r="300"
       cy="218.90099"
       cx="225.52438" />
    <radialGradient
       gradientTransform="matrix(0,1.748721,-1.593162,-1.049767e-7,551.7876,-191.2898)"
       gradientUnits="userSpaceOnUse"
       xlink:href="#linearGradient2955"
       id="radialGradient8677"
       fy="218.90099"
       fx="225.52438"
       r="300"
       cy="218.90099"
       cx="225.52438" />
    <radialGradient
       gradientTransform="matrix(-4.167939e-4,2.182867,-1.884232,-3.599562e-4,615.5972,-289.1214)"
       gradientUnits="userSpaceOnUse"
       xlink:href="#linearGradient2955"
       id="radialGradient8675"
       fy="218.90099"
       fx="225.52438"
       r="300"
       cy="218.90099"
       cx="225.52438" />
    <clipPath
       id="clipPath8671">
      <path
         id="path8673"
         d="M 0,-200 L 0,600 L 300,600 L 300,-200 L 0,-200 z " />
    </clipPath>
    <polygon
       id="polygon8669"
       transform="scale(53,53)"
       points="0,-1 0.58778525,0.80901699 -0.95105652,-0.30901699 0.95105652,-0.30901699 -0.58778525,0.80901699 0,-1 " />
    <radialGradient
       gradientTransform="matrix(-4.167939e-4,2.182867,-1.884232,-3.599562e-4,615.5972,-289.1214)"
       gradientUnits="userSpaceOnUse"
       xlink:href="#linearGradient2955"
       id="radialGradient8667"
       fy="218.90099"
       fx="225.52438"
       r="300"
       cy="218.90099"
       cx="225.52438" />
    <linearGradient
       id="linearGradient8659">
      <stop
         id="stop8661"
         offset="0"
         style="stop-color:#fd0000;stop-opacity:1" />
      <stop
         id="stop8663"
         offset="0.5"
         style="stop-color:#e77275;stop-opacity:0.65882355" />
      <stop
         id="stop8665"
         offset="1"
         style="stop-color:black;stop-opacity:0.32291666" />
    </linearGradient>
    <linearGradient
       id="linearGradient8651">
      <stop
         id="stop8653"
         offset="0"
         style="stop-color:white;stop-opacity:1" />
      <stop
         id="stop8655"
         offset="0.22857143"
         style="stop-color:white;stop-opacity:1" />
      <stop
         id="stop8657"
         offset="1"
         style="stop-color:black;stop-opacity:1" />
    </linearGradient>
    <linearGradient
       id="linearGradient8641">
      <stop
         id="stop8643"
         offset="0"
         style="stop-color:white;stop-opacity:0.3137255" />
      <stop
         id="stop8645"
         offset="0.19"
         style="stop-color:white;stop-opacity:0.25098041" />
      <stop
         id="stop8647"
         offset="0.60000002"
         style="stop-color:#6b6b6b;stop-opacity:0.1254902" />
      <stop
         id="stop8649"
         offset="1"
         style="stop-color:black;stop-opacity:0.1254902" />
    </linearGradient>
    <inkscape:perspective
       id="perspective8638"
       inkscape:persp3d-origin="300 : 400 : 1"
       inkscape:vp_z="700 : 600 : 1"
       inkscape:vp_y="0 : 1000 : 0"
       inkscape:vp_x="-50 : 600 : 1"
       sodipodi:type="inkscape:persp3d" />
    <inkscape:perspective
       id="perspective9287"
       inkscape:persp3d-origin="300 : 400 : 1"
       inkscape:vp_z="700 : 600 : 1"
       inkscape:vp_y="0 : 1000 : 0"
       inkscape:vp_x="-50 : 600 : 1"
       sodipodi:type="inkscape:persp3d" />
    <inkscape:perspective
       id="perspective3855"
       inkscape:persp3d-origin="372.04724 : 350.78739 : 1"
       inkscape:vp_z="744.09448 : 526.18109 : 1"
       inkscape:vp_y="0 : 1000 : 0"
       inkscape:vp_x="0 : 526.18109 : 1"
       sodipodi:type="inkscape:persp3d" />
    <inkscape:perspective
       id="perspective2541"
       inkscape:persp3d-origin="372.04724 : 350.78739 : 1"
       inkscape:vp_z="744.09448 : 526.18109 : 1"
       inkscape:vp_y="0 : 1000 : 0"
       inkscape:vp_x="0 : 526.18109 : 1"
       sodipodi:type="inkscape:persp3d" />
    <inkscape:perspective
       id="perspective4593"
       inkscape:persp3d-origin="87.5 : 52.666667 : 1"
       inkscape:vp_z="175 : 79 : 1"
       inkscape:vp_y="0 : 1000 : 0"
       inkscape:vp_x="0 : 79 : 1"
       sodipodi:type="inkscape:persp3d" />
  </defs>
  <g
     inkscape:groupmode="layer"
     id="layer3"
     inkscape:label="Fond écu"
     style="display:inline">
    <path
       d="M 300,658.5 C 300,658.5 598.5,546.17969 598.5,260.72817 C 598.5,-24.723354 598.5,2.1764768 598.5,2.1764768 L 1.5,2.1764768 L 1.5,260.72817 C 1.5,546.17969 300,658.5 300,658.5 z"
       style="fill:#5ab532;fill-opacity:1;fill-rule:evenodd;stroke:none;stroke-width:1px;stroke-linecap:butt;stroke-linejoin:miter;stroke-opacity:1;display:inline"
       id="path11587" />
    <rect
       style="opacity:1;fill:#fcef3c;fill-opacity:1;fill-rule:nonzero;stroke:#000000;stroke-width:3;stroke-linecap:round;stroke-linejoin:bevel;stroke-miterlimit:4;stroke-dasharray:none;stroke-dashoffset:0;stroke-opacity:1"
       id="rect3460"
       width="597"
       height="195"
       x="1.5"
       y="1.5" />
    <path
       style="fill:#fcef3c;fill-opacity:1;fill-rule:evenodd;stroke:none;stroke-width:1px;stroke-linecap:butt;stroke-linejoin:miter;stroke-opacity:1;display:inline"
       d="M 98.531,515 C 185.67412,615.46491 299.99975,658.5 299.99975,658.5 C 299.99975,658.5 414.32535,615.46491 501.46855,515 L 98.531,515 z"
       id="path2531" />
    <path
       style="fill:none;fill-rule:evenodd;stroke:#000000;stroke-width:3;stroke-linecap:butt;stroke-linejoin:miter;stroke-miterlimit:4;stroke-dasharray:none;stroke-opacity:1"
       d="M 171.6,557.46548 C 187.55584,568.85314 199.97516,551.47216 211.44158,561.30856"
       id="path10872"
       sodipodi:nodetypes="cc"
       inkscape:tile-cx="161.50795"
       inkscape:tile-cy="512.87357"
       inkscape:tile-w="42.40363"
       inkscape:tile-h="5.2829623"
       inkscape:tile-x0="140.30613"
       inkscape:tile-y0="510.23208" />
    <use
       x="0"
       y="0"
       inkscape:tiled-clone-of="#path10872"
       xlink:href="#path10872"
       transform="translate(50.794,32.000005)"
       id="use10876"
       width="600"
       height="660" />
    <use
       x="0"
       y="0"
       inkscape:tiled-clone-of="#path10872"
       xlink:href="#path10872"
       transform="translate(108.49387,2.367136e-6)"
       id="use10880"
       width="600"
       height="660" />
    <use
       x="0"
       y="0"
       inkscape:tiled-clone-of="#path10872"
       xlink:href="#path10872"
       transform="translate(166.194,32.000005)"
       id="use10882"
       width="600"
       height="660" />
    <use
       x="0"
       y="0"
       inkscape:tiled-clone-of="#path10872"
       xlink:href="#path10872"
       transform="translate(108.49387,64.000004)"
       id="use10884"
       width="600"
       height="660" />
    <use
       x="0"
       y="0"
       inkscape:tiled-clone-of="#path10872"
       xlink:href="#path10872"
       transform="translate(216.994,2.367136e-6)"
       id="use10886"
       width="600"
       height="660" />
    <rect
       style="fill:#000000;fill-opacity:1;stroke:none;stroke-width:3;stroke-miterlimit:4;stroke-dasharray:none;stroke-opacity:1"
       id="rect5117"
       width="403"
       height="3"
       x="98.5"
       y="513.5" />
  </g>
  <g
     inkscape:groupmode="layer"
     id="layer4"
     inkscape:label="Meubles"
     style="display:inline">
    <g
       style="display:inline"
       transform="matrix(0.55125,0,0,0.55125,79.491771,81.874366)"
       id="g4461"
       inkscape:label="Calque 1">
      <path
         d="M 378.56441,281.29689 C 371.3904,280.74794 365.90718,286.86035 365.30796,293.60813 C 363.84455,302.23158 365.0638,311.00533 365.42045,319.67098 C 356.9839,325.10372 346.58268,327.11601 336.61178,327.4808 C 331.19711,327.72884 323.65478,325.50532 323.6254,318.97324 C 325.74737,312.20954 324.09844,302.6797 316.42323,300.2476 C 309.37101,297.90243 303.77413,303.61166 297.42895,305.55164 C 281.79232,312.44807 268.91476,328.5975 270.91452,346.43151 C 271.00267,354.66712 269.21603,363.11498 270.50853,371.45595 C 271.50927,383.94444 278.44403,396.35515 290.5629,400.83043 C 286.95404,482.81093 284.1681,564.83731 280.47986,646.80701 C 277.90588,660.72138 264.29709,667.91721 255.83498,677.95639 C 253.67771,681.24713 251.15313,683.88097 247.89005,686.08137 C 237.65864,695.55504 238.301,710.85943 238.17446,723.73511 C 238.45643,730.81383 237.34643,737.82968 236.74923,744.77906 C 237.86952,761.23573 229.04888,777.98869 235.24123,794.00135 C 244.39944,810.75605 261.98728,820.78485 279.42496,827.03943 C 292.6336,831.4965 305.87608,836.37568 319.6928,838.60489 C 335.81586,842.10183 352.90654,847.66249 369.31416,842.5035 C 393.91224,843.09357 418.77939,840.65038 443.1364,844.8442 C 467.91806,845.35966 491.43941,836.35018 514.89321,829.68609 C 534.3709,823.11202 552.97778,811.31782 564.0653,793.57376 C 561.97847,761.26288 559.31979,728.99298 556.63806,696.72704 C 543.28474,682.19876 529.67206,667.89892 516.71103,653.01888 C 513.52206,575.66642 510.49578,498.30741 507.39323,420.9515 C 503.63967,414.12009 505.15249,405.34324 510.74677,399.97518 C 516.88612,393.0374 526.88727,387.06125 526.27645,376.4781 C 524.75499,359.18065 529.78967,340.21157 520.67223,324.37486 C 514.30054,314.92864 504.02528,308.80147 493.86669,304.09629 C 488.16884,301.73031 479.39054,299.36613 475.29856,305.35667 C 472.79883,308.50345 475.74041,312.66406 474.89344,316.38499 C 474.99175,323.26033 468.72362,328.38554 462.13213,328.3586 C 454.43186,328.93247 446.88549,327.07323 439.35526,325.72527 C 434.02753,317.18011 437.44575,306.42829 437.64475,297.00662 C 437.61306,293.68282 439.02029,289.19025 434.96641,287.68882 C 422.76838,280.5632 407.93198,282.3618 394.36489,282.17577 C 388.94713,282.77218 383.87724,281.41457 378.56441,281.29689 z"
         style="fill:#fcef3c;fill-opacity:1;stroke:none;stroke-width:7;stroke-miterlimit:4;stroke-dasharray:none;stroke-opacity:1"
         id="path4415" />
      <path
         d="M 433.6343,312.48097 C 433.56177,315.57192 433.48917,318.66288 433.41665,321.75376 C 412.88045,319.701 392.15326,319.74241 371.5593,321.0244 C 371.5593,312.62796 371.5593,304.23153 371.5593,295.83517 C 370.19766,277.03578 403.15428,287.52142 415.21568,286.29892 C 436.30962,282.63986 436.52186,295.99484 433.6343,312.48097 z M 281.89229,347.1216 C 271.42991,358.5001 278.8058,321.43161 285.24403,320.74344 C 293.67381,309.55012 326.71665,291.5838 320.36311,319.40124 C 321.65676,335.77761 289.95123,331.86525 281.89229,347.1216 z M 522.11137,335.98266 C 522.52146,339.70978 523.62649,349.6317 521.87384,351.04398 C 509.73883,331.792 470.26475,337.92825 480.17162,309.58173 C 490.70674,298.27217 519.95886,320.40407 522.11137,335.98266 z M 356.29099,352.37314 C 351.61656,340.23575 348.84128,330.81164 352.38431,329.43127 C 367.30195,323.61941 384.96816,326.59549 396.07549,326.49142 C 402.23939,326.43373 402.42766,336.86118 400.69942,346.77043 C 391.88159,353.97937 369.4155,347.35625 356.29099,352.37314 z M 448.40652,331.22418 C 453.25668,336.12547 452.24233,350.84282 446.94117,354.19939 C 438.88598,354.65983 416.24718,351.53005 408.22533,348.4661 C 404.01314,343.16718 405.32898,329.26858 410.90677,326.28781 C 415.09224,324.59819 443.52266,328.82672 448.40652,331.22418 z M 317.00286,359.81579 C 303.6123,368.46869 308.12741,351.13444 305.11381,343.78837 C 306.53465,333.43316 345.01563,322.53635 346.37014,336.09321 C 356.75329,359.66757 331.67887,355.47922 317.00286,359.81579 z M 495.26017,341.5109 C 492.3672,344.05045 496.00574,362.84452 492.22877,363.96193 C 485.11425,363.00008 461.36632,358.42822 455.96902,354.64895 C 453.56832,348.33711 456.08044,337.29972 459.47727,331.92733 C 464.81919,329.80752 492.86933,337.16187 495.26017,341.5109 z M 279.19147,377.57065 C 268.96605,367.85139 282.98759,350.91175 295.39693,345.25631 C 311.27066,354.44427 295.78333,373.11625 279.19147,377.57065 z M 522.9775,361.09569 C 523.15302,365.73381 524.8783,373.77129 521.75212,377.30496 C 517.63846,378.92314 505.37389,372.99612 500.82075,365.9318 C 499.05045,362.69522 497.91878,348.26603 500.02865,345.39618 C 504.05719,342.35305 516.59645,355.01633 522.9775,361.09569 z M 429.64494,357.64974 C 433.59368,358.69909 426.90805,374.15826 425.24557,381.47415 C 411.8934,379.07619 398.29685,380.15702 384.80783,379.95838 C 382.6528,374.35279 380.15293,359.86433 383.35955,357.6089 C 393.62934,350.3857 418.49065,354.68575 429.64494,357.64974 z M 375.63587,380.93644 C 371.95283,383.87471 353.9209,384.22135 348.29514,383.1596 C 346.04957,378.75418 339.93695,366.9898 340.63606,363.47759 C 344.85733,356.30963 369.75465,356.74334 375.84365,357.6223 C 378.06646,368.33984 377.57765,377.55891 375.63587,380.93644 z M 453.30393,384.28624 C 446.71005,384.47321 438.48093,384.32556 432.618,381.34574 C 430.35868,375.22858 435.14279,361.03936 442.62801,358.77147 C 445.14805,358.32616 460.95242,362.23305 463.4296,364.04836 C 465.51305,368.20927 455.73812,377.50374 453.30393,384.28624 z M 321.32417,388.84413 C 312.70929,393.30998 308.54255,384.10878 303.26602,379.25416 C 291.06173,369.74103 333.74027,356.6016 335.48802,369.28815 C 352.10343,385.30967 335.61385,386.85979 321.32417,388.84413 z M 494.21765,393.7957 C 490.74534,394.24014 463.79403,389.86324 461.8663,386.08909 C 459.40849,378.9876 470.55435,364.01076 477.78958,366.48161 C 486.8754,367.94639 499.53955,371.53141 502.71737,377.91534 C 504.81255,382.12429 501.92736,387.93075 494.21765,393.7957 z M 298.30149,395.74806 C 294.88493,399.12574 282.03028,387.52174 287.1745,385.32789 C 291.92318,368.8942 316.99429,397.07557 298.30149,395.74806 z M 504.63739,397.76236 C 499.08553,399.32567 500.9874,394.20687 503.10729,392.38047 C 510.14215,374.79623 521.1269,394.12145 504.63739,397.76236 z M 402.17976,416.82247 C 395.69024,418.40033 395.12285,417.04214 395.61923,411.3072 C 396.86722,401.36446 388.75923,382.51278 405.13351,387.29358 C 403.59542,396.53619 407.44274,411.36791 402.17976,416.82247 z M 343.31412,421.73832 C 335.50084,424.03667 339.57273,409.54699 339.75776,409.2082 C 335.99952,391.38434 345.77107,386.65165 363.01681,388.01704 C 373.75747,390.02068 396.5061,380.01564 389.14606,400.93867 C 397.2897,428.63295 359.20938,413.76249 343.31412,421.73832 z M 460.37653,421.77397 L 460.37653,421.77397 L 460.27865,424.70179 L 457.26519,424.19476 C 443.63962,416.41368 406.80031,429.01287 410.80342,405.54553 C 403.77093,382.33935 424.75085,387.78974 439.73158,389.58495 C 464.55199,384.74005 460.5097,403.90913 460.37653,421.77397 z M 298.02817,433.0512 C 291.24423,432.21337 298.27261,411.47033 296.51082,404.33377 C 305.49841,401.39031 339.02875,382.01144 333.79623,403.65439 C 341.14043,435.2022 315.03523,426.1361 298.02817,433.0512 z M 504.6716,432.93733 C 496.94511,435.16186 478.84808,426.74887 467.30178,425.70592 C 467.57279,413.4098 456.94016,384.01429 480.31214,397.12224 C 503.17931,396.96444 507.52013,413.42773 504.6716,432.93733 z M 403.30416,456.43441 C 395.37414,456.43664 387.44383,456.45731 379.5141,456.53776 C 364.70053,462.17555 371.04384,446.17124 369.76149,437.80989 C 366.20672,412.24319 404.64247,428.77656 420.73406,425.54617 C 437.6454,423.50249 427.76093,445.61329 430.25698,456.43441 C 421.27271,456.43441 412.28843,456.43441 403.30416,456.43441 z M 317.36297,461.47809 C 310.06184,465.68293 315.0415,451.90021 313.58183,448.51886 C 308.24834,431.32743 325.19461,432.4702 337.95786,429.992 C 350.23778,428.5363 369.34362,419.05025 363.63691,438.78693 C 372.12107,469.02351 334.42895,454.42932 317.36297,461.47809 z M 486.43391,449.95246 C 485.01198,453.78682 490.35232,468.762 481.21241,462.6228 C 464.0976,456.45249 428.08639,469.79393 436.37883,440.3292 C 430.52894,420.38337 449.7588,429.98819 462.05795,431.43244 C 474.78591,433.93822 491.96798,432.59148 486.43391,449.95246 z M 301.69825,465.11756 C 289.99357,470.55808 294.39878,464.63163 293.53099,456.22598 C 292.52024,451.16033 292.54379,443.64753 295.25519,440.64185 C 299.68654,435.72968 310.45926,435.04447 307.40223,446.05226 C 305.82985,452.65154 311.59915,464.70077 301.69825,465.11756 z M 505.88495,466.42742 C 505.56388,471.7522 496.46862,464.88738 492.73581,464.83675 C 492.68215,457.22456 492.62849,449.61237 492.57484,442.00025 C 501.73506,429.32487 510.33488,455.62913 505.88495,466.42742 z M 396.04668,488.30401 C 395.44616,486.21538 386.10034,491.65129 387.44102,487.22829 C 389.50365,479.48827 380.50072,461.11632 393.44338,463.99669 C 399.48888,465.77389 413.34982,459.94122 413.19259,467.75795 C 415.12378,482.39614 413.2492,492.64872 396.04668,488.30401 z M 344.19105,492.45397 C 336.62978,496.07169 342.76279,482.13686 340.58997,479.59968 C 333.55496,461.05201 350.30699,464.2636 363.03805,463.57975 C 378.91329,459.98148 384.65825,466.95123 381.15029,482.88301 C 382.45244,498.28478 354.2764,487.00445 344.19105,492.45397 z M 459.42577,481.04012 C 459.42577,482.37187 459.42577,483.70355 459.42577,485.03531 C 463.04191,504.32999 433.72389,487.45243 422.75996,491.14988 C 413.67788,489.35783 421.31196,472.27817 419.53432,463.90896 C 433.64042,468.6979 467.85001,455.66997 459.42577,481.04012 z M 297.557,498.39007 C 287.8685,504.44825 291.18042,468.98477 300.24817,472.28775 C 315.25389,468.62214 343.716,455.52139 334.46812,482.62539 C 339.28011,503.22532 308.87687,490.67367 297.557,498.39007 z M 507.18674,496.49648 C 505.62431,505.84792 479.38327,492.35523 469.8391,495.15983 C 459.87454,493.55828 468.8102,473.13142 465.54769,467.0126 C 484.36617,469.82065 515.58916,468.6629 507.18674,496.49648 z M 325.68357,528.74477 C 300.21252,533.13759 316.13104,514.72762 311.72555,501.80808 C 333.94474,499.78614 357.82015,497.75254 380.08199,496.22993 C 388.07956,495.16725 396.52137,494.00417 397.06593,496.265 C 398.64558,502.82394 399.75839,514.93879 399.99289,527.37578 C 392.09456,527.37578 384.19615,527.37578 376.29782,527.37578 C 366.74098,528.00158 356.54414,529.23128 360.22553,516.2866 C 365.50062,501.87823 346.31382,506.0915 339.01406,508.95594 C 336.29647,518.03644 344.16534,532.3501 325.68357,528.74477 z M 488.71548,528.72619 L 488.71548,528.72619 L 488.43222,529.8418 L 484.76308,529.65332 C 470.16795,531.00791 457.16703,531.16808 461.94653,513.94373 C 461.44584,505.61306 442.14388,505.87032 439.25977,510.9508 C 440.28312,517.32083 442.15922,525.96855 438.11217,527.88879 C 430.95804,531.28339 411.44175,531.20028 406.81234,526.07154 C 401.85393,520.57823 404.64722,506.31347 405.19725,496.16489 C 426.13554,497.3956 447.02147,499.46255 467.91281,501.32921 C 489.68021,497.24233 489.88274,510.6607 488.71548,528.72619 z M 301.66577,527.7845 C 299.35467,528.90062 293.18197,530.14674 292.30396,529.23783 C 290.87966,525.10731 289.93459,511.85208 293.983,506.13205 C 296.11002,503.12672 300.35325,501.64164 303.97198,504.35678 C 309.54768,508.54031 307.45372,529.59967 301.66577,527.7845 z M 508.26383,508.09579 C 511.49638,514.96119 508.82797,520.51183 508.37337,527.39199 C 504.76991,531.19783 497.46439,532.13872 494.16717,529.18367 C 490.03507,525.48024 490.86144,512.25173 493.34734,507.08129 C 497.13259,500.48029 504.80974,502.91736 508.26383,508.09579 z M 353.99422,552.72238 C 350.73811,553.11288 347.45558,553.19405 344.18493,553.3965 C 344.70392,540.30432 343.41697,525.5146 345.04682,513.46659 C 348.11883,513.0014 351.78344,512.82063 353.04677,514.62708 C 357.74597,521.34634 353.20587,544.07833 353.99422,552.72238 z M 455.82469,534.95931 C 455.82469,540.67704 455.82469,546.3947 455.82469,552.11243 C 441.23792,564.05578 445.6545,530.23202 445.95894,519.50943 C 448.98608,504.14137 461.65455,525.04523 455.82469,534.95931 z M 413.16127,564.01682 L 413.18078,564.98126 C 417.8717,580.30359 400.66118,571.99848 391.9274,572.74945 C 379.77157,572.74182 391.01913,549.72123 387.31109,541.51472 C 384.44809,530.45428 398.12839,536.37849 404.63534,534.93806 C 420.23495,531.59006 409.52179,555.16074 413.16127,564.01682 z M 353.49071,573.42285 C 345.61485,572.09074 336.13665,576.75033 326.35978,572.60483 C 322.78894,567.79926 325.63322,544.6705 324.66237,534.84566 C 324.33381,533.68769 341.17371,531.52121 338.06921,539.0456 C 339.18058,547.4241 333.07285,564.90672 348.31617,560.04648 C 365.89083,564.8787 360.19413,547.27559 360.73934,537.44405 C 360.53083,529.21435 375.0929,535.43292 381.31918,533.49763 C 381.03757,546.65671 380.75928,559.81587 380.48329,572.97502 C 371.48577,573.12432 362.48824,573.27355 353.49071,573.42285 z M 474.68234,565.63731 C 474.4755,568.88858 474.77698,572.21937 474.13901,575.43132 C 457.21953,575.02635 438.00421,576.23761 421.89764,574.07789 C 418.12356,571.18305 418.66617,563.95236 419.1611,556.76892 C 419.92029,549.84295 416.50408,538.83162 420.69365,535.2654 C 423.00699,533.81315 435.06386,533.72493 437.55696,535.50826 C 440.21153,538.00049 439.67454,543.61466 439.04622,549.3182 C 431.79746,563.63647 463.01044,567.02898 461.94653,554.95973 C 463.75838,549.09335 458.07126,535.17681 465.24289,535.06417 C 483.84343,530.55756 471.58167,555.3444 474.68234,565.63731 z M 315.79038,573.38836 C 309.20795,577.40047 295.08565,577.68279 291.13389,573.79449 C 285.18505,567.94121 289.5662,546.28364 292.34804,538.45495 C 294.69025,531.86345 305.43207,532.96971 315.99427,534.29534 C 319.31735,540.02013 324.31544,568.19221 315.79038,573.38836 z M 510.05213,569.41845 C 515.30417,584.78406 489.7943,573.41875 482.78068,575.70248 C 482.78975,568.40993 473.98244,536.21709 486.88412,535.85951 C 511.68479,529.99521 511.20728,550.4784 510.05213,569.41845 z M 351.46244,617.30625 C 345.35363,618.11902 339.15609,617.57835 333.01523,617.76301 C 326.77671,615.93294 311.83171,622.59452 314.74225,611.84117 C 317.78804,599.47339 306.98306,573.32483 329.57209,580.08537 C 357.7778,570.52124 349.6001,598.78918 351.46244,617.30625 z M 308.67759,607.77 L 308.65332,608.91471 L 308.62544,610.23019 C 312.04827,622.03102 299.21847,617.23099 291.96149,618.12312 C 285.00967,616.06359 286.36692,584.473 293.0102,581.75094 C 314.77588,574.17174 309.43583,592.75557 308.67759,607.77 z M 395.35909,581.10296 C 397.68071,584.58319 400.08068,615.71443 395.84228,617.11251 C 385.89183,619.11407 362.68212,621.11569 358.07576,615.91213 C 353.2305,610.43869 353.06514,584.81013 356.40219,580.71664 C 361.72402,574.18844 387.3842,577.35848 395.35909,581.10296 z M 485.20781,610.65087 C 485.27904,613.5017 485.35034,616.35261 485.42157,619.20345 C 474.25943,619.1773 463.09629,619.27316 451.93501,619.11306 C 449.50457,613.18315 444.59874,589.08556 452.61036,581.90571 C 456.28735,579.39533 477.21974,578.97962 481.37748,581.98227 C 487.21729,587.07161 485.59522,599.57091 485.20781,610.65087 z M 512.00997,618.3932 L 512.00161,619.56356 L 510.99021,619.56356 C 504.73239,617.60536 490.02116,624.2817 491.44972,614.47241 C 494.73196,604.3641 482.18787,578.36563 499.97492,583.1707 C 520.04816,578.20106 507.86173,607.06073 512.00997,618.3932 z M 441.43259,618.13709 C 435.66999,620.62674 413.27592,621.37188 406.76711,619.08562 C 398.64652,613.35168 406.03861,593.09054 404.80315,581.75216 C 416.27822,581.18197 435.39732,576.85498 442.35065,583.79535 C 447.72757,591.04174 445.75252,611.12801 441.43259,618.13709 z M 382.14555,642.34042 C 382.07144,644.83122 381.99733,647.32194 381.92322,649.81267 C 364.24434,649.81274 346.56539,649.81281 328.88644,649.81296 C 328.95234,641.17028 329.01824,632.5276 329.08414,623.88486 C 342.60384,623.9087 356.12383,623.84344 369.64179,623.61312 C 384.64723,619.24054 384.45601,629.69024 382.14555,642.34042 z M 323.02597,636.87519 C 323.0354,638.11771 323.04491,639.36023 323.05441,640.60275 C 326.93249,652.67812 315.64655,649.70471 307.46575,649.81281 C 300.16333,647.77517 282.629,655.42597 286.99394,642.39926 C 281.70978,622.64983 296.20941,623.06352 311.08585,624.07384 C 322.04964,621.222 324.91473,626.62564 323.02597,636.87519 z M 411.3384,627.41846 C 413.53751,634.0626 413.21082,642.67899 411.56894,649.71385 C 410.95286,652.35374 393.95754,651.20305 390.68509,649.28122 C 385.83299,646.43175 387.08999,635.51449 389.07786,625.97298 C 395.70767,620.0044 408.99971,620.35241 411.3384,627.41846 z M 513.27287,648.64232 L 513.37197,649.94116 L 513.47215,651.2531 C 503.91005,651.25317 494.34787,651.25317 484.78576,651.25332 C 472.91162,654.91267 477.87737,641.85996 477.0183,634.58786 C 473.29715,622.69009 483.90069,625.39429 492.00378,625.54971 C 510.54973,621.41149 516.09979,630.71849 513.27287,648.64232 z M 471.03063,638.34768 C 471.06354,642.64961 471.09646,646.95146 471.1293,651.25339 C 458.92709,651.21335 446.72201,651.37439 434.5224,651.05706 C 414.40292,656.50845 417.0315,639.37298 417.42481,625.07358 C 431.31333,624.98866 445.20206,625.22605 459.09037,625.3304 C 470.03392,622.71832 472.93186,628.13759 471.03063,638.34768 z M 353.91398,673.39977 C 353.90512,678.35976 353.94085,683.32055 353.821,688.27975 C 334.81657,693.86265 306.976,688.55011 284.58467,689.90787 C 277.99454,687.44451 250.1969,693.89643 256.82621,685.53968 C 267.43148,676.96456 274.34088,660.1014 286.9351,655.95259 C 308.29594,650.73591 282.11699,690.61361 297.44307,693.27013 C 300.86222,682.58297 300.22339,667.0901 301.84438,655.93451 C 317.0079,655.93451 332.1715,655.93451 347.33509,655.93451 C 358.59993,652.68439 352.32864,666.9704 353.91398,673.39977 z M 541.24184,690.90861 C 534.46043,691.1187 527.67418,691.14938 520.88995,691.18179 C 503.96709,696.51456 506.27913,680.59964 505.53521,668.10431 C 496.79308,654.71281 516.77283,653.78827 521.02161,662.39212 C 523.47099,670.07713 553.82648,689.52774 541.24184,690.90861 z M 396.58727,674.21002 C 396.67492,679.88173 396.76257,685.55344 396.85015,691.22514 C 384.57895,691.08175 372.30739,690.96651 360.03583,690.85452 C 360.03583,680.09174 360.03583,669.32889 360.03583,658.56611 C 369.45713,654.34399 405.82369,650.91835 396.58727,674.21002 z M 476.84004,691.72188 C 466.59611,691.89552 456.33899,691.7769 446.10176,692.22581 C 446.10176,680.60886 446.10176,668.9919 446.10176,657.37495 C 463.45683,657.37495 480.81189,657.37495 498.16689,657.37495 C 499.32954,668.74811 500.26798,680.14814 501.63654,691.49775 C 493.37104,691.57243 485.10554,691.64719 476.84004,691.72188 z M 439.97991,674.84021 C 439.97991,676.27603 439.97991,677.71186 439.97991,679.14761 C 444.46074,694.74708 432.23859,693.92012 419.74534,691.58021 C 396.771,698.46297 403.77208,675.44627 402.51703,660.84718 C 404.29035,651.40816 424.28739,659.98962 433.40102,657.37495 C 444.66586,654.12482 438.39457,668.41083 439.97991,674.84021 z M 246.45905,696.32644 C 255.60372,695.82042 260.83883,696.29338 261.58375,699.11231 C 263.50061,706.36627 264.92534,720.2532 260.24206,720.90262 C 252.55749,721.96825 248.0279,720.82707 245.94373,718.19173 C 242.13696,713.37823 244.53967,704.05185 246.45905,696.32644 z M 555.43192,722.45332 C 534.90653,729.04993 539.84952,712.18533 537.43924,697.35657 C 556.98327,690.35303 555.25871,708.09414 555.43192,722.45332 z M 310.70327,722.64461 C 303.14495,719.92305 259.89729,729.04712 266.72776,714.36212 C 261.53038,690.03491 283.90061,696.07494 299.53422,696.18477 C 318.98043,690.67216 311.13526,709.9528 310.70327,722.64461 z M 331.98907,723.41704 C 309.6434,734.91077 311.80736,685.63777 333.40667,696.62259 C 345.01275,700.88383 370.60444,687.57905 369.68328,706.70981 C 356.83093,713.05946 348.83379,727.07193 331.98907,723.41704 z M 505.74076,724.0149 L 505.74076,724.0149 L 502.62842,724.09916 L 499.70556,724.18523 C 485.22229,733.18844 482.89447,697.93778 491.33369,697.76198 C 505.06621,700.61814 532.45325,687.91143 532.22509,707.76874 C 542.80378,729.46226 518.78656,722.73651 505.74076,724.0149 z M 479.88757,724.84927 C 475.96325,724.7565 471.87494,726.00349 468.02026,724.87339 C 451.25318,728.33742 443.12222,714.63976 430.33246,708.15024 C 429.63659,689.1659 454.85981,702.23719 466.60907,698.06303 C 484.75523,688.29768 486.56167,719.93501 479.88757,724.84927 z M 415.68433,732.9077 C 409.93332,735.57107 401.05492,731.25344 394.14653,732.66175 C 380.12902,737.0694 381.79884,719.41689 377.655,710.64205 C 365.58625,689.89721 399.52849,702.41278 410.73694,698.70719 C 438.27998,690.81354 417.6596,719.2081 415.68433,732.9077 z M 371.22793,742.50596 C 368.68686,737.7055 345.58359,727.10744 359.99269,720.78674 C 371.51803,698.26779 386.93593,737.84897 371.22793,742.50596 z M 434.17489,739.74976 C 413.9064,754.7315 424.78982,721.81218 428.78731,713.48302 C 442.73539,720.63362 451.19369,730.47539 434.17489,739.74976 z M 275.2861,755.74629 C 265.20284,753.39442 254.64165,748.75233 245.85191,743.67783 C 241.17179,738.27195 244.0379,728.15636 250.99685,725.94666 C 254.31532,724.89298 272.76447,726.84643 275.68675,728.76329 C 279.99012,733.71002 275.02811,746.17604 275.2861,755.74629 z M 527.89341,756.62639 C 523.19357,758.92907 525.7574,748.71531 524.17061,746.80429 C 511.68428,721.98151 540.92308,730.70038 555.8845,728.86613 C 564.73914,749.0186 540.96535,749.51029 527.89341,756.62639 z M 325.10934,755.05437 C 324.98316,758.42679 325.36797,762.398 324.89039,765.40353 C 312.03265,761.19855 271.84764,767.84485 281.98274,747.3729 C 277.68492,723.23713 297.53936,728.46252 314.57825,729.46031 C 337.20805,723.90571 322.61206,742.64929 325.10934,755.05437 z M 486.43391,765.92389 C 482.59169,766.25332 478.74905,766.58087 474.91044,766.95207 C 475.03057,754.99661 475.66378,743.03993 471.04892,731.69774 C 485.24526,735.22219 517.2731,719.34998 516.78738,740.21005 C 530.61317,764.74317 502.63505,764.04686 486.43391,765.92389 z M 356.61984,767.29806 C 355.33756,771.0159 346.76468,766.43071 343.83095,767.90708 C 324.88405,772.81413 331.15642,748.7604 333.81042,737.60092 C 332.81674,726.16201 347.69232,724.8981 352.30984,733.68489 C 370.89101,743.73177 362.14311,752.63797 356.61984,767.29806 z M 466.49909,768.89572 C 463.84265,770.69648 448.42352,771.01265 444.83036,769.68407 C 440.97691,766.86557 443.20296,758.51257 436.49161,752.28737 C 431.94366,744.20733 448.58017,736.49042 453.49363,729.62114 C 467.34456,725.28291 466.56831,741.51581 468.78859,750.53422 C 468.933,757.45832 470.16219,765.50919 466.49909,768.89572 z M 256.81519,757.90046 C 257.42371,760.22064 255.89879,774.29022 254.70143,776.43711 L 241.59499,768.83285 C 239.046,767.35388 239.03448,754.33884 241.2629,752.09436 C 245.12139,748.41577 254.67204,751.79395 256.81519,757.90046 z M 557.09872,770.49885 C 555.50135,774.26458 549.32959,774.72278 546.35387,777.31455 C 544.65963,774.53632 539.14047,763.86558 542.32037,760.02927 C 546.31383,755.21167 549.83569,752.98886 556.70987,751.15001 C 558.60772,756.71743 559.39419,765.0875 557.09872,770.49885 z M 293.42685,770.69734 C 297.07878,774.64312 291.15961,783.3113 291.40894,789.61399 C 283.20978,789.79591 274.00944,785.17529 260.42255,778.41389 C 257.67513,777.0467 262.44527,766.2101 264.13209,759.60298 C 267.1892,762.27585 284.53678,761.09181 293.42685,770.69734 z M 511.44899,791.35216 C 507.9859,793.34046 504.14858,773.52492 506.03324,771.86395 C 515.02386,763.94027 531.1843,763.36402 537.3127,762.71057 C 547.52264,784.12068 528.14888,785.64754 511.44899,791.35216 z M 334.96349,796.2868 C 334.69715,797.00845 335.36199,798.78451 333.9222,798.17737 C 323.33465,797.65226 299.19564,799.02449 298.03472,789.41974 C 297.28167,780.63 298.20995,773.94898 302.18217,770.89591 C 307.61311,767.89167 326.13039,770.60962 332.27715,773.3337 C 338.06755,777.221 338.12301,785.53698 334.96349,796.2868 z M 502.07904,794.05737 C 495.15278,799.70351 473.48469,801.26926 465.13248,798.48476 C 463.59388,796.286 459.16001,778.23377 462.74633,776.95869 C 473.90638,772.99102 495.16676,772.02866 500.36881,772.46043 C 503.1814,781.39264 504.93938,790.02293 502.07904,794.05737 z M 342.71627,775.11515 C 344.99222,772.88097 353.44325,774.78501 356.74775,777.58932 C 360.72932,780.96814 357.99344,793.66658 356.92154,798.05356 C 354.4239,800.69762 347.87921,799.58431 342.78728,798.86928 C 339.06102,798.34611 341.53533,780.42913 342.71627,775.11515 z M 456.85344,800.47119 L 456.85344,800.47119 L 449.01503,800.86406 C 438.32918,803.1859 444.70583,780.67292 445.23995,776.1733 C 461.80731,767.45781 459.18212,795.53093 456.85344,800.47119 z M 272.30937,812.04154 C 269.69808,820.54522 238.58391,797.27753 238.46407,787.23497 C 237.78627,783.25548 239.27741,777.08552 242.23354,774.95167 C 253.43558,782.88205 270.31069,784.74741 274.37661,793.68919 C 276.28115,797.87761 274.99758,803.63856 272.30937,812.04154 z M 530.90731,816.75644 C 524.54981,821.12341 527.89882,797.51534 525.35429,794.52363 C 535.5723,794.45982 557.04449,771.84191 559.934,779.56451 C 564.9197,797.60112 543.15049,808.26285 530.90731,816.75644 z M 313.60013,806.33044 C 314.97884,809.70199 315.09004,827.4521 312.13484,829.67418 C 307.98956,829.91877 281.40873,823.16486 278.91556,817.83648 C 274.32605,807.74084 280.41447,788.40201 291.30264,797.65953 C 300.24133,799.86181 310.36851,800.31029 313.60013,806.33044 z M 490.70314,831.08545 C 481.86593,833.36328 488.19052,813.94911 486.43391,807.32355 C 490.83559,802.66698 516.79624,793.73111 519.63274,800.01522 C 531.88673,824.12066 507.88283,825.16951 490.70314,831.08545 z M 419.94024,827.07607 C 421.54178,837.17006 416.99664,834.78074 409.37069,834.90843 C 409.39784,808.16289 409.16262,781.41806 408.99034,754.67324 C 406.34592,742.71749 411.00616,734.34504 421.89908,746.77109 C 421.99876,773.53932 420.57388,800.30993 419.94024,827.07607 z M 404.56864,800.27846 C 404.62727,808.75166 404.68582,817.22495 404.74438,825.69815 C 408.39228,836.76076 399.45431,835.32292 391.54532,834.90699 C 391.47006,807.2853 391.3948,779.66361 391.31946,752.042 C 388.5328,740.99077 394.11959,738.29024 404.32917,740.1999 C 404.3018,760.2264 404.43728,780.25253 404.56864,800.27846 z M 386.90748,787.91456 C 387.01004,803.14074 387.1126,818.36692 387.21516,833.59317 C 371.64724,842.55195 377.72306,817.05541 376.79218,806.75933 C 380.13557,786.1895 368.99684,758.87405 381.5871,742.73989 C 393.44993,743.37678 383.33031,775.87102 386.90748,787.91456 z M 372.06597,806.18978 C 372.13324,814.44692 372.20051,822.70407 372.26778,830.96121 C 364.53257,845.51442 358.55031,821.07234 362.68716,811.45262 C 364.28727,791.47481 356.33146,767.51679 371.37925,751.18321 C 371.72567,769.51712 371.91458,787.85342 372.06597,806.18978 z M 437.10207,833.19792 C 437.48234,837.21644 435.84932,836.84229 431.88892,835.69419 C 418.05096,837.45937 427.24021,810.25973 424.22689,793.53442 C 427.15919,783.17914 420.08147,733.87675 435.31053,762.00332 C 440.48911,785.2875 436.08145,809.52093 437.10207,833.19792 z M 355.71453,836.11307 L 355.71453,836.11314 L 353.19377,837.49027 C 340.77254,837.11899 324.52971,837.9355 319.24627,829.24061 C 317.33733,824.47083 317.94131,809.29082 321.3645,805.11068 C 326.92299,800.87047 343.07724,807.7067 350.0923,805.55729 C 361.52977,805.80511 355.55118,827.04928 355.71453,836.11307 z M 480.31206,807.76173 C 481.337,825.68872 481.72866,838.28193 459.6059,837.64425 L 455.93718,838.22129 C 438.90787,844.31367 443.74391,825.76607 443.49731,815.98271 C 440.84799,801.38867 472.84831,804.7778 480.31206,807.76173 z M 443.5967,844.78477 C 463.88334,845.67064 485.20169,839.0463 504.63062,833.18798 C 529.30619,827.09365 553.26263,814.6125 566.98355,792.48585 C 564.91631,759.85837 562.22328,727.24795 559.48811,694.66454 C 546.60703,680.58365 532.48177,665.81992 519.58182,650.99757 C 516.40956,573.72095 513.37312,496.43857 510.28231,419.1585 C 500.32538,398.14069 529.02077,394.65585 529.25599,375.92322 C 527.2947,354.83102 535.01499,328.55434 515.54061,313.52485 C 506.27128,305.45389 479.80136,289.05159 474.05878,306.22092 C 479.35317,330.20018 459.91033,326.56942 441.68546,322.94903 C 436.57041,315.35319 441.65478,298.70689 440.5087,287.83255 C 430.29321,276.56029 404.24339,279.68387 387.92112,279.27702 C 360.39125,273.22403 364.47424,298.90301 365.39201,317.47913 C 359.77266,322.06439 326.45197,331.0092 326.50814,317.19659 C 330.80604,301.78625 317.91768,290.5446 303.49879,300.76571 C 284.08578,307.09209 267.72014,325.73051 271.18568,347.09488 C 268.38959,367.29366 269.57146,391.06651 290.52704,400.25748 C 287.08224,481.15823 284.04991,562.07814 280.71941,642.98436 C 279.97442,658.91535 260.62543,667.226 252.80459,680.23867 C 231.74502,693.22612 241.28141,720.87835 236.61548,741.62694 C 238.6403,760.41473 225.74489,783.92528 239.31212,799.27534 C 256.42152,822.23189 285.14709,828.50448 310.88102,836.73109 C 330.49411,839.44213 351.21432,848.73422 370.72882,842.47071 C 395.02123,843.15621 419.72122,840.52425 443.5967,844.78477 z"
         style="fill:#000000;fill-opacity:1;stroke:none;stroke-opacity:1"
         id="path4417" />
      <g
         style="fill:#5ab532;fill-opacity:1"
         transform="translate(106.57789,256.13909)"
         id="g5366">
        <path
           style="fill:#5ab532;fill-opacity:1;fill-rule:evenodd;stroke:none;stroke-width:1px;stroke-linecap:butt;stroke-linejoin:miter;stroke-opacity:1"
           d="M 256.43543,593.06841 C 256.43543,585.89968 256.63666,579.8903 255.33325,570.11477 C 254.02985,560.33921 255.98496,550.56366 255.98496,543.39493 C 255.98496,536.22619 254.68155,523.84383 256.63666,512.76487 C 258.59177,501.68591 261.19859,495.82058 269.67074,490.60696 C 278.14287,485.39333 276.83947,483.43823 289.22183,483.43823 C 301.60418,483.43823 306.16611,484.74163 309.42462,486.04503 C 312.68315,487.34844 321.80699,494.51717 324.41381,499.73081 C 327.02061,504.94443 330.93084,506.89954 330.93084,523.19213 C 330.93084,539.48471 330.93084,552.51877 330.93084,562.29432 C 330.93084,572.06986 330.93084,579.2386 330.93084,581.84542 C 330.93084,584.45223 331.58254,591.71699 331.58254,591.71699 L 256.43543,593.06841 z"
           id="path4436"
           sodipodi:nodetypes="csssssssssscc" />
        <path
           style="fill:#5ab532;fill-opacity:1;fill-rule:evenodd;stroke:none;stroke-width:1px;stroke-linecap:butt;stroke-linejoin:miter;stroke-opacity:1"
           d="M 237.3344,258.2315 C 240.00246,256.89746 244.00455,255.56344 246.00558,257.56448 C 248.00663,259.56553 249.34066,263.56761 248.67365,274.23983 C 248.00663,284.91206 248.67365,297.58533 248.00663,298.91936 C 247.33961,300.25338 239.31806,302.03788 237.31701,299.36983 C 235.31596,296.70177 237.3344,282.91101 237.3344,275.57386 C 237.3344,268.23671 236.66738,259.56553 237.3344,258.2315 z"
           id="path4438"
           sodipodi:nodetypes="csssssc" />
        <path
           style="fill:#5ab532;fill-opacity:1;fill-rule:evenodd;stroke:none;stroke-width:1px;stroke-linecap:butt;stroke-linejoin:miter;stroke-opacity:1;display:inline"
           d="M 339.54861,258.63852 C 342.21666,257.30448 346.21875,255.97045 348.21979,257.9715 C 350.22084,259.97254 351.55486,263.97462 350.88785,274.64685 C 350.22084,285.31907 350.88785,297.99235 350.22084,299.32637 C 349.55382,300.6604 341.53226,303.34585 339.53122,300.67779 C 337.53017,298.00974 338.19719,284.66945 338.19719,277.3323 C 338.19719,269.99514 338.88159,259.97254 339.54861,258.63852 z"
           id="path4440"
           sodipodi:nodetypes="csssssc" />
      </g>
    </g>
    <g
       id="g4596"
       inkscape:label="Calque 1"
       transform="matrix(0.85,0,0,0.85,225.33575,31.179089)"
       style="fill:#e20909;fill-opacity:1;stroke:#000000;stroke-width:3.52941179;stroke-miterlimit:4;stroke-dasharray:none;stroke-opacity:1">
      <g
         transform="translate(-191.3618,-117.0945)"
         id="g7233"
         style="fill:#e20909;fill-opacity:1;stroke:#000000;stroke-width:3.52941179;stroke-miterlimit:4;stroke-dasharray:none;stroke-opacity:1">
        <path
           style="fill:#e20909;fill-opacity:1;fill-rule:evenodd;stroke:#000000;stroke-width:3.52941179;stroke-linecap:butt;stroke-linejoin:miter;stroke-miterlimit:4;stroke-dasharray:none;stroke-opacity:1"
           d="M 210.61551,124.75033 L 278.92313,216.00528 L 347.25949,124.75033 L 278.92313,124.75033 L 210.61551,124.75033 z"
           id="path1900" />
        <path
           style="fill:#e20909;fill-opacity:1;fill-rule:evenodd;stroke:#000000;stroke-width:3.52941179;stroke-linecap:butt;stroke-linejoin:miter;stroke-miterlimit:4;stroke-dasharray:none;stroke-opacity:1"
           d="M 272.5625,125.21875 C 257.19658,136.91298 242.73369,163.0608 240,170.9375 C 194.61121,176.569 180.98987,208.31114 208.5625,219.5 C 209.21616,215.9628 240.84674,185.42379 244.54099,184.2757 C 240.13735,185.90493 208.49552,216.30868 208.65625,219.5625 C 202.32508,242.82671 215.95091,252.17785 233.9375,250.625 C 236.83859,236.21456 251.45585,205.45338 258.347,197.83049 C 251.61004,206.012 236.69906,236.40682 233.875,251.1875 C 243.81155,272.71129 257.13805,278.74751 278.5625,265.21875 L 278.9375,203.22862 L 279.3125,265.21875 C 300.73695,278.74751 314.03219,272.71129 323.96875,251.1875 C 320.37709,237.94201 305.55099,207.43993 299.528,197.83049 C 304.28159,205.62089 318.75134,234.60829 323.9375,250.625 C 341.92409,252.17785 355.54994,242.82671 349.21875,219.5625 C 348.19525,212.5645 315.92094,183.16314 313.30276,183.65747 C 317.50127,183.19769 349.64716,213.85677 349.3125,219.5 C 376.88513,208.31114 363.2638,176.569 317.875,170.9375 C 315.14131,163.0608 301.23416,136.07938 285.86824,124.38515 C 285.86824,124.38515 281.22599,120.28731 278.9375,121.34375 L 272.5625,125.21875 z"
           id="path2792"
           sodipodi:nodetypes="ccccccccccccccccccccc" />
        <path
           style="fill:#e20909;fill-opacity:1;fill-rule:evenodd;stroke:#000000;stroke-width:3.52941179;stroke-linecap:butt;stroke-linejoin:miter;stroke-miterlimit:4;stroke-dasharray:none;stroke-opacity:1"
           d="M 246.70482,177.6338 C 269.83879,189.15241 290.99211,186.80647 311.17019,177.6338"
           id="path3686"
           sodipodi:nodetypes="cc" />
        <path
           style="fill:#e20909;fill-opacity:1;fill-rule:evenodd;stroke:#000000;stroke-width:3.52941179;stroke-linecap:butt;stroke-linejoin:miter;stroke-miterlimit:4;stroke-dasharray:none;stroke-opacity:1"
           d="M 223.36391,198.75177 C 258.93101,236.4434 295.98007,238.09807 334.5111,198.75177"
           id="path4573"
           sodipodi:nodetypes="cc" />
      </g>
    </g>
    <path
       id="path5331"
       d="M 95.024997,43.725 C 64.526997,43.725 39.775,68.476991 39.775,98.975 C 39.775,129.473 64.526997,154.225 95.024997,154.225 C 125.523,154.225 150.275,129.473 150.275,98.975 C 150.275,68.477 125.523,43.724991 95.024997,43.725 z M 95.024997,71.35 C 110.27399,71.35 122.65,83.726 122.65,98.975 C 122.64999,114.224 110.274,126.6 95.024997,126.6 C 79.775988,126.6 67.399997,114.224 67.399997,98.975 C 67.399997,83.726 79.775997,71.35 95.024997,71.35 z"
       style="display:inline;fill:#e20909;fill-opacity:1;stroke:#000000;stroke-width:3;stroke-miterlimit:4;stroke-dasharray:none;stroke-opacity:1"
       inkscape:tile-cx="95.025"
       inkscape:tile-cy="98.975"
       inkscape:tile-w="110.5"
       inkscape:tile-h="110.5"
       inkscape:tile-x0="39.775"
       inkscape:tile-y0="43.725" />
    <use
       style="display:inline"
       x="0"
       y="0"
       inkscape:tiled-clone-of="#path5331"
       xlink:href="#path5331"
       transform="translate(409.95,0)"
       id="use10870"
       width="600"
       height="660" />
  </g>
  <g
     inkscape:groupmode="layer"
     id="layer2"
     inkscape:label="Reflet final"
     sodipodi:insensitive="true"
     style="display:inline">
    <path
       sodipodi:nodetypes="cccccc"
       d="M 300.00001,658.5 C 300.00001,658.5 598.50001,546.17969 598.50001,260.72817 C 598.50001,-24.723334 598.50001,2.1764865 598.50001,2.1764865 L 1.5,2.1764865 L 1.5,260.72817 C 1.5,546.17969 300.00001,658.5 300.00001,658.5 z"
       style="opacity:1;fill:url(#radialGradient3163);fill-opacity:1;fill-rule:evenodd;stroke:none;stroke-width:1px;stroke-linecap:butt;stroke-linejoin:miter;stroke-opacity:1"
       id="path2875"
       inkscape:export-xdpi="144"
       inkscape:export-ydpi="144" />
  </g>
  <g
     inkscape:groupmode="layer"
     id="layer1"
     inkscape:label="Contour final"
     style="display:inline"
     sodipodi:insensitive="true">
    <path
       sodipodi:nodetypes="cccccc"
       d="M 299.99999,658.50028 C 299.99999,658.50028 1.5,546.17992 1.5,260.72828 C 1.5,-24.723336 1.5,2.1764957 1.5,2.1764957 L 598.49999,2.1764957 L 598.49999,260.72828 C 598.49999,546.17992 299.99999,658.50028 299.99999,658.50028 z"
       style="opacity:1;fill:none;fill-opacity:1;fill-rule:evenodd;stroke:#000000;stroke-width:3.00000048;stroke-linecap:butt;stroke-linejoin:miter;stroke-miterlimit:4;stroke-dasharray:none;stroke-opacity:1"
       id="path1411"
       inkscape:export-xdpi="144"
       inkscape:export-ydpi="144" />
  </g>
</svg>
