<?xml version="1.0" encoding="UTF-8" standalone="no"?>
<svg
   xmlns:dc="http://purl.org/dc/elements/1.1/"
   xmlns:cc="http://creativecommons.org/ns#"
   xmlns:rdf="http://www.w3.org/1999/02/22-rdf-syntax-ns#"
   xmlns:svg="http://www.w3.org/2000/svg"
   xmlns="http://www.w3.org/2000/svg"
   xmlns:xlink="http://www.w3.org/1999/xlink"
   xmlns:sodipodi="http://sodipodi.sourceforge.net/DTD/sodipodi-0.dtd"
   xmlns:inkscape="http://www.inkscape.org/namespaces/inkscape"
   height="660"
   width="600"
   version="1.0"
   id="svg2"
   sodipodi:version="0.32"
   inkscape:version="0.48.2 r9819"
   sodipodi:docname="Blason_ville_fr_Entrains-sur-Nohain_(Nièvre).svg"
   inkscape:export-filename="/Users/olivier/Desktop/Blason Rouge/Blason_Vide_3D.png"
   inkscape:export-xdpi="144"
   inkscape:export-ydpi="144">
  <metadata
     id="metadata49">
    <rdf:RDF>
      <cc:Work
         rdf:about="">
        <dc:format>image/svg+xml</dc:format>
        <dc:type
           rdf:resource="http://purl.org/dc/dcmitype/StillImage" />
        <dc:title></dc:title>
        <dc:date />
        <dc:creator>
          <cc:Agent>
            <dc:title />
          </cc:Agent>
        </dc:creator>
        <cc:license
           rdf:resource="" />
        <dc:language />
        <dc:subject>
          <rdf:Bag />
        </dc:subject>
      </cc:Work>
    </rdf:RDF>
  </metadata>
  <sodipodi:namedview
     inkscape:window-height="738"
     inkscape:window-width="1280"
     inkscape:pageshadow="2"
     inkscape:pageopacity="0.0"
     guidetolerance="10.0"
     gridtolerance="10.0"
     objecttolerance="10.0"
     borderopacity="1.0"
     bordercolor="#666666"
     pagecolor="#ffffff"
     id="base"
     showgrid="false"
     height="660px"
     inkscape:zoom="0.28523975"
     inkscape:cx="-374.27456"
     inkscape:cy="340.31523"
     inkscape:window-x="-8"
     inkscape:window-y="-8"
     inkscape:current-layer="layer4"
     inkscape:window-maximized="1" />
  <desc
     id="desc4">Flag of Canton of Valais (Wallis)</desc>
  <defs
     id="defs6">
    <linearGradient
       id="linearGradient2893">
      <stop
         style="stop-color:white;stop-opacity:0.3137255;"
         offset="0"
         id="stop2895" />
      <stop
         id="stop2897"
         offset="0.19"
         style="stop-color:white;stop-opacity:0.25098041;" />
      <stop
         style="stop-color:#6b6b6b;stop-opacity:0.1254902;"
         offset="0.60000002"
         id="stop2901" />
      <stop
         style="stop-color:black;stop-opacity:0.1254902;"
         offset="1"
         id="stop2899" />
    </linearGradient>
    <radialGradient
       inkscape:collect="always"
       xlink:href="#linearGradient2893"
       id="radialGradient3163"
       gradientUnits="userSpaceOnUse"
       gradientTransform="matrix(1.353218,0,0,1.348928,-77.62935,-85.74693)"
       cx="221.44487"
       cy="226.33101"
       fx="221.44487"
       fy="226.33101"
       r="300" />
  </defs>
  <g
     inkscape:groupmode="layer"
     id="layer3"
     inkscape:label="Fond écu"
     style="display:inline"
     sodipodi:insensitive="true">
    <path
       id="path2855"
       style="fill:#e20909;fill-opacity:1;fill-rule:evenodd;stroke:none"
       d="m 300,658.5 c 0,0 298.50001,-112.32031 298.50001,-397.77183 0,-285.451524 0,-258.5516935 0,-258.5516935 l -597.00001,0 0,258.5516935 C 1.5,546.17969 300,658.5 300,658.5 z"
       sodipodi:nodetypes="cccccc"
       inkscape:connector-curvature="0" />
    <path
       sodipodi:nodetypes="cccccc"
       d="m 300,658.16188 c 0,0 -298.499995,-112.3203 -298.499995,-397.77198 0,-285.451615 0,-258.551785 0,-258.551785 l 596.999995,0 0,258.551785 C 598.5,545.84158 300,658.16188 300,658.16188 z"
       style="fill:none;stroke:#000000;stroke-width:3.00000048;stroke-linecap:butt;stroke-linejoin:miter;stroke-miterlimit:4;stroke-opacity:1;stroke-dasharray:none"
       id="path1411-7"
       inkscape:export-xdpi="144"
       inkscape:export-ydpi="144"
       inkscape:connector-curvature="0" />
  </g>
  <g
     inkscape:groupmode="layer"
     id="layer4"
     inkscape:label="Meubles"
     sodipodi:insensitive="true">
    <g
       id="g12027"
       transform="translate(-10.64106,-10)">
      <g
         style="fill:#ffffff;stroke:#000000;stroke-width:1.02903509"
         transform="matrix(2.5247694,-1.4576763,-1.4576763,-2.5247694,307.6599,746.20873)"
         id="layer1-7">
        <g
           style="fill:#ffffff;stroke:#000000;stroke-width:1.02903509"
           id="g19422">
          <g
             transform="matrix(0.545578,0,0,1.851074,11.60662,-34.30086)"
             style="fill:#ffffff;fill-opacity:1;stroke:#000000;stroke-width:1.02397621"
             id="g14761">
            <path
               inkscape:connector-curvature="0"
               d="m 34.910713,132.14285 a 7.3214283,1.4285715 0 1 1 -14.642856,0 7.3214283,1.4285715 0 1 1 14.642856,0 z"
               transform="matrix(0.49027,-0.08644779,0.07798314,0.442264,1.15971,78.26062)"
               style="fill:#fcef3c;fill-opacity:1;fill-rule:evenodd;stroke:#000000;stroke-width:2.16562295;stroke-linecap:butt;stroke-linejoin:miter;stroke-miterlimit:4;stroke-opacity:1;stroke-dasharray:none"
               id="path13003" />
            <path
               inkscape:connector-curvature="0"
               d="m 34.910713,132.14285 a 7.3214283,1.4285715 0 1 1 -14.642856,0 7.3214283,1.4285715 0 1 1 14.642856,0 z"
               transform="matrix(0.656188,-0.115704,0.106069,0.601549,-7.129195,56.62028)"
               style="fill:#fcef3c;fill-opacity:1;fill-rule:evenodd;stroke:#000000;stroke-width:1.60506141;stroke-linecap:butt;stroke-linejoin:miter;stroke-miterlimit:4;stroke-opacity:1;stroke-dasharray:none"
               id="path13001" />
            <path
               inkscape:connector-curvature="0"
               d="m 34.910713,132.14285 a 7.3214283,1.4285715 0 1 1 -14.642856,0 7.3214283,1.4285715 0 1 1 14.642856,0 z"
               transform="matrix(0.822371,-0.145006,0.134402,0.762232,-15.45807,34.73154)"
               style="fill:#fcef3c;fill-opacity:1;fill-rule:evenodd;stroke:#000000;stroke-width:1.27369034;stroke-linecap:butt;stroke-linejoin:miter;stroke-miterlimit:4;stroke-opacity:1;stroke-dasharray:none"
               id="path12999" />
            <path
               inkscape:connector-curvature="0"
               d="m 34.910713,132.14285 a 7.3214283,1.4285715 0 1 1 -14.642856,0 7.3214283,1.4285715 0 1 1 14.642856,0 z"
               transform="matrix(0.988741,-0.174342,0.16291,0.92391,-23.81523,12.26102)"
               style="fill:#fcef3c;fill-opacity:1;fill-rule:evenodd;stroke:#000000;stroke-width:1.05507958;stroke-linecap:butt;stroke-linejoin:miter;stroke-miterlimit:4;stroke-opacity:1;stroke-dasharray:none"
               id="path12997" />
            <path
               inkscape:connector-curvature="0"
               d="m 34.910713,132.14285 a 7.3214283,1.4285715 0 1 1 -14.642856,0 7.3214283,1.4285715 0 1 1 14.642856,0 z"
               transform="matrix(1.153667,-0.203423,0.191278,1.084793,-32.11405,-10.50938)"
               style="fill:#fcef3c;fill-opacity:1;fill-rule:evenodd;stroke:#000000;stroke-width:0.90142089;stroke-linecap:butt;stroke-linejoin:miter;stroke-miterlimit:4;stroke-opacity:1;stroke-dasharray:none"
               id="path12995" />
            <path
               inkscape:connector-curvature="0"
               d="m 34.910713,132.14285 a 7.3214283,1.4285715 0 1 1 -14.642856,0 7.3214283,1.4285715 0 1 1 14.642856,0 z"
               transform="matrix(1.262798,-0.222665,0.21053,1.193974,-38.11078,-26.61037)"
               style="fill:#fcef3c;fill-opacity:1;fill-rule:evenodd;stroke:#000000;stroke-width:0.82125294;stroke-linecap:butt;stroke-linejoin:miter;stroke-miterlimit:4;stroke-opacity:1;stroke-dasharray:none"
               id="path12993" />
            <path
               inkscape:connector-curvature="0"
               d="m 34.910713,132.14285 a 7.3214283,1.4285715 0 1 1 -14.642856,0 7.3214283,1.4285715 0 1 1 14.642856,0 z"
               transform="matrix(1.395165,-0.246005,0.232598,1.319126,-44.67879,-45.25639)"
               style="fill:#fcef3c;fill-opacity:1;fill-rule:evenodd;stroke:#000000;stroke-width:0.74333638;stroke-linecap:butt;stroke-linejoin:miter;stroke-miterlimit:4;stroke-opacity:1;stroke-dasharray:none"
               id="path13007" />
            <path
               inkscape:connector-curvature="0"
               d="m 34.910713,132.14285 a 7.3214283,1.4285715 0 1 1 -14.642856,0 7.3214283,1.4285715 0 1 1 14.642856,0 z"
               transform="matrix(1.455332,-0.256614,0.242629,1.376014,-47.66425,-54.81489)"
               style="fill:#fcef3c;fill-opacity:1;fill-rule:evenodd;stroke:#000000;stroke-width:0.71260494;stroke-linecap:butt;stroke-linejoin:miter;stroke-miterlimit:4;stroke-opacity:1;stroke-dasharray:none"
               id="path14755" />
            <path
               inkscape:connector-curvature="0"
               d="m 34.910713,132.14285 a 7.3214283,1.4285715 0 1 1 -14.642856,0 7.3214283,1.4285715 0 1 1 14.642856,0 z"
               transform="matrix(1.467365,-0.258736,0.244635,1.387391,-48.26134,-58.59372)"
               style="fill:#fcef3c;fill-opacity:1;fill-rule:evenodd;stroke:#000000;stroke-width:0.70676136;stroke-linecap:butt;stroke-linejoin:miter;stroke-miterlimit:4;stroke-opacity:1;stroke-dasharray:none"
               id="path14757" />
            <path
               inkscape:connector-curvature="0"
               d="m 34.910713,132.14285 a 7.3214283,1.4285715 0 1 1 -14.642856,0 7.3214283,1.4285715 0 1 1 14.642856,0 z"
               transform="matrix(1.395165,-0.246005,0.232598,1.319126,-44.67879,-52.25813)"
               style="fill:#fcef3c;fill-opacity:1;fill-rule:evenodd;stroke:#000000;stroke-width:0.74333638;stroke-linecap:butt;stroke-linejoin:miter;stroke-miterlimit:4;stroke-opacity:1;stroke-dasharray:none"
               id="path14759" />
          </g>
          <g
             style="fill:#ffffff;stroke:#000000;stroke-width:1.34929836"
             transform="matrix(0.76036,0,0,0.764936,5.991,110.1513)"
             id="g19146">
            <path
               inkscape:connector-curvature="0"
               d="m 32.5,142.5 a 7.5,7.5 0 1 1 -15,0 7.5,7.5 0 1 1 15,0 z"
               style="fill:#fcef3c;fill-opacity:1;fill-rule:evenodd;stroke:#000000;stroke-width:1.34929836;stroke-linecap:butt;stroke-linejoin:miter;stroke-miterlimit:4;stroke-opacity:1;stroke-dasharray:none"
               id="path12871" />
            <path
               inkscape:connector-curvature="0"
               d="m 28.5,142.5 a 3.5,3.5 0 1 1 -7,0 3.5,3.5 0 1 1 7,0 z"
               style="fill:#fcef3c;fill-opacity:1;fill-rule:evenodd;stroke:#000000;stroke-width:1.34929836;stroke-linecap:butt;stroke-linejoin:miter;stroke-miterlimit:4;stroke-opacity:1;stroke-dasharray:none"
               id="path12873" />
          </g>
          <g
             style="fill:#ffffff;stroke:#000000;stroke-width:1.04404366"
             transform="matrix(0.616282,0,0,1.576317,9.592946,0.141586)"
             id="g19142">
            <path
               sodipodi:nodetypes="cccccccc"
               inkscape:connector-curvature="0"
               d="m 15,114 10,0 0,-87.264535 -5,5 L 15,114 l 0,0 0,0 z"
               style="fill:#ffffff;fill-opacity:1;fill-rule:evenodd;stroke:#000000;stroke-width:1.04404366;stroke-linecap:butt;stroke-linejoin:miter;stroke-miterlimit:4;stroke-opacity:1;stroke-dasharray:none"
               id="path14773" />
            <path
               sodipodi:nodetypes="cccccccc"
               inkscape:connector-curvature="0"
               d="m 35,114 -10,0 0,-87.264535 5,5 L 35,114 l 0,0 0,0 z"
               style="fill:#ffffff;fill-opacity:1;fill-rule:evenodd;stroke:#000000;stroke-width:1.04404366;stroke-linecap:butt;stroke-linejoin:miter;stroke-miterlimit:4;stroke-opacity:1;stroke-dasharray:none"
               id="path19140" />
          </g>
          <path
             inkscape:connector-curvature="0"
             d="m 3.3179821,174.71341 c -1.7746251,0.15872 -3.16843276,1.67366 -3.16843276,3.5 0,1.84144 1.40391086,3.36241 3.19949576,3.5 0.014718,10e-4 0.047358,-9.4e-4 0.062126,0 l 0.5280721,0 42.1215178,0 0.03106,0 c 0.08831,0.007 0.189548,0 0.279568,0 1.920444,0 3.479064,-1.568 3.479064,-3.5 0,-1.932 -1.55862,-3.5 -3.479064,-3.5 -1.920443,0 -3.479063,1.568 -3.479063,3.5 0,0.63394 0.172605,1.23698 0.465946,1.75 l -36.716544,0 c 0.2933405,-0.51302 0.465946,-1.11606 0.465946,-1.75 0,-1.932 -1.5586204,-3.5 -3.4790634,-3.5 -0.1050242,0 -0.2079663,-0.009 -0.3106306,0 z"
             style="fill:#fcef3c;fill-opacity:1;fill-rule:evenodd;stroke:#000000;stroke-width:1.02903509;stroke-linecap:butt;stroke-linejoin:miter;stroke-miterlimit:4;stroke-opacity:1;stroke-dasharray:none"
             id="path12875" />
        </g>
      </g>
      <use
         height="660"
         width="600"
         transform="matrix(-1,0,0,1,621.28212,0)"
         id="use12025"
         xlink:href="#layer1-7"
         y="0"
         x="0" />
    </g>
    <g
       style="stroke:#000000;stroke-width:9.35889435;display:inline"
       inkscape:r_cy="true"
       inkscape:r_cx="true"
       id="layer1-4"
       inkscape:label="Ebene 1"
       transform="matrix(0.21370046,0,0,0.21370046,197.42377,30.864567)">
      <g
         id="g3340"
         style="stroke:#000000;stroke-width:9.35889435">
        <path
           sodipodi:type="arc"
           style="fill:none;stroke:#000000;stroke-width:9.35889435;stroke-linecap:round;stroke-linejoin:round;stroke-miterlimit:4;stroke-opacity:1;stroke-dasharray:none"
           id="path6793"
           sodipodi:cx="480"
           sodipodi:cy="390"
           sodipodi:rx="50"
           sodipodi:ry="50"
           d="m 530,390 a 50,50 0 1 1 -100,0 50,50 0 1 1 100,0 z"
           inkscape:r_cx="true"
           inkscape:r_cy="true"
           transform="translate(0,14.33956)" />
        <path
           sodipodi:type="arc"
           style="fill:none;stroke:#000000;stroke-width:9.35889435;stroke-linecap:round;stroke-linejoin:round;stroke-miterlimit:4;stroke-opacity:1;stroke-dasharray:none"
           id="path7668"
           sodipodi:cx="480"
           sodipodi:cy="390"
           sodipodi:rx="295"
           sodipodi:ry="295"
           d="m 775,390 a 295,295 0 1 1 -590,0 295,295 0 1 1 590,0 z"
           inkscape:r_cx="true"
           inkscape:r_cy="true"
           transform="translate(0,14.33956)" />
        <path
           style="fill:#fcef3c;fill-opacity:1;stroke:#000000;stroke-width:14.03834152;stroke-linecap:round;stroke-linejoin:miter;stroke-miterlimit:4;stroke-opacity:1;stroke-dasharray:none;marker-start:none"
           d="M 743.27673,23.179117 C 713.9508,221.88334 756.02179,396.78931 914.99992,532.72744 680.99846,545.40829 555.18718,671.19358 483.44123,853.5 398.07055,661.17619 259.67785,546.11068 45.000081,542.20002 253.66065,388.38082 261.43014,212.24106 205.58725,29.033491 375.04397,126.43898 551.69983,150.65525 743.27673,23.179117 z"
           id="sepales"
           sodipodi:nodetypes="cccccc"
           inkscape:r_cx="true"
           inkscape:r_cy="true"
           inkscape:connector-curvature="0" />
        <g
           id="g13210"
           inkscape:r_cx="true"
           inkscape:r_cy="true"
           transform="translate(0,32)"
           style="stroke:#000000;stroke-width:9.35889435">
          <path
             sodipodi:nodetypes="cscsssc"
             id="petale1"
             d="m 400.09696,-5.460655 c 20.50609,0 63.63959,21.213203 84.14568,21.213203 20.50609,0 52.32589,-22.627417 72.83198,-22.627417 61.5533,5.2919181 118.30972,116.800749 86.26704,162.634579 C 611.61762,201.13775 487.71163,377.54463 483.53555,372.13438 472.52391,357.86842 362.01087,197.97901 329.38626,145.86021 292.99782,87.72858 355.50495,-3.6237352 400.09696,-5.460655 z"
             style="fill:#fcef3c;fill-opacity:1;stroke:#000000;stroke-width:14.03834152;stroke-linecap:round;stroke-linejoin:miter;stroke-miterlimit:4;stroke-opacity:1"
             inkscape:r_cx="true"
             inkscape:r_cy="true"
             inkscape:connector-curvature="0" />
          <path
             inkscape:r_cy="true"
             inkscape:r_cx="true"
             style="fill:#fcef3c;fill-opacity:1;stroke:#000000;stroke-width:9.35889435;stroke-linecap:round;stroke-linejoin:miter;stroke-miterlimit:4;stroke-opacity:1"
             d="m 810.79116,174.16457 c 18.44046,33.17216 0.70954,69.64523 7.04627,89.14769 6.33673,19.50246 30.4804,44.23193 27.05573,84.90253 -3.31399,39.35608 -75.78117,112.57778 -129.00752,96.3479 C 662.65929,428.33281 474.82452,378.41137 478.67949,372.76783 488.84445,357.8867 606.75798,203.37396 646.24438,156.2405 690.28622,103.66936 792.3507,140.99241 810.79116,174.16457 z"
             id="petale2"
             sodipodi:nodetypes="cszzssz"
             inkscape:connector-curvature="0" />
          <path
             sodipodi:nodetypes="cszsssz"
             id="petale3"
             d="m 774.55776,611.7536 c -18.88836,24.31217 -62.45461,28.77345 -79.0444,40.82663 -16.5898,12.05319 -39.7997,37.65067 -69.66394,63.94401 -29.86425,26.29334 -139.60376,-35.01619 -140.62113,-90.93081 -1.00724,-55.35858 -5.17757,-263.67044 1.38101,-261.7481 17.29395,5.06894 186.53952,63.80751 243.56809,86.79629 63.60783,25.64092 64.38035,135.369 44.38037,161.11198 z"
             style="fill:#fcef3c;fill-opacity:1;stroke:#000000;stroke-width:14.03834152;stroke-linecap:round;stroke-linejoin:miter;stroke-miterlimit:4;stroke-opacity:1"
             inkscape:r_cx="true"
             inkscape:r_cy="true"
             inkscape:connector-curvature="0" />
          <path
             inkscape:r_cy="true"
             inkscape:r_cx="true"
             style="fill:#fcef3c;fill-opacity:1;stroke:#000000;stroke-width:14.03834152;stroke-linecap:round;stroke-linejoin:miter;stroke-miterlimit:4;stroke-opacity:1"
             d="m 339.58073,719.62299 c -28.08091,-17.06609 -48.33408,-49.28894 -64.92387,-61.34214 -16.5898,-12.0532 -55.63267,-12.45047 -72.22247,-24.50366 -51.88025,-28.50183 -32.56671,-154.05049 20.2969,-172.29664 52.33791,-18.06468 261.77556,-97.93498 261.97401,-91.10336 0.52328,18.01392 4.43476,192.52639 0.19392,253.86773 -4.73008,68.41815 -117.23758,112.44416 -145.31849,95.37807 z"
             id="petale4"
             sodipodi:nodetypes="cscsssz"
             inkscape:connector-curvature="0" />
          <path
             sodipodi:nodetypes="czcsssz"
             id="petale5"
             d="m 107.79494,351.28162 c 4.46503,-38.79274 29.469,-68.92886 35.80575,-88.43134 6.33675,-19.50248 4.54916,-68.07096 10.8859,-87.57344 11.07499,-39.76385 135.03292,-70.09174 168.7218,-25.45381 33.35385,44.19405 165.54957,221.52834 159.11363,223.82816 -16.97056,6.06428 -189.04307,67.41673 -248.69267,82.33896 -66.53123,16.6438 -130.34787,-65.495 -125.83441,-104.70853 z"
             style="fill:#fcef3c;fill-opacity:1;stroke:#000000;stroke-width:14.03834152;stroke-linecap:round;stroke-linejoin:miter;stroke-miterlimit:4;stroke-opacity:1"
             inkscape:r_cx="true"
             inkscape:r_cy="true"
             inkscape:connector-curvature="0" />
        </g>
        <path
           inkscape:r_cy="true"
           inkscape:r_cx="true"
           style="fill:none;stroke:#000000;stroke-width:9.35889435;stroke-linecap:round;stroke-linejoin:round;stroke-miterlimit:4;stroke-opacity:1;stroke-dasharray:none"
           d="m 200,305 c 0,4 242,64 254,55 11,-9 29,-252 26,-252 -3,0 20,244 29,254 9,11 252,-47 251,-50 -1,-3 -226,94 -231,106 -4,12 123,221 126,219 3,-2 -160,-188 -175,-187 -12.5,0 -178,184 -176,187 3,2 131,-211 126,-223 C 426,402 204,300 202,305 l -2,0 z"
           id="path2244"
           sodipodi:nodetypes="czzzzzzzzzz"
           inkscape:connector-curvature="0" />
        <path
           sodipodi:type="arc"
           style="fill:#fcef3c;fill-opacity:1;stroke:#000000;stroke-width:15.59815693;stroke-linecap:butt;stroke-miterlimit:4;stroke-opacity:1;stroke-dasharray:none"
           id="path1365"
           sodipodi:cx="480"
           sodipodi:cy="390"
           sodipodi:rx="137"
           sodipodi:ry="137"
           d="m 617,390 a 137,137 0 1 1 -274,0 137,137 0 1 1 274,0 z"
           inkscape:r_cx="true"
           inkscape:r_cy="true"
           transform="matrix(0.9,0,0,0.9,48,53.33956)" />
        <path
           sodipodi:nodetypes="cszsc"
           inkscape:r_cy="true"
           inkscape:r_cx="true"
           id="path3105"
           d="m 364.21393,130.82484 c 5.75926,-21.5957 25.08508,-46.079306 47.1789,-44.739648 20.74732,1.258012 41.21046,18.253928 68.93054,18.660098 27.72009,0.40616 50.61927,-24.591739 90.72303,-11.464155 23.80723,7.793075 27.23025,23.177575 34.14026,43.243635"
           style="fill:none;stroke:#000000;stroke-width:9.35889435;stroke-linecap:round;stroke-linejoin:miter;stroke-miterlimit:4;stroke-opacity:1;stroke-dasharray:none"
           inkscape:connector-curvature="0" />
        <path
           style="fill:none;stroke:#000000;stroke-width:9.35889435;stroke-linecap:round;stroke-linejoin:miter;stroke-miterlimit:4;stroke-opacity:1;stroke-dasharray:none"
           d="m 708.98891,201.09247 c 23.39683,3.54273 36.96815,20.86288 46.57357,47.21891 7.11728,19.52891 -2.42611,37.85775 5.75357,64.34664 8.17969,26.48889 14.23417,23.38156 25.98653,52.41454 7.2499,17.91013 2.84886,30.88734 -10.05918,56.79189"
           id="path1348"
           inkscape:r_cx="true"
           inkscape:r_cy="true"
           sodipodi:nodetypes="cszsc"
           inkscape:connector-curvature="0" />
        <path
           style="fill:none;stroke:#000000;stroke-width:9.35889435;stroke-linecap:round;stroke-linejoin:miter;stroke-miterlimit:4;stroke-opacity:1;stroke-dasharray:none"
           d="m 741.21411,543.18725 c 3.73733,17.23141 4.10567,46.67603 -22.17798,68.03632 -20.78746,16.89362 -40.57078,11.01475 -63.23553,26.97961 -22.66476,15.96486 -29.14723,38.69632 -54.02442,50.70978 -23.99097,11.58549 -42.35169,5.13686 -59.73654,-7.03532"
           id="path1350"
           inkscape:r_cx="true"
           inkscape:r_cy="true"
           sodipodi:nodetypes="cszsc"
           inkscape:connector-curvature="0" />
        <path
           style="fill:none;stroke:#000000;stroke-width:9.35889435;stroke-linecap:round;stroke-linejoin:miter;stroke-miterlimit:4;stroke-opacity:1;stroke-dasharray:none"
           d="m 418.40662,688.31737 c -20.26696,8.47283 -39.75595,11.97642 -56.8428,-2.09381 -16.04549,-13.21272 -34.4552,-32.57144 -56.64248,-49.19349 -22.18729,-16.62206 -38.10633,-10.45616 -63.85045,-36.61225 -13.55373,-13.77063 -13.81241,-39.75324 -7.60819,-60.04862"
           id="path1352"
           inkscape:r_cx="true"
           inkscape:r_cy="true"
           sodipodi:nodetypes="cszsc"
           inkscape:connector-curvature="0" />
        <path
           style="fill:none;stroke:#000000;stroke-width:9.35889435;stroke-linecap:round;stroke-linejoin:miter;stroke-miterlimit:4;stroke-opacity:1;stroke-dasharray:none"
           d="m 188,432 c -14.01937,-17.10505 -33.12747,-30.49386 -22.02601,-68.09235 5.88597,-19.93463 22.06286,-32.91103 31.01513,-59.14888 8.95226,-26.23786 1.59619,-45.72029 17.63698,-71.64259 13.30521,-21.50153 32.14589,-26.01452 53.36515,-26.38558"
           id="path1354"
           inkscape:r_cx="true"
           inkscape:r_cy="true"
           sodipodi:nodetypes="cszsc"
           inkscape:connector-curvature="0" />
        <g
           inkscape:r_cy="true"
           inkscape:r_cx="true"
           id="etamines"
           style="stroke:#000000;stroke-width:9.35889435">
          <path
             sodipodi:type="arc"
             style="fill:#fcef3c;fill-opacity:1;stroke:#000000;stroke-width:10.7538271;stroke-linecap:round;stroke-miterlimit:4;stroke-opacity:1;stroke-dasharray:none"
             id="path2273"
             sodipodi:cx="480"
             sodipodi:cy="406"
             sodipodi:rx="18"
             sodipodi:ry="18"
             d="m 498,406 a 18,18 0 1 1 -36,0 18,18 0 1 1 36,0 z"
             inkscape:r_cx="true"
             inkscape:r_cy="true"
             transform="matrix(0.870285,0,0,0.870285,64.24227,-36.2475)" />
          <path
             sodipodi:type="arc"
             style="fill:#fcef3c;fill-opacity:1;stroke:#000000;stroke-width:10.7538271;stroke-linecap:round;stroke-miterlimit:4;stroke-opacity:1;stroke-dasharray:none"
             id="path2275"
             sodipodi:cx="480"
             sodipodi:cy="406"
             sodipodi:rx="18"
             sodipodi:ry="18"
             d="m 498,406 a 18,18 0 1 1 -36,0 18,18 0 1 1 36,0 z"
             inkscape:r_cx="true"
             inkscape:r_cy="true"
             transform="matrix(0.870285,0,0,0.870285,99.11237,-25.66171)" />
          <path
             sodipodi:type="arc"
             style="fill:#fcef3c;fill-opacity:1;stroke:#000000;stroke-width:10.7538271;stroke-linecap:round;stroke-miterlimit:4;stroke-opacity:1;stroke-dasharray:none"
             id="path2277"
             sodipodi:cx="480"
             sodipodi:cy="406"
             sodipodi:rx="18"
             sodipodi:ry="18"
             d="m 498,406 a 18,18 0 1 1 -36,0 18,18 0 1 1 36,0 z"
             inkscape:r_cx="true"
             inkscape:r_cy="true"
             transform="matrix(0.870285,0,0,0.870285,125.154,-6.691149)" />
          <path
             sodipodi:type="arc"
             style="fill:#fcef3c;fill-opacity:1;stroke:#000000;stroke-width:10.7538271;stroke-linecap:round;stroke-miterlimit:4;stroke-opacity:1;stroke-dasharray:none"
             id="path2279"
             sodipodi:cx="480"
             sodipodi:cy="406"
             sodipodi:rx="18"
             sodipodi:ry="18"
             d="m 498,406 a 18,18 0 1 1 -36,0 18,18 0 1 1 36,0 z"
             inkscape:r_cx="true"
             inkscape:r_cy="true"
             transform="matrix(0.870285,0,0,0.870285,142.4677,19.69363)" />
          <path
             style="fill:#fcef3c;fill-opacity:1;stroke:#000000;stroke-width:10.7538271;stroke-linecap:round;stroke-miterlimit:4;stroke-opacity:1;stroke-dasharray:none"
             sodipodi:type="arc"
             id="path2281"
             sodipodi:cx="480"
             sodipodi:cy="406"
             sodipodi:rx="18"
             sodipodi:ry="18"
             d="m 498,406 a 18,18 0 1 1 -36,0 18,18 0 1 1 36,0 z"
             inkscape:r_cx="true"
             inkscape:r_cy="true"
             transform="matrix(0.870285,0,0,0.870285,147.7814,51.02815)" />
          <path
             sodipodi:type="arc"
             style="fill:#fcef3c;fill-opacity:1;stroke:#000000;stroke-width:10.7538271;stroke-linecap:round;stroke-miterlimit:4;stroke-opacity:1;stroke-dasharray:none"
             id="path2283"
             sodipodi:cx="480"
             sodipodi:cy="406"
             sodipodi:rx="18"
             sodipodi:ry="18"
             d="m 498,406 a 18,18 0 1 1 -36,0 18,18 0 1 1 36,0 z"
             inkscape:r_cx="true"
             inkscape:r_cy="true"
             transform="matrix(0.870285,0,0,0.870285,140.7103,83.09061)" />
          <path
             sodipodi:type="arc"
             style="fill:#fcef3c;fill-opacity:1;stroke:#000000;stroke-width:10.7538271;stroke-linecap:round;stroke-miterlimit:4;stroke-opacity:1;stroke-dasharray:none"
             id="path2285"
             sodipodi:cx="480"
             sodipodi:cy="406"
             sodipodi:rx="18"
             sodipodi:ry="18"
             d="m 498,406 a 18,18 0 1 1 -36,0 18,18 0 1 1 36,0 z"
             inkscape:r_cx="true"
             inkscape:r_cy="true"
             transform="matrix(0.870285,0,0,0.870285,123.9825,111.3749)" />
          <path
             sodipodi:type="arc"
             style="fill:#fcef3c;fill-opacity:1;stroke:#000000;stroke-width:10.7538271;stroke-linecap:round;stroke-miterlimit:4;stroke-opacity:1;stroke-dasharray:none"
             id="path2287"
             sodipodi:cx="480"
             sodipodi:cy="406"
             sodipodi:rx="18"
             sodipodi:ry="18"
             d="m 498,406 a 18,18 0 1 1 -36,0 18,18 0 1 1 36,0 z"
             inkscape:r_cx="true"
             inkscape:r_cy="true"
             transform="matrix(0.870285,0,0,0.870285,97.81944,129.7388)" />
          <path
             sodipodi:type="arc"
             style="fill:#fcef3c;fill-opacity:1;stroke:#000000;stroke-width:10.7538271;stroke-linecap:round;stroke-miterlimit:4;stroke-opacity:1;stroke-dasharray:none"
             id="path2289"
             sodipodi:cx="480"
             sodipodi:cy="406"
             sodipodi:rx="18"
             sodipodi:ry="18"
             d="m 498,406 a 18,18 0 1 1 -36,0 18,18 0 1 1 36,0 z"
             inkscape:r_cx="true"
             inkscape:r_cy="true"
             transform="matrix(0.870285,0,0,0.870285,62.36359,136.5881)" />
          <path
             sodipodi:type="arc"
             style="fill:#fcef3c;fill-opacity:1;stroke:#000000;stroke-width:10.7538271;stroke-linecap:round;stroke-miterlimit:4;stroke-opacity:1;stroke-dasharray:none"
             id="path2291"
             sodipodi:cx="480"
             sodipodi:cy="406"
             sodipodi:rx="18"
             sodipodi:ry="18"
             d="m 498,406 a 18,18 0 1 1 -36,0 18,18 0 1 1 36,0 z"
             inkscape:r_cx="true"
             inkscape:r_cy="true"
             transform="matrix(0.870285,0,0,0.870285,29.47271,130.9312)" />
          <path
             sodipodi:type="arc"
             style="fill:#fcef3c;fill-opacity:1;stroke:#000000;stroke-width:10.7538271;stroke-linecap:round;stroke-miterlimit:4;stroke-opacity:1;stroke-dasharray:none"
             id="path2293"
             sodipodi:cx="480"
             sodipodi:cy="406"
             sodipodi:rx="18"
             sodipodi:ry="18"
             d="m 498,406 a 18,18 0 1 1 -36,0 18,18 0 1 1 36,0 z"
             inkscape:r_cx="true"
             inkscape:r_cy="true"
             transform="matrix(0.870285,0,0,0.870285,1.087945,111.8393)" />
          <path
             sodipodi:type="arc"
             style="fill:#fcef3c;fill-opacity:1;stroke:#000000;stroke-width:10.7538271;stroke-linecap:round;stroke-miterlimit:4;stroke-opacity:1;stroke-dasharray:none"
             id="path2295"
             sodipodi:cx="480"
             sodipodi:cy="406"
             sodipodi:rx="18"
             sodipodi:ry="18"
             d="m 498,406 a 18,18 0 1 1 -36,0 18,18 0 1 1 36,0 z"
             inkscape:r_cx="true"
             inkscape:r_cy="true"
             transform="matrix(0.870285,0,0,0.870285,-18.00394,84.50481)" />
          <path
             sodipodi:type="arc"
             style="fill:#fcef3c;fill-opacity:1;stroke:#000000;stroke-width:10.7538271;stroke-linecap:round;stroke-miterlimit:4;stroke-opacity:1;stroke-dasharray:none"
             id="path2297"
             sodipodi:cx="480"
             sodipodi:cy="406"
             sodipodi:rx="18"
             sodipodi:ry="18"
             d="m 498,406 a 18,18 0 1 1 -36,0 18,18 0 1 1 36,0 z"
             inkscape:r_cx="true"
             inkscape:r_cy="true"
             transform="matrix(0.870285,0,0,0.870285,-23.6608,50.09922)" />
          <path
             sodipodi:type="arc"
             style="fill:#fcef3c;fill-opacity:1;stroke:#000000;stroke-width:10.7538271;stroke-linecap:round;stroke-miterlimit:4;stroke-opacity:1;stroke-dasharray:none"
             id="path2299"
             sodipodi:cx="480"
             sodipodi:cy="406"
             sodipodi:rx="18"
             sodipodi:ry="18"
             d="m 498,406 a 18,18 0 1 1 -36,0 18,18 0 1 1 36,0 z"
             inkscape:r_cx="true"
             inkscape:r_cy="true"
             transform="matrix(0.870285,0,0,0.870285,-17.63999,16.1581)" />
          <path
             sodipodi:type="arc"
             style="fill:#fcef3c;fill-opacity:1;stroke:#000000;stroke-width:10.7538271;stroke-linecap:round;stroke-miterlimit:4;stroke-opacity:1;stroke-dasharray:none"
             id="path2301"
             sodipodi:cx="480"
             sodipodi:cy="406"
             sodipodi:rx="18"
             sodipodi:ry="18"
             d="m 498,406 a 18,18 0 1 1 -36,0 18,18 0 1 1 36,0 z"
             inkscape:r_cx="true"
             inkscape:r_cy="true"
             transform="matrix(0.870285,0,0,0.870285,2.744797,-12.93379)" />
          <path
             sodipodi:type="arc"
             style="fill:#fcef3c;fill-opacity:1;stroke:#000000;stroke-width:10.7538271;stroke-linecap:round;stroke-miterlimit:4;stroke-opacity:1;stroke-dasharray:none"
             id="path2303"
             sodipodi:cx="480"
             sodipodi:cy="406"
             sodipodi:rx="18"
             sodipodi:ry="18"
             d="m 498,406 a 18,18 0 1 1 -36,0 18,18 0 1 1 36,0 z"
             inkscape:r_cx="true"
             inkscape:r_cy="true"
             transform="matrix(0.870285,0,0,0.870285,30.90774,-30.36881)" />
        </g>
      </g>
    </g>
  </g>
  <g
     inkscape:groupmode="layer"
     id="layer2"
     inkscape:label="Reflet final"
     sodipodi:insensitive="true">
    <path
       sodipodi:nodetypes="cccccc"
       d="M 300.00001,658.5 C 300.00001,658.5 598.50001,546.17969 598.50001,260.72817 C 598.50001,-24.723334 598.50001,2.1764865 598.50001,2.1764865 L 1.5,2.1764865 L 1.5,260.72817 C 1.5,546.17969 300.00001,658.5 300.00001,658.5 z "
       style="opacity:1;fill:url(#radialGradient3163);fill-opacity:1;fill-rule:evenodd;stroke:none;stroke-width:1px;stroke-linecap:butt;stroke-linejoin:miter;stroke-opacity:1"
       id="path2875"
       inkscape:export-xdpi="144"
       inkscape:export-ydpi="144" />
  </g>
  <g
     inkscape:groupmode="layer"
     id="layer1"
     inkscape:label="Contour final"
     sodipodi:insensitive="true">
    <path
       sodipodi:nodetypes="cccccc"
       d="m 300,658.16188 c 0,0 -298.5,-112.3203 -298.5,-397.77198 0,-285.451615 0,-258.551785 0,-258.551785 l 597,0 0,258.551785 C 598.5,545.84158 300,658.16188 300,658.16188 z"
       style="fill:none;stroke:#000000;stroke-width:3.00000048;stroke-linecap:butt;stroke-linejoin:miter;stroke-miterlimit:4;stroke-opacity:1;stroke-dasharray:none;display:inline"
       id="path1411-7-5"
       inkscape:export-xdpi="144"
       inkscape:export-ydpi="144"
       inkscape:connector-curvature="0" />
  </g>
</svg>
