<?xml version="1.0" encoding="UTF-8" standalone="no"?>
<svg
   xmlns:dc="http://purl.org/dc/elements/1.1/"
   xmlns:cc="http://creativecommons.org/ns#"
   xmlns:rdf="http://www.w3.org/1999/02/22-rdf-syntax-ns#"
   xmlns:svg="http://www.w3.org/2000/svg"
   xmlns="http://www.w3.org/2000/svg"
   xmlns:xlink="http://www.w3.org/1999/xlink"
   xmlns:sodipodi="http://sodipodi.sourceforge.net/DTD/sodipodi-0.dtd"
   xmlns:inkscape="http://www.inkscape.org/namespaces/inkscape"
   height="660"
   width="600"
   version="1.0"
   id="svg2"
   sodipodi:version="0.32"
   inkscape:version="0.46"
   sodipodi:docname="blason_ville_fr_Trigance_A(Var).svg"
   sodipodi:docbase="D:\Mes documents\Renaud-Notre Lapin"
   inkscape:export-filename="/Users/olivier/Desktop/Blason Rouge/Blason_Vide_3D.png"
   inkscape:export-xdpi="144"
   inkscape:export-ydpi="144"
   inkscape:output_extension="org.inkscape.output.svg.inkscape">
  <metadata
     id="metadata49">
    <rdf:RDF>
      <cc:Work
         rdf:about="">
        <dc:format>image/svg+xml</dc:format>
        <dc:type
           rdf:resource="http://purl.org/dc/dcmitype/StillImage" />
        <dc:title>Gabarit d'un blason en pointe pour le projet Blasons de Wikipédia</dc:title>
        <dc:date>03-AUG-2006</dc:date>
        <dc:creator>
          <cc:Agent>
            <dc:title>Jérôme BLUM (wagner51)</dc:title>
          </cc:Agent>
        </dc:creator>
        <cc:license
           rdf:resource="http://web.resource.org/cc/PublicDomain" />
        <dc:language>fr</dc:language>
        <dc:subject>
          <rdf:Bag>
            <rdf:li>gabarit modèle blason projet wikipédia</rdf:li>
          </rdf:Bag>
        </dc:subject>
      </cc:Work>
      <cc:License
         rdf:about="http://web.resource.org/cc/PublicDomain">
        <cc:permits
           rdf:resource="http://web.resource.org/cc/Reproduction" />
        <cc:permits
           rdf:resource="http://web.resource.org/cc/Distribution" />
        <cc:permits
           rdf:resource="http://web.resource.org/cc/DerivativeWorks" />
      </cc:License>
    </rdf:RDF>
  </metadata>
  <sodipodi:namedview
     inkscape:window-height="975"
     inkscape:window-width="1280"
     inkscape:pageshadow="2"
     inkscape:pageopacity="0.0"
     guidetolerance="10.0"
     gridtolerance="10.0"
     objecttolerance="10.0"
     borderopacity="1.0"
     bordercolor="#666666"
     pagecolor="#ffffff"
     id="base"
     showgrid="false"
     height="660px"
     inkscape:zoom="1.1590904"
     inkscape:cx="300.00013"
     inkscape:cy="330.00014"
     inkscape:window-x="-4"
     inkscape:window-y="-4"
     inkscape:current-layer="layer3"
     inkscape:object-nodes="true" />
  <desc
     id="desc4">Flag of Canton of Valais (Wallis)</desc>
  <defs
     id="defs6">
    <linearGradient
       id="linearGradient2893">
      <stop
         style="stop-color:white;stop-opacity:0.3137255;"
         offset="0"
         id="stop2895" />
      <stop
         id="stop2897"
         offset="0.19"
         style="stop-color:white;stop-opacity:0.25098041;" />
      <stop
         style="stop-color:#6b6b6b;stop-opacity:0.1254902;"
         offset="0.60000002"
         id="stop2901" />
      <stop
         style="stop-color:black;stop-opacity:0.1254902;"
         offset="1"
         id="stop2899" />
    </linearGradient>
    <radialGradient
       inkscape:collect="always"
       xlink:href="#linearGradient2893"
       id="radialGradient3163"
       gradientUnits="userSpaceOnUse"
       gradientTransform="matrix(1.353218,0,0,1.348928,-77.62935,-85.74693)"
       cx="221.44487"
       cy="226.33101"
       fx="221.44487"
       fy="226.33101"
       r="300" />
    <g
       id="f">
      <rect
         id="rect1964"
         style="fill:#28166f"
         y="-30"
         x="-50"
         height="60"
         width="100" />
      <g
         id="g1966"
         style="fill:#ffffff"
         transform="translate(0,-20)">
        <path
           id="path1968"
           d="M -1.2116,27.8178 C -1.2116,22.1752 -2.0914,20.4715 -4.5417,13.9804 C -5.709,10.8879 -5.0241,7.1025 -2.8585,3.6009 C -2.0824,2.346 -1.1136,1.2135 0,0 C 1.1136,1.2135 2.0824,2.346 2.8585,3.6009 C 5.0241,7.1025 5.709,10.8879 4.5417,13.9804 C 2.0914,20.4715 1.2116,22.1752 1.2116,27.8178 L -1.2116,27.8178 z" />
        <path
           id="rwi"
           d="M 2.9221,27.6725 C 2.9221,21.7209 5.2387,17.8293 8.5007,16.6604 C 9.9492,16.1414 11.8076,16.3869 13.5193,18.107 C 15.6379,20.236 16.2551,26.1004 10.0355,27.2283 C 10.6938,26.2724 10.6546,24.1467 9.3215,23.4409 C 8.3311,22.9165 7.209,23.1877 6.6462,23.5643 C 5.8225,24.1156 4.9171,25.6702 4.9672,27.6725 L 2.9221,27.6725 z" />
        <path
           id="path1971"
           d="M 1.7773,30.1835 C 1.7899,32.1913 2.7952,33.5181 4.5165,34.257 C 4.2948,34.9549 3.2566,36.3776 1.8314,36.2812 C 1.5499,37.787 1.2822,38.6324 0,40 C -1.2822,38.6324 -1.5499,37.787 -1.8314,36.2812 C -3.2566,36.3776 -4.2948,34.9549 -4.5165,34.257 C -2.7952,33.5181 -1.7899,32.1913 -1.7773,30.1835 L 1.7773,30.1835 z" />
        <use
           xlink:href="#rwi"
           height="400"
           width="800"
           y="0"
           x="0"
           id="use1973"
           transform="scale(-1,1)" />
        <rect
           id="rect1975"
           y="27.33077"
           x="-7.9229999"
           height="3.2179999"
           width="15.846" />
      </g>
    </g>
    <g
       id="s">
      <g
         id="c">
        <path
           transform="matrix(0.951057,0.309017,-0.309017,0.951057,0,-1)"
           d="M 0,0 L 0,1 L 0.5,1 L 0,0 z"
           id="t" />
        <use
           height="540"
           width="810"
           y="0"
           x="0"
           id="use2144"
           transform="scale(-1,1)"
           xlink:href="#t" />
      </g>
      <g
         id="a">
        <use
           height="540"
           width="810"
           y="0"
           x="0"
           id="use2147"
           transform="matrix(0.309017,0.951057,-0.951057,0.309017,0,0)"
           xlink:href="#c" />
        <use
           height="540"
           width="810"
           y="0"
           x="0"
           id="use2149"
           transform="matrix(-0.809017,0.587785,-0.587785,-0.809017,0,0)"
           xlink:href="#c" />
      </g>
      <use
         height="540"
         width="810"
         y="0"
         x="0"
         id="use2151"
         transform="scale(-1,1)"
         xlink:href="#a" />
    </g>
  </defs>
  <g
     inkscape:groupmode="layer"
     id="layer3"
     inkscape:label="Fond écu"
     style="display:inline">
    <path
       id="path2855"
       style="fill:#fcef3c;fill-opacity:1;fill-rule:evenodd;stroke:none;stroke-width:1px;stroke-linecap:butt;stroke-linejoin:miter;stroke-opacity:1"
       d="M 300,658.5 C 300,658.5 598.50001,546.17969 598.50001,260.72817 C 598.50001,-24.723354 598.50001,2.1764765 598.50001,2.1764765 L 1.5,2.1764765 L 1.5,260.72817 C 1.5,546.17969 300,658.5 300,658.5 z"
       sodipodi:nodetypes="cccccc" />
    <g
       id="g3714"
       transform="translate(212.95033,-619.1589)" />
    <g
       id="layer9"
       inkscape:label="Fond d'écu"
       transform="translate(212.95033,-619.1589)">
      <g
         transform="matrix(2,0,0,2,-732.89186,-1853.1884)"
         inkscape:label="Meubles"
         id="g2807" />
      <g
         transform="matrix(2,0,0,2,1696.9763,-413.55025)"
         inkscape:label="Meubles"
         id="g4626" />
      <g
         id="g5271"
         inkscape:label="Meubles"
         transform="matrix(2,0,0,2,-732.89213,-453.18787)" />
      <g
         id="g5273"
         inkscape:label="Reflet final"
         transform="matrix(2,0,0,2,-732.89213,-453.18787)" />
      <g
         id="g5275"
         inkscape:label="Contour final"
         transform="matrix(2,0,0,2,-732.89213,-453.18787)" />
    </g>
    <g
       id="layer6"
       inkscape:label="Reflet final"
       transform="translate(212.95033,-619.1589)" />
    <g
       id="layer5"
       inkscape:label="Contour final"
       transform="translate(212.95033,-619.1589)" />
    <path
       style="fill:#000000;fill-opacity:1;fill-rule:evenodd;stroke:#313131;stroke-width:3;stroke-linecap:butt;stroke-linejoin:miter;stroke-opacity:1"
       d="M 1.5 259.1875 L 1.5 260.71875 C 1.5 282.90456 3.2990012 304.0648 6.625 324.1875 L 593.375 324.1875 C 596.701 304.0648 598.5 282.90456 598.5 260.71875 C 598.5 259.02805 598.5 260.85635 598.5 259.1875 L 1.5 259.1875 z "
       id="path4479" />
    <path
       style="fill:#000000;fill-opacity:1;fill-rule:evenodd;stroke:#313131;stroke-width:3;stroke-linecap:butt;stroke-linejoin:miter;stroke-opacity:1"
       d="M 20.78125 381.1875 C 28.583652 404.46825 38.437172 426.10787 49.75 446.1875 L 550.25 446.1875 C 561.56283 426.10787 571.41635 404.46825 579.21875 381.1875 L 20.78125 381.1875 z "
       id="path5252" />
    <path
       style="fill:#000000;fill-opacity:1;fill-rule:evenodd;stroke:#313131;stroke-width:3;stroke-linecap:butt;stroke-linejoin:miter;stroke-opacity:1"
       d="M 88.59375 503.1875 C 108.70972 528.05565 130.66498 549.64623 152.5625 568.1875 L 447.4375 568.1875 C 469.33502 549.64623 491.29027 528.05565 511.40625 503.1875 L 88.59375 503.1875 z "
       id="path5255" />
    <rect
       y="2.1764765"
       x="1.5"
       height="200"
       width="597"
       id="rect3460"
       style="fill:#e20909;fill-opacity:1;fill-rule:nonzero;stroke:#000000;stroke-width:3;stroke-linecap:round;stroke-linejoin:bevel;stroke-miterlimit:4;stroke-dasharray:none;stroke-dashoffset:0;stroke-opacity:1" />
  </g>
  <g
     inkscape:groupmode="layer"
     id="layer4"
     inkscape:label="Meubles">
    <g
       id="g6800"
       inkscape:label="Meubles"
       transform="matrix(1.3283427,0,0,1.3124188,1441.5858,-617.18382)" />
    <g
       transform="matrix(1.3283427,0,0,1.3124188,1441.5858,-1184.0254)"
       inkscape:label="Meubles"
       id="g6854" />
    <g
       style="fill:#ffffff;fill-opacity:1"
       id="g10725"
       transform="matrix(-0.46464,0,0,0.4224,386.16533,12.512268)">
      <g
         transform="matrix(1.21977,0,0,1.21977,-43.00327,-4.454413)"
         id="g3657"
         style="fill:#ffffff">
        <path
           id="path8616"
           style="fill:#ffffff;fill-opacity:1;fill-rule:evenodd;stroke:#000000;stroke-width:5.55166248;stroke-linecap:butt;stroke-linejoin:miter;stroke-miterlimit:4;stroke-dasharray:none;stroke-opacity:1"
           d="M 139.49139,129.82104 C 138.44385,126.46466 136.93903,117.52419 136.07955,115.15262 C 133.8969,109.13008 115.73106,99.891253 110.64393,101.58696 C 105.5568,103.28267 112.33964,118.54404 112.33964,125.32688 C 112.33964,132.10971 103.8611,150.76249 103.8611,159.24104 C 103.8611,167.71958 105.76122,210.04415 105.76122,221.91411 C 105.76122,233.78406 121.0226,242.73177 124.41401,252.90603 C 127.80543,263.08027 137.77526,269.79497 139.47097,283.36063 C 143.00055,300.05543 141.60672,300.72833 138.22918,320.08695 C 139.13798,324.0854 211.62347,336.68055 243.05944,318.29695 C 239.67627,303.68333 239.37313,295.74567 242.02945,276.1013 C 251.48295,257.48135 256.41802,241.75486 261.2142,228.56534 C 266.01039,215.37583 269.60752,187.87645 269.60752,177.08503 C 269.60752,166.29362 267.06582,120.33335 269.21373,109.69009 C 274.75491,82.232525 263.61229,72.168448 257.61705,72.168448 C 244.67768,76.794819 248.1507,94.221088 247.42517,107.54033 C 245.41461,117.98131 246.21966,123.91705 243.37397,148.36817 C 245.17362,134.90412 243.82711,125.79112 244.22182,111.59152 C 242.97288,92.788804 244.34228,94.668791 243.06537,78.043172 C 241.45757,62.022508 246.73868,21.06146 226.92085,17.012299 C 213.72607,14.034776 212.47568,43.98025 212.6528,66.173214 C 211.00025,75.707163 210.94727,86.240515 211.45375,97.947953 C 210.83727,111.86398 210.95452,117.98722 210.85423,130.92174 C 210.47975,117.53065 211.84283,106.20156 210.50304,91.661782 C 209.06482,74.845473 207.427,72.197101 208.25042,54.01963 C 207.05138,46.82535 210.11656,7.3170632 189.50208,7.6682558 C 172.87794,13.181088 179.44105,35.444104 178.47998,54.782271 C 178.47998,69.215199 177.74145,78.62242 178.23164,94.659397 C 178.23164,94.659397 178.30397,112.15065 179.67903,129.74766 C 178.28827,111.61448 179.00859,106.20828 178.44874,94.133321 C 176.49309,79.721893 176.35528,80.022899 174.91419,66.31559 C 175.18329,25.222603 165.87297,20.922823 159.29523,21.208963 C 142.94688,21.920135 144.30715,46.388944 144.30715,70.369879 C 143.1081,79.053297 143.70763,88.714295 144.30715,102.04949 C 144.30715,109.57534 139.49139,129.82104 139.49139,129.82104 z"
           sodipodi:nodetypes="cssssssccccssscccccccccccccccccsccc" />
        <path
           style="fill:#ffffff;fill-opacity:1;fill-rule:evenodd;stroke:#000000;stroke-width:2.45948076;stroke-linecap:butt;stroke-linejoin:miter;stroke-miterlimit:4;stroke-dasharray:none;stroke-opacity:1"
           d="M 206.69676,277.36208 C 206.69676,277.36208 222.17394,279.2142 232.23147,275.12288"
           id="path8618" />
        <path
           style="fill:#ffffff;fill-opacity:1;fill-rule:evenodd;stroke:#000000;stroke-width:2.45948076;stroke-linecap:butt;stroke-linejoin:miter;stroke-miterlimit:4;stroke-dasharray:none;stroke-opacity:1"
           d="M 146.59567,279.8112 C 157.33225,282.44399 176.617,278.06719 181.59502,269.78043"
           id="path8620" />
        <path
           style="fill:#ffffff;fill-opacity:1;fill-rule:evenodd;stroke:#000000;stroke-width:2.45948076;stroke-linecap:butt;stroke-linejoin:miter;stroke-miterlimit:4;stroke-dasharray:none;stroke-opacity:1"
           d="M 148.61704,135.25165 C 158.59488,131.50996 164.83102,130.26274 172.3144,131.50996"
           id="path8644" />
        <path
           style="fill:#ffffff;fill-opacity:1;fill-rule:evenodd;stroke:#000000;stroke-width:2.45948076;stroke-linecap:butt;stroke-linejoin:miter;stroke-miterlimit:4;stroke-dasharray:none;stroke-opacity:1"
           d="M 186.03391,133.79415 C 193.5173,132.54693 196.01175,132.54693 202.2479,133.79415"
           id="path8646" />
        <path
           style="fill:#ffffff;fill-opacity:1;fill-rule:evenodd;stroke:#000000;stroke-width:2.45948076;stroke-linecap:butt;stroke-linejoin:miter;stroke-miterlimit:4;stroke-dasharray:none;stroke-opacity:1"
           d="M 217.21466,136.28861 C 225.94525,137.53583 230.93418,141.27752 235.9231,142.52476"
           id="path8648" />
        <path
           style="fill:#ffffff;fill-opacity:1;fill-rule:evenodd;stroke:#000000;stroke-width:2.45948076;stroke-linecap:butt;stroke-linejoin:miter;stroke-miterlimit:4;stroke-dasharray:none;stroke-opacity:1"
           d="M 248.39539,148.97118 C 254.63153,152.71287 257.12599,153.9601 263.36214,155.20732"
           id="path8650" />
        <path
           style="fill:#ffffff;fill-opacity:1;fill-rule:evenodd;stroke:#000000;stroke-width:2.45948076;stroke-linecap:butt;stroke-linejoin:miter;stroke-miterlimit:4;stroke-dasharray:none;stroke-opacity:1"
           d="M 139.68776,129.9528 C 142.63069,142.17303 137.85538,151.45031 137.85538,158.23315 C 137.85538,165.01597 142.9425,195.53872 142.9425,195.53872 L 141.2468,183.66877 C 141.2468,183.66877 164.98671,185.36448 173.46525,192.1473 C 181.94379,198.93014 192.11803,231.14859 188.72662,253.1928"
           id="path8681" />
      </g>
    </g>
  </g>
  <g
     inkscape:groupmode="layer"
     id="layer2"
     inkscape:label="Reflet final"
     sodipodi:insensitive="true">
    <path
       sodipodi:nodetypes="cccccc"
       d="M 300.00001,658.5 C 300.00001,658.5 598.50001,546.17969 598.50001,260.72817 C 598.50001,-24.723334 598.50001,2.1764865 598.50001,2.1764865 L 1.5,2.1764865 L 1.5,260.72817 C 1.5,546.17969 300.00001,658.5 300.00001,658.5 z "
       style="opacity:1;fill:url(#radialGradient3163);fill-opacity:1;fill-rule:evenodd;stroke:none;stroke-width:1px;stroke-linecap:butt;stroke-linejoin:miter;stroke-opacity:1"
       id="path2875"
       inkscape:export-xdpi="144"
       inkscape:export-ydpi="144" />
  </g>
  <g
     inkscape:groupmode="layer"
     id="layer1"
     inkscape:label="Contour final"
     sodipodi:insensitive="true">
    <path
       sodipodi:nodetypes="cccccc"
       d="M 299.99999,658.50028 C 299.99999,658.50028 1.5,546.17992 1.5,260.72828 C 1.5,-24.723336 1.5,2.1764957 1.5,2.1764957 L 598.49999,2.1764957 L 598.49999,260.72828 C 598.49999,546.17992 299.99999,658.50028 299.99999,658.50028 z "
       style="opacity:1;fill:none;fill-opacity:1;fill-rule:evenodd;stroke:#000000;stroke-width:3.00000048;stroke-linecap:butt;stroke-linejoin:miter;stroke-miterlimit:4;stroke-dasharray:none;stroke-opacity:1"
       id="path1411"
       inkscape:export-xdpi="144"
       inkscape:export-ydpi="144" />
  </g>
</svg>
