<?xml version="1.0" encoding="UTF-8" standalone="no"?>
<svg
   xmlns:dc="http://purl.org/dc/elements/1.1/"
   xmlns:cc="http://creativecommons.org/ns#"
   xmlns:rdf="http://www.w3.org/1999/02/22-rdf-syntax-ns#"
   xmlns:svg="http://www.w3.org/2000/svg"
   xmlns="http://www.w3.org/2000/svg"
   xmlns:xlink="http://www.w3.org/1999/xlink"
   xmlns:sodipodi="http://sodipodi.sourceforge.net/DTD/sodipodi-0.dtd"
   xmlns:inkscape="http://www.inkscape.org/namespaces/inkscape"
   width="600"
   height="660"
   viewBox="0 0 600 660"
   id="svg2"
   sodipodi:version="0.32"
   inkscape:version="0.46"
   sodipodi:docname="Blason_La_Ferté-sur-Chiers-A.svg"
   inkscape:output_extension="org.inkscape.output.svg.inkscape"
   version="1.0">
  <metadata
     id="metadata28">
    <rdf:RDF>
      <cc:Work
         rdf:about="">
        <dc:format>image/svg+xml</dc:format>
        <dc:type
           rdf:resource="http://purl.org/dc/dcmitype/StillImage" />
      </cc:Work>
    </rdf:RDF>
  </metadata>
  <sodipodi:namedview
     inkscape:window-height="977"
     inkscape:window-width="1280"
     inkscape:pageshadow="2"
     inkscape:pageopacity="0.0"
     guidetolerance="10.0"
     gridtolerance="10.0"
     objecttolerance="10.0"
     borderopacity="1.0"
     bordercolor="#666666"
     pagecolor="#ffffff"
     id="base"
     showgrid="false"
     inkscape:zoom="1.1863636"
     inkscape:cx="300"
     inkscape:cy="330"
     inkscape:window-x="-4"
     inkscape:window-y="-4"
     inkscape:current-layer="layer4"
     inkscape:object-nodes="true" />
  <defs
     id="defs4">
    <radialGradient
       id="Gradient1"
       gradientUnits="userSpaceOnUse"
       cx="-80"
       cy="-80"
       r="405">
      <stop
         style="stop-color:#fff;stop-opacity:0.31"
         offset="0"
         id="stop7" />
      <stop
         style="stop-color:#fff;stop-opacity:0.25"
         offset="0.19"
         id="stop9" />
      <stop
         style="stop-color:#6b6b6b;stop-opacity:0.125"
         offset="0.6"
         id="stop11" />
      <stop
         style="stop-color:#000;stop-opacity:0.125"
         offset="1"
         id="stop13" />
    </radialGradient>
    <clipPath
       id="shield_cut">
      <path
         id="shield"
         d="M -298.5,-298.5 L 298.5,-298.5 L 298.5,-40 C 298.5,246.31 0,358.5 0,358.5 C 0,358.5 -298.5,246.31 -298.5,-40 L -298.5,-298.5 z" />
    </clipPath>
    <g
       id="s-4">
      <g
         id="c-6">
        <path
           transform="matrix(0.951057,0.309017,-0.309017,0.951057,0,-1)"
           d="M 0,0 L 0,1 L 0.5,1 L 0,0 z"
           id="t-0" />
        <use
           height="540"
           width="810"
           y="0"
           x="0"
           id="use2144-7"
           transform="scale(-1,1)"
           xlink:href="#t-0" />
      </g>
      <g
         id="a-1">
        <use
           height="540"
           width="810"
           y="0"
           x="0"
           id="use2147-7"
           transform="matrix(0.309017,0.951057,-0.951057,0.309017,0,0)"
           xlink:href="#c-6" />
        <use
           height="540"
           width="810"
           y="0"
           x="0"
           id="use2149-7"
           transform="matrix(-0.809017,0.587785,-0.587785,-0.809017,0,0)"
           xlink:href="#c-6" />
      </g>
      <use
         height="540"
         width="810"
         y="0"
         x="0"
         id="use2151-7"
         transform="scale(-1,1)"
         xlink:href="#a-1" />
    </g>
    <g
       id="f">
      <rect
         id="rect1964"
         style="fill:#28166f"
         y="-30"
         x="-50"
         height="60"
         width="100" />
      <g
         id="g1966"
         style="fill:#ffffff"
         transform="translate(0,-20)">
        <path
           id="path1968"
           d="M -1.2116,27.8178 C -1.2116,22.1752 -2.0914,20.4715 -4.5417,13.9804 C -5.709,10.8879 -5.0241,7.1025 -2.8585,3.6009 C -2.0824,2.346 -1.1136,1.2135 0,0 C 1.1136,1.2135 2.0824,2.346 2.8585,3.6009 C 5.0241,7.1025 5.709,10.8879 4.5417,13.9804 C 2.0914,20.4715 1.2116,22.1752 1.2116,27.8178 L -1.2116,27.8178 z" />
        <path
           id="rwi"
           d="M 2.9221,27.6725 C 2.9221,21.7209 5.2387,17.8293 8.5007,16.6604 C 9.9492,16.1414 11.8076,16.3869 13.5193,18.107 C 15.6379,20.236 16.2551,26.1004 10.0355,27.2283 C 10.6938,26.2724 10.6546,24.1467 9.3215,23.4409 C 8.3311,22.9165 7.209,23.1877 6.6462,23.5643 C 5.8225,24.1156 4.9171,25.6702 4.9672,27.6725 L 2.9221,27.6725 z" />
        <path
           id="path1971"
           d="M 1.7773,30.1835 C 1.7899,32.1913 2.7952,33.5181 4.5165,34.257 C 4.2948,34.9549 3.2566,36.3776 1.8314,36.2812 C 1.5499,37.787 1.2822,38.6324 0,40 C -1.2822,38.6324 -1.5499,37.787 -1.8314,36.2812 C -3.2566,36.3776 -4.2948,34.9549 -4.5165,34.257 C -2.7952,33.5181 -1.7899,32.1913 -1.7773,30.1835 L 1.7773,30.1835 z" />
        <use
           xlink:href="#rwi"
           height="400"
           width="800"
           y="0"
           x="0"
           id="use1973"
           transform="scale(-1,1)" />
        <rect
           id="rect1975"
           y="27.33077"
           x="-7.9229999"
           height="3.2179999"
           width="15.846" />
      </g>
    </g>
    <g
       id="s">
      <g
         id="c">
        <path
           transform="matrix(0.951057,0.309017,-0.309017,0.951057,0,-1)"
           d="M 0,0 L 0,1 L 0.5,1 L 0,0 z"
           id="t" />
        <use
           height="540"
           width="810"
           y="0"
           x="0"
           id="use2144"
           transform="scale(-1,1)"
           xlink:href="#t" />
      </g>
      <g
         id="a">
        <use
           height="540"
           width="810"
           y="0"
           x="0"
           id="use2147"
           transform="matrix(0.309017,0.951057,-0.951057,0.309017,0,0)"
           xlink:href="#c" />
        <use
           height="540"
           width="810"
           y="0"
           x="0"
           id="use2149"
           transform="matrix(-0.809017,0.587785,-0.587785,-0.809017,0,0)"
           xlink:href="#c" />
      </g>
      <use
         height="540"
         width="810"
         y="0"
         x="0"
         id="use2151"
         transform="scale(-1,1)"
         xlink:href="#a" />
    </g>
  </defs>
  <g
     id="layer4"
     inkscape:label="Fond écu"
     inkscape:groupmode="layer"
     transform="translate(300,300)">
    <use
       xlink:href="#shield"
       id="use18"
       style="fill:#e20909"
       x="0"
       y="0"
       width="600"
       height="660" />
    <path
       style="opacity:1;fill:#2b5df2;fill-opacity:1;stroke:#000000;stroke-width:3;stroke-linecap:butt;stroke-linejoin:round;stroke-miterlimit:4;stroke-dasharray:none;stroke-opacity:1.0"
       d="M 1.5 1.5 L 1.5 143.5 L 51.25 143.5 L 51.25 193.5 L 150.75 193.5 L 150.75 143.5 L 250.25 143.5 L 250.25 193.5 L 349.75 193.5 L 349.75 143.5 L 449.25 143.5 L 449.25 193.5 L 548.75 193.5 L 548.75 143.5 L 598.5 143.5 L 598.5 1.5 L 1.5 1.5 z "
       transform="translate(-300,-300)"
       id="rect4120" />
  </g>
  <g
     id="layer3"
     inkscape:label="Meubles"
     inkscape:groupmode="layer"
     transform="translate(300,300)">
    <g
       id="g6128"
       transform="matrix(0.9,0,0,0.81,-604.59396,-449.78636)">
      <path
         sodipodi:nodetypes="czsscscccsscsccsssscc"
         id="path7698"
         d="M 771.3387,518.92155 C 787.44566,518.32905 806.45402,539.07525 826.00918,534.63705 C 845.68408,530.17175 838.79078,515.98795 821.81848,511.58815 C 791.82768,503.81355 733.3987,514.37915 710.9553,496.53975 C 707.2246,493.57435 692.8075,474.02365 727.3372,471.20495 C 728.861,463.83955 735.2569,463.31285 747.1477,465.10945 C 757.0293,466.60245 766.3197,473.36375 775.0541,462.06165 C 775.761,466.05725 778.3853,476.40885 758.0055,471.77645 C 748.5818,469.61605 740.5709,469.81025 734.1947,472.72895 C 742.3625,469.81405 749.3441,468.75345 760.1008,474.32385 C 764.5899,476.64855 771.9573,480.94955 784.2135,469.86115 C 791.008,463.71385 809.41598,468.10485 802.7215,478.06255 C 795.9286,466.25575 785.0821,478.88395 779.5304,484.92005 C 764.083,501.71545 750.9592,483.78375 739.1473,480.15785 C 757.4651,484.98935 738.3388,497.94805 731.3374,490.06315 C 749.3129,488.29315 731.0472,476.36195 718.8136,481.93035 C 711.6007,485.21345 716.029,489.87915 719.4659,492.14875 C 739.9484,505.67475 803.88618,488.68065 838.96228,507.77845 C 857.66098,517.95925 850.99938,534.95145 841.43858,540.73255 C 826.97998,549.47515 819.7637,545.53195 800.0068,547.49475 L 771.3387,518.92155 z"
         style="fill:#ffffff;fill-opacity:1;stroke:#000000;stroke-width:1.5;stroke-miterlimit:4;stroke-dasharray:none;stroke-opacity:1;display:inline" />
      <g
         transform="translate(-179.57002,-567.78235)"
         id="g8065">
        <path
           style="opacity:1;fill:#ffffff;fill-opacity:1;stroke:#000000;stroke-width:1.5;stroke-linecap:butt;stroke-linejoin:miter;stroke-miterlimit:4;stroke-dasharray:none;stroke-opacity:1"
           d="M 285.64366,328.94814 C 262.73745,325.42728 244.4374,332.18248 244.22264,346.16207 C 244.13339,351.97153 249.00364,351.58501 243.53296,357.07252 C 232.28981,366.13233 240.22373,370.54239 243.53296,368.9071 C 243.2056,374.32637 231.42522,374.29719 233.46393,366.45187 C 224.59535,373.53522 231.01161,376.42762 234.65703,375.63129 C 229.1414,382.15047 221.91492,377.26166 223.7811,367.67948 C 222.88251,372.74468 226.08747,381.43899 217.32587,380.20374 C 218.68407,377.95993 218.57235,377.34864 218.67071,374.78987 C 215.78471,378.48345 211.83132,378.70805 207.64304,378.16922 C 211.7677,384.59119 194.78904,393.08794 193.11878,382.20374 C 187.45953,382.40391 181.47003,382.17323 181.28421,385.96928 C 172.8768,391.25542 166.04582,390.01088 165.14615,385.85206 C 162.75753,388.85803 153.32793,389.10544 151.85586,383.00536 C 152.84053,380.77887 153.63793,379.68073 155.58054,374.67264 C 156.77822,371.58501 161.81845,373.36077 164.87718,371.714 C 168.94808,369.52229 171.63226,365.89929 178.05659,366.33465 C 183.73843,366.71969 189.15516,364.90806 193.7626,359.2182 C 198.6049,353.23831 200.7274,355.74504 205.4913,350.46555 C 211.86097,343.40651 203.52551,336.06815 207.52581,328.7964 C 203.01705,337.3461 184.52546,340.74986 185.25762,328.85054 C 190.54962,334.85434 198.02062,332.17447 204.18323,326.29826 C 209.63686,321.09809 213.87773,317.65614 217.86381,314.69285 C 227.7042,307.37741 247.81348,300.38438 251.48477,294.78925 L 285.64366,328.94814 z"
           id="path7728"
           transform="translate(668.92093,819.094)"
           sodipodi:nodetypes="csccccccccccccsssssccsscc" />
        <path
           style="opacity:1;fill:none;fill-opacity:1;stroke:#000000;stroke-width:1.5;stroke-linecap:butt;stroke-linejoin:miter;stroke-miterlimit:4;stroke-dasharray:none;stroke-opacity:1"
           d="M 234.61933,353.56378 C 236.90296,352.53542 239.77798,351.56402 237.33169,347.52261 C 235.83452,345.0492 236.70735,342.91982 237.82485,340.61842"
           id="path7734"
           transform="translate(668.92093,819.094)"
           sodipodi:nodetypes="csc" />
        <path
           style="opacity:1;fill:none;fill-opacity:1;stroke:#000000;stroke-width:1.5;stroke-linecap:butt;stroke-linejoin:miter;stroke-miterlimit:4;stroke-dasharray:none;stroke-opacity:1"
           d="M 214.89306,329.89226 C 209.31459,337.27713 213.44234,340.77952 217.48213,344.31709"
           id="path7736"
           transform="translate(668.92093,819.094)"
           sodipodi:nodetypes="cc" />
        <path
           style="fill:none;fill-opacity:1;stroke:#000000;stroke-width:1.5;stroke-linecap:butt;stroke-linejoin:miter;stroke-miterlimit:4;stroke-dasharray:none;stroke-opacity:1"
           d="M 834.06708,1204.9461 C 832.93859,1202.125 832.99105,1199.3769 837.58055,1196.6992 C 841.78274,1194.2474 843.56184,1195.679 845.59434,1191.0279"
           id="path7730"
           sodipodi:nodetypes="csc" />
        <path
           style="fill:none;fill-opacity:1;stroke:#000000;stroke-width:1.5;stroke-linecap:butt;stroke-linejoin:miter;stroke-miterlimit:4;stroke-dasharray:none;stroke-opacity:1"
           d="M 850.20514,1205.0633 C 850.20514,1205.0633 853.13521,1200.6091 849.04644,1198.0554"
           id="path7732"
           sodipodi:nodetypes="cc" />
        <path
           style="fill:none;fill-opacity:1;stroke:#000000;stroke-width:1.5;stroke-linecap:butt;stroke-linejoin:miter;stroke-miterlimit:4;stroke-dasharray:none;stroke-opacity:1"
           d="M 827.35153,1199.0236 C 827.0648,1197.2125 828.36404,1195.7539 830.54487,1194.4911"
           id="path7744"
           sodipodi:nodetypes="cc" />
      </g>
      <g
         style="fill:#ffffff"
         transform="translate(-179.57002,-567.78235)"
         id="g7929">
        <path
           style="fill:#ffffff;fill-opacity:1;stroke:#000000;stroke-width:1.5;stroke-linecap:butt;stroke-linejoin:miter;stroke-miterlimit:4;stroke-dasharray:none;stroke-opacity:1"
           d="M 824.38029,1194.0778 C 824.15001,1197.642 822.26978,1199.1437 821.05813,1201.4811 C 819.5177,1201.9835 819.64649,1204.489 819.40049,1206.5448 C 819.40049,1206.5448 812.74154,1202.1213 816.6417,1196.7636 C 818.03575,1194.8486 821.49919,1193.4604 824.38029,1194.0778 z"
           id="path7740"
           sodipodi:nodetypes="cccsc" />
        <path
           style="fill:#ffffff;fill-opacity:1;stroke:#000000;stroke-width:1.5;stroke-linecap:butt;stroke-linejoin:miter;stroke-miterlimit:4;stroke-dasharray:none;stroke-opacity:1"
           d="M 827.35154,1199.0236 C 821.45076,1205.3051 824.60208,1207.4795 826.52746,1210.0457 C 830.83766,1207.9631 828.87207,1205.1689 831.57498,1204.5862 C 831.57493,1202.835 831.86534,1201.229 831.36896,1199.2296 C 830.02982,1200.163 828.69068,1200.0124 827.35154,1199.0236 z"
           id="path7742"
           sodipodi:nodetypes="ccccc" />
        <path
           style="fill:#ffffff;fill-opacity:1;stroke:#000000;stroke-width:1.5;stroke-linecap:butt;stroke-linejoin:miter;stroke-miterlimit:4;stroke-dasharray:none;stroke-opacity:1"
           d="M 842.28811,1197.8905 C 841.84028,1202.1168 842.85175,1203.4246 843.73026,1204.9982 C 839.52058,1205.6186 842.52109,1208.2993 837.03455,1210.2518 C 835.9033,1209.1045 831.65888,1201.673 842.28811,1197.8905 z"
           id="path7746"
           sodipodi:nodetypes="cccc" />
        <path
           style="fill:#ffffff;fill-opacity:1;stroke:#000000;stroke-width:1.5;stroke-linecap:butt;stroke-linejoin:miter;stroke-miterlimit:4;stroke-dasharray:none;stroke-opacity:1"
           d="M 870.10102,1197.8905 C 871.92461,1201.119 871.36264,1201.706 869.90328,1204.2678 C 868.76672,1206.2629 870.17509,1209.1898 872.05823,1209.4277 C 874.48342,1207.2162 878.32804,1204.8818 876.49416,1201.7792 C 875.40786,1199.9414 875.24972,1198.3245 870.10102,1197.8905 z"
           id="path7748"
           sodipodi:nodetypes="cscsc" />
      </g>
      <g
         transform="translate(-179.57002,-567.78235)"
         id="g8059">
        <path
           style="opacity:1;fill:#ffffff;fill-opacity:1;stroke:#000000;stroke-width:1.5;stroke-linecap:butt;stroke-linejoin:miter;stroke-miterlimit:4;stroke-dasharray:none;stroke-opacity:1"
           d="M 147.09942,333.67775 L 150.85856,294.01064 L 84.056812,313.89968 C 76.528766,327.45605 70.594244,332.40679 65.72089,334.29582 C 61.071067,336.09821 59.235438,338.84372 59.540242,342.53668 C 50.828124,345.63647 45.951763,352.57102 39.96819,358.40034 C 35.630059,362.62664 32.51964,363.08142 28.843024,364.99303 C 21.064406,362.62715 20.987127,367.52682 17.099793,368.90744 C 15.286276,369.28581 13.229099,369.96875 10.095058,371.99777 C 7.3969259,372.15497 5.4915697,371.51939 0.6180648,373.85196 C 3.4051542,377.42661 -6.0506834,389.5762 8.8960191,384.10909 C 11.811757,386.41603 14.928894,389.69608 19.778073,383.94702 C 24.456052,393.021 33.6304,385.97587 31.521305,382.91691 C 35.586761,383.12698 42.124913,377.56892 43.470557,384.35906 C 45.297707,393.57889 64.790244,377.83992 53.153573,374.47003 C 70.601862,373.21267 73.76704,364.75979 81.790575,358.60636 C 72.654976,366.85695 80.659278,372.18251 84.468856,369.58572 C 82.739113,365.64843 83.265111,360.68562 91.47359,358.19432 C 98.31802,356.11702 101.60776,354.36012 105.27704,351.80765 C 101.42392,358.19801 108.38835,363.80376 112.28177,359.69669 C 105.19843,355.52207 110.30682,350.56908 114.59196,348.68709 C 121.89774,345.47847 119.18484,349.77889 132.47189,342.94872 L 147.09942,333.67775 z"
           id="path7750"
           transform="translate(668.92093,819.094)"
           sodipodi:nodetypes="cccscscccccccscccsccscc" />
        <path
           style="opacity:1;fill:none;fill-opacity:1;stroke:#000000;stroke-width:1.5;stroke-linecap:butt;stroke-linejoin:miter;stroke-miterlimit:4;stroke-dasharray:none;stroke-opacity:1"
           d="M 50.24367,368.80132 C 61.290045,366.18639 65.733623,360.54518 68.866323,354.30315"
           id="path7760"
           transform="translate(668.92093,819.094)"
           sodipodi:nodetypes="cc" />
        <path
           style="fill:none;fill-opacity:1;stroke:#000000;stroke-width:1.5;stroke-linecap:butt;stroke-linejoin:miter;stroke-miterlimit:4;stroke-dasharray:none;stroke-opacity:1"
           d="M 678.29475,1195.7693 C 679.15831,1194.8111 679.59656,1193.1097 682.79418,1192.8947 C 689.18704,1192.4649 692.1092,1190.7779 694.66769,1188.1453"
           id="path7762"
           sodipodi:nodetypes="csc" />
        <path
           style="fill:none;fill-opacity:1;stroke:#000000;stroke-width:1.5;stroke-linecap:butt;stroke-linejoin:miter;stroke-miterlimit:4;stroke-dasharray:none;stroke-opacity:1"
           d="M 688.66844,1198.769 C 689.7269,1191.6341 697.84916,1194.5063 702.54169,1192.5197"
           id="path7764"
           sodipodi:nodetypes="cc" />
      </g>
      <g
         transform="translate(-179.57002,-567.78235)"
         id="g8052">
        <path
           style="opacity:1;fill:#ffffff;fill-opacity:1;stroke:#000000;stroke-width:1.5;stroke-linecap:butt;stroke-linejoin:miter;stroke-miterlimit:4;stroke-dasharray:none;stroke-opacity:1"
           d="M 83.604843,310.2501 C 74.300685,305.77451 64.281116,306.88872 59.035978,293.39308 C 49.399254,293.79414 55.789396,290.16622 51.082029,287.56019 C 47.184484,285.40248 45.614898,285.37204 45.779396,280.66676 C 45.646012,286.86408 45.355475,290.46633 36.234657,289.50448 C 38.249024,287.05898 41.82209,284.79699 39.592991,280.49001 C 37.971692,277.3574 37.70236,274.52051 38.178956,271.29878 C 31.080052,266.73504 29.243374,261.31828 28.810971,253.26983 C 26.708449,275.68903 7.9839644,245.38688 22.978075,247.61369 C 24.916844,237.36562 19.989985,231.69463 15.024126,226.04965 C -7.5253288,226.05113 11.264228,202.98134 17.675443,216.1514 C 18.924666,218.14267 21.174857,224.43561 24.922374,226.57991 C 22.020169,223.38597 20.756053,220.46505 20.680268,217.74219 C 6.5909748,199.88003 40.9353,203.57385 29.341235,215.62113 C 29.591433,220.30635 30.414342,221.5553 31.108779,223.57508 L 32.169305,220.21675 C 29.453046,200.61917 49.709356,218.83597 42.597817,222.69131 C 40.565675,223.69612 39.576106,223.8862 38.002201,227.64044 C 42.377795,232.2715 46.300001,237.64416 49.667993,243.72509 C 53.8918,251.3512 62.966019,251.88831 69.817998,256.98167 C 85.722596,268.80421 88.070485,265.02262 95.624144,267.05667 L 109.61449,288.65338 L 83.604843,310.2501 z"
           id="path7768"
           transform="translate(668.92093,819.094)"
           sodipodi:nodetypes="ccsccsccccccccccccssccc" />
        <path
           style="opacity:1;fill:none;fill-opacity:1;stroke:#000000;stroke-width:1.5;stroke-linecap:butt;stroke-linejoin:miter;stroke-miterlimit:4;stroke-dasharray:none;stroke-opacity:1"
           d="M 43.51467,262.06836 C 43.548314,267.07156 43.867274,271.96064 47.533541,275.51079"
           id="path7778"
           transform="translate(668.92093,819.094)"
           sodipodi:nodetypes="cc" />
        <path
           style="opacity:1;fill:none;fill-opacity:1;stroke:#000000;stroke-width:1.5;stroke-linecap:butt;stroke-linejoin:miter;stroke-miterlimit:4;stroke-dasharray:none;stroke-opacity:1"
           d="M 41.990271,255.00069 C 40.413851,260.2206 39.88723,265.44052 41.990271,270.66043"
           id="path7780"
           transform="translate(668.92093,819.094)"
           sodipodi:nodetypes="cc" />
        <path
           style="opacity:1;fill:none;fill-opacity:1;stroke:#000000;stroke-width:1.5;stroke-linecap:butt;stroke-linejoin:miter;stroke-miterlimit:4;stroke-dasharray:none;stroke-opacity:1"
           d="M 32.42813,240.03386 C 35.359369,244.32229 34.710637,247.93947 31.735221,251.1204"
           id="path7782"
           transform="translate(668.92093,819.094)"
           sodipodi:nodetypes="cc" />
        <path
           style="opacity:1;fill:none;fill-opacity:1;stroke:#000000;stroke-width:1.5;stroke-linecap:butt;stroke-linejoin:miter;stroke-miterlimit:4;stroke-dasharray:none;stroke-opacity:1"
           d="M 37.278491,249.18026 L 36.447001,255.13928"
           id="path7784"
           transform="translate(668.92093,819.094)" />
      </g>
      <g
         transform="translate(-179.57002,-567.78235)"
         id="g8073">
        <path
           style="opacity:1;fill:#ffffff;fill-opacity:1;stroke:#000000;stroke-width:1.5;stroke-linecap:butt;stroke-linejoin:miter;stroke-miterlimit:4;stroke-dasharray:none;stroke-opacity:1"
           d="M 240.53721,311.1523 C 248.09895,311.91156 264.91876,313.60769 261.98953,320.52228 C 260.01644,325.17985 266.29564,326.13342 270.74306,326.44016 C 274.83883,326.72265 275.71267,325.27396 276.29108,324.34424 L 261.2498,308.22073 C 256.48331,308.34856 244.58661,306.79492 240.53721,311.1523 z"
           id="path7738"
           transform="translate(668.92093,819.094)"
           sodipodi:nodetypes="cssccc" />
        <path
           style="opacity:1;fill:#ffffff;fill-opacity:1;stroke:#000000;stroke-width:1.5;stroke-linecap:butt;stroke-linejoin:miter;stroke-miterlimit:4;stroke-dasharray:none;stroke-opacity:1"
           d="M 172.85806,256.90126 C 189.13006,260.61227 205.34075,257.06631 218.06484,258.37071 C 224.49829,259.03023 234.52796,262.25959 249.22464,261.50646 C 265.16015,260.68984 273.46106,263.01288 283.39314,266.34866 C 299.46225,271.74561 306.03077,285.52674 315.53455,296.53023 C 325.34556,307.88942 334.1058,315.2412 353.19469,311.63494 C 356.45917,309.03095 359.05859,311.14264 360.83644,313.47181 C 364.71815,318.55724 367.75875,313.05992 369.8747,310.57198 C 374.89113,304.67364 381.51669,309.97373 379.714,313.89794 C 372.88867,309.57749 375.68144,320.31088 369.32037,322.21284 C 372.15084,321.15007 376.83518,313.42137 379.43684,317.50106 C 375.9678,318.4129 376.83571,323.37242 370.84477,326.09313 C 373.63662,326.56118 377.25399,319.16663 379.29826,325.60809 C 374.70777,324.58874 376.69602,334.69579 370.5676,330.66633 C 372.96078,335.26731 381.34875,335.87123 375.97229,344.94025 C 373.76324,340.73578 373.15457,342.839 370.77548,339.60486 C 372.90824,348.90483 370.74945,355.05766 367.38022,360.32283 C 384.38079,363.33341 370.98676,383.31672 363.98497,375.84398 C 363.39946,376.57095 362.46859,376.77989 361.14405,376.39831 C 362.85803,387.10181 349.90119,389.25093 344.65282,378.7542 C 342.86411,388.69413 330.67416,384.04632 330.93322,380.97151 C 329.78312,383.14553 321.65752,387.94202 319.7081,380.00143 C 319.36586,377.59024 320.39557,374.72174 321.09392,371.96369 C 323.17265,369.65682 325.25137,369.8948 327.3301,371.27078 C 329.1578,370.11533 329.70146,368.46601 336.06075,369.05348 C 346.8844,358.72911 341.6723,352.57308 339.456,348.75124 C 332.04644,335.97404 315.66774,344.03371 302.80113,339.67414 C 306.60065,350.39159 296.71614,352.43778 290.32877,352.56225 C 287.58001,352.61581 284.34317,352.48689 284.09259,358.52126 C 281.50179,357.55315 277.6575,350.26527 287.00281,348.82054 C 297.70705,347.16573 299.40973,340.3483 290.1209,335.5167 C 268.73021,324.3903 271.16915,322.75817 267.04704,316.94674 C 258.36974,304.71331 238.44773,306.21297 216.74186,310.01765 C 211.11044,311.00474 206.97887,312.88556 203.43801,315.00659 C 197.42446,318.60881 192.60176,319.26427 187.50111,319.30263 C 182.60901,319.33943 180.37992,321.45191 177.24606,323.18292 C 168.65292,327.92939 163.71326,328.17875 159.23043,328.44902 L 172.85806,256.90126 z"
           id="path7786"
           transform="translate(668.92093,819.094)"
           sodipodi:nodetypes="csssscsscccccccccccccccccscscssssssscc" />
        <path
           style="opacity:1;fill:none;fill-opacity:1;stroke:#000000;stroke-width:1.5;stroke-linecap:butt;stroke-linejoin:miter;stroke-miterlimit:4;stroke-dasharray:none;stroke-opacity:1"
           d="M 347.19185,318.06709 C 351.81819,318.87705 359.51164,314.96441 361.06677,320.50446 C 361.71809,322.82475 360.38614,325.65132 361.739,326.79538"
           id="path7796"
           transform="translate(668.92093,819.094)"
           sodipodi:nodetypes="csc" />
        <path
           style="opacity:1;fill:none;fill-opacity:1;stroke:#000000;stroke-width:1.5;stroke-linecap:butt;stroke-linejoin:miter;stroke-miterlimit:4;stroke-dasharray:none;stroke-opacity:1"
           d="M 360.7576,341.6274 C 366.02721,343.61741 365.6493,346.97651 366.28815,350.08913"
           id="path7798"
           transform="translate(668.92093,819.094)"
           sodipodi:nodetypes="cc" />
        <path
           style="opacity:1;fill:none;fill-opacity:1;stroke:#000000;stroke-width:1.5;stroke-linecap:butt;stroke-linejoin:miter;stroke-miterlimit:4;stroke-dasharray:none;stroke-opacity:1"
           d="M 358.7113,334.99074 C 361.27475,336.3286 363.81621,337.70677 365.51387,340.6319"
           id="path7800"
           transform="translate(668.92093,819.094)"
           sodipodi:nodetypes="cc" />
        <path
           style="opacity:1;fill:none;fill-opacity:1;stroke:#000000;stroke-width:1.5;stroke-linecap:butt;stroke-linejoin:miter;stroke-miterlimit:4;stroke-dasharray:none;stroke-opacity:1"
           d="M 357.05213,328.24347 C 359.01795,329.88735 360.8934,331.07935 363.13574,334.10585"
           id="path7802"
           transform="translate(668.92093,819.094)"
           sodipodi:nodetypes="cc" />
        <path
           style="fill:none;fill-opacity:1;stroke:#000000;stroke-width:1.5;stroke-linecap:butt;stroke-linejoin:miter;stroke-miterlimit:4;stroke-dasharray:none;stroke-opacity:1"
           d="M 1013.6399,1198.0526 C 1012.844,1194.5835 1013.8585,1191.9752 1016.6817,1190.5864 C 1019.3694,1189.2641 1021.8049,1187.8562 1021.6592,1183.7838"
           id="path7804"
           sodipodi:nodetypes="csc" />
        <path
           style="fill:none;fill-opacity:1;stroke:#000000;stroke-width:1.5;stroke-linecap:butt;stroke-linejoin:miter;stroke-miterlimit:4;stroke-dasharray:none;stroke-opacity:1"
           d="M 999.81357,1194.9555 C 1000.3349,1191.9627 1002.186,1189.0933 1006.229,1189.6462 C 1008.5106,1189.9582 1010.8844,1189.8755 1014.0271,1186.0513"
           id="path7806"
           sodipodi:nodetypes="csc" />
        <path
           style="fill:none;fill-opacity:1;stroke:#000000;stroke-width:1.5;stroke-linecap:butt;stroke-linejoin:miter;stroke-miterlimit:4;stroke-dasharray:none;stroke-opacity:1"
           d="M 1032.9969,1195.1214 C 1033.9339,1193.5643 1036.6504,1189.6996 1034.7666,1185.2217"
           id="path7808"
           sodipodi:nodetypes="cc" />
        <path
           style="opacity:1;fill:none;fill-opacity:1;stroke:#000000;stroke-width:1.5;stroke-linecap:butt;stroke-linejoin:miter;stroke-miterlimit:4;stroke-dasharray:none;stroke-opacity:1"
           d="M 302.21793,320.84644 C 309.26644,324.57708 326.3775,324.43751 323.17921,332.10922"
           id="path7810"
           transform="translate(668.92093,819.094)"
           sodipodi:nodetypes="cc" />
        <path
           style="opacity:1;fill:none;fill-opacity:1;stroke:#000000;stroke-width:1.5;stroke-linecap:butt;stroke-linejoin:miter;stroke-miterlimit:4;stroke-dasharray:none;stroke-opacity:1"
           d="M 271.55814,273.29248 C 287.81798,276.45336 301.63866,279.90721 314.60461,295.42018"
           id="path7812"
           transform="translate(668.92093,819.094)"
           sodipodi:nodetypes="cc" />
        <path
           style="opacity:1;fill:none;fill-opacity:1;stroke:#000000;stroke-width:1.5;stroke-linecap:butt;stroke-linejoin:miter;stroke-miterlimit:4;stroke-dasharray:none;stroke-opacity:1"
           d="M 212.42854,299.5723 C 199.38675,301.32906 201.71188,313.30203 187.713,315.05862 C 190.3733,312.0901 193.47178,310.65521 195.37795,305.04726"
           id="path7814"
           transform="translate(668.92093,819.094)"
           sodipodi:nodetypes="ccc" />
        <path
           style="opacity:1;fill:none;fill-opacity:1;stroke:#000000;stroke-width:1.5;stroke-linecap:butt;stroke-linejoin:miter;stroke-miterlimit:4;stroke-dasharray:none;stroke-opacity:1"
           d="M 179.89162,317.09218 L 179.89162,317.09218 C 182.9126,315.12675 186.02667,314.18532 188.65156,307.86296"
           id="path7816"
           transform="translate(668.92093,819.094)"
           sodipodi:nodetypes="ccc" />
      </g>
      <g
         style="fill:#ffffff"
         transform="translate(-179.57002,-567.78235)"
         id="g7942">
        <path
           style="fill:#ffffff;fill-opacity:1;stroke:#000000;stroke-width:1.5;stroke-linecap:butt;stroke-linejoin:miter;stroke-miterlimit:4;stroke-dasharray:none;stroke-opacity:1"
           d="M 984.05583,1205.3316 C 987.27568,1204.7406 984.9533,1198.3222 990.47917,1198.6311 C 991.33212,1196.6326 993.88781,1194.7313 991.53925,1191.3349 C 979.01746,1192.4381 982.84473,1203.2904 984.05583,1205.3316 z"
           id="path7788"
           sodipodi:nodetypes="cccc" />
        <path
           style="fill:#ffffff;fill-opacity:1;stroke:#000000;stroke-width:1.5;stroke-linecap:butt;stroke-linejoin:miter;stroke-miterlimit:4;stroke-dasharray:none;stroke-opacity:1"
           d="M 998.19953,1205.9198 C 1001.1869,1206.1856 1000.5294,1199.4619 1004.6,1198.6051 C 1003.7023,1197.2797 1003.0325,1195.8688 1003.3427,1194.0905 C 994.97657,1194.2124 995.74673,1203.8323 998.19953,1205.9198 z"
           id="path7790"
           sodipodi:nodetypes="cccc" />
        <path
           sodipodi:nodetypes="cccc"
           id="path7792"
           d="M 1016.1995,1207.9198 C 1019.1869,1208.1856 1016.5294,1201.4619 1020.6,1200.6051 C 1019.7023,1199.2797 1019.0325,1197.8688 1019.3427,1196.0905 C 1010.9766,1196.2124 1013.7467,1205.8323 1016.1995,1207.9198 z"
           style="fill:#ffffff;fill-opacity:1;stroke:#000000;stroke-width:1.5;stroke-linecap:butt;stroke-linejoin:miter;stroke-miterlimit:4;stroke-dasharray:none;stroke-opacity:1" />
        <path
           style="fill:#ffffff;fill-opacity:1;stroke:#000000;stroke-width:1.5;stroke-linecap:butt;stroke-linejoin:miter;stroke-miterlimit:4;stroke-dasharray:none;stroke-opacity:1"
           d="M 1044.6848,1196.8912 C 1041.6974,1197.157 1044.3549,1190.4333 1040.2843,1189.5765 C 1039.0214,1189.1855 1037.8413,1184.4852 1041.5416,1185.0619 C 1049.3937,1186.2857 1047.1376,1194.8037 1044.6848,1196.8912 z"
           id="path7794"
           sodipodi:nodetypes="ccsc" />
      </g>
      <g
         style="fill:#ffffff"
         transform="translate(-179.57002,-567.78235)"
         id="g7916">
        <path
           style="fill:#ffffff;fill-opacity:1;stroke:#000000;stroke-width:1.5;stroke-linecap:butt;stroke-linejoin:miter;stroke-miterlimit:4;stroke-dasharray:none;stroke-opacity:1"
           d="M 672.67046,1199.6438 C 675.75644,1197.5693 674.11591,1190.8046 669.04591,1192.6447 C 661.13996,1195.5142 662.04314,1203.7265 663.92156,1205.0182 C 666.18546,1202.9549 666.73294,1200.1764 672.67046,1199.6438 z"
           id="path7752"
           sodipodi:nodetypes="cscc" />
        <path
           style="fill:#ffffff;fill-opacity:1;stroke:#000000;stroke-width:1.5;stroke-linecap:butt;stroke-linejoin:miter;stroke-miterlimit:4;stroke-dasharray:none;stroke-opacity:1"
           d="M 674.79519,1209.5176 C 668.98683,1206.0558 676.44403,1196.5042 678.41973,1196.0193 C 682.93181,1194.912 683.7836,1197.8601 683.4191,1202.3935 C 679.05772,1200.9026 677.64178,1207.07 674.79519,1209.5176 z"
           id="path7754"
           sodipodi:nodetypes="cscc" />
        <path
           style="fill:#ffffff;fill-opacity:1;stroke:#000000;stroke-width:1.5;stroke-linecap:butt;stroke-linejoin:miter;stroke-miterlimit:4;stroke-dasharray:none;stroke-opacity:1"
           d="M 692.79292,1198.519 C 683.42026,1197.2454 684.39276,1210.1069 689.66832,1211.2674 C 690.67223,1208.0165 691.71066,1205.1109 693.04289,1205.1432 C 692.19579,1203.5461 691.97591,1201.4473 692.79292,1198.519 z"
           id="path7756"
           sodipodi:nodetypes="cccc" />
        <path
           sodipodi:nodetypes="cccc"
           id="path7758"
           d="M 718.57845,1198.0191 C 727.70114,1197.3704 725.35381,1208.3571 720.82816,1210.3925 C 719.82425,1207.1416 718.78582,1204.236 717.45359,1204.2683 C 718.30069,1202.6712 719.39546,1200.9474 718.57845,1198.0191 z"
           style="fill:#ffffff;fill-opacity:1;stroke:#000000;stroke-width:1.5;stroke-linecap:butt;stroke-linejoin:miter;stroke-miterlimit:4;stroke-dasharray:none;stroke-opacity:1" />
      </g>
      <g
         style="fill:#ffffff"
         transform="translate(-179.57002,-567.78235)"
         id="g7844">
        <path
           style="opacity:1;fill:#ffffff;fill-opacity:1;stroke:#000000;stroke-width:1.5;stroke-linecap:butt;stroke-linejoin:miter;stroke-miterlimit:4;stroke-dasharray:none;stroke-opacity:1"
           d="M 6.8934226,217.38868 C 6.5667086,210.25726 1.7603958,213.36492 -1.5907898,213.14657 C 2.4872816,203.34808 15.34558,208.01675 16.79167,215.97464 C 13.098185,221.17482 8.9317297,219.14756 6.8934226,217.38868 z"
           id="path7770"
           transform="translate(668.92093,819.094)"
           sodipodi:nodetypes="cccc" />
        <path
           style="opacity:1;fill:#ffffff;fill-opacity:1;stroke:#000000;stroke-width:1.5;stroke-linecap:butt;stroke-linejoin:miter;stroke-miterlimit:4;stroke-dasharray:none;stroke-opacity:1"
           d="M 19.796496,253.09307 C 15.501625,255.56617 12.054206,252.02822 10.428511,253.97685 C 12.857602,260.05724 17.277926,262.24166 21.56404,259.63299 C 24.249999,257.99822 25.129526,255.74685 24.392111,254.1536 C 23.791377,252.85566 21.917492,251.87174 19.796496,253.09307 z"
           id="path7772"
           transform="translate(668.92093,819.094)"
           sodipodi:nodetypes="ccsss" />
        <path
           sodipodi:nodetypes="cccc"
           id="path7774"
           d="M 690.4611,1026.8608 C 693.74387,1020.5214 688.2044,1021.1631 685.41138,1019.2983 C 693.84232,1012.8517 700.46687,1022.9704 697.74027,1030.5853 C 691.94152,1033.242 691.3469,1029.4031 690.4611,1026.8608 z"
           style="opacity:1;fill:#ffffff;fill-opacity:1;stroke:#000000;stroke-width:1.5;stroke-linecap:butt;stroke-linejoin:miter;stroke-miterlimit:4;stroke-dasharray:none;stroke-opacity:1" />
        <path
           style="opacity:1;fill:#ffffff;fill-opacity:1;stroke:#000000;stroke-width:1.5;stroke-linecap:butt;stroke-linejoin:miter;stroke-miterlimit:4;stroke-dasharray:none;stroke-opacity:1"
           d="M 704.56307,1030.7665 C 709.81606,1025.9323 704.39119,1024.6406 702.40442,1021.933 C 712.53176,1018.7588 715.29601,1030.5329 710.12941,1036.756 C 703.77171,1037.2692 704.52593,1033.4585 704.56307,1030.7665 z"
           id="path7776"
           sodipodi:nodetypes="cccc" />
      </g>
      <path
         style="fill:#ffffff;fill-opacity:1;stroke:#000000;stroke-width:1.5;stroke-miterlimit:4;stroke-dasharray:none;stroke-opacity:1"
         d="M 584.40149,473.47169 C 584.26923,480.86333 585.65885,487.71066 592.53225,492.59672 C 599.73798,496.77431 607.08525,493.47068 614.4802,486.16101 C 622.29628,478.64232 631.69802,479.9615 637.63477,481.82548 C 638.61208,478.34896 637.41252,476.93611 637.67894,474.60785 C 628.80429,470.77144 615.883,476.7256 606.04652,481.55801 C 596.19836,487.54312 589.74356,482.52811 584.40149,473.47169 z"
         id="path3835"
         sodipodi:nodetypes="ccccccc" />
      <path
         sodipodi:nodetypes="ccccc"
         style="fill:#ffffff;fill-opacity:1;stroke:#000000;stroke-width:1.5;stroke-miterlimit:4;stroke-dasharray:none;stroke-opacity:1"
         d="M 619.36037,492.64537 L 616.33501,486.39901 L 613.3884,487.51339 L 614.45394,491.49472 C 617.21104,492.79812 617.02679,492.2686 619.36037,492.64537 z"
         id="path3881" />
      <path
         sodipodi:nodetypes="ccccc"
         id="path3883"
         d="M 605.80126,473.68067 L 611.34316,472.5775 L 612.97206,477.87783 L 609.76416,479.48687 L 605.80126,473.68067 z"
         style="fill:#ffffff;fill-opacity:1;stroke:#000000;stroke-width:1.5;stroke-miterlimit:4;stroke-dasharray:none;stroke-opacity:1" />
      <path
         sodipodi:nodetypes="csscscssccccscssccsccccsccscscccccscsscscsccsccssccccs"
         id="path3885"
         d="M 632.39914,468.7606 C 631.41029,465.21945 622.56787,464.60923 618.02592,468.99768 C 615.74547,471.20105 603.64981,477.01347 599.07053,470.54318 C 598.11255,469.18961 597.51262,466.8134 597.26242,463.50241 C 594.6734,460.99928 593.06444,453.67729 596.51885,451.92587 C 600.61574,449.84869 604.78146,449.00552 608.91277,447.54533 C 608.87975,445.04054 607.30456,440.80148 609.99181,440.06191 C 616.78161,438.19328 617.6636,436.09234 622.58252,433.85614 C 624.91374,432.79634 630.67622,431.6205 636.88649,432.37637 C 645.22367,434.0868 661.75888,435.31414 665.34895,440.73404 C 661.40795,442.93385 649.03069,439.93197 648.66669,447.50482 C 650.9331,439.18233 662.39474,443.32454 670.77245,441.27113 C 672.44631,442.95215 665.86337,447.75602 658.53705,448.84194 C 656.55492,449.13573 656.69917,449.67737 654.05909,453.43219 C 655.24114,451.09981 658.71706,448.87223 660.19672,449.16281 C 669.1423,450.91958 667.51381,457.51734 667.88205,459.43658 C 668.79516,464.19568 672.61504,467.74914 680.00622,462.66323 C 677.10939,466.96519 679.42163,473.4118 667.57941,469.53755 C 674.07234,472.07572 675.83634,484.30824 675.58443,485.70024 C 674.79629,490.05542 680.2692,495.38981 687.97841,494.64384 C 682.70076,503.15489 676.4334,498.76848 667.68487,493.18438 C 687.31244,503.40674 663.89761,529.3681 680.35615,537.18715 C 671.11586,540.88676 665.46824,536.09637 665.08383,527.382 C 665.25306,543.33135 670.77211,541.2137 665.38617,550.76533 C 661.86498,557.00996 662.69468,565.42924 670.9901,565.062 C 668.9928,570.75564 647.63552,570.9458 655.01463,543.79779 C 647.86199,563.57193 657.82343,564.26536 651.11406,574.89309 C 647.89846,579.98669 651.13384,591.23404 663.67954,587.21166 C 657.19272,597.01033 644.81936,595.81839 637.17012,588.46773 C 628.52685,580.16186 640.7945,564.47448 633.89258,553.07436 C 635.9396,562.1383 631.41565,578.28703 622.22283,581.15966 C 609.51747,587.7416 617.82831,603.77141 635.51797,599.74207 C 623.5098,618.744 587.37986,598.43135 610.37083,571.2956 C 596.65829,582.5574 600.68225,599.20703 581.63288,604.58881 C 564.27411,609.49298 549.71733,584.93855 571.54878,582.61205 C 566.21227,587.92791 568.35568,591.81797 572.82462,591.55565 C 578.86373,591.20114 582.40109,586.05368 582.38604,577.53636 C 582.35001,557.16935 595.16829,558.18462 600.71092,556.69382 C 574.29355,559.18254 582.09842,583.94281 549.16857,579.27111 C 537.88799,575.08378 533.1482,564.82409 541.95646,552.09148 C 540.63539,560.53344 549.63854,563.9927 556.59944,557.48195 C 573.05989,542.08603 580.93935,539.47681 593.96714,539.53671 C 577.6521,539.61182 557.73845,540.20966 559.93129,518.52353 C 562.87494,522.16751 564.59636,523.47625 568.42301,523.77783 C 574.54397,524.26023 571.59961,517.50907 594.51392,520.73688 C 574.27709,519.62905 564.07075,499.74676 585.12722,495.24174 C 571.90308,507.73285 590.03036,513.55837 598.33014,509.26103 C 605.99228,505.29384 609.87556,507.66965 613.1301,509.31558 C 624.03324,514.82967 638.41191,493.05145 636.82812,490.23254 C 622.89406,507.6127 622.61099,503.27059 616.21053,503.27695 C 612.11663,500.43495 611.46006,497.8907 611.84285,491.7158 C 617.87083,493.77391 621.59595,491.82632 625.73557,491.04794 C 629.56439,487.78713 633.84117,484.95845 634.6547,481.05838 C 635.5615,476.71084 633.64624,473.22659 632.39914,468.7606 z"
         style="fill:#ffffff;fill-opacity:1;stroke:#000000;stroke-width:1.5;stroke-linejoin:round;stroke-miterlimit:4;stroke-dasharray:none;stroke-opacity:1" />
      <path
         sodipodi:nodetypes="ccccccscc"
         id="path3887"
         style="fill:#313131;stroke:#000000;stroke-width:1.5;stroke-opacity:1"
         d="M 611.9523,447.86214 C 616.51864,444.94337 622.97724,444.38015 624.7628,450.91539 L 625.64403,452.28375 L 623.99417,451.6787 C 623.09744,452.53822 621.81638,452.56388 620.66344,452.74348 L 619.31834,452.89742 C 617.58892,451.67229 616.74498,449.59452 617.23764,448.01662 C 618.09062,445.28464 613.27818,447.81878 611.9523,447.86214 L 611.9523,447.86214 z" />
      <path
         sodipodi:nodetypes="cccccccsccsc"
         id="path3870"
         d="M 616.35461,442.66987 C 614.17118,443.57547 613.84374,445.96218 611.56457,446.54497 C 610.58264,446.6619 609.69283,446.4569 609.69283,446.4569 L 609.31043,448.52655 C 609.31043,448.52655 610.43982,448.79455 611.76583,448.63664 C 614.45118,448.66478 615.06043,445.79791 617.05903,444.62945 C 619.54856,443.81381 622.63718,443.60363 624.54599,445.77436 C 626.45739,448.55883 627.29348,450.9027 628.60521,451.62729 C 630.51754,452.68366 632.73789,451.78717 634.8042,451.55653 L 632.75751,451.23472 C 630.50822,450.65719 629.0588,452.4259 626.49165,446.64916 C 624.54244,442.26294 619.58966,441.6867 616.35461,442.66987 z"
         style="fill:#000000;fill-opacity:1;stroke:none;stroke-width:3;stroke-linecap:round;stroke-linejoin:round;stroke-miterlimit:4;stroke-dasharray:none;stroke-opacity:1" />
      <path
         sodipodi:nodetypes="cccccccccccccccccccccccccccccccccccccccccccccc"
         id="path5281"
         d="M 674.94147,500.32916 L 670.5071,501.88416 L 672.5071,507.44666 C 670.3901,508.11645 668.3094,508.68174 666.2571,509.16541 L 665.2571,503.54041 L 659.3508,504.57166 L 660.38205,510.32166 C 658.44305,510.61442 656.51139,510.8297 654.6008,510.94666 L 654.6008,505.44666 L 648.6008,505.44666 L 648.6008,511.04041 C 646.82383,510.97591 645.03714,510.79208 643.25705,510.57166 L 644.19455,505.22791 L 638.2883,504.19666 L 637.3508,509.57166 C 635.60301,509.18969 633.84591,508.72749 632.06955,508.19666 L 634.00705,502.88416 L 628.38205,500.82166 L 626.38205,506.29041 C 626.36025,506.28216 626.34136,506.26743 626.31955,506.25916 L 618.56955,511.13416 L 610.69455,514.88416 L 616.4133,516.75916 L 624.1633,513.07166 C 625.76096,513.59137 627.35907,514.09279 628.9758,514.54041 L 624.75705,520.19666 L 630.56955,521.63416 L 634.7883,515.97791 C 636.64483,516.37904 638.5073,516.71847 640.38205,517.00916 L 639.00705,523.13416 L 644.9758,523.75916 L 646.3508,517.72791 C 648.33568,517.90058 650.32186,518.00982 652.31955,518.04041 L 652.1008,524.16541 L 658.1008,524.16541 L 658.31955,517.91541 L 663.81955,517.47791 L 666.9445,523.75916 L 672.8195,522.50916 L 669.7258,516.35291 C 671.3737,515.99495 673.0474,515.58208 674.6945,515.10291 L 680.4445,521.16541 L 684.56022,517.89291 L 678.77892,511.76791 L 677.00387,505.95416 L 674.94147,500.32916 z"
         style="opacity:1;fill:#000000;fill-opacity:1;stroke:#313131;stroke-width:2;stroke-linecap:butt;stroke-linejoin:round;stroke-miterlimit:4;stroke-dasharray:none;stroke-opacity:1" />
    </g>
    <use
       x="0"
       y="0"
       xlink:href="#g6128"
       id="use6190"
       transform="translate(0,178)"
       width="600"
       height="660" />
    <path
       sodipodi:type="arc"
       style="opacity:1;fill:#fcef3c;fill-opacity:1;stroke:#000000;stroke-width:2.84900858000000000;stroke-linecap:butt;stroke-linejoin:round;stroke-miterlimit:4;stroke-dasharray:none;stroke-opacity:1"
       id="path4131"
       sodipodi:cx="305.93884"
       sodipodi:cy="71.656082"
       sodipodi:rx="54.912098"
       sodipodi:ry="49.682377"
       d="M 360.85094,71.656082 A 54.912098,49.682377 0 1 1 251.02674,71.656082 A 54.912098,49.682377 0 1 1 360.85094,71.656082 z"
       transform="matrix(1.0016008,0,0,1.1070324,-306.42859,-300.78445)" />
    <use
       x="0"
       y="0"
       xlink:href="#path4131"
       id="use4133"
       transform="translate(-200,0)"
       width="600"
       height="660" />
    <use
       x="0"
       y="0"
       xlink:href="#path4131"
       id="use4135"
       transform="translate(200,0)"
       width="600"
       height="660" />
  </g>
  <g
     id="layer2"
     inkscape:label="Reflet final"
     inkscape:groupmode="layer"
     transform="translate(300,300)"
     sodipodi:insensitive="true">
    <use
       xlink:href="#shield"
       id="use22"
       style="fill:url(#Gradient1)"
       x="0"
       y="0"
       width="600"
       height="660" />
  </g>
  <g
     id="layer1"
     inkscape:label="Contour final"
     inkscape:groupmode="layer"
     transform="translate(300,300)"
     sodipodi:insensitive="true">
    <use
       xlink:href="#shield"
       style="fill:none;stroke:#000000;stroke-width:3"
       id="use25"
       x="0"
       y="0"
       width="600"
       height="660" />
  </g>
</svg>
