<?xml version="1.0" encoding="UTF-8" standalone="no"?>
<svg
   xmlns:dc="http://purl.org/dc/elements/1.1/"
   xmlns:cc="http://web.resource.org/cc/"
   xmlns:rdf="http://www.w3.org/1999/02/22-rdf-syntax-ns#"
   xmlns:svg="http://www.w3.org/2000/svg"
   xmlns="http://www.w3.org/2000/svg"
   xmlns:xlink="http://www.w3.org/1999/xlink"
   xmlns:sodipodi="http://sodipodi.sourceforge.net/DTD/sodipodi-0.dtd"
   xmlns:inkscape="http://www.inkscape.org/namespaces/inkscape"
   height="660"
   width="600"
   version="1.0"
   id="svg2"
   sodipodi:version="0.32"
   inkscape:version="0.45.1"
   sodipodi:docname="Blason ville fr La Suze-sur-Sarthe (Sarthe).svg"
   sodipodi:docbase="C:\Documents and Settings\Jimmy\Mes documents\Héraldique\Réalisations Perso\Blasons\Villes"
   inkscape:export-filename="/Users/olivier/Desktop/Blason Rouge/Blason_Vide_3D.png"
   inkscape:export-xdpi="144"
   inkscape:export-ydpi="144"
   inkscape:output_extension="org.inkscape.output.svg.inkscape">
  <metadata
     id="metadata49">
    <rdf:RDF>
      <cc:Work
         rdf:about="">
        <dc:format>image/svg+xml</dc:format>
        <dc:type
           rdf:resource="http://purl.org/dc/dcmitype/StillImage" />
        <dc:title>Gabarit d'un blason en pointe pour le projet Blasons de Wikipédia</dc:title>
        <dc:date>03-AUG-2006</dc:date>
        <dc:creator>
          <cc:Agent>
            <dc:title>Jérôme BLUM (wagner51)</dc:title>
          </cc:Agent>
        </dc:creator>
        <cc:license
           rdf:resource="http://web.resource.org/cc/PublicDomain" />
        <dc:language>fr</dc:language>
        <dc:subject>
          <rdf:Bag>
            <rdf:li>gabarit modèle blason projet wikipédia</rdf:li>
          </rdf:Bag>
        </dc:subject>
      </cc:Work>
      <cc:License
         rdf:about="http://web.resource.org/cc/PublicDomain">
        <cc:permits
           rdf:resource="http://web.resource.org/cc/Reproduction" />
        <cc:permits
           rdf:resource="http://web.resource.org/cc/Distribution" />
        <cc:permits
           rdf:resource="http://web.resource.org/cc/DerivativeWorks" />
      </cc:License>
    </rdf:RDF>
  </metadata>
  <sodipodi:namedview
     inkscape:window-height="578"
     inkscape:window-width="800"
     inkscape:pageshadow="2"
     inkscape:pageopacity="0.0"
     guidetolerance="10.0"
     gridtolerance="10.0"
     objecttolerance="10.0"
     borderopacity="1.0"
     bordercolor="#666666"
     pagecolor="#ffffff"
     id="base"
     showgrid="false"
     height="660px"
     inkscape:zoom="0.57878788"
     inkscape:cx="300"
     inkscape:cy="330"
     inkscape:window-x="0"
     inkscape:window-y="0"
     inkscape:current-layer="layer4" />
  <desc
     id="desc4">Flag of Canton of Valais (Wallis)</desc>
  <defs
     id="defs6">
    <radialGradient
       cx="1290.125"
       cy="232.86499"
       r="493.59378"
       fx="1290.125"
       fy="232.86499"
       id="radialGradient3608"
       xlink:href="#linearGradient2885"
       gradientUnits="userSpaceOnUse"
       gradientTransform="matrix(0.613835,0,0,0.818553,-356.9862,371.6608)" />
    <linearGradient
       id="linearGradient2893">
      <stop
         style="stop-color:white;stop-opacity:0.3137255;"
         offset="0"
         id="stop2895" />
      <stop
         id="stop2897"
         offset="0.19"
         style="stop-color:white;stop-opacity:0.25098041;" />
      <stop
         style="stop-color:#6b6b6b;stop-opacity:0.1254902;"
         offset="0.60000002"
         id="stop2901" />
      <stop
         style="stop-color:black;stop-opacity:0.1254902;"
         offset="1"
         id="stop2899" />
    </linearGradient>
    <linearGradient
       id="linearGradient2885">
      <stop
         id="stop2887"
         offset="0"
         style="stop-color:white;stop-opacity:1;" />
      <stop
         style="stop-color:white;stop-opacity:1;"
         offset="0.22857143"
         id="stop2891" />
      <stop
         id="stop2889"
         offset="1"
         style="stop-color:black;stop-opacity:1;" />
    </linearGradient>
    <linearGradient
       id="linearGradient2955">
      <stop
         id="stop2867"
         offset="0"
         style="stop-color:#fd0000;stop-opacity:1;" />
      <stop
         style="stop-color:#e77275;stop-opacity:0.65882355;"
         offset="0.5"
         id="stop2873" />
      <stop
         style="stop-color:black;stop-opacity:0.32291666;"
         offset="1"
         id="stop2959" />
    </linearGradient>
    <radialGradient
       inkscape:collect="always"
       xlink:href="#linearGradient2955"
       id="radialGradient2961"
       cx="225.52438"
       cy="218.90099"
       fx="225.52438"
       fy="218.90099"
       r="300"
       gradientTransform="matrix(-4.167939e-4,2.182867,-1.884232,-3.599562e-4,615.5972,-289.1214)"
       gradientUnits="userSpaceOnUse" />
    <polygon
       id="star"
       transform="scale(53,53)"
       points="0,-1 0.58778525,0.80901699 -0.95105652,-0.30901699 0.95105652,-0.30901699 -0.58778525,0.80901699 0,-1 " />
    <clipPath
       id="clip">
      <path
         d="M 0,-200 L 0,600 L 300,600 L 300,-200 L 0,-200 z "
         id="path10" />
    </clipPath>
    <radialGradient
       inkscape:collect="always"
       xlink:href="#linearGradient2955"
       id="radialGradient1911"
       gradientUnits="userSpaceOnUse"
       gradientTransform="matrix(-4.167939e-4,2.182867,-1.884232,-3.599562e-4,615.5972,-289.1214)"
       cx="225.52438"
       cy="218.90099"
       fx="225.52438"
       fy="218.90099"
       r="300" />
    <radialGradient
       inkscape:collect="always"
       xlink:href="#linearGradient2955"
       id="radialGradient2865"
       gradientUnits="userSpaceOnUse"
       gradientTransform="matrix(0,1.748721,-1.593162,-1.049767e-7,551.7876,-191.2898)"
       cx="225.52438"
       cy="218.90099"
       fx="225.52438"
       fy="218.90099"
       r="300" />
    <radialGradient
       inkscape:collect="always"
       xlink:href="#linearGradient2955"
       id="radialGradient2871"
       gradientUnits="userSpaceOnUse"
       gradientTransform="matrix(0,1.386237,-1.323286,-5.741131e-8,-158.0823,-109.5408)"
       cx="225.52438"
       cy="218.90099"
       fx="225.52438"
       fy="218.90099"
       r="300" />
    <radialGradient
       inkscape:collect="always"
       xlink:href="#linearGradient2893"
       id="radialGradient3163"
       gradientUnits="userSpaceOnUse"
       gradientTransform="matrix(1.353218,0,0,1.348928,-77.62935,-85.74693)"
       cx="221.44487"
       cy="226.33101"
       fx="221.44487"
       fy="226.33101"
       r="300" />
    <linearGradient
       id="linearGradient2569">
      <stop
         style="stop-color:white;stop-opacity:0.3137255"
         offset="0"
         id="stop2571" />
      <stop
         style="stop-color:white;stop-opacity:0.25098041"
         offset="0.19"
         id="stop2573" />
      <stop
         style="stop-color:#6b6b6b;stop-opacity:0.1254902"
         offset="0.60000002"
         id="stop2575" />
      <stop
         style="stop-color:black;stop-opacity:0.1254902"
         offset="1"
         id="stop2577" />
    </linearGradient>
    <linearGradient
       id="linearGradient2561">
      <stop
         style="stop-color:white;stop-opacity:1"
         offset="0"
         id="stop2563" />
      <stop
         style="stop-color:white;stop-opacity:1"
         offset="0.22857143"
         id="stop2565" />
      <stop
         style="stop-color:black;stop-opacity:1"
         offset="1"
         id="stop2567" />
    </linearGradient>
    <linearGradient
       id="linearGradient2553">
      <stop
         style="stop-color:#fd0000;stop-opacity:1"
         offset="0"
         id="stop2555" />
      <stop
         style="stop-color:#e77275;stop-opacity:0.65882355"
         offset="0.5"
         id="stop2557" />
      <stop
         style="stop-color:black;stop-opacity:0.32291666"
         offset="1"
         id="stop2559" />
    </linearGradient>
    <radialGradient
       cx="225.52438"
       cy="218.90099"
       r="300"
       fx="225.52438"
       fy="218.90099"
       id="radialGradient2551"
       xlink:href="#linearGradient2955"
       gradientUnits="userSpaceOnUse"
       gradientTransform="matrix(-4.167939e-4,2.182867,-1.884232,-3.599562e-4,615.5972,-289.1214)" />
    <polygon
       points="0,-1 0.58778525,0.80901699 -0.95105652,-0.30901699 0.95105652,-0.30901699 -0.58778525,0.80901699 0,-1 "
       transform="scale(53,53)"
       id="polygon2549" />
    <clipPath
       id="clipPath2545">
      <path
         d="M 0,-200 L 0,600 L 300,600 L 300,-200 L 0,-200 z "
         id="path2547" />
    </clipPath>
    <radialGradient
       cx="225.52438"
       cy="218.90099"
       r="300"
       fx="225.52438"
       fy="218.90099"
       id="radialGradient2543"
       xlink:href="#linearGradient2955"
       gradientUnits="userSpaceOnUse"
       gradientTransform="matrix(-4.167939e-4,2.182867,-1.884232,-3.599562e-4,615.5972,-289.1214)" />
    <radialGradient
       cx="225.52438"
       cy="218.90099"
       r="300"
       fx="225.52438"
       fy="218.90099"
       id="radialGradient2541"
       xlink:href="#linearGradient2955"
       gradientUnits="userSpaceOnUse"
       gradientTransform="matrix(0,1.748721,-1.593162,-1.049767e-7,551.7876,-191.2898)" />
    <radialGradient
       cx="225.52438"
       cy="218.90099"
       r="300"
       fx="225.52438"
       fy="218.90099"
       id="radialGradient2539"
       xlink:href="#linearGradient2955"
       gradientUnits="userSpaceOnUse"
       gradientTransform="matrix(0,1.386237,-1.323286,-5.741131e-8,-158.0823,-109.5408)" />
  </defs>
  <g
     inkscape:groupmode="layer"
     id="layer3"
     inkscape:label="Fond écu"
     style="display:inline"
     sodipodi:insensitive="true">
    <path
       id="path2855"
       style="fill:#2b5df2;fill-opacity:1;fill-rule:evenodd;stroke:none;stroke-width:1px;stroke-linecap:butt;stroke-linejoin:miter;stroke-opacity:1"
       d="M 298.5445,658.5 C 298.5445,658.5 597.04451,546.17969 597.04451,260.72817 C 597.04451,-24.723354 597.04451,2.1764765 597.04451,2.1764765 L 0.0445026,2.1764765 L 0.0445026,260.72817 C 0.0445026,546.17969 298.5445,658.5 298.5445,658.5 z "
       sodipodi:nodetypes="cccccc" />
    <g
       style="display:inline"
       id="g20632"
       transform="translate(382.3509,-236.11554)">
      <g
         id="layer5"
         style="fill:#ffff00;display:inline"
         transform="translate(-384.43167,237.90202)">
        <rect
           id="rect2230"
           style="opacity:1;fill:#fcef3c;fill-opacity:1;fill-rule:nonzero;stroke:#000000;stroke-width:2.90240884;stroke-miterlimit:4;stroke-dasharray:none;stroke-opacity:1"
           y="2.1139324"
           x="1.5319287"
           height="179.00894"
           width="596.46588" />
      </g>
      <path
         id="path3679"
         style="fill:#000000;fill-opacity:1;fill-rule:nonzero;stroke:none;stroke-width:30;stroke-miterlimit:4;stroke-dasharray:none;stroke-dashoffset:0;stroke-opacity:1"
         d="M -304.65802,299.24004 L -275.47058,249.07446 L -247.22936,299.6381 L -182.66857,307.98112 L -229.92364,346.67815 L -219.21033,402 L -276.6568,375.35244 L -334.59639,401.20021 L -322.84519,346.03407 L -369.36714,306.68702 L -304.65802,299.24004 z " />
      <path
         id="path4650"
         style="fill:#000000;fill-opacity:1;fill-rule:nonzero;stroke:none;stroke-width:30;stroke-miterlimit:4;stroke-dasharray:none;stroke-dashoffset:0;stroke-opacity:1;display:inline"
         d="M -108.75643,299.24004 L -79.568989,249.07446 L -51.32776,299.6381 L 13.233027,307.98112 L -34.022047,346.67815 L -23.308732,402 L -80.755202,375.35244 L -138.69479,401.20021 L -126.94359,346.03407 L -173.46554,306.68702 L -108.75643,299.24004 z " />
      <path
         id="path4652"
         style="fill:#000000;fill-opacity:1;fill-rule:nonzero;stroke:none;stroke-width:30;stroke-miterlimit:4;stroke-dasharray:none;stroke-dashoffset:0;stroke-opacity:1;display:inline"
         d="M 85.23785,299.24004 L 114.42529,249.07446 L 142.66652,299.6381 L 207.2273,307.98112 L 159.97223,346.67815 L 170.68555,402 L 113.23908,375.35244 L 55.299486,401.20021 L 67.050686,346.03407 L 20.528735,306.68702 L 85.23785,299.24004 z " />
    </g>
  </g>
  <g
     inkscape:groupmode="layer"
     id="layer4"
     inkscape:label="Meubles">
    <g
       id="g3645"
       inkscape:label="Calque 1"
       transform="translate(-117.59597,-235.49258)">
      <g
         transform="translate(109.31832,303.3667)"
         id="g7133"
         sodipodi:insensitive="true" />
    </g>
    <g
       id="g3948">
      <g
         transform="matrix(0.1979032,0,0,0.2214664,173.18288,212.24946)"
         id="g3944">
        <path
           sodipodi:type="arc"
           style="opacity:1;color:#000000;fill:#ff0000;fill-opacity:1;fill-rule:nonzero;stroke:#000000;stroke-width:14.32982635;stroke-linecap:butt;stroke-linejoin:miter;marker:none;marker-start:none;marker-mid:none;marker-end:none;stroke-miterlimit:4;stroke-dasharray:none;stroke-dashoffset:0;stroke-opacity:1;visibility:visible;display:inline;overflow:visible;enable-background:accumulate"
           id="path3940"
           sodipodi:cx="-196.96335"
           sodipodi:cy="241.88481"
           sodipodi:rx="63.926701"
           sodipodi:ry="44.921467"
           d="M -216.70656,284.61023 A 63.926701,44.921467 0 1 1 -216.60215,284.63398"
           sodipodi:start="1.884771"
           sodipodi:end="8.1662395"
           sodipodi:open="true"
           transform="translate(286.80628,53.560209)" />
        <path
           sodipodi:type="arc"
           style="opacity:1;color:#000000;fill:#2b5df2;fill-opacity:1;fill-rule:nonzero;stroke:#000000;stroke-width:13.13373184;stroke-linecap:butt;stroke-linejoin:miter;marker:none;marker-start:none;marker-mid:none;marker-end:none;stroke-miterlimit:4;stroke-dasharray:none;stroke-dashoffset:0;stroke-opacity:1;visibility:visible;display:inline;overflow:visible;enable-background:accumulate"
           id="path3942"
           sodipodi:cx="-195.2356"
           sodipodi:cy="244.47644"
           sodipodi:rx="34.554974"
           sodipodi:ry="18.141361"
           d="M -205.9076,261.73093 A 34.554974,18.141361 0 1 1 -205.85116,261.74053"
           sodipodi:start="1.884771"
           sodipodi:end="8.1662395"
           sodipodi:open="true"
           transform="matrix(1,0,0,1.1904347,286.80628,3.5478844)" />
      </g>
      <g
         id="g3586"
         transform="matrix(0.4859827,0,0,0.3827926,257.21643,361.20183)"
         style="display:inline">
        <path
           id="path1962"
           style="fill:#cccccc;fill-rule:evenodd;stroke:#000000;stroke-width:3;stroke-linecap:butt;stroke-linejoin:miter;stroke-miterlimit:4;stroke-dasharray:none;stroke-opacity:1;display:inline"
           transform="matrix(1,0,0,1.1092408,-317.20367,-1017.7163)"
           d="M 577.43117,890.76877 C 584.48745,904.88136 589.19165,916.6418 582.13538,930.75439 C 575.07911,944.86694 520.98095,975.44417 511.57257,1003.6693 C 502.1642,1031.8944 490.40371,1067.1758 504.5163,1081.2884 C 518.62885,1095.4009 563.31863,1104.8093 570.3749,1118.9219 C 577.43117,1133.0345 551.55814,1173.02 539.79771,1187.1326 C 528.03722,1201.2452 511.57257,1220.062 495.10792,1224.7661 C 478.64327,1229.4703 471.58696,1229.4703 471.58696,1229.4703 C 471.58696,1229.4703 469.23489,1220.062 457.47441,1220.062 C 445.71393,1220.062 429.24928,1224.7661 431.60138,1238.8787 C 433.95349,1252.9913 443.36187,1262.3996 457.47441,1262.3996 C 471.58696,1262.3996 471.58696,1257.6954 480.99534,1257.6954 C 490.40371,1257.6954 499.81209,1262.3996 499.81209,1262.3996 C 499.81209,1262.3996 513.01081,1240.8081 537.4456,1215.3578 C 555.59706,1196.4519 583.47058,1170.9131 600.8085,1154.0486 C 614.44423,1140.7851 636.23354,1130.8744 636.23354,1123.6261 C 636.23354,1107.1614 612.71258,1109.5135 605.65631,1093.0488 C 598.60003,1076.5842 577.43117,1083.6405 596.24793,1046.007 C 615.06468,1008.3735 626.82516,1010.7256 640.93771,991.90882 C 655.05026,973.09207 666.81071,949.57114 666.81071,949.57114" />
        <path
           id="path1880"
           style="fill:#cccccc;fill-rule:evenodd;stroke:#000000;stroke-width:3;stroke-linecap:butt;stroke-linejoin:miter;stroke-opacity:1;display:inline"
           transform="matrix(1,0,0,1.1092408,-317.20367,-1017.7163)"
           d="M 615.35544,950.68259 C 589.45402,952.71407 549.84009,955.25342 530.541,966.42659 C 555.93454,963.37936 575.23363,963.37936 591.4855,963.37936 C 607.73737,963.37936 616.87905,967.44233 622.9735,969.47381 C 629.06795,971.50529 629.06795,970.48955 629.06795,970.48955" />
        <path
           id="path1898"
           style="fill:#cccccc;fill-rule:evenodd;stroke:#000000;stroke-width:3;stroke-linecap:butt;stroke-linejoin:miter;stroke-miterlimit:4;stroke-dasharray:none;stroke-opacity:1;display:inline"
           transform="matrix(1,0,0,1.1092408,-317.20367,-1017.7163)"
           d="M 191.40811,985.88627 C 191.40811,985.88627 197.58695,1022.6887 180.0111,1025.145 C 165.89803,1027.1174 125.74162,998.01022 85.039516,975.39793 C 44.337416,952.78565 26.247566,961.83059 26.247566,961.83059 L 12.680216,975.39793 L -14.454544,979.92041 L -46.111734,1002.5327 L -59.679114,998.01022 L -64.201544,1002.5327 L -73.246454,984.44284 L -64.201544,966.35303 C -64.201544,966.35303 -46.111734,957.30812 -23.499444,948.26321 C -0.88716367,939.2183 3.6353163,921.12845 3.6353163,921.12845 C 3.6353163,921.12845 39.814936,921.12845 85.039516,943.74074 C 85.039516,943.74074 135.15,957.30812 166.80719,957.30812" />
        <path
           id="path1900"
           style="fill:#cccccc;fill-rule:evenodd;stroke:#000000;stroke-width:3;stroke-linecap:butt;stroke-linejoin:miter;stroke-miterlimit:4;stroke-dasharray:none;stroke-opacity:1;display:inline"
           transform="matrix(1,0,0,1.1092408,-317.20367,-1017.7163)"
           d="M 308.60397,771.89735 C 132.13811,563.8014 241.63529,591.67806 183.31036,817.5183 C 149.11936,849.72066 137.33336,918.64187 168.99059,968.38888 C 200.64778,1018.1359 305.44836,1010.1193 332.58312,1010.1193 C 359.71784,1010.1193 388.01648,1005.6313 442.28592,983.01903 C 496.5554,960.40674 554.67608,951.06676 581.81084,951.06676 C 608.94557,951.06676 627.6091,943.78796 627.6091,975.44516 C 627.6091,1007.1024 612.52873,1014.9023 621.57367,1069.1718 C 630.61858,1123.4413 701.20881,1128.5716 735.65511,1111.0648 C 757.72221,1099.8496 756.95731,1093.2789 779.56961,1111.3687 C 779.53731,1131.8498 783.62851,1141.9697 779.49921,1164.3985 C 774.53241,1191.3761 770.36301,1201.3891 764.48281,1215.5016 C 759.25491,1224.3486 767.98071,1222.177 752.33321,1225.2573 C 752.33321,1225.2573 748.13591,1213.1498 725.60721,1215.0927 C 706.32131,1216.7558 709.65671,1225.2738 703.00391,1243.3635 C 709.65661,1258.127 722.70831,1261.0901 722.70831,1261.0902 C 722.70831,1261.0902 738.74041,1252.4759 756.83021,1252.4759 C 774.92001,1252.4759 788.67651,1261.4698 788.67651,1261.4698 C 788.67651,1261.4698 782.75391,1227.9066 799.14501,1164.5949 C 810.09021,1122.3183 821.70321,1108.5864 822.54551,1077.301 C 815.22181,1060.7507 801.23361,1066.4396 779.75191,1059.8376 C 756.54781,1052.7062 762.78991,1052.2744 735.65511,1047.752 C 708.52041,1043.2295 749.22251,979.90927 735.65511,943.72957 C 727.55741,922.13555 717.78871,911.8522 711.27671,907.04362 C 706.36041,904.60798 703.93951,903.02 703.93951,903.02 C 703.93951,903.02 706.87821,903.79572 711.27671,907.04362 C 718.30021,910.52314 730.52401,915.80572 749.14611,921.12629 C 780.80331,930.17124 798.85711,948.21758 839.55921,970.82983 C 878.04451,992.21057 942.92951,997.30789 950.09041,997.81175 C 944.79061,997.38776 931.23031,995.71981 907.48731,988.93612 C 875.83011,979.89121 857.67441,966.31641 835.06221,948.22655 C 812.44991,930.13674 772.91581,914.17825 726.54281,894.02603 C 700.31671,882.62902 659.11444,841.55599 622.93481,841.55599 C 586.75514,841.55599 517.17909,830.34973 449.34219,821.30482 C 381.50533,812.25991 331.21626,799.03207 308.60397,771.89735 z " />
        <path
           id="path1902"
           style="fill:#cccccc;fill-rule:evenodd;stroke:#000000;stroke-width:3;stroke-linecap:butt;stroke-linejoin:miter;stroke-miterlimit:4;stroke-dasharray:none;stroke-opacity:1;display:inline"
           transform="matrix(1,0,0,1.1092408,-317.20367,-1017.7163)"
           d="M 314.78653,897.0727 C 318.94553,917.33292 285.38903,949.64203 295.4246,974.85277 C 302.48088,992.57911 308.99198,1003.2492 308.99198,1003.2492 C 308.99198,1003.2492 304.65125,1063.3132 304.65125,1099.4929 C 304.65125,1135.6725 310.98062,1178.7268 310.98062,1178.7268 C 310.98062,1178.7268 301.93567,1183.0675 281.49379,1219.7924 C 267.40995,1245.0946 256.89287,1264.8352 256.89287,1264.8352 C 222.47019,1258.096 232.2431,1259.9693 197.73934,1264.8352 L 188.69443,1246.7454 C 188.69443,1246.7454 193.21691,1219.6106 211.30672,1219.6106 C 229.39653,1219.6106 233.91901,1228.6555 233.91901,1228.6555 C 251.097,1234.882 226.15219,1234.9524 243.32549,1228.6555 C 243.32549,1228.6555 247.84793,1233.178 256.89287,1206.0432 C 265.93778,1178.9085 268.28988,1172.9426 268.28988,1172.9426 C 262.71903,1143.5207 265.17808,1125.4925 259.60841,1095.5156 C 239.93758,989.64446 239.34822,1021.1573 221.44014,1001.8058 C 198.08005,982.01591 180.10593,957.5181 174.14264,940.01739 C 158.93025,895.37301 168.95692,863.49882 212.94044,831.74892" />
        <g
           id="g3449"
           style="display:inline"
           transform="translate(1061.0319,-640.48126)">
          <g
             id="g2188">
            <g
               id="g3478"
               transform="matrix(1.2750653,0,0,1.1720989,-1513.2038,38.923307)">
              <path
                 id="path15987"
                 style="fill:#e6e6e6;fill-rule:evenodd;stroke:#000000;stroke-width:2.99999571;stroke-linecap:butt;stroke-linejoin:miter;stroke-miterlimit:4;stroke-dasharray:none;stroke-opacity:1;display:inline"
                 d="M 263.88175,261.13882 C 255.43912,238.19369 243.49803,245.44067 224.16543,243.4931 C 206.83429,241.74715 198.02706,247.29681 175.79562,246.13337 C 153.40679,244.9617 161.01208,243.04717 145.02798,239.65965 C 137.18398,231.51154 134.9269,230.5896 132.8762,220.96534 C 137.89738,215.40608 139.4266,216.34041 153.38107,210.38366 C 169.79835,203.3756 180.10487,199.826 197.47174,193.29611 C 215.43589,186.54165 230.97324,178.17485 245.66852,171.32939 C 262.17288,163.64123 280.86391,152.79977 301.78506,163.93582 C 322.70628,175.07191 330.50603,182.74477 333.60357,197.59785 C 336.7011,212.45098 326.18451,236.34278 329.28211,251.19592 C 333.54833,310.77154 331.48717,324.98732 313.28403,342.15641 C 301.24486,353.51168 252.13046,338.84827 256.16429,327.18126 C 277.83972,264.48959 242.93291,320.28918 263.88175,261.13882 z " />
              <path
                 id="path15995"
                 style="fill:#ff0000;fill-rule:evenodd;stroke:#000000;stroke-width:2.99999571;stroke-linecap:butt;stroke-linejoin:miter;stroke-miterlimit:4;stroke-dasharray:none;stroke-opacity:1;display:inline"
                 d="M 298.97143,328.81268 C 327.48357,330.76893 343.47532,330.22 341.30646,338.58284 C 338.94393,347.69251 326.48615,346.18635 295.81797,343.41947 C 270.98896,341.17937 247.16915,337.15371 251.3146,323.25217 C 255.23627,310.10086 268.52705,326.72388 298.97143,328.81268 z " />
              <path
                 id="path16959"
                 style="fill:#cccccc;fill-rule:evenodd;stroke:#000000;stroke-width:2.99999523;stroke-linecap:butt;stroke-linejoin:miter;stroke-miterlimit:4;stroke-dasharray:none;stroke-opacity:1;display:inline"
                 d="M 294.27596,145.57242 C 305.32395,145.47344 304.88499,163.4258 305.40749,176.54149 C 305.93005,189.65717 303.53161,209.99403 313.33946,214.5618 C 323.14744,219.12949 344.0991,195.51462 341.89574,184.95341 C 339.69238,174.39221 334.94437,153.81781 334.94437,153.81781 L 308.58095,146.4498 L 294.27596,145.57242 z " />
              <path
                 id="path16961"
                 style="fill:#000000;fill-opacity:1;fill-rule:nonzero;stroke:#000000;stroke-width:0.69971746;stroke-miterlimit:4;stroke-dasharray:none;stroke-opacity:1;display:inline"
                 transform="matrix(4.209504,-0.872717,0.877866,4.184816,-807.1943,-113.2755)"
                 d="M 224.11627,119.58957 C 224.11627,120.02824 223.79188,120.38386 223.39174,120.38386 C 222.99159,120.38386 222.6672,120.02824 222.6672,119.58957 C 222.6672,119.1509 222.99159,118.79528 223.39174,118.79528 C 223.79188,118.79528 224.11627,119.1509 224.11627,119.58957 L 224.11627,119.58957 z " />
              <path
                 id="path16963"
                 style="fill:#000000;fill-rule:evenodd;stroke:#000000;stroke-width:2.99999571;stroke-linecap:butt;stroke-linejoin:miter;stroke-miterlimit:4;stroke-dasharray:none;stroke-opacity:1;display:inline"
                 d="M 140.05168,234.34138 C 150.7015,232.32523 150.16095,225.58167 149.83176,218.80426 C 149.60806,214.19875 145.64238,213.80639 145.64238,213.80639 L 133.42986,220.34102 C 133.42986,220.34102 134.97065,229.85883 140.05168,234.34138 z " />
              <path
                 id="path16965"
                 style="fill:none;fill-rule:evenodd;stroke:#000000;stroke-width:2.99999571;stroke-linecap:butt;stroke-linejoin:miter;stroke-miterlimit:4;stroke-dasharray:none;stroke-opacity:1;display:inline"
                 d="M 144.03281,238.64774 C 162.40717,244.27843 185.36907,244.62098 197.21066,241.95435 C 222.93354,236.16178 256.05515,238.7492 261.4472,241.6353" />
              <path
                 id="path16967"
                 style="fill:none;fill-rule:evenodd;stroke:#000000;stroke-width:2.99999571;stroke-linecap:butt;stroke-linejoin:miter;stroke-miterlimit:4;stroke-dasharray:none;stroke-opacity:1;display:inline"
                 d="M 233.21011,197.39252 C 231.65216,193.28564 232.20662,188.59401 234.82969,186.80196 C 237.89351,186.16302 241.49598,187.90422 246.23786,189.44245 C 250.69123,190.88708 256.28008,192.08743 259.45752,192.92605 C 266.01825,194.65768 253.3899,197.40053 245.80562,197.57682 C 238.93209,197.743 237.77489,198.1526 233.21011,197.39252 z " />
              <path
                 id="path17975"
                 style="fill:#cccccc;fill-rule:evenodd;stroke:#000000;stroke-width:2.99999571;stroke-linecap:butt;stroke-linejoin:miter;stroke-opacity:1;display:inline"
                 d="M 279.27285,140.55548 C 274.53742,140.59367 270.25715,140.90076 270.25715,140.90077 C 270.25709,140.90077 271.82844,142.4589 274.95679,143.24101 C 277.96268,143.99249 278.079,158.85602 278.08354,160.04475 C 281.31446,159.58786 284.5797,159.43061 287.9049,159.73783 C 289.74708,153.66295 292.54722,145.60044 294.50363,145.60044 L 294.27344,145.58126 C 294.71725,145.57728 295.13177,145.60517 295.53948,145.65799 L 307.66272,146.38692 L 307.02967,144.02749 C 307.02967,144.02749 293.7205,141.68287 287.46368,140.90077 C 285.11736,140.60748 282.11405,140.53257 279.27285,140.55548 z M 295.53948,145.65799 L 294.50363,145.60044 L 300.75707,148.72716 C 299.45918,147.04059 297.75788,145.94547 295.53948,145.65799 z M 304.65106,161.79034 C 304.74326,162.69039 304.81544,163.61097 304.88125,164.53341 C 304.81526,163.60948 304.74375,162.69098 304.65106,161.79034 z " />
              <path
                 id="path17990"
                 style="fill:#808080;fill-rule:evenodd;stroke:#000000;stroke-width:2.99999571;stroke-linecap:butt;stroke-linejoin:miter;stroke-opacity:1;display:inline"
                 d="M 267.9169,140.90077 C 264.00634,142.46497 262.4499,163.5743 262.4499,163.5743 L 262.73767,164.01549 C 267.74982,162.33288 272.85158,160.78459 278.08354,160.04475 C 278.079,158.85602 277.96268,143.99249 274.95679,143.24101 C 272.24726,142.56361 270.77473,141.36016 270.41061,141.03504 L 267.9169,140.90077 z M 304.65106,161.79034 C 304.74375,162.69098 304.81526,163.60948 304.88125,164.53341 C 304.81544,163.61097 304.74326,162.69039 304.65106,161.79034 z " />
              <path
                 id="path18053"
                 style="fill:none;fill-rule:evenodd;stroke:#000000;stroke-width:2.99999571;stroke-linecap:butt;stroke-linejoin:miter;stroke-opacity:1;display:inline"
                 d="M 237.81032,244.36973 C 256.58087,245.93394 254.62084,248.8333 263.22401,246.48698 C 271.82715,244.14066 281.99459,234.75538 281.99459,234.75538" />
              <path
                 id="path22592"
                 style="fill:#999999;fill-rule:evenodd;stroke:#000000;stroke-width:2.99999571;stroke-linecap:butt;stroke-linejoin:miter;stroke-opacity:1;display:inline"
                 d="M 294.50363,145.60044 C 291.3751,145.60044 285.90994,166.7202 285.90994,166.7202 L 305.22653,171.55415 C 304.93355,162.91595 304.43075,153.50104 300.75707,148.72716 L 294.50363,145.60044 z " />
              <path
                 id="path18055"
                 style="opacity:0.14960632;fill:url(#radialGradient3608);fill-opacity:1;fill-rule:evenodd;stroke:#000000;stroke-width:3;stroke-linecap:butt;stroke-linejoin:miter;stroke-miterlimit:4;stroke-dasharray:none;stroke-opacity:1;display:inline"
                 d="M 282.82155,159.16236 C 269.39361,159.26254 257.01206,166.03835 245.66535,171.32396 C 230.97008,178.16942 215.44346,186.53327 197.47931,193.28775 C 180.11244,199.81764 169.79637,203.37117 153.3791,210.37922 C 139.42463,216.33597 137.89435,215.40861 132.87317,220.96787 C 134.92387,230.59213 137.1908,231.50337 145.03478,239.65147 C 161.01888,243.03899 153.41444,244.96342 175.80326,246.1351 C 198.0347,247.29854 206.83081,241.742 224.16195,243.48794 C 243.49454,245.43551 257.69029,242.67924 266.13291,265.62437 C 272.64613,283.32588 269.76866,300.50033 263.58169,319.75694 C 271.24241,322.4001 282.64004,327.69039 298.97309,328.81101 C 316.08343,329.98497 328.68012,330.25605 335.55384,332.09119 C 336.71387,327.83241 337.45956,323.99081 337.58717,320.75442 C 338.57232,295.75049 332.37872,266.05233 329.28119,251.19924 C 326.5433,238.0709 334.42119,217.87743 334.1535,203.10911 C 327.70259,210.91352 318.79885,217.10289 313.34069,214.56097 C 303.53278,209.99319 305.92164,189.65724 305.3992,176.54156 C 305.26238,173.10838 305.18681,169.3494 304.95798,165.66517 C 303.92882,165.09698 302.89334,164.52457 301.79292,163.93876 C 295.25503,160.45875 288.92516,159.11682 282.82155,159.16236 z " />
            </g>
          </g>
        </g>
      </g>
    </g>
  </g>
  <g
     inkscape:groupmode="layer"
     id="layer2"
     inkscape:label="Reflet final"
     sodipodi:insensitive="true">
    <path
       sodipodi:nodetypes="cccccc"
       d="M 300.00001,658.5 C 300.00001,658.5 598.50001,546.17969 598.50001,260.72817 C 598.50001,-24.723334 598.50001,2.1764865 598.50001,2.1764865 L 1.5,2.1764865 L 1.5,260.72817 C 1.5,546.17969 300.00001,658.5 300.00001,658.5 z "
       style="opacity:1;fill:url(#radialGradient3163);fill-opacity:1;fill-rule:evenodd;stroke:none;stroke-width:1px;stroke-linecap:butt;stroke-linejoin:miter;stroke-opacity:1"
       id="path2875"
       inkscape:export-xdpi="144"
       inkscape:export-ydpi="144" />
  </g>
  <g
     inkscape:groupmode="layer"
     id="layer1"
     inkscape:label="Contour final"
     sodipodi:insensitive="true">
    <path
       sodipodi:nodetypes="cccccc"
       d="M 299.99999,658.50028 C 299.99999,658.50028 1.5,546.17992 1.5,260.72828 C 1.5,-24.723336 1.5,2.1764957 1.5,2.1764957 L 598.49999,2.1764957 L 598.49999,260.72828 C 598.49999,546.17992 299.99999,658.50028 299.99999,658.50028 z "
       style="opacity:1;fill:none;fill-opacity:1;fill-rule:evenodd;stroke:#000000;stroke-width:3.00000048;stroke-linecap:butt;stroke-linejoin:miter;stroke-miterlimit:4;stroke-dasharray:none;stroke-opacity:1"
       id="path1411"
       inkscape:export-xdpi="144"
       inkscape:export-ydpi="144" />
  </g>
</svg>
