<?xml version="1.0" encoding="UTF-8" standalone="no"?>
<svg
   xmlns:dc="http://purl.org/dc/elements/1.1/"
   xmlns:cc="http://creativecommons.org/ns#"
   xmlns:rdf="http://www.w3.org/1999/02/22-rdf-syntax-ns#"
   xmlns:svg="http://www.w3.org/2000/svg"
   xmlns="http://www.w3.org/2000/svg"
   xmlns:xlink="http://www.w3.org/1999/xlink"
   xmlns:sodipodi="http://sodipodi.sourceforge.net/DTD/sodipodi-0.dtd"
   xmlns:inkscape="http://www.inkscape.org/namespaces/inkscape"
   height="660"
   width="600"
   version="1.0"
   id="svg2"
   sodipodi:version="0.32"
   inkscape:version="0.48.1 r9760"
   sodipodi:docname="Blason_Vide_Moderne_3D[1].svg"
   inkscape:output_extension="org.inkscape.output.svg.inkscape"
   sodipodi:modified="true">
  <metadata
     id="metadata49">
    <rdf:RDF>
      <cc:Work
         rdf:about="">
        <dc:format>image/svg+xml</dc:format>
        <dc:type
           rdf:resource="http://purl.org/dc/dcmitype/StillImage" />
        <dc:title></dc:title>
        <dc:date />
        <dc:creator>
          <cc:Agent>
            <dc:title>Chatsam</dc:title>
          </cc:Agent>
        </dc:creator>
        <cc:license
           rdf:resource="" />
        <dc:language>fr</dc:language>
        <dc:subject>
          <rdf:Bag />
        </dc:subject>
      </cc:Work>
    </rdf:RDF>
  </metadata>
  <sodipodi:namedview
     inkscape:window-height="650"
     inkscape:window-width="1103"
     inkscape:pageshadow="2"
     inkscape:pageopacity="0.0"
     guidetolerance="10.0"
     gridtolerance="10.0"
     objecttolerance="10.0"
     borderopacity="1.0"
     bordercolor="#666666"
     pagecolor="#ffffff"
     id="base"
     showgrid="false"
     height="660px"
     inkscape:zoom="0.65454514"
     inkscape:cx="300.00006"
     inkscape:cy="330.00016"
     inkscape:window-x="0"
     inkscape:window-y="0"
     inkscape:current-layer="layer1"
     inkscape:window-maximized="0"
     showguides="true"
     inkscape:guide-bbox="true">
    <sodipodi:guide
       orientation="1,0"
       position="300,595.83362"
       id="guide6439" />
  </sodipodi:namedview>
  <desc
     id="desc4">Flag of Canton of Valais (Wallis)</desc>
  <defs
     id="defs6">
    <inkscape:perspective
       sodipodi:type="inkscape:persp3d"
       inkscape:vp_x="0 : 330 : 1"
       inkscape:vp_y="0 : 1000 : 0"
       inkscape:vp_z="600 : 330 : 1"
       inkscape:persp3d-origin="300 : 220 : 1"
       id="perspective30" />
    <linearGradient
       id="linearGradient2893">
      <stop
         style="stop-color:white;stop-opacity:0.3137255;"
         offset="0"
         id="stop2895" />
      <stop
         id="stop2897"
         offset="0.19"
         style="stop-color:white;stop-opacity:0.25098041;" />
      <stop
         style="stop-color:#6b6b6b;stop-opacity:0.1254902;"
         offset="0.60000002"
         id="stop2901" />
      <stop
         style="stop-color:black;stop-opacity:0.1254902;"
         offset="1"
         id="stop2899" />
    </linearGradient>
    <radialGradient
       inkscape:collect="always"
       xlink:href="#linearGradient2893"
       id="radialGradient2883"
       cx="203.19754"
       cy="218.01039"
       fx="203.19754"
       fy="218.01039"
       r="300"
       gradientTransform="matrix(1.360018,0,0,1.355087,-79.5275,-87.64524)"
       gradientUnits="userSpaceOnUse" />
    <linearGradient
       id="linearGradient2955">
      <stop
         style="stop-color:white;stop-opacity:0;"
         offset="0"
         id="stop2965" />
      <stop
         style="stop-color:black;stop-opacity:0.64583331;"
         offset="1"
         id="stop2959" />
    </linearGradient>
    <radialGradient
       inkscape:collect="always"
       xlink:href="#linearGradient2955"
       id="radialGradient2961"
       cx="225.52438"
       cy="218.90099"
       fx="225.52438"
       fy="218.90099"
       r="300"
       gradientTransform="matrix(-4.167939e-4,2.182867,-1.884232,-3.599562e-4,615.5972,-289.1214)"
       gradientUnits="userSpaceOnUse" />
    <polygon
       id="star"
       transform="scale(53,53)"
       points="0,-1 0.58778525,0.80901699 -0.95105652,-0.30901699 0.95105652,-0.30901699 -0.58778525,0.80901699 0,-1 " />
    <clipPath
       id="clip">
      <path
         d="M 0,-200 L 0,600 L 300,600 L 300,-200 L 0,-200 z "
         id="path10" />
    </clipPath>
    <radialGradient
       inkscape:collect="always"
       xlink:href="#linearGradient2955"
       id="radialGradient1911"
       gradientUnits="userSpaceOnUse"
       gradientTransform="matrix(-4.167939e-4,2.182867,-1.884232,-3.599562e-4,1395.597,-309.1214)"
       cx="225.52438"
       cy="218.90099"
       fx="225.52438"
       fy="218.90099"
       r="300" />
    <radialGradient
       inkscape:collect="always"
       xlink:href="#linearGradient2955"
       id="radialGradient2928"
       cx="-483.50824"
       cy="153.9283"
       fx="-483.50824"
       fy="153.9283"
       r="300.00003"
       gradientTransform="matrix(0,2.342476,-2.291353,0,562.9126,1323.77)"
       gradientUnits="userSpaceOnUse" />
    <radialGradient
       inkscape:collect="always"
       xlink:href="#linearGradient2893"
       id="radialGradient11919"
       gradientUnits="userSpaceOnUse"
       gradientTransform="matrix(1.551284,0,0,1.350335,-227.8943,-51.2635)"
       cx="285.18573"
       cy="200.44757"
       fx="285.18573"
       fy="200.44757"
       r="300" />
    <inkscape:perspective
       id="perspective2649"
       inkscape:persp3d-origin="372.04724 : 350.78739 : 1"
       inkscape:vp_z="744.09448 : 526.18109 : 1"
       inkscape:vp_y="0 : 1000 : 0"
       inkscape:vp_x="0 : 526.18109 : 1"
       sodipodi:type="inkscape:persp3d" />
  </defs>
  <g
     inkscape:groupmode="layer"
     id="layer1"
     inkscape:label="Fond écu">
    <path
       id="path2014"
       style="fill:#2b5df2;fill-opacity:1;fill-rule:nonzero;stroke:none;stroke-width:5;stroke-linecap:round;stroke-linejoin:round;stroke-miterlimit:4;stroke-dashoffset:0;stroke-opacity:1"
       d="M 299.99993,658.49936 C 299.99993,619.9953 331.2031,588.7457 369.64989,588.7457 C 408.09669,588.7457 490.40303,588.7457 528.84981,588.7457 C 567.29661,588.7457 598.49989,557.49612 598.49989,518.99215 L 598.49989,1.4996597 L 1.5000104,1.4996796 L 1.5000005,518.99215 C 1.5000005,557.49612 32.703199,588.7457 71.149994,588.7457 C 109.5968,588.7457 191.90315,588.7457 230.34995,588.7457 C 268.79674,588.7457 299.99993,619.9953 299.99993,658.49936 z "
       sodipodi:nodetypes="cssccccssc" />
    <path
       sodipodi:type="star"
       style="fill:#fcef3c;fill-opacity:1;stroke:#000000;stroke-width:2.04801839;stroke-miterlimit:4;stroke-opacity:1;stroke-dasharray:none"
       id="path6437"
       sodipodi:sides="8"
       sodipodi:cx="242.39999"
       sodipodi:cy="237.60001"
       sodipodi:r1="106.06941"
       sodipodi:r2="38.387276"
       sodipodi:arg1="0.79339799"
       sodipodi:arg2="1.1860971"
       inkscape:flatsided="false"
       inkscape:rounded="0"
       inkscape:randomized="0"
       d="m 316.79999,313.20001 -59.99401,-40.0184 -15.25451,70.48441 -14.12489,-70.71945 -60.62659,39.05344 40.0184,-59.99401 -70.48441,-15.25452 70.71945,-14.12489 -39.05344,-60.62658 59.99401,40.01839 15.25452,-70.48441 14.12489,70.71945 60.62658,-39.05343 -40.01839,59.99401 70.48441,15.25451 -70.71945,14.12489 z"
       transform="matrix(1.4648306,0,0,1.4648306,-56.317878,-48.915917)" />
    <g
       id="layer1-8"
       inkscape:label="Calque 1"
       transform="translate(-173.0555,-332.85848)"
       style="fill:#fcef3c;stroke:#000000;stroke-opacity:1;stroke-width:3;stroke-miterlimit:4;stroke-dasharray:none">
      <path
         id="path3164"
         d="m 280,356.71933 c -43.332,0 -78.50001,35.16799 -78.50001,78.49999 0,43.332 35.168,78.5 78.50001,78.5 43.332,0 78.50001,-35.16801 78.5,-78.5 0,-43.33199 -35.168,-78.49999 -78.5,-78.49999 z m 0,28.26697 c 27.73248,0 50.23303,22.50054 50.23303,50.23302 1e-5,27.73248 -22.50055,50.23303 -50.23303,50.23303 -27.73249,0 -50.23303,-22.50055 -50.23303,-50.23303 0,-27.73249 22.50055,-50.23302 50.23303,-50.23302 z"
         style="fill:#fcef3c;fill-opacity:1;stroke:#000000;stroke-width:3;stroke-miterlimit:4;stroke-opacity:1;stroke-dasharray:none;display:inline"
         inkscape:connector-curvature="0" />
    </g>
    <use
       x="0"
       y="0"
       xlink:href="#layer1-8"
       id="use6662"
       transform="translate(382.19951,1.6e-4)"
       width="600"
       height="660" />
    <use
       x="0"
       y="0"
       xlink:href="#layer1-8"
       id="use6664"
       transform="translate(0,378.2)"
       width="600"
       height="660" />
    <use
       x="0"
       y="0"
       xlink:href="#use6662"
       id="use6666"
       transform="translate(0,378.2)"
       width="600"
       height="660" />
  </g>
  <g
     inkscape:groupmode="layer"
     id="layer2"
     inkscape:label="Meubles"
     sodipodi:insensitive="true" />
  <g
     inkscape:groupmode="layer"
     id="layer3"
     inkscape:label="Reflet final"
     sodipodi:insensitive="true">
    <path
       id="path2875"
       style="fill:url(#radialGradient11919);fill-opacity:1;fill-rule:evenodd;stroke:none;stroke-width:3.00000024;stroke-linecap:butt;stroke-linejoin:miter;stroke-miterlimit:4;stroke-dasharray:none;stroke-opacity:1"
       d="M 1.5,1.49974 L 1.5,518.99107 C 1.5,557.49556 32.7031,588.7456 71.15,588.7456 C 109.5968,588.7456 191.9032,588.7456 230.35,588.7456 C 268.79691,588.7455 300.00003,619.99554 300.00003,658.5 C 300.00003,619.99554 331.20317,588.7456 369.64997,588.7456 C 408.09687,588.7455 490.40327,588.7456 528.85007,588.7456 C 567.29687,588.7456 598.50007,557.49556 598.50007,518.99107 L 598.50007,1.49974 L 1.5,1.49974 z " />
  </g>
  <g
     inkscape:groupmode="layer"
     id="layer4"
     inkscape:label="Contour final"
     sodipodi:insensitive="true">
    <path
       id="path1572"
       style="fill:none;fill-opacity:1;fill-rule:nonzero;stroke:black;stroke-width:3.00000191;stroke-linecap:round;stroke-linejoin:round;stroke-miterlimit:4;stroke-dasharray:none;stroke-dashoffset:0;stroke-opacity:1"
       d="M 300.00003,658.5 C 300.00003,619.9959 331.20322,588.74628 369.65003,588.74628 C 408.09684,588.74628 490.40321,588.74628 528.85001,588.74628 C 567.29681,588.74628 598.50011,557.49666 598.50011,518.99266 L 598.50011,1.4996809 L 1.5000099,1.4997008 L 1.5,518.99266 C 1.5,557.49666 32.70321,588.74628 71.150019,588.74628 C 109.59684,588.74628 191.90322,588.74628 230.35003,588.74628 C 268.79684,588.74628 300.00003,619.9959 300.00003,658.5 z "
       sodipodi:nodetypes="cssccccssc" />
  </g>
</svg>
