<?xml version="1.0" encoding="UTF-8" standalone="no"?>
<svg
   xmlns:dc="http://purl.org/dc/elements/1.1/"
   xmlns:cc="http://creativecommons.org/ns#"
   xmlns:rdf="http://www.w3.org/1999/02/22-rdf-syntax-ns#"
   xmlns:svg="http://www.w3.org/2000/svg"
   xmlns="http://www.w3.org/2000/svg"
   xmlns:xlink="http://www.w3.org/1999/xlink"
   xmlns:sodipodi="http://sodipodi.sourceforge.net/DTD/sodipodi-0.dtd"
   xmlns:inkscape="http://www.inkscape.org/namespaces/inkscape"
   height="660"
   width="600"
   version="1.0"
   id="svg2"
   sodipodi:version="0.32"
   inkscape:version="0.47pre1"
   sodipodi:docname="Blason_ville_fr_Champigneulle_(Ardennes).svg"
   inkscape:export-filename="/Users/olivier/Desktop/Blason Rouge/Blason_Vide_3D.png"
   inkscape:export-xdpi="144"
   inkscape:export-ydpi="144"
   inkscape:output_extension="org.inkscape.output.svg.inkscape">
  <metadata
     id="metadata49">
    <rdf:RDF>
      <cc:Work
         rdf:about="">
        <dc:format>image/svg+xml</dc:format>
        <dc:type
           rdf:resource="http://purl.org/dc/dcmitype/StillImage" />
        <dc:title />
        <dc:date>03-AUG-2006</dc:date>
        <dc:creator>
          <cc:Agent>
            <dc:title>Jérôme BLUM (wagner51)</dc:title>
          </cc:Agent>
        </dc:creator>
        <cc:license
           rdf:resource="http://web.resource.org/cc/PublicDomain" />
        <dc:language>fr</dc:language>
        <dc:subject>
          <rdf:Bag>
            <rdf:li>gabarit modèle blason projet wikipédia</rdf:li>
          </rdf:Bag>
        </dc:subject>
      </cc:Work>
      <cc:License
         rdf:about="http://web.resource.org/cc/PublicDomain">
        <cc:permits
           rdf:resource="http://web.resource.org/cc/Reproduction" />
        <cc:permits
           rdf:resource="http://web.resource.org/cc/Distribution" />
        <cc:permits
           rdf:resource="http://web.resource.org/cc/DerivativeWorks" />
      </cc:License>
    </rdf:RDF>
  </metadata>
  <sodipodi:namedview
     inkscape:window-height="706"
     inkscape:window-width="1366"
     inkscape:pageshadow="2"
     inkscape:pageopacity="0.0"
     guidetolerance="10.0"
     gridtolerance="10.0"
     objecttolerance="10.0"
     borderopacity="1.0"
     bordercolor="#666666"
     pagecolor="#ffffff"
     id="base"
     showgrid="false"
     height="660px"
     inkscape:zoom="1.499156"
     inkscape:cx="102.68372"
     inkscape:cy="506.34102"
     inkscape:window-x="-8"
     inkscape:window-y="-8"
     inkscape:current-layer="layer4"
     inkscape:object-paths="true"
     inkscape:object-nodes="true"
     inkscape:window-maximized="1"
     inkscape:snap-global="true"
     inkscape:snap-nodes="true"
     inkscape:snap-bbox="true" />
  <desc
     id="desc4">Flag of Canton of Valais (Wallis)</desc>
  <defs
     id="defs6">
    <inkscape:path-effect
       is_visible="true"
       id="path-effect3962"
       effect="spiro" />
    <inkscape:path-effect
       effect="spiro"
       id="path-effect3948"
       is_visible="true" />
    <inkscape:path-effect
       is_visible="true"
       id="path-effect3936"
       effect="spiro" />
    <inkscape:path-effect
       is_visible="true"
       id="path-effect3932"
       effect="spiro" />
    <inkscape:path-effect
       is_visible="true"
       id="path-effect3920"
       effect="spiro" />
    <inkscape:path-effect
       effect="spiro"
       id="path-effect3907"
       is_visible="true" />
    <inkscape:path-effect
       is_visible="true"
       id="path-effect3903"
       effect="spiro" />
    <inkscape:path-effect
       is_visible="true"
       id="path-effect3899"
       effect="spiro" />
    <inkscape:path-effect
       effect="spiro"
       id="path-effect3883"
       is_visible="true" />
    <inkscape:path-effect
       effect="spiro"
       id="path-effect3879"
       is_visible="true" />
    <inkscape:path-effect
       effect="spiro"
       id="path-effect3870"
       is_visible="true" />
    <inkscape:path-effect
       is_visible="true"
       id="path-effect3866"
       effect="spiro" />
    <inkscape:path-effect
       effect="spiro"
       id="path-effect3862"
       is_visible="true" />
    <inkscape:path-effect
       effect="spiro"
       id="path-effect3838"
       is_visible="true" />
    <inkscape:path-effect
       effect="spiro"
       id="path-effect3830"
       is_visible="true" />
    <inkscape:path-effect
       effect="spiro"
       id="path-effect3826"
       is_visible="true" />
    <inkscape:path-effect
       effect="spiro"
       id="path-effect3822"
       is_visible="true" />
    <inkscape:path-effect
       effect="spiro"
       id="path-effect3818"
       is_visible="true" />
    <inkscape:path-effect
       effect="spiro"
       id="path-effect3810"
       is_visible="true" />
    <inkscape:path-effect
       effect="spiro"
       id="path-effect3784"
       is_visible="true" />
    <inkscape:path-effect
       effect="spiro"
       id="path-effect3775"
       is_visible="true" />
    <inkscape:path-effect
       is_visible="true"
       id="path-effect3896"
       effect="spiro" />
    <inkscape:path-effect
       effect="spiro"
       id="path-effect3892"
       is_visible="true" />
    <inkscape:path-effect
       is_visible="true"
       id="path-effect3884"
       effect="spiro" />
    <inkscape:path-effect
       is_visible="true"
       id="path-effect3871"
       effect="spiro" />
    <inkscape:path-effect
       is_visible="true"
       id="path-effect3863"
       effect="spiro" />
    <inkscape:path-effect
       effect="spiro"
       id="path-effect3855"
       is_visible="true" />
    <linearGradient
       id="linearGradient2893">
      <stop
         style="stop-color:white;stop-opacity:0.3137255;"
         offset="0"
         id="stop2895" />
      <stop
         id="stop2897"
         offset="0.19"
         style="stop-color:white;stop-opacity:0.25098041;" />
      <stop
         style="stop-color:#6b6b6b;stop-opacity:0.1254902;"
         offset="0.60000002"
         id="stop2901" />
      <stop
         style="stop-color:black;stop-opacity:0.1254902;"
         offset="1"
         id="stop2899" />
    </linearGradient>
    <radialGradient
       inkscape:collect="always"
       xlink:href="#linearGradient2893"
       id="radialGradient3163"
       gradientUnits="userSpaceOnUse"
       gradientTransform="matrix(1.353218,0,0,1.348928,-77.62935,-85.74693)"
       cx="221.44487"
       cy="226.33101"
       fx="221.44487"
       fy="226.33101"
       r="300" />
  </defs>
  <g
     inkscape:groupmode="layer"
     id="layer3"
     inkscape:label="Fond écu"
     style="display:inline">
    <path
       style="fill:#5ab532;fill-opacity:1;fill-rule:evenodd;stroke:none;stroke-width:1px;stroke-linecap:butt;stroke-linejoin:miter;stroke-opacity:1"
       d="M 300 2.1875 L 300 288 L 597.5625 288 C 598.17292 279.08414 598.5 269.99846 598.5 260.71875 C 598.50001 -24.732784 598.5 2.1875 598.5 2.1875 L 300 2.1875 z "
       id="path2855" />
    <path
       style="opacity:1;fill:#5ab532;fill-opacity:1;stroke:none;stroke-width:2.5;stroke-miterlimit:4;stroke-dasharray:none;stroke-opacity:1"
       d="M 2.4375 288 C 20.603959 553.34332 300 658.5 300 658.5 L 300 288 L 2.4375 288 z "
       id="rect13347" />
    <path
       id="path13355"
       d="M 597.5625,288 C 579.39604,553.34332 300,658.5 300,658.5 L 300,288 L 597.5625,288 z"
       style="opacity:1;fill:#2b5df2;fill-opacity:1;stroke:none;stroke-width:2.50000000000000000;stroke-miterlimit:4;stroke-dasharray:none;stroke-opacity:1" />
    <path
       id="path13364"
       d="M 300,2.1875 L 300,288 L 2.4375,288 C 1.82708,279.08414 1.5,269.99846 1.5,260.71875 C 1.49999,-24.732784 1.5,2.1875 1.5,2.1875 L 300,2.1875 z"
       style="fill:#2b5df2;fill-opacity:1;fill-rule:evenodd;stroke:none;stroke-width:1px;stroke-linecap:butt;stroke-linejoin:miter;stroke-opacity:1" />
    <rect
       y="2.438"
       x="-289.5"
       height="595.12598"
       width="3"
       id="rect13645"
       style="opacity:1;fill:#000000;fill-opacity:1;stroke:none;stroke-width:2.5;stroke-miterlimit:4;stroke-dasharray:none;stroke-opacity:1"
       transform="matrix(0,-1,1,0,0,0)" />
    <path
       id="path3995"
       d="M 300,159.72492 300,288 l 297.5625,0 c 0.6104,-3.75196 0.9375,-23.37593 0.9375,-27.281 0,-120.12318 0,-105.994 0,-105.994 -59.99554,-2.88682 -128.54481,1.81984 -194.89539,2.73274 -33.9131,-2.50607 -67.9714,1.84026 -103.60461,2.26718 z"
       style="fill:#fcef3c;fill-opacity:1;fill-rule:evenodd;stroke:#000000;stroke-width:2;stroke-miterlimit:4;stroke-opacity:1;stroke-dasharray:none"
       sodipodi:nodetypes="cccsccc" />
    <rect
       style="opacity:1;fill:#000000;fill-opacity:1;stroke:none;stroke-width:2.5;stroke-miterlimit:4;stroke-dasharray:none;stroke-opacity:1"
       id="rect13643"
       width="3"
       height="657"
       x="298.5"
       y="1.5" />
    <path
       style="fill:#ffffff;stroke:#000000;stroke-width:2.5;stroke-linecap:butt;stroke-linejoin:miter;stroke-miterlimit:4;stroke-opacity:1;stroke-dasharray:none"
       d="M 404.125 158.5625 C 369.32386 171.50546 334.21221 192.7939 300 211.25 L 300 233.625 C 333.8044 209.56968 347.63884 192.76662 409.21875 158.71875 L 404.125 158.5625 z "
       id="path2922" />
    <path
       style="fill:none;stroke:#000000;stroke-width:2.5;stroke-linecap:butt;stroke-linejoin:miter;stroke-miterlimit:4;stroke-opacity:1"
       d="M 321.95247,243.65795 C 361.59862,208.8673 378.021,186.54444 420.00769,164.62673"
       id="path2927"
       sodipodi:nodetypes="cc" />
    <path
       style="fill:none;stroke:#000000;stroke-width:2.5;stroke-linecap:butt;stroke-linejoin:miter;stroke-miterlimit:4;stroke-opacity:1"
       d="m 334.12576,267.96795 c 43.05373,-42.41353 54.94202,-67.61392 105.01693,-100.66587"
       id="path2931"
       sodipodi:nodetypes="cc" />
    <path
       style="fill:none;stroke:#000000;stroke-width:2.5;stroke-linecap:butt;stroke-linejoin:miter;stroke-miterlimit:4;stroke-opacity:1"
       d="m 369.23969,268.65268 c 35.87469,-41.95178 65.93475,-74.9511 97.99909,-104.20171"
       id="path2935"
       sodipodi:nodetypes="cc" />
    <path
       style="fill:none;stroke:#000000;stroke-width:2.5;stroke-linecap:butt;stroke-linejoin:miter;stroke-miterlimit:4;stroke-opacity:1"
       d="m 410.94429,269.90247 c 23.61057,-41.76388 47.14251,-70.55621 78.59553,-105.78471"
       id="path2939"
       sodipodi:nodetypes="cc" />
    <path
       style="fill:none;stroke:#000000;stroke-width:2.5;stroke-linecap:butt;stroke-linejoin:miter;stroke-miterlimit:4;stroke-opacity:1"
       d="m 448.01098,268.63436 c 15.3616,-42.2764 37.16327,-66.46347 62.13587,-103.75745"
       id="path2943"
       sodipodi:nodetypes="cc" />
    <path
       style="fill:none;stroke:#000000;stroke-width:2.5;stroke-linecap:butt;stroke-linejoin:miter;stroke-miterlimit:4;stroke-opacity:1"
       d="m 531.51296,165.43225 c -25.30908,39.78334 -35.50216,66.51779 -48.7311,104.69236"
       id="path2947"
       sodipodi:nodetypes="cc" />
    <path
       style="fill:none;stroke:#000000;stroke-width:2.5;stroke-linecap:butt;stroke-linejoin:miter;stroke-miterlimit:4;stroke-opacity:1"
       d="m 549.17609,163.96032 c -17.37324,39.08511 -23.00256,66.98733 -32.04924,106.65493"
       id="path2951"
       sodipodi:nodetypes="cc" />
    <path
       style="fill:none;stroke:#000000;stroke-width:2.5;stroke-linecap:butt;stroke-linejoin:miter;stroke-miterlimit:4;stroke-opacity:1"
       d="m 578.23502,268.0046 c 3.32645,-37.23105 3.90881,-67.9202 8.22988,-100.60978"
       id="path2955"
       sodipodi:nodetypes="cc" />
    <path
       style="fill:none;stroke:#000000;stroke-width:2.5;stroke-linecap:butt;stroke-linejoin:miter;stroke-miterlimit:4;stroke-opacity:1"
       d="m 304.8361,197.81466 c 24.16343,-14.14829 49.27401,-26.40229 76.0496,-35.32626"
       id="path2959"
       sodipodi:nodetypes="cc" />
    <path
       style="fill:none;stroke:#000000;stroke-width:2.5;stroke-linecap:butt;stroke-linejoin:miter;stroke-miterlimit:4;stroke-opacity:1"
       d="m 362.7319,160.52582 c -17.60991,5.33318 -36.26858,11.92487 -60.3491,25.02278"
       id="path2963"
       sodipodi:nodetypes="cc" />
    <path
       style="fill:none;stroke:#000000;stroke-width:2.5;stroke-linecap:butt;stroke-linejoin:miter;stroke-miterlimit:4;stroke-opacity:1"
       d="m 304.3454,173.77318 c 12.26607,-4.91024 24.53213,-11.29941 36.7982,-11.28478"
       id="path2967"
       sodipodi:nodetypes="cc" />
    <path
       sodipodi:nodetypes="cc"
       id="path3754"
       d="m 567.25989,164.83053 c -10.52442,36.82613 -12.95486,67.46478 -17.86697,105.51621"
       style="fill:none;stroke:#000000;stroke-width:2.5;stroke-linecap:butt;stroke-linejoin:miter;stroke-miterlimit:4;stroke-opacity:1" />
  </g>
  <g
     inkscape:groupmode="layer"
     id="layer4"
     inkscape:label="Meubles">
    <g
       style="display:inline"
       id="g3707"
       transform="matrix(0.9,0,0,0.9,57.387021,34.545445)">
      <path
         id="rect2883"
         d="m 129.0022,368.03257 0,86.5625 -43.28125,-74.96875 -6.0625,3.5 43.25,74.90625 -74.90625,-43.25 -3.5,6.0625 74.96875,43.28125 -86.5625,0 0,7 86.5625,0 -74.96875,43.28125 3.5,6.0625 74.90625,-43.25 -43.25,74.90625 6.0625,3.5 43.28125,-74.96875 0,86.5625 7,0 0,-86.5625 43.28125,74.96875 6.0625,-3.5 -43.25,-74.90625 74.90625,43.25 3.5,-6.0625 -74.96875,-43.28125 86.5625,0 0,-7 -86.5625,0 74.96875,-43.28125 -3.5,-6.0625 -74.90625,43.25 43.25,-74.90625 -6.0625,-3.5 -43.28125,74.96875 0,-86.5625 -7,0 z"
         style="fill:#000000;fill-opacity:1;fill-rule:nonzero;stroke:#555555;stroke-width:2;stroke-miterlimit:4;stroke-opacity:1;stroke-dasharray:none" />
      <path
         id="path3685"
         d="m 132.50245,384.81357 c -45.729177,0 -82.8125,37.08332 -82.8125,82.8125 0,45.72918 37.083323,82.8125 82.8125,82.8125 45.72918,0 82.8125,-37.08332 82.8125,-82.8125 0,-45.72918 -37.08332,-82.8125 -82.8125,-82.8125 z m 0,22.8125 c 33.13709,0 60,26.86291 60,60 0,33.13709 -26.86291,60 -60,60 -33.137085,0 -60,-26.86291 -60,-60 0,-33.13709 26.862915,-60 60,-60 z"
         style="fill:#fcef3c;fill-opacity:1;fill-rule:nonzero;stroke:#000000;stroke-width:2.50000000000000000;stroke-miterlimit:4;stroke-opacity:1.0;stroke-dasharray:none" />
      <path
         sodipodi:nodetypes="ccccc"
         id="rect3692"
         d="m 103.19947,329.76463 141.39652,-37.61074 8.28221,30.90963 -162.174807,43.17827 12.496077,-36.47716 z"
         style="fill:#fcef3c;fill-opacity:1;fill-rule:nonzero;stroke:#000000;stroke-width:2.5;stroke-miterlimit:4;stroke-opacity:1;stroke-dasharray:none" />
      <path
         sodipodi:nodetypes="cc"
         id="path3695"
         d="m 91.438598,362.48337 c -23.562385,12.04855 -39.17902,26.74568 -40.942656,46.06048"
         style="fill:none;stroke:#000000;stroke-width:2;stroke-linecap:butt;stroke-linejoin:miter;stroke-miterlimit:4;stroke-opacity:1" />
      <path
         sodipodi:nodetypes="cc"
         id="path3699"
         d="m 92.462165,359.75386 c -28.109028,8.2233 -45.927302,23.73588 -52.201887,47.42524"
         style="fill:none;stroke:#000000;stroke-width:2;stroke-linecap:butt;stroke-linejoin:miter;stroke-miterlimit:4;stroke-opacity:1" />
    </g>
    <g
       id="g3814"
       transform="translate(-900,0)">
      <path
         sodipodi:nodetypes="ccsssccc"
         id="path3755"
         d="m 1317.8438,379.21875 68.75,111.8125 12.25,-24.1875 c 2.3869,-4.71287 5.4758,-9.0793 7.1874,-14.1875 1.8472,-5.51271 2.875,-11.42796 2.875,-17.5625 0,-28.84367 -22.1398,-52.50387 -50.3437,-54.96875 -1.6207,-0.15976 -3.2483,-0.18777 -4.875,-0.21875 l -35.8437,-0.6875 z"
         style="fill:#ffffff;stroke:#000000;stroke-width:2.5;stroke-linecap:butt;stroke-linejoin:miter;stroke-miterlimit:4;stroke-opacity:1;stroke-dasharray:none;display:inline" />
      <path
         sodipodi:nodetypes="cccczc"
         id="rect3802"
         d="m 1217.6952,444.06705 28,0 0,16 -28,0 c -1.9017,-0.036 -2.391,-5.0488 -2.4049,-7.79754 -0.014,-2.74874 0.1211,-8.43849 2.4049,-8.20246 z"
         style="fill:#fcef3c;fill-opacity:1;fill-rule:nonzero;stroke:#000000;stroke-width:2.5;stroke-miterlimit:4;stroke-opacity:1;stroke-dasharray:none" />
      <path
         transform="matrix(1.1914166,0,0,1.1640278,1561.6753,-71.507724)"
         d="m -139.39458,452.40698 c 0,36.00935 -28.52028,65.20069 -63.70183,65.20069 -35.18154,0 -63.70182,-29.19134 -63.70182,-65.20069 0,-36.00935 28.52028,-65.20069 63.70182,-65.20069 35.18155,0 63.70183,29.19134 63.70183,65.20069 z"
         sodipodi:ry="65.200691"
         sodipodi:rx="63.701824"
         sodipodi:cy="452.40698"
         sodipodi:cx="-203.09641"
         id="path3730"
         style="fill:#ffffff;fill-opacity:1;fill-rule:nonzero;stroke:#000000;stroke-width:2.12288523;stroke-miterlimit:4;stroke-opacity:1;stroke-dasharray:none"
         sodipodi:type="arc" />
      <path
         sodipodi:type="arc"
         style="fill:#ffffff;fill-opacity:1;fill-rule:nonzero;stroke:#000000;stroke-width:2.34048104;stroke-miterlimit:4;stroke-opacity:1;stroke-dasharray:none"
         id="path3732"
         sodipodi:cx="-203.09641"
         sodipodi:cy="452.40698"
         sodipodi:rx="63.701824"
         sodipodi:ry="65.200691"
         d="m -139.39458,452.40698 c 0,36.00935 -28.52028,65.20069 -63.70183,65.20069 -35.18154,0 -63.70182,-29.19134 -63.70182,-65.20069 0,-36.00935 28.52028,-65.20069 63.70182,-65.20069 35.18155,0 63.70183,29.19134 63.70183,65.20069 z"
         transform="matrix(1.08065,0,0,1.0558074,1539.179,-22.548122)" />
      <path
         id="path3746"
         d="m 1336.0938,388.25 c -18.9555,7.12979 -32.4688,25.39601 -32.4688,46.84375 0,10.08703 2.9933,19.48471 8.125,27.34375 l 76.4062,0 c 0.2574,-2.41135 0.375,-4.86511 0.375,-7.34375 0,-32.36699 -22.337,-59.48685 -52.4374,-66.84375 z"
         style="fill:#ffffff;fill-opacity:1;fill-rule:nonzero;stroke:#000000;stroke-width:2.5;stroke-miterlimit:4;stroke-opacity:1;stroke-dasharray:none" />
      <path
         id="path3764"
         d="m 1388.1875,462.03125 -76.4375,0.40625 -51.9688,26.5 c 11.8193,20.89074 34.1909,35 59.9063,35 35.685,0 65.0318,-27.13441 68.5,-61.90625 z"
         style="fill:#fcef3c;stroke:#000000;stroke-width:2.5;stroke-linecap:butt;stroke-linejoin:miter;stroke-miterlimit:4;stroke-opacity:1;stroke-dasharray:none" />
      <path
         sodipodi:nodetypes="cssc"
         id="path3776"
         d="m 1298.7862,505.41027 c 15.7604,14.32729 3.4355,26.23433 1.1625,38.94697 -3.6339,20.32483 26.3091,21.51905 23.0905,2.47716 -2.1482,-12.70918 -8.1434,-28.54116 15.0214,-36.65444"
         style="fill:#fcef3c;stroke:#000000;stroke-width:2.5;stroke-linecap:butt;stroke-linejoin:miter;stroke-miterlimit:4;stroke-opacity:1" />
      <path
         sodipodi:nodetypes="cc"
         id="path3781"
         d="m 1322.0129,509.17338 c 9.2367,-7.3512 18.4733,-9.74512 27.71,-10.52279"
         style="fill:none;stroke:#000000;stroke-width:2.5;stroke-linecap:butt;stroke-linejoin:miter;stroke-miterlimit:4;stroke-opacity:1;stroke-dasharray:none" />
      <path
         sodipodi:nodetypes="cc"
         id="path3785"
         d="m 1305.9963,507.53995 c -0.7194,-4.06759 -1.9945,-6.97543 -9.2381,-11.69543"
         style="fill:none;stroke:#000000;stroke-width:2.5;stroke-linecap:butt;stroke-linejoin:miter;stroke-miterlimit:4;stroke-opacity:1;stroke-dasharray:none" />
      <path
         sodipodi:nodetypes="cc"
         id="path3789"
         d="m 1319.5575,502.15819 c 5.2047,-5.73619 7.6802,-7.74834 14.0304,-10.87355"
         style="fill:none;stroke:#000000;stroke-width:2.5;stroke-linecap:butt;stroke-linejoin:miter;stroke-miterlimit:4;stroke-opacity:1;stroke-dasharray:none" />
      <path
         sodipodi:nodetypes="cc"
         id="path3793"
         d="m 1311.8408,502.15819 c 0.2398,-5.56261 -0.6909,-9.36952 -1.7538,-12.9781"
         style="fill:none;stroke:#000000;stroke-width:2.5;stroke-linecap:butt;stroke-linejoin:miter;stroke-miterlimit:4;stroke-opacity:1;stroke-dasharray:none" />
      <path
         style="fill:#fcef3c;fill-opacity:1;fill-rule:nonzero;stroke:#000000;stroke-width:2.5;stroke-miterlimit:4;stroke-opacity:1;stroke-dasharray:none"
         d="m 1397.6952,444.06705 28,0 c 3.148,-0.20861 1.8186,16.09684 0,16 l -28,0 c -2.2668,0.1583 -1.9861,-5.25126 -2,-8 -0.014,-2.74874 0.1394,-8.19287 2,-8 z"
         id="path3807"
         sodipodi:nodetypes="cccczc" />
      <path
         sodipodi:nodetypes="cc"
         id="path3809"
         d="m 1425.6952,460.06705 c -1.9893,0 -1.7284,-16 0,-16"
         style="fill:none;stroke:#000000;stroke-width:1px;stroke-linecap:butt;stroke-linejoin:miter;stroke-opacity:1" />
    </g>
    <g
       style="display:inline"
       id="g3836"
       transform="matrix(0.99,0,0,0.99,524,7.3807248)">
      <path
         id="path3829"
         d="m 0.01550001,307.49728 c -16.43231201,0 -29.76822201,7.51655 -29.76822201,16.8169 0,1.3653 0.3291,2.69867 0.8709,3.96979 l 57.794644,0 c 0.5419,-1.27112 0.8399,-2.60449 0.8399,-3.96979 0,-9.30035 -13.30481,-16.8169 -29.73722199,-16.8169 z"
         style="fill:#fcef3c;fill-opacity:1;fill-rule:nonzero;stroke:#000000;stroke-width:2.49455523;stroke-linejoin:round;stroke-miterlimit:4;stroke-opacity:1;stroke-dasharray:none" />
      <rect
         y="328.28891"
         x="-9.7423306"
         height="40.348469"
         width="19.484661"
         id="rect3834"
         style="fill:#fcef3c;fill-opacity:1;fill-rule:nonzero;stroke:#000000;stroke-width:2.51533937;stroke-linejoin:round;stroke-miterlimit:4;stroke-opacity:1;stroke-dasharray:none" />
    </g>
    <g
       style="display:inline"
       id="g3928"
       transform="translate(-700,0)">
      <path
         id="rect3843"
         d="m 1057.3053,150.07149 32,0 0,8 -32,0 0,-8 z"
         style="fill:#fcef3c;fill-opacity:1;fill-rule:nonzero;stroke:#000000;stroke-opacity:1" />
      <path
         sodipodi:nodetypes="ccccc"
         id="rect3845"
         d="m 1062.305,144.07149 32,0 -4.9997,6 -32,0 4.9997,-6 z"
         style="fill:#fcef3c;fill-opacity:1;fill-rule:nonzero;stroke:#000000;stroke-opacity:1" />
      <path
         inkscape:original-d="m 1099.3047,158.07149 -9.9994,0 0,-8 4.9997,-6 4.9997,6 0,8 z"
         inkscape:path-effect="#path-effect3855"
         id="path3853"
         d="m 1099.3047,158.07149 -9.9994,0 0,-8 4.9997,-6 4.9997,6 0,8 0,0"
         style="fill:#fcef3c;stroke:#000000;stroke-width:1px;stroke-linecap:butt;stroke-linejoin:miter;stroke-opacity:1" />
      <path
         sodipodi:nodetypes="ccccc"
         style="fill:#fcef3c;fill-opacity:1;fill-rule:nonzero;stroke:#000000;stroke-opacity:1"
         d="m 1119.3053,140.07149 32,0 0,18 -32,0 0,-18 z"
         id="path3857" />
      <path
         style="fill:#fcef3c;fill-opacity:1;fill-rule:nonzero;stroke:#000000;stroke-opacity:1"
         d="m 1126.305,132.07149 32,0 -6.9997,8 -32,0 6.9997,-8 z"
         id="path3859"
         sodipodi:nodetypes="ccccc" />
      <g
         id="g3873">
        <path
           id="path3865"
           d="m 1155.3053,148.07149 48,0 0,8 -48,0 0,-8 z"
           style="fill:#fcef3c;fill-opacity:1;fill-rule:nonzero;stroke:#000000;stroke-opacity:1"
           sodipodi:nodetypes="ccccc" />
        <path
           sodipodi:nodetypes="ccccc"
           id="path3867"
           d="m 1160.305,142.07149 48,0 -4.9997,6 -48,0 4.9997,-6 z"
           style="fill:#fcef3c;fill-opacity:1;fill-rule:nonzero;stroke:#000000;stroke-opacity:1" />
        <path
           inkscape:original-d="m 1213.3047,156.07149 -9.9994,0 0,-8 4.9997,-6 4.9997,6 0,8 z"
           inkscape:path-effect="#path-effect3871"
           id="path3869"
           d="m 1213.3047,156.07149 -9.9994,0 0,-8 4.9997,-6 4.9997,6 0,8 0,0"
           style="fill:#fcef3c;stroke:#000000;stroke-width:1px;stroke-linecap:butt;stroke-linejoin:miter;stroke-opacity:1" />
      </g>
      <path
         sodipodi:nodetypes="cccccc"
         style="fill:#fcef3c;stroke:#000000;stroke-width:1px;stroke-linecap:butt;stroke-linejoin:miter;stroke-opacity:1"
         d="m 1163.3047,158.07149 -11.9994,0 0,-18 6.9997,-8 4.9997,8 0,18 0,0"
         id="path3861"
         inkscape:path-effect="#path-effect3863"
         inkscape:original-d="m 1163.3047,158.07149 -11.9994,0 0,-18 6.9997,-8 4.9997,8 0,18 z" />
      <path
         sodipodi:nodetypes="cccccccc"
         style="fill:#fcef3c;stroke:#000000;stroke-width:1px;stroke-linecap:butt;stroke-linejoin:miter;stroke-opacity:1"
         d="m 1231.3047,154.07149 -13.9994,0 0,-32 3.4999,-4 3.4998,-26 3.4999,26 3.4998,4 0,32 0,0"
         id="path3894"
         inkscape:path-effect="#path-effect3896"
         inkscape:original-d="m 1231.3047,154.07149 -13.9994,0 0,-32 3.4999,-4 3.4998,-26 3.4999,26 3.4998,4 0,32 z" />
      <path
         id="path3886"
         d="m 1227.3053,130.07149 42,0 0,24 -42,0 0,-24 z"
         style="fill:#fcef3c;fill-opacity:1;fill-rule:nonzero;stroke:#000000;stroke-opacity:1"
         sodipodi:nodetypes="ccccc" />
      <path
         sodipodi:nodetypes="ccccc"
         id="path3888"
         d="m 1232.305,124.07149 42,0 -4.9997,6 -42,0 4.9997,-6 z"
         style="fill:#fcef3c;fill-opacity:1;fill-rule:nonzero;stroke:#000000;stroke-opacity:1" />
      <path
         inkscape:original-d="m 1279.3047,154.07149 -9.9994,0 0,-24 4.9997,-6 4.9997,6 0,24 z"
         inkscape:path-effect="#path-effect3892"
         id="path3890"
         d="m 1279.3047,154.07149 -9.9994,0 0,-24 4.9997,-6 4.9997,6 0,24 0,0"
         style="fill:#fcef3c;stroke:#000000;stroke-width:1px;stroke-linecap:butt;stroke-linejoin:miter;stroke-opacity:1"
         sodipodi:nodetypes="cccccc" />
      <path
         sodipodi:nodetypes="ccccc"
         style="fill:#fcef3c;fill-opacity:1;fill-rule:nonzero;stroke:#000000;stroke-opacity:1"
         d="m 1255.3053,142.07149 32,0 0,12 -32,0 0,-12 z"
         id="path3878" />
      <path
         style="fill:#fcef3c;fill-opacity:1;fill-rule:nonzero;stroke:#000000;stroke-opacity:1"
         d="m 1260.305,136.07149 32,0 -4.9997,6 -32,0 4.9997,-6 z"
         id="path3880"
         sodipodi:nodetypes="ccccc" />
      <path
         sodipodi:nodetypes="cccccc"
         style="fill:#fcef3c;stroke:#000000;stroke-width:1px;stroke-linecap:butt;stroke-linejoin:miter;stroke-opacity:1"
         d="m 1297.3047,154.07149 -9.9994,0 0,-12 4.9997,-6 4.9997,6 0,12 0,0"
         id="path3882"
         inkscape:path-effect="#path-effect3884"
         inkscape:original-d="m 1297.3047,154.07149 -9.9994,0 0,-12 4.9997,-6 4.9997,6 0,12 z" />
      <rect
         y="144.05701"
         x="1232.2544"
         height="10"
         width="5"
         id="rect3898"
         style="fill:#000000;stroke:none" />
      <rect
         style="fill:#000000;stroke:none"
         id="rect3900"
         width="4"
         height="6"
         x="1238.2544"
         y="132.05701" />
      <rect
         y="132.05701"
         x="1246.2544"
         height="6"
         width="4"
         id="rect3902"
         style="fill:#000000;stroke:none" />
      <rect
         style="fill:#000000;stroke:none"
         id="rect3904"
         width="4"
         height="6"
         x="1242.2544"
         y="142.05701" />
      <rect
         style="fill:#000000;stroke:none"
         id="rect3906"
         width="5"
         height="10"
         x="1222.2544"
         y="144.05701" />
      <rect
         y="144.05701"
         x="1258.2544"
         height="6"
         width="4"
         id="rect3908"
         style="fill:#000000;stroke:none" />
      <rect
         style="fill:#000000;stroke:none"
         id="rect3910"
         width="4"
         height="6"
         x="1268.2544"
         y="144.05701" />
      <rect
         y="144.05701"
         x="1278.2544"
         height="6"
         width="4"
         id="rect3912"
         style="fill:#000000;stroke:none" />
      <rect
         style="fill:#000000;stroke:none"
         id="rect3914"
         width="4"
         height="6"
         x="1124.2544"
         y="142.05701" />
      <rect
         y="142.05701"
         x="1134.2544"
         height="6"
         width="4"
         id="rect3916"
         style="fill:#000000;stroke:none" />
      <rect
         style="fill:#000000;stroke:none"
         id="rect3918"
         width="4"
         height="6"
         x="1144.2544"
         y="142.05701" />
      <rect
         y="150.05701"
         x="1124.2544"
         height="6"
         width="4"
         id="rect3920"
         style="fill:#000000;stroke:none" />
      <rect
         style="fill:#000000;stroke:none"
         id="rect3922"
         width="4"
         height="6"
         x="1134.2544"
         y="150.05701" />
      <rect
         y="150.05701"
         x="1144.2544"
         height="6"
         width="4"
         id="rect3924"
         style="fill:#000000;stroke:none" />
      <rect
         y="148.05701"
         x="1155"
         height="10"
         width="5"
         id="rect3926"
         style="fill:#000000;stroke:none" />
    </g>
    <g
       id="g3013">
      <path
         inkscape:original-d="m 115.23263,90.25684 25.63579,-59.4 20.32105,3.43895 22.82211,48.45789 -50.64632,-6.87789 -18.13263,14.38105 z"
         inkscape:path-effect="#path-effect3775"
         id="path3773"
         d="m 115.23263,90.25684 25.63579,-59.4 20.32105,3.43895 22.82211,48.45789 -50.64632,-6.87789 -18.13263,14.38105 0,0"
         style="fill:#fcef3c;stroke:#000000;stroke-width:2;stroke-linecap:butt;stroke-linejoin:miter;stroke-opacity:1" />
      <path
         inkscape:original-d="m 117.91282,88.13117 0,35.57725 49.8028,-43.16777 -34.35036,-4.66486 -15.45244,12.25538 z"
         inkscape:path-effect="#path-effect3784"
         id="path3782"
         d="m 117.91282,88.13117 0,35.57725 49.8028,-43.16777 -34.35036,-4.66486 -15.45244,12.25538 0,0"
         style="fill:#fcef3c;stroke:#000000;stroke-width:2;stroke-linecap:butt;stroke-linejoin:miter;stroke-opacity:1" />
      <path
         sodipodi:nodetypes="cccccccc"
         inkscape:original-d="m 241.46898,161.71978 5.16906,-0.28717 9.4766,8.04076 -0.86151,1.43585 -2.01019,0.28717 4.16397,83.85355 c 331.30958,-540.04752 -2.74104,-1.19529 -4.51696,-0.0733 l -11.42097,-93.25688 z"
         inkscape:path-effect="#path-effect3810"
         id="path3808"
         d="m 241.46898,161.71978 5.16906,-0.28717 9.4766,8.04076 -0.86151,1.43585 -2.01019,0.28717 4.16397,83.85355 -4.51696,-0.0733 -11.42097,-93.25688 0,2e-5"
         style="fill:#fcef3c;stroke:#000000;stroke-width:2;stroke-linecap:butt;stroke-linejoin:miter;stroke-opacity:1" />
      <path
         sodipodi:nodetypes="ccccccc"
         inkscape:original-d="m 91.690184,135.67104 -45.209442,32.07931 2.871698,2.8717 0,94.766 31.014329,-0.28717 11.206862,-1.60098 0.116553,-127.82886 z"
         inkscape:path-effect="#path-effect3879"
         id="path3877"
         d="m 91.690184,135.67104 -45.209442,32.07931 2.871698,2.8717 0,94.766 31.014329,-0.28717 11.206862,-1.60098 0.116553,-127.82886"
         style="fill:#ffffff;stroke:#000000;stroke-width:2;stroke-linecap:butt;stroke-linejoin:miter;stroke-opacity:1" />
      <path
         sodipodi:nodetypes="cccc"
         style="fill:#ffffff;stroke:#000000;stroke-width:2;stroke-linecap:butt;stroke-linejoin:miter;stroke-opacity:1"
         d="m 115.23263,90.25684 25.63579,-59.4 -7.50316,45.01895 -18.13263,14.38105"
         id="path3897"
         inkscape:path-effect="#path-effect3899"
         inkscape:original-d="m 115.23263,90.25684 25.63579,-59.4 -7.50316,45.01895 -18.13263,14.38105 z" />
      <path
         sodipodi:nodetypes="ccccc"
         style="fill:#ffffff;stroke:#000000;stroke-width:2;stroke-linecap:butt;stroke-linejoin:miter;stroke-opacity:1"
         d="m 117.91282,88.13117 0,35.57725 14.89304,-12.9089 -0.2601,-34.33541 -14.63294,11.66706 0,0"
         id="path3901"
         inkscape:path-effect="#path-effect3903"
         inkscape:original-d="m 117.91282,88.13117 0,35.57725 14.89304,-12.9089 -0.2601,-34.33541 -14.63294,11.66706 z" />
      <path
         inkscape:original-d="m 235.72559,254.76277 -2.01019,-82.99205 7.94625,-9.95215 7.57322,7.0608 3.65508,86.09729 -17.16436,-0.21389 z"
         inkscape:path-effect="#path-effect3907"
         id="path3905"
         d="m 235.72559,254.76277 -2.01019,-82.99205 7.94625,-9.95215 7.57322,7.0608 3.65508,86.09729 -17.16436,-0.21389"
         style="fill:#ffffff;stroke:#000000;stroke-width:2;stroke-linecap:butt;stroke-linejoin:miter;stroke-opacity:1" />
      <path
         sodipodi:nodetypes="ccccc"
         id="rect3972"
         d="m 124.13583,96.13821 2.50105,-1.5128 0,21.52122 -2.50105,0 0,-20.00842 z"
         style="fill:#000000;fill-opacity:1;fill-rule:nonzero;stroke:none" />
      <path
         style="fill:#fcef3c;stroke:#000000;stroke-width:2;stroke-linecap:butt;stroke-linejoin:miter;stroke-opacity:1"
         d="M 238.31012,145.35111 226.53616,135.30017 178.00447,72.41 l -14.93282,7.46641 -29.57848,26.13245 -36.744078,26.07253 0,130.67916 31.862188,-4.55174 c 9.85287,-0.54383 19.71461,-0.92683 29.57998,-1.14881 13.60062,-0.30603 27.20812,-0.30598 40.80874,1.3e-4 l 0,-2.58453 37.29993,0 -2.29736,-82.70488 4.30755,-26.41961 0,0"
         id="path3918"
         inkscape:path-effect="#path-effect3920"
         inkscape:original-d="M 238.31012,145.35111 226.53616,135.30017 178.00447,72.41 l -14.93282,7.46641 -29.57848,26.13245 -36.744078,26.07253 0,130.67916 31.862188,-4.55174 29.57998,-1.14881 40.80874,1.3e-4 0,-2.58453 37.29993,0 -2.29736,-82.70488 4.30755,-26.41961 z"
         sodipodi:nodetypes="cccccccccccccc" />
      <path
         style="fill:#ffffff;stroke:#000000;stroke-width:2;stroke-linecap:butt;stroke-linejoin:miter;stroke-opacity:1"
         d="m 75.197714,264.81371 0,-70.64375 -24.122256,11.19962 -15.794335,10.33811 2.584528,0.86151 0,47.95734 37.332063,0.28717"
         id="path3930"
         inkscape:path-effect="#path-effect3932"
         inkscape:original-d="m 75.197714,264.81371 0,-70.64375 -24.122256,11.19962 -15.794335,10.33811 2.584528,0.86151 0,47.95734 37.332063,0.28717 z" />
      <path
         sodipodi:nodetypes="ccc"
         style="fill:none;stroke:#000000;stroke-width:1px;stroke-linecap:butt;stroke-linejoin:miter;stroke-opacity:1"
         d="M 75.197714,194.16996 47.342252,212.83599 47.193991,264.5983"
         id="path3934"
         inkscape:path-effect="#path-effect3936"
         inkscape:original-d="M 75.197714,194.16996 47.342252,212.83599 47.193991,264.5983" />
      <path
         sodipodi:nodetypes="ccccc"
         id="rect3966"
         d="m 52.654911,189.36198 2.652767,-1.5128 0,23.43278 -2.652767,0 0,-21.91998 z"
         style="fill:#000000;fill-opacity:1;fill-rule:nonzero;stroke:none" />
      <path
         sodipodi:nodetypes="ccccc"
         id="rect3970"
         d="m 60.654911,185.61411 2.652767,-1.76493 0,23.43278 -2.652767,0 0,-21.66785 z"
         style="fill:#000000;fill-opacity:1;fill-rule:nonzero;stroke:none" />
      <path
         inkscape:original-d="m 35.281123,215.70769 9.471513,-1.95677 2.584528,0.86151 -0.143173,49.98587 28.003723,0.21541 0,-70.64375 -24.122256,11.19962 -15.794335,10.33811 z"
         inkscape:path-effect="#path-effect3948"
         id="path3946"
         d="m 35.281123,215.70769 9.471513,-1.95677 2.584528,0.86151 -0.143173,49.98587 28.003723,0.21541 0,-70.64375 -24.122256,11.19962 -15.794335,10.33811 0,0"
         style="fill:#fcef3c;stroke:#000000;stroke-width:2;stroke-linecap:butt;stroke-linejoin:miter;stroke-opacity:1" />
      <path
         sodipodi:nodetypes="cccccccccccc"
         id="path3802"
         d="m 80.695356,265.12965 c 0.0022,-19.76587 -0.200857,-39.53177 -0.609179,-59.29343 l 1.421418,-0.40612 -0.913845,-95.21135 20.00145,-12.41026 8.12239,0 16.56366,12.44151 0.0872,93.55563 1.82753,1.0153 1.21836,53.60774 c -14.98831,9.64557 -38.87556,8.00222 -47.719014,6.90404 1.2e-5,-0.0677 2.2e-5,-0.13537 3e-5,-0.20306"
         style="fill:#fcef3c;stroke:#000000;stroke-width:2;stroke-linecap:butt;stroke-linejoin:miter;stroke-opacity:1" />
      <path
         sodipodi:nodetypes="cccsscccccc"
         id="path3795"
         d="m 103.03125,71.40625 -1.625,4.28125 -20.8125,34.53125 c 2.297418,-1.96184 10.224742,-3.47924 19.96875,-3.6875 0.7737,-0.0165 1.58057,0 2.375,0 10.85723,0 19.92332,1.59012 22.34375,3.71875 L 105.0625,75.875 103.03125,71.40625 z m 23.25,40.21875 -0.34375,-0.25 0.34375,0.25 z"
         style="fill:#fcef3c;stroke:#000000;stroke-width:2;stroke-linecap:butt;stroke-linejoin:miter;stroke-opacity:1" />
      <path
         style="fill:#ffffff;stroke:#000000;stroke-width:2;stroke-linecap:butt;stroke-linejoin:miter;stroke-opacity:1"
         d="m 103.03125,71.40625 -1.625,4.28125 -20.8125,34.53125 c 1.999757,-1.70766 8.265066,-3.07858 16.281129,-3.5425 m 29.406371,4.94875 -0.34375,-0.25 0.34375,0.25 z"
         id="path3954"
         sodipodi:nodetypes="ccccccc" />
      <path
         sodipodi:nodetypes="cccccccc"
         id="path3840"
         d="m 181.61601,253.35218 0,-4.26425 -2.0306,0 0,-28.22529 c 4.36061,-9.06925 11.88375,-2.76363 11.37134,1.0153 l 0,31.44961 -9.34074,0.0246 0,3e-5"
         style="fill:#ffffff;stroke:#000000;stroke-width:1px;stroke-linecap:butt;stroke-linejoin:miter;stroke-opacity:1" />
      <path
         style="fill:#ffffff;stroke:#000000;stroke-width:1px;stroke-linecap:butt;stroke-linejoin:miter;stroke-opacity:1"
         d="m 163.61601,253.35218 0,-4.26425 -2.0306,0 0,-28.22529 c 4.36061,-9.06925 11.88375,-2.76363 11.37134,1.0153 l 0,31.44961 -9.34074,0.0246 0,3e-5"
         id="path3845"
         sodipodi:nodetypes="cccccccc" />
      <path
         sodipodi:nodetypes="cccccccccccc"
         id="path3847"
         d="m 170.68165,199.19543 7.03566,-4.3e-4 -1e-5,-2.87126 1.0051,0 -0.28717,-28.42981 -0.86151,-0.14358 c -0.48629,-2.02932 -1.37645,-3.86872 -3.37372,-4.95368 -1.95816,0.9281 -3.11977,2.89013 -3.37477,4.95367 l -1.00509,0 0,28.57366 0.86151,0 0,2.87143 z"
         style="fill:none;stroke:#000000;stroke-width:1px;stroke-linecap:butt;stroke-linejoin:miter;stroke-opacity:1" />
      <path
         style="fill:#ffffff;stroke:#000000;stroke-width:1px;stroke-linecap:butt;stroke-linejoin:miter;stroke-opacity:1"
         d="m 170.68165,199.19543 7.03566,-4.3e-4 -1e-5,-2.87126 0.7177,0 2.3e-4,-28.42981 -0.86151,-0.14358 c -0.48629,-2.02932 -1.37645,-3.86872 -3.37372,-4.95368 -1.95816,0.9281 -3.11977,2.89013 -3.37477,4.95367 l -1.00509,0 0,28.57366 0.86151,0 0,2.87143 z"
         id="path3854"
         sodipodi:nodetypes="cccccccccccc" />
      <path
         sodipodi:nodetypes="cccccccccccc"
         id="path3856"
         d="m 160.68165,199.19543 7.03566,-4.3e-4 -1e-5,-2.87126 0.7177,0 2.3e-4,-28.42981 -0.86151,-0.14358 c -0.48629,-2.02932 -1.37645,-3.86872 -3.37372,-4.95368 -1.95816,0.9281 -3.11977,2.89013 -3.37477,4.95367 l -1.00509,0 0,28.57366 0.86151,0 0,2.87143 z"
         style="fill:#ffffff;stroke:#000000;stroke-width:1px;stroke-linecap:butt;stroke-linejoin:miter;stroke-opacity:1" />
      <path
         style="fill:#ffffff;stroke:#000000;stroke-width:1px;stroke-linecap:butt;stroke-linejoin:miter;stroke-opacity:1"
         d="m 180.68165,199.19543 7.03566,-4.3e-4 -1e-5,-2.87126 0.7177,0 2.3e-4,-28.42981 -0.86151,-0.14358 c -0.48629,-2.02932 -1.37645,-3.86872 -3.37372,-4.95368 -1.95816,0.9281 -3.11977,2.89013 -3.37477,4.95367 l -1.00509,0 0,28.57366 0.86151,0 0,2.87143 z"
         id="path3858"
         sodipodi:nodetypes="cccccccccccc" />
      <path
         sodipodi:nodetypes="ccccc"
         inkscape:original-d="m 175.5,160.14035 3.50957,3.87679 3.44603,-3.87714 -3.44603,-3.58927 -3.50957,3.58962 z"
         inkscape:path-effect="#path-effect3862"
         id="path3860"
         d="m 175.5,160.14035 3.50957,3.87679 3.44603,-3.87714 -3.44603,-3.58927 -3.50957,3.58962"
         style="fill:#ffffff;stroke:#000000;stroke-width:1px;stroke-linecap:butt;stroke-linejoin:miter;stroke-opacity:1" />
      <path
         style="fill:#ffffff;stroke:#000000;stroke-width:1px;stroke-linecap:butt;stroke-linejoin:miter;stroke-opacity:1"
         d="m 165.5,160.14035 3.50957,3.87679 3.44603,-3.87714 -3.44603,-3.58927 -3.50957,3.58962"
         id="path3864"
         inkscape:path-effect="#path-effect3866"
         inkscape:original-d="m 165.5,160.14035 3.50957,3.87679 3.44603,-3.87714 -3.44603,-3.58927 -3.50957,3.58962 z"
         sodipodi:nodetypes="ccccc" />
      <path
         sodipodi:nodetypes="ccccc"
         inkscape:original-d="m 171.5,155 2.50957,3.01714 L 176.456,155 174.00957,152.55073 171.5,155 z"
         inkscape:path-effect="#path-effect3870"
         id="path3868"
         d="m 171.5,155 2.50957,3.01714 L 176.456,155 174.00957,152.55073 171.5,155"
         style="fill:#ffffff;stroke:#000000;stroke-width:1px;stroke-linecap:butt;stroke-linejoin:miter;stroke-opacity:1" />
      <path
         sodipodi:nodetypes="ccscsc"
         id="path3872"
         d="m 192.15,201.34921 -35.65,0.14358 0,-35.17829 c 0,-9.86395 8.69148,-17.00723 17.4841,-19.23018 9.24509,2.36614 18.1659,9.57706 18.1659,19.23068 l 0,35.03421"
         style="fill:none;stroke:#000000;stroke-width:2;stroke-linecap:butt;stroke-linejoin:miter;stroke-opacity:1" />
      <path
         inkscape:original-d="m 157.04108,253.32692 0,-41.6396 39.34226,0 0,41.35244"
         inkscape:path-effect="#path-effect3883"
         id="path3881"
         d="m 157.04108,253.32692 0,-41.6396 39.34226,0 0,41.35244"
         style="fill:none;stroke:#000000;stroke-width:2;stroke-linecap:butt;stroke-linejoin:miter;stroke-opacity:1" />
      <path
         inkscape:original-d="m 246.5951,160.96004 0.60917,-3.0459 -7.10708,-12.38664 -4.87343,0 -7.71627,12.38664 5.07649,12.99582 3.24895,0 5.27956,-6.90403 0.81223,-1.82753 4.67038,-1.21836 z"
         inkscape:path-effect="#path-effect3818"
         id="path3816"
         d="m 246.5951,160.96004 0.60917,-3.0459 -7.10708,-12.38664 -4.87343,0 -7.71627,12.38664 5.07649,12.99582 3.24895,0 5.27956,-6.90403 0.81223,-1.82753 4.67038,-1.21836 0,0"
         style="fill:#ffffff;stroke:#000000;stroke-width:2;stroke-linecap:butt;stroke-linejoin:miter;stroke-opacity:1" />
      <path
         inkscape:original-d="m 231.36562,163.19369 6.49791,0"
         inkscape:path-effect="#path-effect3822"
         id="path3820"
         d="m 231.36562,163.19369 6.49791,0"
         style="fill:none;stroke:#000000;stroke-width:1px;stroke-linecap:butt;stroke-linejoin:miter;stroke-opacity:1" />
      <path
         inkscape:original-d="m 232.9901,166.03653 4.06119,0.20306"
         inkscape:path-effect="#path-effect3826"
         id="path3824"
         d="m 232.9901,166.03653 4.06119,0.20306"
         style="fill:none;stroke:#000000;stroke-width:1px;stroke-linecap:butt;stroke-linejoin:miter;stroke-opacity:1" />
      <path
         inkscape:original-d="m 233.59928,168.87937 1.62448,0"
         inkscape:path-effect="#path-effect3830"
         id="path3828"
         d="m 233.59928,168.87937 1.62448,0"
         style="fill:none;stroke:#000000;stroke-width:1px;stroke-linecap:butt;stroke-linejoin:miter;stroke-opacity:1" />
      <path
         inkscape:original-d="m 230.14726,160.1478 15.43254,-0.20306"
         inkscape:path-effect="#path-effect3838"
         id="path3836"
         d="m 230.14726,160.1478 15.43254,-0.20306"
         style="fill:none;stroke:#000000;stroke-width:1px;stroke-linecap:butt;stroke-linejoin:miter;stroke-opacity:1" />
      <path
         sodipodi:nodetypes="ccccc"
         style="fill:#fcef3c;stroke:#000000;stroke-width:2;stroke-linecap:butt;stroke-linejoin:miter;stroke-opacity:1"
         d="m 247.20427,157.91414 -7.10708,-12.38664 -4.87343,0 -7.71627,12.38664 19.69678,0 0,0"
         id="path3960"
         inkscape:path-effect="#path-effect3962"
         inkscape:original-d="m 247.20427,157.91414 -7.10708,-12.38664 -4.87343,0 -7.71627,12.38664 19.69678,0 z" />
      <rect
         y="167.78947"
         x="107.41684"
         height="10.629474"
         width="4.376842"
         id="rect3964"
         style="fill:#000000;fill-opacity:1;fill-rule:nonzero;stroke:none" />
      <path
         style="fill:#ffffff;stroke:none"
         d="M 96.78578,265.159 81.695,264.333 81.086,205.83622 82.508,205.4301 81.594,110.21875 c 12.01372,-2.51145 24.15566,-4.03549 43.68725,0.0312 l 0,5e-5 c -9.50656,0.69797 -19.87439,-2.91044 -28.49547,2.21488"
         id="path3011"
         sodipodi:nodetypes="cccccccc" />
    </g>
  </g>
  <g
     inkscape:groupmode="layer"
     id="layer2"
     inkscape:label="Reflet final"
     sodipodi:insensitive="true">
    <path
       sodipodi:nodetypes="cccccc"
       d="M 300.00001,658.5 C 300.00001,658.5 598.50001,546.17969 598.50001,260.72817 C 598.50001,-24.723334 598.50001,2.1764865 598.50001,2.1764865 L 1.5,2.1764865 L 1.5,260.72817 C 1.5,546.17969 300.00001,658.5 300.00001,658.5 z "
       style="opacity:1;fill:url(#radialGradient3163);fill-opacity:1;fill-rule:evenodd;stroke:none;stroke-width:1px;stroke-linecap:butt;stroke-linejoin:miter;stroke-opacity:1"
       id="path2875"
       inkscape:export-xdpi="144"
       inkscape:export-ydpi="144" />
  </g>
  <g
     inkscape:groupmode="layer"
     id="layer1"
     inkscape:label="Contour final"
     sodipodi:insensitive="true">
    <path
       sodipodi:nodetypes="cccccc"
       d="M 299.99999,658.50028 C 299.99999,658.50028 1.5,546.17992 1.5,260.72828 C 1.5,-24.723336 1.5,2.1764957 1.5,2.1764957 L 598.49999,2.1764957 L 598.49999,260.72828 C 598.49999,546.17992 299.99999,658.50028 299.99999,658.50028 z "
       style="opacity:1;fill:none;fill-opacity:1;fill-rule:evenodd;stroke:#000000;stroke-width:3.00000048;stroke-linecap:butt;stroke-linejoin:miter;stroke-miterlimit:4;stroke-dasharray:none;stroke-opacity:1"
       id="path1411"
       inkscape:export-xdpi="144"
       inkscape:export-ydpi="144" />
  </g>
</svg>
