<?xml version="1.0" encoding="UTF-8" standalone="no"?>
<svg
   xmlns:dc="http://purl.org/dc/elements/1.1/"
   xmlns:cc="http://web.resource.org/cc/"
   xmlns:rdf="http://www.w3.org/1999/02/22-rdf-syntax-ns#"
   xmlns:svg="http://www.w3.org/2000/svg"
   xmlns="http://www.w3.org/2000/svg"
   xmlns:xlink="http://www.w3.org/1999/xlink"
   xmlns:sodipodi="http://sodipodi.sourceforge.net/DTD/sodipodi-0.dtd"
   xmlns:inkscape="http://www.inkscape.org/namespaces/inkscape"
   height="660"
   width="600"
   version="1.0"
   id="svg2"
   sodipodi:version="0.32"
   inkscape:version="0.45.1"
   sodipodi:docname="Blason_Barfleur.svg"
   sodipodi:docbase="C:\Users\Augustin\Documents\heral\communes"
   inkscape:export-filename="/Users/olivier/Desktop/Blason Rouge/Blason_Vide_3D.png"
   inkscape:export-xdpi="144"
   inkscape:export-ydpi="144"
   inkscape:output_extension="org.inkscape.output.svg.inkscape">
  <metadata
     id="metadata49">
    <rdf:RDF>
      <cc:Work
         rdf:about="">
        <dc:format>image/svg+xml</dc:format>
        <dc:type
           rdf:resource="http://purl.org/dc/dcmitype/StillImage" />
        <dc:title>Gabarit d'un blason en pointe pour le projet Blasons de Wikipédia</dc:title>
        <dc:date>03-AUG-2006</dc:date>
        <dc:creator>
          <cc:Agent>
            <dc:title>Jérôme BLUM (wagner51)</dc:title>
          </cc:Agent>
        </dc:creator>
        <cc:license
           rdf:resource="http://web.resource.org/cc/PublicDomain" />
        <dc:language>fr</dc:language>
        <dc:subject>
          <rdf:Bag>
            <rdf:li>gabarit modèle blason projet wikipédia</rdf:li>
          </rdf:Bag>
        </dc:subject>
      </cc:Work>
      <cc:License
         rdf:about="http://web.resource.org/cc/PublicDomain">
        <cc:permits
           rdf:resource="http://web.resource.org/cc/Reproduction" />
        <cc:permits
           rdf:resource="http://web.resource.org/cc/Distribution" />
        <cc:permits
           rdf:resource="http://web.resource.org/cc/DerivativeWorks" />
      </cc:License>
    </rdf:RDF>
  </metadata>
  <sodipodi:namedview
     inkscape:window-height="693"
     inkscape:window-width="1024"
     inkscape:pageshadow="2"
     inkscape:pageopacity="0.0"
     guidetolerance="10.0"
     gridtolerance="10.0"
     objecttolerance="10.0"
     borderopacity="1.0"
     bordercolor="#666666"
     pagecolor="#ffffff"
     id="base"
     showgrid="false"
     height="660px"
     inkscape:zoom="0.51783477"
     inkscape:cx="692.97574"
     inkscape:cy="258.1501"
     inkscape:window-x="92"
     inkscape:window-y="71"
     inkscape:current-layer="layer3" />
  <desc
     id="desc4">Flag of Canton of Valais (Wallis)</desc>
  <defs
     id="defs6">
    <linearGradient
       id="linearGradient2893">
      <stop
         style="stop-color:white;stop-opacity:0.3137255;"
         offset="0"
         id="stop2895" />
      <stop
         id="stop2897"
         offset="0.19"
         style="stop-color:white;stop-opacity:0.25098041;" />
      <stop
         style="stop-color:#6b6b6b;stop-opacity:0.1254902;"
         offset="0.60000002"
         id="stop2901" />
      <stop
         style="stop-color:black;stop-opacity:0.1254902;"
         offset="1"
         id="stop2899" />
    </linearGradient>
    <linearGradient
       id="linearGradient2885">
      <stop
         id="stop2887"
         offset="0"
         style="stop-color:white;stop-opacity:1;" />
      <stop
         style="stop-color:white;stop-opacity:1;"
         offset="0.22857143"
         id="stop2891" />
      <stop
         id="stop2889"
         offset="1"
         style="stop-color:black;stop-opacity:1;" />
    </linearGradient>
    <linearGradient
       id="linearGradient2955">
      <stop
         id="stop2867"
         offset="0"
         style="stop-color:#fd0000;stop-opacity:1;" />
      <stop
         style="stop-color:#e77275;stop-opacity:0.65882355;"
         offset="0.5"
         id="stop2873" />
      <stop
         style="stop-color:black;stop-opacity:0.32291666;"
         offset="1"
         id="stop2959" />
    </linearGradient>
    <radialGradient
       inkscape:collect="always"
       xlink:href="#linearGradient2955"
       id="radialGradient2961"
       cx="225.52438"
       cy="218.90099"
       fx="225.52438"
       fy="218.90099"
       r="300"
       gradientTransform="matrix(-4.167939e-4,2.182867,-1.884232,-3.599562e-4,615.5972,-289.1214)"
       gradientUnits="userSpaceOnUse" />
    <polygon
       id="star"
       transform="scale(53,53)"
       points="0,-1 0.58778525,0.80901699 -0.95105652,-0.30901699 0.95105652,-0.30901699 -0.58778525,0.80901699 0,-1 " />
    <clipPath
       id="clip">
      <path
         d="M 0,-200 L 0,600 L 300,600 L 300,-200 L 0,-200 z "
         id="path10" />
    </clipPath>
    <radialGradient
       inkscape:collect="always"
       xlink:href="#linearGradient2955"
       id="radialGradient1911"
       gradientUnits="userSpaceOnUse"
       gradientTransform="matrix(-4.167939e-4,2.182867,-1.884232,-3.599562e-4,615.5972,-289.1214)"
       cx="225.52438"
       cy="218.90099"
       fx="225.52438"
       fy="218.90099"
       r="300" />
    <radialGradient
       inkscape:collect="always"
       xlink:href="#linearGradient2955"
       id="radialGradient2865"
       gradientUnits="userSpaceOnUse"
       gradientTransform="matrix(0,1.748721,-1.593162,-1.049767e-7,551.7876,-191.2898)"
       cx="225.52438"
       cy="218.90099"
       fx="225.52438"
       fy="218.90099"
       r="300" />
    <radialGradient
       inkscape:collect="always"
       xlink:href="#linearGradient2955"
       id="radialGradient2871"
       gradientUnits="userSpaceOnUse"
       gradientTransform="matrix(0,1.386237,-1.323286,-5.741131e-8,-158.0823,-109.5408)"
       cx="225.52438"
       cy="218.90099"
       fx="225.52438"
       fy="218.90099"
       r="300" />
    <radialGradient
       inkscape:collect="always"
       xlink:href="#linearGradient2893"
       id="radialGradient3163"
       gradientUnits="userSpaceOnUse"
       gradientTransform="matrix(1.353218,0,0,1.348928,-77.62935,-85.74693)"
       cx="221.44487"
       cy="226.33101"
       fx="221.44487"
       fy="226.33101"
       r="300" />
  </defs>
  <g
     inkscape:groupmode="layer"
     id="layer3"
     inkscape:label="Fond écu"
     style="display:inline">
    <path
       id="path2855"
       style="fill:#e20909;fill-opacity:1;fill-rule:evenodd;stroke:none;stroke-width:1px;stroke-linecap:butt;stroke-linejoin:miter;stroke-opacity:1"
       d="M 300,658.5 C 300,658.5 598.50001,546.17969 598.50001,260.72817 C 598.50001,-24.723354 598.50001,2.1764765 598.50001,2.1764765 L 1.5,2.1764765 L 1.5,260.72817 C 1.5,546.17969 300,658.5 300,658.5 z "
       sodipodi:nodetypes="cccccc" />
    <g
       transform="matrix(0.1971636,0,0,0.1971636,229.11773,18.699908)"
       id="g1878">
      <path
         d="M 407.02914,608.69929 C 408.45371,546.74328 423.7803,489.15982 452.31871,434.59069 C 527.03313,277.40489 755.23905,281.15895 704.93393,473.402 C 686.39707,544.24137 623.42532,585.87586 548.61507,593.01701 C 554.01466,574.35164 583.71536,508.36456 559.73954,495.45545 C 521.40138,496.90385 473.7952,563.16055 462.34672,594.75617 C 460.69402,599.29227 461.15631,604.53418 459.31088,608.99624"
         style="opacity:1;fill:#fcef3c;fill-opacity:1;fill-rule:evenodd;stroke:#000000;stroke-width:6;stroke-linecap:butt;stroke-linejoin:miter;stroke-miterlimit:4;stroke-dasharray:none;stroke-opacity:1;display:inline"
         id="path1876"
         sodipodi:nodetypes="ccscscc" />
      <g
         transform="translate(-38.53215,-48.5769)"
         style="opacity:1;display:inline"
         id="g2295">
        <g
           transform="translate(0,4)"
           style="fill:#fcef3c;fill-opacity:1;stroke:#000000;stroke-width:6;stroke-miterlimit:4;stroke-dasharray:none;stroke-opacity:1"
           id="g13018">
          <path
             d="M 350.52292,657.37224 C 349.09835,595.41623 333.77176,537.83277 305.23335,483.26364 C 230.51893,326.07784 2.3130139,329.8319 52.618133,522.07495 C 71.154997,592.91432 134.12674,634.54881 208.93699,641.68996 C 203.5374,623.02459 173.8367,557.03751 197.81252,544.1284 C 236.15068,545.5768 283.75686,611.8335 295.20534,643.42912 C 296.85804,647.96522 296.39575,653.20713 298.24118,657.66919"
             style="fill:#fcef3c;fill-opacity:1;fill-rule:evenodd;stroke:#000000;stroke-width:6;stroke-linecap:butt;stroke-linejoin:miter;stroke-miterlimit:4;stroke-dasharray:none;stroke-opacity:1"
             id="path1902"
             sodipodi:nodetypes="ccscscc" />
          <path
             d="M 393.6259,57.12017 C 314.9116,141.96961 262.06129,240.08175 284.84465,355.15142 C 297.41422,418.63533 327.88647,477.43115 349.3759,538.58892 C 362.81238,576.95877 366.24813,617.04065 364.65715,657.37017 L 431.4384,657.37017 C 428.24189,616.744 435.24511,577.37193 446.71965,538.58892 C 467.19384,477.05062 498.34544,418.68339 511.2509,355.15142 C 535.37892,236.37223 478.74399,146.7919 402.8134,57.49517 L 398.17297,51.576902 L 393.6259,57.12017 z "
             style="fill:#fcef3c;fill-opacity:1;fill-rule:nonzero;stroke:#000000;stroke-width:6;stroke-linecap:butt;stroke-linejoin:miter;stroke-miterlimit:4;stroke-dasharray:none;stroke-opacity:1"
             id="path3734"
             sodipodi:nodetypes="csccccsccc" />
          <path
             d="M 331.34465,704.40142 C 317.38299,743.53144 260.45647,815.19349 230.21965,835.62017 C 222.37748,840.91802 267.70602,832.5686 288.0009,828.12017 C 314.61991,822.28553 349.21835,793.92258 348.40715,803.93267 C 348.33151,849.77093 361.21819,926.25691 394.8134,961.40142 L 397.99548,964.78902 L 401.28215,961.40142 C 434.85984,922.23047 447.51976,853.35944 447.6884,803.93267 C 446.8772,793.92258 481.47565,822.28553 508.09465,828.12017 C 528.38953,832.5686 573.71807,840.91802 565.8759,835.62017 C 535.63908,815.19349 478.74383,743.53144 464.78215,704.40142 L 331.34465,704.40142 z "
             style="fill:#fcef3c;fill-opacity:1;fill-rule:evenodd;stroke:#000000;stroke-width:6;stroke-linecap:butt;stroke-linejoin:miter;stroke-miterlimit:4;stroke-dasharray:none;stroke-opacity:1"
             id="path6395"
             sodipodi:nodetypes="cssscccssscc" />
          <rect
             width="317.88773"
             height="51.503345"
             x="239.3521"
             y="655.37946"
             style="fill:#fcef3c;fill-opacity:1;stroke:#000000;stroke-width:6;stroke-miterlimit:4;stroke-dasharray:none;stroke-opacity:1"
             id="rect4623" />
        </g>
      </g>
    </g>
    <g
       id="g2372"
       transform="translate(1.9311225,36.69124)">
      <path
         id="path1933"
         d="M 318.46697,564.26591 C 311.11499,562.39368 291.49394,546.1704 288.57117,539.54718 C 285.93045,533.56308 285.19166,533.25365 276.61019,534.53746 C 264.07015,536.41347 247.75168,528.83077 247.75168,521.12776 C 247.75168,516.89512 248.86838,515.89222 253.58116,515.89222 C 264.87473,515.89222 276.63002,507.96468 283.92792,495.42694 C 292.0954,481.39532 294.47978,474.10789 297.38004,454.31319 C 299.88204,437.23658 298.9241,432.68632 293.20894,434.50027 C 289.96923,435.52853 277.97211,431.23894 273.94322,427.61182 C 273.41806,427.13902 275.12828,425.25334 277.74372,423.42146 C 280.35915,421.58952 283.98814,419.00381 283.98814,416.68267 C 292.44873,394.36181 298.88019,367.22955 292.02529,342.61859 C 290.66383,342.16477 286.84246,338.1287 286.84246,333.64955 C 286.84246,323.07034 285.00702,321.537 279.04644,327.13668 L 274.3211,328.86025 L 267.53527,326.78615 L 265.0813,321.46312 L 268.43435,307.65165 C 276.62179,292.2328 277.42304,285.61883 273.61156,264.91563 C 270.32578,247.06796 265.96228,242.0901 261.83985,251.48652 C 260.66078,254.17401 257.49723,256.68515 254.80974,257.06684 C 251.66954,257.51282 249.92339,259.25896 249.92339,261.95319 C 249.92339,265.16357 248.39733,266.14556 243.40826,266.14556 L 236.89313,266.14556 L 236.89313,246.60017 C 236.89313,229.22649 236.45879,227.05478 232.98406,227.05478 C 224.69134,227.05478 221.22425,218.52462 227.12044,212.62842 C 232.04514,207.70372 231.11949,205.42586 222.77702,201.94016 C 211.31632,197.15157 212.6764,191.63366 226.98594,184.86415 C 242.31233,177.61362 267.39932,176.9652 279.87093,183.49726 C 290.50177,189.0652 332.40794,232.27938 337.90488,243.34261 C 340.27878,248.12037 345.25449,256.95599 348.96199,262.97733 C 364.22097,287.75931 366.91159,301.24805 356.88011,302.67275 C 353.16327,303.20062 351.99376,302.291 351.99376,298.87226 C 351.99376,295.7243 350.59814,294.37779 347.33536,294.37779 C 342.86765,294.37779 342.73602,295.02225 344.11997,310.12269 C 344.91362,318.78238 346.52507,351.2766 347.70097,382.33206 C 348.87688,413.38751 350.78047,445.6374 351.93118,453.99849 C 355.35839,478.90081 354.911,485.48828 349.79258,485.48828 C 347.3875,485.48828 343.72274,484.58235 341.64867,483.47511 C 339.5746,482.36786 336.07465,480.897 333.87097,480.20657 C 331.6673,479.51614 329.34402,476.96167 328.70812,474.52996 C 327.19145,468.73024 322.87993,470.2821 321.92466,476.97155 C 321.5116,479.8641 320.2023,483.41382 319.01509,484.85983 C 312.81705,501.20004 308.78927,508.17855 308.55956,522.94018 C 308.55956,534.8706 309.43138,538.03081 314.53177,544.58844 C 317.81648,548.81165 323.68009,554.35299 327.56203,556.90253 C 331.44396,559.45208 334.62008,562.50635 334.62008,563.6898 C 334.62008,565.88709 326.03536,566.19328 318.46697,564.26591 z "
         style="fill:#ffffff"
         sodipodi:nodetypes="csssssssssccscccccsssscccssssssssssssssssssccsssc" />
      <path
         id="path1927"
         d="M 318.46699,564.26591 C 311.11501,562.39368 291.49396,546.1704 288.57119,539.54718 C 285.93048,533.56308 285.19168,533.25365 276.61021,534.53746 C 264.07017,536.41347 247.75168,528.83077 247.75168,521.12776 C 247.75168,516.89514 248.86838,515.89222 253.58116,515.89222 C 264.87475,515.89222 276.63002,507.96468 283.92794,495.42694 C 292.09542,481.39532 294.4798,474.10789 297.38004,454.31319 C 299.88206,437.23658 298.92412,432.68635 293.20896,434.50027 C 289.96925,435.52853 277.97214,431.23897 273.94324,427.61182 C 273.41808,427.13904 275.1283,425.25336 277.74374,423.42146 C 280.35917,421.58954 283.44667,418.46232 283.44667,416.14117 C 297.99889,382.19235 288.38633,415.04652 285.58007,421.40996 C 283.00125,426.38059 282.91616,427.95449 285.14827,429.39542 C 289.89228,432.4579 293.77002,430.40874 298.18053,422.50869 L 302.42407,414.90771 L 301.42843,446.30416 C 300.69548,458.60992 301.76318,475.58213 295.51069,486.59659 C 293.45556,489.07286 294.17044,490.73919 299.11111,494.98901 C 309.6819,505.00036 312.07595,487.40115 315.58811,478.97315 C 322.42619,463.98436 325.93327,455.48719 325.93327,453.90814 C 325.93327,452.52863 334.3613,434.03055 336.21557,431.34032 C 336.57232,430.82271 337.90542,431.44046 339.17803,432.71306 C 340.76524,434.30029 340.79923,436.3007 339.28626,439.0834 C 336.24496,444.67703 331.92071,469.8473 333.54858,472.48119 C 338.78755,474.732 343.51539,479.61244 348.90954,480.60956 C 349.58749,479.93164 348.6042,464.61817 346.72454,446.5796 C 344.84486,428.54103 343.23437,399.86503 343.14563,382.85516 C 342.97567,350.27399 338.65957,297.10386 334.99381,282.43338 C 333.79998,277.65562 330.29571,266.56773 327.20654,257.79362 C 325.19612,245.55044 321.16901,236.25441 314.69942,223.84423 C 305.27531,211.34301 293.05123,195.38128 278.75423,187.68104 C 264.0634,181.0507 260.97119,179.52303 236.08235,185.12828 C 231.6032,185.91369 226.94271,189.92892 224.07116,191.73464 C 219.09121,194.86621 219.04109,195.1193 222.98531,197.21675 C 236.01487,204.14559 242.26729,218.36794 232.28381,218.36794 C 228.51737,218.36794 228.14926,218.94004 230.27087,221.49641 C 233.53252,225.42647 237.44206,224.01933 240.19657,217.92389 C 241.36579,215.33656 243.544,212.83067 245.03705,212.35525 C 249.39319,210.96816 248.18192,219.4771 243.40826,223.79721 C 239.72009,227.13496 239.06484,230.48601 239.06484,246.01014 C 239.06484,262.2496 239.48948,264.21147 242.86534,263.56871 C 246.00917,262.97012 246.87735,259.65929 247.89002,244.407 L 249.11419,225.96892 L 249.5188,240.77901 C 249.90179,254.79778 250.18448,255.55202 254.80974,254.89512 C 258.36822,254.38974 259.88976,252.50629 260.4088,247.96439 C 260.80079,244.53416 260.06784,240.67395 258.78002,239.38613 C 255.39951,236.00562 255.72297,222.09017 259.15316,223.33285 C 260.64621,223.87375 263.58401,222.82103 265.6816,220.99348 C 271.98997,215.49727 272.54644,219.83114 266.33049,226.04707 C 258.31862,234.05896 260.47884,237.54361 269.00829,230.36657 C 274.60103,225.66059 275.98394,222.86582 275.98394,216.26909 C 275.98394,205.10241 271.31198,201.32279 265.13915,207.49563 C 259.24572,213.38904 249.64574,212.60828 246.74503,205.99965 C 245.59418,203.37763 242.41805,200.67152 239.68697,199.98607 C 236.95592,199.30062 234.72142,197.83882 234.72142,196.73763 C 234.72142,193.58077 238.79851,191.88013 241.77948,193.79355 C 246.86358,197.05695 264.02439,200.67828 264.7634,198.64371 C 265.94286,195.39678 275.22182,196.37336 278.28732,200.06707 C 283.16815,205.9481 280.93248,222.90683 274.37216,229.7656 C 268.89537,235.49157 266.10279,244.42846 269.79037,244.42846 C 270.76241,244.42846 272.17096,246.87163 272.92043,249.85773 C 278.46342,259.15762 279.95239,268.5736 279.35406,279.71874 C 278.1837,293.38667 276.32233,300.41656 271.50452,309.36365 C 265.60019,320.32854 265.43442,321.2782 268.95774,323.95362 C 274.28807,328.00116 275.12678,327.74184 280.32736,320.43831 C 282.87888,316.85498 285.84361,313.92318 286.91556,313.92318 C 287.98754,313.92318 289.58116,319.05384 290.45697,325.32466 C 291.33278,331.59547 292.41535,335.01592 292.86273,332.92565 C 293.31008,330.83537 294.5817,329.12515 295.68856,329.12515 C 298.36106,329.12515 298.27018,336.37417 295.56375,339.08058 C 293.03095,341.6134 297.42432,379.41165 300.49483,381.50498 C 302.35214,382.77122 298.79265,413.45416 296.5254,415.7214 C 294.05519,418.19159 292.69118,413.21599 294.87842,409.71367 C 296.22167,407.56281 297.50093,401.98794 297.72128,397.32511 C 298.27717,385.5608 297.98295,383.41791 295.81173,383.41791 C 294.07771,383.41791 291.9609,401.69428 289.72365,410.42171 C 281.66122,424.90648 284.67466,413.02818 287.68159,405.67794 C 292.15631,385.81522 293.46053,371.87462 292.15119,357.90208 C 292.92275,348.87521 287.15932,342.3029 286.84249,333.83051 C 286.84249,323.06973 283.27126,323.40962 277.28664,329.03188 C 272.62784,332.2226 270.64885,329.08746 267.53529,326.78613 C 261.12234,324.81808 263.48199,313.13008 268.43438,307.65165 C 276.62181,292.2328 277.42306,285.61883 273.61158,264.91563 C 270.32581,247.06796 265.9623,242.09009 261.83985,251.48651 C 260.66078,254.174 257.49723,256.68515 254.80974,257.06683 C 251.66954,257.51281 249.92339,259.25896 249.92339,261.95318 C 249.92339,265.16357 248.39733,266.14556 243.40826,266.14556 L 236.89313,266.14556 L 236.89313,246.60017 C 236.89313,229.22649 236.45879,227.05478 232.98406,227.05478 C 224.69134,227.05478 221.22425,218.52461 227.12044,212.62842 C 232.04514,207.70371 231.11949,205.42586 222.77702,201.94015 C 211.31632,197.15157 212.6764,191.63365 226.98594,184.86414 C 242.31233,177.61361 267.39934,176.9652 279.87095,183.49725 C 290.5018,189.0652 332.40796,232.27938 337.9049,243.3426 C 340.2788,248.12036 345.25451,256.95599 348.96201,262.97733 C 364.22099,287.75931 366.91161,301.24805 356.88013,302.67274 C 353.16329,303.20062 351.99379,302.29099 351.99379,298.87225 C 351.99379,295.72429 350.59814,294.37779 347.33538,294.37779 C 342.86767,294.37779 342.73605,295.02225 344.11997,310.12268 C 344.91362,318.78238 346.52509,351.2766 347.70097,382.33206 C 348.87688,413.38751 350.78049,445.6374 351.9312,453.99849 C 355.35842,478.90081 354.91102,485.48828 349.79258,485.48828 C 347.3875,485.48828 343.72274,484.58235 341.64867,483.47511 C 339.5746,482.36786 336.07467,480.89703 333.871,480.20657 C 331.6673,479.51614 329.34404,476.96167 328.70815,474.52996 C 327.19147,468.73024 322.87993,470.2821 321.92468,476.97155 C 317.93119,492.32402 311.71634,507.24462 308.55959,522.94018 C 308.55959,534.8706 309.43138,538.03081 314.53179,544.58844 C 317.81648,548.81165 323.68009,554.35299 327.56205,556.90253 C 331.44398,559.45208 334.62011,562.50635 334.62011,563.6898 C 334.62011,565.88709 326.03536,566.19328 318.46699,564.26591 z M 319.41023,556.58874 C 318.58429,553.90125 308.44629,541.37155 306.31219,539.33405 C 303.37513,536.52989 302.71406,533.52668 303.59245,526.97789 C 313.1951,494.99503 290.25522,494.41651 287.38541,501.00517 C 283.45323,508.55156 272.75519,516.83894 263.88907,519.03473 C 255.0493,520.69307 254.48375,523.19811 261.85824,528.03006 C 268.3471,532.28173 281.84753,530.56353 286.12274,524.94195 C 288.51748,521.793 288.90309,522.31138 289.08358,528.92248 C 289.25387,535.15981 291.04613,537.98453 299.07369,544.66738 C 310.3117,554.02291 321.56481,563.59965 319.41023,556.58874 z M 358.50892,293.47198 C 358.50892,286.5484 351.39027,270.1506 346.69182,266.25121 C 344.64378,264.5515 340.46924,258.21309 337.41503,252.16586 C 331.68641,240.82342 323.68151,229.34278 323.86619,232.7341 C 323.92374,233.79102 328.57465,247.36026 334.20155,262.88799 C 343.46596,288.45367 344.89192,291.05605 349.29889,290.44078 C 352.98669,289.92592 354.1655,290.84648 354.1655,294.24128 C 354.1655,296.70524 355.14274,298.72121 356.33721,298.72121 C 357.53165,298.72121 358.50892,296.35905 358.50892,293.47198 z M 256.43852,205.33768 C 256.43852,204.14324 255.46125,203.16597 254.26681,203.16597 C 253.07237,203.16597 252.0951,204.14324 252.0951,205.33768 C 252.0951,206.53212 253.07237,207.50939 254.26681,207.50939 C 255.46125,207.50939 256.43852,206.53212 256.43852,205.33768 z M 307.20509,464.94008 C 306.5351,463.19409 307.51719,458.698 309.38755,454.94878 C 311.25791,451.19954 313.45106,444.59872 314.26119,440.28023 C 315.07137,435.96176 317.65288,428.09101 319.99792,422.78965 C 323.84302,414.09716 324.16404,409.50586 323.2676,376.02435 C 322.72087,355.60478 322.65383,346.22394 323.11853,355.17808 C 323.58328,364.13221 324.89536,372.39014 326.03423,373.52903 C 331.69579,379.19057 326.5795,428.38063 318.34223,447.48336 C 316.79708,451.06668 314.86349,457.17461 314.04537,461.05654 C 312.4818,468.47565 309.26307,470.30308 307.20509,464.94008 z M 305.51441,342.69834 C 303.25508,318.68834 302.28402,301.60346 303.5086,307.40805 C 304.13861,310.39415 305.40722,313.32596 306.32776,313.92318 C 308.92928,315.61094 311.51233,357.35739 309.01523,357.35739 C 307.8485,357.35739 306.27312,350.76082 305.51441,342.69834 z M 330.27669,322.97196 C 330.27669,319.18957 329.43421,316.09489 328.4045,316.09489 C 327.37482,316.09489 325.85771,308.65015 325.0332,299.55102 C 323.7042,284.88497 321.80745,279.56057 308.32252,252.64209 C 298.39401,232.82284 293.34241,220.27828 293.77725,216.52198 C 294.32665,211.7759 296.06159,214.09057 303.67324,229.72476 C 307.76613,239.53178 311.72179,248.62891 317.89579,256.91579 C 318.53156,259.00606 320.97675,265.77116 323.32956,271.94935 C 327.61265,283.19631 333.83488,326.29085 331.51113,328.61458 C 330.83221,329.29355 330.27669,326.75436 330.27669,322.97196 z M 274.50437,315.82342 C 275.18368,314.18107 277.99331,305.76126 280.74804,297.11275 C 285.31236,282.78299 289.0142,276.99222 289.0142,284.18207 C 289.0142,290.26156 278.77035,316.97584 276.09745,317.8668 C 274.37166,318.44207 273.75072,317.64559 274.50437,315.82342 z M 298.23291,291.65988 C 296.92927,288.97419 294.26376,279.44728 292.30955,270.48898 C 290.35533,261.53067 287.76944,252.39577 286.56314,250.18918 C 285.35682,247.9826 284.92615,245.62086 285.60615,244.94088 C 287.6901,242.85694 289.31068,245.84629 291.41756,255.66084 C 292.52731,260.83021 294.33808,267.01424 295.4415,269.40312 C 297.59145,274.0577 302.11358,295.03257 301.17045,295.97569 C 300.85846,296.28768 299.53659,294.34557 298.23291,291.65988 z "
         style="fill:#000000;fill-opacity:1"
         sodipodi:nodetypes="csssssssssccsccccccssssccsssccccssssssssscccsssssssssssssssssccssssssssssssscccccccsssscccsssssssssssssssssccsssccscccssssccsssssssccsssccssssssssccsssccssssccssccsssccssssssc" />
    </g>
  </g>
  <g
     inkscape:groupmode="layer"
     id="layer4"
     inkscape:label="Meubles"
     sodipodi:insensitive="true" />
  <g
     inkscape:groupmode="layer"
     id="layer2"
     inkscape:label="Reflet final"
     sodipodi:insensitive="true">
    <path
       sodipodi:nodetypes="cccccc"
       d="M 300.00001,658.5 C 300.00001,658.5 598.50001,546.17969 598.50001,260.72817 C 598.50001,-24.723334 598.50001,2.1764865 598.50001,2.1764865 L 1.5,2.1764865 L 1.5,260.72817 C 1.5,546.17969 300.00001,658.5 300.00001,658.5 z "
       style="opacity:1;fill:url(#radialGradient3163);fill-opacity:1;fill-rule:evenodd;stroke:none;stroke-width:1px;stroke-linecap:butt;stroke-linejoin:miter;stroke-opacity:1"
       id="path2875"
       inkscape:export-xdpi="144"
       inkscape:export-ydpi="144" />
  </g>
  <g
     inkscape:groupmode="layer"
     id="layer1"
     inkscape:label="Contour final"
     sodipodi:insensitive="true">
    <path
       sodipodi:nodetypes="cccccc"
       d="M 299.99999,658.50028 C 299.99999,658.50028 1.5,546.17992 1.5,260.72828 C 1.5,-24.723336 1.5,2.1764957 1.5,2.1764957 L 598.49999,2.1764957 L 598.49999,260.72828 C 598.49999,546.17992 299.99999,658.50028 299.99999,658.50028 z "
       style="opacity:1;fill:none;fill-opacity:1;fill-rule:evenodd;stroke:#000000;stroke-width:3.00000048;stroke-linecap:butt;stroke-linejoin:miter;stroke-miterlimit:4;stroke-dasharray:none;stroke-opacity:1"
       id="path1411"
       inkscape:export-xdpi="144"
       inkscape:export-ydpi="144" />
  </g>
</svg>
