<?xml version="1.0" encoding="UTF-8" standalone="no"?>
<svg
   xmlns:dc="http://purl.org/dc/elements/1.1/"
   xmlns:cc="http://creativecommons.org/ns#"
   xmlns:rdf="http://www.w3.org/1999/02/22-rdf-syntax-ns#"
   xmlns:svg="http://www.w3.org/2000/svg"
   xmlns="http://www.w3.org/2000/svg"
   xmlns:xlink="http://www.w3.org/1999/xlink"
   xmlns:sodipodi="http://sodipodi.sourceforge.net/DTD/sodipodi-0.dtd"
   xmlns:inkscape="http://www.inkscape.org/namespaces/inkscape"
   height="660"
   width="600"
   version="1.0"
   id="svg2"
   sodipodi:version="0.32"
   inkscape:version="0.46"
   sodipodi:docname="Blason Vaires-sur-Marne.svg"
   sodipodi:docbase="D:\Mes documents\Renaud-Notre Lapin"
   inkscape:export-filename="/Users/olivier/Desktop/Blason Rouge/Blason_Vide_3D.png"
   inkscape:export-xdpi="144"
   inkscape:export-ydpi="144"
   inkscape:output_extension="org.inkscape.output.svg.inkscape">
  <metadata
     id="metadata49">
    <rdf:RDF>
      <cc:Work
         rdf:about="">
        <dc:format>image/svg+xml</dc:format>
        <dc:type
           rdf:resource="http://purl.org/dc/dcmitype/StillImage" />
        <dc:title>Gabarit d'un blason en pointe pour le projet Blasons de Wikipédia</dc:title>
        <dc:date>03-AUG-2006</dc:date>
        <dc:creator>
          <cc:Agent>
            <dc:title>Jérôme BLUM (wagner51)</dc:title>
          </cc:Agent>
        </dc:creator>
        <cc:license
           rdf:resource="http://web.resource.org/cc/PublicDomain" />
        <dc:language>fr</dc:language>
        <dc:subject>
          <rdf:Bag>
            <rdf:li>gabarit modèle blason projet wikipédia</rdf:li>
          </rdf:Bag>
        </dc:subject>
      </cc:Work>
      <cc:License
         rdf:about="http://web.resource.org/cc/PublicDomain">
        <cc:permits
           rdf:resource="http://web.resource.org/cc/Reproduction" />
        <cc:permits
           rdf:resource="http://web.resource.org/cc/Distribution" />
        <cc:permits
           rdf:resource="http://web.resource.org/cc/DerivativeWorks" />
      </cc:License>
    </rdf:RDF>
  </metadata>
  <sodipodi:namedview
     inkscape:window-height="814"
     inkscape:window-width="1152"
     inkscape:pageshadow="2"
     inkscape:pageopacity="0.0"
     guidetolerance="10.0"
     gridtolerance="10.0"
     objecttolerance="10.0"
     borderopacity="1.0"
     bordercolor="#666666"
     pagecolor="#ffffff"
     id="base"
     showgrid="false"
     height="660px"
     inkscape:zoom="0.92252531"
     inkscape:cx="300.61375"
     inkscape:cy="329.92775"
     inkscape:window-x="120"
     inkscape:window-y="176"
     inkscape:current-layer="layer3" />
  <desc
     id="desc4">Flag of Canton of Valais (Wallis)</desc>
  <defs
     id="defs6">
    <clipPath
       clipPathUnits="userSpaceOnUse"
       id="clipPath3747">
      <g
         id="g3749"
         style="display:inline"
         transform="translate(39.999996,173.447)">
        <path
           id="path3751"
           style="fill:none;fill-opacity:1;fill-rule:evenodd;stroke:#000000;stroke-width:3;stroke-linecap:butt;stroke-linejoin:miter;stroke-miterlimit:4;stroke-dasharray:none;stroke-opacity:1"
           d="M 598.5,3 C 598.5,3.0005208 598.5,2.1875 598.5,2.1875 M 1.5,2.1875 L 1.5,260.71875 C 1.5,546.17026 300,658.5 300,658.5 C 300,658.5 300.77849,658.19826 300.96875,658.125 L 3,3 M 598.5,6.3125 L 302.28125,657.59375 C 325.57892,648.33192 598.5,534.01797 598.5,260.71875 C 598.50001,-20.178257 598.5,5.5527825 598.5,6.3125 z" />
      </g>
    </clipPath>
    <inkscape:perspective
       sodipodi:type="inkscape:persp3d"
       inkscape:vp_x="0 : 330 : 1"
       inkscape:vp_y="0 : 1000 : 0"
       inkscape:vp_z="600 : 330 : 1"
       inkscape:persp3d-origin="300 : 220 : 1"
       id="perspective21" />
    <linearGradient
       id="linearGradient2893">
      <stop
         style="stop-color:white;stop-opacity:0.3137255;"
         offset="0"
         id="stop2895" />
      <stop
         id="stop2897"
         offset="0.19"
         style="stop-color:white;stop-opacity:0.25098041;" />
      <stop
         style="stop-color:#6b6b6b;stop-opacity:0.1254902;"
         offset="0.60000002"
         id="stop2901" />
      <stop
         style="stop-color:black;stop-opacity:0.1254902;"
         offset="1"
         id="stop2899" />
    </linearGradient>
    <radialGradient
       inkscape:collect="always"
       xlink:href="#linearGradient2893"
       id="radialGradient3163"
       gradientUnits="userSpaceOnUse"
       gradientTransform="matrix(1.353218,0,0,1.348928,-77.62935,-85.74693)"
       cx="221.44487"
       cy="226.33101"
       fx="221.44487"
       fy="226.33101"
       r="300" />
    <linearGradient
       id="linearGradient2230">
      <stop
         id="stop2232"
         offset="0"
         style="stop-color:#ffffff;stop-opacity:0.3137255" />
      <stop
         id="stop2234"
         offset="0.19"
         style="stop-color:#ffffff;stop-opacity:0.25098041" />
      <stop
         id="stop2236"
         offset="0.60000002"
         style="stop-color:#6b6b6b;stop-opacity:0.1254902" />
      <stop
         id="stop2238"
         offset="1"
         style="stop-color:#000000;stop-opacity:0.1254902" />
    </linearGradient>
    <linearGradient
       id="linearGradient2240">
      <stop
         id="stop2242"
         offset="0"
         style="stop-color:#ffffff;stop-opacity:1" />
      <stop
         id="stop2244"
         offset="0.22857143"
         style="stop-color:#ffffff;stop-opacity:1" />
      <stop
         id="stop2246"
         offset="1"
         style="stop-color:#000000;stop-opacity:1" />
    </linearGradient>
    <linearGradient
       id="linearGradient2248">
      <stop
         id="stop2250"
         offset="0"
         style="stop-color:#fd0000;stop-opacity:1" />
      <stop
         id="stop2252"
         offset="0.5"
         style="stop-color:#e77275;stop-opacity:0.65882355" />
      <stop
         id="stop2254"
         offset="1"
         style="stop-color:#000000;stop-opacity:0.32291666" />
    </linearGradient>
    <radialGradient
       gradientTransform="matrix(-4.167939e-4,2.182867,-1.884232,-3.599562e-4,615.5972,-289.1214)"
       gradientUnits="userSpaceOnUse"
       xlink:href="#linearGradient2955"
       id="radialGradient2256"
       fy="218.90099"
       fx="225.52438"
       r="300"
       cy="218.90099"
       cx="225.52438" />
    <polygon
       id="polygon2258"
       transform="scale(53,53)"
       points="0,-1 0.58778525,0.80901699 -0.95105652,-0.30901699 0.95105652,-0.30901699 -0.58778525,0.80901699 0,-1 " />
    <clipPath
       id="clipPath2260">
      <path
         id="path2262"
         d="M 0,-200 L 0,600 L 300,600 L 300,-200 L 0,-200 z " />
    </clipPath>
    <radialGradient
       gradientTransform="matrix(-4.167939e-4,2.182867,-1.884232,-3.599562e-4,615.5972,-289.1214)"
       gradientUnits="userSpaceOnUse"
       xlink:href="#linearGradient2955"
       id="radialGradient2264"
       fy="218.90099"
       fx="225.52438"
       r="300"
       cy="218.90099"
       cx="225.52438" />
    <radialGradient
       gradientTransform="matrix(0,1.748721,-1.593162,-1.049767e-7,551.7876,-191.2898)"
       gradientUnits="userSpaceOnUse"
       xlink:href="#linearGradient2955"
       id="radialGradient2266"
       fy="218.90099"
       fx="225.52438"
       r="300"
       cy="218.90099"
       cx="225.52438" />
    <radialGradient
       gradientTransform="matrix(0,1.386237,-1.323286,-5.741131e-8,-158.0823,-109.5408)"
       gradientUnits="userSpaceOnUse"
       xlink:href="#linearGradient2955"
       id="radialGradient2268"
       fy="218.90099"
       fx="225.52438"
       r="300"
       cy="218.90099"
       cx="225.52438" />
    <radialGradient
       gradientTransform="matrix(1.353218,0,0,1.348928,-77.62935,-85.74693)"
       gradientUnits="userSpaceOnUse"
       xlink:href="#linearGradient2893"
       id="radialGradient3901"
       fy="226.33101"
       fx="221.44487"
       r="300"
       cy="226.33101"
       cx="221.44487" />
    <radialGradient
       gradientTransform="matrix(0,1.386237,-1.323286,-5.741131e-8,-158.0823,-109.5408)"
       gradientUnits="userSpaceOnUse"
       xlink:href="#linearGradient2955"
       id="radialGradient2871"
       fy="218.90099"
       fx="225.52438"
       r="300"
       cy="218.90099"
       cx="225.52438" />
    <radialGradient
       gradientTransform="matrix(0,1.748721,-1.593162,-1.049767e-7,551.7876,-191.2898)"
       gradientUnits="userSpaceOnUse"
       xlink:href="#linearGradient2955"
       id="radialGradient2865"
       fy="218.90099"
       fx="225.52438"
       r="300"
       cy="218.90099"
       cx="225.52438" />
    <radialGradient
       gradientTransform="matrix(-4.167939e-4,2.182867,-1.884232,-3.599562e-4,615.5972,-289.1214)"
       gradientUnits="userSpaceOnUse"
       xlink:href="#linearGradient2955"
       id="radialGradient1911"
       fy="218.90099"
       fx="225.52438"
       r="300"
       cy="218.90099"
       cx="225.52438" />
    <clipPath
       id="clip">
      <path
         id="path10"
         d="M 0,-200 L 0,600 L 300,600 L 300,-200 L 0,-200 z " />
    </clipPath>
    <polygon
       id="star"
       transform="scale(53,53)"
       points="0,-1 0.58778525,0.80901699 -0.95105652,-0.30901699 0.95105652,-0.30901699 -0.58778525,0.80901699 0,-1 " />
    <radialGradient
       gradientTransform="matrix(-4.167939e-4,2.182867,-1.884232,-3.599562e-4,615.5972,-289.1214)"
       gradientUnits="userSpaceOnUse"
       xlink:href="#linearGradient2955"
       id="radialGradient2961"
       fy="218.90099"
       fx="225.52438"
       r="300"
       cy="218.90099"
       cx="225.52438" />
    <linearGradient
       id="linearGradient2955">
      <stop
         id="stop2867"
         offset="0"
         style="stop-color:#fd0000;stop-opacity:1" />
      <stop
         id="stop2873"
         offset="0.5"
         style="stop-color:#e77275;stop-opacity:0.65882355" />
      <stop
         id="stop2959"
         offset="1"
         style="stop-color:#000000;stop-opacity:0.32291666" />
    </linearGradient>
    <linearGradient
       id="linearGradient2885">
      <stop
         id="stop2887"
         offset="0"
         style="stop-color:#ffffff;stop-opacity:1" />
      <stop
         id="stop2891"
         offset="0.22857143"
         style="stop-color:#ffffff;stop-opacity:1" />
      <stop
         id="stop2889"
         offset="1"
         style="stop-color:#000000;stop-opacity:1" />
    </linearGradient>
    <linearGradient
       id="linearGradient3876">
      <stop
         id="stop3878"
         offset="0"
         style="stop-color:#ffffff;stop-opacity:0.3137255" />
      <stop
         id="stop3880"
         offset="0.19"
         style="stop-color:#ffffff;stop-opacity:0.25098041" />
      <stop
         id="stop3882"
         offset="0.60000002"
         style="stop-color:#6b6b6b;stop-opacity:0.1254902" />
      <stop
         id="stop3884"
         offset="1"
         style="stop-color:#000000;stop-opacity:0.1254902" />
    </linearGradient>
    <inkscape:perspective
       id="perspective51"
       inkscape:persp3d-origin="300 : 220 : 1"
       inkscape:vp_z="600 : 330 : 1"
       inkscape:vp_y="0 : 1000 : 0"
       inkscape:vp_x="0 : 330 : 1"
       sodipodi:type="inkscape:persp3d" />
  </defs>
  <g
     inkscape:groupmode="layer"
     id="layer3"
     inkscape:label="Fond écu"
     style="display:inline">
    <path
       id="path2855"
       style="fill:#ffffff;fill-opacity:1;fill-rule:evenodd;stroke:none;stroke-width:1px;stroke-linecap:butt;stroke-linejoin:miter;stroke-opacity:1"
       d="M 300,658.5 C 300,658.5 598.50001,546.17969 598.50001,260.72817 C 598.50001,-24.723354 598.50001,2.1764765 598.50001,2.1764765 L 1.5,2.1764765 L 1.5,260.72817 C 1.5,546.17969 300,658.5 300,658.5 z"
       sodipodi:nodetypes="cccccc" />
    <path
       style="display:inline;fill:#2b5df2;fill-opacity:1;fill-rule:evenodd;stroke:#000000;stroke-width:3;stroke-linecap:butt;stroke-linejoin:miter;stroke-opacity:1;stroke-miterlimit:4;stroke-dasharray:none"
       d="M 76.125 2.1875 L 76.125 84.21875 L 150.75 84.21875 L 150.75 2.1875 L 76.125 2.1875 z M 150.75 84.21875 L 150.75 166.25 L 225.375 166.25 L 225.375 84.21875 L 150.75 84.21875 z M 225.375 84.21875 L 300 84.21875 L 300 2.1875 L 225.375 2.1875 L 225.375 84.21875 z M 300 84.21875 L 300 166.25 L 374.625 166.25 L 374.625 84.21875 L 300 84.21875 z M 374.625 84.21875 L 449.25 84.21875 L 449.25 2.1875 L 374.625 2.1875 L 374.625 84.21875 z M 449.25 84.21875 L 449.25 166.25 L 523.875 166.25 L 523.875 84.21875 L 449.25 84.21875 z M 523.875 84.21875 L 598.46875 84.21875 L 598.46875 2.1875 L 523.875 2.1875 L 523.875 84.21875 z M 523.875 166.25 L 523.875 248.3125 L 598.46875 248.3125 L 598.46875 166.25 L 523.875 166.25 z M 523.875 248.3125 L 449.25 248.3125 L 449.25 330.34375 L 523.875 330.34375 L 523.875 248.3125 z M 523.875 330.34375 L 523.875 412.375 L 567.15625 412.375 C 578.2155 387.19741 586.88638 359.89542 592.28125 330.34375 L 523.875 330.34375 z M 523.875 412.375 L 449.25 412.375 L 449.25 494.40625 L 518.3125 494.40625 C 520.18389 491.96774 522.0424 489.49811 523.875 487 L 523.875 412.375 z M 449.25 494.40625 L 374.625 494.40625 L 374.625 576.46875 L 437.40625 576.46875 C 441.34909 573.28961 445.29606 570.03459 449.25 566.65625 L 449.25 494.40625 z M 374.625 576.46875 L 300 576.46875 L 300 658.5 C 300 658.5 331.78763 646.51146 374.625 620.46875 L 374.625 576.46875 z M 300 576.46875 L 300 494.40625 L 225.375 494.40625 L 225.375 576.46875 L 300 576.46875 z M 225.375 576.46875 L 162.59375 576.46875 C 184.49195 594.12543 206.06318 608.72825 225.375 620.46875 L 225.375 576.46875 z M 225.375 494.40625 L 225.375 412.375 L 150.75 412.375 L 150.75 494.40625 L 225.375 494.40625 z M 150.75 494.40625 L 81.6875 494.40625 C 103.08735 522.29136 126.92024 546.29549 150.75 566.65625 L 150.75 494.40625 z M 150.75 412.375 L 150.75 330.34375 L 76.125 330.34375 L 76.125 412.375 L 150.75 412.375 z M 76.125 412.375 L 32.84375 412.375 C 44.862811 439.7377 59.673175 464.57362 76.125 487 L 76.125 412.375 z M 76.125 330.34375 L 76.125 248.3125 L 1.5 248.3125 L 1.5 260.71875 C 1.5 285.18052 3.7102991 308.38653 7.71875 330.34375 L 76.125 330.34375 z M 76.125 248.3125 L 150.75 248.3125 L 150.75 166.25 L 76.125 166.25 L 76.125 248.3125 z M 76.125 166.25 L 76.125 84.21875 L 1.5 84.21875 L 1.5 166.25 L 76.125 166.25 z M 150.75 248.3125 L 150.75 330.34375 L 225.375 330.34375 L 225.375 248.3125 L 150.75 248.3125 z M 225.375 248.3125 L 300 248.3125 L 300 166.25 L 225.375 166.25 L 225.375 248.3125 z M 300 248.3125 L 300 330.34375 L 374.625 330.34375 L 374.625 248.3125 L 300 248.3125 z M 374.625 248.3125 L 449.25 248.3125 L 449.25 166.25 L 374.625 166.25 L 374.625 248.3125 z M 374.625 330.34375 L 374.625 412.375 L 449.25 412.375 L 449.25 330.34375 L 374.625 330.34375 z M 374.625 412.375 L 300 412.375 L 300 494.40625 L 374.625 494.40625 L 374.625 412.375 z M 300 412.375 L 300 330.34375 L 225.375 330.34375 L 225.375 412.375 L 300 412.375 z "
       id="path4398" />
    <g
       id="g3923"
       style="fill:#fcef3c;display:inline"
       transform="translate(0,0.1444919)">
      <path
         id="path3925"
         style="fill:#fcef3c;fill-opacity:1;fill-rule:evenodd;stroke:#000000;stroke-width:3;stroke-linecap:butt;stroke-linejoin:miter;stroke-miterlimit:4;stroke-dasharray:none;stroke-opacity:1"
         d="M 598.5,3 C 598.5,3.0005208 598.5,2.1875 598.5,2.1875 M 1.5,2.1875 L 1.5,260.71875 C 1.5,546.17026 300,658.5 300,658.5 C 300,658.5 300.77849,658.19826 300.96875,658.125 L 3,3 M 598.5,6.3125 L 302.28125,657.59375 C 325.57892,648.33192 598.5,534.01797 598.5,260.71875 C 598.50001,-20.178257 598.5,5.5527825 598.5,6.3125 z" />
    </g>
    <path
       id="path3164"
       d="M 113.28125,175.5787 L 77.718751,211.98495 L 77.718751,272.2037 L 41.687501,309.04745 L 41.687501,310.35995 L 189.65625,310.35995 L 152.34375,272.2037 L 152.34375,211.98495 L 116.90625,175.5787 L 113.28125,175.5787 z M 189.65625,310.35995 L 338.875,310.35995 L 301.625,272.2037 L 301.625,211.98495 L 266.0625,175.5787 L 262.5,175.5787 L 227.03125,211.98495 L 227.03125,272.2037 L 189.65625,310.35995 z M 189.65625,310.35995 L 152.34375,348.5787 L 152.34375,408.7662 L 115.09375,446.92245 L 264.28125,446.92245 L 227.03125,408.7662 L 227.03125,348.5787 L 189.65625,310.35995 z M 264.28125,446.92245 L 413.53125,446.92245 L 376.25,408.7662 L 376.25,348.5787 L 338.875,310.35995 L 301.625,348.5787 L 301.625,408.7662 L 264.28125,446.92245 z M 264.28125,446.92245 L 227.03125,485.10995 L 227.03125,545.3912 L 189.65625,583.48495 L 338.875,583.48495 L 301.625,545.3912 L 301.625,485.10995 L 264.28125,446.92245 z M 338.875,583.48495 L 488.1875,583.48495 L 450.8125,545.3912 L 450.8125,485.10995 L 413.53125,446.92245 L 376.25,485.10995 L 376.25,545.3912 L 338.875,583.48495 z M 338.875,583.48495 L 301.625,621.7037 L 301.625,681.85995 L 264.28125,719.98495 L 413.53125,719.98495 L 376.25,681.85995 L 376.25,621.7037 L 338.875,583.48495 z M 413.53125,719.98495 L 510.84375,719.98495 C 519.59698,711.60116 528.23114,702.71545 536.65625,693.29745 L 525.46875,681.85995 L 525.46875,621.7037 L 488.1875,583.48495 L 450.8125,621.7037 L 450.8125,681.85995 L 413.53125,719.98495 z M 413.53125,719.98495 L 376.25,758.23495 L 376.25,814.85995 C 396.16043,804.71088 422.50315,789.71985 450.8125,769.5162 L 450.8125,758.23495 L 413.53125,719.98495 z M 488.1875,583.48495 L 607.78125,583.48495 C 610.81041,576.48332 613.67041,569.31716 616.3125,561.98495 L 600.03125,545.3912 L 600.03125,485.10995 L 562.78125,446.92245 L 525.46875,485.10995 L 525.46875,545.3912 L 488.1875,583.48495 z M 562.78125,446.92245 L 525.46875,408.7662 L 525.46875,348.5787 L 488.1875,310.35995 L 450.8125,348.5787 L 450.8125,408.7662 L 413.53125,446.92245 L 562.78125,446.92245 z M 562.78125,446.92245 L 638.09375,446.92245 C 638.23588,442.56691 638.3125,438.174 638.3125,433.73495 C 638.3125,298.54831 638.3125,342.4069 638.3125,311.29745 L 637.40625,310.35995 L 600.03125,348.5787 L 600.03125,408.7662 L 562.78125,446.92245 z M 637.40625,310.35995 L 600.03125,272.2037 L 600.03125,211.98495 L 564.5625,175.5787 L 561,175.5787 L 525.46875,211.98495 L 525.46875,272.2037 L 488.1875,310.35995 L 637.40625,310.35995 z M 637.40625,310.35995 L 638.3125,310.35995 C 638.3125,310.12572 638.3125,309.65274 638.3125,309.42245 L 637.40625,310.35995 z M 488.1875,310.35995 L 450.8125,272.2037 L 450.8125,211.98495 L 415.3125,175.5787 L 411.75,175.5787 L 376.25,211.98495 L 376.25,272.2037 L 338.875,310.35995 L 488.1875,310.35995 z M 264.28125,719.98495 L 227.03125,758.23495 L 227.03125,768.2662 C 255.19696,788.52781 281.5091,803.61102 301.625,813.9537 L 301.625,758.23495 L 264.28125,719.98495 z M 264.28125,719.98495 L 227.03125,681.85995 L 227.03125,621.7037 L 189.65625,583.48495 L 152.34375,621.7037 L 152.34375,681.85995 L 142.09375,692.3287 C 150.79318,702.10891 159.72611,711.31199 168.78125,719.98495 L 264.28125,719.98495 z M 189.65625,583.48495 L 152.34375,545.3912 L 152.34375,485.10995 L 115.09375,446.92245 L 77.718751,485.10995 L 77.718751,545.3912 L 62.812501,560.60995 C 65.592701,568.4227 68.625191,576.04555 71.843751,583.48495 L 189.65625,583.48495 z M 115.09375,446.92245 L 77.718751,408.7662 L 77.718751,348.5787 L 41.687501,311.6412 L 41.687501,446.92245 L 115.09375,446.92245 z"
       style="fill:#e20909;fill-opacity:1;fill-rule:evenodd;stroke:#000000;stroke-width:3;stroke-linecap:butt;stroke-linejoin:miter;stroke-miterlimit:4;stroke-dasharray:none;stroke-opacity:1;display:inline"
       clip-path="url(#clipPath3747)"
       transform="translate(-39.999996,-172.03137)" />
  </g>
  <g
     inkscape:groupmode="layer"
     id="layer4"
     inkscape:label="Meubles" />
  <g
     inkscape:groupmode="layer"
     id="layer2"
     inkscape:label="Reflet final"
     sodipodi:insensitive="true">
    <path
       sodipodi:nodetypes="cccccc"
       d="M 300.00001,658.5 C 300.00001,658.5 598.50001,546.17969 598.50001,260.72817 C 598.50001,-24.723334 598.50001,2.1764865 598.50001,2.1764865 L 1.5,2.1764865 L 1.5,260.72817 C 1.5,546.17969 300.00001,658.5 300.00001,658.5 z "
       style="opacity:1;fill:url(#radialGradient3163);fill-opacity:1;fill-rule:evenodd;stroke:none;stroke-width:1px;stroke-linecap:butt;stroke-linejoin:miter;stroke-opacity:1"
       id="path2875"
       inkscape:export-xdpi="144"
       inkscape:export-ydpi="144" />
  </g>
  <g
     inkscape:groupmode="layer"
     id="layer1"
     inkscape:label="Contour final"
     sodipodi:insensitive="true">
    <path
       sodipodi:nodetypes="cccccc"
       d="M 299.99999,658.50028 C 299.99999,658.50028 1.5,546.17992 1.5,260.72828 C 1.5,-24.723336 1.5,2.1764957 1.5,2.1764957 L 598.49999,2.1764957 L 598.49999,260.72828 C 598.49999,546.17992 299.99999,658.50028 299.99999,658.50028 z "
       style="opacity:1;fill:none;fill-opacity:1;fill-rule:evenodd;stroke:#000000;stroke-width:3.00000048;stroke-linecap:butt;stroke-linejoin:miter;stroke-miterlimit:4;stroke-dasharray:none;stroke-opacity:1"
       id="path1411"
       inkscape:export-xdpi="144"
       inkscape:export-ydpi="144" />
  </g>
</svg>
