<?xml version="1.0" encoding="UTF-8" standalone="no"?>
<svg
   xmlns:dc="http://purl.org/dc/elements/1.1/"
   xmlns:cc="http://creativecommons.org/ns#"
   xmlns:rdf="http://www.w3.org/1999/02/22-rdf-syntax-ns#"
   xmlns:svg="http://www.w3.org/2000/svg"
   xmlns="http://www.w3.org/2000/svg"
   xmlns:xlink="http://www.w3.org/1999/xlink"
   xmlns:sodipodi="http://sodipodi.sourceforge.net/DTD/sodipodi-0.dtd"
   xmlns:inkscape="http://www.inkscape.org/namespaces/inkscape"
   height="660"
   width="600"
   version="1.0"
   id="svg2"
   sodipodi:version="0.32"
   inkscape:version="0.46"
   sodipodi:docname="prov2.svg"
   sodipodi:docbase="C:\Documents and Settings\Propriétaire\Mes documents\image blason\Blason du 68 à envoyer"
   inkscape:export-filename="/Users/olivier/Desktop/Blason Rouge/Blason_Vide_3D.png"
   inkscape:export-xdpi="144"
   inkscape:export-ydpi="144"
   inkscape:output_extension="org.inkscape.output.svg.inkscape">
  <metadata
     id="metadata49">
    <rdf:RDF>
      <cc:Work
         rdf:about="">
        <dc:format>image/svg+xml</dc:format>
        <dc:type
           rdf:resource="http://purl.org/dc/dcmitype/StillImage" />
        <dc:title>Gabarit d'un blason en pointe pour le projet Blasons de Wikipédia</dc:title>
        <dc:date>03-AUG-2006</dc:date>
        <dc:creator>
          <cc:Agent>
            <dc:title>Jérôme BLUM (wagner51)</dc:title>
          </cc:Agent>
        </dc:creator>
        <cc:license
           rdf:resource="http://web.resource.org/cc/PublicDomain" />
        <dc:language>fr</dc:language>
        <dc:subject>
          <rdf:Bag>
            <rdf:li>gabarit modèle blason projet wikipédia</rdf:li>
          </rdf:Bag>
        </dc:subject>
      </cc:Work>
      <cc:License
         rdf:about="http://web.resource.org/cc/PublicDomain">
        <cc:permits
           rdf:resource="http://web.resource.org/cc/Reproduction" />
        <cc:permits
           rdf:resource="http://web.resource.org/cc/Distribution" />
        <cc:permits
           rdf:resource="http://web.resource.org/cc/DerivativeWorks" />
      </cc:License>
    </rdf:RDF>
  </metadata>
  <sodipodi:namedview
     inkscape:window-height="712"
     inkscape:window-width="1024"
     inkscape:pageshadow="2"
     inkscape:pageopacity="0.0"
     guidetolerance="10.0"
     gridtolerance="10.0"
     objecttolerance="10.0"
     borderopacity="1.0"
     bordercolor="#666666"
     pagecolor="#ffffff"
     id="base"
     showgrid="false"
     height="660px"
     inkscape:zoom="0.79090875"
     inkscape:cx="299.99999"
     inkscape:cy="329.99986"
     inkscape:window-x="345"
     inkscape:window-y="345"
     inkscape:current-layer="layer3"
     showguides="true"
     inkscape:guide-bbox="true" />
  <desc
     id="desc4">Flag of Canton of Valais (Wallis)</desc>
  <defs
     id="defs6">
    <linearGradient
       id="linearGradient2893">
      <stop
         style="stop-color:white;stop-opacity:0.3137255;"
         offset="0"
         id="stop2895" />
      <stop
         id="stop2897"
         offset="0.19"
         style="stop-color:white;stop-opacity:0.25098041;" />
      <stop
         style="stop-color:#6b6b6b;stop-opacity:0.1254902;"
         offset="0.60000002"
         id="stop2901" />
      <stop
         style="stop-color:black;stop-opacity:0.1254902;"
         offset="1"
         id="stop2899" />
    </linearGradient>
    <radialGradient
       inkscape:collect="always"
       xlink:href="#linearGradient2893"
       id="radialGradient3163"
       gradientUnits="userSpaceOnUse"
       gradientTransform="matrix(1.353218,0,0,1.348928,-77.62935,-85.74693)"
       cx="221.44487"
       cy="226.33101"
       fx="221.44487"
       fy="226.33101"
       r="300" />
  </defs>
  <g
     inkscape:groupmode="layer"
     id="layer3"
     inkscape:label="Fond écu"
     style="display:inline">
    <path
       id="path11575"
       style="fill:#2b5df2;fill-opacity:1;fill-rule:evenodd;stroke:none;stroke-width:3;stroke-linecap:butt;stroke-linejoin:miter;stroke-miterlimit:4;stroke-dasharray:none;stroke-opacity:1;display:inline"
       d="M 299,658.50001 C 299,658.50001 597.5,546.1797 597.5,260.72818 C 597.5,-24.72334 597.5,2.17649 597.5,2.17649 L 0.5,2.17649 L 0.5,260.72818 C 0.5,546.1797 299,658.50001 299,658.50001 z "
       sodipodi:nodetypes="cccccc" />
  </g>
  <g
     inkscape:groupmode="layer"
     id="layer4"
     inkscape:label="Meubles"
     style="display:inline">
    <path
       style="display:inline;fill:#fcef3c;fill-opacity:1;fill-rule:evenodd;stroke:black;stroke-width:3;stroke-linecap:butt;stroke-linejoin:miter;stroke-miterlimit:4;stroke-dasharray:none;stroke-opacity:1"
       d="M 283.875,422.4625 C 274.97014,427.21497 268.87158,423.26607 261.28125,428.9625 C 204.65965,442.33095 198.29898,494.63962 171.77076,537.73084 C 220.32598,579.50084 398.44,556.8388 430.58806,527.6208 C 369.61785,429.71476 342.78413,454.17622 308.9375,429.3375 C 301.8821,423.68445 292.12953,427.51691 283.875,422.4625 z"
       id="path21610"
       sodipodi:nodetypes="cccccc" />
    <g
       style="display:inline"
       id="g20610"
       transform="matrix(1.131793,0,0,1.131793,-52.38192,56.27219)">
      <g
         style="fill:white;fill-opacity:1;stroke:black;stroke-width:1.57446837;stroke-miterlimit:4;stroke-dasharray:none;stroke-opacity:1"
         transform="matrix(1.714865,0,0,1.714865,135.1605,42.05161)"
         id="g63504">
        <path
           sodipodi:nodetypes="ccscsscccc"
           id="path63506"
           style="fill:white;fill-opacity:1;stroke:black;stroke-width:1.57446837;stroke-miterlimit:4;stroke-dasharray:none;stroke-opacity:1"
           d="M 95.734582,140.02699 C 94.812154,147.04114 96.85566,155.88779 92.944365,161.53022 C 89.714716,163.15212 85.621482,164.55736 81.919061,165.88838 C 78.475104,167.12648 74.629237,170.31982 73.611253,172.20485 C 77.473984,172.40246 81.342457,168.82188 85.204919,167.82434 C 88.862972,166.87959 92.515632,165.84769 96.152916,165.57879 C 99.735919,165.31389 102.37888,167.92721 106.87998,167.97438 C 104.28217,165.80952 101.68436,163.64466 99.086559,161.47981 C 98.495419,153.76404 100.90946,150.14319 105.79056,144.71981 C 102.43856,143.15554 99.086559,141.59127 95.734582,140.02699 z " />
        <path
           sodipodi:nodetypes="ccscssscsccc"
           style="fill:white;fill-opacity:1;stroke:black;stroke-width:1.57446837;stroke-miterlimit:4;stroke-dasharray:none;stroke-opacity:1"
           id="path63508"
           d="M 111.6291,142.34332 C 110.58484,150.28403 112.89826,160.29925 108.4703,166.68703 C 104.50674,168.6775 99.394274,170.37974 94.941995,171.99914 C 91.466807,173.26316 88.417863,175.42531 87.40806,177.38683 C 90.567572,177.04408 92.86362,175.54939 95.950236,175.01347 C 101.144,174.11168 106.28191,172.68473 111.59184,172.29219 C 113.83836,172.1261 115.91515,172.64606 118.18678,173.15217 C 120.01679,173.55989 120.73623,177.25734 123.00974,177.28117 C 123.48703,174.07093 121.49028,171.68537 120.11204,170.53682 C 118.54931,169.23453 116.98659,167.93224 115.42385,166.62996 C 114.75464,157.89499 117.48755,153.79583 123.01345,147.65607 C 119.21864,145.88515 115.42385,144.11424 111.6291,142.34332 z " />
        <path
           d="M 56.601425,43.062668 C 59.729975,41.721878 62.858523,40.381058 65.987073,39.040269 C 67.054084,27.928384 79.645313,23.913055 88.578852,29.227376 C 94.700693,32.869082 96.625581,39.643585 96.825537,46.581447 C 96.157638,51.731875 97.549977,57.144743 100.17754,61.163569 C 103.08383,65.608705 108.8537,67.958658 113.86908,70.338119 C 129.72506,76.760474 138.54144,89.802566 147.47973,103.83817 C 160.62068,132.39702 183.05442,140.33095 210.79392,146.97498 C 208.41678,149.24393 206.92603,152.8458 203.31914,153.26553 C 200.50843,154.20899 197.4427,154.73985 195.68653,157.38959 C 194.01355,159.42867 192.17903,161.11391 189.35029,160.62184 C 183.30458,160.60431 177.4304,162.5139 171.40775,162.39424 C 165.34636,161.28374 162.71294,151.35751 156.15645,150.99744 C 145.98144,150.83485 135.67405,152.94103 125.65284,151.75185 C 110.06103,149.90163 94.585816,143.0723 84.132149,133.51786 C 74.172179,124.41466 69.086212,112.53361 65.987073,97.868188 C 64.530072,91.124936 65.946376,82.775585 67.699554,74.650811 C 69.865662,64.612358 72.86971,55.56415 71.252883,49.609706 C 70.54286,46.994818 68.941691,44.976563 65.987073,43.733092 C 62.858523,43.509637 59.729975,43.286153 56.601425,43.062668 z "
           style="fill:white;fill-opacity:1;stroke:black;stroke-width:1.57446837;stroke-miterlimit:4;stroke-dasharray:none;stroke-opacity:1"
           id="path63510" />
        <path
           id="path63512"
           style="fill:white;fill-opacity:1;stroke:black;stroke-width:1.57446837;stroke-miterlimit:4;stroke-dasharray:none;stroke-opacity:1"
           d="M 56.601425,43.062668 C 59.729975,41.721878 62.858523,40.381058 65.987073,39.040269 C 67.054084,27.928384 79.645313,23.913055 88.578852,29.227376 C 94.700693,32.869082 96.625581,39.643585 96.825537,46.581447 C 96.157638,51.731875 97.549977,57.144743 100.17754,61.163569 C 103.08383,65.608705 108.8537,67.958658 113.86908,70.338119 C 129.72506,76.760474 138.54144,89.802566 147.47973,103.83817 C 160.62068,132.39702 183.05442,140.33095 210.79392,146.97498 C 208.41678,149.24393 206.92603,152.8458 203.31914,153.26553 C 200.50843,154.20899 197.4427,154.73985 195.68653,157.38959 C 194.01355,159.42867 192.17903,161.11391 189.35029,160.62184 C 183.30458,160.60431 177.4304,162.5139 171.40775,162.39424 C 165.34636,161.28374 162.71294,151.35751 156.15645,150.99744 C 145.98144,150.83485 135.67405,152.94103 125.65284,151.75185 C 110.06103,149.90163 94.585816,143.0723 84.132149,133.51786 C 74.172179,124.41466 69.086212,112.53361 65.987073,97.868188 C 64.530072,91.124936 65.946376,82.775585 67.699554,74.650811 C 69.865662,64.612358 72.86971,55.56415 71.252883,49.609706 C 70.54286,46.994818 68.941691,44.976563 65.987073,43.733092 C 62.858523,43.509637 59.729975,43.286153 56.601425,43.062668 z " />
        <path
           id="path63514"
           style="fill:white;fill-opacity:1;stroke:black;stroke-width:1.57446837;stroke-miterlimit:4;stroke-dasharray:none;stroke-opacity:1"
           d="M 143.8822,142.33429 L 160.01253,152.27774"
           sodipodi:nodetypes="cc" />
        <path
           id="path63516"
           style="fill:white;fill-opacity:1;stroke:black;stroke-width:1.57446837;stroke-miterlimit:4;stroke-dasharray:none;stroke-opacity:1"
           d="M 154.66074,140.81286 C 163.49491,145.90217 172.15164,150.39994 182.81763,161.59534" />
        <path
           id="path63518"
           style="fill:white;fill-opacity:1;stroke:black;stroke-width:1.57446837;stroke-miterlimit:4;stroke-dasharray:none;stroke-opacity:1"
           d="M 160.51374,137.58936 C 173.24162,144.03305 185.29844,149.10437 194.98439,157.98158"
           sodipodi:nodetypes="cc" />
        <path
           id="path63520"
           style="fill:white;fill-opacity:1;stroke:black;stroke-width:1.57446837;stroke-miterlimit:4;stroke-dasharray:none;stroke-opacity:1"
           d="M 169.28107,137.2802 C 180.53368,142.62759 190.75268,147.26243 205.09252,151.99236"
           sodipodi:nodetypes="cc" />
        <path
           style="fill:white;fill-opacity:1;stroke:black;stroke-width:1.57446837;stroke-miterlimit:4;stroke-dasharray:none;stroke-opacity:1"
           id="path63522"
           d="M 140.3947,110.02798 C 143.49585,111.43664 146.51334,114.54207 149.63726,116.05593 C 153.18018,117.77284 156.86002,119.71637 160.95411,122.24713 C 166.15231,125.06931 165.68707,125.66996 162.58297,128.70014 C 160.31268,129.61033 158.3091,130.3307 159.17298,133.23172 C 158.13591,135.72339 153.10315,135.03644 150.45764,136.24857 C 140.674,132.20015 130.76258,128.68652 120.54021,125.74995 C 103.09378,120.7382 82.085791,110.06209 93.473532,89.990791"
           sodipodi:nodetypes="csccccsc" />
        <path
           id="path63524"
           style="fill:white;fill-opacity:1;stroke:black;stroke-width:1.57446837;stroke-miterlimit:4;stroke-dasharray:none;stroke-opacity:1"
           d="M 107.42997,111.72139 C 124.38653,118.84741 142.34466,125.80334 157.53129,134.6993" />
        <path
           id="path63526"
           style="fill:white;fill-opacity:1;stroke:black;stroke-width:1.57446837;stroke-miterlimit:4;stroke-dasharray:none;stroke-opacity:1"
           d="M 123.51963,111.87706 C 135.81147,117.43794 148.16216,122.82217 159.84334,130.21496" />
        <path
           id="path63528"
           style="fill:white;fill-opacity:1;stroke:black;stroke-width:1.57446837;stroke-miterlimit:4;stroke-dasharray:none;stroke-opacity:1"
           d="M 82.747066,39.37551 C 82.747066,41.040789 81.245353,42.392332 79.39506,42.392332 C 77.544739,42.392332 76.043058,41.040789 76.043058,39.37551 C 76.043058,37.710233 77.544739,36.358718 79.39506,36.358718 C 81.245353,36.358718 82.747066,37.710233 82.747066,39.37551 z " />
        <path
           style="fill:white;fill-opacity:1;fill-rule:evenodd;stroke:black;stroke-width:1.57446837;stroke-linecap:butt;stroke-linejoin:miter;stroke-miterlimit:4;stroke-dasharray:none;stroke-opacity:1"
           d="M 56.833708,42.960943 C 57.601419,42.132629 62.936775,40.212364 65.937708,38.983468 L 67.440309,41.0164 L 65.407377,43.756439 C 62.549487,43.489929 57.128336,43.679182 56.833708,42.960943 z "
           id="path63530"
           sodipodi:nodetypes="ccccc" />
      </g>
    </g>
    <path
       id="path1948"
       d="M 111.69422,21.890686 L 89.884426,73.503933 L 31.976689,68.024552 L 65.6513,112.80433 L 31.882262,160.19784 L 86.894614,153.5848 L 112.00894,206.52066 L 133.06345,155.50572 L 191.69503,160.38679 L 158.1778,116.61471 L 191.8524,68.276477 L 136.30501,75.424877 L 111.69422,21.890686 z M 111.88306,91.107243 C 124.62087,91.107243 134.95176,101.47588 134.95176,114.22141 C 134.95179,126.96695 124.62087,137.30409 111.88306,137.30409 C 99.145263,137.30409 88.7829,126.96695 88.7829,114.22141 C 88.7829,101.47588 99.145263,91.107243 111.88306,91.107243 z "
       style="display:inline;fill:white;fill-opacity:1;fill-rule:evenodd;stroke:black;stroke-width:3.76452446000000010;stroke-linecap:butt;stroke-linejoin:miter;stroke-miterlimit:4;stroke-dasharray:none;stroke-opacity:1" />
    <use
       x="0"
       y="0"
       xlink:href="#path1948"
       id="use2429"
       transform="translate(374,0)"
       width="600"
       height="660" />
  </g>
  <g
     inkscape:groupmode="layer"
     id="layer5"
     inkscape:label="travail" />
  <g
     inkscape:groupmode="layer"
     id="layer2"
     inkscape:label="Reflet final"
     style="display:inline"
     sodipodi:insensitive="true">
    <path
       sodipodi:nodetypes="cccccc"
       d="M 300.00001,658.5 C 300.00001,658.5 598.50001,546.17969 598.50001,260.72817 C 598.50001,-24.723334 598.50001,2.1764865 598.50001,2.1764865 L 1.5,2.1764865 L 1.5,260.72817 C 1.5,546.17969 300.00001,658.5 300.00001,658.5 z "
       style="opacity:1;fill:url(#radialGradient3163);fill-opacity:1;fill-rule:evenodd;stroke:none;stroke-width:1px;stroke-linecap:butt;stroke-linejoin:miter;stroke-opacity:1"
       id="path2875"
       inkscape:export-xdpi="144"
       inkscape:export-ydpi="144" />
  </g>
  <g
     inkscape:groupmode="layer"
     id="layer1"
     inkscape:label="Contour final"
     sodipodi:insensitive="true">
    <path
       sodipodi:nodetypes="cccccc"
       d="M 299.99999,658.50028 C 299.99999,658.50028 1.5,546.17992 1.5,260.72828 C 1.5,-24.723336 1.5,2.1764957 1.5,2.1764957 L 598.49999,2.1764957 L 598.49999,260.72828 C 598.49999,546.17992 299.99999,658.50028 299.99999,658.50028 z "
       style="opacity:1;fill:none;fill-opacity:1;fill-rule:evenodd;stroke:black;stroke-width:3.00000048;stroke-linecap:butt;stroke-linejoin:miter;stroke-miterlimit:4;stroke-dasharray:none;stroke-opacity:1"
       id="path1411"
       inkscape:export-xdpi="144"
       inkscape:export-ydpi="144" />
  </g>
</svg>
