<?xml version="1.0" encoding="UTF-8" standalone="no"?>
<svg
   xmlns:dc="http://purl.org/dc/elements/1.1/"
   xmlns:cc="http://web.resource.org/cc/"
   xmlns:rdf="http://www.w3.org/1999/02/22-rdf-syntax-ns#"
   xmlns:svg="http://www.w3.org/2000/svg"
   xmlns="http://www.w3.org/2000/svg"
   xmlns:xlink="http://www.w3.org/1999/xlink"
   xmlns:sodipodi="http://sodipodi.sourceforge.net/DTD/sodipodi-0.dtd"
   xmlns:inkscape="http://www.inkscape.org/namespaces/inkscape"
   height="660"
   width="600"
   version="1.0"
   id="svg2"
   sodipodi:version="0.32"
   inkscape:version="0.45.1"
   sodipodi:docname="Blason_Lardiers.svg"
   sodipodi:docbase="C:\monAtelierGraphique\Blasons"
   inkscape:export-filename="/Users/olivier/Desktop/Blason Rouge/Blason_Vide_3D.png"
   inkscape:export-xdpi="144"
   inkscape:export-ydpi="144"
   inkscape:output_extension="org.inkscape.output.svg.inkscape">
  <metadata
     id="metadata49">
    <rdf:RDF>
      <cc:Work
         rdf:about="">
        <dc:format>image/svg+xml</dc:format>
        <dc:type
           rdf:resource="http://purl.org/dc/dcmitype/StillImage" />
        <dc:title>Blason de Lardiers( Alpes de Haute Provence)</dc:title>
        <dc:date>1 août 2008</dc:date>
        <dc:creator>
          <cc:Agent>
            <dc:title>Aups alias MG05</dc:title>
          </cc:Agent>
        </dc:creator>
        <cc:license
           rdf:resource="http://creativecommons.org/licenses/GPL/2.0/" />
        <dc:language>fr</dc:language>
        <dc:subject>
          <rdf:Bag>
            <rdf:li>blason projet wikipédia</rdf:li>
          </rdf:Bag>
        </dc:subject>
        <dc:source>Armorial des communes de Provence; Louis de Bresc</dc:source>
      </cc:Work>
      <cc:License
         rdf:about="http://creativecommons.org/licenses/GPL/2.0/">
        <cc:permits
           rdf:resource="http://web.resource.org/cc/Reproduction" />
        <cc:permits
           rdf:resource="http://web.resource.org/cc/Distribution" />
        <cc:requires
           rdf:resource="http://web.resource.org/cc/Notice" />
        <cc:permits
           rdf:resource="http://web.resource.org/cc/DerivativeWorks" />
        <cc:requires
           rdf:resource="http://web.resource.org/cc/ShareAlike" />
        <cc:requires
           rdf:resource="http://web.resource.org/cc/SourceCode" />
      </cc:License>
    </rdf:RDF>
  </metadata>
  <sodipodi:namedview
     inkscape:window-height="750"
     inkscape:window-width="1280"
     inkscape:pageshadow="2"
     inkscape:pageopacity="0.0"
     guidetolerance="10.0"
     gridtolerance="10.0"
     objecttolerance="10.0"
     borderopacity="1.0"
     bordercolor="#666666"
     pagecolor="#ffffff"
     id="base"
     showgrid="false"
     height="660px"
     inkscape:zoom="0.315"
     inkscape:cx="926.73266"
     inkscape:cy="309.73415"
     inkscape:window-x="-8"
     inkscape:window-y="-8"
     inkscape:current-layer="layer4"
     showguides="true"
     inkscape:guide-bbox="true" />
  <desc
     id="desc4">Flag of Canton of Valais (Wallis)</desc>
  <defs
     id="defs6">
    <linearGradient
       id="linearGradient2893">
      <stop
         style="stop-color:white;stop-opacity:0.3137255;"
         offset="0"
         id="stop2895" />
      <stop
         id="stop2897"
         offset="0.19"
         style="stop-color:white;stop-opacity:0.25098041;" />
      <stop
         style="stop-color:#6b6b6b;stop-opacity:0.1254902;"
         offset="0.60000002"
         id="stop2901" />
      <stop
         style="stop-color:black;stop-opacity:0.1254902;"
         offset="1"
         id="stop2899" />
    </linearGradient>
    <linearGradient
       id="linearGradient2885">
      <stop
         id="stop2887"
         offset="0"
         style="stop-color:white;stop-opacity:1;" />
      <stop
         style="stop-color:white;stop-opacity:1;"
         offset="0.22857143"
         id="stop2891" />
      <stop
         id="stop2889"
         offset="1"
         style="stop-color:black;stop-opacity:1;" />
    </linearGradient>
    <linearGradient
       id="linearGradient2955">
      <stop
         id="stop2867"
         offset="0"
         style="stop-color:#fd0000;stop-opacity:1;" />
      <stop
         style="stop-color:#e77275;stop-opacity:0.65882355;"
         offset="0.5"
         id="stop2873" />
      <stop
         style="stop-color:black;stop-opacity:0.32291666;"
         offset="1"
         id="stop2959" />
    </linearGradient>
    <radialGradient
       inkscape:collect="always"
       xlink:href="#linearGradient2955"
       id="radialGradient2961"
       cx="225.52438"
       cy="218.90099"
       fx="225.52438"
       fy="218.90099"
       r="300"
       gradientTransform="matrix(-4.167939e-4,2.182867,-1.884232,-3.599562e-4,615.5972,-289.1214)"
       gradientUnits="userSpaceOnUse" />
    <polygon
       id="star"
       transform="scale(53,53)"
       points="0,-1 0.58778525,0.80901699 -0.95105652,-0.30901699 0.95105652,-0.30901699 -0.58778525,0.80901699 0,-1 " />
    <clipPath
       id="clip">
      <path
         d="M 0,-200 L 0,600 L 300,600 L 300,-200 L 0,-200 z "
         id="path10" />
    </clipPath>
    <radialGradient
       inkscape:collect="always"
       xlink:href="#linearGradient2955"
       id="radialGradient1911"
       gradientUnits="userSpaceOnUse"
       gradientTransform="matrix(-4.167939e-4,2.182867,-1.884232,-3.599562e-4,615.5972,-289.1214)"
       cx="225.52438"
       cy="218.90099"
       fx="225.52438"
       fy="218.90099"
       r="300" />
    <radialGradient
       inkscape:collect="always"
       xlink:href="#linearGradient2955"
       id="radialGradient2865"
       gradientUnits="userSpaceOnUse"
       gradientTransform="matrix(0,1.748721,-1.593162,-1.049767e-7,551.7876,-191.2898)"
       cx="225.52438"
       cy="218.90099"
       fx="225.52438"
       fy="218.90099"
       r="300" />
    <radialGradient
       inkscape:collect="always"
       xlink:href="#linearGradient2955"
       id="radialGradient2871"
       gradientUnits="userSpaceOnUse"
       gradientTransform="matrix(0,1.386237,-1.323286,-5.741131e-8,-158.0823,-109.5408)"
       cx="225.52438"
       cy="218.90099"
       fx="225.52438"
       fy="218.90099"
       r="300" />
    <radialGradient
       inkscape:collect="always"
       xlink:href="#linearGradient2893"
       id="radialGradient3163"
       gradientUnits="userSpaceOnUse"
       gradientTransform="matrix(1.353218,0,0,1.348928,-77.62935,-85.74693)"
       cx="221.44487"
       cy="226.33101"
       fx="221.44487"
       fy="226.33101"
       r="300" />
  </defs>
  <g
     inkscape:groupmode="layer"
     id="layer3"
     inkscape:label="Fond écu"
     style="display:inline"
     sodipodi:insensitive="true">
    <path
       id="path2855"
       style="fill:#5ab532;fill-opacity:1;fill-rule:evenodd;stroke:none;stroke-width:1px;stroke-linecap:butt;stroke-linejoin:miter;stroke-opacity:1"
       d="M 300,658.5 C 300,658.5 598.50001,546.17969 598.50001,260.72817 C 598.50001,-24.723354 598.50001,2.1764765 598.50001,2.1764765 L 1.5,2.1764765 L 1.5,260.72817 C 1.5,546.17969 300,658.5 300,658.5 z "
       sodipodi:nodetypes="cccccc" />
  </g>
  <g
     inkscape:groupmode="layer"
     id="layer4"
     inkscape:label="Meubles"
     style="display:inline"
     sodipodi:insensitive="true">
    <path
       style="fill:#ffffff;fill-opacity:1;fill-rule:nonzero;stroke:#000000;stroke-width:3;stroke-linecap:round;stroke-linejoin:miter;stroke-miterlimit:4;stroke-dashoffset:12;stroke-opacity:1"
       d="M 1.53125,264.90625 C 4.4366251,547.26296 299.99999,658.49997 300,658.5 C 300,658.5 595.56336,547.26296 598.46875,264.90625 L 1.53125,264.90625 z "
       id="rect3252" />
    <path
       style="fill:#000000;fill-opacity:1;fill-rule:nonzero;stroke:#313131;stroke-width:3;stroke-linecap:round;stroke-linejoin:miter;stroke-miterlimit:4;stroke-dashoffset:12;stroke-opacity:1;display:inline"
       d="M 300.65625,290.4375 L 88.3125,502.78125 C 108.07171,527.26574 129.59446,548.60538 151.125,566.96875 L 300.65625,417.4375 L 449.5625,566.375 C 471.07623,547.96276 492.57281,526.59003 512.28125,502.0625 L 300.65625,290.4375 z "
       id="rect4229" />
    <g
       id="g7392"
       transform="translate(-8.4441383,0)">
      <path
         sodipodi:nodetypes="csssccscccccscccsccccc"
         id="path5372"
         d="M 205.66461,139.71378 C 208.40093,145.81838 195.72027,157.48343 205.06588,180.18488 C 208.43198,188.36147 216.12196,199.39598 217.46988,212.78649 C 217.92277,217.28557 213.19449,235.37682 197.6235,235.47838 C 189.86559,235.52897 187.31536,231.01656 181.2794,231.45703 C 181.08122,232.03501 179.97158,233.6041 179.2018,234.66489 C 178.90021,235.06058 178.70992,235.40294 178.61355,235.87693 C 178.44054,236.72869 176.8199,238.84369 176.70982,239.71049 C 176.34492,241.40288 176.46166,242.99912 176.65084,244.70686 C 181.88814,246.22601 187.70827,246.07139 190.31465,244.53076 C 192.23009,244.32363 193.89775,245.12105 194.03152,245.19286 C 199.97049,244.3614 204.4696,244.67512 212.65646,244.77933 C 214.39051,239.58918 222.20704,230.56752 227.51542,222.84359 C 227.55528,222.78568 228.1096,225.3762 228.28928,227.00732 C 229.29809,225.74044 230.04566,223.1778 230.22484,220.98949 C 231.57399,222.55561 232.70448,224.35004 233.60346,226.16876 C 234.23972,217.96761 228.70897,217.01805 226.52339,203.63975 C 226.25598,202.00234 225.40488,186.32505 225.35638,179.2791 C 227.32847,180.17379 229.11397,181.80639 229.95952,183.53162 C 230.34034,182.2346 230.03307,179.15048 229.96717,177.96925 C 232.85749,180.10845 238.92591,187.73868 240.12637,190.23983 C 238.23264,177.72712 227.43916,171.79257 224.11027,161.40324"
         style="fill:#fcff3c;fill-opacity:1;fill-rule:evenodd;stroke:#000000;stroke-width:3;stroke-linecap:butt;stroke-linejoin:miter;stroke-miterlimit:4;stroke-dasharray:none;stroke-dashoffset:0;stroke-opacity:1;display:inline" />
      <path
         id="path5350"
         d="M 220.53342,165.79772 C 223.26974,171.90232 227.72825,178.26602 233.15634,185.5454 C 238.45991,192.65785 244.21242,204.7565 245.56034,218.14701 C 246.01322,222.64609 241.28495,240.73734 225.71396,240.8389 C 217.95605,240.88949 215.40582,236.37709 209.36986,236.81756 C 209.17167,237.39553 208.06204,238.96463 207.29226,240.02541 C 206.99067,240.4211 206.80038,240.76347 206.704,241.23746 C 206.53099,242.08921 204.91036,244.20421 204.80028,245.07101 C 204.43538,246.7634 204.55212,248.35964 204.74129,250.06739 C 209.9786,251.58653 215.79873,251.43191 218.40511,249.89128 C 220.32055,249.68415 221.98821,250.48157 222.12198,250.55339 C 228.06094,249.72192 232.56006,250.03564 240.74692,250.13985 C 242.48096,244.9497 250.2975,235.92804 255.60588,228.20411 C 255.64574,228.1462 256.20006,230.73672 256.37973,232.36784 C 257.38855,231.10096 258.13611,228.53833 258.31529,226.35001 C 259.66445,227.91613 260.79493,229.71056 261.69392,231.52928 C 262.33018,223.32813 256.79942,222.37857 254.61385,209.00028 C 254.34644,207.36287 253.49534,191.68558 253.44684,184.63962 C 255.41893,185.53431 257.20443,187.16691 258.04998,188.89214 C 258.4308,187.59512 258.12353,184.511 258.05763,183.32977 C 260.94795,185.46897 267.01637,193.09921 268.21683,195.60035 C 266.3231,183.08764 255.52962,177.15309 252.20072,166.76376 C 267.44939,172.68885 324.23962,136.06855 352.93108,131.52679 C 360.66509,130.30253 361.78287,142.75882 359.09328,146.33727 C 350.79733,157.37477 333.05435,164.46444 332.24224,184.8273 C 331.68273,198.85751 355.55917,199.96143 355.59089,210.96605 C 355.61248,218.43977 339.77038,236.69591 328.44812,240.8389 C 326.54822,241.5868 323.32644,241.41338 321.1516,241.41338 C 318.25092,241.41338 309.29168,237.47168 307.03293,237.75109 C 305.49707,238.50282 304.75333,239.04335 303.34827,239.58223 C 301.34311,240.89786 300.36244,244.55614 299.62708,246.7273 C 299.13631,248.17628 300.48214,250.99323 302.0349,251.50264 C 304.88746,252.43847 306.88904,252.01804 309.55021,251.03589 C 311.32535,250.38077 313.35617,251.1775 315.16858,250.71274 C 318.69331,249.80889 326.1521,250.39801 332.24224,251.75398 C 334.89563,246.14207 340.62654,241.82089 343.55178,240.44395 C 344.56997,240.93272 344.86515,242.55778 344.86515,243.20863 C 349.07748,241.21677 348.89559,237.33254 349.72324,235.99623 C 351.48024,233.15925 354.35341,229.00344 358.10816,226.15381 C 359.30455,226.52765 360.69853,227.47064 361.20929,228.91849 C 362.84252,226.17346 363.54209,222.02086 363.32514,218.72149 C 366.1492,213.95806 371.10416,209.62949 377.04251,207.08833 C 372.0662,200.19526 362.21305,203.90667 362.0119,191.29018 C 361.80483,178.31277 381.52151,164.71469 377.40741,143.32127 C 384.08939,167.46963 370.18889,165.60625 371.05949,184.8273 C 371.45598,193.58288 382.16148,206.08298 391.63542,206.08298 C 404.89262,206.08298 410.17916,196.89134 418.92417,196.89134 C 425.11007,196.89134 437.10783,207.02206 437.01947,210.96605 C 436.88583,216.92795 432.85021,226.1987 430.52557,229.49296 C 424.48343,238.05542 419.67853,239.03741 411.33593,238.68461 C 407.94694,238.54129 407.34758,237.77537 405.49877,235.95584 C 403.32505,233.81652 401.75438,239.49402 401.41268,240.8389 C 401.31544,241.22189 401.2182,241.60488 401.12084,241.98785 C 400.5659,244.17272 400.82899,247.26466 400.82899,249.45607 C 400.82899,251.91559 405.12091,250.79093 406.66616,250.03055 C 410.77162,248.0103 411.3368,246.87092 416.58941,246.87092 C 420.6998,246.87092 423.90295,248.81401 427.68004,249.74331 C 428.06912,249.83906 428.45821,249.9348 428.84742,250.03055 C 436.87818,248.26565 434.10891,235.92842 440.89911,228.41942 C 441.66482,229.44304 442.51271,230.79149 443.20463,232.30137 C 445.83766,229.21794 444.72358,224.35501 444.86426,221.13989 C 446.4306,218.57059 447.7842,215.43498 450.445,214.12567 C 451.75688,214.77488 452.40931,215.23776 453.18946,216.54555 C 454.36067,214.24028 453.97787,210.54634 452.7636,209.38201 C 449.56354,206.31351 442.20865,199.12597 440.2299,197.17858 C 437.00331,194.00305 435.22101,189.90461 433.22523,185.97625 C 431.90199,183.37156 430.35675,180.76618 431.18231,177.64632 C 424.45739,179.81831 420.46805,184.56088 412.91918,185.18424 C 409.18726,185.18424 403.09984,184.45094 402.70409,177.59107 C 402.41051,172.57744 403.23718,168.88144 404.03942,166.16124 C 405.26579,166.98546 407.12805,168.08784 408.88628,170.46535 C 408.66021,167.08639 407.76739,163.05818 406.37431,160.98646 C 406.32273,159.67235 406.35123,156.5512 407.04352,155.86992 C 407.97348,156.478 408.65379,157.21546 409.0704,158.29677 C 408.7498,155.23601 406.89112,149.85137 403.64996,144.62528 C 400.40881,139.39918 394.95975,134.68708 389.93519,131.90512 C 395.4209,131.83152 405.50371,138.81499 409.04387,141.20988 C 409.17122,140.49249 408.98303,139.64738 409.1553,139.23084 C 413.4735,141.12996 416.32409,143.82541 419.66162,147.31038 C 419.72838,147.33666 419.92138,145.1921 419.88041,145.03113 C 422.64993,146.6468 425.66636,151.37798 427.06821,152.47117 C 427.06821,151.08194 426.42751,149.34067 426.59176,148.18253 C 427.92326,149.88007 432.16965,155.46102 434.26736,158.61266 C 434.27279,157.01834 434.1774,156.08822 434.42149,155.50866 C 438.16909,159.30341 439.68076,163.71373 443.03421,166.90527 C 442.20729,164.69125 441.75774,163.11415 441.80303,161.49103 C 445.11008,163.90997 448.41911,171.56418 450.71475,174.20803 C 450.83914,172.32523 450.20572,169.5656 450.60209,168.69416 C 451.93939,171.3264 454.82799,178.02432 456.5798,180.39669 C 456.56006,178.88249 456.545,177.81886 456.81945,176.95404 C 458.04162,178.06687 459.39152,180.34127 461.81538,182.14792 C 461.06497,180.18365 460.5552,179.01726 460.67083,178.17972 C 461.82809,178.40608 464.8586,181.464 465.73414,182.05697 C 465.15044,179.06354 462.93649,175.02431 461.68914,173.04183 C 463.33779,174.38401 465.9744,175.81882 466.39323,176.48167 C 466.21108,175.13561 463.33064,170.89092 462.64859,169.99599 C 463.10654,169.98061 464.54392,170.27262 465.02124,170.49105 C 464.7584,168.20371 455.53829,160.96885 454.55145,160.26428 C 455.9586,160.39746 458.18465,160.56791 460.14933,161.05133 C 458.64284,159.39686 453.2461,156.00764 450.78509,154.62802 C 452.03688,154.32441 453.46353,154.33455 454.49986,154.50108 C 451.54401,149.97255 445.92836,149.87923 441.47244,147.84926 C 444.47604,147.15654 447.07044,147.35673 448.05063,147.16377 C 443.70934,145.27808 436.48514,144.14114 433.44958,143.86326 C 434.01229,143.40507 435.14993,142.71607 436.15825,142.67 C 433.84471,141.67384 428.59272,141.07052 426.12332,141.07052 C 426.50834,140.38503 426.84633,140.14366 428.08393,139.47103 C 426.65185,139.23683 423.41132,138.83908 421.32508,138.53166 C 422.01107,138.10005 422.24517,137.49642 423.36307,136.93218 C 419.78527,135.83362 415.68437,136.45259 414.92743,136.52597 C 415.1145,136.19125 415.59787,135.65554 416.26473,135.09004 C 399.43381,132.06753 394.27178,129.72201 390.17138,127.27128 C 379.38061,120.82179 365.19592,119.69327 351.79677,118.33147 C 342.88035,117.42526 321.23749,117.33072 312.25,115.74632 C 300.39032,113.65561 265.39894,102.38366 258.1102,91.043765 C 242.51046,88.181094 228.79556,90.990376 216.56049,92.981943 C 217.89681,109.47908 205.91954,109.84958 204.63122,152.13993"
         style="fill:#fcff3c;fill-opacity:1;fill-rule:evenodd;stroke:#000000;stroke-width:3;stroke-linecap:butt;stroke-linejoin:miter;stroke-miterlimit:4;stroke-dasharray:none;stroke-dashoffset:0;stroke-opacity:1" />
      <path
         d="M 333.19613,153.40538 C 344.36747,135.73741 354.34502,136.36012 368.68449,140.663 C 367.04337,144.13055 373.07427,146.83121 377.55377,144.74824 C 380.44261,143.40485 377.98456,137.98213 374.90605,136.5151 C 358.01006,128.46379 338.12839,131.95031 333.19613,153.40538 z "
         style="fill:#fcff3c;fill-opacity:1;fill-rule:evenodd;stroke:#000000;stroke-width:3;stroke-linecap:butt;stroke-linejoin:miter;stroke-miterlimit:4;stroke-dasharray:none;stroke-opacity:1"
         id="path13548" />
      <g
         transform="matrix(1.2340202,0,0,1.2144887,-409.95368,-554.39434)"
         style="fill:#fcff3c;fill-opacity:1;stroke:#000000;stroke-width:2.45054889;stroke-miterlimit:4;stroke-dasharray:none;stroke-opacity:1"
         id="g17995">
        <path
           d="M 501.89547,651.45176 C 501.43736,652.54124 501.20152,653.53761 500.18377,654.15017 C 499.44285,652.95196 495.40576,652.1641 493.23999,652.68233 C 495.45826,650.45501 499.04039,650.51218 501.89547,651.45176 z "
           style="fill:#fcff3c;fill-opacity:1;fill-rule:evenodd;stroke:#000000;stroke-width:2.45054889;stroke-linecap:butt;stroke-linejoin:miter;stroke-miterlimit:4;stroke-dasharray:none;stroke-opacity:1"
           id="path13506" />
        <path
           d="M 499.67748,655.1218 C 500.03273,656.78169 499.23034,657.53164 498.15001,658.22602 C 497.20926,657.09586 492.42089,656.36823 490.04828,657.06462 C 492.31921,654.66361 496.39746,654.42549 499.67748,655.1218 z "
           style="fill:#fcff3c;fill-opacity:1;fill-rule:evenodd;stroke:#000000;stroke-width:2.45054889;stroke-linecap:butt;stroke-linejoin:miter;stroke-miterlimit:4;stroke-dasharray:none;stroke-opacity:1"
           id="path13508" />
        <path
           d="M 498.06451,658.8953 C 497.9534,659.82739 498.04342,661.34861 498.16237,662.38841 C 496.8972,661.7687 492.02606,663.2454 490.46879,664.83726 C 491.16047,661.77078 495.14752,659.62025 498.06451,658.8953 z "
           style="fill:#fcff3c;fill-opacity:1;fill-rule:evenodd;stroke:#000000;stroke-width:2.45054889;stroke-linecap:butt;stroke-linejoin:miter;stroke-miterlimit:4;stroke-dasharray:none;stroke-opacity:1"
           id="path13510" />
        <path
           d="M 512.24169,662.79354 C 511.31279,662.1799 510.32957,662.13689 509.1386,662.25369 C 508.94104,663.54461 506.79005,664.88008 504.89372,665.33409 C 507.3925,666.26969 510.27407,664.73179 512.24169,662.79354 z "
           style="fill:#fcff3c;fill-opacity:1;fill-rule:evenodd;stroke:#000000;stroke-width:2.45054889;stroke-linecap:butt;stroke-linejoin:miter;stroke-miterlimit:4;stroke-dasharray:none;stroke-opacity:1"
           id="path13512" />
      </g>
      <g
         transform="matrix(1.2340202,0,0,1.2144887,-409.95368,-554.39434)"
         style="fill:#fcff3c;fill-opacity:1;stroke:#000000;stroke-width:2.45054889;stroke-miterlimit:4;stroke-dasharray:none;stroke-opacity:1"
         id="g18001">
        <path
           d="M 580.87743,652.25717 C 579.93062,652.96456 579.22264,653.70424 578.03483,653.71696 C 578.00284,652.30853 574.92085,649.58452 572.79094,648.93445 C 575.83174,648.13744 578.8915,650.00099 580.87743,652.25717 z "
           style="fill:#fcff3c;fill-opacity:1;fill-rule:evenodd;stroke:#000000;stroke-width:2.45054889;stroke-linecap:butt;stroke-linejoin:miter;stroke-miterlimit:4;stroke-dasharray:none;stroke-opacity:1"
           id="path13516" />
        <path
           d="M 577.65187,654.02884 C 576.69974,655.10323 576.34057,656.0906 575.8459,657.21625 C 574.81486,656.25623 570.45582,656.49588 568.50379,657.56765 C 570.05513,654.8336 574.65001,653.87659 577.65187,654.02884 z "
           style="fill:#fcff3c;fill-opacity:1;fill-rule:evenodd;stroke:#000000;stroke-width:2.45054889;stroke-linecap:butt;stroke-linejoin:miter;stroke-miterlimit:4;stroke-dasharray:none;stroke-opacity:1"
           id="path13518" />
        <path
           d="M 575.33115,658.67209 C 574.98526,660.14718 574.91086,660.97385 575.36695,661.96045 C 574.15076,661.24942 569.24832,662.3478 567.57824,663.82088 C 568.49347,660.81354 572.36877,659.18065 575.33115,658.67209 z "
           style="fill:#fcff3c;fill-opacity:1;fill-rule:evenodd;stroke:#000000;stroke-width:2.45054889;stroke-linecap:butt;stroke-linejoin:miter;stroke-miterlimit:4;stroke-dasharray:none;stroke-opacity:1"
           id="path13520" />
        <path
           d="M 587.45501,662.8827 C 586.15232,662.78555 584.75608,662.51892 583.23811,663.14766 C 583.01868,664.43504 580.84534,665.55646 578.94159,665.97826 C 581.42415,666.95609 585.45481,664.78731 587.45501,662.8827 z "
           style="fill:#fcff3c;fill-opacity:1;fill-rule:evenodd;stroke:#000000;stroke-width:2.45054889;stroke-linecap:butt;stroke-linejoin:miter;stroke-miterlimit:4;stroke-dasharray:none;stroke-opacity:1"
           id="path13522" />
      </g>
      <g
         transform="matrix(1.2340202,0,0,1.2144887,-409.95368,-554.39434)"
         style="fill:#fcff3c;fill-opacity:1;stroke:#000000;stroke-width:2.45054889;stroke-miterlimit:4;stroke-dasharray:none;stroke-opacity:1"
         id="g18007">
        <path
           d="M 659.521,650.55941 C 658.23816,651.48292 658.06223,652.98621 657.80145,653.50498 C 656.75335,652.56362 652.57405,652.92253 650.64157,654.02914 C 652.14359,651.2677 656.51691,650.46106 659.521,650.55941 z "
           style="fill:#fcff3c;fill-opacity:1;fill-rule:evenodd;stroke:#000000;stroke-width:2.45054889;stroke-linecap:butt;stroke-linejoin:miter;stroke-miterlimit:4;stroke-dasharray:none;stroke-opacity:1"
           id="path13526" />
        <path
           d="M 657.37831,655.19767 C 657.29791,655.72964 656.80758,657.55052 656.96515,658.69263 C 655.89493,657.7193 651.56218,657.69589 649.69405,658.78048 C 651.07573,656.0115 654.40699,655.04144 657.37831,655.19767 z "
           style="fill:#fcff3c;fill-opacity:1;fill-rule:evenodd;stroke:#000000;stroke-width:2.45054889;stroke-linecap:butt;stroke-linejoin:miter;stroke-miterlimit:4;stroke-dasharray:none;stroke-opacity:1"
           id="path13528" />
        <path
           d="M 657.00465,660.25093 C 657.34957,661.77879 657.69732,662.38272 658.72804,663.18959 C 657.34596,662.91653 653.19993,665.35227 652.10504,667.29142 C 651.98384,664.15025 654.37269,661.7025 657.00465,660.25093 z "
           style="fill:#fcff3c;fill-opacity:1;fill-rule:evenodd;stroke:#000000;stroke-width:2.45054889;stroke-linecap:butt;stroke-linejoin:miter;stroke-miterlimit:4;stroke-dasharray:none;stroke-opacity:1"
           id="path13530" />
        <path
           d="M 671.37116,659.87781 C 670.28704,659.72421 669.05096,659.73319 668.22157,659.8516 C 668.23733,661.15745 666.2704,662.72151 664.47359,663.47891 C 667.09155,663.99419 669.74623,662.11117 671.37116,659.87781 z "
           style="fill:#fcff3c;fill-opacity:1;fill-rule:evenodd;stroke:#000000;stroke-width:2.45054889;stroke-linecap:butt;stroke-linejoin:miter;stroke-miterlimit:4;stroke-dasharray:none;stroke-opacity:1"
           id="path13532" />
      </g>
      <g
         transform="matrix(1.2340202,0,0,1.2144887,-409.95368,-554.39434)"
         style="fill:#fcff3c;fill-opacity:1;stroke:#000000;stroke-width:2.45054889;stroke-miterlimit:4;stroke-dasharray:none;stroke-opacity:1"
         id="g8124">
        <g
           style="fill:#fcff3c;fill-opacity:1;stroke:#000000;stroke-width:1.88092589;stroke-miterlimit:4;stroke-dasharray:none;stroke-opacity:1"
           transform="matrix(1.208781,0,0,1.404222,-93.34612,-185.104)"
           id="g8120">
          <g
             style="fill:#fcff3c;fill-opacity:1;stroke:#000000;stroke-width:1.88092589;stroke-miterlimit:4;stroke-dasharray:none;stroke-opacity:1"
             id="g17987">
            <path
               d="M 494.72573,510.35371 C 495.20379,508.56957 487.83056,506.0645 483.80278,506.0645 C 469.05573,506.0645 468.96938,513.19475 460.70072,513.17277 C 459.14839,513.16854 457.30524,511.06106 456.73989,511.00563 C 455.43071,510.87726 454.16479,511.4567 454.16479,512.83837 C 454.16479,514.90619 457.22202,517.94519 461.68967,517.94519 C 470.32903,517.94519 470.33132,507.16004 483.83587,507.16004 C 489.26284,507.16004 492.19503,509.67561 494.72573,510.35371 z "
               transform="matrix(0.82728,0,0,0.712138,77.22335,131.8196)"
               style="fill:#fcff3c;fill-opacity:1;fill-rule:evenodd;stroke:#000000;stroke-width:2.45054865;stroke-linecap:butt;stroke-linejoin:miter;stroke-miterlimit:4;stroke-dasharray:none;stroke-opacity:1"
               id="path1888" />
            <g
               style="fill:#fcff3c;fill-opacity:1;stroke:#000000;stroke-width:1.88092589;stroke-miterlimit:4;stroke-dasharray:none;stroke-opacity:1"
               id="g17980">
              <path
                 d="M 497.27966,556.5023 C 498.54868,555.01987 504.89464,543.88657 505.1467,541.67555 C 502.28966,544.5128 498.6597,545.14053 495.3976,544.57871 C 500.82653,541.81531 501.98736,538.02473 505.5813,533.73432 C 503.54031,534.40902 500.30611,534.80037 498.62985,534.67508 C 502.09859,532.09557 504.73585,528.38239 507.03346,524.72886 C 508.83123,521.05793 508.48548,516.85423 509.62442,513.00008 C 503.34167,520.48788 502.47583,515.3037 487.30806,515.3037 C 484.33099,515.3037 477.90845,517.23372 478.19759,512.4303 C 479.11648,509.82967 481.43194,507.92955 482.79373,509.96363 C 486.59526,509.68491 490.321,510.33735 494.1114,510.52548 C 498.4093,510.93662 500.0424,508.54312 497.97978,505.2723 C 495.76168,501.75494 490.46162,500.60586 486.4619,499.046 C 482.7558,497.60065 477.73025,499.38165 474.65122,502.21493 C 470.41811,503.51745 466.69601,497.50073 466.11025,493.99649 C 473.26381,490.97312 477.1994,488.40923 484.448,487.16973 C 485.93773,481.80113 502.13668,482.02579 507.6756,481.79645 C 510.25909,479.51136 516.49654,475.57268 521.99302,471.44238 C 520.53977,478.25989 519.36047,483.34537 519.72925,487.73398 C 529.36665,491.99099 536.01072,501.64795 542.07041,509.97678 C 541.00833,509.37161 539.07551,508.6373 538.03503,508.44119 C 540.51932,511.75394 542.64905,515.63044 546.11883,519.54671 C 543.25499,518.836 541.97648,517.87572 539.125,515.61218 C 540.09359,518.10987 542.86235,522.9131 545.22139,525.95936 C 543.28357,525.25115 542.13997,524.7949 540.09481,523.01921 C 540.54011,527.48726 544.8929,533.85827 549.42879,535.6758 C 544.96661,537.4405 537.1718,536.24583 534.77252,535.07838 C 535.49867,538.74235 537.75339,544.31781 540.06505,547.63677 C 535.47407,546.15435 531.64348,543.16216 529.35571,540.19336 C 530.93335,545.1008 528.48306,553.59787 525.36074,556.27346 C 525.29541,552.79644 524.31312,550.64851 523.25,547.11218 C 522.01409,551.9432 518.27489,556.12995 513.5,557.61218 C 514.96337,555.19227 514.5055,553.8376 513.68622,547.62352 C 513.12685,552.9028 504.48917,554.5415 497.27966,556.5023 z "
                 transform="matrix(0.82728,0,0,0.712138,77.22335,131.8196)"
                 style="fill:#fcff3c;fill-opacity:1;fill-rule:evenodd;stroke:#000000;stroke-width:2.45054865;stroke-linecap:butt;stroke-linejoin:miter;stroke-miterlimit:4;stroke-dasharray:none;stroke-opacity:1"
                 id="path4571" />
              <g
                 style="fill:#fcff3c;fill-opacity:1;stroke:#000000;stroke-width:1.88092589;stroke-miterlimit:4;stroke-dasharray:none;stroke-opacity:1"
                 id="g17975">
                <path
                   d="M 472.5625,481.36218 C 472.5625,481.94898 471.33128,482.42468 469.8125,482.42468 C 468.29372,482.42468 467.0625,481.94898 467.0625,481.36218 C 467.0625,480.77538 468.29372,480.29968 469.8125,480.29968 C 471.33128,480.29968 472.5625,480.77538 472.5625,481.36218 z "
                   transform="matrix(0.949126,-0.314897,0.314897,0.949126,-115.3657,172.8064)"
                   style="opacity:1;color:#000000;fill:#fcff3c;fill-opacity:1;fill-rule:nonzero;stroke:#000000;stroke-width:1.88092566;stroke-linecap:butt;stroke-linejoin:miter;marker:none;marker-start:none;marker-mid:none;marker-end:none;stroke-miterlimit:4;stroke-dasharray:none;stroke-dashoffset:0;stroke-opacity:1;visibility:visible;display:inline;overflow:visible"
                   id="path7231" />
                <path
                   d="M 472.5625,481.36218 C 472.5625,481.94898 471.33128,482.42468 469.8125,482.42468 C 468.29372,482.42468 467.0625,481.94898 467.0625,481.36218 C 467.0625,480.77538 468.29372,480.29968 469.8125,480.29968 C 471.33128,480.29968 472.5625,480.77538 472.5625,481.36218 z "
                   transform="matrix(0.529122,-0.213395,0.175551,0.643188,148.1584,272.7664)"
                   style="opacity:1;color:#000000;fill:#fcff3c;fill-opacity:1;fill-rule:nonzero;stroke:#000000;stroke-width:3.06018996;stroke-linecap:butt;stroke-linejoin:miter;marker:none;marker-start:none;marker-mid:none;marker-end:none;stroke-miterlimit:4;stroke-dasharray:none;stroke-dashoffset:0;stroke-opacity:1;visibility:visible;display:inline;overflow:visible"
                   id="path7233" />
              </g>
            </g>
          </g>
        </g>
      </g>
      <g
         transform="matrix(1.2340202,0,0,1.2144887,-436.77866,-561.106)"
         style="fill:#fcff3c;fill-opacity:1;stroke:#000000;stroke-width:2.45054889;stroke-miterlimit:4;stroke-dasharray:none;stroke-opacity:1;display:inline"
         id="g5378">
        <path
           d="M 501.89547,651.45176 C 501.43736,652.54124 501.20152,653.53761 500.18377,654.15017 C 499.44285,652.95196 495.40576,652.1641 493.23999,652.68233 C 495.45826,650.45501 499.04039,650.51218 501.89547,651.45176 z "
           style="fill:#fcff3c;fill-opacity:1;fill-rule:evenodd;stroke:#000000;stroke-width:2.45054889;stroke-linecap:butt;stroke-linejoin:miter;stroke-miterlimit:4;stroke-dasharray:none;stroke-opacity:1"
           id="path5380" />
        <path
           d="M 499.67748,655.1218 C 500.03273,656.78169 499.23034,657.53164 498.15001,658.22602 C 497.20926,657.09586 492.42089,656.36823 490.04828,657.06462 C 492.31921,654.66361 496.39746,654.42549 499.67748,655.1218 z "
           style="fill:#fcff3c;fill-opacity:1;fill-rule:evenodd;stroke:#000000;stroke-width:2.45054889;stroke-linecap:butt;stroke-linejoin:miter;stroke-miterlimit:4;stroke-dasharray:none;stroke-opacity:1"
           id="path5382" />
        <path
           d="M 498.06451,658.8953 C 497.9534,659.82739 498.04342,661.34861 498.16237,662.38841 C 496.8972,661.7687 492.02606,663.2454 490.46879,664.83726 C 491.16047,661.77078 495.14752,659.62025 498.06451,658.8953 z "
           style="fill:#fcff3c;fill-opacity:1;fill-rule:evenodd;stroke:#000000;stroke-width:2.45054889;stroke-linecap:butt;stroke-linejoin:miter;stroke-miterlimit:4;stroke-dasharray:none;stroke-opacity:1"
           id="path5384" />
        <path
           d="M 512.24169,662.79354 C 511.31279,662.1799 510.32957,662.13689 509.1386,662.25369 C 508.94104,663.54461 506.79005,664.88008 504.89372,665.33409 C 507.3925,666.26969 510.27407,664.73179 512.24169,662.79354 z "
           style="fill:#fcff3c;fill-opacity:1;fill-rule:evenodd;stroke:#000000;stroke-width:2.45054889;stroke-linecap:butt;stroke-linejoin:miter;stroke-miterlimit:4;stroke-dasharray:none;stroke-opacity:1"
           id="path5386" />
      </g>
    </g>
  </g>
  <g
     inkscape:groupmode="layer"
     id="layer2"
     inkscape:label="Reflet final"
     sodipodi:insensitive="true"
     style="display:inline">
    <path
       sodipodi:nodetypes="cccccc"
       d="M 300.00001,658.5 C 300.00001,658.5 598.50001,546.17969 598.50001,260.72817 C 598.50001,-24.723334 598.50001,2.1764865 598.50001,2.1764865 L 1.5,2.1764865 L 1.5,260.72817 C 1.5,546.17969 300.00001,658.5 300.00001,658.5 z "
       style="opacity:1;fill:url(#radialGradient3163);fill-opacity:1;fill-rule:evenodd;stroke:none;stroke-width:1px;stroke-linecap:butt;stroke-linejoin:miter;stroke-opacity:1"
       id="path2875"
       inkscape:export-xdpi="144"
       inkscape:export-ydpi="144" />
  </g>
  <g
     inkscape:groupmode="layer"
     id="layer1"
     inkscape:label="Contour final"
     style="display:inline"
     sodipodi:insensitive="true">
    <path
       sodipodi:nodetypes="cccccc"
       d="M 299.99999,658.50028 C 299.99999,658.50028 1.5,546.17992 1.5,260.72828 C 1.5,-24.723336 1.5,2.1764957 1.5,2.1764957 L 598.49999,2.1764957 L 598.49999,260.72828 C 598.49999,546.17992 299.99999,658.50028 299.99999,658.50028 z "
       style="opacity:1;fill:none;fill-opacity:1;fill-rule:evenodd;stroke:#000000;stroke-width:3.00000048;stroke-linecap:butt;stroke-linejoin:miter;stroke-miterlimit:4;stroke-dasharray:none;stroke-opacity:1"
       id="path1411"
       inkscape:export-xdpi="144"
       inkscape:export-ydpi="144" />
  </g>
</svg>
