<?xml version="1.0" encoding="UTF-8" standalone="no"?>
<svg
   xmlns:dc="http://purl.org/dc/elements/1.1/"
   xmlns:cc="http://creativecommons.org/ns#"
   xmlns:rdf="http://www.w3.org/1999/02/22-rdf-syntax-ns#"
   xmlns:svg="http://www.w3.org/2000/svg"
   xmlns="http://www.w3.org/2000/svg"
   xmlns:xlink="http://www.w3.org/1999/xlink"
   xmlns:sodipodi="http://sodipodi.sourceforge.net/DTD/sodipodi-0.dtd"
   xmlns:inkscape="http://www.inkscape.org/namespaces/inkscape"
   height="660"
   width="600"
   version="1.0"
   id="svg2"
   sodipodi:version="0.32"
   inkscape:version="0.48.2 r9819"
   sodipodi:docname="Blason de la ville de Erching (Moselle).svg"
   inkscape:output_extension="org.inkscape.output.svg.inkscape">
  <metadata
     id="metadata49">
    <rdf:RDF>
      <cc:Work
         rdf:about="">
        <dc:format>image/svg+xml</dc:format>
        <dc:type
           rdf:resource="http://purl.org/dc/dcmitype/StillImage" />
        <dc:title />
        <dc:date />
        <dc:creator>
          <cc:Agent>
            <dc:title>TomKr</dc:title>
          </cc:Agent>
        </dc:creator>
        <cc:license
           rdf:resource="http://web.resource.org/cc/PublicDomain" />
        <dc:language>fr</dc:language>
        <dc:subject>
          <rdf:Bag>
            <rdf:li>blason</rdf:li>
          </rdf:Bag>
        </dc:subject>
      </cc:Work>
      <cc:License
         rdf:about="http://web.resource.org/cc/PublicDomain">
        <cc:permits
           rdf:resource="http://web.resource.org/cc/Reproduction" />
        <cc:permits
           rdf:resource="http://web.resource.org/cc/Distribution" />
        <cc:permits
           rdf:resource="http://web.resource.org/cc/DerivativeWorks" />
      </cc:License>
    </rdf:RDF>
  </metadata>
  <sodipodi:namedview
     inkscape:window-height="949"
     inkscape:window-width="1280"
     inkscape:pageshadow="2"
     inkscape:pageopacity="0.0"
     guidetolerance="10.0"
     gridtolerance="10.0"
     objecttolerance="10.0"
     borderopacity="1.0"
     bordercolor="#666666"
     pagecolor="#ffffff"
     id="base"
     showgrid="false"
     height="660px"
     inkscape:zoom="0.8"
     inkscape:cx="352.81158"
     inkscape:cy="330.00016"
     inkscape:window-x="-9"
     inkscape:window-y="-9"
     inkscape:current-layer="layer2"
     inkscape:window-maximized="1" />
  <defs
     id="defs6">
    <linearGradient
       id="linearGradient2893">
      <stop
         style="stop-color:white;stop-opacity:0.3137255;"
         offset="0"
         id="stop2895" />
      <stop
         id="stop2897"
         offset="0.19"
         style="stop-color:white;stop-opacity:0.25098041;" />
      <stop
         style="stop-color:#6b6b6b;stop-opacity:0.1254902;"
         offset="0.60000002"
         id="stop2901" />
      <stop
         style="stop-color:black;stop-opacity:0.1254902;"
         offset="1"
         id="stop2899" />
    </linearGradient>
    <radialGradient
       inkscape:collect="always"
       xlink:href="#linearGradient2893"
       id="radialGradient11919"
       gradientUnits="userSpaceOnUse"
       gradientTransform="matrix(1.551284,0,0,1.350335,-227.8943,-51.2635)"
       cx="285.18573"
       cy="200.44757"
       fx="285.18573"
       fy="200.44757"
       r="300" />
    <radialGradient
       r="300"
       fy="200.44757"
       fx="285.18573"
       cy="200.44757"
       cx="285.18573"
       gradientTransform="matrix(1.551284,0,0,1.350335,-227.8943,-51.2635)"
       gradientUnits="userSpaceOnUse"
       id="radialGradient11919-4"
       xlink:href="#linearGradient2893-9"
       inkscape:collect="always" />
    <radialGradient
       gradientUnits="userSpaceOnUse"
       gradientTransform="matrix(0,2.342476,-2.291353,0,562.9126,1323.77)"
       r="300.00003"
       fy="153.9283"
       fx="-483.50824"
       cy="153.9283"
       cx="-483.50824"
       id="radialGradient2928"
       xlink:href="#linearGradient2955"
       inkscape:collect="always" />
    <radialGradient
       r="300"
       fy="218.90099"
       fx="225.52438"
       cy="218.90099"
       cx="225.52438"
       gradientTransform="matrix(-4.167939e-4,2.182867,-1.884232,-3.599562e-4,1395.597,-309.1214)"
       gradientUnits="userSpaceOnUse"
       id="radialGradient1911"
       xlink:href="#linearGradient2955"
       inkscape:collect="always" />
    <clipPath
       id="clip">
      <path
         id="path10"
         d="M 0,-200 L 0,600 L 300,600 L 300,-200 L 0,-200 z" />
    </clipPath>
    <polygon
       points="0,-1 0.58778525,0.80901699 -0.95105652,-0.30901699 0.95105652,-0.30901699 -0.58778525,0.80901699 0,-1 "
       transform="scale(53,53)"
       id="star" />
    <radialGradient
       gradientUnits="userSpaceOnUse"
       gradientTransform="matrix(-4.167939e-4,2.182867,-1.884232,-3.599562e-4,615.5972,-289.1214)"
       r="300"
       fy="218.90099"
       fx="225.52438"
       cy="218.90099"
       cx="225.52438"
       id="radialGradient2961"
       xlink:href="#linearGradient2955"
       inkscape:collect="always" />
    <linearGradient
       id="linearGradient2955">
      <stop
         id="stop2965"
         offset="0"
         style="stop-color:white;stop-opacity:0;" />
      <stop
         id="stop2959"
         offset="1"
         style="stop-color:black;stop-opacity:0.64583331;" />
    </linearGradient>
    <radialGradient
       gradientUnits="userSpaceOnUse"
       gradientTransform="matrix(1.360018,0,0,1.355087,-79.5275,-87.64524)"
       r="300"
       fy="218.01039"
       fx="203.19754"
       cy="218.01039"
       cx="203.19754"
       id="radialGradient2883"
       xlink:href="#linearGradient2893-9"
       inkscape:collect="always" />
    <linearGradient
       id="linearGradient2893-9">
      <stop
         id="stop2895-4"
         offset="0"
         style="stop-color:white;stop-opacity:0.3137255;" />
      <stop
         style="stop-color:white;stop-opacity:0.25098041;"
         offset="0.19"
         id="stop2897-8" />
      <stop
         id="stop2901-8"
         offset="0.60000002"
         style="stop-color:#6b6b6b;stop-opacity:0.1254902;" />
      <stop
         id="stop2899-2"
         offset="1"
         style="stop-color:black;stop-opacity:0.1254902;" />
    </linearGradient>
    <inkscape:perspective
       id="perspective13932"
       inkscape:persp3d-origin="300 : 400 : 1"
       inkscape:vp_z="700 : 600 : 1"
       inkscape:vp_y="0 : 1000 : 0"
       inkscape:vp_x="-50 : 600 : 1"
       sodipodi:type="inkscape:persp3d" />
  </defs>
  <g
     inkscape:groupmode="layer"
     id="layer1"
     inkscape:label="Fond écu">
    <path
       id="path2014"
       style="fill:#d40000;fill-opacity:1;fill-rule:nonzero;stroke:none"
       d="m 299.99993,658.49936 c 0,-38.50406 31.20317,-69.75366 69.64996,-69.75366 38.4468,0 120.75314,0 159.19992,0 38.4468,0 69.65008,-31.24958 69.65008,-69.75355 l 0,-517.4924903 -596.9998796,1.99e-5 -9.9e-6,517.4924704 c 0,38.50397 31.2031985,69.75355 69.6499935,69.75355 38.446806,0 120.753156,0 159.199956,0 38.44679,0 69.64998,31.2496 69.64998,69.75366 z"
       sodipodi:nodetypes="cssccccssc"
       inkscape:connector-curvature="0" />
  </g>
  <g
     inkscape:groupmode="layer"
     id="layer2"
     inkscape:label="Meubles">
    <path
       style="fill:#fcef3c;stroke:#000000;stroke-width:3;stroke-miterlimit:4;stroke-opacity:1;stroke-dasharray:none"
       d="m 459.7971,277.36289 c -5.1143,0 -9.8783,1.48802 -13.8944,4.04634 1.6778,-3.43087 2.6216,-7.28656 2.6216,-11.36376 0,-14.30892 -11.5987,-25.90763 -25.9077,-25.90763 -14.3081,0 -25.9076,11.59871 -25.9076,25.90763 0,4.92444 1.3741,9.52768 3.76,13.44823 l -80.6918,0 0,-80.69177 c 3.9206,2.38588 8.5238,3.75996 13.4482,3.75996 14.309,0 25.9077,-11.5995 25.9077,-25.90762 0,-14.30813 -11.5987,-25.90763 -25.9077,-25.90763 -4.0764,0 -7.932,0.94454 -11.3637,2.6224 2.5582,-4.01627 4.0463,-8.7809 4.0463,-13.89518 0,-14.30813 -11.5988,-25.90764 -25.9076,-25.90764 -14.3081,0 -25.9077,11.59951 -25.9077,25.90764 0,5.11428 1.4881,9.87891 4.0463,13.8944 -3.4317,-1.67708 -7.2864,-2.62162 -11.3637,-2.62162 -14.3082,0 -25.9077,11.5995 -25.9077,25.90763 0,14.30812 11.5995,25.90762 25.9077,25.90762 4.9244,0 9.5276,-1.37408 13.4482,-3.75996 l 0,80.69177 -80.6918,0 c 2.3859,-3.92055 3.76,-8.52379 3.76,-13.44823 0,-14.30892 -11.5995,-25.90763 -25.9077,-25.90763 -14.3081,0 -25.9076,11.59871 -25.9076,25.90763 0,4.0772 0.9446,7.93209 2.6224,11.36376 -4.0163,-2.55832 -8.7809,-4.04634 -13.8952,-4.04634 -14.3081,0 -25.9076,11.59871 -25.9076,25.90764 0,14.30812 11.5995,25.90762 25.9076,25.90762 5.1143,0 9.8789,-1.48801 13.8944,-4.04633 -1.677,3.43167 -2.6216,7.28658 -2.6216,11.36377 0,14.30813 11.5995,25.90764 25.9076,25.90764 14.3082,0 25.9077,-11.59951 25.9077,-25.90764 0,-4.92444 -1.3741,-9.52771 -3.76,-13.44825 l 80.6918,0 0,80.69179 c -3.9206,-2.38591 -8.5238,-3.75998 -13.4482,-3.75998 -14.3082,0 -25.9077,11.5995 -25.9077,25.90763 0,14.30891 11.5995,25.90761 25.9077,25.90761 4.0772,0 7.932,-0.94373 11.3637,-2.6216 -2.5582,4.01628 -4.0463,8.7809 -4.0463,13.89439 0,14.30892 11.5996,25.90762 25.9077,25.90762 14.3088,0 25.9076,-11.5987 25.9076,-25.90762 0,-5.11428 -1.4881,-9.87812 -4.0463,-13.89439 3.4317,1.67787 7.2872,2.6216 11.3637,2.6216 14.309,0 25.9077,-11.5987 25.9077,-25.90761 0,-14.30813 -11.5987,-25.90763 -25.9077,-25.90763 -4.9244,0 -9.5276,1.37407 -13.4482,3.75998 l 0,-80.69179 80.6918,0 c -2.3859,3.92054 -3.76,8.52381 -3.76,13.44825 0,14.30813 11.5995,25.90764 25.9076,25.90764 14.309,0 25.9077,-11.59951 25.9077,-25.90764 0,-4.07719 -0.9438,-7.9321 -2.6216,-11.36377 4.0162,2.55832 8.7809,4.04633 13.8944,4.04633 14.3089,0 25.9076,-11.5995 25.9076,-25.90762 0,-14.30893 -11.5987,-25.90764 -25.9076,-25.90764 z"
       id="path3185"
       inkscape:connector-curvature="0" />
    <path
       inkscape:connector-curvature="0"
       sodipodi:nodetypes="ccsscsscccccsscssccc"
       d="m 71.22924,78.2375 0,396.60684 c 0,29.50948 23.91416,53.45919 53.37984,53.45919 29.46567,0 92.54536,0 122.01103,0 29.46567,0 53.37983,2.18707 53.37983,31.69662 0,-29.50955 23.91414,-31.69662 53.37981,-31.69662 29.46567,0 92.54534,0 122.01101,0 29.46567,0 53.3799,-23.94971 53.3799,-53.45919 l 0,-396.60685 z m 527.27065,-76.7372 0,517.49249 c 0,38.50397 -31.20328,69.75355 -69.65008,69.75355 -38.44678,0 -120.75312,0 -159.19992,0 -38.44679,0 -69.64996,31.2496 -69.64996,69.75366 0,-38.50406 -31.20319,-69.75366 -69.64998,-69.75366 -38.4468,0 -120.75315,0 -159.19995,0 -38.4468,0 -69.65,-31.24958 -69.65,-69.75355 l 1e-5,-517.49247 z"
       style="fill:#fcef3c;fill-opacity:1;fill-rule:nonzero;stroke:#000000;stroke-width:3;stroke-linecap:round;stroke-linejoin:round;stroke-miterlimit:4;stroke-opacity:1;stroke-dashoffset:0"
       id="path2014-5" />
    <g
       id="layer1-1"
       inkscape:label="Calque 1"
       transform="translate(-391.78236,-435.43232)">
      <text
         sodipodi:linespacing="125%"
         id="text4953"
         y="466.77609"
         x="403.92828"
         style="font-size:18.95129967px;font-style:normal;font-weight:normal;line-height:125%;letter-spacing:0px;word-spacing:0px;fill:#000000;fill-opacity:1;stroke:none;font-family:Sans"
         xml:space="preserve"><tspan
           id="tspan4997"
           y="466.77609"
           x="403.92828"
           sodipodi:role="line" /></text>
    </g>
  </g>
  <g
     inkscape:groupmode="layer"
     id="layer3"
     inkscape:label="Reflet final"
     sodipodi:insensitive="true">
    <path
       id="path2875"
       style="fill:url(#radialGradient11919);fill-opacity:1;fill-rule:evenodd;stroke:none;stroke-width:3.00000024;stroke-linecap:butt;stroke-linejoin:miter;stroke-miterlimit:4;stroke-dasharray:none;stroke-opacity:1"
       d="M 1.5,1.49974 L 1.5,518.99107 C 1.5,557.49556 32.7031,588.7456 71.15,588.7456 C 109.5968,588.7456 191.9032,588.7456 230.35,588.7456 C 268.79691,588.7455 300.00003,619.99554 300.00003,658.5 C 300.00003,619.99554 331.20317,588.7456 369.64997,588.7456 C 408.09687,588.7455 490.40327,588.7456 528.85007,588.7456 C 567.29687,588.7456 598.50007,557.49556 598.50007,518.99107 L 598.50007,1.49974 L 1.5,1.49974 z " />
  </g>
  <g
     inkscape:groupmode="layer"
     id="layer4"
     inkscape:label="Contour final"
     sodipodi:insensitive="true">
    <path
       id="path1572"
       style="fill:none;fill-opacity:1;fill-rule:nonzero;stroke:#000000;stroke-width:3.00000191;stroke-linecap:round;stroke-linejoin:round;stroke-miterlimit:4;stroke-dasharray:none;stroke-dashoffset:0;stroke-opacity:1"
       d="M 300.00003,658.5 C 300.00003,619.9959 331.20322,588.74628 369.65003,588.74628 C 408.09684,588.74628 490.40321,588.74628 528.85001,588.74628 C 567.29681,588.74628 598.50011,557.49666 598.50011,518.99266 L 598.50011,1.4996809 L 1.5000099,1.4997008 L 1.5,518.99266 C 1.5,557.49666 32.70321,588.74628 71.150019,588.74628 C 109.59684,588.74628 191.90322,588.74628 230.35003,588.74628 C 268.79684,588.74628 300.00003,619.9959 300.00003,658.5 z "
       sodipodi:nodetypes="cssccccssc" />
  </g>
</svg>
