<?xml version="1.0" encoding="UTF-8" standalone="no"?>
<svg
   xmlns:dc="http://purl.org/dc/elements/1.1/"
   xmlns:cc="http://web.resource.org/cc/"
   xmlns:rdf="http://www.w3.org/1999/02/22-rdf-syntax-ns#"
   xmlns:svg="http://www.w3.org/2000/svg"
   xmlns="http://www.w3.org/2000/svg"
   xmlns:xlink="http://www.w3.org/1999/xlink"
   xmlns:sodipodi="http://sodipodi.sourceforge.net/DTD/sodipodi-0.dtd"
   xmlns:inkscape="http://www.inkscape.org/namespaces/inkscape"
   height="660"
   width="600"
   version="1.0"
   id="svg2"
   sodipodi:version="0.32"
   inkscape:version="0.45.1"
   sodipodi:docname="Blason_ville_fr_Martigné-Briand_(Maine-et-Loire).svg"
   sodipodi:docbase="C:\Documents and Settings\Bruno Vallette\Mes documents\Perso\Wikipédia Blasons\Communes BVA"
   inkscape:export-filename="/Users/olivier/Desktop/Blason Rouge/Blason_Vide_3D.png"
   inkscape:export-xdpi="144"
   inkscape:export-ydpi="144"
   inkscape:output_extension="org.inkscape.output.svg.inkscape">
  <metadata
     id="metadata49">
    <rdf:RDF>
      <cc:Work
         rdf:about="">
        <dc:format>image/svg+xml</dc:format>
        <dc:type
           rdf:resource="http://purl.org/dc/dcmitype/StillImage" />
        <dc:title>Gabarit d'un blason en pointe pour le projet Blasons de Wikipédia</dc:title>
        <dc:date>03-AUG-2006</dc:date>
        <dc:creator>
          <cc:Agent>
            <dc:title>Jérôme BLUM (wagner51)</dc:title>
          </cc:Agent>
        </dc:creator>
        <cc:license
           rdf:resource="http://web.resource.org/cc/PublicDomain" />
        <dc:language>fr</dc:language>
        <dc:subject>
          <rdf:Bag>
            <rdf:li>gabarit modèle blason projet wikipédia</rdf:li>
          </rdf:Bag>
        </dc:subject>
      </cc:Work>
      <cc:License
         rdf:about="http://web.resource.org/cc/PublicDomain">
        <cc:permits
           rdf:resource="http://web.resource.org/cc/Reproduction" />
        <cc:permits
           rdf:resource="http://web.resource.org/cc/Distribution" />
        <cc:permits
           rdf:resource="http://web.resource.org/cc/DerivativeWorks" />
      </cc:License>
    </rdf:RDF>
  </metadata>
  <sodipodi:namedview
     inkscape:window-height="681"
     inkscape:window-width="1024"
     inkscape:pageshadow="2"
     inkscape:pageopacity="0.0"
     guidetolerance="10.0"
     gridtolerance="10.0"
     objecttolerance="10.0"
     borderopacity="1.0"
     bordercolor="#666666"
     pagecolor="#ffffff"
     id="base"
     showgrid="false"
     height="660px"
     inkscape:zoom="0.73484817"
     inkscape:cx="300"
     inkscape:cy="329.99986"
     inkscape:window-x="0"
     inkscape:window-y="22"
     inkscape:current-layer="layer3" />
  <desc
     id="desc4">Flag of Canton of Valais (Wallis)</desc>
  <defs
     id="defs6">
    <linearGradient
       id="linearGradient2893">
      <stop
         style="stop-color:white;stop-opacity:0.3137255;"
         offset="0"
         id="stop2895" />
      <stop
         id="stop2897"
         offset="0.19"
         style="stop-color:white;stop-opacity:0.25098041;" />
      <stop
         style="stop-color:#6b6b6b;stop-opacity:0.1254902;"
         offset="0.60000002"
         id="stop2901" />
      <stop
         style="stop-color:black;stop-opacity:0.1254902;"
         offset="1"
         id="stop2899" />
    </linearGradient>
    <linearGradient
       id="linearGradient2885">
      <stop
         id="stop2887"
         offset="0"
         style="stop-color:white;stop-opacity:1;" />
      <stop
         style="stop-color:white;stop-opacity:1;"
         offset="0.22857143"
         id="stop2891" />
      <stop
         id="stop2889"
         offset="1"
         style="stop-color:black;stop-opacity:1;" />
    </linearGradient>
    <linearGradient
       id="linearGradient2955">
      <stop
         id="stop2867"
         offset="0"
         style="stop-color:#fd0000;stop-opacity:1;" />
      <stop
         style="stop-color:#e77275;stop-opacity:0.65882355;"
         offset="0.5"
         id="stop2873" />
      <stop
         style="stop-color:black;stop-opacity:0.32291666;"
         offset="1"
         id="stop2959" />
    </linearGradient>
    <radialGradient
       inkscape:collect="always"
       xlink:href="#linearGradient2955"
       id="radialGradient2961"
       cx="225.52438"
       cy="218.90099"
       fx="225.52438"
       fy="218.90099"
       r="300"
       gradientTransform="matrix(-4.167939e-4,2.182867,-1.884232,-3.599562e-4,615.5972,-289.1214)"
       gradientUnits="userSpaceOnUse" />
    <polygon
       id="star"
       transform="scale(53,53)"
       points="0,-1 0.58778525,0.80901699 -0.95105652,-0.30901699 0.95105652,-0.30901699 -0.58778525,0.80901699 0,-1 " />
    <clipPath
       id="clip">
      <path
         d="M 0,-200 L 0,600 L 300,600 L 300,-200 L 0,-200 z "
         id="path10" />
    </clipPath>
    <radialGradient
       inkscape:collect="always"
       xlink:href="#linearGradient2955"
       id="radialGradient1911"
       gradientUnits="userSpaceOnUse"
       gradientTransform="matrix(-4.167939e-4,2.182867,-1.884232,-3.599562e-4,615.5972,-289.1214)"
       cx="225.52438"
       cy="218.90099"
       fx="225.52438"
       fy="218.90099"
       r="300" />
    <radialGradient
       inkscape:collect="always"
       xlink:href="#linearGradient2955"
       id="radialGradient2865"
       gradientUnits="userSpaceOnUse"
       gradientTransform="matrix(0,1.748721,-1.593162,-1.049767e-7,551.7876,-191.2898)"
       cx="225.52438"
       cy="218.90099"
       fx="225.52438"
       fy="218.90099"
       r="300" />
    <radialGradient
       inkscape:collect="always"
       xlink:href="#linearGradient2955"
       id="radialGradient2871"
       gradientUnits="userSpaceOnUse"
       gradientTransform="matrix(0,1.386237,-1.323286,-5.741131e-8,-158.0823,-109.5408)"
       cx="225.52438"
       cy="218.90099"
       fx="225.52438"
       fy="218.90099"
       r="300" />
    <radialGradient
       inkscape:collect="always"
       xlink:href="#linearGradient2893"
       id="radialGradient3163"
       gradientUnits="userSpaceOnUse"
       gradientTransform="matrix(1.353218,0,0,1.348928,-77.62935,-85.74693)"
       cx="221.44487"
       cy="226.33101"
       fx="221.44487"
       fy="226.33101"
       r="300" />
  </defs>
  <g
     inkscape:groupmode="layer"
     id="layer3"
     inkscape:label="Fond écu"
     style="display:inline">
    <path
       style="fill:#2b5df2;fill-opacity:1;fill-rule:evenodd;stroke:#000000;stroke-width:3;stroke-linecap:butt;stroke-linejoin:miter;stroke-miterlimit:4;stroke-dasharray:none;stroke-opacity:1;display:inline"
       d="M 598.5,142.125 L 137.8125,555.21875 C 216.49087,627.06407 300,658.5 300,658.5 C 300,658.5 598.5,546.17027 598.5,260.71875 C 598.5,129.7761 598.5,174.36123 598.5,142.125 z "
       id="path2228"
       sodipodi:nodetypes="cccsc" />
    <path
       style="fill:#ffffff;fill-opacity:1;stroke:#000000;stroke-width:3;stroke-miterlimit:4;stroke-dasharray:none;stroke-opacity:1;display:inline"
       d="M 598.5,142.125 L 526.5,206.6875 L 598.5,206.6875 C 598.5,193.95819 598.5,159.67442 598.5,142.125 z M 454.53125,271.21875 L 382.5625,335.75 L 591.25,335.75 C 595.29056,315.33773 597.75742,293.82844 598.34375,271.21875 L 454.53125,271.21875 z M 310.5625,400.3125 L 238.5625,464.875 L 539.03125,464.875 C 551.68031,445.05327 562.94169,423.54735 572.1875,400.3125 L 310.5625,400.3125 z M 166.59375,529.40625 L 137.8125,555.21875 C 153.7449,569.76745 169.87372,582.62837 185.46875,593.9375 L 414.59375,593.9375 C 438.83748,576.35245 464.36594,554.92157 488.4375,529.40625 L 166.59375,529.40625 z "
       id="rect9323" />
    <path
       style="fill:#e20909;fill-opacity:1;fill-rule:evenodd;stroke:#000000;stroke-width:3;stroke-linecap:butt;stroke-linejoin:miter;stroke-miterlimit:4;stroke-dasharray:none;stroke-opacity:1;display:inline"
       d="M 1.5,2.1875 L 1.5,260.71875 C 1.5,304.31967 8.4803328,343.8859 20.28125,379.625 L 441.21875,2.1875 L 1.5,2.1875 z "
       id="path2246"
       sodipodi:nodetypes="ccccc" />
  </g>
  <g
     inkscape:groupmode="layer"
     id="layer4"
     inkscape:label="Meubles"
     style="display:inline"
     sodipodi:insensitive="true">
    <path
       style="fill:#fcef3c;fill-opacity:1;fill-rule:evenodd;stroke:#000000;stroke-width:3;stroke-linecap:butt;stroke-linejoin:miter;stroke-miterlimit:4;stroke-dasharray:none;stroke-opacity:1;display:inline"
       d="M 441.21875,2.1875 L 20.28125,379.625 C 44.875099,454.10753 90.461174,511.97979 137.8125,555.21875 L 598.5,142.125 C 598.5,104.08709 598.5,2.1875 598.5,2.1875 L 441.21875,2.1875 z "
       id="path2237" />
    <g
       id="g9290">
      <g
         id="g5300">
        <path
           sodipodi:nodetypes="cscscccscccscscscscscscscscscsscsscscscscscccccscscscscscssssssccsccccccccsccccccccscscccscssssscssscscscscscssscscsssccscccscssscscscscssssssscscssccscscsssccssscscsccscccccccsscscc"
           d="M 125.85651,76.446076 C 125.85651,72.588481 120.6487,63.731462 143.20554,67.424135 C 152.58565,68.959698 164.39578,76.755731 164.39578,76.755731 C 164.39578,76.755731 157.42113,78.473027 157.13426,78.339231 C 148.19256,74.168795 140.68961,75.855295 142.7107,78.495159 C 143.41978,79.672126 145.48218,79.840766 143.63799,82.920227 L 137.48959,85.011434 C 137.48959,85.011434 139.95443,86.010208 139.43854,86.877917 C 138.92264,87.745648 135.42596,88.482308 135.42596,88.482308 L 136.73932,89.211388 L 134.83797,90.144805 C 134.83797,90.144805 136.31187,90.246771 135.40759,91.428078 C 134.5033,92.609348 131.22082,94.869913 131.22082,94.869913 C 131.22082,94.869913 136.80901,95.321624 137.81797,96.269436 C 138.82694,97.217264 135.25673,98.661201 135.25673,98.661201 C 135.25673,98.661201 137.17888,98.952741 137.12184,99.623566 C 137.06476,100.29438 135.02846,101.3445 135.02846,101.3445 C 135.02846,101.3445 136.88167,101.60687 136.6177,102.1902 C 136.35373,102.77352 133.49822,107.99441 133.49822,107.99441 C 133.49822,107.99441 137.31283,106.82752 138.28434,107.58577 C 139.25586,108.34403 137.38426,111.02739 137.38426,111.02739 C 137.38426,111.02739 138.88829,109.88254 139.21962,110.2398 C 139.55096,110.59705 138.70954,112.45645 138.70954,112.45645 C 138.70954,112.45645 140.05965,107.294 139.80708,112.57303 C 139.55452,117.85208 139.56046,118.20207 139.56046,118.20207 C 139.56046,118.20207 142.56582,113.73948 143.67529,114.55606 C 144.78473,115.37264 143.99825,121.46836 143.99825,121.46836 C 143.99825,121.46836 145.46361,118.04857 146.9014,119.04739 C 147.34058,119.3525 146.12735,121.84737 146.12735,121.84737 C 146.12735,121.84737 148.34663,120.4837 148.66431,122.05137 C 148.98198,123.61902 147.00207,128.99294 147.39803,128.11794 C 147.794,127.24294 153.37901,117.44285 153.37901,117.44285 C 153.37901,117.44285 153.81338,120.06589 154.62638,118.31772 C 155.49454,116.45097 155.22892,107.14599 161.03113,108.52186 C 167.52481,110.0617 158.3965,120.12517 157.94878,120.41745 C 157.94878,120.41745 160.68694,118.36108 161.01965,119.80477 C 161.35231,121.24845 159.2795,126.19221 159.2795,126.19221 C 159.2795,126.19221 161.23645,124.50046 161.72665,125.14208 C 162.21688,125.7837 161.24038,128.75869 161.24038,128.75869 C 161.24038,128.75869 163.03383,127.519 163.48957,128.14604 C 163.94529,128.77308 163.06332,131.26683 163.06332,131.26683 C 163.06332,131.26683 164.86719,130.63963 165.45639,131.06251 C 166.0456,131.48536 165.42017,132.95829 165.42017,132.95829 L 165.48616,132.81245 L 167.50112,134.53311 C 167.50112,134.53311 167.54649,130.41241 168.75816,129.18738 C 171.21644,127.24808 171.55525,131.33787 171.86153,133.24954 C 171.86153,133.24954 172.44354,131.23703 173.06725,131.67448 C 173.69094,132.11193 174.27247,134.09515 174.27247,134.09515 C 174.27247,134.09515 174.46758,132.48372 175.48413,132.87011 C 176.50067,133.2565 178.33862,135.6407 178.33862,135.6407 C 177.99108,135.27721 176.95694,129.89858 180.2643,132.11151 C 180.88512,132.5269 182.1473,134.12382 182.1473,134.12382 C 182.1473,134.12382 181.50278,132.4614 182.80722,132.66549 C 184.11163,132.86954 187.36507,134.94011 187.36507,134.94011 C 187.00542,134.7278 184.43042,129.56987 188.87097,130.88596 C 190.17037,131.27108 192.60124,132.81067 192.60124,132.81067 C 192.60124,132.81067 192.49195,131.41798 193.32716,131.20648 C 194.16235,130.99498 195.61206,132.69379 195.94202,131.96463 C 196.27196,131.23546 195.86275,130.32404 196.93784,130.12711 C 198.01293,129.93018 199.77448,131.8477 200.24239,131.17685 C 200.71028,130.50602 205.7301,131.75982 205.31033,131.23486 C 204.89057,130.7099 200.94771,126.34986 200.40515,124.6437 C 199.8626,122.93752 203.14009,124.41018 203.14009,124.41018 L 199.88369,122.16463 C 199.88369,122.16463 203.43433,121.58107 202.94858,121.20195 C 202.46282,120.82283 196.26756,118.89829 196.26756,118.89829 L 197.13737,117.70244 L 191.3862,113.70709 L 193.62345,112.39448 L 188.65772,110.29486 L 189.05368,109.41985 L 184.97561,107.17436 C 183.61979,106.125 177.96169,103.92831 180.27856,101.88736 C 179.68641,99.552142 183.0244,97.243069 185.1862,98.33085 C 186.79488,99.140341 188.59872,102.79923 188.59872,102.79923 L 189.50372,107.69905 L 190.45738,107.40731 L 193.40166,111.43201 L 194.06755,110.32364 L 196.27402,115.25256 L 197.92384,111.60671 L 200.17248,114.98979 C 200.17248,114.98979 199.27186,113.1965 200.95249,112.53982 C 203.24818,111.64281 204.85219,114.36244 207.2197,114.66852 C 207.17679,112.3918 203.55418,106.16919 208.12029,107.23115 C 209.59189,107.57341 210.27319,109.01013 210.27319,109.01013 L 211.53895,106.93927 L 216.60044,110.64301 C 216.60044,110.64301 215.36533,107.47128 216.19905,107.17229 C 217.03275,106.87328 219.93525,109.44698 219.93525,109.44698 C 219.93525,109.44698 219.13036,107.41271 219.96552,107.2012 C 220.80073,106.9897 223.01205,109.18429 223.27601,108.60094 C 223.53999,108.01762 222.87153,105.95418 223.84018,105.53849 C 224.80884,105.12281 226.8207,107.6674 227.15067,106.93823 C 227.48063,106.20907 226.27231,104.61232 227.85871,104.2841 C 229.44513,103.95586 233.4963,105.62535 233.4963,105.62535 C 233.4963,105.62535 231.14566,102.28603 230.88195,100.87149 C 230.61821,99.456961 232.92719,100.34638 232.44144,99.967242 C 231.95569,99.588116 230.43095,98.509082 230.4086,97.196606 C 230.38629,95.884152 232.35213,94.71739 232.35213,94.71739 C 232.35213,94.71739 229.19297,94.163429 229.0357,92.967651 C 228.87841,91.771867 231.72303,89.93422 231.72303,89.93422 C 231.72303,89.93422 228.88326,89.037571 228.40658,88.184489 C 227.92988,87.33143 229.81622,86.52194 229.81622,86.52194 C 229.81622,86.52194 226.46516,85.756571 226.08596,84.597254 C 225.70676,83.437937 228.29942,81.884679 228.29942,81.884679 C 228.29942,81.884679 225.05431,82.062424 224.11319,81.330785 C 220.80589,78.759682 227.63889,76.914509 227.73628,76.955675 C 227.73628,76.955675 222.25911,75.986262 220.79129,75.235341 C 219.32349,74.484421 222.91605,74.352952 221.86504,73.951993 C 220.814,73.551026 217.10947,73.958188 216.58721,73.631497 C 213.15869,71.486919 222.61525,66.451048 222.76564,66.514631 C 222.76564,66.514631 218.62739,65.763883 217.60191,64.852516 C 216.57645,63.941149 218.66375,62.869155 218.66375,62.869155 C 218.66375,62.869155 215.73234,63.627678 215.24507,63.161055 C 214.75784,62.694425 217.39254,60.594299 216.71477,61.002673 C 216.03698,61.41104 213.39942,62.337236 212.49229,62.344591 C 211.58516,62.351931 214.57378,59.923684 213.08622,61.032085 L 202.93143,67.857567 C 200.03457,68.974228 195.12101,70.763585 193.96118,68.408161 C 191.11835,62.634905 198.05578,60.587408 203.09913,62.740298 L 208.79777,62.519823 L 211.77881,60.653011 C 211.77881,60.653011 210.31546,60.164571 211.28114,59.573902 C 212.24684,58.983234 215.64156,58.29033 215.64156,58.29033 C 215.64156,58.29033 213.56059,56.715508 214.37631,56.365457 C 215.19202,56.015406 218.8327,54.68816 219.53455,53.681883 C 220.2364,52.675642 216.50591,52.748742 217.1837,52.340368 C 217.86149,51.932009 221.10648,49.481854 221.10648,49.481854 C 221.10648,49.481854 217.13609,49.540417 219.70926,47.848665 C 222.28245,46.15686 223.68615,44.144312 223.68615,44.144312 C 223.68615,44.144312 220.70523,45.012208 219.31381,44.727947 C 217.92239,44.443679 218.12049,43.007269 218.12049,43.007269 C 218.12049,43.007269 215.62536,44.254247 214.70781,43.649085 C 213.79026,43.043961 214.45031,40.586721 214.45031,40.586721 C 214.45031,40.586721 211.72118,42.169174 210.70166,41.607769 C 209.68217,41.04637 211.73375,37.874423 210.37221,38.341225 C 209.01074,38.807952 206.66839,40.988234 204.9922,40.062329 C 203.316,39.136417 203.93139,34.054239 203.66741,34.637583 C 203.40345,35.220919 202.52321,35.8043 201.838,35.775172 C 201.15278,35.746044 201.19049,33.937795 200.92655,34.521071 C 200.66257,35.104407 200.5544,36.796032 199.93665,36.708604 C 199.31891,36.621138 198.45558,34.171252 198.45558,34.171252 C 198.45558,34.171252 196.9483,37.138968 195.75042,36.15471 C 194.55253,35.170437 193.66402,30.234168 193.66402,30.234168 C 193.66402,30.234168 191.65597,32.946736 190.43088,33.384298 C 189.20586,33.821882 189.02773,31.401102 188.76375,31.98446 C 188.49977,32.567781 187.83985,34.026114 187.83985,34.026114 C 187.83985,34.026114 186.23274,32.130444 185.90875,33.209605 C 186.94986,35.343633 185.79898,47.521023 181.91803,45.986702 C 178.64655,44.69335 182.80788,32.593445 183.71366,32.976432 C 183.71366,32.976432 182.86172,35.222265 182.43004,33.997353 C 181.99835,32.772417 181.11175,24.926809 181.11175,24.926809 C 181.11175,24.926809 178.90696,30.162182 177.59631,31.606015 C 176.28565,33.049802 176.13306,30.118711 175.86909,30.702062 C 175.60511,31.285391 175.42936,34.034239 174.42323,34.260349 C 173.41709,34.486466 171.84459,31.606471 171.84459,31.606471 L 171.37023,35.923018 C 171.37023,35.923018 168.29992,32.539993 167.83795,33.560831 C 167.37603,34.581654 168.36663,38.475237 167.66924,39.744002 C 166.97185,41.01276 165.51039,37.615025 165.04844,38.635863 C 164.58648,39.656708 164.29225,42.485818 164.29225,42.485818 C 164.29225,42.485818 161.67196,37.381949 161.07803,38.69447 C 160.4841,40.006976 158.99008,44.761093 158.99008,44.761093 C 158.99008,44.761093 158.41453,43.127858 158.15054,43.711202 C 157.88659,44.294516 157.79628,47.036129 157.79628,47.036129 L 154.95963,45.315526 C 154.95963,45.315526 156.15518,48.806196 155.31884,50.332025 C 153.55768,53.545132 149.55526,49.632425 149.55526,49.632425 L 151.40797,53.890529 L 151.7915,56.311257 L 149.45846,56.019753 L 151.4253,58.936224 L 148.50431,60.30721 L 154.22709,61.371946 C 154.22709,61.371946 147.52127,62.346148 147.57382,62.986542 C 147.70906,64.634472 155.52566,67.701625 161.71596,68.151936 C 166.07598,68.469118 165.39758,75.26818 165.39758,75.26818 C 165.39758,75.26818 153.1102,66.386126 142.73012,64.971796 C 120.79024,61.982389 123.41467,68.903305 123.07894,75.906368 L 125.85651,76.446076 z "
           style="fill:#fcef3c;fill-opacity:1;fill-rule:evenodd;stroke:#000000;stroke-width:2;stroke-linecap:butt;stroke-linejoin:miter;stroke-miterlimit:4;stroke-dasharray:none;stroke-opacity:1;display:inline"
           id="path21323" />
        <g
           id="g21325"
           style="fill:none;fill-opacity:1;stroke:#000000;stroke-width:3.89866638;stroke-linecap:round;stroke-miterlimit:4;stroke-dasharray:none;stroke-opacity:1"
           transform="matrix(0.358097,-0.791346,-0.874752,-0.369864,245.86645,884.4939)">
          <path
             sodipodi:nodetypes="ccscsc"
             id="path21327"
             d="M 823.5,359 L 823.25,358.5 C 827.07306,365.8906 826.78662,374.50852 825.25,382.25 C 822.15465,397.84431 820.61276,412.83719 821.25,428.5 C 838.615,413.22148 852.72951,418.44194 859.75,412.25 C 866.45803,406.33365 871.79082,399.15986 874,393.25"
             style="fill:none;fill-opacity:1;fill-rule:evenodd;stroke:#000000;stroke-width:3.30353498;stroke-linecap:round;stroke-linejoin:miter;stroke-miterlimit:4;stroke-dasharray:none;stroke-opacity:1" />
          <path
             sodipodi:nodetypes="ccc"
             id="path21329"
             d="M 822.25,427.75 C 805.49027,412.69054 785.19769,417.04597 783,396 C 781.79477,389.92287 781.90542,386.4775 782,383"
             style="fill:none;fill-opacity:1;fill-rule:evenodd;stroke:#000000;stroke-width:3.30353498;stroke-linecap:round;stroke-linejoin:miter;stroke-miterlimit:4;stroke-dasharray:none;stroke-opacity:1" />
          <path
             sodipodi:nodetypes="cc"
             id="path21331"
             d="M 821,427.25 C 809.51138,432.8834 784.66562,433.72244 778.75,430"
             style="fill:none;fill-opacity:1;fill-rule:evenodd;stroke:#000000;stroke-width:3.30353498;stroke-linecap:round;stroke-linejoin:miter;stroke-miterlimit:4;stroke-dasharray:none;stroke-opacity:1" />
          <path
             sodipodi:nodetypes="ccc"
             id="path21333"
             d="M 822.5,427.5 C 829.4141,426.75171 835.78562,426.36514 838.75,428.25 C 851.29096,433.45934 862.41126,434.72664 864.75,434.75"
             style="fill:none;fill-opacity:1;fill-rule:evenodd;stroke:#000000;stroke-width:3.30353498;stroke-linecap:round;stroke-linejoin:miter;stroke-miterlimit:4;stroke-dasharray:none;stroke-opacity:1" />
        </g>
      </g>
      <path
         sodipodi:type="arc"
         style="fill:#fcef3c;fill-opacity:1;fill-rule:evenodd;stroke:#000000;stroke-width:9.86300373;stroke-linejoin:round;stroke-miterlimit:4;stroke-dasharray:none;stroke-opacity:1"
         id="path12968"
         sodipodi:cx="841.27661"
         sodipodi:cy="389.36169"
         sodipodi:rx="53.61702"
         sodipodi:ry="53.61702"
         d="M 841.27661,335.74467 A 53.61702,53.61702 0 1 1 841.2766,335.74467"
         sodipodi:start="4.712389"
         sodipodi:end="10.995574"
         sodipodi:open="true"
         transform="matrix(0.293758,0,0,0.314945,-167.68304,109.59687)" />
      <path
         sodipodi:open="true"
         sodipodi:end="10.995574"
         sodipodi:start="4.712389"
         d="M 841.27661,335.74467 A 53.61702,53.61702 0 1 1 841.2766,335.74467"
         sodipodi:ry="53.61702"
         sodipodi:rx="53.61702"
         sodipodi:cy="389.36169"
         sodipodi:cx="841.27661"
         id="path12970"
         style="fill:#fcef3c;fill-opacity:1;fill-rule:evenodd;stroke:#000000;stroke-width:9.86300373;stroke-linejoin:round;stroke-miterlimit:4;stroke-dasharray:none;stroke-opacity:1"
         sodipodi:type="arc"
         transform="matrix(0.293758,0,0,0.314945,-127.61315,109.59687)" />
      <path
         sodipodi:open="true"
         sodipodi:end="10.995574"
         sodipodi:start="4.712389"
         d="M 841.27661,335.74467 A 53.61702,53.61702 0 1 1 841.2766,335.74467"
         sodipodi:ry="53.61702"
         sodipodi:rx="53.61702"
         sodipodi:cy="389.36169"
         sodipodi:cx="841.27661"
         id="path12972"
         style="fill:#fcef3c;fill-opacity:1;fill-rule:evenodd;stroke:#000000;stroke-width:9.86300373;stroke-linejoin:round;stroke-miterlimit:4;stroke-dasharray:none;stroke-opacity:1"
         sodipodi:type="arc"
         transform="matrix(0.293758,0,0,0.314945,-108.06265,66.73755)" />
      <path
         transform="matrix(0.293758,0,0,0.314945,-189.43364,66.73755)"
         sodipodi:type="arc"
         style="fill:#fcef3c;fill-opacity:1;fill-rule:evenodd;stroke:#000000;stroke-width:9.86300373;stroke-linejoin:round;stroke-miterlimit:4;stroke-dasharray:none;stroke-opacity:1"
         id="path12974"
         sodipodi:cx="841.27661"
         sodipodi:cy="389.36169"
         sodipodi:rx="53.61702"
         sodipodi:ry="53.61702"
         d="M 841.27661,335.74467 A 53.61702,53.61702 0 1 1 841.2766,335.74467"
         sodipodi:start="4.712389"
         sodipodi:end="10.995574"
         sodipodi:open="true" />
      <path
         sodipodi:open="true"
         sodipodi:end="10.995574"
         sodipodi:start="4.712389"
         d="M 841.27661,335.74467 A 53.61702,53.61702 0 1 1 841.2766,335.74467"
         sodipodi:ry="53.61702"
         sodipodi:rx="53.61702"
         sodipodi:cy="389.36169"
         sodipodi:cx="841.27661"
         id="path12976"
         style="fill:#fcef3c;fill-opacity:1;fill-rule:evenodd;stroke:#000000;stroke-width:9.86300373;stroke-linejoin:round;stroke-miterlimit:4;stroke-dasharray:none;stroke-opacity:1"
         sodipodi:type="arc"
         transform="matrix(0.293758,0,0,0.314945,-195.87754,37.62189)" />
      <path
         sodipodi:open="true"
         sodipodi:end="10.995574"
         sodipodi:start="4.712389"
         d="M 841.27661,335.74467 A 53.61702,53.61702 0 1 1 841.2766,335.74467"
         sodipodi:ry="53.61702"
         sodipodi:rx="53.61702"
         sodipodi:cy="389.36169"
         sodipodi:cx="841.27661"
         id="path12978"
         style="fill:#fcef3c;fill-opacity:1;fill-rule:evenodd;stroke:#000000;stroke-width:9.86300373;stroke-linejoin:round;stroke-miterlimit:4;stroke-dasharray:none;stroke-opacity:1"
         sodipodi:type="arc"
         transform="matrix(0.293758,0,0,0.314945,-122.01305,81.45285)" />
      <path
         transform="matrix(0.293758,0,0,0.314945,-123.72555,13.605651)"
         sodipodi:type="arc"
         style="fill:#fcef3c;fill-opacity:1;fill-rule:evenodd;stroke:#000000;stroke-width:9.86300373;stroke-linejoin:round;stroke-miterlimit:4;stroke-dasharray:none;stroke-opacity:1"
         id="path12980"
         sodipodi:cx="841.27661"
         sodipodi:cy="389.36169"
         sodipodi:rx="53.61702"
         sodipodi:ry="53.61702"
         d="M 841.27661,335.74467 A 53.61702,53.61702 0 1 1 841.2766,335.74467"
         sodipodi:start="4.712389"
         sodipodi:end="10.995574"
         sodipodi:open="true" />
      <path
         transform="matrix(0.293758,0,0,0.314945,-101.97494,36.80439)"
         sodipodi:type="arc"
         style="fill:#fcef3c;fill-opacity:1;fill-rule:evenodd;stroke:#000000;stroke-width:9.86300373;stroke-linejoin:round;stroke-miterlimit:4;stroke-dasharray:none;stroke-opacity:1"
         id="path12982"
         sodipodi:cx="841.27661"
         sodipodi:cy="389.36169"
         sodipodi:rx="53.61702"
         sodipodi:ry="53.61702"
         d="M 841.27661,335.74467 A 53.61702,53.61702 0 1 1 841.2766,335.74467"
         sodipodi:start="4.712389"
         sodipodi:end="10.995574"
         sodipodi:open="true" />
      <path
         sodipodi:open="true"
         sodipodi:end="10.995574"
         sodipodi:start="4.712389"
         d="M 841.27661,335.74467 A 53.61702,53.61702 0 1 1 841.2766,335.74467"
         sodipodi:ry="53.61702"
         sodipodi:rx="53.61702"
         sodipodi:cy="389.36169"
         sodipodi:cx="841.27661"
         id="path12984"
         style="fill:#fcef3c;fill-opacity:1;fill-rule:evenodd;stroke:#000000;stroke-width:10.22481346;stroke-linejoin:round;stroke-miterlimit:4;stroke-dasharray:none;stroke-opacity:1"
         sodipodi:type="arc"
         transform="matrix(0.294049,0,0,0.292761,-123.69514,61.83267)" />
      <path
         transform="matrix(0.293758,0,0,0.314945,-172.38314,80.82296)"
         sodipodi:type="arc"
         style="fill:#fcef3c;fill-opacity:1;fill-rule:evenodd;stroke:#000000;stroke-width:9.86300373;stroke-linejoin:round;stroke-miterlimit:4;stroke-dasharray:none;stroke-opacity:1"
         id="path12986"
         sodipodi:cx="841.27661"
         sodipodi:cy="389.36169"
         sodipodi:rx="53.61702"
         sodipodi:ry="53.61702"
         d="M 841.27661,335.74467 A 53.61702,53.61702 0 1 1 841.2766,335.74467"
         sodipodi:start="4.712389"
         sodipodi:end="10.995574"
         sodipodi:open="true" />
      <path
         sodipodi:open="true"
         sodipodi:end="10.995574"
         sodipodi:start="4.712389"
         d="M 841.27661,335.74467 A 53.61702,53.61702 0 1 1 841.2766,335.74467"
         sodipodi:ry="53.61702"
         sodipodi:rx="53.61702"
         sodipodi:cy="389.36169"
         sodipodi:cx="841.27661"
         id="path12988"
         style="fill:#fcef3c;fill-opacity:1;fill-rule:evenodd;stroke:#000000;stroke-width:9.86300373;stroke-linejoin:round;stroke-miterlimit:4;stroke-dasharray:none;stroke-opacity:1"
         sodipodi:type="arc"
         transform="matrix(0.293758,0,0,0.314945,-171.79564,52.79287)" />
      <path
         transform="matrix(0.293758,0,0,0.314945,-171.79564,13.605673)"
         sodipodi:type="arc"
         style="fill:#fcef3c;fill-opacity:1;fill-rule:evenodd;stroke:#000000;stroke-width:9.86300373;stroke-linejoin:round;stroke-miterlimit:4;stroke-dasharray:none;stroke-opacity:1"
         id="path12990"
         sodipodi:cx="841.27661"
         sodipodi:cy="389.36169"
         sodipodi:rx="53.61702"
         sodipodi:ry="53.61702"
         d="M 841.27661,335.74467 A 53.61702,53.61702 0 1 1 841.2766,335.74467"
         sodipodi:start="4.712389"
         sodipodi:end="10.995574"
         sodipodi:open="true" />
      <path
         sodipodi:open="true"
         sodipodi:end="10.995574"
         sodipodi:start="4.712389"
         d="M 841.27661,335.74467 A 53.61702,53.61702 0 1 1 841.2766,335.74467"
         sodipodi:ry="53.61702"
         sodipodi:rx="53.61702"
         sodipodi:cy="389.36169"
         sodipodi:cx="841.27661"
         id="path12992"
         style="fill:#fcef3c;fill-opacity:1;fill-rule:evenodd;stroke:#000000;stroke-width:9.86300373;stroke-linejoin:round;stroke-miterlimit:4;stroke-dasharray:none;stroke-opacity:1"
         sodipodi:type="arc"
         transform="matrix(0.293758,0,0,0.314945,-192.37114,19.207675)" />
      <path
         sodipodi:open="true"
         sodipodi:end="10.995574"
         sodipodi:start="4.712389"
         d="M 841.27661,335.74467 A 53.61702,53.61702 0 1 1 841.2766,335.74467"
         sodipodi:ry="53.61702"
         sodipodi:rx="53.61702"
         sodipodi:cy="389.36169"
         sodipodi:cx="841.27661"
         id="path12994"
         style="fill:#fcef3c;fill-opacity:1;fill-rule:evenodd;stroke:#000000;stroke-width:9.86300373;stroke-linejoin:round;stroke-miterlimit:4;stroke-dasharray:none;stroke-opacity:1"
         sodipodi:type="arc"
         transform="matrix(0.293758,0,0,0.314945,-171.79564,24.863275)" />
      <path
         transform="matrix(0.293758,0,0,0.314945,-147.68874,124.7343)"
         sodipodi:type="arc"
         style="fill:#fcef3c;fill-opacity:1;fill-rule:evenodd;stroke:#000000;stroke-width:9.86300373;stroke-linejoin:round;stroke-miterlimit:4;stroke-dasharray:none;stroke-opacity:1"
         id="path12996"
         sodipodi:cx="841.27661"
         sodipodi:cy="389.36169"
         sodipodi:rx="53.61702"
         sodipodi:ry="53.61702"
         d="M 841.27661,335.74467 A 53.61702,53.61702 0 1 1 841.2766,335.74467"
         sodipodi:start="4.712389"
         sodipodi:end="10.995574"
         sodipodi:open="true" />
      <path
         transform="matrix(0.293758,0,0,0.314945,-147.68874,95.20322)"
         sodipodi:type="arc"
         style="fill:#fcef3c;fill-opacity:1;fill-rule:evenodd;stroke:#000000;stroke-width:9.86300373;stroke-linejoin:round;stroke-miterlimit:4;stroke-dasharray:none;stroke-opacity:1"
         id="path12998"
         sodipodi:cx="841.27661"
         sodipodi:cy="389.36169"
         sodipodi:rx="53.61702"
         sodipodi:ry="53.61702"
         d="M 841.27661,335.74467 A 53.61702,53.61702 0 1 1 841.2766,335.74467"
         sodipodi:start="4.712389"
         sodipodi:end="10.995574"
         sodipodi:open="true" />
      <path
         transform="matrix(0.293806,0,0,0.311247,-147.72874,68.17745)"
         sodipodi:type="arc"
         style="fill:#fcef3c;fill-opacity:1;fill-rule:evenodd;stroke:#000000;stroke-width:9.92062092;stroke-linejoin:round;stroke-miterlimit:4;stroke-dasharray:none;stroke-opacity:1"
         id="path13000"
         sodipodi:cx="841.27661"
         sodipodi:cy="389.36169"
         sodipodi:rx="53.61702"
         sodipodi:ry="53.61702"
         d="M 841.27661,335.74467 A 53.61702,53.61702 0 1 1 841.2766,335.74467"
         sodipodi:start="4.712389"
         sodipodi:end="10.995574"
         sodipodi:open="true" />
      <path
         transform="matrix(0.293758,0,0,0.314945,-106.57514,19.207675)"
         sodipodi:type="arc"
         style="fill:#fcef3c;fill-opacity:1;fill-rule:evenodd;stroke:#000000;stroke-width:9.86300373;stroke-linejoin:round;stroke-miterlimit:4;stroke-dasharray:none;stroke-opacity:1"
         id="path13002"
         sodipodi:cx="841.27661"
         sodipodi:cy="389.36169"
         sodipodi:rx="53.61702"
         sodipodi:ry="53.61702"
         d="M 841.27661,335.74467 A 53.61702,53.61702 0 1 1 841.2766,335.74467"
         sodipodi:start="4.712389"
         sodipodi:end="10.995574"
         sodipodi:open="true" />
      <path
         transform="matrix(0.293758,0,0,0.314945,-123.50054,25.466341)"
         sodipodi:type="arc"
         style="fill:#fcef3c;fill-opacity:1;fill-rule:evenodd;stroke:#000000;stroke-width:9.86300373;stroke-linejoin:round;stroke-miterlimit:4;stroke-dasharray:none;stroke-opacity:1"
         id="path13004"
         sodipodi:cx="841.27661"
         sodipodi:cy="389.36169"
         sodipodi:rx="53.61702"
         sodipodi:ry="53.61702"
         d="M 841.27661,335.74467 A 53.61702,53.61702 0 1 1 841.2766,335.74467"
         sodipodi:start="4.712389"
         sodipodi:end="10.995574"
         sodipodi:open="true" />
      <path
         style="fill:#fcef3c;fill-opacity:1;fill-rule:evenodd;stroke:#000000;stroke-width:3.00000095;stroke-linecap:butt;stroke-linejoin:miter;stroke-miterlimit:4;stroke-dasharray:none;stroke-opacity:1"
         d="M 92.130321,123.36734 C 94.380384,107.28504 92.505332,95.625376 92.505332,95.625376 C 86.221032,97.769682 70.577746,105.00454 59.093506,107.14884 L 57.778407,97.887843 C 75.384161,94.889992 115.58759,77.614704 134.19304,70.329646 L 132.50293,80.231207 C 125.07322,82.612062 119.14879,86.81654 100.39594,94.255645 C 101.8135,103.63698 100.64991,114.14956 100.39594,123.5309 L 92.130321,123.36734 z "
         id="path13006"
         sodipodi:nodetypes="ccccccccc" />
      <path
         transform="matrix(0.293758,0,0,0.314945,-148.27624,14.168533)"
         sodipodi:type="arc"
         style="fill:#fcef3c;fill-opacity:1;fill-rule:evenodd;stroke:#000000;stroke-width:9.86300373;stroke-linejoin:round;stroke-miterlimit:4;stroke-dasharray:none;stroke-opacity:1"
         id="path13008"
         sodipodi:cx="841.27661"
         sodipodi:cy="389.36169"
         sodipodi:rx="53.61702"
         sodipodi:ry="53.61702"
         d="M 841.27661,335.74467 A 53.61702,53.61702 0 1 1 841.2766,335.74467"
         sodipodi:start="4.712389"
         sodipodi:end="10.995574"
         sodipodi:open="true" />
      <path
         transform="matrix(0.293758,0,0,0.314945,-147.68874,38.66052)"
         sodipodi:type="arc"
         style="fill:#fcef3c;fill-opacity:1;fill-rule:evenodd;stroke:#000000;stroke-width:9.86300373;stroke-linejoin:round;stroke-miterlimit:4;stroke-dasharray:none;stroke-opacity:1"
         id="path13010"
         sodipodi:cx="841.27661"
         sodipodi:cy="389.36169"
         sodipodi:rx="53.61702"
         sodipodi:ry="53.61702"
         d="M 841.27661,335.74467 A 53.61702,53.61702 0 1 1 841.2766,335.74467"
         sodipodi:start="4.712389"
         sodipodi:end="10.995574"
         sodipodi:open="true" />
    </g>
    <g
       id="g9286">
      <path
         sodipodi:nodetypes="cssscsssscssssssssccssscssssccssssccccssscsssc"
         id="path7321"
         d="M 101.4016,350.82556 C 97.933949,367.48743 103.81701,378.4664 119.12841,380.16668 C 126.23227,380.95555 128.89146,383.18833 128.60642,388.47352 C 128.54037,389.69825 128.25614,390.7022 127.79088,391.51406 C 126.74091,393.34632 124.80894,394.23188 122.67325,394.58418 C 121.02716,394.6453 119.02045,394.26327 116.5647,393.47414 C 101.89835,388.76132 92.019449,396.40743 88.360689,413.0284 C 86.280959,422.47598 93.059009,438.05992 101.45649,442.8593 C 116.23005,451.30279 128.49641,449.08964 134.84802,435.0522 C 135.62754,433.32938 136.40818,431.94344 137.22444,430.85742 C 138.47242,429.57011 139.87163,428.26308 141.46412,427.95735 C 143.08048,427.64702 144.5385,427.66804 145.68554,428.61849 C 149.46275,431.74835 150.28161,434.48433 149.16362,438.2321 C 149.15315,438.26716 149.14678,438.30423 149.13612,438.33923 C 148.61156,439.40258 147.88271,440.54602 146.97264,441.80695 C 137.95552,454.30059 142.14709,466.02209 156.82267,474.63474 C 165.16443,479.53025 182.06046,477.64484 189.22147,471.14019 C 201.81974,459.69674 203.07906,447.80441 192.17224,436.95819 C 185.13626,429.96131 188.11306,426.07362 189.68061,424.35666 C 191.79246,422.58148 196.62323,420.96631 201.96407,428.16592 C 211.0575,440.60018 223.53464,440.19851 236.26337,428.90038 C 243.4986,422.47838 247.18626,405.88131 243.21453,397.06187 C 236.2271,381.54591 225.00093,376.14088 211.61246,383.76563 C 209.96382,384.70455 208.52768,385.36882 207.22575,385.76727 C 205.1617,386.09385 203.03777,386.05937 201.37188,385.17048 C 201.36383,385.16469 201.35945,385.15349 201.3514,385.14767 C 201.33184,385.13708 201.30628,385.1346 201.28759,385.12251 C 200.36616,384.5265 199.16657,382.97589 198.76095,382.03278 C 198.23781,380.81645 197.66186,378.73297 198.15104,377.63415 C 198.64863,375.8656 199.98335,374.35736 201.56754,373.08254 C 202.74327,372.37464 204.21461,371.72809 206.03856,371.12888 C 220.67576,366.32007 224.19239,354.36136 217.38364,338.76614 C 213.51347,329.9016 198.74784,321.48988 189.13215,322.5438 C 172.21549,324.3979 163.55377,333.39975 166.66514,348.48801 C 167.08895,350.54319 167.25873,352.25655 167.18733,353.70732 C 167.67274,356.95311 163.04338,360.55803 160.23226,360.24096 C 158.38217,359.96202 157.63439,359.88638 156.67223,359.39813 C 155.28659,358.46394 154.30341,356.9389 153.59522,355.23624 C 153.21388,353.81743 153.0409,352.06477 153.03437,349.92798 C 152.9872,334.52166 142.6603,327.49165 125.7235,329.15135 C 116.09638,330.09475 103.37266,341.35474 101.4016,350.82556 z M 156.58113,387.67363 C 161.47675,383.27776 169.01279,383.70424 173.40748,388.59912 C 177.80216,393.49398 177.39689,401.00987 172.50127,405.40573 C 167.60564,409.8016 160.09011,409.39795 155.69544,404.50309 C 151.30073,399.60821 151.68551,392.06952 156.58113,387.67363 z "
         style="fill:#ffffff;fill-opacity:1;fill-rule:evenodd;stroke:#000000;stroke-width:3.00000024;stroke-linecap:butt;stroke-linejoin:miter;stroke-miterlimit:4;stroke-dasharray:none;stroke-opacity:1;display:inline" />
      <path
         id="path8294"
         d="M 164.03125,384.65625 C 161.3628,384.76303 158.73558,385.7643 156.59375,387.6875 C 151.69813,392.08339 151.2928,399.60513 155.6875,404.5 C 160.08217,409.39486 167.60437,409.80212 172.5,405.40625 C 177.39562,401.01039 177.80092,393.48861 173.40625,388.59375 C 170.93424,385.84038 167.46212,384.51896 164.03125,384.65625 z "
         style="opacity:1;fill:#2b5df2;fill-opacity:1;stroke:#000000;stroke-width:3;stroke-miterlimit:4;stroke-dasharray:none;stroke-opacity:1" />
    </g>
    <g
       id="g9282">
      <path
         sodipodi:nodetypes="cssscsssscssssssssccssscssssccssssccccssscsssc"
         id="path7323"
         d="M 257.84899,210.2881 C 254.38134,226.94998 260.2644,237.92895 275.5758,239.62922 C 282.67966,240.41809 285.33885,242.65087 285.05381,247.93606 C 284.98776,249.16079 284.70353,250.16474 284.23827,250.9766 C 283.1883,252.80886 281.25633,253.69442 279.12064,254.04672 C 277.47455,254.10784 275.46784,253.72581 273.01209,252.93668 C 258.34574,248.22386 248.46684,255.86997 244.80808,272.49094 C 242.72835,281.93852 249.5064,297.52246 257.90388,302.32184 C 272.67744,310.76533 284.9438,308.55218 291.29541,294.51474 C 292.07493,292.79192 292.85557,291.40598 293.67183,290.31996 C 294.91981,289.03265 296.31902,287.72562 297.91151,287.41989 C 299.52787,287.10956 300.98589,287.13058 302.13293,288.08103 C 305.91014,291.21089 306.729,293.94687 305.61101,297.69464 C 305.60054,297.7297 305.59417,297.76677 305.58351,297.80177 C 305.05895,298.86512 304.3301,300.00856 303.42003,301.26949 C 294.40291,313.76313 298.59448,325.48463 313.27006,334.09728 C 321.61182,338.99279 338.50785,337.10738 345.66886,330.60273 C 358.26713,319.15928 359.52645,307.26695 348.61963,296.42073 C 341.58365,289.42385 344.56045,285.53616 346.128,283.8192 C 348.23985,282.04402 353.07062,280.42885 358.41146,287.62846 C 367.50489,300.06272 379.98203,299.66105 392.71076,288.36292 C 399.94599,281.94092 403.63365,265.34385 399.66192,256.52441 C 392.67449,241.00845 381.44832,235.60342 368.05985,243.22817 C 366.41121,244.16709 364.97507,244.83136 363.67314,245.22981 C 361.60909,245.55639 359.48516,245.52191 357.81927,244.63302 C 357.81122,244.62723 357.80684,244.61603 357.79879,244.61021 C 357.77923,244.59962 357.75367,244.59714 357.73498,244.58505 C 356.81355,243.98904 355.61396,242.43843 355.20834,241.49532 C 354.6852,240.27899 354.10925,238.19552 354.59843,237.09669 C 355.09602,235.32815 356.43074,233.81991 358.01493,232.54508 C 359.19066,231.83719 360.662,231.19064 362.48595,230.59142 C 377.12315,225.78261 380.63978,213.82391 373.83103,198.22868 C 369.96086,189.36414 355.19523,180.95242 345.57954,182.00634 C 328.66288,183.86045 320.00116,192.8623 323.11253,207.95056 C 323.53634,210.00573 323.70612,211.7191 323.63472,213.16986 C 324.12013,216.41566 319.49077,220.02058 316.67965,219.7035 C 314.82956,219.42457 314.08178,219.34892 313.11962,218.86067 C 311.73398,217.92648 310.7508,216.40145 310.04261,214.69878 C 309.66127,213.27998 309.48829,211.52731 309.48176,209.39052 C 309.43459,193.98421 299.10769,186.95419 282.17089,188.6139 C 272.54377,189.55729 259.82005,200.81729 257.84899,210.2881 z M 313.02852,247.13617 C 317.92414,242.7403 325.46018,243.16678 329.85487,248.06166 C 334.24955,252.95652 333.84428,260.47241 328.94866,264.86827 C 324.05303,269.26414 316.5375,268.86049 312.14283,263.96563 C 307.74812,259.07075 308.1329,251.53206 313.02852,247.13617 z "
         style="fill:#ffffff;fill-opacity:1;fill-rule:evenodd;stroke:#000000;stroke-width:3.00000024;stroke-linecap:butt;stroke-linejoin:miter;stroke-miterlimit:4;stroke-dasharray:none;stroke-opacity:1;display:inline" />
      <path
         id="path9265"
         d="M 320.5,244.09375 C 317.83155,244.20053 315.17308,245.20181 313.03125,247.125 C 308.13563,251.52089 307.76155,259.07386 312.15625,263.96875 C 316.55092,268.86361 324.04186,269.27088 328.9375,264.875 C 333.83312,260.47914 334.23844,252.95736 329.84375,248.0625 C 327.37174,245.30913 323.93087,243.95647 320.5,244.09375 z "
         style="opacity:1;fill:#2b5df2;fill-opacity:1;stroke:#000000;stroke-width:3;stroke-miterlimit:4;stroke-dasharray:none;stroke-opacity:1;display:inline" />
    </g>
    <g
       id="g9278">
      <path
         sodipodi:nodetypes="cssscsssscssssssssccssscssssccssssccccssscsssc"
         id="path14529"
         d="M 414.29637,69.750613 C 410.82872,86.412487 416.71178,97.391457 432.02318,99.091733 C 439.12704,99.880603 441.78623,102.11338 441.50119,107.39857 C 441.43514,108.6233 441.15091,109.62725 440.68565,110.43911 C 439.63568,112.27137 437.70371,113.15693 435.56802,113.50923 C 433.92193,113.57035 431.91522,113.18832 429.45947,112.39919 C 414.79312,107.68637 404.91422,115.33248 401.25546,131.95345 C 399.17573,141.40103 405.95378,156.98497 414.35126,161.78435 C 429.12482,170.22784 441.39118,168.01469 447.74279,153.97725 C 448.52231,152.25443 449.30295,150.86849 450.11921,149.78247 C 451.36719,148.49516 452.7664,147.18813 454.35889,146.8824 C 455.97525,146.57207 457.43327,146.59309 458.58031,147.54354 C 462.35752,150.6734 463.17638,153.40938 462.05839,157.15715 C 462.04792,157.19221 462.04155,157.22928 462.03089,157.26428 C 461.50633,158.32763 460.77748,159.47107 459.86741,160.732 C 450.85029,173.22564 455.04186,184.94714 469.71744,193.55979 C 478.0592,198.4553 494.95523,196.56989 502.11624,190.06524 C 514.71451,178.62179 515.97383,166.72946 505.06701,155.88324 C 498.03103,148.88636 501.00783,144.99867 502.57538,143.28171 C 504.68723,141.50653 509.518,139.89136 514.85884,147.09097 C 523.95227,159.52523 536.42941,159.12356 549.15814,147.82543 C 556.39337,141.40343 560.08103,124.80636 556.1093,115.98692 C 549.12187,100.47096 537.8957,95.06593 524.50723,102.69068 C 522.85859,103.6296 521.42245,104.29387 520.12052,104.69232 C 518.05647,105.0189 515.93254,104.98442 514.26665,104.09553 C 514.2586,104.08974 514.25422,104.07854 514.24617,104.07272 C 514.22661,104.06213 514.20105,104.05965 514.18236,104.04756 C 513.26093,103.45155 512.06134,101.90094 511.65572,100.95783 C 511.13258,99.741503 510.55663,97.658026 511.04581,96.559202 C 511.5434,94.790656 512.87812,93.282417 514.46231,92.00759 C 515.63804,91.299698 517.10938,90.653149 518.93333,90.053932 C 533.57053,85.245125 537.08716,73.286417 530.27841,57.691191 C 526.40824,48.826653 511.64261,40.414931 502.02692,41.468855 C 485.11026,43.322956 476.44854,52.324808 479.55991,67.413067 C 479.98372,69.468245 480.1535,71.181609 480.0821,72.632375 C 480.56751,75.878169 475.93815,79.483086 473.12703,79.166012 C 471.27694,78.887078 470.52916,78.811435 469.567,78.32318 C 468.18136,77.388993 467.19818,75.863957 466.48999,74.161295 C 466.10865,72.742488 465.93567,70.989822 465.92914,68.85303 C 465.88197,53.446719 455.55507,46.416701 438.61827,48.076409 C 428.99115,49.019802 416.26743,60.279797 414.29637,69.750613 z M 469.4759,106.59868 C 474.37152,102.20281 481.90756,102.62929 486.30225,107.52417 C 490.69693,112.41903 490.29166,119.93492 485.39604,124.33078 C 480.50041,128.72665 472.98488,128.323 468.59021,123.42814 C 464.1955,118.53326 464.58028,110.99457 469.4759,106.59868 z "
         style="fill:#ffffff;fill-opacity:1;fill-rule:evenodd;stroke:#000000;stroke-width:3.00000024;stroke-linecap:butt;stroke-linejoin:miter;stroke-miterlimit:4;stroke-dasharray:none;stroke-opacity:1" />
      <path
         id="path9267"
         d="M 476.9375,103.5625 C 474.26905,103.66928 471.61059,104.67056 469.46875,106.59375 C 464.57313,110.98964 464.19904,118.54262 468.59375,123.4375 C 472.98842,128.33236 480.51063,128.73962 485.40625,124.34375 C 490.30187,119.94789 490.70718,112.42611 486.3125,107.53125 C 483.84049,104.77788 480.36837,103.42522 476.9375,103.5625 z "
         style="opacity:1;fill:#2b5df2;fill-opacity:1;stroke:#000000;stroke-width:3;stroke-miterlimit:4;stroke-dasharray:none;stroke-opacity:1;display:inline" />
    </g>
    <path
       style="fill:#e20909;fill-opacity:1;fill-rule:evenodd;stroke:#000000;stroke-width:3;stroke-linecap:butt;stroke-linejoin:miter;stroke-miterlimit:4;stroke-dasharray:none;stroke-opacity:1;display:inline"
       d="M 249.9154,91.265512 C 229.01732,91.01427 209.3428,103.33099 197.13702,120.61894 C 222.26629,119.32698 247.52954,138.81013 247.52954,161.75715 L 247.52954,254.97482 L 154.28777,254.97482 C 131.34076,254.97482 111.8576,229.73567 113.14959,204.60641 C 81.78669,226.74943 66.808296,273.49421 113.51107,307.46394 C 66.808296,341.43367 81.78669,388.17842 113.14959,410.32146 C 111.8576,385.1922 131.34076,359.95307 154.28777,359.95307 L 247.52954,359.95307 L 247.52954,453.17079 C 247.52954,476.11777 222.26629,495.60093 197.13702,494.30897 C 219.27926,525.67073 266.02514,540.66823 299.99455,493.97156 C 333.96403,540.66823 380.70988,525.67073 402.85213,494.30897 C 377.72286,495.60093 352.48373,476.11777 352.48373,453.17079 L 352.48373,359.95307 L 445.70138,359.95307 C 468.64839,359.95307 488.13158,385.1922 486.83959,410.32146 C 518.20136,388.17922 533.19887,341.43337 486.5022,307.46394 C 533.19887,273.49447 518.20136,226.74865 486.83959,204.60641 C 488.13158,229.73567 468.64839,254.97482 445.70138,254.97482 L 352.48373,254.97482 L 352.48373,161.75715 C 352.48373,138.81013 377.72286,119.32698 402.85213,120.61894 C 380.70908,89.256085 333.96434,74.277662 299.99455,120.98045 C 284.74975,100.02135 266.92945,91.470074 249.9154,91.265512 z "
       id="path2257" />
  </g>
  <g
     inkscape:groupmode="layer"
     id="layer2"
     inkscape:label="Reflet final"
     sodipodi:insensitive="true"
     style="display:inline">
    <path
       sodipodi:nodetypes="cccccc"
       d="M 300.00001,658.5 C 300.00001,658.5 598.50001,546.17969 598.50001,260.72817 C 598.50001,-24.723334 598.50001,2.1764865 598.50001,2.1764865 L 1.5,2.1764865 L 1.5,260.72817 C 1.5,546.17969 300.00001,658.5 300.00001,658.5 z "
       style="opacity:1;fill:url(#radialGradient3163);fill-opacity:1;fill-rule:evenodd;stroke:none;stroke-width:1px;stroke-linecap:butt;stroke-linejoin:miter;stroke-opacity:1"
       id="path2875"
       inkscape:export-xdpi="144"
       inkscape:export-ydpi="144" />
  </g>
  <g
     inkscape:groupmode="layer"
     id="layer1"
     inkscape:label="Contour final"
     sodipodi:insensitive="true">
    <path
       sodipodi:nodetypes="cccccc"
       d="M 299.99999,658.50028 C 299.99999,658.50028 1.5,546.17992 1.5,260.72828 C 1.5,-24.723336 1.5,2.1764957 1.5,2.1764957 L 598.49999,2.1764957 L 598.49999,260.72828 C 598.49999,546.17992 299.99999,658.50028 299.99999,658.50028 z "
       style="opacity:1;fill:none;fill-opacity:1;fill-rule:evenodd;stroke:#000000;stroke-width:3.00000048;stroke-linecap:butt;stroke-linejoin:miter;stroke-miterlimit:4;stroke-dasharray:none;stroke-opacity:1"
       id="path1411"
       inkscape:export-xdpi="144"
       inkscape:export-ydpi="144" />
  </g>
</svg>
