<?xml version="1.0" encoding="UTF-8" standalone="no"?>
<!-- Created with Inkscape (http://www.inkscape.org/) -->

<svg
   xmlns:dc="http://purl.org/dc/elements/1.1/"
   xmlns:cc="http://creativecommons.org/ns#"
   xmlns:rdf="http://www.w3.org/1999/02/22-rdf-syntax-ns#"
   xmlns:svg="http://www.w3.org/2000/svg"
   xmlns="http://www.w3.org/2000/svg"
   xmlns:sodipodi="http://sodipodi.sourceforge.net/DTD/sodipodi-0.dtd"
   xmlns:inkscape="http://www.inkscape.org/namespaces/inkscape"
   version="1.0"
   width="500"
   height="608.92993"
   id="svg2"
   inkscape:version="0.48.4 r9939"
   sodipodi:docname="Blason Salmbach.svg">
  <sodipodi:namedview
     pagecolor="#ffffff"
     bordercolor="#666666"
     borderopacity="1"
     objecttolerance="10"
     gridtolerance="10"
     guidetolerance="10"
     inkscape:pageopacity="0"
     inkscape:pageshadow="2"
     inkscape:window-width="895"
     inkscape:window-height="819"
     id="namedview3829"
     showgrid="false"
     inkscape:zoom="0.77513023"
     inkscape:cx="371.26222"
     inkscape:cy="258.98062"
     inkscape:window-x="0"
     inkscape:window-y="0"
     inkscape:window-maximized="0"
     inkscape:current-layer="layer1-7" />
  <desc
     id="desc4">Flag of Canton of Valais (Wallis)</desc>
  <metadata
     id="metadata49">
    <rdf:RDF>
      <cc:Work
         rdf:about="">
        <dc:format>image/svg+xml</dc:format>
        <dc:type
           rdf:resource="http://purl.org/dc/dcmitype/StillImage" />
        <dc:title></dc:title>
        <dc:date>03-AUG-2006</dc:date>
        <dc:creator>
          <cc:Agent>
            <dc:title>Jérôme BLUM (wagner51)</dc:title>
          </cc:Agent>
        </dc:creator>
        <cc:license
           rdf:resource="http://web.resource.org/cc/PublicDomain" />
        <dc:language>fr</dc:language>
        <dc:subject>
          <rdf:Bag>
            <rdf:li>gabarit modèle blason projet wikipédia</rdf:li>
          </rdf:Bag>
        </dc:subject>
      </cc:Work>
      <cc:License
         rdf:about="http://web.resource.org/cc/PublicDomain">
        <cc:permits
           rdf:resource="http://web.resource.org/cc/Reproduction" />
        <cc:permits
           rdf:resource="http://web.resource.org/cc/Distribution" />
        <cc:permits
           rdf:resource="http://web.resource.org/cc/DerivativeWorks" />
      </cc:License>
    </rdf:RDF>
  </metadata>
  <defs
     id="defs6">
    <linearGradient
       id="linearGradient2893">
      <stop
         id="stop2895"
         style="stop-color:#ffffff;stop-opacity:0.3137255"
         offset="0" />
      <stop
         id="stop2897"
         style="stop-color:#ffffff;stop-opacity:0.25098041"
         offset="0.19" />
      <stop
         id="stop2901"
         style="stop-color:#6b6b6b;stop-opacity:0.1254902"
         offset="0.60000002" />
      <stop
         id="stop2899"
         style="stop-color:#000000;stop-opacity:0.1254902"
         offset="1" />
    </linearGradient>
  </defs>
  <g
     transform="translate(-49.813279,-35.922722)"
     id="layer3"
     style="display:inline">
    <g
       transform="translate(-74.342971,-246.56004)"
       id="layer1-7"
       style="display:inline">
      <g
         id="g4281">
        <g
           id="g3987">
          <g
             transform="translate(1.4285715,460)"
             id="g3137">
            <g
               id="g3166" />
          </g>
        </g>
        <g
           transform="matrix(0.99218663,0,0,0.99218663,0.97007878,6.9649376)"
           id="g3918">
          <g
             id="g3904"
             style="display:inline">
            <path
               d="m 364.76852,879.88803 c -19.14963,-8.01105 -47.03354,-22.16937 -66.18637,-33.60668 -35.59353,-21.25504 -59.4598,-39.79286 -87.92491,-68.2947 -29.97791,-30.01658 -44.10955,-48.79366 -57.97345,-77.0309 -12.11654,-24.67834 -19.01152,-48.77994 -21.48609,-75.10531 -0.66378,-7.06152 -1.03478,-70.3368 -1.03532,-176.58049 l -8.4e-4,-165.57547 484.64495,1.8e-4 3.82975,4.24782 3.82975,3.73966 -0.37708,171.08597 c -0.39948,181.30213 -0.2303,174.38458 -4.77067,195.09694 -17.86774,81.51027 -86.67771,155.29623 -194.52328,208.59016 -17.59731,8.69607 -41.66858,19.08303 -43.9009,18.94373 -0.61579,-0.0389 -6.97228,-2.51839 -14.12554,-5.51091 z"
               id="path3997"
               style="fill:#000000;fill-opacity:1;opacity:1"
               inkscape:connector-curvature="0" />
            <g
               id="layer1-74"
               transform="matrix(1.0078749,0,0,1.0078749,633.22062,117.5937)">
              <g
                 id="g9995"
                 transform="matrix(5.1315789,0,0,5.1587302,-391.02631,-300.14684)">
                <path
                   id="path3161"
                   style="opacity:1;fill:#ffffff;fill-opacity:1;fill-rule:nonzero;stroke:none"
                   d="m 8.9766586,108.42204 a 13.049647,12.980966 0 0 1 -26.0992936,0 13.049647,12.980966 0 1 1 26.0992936,0 z"
                   inkscape:connector-curvature="0" />
                <path
                   id="path3163"
                   style="opacity:1;fill:#ffffff;fill-opacity:1;fill-rule:nonzero;stroke:none"
                   d="m 67.661964,108.42205 a 13.049647,12.980966 0 0 1 -26.099294,0 13.049647,12.980966 0 1 1 26.099294,0 z"
                   inkscape:connector-curvature="0" />
                <path
                   inkscape:connector-curvature="0"
                   d="m 38.670951,177.70724 a 13.049647,12.980966 0 0 1 -26.099294,0 13.049647,12.980966 0 1 1 26.099294,0 z"
                   style="opacity:1;fill:#ffffff;fill-opacity:1;fill-rule:nonzero;stroke:none"
                   id="path4376" />
                <path
                   id="path4379"
                   d="m 25.321534,100.29041 -43.315352,66.3461 3.767316,7.28895 8.90895,10.58436 30.639086,-47.48557 33.43292,47.77959 11.726145,-15.67269 C 54.632251,146.65908 40.031633,123.50782 25.321534,100.29041 z"
                   style="fill:#ffe900;fill-opacity:1;fill-rule:evenodd;stroke:none"
                   inkscape:connector-curvature="0"
                   sodipodi:nodetypes="cccccccc" />
              </g>
              <g
                 transform="matrix(5.1315789,0,0,5.1587302,-391.02631,-300.14684)"
                 id="g4398">
                <path
                   inkscape:connector-curvature="0"
                   d="m 8.9766586,108.42204 a 13.049647,12.980966 0 0 1 -26.0992936,0 13.049647,12.980966 0 1 1 26.0992936,0 z"
                   style="opacity:1;fill:#ffffff;fill-opacity:1;fill-rule:nonzero;stroke:none"
                   id="path4400" />
                <path
                   inkscape:connector-curvature="0"
                   d="m 67.661964,108.42205 a 13.049647,12.980966 0 0 1 -26.099294,0 13.049647,12.980966 0 1 1 26.099294,0 z"
                   style="opacity:1;fill:#ffffff;fill-opacity:1;fill-rule:nonzero;stroke:none"
                   id="path4402" />
                <path
                   id="path4404"
                   style="opacity:1;fill:#ffffff;fill-opacity:1;fill-rule:nonzero;stroke:none"
                   d="m 38.670951,177.70724 a 13.049647,12.980966 0 0 1 -26.099294,0 13.049647,12.980966 0 1 1 26.099294,0 z"
                   inkscape:connector-curvature="0" />
                <path
                   sodipodi:nodetypes="cccccccc"
                   inkscape:connector-curvature="0"
                   style="fill:#ffe900;fill-opacity:1;fill-rule:evenodd;stroke:none"
                   d="m 25.321534,100.29041 -43.315352,66.3461 3.767316,7.28895 8.90895,10.58436 30.639086,-47.48557 33.43292,47.77959 11.726145,-15.67269 C 54.632251,146.65908 40.031633,123.50782 25.321534,100.29041 z"
                   id="path4406" />
              </g>
            </g>
            <path
               d="m 124.15625,277.6875 0,6 0,165.59375 c 2.8e-4,53.12882 0.10534,95.49727 0.28125,125.5 0.088,15.00136 0.18389,26.91404 0.3125,35.53125 0.12861,8.61721 0.22954,13.54897 0.46875,16.09375 2.53982,27.01957 9.69296,51.93021 22.09375,77.1875 14.11102,28.74057 28.89797,48.39027 59.09375,78.625 28.73086,28.76793 53.1954,47.78168 89.09375,69.21875 19.48232,11.63407 47.37896,25.81789 66.9375,34 3.61608,1.51276 7.03232,2.88261 9.65625,3.90625 1.31196,0.51182 2.42785,0.93293 3.3125,1.25 0.44233,0.15853 0.81023,0.28794 1.1875,0.40625 0.37727,0.11831 0.18336,0.26419 1.9375,0.375 2.9265,0.18262 2.87205,-0.33936 3.96875,-0.6875 1.0967,-0.34814 2.3872,-0.80506 3.875,-1.375 2.97559,-1.13988 6.79527,-2.70766 11.09375,-4.5625 8.58906,-3.70627 19.05193,-8.50052 27.96875,-12.90625 0.008,-0.004 0.0229,0.004 0.0312,0 108.89442,-53.81843 179.3247,-128.77628 197.71875,-212.6875 2.24361,-10.23493 3.48312,-14.77499 4.0625,-38.46875 0.57938,-23.69376 0.64401,-67.25688 0.84375,-157.90625 l -0.0104,-171.09375 -13.2708,-13.99984 -490.65625,-1.1e-4 z m 12,12 236.3125,0.25 239.875,0.25 2.09375,2.0625 2.03125,1.96875 -0.375,168.53125 c -0.19974,90.65276 -0.27275,134.30516 -0.84375,157.65625 -0.571,23.35109 -1.48449,25.71007 -3.78125,36.1875 -17.34001,79.10285 -84.56137,151.70021 -191.34375,204.46875 -8.67513,4.28699 -19.01018,9.03326 -27.40625,12.65625 -4.19804,1.8115 -7.94072,3.366 -10.65625,4.40625 -1.25054,0.47905 -2.2209,0.79745 -2.9375,1.03125 -0.69038,-0.25149 -1.55046,-0.56861 -2.65625,-1 -2.49658,-0.97396 -5.83782,-2.33274 -9.375,-3.8125 -18.74072,-7.83999 -46.61416,-21.9782 -65.4375,-33.21875 -35.28871,-21.07301 -58.55064,-39.13925 -86.75,-67.375 -29.76004,-29.79843 -43.22697,-47.70359 -56.84375,-75.4375 -11.83229,-24.09939 -18.49693,-47.40008 -20.90625,-73.03125 -0.0927,-0.98598 -0.2786,-6.60318 -0.40625,-15.15625 -0.12765,-8.55307 -0.22467,-20.42564 -0.3125,-35.40625 -0.17567,-29.96121 -0.28098,-72.32263 -0.28125,-125.4375 z"
               id="path3902"
               style="font-size:medium;font-style:normal;font-variant:normal;font-weight:normal;font-stretch:normal;text-indent:0;text-align:start;text-decoration:none;line-height:normal;letter-spacing:normal;word-spacing:normal;text-transform:none;direction:ltr;block-progression:tb;writing-mode:lr-tb;text-anchor:start;baseline-shift:baseline;color:#000000;fill:#000000;fill-opacity:1;stroke:none;stroke-width:12;marker:none;visibility:visible;display:inline;overflow:visible;enable-background:accumulate;font-family:Sans;-inkscape-font-specification:Sans"
               inkscape:connector-curvature="0"
               sodipodi:nodetypes="ccssssssssscscsssccsscccccccccccssssscssssscsssc" />
          </g>
          <path
             style="fill:#ffffff;fill-opacity:1;stroke:none;display:inline"
             id="path3831"
             d="m 360.73702,875.85653 c -19.14963,-8.01115 -47.03354,-22.16947 -66.18637,-33.60678 -34.79596,-20.77875 -59.09964,-39.55751 -86.3832,-66.74608 -16.18925,-16.13286 -16.56533,-16.57166 -3.00137,-3.50189 28.13615,27.11104 56.66656,48.00532 95.35269,69.83158 16.04802,9.05413 41.61026,21.47219 56.84792,27.61656 l 10.63604,4.28876 8.87285,-3.55658 c 43.07083,-17.2648 90.58689,-44.86365 126.53987,-73.49856 15.71477,-12.51605 43.40569,-39.7689 54.19912,-53.34162 29.90412,-37.60447 47.44091,-78.61188 51.69375,-120.87871 0.67722,-6.73066 1.04248,-68.58187 1.04248,-176.53342 l 0,-163.27354 11.61922,12.0945 -1.8923,163.98578 c -2.09199,181.29049 0.0222,174.63712 -4.51814,195.34947 -17.86774,81.51027 -88.95055,155.0437 -196.79612,208.33761 -17.59731,8.69607 -41.66858,19.08303 -43.9009,18.94373 -0.61579,-0.0389 -6.97228,-2.51829 -14.12554,-5.51081 z"
             inkscape:connector-curvature="0"
             sodipodi:nodetypes="sssssscsssssccssscs" />
          <path
             d="m 364.76852,879.88803 c -19.14963,-8.01115 -47.03354,-22.16947 -66.18637,-33.60678 -34.79596,-20.77875 -59.09964,-39.55751 -86.3832,-66.74608 -16.18925,-16.13286 -16.56533,-16.57166 -3.00137,-3.50189 28.13615,27.11104 56.66656,48.00532 95.35269,69.83158 16.04802,9.05413 41.61026,21.47219 56.84792,27.61656 l 10.63604,4.28876 8.87285,-3.55658 c 43.07083,-17.2648 90.58689,-44.86365 126.53987,-73.49856 15.71477,-12.51605 43.40569,-39.7689 54.19912,-53.34162 29.90412,-37.60447 47.44091,-78.61188 51.69375,-120.87871 0.67722,-6.73066 1.04248,-68.58187 1.04248,-176.53342 l 0,-168.26663 5.464,4.20317 6.15522,6.79438 -1.8923,170.07582 c -2.01709,181.29134 0.0222,174.63712 -4.51814,195.34947 -17.86774,81.51027 -88.95055,155.0437 -196.79612,208.33761 -17.59731,8.69607 -41.66858,19.08303 -43.9009,18.94373 -0.61579,-0.0389 -6.97228,-2.51829 -14.12554,-5.51081 z"
             id="path3993"
             style="fill:#000000;fill-opacity:1;stroke:#000000;stroke-width:0.30000001;stroke-miterlimit:4;stroke-opacity:1;stroke-dasharray:none;display:inline"
             inkscape:connector-curvature="0"
             sodipodi:nodetypes="sssssscssssscccssscs" />
          <path
             style="fill:#000000;stroke:none;stroke-width:1px;stroke-linecap:butt;stroke-linejoin:miter;stroke-opacity:1"
             d="m 67.085501,480.52409 14.110532,15.40064 -4.878212,-14.51369 -4.596002,-3.22527 -4.394423,2.45927 z"
             id="path4384"
             inkscape:connector-curvature="0"
             transform="matrix(1.0078749,0,0,1.0078749,124.15625,277.6875)" />
        </g>
        <g
           inkscape:groupmode="layer"
           id="layer6"
           inkscape:label="Ebene" />
      </g>
    </g>
  </g>
  <g
     transform="translate(-49.813279,-35.922722)"
     id="layer4"
     style="display:inline" />
  <g
     transform="translate(-49.813279,-35.922722)"
     id="layer5" />
  <g
     transform="translate(-49.813279,-35.922722)"
     id="layer2"
     style="display:inline" />
  <g
     transform="translate(-49.813279,-35.922722)"
     id="layer1" />
</svg>
